<?xml version="1.0" encoding="UTF-8" standalone="no"?>
<!-- Created with Inkscape (http://www.inkscape.org/) -->

<svg
   version="1.1"
   id="svg2"
   width="1600"
   height="1600"
   viewBox="0 0 1600 1600"
   sodipodi:docname="4l_on.svg"
   inkscape:version="1.2.2 (732a01da63, 2022-12-09)"
   xmlns:inkscape="http://www.inkscape.org/namespaces/inkscape"
   xmlns:sodipodi="http://sodipodi.sourceforge.net/DTD/sodipodi-0.dtd"
   xmlns="http://www.w3.org/2000/svg"
   xmlns:svg="http://www.w3.org/2000/svg"
   xmlns:rdf="http://www.w3.org/1999/02/22-rdf-syntax-ns#"
   xmlns:cc="http://creativecommons.org/ns#"
   xmlns:dc="http://purl.org/dc/elements/1.1/">
  <metadata
     id="metadata8">
    <rdf:RDF>
      <cc:Work
         rdf:about="">
        <dc:format>image/svg+xml</dc:format>
        <dc:type
           rdf:resource="http://purl.org/dc/dcmitype/StillImage" />
      </cc:Work>
    </rdf:RDF>
  </metadata>
  <defs
     id="defs6" />
  <sodipodi:namedview
     pagecolor="#808080"
     bordercolor="#666666"
     borderopacity="1"
     objecttolerance="10"
     gridtolerance="10"
     guidetolerance="10"
     inkscape:pageopacity="0"
     inkscape:pageshadow="2"
     inkscape:window-width="1993"
     inkscape:window-height="1009"
     id="namedview4"
     showgrid="false"
     inkscape:zoom="0.23046875"
     inkscape:cx="-266.84746"
     inkscape:cy="655.18644"
     inkscape:window-x="-8"
     inkscape:window-y="-8"
     inkscape:window-maximized="1"
     inkscape:current-layer="4L_ON"
     inkscape:showpageshadow="0"
     inkscape:pagecheckerboard="true"
     inkscape:deskcolor="#d1d1d1" />
  <g
     id="4L_ON"
     transform="scale(100)"
     style="stroke-width:0.01">
    <path
       style="fill:none;stroke-width:0.0003125"
       d="M 0,8 V 0 h 8 8 v 8 8 H 8 0 Z m 7.2692603,6.419944 c 0.047439,-0.03544 0.1152469,-0.103233 0.1506838,-0.150658 0.060746,-0.0813 0.06496,-0.134358 0.073678,-0.927757 L 7.5028694,12.5 h 0.296444 c 0.1796772,0 0.3366279,-0.01679 0.3984619,-0.04263 0.111135,-0.04643 0.2669306,-0.212293 0.2777685,-0.295709 0.00374,-0.02876 0.014283,0.414286 0.023437,0.984546 0.015804,0.984548 0.019893,1.041185 0.081075,1.123069 0.035437,0.04743 0.103265,0.115227 0.1507291,0.150664 0.085839,0.06409 0.1032397,0.06443 3.2692151,0.06443 3.165975,0 3.183376,-3.44e-4 3.269215,-0.06443 0.04746,-0.03544 0.115292,-0.103265 0.150729,-0.150729 0.06242,-0.08361 0.06443,-0.123219 0.06443,-1.269215 0,-1.145996 -0.002,-1.18561 -0.06443,-1.269215 -0.03544,-0.04746 -0.103256,-0.115292 -0.150708,-0.150729 -0.08454,-0.06313 -0.123417,-0.0646 -1.927432,-0.07297 l -1.841156,-0.0085 -0.0081,-4.3407374 C 11.484397,2.828741 11.484202,2.8168422 11.419944,2.7307805 11.384507,2.6833189 11.316679,2.6154929 11.269215,2.5800559 11.18561,2.517636 11.145996,2.515625 10,2.515625 c -1.1459962,0 -1.1856103,0.00201 -1.269215,0.064431 -0.047464,0.035437 -0.1152922,0.1032612 -0.1507291,0.1507204 -0.06396,0.085659 -0.064547,0.1121311 -0.080386,3.623069 -0.00878,1.9452288 -0.019322,3.5132494 -0.023437,3.48449 C 8.4642075,9.7543003 8.3084125,9.5888528 8.1977753,9.5426259 8.1357222,9.5166984 7.9785719,9.5 7.7966191,9.5 H 7.4974809 l 0.00393,-3.3483447 C 7.5052178,2.909183 7.5034678,2.8007994 7.4460528,2.7238986 7.4134434,2.6802221 7.3479503,2.6154929 7.3005122,2.5800559 7.2177234,2.5182113 7.1688806,2.5152373 6.0836931,2.5059658 c -0.7150347,-0.00611 -1.1710944,0.0022 -1.24083,0.022617 -0.060644,0.017752 -0.1535078,0.078348 -0.2063637,0.1346592 -0.093071,0.099154 -3.99347599,6.8986974 -4.09053881,7.1310014 -0.0410052,0.098139 -0.0468484,0.2845036 -0.0392559,1.2520336 0.00857,1.092031 0.011454,1.140124 0.0733512,1.222984 0.035437,0.04744 0.1032555,0.115246 0.15070784,0.150683 0.084537,0.06313 0.1234145,0.0646 1.92775657,0.07297 L 4.5,12.501452 v 0.794115 c 0,0.822871 0.011212,0.909677 0.1348941,1.044355 0.1432859,0.156024 0.1736609,0.159309 1.4019221,0.151625 1.1030382,-0.0069 1.1494385,-0.0096 1.2324441,-0.0716 z M 3.1572072,9.703125 c 0,-0.017188 0.013632,-0.052344 0.030293,-0.078125 0.016661,-0.025781 0.030293,-0.032813 0.030293,-0.015625 0,0.017188 -0.013632,0.052344 -0.030293,0.078125 -0.016661,0.025781 -0.030293,0.032813 -0.030293,0.015625 z M 3.9427084,9.4744941 C 3.9691566,9.4097341 4.4766347,8.53125 4.4875966,8.53125 4.4944184,8.53125 4.5,8.7492188 4.5,9.015625 V 9.5 H 4.2161459 c -0.15612,0 -0.2791668,-0.011477 -0.2734375,-0.025506 z"
       id="path823"
       inkscape:connector-curvature="0" />
    <path
       style="fill:#fefefe;stroke-width:0.0003125"
       d="M 5,13 V 12 H 3 1 V 11.008105 10.01621 L 3.0042964,6.508105 5.0085928,3 6.0121088,2.9999983 7.015625,2.9999967 7.007545,6.4999984 6.9994647,10 H 7.4997325 8 v 1 1 H 7.5 7 v 1 1 H 6 5 Z M 5,8.2916666 C 5,7.3520834 4.9946991,6.5891928 4.9882203,6.5963541 4.9664412,6.6204278 3.0887985,9.9140416 3.0722116,9.9572666 3.0585582,9.9928469 3.2185338,10 4.0279066,10 H 5 Z M 3.2177928,9.609375 c 0,-0.017188 -0.013632,-0.010156 -0.030293,0.015625 -0.016661,0.025781 -0.030293,0.060937 -0.030293,0.078125 0,0.017188 0.013632,0.010156 0.030293,-0.015625 0.016661,-0.025781 0.030293,-0.060937 0.030293,-0.078125 z M 9,8.5 V 3 h 1 1 V 7.5 12 h 2 2 v 1 1 H 12 9 Z"
       id="path821"
       inkscape:connector-curvature="0" />
    <path
       style="fill:#323232;stroke-width:0.0003125"
       d="M 4.796875,14.456468 C 4.6816722,14.404551 4.5775731,14.294419 4.5333316,14.177653 4.512905,14.123742 4.5,13.782221 4.5,13.295567 v -0.794115 l -1.8414797,-0.0085 C 0.85417825,12.484547 0.81530072,12.483076 0.73076375,12.419944 0.68331141,12.384507 0.61549288,12.3167 0.58005591,12.269261 0.51815872,12.186401 0.51527422,12.138308 0.50670472,11.046277 0.49911222,10.078747 0.50495534,9.8923825 0.54596059,9.7942434 0.64302341,9.5619394 4.5434288,2.7623962 4.6364994,2.663242 4.6893553,2.6069313 4.7822187,2.5463347 4.8428631,2.5285827 c 0.069736,-0.020413 0.5257953,-0.028726 1.24083,-0.022617 1.0851875,0.00927 1.1340303,0.012246 1.2168191,0.07409 0.047438,0.035437 0.1129312,0.1001662 0.1455406,0.1438427 0.057415,0.076901 0.059165,0.1852844 0.055359,3.4277567 L 7.4974809,9.5 h 0.2991382 c 0.1819528,0 0.3391031,0.016698 0.4011562,0.042626 0.1106372,0.046227 0.2664322,0.2116744 0.2784572,0.2957094 0.00412,0.028759 0.014662,-1.5392612 0.023437,-3.48449 0.015838,-3.5109379 0.016426,-3.5374099 0.080386,-3.623069 C 8.6154928,2.6833171 8.6833209,2.6154929 8.730785,2.5800559 8.8143897,2.517636 8.8540038,2.515625 10,2.515625 c 1.145996,0 1.18561,0.00201 1.269215,0.064431 0.04746,0.035437 0.115292,0.103263 0.150729,0.1507246 0.06426,0.086062 0.06445,0.097961 0.07257,4.4270311 l 0.0081,4.3407373 1.841156,0.0085 c 1.804015,0.0084 1.842896,0.0098 1.927432,0.07297 0.04745,0.03544 0.115271,0.103265 0.150708,0.150729 0.06242,0.08361 0.06443,0.123219 0.06443,1.269215 0,1.145996 -0.002,1.18561 -0.06443,1.269215 -0.03544,0.04746 -0.103265,0.115292 -0.150729,0.150729 -0.08584,0.06409 -0.10324,0.06443 -3.269215,0.06443 -3.1659753,0 -3.1833762,-3.44e-4 -3.269215,-0.06443 -0.047464,-0.03544 -0.1152922,-0.103236 -0.1507291,-0.150664 -0.061181,-0.08188 -0.06527,-0.138521 -0.081075,-1.123069 -0.00915,-0.57026 -0.019701,-1.013306 -0.023437,-0.984546 -0.010838,0.08342 -0.1666335,0.249274 -0.2777685,0.295709 C 8.1359413,12.48321 7.9789906,12.5 7.7993134,12.5 h -0.296444 l -0.00925,0.841529 c -0.00872,0.793399 -0.012932,0.846461 -0.073678,0.927757 -0.035437,0.04743 -0.1032447,0.115221 -0.1506838,0.150658 -0.083006,0.06201 -0.1294059,0.0647 -1.232444,0.0716 -0.908151,0.0057 -1.1656613,-0.0016 -1.2399413,-0.03508 z M 7,13 V 12 H 7.5 8 V 11 10 H 7.4997325 6.9994647 L 7.007545,6.4999984 7.015625,2.9999967 6.0121088,2.9999983 5.0085928,3 3.0042964,6.508105 1,10.01621 V 11.008105 12 h 2 2 v 1 1 H 6 7 Z M 3.0722116,9.9572666 C 3.0887985,9.9140416 4.9664412,6.6204278 4.9882203,6.5963541 4.9946991,6.5891928 5,7.3520834 5,8.2916666 V 10 H 4.0279066 C 3.2185338,10 3.0585582,9.9928469 3.0722116,9.9572666 Z M 4.5,9.015625 C 4.5,8.7492188 4.49442,8.53125 4.487597,8.53125 4.476635,8.53125 3.969157,9.4097341 3.9427088,9.4744941 3.9369791,9.4885225 4.0600259,9.5 4.2161459,9.5 H 4.5 Z M 15,13 V 12 H 13 11 V 7.5 3 H 10 9 V 8.5 14 h 3 3 z"
       id="path819"
       inkscape:connector-curvature="0" />
  </g>
</svg>
