<?xml version="1.0" encoding="UTF-8" standalone="no"?>
<!-- Created with Inkscape (http://www.inkscape.org/) -->

<svg
   version="1.1"
   id="svg2"
   width="1600"
   height="1600"
   viewBox="0 0 1600 1600"
   sodipodi:docname="action_tweak_solo.svg"
   inkscape:version="1.2.2 (732a01da63, 2022-12-09)"
   xmlns:inkscape="http://www.inkscape.org/namespaces/inkscape"
   xmlns:sodipodi="http://sodipodi.sourceforge.net/DTD/sodipodi-0.dtd"
   xmlns="http://www.w3.org/2000/svg"
   xmlns:svg="http://www.w3.org/2000/svg"
   xmlns:rdf="http://www.w3.org/1999/02/22-rdf-syntax-ns#"
   xmlns:cc="http://creativecommons.org/ns#"
   xmlns:dc="http://purl.org/dc/elements/1.1/">
  <metadata
     id="metadata8">
    <rdf:RDF>
      <cc:Work
         rdf:about="">
        <dc:format>image/svg+xml</dc:format>
        <dc:type
           rdf:resource="http://purl.org/dc/dcmitype/StillImage" />
      </cc:Work>
    </rdf:RDF>
  </metadata>
  <defs
     id="defs6" />
  <sodipodi:namedview
     pagecolor="#808080"
     bordercolor="#666666"
     borderopacity="1"
     objecttolerance="10"
     gridtolerance="10"
     guidetolerance="10"
     inkscape:pageopacity="0"
     inkscape:pageshadow="2"
     inkscape:window-width="1993"
     inkscape:window-height="1009"
     id="namedview4"
     showgrid="false"
     inkscape:zoom="0.23046875"
     inkscape:cx="384"
     inkscape:cy="993.62712"
     inkscape:window-x="-8"
     inkscape:window-y="-8"
     inkscape:window-maximized="1"
     inkscape:current-layer="ACTION_TWEAK_SOLO"
     inkscape:showpageshadow="0"
     inkscape:pagecheckerboard="true"
     inkscape:deskcolor="#d1d1d1" />
  <g
     id="ACTION_TWEAK_SOLO"
     transform="matrix(100,0,0,100,0,4.9999997e-5)"
     style="stroke-width:0.0114316">
    <path
       style="fill:none;stroke-width:0.00035724"
       d="M 0,15.5 V 15 h 5.3061112 5.3061108 l 0.174422,0.372211 c 0.144017,0.307328 0.192217,0.381412 0.276505,0.425 0.201289,0.10409 0.262232,0.08194 1.024227,-0.372211 L 12.800455,15 H 14.400227 16 v 0.5 0.5 h -0.671875 c -0.589962,0 -0.671875,-0.006 -0.671875,-0.04911 0,-0.04464 -0.0045,-0.04464 -0.04911,0 C 14.562781,15.995255 13.85464,16 7.2790178,16 H 0 Z m 0.00298352,-3.984375 c 0,-3.0794706 0.00388397,-3.3326488 0.04914127,-3.2032934 0.02702769,0.077251 0.08847261,0.1967825 0.13654425,0.265625 0.0480716,0.068843 0.68270865,0.7170562 1.41030446,1.4404744 1.5090674,1.500403 1.4623508,1.464702 1.9166515,1.464702 0.3449341,0 0.4950859,-0.06384 0.7825163,-0.33272 L 4.4923394,10.96875 H 5.8399197 7.1875 V 11.5 12.03125 H 5.8244894 4.4614784 L 4.2815469,11.864665 c -0.27416,-0.253824 -0.4259291,-0.316548 -0.7659219,-0.316548 -0.4543007,0 -0.4075841,-0.0357 -1.9166515,1.464702 -0.72759581,0.723418 -1.36223282,1.371632 -1.41030446,1.440474 -0.0480716,0.06884 -0.10951656,0.188374 -0.13654425,0.265625 -0.0452573,0.129356 -0.04914127,-0.123822 -0.04914127,-3.203293 z M 15.923914,14.585938 c -0.04234,-0.09888 -0.40518,-0.482126 -1.420147,-1.5 l -1.363284,-1.367188 0.531321,-4.59e-4 c 0.362173,-3.13e-4 0.555894,-0.0129 0.608508,-0.03952 0.192632,-0.09747 0.283261,-0.414874 0.167289,-0.585881 -0.02882,-0.0425 -0.156932,-0.187718 -0.284694,-0.322715 l -0.232294,-0.245449 0.966972,-0.9733011 c 0.685058,-0.6895428 0.986261,-1.0143 1.033136,-1.1139269 l 0.06616,-0.140625 0.0016,3.210938 c 8.56e-4,1.766015 -0.0028,3.210937 -0.0081,3.210937 -0.0053,0 -0.0352,-0.05977 -0.06647,-0.132812 z M 0.00298352,4.5 c 0,-3.0368433 0.00387588,-3.2857969 0.04914127,-3.1564184 0.02702769,0.077251 0.08847261,0.1967824 0.13654425,0.265625 0.0480716,0.068843 0.68270865,0.7174392 1.41030446,1.4413258 0.9790144,0.9740232 1.357426,1.330986 1.455714,1.3732013 C 3.1277344,4.4551081 3.1875,4.4894278 3.1875,4.5 3.1875,4.510572 3.127734,4.544892 3.0546875,4.576266 2.9563995,4.6184816 2.5779879,4.9754444 1.5989735,5.9494675 0.87137769,6.6733541 0.23674068,7.3219506 0.18866904,7.3907934 0.1405974,7.4596359 0.07915248,7.5791672 0.05212479,7.6564184 0.0068594,7.7857969 0.00298352,7.5368431 0.00298352,4.5 Z M 15.924038,7.5234375 C 15.842591,7.3327906 13.167209,4.6574094 12.976563,4.5759619 12.903516,4.544755 12.84375,4.5105722 12.84375,4.5 c 0,-0.010572 0.05977,-0.044755 0.132813,-0.075962 0.188685,-0.080609 2.85995,-2.7524401 2.954662,-2.9552881 l 0.06566,-0.140625 0.0016,3.1640625 c 8.56e-4,1.7402344 -0.0028,3.1640625 -0.0081,3.1640625 -0.0053,0 -0.03514,-0.059766 -0.06635,-0.1328125 z M 4.2752853,4.7988116 C 4.1774734,4.7065991 4.0403641,4.6059678 3.9705978,4.5751872 3.9008316,4.5444062 3.84375,4.5105722 3.84375,4.5 3.84375,4.489428 3.901085,4.455482 3.9711603,4.424565 4.0412363,4.393647 4.1871687,4.2854725 4.2954553,4.1841759 L 4.4923394,4 h 1.3926022 1.3926018 l -0.044829,0.085937 c -0.032066,0.06147 -0.044884,0.1993778 -0.045022,0.484375 L 7.1875,4.96875 5.8203125,4.9676094 4.453125,4.9664688 4.2752853,4.7988094 Z M 8.3415775,4.4921875 7.8972316,4.015625 9.7178003,4.007555 11.538369,3.999485 11.735524,4.1839141 c 0.108435,0.1014359 0.25449,0.2097247 0.324566,0.2406422 0.07007,0.030917 0.12741,0.064863 0.12741,0.075435 0,0.010572 -0.05682,0.04429 -0.126262,0.074929 -0.06944,0.030639 -0.208434,0.1317825 -0.308865,0.2247641 L 11.569772,4.96875 H 10.177848 8.7859234 Z M 0,0.5 V 0 h 8 8 V 0.5 1 H 8 0 Z"
       id="path853"
       inkscape:connector-curvature="0" />
    <path
       style="fill:#fefefe;stroke-width:0.00035724"
       d="M 2.2812509,13.765624 3.51533,12.531248 4.74204,13.757663 c 0.6746906,0.674529 1.22671,1.229998 1.22671,1.234376 0,0.0044 -1.107355,0.008 -2.4607891,0.008 H 1.0471717 Z M 10.234375,14.8125 c 0.102049,-0.103125 0.190273,-0.1875 0.196054,-0.1875 0.01123,0 0.163321,0.335497 0.163321,0.360266 0,0.0081 -0.122607,0.01473 -0.272459,0.01473 h -0.272459 z m 2.609375,0.174844 c 0,-0.007 0.0618,-0.04887 0.137331,-0.09314 0.209277,-0.122644 0.300169,-0.247424 0.300169,-0.412082 0,-0.114869 -0.07213,-0.28246 -0.429139,-0.997034 -0.381799,-0.764199 -0.42396,-0.864135 -0.382181,-0.905914 0.04178,-0.04178 0.183043,0.08916 1.280554,1.186932 L 14.984078,15 h -1.070164 c -0.58859,0 -1.070164,-0.0057 -1.070164,-0.01266 z m -1.638007,-0.62091 C 9.9354266,11.56987 9.9667034,11.625833 9.6730553,11.624038 l -0.1574303,-9.63e-4 -0.7570878,0.7744 -0.7570878,0.7744 L 8.0007247,9.2507103 8,5.3295453 8.073581,5.4069603 c 0.040469,0.042578 0.9650788,1.0399525 2.054687,2.2163875 1.089609,1.176435 2.210158,2.3858102 2.490109,2.6875002 l 0.509001,0.548527 -0.962126,0.01563 c -0.645338,0.01048 -0.982706,0.02754 -1.024627,0.05182 -0.128527,0.07443 -0.210353,0.19419 -0.225698,0.330338 -0.01438,0.127565 0.02983,0.226353 0.709021,1.58449 0.588551,1.176886 0.716605,1.455397 0.683016,1.485535 -0.04615,0.0414 -0.849446,0.517 -0.871233,0.515816 -0.0076,-4.16e-4 -0.111116,-0.214867 -0.229988,-0.476563 z M 2.2576678,9.2420447 0.99999825,7.9840875 2.2579554,6.7264178 3.5159125,5.4687481 4.7735822,6.7267053 6.0312519,7.9846625 4.7732947,9.2423322 3.5153375,10.500002 Z M 2.25,2.265625 0.98466438,1 H 3.515625 6.0465856 L 4.78125,2.265625 C 4.0853153,2.9617188 3.5157841,3.53125 3.515625,3.53125 3.5154659,3.53125 2.9459346,2.9617188 2.25,2.265625 Z m 9,0 L 9.9846644,1 h 2.5309606 2.530961 L 13.78125,2.265625 c -0.695935,0.6960938 -1.265466,1.265625 -1.265625,1.265625 -1.59e-4,0 -0.56969,-0.5695312 -1.265625,-1.265625 z"
       id="path851"
       inkscape:connector-curvature="0" />
    <path
       style="fill:#fecb32;stroke-width:0.00035724"
       d="M 5.9256125,9.5234375 C 7.0098906,8.4317925 7,8.4459606 7,7.984375 7,7.5221209 7.0115206,7.5385525 5.9099825,6.4296875 L 4.9553944,5.46875 H 6.0714472 7.1875 v 2.5 2.5 H 6.0870897 4.9866794 Z m 3.4782722,-2.671875 -0.07576,-0.085937 0.085937,0.07576 c 0.080322,0.070809 0.1002684,0.096115 0.07576,0.096115 -0.0056,0 -0.044269,-0.038672 -0.085937,-0.085938 z m -0.40625,-0.4375 -0.07576,-0.085937 0.085937,0.07576 C 9.0881341,6.4746937 9.1080809,6.5 9.0835722,6.5 c -0.0056,0 -0.044269,-0.038672 -0.085937,-0.085937 z M 10.025703,6.3154847 C 9.985785,6.2655637 9.7933381,6.0546262 9.5980428,5.8467347 L 9.2429609,5.46875 h 0.9171911 0.917191 L 10.609375,5.9375 c -0.257383,0.2578125 -0.477672,0.46875 -0.489532,0.46875 -0.01186,0 -0.05422,-0.040844 -0.09414,-0.090765 z M 8.6064059,5.9921875 8.546875,5.921875 8.617187,5.981406 c 0.038672,0.032742 0.070312,0.064382 0.070312,0.070312 0,0.025008 -0.02515,0.00655 -0.081094,-0.059531 z m -0.40625,-0.4375 -0.059531,-0.070312 0.070312,0.059531 c 0.038672,0.032742 0.070312,0.064382 0.070312,0.070312 0,0.025008 -0.02515,0.00655 -0.081094,-0.059531 z"
       id="path849"
       inkscape:connector-curvature="0" />
    <path
       style="fill:#989898;stroke-width:0.00035724"
       d="M 7,14.874659 C 7,14.611031 6.9175391,14.506446 5.9099825,13.492188 L 4.9553944,12.53125 H 6.0714472 7.1875 v 0.892177 c 0,0.96702 0.0055,1.002617 0.175465,1.136314 0.103295,0.08125 0.3090175,0.08634 0.4191025,0.01037 0.043418,-0.02997 0.4512309,-0.441255 0.90625,-0.913977 0.4550191,-0.472722 0.84137,-0.864983 0.8585575,-0.871689 0.017188,-0.0067 0.1208175,0.180441 0.2302891,0.415884 l 0.199039,0.428079 -0.403835,0.412361 c -0.4137006,0.422434 -0.5197168,0.580017 -0.560095,0.832528 L 8.9920119,15 H 7.9960059 7 Z m 1.09375,-1.796534 c 0.058306,-0.06016 0.1130416,-0.109375 0.1216353,-0.109375 0.00859,0 -0.03208,0.04922 -0.090385,0.109375 -0.058306,0.06016 -0.1130416,0.109375 -0.1216353,0.109375 -0.00859,0 0.03208,-0.04922 0.090385,-0.109375 z M 5.9256125,2.5546875 C 6.9390212,1.5343934 7,1.4550418 7,1.1565906 V 1 h 0.9956472 0.9956472 l 0.018063,0.152518 c 0.037857,0.319648 0.099967,0.3990874 1.0962806,1.4021695 L 11.044571,3.5 H 8.015625 4.9866794 Z"
       id="path847"
       inkscape:connector-curvature="0" />
    <path
       style="fill:#fe9832;stroke-width:0.00035724"
       d="m 12.589764,10.289063 c -0.03887,-0.04957 -0.03777,-0.05067 0.0118,-0.0118 0.03008,0.02359 0.05469,0.0482 0.05469,0.05469 0,0.02572 -0.02566,0.0092 -0.06649,-0.04289 z m -0.389608,-0.4218755 -0.05953,-0.070312 0.07031,0.059531 c 0.06608,0.055944 0.08454,0.081094 0.05953,0.081094 -0.0059,0 -0.03757,-0.031641 -0.07031,-0.070312 z M 13,9.5174981 C 12.871094,9.3776 12.327537,8.7911431 11.792096,8.2142609 l -0.973529,-1.0488765 0.848706,-0.8482847 0.848706,-0.848285 1.257665,1.2579525 1.257665,1.2579528 -0.898467,0.8935694 -0.898467,0.8935694 z m 1.647102,-1.5874462 c -0.0075,-0.038872 -0.01387,-0.014427 -0.01422,0.054323 -3.47e-4,0.06875 0.0058,0.1005547 0.01359,0.070677 0.0078,-0.029878 0.0081,-0.086128 6.32e-4,-0.125 z m -2.836967,1.5152606 -0.07576,-0.085937 0.08594,0.07576 c 0.08032,0.070809 0.100268,0.096115 0.07576,0.096115 -0.0056,0 -0.04427,-0.038672 -0.08594,-0.085937 z m -0.40625,-0.4375 -0.07576,-0.085937 0.08594,0.07576 c 0.08032,0.070809 0.100268,0.096115 0.07576,0.096115 -0.0056,0 -0.04427,-0.038672 -0.08594,-0.085937 z m -0.40625,-0.4375 -0.07576,-0.085937 0.08594,0.07576 c 0.04726,0.041668 0.08594,0.08034 0.08594,0.085937 0,0.024509 -0.02531,0.00456 -0.09611,-0.07576 z m -0.40625,-0.4375 -0.07576,-0.085937 0.08594,0.07576 c 0.08032,0.070809 0.100268,0.096115 0.07576,0.096115 -0.0056,0 -0.04427,-0.038672 -0.08594,-0.085937 z"
       id="path845"
       inkscape:connector-curvature="0" />
    <path
       style="fill:#656565;stroke-width:0.00035724"
       d="m 0.01227323,14.873293 c 0.0492899,-0.308242 0.09430725,-0.361102 1.53148767,-1.798282 1.5702676,-1.570268 1.5142547,-1.526894 1.9718641,-1.526894 0.3399928,0 0.4917619,0.06272 0.7659219,0.316548 L 4.4614784,12.03125 H 5.8244894 7.1875 v 0.25 0.25 H 6.0714472 4.9553944 l 0.9545881,0.960938 C 6.9175391,14.506446 7,14.611031 7,14.874659 V 15 H 6.4923322 5.9846644 L 4.7499981,13.765623 3.5153319,12.531246 2.2812518,13.765623 1.0471717,15 H 0.51959184 -0.00798801 Z m 8.99999987,0 c 0.04001,-0.250209 0.1470007,-0.410581 0.5461238,-0.818605 0.21436,-0.219141 0.3989325,-0.398438 0.4101612,-0.398438 0.011229,0 0.1200549,0.214453 0.2418339,0.476563 L 10.43181,14.609375 10.240245,14.804688 10.048681,15 H 9.5203463 8.9920119 Z m 4.7388249,-1.106569 c -1.095427,-1.095691 -1.238475,-1.228304 -1.282236,-1.188701 -0.044,0.03982 -0.07163,-3.28e-4 -0.259059,-0.376394 C 12.094411,11.970096 12,11.76673 12,11.749705 c 0,-0.01931 0.214541,-0.03096 0.570242,-0.03096 h 0.570241 l 1.362435,1.367188 C 15.943103,14.531147 16,14.599128 16,14.874659 V 15 H 15.492039 14.984078 Z M 8.8111941,12.335938 c 0.076625,-0.08164 0.1434222,-0.148438 0.1484375,-0.148438 0.023465,0 -0.00134,0.02806 -0.1393191,0.157556 L 8.671875,12.484375 Z M 3.053232,4.42497 C 2.9594229,4.3825459 2.5279459,3.9716416 1.5437609,2.9874702 0.07705501,1.5207843 0.04899998,1.4872341 0.00935781,1.152518 L -0.00870568,1 H 0.48797934 0.98466438 L 2.2500018,2.2656268 3.5153391,3.5312534 4.7812481,2.2656268 6.0471575,1 H 6.5235788 7 V 1.1565906 C 7,1.4550418 6.9390212,1.5343934 5.9256125,2.5546875 L 4.9866794,3.5 H 8.015625 11.044571 L 10.105638,2.5546875 C 9.1093247,1.5516054 9.0472153,1.472166 9.0093578,1.152518 L 8.9912944,1 h 0.496685 0.496685 L 11.250002,2.2656268 12.515339,3.5312534 13.781248,2.2656268 15.047158,1 H 15.523579 16 v 0.1565906 c 0,0.3125563 -0.0277,0.3460888 -1.512511,1.8308985 -1.071194,1.0711943 -1.409432,1.3915278 -1.518739,1.438344 -0.11138,0.047705 -0.208862,0.059538 -0.46875,0.056901 -0.395081,-0.00401 -0.488601,-0.040744 -0.767199,-0.301359 L 11.538911,4 H 9.7195919 7.9002731 L 7.8025261,3.930398 C 7.6744974,3.839233 7.5012302,3.839233 7.3779233,3.930398 7.2838847,3.9999231 7.2822425,4 5.88806,4 H 4.4923394 l -0.19389,0.1813747 C 4.0186072,4.4431534 3.9287463,4.4779078 3.5226109,4.4814375 3.2528528,4.4837812 3.1580613,4.4723781 3.053232,4.42497 Z"
       id="path843"
       inkscape:connector-curvature="0" />
    <path
       style="fill:#983200;stroke-width:0.00035724"
       d="m 13.012656,10.742188 -0.05953,-0.07031 0.07031,0.05953 c 0.06608,0.05594 0.08454,0.08109 0.05953,0.08109 -0.0059,0 -0.03757,-0.03164 -0.07031,-0.07031 z M 13.577765,10.138082 13.239863,9.7761637 14.13553,8.8800975 15.031196,7.9840316 13.773231,6.7263537 12.515265,5.4686759 11.671695,6.3146297 10.828125,7.1605831 10.476744,6.7912291 10.125363,6.421875 11.023619,5.5286491 c 1.041655,-1.0358225 1.051969,-1.0430325 1.492006,-1.0430325 0.457609,0 0.401597,-0.043373 1.971864,1.5268943 1.072246,1.0722457 1.393029,1.4109838 1.445313,1.526211 C 15.986492,7.6570497 16,7.7466312 16,7.984375 16,8.4466291 16.011521,8.4301975 14.909983,9.5390625 14.384959,10.067578 13.946456,10.5 13.93553,10.5 c -0.01093,0 -0.171919,-0.162863 -0.357765,-0.361918 z m -3.408859,-2.4583945 -0.05953,-0.070312 0.07031,0.059531 c 0.03867,0.032742 0.07031,0.064382 0.07031,0.070312 0,0.025008 -0.02515,0.00655 -0.08109,-0.059531 z m -0.3587713,-0.390625 -0.07576,-0.085937 0.085937,0.07576 c 0.080322,0.070809 0.1002684,0.096115 0.07576,0.096115 -0.0056,0 -0.044269,-0.038672 -0.085937,-0.085938 z"
       id="path841"
       inkscape:connector-curvature="0" />
    <path
       style="fill:#323232;stroke-width:0.00035724"
       d="M 3.1876684,11.449748 C 3.1104172,11.42169 2.990886,11.359403 2.9220434,11.311331 2.8532008,11.263259 2.2049872,10.628622 1.4815689,9.9010266 -0.01883432,8.3919591 0.01686649,8.4386756 0.01686649,7.984375 c 0,-0.4576094 -0.04337311,-0.4015966 1.52689441,-1.9718641 1.5702676,-1.5702675 1.5142547,-1.5268943 1.9718641,-1.5268943 0.3399928,0 0.4917619,0.062725 0.7659219,0.3165484 L 4.4614784,4.96875 H 5.8244894 7.1875 v 0.25 0.25 H 6.0714472 4.9553944 L 5.9099825,6.4296875 C 7.0115206,7.5385525 7,7.5221209 7,7.984375 7,8.4459606 7.0098906,8.4317925 5.9256125,9.5234375 L 4.9866794,10.46875 H 6.0870897 7.1875 v 0.25 0.25 H 5.8399197 4.4923394 l -0.1941981,0.181663 c -0.1068088,0.09991 -0.2632885,0.21458 -0.3477322,0.254814 -0.2016938,0.0961 -0.562716,0.117169 -0.7627407,0.04452 z M 4.7735822,6.7267053 3.5159125,5.4687481 2.2579554,6.7264178 0.99999825,7.9840875 2.2576678,9.2420447 3.5153375,10.500002 4.7732947,9.2423322 6.0312519,7.9846625 Z M 9.0234375,5.23617 C 8.9074219,5.1125122 8.8125,5.0017556 8.8125,4.9900437 c 0,-0.011712 0.6219356,-0.021294 1.382079,-0.021294 h 1.38208 l -0.248534,0.25 -0.248534,0.25 -0.922608,-0.00387 -0.922608,-0.00387 z"
       id="path839"
       inkscape:connector-curvature="0" />
    <path
       style="fill:#000000;stroke-width:0.00035724"
       d="m 14.580366,15.976563 c 0.01556,-0.01289 0.03878,-0.0375 0.0516,-0.05469 0.01331,-0.01783 0.02353,-0.0078 0.0238,0.02344 2.81e-4,0.0304 -0.02265,0.05469 -0.05161,0.05469 -0.02865,0 -0.03936,-0.01055 -0.0238,-0.02344 z m -3.438927,-0.150067 c -0.06566,-0.02257 -0.138394,-0.06006 -0.161639,-0.0833 -0.02324,-0.02324 -0.348132,-0.700865 -0.72197,-1.505821 -0.3738375,-0.804955 -0.6903425,-1.461971 -0.7033441,-1.460033 -0.013001,0.0019 -0.3993521,0.393844 -0.8585571,0.870904 -0.4592054,0.47706 -0.8704429,0.891899 -0.9138613,0.921864 -0.1186772,0.0819 -0.3202044,0.07136 -0.4318666,-0.0226 -0.050652,-0.04262 -0.1081637,-0.116449 -0.127804,-0.164063 -0.026397,-0.06399 -0.033566,-1.416529 -0.027491,-5.1860831 l 0.00822,-5.0995128 0.092452,-0.096497 c 0.050849,-0.053073 0.1447356,-0.1121613 0.2086375,-0.1313066 0.098116,-0.029397 0.1334859,-0.025643 0.2274312,0.024135 0.1115544,0.059108 6.7088824,7.1434495 6.7484874,7.2466595 0.06911,0.180089 -0.03234,0.453184 -0.199821,0.537932 -0.05734,0.02902 -0.360369,0.03918 -1.178749,0.03952 C 12.384846,11.718602 12,11.72972 12,11.750149 c 0,0.01727 0.288281,0.607827 0.640625,1.312351 0.724649,1.448961 0.730846,1.468167 0.539063,1.670643 -0.103541,0.109312 -1.691043,1.069052 -1.838059,1.111215 -0.0474,0.0136 -0.130166,0.0062 -0.20019,-0.01786 z m 0.716167,-1.222485 c 0.22441,-0.131856 0.426523,-0.256332 0.44914,-0.276612 0.03329,-0.02985 -0.09666,-0.312767 -0.682805,-1.486445 -0.650448,-1.302439 -0.722309,-1.461625 -0.707998,-1.568328 0.0191,-0.142399 0.08635,-0.252193 0.20022,-0.326878 0.07429,-0.04873 0.196479,-0.05694 1.053033,-0.07075 l 0.968989,-0.01563 -2.432486,-2.625 C 9.3678316,6.790625 8.21174,5.5462787 8.1366063,5.4691612 L 8,5.3289475 V 9.2622869 13.195627 L 8.4756812,12.699376 C 9.52021,11.60968 9.4725194,11.653989 9.6224994,11.633872 c 0.1002753,-0.01345 0.16494,-0.0029 0.2441822,0.03975 0.1229584,0.06622 0.1653974,0.149856 1.0412254,2.052002 0.282682,0.613937 0.520203,1.116672 0.527824,1.117187 0.0076,5.16e-4 0.197464,-0.106945 0.421875,-0.238802 z m 2.775275,-6.619636 c 3.47e-4,-0.06875 0.0067,-0.093195 0.01422,-0.054323 0.0075,0.038872 0.0072,0.095122 -6.31e-4,0.125 -0.0078,0.029878 -0.01394,-0.00193 -0.01359,-0.070677 z"
       id="path837"
       inkscape:connector-curvature="0" />
  </g>
</svg>
