<?xml version="1.0" encoding="UTF-8" standalone="no"?>
<!-- Created with Inkscape (http://www.inkscape.org/) -->

<svg
   version="1.1"
   id="svg2"
   width="1600"
   height="1600"
   viewBox="0 0 1600 1600"
   sodipodi:docname="action.svg"
   inkscape:version="1.4.2 (ebf0e940d0, 2025-05-08)"
   xmlns:inkscape="http://www.inkscape.org/namespaces/inkscape"
   xmlns:sodipodi="http://sodipodi.sourceforge.net/DTD/sodipodi-0.dtd"
   xmlns="http://www.w3.org/2000/svg"
   xmlns:svg="http://www.w3.org/2000/svg"
   xmlns:rdf="http://www.w3.org/1999/02/22-rdf-syntax-ns#"
   xmlns:cc="http://creativecommons.org/ns#"
   xmlns:dc="http://purl.org/dc/elements/1.1/"><metadata
   id="metadata8">
  <rdf:RDF>
    <cc:Work
       rdf:about="">
      <dc:format>image/svg+xml</dc:format>
      <dc:type
         rdf:resource="http://purl.org/dc/dcmitype/StillImage" />
    </cc:Work>
  </rdf:RDF>
</metadata>
<defs
   id="defs6" />
<sodipodi:namedview
   pagecolor="#1f1f1f"
   bordercolor="#666666"
   borderopacity="1"
   objecttolerance="10"
   gridtolerance="10"
   guidetolerance="10"
   inkscape:pageopacity="0"
   inkscape:pageshadow="2"
   inkscape:window-width="1993"
   inkscape:window-height="1009"
   id="namedview4"
   showgrid="true"
   inkscape:zoom="0.39537778"
   inkscape:cx="680.36196"
   inkscape:cy="718.30036"
   inkscape:window-x="-8"
   inkscape:window-y="-8"
   inkscape:window-maximized="1"
   inkscape:current-layer="svg2"
   inkscape:showpageshadow="0"
   inkscape:pagecheckerboard="false"
   inkscape:deskcolor="#3d3d3d"
   showborder="true">
  <inkscape:grid
     id="grid1"
     units="px"
     originx="0"
     originy="0"
     spacingx="100"
     spacingy="100"
     empcolor="#0099e5"
     empopacity="0.30196078"
     color="#0099e5"
     opacity="0.14901961"
     empspacing="5"
     enabled="true"
     visible="true" />
  <inkscape:grid
     id="grid2"
     units="px"
     originx="0"
     originy="0"
     spacingx="50"
     spacingy="50"
     empcolor="#0099e5"
     empopacity="0.30196078"
     color="#0099e5"
     opacity="0.14901961"
     empspacing="5"
     enabled="true"
     visible="false"
     snapvisiblegridlinesonly="false" />
</sodipodi:namedview>



&quot;
     style=&quot;stroke-width:0.0114298&quot;&gt;
    <g
   id="DOPESHEET_ACTIVE"
   transform="matrix(99.959272,0,0,99.959272,0.325824,0.15208466)"
   style="display:inline;stroke-width:0.0100041"
   inkscape:label="ACTION">
  <path
     style="fill:none;stroke-width:0.000312628"
     d="M 0.00149176,10.351563 C 0.00285887,5.1750972 0.00708967,4.7148612 0.05212479,4.8435816 c 0.02702769,0.077251 0.08847261,0.1967825 0.13654425,0.265625 0.0480716,0.068843 0.68270865,0.7170562 1.41030446,1.4404746 1.5090674,1.5004032 1.4623508,1.4647022 1.9166515,1.4647022 0.3449341,0 0.4950859,-0.063843 0.7825163,-0.3327206 L 4.4923394,7.5 h 3.5232856 3.523286 l 0.194198,0.1816628 c 0.28743,0.2688772 0.437582,0.3327206 0.782516,0.3327206 0.457612,0 0.401597,0.043375 1.971845,-1.5268943 1.014154,-1.0141682 1.395435,-1.4152516 1.443755,-1.5187391 l 0.06566,-0.140625 0.0016,5.585938 L 16,16 11.914063,15.9984 7.828125,15.9968 7.96875,15.93114 c 0.2100353,-0.09807 2.870545,-2.763869 2.964052,-2.969947 0.0961,-0.211805 0.0961,-0.679501 0,-0.891306 -0.09823,-0.216476 -2.7537661,-2.8711598 -2.979677,-2.9787154 -0.2247741,-0.1070141 -0.6502259,-0.1070141 -0.875,0 -0.2272766,0.1082059 -2.8786625,2.7595914 -2.9868684,2.9868684 -0.1070141,0.224774 -0.1070141,0.650226 0,0.875 0.1030521,0.216451 2.7598818,2.879413 2.9712434,2.9781 L 7.203125,15.9968 3.6015625,15.9984 0,16 Z m 0,-8.1875005 L 0,0 h 8 8 L 15.9984,2.1015625 15.9968,4.203125 15.931228,4.0625 C 15.882905,3.9590125 15.501624,3.5579291 14.48747,2.5437609 12.917222,0.97349159 12.973237,1.0168665 12.515625,1.0168665 c -0.339993,0 -0.491762,0.062725 -0.765922,0.3165485 L 11.569772,1.5 H 8.015625 4.4614784 L 4.2815469,1.333415 C 4.0073869,1.0795913 3.8556178,1.0168665 3.515625,1.0168665 3.0613243,1.0168665 3.1080409,0.9811657 1.5989735,2.4815689 0.87137769,3.2049872 0.23674068,3.8532006 0.18866904,3.9220434 0.1405974,3.9908859 0.07915248,4.1104172 0.05212479,4.1876684 0.00653244,4.3179816 0.00287579,4.1718394 0.00149176,2.1640625 Z"
     id="path823"
     inkscape:connector-curvature="0" />
  <path
     style="fill:#fefefe;stroke-width:0.000323274"
     d="m 6.2467484,13.618798 -1.2595011,-1.343136 1.259789,-1.342827 1.259789,-1.3428302 1.2595009,1.3431362 1.2595018,1.343137 -1.2597895,1.342828 -1.2597891,1.342831 z M 2.2409236,5.0771018 0.98142288,3.7339655 2.2412118,2.391136 3.5010007,1.0483073 4.7605016,2.3914431 6.0200027,3.7345796 4.7602138,5.0774089 3.5004249,6.4202381 Z"
     id="path829"
     inkscape:connector-curvature="0" />
  <path
     style="fill:#fecb32;stroke-width:0.000323274"
     d="m 5.9142096,5.3775485 c 1.0858569,-1.1655628 1.0759519,-1.1504354 1.0759519,-1.643276 0,-0.4935541 0.011538,-0.47601 -1.0916048,-1.6599588 L 4.9425786,1.0483092 h 3.064687 3.0646864 L 10.115973,2.0743137 C 9.0111417,3.2600769 9.0099651,3.2618426 9.0099651,3.7342725 c 0,0.4716836 0.00277,0.4758531 1.0903559,1.643276 l 0.940301,1.0093216 H 8.0072656 4.9739093 Z"
     id="path827"
     inkscape:connector-curvature="0" />
  <path
     style="fill:#fe9832;stroke-width:0.000323274"
     d="m 11.254029,5.0771018 -1.259502,-1.3431363 1.25979,-1.3428295 1.25979,-1.3428287 1.259499,1.3431358 1.259502,1.3431365 -1.25979,1.3428293 -1.259788,1.3428292 z"
     id="path825"
     inkscape:connector-curvature="0" />
  <path
     style="fill:#983200;stroke-width:0.000323274"
     d="M 12.185383,7.4342932 C 12.10802,7.4043357 11.988315,7.3378307 11.919371,7.286504 11.850429,7.2351775 11.201271,6.5575676 10.476801,5.7807048 8.974212,4.1694551 9.0099651,4.2193347 9.0099651,3.7342725 c 0,-0.4885952 -0.043437,-0.4287895 1.5291179,-2.1053835 1.572552,-1.67659354 1.516459,-1.63028354 1.974735,-1.63028354 0.458275,0 0.402182,-0.04631012 1.974734,1.63028354 1.073808,1.1448499 1.39506,1.5065248 1.447418,1.6295544 0.05377,0.12634 0.0673,0.2219872 0.0673,0.4758291 0,0.2538417 -0.01352,0.3494893 -0.0673,0.4758293 -0.100043,0.2350458 -2.759965,3.0677801 -2.984016,3.1778716 -0.206062,0.1012526 -0.568196,0.123135 -0.766571,0.04632 z m 1.588223,-5.0428501 -1.2595,-1.343136 -1.259789,1.3428289 -1.25979,1.3428295 1.259502,1.3431363 1.259501,1.3431363 1.259788,-1.3428292 1.25979,-1.3428293 z"
     id="path821"
     inkscape:connector-curvature="0" />
  <path
     style="fill:#323232;stroke-width:0.000323274"
     d="M 7.0527524,15.922848 C 6.8410832,15.817473 4.1803846,12.974202 4.0771825,12.743094 c -0.1071689,-0.239994 -0.1071689,-0.694255 0,-0.934249 0.1083635,-0.242666 2.7636101,-3.0735819 2.9912178,-3.1891148 0.2251015,-0.11426 0.6511727,-0.11426 0.8762741,0 0.2262399,0.1148382 2.8856456,2.9492758 2.9840156,3.1804108 0.05377,0.12634 0.0673,0.221987 0.0673,0.475828 0,0.253843 -0.01352,0.349489 -0.0673,0.475831 -0.09777,0.229736 -2.7603716,3.068489 -2.9758507,3.172733 -0.209495,0.101333 -0.6949417,0.100438 -0.9000869,-0.0016 z m 1.7135738,-4.989707 -1.2595009,-1.3431362 -1.259789,1.3428302 -1.259789,1.342827 1.2595011,1.343136 1.259501,1.343139 1.2597891,-1.342831 1.2597895,-1.342831 z M 3.1722786,7.4342932 C 3.0949149,7.4043357 2.9752097,7.3378307 2.9062668,7.286504 2.8373241,7.2351775 2.1881664,6.5575676 1.4636948,5.7807048 -0.03889325,4.1694551 -0.00314052,4.2193347 -0.00314052,3.7342725 c 0,-0.4885952 -0.04343701,-0.4287895 1.52911782,-2.1053835 1.5725541,-1.67659354 1.5164598,-1.63028354 1.9747354,-1.63028354 0.3404879,0 0.492478,0.06697189 0.7670373,0.33798273 l 0.1801933,0.1778647 H 8.0107142 11.573485 L 11.324589,0.78138097 11.075693,1.0483092 H 8.0091361 4.9425786 l 0.9559781,1.0260045 c 1.1031421,1.1839488 1.0916048,1.1664047 1.0916048,1.6599588 0,0.4928406 0.00991,0.4777132 -1.0759519,1.643276 L 4.9739093,6.3868701 h 3.0352442 3.0352445 l 0.248896,0.266928 0.248895,0.2669281 H 8.0105192 4.4788495 L 4.2843685,7.1146897 C 4.1774041,7.2213699 4.0206966,7.3438001 3.93613,7.3867576 3.7341425,7.489361 3.3725944,7.5118602 3.1722786,7.4342932 Z M 4.7605016,2.3914431 3.5010007,1.0483071 2.2412118,2.391136 0.98142288,3.7339655 2.2409236,5.0771018 3.5004249,6.4202381 4.7602138,5.0774089 6.0200027,3.7345796 Z"
     id="path819"
     inkscape:connector-curvature="0" />
</g>
</svg>
