<?xml version="1.0" encoding="UTF-8" standalone="no"?>
<!-- Created with Inkscape (http://www.inkscape.org/) -->

<svg
   version="1.1"
   id="svg2"
   width="1600"
   height="1600"
   viewBox="0 0 1600 1600"
   sodipodi:docname="action_replace_new.svg"
   inkscape:version="1.4.3 (0d15f75042, 2025-12-25)"
   xmlns:inkscape="http://www.inkscape.org/namespaces/inkscape"
   xmlns:sodipodi="http://sodipodi.sourceforge.net/DTD/sodipodi-0.dtd"
   xmlns="http://www.w3.org/2000/svg"
   xmlns:svg="http://www.w3.org/2000/svg"
   xmlns:rdf="http://www.w3.org/1999/02/22-rdf-syntax-ns#"
   xmlns:cc="http://creativecommons.org/ns#"
   xmlns:dc="http://purl.org/dc/elements/1.1/"><metadata
   id="metadata8">
  <rdf:RDF>
    <cc:Work
       rdf:about="">
      <dc:format>image/svg+xml</dc:format>
      <dc:type
         rdf:resource="http://purl.org/dc/dcmitype/StillImage" />
    </cc:Work>
  </rdf:RDF>
</metadata>
<defs
   id="defs6" />
<sodipodi:namedview
   pagecolor="#1f1f1f"
   bordercolor="#666666"
   borderopacity="1"
   objecttolerance="10"
   gridtolerance="10"
   guidetolerance="10"
   inkscape:pageopacity="0"
   inkscape:pageshadow="2"
   inkscape:window-width="1993"
   inkscape:window-height="1009"
   id="namedview4"
   showgrid="true"
   inkscape:zoom="0.51042045"
   inkscape:cx="1105.951"
   inkscape:cy="666.11751"
   inkscape:window-x="-8"
   inkscape:window-y="-8"
   inkscape:window-maximized="1"
   inkscape:current-layer="DOPESHEET_ACTIVE-6"
   inkscape:showpageshadow="0"
   inkscape:pagecheckerboard="false"
   inkscape:deskcolor="#3d3d3d"
   showborder="true">
  <inkscape:grid
     id="grid1"
     units="px"
     originx="0"
     originy="0"
     spacingx="100"
     spacingy="100"
     empcolor="#0099e5"
     empopacity="0.30196078"
     color="#0099e5"
     opacity="0.14901961"
     empspacing="5"
     enabled="true"
     visible="true" />
  <inkscape:grid
     id="grid2"
     units="px"
     originx="0"
     originy="0"
     spacingx="50"
     spacingy="50"
     empcolor="#0099e5"
     empopacity="0.30196078"
     color="#0099e5"
     opacity="0.14901961"
     empspacing="5"
     enabled="false"
     visible="false"
     snapvisiblegridlinesonly="false" />
</sodipodi:namedview>




&quot;
     style=&quot;stroke-width:0.0114298&quot;&gt;
    <g
   id="DOPESHEET_ACTIVE-6"
   transform="matrix(99.959272,0,0,99.959272,1600.3258,0.40186597)"
   style="display:inline;stroke-width:0.0100041"
   inkscape:label="ACTION_REPLACED_NEW">
  <rect
     style="vector-effect:non-scaling-stroke;fill:none;fill-opacity:1;stroke:none;stroke-width:1;stroke-linejoin:bevel;stroke-dasharray:none;stroke-dashoffset:83.9528;stroke-opacity:1;-inkscape-stroke:hairline"
     id="rect1"
     width="1600"
     height="1600"
     x="0"
     y="0"
     ry="3.0198066e-12"
     transform="matrix(0.01000407,0,0,0.01000407,-16.009778,-0.0040203)" />
  <g
     id="DOPESHEET_ACTIVE"
     transform="matrix(0.75000007,0,0,0.75023376,-16.007337,0.99753423)"
     style="display:inline;mix-blend-mode:normal;stroke-width:0.0100041"
     inkscape:label="bw">
    <path
       style="display:inline;fill:#fefefe;stroke-width:0.000323274"
       d="m 6.2467484,13.618798 -1.2595011,-1.343136 1.259789,-1.342827 1.259789,-1.3428302 1.2595009,1.3431362 1.2595018,1.343137 -1.2597895,1.342828 -1.2597891,1.342831 z M 2.2409236,5.0771018 0.98142288,3.7339655 2.2412118,2.391136 3.5010007,1.0483073 4.7605016,2.3914431 6.0200027,3.7345796 4.7602138,5.0774089 3.5004249,6.4202381 Z"
       id="path829"
       inkscape:connector-curvature="0" />
    <path
       style="display:inline;fill:#656565;fill-opacity:1;stroke-width:0.000323274"
       d="m 5.9142096,5.3775485 c 1.0858569,-1.1655628 1.0759519,-1.1504354 1.0759519,-1.643276 0,-0.4935541 0.011538,-0.47601 -1.0916048,-1.6599588 L 4.9425786,1.0483092 h 3.064687 3.0646864 L 10.115973,2.0743137 C 9.0111417,3.2600769 9.0099651,3.2618426 9.0099651,3.7342725 c 0,0.4716836 0.00277,0.4758531 1.0903559,1.643276 l 0.940301,1.0093216 H 8.0072656 4.9739093 Z"
       id="path827"
       inkscape:connector-curvature="0" />
    <path
       style="display:inline;fill:#fefefe;fill-opacity:1;stroke-width:0.000323274"
       d="m 11.254029,5.0771018 -1.259502,-1.3431363 1.25979,-1.3428295 1.25979,-1.3428287 1.259499,1.3431358 1.259502,1.3431365 -1.25979,1.3428293 -1.259788,1.3428292 z"
       id="path825"
       inkscape:connector-curvature="0" />
    <path
       id="path821"
       style="display:inline;fill:#323232;fill-opacity:1;stroke-width:0.000323274"
       d="m 3.5007118,-0.00140204 c -0.4582756,0 -0.4021759,-0.04630065 -1.97473,1.63029284 -1.57255487,1.676594 -1.52911892,1.6167936 -1.52911892,2.1053888 0,0.4850622 -0.03576017,0.4351697 1.46682792,2.0464194 0.7244716,0.7768628 1.373637,1.4544821 1.4425797,1.5058086 0.068943,0.051327 0.1886431,0.1178371 0.2660068,0.1477946 0.2003158,0.077567 0.5618587,0.055064 0.7638462,-0.047539 0.084567,-0.042957 0.2412829,-0.1653838 0.3482473,-0.272064 L 4.4788446,6.9207336 H 8.0105173 11.54219 L 11.2933,6.653789 11.04439,6.3868638 H 8.0091496 4.9739095 L 5.9142143,5.3775465 c 1.0858619,-1.1655628 1.075946,-1.1504263 1.075946,-1.6432669 0,-0.4935541 0.011545,-0.4760242 -1.0915969,-1.659973 L 4.9425881,1.0483028 H 8.00913 11.075691 l 0.248891,-0.2669251 0.24891,-0.26692511 H 8.0107127 4.4479531 L 4.267743,0.33658718 C 3.9931837,0.06557634 3.8411997,-0.00140204 3.5007118,-0.00140204 Z m 9.0131042,0 c -0.458276,0 -0.402178,-0.04630065 -1.97473,1.63029284 -1.5725547,1.676594 -1.5291187,1.6167936 -1.5291187,2.1053888 0,0.4850622 -0.035761,0.4351697 1.4668277,2.0464194 0.72447,0.7768628 1.373638,1.4544821 1.44258,1.5058086 0.06894,0.051327 0.188644,0.1178371 0.266007,0.1477946 0.198375,0.076815 0.560519,0.054925 0.766581,-0.046328 0.224051,-0.1100915 2.883966,-2.9428305 2.984009,-3.1778763 0.05378,-0.12634 0.06729,-0.2219771 0.06729,-0.4758188 0,-0.2538419 -0.01352,-0.3494983 -0.06729,-0.4758383 -0.05236,-0.1230296 -0.373618,-0.4847006 -1.447426,-1.6295505 -1.572552,-1.67659361 -1.516455,-1.63029284 -1.97473,-1.63029234 z M 3.5010049,1.0483028 4.7605022,2.3914475 6.0199996,3.7345727 4.7602091,5.0774047 3.5004187,6.4202368 2.2409214,5.0770921 0.98142403,3.733967 2.2412145,2.3911349 Z m 9.0131041,0 1.259498,1.3431447 1.259497,1.3431252 -1.25979,1.342832 L 12.513523,6.4202368 11.254026,5.0770921 9.9945285,3.733967 11.254319,2.3911349 Z M 7.5065425,8.5340274 c -0.1627931,0 -0.3255964,0.028569 -0.4381472,0.085699 -0.2276077,0.1155329 -2.8828547,2.9464456 -2.9912182,3.1891116 -0.1071689,0.239994 -0.1071689,0.694253 0,0.934247 0.1032021,0.231108 2.7638981,3.074397 2.9755673,3.179772 v 7.8e-5 c 0.2051452,0.102038 0.6905982,0.102935 0.9000932,0.0016 0.2154791,-0.104244 2.8780904,-2.943001 2.9758604,-3.172737 0.05378,-0.126342 0.06729,-0.221995 0.06729,-0.475838 0,-0.253841 -0.01352,-0.349479 -0.06729,-0.475819 C 10.830328,11.569008 8.1709101,8.7345646 7.9446702,8.6197264 7.8321195,8.5625964 7.6693357,8.5340274 7.5065425,8.5340274 Z M 7.5068161,9.5900043 8.766333,10.933149 10.02583,12.276274 8.7660399,13.619106 7.5062494,14.961938 6.2467521,13.618794 4.9872547,12.275668 6.2470452,10.932836 Z" />
  </g>
  <g
     id="g1"
     style="display:inline;vector-effect:non-scaling-stroke;stroke:#000000;stroke-width:0.0127569;stroke-dasharray:none;stroke-opacity:1;-inkscape-stroke:hairline"
     transform="matrix(0.74999949,0,0,0.75023423,-12.005704,3.9987512)">
    <path
       style="display:inline;vector-effect:non-scaling-stroke;fill:#fefefe;stroke:#000000;stroke-width:0.0127569;stroke-dasharray:none;stroke-opacity:1;-inkscape-stroke:hairline"
       d="m 6.2467484,13.618798 -1.2595011,-1.343136 1.259789,-1.342827 1.259789,-1.3428302 1.2595009,1.3431362 1.2595018,1.343137 -1.2597895,1.342828 -1.2597891,1.342831 z M 2.2409236,5.0771018 0.98142288,3.7339655 2.2412118,2.391136 3.5010007,1.0483073 4.7605016,2.3914431 6.0200027,3.7345796 4.7602138,5.0774089 3.5004249,6.4202381 Z"
       id="path829-5"
       inkscape:connector-curvature="0" />
    <path
       style="display:inline;vector-effect:non-scaling-stroke;fill:#fecb32;stroke:#000000;stroke-width:0.0127569;stroke-dasharray:none;stroke-opacity:1;-inkscape-stroke:hairline"
       d="m 5.9142096,5.3775485 c 1.0858569,-1.1655628 1.0759519,-1.1504354 1.0759519,-1.643276 0,-0.4935541 0.011538,-0.47601 -1.0916048,-1.6599588 L 4.9425786,1.0483092 h 3.064687 3.0646864 L 10.115973,2.0743137 C 9.0111417,3.2600769 9.0099651,3.2618426 9.0099651,3.7342725 c 0,0.4716836 0.00277,0.4758531 1.0903559,1.643276 l 0.940301,1.0093216 H 8.0072656 4.9739093 Z"
       id="path827-3"
       inkscape:connector-curvature="0" />
    <path
       style="display:inline;vector-effect:non-scaling-stroke;fill:#fe9832;stroke:#000000;stroke-width:0.0127569;stroke-dasharray:none;stroke-opacity:1;-inkscape-stroke:hairline"
       d="m 11.254029,5.0771018 -1.259502,-1.3431363 1.25979,-1.3428295 1.25979,-1.3428287 1.259499,1.3431358 1.259502,1.3431365 -1.25979,1.3428293 -1.259788,1.3428292 z"
       id="path825-5"
       inkscape:connector-curvature="0" />
    <path
       style="display:inline;vector-effect:non-scaling-stroke;fill:#983200;stroke:#000000;stroke-width:0.0127569;stroke-dasharray:none;stroke-opacity:1;-inkscape-stroke:hairline"
       d="M 12.185383,7.4342932 C 12.10802,7.4043357 11.988315,7.3378307 11.919371,7.286504 11.850429,7.2351775 11.201271,6.5575676 10.476801,5.7807048 8.974212,4.1694551 9.0099651,4.2193347 9.0099651,3.7342725 c 0,-0.4885952 -0.043437,-0.4287895 1.5291179,-2.1053835 1.572552,-1.67659354 1.516459,-1.63028354 1.974735,-1.63028354 0.458275,0 0.402182,-0.04631012 1.974734,1.63028354 1.073808,1.1448499 1.39506,1.5065248 1.447418,1.6295544 0.05377,0.12634 0.0673,0.2219872 0.0673,0.4758291 0,0.2538417 -0.01352,0.3494893 -0.0673,0.4758293 -0.100043,0.2350458 -2.759965,3.0677801 -2.984016,3.1778716 -0.206062,0.1012526 -0.568196,0.123135 -0.766571,0.04632 z m 1.588223,-5.0428501 -1.2595,-1.343136 -1.259789,1.3428289 -1.25979,1.3428295 1.259502,1.3431363 1.259501,1.3431363 1.259788,-1.3428292 1.25979,-1.3428293 z"
       id="path821-6"
       inkscape:connector-curvature="0" />
    <path
       style="display:inline;vector-effect:non-scaling-stroke;fill:#323232;stroke:#000000;stroke-width:0.0127569;stroke-dasharray:none;stroke-opacity:1;-inkscape-stroke:hairline"
       d="M 7.0527524,15.922848 C 6.8410832,15.817473 4.1803846,12.974202 4.0771825,12.743094 c -0.1071689,-0.239994 -0.1071689,-0.694255 0,-0.934249 0.1083635,-0.242666 2.7636101,-3.0735819 2.9912178,-3.1891148 0.2251015,-0.11426 0.6511727,-0.11426 0.8762741,0 0.2262399,0.1148382 2.8856456,2.9492758 2.9840156,3.1804108 0.05377,0.12634 0.0673,0.221987 0.0673,0.475828 0,0.253843 -0.01352,0.349489 -0.0673,0.475831 -0.09777,0.229736 -2.7603716,3.068489 -2.9758507,3.172733 -0.209495,0.101333 -0.6949417,0.100438 -0.9000869,-0.0016 z m 1.7135738,-4.989707 -1.2595009,-1.3431362 -1.259789,1.3428302 -1.259789,1.342827 1.2595011,1.343136 1.259501,1.343139 1.2597891,-1.342831 1.2597895,-1.342831 z M 3.1722786,7.4342932 C 3.0949149,7.4043357 2.9752097,7.3378307 2.9062668,7.286504 2.8373241,7.2351775 2.1881664,6.5575676 1.4636948,5.7807048 -0.03889325,4.1694551 -0.00314052,4.2193347 -0.00314052,3.7342725 c 0,-0.4885952 -0.04343701,-0.4287895 1.52911782,-2.1053835 1.5725541,-1.67659354 1.5164598,-1.63028354 1.9747354,-1.63028354 0.3404879,0 0.492478,0.06697189 0.7670373,0.33798273 l 0.1801933,0.1778647 H 8.0107142 11.573485 L 11.324589,0.78138097 11.075693,1.0483092 H 8.0091361 4.9425786 l 0.9559781,1.0260045 c 1.1031421,1.1839488 1.0916048,1.1664047 1.0916048,1.6599588 0,0.4928406 0.00991,0.4777132 -1.0759519,1.643276 L 4.9739093,6.3868701 h 3.0352442 3.0352445 l 0.248896,0.266928 0.248895,0.2669281 H 8.0105192 4.4788495 L 4.2843685,7.1146897 C 4.1774041,7.2213699 4.0206966,7.3438001 3.93613,7.3867576 3.7341425,7.489361 3.3725944,7.5118602 3.1722786,7.4342932 Z M 4.7605016,2.3914431 3.5010007,1.0483071 2.2412118,2.391136 0.98142288,3.7339655 2.2409236,5.0771018 3.5004249,6.4202381 4.7602138,5.0774089 6.0200027,3.7345796 Z"
       id="path819-2"
       inkscape:connector-curvature="0" />
  </g>
  <g
     id="g2"
     transform="translate(-0.29928609,-0.30058349)">
    <path
       style="display:inline;fill:#fefefe;stroke:#323232;stroke-width:0.600244;stroke-dasharray:none;stroke-opacity:1"
       d="m -4.0621943,15.956293 c -0.8894622,-0.150898 -1.6926613,-0.635212 -2.2251311,-1.341708 -1.1634144,-1.543651 -0.8606177,-3.744534 0.6743316,-4.9013893 1.5436506,-1.1634144 3.7445339,-0.8606177 4.90138902,0.6743313 0.9444606,1.253137 0.9444606,2.973921 0,4.227058 -0.77031372,1.022075 -2.09884272,1.55407 -3.35058952,1.341708 z"
       id="path827-9"
       inkscape:connector-curvature="0"
       sodipodi:nodetypes="ssssss" />
    <path
       style="display:inline;fill:#000000;stroke-width:0.000312627"
       d="M -3.9996688,14.001667 V 13.00126 h -1.0004074 -1.0004074 v -0.500204 -0.500204 h 1.0004074 1.0004074 v -1.000407 -1.000408 h 0.5002037 0.5002037 v 1.000408 1.000407 h 1.0004074 1.00040742 v 0.500204 0.500204 H -1.998854 -2.9992614 v 1.000407 1.000407 h -0.5002037 -0.5002037 z"
       id="path819"
       inkscape:connector-curvature="0" />
  </g>
</g>
</svg>
