<?xml version="1.0" encoding="UTF-8" standalone="no"?>
<!-- Created with Inkscape (http://www.inkscape.org/) -->

<svg
   xmlns:dc="http://purl.org/dc/elements/1.1/"
   xmlns:cc="http://creativecommons.org/ns#"
   xmlns:rdf="http://www.w3.org/1999/02/22-rdf-syntax-ns#"
   xmlns:svg="http://www.w3.org/2000/svg"
   xmlns="http://www.w3.org/2000/svg"
   xmlns:sodipodi="http://sodipodi.sourceforge.net/DTD/sodipodi-0.dtd"
   xmlns:inkscape="http://www.inkscape.org/namespaces/inkscape"
   version="1.1"
   id="svg2"
   width="16"
   height="16"
   viewBox="0 0 16 16"
   sodipodi:docname="ICON_ALIASED.svg"
   inkscape:version="0.92.4 (5da689c313, 2019-01-14)">
  <metadata
     id="metadata8">
    <rdf:RDF>
      <cc:Work
         rdf:about="">
        <dc:format>image/svg+xml</dc:format>
        <dc:type
           rdf:resource="http://purl.org/dc/dcmitype/StillImage" />
        <dc:title></dc:title>
      </cc:Work>
    </rdf:RDF>
  </metadata>
  <defs
     id="defs6" />
  <sodipodi:namedview
     pagecolor="#ffffff"
     bordercolor="#666666"
     borderopacity="1"
     objecttolerance="10"
     gridtolerance="10"
     guidetolerance="10"
     inkscape:pageopacity="0"
     inkscape:pageshadow="2"
     inkscape:window-width="828"
     inkscape:window-height="480"
     id="namedview4"
     showgrid="false"
     inkscape:zoom="14.75"
     inkscape:cx="8"
     inkscape:cy="8"
     inkscape:window-x="0"
     inkscape:window-y="0"
     inkscape:window-maximized="0"
     inkscape:current-layer="svg2" />
  <g
     id="ICON_ALIASED">
    <path
       style="fill:#ffffff;stroke-width:0.03125"
       d="M 0,8 V 0 h 8 8 v 8 8 H 8 0 Z m 11,6.015625 V 13.03125 h 1 1 v -1 -1 h 0.984375 0.984375 v -3 -3 H 13.984375 13 v -1 -1 h -1 -1 v -1 -1 H 8 5 v 1 1 H 4 3 v 1 1 H 2 1 v 3 3 h 1 1 v 1 1 H 4 5 V 14.015625 15 h 3 3 z"
       id="path823"
       inkscape:connector-curvature="0" />
    <path
       style="fill:#fefefe;stroke-width:0.03125"
       d="M 5,14.015625 V 13.03125 H 4 3 v -1 -1 H 2 1 v -3 -3 h 1 1 v -1 -1 h 1 1 v -1 -1 h 3 3 v 1 1 h 1 1 v 1 1 h 0.984375 0.984375 v 3 3 H 13.984375 13 v 1 1 H 12 11 V 14.015625 15 H 8 5 Z m 6,-1.984375 v -1 h 1 1 V 8.0358356 5.0404209 l -0.23909,-0.02021 C 12.629411,5.0090947 12.179411,5 11.76091,5 H 11 V 4.0202106 3.040421 l -0.23909,-0.02021 c -0.311632,-0.026343 -5.2101884,-0.026343 -5.52182,0 L 5,3.040421 V 4.0202106 5 H 4.23909 c -0.4185006,0 -0.8685006,0.00909 -1,0.020211 L 3,5.0404209 V 8.0358356 11.03125 h 1 1 v 1 1 h 3 3 z"
       id="path821"
       inkscape:connector-curvature="0" />
    <path
       style="fill:#98cbfe;stroke-width:0.03125"
       d="m 5,12.03125 v -1 H 4 3 V 8.0358356 5.0404209 l 0.23909,-0.02021 C 3.3705894,5.0090947 3.8205894,5 4.23909,5 H 5 V 4.0202106 3.040421 l 0.23909,-0.02021 c 0.3116316,-0.026343 5.210188,-0.026343 5.52182,0 L 11,3.040421 V 4.0202106 5 h 0.76091 c 0.418501,0 0.868501,0.00909 1,0.020211 L 13,5.0404209 V 8.0358356 11.03125 h -1 -1 v 1 1 H 8 5 Z"
       id="path819"
       inkscape:connector-curvature="0" />
  </g>
</svg>
