<?xml version="1.0" encoding="UTF-8" standalone="no"?>
<!-- Created with Inkscape (http://www.inkscape.org/) -->

<svg
   version="1.1"
   id="svg2"
   width="1600"
   height="1600"
   viewBox="0 0 1600 1600"
   sodipodi:docname="aligncamera_view.svg"
   inkscape:version="1.2.2 (732a01da63, 2022-12-09)"
   xmlns:inkscape="http://www.inkscape.org/namespaces/inkscape"
   xmlns:sodipodi="http://sodipodi.sourceforge.net/DTD/sodipodi-0.dtd"
   xmlns="http://www.w3.org/2000/svg"
   xmlns:svg="http://www.w3.org/2000/svg"
   xmlns:rdf="http://www.w3.org/1999/02/22-rdf-syntax-ns#"
   xmlns:cc="http://creativecommons.org/ns#"
   xmlns:dc="http://purl.org/dc/elements/1.1/">
  <metadata
     id="metadata8">
    <rdf:RDF>
      <cc:Work
         rdf:about="">
        <dc:format>image/svg+xml</dc:format>
        <dc:type
           rdf:resource="http://purl.org/dc/dcmitype/StillImage" />
      </cc:Work>
    </rdf:RDF>
  </metadata>
  <defs
     id="defs6" />
  <sodipodi:namedview
     pagecolor="#808080"
     bordercolor="#666666"
     borderopacity="1"
     objecttolerance="10"
     gridtolerance="10"
     guidetolerance="10"
     inkscape:pageopacity="0"
     inkscape:pageshadow="2"
     inkscape:window-width="1993"
     inkscape:window-height="1009"
     id="namedview4"
     showgrid="false"
     inkscape:zoom="0.23046875"
     inkscape:cx="-561.8983"
     inkscape:cy="572.74576"
     inkscape:window-x="-8"
     inkscape:window-y="-8"
     inkscape:window-maximized="1"
     inkscape:current-layer="ALIGNCAMERA_VIEW"
     inkscape:showpageshadow="0"
     inkscape:pagecheckerboard="true"
     inkscape:deskcolor="#d1d1d1" />
  <g
     id="ALIGNCAMERA_VIEW"
     transform="matrix(100,0,0,100,0,4.9999997e-5)"
     style="stroke-width:0.0114286">
    <path
       style="fill:none;stroke-width:0.000357143"
       d="M 0,8 V 0 h 8 8 v 8 8 H 8 0 Z m 14.401627,7.421498 c 0.0748,-0.04276 0.148333,-0.07775 0.163403,-0.07775 0.01507,0 0.103518,-0.07734 0.196551,-0.171875 C 14.854614,15.077344 14.944721,15 14.961819,15 c 0.0171,0 0.03854,-0.03867 0.04765,-0.08594 0.0091,-0.04727 0.04586,-0.190456 0.08167,-0.3182 0.06388,-0.227887 0.06511,-0.287919 0.06511,-3.187599 0,-2.8305943 -0.0026,-2.9642809 -0.06059,-3.167209 -0.03332,-0.1165261 -0.0907,-0.2605945 -0.12751,-0.3201495 C 14.894695,7.8020519 14.602435,7.5 14.56089,7.5 14.54655,7.5 14.48128,7.468359 14.415849,7.429688 14.298808,7.360518 14.277206,7.359221 13.085938,7.349875 L 11.875,7.340375 V 6.6712478 c 0,-0.7601444 -0.01744,-0.8356 -0.219351,-0.9490806 -0.116138,-0.065273 -0.138158,-0.065916 -2.2536537,-0.0658 -2.0766441,1.25e-4 -2.1392178,0.00185 -2.2382184,0.062214 -0.2122816,0.1294297 -0.2260297,0.1869044 -0.22616,0.9454813 L 6.9375,7.34375 H 6.53125 6.125 V 7.0760706 C 6.125,6.7932694 6.1038969,6.7244472 5.97471,6.5859375 L 5.8945569,6.5 H 5.3097784 4.725 L 4.6125,6.6125 4.5,6.725 v 0.30568 0.3056797 l -0.3998516,0.012458 c -0.3431178,0.010691 -0.4165318,0.0223 -0.5174112,0.08182 C 3.5180794,7.4687872 3.4534469,7.5 3.4391097,7.5 3.3979619,7.5 3.1056237,7.8015359 3.033267,7.9186116 2.8729168,8.1780634 2.8757013,8.1208438 2.8753383,11.164063 L 2.875,14 H 2.4375 2 V 11.5 9 H 1.5 1 v 3 3 h 1.0437094 1.0437095 l 0.1667705,0.163298 c 0.091724,0.08981 0.2443203,0.201872 0.3391031,0.249019 l 0.1723325,0.08572 5.25,6.04e-4 5.25,6.03e-4 0.136002,-0.07775 z M 2,4.5 V 2 H 4.5 7 V 1.5 1 H 4 1 V 4 7 H 1.5 2 Z M 15,4 V 1 H 12 9 V 1.5 2 H 11.5 14 V 4.5 7 h 0.5 0.5 z"
       id="path831"
       inkscape:connector-curvature="0" />
    <path
       style="fill:#fefefe;stroke-width:0.000357143"
       d="M 1,12 V 9 H 1.5 2 V 11.5 14 H 2.4375 2.875 v 0.160459 c 0,0.24761 0.066626,0.561656 0.1464879,0.690483 0.039744,0.06411 0.072262,0.123877 0.072262,0.132812 C 3.09375,14.992689 2.6226563,15 2.046875,15 H 1 Z m 13.9375,2.970594 c 0,-0.01617 0.01406,-0.0381 0.03125,-0.04872 C 14.985938,14.911253 15,14.924484 15,14.951281 15,14.978076 14.985938,15 14.96875,15 14.951563,15 14.9375,14.986768 14.9375,14.970594 Z M 7.9286634,11.780348 c -0.065016,-0.01639 -0.1353287,-0.04377 -0.15625,-0.06085 -0.020921,-0.01708 -0.083776,-0.0677 -0.1396781,-0.112494 C 7.4937444,11.495637 7.34375,11.180579 7.34375,11 c 0,-0.180579 0.1499944,-0.495637 0.2889853,-0.607003 0.055902,-0.04479 0.1186538,-0.09532 0.1394484,-0.112279 0.069538,-0.05672 0.3612863,-0.100828 0.5332457,-0.08062 0.3101237,0.03645 0.5686156,0.260191 0.6575468,0.56915 0.1022797,0.355333 -0.051542,0.755203 -0.3600637,0.936009 -0.154175,0.09035 -0.4728822,0.125846 -0.6742491,0.07509 z M 3.28125,8.8761569 c 0,-0.54267 0.045757,-0.7118682 0.2427594,-0.8976653 C 3.7714378,7.7451366 3.2443703,7.765625 9,7.765625 c 5.762685,0 5.227868,-0.021143 5.479991,0.2166391 0.196438,0.1852653 0.26854,0.4388809 0.26935,0.9474234 L 14.75,9.34375 h -1.8125 c -0.996875,0 -1.8125,-0.01143 -1.8125,-0.0254 0,-0.01397 -0.09307,-0.1159231 -0.206829,-0.2265625 C 10.623677,8.8053628 10.596599,8.78125 10.569445,8.78125 c -0.01337,0 -0.04839,-0.028125 -0.07782,-0.0625 -0.02943,-0.034375 -0.07475,-0.0625 -0.100695,-0.0625 -0.02595,0 -0.04727,-0.010547 -0.04738,-0.023437 C 10.343303,8.6041353 10.165229,8.5002672 10.114655,8.499305 10.094563,8.4989228 10.042969,8.4711106 10,8.4375 9.9570313,8.4038894 9.8999069,8.3760772 9.8730572,8.375695 9.8462075,8.3753138 9.7647797,8.3462722 9.6921069,8.3111606 9.5026891,8.2196438 8.9442856,8.125 8.59375,8.125 8.2482494,8.125 7.7025166,8.2165456 7.4619062,8.3148647 7.0916609,8.4661559 6.65625,8.7037219 6.65625,8.7544419 c 0,0.014744 -0.017578,0.026868 -0.039063,0.026941 C 6.5686622,8.7815387 6.0625,9.2640887 6.0625,9.310185 6.0625,9.3336022 5.6420684,9.34375 4.671875,9.34375 H 3.28125 Z M 1,4 V 1 H 4 7 V 1.5 2 H 4.5 2 V 4.5 7 H 1.5 1 Z M 14,4.5 V 2 H 11.5 9 V 1.5 1 h 3 3 V 4 7 H 14.5 14 Z"
       id="path829"
       inkscape:connector-curvature="0" />
    <path
       style="fill:#98cbfe;stroke-width:0.000357143"
       d="m 8.21875,12.990257 c -0.2797141,-0.07544 -0.4375,-0.14053 -0.4375,-0.180482 0,-0.01317 -0.020609,-0.02849 -0.045798,-0.03405 -0.1229458,-0.02712 -0.516702,-0.429407 -0.516702,-0.527892 0,-0.016 -0.010865,-0.02908 -0.024144,-0.02908 -0.090443,0 -0.2748403,-0.680761 -0.2449137,-0.904178 0.035037,-0.261569 0.1175644,-0.506285 0.25519,-0.756708 0.073043,-0.13291 0.3192837,-0.392241 0.4449153,-0.468569 0.063705,-0.0387 0.1237309,-0.08173 0.1333909,-0.095611 0.00966,-0.013882 0.1362229,-0.067081 0.28125,-0.1182207 0.2071238,-0.073035 0.3173572,-0.093112 0.5138926,-0.093597 0.2537506,-6.25e-4 0.3141931,0.011103 0.5935437,0.1151728 0.4230072,0.1575879 0.7734978,0.5080789 0.9310862,0.9310859 0.104069,0.279351 0.115798,0.339793 0.115172,0.593544 -4.84e-4,0.196535 -0.02056,0.306769 -0.0936,0.513892 -0.05114,0.145027 -0.104339,0.27159 -0.118221,0.28125 -0.013882,0.0097 -0.056907,0.06969 -0.095611,0.133391 -0.076327,0.125632 -0.3356591,0.371872 -0.4685688,0.444916 -0.4580248,0.251716 -0.8071245,0.3074 -1.2233822,0.195136 z M 8.6029125,11.70526 C 8.8293178,11.572578 9,11.269432 9,11 9,10.732671 8.8294575,10.427504 8.6073044,10.297314 c -0.072471,-0.04247 -0.208315,-0.08622 -0.301875,-0.09721 -0.1719594,-0.02021 -0.4637078,0.0239 -0.5332457,0.08062 -0.020795,0.01696 -0.083547,0.06749 -0.1394484,0.112279 C 7.4937444,10.504363 7.34375,10.819421 7.34375,11 c 0,0.180579 0.1499944,0.495637 0.2889853,0.607003 0.055902,0.04479 0.1187572,0.09541 0.1396781,0.112494 0.1421263,0.116031 0.6222588,0.1078 0.8304991,-0.01424 z"
       id="path827"
       inkscape:connector-curvature="0" />
    <path
       style="fill:#cbcbcb;stroke-width:0.000357143"
       d="m 3.8762147,15.071061 c -0.090546,-0.01723 -0.3047538,-0.16105 -0.3874331,-0.26012 -0.071148,-0.08525 -0.13397,-0.231862 -0.1721313,-0.401704 l -0.028757,-0.127987 1.848241,3.97e-4 1.8482406,3.97e-4 0.1875,0.09592 c 0.8140744,0.41644 2.0305859,0.409675 2.8750001,-0.01599 l 0.15625,-0.07876 2.270116,-9.79e-4 2.270116,-9.78e-4 -0.02642,0.117559 c -0.06529,0.290599 -0.211546,0.497446 -0.439685,0.621851 -0.101005,0.05508 -0.317623,0.05762 -5.2147571,0.06125 -2.8101563,0.0021 -5.1439847,-0.0028 -5.1862853,-0.01085 z M 4.90625,7.125 V 6.90625 H 5.3125 5.71875 V 7.125 7.34375 H 5.3125 4.90625 Z M 7.34375,6.703125 V 6.0625 h 2.0625 2.0625 V 6.703125 7.34375 h -2.0625 -2.0625 z"
       id="path825"
       inkscape:connector-curvature="0" />
    <path
       style="fill:#656565;stroke-width:0.000357143"
       d="M 8.0758678,14.233415 C 7.9371263,14.211746 7.7472825,14.162863 7.6539928,14.124786 7.4303506,14.033503 7.0821981,13.869641 7.0625,13.846391 7.0539062,13.836248 6.9837728,13.785801 6.9066478,13.734287 6.7264119,13.613902 6.3860981,13.273588 6.2657128,13.093352 6.2141988,13.016227 6.1637519,12.946094 6.1536087,12.9375 6.1304494,12.917878 5.9664653,12.569627 5.876565,12.349146 5.7981178,12.156755 5.7182487,11.669609 5.7198584,11.393348 5.7210741,11.184739 5.7882097,10.726078 5.8391856,10.578125 5.94557,10.269352 6.0963616,9.9574525 6.2168897,9.796875 6.2684928,9.728125 6.3357247,9.6369516 6.3662941,9.5942675 6.4561159,9.4688491 6.7096044,9.21875 6.7469003,9.21875 c 0.018892,0 0.03435,-0.012771 0.03435,-0.028381 0,-0.015609 0.063256,-0.068343 0.1405691,-0.1171875 0.077313,-0.048844 0.1405943,-0.099354 0.140625,-0.1122444 3.09e-5,-0.012891 0.021429,-0.023437 0.047552,-0.023437 0.026123,0 0.1031872,-0.035156 0.1712541,-0.078125 0.068067,-0.042969 0.1377237,-0.078125 0.1547931,-0.078125 0.017069,0 0.091177,-0.026932 0.1646835,-0.059849 C 7.79884,8.6326838 8.1663072,8.5570222 8.484375,8.5394572 c 0.2651963,-0.014645 0.3713809,-0.00153 0.9221713,0.113915 0.1660268,0.034799 0.7560357,0.3349291 0.8990267,0.4573234 0.06943,0.05943 0.133397,0.1080544 0.142149,0.1080544 0.0202,0 0.333528,0.3141144 0.333528,0.3343656 0,0.00829 0.04862,0.071881 0.108054,0.1413113 0.122395,0.1429906 0.422525,0.7330001 0.457324,0.8990271 0.115443,0.55079 0.12856,0.656975 0.113915,0.922171 -0.01756,0.318068 -0.09323,0.685535 -0.181944,0.883648 -0.03292,0.07351 -0.05985,0.147615 -0.05985,0.164684 0,0.01707 -0.03516,0.08673 -0.07813,0.154793 -0.04297,0.06807 -0.07813,0.145131 -0.07813,0.171254 0,0.02612 -0.01055,0.04752 -0.02344,0.04755 -0.01289,3.1e-5 -0.0634,0.06331 -0.112245,0.140625 -0.04884,0.07731 -0.101578,0.140569 -0.117187,0.140569 -0.01561,0 -0.02838,0.01461 -0.02838,0.03247 0,0.03576 -0.254582,0.294579 -0.376216,0.382482 -0.0423,0.03057 -0.133159,0.0978 -0.201909,0.149404 -0.121421,0.09114 -0.3550431,0.213131 -0.578125,0.301888 -0.4624797,0.184003 -0.9947644,0.235 -1.5491322,0.148417 z M 9.0676759,13.393992 C 9.3281653,13.32949 9.4310025,13.291151 9.6125128,13.190873 9.7524759,13.113548 9.9325841,12.973714 10.05191,12.84973 10.213946,12.681369 10.5,12.233518 10.5,12.148192 c 0,-0.03165 0.02379,-0.10255 0.05287,-0.157556 0.03899,-0.07376 0.05637,-0.204781 0.06621,-0.499083 0.01157,-0.345865 0.0042,-0.429193 -0.05519,-0.625 -0.07513,-0.247677 -0.205002,-0.523427 -0.290455,-0.616729 -0.03008,-0.03284 -0.05469,-0.07183 -0.05469,-0.08663 0,-0.01481 -0.03164,-0.05689 -0.07031,-0.09352 C 10.059951,9.9858572 10.014143,9.9400487 9.9303287,9.8515625 9.8936991,9.8128906 9.8516144,9.78125 9.8368078,9.78125 9.8220008,9.78125 9.7830168,9.756641 9.7501758,9.726563 9.5753944,9.566485 9.0485162,9.3793703 8.6961478,9.3522369 8.4616541,9.33418 8.1463584,9.3815819 7.9937394,9.4578372 7.9473272,9.4810266 7.8834581,9.5 7.8518078,9.5 c -0.085325,0 -0.5331766,0.2860538 -0.7015381,0.44809 -0.1239841,0.119326 -0.2638178,0.299434 -0.3411428,0.439397 -0.1002782,0.181511 -0.1386166,0.284348 -0.2031191,0.544837 -0.1068116,0.431353 -0.1002359,0.588385 0.047979,1.145801 0.057842,0.217535 0.2817856,0.578043 0.4858153,0.782073 0.2106262,0.210625 0.5659578,0.42873 0.7976975,0.48963 0.060156,0.01581 0.1796875,0.04748 0.265625,0.07038 0.2448522,0.06524 0.5301475,0.05659 0.8645509,-0.02621 z"
       id="path823"
       inkscape:connector-curvature="0" />
    <path
       style="fill:#323232;stroke-width:0.000357143"
       d="M 3.5932925,15.412317 C 3.4424588,15.337289 3.09375,15.040292 3.09375,14.986854 c 0,-0.01064 -0.032518,-0.0718 -0.072262,-0.135912 C 2.8799625,14.622646 2.8749795,14.502413 2.8753383,11.324522 2.8757014,8.1075838 2.8723941,8.1789091 3.033267,7.9186116 3.1056237,7.8015359 3.3979619,7.5 3.4391097,7.5 3.4534467,7.5 3.5180797,7.468787 3.5827372,7.430638 3.6836166,7.371118 3.7570306,7.359509 4.1001484,7.348818 L 4.5,7.3363597 V 7.03068 6.725 L 4.6125,6.6125 4.725,6.5 H 5.3097784 5.8945569 L 5.97471,6.5859375 C 6.1038969,6.7244472 6.125,6.7932694 6.125,7.0760706 V 7.34375 H 6.53125 6.9375 l 1.25e-4,-0.6796875 c 1.25e-4,-0.7585769 0.013878,-0.8160516 0.22616,-0.9454813 0.099001,-0.060361 0.1615744,-0.062101 2.2382184,-0.062214 2.1154956,-1.25e-4 2.1375156,5.281e-4 2.2536546,0.0658 0.201911,0.1134806 0.21935,0.1889362 0.21935,0.9490806 V 7.340375 l 1.210938,0.0095 c 1.191268,0.00935 1.21287,0.010642 1.329911,0.079813 C 14.481293,7.4683594 14.546561,7.5 14.560898,7.5 c 0.04154,0 0.333805,0.3020519 0.407259,0.4209025 0.03681,0.059555 0.09419,0.2036234 0.127511,0.3201525 0.05803,0.2029281 0.06059,0.3366147 0.06059,3.167209 0,2.781839 -0.0034,2.968345 -0.05817,3.176906 -0.03199,0.121863 -0.09016,0.273333 -0.129265,0.336601 -0.07753,0.125432 -0.361871,0.421979 -0.40462,0.421979 -0.01461,0 -0.08777,0.03499 -0.162575,0.07775 l -0.136002,0.07775 -5.25,-6.03e-4 -5.25,-6.03e-4 -0.1723325,-0.08572 z M 14.277257,15.02066 c 0.163947,-0.0894 0.310026,-0.253179 0.386881,-0.433756 l 0.07024,-0.165029 0.0088,-2.320312 0.0088,-2.320313 h -1.638656 -1.638657 l 0.01745,0.070312 c 0.0096,0.038672 0.04344,0.1076397 0.0752,0.153261 0.03176,0.04562 0.05775,0.102746 0.05775,0.126943 0,0.0242 0.02873,0.103453 0.06384,0.176126 0.09152,0.189418 0.186161,0.747821 0.186161,1.098357 0,0.345501 -0.09155,0.891233 -0.189865,1.131844 -0.151291,0.370245 -0.388857,0.805657 -0.439577,0.805657 -0.01474,0 -0.02687,0.01758 -0.02694,0.03906 -1.57e-4,0.04782 -0.482371,0.554687 -0.527703,0.554687 -0.01786,0 -0.04752,0.02812 -0.06592,0.0625 -0.0184,0.03438 -0.04761,0.0625 -0.06491,0.0625 -0.0173,0 -0.05794,0.02461 -0.09031,0.05469 -0.08176,0.07598 -0.6027787,0.33673 -0.82916,0.414969 -0.5736669,0.198265 -1.4869853,0.199492 -2.09375,0.0028 C 7.2972247,14.454051 6.8688181,14.235582 6.65625,14.080792 6.4358784,13.920321 6.0796806,13.564123 5.9192091,13.343752 5.7644197,13.131183 5.5459509,12.702777 5.4650288,12.453127 5.3181906,12.00012 5.2763091,11.36824 5.3581778,10.841029 5.40107,10.564816 5.5310866,10.123278 5.5914109,10.048966 5.6062959,10.030626 5.6403189,9.962892 5.6670179,9.8984391 L 5.7155609,9.7812516 H 4.4974484 3.2793363 l 0.00877,2.3203124 c 0.00856,2.264388 0.010328,2.324099 0.07344,2.477429 0.035569,0.08641 0.091819,0.189616 0.125,0.229338 0.084684,0.101378 0.2981685,0.245318 0.3896688,0.262731 0.042301,0.0081 2.3761291,0.01293 5.1862853,0.01085 4.8971336,-0.0036 5.1137526,-0.0062 5.2147566,-0.06125 z M 9.0625,14.236074 c 0.1460938,-0.02363 0.3078125,-0.05749 0.359375,-0.07526 0.3087725,-0.106384 0.620673,-0.257176 0.78125,-0.377704 0.06875,-0.0516 0.159609,-0.118835 0.201909,-0.149404 0.121634,-0.0879 0.376216,-0.346725 0.376216,-0.382482 0,-0.01786 0.01277,-0.03247 0.02838,-0.03247 0.01561,0 0.06834,-0.06326 0.117187,-0.140569 0.04884,-0.07731 0.09935,-0.140594 0.112245,-0.140625 0.01289,-3.1e-5 0.02344,-0.02143 0.02344,-0.04755 0,-0.02612 0.03516,-0.103187 0.07813,-0.171254 0.04297,-0.06807 0.07813,-0.137724 0.07813,-0.154793 0,-0.01707 0.02693,-0.09118 0.05985,-0.164684 0.08872,-0.198113 0.164379,-0.56558 0.181944,-0.883648 0.01464,-0.265196 0.0015,-0.371381 -0.113915,-0.922171 -0.0348,-0.166027 -0.334929,-0.7560365 -0.457324,-0.8990271 -0.05943,-0.06943 -0.108054,-0.1330203 -0.108054,-0.1413113 0,-0.020251 -0.313328,-0.3343656 -0.333528,-0.3343656 -0.0088,0 -0.07272,-0.048624 -0.142149,-0.1080544 C 10.162583,8.9883012 9.5725731,8.6881709 9.4065463,8.6533722 8.8557559,8.5379288 8.7495713,8.5248119 8.484375,8.5394572 8.1663072,8.5570222 7.79884,8.6326838 7.6007266,8.7214009 7.52722,8.7543178 7.4531122,8.78125 7.4360431,8.78125 7.4189737,8.78125 7.3493169,8.8164063 7.28125,8.859375 7.2131831,8.9023438 7.1361187,8.9375 7.1099959,8.9375 c -0.026123,0 -0.047521,0.010547 -0.047552,0.023437 -3.07e-5,0.012891 -0.063312,0.063401 -0.140625,0.1122444 -0.077313,0.048845 -0.1405689,0.1015789 -0.1405689,0.117188 0,0.015609 -0.015457,0.028381 -0.03435,0.028381 -0.037296,0 -0.2907844,0.2500991 -0.3806062,0.3755175 -0.030569,0.042684 -0.097801,0.1338575 -0.1494044,0.2026075 -0.1205281,0.1605775 -0.2713197,0.4724776 -0.3777041,0.7812496 -0.050976,0.147953 -0.1181118,0.606614 -0.1193272,0.815223 -0.00161,0.276261 0.078259,0.763407 0.1567066,0.955798 0.0899,0.220482 0.2538844,0.568732 0.2770438,0.588354 0.010143,0.0086 0.06059,0.07873 0.112104,0.155852 0.1203853,0.180236 0.4606991,0.52055 0.640935,0.640935 0.077125,0.05151 0.1472585,0.101961 0.1558522,0.112104 0.019698,0.02325 0.3678506,0.187112 0.5914928,0.278395 0.3443388,0.140546 0.9377128,0.187429 1.4085075,0.111288 z M 8.203125,13.420205 C 8.1171875,13.397307 7.9976563,13.365637 7.9375,13.349828 7.7057603,13.288928 7.3504287,13.070823 7.1398025,12.860197 6.9357728,12.656167 6.7118294,12.29566 6.6539872,12.078125 6.5057719,11.520709 6.4991963,11.363677 6.6060078,10.932324 6.6705103,10.671835 6.7088488,10.568997 6.8091269,10.387487 6.8864519,10.247524 7.0262856,10.067416 7.1502697,9.94809 7.3186312,9.7860538 7.7664825,9.5 7.8518078,9.5 c 0.03165,0 0.095519,-0.018973 0.1419316,-0.042163 0.152619,-0.076255 0.4679147,-0.1236572 0.7024084,-0.1056003 0.3523684,0.027133 0.8792466,0.2142481 1.0540281,0.3743256 0.032841,0.030078 0.071825,0.054687 0.086632,0.054687 0.014807,0 0.056891,0.031641 0.093521,0.070312 0.083814,0.088486 0.1296221,0.1342947 0.2181091,0.2181087 0.03867,0.03663 0.07031,0.07872 0.07031,0.09352 0,0.01481 0.02461,0.05379 0.05469,0.08663 0.08545,0.0933 0.215319,0.369052 0.290454,0.616729 0.0594,0.195807 0.06676,0.279135 0.05519,0.625 -0.0098,0.294302 -0.02722,0.425328 -0.06621,0.499083 -0.02908,0.05501 -0.05287,0.125906 -0.05287,0.157556 0,0.08533 -0.286054,0.533177 -0.44809,0.701538 -0.1193257,0.123984 -0.2994339,0.263818 -0.439397,0.341143 -0.1815103,0.100278 -0.2843475,0.138617 -0.5448369,0.203119 -0.3344034,0.0828 -0.6196987,0.09145 -0.8645509,0.02621 z m 0.7971884,-0.437418 c 0.1667907,-0.04957 0.2713504,-0.09398 0.4418225,-0.18767 0.1329097,-0.07304 0.3922413,-0.319283 0.4685688,-0.444915 0.038704,-0.0637 0.081729,-0.123731 0.095611,-0.133391 0.01388,-0.0097 0.06708,-0.136223 0.118221,-0.28125 0.07303,-0.207123 0.09311,-0.317357 0.0936,-0.513892 6.25e-4,-0.253751 -0.0111,-0.314193 -0.115172,-0.593544 C 9.9453728,10.405118 9.5948822,10.054627 9.171875,9.8970394 8.8925244,9.7929697 8.8320819,9.7812412 8.5783312,9.7818666 c -0.1965353,4.843e-4 -0.3067687,0.020561 -0.5138925,0.093597 -0.1450271,0.051139 -0.2715896,0.1043385 -0.28125,0.1182207 -0.00966,0.013882 -0.069686,0.056907 -0.1333909,0.095611 -0.3472978,0.211001 -0.6306756,0.70695 -0.7001053,1.225277 -0.029927,0.223417 0.1544703,0.904178 0.2449137,0.904178 0.013279,0 0.024144,0.01309 0.024144,0.02908 0,0.09849 0.3937562,0.500772 0.5167019,0.527896 0.025189,0.0056 0.045798,0.02088 0.045798,0.03405 0,0.03995 0.1577859,0.105043 0.4375,0.180482 0.2951644,0.07961 0.4950066,0.0777 0.7815634,-0.0075 z M 6.0625,9.310185 c 0,-0.046096 0.5061622,-0.5286378 0.5546875,-0.5288025 0.021484,-6.25e-5 0.039063,-0.012196 0.039063,-0.026941 0,-0.05072 0.4354109,-0.288286 0.8056562,-0.4395772 C 7.7025166,8.2165456 8.2482494,8.125 8.59375,8.125 c 0.3505356,0 0.9089391,0.094644 1.0983569,0.1861606 0.072673,0.035112 0.1541006,0.064152 0.1809503,0.064534 0.02685,3.812e-4 0.083974,0.028194 0.1269428,0.061805 0.04297,0.033611 0.09456,0.061423 0.114655,0.061805 0.05057,9.625e-4 0.228656,0.1048303 0.228898,0.1335075 9.3e-5,0.012891 0.02143,0.023437 0.04738,0.023437 0.02595,0 0.07126,0.028125 0.100695,0.0625 0.02943,0.034375 0.06445,0.0625 0.07782,0.0625 0.02715,0 0.05423,0.024113 0.348726,0.3105372 0.113756,0.1106394 0.206829,0.2125925 0.206829,0.2265625 0,0.01397 0.815625,0.0254 1.8125,0.0254 H 14.75 L 14.749341,8.9296875 C 14.748531,8.421145 14.676429,8.1675294 14.479991,7.9822641 14.227868,7.7444822 14.762685,7.765625 9,7.765625 3.2443703,7.765625 3.7714378,7.7451366 3.5240094,7.9784916 3.3270069,8.1642888 3.28125,8.3334869 3.28125,8.8761569 V 9.34375 H 4.671875 C 5.6420684,9.34375 6.0625,9.333602 6.0625,9.310185 Z M 5.71875,7.125 V 6.90625 H 5.3125 4.90625 V 7.125 7.34375 H 5.3125 5.71875 Z m 5.75,-0.421875 V 6.0625 H 9.40625 7.34375 V 6.703125 7.34375 h 2.0625 2.0625 z"
       id="path821"
       inkscape:connector-curvature="0" />
    <path
       style="fill:#000000;stroke-width:0.000357143"
       d="m 3.28125,12.03125 v -2.25 h 1.2171553 1.2171556 l -0.048543,0.1171875 c -0.026699,0.064453 -0.060722,0.1321905 -0.075607,0.1505265 -0.060324,0.07431 -0.1903409,0.515851 -0.2332331,0.792063 -0.081869,0.527211 -0.039987,1.159091 0.1068509,1.612098 0.080922,0.24965 0.299391,0.678057 0.4541804,0.890625 0.2244647,0.308252 0.8414834,0.875 0.9526121,0.875 0.016907,0 0.039431,0.01406 0.050054,0.03125 0.012792,0.0207 -0.5986338,0.03125 -1.8106556,0.03125 H 3.28125 Z m 7.0625,2.16918 c 0.07734,-0.04404 0.145312,-0.09309 0.151042,-0.108999 0.0057,-0.01591 0.02984,-0.02893 0.05359,-0.02893 0.02374,0 0.05822,-0.02812 0.07662,-0.0625 0.0184,-0.03438 0.04806,-0.0625 0.06592,-0.0625 0.04533,0 0.52754,-0.506867 0.527702,-0.554687 6.3e-5,-0.02149 0.0122,-0.03906 0.02694,-0.03906 0.05072,0 0.288286,-0.435411 0.439577,-0.805656 0.09832,-0.240611 0.189865,-0.786343 0.189865,-1.131844 0,-0.350536 -0.09464,-0.908939 -0.186161,-1.098357 -0.03511,-0.07267 -0.06384,-0.15193 -0.06384,-0.176126 0,-0.0242 -0.02599,-0.08132 -0.05775,-0.126943 -0.03176,-0.045622 -0.0656,-0.1145896 -0.0752,-0.1532615 L 11.474601,9.78125 h 1.6377 H 14.75 v 2.25 2.25 l -2.273437,-3.75e-4 -2.273438,-3.75e-4 z"
       id="path819"
       inkscape:connector-curvature="0" />
  </g>
</svg>
