<?xml version="1.0" encoding="UTF-8" standalone="no"?>
<!-- Created with Inkscape (http://www.inkscape.org/) -->

<svg
   version="1.1"
   id="svg2"
   width="1600"
   height="1600"
   viewBox="0 0 1600 1600"
   sodipodi:docname="align_y.svg"
   inkscape:version="1.4.3 (0d15f75042, 2025-12-25)"
   xmlns:inkscape="http://www.inkscape.org/namespaces/inkscape"
   xmlns:sodipodi="http://sodipodi.sourceforge.net/DTD/sodipodi-0.dtd"
   xmlns="http://www.w3.org/2000/svg"
   xmlns:svg="http://www.w3.org/2000/svg"
   xmlns:rdf="http://www.w3.org/1999/02/22-rdf-syntax-ns#"
   xmlns:cc="http://creativecommons.org/ns#"
   xmlns:dc="http://purl.org/dc/elements/1.1/">
  <metadata
     id="metadata8">
    <rdf:RDF>
      <cc:Work
         rdf:about="">
        <dc:format>image/svg+xml</dc:format>
        <dc:type
           rdf:resource="http://purl.org/dc/dcmitype/StillImage" />
      </cc:Work>
    </rdf:RDF>
  </metadata>
  <defs
     id="defs6" />
  <sodipodi:namedview
     pagecolor="#808080"
     bordercolor="#666666"
     borderopacity="1"
     objecttolerance="10"
     gridtolerance="10"
     guidetolerance="10"
     inkscape:pageopacity="0"
     inkscape:pageshadow="2"
     inkscape:window-width="1993"
     inkscape:window-height="1009"
     id="namedview4"
     showgrid="false"
     inkscape:zoom="0.23046875"
     inkscape:cx="659.52542"
     inkscape:cy="642.16949"
     inkscape:window-x="-8"
     inkscape:window-y="-8"
     inkscape:window-maximized="1"
     inkscape:current-layer="ALIGN_Y"
     inkscape:showpageshadow="0"
     inkscape:pagecheckerboard="true"
     inkscape:deskcolor="#d1d1d1" />
  <g
     id="ALIGN_Y"
     transform="matrix(100,0,0,100,0,4.9999997e-5)"
     style="stroke-width:0.0114286">
    <path
       style="fill:none;stroke-width:0.000357143"
       d="m 0,8.4999995 v -7.5 h 8 8 v 7.5 V 16 H 8 0 Z m 4.59375,-2.21875 v -1.71875 h 0.7635906 c 0.8095022,0 0.8793541,-0.010208 1.0293206,-0.1504256 C 6.5567544,4.2530382 6.6142941,3.9607857 6.5187484,3.7411832 6.4625641,3.6120492 4.3259359,1.4824684 4.2089031,1.4389567 4.0960247,1.3969894 3.8727234,1.3969899 3.7598469,1.4389575 3.6428297,1.4824646 1.5374184,3.5808348 1.4812507,3.7099332 1.4293297,3.829272 1.4242637,4.0546479 1.4707377,4.1776526 c 0.047254,0.1250691 0.180645,0.2582406 0.3261369,0.3256013 0.1104275,0.051126 0.2115242,0.057953 0.8671875,0.058559 L 3.40625,4.5624995 v 1.71875 1.71875 H 4 4.59375 Z m 8,0 v -1.71875 h 0.763591 c 0.809502,0 0.879354,-0.010208 1.02932,-0.1504256 0.170093,-0.1590357 0.227633,-0.4512882 0.132087,-0.6708907 -0.05618,-0.129134 -2.192812,-2.2587148 -2.309845,-2.3022265 -0.112878,-0.041967 -0.33618,-0.041967 -0.449056,8e-7 -0.117017,0.043507 -2.2224286,2.1418773 -2.2785964,2.2709757 -0.051921,0.1193388 -0.056987,0.3447147 -0.010512,0.4677194 0.047254,0.1250691 0.180645,0.2582406 0.3261369,0.3256013 0.1104275,0.051126 0.2115235,0.057953 0.8671865,0.058559 l 0.742188,6.866e-4 v 1.71875 1.71875 H 12 12.59375 Z"
       id="path821-3"
       inkscape:connector-curvature="0" />
    <path
       style="fill:#fefefe;stroke-width:0.000357143"
       d="m 3.40625,6.2812495 v -1.71875 L 2.6640625,4.561812 C 2.0083992,4.5612058 1.9073025,4.5543789 1.796875,4.5032526 1.6513831,4.435892 1.5179924,4.3027204 1.4707381,4.1776514 1.4242637,4.0546467 1.4293293,3.8292708 1.4812507,3.709932 1.5374187,3.5808336 3.6428297,1.4824634 3.7598469,1.4389563 c 0.1128765,-0.041968 0.3361778,-0.041968 0.4490562,-9e-7 0.1170328,0.043512 2.253661,2.1730925 2.3098453,2.3022266 0.095546,0.2196025 0.038006,0.511855 -0.1320872,0.6708906 C 6.2366947,4.5522914 6.1668428,4.5624995 5.3573406,4.5624995 H 4.59375 v 1.71875 1.71875 H 4 3.40625 Z m 8,0 v -1.71875 L 10.664063,4.561812 C 10.008399,4.5612058 9.9073025,4.5543789 9.796875,4.5032526 9.6513831,4.435892 9.5179925,4.3027204 9.4707381,4.1776514 9.4242638,4.0546467 9.4293294,3.8292708 9.4812506,3.709932 9.5374184,3.5808336 11.64283,1.4824634 11.759847,1.4389563 c 0.112876,-0.041968 0.336178,-0.041968 0.449056,-9e-7 0.117033,0.043512 2.253661,2.1730925 2.309845,2.3022266 0.09555,0.2196025 0.03801,0.511855 -0.132087,0.6708906 -0.149966,0.1402188 -0.219818,0.1504269 -1.02932,0.1504269 H 12.59375 v 1.71875 1.71875 H 12 11.40625 Z M 0,0.4999995 V -4.9999997e-7 h 8 8 V 0.4999995 v 0.5 H 8 0 Z"
       id="path819-6"
       inkscape:connector-curvature="0" />
  </g>
</svg>
