<?xml version="1.0" encoding="UTF-8" standalone="no"?>
<!-- Created with Inkscape (http://www.inkscape.org/) -->

<svg
   version="1.1"
   id="svg2"
   width="1600"
   height="1600"
   viewBox="0 0 1600 1600"
   sodipodi:docname="align_bottom.svg"
   inkscape:version="1.2.2 (732a01da63, 2022-12-09)"
   xmlns:inkscape="http://www.inkscape.org/namespaces/inkscape"
   xmlns:sodipodi="http://sodipodi.sourceforge.net/DTD/sodipodi-0.dtd"
   xmlns="http://www.w3.org/2000/svg"
   xmlns:svg="http://www.w3.org/2000/svg"
   xmlns:rdf="http://www.w3.org/1999/02/22-rdf-syntax-ns#"
   xmlns:cc="http://creativecommons.org/ns#"
   xmlns:dc="http://purl.org/dc/elements/1.1/">
  <metadata
     id="metadata8">
    <rdf:RDF>
      <cc:Work
         rdf:about="">
        <dc:format>image/svg+xml</dc:format>
        <dc:type
           rdf:resource="http://purl.org/dc/dcmitype/StillImage" />
      </cc:Work>
    </rdf:RDF>
  </metadata>
  <defs
     id="defs6" />
  <sodipodi:namedview
     pagecolor="#808080"
     bordercolor="#666666"
     borderopacity="1"
     objecttolerance="10"
     gridtolerance="10"
     guidetolerance="10"
     inkscape:pageopacity="0"
     inkscape:pageshadow="2"
     inkscape:window-width="1993"
     inkscape:window-height="1009"
     id="namedview4"
     showgrid="false"
     inkscape:zoom="0.081483008"
     inkscape:cx="-1000.2085"
     inkscape:cy="-98.179978"
     inkscape:window-x="-8"
     inkscape:window-y="-8"
     inkscape:window-maximized="1"
     inkscape:current-layer="ALIGN_BOTTOM"
     inkscape:showpageshadow="0"
     inkscape:pagecheckerboard="true"
     inkscape:deskcolor="#d1d1d1" />
  <g
     id="ALIGN_BOTTOM"
     transform="matrix(100,0,0,100,0,4.9999997e-5)"
     style="stroke-width:0.0114286">
    <path
       style="fill:none;stroke-width:0.000357143"
       d="M 0,8 V 0 h 8 8 v 8 8 H 8 0 Z m 14.773723,6.937669 c 0.05602,-0.03415 0.129792,-0.107929 0.163946,-0.163946 0.06145,-0.100788 0.0621,-0.171264 0.0621,-6.773723 0,-6.6024593 -6.47e-4,-6.6729347 -0.0621,-6.7737231 C 14.903515,1.1702604 14.82974,1.0964848 14.773723,1.0623312 14.672935,1.0008797 14.602459,1.0002336 8,1.0002336 c -6.6024593,0 -6.6729347,6.463e-4 -6.7737231,0.062098 C 1.1702604,1.0964848 1.0964848,1.1702604 1.0623312,1.2262769 1.0008797,1.3270653 1.0002336,1.3975407 1.0002336,8 c 0,6.602459 6.463e-4,6.672935 0.062098,6.773723 0.034154,0.05602 0.1079292,0.129792 0.1639457,0.163946 0.1007884,0.06145 0.1712638,0.0621 6.7737231,0.0621 6.6024586,0 6.6729346,-6.47e-4 6.7737226,-0.0621 z M 2,8 V 2 h 6 6 v 6 6 H 8 2 Z m 10.749709,4.942021 C 12.880488,12.871883 13,12.660822 13,12.5 13,12.339178 12.880488,12.128117 12.749709,12.057979 12.645797,12.002251 12.461052,12 7.9911231,12 c -3.9331075,0 -4.663494,0.0068 -4.7348625,0.04391 -0.2156914,0.112224 -0.3252073,0.362082 -0.2581246,0.588907 0.044709,0.151172 0.1020093,0.226132 0.236239,0.309044 0.090172,0.0557 0.2714881,0.05791 4.7504875,0.05803 4.4761495,1.25e-4 4.6609295,-0.0021 4.7648465,-0.05786 z m 0,-2 C 12.880488,10.871883 13,10.660822 13,10.5 13,10.339178 12.880488,10.128117 12.749709,10.057979 12.645797,10.002251 12.461052,10 7.9911231,10 c -3.9331075,0 -4.663494,0.0068 -4.7348625,0.04391 -0.2156914,0.112224 -0.3252073,0.362082 -0.2581246,0.588907 0.044709,0.151172 0.1020093,0.226132 0.236239,0.309044 0.090172,0.0557 0.2714881,0.05791 4.7504875,0.05803 4.4761495,1.25e-4 4.6609295,-0.0021 4.7648465,-0.05786 z"
       id="path823"
       inkscape:connector-curvature="0" />
    <path
       style="fill:#fefefe;stroke-width:0.000357143"
       d="M 3.234375,12.941857 C 3.1001453,12.858945 3.0428448,12.783985 2.998136,12.632813 2.9310533,12.405988 3.0405692,12.15613 3.2562606,12.043906 3.3276291,12.006773 4.0580156,12 7.9911231,12 12.461052,12 12.645797,12.0023 12.749709,12.05798 12.880488,12.128117 13,12.339178 13,12.5 c 0,0.160822 -0.119512,0.371883 -0.250291,0.442021 -0.103916,0.05573 -0.288697,0.05797 -4.7648465,0.05786 -4.4789994,-1.25e-4 -4.6603156,-0.0023 -4.7504875,-0.05803 z m 0,-2 C 3.1001453,10.858945 3.0428448,10.783985 2.998136,10.632813 2.9310533,10.405988 3.0405692,10.15613 3.2562606,10.043906 3.3276291,10.006773 4.0580156,10 7.9911231,10 12.461052,10 12.645797,10.0023 12.749709,10.05798 12.880488,10.128117 13,10.339178 13,10.5 c 0,0.160822 -0.119512,0.371883 -0.250291,0.442021 -0.103916,0.05573 -0.288697,0.05797 -4.7648465,0.05786 -4.4789994,-1.25e-4 -4.6603156,-0.0023 -4.7504875,-0.05803 z"
       id="path821"
       inkscape:connector-curvature="0" />
    <path
       style="fill:#c5c5c5;stroke-width:0.000357143"
       d="M 1.2262769,14.937669 C 1.1702604,14.903515 1.0964848,14.82974 1.0623312,14.773723 1.0008797,14.672935 1.0002336,14.602459 1.0002336,8 c 0,-6.6024593 6.463e-4,-6.6729347 0.062098,-6.7737231 C 1.0964848,1.1702604 1.1702604,1.0964848 1.2262769,1.0623312 1.3270653,1.0008797 1.3975407,1.0002336 8,1.0002336 c 6.602459,0 6.672935,6.463e-4 6.773723,0.062098 0.05602,0.034154 0.129792,0.1079292 0.163946,0.1639457 0.06145,0.1007884 0.0621,0.1712638 0.0621,6.7737231 0,6.6024586 -6.47e-4,6.6729346 -0.0621,6.7737226 -0.03415,0.05602 -0.107929,0.129792 -0.163946,0.163946 -0.100788,0.06145 -0.171264,0.0621 -6.773723,0.0621 -6.6024593,0 -6.6729347,-6.47e-4 -6.7737231,-0.0621 z M 14,8 V 2 H 8 2 v 6 6 h 6 6 z"
       id="path819"
       inkscape:connector-curvature="0" />
  </g>
</svg>
