<?xml version="1.0" encoding="UTF-8" standalone="no"?>
<!-- Created with Inkscape (http://www.inkscape.org/) -->

<svg
   version="1.1"
   id="svg2"
   width="1600"
   height="1600"
   viewBox="0 0 1600 1600"
   sodipodi:docname="align_x.svg"
   inkscape:version="1.4.3 (0d15f75042, 2025-12-25)"
   xmlns:inkscape="http://www.inkscape.org/namespaces/inkscape"
   xmlns:sodipodi="http://sodipodi.sourceforge.net/DTD/sodipodi-0.dtd"
   xmlns="http://www.w3.org/2000/svg"
   xmlns:svg="http://www.w3.org/2000/svg"
   xmlns:rdf="http://www.w3.org/1999/02/22-rdf-syntax-ns#"
   xmlns:cc="http://creativecommons.org/ns#"
   xmlns:dc="http://purl.org/dc/elements/1.1/">
  <metadata
     id="metadata8">
    <rdf:RDF>
      <cc:Work
         rdf:about="">
        <dc:format>image/svg+xml</dc:format>
        <dc:type
           rdf:resource="http://purl.org/dc/dcmitype/StillImage" />
      </cc:Work>
    </rdf:RDF>
  </metadata>
  <defs
     id="defs6" />
  <sodipodi:namedview
     pagecolor="#808080"
     bordercolor="#666666"
     borderopacity="1"
     objecttolerance="10"
     gridtolerance="10"
     guidetolerance="10"
     inkscape:pageopacity="0"
     inkscape:pageshadow="2"
     inkscape:window-width="1993"
     inkscape:window-height="1009"
     id="namedview4"
     showgrid="false"
     inkscape:zoom="0.11523438"
     inkscape:cx="-2668.4745"
     inkscape:cy="1197.5593"
     inkscape:window-x="-8"
     inkscape:window-y="-8"
     inkscape:window-maximized="1"
     inkscape:current-layer="ALIGN_X"
     inkscape:showpageshadow="0"
     inkscape:pagecheckerboard="true"
     inkscape:deskcolor="#d1d1d1" />
  <g
     id="ALIGN_X"
     transform="matrix(100,0,0,100,0,4.9999997e-5)"
     style="stroke-width:0.0114286">
    <path
       style="fill:none;stroke-width:0.000357143"
       d="M 1,7.9999995 V -4.9999997e-7 H 8.5 16 V 7.9999995 16 H 8.5 1 Z m 3.177653,6.5292625 c 0.125069,-0.04725 0.258241,-0.180645 0.325601,-0.326137 0.05113,-0.110427 0.05795,-0.211524 0.05856,-0.867187 l 6.9e-4,-0.742188 H 6.28125 8 V 12 11.40625 H 6.28125 4.5625 V 10.642659 C 4.5625,9.8331565 4.55229,9.7633045 4.412074,9.6133385 4.253039,9.4432455 3.960786,9.3857055 3.741184,9.4812515 3.61205,9.5374355 1.482469,11.674064 1.438957,11.791097 c -0.04197,0.112878 -0.04197,0.33618 10e-7,0.449056 0.04138,0.11131 2.137864,2.219977 2.264167,2.27733 0.113231,0.05142 0.353812,0.05739 0.474528,0.01178 z m 0,-8.0000005 c 0.125069,-0.047254 0.258241,-0.180645 0.325601,-0.326137 0.05113,-0.110428 0.05795,-0.2115244 0.05856,-0.8671875 l 6.9e-4,-0.7421875 H 6.28125 8 v -0.59375 -0.59375 H 6.28125 4.5625 V 2.6426589 C 4.5625,1.8331566 4.55229,1.7633047 4.412074,1.6133382 4.253039,1.4432451 3.960786,1.3857054 3.741184,1.4812511 3.61205,1.5374351 1.482469,3.6740636 1.438957,3.7910964 c -0.04197,0.1128784 -0.04197,0.3361797 10e-7,0.4490562 0.04138,0.11131 2.137864,2.2199769 2.264167,2.2773299 0.113231,0.051417 0.353812,0.057389 0.474528,0.011779 z"
       id="path821"
       inkscape:connector-curvature="0" />
    <path
       style="fill:#fefefe;stroke-width:0.000357143"
       d="M 0,7.9999995 V -4.9999997e-7 H 0.5 1 V 7.9999995 16 H 0.5 0 Z M 3.703125,14.517483 C 3.576822,14.460133 1.480343,12.351463 1.438958,12.240153 1.396988,12.127277 1.396988,11.903975 1.438957,11.791097 1.482467,11.674064 3.61205,9.5374355 3.741184,9.4812515 3.960786,9.3857055 4.253039,9.4432455 4.412074,9.6133385 4.552292,9.7633045 4.5625,9.8331565 4.5625,10.642659 V 11.40625 H 6.28125 8 V 12 12.59375 H 6.28125 4.5625 l -6.9e-4,0.742188 c -6.1e-4,0.655663 -0.0074,0.75676 -0.05856,0.867187 -0.06736,0.145492 -0.200532,0.278883 -0.325601,0.326137 -0.120715,0.04561 -0.361297,0.03964 -0.474528,-0.01178 z m 0,-8.0000005 C 3.576822,6.4601295 1.480343,4.3514626 1.438958,4.2401526 1.396988,4.1272761 1.396988,3.9039748 1.438957,3.7910964 1.482467,3.6740636 3.61205,1.5374353 3.741184,1.4812511 3.960786,1.3857051 4.253039,1.4432451 4.412074,1.6133382 4.552292,1.7633047 4.5625,1.8331566 4.5625,2.6426589 V 3.4062495 H 6.28125 8 v 0.59375 0.59375 H 6.28125 4.5625 L 4.56181,5.335937 C 4.5612,5.9916001 4.55441,6.0926965 4.50325,6.2031245 4.43589,6.3486165 4.302718,6.4820075 4.177649,6.5292615 4.056934,6.5748715 3.816352,6.5688995 3.703122,6.5174825 Z"
       id="path819"
       inkscape:connector-curvature="0" />
  </g>
</svg>
