<?xml version="1.0" encoding="UTF-8" standalone="no"?>
<!-- Created with Inkscape (http://www.inkscape.org/) -->

<svg
   version="1.1"
   id="svg2"
   width="1600"
   height="1600"
   viewBox="0 0 1600 1600"
   sodipodi:docname="anchor_top.svg"
   inkscape:version="1.2.2 (732a01da63, 2022-12-09)"
   xmlns:inkscape="http://www.inkscape.org/namespaces/inkscape"
   xmlns:sodipodi="http://sodipodi.sourceforge.net/DTD/sodipodi-0.dtd"
   xmlns="http://www.w3.org/2000/svg"
   xmlns:svg="http://www.w3.org/2000/svg"
   xmlns:rdf="http://www.w3.org/1999/02/22-rdf-syntax-ns#"
   xmlns:cc="http://creativecommons.org/ns#"
   xmlns:dc="http://purl.org/dc/elements/1.1/">
  <metadata
     id="metadata8">
    <rdf:RDF>
      <cc:Work
         rdf:about="">
        <dc:format>image/svg+xml</dc:format>
        <dc:type
           rdf:resource="http://purl.org/dc/dcmitype/StillImage" />
      </cc:Work>
    </rdf:RDF>
  </metadata>
  <defs
     id="defs6" />
  <sodipodi:namedview
     pagecolor="#808080"
     bordercolor="#666666"
     borderopacity="1"
     objecttolerance="10"
     gridtolerance="10"
     guidetolerance="10"
     inkscape:pageopacity="0"
     inkscape:pageshadow="2"
     inkscape:window-width="1993"
     inkscape:window-height="1009"
     id="namedview4"
     showgrid="false"
     inkscape:zoom="0.65186407"
     inkscape:cx="-187.92262"
     inkscape:cy="-53.692176"
     inkscape:window-x="-8"
     inkscape:window-y="-8"
     inkscape:window-maximized="1"
     inkscape:current-layer="ANCHOR_TOP"
     inkscape:showpageshadow="0"
     inkscape:pagecheckerboard="true"
     inkscape:deskcolor="#d1d1d1" />
  <g
     id="ANCHOR_TOP"
     transform="matrix(100,0,0,100,0,4.9999997e-5)"
     style="stroke-width:0.0114286">
    <path
       style="fill:none;stroke-width:0.000357143"
       d="M 0,8 V 0 h 8 8 v 8 8 H 8 0 Z m 14.773723,6.937669 c 0.15249,-0.09297 0.226043,-0.235389 0.226043,-0.437669 0,-0.20228 -0.07355,-0.344694 -0.226043,-0.437669 -0.100787,-0.06145 -0.17137,-0.0621 -6.7742814,-0.06221 L 1.3270084,14 1.2148454,14.07622 c -0.28718721,0.195149 -0.28718721,0.652417 0,0.847566 L 1.3270084,15 7.9994416,14.999875 c 6.6029114,-1.25e-4 6.6734944,-7.63e-4 6.7742814,-0.06221 z m 0,-3 c 0.15249,-0.09297 0.226043,-0.235389 0.226043,-0.437669 0,-0.20228 -0.07355,-0.344694 -0.226043,-0.437669 -0.100787,-0.06145 -0.17137,-0.0621 -6.7742814,-0.06221 L 1.3270084,11 1.2148454,11.07622 c -0.28718721,0.195149 -0.28718721,0.652417 0,0.847566 L 1.3270084,12 7.9994416,11.999875 c 6.6029114,-1.25e-4 6.6734944,-7.63e-4 6.7742814,-0.06221 z m 0,-3.0000002 C 14.926213,8.8446944 14.999766,8.7022797 14.999766,8.5 c 0,-0.2022797 -0.07355,-0.3446944 -0.226043,-0.4376687 -0.100787,-0.061451 -0.17137,-0.062099 -6.7742814,-0.062214 L 1.3270084,8 1.2148454,8.0762169 c -0.28718721,0.1951487 -0.28718721,0.6524175 0,0.8475662 L 1.3270084,9 7.9994416,8.999875 C 14.602353,8.99975 14.672936,8.9991125 14.773723,8.9376606 Z M 5.0582391,5.7237053 C 4.9144887,5.5717434 4.7335937,5.3475684 4.65625,5.2255387 L 4.515625,5.0036666 2.9213167,5.0018322 1.3270084,5 1.2148454,5.0762169 c -0.28718721,0.1951487 -0.28718721,0.6524175 0,0.8475662 L 1.3270084,6 H 3.3233059 5.3196031 Z M 14.773723,5.9376687 C 14.926213,5.8446944 14.999766,5.7022797 14.999766,5.5 c 0,-0.2022797 -0.07355,-0.3446944 -0.226043,-0.4376688 -0.09822,-0.059883 -0.158679,-0.062036 -1.695598,-0.060381 l -1.59375,0.00172 -0.140625,0.2218722 C 11.26641,5.3475721 11.085511,5.5717471 10.941761,5.723709 L 10.680397,6 12.676136,5.999875 c 1.936316,-1.25e-4 1.998772,-0.00197 2.097587,-0.062214 z M 8.421875,4.9531453 C 9.3214828,4.7649184 9.9989147,3.9259269 9.9989147,3 9.9989147,1.9092424 9.0907575,1.0010852 8,1.0010852 c -0.7409122,0 -1.4542134,0.4390405 -1.7769522,1.0937226 -0.2954,0.5992253 -0.2954,1.2111591 0,1.8103844 0.3931413,0.7974956 1.3092084,1.2340897 2.1988272,1.0479531 z M 4.0000428,2.7890625 C 4.0000662,2.6730469 4.0211406,2.4585938 4.046875,2.3125 4.0726094,2.1664063 4.0936837,2.0363281 4.0937072,2.0234375 4.0937306,2.0105469 3.4712331,2 2.7103792,2 H 1.3270084 l -0.112163,0.076217 c -0.28718721,0.1951488 -0.28718721,0.6524178 0,0.8475666 L 1.3270084,3 H 2.6635042 4 l 3.12e-5,-0.2109375 z M 14.773723,2.9376688 C 14.926213,2.8446944 14.999766,2.7022798 14.999766,2.5 c 0,-0.2022798 -0.07355,-0.3446944 -0.226043,-0.4376688 -0.09757,-0.059489 -0.159949,-0.062102 -1.48466,-0.062214 -0.760547,-6.56e-5 -1.382794,0.01043 -1.38277,0.023321 2.3e-5,0.012891 0.0211,0.1429688 0.04683,0.2890625 0.02573,0.1460938 0.04681,0.3605469 0.04683,0.4765625 L 12,3 13.335938,2.9998844 c 1.277937,-1.125e-4 1.340359,-0.00281 1.437785,-0.062214 z"
       id="path823"
       inkscape:connector-curvature="0" />
    <path
       style="fill:#fefefe;stroke-width:0.000357143"
       d="M 1.2148454,14.923783 C 1.0787406,14.831298 1,14.675982 1,14.5 1,14.324018 1.0787406,14.168702 1.2148454,14.076217 L 1.3270084,14 l 6.6724332,1.25e-4 c 6.6029114,1.25e-4 6.6734944,7.63e-4 6.7742814,0.06221 0.15249,0.09298 0.226043,0.235389 0.226043,0.437669 0,0.20228 -0.07355,0.344695 -0.226043,0.437669 -0.100787,0.06145 -0.17137,0.0621 -6.7742814,0.06221 L 1.3270084,15 Z m 0,-3 C 1.0787406,11.831298 1,11.675982 1,11.5 1,11.324018 1.0787406,11.168702 1.2148454,11.076217 L 1.3270084,11 l 6.6724332,1.25e-4 c 6.6029114,1.25e-4 6.6734944,7.63e-4 6.7742814,0.06221 0.15249,0.09298 0.226043,0.235389 0.226043,0.437669 0,0.20228 -0.07355,0.344695 -0.226043,0.437669 -0.100787,0.06145 -0.17137,0.0621 -6.7742814,0.06221 L 1.3270084,12 Z m 0,-2.9999999 C 1.0787406,8.8312978 1,8.6759816 1,8.5 1,8.3240184 1.0787406,8.1687022 1.2148454,8.0762169 L 1.3270084,8 7.9994416,8.000125 c 6.6029114,1.25e-4 6.6734944,7.625e-4 6.7742814,0.062214 0.15249,0.092974 0.226043,0.235389 0.226043,0.4376687 0,0.2022797 -0.07355,0.3446944 -0.226043,0.4376688 -0.100787,0.061451 -0.17137,0.062099 -6.7742814,0.062214 L 1.3270084,9 Z m 0,-3 c -0.28718721,-0.1951487 -0.28718721,-0.6524175 0,-0.8475662 L 1.3270084,5 2.9213167,5.00183 4.515625,5.00366 4.65625,5.2255322 C 4.733594,5.3475619 4.9144887,5.5717369 5.0582391,5.7236988 L 5.3196031,6 H 3.3233059 1.3270084 Z M 10.941761,5.7237053 c 0.14375,-0.1519619 0.324645,-0.3761369 0.401989,-0.4981666 l 0.140625,-0.2218721 1.59375,-0.00172 c 1.536919,-0.00166 1.597382,4.969e-4 1.695598,0.060381 0.15249,0.092974 0.226043,0.2353891 0.226043,0.4376687 0,0.2022797 -0.07355,0.3446944 -0.226043,0.4376688 -0.09882,0.060249 -0.161271,0.062101 -2.097587,0.062214 L 10.680397,6 Z M 1.2148454,2.9237833 c -0.28718721,-0.1951488 -0.28718721,-0.6524178 0,-0.8475666 L 1.3270084,2 H 2.7103792 C 3.4712331,2 4.0937306,2.010547 4.0937072,2.023437 4.0936837,2.0363281 4.0726094,2.1664063 4.046875,2.3125 4.0211406,2.4585938 4.0000662,2.6730469 4.0000428,2.7890625 L 4,3 H 2.6635042 1.3270084 Z M 11.999957,2.7890625 c -2.3e-5,-0.1160156 -0.0211,-0.3304687 -0.04683,-0.4765625 -0.02573,-0.1460937 -0.04681,-0.2761719 -0.04683,-0.2890625 -2.4e-5,-0.012891 0.622223,-0.023385 1.38277,-0.023321 1.324711,1.125e-4 1.387091,0.00273 1.48466,0.062214 0.15249,0.092974 0.226043,0.235389 0.226043,0.4376688 0,0.2022798 -0.07355,0.3446944 -0.226043,0.4376688 -0.09743,0.059402 -0.159848,0.062103 -1.437785,0.062214 L 12,3 11.999969,2.7890625 Z"
       id="path821"
       inkscape:connector-curvature="0" />
    <path
       style="fill:#fefe00;stroke-width:0.000357143"
       d="M 7.5625,4.9514053 C 6.8323191,4.7945809 6.2007041,4.1571794 6.0468547,3.421875 5.8215506,2.3450608 6.5151619,1.2692608 7.578125,1.0468547 8.8218928,0.78661856 9.9989147,1.7362651 9.9989147,3 c 0,1.2683769 -1.1876531,2.2196075 -2.4364147,1.9514053 z"
       id="path819"
       inkscape:connector-curvature="0" />
  </g>
</svg>
