<?xml version="1.0" encoding="UTF-8" standalone="no"?>
<!-- Created with Inkscape (http://www.inkscape.org/) -->

<svg
   version="1.1"
   id="svg2"
   width="1600"
   height="1600"
   viewBox="0 0 1600 1600"
   sodipodi:docname="anim_data.svg"
   inkscape:version="1.2.2 (732a01da63, 2022-12-09)"
   xmlns:inkscape="http://www.inkscape.org/namespaces/inkscape"
   xmlns:sodipodi="http://sodipodi.sourceforge.net/DTD/sodipodi-0.dtd"
   xmlns="http://www.w3.org/2000/svg"
   xmlns:svg="http://www.w3.org/2000/svg"
   xmlns:rdf="http://www.w3.org/1999/02/22-rdf-syntax-ns#"
   xmlns:cc="http://creativecommons.org/ns#"
   xmlns:dc="http://purl.org/dc/elements/1.1/">
  <metadata
     id="metadata8">
    <rdf:RDF>
      <cc:Work
         rdf:about="">
        <dc:format>image/svg+xml</dc:format>
        <dc:type
           rdf:resource="http://purl.org/dc/dcmitype/StillImage" />
      </cc:Work>
    </rdf:RDF>
  </metadata>
  <defs
     id="defs6" />
  <sodipodi:namedview
     pagecolor="#808080"
     bordercolor="#666666"
     borderopacity="1"
     objecttolerance="10"
     gridtolerance="10"
     guidetolerance="10"
     inkscape:pageopacity="0"
     inkscape:pageshadow="2"
     inkscape:window-width="1993"
     inkscape:window-height="1009"
     id="namedview4"
     showgrid="false"
     inkscape:zoom="0.65186407"
     inkscape:cx="-117.35576"
     inkscape:cy="184.08746"
     inkscape:window-x="-8"
     inkscape:window-y="-8"
     inkscape:window-maximized="1"
     inkscape:current-layer="ANIM_DATA"
     inkscape:showpageshadow="0"
     inkscape:pagecheckerboard="true"
     inkscape:deskcolor="#d1d1d1" />
  <g
     id="ANIM_DATA"
     transform="matrix(100,0,0,100,0,4.9999997e-5)"
     style="stroke-width:0.0114286">
    <path
       style="fill:none;stroke-width:0.000357143"
       d="M 0,8 V 0 h 8 8 v 8 8 H 8 0 Z m 6.4496612,6.568708 c 0.2831991,-0.132525 0.465481,-0.311628 0.6055038,-0.594945 0.1113775,-0.225357 0.11671,-0.250499 0.11671,-0.550267 0,-0.290603 -0.00773,-0.330443 -0.1032306,-0.532132 C 6.9826481,12.70975 6.89158,12.598885 6.5231641,12.227302 l -0.44225,-0.446052 0.7173556,-3.38e-4 c 1.3365875,-6.28e-4 2.6630416,-0.109415 3.4829803,-0.285649 0.738318,-0.158691 1.612037,-0.526309 2.06672,-0.869574 0.280624,-0.211859 0.673076,-0.6338206 0.816852,-0.8782759 0.06487,-0.1102962 0.162392,-0.3341322 0.216714,-0.4974134 0.09281,-0.278965 0.09886,-0.3251541 0.100348,-0.765625 0.0013,-0.39874 -0.0091,-0.5060041 -0.07017,-0.7181828 C 13.316634,7.435645 13.134231,7.0522837 12.914995,6.7222197 12.684537,6.3752606 12.017203,5.6895434 11.59375,5.3645775 10.593108,4.5966669 10.085992,3.80805 10.356798,3.4409938 c 0.289891,-0.3929255 1.071137,-0.6493796 2.036564,-0.6685285 0.413184,-0.0082 0.445123,-0.013487 0.643501,-0.1066231 0.289849,-0.1360804 0.47123,-0.3133945 0.612052,-0.5983291 0.111498,-0.2256003 0.11671,-0.2502477 0.11671,-0.5518881 0,-0.3016404 -0.0052,-0.3262878 -0.11671,-0.55188806 C 13.508255,0.67913003 13.32651,0.50126956 13.038746,0.36660844 12.857702,0.28188777 12.789788,0.26807464 12.494474,0.25590722 11.561096,0.21745046 10.458467,0.44237231 9.6763816,0.83076128 8.5068656,1.4115512 7.82639,2.3596608 7.7606206,3.5 7.7161525,4.2710062 7.93457,4.9930812 8.4415016,5.7509522 8.6891375,6.1211719 9.4156303,6.8713084 9.8692837,7.2252009 10.052013,7.3677466 10.305101,7.5828125 10.431703,7.703125 c 0.242305,0.2302684 0.537047,0.6351187 0.537047,0.7376744 0,0.081777 -0.310967,0.2799537 -0.636111,0.4053897 C 9.6117372,9.1243025 8.5714512,9.2491344 6.97006,9.2496909 L 6.080745,9.2500034 6.5541994,8.77298 C 6.9532953,8.370875 7.0438866,8.2616731 7.1310141,8.0776675 7.2266625,7.8756662 7.234375,7.83594 7.234375,7.5452578 7.234375,7.2454891 7.229045,7.2203475 7.117665,6.9949903 6.9770984,6.7105734 6.7961416,6.53341 6.5056128,6.3957697 6.3142322,6.3051016 6.2708897,6.2969159 5.984375,6.2973281 5.4241722,6.2981344 5.5273919,6.2187584 3.6312209,8.1068975 2.0913235,9.6402722 1.9901329,9.7478372 1.881221,9.9671328 1.7708739,10.189318 1.7656454,10.21415 1.7660746,10.514008 c 8.034e-4,0.561334 -0.075043,0.462247 1.7764301,2.320731 1.6518109,1.658066 1.7422128,1.737528 2.0705497,1.819995 0.066726,0.01676 0.2367675,0.02555 0.377869,0.01953 0.2053575,-0.0088 0.2968932,-0.02982 0.4587378,-0.105556 z"
       id="path823"
       inkscape:connector-curvature="0" />
    <path
       style="fill:#fefefe;stroke-width:0.000357143"
       d="m 5.7603744,14.158685 c -0.05445,-0.01361 -0.1599191,-0.06121 -0.234375,-0.10579 C 5.3207853,13.930036 2.4297651,11.016055 2.3421409,10.84375 2.2377883,10.63855 2.2425735,10.376289 2.3544114,10.171245 2.4717188,9.9561725 5.4564906,6.9750187 5.65625,6.8734081 5.9908366,6.7032159 6.41676,6.827145 6.6137378,7.1520047 6.7778581,7.4226753 6.7780212,7.6714959 6.6142566,7.9444206 6.5701316,8.0179581 6.1607475,8.4498184 5.7045144,8.9041106 5.2482819,9.3584028 4.875,9.7359569 4.875,9.74312 4.875,9.75028 5.7082031,9.74929 6.7265625,9.74091 8.7041147,9.7246341 8.9317756,9.7099894 9.7347794,9.5473997 10.643537,9.3633969 11.31399,9.0092944 11.455577,8.6385534 11.52538,8.4557766 11.483333,8.2489609 11.319264,7.9680856 11.161898,7.6986841 10.684153,7.2061012 10.28309,6.8997284 9.8187169,6.5449937 9.1235884,5.8375509 8.8791884,5.4709562 8.6323875,5.1007606 8.5223547,4.8832003 8.4074406,4.5382037 8.0153231,3.36098 8.4174363,2.2649956 9.5200716,1.5056613 9.7100709,1.3748175 10.237607,1.1303501 10.53125,1.0370676 11.11228,0.85249 12.161652,0.71045219 12.563823,0.76194866 c 0.3462,0.0443295 0.612065,0.27811914 0.689292,0.60613104 0.0685,0.2909593 -0.09424,0.6415187 -0.369329,0.7955393 -0.154702,0.086618 -0.185234,0.091842 -0.59375,0.1015846 -0.962388,0.022952 -1.767501,0.2815079 -2.202747,0.7073955 C 9.8459031,3.208795 9.7683884,3.3833303 9.7697866,3.6875 c 0.0013,0.2833763 0.093671,0.5458991 0.3107644,0.8832325 0.183172,0.2846228 0.797574,0.8987362 1.231949,1.2313694 0.629343,0.4819343 1.192449,1.142519 1.450453,1.7015397 0.167744,0.363454 0.217698,0.590014 0.216238,0.9807334 -0.0011,0.2857716 -0.0154,0.3870466 -0.085,0.6004534 -0.350773,1.0756346 -1.592482,1.7877416 -3.581695,2.0540636 -0.6528294,0.0874 -1.3100384,0.118973 -2.8851316,0.138591 l -1.5570065,0.01939 0.8008225,0.796875 c 0.4404522,0.438281 0.8368172,0.857042 0.8808109,0.930579 0.1635131,0.273319 0.1632753,0.52189 -7.562e-4,0.792416 -0.157541,0.25982 -0.5098932,0.412164 -0.7908635,0.34194 z"
       id="path821"
       inkscape:connector-curvature="0" />
    <path
       style="fill:#323232;stroke-width:0.000357143"
       d="M 5.6130544,14.654731 C 5.2847175,14.572264 5.1943156,14.492802 3.5425047,12.834736 1.6910315,10.976252 1.7668781,11.075338 1.7660746,10.514004 1.7656455,10.214147 1.7708739,10.189315 1.881221,9.9671294 1.9901329,9.7478337 2.0913235,9.6402687 3.6312209,8.1068941 5.5273919,6.218755 5.4241722,6.2981306 5.984375,6.2973247 c 0.2865147,-4.125e-4 0.3298572,0.00777 0.5212378,0.098441 0.2905288,0.1376404 0.4714856,0.3148038 0.6120522,0.5992207 0.1113775,0.2253572 0.11671,0.2504987 0.11671,0.5502675 0,0.2906822 -0.00771,0.3304084 -0.1033609,0.5324097 -0.087127,0.1840061 -0.1777188,0.293208 -0.5768147,0.695313 L 6.080745,9.25 6.97006,9.2496875 C 8.5714513,9.2491313 9.6117372,9.1242991 10.332639,8.8461856 10.657783,8.7207531 10.96875,8.5225759 10.96875,8.4407994 10.96875,8.3382438 10.674008,7.9333934 10.431703,7.703125 10.305101,7.5828125 10.052013,7.3677466 9.8692837,7.2252009 9.1660528,6.6766141 8.4411666,5.8467959 8.1362344,5.2412812 7.2670828,3.5153766 7.8957612,1.7150298 9.6763816,0.83076128 10.458467,0.44237231 11.561096,0.21745046 12.494474,0.25590722 c 0.295314,0.0121674 0.363228,0.0259805 0.544272,0.11070122 0.287764,0.13466112 0.469509,0.31252159 0.610169,0.5971285 0.111498,0.22560026 0.11671,0.25024766 0.11671,0.55188806 0,0.3016404 -0.0052,0.3262878 -0.11671,0.5518881 -0.140822,0.2849346 -0.322203,0.4622487 -0.612052,0.5983291 -0.198378,0.093136 -0.230317,0.098428 -0.643501,0.1066231 -0.965427,0.019149 -1.746673,0.275603 -2.036565,0.6685285 -0.270805,0.3670562 0.236311,1.1556731 1.236953,1.9235837 0.423453,0.3249659 1.090787,1.0106831 1.321245,1.3576425 0.219236,0.3300641 0.401639,0.7134253 0.49672,1.0439722 0.06103,0.2121787 0.07151,0.3194428 0.07017,0.7181828 -0.0015,0.4404709 -0.0075,0.48666 -0.100348,0.765625 -0.05432,0.1632813 -0.151844,0.3871172 -0.216714,0.4974134 -0.143776,0.2444554 -0.536228,0.6664176 -0.816852,0.8782766 -0.454683,0.343264 -1.328402,0.710882 -2.06672,0.869573 -0.8199387,0.176235 -2.1463928,0.285021 -3.4829803,0.28565 l -0.7173556,3.37e-4 0.44225,0.446052 c 0.3684159,0.371583 0.459484,0.482448 0.5454803,0.664062 0.095502,0.201689 0.1032306,0.241529 0.1032306,0.532132 0,0.299768 -0.00533,0.32491 -0.11671,0.550267 -0.2145156,0.434043 -0.5885159,0.680215 -1.0642416,0.7005 -0.1411015,0.006 -0.3111428,-0.0028 -0.377869,-0.01953 z M 6.296875,14.065053 C 6.5645872,13.91685 6.7271503,13.56224 6.6593647,13.274329 6.6072325,13.052903 6.4683787,12.887015 5.6711844,12.09375 l -0.8008225,-0.796875 1.5570065,-0.01939 c 1.5750932,-0.01962 2.2323022,-0.05119 2.8851316,-0.138591 1.989213,-0.266322 3.230922,-0.978429 3.581695,-2.0540636 0.06959,-0.2134068 0.08393,-0.3146818 0.085,-0.6004534 0.0015,-0.3907194 -0.04849,-0.6172794 -0.216238,-0.9807334 C 12.504949,6.9446209 11.941843,6.2840362 11.3125,5.8021019 10.878125,5.4694687 10.263723,4.8553553 10.080551,4.5707325 9.8634575,4.2333991 9.7710891,3.9708763 9.7697866,3.6875 c -0.0014,-0.3041697 0.076116,-0.478705 0.3175024,-0.7149012 0.435246,-0.4258876 1.240359,-0.6844437 2.202747,-0.7073955 0.408516,-0.00974 0.439048,-0.014966 0.59375,-0.1015846 0.275085,-0.1540206 0.437832,-0.50458 0.369329,-0.7955393 C 13.175888,1.0400675 12.910023,0.80627781 12.563823,0.76194834 12.161652,0.71045187 11.11228,0.85248969 10.53125,1.0370673 10.237607,1.1303498 9.7100709,1.3748172 9.5200716,1.505661 8.5963444,2.1417896 8.1495441,3.0408012 8.2804088,4 8.3865272,4.7778137 8.7634144,5.4517809 9.5143813,6.2066466 9.7556903,6.4492084 10.101609,6.761095 10.28309,6.8997281 c 0.401063,0.3063728 0.878808,0.7989556 1.036174,1.0683572 0.164068,0.2808753 0.206116,0.487691 0.136313,0.6704678 C 11.31399,9.0092941 10.643537,9.3633966 9.7347794,9.5473994 8.9317756,9.7099891 8.7041147,9.7246337 6.7265625,9.7409072 5.7082031,9.7492875 4.875,9.7502831 4.875,9.7431197 4.875,9.7359566 5.2482819,9.3584025 5.704515,8.9041103 6.1607481,8.4498181 6.5701322,8.0179578 6.6142572,7.9444203 6.7780212,7.6714956 6.7778581,7.422675 6.6137384,7.1520044 6.41676,6.827145 5.9908366,6.7032159 5.65625,6.8734081 5.4564906,6.9750187 2.4717188,9.9561725 2.3544114,10.171245 2.2425735,10.376289 2.2377883,10.63855 2.3421409,10.84375 c 0.087624,0.172305 2.9786444,3.086286 3.1838585,3.209145 0.2617887,0.156729 0.5028565,0.160532 0.7708756,0.01216 z"
       id="path819"
       inkscape:connector-curvature="0" />
  </g>
</svg>
