<?xml version="1.0" encoding="UTF-8" standalone="no"?>
<!-- Created with Inkscape (http://www.inkscape.org/) -->

<svg
   version="1.1"
   id="svg2"
   width="1600"
   height="1600"
   viewBox="0 0 1600 1600"
   sodipodi:docname="applyall.svg"
   inkscape:version="1.2.2 (732a01da63, 2022-12-09)"
   xmlns:inkscape="http://www.inkscape.org/namespaces/inkscape"
   xmlns:sodipodi="http://sodipodi.sourceforge.net/DTD/sodipodi-0.dtd"
   xmlns="http://www.w3.org/2000/svg"
   xmlns:svg="http://www.w3.org/2000/svg"
   xmlns:rdf="http://www.w3.org/1999/02/22-rdf-syntax-ns#"
   xmlns:cc="http://creativecommons.org/ns#"
   xmlns:dc="http://purl.org/dc/elements/1.1/">
  <metadata
     id="metadata8">
    <rdf:RDF>
      <cc:Work
         rdf:about="">
        <dc:format>image/svg+xml</dc:format>
        <dc:type
           rdf:resource="http://purl.org/dc/dcmitype/StillImage" />
      </cc:Work>
    </rdf:RDF>
  </metadata>
  <defs
     id="defs6" />
  <sodipodi:namedview
     pagecolor="#808080"
     bordercolor="#666666"
     borderopacity="1"
     objecttolerance="10"
     gridtolerance="10"
     guidetolerance="10"
     inkscape:pageopacity="0"
     inkscape:pageshadow="2"
     inkscape:window-width="1993"
     inkscape:window-height="1009"
     id="namedview4"
     showgrid="false"
     inkscape:zoom="0.32593203"
     inkscape:cx="329.82337"
     inkscape:cy="803.84857"
     inkscape:window-x="-8"
     inkscape:window-y="-8"
     inkscape:window-maximized="1"
     inkscape:current-layer="APPLYALL"
     inkscape:showpageshadow="0"
     inkscape:pagecheckerboard="true"
     inkscape:deskcolor="#d1d1d1" />
  <g
     id="APPLYALL"
     transform="matrix(100,0,0,100,0,4.9999997e-5)"
     style="stroke-width:0.0114286">
    <path
       style="fill:none;stroke-width:0.000357143"
       d="M 0,8 V 0 h 8 8 v 8 8 H 8 0 Z m 6.03125,7.236923 V 14.723846 L 5.8203125,14.653969 C 4.7393612,14.295884 3.7671613,13.682719 2.96875,12.855494 2.1970632,12.055958 1.6810547,11.186989 1.2963041,10.039063 1.2865377,10.009924 1.1524725,10 0.76859666,10 H 0.25398179 l 0.058498,0.210938 c 0.18088988,0.65227 0.60007384,1.566917 0.99179211,2.164062 0.5953932,0.907632 1.4130962,1.725335 2.3207281,2.320728 0.4112938,0.269803 1.1938731,0.661458 1.6374909,0.819511 0.3037066,0.108205 0.6833363,0.226647 0.7453216,0.232535 0.012891,0.0012 0.023437,-0.228659 0.023437,-0.510851 z m 4.482642,0.201173 c 0.09896,-0.03405 0.231239,-0.09244 0.293955,-0.129764 0.153631,-0.09143 4.322065,-4.251165 4.45826,-4.448957 C 15.437321,10.610725 15.5,10.384932 15.5,10.016801 15.5,9.7770787 15.483969,9.6521644 15.434344,9.5052194 15.300111,9.1077309 14.923519,8.7311394 14.526031,8.5969056 14.379086,8.5472812 14.254171,8.53125 14.014449,8.53125 c -0.336261,0 -0.560644,0.054407 -0.791046,0.1918091 -0.06271,0.037401 -0.810369,0.7618162 -1.661453,1.6098119 l -1.547424,1.541811 -0.4682007,-0.469664 c -0.5183684,-0.51999 -0.6921353,-0.654663 -0.96528,-0.748116 -0.2612025,-0.08937 -0.7448194,-0.08817 -1.0133259,0.0025 -0.3974885,0.134234 -0.77408,0.510825 -0.9083138,0.908314 -0.049624,0.146945 -0.065656,0.271859 -0.065656,0.511581 0,0.336543 0.054567,0.561308 0.1920425,0.791046 0.084648,0.141456 2.1420603,2.217203 2.3504409,2.371387 0.2520557,0.186499 0.4825391,0.254749 0.866687,0.256638 0.251854,0.0012 0.374087,-0.01318 0.510972,-0.06028 z M 6.09375,12.078125 C 6.09375,12.029514 6.0760416,12 6.046875,12 c -0.056951,0 -0.058159,0.01403 -0.00811,0.09417 0.049808,0.07976 0.054983,0.07824 0.054983,-0.01605 z m 0.1223416,-0.757812 c 0.037104,-0.09883 0.1479525,-0.292039 0.2463296,-0.429356 0.2112826,-0.294914 0.5532922,-0.559021 0.8969538,-0.692647 0.1921884,-0.07473 0.2720878,-0.08658 0.6580197,-0.09761 0.4102484,-0.01172 0.4556694,-0.0071 0.6875,0.07034 0.3384678,0.113033 0.5945941,0.28565 0.9840803,0.663224 l 0.3296,0.319519 0.741282,-0.741765 0.741282,-0.7417648 -0.0084,-2.4266003 C 11.484483,4.848145 11.48355,4.8159512 11.419944,4.7307719 11.384507,4.683315 11.316679,4.6154928 11.269215,4.5800559 11.183376,4.5159678 11.165975,4.515625 8,4.515625 c -3.1659753,0 -3.1833763,3.437e-4 -3.269215,0.064431 -0.047464,0.035437 -0.1152922,0.1032613 -0.1507291,0.1507207 -0.063915,0.085598 -0.064503,0.1111125 -0.073462,3.185569 -0.00497,1.7046038 -8.907e-4,3.1445683 0.00906,3.1999213 0.022529,0.125363 0.1539359,0.285008 0.2796756,0.339777 0.068479,0.02983 0.2723253,0.04185 0.7243016,0.04273 l 0.6290025,0.0012 0.067462,-0.179688 z M 4,7.984375 C 4,6.8929687 3.9929447,6 3.9843216,6 3.9487216,6 1.0011549,7.9803216 1.015461,7.9946278 1.0521312,8.0312978 3.9553294,9.9647691 3.9765625,9.9666613 3.9894531,9.96781 4,9.0757813 4,7.984375 Z m 8.90573,0.3582409 c 0.111433,-0.074855 0.315339,-0.1753459 0.453125,-0.2233143 0.222701,-0.077531 0.294455,-0.087262 0.646173,-0.087634 0.305919,-3.218e-4 0.440232,0.013456 0.592207,0.060756 l 0.196553,0.061174 0.105394,-0.065136 c 0.05797,-0.035825 0.09382,-0.075716 0.07967,-0.088647 C 14.934398,7.9591909 12.03257,6.03125 12.015876,6.03125 12.007144,6.03125 12,6.7371128 12,7.5998337 V 9.1684175 L 12.351563,8.8235663 C 12.544922,8.6338981 12.794297,8.4174703 12.90573,8.3426159 Z M 1.2963041,5.9609375 C 1.6810547,4.8130106 2.1970632,3.9440422 2.96875,3.1445059 3.7671613,2.3172808 4.7393612,1.7041162 5.8203125,1.3460313 L 6.03125,1.2761543 V 0.76248178 0.24880925 L 5.945313,0.26804065 C 5.3773153,0.39514875 4.2255497,0.90934647 3.625,1.3039279 2.7156061,1.9014303 1.8994281,2.7177293 1.3042719,3.625 0.91255359,4.222145 0.49336963,5.1367925 0.31247975,5.7890625 L 0.25398179,6 H 0.76859666 C 1.1524725,6 1.2865377,5.9900759 1.2963041,5.9609375 Z M 15.68752,5.7890625 C 15.50663,5.1367925 15.087447,4.222145 14.695728,3.625 14.100335,2.7173681 13.282632,1.8996651 12.375,1.3042719 11.777855,0.91255359 10.863208,0.49336963 10.210938,0.31247975 L 10,0.25398179 v 0.51461487 c 0,0.38387584 0.0099,0.51794104 0.03906,0.52770744 1.223155,0.4099647 2.166169,0.9927971 2.994595,1.8508168 0.7689,0.7963666 1.285694,1.6671035 1.670038,2.8138166 C 14.713462,5.9900759 14.847528,6 15.231403,6 h 0.514615 z M 10,3.9841241 C 10,3.9679525 8.0730253,1.0667835 8.0330403,1.0227552 8.0147347,1.0025987 6.03125,3.9370831 6.03125,3.9843216 6.03125,3.9929447 6.9242187,4 8.015625,4 9.1070313,4 10,3.9928559 10,3.9841241 Z"
       id="path827"
       inkscape:connector-curvature="0" />
    <path
       style="fill:#cbfefe;stroke-width:0.000357143"
       d="M 5.7925309,15.69064 C 5.1175741,15.49746 4.2170987,15.084136 3.625,14.695728 2.7173681,14.100335 1.8996651,13.282632 1.3042719,12.375 0.91255359,11.777855 0.49336963,10.863208 0.31247975,10.210938 L 0.25398179,10 h 0.51461487 c 0.38387584,0 0.51794104,0.0099 0.52770744,0.03906 0.3847506,1.147926 0.9007591,2.016895 1.6724459,2.816431 0.7984113,0.827225 1.7706112,1.44039 2.8515625,1.798475 l 0.2109375,0.06988 v 0.513077 c 0,0.282192 -0.010547,0.512075 -0.023437,0.510851 -0.012891,-0.0012 -0.1097672,-0.02693 -0.2152816,-0.05713 z M 6.0387672,12.094174 C 5.9887156,12.014029 5.9899237,12 6.046875,12 c 0.029167,0 0.046875,0.02951 0.046875,0.07813 0,0.09429 -0.00517,0.09581 -0.054983,0.01605 z M 5,8 V 5 h 3 3 V 7.5863716 10.172743 L 10.585518,10.586372 10.171037,11 H 10.014303 C 9.8627491,11 9.8508866,10.993246 9.6553472,10.795625 9.3743644,10.511652 9.0387662,10.287581 8.7371987,10.182599 8.5113966,10.103993 8.4416738,10.094542 8.0848466,10.094168 7.7357259,10.093802 7.6536709,10.10421 7.4344822,10.176652 7.0944731,10.289027 6.7172591,10.551134 6.53125,10.804265 L 6.390625,10.995634 5.6953125,10.997819 5,11 Z M 2.4920808,8.9873878 C 1.6885066,8.4499366 1.0240277,8.0031944 1.015461,7.9946278 1.0011549,7.9803216 3.9487216,6 3.9843216,6 3.9929447,6 4,6.8929687 4,7.984375 4,9.0757813 3.9894531,9.96781 3.9765625,9.9666613 3.9636719,9.9655112 3.295655,9.5248394 2.4920808,8.9873878 Z M 12,7.5998337 C 12,6.7371128 12.0071,6.03125 12.01588,6.03125 c 0.01669,0 2.918522,1.9279409 2.962974,1.968565 0.01415,0.012931 -0.0217,0.052822 -0.07967,0.088647 L 14.79379,8.153598 14.597237,8.092424 c -0.151975,-0.0473 -0.286288,-0.06108 -0.592207,-0.060756 -0.351718,3.719e-4 -0.423472,0.010103 -0.646173,0.087634 -0.336744,0.1172328 -0.587739,0.29272 -1.007292,0.7042646 L 12,9.1684175 Z M 0.31247975,5.7890625 C 0.49336963,5.1367925 0.91255359,4.222145 1.3042719,3.625 1.8994281,2.7177293 2.7156061,1.9014303 3.625,1.3039279 4.2255497,0.90934647 5.3773153,0.39514875 5.9453125,0.26804061 L 6.03125,0.24880925 V 0.76248178 1.2761543 L 5.8203125,1.3460313 C 4.7393612,1.7041162 3.7671613,2.3172808 2.96875,3.1445059 2.1970632,3.9440422 1.6810547,4.8130106 1.2963041,5.9609375 1.2865377,5.9900759 1.1524725,6 0.76859666,6 H 0.25398179 Z M 14.703696,5.9609375 C 14.319352,4.8142244 13.802558,3.9434875 13.033658,3.1471209 12.205232,2.2891012 11.262218,1.7062688 10.039063,1.2963041 10.009924,1.2865377 10,1.1524725 10,0.76859666 V 0.25398179 l 0.210938,0.058498 c 0.65227,0.18088984 1.566917,0.6000738 2.164062,0.99179211 0.907632,0.5953932 1.725335,1.4130962 2.320728,2.3207281 0.391719,0.597145 0.810902,1.5117925 0.991792,2.1640625 L 15.746018,6 H 15.231403 C 14.847528,6 14.713462,5.99008 14.703696,5.9609375 Z M 6.03125,3.9843216 c 0,-0.047238 1.9834847,-2.9817229 2.0017903,-2.9615664 C 8.0730253,1.0667835 10,3.9679525 10,3.9841241 10,3.9928559 9.1070313,4 8.015625,4 6.9242187,4 6.03125,3.9929447 6.03125,3.9843216 Z"
       id="path825"
       inkscape:connector-curvature="0" />
    <path
       style="fill:#00fe00;stroke-width:0.000357143"
       d="M 9.6770431,14.953165 C 9.4659447,14.873057 9.2856266,14.710823 8.2633784,13.681277 7.1069887,12.516631 7.109375,12.519946 7.109375,12.078125 c 0,-0.328552 0.063605,-0.493752 0.2693016,-0.699448 0.2056959,-0.205697 0.3708962,-0.269302 0.6994484,-0.269302 0.4226881,0 0.4716963,0.03159 1.2577869,0.810649 0.3652203,0.361956 0.6713271,0.658101 0.6802381,0.658101 0.0089,0 0.778845,-0.76052 1.710963,-1.690045 1.320605,-1.3169284 1.729258,-1.7067303 1.851012,-1.7656247 0.221916,-0.1073437 0.650929,-0.1089865 0.865465,-0.00331 0.187258,0.092236 0.376282,0.2812609 0.468519,0.468519 0.105477,0.2141403 0.104002,0.6433087 -0.003,0.8654647 -0.110421,0.229308 -4.227956,4.346676 -4.45601,4.455828 -0.193361,0.09255 -0.5892743,0.115102 -0.7760815,0.04421 z"
       id="path823"
       inkscape:connector-curvature="0" />
    <path
       style="fill:#323232;stroke-width:0.000357143"
       d="M 4.7953256,11.456044 C 4.6695859,11.401275 4.5381794,11.24163 4.51565,11.116267 4.5057022,11.060914 4.5016269,9.6209494 4.5065941,7.9163456 4.5155528,4.8418891 4.5161409,4.816375 4.5800559,4.7307766 4.6154928,4.6833172 4.6833209,4.6154928 4.730785,4.5800559 4.8166237,4.5159678 4.8340247,4.515625 8,4.515625 c 3.165975,0 3.183376,3.437e-4 3.269215,0.064431 0.04746,0.035437 0.115292,0.1032591 0.150729,0.150716 0.06361,0.085181 0.06454,0.1173525 0.0728,2.513875 l 0.0084,2.4275897 L 11.250556,9.9213225 11,10.170409 V 7.5852044 5 H 8 5 v 3 3 h 0.6900487 0.6900488 l -0.060971,0.101563 c -0.033534,0.05586 -0.08581,0.168359 -0.1161693,0.25 L 6.1477587,11.5 5.5191919,11.498778 C 5.0675778,11.4979 4.8637966,11.485869 4.7953256,11.456045 Z M 9.9375,11.078125 9.8641053,11 h 0.1515197 0.15152 l -0.07339,0.07813 c -0.04037,0.04297 -0.07552,0.07813 -0.07813,0.07813 -0.0026,0 -0.037758,-0.03516 -0.078125,-0.07813 z"
       id="path821"
       inkscape:connector-curvature="0" />
    <path
       style="fill:#006500;stroke-width:0.000357143"
       d="M 9.4799834,15.42542 C 9.3744431,15.386191 9.2197556,15.303532 9.1362334,15.241733 8.9278528,15.087549 6.8704406,13.011803 6.7857925,12.870347 6.6483166,12.640609 6.59375,12.415843 6.59375,12.079301 c 0,-0.239722 0.016031,-0.364637 0.065656,-0.511582 0.1342338,-0.397488 0.5108253,-0.77408 0.9083138,-0.908313 0.2685065,-0.09068 0.7521234,-0.09187 1.0133259,-0.0025 0.2731447,0.09345 0.4469116,0.228127 0.96528,0.748116 l 0.4682003,0.469664 1.547424,-1.54181 C 12.413034,9.4848759 13.160688,8.7604606 13.223403,8.7230597 13.453805,8.5856572 13.678188,8.53125 14.014449,8.53125 c 0.239722,0 0.364637,0.016031 0.511582,0.065656 0.397488,0.1342338 0.77408,0.5108253 0.908313,0.9083138 0.04963,0.146945 0.06566,0.2718593 0.06566,0.5115812 0,0.368131 -0.06268,0.593924 -0.233893,0.842574 -0.136195,0.197792 -4.304629,4.357527 -4.45826,4.448957 -0.235911,0.140396 -0.453503,0.191768 -0.804927,0.19004 -0.2650034,-0.0013 -0.3693262,-0.01586 -0.5229366,-0.07295 z m 0.9731416,-0.516467 c 0.228053,-0.109152 4.345588,-4.22652 4.456009,-4.455828 0.106977,-0.222156 0.108452,-0.6513244 0.003,-0.8654647 -0.09224,-0.1872581 -0.281261,-0.3762828 -0.468519,-0.468519 -0.214536,-0.1056725 -0.643549,-0.1040297 -0.865464,0.00331 -0.121755,0.058894 -0.530408,0.4486963 -1.851012,1.7656247 -0.932119,0.929525 -1.702052,1.690045 -1.710963,1.690045 -0.0089,0 -0.3150182,-0.296145 -0.6802385,-0.658101 C 8.5498463,11.140957 8.5008381,11.109371 8.07815,11.109371 c -0.3285522,0 -0.4937525,0.06361 -0.6994484,0.269302 C 7.1730053,11.584369 7.1094,11.749569 7.1094,12.078121 c 0,0.441821 -0.00239,0.438506 1.1540034,1.603152 1.0222482,1.029546 1.2025663,1.19178 1.4136647,1.271888 0.1868072,0.07089 0.5827199,0.04833 0.7760819,-0.04421 z"
       id="path819"
       inkscape:connector-curvature="0" />
  </g>
</svg>
