<?xml version="1.0" encoding="UTF-8" standalone="no"?>
<!-- Created with Inkscape (http://www.inkscape.org/) -->

<svg
   version="1.1"
   id="svg2"
   width="1600"
   height="1600"
   viewBox="0 0 1600 1600"
   sodipodi:docname="applymove.svg"
   inkscape:version="1.2.2 (732a01da63, 2022-12-09)"
   xmlns:inkscape="http://www.inkscape.org/namespaces/inkscape"
   xmlns:sodipodi="http://sodipodi.sourceforge.net/DTD/sodipodi-0.dtd"
   xmlns="http://www.w3.org/2000/svg"
   xmlns:svg="http://www.w3.org/2000/svg"
   xmlns:rdf="http://www.w3.org/1999/02/22-rdf-syntax-ns#"
   xmlns:cc="http://creativecommons.org/ns#"
   xmlns:dc="http://purl.org/dc/elements/1.1/">
  <metadata
     id="metadata8">
    <rdf:RDF>
      <cc:Work
         rdf:about="">
        <dc:format>image/svg+xml</dc:format>
        <dc:type
           rdf:resource="http://purl.org/dc/dcmitype/StillImage" />
      </cc:Work>
    </rdf:RDF>
  </metadata>
  <defs
     id="defs6" />
  <sodipodi:namedview
     pagecolor="#808080"
     bordercolor="#666666"
     borderopacity="1"
     objecttolerance="10"
     gridtolerance="10"
     guidetolerance="10"
     inkscape:pageopacity="0"
     inkscape:pageshadow="2"
     inkscape:window-width="1993"
     inkscape:window-height="1009"
     id="namedview4"
     showgrid="false"
     inkscape:zoom="0.057617188"
     inkscape:cx="-6413.0169"
     inkscape:cy="242.98305"
     inkscape:window-x="-8"
     inkscape:window-y="-8"
     inkscape:window-maximized="1"
     inkscape:current-layer="APPLYMOVE"
     inkscape:showpageshadow="0"
     inkscape:pagecheckerboard="true"
     inkscape:deskcolor="#d1d1d1" />
  <g
     id="APPLYMOVE"
     transform="matrix(100,0,0,100,0,4.9999997e-5)"
     style="stroke-width:0.0114286">
    <path
       style="fill:none;stroke-width:0.000357143"
       d="M 0,8 V 0 h 8 8 v 8 8 H 8 0 Z m 10.513892,7.438096 c 0.09896,-0.03405 0.231239,-0.09244 0.293955,-0.129764 0.153631,-0.09143 4.322065,-4.251165 4.45826,-4.448957 C 15.437321,10.610725 15.5,10.384932 15.5,10.016801 15.5,9.7770787 15.483969,9.6521644 15.434344,9.5052194 15.300111,9.1077309 14.923519,8.7311394 14.526031,8.5969056 14.379086,8.5472812 14.254171,8.53125 14.014449,8.53125 c -0.336261,0 -0.560644,0.054407 -0.791046,0.1918091 -0.06271,0.037401 -0.810369,0.7618162 -1.661453,1.6098119 l -1.547424,1.541811 -0.4682007,-0.469664 c -0.5183684,-0.51999 -0.6921353,-0.654663 -0.96528,-0.748116 -0.2612025,-0.08937 -0.7448194,-0.08817 -1.0133259,0.0025 -0.3974885,0.134234 -0.77408,0.510825 -0.9083138,0.908314 -0.049624,0.146945 -0.065656,0.271859 -0.065656,0.511581 0,0.336543 0.054567,0.561308 0.1920425,0.791046 0.084648,0.141456 2.1420603,2.217203 2.3504409,2.371387 0.2520557,0.186499 0.4825391,0.254749 0.866687,0.256638 0.251854,0.0012 0.374087,-0.01318 0.510972,-0.06028 z m 4.79016,-0.98958 c 0.04549,-0.03396 0.111705,-0.100571 0.147142,-0.148015 0.06045,-0.08093 0.06443,-0.128153 0.06435,-0.763694 -9.4e-5,-0.664749 -0.0023,-0.687963 -0.118843,-1.239932 -0.06532,-0.309375 -0.125685,-0.582889 -0.134148,-0.607809 -0.01008,-0.02969 -0.434546,0.373748 -1.231492,1.170498 -0.668859,0.668694 -1.211831,1.220083 -1.206606,1.225308 0.0052,0.0052 0.463908,0.100627 1.019295,0.212003 0.555387,0.111376 1.018137,0.21103 1.028334,0.221453 0.03962,0.0405 0.351793,-0.01 0.431968,-0.06981 z M 11.22641,9.9454666 c 0.648912,-0.6487432 1.17984,-1.1878928 1.17984,-1.1981104 0,-0.022404 -0.30226,-0.2669212 -0.59549,-0.4817312 C 10.958709,7.6414437 10.156924,7.0408409 10.078125,6.9677391 10.026563,6.9199047 9.8972103,6.8197041 9.7906756,6.7450712 9.4179309,6.4839447 8.1710175,5.5539153 8.078125,5.4677391 8.0265625,5.4199047 7.8972766,5.3197041 7.7908228,5.2450712 7.4832881,5.0294641 6.1186234,4.0087003 6.0187759,3.9195872 L 5.9281766,3.8387281 6.1968437,3.5678016 C 6.3446106,3.4187919 6.4803022,3.2572878 6.4983806,3.2089031 6.5419709,3.0922378 6.5416641,1.9378819 6.4980119,1.8223469 6.4462956,1.6854683 6.3159775,1.5685262 6.1590163,1.5181465 6.0801509,1.4928332 4.9117188,1.2519518 3.5625,0.98285456 0.97449603,0.46668556 0.89720753,0.45580353 0.72616553,0.58350481 0.52145175,0.73634572 0.51651241,0.75624703 0.50606362,1.4703247 l -0.009561,0.6534325 0.48781003,2.445934 C 1.2526078,5.9149547 1.4928332,7.0801509 1.5181465,7.1590163 1.6136518,7.4565691 1.9187562,7.6065172 2.2089031,7.4984991 2.2572877,7.4804862 2.5737399,7.18969 2.9121303,6.852285 l 0.6152553,-0.6134631 0.1289472,0.08936 c 0.070921,0.049148 0.1883706,0.1416675 0.2609997,0.2055978 0.072629,0.063931 0.2186525,0.1774053 0.3244969,0.2521662 0.4034484,0.2849669 1.6217187,1.1944641 1.7112956,1.2775647 0.051563,0.047834 0.1808484,0.148035 0.2873022,0.2226679 0.2613325,0.1832156 1.6289865,1.2067296 2.3010928,1.7220735 0.1173675,0.08999 0.2861175,0.198838 0.375,0.241879 0.2449434,0.118612 0.4391825,0.263294 0.7834666,0.583578 0.1722153,0.16021 0.3206484,0.291291 0.3298514,0.291291 0.0092,0 0.54766,-0.53079 1.196572,-1.1795334 z m 2.162445,-1.8370954 c 0.230805,-0.076917 0.279618,-0.081979 0.695336,-0.07211 0.316488,0.00751 0.447099,3.5e-4 0.447082,-0.024519 -6.2e-5,-0.079413 -0.100537,-0.3118894 -0.165142,-0.3820669 -0.141226,-0.1534069 -0.394954,-0.2035319 -0.593697,-0.1172872 -0.05531,0.024001 -0.27634,0.222435 -0.491184,0.4409653 -0.264264,0.2687988 -0.35019,0.3715163 -0.265625,0.3175353 0.06875,-0.043886 0.236704,-0.1170184 0.37323,-0.1625175 z"
       id="path829"
       inkscape:connector-curvature="0" />
    <path
       style="fill:#cbfefe;stroke-width:0.000357143"
       d="m 14.525705,12.910775 c -0.217893,-0.04546 -0.40375,-0.09038 -0.413014,-0.09983 -0.0093,-0.0094 0.14381,-0.177378 0.340165,-0.373176 0.239806,-0.239125 0.362016,-0.341206 0.372259,-0.310945 0.0084,0.02478 0.04525,0.19974 0.08191,0.388802 0.03666,0.189063 0.0741,0.375391 0.0832,0.414063 0.02007,0.08529 0.03859,0.08605 -0.464523,-0.01891 z M 10.794359,10.049169 C 10.27092,9.6453628 8.7794422,8.5293934 8.5216772,8.3486788 8.4152234,8.2740459 8.2859375,8.1738453 8.234375,8.1260109 8.1414825,8.0398347 6.8945691,7.1098053 6.5218244,6.8486788 6.4152897,6.7740459 6.2859375,6.6738453 6.234375,6.6260109 6.1414825,6.5398347 4.8945691,5.6098053 4.5218244,5.3486788 4.4152897,5.2740459 4.2859375,5.1737931 4.234375,5.1258947 4.1828125,5.0779963 3.9933203,4.9313941 3.8132813,4.8001116 L 3.4859375,4.5614169 2.7429687,5.3039016 C 2.3343359,5.7122684 2,6.0392159 2,6.0304519 2,6.0216878 1.7751538,4.8907844 1.5003418,3.5173334 1.2255298,2.1438823 1.0050635,1.0157698 1.0104167,1.0104167 1.0157698,1.0050635 2.1438823,1.2255298 3.5173334,1.5003418 4.8907844,1.7751538 6.0216878,2 6.0304519,2 6.0392159,2 5.71253,2.3340741 5.3044831,2.7423869 L 4.5625794,3.4847738 4.9598325,3.7814494 c 0.2184891,0.1631715 0.4751116,0.350494 0.5702725,0.4162718 0.095161,0.065778 0.2152075,0.1589472 0.26677,0.2070429 0.092318,0.086111 1.3346681,1.0130815 1.7125506,1.2778072 0.1065347,0.074633 0.2358869,0.1748334 0.2874494,0.2226678 0.092892,0.086176 1.3398059,1.0162056 1.7125506,1.2773322 0.1065347,0.074633 0.2358869,0.1748334 0.2874494,0.2226678 0.079283,0.073551 0.951608,0.726789 1.733178,1.2978859 0.117608,0.085937 0.284199,0.2139719 0.370201,0.2845209 l 0.156367,0.1282707 -0.538639,0.537979 -0.538639,0.5379794 z M 13.953125,8 c 0.01062,-0.017188 0.02552,-0.03125 0.03309,-0.03125 C 13.993799,7.96875 14,7.9828125 14,8 14,8.017188 13.98511,8.03125 13.96691,8.03125 13.94871,8.03125 13.94251,8.017188 13.95313,8 Z"
       id="path827"
       inkscape:connector-curvature="0" />
    <path
       style="fill:#989898;stroke-width:0.000357143"
       d="m 14.994542,14.015375 c -0.0087,-0.0087 -0.400025,-0.09299 -0.869542,-0.18725 -0.469517,-0.09426 -0.857978,-0.175686 -0.863247,-0.180956 -0.0053,-0.0053 0.176259,-0.194256 0.403396,-0.41997 l 0.412976,-0.41039 0.476563,0.0961 0.476562,0.0961 v 0.511125 c 0,0.281119 -0.0047,0.511125 -0.01042,0.511125 -0.0057,0 -0.01756,-0.0071 -0.02629,-0.01587 z M 10.257903,10.645357 C 10.140863,10.540927 8.8888766,9.6058172 8.5218244,9.3486788 8.4152897,9.2740459 8.2859375,9.1738453 8.234375,9.1260109 8.1414825,9.0398347 6.8945691,8.1098053 6.5218244,7.8486788 6.4152897,7.7740459 6.2859375,7.6738453 6.234375,7.6260109 6.1414825,7.5398347 4.8945691,6.6098053 4.5218244,6.3486788 4.4152897,6.2740459 4.2859375,6.1737931 4.234375,6.1258947 4.1828125,6.0779963 3.9933203,5.9313941 3.8132813,5.8001116 L 3.4859375,5.5614169 2.7429687,6.3039016 C 2.3343359,6.7122684 2,7.0392159 2,7.0304519 2,7.0216878 1.775,5.8900156 1.5,4.515625 L 1,2.0167328 1.0030809,1.5474289 1.0061619,1.078125 1.5015562,3.53125 C 1.774023,4.8804688 1.9976366,5.9983275 1.9984752,6.0153809 1.999314,6.0324341 2.3343359,5.7122684 2.7429687,5.3039016 L 3.4859375,4.5614169 3.8132812,4.8001116 c 0.1800391,0.1312825 0.3695313,0.2778846 0.4210938,0.3257831 0.051563,0.047898 0.1809147,0.1481512 0.2874494,0.222784 0.3727447,0.2611266 1.6196581,1.191156 1.7125506,1.2773322 0.051563,0.047834 0.1809147,0.148035 0.2874494,0.2226678 0.3727447,0.2611266 1.6196581,1.191156 1.7125506,1.2773322 0.051562,0.047834 0.1808484,0.148035 0.2873022,0.2226679 0.2464172,0.1727587 1.7977258,1.3328462 2.2393308,1.6745992 0.0834,0.06454 0.167774,0.12747 0.1875,0.139842 0.02284,0.01433 -0.06604,0.124984 -0.244731,0.304688 -0.15433,0.155205 -0.291399,0.282192 -0.304598,0.282192 -0.0132,0 -0.07677,-0.04709 -0.141276,-0.104643 z M 4.8506512,3.6963363 4.5608553,3.4865094 5.28824,2.7585677 6.015625,2.030626 6.024265,2.5221648 6.032905,3.0137035 5.5866753,3.4599334 5.1404456,3.9061631 Z"
       id="path825"
       inkscape:connector-curvature="0" />
    <path
       style="fill:#00fe00;stroke-width:0.000357143"
       d="M 9.6770431,14.953165 C 9.4659447,14.873057 9.2856266,14.710823 8.2633784,13.681277 7.1069887,12.516631 7.109375,12.519946 7.109375,12.078125 c 0,-0.328552 0.063605,-0.493752 0.2693016,-0.699448 0.2056959,-0.205697 0.3708962,-0.269302 0.6994484,-0.269302 0.4226881,0 0.4716963,0.03159 1.2577869,0.810649 0.3652203,0.361956 0.6713271,0.658101 0.6802381,0.658101 0.0089,0 0.778845,-0.76052 1.710963,-1.690045 1.320605,-1.3169284 1.729258,-1.7067303 1.851012,-1.7656247 0.221916,-0.1073437 0.650929,-0.1089865 0.865465,-0.00331 0.187258,0.092236 0.376282,0.2812609 0.468519,0.468519 0.105477,0.2141403 0.104002,0.6433087 -0.003,0.8654647 -0.110421,0.229308 -4.227956,4.346676 -4.45601,4.455828 -0.193361,0.09255 -0.5892743,0.115102 -0.7760815,0.04421 z"
       id="path823"
       inkscape:connector-curvature="0" />
    <path
       style="fill:#323232;stroke-width:0.000357143"
       d="m 14.872084,14.518328 c -0.0102,-0.01042 -0.472947,-0.110077 -1.028334,-0.221453 -0.555387,-0.111376 -1.014222,-0.206931 -1.019635,-0.212344 -0.0054,-0.0054 0.08622,-0.10517 0.203636,-0.221684 l 0.213478,-0.211842 0.809073,0.160429 c 0.44499,0.08824 0.848646,0.173374 0.897014,0.189195 l 0.08794,0.02877 -0.0132,-0.538136 c -0.01111,-0.452762 -0.02845,-0.607542 -0.109309,-0.975635 l -0.09611,-0.4375 0.207669,-0.210574 c 0.114217,-0.115816 0.216692,-0.200191 0.227721,-0.1875 0.01103,0.01269 0.07476,0.28323 0.14163,0.601199 0.119689,0.569142 0.121581,0.588651 0.121772,1.255557 1.87e-4,0.635637 -0.0038,0.682753 -0.06424,0.763694 -0.109513,0.14662 -0.219841,0.208949 -0.395211,0.223273 -0.09095,0.0074 -0.173701,0.005 -0.183899,-0.0054 z M 9.6999866,10.833709 C 9.3557025,10.513425 9.1614634,10.368743 8.91652,10.250131 8.8276375,10.20709 8.6588875,10.098245 8.54152,10.008252 7.8694138,9.4929084 6.5017597,8.4693944 6.2404272,8.2861788 6.1339734,8.2115459 6.0046875,8.1113453 5.953125,8.0635109 5.8635481,7.9804103 4.6452778,7.0709131 4.2418294,6.7859462 4.135985,6.7111853 3.9899613,6.5977106 3.9173325,6.53378 3.8447034,6.4698497 3.7272538,6.3773306 3.6563328,6.3281822 L 3.5273856,6.2388219 2.9121303,6.852285 C 2.5737399,7.18969 2.2572877,7.4804862 2.2089031,7.4984991 1.9187562,7.6065172 1.6136518,7.4565691 1.5181465,7.1590162 1.4928332,7.0801509 1.2526078,5.9149547 0.98431231,4.5696912 L 0.49650228,2.1237573 0.50606362,1.4703247 C 0.51651241,0.75624703 0.52145175,0.73634572 0.72616553,0.58350481 0.89720753,0.45580353 0.97449603,0.46668556 3.5625,0.98285456 4.9117188,1.2519518 6.0801509,1.4928332 6.1590163,1.5181465 c 0.1569612,0.05038 0.2872793,0.1673218 0.3389956,0.3042004 0.043652,0.115535 0.043959,1.2698909 3.687e-4,1.3865562 -0.018078,0.048385 -0.15377,0.2098888 -0.3015369,0.3588985 l -0.2686671,0.2709265 0.090599,0.080859 c 0.099848,0.089113 1.4645122,1.1098769 1.7720469,1.3254841 0.1064538,0.074633 0.2357397,0.1748334 0.2873022,0.2226678 0.092892,0.086176 1.3398059,1.0162056 1.7125506,1.2773322 0.1065347,0.074633 0.2358877,0.1748334 0.2874497,0.2226678 0.0788,0.073102 0.880584,0.6737047 1.732635,1.2978859 0.297693,0.2180791 0.59549,0.4594434 0.59549,0.4826444 0,0.031976 -0.327492,0.3454806 -0.360894,0.3454806 -0.01694,0 -0.101905,-0.062197 -0.188805,-0.1382153 C 11.76965,8.8795159 11.612414,8.7564691 11.507138,8.6820972 11.103778,8.3971453 9.88627,7.4881709 9.796875,7.4052391 9.7453125,7.3574047 9.6159603,7.2572041 9.5094256,7.1825712 9.1366809,6.9214447 7.8897675,5.9914153 7.796875,5.9052391 7.7453125,5.8574047 7.6159603,5.7572041 7.5094256,5.6825712 7.1395925,5.4234844 5.8899653,4.4899466 5.7716575,4.3843656 5.7062253,4.3259725 5.5796628,4.2300237 5.4904075,4.1711462 5.4011522,4.1122684 5.2859375,4.0287637 5.234375,3.9855803 L 5.140625,3.9070644 5.5859375,3.4609537 6.03125,3.0148431 V 2.5074215 C 6.03125,2.2283397 6.027485,2 6.0228837,2 6.0182822,2 4.8900156,1.775 3.515625,1.5 2.1412343,1.225 1.0129679,1 1.0083664,1 1.0037649,1 1,1.2287649 1,1.5083664 V 2.0167328 L 1.5,4.515625 C 1.775,5.8900156 2,7.0216878 2,7.0304519 2,7.0392159 2.3343359,6.7122684 2.7429687,6.3039016 L 3.4859375,5.5614169 3.8132812,5.8001116 c 0.1800391,0.1312825 0.3695313,0.2778846 0.4210938,0.3257831 0.051563,0.047898 0.1809147,0.1481512 0.2874494,0.222784 0.3727447,0.2611266 1.6196581,1.191156 1.7125506,1.2773322 0.051563,0.047834 0.1809147,0.148035 0.2874494,0.2226678 0.3727447,0.2611266 1.6196581,1.191156 1.7125506,1.2773322 0.051562,0.047834 0.1808484,0.148035 0.2873022,0.2226679 0.2934053,0.2057012 1.6674908,1.2332742 1.7822988,1.3328442 l 0.100852,0.08747 -0.179883,0.178006 c -0.09893,0.0979 -0.187073,0.178005 -0.195861,0.178005 -0.0088,0 -0.1568821,-0.131081 -0.3290974,-0.291291 z M 13.28125,7.9533528 c 0.214844,-0.2185303 0.435877,-0.4169647 0.491184,-0.4409653 0.198743,-0.086245 0.452471,-0.03612 0.593697,0.1172872 0.06562,0.071281 0.165119,0.3031012 0.165119,0.3847112 0,0.046345 -0.50462,0.025725 -0.535156,-0.021868 -0.01222,-0.019044 -0.02753,-0.017492 -0.04091,0.00415 -0.01176,0.019023 -0.09189,0.034586 -0.178084,0.034586 -0.183591,0 -0.582957,0.1256809 -0.761478,0.2396381 -0.08456,0.053981 0.0014,-0.048737 0.265625,-0.3175353 z"
       id="path821"
       inkscape:connector-curvature="0" />
    <path
       style="fill:#006500;stroke-width:0.000357143"
       d="M 9.4799834,15.42542 C 9.3744431,15.386191 9.2197556,15.303532 9.1362334,15.241733 8.9278528,15.087549 6.8704406,13.011803 6.7857925,12.870347 6.6483166,12.640609 6.59375,12.415843 6.59375,12.079301 c 0,-0.239722 0.016031,-0.364637 0.065656,-0.511582 0.1342338,-0.397488 0.5108253,-0.77408 0.9083138,-0.908313 0.2685065,-0.09068 0.7521234,-0.09187 1.0133259,-0.0025 0.2731447,0.09345 0.4469116,0.228127 0.96528,0.748116 l 0.4682003,0.469664 1.547424,-1.54181 C 12.413034,9.4848759 13.160688,8.7604606 13.223403,8.7230597 13.453805,8.5856572 13.678188,8.53125 14.014449,8.53125 c 0.239722,0 0.364637,0.016031 0.511582,0.065656 0.397488,0.1342338 0.77408,0.5108253 0.908313,0.9083138 0.04963,0.146945 0.06566,0.2718593 0.06566,0.5115812 0,0.368131 -0.06268,0.593924 -0.233893,0.842574 -0.136195,0.197792 -4.304629,4.357527 -4.45826,4.448957 -0.235911,0.140396 -0.453503,0.191768 -0.804927,0.19004 -0.2650034,-0.0013 -0.3693262,-0.01586 -0.5229366,-0.07295 z m 0.9731416,-0.516467 c 0.228053,-0.109152 4.345588,-4.22652 4.456009,-4.455828 0.106977,-0.222156 0.108452,-0.6513244 0.003,-0.8654647 -0.09224,-0.1872581 -0.281261,-0.3762828 -0.468519,-0.468519 -0.214536,-0.1056725 -0.643549,-0.1040297 -0.865464,0.00331 -0.121755,0.058894 -0.530408,0.4486963 -1.851012,1.7656247 -0.932119,0.929525 -1.702052,1.690045 -1.710963,1.690045 -0.0089,0 -0.3150182,-0.296145 -0.6802385,-0.658101 C 8.5498463,11.140957 8.5008381,11.109371 8.07815,11.109371 c -0.3285522,0 -0.4937525,0.06361 -0.6994484,0.269302 C 7.1730053,11.584369 7.1094,11.749569 7.1094,12.078121 c 0,0.441821 -0.00239,0.438506 1.1540034,1.603152 1.0222482,1.029546 1.2025663,1.19178 1.4136647,1.271888 0.1868072,0.07089 0.5827199,0.04833 0.7760819,-0.04421 z"
       id="path819"
       inkscape:connector-curvature="0" />
  </g>
</svg>
