<?xml version="1.0" encoding="UTF-8" standalone="no"?>
<!-- Created with Inkscape (http://www.inkscape.org/) -->

<svg
   version="1.1"
   id="svg2"
   width="1600"
   height="1600"
   viewBox="0 0 1600 1600"
   sodipodi:docname="applyalldelta.svg"
   inkscape:version="1.2.2 (732a01da63, 2022-12-09)"
   xmlns:inkscape="http://www.inkscape.org/namespaces/inkscape"
   xmlns:sodipodi="http://sodipodi.sourceforge.net/DTD/sodipodi-0.dtd"
   xmlns="http://www.w3.org/2000/svg"
   xmlns:svg="http://www.w3.org/2000/svg"
   xmlns:rdf="http://www.w3.org/1999/02/22-rdf-syntax-ns#"
   xmlns:cc="http://creativecommons.org/ns#"
   xmlns:dc="http://purl.org/dc/elements/1.1/">
  <metadata
     id="metadata8">
    <rdf:RDF>
      <cc:Work
         rdf:about="">
        <dc:format>image/svg+xml</dc:format>
        <dc:type
           rdf:resource="http://purl.org/dc/dcmitype/StillImage" />
      </cc:Work>
    </rdf:RDF>
  </metadata>
  <defs
     id="defs6" />
  <sodipodi:namedview
     pagecolor="#808080"
     bordercolor="#666666"
     borderopacity="1"
     objecttolerance="10"
     gridtolerance="10"
     guidetolerance="10"
     inkscape:pageopacity="0"
     inkscape:pageshadow="2"
     inkscape:window-width="1993"
     inkscape:window-height="1009"
     id="namedview4"
     showgrid="false"
     inkscape:zoom="1.84375"
     inkscape:cx="-17.084746"
     inkscape:cy="34.169491"
     inkscape:window-x="-8"
     inkscape:window-y="-8"
     inkscape:window-maximized="1"
     inkscape:current-layer="APPLYALLDELTA"
     inkscape:showpageshadow="0"
     inkscape:pagecheckerboard="true"
     inkscape:deskcolor="#d1d1d1" />
  <g
     id="APPLYALLDELTA"
     transform="matrix(100,0,0,100,0,4.9999997e-5)"
     style="stroke-width:0.0114286">
    <path
       style="fill:none;stroke-width:0.000357143"
       d="M 0,8 V 0 h 8 8 v 8 8 H 8 0 Z m 10.75,7.511198 c 0.437615,-0.15714 1.219781,-0.549652 1.625,-0.81547 0.907632,-0.595393 1.725335,-1.413096 2.320728,-2.320728 0.391719,-0.597145 0.810902,-1.511793 0.991792,-2.164063 L 15.746018,10 h -0.514615 c -0.383875,0 -0.517941,0.0099 -0.527707,0.03906 -0.409965,1.223155 -0.992797,2.16617 -1.850817,2.994596 -0.796366,0.7689 -1.667103,1.285694 -2.813816,1.670038 C 10.009924,14.713462 10,14.847527 10,15.231403 v 0.514615 l 0.210938,-0.0585 c 0.116015,-0.03217 0.358593,-0.111516 0.539062,-0.17632 z M 8.3629316,14.967907 C 8.6207534,14.88084 8.8780778,14.623192 8.9677844,14.362295 9.0918391,14.001502 9.03201,13.697129 8.7414891,13.21104 8.6516388,13.060706 8.4463738,12.716175 8.2853441,12.445415 8.1243147,12.174656 7.9607537,11.903906 7.921875,11.84375 7.8829962,11.783594 7.7194353,11.512935 7.5584059,11.242287 7.3973762,10.971638 7.1785397,10.606013 7.0721019,10.429787 6.9656644,10.25356 6.8207184,10.010938 6.75,9.890625 6.6792816,9.7703125 6.5316253,9.5242187 6.421875,9.34375 6.3121247,9.1632813 6.16325,8.9117903 6.0910425,8.7848809 6.0188347,8.6579719 5.8696606,8.4586316 5.7595447,8.3419028 5.5931375,8.1655025 5.5269184,8.1187216 5.3673487,8.0648341 4.9614944,7.927775 4.5940006,8.0122413 4.298955,8.3103981 4.1989672,8.4114403 4.0848156,8.5481706 4.0452847,8.6142431 4.0057541,8.6803156 3.9153069,8.8328125 3.8442909,8.953125 3.773275,9.0734375 3.6280856,9.3160603 3.5216481,9.4922869 3.4152103,9.6685134 3.1963738,10.034138 3.0353442,10.304787 2.8743147,10.575435 2.7109888,10.846094 2.6723977,10.90625 2.6338065,10.966406 2.4861817,11.2125 2.3443424,11.453125 2.2025031,11.69375 2.0546116,11.939844 2.0156947,12 c -0.061619,0.09525 -0.1829834,0.297657 -0.7727318,1.288742 -0.34115978,0.573326 -0.31991296,1.060247 0.062789,1.438955 0.3253558,0.321961 0.039235,0.298639 3.6959928,0.30127 3.1083087,0.0022 3.1774797,9.81e-4 3.3611869,-0.06106 z M 3.9401628,12.820313 c 0.05555,-0.09883 0.1163478,-0.199406 0.1351059,-0.223506 0.018759,-0.0241 0.090356,-0.139701 0.1591063,-0.256891 0.06875,-0.11719 0.209375,-0.354499 0.3125,-0.527353 C 4.8541559,11.29751 4.8699,11.27068 4.9394559,11.143561 l 0.06679,-0.122064 0.063535,0.106439 c 0.034944,0.05854 0.087163,0.141595 0.1160413,0.184564 0.028878,0.04297 0.126594,0.204688 0.2171456,0.359375 0.090552,0.154688 0.2051519,0.344531 0.2546678,0.421875 0.049516,0.07734 0.1116603,0.182813 0.1380994,0.234375 0.026439,0.05156 0.087681,0.157031 0.1360934,0.234375 0.048413,0.07734 0.1270797,0.207422 0.1748166,0.289063 L 6.1934388,13 H 5.0163009 3.8391631 Z m 6.0197947,-0.808272 c -0.00731,-0.0073 -0.3157734,-0.0095 -0.6854809,-0.0049 l -0.6721957,0.0084 0.2311985,0.375 c 0.1271593,0.20625 0.2402709,0.396094 0.2513593,0.421875 0.011088,0.02578 0.054872,0.09994 0.097296,0.164791 l 0.077135,0.117915 0.3569868,-0.53494 C 9.812599,12.265965 9.967265,12.019264 9.9599581,12.011957 Z m -8.584446,0.08999 c 0.059875,-0.09857 0.1139989,-0.191321 0.1202756,-0.206111 0.00628,-0.01479 0.08539,-0.146706 0.1758074,-0.293147 L 1.8359898,11.336517 1.6872504,11.019821 C 1.5683349,10.766626 1.3913292,10.322576 1.2963041,10.039063 1.2865377,10.009924 1.1524725,10 0.76859666,10 H 0.25398179 l 0.0591442,0.213429 c 0.0980184,0.353711 0.27315897,0.812683 0.45517262,1.192821 0.18087666,0.377763 0.45478409,0.874725 0.48221289,0.874898 0.00888,6.3e-5 0.065125,-0.08055 0.125,-0.179118 z m 9.8937355,-0.682086 c 0.04745,-0.03544 0.11526,-0.103265 0.150697,-0.150729 0.06409,-0.08584 0.06443,-0.10324 0.06443,-3.269215 0,-3.1659753 -3.44e-4,-3.1833763 -0.06443,-3.269215 C 11.384507,4.6833209 11.316679,4.6154928 11.269215,4.5800559 11.183376,4.5159678 11.165975,4.515625 8,4.515625 c -3.1659753,0 -3.1833763,3.437e-4 -3.269215,0.064431 C 4.683321,4.615493 4.6154928,4.6833057 4.5800559,4.730751 4.5175769,4.814403 4.5153599,4.8589832 4.5068829,6.2026042 l -0.00874,1.3855887 0.1465216,-0.044096 c 0.2344228,-0.070551 0.5729022,-0.056531 0.84565,0.035027 0.2747975,0.092247 0.4390656,0.1979456 0.6359856,0.4092275 0.1349672,0.1448112 0.3424525,0.4248925 0.3424525,0.4622718 0,0.00962 0.063281,0.1162125 0.140625,0.2368766 C 6.6867187,8.8081641 6.75,8.9129284 6.75,8.9203097 6.75,8.9276906 6.834375,9.06902 6.9375,9.234375 7.040625,9.39973 7.125,9.5410594 7.125,9.5484403 c 0,0.00738 0.063281,0.1121456 0.140625,0.2328097 0.077344,0.1206641 0.140625,0.225428 0.140625,0.23281 0,0.0074 0.084375,0.14871 0.1875,0.314065 0.103125,0.165355 0.1875,0.306684 0.1875,0.314065 0,0.0074 0.06094,0.108493 0.1354212,0.224692 0.074482,0.116199 0.1412785,0.225537 0.1484376,0.242974 0.00716,0.01744 0.062235,0.112748 0.1223912,0.211803 l 0.109375,0.180099 1.4430525,-0.0087 c 1.4017185,-0.0084 1.4455235,-0.01054 1.5293195,-0.07312 z M 13.516361,9.0100572 C 14.333113,8.4655888 14.990511,8.0102575 14.977245,7.9982097 14.933217,7.9582247 12.032047,6.03125 12.015876,6.03125 12.007144,6.03125 12,6.9242187 12,8.015625 12,9.1070313 12.007055,10 12.015678,10 c 0.0086,0 0.683931,-0.4454741 1.500683,-0.9899428 z M 3.1622769,9.125 C 3.1843281,9.0820313 3.2623056,8.9518094 3.3355603,8.8356178 3.4088147,8.7194266 3.46875,8.6173447 3.46875,8.6087697 c 0,-0.042667 0.3479306,-0.5425234 0.4332487,-0.6224288 L 4,7.8945569 V 6.9472784 C 4,6.4262753 3.9929447,6 3.9843216,6 3.9488019,6 1.0011379,7.9803047 1.0154115,7.9945781 c 0.00854,0.00854 0.4620807,0.3140753 1.0078698,0.6789688 0.989529,0.6615606 0.9924948,0.6632525 1.0456228,0.5965103 C 3.0982077,9.2332444 3.1402253,9.1679688 3.1622769,9.125 Z M 1.2963041,5.9609375 C 1.6810547,4.8130106 2.1970632,3.9440422 2.96875,3.1445059 3.7671613,2.3172808 4.7393612,1.7041162 5.8203125,1.3460313 L 6.03125,1.2761543 V 0.76248178 0.24880925 L 5.945313,0.26804065 C 5.3773153,0.39514875 4.2255497,0.90934647 3.625,1.3039279 2.7156061,1.9014303 1.8994281,2.7177293 1.3042719,3.625 0.91255359,4.222145 0.49336963,5.1367925 0.31247975,5.7890625 L 0.25398179,6 H 0.76859666 C 1.1524725,6 1.2865377,5.9900759 1.2963041,5.9609375 Z M 15.68752,5.7890625 C 15.50663,5.1367925 15.087447,4.222145 14.695728,3.625 14.100335,2.7173681 13.282632,1.8996651 12.375,1.3042719 11.777855,0.91255359 10.863208,0.49336963 10.210938,0.31247975 L 10,0.25398179 v 0.51461487 c 0,0.38387584 0.0099,0.51794104 0.03906,0.52770744 1.223155,0.4099647 2.166169,0.9927971 2.994595,1.8508168 0.7689,0.7963666 1.285694,1.6671035 1.670038,2.8138166 C 14.713462,5.9900759 14.847528,6 15.231403,6 h 0.514615 z M 10,3.9841241 C 10,3.9679525 8.0730253,1.0667835 8.0330403,1.0227552 8.0147347,1.0025987 6.03125,3.9370831 6.03125,3.9843216 6.03125,3.9929447 6.9242187,4 8.015625,4 9.1070313,4 10,3.9928559 10,3.9841241 Z"
       id="path827"
       inkscape:connector-curvature="0" />
    <path
       style="fill:#cbfefe;stroke-width:0.000357143"
       d="m 10,15.231403 c 0,-0.383875 0.0099,-0.517941 0.03906,-0.527707 1.146713,-0.384344 2.01745,-0.901138 2.813816,-1.670038 0.85802,-0.828426 1.440852,-1.77144 1.850817,-2.994595 C 14.713462,10.009924 14.847528,10 15.231403,10 h 0.514615 l -0.0585,0.210938 c -0.18089,0.65227 -0.600073,1.566917 -0.991792,2.164062 -0.595393,0.907632 -1.413096,1.725335 -2.320728,2.320728 -0.597145,0.391719 -1.511793,0.810902 -2.164063,0.991792 L 10,15.746018 Z M 9.1821344,12.977291 c -0.042424,-0.06485 -0.086207,-0.13901 -0.097296,-0.164791 -0.011088,-0.02578 -0.1242,-0.215625 -0.2513594,-0.421875 l -0.2311985,-0.375 0.6721957,-0.0084 c 0.3697075,-0.0046 0.678174,-0.0025 0.6854809,0.0049 0.00731,0.0073 -0.1473591,0.254008 -0.3437016,0.548225 L 9.2592687,13.09529 Z M 1.0873728,12.023336 C 0.76277628,11.454283 0.46240834,10.752133 0.31312597,10.213429 L 0.25398179,10 h 0.51461487 c 0.38387584,0 0.51794104,0.0099 0.52770744,0.03906 0.095025,0.283513 0.2720308,0.727563 0.3909463,0.980758 l 0.1487394,0.316696 -0.1643953,0.266255 c -0.090417,0.146441 -0.1695308,0.278356 -0.1758074,0.293147 -0.028834,0.06794 -0.2309073,0.38532 -0.2452756,0.385229 -0.00888,-6.2e-5 -0.082288,-0.116072 -0.1631387,-0.257812 z M 7.8915853,10.827518 C 7.8309009,10.732653 7.78125,10.649127 7.78125,10.641903 c 0,-0.0072 -0.084375,-0.148423 -0.1875,-0.313778 C 7.490625,10.16277 7.40625,10.021441 7.40625,10.01406 7.40625,10.00666 7.342969,9.9019141 7.265625,9.78125 7.1882812,9.6605859 7.125,9.5558216 7.125,9.5484403 7.125,9.5410594 7.040625,9.39973 6.9375,9.234375 6.834375,9.06902 6.75,8.9276906 6.75,8.9203097 6.75,8.9129284 6.6867187,8.8081641 6.609375,8.6875 6.5320312,8.5668359 6.46875,8.4602412 6.46875,8.4506234 6.46875,8.4132441 6.2612647,8.1331628 6.1262975,7.9883516 6.04824,7.9046012 5.9262447,7.7960666 5.8551966,7.7471631 5.6923872,7.6350994 5.2945203,7.5 5.1273025,7.5 H 5 V 6.25 5 h 3 3 v 3 3 H 9.5009603 8.0019206 Z M 12,8.015625 c 0,-1.0914063 0.0071,-1.984375 0.01588,-1.984375 0.01617,0 2.917341,1.9269747 2.961369,1.9669597 C 14.997401,8.0165153 12.062917,10 12.015678,10 12.007055,10 12,9.1070313 12,8.015625 Z M 2.0232813,8.6735469 C 1.4774922,8.3086534 1.0239508,8.0031175 1.0154115,7.9945781 1.0011379,7.9803047 3.9488019,6 3.9843216,6 3.9929447,6 4,6.4262753 4,6.9472784 V 7.8945569 L 3.901999,7.9863409 C 3.8166806,8.0662463 3.46875,8.5661025 3.46875,8.6087697 c 0,0.00858 -0.059935,0.1106569 -0.1331897,0.2268481 C 3.2623056,8.9518094 3.1843281,9.0820313 3.1622769,9.125 3.1402253,9.1679688 3.0982077,9.2332444 3.0689041,9.2700572 3.0157761,9.3367994 3.0128103,9.3351075 2.0232813,8.6735469 Z M 0.31247975,5.7890625 C 0.49336963,5.1367925 0.91255359,4.222145 1.3042719,3.625 1.8994281,2.7177293 2.7156061,1.9014303 3.625,1.3039279 4.2255497,0.90934647 5.3773153,0.39514875 5.9453125,0.26804061 L 6.03125,0.24880925 V 0.76248178 1.2761543 L 5.8203125,1.3460313 C 4.7393612,1.7041162 3.7671613,2.3172808 2.96875,3.1445059 2.1970632,3.9440422 1.6810547,4.8130106 1.2963041,5.9609375 1.2865377,5.9900759 1.1524725,6 0.76859666,6 H 0.25398179 Z M 14.703696,5.9609375 C 14.319352,4.8142244 13.802558,3.9434875 13.033658,3.1471209 12.205232,2.2891012 11.262218,1.7062688 10.039063,1.2963041 10.009924,1.2865377 10,1.1524725 10,0.76859666 V 0.25398179 l 0.210938,0.058498 c 0.65227,0.18088984 1.566917,0.6000738 2.164062,0.99179211 0.907632,0.5953932 1.725335,1.4130962 2.320728,2.3207281 0.391719,0.597145 0.810902,1.5117925 0.991792,2.1640625 L 15.746018,6 H 15.231403 C 14.847528,6 14.713462,5.99008 14.703696,5.9609375 Z M 6.03125,3.9843216 c 0,-0.047238 1.9834847,-2.9817229 2.0017903,-2.9615664 C 8.0730253,1.0667835 10,3.9679525 10,3.9841241 10,3.9928559 9.1070313,4 8.015625,4 6.9242187,4 6.03125,3.9929447 6.03125,3.9843216 Z"
       id="path825"
       inkscape:connector-curvature="0" />
    <path
       style="fill:#00fe00;stroke-width:0.000357143"
       d="M 1.859375,14.493696 C 1.715635,14.443683 1.5731459,14.290263 1.5311587,14.140299 1.4804413,13.959154 1.5209617,13.833991 1.753625,13.453125 1.7851235,13.401563 1.8397157,13.310156 1.8749411,13.25 c 0.035225,-0.06016 0.098946,-0.165625 0.1416019,-0.234375 0.042656,-0.06875 0.105937,-0.174219 0.140625,-0.234375 0.034688,-0.06016 0.098134,-0.165625 0.140991,-0.234375 0.042857,-0.06875 0.092023,-0.153125 0.1092588,-0.1875 0.017235,-0.03438 0.073014,-0.125781 0.1239533,-0.203125 0.050939,-0.07734 0.1019549,-0.161719 0.1133689,-0.1875 0.011414,-0.02578 0.05079,-0.08906 0.087502,-0.140625 0.036712,-0.05156 0.083966,-0.128906 0.1050081,-0.171875 0.021042,-0.04297 0.066269,-0.123828 0.1005043,-0.179687 0.118196,-0.192854 0.1858672,-0.305075 0.2496865,-0.414063 0.035226,-0.06016 0.099166,-0.165625 0.1420894,-0.234375 0.042924,-0.06875 0.086856,-0.146094 0.097628,-0.171875 0.010772,-0.02578 0.050181,-0.08906 0.087576,-0.140625 0.037395,-0.05156 0.077206,-0.114844 0.088467,-0.140625 0.011261,-0.02578 0.055595,-0.103125 0.098518,-0.171875 C 3.7446434,10.134375 3.8085572,10.028906 3.84375,9.96875 3.8789428,9.9085938 3.9428566,9.803125 3.9857803,9.734375 4.0287041,9.665625 4.0730375,9.5882813 4.0842988,9.5625 4.09556,9.5367188 4.1353703,9.4734375 4.1727656,9.421875 4.2101613,9.3703125 4.2495703,9.3070313 4.2603419,9.28125 4.2711134,9.2554688 4.3150459,9.178125 4.3579697,9.109375 4.4008934,9.040625 4.46324,8.9351563 4.4965181,8.875 4.7276481,8.4571872 5.1294784,8.3945428 5.4233706,8.7305059 5.4998919,8.8179809 5.5625,8.8989281 5.5625,8.9103881 c 0,0.01146 0.056279,0.1101391 0.1250656,0.2192866 C 5.7563516,9.2388225 5.8264209,9.35625 5.843275,9.390625 5.860129,9.425 5.908984,9.509375 5.9518409,9.578125 5.9946979,9.646875 6.0585572,9.7523438 6.09375,9.8125 c 0.035193,0.060156 0.099107,0.165625 0.1420303,0.234375 0.042924,0.06875 0.086856,0.146094 0.097628,0.171875 0.010772,0.02578 0.050181,0.08906 0.087576,0.140625 0.037395,0.05156 0.077206,0.114844 0.088467,0.140625 0.011261,0.02578 0.055595,0.103125 0.098518,0.171875 0.042924,0.06875 0.1068375,0.174219 0.1420303,0.234375 0.035193,0.06016 0.099107,0.165625 0.1420303,0.234375 0.042924,0.06875 0.087257,0.146094 0.098518,0.171875 0.011261,0.02578 0.051071,0.08906 0.088467,0.140625 0.037396,0.05156 0.076805,0.114844 0.087576,0.140625 0.010771,0.02578 0.054704,0.103125 0.097628,0.171875 0.042924,0.06875 0.1068637,0.174219 0.1420894,0.234375 0.063819,0.108988 0.1314906,0.221209 0.2496865,0.414063 0.034235,0.05586 0.079462,0.136718 0.1005044,0.179687 0.021042,0.04297 0.066895,0.120313 0.1018953,0.171875 0.075608,0.111386 0.1191575,0.181255 0.204521,0.328125 0.034964,0.06016 0.09869,0.165625 0.141614,0.234375 0.042924,0.06875 0.08717,0.146094 0.098326,0.171875 0.011156,0.02578 0.045148,0.07931 0.075539,0.118956 0.030391,0.03964 0.078725,0.142737 0.1074081,0.229094 0.043892,0.132147 0.046162,0.178407 0.014331,0.292096 -0.04347,0.155259 -0.1860063,0.30404 -0.3407347,0.355663 -0.1431138,0.04775 -6.1625234,0.04573 -6.3000244,-0.0021 z M 7.0298087,13.382813 C 6.9939422,13.318359 6.9309003,13.209375 6.8897153,13.140625 6.8485306,13.071875 6.7858491,12.966406 6.7504234,12.90625 6.7149975,12.846094 6.6509481,12.740625 6.6080909,12.671875 6.5652341,12.603125 6.5160675,12.51875 6.4988322,12.484375 6.4815969,12.45 6.4261156,12.358594 6.3755406,12.28125 6.3249653,12.203906 6.2619244,12.098437 6.2354491,12.046875 6.2089737,11.995313 6.1454494,11.889844 6.0942834,11.8125 6.0431178,11.735156 5.9871531,11.64375 5.9699178,11.609375 5.9526825,11.575 5.9035159,11.490625 5.8606591,11.421875 5.8178019,11.353125 5.7539428,11.247656 5.71875,11.1875 5.6835572,11.127344 5.6198628,11.021875 5.5772069,10.953125 5.5345512,10.884375 5.4712434,10.778906 5.4365231,10.71875 5.3753244,10.612718 5.3173075,10.516137 5.1877916,10.304688 c -0.034215,-0.05586 -0.085849,-0.146871 -0.1147438,-0.202247 -0.047921,-0.09184 -0.055495,-0.09564 -0.086229,-0.0433 -0.018531,0.03156 -0.065669,0.112025 -0.1047496,0.178809 -0.039081,0.06678 -0.106121,0.177675 -0.1489782,0.246425 -0.042857,0.06875 -0.092023,0.153125 -0.1092587,0.1875 -0.017235,0.03438 -0.0732,0.125781 -0.1243656,0.203125 -0.051166,0.07734 -0.1146904,0.182813 -0.1411657,0.234375 -0.026475,0.05156 -0.089516,0.157031 -0.1400915,0.234375 -0.050575,0.07734 -0.1060563,0.16875 -0.1232916,0.203125 -0.017235,0.03438 -0.066402,0.11875 -0.1092587,0.1875 -0.042857,0.06875 -0.1069066,0.174219 -0.1423325,0.234375 -0.035426,0.06016 -0.098107,0.165625 -0.1392919,0.234375 -0.041185,0.06875 -0.1042756,0.174219 -0.1402019,0.234375 -0.035926,0.06016 -0.1003847,0.165625 -0.1432419,0.234375 -0.042857,0.06875 -0.092023,0.153125 -0.1092587,0.1875 -0.017235,0.03438 -0.073014,0.125781 -0.1239535,0.203125 -0.050939,0.07734 -0.1021635,0.161719 -0.1138325,0.1875 -0.011669,0.02578 -0.047053,0.0842 -0.078631,0.129824 -0.031578,0.04562 -0.057415,0.09133 -0.057415,0.101563 0,0.01024 0.9354422,0.01861 2.07876,0.01861 h 2.0787603 z"
       id="path823"
       inkscape:connector-curvature="0" />
    <path
       style="fill:#323232;stroke-width:0.000357143"
       d="M 8.1877928,11.321191 C 8.1277975,11.22188 8.0618347,11.108984 8.0412084,11.070313 L 8.0037066,11 H 9.5018531 11 V 8 5 H 8 5 V 6.25 7.5 H 4.8955916 C 4.8381666,7.5 4.7252484,7.519843 4.6446619,7.544097 L 4.4981403,7.588193 4.5068803,6.2026043 C 4.5153603,4.8589831 4.5175766,4.8144025 4.5800559,4.7307509 4.6154928,4.6833056 4.6833209,4.6154928 4.730785,4.5800559 4.8166237,4.5159678 4.8340247,4.515625 8,4.515625 c 3.165975,0 3.183376,3.437e-4 3.269215,0.064431 0.04746,0.035437 0.115292,0.103265 0.150729,0.1507291 0.06409,0.085839 0.06443,0.1032397 0.06443,3.269215 0,3.1659749 -3.44e-4,3.1833759 -0.06443,3.2692149 -0.03544,0.04746 -0.103251,0.115292 -0.150697,0.150729 -0.0838,0.06259 -0.127601,0.06468 -1.5293195,0.07312 l -1.4430525,0.0087 z"
       id="path821"
       inkscape:connector-curvature="0" />
    <path
       style="fill:#006500;stroke-width:0.000357143"
       d="M 1.6564719,14.96579 C 1.5355137,14.92288 1.4319344,14.852563 1.3057519,14.727697 0.92304994,14.348989 0.90180313,13.862068 1.2429629,13.288742 1.8327113,12.297657 1.9540762,12.095247 2.0156947,12 2.0546116,11.939844 2.2025031,11.69375 2.3443424,11.453125 2.4861817,11.2125 2.6338065,10.966406 2.6723977,10.90625 2.7109888,10.846094 2.8743147,10.575435 3.0353442,10.304787 3.1963738,10.034138 3.4152103,9.6685134 3.5216481,9.4922869 3.6280856,9.3160603 3.773275,9.0734375 3.8442909,8.953125 3.9153069,8.8328125 4.0057541,8.6803156 4.0452847,8.6142431 4.0848156,8.5481706 4.1989672,8.4114403 4.298955,8.3103981 4.5940006,8.0122412 4.9614944,7.927775 5.3673488,8.0648341 5.5269184,8.1187216 5.5931375,8.1655025 5.7595447,8.3419028 5.8696606,8.4586316 6.0188347,8.6579719 6.0910425,8.7848809 6.16325,8.9117903 6.3121247,9.1632812 6.421875,9.34375 6.5316253,9.5242187 6.6792816,9.7703125 6.75,9.890625 c 0.070718,0.120312 0.2156644,0.362935 0.3221019,0.539162 0.1064378,0.176226 0.3252744,0.541851 0.486304,0.8125 0.1610294,0.270648 0.3245904,0.541307 0.3634691,0.601463 0.038879,0.06016 0.2024397,0.330906 0.3634691,0.601665 0.1610297,0.27076 0.3662947,0.615291 0.456145,0.765625 0.2905209,0.486089 0.35035,0.790462 0.2262953,1.151255 -0.089707,0.260897 -0.347031,0.518545 -0.6048528,0.605612 -0.1837072,0.06204 -0.2528782,0.0633 -3.3611869,0.06106 -3.0630047,-0.0022 -3.1796026,-0.0044 -3.3452728,-0.06318 z M 8.1593994,14.495809 C 8.3141278,14.444186 8.4566644,14.295405 8.5001341,14.140146 8.531965,14.026457 8.5296953,13.980197 8.4858031,13.84805 8.45712,13.761693 8.4087862,13.6586 8.378395,13.618956 8.3480041,13.579311 8.3140116,13.525781 8.3028559,13.5 8.2917006,13.474219 8.2474541,13.396875 8.2045303,13.328125 8.1616066,13.259375 8.0978803,13.153906 8.0629162,13.09375 7.9775528,12.94688 7.9340034,12.877011 7.8583953,12.765625 7.823395,12.714063 7.7775422,12.636719 7.7565,12.59375 7.7354575,12.550781 7.6902306,12.469922 7.6559956,12.414063 7.5377997,12.221209 7.4701284,12.108988 7.4063091,12 7.3710834,11.939844 7.3071434,11.834375 7.2642197,11.765625 7.2212959,11.696875 7.1773634,11.619531 7.1665919,11.59375 7.1558203,11.567969 7.1164112,11.504687 7.0790156,11.453125 7.0416203,11.401563 7.00181,11.338281 6.9905487,11.3125 6.9792875,11.286719 6.9349541,11.209375 6.8920303,11.140625 6.8491066,11.071875 6.7851928,10.966406 6.75,10.90625 6.7148072,10.846094 6.6508934,10.740625 6.6079697,10.671875 6.5650459,10.603125 6.5207125,10.525781 6.5094512,10.5 6.49819,10.474219 6.4583797,10.410937 6.4209844,10.359375 6.3835887,10.307813 6.3441797,10.244531 6.3334081,10.21875 6.3226366,10.192969 6.2787041,10.115625 6.2357803,10.046875 6.1928566,9.978125 6.1289428,9.8726563 6.09375,9.8125 6.0585572,9.7523438 5.9946981,9.646875 5.9518409,9.578125 5.9089841,9.509375 5.8601294,9.425 5.843275,9.390625 5.8264209,9.35625 5.7563516,9.2388225 5.6875656,9.1296747 5.6187794,9.0205272 5.5625,8.9218481 5.5625,8.9103881 5.5625,8.8989281 5.4998919,8.8179809 5.4233706,8.7305059 5.1294784,8.3945428 4.7276481,8.4571872 4.4965181,8.875 4.46324,8.9351562 4.4008934,9.040625 4.3579697,9.109375 4.3150459,9.178125 4.2711134,9.2554687 4.2603419,9.28125 4.2495703,9.3070312 4.2101612,9.3703125 4.1727656,9.421875 4.1353703,9.4734375 4.09556,9.5367187 4.0842987,9.5625 4.0730375,9.5882812 4.0287041,9.665625 3.9857803,9.734375 3.9428566,9.803125 3.8789428,9.9085937 3.84375,9.96875 c -0.035193,0.060156 -0.099107,0.165625 -0.1420303,0.234375 -0.042924,0.06875 -0.087257,0.146094 -0.098518,0.171875 -0.011261,0.02578 -0.051071,0.08906 -0.088467,0.140625 -0.037396,0.05156 -0.076805,0.114844 -0.087576,0.140625 -0.010772,0.02578 -0.054704,0.103125 -0.097628,0.171875 -0.042924,0.06875 -0.1068637,0.174219 -0.1420894,0.234375 -0.063819,0.108988 -0.1314905,0.221209 -0.2496865,0.414062 -0.034235,0.05586 -0.079462,0.136719 -0.1005043,0.179688 -0.021042,0.04297 -0.068296,0.120312 -0.1050081,0.171875 -0.036712,0.05156 -0.076088,0.114844 -0.087502,0.140625 -0.011414,0.02578 -0.06243,0.110156 -0.1133689,0.1875 -0.050939,0.07734 -0.1067179,0.16875 -0.1239533,0.203125 -0.017235,0.03438 -0.066402,0.11875 -0.1092588,0.1875 -0.042857,0.06875 -0.1063029,0.174219 -0.140991,0.234375 -0.034688,0.06016 -0.097969,0.165625 -0.140625,0.234375 -0.042656,0.06875 -0.1063766,0.174219 -0.1416019,0.234375 -0.035225,0.06016 -0.089818,0.151562 -0.1213161,0.203125 -0.2326633,0.380866 -0.2731837,0.506029 -0.2224663,0.687174 0.041987,0.149963 0.1844763,0.303384 0.3282163,0.353397 0.137501,0.04784 6.1569106,0.04986 6.3000244,0.0021 z M 2.9375,13.481387 c 0,-0.01024 0.025837,-0.05594 0.057415,-0.101563 0.031578,-0.04562 0.066962,-0.104043 0.078631,-0.129824 0.011669,-0.02578 0.062894,-0.110156 0.1138326,-0.1875 0.050939,-0.07734 0.1067181,-0.16875 0.1239534,-0.203125 0.017235,-0.03438 0.066402,-0.11875 0.1092587,-0.1875 0.042857,-0.06875 0.107316,-0.174219 0.1432419,-0.234375 0.035926,-0.06016 0.099017,-0.165625 0.1402019,-0.234375 0.041185,-0.06875 0.1038662,-0.174219 0.1392919,-0.234375 0.035426,-0.06016 0.099475,-0.165625 0.1423325,-0.234375 0.042857,-0.06875 0.092023,-0.153125 0.1092587,-0.1875 0.017235,-0.03438 0.072717,-0.125781 0.1232916,-0.203125 0.050575,-0.07734 0.1136162,-0.182813 0.1400915,-0.234375 0.026475,-0.05156 0.09,-0.157031 0.1411657,-0.234375 0.051166,-0.07734 0.1071303,-0.16875 0.1243656,-0.203125 0.017235,-0.03438 0.066402,-0.11875 0.1092587,-0.1875 0.042857,-0.06875 0.1098972,-0.179641 0.1489782,-0.246425 0.039081,-0.06678 0.086218,-0.147248 0.1047497,-0.178809 0.030734,-0.05234 0.038308,-0.04854 0.086229,0.0433 0.028894,0.05538 0.080529,0.146387 0.1147438,0.202247 0.1295159,0.211449 0.1875328,0.30803 0.2487315,0.414062 0.03472,0.06016 0.098028,0.165625 0.1406838,0.234375 0.042656,0.06875 0.1063503,0.174219 0.1415431,0.234375 0.035193,0.06016 0.099052,0.165625 0.1419091,0.234375 0.042857,0.06875 0.092023,0.153125 0.1092587,0.1875 0.017235,0.03438 0.0732,0.125781 0.1243656,0.203125 0.051166,0.07734 0.1146904,0.182813 0.1411657,0.234375 0.026475,0.05156 0.089516,0.157031 0.1400915,0.234375 0.050575,0.07734 0.1060563,0.16875 0.1232916,0.203125 0.017235,0.03438 0.066402,0.11875 0.1092587,0.1875 0.042857,0.06875 0.1069066,0.174219 0.1423325,0.234375 0.035426,0.06016 0.098107,0.165625 0.1392919,0.234375 0.041185,0.06875 0.1042269,0.177734 0.1400935,0.242188 L 7.0950203,13.5 H 5.01626 C 3.8729422,13.5 2.9375,13.4916 2.9375,13.48139 Z M 6.106645,12.851563 C 6.0589081,12.769922 5.9802409,12.639844 5.9318284,12.5625 5.8834162,12.485156 5.8221741,12.379687 5.795735,12.328125 5.7692959,12.276563 5.7071513,12.171094 5.6576356,12.09375 5.6081197,12.016406 5.4935194,11.826563 5.4029678,11.671875 5.3124162,11.517188 5.2147006,11.355469 5.1858222,11.3125 5.1569437,11.269531 5.104725,11.186478 5.0697809,11.127936 l -0.063535,-0.106439 -0.06679,0.122064 c -0.069556,0.127119 -0.0853,0.153949 -0.3925809,0.669002 -0.103125,0.172854 -0.24375,0.410163 -0.3125,0.527353 -0.06875,0.11719 -0.1403478,0.23279 -0.1591063,0.256891 -0.018758,0.0241 -0.079556,0.124677 -0.1351059,0.223506 L 3.8391631,13 h 1.1771378 1.1771379 z"
       id="path819"
       inkscape:connector-curvature="0" />
  </g>
</svg>
