<?xml version="1.0" encoding="UTF-8" standalone="no"?>
<!-- Created with Inkscape (http://www.inkscape.org/) -->

<svg
   version="1.1"
   id="svg2"
   width="1600"
   height="1600"
   viewBox="0 0 1600 1600"
   sodipodi:docname="applyrotatedelta.svg"
   inkscape:version="1.2.2 (732a01da63, 2022-12-09)"
   xmlns:inkscape="http://www.inkscape.org/namespaces/inkscape"
   xmlns:sodipodi="http://sodipodi.sourceforge.net/DTD/sodipodi-0.dtd"
   xmlns="http://www.w3.org/2000/svg"
   xmlns:svg="http://www.w3.org/2000/svg"
   xmlns:rdf="http://www.w3.org/1999/02/22-rdf-syntax-ns#"
   xmlns:cc="http://creativecommons.org/ns#"
   xmlns:dc="http://purl.org/dc/elements/1.1/">
  <metadata
     id="metadata8">
    <rdf:RDF>
      <cc:Work
         rdf:about="">
        <dc:format>image/svg+xml</dc:format>
        <dc:type
           rdf:resource="http://purl.org/dc/dcmitype/StillImage" />
      </cc:Work>
    </rdf:RDF>
  </metadata>
  <defs
     id="defs6" />
  <sodipodi:namedview
     pagecolor="#808080"
     bordercolor="#666666"
     borderopacity="1"
     objecttolerance="10"
     gridtolerance="10"
     guidetolerance="10"
     inkscape:pageopacity="0"
     inkscape:pageshadow="2"
     inkscape:window-width="1993"
     inkscape:window-height="1009"
     id="namedview4"
     showgrid="false"
     inkscape:zoom="1.3037281"
     inkscape:cx="-158.39192"
     inkscape:cy="-43.720772"
     inkscape:window-x="-8"
     inkscape:window-y="-8"
     inkscape:window-maximized="1"
     inkscape:current-layer="APPLYROTATEDELTA"
     inkscape:showpageshadow="0"
     inkscape:pagecheckerboard="true"
     inkscape:deskcolor="#d1d1d1" />
  <g
     id="APPLYROTATEDELTA"
     transform="matrix(100,0,0,100,0,4.9999997e-5)"
     style="stroke-width:0.0114286">
    <path
       style="fill:none;stroke-width:0.000357143"
       d="M 0,8 V 0 h 8 8 v 8 8 H 8 0 Z m 8.3629316,6.967907 C 8.6207534,14.88084 8.8780778,14.623192 8.9677844,14.362295 9.0918391,14.001502 9.03201,13.697129 8.7414891,13.21104 8.6516388,13.060706 8.4463738,12.716175 8.2853441,12.445415 8.1243147,12.174656 7.9607537,11.903906 7.921875,11.84375 7.8829962,11.783594 7.7194353,11.512935 7.5584059,11.242287 7.3973762,10.971638 7.1785397,10.606013 7.0721019,10.429787 6.9656644,10.25356 6.8207184,10.010938 6.75,9.890625 6.6792816,9.7703125 6.5316253,9.5242187 6.421875,9.34375 6.3121247,9.1632813 6.16325,8.9117903 6.0910425,8.7848809 6.0188347,8.6579719 5.8696606,8.4586316 5.7595447,8.3419028 5.5931375,8.1655025 5.5269184,8.1187216 5.3673487,8.0648341 4.9614944,7.927775 4.5940006,8.0122413 4.298955,8.3103981 4.1989672,8.4114403 4.0848156,8.5481706 4.0452847,8.6142431 4.0057541,8.6803156 3.9153069,8.8328125 3.8442909,8.953125 3.773275,9.0734375 3.6280856,9.3160603 3.5216481,9.4922869 3.4152103,9.6685134 3.1963738,10.034138 3.0353442,10.304787 2.8743147,10.575435 2.7109888,10.846094 2.6723977,10.90625 2.6338065,10.966406 2.4861817,11.2125 2.3443424,11.453125 2.2025031,11.69375 2.0546116,11.939844 2.0156947,12 c -0.061619,0.09525 -0.1829834,0.297657 -0.7727318,1.288742 -0.34115978,0.573326 -0.31991296,1.060247 0.062789,1.438955 0.3253558,0.321961 0.039235,0.298639 3.6959928,0.30127 3.1083087,0.0022 3.1774797,9.81e-4 3.3611869,-0.06106 z M 3.9401628,12.820313 c 0.05555,-0.09883 0.1163478,-0.199406 0.1351059,-0.223506 0.018759,-0.0241 0.090356,-0.139701 0.1591063,-0.256891 0.06875,-0.11719 0.209375,-0.354499 0.3125,-0.527353 C 4.8541559,11.29751 4.8699,11.27068 4.9394559,11.143561 l 0.06679,-0.122064 0.063535,0.106439 c 0.034944,0.05854 0.087163,0.141595 0.1160413,0.184564 0.028878,0.04297 0.126594,0.204688 0.2171456,0.359375 0.090552,0.154688 0.2051519,0.344531 0.2546678,0.421875 0.049516,0.07734 0.1116603,0.182813 0.1380994,0.234375 0.026439,0.05156 0.087681,0.157031 0.1360934,0.234375 0.048413,0.07734 0.1270797,0.207422 0.1748166,0.289063 L 6.1934388,13 H 5.0163009 3.8391631 Z m 5.8254622,1.78699 c 2.581328,-0.447405 4.554613,-1.921296 5.215035,-3.895223 0.222251,-0.664285 0.243664,-0.8288956 0.260751,-2.0045569 0.01619,-1.1142394 -0.0066,-1.5126344 -0.117245,-2.0454506 C 14.949498,5.8206366 14.541546,4.9774662 13.962691,4.26149 L 13.757227,4.0073547 14.100625,3.66774 c 0.18887,-0.1867884 0.363025,-0.3848666 0.387012,-0.4401737 0.05394,-0.1243725 0.06238,-1.2675726 0.01037,-1.4052194 C 14.446296,1.6854683 14.315978,1.5685263 14.159016,1.5181465 14.080151,1.4928332 12.911719,1.2519518 11.5625,0.98285456 8.9744959,0.46668556 8.8972075,0.45580353 8.7261656,0.58350481 8.5214519,0.73634572 8.5165125,0.75624703 8.5060638,1.4703247 l -0.00956,0.6534325 0.48781,2.445934 c 0.2682956,1.3452635 0.5085209,2.5104597 0.5338344,2.5893251 0.098543,0.3070178 0.4182303,0.4550678 0.7094198,0.3285384 0.05531,-0.024032 0.359645,-0.3043534 0.676305,-0.6229356 l 0.575746,-0.57924 0.205504,0.2207162 c 0.481561,0.5172078 0.811644,1.0686359 0.939328,1.569216 0.07576,0.2970053 0.07837,0.415224 0.01457,0.6603106 -0.345453,1.3270541 -1.920158,2.2864101 -4.0762282,2.4833561 -0.2146859,0.01961 -0.3937825,0.0391 -0.3979925,0.04331 -0.00421,0.0042 0.055427,0.109969 0.1325253,0.23502 0.077099,0.125051 0.14018,0.231251 0.14018,0.236 0,0.0048 0.1357884,0.231933 0.3017525,0.504852 0.1659638,0.272918 0.3173525,0.52434 0.3364197,0.558715 0.019067,0.03438 0.093404,0.160937 0.1651925,0.28125 0.2805672,0.47021 0.3599209,0.944479 0.2282884,1.364403 -0.034153,0.108954 -0.062278,0.201613 -0.0625,0.205909 -8.343e-4,0.01614 0.085802,0.0062 0.3589719,-0.04113 z M 1.856079,11.30066 c 0.165094,-0.272919 0.300171,-0.500586 0.300171,-0.505928 0,-0.0053 0.084375,-0.145002 0.1875,-0.310357 0.103125,-0.165355 0.1875,-0.306684 0.1875,-0.314065 0,-0.0074 0.063281,-0.112146 0.140625,-0.23281 C 2.7492187,9.8168359 2.8125,9.7120716 2.8125,9.7046903 2.8125,9.6973094 2.896875,9.55598 3,9.390625 3.103125,9.22527 3.1875,9.0842853 3.1875,9.0773253 3.1875,9.0703653 3.228137,9.0005923 3.277804,8.922275 3.3560459,8.7989009 3.3644944,8.7643172 3.34105,8.6633772 3.2990363,8.4824875 3.3072047,8.3432581 3.3755506,8.0753112 3.5039641,7.5718728 3.8329563,7.0237491 4.3220959,6.4983003 L 4.5348166,6.2697894 5.1345959,6.8677662 c 0.3298785,0.3288872 0.6393663,0.612716 0.687751,0.6307304 0.29014,0.108024 0.5952509,-0.041927 0.6907565,-0.3394804 0.025313,-0.078865 0.2655388,-1.2440615 0.5338344,-2.589325 l 0.48781,-2.4459339 -0.00956,-0.6534326 C 7.5147375,0.75624703 7.5097981,0.73634572 7.3050844,0.58350481 7.1340425,0.45580353 7.0567541,0.46668556 4.46875,0.98285456 3.1195313,1.2519518 1.9510989,1.4928332 1.8722338,1.5181465 1.7152726,1.5685262 1.5849544,1.6854683 1.5332381,1.8223469 c -0.043614,0.115435 -0.043959,1.2698495 -4.144e-4,1.3865562 0.018053,0.048385 0.188113,0.2441931 0.3779111,0.4351303 L 2.2558224,3.9911919 2.0438338,4.2534084 C 1.4581196,4.9779 1.0512805,5.8168891 0.87583453,6.6620725 0.76523075,7.1948888 0.74239475,7.5932838 0.75858925,8.7075231 c 0.0135452,0.931961 0.0234308,1.0948694 0.0829231,1.3665169 0.0899062,0.410521 0.25956895,0.910554 0.41409975,1.220442 0.1193457,0.239329 0.2831174,0.521761 0.2948677,0.508513 0.00299,-0.0034 0.1405052,-0.229417 0.3055992,-0.502335 z"
       id="path829"
       inkscape:connector-curvature="0" />
    <path
       style="fill:#cbfefe;stroke-width:0.000357143"
       d="M 9.2175897,13.039063 C 9.1791809,12.974609 9.1235025,12.879687 9.0938594,12.828125 9.0642166,12.776563 8.9055031,12.512884 8.7411628,12.242173 8.4012691,11.682278 8.3924516,11.73694 8.828125,11.703086 c 0.9662522,-0.07508 2.1704,-0.474724 2.87434,-0.953956 0.305377,-0.207896 0.405603,-0.291122 0.660473,-0.548445 C 12.993058,9.5644984 13.289419,8.7469122 13.239942,7.78125 13.184865,6.7062741 12.836269,5.9577616 11.968856,5.0519431 11.801599,4.8772806 11.628386,4.6921875 11.583937,4.640625 l -0.08082,-0.09375 -0.751561,0.7497559 C 10.338203,5.7089966 10,6.0392159 10,6.0304519 10,6.0216878 9.7751538,4.8907844 9.5003419,3.5173334 9.22553,2.1438823 9.0050634,1.0157698 9.0104166,1.0104167 9.0157697,1.0050635 10.143883,1.2255298 11.517333,1.5003418 12.890784,1.7751538 14.021688,2 14.030452,2 c 0.0088,0 -0.320419,0.3365732 -0.731519,0.7479404 l -0.747453,0.7479405 0.42513,0.4392694 c 0.809118,0.8360272 1.287468,1.5879497 1.535422,2.4135413 0.383673,1.2774881 0.290808,2.681984 -0.247622,3.7450584 -0.70288,1.387763 -2.111096,2.404305 -3.981531,2.874128 -0.3252027,0.08168 -0.8670881,0.188016 -0.9594796,0.188272 -0.019787,6.3e-5 -0.067401,-0.05263 -0.1058097,-0.117087 z M 1.9908121,10.537743 C 1.3215363,9.5218456 1.0945369,8.1865313 1.3628446,6.84375 1.5743022,5.7854825 2.0709382,4.9176347 3.0325671,3.9259888 L 3.464965,3.4800938 2.7336603,2.7492858 C 2.3314427,2.3473413 2.0067439,2.0140895 2.0121073,2.008726 2.0280144,1.9928189 7.0102134,0.99979675 7.0208334,1.0104167 7.0261866,1.0157698 6.80572,2.1438823 6.5309081,3.5173334 6.2560962,4.8907844 6.03125,6.02169 6.03125,6.0304569 c 0,0.00877 -0.3421616,-0.3260082 -0.7603591,-0.7439441 L 4.5105319,4.5266287 4.4069225,4.6461269 C 4.3499375,4.7118509 4.1731769,4.9021322 4.0141213,5.0689741 3.3332856,5.7831403 2.9739373,6.419285 2.8229068,7.1777503 2.7835875,7.3752094 2.7683649,7.5990181 2.769106,7.96875 2.770216,8.5223391 2.80616,8.7531825 2.9512847,9.1387428 L 3.0301981,9.3483966 2.9213491,9.518555 C 2.8614821,9.6121422 2.8125,9.6953278 2.8125,9.7034122 c 0,0.00808 -0.063281,0.1134237 -0.140625,0.2340878 -0.077344,0.120664 -0.140625,0.224837 -0.140625,0.231494 0,0.03368 -0.3535046,0.581006 -0.3752547,0.581006 -0.013941,0 -0.088273,-0.09552 -0.1651832,-0.212257 z"
       id="path827"
       inkscape:connector-curvature="0" />
    <path
       style="fill:#989898;stroke-width:0.000357143"
       d="m 9.5308319,13.946728 c -3.625e-4,-0.157445 -0.080797,-0.451126 -0.2006466,-0.732609 -0.018532,-0.04353 0.013507,-0.05718 0.2067547,-0.08815 0.885867,-0.141947 1.939966,-0.498898 2.59297,-0.87806 1.41803,-0.823368 2.244198,-1.908276 2.526882,-3.3182528 0.03532,-0.1761553 0.07081,-0.3343447 0.07886,-0.3515322 0.0081,-0.017188 0.008,0.2148438 -6.2e-5,0.515625 -0.01621,0.60233 -0.07389,0.949805 -0.239951,1.445666 -0.559687,1.671209 -2.152434,2.943433 -4.323758,3.453651 -0.2234374,0.0525 -0.4589842,0.104304 -0.5234374,0.115113 l -0.1171875,0.01965 -4.187e-4,-0.181104 z M 1.7239436,11.072713 C 1.4267585,10.481357 1.2853783,9.8725003 1.2644167,9.09375 c -0.0081,-0.3007812 -0.00813,-0.5328125 -7.19e-5,-0.515625 0.00806,0.017188 0.043545,0.1753769 0.078862,0.3515322 0.1221421,0.609224 0.3419355,1.1499578 0.6607752,1.6256328 0.083748,0.124942 0.1522676,0.231681 0.1522676,0.2372 0,0.0055 -0.069613,0.125859 -0.1546946,0.267422 L 1.8468608,11.3173 Z M 2.7643885,8.3015459 C 2.728638,8.2135197 2.7709228,7.4555116 2.8280156,7.1609503 2.9705123,6.4257613 3.3371819,5.7790528 4.0141212,5.0689741 4.1731769,4.9021322 4.3499375,4.7118509 4.4069225,4.6461269 l 0.1036094,-0.1194981 0.760359,0.759884 C 5.6890884,5.7044488 6.0319362,6.0324419 6.0327747,6.0153859 6.0336122,5.99833 6.2572269,4.8804688 6.5296937,3.53125 l 0.4953944,-2.453125 0.00308,0.4693039 0.00308,0.4693039 -0.5,2.4988922 c -0.275,1.3743906 -0.5,2.506065 -0.5,2.5148319 0,0.00877 -0.3421616,-0.3260081 -0.7603591,-0.7439441 L 4.5105319,5.5266288 4.4069225,5.6461269 C 4.3499375,5.7118509 4.1731769,5.9021322 4.0141213,6.0689741 3.35118,6.7643697 2.9920756,7.3855366 2.8435728,8.09375 2.804512,8.2800322 2.7808594,8.3421013 2.7643885,8.3015459 Z M 13.173981,8.1790925 C 13.162204,8.0891853 13.110749,7.8904069 13.059638,7.7373622 12.864018,7.1516103 12.534849,6.642995 11.968856,6.0519431 11.801599,5.8772806 11.628386,5.6921875 11.583937,5.640625 l -0.08082,-0.09375 -0.751561,0.7497559 C 10.338203,6.7089966 10,7.0392159 10,7.0304519 10,7.0216878 9.775,5.8900156 9.5,4.515625 L 9,2.0167328 9.0030809,1.5474289 9.0061619,1.078125 9.5015563,3.53125 c 0.2724668,1.3492188 0.4960803,2.4670775 0.496919,2.4841309 8.375e-4,0.017053 0.3397277,-0.3063843 0.7530857,-0.71875 l 0.751561,-0.7497559 0.08082,0.09375 c 0.04445,0.051563 0.217662,0.2366556 0.384919,0.4113181 0.691007,0.7216013 1.058468,1.3655747 1.203434,2.1090072 0.06214,0.3186925 0.100598,1.1337156 0.05483,1.1620044 -0.01907,0.011786 -0.04026,-0.045595 -0.05314,-0.1438622 z M 12.796739,3.7498628 12.547692,3.4993472 13.289471,2.7575683 14.03125,2.0157895 v 0.500284 0.5002841 L 13.538517,3.5083681 13.045785,4.0003784 Z M 2.4761844,3.4918209 2,3.014892 V 2.5155079 2.0161237 L 2.7341546,2.7497797 3.4683091,3.4834356 3.2270753,3.7260928 C 3.0943965,3.8595544 2.9783099,3.96875 2.969105,3.96875 c -0.0092,0 -0.2310192,-0.2146181 -0.4929206,-0.4769291 z"
       id="path825"
       inkscape:connector-curvature="0" />
    <path
       style="fill:#00fe00;stroke-width:0.000357143"
       d="M 1.859375,14.493696 C 1.715635,14.443683 1.5731459,14.290263 1.5311587,14.140299 1.4804413,13.959154 1.5209617,13.833991 1.753625,13.453125 1.7851235,13.401563 1.8397157,13.310156 1.8749411,13.25 c 0.035225,-0.06016 0.098946,-0.165625 0.1416019,-0.234375 0.042656,-0.06875 0.105937,-0.174219 0.140625,-0.234375 0.034688,-0.06016 0.098134,-0.165625 0.140991,-0.234375 0.042857,-0.06875 0.092023,-0.153125 0.1092588,-0.1875 0.017235,-0.03438 0.073014,-0.125781 0.1239533,-0.203125 0.050939,-0.07734 0.1019549,-0.161719 0.1133689,-0.1875 0.011414,-0.02578 0.05079,-0.08906 0.087502,-0.140625 0.036712,-0.05156 0.083966,-0.128906 0.1050081,-0.171875 0.021042,-0.04297 0.066269,-0.123828 0.1005043,-0.179687 0.118196,-0.192854 0.1858672,-0.305075 0.2496865,-0.414063 0.035226,-0.06016 0.099166,-0.165625 0.1420894,-0.234375 0.042924,-0.06875 0.086856,-0.146094 0.097628,-0.171875 0.010772,-0.02578 0.050181,-0.08906 0.087576,-0.140625 0.037395,-0.05156 0.077206,-0.114844 0.088467,-0.140625 0.011261,-0.02578 0.055595,-0.103125 0.098518,-0.171875 C 3.7446434,10.134375 3.8085572,10.028906 3.84375,9.96875 3.8789428,9.9085938 3.9428566,9.803125 3.9857803,9.734375 4.0287041,9.665625 4.0730375,9.5882813 4.0842988,9.5625 4.09556,9.5367188 4.1353703,9.4734375 4.1727656,9.421875 4.2101613,9.3703125 4.2495703,9.3070313 4.2603419,9.28125 4.2711134,9.2554688 4.3150459,9.178125 4.3579697,9.109375 4.4008934,9.040625 4.46324,8.9351563 4.4965181,8.875 4.7276481,8.4571872 5.1294784,8.3945428 5.4233706,8.7305059 5.4998919,8.8179809 5.5625,8.8989281 5.5625,8.9103881 c 0,0.01146 0.056279,0.1101391 0.1250656,0.2192866 C 5.7563516,9.2388225 5.8264209,9.35625 5.843275,9.390625 5.860129,9.425 5.908984,9.509375 5.9518409,9.578125 5.9946979,9.646875 6.0585572,9.7523438 6.09375,9.8125 c 0.035193,0.060156 0.099107,0.165625 0.1420303,0.234375 0.042924,0.06875 0.086856,0.146094 0.097628,0.171875 0.010772,0.02578 0.050181,0.08906 0.087576,0.140625 0.037395,0.05156 0.077206,0.114844 0.088467,0.140625 0.011261,0.02578 0.055595,0.103125 0.098518,0.171875 0.042924,0.06875 0.1068375,0.174219 0.1420303,0.234375 0.035193,0.06016 0.099107,0.165625 0.1420303,0.234375 0.042924,0.06875 0.087257,0.146094 0.098518,0.171875 0.011261,0.02578 0.051071,0.08906 0.088467,0.140625 0.037396,0.05156 0.076805,0.114844 0.087576,0.140625 0.010771,0.02578 0.054704,0.103125 0.097628,0.171875 0.042924,0.06875 0.1068637,0.174219 0.1420894,0.234375 0.063819,0.108988 0.1314906,0.221209 0.2496865,0.414063 0.034235,0.05586 0.079462,0.136718 0.1005044,0.179687 0.021042,0.04297 0.066895,0.120313 0.1018953,0.171875 0.075608,0.111386 0.1191575,0.181255 0.204521,0.328125 0.034964,0.06016 0.09869,0.165625 0.141614,0.234375 0.042924,0.06875 0.08717,0.146094 0.098326,0.171875 0.011156,0.02578 0.045148,0.07931 0.075539,0.118956 0.030391,0.03964 0.078725,0.142737 0.1074081,0.229094 0.043892,0.132147 0.046162,0.178407 0.014331,0.292096 -0.04347,0.155259 -0.1860063,0.30404 -0.3407347,0.355663 -0.1431138,0.04775 -6.1625234,0.04573 -6.3000244,-0.0021 z M 7.0298087,13.382813 C 6.9939422,13.318359 6.9309003,13.209375 6.8897153,13.140625 6.8485306,13.071875 6.7858491,12.966406 6.7504234,12.90625 6.7149975,12.846094 6.6509481,12.740625 6.6080909,12.671875 6.5652341,12.603125 6.5160675,12.51875 6.4988322,12.484375 6.4815969,12.45 6.4261156,12.358594 6.3755406,12.28125 6.3249653,12.203906 6.2619244,12.098437 6.2354491,12.046875 6.2089737,11.995313 6.1454494,11.889844 6.0942834,11.8125 6.0431178,11.735156 5.9871531,11.64375 5.9699178,11.609375 5.9526825,11.575 5.9035159,11.490625 5.8606591,11.421875 5.8178019,11.353125 5.7539428,11.247656 5.71875,11.1875 5.6835572,11.127344 5.6198628,11.021875 5.5772069,10.953125 5.5345512,10.884375 5.4712434,10.778906 5.4365231,10.71875 5.3753244,10.612718 5.3173075,10.516137 5.1877916,10.304688 c -0.034215,-0.05586 -0.085849,-0.146871 -0.1147438,-0.202247 -0.047921,-0.09184 -0.055495,-0.09564 -0.086229,-0.0433 -0.018531,0.03156 -0.065669,0.112025 -0.1047496,0.178809 -0.039081,0.06678 -0.106121,0.177675 -0.1489782,0.246425 -0.042857,0.06875 -0.092023,0.153125 -0.1092587,0.1875 -0.017235,0.03438 -0.0732,0.125781 -0.1243656,0.203125 -0.051166,0.07734 -0.1146904,0.182813 -0.1411657,0.234375 -0.026475,0.05156 -0.089516,0.157031 -0.1400915,0.234375 -0.050575,0.07734 -0.1060563,0.16875 -0.1232916,0.203125 -0.017235,0.03438 -0.066402,0.11875 -0.1092587,0.1875 -0.042857,0.06875 -0.1069066,0.174219 -0.1423325,0.234375 -0.035426,0.06016 -0.098107,0.165625 -0.1392919,0.234375 -0.041185,0.06875 -0.1042756,0.174219 -0.1402019,0.234375 -0.035926,0.06016 -0.1003847,0.165625 -0.1432419,0.234375 -0.042857,0.06875 -0.092023,0.153125 -0.1092587,0.1875 -0.017235,0.03438 -0.073014,0.125781 -0.1239535,0.203125 -0.050939,0.07734 -0.1021635,0.161719 -0.1138325,0.1875 -0.011669,0.02578 -0.047053,0.0842 -0.078631,0.129824 -0.031578,0.04562 -0.057415,0.09133 -0.057415,0.101563 0,0.01024 0.9354422,0.01861 2.07876,0.01861 h 2.0787603 z"
       id="path823"
       inkscape:connector-curvature="0" />
    <path
       style="fill:#323232;stroke-width:0.000357143"
       d="m 9.4215328,14.601563 c 0.012083,-0.03008 0.045229,-0.149528 0.073656,-0.265445 0.049901,-0.203476 0.055464,-0.211392 0.1610612,-0.229173 0.060156,-0.01013 0.2921875,-0.06137 0.515625,-0.113878 2.17154,-0.510268 3.764062,-1.782417 4.323887,-3.454035 C 14.696303,9.9402241 14.727235,9.7042097 14.740473,8.671875 14.755842,7.4734259 14.710092,7.0081594 14.512032,6.3486916 14.298275,5.6369625 13.866829,4.9072559 13.256701,4.2255444 L 13.051421,3.9961806 13.541336,3.5055475 14.03125,3.0149143 V 2.5074571 C 14.03125,2.2283557 14.027485,2 14.022884,2 14.018282,2 12.890016,1.775 11.515625,1.5 10.141234,1.225 9.0129678,1 9.0083663,1 9.003765,1 9,1.2287649 9,1.5083664 V 2.0167328 L 9.5,4.515625 c 0.275,1.3743906 0.5,2.5060628 0.5,2.5148269 0,0.00876 0.338203,-0.3214553 0.751561,-0.733821 l 0.751561,-0.7497559 0.08082,0.09375 c 0.04445,0.051563 0.217662,0.2366556 0.384919,0.4113181 0.696729,0.7275772 1.064413,1.375526 1.20436,2.1223753 0.05941,0.3170641 0.03475,0.5188972 -0.113622,0.9298519 -0.372496,1.0317237 -1.300025,1.8159667 -2.690152,2.2745727 -0.4771929,0.157427 -1.1117858,0.290966 -1.541317,0.324343 -0.1375,0.01068 -0.2789284,0.0252 -0.3142853,0.03225 -0.051833,0.01034 -0.092535,-0.03356 -0.2101269,-0.226649 -0.080213,-0.131712 -0.1425615,-0.242757 -0.1385525,-0.246766 0.00401,-0.004 0.1829409,-0.02333 0.3976269,-0.04294 C 10.483835,11.0435 11.940612,10.273517 12.482076,9.1474291 12.604211,8.8934234 12.6875,8.6049491 12.6875,8.4359331 12.6875,8.2366716 12.566061,7.8375887 12.407454,7.515625 12.24118,7.1780959 12.010073,6.8551012 11.685121,6.5060953 l -0.205504,-0.2207162 -0.575746,0.57924 C 10.587211,7.1832013 10.282873,7.4635222 10.227566,7.4875547 9.9363769,7.6140841 9.61669,7.4660341 9.5181466,7.1590163 9.4928331,7.0801509 9.2526078,5.9149547 8.9843122,4.5696913 l -0.48781,-2.445934 0.00956,-0.6534326 C 8.5165125,0.75624703 8.5214519,0.73634572 8.7261656,0.58350481 8.8972075,0.45580353 8.9744959,0.46668556 11.5625,0.98285456 c 1.349219,0.26909724 2.517651,0.50997874 2.596516,0.53529194 0.156962,0.05038 0.28728,0.1673218 0.338996,0.3042004 0.05201,0.1376468 0.04357,1.2808469 -0.01037,1.4052194 C 14.463652,3.2828733 14.2895,3.4809516 14.10063,3.66774 L 13.757227,4.0073547 13.962691,4.26149 c 0.578855,0.7159763 0.986807,1.5591466 1.161475,2.4005825 0.110603,0.5328163 0.133439,0.9312113 0.117245,2.0454506 -0.01709,1.1756613 -0.0385,1.3402719 -0.260751,2.0045569 -0.397647,1.188523 -1.260569,2.198282 -2.509286,2.936271 -0.717614,0.424109 -1.768214,0.796455 -2.705749,0.958952 -0.3585141,0.06214 -0.3712759,0.06193 -0.3440922,-0.0057 z M 1.4628609,11.677361 C 1.2058056,11.265238 0.96800534,10.651621 0.84151222,10.07404 0.78202,9.8023925 0.77213441,9.6394841 0.75858916,8.7075231 0.74239466,7.5932837 0.76523066,7.1948887 0.87583444,6.6620725 1.0512804,5.8168891 1.4581195,4.9779 2.0438337,4.2534084 L 2.2558223,3.9911919 1.9107347,3.6440334 C 1.7209366,3.4530963 1.5508766,3.2572878 1.5328236,3.2089031 1.4892786,3.0921964 1.4896237,1.9377819 1.5332381,1.8223469 1.5849544,1.6854683 1.7152726,1.5685262 1.8722338,1.5181465 1.9510989,1.4928332 3.1195313,1.2519518 4.46875,0.98285456 7.0567541,0.46668556 7.1340425,0.45580353 7.3050844,0.58350481 7.5097981,0.73634572 7.5147375,0.75624703 7.5251862,1.4703247 l 0.00956,0.6534325 -0.48781,2.445934 C 6.7786422,5.9149547 6.5384169,7.0801509 6.5131034,7.1590163 6.4175978,7.45657 6.1124869,7.6065206 5.8223469,7.4984966 5.7739622,7.4804822 5.4644744,7.1966534 5.1345959,6.8677663 L 4.5348166,6.2697894 4.3220959,6.4983003 C 3.8329563,7.0237491 3.5039641,7.5718728 3.3755506,8.0753113 3.3072047,8.3432581 3.2990363,8.4824875 3.34105,8.6633772 3.3644944,8.7643172 3.3560459,8.7989009 3.2778044,8.922275 3.2281369,9.0005925 3.1875,9.0714106 3.1875,9.0796484 3.1875,9.1064372 3.0474009,9.311715 3.0288463,9.3121131 3.0004084,9.3127225 2.8499075,8.8477828 2.8107899,8.6384741 2.7817552,8.4831166 2.7846038,8.3994178 2.8265437,8.1755994 2.9654816,7.4341353 3.33129,6.7852331 4.0141213,6.0689741 4.1731769,5.9021322 4.3499375,5.7118509 4.4069225,5.6461269 l 0.1036094,-0.1194981 0.760359,0.759884 C 5.6890884,6.7044487 6.03125,7.0392237 6.03125,7.0304569 c 0,-0.00877 0.225,-1.1404413 0.5,-2.5148319 l 0.5,-2.4988922 V 1.5083664 C 7.03125,1.2287649 7.027485,1 7.0228837,1 7.0182822,1 5.8900156,1.225 4.515625,1.5 3.1412344,1.775 2.0129679,2 2.0083664,2 2.0037649,2 2,2.2286858 2,2.5081906 V 3.0163813 L 2.4821007,3.4977291 2.9642013,3.9790772 2.7294984,4.2428731 C 1.9856317,5.0789472 1.5497127,5.9085441 1.3628446,6.84375 1.2716247,7.3002719 1.2474275,7.7284206 1.2595264,8.671875 c 0.010431,0.8133691 0.021018,0.9799075 0.079959,1.2577822 0.087408,0.4120828 0.2295428,0.8347958 0.3841186,1.1423788 l 0.1225772,0.243912 -0.116015,0.193588 c -0.1972225,0.329096 -0.1753,0.315332 -0.2673053,0.167825 z"
       id="path821"
       inkscape:connector-curvature="0" />
    <path
       style="fill:#006500;stroke-width:0.000357143"
       d="M 1.6564719,14.96579 C 1.5355137,14.92288 1.4319344,14.852563 1.3057519,14.727697 0.92304994,14.348989 0.90180313,13.862068 1.2429629,13.288742 1.8327113,12.297657 1.9540762,12.095247 2.0156947,12 2.0546116,11.939844 2.2025031,11.69375 2.3443424,11.453125 2.4861817,11.2125 2.6338065,10.966406 2.6723977,10.90625 2.7109888,10.846094 2.8743147,10.575435 3.0353442,10.304787 3.1963738,10.034138 3.4152103,9.6685134 3.5216481,9.4922869 3.6280856,9.3160603 3.773275,9.0734375 3.8442909,8.953125 3.9153069,8.8328125 4.0057541,8.6803156 4.0452847,8.6142431 4.0848156,8.5481706 4.1989672,8.4114403 4.298955,8.3103981 4.5940006,8.0122412 4.9614944,7.927775 5.3673488,8.0648341 5.5269184,8.1187216 5.5931375,8.1655025 5.7595447,8.3419028 5.8696606,8.4586316 6.0188347,8.6579719 6.0910425,8.7848809 6.16325,8.9117903 6.3121247,9.1632812 6.421875,9.34375 6.5316253,9.5242187 6.6792816,9.7703125 6.75,9.890625 c 0.070718,0.120312 0.2156644,0.362935 0.3221019,0.539162 0.1064378,0.176226 0.3252744,0.541851 0.486304,0.8125 0.1610294,0.270648 0.3245904,0.541307 0.3634691,0.601463 0.038879,0.06016 0.2024397,0.330906 0.3634691,0.601665 0.1610297,0.27076 0.3662947,0.615291 0.456145,0.765625 0.2905209,0.486089 0.35035,0.790462 0.2262953,1.151255 -0.089707,0.260897 -0.347031,0.518545 -0.6048528,0.605612 -0.1837072,0.06204 -0.2528782,0.0633 -3.3611869,0.06106 -3.0630047,-0.0022 -3.1796026,-0.0044 -3.3452728,-0.06318 z M 8.1593994,14.495809 C 8.3141278,14.444186 8.4566644,14.295405 8.5001341,14.140146 8.531965,14.026457 8.5296953,13.980197 8.4858031,13.84805 8.45712,13.761693 8.4087862,13.6586 8.378395,13.618956 8.3480041,13.579311 8.3140116,13.525781 8.3028559,13.5 8.2917006,13.474219 8.2474541,13.396875 8.2045303,13.328125 8.1616066,13.259375 8.0978803,13.153906 8.0629162,13.09375 7.9775528,12.94688 7.9340034,12.877011 7.8583953,12.765625 7.823395,12.714063 7.7775422,12.636719 7.7565,12.59375 7.7354575,12.550781 7.6902306,12.469922 7.6559956,12.414063 7.5377997,12.221209 7.4701284,12.108988 7.4063091,12 7.3710834,11.939844 7.3071434,11.834375 7.2642197,11.765625 7.2212959,11.696875 7.1773634,11.619531 7.1665919,11.59375 7.1558203,11.567969 7.1164112,11.504687 7.0790156,11.453125 7.0416203,11.401563 7.00181,11.338281 6.9905487,11.3125 6.9792875,11.286719 6.9349541,11.209375 6.8920303,11.140625 6.8491066,11.071875 6.7851928,10.966406 6.75,10.90625 6.7148072,10.846094 6.6508934,10.740625 6.6079697,10.671875 6.5650459,10.603125 6.5207125,10.525781 6.5094512,10.5 6.49819,10.474219 6.4583797,10.410937 6.4209844,10.359375 6.3835887,10.307813 6.3441797,10.244531 6.3334081,10.21875 6.3226366,10.192969 6.2787041,10.115625 6.2357803,10.046875 6.1928566,9.978125 6.1289428,9.8726563 6.09375,9.8125 6.0585572,9.7523438 5.9946981,9.646875 5.9518409,9.578125 5.9089841,9.509375 5.8601294,9.425 5.843275,9.390625 5.8264209,9.35625 5.7563516,9.2388225 5.6875656,9.1296747 5.6187794,9.0205272 5.5625,8.9218481 5.5625,8.9103881 5.5625,8.8989281 5.4998919,8.8179809 5.4233706,8.7305059 5.1294784,8.3945428 4.7276481,8.4571872 4.4965181,8.875 4.46324,8.9351562 4.4008934,9.040625 4.3579697,9.109375 4.3150459,9.178125 4.2711134,9.2554687 4.2603419,9.28125 4.2495703,9.3070312 4.2101612,9.3703125 4.1727656,9.421875 4.1353703,9.4734375 4.09556,9.5367187 4.0842987,9.5625 4.0730375,9.5882812 4.0287041,9.665625 3.9857803,9.734375 3.9428566,9.803125 3.8789428,9.9085937 3.84375,9.96875 c -0.035193,0.060156 -0.099107,0.165625 -0.1420303,0.234375 -0.042924,0.06875 -0.087257,0.146094 -0.098518,0.171875 -0.011261,0.02578 -0.051071,0.08906 -0.088467,0.140625 -0.037396,0.05156 -0.076805,0.114844 -0.087576,0.140625 -0.010772,0.02578 -0.054704,0.103125 -0.097628,0.171875 -0.042924,0.06875 -0.1068637,0.174219 -0.1420894,0.234375 -0.063819,0.108988 -0.1314905,0.221209 -0.2496865,0.414062 -0.034235,0.05586 -0.079462,0.136719 -0.1005043,0.179688 -0.021042,0.04297 -0.068296,0.120312 -0.1050081,0.171875 -0.036712,0.05156 -0.076088,0.114844 -0.087502,0.140625 -0.011414,0.02578 -0.06243,0.110156 -0.1133689,0.1875 -0.050939,0.07734 -0.1067179,0.16875 -0.1239533,0.203125 -0.017235,0.03438 -0.066402,0.11875 -0.1092588,0.1875 -0.042857,0.06875 -0.1063029,0.174219 -0.140991,0.234375 -0.034688,0.06016 -0.097969,0.165625 -0.140625,0.234375 -0.042656,0.06875 -0.1063766,0.174219 -0.1416019,0.234375 -0.035225,0.06016 -0.089818,0.151562 -0.1213161,0.203125 -0.2326633,0.380866 -0.2731837,0.506029 -0.2224663,0.687174 0.041987,0.149963 0.1844763,0.303384 0.3282163,0.353397 0.137501,0.04784 6.1569106,0.04986 6.3000244,0.0021 z M 2.9375,13.481387 c 0,-0.01024 0.025837,-0.05594 0.057415,-0.101563 0.031578,-0.04562 0.066962,-0.104043 0.078631,-0.129824 0.011669,-0.02578 0.062894,-0.110156 0.1138326,-0.1875 0.050939,-0.07734 0.1067181,-0.16875 0.1239534,-0.203125 0.017235,-0.03438 0.066402,-0.11875 0.1092587,-0.1875 0.042857,-0.06875 0.107316,-0.174219 0.1432419,-0.234375 0.035926,-0.06016 0.099017,-0.165625 0.1402019,-0.234375 0.041185,-0.06875 0.1038662,-0.174219 0.1392919,-0.234375 0.035426,-0.06016 0.099475,-0.165625 0.1423325,-0.234375 0.042857,-0.06875 0.092023,-0.153125 0.1092587,-0.1875 0.017235,-0.03438 0.072717,-0.125781 0.1232916,-0.203125 0.050575,-0.07734 0.1136162,-0.182813 0.1400915,-0.234375 0.026475,-0.05156 0.09,-0.157031 0.1411657,-0.234375 0.051166,-0.07734 0.1071303,-0.16875 0.1243656,-0.203125 0.017235,-0.03438 0.066402,-0.11875 0.1092587,-0.1875 0.042857,-0.06875 0.1098972,-0.179641 0.1489782,-0.246425 0.039081,-0.06678 0.086218,-0.147248 0.1047497,-0.178809 0.030734,-0.05234 0.038308,-0.04854 0.086229,0.0433 0.028894,0.05538 0.080529,0.146387 0.1147438,0.202247 0.1295159,0.211449 0.1875328,0.30803 0.2487315,0.414062 0.03472,0.06016 0.098028,0.165625 0.1406838,0.234375 0.042656,0.06875 0.1063503,0.174219 0.1415431,0.234375 0.035193,0.06016 0.099052,0.165625 0.1419091,0.234375 0.042857,0.06875 0.092023,0.153125 0.1092587,0.1875 0.017235,0.03438 0.0732,0.125781 0.1243656,0.203125 0.051166,0.07734 0.1146904,0.182813 0.1411657,0.234375 0.026475,0.05156 0.089516,0.157031 0.1400915,0.234375 0.050575,0.07734 0.1060563,0.16875 0.1232916,0.203125 0.017235,0.03438 0.066402,0.11875 0.1092587,0.1875 0.042857,0.06875 0.1069066,0.174219 0.1423325,0.234375 0.035426,0.06016 0.098107,0.165625 0.1392919,0.234375 0.041185,0.06875 0.1042269,0.177734 0.1400935,0.242188 L 7.0950203,13.5 H 5.01626 C 3.8729422,13.5 2.9375,13.4916 2.9375,13.48139 Z M 6.106645,12.851563 C 6.0589081,12.769922 5.9802409,12.639844 5.9318284,12.5625 5.8834162,12.485156 5.8221741,12.379687 5.795735,12.328125 5.7692959,12.276563 5.7071513,12.171094 5.6576356,12.09375 5.6081197,12.016406 5.4935194,11.826563 5.4029678,11.671875 5.3124162,11.517188 5.2147006,11.355469 5.1858222,11.3125 5.1569437,11.269531 5.104725,11.186478 5.0697809,11.127936 l -0.063535,-0.106439 -0.06679,0.122064 c -0.069556,0.127119 -0.0853,0.153949 -0.3925809,0.669002 -0.103125,0.172854 -0.24375,0.410163 -0.3125,0.527353 -0.06875,0.11719 -0.1403478,0.23279 -0.1591063,0.256891 -0.018758,0.0241 -0.079556,0.124677 -0.1351059,0.223506 L 3.8391631,13 h 1.1771378 1.1771379 z"
       id="path819"
       inkscape:connector-curvature="0" />
  </g>
</svg>
