<?xml version="1.0" encoding="UTF-8" standalone="no"?>
<!-- Created with Inkscape (http://www.inkscape.org/) -->

<svg
   version="1.1"
   id="svg2"
   width="1600"
   height="1600"
   viewBox="0 0 1600 1600"
   sodipodi:docname="applyscale.svg"
   inkscape:version="1.2.2 (732a01da63, 2022-12-09)"
   xmlns:inkscape="http://www.inkscape.org/namespaces/inkscape"
   xmlns:sodipodi="http://sodipodi.sourceforge.net/DTD/sodipodi-0.dtd"
   xmlns="http://www.w3.org/2000/svg"
   xmlns:svg="http://www.w3.org/2000/svg"
   xmlns:rdf="http://www.w3.org/1999/02/22-rdf-syntax-ns#"
   xmlns:cc="http://creativecommons.org/ns#"
   xmlns:dc="http://purl.org/dc/elements/1.1/">
  <metadata
     id="metadata8">
    <rdf:RDF>
      <cc:Work
         rdf:about="">
        <dc:format>image/svg+xml</dc:format>
        <dc:type
           rdf:resource="http://purl.org/dc/dcmitype/StillImage" />
      </cc:Work>
    </rdf:RDF>
  </metadata>
  <defs
     id="defs6" />
  <sodipodi:namedview
     pagecolor="#808080"
     bordercolor="#666666"
     borderopacity="1"
     objecttolerance="10"
     gridtolerance="10"
     guidetolerance="10"
     inkscape:pageopacity="0"
     inkscape:pageshadow="2"
     inkscape:window-width="1993"
     inkscape:window-height="1009"
     id="namedview4"
     showgrid="false"
     inkscape:zoom="0.25"
     inkscape:cx="422"
     inkscape:cy="744"
     inkscape:window-x="-8"
     inkscape:window-y="-8"
     inkscape:window-maximized="1"
     inkscape:current-layer="APPLYSCALE"
     inkscape:showpageshadow="0"
     inkscape:pagecheckerboard="true"
     inkscape:deskcolor="#d1d1d1" />
  <g
     id="APPLYSCALE"
     transform="matrix(100,0,0,100,0,4.9999997e-5)"
     style="stroke-width:0.0114286">
    <path
       style="fill:none;stroke-width:0.000357143"
       d="M 0,8 V 0 h 8 8 v 8 8 H 8 0 Z m 10.513892,7.438096 c 0.09896,-0.03405 0.231239,-0.09244 0.293955,-0.129764 0.153631,-0.09143 4.322065,-4.251165 4.45826,-4.448957 C 15.437321,10.610725 15.5,10.384932 15.5,10.016801 15.5,9.7770787 15.483969,9.6521644 15.434344,9.5052194 15.300111,9.1077309 14.923519,8.7311394 14.526031,8.5969056 14.379086,8.5472812 14.254171,8.53125 14.014449,8.53125 c -0.336261,0 -0.560644,0.054407 -0.791046,0.1918091 -0.06271,0.037401 -0.810369,0.7618162 -1.661453,1.6098119 l -1.547424,1.541811 -0.4682007,-0.469664 c -0.5183684,-0.51999 -0.6921353,-0.654663 -0.96528,-0.748116 -0.2612025,-0.08937 -0.7448194,-0.08817 -1.0133259,0.0025 -0.3974885,0.134234 -0.77408,0.510825 -0.9083138,0.908314 -0.049624,0.146945 -0.065656,0.271859 -0.065656,0.511581 0,0.336543 0.054567,0.561308 0.1920425,0.791046 0.084648,0.141456 2.1420603,2.217203 2.3504409,2.371387 0.2520557,0.186499 0.4825391,0.254749 0.866687,0.256638 0.251854,0.0012 0.374087,-0.01318 0.510972,-0.06028 z M 3.5625,14.022501 c 1.3320312,-0.267506 2.4754484,-0.495298 2.5409269,-0.506204 0.072874,-0.01214 0.1665753,-0.06276 0.2415706,-0.130517 L 6.4675159,13.275092 6.3686737,13.13143 c -0.054363,-0.07901 -0.1382725,-0.256926 -0.186465,-0.395359 -0.07789,-0.223738 -0.087669,-0.295402 -0.088041,-0.645167 -2.5e-4,-0.245284 0.01579,-0.447326 0.042618,-0.536469 l 0.043036,-0.142998 -0.1208947,-0.11805 -0.1208947,-0.118051 0.070046,-0.07474 c 0.068763,-0.07337 1.3475631,-1.032093 1.7750115,-1.3307398 l 0.2175747,-0.152014 0.1785006,0.120764 c 0.098175,0.06642 0.26326,0.1891591 0.3668547,0.2727538 0.103595,0.08359 0.2516357,0.180572 0.3289794,0.215506 0.2153509,0.09727 0.4927619,0.294028 0.734375,0.520874 0.1203125,0.112959 0.2648697,0.247082 0.3212378,0.298051 l 0.102488,0.09267 1.186574,-1.186266 c 0.652617,-0.6524466 1.186575,-1.1946262 1.186575,-1.2048438 0,-0.022167 -0.305165,-0.2697668 -0.574472,-0.4661062 -0.608447,-0.4435913 -1.020281,-0.7623347 -1.012516,-0.7836469 0.0095,-0.026119 0.674916,-0.529424 0.960575,-0.7265744 0.09531,-0.065778 0.215475,-0.1585756 0.267038,-0.2062168 0.145558,-0.1344894 0.398896,-0.3172947 0.426517,-0.3077694 0.01369,0.00472 0.30392,0.2864272 0.644962,0.626015 L 13.738429,7.50049 13.314527,7.9249972 C 13.041248,8.1986659 12.935041,8.3213609 13.015625,8.2703 c 0.06875,-0.043563 0.236704,-0.1164303 0.37323,-0.1619288 0.230805,-0.076917 0.279618,-0.081979 0.695336,-0.07211 0.303832,0.00721 0.447098,-1.25e-4 0.447082,-0.022882 -6.2e-5,-0.107942 -0.112802,-0.3361126 -0.206853,-0.4186901 L 14.216575,7.5 14.32501,7.4047928 c 0.06604,-0.05798 0.126897,-0.1526781 0.155651,-0.2421875 0.02597,-0.080839 0.266731,-1.2476506 0.535027,-2.5929141 l 0.48781,-2.4459339 -0.0096,-0.6534326 C 15.483488,0.75624703 15.478548,0.73634572 15.273834,0.58350481 15.102793,0.45580353 15.025504,0.46668556 12.4375,0.98285456 11.088281,1.2519518 9.9198491,1.4928332 9.8409838,1.5181465 9.6840225,1.5685262 9.5537044,1.6854683 9.5019881,1.8223469 c -0.043652,0.115535 -0.043959,1.2698909 -3.687e-4,1.3865562 0.018078,0.048385 0.15377,0.2098888 0.3015368,0.3588985 L 10.071823,3.8387281 9.981224,3.9195871 C 9.886855,4.0038109 8.5424,5.0105703 8.2149859,5.2421875 8.1117272,5.3152344 8.0149834,5.375 8,5.375 7.9850166,5.375 7.8882728,5.3152344 7.7850141,5.2421875 7.4576,5.0105703 6.113145,4.0038109 6.0187759,3.9195872 L 5.9281766,3.8387281 6.1968437,3.5678016 C 6.3446106,3.4187919 6.4803022,3.2572878 6.4983806,3.2089031 6.5419709,3.0922378 6.5416641,1.9378819 6.4980119,1.8223469 6.4462956,1.6854683 6.3159775,1.5685262 6.1590163,1.5181465 6.0801509,1.4928332 4.9117188,1.2519518 3.5625,0.98285456 0.97449603,0.46668556 0.89720753,0.45580353 0.72616553,0.58350481 0.52145175,0.73634572 0.51651241,0.75624703 0.50606362,1.4703247 l -0.009561,0.6534325 0.48781003,2.445934 C 1.2526081,5.9149547 1.49337,7.0817662 1.519339,7.1626053 c 0.028852,0.089815 0.08964,0.1842288 0.1562924,0.2427506 l 0.1090761,0.09577 -0.099728,0.083915 c -0.05485,0.046154 -0.1199902,0.13241 -0.1447552,0.1916812 -0.024765,0.059271 -0.271932,1.2271153 -0.5492596,2.5952099 l -0.50423222,2.487443 -0.0106719,0.59375 c -0.0123178,0.685323 -0.003182,0.759847 0.10957122,0.893847 C 0.69621612,14.478394 0.82905381,14.533921 1,14.520179 1.077344,14.513979 2.2304688,14.290006 3.5625,14.022501 Z M 2.8889482,8.1246853 2.2622714,7.4997925 2.8819963,6.8827087 C 3.222845,6.5433128 3.5129203,6.2617628 3.5266084,6.2570425 c 0.027621,-0.00953 0.2809582,0.17328 0.4265166,0.3077694 0.051563,0.047641 0.1717294,0.140439 0.2670375,0.2062168 0.2856591,0.1971504 0.9510578,0.700455 0.9605753,0.7265744 C 5.1885337,7.5189991 4.7556175,7.8538672 4.1676425,8.28125 4.0612362,8.3585938 3.885065,8.4952269 3.7761506,8.5848794 3.6672366,8.6745319 3.5640625,8.748265 3.546875,8.7487306 3.5296875,8.7491963 3.2336203,8.4683759 2.8889482,8.1246853 Z M 15.304052,14.448516 c 0.04549,-0.03396 0.111705,-0.100571 0.147142,-0.148015 0.06045,-0.08093 0.06443,-0.128153 0.06435,-0.763694 -9.4e-5,-0.664749 -0.0023,-0.687963 -0.118843,-1.239932 -0.06532,-0.309375 -0.125685,-0.582889 -0.134148,-0.607809 -0.01008,-0.02969 -0.434546,0.373748 -1.231492,1.170498 -0.668859,0.668694 -1.211831,1.220083 -1.206606,1.225308 0.0052,0.0052 0.463908,0.100627 1.019295,0.212003 0.555387,0.111376 1.018137,0.21103 1.028334,0.221453 0.03962,0.0405 0.351793,-0.01 0.431968,-0.06981 z"
       id="path829"
       inkscape:connector-curvature="0" />
    <path
       style="fill:#cbfefe;stroke-width:0.000357143"
       d="M 1,12.991634 C 1,12.987032 1.225,11.858766 1.5,10.484375 1.775,9.1099844 2,7.9783122 2,7.9695481 2,7.9607841 2.3356063,8.2890009 2.7457917,8.6989194 L 3.4915834,9.4442256 3.8004791,9.2181203 C 3.9703719,9.0937625 4.1515625,8.9529222 4.203125,8.9051413 4.2546875,8.8573606 4.3839734,8.7572041 4.4904272,8.6825713 4.7408512,8.5070034 6.4854475,7.2023956 6.65625,7.0629706 6.7335331,6.999885 6.7337016,6.9986944 6.671875,6.952495 6.6375,6.9268084 6.5179687,6.8365891 6.40625,6.7520078 5.8157837,6.30497 4.6904769,5.4670212 4.5216772,5.3486787 4.4152234,5.2740459 4.2859375,5.1737931 4.234375,5.1258947 4.1828125,5.0779962 3.9933203,4.9313941 3.8132813,4.8001116 L 3.4859375,4.5614169 2.7429687,5.3039016 C 2.3343359,5.7122684 2,6.0392159 2,6.0304519 2,6.0216878 1.7751538,4.8907844 1.5003418,3.5173334 1.2255298,2.1438823 1.0050635,1.0157698 1.0104167,1.0104167 1.0157698,1.0050635 2.1438823,1.2255298 3.5173334,1.5003418 4.8907844,1.7751538 6.0216878,2 6.0304519,2 6.0392159,2 5.71253,2.3340741 5.3044831,2.7423869 L 4.5625794,3.4847738 4.9598325,3.7814494 c 0.2184891,0.1631715 0.4751116,0.350494 0.5702725,0.4162718 0.095161,0.065778 0.2152075,0.1589472 0.26677,0.2070429 0.089099,0.083109 1.3022144,0.9890943 1.7112956,1.2780396 C 7.614015,5.7575647 7.7629253,5.8735803 7.8390822,5.9406162 7.9152391,6.0076522 7.9876522,6.0625 8,6.0625 8.012348,6.0625 8.084761,6.007652 8.1609178,5.9406162 8.2370747,5.8735803 8.385985,5.7575647 8.4918294,5.6828037 8.9009106,5.3938584 10.114026,4.4878728 10.203125,4.4047641 c 0.05156,-0.048096 0.171609,-0.141265 0.26677,-0.2070429 0.09516,-0.065778 0.351783,-0.2531003 0.570272,-0.4162718 L 11.437421,3.4847737 10.695517,2.7423869 C 10.28747,2.3340741 9.9607841,2 9.9695481,2 9.9783122,2 11.109216,1.7751538 12.482667,1.5003418 13.856118,1.2255298 14.98423,1.0050635 14.989583,1.0104167 14.994937,1.0157698 14.77447,2.1438823 14.499658,3.5173334 14.224846,4.8907844 14,6.0216878 14,6.0304519 14,6.0392159 13.665664,5.7122684 13.257031,5.3039016 L 12.514063,4.5614169 12.186719,4.8001116 C 12.00668,4.9313941 11.817188,5.0779962 11.765625,5.1258947 11.714063,5.1737931 11.584777,5.2740459 11.478323,5.3486787 11.309523,5.4670212 10.184216,6.30497 9.59375,6.7520078 9.4820313,6.8365891 9.3625,6.9268084 9.328125,6.952495 9.266298,6.998694 9.266467,6.999885 9.34375,7.0629706 c 0.1238688,0.1011135 1.753813,1.3238085 2.186449,1.6401544 0.117529,0.085937 0.284053,0.2139719 0.370055,0.2845209 l 0.156367,0.1282707 -0.538639,0.537979 -0.538639,0.5379794 -0.184984,-0.142706 C 10.37803,9.7279925 8.8992428,8.6186813 8.5000903,8.328125 8.3820334,8.2421875 8.2212172,8.1174466 8.1427206,8.0509231 L 8,7.9299713 7.8572794,8.0509231 C 7.7787828,8.1174466 7.6179006,8.2421875 7.4997631,8.328125 6.8042616,8.8340581 5.8459991,9.5515156 5.765625,9.6264859 5.7140625,9.6745816 5.5938956,9.7677509 5.4985875,9.8335287 5.4032794,9.8993066 5.1548081,10.080937 4.9464291,10.237152 l -0.378871,0.284026 0.7306681,0.730172 c 0.4018675,0.401595 0.72628,0.734561 0.7209166,0.739924 C 6.0113825,11.999034 1.0391548,13 1.0083664,13 1.0037649,13 1,12.996235 1,12.991634 Z m 13.525705,-0.08086 c -0.217893,-0.04546 -0.40375,-0.09038 -0.413014,-0.09983 -0.0093,-0.0094 0.14381,-0.177378 0.340165,-0.373176 0.239806,-0.239125 0.362016,-0.341206 0.372259,-0.310945 0.0084,0.02478 0.04525,0.19974 0.08191,0.388802 0.03666,0.189063 0.0741,0.375391 0.0832,0.414063 0.02007,0.08529 0.03859,0.08605 -0.464523,-0.01891 z M 13.953125,8 c 0.01062,-0.017188 0.02552,-0.03125 0.03309,-0.03125 C 13.993799,7.96875 14,7.9828125 14,8 14,8.017188 13.98511,8.03125 13.96691,8.03125 13.94871,8.03125 13.94251,8.017188 13.95313,8 Z"
       id="path827"
       inkscape:connector-curvature="0" />
    <path
       style="fill:#989898;stroke-width:0.000357143"
       d="M 0.96875,13.518651 V 13.009304 L 3.4765625,12.50759 c 1.3792969,-0.275942 2.5106825,-0.498994 2.5141903,-0.49567 0.00351,0.0033 0.00838,0.229446 0.010827,0.502493 l 0.00445,0.496448 -0.073328,0.01066 C 5.7552284,13.047338 1.1318523,13.97461 1.0546875,13.999869 L 0.96875,14.027999 Z m 14.025792,0.496724 c -0.0087,-0.0087 -0.400025,-0.09299 -0.869542,-0.18725 -0.469517,-0.09426 -0.857978,-0.175686 -0.863247,-0.180956 -0.0053,-0.0053 0.176259,-0.194256 0.403396,-0.41997 l 0.412976,-0.41039 0.476563,0.0961 0.476562,0.0961 v 0.511125 c 0,0.281119 -0.0047,0.511125 -0.01042,0.511125 -0.0057,0 -0.01756,-0.0071 -0.02629,-0.01587 z M 4.8521697,10.805717 4.5676003,10.521148 4.94645,10.237136 C 5.1548175,10.08093 5.4032794,9.8993066 5.4985875,9.8335288 5.5938956,9.7677509 5.7140625,9.6745816 5.765625,9.6264859 5.8459991,9.5515156 6.8042616,8.8340581 7.4997631,8.328125 7.6179006,8.2421875 7.7787828,8.1174466 7.8572794,8.0509231 L 8,7.9299713 8.1427206,8.0509231 c 0.078497,0.066523 0.2393128,0.1912644 0.3573697,0.2772019 0.3787188,0.2756819 1.9182227,1.4299453 2.2609177,1.695153 0.0834,0.06454 0.167774,0.12747 0.1875,0.139842 0.02284,0.01433 -0.06604,0.124984 -0.244731,0.304688 C 10.549448,10.623013 10.412378,10.75 10.399179,10.75 c -0.0132,0 -0.07677,-0.04709 -0.141276,-0.104643 C 10.15648,10.554862 9.1592056,9.8074828 8.5002369,9.328125 8.3820994,9.2421875 8.2212172,9.1174466 8.1427206,9.0509231 L 8,8.9299713 7.8572794,9.0509231 c -0.078497,0.066523 -0.2393128,0.1912644 -0.3573697,0.2772019 -0.3308753,0.2408553 -1.984405,1.479211 -2.2001803,1.647752 -0.049993,0.03905 -0.1071172,0.08076 -0.1269432,0.0927 -0.021401,0.01289 -0.1516709,-0.09392 -0.3206165,-0.262864 z M 5.4349069,7.0226638 C 5.0811369,6.76098 4.7506681,6.5146369 4.7005319,6.4752344 4.6503956,6.4358322 4.5299113,6.3444259 4.4327891,6.2721094 4.3356669,6.1997931 4.08298,6.0102169 3.8712625,5.8508291 L 3.4863216,5.5610328 2.7431608,6.3037097 C 2.3344223,6.7121822 2,7.0392159 2,7.0304519 2,7.0216878 1.775,5.8900156 1.5,4.515625 L 1,2.0167328 1.0030809,1.5474289 1.0061619,1.078125 1.5015562,3.53125 C 1.774023,4.8804688 1.9976366,5.9983275 1.9984752,6.0153809 1.999314,6.0324341 2.3343359,5.7122684 2.7429687,5.3039016 L 3.4859375,4.5614169 3.8132812,4.8001116 c 0.1800391,0.1312825 0.3695313,0.2778846 0.4210938,0.3257831 0.051563,0.047898 0.1809147,0.1481512 0.2874494,0.222784 0.3698331,0.2590869 1.6194603,1.1926247 1.7377681,1.2982057 0.065432,0.058393 0.1963575,0.155675 0.2909453,0.2161822 0.094588,0.060507 0.1665275,0.1263628 0.1598663,0.1463462 -0.00666,0.019984 -0.1024304,0.097651 -0.2128203,0.1725941 C 6.3871941,7.2569503 6.2540181,7.3591572 6.2016372,7.4091337 6.1492566,7.45911 6.1000378,7.4996519 6.0922622,7.4992262 6.0844869,7.4988012 5.7886769,7.2843475 5.4349069,7.0226638 Z m 4.3705365,0.393575 C 9.7591794,7.369975 9.6269406,7.2677722 9.5115794,7.1891216 9.3962181,7.1104709 9.2963537,7.0296863 9.2896581,7.0095997 9.2829628,6.9895134 9.3548747,6.9235734 9.4494622,6.8630666 9.54405,6.8025594 9.6749753,6.7052775 9.7404075,6.6468844 9.8587153,6.5413034 11.108342,5.6077656 11.478176,5.3486788 11.58471,5.2740459 11.714062,5.1737931 11.765625,5.1258947 11.817187,5.0779963 12.00668,4.9313941 12.186719,4.8001116 l 0.327344,-0.2386947 0.742968,0.7424847 c 0.408633,0.4083668 0.743655,0.7285325 0.744494,0.7114793 8.37e-4,-0.017053 0.224452,-1.1349121 0.496919,-2.4841309 l 0.495394,-2.453125 0.0031,0.4693039 L 15,2.0167328 14.5,4.515625 C 14.225,5.8900156 14,7.0216878 14,7.0304519 14,7.0392159 13.665664,6.7122684 13.257031,6.3039016 L 12.514063,5.5614169 12.186719,5.8001116 C 12.00668,5.9313941 11.817188,6.0779962 11.765625,6.1258947 11.714065,6.1737927 11.58484,6.2740459 11.478464,6.3486787 11.372088,6.4233117 10.98171,6.709375 10.610957,6.984375 10.240204,7.259375 9.9262181,7.4879706 9.9132103,7.492365 9.9002023,7.496755 9.8517073,7.462503 9.8054434,7.4162388 Z M 4.8506512,3.6963363 4.5608553,3.4865094 5.28824,2.7585677 6.015625,2.030626 6.0242659,2.5221648 6.0329066,3.0137035 5.5866769,3.4599334 5.1404472,3.9061631 Z M 10.411171,3.4580544 9.9670959,3.0131861 l 0.00864,-0.49128 0.00864,-0.4912801 0.7277831,0.7283406 0.727784,0.7283406 -0.257196,0.1860337 c -0.141459,0.1023188 -0.273015,0.1958322 -0.292349,0.2078079 -0.02076,0.012858 -0.216989,-0.1603879 -0.479227,-0.4230944 z"
       id="path825"
       inkscape:connector-curvature="0" />
    <path
       style="fill:#00fe00;stroke-width:0.000357143"
       d="M 9.6770431,14.953165 C 9.4659447,14.873057 9.2856266,14.710823 8.2633784,13.681277 7.1069887,12.516631 7.109375,12.519946 7.109375,12.078125 c 0,-0.328552 0.063605,-0.493752 0.2693016,-0.699448 0.2056959,-0.205697 0.3708962,-0.269302 0.6994484,-0.269302 0.4226881,0 0.4716963,0.03159 1.2577869,0.810649 0.3652203,0.361956 0.6713271,0.658101 0.6802381,0.658101 0.0089,0 0.778845,-0.76052 1.710963,-1.690045 1.320605,-1.3169284 1.729258,-1.7067303 1.851012,-1.7656247 0.221916,-0.1073437 0.650929,-0.1089865 0.865465,-0.00331 0.187258,0.092236 0.376282,0.2812609 0.468519,0.468519 0.105477,0.2141403 0.104002,0.6433087 -0.003,0.8654647 -0.110421,0.229308 -4.227956,4.346676 -4.45601,4.455828 -0.193361,0.09255 -0.5892743,0.115102 -0.7760815,0.04421 z"
       id="path823"
       inkscape:connector-curvature="0" />
    <path
       style="fill:#323232;stroke-width:0.000357143"
       d="m 0.76407572,14.488634 c -0.12616738,-0.05673 -0.25711031,-0.216175 -0.28013797,-0.341117 -0.010202,-0.05535 -0.0137468,-0.367829 -0.007877,-0.694392 l 0.0106719,-0.59375 0.50423222,-2.487443 C 1.2682922,9.0038378 1.5154591,7.8359937 1.5402242,7.7767225 1.5649893,7.7174512 1.6301291,7.631195 1.6849794,7.5850412 l 0.099728,-0.083915 -0.1090761,-0.09577 C 1.6089783,7.3468341 1.548191,7.2524203 1.5193387,7.1626053 1.4933697,7.0817662 1.2526078,5.9149547 0.98431231,4.5696912 L 0.49650228,2.1237573 0.50606362,1.4703247 C 0.51651241,0.75624703 0.52145175,0.73634572 0.72616553,0.58350481 0.89720753,0.45580353 0.97449603,0.46668556 3.5625,0.98285456 4.9117188,1.2519518 6.0801509,1.4928332 6.1590163,1.5181465 c 0.1569612,0.05038 0.2872793,0.1673218 0.3389956,0.3042004 0.043652,0.115535 0.043959,1.2698909 3.687e-4,1.3865562 -0.018078,0.048385 -0.15377,0.2098888 -0.3015369,0.3588985 l -0.2686671,0.2709265 0.090599,0.080859 C 6.113145,4.0038109 7.4576,5.0105703 7.7850141,5.2421875 7.8882728,5.3152344 7.9850166,5.375 8,5.375 8.0149834,5.375 8.1117272,5.3152344 8.2149859,5.2421875 8.5424,5.0105703 9.886855,4.0038109 9.9812241,3.9195872 L 10.071823,3.8387281 9.8031563,3.5678016 C 9.6553894,3.4187919 9.5196978,3.2572878 9.5016194,3.2089031 9.4580291,3.0922378 9.4583359,1.9378819 9.5019881,1.8223469 9.5537044,1.6854683 9.6840225,1.5685262 9.8409838,1.5181465 9.9198491,1.4928332 11.088281,1.2519518 12.4375,0.98285456 c 2.588004,-0.516169 2.665293,-0.52705103 2.836334,-0.39934975 0.204714,0.15284091 0.209654,0.17274222 0.220102,0.88681989 l 0.0096,0.6534325 -0.48781,2.445934 c -0.268296,1.3452635 -0.509058,2.512075 -0.535027,2.5929141 -0.02875,0.089509 -0.08962,0.1842075 -0.155651,0.2421875 L 14.216575,7.5 14.32442,7.5946891 c 0.09508,0.083485 0.20683,0.3111225 0.20683,0.421335 0,0.044862 -0.505537,0.022658 -0.535156,-0.023506 -0.01222,-0.019044 -0.02753,-0.017492 -0.04091,0.00415 -0.01176,0.019022 -0.09189,0.034586 -0.178084,0.034586 -0.182817,0 -0.581965,0.1253041 -0.761478,0.23905 -0.08058,0.051061 0.02562,-0.071634 0.298902,-0.3453028 L 13.738429,7.50049 13.118354,6.8830575 C 12.777313,6.5434697 12.48708,6.2617628 12.473392,6.2570425 c -0.02762,-0.00953 -0.280959,0.17328 -0.426517,0.3077694 -0.05156,0.047641 -0.171729,0.140439 -0.267038,0.2062168 -0.285659,0.1971504 -0.951057,0.700455 -0.960575,0.7265744 -0.0081,0.022361 0.596066,0.4879028 0.982126,0.7567207 0.08981,0.062534 0.231001,0.1709528 0.313762,0.2409306 0.08276,0.069978 0.185631,0.15502 0.2286,0.1889834 l 0.07813,0.061752 -0.170807,0.1738803 c -0.09394,0.095634 -0.185592,0.1738803 -0.203662,0.1738803 -0.01807,0 -0.103955,-0.062197 -0.190855,-0.1382153 C 11.76965,8.8795159 11.612509,8.7564691 11.507348,8.6820972 10.961831,8.2962953 9.9363994,7.5191703 9.9441869,7.4974525 c 0.00881,-0.024575 1.1576171,-0.8848128 1.5341311,-1.1487738 0.106456,-0.074633 0.235745,-0.1748856 0.287307,-0.222784 0.05156,-0.047898 0.241055,-0.1945006 0.421094,-0.3257831 l 0.327344,-0.2386947 0.742968,0.7424847 C 13.665664,6.7122684 14,7.0392159 14,7.0304519 14,7.0216878 14.225,5.8900156 14.5,4.515625 L 15,2.0167328 V 1.5083664 C 15,1.2287649 14.996235,1 14.991634,1 14.987032,1 13.858766,1.225 12.484375,1.5 11.109984,1.775 9.9817178,2 9.9771163,2 9.972515,2 9.96875,2.2283397 9.96875,2.5074215 v 0.5074216 l 0.445313,0.4461106 0.445312,0.4461107 -0.09375,0.078516 c -0.05156,0.043184 -0.166777,0.1266881 -0.256032,0.185566 -0.08926,0.058877 -0.215818,0.1548262 -0.28125,0.2132193 C 10.11416,4.4862653 8.8909113,5.4009213 8.4918294,5.6828038 8.385985,5.7575647 8.2370747,5.8735803 8.1609178,5.9406163 8.0847609,6.0076522 8.0123478,6.0625 8,6.0625 7.9876522,6.0625 7.9152391,6.0076522 7.8390822,5.9406162 7.7629253,5.8735803 7.614015,5.7575647 7.5081706,5.6828037 7.1090887,5.4009212 5.8858403,4.4862653 5.7716575,4.3843656 5.7062253,4.3259725 5.5796628,4.2300237 5.4904075,4.1711462 5.4011522,4.1122684 5.2859375,4.0287637 5.234375,3.9855803 L 5.140625,3.9070644 5.5859375,3.4609537 6.03125,3.0148431 V 2.5074215 C 6.03125,2.2283397 6.027485,2 6.0228837,2 6.0182822,2 4.8900156,1.775 3.515625,1.5 2.1412343,1.225 1.0129679,1 1.0083664,1 1.0037649,1 1,1.2287649 1,1.5083664 V 2.0167328 L 1.5,4.515625 C 1.775,5.8900156 2,7.0216878 2,7.0304519 2,7.0392159 2.3343359,6.7122684 2.7429687,6.3039016 L 3.4859375,5.5614169 3.8132812,5.8001116 c 0.1800391,0.1312825 0.3695313,0.2778846 0.4210938,0.3257831 0.051563,0.047898 0.1808506,0.1481512 0.2873072,0.222784 0.3765137,0.263961 1.5253187,1.1241985 1.5341309,1.1487738 0.00795,0.022168 -1.0597534,0.8304694 -1.5654487,1.1851187 C 4.3839453,8.7572041 4.2546875,8.8573606 4.203125,8.9051412 4.1515625,8.9529222 3.9703719,9.0937625 3.8004791,9.2181203 L 3.4915834,9.4442256 2.7457917,8.6989194 C 2.3356063,8.2890009 2,7.9607841 2,7.9695481 2,7.9783122 1.7720743,9.1102334 1.4934985,10.484929 l -0.50650153,2.499446 -0.0105388,0.522305 -0.0105388,0.522306 0.0873528,-0.02862 c 0.077742,-0.02547 4.6994775,-0.952678 4.87806,-0.978627 0.071852,-0.01044 0.071957,-0.01123 0.071957,-0.53748 V 11.95723 L 5.5746566,11.527775 5.1460234,11.09832 5.2502041,11.010658 c 0.057299,-0.04821 0.1637828,-0.125461 0.23663,-0.171659 0.072847,-0.0462 0.18647,-0.132212 0.2524953,-0.191141 0.103645,-0.0925 1.0942893,-0.8351552 1.7604337,-1.319733 C 7.6179006,9.2421875 7.7787828,9.1174466 7.8572794,9.0509231 L 8,8.9299713 8.1427206,9.0509231 c 0.078497,0.066523 0.2393128,0.1912644 0.3573697,0.2772019 0.4898966,0.3566122 1.7103717,1.272296 1.8038857,1.353398 l 0.100852,0.08747 -0.186282,0.184338 -0.186282,0.184338 -0.1020693,-0.09227 C 9.8740563,10.994647 9.7296875,10.860704 9.609375,10.747745 9.3677619,10.520899 9.0903509,10.324138 8.875,10.226871 8.7976563,10.191937 8.6496156,10.094959 8.5460206,10.011365 8.4424259,9.9277703 8.2773413,9.8050312 8.1791659,9.7386112 L 8.0006653,9.6178472 7.7830906,9.7698612 C 7.3556422,10.068508 6.0768419,11.027234 6.0080791,11.100601 l -0.070046,0.07474 0.1208947,0.118051 0.1208947,0.11805 -0.043036,0.142998 c -0.026828,0.08914 -0.042878,0.291185 -0.042618,0.536469 3.719e-4,0.349765 0.010151,0.421429 0.088041,0.645167 0.048192,0.138433 0.1321015,0.316345 0.186465,0.395359 l 0.098842,0.143662 -0.1225184,0.110688 C 6.2700022,13.453534 6.1763006,13.50416 6.1034269,13.516297 6.0379484,13.527203 4.8945313,13.754995 3.5625,14.022501 2.2304688,14.290006 1.0773438,14.513962 1,14.520179 c -0.0773438,0.0062 -0.18350966,-0.008 -0.23592428,-0.03155 z M 3.7761506,8.5848794 C 3.885065,8.4952269 4.0612363,8.3585938 4.1676425,8.28125 4.7556175,7.8538672 5.1885338,7.5189991 5.1807378,7.4976031 5.1712203,7.4714837 4.5058216,6.9681791 4.2201625,6.7710287 4.1248544,6.7052509 4.0046875,6.6124531 3.953125,6.5648119 3.8075666,6.4303225 3.5542291,6.2475172 3.5266084,6.2570425 3.5129203,6.2617628 3.222845,6.5433128 2.8819963,6.8827087 L 2.2622714,7.4997925 2.8889482,8.1246853 C 3.2336203,8.4683759 3.5296875,8.7491966 3.546875,8.7487306 3.5640625,8.748265 3.6672366,8.6745319 3.7761506,8.5848794 Z M 14.872084,14.518328 c -0.0102,-0.01042 -0.472947,-0.110077 -1.028334,-0.221453 -0.555387,-0.111376 -1.014222,-0.206931 -1.019635,-0.212344 -0.0054,-0.0054 0.08622,-0.10517 0.203636,-0.221684 l 0.213478,-0.211842 0.809073,0.160429 c 0.44499,0.08824 0.848646,0.173374 0.897014,0.189195 l 0.08794,0.02877 -0.0132,-0.538136 c -0.01111,-0.452762 -0.02845,-0.607542 -0.109309,-0.975635 l -0.09611,-0.4375 0.207669,-0.210574 c 0.114217,-0.115816 0.216692,-0.200191 0.227721,-0.1875 0.01103,0.01269 0.07476,0.28323 0.14163,0.601199 0.119689,0.569142 0.121581,0.588651 0.121772,1.255557 1.87e-4,0.635637 -0.0038,0.682753 -0.06424,0.763694 -0.109513,0.14662 -0.219841,0.208949 -0.395211,0.223273 -0.09095,0.0074 -0.173701,0.005 -0.183899,-0.0054 z"
       id="path821"
       inkscape:connector-curvature="0" />
    <path
       style="fill:#006500;stroke-width:0.000357143"
       d="M 9.4799834,15.42542 C 9.3744431,15.386191 9.2197556,15.303532 9.1362334,15.241733 8.9278528,15.087549 6.8704406,13.011803 6.7857925,12.870347 6.6483166,12.640609 6.59375,12.415843 6.59375,12.079301 c 0,-0.239722 0.016031,-0.364637 0.065656,-0.511582 0.1342338,-0.397488 0.5108253,-0.77408 0.9083138,-0.908313 0.2685065,-0.09068 0.7521234,-0.09187 1.0133259,-0.0025 0.2731447,0.09345 0.4469116,0.228127 0.96528,0.748116 l 0.4682003,0.469664 1.547424,-1.54181 C 12.413034,9.4848759 13.160688,8.7604606 13.223403,8.7230597 13.453805,8.5856572 13.678188,8.53125 14.014449,8.53125 c 0.239722,0 0.364637,0.016031 0.511582,0.065656 0.397488,0.1342338 0.77408,0.5108253 0.908313,0.9083138 0.04963,0.146945 0.06566,0.2718593 0.06566,0.5115812 0,0.368131 -0.06268,0.593924 -0.233893,0.842574 -0.136195,0.197792 -4.304629,4.357527 -4.45826,4.448957 -0.235911,0.140396 -0.453503,0.191768 -0.804927,0.19004 -0.2650034,-0.0013 -0.3693262,-0.01586 -0.5229366,-0.07295 z m 0.9731416,-0.516467 c 0.228053,-0.109152 4.345588,-4.22652 4.456009,-4.455828 0.106977,-0.222156 0.108452,-0.6513244 0.003,-0.8654647 -0.09224,-0.1872581 -0.281261,-0.3762828 -0.468519,-0.468519 -0.214536,-0.1056725 -0.643549,-0.1040297 -0.865464,0.00331 -0.121755,0.058894 -0.530408,0.4486963 -1.851012,1.7656247 -0.932119,0.929525 -1.702052,1.690045 -1.710963,1.690045 -0.0089,0 -0.3150182,-0.296145 -0.6802385,-0.658101 C 8.5498463,11.140957 8.5008381,11.109371 8.07815,11.109371 c -0.3285522,0 -0.4937525,0.06361 -0.6994484,0.269302 C 7.1730053,11.584369 7.1094,11.749569 7.1094,12.078121 c 0,0.441821 -0.00239,0.438506 1.1540034,1.603152 1.0222482,1.029546 1.2025663,1.19178 1.4136647,1.271888 0.1868072,0.07089 0.5827199,0.04833 0.7760819,-0.04421 z"
       id="path819"
       inkscape:connector-curvature="0" />
  </g>
</svg>
