<?xml version="1.0" encoding="UTF-8" standalone="no"?>
<!-- Created with Inkscape (http://www.inkscape.org/) -->

<svg
   version="1.1"
   id="svg2"
   width="1600"
   height="1600"
   viewBox="0 0 1600 1600"
   sodipodi:docname="applyscaledelta.svg"
   inkscape:version="1.2.2 (732a01da63, 2022-12-09)"
   xmlns:inkscape="http://www.inkscape.org/namespaces/inkscape"
   xmlns:sodipodi="http://sodipodi.sourceforge.net/DTD/sodipodi-0.dtd"
   xmlns="http://www.w3.org/2000/svg"
   xmlns:svg="http://www.w3.org/2000/svg"
   xmlns:rdf="http://www.w3.org/1999/02/22-rdf-syntax-ns#"
   xmlns:cc="http://creativecommons.org/ns#"
   xmlns:dc="http://purl.org/dc/elements/1.1/">
  <metadata
     id="metadata8">
    <rdf:RDF>
      <cc:Work
         rdf:about="">
        <dc:format>image/svg+xml</dc:format>
        <dc:type
           rdf:resource="http://purl.org/dc/dcmitype/StillImage" />
      </cc:Work>
    </rdf:RDF>
  </metadata>
  <defs
     id="defs6" />
  <sodipodi:namedview
     pagecolor="#808080"
     bordercolor="#666666"
     borderopacity="1"
     objecttolerance="10"
     gridtolerance="10"
     guidetolerance="10"
     inkscape:pageopacity="0"
     inkscape:pageshadow="2"
     inkscape:window-width="1993"
     inkscape:window-height="1009"
     id="namedview4"
     showgrid="false"
     inkscape:zoom="0.5"
     inkscape:cx="217"
     inkscape:cy="218"
     inkscape:window-x="-8"
     inkscape:window-y="-8"
     inkscape:window-maximized="1"
     inkscape:current-layer="APPLYSCALEDELTA"
     inkscape:showpageshadow="0"
     inkscape:pagecheckerboard="true"
     inkscape:deskcolor="#d1d1d1" />
  <g
     id="APPLYSCALEDELTA"
     transform="matrix(100,0,0,100,0,4.9999997e-5)"
     style="stroke-width:0.0114286">
    <path
       style="fill:none;stroke-width:0.000357143"
       d="M 0,8 V 0 h 8 8 v 8 8 H 8 0 Z m 8.3629316,6.967907 C 8.6207534,14.88084 8.8780778,14.623192 8.9677844,14.362295 9.0918391,14.001502 9.03201,13.697129 8.7414891,13.21104 8.6516388,13.060706 8.4463738,12.716175 8.2853441,12.445415 8.1243147,12.174656 7.9607537,11.903906 7.921875,11.84375 7.8829962,11.783594 7.7194353,11.512935 7.5584059,11.242287 7.3973762,10.971638 7.1785397,10.606013 7.0721019,10.429787 6.9656644,10.25356 6.8207184,10.010938 6.75,9.890625 6.6792816,9.7703125 6.5316253,9.5242187 6.421875,9.34375 6.3121247,9.1632813 6.16325,8.9117903 6.0910425,8.7848809 6.0188347,8.6579719 5.8696606,8.4586316 5.7595447,8.3419028 5.5931375,8.1655025 5.5269184,8.1187216 5.3673487,8.0648341 4.9614944,7.927775 4.5940006,8.0122413 4.298955,8.3103981 4.1989672,8.4114403 4.0848156,8.5481706 4.0452847,8.6142431 4.0057541,8.6803156 3.9153069,8.8328125 3.8442909,8.953125 3.773275,9.0734375 3.6280856,9.3160603 3.5216481,9.4922869 3.4152103,9.6685134 3.1963738,10.034138 3.0353442,10.304787 2.8743147,10.575435 2.7109888,10.846094 2.6723977,10.90625 2.6338065,10.966406 2.4861817,11.2125 2.3443424,11.453125 2.2025031,11.69375 2.0546116,11.939844 2.0156947,12 c -0.061619,0.09525 -0.1829834,0.297657 -0.7727318,1.288742 -0.34115978,0.573326 -0.31991296,1.060247 0.062789,1.438955 0.3253558,0.321961 0.039235,0.298639 3.6959928,0.30127 3.1083087,0.0022 3.1774797,9.81e-4 3.3611869,-0.06106 z M 3.9401628,12.820313 c 0.05555,-0.09883 0.1163478,-0.199406 0.1351059,-0.223506 0.018759,-0.0241 0.090356,-0.139701 0.1591063,-0.256891 0.06875,-0.11719 0.209375,-0.354499 0.3125,-0.527353 C 4.8541559,11.29751 4.8699,11.27068 4.9394559,11.143561 l 0.06679,-0.122064 0.063535,0.106439 c 0.034944,0.05854 0.087163,0.141595 0.1160413,0.184564 0.028878,0.04297 0.126594,0.204688 0.2171456,0.359375 0.090552,0.154688 0.2051519,0.344531 0.2546678,0.421875 0.049516,0.07734 0.1116603,0.182813 0.1380994,0.234375 0.026439,0.05156 0.087681,0.157031 0.1360934,0.234375 0.048413,0.07734 0.1270797,0.207422 0.1748166,0.289063 L 6.1934388,13 H 5.0163009 3.8391631 Z m 11.3638902,1.628203 c 0.04549,-0.03396 0.111704,-0.100571 0.147141,-0.148015 0.06046,-0.08094 0.06442,-0.128024 0.0642,-0.763694 l -2.31e-4,-0.677432 -0.505179,-2.487443 C 14.732134,9.0038378 14.484541,7.8359937 14.459776,7.7767225 14.435011,7.7174512 14.369871,7.631195 14.315021,7.5850412 l -0.09973,-0.083915 0.109076,-0.09577 c 0.06665,-0.058522 0.12744,-0.1529356 0.156292,-0.2427506 0.02597,-0.080839 0.266731,-1.2476506 0.535027,-2.5929141 l 0.48781,-2.4459339 -0.0096,-0.6534326 C 15.483488,0.75624703 15.478548,0.73634572 15.273834,0.58350481 15.102793,0.45580353 15.025504,0.46668556 12.4375,0.98285456 11.088281,1.2519518 9.9198491,1.4928332 9.8409838,1.5181465 9.6840225,1.5685262 9.5537044,1.6854683 9.5019881,1.8223469 c -0.043652,0.115535 -0.043959,1.2698909 -3.687e-4,1.3865562 0.018078,0.048385 0.15377,0.2098888 0.3015368,0.3588985 L 10.071823,3.8387281 9.981224,3.9195871 C 9.886855,4.0038109 8.5424,5.0105703 8.2149859,5.2421875 8.1117272,5.3152344 8.0149834,5.375 8,5.375 7.9850166,5.375 7.8882728,5.3152344 7.7850141,5.2421875 7.4576,5.0105703 6.113145,4.0038109 6.0187759,3.9195872 L 5.9281766,3.8387281 6.1968437,3.5678016 C 6.3446106,3.4187919 6.4803022,3.2572878 6.4983806,3.2089031 6.5419709,3.0922378 6.5416641,1.9378819 6.4980119,1.8223469 6.4462956,1.6854683 6.3159775,1.5685262 6.1590163,1.5181465 6.0801509,1.4928332 4.9117188,1.2519518 3.5625,0.98285456 0.97449603,0.46668556 0.89720753,0.45580353 0.72616553,0.58350481 0.52145175,0.73634572 0.51651241,0.75624703 0.50606362,1.4703247 l -0.009561,0.6534325 0.48781003,2.445934 C 1.2526081,5.9149547 1.49337,7.0817662 1.519339,7.1626053 c 0.028852,0.089815 0.08964,0.1842288 0.1562924,0.2427506 l 0.1090761,0.09577 -0.099728,0.083915 c -0.05485,0.046154 -0.1199902,0.13241 -0.1447552,0.1916812 -0.024765,0.059271 -0.2717798,1.2271153 -0.54892147,2.5952099 -0.48832028,2.410564 -0.50423203,2.501206 -0.51482894,2.932756 -0.006014,0.244921 9.3344e-4,0.445312 0.0154393,0.445312 0.0145058,0 0.0439491,-0.06571 0.0654295,-0.146023 C 0.61946284,13.371716 0.70642131,13.206799 1.1724097,12.4375 1.3233694,12.188281 1.4709355,11.942187 1.5003344,11.890625 1.5297333,11.839063 1.6893412,11.573578 1.8550185,11.30066 2.0206958,11.027741 2.15625,10.800074 2.15625,10.794732 c 0,-0.0053 0.084375,-0.145002 0.1875,-0.310357 0.103125,-0.165355 0.1875,-0.306684 0.1875,-0.314065 0,-0.0074 0.063281,-0.112146 0.140625,-0.23281 C 2.7492187,9.8168359 2.8125,9.7120716 2.8125,9.7046903 2.8125,9.6973094 2.896875,9.55598 3,9.390625 3.103125,9.22527 3.1875,9.0843622 3.1875,9.0774959 c 0,-0.00687 0.056178,-0.1009396 0.1248409,-0.2090525 L 3.4371816,8.671875 2.8496873,8.0858728 2.262193,7.4998706 2.8819572,6.8827478 c 0.3408703,-0.3394175 0.6309631,-0.620985 0.6446512,-0.6257053 0.027621,-0.00953 0.2809582,0.17328 0.4265166,0.3077694 0.051563,0.047641 0.17172,0.140439 0.2670166,0.2062168 0.095296,0.065778 0.3540668,0.2549922 0.575045,0.420476 0.3104478,0.232485 0.4436693,0.3125266 0.5860628,0.3521156 0.280119,0.07788 0.4505872,0.1688447 0.6388372,0.3408947 C 6.1710359,8.0224741 6.46875,8.3970169 6.46875,8.4489613 6.46875,8.4594933 6.532031,8.5668359 6.609375,8.6875 6.6867187,8.8081641 6.75,8.9129284 6.75,8.9203097 6.75,8.9276906 6.834375,9.06902 6.9375,9.234375 7.040625,9.39973 7.125,9.5409116 7.125,9.5481122 c 0,0.0072 0.068314,0.1201772 0.1518091,0.2510594 L 7.4286181,10.037139 7.5346216,9.947861 C 7.5929234,9.8987578 7.7213347,9.8044172 7.8199797,9.738215 l 0.179355,-0.1203678 0.2177225,0.152014 c 0.4115587,0.2873498 1.6424094,1.2067648 1.7437497,1.3025368 l 0.1014321,0.09586 -0.2811196,0.286662 c -0.1546156,0.157664 -0.2826669,0.313166 -0.2845582,0.345559 -0.02254,0.386048 -0.00874,1.32644 0.02059,1.403135 0.051075,0.133554 0.2409791,0.289679 0.3806185,0.312916 0.3327193,0.05537 4.8478713,0.959671 4.9147303,0.984333 0.125358,0.04624 0.398463,0.01716 0.491553,-0.05235 z M 12.223849,8.5853356 C 12.114935,8.4954322 11.938764,8.3585938 11.832358,8.28125 11.244383,7.8538672 10.811466,7.5189991 10.819262,7.4976031 c 0.0095,-0.026119 0.674916,-0.529424 0.960576,-0.7265744 0.09531,-0.065778 0.215475,-0.1585756 0.267037,-0.2062168 0.145558,-0.1344894 0.398896,-0.3172947 0.426517,-0.3077694 0.01369,0.00472 0.30381,0.2863169 0.644716,0.62577 L 13.737937,7.5 13.118379,8.1171875 c -0.340757,0.3394531 -0.636871,0.6204322 -0.658031,0.6243981 -0.02116,0.00397 -0.127585,-0.066347 -0.236499,-0.15625 z"
       id="path829"
       inkscape:connector-curvature="0" />
    <path
       style="fill:#cbfefe;stroke-width:0.000357143"
       d="m 12.484375,12.502658 c -1.340625,-0.270149 -2.455162,-0.497306 -2.47675,-0.504794 -0.021933,-0.0076 0.283712,-0.336356 0.692784,-0.74515 l 0.732033,-0.731536 -0.378871,-0.284026 C 10.845192,10.080937 10.596721,9.8993066 10.501412,9.8335288 10.406104,9.7677509 10.285937,9.6745816 10.234375,9.6264859 10.154001,9.5515156 9.1957384,8.8340581 8.5002369,8.328125 8.3820994,8.2421875 8.2212172,8.1174466 8.1427206,8.0509231 L 8,7.9299713 7.8575847,8.0509231 C 7.7792563,8.1174466 7.6271366,8.2351563 7.5195409,8.3125 7.4119453,8.3898438 7.1996691,8.5480469 7.0478156,8.6640625 6.8959625,8.7800781 6.7610072,8.875 6.747915,8.875 6.7250528,8.875 6.5886806,8.6670894 6.4609506,8.4375 6.3533006,8.2440031 6.1634756,8.0102803 5.9891253,7.8565628 L 5.8192272,7.7067709 6.0111762,7.5558869 C 6.1167481,7.4729006 6.2875,7.3426841 6.390625,7.2665166 6.49375,7.1903491 6.6132812,7.0990428 6.65625,7.0636141 6.7335375,6.9998884 6.733705,6.9986972 6.671875,6.952495 6.6375,6.9268084 6.5179687,6.8365891 6.40625,6.7520078 5.8157837,6.30497 4.6904769,5.4670212 4.5216772,5.3486787 4.4152234,5.2740459 4.2859375,5.1737931 4.234375,5.1258947 4.1828125,5.0779962 3.9933203,4.9313941 3.8132812,4.8001116 L 3.4859375,4.5614169 2.7429687,5.3039016 C 2.3343359,5.7122684 2,6.0392159 2,6.0304519 2,6.0216878 1.7751538,4.8907844 1.5003418,3.5173334 1.2255298,2.1438823 1.0050635,1.0157698 1.0104167,1.0104167 1.0157698,1.0050635 2.1438823,1.2255298 3.5173334,1.5003418 4.8907844,1.7751538 6.0216878,2 6.0304519,2 6.0392159,2 5.71253,2.3340741 5.3044831,2.7423869 L 4.5625794,3.4847738 4.9598325,3.7814494 c 0.2184891,0.1631715 0.4751116,0.350494 0.5702725,0.4162718 0.095161,0.065778 0.2152075,0.1589472 0.26677,0.2070429 0.089099,0.083109 1.3022144,0.9890943 1.7112956,1.2780396 C 7.614015,5.7575647 7.7629253,5.8735803 7.8390822,5.9406162 7.9152391,6.0076522 7.9876522,6.0625 8,6.0625 8.012348,6.0625 8.084761,6.007652 8.1609178,5.9406162 8.2370747,5.8735803 8.385985,5.7575647 8.4918294,5.6828037 8.9009106,5.3938584 10.114026,4.4878728 10.203125,4.4047641 c 0.05156,-0.048096 0.171609,-0.141265 0.26677,-0.2070429 0.09516,-0.065778 0.351783,-0.2531003 0.570272,-0.4162718 L 11.437421,3.4847737 10.695517,2.7423869 C 10.28747,2.3340741 9.9607841,2 9.9695481,2 9.9783122,2 11.109216,1.7751538 12.482667,1.5003418 13.856118,1.2255298 14.98423,1.0050635 14.989583,1.0104167 14.994937,1.0157698 14.77447,2.1438823 14.499658,3.5173334 14.224846,4.8907844 14,6.0216878 14,6.0304519 14,6.0392159 13.665664,5.7122684 13.257031,5.3039016 L 12.514063,4.5614169 12.186719,4.8001116 C 12.00668,4.9313941 11.817188,5.0779962 11.765625,5.1258947 11.714063,5.1737931 11.584777,5.2740459 11.478323,5.3486787 11.309523,5.4670212 10.184216,6.30497 9.59375,6.7520078 9.4820313,6.8365891 9.3625,6.9268084 9.328125,6.952495 9.266298,6.998694 9.266467,6.999885 9.34375,7.0629706 c 0.1708025,0.139425 1.915399,1.4440328 2.165823,1.6196007 0.106454,0.074633 0.23574,0.1747893 0.287302,0.22257 0.05156,0.047781 0.232753,0.1886212 0.402646,0.312979 l 0.308896,0.2261053 0.745791,-0.7453062 C 13.664394,8.2890009 14,7.9607841 14,7.9695481 c 0,0.00876 0.225,1.1404363 0.5,2.5148269 0.275,1.374391 0.5,2.502657 0.5,2.507259 0,0.01704 -0.127186,-0.0077 -2.515625,-0.488976 z M 1.09375,12.522826 c 0,-0.03085 0.9072397,-4.5342323 0.9150238,-4.5420163 0.00537,-0.00537 0.2678975,0.2486387 0.5833855,0.5644728 L 3.1657741,9.1195266 2.989137,9.4067134 C 2.8919867,9.5646663 2.8125,9.6993478 2.8125,9.7060056 c 0,0.00666 -0.063281,0.1108303 -0.140625,0.2314944 -0.077344,0.120664 -0.140625,0.225428 -0.140625,0.23281 0,0.0074 -0.084375,0.14871 -0.1875,0.314065 -0.103125,0.165355 -0.1875,0.305016 -0.1875,0.310357 0,0.0053 -0.1357886,0.233009 -0.3017524,0.505928 C 1.6885338,11.573578 1.5370525,11.825 1.5178725,11.859375 1.3081862,12.235181 1.09375,12.570622 1.09375,12.522826 Z"
       id="path827"
       inkscape:connector-curvature="0" />
    <path
       style="fill:#989898;stroke-width:0.000357143"
       d="m 14.994283,14.015117 c -0.01475,-0.01475 -4.75121,-0.970102 -4.924915,-0.993364 l -0.075405,-0.0101 0.00445,-0.496845 c 0.00245,-0.273265 0.00732,-0.499566 0.010831,-0.50289 0.0035,-0.0033 1.134894,0.219728 2.514191,0.49567 l 2.507812,0.501714 v 0.510973 c 0,0.281035 -0.0047,0.510973 -0.01042,0.510973 -0.0057,0 -0.01768,-0.0073 -0.02655,-0.01613 z m -4.26224,-3.013911 C 10.487285,10.80962 8.8745463,9.6007041 8.5000903,9.328125 8.3820334,9.2421875 8.2212172,9.1174466 8.1427206,9.0509231 L 8,8.9299713 7.8575072,9.0509231 C 7.7791359,9.1174466 7.6279641,9.2333922 7.5215697,9.3085797 7.415175,9.3837675 7.2864712,9.4802906 7.2355609,9.5230756 7.1710766,9.5772684 7.13898,9.5888147 7.1297544,9.5611378 7.1224706,9.5392872 7.0340462,9.3891812 6.9332556,9.2275694 6.832465,9.0659578 6.75,8.9237494 6.75,8.9115509 6.75,8.8896238 7.1415791,8.5849378 7.5198934,8.3125 7.6272953,8.2351562 7.7792563,8.1174466 7.8575847,8.0509231 L 8,7.9299713 8.1427206,8.0509231 c 0.078497,0.066523 0.2393788,0.1912644 0.3575163,0.2772019 0.6955015,0.5059331 1.6537641,1.2233906 1.7341381,1.2983609 0.05156,0.048096 0.171729,0.141265 0.267038,0.2070428 0.09531,0.065778 0.343872,0.2474773 0.552365,0.4037763 l 0.379077,0.28418 -0.289072,0.28787 -0.289072,0.28787 z M 5.4349069,7.0226638 C 5.0811369,6.76098 4.7506681,6.5146369 4.7005319,6.4752344 4.6503956,6.4358322 4.5299113,6.3444259 4.4327891,6.2721094 4.3356669,6.1997931 4.08298,6.0102169 3.8712625,5.8508291 L 3.4863216,5.5610328 2.7431608,6.3037097 C 2.3344223,6.7121822 2,7.0392159 2,7.0304519 2,7.0216878 1.775,5.8900156 1.5,4.515625 L 1,2.0167328 1.0030809,1.5474289 1.0061619,1.078125 1.5015562,3.53125 C 1.774023,4.8804688 1.9976366,5.9983275 1.9984752,6.0153809 1.999314,6.0324341 2.3343359,5.7122684 2.7429687,5.3039016 L 3.4859375,4.5614169 3.8132812,4.8001116 c 0.1800391,0.1312825 0.3695313,0.2778846 0.4210938,0.3257831 0.051563,0.047898 0.1809147,0.1481512 0.2874494,0.222784 0.3698331,0.2590869 1.6194603,1.1926247 1.7377681,1.2982057 0.065432,0.058393 0.1963575,0.155675 0.2909453,0.2161822 0.094588,0.060507 0.1665275,0.1263628 0.1598663,0.1463462 -0.00666,0.019984 -0.1024304,0.097651 -0.2128203,0.1725941 C 6.3871941,7.2569503 6.2540181,7.3591572 6.2016372,7.4091337 6.1492566,7.45911 6.1000378,7.4996519 6.0922622,7.4992262 6.0844869,7.4988012 5.7886769,7.2843475 5.4349069,7.0226638 Z m 4.3705365,0.393575 C 9.7591794,7.369975 9.6269406,7.2677722 9.5115794,7.1891216 9.3962181,7.1104709 9.2963537,7.0296862 9.2896581,7.0095997 9.2829628,6.9895134 9.3548747,6.9235734 9.4494622,6.8630666 9.54405,6.8025594 9.6749753,6.7052775 9.7404075,6.6468844 9.8587153,6.5413034 11.108342,5.6077656 11.478176,5.3486787 c 0.106534,-0.074633 0.235886,-0.1748856 0.287449,-0.222784 0.05156,-0.047898 0.241055,-0.1945006 0.421094,-0.3257831 l 0.327344,-0.2386947 0.742968,0.7424847 c 0.408633,0.4083668 0.743655,0.7285325 0.744494,0.7114793 8.37e-4,-0.017053 0.224452,-1.1349121 0.496919,-2.4841309 l 0.495394,-2.453125 0.0031,0.4693039 L 15,2.0167328 14.5,4.515625 C 14.225,5.8900156 14,7.0216878 14,7.0304519 14,7.0392159 13.665664,6.7122684 13.257031,6.3039016 L 12.514063,5.5614169 12.186719,5.8001116 C 12.00668,5.9313941 11.817188,6.0779962 11.765625,6.1258947 11.714065,6.1737927 11.58484,6.2740459 11.478464,6.3486787 11.372088,6.4233117 10.98171,6.709375 10.610957,6.984375 10.240204,7.259375 9.9262181,7.4879706 9.9132103,7.492365 9.9002023,7.496755 9.8517073,7.462503 9.8054434,7.4162388 Z M 4.8506512,3.6963363 4.5608553,3.4865094 5.28824,2.7585677 6.015625,2.030626 6.0242659,2.5221648 6.0329066,3.0137035 5.5866769,3.4599334 5.1404472,3.9061631 Z M 10.411171,3.4580544 9.9670959,3.0131861 l 0.00864,-0.49128 0.00864,-0.4912801 0.7277831,0.7283406 0.727784,0.7283406 -0.257196,0.1860337 c -0.141459,0.1023188 -0.273015,0.1958322 -0.292349,0.2078079 -0.02076,0.012858 -0.216989,-0.1603879 -0.479227,-0.4230944 z"
       id="path825"
       inkscape:connector-curvature="0" />
    <path
       style="fill:#00fe00;stroke-width:0.000357143"
       d="M 1.859375,14.493696 C 1.715635,14.443683 1.5731459,14.290263 1.5311587,14.140299 1.4804413,13.959154 1.5209617,13.833991 1.753625,13.453125 1.7851235,13.401563 1.8397157,13.310156 1.8749411,13.25 c 0.035225,-0.06016 0.098946,-0.165625 0.1416019,-0.234375 0.042656,-0.06875 0.105937,-0.174219 0.140625,-0.234375 0.034688,-0.06016 0.098134,-0.165625 0.140991,-0.234375 0.042857,-0.06875 0.092023,-0.153125 0.1092588,-0.1875 0.017235,-0.03438 0.073014,-0.125781 0.1239533,-0.203125 0.050939,-0.07734 0.1019549,-0.161719 0.1133689,-0.1875 0.011414,-0.02578 0.05079,-0.08906 0.087502,-0.140625 0.036712,-0.05156 0.083966,-0.128906 0.1050081,-0.171875 0.021042,-0.04297 0.066269,-0.123828 0.1005043,-0.179687 0.118196,-0.192854 0.1858672,-0.305075 0.2496865,-0.414063 0.035226,-0.06016 0.099166,-0.165625 0.1420894,-0.234375 0.042924,-0.06875 0.086856,-0.146094 0.097628,-0.171875 0.010772,-0.02578 0.050181,-0.08906 0.087576,-0.140625 0.037395,-0.05156 0.077206,-0.114844 0.088467,-0.140625 0.011261,-0.02578 0.055595,-0.103125 0.098518,-0.171875 C 3.7446434,10.134375 3.8085572,10.028906 3.84375,9.96875 3.8789428,9.9085938 3.9428566,9.803125 3.9857803,9.734375 4.0287041,9.665625 4.0730375,9.5882813 4.0842988,9.5625 4.09556,9.5367188 4.1353703,9.4734375 4.1727656,9.421875 4.2101613,9.3703125 4.2495703,9.3070313 4.2603419,9.28125 4.2711134,9.2554688 4.3150459,9.178125 4.3579697,9.109375 4.4008934,9.040625 4.46324,8.9351563 4.4965181,8.875 4.7276481,8.4571872 5.1294784,8.3945428 5.4233706,8.7305059 5.4998919,8.8179809 5.5625,8.8989281 5.5625,8.9103881 c 0,0.01146 0.056279,0.1101391 0.1250656,0.2192866 C 5.7563516,9.2388225 5.8264209,9.35625 5.843275,9.390625 5.860129,9.425 5.908984,9.509375 5.9518409,9.578125 5.9946979,9.646875 6.0585572,9.7523438 6.09375,9.8125 c 0.035193,0.060156 0.099107,0.165625 0.1420303,0.234375 0.042924,0.06875 0.086856,0.146094 0.097628,0.171875 0.010772,0.02578 0.050181,0.08906 0.087576,0.140625 0.037395,0.05156 0.077206,0.114844 0.088467,0.140625 0.011261,0.02578 0.055595,0.103125 0.098518,0.171875 0.042924,0.06875 0.1068375,0.174219 0.1420303,0.234375 0.035193,0.06016 0.099107,0.165625 0.1420303,0.234375 0.042924,0.06875 0.087257,0.146094 0.098518,0.171875 0.011261,0.02578 0.051071,0.08906 0.088467,0.140625 0.037396,0.05156 0.076805,0.114844 0.087576,0.140625 0.010771,0.02578 0.054704,0.103125 0.097628,0.171875 0.042924,0.06875 0.1068637,0.174219 0.1420894,0.234375 0.063819,0.108988 0.1314906,0.221209 0.2496865,0.414063 0.034235,0.05586 0.079462,0.136718 0.1005044,0.179687 0.021042,0.04297 0.066895,0.120313 0.1018953,0.171875 0.075608,0.111386 0.1191575,0.181255 0.204521,0.328125 0.034964,0.06016 0.09869,0.165625 0.141614,0.234375 0.042924,0.06875 0.08717,0.146094 0.098326,0.171875 0.011156,0.02578 0.045148,0.07931 0.075539,0.118956 0.030391,0.03964 0.078725,0.142737 0.1074081,0.229094 0.043892,0.132147 0.046162,0.178407 0.014331,0.292096 -0.04347,0.155259 -0.1860063,0.30404 -0.3407347,0.355663 -0.1431138,0.04775 -6.1625234,0.04573 -6.3000244,-0.0021 z M 7.0298087,13.382813 C 6.9939422,13.318359 6.9309003,13.209375 6.8897153,13.140625 6.8485306,13.071875 6.7858491,12.966406 6.7504234,12.90625 6.7149975,12.846094 6.6509481,12.740625 6.6080909,12.671875 6.5652341,12.603125 6.5160675,12.51875 6.4988322,12.484375 6.4815969,12.45 6.4261156,12.358594 6.3755406,12.28125 6.3249653,12.203906 6.2619244,12.098437 6.2354491,12.046875 6.2089737,11.995313 6.1454494,11.889844 6.0942834,11.8125 6.0431178,11.735156 5.9871531,11.64375 5.9699178,11.609375 5.9526825,11.575 5.9035159,11.490625 5.8606591,11.421875 5.8178019,11.353125 5.7539428,11.247656 5.71875,11.1875 5.6835572,11.127344 5.6198628,11.021875 5.5772069,10.953125 5.5345512,10.884375 5.4712434,10.778906 5.4365231,10.71875 5.3753244,10.612718 5.3173075,10.516137 5.1877916,10.304688 c -0.034215,-0.05586 -0.085849,-0.146871 -0.1147438,-0.202247 -0.047921,-0.09184 -0.055495,-0.09564 -0.086229,-0.0433 -0.018531,0.03156 -0.065669,0.112025 -0.1047496,0.178809 -0.039081,0.06678 -0.106121,0.177675 -0.1489782,0.246425 -0.042857,0.06875 -0.092023,0.153125 -0.1092587,0.1875 -0.017235,0.03438 -0.0732,0.125781 -0.1243656,0.203125 -0.051166,0.07734 -0.1146904,0.182813 -0.1411657,0.234375 -0.026475,0.05156 -0.089516,0.157031 -0.1400915,0.234375 -0.050575,0.07734 -0.1060563,0.16875 -0.1232916,0.203125 -0.017235,0.03438 -0.066402,0.11875 -0.1092587,0.1875 -0.042857,0.06875 -0.1069066,0.174219 -0.1423325,0.234375 -0.035426,0.06016 -0.098107,0.165625 -0.1392919,0.234375 -0.041185,0.06875 -0.1042756,0.174219 -0.1402019,0.234375 -0.035926,0.06016 -0.1003847,0.165625 -0.1432419,0.234375 -0.042857,0.06875 -0.092023,0.153125 -0.1092587,0.1875 -0.017235,0.03438 -0.073014,0.125781 -0.1239535,0.203125 -0.050939,0.07734 -0.1021635,0.161719 -0.1138325,0.1875 -0.011669,0.02578 -0.047053,0.0842 -0.078631,0.129824 -0.031578,0.04562 -0.057415,0.09133 -0.057415,0.101563 0,0.01024 0.9354422,0.01861 2.07876,0.01861 h 2.0787603 z"
       id="path823"
       inkscape:connector-curvature="0" />
    <path
       style="fill:#323232;stroke-width:0.000357143"
       d="M 14.8125,14.500862 C 14.745641,14.4762 10.230489,13.571897 9.8977694,13.516529 9.75813,13.493292 9.5682256,13.337167 9.5171509,13.203613 c -0.02933,-0.0767 -0.04313,-1.017087 -0.02059,-1.403135 0.00189,-0.03239 0.1299426,-0.187895 0.2845582,-0.345559 L 10.062239,11.168257 9.9608069,11.072398 C 9.8594666,10.976626 8.6286159,10.057211 8.2170572,9.7698613 L 7.9993347,9.6178472 7.8199797,9.738215 C 7.7213347,9.8044172 7.5930087,9.8986828 7.5348112,9.9476944 7.4515294,10.01783 7.4231034,10.027896 7.4013184,9.9949656 7.386095,9.9719531 7.3236881,9.8722319 7.2626366,9.7733622 L 7.1516334,9.5935997 7.2398791,9.5194422 C 7.2884144,9.4786553 7.415175,9.3837675 7.5215697,9.3085797 7.6279641,9.2333922 7.7791359,9.1174466 7.8575072,9.0509231 L 8,8.9299713 8.1427206,9.0509231 c 0.078497,0.066523 0.2393788,0.1912644 0.3575163,0.2772019 0.6661444,0.4845778 1.6567891,1.227228 1.7604341,1.319733 0.06602,0.05893 0.179648,0.144942 0.252495,0.191141 0.07285,0.0462 0.179331,0.123445 0.23663,0.171659 l 0.104181,0.08766 -0.428634,0.429455 -0.4286324,0.429455 v 0.527025 c 0,0.526252 9.38e-5,0.52704 0.071957,0.53748 0.178582,0.02595 4.800318,0.953153 4.87806,0.978627 l 0.08735,0.02862 -0.01054,-0.522306 -0.01054,-0.522305 -0.506501,-2.499446 C 14.227926,9.1102334 14,7.9783122 14,7.9695481 14,7.9607841 13.664394,8.2890009 13.254208,8.6989194 L 12.508417,9.4442256 12.199521,9.2181203 C 12.029628,9.0937625 11.848437,8.9529222 11.796875,8.9051413 11.745313,8.8573606 11.616055,8.7572041 11.509636,8.6825713 11.00394,8.3279219 9.9362378,7.5196206 9.9441869,7.4974525 c 0.00881,-0.024575 1.1576171,-0.8848128 1.5341311,-1.1487737 0.106456,-0.074633 0.235745,-0.1748857 0.287307,-0.2227841 0.05156,-0.047898 0.241055,-0.1945006 0.421094,-0.3257831 l 0.327344,-0.2386947 0.742968,0.7424847 C 13.665664,6.7122684 14,7.0392159 14,7.0304519 14,7.0216878 14.225,5.8900156 14.5,4.515625 L 15,2.0167328 V 1.5083664 C 15,1.2287649 14.996235,1 14.991634,1 14.987032,1 13.858766,1.225 12.484375,1.5 11.109984,1.775 9.9817178,2 9.9771163,2 9.972515,2 9.96875,2.2283397 9.96875,2.5074215 v 0.5074216 l 0.445313,0.4461106 0.445312,0.4461107 -0.09375,0.078516 c -0.05156,0.043184 -0.166777,0.1266881 -0.256032,0.185566 -0.08926,0.058877 -0.215818,0.1548262 -0.28125,0.2132193 C 10.11416,4.4862653 8.8909113,5.4009213 8.4918294,5.6828038 8.385985,5.7575647 8.2370747,5.8735803 8.1609178,5.9406163 8.0847609,6.0076522 8.0123478,6.0625 8,6.0625 7.9876522,6.0625 7.9152391,6.0076522 7.8390822,5.9406162 7.7629253,5.8735803 7.614015,5.7575647 7.5081706,5.6828037 7.1090887,5.4009212 5.8858403,4.4862653 5.7716575,4.3843656 5.7062253,4.3259725 5.5796628,4.2300237 5.4904075,4.1711462 5.4011522,4.1122684 5.2859375,4.0287637 5.234375,3.9855803 L 5.140625,3.9070644 5.5859375,3.4609537 6.03125,3.0148431 V 2.5074215 C 6.03125,2.2283397 6.027485,2 6.0228837,2 6.0182822,2 4.8900156,1.775 3.515625,1.5 2.1412343,1.225 1.0129679,1 1.0083664,1 1.0037649,1 1,1.2287649 1,1.5083664 V 2.0167328 L 1.5,4.515625 C 1.775,5.8900156 2,7.0216878 2,7.0304519 2,7.0392159 2.3343359,6.7122684 2.7429687,6.3039016 L 3.4859375,5.5614169 3.8132812,5.8001116 c 0.1800391,0.1312825 0.3695313,0.2778846 0.4210938,0.3257831 0.051563,0.047898 0.1808506,0.1481512 0.2873072,0.222784 0.3822397,0.267975 1.5253831,1.1243791 1.5343731,1.1494997 0.00505,0.014109 -0.04831,0.067932 -0.1185756,0.1196057 L 5.8097237,7.7117369 5.6903072,7.6540409 C 5.6246278,7.6223081 5.4867572,7.5729541 5.3839278,7.544365 5.2383403,7.5038878 5.1080513,7.4257997 4.7951866,7.1915047 4.5742084,7.0260209 4.3154381,6.8368066 4.2201416,6.7710288 4.124845,6.7052509 4.0046875,6.6124531 3.953125,6.5648119 3.8075666,6.4303225 3.5542291,6.2475172 3.5266084,6.2570425 3.5129203,6.2617628 3.2228275,6.5433303 2.8819572,6.8827478 L 2.262193,7.4998706 2.8496873,8.0858728 3.4371816,8.671875 3.3123409,8.8684434 C 3.2436784,8.9765563 3.1875,9.0818863 3.1875,9.10251 3.1875,9.1231341 2.9218686,8.8746528 2.597208,8.5503294 L 2.006916,7.9606506 1.9747817,8.1131378 c -0.017674,0.083868 -0.2252059,1.1227997 -0.4611824,2.3087372 -0.412697,2.074075 -0.43333,2.163396 -0.54140408,2.34375 -0.0617958,0.103125 -0.13679234,0.229688 -0.16665903,0.28125 C 0.70296297,13.22396 0.59193475,13.47464 0.55513328,13.612237 0.53486794,13.688007 0.50641881,13.75 0.49191303,13.75 c -0.0145058,0 -0.0214535,-0.200391 -0.0154393,-0.445312 0.0105969,-0.43155 0.0265087,-0.522192 0.51482894,-2.932756 C 1.2684444,9.0038378 1.5154591,7.8359937 1.5402242,7.7767225 1.5649892,7.7174512 1.6301291,7.631195 1.6849794,7.5850412 l 0.099728,-0.083915 -0.1090761,-0.09577 C 1.6089783,7.3468341 1.548191,7.2524203 1.5193387,7.1626053 1.4933697,7.0817662 1.2526078,5.9149547 0.98431231,4.5696912 L 0.49650228,2.1237573 0.50606362,1.4703247 C 0.51651241,0.75624703 0.52145175,0.73634572 0.72616553,0.58350481 0.89720753,0.45580353 0.97449603,0.46668556 3.5625,0.98285456 4.9117188,1.2519518 6.0801509,1.4928332 6.1590163,1.5181465 c 0.1569612,0.05038 0.2872793,0.1673218 0.3389956,0.3042004 0.043652,0.115535 0.043959,1.2698909 3.687e-4,1.3865562 -0.018078,0.048385 -0.15377,0.2098888 -0.3015369,0.3588985 l -0.2686671,0.2709265 0.090599,0.080859 C 6.113145,4.0038109 7.4576,5.0105703 7.7850141,5.2421875 7.8882728,5.3152344 7.9850166,5.375 8,5.375 8.0149834,5.375 8.1117272,5.3152344 8.2149859,5.2421875 8.5424,5.0105703 9.886855,4.0038109 9.9812241,3.9195872 L 10.071823,3.8387281 9.8031563,3.5678016 C 9.6553894,3.4187919 9.5196978,3.2572878 9.5016194,3.2089031 9.4580291,3.0922378 9.4583359,1.9378819 9.5019881,1.8223469 9.5537044,1.6854683 9.6840225,1.5685262 9.8409838,1.5181465 9.9198491,1.4928332 11.088281,1.2519518 12.4375,0.98285456 c 2.588004,-0.516169 2.665293,-0.52705103 2.836334,-0.39934975 0.204714,0.15284091 0.209654,0.17274222 0.220102,0.88681989 l 0.0096,0.6534325 -0.48781,2.445934 c -0.268296,1.3452635 -0.509058,2.512075 -0.535027,2.5929141 -0.02885,0.089815 -0.08964,0.1842288 -0.156292,0.2427506 l -0.109076,0.09577 0.09973,0.083915 c 0.05485,0.046154 0.11999,0.13241 0.144755,0.1916812 0.02477,0.059271 0.272358,1.2271153 0.550207,2.5952099 l 0.505179,2.487443 2.19e-4,0.677432 c 2.18e-4,0.63567 -0.0037,0.682749 -0.0642,0.763694 -0.111759,0.149628 -0.218896,0.209124 -0.39521,0.219472 -0.09095,0.0053 -0.200515,-0.0033 -0.243484,-0.01911 z M 13.118379,8.1171875 13.737937,7.5 13.118108,6.8828125 c -0.340906,-0.3394531 -0.631028,-0.6210497 -0.644716,-0.62577 -0.02762,-0.00953 -0.280959,0.17328 -0.426517,0.3077694 -0.05156,0.047641 -0.171729,0.140439 -0.267038,0.2062168 -0.285659,0.1971504 -0.951057,0.700455 -0.960575,0.7265744 -0.0078,0.021396 0.425121,0.3562641 1.013096,0.7836469 0.106406,0.077344 0.282577,0.2141822 0.391491,0.3040856 0.108914,0.089903 0.215339,0.1602157 0.236499,0.15625 0.02116,-0.00397 0.317274,-0.284945 0.658031,-0.6243981 z"
       id="path821"
       inkscape:connector-curvature="0" />
    <path
       style="fill:#006500;stroke-width:0.000357143"
       d="M 1.6564719,14.96579 C 1.5355137,14.92288 1.4319344,14.852563 1.3057519,14.727697 0.92304994,14.348989 0.90180313,13.862068 1.2429629,13.288742 1.8327113,12.297657 1.9540762,12.095247 2.0156947,12 2.0546116,11.939844 2.2025031,11.69375 2.3443424,11.453125 2.4861817,11.2125 2.6338065,10.966406 2.6723977,10.90625 2.7109888,10.846094 2.8743147,10.575435 3.0353442,10.304787 3.1963738,10.034138 3.4152103,9.6685134 3.5216481,9.4922869 3.6280856,9.3160603 3.773275,9.0734375 3.8442909,8.953125 3.9153069,8.8328125 4.0057541,8.6803156 4.0452847,8.6142431 4.0848156,8.5481706 4.1989672,8.4114403 4.298955,8.3103981 4.5940006,8.0122412 4.9614944,7.927775 5.3673488,8.0648341 5.5269184,8.1187216 5.5931375,8.1655025 5.7595447,8.3419028 5.8696606,8.4586316 6.0188347,8.6579719 6.0910425,8.7848809 6.16325,8.9117903 6.3121247,9.1632812 6.421875,9.34375 6.5316253,9.5242187 6.6792816,9.7703125 6.75,9.890625 c 0.070718,0.120312 0.2156644,0.362935 0.3221019,0.539162 0.1064378,0.176226 0.3252744,0.541851 0.486304,0.8125 0.1610294,0.270648 0.3245904,0.541307 0.3634691,0.601463 0.038879,0.06016 0.2024397,0.330906 0.3634691,0.601665 0.1610297,0.27076 0.3662947,0.615291 0.456145,0.765625 0.2905209,0.486089 0.35035,0.790462 0.2262953,1.151255 -0.089707,0.260897 -0.347031,0.518545 -0.6048528,0.605612 -0.1837072,0.06204 -0.2528782,0.0633 -3.3611869,0.06106 -3.0630047,-0.0022 -3.1796026,-0.0044 -3.3452728,-0.06318 z M 8.1593994,14.495809 C 8.3141278,14.444186 8.4566644,14.295405 8.5001341,14.140146 8.531965,14.026457 8.5296953,13.980197 8.4858031,13.84805 8.45712,13.761693 8.4087862,13.6586 8.378395,13.618956 8.3480041,13.579311 8.3140116,13.525781 8.3028559,13.5 8.2917006,13.474219 8.2474541,13.396875 8.2045303,13.328125 8.1616066,13.259375 8.0978803,13.153906 8.0629162,13.09375 7.9775528,12.94688 7.9340034,12.877011 7.8583953,12.765625 7.823395,12.714063 7.7775422,12.636719 7.7565,12.59375 7.7354575,12.550781 7.6902306,12.469922 7.6559956,12.414063 7.5377997,12.221209 7.4701284,12.108988 7.4063091,12 7.3710834,11.939844 7.3071434,11.834375 7.2642197,11.765625 7.2212959,11.696875 7.1773634,11.619531 7.1665919,11.59375 7.1558203,11.567969 7.1164112,11.504687 7.0790156,11.453125 7.0416203,11.401563 7.00181,11.338281 6.9905487,11.3125 6.9792875,11.286719 6.9349541,11.209375 6.8920303,11.140625 6.8491066,11.071875 6.7851928,10.966406 6.75,10.90625 6.7148072,10.846094 6.6508934,10.740625 6.6079697,10.671875 6.5650459,10.603125 6.5207125,10.525781 6.5094512,10.5 6.49819,10.474219 6.4583797,10.410937 6.4209844,10.359375 6.3835887,10.307813 6.3441797,10.244531 6.3334081,10.21875 6.3226366,10.192969 6.2787041,10.115625 6.2357803,10.046875 6.1928566,9.978125 6.1289428,9.8726563 6.09375,9.8125 6.0585572,9.7523438 5.9946981,9.646875 5.9518409,9.578125 5.9089841,9.509375 5.8601294,9.425 5.843275,9.390625 5.8264209,9.35625 5.7563516,9.2388225 5.6875656,9.1296747 5.6187794,9.0205272 5.5625,8.9218481 5.5625,8.9103881 5.5625,8.8989281 5.4998919,8.8179809 5.4233706,8.7305059 5.1294784,8.3945428 4.7276481,8.4571872 4.4965181,8.875 4.46324,8.9351562 4.4008934,9.040625 4.3579697,9.109375 4.3150459,9.178125 4.2711134,9.2554687 4.2603419,9.28125 4.2495703,9.3070312 4.2101612,9.3703125 4.1727656,9.421875 4.1353703,9.4734375 4.09556,9.5367187 4.0842987,9.5625 4.0730375,9.5882812 4.0287041,9.665625 3.9857803,9.734375 3.9428566,9.803125 3.8789428,9.9085937 3.84375,9.96875 c -0.035193,0.060156 -0.099107,0.165625 -0.1420303,0.234375 -0.042924,0.06875 -0.087257,0.146094 -0.098518,0.171875 -0.011261,0.02578 -0.051071,0.08906 -0.088467,0.140625 -0.037396,0.05156 -0.076805,0.114844 -0.087576,0.140625 -0.010772,0.02578 -0.054704,0.103125 -0.097628,0.171875 -0.042924,0.06875 -0.1068637,0.174219 -0.1420894,0.234375 -0.063819,0.108988 -0.1314905,0.221209 -0.2496865,0.414062 -0.034235,0.05586 -0.079462,0.136719 -0.1005043,0.179688 -0.021042,0.04297 -0.068296,0.120312 -0.1050081,0.171875 -0.036712,0.05156 -0.076088,0.114844 -0.087502,0.140625 -0.011414,0.02578 -0.06243,0.110156 -0.1133689,0.1875 -0.050939,0.07734 -0.1067179,0.16875 -0.1239533,0.203125 -0.017235,0.03438 -0.066402,0.11875 -0.1092588,0.1875 -0.042857,0.06875 -0.1063029,0.174219 -0.140991,0.234375 -0.034688,0.06016 -0.097969,0.165625 -0.140625,0.234375 -0.042656,0.06875 -0.1063766,0.174219 -0.1416019,0.234375 -0.035225,0.06016 -0.089818,0.151562 -0.1213161,0.203125 -0.2326633,0.380866 -0.2731837,0.506029 -0.2224663,0.687174 0.041987,0.149963 0.1844763,0.303384 0.3282163,0.353397 0.137501,0.04784 6.1569106,0.04986 6.3000244,0.0021 z M 2.9375,13.481387 c 0,-0.01024 0.025837,-0.05594 0.057415,-0.101563 0.031578,-0.04562 0.066962,-0.104043 0.078631,-0.129824 0.011669,-0.02578 0.062894,-0.110156 0.1138326,-0.1875 0.050939,-0.07734 0.1067181,-0.16875 0.1239534,-0.203125 0.017235,-0.03438 0.066402,-0.11875 0.1092587,-0.1875 0.042857,-0.06875 0.107316,-0.174219 0.1432419,-0.234375 0.035926,-0.06016 0.099017,-0.165625 0.1402019,-0.234375 0.041185,-0.06875 0.1038662,-0.174219 0.1392919,-0.234375 0.035426,-0.06016 0.099475,-0.165625 0.1423325,-0.234375 0.042857,-0.06875 0.092023,-0.153125 0.1092587,-0.1875 0.017235,-0.03438 0.072717,-0.125781 0.1232916,-0.203125 0.050575,-0.07734 0.1136162,-0.182813 0.1400915,-0.234375 0.026475,-0.05156 0.09,-0.157031 0.1411657,-0.234375 0.051166,-0.07734 0.1071303,-0.16875 0.1243656,-0.203125 0.017235,-0.03438 0.066402,-0.11875 0.1092587,-0.1875 0.042857,-0.06875 0.1098972,-0.179641 0.1489782,-0.246425 0.039081,-0.06678 0.086218,-0.147248 0.1047497,-0.178809 0.030734,-0.05234 0.038308,-0.04854 0.086229,0.0433 0.028894,0.05538 0.080529,0.146387 0.1147438,0.202247 0.1295159,0.211449 0.1875328,0.30803 0.2487315,0.414062 0.03472,0.06016 0.098028,0.165625 0.1406838,0.234375 0.042656,0.06875 0.1063503,0.174219 0.1415431,0.234375 0.035193,0.06016 0.099052,0.165625 0.1419091,0.234375 0.042857,0.06875 0.092023,0.153125 0.1092587,0.1875 0.017235,0.03438 0.0732,0.125781 0.1243656,0.203125 0.051166,0.07734 0.1146904,0.182813 0.1411657,0.234375 0.026475,0.05156 0.089516,0.157031 0.1400915,0.234375 0.050575,0.07734 0.1060563,0.16875 0.1232916,0.203125 0.017235,0.03438 0.066402,0.11875 0.1092587,0.1875 0.042857,0.06875 0.1069066,0.174219 0.1423325,0.234375 0.035426,0.06016 0.098107,0.165625 0.1392919,0.234375 0.041185,0.06875 0.1042269,0.177734 0.1400935,0.242188 L 7.0950203,13.5 H 5.01626 C 3.8729422,13.5 2.9375,13.4916 2.9375,13.48139 Z M 6.106645,12.851563 C 6.0589081,12.769922 5.9802409,12.639844 5.9318284,12.5625 5.8834162,12.485156 5.8221741,12.379687 5.795735,12.328125 5.7692959,12.276563 5.7071513,12.171094 5.6576356,12.09375 5.6081197,12.016406 5.4935194,11.826563 5.4029678,11.671875 5.3124162,11.517188 5.2147006,11.355469 5.1858222,11.3125 5.1569437,11.269531 5.104725,11.186478 5.0697809,11.127936 l -0.063535,-0.106439 -0.06679,0.122064 c -0.069556,0.127119 -0.0853,0.153949 -0.3925809,0.669002 -0.103125,0.172854 -0.24375,0.410163 -0.3125,0.527353 -0.06875,0.11719 -0.1403478,0.23279 -0.1591063,0.256891 -0.018758,0.0241 -0.079556,0.124677 -0.1351059,0.223506 L 3.8391631,13 h 1.1771378 1.1771379 z"
       id="path819"
       inkscape:connector-curvature="0" />
  </g>
</svg>
