<?xml version="1.0" encoding="UTF-8" standalone="no"?>
<!-- Created with Inkscape (http://www.inkscape.org/) -->

<svg
   xmlns:dc="http://purl.org/dc/elements/1.1/"
   xmlns:cc="http://creativecommons.org/ns#"
   xmlns:rdf="http://www.w3.org/1999/02/22-rdf-syntax-ns#"
   xmlns:svg="http://www.w3.org/2000/svg"
   xmlns="http://www.w3.org/2000/svg"
   xmlns:sodipodi="http://sodipodi.sourceforge.net/DTD/sodipodi-0.dtd"
   xmlns:inkscape="http://www.inkscape.org/namespaces/inkscape"
   version="1.1"
   id="svg2"
   width="16"
   height="16"
   viewBox="0 0 16 16"
   sodipodi:docname="AREA.svg"
   inkscape:version="0.92.4 (5da689c313, 2019-01-14)">
  <metadata
     id="metadata8">
    <rdf:RDF>
      <cc:Work
         rdf:about="">
        <dc:format>image/svg+xml</dc:format>
        <dc:type
           rdf:resource="http://purl.org/dc/dcmitype/StillImage" />
        <dc:title></dc:title>
      </cc:Work>
    </rdf:RDF>
  </metadata>
  <defs
     id="defs6" />
  <sodipodi:namedview
     pagecolor="#ffffff"
     bordercolor="#666666"
     borderopacity="1"
     objecttolerance="10"
     gridtolerance="10"
     guidetolerance="10"
     inkscape:pageopacity="0"
     inkscape:pageshadow="2"
     inkscape:window-width="811"
     inkscape:window-height="572"
     id="namedview4"
     showgrid="false"
     inkscape:zoom="14.75"
     inkscape:cx="8"
     inkscape:cy="8"
     inkscape:window-x="0"
     inkscape:window-y="0"
     inkscape:window-maximized="0"
     inkscape:current-layer="svg2" />
  <g
     id="AREA">
    <path
       style="fill:#ffffff;stroke-width:0.03125"
       d="M 0,8 V 0 h 8 8 v 8 8 H 8 0 Z m 7,6.5 V 14 H 4.5 2 V 11.5 9 H 1.5 1 v 3 3 H 4 7 Z M 15,12 V 9 H 14.5 14 V 11.5 14 H 11.5 9 v 0.5 0.5 h 3 3 z M 13,8 V 3 H 8 3 v 5 5 h 5 5 z M 2,4.5 V 2 H 4.5 7 V 1.5 1 H 4 1 V 4 7 H 1.5 2 Z M 15,4 V 1 H 12 9 V 1.5 2 H 11.5 14 V 4.5 7 h 0.5 0.5 z"
       id="path825"
       inkscape:connector-curvature="0" />
    <path
       style="fill:#fefefe;stroke-width:0.03125"
       d="M 1,12 V 9 H 1.5 2 V 11.5 14 H 4.5 7 V 14.5 15 H 4 1 Z m 8,2.5 V 14 H 11.5 14 V 11.5 9 h 0.5 0.5 v 3 3 H 12 9 Z M 1,4 V 1 H 4 7 V 1.5 2 H 4.5 2 V 4.5 7 H 1.5 1 Z M 14,4.5 V 2 H 11.5 9 V 1.5 1 h 3 3 V 4 7 H 14.5 14 Z"
       id="path823"
       inkscape:connector-curvature="0" />
    <path
       style="fill:#f2bc00;stroke-width:0.03125"
       d="M 3,10.75 V 8.5 H 5.25 7.5 V 10.75 13 H 5.25 3 Z m 5.5,0 V 8.5 H 10.75 13 V 10.75 13 H 10.75 8.5 Z M 3,5.25 V 3 H 5.25 7.5 V 5.25 7.5 H 5.25 3 Z m 5.5,0 V 3 H 10.75 13 V 5.25 7.5 H 10.75 8.5 Z"
       id="path821"
       inkscape:connector-curvature="0" />
    <path
       style="fill:#000000;stroke-width:0.03125"
       d="M 7.5,10.75 V 8.5 H 5.25 3 V 8 7.5 H 5.25 7.5 V 5.25 3 H 8 8.5 V 5.25 7.5 H 10.75 13 V 8 8.5 H 10.75 8.5 V 10.75 13 H 8 7.5 Z"
       id="path819"
       inkscape:connector-curvature="0" />
  </g>
</svg>
