<?xml version="1.0" encoding="UTF-8" standalone="no"?>
<!-- Created with Inkscape (http://www.inkscape.org/) -->

<svg
   version="1.1"
   id="svg2"
   width="1600"
   height="1600"
   viewBox="0 0 1600 1600"
   sodipodi:docname="arrow_leftright.svg"
   inkscape:version="1.2.2 (732a01da63, 2022-12-09)"
   xmlns:inkscape="http://www.inkscape.org/namespaces/inkscape"
   xmlns:sodipodi="http://sodipodi.sourceforge.net/DTD/sodipodi-0.dtd"
   xmlns="http://www.w3.org/2000/svg"
   xmlns:svg="http://www.w3.org/2000/svg"
   xmlns:rdf="http://www.w3.org/1999/02/22-rdf-syntax-ns#"
   xmlns:cc="http://creativecommons.org/ns#"
   xmlns:dc="http://purl.org/dc/elements/1.1/">
  <metadata
     id="metadata8">
    <rdf:RDF>
      <cc:Work
         rdf:about="">
        <dc:format>image/svg+xml</dc:format>
        <dc:type
           rdf:resource="http://purl.org/dc/dcmitype/StillImage" />
      </cc:Work>
    </rdf:RDF>
  </metadata>
  <defs
     id="defs6" />
  <sodipodi:namedview
     pagecolor="#808080"
     bordercolor="#666666"
     borderopacity="1"
     objecttolerance="10"
     gridtolerance="10"
     guidetolerance="10"
     inkscape:pageopacity="0"
     inkscape:pageshadow="2"
     inkscape:window-width="1993"
     inkscape:window-height="1009"
     id="namedview4"
     showgrid="false"
     inkscape:zoom="0.5"
     inkscape:cx="-1"
     inkscape:cy="8"
     inkscape:window-x="-8"
     inkscape:window-y="-8"
     inkscape:window-maximized="1"
     inkscape:current-layer="ARROW_LEFTRIGHT"
     inkscape:showpageshadow="0"
     inkscape:pagecheckerboard="true"
     inkscape:deskcolor="#d1d1d1" />
  <g
     id="ARROW_LEFTRIGHT"
     transform="matrix(100,0,0,100,0,4.9999997e-5)"
     style="stroke-width:0.0114286">
    <path
       style="fill:none;stroke-width:0.000357143"
       d="M 0,8 V 0 h 8 8 v 8 8 H 8 0 Z m 4.9285153,4.620885 C 5.0670072,12.569874 5.1614847,12.502159 5.3318222,12.331822 5.6190991,12.044545 5.6875,11.875562 5.6875,11.453125 c 0,-0.505918 -0.023964,-0.546527 -0.7607247,-1.289062 L 4.2988847,9.53125 h 3.7167403 3.71674 l -0.62789,0.632813 c -0.736761,0.742535 -0.760725,0.783144 -0.760725,1.289062 0,0.422437 0.0684,0.59142 0.355678,0.878697 0.287277,0.287277 0.45626,0.355678 0.878697,0.355678 0.555438,0 0.41473,0.108881 2.334787,-1.806683 1.382677,-1.3794414 1.691002,-1.7024211 1.74926,-1.8324004 0.05532,-0.1234163 0.07314,-0.2292744 0.0818,-0.4859166 0.0201,-0.5955178 0.14354,-0.4329316 -1.831911,-2.4129172 -1.40609,-1.4093191 -1.733603,-1.7222197 -1.863655,-1.7805097 -0.123403,-0.05531 -0.22927,-0.07313 -0.485904,-0.081793 -0.457772,-0.015453 -0.622821,0.046896 -0.925572,0.3496481 -0.287277,0.2872769 -0.355678,0.4562606 -0.355678,0.8786972 0,0.5091825 0.02018,0.5428206 0.791992,1.3203125 L 11.732455,7.5 H 8.015625 4.2987953 L 4.9580081,6.8359375 C 5.7298222,6.0584456 5.75,6.0248075 5.75,5.515625 5.75,5.0931884 5.6815991,4.9242047 5.3943222,4.6369278 5.0915706,4.3341762 4.9265222,4.2718269 4.46875,4.2872797 4.2121156,4.2959428 4.1062487,4.3137634 3.9828456,4.3690731 3.8527941,4.4273631 3.5252813,4.7402637 2.1191905,6.1495828 0.14374011,8.1295684 0.26717713,7.9669822 0.28727963,8.5625 c 0.008653,0.2563247 0.0265053,0.362545 0.0815863,0.4854225 0.0578501,0.1290547 0.36924868,0.4559969 1.73434537,1.8209145 1.913184,1.912934 1.7891006,1.816573 2.340929,1.817921 0.2337359,5.72e-4 0.3450953,-0.01457 0.484375,-0.06587 z"
       id="path823"
       inkscape:connector-curvature="0" />
    <path
       style="fill:#fefefe;stroke-width:0.000357143"
       d="M 4.140625,12.127498 C 3.9647297,12.044997 0.89543028,8.9660569 0.82921937,8.8056913 0.76770512,8.6567012 0.76770472,8.3745503 0.82921856,8.2255587 0.89544687,8.0651484 4.0271494,4.9237928 4.203125,4.8412528 4.3578081,4.7687 4.6461722,4.7631753 4.8056912,4.8297087 4.9593119,4.8937822 5.1189541,5.0486456 5.1906297,5.203125 5.2623122,5.3576191 5.2677675,5.6464925 5.2020094,5.8056912 5.16971,5.8838872 4.8147053,6.2616106 4.1162469,6.9609375 L 3.0784748,8 h 4.9371502 4.93715 L 11.915003,6.9609375 C 11.216545,6.2616106 10.86154,5.8838872 10.829241,5.8056912 c -0.06576,-0.1591987 -0.0603,-0.4480721 0.01138,-0.6025662 0.07168,-0.1544794 0.231318,-0.3093428 0.384939,-0.3734163 0.148538,-0.061953 0.430686,-0.062192 0.580132,-4.906e-4 0.160411,0.066228 3.301766,3.197931 3.384306,3.3739066 0.07787,0.1660256 0.07787,0.4589731 1e-6,0.625 -0.0825,0.1758953 -3.161441,3.2451943 -3.321807,3.3114053 -0.159221,0.06574 -0.44809,0.06027 -0.602566,-0.0114 -0.154479,-0.07167 -0.309343,-0.231317 -0.373416,-0.384938 -0.06196,-0.148561 -0.06219,-0.430708 -4.66e-4,-0.580133 0.03223,-0.07801 0.378653,-0.44727 1.054507,-1.123996 L 12.952764,9.03125 H 8.015625 3.0784856 l 1.0065147,1.007813 c 0.6758541,0.676725 1.0222813,1.045981 1.0545072,1.123996 0.06576,0.159196 0.060305,0.44807 -0.011378,0.602566 -0.071676,0.154479 -0.2313178,0.309343 -0.3849384,0.373416 -0.1595179,0.06653 -0.4478829,0.06101 -0.6025663,-0.01154 z"
       id="path821"
       inkscape:connector-curvature="0" />
    <path
       style="fill:#000000;stroke-width:0.000357143"
       d="M 3.9538359,12.609236 C 3.7811478,12.538251 3.6414394,12.406864 2.1032113,10.868837 0.73811463,9.5039194 0.426716,9.1769772 0.36886594,9.0479225 0.31378494,8.925045 0.2959322,8.8188247 0.28727963,8.5625 0.26717713,7.9669822 0.14374011,8.1295684 2.1191905,6.1495828 3.5252813,4.7402638 3.8527941,4.4273631 3.9828456,4.3690731 4.1062487,4.3137634 4.2121156,4.2959428 4.46875,4.2872797 4.9265222,4.2718269 5.0915706,4.3341762 5.3943222,4.6369278 5.6815991,4.9242047 5.75,5.0931884 5.75,5.515625 5.75,6.0248075 5.7298222,6.0584456 4.9580081,6.8359375 L 4.2987953,7.5 h 3.7168297 3.71683 L 11.073242,6.8359375 C 10.301428,6.0584456 10.28125,6.0248075 10.28125,5.515625 c 0,-0.4224366 0.0684,-0.5914203 0.355678,-0.8786972 0.302751,-0.3027516 0.4678,-0.3651009 0.925572,-0.3496481 0.256634,0.00866 0.362501,0.026484 0.485904,0.081793 0.130052,0.05829 0.457565,0.3711906 1.863655,1.7805097 1.975451,1.9799856 1.852014,1.8173994 1.831911,2.4129172 -0.0087,0.2566422 -0.02648,0.3625003 -0.0818,0.4859166 -0.05826,0.1299793 -0.366583,0.452959 -1.74926,1.8324008 -1.920057,1.915564 -1.779349,1.806683 -2.334787,1.806683 -0.422437,0 -0.59142,-0.0684 -0.878697,-0.355678 -0.287277,-0.287277 -0.355678,-0.45626 -0.355678,-0.878697 0,-0.505918 0.02396,-0.546527 0.760725,-1.289062 L 11.732365,9.53125 H 8.015625 4.2988847 l 0.6278906,0.632813 C 5.6635356,10.906598 5.6875,10.947207 5.6875,11.453125 c 0,0.422437 -0.068401,0.59142 -0.3556778,0.878697 -0.28961,0.28961 -0.4556288,0.355992 -0.8876819,0.354936 -0.2496947,-6.09e-4 -0.3366375,-0.01436 -0.4903044,-0.07752 z m 0.7893553,-0.470195 c 0.1536207,-0.06407 0.3132629,-0.218937 0.3849385,-0.373416 0.071683,-0.154496 0.077138,-0.44337 0.011378,-0.602566 -0.032226,-0.07802 -0.3786531,-0.447271 -1.0545072,-1.123996 L 3.0784856,9.03125 h 4.9371394 4.937139 l -1.006514,1.007813 c -0.675854,0.676725 -1.022282,1.045981 -1.054507,1.123996 -0.06172,0.149424 -0.0615,0.431572 4.65e-4,0.580132 0.06407,0.153621 0.218937,0.313263 0.373416,0.384939 0.154476,0.07167 0.443345,0.07714 0.602567,0.0114 0.160365,-0.06621 3.239305,-3.1355107 3.321806,-3.311406 0.07787,-0.1660269 0.07787,-0.4589744 0,-0.625 -0.08254,-0.1759756 -3.223896,-3.3076781 -3.384306,-3.3739066 -0.149447,-0.061701 -0.431594,-0.061463 -0.580133,4.907e-4 -0.15362,0.064073 -0.313263,0.2189368 -0.384938,0.3734162 -0.07168,0.1544941 -0.07714,0.4433675 -0.01138,0.6025663 0.0323,0.078196 0.387304,0.4559193 1.085763,1.1552462 L 12.952775,8 H 8.015625 3.0784748 L 4.1162469,6.9609375 C 4.8147053,6.2616106 5.16971,5.8838872 5.2020094,5.8056912 5.2677675,5.6464925 5.2623122,5.3576191 5.1906297,5.203125 5.1189541,5.0486456 4.9593119,4.8937822 4.8056912,4.8297087 4.6461722,4.7631753 4.3578081,4.7687 4.203125,4.8412528 4.0271494,4.9237928 0.89544688,8.0651484 0.82921856,8.2255587 c -0.0615138,0.1489916 -0.0615134,0.4311425 8.1e-7,0.5801325 0.0662109,0.1603657 3.13551033,3.2393058 3.31140563,3.3218068 0.1546834,0.07255 0.4430484,0.07808 0.6025662,0.01154 z"
       id="path819"
       inkscape:connector-curvature="0" />
  </g>
</svg>
