<?xml version="1.0" encoding="UTF-8" standalone="no"?>
<!-- Created with Inkscape (http://www.inkscape.org/) -->

<svg
   version="1.1"
   id="svg2"
   width="1600"
   height="1600"
   viewBox="0 0 1600 1600"
   sodipodi:docname="assign.svg"
   inkscape:version="1.2.2 (732a01da63, 2022-12-09)"
   xmlns:inkscape="http://www.inkscape.org/namespaces/inkscape"
   xmlns:sodipodi="http://sodipodi.sourceforge.net/DTD/sodipodi-0.dtd"
   xmlns="http://www.w3.org/2000/svg"
   xmlns:svg="http://www.w3.org/2000/svg"
   xmlns:rdf="http://www.w3.org/1999/02/22-rdf-syntax-ns#"
   xmlns:cc="http://creativecommons.org/ns#"
   xmlns:dc="http://purl.org/dc/elements/1.1/">
  <metadata
     id="metadata8">
    <rdf:RDF>
      <cc:Work
         rdf:about="">
        <dc:format>image/svg+xml</dc:format>
        <dc:type
           rdf:resource="http://purl.org/dc/dcmitype/StillImage" />
      </cc:Work>
    </rdf:RDF>
  </metadata>
  <defs
     id="defs6" />
  <sodipodi:namedview
     pagecolor="#808080"
     bordercolor="#666666"
     borderopacity="1"
     objecttolerance="10"
     gridtolerance="10"
     guidetolerance="10"
     inkscape:pageopacity="0"
     inkscape:pageshadow="2"
     inkscape:window-width="1993"
     inkscape:window-height="1009"
     id="namedview4"
     showgrid="false"
     inkscape:zoom="0.5"
     inkscape:cx="7"
     inkscape:cy="8"
     inkscape:window-x="-8"
     inkscape:window-y="-8"
     inkscape:window-maximized="1"
     inkscape:current-layer="ASSIGN"
     inkscape:showpageshadow="0"
     inkscape:pagecheckerboard="true"
     inkscape:deskcolor="#d1d1d1" />
  <g
     id="ASSIGN"
     transform="matrix(100,0,0,100,0,4.9999997e-5)"
     style="stroke-width:0.0114286">
    <path
       style="fill:none;stroke-width:0.000357143"
       d="M 0,8 V 0 h 8 8 v 8 8 H 8 0 Z m 9.234375,7.409887 c 1.307585,-0.224235 2.458183,-0.736795 3.453076,-1.538252 0.385636,-0.310656 1.050687,-0.995119 1.332897,-1.3718 0.733654,-0.979249 1.199262,-2.090798 1.407115,-3.35921 0.0802,-0.4894316 0.0802,-1.7918184 0,-2.28125 C 15.21961,5.5909634 14.754002,4.4794141 14.020348,3.5001647 13.738138,3.1234842 13.073087,2.4390213 12.687451,2.1283649 11.673813,1.3118082 10.494122,0.79433234 9.140625,0.57253706 c -0.4894316,-0.0802023 -1.7918184,-0.0802023 -2.28125,0 C 5.5058784,0.79433234 4.3261869,1.3118082 3.3125488,2.1283649 2.9269135,2.4390213 2.2618616,3.1234842 1.9796525,3.5001647 1.2459985,4.4794141 0.78038959,5.5909634 0.57253706,6.859375 c -0.0802023,0.4894316 -0.0802023,1.7918184 0,2.28125 0.22179528,1.353497 0.73927114,2.533188 1.55582784,3.546826 0.3106564,0.385636 0.9951193,1.050687 1.3717998,1.332897 1.0955928,0.820818 2.3782881,1.314176 3.7967103,1.460315 0.06875,0.0071 0.4484375,0.0085 0.84375,0.0032 0.5478163,-0.0074 0.8079328,-0.02497 1.09375,-0.07398 z"
       id="path825"
       inkscape:connector-curvature="0" />
    <path
       style="fill:#fefefe;stroke-width:0.000357143"
       d="M 7.421875,14.980816 C 7.0751806,14.944671 6.6021466,14.861504 6.2687884,14.778087 3.8136863,14.163732 1.8362677,12.186314 1.2219136,9.7312116 1.0560565,9.0684081 1.0169904,8.7383737 1.0169904,8 c 0,-0.7383738 0.039066,-1.0684081 0.2049232,-1.7312116 C 1.8362677,3.8136863 3.8136863,1.8362677 6.2687884,1.2219136 6.9315919,1.0560565 7.2616262,1.0169904 8,1.0169904 c 0.7383738,0 1.0684081,0.039066 1.7312116,0.2049232 C 12.186314,1.8362677 14.163732,3.8136863 14.778087,6.2687884 14.943943,6.9315919 14.98301,7.2616263 14.98301,8 c 0,0.7383738 -0.03907,1.0684081 -0.204923,1.7312116 -0.488529,1.9522744 -1.860391,3.6475534 -3.668712,4.5336124 -0.997415,0.488723 -1.8652369,0.698733 -2.96875,0.718428 -0.3265625,0.0058 -0.65,0.0047 -0.71875,-0.0024 z m -0.1178225,-2.5323 c 0.045491,-0.03396 0.1117047,-0.100571 0.1471416,-0.148016 0.062422,-0.08357 0.064704,-0.128549 0.073197,-1.442894 l 0.00877,-1.356631 2.8248899,-0.0083 c 2.79788,-0.00822 2.825715,-0.00892 2.911178,-0.072731 0.04746,-0.035437 0.115282,-0.103265 0.150719,-0.1507291 0.06242,-0.083605 0.06443,-0.1232187 0.06443,-1.269215 0,-1.1459962 -0.002,-1.1856103 -0.06443,-1.269215 -0.03544,-0.047464 -0.103261,-0.1152922 -0.150719,-0.1507291 -0.08546,-0.063815 -0.113298,-0.06451 -2.911168,-0.072731 L 7.5331766,6.499025 7.5244009,5.1580181 C 7.5159028,3.8594672 7.513585,3.8142803 7.4511941,3.7307491 7.3100237,3.541745 7.1240581,3.4705784 6.8845587,3.5139047 6.7786572,3.5330625 6.5367072,3.7637613 4.6765087,5.6192725 3.4697103,6.8230303 2.5689378,7.745595 2.5436962,7.8036837 2.4918523,7.9229928 2.4873934,8.0869944 2.532679,8.2089031 c 0.040656,0.109445 4.1348166,4.2178499 4.264196,4.2790309 0.1284584,0.06075 0.4014347,0.03953 0.5071775,-0.03942 z"
       id="path823"
       inkscape:connector-curvature="0" />
    <path
       style="fill:#00fe00;stroke-width:0.000357143"
       d="M 5.0078122,10.023447 2.9999993,8.0154441 5.0156247,6.0000003 7.03125,3.9845566 V 5.4922784 7 H 10.015625 13 V 8 9 H 10.015922 7.0318447 l -0.00811,1.515724 -0.00811,1.515725 z"
       id="path821"
       inkscape:connector-curvature="0" />
    <path
       style="fill:#006500;stroke-width:0.000357143"
       d="M 7.296875,15.480663 C 5.8784528,15.334524 4.5957575,14.841166 3.5001647,14.020348 3.1234842,13.738138 2.4390213,13.073087 2.1283649,12.687451 1.3118082,11.673813 0.79433234,10.494122 0.57253706,9.140625 c -0.0802023,-0.4894316 -0.0802023,-1.7918184 0,-2.28125 C 0.78038959,5.5909634 1.2459985,4.4794141 1.9796525,3.5001647 2.2618616,3.1234842 2.9269135,2.4390213 3.3125488,2.1283649 4.3261869,1.3118082 5.5058784,0.79433234 6.859375,0.57253706 c 0.4894316,-0.0802023 1.7918184,-0.0802023 2.28125,0 1.353497,0.22179528 2.533188,0.73927114 3.546826,1.55582784 0.385636,0.3106564 1.050687,0.9951193 1.332897,1.3717998 0.733654,0.9792494 1.199262,2.0907987 1.407115,3.3592103 0.0802,0.4894316 0.0802,1.7918184 0,2.28125 -0.207853,1.268412 -0.673461,2.379961 -1.407115,3.35921 -0.28221,0.376681 -0.947261,1.061144 -1.332897,1.3718 -0.994893,0.801457 -2.145491,1.314017 -3.453076,1.538252 -0.2858172,0.04901 -0.5459337,0.06661 -1.09375,0.07398 -0.3953125,0.0053 -0.775,0.0039 -0.84375,-0.0032 z m 1.8125,-0.571614 c 0.7544931,-0.127973 1.314626,-0.308399 2,-0.644225 1.808321,-0.886059 3.180183,-2.581338 3.668712,-4.5336124 C 14.943943,9.0684081 14.98301,8.7383738 14.98301,8 14.98301,7.2616262 14.94394,6.9315919 14.778087,6.2687884 14.163732,3.8136863 12.186314,1.8362677 9.7312116,1.2219136 9.0684081,1.0560565 8.7383737,1.0169904 8,1.0169904 c -0.7383738,0 -1.0684081,0.039066 -1.7312116,0.2049232 C 3.8136863,1.8362677 1.8362677,3.8136863 1.2219136,6.2687884 1.0560565,6.9315919 1.0169904,7.2616262 1.0169904,8 c 0,0.7383738 0.039066,1.0684081 0.2049232,1.7312116 0.6143541,2.4551024 2.5917727,4.4325204 5.0468748,5.0468754 0.3333582,0.08342 0.8063922,0.166584 1.1530866,0.202729 0.3141512,0.03275 1.3246525,-0.01022 1.6875,-0.07177 z m -2.3125,-2.421115 C 6.6674956,12.426752 2.5733348,8.3183481 2.532679,8.2089031 2.4873934,8.0869944 2.4918523,7.9229928 2.5436962,7.8036838 2.5689378,7.745595 3.4697103,6.8230303 4.6765087,5.6192725 c 1.8601985,-1.8555112 2.1021485,-2.08621 2.20805,-2.1053678 0.2394994,-0.043326 0.425465,0.02784 0.5666354,0.2168444 0.062391,0.083531 0.064709,0.1287181 0.073207,1.427269 l 0.00878,1.3410069 2.8248809,0.0083 c 2.797869,0.00822 2.825705,0.00892 2.911168,0.072731 0.04746,0.035437 0.115282,0.103265 0.150719,0.1507291 0.06242,0.083605 0.06443,0.1232188 0.06443,1.269215 0,1.1459963 -0.002,1.1856103 -0.06443,1.269215 -0.03544,0.047464 -0.103261,0.1152922 -0.150719,0.1507291 -0.08546,0.063815 -0.113299,0.06451 -2.911178,0.072731 l -2.8248903,0.0083 -0.00877,1.3566308 c -0.00849,1.314345 -0.010774,1.35932 -0.073197,1.442894 -0.035437,0.04744 -0.1016507,0.114052 -0.1471416,0.148016 -0.1057428,0.07895 -0.3787191,0.100164 -0.5071775,0.03942 z M 10.015922,9 H 13 V 8 7 H 10.015625 7.03125 V 5.4922784 3.9845566 L 5.0156247,6.0000003 2.9999993,8.0154441 5.0078122,10.023447 7.015625,12.031449 7.0237347,10.515724 7.0318447,9 Z"
       id="path819"
       inkscape:connector-curvature="0" />
  </g>
</svg>
