<?xml version="1.0" encoding="UTF-8" standalone="no"?>
<!-- Created with Inkscape (http://www.inkscape.org/) -->

<svg
   width="16"
   height="16"
   viewBox="0 0 4.2333332 4.2333333"
   version="1.1"
   id="svg9296"
   xml:space="preserve"
   inkscape:version="1.2-beta (1b65182ce9, 2022-04-05)"
   sodipodi:docname="ATTRIBUTE_STORE.svg"
   xmlns:inkscape="http://www.inkscape.org/namespaces/inkscape"
   xmlns:sodipodi="http://sodipodi.sourceforge.net/DTD/sodipodi-0.dtd"
   xmlns="http://www.w3.org/2000/svg"
   xmlns:svg="http://www.w3.org/2000/svg"><sodipodi:namedview
     id="namedview9298"
     pagecolor="#b6b6b6"
     bordercolor="#272727"
     borderopacity="1"
     inkscape:pageshadow="0"
     inkscape:pageopacity="0"
     inkscape:pagecheckerboard="1"
     inkscape:deskcolor="#707070"
     inkscape:document-units="mm"
     showgrid="false"
     inkscape:zoom="16.007407"
     inkscape:cx="3.8419714"
     inkscape:cy="4.685331"
     inkscape:window-width="2560"
     inkscape:window-height="1027"
     inkscape:window-x="1912"
     inkscape:window-y="22"
     inkscape:window-maximized="1"
     inkscape:current-layer="ATTRIBUTE_REMOVE" /><defs
     id="defs9293" /><g
     inkscape:label="Layer 1"
     inkscape:groupmode="layer"
     id="layer1"><g
       id="ATTRIBUTE_REMOVE"
       transform="matrix(0.26458333,0,0,0.26458333,-7.1024621,-0.4729978)"
       inkscape:label="ATTRIBUTE_STORE"><path
         style="fill:#cbcbcb;stroke-width:0.03125"
         d="M 5,13 V 11 H 8.5 12 v 2 2 H 10 8 V 13.5 12 H 7 6 V 13.5 15 H 5.5 5 Z"
         id="path823"
         inkscape:connector-curvature="0"
         transform="translate(26.843952,1.7877082)" /><path
         style="fill:#0065cb;stroke-width:0.03125"
         d="M 2.4920654,13.507692 1,12.015383 V 8.0076916 4 h 1 1 v 3 3 H 8.5 14 V 6 2 H 7.5 1 V 1.5 1 h 7 7 v 7 7 H 13.5 12 V 13 11 H 8.5 5 v 2 2 H 4.4920653 3.9841309 Z"
         id="path821-1"
         inkscape:connector-curvature="0"
         transform="translate(26.843952,1.7877082)" /><path
         style="fill:#323232;stroke-width:0.03125"
         d="M 6,13.5 V 12 H 7 8 V 13.5 15 H 7 6 Z M 1,3 V 2 H 2 3 V 3 4 H 2 1 Z"
         id="path819"
         inkscape:connector-curvature="0"
         transform="translate(26.843952,1.7877082)" /><path
         style="fill:#fefefe;stroke-width:0.03125"
         d="M 3,6 V 2 H 8.5 14 v 4 4 H 8.5 3 Z"
         id="path825-8"
         inkscape:connector-curvature="0"
         transform="translate(26.843952,1.7877082)" /><path
         style="fill:#fefefe;stroke-width:0.03125"
         d="m 37.999263,14.25 v -1.5 h 1.5 1.5 v 1.5 1.5 h -1.5 -1.5 z"
         id="path827"
         inkscape:connector-curvature="0" /><path
         style="fill:#cbcbcb;stroke-width:0.03125"
         d="M 36.999263,14.257632 V 11.765264 L 38.007253,10.757632 39.015243,9.75 h 0.499645 0.499645 l 1.000178,0.999816 1.000177,0.999816 -0.0082,2.500184 -0.0082,2.500184 h -2.499593 -2.499632 z m 4,-0.0076 v -1.5 h -1.5 -1.5 v 1.5 1.5 h 1.5 1.5 z m -1,-3 v -0.5 h -0.5 -0.5 v 0.5 0.5 h 0.5 0.5 z"
         id="path825"
         inkscape:connector-curvature="0" /><path
         style="fill:#323232;stroke-width:0.03125"
         d="m 36.796138,17.206163 c -0.115058,-0.05148 -0.219237,-0.161574 -0.263543,-0.27851 -0.04593,-0.12122 -0.04653,-5.231851 -6.25e-4,-5.355306 0.04351,-0.117017 2.141877,-2.2224287 2.270975,-2.2785957 0.123276,-0.05363 1.266501,-0.06262 1.40522,-0.01104 0.118558,0.04408 2.224765,2.1441337 2.270801,2.2641667 0.02654,0.0692 0.03186,0.786756 0.02031,2.73993 -0.01544,2.611576 -0.01649,2.647308 -0.08007,2.732444 -0.03544,0.04744 -0.10326,0.115258 -0.150718,0.150695 -0.08539,0.06376 -0.113969,0.0645 -2.732444,0.0713 -2.157868,0.0056 -2.663457,-8.72e-4 -2.739907,-0.03508 z m 5.210569,-2.956347 0.0082,-2.500184 L 41.014711,10.749816 40.014533,9.75 h -0.499645 -0.499645 l -1.00799,1.007632 -1.00799,1.007632 V 14.257632 16.75 h 2.499632 2.499631 z M 38.999263,11.25 v -0.5 h 0.5 0.5 v 0.5 0.5 h -0.5 -0.5 z"
         id="path821"
         inkscape:connector-curvature="0" /></g></g></svg>
