<?xml version="1.0" encoding="UTF-8" standalone="no"?>
<!-- Created with Inkscape (http://www.inkscape.org/) -->

<svg
   version="1.1"
   id="svg2"
   width="1600"
   height="1600"
   viewBox="0 0 1600 1600"
   sodipodi:docname="attribute_texture.svg"
   inkscape:version="1.2.2 (732a01da63, 2022-12-09)"
   xmlns:inkscape="http://www.inkscape.org/namespaces/inkscape"
   xmlns:sodipodi="http://sodipodi.sourceforge.net/DTD/sodipodi-0.dtd"
   xmlns="http://www.w3.org/2000/svg"
   xmlns:svg="http://www.w3.org/2000/svg"
   xmlns:rdf="http://www.w3.org/1999/02/22-rdf-syntax-ns#"
   xmlns:cc="http://creativecommons.org/ns#"
   xmlns:dc="http://purl.org/dc/elements/1.1/">
  <metadata
     id="metadata8">
    <rdf:RDF>
      <cc:Work
         rdf:about="">
        <dc:format>image/svg+xml</dc:format>
        <dc:type
           rdf:resource="http://purl.org/dc/dcmitype/StillImage" />
      </cc:Work>
    </rdf:RDF>
  </metadata>
  <defs
     id="defs6" />
  <sodipodi:namedview
     pagecolor="#808080"
     bordercolor="#666666"
     borderopacity="1"
     objecttolerance="10"
     gridtolerance="10"
     guidetolerance="10"
     inkscape:pageopacity="0"
     inkscape:pageshadow="2"
     inkscape:window-width="1993"
     inkscape:window-height="1009"
     id="namedview4"
     showgrid="false"
     inkscape:zoom="0.5"
     inkscape:cx="7"
     inkscape:cy="8"
     inkscape:window-x="-8"
     inkscape:window-y="-8"
     inkscape:window-maximized="1"
     inkscape:current-layer="ATTRIBUTE_TEXTURE"
     inkscape:showpageshadow="0"
     inkscape:pagecheckerboard="true"
     inkscape:deskcolor="#d1d1d1" />
  <g
     id="ATTRIBUTE_TEXTURE"
     transform="matrix(100,0,0,100,0,4.9999997e-5)"
     style="stroke-width:0.0114286">
    <path
       style="fill:none;stroke-width:0.000357143"
       d="M 0,8 V 0 h 8 8 v 8 8 H 8 0 Z m 15.269226,7.419944 c 0.04746,-0.03544 0.115281,-0.10325 0.150718,-0.150695 0.06359,-0.08514 0.06464,-0.120868 0.08007,-2.732444 0.01155,-1.953174 0.0062,-2.6707322 -0.02031,-2.73993 -0.04604,-0.1200328 -2.152243,-2.2200869 -2.270801,-2.2641669 -0.138718,-0.051576 -1.281943,-0.042592 -1.405219,0.011043 -0.129099,0.056168 -2.227469,2.1615791 -2.2709759,2.2785963 -0.045901,0.1234553 -0.045306,5.2340866 6.25e-4,5.3553066 0.044306,0.116936 0.1484853,0.227031 0.2635435,0.27851 0.076451,0.03421 0.5820404,0.04068 2.7399074,0.03508 2.618475,-0.0068 2.647059,-0.0075 2.732444,-0.0713 z m -6.2621016,-3.052756 0.0085,-2.632813 0.075072,-0.15625 C 9.199127,9.352445 11.352444,7.1991278 11.578124,7.0906972 c 0.152133,-0.073094 0.176833,-0.075072 0.9375,-0.075072 0.763197,0 0.784861,0.00175 0.9375,0.075809 0.112419,0.054543 0.351297,0.2688856 0.851563,0.764095 L 15,8.543815 V 4.7719075 1 H 8 1 v 7 7 h 3.9993119 3.9993119 z"
       id="path827"
       inkscape:connector-curvature="0" />
    <path
       style="fill:#fefefe;stroke-width:0.000357143"
       d="M 2,12.5 V 11 H 3.5 5 V 9.5 8 H 3.5 2 V 6.5 5 H 3.5 5 V 3.5 2 H 6.5 8 V 3.5 5 H 9.5 11 V 3.5 2 H 12.5 14 V 3.5 5 H 12.5 11 V 6.2899006 7.5798012 L 10.788278,7.7899006 10.576557,8 H 9.2882781 8 V 9.5 11 H 8.5 9 V 12.5 14 H 8.5 8 V 12.5 11 H 6.5 5 V 12.5 14 H 3.5 2 Z m 6,-6 V 5 H 6.5 5 V 6.5 8 H 6.5 8 Z m 3,6 V 11 H 12.5 14 V 12.5 14 H 12.5 11 Z"
       id="path825"
       inkscape:connector-curvature="0" />
    <path
       style="fill:#cbcbcb;stroke-width:0.000357143"
       d="M 10,12.507632 V 10.015264 L 11.00799,9.0076322 12.01598,8 h 0.499645 0.499645 l 1.000178,0.9998163 1.000177,0.9998159 -0.0082,2.5001838 L 14.999263,15 H 12.499632 10 Z M 14,12.5 V 11 H 12.5 11 v 1.5 1.5 h 1.5 1.5 z m -1,-3 V 9 H 12.5 12 V 9.5 10 h 0.5 0.5 z"
       id="path823"
       inkscape:connector-curvature="0" />
    <path
       style="fill:#cb0000;stroke-width:0.000357143"
       d="M 5,12.5 V 11 H 3.5 2 V 9.5 8 H 3.5 5 V 6.5 5 H 3.5 2 V 3.5 2 H 3.5 5 V 3.5 5 H 6.5 8 V 3.5 2 H 9.5 11 V 3.5 5 H 12.5 14 V 6.2692081 7.5384159 L 13.801972,7.35317 C 13.693056,7.251285 13.534853,7.1336569 13.450409,7.0917747 13.300051,7.0172 13.280716,7.015625 12.515625,7.015625 c -0.766397,0 -0.784188,0.00146 -0.935791,0.076623 -0.085,0.042142 -0.250232,0.1668928 -0.367188,0.2772228 L 11,7.5700706 V 6.2850353 5 H 9.5 8 V 6.5 8 H 9.2875631 10.575127 L 9.8711631,8.7109375 C 9.3616644,9.2254838 9.1463281,9.4650378 9.0916444,9.578125 9.0207175,9.7248031 9.015455,9.7731409 9.0057413,10.367188 L 8.9953931,11 H 8.4976966 8 V 12.5 14 H 6.5 5 Z m 3,-3 V 8 H 6.5 5 V 9.5 11 H 6.5 8 Z"
       id="path821"
       inkscape:connector-curvature="0" />
    <path
       style="fill:#323232;stroke-width:0.000357143"
       d="M 9.796875,15.456163 C 9.6818169,15.404685 9.5776375,15.294589 9.5333316,15.177653 9.4874022,15.056433 9.4868072,9.9458022 9.5327066,9.8223469 9.5762134,9.7053297 11.674584,7.5999184 11.803682,7.5437506 c 0.123276,-0.053634 1.266501,-0.062618 1.40522,-0.011043 0.118558,0.04408 2.224765,2.1441341 2.270801,2.2641669 0.02654,0.069198 0.03186,0.7867565 0.02031,2.7399305 -0.01544,2.611576 -0.01649,2.647308 -0.08007,2.732444 -0.03544,0.04744 -0.10326,0.115258 -0.150718,0.150695 -0.08539,0.06376 -0.113969,0.0645 -2.732444,0.0713 -2.157868,0.0056 -2.6634569,-8.72e-4 -2.7399076,-0.03508 z m 5.210569,-2.956347 0.0082,-2.5001838 L 14.015448,8.9998163 13.01527,8 H 12.515625 12.01598 L 11.00799,9.0076322 10,10.015264 V 12.507632 15 h 2.499632 2.499631 z M 12,9.5 V 9 H 12.5 13 V 9.5 10 H 12.5 12 Z M 1,8 V 1 h 7 7 V 4.7730712 8.5461425 L 14.5,8.046875 14,7.5476075 V 4.7738037 2 H 8 2 v 6 6 H 5.5 9 V 14.5 15 H 5 1 Z"
       id="path819"
       inkscape:connector-curvature="0" />
  </g>
</svg>
