<?xml version="1.0" encoding="UTF-8" standalone="no"?>
<!-- Created with Inkscape (http://www.inkscape.org/) -->

<svg
   version="1.1"
   id="svg2"
   width="1600"
   height="1600"
   viewBox="0 0 1600 1600"
   sodipodi:docname="attribute_convert.svg"
   inkscape:version="1.2.2 (732a01da63, 2022-12-09)"
   xmlns:inkscape="http://www.inkscape.org/namespaces/inkscape"
   xmlns:sodipodi="http://sodipodi.sourceforge.net/DTD/sodipodi-0.dtd"
   xmlns="http://www.w3.org/2000/svg"
   xmlns:svg="http://www.w3.org/2000/svg"
   xmlns:rdf="http://www.w3.org/1999/02/22-rdf-syntax-ns#"
   xmlns:cc="http://creativecommons.org/ns#"
   xmlns:dc="http://purl.org/dc/elements/1.1/">
  <metadata
     id="metadata8">
    <rdf:RDF>
      <cc:Work
         rdf:about="">
        <dc:format>image/svg+xml</dc:format>
        <dc:type
           rdf:resource="http://purl.org/dc/dcmitype/StillImage" />
      </cc:Work>
    </rdf:RDF>
  </metadata>
  <defs
     id="defs6" />
  <sodipodi:namedview
     pagecolor="#808080"
     bordercolor="#666666"
     borderopacity="1"
     objecttolerance="10"
     gridtolerance="10"
     guidetolerance="10"
     inkscape:pageopacity="0"
     inkscape:pageshadow="2"
     inkscape:window-width="1993"
     inkscape:window-height="1009"
     id="namedview4"
     showgrid="false"
     inkscape:zoom="0.5"
     inkscape:cx="-1"
     inkscape:cy="8"
     inkscape:window-x="-8"
     inkscape:window-y="-8"
     inkscape:window-maximized="1"
     inkscape:current-layer="ATTRIBUTE_CONVERT"
     inkscape:showpageshadow="0"
     inkscape:pagecheckerboard="true"
     inkscape:deskcolor="#d1d1d1" />
  <g
     id="ATTRIBUTE_CONVERT"
     transform="matrix(100,0,0,100,0,4.9999997e-5)"
     style="stroke-width:0.0114286">
    <path
       style="fill:none;stroke-width:0.000357143"
       d="M 0,8 V 0 h 8 8 v 8 8 H 8 0 Z m 7.0545678,6.054808 C 7.8839306,13.225578 8.5625,12.533053 8.5625,12.515865 8.5625,12.479996 5.5593316,9.46875 5.5235584,9.46875 5.5106012,9.46875 5.5,9.9328125 5.5,10.5 v 1.03125 h -1 -1 v -1 -1 h -1 -1 v 2 2 h 2 2 v 1.015625 c 0,0.558594 0.010493,1.015625 0.023318,1.015625 0.012825,0 0.7018875,-0.678461 1.5312498,-1.507692 z m 8.2146582,1.365136 c 0.04746,-0.03544 0.115281,-0.10325 0.150718,-0.150695 0.06359,-0.08514 0.06464,-0.120868 0.08007,-2.732444 0.01155,-1.953174 0.0062,-2.6707322 -0.02031,-2.73993 -0.04604,-0.1200328 -2.152243,-2.2200869 -2.270801,-2.2641669 -0.138718,-0.051576 -1.281943,-0.042592 -1.405219,0.011043 -0.129099,0.056168 -2.227469,2.1615791 -2.2709759,2.2785963 -0.045901,0.1234553 -0.045306,5.2340866 6.25e-4,5.3553066 0.044306,0.116936 0.1484853,0.227031 0.2635435,0.27851 0.076451,0.03421 0.5820404,0.04068 2.7399074,0.03508 2.618475,-0.0068 2.647059,-0.0075 2.732444,-0.0713 z M 6.2692263,8.4199441 C 6.3166841,8.3845072 6.3845072,8.3166944 6.4199441,8.2692494 6.4835325,8.1841134 6.4845797,8.1483806 6.5000172,5.5368053 6.5115628,3.5836312 6.5062431,2.8660729 6.4797041,2.796875 6.4336684,2.6768423 4.3274612,0.576788 4.2089031,0.532708 4.070185,0.48113253 2.9269597,0.49011637 2.8036838,0.54375069 2.6745852,0.59991837 0.57621513,2.7053296 0.532708,2.8223469 0.4868072,2.9458022 0.4874023,8.0564325 0.53333175,8.1776531 c 0.044306,0.1169363 0.14848512,0.2270319 0.26354338,0.2785103 0.0764505,0.034205 0.58204017,0.040678 2.73990717,0.035078 2.6184753,-0.00679 2.6470597,-0.00754 2.732444,-0.071297 z M 10.5,5.53125 V 4.5 h 1 1 v 1 1 h 1 1 v -2 -2 h -2 -2 V 1.484375 c 0,-0.55859375 -0.01049,-1.015625 -0.02332,-1.015625 -0.03562,0 -3.039182,3.0109259 -3.039182,3.0466347 0,0.035869 3.003168,3.0471153 3.038942,3.0471153 C 10.4894,6.5625 10.5,6.0984375 10.5,5.53125 Z"
       id="path847"
       inkscape:connector-curvature="0" />
    <path
       style="fill:#cbcbcb;stroke-width:0.000357143"
       d="M 10,12.507632 V 10.015264 L 11.00799,9.0076322 12.01598,8 h 0.499645 0.499645 l 1.000178,0.9998163 1.000177,0.9998159 -0.0082,2.5001838 L 14.999263,15 H 12.499632 10 Z M 14,12.5 V 11 H 12.5 11 v 1.5 1.5 h 1.5 1.5 z m -1,-3 V 9 H 12.5 12 V 9.5 10 H 12.5 13 Z M 1,5.5076322 V 3.0152644 L 2.0079901,2.0076322 3.0159802,1 H 3.515625 4.0152697 L 5.0154475,1.9998162 6.015625,2.9996323 6.0074441,5.4998162 5.9992628,8 H 3.4996316 1 Z M 5,5.5 V 4 H 3.5 2 V 5.5 7 H 3.5 5 Z M 4,2.5 V 2 H 3.5 3 V 2.5 3 H 3.5 4 Z"
       id="path845"
       inkscape:connector-curvature="0" />
    <path
       style="fill:#00fefe;stroke-width:0.000357143"
       d="M 11,12.5 V 11 H 12.5 14 V 12.5 14 H 12.5 11 Z"
       id="path843"
       inkscape:connector-curvature="0" />
    <path
       style="fill:#fefe00;stroke-width:0.000357143"
       d="M 2,5.5 V 4 H 3.5 5 V 5.5 7 H 3.5 2 Z"
       id="path841"
       inkscape:connector-curvature="0" />
    <path
       style="fill:#00fe00;stroke-width:0.000357143"
       d="M 6,13.710742 V 13.03125 H 4 2 v -1.5 -1.5 H 2.5 3 v 1 1 h 1.4994022 1.4994022 l 0.00841,-0.687731 0.00841,-0.68773 0.9296891,0.930112 0.929689,0.930112 L 6.937501,13.453123 6,14.390234 Z M 13,5 V 4 H 11.5 10 V 4.6951172 5.3902344 L 9.0624984,4.4531234 8.1249969,3.5160125 9.0546859,2.5858993 9.984375,1.6557862 9.9927969,2.3278931 10.001219,3 H 12.000609 14 V 4.5 6 H 13.5 13 Z"
       id="path839"
       inkscape:connector-curvature="0" />
    <path
       style="fill:#009800;stroke-width:0.000357143"
       d="M 5.5,14.546875 V 13.53125 h -2 -2 v -2 -2 h 1 1 v 1 1 h 1 1 V 10.5 c 0,-0.5671875 0.010601,-1.03125 0.023558,-1.03125 0.035773,0 3.0389416,3.011246 3.0389416,3.047115 0,0.03571 -3.0035609,3.046635 -3.0391822,3.046635 C 5.5104931,15.5625 5.5,15.105469 5.5,14.546875 Z M 6.9453141,11.585901 6.015625,10.655789 6.007215,11.343519 5.998805,12.03125 H 4.4994022 3 v -1 -1 H 2.5 2 v 1.5 1.5 h 2 2 v 0.679492 0.679492 L 6.9375016,13.453123 7.8750031,12.516012 Z M 8.9451916,5.0545678 C 8.1159613,4.2252053 7.4375,3.5325728 7.4375,3.5153847 c 0,-0.035709 3.003561,-3.0466347 3.039182,-3.0466347 0.01282,0 0.02332,0.45703125 0.02332,1.015625 V 2.5 h 2 2 v 2 2 h -1 -1 v -1 -1 h -1 -1 v 1.03125 c 0,0.5671875 -0.0106,1.03125 -0.02356,1.03125 -0.01296,0 -0.7020198,-0.6785694 -1.5312504,-1.5079322 z M 14,4.5 V 3 h -1.999391 -1.99939 L 9.9927969,2.3278931 9.984375,1.6557862 9.0546859,2.5858993 8.1249969,3.5160125 9.0624984,4.4531234 10,5.3902344 V 4.6951172 4 h 1.5 1.5 v 1 1 h 0.5 0.5 z"
       id="path837"
       inkscape:connector-curvature="0" />
    <path
       style="fill:#323232;stroke-width:0.000357143"
       d="M 9.796875,15.456163 C 9.6818169,15.404685 9.5776375,15.294589 9.5333316,15.177653 9.4874022,15.056433 9.4868072,9.9458022 9.5327066,9.8223469 9.5762134,9.7053297 11.674584,7.5999184 11.803682,7.5437506 c 0.123276,-0.053634 1.266501,-0.062618 1.40522,-0.011043 0.118558,0.04408 2.224765,2.1441341 2.270801,2.2641669 0.02654,0.069198 0.03186,0.7867565 0.02031,2.7399305 -0.01544,2.611576 -0.01649,2.647308 -0.08007,2.732444 -0.03544,0.04744 -0.10326,0.115258 -0.150718,0.150695 -0.08539,0.06376 -0.113969,0.0645 -2.732444,0.0713 -2.157868,0.0056 -2.6634569,-8.72e-4 -2.7399076,-0.03508 z m 5.210569,-2.956347 0.0082,-2.5001838 L 14.015448,8.9998163 13.01527,8 H 12.515625 12.01598 L 11.00799,9.0076322 10,10.015264 V 12.507632 15 h 2.499632 2.499631 z M 12,9.5 V 9 H 12.5 13 V 9.5 10 H 12.5 12 Z M 0.796875,8.4561634 C 0.68181675,8.404685 0.57763762,8.2945894 0.53333162,8.1776531 0.48740234,8.0564325 0.48680722,2.9458022 0.53270787,2.8223469 0.576215,2.7053296 2.674585,0.59991838 2.8036837,0.54375069 2.9269595,0.49011638 4.0701849,0.48113253 4.208903,0.532708 c 0.1185581,0.04408 2.2247653,2.1441343 2.2708009,2.264167 0.026539,0.069198 0.031859,0.7867563 0.020313,2.7399303 -0.015437,2.6115753 -0.016485,2.6473081 -0.080073,2.7324441 -0.035437,0.047445 -0.10326,0.1152578 -0.1507178,0.1506947 -0.085384,0.063757 -0.1139687,0.064503 -2.732444,0.071298 C 1.378915,8.4968421 0.87332538,8.4903702 0.796875,8.4561634 Z M 6.0074441,5.4998162 6.015625,2.9996323 5.0154475,1.9998162 4.0152697,1 H 3.515625 3.0159802 L 2.0079901,2.0076322 1,3.0152644 V 5.5076322 8 H 3.4996316 5.9992628 Z M 3,2.5 V 2 H 3.5 4 V 2.5 3 H 3.5 3 Z"
       id="path835"
       inkscape:connector-curvature="0" />
  </g>
</svg>
