<?xml version="1.0" encoding="UTF-8" standalone="no"?>
<!-- Created with Inkscape (http://www.inkscape.org/) -->

<svg
   version="1.1"
   id="svg2"
   width="1600"
   height="1600"
   viewBox="0 0 1600 1600"
   sodipodi:docname="attribute_vector_rotate.svg"
   inkscape:version="1.2.2 (732a01da63, 2022-12-09)"
   xmlns:inkscape="http://www.inkscape.org/namespaces/inkscape"
   xmlns:sodipodi="http://sodipodi.sourceforge.net/DTD/sodipodi-0.dtd"
   xmlns="http://www.w3.org/2000/svg"
   xmlns:svg="http://www.w3.org/2000/svg"
   xmlns:rdf="http://www.w3.org/1999/02/22-rdf-syntax-ns#"
   xmlns:cc="http://creativecommons.org/ns#"
   xmlns:dc="http://purl.org/dc/elements/1.1/">
  <metadata
     id="metadata8">
    <rdf:RDF>
      <cc:Work
         rdf:about="">
        <dc:format>image/svg+xml</dc:format>
        <dc:type
           rdf:resource="http://purl.org/dc/dcmitype/StillImage" />
      </cc:Work>
    </rdf:RDF>
  </metadata>
  <defs
     id="defs6" />
  <sodipodi:namedview
     pagecolor="#808080"
     bordercolor="#666666"
     borderopacity="1"
     objecttolerance="10"
     gridtolerance="10"
     guidetolerance="10"
     inkscape:pageopacity="0"
     inkscape:pageshadow="2"
     inkscape:window-width="1993"
     inkscape:window-height="1009"
     id="namedview4"
     showgrid="false"
     inkscape:zoom="0.5"
     inkscape:cx="3"
     inkscape:cy="8"
     inkscape:window-x="-8"
     inkscape:window-y="-8"
     inkscape:window-maximized="1"
     inkscape:current-layer="ATTRIBUTE_VECTOR_ROTATE"
     inkscape:showpageshadow="0"
     inkscape:pagecheckerboard="true"
     inkscape:deskcolor="#d1d1d1" />
  <g
     id="ATTRIBUTE_VECTOR_ROTATE"
     transform="matrix(100,0,0,100,0,4.9999997e-5)"
     style="stroke-width:0.0114286">
    <path
       style="fill:none;stroke-width:0.000357143"
       d="M 0,9.5 V 3 H 0.5 1 V 5.7886962 8.5773925 L 1.5,8.078125 2,7.5788575 V 5.2894287 3 H 2.5 3 V 2.5 2 H 2.5 2 V 1.5 1 H 1.5 1 V 1.5 2 H 0.5 0 V 1 0 h 8 8 v 8 8 H 15 14 V 15.5 15 H 14.5 15 V 14.5 14 H 14.5 14 V 13.5 13 H 13.5 13 V 13.5 14 H 10 7 v 0.5 0.5 h 3 3 V 15.5 16 H 6.5 0 Z m 6.2692262,5.919944 c 0.047458,-0.03544 0.115281,-0.10325 0.1507179,-0.150695 0.063588,-0.08514 0.064636,-0.120868 0.080073,-2.732444 0.011546,-1.953174 0.00623,-2.6707322 -0.020313,-2.73993 C 6.4336684,9.6768422 4.3274612,7.5767881 4.2089031,7.5327081 4.070185,7.4811325 2.9269597,7.4901162 2.8036838,7.5437506 2.6745852,7.5999184 0.57621513,9.7053297 0.532708,9.8223469 0.4868072,9.9458022 0.4874023,15.056433 0.53333175,15.177653 c 0.044306,0.116936 0.14848512,0.227032 0.26354338,0.27851 0.0764505,0.03421 0.58204017,0.04068 2.73990717,0.03508 2.6184753,-0.0068 2.6470597,-0.0075 2.7324441,-0.0713 z M 13.999744,9.8515625 C 13.998268,8.9971981 13.656868,7.8605069 13.15737,7.046875 12.312609,5.6708459 10.863299,4.6286609 9.2230084,4.2177131 8.8436584,4.1226731 8.2977428,4.03125 8.1095806,4.03125 H 8 V 2.984375 C 8,2.210953 7.99053,1.9375 7.9637456,1.9375 c -0.01994,0 -0.9410337,0.6784307 -2.046875,1.5076238 C 4.3572384,4.6145828 3.90625,4.9676887 3.90625,5.0193591 c 0,0.051659 0.4467441,0.4016859 1.9901825,1.5593206 1.0946003,0.82099 2.0156941,1.4993803 2.046875,1.5075344 C 7.9972231,8.1003131 8,8.0502444 8,7.0640387 8,6.0914987 8.0034,6.0279772 8.054687,6.0421422 c 0.030078,0.00831 0.125,0.024199 0.2109375,0.035315 0.9432022,0.1220018 1.9904985,0.661014 2.6598895,1.3689665 0.635904,0.6725357 0.952227,1.3812438 1.059554,2.3738891 L 12.004497,10 H 13.002249 14 l -2.5e-4,-0.1484375 z"
       id="path825"
       inkscape:connector-curvature="0" />
    <path
       style="fill:#fefefe;stroke-width:0.000357143"
       d="M 13,15.5 V 15 H 10 7 V 14.5 14 h 3 3 V 13.5 13 H 13.5 14 V 13.5 14 H 14.5 15 V 14.5 15 H 14.5 14 V 15.5 16 H 13.5 13 Z M 2,12.5 V 11 H 3.5 5 V 12.5 14 H 3.5 2 Z M 11.985069,9.8203125 C 11.877742,8.8276672 11.561419,8.1189591 10.925515,7.4464234 10.256123,6.7384709 9.2088272,6.1994587 8.265625,6.0774569 8.1796875,6.0663412 8.0847656,6.0504494 8.0546875,6.0421422 8.0033994,6.0279772 8,6.0914988 8,7.0640388 8,8.0502444 7.9972219,8.1003131 7.9433075,8.0862141 7.9121266,8.07806 6.9910328,7.3996697 5.8964325,6.5786797 4.3529941,5.421045 3.90625,5.0710181 3.90625,5.0193591 c 0,-0.05167 0.4509884,-0.4047763 2.0106206,-1.5742353 C 7.0227119,2.6159307 7.9438056,1.9375 7.9637456,1.9375 7.99053,1.9375 8,2.210953 8,2.984375 V 4.03125 h 0.1095806 c 0.060269,0 0.2536288,0.021456 0.4296875,0.04768 2.4522929,0.3652725 4.4867289,2.0190816 5.1887119,4.2179447 0.161794,0.5067959 0.271033,1.131725 0.271764,1.5546875 L 14,10 H 13.002249 12.004497 Z M 1,5.7886962 V 3 H 0.5 0 V 2.5 2 H 0.5 1 V 1.5 1 H 1.5 2 V 1.5 2 H 2.5 3 V 2.5 3 H 2.5 2 V 5.2894287 7.5788575 L 1.5,8.078125 1,8.5773925 Z"
       id="path823"
       inkscape:connector-curvature="0" />
    <path
       style="fill:#cbcbcb;stroke-width:0.000357143"
       d="M 1,12.507632 V 10.015264 L 2.0079901,9.0076322 3.0159802,8 H 3.515625 4.0152697 L 5.0154475,8.9998163 6.015625,9.9996322 6.0074441,12.499816 5.9992628,15 H 3.4996316 1 Z M 5,12.5 V 11 H 3.5 2 V 12.5 14 H 3.5 5 Z M 4,9.5 V 9 H 3.5 3 V 9.5 10 H 3.5 4 Z"
       id="path821"
       inkscape:connector-curvature="0" />
    <path
       style="fill:#323232;stroke-width:0.000357143"
       d="M 0.796875,15.456163 C 0.68181675,15.404685 0.57763762,15.294589 0.53333162,15.177653 0.48740234,15.056433 0.48680722,9.9458022 0.53270787,9.8223469 0.576215,9.7053297 2.674585,7.5999184 2.8036837,7.5437506 2.9269595,7.4901163 4.0701849,7.4811325 4.208903,7.5327081 c 0.1185581,0.04408 2.2247653,2.1441341 2.2708009,2.2641669 0.026539,0.069198 0.031859,0.786756 0.020313,2.73993 -0.015437,2.611576 -0.016485,2.647308 -0.080073,2.732444 -0.035437,0.04744 -0.10326,0.115258 -0.1507178,0.150695 -0.085384,0.06376 -0.1139687,0.0645 -2.732444,0.0713 -2.1578671,0.0056 -2.66345672,-8.72e-4 -2.73990722,-0.03508 z M 6.0074441,12.499816 6.015625,9.9996322 5.0154475,8.9998163 4.0152697,8 H 3.515625 3.0159802 L 2.0079901,9.0076322 1,10.015264 V 12.507632 15 H 3.4996316 5.9992628 Z M 3,9.5 V 9 H 3.5 4 V 9.5 10 H 3.5 3 Z"
       id="path819"
       inkscape:connector-curvature="0" />
  </g>
</svg>
