<?xml version="1.0" encoding="UTF-8" standalone="no"?>
<!-- Created with Inkscape (http://www.inkscape.org/) -->

<svg
   version="1.1"
   id="svg2"
   width="1600"
   height="1600"
   viewBox="0 0 1600 1600"
   sodipodi:docname="axis_side.svg"
   inkscape:version="1.2.2 (732a01da63, 2022-12-09)"
   xmlns:inkscape="http://www.inkscape.org/namespaces/inkscape"
   xmlns:sodipodi="http://sodipodi.sourceforge.net/DTD/sodipodi-0.dtd"
   xmlns="http://www.w3.org/2000/svg"
   xmlns:svg="http://www.w3.org/2000/svg"
   xmlns:rdf="http://www.w3.org/1999/02/22-rdf-syntax-ns#"
   xmlns:cc="http://creativecommons.org/ns#"
   xmlns:dc="http://purl.org/dc/elements/1.1/">
  <metadata
     id="metadata8">
    <rdf:RDF>
      <cc:Work
         rdf:about="">
        <dc:format>image/svg+xml</dc:format>
        <dc:type
           rdf:resource="http://purl.org/dc/dcmitype/StillImage" />
      </cc:Work>
    </rdf:RDF>
  </metadata>
  <defs
     id="defs6" />
  <sodipodi:namedview
     pagecolor="#808080"
     bordercolor="#666666"
     borderopacity="1"
     objecttolerance="10"
     gridtolerance="10"
     guidetolerance="10"
     inkscape:pageopacity="0"
     inkscape:pageshadow="2"
     inkscape:window-width="1993"
     inkscape:window-height="1009"
     id="namedview4"
     showgrid="false"
     fit-margin-top="0"
     fit-margin-left="0"
     fit-margin-right="0"
     fit-margin-bottom="0"
     inkscape:zoom="0.5"
     inkscape:cx="137"
     inkscape:cy="60"
     inkscape:window-x="-8"
     inkscape:window-y="-8"
     inkscape:window-maximized="1"
     inkscape:current-layer="AXIS_SIDE"
     inkscape:showpageshadow="0"
     inkscape:pagecheckerboard="true"
     inkscape:deskcolor="#d1d1d1" />
  <g
     id="AXIS_SIDE"
     transform="matrix(100,0,0,100,0,4.9999997e-5)"
     style="stroke-width:0.0114286">
    <path
       style="fill:none;stroke-width:0.000357143"
       d="M 0,7.9999999 V 0 H 7.9999999 16 V 7.9999999 16 H 7.9999999 0 Z m 2.424214,3.8618481 c 0.1190259,-0.04161 1.4365213,-0.68662 2.9277674,-1.433356 L 8.063338,9.0707883 8.1957314,9.1457969 c 0.072816,0.041254 0.1816122,0.096164 0.2417684,0.1220216 0.060157,0.025858 0.1585938,0.07542 0.2187501,0.1101398 0.060157,0.03472 0.1585936,0.083939 0.21875,0.1093746 0.060156,0.025437 0.1585937,0.074655 0.2187499,0.1093745 0.060157,0.034719 0.1585938,0.083939 0.21875,0.1093745 0.060157,0.025437 0.1585938,0.074655 0.21875,0.1093746 0.060157,0.034719 0.1585937,0.083939 0.21875,0.1093745 0.060156,0.025437 0.1585937,0.074655 0.2187501,0.109375 0.060156,0.03472 0.1585941,0.08377 0.2187501,0.108997 0.06016,0.02523 0.1375,0.06242 0.171875,0.08264 0.131636,0.07745 1.771324,0.896746 1.835392,0.917081 0.03708,0.01177 0.131483,0.0602 0.209769,0.107617 0.07828,0.04742 0.176724,0.09664 0.218751,0.109374 0.04202,0.01274 0.140463,0.06196 0.21875,0.109376 0.07828,0.04742 0.177494,0.09687 0.220463,0.109899 0.04297,0.01303 0.133131,0.0584 0.20036,0.10082 0.180934,0.114181 0.538249,0.226231 0.721422,0.226231 0.25742,0 0.445825,-0.08173 0.643034,-0.278934 0.26845,-0.26845 0.347424,-0.602277 0.226562,-0.957686 -0.06604,-0.194211 -0.347612,-0.485838 -0.525887,-0.544673 -0.06831,-0.02255 -0.187637,-0.07941 -0.265162,-0.1263553 -0.07753,-0.04695 -0.17534,-0.095785 -0.217366,-0.1085236 -0.04203,-0.012739 -0.140464,-0.061957 -0.21875,-0.1093746 C 13.548432,9.7332805 13.44999,9.6840614 13.407964,9.671324 13.365943,9.6585855 13.267499,9.6093675 13.189213,9.5619495 13.110921,9.5145314 13.01249,9.4653123 12.970463,9.452575 12.928431,9.4398365 12.83,9.3906185 12.751713,9.3432004 c -0.07828,-0.047418 -0.176724,-0.096637 -0.21875,-0.1093745 -0.04202,-0.012738 -0.140464,-0.061956 -0.218749,-0.1093745 -0.07829,-0.047418 -0.176724,-0.096637 -0.21875,-0.1093746 -0.04202,-0.012738 -0.14202,-0.063529 -0.222207,-0.1128694 -0.08019,-0.04934 -0.158301,-0.089794 -0.173588,-0.089901 -0.01528,-9.38e-5 -0.06998,-0.02336 -0.121544,-0.051675 C 11.348306,8.6344298 9.7720548,7.8450433 9.7114827,7.8258183 9.6743957,7.8140474 9.5799995,7.7656201 9.5017133,7.7182021 9.423427,7.6707839 9.3256361,7.6217704 9.2843995,7.609283 9.2431629,7.5967955 9.148241,7.5496224 9.073462,7.5044542 L 8.9374998,7.4223299 V 4.6386068 c 0,-3.1920221 0.019147,-2.9678417 -0.2789343,-3.2659226 C 8.4613773,1.175496 8.2729536,1.09375 8.0156248,1.09375 7.7582961,1.09375 7.5698723,1.1754959 7.3726843,1.3726842 7.074673,1.6706955 7.0937499,1.448166 7.0937499,4.6263937 V 7.397904 L 4.2644111,8.8125899 C 1.1574017,10.366113 1.2911894,10.28714 1.1565,10.64713 c -0.23142024,0.618526 0.2205373,1.282605 0.8770889,1.288742 0.1076614,10e-4 0.2568869,-0.02727 0.3906251,-0.07403 z M 14.968749,6.2533433 c 0,-2.5428752 -0.0082,-3.2187858 -0.03907,-3.2315627 C 14.908193,3.0128951 14.672651,2.9190639 14.406245,2.8132673 14.139843,2.7074709 13.78125,2.5635322 13.609375,2.4934036 13.4375,2.4232749 13.177344,2.320216 13.031249,2.2643838 12.885156,2.2085516 12.625,2.1040092 12.453125,2.0320672 12.28125,1.9601254 12.070313,1.8755408 11.984375,1.8441014 11.898438,1.812662 11.652343,1.7143428 11.4375,1.6256143 11.222656,1.5368858 10.976562,1.4383711 10.890625,1.4066929 10.804687,1.3750148 10.59375,1.2917793 10.421875,1.221725 10.25,1.1516709 10.098828,1.094218 10.085937,1.0940519 10.073047,1.0938859 10.0625,2.421272 10.0625,4.043799 v 2.950049 l 2.132813,1.0671475 c 1.173046,0.5869309 2.266406,1.1424119 2.429687,1.2344016 0.163281,0.09199 0.307421,0.1686264 0.320312,0.1703034 0.01289,0.00168 0.02344,-1.4438838 0.02344,-3.2123572 z"
       id="path827"
       inkscape:connector-curvature="0" />
    <path
       style="fill:#fefefe;stroke-width:0.000357143"
       d="M 1.6894557,11.869003 C 1.218696,11.688255 0.97601129,11.129529 1.1575321,10.644371 1.2915493,10.286178 1.1568446,10.36493 4.4843749,8.6994027 6.1515624,7.8649258 7.5916545,7.1552458 7.6845795,7.1223358 8.4635335,6.8464658 9.1916717,7.5893433 8.9017726,8.364168 8.7660995,8.7267867 8.8594139,8.6721242 5.5624999,10.320284 3.9210937,11.140839 2.495064,11.840395 2.3935452,11.874851 c -0.2351388,0.07981 -0.4864304,0.07772 -0.7040895,-0.0058 z"
       id="path825"
       inkscape:connector-curvature="0" />
    <path
       style="fill:#cbfefe;stroke-width:0.000357143"
       d="M 14.625,9.2953971 C 14.461719,9.2034074 13.368359,8.6479264 12.195313,8.0609955 L 10.0625,6.993848 V 4.043799 c 0,-1.622527 0.01055,-2.9499131 0.02344,-2.9497471 0.01289,1.656e-4 0.164063,0.057619 0.335938,0.1276731 0.171875,0.070054 0.382812,0.1532898 0.46875,0.1849679 0.08594,0.031679 0.332031,0.1301929 0.546875,0.2189214 0.214843,0.088728 0.460938,0.1870477 0.546875,0.2184871 0.08593,0.031439 0.296875,0.116024 0.46875,0.1879658 0.171875,0.071941 0.432031,0.1764844 0.578124,0.2323166 0.146095,0.055832 0.406251,0.1588911 0.578126,0.2290198 0.171875,0.070129 0.530468,0.2140673 0.796875,0.3198637 0.266406,0.1057964 0.501953,0.1996274 0.523437,0.2085133 0.03089,0.012777 0.03907,0.6886875 0.03907,3.2315627 0,1.7684734 -0.01049,3.2140343 -0.02344,3.2123572 -0.01289,-0.00168 -0.157031,-0.078313 -0.320311,-0.1703034 z"
       id="path823"
       inkscape:connector-curvature="0" />
    <path
       style="fill:#007ffe;stroke-width:0.000357143"
       d="m 7.0937499,4.6299755 c 0,-3.1822733 -0.019097,-2.9592595 0.2789344,-3.2572913 C 7.5698723,1.175496 7.7582961,1.09375 8.0156248,1.09375 c 0.2573288,0 0.4457525,0.081746 0.6429407,0.2789342 0.2980546,0.2980545 0.2789343,0.074502 0.2789343,3.2612704 V 7.4130254 L 8.8545773,7.3922133 C 8.8089701,7.3807664 8.7083398,7.3278389 8.6309545,7.2745967 8.2163577,6.9893464 7.8387895,6.9955421 7.2911136,7.2965827 L 7.0937499,7.4050675 Z"
       id="path821"
       inkscape:connector-curvature="0" />
    <path
       style="fill:#32fe32;stroke-width:0.000357143"
       d="m 13.591589,11.829758 c -0.11291,-0.03951 -0.260563,-0.106717 -0.328124,-0.149358 -0.06756,-0.04264 -0.157996,-0.08818 -0.200965,-0.101207 -0.04297,-0.01303 -0.142178,-0.06248 -0.220463,-0.1099 -0.07829,-0.04742 -0.176724,-0.09664 -0.21875,-0.109375 -0.04202,-0.01274 -0.140465,-0.06196 -0.218751,-0.109375 -0.07829,-0.04741 -0.172682,-0.09584 -0.209769,-0.107612 -0.06407,-0.02033 -1.703756,-0.839629 -1.835392,-0.917081 C 10.324995,10.20562 10.247656,10.16844 10.1875,10.14321 10.12734,10.11798 10.028906,10.06893 9.9687499,10.034213 9.9085935,9.9994889 9.8101561,9.9502701 9.7499998,9.9248335 9.6898435,9.899397 9.5914061,9.8501782 9.5312498,9.8154585 9.4710936,9.7807389 9.372656,9.7315202 9.3124998,9.7060835 9.2523436,9.680647 9.1539061,9.6314283 9.0937498,9.5967085 9.0335936,9.5619888 8.9351561,9.5127702 8.8749999,9.4873336 8.8148435,9.4618971 8.7164061,9.4126783 8.6562499,9.3779586 8.5960936,9.3432389 8.4976561,9.2936757 8.4374998,9.2678182 8.3773436,9.2419611 8.2673111,9.1863895 8.192983,9.1443268 L 8.0578411,9.0678483 8.3419098,8.9211327 C 8.6660211,8.7537358 8.8104567,8.6082317 8.9059999,8.3528695 9.0209151,8.0457308 8.9658189,7.6815652 8.764503,7.4176262 8.7021429,7.3358683 8.695547,7.3161177 8.7387645,7.3405593 c 0.03196,0.018075 0.1073294,0.053505 0.1674853,0.078735 0.060157,0.025228 0.1585938,0.074277 0.2187501,0.108997 0.060156,0.034719 0.1585936,0.083939 0.21875,0.1093745 0.060156,0.025437 0.1585937,0.073685 0.2187499,0.1072211 0.060157,0.033536 0.4890622,0.2478725 0.9531252,0.476305 0.464062,0.2284325 0.892969,0.4458407 0.953124,0.4831294 0.06016,0.037288 0.144532,0.078456 0.187501,0.091482 0.04297,0.013026 0.142177,0.062481 0.220463,0.1098993 0.07828,0.047418 0.176724,0.096637 0.218751,0.1093745 0.04203,0.012738 0.140463,0.061956 0.21875,0.1093745 0.07828,0.047418 0.176722,0.096637 0.218749,0.1093746 0.04202,0.012738 0.140464,0.061956 0.21875,0.1093745 0.07829,0.047418 0.176724,0.096637 0.21875,0.1093745 0.04202,0.012739 0.140464,0.061957 0.21875,0.1093746 0.07828,0.047418 0.176724,0.096637 0.218751,0.1093745 0.04202,0.012739 0.140463,0.061957 0.218749,0.1093745 0.07829,0.047418 0.176724,0.096637 0.21875,0.1093746 0.04202,0.012738 0.139842,0.061574 0.217367,0.1085236 0.07753,0.04695 0.196847,0.103809 0.265161,0.126354 0.178275,0.05884 0.459843,0.350463 0.525887,0.544674 0.120862,0.355408 0.04188,0.689236 -0.226562,0.957686 -0.283971,0.283971 -0.616835,0.349034 -1.035727,0.202444 z"
       id="path819"
       inkscape:connector-curvature="0" />
  </g>
</svg>
