<?xml version="1.0" encoding="UTF-8" standalone="no"?>
<!-- Created with Inkscape (http://www.inkscape.org/) -->

<svg
   version="1.1"
   id="svg2"
   width="1600"
   height="1600"
   viewBox="0 0 1600 1600"
   sodipodi:docname="axis_top.svg"
   inkscape:version="1.2.2 (732a01da63, 2022-12-09)"
   xmlns:inkscape="http://www.inkscape.org/namespaces/inkscape"
   xmlns:sodipodi="http://sodipodi.sourceforge.net/DTD/sodipodi-0.dtd"
   xmlns="http://www.w3.org/2000/svg"
   xmlns:svg="http://www.w3.org/2000/svg"
   xmlns:rdf="http://www.w3.org/1999/02/22-rdf-syntax-ns#"
   xmlns:cc="http://creativecommons.org/ns#"
   xmlns:dc="http://purl.org/dc/elements/1.1/">
  <metadata
     id="metadata8">
    <rdf:RDF>
      <cc:Work
         rdf:about="">
        <dc:format>image/svg+xml</dc:format>
        <dc:type
           rdf:resource="http://purl.org/dc/dcmitype/StillImage" />
      </cc:Work>
    </rdf:RDF>
  </metadata>
  <defs
     id="defs6" />
  <sodipodi:namedview
     pagecolor="#808080"
     bordercolor="#666666"
     borderopacity="1"
     objecttolerance="10"
     gridtolerance="10"
     guidetolerance="10"
     inkscape:pageopacity="0"
     inkscape:pageshadow="2"
     inkscape:window-width="1993"
     inkscape:window-height="1009"
     id="namedview4"
     showgrid="false"
     fit-margin-top="0"
     fit-margin-left="0"
     fit-margin-right="0"
     fit-margin-bottom="0"
     inkscape:zoom="0.5"
     inkscape:cx="293"
     inkscape:cy="200"
     inkscape:window-x="-8"
     inkscape:window-y="-8"
     inkscape:window-maximized="1"
     inkscape:current-layer="AXIS_TOP"
     inkscape:showpageshadow="0"
     inkscape:pagecheckerboard="true"
     inkscape:deskcolor="#d1d1d1" />
  <g
     id="AXIS_TOP"
     transform="matrix(100,0,0,100,0,4.9999997e-5)"
     style="stroke-width:0.0114286">
    <path
       style="fill:none;stroke-width:0.000357143"
       d="M 0,7.9999999 V 0 H 7.9999999 16 V 7.9999999 16 L 12.101562,15.9983 8.2031249,15.9966 11.132812,14.529538 C 12.74414,13.722656 14.0625,13.04488 14.0625,13.023373 c 0,-0.02151 -1.360499,-0.719312 -3.023331,-1.550674 L 8.015838,9.9610874 4.992294,11.472602 c -1.6629494,0.831334 -3.023544,1.529136 -3.023544,1.550673 0,0.02154 1.3183594,0.699337 2.9296874,1.506221 l 2.9296875,1.467061 -3.9140625,0.0017 L 0,16 Z m 2.4269788,3.8317031 c 0.1205466,-0.041 0.2741816,-0.10926 0.3414109,-0.151685 0.06723,-0.04243 0.1573914,-0.08779 0.2003603,-0.10082 0.042969,-0.01303 0.1421773,-0.06248 0.2204634,-0.109899 0.078286,-0.04742 0.1767238,-0.09664 0.21875,-0.109375 0.042026,-0.01274 0.1404637,-0.06196 0.2187499,-0.109375 0.078286,-0.04742 0.1726826,-0.09585 0.2097694,-0.107617 0.060572,-0.01923 1.6368235,-0.808611 1.8666422,-0.934814 0.051563,-0.02832 0.1062572,-0.05157 0.1215437,-0.05168 0.015287,-9.4e-5 0.093401,-0.04056 0.1735884,-0.0899 0.080187,-0.04934 0.1801801,-0.1001309 0.2222063,-0.1128682 0.042026,-0.012739 0.1404638,-0.061957 0.21875,-0.1093746 0.078286,-0.047418 0.1767238,-0.096637 0.21875,-0.1093745 0.042026,-0.012739 0.1404637,-0.061957 0.21875,-0.1093745 0.078287,-0.047418 0.1767237,-0.096637 0.2187501,-0.1093746 0.042026,-0.012739 0.1404637,-0.061956 0.2187499,-0.1093745 0.078286,-0.047418 0.1767238,-0.096637 0.21875,-0.1093745 0.042026,-0.012738 0.1467241,-0.066261 0.2326616,-0.1189385 0.085937,-0.052679 0.1984375,-0.095778 0.2499999,-0.095778 0.051562,0 0.1640625,0.0431 0.25,0.095778 0.085938,0.052678 0.1906353,0.1062002 0.2326616,0.1189385 0.042026,0.012739 0.1404638,0.061956 0.21875,0.1093745 0.078286,0.047418 0.1767238,0.096637 0.21875,0.1093745 0.042026,0.012738 0.1404637,0.061956 0.21875,0.1093746 0.078286,0.047418 0.1767237,0.096637 0.2187499,0.1093745 0.042026,0.012738 0.1404638,0.061956 0.2187501,0.1093745 0.078286,0.047418 0.1767237,0.096637 0.21875,0.1093746 0.042026,0.012738 0.142019,0.063529 0.2222066,0.1128682 0.08019,0.04934 0.158301,0.0898 0.173588,0.0899 0.01529,9.3e-5 0.06998,0.02336 0.121544,0.05168 0.229819,0.126203 1.80607,0.915589 1.866642,0.934814 0.03708,0.01177 0.131483,0.0602 0.209769,0.107617 0.07828,0.04742 0.176724,0.09664 0.218751,0.109375 0.04202,0.01274 0.140463,0.06196 0.21875,0.109375 0.07828,0.04742 0.177494,0.09687 0.220463,0.109899 0.04297,0.01303 0.133131,0.0584 0.20036,0.10082 0.180934,0.114181 0.538249,0.226232 0.721421,0.226232 0.257421,0 0.445826,-0.08173 0.643035,-0.278934 0.26845,-0.268451 0.347424,-0.602279 0.226562,-0.957687 -0.06604,-0.194211 -0.347612,-0.485838 -0.525887,-0.544673 -0.06831,-0.02255 -0.187637,-0.07941 -0.265162,-0.1263553 -0.07753,-0.04695 -0.17534,-0.095785 -0.217366,-0.1085236 -0.04203,-0.012738 -0.140464,-0.061956 -0.21875,-0.1093746 C 13.548432,9.7332845 13.44999,9.6840654 13.407964,9.671328 13.365943,9.6585895 13.267499,9.6093715 13.189213,9.5619535 13.110921,9.5145354 13.01249,9.4653163 12.970463,9.4525789 12.928431,9.4398404 12.83,9.3906225 12.751713,9.3432044 c -0.07828,-0.047418 -0.176724,-0.096637 -0.21875,-0.1093745 -0.04202,-0.012738 -0.140464,-0.061956 -0.218749,-0.1093745 -0.07829,-0.047418 -0.176724,-0.096637 -0.21875,-0.1093746 -0.04202,-0.012738 -0.14202,-0.063529 -0.222207,-0.1128694 -0.08019,-0.04934 -0.158301,-0.089794 -0.173588,-0.089901 -0.01528,-9.38e-5 -0.06998,-0.02336 -0.121544,-0.051675 C 11.348306,8.6344298 9.7720548,7.8450433 9.7114827,7.8258183 9.6743957,7.8140474 9.5799995,7.7656201 9.5017133,7.7182021 9.423427,7.6707839 9.3242186,7.6213296 9.2812499,7.6083033 9.2382811,7.595277 9.1503904,7.5513408 9.0859374,7.5106674 L 8.9687499,7.4367158 V 4.6570302 c 0,-2.7651074 -3.513e-4,-2.7806245 -0.066978,-2.9586982 C 8.7691601,1.3438933 8.4025201,1.09375 8.0156248,1.09375 7.6287295,1.09375 7.2620895,1.3438933 7.129477,1.698332 7.062851,1.8764057 7.0625,1.8919228 7.0625,4.6570302 V 7.4367158 L 6.9453129,7.5106678 C 6.8808599,7.5513408 6.7929691,7.5952768 6.7500004,7.6083038 6.7070324,7.6213298 6.6078232,7.6707848 6.5295369,7.718203 6.4512509,7.765621 6.3568544,7.814049 6.3197676,7.8258187 6.2591956,7.8450437 4.6829441,8.6344302 4.4531254,8.7606333 4.4015624,8.7889483 4.3468682,8.8122023 4.3315817,8.8123083 4.3162947,8.812402 4.2381807,8.8528693 4.1579932,8.9022093 4.0778062,8.9515493 3.9778133,9.0023402 3.9357869,9.0150787 3.8937609,9.0278177 3.7953232,9.0770357 3.717037,9.1244532 3.638751,9.1718712 3.5403132,9.2210902 3.498287,9.2338278 3.456261,9.2465668 3.3578232,9.2957838 3.279537,9.3432023 3.201251,9.3906203 3.1028133,9.4398393 3.0607869,9.4525768 3.0187609,9.4653148 2.9203232,9.5145328 2.842037,9.5619514 2.763751,9.6093694 2.6653133,9.6585884 2.623287,9.6713259 2.581261,9.6840639 2.4828231,9.7332819 2.404537,9.7807004 2.326251,9.8281184 2.2278132,9.8773374 2.1857869,9.8900749 c -0.042026,0.012741 -0.1398411,0.061577 -0.2173663,0.108526 -0.077525,0.04695 -0.1968477,0.1038091 -0.2651613,0.1263551 -0.1782743,0.05884 -0.4598424,0.350462 -0.5258871,0.544673 -0.1208728,0.355439 -0.041907,0.689117 0.2267187,0.958027 0.2842476,0.284548 0.6006415,0.347662 1.0228879,0.204047 z"
       id="path827"
       inkscape:connector-curvature="0" />
    <path
       style="fill:#fefefe;stroke-width:0.000357143"
       d="M 7.6582055,8.9002526 C 7.4292065,8.8123286 7.2164429,8.5966048 7.129477,8.364168 7.0626324,8.1855095 7.0624999,8.1789154 7.0624999,5.0312499 c 0,-3.1476656 1.325e-4,-3.1542595 0.066978,-3.3329179 C 7.2620898,1.3438933 7.6287298,1.09375 8.0156252,1.09375 c 0.3868953,0 0.7535353,0.2501433 0.8861478,0.604582 0.066845,0.1786584 0.066978,0.1852523 0.066978,3.3329179 0,3.1476655 -1.251e-4,3.1542596 -0.066978,3.3329181 C 8.7207661,8.847952 8.1560424,9.0913971 7.6582055,8.9002526 Z"
       id="path825"
       inkscape:connector-curvature="0" />
    <path
       style="fill:#fefecb;stroke-width:0.000357143"
       d="M 4.8984374,14.529496 C 3.2871094,13.722612 1.96875,13.044837 1.96875,13.023329 c 0,-0.02151 1.3604989,-0.719311 3.0233308,-1.550674 L 8.0154117,9.9610874 11.038956,11.472602 c 1.662949,0.831334 3.023544,1.529136 3.023544,1.550673 0,0.02154 -1.321845,0.700111 -2.937434,1.507942 -2.8739693,1.437048 -2.9413183,1.468745 -3.1171877,1.467062 -0.1733898,-0.0017 -0.2834738,-0.05366 -3.1094409,-1.468783 z"
       id="path823"
       inkscape:connector-curvature="0" />
    <path
       style="fill:#32fe32;stroke-width:0.000357143"
       d="m 13.591589,11.829758 c -0.11291,-0.03951 -0.260563,-0.106717 -0.328124,-0.149358 -0.06756,-0.04264 -0.157996,-0.08818 -0.200965,-0.101207 -0.04297,-0.01303 -0.142178,-0.06248 -0.220463,-0.1099 -0.07829,-0.04742 -0.176724,-0.09664 -0.21875,-0.109375 -0.04202,-0.01274 -0.140465,-0.06196 -0.218751,-0.109375 -0.07829,-0.04741 -0.172682,-0.09584 -0.209769,-0.107612 -0.06407,-0.02033 -1.703756,-0.839629 -1.835392,-0.917081 C 10.324995,10.20562 10.247656,10.16844 10.1875,10.14321 10.12734,10.11798 10.028906,10.06893 9.9687499,10.034213 9.9085935,9.9994889 9.8101561,9.9502701 9.7499998,9.9248335 9.6898435,9.899397 9.5914061,9.8501782 9.5312498,9.8154585 9.4710936,9.7807389 9.372656,9.7315202 9.3124998,9.7060835 9.2523436,9.680647 9.1539061,9.6314283 9.0937498,9.5967085 9.0335936,9.5619888 8.9351561,9.5127702 8.8749999,9.4873336 8.8148435,9.4618971 8.7164061,9.413737 8.6562499,9.3803113 8.5595542,9.3265823 8.3414864,9.2149823 8.1330562,9.1125574 8.0177589,9.0558992 8.0160033,9.0573235 8.4445077,8.8598695 c 0.2143827,-0.098788 0.3746278,-0.2748341 0.4614922,-0.507 0.050003,-0.1336449 0.06275,-0.2437328 0.06275,-0.5419341 V 7.4367158 l 0.1171875,0.073951 c 0.064453,0.040673 0.1523437,0.084609 0.1953125,0.097636 0.042968,0.013026 0.1421771,0.062481 0.2204634,0.1098992 0.078286,0.047418 0.1726824,0.095846 0.2097694,0.1076157 0.060572,0.019225 1.6368233,0.8086115 1.8666423,0.9348146 0.05157,0.028315 0.106261,0.051569 0.121544,0.051675 0.01528,9.38e-5 0.09341,0.040561 0.173588,0.089901 0.08019,0.04934 0.18018,0.100131 0.222207,0.1128695 0.04203,0.012739 0.140463,0.061956 0.21875,0.1093745 0.07828,0.047418 0.176722,0.096637 0.218749,0.1093745 0.04202,0.012738 0.140464,0.061956 0.21875,0.1093745 0.07829,0.047418 0.176724,0.096637 0.21875,0.1093746 0.04202,0.012738 0.140464,0.061956 0.21875,0.1093745 0.07828,0.047418 0.176724,0.096637 0.218751,0.1093745 0.04202,0.012739 0.140463,0.061957 0.218749,0.1093746 0.07829,0.047418 0.176724,0.096637 0.21875,0.1093745 0.04202,0.012739 0.139842,0.061574 0.217367,0.1085236 0.07753,0.046949 0.196847,0.1038094 0.265161,0.1263554 0.178275,0.05884 0.459843,0.350462 0.525887,0.544673 0.120862,0.355408 0.04188,0.689236 -0.226562,0.957686 -0.283971,0.283971 -0.616835,0.349033 -1.035727,0.202443 z"
       id="path821"
       inkscape:connector-curvature="0" />
    <path
       style="fill:#fe3232;stroke-width:0.000357143"
       d="M 1.7189062,11.851752 C 1.5228725,11.782584 1.2455348,11.499561 1.1773717,11.29912 c -0.066732,-0.196232 -0.066732,-0.433258 0,-0.629491 0.066045,-0.194211 0.3476128,-0.485838 0.5258871,-0.544673 0.068313,-0.02255 0.1876362,-0.07941 0.2651613,-0.1263553 0.077525,-0.04695 0.1753401,-0.095785 0.2173663,-0.1085236 0.042026,-0.012738 0.1404639,-0.061956 0.2187501,-0.1093746 0.078286,-0.047418 0.1767237,-0.096637 0.21875,-0.1093745 0.042026,-0.012739 0.1404637,-0.061957 0.21875,-0.1093745 0.078286,-0.047418 0.1767236,-0.096637 0.2187499,-0.1093746 0.042026,-0.012739 0.1404639,-0.061956 0.2187501,-0.1093745 0.078286,-0.047418 0.1767238,-0.096637 0.21875,-0.1093745 0.042026,-0.012738 0.1404637,-0.061956 0.21875,-0.1093745 0.078286,-0.047418 0.1767237,-0.096637 0.2187499,-0.1093746 0.042026,-0.012738 0.1420192,-0.063529 0.2222063,-0.1128694 0.080187,-0.04934 0.1583019,-0.089794 0.1735885,-0.089901 0.015287,-9.38e-5 0.069981,-0.02336 0.1215437,-0.051675 C 4.6829436,8.6344328 6.2591949,7.8450463 6.3197671,7.8258213 6.3568533,7.81405 6.4512502,7.7656237 6.5295364,7.7182056 6.6078221,7.6707875 6.7070312,7.6213335 6.7499999,7.6083064 6.7929683,7.5952804 6.8808592,7.5513436 6.9453124,7.51067 L 7.0624999,7.436719 v 0.3742197 c 0,0.2982012 0.012746,0.4082891 0.06275,0.5419341 0.1314837,0.3514219 0.4392075,0.5771456 0.8397131,0.6159524 l 0.2069119,0.020049 -0.125,0.053606 c -0.06875,0.029483 -0.1742187,0.082013 -0.2343751,0.1167324 -0.060157,0.03472 -0.1585937,0.083939 -0.2187499,0.1093746 -0.060157,0.025437 -0.1585938,0.074655 -0.21875,0.1093745 -0.060157,0.034719 -0.1585938,0.083939 -0.21875,0.1093745 -0.060156,0.025437 -0.1585937,0.074655 -0.21875,0.1093746 -0.060156,0.034719 -0.1585937,0.083939 -0.21875,0.1093745 -0.060157,0.025437 -0.1585937,0.074655 -0.21875,0.1093745 -0.060157,0.034719 -0.1585938,0.083939 -0.21875,0.1093746 -0.060157,0.025437 -0.1585937,0.074655 -0.21875,0.1093746 -0.060156,0.03472 -0.1585937,0.08377 -0.2187499,0.108997 -0.060157,0.02523 -0.1375001,0.06242 -0.1718751,0.08264 -0.1316362,0.07745 -1.7713237,0.896747 -1.8353921,0.917082 -0.037088,0.01177 -0.1314832,0.0602 -0.2097694,0.107616 -0.078286,0.04742 -0.1767238,0.09664 -0.21875,0.109375 -0.042026,0.01274 -0.1404637,0.06196 -0.21875,0.109376 -0.078286,0.04741 -0.1774947,0.09687 -0.2204634,0.109899 -0.042968,0.01303 -0.1331309,0.0584 -0.2003602,0.10082 -0.3207448,0.20241 -0.7592033,0.274158 -1.0494835,0.171733 z"
       id="path819"
       inkscape:connector-curvature="0" />
  </g>
</svg>
