<?xml version="1.0" encoding="UTF-8" standalone="no"?>
<!-- Created with Inkscape (http://www.inkscape.org/) -->

<svg
   version="1.1"
   id="svg2"
   width="1600"
   height="1600"
   viewBox="0 0 1600 1600"
   sodipodi:docname="between_markers.svg"
   inkscape:version="1.2.2 (732a01da63, 2022-12-09)"
   xmlns:inkscape="http://www.inkscape.org/namespaces/inkscape"
   xmlns:sodipodi="http://sodipodi.sourceforge.net/DTD/sodipodi-0.dtd"
   xmlns="http://www.w3.org/2000/svg"
   xmlns:svg="http://www.w3.org/2000/svg"
   xmlns:rdf="http://www.w3.org/1999/02/22-rdf-syntax-ns#"
   xmlns:cc="http://creativecommons.org/ns#"
   xmlns:dc="http://purl.org/dc/elements/1.1/">
  <metadata
     id="metadata8">
    <rdf:RDF>
      <cc:Work
         rdf:about="">
        <dc:format>image/svg+xml</dc:format>
        <dc:type
           rdf:resource="http://purl.org/dc/dcmitype/StillImage" />
      </cc:Work>
    </rdf:RDF>
  </metadata>
  <defs
     id="defs6" />
  <sodipodi:namedview
     pagecolor="#808080"
     bordercolor="#666666"
     borderopacity="1"
     objecttolerance="10"
     gridtolerance="10"
     guidetolerance="10"
     inkscape:pageopacity="0"
     inkscape:pageshadow="2"
     inkscape:window-width="1993"
     inkscape:window-height="1009"
     id="namedview4"
     showgrid="false"
     inkscape:zoom="0.5"
     inkscape:cx="3"
     inkscape:cy="8"
     inkscape:window-x="-8"
     inkscape:window-y="-8"
     inkscape:window-maximized="1"
     inkscape:current-layer="BETWEEN_MARKERS"
     inkscape:showpageshadow="0"
     inkscape:pagecheckerboard="true"
     inkscape:deskcolor="#d1d1d1" />
  <g
     id="BETWEEN_MARKERS"
     transform="matrix(100,0,0,100,0,4.9999997e-5)"
     style="stroke-width:0.0114286">
    <path
       style="fill:none;stroke-width:0.000357143"
       d="M 0,8 V 0 h 8 8 v 8 8 H 8 0 Z m 11.731956,7.83115 c 0.05772,-0.02412 0.485987,-0.270544 0.9517,-0.547613 0.639025,-0.380179 0.858355,-0.5262 0.894048,-0.595223 0.107989,-0.208827 0.08817,-0.263129 -0.593329,-1.625814 -0.352344,-0.704524 -0.640625,-1.295082 -0.640625,-1.312351 0,-0.02044 0.388108,-0.0314 1.112366,-0.0314 1.218871,0 1.22559,-9.5e-4 1.336523,-0.188745 0.0693,-0.117312 0.0651,-0.335745 -0.0087,-0.45188 -0.03276,-0.05156 -1.208697,-1.33125 -2.613194,-2.84375 l -2.5536312,-2.75 2.7829082,-0.015625 C 15.149719,5.453311 15.183959,5.452355 15.269214,5.388693 15.441285,5.2602036 15.483268,5.170123 15.495379,4.9034142 15.516627,4.4358537 15.673688,4.6316475 13.646326,2.5983668 12.601623,1.5506143 11.785345,0.75627656 11.727566,0.73117931 11.608238,0.67934703 11.444231,0.67489884 11.322347,0.72018897 11.273962,0.73816791 10.529658,1.4568953 9.6683375,2.3173609 8.1052297,3.8789172 8.1021022,3.8818031 7.9964625,3.8600022 7.9101309,3.8421859 7.6055347,3.5538506 6.34375,2.2955197 5.4929687,1.4470672 4.7572878,0.73816856 4.7089031,0.72018941 4.5870197,0.67489884 4.4230128,0.67934687 4.3036837,0.73117931 4.2459047,0.75627656 3.4296272,1.5506143 2.3849242,2.5983668 0.35756147,4.6316475 0.51462347,4.4358537 0.53585656,4.9034153 c 0.012112,0.2667122 0.0540968,0.3567959 0.22617107,0.4852788 0.0857289,0.064011 0.10805246,0.064484 3.42775677,0.07266 l 3.3414656,0.00823 v 4.4400744 c 0,4.9080315 -0.015211,4.5437525 0.1949069,4.6678715 0.108269,0.06396 0.3026175,0.06906 0.3965678,0.01041 0.036174,-0.02258 0.4466537,-0.438325 0.9121762,-0.923871 0.4655225,-0.485547 0.8555325,-0.88262 0.8666894,-0.882384 0.011157,2.5e-4 0.3226287,0.654787 0.6921597,1.454556 0.369531,0.79977 0.701678,1.482333 0.738103,1.516806 0.05652,0.0535 0.184253,0.109771 0.270713,0.119273 0.01344,0.0015 0.07167,-0.01705 0.12939,-0.04116 z M 8.6477866,0.04361979 C 8.6374025,0.03323568 8.6104491,0.03212548 8.5878906,0.0411527 c -0.024929,0.0099758 -0.017524,0.01738071 0.01888,0.0188802 0.032942,0.0013569 0.0514,-0.006029 0.041016,-0.01641311 z m 0.25,0 C 8.8874025,0.03323568 8.8604491,0.03212548 8.8378906,0.0411527 c -0.024929,0.0099758 -0.017524,0.01738071 0.01888,0.0188802 0.032942,0.0013569 0.0514,-0.006029 0.041016,-0.01641311 z m 0.25,0 C 9.1374025,0.03323568 9.1104491,0.03212548 9.0878906,0.0411527 c -0.024929,0.0099758 -0.017524,0.01738071 0.01888,0.0188802 0.032942,0.0013569 0.0514,-0.006029 0.041016,-0.01641311 z m 6.5000004,0 c -0.01038,-0.01038411 -0.03734,-0.01149431 -0.0599,-0.0024671 -0.02493,0.0099758 -0.01753,0.01738071 0.01888,0.0188802 0.03294,0.0013569 0.0514,-0.006029 0.04102,-0.0164131 z m 0.25,0 c -0.01038,-0.01038411 -0.03734,-0.01149431 -0.0599,-0.0024671 -0.02493,0.0099758 -0.01753,0.01738071 0.01888,0.0188802 0.03294,0.0013569 0.0514,-0.006029 0.04102,-0.0164131 z"
       id="path829"
       inkscape:connector-curvature="0" />
    <path
       style="fill:#fefefe;stroke-width:0.000357143"
       d="m 11.660778,14.58942 c -0.06645,-0.143712 -0.383887,-0.830826 -0.705424,-1.52692 -0.655176,-1.418392 -0.667189,-1.436803 -0.938549,-1.438462 l -0.15743,-9.63e-4 -0.7570878,0.7744 -0.7570878,0.7744 -7.247e-4,-3.9211647 -7.247e-4,-3.921165 0.073581,0.077415 c 0.040469,0.042578 0.9650788,1.0399525 2.054687,2.2163875 1.089609,1.176435 2.210158,2.3858102 2.490109,2.6875002 l 0.509001,0.548527 -0.962126,0.01563 c -0.645338,0.01048 -0.982706,0.02754 -1.024627,0.05182 -0.128527,0.07443 -0.210353,0.19419 -0.225698,0.330338 -0.01438,0.127556 0.02973,0.226164 0.706744,1.579937 0.397143,0.79414 0.722079,1.449173 0.722079,1.455628 0,0.0065 -0.172266,0.114363 -0.382812,0.239795 -0.210547,0.125433 -0.414377,0.248341 -0.452955,0.273129 -0.06849,0.04401 -0.07298,0.03893 -0.190955,-0.216225 z"
       id="path827"
       inkscape:connector-curvature="0" />
    <path
       style="fill:#cfcecc;stroke-width:0.000357143"
       d="m 8.5878906,0.04115269 c 0.022559,-0.0090272 0.049512,-0.007917 0.059896,0.0024671 0.010384,0.01038412 -0.00807,0.01777001 -0.041016,0.0164131 -0.036405,-0.0014995 -0.043809,-0.0089044 -0.01888,-0.0188802 z m 0.25,0 c 0.022559,-0.0090272 0.049512,-0.007917 0.059896,0.0024671 0.010384,0.01038412 -0.00807,0.01777001 -0.041016,0.0164131 -0.036405,-0.0014995 -0.043809,-0.0089044 -0.01888,-0.0188802 z m 0.25,0 c 0.022559,-0.0090272 0.049512,-0.007917 0.059896,0.0024671 0.010384,0.01038412 -0.00807,0.01777001 -0.041016,0.0164131 -0.036405,-0.0014995 -0.043809,-0.0089044 -0.01888,-0.0188802 z m 6.5000004,0 c 0.02256,-0.0090272 0.04951,-0.007917 0.0599,0.0024671 0.01038,0.01038412 -0.0081,0.01777001 -0.04102,0.0164131 -0.03641,-0.0014995 -0.04381,-0.0089044 -0.01888,-0.0188802 z m 0.25,0 c 0.02256,-0.0090272 0.04951,-0.007917 0.0599,0.0024671 0.01038,0.01038412 -0.0081,0.01777001 -0.04102,0.0164131 -0.03641,-0.0014995 -0.04381,-0.0089044 -0.01888,-0.0188802 z"
       id="path825"
       inkscape:connector-curvature="0" />
    <path
       style="fill:#fe9832;stroke-width:0.000357143"
       d="M 1.03125,4.8202078 V 4.6716656 L 2.7735498,2.9295743 4.5158494,1.1874829 6.0235497,2.6954235 7.53125,4.2033641 V 4.5860572 4.96875 h -3.25 -3.25 z M 8.7990594,4.6052369 8.4616394,4.2417234 9.9885206,2.7146038 11.515402,1.1874841 13.257701,2.9295749 15,4.6716656 V 4.8202078 4.96875 H 12.06824 9.1364797 Z"
       id="path823"
       inkscape:connector-curvature="0" />
    <path
       style="fill:#323232;stroke-width:0.000357143"
       d="M 0.828125,5.4246362 C 0.71319747,5.3735562 0.60894619,5.2634941 0.56458162,5.1464031 0.52179912,5.0334875 0.52137184,4.5931569 0.5639335,4.4785969 0.60759981,4.3610638 4.1734927,0.78795262 4.3036836,0.73127641 c 0.1282735,-0.0558414 0.2955985,-0.0558442 0.4238825,-6.94e-6 0.057021,0.0248191 0.7616438,0.70625043 1.627461,1.57389613 L 7.8819292,3.8352922 7.7615524,3.8942084 C 7.6897774,3.9293375 7.6152327,3.9998913 7.5769211,4.0689553 L 7.5126667,4.1847856 6.0142587,2.6861337 4.5158509,1.1874816 2.7735504,2.9295737 1.03125,4.6716656 V 4.8202078 4.96875 h 3.25 3.25 v 0.25 0.25 L 4.2265625,5.4675281 C 1.5423759,5.4665334 0.90427213,5.45848 0.828125,5.4246362 Z M 9.3782784,5.2270541 9.1568528,4.984375 12.078426,4.9764022 15,4.9684297 V 4.8202559 4.6720825 L 13.257924,2.9297981 11.515848,1.1875138 9.9938019,2.7093222 8.4717556,4.2311306 8.287825,4.0556903 8.1038941,3.8802503 9.6691347,2.3165641 C 10.530017,1.4565367 11.273962,0.73816791 11.322347,0.72018897 c 0.121884,-0.0452901 0.285891,-0.0408419 0.405219,0.0109903 0.05778,0.0250972 0.874057,0.81943503 1.91876,1.86718753 2.027362,2.0332807 1.870301,1.8374869 1.849067,2.3050485 -0.01211,0.2667106 -0.0541,0.3567928 -0.226168,0.4852788 -0.08544,0.0638 -0.113636,0.064512 -2.877904,0.072735 l -2.7916166,0.0083 z"
       id="path821"
       inkscape:connector-curvature="0" />
    <path
       style="fill:#000000;stroke-width:0.000357143"
       d="m 11.488103,15.842674 c -0.04951,-0.01482 -0.119824,-0.05516 -0.15625,-0.08963 -0.03643,-0.03447 -0.368572,-0.717036 -0.738103,-1.516806 -0.369531,-0.799769 -0.6810031,-1.45432 -0.6921597,-1.454556 -0.011157,-2.5e-4 -0.4011669,0.396837 -0.8666894,0.882384 C 8.5693784,14.149609 8.1588991,14.565352 8.1227247,14.587934 7.961845,14.688367 7.6854581,14.610786 7.5823606,14.436255 7.5356078,14.357109 7.53125,13.914233 7.53125,9.2419872 V 4.1342428 L 7.602059,4.0291687 c 0.040133,-0.059553 0.1218131,-0.1244865 0.1885378,-0.1498818 0.2637634,-0.1003894 0.049301,-0.3103538 3.6695512,3.592584 1.818013,1.9599716 3.322557,3.5942791 3.343432,3.6317941 0.05454,0.09801 0.0487,0.325372 -0.01094,0.42634 -0.110933,0.187796 -0.117652,0.188745 -1.336523,0.188745 -0.724258,0 -1.112366,0.01095 -1.112366,0.0314 0,0.01727 0.288281,0.607827 0.640625,1.312351 0.681501,1.362685 0.701318,1.416987 0.593329,1.625814 -0.06407,0.123902 -1.854613,1.197245 -1.975138,1.184 -0.01344,-0.0015 -0.06495,-0.01481 -0.114463,-0.02964 z m 0.816585,-1.310158 c 0.210546,-0.125432 0.382812,-0.23334 0.382812,-0.239795 0,-0.0065 -0.324936,-0.661488 -0.722079,-1.455628 -0.677012,-1.353773 -0.721122,-1.452381 -0.706744,-1.579937 0.01535,-0.136148 0.09717,-0.255909 0.225698,-0.330338 0.04192,-0.02428 0.379289,-0.04134 1.024627,-0.05182 l 0.962126,-0.01563 -0.509001,-0.548527 C 12.682176,10.009158 11.561627,8.7997828 10.472018,7.6233478 9.3824097,6.4469128 8.4578003,5.4495384 8.4173309,5.4069603 l -0.073581,-0.077415 7.25e-4,3.921165 7.25e-4,3.9211647 0.7570878,-0.7744 0.7570878,-0.7744 0.1574305,9.63e-4 c 0.271359,0.0017 0.283372,0.02007 0.938549,1.438462 0.321536,0.696094 0.638977,1.383208 0.705424,1.52692 0.117974,0.255154 0.122461,0.260236 0.190955,0.216225 0.03858,-0.02479 0.242407,-0.147696 0.452954,-0.273129 z"
       id="path819"
       inkscape:connector-curvature="0" />
  </g>
</svg>
