<?xml version="1.0" encoding="UTF-8" standalone="no"?>
<!-- Created with Inkscape (http://www.inkscape.org/) -->

<svg
   version="1.1"
   id="svg2"
   width="1600"
   height="1600"
   viewBox="0 0 1600 1600"
   sodipodi:docname="blend_tex.svg"
   inkscape:version="1.2.2 (732a01da63, 2022-12-09)"
   xmlns:inkscape="http://www.inkscape.org/namespaces/inkscape"
   xmlns:sodipodi="http://sodipodi.sourceforge.net/DTD/sodipodi-0.dtd"
   xmlns="http://www.w3.org/2000/svg"
   xmlns:svg="http://www.w3.org/2000/svg"
   xmlns:rdf="http://www.w3.org/1999/02/22-rdf-syntax-ns#"
   xmlns:cc="http://creativecommons.org/ns#"
   xmlns:dc="http://purl.org/dc/elements/1.1/">
  <metadata
     id="metadata8">
    <rdf:RDF>
      <cc:Work
         rdf:about="">
        <dc:format>image/svg+xml</dc:format>
        <dc:type
           rdf:resource="http://purl.org/dc/dcmitype/StillImage" />
      </cc:Work>
    </rdf:RDF>
  </metadata>
  <defs
     id="defs6" />
  <sodipodi:namedview
     pagecolor="#808080"
     bordercolor="#666666"
     borderopacity="1"
     objecttolerance="10"
     gridtolerance="10"
     guidetolerance="10"
     inkscape:pageopacity="0"
     inkscape:pageshadow="2"
     inkscape:window-width="1993"
     inkscape:window-height="1009"
     id="namedview4"
     showgrid="false"
     inkscape:zoom="0.5"
     inkscape:cx="79"
     inkscape:cy="52"
     inkscape:window-x="-8"
     inkscape:window-y="-8"
     inkscape:window-maximized="1"
     inkscape:current-layer="BLEND_TEX"
     inkscape:showpageshadow="0"
     inkscape:pagecheckerboard="true"
     inkscape:deskcolor="#d1d1d1" />
  <g
     id="BLEND_TEX"
     transform="matrix(100,0,0,100,0,4.9999997e-5)"
     style="stroke-width:0.0114286">
    <path
       style="fill:none;stroke-width:0.000357143"
       d="M 0,8 V 0 h 8 8 v 8 8 H 8 0 Z m 13.269218,7.419944 c 0.04746,-0.03544 0.115289,-0.103261 0.150726,-0.150719 0.06438,-0.08622 0.06444,-0.09066 0.08006,-5.7324444 0.01164,-4.2046472 0.0065,-5.6700906 -0.02022,-5.7399056 -0.02105,-0.055047 -0.691906,-0.7475964 -1.625,-1.6775451 -1.355489,-1.35091915 -1.605235,-1.58657599 -1.698528,-1.60270781 -0.06016,-0.010402 -2.18608,-0.0148817 -4.724275,-0.009955 -4.60534394,0.008939 -4.61507859,0.009091 -4.70119406,0.0733887 -0.0474618,0.035437 -0.11528807,0.10326428 -0.15072503,0.15072728 L 0.515625,0.81707959 0.50672091,7.9163522 c -0.004897,3.9045998 -8.2219e-4,7.1445618 0.009056,7.1999148 0.0223485,0.125235 0.1536701,0.284907 0.27954885,0.339901 0.0784903,0.03429 1.17936484,0.04045 6.24144734,0.03492 l 6.1461489,-0.0067 z"
       id="path831"
       inkscape:connector-curvature="0" />
    <path
       style="fill:#fefefe;stroke-width:0.000357143"
       d="M 1,8 V 1 H 3.9460888 6.8921775 L 4.4539012,3.4372488 2.015625,5.8744972 3.0779527,6.9372487 4.1402803,8 3.0780764,9.0625488 2.0158725,10.125097 4.4531738,12.562549 6.8904747,15 H 3.9452375 1 Z M 9.5468263,12.562549 11.984128,10.125097 10.921924,9.0625488 9.8597197,8 10.921752,6.9376234 11.983784,5.8752466 11.546998,5.4376234 11.110212,5 H 10.055106 9 V 3.9443866 2.888773 L 8.0527563,1.9443865 7.1055125,1 H 8.3027563 9.5 V 2.75 4.5 H 11.25 13 V 9.75 15 H 10.054762 7.1095253 Z M 11.507813,4.0078197 10,3.9993997 V 2.4920082 0.98461663 L 11.515625,2.5 c 0.833594,0.8334609 1.515625,1.5189534 1.515625,1.5233166 0,0.00436 -0.0035,0.00456 -0.0078,4.281e-4 -0.0043,-0.00413 -0.686329,-0.011294 -1.515625,-0.015925 z"
       id="path829"
       inkscape:connector-curvature="0" />
    <path
       style="fill:#fe98fe;stroke-width:0.000357143"
       d="M 5.5625,9.4557197 C 4.7976562,8.6924609 4.1669366,8.0436163 4.1609003,8.0138422 4.1480022,7.9502181 6.9238894,5.15625 7,5.15625 c 0.06143,0 2.84375,2.7825728 2.84375,2.8440091 0,0.061267 -2.7827878,2.8435349 -2.8438788,2.8433469 C 6.9741609,10.843528 6.3273437,10.218978 5.5625,9.4557197 Z"
       id="path827"
       inkscape:connector-curvature="0" />
    <path
       style="fill:#007ffe;stroke-width:0.000357143"
       d="M 3.0706277,6.9299212 2.015625,5.8744972 4.4539013,3.4372488 C 6.7314484,1.1606616 6.8992091,1 6.998845,1 7.096985,1 7.1812353,1.075494 8.0527563,1.9443865 L 9,2.888773 V 3.9443866 5 h 1.055106 1.055106 L 11.546998,5.4376234 11.983784,5.8752466 10.929077,6.9302959 9.8743697,7.9853453 8.4610859,6.5707975 C 7.6837797,5.7927966 7.0262912,5.15625 7,5.15625 c -0.026291,0 -0.6837797,0.6365466 -1.4610859,1.4145475 L 4.1256303,7.9853453 Z"
       id="path825"
       inkscape:connector-curvature="0" />
    <path
       style="fill:#656565;stroke-width:0.000357143"
       d="M 9.5,2.75 V 1 H 9.75 10 V 2.5 4 H 11.5 13 V 4.25 4.5 H 11.25 9.5 Z"
       id="path823"
       inkscape:connector-curvature="0" />
    <path
       style="fill:#fe0000;stroke-width:0.000357143"
       d="M 4.4531738,12.562549 2.0158725,10.125097 3.0773905,9.0632347 C 3.7611666,8.3792366 4.1465669,8.0150572 4.16043,8.0398294 c 0.050966,0.09107 2.7827669,2.7891296 2.8320066,2.7970266 0.036113,0.0058 0.5303478,-0.467757 1.4681859,-1.4067351 L 9.8743697,8.0146547 10.929249,9.0698759 11.984128,10.125097 9.5468263,12.562549 C 7.2451169,14.8644 7.1034322,15 7,15 6.8965678,15 6.7548831,14.8644 4.4531738,12.562549 Z"
       id="path821"
       inkscape:connector-curvature="0" />
    <path
       style="fill:#323232;stroke-width:0.000357143"
       d="m 0.79532572,15.456168 c -0.12587875,-0.05499 -0.25720035,-0.214666 -0.27954885,-0.3399 -0.009878,-0.05535 -0.0139532,-3.295316 -0.009056,-7.1999158 l 0.008904,-7.09927261 0.0644309,-0.0862964 c 0.035437,-0.047463 0.10326325,-0.11529031 0.15072503,-0.15072728 0.0861155,-0.0642975 0.0958501,-0.0644495 4.7011941,-0.0733887 2.538195,-0.004927 4.6641191,-4.4719e-4 4.7242751,0.009955 0.09329,0.0161318 0.343039,0.25178866 1.698528,1.60270779 0.933094,0.9299487 1.603952,1.6224985 1.625,1.6775451 0.0267,0.069815 0.03186,1.5352584 0.02022,5.7399056 -0.01561,5.6417803 -0.01567,5.6462223 -0.08006,5.7324443 -0.03544,0.04746 -0.103264,0.115282 -0.150726,0.150719 l -0.0863,0.06443 -6.146149,0.0067 c -5.0620825,0.0055 -6.16295714,-6.3e-4 -6.24144742,-0.03492 z M 13.00764,9.4998791 13.015625,3.9997581 11.515505,2.499879 10.015386,1 H 5.5076928 1 v 7 7 h 5.9998272 5.9998268 z"
       id="path819"
       inkscape:connector-curvature="0" />
  </g>
</svg>
