<?xml version="1.0" encoding="UTF-8" standalone="no"?>
<!-- Created with Inkscape (http://www.inkscape.org/) -->

<svg
   version="1.1"
   id="svg2"
   width="1600"
   height="1600"
   viewBox="0 0 1600 1600"
   sodipodi:docname="blend_to_ease.svg"
   inkscape:version="1.2.2 (732a01da63, 2022-12-09)"
   xml:space="preserve"
   inkscape:export-filename="BLEND_TO_EASE.png"
   inkscape:export-xdpi="3072"
   inkscape:export-ydpi="3072"
   xmlns:inkscape="http://www.inkscape.org/namespaces/inkscape"
   xmlns:sodipodi="http://sodipodi.sourceforge.net/DTD/sodipodi-0.dtd"
   xmlns="http://www.w3.org/2000/svg"
   xmlns:svg="http://www.w3.org/2000/svg"
   xmlns:rdf="http://www.w3.org/1999/02/22-rdf-syntax-ns#"
   xmlns:cc="http://creativecommons.org/ns#"
   xmlns:dc="http://purl.org/dc/elements/1.1/"><metadata
     id="metadata8"><rdf:RDF><cc:Work
         rdf:about=""><dc:format>image/svg+xml</dc:format><dc:type
           rdf:resource="http://purl.org/dc/dcmitype/StillImage" /></cc:Work></rdf:RDF></metadata><defs
     id="defs6" /><sodipodi:namedview
     pagecolor="#808080"
     bordercolor="#666666"
     borderopacity="1"
     objecttolerance="10"
     gridtolerance="10"
     guidetolerance="10"
     inkscape:pageopacity="0"
     inkscape:pageshadow="2"
     inkscape:window-width="2560"
     inkscape:window-height="1009"
     id="namedview4"
     showgrid="false"
     inkscape:zoom="0.5"
     inkscape:cx="1228"
     inkscape:cy="840"
     inkscape:window-x="-8"
     inkscape:window-y="-8"
     inkscape:window-maximized="1"
     inkscape:current-layer="svg2"
     inkscape:showpageshadow="true"
     inkscape:pagecheckerboard="true"
     inkscape:deskcolor="#d1d1d1" /><g
     id="BLEND_TO_EASE"
     transform="matrix(1.1428571,0,0,1.1428571,-114.28568,3412.1689)"
     style="stroke-width:0.875"><path
       style="fill:#0065cb;stroke-width:0.0273438"
       d="m 574.53637,-1969.9837 v -73.1613 l 27.12487,-36.0039 c 39.22566,-52.0658 70.83793,-101.4229 155.62013,-242.9741 120.06773,-200.4634 173.72166,-276.6618 242.72913,-344.7198 l 22.6523,-22.3406 v 73.6045 73.6046 l -14.8318,18.7558 c -42.26655,53.4489 -72.3576,99.9123 -167.23303,258.2234 -41.08144,68.5494 -86.91704,143.2086 -101.85688,165.9093 -49.18001,74.7278 -98.50417,137.414 -141.5708,179.9227 l -22.63392,22.3406 z"
       id="path823-0"
       inkscape:connector-curvature="0"
       inkscape:label="path823-0" /><path
       style="fill:#00fe00;stroke-width:0.0273438"
       d="m 199.7786,-1751.4865 c -21.13512,-7.2095 -36.66319,-33.7738 -32.55211,-55.6879 2.38612,-12.719 11.54854,-26.1598 23.17322,-33.9937 9.77951,-6.5903 12.66359,-7.1093 67.45877,-12.1399 110.5971,-10.1535 198.68835,-59.4779 295.01369,-165.185 l 21.6642,-23.7741 v 73.2513 73.2514 l -17.50494,15.1422 c -73.96656,63.9828 -151.18259,102.8014 -240.77559,121.0447 -18.04929,3.6755 -34.267,7.5787 -36.03935,8.6739 -5.84967,3.6155 -69.48262,3.154 -80.43789,-0.5825 z m 822.8842,-865.5036 v -73.2514 l 17.505,-15.1422 c 71.3263,-61.6988 147.5896,-100.8565 233.1658,-119.7199 31.6932,-6.986 96.6378,-12.775 113.927,-10.1551 22.7647,3.4497 41.5019,20.8256 45.5129,42.2062 6.0264,32.1231 -26.4838,64.7675 -58.5166,58.7581 -13.6283,-2.5567 -65.3714,3.7581 -96.3887,11.7634 -83.7043,21.6033 -155.2308,69.0806 -233.5411,155.018 l -21.6643,23.7742 z"
       id="path821-9"
       inkscape:connector-curvature="0" /><path
       style="fill:#323232;stroke-width:0.0273438"
       d="m 181.9674,-1685.0445 c -21.88769,-6.9441 -32.71081,-14.2135 -52.23057,-35.0801 C 106.39927,-1745.0725 100,-1761.9738 100,-1798.6634 c 0,-39.5317 6.30479,-54.6643 34.53806,-82.8975 26.82865,-26.8287 41.12887,-32.8162 87.09871,-36.4685 66.07433,-5.2493 97.67604,-13.271 144.96787,-36.7979 59.26235,-29.482 118.36491,-82.9903 175.62156,-158.9983 41.86851,-55.5804 66.10551,-93.3478 153.12977,-238.6152 131.72434,-219.8841 177.28792,-283.2596 267.55193,-372.1447 45.5304,-44.835 82.9687,-74.8331 125.3167,-100.4125 86.8194,-52.4414 197.2544,-81.8823 292.3868,-77.9476 42.5118,1.7582 57.2839,7.9398 84.8505,35.5064 28.2333,28.2333 34.5381,43.3659 34.5381,82.8975 0,39.5317 -6.3051,54.6643 -34.5381,82.8976 -29.3258,29.3258 -40.6128,33.478 -98.3018,36.1628 -29.8577,1.3896 -51.196,3.9767 -68.342,8.286 -95.4874,23.9988 -177.1548,90.0283 -266.8468,215.7504 -28.2606,39.6133 -51.6815,77.029 -129.7362,207.2585 -133.01967,221.9353 -177.96561,284.3835 -269.29563,374.1619 -94.68917,93.0804 -183.43016,142.4358 -301.34248,167.5987 -18.11616,3.8664 -37.19599,8.2849 -42.3996,9.8199 -5.20365,1.5352 -27.89002,2.7461 -50.41423,2.6923 -31.44589,-0.075 -44.63562,-1.2664 -56.81576,-5.1311 z m 98.24909,-65.8591 c 1.77234,-1.0953 17.99006,-4.9985 36.03935,-8.674 141.48555,-28.8098 254.74521,-109.8551 370.73551,-265.2874 38.17106,-51.1508 72.71542,-105.1533 153.60662,-240.1301 41.08143,-68.5493 84.51432,-139.7594 96.51753,-158.2446 99.2744,-152.8847 189.9184,-240.9484 291.1349,-282.847 43.5955,-18.0464 120.733,-32.9491 146.0065,-28.2077 32.0328,6.0093 64.5429,-26.635 58.5166,-58.7581 -4.011,-21.3806 -22.7482,-38.7566 -45.5129,-42.2062 -17.2892,-2.6199 -82.2338,3.169 -113.927,10.1551 -98.5458,21.7222 -180.0691,67.5043 -261.4978,146.8525 -80.37929,78.3259 -128.34871,145.4326 -254.56844,356.1281 -88.2738,147.3534 -113.41456,186.5468 -156.11746,243.3805 -68.24177,90.8237 -134.13008,150.7507 -204.46373,185.9648 -50.49289,25.2803 -94.59883,36.7483 -161.2515,41.927 -35.24393,2.738 -45.23463,6.2567 -56.80288,20.0049 -22.50652,26.7475 -11.25277,68.1933 21.58147,79.4811 10.54148,3.6245 74.29104,3.991 80.00323,0.4571 z"
       id="path819-7"
       inkscape:connector-curvature="0" /><path
       style="fill:#fefefe;stroke-width:0.0273438"
       d="m 523.22149,-1880.5877 c 10.3362,-32.8141 9.58047,-73.3314 -2.11579,-113.432 l -1.83806,-6.3019 h 188.85349 188.85353 l -3.56351,20.3058 c -4.71429,26.8631 -4.53253,62.7047 0.45799,90.3255 2.22665,12.3234 4.0732,23.3516 4.10349,24.5069 0.0303,1.1553 -85.51692,2.1008 -190.10496,2.1008 H 517.70755 Z"
       id="path829"
       inkscape:connector-curvature="0" /><path
       style="fill:#fecb32;stroke-width:0.0273438"
       d="m 262.24823,-1933.1026 v -89.6253 h 89.6253 89.62529 v 89.6253 89.6253 h -89.62529 -89.6253 z m 806.62767,0 v -89.6253 h 89.6253 89.6253 v 89.6253 89.6253 h -89.6253 -89.6253 z"
       id="path825"
       inkscape:connector-curvature="0" /><path
       style="fill:#00fe00;stroke-width:0.0273438"
       d="m 1120.6905,-1714.8685 c -97.7161,-19.2979 -167.13206,-90.5772 -183.7243,-188.6559 -11.07736,-65.4796 14.14861,-141.3601 63.3512,-190.5628 43.2103,-43.2102 95.1851,-64.3558 158.1838,-64.3558 62.9987,0 114.9735,21.1456 158.1838,64.3558 43.2102,43.2103 64.3558,95.1851 64.3558,158.1838 0,48.7833 -9.869,83.2385 -34.7657,121.3765 -31.5507,48.3308 -76.1245,80.1787 -134.5176,96.1128 -19.0747,5.2045 -72.1926,7.273 -91.067,3.5455 z m 75.6214,-43.1829 c 50.8557,-10.6406 98.5926,-47.5581 121.4491,-93.9231 35.3675,-71.7436 22.6282,-151.6508 -33.0545,-207.3334 -70.5834,-70.5834 -181.8272,-70.5834 -252.4106,0 -70.58346,70.5834 -70.58346,181.8272 0,252.4106 43.6564,43.6565 103.5575,61.4958 164.016,48.8459 z"
       id="path823"
       inkscape:connector-curvature="0" /><path
       style="fill:#009800;stroke-width:0.0273438"
       d="m 1111.8444,-1670.9818 c -57.3873,-10.9554 -107.3952,-37.9291 -146.81706,-79.1914 -33.70029,-35.2738 -56.86837,-77.5871 -68.93319,-125.8974 -6.65226,-26.6372 -6.65226,-93.0284 0,-119.6655 24.92617,-99.81 97.60736,-173.8579 197.57875,-201.2942 30.8254,-8.4598 98.8311,-8.4598 129.6566,0 99.9714,27.4363 172.6526,101.4842 197.5787,201.2942 6.652,26.6371 6.652,93.0283 0,119.6655 -24.9379,99.8568 -98.9013,175.1173 -197.5787,201.0435 -27.867,7.3215 -83.7081,9.3478 -111.4851,4.0457 z m 99.9131,-47.4323 c 58.3931,-15.9341 102.9669,-47.782 134.5176,-96.1128 24.8967,-38.138 34.7657,-72.5932 34.7657,-121.3765 0,-62.9987 -21.1456,-114.9735 -64.3558,-158.1838 -43.2103,-43.2102 -95.1851,-64.3558 -158.1838,-64.3558 -48.7832,0 -83.2385,9.869 -121.3765,34.7657 -60.77964,39.6774 -97.12746,102.2721 -101.81758,175.3403 -7.1988,112.1509 71.23158,210.9247 185.38338,233.4685 18.8744,3.7275 71.9923,1.659 91.067,-3.5456 z"
       id="path821"
       inkscape:connector-curvature="0" /><path
       style="fill:#323232;stroke-width:0.0273438"
       d="m 312.66246,-1758.2073 c -65.44267,-14.0554 -122.05137,-71.1828 -135.84017,-137.0846 -26.6295,-127.2726 85.58932,-239.4914 212.86191,-212.8619 28.9704,6.0614 61.49605,23.2387 84.72256,44.7428 l 19.74057,18.2768 h 209.17554 c 166.23768,0 208.88134,0.717 207.74229,3.5008 -0.7887,1.9251 -4.29234,12.0083 -7.78665,22.4063 l -6.35343,18.9055 H 708.09638 519.26764 l 1.83804,6.3016 c 11.69626,40.1006 12.452,80.618 2.11578,113.432 l -5.51393,17.5049 h 190.86152 190.86152 l 6.44675,17.505 c 3.54575,9.6276 7.1581,19.7105 8.02755,22.4063 1.49621,4.639 -9.78206,4.9016 -210.47626,4.9016 H 491.37149 l -18.49401,16.9465 c -42.66052,39.0906 -103.15673,55.3711 -160.21502,43.1164 z m 128.83636,-174.8953 v -89.6253 h -89.62529 -89.6253 v 89.6253 89.6253 h 89.6253 89.62529 z m 677.79128,174.8953 c -65.4427,-14.0554 -122.05135,-71.1828 -135.84011,-137.0846 -26.62952,-127.2726 85.58931,-239.4914 212.86191,-212.8619 66.5837,13.9315 123.309,70.6568 137.2405,137.2405 26.7254,127.7305 -86.5105,240.1439 -214.2623,212.706 z m 128.8364,-174.8953 v -89.6253 h -89.6253 -89.6253 v 89.6253 89.6253 h 89.6253 89.6253 z"
       id="path819"
       inkscape:connector-curvature="0" /></g></svg>
