<?xml version="1.0" encoding="UTF-8" standalone="no"?>
<!-- Created with Inkscape (http://www.inkscape.org/) -->

<svg
   version="1.1"
   id="svg2"
   width="1600"
   height="1600"
   viewBox="0 0 1600 1600"
   sodipodi:docname="blendfromshape.svg"
   inkscape:version="1.2.2 (732a01da63, 2022-12-09)"
   xmlns:inkscape="http://www.inkscape.org/namespaces/inkscape"
   xmlns:sodipodi="http://sodipodi.sourceforge.net/DTD/sodipodi-0.dtd"
   xmlns="http://www.w3.org/2000/svg"
   xmlns:svg="http://www.w3.org/2000/svg"
   xmlns:rdf="http://www.w3.org/1999/02/22-rdf-syntax-ns#"
   xmlns:cc="http://creativecommons.org/ns#"
   xmlns:dc="http://purl.org/dc/elements/1.1/">
  <metadata
     id="metadata8">
    <rdf:RDF>
      <cc:Work
         rdf:about="">
        <dc:format>image/svg+xml</dc:format>
        <dc:type
           rdf:resource="http://purl.org/dc/dcmitype/StillImage" />
      </cc:Work>
    </rdf:RDF>
  </metadata>
  <defs
     id="defs6" />
  <sodipodi:namedview
     pagecolor="#808080"
     bordercolor="#666666"
     borderopacity="1"
     objecttolerance="10"
     gridtolerance="10"
     guidetolerance="10"
     inkscape:pageopacity="0"
     inkscape:pageshadow="2"
     inkscape:window-width="1993"
     inkscape:window-height="1009"
     id="namedview4"
     showgrid="false"
     inkscape:zoom="0.5"
     inkscape:cx="241"
     inkscape:cy="110"
     inkscape:window-x="-8"
     inkscape:window-y="-8"
     inkscape:window-maximized="1"
     inkscape:current-layer="BLENDFROMSHAPE"
     inkscape:showpageshadow="0"
     inkscape:pagecheckerboard="true"
     inkscape:deskcolor="#d1d1d1" />
  <g
     id="BLENDFROMSHAPE"
     transform="matrix(100,0,0,100,0,4.9999997e-5)"
     style="stroke-width:0.0114286">
    <path
       style="fill:none;stroke-width:0.000357143"
       d="M 0.00321419,12.382813 C 0.0060997,9.1355231 0.0109166,8.7986744 0.05031811,9.0888122 0.34569559,11.263859 1.5545136,13.274655 3.3147119,14.518934 c 1.0920887,0.771995 2.308234,1.255801 3.5964759,1.430748 0.2901378,0.0394 -0.046711,0.04422 -3.2940003,0.0471 L 0,16 Z m 9.08559801,3.566869 c 1.2882418,-0.174947 2.5043868,-0.658753 3.5964758,-1.430748 1.760199,-1.244279 2.969016,-3.255075 3.264394,-5.4301218 0.0394,-0.2901378 0.04422,0.046711 0.0471,3.2940008 L 16,16 12.382813,15.9968 C 9.1355231,15.9939 8.7986744,15.9891 9.0888122,15.9497 Z M 0.00321419,3.6171875 0,0 3.6171875,0.00321419 C 6.8644769,0.0060997 7.2013256,0.0109166 6.9111878,0.05031811 4.7361412,0.34569559 2.7253454,1.5545136 1.4810658,3.3147119 0.70907106,4.4068006 0.22526502,5.6229459 0.05031811,6.9111878 0.0109166,7.2013256 0.0060997,6.8644769 0.00321419,3.6171875 Z M 15.956771,6.9914259 C 15.910238,6.47792 15.694948,5.6307653 15.462843,5.0478453 14.727448,3.2009444 13.380423,1.7232174 11.633172,0.8465815 10.805257,0.43119809 9.9710362,0.17012665 9.0888122,0.05031811 8.7986744,0.0109166 9.1355231,0.0060997 12.382813,0.00321419 L 16,0 v 3.609375 c 0,1.9851562 -0.0051,3.609375 -0.01131,3.609375 -0.0062,0 -0.02058,-0.1022959 -0.03191,-0.2273241 z"
       id="path827"
       inkscape:connector-curvature="0" />
    <path
       style="fill:#fefefe;stroke-width:0.000357143"
       d="M 4.625,10.419657 C 4.5304687,10.394918 4.340625,10.319382 4.203125,10.2518 3.4403641,9.8769003 2.872069,9.0273797 2.6187034,7.8833141 c -0.097465,-0.4401013 -0.097465,-1.3265269 0,-1.7666282 C 2.7629349,5.4654122 2.9928917,4.9416281 3.3343088,4.4867162 3.5829062,4.1554791 3.8689094,3.9124178 4.203125,3.7483484 c 0.5865266,-0.2879312 1.0072234,-0.2879312 1.59375,0 0.3336216,0.1637779 0.62014,0.4070257 0.8672403,0.7362678 C 6.8297159,4.7052666 7.125,5.2174003 7.125,5.2839641 7.125,5.2927203 7.0193672,5.2483597 6.8902603,5.185385 6.5951456,5.0414362 6.3426997,4.9864666 5.984375,4.9881306 5.6288331,4.9897806 5.4274581,5.0365637 5.09375,5.1950366 4.7183441,5.3733106 4.3733106,5.7183441 4.1950366,6.09375 4.0339497,6.4329628 3.9888634,6.6311434 3.9888634,7 c 0,0.3688566 0.045086,0.5670372 0.2061732,0.90625 C 4.3733106,8.2816559 4.7183441,8.6266894 5.09375,8.8049634 5.4274581,8.9634362 5.6288331,9.0102188 5.984375,9.0118694 6.3426997,9.0135319 6.5951456,8.9585638 6.8902603,8.814615 7.0193672,8.7516403 7.125,8.7072797 7.125,8.7160359 7.125,8.7825997 6.8297159,9.2947334 6.6641153,9.5153838 6.1255894,10.232928 5.3038866,10.597323 4.625,10.419657 Z"
       id="path825"
       inkscape:connector-curvature="0" />
    <path
       style="fill:#fecb32;stroke-width:0.000357143"
       d="M 7.1426209,15.417977 C 5.2873191,15.180365 3.4861591,14.215652 2.3364304,12.84375 1.1887776,11.474325 0.53125,9.7100141 0.53125,8 0.53125,6.2899859 1.1887776,4.5256753 2.3364304,3.15625 3.3284497,1.972533 4.8691797,1.0521657 6.4375,0.70644356 6.8623341,0.61279269 7.4909756,0.53125 7.7881294,0.53125 H 8 L 7.99532,3.4609375 C 7.99275,5.0722656 7.98517,6.3484375 7.978486,6.296875 7.8859591,5.5830266 7.5751844,4.7530947 7.2087375,4.2412475 6.7734081,3.6331866 6.2113987,3.2201153 5.5977991,3.0572239 c -0.3294044,-0.087446 -0.8661938,-0.087446 -1.1955982,0 C 3.2892063,3.3526888 2.4128725,4.4291362 2.095535,5.890625 1.7179222,7.6297097 2.2745329,9.5237463 3.43399,10.445124 3.9202441,10.831532 4.4075059,11.00607 5,11.00607 c 0.5924941,0 1.0797559,-0.174537 1.56601,-0.560946 0.7334491,-0.5828446 1.2668228,-1.618269 1.4124741,-2.741999 0.00668,-0.051563 0.014258,1.0929809 0.016834,2.54343 0.0044,2.478135 0.00138,2.639683 -0.050005,2.678693 -0.042687,0.0324 -0.2679612,0.04173 -1.0265869,0.04251 -1.0490122,0.0011 -1.1186106,0.01 -1.282695,0.164446 -0.2821228,0.265558 -0.163025,0.784278 0.205415,0.894666 0.0785,0.02352 0.4656185,0.03563 1.1387425,0.03563 H 8 v 0.703125 0.703125 L 7.7421875,15.46525 C 7.6003906,15.46335 7.3305856,15.44205 7.1426209,15.41798 Z"
       id="path823"
       inkscape:connector-curvature="0" />
    <path
       style="fill:#00fe00;stroke-width:0.000357143"
       d="m 8,14.770572 v -0.698179 l 0.1328125,-0.03867 c 0.12284,-0.03577 0.2914763,-0.108943 0.6484375,-0.281371 0.077344,-0.03736 0.1617188,-0.08076 0.1875,-0.09645 0.025781,-0.01569 0.1242188,-0.0648 0.21875,-0.109132 0.094531,-0.04434 0.1929688,-0.09355 0.21875,-0.109375 0.025781,-0.01582 0.1242188,-0.06504 0.21875,-0.109375 0.094531,-0.04434 0.1929688,-0.09355 0.21875,-0.109375 0.025781,-0.01582 0.1242834,-0.06385 0.218894,-0.106721 0.350509,-0.158839 0.522115,-0.449816 0.439437,-0.745113 -0.08011,-0.286115 -0.37812,-0.449636 -0.6703404,-0.367819 -0.080218,0.02246 -0.1533328,0.05294 -0.1624775,0.06774 -0.00914,0.0148 -0.096673,0.06295 -0.1945075,0.106997 -0.097834,0.04405 -0.1989743,0.09304 -0.2247556,0.108861 -0.025781,0.01582 -0.1242188,0.06504 -0.21875,0.109375 -0.094531,0.04434 -0.1929687,0.09355 -0.21875,0.109375 -0.046252,0.02838 -0.3151531,0.159506 -0.40625,0.198096 -0.025781,0.01092 -0.096094,0.04954 -0.15625,0.08583 -0.060156,0.03628 -0.1405553,0.07783 -0.1786647,0.09232 l -0.06929,0.02635 -2.5e-4,-6.1863372 L 8.0015569,0.53125 h 0.2110922 c 0.2964487,0 0.9254303,0.0816338 1.3498509,0.17519356 C 11.13082,1.0521657 12.67155,1.972533 13.66357,3.15625 14.811223,4.5256753 15.46875,6.2899859 15.46875,8 c 0,1.7100141 -0.657527,3.474325 -1.80518,4.84375 -0.99202,1.183717 -2.53275,2.104084 -4.10107,2.449807 -0.4248341,0.09365 -1.0534756,0.175193 -1.3506294,0.175193 H 8 Z"
       id="path821"
       inkscape:connector-curvature="0" />
    <path
       style="fill:#000000;stroke-width:0.000357143"
       d="M 6.953125,15.951097 C 4.3048322,15.591244 2.055359,14.005956 0.86149184,11.658095 0.25741922,10.470125 0,9.3770631 0,8 0,6.6229369 0.25741922,5.5298747 0.86149184,4.3419047 2.0607831,1.9833769 4.3221491,0.39600131 6.9781631,0.04828102 c 0.4907344,-0.06424602 1.5529394,-0.06424602 2.0436738,0 C 11.677851,0.39600131 13.939217,1.9833769 15.138508,4.3419047 15.742581,5.5298747 16,6.6229369 16,8 c 0,1.3770631 -0.257419,2.470125 -0.861492,3.658095 -1.199291,2.358528 -3.460657,3.945904 -6.1166711,4.293624 -0.4604053,0.06028 -1.6231181,0.05993 -2.0687119,-6.22e-4 z M 8.8134331,15.420764 C 12.304724,14.99085 14.99085,12.304724 15.420764,8.8134331 15.685853,6.6606703 14.858299,4.3244853 13.266907,2.7330932 11.675515,1.141701 9.3393297,0.31414719 7.1865669,0.57923628 3.6952759,1.0091504 1.0091504,3.6952759 0.57923628,7.1865669 0.31414719,9.3393297 1.141701,11.675515 2.7330932,13.266907 4.3239497,14.857763 6.661395,15.685763 8.8134331,15.420764 Z M 5.828125,14.024946 c -0.1467872,-0.05107 -0.2861788,-0.203254 -0.3302056,-0.360503 -0.077452,-0.276632 0.081197,-0.581465 0.3435262,-0.660061 0.077817,-0.02331 0.4500163,-0.03563 1.0766666,-0.03563 0.5368959,0 0.98158,-0.01288 1.0119994,-0.02931 0.029845,-0.01612 0.1316072,-0.0656 0.2261384,-0.10995 0.094531,-0.04435 0.1929688,-0.09358 0.21875,-0.109403 0.025781,-0.01582 0.1242188,-0.06504 0.21875,-0.109375 0.094531,-0.04433 0.1929688,-0.09355 0.21875,-0.109375 0.025781,-0.01582 0.1242188,-0.06504 0.21875,-0.109375 0.094531,-0.04433 0.1929688,-0.09355 0.21875,-0.109375 0.025781,-0.01582 0.1269213,-0.06481 0.2247556,-0.108861 0.097835,-0.04405 0.1853628,-0.0922 0.1945075,-0.106997 0.00914,-0.0148 0.08226,-0.04528 0.1624775,-0.06774 0.2922204,-0.08182 0.5902324,0.0817 0.6703404,0.367819 0.08268,0.295297 -0.08893,0.586274 -0.439437,0.745113 -0.094611,0.04288 -0.1931127,0.0909 -0.218894,0.106721 -0.025781,0.01582 -0.1242188,0.06504 -0.21875,0.109375 -0.094531,0.04433 -0.1929687,0.09355 -0.21875,0.109375 -0.025781,0.01582 -0.1242188,0.06504 -0.21875,0.109375 -0.094531,0.04433 -0.1929687,0.09355 -0.21875,0.109375 -0.025781,0.01582 -0.1242188,0.06475 -0.21875,0.108719 -0.094531,0.04397 -0.2140625,0.102499 -0.265625,0.130055 -0.300645,0.16067 -0.3647431,0.16774 -1.4970797,0.165118 -0.6527028,-0.0015 -1.1017369,-0.0151 -1.1591703,-0.03509 z M 4.6935269,10.999003 C 4.2454691,10.937951 3.8162034,10.748855 3.4312806,10.442972 2.7403258,9.8938947 2.2529176,8.9954581 2.056967,7.9097069 1.965195,7.4012037 1.965195,6.5987962 2.056967,6.0902931 2.3392398,4.5262347 3.2356594,3.3669037 4.4022009,3.0572239 c 0.3294044,-0.087446 0.8661938,-0.087446 1.1955982,0 1.1664425,0.3096536 2.061179,1.4666077 2.3456403,3.0330692 0.092452,0.5091122 0.092452,1.3103016 0,1.8194138 C 7.6179194,9.7022706 6.5185091,10.918097 5.140625,11.00931 5.003125,11.01841 4.8019309,11.01381 4.6935269,10.999 Z M 5.3187744,10.434868 C 5.5647369,10.384544 6.0188669,10.15302 6.2536925,9.9582297 6.5040275,9.7505737 6.8218894,9.3353263 6.9963603,8.9880259 7.0671122,8.8471875 7.125,8.7247922 7.125,8.7160359 7.125,8.7072797 7.0193672,8.7516403 6.8902603,8.814615 6.5951456,8.9585638 6.3426997,9.0135334 5.984375,9.0118694 5.6288331,9.0102188 5.4274581,8.9634363 5.09375,8.8049634 4.7183441,8.6266894 4.3733106,8.2816559 4.1950366,7.90625 4.0339497,7.5670372 3.9888634,7.3688566 3.9888634,7 c 0,-0.3688566 0.045086,-0.5670372 0.2061732,-0.90625 C 4.3733106,5.7183441 4.7183441,5.3733106 5.09375,5.1950366 5.4274581,5.0365637 5.6288331,4.9897812 5.984375,4.9881306 6.3426997,4.9864681 6.5951456,5.0414362 6.8902603,5.185385 7.0193672,5.2483597 7.125,5.2927203 7.125,5.2839641 7.125,5.2174003 6.8297159,4.7052666 6.6641153,4.4846162 6.4085172,4.1440516 6.1263897,3.9085491 5.765625,3.7346131 5.1977597,3.4608275 4.8022403,3.4608275 4.234375,3.7346131 3.8729981,3.9088444 3.5914234,4.1441306 3.3343088,4.4867162 2.9928917,4.9416281 2.7629349,5.4654122 2.6187034,6.1166859 c -0.097465,0.4401013 -0.097465,1.3265269 0,1.7666282 0.1442315,0.6512737 0.3741883,1.1750578 0.7156054,1.6299696 0.2487787,0.3314785 0.5332418,0.5731043 0.8742837,0.7426253 0.404575,0.201101 0.7387087,0.254963 1.1101819,0.178959 z"
       id="path819"
       inkscape:connector-curvature="0" />
  </g>
</svg>
