<?xml version="1.0" encoding="UTF-8" standalone="no"?>
<!-- Created with Inkscape (http://www.inkscape.org/) -->

<svg
   version="1.1"
   id="svg2"
   width="1600"
   height="1600"
   viewBox="0 0 1600 1600"
   sodipodi:docname="blur_attribute.svg"
   inkscape:version="1.2.2 (732a01da63, 2022-12-09)"
   xmlns:inkscape="http://www.inkscape.org/namespaces/inkscape"
   xmlns:sodipodi="http://sodipodi.sourceforge.net/DTD/sodipodi-0.dtd"
   xmlns="http://www.w3.org/2000/svg"
   xmlns:svg="http://www.w3.org/2000/svg">
  <defs
     id="defs6" />
  <sodipodi:namedview
     id="namedview4"
     pagecolor="#808080"
     bordercolor="#000000"
     borderopacity="0.25"
     inkscape:showpageshadow="2"
     inkscape:pageopacity="0"
     inkscape:pagecheckerboard="true"
     inkscape:deskcolor="#d1d1d1"
     showgrid="false"
     inkscape:zoom="0.5"
     inkscape:cx="1066"
     inkscape:cy="1032"
     inkscape:window-width="2560"
     inkscape:window-height="1009"
     inkscape:window-x="-8"
     inkscape:window-y="-8"
     inkscape:window-maximized="1"
     inkscape:current-layer="g8" />
  <g
     inkscape:groupmode="layer"
     inkscape:label="Image"
     id="g8"
     transform="translate(0,3168)">
    <g
       id="BLUR_ATTRIBUTE"
       transform="matrix(100,0,0,100,0,-3168)"
       style="stroke-width:0.01">
      <path
         style="fill:none;stroke-width:0.0003125"
         d="M 8,16 H 0 V 8 0 h 8 8 v 8 8 z m 4.536782,-0.508758 2.646157,-0.0069 0.08629,-0.06443 0.08629,-0.06443 0.06443,-0.08626 0.06443,-0.08626 0.01564,-2.64618 0.01564,-2.64618 -0.03595,-0.09375 -0.03595,-0.09375 L 14.370312,8.6342706 13.296875,7.5654159 13.208903,7.5327081 13.120931,7.5 H 12.512587 11.904243 L 11.803684,7.5437506 11.703125,7.5875012 10.634271,8.6609381 9.5654159,9.734375 9.5327081,9.8223469 9.5,9.9103188 V 12.5 15.089681 l 0.033332,0.08797 0.033331,0.08797 0.068231,0.0743 0.068231,0.0743 0.09375,0.04194 0.09375,0.04195 z M 5.03125,12.17177 5.140625,12.15983 5.46875,12.12308 5.796875,12.08633 5.859375,12.05332 5.921875,12.02031 6.03125,11.9976 6.140625,11.97489 6.25,11.93501 l 0.109375,-0.03988 0.125,-0.05927 0.125,-0.05927 0.1875,-0.105789 0.1875,-0.105789 0.042935,-0.0217 0.042934,-0.0217 0.1289406,-0.119782 0.1289403,-0.119781 0.024793,-3.91e-4 0.024793,-3.9e-4 0.1639831,-0.164063 0.1639828,-0.164062 0.080917,-0.109375 0.080917,-0.109375 0.074057,-0.08152 0.074057,-0.08151 0.034109,-0.05911 0.03411,-0.05911 0.1429268,-0.265625 0.1429272,-0.2656252 0.064728,-0.203125 0.064728,-0.203125 0.045795,-0.15625 0.045795,-0.15625 0.017936,-0.1875 0.017937,-0.1875 0.022728,-0.171875 0.022728,-0.171875 -0.022028,-0.15625 -0.022029,-0.15625 -0.020046,-0.21875 -0.020046,-0.21875 L 8.5439616,7.6359 8.5,7.5374272 V 7.4994691 7.4615112 L 8.4485769,7.3010669 8.3971538,7.1406228 8.2868063,6.9062478 8.1764588,6.6718728 8.1585419,6.6562478 8.140625,6.6406228 7.8711147,6.1093728 7.6016041,5.5781228 7.4375213,5.2656228 7.2734381,4.9531228 7.1164697,4.6562478 6.9595009,4.3593728 6.8359209,4.1249978 6.7123409,3.8906228 6.6217953,3.7562438 6.53125,3.6218647 V 3.6045257 3.5871867 L 6.443836,3.4576545 6.356422,3.3281226 6.334117,3.2812476 6.311811,3.2343726 6.250119,3.1406226 6.188427,3.0468726 6.159601,2.9843726 6.130774,2.9218726 5.995074,2.7621179 5.859374,2.6023632 5.734374,2.4515624 5.609374,2.3007615 5.468395,2.1581923 5.327415,2.0156228 5.1504588,1.9433074 4.9735025,1.8709921 4.7914388,1.9526912 4.609375,2.0343903 4.4822806,2.1718928 4.3551859,2.3093953 4.2322806,2.4558794 4.109375,2.6023634 l -0.1357,0.1597547 -0.1357,0.1597547 -0.028827,0.0625 -0.028826,0.0625 -0.061692,0.09375 -0.061692,0.09375 L 3.634632,3.2812478 3.612327,3.3281228 3.5249138,3.4576547 3.4375,3.5871869 v 0.03453 0.034531 H 3.408356 3.379212 l -0.019778,0.062315 -0.019778,0.062315 -0.037739,0.039248 -0.037739,0.039248 -0.1086512,0.21875 -0.1086513,0.21875 -0.018722,0.015625 -0.018722,0.015625 L 2.8766547,4.5937489 2.743878,4.8593739 2.6555,5.0312489 2.567122,5.2031239 2.533562,5.2408669 2.5,5.27861 V 5.320554 5.362498 L 2.469333,5.393165 2.438666,5.423832 2.159161,5.9697277 1.8796559,6.5156236 l -0.1552361,0.3125 -0.1552361,0.3125 -0.054365,0.1875 -0.054365,0.1875 -0.04046,0.109375 -0.04046,0.109375 -0.018939,0.21875 -0.018939,0.21875 -0.0246,0.1640625 -0.0246,0.1640625 0.0252,0.1640625 0.0252,0.1640625 0.017575,0.1875 0.017575,0.1875 0.045795,0.15625 0.045795,0.15625 0.060153,0.1875 0.060153,0.1875 0.054163,0.109375 0.054163,0.1093754 0.018498,0.01563 0.018498,0.01563 0.085958,0.17863 0.085958,0.17863 0.2338423,0.292405 0.2338424,0.292405 0.2101387,0.16959 0.2101388,0.16959 0.050399,0.04687 0.050399,0.04687 0.069067,0.0402 0.069067,0.0402 0.1782949,0.09574 0.178295,0.09574 0.109375,0.05476 0.109375,0.05476 0.109375,0.03893 0.109375,0.03893 0.1117831,0.023 0.1117835,0.023 0.044467,0.02847 0.044467,0.02847 0.390625,0.05294 0.390625,0.05294 0.109375,-0.01194 z"
         id="path859" />
      <path
         style="fill:#fefefe;stroke-width:0.0003125"
         d="M 12.5,14 H 11 V 12.5 11 h 1.5 1.5 v 1.5 1.5 z m -7.5286459,-2.972561 -0.1119791,-0.0038 -0.1875,-0.02724 -0.1875,-0.02724 -0.11782,-0.04708 L 4.2487353,10.875 H 4.1882072 4.1276791 L 3.8529019,10.731578 3.578125,10.588156 3.54343,10.544078 3.5087347,10.5 h -0.02378 -0.02378 L 3.2149622,10.253788 2.96875,10.007576 V 9.9725378 9.9375 H 2.9429452 2.9171403 L 2.8257577,9.7500719 2.734375,9.5626434 2.7146709,9.5625719 2.6949668,9.5625 2.6003674,9.2578125 2.5057681,8.953125 2.4831638,8.75 2.4605595,8.546875 v -0.0625 -0.0625 L 2.4828844,8.21875 2.5052093,8.015625 2.5958365,7.7320616 2.6864637,7.4484981 2.7967838,7.2476866 2.9071038,7.046875 3.0082394,6.84375 3.109375,6.640625 3.1316191,7.1875 3.1538628,7.734375 3.20543,7.96875 3.2569972,8.203125 3.3647597,8.546875 3.4725219,8.890625 3.6639159,9.2734375 3.85531,9.65625 H 3.88078 3.90625 V 9.689345 9.72244 l 0.1852825,0.2403428 0.1852822,0.2403422 0.1975303,0.203729 0.19753,0.203729 0.140625,0.125096 0.140625,0.125097 0.084878,0.06546 0.084878,0.06546 -0.019774,0.01977 -0.019774,0.01977 z"
         id="path857" />
      <path
         style="fill:#cbcbcb;stroke-width:0.0003125"
         d="M 12.499632,15 H 10 V 12.507632 10.015264 L 11.00799,9.0076322 12.01598,8 h 0.499645 0.499645 l 1.000178,0.9998163 1.000177,0.9998159 -0.0082,2.5001838 L 14.999263,15 Z M 12.5,14 H 14 V 12.5 11 H 12.5 11 v 1.5 1.5 z m 0,-4 H 13 V 9.5 9 H 12.5 12 V 9.5 10 Z"
         id="path855" />
      <path
         style="fill:#65cbfe;stroke-width:0.0003125"
         d="M 4.921875,11.402305 4.765625,11.398536 4.5625,11.370208 4.359375,11.34188 4.2609022,11.29594 4.1624294,11.25 H 4.1008122 4.039195 L 3.90241,11.186054 3.765625,11.122108 3.5555019,11.006366 3.3453791,10.890625 3.2284059,10.796875 3.111433,10.703125 2.938529,10.528794 2.765625,10.354463 l -0.0625,-0.07568 -0.0625,-0.07568 -0.06144,-0.09374 -0.06144,-0.09374 L 2.399097,9.781248 2.280449,9.546873 2.206124,9.296873 2.131799,9.046873 2.1069958,8.84375 2.0821931,8.640625 V 8.484375 8.328125 L 2.1064367,8.125 l 0.024244,-0.203125 0.07626,-0.25 0.07626,-0.25 L 2.5398318,6.90625 2.7964637,6.390625 2.8158949,6.375 2.8353262,6.359375 2.859375,6.28125 2.8834238,6.203125 2.9057466,6.1875 2.9280694,6.171875 3.0595705,5.90625 3.1910716,5.640625 3.2182813,5.59375 3.2454906,5.546875 3.2637744,5.5 3.2820584,5.453125 3.3628744,5.3125 3.4436903,5.171875 3.6702472,4.734375 3.8968038,4.296875 3.9874644,4.15625 4.078125,4.015625 4.1155272,3.953125 4.1529294,3.890625 4.2639647,3.7086978 4.375,3.5267706 v -0.02901 -0.02901 H 4.404144 4.433288 L 4.453631,3.4046556 4.473974,3.3405616 4.565112,3.2473286 4.65625,3.1540956 v -0.012 -0.012001 L 4.7628847,3.0103596 4.8695191,2.890625 4.9269471,2.819927 4.9843751,2.74923 l 0.15625,0.1906447 0.15625,0.1906449 0.085749,0.096408 0.085749,0.096408 0.1798757,0.2931353 0.1798759,0.2931353 0.074529,0.1311347 0.074528,0.1311347 0.081722,0.125 0.081721,0.125 0.2152706,0.421875 0.215271,0.421875 0.149225,0.28125 0.149225,0.28125 0.1324147,0.265625 0.1324146,0.265625 0.026527,0.010417 0.026527,0.010417 v 0.057664 0.057664 L 7.2265625,6.5368303 7.265625,6.578125 7.4738884,7 l 0.2082632,0.421875 0.077612,0.25 0.077612,0.25 0.023293,0.203125 0.023293,0.203125 0.00166,0.15625 0.00166,0.15625 -0.036407,0.25 -0.036407,0.25 -0.046407,0.15625 -0.046407,0.15625 -0.04149,0.1135572 -0.04149,0.1135572 -0.030855,0.042693 -0.030855,0.042693 -0.087385,0.1736238 -0.087385,0.1736228 -0.1073494,0.117178 -0.107349,0.117178 v 0.01614 0.01614 L 7.0416972,10.533505 6.895895,10.6875 H 6.872047 6.848199 l -0.117221,0.110554 -0.1172212,0.110553 -0.1584416,0.08248 -0.1584412,0.08248 -0.1792553,0.08822 -0.1792553,0.08822 -0.070745,1.87e-4 -0.070745,1.88e-4 -0.084624,0.04415 -0.084623,0.04415 -0.2747516,0.0337 -0.2747515,0.0337 -0.15625,-0.0038 z m 0.049479,-0.374866 0.1119793,0.0038 0.019774,-0.01977 0.019774,-0.01977 -0.084878,-0.06546 L 4.953125,10.860776 4.8125,10.735679 4.671875,10.610583 4.474345,10.406854 4.2768147,10.203125 4.0915325,9.9627825 3.90625,9.7224397 V 9.689345 9.65625 H 3.88078 3.85531 L 3.6639159,9.2734375 3.4725219,8.890625 3.3647597,8.546875 3.2569972,8.203125 3.20543,7.96875 3.1538628,7.734375 3.1316191,7.1875 3.109375,6.640625 3.0082394,6.84375 2.9071038,7.046875 2.7967837,7.2476866 2.6864637,7.4484981 2.5958365,7.7320616 2.5052093,8.015625 2.4828844,8.21875 2.4605595,8.421875 v 0.0625 0.0625 L 2.4831638,8.75 l 0.022604,0.203125 0.094599,0.3046875 0.094599,0.3046875 0.019704,6.25e-5 0.019704,6.25e-5 0.091383,0.1874284 0.091383,0.1874282 h 0.025805 0.025805 v 0.035038 0.035038 l 0.2462122,0.246212 0.2462122,0.246213 h 0.02378 0.02378 l 0.034695,0.04408 0.034695,0.04408 0.2747769,0.143421 0.2747772,0.143423 h 0.060528 0.060528 l 0.1178197,0.04708 0.11782,0.04708 0.1875,0.02723 0.1875,0.02724 0.1119791,0.0038 z"
         id="path853" />
      <path
         style="fill:#0032fe;stroke-width:0.0003125"
         d="M 5.03125,12.17177 4.921875,12.18371 4.53125,12.13077 4.140625,12.07783 4.096158,12.04936 4.051691,12.02089 3.9399075,11.99789 3.8281244,11.97489 3.71875,11.935952 3.609375,11.897026 3.5,11.842263 3.390625,11.7875 3.21233,11.691759 l -0.1782949,-0.09574 -0.069067,-0.0402 -0.069067,-0.0402 -0.050399,-0.04687 -0.050399,-0.04687 L 2.5849644,11.252285 2.3748257,11.082696 2.1409833,10.79029 1.907141,10.497885 1.8211832,10.319255 1.7352253,10.140625 1.7167272,10.125 1.6982291,10.109375 1.6440657,10 1.5899023,9.890625 1.529749,9.703125 1.4695957,9.515625 1.4238008,9.359375 1.378006,9.203125 1.3604306,9.015625 1.3428552,8.828125 1.3176551,8.6640625 1.292455,8.5 1.317055,8.3359375 1.341655,8.171875 1.360594,7.953125 1.379533,7.734375 1.419993,7.625 1.460453,7.515625 1.514818,7.328125 1.569183,7.140625 1.7244191,6.828125 1.8796552,6.515625 2.1591616,5.9697291 2.4386666,5.4238334 2.4693333,5.3931666 2.5,5.3625 V 5.3205559 5.2786122 L 2.5335605,5.2408684 2.5671209,5.203125 2.655499,5.03125 2.7438771,4.859375 2.8766538,4.59375 3.0094306,4.328125 3.0281528,4.3125 3.046875,4.296875 3.1555263,4.078125 3.2641775,3.859375 3.3019166,3.8201275 3.3396556,3.78088 3.3594338,3.718565 3.3792119,3.65625 H 3.4083559 3.4375 V 3.621719 3.587189 l 0.087414,-0.1295322 0.087414,-0.1295319 0.022305,-0.046875 0.022306,-0.046875 0.061692,-0.09375 0.061692,-0.09375 0.028826,-0.0625 0.028827,-0.0625 0.1357,-0.1597547 0.1357,-0.1597547 L 4.2322806,2.4558816 4.3551859,2.3093975 4.4822806,2.171895 4.609375,2.0343925 l 0.1820637,-0.081699 0.1820638,-0.081699 0.1769563,0.072315 0.1769562,0.072315 0.14098,0.1425694 0.14098,0.1425695 0.125,0.1508009 0.125,0.1508008 0.1357,0.1597547 0.1357,0.1597547 0.028827,0.0625 0.028826,0.0625 0.061692,0.09375 0.061692,0.09375 0.022306,0.046875 0.022305,0.046875 0.087414,0.1295319 0.087414,0.1295322 v 0.017339 0.017339 l 0.090545,0.134379 0.090546,0.1343791 0.12358,0.234375 0.12358,0.234375 0.1569688,0.296875 0.1569684,0.296875 0.1640831,0.3125 0.1640829,0.3125 0.2695106,0.53125 0.2695103,0.53125 0.017917,0.015625 0.017917,0.015625 L 8.2868062,6.90625 8.3971537,7.140625 8.4485769,7.3010691 8.5,7.4615134 v 0.037958 0.037958 l 0.043962,0.098473 0.043962,0.098473 0.020046,0.21875 0.020046,0.21875 0.022029,0.15625 0.022029,0.15625 -0.022728,0.171875 -0.022728,0.171875 -0.017937,0.1875 -0.017936,0.1875 -0.045795,0.15625 -0.045795,0.15625 -0.064728,0.203125 -0.064728,0.203125 -0.1429272,0.2656246 -0.1429268,0.265625 -0.03411,0.05911 -0.034109,0.05911 -0.074057,0.08151 -0.074057,0.08152 -0.080917,0.109375 -0.080917,0.109375 -0.1639828,0.164063 -0.1639831,0.164062 -0.024793,3.91e-4 -0.024793,3.9e-4 -0.1289403,0.119782 -0.1289406,0.119781 -0.042934,0.0217 -0.042935,0.0217 -0.1875,0.105789 -0.1875,0.105789 -0.125,0.05927 -0.125,0.05927 -0.109375,0.03988 -0.109375,0.03988 -0.109375,0.02271 -0.109375,0.02271 -0.0625,0.03301 -0.0625,0.03301 -0.328125,0.03675 -0.328125,0.03675 -0.109375,0.01194 z m -0.109375,-0.769465 0.15625,0.0038 0.2747516,-0.0337 0.2747515,-0.0337 0.084624,-0.04415 0.084623,-0.04415 0.070745,-1.87e-4 0.070745,-1.88e-4 L 6.1176204,11.16181 6.2968757,11.07359 6.4553169,10.99111 6.6137585,10.90863 6.7309791,10.798064 6.8482,10.68751 H 6.872048 6.895896 L 7.0416978,10.533515 7.1875,10.379521 v -0.01614 -0.01614 l 0.1073491,-0.117178 0.1073493,-0.117178 0.087385,-0.1736232 0.087385,-0.1736238 0.030855,-0.042693 0.030855,-0.042693 0.04149,-0.1135572 0.04149,-0.1135572 0.046407,-0.15625 0.046407,-0.15625 0.036407,-0.25 0.036407,-0.25 -0.00166,-0.15625 -0.00166,-0.15625 -0.023293,-0.203125 -0.023293,-0.203125 -0.077612,-0.25 -0.077612,-0.25 L 7.4738891,7.00001 7.2656256,6.578135 7.2265631,6.5368403 7.1875006,6.4955456 V 6.4378819 6.3802184 L 7.1609737,6.3698016 7.1344466,6.359385 7.0020319,6.09376 6.8696172,5.828135 6.7203922,5.546885 6.5711672,5.265635 6.3558962,4.84376 6.1406256,4.421885 6.0589044,4.296885 5.9771828,4.171885 5.9026544,4.0407503 5.8281256,3.9096156 5.6482497,3.6164803 5.4683741,3.323345 5.3826247,3.2269372 5.2968756,3.1305297 5.1406256,2.9398848 4.9843756,2.7492401 4.9269478,2.8199375 4.8695197,2.890635 4.7628853,3.0103696 4.6562506,3.1301041 v 0.012001 0.012 l -0.091138,0.093233 -0.091138,0.093233 -0.020343,0.064094 -0.020343,0.064095 h -0.029144 -0.029144 v 0.02901 0.02901 L 4.2639653,3.7087078 4.15293,3.890635 4.1155278,3.953135 4.0781256,4.015635 3.987465,4.15626 3.8968044,4.296885 3.6702478,4.734385 3.4436909,5.171885 3.362875,5.31251 3.2820591,5.453135 3.263775,5.50001 3.2454912,5.546885 3.2182819,5.59376 3.1910722,5.640635 3.0595712,5.90626 2.92807,6.171885 2.9057472,6.18751 2.8834244,6.203135 2.859375,6.28125 2.8353262,6.359375 2.8158949,6.375 2.7964637,6.390625 2.5398318,6.90625 2.2832,7.421875 l -0.07626,0.25 -0.07626,0.25 L 2.1064367,8.125 2.0821931,8.328125 v 0.15625 0.15625 l 0.024803,0.203125 0.024803,0.203125 0.074325,0.25 0.074325,0.25 0.118648,0.234375 0.118648,0.234375 0.06144,0.09374 0.06144,0.09374 0.0625,0.07568 0.0625,0.07568 0.172904,0.174331 0.172904,0.174331 0.1169729,0.09375 0.1169732,0.09375 0.2101228,0.115741 0.2101231,0.115742 0.136785,0.06395 0.136785,0.06395 h 0.061617 0.061617 l 0.098473,0.04594 0.098473,0.04594 0.203125,0.02833 0.203125,0.02833 z"
         id="path851" />
      <path
         style="fill:#323232;stroke-width:0.0003125"
         d="m 12.536782,15.491242 -2.646157,0.0069 -0.09375,-0.04195 -0.09375,-0.04194 -0.068231,-0.0743 -0.068231,-0.0743 L 9.533332,15.177682 9.5,15.089681 V 12.5 9.9103188 L 9.5327081,9.8223469 9.5654159,9.734375 10.634271,8.6609381 11.703125,7.5875013 11.803684,7.5437506 11.904242,7.5 h 0.608345 0.608344 l 0.08797,0.032708 0.08797,0.032708 1.073437,1.0688547 1.073437,1.0688544 0.03595,0.09375 0.03595,0.09375 -0.01564,2.6461799 -0.01564,2.64618 -0.06443,0.08626 -0.06443,0.08626 -0.08629,0.06443 -0.08629,0.06443 z M 12.499632,15 h 2.499631 l 0.0082,-2.500184 0.0082,-2.5001838 L 14.015448,8.9998163 13.01527,8 H 12.515625 12.01598 L 11.00799,9.0076322 10,10.015264 V 12.507632 15 Z M 12.5,10 H 12 V 9.5 9 H 12.5 13 V 9.5 10 Z"
         id="path849" />
    </g>
  </g>
</svg>
