<?xml version="1.0" encoding="UTF-8" standalone="no"?>
<!-- Created with Inkscape (http://www.inkscape.org/) -->

<svg
   version="1.1"
   id="svg2"
   width="1600"
   height="1600"
   viewBox="0 0 1600 1600"
   sodipodi:docname="boids.svg"
   inkscape:version="1.2.2 (732a01da63, 2022-12-09)"
   xmlns:inkscape="http://www.inkscape.org/namespaces/inkscape"
   xmlns:sodipodi="http://sodipodi.sourceforge.net/DTD/sodipodi-0.dtd"
   xmlns="http://www.w3.org/2000/svg"
   xmlns:svg="http://www.w3.org/2000/svg"
   xmlns:rdf="http://www.w3.org/1999/02/22-rdf-syntax-ns#"
   xmlns:cc="http://creativecommons.org/ns#"
   xmlns:dc="http://purl.org/dc/elements/1.1/">
  <metadata
     id="metadata8">
    <rdf:RDF>
      <cc:Work
         rdf:about="">
        <dc:format>image/svg+xml</dc:format>
        <dc:type
           rdf:resource="http://purl.org/dc/dcmitype/StillImage" />
      </cc:Work>
    </rdf:RDF>
  </metadata>
  <defs
     id="defs6" />
  <sodipodi:namedview
     pagecolor="#808080"
     bordercolor="#666666"
     borderopacity="1"
     objecttolerance="10"
     gridtolerance="10"
     guidetolerance="10"
     inkscape:pageopacity="0"
     inkscape:pageshadow="2"
     inkscape:window-width="1993"
     inkscape:window-height="1009"
     id="namedview4"
     showgrid="false"
     inkscape:zoom="0.5"
     inkscape:cx="-13"
     inkscape:cy="10"
     inkscape:window-x="-8"
     inkscape:window-y="-8"
     inkscape:window-maximized="1"
     inkscape:current-layer="BOIDS"
     fit-margin-top="0"
     fit-margin-left="0"
     fit-margin-right="0"
     fit-margin-bottom="0"
     inkscape:showpageshadow="0"
     inkscape:pagecheckerboard="true"
     inkscape:deskcolor="#d1d1d1" />
  <g
     id="BOIDS"
     transform="matrix(100,0,0,100,0,4.9999997e-5)"
     style="stroke-width:0.0114286">
    <path
       style="fill:none;stroke-width:0.000357114"
       d="M 0,8.0012645 V 0.00253301 h 2.0833333 c 1.1458332,0 2.0774738,0.00532839 2.0703127,0.01184087 C 4.146486,0.02088638 4.0400093,0.06817041 3.9170347,0.11944958 3.5416265,0.27599095 3.0871805,0.59813737 2.6811624,0.99553119 2.0587166,1.6047557 1.8768754,1.9468792 1.8756591,2.5110385 c -0.0016,0.743974 0.4070772,1.3210569 1.1115654,1.5695984 0.3044549,0.1074107 0.7506229,0.1080247 1.0526549,0.00145 C 4.3440734,3.9747475 4.5144078,3.8539401 4.8355565,3.5177634 4.9915987,3.3544193 5.1343356,3.2207738 5.1527497,3.2207738 c 0.018414,0 0.060604,0.052726 0.093756,0.117169 0.10728,0.2085347 0.2475193,0.3763678 0.4224628,0.5055855 C 5.8047447,3.9438161 5.8809478,4.0386192 6.0372703,4.3017265 6.2763715,4.7041586 6.3879916,4.8384823 6.592149,4.9694694 7.1171837,5.3063297 7.736228,5.3045762 8.3040406,4.9646204 8.5862194,4.7956769 8.7690303,4.6088691 8.9733075,4.2807205 9.0829799,4.1045437 9.268404,3.8665271 9.4033663,3.7286824 9.5338587,3.5954032 9.6694005,3.4301829 9.7045706,3.3615262 c 0.03517,-0.068657 0.088272,-0.1295147 0.1180041,-0.1352397 0.035127,-0.00677 0.1714126,0.1092154 0.3891793,0.3311937 0.460384,0.4692887 0.742081,0.5995261 1.298361,0.6002741 0.707387,9.499e-4 1.304747,-0.4216187 1.540686,-1.0898759 0.09971,-0.2823831 0.104486,-0.7902724 0.01009,-1.0704473 C 12.96509,1.713106 12.736575,1.4035096 12.32353,0.99844466 11.909412,0.59232835 11.429285,0.25359584 11.065485,0.11088659 10.943531,0.06304698 10.84375,0.01909667 10.84375,0.01321924 c 0,-0.00587742 1.160156,-0.01068623 2.578125,-0.01068623 H 16 l -8.81e-4,3.96030939 -8.82e-4,3.9603095 -0.06943,-0.1332048 C 15.718093,7.3856971 15.283026,6.9444021 14.7337,6.5777309 13.947076,6.052666 13.234899,5.852543 12.268738,5.8850723 11.848326,5.8992273 11.706548,5.9172978 11.406248,5.995003 10.809591,6.1493929 10.264727,6.4154741 9.7452493,6.8061415 9.6252819,6.8963616 9.5140703,6.970178 9.4981124,6.970178 9.4821547,6.970178 9.354654,6.8853361 9.2147778,6.7816407 8.6853487,6.3891552 8.1922565,6.1498721 7.5937481,5.995003 7.1142905,5.8709392 6.399424,5.8399257 5.9031334,5.9216577 5.2920118,6.0223012 4.765224,6.2354083 4.2342144,6.5968041 3.6697468,6.9809707 3.2117262,7.4589268 3.0404578,7.8425191 2.7979869,8.3855851 2.9073116,9.0924546 3.3015853,9.5309122 3.6369016,9.9038056 3.9995015,10.063819 4.5068247,10.062778 5.0342196,10.061697 5.3452562,9.919007 5.7656231,9.4852972 6.0637252,9.1777336 6.2542293,9.0810395 6.5641187,9.0800057 c 0.2123731,-7.093e-4 0.2608581,0.011487 0.484375,0.1218381 0.3167263,0.1563683 0.6892607,0.5227367 1.003266,0.9866612 0.4460934,0.659074 0.8031975,0.874774 1.4482402,0.874774 0.6442391,0 1.0000851,-0.214592 1.4488051,-0.8737 0.304566,-0.4473669 0.711959,-0.8450857 1.019945,-0.9957252 0.202457,-0.099023 0.264165,-0.11458 0.453125,-0.1142303 0.309526,5.718e-4 0.50821,0.099497 0.802161,0.3993966 0.272439,0.2779503 0.499743,0.4311357 0.775964,0.5229379 0.172456,0.05732 0.257384,0.06577 0.5625,0.05599 0.338661,-0.01086 0.372944,-0.01811 0.594804,-0.125918 0.356991,-0.1734669 0.608769,-0.4214919 0.784592,-0.7728996 0.05366,-0.1072464 0.05566,0.011042 0.05686,3.3648576 L 15.999952,16 H 8 0 Z m 4.9741088,7.8407005 c 0.285584,-0.09619 0.4918033,-0.255531 1.0255131,-0.792389 0.2661984,-0.267769 0.4946812,-0.486852 0.5077403,-0.486852 0.013058,0 0.090573,0.04793 0.1722531,0.106514 0.3315618,0.237801 0.8780928,0.31053 1.2962909,0.172501 0.4201072,-0.13866 0.7627775,-0.485117 0.9007309,-0.910683 0.056841,-0.175348 0.065926,-0.2627 0.05524,-0.531166 C 8.9205094,13.114267 8.9074696,13.054295 8.8144615,12.859869 8.7233572,12.669423 8.6265993,12.557136 8.0658543,11.99111 7.7116656,11.633587 7.3585938,11.30075 7.28125,11.251471 6.8372178,10.968567 6.2024572,10.958546 5.75,11.227297 5.6898437,11.263032 5.387174,11.542883 5.0774009,11.849193 L 4.5141765,12.406123 4.0305259,11.919617 C 3.7645178,11.65204 3.4634841,11.375777 3.3615618,11.305701 2.8382521,10.945905 2.1967644,10.936214 1.6897784,11.280447 c -0.097062,0.0659 -0.4516465,0.407412 -0.78796637,0.758909 -0.45486963,0.475397 -0.63164675,0.682327 -0.69018509,0.807913 -0.3616343,0.775828 -0.0159616,1.691615 0.75459709,1.999147 0.12527127,0.04999 0.26243397,0.07353 0.48690097,0.08354 0.3738583,0.01667 0.6017217,-0.04609 0.8982909,-0.24746 l 0.1864198,-0.126576 0.5513947,0.545034 c 0.5720271,0.565428 0.6726721,0.644302 0.9490049,0.743724 0.2350075,0.08455 0.6806185,0.08326 0.9358735,-0.0027 z M 7.3579275,0.71991642 C 7.0668094,0.46799548 6.6819644,0.23131393 6.3125,0.07697361 L 6.140625,0.0051744 h 1.3593749 1.359375 L 8.6875,0.07697361 C 8.3069353,0.23595096 7.9908677,0.43008855 7.6818721,0.69465847 l -0.1775027,0.1519824 z"
       id="path823"
       inkscape:connector-curvature="0" />
    <path
       style="fill:#fefefe;stroke-width:0.000357114"
       d="M 4.296875,14.846996 C 4.2453125,14.81444 3.8305681,14.413775 3.3752212,13.956627 2.919874,13.499481 2.5331553,13.12525 2.5158461,13.125003 2.498537,13.124757 2.315625,13.299384 2.109375,13.513063 c -0.3082952,0.3194 -0.3954107,0.392269 -0.4897445,0.409653 -0.2418163,0.04456 -0.4254101,-0.05524 -0.5102613,-0.277388 -0.09353,-0.244866 -0.056953,-0.304348 0.601873,-0.978771 0.497708,-0.509491 0.6029211,-0.602604 0.7007834,-0.620185 0.2400497,-0.04313 0.2969441,-2.5e-4 1.2293037,0.926391 l 0.8757044,0.870335 0.8742144,-0.874495 c 0.6001503,-0.600342 0.9067178,-0.885219 0.977895,-0.908706 0.2276625,-0.07512 0.2892984,-0.03596 0.906711,0.575994 0.3150008,0.31222 0.5927352,0.60564 0.6171875,0.652045 0.1409036,0.267404 -0.076381,0.618642 -0.3827073,0.618642 -0.175603,0 -0.25843,-0.05548 -0.6393078,-0.428274 L 6.4980562,13.113257 5.6318406,13.976729 c -0.4764185,0.47491 -0.9058028,0.878372 -0.9541875,0.896582 -0.1322194,0.04976 -0.2760234,0.03982 -0.3807781,-0.02631 z M 9.2812659,10.030022 C 9.1574987,9.9780038 9.0712315,9.8826568 8.8359265,9.5378111 8.3221328,8.7848327 7.6775274,8.2703618 7.0481218,8.1109328 6.8162984,8.0522114 6.3187006,8.050367 6.1043337,8.1074339 5.7155116,8.2109434 5.3336606,8.4499934 5.0127159,8.7908196 4.8914418,8.9196057 4.7794906,9.0071518 4.7043853,9.0319351 4.3183894,9.1593049 3.9330356,8.8882782 3.9330356,8.4894302 c 0,-0.2239182 0.054616,-0.3213131 0.34318,-0.6119776 C 5.1269425,7.0205316 6.2350131,6.6998446 7.3596274,6.9850813 7.9178722,7.1266691 8.558278,7.4953707 9.00875,7.9345323 l 0.1806246,0.1760898 0.29256,0.010712 0.2925601,0.010712 0.2611133,-0.2404013 c 1.376438,-1.2672553 3.143986,-1.3473557 4.486032,-0.2032952 0.134191,0.1143952 0.307266,0.2901802 0.38461,0.3906327 0.13657,0.177376 0.140625,0.1890929 0.140625,0.4064006 0,0.1970803 -0.01046,0.2374735 -0.08775,0.3387841 -0.163467,0.2142832 -0.450399,0.2961339 -0.688871,0.1965091 -0.0565,-0.023606 -0.222407,-0.1606935 -0.368672,-0.3046394 -0.456946,-0.4497049 -0.823657,-0.620197 -1.386553,-0.6446406 -0.257148,-0.011167 -0.395631,-0.00195 -0.546875,0.036406 -0.232322,0.058914 -0.593188,0.2224279 -0.790612,0.3582373 -0.21817,0.1500809 -0.773814,0.719379 -0.943169,0.9663449 -0.3912057,0.5704867 -0.4320681,0.6069987 -0.6948925,0.6209237 -0.099059,0.0052 -0.2152566,-0.0052 -0.2582166,-0.02329 z M 7.2296371,4.1603418 C 7.1246337,4.1126712 7.0744978,4.0577014 6.9666612,3.8720112 6.6913359,3.3979129 6.5330975,3.1900866 6.3719709,3.09096 6.2245572,3.00027 6.09375,2.8213724 6.09375,2.7104535 6.09375,2.6543801 5.8571206,2.4353735 5.6639072,2.3126229 5.5823519,2.26081 5.4393868,2.1961945 5.3462072,2.169033 4.9993743,2.0679331 4.6545087,2.2375444 4.15625,2.754276 3.7495482,3.1760563 3.5582528,3.2434725 3.2309188,3.080381 2.9121364,2.9215503 2.7919832,2.5796435 2.9398698,2.2521762 3.0344246,2.0428027 3.6994809,1.4020744 4.0198368,1.211715 4.4117359,0.97884368 4.6694259,0.89919709 5.0804994,0.88388661 c 0.4032631,-0.0150196 0.6209852,0.029109 0.9799002,0.19860919 0.40344,0.1905273 0.7658944,0.4826979 1.146737,0.9243725 0.1705518,0.1977941 0.2588175,0.276553 0.3099343,0.276553 0.039309,0 0.076158,-0.012851 0.081888,-0.028559 0.033288,-0.09126 0.4590153,-0.5440925 0.7082875,-0.7533815 0.5128469,-0.4305864 0.9876534,-0.62408733 1.5313653,-0.62408733 0.6692403,0 1.2165283,0.27476673 1.8544303,0.93101913 0.383993,0.3950382 0.444247,0.5027162 0.425593,0.7605616 -0.0295,0.407781 -0.402752,0.6660548 -0.806734,0.5582249 C 11.195996,3.096263 11.118043,3.0342807 10.859375,2.7673876 10.345101,2.2367606 10.003345,2.0671404 9.6537928,2.169033 9.3516256,2.2571133 8.9236303,2.5856996 8.8419075,2.7923448 8.8200793,2.84754 8.708895,2.9840914 8.5948312,3.0957925 8.4764994,3.2116731 8.3087152,3.4263488 8.2041081,3.5957131 7.9693922,3.9757298 7.9326787,4.015062 7.7078103,4.1274122 7.4913425,4.2355654 7.4079765,4.2413065 7.2296371,4.1603418 Z"
       id="path821"
       inkscape:connector-curvature="0" />
    <path
       style="fill:#323232;stroke-width:0.000357114"
       d="M 4.0382353,15.844681 C 3.7619025,15.745259 3.6612575,15.666385 3.0892304,15.100957 L 2.5378357,14.555923 2.3514159,14.682499 C 2.0548467,14.883864 1.8269833,14.946635 1.453125,14.929959 1.228658,14.919946 1.0914953,14.896412 0.96622403,14.846416 0.19566537,14.538884 -0.15000736,13.623097 0.21162694,12.847269 0.27016528,12.721683 0.4469424,12.514753 0.90181203,12.039356 1.2381319,11.687859 1.5927167,11.34635 1.6897784,11.280447 c 0.506986,-0.344233 1.1484737,-0.334542 1.6717834,0.02526 0.1019223,0.07007 0.402956,0.346339 0.6689641,0.613916 l 0.4836506,0.486506 0.5632244,-0.55693 C 5.387174,11.542885 5.6898437,11.263031 5.75,11.227299 c 0.4524572,-0.268751 1.0872178,-0.25873 1.53125,0.02417 0.077344,0.04928 0.4304156,0.382116 0.7846043,0.739639 0.560745,0.566026 0.6575029,0.678313 0.7486072,0.868759 0.093008,0.194426 0.1060479,0.254398 0.1174159,0.540021 0.010685,0.268466 0.0016,0.355818 -0.05524,0.531166 -0.1379534,0.425566 -0.4806237,0.772023 -0.9007309,0.910683 -0.4181981,0.138029 -0.9647291,0.0653 -1.2962909,-0.172501 -0.081681,-0.05859 -0.1591944,-0.106514 -0.1722531,-0.106514 -0.01306,0 -0.2415419,0.219083 -0.5077403,0.486852 -0.5337098,0.536858 -0.7399291,0.696199 -1.0255131,0.792389 -0.255255,0.08598 -0.700866,0.08727 -0.9358735,0.0027 z m 0.6394178,-0.97137 c 0.048384,-0.01821 0.477769,-0.421672 0.9541875,-0.896582 l 0.8662156,-0.863472 0.3729703,0.365047 c 0.3808778,0.372788 0.4637048,0.428274 0.6393078,0.428274 0.3063269,0 0.5236109,-0.351238 0.3827073,-0.618642 -0.024452,-0.0464 -0.3021867,-0.339825 -0.6171875,-0.652045 -0.6174126,-0.611962 -0.6790485,-0.651117 -0.906711,-0.575994 -0.071177,0.02349 -0.3777447,0.308364 -0.977895,0.908706 L 4.5170337,13.843098 3.6413293,12.972763 c -0.9323596,-0.926641 -0.989254,-0.969517 -1.2293037,-0.926391 -0.097862,0.01758 -0.2030754,0.110694 -0.7007834,0.620185 -0.6588258,0.674423 -0.6954029,0.733905 -0.601873,0.978771 0.084851,0.222145 0.268445,0.32195 0.5102613,0.277388 0.094333,-0.01738 0.1814493,-0.09025 0.4897445,-0.409653 0.20625,-0.213679 0.389162,-0.388306 0.4064711,-0.38806 0.017309,2.5e-4 0.4040279,0.374478 0.8593751,0.831624 0.4553469,0.457148 0.8700913,0.857813 0.9216538,0.890369 0.1047547,0.06614 0.2485587,0.07608 0.3807781,0.02631 z m 4.2877666,-3.88422 C 8.5907456,10.856849 8.3618977,10.653648 8.0285,10.157172 7.7378078,9.7242913 7.3592465,9.355262 7.0484956,9.2018438 6.8249787,9.0914931 6.7764937,9.0792973 6.5641206,9.0800057 6.2542312,9.0810399 6.0637271,9.1777336 5.765625,9.4852972 5.3452581,9.919007 5.0342215,10.061696 4.5068265,10.062778 3.9995034,10.063819 3.6369034,9.9038056 3.3015872,9.5309122 2.9073135,9.0924546 2.7979887,8.3855851 3.0404597,7.8425191 3.2117281,7.4589268 3.6697487,6.9809707 4.2342162,6.5968041 4.7652259,6.2354083 5.2920137,6.0223012 5.9031353,5.9216577 6.3994259,5.8399256 7.1142924,5.870939 7.59375,5.9950025 c 0.5985084,0.1548691 1.0916006,0.3941522 1.6210296,0.7866377 0.1398763,0.1036954 0.267377,0.1885373 0.2833347,0.1885373 0.015958,0 0.1271694,-0.073817 0.2471369,-0.1640365 0.5194778,-0.3906674 1.0643418,-0.6567486 1.6609988,-0.8111385 0.3003,-0.077706 0.442078,-0.095775 0.86249,-0.1099307 0.966487,-0.03254 1.679202,0.167814 2.464961,0.6929367 0.40595,0.2712954 0.763818,0.5935568 0.983115,0.885297 C 15.991377,7.8285661 16,7.8596393 16,8.4837515 c 0,0.5936152 -0.0042,0.613039 -0.19248,0.896052 -0.157415,0.2365841 -0.367062,0.4146348 -0.650216,0.552223 -0.22186,0.1078045 -0.256143,0.1150615 -0.594804,0.1259185 -0.305116,0.0098 -0.390044,0.0013 -0.5625,-0.05599 C 13.723779,9.9101558 13.496475,9.7569704 13.224036,9.4790201 12.930085,9.1791208 12.731401,9.0801966 12.421875,9.0796235 12.232915,9.0792735 12.171207,9.0948305 11.96875,9.1938538 11.660764,9.3444933 11.253371,9.7422121 10.948805,10.189579 10.498095,10.85161 10.14405,11.063955 9.4931734,11.06262 9.2376631,11.062095 9.1296018,11.04704 8.9654197,10.989091 Z M 9.8051075,9.9803978 c 0.08901,-0.065957 0.1668171,-0.1652869 0.4292675,-0.5480124 0.169355,-0.2469659 0.724999,-0.816264 0.943169,-0.9663449 0.197424,-0.1358094 0.55829,-0.2993229 0.790612,-0.3582373 0.151244,-0.038354 0.289727,-0.047573 0.546875,-0.036406 0.562896,0.024443 0.929607,0.1949357 1.386553,0.6446406 0.146265,0.1439459 0.312167,0.2810335 0.368672,0.3046392 0.238472,0.099625 0.525404,0.017774 0.688871,-0.1965091 0.07729,-0.1013106 0.08775,-0.1417038 0.08775,-0.3387841 0,-0.2173077 -0.0041,-0.2290246 -0.140625,-0.4064006 C 14.828906,7.9785303 14.655831,7.8027453 14.52164,7.6883501 13.179594,6.5442896 11.412046,6.62439 10.035608,7.8916453 L 9.7744947,8.1320466 9.4819346,8.1213345 9.1893746,8.1106221 9.00875,7.9345323 C 8.558278,7.4953707 7.9178722,7.1266691 7.3596274,6.9850813 6.2350131,6.6998446 5.1269425,7.0205316 4.2762156,7.8774526 c -0.2885634,0.2906645 -0.34318,0.3880594 -0.34318,0.6119776 0,0.2969714 0.2135272,0.5391542 0.4995909,0.566637 0.2353622,0.022612 0.3647207,-0.036538 0.5800894,-0.2652476 0.3209447,-0.3408262 0.7027957,-0.5798762 1.0916178,-0.6833857 0.2143669,-0.057067 0.7119647,-0.055222 0.9437881,0.0035 0.6294056,0.1594291 1.274011,0.6739 1.7878047,1.4268784 0.3264404,0.4784067 0.3990797,0.5316297 0.703556,0.5154977 0.1202893,-0.0064 0.2085099,-0.03058 0.265625,-0.072912 z M 6.9601205,5.1444169 C 6.699455,5.0524371 6.4682178,4.9070052 6.3351534,4.7513562 6.2797252,4.6865202 6.1456781,4.4841864 6.0372706,4.3017252 5.8809481,4.0386179 5.8047449,3.9438148 5.6689688,3.843527 5.4940253,3.7143094 5.353786,3.5464763 5.2465065,3.3379415 5.2133544,3.2734989 5.1711639,3.2207726 5.15275,3.2207726 5.134336,3.2207726 4.991599,3.354418 4.8355568,3.5177621 4.5144078,3.8539388 4.3440734,3.9747462 4.0398794,4.0820854 3.7378474,4.1886616 3.2916794,4.1880476 2.9872245,4.0806356 2.2827363,3.8320954 1.8740552,3.2550125 1.8756591,2.5110385 1.8768754,1.9468792 2.0587166,1.6047557 2.6811624,0.99553119 3.0957146,0.58978456 3.5391328,0.27802306 3.9452378,0.10677684 L 4.1981819,1.1545515e-4 5.2006534,0.00913549 6.2031249,0.01815554 6.4713493,0.14647762 C 6.7660803,0.2874808 7.1308518,0.523415 7.3579275,0.71991642 L 7.5043694,0.84664087 7.6818721,0.69465847 C 7.9342709,0.47854818 8.2164031,0.29583717 8.5275365,0.14699962 L 8.7968749,0.01815554 9.794634,0.00907776 10.792393,0 11.042866,0.10094998 c 0.395801,0.15952218 0.859557,0.48452436 1.280664,0.89749468 0.413045,0.40506494 0.64156,0.71466134 0.737358,0.99898524 0.09421,0.2796093 0.0896,0.7881006 -0.0097,1.0693042 -0.236409,0.6695317 -0.833112,1.0919713 -1.541092,1.091019 C 10.953835,4.1570063 10.672138,4.0267676 10.211754,3.5574789 9.9939873,3.3355007 9.8577024,3.2195213 9.8225747,3.2262852 9.7928429,3.2320131 9.7397408,3.2928683 9.7045706,3.361525 9.6694005,3.4301816 9.5338587,3.595402 9.4033663,3.7286812 9.268404,3.8665258 9.0829799,4.1045424 8.9733075,4.2807193 8.8672672,4.4510609 8.7121912,4.6513405 8.6286943,4.7257846 8.1264206,5.1736008 7.4931162,5.3324921 6.9601205,5.1444169 Z M 7.7078103,4.1274122 C 7.9326787,4.015062 7.9693922,3.9757298 8.2041081,3.5957131 8.3087152,3.4263488 8.4764994,3.2116731 8.5948312,3.0957925 8.708895,2.9840914 8.8200793,2.84754 8.8419075,2.7923448 8.9236303,2.5856996 9.3516256,2.2571133 9.6537928,2.169033 10.003345,2.0671404 10.345101,2.2367607 10.859375,2.7673876 11.118043,3.0342807 11.195996,3.096263 11.311901,3.1271999 11.715883,3.2350298 12.089134,2.976756 12.118635,2.568975 12.137288,2.3111296 12.077036,2.2034516 11.693042,1.8084134 11.05514,1.152161 10.507852,0.87739427 9.8386112,0.87739427 c -0.5437119,0 -1.0185184,0.19350093 -1.5313653,0.62408733 -0.2492722,0.209289 -0.675,0.6621212 -0.7082875,0.7533815 -0.00573,0.015707 -0.042579,0.028559 -0.081888,0.028559 -0.051117,0 -0.1393825,-0.078759 -0.3099343,-0.276553 C 6.826294,1.5651937 6.4638396,1.2730231 6.0603996,1.0824958 5.7014846,0.91299562 5.4837625,0.86886703 5.0804994,0.88388661 4.6694259,0.89919709 4.4117359,0.97884368 4.0198368,1.211715 3.6994809,1.4020744 3.0344246,2.0428027 2.9398698,2.2521762 2.7919832,2.5796435 2.9121364,2.9215503 3.2309188,3.080381 3.5582528,3.2434725 3.7495482,3.1760563 4.15625,2.754276 4.6545087,2.2375444 4.9993743,2.0679331 5.3462072,2.169033 c 0.09318,0.027162 0.2361447,0.091777 0.3177,0.1435899 0.1932134,0.1227506 0.4298428,0.3417572 0.4298428,0.3978306 0,0.1109189 0.1308072,0.2898165 0.2782209,0.3805065 0.1611266,0.099126 0.319365,0.3069529 0.5946903,0.7810512 0.1078366,0.1856902 0.1579725,0.24066 0.2629759,0.2883306 0.1783394,0.080965 0.2617054,0.075224 0.4781732,-0.03293 z"
       id="path819"
       inkscape:connector-curvature="0" />
  </g>
</svg>
