<?xml version="1.0" encoding="UTF-8" standalone="no"?>
<!-- Created with Inkscape (http://www.inkscape.org/) -->

<svg
   version="1.1"
   id="svg2"
   width="1600"
   height="1600"
   viewBox="0 0 1600 1600"
   sodipodi:docname="border_rect.svg"
   inkscape:version="1.2.2 (732a01da63, 2022-12-09)"
   xmlns:inkscape="http://www.inkscape.org/namespaces/inkscape"
   xmlns:sodipodi="http://sodipodi.sourceforge.net/DTD/sodipodi-0.dtd"
   xmlns="http://www.w3.org/2000/svg"
   xmlns:svg="http://www.w3.org/2000/svg"
   xmlns:rdf="http://www.w3.org/1999/02/22-rdf-syntax-ns#"
   xmlns:cc="http://creativecommons.org/ns#"
   xmlns:dc="http://purl.org/dc/elements/1.1/">
  <metadata
     id="metadata8">
    <rdf:RDF>
      <cc:Work
         rdf:about="">
        <dc:format>image/svg+xml</dc:format>
        <dc:type
           rdf:resource="http://purl.org/dc/dcmitype/StillImage" />
      </cc:Work>
    </rdf:RDF>
  </metadata>
  <defs
     id="defs6" />
  <sodipodi:namedview
     pagecolor="#808080"
     bordercolor="#666666"
     borderopacity="1"
     objecttolerance="10"
     gridtolerance="10"
     guidetolerance="10"
     inkscape:pageopacity="0"
     inkscape:pageshadow="2"
     inkscape:window-width="2560"
     inkscape:window-height="1009"
     id="namedview4"
     showgrid="false"
     inkscape:zoom="0.25"
     inkscape:cx="332"
     inkscape:cy="948"
     inkscape:window-x="-8"
     inkscape:window-y="-8"
     inkscape:window-maximized="1"
     inkscape:current-layer="svg2"
     inkscape:showpageshadow="0"
     inkscape:pagecheckerboard="true"
     inkscape:deskcolor="#d1d1d1" />
  <g
     id="BORDER_RECT"
     transform="scale(100)"
     style="stroke-width:0.01">
    <path
       style="fill:none;stroke-width:0.0003125"
       d="M 0,13 V 10 H 3.265625 6.53125 v 2.174866 c 0,2.398796 -0.00948,2.281929 0.1949069,2.402663 0.108269,0.06396 0.3026175,0.06906 0.3965678,0.01041 0.036174,-0.02258 0.4466537,-0.438325 0.9121762,-0.923871 0.4655225,-0.485547 0.8555325,-0.88262 0.8666894,-0.882384 0.011157,2.5e-4 0.3226285,0.654787 0.6921597,1.454556 0.3695313,0.79977 0.701529,1.482193 0.737773,1.516496 0.10488,0.09926 0.271096,0.132459 0.397917,0.07947 0.0591,-0.0247 0.488503,-0.271595 0.954216,-0.548664 0.639025,-0.380179 0.858355,-0.5262 0.894048,-0.595223 0.107989,-0.208827 0.08817,-0.263129 -0.593329,-1.625814 -0.352344,-0.704524 -0.640625,-1.295082 -0.640625,-1.312351 0,-0.02044 0.388108,-0.0314 1.112366,-0.0314 1.218871,0 1.22559,-9.5e-4 1.336523,-0.188745 0.0592,-0.100211 0.06718,-0.315932 0.01536,-0.414872 -0.03202,-0.06113 -0.267008,-0.324441 -0.819393,-0.918151 L 12.805334,10 H 14.402667 16 v 3 3 h -1 c -0.888257,0 -1,-0.0055 -1,-0.04911 0,-0.04464 -0.0045,-0.04464 -0.04911,0 C 13.906544,15.995241 13.22822,16 6.9508928,16 H 0 Z M 1,5 V 1 h 7 7 V 5 9 H 13.439214 11.878428 L 9.5161797,6.4540322 C 6.9278191,3.6643666 7.0505822,3.7803356 6.7905972,3.8792869 6.7238725,3.9046822 6.6421919,3.9696159 6.6020594,4.0291687 L 6.53125,4.1342428 V 6.5671212 9 H 3.765625 1 Z m 12.990852,2.9300519 c -0.0075,-0.038872 -0.01387,-0.014427 -0.01422,0.054323 -3.47e-4,0.06875 0.0058,0.1005547 0.01359,0.070677 0.0078,-0.029878 0.0081,-0.086128 6.32e-4,-0.125 z"
       id="path827"
       inkscape:connector-curvature="0" />
    <path
       style="fill:#fefefe;stroke-width:0.0003125"
       d="M 10.755798,14.79119 C 10.739338,14.75994 10.420852,14.073438 10.048053,13.265625 9.2916241,11.626527 9.2910759,11.625655 9.0168053,11.624118 L 8.859375,11.623235 8.1024184,12.397555 7.3454622,13.171875 7.3446059,9.2507103 7.34375,5.3295453 7.417331,5.4069603 c 0.040469,0.042578 0.9650788,1.0399525 2.0546875,2.2163875 1.0896085,1.176435 2.2101575,2.3858102 2.4901085,2.6875002 l 0.509001,0.548527 -0.962126,0.01563 c -0.645338,0.01048 -0.982706,0.02754 -1.024627,0.05182 -0.128527,0.07443 -0.210353,0.19419 -0.225698,0.330338 -0.01438,0.127556 0.02973,0.226164 0.706744,1.579937 0.397143,0.79414 0.722079,1.449173 0.722079,1.455628 0,0.0065 -0.172266,0.114363 -0.382812,0.239795 -0.210547,0.125433 -0.413446,0.247731 -0.450887,0.271774 -0.06032,0.03874 -0.07148,0.03725 -0.098,-0.0131 z"
       id="path825"
       inkscape:connector-curvature="0" />
    <path
       style="fill:#fd9731;stroke-width:0.0003125"
       d="M 0,9 V 8 H 0.5 1 v 1 1 H 0.5 0 Z M 3,9.5 V 9 H 4 5 V 9.5 10 H 4 3 Z m 9.351563,0.015807 C 12.106641,9.2508194 11.90625,9.0263588 11.90625,9.0170056 11.90625,9.0076525 12.152344,9 12.453125,9 H 13 V 9.5 10 L 12.898438,9.9988 C 12.808045,9.9977312 12.7479,9.9446134 12.351563,9.5158056 Z M 15,9 V 8 h 0.5 0.5 v 1 1 H 15.5 15 Z M 0,5 V 4 H 0.5 1 V 5 6 H 0.5 0 Z M 15,5 V 4 H 15.5 16 V 5 6 H 15.5 15 Z M 0,1 V 0 H 0.5 1 V 1 2 H 0.5 0 Z M 15,1 V 0 H 15.5 16 V 1 2 H 15.5 15 Z M 3,0.5 V 0 H 4 5 V 0.5 1 H 4 3 Z m 4,0 V 0 H 8 9 V 0.5 1 H 8 7 Z m 4,0 V 0 h 1 1 V 0.5 1 h -1 -1 z"
       id="path823"
       inkscape:connector-curvature="0" />
    <path
       style="fill:#643100;stroke-width:0.0003125"
       d="M 1,9.5 V 9 H 2 3 V 9.5 10 H 2 1 Z m 4,0 V 9 H 5.765625 6.53125 V 9.5 10 H 5.765625 5 Z m 8,0 V 9 h 1 1 V 9.5 10 H 14 13 Z M 0,7 V 6 H 0.5 1 V 7 8 H 0.5 0 Z M 15,7 V 6 H 15.5 16 V 7 8 H 15.5 15 Z M 0,3 V 2 H 0.5 1 V 3 4 H 0.5 0 Z M 15,3 V 2 H 15.5 16 V 3 4 H 15.5 15 Z M 1,0.5 V 0 H 2 3 V 0.5 1 H 2 1 Z m 4,0 V 0 H 6 7 V 0.5 1 H 6 5 Z m 4,0 V 0 h 1 1 V 0.5 1 H 10 9 Z m 4,0 V 0 h 1 1 V 0.5 1 h -1 -1 z"
       id="path821"
       inkscape:connector-curvature="0" />
    <path
       style="fill:#000000;stroke-width:0.0003125"
       d="m 10.482653,15.840843 c -0.05251,-0.01483 -0.1247,-0.05892 -0.160423,-0.09797 -0.03572,-0.03905 -0.3654175,-0.721322 -0.7326534,-1.516164 -0.367236,-0.794842 -0.6771954,-1.445233 -0.6887991,-1.445313 -0.011603,-9.3e-5 -0.4042319,0.39947 -0.8725078,0.887888 -0.4682756,0.488418 -0.8848341,0.903262 -0.9256853,0.921875 -0.040852,0.01861 -0.1315178,0.03384 -0.2014813,0.03384 -0.1060978,0 -0.1473381,-0.02013 -0.2485297,-0.121323 L 6.53125,14.382353 V 9.2582978 4.1342428 L 6.602059,4.0291687 c 0.040133,-0.059553 0.1218131,-0.1244865 0.1885378,-0.1498818 0.2619319,-0.099692 0.05014,-0.3071466 3.6680912,3.5929734 1.818815,1.9606669 3.324017,3.5951717 3.344892,3.6322317 0.02088,0.03706 0.03845,0.135834 0.03906,0.219497 9.87e-4,0.13571 -0.01198,0.165198 -0.120216,0.273438 L 13.6011,11.71875 h -1.128676 c -0.735184,0 -1.128677,0.01095 -1.128677,0.0314 0,0.01727 0.288281,0.607827 0.640625,1.312351 0.680818,1.361321 0.701233,1.417152 0.593991,1.624533 -0.03482,0.06733 -0.258509,0.216214 -0.882812,0.587578 -0.459899,0.273569 -0.864304,0.511594 -0.898679,0.528946 -0.10437,0.05268 -0.213779,0.06567 -0.314222,0.03729 z m 0.822035,-1.308327 c 0.210546,-0.125432 0.382812,-0.23334 0.382812,-0.239795 0,-0.0065 -0.323438,-0.658492 -0.71875,-1.448971 -0.496909,-0.993634 -0.718714,-1.468622 -0.718633,-1.538929 1.56e-4,-0.123821 0.09189,-0.281739 0.207869,-0.357811 0.07673,-0.05032 0.18973,-0.05807 1.051084,-0.07201 L 12.474184,10.859375 11.560043,9.875 C 11.057265,9.3335938 9.9430756,8.13125 9.0840669,7.203125 8.2250581,6.275 7.4820741,5.4737078 7.4329912,5.4224759 l -0.089241,-0.093149 9.75e-4,3.921274 9.75e-4,3.9212741 0.7568378,-0.774228 0.7568381,-0.774227 0.140625,9.06e-4 c 0.2082691,0.0013 0.3198547,0.08467 0.4324185,0.322913 0.052593,0.111313 0.3649728,0.783956 0.6941774,1.494762 0.329204,0.710805 0.612183,1.31794 0.628842,1.349188 0.02684,0.05034 0.03804,0.05183 0.09836,0.0131 0.03744,-0.02404 0.24034,-0.146341 0.450886,-0.271773 z"
       id="path819"
       inkscape:connector-curvature="0"
       sodipodi:nodetypes="csscscsscccssscsccssssscccsssccccsssccccccssssss" />
  </g>
</svg>
