<?xml version="1.0" encoding="UTF-8" standalone="no"?>
<!-- Created with Inkscape (http://www.inkscape.org/) -->

<svg
   version="1.1"
   id="svg1027"
   width="1600"
   height="1600"
   viewBox="0 0 1600 1600"
   sodipodi:docname="box_add.svg"
   inkscape:version="1.2.2 (732a01da63, 2022-12-09)"
   xmlns:inkscape="http://www.inkscape.org/namespaces/inkscape"
   xmlns:sodipodi="http://sodipodi.sourceforge.net/DTD/sodipodi-0.dtd"
   xmlns="http://www.w3.org/2000/svg"
   xmlns:svg="http://www.w3.org/2000/svg">
  <defs
     id="defs1031" />
  <sodipodi:namedview
     id="namedview1029"
     pagecolor="#808080"
     bordercolor="#000000"
     borderopacity="0.25"
     inkscape:showpageshadow="2"
     inkscape:pageopacity="0"
     inkscape:pagecheckerboard="true"
     inkscape:deskcolor="#d1d1d1"
     showgrid="false"
     inkscape:zoom="0.5"
     inkscape:cx="904"
     inkscape:cy="822"
     inkscape:window-width="2560"
     inkscape:window-height="1009"
     inkscape:window-x="-8"
     inkscape:window-y="-8"
     inkscape:window-maximized="1"
     inkscape:current-layer="g1033" />
  <g
     inkscape:groupmode="layer"
     inkscape:label="Image"
     id="g1033"
     transform="matrix(1.1428571,0,0,1.1428571,-114.28571,3506.2618)"
     style="stroke-width:0.875">
    <g
       id="BOX_ADD"
       transform="matrix(87.443031,0,0,87.443031,100,-3067.9792)"
       style="stroke-width:0.0100065">
      <path
         style="fill:none;stroke-width:0.000312908"
         d="M 8.005212,15.009773 H 1.0006515 V 8.005212 1.0006515 h 7.0045605 7.004561 v 7.0045605 7.004561 z m 0.03684,-1.509437 1.146938,-0.0072 0.086309,-0.06447 0.086309,-0.06447 0.064473,-0.08633 0.064473,-0.08633 0.00854,-1.841954 0.00854,-1.8419538 1.841954,-0.00854 1.841954,-0.00854 0.08633,-0.064473 0.08633,-0.064473 0.06447,-0.086354 0.06447,-0.086354 V 8.005212 6.8215245 l -0.06447,-0.086354 -0.06447,-0.086354 -0.08633,-0.064473 -0.08633,-0.064473 -1.841954,-0.00854 L 9.507634,6.5027905 9.499094,4.6608366 9.490554,2.8188827 9.426081,2.7325497 9.361608,2.6462167 9.275254,2.5817437 9.1889,2.5172707 H 8.005212 6.8215245 l -0.086354,0.064473 -0.086354,0.064473 -0.064473,0.086333 -0.064473,0.086333 -0.00854,1.8419539 -0.00854,1.8419539 -1.8419539,0.00854 -1.8419539,0.00854 -0.086333,0.064473 -0.086333,0.064473 -0.064473,0.086354 -0.064473,0.086354 V 8.005212 9.1888995 l 0.064473,0.086354 0.064473,0.086354 0.086333,0.064473 0.086333,0.064473 1.8426793,0.00854 1.8426794,0.00854 V 11.302917 13.0982 l 0.033353,0.08803 0.033353,0.08803 0.068275,0.07435 0.068275,0.07434 0.093811,0.04228 0.093811,0.04228 z"
         id="path1527" />
      <path
         style="fill:#fefefe;stroke-width:0.000312908"
         d="M 8.005212,13.00847 H 7.0045605 V 11.007167 9.0058635 H 5.0032575 3.0019545 V 8.005212 7.0045605 h 2.001303 2.001303 V 5.0032575 3.0019545 H 8.005212 9.0058635 v 2.001303 2.001303 H 11.007167 13.00847 V 8.005212 9.0058635 H 11.007167 9.0058635 v 2.0013035 2.001303 z"
         id="path1525" />
      <path
         style="fill:#fe9729;stroke-width:0.000312908"
         d="M 2.001303,16.010424 H 1.0006515 V 15.510098 15.009773 H 2.001303 3.0019545 v 0.500325 0.500326 z m 4.002606,0 H 5.0032575 V 15.510098 15.009773 H 6.003909 7.0045605 v 0.500325 0.500326 z m 4.002606,0 H 9.0058635 v -0.500326 -0.500325 h 1.0006515 1.000652 v 0.500325 0.500326 z m 4.002606,0 H 13.00847 v -0.500326 -0.500325 h 1.000651 1.000652 v 0.500325 0.500326 z M 0.50032575,14.009121 H 0 V 13.00847 12.007818 H 0.50032575 1.0006515 v 1.000652 1.000651 z m 15.00977225,0 H 15.009773 V 13.00847 12.007818 h 0.500325 0.500326 v 1.000652 1.000651 z M 0.50032575,10.006515 H 0 V 9.0058635 8.005212 H 0.50032575 1.0006515 v 1.0006515 1.0006515 z m 15.00977225,0 H 15.009773 V 9.0058635 8.005212 h 0.500325 0.500326 V 9.0058635 10.006515 Z M 0.50032575,6.003909 H 0 V 5.0032575 4.002606 H 0.50032575 1.0006515 V 5.0032575 6.003909 Z m 15.00977225,0 H 15.009773 V 5.0032575 4.002606 h 0.500325 0.500326 V 5.0032575 6.003909 Z M 0.50032575,2.001303 H 0 V 1.0006515 0 H 0.50032575 1.0006515 V 1.0006515 2.001303 Z m 15.00977225,0 H 15.009773 V 1.0006515 0 h 0.500325 0.500326 V 1.0006515 2.001303 Z M 4.002606,1.0006515 H 3.0019545 V 0.50032575 0 H 4.002606 5.0032575 V 0.50032575 1.0006515 Z m 4.002606,0 H 7.0045605 V 0.50032575 0 H 8.005212 9.0058635 V 0.50032575 1.0006515 Z m 4.002606,0 H 11.007167 V 0.50032575 0 h 1.000651 1.000652 V 0.50032575 1.0006515 Z"
         id="path1523" />
      <path
         style="fill:#653200;stroke-width:0.000312908"
         d="M 0.50032575,16.010424 H 0 V 15.009773 14.009121 H 0.50032575 1.0006515 v 1.000652 1.000651 z m 3.50228025,0 H 3.0019545 V 15.510098 15.009773 H 4.002606 5.0032575 v 0.500325 0.500326 z m 4.002606,0 H 7.0045605 V 15.510098 15.009773 H 8.005212 9.0058635 v 0.500325 0.500326 z m 4.002606,0 h -1.000651 v -0.500326 -0.500325 h 1.000651 1.000652 v 0.500325 0.500326 z m 3.50228,0 h -0.500325 v -1.000651 -1.000652 h 0.500325 0.500326 v 1.000652 1.000651 z M 0.50032575,12.007818 H 0 V 11.007167 10.006515 H 0.50032575 1.0006515 v 1.000652 1.000651 z m 15.00977225,0 h -0.500325 v -1.000651 -1.000652 h 0.500325 0.500326 v 1.000652 1.000651 z M 0.50032575,8.005212 H 0 V 7.0045605 6.003909 H 0.50032575 1.0006515 V 7.0045605 8.005212 Z m 15.00977225,0 H 15.009773 V 7.0045605 6.003909 h 0.500325 0.500326 V 7.0045605 8.005212 Z M 0.50032575,4.002606 H 0 V 3.0019545 2.001303 H 0.50032575 1.0006515 V 3.0019545 4.002606 Z m 15.00977225,0 H 15.009773 V 3.0019545 2.001303 h 0.500325 0.500326 V 3.0019545 4.002606 Z M 2.001303,1.0006515 H 1.0006515 V 0.50032575 0 H 2.001303 3.0019545 V 0.50032575 1.0006515 Z m 4.002606,0 H 5.0032575 V 0.50032575 0 H 6.003909 7.0045605 V 0.50032575 1.0006515 Z m 4.002606,0 H 9.0058635 V 0.50032575 0 h 1.0006515 1.000652 V 0.50032575 1.0006515 Z m 4.002606,0 H 13.00847 V 0.50032575 0 h 1.000651 1.000652 V 0.50032575 1.0006515 Z"
         id="path1521" />
      <path
         style="fill:#323232;stroke-width:0.000312908"
         d="m 8.0420522,13.500336 -1.146938,0.0072 -0.093811,-0.04228 -0.093811,-0.04228 -0.068275,-0.07434 -0.068275,-0.07435 -0.033353,-0.08803 -0.033353,-0.08803 v -1.7953 -1.7952839 L 4.6615553,9.4990981 2.818876,9.4905541 2.7325428,9.4260812 2.6462097,9.3616082 2.5817368,9.2752539 2.5172639,9.1888995 V 8.005212 6.8215245 l 0.064473,-0.086354 0.064473,-0.086354 0.086333,-0.064473 0.086333,-0.064473 1.8419539,-0.00854 1.8419539,-0.00854 0.00854,-1.8419539 0.00854,-1.8419539 0.064473,-0.086333 0.064473,-0.086333 0.086354,-0.064473 0.086354,-0.064473 H 8.005212 9.1888995 l 0.086354,0.064473 0.086354,0.064473 0.064473,0.086333 0.064473,0.086333 0.00854,1.8419539 0.00854,1.8419539 1.8419535,0.00854 1.841954,0.00854 0.08633,0.064473 0.08633,0.064473 0.06447,0.086354 0.06447,0.086354 V 8.005212 9.1888995 l -0.06447,0.086354 -0.06447,0.086354 -0.08633,0.064473 -0.08633,0.064473 -1.841954,0.00854 -1.8419535,0.00854 -0.00854,1.8419535 -0.00854,1.841954 -0.064473,0.08633 -0.064473,0.08633 -0.086309,0.06447 -0.086309,0.06447 z M 8.005212,13.00847 H 9.0058635 V 11.007167 9.0058635 H 11.007167 13.00847 V 8.005212 7.0045605 H 11.007167 9.0058635 V 5.0032575 3.0019545 H 8.005212 7.0045605 v 2.001303 2.001303 H 5.0032575 3.0019545 V 8.005212 9.0058635 h 2.001303 2.001303 v 2.0013035 2.001303 z"
         id="path1519" />
    </g>
  </g>
</svg>
