<?xml version="1.0" encoding="UTF-8" standalone="no"?>
<!-- Created with Inkscape (http://www.inkscape.org/) -->

<svg
   version="1.1"
   id="svg2"
   width="1600"
   height="1600"
   viewBox="0 0 1600 1600"
   sodipodi:docname="box_show.svg"
   inkscape:version="1.2.2 (732a01da63, 2022-12-09)"
   xmlns:inkscape="http://www.inkscape.org/namespaces/inkscape"
   xmlns:sodipodi="http://sodipodi.sourceforge.net/DTD/sodipodi-0.dtd"
   xmlns="http://www.w3.org/2000/svg"
   xmlns:svg="http://www.w3.org/2000/svg">
  <defs
     id="defs6" />
  <sodipodi:namedview
     id="namedview4"
     pagecolor="#808080"
     bordercolor="#000000"
     borderopacity="0.25"
     inkscape:showpageshadow="2"
     inkscape:pageopacity="0"
     inkscape:pagecheckerboard="true"
     inkscape:deskcolor="#d1d1d1"
     showgrid="false"
     inkscape:zoom="0.5"
     inkscape:cx="544"
     inkscape:cy="656"
     inkscape:window-width="2560"
     inkscape:window-height="1009"
     inkscape:window-x="-8"
     inkscape:window-y="-8"
     inkscape:window-maximized="1"
     inkscape:current-layer="g8" />
  <g
     inkscape:groupmode="layer"
     inkscape:label="Image"
     id="g8"
     transform="matrix(1.1428571,0,0,1.1428571,-114.28568,3506.2618)"
     style="stroke-width:0.875">
    <g
       id="BOX_SHOW"
       transform="matrix(87.443031,0,0,87.443031,100,-3067.9792)"
       style="stroke-width:0.0100065">
      <path
         style="fill:none;stroke-width:0.000312908"
         d="M 8.005212,15.009773 H 1.0006515 l 2.47e-5,-3.385017 2.46e-5,-3.3850163 0.088962,0.1876222 0.088962,0.1876221 0.2932512,0.278739 0.2932512,0.2787387 0.2723769,0.2266994 0.2723768,0.2266995 0.3069491,0.230759 0.3069492,0.2307594 0.2501629,0.173609 0.2501629,0.17361 0.4033263,0.24299 0.4033267,0.242989 0.496487,0.243699 0.496487,0.243699 0.3850857,0.141815 0.3850857,0.141816 0.3567948,0.09471 0.3567945,0.09471 0.2970684,0.05459 0.2970684,0.05459 H 8.005212 8.7087951 l 0.2970684,-0.05459 0.2970684,-0.05459 0.3567945,-0.09471 0.3567946,-0.09471 0.385086,-0.141816 0.385086,-0.141815 0.496487,-0.243699 0.496487,-0.243699 0.403326,-0.242989 0.403327,-0.24299 0.250163,-0.173391 0.250162,-0.173392 0.365259,-0.2764449 0.365258,-0.2764456 0.506074,-0.4412785 0.506073,-0.4412786 0.09021,-0.1906785 0.09021,-0.1906788 2.5e-5,3.3693809 2.5e-5,3.369382 z M 15.001955,7.7545153 14.994137,7.7539806 14.919917,7.5825331 14.845698,7.4110855 14.548981,7.127423 14.252265,6.8437602 13.976404,6.6141613 13.700544,6.3845621 13.393595,6.1538032 13.086645,5.9230442 12.836483,5.7494343 12.58632,5.5758243 12.182993,5.3328352 11.779667,5.0898461 11.28318,4.8461468 10.786693,4.6024478 10.401607,4.4606323 10.016521,4.3188172 9.6597264,4.224108 9.3029319,4.1293992 9.0058635,4.0748105 8.7087951,4.0202215 H 8.005212 7.3016289 L 7.0045605,4.0748105 6.7074921,4.1293992 6.3506976,4.224108 5.9939028,4.3188172 5.6088171,4.4606323 5.2237314,4.6024478 4.7272444,4.8461468 4.2307574,5.0898461 3.8274307,5.3328352 3.4241044,5.5758243 3.1739415,5.7492157 2.9237786,5.9226073 2.5585202,6.1990526 2.1932617,6.4754982 1.6871883,6.9167768 1.1811148,7.3580553 l -0.090207,0.1906786 -0.090207,0.19068 -2.46e-5,-3.3693812 -2.47e-5,-3.3693812 h 7.0045605 7.004561 v 3.3771988 3.3771988 l -0.0078,-5.347e-4 z"
         id="path307" />
      <path
         style="fill:#fefefe;stroke-width:0.000312908"
         d="M 7.9517212,11.003109 7.7081436,10.999053 7.4736159,10.97251 7.2390882,10.945967 6.9263846,10.880097 6.613681,10.814227 6.1915312,10.67525 5.7693813,10.536274 5.1439741,10.225857 4.5185669,9.9154404 4.182662,9.7029971 3.846757,9.4905541 3.5699756,9.2947888 3.2931941,9.0990238 2.8895938,8.7737127 2.4859936,8.4484012 2.2428213,8.218989 1.999649,7.9895768 2.4460786,7.6067892 2.8925082,7.2240018 3.2052118,6.9854102 3.5179154,6.7468189 3.830619,6.5369254 4.1433226,6.3270319 4.4197976,6.1643481 4.6962723,6.0016647 4.9781017,5.8601213 5.2599312,5.7185782 5.2431162,5.7596152 5.2263012,5.8006522 5.1232675,6.0977206 5.0202339,6.394789 l 2.189e-4,0.6410424 2.189e-4,0.6410423 0.088357,0.2657981 0.088357,0.265798 0.1433142,0.2814333 0.1433143,0.2814332 0.392857,0.392857 0.392857,0.3928571 0.2814333,0.1433142 0.2814332,0.1433143 0.2657981,0.088357 0.265798,0.088357 H 8.0052336 8.6462759 L 8.912074,9.9320353 9.1778721,9.8436784 9.4593053,9.7003641 9.7407385,9.5570499 10.133596,9.1641928 l 0.392857,-0.392857 0.143314,-0.2814332 0.143314,-0.2814333 0.08836,-0.265798 0.08836,-0.2657981 2.19e-4,-0.6410423 2.19e-4,-0.6410424 -0.103034,-0.2970684 -0.103034,-0.2970684 -0.01747,-0.042992 -0.01747,-0.042991 0.371638,0.192091 0.371639,0.1920907 0.3356,0.2105099 0.3356,0.2105098 0.276782,0.1957653 0.276781,0.195765 0.4036,0.3253111 0.403601,0.3253115 0.243172,0.2294122 0.243172,0.2294122 -0.446429,0.3827876 -0.44643,0.3827874 -0.312704,0.2385916 -0.312703,0.2385913 -0.312704,0.2099986 -0.312703,0.2099982 -0.306043,0.1795964 -0.306042,0.1795965 -0.506987,0.245827 -0.506987,0.245827 -0.42215,0.139746 -0.4221499,0.139747 -0.2970684,0.06325 -0.2970684,0.06325 -0.3036536,0.03336 -0.3036533,0.03336 -0.243578,-0.0041 z M 6.4999845,7.0358309 H 6.003909 L 6.0044531,6.9342022 6.0049972,6.8325735 6.0507964,6.613681 6.0965959,6.3947885 6.2271043,6.1300489 6.357613,5.8653094 6.5961527,5.6267694 6.8346927,5.3882297 7.0994323,5.257721 7.3641718,5.1272126 7.5830643,5.0814131 7.8019569,5.0356139 7.9035855,5.0350698 8.005212,5.0345279 V 5.5306033 6.0266785 L 7.8658109,6.0457856 7.7264095,6.0648928 7.5765601,6.1352833 7.4267104,6.2056741 7.3008828,6.3315017 7.1750553,6.4573292 7.1046644,6.607179 7.0342739,6.7570284 7.0151668,6.8964298 6.9960597,7.0358309 Z"
         id="path305" />
      <path
         style="fill:#75b6fe;stroke-width:0.000312908"
         d="M 8.0833879,9.5241641 7.6456029,9.5343592 7.5072375,9.5053365 7.3688718,9.4763139 7.2101691,9.4248253 7.051466,9.3733371 6.8013032,9.2457575 6.5511403,9.1181776 6.2370026,8.8040402 5.9228653,8.4899026 5.7943094,8.2397397 5.6657535,7.9895768 5.5924858,7.7550491 5.5192184,7.5205214 V 7.0358309 6.5511403 L 5.5924858,6.3166126 5.6657535,6.0820849 5.7907033,5.8410983 5.9156534,5.6001117 6.0457747,5.462636 6.175896,5.3251605 6.5355051,5.2274066 6.8951142,5.1296523 7.1921827,5.0761034 7.4892511,5.0225544 H 8.005212 8.5211729 l 0.2970684,0.053549 0.2970685,0.053549 0.3596091,0.097754 0.3596091,0.097754 0.1301213,0.1374755 0.1301217,0.1374757 0.12495,0.2409866 0.124949,0.2409866 0.07327,0.2345277 0.07327,0.2345277 V 7.0358309 7.5205214 L 10.417938,7.7550491 10.34467,7.9895768 10.216115,8.2397397 10.087559,8.4899026 9.7734214,8.8040402 9.4592837,9.1181776 9.2091208,9.2465211 8.958958,9.3748647 8.7400654,9.4444172 8.5211729,9.5139693 Z M 8.0521175,8.0258332 8.2710101,8.014378 8.4273619,7.9401828 8.5837136,7.8659876 8.7095412,7.7401601 8.8353687,7.6143325 8.9120287,7.4579807 8.9886883,7.3016289 V 7.0358309 6.7700328 L 8.9120287,6.613681 8.8353687,6.4573292 8.7095412,6.3315017 8.5837136,6.2056741 8.4338639,6.1352833 8.2840145,6.0648928 8.1446131,6.0457856 8.005212,6.0266785 V 5.5306033 5.0345279 L 7.9035833,5.035072 7.8019547,5.0356161 7.5830621,5.0814153 7.3641696,5.1272148 7.0994301,5.2577232 6.8346905,5.3882319 6.5961505,5.6267716 6.3576108,5.8653116 6.2271021,6.1300511 6.0965937,6.3947907 6.0507942,6.6136832 6.004995,6.8325757 6.0044509,6.9342044 6.003909,7.0358309 h 0.5003257 0.5003258 v 0.077083 0.077083 l 0.050792,0.1496268 0.050792,0.1496271 0.090815,0.132009 0.090814,0.1320091 0.1321777,0.090941 0.1321776,0.090941 0.1405481,0.051069 0.140548,0.051069 z"
         id="path303" />
      <path
         style="fill:#fe9729;stroke-width:0.000312908"
         d="M 2.001303,16.010424 H 1.0006515 V 15.510098 15.009773 H 2.001303 3.0019545 v 0.500325 0.500326 z m 4.002606,0 H 5.0032575 V 15.510098 15.009773 H 6.003909 7.0045605 v 0.500325 0.500326 z m 4.002606,0 H 9.0058635 v -0.500326 -0.500325 h 1.0006515 1.000652 v 0.500325 0.500326 z m 4.002606,0 H 13.00847 v -0.500326 -0.500325 h 1.000651 1.000652 v 0.500325 0.500326 z M 0.50032575,14.009121 H 0 V 13.00847 12.007818 H 0.50032575 1.0006515 v 1.000652 1.000651 z m 15.00977225,0 H 15.009773 V 13.00847 12.007818 h 0.500325 0.500326 v 1.000652 1.000651 z M 0.50032575,10.006515 H 0 V 9.0058635 8.005212 H 0.50032575 1.0006515 v 1.0006515 1.0006515 z m 15.00977225,0 H 15.009773 V 9.0058635 8.005212 h 0.500325 0.500326 V 9.0058635 10.006515 Z M 0.50032575,6.003909 H 0 V 5.0032575 4.002606 H 0.50032575 1.0006515 V 5.0032575 6.003909 Z m 15.00977225,0 H 15.009773 V 5.0032575 4.002606 h 0.500325 0.500326 V 5.0032575 6.003909 Z M 0.50032575,2.001303 H 0 V 1.0006515 0 H 0.50032575 1.0006515 V 1.0006515 2.001303 Z m 15.00977225,0 H 15.009773 V 1.0006515 0 h 0.500325 0.500326 V 1.0006515 2.001303 Z M 4.002606,1.0006515 H 3.0019545 V 0.50032575 0 H 4.002606 5.0032575 V 0.50032575 1.0006515 Z m 4.002606,0 H 7.0045605 V 0.50032575 0 H 8.005212 9.0058635 V 0.50032575 1.0006515 Z m 4.002606,0 H 11.007167 V 0.50032575 0 h 1.000651 1.000652 V 0.50032575 1.0006515 Z"
         id="path301" />
      <path
         style="fill:#0000cb;stroke-width:0.000312908"
         d="M 8.0833879,10.025383 7.5205214,10.034252 7.3819528,10.005411 7.2433838,9.9765702 7.0379788,9.9094237 6.8325735,9.8422771 6.5511403,9.6996633 6.2697071,9.5570499 5.87685,9.1641928 5.483993,8.7713358 5.3406787,8.4899026 5.1973645,8.2084693 5.1092581,7.9426713 5.0211517,7.6768732 5.0200228,7.051466 5.0188939,6.4260589 5.0760049,6.2410453 5.1331158,6.0560317 5.1969055,5.8855388 5.2606951,5.7150459 5.4837685,5.6119841 5.7068418,5.5089224 5.9173752,5.4296823 6.1279082,5.350442 6.0005553,5.5115556 5.8732023,5.6726693 5.7694348,5.8787237 5.6656672,6.0847785 5.5924436,6.3179594 5.5192184,6.5511403 v 0.4846906 0.4846905 l 0.073267,0.2345277 0.073268,0.2345277 0.1285559,0.2501629 0.1285559,0.2501629 0.3141373,0.3141376 0.3141377,0.3141374 0.2501629,0.1285558 0.2501628,0.1285559 0.2345277,0.073268 0.2345277,0.073267 H 8.005212 8.4899026 L 8.7244303,9.448557 8.958958,9.3752893 9.2091208,9.2467334 9.4592837,9.1181776 9.7734214,8.8040402 10.087559,8.4899026 10.216115,8.2397397 10.34467,7.9895768 10.417938,7.7550491 10.491206,7.5205214 V 7.0358309 6.5511403 L 10.417982,6.3179594 10.344758,6.0847785 10.24099,5.8787237 10.137223,5.6726693 10.00987,5.5115556 9.8825171,5.350442 l 0.2105329,0.07924 0.210533,0.07924 0.223074,0.1030617 0.223073,0.1030618 0.06379,0.1704929 0.06379,0.1704929 0.05711,0.1850136 0.05711,0.1850136 -0.0011,0.6254071 -0.0011,0.6254072 -0.08811,0.2657981 -0.08811,0.265798 -0.143314,0.2814333 -0.143315,0.2814332 -0.392857,0.392857 L 9.7407672,9.5570495 9.459334,9.7003637 9.1779007,9.843678 l -0.265798,0.086418 -0.2657981,0.086418 -0.5628665,0.0089 z"
         id="path299" />
      <path
         style="fill:#653200;stroke-width:0.000312908"
         d="M 0.50032575,16.010424 H 0 V 15.009773 14.009121 H 0.50032575 1.0006515 v 1.000652 1.000651 z m 3.50228025,0 H 3.0019545 V 15.510098 15.009773 H 4.002606 5.0032575 v 0.500325 0.500326 z m 4.002606,0 H 7.0045605 V 15.510098 15.009773 H 8.005212 9.0058635 v 0.500325 0.500326 z m 4.002606,0 h -1.000651 v -0.500326 -0.500325 h 1.000651 1.000652 v 0.500325 0.500326 z m 3.50228,0 h -0.500325 v -1.000651 -1.000652 h 0.500325 0.500326 v 1.000652 1.000651 z M 0.50032575,12.007818 H 0 V 11.007167 10.006515 H 0.50032575 1.0006515 v 1.000652 1.000651 z m 15.00977225,0 h -0.500325 v -1.000651 -1.000652 h 0.500325 0.500326 v 1.000652 1.000651 z M 0.50032575,8.005212 H 0 V 7.0045605 6.003909 H 0.50032575 1.0006515 V 7.0045605 8.005212 Z m 15.00977225,0 H 15.009773 V 7.0045605 6.003909 h 0.500325 0.500326 V 7.0045605 8.005212 Z M 0.50032575,4.002606 H 0 V 3.0019545 2.001303 H 0.50032575 1.0006515 V 3.0019545 4.002606 Z m 15.00977225,0 H 15.009773 V 3.0019545 2.001303 h 0.500325 0.500326 V 3.0019545 4.002606 Z M 2.001303,1.0006515 H 1.0006515 V 0.50032575 0 H 2.001303 3.0019545 V 0.50032575 1.0006515 Z m 4.002606,0 H 5.0032575 V 0.50032575 0 H 6.003909 7.0045605 V 0.50032575 1.0006515 Z m 4.002606,0 H 9.0058635 V 0.50032575 0 h 1.0006515 1.000652 V 0.50032575 1.0006515 Z m 4.002606,0 H 13.00847 V 0.50032575 0 h 1.000651 1.000652 V 0.50032575 1.0006515 Z"
         id="path297" />
      <path
         style="fill:#000000;stroke-width:0.000312908"
         d="m 8.1302934,11.993066 -0.609772,0.01075 -0.2345277,-0.029 -0.2345277,-0.029 -0.2501628,-0.0505 L 6.5511403,11.844829 6.1864447,11.740208 5.8217492,11.635586 5.4515913,11.48941 5.0814334,11.343236 4.6436484,11.124283 4.2058633,10.90533 3.8149838,10.669964 3.4241044,10.434598 3.1739415,10.260988 2.9237786,10.087379 2.6168294,9.8566196 2.3098803,9.6258606 2.0375035,9.3991611 1.7651266,9.1724617 1.4718754,8.893723 1.1786242,8.614984 1.0896625,8.4273619 1.0007008,8.2397397 V 7.9895768 7.7394139 L 1.0909078,7.5487351 1.1811148,7.3580566 1.6871883,6.916778 2.1932617,6.4754995 2.5585202,6.1990539 2.9237786,5.9226086 3.1739415,5.7492169 3.4241044,5.5758256 3.8274307,5.3328365 4.2307574,5.0898473 4.7272444,4.846148 5.2237314,4.602449 5.6088171,4.4606336 5.9939028,4.3188184 6.3506976,4.2241093 6.7074921,4.1294004 7.0045605,4.0748118 7.3016289,4.0202228 H 8.005212 8.7087951 l 0.2970684,0.054589 0.2970684,0.054589 0.3567945,0.094709 0.3567946,0.094709 0.385086,0.1418152 0.385086,0.1418154 0.496487,0.243699 0.496487,0.2436993 0.403326,0.2429892 0.403327,0.2429891 0.250163,0.1736099 0.250162,0.1736099 0.30695,0.230759 0.306949,0.230759 0.272377,0.2266995 0.272376,0.2266994 0.293252,0.2787387 0.293251,0.278739 0.08896,0.1876221 0.08896,0.1876222 v 0.2501629 0.2501629 l -0.09021,0.1906788 -0.09021,0.1906785 -0.506073,0.4412786 -0.506074,0.4412785 -0.365258,0.2764456 -0.365259,0.2764445 -0.250162,0.173392 -0.250163,0.173391 -0.403327,0.24299 -0.403326,0.242989 -0.496487,0.243699 -0.496487,0.243699 -0.385086,0.141815 -0.385086,0.141816 -0.3567946,0.09462 -0.3567945,0.09462 -0.2814332,0.05074 -0.2814333,0.05074 z m -0.1785722,-0.989957 0.243578,0.0041 0.3036533,-0.03336 0.3036537,-0.03336 0.2970684,-0.06325 0.2970684,-0.06325 0.4221498,-0.139747 0.4221502,-0.139746 0.506987,-0.245827 0.506987,-0.245827 0.306042,-0.1795967 0.306042,-0.1795964 0.312704,-0.2099982 0.312704,-0.2099986 0.312703,-0.2385913 0.312704,-0.2385916 0.446429,-0.3827874 0.44643,-0.3827876 L 13.767603,7.791435 13.52443,7.5620228 13.12083,7.2367113 12.71723,6.9114002 12.440448,6.7156352 12.163667,6.5198699 11.827762,6.3074269 11.491857,6.0949836 10.86645,5.7850096 10.241043,5.4750353 9.8606769,5.3475645 9.4803112,5.2200934 9.1414587,5.143389 8.8026062,5.0666847 8.4039091,5.0292106 8.005212,4.9917366 7.6065149,5.0292106 7.2078178,5.0666847 6.8689653,5.143389 6.5301128,5.2200934 6.1497471,5.348477 5.7693813,5.4768605 5.2623943,5.722245 4.7554071,5.9676294 4.449365,6.1472257 4.1433226,6.3268221 3.830619,6.5368203 3.5179154,6.7468189 3.2052118,6.9854102 2.8925082,7.2240018 2.4460786,7.6067892 1.999649,7.9895768 2.2428213,8.218989 l 0.2431723,0.2294122 0.4036002,0.3253115 0.4036003,0.3253111 0.2767815,0.195765 0.2767814,0.1957653 0.335905,0.212443 0.3359049,0.2124433 0.6254072,0.3104166 0.6254072,0.310417 0.4221499,0.138976 0.4221498,0.138977 0.3127036,0.06587 0.3127036,0.06587 0.2345277,0.02654 0.2345277,0.02654 z M 8.0521175,8.0258332 7.833225,8.0372888 7.692677,7.9862196 7.5521289,7.9351504 7.4199513,7.8442097 7.2877736,7.7532692 7.1956449,7.6193645 7.1035159,7.4854599 7.0498913,7.3215122 6.9962667,7.1575645 7.0119982,6.9637986 7.0277296,6.7700328 7.1013926,6.613681 7.1750553,6.4573292 7.3008828,6.3315017 7.4267104,6.2056741 7.5830621,6.1290142 7.7394139,6.0523546 H 8.005212 8.2710101 l 0.1563518,0.07666 0.1563517,0.07666 0.1258276,0.1258276 0.1258275,0.1258275 0.07666,0.1563518 0.07666,0.1563518 v 0.2657981 0.265798 L 8.9120287,7.4579807 8.8353687,7.6143325 8.7095412,7.7401601 8.5837136,7.8659876 8.4273619,7.9401828 8.2710101,8.014378 Z"
         id="path295" />
    </g>
  </g>
</svg>
