<?xml version="1.0" encoding="UTF-8" standalone="no"?>
<!-- Created with Inkscape (http://www.inkscape.org/) -->

<svg
   version="1.1"
   id="svg2"
   width="1600"
   height="1600"
   viewBox="0 0 1600 1600"
   sodipodi:docname="box_hide.svg"
   inkscape:version="1.2.2 (732a01da63, 2022-12-09)"
   xmlns:inkscape="http://www.inkscape.org/namespaces/inkscape"
   xmlns:sodipodi="http://sodipodi.sourceforge.net/DTD/sodipodi-0.dtd"
   xmlns="http://www.w3.org/2000/svg"
   xmlns:svg="http://www.w3.org/2000/svg">
  <defs
     id="defs6" />
  <sodipodi:namedview
     id="namedview4"
     pagecolor="#808080"
     bordercolor="#000000"
     borderopacity="0.25"
     inkscape:showpageshadow="2"
     inkscape:pageopacity="0"
     inkscape:pagecheckerboard="true"
     inkscape:deskcolor="#d1d1d1"
     showgrid="false"
     inkscape:zoom="0.5"
     inkscape:cx="382"
     inkscape:cy="392"
     inkscape:window-width="2560"
     inkscape:window-height="1009"
     inkscape:window-x="-8"
     inkscape:window-y="-8"
     inkscape:window-maximized="1"
     inkscape:current-layer="g8" />
  <g
     inkscape:groupmode="layer"
     inkscape:label="Image"
     id="g8"
     transform="matrix(1.1428571,0,0,1.1428571,-114.28568,3506.2618)"
     style="stroke-width:0.875">
    <g
       id="BOX_HIDE"
       transform="matrix(87.443031,0,0,87.443031,100,-3067.9792)"
       style="stroke-width:0.0100065">
      <path
         style="fill:none;stroke-width:0.000312908"
         d="M 8.005212,15.009773 H 1.0006515 l 2.47e-5,-3.385017 2.46e-5,-3.3850163 0.088962,0.1876222 0.088962,0.1876221 0.2932512,0.278739 0.2932512,0.2787387 0.2822576,0.2351612 0.2822576,0.2351612 0.3596091,0.2681818 0.3596091,0.2681811 0.3337386,0.21857 0.3337385,0.21857 -0.8533792,0.859935 -0.8533791,0.859935 -0.073141,0.187622 -0.073141,0.187622 v 0.281433 0.281434 l 0.074084,0.187622 0.074084,0.187622 0.1903586,0.190358 0.1903587,0.190359 0.1876221,0.07408 0.1876222,0.07408 H 3.04886 3.3302933 l 0.1876221,-0.07293 0.1876222,-0.07293 1.1726385,-1.16436 1.1726384,-1.164361 0.3222392,0.0875 0.3222392,0.0875 0.303168,0.05557 0.303168,0.05557 0.7035831,1.25e-4 0.7035831,1.26e-4 0.2970684,-0.05459 0.2970684,-0.05459 0.3567945,-0.09471 0.3567946,-0.09471 0.385086,-0.141815 0.385086,-0.141816 0.496487,-0.243699 0.496487,-0.243699 0.403326,-0.242989 0.403327,-0.242989 0.250163,-0.173392 0.250162,-0.173391 0.365259,-0.2764455 0.365258,-0.2764457 0.506074,-0.4412785 0.506073,-0.4412786 0.09021,-0.1906785 0.09021,-0.1906788 2.5e-5,3.3693816 2.5e-5,3.369361 z M 15.001955,7.7545153 14.994137,7.7539806 14.919917,7.5825331 14.845698,7.4110855 14.548981,7.127423 14.252265,6.8437602 13.976404,6.6141613 13.700544,6.3845621 13.393595,6.1524063 13.086645,5.9202502 12.727062,5.6780653 12.367478,5.4358804 l -0.01373,-0.013734 -0.01374,-0.013734 0.861688,-0.8670727 0.861689,-0.8670729 0.07314,-0.1876222 0.07314,-0.1876221 V 3.0175884 2.7361552 L 14.135583,2.548533 14.061499,2.3609109 13.871141,2.1705522 13.680782,1.9801936 13.49316,1.9061098 13.305538,1.832026 H 13.024105 12.742671 L 12.555049,1.9049527 12.367427,1.9778794 11.192082,3.148377 10.016736,4.3188744 9.659834,4.2241368 9.3029319,4.1293992 9.0058635,4.0748105 8.7087951,4.0202215 H 8.005212 7.3016289 L 7.0045605,4.0748105 6.7074921,4.1293992 6.3506976,4.224108 5.9939028,4.3188172 5.6088171,4.4606323 5.2237314,4.6024478 4.7272444,4.8461468 4.2307574,5.0898461 3.8274307,5.3328352 3.4241044,5.5758243 3.1739415,5.7492157 2.9237786,5.9226073 2.5585202,6.1990526 2.1932617,6.4754982 1.6871883,6.9167768 1.1811148,7.3580553 l -0.090207,0.1906786 -0.090207,0.19068 -2.46e-5,-3.3693812 -2.47e-5,-3.3693812 h 7.0045605 7.004561 v 3.3771988 3.3771988 l -0.0078,-5.347e-4 z"
         id="path865" />
      <path
         style="fill:#fefefe;stroke-width:0.000312908"
         d="m 7.9517212,11.003057 -0.2435776,-0.0041 -0.2188925,-0.02522 -0.2188925,-0.02522 -0.1986794,-0.03737 -0.1986794,-0.03737 0.413442,-0.414295 0.4134417,-0.414294 0.4731856,-0.01494 0.4731853,-0.01494 0.265798,-0.08582 0.2657981,-0.085821 0.2814332,-0.1433143 0.2814332,-0.1433142 0.3928571,-0.3928571 0.392857,-0.392857 0.143314,-0.2814332 0.143314,-0.2814333 0.08582,-0.265798 0.08582,-0.2657981 0.01494,-0.4733654 0.01494,-0.4733657 0.287112,-0.285918 0.287112,-0.2859177 0.287272,0.1807818 0.287273,0.1807817 0.27694,0.1957653 0.276939,0.195765 0.4036,0.3253111 0.4036,0.3253115 0.243173,0.2294122 0.243172,0.2294122 -0.44643,0.3827876 -0.446429,0.3827874 -0.312704,0.2385916 -0.312703,0.2385913 -0.312704,0.2099986 -0.312704,0.2099982 -0.306042,0.1795964 -0.306042,0.1795971 -0.506987,0.245827 -0.506987,0.245827 -0.4221502,0.139746 -0.4221498,0.139747 -0.2970684,0.06325 -0.2970684,0.06325 -0.3036537,0.03336 -0.3036533,0.03336 z M 4.9935706,9.3419676 4.4560262,9.8769253 4.1516402,9.6837395 3.8472542,9.4905541 3.5702242,9.2947888 3.2931941,9.0990238 2.8895938,8.7737127 2.4859936,8.4484012 2.2428213,8.218989 1.999649,7.9895768 2.4460786,7.6067892 2.8925082,7.2240018 3.2052118,6.9854102 3.5179154,6.7468189 3.830619,6.5369254 4.1433226,6.3270319 4.4197976,6.1643481 4.6962723,6.0016647 4.9781017,5.8601213 5.2599312,5.7185782 5.2431162,5.7596152 5.2263012,5.8006522 5.1232675,6.0977206 5.0202339,6.394789 l 2.189e-4,0.6410424 2.189e-4,0.6410423 0.088811,0.2657981 0.088811,0.265798 0.1096745,0.2188926 0.1096745,0.2188925 0.056747,0.080378 0.056747,0.080378 L 4.993592,9.3419682 Z M 6.4999845,7.0358309 H 6.003909 L 6.0044531,6.9342022 6.0049972,6.8325735 6.0507964,6.613681 6.0965959,6.3947885 6.2271043,6.1300489 6.357613,5.8653094 6.5961527,5.6267694 6.8346927,5.3882297 7.0994323,5.257721 7.3641718,5.1272126 7.5830643,5.0814131 7.8019569,5.0356139 7.9035855,5.0350698 8.005212,5.0345279 V 5.5306033 6.0266785 L 7.8658109,6.0457856 7.7264095,6.0648928 7.5765601,6.1352833 7.4267104,6.2056741 7.3008828,6.3315017 7.1750553,6.4573292 7.1046644,6.607179 7.0342739,6.7570284 7.0151668,6.8964298 6.9960597,7.0358309 Z"
         id="path863" />
      <path
         style="fill:#75b6fe;stroke-width:0.000312908"
         d="m 8.3804563,9.5208041 -0.171987,0.022077 1.1412074,-1.144079 1.1412073,-1.1440789 h 0.01091 0.01091 l -0.0223,0.1641694 -0.0223,0.1641693 -0.06193,0.2032574 -0.06193,0.2032573 L 10.215902,8.2397397 10.087559,8.4899026 9.7734214,8.8040402 9.4592837,9.1181776 9.2091208,9.2465211 8.958958,9.3748647 8.7557006,9.4367956 8.5524433,9.4987269 Z M 5.9029992,8.4117267 H 5.8796137 L 5.77264,8.1993049 5.665666,7.9868832 5.5924424,7.7537023 5.5192184,7.5205214 V 7.0358309 6.5511403 L 5.5924858,6.3166126 5.6657535,6.0820849 5.7907033,5.8410983 5.9156534,5.6001117 6.0457747,5.462636 6.175896,5.3251605 l 0.3596091,-0.097754 0.3596091,-0.097754 0.2970685,-0.053549 0.2970684,-0.053549 0.5159609,1.251e-4 0.5159609,1.251e-4 0.3127036,0.056026 0.3127036,0.056026 0.014266,0.013624 0.014266,0.013624 L 8.7230609,5.6129654 8.2710101,6.0638274 8.138111,6.0453963 8.005212,6.0269656 V 5.5307572 5.0345488 L 7.9035833,5.0350929 7.8019547,5.035637 7.5830621,5.0814362 7.3641696,5.1272357 7.0994301,5.2577441 6.8346905,5.3882528 6.5961505,5.6267925 6.3576108,5.8653325 6.2271021,6.1300721 6.0965937,6.3948116 6.0507942,6.6137041 6.004995,6.8325967 6.0044509,6.9342253 6.003909,7.0358309 h 0.4962084 0.4962084 l 0.018369,0.132899 0.018369,0.132899 -0.5533397,0.5550489 -0.5533396,0.5550489 z"
         id="path861" />
      <path
         style="fill:#fe9729;stroke-width:0.000312908"
         d="M 2.001303,16.010424 H 1.0006515 V 15.510098 15.009773 H 2.001303 3.0019545 v 0.500325 0.500326 z m 4.002606,0 H 5.0032575 V 15.510098 15.009773 H 6.003909 7.0045605 v 0.500325 0.500326 z m 4.002606,0 H 9.0058635 v -0.500326 -0.500325 h 1.0006515 1.000652 v 0.500325 0.500326 z m 4.002606,0 H 13.00847 v -0.500326 -0.500325 h 1.000651 1.000652 v 0.500325 0.500326 z M 0.50032575,14.009121 H 0 V 13.00847 12.007818 H 0.50032575 1.0006515 v 1.000652 1.000651 z m 15.00977225,0 H 15.009773 V 13.00847 12.007818 h 0.500325 0.500326 v 1.000652 1.000651 z M 0.50032575,10.006515 H 0 V 9.0058635 8.005212 H 0.50032575 1.0006515 v 1.0006515 1.0006515 z m 15.00977225,0 H 15.009773 V 9.0058635 8.005212 h 0.500325 0.500326 V 9.0058635 10.006515 Z M 0.50032575,6.003909 H 0 V 5.0032575 4.002606 H 0.50032575 1.0006515 V 5.0032575 6.003909 Z m 15.00977225,0 H 15.009773 V 5.0032575 4.002606 h 0.500325 0.500326 V 5.0032575 6.003909 Z M 0.50032575,2.001303 H 0 V 1.0006515 0 H 0.50032575 1.0006515 V 1.0006515 2.001303 Z m 15.00977225,0 H 15.009773 V 1.0006515 0 h 0.500325 0.500326 V 1.0006515 2.001303 Z M 4.002606,1.0006515 H 3.0019545 V 0.50032575 0 H 4.002606 5.0032575 V 0.50032575 1.0006515 Z m 4.002606,0 H 7.0045605 V 0.50032575 0 H 8.005212 9.0058635 V 0.50032575 1.0006515 Z m 4.002606,0 H 11.007167 V 0.50032575 0 h 1.000651 1.000652 V 0.50032575 1.0006515 Z"
         id="path859" />
      <path
         style="fill:#fe0000;stroke-width:0.000312908"
         d="m 3.1114008,13.678651 -0.1250815,0.01618 -0.1498699,-0.04745 -0.1498699,-0.04745 -0.1225142,-0.122514 -0.1225142,-0.122514 -0.051156,-0.175972 -0.051156,-0.175971 0.036648,-0.145781 0.036648,-0.145782 0.05874,-0.09381 0.05874,-0.09381 5.0594224,-5.0557933 5.0594225,-5.0557936 0.182558,-0.052112 0.182557,-0.052112 0.145781,0.036113 0.145782,0.036113 0.113413,0.074248 0.113412,0.074248 0.06403,0.1037337 0.06403,0.1037337 0.03665,0.1457816 0.03665,0.1457815 -0.05211,0.1825572 -0.05211,0.1825573 -5.0714293,5.0743175 -5.071429,5.0743174 -0.1250815,0.0605 -0.1250814,0.0605 z"
         id="path857" />
      <path
         style="fill:#0000cb;stroke-width:0.000312908"
         d="M 8.177199,10.029413 7.7081436,10.043741 7.9544877,9.7937036 8.2008316,9.5436665 8.3755222,9.5218404 8.5502128,9.5000143 8.7545852,9.4374395 8.958958,9.3748647 9.2091208,9.2465211 9.4592837,9.1181776 9.7734214,8.8040402 10.087559,8.4899026 l 0.128343,-0.2501629 0.128344,-0.2501629 0.06258,-0.2043727 0.06257,-0.2043725 0.02183,-0.1746906 0.02183,-0.1746906 0.250037,-0.2463438 0.250037,-0.2463442 -0.01433,0.4690554 -0.01433,0.4690554 -0.0857,0.2657981 -0.0857,0.265798 -0.143314,0.2814333 -0.143314,0.2814332 -0.392857,0.392857 L 9.7407169,9.5570499 9.4592837,9.7003641 9.1778505,9.8436784 8.9120524,9.9293823 8.6462544,10.015086 Z M 5.5297256,8.786971 H 5.5107761 L 5.4643671,8.7161417 5.4179578,8.6453125 5.308115,8.4268909 5.1982723,8.2084693 5.1097118,7.9426713 5.0211517,7.6768732 5.0200228,7.051466 5.0188939,6.4260589 5.0760049,6.2410453 5.1331158,6.0560317 5.1969055,5.8855388 5.2606951,5.7150459 5.4837685,5.6119841 5.7068418,5.5089224 5.9173752,5.4296823 6.1279082,5.350442 6.0005553,5.5115556 5.8732023,5.6726693 5.7694348,5.8787237 5.6656672,6.0847785 5.5924436,6.3179594 5.5192184,6.5511403 V 7.0358309 7.5205214 L 5.5923611,7.7550491 5.6655037,7.9895768 5.7827588,8.2144376 5.9000142,8.4392984 5.7243448,8.6131347 5.5486754,8.786971 Z"
         id="path855" />
      <path
         style="fill:#653200;stroke-width:0.000312908"
         d="M 0.50032575,16.010424 H 0 V 15.009773 14.009121 H 0.50032575 1.0006515 v 1.000652 1.000651 z m 3.50228025,0 H 3.0019545 V 15.510098 15.009773 H 4.002606 5.0032575 v 0.500325 0.500326 z m 4.002606,0 H 7.0045605 V 15.510098 15.009773 H 8.005212 9.0058635 v 0.500325 0.500326 z m 4.002606,0 h -1.000651 v -0.500326 -0.500325 h 1.000651 1.000652 v 0.500325 0.500326 z m 3.50228,0 h -0.500325 v -1.000651 -1.000652 h 0.500325 0.500326 v 1.000652 1.000651 z M 0.50032575,12.007818 H 0 V 11.007167 10.006515 H 0.50032575 1.0006515 v 1.000652 1.000651 z m 15.00977225,0 h -0.500325 v -1.000651 -1.000652 h 0.500325 0.500326 v 1.000652 1.000651 z M 0.50032575,8.005212 H 0 V 7.0045605 6.003909 H 0.50032575 1.0006515 V 7.0045605 8.005212 Z m 15.00977225,0 H 15.009773 V 7.0045605 6.003909 h 0.500325 0.500326 V 7.0045605 8.005212 Z M 0.50032575,4.002606 H 0 V 3.0019545 2.001303 H 0.50032575 1.0006515 V 3.0019545 4.002606 Z m 15.00977225,0 H 15.009773 V 3.0019545 2.001303 h 0.500325 0.500326 V 3.0019545 4.002606 Z M 2.001303,1.0006515 H 1.0006515 V 0.50032575 0 H 2.001303 3.0019545 V 0.50032575 1.0006515 Z m 4.002606,0 H 5.0032575 V 0.50032575 0 H 6.003909 7.0045605 V 0.50032575 1.0006515 Z m 4.002606,0 H 9.0058635 V 0.50032575 0 h 1.0006515 1.000652 V 0.50032575 1.0006515 Z m 4.002606,0 H 13.00847 V 0.50032575 0 h 1.000651 1.000652 V 0.50032575 1.0006515 Z"
         id="path853" />
      <path
         style="fill:#7f0000;stroke-width:0.000312908"
         d="M 3.0957656,14.18544 2.8612379,14.1971 2.6841342,14.1386 2.5070305,14.0801 2.3962444,14.01163 2.2854584,13.94316 2.1450615,13.787007 2.0046647,13.630852 1.9339812,13.45256 1.8632976,13.274268 v -0.281434 -0.281433 l 0.072369,-0.187622 0.072369,-0.187622 5.1796953,-5.1796957 5.1796951,-5.1796954 0.187622,-0.072369 0.187622,-0.072369 h 0.281434 0.281433 l 0.187622,0.074084 0.187622,0.074084 0.190359,0.1903586 0.190358,0.1903586 0.07408,0.1876222 0.07408,0.1876221 v 0.2814333 0.2814332 l -0.07237,0.1876222 -0.07237,0.1876221 -5.1796956,5.1796955 -5.1796955,5.1796953 -0.1876222,0.07006 -0.1876221,0.07006 z m 0.015635,-0.506789 0.1250814,-0.01618 0.1250814,-0.0605 0.1250815,-0.0605 L 8.5580739,8.4671535 13.629503,3.392836 13.681613,3.2102787 13.733723,3.0277215 13.697073,2.88194 13.660423,2.7361584 13.596393,2.6324247 13.532363,2.528691 13.418951,2.454443 13.305538,2.380195 13.159756,2.344082 13.013975,2.307969 12.831418,2.360081 12.64886,2.412193 7.5894377,7.4679866 2.5300153,12.52378 l -0.05874,0.09381 -0.05874,0.09381 -0.036648,0.145782 -0.036648,0.145781 0.051156,0.175971 0.051156,0.175972 0.1225142,0.122514 0.1225142,0.122514 0.1498699,0.04745 0.1498699,0.04745 z"
         id="path851" />
      <path
         style="fill:#000000;stroke-width:0.000312908"
         d="m 8.1302934,11.992114 -0.609772,0.0098 -0.1094462,-0.01338 -0.1094463,-0.01338 -0.2188925,-0.03114 -0.2188925,-0.03114 -0.3986971,-0.09792 -0.3986971,-0.09792 v -0.01922 -0.01922 l 0.402255,-0.401362 0.4022551,-0.401362 0.2892186,0.04968 0.2892183,0.04968 0.3326306,0.01989 0.332631,0.01989 0.3439739,-0.03706 0.343974,-0.03706 0.2970684,-0.06347 0.2970684,-0.06347 0.4221498,-0.139747 0.4221502,-0.139746 0.506987,-0.245827 0.506987,-0.245827 0.306042,-0.1795511 0.306042,-0.1795506 0.281434,-0.1877914 0.281433,-0.1877913 0.362895,-0.2756714 0.362895,-0.2756716 0.418864,-0.3637909 0.418864,-0.363791 0.01018,-0.00914 0.01018,-0.00914 -0.36979,-0.330744 L 13.274268,7.3494275 12.930294,7.0806973 12.58632,6.811967 12.125898,6.5046269 11.665476,6.1972868 l -0.0399,-0.015105 -0.0399,-0.015106 0.375244,-0.3771474 0.375245,-0.3771477 0.375244,0.2537449 0.375244,0.2537452 0.30695,0.2321464 0.306949,0.2321465 0.272377,0.2266995 0.272376,0.2266994 0.293252,0.2787387 0.293251,0.278739 0.08896,0.1876221 0.08896,0.1876222 v 0.2501629 0.2501629 l -0.09021,0.1906788 -0.09021,0.1906785 -0.506073,0.4412786 -0.506074,0.4412785 -0.365258,0.2764456 -0.365259,0.2764446 -0.250162,0.173392 -0.250163,0.173391 -0.403327,0.24299 -0.403326,0.242989 -0.496487,0.243699 -0.496487,0.243699 -0.385086,0.141815 -0.385086,0.141816 -0.3567946,0.09462 -0.3567945,0.09462 -0.2814332,0.05074 -0.2814333,0.05074 z m -4.4242458,-1.392473 -0.03178,-10e-4 L 3.2990229,10.344392 2.9237786,10.090154 2.6168294,9.858008 2.3098803,9.6258615 2.0375035,9.3991621 1.7651266,9.1724626 1.4718754,8.8937239 1.1786242,8.6149849 1.0896625,8.4273628 1.0007008,8.2397406 V 7.9895778 7.7394149 L 1.0909078,7.548736 1.1811148,7.3580575 1.6871883,6.916779 2.1932617,6.4755004 2.5585202,6.1990548 2.9237786,5.9226095 3.1739415,5.7492179 3.4241044,5.5758265 3.8274307,5.3328374 4.2307574,5.0898483 4.7272444,4.846149 5.2237314,4.60245 5.6088171,4.4606345 5.9939028,4.3188194 l 0.3567948,-0.094619 0.3567945,-0.094619 0.2814332,-0.049935 0.2814333,-0.049935 0.5003535,-0.017921 0.5003536,-0.017921 0.3665186,0.037788 0.366519,0.037788 0.3214014,0.07275 0.3214012,0.07275 0.1838109,0.053566 0.1838112,0.053566 L 9.6010976,4.7363606 9.1876675,5.1506438 8.9951368,5.1094829 8.8026062,5.0683224 8.4039091,5.0300299 8.005212,4.9917375 7.6065149,5.0292116 7.2078178,5.0666857 6.8689653,5.14339 6.5301128,5.2200943 6.1497471,5.3484779 5.7693813,5.4768615 5.2623943,5.7222459 4.7554071,5.9676304 4.449365,6.147181 4.1433226,6.3267317 3.8618894,6.514523 3.5804561,6.7023143 3.2175608,6.9779857 2.8546658,7.2536574 2.435802,7.6174473 l -0.4188638,0.363791 -0.010179,0.00914 -0.010179,0.00914 0.3697883,0.3307426 0.3697882,0.3307422 0.343974,0.2687302 0.343974,0.2687303 0.4568374,0.3024003 0.4568374,0.3024004 0.059124,0.036279 0.059124,0.03628 -0.3590991,0.3624177 -0.3590991,0.362418 -0.03178,-10e-4 z m 3.9409355,-3.9091628 -0.6071828,0.6065837 -0.02171,-0.0865 -0.02171,-0.0865 0.016089,-0.1774384 0.01609,-0.1774386 0.073248,-0.1559281 0.073248,-0.1559281 0.1258275,-0.1258275 0.1258276,-0.1258276 0.1563517,-0.073941 0.1563518,-0.07394 0.2068797,-0.015209 0.2068797,-0.015208 0.050496,0.028259 0.050496,0.028259 z"
         id="path849" />
    </g>
  </g>
</svg>
