<?xml version="1.0" encoding="UTF-8" standalone="no"?>
<!-- Created with Inkscape (http://www.inkscape.org/) -->

<svg
   version="1.1"
   id="svg2"
   width="1600"
   height="1600"
   viewBox="0 0 1600 1600"
   sodipodi:docname="brushangle.svg"
   inkscape:version="1.2.2 (732a01da63, 2022-12-09)"
   xmlns:inkscape="http://www.inkscape.org/namespaces/inkscape"
   xmlns:sodipodi="http://sodipodi.sourceforge.net/DTD/sodipodi-0.dtd"
   xmlns="http://www.w3.org/2000/svg"
   xmlns:svg="http://www.w3.org/2000/svg"
   xmlns:rdf="http://www.w3.org/1999/02/22-rdf-syntax-ns#"
   xmlns:cc="http://creativecommons.org/ns#"
   xmlns:dc="http://purl.org/dc/elements/1.1/">
  <metadata
     id="metadata8">
    <rdf:RDF>
      <cc:Work
         rdf:about="">
        <dc:format>image/svg+xml</dc:format>
        <dc:type
           rdf:resource="http://purl.org/dc/dcmitype/StillImage" />
      </cc:Work>
    </rdf:RDF>
  </metadata>
  <defs
     id="defs6" />
  <sodipodi:namedview
     pagecolor="#808080"
     bordercolor="#666666"
     borderopacity="1"
     objecttolerance="10"
     gridtolerance="10"
     guidetolerance="10"
     inkscape:pageopacity="0"
     inkscape:pageshadow="2"
     inkscape:window-width="2560"
     inkscape:window-height="1009"
     id="namedview4"
     showgrid="false"
     fit-margin-top="0"
     fit-margin-left="0"
     fit-margin-right="0"
     fit-margin-bottom="0"
     inkscape:zoom="0.5"
     inkscape:cx="826"
     inkscape:cy="984"
     inkscape:window-x="-8"
     inkscape:window-y="-8"
     inkscape:window-maximized="1"
     inkscape:current-layer="svg2"
     inkscape:showpageshadow="0"
     inkscape:pagecheckerboard="true"
     inkscape:deskcolor="#d1d1d1" />
  <g
     id="BRUSHANGLE"
     transform="matrix(99.999994,0,0,99.999994,-3.9999941e-6,0)"
     style="stroke-width:0.01">
    <path
       style="fill:none;stroke-width:0.0003125"
       d="M 0,8.0000002 V 0 H 8.0000002 16.000001 V 8.0000002 16.000001 H 8.0000002 0 Z m 9.1406252,6.9405118 c 0.7558226,-0.128627 1.3150568,-0.308823 1.9999998,-0.644438 1.808321,-0.886058 3.180183,-2.581338 3.668712,-4.533612 0.168196,-0.6721517 0.20517,-0.9902349 0.204867,-1.7624618 -2.81e-4,-0.6845194 -0.01909,-0.8951091 -0.12827,-1.4349427 -0.04434,-0.2192259 -0.04379,-0.2335448 0.01015,-0.2636123 0.109142,-0.06084 0.383982,-0.3410147 0.475594,-0.4848263 0.05071,-0.079609 0.121425,-0.2321906 0.157137,-0.3390703 0.06274,-0.187766 0.06493,-0.25506 0.06493,-1.9931735 0,-1.7381136 -0.0022,-1.8054075 -0.06493,-1.9931733 C 15.444422,1.2386157 15.318366,1.0439258 15.116301,0.85407963 14.911655,0.66180844 14.78581,0.58506342 14.540049,0.5026586 14.352042,0.439619 14.287222,0.4375 12.546875,0.4375 c -1.738113,0 -1.805407,0.002192 -1.993173,0.0649311 C 10.286223,0.591805 10.094296,0.72134314 9.8753716,0.96026066 L 9.6892941,1.1633314 9.4305846,1.1132121 C 8.8486315,1.0004714 8.6837885,0.98577246 8.0000002,0.98564831 7.2278536,0.98550769 6.9093122,1.022562 6.2375386,1.1906636 3.7824363,1.8050177 1.8050177,3.7824363 1.1906636,6.2375386 1.0226436,6.9089855 0.9855207,7.227923 0.9855207,8.0000002 c 0,0.7720774 0.0371229,1.0910149 0.2051429,1.7624618 0.6143541,2.455102 2.5917727,4.432521 5.046875,5.046875 0.333517,0.08346 0.8073267,0.166746 1.1530866,0.202693 0.324157,0.0337 1.3869332,-0.0097 1.75,-0.07152 z"
       id="path831"
       inkscape:connector-curvature="0" />
    <path
       style="fill:#fefefe;stroke-width:0.0003125"
       d="M 7.2500002,13.96792 C 6.3551808,13.844154 5.4585445,13.514163 4.7427614,13.045175 4.3408833,12.781861 4.1479739,12.626589 3.8007401,12.286946 2.9264138,11.431734 2.3673209,10.403459 2.1028693,9.1642484 2.023441,8.7920503 2.0178018,8.7148718 2.0178018,8.0000002 c 0,-0.7148714 0.00564,-0.79205 0.085068,-1.164248 C 2.4533477,5.193423 3.3592514,3.8612273 4.7412823,2.9557784 5.3465271,2.5592473 6.0602728,2.2685333 6.8357522,2.1026852 c 0.3760401,-0.080422 0.4428825,-0.085129 1.179873,-0.083081 0.7069889,0.00196 0.8146676,0.00943 1.1328127,0.078553 l 0.3515625,0.076383 V 1.9300343 c 0,-0.3998225 0.125238,-0.7049918 0.4165795,-1.01508439 0.1898461,-0.20206497 0.3845361,-0.3281212 0.6371221,-0.41251877 0.187766,-0.0627389 0.25506,-0.0649311 1.993173,-0.0649311 1.740347,0 1.805167,0.002119 1.993174,0.0651586 0.245761,0.0824048 0.371606,0.15914984 0.576252,0.35142103 0.202065,0.18984613 0.328121,0.38453603 0.412518,0.63712213 0.06274,0.1877658 0.06493,0.2550597 0.06493,1.9931733 0,1.7403464 -0.0021,1.8051663 -0.06516,1.9931735 -0.0824,0.2457609 -0.15915,0.3716058 -0.351421,0.5762517 -0.302081,0.3215236 -0.655584,0.47745 -1.082435,0.47745 -0.138042,0 -0.250943,0.010547 -0.250891,0.023437 7.1e-5,0.012891 0.03096,0.1710938 0.06869,0.3515625 0.05972,0.285637 0.06867,0.4272628 0.06913,1.0937499 4.97e-4,0.7159938 -0.005,0.7914658 -0.08454,1.1642482 -0.350478,1.6423301 -1.256382,2.9745251 -2.638413,3.8799741 -0.602197,0.394535 -1.3231577,0.688916 -2.0784414,0.848664 -0.3288532,0.06956 -0.4789915,0.08266 -1.0552763,0.09211 -0.3695313,0.0061 -0.7632813,-0.0016 -0.8750001,-0.01708 z m 1.234375,-0.999818 c 0.8571708,-0.09565 1.5999158,-0.363741 2.3116238,-0.834363 0.427196,-0.282487 1.055253,-0.910544 1.33774,-1.33774 0.945618,-1.4300306 1.119745,-3.1685935 0.472267,-4.7153325 L 12.491069,5.8060973 11.252563,7.0443131 10.014057,8.2825284 9.9782191,8.4711094 C 9.8772912,9.0021898 9.4462174,9.5541415 8.935489,9.8062338 8.3252759,10.10743 7.6747247,10.10743 7.0645116,9.8062338 6.3978905,9.4771943 5.9698355,8.7708966 5.9698355,8.0000002 c 0,-0.9627207 0.6690314,-1.7959346 1.5948616,-1.9862468 L 7.7968753,5.9660273 9.0145022,4.749712 10.232129,3.5333967 10.023082,3.4386098 C 9.2875134,3.1050874 8.3868469,2.9517434 7.6015627,3.0263311 6.6968109,3.1122663 5.9470111,3.3749414 5.2040018,3.866262 4.7768051,4.148749 4.148749,4.7768051 3.866262,5.2040018 c -1.1441602,1.7302793 -1.1441602,3.8617177 0,5.5919972 0.282487,0.427196 0.9105431,1.055253 1.3377398,1.33774 0.9942691,0.657467 2.174802,0.957736 3.2803734,0.834363 z M 8.2401534,8.5610773 C 8.289555,8.5427295 9.4481981,7.4089866 10.882813,5.9752111 L 13.4375,3.422018 v 0.8338319 c 0,0.5131636 0.01278,0.8676631 0.03324,0.9218035 0.143212,0.3790446 0.690808,0.4791276 0.972586,0.1777579 0.04617,-0.049382 0.09891,-0.1293733 0.117187,-0.1777579 0.04587,-0.1214049 0.04587,-3.2651518 0,-3.3865565 C 14.515281,1.6713814 14.380425,1.5325592 14.258817,1.4805263 14.177776,1.4458512 13.846087,1.4375 12.549914,1.4375 c -1.06039,0 -1.638316,0.011324 -1.696317,0.033238 C 10.641845,1.5507438 10.5,1.7693236 10.5,2.0156251 c 0,0.2463015 0.141845,0.4648813 0.353597,0.5448869 0.05414,0.020456 0.40864,0.033238 0.921804,0.033238 h 0.833832 L 10.056039,5.1484376 C 8.6222641,6.5830523 7.4885212,7.7416955 7.4701734,7.791097 c -0.042143,0.1134699 -0.041862,0.3367639 5.649e-4,0.4490564 0.043916,0.1162343 0.1784271,0.2573215 0.2948869,0.3093045 0.1132537,0.050552 0.3538415,0.056443 0.4745282,0.011619 z"
       id="path829"
       inkscape:connector-curvature="0" />
    <path
       style="fill:#b2b2b2;stroke-width:0.0003125"
       d="M 7.4687503,12.964961 C 6.6594398,12.871968 5.8974886,12.592312 5.2040018,12.133739 4.7768051,11.851252 4.148749,11.223195 3.866262,10.795999 2.7221018,9.0657195 2.7221018,6.9342811 3.866262,5.2040018 4.148749,4.7768051 4.7768051,4.148749 5.2040018,3.866262 5.9470111,3.3749414 6.6968109,3.1122663 7.6015627,3.0263311 8.386815,2.9517464 9.2875172,3.1050891 10.02301,3.4385777 l 0.208977,0.094755 -0.3934083,0.3934078 -0.393408,0.3934083 -0.1991475,-0.06483 C 8.6806153,4.071258 8.1653466,4.0081263 7.6640627,4.0614949 6.929733,4.1396742 6.289792,4.3768205 5.7380189,4.775239 5.602523,4.8730765 5.4716566,4.9671877 5.4472048,4.9843751 5.3894487,5.024973 5.024973,5.3894487 4.9843751,5.4472048 4.9671877,5.4716566 4.8730765,5.602523 4.775239,5.7380189 4.3768205,6.289792 4.1396742,6.929733 4.0614949,7.6640627 3.9692637,8.5303816 4.2421748,9.5237365 4.775239,10.261982 c 0.097837,0.135496 0.1919487,0.266362 0.2091361,0.290814 0.040598,0.05776 0.4050736,0.422232 0.4628297,0.462829 0.024452,0.01719 0.1553182,0.111299 0.2908141,0.209137 0.5517731,0.398418 1.1917141,0.635564 1.9260438,0.713744 0.8663189,0.09223 1.8596738,-0.18068 2.5979193,-0.713744 0.135496,-0.09784 0.266362,-0.191949 0.290814,-0.209137 0.05776,-0.0406 0.422231,-0.405073 0.462829,-0.462829 0.01719,-0.02445 0.111299,-0.155318 0.209137,-0.290814 0.533064,-0.7382455 0.805975,-1.7316004 0.713744,-2.5979193 -0.03501,-0.3288124 -0.109787,-0.677913 -0.199962,-0.9334968 l -0.04515,-0.1279718 0.398925,-0.39804 0.398925,-0.3980398 0.11485,0.2743605 c 0.647385,1.5465174 0.473209,3.2851775 -0.472354,4.7151242 -0.282487,0.427196 -0.910544,1.055253 -1.33774,1.33774 -1.00446,0.664206 -2.194156,0.961419 -3.3272487,0.831222 z"
       id="path827"
       inkscape:connector-curvature="0" />
    <path
       style="fill:#7e807d;stroke-width:0.0003125"
       d="M 7.5937502,11.936218 C 6.9173393,11.854032 6.2610377,11.602418 5.7380189,11.224762 5.602523,11.126924 5.4716566,11.032813 5.4472048,11.015625 5.3894487,10.975028 5.024973,10.610552 4.9843751,10.552796 4.9671877,10.528344 4.8730765,10.397478 4.775239,10.261982 4.3768205,9.7102085 4.1396742,9.0702675 4.0614949,8.3359378 3.9692637,7.4696189 4.2421748,6.4762641 4.775239,5.7380189 4.8730765,5.602523 4.9671877,5.4716566 4.9843751,5.4472048 5.024973,5.3894487 5.3894487,5.024973 5.4472048,4.9843751 5.4716566,4.9671877 5.602523,4.8730765 5.7380189,4.775239 6.4757871,4.2425191 7.4679736,3.9697657 8.3359378,4.0610674 8.6597477,4.0951289 9.1339198,4.2018701 9.3400277,4.2870989 L 9.4392415,4.3281251 9.0674072,4.6986108 8.6955731,5.0690965 8.4088563,5.0299148 C 6.8788624,4.8208315 5.455751,5.8027833 5.0719207,7.3324125 c -0.080738,0.3217559 -0.072768,1.0705059 0.014806,1.3909134 0.3044899,1.1140353 1.1320022,1.9263711 2.2456854,2.2044981 0.2972055,0.07422 1.03797,0.07422 1.3351755,0 1.1143029,-0.278282 1.9573644,-1.1070753 2.2424494,-2.2044981 0.08015,-0.3085387 0.108427,-0.8276979 0.06143,-1.127872 l -0.03643,-0.2326711 0.36793,-0.3688912 c 0.202362,-0.2028905 0.376649,-0.3688913 0.387304,-0.3688913 0.01813,0 0.110768,0.2948712 0.181617,0.5781249 0.0172,0.06875 0.04727,0.276172 0.06682,0.4609375 0.09178,0.8671153 -0.181054,1.8599051 -0.713951,2.5979193 -0.09784,0.135496 -0.191949,0.266362 -0.209137,0.290814 C 10.981054,10.601978 10.588507,11 10.574572,11 c -0.0048,0 -0.100269,0.06926 -0.212111,0.153915 -0.3963844,0.300022 -0.7985522,0.50131 -1.2808542,0.641075 -0.4864831,0.140978 -1.0498221,0.19445 -1.4878566,0.141228 z"
       id="path825"
       inkscape:connector-curvature="0" />
    <path
       style="fill:#656565;stroke-width:0.0003125"
       d="M 7.4794242,10.955879 C 6.839122,10.833645 6.2811548,10.532684 5.8413033,10.072296 5.4652901,9.6787275 5.2067909,9.2066128 5.0721766,8.667588 c -0.074223,-0.2972055 -0.074223,-1.03797 0,-1.3351755 C 5.4543579,5.8020734 6.8909114,4.8139296 8.4183178,5.0307452 L 8.6952982,5.0700626 8.2460866,5.5180165 7.7968753,5.9659706 7.5646971,6.0137252 c -0.5816824,0.1196407 -1.111931,0.5260639 -1.3709304,1.0507864 -0.6842121,1.3861875 0.277763,2.9656534 1.8062335,2.9656534 0.7730214,0 1.4770551,-0.4277948 1.8082553,-1.0987574 C 9.8820244,8.7819628 9.9585328,8.5746984 9.978274,8.4708204 10.013976,8.2829562 10.016613,8.279509 10.473469,7.823415 l 0.459301,-0.4585355 0.0258,0.1222479 c 0.04582,0.2170695 0.02643,0.9461991 -0.03138,1.1804606 -0.274013,1.1102916 -1.1028155,1.953869 -2.2038671,2.243157 -0.3109277,0.08169 -0.9339778,0.104299 -1.2439017,0.04513 z"
       id="path823"
       inkscape:connector-curvature="0" />
    <path
       style="fill:#0000fe;stroke-width:0.0003125"
       d="M 7.7656252,8.5494579 C 7.6491656,8.4974749 7.5146545,8.3563877 7.4707383,8.2401534 7.4283112,8.1278609 7.4280302,7.9045669 7.4701734,7.791097 7.4885213,7.7416955 8.6222641,6.5830523 10.056039,5.1484376 l 2.553194,-2.5546875 h -0.833832 c -0.513164,0 -0.867663,-0.012782 -0.921804,-0.033238 C 10.641845,2.4805064 10.5,2.2619266 10.5,2.0156251 c 0,-0.2463015 0.141845,-0.4648813 0.353597,-0.544887 0.058,-0.021914 0.635927,-0.033238 1.696317,-0.033238 1.296173,0 1.627862,0.00835 1.708903,0.043026 0.121608,0.052033 0.256464,0.1908551 0.301695,0.3105706 0.04587,0.1214047 0.04587,3.2651516 0,3.3865565 C 14.417299,5.556698 13.869704,5.656781 13.587926,5.3554113 13.541754,5.306029 13.48902,5.226038 13.470739,5.1776534 13.450283,5.123513 13.4375,4.7690135 13.4375,4.2558499 V 3.422018 L 10.882813,5.9752111 C 9.4481981,7.4089866 8.289555,8.5427295 8.2401534,8.5610773 8.119467,8.6059005 7.8788789,8.6000098 7.7656252,8.5494579 Z"
       id="path821"
       inkscape:connector-curvature="0" />
    <path
       style="fill:#191919;stroke-width:0.0003125"
       d="M 7.3906252,15.01203 C 7.0448653,14.976083 6.5710556,14.892795 6.2375386,14.809337 3.7824363,14.194983 1.8050177,12.217564 1.1906636,9.762462 1.0226436,9.0910151 0.9855207,8.7720776 0.9855207,8.0000002 0.9855207,7.227923 1.0226436,6.9089855 1.1906636,6.2375386 1.8050177,3.7824363 3.7824363,1.8050177 6.2375386,1.1906636 6.9093122,1.022562 7.2278536,0.98550816 8.0000002,0.98564831 8.6846337,0.98577253 8.827548,0.99856095 9.4428609,1.114759 9.706125,1.1644748 9.7126472,1.1677986 9.6717572,1.231404 9.5752563,1.3815137 9.5000004,1.687621 9.5000004,1.9300343 V 2.1745402 L 9.1484379,2.0981573 C 8.8302928,2.029035 8.7226141,2.0215681 8.0156252,2.019604 7.2786347,2.0175565 7.2117923,2.022263 6.8357522,2.1026852 5.595364,2.3679612 4.5681401,2.9265429 3.7130543,3.8007401 3.3734114,4.1479739 3.2181394,4.3408833 2.9548254,4.7427614 2.559098,5.3467329 2.2680385,6.0617752 2.1028693,6.8357522 c -0.079428,0.372198 -0.085068,0.4493766 -0.085068,1.164248 0,0.7148716 0.00564,0.7920501 0.085068,1.1642482 0.2644516,1.2392106 0.8235444,2.2674856 1.6978708,3.1226976 0.3472338,0.339643 0.5401432,0.494915 0.9420213,0.758229 0.6039715,0.395728 1.3190138,0.686787 2.0929908,0.851956 0.372198,0.07943 0.4493765,0.08507 1.164248,0.08507 0.7148716,0 0.7920501,-0.0056 1.1642482,-0.08507 1.2392106,-0.264452 2.2674856,-0.823544 3.1226976,-1.697871 0.339643,-0.347233 0.494915,-0.540143 0.758229,-0.942021 0.395728,-0.603971 0.686787,-1.3190136 0.851956,-2.0929906 0.07955,-0.3727824 0.08503,-0.4482544 0.08454,-1.1642482 -4.62e-4,-0.6664871 -0.0094,-0.8081129 -0.06913,-1.0937499 -0.03773,-0.1804687 -0.06864,-0.3370364 -0.06869,-0.3479278 -7e-5,-0.010892 0.137015,-0.026058 0.304593,-0.033703 0.233641,-0.010658 0.349561,-0.032584 0.497135,-0.094031 l 0.192446,-0.080131 0.03177,0.1294587 c 0.106272,0.4331095 0.144695,0.8367626 0.144695,1.5200841 0,0.7720774 -0.03712,1.0910149 -0.205143,1.7624618 -0.488529,1.9522739 -1.860391,3.6475539 -3.668712,4.5336119 -1.0093,0.494547 -1.8663228,0.699834 -2.9999996,0.718604 -0.3437501,0.0057 -0.6812501,0.0045 -0.7500002,-0.0026 z"
       id="path819"
       inkscape:connector-curvature="0" />
  </g>
</svg>
