<?xml version="1.0" encoding="UTF-8" standalone="no"?>
<!-- Created with Inkscape (http://www.inkscape.org/) -->

<svg
   version="1.1"
   id="svg2"
   width="1600"
   height="1600"
   viewBox="0 0 1600 1600"
   sodipodi:docname="brushstrength.svg"
   inkscape:version="1.2.2 (732a01da63, 2022-12-09)"
   xmlns:inkscape="http://www.inkscape.org/namespaces/inkscape"
   xmlns:sodipodi="http://sodipodi.sourceforge.net/DTD/sodipodi-0.dtd"
   xmlns="http://www.w3.org/2000/svg"
   xmlns:svg="http://www.w3.org/2000/svg"
   xmlns:rdf="http://www.w3.org/1999/02/22-rdf-syntax-ns#"
   xmlns:cc="http://creativecommons.org/ns#"
   xmlns:dc="http://purl.org/dc/elements/1.1/">
  <metadata
     id="metadata8">
    <rdf:RDF>
      <cc:Work
         rdf:about="">
        <dc:format>image/svg+xml</dc:format>
        <dc:type
           rdf:resource="http://purl.org/dc/dcmitype/StillImage" />
      </cc:Work>
    </rdf:RDF>
  </metadata>
  <defs
     id="defs6" />
  <sodipodi:namedview
     pagecolor="#808080"
     bordercolor="#666666"
     borderopacity="1"
     objecttolerance="10"
     gridtolerance="10"
     guidetolerance="10"
     inkscape:pageopacity="0"
     inkscape:pageshadow="2"
     inkscape:window-width="2560"
     inkscape:window-height="1009"
     id="namedview4"
     showgrid="false"
     fit-margin-top="0"
     fit-margin-left="0"
     fit-margin-right="0"
     fit-margin-bottom="0"
     inkscape:zoom="0.5"
     inkscape:cx="786"
     inkscape:cy="882"
     inkscape:window-x="-8"
     inkscape:window-y="-8"
     inkscape:window-maximized="1"
     inkscape:current-layer="svg2"
     inkscape:showpageshadow="0"
     inkscape:pagecheckerboard="true"
     inkscape:deskcolor="#d1d1d1" />
  <g
     id="BRUSHSTRENGTH"
     transform="matrix(99.999994,0,0,99.999994,0,-3.9999941e-6)"
     style="stroke-width:0.0114286">
    <path
       style="fill:none;stroke-width:0.000357143"
       d="M 0,8.0000002 V 0 H 8.0000002 16.000001 V 8.0000002 16.000001 H 8.0000002 0 Z m 9.1406252,6.9405118 c 0.7558226,-0.128627 1.3150568,-0.308823 1.9999998,-0.644438 1.808321,-0.886058 3.180183,-2.581338 3.668712,-4.533612 0.16802,-0.6714469 0.205143,-0.9903844 0.205143,-1.7624618 0,-0.7720772 -0.03712,-1.0910147 -0.205143,-1.7624616 C 14.194983,3.7824363 12.217564,1.8050177 9.762462,1.1906636 9.0910151,1.0226436 8.7720776,0.9855207 8.0000002,0.9855207 c -0.7720772,0 -1.0910147,0.0371229 -1.7624616,0.2051429 -2.4551023,0.6143541 -4.4325209,2.5917727 -5.046875,5.046875 -0.16802,0.6714469 -0.2051429,0.9903844 -0.2051429,1.7624616 0,0.7720774 0.0371229,1.0910149 0.2051429,1.7624618 0.6143541,2.455102 2.5917727,4.432521 5.046875,5.046875 0.333517,0.08346 0.8073267,0.166746 1.1530866,0.202693 0.324157,0.0337 1.3869332,-0.0097 1.75,-0.07152 z"
       id="path831"
       inkscape:connector-curvature="0" />
    <path
       style="fill:#fefefe;stroke-width:0.000357143"
       d="M 7.2500002,13.96792 C 6.3551808,13.844154 5.4585445,13.514163 4.7427614,13.045175 4.3408833,12.781861 4.1479739,12.626589 3.8007401,12.286946 2.9264138,11.431734 2.3673209,10.403459 2.1028693,9.1642484 2.023441,8.7920503 2.0178018,8.7148718 2.0178018,8.0000002 c 0,-0.7148714 0.00564,-0.79205 0.085068,-1.164248 C 2.4533477,5.193423 3.3592514,3.8612273 4.7412823,2.9557784 5.3468116,2.5590607 6.0611306,2.2681761 6.8357522,2.1028693 c 0.372198,-0.079428 0.4493766,-0.085068 1.164248,-0.085068 0.7148716,0 0.7920501,0.00564 1.1642482,0.085068 1.2392106,0.2644516 2.2674856,0.8235445 3.1226976,1.6978708 0.339643,0.3472338 0.494915,0.5401432 0.758229,0.9420213 0.395728,0.6039715 0.686787,1.3190138 0.851956,2.0929908 0.07943,0.372198 0.08507,0.4493766 0.08507,1.164248 0,0.7148716 -0.0056,0.7920501 -0.08507,1.1642482 -0.350478,1.6423296 -1.256382,2.9745246 -2.638413,3.8799736 -0.602197,0.394535 -1.3231577,0.688916 -2.0784414,0.848664 -0.3288532,0.06956 -0.4789915,0.08266 -1.0552763,0.09211 -0.3695313,0.0061 -0.7632813,-0.0016 -0.8750001,-0.01708 z m 1.234375,-0.999818 c 0.8571708,-0.09565 1.5999158,-0.363741 2.3116238,-0.834363 0.427196,-0.282487 1.055253,-0.910544 1.33774,-1.33774 1.14416,-1.7302795 1.14416,-3.8617179 0,-5.5919972 C 11.851252,4.7768051 11.223195,4.148749 10.795999,3.866262 9.0657195,2.7221018 6.9342811,2.7221018 5.2040018,3.866262 4.7768051,4.148749 4.148749,4.7768051 3.866262,5.2040018 3.6319071,5.5584096 3.3871734,6.0530337 3.2650545,6.4190845 2.7750023,7.8880144 2.9930534,9.4754712 3.866262,10.795999 c 0.282487,0.427196 0.9105431,1.055253 1.3377398,1.33774 0.9942691,0.657467 2.1748019,0.957736 3.2803734,0.834363 z"
       id="path829"
       inkscape:connector-curvature="0" />
    <path
       style="fill:#fefe00;stroke-width:0.000357143"
       d="M 7.5345002,9.9829228 C 6.9775678,9.8621081 6.4462596,9.4470293 6.1937667,8.935489 5.5095546,7.5493015 6.4715297,5.9698355 8.0000002,5.9698355 c 1.1338305,0 2.0301648,0.8963343 2.0301648,2.0301647 0,1.1416054 -0.9032479,2.0370968 -2.0457897,2.0282238 -0.1375001,-0.0011 -0.3399438,-0.02145 -0.4498751,-0.045301 z"
       id="path827"
       inkscape:connector-curvature="0" />
    <path
       style="fill:#6cc3c3;stroke-width:0.000357143"
       d="M 7.5937502,11.936218 C 6.9173393,11.854032 6.2610377,11.602418 5.7380189,11.224762 5.602523,11.126924 5.4716566,11.032813 5.4472048,11.015625 5.3894487,10.975028 5.024973,10.610552 4.9843751,10.552796 4.9671877,10.528344 4.8730765,10.397478 4.775239,10.261982 4.3768205,9.7102085 4.1396742,9.0702675 4.0614949,8.3359378 3.9692637,7.4696189 4.2421748,6.4762641 4.775239,5.7380189 4.8730765,5.602523 4.9671877,5.4716566 4.9843751,5.4472048 5.024973,5.3894487 5.3894487,5.024973 5.4472048,4.9843751 5.4716566,4.9671877 5.602523,4.8730765 5.7380189,4.775239 6.289792,4.3768205 6.929733,4.1396742 7.6640627,4.0614949 8.5303816,3.9692637 9.5237365,4.2421748 10.261982,4.775239 c 0.135496,0.097837 0.266362,0.1919487 0.290814,0.2091361 0.05776,0.040598 0.422232,0.4050736 0.462829,0.4628297 0.01719,0.024452 0.111299,0.1553182 0.209137,0.2908141 0.398418,0.5517731 0.635564,1.1917141 0.713744,1.9260438 0.09223,0.8663189 -0.18068,1.8596738 -0.713744,2.5979193 -0.09784,0.135496 -0.191949,0.266362 -0.209137,0.290814 C 10.981054,10.601978 10.588507,11 10.574572,11 c -0.0048,0 -0.100269,0.06926 -0.212111,0.153915 -0.3963844,0.300022 -0.7985522,0.50131 -1.2808542,0.641075 -0.4864831,0.140978 -1.0498221,0.19445 -1.4878566,0.141228 z M 8.7233259,10.910745 C 9.8243262,10.62147 10.649578,9.7817475 10.927824,8.667588 c 0.07422,-0.2972055 0.07422,-1.03797 0,-1.3351755 C 10.649708,6.2187764 9.8387637,5.392582 8.7233259,5.0864595 c -0.3439366,-0.094391 -1.1027147,-0.094391 -1.4466513,0 -1.1154377,0.3061225 -1.9263825,1.1323169 -2.204498,2.245953 -0.074223,0.2972055 -0.074223,1.03797 0,1.3351755 0.2968796,1.1887714 1.2139046,2.06048 2.4072476,2.288291 0.3099239,0.05917 0.932974,0.03656 1.2439017,-0.04513 z"
       id="path825"
       inkscape:connector-curvature="0" />
    <path
       style="fill:#0000fe;stroke-width:0.000357143"
       d="M 7.4687503,12.964961 C 6.6594398,12.871968 5.8974886,12.592312 5.2040018,12.133739 4.7768051,11.851252 4.148749,11.223195 3.866262,10.795999 2.7221018,9.0657195 2.7221018,6.9342811 3.866262,5.2040018 4.148749,4.7768051 4.7768051,4.148749 5.2040018,3.866262 c 1.7302793,-1.1441602 3.8617177,-1.1441602 5.5919972,0 0.427196,0.282487 1.055253,0.9105431 1.33774,1.3377398 1.14416,1.7302793 1.14416,3.8617177 0,5.5919972 -0.282487,0.427196 -0.910544,1.055253 -1.33774,1.33774 -1.00446,0.664206 -2.194156,0.961419 -3.3272487,0.831222 z M 8.614009,11.905242 C 9.2241134,11.80863 9.8564651,11.536902 10.362461,11.153915 10.474303,11.069262 10.569753,11 10.574572,11 c 0.01394,0 0.406482,-0.398022 0.441053,-0.447204 0.01719,-0.02445 0.111299,-0.155318 0.209137,-0.290814 C 11.757826,9.5237365 12.030737,8.5303816 11.938506,7.6640627 11.860326,6.929733 11.62318,6.289792 11.224762,5.7380189 11.126924,5.602523 11.032813,5.4716566 11.015625,5.4472048 10.975028,5.3894487 10.610552,5.024973 10.552796,4.9843751 10.528344,4.9671877 10.397478,4.8730765 10.261982,4.775239 9.5237365,4.2421748 8.5303816,3.9692637 7.6640627,4.0614949 6.929733,4.1396742 6.289792,4.3768205 5.7380189,4.775239 5.602523,4.8730765 5.4716566,4.9671877 5.4472048,4.9843751 5.3894487,5.024973 5.024973,5.3894487 4.9843751,5.4472048 4.9671877,5.4716566 4.8730765,5.602523 4.775239,5.7380189 c -0.5330642,0.7382452 -0.8059753,1.7316 -0.7137441,2.5979189 0.078179,0.7343297 0.3153256,1.3742707 0.7137441,1.9260442 0.097837,0.135496 0.1919487,0.266362 0.2091361,0.290814 0.040598,0.05776 0.4050736,0.422232 0.4628297,0.462829 0.024452,0.01719 0.1553182,0.111299 0.2908141,0.209137 0.8195923,0.591802 1.8685964,0.840004 2.8759901,0.68048 z"
       id="path823"
       inkscape:connector-curvature="0" />
    <path
       style="fill:#00fe00;stroke-width:0.000357143"
       d="M 7.4794242,10.955879 C 6.839122,10.833645 6.2811548,10.532684 5.8413033,10.072296 5.4652901,9.6787275 5.2067909,9.2066128 5.0721766,8.667588 c -0.074223,-0.2972055 -0.074223,-1.03797 0,-1.3351755 0.2781155,-1.1136361 1.0890603,-1.9398305 2.204498,-2.245953 0.3439366,-0.094391 1.1027147,-0.094391 1.4466513,0 1.1154378,0.3061225 1.9263821,1.1323169 2.2044981,2.245953 0.07422,0.2972055 0.07422,1.03797 0,1.3351755 -0.278246,1.1141595 -1.1034978,1.953882 -2.2044981,2.243157 -0.3109277,0.08169 -0.9339778,0.104299 -1.2439017,0.04513 z M 8.4511141,9.984251 C 9.0208868,9.8635502 9.5504412,9.4537144 9.8062338,8.935489 10.490446,7.5493015 9.5284709,5.9698355 8.0000002,5.9698355 c -1.310059,0 -2.258611,1.1861512 -1.9842507,2.4812786 0.1208304,0.5703839 0.5304605,1.0992875 1.0500007,1.3557331 0.1478813,0.072994 0.3588188,0.1522284 0.46875,0.1760756 0.2647969,0.057442 0.6490976,0.057999 0.9166139,0.00133 z"
       id="path821"
       inkscape:connector-curvature="0" />
    <path
       style="fill:#191919;stroke-width:0.000357143"
       d="M 7.3906252,15.01203 C 7.0448653,14.976083 6.5710556,14.892795 6.2375386,14.809337 3.7824363,14.194983 1.8050177,12.217564 1.1906636,9.762462 1.0226436,9.0910151 0.9855207,8.7720776 0.9855207,8.0000002 c 0,-0.7720772 0.0371229,-1.0910147 0.2051429,-1.7624616 0.6143541,-2.4551023 2.5917727,-4.4325209 5.046875,-5.046875 0.6714469,-0.16802 0.9903844,-0.2051429 1.7624616,-0.2051429 0.7720774,0 1.0910149,0.0371229 1.7624618,0.2051429 2.455102,0.6143541 4.432521,2.5917727 5.046875,5.046875 0.16802,0.6714469 0.205143,0.9903844 0.205143,1.7624616 0,0.7720774 -0.03712,1.0910149 -0.205143,1.7624618 -0.488529,1.952274 -1.860391,3.647554 -3.668712,4.533612 -1.0093,0.494547 -1.8663228,0.699834 -2.9999996,0.718604 -0.3437501,0.0057 -0.6812501,0.0045 -0.7500002,-0.0026 z m 1.7896514,-1.119144 c 1.2177954,-0.257573 2.2551944,-0.82312 3.1066694,-1.693626 0.339643,-0.347233 0.494915,-0.540143 0.758229,-0.942021 0.395728,-0.603971 0.686787,-1.3190136 0.851956,-2.0929906 0.07943,-0.3721981 0.08507,-0.4493766 0.08507,-1.1642482 0,-0.7148714 -0.0056,-0.79205 -0.08507,-1.164248 C 13.546653,5.193423 12.640749,3.8612273 11.258718,2.9557784 10.653189,2.5590607 9.9388699,2.2681761 9.1642484,2.1028693 8.7920503,2.023441 8.7148718,2.0178018 8.0000002,2.0178018 c -0.7148715,0 -0.79205,0.00564 -1.164248,0.085068 C 5.5965415,2.3673209 4.5682666,2.9264138 3.7130543,3.8007401 3.3734114,4.1479739 3.2181394,4.3408833 2.9548254,4.7427614 2.559098,5.3467329 2.2680385,6.0617752 2.1028693,6.8357522 c -0.079428,0.372198 -0.085068,0.4493766 -0.085068,1.164248 0,0.7148716 0.00564,0.7920501 0.085068,1.1642482 0.2644516,1.2392106 0.8235444,2.2674856 1.6978708,3.1226976 0.3472338,0.339643 0.5401432,0.494915 0.9420213,0.758229 0.7157831,0.468988 1.6124194,0.798979 2.5072388,0.922745 0.1117188,0.01545 0.5054688,0.02314 0.8750001,0.01708 0.5762848,-0.0094 0.7264231,-0.02256 1.0552763,-0.09211 z"
       id="path819"
       inkscape:connector-curvature="0" />
  </g>
</svg>
