<?xml version="1.0" encoding="UTF-8" standalone="no"?>
<!-- Created with Inkscape (http://www.inkscape.org/) -->

<svg
   version="1.1"
   id="svg2"
   width="1600"
   height="1600"
   viewBox="0 0 1600 1600"
   sodipodi:docname="brush_data.svg"
   inkscape:version="1.2.2 (732a01da63, 2022-12-09)"
   xmlns:inkscape="http://www.inkscape.org/namespaces/inkscape"
   xmlns:sodipodi="http://sodipodi.sourceforge.net/DTD/sodipodi-0.dtd"
   xmlns="http://www.w3.org/2000/svg"
   xmlns:svg="http://www.w3.org/2000/svg"
   xmlns:rdf="http://www.w3.org/1999/02/22-rdf-syntax-ns#"
   xmlns:cc="http://creativecommons.org/ns#"
   xmlns:dc="http://purl.org/dc/elements/1.1/">
  <metadata
     id="metadata8">
    <rdf:RDF>
      <cc:Work
         rdf:about="">
        <dc:format>image/svg+xml</dc:format>
        <dc:type
           rdf:resource="http://purl.org/dc/dcmitype/StillImage" />
      </cc:Work>
    </rdf:RDF>
  </metadata>
  <defs
     id="defs6" />
  <sodipodi:namedview
     pagecolor="#808080"
     bordercolor="#666666"
     borderopacity="1"
     objecttolerance="10"
     gridtolerance="10"
     guidetolerance="10"
     inkscape:pageopacity="0"
     inkscape:pageshadow="2"
     inkscape:window-width="2560"
     inkscape:window-height="1009"
     id="namedview4"
     showgrid="false"
     inkscape:zoom="0.5"
     inkscape:cx="948"
     inkscape:cy="820"
     inkscape:window-x="-8"
     inkscape:window-y="-8"
     inkscape:window-maximized="1"
     inkscape:current-layer="svg2"
     inkscape:showpageshadow="0"
     inkscape:pagecheckerboard="true"
     inkscape:deskcolor="#d1d1d1" />
  <g
     id="BRUSH_DATA"
     transform="matrix(99.987377,0,0,99.987377,-3.2507701e-6,0.100984)"
     style="stroke-width:0.0100012">
    <path
       style="fill:none;stroke-width:0.000312539"
       d="M 0,8 V 0 H 7.5487194 C 13.579479,0 15.092681,0.00785501 15.07378,0.0390625 15.030285,0.11087741 14.366952,0.88821106 14.187101,1.078125 14.089441,1.18125 13.814776,1.4976562 13.576734,1.78125 13.338692,2.0648438 13.1331,2.3014092 13.119862,2.3069511 c -0.01324,0.00554 -0.280759,0.3149168 -0.594492,0.6875 -0.313733,0.3725833 -0.581843,0.6822658 -0.595801,0.6881836 -0.01396,0.00592 -0.245877,0.2731053 -0.515377,0.59375 C 11.144692,4.5970294 10.838395,4.9507813 10.733532,5.0625 10.628668,5.1742187 10.31174,5.5363675 10.029248,5.8672753 9.1788184,6.8634559 8.4587941,7.6972119 8.359375,7.8009128 8.3078125,7.8546959 8.2057041,7.9812584 8.1324672,8.0821628 8.0592303,8.1830669 7.9115741,8.3827519 7.8043422,8.5259069 7.6971103,8.6690619 7.5441416,8.8777325 7.4644119,8.9896197 7.3846822,9.1015069 7.3047462,9.2077538 7.2867766,9.2257234 7.2677197,9.2447803 7.1304391,9.2559016 6.9573509,9.2524103 6.3874881,9.2409163 5.8702297,9.3569497 5.390625,9.6038644 5.2055128,9.6991659 5.0620478,9.8085678 4.8378816,10.02537 4.3790622,10.469116 4.1848244,10.780551 3.7464587,11.775325 3.6427737,12.010615 3.5010366,12.308594 3.4314869,12.4375 2.9348903,13.357913 2.3379317,13.684394 1.039821,13.74552 c -0.51463031,0.02423 -0.56441359,0.04073 -0.70976509,0.23515 -0.0581303,0.07775 -0.0654267,0.138684 -0.0746137,0.623069 -0.006531,0.344364 0.002746,0.580322 0.0258732,0.658016 0.0541744,0.181999 0.28518467,0.411059 0.49295898,0.488797 0.33807701,0.126491 0.93338331,0.208206 1.66322571,0.228302 0.1632812,0.0045 -0.3183594,0.01109 -1.0703125,0.01466 L 0,16 Z m 3.3125,7.979305 C 4.9262678,15.922319 6.2354703,15.572259 7.1859519,14.943607 7.501045,14.735203 8.0011984,14.249956 8.1869272,13.972463 8.3906697,13.668058 8.563505,13.271308 8.6509684,12.907238 l 0.079065,-0.329113 0.1006082,0.101563 C 9.0328341,12.883798 8.7636438,13.125306 12.531534,9.359375 14.414544,7.4773437 15.965272,5.9375 15.977595,5.9375 15.989918,5.9375 16,8.2015625 16,10.96875 V 16 L 9.5390625,15.9938 C 5.9855469,15.9904 3.1835938,15.9839 3.3125,15.9793 Z"
       id="path853"
       inkscape:connector-curvature="0" />
    <path
       style="fill:#cbfefe;stroke-width:0.000312539"
       d="M 7.9062256,10.445313 C 7.7628187,10.243359 7.6443925,10.053833 7.6430556,10.024142 7.6407834,9.9736778 8.7617247,8.6875 8.8079772,8.6875 c 0.011667,0 0.1732128,0.1524719 0.3589894,0.3388263 L 9.5047422,9.3651525 8.8718994,10.088826 C 8.5238359,10.486847 8.2228363,10.8125 8.2030109,10.8125 c -0.019825,0 -0.1533787,-0.165234 -0.2967853,-0.367187 z"
       id="path851"
       inkscape:connector-curvature="0" />
    <path
       style="fill:#f0e6d9;stroke-width:0.000312539"
       d="m 3.8650903,13.711156 c 0.4080509,-0.395664 0.715045,-0.882353 1.0895253,-1.727264 0.3322741,-0.749684 0.4986463,-1.0517 0.7010069,-1.272541 0.1885066,-0.205722 0.4409834,-0.352684 0.6654312,-0.387337 l 0.1008213,-0.01557 0.3214712,0.650463 c 0.3479135,0.703965 0.3527372,0.722853 0.27204,1.065124 -0.1358743,0.5763 -0.5449546,1.025346 -1.2452643,1.366923 -0.5020966,0.244899 -1.2415735,0.438337 -2.004885,0.524456 l -0.1253882,0.01415 z"
       id="path849"
       inkscape:connector-curvature="0" />
    <path
       style="fill:#fecb98;stroke-width:0.000312539"
       d="M 9.7221672,8.3003716 C 9.5681541,8.1455181 9.4668825,8.0194834 9.4767378,7.9949291 9.4903063,7.9611234 15.803657,0.65908944 15.955901,0.50111606 15.993908,0.46167825 16,0.56993863 16,1.2848201 V 2.114283 L 13.03175,5.3305791 C 11.399213,7.0995419 10.045697,8.5507303 10.023938,8.5554425 10.002178,8.5601547 9.8663816,8.4453728 9.7221672,8.3003716 Z"
       id="path847"
       inkscape:connector-curvature="0" />
    <path
       style="fill:#6598cb;stroke-width:0.000312539"
       d="M 8.6515547,11.651808 C 8.4380806,11.387845 8.2410159,11.136719 8.2136328,11.09375 8.1862497,11.050781 7.9808541,10.792578 7.7571978,10.519966 L 7.3505503,10.024307 7.4469375,9.8793409 C 7.4999503,9.7996097 7.6219625,9.6359375 7.7180756,9.515625 7.8141888,9.3953125 7.9171803,9.2583322 7.9469459,9.2112241 7.9767116,9.1641159 8.1027788,8.9927072 8.2270953,8.8303159 8.3514116,8.6679247 8.4742188,8.5052722 8.5,8.4688666 8.546437,8.4032926 8.548086,8.4039316 8.6764953,8.5372746 L 8.8061156,8.671875 8.2145041,9.328125 c -0.3450075,0.3827025 -0.5865994,0.675789 -0.5795869,0.703125 0.02077,0.08097 0.5302284,0.78125 0.5683622,0.78125 0.028413,0 1.0793359,-1.1693066 1.2583912,-1.4001459 0.035041,-0.045175 0.1087897,0.01769 0.6172484,0.5261478 L 10.656371,10.515955 9.84803,11.323847 9.0396891,12.13174 Z"
       id="path845"
       inkscape:connector-curvature="0" />
    <path
       style="fill:#cb9800;stroke-width:0.000312539"
       d="M 2.359375,15.465862 C 1.4580422,15.431051 0.94324491,15.330993 0.81289609,15.165281 0.75707563,15.094317 0.75,15.038869 0.75,14.672405 v -0.412916 l 0.4609375,-0.01946 c 0.7486033,-0.0316 1.2828279,-0.174433 1.7276015,-0.461905 0.5175498,-0.334508 0.8311844,-0.772833 1.2769735,-1.784653 0.10381,-0.23562 0.2472141,-0.544995 0.3186756,-0.6875 0.3815006,-0.760766 0.8840772,-1.227278 1.5377091,-1.4273644 0.22547,-0.06902 0.7614369,-0.1494431 0.7920331,-0.1188468 0.010007,0.010007 -0.011533,0.055988 -0.047868,0.10218 -0.1305828,0.1660092 -0.1225419,0.1808812 0.5175444,0.9572052 0.1944828,0.235877 0.3782793,0.468401 0.4084365,0.51672 0.030157,0.04832 0.1620785,0.221032 0.2931579,0.383805 l 0.2383265,0.295951 -0.041733,0.318669 C 8.1731528,12.782088 8.1106494,13.004613 7.9526459,13.328125 7.7084616,13.828093 7.3514475,14.221258 6.8453834,14.54751 5.8066094,15.217191 4.2375559,15.538399 2.359375,15.465862 Z M 4.28125,13.837709 c 0.5528956,-0.08996 1.0842741,-0.249407 1.4888719,-0.44675 0.7003097,-0.341576 1.10939,-0.790623 1.2452644,-1.366923 0.080697,-0.342271 0.075873,-0.361158 -0.27204,-1.065124 L 6.421875,10.308449 6.3210537,10.324014 c -0.2244478,0.03465 -0.4769246,0.181615 -0.6654312,0.387337 -0.2023606,0.220841 -0.3687328,0.522857 -0.7010069,1.272541 -0.3744803,0.844911 -0.6814744,1.3316 -1.0895253,1.727264 l -0.2252416,0.218405 0.1253882,-0.01415 c 0.068963,-0.0078 0.3011693,-0.04275 0.5160131,-0.07771 z"
       id="path843"
       inkscape:connector-curvature="0" />
    <path
       style="fill:#fe0000;stroke-width:0.000312539"
       d="M 9.9424672,9.0830938 8.8717291,8.0120181 9.4124269,7.3810969 C 9.7098109,7.0340903 10.184661,6.4794331 10.46765,6.1485253 10.750639,5.8176175 11.02685,5.5046875 11.081453,5.453125 11.136056,5.4015625 11.410329,5.0851562 11.690948,4.75 c 0.28062,-0.3351563 0.521595,-0.6141925 0.535501,-0.6200803 0.01391,-0.00589 0.278346,-0.3082319 0.587646,-0.671875 C 13.123394,3.0944013 13.506208,2.6488445 13.664791,2.4679183 13.823375,2.2869922 14.107813,1.9595477 14.296875,1.740264 15.735116,0.07212326 15.800764,0.00150592 15.914063,6.4955344e-4 L 16,0 l -7.56e-4,0.2265625 -7.56e-4,0.2265625 -3.252476,3.75 C 10.957152,6.265625 9.4859831,7.9719369 9.4767488,7.9949291 9.45919,8.0386484 9.9566828,8.5625 10.015761,8.5625 c 0.02559,0 5.456667,-5.8530073 5.881503,-6.3384211 L 15.997653,2.109375 15.99521,3.65625 15.992766,5.203125 13.502985,7.6786472 11.013204,10.154169 9.9424663,9.0830938 Z"
       id="path841"
       inkscape:connector-curvature="0" />
    <path
       style="fill:#003265;stroke-width:0.000312539"
       d="M 8.9137209,12.76044 C 8.8716119,12.743474 7.8372459,11.485325 7.7361678,11.328125 7.7030134,11.276563 7.5193131,11.044454 7.3279444,10.812328 6.8376569,10.21762 6.75,10.097953 6.75,10.023331 6.75,9.9482759 6.9051531,9.7081703 7.1588469,9.390625 7.2549669,9.2703125 7.3956575,9.0851988 7.4714928,8.9792613 7.6002766,8.7993575 7.8461391,8.4681269 8.1136331,8.1141572 l 0.1144638,-0.1514675 0.043794,0.1045925 c 0.024087,0.057526 0.093524,0.1556619 0.154305,0.2180794 l 0.110511,0.1134865 -0.076474,0.1211435 C 8.4181713,8.5866203 8.3000384,8.7464888 8.197715,8.8752547 8.0953913,9.0040209 7.9849319,9.1515625 7.9522494,9.203125 7.9195669,9.2546875 7.8141888,9.3953125 7.7180756,9.515625 7.6219625,9.6359375 7.4999503,9.7996097 7.4469375,9.8793409 l -0.096387,0.1449661 0.4066475,0.495659 c 0.2236563,0.272612 0.4290519,0.530815 0.456435,0.573784 0.027383,0.04297 0.2244478,0.294095 0.4379219,0.558058 l 0.3881344,0.479932 0.8064028,-0.805956 0.8064029,-0.805955 0.145219,0.133859 c 0.119295,0.109962 0.162056,0.131387 0.239529,0.120017 0.07948,-0.01167 -0.06483,0.145081 -0.917767,0.996852 -1.0248377,1.023437 -1.0569795,1.049825 -1.2057551,0.989883 z"
       id="path839"
       inkscape:connector-curvature="0" />
    <path
       style="fill:#320000;stroke-width:0.000312539"
       d="M 2.4375,15.979745 C 1.6953576,15.957083 1.1110881,15.87657 0.77427434,15.750552 0.56650003,15.672814 0.33548972,15.443754 0.28131536,15.261755 0.25818868,15.184061 0.2489108,14.948103 0.25544217,14.603739 0.26462923,14.119354 0.27192563,14.058425 0.33005591,13.98067 0.47540741,13.786247 0.52519069,13.769753 1.039821,13.74552 2.3379318,13.684394 2.9348903,13.357912 3.4314869,12.4375 3.5010366,12.308594 3.6427738,12.010615 3.7464588,11.775325 4.1848244,10.780551 4.3790622,10.469116 4.8378816,10.02537 5.0620478,9.8085678 5.2055128,9.6991659 5.390625,9.6038644 5.6959325,9.4466831 6.0624866,9.3288675 6.3863625,9.2838203 6.7116725,9.2385741 7.21875,9.2391253 7.21875,9.2847266 c 0,0.019099 -0.054193,0.099958 -0.1204297,0.1796875 -0.066236,0.079729 -0.1361387,0.1749118 -0.1553387,0.2115175 -0.029185,0.055642 -0.074771,0.070281 -0.2780079,0.089277 C 6.0686669,9.8209416 5.5705097,10.030084 5.2033597,10.37884 4.8280181,10.735378 4.6200256,11.075342 4.2155125,11.993476 3.7697234,13.005296 3.4560888,13.443621 2.938539,13.778129 2.4937654,14.0656 1.9595408,14.208434 1.2109375,14.240033 L 0.75,14.259489 v 0.412916 c 0,0.366464 0.007076,0.421912 0.0628961,0.492876 0.264335,0.336047 2.5232167,0.419947 3.9675801,0.147365 2.1185713,-0.39982 3.3069029,-1.439612 3.4563097,-3.024277 0.011784,-0.124991 0.030451,-0.232833 0.04148,-0.23965 0.02921,-0.01805 0.4404838,0.498501 0.4404838,0.55324 0,0.126971 -0.1663253,0.675957 -0.2751519,0.908186 C 8.26286,13.895831 8.0900856,14.135634 7.7517437,14.47041 7.1725975,15.043452 6.4623687,15.420975 5.46875,15.683937 4.6384922,15.903666 3.5201156,16.012803 2.4375,15.979745 Z M 9.6315094,9.4921875 C 8.9208444,8.7832031 8.3192781,8.1651516 8.2946956,8.1187394 8.2263028,7.9896134 8.2404763,7.9107406 8.3515625,7.8022838 8.4522341,7.703995 9.0393597,7.0268159 10.029248,5.8672753 10.31174,5.5363675 10.628668,5.1742188 10.733532,5.0625 c 0.104863,-0.1117187 0.41116,-0.4654706 0.68066,-0.7861153 0.2695,-0.3206447 0.50142,-0.5878322 0.515377,-0.59375 0.01396,-0.00592 0.282068,-0.3156003 0.595801,-0.6881836 0.313733,-0.3725832 0.581254,-0.6819582 0.594492,-0.6875 C 13.1331,2.3014092 13.339217,2.0648438 13.5779,1.78125 13.816583,1.4976562 14.10412,1.1663858 14.216872,1.0450936 14.329624,0.92380125 14.576563,0.63930769 14.765625,0.41288559 L 15.109375,0.00120906 15.465781,6.0453e-4 15.822187,0 15.763409,0.0703125 c -0.03233,0.03867187 -0.132508,0.14765625 -0.222625,0.2421875 -0.09012,0.0945313 -0.329518,0.36472384 -0.532003,0.600428 -0.667025,0.7764526 -1.051713,1.2215349 -1.34399,1.5549903 -0.158583,0.1809262 -0.541397,0.626483 -0.850696,0.9901264 -0.3093,0.3636431 -0.57374,0.6659869 -0.587646,0.671875 -0.01391,0.00589 -0.254882,0.284924 -0.535501,0.6200803 -0.280619,0.3351562 -0.554892,0.6515625 -0.609495,0.703125 -0.0546,0.051563 -0.330814,0.3644925 -0.613803,0.6954003 -0.282989,0.3309078 -0.7578391,0.885565 -1.0552231,1.2325716 L 8.8717291,8.0120181 9.9435525,9.0841794 11.015376,10.156341 13.296751,7.8824434 C 14.551507,6.6318 15.673502,5.5173266 15.790072,5.4058356 L 16.00202,5.203125 15.99322,5.5625 15.98442,5.921875 13.545874,8.3515625 C 11.423892,10.465835 11.095407,10.78125 11.0155,10.78125 c -0.07924,0 -0.268996,-0.176749 -1.3839456,-1.2890625 z"
       id="path837"
       inkscape:connector-curvature="0" />
  </g>
</svg>
