<?xml version="1.0" encoding="UTF-8" standalone="no"?>
<!-- Created with Inkscape (http://www.inkscape.org/) -->

<svg
   version="1.1"
   id="svg2"
   width="1600"
   height="1600"
   viewBox="0 0 1600 1600"
   sodipodi:docname="builtin_modifier.svg"
   inkscape:version="1.2.2 (732a01da63, 2022-12-09)"
   xmlns:inkscape="http://www.inkscape.org/namespaces/inkscape"
   xmlns:sodipodi="http://sodipodi.sourceforge.net/DTD/sodipodi-0.dtd"
   xmlns="http://www.w3.org/2000/svg"
   xmlns:svg="http://www.w3.org/2000/svg"
   xmlns:rdf="http://www.w3.org/1999/02/22-rdf-syntax-ns#"
   xmlns:cc="http://creativecommons.org/ns#"
   xmlns:dc="http://purl.org/dc/elements/1.1/">
  <metadata
     id="metadata8">
    <rdf:RDF>
      <cc:Work
         rdf:about="">
        <dc:format>image/svg+xml</dc:format>
        <dc:type
           rdf:resource="http://purl.org/dc/dcmitype/StillImage" />
      </cc:Work>
    </rdf:RDF>
  </metadata>
  <defs
     id="defs6" />
  <sodipodi:namedview
     pagecolor="#808080"
     bordercolor="#666666"
     borderopacity="1"
     objecttolerance="10"
     gridtolerance="10"
     guidetolerance="10"
     inkscape:pageopacity="0"
     inkscape:pageshadow="2"
     inkscape:window-width="1993"
     inkscape:window-height="1009"
     id="namedview4"
     showgrid="false"
     inkscape:zoom="0.5"
     inkscape:cx="219"
     inkscape:cy="84"
     inkscape:window-x="-8"
     inkscape:window-y="-8"
     inkscape:window-maximized="1"
     inkscape:current-layer="BUILTIN_MODIFIER"
     inkscape:showpageshadow="0"
     inkscape:pagecheckerboard="true"
     inkscape:deskcolor="#d1d1d1" />
  <g
     id="BUILTIN_MODIFIER"
     transform="matrix(100,0,0,100,0,4.9999997e-5)"
     style="stroke-width:0.0114286">
    <path
       style="fill:none;stroke-width:0.000357143"
       d="M 0,11.673295 V 7.3465909 l 0.07670455,0.076704 C 0.20262121,7.5492122 0.37442022,7.5306269 0.54593019,7.3725344 0.70490363,7.2259978 0.72429591,7.1786641 0.92260606,6.453125 1.0935063,5.8278678 1.3667812,4.9775181 1.4042627,4.9543531 1.4316884,4.9374031 1.6466104,5.5602553 1.808207,6.125 c 0.1051524,0.3674844 0.3751815,1.395715 0.6565381,2.5 0.5255158,2.062575 0.8953327,3.079567 1.2968587,3.566342 0.2935399,0.355862 0.5626271,0.494182 0.9637865,0.495416 0.3766416,0.0012 0.5475916,-0.07595 0.8550291,-0.385697 C 5.7984459,12.081399 5.8565256,11.997979 6.0080303,11.686879 6.2920131,11.10375 6.5978709,10.153374 6.9733159,8.6875 7.5187162,6.5580587 7.7445181,5.7415116 7.9440244,5.1772147 l 0.097547,-0.2759103 0.058403,0.1509103 c 0.1771575,0.4577672 0.4764981,1.5248656 0.9596012,3.4208153 0.4282875,1.680826 0.714795,2.581619 1.0201624,3.207439 0.137467,0.281724 0.217169,0.400097 0.397656,0.590599 0.31108,0.328341 0.49757,0.416383 0.881981,0.416383 0.380622,0 0.568684,-0.08831 0.883141,-0.414709 0.191067,-0.198324 0.256183,-0.296421 0.41242,-0.621312 0.290367,-0.603813 0.567068,-1.462782 0.939676,-2.917055 0.711947,-2.7787031 1.023061,-3.8507906 1.095303,-3.7743803 0.04287,0.045346 0.219724,0.5837669 0.391785,1.19278 0.09415,0.333245 0.190716,0.6436769 0.214592,0.6898484 0.02388,0.046172 0.100613,0.1356263 0.170525,0.1987878 0.160325,0.1448441 0.335163,0.15945 0.456478,0.038134 L 16,7.0028409 V 11.50142 16 H 8 0 Z M 11.210082,10.196424 C 11.019565,9.6289425 10.851455,9.0244831 10.468854,7.53125 9.7126619,4.5799475 9.4249125,3.7838166 8.9228603,3.25387 8.6206719,2.9348918 8.4281084,2.8438083 8.0558597,2.8437747 7.7077234,2.8437431 7.5105259,2.9147827 7.2742984,3.1253291 6.7520888,3.5907669 6.3845922,4.5357681 5.7371162,7.078125 5.1790644,9.2693525 4.7862734,10.619857 4.7190884,10.578334 4.6428563,10.53122 4.2701241,9.2359725 3.7523044,7.21875 3.2222247,5.1537691 3.0043608,4.4698522 2.6631788,3.7997766 2.4355401,3.3526978 2.1897153,3.0847357 1.8734973,2.9389813 1.6627593,2.8418459 1.6362916,2.8372104 1.3646605,2.849865 1.0211302,2.8658692 0.86765659,2.9265961 0.63152472,3.1399544 0.43788025,3.3149228 0.31554916,3.48408 0.13385368,3.828125 l -0.13202889,0.25 L 9.1239313e-4,2.0390625 0,0 h 8 8 v 1.9446591 1.944659 L 15.854645,3.6399716 C 15.771353,3.4970894 15.619628,3.3021616 15.499293,3.1834378 15.229069,2.9168305 15.049086,2.8437397 14.66289,2.8437747 14.288197,2.843809 14.09863,2.9343165 13.789198,3.260915 13.527808,3.5368056 13.326031,3.9202022 13.080592,4.6073331 12.933208,5.0199503 12.617062,6.0907434 12.484887,6.625 c -0.455219,1.8400078 -0.917512,3.496443 -1.09092,3.908859 -0.03832,0.09115 -0.04269,0.08313 -0.183885,-0.337435 z"
       id="path823"
       inkscape:connector-curvature="0" />
    <path
       style="fill:#fe9898;stroke-width:0.000357143"
       d="M 4.3091394,12.613931 C 4.0670959,12.514364 3.9596509,12.431437 3.7616038,12.191342 3.3600778,11.704567 2.9902609,10.687575 2.4647451,8.625 2.1833885,7.520715 1.9133594,6.4924844 1.808207,6.125 1.6466104,5.5602553 1.4316884,4.9374031 1.4042627,4.9543531 1.3667812,4.9775181 1.0935063,5.8278678 0.92260606,6.453125 0.72429591,7.1786641 0.70490363,7.2259978 0.54593019,7.3725344 0.37442022,7.5306269 0.20262121,7.5492122 0.07670455,7.4232953 L 0,7.3465909 V 5.7193903 4.0921897 L 0.11361619,3.8664075 C 0.27661523,3.5424894 0.4403845,3.3126528 0.63075272,3.1406484 0.86767366,2.9265822 1.0208772,2.865881 1.3646605,2.849865 1.6362916,2.83721 1.6627593,2.841845 1.8734973,2.938981 2.1897153,3.0847354 2.4355401,3.3526975 2.6631788,3.7997763 3.0043608,4.4698519 3.2222247,5.1537688 3.7523044,7.2187497 4.2701241,9.2359722 4.6428563,10.53122 4.7190884,10.578334 4.7862734,10.619854 5.1790644,9.2693522 5.7371162,7.0781247 6.3845922,4.5357681 6.7520887,3.5907669 7.2742984,3.1253291 7.5105259,2.9147827 7.7077234,2.8437431 8.0558597,2.8437747 8.4281084,2.843809 8.6206719,2.9348918 8.9228603,3.25387 9.1774441,3.5225984 9.3602012,3.8515541 9.5772044,4.4316625 9.8337428,5.11746 9.9709209,5.6035891 10.668667,8.2995716 c 0.243368,0.940335 0.490168,1.7879934 0.621308,2.1339454 l 0.07549,0.199143 0.159574,-0.480393 C 11.732398,9.5280109 12.109748,8.1413203 12.484887,6.625 12.617062,6.0907434 12.933208,5.0199503 13.080592,4.6073331 13.326031,3.9202022 13.527808,3.5368056 13.789198,3.260915 14.09863,2.9343165 14.288197,2.8438086 14.66289,2.8437747 c 0.386196,-3.44e-5 0.566179,0.073056 0.836403,0.3396631 0.120335,0.1187238 0.27206,0.3136516 0.355352,0.4565338 L 16,3.8893181 v 1.5567616 1.5567612 l -0.07671,0.076704 C 15.80198,7.2008609 15.627142,7.186255 15.466817,7.0414109 15.396905,6.9782494 15.320169,6.888795 15.296292,6.8426231 15.272416,6.7964516 15.175849,6.4860197 15.0817,6.1527747 14.909639,5.5437616 14.732788,5.0053412 14.689915,4.9599947 c -0.07224,-0.07641 -0.383356,0.9956772 -1.095303,3.7743803 -0.372608,1.454273 -0.649309,2.313242 -0.939676,2.917055 -0.156237,0.324891 -0.221353,0.422988 -0.41242,0.621312 -0.314457,0.326398 -0.502519,0.414709 -0.883141,0.414709 -0.384411,0 -0.570901,-0.08804 -0.881981,-0.416383 C 10.296907,12.080566 10.217205,11.962193 10.079738,11.680469 9.7743709,11.054649 9.4878634,10.153856 9.0595759,8.47303 8.5764728,6.5770803 8.2771322,5.5099819 8.0999747,5.0522147 L 8.0415719,4.9013044 7.9440244,5.1772147 C 7.7445181,5.7415116 7.5187163,6.5580587 6.9733159,8.6875 c -0.375445,1.465874 -0.6813028,2.41625 -0.9652856,2.999379 -0.1515047,0.3111 -0.2095844,0.39452 -0.4276109,0.614182 -0.2011753,0.202683 -0.2889397,0.267584 -0.4331541,0.320312 -0.2537487,0.09278 -0.6020169,0.08968 -0.8381259,-0.0074 z M 5.0431262,12.373719 C 5.300645,12.277368 5.5710231,11.97542 5.7753572,11.55599 6.0431672,11.006264 6.3549481,10.031992 6.7233159,8.59375 7.4362,5.8103919 7.7101994,4.8821041 7.8647806,4.7265625 c 0.085483,-0.086013 0.2566197,-0.093654 0.3499732,-0.015625 0.1480459,0.1237434 0.4507918,1.1405941 1.1114115,3.7329612 0.5670556,2.2252083 0.9233727,3.1940923 1.3378897,3.6379383 0.241533,0.258623 0.430377,0.355052 0.69532,0.355052 0.260678,0 0.452379,-0.09715 0.696408,-0.352909 0.400318,-0.419568 0.76095,-1.383064 1.288829,-3.443355 0.770165,-3.0059259 1.005599,-3.7946916 1.16624,-3.9072091 0.09708,-0.067998 0.254192,-0.056977 0.347772,0.024397 0.0989,0.085999 0.255223,0.51897 0.486945,1.3486916 0.131438,0.4706393 0.183677,0.6121306 0.256712,0.6953125 0.05043,0.057438 0.104299,0.1044334 0.119706,0.1044334 0.01612,0 0.02801,-0.6196206 0.02801,-1.4591197 v -1.45912 L 15.619511,3.7674428 C 15.446673,3.47529 15.175903,3.2107194 14.982193,3.1447156 14.605559,3.0163838 14.292172,3.111466 13.976014,3.4499913 13.749043,3.6930206 13.560559,4.0584741 13.330758,4.7010831 13.183372,5.11323 12.867385,6.1831891 12.734887,6.71875 c -0.580876,2.3479163 -1.045001,3.937955 -1.192536,4.08549 -0.08644,0.08644 -0.257308,0.09426 -0.350855,0.01607 C 11.05603,10.707084 10.76538,9.754905 10.235212,7.6875 9.4786481,4.7372503 9.1950166,3.9343128 8.7356819,3.4424503 8.5052603,3.1957119 8.3085466,3.0944894 8.0586166,3.0940553 7.2386294,3.092631 6.8122291,3.932015 5.9871162,7.171875 5.3792006,9.5588953 5.0620659,10.628275 4.9199381,10.770403 4.8145022,10.875839 4.6465394,10.870097 4.5336397,10.757198 4.3865591,10.610117 4.1218012,9.7258159 3.5023044,7.3125 2.9796672,5.2765119 2.7519884,4.5576938 2.4303589,3.9281975 2.0849379,3.2521366 1.6492318,2.9863566 1.1384844,3.1401566 0.86198487,3.2234181 0.58459141,3.5221066 0.34802688,3.9912963 L 0.25,4.1857178 v 1.532141 C 0.25,6.6004131 0.26187666,7.25 0.27801274,7.25 0.33268953,7.25 0.49435506,7.0343081 0.51635394,6.9320087 0.56478997,6.7067709 0.85366156,5.7108106 0.99052053,5.2971953 1.1537649,4.8038381 1.2342878,4.6875 1.4125178,4.6875 c 0.057654,0 0.1346846,0.020914 0.171179,0.046476 0.1469947,0.1029591 0.4407268,1.0891697 1.1309771,3.7972744 0.593497,2.3285056 0.9972952,3.3544556 1.4588098,3.7064706 0.2568279,0.195892 0.5761097,0.245822 0.8696425,0.135998 z"
       id="path821"
       inkscape:connector-curvature="0" />
    <path
       style="fill:#fe0000;stroke-width:0.000357143"
       d="M 4.4278894,12.375876 C 4.2212403,12.295133 4.0944266,12.191674 3.9236681,11.964515 3.5661106,11.488858 3.21276,10.485424 2.7146739,8.53125 2.0244236,5.8231453 1.7306915,4.8369347 1.5836968,4.7339756 1.5472024,4.7084141 1.4701719,4.6875 1.4125178,4.6875 1.2342878,4.6875 1.1537649,4.8038381 0.99052053,5.2971953 0.85366156,5.7108106 0.56478997,6.7067709 0.51635394,6.9320087 0.49435506,7.0343081 0.33268953,7.25 0.27801274,7.25 0.26187666,7.25 0.25,6.6004131 0.25,5.7178588 V 4.1857178 L 0.34802688,3.9912963 C 0.58459141,3.5221066 0.86198487,3.2234181 1.1384844,3.1401566 c 0.5107474,-0.1538 0.9464535,0.11198 1.2918745,0.7880409 0.3216295,0.6294963 0.5493083,1.3483144 1.0719455,3.3843025 0.6194968,2.4133159 0.8842547,3.297617 1.0313353,3.444698 0.1128997,0.112899 0.2808625,0.118641 0.3862984,0.0132 C 5.0620659,10.62827 5.3792006,9.5588903 5.9871162,7.17187 6.8122291,3.93201 7.2386294,3.092626 8.0586166,3.0940503 c 0.24993,4.34e-4 0.4466437,0.1016566 0.6770653,0.348395 0.4593347,0.4918625 0.7429662,1.2948 1.4995301,4.2450497 0.530168,2.067405 0.820818,3.019584 0.956284,3.132813 0.09355,0.07819 0.264419,0.07036 0.350855,-0.01607 0.147535,-0.147535 0.61166,-1.7375738 1.192536,-4.08549 0.132498,-0.5355609 0.448486,-1.60552 0.595871,-2.0176669 0.229801,-0.642609 0.418285,-1.0080625 0.645256,-1.2510919 0.316158,-0.3385252 0.629545,-0.4336074 1.006179,-0.3052756 0.19371,0.066004 0.46448,0.3305744 0.637318,0.6227272 L 15.75,3.9880103 v 1.45912 c 0,0.8394991 -0.0119,1.4591197 -0.02801,1.4591197 -0.01541,0 -0.06927,-0.046995 -0.119706,-0.1044334 C 15.529254,6.7186346 15.47701,6.5771434 15.345572,6.1065041 15.113851,5.2767825 14.957527,4.8438116 14.858627,4.7578125 14.765047,4.6764385 14.607937,4.6654175 14.510856,4.7334155 14.350214,4.845933 14.11478,5.6346987 13.344615,8.6406246 12.816736,10.700916 12.456104,11.664412 12.055786,12.08398 c -0.244029,0.255764 -0.43573,0.352909 -0.696408,0.352909 -0.264943,0 -0.453787,-0.09643 -0.69532,-0.355052 C 10.249538,11.637991 9.8932209,10.669108 9.3261653,8.4438988 8.6655456,5.8515316 8.3627997,4.8346809 8.2147538,4.7109375 8.1214003,4.6329084 7.9502631,4.6405491 7.8647806,4.7265625 7.7101994,4.8821041 7.4362,5.8103919 6.7233159,8.59375 6.3549481,10.031992 6.0431672,11.006264 5.7753572,11.55599 5.4932006,12.135164 5.1294491,12.440049 4.7253903,12.436038 4.6443944,12.435235 4.5105191,12.408161 4.4278894,12.375876 Z"
       id="path819"
       inkscape:connector-curvature="0" />
  </g>
</svg>
