<?xml version="1.0" encoding="UTF-8" standalone="no"?>
<svg
   height="1600"
   viewBox="0 0 1600 1599.9999"
   width="1600"
   version="1.1"
   id="svg17"
   sodipodi:docname="cancel_large.svg"
   inkscape:version="1.2.2 (732a01da63, 2022-12-09)"
   xmlns:inkscape="http://www.inkscape.org/namespaces/inkscape"
   xmlns:sodipodi="http://sodipodi.sourceforge.net/DTD/sodipodi-0.dtd"
   xmlns="http://www.w3.org/2000/svg"
   xmlns:svg="http://www.w3.org/2000/svg">
  <defs
     id="defs19" />
  <sodipodi:namedview
     pagecolor="#808080"
     showgrid="true"
     id="namedview3"
     bordercolor="#eeeeee"
     borderopacity="1"
     inkscape:showpageshadow="0"
     inkscape:pageopacity="0"
     inkscape:pagecheckerboard="true"
     inkscape:deskcolor="#303030"
     inkscape:zoom="0.50000001"
     inkscape:cx="1068"
     inkscape:cy="887.99998"
     inkscape:window-width="2560"
     inkscape:window-height="1009"
     inkscape:window-x="-8"
     inkscape:window-y="-8"
     inkscape:window-maximized="1"
     inkscape:current-layer="CANCEL">
    <inkscape:grid
       id="grid5"
       units="px"
       spacingx="100"
       spacingy="100"
       color="#4772b3"
       opacity="0.2"
       visible="true" />
  </sodipodi:namedview>
  <g
     clip-rule="evenodd"
     enable-background="new"
     id="g15"
     transform="matrix(0.28003891,0,0,0.28003891,72.012188,674.0839)"
     style="stroke-width:4.08107"
     inkscape:label="Cancel">
    <path
       d="M 181.7395,1436.873 H 5813.4343 V 2949.2905 H 181.7395 Z"
       fill="none"
       stroke-linejoin="round"
       stroke-miterlimit="2"
       stroke-width="10.2561"
       id="path5" />
    <g
       id="CANCEL"
       transform="matrix(357.09323,0,0,357.09323,-245.99425,-2412.8116)"
       style="stroke-width:0.0114286">
      <path
         style="fill:none;stroke-width:0.000357143"
         d="m 0.00149176,13.539063 c 0.00138073,-2.277761 0.00514955,-2.450483 0.05063303,-2.320481 0.02702769,0.07725 0.08861715,0.196782 0.13686545,0.265625 0.10353578,0.147729 4.22086756,4.258997 4.35788476,4.351466 0.051563,0.0348 0.1570312,0.08534 0.234375,0.112307 0.1300425,0.04535 -0.044571,0.04915 -2.3203125,0.05053 L 0,16 Z M 11.218582,15.947875 c 0.07725,-0.02703 0.196782,-0.08862 0.265625,-0.136865 0.147729,-0.103536 4.258997,-4.220868 4.351466,-4.357885 0.0348,-0.05156 0.08534,-0.157031 0.112307,-0.234375 0.04535,-0.130042 0.04915,0.04457 0.05053,2.320313 L 16,16 13.539063,15.9985 C 11.261302,15.9971 11.08858,15.9934 11.218582,15.94787 Z M 0.00149176,2.4609375 0,0 2.4609375,0.00149176 C 4.7366791,0.00287126 4.9112925,0.00667374 4.78125,0.05202022 4.7039062,0.0789904 4.5984375,0.12952827 4.546875,0.16432661 4.4098578,0.25679634 0.29252602,4.3680644 0.18899024,4.5157934 0.14074194,4.5846359 0.07915248,4.7041672 0.05212479,4.7814184 0.00664131,4.9114203 0.00287249,4.7386975 0.00149176,2.4609375 Z M 15.96875,4.8590344 c 0,-0.19606 -0.13272,-0.3415425 -2.246978,-2.4630543 C 12.559954,1.2301754 11.553049,0.23694462 11.484207,0.18880061 11.415364,0.14065661 11.295833,0.07915248 11.218582,0.05212479 11.08858,0.00664131 11.261302,0.00287249 13.539063,0.00149176 L 16,0 v 2.453125 c 0,1.3492188 -0.007,2.453125 -0.01563,2.453125 -0.0086,0 -0.01563,-0.021247 -0.01563,-0.047216 z"
         id="path825"
         inkscape:connector-curvature="0" />
      <path
         style="display:none;fill:#fefefe;stroke-width:0.000357143"
         d="M 5.203125,11.19063 C 5.0486456,11.11895 4.8937822,10.959312 4.8297087,10.805691 c -0.06652,-0.159488 -0.061007,-0.447875 0.01152,-0.602566 0.038273,-0.08163 0.4174979,-0.4827172 1.0930675,-1.1560763 L 6.9687578,8.0159725 5.9229934,6.9689237 C 5.2187475,6.2638128 4.8615572,5.8839325 4.8292397,5.8056912 4.7634825,5.6464916 4.7689384,5.3576181 4.8406203,5.203125 4.9122959,5.0486456 5.0719381,4.8937822 5.2255587,4.8297087 5.3741166,4.7677472 5.6562644,4.7675191 5.8056912,4.82924 5.8839325,4.8615575 6.2638128,5.2187478 6.9689237,5.9229937 L 8.0159725,6.9687581 9.0470488,5.9342966 c 0.673359,-0.6755697 1.0744432,-1.0547941 1.1560762,-1.0930675 0.154691,-0.072527 0.443078,-0.07804 0.602566,-0.01152 0.153621,0.064073 0.313263,0.2189368 0.384939,0.3734162 0.07717,0.1663138 0.07688,0.4597244 -6.1e-4,0.625 -0.03827,0.081633 -0.417497,0.4827172 -1.093067,1.1560763 L 9.0624913,8.0152778 10.108256,9.0623266 c 0.704246,0.7051109 1.061436,1.0849914 1.093753,1.1632324 0.06172,0.149427 0.06149,0.431575 -4.68e-4,0.580133 -0.06407,0.15362 -0.218937,0.313262 -0.373417,0.384938 -0.166313,0.07717 -0.459724,0.07688 -0.625,-6.09e-4 -0.08163,-0.03827 -0.4827168,-0.417498 -1.1560759,-1.093068 L 8.0159719,9.0624916 6.9689231,10.108256 C 6.2638122,10.812502 5.8839319,11.169692 5.8056906,11.20201 5.6464909,11.26777 5.3576175,11.26231 5.203125,11.19063 Z"
         id="path6711" />
      <path
         style="display:none;fill:#fefefe;stroke-width:0.000357143"
         d="M 12.226665,12.226461 14,10.452921 V 8 5.5470787 L 12.226665,3.7735394 10.453331,2 H 8.0002047 5.5470787 L 3.7735394,3.7733347 2,5.5466694 V 7.9997953 10.452921 L 3.7733347,12.226461 5.5466694,14 H 8 10.453331 Z"
         id="path6709" />
      <path
         style="display:inline;opacity:0.2;fill:#fefefe;stroke-width:0.000357143"
         d="M 3.054598,12.945224 1,10.890449 V 7.9998231 5.1091975 L 3.054775,3.0545987 5.109551,1 H 8 10.890449 L 12.945224,3.0545987 15,5.1091975 V 8 10.890803 L 12.945224,12.945401 10.890449,15 H 7.999823 5.109197 Z"
         id="path823" />
      <path
         style="fill:#fe0032;stroke-width:0.000357143;opacity:0.7"
         d="M 4.1327009,11.867077 2.5,10.234154 V 8 5.7658462 L 4.1327009,4.1329231 5.7654019,2.5 H 8 10.234598 L 11.867299,4.1329231 13.5,5.7658462 v 2.234376 2.2343758 L 11.867077,11.867299 10.234154,13.5 H 7.9997778 5.7654019 Z m 1.8583144,-0.18326 c 0.166245,-0.06084 0.2553441,-0.140335 1.1026141,-0.983815 L 8.0153838,9.78237 8.9373794,10.699959 C 10.004307,11.761788 9.98659,11.75 10.515625,11.75 c 0.422437,0 0.59142,-0.0684 0.878697,-0.355678 C 11.681599,11.107045 11.75,10.938062 11.75,10.515625 11.75,9.98659 11.76179,10.004307 10.699959,8.9373794 L 9.78237,8.0153838 10.700002,7.0936294 C 11.761859,6.0270016 11.75,6.0448234 11.75,5.515625 11.75,5.0931884 11.681599,4.9242047 11.394322,4.6369278 11.107045,4.3496509 10.938062,4.28125 10.515625,4.28125 c -0.5291984,0 -0.511377,-0.011859 -1.5780044,1.0499984 L 8.0158663,6.24888 7.0938706,5.3312909 C 6.0269431,4.2694625 6.04466,4.28125 5.515625,4.28125 5.0931884,4.28125 4.9242047,4.3496509 4.6369278,4.6369278 4.3496509,4.9242047 4.28125,5.0931884 4.28125,5.515625 c 0,0.529035 -0.011787,0.5113181 1.0500409,1.5782456 L 6.24888,8.0158663 5.3312484,8.9376206 C 4.2693912,10.004248 4.28125,9.9864266 4.28125,10.515625 c 0,0.411418 0.070212,0.590285 0.3406781,0.867888 0.2803953,0.287795 0.4664781,0.364723 0.8847122,0.365745 0.2327628,5.69e-4 0.3456753,-0.01469 0.484375,-0.06544 z"
         id="path821"
         inkscape:connector-curvature="0" />
      <path
         style="fill:#650000;stroke-width:0.000357143"
         d="M 4.7814184,15.948181 C 4.7041672,15.920985 4.5846359,15.859343 4.5157934,15.811199 4.4469506,15.763055 3.4400463,14.769825 2.2782277,13.60402 0.61125647,11.931329 0.14999398,11.451428 0.09072767,11.328125 L 0.015625,11.171875 V 8 4.828125 L 0.09053385,4.671875 C 0.20024508,4.4430319 4.4430319,0.20024508 4.671875,0.09053385 L 4.828125,0.015625 H 8 11.171875 l 0.15625,0.07490885 c 0.228843,0.10971123 4.47163,4.35249805 4.581341,4.58134115 l 0.07491,0.15625 V 8 11.171875 l -0.07491,0.15625 c -0.109711,0.228843 -4.352498,4.47163 -4.581341,4.581341 l -0.15625,0.07491 -3.125,0.0066 c -2.7811556,0.0059 -3.1404544,0.0012 -3.2654566,-0.04282 z M 12.945224,12.945401 15,10.890803 V 8 5.1091975 L 12.945224,3.0545987 10.890449,1 H 8 5.1095512 L 3.0547756,3.0545987 1,5.1091975 V 7.9998231 10.890449 L 3.0545987,12.945224 5.1091975,15 H 7.9998231 10.890449 Z M 3.7733347,12.226461 2,10.452921 V 7.9997953 5.5466694 L 3.7735394,3.7733347 5.5470787,2 h 2.453126 2.4531263 L 12.226665,3.7735394 14,5.5470787 V 8 10.452921 L 12.226665,12.226461 10.453331,14 H 8 5.5466694 Z M 11.867077,11.867299 13.5,10.234598 V 8.0002222 5.7658462 L 11.867299,4.1329231 10.234598,2.5 H 8 5.7654019 L 4.1327009,4.1329231 2.5,5.7658462 V 8 10.234154 L 4.1327009,11.867077 5.7654019,13.5 H 7.9997778 10.234154 Z M 5.015625,11.671834 C 4.7580397,11.566489 4.4428594,11.244844 4.3484906,10.991015 4.2547594,10.738903 4.2542659,10.294834 4.3474344,10.040235 4.4082697,9.8739897 4.4877691,9.7848906 5.3312494,8.9376206 L 6.2488809,8.0158662 5.3312919,7.0938706 C 4.2694625,6.0269431 4.28125,6.04466 4.28125,5.515625 4.28125,5.0931884 4.3496509,4.9242047 4.6369278,4.6369278 4.9242047,4.3496509 5.0931884,4.28125 5.515625,4.28125 c 0.529035,0 0.5113181,-0.011787 1.5782456,1.0500409 L 8.0158663,6.24888 8.9376206,5.3312484 C 10.004248,4.2693912 9.9864266,4.28125 10.515625,4.28125 c 0.422437,0 0.59142,0.068401 0.878697,0.3556778 C 11.681599,4.9242047 11.75,5.0931884 11.75,5.515625 c 0,0.5291984 0.01186,0.5113766 -1.049998,1.5780044 L 9.78237,8.0153838 10.699959,8.9373794 C 11.761788,10.004307 11.75,9.98659 11.75,10.515625 c 0,0.422437 -0.0684,0.59142 -0.355678,0.878697 C 11.107045,11.681599 10.938062,11.75 10.515625,11.75 9.98659,11.75 10.004307,11.76179 8.9373794,10.699959 L 8.0153838,9.78237 7.0936294,10.700002 C 6.0237456,11.7651 6.0457134,11.750576 5.5066403,11.749258 5.2573175,11.748649 5.1696469,11.734825 5.015625,11.671834 Z M 5.8056912,11.20201 c 0.078241,-0.03232 0.4581216,-0.389508 1.1632325,-1.093753 L 8.0159725,9.0624922 9.0470488,10.096954 c 0.673359,0.675569 1.0744432,1.054794 1.1560762,1.093067 0.165276,0.07749 0.458686,0.07778 0.625,6.1e-4 0.154479,-0.07168 0.309343,-0.231318 0.373416,-0.384939 0.06196,-0.148558 0.06219,-0.430705 4.69e-4,-0.580132 C 11.16969,10.14732 10.812502,9.7674381 10.108256,9.0623272 L 9.0624919,8.0152784 10.096953,6.9842022 c 0.67557,-0.6733591 1.054794,-1.0744431 1.093068,-1.1560763 0.07749,-0.1652756 0.07778,-0.4586862 6.09e-4,-0.625 -0.07168,-0.1544793 -0.231318,-0.3093428 -0.384938,-0.3734162 -0.159488,-0.06652 -0.447875,-0.061007 -0.602566,0.01152 -0.08163,0.038273 -0.4827176,0.4174978 -1.1560766,1.0930675 L 8.0159731,6.9687587 6.9689244,5.9229944 C 6.2638134,5.2187484 5.8839331,4.8615581 5.8056919,4.8292406 5.656265,4.76752 5.3741172,4.7677481 5.2255594,4.8297094 5.0719387,4.8937828 4.9122966,5.0486462 4.8406209,5.2031256 4.7689391,5.3576187 4.7634831,5.6464922 4.8292403,5.8056919 4.8615578,5.8839331 5.2187481,6.2638134 5.9229941,6.9689244 L 6.9687584,8.0159731 5.9342969,9.0470494 c -0.6755697,0.673359 -1.0547941,1.0744426 -1.0930675,1.1560766 -0.072527,0.154691 -0.07804,0.443078 -0.01152,0.602566 0.064073,0.15362 0.2189368,0.313263 0.3734162,0.384938 0.1544931,0.07168 0.4433666,0.07714 0.6025656,0.01138 z"
         id="path819"
         inkscape:connector-curvature="0" />
    </g>
  </g>
</svg>
