<?xml version="1.0" encoding="UTF-8" standalone="no"?>
<!-- Created with Inkscape (http://www.inkscape.org/) -->

<svg
   version="1.1"
   id="svg2"
   width="1600"
   height="1600"
   viewBox="0 0 1600 1600"
   sodipodi:docname="centertomouse.svg"
   inkscape:version="1.2.2 (732a01da63, 2022-12-09)"
   xmlns:inkscape="http://www.inkscape.org/namespaces/inkscape"
   xmlns:sodipodi="http://sodipodi.sourceforge.net/DTD/sodipodi-0.dtd"
   xmlns="http://www.w3.org/2000/svg"
   xmlns:svg="http://www.w3.org/2000/svg"
   xmlns:rdf="http://www.w3.org/1999/02/22-rdf-syntax-ns#"
   xmlns:cc="http://creativecommons.org/ns#"
   xmlns:dc="http://purl.org/dc/elements/1.1/">
  <metadata
     id="metadata8">
    <rdf:RDF>
      <cc:Work
         rdf:about="">
        <dc:format>image/svg+xml</dc:format>
        <dc:type
           rdf:resource="http://purl.org/dc/dcmitype/StillImage" />
      </cc:Work>
    </rdf:RDF>
  </metadata>
  <defs
     id="defs6" />
  <sodipodi:namedview
     pagecolor="#808080"
     bordercolor="#666666"
     borderopacity="1"
     objecttolerance="10"
     gridtolerance="10"
     guidetolerance="10"
     inkscape:pageopacity="0"
     inkscape:pageshadow="2"
     inkscape:window-width="1993"
     inkscape:window-height="1009"
     id="namedview4"
     showgrid="false"
     inkscape:zoom="0.5"
     inkscape:cx="87"
     inkscape:cy="66"
     inkscape:window-x="-8"
     inkscape:window-y="-8"
     inkscape:window-maximized="1"
     inkscape:current-layer="CENTERTOMOUSE"
     inkscape:showpageshadow="0"
     inkscape:pagecheckerboard="true"
     inkscape:deskcolor="#d1d1d1" />
  <g
     id="CENTERTOMOUSE"
     transform="matrix(100,0,0,100,0,4.9999997e-5)"
     style="stroke-width:0.0114286">
    <path
       style="fill:none;stroke-width:0.000357143"
       d="M 0,8 V 0 h 8 8 v 8 8 H 8 0 Z m 7,6.5 V 14 H 4.5 2 V 11.5 9 H 1.5 1 v 3 3 H 4 7 Z M 15,12 V 9 H 14.5 14 v 2.5 2.5 h -0.65625 c -0.575757,0 -0.65625,-0.006 -0.65625,-0.04911 0,-0.04464 -0.0045,-0.04464 -0.04911,0 C 12.59489,13.994396 12.38447,14 10.794643,14 H 9 v 0.5 0.5 h 3 3 z m -5.5805441,1.83115 c 0.057722,-0.02412 0.4859869,-0.270544 0.9517001,-0.547613 0.639025,-0.380179 0.858355,-0.5262 0.894048,-0.595223 0.107989,-0.208827 0.08817,-0.263129 -0.593329,-1.625814 -0.352344,-0.704524 -0.640625,-1.2950819 -0.640625,-1.3123513 0,-0.020444 0.388108,-0.031399 1.112366,-0.031399 1.218871,0 1.22559,-9.5e-4 1.336523,-0.1887447 0.06928,-0.1172775 0.0651,-0.335735 -0.0086,-0.4518803 C 12.438752,9.0265625 10.956222,7.4164062 9.1769806,5.5 L 5.9419956,2.015625 6.4709978,2.0070746 7,1.9985241 V 1.4992621 1 H 4 1 V 4 7 H 1.5 2 V 4.5 2 h 1.6439684 c 1.5550532,0 1.64252,0.00296 1.6171875,0.054687 -0.01473,0.030078 -0.030913,2.3539062 -0.035964,5.1640625 -0.010155,5.6497555 -0.024637,5.2328965 0.1861253,5.3573975 0.1103209,0.06517 0.3042206,0.0709 0.3989078,0.01179 0.036174,-0.02258 0.4466537,-0.438326 0.9121762,-0.923871 0.4655225,-0.485548 0.8555325,-0.88262 0.8666894,-0.882385 0.011157,2.5e-4 0.3226284,0.654788 0.6921597,1.454557 0.3695313,0.79977 0.7016778,1.482333 0.7381031,1.516806 0.056524,0.0535 0.1842532,0.109771 0.2707132,0.119273 0.013443,0.0015 0.071668,-0.01705 0.1293896,-0.04116 z M 15,4 V 1 H 12 9 V 1.5 2 H 11.5 14 V 4.5 7 h 0.5 0.5 z m -2.321648,1.9300519 c -0.0075,-0.038872 -0.01387,-0.014427 -0.01422,0.054323 -3.47e-4,0.06875 0.0058,0.1005547 0.01359,0.070677 0.0078,-0.029878 0.0081,-0.086128 6.32e-4,-0.125 z"
       id="path823"
       inkscape:connector-curvature="0" />
    <path
       style="fill:#fefefe;stroke-width:0.000357143"
       d="M 1,12 V 9 H 1.5 2 V 11.5 14 H 4.5 7 V 14.5 15 H 4 1 Z m 8,2.5 V 14 H 11.5 14 V 11.5 9 h 0.5 0.5 v 3 3 H 12 9 Z M 9.4432975,12.79119 C 9.4268366,12.759942 9.1083516,12.073438 8.7355531,11.265625 7.9791241,9.6265272 7.9785759,9.625655 7.7043053,9.6241175 L 7.546875,9.623235 6.7899184,10.397555 6.0329622,11.171875 6.0321059,7.2507103 6.03125,3.3295453 6.104831,3.4069603 c 0.040469,0.042578 0.9650788,1.0399525 2.0546875,2.2163875 1.0896088,1.176435 2.2101575,2.38581 2.4901085,2.6875 L 11.158628,8.859375 10.196502,8.875 C 9.5511641,8.88548 9.2137963,8.902542 9.171875,8.926818 9.0433478,9.001247 8.9615225,9.121008 8.9461769,9.2571555 8.9317989,9.3847118 8.9759099,9.4833202 9.6529213,10.837093 10.050064,11.631233 10.375,12.286266 10.375,12.292721 c 0,0.0065 -0.172266,0.114363 -0.3828125,0.239795 -0.2105469,0.125433 -0.4134459,0.247731 -0.4508869,0.271774 -0.060324,0.03874 -0.071482,0.03725 -0.098003,-0.0131 z M 1,4 V 1 H 4 7 V 1.5 2 H 6.4674847 C 5.9642584,2 5.9297384,1.9961327 5.8398666,1.9296875 5.7756694,1.8822246 5.7007662,1.859375 5.609375,1.859375 c -0.091391,0 -0.1662944,0.02285 -0.2304916,0.070312 L 5.2837809,2 H 3.6418903 2 V 4.5 7 H 1.5 1 Z M 14,4.5 V 2 H 11.5 9 V 1.5 1 h 3 3 V 4 7 H 14.5 14 Z"
       id="path821"
       inkscape:connector-curvature="0" />
    <path
       style="fill:#000000;stroke-width:0.000357143"
       d="m 12.611616,13.976563 c 0.01556,-0.01289 0.03878,-0.0375 0.0516,-0.05469 0.01331,-0.01783 0.02353,-0.0078 0.0238,0.02344 2.81e-4,0.0304 -0.02265,0.05469 -0.05161,0.05469 -0.02865,0 -0.03936,-0.01055 -0.0238,-0.02344 z m -3.4414629,-0.13572 c -0.05251,-0.01483 -0.1247,-0.05892 -0.1604234,-0.09797 -0.035723,-0.03905 -0.3654172,-0.721322 -0.7326531,-1.516164 -0.367236,-0.794842 -0.6771954,-1.445233 -0.6887991,-1.445313 -0.011603,-9.3e-5 -0.4042319,0.39947 -0.8725078,0.887888 -0.4682756,0.488418 -0.8848341,0.903262 -0.9256853,0.921875 -0.040852,0.01861 -0.1315178,0.03384 -0.2014813,0.03384 -0.1060978,0 -0.1473381,-0.02013 -0.2485297,-0.121323 L 5.21875,12.382353 V 7.2582978 2.1342427 L 5.289559,2.0291686 c 0.040133,-0.059553 0.1218131,-0.1244863 0.1885378,-0.1498819 0.2619319,-0.099692 0.05014,-0.3071465 3.6680912,3.5929736 1.818815,1.9606669 3.324017,3.5951713 3.344892,3.6322319 0.02088,0.037061 0.03845,0.1358341 0.03906,0.2194969 9.87e-4,0.13571 -0.01198,0.1651975 -0.120216,0.2734375 L 12.288603,9.71875 h -1.128676 c -0.735184,0 -1.128677,0.010947 -1.128677,0.031399 0,0.017269 0.288281,0.607827 0.640625,1.312351 0.680818,1.361321 0.701233,1.417152 0.593991,1.624533 -0.03482,0.06733 -0.258509,0.216214 -0.882812,0.587578 -0.4598987,0.273569 -0.864304,0.511594 -0.898679,0.528946 -0.10437,0.05268 -0.2137794,0.06567 -0.3142219,0.03729 z M 9.9921875,12.532516 C 10.202734,12.407084 10.375,12.299176 10.375,12.292721 c 0,-0.0065 -0.323438,-0.658492 -0.71875,-1.448971 C 9.1593409,9.8501159 8.9375359,9.3751278 8.9376169,9.3048206 8.9377731,9.181 9.0295016,9.0230816 9.1454862,8.9470103 9.2222138,8.8966869 9.3352156,8.888945 10.19657,8.875 L 11.161684,8.859375 10.247543,7.875 C 9.7447647,7.3335938 8.6305756,6.13125 7.7715669,5.203125 6.9125581,4.275 6.1695741,3.4737078 6.1204912,3.4224759 l -0.089241,-0.093149 9.75e-4,3.921274 9.75e-4,3.9212741 0.7568378,-0.774228 0.7568381,-0.7742273 0.140625,9.062e-4 c 0.2082691,0.00134 0.3198547,0.084671 0.4324185,0.3229129 0.052593,0.1113132 0.3649728,0.7839562 0.6941772,1.4947622 0.3292047,0.710805 0.6121834,1.31794 0.6288422,1.349188 0.026837,0.05034 0.038045,0.05183 0.098363,0.0131 0.037441,-0.02404 0.24034,-0.146341 0.4508868,-0.271773 z M 12.664131,5.984375 c 3.47e-4,-0.06875 0.0067,-0.093195 0.01422,-0.054323 0.0075,0.038872 0.0072,0.095122 -6.31e-4,0.125 -0.0078,0.029878 -0.01394,-0.00193 -0.01359,-0.070677 z"
       id="path819"
       inkscape:connector-curvature="0" />
  </g>
</svg>
