<?xml version="1.0" encoding="UTF-8" standalone="no"?>
<!-- Created with Inkscape (http://www.inkscape.org/) -->

<svg
   version="1.1"
   id="svg2"
   width="1600"
   height="1600"
   viewBox="0 0 1600 1600"
   sodipodi:docname="circle.svg"
   inkscape:version="1.2.2 (732a01da63, 2022-12-09)"
   xmlns:inkscape="http://www.inkscape.org/namespaces/inkscape"
   xmlns:sodipodi="http://sodipodi.sourceforge.net/DTD/sodipodi-0.dtd"
   xmlns="http://www.w3.org/2000/svg"
   xmlns:svg="http://www.w3.org/2000/svg"
   xmlns:rdf="http://www.w3.org/1999/02/22-rdf-syntax-ns#"
   xmlns:cc="http://creativecommons.org/ns#"
   xmlns:dc="http://purl.org/dc/elements/1.1/">
  <metadata
     id="metadata8">
    <rdf:RDF>
      <cc:Work
         rdf:about="">
        <dc:format>image/svg+xml</dc:format>
        <dc:type
           rdf:resource="http://purl.org/dc/dcmitype/StillImage" />
      </cc:Work>
    </rdf:RDF>
  </metadata>
  <defs
     id="defs6" />
  <sodipodi:namedview
     pagecolor="#808080"
     bordercolor="#666666"
     borderopacity="1"
     objecttolerance="10"
     gridtolerance="10"
     guidetolerance="10"
     inkscape:pageopacity="0"
     inkscape:pageshadow="2"
     inkscape:window-width="1993"
     inkscape:window-height="1009"
     id="namedview4"
     showgrid="false"
     inkscape:zoom="0.5"
     inkscape:cx="771"
     inkscape:cy="714"
     inkscape:window-x="-8"
     inkscape:window-y="-8"
     inkscape:window-maximized="1"
     inkscape:current-layer="CIRCLE"
     inkscape:showpageshadow="0"
     inkscape:pagecheckerboard="true"
     inkscape:deskcolor="#d1d1d1" />
  <g
     id="CIRCLE"
     transform="matrix(100,0,0,100,0,4.9999997e-5)"
     style="stroke-width:0.0114286">
    <path
       style="fill:none;stroke-width:0.000357143"
       d="M 0,8 V 0 h 8 8 v 8 8 H 8 0 Z m 8.640625,6.967038 c 1.805369,-0.155586 3.575239,-1.072863 4.70997,-2.441055 1.069111,-1.289071 1.6473,-2.8776543 1.6473,-4.525983 0,-1.5014119 -0.492344,-2.9926759 -1.387798,-4.2035103 C 12.326665,2.0610313 10.20073,1.0021047 8,1.0021047 6.7194059,1.0021047 5.4355953,1.3623062 4.3247841,2.033268 2.2841931,3.2658431 1.0021047,5.5681653 1.0021047,8 c 0,1.6729816 0.6038977,3.305197 1.6954004,4.58233 0.7964002,0.931843 1.8980352,1.666241 3.0815618,2.054303 0.9641953,0.316146 1.845815,0.417941 2.8615581,0.330405 z M 7.2979884,13.932953 C 5.0562856,13.645668 3.18229,12.151799 2.3929869,10.022894 1.717708,8.2015356 2.0019012,6.1646091 3.1614463,4.5150384 3.4164988,4.1522006 4.1522006,3.4164988 4.5150384,3.1614463 5.9739738,2.1359058 7.74532,1.7881067 9.3961438,2.2030542 c 1.0414782,0.2617835 1.9503442,0.7595453 2.7040492,1.4809364 0.547779,0.5242925 0.907735,1.0089975 1.227119,1.6523988 0.728771,1.4681131 0.841595,3.0561387 0.324396,4.565985 -0.670512,1.9574096 -2.286592,3.4212906 -4.3163136,3.9098106 -0.6138925,0.147753 -1.4432375,0.196913 -2.037406,0.120768 z"
       id="path821"
       inkscape:connector-curvature="0" />
    <path
       style="fill:#fefefe;stroke-width:0.000357143"
       d="M 7.234375,14.963605 C 5.4896844,14.766662 3.8115766,13.885871 2.6975051,12.58233 1.9248722,11.678297 1.374754,10.549942 1.1390227,9.385705 0.71254716,7.279415 1.291544,5.0592303 2.6947232,3.4203138 4.3175197,1.5248835 6.91594,0.63895175 9.385705,1.1390227 c 1.163221,0.2355256 2.297053,0.7877843 3.193981,1.5557005 1.894868,1.6223149 2.781214,4.2219496 2.281291,6.6909818 -0.230517,1.138484 -0.755608,2.230217 -1.510382,3.140278 -1.134731,1.368192 -2.904601,2.285469 -4.70997,2.441055 -0.4398672,0.03791 -1.0532863,0.03641 -1.40625,-0.0034 z M 8.6295016,13.93647 C 9.8777709,13.811963 11.177565,13.201837 12.120932,12.297586 13.837356,10.652334 14.420486,8.1712769 13.606669,5.9761862 13.272058,5.0736466 12.797185,4.3510984 12.100193,3.6839906 11.346488,2.9625995 10.437622,2.4648377 9.3961438,2.2030542 7.74532,1.7881067 5.9739737,2.1359058 4.5150384,3.1614463 4.1522006,3.4164988 3.4164988,4.1522006 3.1614463,4.5150384 2.1493699,5.9548197 1.7956547,7.7060306 2.1878152,9.3353944 c 0.4873256,2.0247596 1.929152,3.6265306 3.8736551,4.3033676 0.3362909,0.117055 0.8990188,0.250939 1.2365181,0.294191 0.3093475,0.03964 0.9522916,0.04134 1.3315132,0.0035 z"
       id="path819"
       inkscape:connector-curvature="0" />
  </g>
</svg>
