<?xml version="1.0" encoding="UTF-8" standalone="no"?>
<!-- Created with Inkscape (http://www.inkscape.org/) -->

<svg
   version="1.1"
   id="svg2"
   width="1600"
   height="1600"
   viewBox="0 0 1600 1600"
   sodipodi:docname="clear_mask.svg"
   inkscape:version="1.2.2 (732a01da63, 2022-12-09)"
   xmlns:inkscape="http://www.inkscape.org/namespaces/inkscape"
   xmlns:sodipodi="http://sodipodi.sourceforge.net/DTD/sodipodi-0.dtd"
   xmlns="http://www.w3.org/2000/svg"
   xmlns:svg="http://www.w3.org/2000/svg"
   xmlns:rdf="http://www.w3.org/1999/02/22-rdf-syntax-ns#"
   xmlns:cc="http://creativecommons.org/ns#"
   xmlns:dc="http://purl.org/dc/elements/1.1/">
  <metadata
     id="metadata8">
    <rdf:RDF>
      <cc:Work
         rdf:about="">
        <dc:format>image/svg+xml</dc:format>
        <dc:type
           rdf:resource="http://purl.org/dc/dcmitype/StillImage" />
      </cc:Work>
    </rdf:RDF>
  </metadata>
  <defs
     id="defs6" />
  <sodipodi:namedview
     pagecolor="#808080"
     bordercolor="#666666"
     borderopacity="1"
     objecttolerance="10"
     gridtolerance="10"
     guidetolerance="10"
     inkscape:pageopacity="0"
     inkscape:pageshadow="2"
     inkscape:window-width="1993"
     inkscape:window-height="1009"
     id="namedview4"
     showgrid="false"
     inkscape:zoom="0.1767767"
     inkscape:cx="1173.7973"
     inkscape:cy="820.24387"
     inkscape:window-x="-8"
     inkscape:window-y="-8"
     inkscape:window-maximized="1"
     inkscape:current-layer="CLEAR_MASK"
     inkscape:showpageshadow="0"
     inkscape:pagecheckerboard="true"
     inkscape:deskcolor="#d1d1d1" />
  <g
     id="CLEAR_MASK"
     transform="matrix(100,0,0,100,0,4.9999997e-5)"
     style="stroke-width:0.0114286">
    <path
       style="fill:none;stroke-width:0.000357143"
       d="M 0,8 V 0 h 8 8 v 8 8 H 8 0 Z m 12.227566,7.48759 c 0.05742,-0.02493 0.779974,-0.725373 1.684354,-1.632812 1.402181,-1.406924 1.586269,-1.602791 1.605368,-1.708087 0.04342,-0.239377 -0.02774,-0.425403 -0.216754,-0.566635 -0.0814,-0.06082 -0.134177,-0.06495 -0.94242,-0.07365 l -0.856192,-0.0092 -0.0088,-1.340085 C 13.484653,8.859475 13.482333,8.8142781 13.419944,8.7307491 13.384507,8.6833047 13.316679,8.6154928 13.269215,8.5800559 13.18561,8.5176359 13.145996,8.515625 12,8.515625 c -1.145996,0 -1.18561,0.00201 -1.269215,0.064431 -0.04746,0.035437 -0.115292,0.1032488 -0.150729,0.1506932 -0.06239,0.083529 -0.06471,0.1287262 -0.07321,1.4263268 l -0.0088,1.340065 -0.8405686,0.0092 c -0.792431,0.0087 -0.845506,0.01293 -0.9267953,0.07367 -0.1890122,0.141234 -0.2601716,0.327259 -0.2167522,0.566635 0.019099,0.105297 0.2031737,0.301144 1.6053681,1.708044 0.871087,0.87401 1.625983,1.608225 1.677545,1.631589 0.122299,0.05542 0.304737,0.05595 0.430691,0.0013 z M 8.953125,14.968186 c 0.3720631,-0.03438 0.7784925,-0.09818 1.11964,-0.175777 L 10.288243,14.7434 9.2273834,13.676387 C 8.0072078,12.449134 8.0168666,12.462385 8.0168666,12.015625 c 0,-0.235423 0.012507,-0.306709 0.076758,-0.4375 0.097744,-0.198967 0.2850259,-0.3864 0.4845,-0.484889 0.1478456,-0.073 0.1902106,-0.0777 0.7876166,-0.08748 l 0.6313662,-0.01033 0.00926,-1.1305264 0.0093,-1.1305256 0.07738,-0.15625 c 0.09866,-0.1992131 0.285908,-0.3864647 0.485121,-0.4851206 l 0.15625,-0.077379 1.201985,-0.00923 c 1.042683,-0.008 1.222593,-0.00249 1.35748,0.041633 0.314242,0.1027832 0.54525,0.3287063 0.654035,0.6396375 0.04524,0.1293178 0.04926,-0.1388718 0.05063,-3.3818087 0.0017,-4.0607076 0.02784,-3.7144831 -0.304133,-4.0311328 C 13.411504,1.0049132 13.362683,0.99547887 12.305968,1.0064242 L 11.417674,1.015625 11.1854,1.1363105 C 10.288292,1.602431 10.068807,1.687717 9.4161003,1.8238143 8.8539947,1.9410202 8.4971597,1.9805034 8,1.9805034 7.5028403,1.9805034 7.1460053,1.9410202 6.5838997,1.8238143 5.9311925,1.6877169 5.7117422,1.6024443 4.8145975,1.1363105 L 4.5823203,1.015625 3.6865134,1.006482 C 2.6135267,0.99553056 2.5596096,1.0069551 2.2747269,1.3056247 1.9729551,1.6220011 1.9978916,1.1184819 2.0073345,6.7048153 L 2.015625,11.609375 2.105274,11.875 c 0.2040593,0.604616 0.4197928,0.928709 0.9785897,1.470118 0.4302207,0.416835 0.7135607,0.614567 1.2779257,0.891816 0.8117228,0.398767 1.717,0.639329 2.7944606,0.742582 0.2638569,0.02529 1.4838472,0.01759 1.796875,-0.01133 z"
       id="path829"
       inkscape:connector-curvature="0" />
    <path
       style="fill:#cbe5fe;stroke-width:0.000357143"
       d="M 7.40625,13.979516 C 6.3682906,13.880049 5.57285,13.67712 4.8637237,13.330881 3.8731341,12.847213 3.2532297,12.198871 3.0603705,11.444799 3.002051,11.216772 3,11.052324 3,6.6043762 V 2 H 3.6287856 4.2575709 L 4.5272231,2.1553998 C 5.3675678,2.6396887 6.4232012,2.92523 7.6072659,2.9885298 L 8,3.0095252 V 6.5047625 10 H 6.5 5 l 3.719e-4,0.08594 c 0.00106,0.246455 0.1843647,0.659906 0.4087653,0.922005 C 5.86559,11.541077 6.7538656,11.92163 7.6965,11.987891 L 8,12.009225 V 13.004613 14 L 7.7578125,13.995 C 7.6246094,13.992249 7.4664063,13.985281 7.40625,13.979516 Z M 6.421875,6.9037631 C 6.6195566,6.8099553 6.8077534,6.6227156 6.9062262,6.421875 c 0.1099947,-0.22434 0.1099947,-0.61941 0,-0.84375 C 6.808545,5.3788991 6.6211009,5.191455 6.421875,5.0937737 c -0.22434,-0.1099946 -0.61941,-0.1099946 -0.84375,0 C 4.7657991,5.49206 4.8335172,6.6394078 5.6876684,6.94977 c 0.197215,0.071659 0.53022,0.050793 0.7342066,-0.046007 z"
       id="path827"
       inkscape:connector-curvature="0" />
    <path
       style="fill:#6598fe;stroke-width:0.000357143"
       d="m 8.0014919,13.106325 c 0.00142,-0.860447 0.00381,-0.896543 0.050528,-0.762575 0.075205,0.215668 0.131855,0.283875 0.7705203,0.927704 0.6686078,0.674013 0.6480282,0.606626 0.203006,0.664733 -0.1320432,0.01724 -0.4168088,0.04079 -0.6328125,0.05234 L 8,14.009525 Z M 8,6.5047625 V 3.0095252 L 8.3927341,2.9885298 C 9.5767988,2.92523 10.632432,2.6396887 11.472777,2.1553998 L 11.742429,2 H 12.371214 13 v 2.998545 2.9985447 l -1.132812,0.00927 -1.132813,0.00927 -0.15625,0.077379 c -0.199367,0.098732 -0.386602,0.2860572 -0.484889,0.4851206 -0.07302,0.1478844 -0.0777,0.1901313 -0.08749,0.7890625 L 9.9953931,10 H 8.9976966 8 Z m 2.421875,0.3990006 c 0.197682,-0.093808 0.385878,-0.2810475 0.484351,-0.4818881 0.109995,-0.22434 0.109995,-0.61941 0,-0.84375 -0.09768,-0.1992259 -0.285125,-0.38667 -0.484351,-0.4843512 -0.22434,-0.1099947 -0.61941,-0.1099947 -0.84375,0 C 8.7657991,5.49206 8.8335172,6.6394078 9.6876684,6.94977 9.8848834,7.021429 10.217888,7.000563 10.421875,6.9037631 Z"
       id="path825"
       inkscape:connector-curvature="0" />
    <path
       style="fill:#fe9832;stroke-width:0.000357143"
       d="M 10.500001,13.515626 8.9846166,12 H 9.9923084 11 V 10.5 9 h 1 1 v 1.499573 1.499573 l 1.015764,0.0082 1.015763,0.0082 -1.508071,1.507813 -1.508071,1.507813 z"
       id="path823"
       inkscape:connector-curvature="0" />
    <path
       style="fill:#0032fe;stroke-width:0.000357143"
       d="M 7.15625,14.979516 C 6.0787894,14.876263 5.1735122,14.635701 4.3617894,14.236934 3.7974244,13.959685 3.5140844,13.761953 3.0838637,13.345118 2.5250668,12.803709 2.3093333,12.479616 2.105274,11.875 L 2.015625,11.609375 2.0073345,6.7048153 C 1.9978916,1.1184819 1.9729551,1.6220011 2.2747269,1.3056247 2.5596096,1.006955 2.6135267,0.99553056 3.6865134,1.006482 l 0.8958069,0.00914 0.2322772,0.1206855 C 5.7117422,1.6024443 5.9311925,1.6877169 6.5838997,1.8238143 7.1460053,1.9410202 7.5028403,1.9805034 8,1.9805034 c 0.4971597,0 0.8539947,-0.039483 1.4161003,-0.1566891 C 10.068807,1.687717 10.288292,1.602431 11.1854,1.1363105 l 0.232274,-0.1206855 0.888294,-0.0092 c 1.056715,-0.0109453 1.105536,-0.00151 1.388407,0.2683027 0.331974,0.3166497 0.305853,-0.029575 0.304133,4.0311328 -0.0014,3.2429369 -0.0054,3.5111265 -0.05063,3.3818087 C 13.87821,8.48855 13.738568,8.2978859 13.585048,8.1922734 13.439276,8.0919906 13.196223,8 13.077033,8 H 13 V 5 2 h -0.628786 -0.628785 l -0.269652,0.1553998 c -0.680673,0.3922701 -1.4882279,0.648144 -2.488402,0.7884503 -0.36574,0.051307 -1.60301,0.051307 -1.96875,0 C 6.0154509,2.8035438 5.2078956,2.5476699 4.5272231,2.1553998 L 4.2575709,2 H 3.6287856 3 V 6.6043762 C 3,11.052324 3.00205,11.216772 3.06037,11.444799 3.3796163,12.693038 4.8840928,13.646775 7,13.942261 c 0.4254609,0.05941 1.6710603,0.05108 2.09375,-0.014 l 0.328125,-0.05053 0.4339,0.432672 0.4339,0.432672 -0.216194,0.04917 c -0.3418391,0.07775 -0.7480366,0.141539 -1.120356,0.17594 -0.3130278,0.02892 -1.5330181,0.03662 -1.796875,0.01133 z M 7.421875,11.964212 C 6.5875806,11.857871 5.7616981,11.454234 5.3734678,10.963086 5.1585491,10.691194 5.0013884,10.32171 5.0003709,10.085937 L 5,10 H 7.5 10 v 0.497697 0.497696 l -0.6328125,0.01035 c -0.5989312,0.0098 -0.6411781,0.01448 -0.7890625,0.08749 -0.2993444,0.1478 -0.5242856,0.451983 -0.5675256,0.767454 L 7.9915047,12 7.816065,11.996047 c -0.096492,-0.0022 -0.2738775,-0.0165 -0.39419,-0.03184 z M 5.6876684,6.94977 C 4.97962,6.6924953 4.7728872,5.8193719 5.2961294,5.2961294 5.5014528,5.0908059 5.6872622,5.0171641 6,5.0171641 c 0.3127378,0 0.4985472,0.073642 0.7038706,0.2789653 C 6.9091941,5.5014528 6.9828359,5.6872622 6.9828359,6 c 0,0.3127378 -0.073642,0.4985472 -0.2789653,0.7038706 C 6.4471069,6.9606341 6.0091959,7.0665994 5.6876684,6.94977 Z m 4,0 C 8.97962,6.6924953 8.7728872,5.8193719 9.2961294,5.2961294 9.5014528,5.0908059 9.6872622,5.0171641 10,5.0171641 c 0.312738,0 0.498547,0.073642 0.703871,0.2789653 C 10.909194,5.5014528 10.982836,5.6872622 10.982836,6 c 0,0.3127378 -0.07364,0.4985472 -0.278965,0.7038706 C 10.447107,6.9606341 10.009196,7.0665994 9.6876684,6.94977 Z"
       id="path821"
       inkscape:connector-curvature="0" />
    <path
       style="fill:#653200;stroke-width:0.000357143"
       d="m 11.796875,15.486324 c -0.05156,-0.02336 -0.806458,-0.757579 -1.677545,-1.631589 -1.4021944,-1.4069 -1.5862688,-1.602747 -1.6053681,-1.708044 -0.043419,-0.239376 0.02774,-0.425401 0.2167522,-0.566635 0.081289,-0.06074 0.1343643,-0.06496 0.9267953,-0.07367 l 0.8405676,-0.0092 0.0088,-1.340065 c 0.0085,-1.2976007 0.01082,-1.3427979 0.07321,-1.4263269 0.03544,-0.047444 0.103265,-0.1152563 0.150729,-0.1506932 C 10.81439,8.5176359 10.854004,8.515625 12,8.515625 c 1.145996,0 1.18561,0.00201 1.269215,0.064431 0.04746,0.035437 0.115292,0.1032488 0.150729,0.1506932 0.06239,0.083529 0.06471,0.1287259 0.07321,1.4263478 l 0.0088,1.340086 0.856192,0.0092 c 0.808243,0.0087 0.86102,0.01283 0.94242,0.07365 0.189014,0.141232 0.260173,0.327258 0.216754,0.566635 -0.0191,0.105296 -0.203187,0.301163 -1.605368,1.708087 -0.90438,0.907439 -1.626932,1.607882 -1.684354,1.632812 -0.125954,0.05469 -0.308392,0.05415 -0.430691,-0.0013 z M 14.015764,12.007386 13,11.999146 V 10.499573 9 H 12 11 V 10.5 12 H 9.9923084 8.9846166 l 1.5153844,1.515626 1.515384,1.515625 1.508071,-1.507813 1.508071,-1.507813 z"
       id="path819"
       inkscape:connector-curvature="0" />
  </g>
</svg>
