<?xml version="1.0" encoding="UTF-8" standalone="no"?>
<!-- Created with Inkscape (http://www.inkscape.org/) -->

<svg
   version="1.1"
   id="svg2"
   width="1600"
   height="1600"
   viewBox="0 0 1600 1600"
   sodipodi:docname="clean_channels_frames.svg"
   inkscape:version="1.2.2 (732a01da63, 2022-12-09)"
   xmlns:inkscape="http://www.inkscape.org/namespaces/inkscape"
   xmlns:sodipodi="http://sodipodi.sourceforge.net/DTD/sodipodi-0.dtd"
   xmlns="http://www.w3.org/2000/svg"
   xmlns:svg="http://www.w3.org/2000/svg"
   xmlns:rdf="http://www.w3.org/1999/02/22-rdf-syntax-ns#"
   xmlns:cc="http://creativecommons.org/ns#"
   xmlns:dc="http://purl.org/dc/elements/1.1/">
  <metadata
     id="metadata8">
    <rdf:RDF>
      <cc:Work
         rdf:about="">
        <dc:format>image/svg+xml</dc:format>
        <dc:type
           rdf:resource="http://purl.org/dc/dcmitype/StillImage" />
      </cc:Work>
    </rdf:RDF>
  </metadata>
  <defs
     id="defs6" />
  <sodipodi:namedview
     pagecolor="#808080"
     bordercolor="#666666"
     borderopacity="1"
     objecttolerance="10"
     gridtolerance="10"
     guidetolerance="10"
     inkscape:pageopacity="0"
     inkscape:pageshadow="2"
     inkscape:window-width="1993"
     inkscape:window-height="1009"
     id="namedview4"
     showgrid="false"
     inkscape:zoom="0.5"
     inkscape:cx="249"
     inkscape:cy="98"
     inkscape:window-x="-8"
     inkscape:window-y="-8"
     inkscape:window-maximized="1"
     inkscape:current-layer="CLEAN_CHANNELS_FRAMES"
     inkscape:showpageshadow="0"
     inkscape:pagecheckerboard="true"
     inkscape:deskcolor="#d1d1d1" />
  <g
     id="CLEAN_CHANNELS_FRAMES"
     transform="matrix(100,0,0,100,0,4.9999997e-5)"
     style="stroke-width:0.0114286">
    <path
       style="fill:none;stroke-width:0.000357143"
       d="m 0,15 v -1 h 2.3518793 2.3518791 l 0.5778085,0.581305 c 0.3177943,0.319717 0.6230597,0.600967 0.6783668,0.625 0.1282788,0.05574 0.2956038,0.05574 0.4238825,0 0.055307,-0.02403 0.3605725,-0.305283 0.6783669,-0.625 L 7.6399916,14 H 11.819996 16 v 1 1 H 8 0 Z M 0,1 V 0 h 8 8 V 1 2 H 15.648144 15.296289 L 14.671582,1.3718294 C 14.327993,1.0263355 14.001623,0.72399178 13.946316,0.69995437 c -0.143106,-0.0621962 -1.249526,-0.0621962 -1.392632,0 -0.05531,0.0240374 -0.381677,0.32638113 -0.725266,0.67187503 L 11.203711,2 H 5.6018556 0 Z"
       id="path829"
       inkscape:connector-curvature="0" />
    <path
       style="fill:#fefefe;stroke-width:0.000357143"
       d="M 1,12.5 V 12 H 1.8527373 2.7054745 L 2.8527373,12.149511 3,12.299022 V 12.649511 13 H 2 1 Z m 8,0 V 12 h 1 1 V 12.5 13 H 10 9 Z m 4,0 V 12 h 1 1 V 12.5 13 H 14 13 Z M 1,10.64897 v -0.351029 l 0.34375,0.342684 c 0.1890625,0.188476 0.34375,0.34644 0.34375,0.35103 C 1.6875,10.996245 1.5328125,11 1.34375,11 H 1 Z m 10.084803,-0.09428 c 0.243854,-0.244922 0.458125,-0.4849 0.476159,-0.533285 0.06789,-0.1821461 0.02714,-0.4093846 -0.09722,-0.542153 l -0.06334,-0.067625 0.0718,-0.09711 C 11.588557,9.1571356 11.587171,8.8908156 11.468287,8.5625 11.415386,8.4164063 11.330353,8.1703125 11.279324,8.015625 11.186785,7.7351047 11.185604,7.7334325 10.824254,7.3711288 10.586962,7.1332106 10.474801,6.9999488 10.49917,6.9848878 10.519634,6.9722406 10.973841,6.8164941 11.50852,6.6387847 L 12.480663,6.3156762 13.139036,5.6578381 13.797408,5 H 14.398704 15 v 3 3 H 12.820717 10.641433 Z M 1,7.1794703 V 5 H 3.1791291 5.3582584 L 5.0400937,5.3203125 C 4.7076431,5.6550075 4.65625,5.7376428 4.65625,5.9375 c 0,0.1763962 0.04841,0.2788691 0.2092959,0.4430331 L 5.0087856,6.5266916 3.8403303,7.1096322 2.671875,7.6925731 1.8359375,8.5257569 1,9.3589409 Z M 8.7339206,5.2807934 8.4544281,5 h 0.382161 C 9.0467775,5 9.21875,5.011599 9.21875,5.025777 9.21875,5.071366 9.0625519,5.5124485 9.0375563,5.5374441 9.0242775,5.5507225 8.8876416,5.43523 8.7339206,5.2807934 Z M 1,3.5 V 3 H 2 3 V 3.5 4 H 2 1 Z m 4,0 V 3 H 6 7 V 3.5 4 H 6 5 Z M 9,3.50117 V 3 H 9.5990313 10.198062 L 9.9791456,3.2265625 C 9.7685622,3.4445006 9.7326578,3.5067306 9.6140366,3.859375 l -0.042047,0.125 L 9.285995,3.9933603 9,4.0023453 V 3.5011728 Z m 5.8125,0.4890487 c 0,-0.00538 0.04219,-0.050196 0.09375,-0.099596 L 15,3.8008059 v 0.099597 c 0,0.089829 -0.0092,0.099597 -0.09375,0.099597 -0.05156,0 -0.09375,-0.0044 -0.09375,-0.00978 z"
       id="path827"
       inkscape:connector-curvature="0" />
    <path
       style="fill:#98cbfe;stroke-width:0.000357143"
       d="M 7.5938903,8.3907653 5.141055,5.9377806 5.6562503,5.4218747 6.1714459,4.9059684 8.6324628,7.3668372 11.093479,9.8277062 10.586157,10.335728 c -0.279027,0.279412 -0.514546,0.508022 -0.523376,0.508022 -0.0088,0 -1.1198313,-1.1038431 -2.4688907,-2.4529847 z"
       id="path825"
       inkscape:connector-curvature="0" />
    <path
       style="fill:#cbcbcb;stroke-width:0.000357143"
       d="M 5.4012559,13.976577 C 4.9776578,13.551178 4.6221425,13.172781 4.6112225,13.135695 4.5881216,13.05724 4.3327034,12.8125 4.2739266,12.8125 4.2275797,12.8125 2.5,11.093033 2.5,11.046904 2.5,11.029958 2.8403125,10.675569 3.25625,10.259371 3.9607869,9.5543937 4.0125,9.4950313 4.0125,9.3912547 4.0125,9.2426369 3.9136113,9.14375 3.7649906,9.14375 3.661145,9.14375 3.6012219,9.196089 2.8811592,9.9157194 L 2.1087263,10.687689 1.6794587,10.257598 1.2501913,9.8275078 2.1016581,8.9793516 2.953125,8.1311956 4.1645431,7.5270488 5.3759612,6.9229016 7.2375028,8.7844431 9.0990444,10.645985 8.5050831,11.830805 7.9111222,13.015625 7.0412784,13.882827 6.171435,14.750029 Z"
       id="path823"
       inkscape:connector-curvature="0" />
    <path
       style="fill:#fecb32;stroke-width:0.000357143"
       d="M 8.9986531,6.9803319 C 7.2146422,5.1938131 6.9671084,4.9347434 7.0625,4.9539478 c 0.060156,0.012111 0.1234375,0.031833 0.140625,0.043828 0.017188,0.011995 0.1367187,0.060738 0.265625,0.1083182 0.1289062,0.04758 0.2625,0.098004 0.296875,0.1120537 C 7.8,5.2321975 7.8773437,5.2612444 7.9375,5.2826966 8.0036328,5.3062803 8.1889563,5.4613438 8.40625,5.6749088 8.6039063,5.8691731 8.8052122,6.0428844 8.8535969,6.0609334 9.1246659,6.1620516 9.4130337,6.0117319 9.5400031,5.703125 9.5682887,5.634375 9.7275856,5.1632813 9.8939959,4.65625 L 10.19656,3.734375 11.480585,2.4453125 12.76461,1.15625 h 0.485199 0.485199 l 0.569996,0.5706211 0.569996,0.570621 v 0.4529527 0.4529527 l -1.335937,1.3325356 c -1.112406,1.1095728 -1.356853,1.3386485 -1.460938,1.3690678 -0.06875,0.020092 -0.174219,0.055609 -0.234375,0.078925 -0.06016,0.023317 -0.41875,0.1436535 -0.796875,0.2674157 -0.768878,0.2516578 -0.777583,0.2552287 -0.901227,0.369664 -0.131814,0.1219966 -0.176898,0.2309 -0.176898,0.4273107 v 0.17642 l 0.393334,0.4005965 c 0.216334,0.2203281 0.389799,0.4053094 0.385478,0.4110694 -0.01173,0.015642 0.125066,0.4360634 0.171187,0.5260975 0.05224,0.1019853 0.154308,0.4373594 0.138051,0.4536172 -0.0069,0.00694 -0.933106,-0.9091634 -2.0581469,-2.035785 z M 13.543207,3.4388947 c 0.117933,-0.044838 0.335745,-0.2536369 0.383445,-0.3675785 0.06406,-0.1530199 0.05432,-0.5188009 -0.01754,-0.6584986 -0.272763,-0.5302794 -1.077544,-0.498177 -1.309537,0.052237 -0.07174,0.1702174 -0.07127,0.4331112 0.0011,0.5974456 0.05466,0.1241528 0.213701,0.2853666 0.352478,0.3572825 0.105808,0.054832 0.465491,0.066481 0.590082,0.019112 z"
       id="path821"
       inkscape:connector-curvature="0" />
    <path
       style="fill:#323232;stroke-width:0.000357143"
       d="M 5.953125,15.205038 C 5.9015625,15.181655 5.5993612,14.900955 5.2815669,14.581262 L 4.7037584,14 H 2.3518793 0 V 8 2 h 5.6018556 5.6018554 l 0.624707,-0.6281706 c 0.343589,-0.3454939 0.669959,-0.64783762 0.725266,-0.67187503 0.143106,-0.0621962 1.249526,-0.0621962 1.392632,0 0.05531,0.0240374 0.381677,0.32638113 0.725266,0.67187503 L 15.296289,2 H 15.648144 16 v 6 6 H 11.819996 7.6399916 l -0.5778085,0.581305 c -0.3177943,0.319717 -0.6230597,0.600967 -0.6783668,0.625 -0.1259566,0.05473 -0.3083944,0.05419 -0.4306913,-0.0013 z M 8.512695,11.822787 9.1008059,10.647877 7.2458141,8.7926884 C 6.2255684,7.7723347 5.3794844,6.9375 5.3656275,6.9375 c -0.013857,0 -0.5623388,0.2684244 -1.2188484,0.5964984 L 2.953125,8.1304969 2.1016581,8.9790022 1.2501913,9.8275078 1.6794588,10.257598 2.1087263,10.687689 2.8811592,9.9157194 C 3.6012219,9.1960891 3.661145,9.14375 3.7649906,9.14375 3.9136112,9.14375 4.0125,9.242637 4.0125,9.3912547 4.0125,9.4950313 3.960787,9.5543937 3.25625,10.259371 2.8403125,10.675569 2.5,11.029958 2.5,11.046904 c 0,0.04613 1.7275797,1.765596 1.7739266,1.765596 0.058777,0 0.314195,0.24474 0.3372959,0.323195 0.01092,0.03709 0.3664359,0.415484 0.7900353,0.840884 l 0.7701806,0.773453 0.8765728,-0.876168 0.8765729,-0.876168 z M 3,12.649511 V 12.299022 L 2.8527373,12.149511 2.7054745,12 H 1.8527372 1 V 12.5 13 H 2 3 Z M 11,12.5 V 12 H 10 9 v 0.5 0.5 h 1 1 z m 4,0 V 12 h -1 -1 v 0.5 0.5 h 1 1 z M 1.6875,10.991655 c 0,-0.0046 -0.1546875,-0.162554 -0.34375,-0.35103 L 1,10.297941 V 10.64897 11 H 1.34375 C 1.5328125,11 1.6875,10.9962 1.6875,10.9917 Z M 15,8 V 5 H 14.398704 13.797408 L 13.139036,5.6578381 12.480663,6.3156762 11.50852,6.6387847 c -0.534679,0.1777094 -0.988886,0.3334559 -1.00935,0.3461031 -0.02437,0.015061 0.08779,0.1483228 0.325084,0.3862409 0.36135,0.3623038 0.362531,0.363976 0.45507,0.6444963 0.05103,0.1546875 0.136062,0.4007813 0.188963,0.546875 0.118884,0.3283156 0.12027,0.5946356 0.0039,0.7520147 l -0.0718,0.09711 0.06334,0.067625 c 0.124357,0.1327684 0.165104,0.3600069 0.09722,0.5421533 -0.01803,0.04839 -0.232305,0.288363 -0.476159,0.533285 L 10.641433,11 H 12.820717 15 Z M 10.586157,10.335728 11.093479,9.8277062 8.6324628,7.3668372 6.1714459,4.9059684 5.6575144,5.4206087 C 5.3748519,5.7036612 5.1539406,5.9463028 5.1666,5.9598122 c 0.1667409,0.1779369 4.884502,4.8839378 4.896143,4.8839378 0.0089,0 0.244387,-0.22861 0.523414,-0.508022 z M 3.609375,7.2264419 C 4.125,6.9697369 4.6507084,6.7071794 4.7776159,6.6429809 L 5.0083566,6.5262559 4.8653313,6.3803156 C 4.7046544,6.2163634 4.65625,6.1138472 4.65625,5.9375 c 0,-0.1998572 0.051393,-0.2824925 0.3838437,-0.6171875 L 5.3582584,5 H 3.1791291 1 V 7.1794703 9.3589409 L 1.8359375,8.5260597 2.671875,7.6931784 Z m 7.404719,1.5956203 C 10.983665,8.7222716 10.940761,8.6054688 10.918749,8.5625 10.872628,8.4724659 10.735827,8.0520441 10.747562,8.0364025 10.751883,8.0306425 10.578418,7.8456612 10.362084,7.6253331 L 9.96875,7.2247366 v -0.17642 c 0,-0.1964107 0.045084,-0.3053141 0.176898,-0.4273107 0.123644,-0.1144353 0.132349,-0.1180062 0.901227,-0.369664 0.378125,-0.1237622 0.736719,-0.2440991 0.796875,-0.2674156 0.06016,-0.023316 0.165625,-0.058833 0.234375,-0.078925 0.104085,-0.030419 0.348532,-0.259495 1.460938,-1.3690678 L 14.875,3.2033975 V 2.7504448 2.2974921 L 14.305004,1.7268711 13.735008,1.15625 H 13.249809 12.76461 L 11.480585,2.4453125 10.19656,3.734375 9.8939959,4.65625 C 9.7275856,5.1632812 9.5682887,5.634375 9.5400031,5.703125 9.4130338,6.0117319 9.1246659,6.1620516 8.8535969,6.0609334 8.8052122,6.0428844 8.6039063,5.8691731 8.40625,5.6749087 8.1889563,5.4613437 8.0036328,5.3062803 7.9375,5.2826966 7.8773438,5.2612444 7.8,5.2321975 7.765625,5.2181478 7.73125,5.2040984 7.5976563,5.1536741 7.46875,5.1060941 7.3398438,5.0585141 7.2203125,5.0097709 7.203125,4.9977759 7.1859375,4.9857809 7.1226563,4.9660584 7.0625,4.9539478 6.9671084,4.9347434 7.2146422,5.1938131 8.9986531,6.9803319 10.123694,8.1069537 11.04986,9.0230572 11.0568,9.0161172 11.0637,9.0091772 11.04452,8.9218522 11.01409,8.8220622 Z M 12.953125,3.4197825 C 12.814349,3.3478666 12.655303,3.1866528 12.600647,3.0625 c -0.07235,-0.1643344 -0.07282,-0.4272282 -0.0011,-0.5974456 0.231993,-0.5504138 1.036774,-0.5825161 1.309537,-0.052237 0.07186,0.1396977 0.0816,0.5054787 0.01754,0.6584986 -0.0477,0.1139416 -0.265511,0.3227404 -0.383445,0.3675785 -0.12459,0.047369 -0.484273,0.035719 -0.590082,-0.019112 z M 9.1402247,5.2824266 C 9.1834138,5.1554462 9.21875,5.0399534 9.21875,5.0257766 9.21875,5.0115994 9.0467775,5 8.8365891,5 H 8.4544281 L 8.7339206,5.2807934 C 8.8876416,5.43523 9.0242775,5.5507225 9.0375563,5.5374437 9.050835,5.524165 9.0970359,5.4094072 9.1402247,5.2824266 Z M 3,3.5 V 3 H 2 1 V 3.5 4 h 1 1 z m 4,0 V 3 H 6 5 V 3.5 4 H 6 7 Z M 9.6140366,3.859375 C 9.7326578,3.5067306 9.7685622,3.4445006 9.9791456,3.2265625 L 10.198063,3 H 9.5990313 9 v 0.5011728 0.5011725 l 0.285995,-0.00899 0.2859947,-0.00899 z M 15,3.9004034 v -0.099597 l -0.09375,0.089818 c -0.05156,0.0494 -0.09375,0.094218 -0.09375,0.099597 C 14.8125,3.9955997 14.854688,4 14.90625,4 14.990806,4 15,3.9902328 15,3.9004034 Z"
       id="path819"
       inkscape:connector-curvature="0" />
  </g>
</svg>
