<?xml version="1.0" encoding="UTF-8" standalone="no"?>
<!-- Created with Inkscape (http://www.inkscape.org/) -->

<svg
   version="1.1"
   id="svg2"
   width="1600"
   height="1600"
   viewBox="0 0 1600 1600"
   sodipodi:docname="clear_track.svg"
   inkscape:version="1.2.2 (732a01da63, 2022-12-09)"
   xmlns:inkscape="http://www.inkscape.org/namespaces/inkscape"
   xmlns:sodipodi="http://sodipodi.sourceforge.net/DTD/sodipodi-0.dtd"
   xmlns="http://www.w3.org/2000/svg"
   xmlns:svg="http://www.w3.org/2000/svg"
   xmlns:rdf="http://www.w3.org/1999/02/22-rdf-syntax-ns#"
   xmlns:cc="http://creativecommons.org/ns#"
   xmlns:dc="http://purl.org/dc/elements/1.1/">
  <metadata
     id="metadata8">
    <rdf:RDF>
      <cc:Work
         rdf:about="">
        <dc:format>image/svg+xml</dc:format>
        <dc:type
           rdf:resource="http://purl.org/dc/dcmitype/StillImage" />
      </cc:Work>
    </rdf:RDF>
  </metadata>
  <defs
     id="defs6" />
  <sodipodi:namedview
     pagecolor="#808080"
     bordercolor="#666666"
     borderopacity="1"
     objecttolerance="10"
     gridtolerance="10"
     guidetolerance="10"
     inkscape:pageopacity="0"
     inkscape:pageshadow="2"
     inkscape:window-width="1993"
     inkscape:window-height="1009"
     id="namedview4"
     showgrid="false"
     inkscape:zoom="0.5"
     inkscape:cx="3"
     inkscape:cy="8"
     inkscape:window-x="-8"
     inkscape:window-y="-8"
     inkscape:window-maximized="1"
     inkscape:current-layer="CLEAR_TRACK"
     inkscape:showpageshadow="0"
     inkscape:pagecheckerboard="true"
     inkscape:deskcolor="#d1d1d1" />
  <g
     id="CLEAR_TRACK"
     transform="matrix(100,0,0,100,0,4.9999997e-5)"
     style="stroke-width:0.0114286">
    <path
       style="fill:none;stroke-width:0.000357143"
       d="M 0,12.5 V 9 h 4.9957525 4.9957522 l 0.019094,-0.1393103 c 0.04322,-0.3153538 0.267938,-0.6193206 0.567526,-0.7676853 l 0.15625,-0.077379 H 12 13.265625 l 0.15625,0.077379 c 0.299588,0.1483647 0.524302,0.4523315 0.567526,0.7676853 L 14.008495,9 H 15.004248 16 V 12.5 16 H 8 0 Z m 12.227566,2.98759 c 0.05742,-0.02493 0.779974,-0.725373 1.684354,-1.632812 1.402181,-1.406924 1.586269,-1.602791 1.605368,-1.708087 0.04342,-0.239377 -0.02774,-0.425403 -0.216754,-0.566635 -0.0814,-0.06082 -0.134177,-0.06495 -0.94242,-0.07365 l -0.856192,-0.0092 -0.0088,-1.340085 C 13.484653,8.859475 13.482333,8.8142781 13.419944,8.7307491 13.384507,8.6833047 13.316679,8.6154928 13.269215,8.5800559 13.18561,8.5176359 13.145996,8.515625 12,8.515625 c -1.145996,0 -1.18561,0.00201 -1.269215,0.064431 -0.04746,0.035437 -0.115292,0.1032488 -0.150729,0.1506932 -0.06239,0.083529 -0.06471,0.1287262 -0.07321,1.4263268 l -0.0088,1.340065 -0.8405686,0.0092 c -0.792431,0.0087 -0.845506,0.01293 -0.9267953,0.07367 -0.1890122,0.141234 -0.2601716,0.327259 -0.2167522,0.566635 0.019099,0.105297 0.2031737,0.301144 1.6053681,1.708044 0.871087,0.87401 1.625983,1.608225 1.677545,1.631589 0.122299,0.05542 0.304737,0.05595 0.430691,0.0013 z M 0,0.5 V 0 h 8 8 V 0.5 1 H 8 0 Z"
       id="path827"
       inkscape:connector-curvature="0" />
    <path
       style="fill:#fefefe;stroke-width:0.000357143"
       d="M 1,5 V 2 h 7 7 V 5 8 H 8 1 Z M 4.6087,7.4519878 C 5.0954362,7.3252091 5.4254987,7.1362322 5.7808653,6.7808653 6.1362322,6.4254988 6.3252091,6.0954363 6.4519878,5.6087 c 0.065202,-0.2503269 0.065202,-0.9670731 0,-1.2174 C 6.3252091,3.9045638 6.1362322,3.5745013 5.7808653,3.2191347 5.4254987,2.8637678 5.0954362,2.6747909 4.6087,2.5480122 c -0.2503269,-0.065202 -0.9670731,-0.065202 -1.2174,0 C 2.9045637,2.6747909 2.5745013,2.8637678 2.2191346,3.2191347 1.8637678,3.5745013 1.6747909,3.9045638 1.5480122,4.3913 c -0.065202,0.2503269 -0.065202,0.9670731 0,1.2174 0.1267787,0.4867363 0.3157556,0.8167988 0.6711224,1.1721653 0.3503996,0.3503997 0.6800985,0.5408369 1.1596123,0.6698031 0.2365081,0.063609 0.9877125,0.064415 1.2299531,0.00132 z"
       id="path825"
       inkscape:connector-curvature="0" />
    <path
       style="fill:#fe9832;stroke-width:0.000357143"
       d="M 10.500001,13.515626 8.9846166,12 H 9.9923084 11 V 10.5 9 h 1 1 v 1.499573 1.499573 l 1.015764,0.0082 1.015763,0.0082 -1.508071,1.507813 -1.508071,1.507813 z M 3.5,6.9517906 C 2.7690446,6.7491281 2.230589,6.2008472 2.0443274,5.4695559 1.967835,5.1692353 1.995302,4.6192038 2.1009238,4.3362016 2.3227473,3.7418494 2.7334749,3.3303263 3.3362016,3.0985308 3.528055,3.0247481 3.5873538,3.0175103 4,3.0175103 c 0.4126462,0 0.471945,0.00724 0.6637984,0.08102 0.6014278,0.2312958 1.006375,0.636243 1.237671,1.2376708 0.073783,0.1918534 0.08102,0.2511521 0.08102,0.6637984 0,0.4126462 -0.00724,0.471945 -0.08102,0.6637984 C 5.6697322,6.2663734 5.2589562,6.6764472 4.6637984,6.8993528 4.3936859,7.0005188 3.7761134,7.028345 3.5,6.9517906 Z"
       id="path823"
       inkscape:connector-curvature="0" />
    <path
       style="fill:#653200;stroke-width:0.000357143"
       d="m 11.796875,15.486324 c -0.05156,-0.02336 -0.806458,-0.757579 -1.677545,-1.631589 -1.4021944,-1.4069 -1.5862688,-1.602747 -1.6053681,-1.708044 -0.043419,-0.239376 0.02774,-0.425401 0.2167522,-0.566635 0.081289,-0.06074 0.1343643,-0.06496 0.9267953,-0.07367 l 0.8405676,-0.0092 0.0088,-1.340065 c 0.0085,-1.2976007 0.01082,-1.3427979 0.07321,-1.4263269 0.03544,-0.047444 0.103265,-0.1152563 0.150729,-0.1506932 C 10.81439,8.5176359 10.854004,8.515625 12,8.515625 c 1.145996,0 1.18561,0.00201 1.269215,0.064431 0.04746,0.035437 0.115292,0.1032488 0.150729,0.1506932 0.06239,0.083529 0.06471,0.1287259 0.07321,1.4263478 l 0.0088,1.340086 0.856192,0.0092 c 0.808243,0.0087 0.86102,0.01283 0.94242,0.07365 0.189014,0.141232 0.260173,0.327258 0.216754,0.566635 -0.0191,0.105296 -0.203187,0.301163 -1.605368,1.708087 -0.90438,0.907439 -1.626932,1.607882 -1.684354,1.632812 -0.125954,0.05469 -0.308392,0.05415 -0.430691,-0.0013 z M 14.015764,12.007386 13,11.999146 V 10.499573 9 H 12 11 V 10.5 12 H 9.9923084 8.9846166 l 1.5153844,1.515626 1.515384,1.515625 1.508071,-1.507813 1.508071,-1.507813 z"
       id="path821"
       inkscape:connector-curvature="0" />
    <path
       style="fill:#000000;stroke-width:0.000357143"
       d="M 0,5 V 1 h 8 8 V 5 9 H 15 14 V 8.9229672 C 14,8.8037772 13.908009,8.5607241 13.807727,8.4149519 13.702114,8.2614322 13.51145,8.12179 13.312332,8.0521247 c -0.13383,-0.046823 -0.09733,-0.049212 0.773605,-0.050633 L 15,8 V 5 2 H 8 1 V 5 8 L 5.9140625,8.00149 C 10.422693,8.00286 10.816537,8.00704 10.687668,8.052123 10.48855,8.1217888 10.297886,8.2614309 10.192273,8.4149506 10.091991,8.5607241 10,8.8037772 10,8.9229672 V 9 H 5 0 Z M 3.3787469,7.4506684 C 2.8992331,7.3217022 2.5695342,7.131265 2.2191346,6.7808653 1.8637678,6.4254987 1.6747909,6.0954362 1.5480122,5.6087 c -0.065202,-0.2503269 -0.065202,-0.9670731 0,-1.2174 C 1.6747909,3.9045637 1.8637678,3.5745012 2.2191346,3.2191347 2.5745013,2.8637678 2.9045637,2.6747909 3.3913,2.5480122 c 0.2503269,-0.065202 0.9670731,-0.065202 1.2174,0 0.4867363,0.1267787 0.8167988,0.3157556 1.1721653,0.6711225 0.3553669,0.3553665 0.5443438,0.685429 0.6711225,1.1721653 0.065202,0.2503269 0.065202,0.9670731 0,1.2174 C 6.3252091,6.0954362 6.1362322,6.4254987 5.7808653,6.7808653 5.4254988,7.1362322 5.0954363,7.3252091 4.6087,7.4519878 4.3664594,7.5150834 3.615255,7.5142778 3.3787469,7.4506691 Z M 4.6637984,6.8993528 C 5.2589563,6.6764472 5.6697322,6.2663734 5.9014694,5.6637984 5.9752519,5.471945 5.9824897,5.4126463 5.9824897,5 c 0,-0.4126462 -0.00724,-0.471945 -0.08102,-0.6637984 C 5.6701734,3.7347738 5.2652263,3.3298266 4.6637984,3.0985308 4.471945,3.0247481 4.4126463,3.0175103 4,3.0175103 c -0.4126462,0 -0.471945,0.00724 -0.6637984,0.08102 C 2.7334749,3.3303263 2.3227473,3.7418494 2.1009238,4.3362016 1.995302,4.6192038 1.967835,5.1692353 2.0443274,5.4695559 2.230589,6.2008472 2.7690446,6.7491281 3.5,6.9517906 3.7761134,7.028345 4.3936859,7.0005188 4.6637984,6.8993528 Z"
       id="path819"
       inkscape:connector-curvature="0" />
  </g>
</svg>
