<?xml version="1.0" encoding="UTF-8" standalone="no"?>
<!-- Created with Inkscape (http://www.inkscape.org/) -->

<svg
   version="1.1"
   id="svg2"
   width="1600"
   height="1600"
   viewBox="0 0 1600 1600"
   sodipodi:docname="clear_tilt.svg"
   inkscape:version="1.2.2 (732a01da63, 2022-12-09)"
   xmlns:inkscape="http://www.inkscape.org/namespaces/inkscape"
   xmlns:sodipodi="http://sodipodi.sourceforge.net/DTD/sodipodi-0.dtd"
   xmlns="http://www.w3.org/2000/svg"
   xmlns:svg="http://www.w3.org/2000/svg"
   xmlns:rdf="http://www.w3.org/1999/02/22-rdf-syntax-ns#"
   xmlns:cc="http://creativecommons.org/ns#"
   xmlns:dc="http://purl.org/dc/elements/1.1/">
  <metadata
     id="metadata8">
    <rdf:RDF>
      <cc:Work
         rdf:about="">
        <dc:format>image/svg+xml</dc:format>
        <dc:type
           rdf:resource="http://purl.org/dc/dcmitype/StillImage" />
      </cc:Work>
    </rdf:RDF>
  </metadata>
  <defs
     id="defs6" />
  <sodipodi:namedview
     pagecolor="#808080"
     bordercolor="#666666"
     borderopacity="1"
     objecttolerance="10"
     gridtolerance="10"
     guidetolerance="10"
     inkscape:pageopacity="0"
     inkscape:pageshadow="2"
     inkscape:window-width="1993"
     inkscape:window-height="1009"
     id="namedview4"
     showgrid="false"
     inkscape:zoom="0.5"
     inkscape:cx="3"
     inkscape:cy="8"
     inkscape:window-x="-8"
     inkscape:window-y="-8"
     inkscape:window-maximized="1"
     inkscape:current-layer="CLEAR_TILT"
     inkscape:showpageshadow="0"
     inkscape:pagecheckerboard="true"
     inkscape:deskcolor="#d1d1d1" />
  <g
     id="CLEAR_TILT"
     transform="matrix(100,0,0,100,0,4.9999997e-5)"
     style="stroke-width:0.0114286">
    <path
       style="fill:none;stroke-width:0.000357143"
       d="M 0,8 V 0 h 8 8 v 8 8 H 8 0 Z m 12.227566,7.48759 c 0.05742,-0.02493 0.779974,-0.725373 1.684354,-1.632812 1.402181,-1.406924 1.586269,-1.602791 1.605368,-1.708087 0.04342,-0.239377 -0.02774,-0.425403 -0.216754,-0.566635 -0.0814,-0.06082 -0.134177,-0.06495 -0.94242,-0.07365 l -0.856192,-0.0092 -0.0088,-1.340085 C 13.484653,8.859475 13.482333,8.8142781 13.419944,8.7307491 13.384507,8.6833047 13.316679,8.6154928 13.269215,8.5800559 13.18561,8.5176359 13.145996,8.515625 12,8.515625 c -1.145996,0 -1.18561,0.00201 -1.269215,0.064431 -0.04746,0.035437 -0.115292,0.1032488 -0.150729,0.1506932 -0.06239,0.083529 -0.06471,0.1287262 -0.07321,1.4263268 l -0.0088,1.340065 -0.8405686,0.0092 c -0.792431,0.0087 -0.845506,0.01293 -0.9267953,0.07367 -0.1890122,0.141234 -0.2601716,0.327259 -0.2167522,0.566635 0.019099,0.105297 0.2031737,0.301144 1.6053681,1.708044 0.871087,0.87401 1.625983,1.608225 1.677545,1.631589 0.122299,0.05542 0.304737,0.05595 0.430691,0.0013 z M 8.875,14.718843 c 0.1976563,-0.01684 0.5538269,-0.06083 0.79149,-0.09776 L 10.098605,14.553937 9.13263,13.581656 C 8.0700231,12.512112 8.0349991,12.465611 8.0072084,12.087448 c -0.018696,-0.254409 0.044594,-0.473718 0.19884,-0.68901 L 8.3123959,11.25 8.0390106,11.249906 C 7.3453819,11.249625 6.4502003,11.107329 5.8038669,10.894587 4.4954362,10.463915 3.6063372,9.6781534 3.3609847,8.735635 3.2971847,8.4905484 3.2997925,8.3723297 3.3755506,8.0753244 3.5039606,7.5719006 3.8329581,7.02376 4.3220591,6.4983534 l 0.212684,-0.2284715 0.4804144,0.4796644 c 0.4675059,0.4667762 0.4809941,0.4839325 0.5019822,0.6385031 0.033155,0.2441722 0.1324215,0.53989 0.2736094,0.8150887 C 5.9721381,8.5566953 6.4429325,9.0275894 6.796875,9.2094763 7.2415591,9.4379944 7.4445966,9.4843881 8,9.4843881 c 0.4204931,0 0.5152856,-0.00966 0.71875,-0.07322 C 9.1599588,9.2733328 9.4216484,9.1125066 9.7667991,8.7670713 10.175675,8.3578572 10.376828,7.9835263 10.469679,7.4590575 l 0.03424,-0.1934194 0.487824,-0.4901484 0.487824,-0.4901481 0.205528,0.2207415 c 0.416947,0.4478122 0.768798,0.99412 0.8806,1.3672788 l 0.03596,0.1200078 0.331986,0.013053 c 0.269305,0.010589 0.361487,0.027301 0.488236,0.088514 0.197994,0.095621 0.385836,0.2827193 0.485121,0.4832015 l 0.07738,0.15625 0.0093,1.1336616 0.0093,1.1336612 0.443854,-0.0087 0.443854,-0.0087 0.100612,-0.303176 c 0.21158,-0.63768 0.233172,-0.8080234 0.250113,-1.9736119 0.01619,-1.1142394 -0.0066,-1.5126344 -0.117245,-2.0454506 C 14.949498,5.8206366 14.541546,4.9774662 13.962691,4.26149 L 13.757227,4.0073547 14.100625,3.66774 c 0.18887,-0.1867884 0.363025,-0.3848666 0.387012,-0.4401737 0.05394,-0.1243725 0.06238,-1.2675726 0.01037,-1.4052194 C 14.446296,1.6854683 14.315978,1.5685263 14.159016,1.5181465 14.080151,1.4928332 12.911719,1.2519518 11.5625,0.98285456 8.9744959,0.46668556 8.8972075,0.45580353 8.7261656,0.58350481 8.5209366,0.73673028 8.5164441,0.75507037 8.5068578,1.4787609 L 8.4980906,2.140625 8.7490453,3.3895178 C 8.8870703,4.0764091 9,4.6479622 9,4.6596362 9,4.6713103 8.8910156,4.6443866 8.7578125,4.5998053 8.5385472,4.5264203 8.4683016,4.5186006 8.015625,4.5171869 7.577625,4.5158181 7.4871216,4.5245797 7.2857575,4.5878409 7.1593303,4.6275597 7.0504584,4.654625 7.04382,4.6479866 7.0371813,4.6413481 7.1445669,4.0744759 7.2824544,3.3882706 L 7.5331594,2.140625 7.5243922,1.4787609 C 7.5148059,0.75507037 7.5103134,0.73673028 7.3050844,0.58350481 7.1340425,0.45580353 7.0567541,0.46668556 4.46875,0.98285456 3.1195313,1.2519518 1.9510989,1.4928332 1.8722338,1.5181465 1.7152726,1.5685262 1.5849544,1.6854683 1.5332381,1.8223469 c -0.043614,0.115435 -0.043959,1.2698495 -4.144e-4,1.3865562 0.018053,0.048385 0.188113,0.2441931 0.3779111,0.4351303 L 2.2558224,3.9911919 2.0438338,4.2534084 C 1.4581196,4.9779 1.0512805,5.8168891 0.87583453,6.6620725 0.76523075,7.1948888 0.74239475,7.5932838 0.75858925,8.7075231 c 0.0170872,1.1756613 0.0384996,1.3402719 0.26075095,2.0045569 0.3976471,1.188523 1.260569,2.198282 2.5092855,2.936271 0.9369522,0.553737 2.2658838,0.956297 3.5182494,1.065747 0.4404781,0.03849 1.402725,0.04099 1.828125,0.0047 z M 9.9915366,10.98112 c -0.010384,-0.01038 -0.037337,-0.01149 -0.059896,-0.0025 -0.024929,0.01 -0.017524,0.01738 0.01888,0.01888 0.032942,0.0014 0.0514,-0.006 0.041016,-0.01641 z"
       id="path831"
       inkscape:connector-curvature="0" />
    <path
       style="fill:#cbfefe;stroke-width:0.000357143"
       d="M 7.171875,13.214098 C 4.3585128,12.968225 2.1794767,11.555272 1.5042382,9.5390322 1.1151807,8.3773191 1.1843483,6.9558534 1.6853285,5.8174416 1.9647736,5.1824394 2.3814956,4.5973834 3.0325671,3.9259888 L 3.464965,3.4800938 2.7336603,2.7492858 C 2.3314427,2.3473413 2.0067439,2.0140895 2.0121073,2.008726 2.0280143,1.992819 7.0102134,0.99979672 7.0208331,1.0104166 7.0261862,1.0157697 6.839455,1.9752503 6.6058747,3.1425956 L 6.1811831,5.2650422 6.0764013,5.3810228 c -0.05763,0.06379 -0.1435144,0.1764206 -0.1908541,0.2502916 -0.04734,0.073871 -0.090695,0.1406919 -0.096344,0.1484912 -0.00565,0.0078 -0.2956712,-0.270964 -0.6444928,-0.619474 L 4.5104897,4.5266769 4.4069016,4.6461509 C 4.3499278,4.7118616 4.1731769,4.9021322 4.0141213,5.0689741 3.1617988,5.9630219 2.8147604,6.7135931 2.760058,7.78125 c -0.064264,1.25427 0.4344423,2.2169509 1.5374767,2.96788 0.8486984,0.577782 2.33775,0.999877 3.5305903,1.000802 l 0.1875,1.56e-4 0.00108,0.273399 c 0.00144,0.365077 0.068152,0.498376 0.44353,0.886181 l 0.2906597,0.300282 -0.1645075,0.01976 c -0.2231959,0.02681 -1.031231,0.0179 -1.4145078,-0.0156 z M 13.993983,9.6386506 C 13.984527,8.7486759 13.983151,8.7319041 13.906996,8.578125 13.805776,8.373735 13.613457,8.1843709 13.41686,8.0955203 L 13.258929,8.0241444 13.238946,7.7192081 C 13.170837,6.6799103 12.817764,5.9384369 11.968856,5.0519431 11.801599,4.8772806 11.628394,4.6921875 11.583957,4.640625 l -0.0808,-0.09375 -0.63911,0.6372466 -0.63911,0.6372465 -0.05045,-0.097552 C 10.146749,5.6701625 10.063745,5.5521516 9.9900403,5.4615697 L 9.8560316,5.296875 9.4284059,3.1584641 C 9.1932119,1.982338 9.0051384,1.0156949 9.010465,1.0103684 9.015795,1.0050384 10.143883,1.2255298 11.517333,1.5003418 12.890784,1.7751538 14.021688,2 14.030452,2 c 0.0088,0 -0.320419,0.3365732 -0.731519,0.7479404 l -0.747453,0.7479405 0.42513,0.4392694 c 0.644433,0.6658647 1.060026,1.2504925 1.338062,1.8822913 0.50098,1.1384118 0.570147,2.5598775 0.18109,3.7215906 -0.09445,0.2820216 -0.304561,0.7279448 -0.429775,0.9121188 l -0.0624,0.09178 z"
       id="path829"
       inkscape:connector-curvature="0" />
    <path
       style="fill:#fecb32;stroke-width:0.000357143"
       d="M 7.5625,8.9514053 C 6.8323191,8.7945809 6.2007041,8.1571794 6.0468547,7.421875 5.7497344,6.0018228 7.0018228,4.7497344 8.421875,5.0468547 9.1647875,5.2022959 9.7977041,5.8352125 9.9531453,6.578125 10.251335,8.0032863 8.9878991,9.2575447 7.5625,8.9514053 Z"
       id="path827"
       inkscape:connector-curvature="0" />
    <path
       style="fill:#fe9832;stroke-width:0.000357143"
       d="M 10.500001,13.515626 8.9846166,12 H 9.9923084 11 V 10.5 9 h 1 1 v 1.499573 1.499573 l 1.015764,0.0082 1.015763,0.0082 -1.508071,1.507813 -1.508071,1.507813 z"
       id="path825"
       inkscape:connector-curvature="0" />
    <path
       style="fill:#989898;stroke-width:0.000357143"
       d="M 7.171875,14.216285 C 4.3234269,13.947409 2.179999,12.556833 1.5043667,10.539416 1.3383031,10.043555 1.2806296,9.69608 1.2644167,9.09375 c -0.0081,-0.3007812 -0.00813,-0.5328125 -7.19e-5,-0.515625 0.00806,0.017188 0.043545,0.1753769 0.078862,0.3515322 0.2826833,1.4099768 1.1088517,2.4948848 2.5268819,3.3182528 1.1359169,0.659562 2.8438109,1.045518 4.3992972,0.99417 l 0.5037625,-0.01663 0.4322272,0.433056 c 0.237725,0.23818 0.4258756,0.43924 0.4181125,0.446799 -0.00776,0.0076 -0.189896,0.03722 -0.4047397,0.06592 -0.4641866,0.062 -1.6020522,0.08705 -2.046875,0.04506 z m 6.828331,-3.441214 c 1.56e-4,-0.17837 0.01418,-0.248666 0.06419,-0.321946 0.243244,-0.356396 0.486655,-0.9883594 0.600787,-1.5598119 l 0.06919,-0.3464381 0.0099,0.3125 c 0.01949,0.6158812 -0.109431,1.363887 -0.328541,1.90625 l -0.08837,0.21875 -0.163675,0.0094 L 14,11.003266 14.000219,10.775071 Z M 2.7643885,8.3015459 C 2.728638,8.2135197 2.7709228,7.4555116 2.8280156,7.1609503 2.9703581,6.4265566 3.3356416,5.7818428 4.0132922,5.0689741 4.1718919,4.9021322 4.3497984,4.7124134 4.40864,4.6473772 L 4.515625,4.5291291 5.1498397,5.1646847 5.7840547,5.8002403 5.7068375,5.9669056 C 5.6643681,6.0585713 5.6051291,6.2240494 5.575195,6.3346347 L 5.5207697,6.5356984 5.0155984,6.0312234 4.5104272,5.5267481 4.4068703,5.6461866 C 4.3499137,5.7118778 4.1731769,5.9021322 4.0141212,6.0689741 3.35118,6.7643697 2.9920756,7.3855366 2.8435728,8.09375 2.804512,8.2800322 2.7808594,8.3421013 2.7643885,8.3015459 Z M 13.171401,8.0073341 C 13.153953,7.9947066 13.107126,7.8814494 13.067341,7.7556512 12.890519,7.1965547 12.531042,6.6390206 11.968856,6.0519431 11.801599,5.8772806 11.628409,5.6921875 11.583989,5.640625 l -0.08076,-0.09375 -0.510205,0.5082462 -0.510205,0.5082463 -0.05451,-0.2113713 c -0.02998,-0.116254 -0.08788,-0.2833259 -0.128666,-0.3712706 l -0.07415,-0.1598994 0.638839,-0.6369756 0.638839,-0.6369756 0.0808,0.09375 c 0.04444,0.051563 0.217642,0.2366556 0.384899,0.4113181 0.849956,0.8875878 1.201961,1.6276691 1.270322,2.6708178 0.01927,0.2940872 0.0084,0.3397088 -0.06778,0.2845732 z M 9.7154228,5.1658472 9.6027209,5.046875 9.3013513,3.53125 8.9999812,2.015625 l 0.00309,-0.46875 0.00309,-0.46875 0.4176335,2.0625 C 9.6535003,4.275 9.8384406,5.2215062 9.8347806,5.2439722 9.8309819,5.2672869 9.7797516,5.2337541 9.7154234,5.1658472 Z M 6.1890234,5.2339153 C 6.1898609,5.2169806 6.3783172,4.275 6.6078144,3.140625 l 0.4172675,-2.0625 0.00313,0.46875 0.00313,0.46875 -0.2992022,1.5 -0.2992025,1.5 -0.1227207,0.1245403 c -0.067496,0.068498 -0.1220353,0.110685 -0.1211975,0.09375 z M 12.796739,3.7498628 12.547692,3.4993472 13.289471,2.7575683 14.03125,2.0157895 v 0.500284 0.5002841 L 13.538517,3.5083681 13.045785,4.0003784 Z M 2.4761844,3.4918209 2,3.014892 V 2.5155079 2.0161237 L 2.7341546,2.7497797 3.4683091,3.4834356 3.2270753,3.7260928 C 3.0943965,3.8595544 2.9783099,3.96875 2.969105,3.96875 c -0.0092,0 -0.2310192,-0.2146181 -0.4929206,-0.4769291 z"
       id="path823"
       inkscape:connector-curvature="0" />
    <path
       style="fill:#653200;stroke-width:0.000357143"
       d="m 11.796875,15.486324 c -0.05156,-0.02336 -0.806458,-0.757579 -1.677545,-1.631589 -1.4021944,-1.4069 -1.5862688,-1.602747 -1.6053681,-1.708044 -0.043419,-0.239376 0.02774,-0.425401 0.2167522,-0.566635 0.081289,-0.06074 0.1343643,-0.06496 0.9267953,-0.07367 l 0.8405676,-0.0092 0.0088,-1.340065 c 0.0085,-1.2976007 0.01082,-1.3427979 0.07321,-1.4263269 0.03544,-0.047444 0.103265,-0.1152563 0.150729,-0.1506932 C 10.81439,8.5176359 10.854004,8.515625 12,8.515625 c 1.145996,0 1.18561,0.00201 1.269215,0.064431 0.04746,0.035437 0.115292,0.1032488 0.150729,0.1506932 0.06239,0.083529 0.06471,0.1287259 0.07321,1.4263478 l 0.0088,1.340086 0.856192,0.0092 c 0.808243,0.0087 0.86102,0.01283 0.94242,0.07365 0.189014,0.141232 0.260173,0.327258 0.216754,0.566635 -0.0191,0.105296 -0.203187,0.301163 -1.605368,1.708087 -0.90438,0.907439 -1.626932,1.607882 -1.684354,1.632812 -0.125954,0.05469 -0.308392,0.05415 -0.430691,-0.0013 z M 14.015764,12.007386 13,11.999146 V 10.499573 9 H 12 11 V 10.5 12 H 9.9923084 8.9846166 l 1.5153844,1.515626 1.515384,1.515625 1.508071,-1.507813 1.508071,-1.507813 z"
       id="path821"
       inkscape:connector-curvature="0" />
    <path
       style="fill:#323232;stroke-width:0.000357143"
       d="M 7.046875,14.714098 C 5.7945094,14.604648 4.4655778,14.202088 3.5286256,13.648351 2.2799091,12.910362 1.4169872,11.900603 1.0193401,10.71208 0.79708878,10.047795 0.77567637,9.8831844 0.75858916,8.7075231 0.74239466,7.5932837 0.76523066,7.1948887 0.87583444,6.6620725 1.0512804,5.8168891 1.4581195,4.9779 2.0438337,4.2534084 L 2.2558223,3.9911919 1.9107347,3.6440334 C 1.7209366,3.4530963 1.5508766,3.2572878 1.5328236,3.2089031 1.4892786,3.0921964 1.4896237,1.9377819 1.5332381,1.8223469 1.5849544,1.6854683 1.7152726,1.5685262 1.8722338,1.5181465 1.9510989,1.4928332 3.1195313,1.2519518 4.46875,0.98285456 7.0567541,0.46668556 7.1340425,0.45580353 7.3050844,0.58350481 7.5103134,0.73673028 7.5148059,0.75507037 7.5243922,1.4787609 l 0.00877,0.6618641 -0.250705,1.2476456 C 7.1445669,4.0744759 7.0371813,4.6413481 7.04382,4.6479866 c 0.00664,0.00664 0.1155103,-0.020427 0.2419375,-0.060146 0.2013641,-0.063261 0.2918675,-0.072022 0.7298675,-0.070654 0.4526766,0.00141 0.5229222,0.00923 0.7421875,0.082618 C 8.8910156,4.6443866 9,4.6713103 9,4.6596362 9,4.6479622 8.8870703,4.0764091 8.7490453,3.3895178 L 8.4980906,2.140625 8.5068578,1.4787609 C 8.5164441,0.75507037 8.5209366,0.73673028 8.7261656,0.58350481 8.8972075,0.45580353 8.9744959,0.46668556 11.5625,0.98285456 c 1.349219,0.26909724 2.517651,0.50997864 2.596516,0.53529194 0.156962,0.05038 0.28728,0.1673218 0.338996,0.3042004 0.05201,0.1376468 0.04357,1.2808469 -0.01037,1.4052193 C 14.463652,3.2828732 14.2895,3.4809516 14.10063,3.66774 L 13.757227,4.0073547 13.962691,4.26149 c 0.578855,0.7159762 0.986807,1.5591466 1.161475,2.4005825 0.110603,0.5328162 0.133439,0.9312112 0.117245,2.0454506 -0.01694,1.1655885 -0.03853,1.3359319 -0.250174,1.9736759 l -0.100612,0.303176 -0.286112,0.0089 -0.286113,0.0089 0.09303,-0.227696 C 14.543173,10.452098 14.677231,9.9107925 14.715693,9.5459894 14.757906,9.1456019 14.75818,7.7959944 14.71613,7.390625 14.59106,6.1849256 14.145488,5.2186081 13.2567,4.2255444 L 13.051421,3.9961806 13.541335,3.5055475 14.03125,3.0149143 V 2.5074571 C 14.03125,2.2283557 14.027485,2 14.022884,2 14.018282,2 12.890016,1.775 11.515625,1.5 10.141234,1.225 9.0129678,1 9.0083663,1 c -0.0046,0 -0.00837,0.2285156 -0.00838,0.5078125 l -5e-6,0.5078125 0.3022953,1.515625 0.3022953,1.515625 0.2430612,0.258275 c 0.2756809,0.2929363 0.4815329,0.6617628 0.5776979,1.0350641 l 0.05749,0.2231534 0.510205,-0.5082463 0.510205,-0.5082462 0.08076,0.09375 c 0.04442,0.051563 0.21761,0.2366556 0.384867,0.4113181 C 12.51214,6.6192794 12.843439,7.1217084 13.04341,7.68155 13.161395,8.0118678 13.168069,8 12.864322,8 H 12.603643 L 12.566693,7.8766706 C 12.453895,7.5001869 12.103524,6.9554706 11.685097,6.50607 L 11.47957,6.2853284 10.991746,6.7754766 10.503922,7.265625 10.469679,7.4590444 C 10.376827,7.9835131 10.175675,8.3578441 9.7667991,8.7670581 9.4216484,9.1124934 9.1599588,9.2733197 8.71875,9.4111553 8.5152856,9.4747184 8.4204931,9.484375 8,9.484375 7.4445966,9.484375 7.2415591,9.4379813 6.796875,9.2094631 6.4429325,9.0275763 5.9721381,8.5566822 5.7907491,8.203125 5.6495612,7.9279262 5.5502944,7.6322084 5.5171397,7.3880362 5.4961516,7.2334656 5.4826634,7.2163094 5.0151575,6.7495331 L 4.5347431,6.2698688 4.3220591,6.4983403 c -0.489101,0.5254066 -0.8180985,1.0735472 -0.9465085,1.576971 -0.075758,0.2970053 -0.078366,0.415224 -0.014566,0.6603106 0.2453525,0.9425184 1.1344515,1.7282801 2.4428822,2.1589521 0.6463334,0.212742 1.541515,0.355048 2.2351437,0.355319 l 0.2733853,9.4e-5 -0.10419,0.148437 c -0.057305,0.08164 -0.1222684,0.194141 -0.1443643,0.25 -0.039234,0.09919 -0.044657,0.10156 -0.2316954,0.101456 C 7.2023819,11.74953 6.2865,11.595127 5.6305578,11.37873 4.2404312,10.920124 3.3129022,10.135881 2.9404061,9.1041572 2.792034,8.6932025 2.7673712,8.4913694 2.8267837,8.1743053 2.965466,7.434205 3.3317303,6.7847584 4.0141212,6.0689609 4.1731769,5.9021191 4.3499137,5.7118647 4.4068703,5.6461734 L 4.5104272,5.526735 5.0155984,6.0312103 5.5207697,6.5356853 5.5784309,6.3225237 C 5.6817162,5.9407006 5.88149,5.5917225 6.1708378,5.2876675 L 6.4313994,5.0138619 6.7313728,3.5147369 7.0313462,2.0156119 7.0312837,1.5077994 C 7.0312716,1.2285156 7.027485,1 7.0228837,1 7.0182822,1 5.8900156,1.225 4.515625,1.5 3.1412344,1.775 2.0129679,2 2.0083664,2 2.0037649,2 2,2.2286858 2,2.5081906 V 3.0163813 L 2.4821007,3.4977291 2.9642013,3.9790772 2.7294984,4.2428731 C 1.9856317,5.0789472 1.5497127,5.9085441 1.3628446,6.84375 1.2716247,7.3002719 1.2474275,7.7284206 1.2595264,8.671875 c 0.013239,1.0323347 0.044171,1.2683491 0.2447118,1.867157 0.682279,2.037263 2.8567305,3.433098 5.7301368,3.67832 0.6800031,0.05803 1.5291853,0.02916 2.1777503,-0.07404 l 0.241175,-0.03838 0.222955,0.224453 0.2229547,0.224452 -0.4324175,0.06719 c -0.2378297,0.03695 -0.5941362,0.08097 -0.7917925,0.09781 -0.4254,0.03625 -1.3876469,0.03375 -1.828125,-0.0047 z m 1.375,-5.7609527 C 9.3214828,8.7649184 9.9989147,7.9259269 9.9989147,7 9.9989147,5.9092425 9.0907575,5.0010853 8,5.0010853 c -0.7409122,0 -1.4542134,0.4390403 -1.7769522,1.0937225 -0.2954,0.5992253 -0.2954,1.2111591 0,1.8103844 0.3931413,0.7974956 1.3092084,1.2340897 2.1988272,1.0479531 z m 1.5097656,2.0255077 c 0.022559,-0.009 0.049512,-0.0079 0.059896,0.0025 0.010384,0.01038 -0.00807,0.01777 -0.041016,0.01641 -0.036405,-0.0015 -0.043809,-0.0089 -0.01888,-0.01888 z"
       id="path819"
       inkscape:connector-curvature="0" />
  </g>
</svg>
