<?xml version="1.0" encoding="UTF-8" standalone="no"?>
<!-- Created with Inkscape (http://www.inkscape.org/) -->

<svg
   version="1.1"
   id="svg2"
   width="1600"
   height="1600"
   viewBox="0 0 1600 1600"
   sodipodi:docname="collection_bone_remove.svg"
   inkscape:version="1.2.2 (732a01da63, 2022-12-09)"
   inkscape:export-filename="COLLECTION_BONE_REMOVE.png"
   inkscape:export-xdpi="3072"
   inkscape:export-ydpi="3072"
   xmlns:inkscape="http://www.inkscape.org/namespaces/inkscape"
   xmlns:sodipodi="http://sodipodi.sourceforge.net/DTD/sodipodi-0.dtd"
   xmlns="http://www.w3.org/2000/svg"
   xmlns:svg="http://www.w3.org/2000/svg"
   xmlns:rdf="http://www.w3.org/1999/02/22-rdf-syntax-ns#"
   xmlns:cc="http://creativecommons.org/ns#"
   xmlns:dc="http://purl.org/dc/elements/1.1/">
  <metadata
     id="metadata8">
    <rdf:RDF>
      <cc:Work
         rdf:about="">
        <dc:format>image/svg+xml</dc:format>
        <dc:type
           rdf:resource="http://purl.org/dc/dcmitype/StillImage" />
      </cc:Work>
    </rdf:RDF>
  </metadata>
  <defs
     id="defs6" />
  <sodipodi:namedview
     pagecolor="#808080"
     bordercolor="#666666"
     borderopacity="1"
     objecttolerance="10"
     gridtolerance="10"
     guidetolerance="10"
     inkscape:pageopacity="0"
     inkscape:pageshadow="2"
     inkscape:window-width="2560"
     inkscape:window-height="1009"
     id="namedview4"
     showgrid="false"
     inkscape:zoom="0.5"
     inkscape:cx="1232"
     inkscape:cy="870"
     inkscape:window-x="-8"
     inkscape:window-y="-8"
     inkscape:window-maximized="1"
     inkscape:current-layer="svg2"
     inkscape:showpageshadow="0"
     inkscape:pagecheckerboard="true"
     inkscape:deskcolor="#d1d1d1" />
  <g
     id="COLLECTION_BONE_REMOVE"
     style="stroke:none;stroke-width:0.011699"
     transform="matrix(97.688797,0,0,97.688797,-3.1333872e-6,-0.436341)">
    <path
       style="fill:#fecb98;stroke:none;stroke-width:0.000365592"
       d="M 4.6525419,10.309892 V 6.0598921 h 4.5 4.5000001 v 1.921425 6.5798599 l -1.659689,-0.0013 H 8.3226972 4.6525419 Z M 11.033632,9.4720009 c 0.187258,-0.092236 0.376282,-0.281261 0.468519,-0.4685191 0.104034,-0.2112097 0.104034,-0.6447197 0,-0.8559294 C 11.409914,7.9602943 11.22089,7.7712696 11.033632,7.6790333 l -0.146715,-0.072266 h -1.7500001 -1.75 L 7.2402022,7.6790333 C 7.0523503,7.7715621 6.8633969,7.9608699 6.7725603,8.1475524 6.6861656,8.3251062 6.6594716,8.6582899 6.7155847,8.8587055 6.7918457,9.131083 7.0538928,9.409903 7.3294863,9.5119012 c 0.099007,0.036643 0.4197831,0.043338 1.8386806,0.038376 l 1.7187501,-0.00601 z"
       id="path825"
       inkscape:connector-curvature="0"
       sodipodi:nodetypes="ccccccccccsssscccssssscs" />
    <path
       style="fill:#6598cb;stroke:none;stroke-width:0.000365592"
       d="m 3.6525419,3.5598921 v -2 h 5.5 5.5000001 v 2 2 h -5.5000001 -5.5 z"
       id="path823-6"
       inkscape:connector-curvature="0" />
    <path
       style="fill:#323232;stroke:none;stroke-width:0.000365592"
       d="M 4.4494169,15.015778 C 4.3344894,14.964698 4.2302381,14.854636 4.1858735,14.737545 4.1628535,14.676789 4.1525419,13.321763 4.1525419,10.357498 V 6.0654218 L 3.8109715,6.0548446 C 3.4418957,6.0434152 3.3723309,6.0162643 3.2325978,5.8291071 3.1689618,5.7438737 3.1681669,5.7158777 3.1681669,3.5598921 c 0,-2.1559857 7.95e-4,-2.1839815 0.064431,-2.269215 0.035437,-0.047464 0.103265,-0.1152921 0.150729,-0.1507291 l 0.086298,-0.064431 h 5.6829168 5.6829173 l 0.0863,0.064431 c 0.04746,0.035437 0.115292,0.1032651 0.150729,0.1507291 0.06364,0.085234 0.06443,0.1132292 0.06443,2.269215 0,2.1559856 -7.94e-4,2.1839816 -0.06443,2.269215 -0.139733,0.1871572 -0.209298,0.2143081 -0.578374,0.2257375 l -0.341572,0.010577 -8.31e-4,1.8175478 -8.31e-4,7.1771066 -0.498337,-0.0171 V 7.9771222 6.0598921 h -4.5 -4.5 v 4.2499999 4.25 h 3.6713484 3.6713486 1.657302 c 0.04546,0.09023 0.05784,0.482372 10e-7,0.483086 l -1.370744,0.01691 -3.8693157,-0.0012 c -3.154725,-10e-4 -3.8866303,-0.0089 -3.9630664,-0.04291 z M 14.652542,3.5598921 v -2 h -5.5000001 -5.5 v 2 2 h 5.5 5.5000001 z M 7.3294863,9.5119012 C 7.0538928,9.409903 6.7918456,9.131083 6.7155847,8.8587055 6.6594716,8.6582899 6.6861656,8.3251062 6.7725603,8.1475524 6.8633969,7.9608699 7.0523503,7.7715621 7.2402022,7.6790333 l 0.1467147,-0.072266 h 1.75 1.7500001 l 0.146715,0.072266 c 0.187258,0.092236 0.376282,0.281261 0.468519,0.4685191 0.104034,0.2112097 0.104034,0.6447197 0,0.8559294 -0.09224,0.1872581 -0.281261,0.3762828 -0.468519,0.4685191 l -0.146715,0.072266 -1.7187501,0.00601 c -1.4188975,0.00496 -1.7396731,-0.00173 -1.8386806,-0.038376 z"
       id="path821-9"
       inkscape:connector-curvature="0"
       sodipodi:nodetypes="ssscsssssccccsssscccccccccccccsccsccccccccccssscccsssscsc" />
    <path
       style="fill:none;stroke:none;stroke-width:0.000365592"
       d="M 0,8 V 0 h 8 8 C 17.540648,16.613242 14.79333,16 0,16 Z m 4.8549869,2.467708 C 5.09387,10.37833 5.2896019,10.194775 5.4129141,9.9444884 L 5.515625,9.7360169 5.5250584,9.0453881 C 5.5337581,8.4084678 5.5294241,8.3412138 5.4693234,8.1805813 5.4334809,8.0847834 5.3638462,7.9522281 5.3145797,7.8860141 L 5.2250041,7.765625 6.4908238,6.4965363 7.7566437,5.2274475 7.9084034,5.3295741 c 0.2804822,0.1887506 0.3826132,0.2062 1.1446969,0.1955734 L 9.7360256,5.515625 9.9444928,5.4129141 C 10.194775,5.2896013 10.378332,5.0938666 10.467708,4.8549869 10.524501,4.7031931 10.53125,4.6123856 10.53125,4 10.53125,3.1784697 10.50249,3.0609147 10.236413,2.794837 9.9776541,2.5360779 9.8417437,2.5 9.1257219,2.5 H 8.5350381 L 8.5248594,1.9140625 C 8.5126088,1.2088627 8.4699922,1.059666 8.2051631,0.79483697 7.9390853,0.52875919 7.8215303,0.5 7,0.5 6.1784697,0.5 6.0609147,0.52875919 5.7948369,0.79483697 5.5305587,1.0591152 5.5,1.1814333 5.5,1.9749882 5.5,2.5091341 5.51013,2.6672684 5.553076,2.8035066 L 5.6061509,2.9718815 4.2942159,4.2838166 2.982281,5.5957516 2.8465865,5.5478759 C 2.7402373,5.5103537 2.5599377,5.5 2.0128683,5.5 1.1769342,5.5 1.0618059,5.5278678 0.79483697,5.7948369 0.52875919,6.0609147 0.5,6.1784697 0.5,7 0.5,7.8215303 0.52875919,7.9390853 0.79483697,8.2051631 1.059666,8.4699922 1.2088627,8.5126088 1.9140625,8.5248594 L 2.5,8.5350381 v 0.5906838 c 0,0.7160959 0.036065,0.8519187 0.2949469,1.1108011 0.2655363,0.265536 0.3701056,0.291161 1.1960684,0.293099 0.6238447,0.0015 0.7113391,-0.0048 0.8639716,-0.06191 z"
       id="path823"
       inkscape:connector-curvature="0"
       sodipodi:nodetypes="cccccccscssscccsscssssscsssssscccsssssscssccc" />
    <g
       id="g11503"
       style="display:inline;stroke-width:0.011699"
       inkscape:label="Bone">
      <path
         style="fill:#fefefe;stroke:none;stroke-width:0.000365592"
         d="M 3.5821158,10.987272 C 3.4789979,10.932748 3.4059973,10.859743 3.3514671,10.756624 3.2751331,10.612274 3.2716862,10.572606 3.2716862,9.8384651 V 9.0711736 L 3.1590865,8.9622896 3.0464867,8.8534045 2.3004931,8.8428931 C 1.5810698,8.8327565 1.5484522,8.8292664 1.3847159,8.7449163 1.2606528,8.6810044 1.1933092,8.6165613 1.1346348,8.5056062 1.0589512,8.3624864 1.0543372,8.316562 1.0543372,7.7063842 c 0,-0.6089717 0.00473,-0.656327 0.079781,-0.7982449 0.05453,-0.1031182 0.1275306,-0.1761185 0.2306488,-0.2306487 0.1420738,-0.075131 0.1889855,-0.079781 0.8048069,-0.079781 0.7282278,0 0.7950579,0.014517 1.025582,0.222782 L 3.3341543,6.946068 3.4056793,6.8325196 C 3.4997353,6.6832041 6.851002,3.3409783 6.9066658,3.3409783 c 0.023597,0 -0.012033,-0.06418 -0.079177,-0.1426237 C 6.628419,2.9657855 6.5977097,2.822689 6.5977097,2.1276431 c 0,-0.5720532 0.00521,-0.6218577 0.079781,-0.7628762 0.05453,-0.1031182 0.1275305,-0.1761186 0.2306487,-0.2306488 0.1419179,-0.075048 0.1892732,-0.079781 0.7982449,-0.079781 0.6101778,0 0.6561022,0.00461 0.799222,0.080298 0.1109551,0.058674 0.1753982,0.126018 0.2393101,0.2500812 0.08435,0.1637362 0.08784,0.1963539 0.097977,0.9157772 l 0.010511,0.7459931 0.1088851,0.1125998 0.1088846,0.1125997 h 0.7672911 c 0.7341408,0 0.7738098,0.00345 0.9181588,0.079781 0.103118,0.05453 0.176119,0.1275305 0.230649,0.2306486 0.07505,0.1419175 0.07978,0.1892728 0.07978,0.7982445 0,0.6106222 -0.0045,0.6560187 -0.08049,0.7995854 -0.0602,0.1138473 -0.12669,0.1763438 -0.263802,0.2479717 -0.180217,0.094146 -0.19363,0.095751 -0.7943233,0.095002 C 9.2067704,5.5220232 9.149365,5.5046031 8.8098687,5.1835101 8.6888635,5.0690645 8.5742685,4.9732756 8.5552131,4.9706461 8.5361578,4.9680164 7.7135823,5.7727662 6.7272673,6.7589785 l -1.7932996,1.7931131 0.164934,0.1711495 c 0.090714,0.094133 0.1935981,0.2014522 0.2286319,0.2384886 0.1648588,0.1742836 0.1945831,0.3213504 0.1953869,0.9667087 7.484e-4,0.6006946 -8.558e-4,0.6141066 -0.095002,0.7943246 -0.071628,0.137111 -0.1341247,0.203598 -0.2479721,0.263801 -0.1435667,0.07592 -0.1889632,0.08049 -0.7995854,0.08049 -0.6089717,0 -0.656327,-0.0048 -0.7982449,-0.07978 z"
         id="path821"
         inkscape:connector-curvature="0"
         sodipodi:nodetypes="csscccsssssssscsssssssssscccsssscssssscssssssc" />
      <path
         style="fill:#323232;stroke:none;stroke-width:0.000365592"
         d="M 3.4114661,11.545088 C 3.1523574,11.445617 2.8902174,11.180026 2.7919693,10.917435 2.725239,10.739081 2.717349,10.64875 2.717349,10.063118 V 9.4082417 L 2.067735,9.3969565 C 1.285898,9.3833753 1.1204874,9.3361269 0.82687821,9.0425177 0.53188456,8.7475242 0.49999998,8.6171939 0.49999998,7.7063842 c 0,-0.9108097 0.0318846,-1.0411399 0.32687823,-1.3361336 C 1.1228599,6.0742688 1.2504997,6.0433725 2.1772785,6.0433725 c 0.6065219,0 0.8064154,0.011479 0.9243221,0.053079 L 3.2520416,6.1495298 4.7065504,4.695021 6.1610593,3.240512 6.102216,3.053839 C 6.0546037,2.9027952 6.0433725,2.7274757 6.0433725,2.1352818 c 0,-0.8797941 0.03388,-1.0154051 0.3268781,-1.30840356 0.2949937,-0.29499367 0.4253239,-0.32687826 1.3361336,-0.32687826 0.9108097,0 1.04114,0.0318844 1.3361336,0.32687826 C 9.3361271,1.1204874 9.383375,1.285898 9.396957,2.067735 l 0.011285,0.649614 h 0.654876 c 0.793835,0 0.944515,0.039999 1.231395,0.3268782 0.294994,0.2949936 0.326878,0.4253238 0.326878,1.3361335 0,0.6789363 -0.0074,0.7796123 -0.07044,0.9479022 -0.09909,0.2648398 -0.302594,0.4818458 -0.580075,0.6185597 l -0.23113,0.1138729 -0.7571418,0.010557 C 9.1377014,6.0830343 9.0244714,6.0636886 8.7135079,5.8544256 L 8.5452558,5.7412005 7.1418735,7.1482068 l -1.403382,1.4070063 0.09931,0.1334724 c 0.05462,0.07341 0.1318228,0.22037 0.1715604,0.3265788 0.066632,0.1780897 0.071438,0.2526525 0.061792,0.9587894 l -0.010455,0.7656833 -0.113873,0.231126 c -0.1367131,0.277487 -0.353716,0.48099 -0.6185596,0.580081 -0.1692198,0.06332 -0.2662226,0.07027 -0.9578633,0.06864 -0.6957216,-0.0017 -0.7877478,-0.0088 -0.9589335,-0.0745 z m 1.76848,-0.558524 c 0.1138473,-0.0602 0.1763438,-0.12669 0.2479717,-0.263801 0.094146,-0.180218 0.095751,-0.19363 0.095002,-0.7943246 C 5.5221163,9.2830801 5.4923916,9.1360133 5.3275333,8.9617297 5.2924992,8.9246889 5.1896152,8.8173736 5.0989013,8.7232411 L 4.9339676,8.5520916 6.7272673,6.7589785 c 0.986315,-0.9862123 1.8088905,-1.7909617 1.8279458,-1.7883324 0.019056,0.00263 0.1336504,0.098418 0.2546556,0.212864 0.3394963,0.321093 0.3969017,0.3385116 1.1185699,0.3394103 0.6006934,7.484e-4 0.6141064,-8.557e-4 0.7943234,-0.095002 0.137112,-0.071628 0.203598,-0.1341247 0.263802,-0.247972 0.07592,-0.1435667 0.08049,-0.1889632 0.08049,-0.7995854 0,-0.6089717 -0.0048,-0.656327 -0.07978,-0.7982449 -0.05453,-0.1031182 -0.127532,-0.1761188 -0.23065,-0.230649 -0.144349,-0.076334 -0.184018,-0.079781 -0.9181589,-0.079781 H 9.071174 L 8.9622894,3.1590865 8.8534043,3.0464867 8.842893,2.3004931 C 8.8327563,1.5810698 8.8292664,1.5484522 8.7449163,1.3847159 8.6810044,1.2606528 8.6165613,1.1933092 8.5056062,1.1346348 8.3624864,1.0589512 8.316562,1.0543372 7.7063842,1.0543372 c -0.6089717,0 -0.656327,0.00473 -0.7982449,0.079781 -0.1031182,0.05453 -0.1761185,0.1275306 -0.2306487,0.2306488 -0.074572,0.1410184 -0.079781,0.190823 -0.079781,0.7628762 0,0.6950459 0.030709,0.8381424 0.2297798,1.0707116 0.067145,0.078443 0.1027741,0.1426237 0.079177,0.1426237 -0.055663,0 -3.4069308,3.3422258 -3.5009864,3.4915413 L 3.3341542,6.9460681 3.1951558,6.8204917 C 2.9646317,6.6122268 2.8978016,6.5977097 2.1695738,6.5977097 c -0.6158214,0 -0.6627331,0.00465 -0.8048069,0.079781 -0.1031182,0.05453 -0.1761186,0.1275305 -0.2306488,0.2306487 -0.075048,0.1419179 -0.079781,0.1892732 -0.079781,0.7982449 0,0.6101778 0.00461,0.6561022 0.080298,0.799222 0.058674,0.1109551 0.126018,0.1753982 0.2500812,0.2393101 0.1637362,0.08435 0.1963539,0.08784 0.9157772,0.097977 l 0.7459931,0.010532 0.1125998,0.108883 0.1125997,0.108865 v 0.7672915 c 0,0.7341411 0.00345,0.7738091 0.079781,0.9181591 0.05453,0.103118 0.1275305,0.176118 0.2306486,0.230648 0.1419175,0.07505 0.1892728,0.07978 0.7982445,0.07978 0.6106222,0 0.6560187,-0.0045 0.7995854,-0.08049 z"
         id="path819"
         inkscape:connector-curvature="0"
         sodipodi:nodetypes="csscsssssscccsssssscssscscsscccssscscccccsssscssssssscsscccsssssssssscsssssssscccssssc" />
    </g>
    <g
       id="INC_CONTRAST"
       transform="translate(0.12107896,0.11685662)"
       style="display:inline;stroke-width:0.011699;enable-background:new"
       inkscape:label="Add">
      <path
         inkscape:connector-curvature="0"
         id="path823-9902"
         d="M 0,8 V 0 h 8 8 v 8 8 H 8 0 Z m 12.174908,7.45364 c 1.225085,-0.198698 2.336663,-1.013737 2.89315,-2.121336 0.302926,-0.602926 0.431691,-1.149465 0.431691,-1.832304 0,-0.682839 -0.128765,-1.229378 -0.431691,-1.8323041 C 14.880747,9.2948825 14.692877,9.0336319 14.377823,8.7078553 13.785654,8.095535 12.996951,7.6796881 12.174908,7.5463597 c -0.306302,-0.04968 -0.99925,-0.058872 -1.253033,-0.016621 -0.08594,0.014307 -0.159916,0.022693 -0.164396,0.018637 -0.0045,-0.00406 0.01291,-0.067052 0.03864,-0.13999 0.02573,-0.072938 0.07819,-0.2895847 0.116576,-0.4814372 0.09373,-0.4684925 0.100231,-1.3200772 0.01364,-1.7863228 C 10.585682,3.3063828 9.3295394,1.8506318 7.5782094,1.2604598 7.0246478,1.0739178 6.6558153,1.0170268 6,1.0170268 c -0.4719403,0 -0.6412775,0.012687 -0.9219594,0.069077 -2.0754752,0.4169661 -3.6190795,1.9798995 -4.0043781,4.0545214 -0.0806108,0.4340447 -0.0806108,1.2847053 0,1.71875 C 1.4143178,8.6936174 2.6704605,10.149368 4.4217906,10.73954 4.9753522,10.926082 5.3441847,10.982973 6,10.982973 c 0.5911366,0 1.0521431,-0.06116 1.408385,-0.186851 0.072938,-0.02573 0.1359334,-0.04312 0.13999,-0.03864 0.00406,0.0045 -0.00433,0.07846 -0.018637,0.164396 -0.04225,0.253783 -0.033058,0.946731 0.016621,1.253033 0.089921,0.554415 0.3710803,1.234867 0.6895556,1.668842 0.2111622,0.287743 0.5812919,0.661782 0.8734597,0.882685 0.4483109,0.33896 1.1328977,0.63153 1.7023167,0.727514 0.327768,0.05525 1.021634,0.05509 1.363216,-3.13e-4 z"
         style="fill:#ffffff;fill-opacity:0;stroke-width:0.000365592" />
      <path
         inkscape:connector-curvature="0"
         id="path821-0034"
         d="M 10.9375,14.95383 C 10.0484,14.802993 9.2455284,14.318877 8.713275,13.612668 7.5503344,12.069646 7.8530078,9.8696594 9.3873316,8.713275 10.930354,7.5503344 13.130341,7.8530078 14.286725,9.3873316 c 0.944076,1.2526264 0.944076,2.9727104 0,4.2253364 -0.77,1.021659 -2.097988,1.553437 -3.349225,1.341162 z M 12,13 v -1 h 1 1 V 11.5 11 H 13 12 V 10 9 H 11.5 11 v 1 1 H 10 9 v 0.5 0.5 h 1 1 v 1 1 h 0.5 0.5 z"
         style="fill:#00fe00;fill-opacity:1;stroke-width:0.000365592"
         sodipodi:nodetypes="ssssssccccccccccccccccccccccccc" />
      <path
         inkscape:connector-curvature="0"
         id="path819-7529"
         d="M 10.811692,15.453949 C 9.5921819,15.248382 8.4846756,14.432431 7.9319422,13.332304 7.6290159,12.729378 7.5002512,12.182839 7.5002512,11.5 c 0,-0.660796 0.1299616,-1.232239 0.4043644,-1.7779994 C 7.9746481,9.5827128 7.9632938,9.54485 8.0151938,9.46875 8.4012688,8.9026556 8.9026556,8.4012688 9.46875,8.0151938 c 0.0761,-0.0519 0.1139628,-0.040546 0.2532506,-0.1105782 0.8963574,-0.4506794 2.0550834,-0.5350497 3.0195864,-0.219865 1.008808,0.3296631 1.860579,1.0556619 2.326471,1.9829453 0.302926,0.6029261 0.431691,1.1494651 0.431691,1.8323041 0,0.682839 -0.128765,1.229378 -0.431691,1.832304 -0.187311,0.372814 -0.375181,0.634064 -0.690236,0.959841 -0.592168,0.61232 -1.380871,1.028167 -2.202914,1.161495 -0.341582,0.0554 -1.035448,0.05556 -1.363216,3.13e-4 z m 1.235891,-0.499932 c 1.499042,-0.243138 2.663296,-1.407392 2.906434,-2.906434 C 15.195244,10.560316 14.431388,9.0634606 13.085929,8.3868716 11.34667,7.5122531 9.2523972,8.1928947 8.3868716,9.9140712 c -0.5152179,1.0245578 -0.5146947,2.1473868 0.00148,3.1751508 0.6731678,1.340357 2.1747294,2.105574 3.6592314,1.864795 z M 11,13 V 12 H 10 9 V 11.5 11 h 1 1 V 10 9 h 0.5 0.5 v 1 1 h 1 1 v 0.5 0.5 h -1 -1 v 1 1 H 11.5 11 Z"
         style="fill:#323232;stroke-width:0.000365592"
         sodipodi:nodetypes="ssssaasssssssssssssssccccccccccccccccccccccccc" />
    </g>
    <g
       id="DEC_CONTRAST"
       transform="translate(0.12076702,0.10966485)"
       style="display:inline;stroke-width:0.011699;enable-background:new"
       inkscape:label="Remove">
      <path
         inkscape:connector-curvature="0"
         id="path823-4143"
         d="M 0,8 V 0 h 8 8 v 8 8 H 8 0 Z m 12.174908,7.45364 c 1.225085,-0.198698 2.336663,-1.013737 2.89315,-2.121336 0.302926,-0.602926 0.431691,-1.149465 0.431691,-1.832304 0,-0.682839 -0.128765,-1.229378 -0.431691,-1.8323041 C 14.880747,9.2948825 14.692877,9.0336319 14.377823,8.7078553 13.785654,8.095535 12.996951,7.6796881 12.174908,7.5463597 c -0.306302,-0.04968 -0.99925,-0.058872 -1.253033,-0.016621 -0.08594,0.014307 -0.159916,0.022693 -0.164396,0.018637 -0.0045,-0.00406 0.01291,-0.067052 0.03864,-0.13999 0.02573,-0.072938 0.07819,-0.2895847 0.116576,-0.4814372 0.09373,-0.4684925 0.100231,-1.3200772 0.01364,-1.7863228 C 10.585682,3.3063828 9.3295394,1.8506318 7.5782094,1.2604598 7.0246478,1.0739178 6.6558153,1.0170268 6,1.0170268 c -0.4719403,0 -0.6412775,0.012687 -0.9219594,0.069077 -2.0754752,0.4169661 -3.6190795,1.9798995 -4.0043781,4.0545214 -0.0806108,0.4340447 -0.0806108,1.2847053 0,1.71875 C 1.4143178,8.6936174 2.6704605,10.149368 4.4217906,10.73954 4.9753522,10.926082 5.3441847,10.982973 6,10.982973 c 0.5911366,0 1.0521431,-0.06116 1.408385,-0.186851 0.072938,-0.02573 0.1359334,-0.04312 0.13999,-0.03864 0.00406,0.0045 -0.00433,0.07846 -0.018637,0.164396 -0.04225,0.253783 -0.033058,0.946731 0.016621,1.253033 0.089921,0.554415 0.3710803,1.234867 0.6895556,1.668842 0.2111622,0.287743 0.5812919,0.661782 0.8734597,0.882685 0.4483109,0.33896 1.1328977,0.63153 1.7023167,0.727514 0.327768,0.05525 1.021634,0.05509 1.363216,-3.13e-4 z"
         style="fill:#ffffff;fill-opacity:0;stroke-width:0.000365592" />
      <path
         inkscape:connector-curvature="0"
         id="path821-1674"
         d="M 10.9375,14.95383 C 10.0484,14.802993 9.2455284,14.318877 8.713275,13.612668 7.5503344,12.069646 7.8530078,9.8696594 9.3873316,8.713275 10.930354,7.5503344 13.130341,7.8530078 14.286725,9.3873316 c 0.944076,1.2526264 0.944076,2.9727104 0,4.2253364 -0.77,1.021659 -2.097988,1.553437 -3.349225,1.341162 z M 14,11.5 V 11 H 11.5 9 v 0.5 0.5 h 2.5 2.5 z"
         style="fill:#fe0000;fill-opacity:1;stroke-width:0.000365592"
         sodipodi:nodetypes="ssssssccccccccc" />
      <path
         inkscape:connector-curvature="0"
         id="path819-9874"
         d="M 10.811692,15.453949 C 9.5921819,15.248382 8.4846756,14.432431 7.9319422,13.332304 7.6290159,12.729378 7.5002512,12.182839 7.5002512,11.5 c 0,-0.660796 0.1299616,-1.232239 0.4043644,-1.7779994 C 7.9746481,9.5827128 7.9632938,9.54485 8.0151938,9.46875 8.4012688,8.9026556 8.9411628,8.2736147 9.46875,8.0151938 9.7220006,7.9046156 9.5827128,7.9746478 9.7220006,7.9046156 10.618358,7.4539362 11.777084,7.3695659 12.741587,7.6847506 c 1.008808,0.3296631 1.860579,1.0556619 2.326471,1.9829453 0.302926,0.6029261 0.431691,1.1494651 0.431691,1.8323041 0,0.682839 -0.128765,1.229378 -0.431691,1.832304 -0.187311,0.372814 -0.375181,0.634064 -0.690236,0.959841 -0.592168,0.61232 -1.380871,1.028167 -2.202914,1.161495 -0.341582,0.0554 -1.035448,0.05556 -1.363216,3.13e-4 z m 1.235891,-0.499932 c 1.499042,-0.243138 2.663296,-1.407392 2.906434,-2.906434 C 15.195244,10.560316 14.431388,9.0634606 13.085929,8.3868716 11.34667,7.5122531 9.2523972,8.1928947 8.3868716,9.9140712 c -0.5152179,1.0245578 -0.5146947,2.1473868 0.00148,3.1751508 0.6731678,1.340357 2.1747294,2.105574 3.6592314,1.864795 z M 9,11.5 V 11 H 11.5 14 V 11.5 12 H 11.5 9 Z"
         style="fill:#323232;stroke-width:0.000365592"
         sodipodi:nodetypes="ssssacsssssssssssssssccccccccc" />
    </g>
  </g>
</svg>
