<?xml version="1.0" encoding="UTF-8" standalone="no"?>
<!-- Created with Inkscape (http://www.inkscape.org/) -->

<svg
   version="1.1"
   id="svg2"
   width="1600"
   height="1600"
   viewBox="0 0 1600 1600"
   sodipodi:docname="collection_new.svg"
   inkscape:version="1.2.2 (732a01da63, 2022-12-09)"
   xmlns:inkscape="http://www.inkscape.org/namespaces/inkscape"
   xmlns:sodipodi="http://sodipodi.sourceforge.net/DTD/sodipodi-0.dtd"
   xmlns="http://www.w3.org/2000/svg"
   xmlns:svg="http://www.w3.org/2000/svg"
   xmlns:rdf="http://www.w3.org/1999/02/22-rdf-syntax-ns#"
   xmlns:cc="http://creativecommons.org/ns#"
   xmlns:dc="http://purl.org/dc/elements/1.1/">
  <metadata
     id="metadata8">
    <rdf:RDF>
      <cc:Work
         rdf:about="">
        <dc:format>image/svg+xml</dc:format>
        <dc:type
           rdf:resource="http://purl.org/dc/dcmitype/StillImage" />
      </cc:Work>
    </rdf:RDF>
  </metadata>
  <defs
     id="defs6" />
  <sodipodi:namedview
     pagecolor="#808080"
     bordercolor="#666666"
     borderopacity="1"
     objecttolerance="10"
     gridtolerance="10"
     guidetolerance="10"
     inkscape:pageopacity="0"
     inkscape:pageshadow="2"
     inkscape:window-width="2560"
     inkscape:window-height="1009"
     id="namedview4"
     showgrid="false"
     inkscape:zoom="0.5"
     inkscape:cx="1126"
     inkscape:cy="850"
     inkscape:window-x="-8"
     inkscape:window-y="-8"
     inkscape:window-maximized="1"
     inkscape:current-layer="svg2"
     inkscape:showpageshadow="0"
     inkscape:pagecheckerboard="true"
     inkscape:deskcolor="#d1d1d1" />
  <g
     id="COLLECTION_NEW"
     transform="scale(100)"
     style="stroke-width:0.01">
    <path
       style="fill:none;stroke-width:0.0003125"
       d="M 0,8 V 0 h 8 8 L 15.9968,6.0859375 C 15.994146,11.121649 15.986731,12.13143 15.95383,11.9375 15.83093,11.213073 15.437035,10.458462 14.933207,9.9822191 14.27457,9.3596444 13.384034,9.0002513 12.5,9.0002513 c -0.269668,0 -0.771253,0.067482 -0.918939,0.1236324 L 11.5,9.1547031 V 7.3301166 5.5055297 l 0.34157,-0.010577 c 0.369076,-0.011429 0.438641,-0.03858 0.578374,-0.2257375 0.06364,-0.085233 0.06443,-0.1132294 0.06443,-2.269215 0,-2.15598575 -7.94e-4,-2.18398153 -0.06443,-2.26921503 -0.03544,-0.047464 -0.103265,-0.11529209 -0.150729,-0.15072906 L 12.182917,0.515625 H 6.5 0.81708316 L 0.73078496,0.5800559 C 0.68332097,0.61549288 0.61549287,0.68332097 0.58005591,0.73078497 0.51641991,0.81601847 0.515625,0.84401425 0.515625,3 c 0,2.1559856 7.95e-4,2.1839816 0.0644309,2.269215 0.13970596,0.1871209 0.20932971,0.2143091 0.57805,0.2257287 l 0.3412467,0.010569 0.00814,4.3387066 c 0.00811,4.3270197 0.00831,4.3389387 0.072567,4.4250007 0.035437,0.04746 0.1032626,0.115287 0.1507236,0.150724 0.085937,0.06417 0.1023886,0.06447 3.9878511,0.0726 l 3.9015585,0.0082 0.1558706,0.195885 c 0.5176446,0.650532 1.3133096,1.113341 2.1614406,1.257228 0.19393,0.0329 -0.815851,0.04031 -5.8515628,0.04297 L 0,16 Z m 13.0625,7.95383 c 0.690824,-0.1172 1.357149,-0.45061 1.870707,-0.936049 0.503828,-0.476243 0.897723,-1.230854 1.020623,-1.955281 0.03491,-0.205791 0.04015,-0.04096 0.04297,1.351563 L 16,16 14.414063,15.9968 C 13.021541,15.994 12.856709,15.9887 13.0625,15.95383 Z"
       id="path829"
       inkscape:connector-curvature="0" />
    <path
       style="fill:#fefefe;stroke-width:0.0003125"
       d="M 11.9375,15.95383 C 11.0484,15.802993 10.245528,15.318877 9.713275,14.612668 8.5503344,13.069646 8.8530078,10.869659 10.387332,9.713275 c 1.543022,-1.1629406 3.743009,-0.8602672 4.899393,0.674057 0.944076,1.252626 0.944076,2.97271 0,4.225336 -0.77,1.021659 -2.097988,1.553437 -3.349225,1.341162 z M 13,14 v -1 h 1 1 V 12.5 12 H 14 13 V 11 10 H 12.5 12 v 1 1 h -1 -1 v 0.5 0.5 h 1 1 v 1 1 h 0.5 0.5 z"
       id="path827"
       inkscape:connector-curvature="0" />
    <path
       style="fill:#fecb98;stroke-width:0.0003125"
       d="M 2,9.75 V 5.5 H 6.5 11 v 1.921425 1.9214253 l -0.179687,0.090829 C 9.9226606,9.887425 9.2188731,10.886482 9.0459834,11.952417 8.9445444,12.57783 9.0291278,13.29636 9.2676888,13.835789 L 9.3403106,14 H 5.6701553 2 Z M 8.3810897,8.9121088 C 8.5683478,8.8198725 8.7573725,8.6308478 8.8496088,8.4435897 8.9536428,8.23238 8.9536428,7.79887 8.8496088,7.5876603 8.7573725,7.4004022 8.5683478,7.2113775 8.3810897,7.1191412 L 8.234375,7.046875 h -1.75 -1.75 L 4.5876603,7.1191412 C 4.3998084,7.21167 4.210855,7.4009778 4.1200184,7.5876603 4.0336237,7.7652141 4.0069297,8.0983978 4.0630428,8.2988134 c 0.076261,0.2723775 0.3383081,0.5511975 0.6139016,0.6531957 0.099007,0.036643 0.4197831,0.043338 1.8386806,0.038376 l 1.71875,-0.00601 z"
       id="path825"
       inkscape:connector-curvature="0" />
    <path
       style="fill:#6598cb;stroke-width:0.0003125"
       d="M 1,3 V 1 H 6.5 12 V 3 5 H 6.5 1 Z"
       id="path823"
       inkscape:connector-curvature="0" />
    <path
       style="fill:#323232;stroke-width:0.0003125"
       d="M 1.796875,14.455886 C 1.6819475,14.404806 1.5776962,14.294744 1.5333316,14.177653 1.5103116,14.116897 1.5,12.761871 1.5,9.7976056 V 5.5055297 L 1.1584296,5.4949525 C 0.78935384,5.4835231 0.71978897,5.4563722 0.58005591,5.269215 0.51641991,5.1839816 0.515625,5.1559856 0.515625,3 c 0,-2.15598575 7.95e-4,-2.18398153 0.0644309,-2.26921503 0.035437,-0.047464 0.10326506,-0.11529209 0.15072906,-0.15072906 L 0.81708316,0.515625 H 6.5 12.182917 l 0.0863,0.0644309 c 0.04746,0.035437 0.115292,0.10326506 0.150729,0.15072906 0.06364,0.0852335 0.06443,0.11322928 0.06443,2.26921504 0,2.1559856 -7.94e-4,2.1839816 -0.06443,2.269215 -0.139733,0.1871572 -0.209298,0.2143081 -0.578374,0.2257375 L 11.5,5.5055297 11.499169,7.3230775 11.498338,9.140625 11.249169,9.237547 11.000001,9.334469 V 7.4172341 5.5 h -4.4999997 -4.5 V 9.75 14 h 3.6713484 3.6713487 l 0.082659,0.164063 c 0.045462,0.09023 0.1099384,0.202734 0.1432794,0.25 L 9.6292572,14.5 5.7599416,14.498778 C 2.6052164,14.49778 1.8733111,14.489858 1.796875,14.455886 Z M 12,3 V 1 H 6.5 1 V 3 5 H 6.5 12 Z M 4.6769444,8.9520091 C 4.4013509,8.8500109 4.1393037,8.5711909 4.0630428,8.2988134 4.0069297,8.0983978 4.0336237,7.7652141 4.1200184,7.5876603 4.210855,7.4009778 4.3998084,7.21167 4.5876603,7.1191412 L 4.734375,7.046875 h 1.75 1.75 l 0.1467147,0.072266 c 0.1872581,0.092236 0.3762828,0.281261 0.4685191,0.4685191 0.104034,0.2112097 0.104034,0.6447197 0,0.8559294 -0.092236,0.1872581 -0.281261,0.3762828 -0.4685191,0.4685191 l -0.1467147,0.072266 -1.71875,0.00601 c -1.4188975,0.00496 -1.7396731,-0.00173 -1.8386806,-0.038376 z"
       id="path821"
       inkscape:connector-curvature="0" />
    <path
       style="fill:#000000;stroke-width:0.0003125"
       d="M 12,14 V 13 H 11 10 V 12.5 12 h 1 1 v -1 -1 h 0.5 0.5 v 1 1 h 1 1 v 0.5 0.5 h -1 -1 v 1 1 H 12.5 12 Z"
       id="path819"
       inkscape:connector-curvature="0" />
  </g>
</svg>
