<?xml version="1.0" encoding="UTF-8" standalone="no"?>
<!-- Created with Inkscape (http://www.inkscape.org/) -->

<svg
   version="1.1"
   id="svg2"
   width="1500"
   height="1600"
   viewBox="0 0 1500 1600"
   sodipodi:docname="collection_children.svg"
   inkscape:version="1.4.3 (0d15f75, 2025-12-25)"
   xmlns:inkscape="http://www.inkscape.org/namespaces/inkscape"
   xmlns:sodipodi="http://sodipodi.sourceforge.net/DTD/sodipodi-0.dtd"
   xmlns="http://www.w3.org/2000/svg"
   xmlns:svg="http://www.w3.org/2000/svg"
   xmlns:rdf="http://www.w3.org/1999/02/22-rdf-syntax-ns#"
   xmlns:cc="http://creativecommons.org/ns#"
   xmlns:dc="http://purl.org/dc/elements/1.1/">
  <metadata
     id="metadata8">
    <rdf:RDF>
      <cc:Work
         rdf:about="">
        <dc:format>image/svg+xml</dc:format>
        <dc:type
           rdf:resource="http://purl.org/dc/dcmitype/StillImage" />
      </cc:Work>
    </rdf:RDF>
  </metadata>
  <defs
     id="defs6" />
  <sodipodi:namedview
     pagecolor="#808080"
     bordercolor="#666666"
     borderopacity="1"
     objecttolerance="10"
     gridtolerance="10"
     guidetolerance="10"
     inkscape:pageopacity="0"
     inkscape:pageshadow="2"
     inkscape:window-width="2560"
     inkscape:window-height="1009"
     id="namedview4"
     showgrid="true"
     fit-margin-top="0"
     fit-margin-left="0"
     fit-margin-right="0"
     fit-margin-bottom="0"
     inkscape:zoom="0.35355339"
     inkscape:cx="1438.2552"
     inkscape:cy="1032.3759"
     inkscape:window-x="1912"
     inkscape:window-y="-8"
     inkscape:window-maximized="1"
     inkscape:current-layer="GROUP"
     inkscape:showpageshadow="0"
     inkscape:pagecheckerboard="true"
     inkscape:deskcolor="#d1d1d1">
    <inkscape:grid
       id="grid1"
       units="px"
       originx="0"
       originy="0"
       spacingx="100"
       spacingy="100"
       empcolor="#0099e5"
       empopacity="0.30196078"
       color="#0099e5"
       opacity="0.14901961"
       empspacing="5"
       enabled="true"
       visible="true" />
  </sodipodi:namedview>
  <g
     id="GROUP"
     transform="matrix(100,0,0,100,-50,0)"
     style="stroke-width:0.0114286">
    <g
       inkscape:groupmode="layer"
       id="layer1"
       inkscape:label="Children"
       transform="matrix(0.01,0,0,0.01,0.5,0)">
      <path
         style="fill:none;stroke-width:0.0357143"
         d="M 0,900 V 100 h 800 800 v 800 800 H 800 0 Z m 1438.2272,693.7942 c 21.8155,-8.162 47.1811,-33.5839 55.589,-55.7118 5.9896,-15.7632 6.1838,-24.81 6.1838,-287.9987 0,-312.3422 1.9543,-290.70995 -29.0274,-321.30679 C 1443.1789,901.3285 1436.9464,900 1335.9686,900 h -85.8394 l -0.85,-209.14756 c -0.83,-205.69388 -0.95,-209.29 -7.289,-217.77566 -3.544,-4.7454 -10.3257,-11.5275 -15.0712,-15.07119 -8.486,-6.3367 -12.0818,-6.4571 -217.7756,-7.2889 L 800,449.87081 V 364.11513 C 800,262.60377 798.5958,256.05702 770.9726,228.77692 739.8448,198.03571 761.7541,200 450,200 138.2459,200 160.1553,198.03571 129.0274,228.77692 98.0457,259.37374 100,237.74148 100,550.08372 100,861.74259 98.0363,839.84531 128.7769,870.97262 159.3737,901.95428 137.7415,900 450.0837,900 761.7426,900 739.8453,901.96372 770.9726,871.22309 798.5989,843.94 800,837.40425 800,735.82028 V 650 h 125 125 V 775 900 H 964.096 C 863.0455,900 856.8241,901.3255 829.0274,928.77691 798.0463,959.37316 800,937.753 800,1250 c 0,312.2504 -1.9543,290.6263 29.0307,321.2263 30.8646,30.4812 8.2697,28.4603 320.0708,28.6275 264.4322,0.14 273.0324,-0.038 289.1257,-6.06 z"
         id="path835"
         inkscape:connector-curvature="0" />
      <path
         style="fill:#32fe00;stroke-width:0.0357143"
         d="M 1100,750 V 600 H 950 800 v -50 -50 h 200 200 v 200 200 h -50 -50 z"
         id="path823-9"
         inkscape:connector-curvature="0" />
      <path
         style="fill:#009800;stroke-width:0.0357143"
         d="M 1050,775 V 650 H 925 800 v -25 -25 h 150 150 v 150 150 h -25 -25 z m 150,-75 V 500 H 1000 800 v -25.06459 -25.0646 l 209.1476,0.846 c 205.6938,0.832 209.29,0.952 217.7756,7.2889 4.745,3.5437 11.5275,10.32575 15.0712,15.07119 6.337,8.4857 6.457,12.08178 7.289,217.77566 L 1250.1292,900 H 1225.0646 1200 Z"
         id="path819-6"
         inkscape:connector-curvature="0" />
    </g>
    <g
       id="g1"
       style="stroke-width:0.0114286"
       transform="matrix(0.77821294,0,0,0.77821294,-0.52939592,-0.28895535)">
      <path
         style="fill:none;stroke-width:0.000345802"
         d="M 0.5,8 V 0 H 8 15.5 v 8 8 H 8 0.5 Z m 10.564893,6.419944 c 0.0445,-0.03543 0.108083,-0.103263 0.141305,-0.150724 0.06024,-0.08606 0.06042,-0.09798 0.06802,-4.4250009 l 0.0077,-4.3387066 0.319919,-0.010568 c 0.345676,-0.01142 0.410948,-0.038608 0.541922,-0.2257287 0.05965,-0.085234 0.0604,-0.1132294 0.0604,-2.269215 0,-2.15598574 -7.44e-4,-2.18398153 -0.0604,-2.26921503 -0.03325,-0.0474643 -0.09684,-0.11529239 -0.141339,-0.15072936 L 11.92151,0.51562551 H 6.59375 1.2660155 l -0.080905,0.0644304 C 1.1406134,0.61549288 1.0770246,0.68332097 1.0438024,0.73078497 0.98414367,0.81601847 0.98339845,0.84401426 0.98339845,3 c 0,2.1559856 7.453e-4,2.1839816 0.0604039,2.269215 0.1309999,0.1871572 0.1962168,0.2143081 0.5422253,0.2257375 L 1.90625,5.5055299 v 4.292076 c 0,2.9642651 0.00967,4.3192911 0.031248,4.3800481 0.041559,0.117 0.1392553,0.227081 0.247072,0.278395 0.072347,0.03443 0.8582261,0.04064 4.4436562,0.03508 4.3486998,-0.0068 4.3558968,-0.0069 4.4366658,-0.07119 z"
         id="path825"
         inkscape:connector-curvature="0" />
      <path
         style="fill:#fecb98;stroke-width:0.000372513"
         d="M 3.1122705,10.249359 V 5.9924629 h 4.8877284 4.8877281 v 4.2568961 4.256897 H 7.9999989 3.1122705 Z M 10.043167,9.4101083 c 0.203393,-0.092386 0.408703,-0.2817173 0.508888,-0.4692794 0.112997,-0.2115524 0.112997,-0.6457658 0,-0.8573181 C 10.45187,7.8959487 10.24656,7.7066174 10.043167,7.6142315 L 9.8838109,7.5418479 H 7.9830278 6.0822444 l -0.159356,0.072383 C 5.7188509,7.7069103 5.5136168,7.8965251 5.4149537,8.0835105 5.3211147,8.2613523 5.2921209,8.5950767 5.3530685,8.7958174 5.4359005,9.068637 5.7205261,9.3479094 6.0198651,9.450073 6.1274038,9.486776 6.4758175,9.493482 8.0169699,9.488512 l 1.8668407,-0.00602 z"
         id="path823"
         inkscape:connector-curvature="0" />
      <g
         id="path1"
         style="opacity:1">
        <path
           style="baseline-shift:baseline;display:inline;overflow:visible;vector-effect:none;fill:#323232;enable-background:accumulate;stop-color:#000000;stop-opacity:1"
           d="M 2.8916444,14.963044 C 2.766731,14.911649 2.6535434,14.801387 2.6053936,14.684197 2.5803904,14.623347 2.5691906,13.266117 2.5691906,10.297042 V 5.9980016 L 2.1981894,5.9874072 C 1.7973133,5.9759593 1.7217547,5.9487643 1.5699819,5.7613034 1.5008629,5.6759317 1.4999995,5.6478903 1.4999995,3.4884063 c 0,-2.1594841 8.635e-4,-2.0163849 0.069983,-2.1017567 0.03849,-0.047541 0.1121628,-0.1154789 0.1637162,-0.1509736 L 1.8274317,1.17114 h 6.1725676 6.1725677 l 0.09373,0.064536 c 0.05155,0.035494 0.125226,0.1034326 0.163717,0.1509736 0.06911,0.085372 0.06998,-0.057727 0.06998,2.1017567 0,2.159484 -8.62e-4,2.1875254 -0.06998,2.2728971 -0.151744,0.1874245 -0.227366,0.2146569 -0.627856,0.226095 l -0.37065,0.010585 -0.0089,4.3457456 c -0.0088,4.334044 -0.009,4.345981 -0.07881,4.432182 -0.03848,0.04754 -0.112161,0.115475 -0.163712,0.150969 -0.09358,0.06443 -0.101915,0.06454 -5.1401998,0.07131 -4.1539813,0.0056 -5.0644796,-6.48e-4 -5.1482986,-0.03514 z M 12.887727,10.249359 V 5.9924629 H 7.9999995 3.1122711 v 4.2568961 4.256896 H 7.9999995 12.887727 Z M 13.97389,3.4884063 V 1.6563016 H 7.9999995 2.0261092 V 3.4884063 5.4916516 H 7.9999995 13.97389 Z"
           id="path2" />
        <path
           style="baseline-shift:baseline;display:inline;overflow:visible;vector-effect:none;enable-background:accumulate;stop-color:#000000;stop-opacity:1"
           d="M 1.9064618,0.84960938 1.7306805,0.97070313 C 1.6391686,1.0337094 1.5706686,1.0965688 1.5002118,1.1835937 c 0.010544,-0.013023 -0.068721,0.074467 -0.097656,0.1699219 -0.028936,0.095455 -0.030444,0.1646408 -0.035156,0.2949219 -0.00942,0.2605623 -0.00781,0.7600589 -0.00781,1.8398438 0,1.0797848 -0.00142,1.6238508 0.00781,1.9238281 0.00462,0.1499886 0.00959,0.2385521 0.027344,0.3261718 0.017751,0.08762 0.082983,0.1968362 0.1054688,0.2246094 0.087511,0.1080888 0.2060115,0.2233955 0.3613281,0.2792969 0.1553167,0.055901 0.1207953,0.060492 0.3279132,0.066406 l 0.058594,0.00195 v 3.9863285 c 0,1.484941 0.00187,2.567235 0.00781,3.287109 0.00297,0.359938 0.00707,0.628769 0.011719,0.814454 0.00233,0.09284 0.00478,0.164037 0.00781,0.21875 0.00152,0.02736 0.00349,0.05137 0.00586,0.07422 0.00237,0.02285 -0.013308,0.0163 0.027344,0.115235 0.088488,0.215367 0.2496584,0.366195 0.4609375,0.453125 0.1035367,0.04261 0.1190939,0.03087 0.1699218,0.03516 0.050828,0.0043 0.1132967,0.007 0.1972657,0.0098 0.1679379,0.0055 0.4209065,0.0091 0.8007812,0.01172 0.7597494,0.0052 2.0263323,0.0067 4.1035156,0.0039 2.5191443,-0.0034 3.7789173,-0.0066 4.4277343,-0.01563 0.324409,-0.0045 0.493255,-0.01 0.609375,-0.02149 0.05806,-0.0058 0.105494,-0.01153 0.160156,-0.0293 0.05466,-0.01776 0.11045,-0.05383 0.123047,-0.0625 0.09149,-0.06299 0.161933,-0.125804 0.232422,-0.21289 0.0098,-0.01216 0.0502,-0.06695 0.07227,-0.123047 0.02207,-0.0561 0.03037,-0.105428 0.03711,-0.160156 0.01348,-0.109458 0.01844,-0.256064 0.02344,-0.53711 0.01,-0.562091 0.01318,-1.647427 0.01758,-3.814453 l 0.0078,-4.0332035 0.05859,-0.00195 c 0.206941,-0.00591 0.275444,-0.010493 0.430712,-0.066406 0.155269,-0.055913 0.273822,-0.1712147 0.361329,-0.2792969 0.02248,-0.027774 0.08772,-0.1369902 0.105468,-0.2246094 0.01775,-0.087619 0.02273,-0.1761834 0.02734,-0.3261718 0.0092,-0.2999769 0.0078,-0.8440434 0.0078,-1.9238281 0,-1.079785 0.0016,-1.5792821 -0.0078,-1.8398438 -0.0047,-0.1302808 -0.0062,-0.1994729 -0.03516,-0.2949219 -0.02893,-0.095449 -0.108201,-0.1829477 -0.09766,-0.1699219 -0.07046,-0.087026 -0.138969,-0.1498892 -0.230469,-0.21289057 L 14.196338,0.84960938 H 8 Z M 3.4335938,6.3144531 H 8 12.566406 V 10.25 14.185547 H 8 3.4335938 V 10.25 Z"
           id="path3"
           sodipodi:nodetypes="cccscscsssccssccscccccccccccssscccscscssccccccccccccccc" />
      </g>
      <path
         style="fill:#6598cb;stroke-width:0.00036447"
         d="M 2.0261092,3.5739766 V 1.6563016 H 7.9999995 13.97389 v 1.917675 1.917675 H 7.9999995 2.0261092 Z"
         id="path821"
         inkscape:connector-curvature="0" />
      <path
         style="fill:#323232;stroke-width:0.000372513"
         d="M 6.019866,9.4500733 C 5.7205269,9.3479097 5.4359013,9.0686373 5.3530695,8.7958177 5.2921216,8.595077 5.3211157,8.2613526 5.4149543,8.0835108 5.5136175,7.8965254 5.7188515,7.7069103 5.922889,7.6142315 l 0.1593559,-0.072383 h 1.9007834 1.9007832 l 0.1593555,0.072383 c 0.203393,0.092386 0.408704,0.2817172 0.508888,0.4692793 0.112997,0.2115523 0.112997,0.6457657 0,0.8573181 -0.100188,0.1875621 -0.305495,0.3768934 -0.508888,0.4692794 l -0.1593555,0.072383 -1.8668407,0.00602 C 6.4758184,9.4934818 6.1274042,9.4867746 6.019866,9.4500733 Z"
         id="path819" />
    </g>
    <path
       style="stroke-width:0.0357143;fill:#fefe00"
       d="m 861.1061,1593.6733 c -21.3323,-8.3284 -46.9522,-34.203 -54.9003,-55.4461 C 800.1895,1522.1471 800,1513.3449 800,1250 800,937.753 798.0463,959.37316 829.0274,928.77691 860.1552,898.03572 838.2459,900 1150,900 c 263.2721,0 272.319,0.194 288.0824,6.1838 32.4038,12.31245 61.9176,51.87361 61.9176,82.99592 V 1000 H 1200 900 v 300 300 l -11.7187,-0.15 c -6.4454,-0.08 -18.6742,-2.862 -27.1752,-6.181 z"
       id="path829"
       inkscape:connector-curvature="0"
       transform="matrix(0.01,0,0,0.01,0.5,0)" />
    <path
       style="stroke-width:0.0357143;fill:#fecb32"
       d="m 900,1250 v -250 h 250 250 v 250 250 H 1150 900 Z"
       id="path827"
       inkscape:connector-curvature="0"
       transform="matrix(0.01,0,0,0.01,0.5,0)" />
    <path
       style="stroke-width:0.0357143;fill:#986500"
       d="m 900,1550 v -50 h 250 250 v -250 -250 h 50 50 v 260.904 c 0,299.3551 1.887,279.0186 -28.7769,310.0686 -30.519,30.9028 -10.464,29.0274 -310.4028,29.0274 H 900 Z"
       id="path821-8"
       inkscape:connector-curvature="0"
       transform="matrix(0.01,0,0,0.01,0.5,0)" />
  </g>
</svg>
