<?xml version="1.0" encoding="UTF-8" standalone="no"?>
<!-- Created with Inkscape (http://www.inkscape.org/) -->

<svg
   version="1.1"
   id="svg2"
   width="1600"
   height="1600"
   viewBox="0 0 1600 1600"
   sodipodi:docname="color_green.svg"
   inkscape:version="1.2.2 (732a01da63, 2022-12-09)"
   xmlns:inkscape="http://www.inkscape.org/namespaces/inkscape"
   xmlns:sodipodi="http://sodipodi.sourceforge.net/DTD/sodipodi-0.dtd"
   xmlns="http://www.w3.org/2000/svg"
   xmlns:svg="http://www.w3.org/2000/svg"
   xmlns:rdf="http://www.w3.org/1999/02/22-rdf-syntax-ns#"
   xmlns:cc="http://creativecommons.org/ns#"
   xmlns:dc="http://purl.org/dc/elements/1.1/">
  <metadata
     id="metadata8">
    <rdf:RDF>
      <cc:Work
         rdf:about="">
        <dc:format>image/svg+xml</dc:format>
        <dc:type
           rdf:resource="http://purl.org/dc/dcmitype/StillImage" />
      </cc:Work>
    </rdf:RDF>
  </metadata>
  <defs
     id="defs6" />
  <sodipodi:namedview
     pagecolor="#808080"
     bordercolor="#666666"
     borderopacity="1"
     objecttolerance="10"
     gridtolerance="10"
     guidetolerance="10"
     inkscape:pageopacity="0"
     inkscape:pageshadow="2"
     inkscape:window-width="1993"
     inkscape:window-height="1009"
     id="namedview4"
     showgrid="false"
     inkscape:zoom="0.5"
     inkscape:cx="685"
     inkscape:cy="652"
     inkscape:window-x="-8"
     inkscape:window-y="-8"
     inkscape:window-maximized="1"
     inkscape:current-layer="COLOR_GREEN"
     inkscape:showpageshadow="0"
     inkscape:pagecheckerboard="true"
     inkscape:deskcolor="#d1d1d1" />
  <g
     id="COLOR_GREEN"
     transform="matrix(100,0,0,100,0,4.9999997e-5)"
     style="stroke-width:0.0114286">
    <path
       style="fill:none;stroke-width:0.000357143"
       d="M 0,8 V 0 h 8 8 v 8 8 H 8 0 Z m 8.796875,6.96806 c 1.0910781,-0.121919 2.135542,-0.502251 3.0625,-1.115181 0.832904,-0.55074 1.441275,-1.159162 1.993337,-1.993504 0.612813,-0.926157 0.993401,-1.9711672 1.115348,-3.0625 0.04042,-0.3617622 0.04042,-1.2319878 0,-1.59375 C 14.797833,5.6797294 14.110067,4.2250319 13.034619,3.1136977 11.922238,1.9641984 10.385941,1.2095045 8.796875,1.0319401 8.4351128,0.9915163 7.5648872,0.9915163 7.203125,1.0319401 5.6797294,1.2021664 4.2250319,1.889933 3.1136977,2.9653809 2.1160218,3.9308406 1.3990832,5.2425569 1.1280445,6.5983469 1.0321404,7.0780784 1.0005128,7.4256856 1.0005128,8 c 0,0.5743144 0.031628,0.9219216 0.1275317,1.4016531 0.2710387,1.3557899 0.9879773,2.6675059 1.9856532,3.6329659 1.094942,1.059585 2.5614857,1.759853 4.0425523,1.9303 0.3335713,0.03839 1.3084822,0.04026 1.640625,0.0031 z"
       id="path827"
       inkscape:connector-curvature="0" />
    <path
       style="fill:#98fecb;stroke-width:0.000357143"
       d="M 7.34375,13.964919 C 5.8109619,13.788519 4.3899206,13.027586 3.4116531,11.859375 1.8915469,10.044121 1.5741252,7.5397319 2.5945878,5.4129075 3.1962641,4.1589078 4.1581306,3.1966691 5.4107991,2.595607 7.5397972,1.5740596 10.043314,1.8908713 11.859375,3.4116531 13.204706,4.5382419 13.999487,6.2422338 13.999487,8 c 0,1.7577663 -0.794781,3.461758 -2.140112,4.588347 -1.251181,1.047747 -2.9288631,1.559182 -4.515625,1.376572 z M 8.9514219,12.907821 C 10.743288,12.544671 12.159308,11.300044 12.73954,9.5782094 12.926082,9.0246478 12.982973,8.6558153 12.982973,8 c 0,-0.4719403 -0.01269,-0.6412775 -0.06908,-0.9219594 -0.416967,-2.0754753 -1.9799,-3.6190793 -4.054522,-4.0043781 -0.4340447,-0.080611 -1.2847053,-0.080611 -1.71875,0 C 5.3063828,3.4143178 3.8506319,4.6704606 3.2604597,6.4217906 3.0739178,6.9753522 3.0170268,7.3441847 3.0170268,8 c 0,0.4719403 0.012687,0.6412775 0.069077,0.9219594 0.2727398,1.3575796 1.0204276,2.4848556 2.1482714,3.2389126 0.6543878,0.437513 1.3483894,0.687183 2.28125,0.820691 0.2331378,0.03337 1.1361403,-0.01301 1.4357969,-0.07374 z"
       id="path825"
       inkscape:connector-curvature="0" />
    <path
       style="fill:#00fe00;stroke-width:0.000357143"
       d="M 3.0110548,7.6879516 C 3.1165817,6.0776866 3.9971606,4.603925 5.359375,3.7577369 6.0554844,3.3253238 6.8682231,3.0647748 7.6886712,3.0110076 L 8,2.990605 V 5.4953025 8 H 5.4953025 2.990605 Z"
       id="path823"
       inkscape:connector-curvature="0" />
    <path
       style="fill:#009800;stroke-width:0.000357143"
       d="M 7.515625,12.981563 C 7.1041747,12.922678 6.7774847,12.852221 6.484375,12.759156 5.3557728,12.400813 4.3803622,11.642943 3.7577369,10.640625 3.3253238,9.9445156 3.0647748,9.1317769 3.0110076,8.3113288 L 2.990605,8 H 5.4953025 8 V 5.4953025 2.990605 l 0.3113288,0.020403 c 2.3079012,0.1512454 4.1887112,1.8342373 4.6150092,4.129617 0.08614,0.4638375 0.08006,1.3180453 -0.01269,1.7813344 -0.408811,2.0421066 -1.932029,3.5744096 -3.9622301,3.9858616 -0.2996566,0.06073 -1.2026591,0.107108 -1.4357969,0.07374 z"
       id="path821"
       inkscape:connector-curvature="0" />
    <path
       style="fill:#323232;stroke-width:0.000357143"
       d="M 7.15625,14.964919 C 5.6751834,14.794472 4.2086397,14.094204 3.1136977,13.034619 2.1160218,12.069159 1.3990832,10.757443 1.1280445,9.4016531 1.0321404,8.9219216 1.0005128,8.5743144 1.0005128,8 c 0,-0.5743144 0.031628,-0.9219216 0.1275317,-1.4016531 C 1.4389603,5.0430834 2.3253894,3.5732044 3.5625,2.5615263 3.8712794,2.3090142 4.477225,1.9183228 4.84375,1.7354233 5.5968428,1.3596229 6.3917772,1.1226012 7.203125,1.0319401 c 0.3617622,-0.0404238 1.2319878,-0.0404238 1.59375,0 1.0910781,0.1219186 2.135542,0.5022505 3.0625,1.1151813 0.832904,0.5507394 1.441275,1.1591614 1.993337,1.9935036 0.612813,0.9261569 0.993401,1.9711672 1.115348,3.0625 0.04042,0.3617622 0.04042,1.2319878 0,1.59375 -0.170227,1.523396 -0.857993,2.978093 -1.933441,4.089427 -1.112381,1.1495 -2.648678,1.904194 -4.237744,2.081758 -0.3321428,0.03711 -1.3070537,0.03525 -1.640625,-0.0031 z M 8.609375,13.96806 c 1.2134053,-0.135588 2.330759,-0.609935 3.25,-1.379713 C 13.204706,11.461758 13.999487,9.7577663 13.999487,8 c 0,-1.7577662 -0.794781,-3.4617581 -2.140112,-4.5883469 -2.2404553,-1.8761722 -5.4782947,-1.8761722 -7.71875,0 C 2.7952944,4.5382419 2.0005128,6.2422337 2.0005128,8 c 0,1.8109975 0.8432565,3.558142 2.2651122,4.693088 1.2045741,0.96151 2.8436166,1.442599 4.34375,1.274972 z"
       id="path819"
       inkscape:connector-curvature="0" />
  </g>
</svg>
