<?xml version="1.0" encoding="UTF-8" standalone="no"?>
<!-- Created with Inkscape (http://www.inkscape.org/) -->

<svg
   version="1.1"
   id="svg2"
   width="1600"
   height="1600"
   viewBox="0 0 1600 1600"
   sodipodi:docname="columns_markers.svg"
   inkscape:version="1.2.2 (732a01da63, 2022-12-09)"
   xmlns:inkscape="http://www.inkscape.org/namespaces/inkscape"
   xmlns:sodipodi="http://sodipodi.sourceforge.net/DTD/sodipodi-0.dtd"
   xmlns="http://www.w3.org/2000/svg"
   xmlns:svg="http://www.w3.org/2000/svg"
   xmlns:rdf="http://www.w3.org/1999/02/22-rdf-syntax-ns#"
   xmlns:cc="http://creativecommons.org/ns#"
   xmlns:dc="http://purl.org/dc/elements/1.1/">
  <metadata
     id="metadata8">
    <rdf:RDF>
      <cc:Work
         rdf:about="">
        <dc:format>image/svg+xml</dc:format>
        <dc:type
           rdf:resource="http://purl.org/dc/dcmitype/StillImage" />
      </cc:Work>
    </rdf:RDF>
  </metadata>
  <defs
     id="defs6" />
  <sodipodi:namedview
     pagecolor="#808080"
     bordercolor="#666666"
     borderopacity="1"
     objecttolerance="10"
     gridtolerance="10"
     guidetolerance="10"
     inkscape:pageopacity="0"
     inkscape:pageshadow="2"
     inkscape:window-width="2560"
     inkscape:window-height="1009"
     id="namedview4"
     showgrid="false"
     inkscape:zoom="0.5"
     inkscape:cx="846"
     inkscape:cy="1066"
     inkscape:window-x="-8"
     inkscape:window-y="-8"
     inkscape:window-maximized="1"
     inkscape:current-layer="svg2"
     inkscape:showpageshadow="0"
     inkscape:pagecheckerboard="true"
     inkscape:deskcolor="#d1d1d1" />
  <g
     id="COLUMNS_MARKERS"
     transform="scale(100.00301)"
     style="stroke-width:0.00999967">
    <path
       style="fill:none;stroke-width:0.000312491"
       d="M 0,8 V 0 h 7.9997587 7.9997593 l -6e-6,7.95114 c -5e-6,7.169584 -0.0048,7.955943 -0.04887,8 -0.04378,0.04378 -0.43422,0.04869 -3.757566,0.04722 -3.4656225,-0.0015 -3.7035844,-0.005 -3.63058,-0.05349 0.1408428,-0.09347 0.2999881,-0.276738 0.3755838,-0.43251 0.061746,-0.127234 0.076374,-0.214199 0.086892,-0.5166 0.011816,-0.339735 0.017309,-0.366107 0.083651,-0.401612 0.039053,-0.0209 0.4538815,-0.437353 0.9218412,-0.925451 0.467961,-0.488098 0.859965,-0.887257 0.871122,-0.887021 0.01116,2.5e-4 0.322629,0.654787 0.69216,1.454556 0.369531,0.79977 0.701529,1.482193 0.737773,1.516496 0.10488,0.09926 0.271096,0.132459 0.397917,0.07947 0.0591,-0.0247 0.488503,-0.271595 0.954216,-0.548664 0.639025,-0.380179 0.858355,-0.5262 0.894048,-0.595223 0.107989,-0.208827 0.08817,-0.263129 -0.593329,-1.625814 -0.352344,-0.704524 -0.640625,-1.295082 -0.640625,-1.312351 0,-0.02044 0.388108,-0.0314 1.112366,-0.0314 1.218871,0 1.22559,-9.5e-4 1.336523,-0.188745 0.05964,-0.100968 0.06548,-0.32833 0.01094,-0.42634 C 15.782705,11.06615 14.278161,9.4318425 12.460148,7.4718709 8.8570716,3.5874478 9.0610916,3.7878006 8.7972994,3.87486 L 8.6803344,3.9134619 6.8948547,2.1334625 C 5.4879541,0.73088022 5.076245,0.3376565 4.953125,0.27891481 4.7285547,0.17177019 4.3031428,0.17165813 4.078125,0.27868433 3.8504728,0.3869635 0.23178186,4.0050866 0.12181358,4.234375 0.05414552,4.3754656 0.046875,4.4315553 0.046875,4.8125 c 0,0.3860144 0.0065774,0.4351566 0.0773794,0.578125 0.098656,0.1992131 0.28590744,0.3864647 0.4851206,0.4851206 l 0.15625,0.077379 1.2635579,0.00916 1.263558,0.00916 L 1.745041,7.5247878 C 0.54129981,8.7329134 0.18062142,9.1128497 0.12210806,9.234375 0.05406191,9.3756988 0.046875,9.4309263 0.046875,9.8125 c 0,0.386014 0.0065774,0.435157 0.0773794,0.578125 0.098656,0.199213 0.28590744,0.386465 0.4851206,0.485121 l 0.15625,0.07738 1.3417783,0.0091 1.3417783,0.0091 -1.6103141,1.615906 C 0.58358603,13.84686 0.21197068,14.237574 0.15333924,14.359375 0.08531725,14.500684 0.078125,14.555966 0.078125,14.9375 c 0,0.383861 0.0068385,0.43566 0.07589289,0.574863 0.0775655,0.156359 0.23759408,0.339838 0.37723211,0.43251 0.0755455,0.05014 0.0680648,0.0519 -0.2265625,0.05349 L 0,16 Z M 8.6477866,0.04361979 C 8.6374025,0.03323568 8.6104491,0.03212548 8.5878906,0.0411527 c -0.024929,0.0099758 -0.017524,0.01738071 0.01888,0.0188802 0.032942,0.0013569 0.0514,-0.006029 0.041016,-0.01641311 z m 0.25,0 C 8.8874025,0.03323568 8.8604491,0.03212548 8.8378906,0.0411527 c -0.024929,0.0099758 -0.017524,0.01738071 0.01888,0.0188802 0.032942,0.0013569 0.0514,-0.006029 0.041016,-0.01641311 z m 0.25,0 C 9.1374025,0.03323568 9.1104491,0.03212548 9.0878906,0.0411527 c -0.024929,0.0099758 -0.017524,0.01738071 0.01888,0.0188802 0.032942,0.0013569 0.0514,-0.006029 0.041016,-0.01641311 z M 7.0794347,12.40756 5.6434994,10.97137 6.9545622,10.96227 c 1.27212,-0.0089 1.3150078,-0.01113 1.4438753,-0.0766 L 8.53125,10.81817 v 1.512789 c 0,0.832034 -0.00357,1.512789 -0.00794,1.512789 -0.00437,0 -0.6541106,-0.646286 -1.4438753,-1.43619 z M 7.1263522,7.3607275 5.7373425,5.9714547 7.0014838,5.96229 C 8.2254478,5.95342 8.2698459,5.95098 8.3984375,5.885648 L 8.53125,5.8181719 v 1.465914 C 8.53125,8.0903388 8.527675,8.75 8.5233059,8.75 8.5189366,8.75 7.8903075,8.1248272 7.1263522,7.3607275 Z"
       id="path827"
       inkscape:connector-curvature="0" />
    <path
       style="fill:#fefefe;stroke-width:0.000312491"
       d="m 12.755798,14.79119 c -0.01646,-0.03125 -0.334946,-0.717752 -0.707745,-1.525565 -0.756429,-1.639098 -0.756977,-1.63997 -1.031248,-1.641507 l -0.15743,-8.83e-4 -0.756957,0.77432 -0.7569558,0.77432 -8.563e-4,-3.9203125 c -5.156e-4,-2.3667384 0.010456,-3.9085478 0.02769,-3.890625 0.0157,0.016328 1.1694191,1.2601562 2.5638211,2.7640625 l 2.535275,2.734375 -0.962259,0.01563 c -0.645437,0.01048 -0.982836,0.02754 -1.024758,0.05182 -0.128527,0.07443 -0.210353,0.19419 -0.225698,0.330338 -0.01438,0.127556 0.02973,0.226164 0.706744,1.579937 0.397143,0.79414 0.722079,1.449173 0.722079,1.455628 0,0.0065 -0.172266,0.114363 -0.382812,0.239795 -0.210547,0.125433 -0.413446,0.247731 -0.450887,0.271774 -0.06032,0.03874 -0.07148,0.03725 -0.098,-0.0131 z M 8.5878906,0.04115269 c 0.022559,-0.0090272 0.049512,-0.007917 0.059896,0.0024671 0.010384,0.01038412 -0.00807,0.01777001 -0.041016,0.0164131 -0.036405,-0.0014995 -0.043809,-0.0089044 -0.01888,-0.0188802 z m 0.25,0 c 0.022559,-0.0090272 0.049512,-0.007917 0.059896,0.0024671 0.010384,0.01038412 -0.00807,0.01777001 -0.041016,0.0164131 -0.036405,-0.0014995 -0.043809,-0.0089044 -0.01888,-0.0188802 z m 0.25,0 c 0.022559,-0.0090272 0.049512,-0.007917 0.059896,0.0024671 0.010384,0.01038412 -0.00807,0.01777001 -0.041016,0.0164131 -0.036405,-0.0014995 -0.043809,-0.0089044 -0.01888,-0.0188802 z"
       id="path825"
       inkscape:connector-curvature="0" />
    <path
       style="fill:#fe9729;stroke-width:0.000312491"
       d="m 1.0625,14.945208 v -0.148542 l 1.7422917,-1.742084 1.7422917,-1.742083 1.7420832,1.742292 1.7420834,1.742291 v 0.148334 0.148334 H 4.546875 1.0625 Z M 1.03125,9.8202078 V 9.6716656 L 2.7735417,7.9295825 4.5158334,6.1874991 6.2579166,7.9297906 8,9.6720825 V 9.8204163 9.96875 H 4.515625 1.03125 Z m 0,-5 V 4.6716656 L 2.7735417,2.9295824 4.5158334,1.1874991 6.2579166,2.9297908 8,4.6720825 V 4.8204162 4.96875 H 4.515625 1.03125 Z"
       id="path823"
       inkscape:connector-curvature="0" />
    <path
       style="fill:#313131;stroke-width:0.000312491"
       d="M 0.46854066,15.895064 C 0.30161655,15.772526 0.17912419,15.597303 0.10767091,15.378847 0.02901957,15.138384 0.05540092,14.571547 0.15511851,14.359375 0.21326295,14.235659 0.56385078,13.866663 1.8388675,12.587219 l 1.6103141,-1.615906 -1.3417783,-0.0091 -1.3417783,-0.0091 -0.15625,-0.07738 C 0.41016184,10.77709 0.22291038,10.589838 0.1242544,10.390625 0.05345245,10.247657 0.046875,10.198514 0.046875,9.8125 0.046875,9.4309263 0.0540619,9.3756988 0.12210806,9.234375 0.18062142,9.1128497 0.54129981,8.7329134 1.745041,7.5247878 L 3.2927409,5.9714509 2.0291829,5.9622878 0.765625,5.953125 0.609375,5.8757456 C 0.41016184,5.7770897 0.22291038,5.5898381 0.1242544,5.390625 0.05345245,5.2476566 0.046875,5.1985144 0.046875,4.8125 0.046875,4.4315553 0.0541455,4.3754656 0.12181358,4.234375 0.23178186,4.0050866 3.8504728,0.3869635 4.078125,0.27868433 c 0.2250178,-0.1070262 0.6504297,-0.10691414 0.875,2.3062e-4 0.1231231,0.0587432 0.5350178,0.45215413 1.9427953,1.85561205 l 1.786545,1.7810638 -0.067795,0.091621 C 8.5499559,4.0946686 8.546165,4.1381145 8.53125,4.9632692 l -0.015625,0.8644369 -0.125,0.062709 c -0.1179681,0.059182 -0.1961141,0.063225 -1.3891428,0.071875 l -1.2641425,0.00916 1.3973915,1.3976503 1.3973913,1.3976504 -0.00825,1.0304496 -0.00825,1.0304496 -0.125,0.06273 c -0.1175141,0.05898 -0.203145,0.06367 -1.4298591,0.07836 l -1.304859,0.01563 1.4376715,1.437373 1.4376716,1.437372 v 0.261617 0.261616 l 0.1213234,0.121324 c 0.1016457,0.101645 0.1421941,0.121323 0.25,0.121323 H 9.03125 v 0.311408 c 0,0.471436 -0.1288194,0.768215 -0.4205825,0.968953 L 8.4731141,16 4.5412444,15.999225 0.609375,15.998451 Z M 8.03125,14.945416 V 14.797083 L 6.2891666,13.054791 4.5470834,11.312499 2.8047917,13.054583 1.0625,14.796666 v 0.148542 0.148542 H 4.546875 8.03125 Z M 8,9.8204162 V 9.6720825 L 6.2579166,7.9297906 4.5158334,6.1874991 2.7735417,7.9295825 1.03125,9.6716656 V 9.8202078 9.96875 H 4.515625 8 Z m 0,-5 V 4.6720825 L 6.2579166,2.9297908 4.5158334,1.1874991 2.7735417,2.9295824 1.03125,4.6716656 V 4.8202078 4.96875 H 4.515625 8 Z"
       id="path821"
       inkscape:connector-curvature="0" />
    <path
       style="fill:#000000;stroke-width:0.000312491"
       d="m 15.924116,15.976563 c 0.01556,-0.01289 0.03878,-0.0375 0.0516,-0.05469 0.01331,-0.01783 0.02353,-0.0078 0.0238,0.02344 2.81e-4,0.0304 -0.02265,0.05469 -0.05161,0.05469 -0.02865,0 -0.03936,-0.01055 -0.0238,-0.02344 z m -3.441463,-0.13572 c -0.05251,-0.01483 -0.1247,-0.05892 -0.160423,-0.09797 -0.03572,-0.03905 -0.365417,-0.721322 -0.732653,-1.516164 -0.367236,-0.794842 -0.677196,-1.445233 -0.688799,-1.445313 -0.0116,-9.3e-5 -0.404232,0.39947 -0.872508,0.887888 -0.4682759,0.488418 -0.8848344,0.903262 -0.9256856,0.921875 -0.040852,0.01861 -0.1315178,0.03384 -0.2014813,0.03384 -0.1060978,0 -0.1473381,-0.02013 -0.2485297,-0.121323 L 8.53125,14.382353 V 9.2582978 4.1342428 L 8.602059,4.0291687 c 0.040133,-0.059553 0.1218131,-0.1244865 0.1885378,-0.1498818 0.2619319,-0.099692 0.05014,-0.3071466 3.6680912,3.5929734 1.818815,1.9606669 3.324017,3.5951717 3.344892,3.6322317 0.02088,0.03706 0.03845,0.135834 0.03906,0.219497 9.87e-4,0.13571 -0.01198,0.165198 -0.120216,0.273438 L 15.6011,11.71875 h -1.128676 c -0.735184,0 -1.128677,0.01095 -1.128677,0.0314 0,0.01727 0.288281,0.607827 0.640625,1.312351 0.680818,1.361321 0.701233,1.417152 0.593991,1.624533 -0.03482,0.06733 -0.258509,0.216214 -0.882812,0.587578 -0.459899,0.273569 -0.864304,0.511594 -0.898679,0.528946 -0.10437,0.05268 -0.213779,0.06567 -0.314222,0.03729 z m 0.822035,-1.308327 c 0.210546,-0.125432 0.382812,-0.23334 0.382812,-0.239795 0,-0.0065 -0.323438,-0.658492 -0.71875,-1.448971 -0.496909,-0.993634 -0.718714,-1.468622 -0.718633,-1.538929 1.56e-4,-0.123821 0.09189,-0.281739 0.207869,-0.357811 0.07673,-0.05032 0.18973,-0.05807 1.051084,-0.07201 L 14.474184,10.859375 13.560043,9.875 C 13.057265,9.3335938 11.943076,8.13125 11.084067,7.203125 10.225058,6.275 9.4820741,5.4737078 9.4329913,5.4224759 l -0.089241,-0.093149 9.75e-4,3.921274 9.75e-4,3.9212741 0.7568377,-0.774228 0.756838,-0.774227 0.140625,9.06e-4 c 0.208269,0.0013 0.319855,0.08467 0.432418,0.322913 0.05259,0.111313 0.364973,0.783956 0.694178,1.494762 0.329204,0.710805 0.612183,1.31794 0.628842,1.349188 0.02684,0.05034 0.03804,0.05183 0.09836,0.0131 0.03744,-0.02404 0.24034,-0.146341 0.450886,-0.271773 z m 2.671943,-6.548141 c 3.47e-4,-0.06875 0.0067,-0.093195 0.01422,-0.054323 0.0075,0.038872 0.0072,0.095122 -6.31e-4,0.125 -0.0078,0.029878 -0.01394,-0.00193 -0.01359,-0.070677 z"
       id="path819"
       inkscape:connector-curvature="0" />
  </g>
</svg>
