<?xml version="1.0" encoding="UTF-8" standalone="no"?>
<!-- Created with Inkscape (http://www.inkscape.org/) -->

<svg
   version="1.1"
   id="svg2"
   width="1600"
   height="1600"
   viewBox="0 0 1600 1600"
   sodipodi:docname="COMBINE_MATRIX.svg"
   inkscape:version="1.2.2 (732a01da63, 2022-12-09)"
   xmlns:inkscape="http://www.inkscape.org/namespaces/inkscape"
   xmlns:sodipodi="http://sodipodi.sourceforge.net/DTD/sodipodi-0.dtd"
   xmlns="http://www.w3.org/2000/svg"
   xmlns:svg="http://www.w3.org/2000/svg">
  <defs
     id="defs6" />
  <sodipodi:namedview
     id="namedview4"
     pagecolor="#ffffff"
     bordercolor="#000000"
     borderopacity="0.25"
     inkscape:showpageshadow="2"
     inkscape:pageopacity="0.0"
     inkscape:pagecheckerboard="true"
     inkscape:deskcolor="#d1d1d1"
     showgrid="false"
     inkscape:zoom="0.125"
     inkscape:cx="-1756"
     inkscape:cy="752"
     inkscape:window-width="2560"
     inkscape:window-height="1377"
     inkscape:window-x="-8"
     inkscape:window-y="-8"
     inkscape:window-maximized="1"
     inkscape:current-layer="svg2" />
  <g
     id="COMBINE_MATRIX"
     transform="scale(100)">
    <path
       style="fill:#ffffff;fill-opacity:0;stroke-width:0.03125"
       d="M 0,8 V 0 h 8 8 v 8 8 H 8 0 Z m 4,6.5 V 14 H 3 2 V 11.5 9 H 1.5 1 v 3 3 H 2.5 4 Z M 15,8 V 1 H 13.5 12 V 1.5 2 h 1 1 v 6 6 H 13 12 V 14.5 15 H 13.5 15 Z M 5,12 V 11 H 4 3 v 1 1 h 1 1 z m 4,0 V 11 H 8 7 v 1 1 h 1 1 z m 4,0 v -1 h -1 -1 v 1 1 h 1 1 z M 13,8 V 7 h -1 -1 v 1 1 h 1 1 z M 2.5146259,7.7362412 C 2.8108888,7.5739866 3.1432497,7.3961862 3.2532053,7.3411297 3.3631613,7.2860734 3.8117187,7.0480856 4.25,6.8122684 5.2787616,6.2587428 5.8328028,5.9628487 6.8125,5.4437266 7.2507812,5.21149 7.6617087,4.9885972 7.7256719,4.9484094 7.8680691,4.8589416 7.9475412,4.7138859 7.9477553,4.543055 7.9480741,4.2880022 7.8932984,4.2405606 7.0921425,3.8020119 6.6891203,3.5813994 6.1625,3.2989741 5.921875,3.1744 5.68125,3.0498259 5.1720022,2.7768112 4.7902131,2.5677008 4.4084241,2.3585903 4.0868784,2.1875 4.0756675,2.1875 4.0644566,2.1875 3.8143294,2.0558003 3.5198294,1.8948339 3.2253294,1.7338676 2.7628906,1.4865675 2.4921875,1.3452782 2.1176526,1.1497956 2,1.0740894 2,1.0285693 2,0.97213603 1.9716979,0.96875 1.5,0.96875 H 1 V 4.5 8.03125 H 1.487983 1.975966 Z M 13,4 V 3 h -1 -1 v 1 1 h 1 1 z"
       id="path853" />
    <path
       style="fill:#fefefe;stroke-width:0.03125"
       d="M 1,12 V 9 H 1.5 2 V 11.5 14 H 3 4 V 14.5 15 H 2.5 1 Z m 11,2.5 V 14 h 1 1 V 8 2 H 13 12 V 1.5 1 h 1.5 1.5 v 7 7 H 13.5 12 Z M 3,12 v -1 h 1 1 v 1 1 H 4 3 Z m 4,0 v -1 h 1 1 v 1 1 H 8 7 Z m 4,0 v -1 h 1 1 v 1 1 H 12 11 Z M 11,8 V 7 h 1 1 V 8 9 H 12 11 Z M 2,4.5294056 C 2,3.2221413 2.0105469,2.1586342 2.0234375,2.1660564 2.2062647,2.2713259 3.47989,2.9575546 3.6477216,3.0412199 c 0.1242156,0.061922 0.4546843,0.2376342 0.734375,0.390471 0.2796906,0.1528366 0.6632159,0.3588054 0.8522784,0.4577085 0.1890625,0.098903 0.5441841,0.2859 0.7891591,0.4155487 L 6.4689428,4.5406734 5.7579091,4.9292372 C 5.3668403,5.1429472 4.9203125,5.3819144 4.765625,5.4602756 4.6109375,5.5386369 4.259375,5.7253041 3.984375,5.8750916 3.3067994,6.2441547 2.0458181,6.90625 2.0205013,6.90625 2.0092256,6.90625 2,5.83667 2,4.5294056 Z M 11,4 V 3 h 1 1 v 1 1 h -1 -1 z"
       id="path851" />
    <path
       style="fill:#000000;stroke-width:0.03125"
       d="M 1,4.5 V 0.96875 h 0.5 c 0.4716979,0 0.5,0.003386 0.5,0.0598193 0,0.04552 0.1176526,0.1212263 0.4921875,0.3167089 0.2707031,0.1412893 0.7331419,0.3885894 1.0276419,0.5495557 0.2945,0.1609664 0.5446272,0.2926661 0.5558381,0.2926661 0.011211,0 0.3327566,0.1710903 0.7145456,0.3802008 C 5.1720022,2.7768112 5.68125,3.0498259 5.921875,3.1744 6.1625,3.2989741 6.6891203,3.5813994 7.0921425,3.8020119 7.8932984,4.2405606 7.9480747,4.2880022 7.9477553,4.543055 7.9475366,4.7138859 7.8680691,4.8589416 7.7256719,4.9484094 7.6617087,4.9885972 7.2507812,5.21149 6.8125,5.4437266 5.8328028,5.9628487 5.2787616,6.2587428 4.25,6.8122684 3.8117187,7.0480856 3.3631613,7.2860734 3.2532053,7.3411297 3.1432497,7.3961863 2.8108888,7.5739866 2.5146259,7.7362413 L 1.975966,8.03125 H 1.487983 1 Z M 2.7626888,6.5268413 C 3.1596163,6.3181666 3.709375,6.0248791 3.984375,5.8750916 4.259375,5.7253041 4.6109375,5.5386369 4.765625,5.4602756 4.9203125,5.3819144 5.3668403,5.1429472 5.7579091,4.9292372 L 6.4689428,4.5406734 6.0235341,4.3049481 C 5.7785591,4.1752994 5.4234375,3.9883025 5.234375,3.8893994 5.0453125,3.7904963 4.6617872,3.5845275 4.3820966,3.4316909 4.1024059,3.2788541 3.7719372,3.1031423 3.6477216,3.0412199 3.47989,2.9575546 2.2062647,2.2713259 2.0234375,2.1660564 2.0105469,2.1586342 2,3.2221413 2,4.5294056 2,5.83667 2.0092256,6.90625 2.0205013,6.90625 c 0.011276,0 0.3452601,-0.1707341 0.7421875,-0.3794087 z"
       id="path849" />
  </g>
</svg>
