<?xml version="1.0" encoding="UTF-8" standalone="no"?>
<!-- Created with Inkscape (http://www.inkscape.org/) -->

<svg
   version="1.1"
   id="svg2"
   width="1600"
   height="1600"
   viewBox="0 0 1600 1600"
   sodipodi:docname="combine_transform.svg"
   inkscape:version="1.2.2 (732a01da63, 2022-12-09)"
   xmlns:inkscape="http://www.inkscape.org/namespaces/inkscape"
   xmlns:sodipodi="http://sodipodi.sourceforge.net/DTD/sodipodi-0.dtd"
   xmlns="http://www.w3.org/2000/svg"
   xmlns:svg="http://www.w3.org/2000/svg">
  <defs
     id="defs6" />
  <sodipodi:namedview
     id="namedview4"
     pagecolor="#ffffff"
     bordercolor="#000000"
     borderopacity="0.25"
     inkscape:showpageshadow="2"
     inkscape:pageopacity="0.0"
     inkscape:pagecheckerboard="true"
     inkscape:deskcolor="#d1d1d1"
     showgrid="false"
     inkscape:zoom="0.74023438"
     inkscape:cx="763.27176"
     inkscape:cy="1122.6174"
     inkscape:window-width="2407"
     inkscape:window-height="1299"
     inkscape:window-x="15"
     inkscape:window-y="19"
     inkscape:window-maximized="0"
     inkscape:current-layer="COMBINE_TRANSFORM" />
  <g
     inkscape:groupmode="layer"
     inkscape:label="Image"
     id="g8"
     transform="translate(0,1584)" />
  <g
     id="COMBINE_TRANSFORM"
     transform="scale(100)">
    <path
       style="fill:#ffffff;stroke-width:0.03125;fill-opacity:0"
       d="M 5,15.125 V 14.25 h 3 3 V 15.125 16 H 8 5 Z m 0,-3.25 V 11 H 4.125 3.25 V 10 9 H 2.5 1.75 v 1 1 H 0.875 0 V 5.5 0 H 5.5 11 V 0.875 1.75 H 10.140625 9.28125 V 2.5 3.25 H 10.140625 11 V 4.125 5 h 0.875 0.875 v 3 3 H 11.875 11 v 0.875 0.875 H 8 5 Z M 2.5146259,7.7362412 C 2.8108888,7.5739866 3.1432497,7.3961862 3.2532053,7.3411297 3.3631613,7.2860734 3.8117187,7.0480856 4.25,6.8122684 5.2787616,6.2587428 5.8328028,5.9628487 6.8125,5.4437266 7.2507812,5.21149 7.6617087,4.9885972 7.7256719,4.9484094 7.8680691,4.8589416 7.9475412,4.7138859 7.9477553,4.543055 7.9480741,4.2880022 7.8932984,4.2405606 7.0921425,3.8020119 6.6891203,3.5813994 6.1625,3.2989741 5.921875,3.1744 5.68125,3.0498259 5.1720022,2.7768112 4.7902131,2.5677008 4.4084241,2.3585903 4.0868784,2.1875 4.0756675,2.1875 4.0644566,2.1875 3.8143294,2.0558003 3.5198294,1.8948339 3.2253294,1.7338676 2.7628906,1.4865675 2.4921875,1.3452782 2.1176526,1.1497956 2,1.0740894 2,1.0285693 2,0.97213603 1.9716979,0.96875 1.5,0.96875 H 1 V 4.5 8.03125 H 1.487983 1.975966 Z M 14.25,8 V 5 H 15.125 16 v 3 3 H 15.125 14.25 Z"
       id="path301" />
    <path
       style="fill:#fefefe;stroke-width:0.03125"
       d="M 1,4.5 V 0.96875 h 0.5 c 0.4716979,0 0.5,0.003386 0.5,0.0598193 0,0.04552 0.1176526,0.1212263 0.4921875,0.3167089 0.2707031,0.1412893 0.7331419,0.3885894 1.0276419,0.5495557 0.2945,0.1609664 0.5446272,0.2926661 0.5558381,0.2926661 0.011211,0 0.3327566,0.1710903 0.7145456,0.3802008 C 5.1720022,2.7768112 5.68125,3.0498259 5.921875,3.1744 6.1625,3.2989741 6.6891203,3.5813994 7.0921425,3.8020119 7.8932984,4.2405606 7.9480747,4.2880022 7.9477553,4.543055 7.9475366,4.7138859 7.8680691,4.8589416 7.7256719,4.9484094 7.6617087,4.9885972 7.2507812,5.21149 6.8125,5.4437266 5.8328028,5.9628487 5.2787616,6.2587428 4.25,6.8122684 3.8117187,7.0480856 3.3631613,7.2860734 3.2532053,7.3411297 3.1432497,7.3961863 2.8108888,7.5739866 2.5146259,7.7362413 L 1.975966,8.03125 H 1.487983 1 Z"
       id="path299" />
    <path
       style="fill:#c9fcfc;stroke-width:0.03125"
       d="M 1,13.5 V 12 H 2.5 4 V 13.5 15 H 2.5 1 Z m 11,0 V 12 H 13.5 15 V 13.5 15 H 13.5 12 Z m -7,0 V 13 h 3 3 V 13.5 14 H 8 5 Z M 2,10 V 9 H 2.5 3 v 1 1 H 2.5 2 Z M 13,8 V 5 h 0.5 0.5 v 3 3 H 13.5 13 Z M 12,2.5 V 1 H 13.5 15 V 2.5 4 H 13.5 12 Z m -2.71875,0 V 2 H 10.140625 11 V 2.5 3 H 10.140625 9.28125 Z"
       id="path297" />
    <path
       style="fill:#323232;stroke-width:0.03125"
       d="M 0,13.5 V 11 H 0.875 1.75 V 10 9 H 1.875 2 v 1 1 H 2.5 3 V 10 9 H 3.125 3.25 v 1 1 H 4.125 5 v 0.875 0.875 h 3 3 V 11.875 11 h 0.875 0.875 V 8 5 H 11.875 11 V 4.125 3.25 H 10.140625 9.28125 V 3.125 3 H 10.140625 11 V 2.5 2 H 10.140625 9.28125 V 1.875 1.75 H 10.140625 11 V 0.875 0 H 13.5 16 V 2.5 5 H 15.125 14.25 v 3 3 H 15.125 16 V 13.5 16 H 13.5 11 V 15.125 14.25 H 8 5 V 15.125 16 H 2.5 0 Z m 4,0 V 12 H 2.5 1 V 13.5 15 H 2.5 4 Z m 11,0 V 12 H 13.5 12 v 1.5 1.5 h 1.5 1.5 z m -4,0 V 13 H 8 5 v 0.5 0.5 h 3 3 z M 14,8 V 5 H 13.5 13 v 3 3 H 13.5 14 Z M 15,2.5 V 1 H 13.5 12 V 2.5 4 h 1.5 1.5 z"
       id="path295" />
  </g>
</svg>
