<?xml version="1.0" encoding="UTF-8" standalone="no"?>
<!-- Created with Inkscape (http://www.inkscape.org/) -->

<svg
   version="1.1"
   id="svg2"
   width="1600"
   height="1600"
   viewBox="0 0 1600 1600"
   sodipodi:docname="con_objectsolver.svg"
   inkscape:version="1.2.2 (732a01da63, 2022-12-09)"
   xmlns:inkscape="http://www.inkscape.org/namespaces/inkscape"
   xmlns:sodipodi="http://sodipodi.sourceforge.net/DTD/sodipodi-0.dtd"
   xmlns="http://www.w3.org/2000/svg"
   xmlns:svg="http://www.w3.org/2000/svg"
   xmlns:rdf="http://www.w3.org/1999/02/22-rdf-syntax-ns#"
   xmlns:cc="http://creativecommons.org/ns#"
   xmlns:dc="http://purl.org/dc/elements/1.1/">
  <metadata
     id="metadata8">
    <rdf:RDF>
      <cc:Work
         rdf:about="">
        <dc:format>image/svg+xml</dc:format>
        <dc:type
           rdf:resource="http://purl.org/dc/dcmitype/StillImage" />
      </cc:Work>
    </rdf:RDF>
  </metadata>
  <defs
     id="defs6" />
  <sodipodi:namedview
     pagecolor="#808080"
     bordercolor="#666666"
     borderopacity="1"
     objecttolerance="10"
     gridtolerance="10"
     guidetolerance="10"
     inkscape:pageopacity="0"
     inkscape:pageshadow="2"
     inkscape:window-width="2560"
     inkscape:window-height="1009"
     id="namedview4"
     showgrid="false"
     fit-margin-top="0"
     fit-margin-left="0"
     fit-margin-right="0"
     fit-margin-bottom="0"
     inkscape:zoom="0.5"
     inkscape:cx="616"
     inkscape:cy="772"
     inkscape:window-x="-8"
     inkscape:window-y="-8"
     inkscape:window-maximized="1"
     inkscape:current-layer="svg2"
     inkscape:showpageshadow="0"
     inkscape:pagecheckerboard="true"
     inkscape:deskcolor="#d1d1d1" />
  <g
     id="CON_OBJECTSOLVER"
     transform="matrix(100.00001,0,0,100.00001,0,1e-5)"
     style="stroke-width:0.01">
    <path
       style="fill:none;stroke-width:0.0003125"
       d="M 3.9999998,15.5 V 15 H 2.4999999 0.99999996 V 13.499999 12 H 0.49999998 0 V 7.9999997 3.9999998 H 0.49999998 0.99999996 V 2.4999999 0.99999996 H 2.4999999 3.9999998 V 0.49999998 0 H 7.9999997 12 V 0.49999998 0.99999996 H 13.499999 15 V 2.4999999 3.9999998 h 0.5 0.499999 V 7.9999997 12 H 15.5 15 V 13.499999 15 H 13.499999 12 v 0.5 0.499999 H 7.9999997 3.9999998 Z M 8.9999997,13.999999 V 13 h -0.5 -0.5 V 13.999999 15 h 0.5 0.5 z M 12,7.9999997 V 3.9999998 H 7.9999997 3.9999998 V 7.9999997 12 H 7.9999997 12 Z m -7.0000002,0 V 4.9999998 H 7.9999997 11 V 7.9999997 11 H 7.9999997 4.9999998 Z m -1.9999999,0.5 v -0.5 h -1 -0.99999994 v 0.5 0.5 h 0.99999994 1 z m 12.0000001,0 v -0.5 H 13.999999 13 v 0.5 0.5 H 13.999999 15 Z M 8.9999997,1.9999999 V 0.99999996 h -0.5 -0.5 v 0.99999994 1 h 0.5 0.5 z"
       id="path821"
       inkscape:connector-curvature="0" />
    <path
       style="fill:#98cbfe;stroke-width:0.0003125"
       d="M 0,13.999999 V 12 H 0.49999998 0.99999996 V 13.499999 15 H 2.4999999 3.9999998 v 0.5 0.499999 H 1.9999999 0 Z M 12,15.5 V 15 H 13.499999 15 V 13.499999 12 h 0.5 0.499999 v 1.999999 2 h -2 H 12 Z M 7.9999997,13.999999 V 13 h 0.5 0.5 V 13.999999 15 h -0.5 -0.5 z M 3.9999998,7.9999997 V 3.9999998 H 7.9999997 12 V 7.9999997 12 H 7.9999997 3.9999998 Z m 7.0000002,0 V 4.9999998 H 7.9999997 4.9999998 V 7.9999997 11 H 7.9999997 11 Z m -10.00000004,0.5 v -0.5 h 0.99999994 1 v 0.5 0.5 h -1 -0.99999994 z M 13,8.4999997 v -0.5 H 13.999999 15 v 0.5 0.5 H 13.999999 13 Z M 0,1.9999999 V 0 H 1.9999999 3.9999998 V 0.49999998 0.99999996 H 2.4999999 0.99999996 V 2.4999999 3.9999998 H 0.49999998 0 Z m 15,0.5 V 0.99999996 H 13.499999 12 V 0.49999998 0 h 1.999999 2 V 1.9999999 3.9999998 H 15.5 15 Z m -7.0000003,-0.5 V 0.99999996 h 0.5 0.5 v 0.99999994 1 h -0.5 -0.5 z"
       id="path819"
       inkscape:connector-curvature="0" />
  </g>
</svg>
