<?xml version="1.0" encoding="UTF-8" standalone="no"?>
<!-- Created with Inkscape (http://www.inkscape.org/) -->

<svg
   version="1.1"
   id="svg2"
   width="1600"
   height="1600"
   viewBox="0 0 1600 1600"
   sodipodi:docname="con_kinematic.svg"
   inkscape:version="1.2.2 (732a01da63, 2022-12-09)"
   xmlns:inkscape="http://www.inkscape.org/namespaces/inkscape"
   xmlns:sodipodi="http://sodipodi.sourceforge.net/DTD/sodipodi-0.dtd"
   xmlns="http://www.w3.org/2000/svg"
   xmlns:svg="http://www.w3.org/2000/svg"
   xmlns:rdf="http://www.w3.org/1999/02/22-rdf-syntax-ns#"
   xmlns:cc="http://creativecommons.org/ns#"
   xmlns:dc="http://purl.org/dc/elements/1.1/">
  <metadata
     id="metadata8">
    <rdf:RDF>
      <cc:Work
         rdf:about="">
        <dc:format>image/svg+xml</dc:format>
        <dc:type
           rdf:resource="http://purl.org/dc/dcmitype/StillImage" />
      </cc:Work>
    </rdf:RDF>
  </metadata>
  <defs
     id="defs6" />
  <sodipodi:namedview
     pagecolor="#808080"
     bordercolor="#666666"
     borderopacity="1"
     objecttolerance="10"
     gridtolerance="10"
     guidetolerance="10"
     inkscape:pageopacity="0"
     inkscape:pageshadow="2"
     inkscape:window-width="2560"
     inkscape:window-height="1009"
     id="namedview4"
     showgrid="false"
     fit-margin-top="0"
     fit-margin-left="0"
     fit-margin-right="0"
     fit-margin-bottom="0"
     inkscape:zoom="0.5"
     inkscape:cx="652"
     inkscape:cy="606"
     inkscape:window-x="-8"
     inkscape:window-y="-8"
     inkscape:window-maximized="1"
     inkscape:current-layer="CON_KINEMATIC"
     inkscape:showpageshadow="0"
     inkscape:pagecheckerboard="true"
     inkscape:deskcolor="#d1d1d1" />
  <g
     id="CON_KINEMATIC"
     transform="matrix(99.999789,0,0,99.999789,0,0.00347125)"
     style="stroke-width:0.01">
    <path
       style="fill:none;stroke-width:0.000312501"
       d="M 0,7.9999997 V 0 H 0.49999893 0.99999785 V 0.49999998 0.99999996 H 4.0970847 c 2.9376893,0 3.0958821,0.002815 3.0736818,0.0546875 -0.012873,0.030078 -0.048015,0.125 -0.078093,0.2109375 C 7.0625955,1.351562 6.9591232,1.588867 6.862736,1.7929685 6.766348,1.9970699 6.687486,2.1812372 6.687486,2.202229 c 0,0.020992 -0.091406,0.2361832 -0.2031246,0.4782031 -0.111718,0.2420201 -0.2031245,0.4561797 -0.2031245,0.47591 0,0.01973 -0.077343,0.1985878 -0.1718747,0.3974609 -0.094531,0.1988728 -0.1718746,0.3784635 -0.1718746,0.3990899 0,0.020626 -0.091406,0.2355191 -0.2031246,0.4775391 -0.1117181,0.24202 -0.2031245,0.4546331 -0.2031245,0.4724731 0,0.01784 -0.089917,0.2281069 -0.1998165,0.467259 -0.1098995,0.2391525 -0.2094539,0.4787007 -0.2212327,0.5323291 -0.020227,0.092092 -0.029521,0.097536 -0.1673702,0.098049 -0.246926,9.187e-4 -0.5710287,0.085957 -0.8480197,0.2225052 -0.6546809,0.3227387 -1.0937203,1.03604 -1.0937203,1.7769521 0,0.7409122 0.4390394,1.4542135 1.0937203,1.7769522 0.5848315,0.2883043 1.1908525,0.2945683 1.7793749,0.018391 L 6.112726,9.6833973 6.626668,10.031589 c 0.2826682,0.191506 0.7600352,0.516321 1.0608159,0.72181 0.3007805,0.20549 0.764842,0.521722 1.0312478,0.702738 0.2664056,0.181015 0.7374983,0.503162 1.0468727,0.71588 0.3093736,0.212718 0.7200356,0.49434 0.9125806,0.625828 l 0.350082,0.239067 -0.01847,0.303234 c -0.07773,1.275888 0.800531,2.390128 2.068304,2.624034 0.09785,0.01805 -2.3171,0.03014 -6.460923,0.03233 L 0,15.999999 Z M 13.96872,15.95308 c 1.017884,-0.205696 1.77863,-0.966445 1.984326,-1.984331 0.03709,-0.183559 0.04133,-0.09552 0.04399,0.914063 l 0.003,1.117187 -1.117185,-0.003 c -1.009576,-0.0026 -1.09762,-0.0068 -0.914061,-0.04399 z m -0.840238,-1.002473 c -0.792367,-0.213094 -1.282561,-1.033526 -1.080658,-1.808685 0.209064,-0.802653 1.028244,-1.297753 1.810223,-1.094073 0.800297,0.208452 1.297714,1.028387 1.095306,1.805485 -0.210974,0.809988 -1.039863,1.308389 -1.824871,1.097273 z m 2.827394,-1.88935 c -0.06723,-0.506837 -0.425063,-1.126195 -0.852591,-1.475728 -0.941327,-0.769598 -2.265843,-0.775923 -3.186965,-0.01522 -0.07805,0.06445 -0.153649,0.117187 -0.168008,0.117187 -0.01436,0 -0.178062,-0.104833 -0.363784,-0.232975 C 10.813737,11.060711 9.1541623,9.9276106 7.4531091,8.770285 L 6.98436,8.4513678 6.9948688,8.1397462 C 7.0126394,7.6127976 6.8831796,7.1806662 6.592025,6.7950698 L 6.4490856,6.6057647 6.5034679,6.4825697 C 6.533379,6.4148123 6.5588937,6.3422822 6.5601689,6.3213914 6.5614475,6.3005 6.6538919,6.0844982 6.7656109,5.8413866 6.877329,5.5982751 6.9687924,5.3833364 6.9688621,5.3637451 6.9689246,5.3441541 7.0603373,5.1325957 7.1719866,4.893616 7.283635,4.6546364 7.3749846,4.4422504 7.3749846,4.4216473 c 0,-0.020604 0.077343,-0.2014328 0.1718746,-0.4018438 0.094531,-0.2004112 0.1719316,-0.3817752 0.1720012,-0.4030312 6.26e-5,-0.021257 0.091475,-0.2341765 0.2031247,-0.4731561 0.1116483,-0.2389799 0.202998,-0.451272 0.202998,-0.4717604 0,-0.020488 0.091406,-0.2352681 0.2031246,-0.4772881 0.111718,-0.2420201 0.2031245,-0.4543394 0.2031245,-0.4718208 0,-0.017481 0.047118,-0.135179 0.1047074,-0.2615503 C 8.6935283,1.3348253 8.7504153,1.1793587 8.762355,1.1157153 L 8.784063,0.99999996 h 3.107952 3.107953 V 0.49999998 0 h 0.499999 0.499999 v 6.6093747 c 0,3.6351563 -0.0053,6.6093753 -0.0116,6.6093753 -0.0064,0 -0.02101,-0.07087 -0.03249,-0.157493 z"
       id="path821"
       inkscape:connector-curvature="0" />
    <path
       style="fill:#98cbfe;fill-opacity:1;stroke-width:0.000312501"
       d="m 13.078097,15.96621 c -1.283129,-0.253404 -2.1461,-1.349094 -2.068304,-2.626064 l 0.01847,-0.303234 -0.350082,-0.239067 C 10.48564,12.666357 10.074978,12.384735 9.7656041,12.172017 9.4562297,11.959299 8.985137,11.637152 8.7187314,11.456137 8.4523256,11.275121 7.9882641,10.958889 7.6874836,10.753399 7.3867029,10.54791 6.9093359,10.223096 6.6266677,10.03159 L 6.1127257,9.6833974 5.874174,9.7953434 C 4.3600073,10.505899 2.7057056,9.2085787 3.0468482,7.5781247 3.1655717,7.0106988 3.5774805,6.4780707 4.0947991,6.2230475 4.3717901,6.0864991 4.6958928,6.0014604 4.9428188,6.0005423 5.0806685,6.0000297 5.0899622,5.9945854 5.110189,5.9024932 5.1219678,5.8488648 5.2215226,5.6093166 5.3314217,5.3701641 5.4413208,5.131012 5.5312382,4.9207454 5.5312382,4.9029051 c 0,-0.01784 0.091406,-0.2304531 0.2031245,-0.4724731 0.111718,-0.24202 0.2031246,-0.4569125 0.2031246,-0.4775391 0,-0.020626 0.077343,-0.2002171 0.1718746,-0.3990899 0.094531,-0.1988731 0.1718747,-0.3777303 0.1718747,-0.3974609 0,-0.01973 0.091406,-0.2338899 0.2031245,-0.47591 0.111718,-0.2420199 0.2031246,-0.4572114 0.2031246,-0.4782031 0,-0.020992 0.078863,-0.2051591 0.17525,-0.4092605 C 6.9591227,1.588867 7.0625948,1.3515625 7.0926732,1.265625 7.1227512,1.179688 7.1578932,1.0847656 7.1707662,1.0546875 7.1929662,1.0028145 7.0347737,1 4.0970844,1 H 0.99999785 V 0.49999998 0 H 7.9999829 14.999968 V 0.49999998 0.99999996 H 11.892015 8.7840634 L 8.762355,1.1157153 c -0.01194,0.063643 -0.068827,0.21911 -0.1264157,0.3454813 -0.057589,0.1263713 -0.1047076,0.2440688 -0.1047076,0.2615503 0,0.017481 -0.091405,0.2298007 -0.2031245,0.4718208 -0.1117192,0.24202 -0.2031246,0.4567996 -0.2031246,0.4772881 0,0.020488 -0.09135,0.2327805 -0.202998,0.4717604 -0.1116484,0.2389796 -0.2030549,0.4519 -0.2031246,0.4731561 -6.25e-5,0.021256 -0.07747,0.20262 -0.1720012,0.4030312 -0.094531,0.200411 -0.1718746,0.3812407 -0.1718746,0.4018438 0,0.020604 -0.09135,0.2329891 -0.202998,0.4719687 -0.1116484,0.2389797 -0.2030549,0.4505379 -0.2031245,0.4701291 -6.26e-5,0.019591 -0.091532,0.23453 -0.2032512,0.4776415 -0.1117181,0.2431116 -0.2041674,0.4591138 -0.2054421,0.4800048 -0.00128,0.020891 -0.02679,0.093422 -0.056701,0.1611783 l -0.054382,0.123195 0.1429394,0.1893051 C 6.8831792,7.1806662 7.0126389,7.6127976 6.9948683,8.1397462 L 6.9843656,8.4513678 7.4531147,8.770285 c 1.7010532,1.1573256 3.3606273,2.290426 3.9314183,2.684239 0.185722,0.128136 0.349425,0.232975 0.363784,0.232975 0.01436,0 0.08996,-0.05273 0.168008,-0.117187 0.982642,-0.811512 2.44425,-0.739604 3.348594,0.164742 0.48212,0.482121 0.718052,1.062034 0.718052,1.764945 0,0.544302 -0.110107,0.928739 -0.3879,1.354266 -0.352028,0.539254 -0.849362,0.894599 -1.500885,1.072384 -0.212827,0.05807 -0.805492,0.08116 -1.016084,0.03956 z m 0.77995,-1.01406 c 0.538973,-0.140385 0.954155,-0.556896 1.095306,-1.098816 0.202408,-0.777098 -0.295009,-1.597033 -1.095306,-1.805485 -0.781979,-0.20368 -1.601159,0.29142 -1.810223,1.094073 -0.278526,1.06934 0.740886,2.088754 1.810223,1.810228 z"
       id="path819"
       inkscape:connector-curvature="0" />
  </g>
</svg>
