<?xml version="1.0" encoding="UTF-8" standalone="no"?>
<!-- Created with Inkscape (http://www.inkscape.org/) -->

<svg
   xmlns:dc="http://purl.org/dc/elements/1.1/"
   xmlns:cc="http://creativecommons.org/ns#"
   xmlns:rdf="http://www.w3.org/1999/02/22-rdf-syntax-ns#"
   xmlns:svg="http://www.w3.org/2000/svg"
   xmlns="http://www.w3.org/2000/svg"
   xmlns:sodipodi="http://sodipodi.sourceforge.net/DTD/sodipodi-0.dtd"
   xmlns:inkscape="http://www.inkscape.org/namespaces/inkscape"
   version="1.1"
   id="svg2"
   width="15.999999"
   height="15.999999"
   viewBox="0 0 15.999999 15.999999"
   sodipodi:docname="CON_FOLLOWTRACK.svg"
   inkscape:version="0.92.4 (5da689c313, 2019-01-14)">
  <metadata
     id="metadata8">
    <rdf:RDF>
      <cc:Work
         rdf:about="">
        <dc:format>image/svg+xml</dc:format>
        <dc:type
           rdf:resource="http://purl.org/dc/dcmitype/StillImage" />
        <dc:title></dc:title>
      </cc:Work>
    </rdf:RDF>
  </metadata>
  <defs
     id="defs6" />
  <sodipodi:namedview
     pagecolor="#ffffff"
     bordercolor="#666666"
     borderopacity="1"
     objecttolerance="10"
     gridtolerance="10"
     guidetolerance="10"
     inkscape:pageopacity="0"
     inkscape:pageshadow="2"
     inkscape:window-width="1335"
     inkscape:window-height="997"
     id="namedview4"
     showgrid="false"
     fit-margin-top="0"
     fit-margin-left="0"
     fit-margin-right="0"
     fit-margin-bottom="0"
     inkscape:zoom="23.813409"
     inkscape:cx="3.4577237"
     inkscape:cy="6.0510213"
     inkscape:window-x="0"
     inkscape:window-y="0"
     inkscape:window-maximized="0"
     inkscape:current-layer="svg2" />
  <g
     id="CON_FOLLOWTRACK">
    <path
       style="fill:#ffffff;stroke-width:0.03124999"
       d="M 0,7.9999997 V 0 H 4.9999998 9.9999996 V 0.99999996 1.9999999 h -0.9999999 -1 v 0.9988637 0.9988638 l -2.7265624,0.00895 -2.7265624,0.00895 -0.2549183,0.086383 c -1.1100265,0.376146 -1.43763429,1.4801785 -0.821786,2.7694012 0.4606853,0.9644027 1.327619,1.915254 2.6163923,2.8696537 1.2580169,0.9316227 2.2274884,1.9428387 2.6001003,2.7120597 0.1771949,0.365801 0.2340628,0.585083 0.2106252,0.81217 -0.031166,0.301966 -0.1887834,0.511713 -0.490804,0.653125 -0.1393362,0.06524 -0.1693365,0.06604 -2.773672,0.07462 l -2.63281244,0.0087 v 0.499147 0.499148 H 3.5794424 c 2.9011761,0 2.8579336,0.003 3.3268074,-0.224717 C 7.2438653,14.61138 7.5664162,14.3017 7.7137588,14.000006 8.1582687,13.08984 7.8069112,11.978993 6.6731684,10.710086 6.2003204,10.180859 5.4874148,9.540179 4.8124998,9.0379181 4.035363,8.4595853 3.5270448,8.0078578 3.1122624,7.5269657 2.475388,6.7885838 2.1729453,6.1917385 2.1722226,5.6718748 2.1717716,5.3475133 2.2393172,5.2280401 2.4938047,5.1030694 l 0.1780702,-0.087445 2.6640624,-0.00866 2.6640624,-0.00866 v 1.0008434 1.0008434 h 1 0.9999999 v 1 1 H 10.5 11 v -1 -1 h 1 1 v -1 -0.9999999 H 13.999999 15 v -0.5 -0.5 H 13.999999 13 v -0.9999999 -1 H 12 11 V 0.99999996 0 h 2.499999 2.5 V 7.9999997 15.999999 H 7.9999997 0 Z M 8.9999997,4.4999998 V 2.9999999 H 10.5 12 V 4.4999998 5.9999997 H 10.5 8.9999997 Z"
       id="path821"
       inkscape:connector-curvature="0" />
    <path
       style="fill:#98cbfe;stroke-width:0.03124999"
       d="m 0.99999996,14.500852 v -0.499147 l 2.63281244,-0.0087 c 2.6043355,-0.0086 2.6343358,-0.0094 2.773672,-0.07462 C 6.708505,13.77698 6.8661228,13.567233 6.8972884,13.265267 6.9207264,13.03818 6.8638584,12.818898 6.6866632,12.453097 6.3140513,11.683904 5.3445798,10.672688 4.0865629,9.7410653 3.3412562,9.189129 2.8049966,8.70315 2.3205377,8.1406247 1.2800371,6.9324563 0.91822018,5.7580257 1.326997,4.9156661 1.5199524,4.5180457 1.8261611,4.2598492 2.2919566,4.1020076 l 0.2549183,-0.086383 2.7265624,-0.00895 2.7265624,-0.00895 V 2.9988636 1.9999999 h 1 0.9999999 V 0.99999996 0 H 10.5 11 V 0.99999996 1.9999999 h 1 1 v 1 0.9999999 H 13.999999 15 v 0.5 0.5 H 13.999999 13 v 0.9999999 1 h -1 -1 v 1 1 H 10.5 9.9999996 v -1 -1 h -0.9999999 -1 V 5.9991563 4.9983129 l -2.6640624,0.00865 -2.6640624,0.00865 -0.1780702,0.087444 C 2.2393172,5.2280346 2.1717715,5.3475078 2.1722226,5.6718693 c 7.227e-4,0.5198638 0.3031654,1.116709 0.9400398,1.8550909 0.4147824,0.4808921 0.9231006,0.9326196 1.7002374,1.5109524 0.674915,0.5022609 1.3878206,1.1429414 1.8606686,1.6721614 1.1337432,1.268907 1.4851003,2.379754 1.0405904,3.289919 -0.1473426,0.301695 -0.4698935,0.611375 -0.807509,0.775285 -0.4688738,0.227636 -0.4256313,0.224716 -3.3268074,0.224716 H 0.99999996 Z M 12,4.4999998 V 2.9999999 H 10.5 8.9999997 V 4.4999998 5.9999997 H 10.5 12 Z"
       id="path819"
       inkscape:connector-curvature="0" />
  </g>
</svg>
