<?xml version="1.0" encoding="UTF-8" standalone="no"?>
<!-- Created with Inkscape (http://www.inkscape.org/) -->

<svg
   version="1.1"
   id="svg2"
   width="1600"
   height="1600"
   viewBox="0 0 1600 1600"
   sodipodi:docname="con_transform.svg"
   inkscape:version="1.2.2 (732a01da63, 2022-12-09)"
   xmlns:inkscape="http://www.inkscape.org/namespaces/inkscape"
   xmlns:sodipodi="http://sodipodi.sourceforge.net/DTD/sodipodi-0.dtd"
   xmlns="http://www.w3.org/2000/svg"
   xmlns:svg="http://www.w3.org/2000/svg"
   xmlns:rdf="http://www.w3.org/1999/02/22-rdf-syntax-ns#"
   xmlns:cc="http://creativecommons.org/ns#"
   xmlns:dc="http://purl.org/dc/elements/1.1/">
  <metadata
     id="metadata8">
    <rdf:RDF>
      <cc:Work
         rdf:about="">
        <dc:format>image/svg+xml</dc:format>
        <dc:type
           rdf:resource="http://purl.org/dc/dcmitype/StillImage" />
      </cc:Work>
    </rdf:RDF>
  </metadata>
  <defs
     id="defs6" />
  <sodipodi:namedview
     pagecolor="#808080"
     bordercolor="#666666"
     borderopacity="1"
     objecttolerance="10"
     gridtolerance="10"
     guidetolerance="10"
     inkscape:pageopacity="0"
     inkscape:pageshadow="2"
     inkscape:window-width="1993"
     inkscape:window-height="1009"
     id="namedview4"
     showgrid="false"
     fit-margin-top="0"
     fit-margin-left="0"
     fit-margin-right="0"
     fit-margin-bottom="0"
     inkscape:zoom="0.5"
     inkscape:cx="883"
     inkscape:cy="864"
     inkscape:window-x="-8"
     inkscape:window-y="-8"
     inkscape:window-maximized="1"
     inkscape:current-layer="CON_TRANSFORM"
     inkscape:showpageshadow="0"
     inkscape:pagecheckerboard="true"
     inkscape:deskcolor="#d1d1d1" />
  <g
     id="CON_TRANSFORM"
     transform="matrix(100,0,0,100,0,4.9999997e-5)"
     style="stroke-width:0.0114286">
    <path
       style="fill:none;stroke-width:0.000357143"
       d="M 0,8 V 0 h 8 8 v 8 8 H 8 0 Z m 3.2512494,7.459289 c 0.09301,-0.04918 0.158855,-0.115029 0.20804,-0.20804 0.1313487,-0.248384 0.085166,-0.415413 -0.194755,-0.704374 C 2.2418172,13.491129 1.5623722,11.674161 1.3071685,9.3125 1.2564625,8.8432653 1.2564325,7.1571459 1.3071217,6.6875 1.4606582,5.2649541 1.733113,4.1558941 2.1792628,3.1373447 2.4837782,2.4421427 3.0366712,1.6107055 3.3160784,1.4278075 3.4412297,1.3458844 3.542895,1.1192156 3.5225431,0.96748166 3.4705891,0.58013503 3.0657043,0.38897722 2.7328939,0.59466537 2.4474733,0.77106503 1.8233294,1.6195165 1.4718701,2.3088814 -0.26486951,5.715385 -0.12909243,11.152987 1.7693418,14.222033 c 0.3473104,0.561469 0.8080947,1.121026 1.0202133,1.238905 0.1609475,0.08944 0.2903141,0.08898 0.4616943,-0.0016 z M 13.265432,15.40637 c 0.287038,-0.1774 0.91029,-1.024027 1.262698,-1.715251 C 16.264869,10.284615 16.129093,4.8470131 14.230658,1.7779669 13.883348,1.2164982 13.422563,0.65694097 13.210445,0.5390625 13.140856,0.50039062 13.039125,0.46875 12.984375,0.46875 c -0.162917,0 -0.362058,0.12567956 -0.443664,0.28000072 -0.131349,0.2483839 -0.08517,0.41541298 0.194755,0.70437428 1.022717,1.0557463 1.702162,2.8727137 1.957366,5.234375 0.05071,0.4692347 0.05074,2.1553541 3.1e-5,2.625 -0.153537,1.422546 -0.425992,2.531606 -0.872141,3.550155 -0.304516,0.695202 -0.857409,1.526639 -1.136816,1.709538 -0.102937,0.06739 -0.215156,0.28494 -0.215156,0.417133 0,0.05203 0.03238,0.15583 0.07196,0.230673 0.141391,0.267375 0.460763,0.349505 0.724722,0.186371 z M 5.9545066,12.108699 C 6.1000444,12.01872 6.2685569,11.832567 6.875,11.091846 7.0210938,10.913404 7.2390625,10.659823 7.359375,10.528331 7.4796875,10.396839 7.6761594,10.170217 7.7959791,10.024726 l 0.217854,-0.2645288 0.157146,0.1882159 c 0.08643,0.1035189 0.2454118,0.2875529 0.3532928,0.4089639 0.1078806,0.121411 0.3539743,0.409229 0.546875,0.639595 0.1929003,0.230366 0.4639759,0.553664 0.6023897,0.718441 0.1447078,0.172268 0.316319,0.339567 0.4037994,0.393653 0.136607,0.08446 0.178159,0.09406 0.407039,0.09406 0.229188,0 0.270333,-0.0095 0.407874,-0.09458 0.220222,-0.136152 0.337159,-0.338046 0.35244,-0.608494 0.01637,-0.289736 -0.03876,-0.39773 -0.462681,-0.906305 C 10.5886,10.361719 10.337743,10.059375 10.224549,9.921875 10.111355,9.784375 9.9402159,9.5875 9.8442406,9.484375 9.5088191,9.1239663 9.0579259,8.5625188 9.0679831,8.5177872 9.0764369,8.4801872 9.945335,7.4201391 10.898068,6.2851 11.217847,5.9041313 11.291595,5.7457575 11.276188,5.4730906 11.252518,5.0542047 10.977045,4.7787316 10.558159,4.7550622 10.219908,4.7359494 10.072201,4.8238288 9.7091413,5.2601931 9.5493538,5.4522431 9.1028678,5.9890625 8.7169506,6.453125 L 8.0152834,7.296875 7.35244,6.5 C 6.9878763,6.0617188 6.5422081,5.5252241 6.3620659,5.3077894 6.0896825,4.9790181 6.0053628,4.8981813 5.8612753,4.8276859 5.7121072,4.7547047 5.6581306,4.7446066 5.4730906,4.7550622 5.0542047,4.7787316 4.7787316,5.0542047 4.7550622,5.4730906 4.7396553,5.7457575 4.8134034,5.9041313 5.1331822,6.2851 6.085915,7.4201391 6.9548131,8.4801872 6.9632669,8.5177872 6.9733016,8.5624172 6.5240228,9.1220222 6.1872425,9.484375 6.0913953,9.5875 5.914525,9.7914063 5.7941975,9.9375 5.6738697,10.083594 5.4284081,10.378906 5.2487272,10.59375 4.8511684,11.069109 4.78125,11.196247 4.78125,11.4438 c 0,0.31739 0.1437397,0.55939 0.4131887,0.695642 0.1416235,0.07161 0.1962854,0.08196 0.3867297,0.07318 0.1810503,-0.0083 0.2496316,-0.02744 0.3733382,-0.10392 z"
       id="path16"
       inkscape:connector-curvature="0" />
    <path
       style="fill:#98cbfe;stroke-width:0.000357143"
       d="M 2.7895551,15.460938 C 2.5774365,15.343059 2.1166522,14.783502 1.7693418,14.222033 -0.12909243,11.152987 -0.26486951,5.715385 1.4718701,2.3088814 1.8233294,1.6195165 2.4474733,0.77106503 2.7328939,0.59466537 3.0657043,0.38897722 3.4705891,0.58013503 3.5225431,0.96748166 3.542895,1.1192156 3.4412297,1.3458844 3.3160784,1.4278075 3.0366712,1.6107055 2.4837782,2.4421427 2.1792628,3.1373447 1.733113,4.1558941 1.4606582,5.2649541 1.3071217,6.6875 c -0.050689,0.4696459 -0.050659,2.1557653 4.69e-5,2.625 0.2552036,2.361661 0.9346487,4.178629 1.9573658,5.234375 0.2799212,0.288961 0.3261037,0.45599 0.194755,0.704374 -0.081607,0.154321 -0.2807478,0.280001 -0.4436644,0.280001 -0.05475,0 -0.1564811,-0.03164 -0.2260699,-0.07031 z m 9.9620929,-0.03045 c -0.155501,-0.08326 -0.282898,-0.281932 -0.282898,-0.441167 0,-0.132193 0.112219,-0.349742 0.215172,-0.417133 0.279407,-0.182899 0.8323,-1.014336 1.136815,-1.709538 0.44615,-1.018549 0.718605,-2.127609 0.872141,-3.550155 0.05069,-0.4696459 0.05066,-2.1557653 -3.1e-5,-2.625 C 14.437628,4.3258387 13.758183,2.5088713 12.735466,1.453125 12.455544,1.1641637 12.409362,0.99713463 12.540711,0.74875072 12.622317,0.59442956 12.821458,0.46875 12.984375,0.46875 c 0.216949,0 0.474284,0.22737475 0.894084,0.7899891 1.043603,1.3986322 1.686539,3.4217222 1.839293,5.7876025 0.205624,3.1847384 -0.617268,6.3242354 -2.10211,8.0199644 -0.370258,0.422843 -0.585222,0.513455 -0.863994,0.364187 z M 5.1944387,12.139442 C 4.9249897,12.00319 4.78125,11.76119 4.78125,11.4438 c 0,-0.247553 0.069918,-0.374691 0.4674772,-0.85005 C 5.4284081,10.378906 5.6738697,10.083594 5.7941975,9.9375 5.914525,9.7914063 6.0913953,9.5875 6.1872425,9.484375 6.5240228,9.1220222 6.9733016,8.5624172 6.9632669,8.5177872 6.9548131,8.4801872 6.085915,7.4201391 5.1331822,6.2851 4.8134034,5.9041312 4.7396553,5.7457575 4.7550622,5.4730906 4.7787316,5.0542047 5.0542047,4.7787316 5.4730906,4.7550622 5.6581306,4.7446066 5.7121072,4.7547059 5.8612753,4.8276859 6.0053628,4.8981813 6.0896825,4.9790181 6.3620659,5.3077894 6.5422081,5.5252241 6.9878762,6.0617188 7.35244,6.5 L 8.0152834,7.296875 8.7169506,6.453125 C 9.1028678,5.9890625 9.5493538,5.4522431 9.7091413,5.2601931 10.072201,4.8238287 10.219908,4.7359494 10.558159,4.7550622 c 0.418886,0.023669 0.694359,0.2991425 0.718029,0.7180284 0.01541,0.2726669 -0.05834,0.4310406 -0.37812,0.8120094 -0.952733,1.1350391 -1.8216311,2.1950872 -1.8300849,2.2326872 -0.010057,0.044732 0.440836,0.6061791 0.7762575,0.9665878 0.095975,0.103125 0.2671144,0.3 0.3803084,0.4375 0.113194,0.1375 0.364051,0.439844 0.557459,0.671875 0.42392,0.508575 0.479053,0.616569 0.462681,0.906305 -0.01528,0.270447 -0.132218,0.472342 -0.35244,0.608494 -0.137541,0.08504 -0.178686,0.09458 -0.407874,0.09458 -0.22888,0 -0.270432,-0.0096 -0.407039,-0.09406 C 9.9898556,12.05498 9.8182444,11.887681 9.6735366,11.715412 9.5351228,11.550636 9.2640472,11.227338 9.0711469,10.996972 8.8782462,10.766606 8.6321525,10.478788 8.5242719,10.357377 8.4163909,10.235966 8.2574094,10.051932 8.1709791,9.9484131 L 8.0138331,9.7601972 7.7959791,10.024726 C 7.6761594,10.170217 7.4796875,10.396839 7.359375,10.528331 7.2390625,10.659823 7.0210938,10.913404 6.875,11.091846 6.0153944,12.141784 5.9534381,12.195454 5.5811684,12.212619 5.3907241,12.2214 5.3360622,12.211056 5.1944387,12.139442 Z"
       id="path14"
       inkscape:connector-curvature="0" />
  </g>
</svg>
