<?xml version="1.0" encoding="UTF-8" standalone="no"?>
<!-- Created with Inkscape (http://www.inkscape.org/) -->

<svg
   xmlns:dc="http://purl.org/dc/elements/1.1/"
   xmlns:cc="http://creativecommons.org/ns#"
   xmlns:rdf="http://www.w3.org/1999/02/22-rdf-syntax-ns#"
   xmlns:svg="http://www.w3.org/2000/svg"
   xmlns="http://www.w3.org/2000/svg"
   xmlns:sodipodi="http://sodipodi.sourceforge.net/DTD/sodipodi-0.dtd"
   xmlns:inkscape="http://www.inkscape.org/namespaces/inkscape"
   version="1.1"
   id="svg2"
   width="15.999999"
   height="15.999999"
   viewBox="0 0 15.999999 15.999999"
   sodipodi:docname="CON_CHILDOF.svg"
   inkscape:version="0.92.4 (5da689c313, 2019-01-14)">
  <metadata
     id="metadata8">
    <rdf:RDF>
      <cc:Work
         rdf:about="">
        <dc:format>image/svg+xml</dc:format>
        <dc:type
           rdf:resource="http://purl.org/dc/dcmitype/StillImage" />
        <dc:title />
      </cc:Work>
    </rdf:RDF>
  </metadata>
  <defs
     id="defs6" />
  <sodipodi:namedview
     pagecolor="#ffffff"
     bordercolor="#666666"
     borderopacity="1"
     objecttolerance="10"
     gridtolerance="10"
     guidetolerance="10"
     inkscape:pageopacity="0"
     inkscape:pageshadow="2"
     inkscape:window-width="1626"
     inkscape:window-height="1032"
     id="namedview4"
     showgrid="false"
     fit-margin-top="0"
     fit-margin-left="0"
     fit-margin-right="0"
     fit-margin-bottom="0"
     inkscape:zoom="16.838623"
     inkscape:cx="6.7107626"
     inkscape:cy="8.1360567"
     inkscape:window-x="2048"
     inkscape:window-y="-19"
     inkscape:window-maximized="0"
     inkscape:current-layer="svg2" />
  <g
     id="CON_CHILDOF">
    <path
       style="fill:#ffffff;stroke-width:0.03124999"
       d="M 0,11 V 5.9999997 H 0.99999996 1.9999999 v 1.5 1.5 h 0.5 0.5 v -1.5 -1.5 H 4.4999998 5.9999997 V 2.9999999 0 H 11 15.999999 V 4.9999998 9.9999996 H 13 9.9999996 V 11.499999 13 h -1.4999999 -1.5 v 0.499999 0.5 h 1.5 1.4999999 V 15 15.999999 H 4.9999998 0 Z m 4.9999998,2.499999 V 13 h -1 -0.9999999 v -1 -1 h -0.5 -0.5 v 1.5 1.499999 h 1.5 1.4999999 z M 11,13 v -2 h 2 2 v 2 2 h -2 -2 z"
       id="path823"
       inkscape:connector-curvature="0" />
    <path
       style="fill:#98fecb;stroke-width:0.03124999;fill-opacity:1"
       d="M 1.9999999,12.5 V 11 h 0.5 0.5 v 1 1 h 0.9999999 1 v 0.499999 0.5 h -1.4999999 -1.5 z m 0,-5.0000003 v -1.5 H 0.99999996 0 V 2.9999999 0 H 2.9999999 5.9999997 V 2.9999999 5.9999997 H 4.4999998 2.9999999 v 1.5 1.5 h -0.5 -0.5 z"
       id="path821"
       inkscape:connector-curvature="0" />
    <path
       style="fill:#00cb65;stroke-width:0.03124999;fill-opacity:1"
       d="m 9.9999996,15 v -1.000001 h -1.4999999 -1.5 v -0.5 V 13 h 1.5 1.4999999 V 11.499999 9.9999996 H 13 15.999999 V 13 15.999999 H 13 9.9999996 Z M 15,13 v -2 h -2 -2 v 2 2 h 2 2 z"
       id="path819"
       inkscape:connector-curvature="0" />
  </g>
</svg>
