<?xml version="1.0" encoding="UTF-8" standalone="no"?>
<!-- Created with Inkscape (http://www.inkscape.org/) -->

<svg
   version="1.1"
   id="svg2"
   width="1600"
   height="1600"
   viewBox="0 0 1600 1600"
   sodipodi:docname="con_sizelimit.svg"
   inkscape:version="1.2.2 (732a01da63, 2022-12-09)"
   xmlns:inkscape="http://www.inkscape.org/namespaces/inkscape"
   xmlns:sodipodi="http://sodipodi.sourceforge.net/DTD/sodipodi-0.dtd"
   xmlns="http://www.w3.org/2000/svg"
   xmlns:svg="http://www.w3.org/2000/svg"
   xmlns:rdf="http://www.w3.org/1999/02/22-rdf-syntax-ns#"
   xmlns:cc="http://creativecommons.org/ns#"
   xmlns:dc="http://purl.org/dc/elements/1.1/">
  <metadata
     id="metadata8">
    <rdf:RDF>
      <cc:Work
         rdf:about="">
        <dc:format>image/svg+xml</dc:format>
        <dc:type
           rdf:resource="http://purl.org/dc/dcmitype/StillImage" />
      </cc:Work>
    </rdf:RDF>
  </metadata>
  <defs
     id="defs6" />
  <sodipodi:namedview
     pagecolor="#808080"
     bordercolor="#666666"
     borderopacity="1"
     objecttolerance="10"
     gridtolerance="10"
     guidetolerance="10"
     inkscape:pageopacity="0"
     inkscape:pageshadow="2"
     inkscape:window-width="2560"
     inkscape:window-height="1009"
     id="namedview4"
     showgrid="false"
     fit-margin-top="0"
     fit-margin-left="0"
     fit-margin-right="0"
     fit-margin-bottom="0"
     inkscape:zoom="0.5"
     inkscape:cx="736"
     inkscape:cy="796"
     inkscape:window-x="-8"
     inkscape:window-y="-8"
     inkscape:window-maximized="1"
     inkscape:current-layer="CON_SIZELIMIT"
     inkscape:showpageshadow="0"
     inkscape:pagecheckerboard="true"
     inkscape:deskcolor="#d1d1d1" />
  <g
     id="CON_SIZELIMIT"
     transform="matrix(100.00001,0,0,100.00001,0,1e-5)"
     style="stroke-width:0.01">
    <path
       style="fill:none;stroke-width:0.0003125"
       d="M 0,7.9999997 V 0 H 7.9999997 15.999999 V 0.49999998 0.99999996 H 15.5 15 v 0.99999994 1 h 0.5 0.499999 v 0.5 0.4999999 H 15.5 15 v 1 0.9999999 h 0.5 0.499999 v 0.5 0.5 H 15.5 15 v 1 1 h 0.5 0.499999 v 0.5 0.4999999 H 15.5 15 V 11 12 h 0.5 0.499999 V 12.5 13 H 15.5 15 V 13.999999 15 h 0.5 0.499999 v 0.5 0.499999 H 7.9999997 0 Z M 5.9999997,12.5 V 9.9999996 H 3.4999999 0.99999996 V 12.5 15 H 3.4999999 5.9999997 Z M 11,9.9999996 V 4.9999998 H 5.9999997 0.99999996 v 1.9999999 2 H 1.5 1.9999999 v -1.5 -1.5 h 3.9999998 3.9999999 v 3.9999999 3.9999994 h -1.4999999 -1.5 v 0.5 V 15 h 2 H 11 Z"
       id="path821"
       inkscape:connector-curvature="0" />
    <path
       style="fill:#fecbfe;fill-opacity:1;stroke-width:0.0003125"
       d="M 0.99999996,12.5 V 9.9999996 H 3.4999999 5.9999997 V 12.5 15 H 3.4999999 0.99999996 Z m 5.99999974,1.999999 v -0.5 h 1.5 1.4999999 V 9.9999996 5.9999997 H 5.9999997 1.9999999 v 1.5 1.5 H 1.5 0.99999996 v -2 -1.9999999 H 5.9999997 11 V 9.9999996 15 h -2.0000003 -2 z M 15,13.999999 V 13 h 0.5 0.499999 V 13.999999 15 H 15.5 15 Z M 15,11 V 9.9999996 h 0.5 0.499999 V 11 12 H 15.5 15 Z m 0,-3.0000003 v -1 h 0.5 0.499999 v 1 1 H 15.5 15 Z m 0,-2.9999999 v -1 h 0.5 0.499999 v 1 0.9999999 H 15.5 15 Z M 15,1.9999999 V 0.99999996 h 0.5 0.499999 v 0.99999994 1 H 15.5 15 Z"
       id="path819"
       inkscape:connector-curvature="0" />
  </g>
</svg>
