<?xml version="1.0" encoding="UTF-8" standalone="no"?>
<!-- Created with Inkscape (http://www.inkscape.org/) -->

<svg
   version="1.1"
   id="svg2"
   width="1600"
   height="1600"
   viewBox="0 0 1600 1600"
   sodipodi:docname="con_followpath.svg"
   inkscape:version="1.2.2 (732a01da63, 2022-12-09)"
   xmlns:inkscape="http://www.inkscape.org/namespaces/inkscape"
   xmlns:sodipodi="http://sodipodi.sourceforge.net/DTD/sodipodi-0.dtd"
   xmlns="http://www.w3.org/2000/svg"
   xmlns:svg="http://www.w3.org/2000/svg"
   xmlns:rdf="http://www.w3.org/1999/02/22-rdf-syntax-ns#"
   xmlns:cc="http://creativecommons.org/ns#"
   xmlns:dc="http://purl.org/dc/elements/1.1/">
  <metadata
     id="metadata8">
    <rdf:RDF>
      <cc:Work
         rdf:about="">
        <dc:format>image/svg+xml</dc:format>
        <dc:type
           rdf:resource="http://purl.org/dc/dcmitype/StillImage" />
      </cc:Work>
    </rdf:RDF>
  </metadata>
  <defs
     id="defs6" />
  <sodipodi:namedview
     pagecolor="#808080"
     bordercolor="#666666"
     borderopacity="1"
     objecttolerance="10"
     gridtolerance="10"
     guidetolerance="10"
     inkscape:pageopacity="0"
     inkscape:pageshadow="2"
     inkscape:window-width="2560"
     inkscape:window-height="1009"
     id="namedview4"
     showgrid="false"
     fit-margin-top="0"
     fit-margin-left="0"
     fit-margin-right="0"
     fit-margin-bottom="0"
     inkscape:zoom="0.5"
     inkscape:cx="852"
     inkscape:cy="830"
     inkscape:window-x="-8"
     inkscape:window-y="-8"
     inkscape:window-maximized="1"
     inkscape:current-layer="CON_FOLLOWPATH"
     inkscape:showpageshadow="0"
     inkscape:pagecheckerboard="true"
     inkscape:deskcolor="#d1d1d1" />
  <g
     id="CON_FOLLOWPATH"
     transform="matrix(100.02437,0,0,100.02437,-0.38979566,-0.38978566)"
     style="stroke-width:0.00999757">
    <path
       style="fill:none;stroke-width:0.000312424"
       d="M 0.00415674,11.460937 C 0.006591,8.8027797 0.01920592,7.0254701 0.03459946,7.1718748 0.24350565,9.158734 1.3794365,10.971366 3.0734178,12.020991 4.1360114,12.679396 5.3087867,13 6.6546457,13 c 0.4204756,0 0.4723575,-0.0063 0.5966034,-0.07196 0.1525741,-0.08069 0.2800006,-0.280338 0.2800006,-0.438712 0,-0.147918 -0.1159725,-0.353599 -0.2444047,-0.433461 C 7.1783118,11.98838 7.1395041,11.984236 6.5937497,11.981895 6.1424516,11.979971 5.9265032,11.963921 5.6093747,11.90874 3.568562,11.553636 1.9354931,10.150848 1.2954462,8.2031247 0.57401954,6.0077545 1.3090809,3.5980624 3.1337146,2.1768794 4.332793,1.242933 5.9266269,0.8364599 7.3906247,1.0912459 c 0.7325209,0.1274838 1.5398397,0.442672 2.109375,0.8235286 0.8166163,0.5460834 0.7405223,0.4797244 1.2498213,1.0899251 0.988828,1.1847318 1.610486,1.6808527 2.417533,1.9293399 0.196708,0.060565 0.287137,0.065961 1.105687,0.065961 1.021092,0 1.037729,-0.00384 1.166068,-0.2689497 0.12244,-0.2529282 0.02103,-0.5461315 -0.22935,-0.6631213 -0.117329,-0.054821 -0.222732,-0.063295 -0.969892,-0.077975 L 13.401608,3.9734849 13.164515,3.8608895 C 12.657306,3.6200171 12.282854,3.2799277 11.52849,2.3749999 11.005861,1.7480581 10.915959,1.6604141 10.475139,1.348105 9.3711847,0.56598389 8.3450453,0.15795124 7.1718748,0.03459946 7.0254701,0.01920592 8.8027797,0.006591 11.460937,0.00415674 L 15.999999,0 V 7.9999997 15.999999 H 7.9999997 0 Z m 8.25941416,4.445579 c 0.1782441,-0.08731 3.1539021,-3.069703 3.2195631,-3.226853 0.06078,-0.145468 0.06078,-0.245109 0,-0.390576 C 11.417473,12.131936 8.441815,9.1495406 8.2635709,9.0622331 8.0978703,8.9810696 7.9782628,8.9836418 7.8112503,9.0719603 7.6586763,9.152643 7.5312497,9.3522987 7.5312497,9.5106734 c 0,0.2059159 0.1164506,0.3406846 1.4084009,1.6299516 0.7061543,0.704687 1.2966394,1.296444 1.3121884,1.315015 0.01867,0.02229 -0.4174309,0.478731 -1.2838812,1.34375 -1.3202612,1.318079 -1.4367081,1.452518 -1.4367081,1.658685 0,0.158375 0.1274266,0.358031 0.2800006,0.438713 0.1670125,0.08831 0.28662,0.09089 0.4523206,0.0097 z m 4.0000001,-0.03125 c 0.178244,-0.08731 3.153901,-3.069702 3.219564,-3.226853 0.06078,-0.145467 0.06078,-0.245108 0,-0.390576 -0.06567,-0.157151 -3.04132,-3.1395458 -3.219564,-3.2268533 -0.165701,-0.081163 -0.285308,-0.078591 -0.452321,0.00973 -0.152574,0.080683 -0.280001,0.2803384 -0.280001,0.438713 0,0.205916 0.116452,0.3406847 1.408401,1.6299513 0.706155,0.704687 1.296639,1.296444 1.312189,1.315015 0.01867,0.02229 -0.417431,0.478731 -1.283882,1.34375 -1.320261,1.318081 -1.436708,1.452519 -1.436708,1.658686 0,0.158375 0.127427,0.35803 0.280001,0.438714 0.167013,0.08831 0.28662,0.09089 0.452321,0.0097 z M 0.00415674,3.0390624 0,0 3.0390624,0.00415674 C 4.8852027,0.00668184 5.9799922,0.01863151 5.8281248,0.03459946 4.8845717,0.13380833 3.8836986,0.47694238 3.0734178,0.97900846 1.3794365,2.0286333 0.24350565,3.8412655 0.03459946,5.8281248 0.01863151,5.9799922 0.00668184,4.8852027 0.00415674,3.0390624 Z"
       id="path821"
       inkscape:connector-curvature="0" />
    <path
       style="fill:#98fecb;fill-opacity:1;stroke-width:0.000312424"
       d="m 7.8112503,15.896788 c -0.152574,-0.08068 -0.2800006,-0.280338 -0.2800006,-0.438713 0,-0.206167 0.1164469,-0.340606 1.4367081,-1.658685 C 9.8344081,12.934371 10.270507,12.477936 10.251839,12.45564 10.23629,12.437069 9.6458049,11.845312 8.9396506,11.140625 7.6477003,9.851358 7.5312497,9.7165893 7.5312497,9.5106734 c 0,-0.1583747 0.1274266,-0.35803 0.2800006,-0.4387131 0.1670125,-0.088319 0.28662,-0.090891 0.4523206,-0.00973 0.1782441,0.087307 3.1539021,3.0697027 3.2195631,3.2268537 0.06078,0.145467 0.06078,0.245109 0,0.390576 -0.06566,0.157151 -3.041319,3.139546 -3.2195631,3.226853 -0.1657006,0.08117 -0.2853081,0.07859 -0.4523206,-0.0097 z m 3.9999997,-0.03125 c -0.152574,-0.08069 -0.280001,-0.280339 -0.280001,-0.438714 0,-0.206167 0.116447,-0.340605 1.436708,-1.658686 0.866451,-0.865019 1.30255,-1.321454 1.283882,-1.34375 -0.01555,-0.01857 -0.606034,-0.610328 -1.312189,-1.315015 -1.291949,-1.2892665 -1.408401,-1.4240352 -1.408401,-1.6299512 0,-0.1583746 0.127427,-0.35803 0.280001,-0.438713 0.167013,-0.088319 0.28662,-0.090891 0.452321,-0.00973 0.178244,0.087307 3.153901,3.0697032 3.219564,3.2268542 0.06078,0.145468 0.06078,0.245109 0,0.390576 -0.06567,0.157151 -3.04132,3.139546 -3.219564,3.226853 -0.165701,0.08117 -0.285308,0.07859 -0.452321,-0.0097 z M 5.8281248,12.9654 C 3.8412655,12.756494 2.0286333,11.620563 0.97900846,9.9265815 -0.6087645,7.3640869 -0.22406519,4.0365651 1.90625,1.90625 3.8480142,-0.03551431 6.8349138,-0.54906044 9.2959012,0.63572623 9.6889549,0.82495313 10.01316,1.0208056 10.475139,1.348105 c 0.44082,0.3123091 0.530722,0.3999531 1.053351,1.0268949 0.754364,0.9049278 1.128816,1.2450172 1.636025,1.4858896 l 0.237093,0.1125951 0.838259,0.01647 c 0.74716,0.01468 0.852563,0.023154 0.969892,0.077975 0.250382,0.1169898 0.35179,0.4101931 0.22935,0.6631213 -0.128339,0.2651124 -0.144976,0.2689497 -1.166068,0.2689497 -0.81855,0 -0.908979,-0.0054 -1.105687,-0.065961 C 12.360307,4.6855523 11.738649,4.1894314 10.749821,3.0046996 10.240522,2.3944989 10.316616,2.4608579 9.4999997,1.9147745 8.9304644,1.5339179 8.1231456,1.2187297 7.3906247,1.0912459 5.9266269,0.8364599 4.332793,1.242933 3.1337146,2.1768794 1.8043379,3.2123133 1.0205444,4.815797 1.0205444,6.4999997 c 0,2.3694459 1.5188363,4.4627123 3.7763304,5.2045543 0.6056534,0.199024 1.0935972,0.274339 1.7968749,0.277347 0.5457544,0.0023 0.5845626,0.0065 0.6930953,0.07396 0.1284322,0.07987 0.2444047,0.285543 0.2444047,0.43346 0,0.158374 -0.1274265,0.35803 -0.2800006,0.438713 -0.1273718,0.06735 -0.1692597,0.07169 -0.6546019,0.0678 -0.2851874,-0.0023 -0.6310225,-0.01598 -0.7685224,-0.03045 z"
       id="path819"
       inkscape:connector-curvature="0" />
  </g>
</svg>
