<?xml version="1.0" encoding="UTF-8" standalone="no"?>
<!-- Created with Inkscape (http://www.inkscape.org/) -->

<svg
   version="1.1"
   id="svg2"
   width="1600"
   height="1600"
   viewBox="0 0 1600 1600"
   sodipodi:docname="cone.svg"
   inkscape:version="1.2.2 (732a01da63, 2022-12-09)"
   xmlns:inkscape="http://www.inkscape.org/namespaces/inkscape"
   xmlns:sodipodi="http://sodipodi.sourceforge.net/DTD/sodipodi-0.dtd"
   xmlns="http://www.w3.org/2000/svg"
   xmlns:svg="http://www.w3.org/2000/svg"
   xmlns:rdf="http://www.w3.org/1999/02/22-rdf-syntax-ns#"
   xmlns:cc="http://creativecommons.org/ns#"
   xmlns:dc="http://purl.org/dc/elements/1.1/">
  <metadata
     id="metadata8">
    <rdf:RDF>
      <cc:Work
         rdf:about="">
        <dc:format>image/svg+xml</dc:format>
        <dc:type
           rdf:resource="http://purl.org/dc/dcmitype/StillImage" />
      </cc:Work>
    </rdf:RDF>
  </metadata>
  <defs
     id="defs6" />
  <sodipodi:namedview
     pagecolor="#808080"
     bordercolor="#666666"
     borderopacity="1"
     objecttolerance="10"
     gridtolerance="10"
     guidetolerance="10"
     inkscape:pageopacity="0"
     inkscape:pageshadow="2"
     inkscape:window-width="1993"
     inkscape:window-height="1009"
     id="namedview4"
     showgrid="false"
     inkscape:zoom="0.5"
     inkscape:cx="597"
     inkscape:cy="1012"
     inkscape:window-x="-8"
     inkscape:window-y="-8"
     inkscape:window-maximized="1"
     inkscape:current-layer="CONE"
     inkscape:showpageshadow="0"
     inkscape:pagecheckerboard="true"
     inkscape:deskcolor="#d1d1d1" />
  <g
     id="CONE"
     transform="matrix(100,0,0,100,0,4.9999997e-5)"
     style="stroke-width:0.0114286">
    <path
       style="fill:none;stroke-width:0.000357143"
       d="M 0,8 V 0 h 8 8 v 8 8 H 8 0 Z m 9.015625,6.967223 c 3.120139,-0.267351 5.447087,-1.586508 5.923129,-3.357848 0.05855,-0.217873 0.06531,-0.30823 0.0526,-0.703125 C 14.97582,10.423626 14.92345,10.188513 14.75817,9.859375 14.650268,9.6444997 8.9793875,1.2583732 8.8592575,1.1360336 8.7166459,0.99079906 8.5885347,0.96911828 7.8718106,0.96892428 L 7.2279963,0.96875 4.2742534,5.3359375 c -1.6245585,2.4019531 -2.9891,4.4375 -3.0323144,4.5234375 -0.1652999,0.32872 -0.2177545,0.564103 -0.2332943,1.046875 -0.0127098,0.394856 -0.00597,0.484909 0.052374,0.700295 0.2704131,0.998185 1.07646,1.827952 2.3847885,2.454966 1.013765,0.485845 2.2041015,0.795179 3.4760678,0.903327 0.4520575,0.03844 1.6569916,0.03981 2.09375,0.0024 z"
       id="path825"
       inkscape:connector-curvature="0" />
    <path
       style="fill:#fefefe;stroke-width:0.000357143"
       d="M 7.140625,13.949517 C 6.6907737,13.904939 6.150725,13.828417 5.8330391,13.76424 3.8178016,13.357132 2.3019342,12.375421 2.0582163,11.319578 2.0079372,11.101757 2.0719854,10.941895 2.316402,10.675157 3.0427868,9.8824366 4.7961534,9.2565941 6.84375,9.0591769 c 0.5029053,-0.048487 1.8095947,-0.048487 2.3125,0 1.676413,0.16163 3.106732,0.5894406 4.033531,1.2064361 0.350674,0.233452 0.651562,0.543493 0.732093,0.754358 0.06745,0.176618 0.03675,0.353616 -0.112188,0.646698 -0.552951,1.088137 -2.237976,1.938802 -4.4114516,2.227072 -0.3632166,0.04817 -1.9409682,0.08715 -2.2576094,0.05578 z M 3.15625,8.8599969 c 0,-0.00825 1.0417809,-1.5551269 2.3150691,-3.4375 L 7.7863878,2 h 0.213935 0.2139347 l 2.3169145,3.4249156 c 1.274302,1.8837038 2.309635,3.4321941 2.300739,3.44109 -0.0089,0.0089 -0.118856,-0.026262 -0.244355,-0.078128 C 10.437541,7.8993175 7.1935625,7.7304472 4.6875,8.3766272 4.266935,8.4850684 3.618395,8.6953659 3.3789241,8.8009497 3.2128772,8.8741603 3.15625,8.8891766 3.15625,8.8599969 Z"
       id="path823"
       inkscape:connector-curvature="0" />
    <path
       style="fill:#989898;stroke-width:0.000357143"
       d="M 2.0255863,10.976563 C 2.4302277,10.180138 3.1417722,8.875 3.1713306,8.875 3.1931336,8.875 3.2865509,8.841677 3.3789241,8.80095 3.618395,8.6953659 4.266935,8.4850684 4.6875,8.3766272 c 2.4345684,-0.6277456 5.592595,-0.4869985 7.71875,0.34401 0.180469,0.070536 0.359084,0.1356328 0.396923,0.1446587 0.05281,0.012598 0.195247,0.249795 0.613017,1.0208703 0.299319,0.5524518 0.560652,1.0360998 0.580738,1.0747708 0.0318,0.06123 0.02874,0.07031 -0.02369,0.07031 -0.03699,0 -0.06726,-0.02808 -0.07848,-0.07279 C 13.861723,10.826846 13.50248,10.473784 13.189781,10.265613 12.262982,9.6486175 10.832663,9.2208069 9.15625,9.0591769 c -0.5029053,-0.048487 -1.8095947,-0.048487 -2.3125,0 C 4.7606528,9.2600169 3.0613663,9.8741563 2.2863812,10.706256 2.1632465,10.838466 2.0625,10.965675 2.0625,10.988943 c 0,0.02327 -0.014557,0.04231 -0.03235,0.04231 -0.020561,0 -0.022224,-0.01993 -0.00456,-0.05469 z"
       id="path821"
       inkscape:connector-curvature="0" />
    <path
       style="fill:#323232;stroke-width:0.000357143"
       d="M 6.921875,14.964838 C 5.6499087,14.85669 4.4595722,14.547356 3.4458072,14.061511 2.1374787,13.434497 1.3314318,12.60473 1.0610187,11.606545 1.0026698,11.391159 0.99593491,11.301106 1.0086447,10.90625 1.0241845,10.423478 1.0766391,10.188095 1.241939,9.859375 1.2851534,9.7734375 2.6496949,7.7378906 4.2742534,5.3359375 L 7.2279963,0.96875 7.8718106,0.968925 c 0.7167241,1.9375e-4 0.8448353,0.0218748 0.9874469,0.1671093 0.12013,0.1223396 5.7910105,8.5084661 5.8989125,8.7233414 0.16528,0.3291383 0.21765,0.5642503 0.233185,1.0468753 0.01271,0.394895 0.006,0.485252 -0.0526,0.703125 -0.476042,1.77134 -2.80299,3.090497 -5.923129,3.357848 -0.4367584,0.03742 -1.6416925,0.03605 -2.09375,-0.0024 z m 2.4763594,-1.071097 c 2.1711876,-0.287966 3.8634186,-1.141679 4.4094226,-2.224507 0.115758,-0.22957 0.171907,-0.435476 0.149416,-0.54793 -0.01201,-0.06005 -0.0035,-0.08891 0.02823,-0.09581 0.0324,-0.007 -0.122782,-0.318863 -0.541461,-1.087999 L 12.856964,8.859375 10.535611,5.4296875 8.2142575,2 H 8.0003228 7.7863878 L 5.4648922,5.4296875 3.1433963,8.859375 2.5722818,9.9375 c -0.3141129,0.592969 -0.5578638,1.082629 -0.5416688,1.088135 0.016195,0.0055 0.021724,0.04862 0.012287,0.09581 -0.036645,0.183223 0.1333677,0.590624 0.3804994,0.91179 0.5905096,0.767412 1.879797,1.421959 3.4096402,1.73101 0.3176859,0.06418 0.8577346,0.140699 1.3075859,0.185277 0.3166412,0.03138 1.8943928,-0.0076 2.2576094,-0.05578 z M 2.0634571,10.984375 c 0,-0.01719 0.013632,-0.05234 0.030293,-0.07813 0.016661,-0.02578 0.030293,-0.03281 0.030293,-0.01563 0,0.01719 -0.013632,0.05234 -0.030293,0.07813 -0.016661,0.02578 -0.030293,0.03281 -0.030293,0.01563 z"
       id="path819"
       inkscape:connector-curvature="0" />
  </g>
</svg>
