<?xml version="1.0" encoding="UTF-8" standalone="no"?>
<!-- Created with Inkscape (http://www.inkscape.org/) -->

<svg
   version="1.1"
   id="svg2"
   width="1600"
   height="1600"
   viewBox="0 0 1600 1600"
   sodipodi:docname="connected.svg"
   inkscape:version="1.2.2 (732a01da63, 2022-12-09)"
   xmlns:inkscape="http://www.inkscape.org/namespaces/inkscape"
   xmlns:sodipodi="http://sodipodi.sourceforge.net/DTD/sodipodi-0.dtd"
   xmlns="http://www.w3.org/2000/svg"
   xmlns:svg="http://www.w3.org/2000/svg"
   xmlns:rdf="http://www.w3.org/1999/02/22-rdf-syntax-ns#"
   xmlns:cc="http://creativecommons.org/ns#"
   xmlns:dc="http://purl.org/dc/elements/1.1/">
  <metadata
     id="metadata8">
    <rdf:RDF>
      <cc:Work
         rdf:about="">
        <dc:format>image/svg+xml</dc:format>
        <dc:type
           rdf:resource="http://purl.org/dc/dcmitype/StillImage" />
      </cc:Work>
    </rdf:RDF>
  </metadata>
  <defs
     id="defs6" />
  <sodipodi:namedview
     pagecolor="#808080"
     bordercolor="#666666"
     borderopacity="1"
     objecttolerance="10"
     gridtolerance="10"
     guidetolerance="10"
     inkscape:pageopacity="0"
     inkscape:pageshadow="2"
     inkscape:window-width="2560"
     inkscape:window-height="1009"
     id="namedview4"
     showgrid="false"
     fit-margin-top="0"
     fit-margin-left="0"
     fit-margin-right="0"
     fit-margin-bottom="0"
     inkscape:zoom="0.5"
     inkscape:cx="664"
     inkscape:cy="812"
     inkscape:window-x="-8"
     inkscape:window-y="-8"
     inkscape:window-maximized="1"
     inkscape:current-layer="svg2"
     inkscape:showpageshadow="0"
     inkscape:pagecheckerboard="true"
     inkscape:deskcolor="#d1d1d1" />
  <g
     id="CONNECTED"
     transform="scale(99.999994)"
     style="stroke-width:0.0114286">
    <path
       style="fill:none;stroke-width:0.000357143"
       d="M 0,8.0000002 V 0 H 8.0000002 16.000001 V 8.0000002 16.000001 H 8.0000002 0 Z M 8.5994824,14.94003 c 0.7528739,-0.192552 1.3729739,-0.707115 1.6871446,-1.400003 0.292173,-0.644374 0.292173,-1.435679 0,-2.080053 C 9.8904541,10.586235 9.0018195,10 8.0735459,10 H 7.7820891 L 7.735879,9.8984379 C 7.7104636,9.8425784 7.6425525,9.7125002 7.5849652,9.6093752 7.482768,9.4263645 7.3584117,9.1995684 7.1608092,8.8358166 7.1070865,8.7369216 7.0276908,8.5998668 6.9843752,8.5312502 6.9410597,8.4626337 6.8616717,8.3255791 6.8079581,8.2266841 6.7542443,8.1277894 6.6700111,7.973047 6.6207734,7.8828127 6.2768693,7.2525656 6.1536773,7.0264727 6.0546173,6.8437502 6.0033687,6.7492191 5.936869,6.6367191 5.9068399,6.5937502 5.8768111,6.5507815 5.8030223,6.424219 5.7428648,6.3125002 5.6827073,6.2007816 5.5874808,6.0250003 5.5312502,5.9218753 5.4750195,5.8187503 5.380436,5.6447388 5.3210646,5.5351835 L 5.2131162,5.335992 5.3535757,5.1914337 C 5.4944018,5.046498 5.7312942,4.7019171 5.7666145,4.5906323 c 0.018284,-0.057607 0.085049,-0.059382 2.2333857,-0.059382 2.1483368,0 2.2151018,0.00177 2.2333858,0.059382 0.03993,0.1258039 0.28081,0.4648981 0.464821,0.6543397 0.336325,0.3462501 0.731325,0.5746005 1.202311,0.6950582 0.321471,0.082219 0.877493,0.082219 1.198965,0 0.916113,-0.2343023 1.606245,-0.924434 1.840547,-1.8405478 0.08222,-0.3214713 0.08222,-0.8774932 0,-1.1989645 -0.234302,-0.9161139 -0.924434,-1.6062455 -1.840547,-1.840548 -0.321472,-0.0822185 -0.877494,-0.0822185 -1.198965,0 -0.711963,0.1820895 -1.321282,0.6657397 -1.646876,1.3072176 L 10.18623,2.5000001 H 8.0000002 5.8137705 L 5.7463589,2.3671875 C 5.4207642,1.7257096 4.8114457,1.2420594 4.0994824,1.0599699 c -0.3214713,-0.0822185 -0.8774932,-0.0822185 -1.1989645,0 -0.7528738,0.1925527 -1.3729738,0.707116 -1.6871442,1.4000038 -0.29217305,0.644374 -0.29217305,1.4356789 0,2.0800526 0.3228916,0.7121222 0.9440952,1.2165387 1.7385145,1.4116711 0.2682241,0.065884 0.2827798,0.07394 0.3457228,0.1913538 0.03614,0.067416 0.1156465,0.2139802 0.1766808,0.325699 0.061034,0.1117189 0.1549261,0.2840391 0.2086493,0.3829339 0.053723,0.098895 0.1329762,0.2357245 0.1761187,0.3040664 0.043142,0.068342 0.07844,0.1335288 0.07844,0.1448601 0,0.011331 0.044242,0.09247 0.098314,0.1803085 0.054073,0.087838 0.1365459,0.2300186 0.1832735,0.3159562 0.085416,0.1570908 0.2044821,0.3755578 0.3704353,0.6796875 0.2038943,0.3736615 0.2904982,0.5327006 0.3828827,0.703125 0.053573,0.098828 0.1219753,0.2148438 0.1520044,0.2578125 0.030029,0.042969 0.1038176,0.1695312 0.1639751,0.28125 0.1102997,0.2048381 0.2349757,0.4340817 0.407894,0.7499997 0.051742,0.09453 0.1364602,0.25152 0.1882629,0.348864 l 0.094187,0.176989 -0.097049,0.151238 C 5.6202016,11.553319 5.5000001,11.979782 5.5000001,12.5 c 0,0.719954 0.2481232,1.311611 0.7550283,1.800388 0.3351574,0.323172 0.6865319,0.521044 1.1333008,0.638204 0.3110672,0.08157 0.895114,0.08227 1.2111532,0.0014 z"
       id="path827"
       inkscape:connector-curvature="0" />
    <path
       style="fill:#fefefe;stroke-width:0.000357143"
       d="M 6.2655398,10.427709 C 6.2210578,10.338563 6.1373065,10.18125 6.0794262,10.078125 6.0215459,9.9750002 5.9375505,9.8203127 5.8927702,9.7343754 5.84799,9.6484378 5.7985341,9.5570316 5.7828684,9.5312503 5.7537509,9.4833307 5.544821,9.1285798 5.4792527,9.0157275 5.4592477,8.9812962 5.4058748,8.8828127 5.3606463,8.7968754 5.315418,8.7109378 5.2310564,8.5562503 5.1731761,8.4531253 5.1152958,8.3500003 5.0309208,8.1953128 4.9856761,8.1093752 4.9404314,8.0234379 4.8554454,7.8687502 4.7968184,7.7656252 4.7381911,7.6625002 4.6751979,7.544648 4.6568337,7.5037312 4.6384692,7.4628145 4.5975795,7.392502 4.5659677,7.3474812 4.5343561,7.3024605 4.4550832,7.1671877 4.3898065,7.0468753 4.3245293,6.9265627 4.251383,6.7929689 4.227259,6.7500002 3.9213302,6.2050931 3.8326739,6.0319099 3.8505176,6.0140662 c 0.00766,-0.00766 0.1210422,-0.041319 0.2519669,-0.074804 0.1309247,-0.033485 0.3417856,-0.1088129 0.4685796,-0.1673956 0.2140172,-0.098882 0.232605,-0.1025123 0.2594232,-0.050666 0.1120973,0.2167115 0.2133398,0.4061805 0.274214,0.5131743 0.039116,0.06875 0.1245989,0.2234375 0.1899628,0.3437501 0.065364,0.1203124 0.1418201,0.2539664 0.1699022,0.2970089 0.085171,0.1305436 0.123041,0.1961295 0.207431,0.3592411 0.044462,0.085937 0.1281966,0.2406249 0.1860769,0.3437499 0.05788,0.103125 0.1422553,0.2578125 0.1875,0.34375 0.045245,0.085938 0.1302307,0.2406251 0.188858,0.3437501 0.058627,0.103125 0.1201558,0.2171262 0.1367308,0.253336 0.016575,0.03621 0.076954,0.1420211 0.1341743,0.2351364 0.057221,0.093115 0.1210327,0.1970829 0.1418039,0.2310392 0.020771,0.033956 0.074144,0.1320508 0.1186062,0.2179884 0.044462,0.085938 0.1281966,0.2406251 0.1860769,0.3437501 0.1589962,0.2832825 0.2694298,0.5121389 0.2598616,0.5385239 -0.00471,0.01298 -0.1090828,0.0673 -0.2319429,0.120715 -0.1228603,0.05341 -0.3156196,0.161586 -0.4283543,0.240394 L 6.3464168,10.589793 Z M 5.9843752,3.5156527 V 3.0000342 h 2.015625 2.0156248 V 3.5156527 4.0312713 H 8.0000002 5.9843752 Z"
       id="path825"
       inkscape:connector-curvature="0" />
    <path
       style="fill:#fefe00;stroke-width:0.000357143"
       d="M 7.6285106,13.950608 C 6.8361417,13.737514 6.3459469,12.917082 6.5478499,12.141924 6.7569145,11.33927 7.5760955,10.84417 8.3580769,11.04785 c 0.8002987,0.208452 1.2977172,1.028386 1.0953086,1.805485 -0.210975,0.809988 -1.0398651,1.308389 -1.8248749,1.097273 z m -4.5000002,-9 C 2.3361418,4.7375133 1.8459468,3.9170817 2.0478498,3.1419234 2.2569145,2.3392702 3.0760952,1.8441696 3.8580766,2.0478498 4.6583754,2.2563012 5.1557939,3.0762359 4.9533855,3.8533345 4.7424105,4.663323 3.9135202,5.1617236 3.1285104,4.950608 Z m 9.0000006,0 C 11.336142,4.7375133 10.845947,3.9170817 11.04785,3.1419234 11.256915,2.3392702 12.076096,1.8441696 12.858077,2.0478498 13.658376,2.2563012 14.155794,3.0762359 13.953386,3.8533345 13.742411,4.663323 12.91352,5.1617236 12.128511,4.950608 Z"
       id="path823"
       inkscape:connector-curvature="0" />
    <path
       style="fill:#656565;stroke-width:0.000357143"
       d="M 5.8827696,10.814258 C 5.8319421,10.71876 5.7442174,10.55625 5.6878261,10.453125 5.4833735,10.079234 5.3957454,9.9181291 5.2883855,9.7187503 5.228228,9.6070315 5.1544392,9.480469 5.1244104,9.4375003 5.0943813,9.3945316 5.0240777,9.2750004 4.9681795,9.1718754 4.9122813,9.0687504 4.8281632,8.9140629 4.7812502,8.8281253 4.734337,8.7421877 4.649962,8.5875002 4.5937502,8.4843752 4.5375382,8.3812502 4.451261,8.2230471 4.4020233,8.1328127 4.3527858,8.0425784 4.2723668,7.8949221 4.2233145,7.8046877 4.1742626,7.7144534 4.0898876,7.5687574 4.0358145,7.4809191 3.9817418,7.3930805 3.9375002,7.3119417 3.9375002,7.3006106 c 0,-0.011331 -0.035298,-0.076518 -0.07844,-0.1448601 C 3.8159173,7.0874086 3.7385735,6.9540947 3.6871849,6.8594965 3.6357959,6.7648987 3.5515627,6.6101564 3.5000002,6.5156252 3.4484377,6.4210941 3.3642342,6.2664066 3.312881,6.1718752 L 3.219512,6.0000002 h 0.3044895 0.304489 l 0.072516,0.1484375 c 0.063185,0.129337 0.1215912,0.2370297 0.3262519,0.6015625 0.024124,0.042969 0.09727,0.1765625 0.1625475,0.2968751 0.065277,0.1203124 0.1445496,0.2555852 0.1761612,0.3006059 0.031612,0.045021 0.072502,0.1153333 0.090866,0.1562501 0.018364,0.040917 0.081357,0.1587689 0.1399847,0.2618939 0.058627,0.103125 0.143613,0.2578127 0.1888577,0.34375 0.045245,0.085938 0.1296197,0.2406251 0.1875,0.3437501 0.05788,0.103125 0.1422419,0.2578125 0.1874702,0.3437501 0.045229,0.085937 0.098601,0.1844208 0.1186064,0.2188521 0.065568,0.1128523 0.2744982,0.4676032 0.3036157,0.5155228 0.015666,0.025781 0.065122,0.1171875 0.1099018,0.2031251 0.04478,0.085937 0.1287757,0.2406248 0.186656,0.3437496 0.05788,0.103125 0.1424515,0.262171 0.1879357,0.353435 l 0.082699,0.165935 -0.1874389,0.195198 -0.1874386,0.195198 z M 7.22808,10.055393 C 7.2111705,10.033521 7.1656671,9.9523441 7.1269615,9.8750004 7.0882559,9.7976566 7.0093373,9.6500004 6.9515873,9.5468754 6.8938373,9.4437504 6.8102093,9.2890629 6.7657474,9.2031253 6.7212853,9.1171877 6.6679127,9.0190931 6.6471412,8.9851369 6.62637,8.9511806 6.5625581,8.847213 6.5053373,8.7540977 6.4481166,8.6609824 6.387738,8.555171 6.371163,8.5189613 6.354588,8.4827515 6.2930592,8.3687503 6.2344322,8.2656253 6.1758049,8.1625003 6.0908189,8.0078128 6.0455742,7.9218752 6.0003295,7.8359377 5.9159545,7.6812502 5.8580742,7.5781252 5.8001939,7.4750002 5.7164592,7.3203127 5.6719973,7.2343753 5.5876073,7.0712637 5.549737,7.0056778 5.4645663,6.8751342 5.4364842,6.8320917 5.3600283,6.6984377 5.2946641,6.5781253 5.2293002,6.4578127 5.1438171,6.3031252 5.1047013,6.2343752 5.065586,6.1656253 4.9970133,6.035828 4.9523173,5.9459367 4.9076215,5.8560459 4.8578777,5.7743564 4.8417762,5.7644053 c -0.059721,-0.036909 -0.026341,-0.1276633 0.0673,-0.1829789 0.053117,-0.031377 0.1434019,-0.098162 0.2006327,-0.1484116 0.057231,-0.050249 0.1106656,-0.080343 0.118744,-0.066876 0.00808,0.013467 0.060321,0.1088613 0.1160944,0.2119863 0.055773,0.103125 0.1436013,0.2648438 0.1951732,0.359375 0.051572,0.094531 0.1429865,0.2632814 0.203144,0.375 0.060157,0.1117188 0.1339463,0.2382813 0.1639751,0.28125 0.030029,0.042969 0.1003329,0.1625001 0.1562309,0.2656251 0.055898,0.103125 0.1419185,0.2613281 0.1911562,0.3515625 0.049237,0.090234 0.1298089,0.2378906 0.1790464,0.328125 0.2124672,0.3893721 0.2826262,0.5181281 0.3746847,0.6876213 0.053714,0.098895 0.1331016,0.2359496 0.1764171,0.3045661 0.043316,0.068617 0.1208016,0.2021557 0.1721904,0.2967539 0.1018477,0.1874834 0.2262649,0.4157025 0.3791262,0.6954338 0.054006,0.098828 0.131951,0.2426787 0.1732118,0.319668 l 0.07502,0.1399807 -0.2054768,0.037923 c -0.1130121,0.02086 -0.2311594,0.04607 -0.2625495,0.05604 -0.03139,0.01 -0.070908,2.11e-4 -0.087817,-0.02165 z M 5.813827,4.5078127 c 7.289e-4,-0.012891 0.035119,-0.121875 0.07642,-0.2421875 L 5.9653406,4.0468751 H 8.0000002 10.03466 l 0.07509,0.2187501 c 0.0413,0.1203125 0.07569,0.2292968 0.07642,0.2421875 7.28e-4,0.012891 -0.9830487,0.023437 -2.1861738,0.023437 -1.203125,0 -2.1869028,-0.010547 -2.1861732,-0.023437 z M 5.9074552,2.7890625 C 5.8703946,2.6730469 5.8326968,2.5605469 5.823682,2.5390627 5.81066,2.5080277 6.2579252,2.4999997 8.0000002,2.4999997 c 1.7420751,0 2.1893398,0.00803 2.1763188,0.039063 -0.009,0.021484 -0.04671,0.1339842 -0.08377,0.2499998 L 10.025163,3 H 8.0000002 5.9748377 Z"
       id="path821"
       inkscape:connector-curvature="0" />
    <path
       style="fill:#fe0000;stroke-width:0.000357143"
       d="m 7.3883292,14.938592 c -0.9090197,-0.23838 -1.5955889,-0.928986 -1.8283591,-1.839109 -0.082219,-0.321472 -0.082219,-0.877494 0,-1.198965 0.2343023,-0.916114 0.9244343,-1.606245 1.840548,-1.840548 0.3214711,-0.082218 0.8774932,-0.082218 1.1989643,0 0.7528739,0.192553 1.3729739,0.707116 1.6871446,1.400004 0.292173,0.644374 0.292173,1.435679 0,2.080053 -0.3141707,0.692888 -0.9342707,1.207451 -1.6871446,1.400003 -0.3160392,0.08083 -0.900086,0.08014 -1.2111532,-0.0014 z M 8.3580769,13.952151 C 9.1583756,13.743699 9.6557941,12.923764 9.4533855,12.146666 9.3122334,11.604746 8.897052,11.188235 8.3580769,11.04785 c -0.7819814,-0.20368 -1.6011624,0.29142 -1.810227,1.094074 -0.2785272,1.069339 0.7408882,2.088754 1.810227,1.810227 z M 2.888329,5.9385921 C 1.9793094,5.7002114 1.2927401,5.0096051 1.0599699,4.0994824 c -0.0822185,-0.3214713 -0.0822185,-0.8774932 0,-1.1989645 0.2343025,-0.9161139 0.9244341,-1.6062455 1.840548,-1.840548 0.3214713,-0.0822185 0.8774932,-0.0822185 1.1989645,0 0.7528737,0.1925527 1.3729737,0.707116 1.687144,1.4000038 0.2921733,0.644374 0.2921733,1.4356789 0,2.0800526 C 5.4724561,5.2329143 4.8523561,5.7474778 4.0994824,5.9400302 3.783443,6.0208596 3.1993964,6.0201659 2.888329,5.9385935 Z M 3.8580766,4.9521504 C 4.3970517,4.8117652 4.8122332,4.3952543 4.9533855,3.8533345 5.1557939,3.0762359 4.6583754,2.2563012 3.8580766,2.0478498 3.0760952,1.8441696 2.2569145,2.3392702 2.0478498,3.1419234 1.7693225,4.2112624 2.7887379,5.2306777 3.8580766,4.9521504 Z M 11.888329,5.9385921 C 10.97931,5.7002114 10.29274,5.0096051 10.05997,4.0994824 c -0.082218,-0.3214713 -0.082218,-0.8774932 0,-1.1989645 0.234303,-0.9161139 0.924434,-1.6062455 1.840548,-1.840548 0.321471,-0.0822185 0.877493,-0.0822185 1.198965,0 0.752873,0.1925527 1.372973,0.707116 1.687144,1.4000038 0.292173,0.644374 0.292173,1.4356789 0,2.0800526 -0.314171,0.692888 -0.934271,1.2074515 -1.687144,1.4000039 -0.31604,0.080829 -0.900086,0.080136 -1.211154,-0.00144 z M 12.858077,4.9521504 C 13.397052,4.8117652 13.812234,4.3952543 13.953386,3.8533345 14.155794,3.0762359 13.658376,2.2563012 12.858077,2.0478498 12.076096,1.8441696 11.256915,2.3392702 11.04785,3.1419234 c -0.278527,1.069339 0.740888,2.0887543 1.810227,1.810227 z"
       id="path819"
       inkscape:connector-curvature="0" />
  </g>
</svg>
