<?xml version="1.0" encoding="UTF-8" standalone="no"?>
<!-- Created with Inkscape (http://www.inkscape.org/) -->

<svg
   version="1.1"
   id="svg2"
   width="1600"
   height="1600"
   viewBox="0 0 1600 1600"
   sodipodi:docname="convexhull.svg"
   inkscape:version="1.2.2 (732a01da63, 2022-12-09)"
   xmlns:inkscape="http://www.inkscape.org/namespaces/inkscape"
   xmlns:sodipodi="http://sodipodi.sourceforge.net/DTD/sodipodi-0.dtd"
   xmlns="http://www.w3.org/2000/svg"
   xmlns:svg="http://www.w3.org/2000/svg"
   xmlns:rdf="http://www.w3.org/1999/02/22-rdf-syntax-ns#"
   xmlns:cc="http://creativecommons.org/ns#"
   xmlns:dc="http://purl.org/dc/elements/1.1/">
  <metadata
     id="metadata8">
    <rdf:RDF>
      <cc:Work
         rdf:about="">
        <dc:format>image/svg+xml</dc:format>
        <dc:type
           rdf:resource="http://purl.org/dc/dcmitype/StillImage" />
      </cc:Work>
    </rdf:RDF>
  </metadata>
  <defs
     id="defs6" />
  <sodipodi:namedview
     pagecolor="#808080"
     bordercolor="#666666"
     borderopacity="1"
     objecttolerance="10"
     gridtolerance="10"
     guidetolerance="10"
     inkscape:pageopacity="0"
     inkscape:pageshadow="2"
     inkscape:window-width="1993"
     inkscape:window-height="1009"
     id="namedview4"
     showgrid="false"
     inkscape:zoom="0.5"
     inkscape:cx="413"
     inkscape:cy="410"
     inkscape:window-x="-8"
     inkscape:window-y="-8"
     inkscape:window-maximized="1"
     inkscape:current-layer="CONVEXHULL"
     inkscape:showpageshadow="0"
     inkscape:pagecheckerboard="true"
     inkscape:deskcolor="#d1d1d1" />
  <g
     id="CONVEXHULL"
     transform="matrix(100,0,0,100,0,4.9999997e-5)"
     style="stroke-width:0.0114286">
    <path
       style="fill:none;stroke-width:0.000357143"
       d="M 7.5175062e-4,11.210938 0.0015035,6.421875 0.15349436,6.875 C 1.7991625,11.781172 2.486354,13.789986 2.5799796,13.968156 2.8187115,14.422463 3.3194091,14.784793 3.9190613,14.937183 4.160035,14.998421 4.2626044,15 8,15 c 3.685004,0 3.842901,-0.0023 4.069553,-0.06031 0.360402,-0.09218 0.662186,-0.259277 0.92036,-0.509615 0.344135,-0.333689 0.377635,-0.408661 1.085845,-2.430078 0.14151,-0.403906 0.278865,-0.776563 0.305232,-0.828125 0.02637,-0.05156 0.143226,-0.382031 0.259685,-0.734375 0.116459,-0.352344 0.240085,-0.696875 0.274725,-0.765625 0.03464,-0.06875 0.179247,-0.4695313 0.321351,-0.890625 0.142103,-0.4210938 0.300314,-0.86574 0.351579,-0.9881025 0.17607,-0.4202534 0.353766,-1.0190634 0.378758,-1.2763584 0.01342,-0.1381404 0.02631,1.9390703 0.02865,4.6160229 L 16,16 H 8 0 Z M 15.943835,5.5063294 C 15.923253,5.4066856 15.849816,5.2081209 15.780641,5.0650747 15.548963,4.5859947 15.365613,4.4353162 13.622302,3.2913325 13.460504,3.1851591 13.264844,3.0541123 13.1875,3.0001175 13.110156,2.9461227 12.810246,2.7447106 12.521033,2.5525351 12.231821,2.3603595 11.858106,2.1117188 11.690556,2 11.523006,1.8882812 11.302603,1.7423787 11.200772,1.675772 11.098941,1.6091653 10.814496,1.4193216 10.568671,1.253897 10.322847,1.0884724 9.9921947,0.86875 9.8338891,0.765625 9.6755838,0.6625 9.4970256,0.54096472 9.4370931,0.49554663 9.2604303,0.36166778 8.7585503,0.12449181 8.5190156,0.06168623 8.2988094,0.00394856 8.3304156,0.00342636 12.148438,0.00172067 L 16,0 v 2.84375 c 0,1.5640625 -0.0042,2.84375 -0.0094,2.84375 -0.0052,0 -0.02621,-0.081527 -0.04679,-0.1811706 z M 0.00168054,2.7734375 0,0 3.8359375,0.00172067 C 7.6422278,0.00342805 7.6701534,0.00389267 7.4491459,0.06183565 7.326645,0.09395252 7.1368012,0.16541437 7.0272709,0.22063976 6.8230828,0.32359184 6.0244866,0.81654644 5.933875,0.89556731 5.9061,0.91978947 5.7486353,1.027024 5.5839537,1.1338663 5.4192722,1.2407086 5.0834034,1.4634724 4.8375791,1.628897 4.5917544,1.7943216 4.3073087,1.9841653 4.2054778,2.050772 4.1036466,2.1173787 3.8832441,2.2632813 3.7156944,2.375 3.5481444,2.4867188 3.1744294,2.7353595 2.8852166,2.9275351 2.5960037,3.1197106 2.2960937,3.3209116 2.21875,3.3746481 2.0055262,3.5227906 1.5208893,3.8430897 1.1755742,4.0640884 0.74351653,4.3406016 0.38380128,4.6885147 0.23273597,4.9759928 0.16711861,5.1008628 0.0886658,5.2803944 0.05839638,5.3749522 0.00494618,5.5419234 0.00331268,5.4669956 0.00168054,2.7734375 Z"
       id="path825"
       inkscape:connector-curvature="0" />
    <path
       style="fill:#fecb32;stroke-width:0.000357143"
       d="m 5.375,12.466348 c 0,-0.02939 0.1338556,-0.231874 0.3049172,-0.461243 0.029952,-0.04016 0.5468831,-0.75017 1.1487365,-1.577799 0.6018532,-0.8276282 1.116316,-1.5090226 1.14325,-1.5142097 0.051482,-0.00991 0.1259472,0.079083 0.4635569,0.5540225 C 8.5460578,9.6227034 8.6480109,9.75 8.6620231,9.75 c 0.014012,0 0.025477,0.015048 0.025477,0.033439 0,0.043382 0.3510006,0.529061 0.3823531,0.529061 0.013143,0 0.023897,0.01481 0.023897,0.03291 0,0.03811 0.3412859,0.508821 0.3801972,0.524379 0.014329,0.0057 0.026053,0.02262 0.026053,0.03753 0,0.01491 0.2460938,0.365993 0.5468746,0.78018 0.300781,0.414188 0.546875,0.766441 0.546875,0.782784 0,0.01855 -0.9804387,0.02972 -2.6093746,0.02972 C 6.1414687,12.5 5.375,12.490115 5.375,12.466348 Z M 4.45256,11.835938 C 4.2924369,11.396335 2.8125,6.9450731 2.8125,6.9030669 c 0,-0.032624 0.017578,-0.059346 0.039063,-0.059382 0.021484,-3.13e-5 0.4890625,0.1463347 1.0390625,0.3252678 0.55,0.1789331 1.5097656,0.4912097 2.1328125,0.6939478 C 6.6464844,8.0656384 7.15625,8.2430072 7.15625,8.2570528 7.15625,8.283145 7.0000966,8.5342159 6.9662772,8.5625 6.9560016,8.5710938 6.6828716,8.94375 6.3593219,9.390625 6.0357722,9.8375 5.6777281,10.329688 5.5636681,10.484375 5.4496081,10.639063 5.1750466,11.015234 4.9535316,11.320313 4.57579,11.84055 4.4873837,11.931543 4.45256,11.835938 Z M 8.5,5.125 c 0,-1.6300713 0.00917,-2.1875 0.036004,-2.1875 0.019802,0 0.09363,0.042987 0.1640625,0.095528 0.1237681,0.092327 0.2835712,0.199085 1.0966072,0.7325975 0.3248983,0.2131975 0.5998283,0.3981719 0.8752013,0.5888416 0.09345,0.064703 0.598983,0.3998609 0.738013,0.4892834 0.0668,0.042969 0.230425,0.1479778 0.3636,0.2333531 0.133175,0.085376 0.301331,0.1978756 0.373679,0.25 0.170433,0.1227922 0.392778,0.2744494 0.580925,0.3962378 0.08955,0.057965 0.146203,0.116345 0.140625,0.1449057 -0.0064,0.032902 -0.292199,0.1397028 -0.915592,0.3421793 C 11.454688,6.3723175 10.490126,6.6865125 9.8096544,6.9086369 9.1291828,7.1307616 8.5561359,7.3125 8.5362169,7.3125 8.5091059,7.3125 8.5,6.7624947 8.5,5.125 Z M 6.90625,7.1089028 C 3.5876703,6.0305819 3.1400213,5.8800569 3.1337384,5.8403725 3.1262988,5.7933806 3.2537597,5.6973991 3.7233494,5.3963787 3.8891603,5.2900891 4.0455194,5.1890625 4.0708144,5.171875 4.0961091,5.1546875 4.2416956,5.0578512 4.39434,4.9566834 4.5469841,4.8555156 4.7,4.7532681 4.734375,4.7294666 5.0117847,4.5373869 5.2848119,4.3537703 5.6099484,4.140625 6.0357525,3.8614866 6.5142462,3.5451312 6.609375,3.4798556 6.64375,3.4562684 6.7984375,3.3535922 6.953125,3.2516866 7.1078125,3.1497809 7.2823425,3.0303689 7.3409697,2.9863267 7.3995966,2.9422845 7.4663934,2.90625 7.4894072,2.90625 c 0.034558,0 0.041843,0.3808116 0.041843,2.1875 0,2.0634147 -0.0031,2.1873637 -0.054687,2.1850987 C 7.4464844,7.2775269 7.1898437,7.2010522 6.90625,7.1089028 Z"
       id="path823"
       inkscape:connector-curvature="0" />
    <path
       style="fill:#00fe00;stroke-width:0.000357143"
       d="M 3.90625,14.935541 C 3.3172413,14.782196 2.8160608,14.417419 2.5817478,13.971521 2.517727,13.849689 1.9570031,12.236593 1.2439997,10.123073 L 0.01647166,6.484375 0.0059351,6.0393491 C -0.00623033,5.5255259 0.02443972,5.3789234 0.22496362,4.9923953 0.38222247,4.6892647 0.73117247,4.3485019 1.1755742,4.0640884 1.5208893,3.8430897 2.0055262,3.5227906 2.21875,3.3746481 2.2960937,3.3209116 2.5960037,3.1197106 2.8852166,2.9275351 3.1744294,2.7353595 3.5481444,2.4867188 3.7156944,2.375 3.8832441,2.2632813 4.1036466,2.1173787 4.2054778,2.050772 4.3073087,1.9841653 4.5917544,1.7943216 4.8375791,1.628897 5.0834034,1.4634724 5.4192722,1.2407086 5.5839537,1.1338663 5.7486353,1.027024 5.9061,0.91978947 5.933875,0.89556731 6.0243756,0.81664322 6.822965,0.32365125 7.0267647,0.22089532 7.46312,8.8492531e-4 8.0328594,-0.06097062 8.5067116,0.0602203 8.7559944,0.12397615 9.2546853,0.35731397 9.4370931,0.49554662 9.4970256,0.54096472 9.6755838,0.6625 9.8338891,0.765625 9.9921947,0.86875 10.322847,1.0884724 10.568671,1.253897 c 0.245825,0.1654246 0.53027,0.3552683 0.632101,0.421875 0.101831,0.066607 0.322234,0.2125092 0.489784,0.324228 0.16755,0.1117187 0.541265,0.3603595 0.830477,0.5525351 0.289213,0.1921755 0.589123,0.3935876 0.666467,0.4475824 0.07734,0.053995 0.273004,0.1850416 0.434802,0.291215 1.707991,1.1208062 1.916802,1.2901062 2.141496,1.7362884 0.22085,0.438551 0.269707,0.7833138 0.205102,1.4473335 C 15.93857,6.7866872 15.780254,7.3350541 15.58833,7.7931475 15.537065,7.91551 15.378854,8.3601562 15.236751,8.78125 15.094648,9.2023438 14.950039,9.603125 14.9154,9.671875 c -0.03464,0.06875 -0.158266,0.413281 -0.274725,0.765625 -0.116459,0.352344 -0.233317,0.682813 -0.259685,0.734375 -0.02637,0.05156 -0.163722,0.424219 -0.305232,0.828125 -0.70821,2.021418 -0.74171,2.096389 -1.085845,2.430078 -0.258174,0.250338 -0.559958,0.417439 -0.92036,0.509615 -0.226862,0.05802 -0.381612,0.06024 -4.0823643,0.05859 -3.7115434,-0.0017 -3.8547906,-0.0039 -4.0809387,-0.06274 z M 11.8125,13.38991 c 0.140142,-0.081 0.259198,-0.305143 0.232,-0.436785 C 12.016946,12.81976 11.409856,11.879713 10.888448,11.163039 10.766938,10.996024 10.500873,10.627344 10.297192,10.34375 10.093511,10.060156 9.9081631,9.8125122 9.8853069,9.79343 9.8624506,9.7743475 9.84375,9.7489897 9.84375,9.7370791 9.84375,9.7068094 9.4954225,9.2367006 9.4635528,9.2239584 9.4492238,9.2182291 9.4375,9.2009344 9.4375,9.1855256 9.4375,9.1701169 9.3039063,8.9748541 9.140625,8.7516081 8.9773437,8.5283625 8.84375,8.3272713 8.84375,8.3047391 c 0,-0.026199 0.3745691,-0.1626778 1.0390625,-0.3785947 3.0029155,-0.9757497 3.4841595,-1.133621 3.9286175,-1.2887731 0.265818,-0.092792 0.502128,-0.1875369 0.525135,-0.2105435 0.02301,-0.023007 0.06132,-0.1349878 0.08514,-0.2488465 0.06575,-0.3142357 0.0078,-0.4647929 -0.243924,-0.633306 C 14.034192,5.4485328 13.724166,5.2370406 13.546875,5.1142834 13.5125,5.0904819 13.364844,4.9917691 13.21875,4.8949213 13.072656,4.7980738 12.925,4.6996363 12.890625,4.6761713 12.789167,4.6069147 12.301025,4.2842897 11.891198,4.015625 11.566062,3.8024797 11.293035,3.6188631 11.015625,3.4267834 10.922178,3.3620806 10.416642,3.0269225 10.277613,2.9375 10.210807,2.8945313 10.047187,2.7895223 9.9140116,2.7041468 9.7808366,2.6187712 9.6126813,2.5062712 9.5403331,2.4541468 8.8759613,1.9754874 8.2931341,1.6106687 8.1122234,1.5602264 7.9030459,1.5019027 7.7484575,1.571829 7.0018294,2.0625 6.4288259,2.4390679 6.0889975,2.668424 5.8659169,2.8291468 5.7935688,2.8812712 5.6254134,2.9937712 5.4922384,3.0791468 5.3590631,3.1645222 5.1954428,3.2695313 5.1286375,3.3125 4.9896084,3.4019225 4.4840716,3.7370806 4.390625,3.8017834 4.1132153,3.9938631 3.8401881,4.1774797 3.5150516,4.390625 3.0892476,4.6697634 2.6107539,4.9861187 2.515625,5.0513944 2.48125,5.0749816 2.3265625,5.1777362 2.171875,5.2797378 1.6060293,5.6528584 1.5240745,5.7395578 1.5217842,5.9674628 1.5202829,6.11686 3.8981469,13.174594 3.9833594,13.27366 c 0.03531,0.04105 0.1413894,0.101398 0.2357325,0.134107 0.1652934,0.05731 0.30453,0.05922 3.8277831,0.05241 3.606593,-0.007 3.657735,-0.0079 3.765625,-0.07027 z"
       id="path821"
       inkscape:connector-curvature="0" />
    <path
       style="fill:#000000;stroke-width:0.000357143"
       d="M 4.2190919,13.407767 C 4.1247487,13.375058 4.0186691,13.31471 3.9833594,13.27366 3.8981469,13.174594 1.5202828,6.11686 1.5217842,5.9674628 1.5240745,5.7395578 1.6060293,5.6528584 2.171875,5.2797378 2.3265625,5.1777362 2.48125,5.0749816 2.515625,5.0513944 2.6107539,4.9861187 3.0892476,4.6697634 3.5150516,4.390625 3.8401881,4.1774797 4.1132153,3.9938631 4.390625,3.8017834 4.4840716,3.7370806 4.9896084,3.4019225 5.1286375,3.3125 5.1954428,3.2695312 5.3590631,3.1645222 5.4922384,3.0791467 5.6254134,2.9937712 5.7935688,2.8812712 5.8659169,2.8291467 6.0476822,2.6981903 6.24652,2.5624351 6.5899128,2.3348431 7.7739831,1.5500713 7.8808234,1.4957065 8.1122234,1.5602264 c 0.1809107,0.050442 0.7637379,0.415261 1.4281097,0.8939203 0.072348,0.052125 0.2405035,0.1646245 0.3736785,0.25 0.1331754,0.085376 0.2967954,0.1903845 0.3636004,0.2333533 0.13903,0.089422 0.644566,0.4245806 0.738013,0.4892834 0.27741,0.1920797 0.550437,0.3756963 0.875573,0.5888416 0.409827,0.2686647 0.897969,0.5912897 0.999427,0.6605462 0.03438,0.023465 0.182031,0.1219025 0.328125,0.21875 0.146094,0.096848 0.29375,0.1955607 0.328125,0.2193622 0.177291,0.1227572 0.487317,0.3342494 0.63091,0.4303919 0.251682,0.1685131 0.30967,0.3190703 0.243924,0.6333059 -0.02382,0.1138588 -0.06214,0.2258397 -0.08514,0.2488466 -0.02301,0.023007 -0.259317,0.1177513 -0.525135,0.2105434 C 13.366972,6.7925234 12.885728,6.9503947 9.8828125,7.9261444 9.2183191,8.1420612 8.84375,8.2785397 8.84375,8.3047391 c 0,0.022532 0.1335937,0.2236234 0.296875,0.446869 0.1632812,0.223246 0.296875,0.4185088 0.296875,0.4339175 0,0.015409 0.011724,0.032704 0.026053,0.038433 0.03187,0.012742 0.3801972,0.482851 0.3801972,0.5131207 0,0.011911 0.018701,0.037268 0.041557,0.056351 0.022856,0.019082 0.2082038,0.2667257 0.4118848,0.5503197 0.203681,0.283594 0.469746,0.652274 0.591256,0.819289 0.521408,0.716674 1.128498,1.656721 1.156052,1.790086 0.0272,0.131642 -0.09186,0.355788 -0.232,0.436785 -0.10789,0.06236 -0.159032,0.06331 -3.7656247,0.07027 -3.5232531,0.0068 -3.6624897,0.0049 -3.8277831,-0.05241 z M 10.59375,12.470284 c 0,-0.01634 -0.246094,-0.368596 -0.546875,-0.782784 C 9.7460938,11.273312 9.5,10.922231 9.5,10.90732 9.5,10.89241 9.488276,10.87552 9.473947,10.86979 9.4350359,10.854234 9.09375,10.383523 9.09375,10.345413 c 0,-0.0181 -0.010753,-0.03291 -0.023897,-0.03291 C 9.0385006,10.3125 8.6875,9.8268219 8.6875,9.7834394 8.6875,9.7650478 8.6760353,9.75 8.6620231,9.75 8.6480109,9.75 8.5460578,9.6227034 8.4354606,9.4671188 8.0978509,8.9921794 8.0233856,8.9031819 7.9719037,8.9130963 7.9449697,8.9182834 7.4305069,9.5996778 6.8286537,10.427306 6.2268003,11.254935 5.7098691,11.964944 5.6799172,12.005105 5.5088556,12.234474 5.375,12.436955 5.375,12.466348 c 0,0.02377 0.7664687,0.03365 2.609375,0.03365 1.6289359,0 2.609375,-0.01117 2.609375,-0.02972 z M 4.9535316,11.320313 C 5.1750466,11.015234 5.4496081,10.639063 5.5636681,10.484375 5.6777281,10.329688 6.0357722,9.8375 6.3593219,9.390625 6.6828716,8.94375 6.9560016,8.5710937 6.9662772,8.5625 7.0000966,8.5342159 7.15625,8.283145 7.15625,8.2570528 7.15625,8.2430072 6.6464844,8.0656384 6.0234375,7.8629003 5.4003906,7.6601622 4.440625,7.3478856 3.890625,7.1689525 3.340625,6.9900194 2.8730469,6.8436491 2.8515625,6.8436847 2.8300781,6.8437159 2.8125,6.8704425 2.8125,6.9030669 c 0,0.042006 1.4799369,4.4932681 1.64006,4.9328711 0.034824,0.0956 0.12323,0.0046 0.5009716,-0.515625 z M 9.8096544,6.9086369 C 10.490126,6.6865125 11.454688,6.3723175 11.953125,6.2104259 12.576518,6.0079494 12.862291,5.9011487 12.868717,5.8682466 12.874295,5.8396859 12.817639,5.7813059 12.728092,5.7233409 12.539945,5.6015525 12.3176,5.4498953 12.147167,5.3271031 12.074819,5.2749788 11.906663,5.1624788 11.773488,5.0771031 11.640313,4.9917278 11.476693,4.8867187 11.409888,4.84375 11.270858,4.7543275 10.765322,4.4191694 10.671875,4.3544666 10.396502,4.1637969 10.121572,3.9788225 9.7966741,3.765625 8.9836381,3.2321125 8.823835,3.1253547 8.7000669,3.0330275 8.6296347,2.9804874 8.5558066,2.9375 8.5360044,2.9375 8.5091747,2.9375 8.5,3.4949288 8.5,5.125 c 0,1.6374947 0.00911,2.1875 0.036217,2.1875 0.019919,0 0.5929659,-0.1817384 1.2734374,-0.4038631 z M 7.53125,5.09375 c 0,-1.8066884 -0.00728,-2.1875 -0.041843,-2.1875 -0.023014,0 -0.089811,0.036034 -0.1484375,0.080077 C 7.2823425,3.0303689 7.1078125,3.1497809 6.953125,3.2516866 6.7984375,3.3535922 6.64375,3.4562684 6.609375,3.4798556 6.5142462,3.5451313 6.0357525,3.8614866 5.6099484,4.140625 5.2848119,4.3537703 5.0117847,4.5373869 4.734375,4.7294666 4.7,4.7532681 4.5469841,4.8555156 4.39434,4.9566834 4.2416956,5.0578512 4.0961091,5.1546875 4.0708144,5.171875 4.0455194,5.1890625 3.8891603,5.2900891 3.7233494,5.3963787 3.2537597,5.6973991 3.1262987,5.7933806 3.1337384,5.8403725 3.1400212,5.8800569 3.5876703,6.0305819 6.90625,7.1089028 7.1898437,7.2010522 7.4464844,7.2775278 7.4765625,7.2788487 7.5281478,7.2811144 7.53125,7.1571647 7.53125,5.09375 Z"
       id="path819"
       inkscape:connector-curvature="0" />
  </g>
</svg>
