<?xml version="1.0" encoding="UTF-8" standalone="no"?>
<!-- Created with Inkscape (http://www.inkscape.org/) -->

<svg
   version="1.1"
   id="svg2"
   width="1600"
   height="1600"
   viewBox="0 0 1600 1600"
   sodipodi:docname="coutliner_data_camera.svg"
   inkscape:version="1.2.2 (732a01da63, 2022-12-09)"
   xmlns:inkscape="http://www.inkscape.org/namespaces/inkscape"
   xmlns:sodipodi="http://sodipodi.sourceforge.net/DTD/sodipodi-0.dtd"
   xmlns="http://www.w3.org/2000/svg"
   xmlns:svg="http://www.w3.org/2000/svg"
   xmlns:rdf="http://www.w3.org/1999/02/22-rdf-syntax-ns#"
   xmlns:cc="http://creativecommons.org/ns#"
   xmlns:dc="http://purl.org/dc/elements/1.1/">
  <metadata
     id="metadata8">
    <rdf:RDF>
      <cc:Work
         rdf:about="">
        <dc:format>image/svg+xml</dc:format>
        <dc:type
           rdf:resource="http://purl.org/dc/dcmitype/StillImage" />
      </cc:Work>
    </rdf:RDF>
  </metadata>
  <defs
     id="defs6" />
  <sodipodi:namedview
     pagecolor="#808080"
     bordercolor="#666666"
     borderopacity="1"
     objecttolerance="10"
     gridtolerance="10"
     guidetolerance="10"
     inkscape:pageopacity="0"
     inkscape:pageshadow="2"
     inkscape:window-width="1993"
     inkscape:window-height="1009"
     id="namedview4"
     showgrid="false"
     inkscape:zoom="0.5"
     inkscape:cx="-17"
     inkscape:cy="8"
     inkscape:window-x="-8"
     inkscape:window-y="-8"
     inkscape:window-maximized="1"
     inkscape:current-layer="OUTLINER_DATA_CAMERA"
     inkscape:showpageshadow="0"
     inkscape:pagecheckerboard="true"
     inkscape:deskcolor="#d1d1d1" />
  <g
     id="OUTLINER_DATA_CAMERA"
     transform="matrix(100,0,0,100,0,4.9999997e-5)"
     style="stroke-width:0.0114286">
    <path
       style="fill:none;stroke-width:0.000357143"
       d="M 0.00318067,11.007813 C 0.00592283,6.7038975 0.01218524,6.0500925 0.04860328,6.265625 0.28396027,7.6585356 1.2071117,8.8992363 2.484375,9.5392625 2.9072035,9.7511384 3.5564303,9.9512744 3.89712,9.9747666 c 0.04799,0.00331 -0.193995,0.014109 -0.537745,0.023999 -0.5809763,0.016715 -0.6360059,0.023393 -0.78125,0.0948 -0.198852,0.09776 -0.3862804,0.284974 -0.4851206,0.484559 -0.075982,0.153428 -0.077379,0.170077 -0.077379,0.921875 0,0.751798 0.0014,0.768447 0.077379,0.921875 0.098732,0.199367 0.2860571,0.386602 0.4851206,0.484889 0.1478231,0.07299 0.1902561,0.0777 0.7867853,0.08747 l 0.6305353,0.01032 0.010322,0.630536 c 0.00976,0.596529 0.014482,0.638962 0.087469,0.786785 0.098287,0.199063 0.2855218,0.386388 0.4848887,0.485121 l 0.15625,0.07738 H 7.5 10.265625 l 0.15625,-0.07738 c 0.299588,-0.148365 0.524302,-0.452332 0.567526,-0.767686 L 11.008495,14 h 0.822083 0.822084 l 1.021484,0.507813 1.021484,0.507812 0.300623,-4.84e-4 c 0.255606,-4.13e-4 0.324019,-0.012 0.456872,-0.07738 0.194815,-0.09587 0.38677,-0.285116 0.475731,-0.46901 l 0.06803,-0.140625 0.0016,0.835937 L 16,16 H 8 0 Z M 11.007038,9.4934856 11.015625,8.9869709 11.25,8.95014 C 12.206001,8.7999081 13.11119,8.3149891 13.798463,7.5849022 14.595259,6.7384694 15.008985,5.6841284 15.008985,4.5 c 0,-1.2387334 -0.438987,-2.3064014 -1.304796,-3.1734202 C 12.996576,0.61797897 12.211514,0.20833294 11.25,0.04598175 11.050538,0.01230266 11.386864,0.00593041 13.507813,0.00320383 L 16,0 15.998444,4.8515625 15.996888,9.703125 15.928859,9.5625 C 15.839859,9.3785175 15.647858,9.1892875 15.453128,9.093625 15.322326,9.029368 15.25048,9.016765 15.012002,9.016246 l -0.284875,-6.218e-4 -0.990405,0.4921875 -0.990405,0.4921875 h -0.873931 -0.873931 l 0.0086,-0.5065144 z M 0.00318067,2.4921875 0,0 4.9921875,0.00320383 C 9.1373109,0.00586404 9.9446069,0.01314016 9.75,0.04608577 8.8124922,0.20479951 7.9867134,0.63620431 7.2917116,1.3303491 L 6.9427981,1.6788322 6.5104616,1.4649325 C 5.8229425,1.1247806 5.2841619,1.0002513 4.5,1.0002513 c -0.2505738,0 -0.5788466,0.020552 -0.734375,0.045978 C 2.65543,1.2277189 1.6282989,1.8333269 0.95547481,2.703125 0.69854359,3.0352747 0.59633341,3.2020931 0.40978588,3.59375 0.23888644,3.9525538 0.11414116,4.3465028 0.04860328,4.734375 0.01126052,4.9553803 0.00599246,4.6953337 0.00318067,2.4921875 Z"
       id="path829"
       inkscape:connector-curvature="0" />
    <path
       style="fill:#fefefe;stroke-width:0.000357143"
       d="m 15.010002,4.5 c 0,-0.1117187 0.0057,-0.1574219 0.0126,-0.1015625 0.0069,0.055859 0.0069,0.1472656 0,0.203125 -0.0069,0.055859 -0.0126,0.010156 -0.0126,-0.1015625 z"
       id="path827"
       inkscape:connector-curvature="0" />
    <path
       style="fill:#cbcbcb;stroke-width:0.000357143"
       d="M 13.992188,13.529461 13,13.031057 v -1.00794 -1.007939 l 1.015625,-0.507526 1.015625,-0.507526 v 2.015562 c 0,1.108559 -0.01055,2.0148 -0.02344,2.013869 -0.01289,-9.31e-4 -0.469922,-0.225974 -1.015625,-0.500096 z M 10,12 v -1 h 0.5 0.5 v 1 1 H 10.5 10 Z M 3,11.5 V 11 H 4 5 V 11.5 12 H 4 3 Z M 4.1285103,6.9506078 C 3.3361416,6.7375131 2.8459467,5.9170816 3.0478497,5.1419234 3.2569144,4.33927 4.0760953,3.8441694 4.8580766,4.0478497 5.6583753,4.2563013 6.1557937,5.0762359 5.9533853,5.8533344 5.7424103,6.6633228 4.91352,7.1617234 4.1285103,6.9506078 Z M 5,5.5 V 5 H 4.5 4 V 5.5 6 H 4.5 5 Z m 5.12851,0.4506078 C 9.3361416,5.7375131 8.8459466,4.9170816 9.0478497,4.1419234 9.2569144,3.33927 10.076095,2.8441695 10.858077,3.0478498 11.658375,3.2563013 12.155794,4.0762359 11.953385,4.8533344 11.74241,5.6633228 10.91352,6.1617234 10.12851,5.9506078 Z M 11,4.5 V 4 H 10.5 10 V 4.5 5 h 0.5 0.5 z"
       id="path825"
       inkscape:connector-curvature="0" />
    <path
       style="fill:#989898;stroke-width:0.000357143"
       d="M 3.9375,8.95383 C 3.0484001,8.8029925 2.2455283,8.3188772 1.713275,7.6126684 0.90175162,6.5359159 0.77734131,5.1261775 1.3868714,3.9140713 2.0634607,2.5686123 3.5603163,1.8047559 5.0475828,2.0459836 5.7934928,2.1669667 6.5526103,2.5653022 7.03952,3.0912227 l 0.1725166,0.1863386 0.145569,-0.301099 C 7.6086637,2.4571664 7.9395837,2.0506251 8.3835175,1.716111 10.128602,0.40115056 12.638594,0.97612091 13.613128,2.9140714 14.128346,3.9386288 14.127823,5.0614581 13.61165,6.0892219 12.84864,7.6084656 11.047572,8.3578184 9.4289897,7.8294603 8.8923344,7.6542781 8.3163637,7.2931728 7.9604812,6.9087772 L 7.7879647,6.7224387 7.6423956,7.0235378 C 7.3913375,7.5428334 7.0604175,7.949375 6.6164837,8.2838891 5.855285,8.8574694 4.85054,9.1087291 3.9375012,8.95383 Z M 4.7908891,7.9662097 C 5.6565,7.8360597 6.34073,7.3525644 6.7110466,6.609375 c 0.3681659,-0.7388734 0.3681659,-1.4798766 0,-2.21875 C 6.4692659,3.9053944 6.0962387,3.5324737 5.609375,3.2892675 4.8717116,2.9207777 4.1297287,2.9206727 3.390625,3.288955 2.9053945,3.5307356 2.5324738,3.9037628 2.2892675,4.3906266 1.9207777,5.12829 1.9206727,5.8702728 2.2889534,6.6093766 2.6540197,7.3420291 3.33978,7.8318969 4.1875,7.9655891 c 0.2454494,0.038709 0.3493628,0.038817 0.6033891,6.218e-4 z m 5.9999999,-1 c 0.865611,-0.13015 1.549841,-0.6136453 1.920158,-1.3568347 0.368166,-0.7388734 0.368166,-1.4798766 0,-2.21875 C 12.469266,2.9053945 12.096239,2.5324738 11.609375,2.2892675 10.871712,1.9207777 10.129729,1.9206727 9.390625,2.2889534 8.9053944,2.5307342 8.5324737,2.9037611 8.2892675,3.390625 7.9207778,4.1282884 7.9206725,4.8702712 8.288955,5.609375 c 0.3650663,0.7326525 1.0508266,1.2225203 1.898547,1.3562125 0.245449,0.038709 0.349362,0.038817 0.603389,6.219e-4 z"
       id="path823"
       inkscape:connector-curvature="0" />
    <path
       style="fill:#656565;stroke-width:0.000357143"
       d="M 5,11.5 V 9 H 7.5 10 V 11.5 14 H 7.5 5 Z m 6,0.5 v -1 h 1 1 v 1 1 H 12 11 Z M 4.1875,7.9655875 C 3.33978,7.8318953 2.6540197,7.3420275 2.2889534,6.609375 1.9206727,5.8702712 1.9207777,5.1282884 2.2892675,4.390625 2.5324738,3.9037613 2.9053945,3.5307341 3.390625,3.2889534 4.1297287,2.9206727 4.8717116,2.9207777 5.609375,3.2892659 6.2190609,3.5938263 6.7023447,4.1711853 6.8844113,4.8124984 7.0625194,5.4398681 7.0069866,6.0154506 6.7110466,6.6093734 6.34073,7.3525628 5.6565,7.8360581 4.7908891,7.9662081 4.5368628,8.0044025 4.4329494,8.0042953 4.1875,7.9655863 Z M 4.8580766,6.9521503 C 5.3970516,6.811765 5.8122331,6.3952541 5.9533853,5.8533344 6.1557937,5.0762359 5.6583753,4.2563012 4.8580766,4.0478497 4.0760953,3.8441694 3.2569144,4.33927 3.0478498,5.1419234 2.7693224,6.2112622 3.7887378,7.2306775 4.8580766,6.9521503 Z M 4,5.5 V 5 H 4.5 5 V 5.5 6 H 4.5 4 Z m 6.1875,1.4655875 C 9.33978,6.8318953 8.6540197,6.3420275 8.2889534,5.609375 7.9206725,4.8702712 7.9207778,4.1282884 8.2892659,3.390625 8.5324722,2.9037611 8.9053928,2.5307342 9.3906234,2.2889534 10.129727,1.9206727 10.87171,1.9207777 11.609373,2.2892675 c 0.486864,0.2432063 0.859891,0.6161269 1.101672,1.1013575 0.368166,0.7388734 0.368166,1.4798765 0,2.21875 -0.370317,0.7431893 -1.054547,1.2266847 -1.920157,1.3568347 -0.254027,0.038194 -0.35794,0.038087 -0.60339,-6.219e-4 z M 10.858077,5.9521503 C 11.397052,5.811765 11.812233,5.3952541 11.953385,4.8533344 12.155794,4.0762359 11.658375,3.2563012 10.858077,3.0478497 10.076095,2.8441695 9.2569144,3.33927 9.0478497,4.1419234 8.7693225,5.2112622 9.7887378,6.2306775 10.858077,5.9521503 Z M 10,4.5 V 4 H 10.5 11 V 4.5 5 H 10.5 10 Z"
       id="path821"
       inkscape:connector-curvature="0" />
    <path
       style="fill:#323232;stroke-width:0.000357143"
       d="M 14.640625,14.97405 C 14.554685,14.94179 14.073141,14.709434 13.570521,14.4577 L 12.656667,14 h -0.824086 -0.824086 l -0.01909,0.13931 c -0.04322,0.315354 -0.267938,0.619321 -0.567526,0.767686 l -0.15625,0.07738 H 7.5 4.734375 l -0.15625,-0.07738 C 4.3787581,14.808263 4.1915228,14.620938 4.0932362,14.421875 4.0202497,14.274052 4.0155322,14.231619 4.0057672,13.63509 L 3.9954456,13.004554 3.3649103,12.994233 C 2.7683811,12.984468 2.7259481,12.97975 2.578125,12.906764 2.3790615,12.808477 2.1917365,12.621242 2.0930044,12.421875 2.0170225,12.268447 2.015625,12.251798 2.015625,11.5 c 0,-0.751798 0.0014,-0.768447 0.077379,-0.921875 0.09884,-0.199585 0.2862686,-0.386797 0.4851206,-0.484559 0.1452441,-0.07141 0.2002737,-0.07808 0.78125,-0.0948 0.34375,-0.00989 0.5857353,-0.02069 0.537745,-0.023999 C 3.8491296,9.971457 3.7051305,9.947117 3.5771221,9.920676 2.7317958,9.7460687 1.9368437,9.313685 1.3115793,8.6884206 0.68075634,8.0575978 0.26285424,7.2854316 0.07068937,6.3956031 -0.00767,6.0327566 -0.00767,4.9672434 0.07068937,4.6043969 0.26285424,3.7145684 0.68075634,2.9424023 1.3115793,2.3115793 1.9424023,1.6807563 2.7145685,1.2628542 3.6043969,1.0706894 3.9621531,0.99342934 5.0662728,0.99377312 5.40625,1.0712503 5.8214478,1.1658696 6.1630344,1.2891205 6.5570487,1.4864802 L 6.9422225,1.6794118 7.2914237,1.3306388 C 7.9433444,0.67951759 8.704085,0.26511811 9.6043969,0.07068927 c 0.3628465,-0.07835936 1.4283601,-0.07835936 1.7912061,0 0.889829,0.19216488 1.661995,0.61006698 2.292818,1.24088993 0.630823,0.630823 1.048725,1.4029892 1.24089,2.2928176 0.07836,0.3628465 0.07836,1.4283597 0,1.7912062 -0.192165,0.8898285 -0.610067,1.6619947 -1.24089,2.2928175 C 13.012277,8.3645641 12.149852,8.8109756 11.25,8.9506034 l -0.234375,0.036367 -0.0086,0.5065147 L 10.998452,10 h 0.873931 0.873931 L 13.736719,9.5078125 14.727124,9.015625 15.012,9.0162469 c 0.238477,5.187e-4 0.310323,0.013122 0.441125,0.077379 0.198714,0.097619 0.388265,0.2867893 0.477308,0.4763468 L 16,9.71807 v 2.297556 2.297557 l -0.06957,0.148096 c -0.08969,0.190941 -0.279968,0.379971 -0.477308,0.474184 -0.215602,0.102932 -0.593295,0.12087 -0.8125,0.03859 z M 15.03125,12.01553 V 9.9998106 L 14.031439,10.499905 13.031629,11 H 11.515814 10 V 10 9 H 7.5 5 v 1 1 H 4 3 v 0.5 0.5 h 1 1 v 1 1 H 7.5 10 V 13.5 13 l 1.476563,0.0013 1.476562,0.0013 1.015625,0.512854 c 0.558594,0.28207 1.026172,0.513526 1.039063,0.514346 0.01289,8.22e-4 0.02344,-0.905582 0.02344,-2.014228 z M 5.0475828,8.9540166 C 6.1876944,8.7690956 7.1415872,8.0594219 7.6423944,7.0235378 L 7.7879634,6.7224387 7.96048,6.9087772 C 8.3163625,7.2931728 8.8923331,7.6542781 9.4289884,7.8294603 10.827415,8.2859525 12.399275,7.7901628 13.286725,6.6126684 14.449666,5.0696456 14.146992,2.8696594 12.612668,1.713275 10.847177,0.38266525 8.3176378,0.99070406 7.3576056,2.9764623 L 7.2120366,3.2775612 7.03952,3.0912227 C 6.6836375,2.7068273 6.1076669,2.3457218 5.5710116,2.1705398 3.9504038,1.6415201 2.153036,2.3904834 1.3868714,3.9140713 0.87165375,4.9386288 0.87217694,6.0614581 1.3883508,7.0892219 2.0615188,8.4295794 3.5630802,9.1947956 5.0475827,8.9540166 Z"
       id="path819"
       inkscape:connector-curvature="0" />
  </g>
</svg>
