<?xml version="1.0" encoding="UTF-8" standalone="no"?>
<!-- Created with Inkscape (http://www.inkscape.org/) -->

<svg
   version="1.1"
   id="svg2"
   width="1600"
   height="1600"
   viewBox="0 0 1600 1600"
   sodipodi:docname="cube_grid_topology.svg"
   inkscape:version="1.4.3 (0d15f75, 2025-12-25)"
   inkscape:export-filename="VOLUME_CUBE.png"
   inkscape:export-xdpi="3072"
   inkscape:export-ydpi="3072"
   xml:space="preserve"
   xmlns:inkscape="http://www.inkscape.org/namespaces/inkscape"
   xmlns:sodipodi="http://sodipodi.sourceforge.net/DTD/sodipodi-0.dtd"
   xmlns="http://www.w3.org/2000/svg"
   xmlns:svg="http://www.w3.org/2000/svg"
   xmlns:rdf="http://www.w3.org/1999/02/22-rdf-syntax-ns#"
   xmlns:cc="http://creativecommons.org/ns#"
   xmlns:dc="http://purl.org/dc/elements/1.1/"><metadata
     id="metadata8"><rdf:RDF><cc:Work
         rdf:about=""><dc:format>image/svg+xml</dc:format><dc:type
           rdf:resource="http://purl.org/dc/dcmitype/StillImage" /></cc:Work></rdf:RDF></metadata><defs
     id="defs6" /><sodipodi:namedview
     pagecolor="#808080"
     bordercolor="#666666"
     borderopacity="1"
     objecttolerance="10"
     gridtolerance="10"
     guidetolerance="10"
     inkscape:pageopacity="0"
     inkscape:pageshadow="2"
     inkscape:window-width="1920"
     inkscape:window-height="1009"
     id="namedview4"
     showgrid="true"
     inkscape:zoom="0.32593203"
     inkscape:cx="791.57608"
     inkscape:cy="656.57861"
     inkscape:window-x="-8"
     inkscape:window-y="-8"
     inkscape:window-maximized="1"
     inkscape:current-layer="MESH_CUBE"
     inkscape:showpageshadow="0"
     inkscape:pagecheckerboard="1"
     inkscape:deskcolor="#d1d1d1"><inkscape:grid
       type="xygrid"
       id="grid10683"
       originx="0"
       originy="0"
       spacingy="100"
       spacingx="100"
       units="px" /></sodipodi:namedview><g
     id="MESH_CUBE"
     transform="matrix(100,0,0,100,0,4.9999997e-5)"
     style="display:inline;stroke-width:0.0114286;enable-background:new"
     inkscape:label="VOLUME_CUBE"><g
       id="g3"
       transform="translate(-0.35640082,-2.3200004)"
       inkscape:label="Grid"
       style="display:inline;stroke-width:0.0114286;enable-background:new"><path
         id="rect1"
         style="baseline-shift:baseline;display:inline;overflow:visible;vector-effect:none;fill:#323232;stroke-linecap:round;stroke-linejoin:round;paint-order:markers stroke fill;enable-background:accumulate;stop-color:#000000;stop-opacity:1"
         d="M 4.1230891,2.3199999 H 14.516912 c 0.998911,0 1.803088,0.8041776 1.803088,1.8030887 V 14.516911 C 16.32,15.515822 15.515823,16.32 14.516912,16.32 H 4.1230891 C 3.124178,16.32 2.3200004,15.515822 2.3200004,14.516911 V 4.1230886 c 0,-0.9989111 0.8041776,-1.8030887 1.8030887,-1.8030887 z" /><g
         id="rect2-2-5-7"
         transform="matrix(1.0716036,0,0,1.0716036,-0.77860787,-0.66768013)"
         style="stroke-width:0.0106649"><path
           style="fill:#cb6500;stroke-width:0.0106649;stroke-linecap:round;stroke-linejoin:round;paint-order:markers stroke fill"
           d="m 4.953125,3.3203125 c -0.8957377,0 -1.6328125,0.7370748 -1.6328125,1.6328125 V 7.6875 c 0,0.8957377 0.7370748,1.6328125 1.6328125,1.6328125 h 2.8398437 c 0.8957378,0 1.6308594,-0.7370748 1.6308594,-1.6328125 V 4.953125 c 0,-0.8957377 -0.7351216,-1.6328125 -1.6308594,-1.6328125 z m 0,1 h 2.8398437 c 0.3590371,0 0.6308594,0.2737753 0.6308594,0.6328125 V 7.6875 c 0,0.3590372 -0.2718223,0.6328125 -0.6308594,0.6328125 H 4.953125 C 4.5940879,8.3203125 4.3203125,8.0465372 4.3203125,7.6875 V 4.953125 c 0,-0.3590372 0.2737754,-0.6328125 0.6328125,-0.6328125 z"
           id="path10" /><path
           style="fill:#fecb32;stroke-width:0.0106649;stroke-linecap:round;stroke-linejoin:round;paint-order:markers stroke fill"
           d="m 4.9524665,3.8199978 h 2.8396153 c 0.6273874,0 1.1324683,0.5050809 1.1324683,1.1324683 v 2.7350672 c 0,0.6273874 -0.5050809,1.1324683 -1.1324683,1.1324683 H 4.9524665 c -0.6273874,0 -1.1324682,-0.5050809 -1.1324682,-1.1324683 V 4.9524661 c 0,-0.6273874 0.5050808,-1.1324683 1.1324682,-1.1324683 z"
           id="path11" /></g><g
         id="rect2-2-5-7-2"
         transform="matrix(1.0716036,0,0,1.0716036,-0.61860782,-0.66768013)"
         style="stroke-width:0.0106649"><path
           style="fill:#cb6500;stroke-width:0.0106649;stroke-linecap:round;stroke-linejoin:round;paint-order:markers stroke fill"
           d="m 10.900391,3.3203125 c -0.895738,0 -1.6328129,0.7370748 -1.6328129,1.6328125 V 7.6875 c 0,0.8957377 0.7370749,1.6328125 1.6328129,1.6328125 h 2.839843 c 0.895738,0 1.632813,-0.7370748 1.632813,-1.6328125 V 4.953125 c 0,-0.8957377 -0.737075,-1.6328125 -1.632813,-1.6328125 z m 0,1 h 2.839843 c 0.359037,0 0.632813,0.2737753 0.632813,0.6328125 V 7.6875 c 0,0.3590372 -0.273776,0.6328125 -0.632813,0.6328125 h -2.839843 c -0.359037,0 -0.632813,-0.2737753 -0.632813,-0.6328125 V 4.953125 c 0,-0.3590372 0.273776,-0.6328125 0.632813,-0.6328125 z"
           id="path8" /><path
           style="fill:#fecb32;stroke-width:0.0106649;stroke-linecap:round;stroke-linejoin:round;paint-order:markers stroke fill"
           d="m 10.900192,3.8199978 h 2.839616 c 0.627387,0 1.132468,0.5050809 1.132468,1.1324683 v 2.7350672 c 0,0.6273874 -0.505081,1.1324683 -1.132468,1.1324683 h -2.839616 c -0.627387,0 -1.132468,-0.5050809 -1.132468,-1.1324683 V 4.9524661 c 0,-0.6273874 0.505081,-1.1324683 1.132468,-1.1324683 z"
           id="path9" /></g><g
         id="rect2-2-5-7-2-7"
         transform="matrix(1.0716036,0,0,1.0716036,-0.61860782,-0.66768013)"
         style="stroke-width:0.0106649"><path
           style="fill:#cb6500;stroke-width:0.0106649;stroke-linecap:round;stroke-linejoin:round;paint-order:markers stroke fill"
           d="m 10.900391,9.3203125 c -0.895738,0 -1.6328129,0.7370745 -1.6328129,1.6328125 V 13.6875 c 0,0.895738 0.7370749,1.632812 1.6328129,1.632813 h 2.839843 c 0.895738,0 1.632813,-0.737075 1.632813,-1.632813 v -2.734375 c 0,-0.895738 -0.737075,-1.6328125 -1.632813,-1.6328125 z m 0,1.0000005 h 2.839843 c 0.359037,0 0.632813,0.273775 0.632813,0.632812 V 13.6875 c 0,0.359037 -0.273776,0.632813 -0.632813,0.632813 h -2.839843 c -0.359037,0 -0.632813,-0.273776 -0.632813,-0.632813 v -2.734375 c 0,-0.359037 0.273776,-0.632813 0.632813,-0.632812 z"
           id="path6" /><path
           style="fill:#fecb32;stroke-width:0.0106649;stroke-linecap:round;stroke-linejoin:round;paint-order:markers stroke fill"
           d="m 10.900192,9.8199978 h 2.839616 c 0.627387,0 1.132468,0.5050812 1.132468,1.1324682 v 2.735067 c 0,0.627388 -0.505081,1.132469 -1.132468,1.132469 h -2.839616 c -0.627387,0 -1.132468,-0.505081 -1.132468,-1.132469 v -2.735067 c 0,-0.627387 0.505081,-1.1324682 1.132468,-1.1324682 z"
           id="path7" /></g><g
         id="rect2-2-5-7-2-7-9"
         transform="matrix(1.0716036,0,0,1.0716036,-0.64256442,-0.66768013)"
         style="stroke-width:0.0106649"><path
           style="fill:#cb6500;stroke-width:0.0106649;stroke-linecap:round;stroke-linejoin:round;paint-order:markers stroke fill"
           d="m 4.8242187,9.3203125 c -0.8957377,0 -1.6308593,0.7370745 -1.6308593,1.6328125 V 13.6875 c 0,0.895738 0.7351216,1.632812 1.6308593,1.632813 h 2.8398438 c 0.8957377,0 1.6328125,-0.737075 1.6328125,-1.632813 v -2.734375 c 0,-0.895738 -0.7370748,-1.6328125 -1.6328125,-1.6328125 z m 0,1.0000005 h 2.8398438 c 0.3590371,0 0.6328125,0.273775 0.6328125,0.632812 V 13.6875 c 0,0.359037 -0.2737754,0.632813 -0.6328125,0.632813 H 4.8242187 c -0.359037,0 -0.6308593,-0.273776 -0.6308593,-0.632813 v -2.734375 c 0,-0.359037 0.2718223,-0.632813 0.6308593,-0.632812 z"
           id="path4" /><path
           style="fill:#fecb32;stroke-width:0.0106649;stroke-linecap:round;stroke-linejoin:round;paint-order:markers stroke fill"
           d="m 4.8250043,9.8199978 h 2.8396154 c 0.6273874,0 1.1324682,0.5050812 1.1324682,1.1324682 v 2.735067 c 0,0.627388 -0.5050808,1.132469 -1.1324682,1.132469 H 4.8250043 c -0.6273874,0 -1.1324682,-0.505081 -1.1324682,-1.132469 v -2.735067 c 0,-0.627387 0.5050808,-1.1324682 1.1324682,-1.1324682 z"
           id="path5" /></g></g><path
       inkscape:connector-curvature="0"
       id="path827-666"
       d="M 0,8 V 0 h 8 8 v 8 8 H 8 0 Z m 11.326467,6.00029 c 3.319702,-1.106746 3.322552,-1.107867 3.51104,-1.381855 0.206207,-0.299746 0.193743,-0.0036 0.193743,-4.60281 0,-4.5991825 0.01246,-4.3030644 -0.193743,-4.60281 C 14.649019,3.1388275 14.646169,3.1377059 11.326467,2.0309595 8.4439647,1.0699703 8.2195475,1.0000958 8.015625,1.0000958 c -0.2039225,0 -0.4283397,0.069875 -3.3108416,1.0308637 C 1.3850808,3.1377059 1.3822313,3.1388275 1.1937435,3.412815 0.98753566,3.7125606 1,3.4164425 1,8.015625 c 0,4.599183 -0.0124643,4.303064 0.1937435,4.60281 0.1884878,0.273988 0.1913373,0.275109 3.5110399,1.381855 2.8825019,0.96099 3.1069191,1.030864 3.3108416,1.030864 0.2039225,0 0.4283397,-0.06987 3.310842,-1.030864 z"
       style="fill:#ffffff;fill-opacity:0;stroke-width:0.000357143" /><g
       id="RELAX_TOPOLOGY"
       style="stroke-width:0.0100065"
       transform="matrix(0.99934891,0,0,0.99934891,-1.0074381,0.9850909)"><path
         style="fill:none;stroke-width:0.000312908"
         d="M 8.005212,16.010424 H 0 V 8.005212 0 h 8.005212 8.005212 v 8.005212 8.005212 z m -5.4867004,-1.002709 0.1888699,0.0021 0.1790822,-0.04665 0.1790823,-0.04664 0.1619572,-0.08207 0.161957,-0.08207 0.1796232,-0.171332 0.1796232,-0.171331 0.1034968,-0.200164 0.1034971,-0.200164 h 4.0807819 4.0807816 l 0.103497,0.200164 0.103497,0.200164 0.179623,0.171331 0.179623,0.171332 0.161957,0.08207 0.161958,0.08207 0.179082,0.04664 0.179082,0.04665 h 0.174483 0.174482 l 0.179082,-0.04665 0.179082,-0.04664 0.161958,-0.08207 0.161957,-0.08207 0.17779,-0.169583 0.17779,-0.169583 0.09654,-0.181122 0.09654,-0.181123 0.04788,-0.183827 0.04788,-0.183827 v -0.174483 -0.174482 l -0.04788,-0.183828 -0.04788,-0.183827 -0.09654,-0.181122 -0.09654,-0.181122 -0.17779,-0.169583 -0.17779,-0.169583 -0.161957,-0.08207 -0.161958,-0.08207 -0.179082,-0.04664 -0.179082,-0.04664 -0.173235,7.66e-4 -0.173234,7.63e-4 -0.139086,0.03205 -0.139086,0.03205 L 10.910861,9.8945743 8.7318138,7.7156944 8.5933274,7.8109759 8.454841,7.9062569 8.2910562,7.9598281 8.1272712,8.0133995 7.9177075,7.9979992 7.7081436,7.9825985 7.5517918,7.9089106 7.39544,7.8352226 7.2498393,7.6901125 7.1042388,7.5450024 6.3793638,6.0943254 5.6544887,4.6436487 4.8113879,3.7976144 3.9682871,2.9515802 4.0003173,2.8125982 4.0323476,2.673616 4.0331105,2.5003813 4.0338767,2.3271466 3.9872316,2.1480644 3.9405866,1.9689822 3.8585169,1.8070251 3.7764469,1.6450679 3.606864,1.467278 3.4372811,1.2894881 3.2561588,1.1929509 3.0750365,1.0964137 2.8912088,1.0485324 2.7073815,1.0006515 H 2.5328991 2.3584167 L 2.1745894,1.0485325 1.9907621,1.0964135 1.8096397,1.1929505 1.6285173,1.2894875 1.4589345,1.4672774 1.2893516,1.6450673 1.2072816,1.8070245 1.1252116,1.9689816 1.0785666,2.1480638 1.0319216,2.327146 v 0.1744825 0.1744824 l 0.046645,0.1790822 0.046645,0.1790822 0.08207,0.1619573 0.08207,0.161957 0.1713315,0.1796232 0.1713315,0.1796232 0.2001637,0.1034967 0.2001638,0.1034971 v 4.0807819 4.0807823 l -0.2001638,0.103497 -0.2001637,0.103497 -0.1713315,0.179623 -0.1713315,0.179623 -0.08207,0.161957 -0.08207,0.161957 -0.046645,0.179083 -0.046645,0.179082 v 0.174482 0.174483 l 0.046645,0.179082 0.046645,0.179082 0.08207,0.161957 0.08207,0.161957 0.1695829,0.17779 0.1695828,0.17779 0.1820877,0.09705 0.1820878,0.09705 0.1684745,0.04531 0.1684745,0.04531 0.1888698,0.0021 z M 9.4905878,4.0025413 10.999417,0.98501632 7.9962824,0.97704163 4.9931481,0.96906694 4.9808088,0.98140628 4.9684695,0.99374563 6.4751145,4.006906 7.9817592,7.0200659 Z"
         id="path744" /><path
         style="fill:#fefefe;stroke-width:0.000312908"
         d="M 2.5328991,14.009121 H 2.0325734 V 13.508795 13.00847 h 0.5003257 0.5003258 v 0.500325 0.500326 z m 5.5035833,0 H 3.9492266 l 0.042325,-0.163167 0.042325,-0.163166 V 13.508795 13.334803 L 3.9915516,13.171636 3.9492266,13.00847 h 4.0872558 4.0872556 l -0.04232,0.163166 -0.04232,0.163167 v 0.173992 0.173993 l 0.04232,0.163166 0.04232,0.163167 z m 5.5035836,0 H 13.03974 V 13.508795 13.00847 h 0.500326 0.500325 v 0.500325 0.500326 z M 12.196147,12.8162 12.179805,12.811553 7.7004164,8.3203309 3.2210274,3.8291087 3.3302539,3.7702863 3.43948,3.7114643 3.6099525,3.5327416 3.7804251,3.3540187 3.8676297,3.170169 3.954834,2.9863193 3.964274,2.9720973 3.973714,2.9578753 4.8034499,3.7851264 C 7.0723115,6.0471937 10.901405,9.885125 10.901405,9.885125 l 2.169598,2.16943 -5.35e-4,0.01572 -5.34e-4,0.01572 -0.177108,0.07672 -0.177107,0.07672 -0.191571,0.179206 -0.191571,0.179205 -0.06005,0.111503 -0.06005,0.111504 -0.01634,-0.0046 z M 2.1957398,12.050143 2.0325734,12.092468 V 8.005212 3.9179562 l 0.1631664,0.042325 0.1631666,0.042325 H 2.5328991 2.7068919 L 2.8700584,3.9602813 3.0332249,3.9179562 V 8.005212 12.092468 L 2.8700584,12.050143 2.7068919,12.007818 H 2.5328991 2.3589064 Z M 2.5328991,3.0019545 H 2.0325734 V 2.5016288 2.001303 h 0.5003257 0.5003258 v 0.5003258 0.5003257 z"
         id="path742"
         sodipodi:nodetypes="cccccccccccccccccccccccccccccccccccccccccccccccccccccccccccccccccccccccccccccccccccccc" /><path
         style="fill:#fe9832;stroke-width:0.000312908"
         d="M 8.0392804,13.008354 3.9557005,13.008238 3.8522034,12.808074 3.7487066,12.607911 3.566998,12.43459 3.3852891,12.261269 3.209257,12.174935 3.0332249,12.088601 V 8.0024915 3.9163824 l 0.096626,-0.040024 0.096626,-0.040024 4.2362979,4.2342759 4.2362972,4.2342757 0.248864,0.270654 0.248863,0.270653 -0.03697,0.08114 -0.03697,0.08114 -4.0835803,-1.26e-4 z"
         id="path738" /><path
         style="fill:#323232;stroke-width:0.000312908"
         d="m 2.5185116,15.007715 -0.1888698,-0.0021 -0.1684745,-0.04531 -0.1684745,-0.04531 -0.1820878,-0.09705 -0.1820877,-0.09705 -0.1695828,-0.17779 -0.1695829,-0.17779 -0.08207,-0.161957 -0.08207,-0.161957 -0.046645,-0.179082 -0.046645,-0.179082 v -0.174483 -0.174482 l 0.047881,-0.183828 0.047881,-0.183827 0.096537,-0.181122 0.096537,-0.181122 0.1777899,-0.169583 0.1777899,-0.169583 0.1619571,-0.08207 0.1619572,-0.08207 0.1790822,-0.04664 0.1790822,-0.04664 h 0.1744824 0.1744824 l 0.1838273,0.04788 0.1838273,0.04788 0.1811223,0.09654 0.1811223,0.09654 0.169583,0.17779 0.1695829,0.17779 0.08207,0.161957 0.08207,0.161957 0.046645,0.179083 0.046645,0.179082 v 0.174482 0.174483 l -0.046645,0.179082 -0.046645,0.179082 -0.08207,0.161957 -0.08207,0.161957 -0.1695829,0.17779 -0.169583,0.17779 -0.1811223,0.09654 -0.1811223,0.09654 -0.1838273,0.04788 -0.1838273,0.04788 z m 0.014387,-0.998594 H 3.0332249 V 13.508795 13.00847 H 2.5328991 2.0325734 v 0.500325 0.500326 z m 10.9927794,0.998594 -0.18887,-0.0021 -0.168474,-0.04531 -0.168475,-0.04531 -0.182087,-0.09705 -0.182088,-0.09705 -0.169583,-0.17779 -0.169583,-0.17779 -0.08207,-0.161957 -0.08207,-0.161958 -0.04664,-0.179082 -0.04664,-0.179082 v -0.174483 -0.174482 l 0.04788,-0.183828 0.04788,-0.183827 0.09654,-0.181122 0.09654,-0.181122 0.17779,-0.169583 0.17779,-0.169583 0.161956,-0.08207 0.161958,-0.08207 0.179082,-0.04664 0.179082,-0.04664 h 0.174483 0.174482 l 0.183827,0.04788 0.183828,0.04788 0.181122,0.09654 0.181122,0.09654 0.169583,0.17779 0.169583,0.17779 0.08207,0.161957 0.08207,0.161957 0.04664,0.179083 0.04664,0.179082 v 0.174482 0.174483 l -0.04664,0.179082 -0.04664,0.179082 -0.08207,0.161957 -0.08207,0.161957 -0.169583,0.17779 -0.169583,0.17779 -0.181122,0.09654 -0.181122,0.09654 -0.183828,0.04788 -0.183827,0.04788 -0.18887,-0.0021 z m 0.01439,-0.998594 h 0.500325 V 13.508795 13.00847 H 13.540066 13.03974 v 0.500325 0.500326 z M 2.5185116,4.0005481 2.3296418,3.9984902 2.1611673,3.9531816 1.9926928,3.9078731 1.810605,3.8108214 1.6285173,3.7137698 1.4589345,3.5359797 1.2893516,3.3581899 1.2072817,3.1962329 1.1252118,3.0342756 1.0785669,2.8551934 1.0319219,2.6761112 V 2.5016288 2.3271463 L 1.0798028,2.143319 1.1276837,1.9594917 1.2242209,1.7783694 1.3207582,1.597247 1.4985481,1.4276641 1.676338,1.2580813 l 0.1619571,-0.08207 0.1619572,-0.08207 0.1790822,-0.046645 0.1790822,-0.046645 h 0.1744824 0.1744824 l 0.1838273,0.047881 0.1838273,0.047881 0.1811223,0.096537 0.1811223,0.096537 0.169583,0.1777899 0.1695829,0.1777899 0.08207,0.1619572 0.08207,0.1619571 0.046645,0.1790822 0.046645,0.1790822 v 0.1744825 0.1744824 l -0.046645,0.1790822 -0.046645,0.1790822 -0.08207,0.1619573 -0.08207,0.161957 L 3.6068637,3.5359797 3.4372807,3.7137698 3.2561584,3.810307 3.0750361,3.9068443 2.8912088,3.9547251 2.7073815,4.002606 Z M 2.5328991,3.0019545 H 3.0332249 V 2.5016288 2.001303 H 2.5328991 2.0325734 v 0.5003258 0.5003257 z"
         id="path736" /></g></g></svg>
