<?xml version="1.0" encoding="UTF-8" standalone="no"?>
<!-- Created with Inkscape (http://www.inkscape.org/) -->

<svg
   version="1.1"
   id="svg2"
   width="1600"
   height="1600"
   viewBox="0 0 1600 1600"
   sodipodi:docname="current_file.svg"
   inkscape:version="1.2.2 (732a01da63, 2022-12-09)"
   xmlns:inkscape="http://www.inkscape.org/namespaces/inkscape"
   xmlns:sodipodi="http://sodipodi.sourceforge.net/DTD/sodipodi-0.dtd"
   xmlns="http://www.w3.org/2000/svg"
   xmlns:svg="http://www.w3.org/2000/svg">
  <defs
     id="defs6" />
  <sodipodi:namedview
     id="namedview4"
     pagecolor="#808080"
     bordercolor="#000000"
     borderopacity="0.25"
     inkscape:showpageshadow="2"
     inkscape:pageopacity="0"
     inkscape:pagecheckerboard="true"
     inkscape:deskcolor="#d1d1d1"
     showgrid="false"
     inkscape:zoom="0.5"
     inkscape:cx="424"
     inkscape:cy="542"
     inkscape:window-width="2560"
     inkscape:window-height="1009"
     inkscape:window-x="-8"
     inkscape:window-y="-8"
     inkscape:window-maximized="1"
     inkscape:current-layer="g8" />
  <g
     inkscape:groupmode="layer"
     inkscape:label="Image"
     id="g8"
     transform="matrix(1.1428571,0,0,1.1428571,-114.28571,3506.2857)"
     style="stroke-width:0.875">
    <g
       id="CURRENT_FILE"
       transform="matrix(87.5,0,0,87.5,100,-3068)"
       style="stroke-width:0.01">
      <path
         style="fill:none;stroke-width:0.0003125"
         d="M 0,8 V 0 h 8 8 v 8 8 H 8 0 Z m 13.269218,7.419944 c 0.04746,-0.03544 0.115289,-0.103261 0.150726,-0.150721 0.06394,-0.08563 0.06449,-0.11019 0.07249,-3.201194 l 0.0081,-3.114904 -2.394067,2.40625 c -1.3167366,1.323438 -2.4453607,2.462822 -2.5080538,2.531966 -0.1802031,0.198745 -0.3720728,0.267155 -1.1764872,0.41947 -0.103125,0.01953 -0.2859375,0.05647 -0.40625,0.0821 -0.4792184,0.102077 -0.6704431,0.141014 -1,0.203619 -0.1890625,0.03592 -0.4773438,0.09276 -0.640625,0.126314 -0.8832731,0.181524 -1.1961509,0.193361 -1.484375,0.05616 C 3.5419122,14.61298 3.3429001,14.303 3.3195766,13.889463 c -0.013896,-0.246381 0.00585,-0.376547 0.1941963,-1.280081 0.02508,-0.120312 0.060431,-0.296094 0.078558,-0.390625 0.036107,-0.188297 0.2242069,-1.127688 0.3003531,-1.5 C 3.9949609,10.218423 4.0423016,10.040669 4.1173466,9.875 4.1849941,9.7256616 4.5358169,9.3625225 6.7929137,7.1055044 8.9997378,4.8987569 9.4147347,4.4973084 9.5508509,4.437605 9.6901359,4.3765119 9.7203022,4.3463859 9.7816641,4.2071009 9.8384509,4.0782003 10.014852,3.8843975 10.683938,3.2158166 11.657993,2.2424971 11.668506,2.2353449 12.125,2.2353449 c 0.408118,0 0.507709,0.052864 0.993306,0.5272524 l 0.383931,0.3750696 -0.0089,-1.1603372 C 13.484717,0.86145509 13.481906,0.81368747 13.419944,0.73073969 13.384507,0.68330059 13.316681,0.61549287 13.269219,0.58005591 13.183104,0.51575841 13.173369,0.51560644 8.568025,0.50666719 6.02983,0.50174041 3.9039063,0.50622009 3.84375,0.51662209 3.7504303,0.53275856 3.501275,0.76802122 2.1463993,2.1193299 1.2730127,2.9904172 0.54454106,3.7281875 0.52757344,3.7588194 c -0.0438742,0.079207 -0.0374348,11.3048176 0.006551,11.4209196 0.0435967,0.115074 0.14844204,0.225315 0.26275013,0.276272 0.0774028,0.0345 1.16545463,0.04062 6.23989813,0.03508 l 6.1461493,-0.0067 z M 4.5625,13.84081 c 0.077344,-0.01796 0.1898437,-0.03894 0.25,-0.04661 0.060156,-0.0077 0.1515625,-0.02759 0.203125,-0.04426 0.051563,-0.01667 0.1555369,-0.03796 0.2310544,-0.04731 0.075518,-0.0093 0.147324,-0.02319 0.1595706,-0.03075 0.012247,-0.0076 0.081961,-0.02126 0.1549209,-0.03043 0.07296,-0.0092 0.1420753,-0.02249 0.1535897,-0.02961 0.011514,-0.0071 0.083919,-0.02183 0.1608997,-0.03271 0.076981,-0.01087 0.1631091,-0.02658 0.1913969,-0.0349 0.028288,-0.0083 0.091569,-0.02128 0.140625,-0.02879 0.049056,-0.0075 0.152474,-0.02912 0.2298178,-0.048 0.077344,-0.01889 0.1757812,-0.03979 0.21875,-0.04644 0.1239047,-0.0192 0.2608769,-0.04702 0.3212022,-0.06524 0.030567,-0.0092 0.098829,-0.02226 0.1516928,-0.02895 0.052864,-0.0067 0.12117,-0.02012 0.1517916,-0.02984 0.030621,-0.0097 0.1100159,-0.02453 0.1764318,-0.03292 0.066416,-0.0084 0.1442425,-0.0226 0.1729475,-0.03159 0.07604,-0.0238 0.1919041,-0.04957 0.2368716,-0.05268 0.021484,-0.0015 0.039063,-0.0179 0.039063,-0.03648 0,-0.01858 1.11095,-1.144796 2.4687775,-2.502705 L 12.843806,8.1716728 11.421875,6.7500003 9.999945,5.3283275 7.5149866,7.8126012 c -2.6317885,2.6310628 -2.5228272,2.5104868 -2.564096,2.8374328 -0.00802,0.06358 -0.021943,0.139077 -0.030929,0.167782 -0.020072,0.06412 -0.045146,0.17693 -0.057856,0.260309 -0.00524,0.03438 -0.032777,0.175 -0.061193,0.3125 -0.076445,0.369902 -0.081666,0.396439 -0.1014431,0.515625 -0.00998,0.06016 -0.023606,0.118281 -0.030275,0.129166 -0.00667,0.01089 -0.02016,0.07417 -0.029981,0.140625 -0.00982,0.06646 -0.024505,0.143837 -0.032633,0.171952 -0.00813,0.02812 -0.021594,0.105459 -0.029925,0.171875 -0.00833,0.06642 -0.028764,0.162944 -0.045406,0.214507 -0.016642,0.05156 -0.037074,0.14809 -0.045406,0.214507 -0.00833,0.06642 -0.0231,0.14581 -0.032818,0.176431 -0.00972,0.03062 -0.023145,0.09893 -0.029835,0.151792 -0.00669,0.05286 -0.019718,0.121126 -0.02895,0.151693 -0.016694,0.05527 -0.035638,0.150688 -0.068426,0.34464 -0.019638,0.116169 0.00113,0.122082 0.2366859,0.06737 z M 14.258007,6.7576234 14.968629,6.0464969 13.546878,4.6250028 12.125126,3.2035088 11.406249,3.9218756 10.687373,4.6402428 12.10137,6.0544963 c 0.777698,0.7778396 1.421201,1.4142537 1.430006,1.4142537 0.0088,0 0.335789,-0.3200069 0.726631,-0.7111266 z"
         id="path857" />
      <path
         style="fill:#fefefe;stroke-width:0.0003125"
         d="M 1,9.75 V 4.5 H 2.75 4.5 V 2.75 1 H 8.75 13 V 1.8151558 2.6303117 L 12.858323,2.505603 C 12.612936,2.2896043 12.465708,2.2353449 12.125,2.2353449 c -0.456494,0 -0.467007,0.00715 -1.441062,0.9804717 C 10.014852,3.8843975 9.8384509,4.0782003 9.7816641,4.2071009 9.7203022,4.3463859 9.6901359,4.3765119 9.5508509,4.437605 9.4147347,4.4973084 8.9997378,4.8987569 6.7929138,7.1055044 4.5358169,9.3625225 4.1849941,9.7256616 4.1173466,9.875 c -0.075045,0.165669 -0.1223857,0.343423 -0.2247135,0.84375 -0.076146,0.372312 -0.2642456,1.311703 -0.3003531,1.5 -0.018127,0.09453 -0.053478,0.270312 -0.078558,0.390625 -0.188345,0.903534 -0.2080922,1.0337 -0.1941963,1.280081 0.023324,0.413536 0.2223357,0.723517 0.5710994,0.889541 0.2882241,0.137205 0.6011019,0.125368 1.484375,-0.05616 0.1632813,-0.03356 0.4515625,-0.0904 0.640625,-0.126314 0.3295569,-0.0626 0.5207816,-0.101542 1,-0.203619 0.1203125,-0.02563 0.303125,-0.06257 0.40625,-0.0821 0.8044006,-0.152312 0.9962641,-0.220719 1.1765119,-0.41947 0.062707,-0.06914 1.0786931,-1.096028 2.257747,-2.281966 l 2.143736,-2.15625 6.3e-5,2.773438 L 13,15 H 7 1 Z M 2.4765457,2.5078125 C 3.3057188,1.6785156 3.9877034,1 3.9920666,1 3.99643,1 4,1.6747362 4,2.4994139 v 1.4994139 l -1.515521,0.0084 -1.51552103,0.0084 z"
         id="path855" />
      <path
         style="fill:#656565;stroke-width:0.0003125"
         d="M 1,4.25 V 4 H 2.5 4 V 2.5 1 H 4.25 4.5 V 2.75 4.5 H 2.75 1 Z"
         id="path853" />
      <path
         style="fill:#009800;stroke-width:0.0003125"
         d="m 4.3258141,13.773438 c 0.032788,-0.193952 0.051732,-0.289366 0.068426,-0.34464 0.00923,-0.03057 0.02226,-0.09883 0.02895,-0.151693 0.00669,-0.05286 0.020116,-0.12117 0.029835,-0.151792 0.00972,-0.03062 0.024487,-0.110016 0.032818,-0.176431 0.00833,-0.06642 0.028764,-0.162945 0.045406,-0.214507 0.016642,-0.05156 0.037074,-0.14809 0.045406,-0.214507 0.00833,-0.06642 0.021797,-0.143759 0.029925,-0.171875 0.00813,-0.02812 0.022812,-0.105493 0.032633,-0.171952 0.00982,-0.06646 0.023312,-0.12974 0.029981,-0.140625 0.00667,-0.01089 0.020293,-0.06901 0.030275,-0.129166 0.019778,-0.119186 0.024998,-0.145723 0.1014431,-0.515625 0.028416,-0.1375 0.055953,-0.278125 0.061193,-0.3125 0.01271,-0.08338 0.037784,-0.196191 0.057856,-0.260309 0.00899,-0.02871 0.022904,-0.104207 0.030929,-0.167782 0.041269,-0.326947 -0.067692,-0.20637 2.564096,-2.8374328 L 9.9999446,5.3283275 11.421875,6.7500003 12.843806,8.1716728 10.375028,10.640597 C 9.0172,11.998506 7.90625,13.124723 7.90625,13.143303 c 0,0.01858 -0.017578,0.035 -0.039063,0.03648 -0.044968,0.0031 -0.1608319,0.02888 -0.2368716,0.05268 -0.028705,0.009 -0.1065312,0.0232 -0.1729475,0.03159 -0.066416,0.0084 -0.1458103,0.0232 -0.1764318,0.03292 -0.030622,0.0097 -0.098928,0.02314 -0.1517916,0.02984 -0.052864,0.0067 -0.1211256,0.01972 -0.1516928,0.02895 -0.060325,0.01822 -0.1972975,0.04604 -0.3212022,0.06524 -0.042969,0.0067 -0.1414063,0.02756 -0.21875,0.04644 -0.077344,0.01888 -0.1807619,0.04049 -0.2298178,0.048 -0.049056,0.0075 -0.1123375,0.02047 -0.140625,0.02879 -0.028288,0.0083 -0.1144163,0.02403 -0.1913969,0.0349 -0.076981,0.01087 -0.1493856,0.02559 -0.1608997,0.03271 -0.011514,0.0071 -0.08063,0.02044 -0.1535897,0.02961 -0.07296,0.0092 -0.1426743,0.02286 -0.1549209,0.03043 -0.012247,0.0076 -0.084053,0.02141 -0.1595706,0.03075 -0.075517,0.0093 -0.1794919,0.03064 -0.2310544,0.04731 -0.051563,0.01667 -0.1429687,0.03659 -0.203125,0.04426 -0.060156,0.0077 -0.1726563,0.02864 -0.25,0.04661 -0.2355516,0.05471 -0.2563244,0.0488 -0.2366859,-0.06737 z M 12.10137,6.0544962 10.687372,4.6402428 11.406249,3.9218756 12.125126,3.2035087 13.546878,4.6250028 14.968629,6.0464969 14.258007,6.7576234 C 13.867165,7.1487431 13.540181,7.46875 13.531376,7.46875 c -0.0088,0 -0.652308,-0.6364141 -1.430006,-1.4142538 z"
         id="path851" />
      <path
         style="fill:#323232;stroke-width:0.0003125"
         d="M 0.796875,15.456011 C 0.68256691,15.405054 0.57772156,15.294813 0.53412488,15.179739 0.49013859,15.063637 0.48369919,3.8380263 0.52757344,3.7588194 0.54454106,3.7281875 1.2730127,2.9904172 2.1463993,2.1193299 3.501275,0.76802122 3.7504303,0.53275856 3.84375,0.51662209 c 0.060156,-0.010402 2.18608,-0.0148817 4.724275,-0.009955 4.605344,0.008939 4.615079,0.009091 4.701194,0.0733887 0.04746,0.035437 0.115288,0.10324468 0.150725,0.15068378 0.06197,0.0829607 0.06477,0.13059744 0.07324,1.24806913 L 13.501989,3.140625 13.250995,2.8913581 13,2.6420913 V 1.8210456 1 H 8.4923072 3.9846141 L 2.4844946,2.499879 0.984375,3.9997581 0.99236037,9.4998791 1.0003457,15 H 7.0001728 13 V 12.225829 9.4516588 l 0.250449,-0.2489807 0.25045,-0.2489806 -0.0083,3.1146185 c -0.0082,3.090551 -0.0088,3.115284 -0.07269,3.200907 -0.03544,0.04746 -0.103264,0.115284 -0.150726,0.150721 l -0.0863,0.06443 -6.1461489,0.0067 c -5.0744435,0.0055 -6.16249529,-5.73e-4 -6.2398981,-0.03508 z"
         id="path849" />
    </g>
  </g>
</svg>
