<?xml version="1.0" encoding="UTF-8" standalone="no"?>
<!-- Created with Inkscape (http://www.inkscape.org/) -->

<svg
   version="1.1"
   id="svg2"
   width="1600"
   height="1600"
   viewBox="0 0 1600 1600"
   sodipodi:docname="curve_resample.svg"
   inkscape:version="1.2.2 (732a01da63, 2022-12-09)"
   xmlns:inkscape="http://www.inkscape.org/namespaces/inkscape"
   xmlns:sodipodi="http://sodipodi.sourceforge.net/DTD/sodipodi-0.dtd"
   xmlns="http://www.w3.org/2000/svg"
   xmlns:svg="http://www.w3.org/2000/svg"
   xmlns:rdf="http://www.w3.org/1999/02/22-rdf-syntax-ns#"
   xmlns:cc="http://creativecommons.org/ns#"
   xmlns:dc="http://purl.org/dc/elements/1.1/">
  <metadata
     id="metadata8">
    <rdf:RDF>
      <cc:Work
         rdf:about="">
        <dc:format>image/svg+xml</dc:format>
        <dc:type
           rdf:resource="http://purl.org/dc/dcmitype/StillImage" />
      </cc:Work>
    </rdf:RDF>
  </metadata>
  <defs
     id="defs6" />
  <sodipodi:namedview
     pagecolor="#808080"
     bordercolor="#666666"
     borderopacity="1"
     objecttolerance="10"
     gridtolerance="10"
     guidetolerance="10"
     inkscape:pageopacity="0"
     inkscape:pageshadow="2"
     inkscape:window-width="1993"
     inkscape:window-height="1009"
     id="namedview4"
     showgrid="false"
     inkscape:zoom="0.5"
     inkscape:cx="769"
     inkscape:cy="584"
     inkscape:window-x="-8"
     inkscape:window-y="-8"
     inkscape:window-maximized="1"
     inkscape:current-layer="CURVE_RESAMPLE"
     inkscape:showpageshadow="0"
     inkscape:pagecheckerboard="true"
     inkscape:deskcolor="#d1d1d1" />
  <g
     id="CURVE_RESAMPLE"
     transform="matrix(100,0,0,100,0,4.9999997e-5)"
     style="stroke-width:0.0114286">
    <path
       style="fill:none;stroke-width:0.000357143"
       d="M 0,8 V 0 h 8 8 v 8 8 H 8 0 Z m 4.421875,6.953145 c 0.3636512,-0.07609 0.7095447,-0.268277 0.9930237,-0.551756 0.1838397,-0.18384 0.266155,-0.245222 0.3291829,-0.24547 0.046224,-1.87e-4 0.2608784,-0.02763 0.4770103,-0.06099 2.487215,-0.383948 4.4804521,-1.404703 5.8471081,-2.994361 0.15193,-0.17672 0.326873,-0.397575 0.388763,-0.490788 0.100357,-0.151149 0.144805,-0.18518 0.410952,-0.314654 0.99301,-0.4830708 1.411073,-1.6746849 0.930984,-2.6536014 C 13.739653,7.5207159 13.670568,7.3867187 13.645378,7.34375 13.615756,7.29322 13.587448,7.0945369 13.565234,6.78125 13.499721,5.8573009 13.246298,5.0965616 12.759214,4.3616956 12.511806,3.9884297 11.891553,3.3382925 11.506094,3.0482016 10.857887,2.5603688 9.9560797,2.1605249 9.0351697,1.9526418 L 8.6860319,1.8738286 8.4289534,1.6140468 C 8.2244634,1.4074064 8.1175384,1.3275042 7.90625,1.2234447 7.1042741,0.82847138 6.2134347,0.97027759 5.5918559,1.5918561 c -0.787539,0.7875392 -0.787539,2.0287486 0,2.816288 0.7273122,0.7273118 1.8747778,0.7881684 2.66867,0.141534 l 0.18168,-0.1479803 0.2827919,0.081118 c 0.5479544,0.1571794 1.0681984,0.4226475 1.4422282,0.7359341 0.396114,0.3317853 0.747935,0.9228822 0.847379,1.4236903 0.01757,0.088461 0.006,0.1045372 -0.156246,0.2162453 -0.394344,0.2715956 -0.71431,0.7563681 -0.815182,1.2350644 -0.068422,0.3246981 -0.043327,0.7197788 0.0669,1.0532325 L 10.194819,9.40334 10.042722,9.5820153 C 9.9590688,9.6802869 9.7670681,9.8637344 9.6160541,9.9896766 8.6112247,10.82768 7.4099653,11.342075 5.87178,11.593022 L 5.4928178,11.654848 5.3167213,11.497332 C 5.0988884,11.302484 4.7114522,11.107444 4.421875,11.046855 c -1.4200521,-0.297121 -2.6721408,0.954968 -2.3750202,2.37502 0.1186901,0.567266 0.5304395,1.099766 1.047953,1.355279 0.43249,0.213534 0.8702025,0.271582 1.3270672,0.175991 z"
       id="path825"
       inkscape:connector-curvature="0" />
    <path
       style="fill:#fefe00;stroke-width:0.000357143"
       d="M 3.6957081,14.452684 C 2.9375322,14.287964 2.406005,13.523787 2.5316177,12.77907 2.667423,11.973925 3.4438894,11.400553 4.2209303,11.531618 c 0.805145,0.135805 1.3785169,0.912271 1.2474519,1.689312 -0.1031756,0.611696 -0.5748931,1.105206 -1.1787006,1.233155 -0.2547294,0.05398 -0.3399982,0.05378 -0.5939735,-0.0014 z M 11.695708,9.9526841 c -0.758176,-0.16472 -1.289703,-0.9288975 -1.16409,-1.6736144 0.135805,-0.805145 0.912271,-1.3785169 1.689312,-1.2474519 0.805145,0.1358053 1.378517,0.9122716 1.247452,1.6893125 -0.103175,0.6116953 -0.574893,1.1052053 -1.1787,1.2331547 -0.25473,0.053978 -0.339999,0.053777 -0.593974,-0.0014 z m -4.9999999,-5.5 C 5.9375322,4.2879641 5.406005,3.5237866 5.5316178,2.7790697 5.6674231,1.9739247 6.4438894,1.4005528 7.2209303,1.5316177 8.0260753,1.667423 8.5994472,2.4438893 8.4683822,3.2209303 8.3652066,3.8326256 7.8934891,4.3261356 7.2896816,4.454085 7.0349522,4.5080634 6.9496834,4.5078622 6.6957081,4.4526841 Z"
       id="path823"
       inkscape:connector-curvature="0" />
    <path
       style="fill:#fe6500;stroke-width:0.000357143"
       d="m 5.9168269,13.580012 c 0.053318,-0.138946 0.08968,-0.493978 0.073606,-0.718683 -0.015454,-0.216032 -0.07896,-0.484126 -0.1610159,-0.679736 -0.01789,-0.04265 8.594e-4,-0.05669 0.097658,-0.07316 1.3634753,-0.231945 2.4545341,-0.631505 3.3667856,-1.23296 0.3658704,-0.241221 0.8063044,-0.602057 1.0443184,-0.855582 l 0.166305,-0.1771422 0.177445,0.1587172 c 0.230392,0.206076 0.610147,0.392924 0.927445,0.456322 0.1375,0.02747 0.255251,0.05463 0.26167,0.06035 0.0064,0.0057 -0.105528,0.146639 -0.248768,0.313147 -1.148065,1.334557 -3.049661,2.333036 -5.1379016,2.697779 -0.6294741,0.109948 -0.5887891,0.106296 -0.5675481,0.05094 z M 12.82454,6.6841519 C 12.545571,6.5498372 12.228348,6.4905888 11.890625,6.5097225 c -0.154687,0.00876 -0.30007,0.020708 -0.323072,0.026543 -0.02801,0.00711 -0.05988,-0.05646 -0.09652,-0.1925156 C 11.186574,5.2875194 10.3518,4.4814475 9.1122466,4.06607 L 8.7633006,3.9491372 8.8360356,3.7888466 C 8.982545,3.4659734 9.0358619,3.0101292 8.9685997,2.6554573 8.9513294,2.564392 8.9441903,2.4828931 8.9527347,2.4743486 8.9757937,2.4512897 9.4422025,2.583779 9.78125,2.7096987 c 0.788368,0.2927941 1.379077,0.6659419 1.940567,1.2258463 0.551301,0.5497444 0.883541,1.0684431 1.111968,1.7360263 0.134092,0.3918868 0.270123,1.1129028 0.208878,1.1071303 -0.01487,-0.0014 -0.113026,-0.043949 -0.218123,-0.09455 z"
       id="path821"
       inkscape:connector-curvature="0" />
    <path
       style="fill:#323232;stroke-width:0.000357143"
       d="M 3.5625,14.951405 C 2.8323192,14.794581 2.2007041,14.157179 2.0468548,13.421875 1.7497342,12.001823 3.0018229,10.749734 4.421875,11.046855 c 0.2895772,0.06059 0.6770134,0.255629 0.8948462,0.450477 L 5.4928178,11.654848 5.87178,11.593022 C 7.4099653,11.342075 8.6112247,10.82768 9.6160541,9.9896766 9.7670681,9.8637344 9.9590688,9.6802869 10.042722,9.5820153 L 10.194819,9.40334 10.110077,9.1469825 C 9.9998503,8.8135288 9.974755,8.4184481 10.043177,8.09375 10.144049,7.6150538 10.464015,7.1302813 10.858359,6.8586856 11.020555,6.7469775 11.032171,6.7309009 11.014605,6.6424403 10.915161,6.1416322 10.56334,5.5505353 10.167226,5.21875 9.7931962,4.9054634 9.2729522,4.6399953 8.7249978,4.4828159 l -0.2827919,-0.081118 -0.18168,0.1479803 c -0.7938922,0.6466344 -1.9413578,0.5857778 -2.66867,-0.141534 -0.787539,-0.7875394 -0.787539,-2.0287488 0,-2.816288 C 6.2134347,0.97027759 7.1042741,0.82847138 7.90625,1.2234447 8.1175384,1.3275042 8.2244634,1.4074064 8.4289534,1.6140468 l 0.2570785,0.2597818 0.3491378,0.078813 c 0.92091,0.2078831 1.8227173,0.607727 2.4709243,1.0955598 0.385459,0.2900909 1.005712,0.9402281 1.25312,1.313494 0.487084,0.734866 0.740507,1.4956053 0.80602,2.4195544 0.02221,0.3132869 0.05052,0.51197 0.08014,0.5625 0.02519,0.042969 0.09428,0.1769659 0.153521,0.2977716 0.480089,0.9789165 0.06203,2.1705306 -0.930984,2.6536016 -0.266147,0.129474 -0.310595,0.163505 -0.410952,0.314654 -0.06189,0.09321 -0.236833,0.314068 -0.388763,0.490788 -1.366656,1.589658 -3.3598931,2.610413 -5.8471081,2.994361 -0.2161319,0.03336 -0.4307866,0.06081 -0.4770103,0.06099 -0.063028,2.5e-4 -0.1453432,0.06163 -0.3291828,0.24547 -0.495186,0.495186 -1.1720041,0.696148 -1.8523988,0.550016 z m 0.7271816,-0.49732 C 4.8934891,14.326136 5.3652066,13.832626 5.4683822,13.22093 5.5994472,12.443889 5.0260753,11.667423 4.2209303,11.531618 3.4438894,11.400553 2.667423,11.973925 2.5316178,12.77907 c -0.1256128,0.744717 0.4059144,1.508894 1.1640903,1.673614 0.2539753,0.05518 0.3392441,0.05538 0.5939735,0.0014 z M 6.484375,13.529069 c 2.0882406,-0.364743 3.989838,-1.363222 5.137902,-2.697779 0.143241,-0.166508 0.255186,-0.307424 0.248768,-0.313147 -0.0064,-0.0057 -0.12417,-0.03288 -0.26167,-0.06035 -0.317297,-0.0634 -0.697053,-0.250246 -0.927445,-0.456322 L 10.504485,9.8427488 10.33818,10.019891 c -0.238014,0.253525 -0.6784484,0.614361 -1.0443187,0.855582 -0.9122516,0.601455 -2.0033104,1.001015 -3.3667857,1.23296 -0.0968,0.01647 -0.1155487,0.03051 -0.097658,0.07316 0.082056,0.19561 0.1455622,0.463704 0.1610159,0.679736 0.016074,0.224705 -0.020288,0.579737 -0.073606,0.718683 -0.021241,0.05535 -0.061926,0.05901 0.5675481,-0.05094 z m 5.805307,-3.574984 c 0.603807,-0.1279494 1.075525,-0.6214594 1.1787,-1.2331547 0.131065,-0.7770409 -0.442307,-1.5535072 -1.247452,-1.6893125 -0.777041,-0.131065 -1.553507,0.4423069 -1.689312,1.2474519 -0.125613,0.7447169 0.405914,1.5088944 1.16409,1.6736144 0.253975,0.055178 0.339244,0.055379 0.593974,0.0014 z M 13.048017,6.6015625 C 12.923799,5.5722231 12.491371,4.7029259 11.721817,3.935545 11.160327,3.3756406 10.569618,3.0024928 9.78125,2.7096987 9.4422025,2.583779 8.9757937,2.4512897 8.9527347,2.4743486 c -0.00854,0.00854 -0.00141,0.090043 0.015865,0.1811087 0.067262,0.3546719 0.013945,0.8105161 -0.1325641,1.1333893 L 8.7633006,3.9491372 9.1122466,4.06607 c 1.2395534,0.4153775 2.0743274,1.2214494 2.3587814,2.27768 0.03664,0.1360556 0.06851,0.1996219 0.09652,0.1925156 0.023,-0.00584 0.168384,-0.017779 0.323072,-0.026543 0.337723,-0.019134 0.654946,0.040115 0.933915,0.1744294 0.105097,0.050601 0.203252,0.093148 0.218123,0.09455 0.01487,0.0014 0.01728,-0.078311 0.0054,-0.1771391 z M 7.2896816,4.454085 C 8.0609766,4.2906444 8.5952741,3.5313703 8.4683822,2.7790698 8.3325769,1.9739247 7.5561106,1.4005528 6.7790697,1.5316178 6.1445147,1.6386493 5.6386494,2.1445147 5.5316178,2.7790698 5.406005,3.5237866 5.9375322,4.2879641 6.6957081,4.4526841 c 0.2539753,0.055178 0.3392441,0.055379 0.5939735,0.0014 z"
       id="path819"
       inkscape:connector-curvature="0" />
  </g>
</svg>
