<?xml version="1.0" encoding="UTF-8" standalone="no"?>
<!-- Created with Inkscape (http://www.inkscape.org/) -->

<svg
   version="1.1"
   id="svg2"
   width="1600"
   height="1600"
   viewBox="0 0 1600 1600"
   sodipodi:docname="curves_sculpt_density.svg"
   inkscape:version="1.4.3 (0d15f75, 2025-12-25)"
   xml:space="preserve"
   xmlns:inkscape="http://www.inkscape.org/namespaces/inkscape"
   xmlns:sodipodi="http://sodipodi.sourceforge.net/DTD/sodipodi-0.dtd"
   xmlns="http://www.w3.org/2000/svg"
   xmlns:svg="http://www.w3.org/2000/svg"
   xmlns:rdf="http://www.w3.org/1999/02/22-rdf-syntax-ns#"
   xmlns:cc="http://creativecommons.org/ns#"
   xmlns:dc="http://purl.org/dc/elements/1.1/"><metadata
     id="metadata8"><rdf:RDF><cc:Work
         rdf:about=""><dc:format>image/svg+xml</dc:format><dc:type
           rdf:resource="http://purl.org/dc/dcmitype/StillImage" /></cc:Work></rdf:RDF></metadata><defs
     id="defs6" /><sodipodi:namedview
     pagecolor="#808080"
     bordercolor="#666666"
     borderopacity="1"
     objecttolerance="10"
     gridtolerance="10"
     guidetolerance="10"
     inkscape:pageopacity="0"
     inkscape:pageshadow="2"
     inkscape:window-width="2560"
     inkscape:window-height="1009"
     id="namedview4"
     showgrid="true"
     inkscape:zoom="0.25"
     inkscape:cx="128"
     inkscape:cy="392"
     inkscape:window-x="1912"
     inkscape:window-y="-8"
     inkscape:window-maximized="1"
     inkscape:current-layer="svg2"
     inkscape:showpageshadow="0"
     inkscape:pagecheckerboard="true"
     inkscape:deskcolor="#d1d1d1"><inkscape:grid
       id="grid6"
       units="px"
       originx="0"
       originy="0"
       spacingx="100"
       spacingy="100"
       empcolor="#0099e5"
       empopacity="0.30196078"
       color="#0099e5"
       opacity="0.14901961"
       empspacing="5"
       enabled="true"
       visible="true" /></sodipodi:namedview><g
     id="g12"
     transform="matrix(100,0,0,100,200.61537,200.00005)"
     style="stroke-width:0.0114286"><path
       style="fill:#323232;stroke-width:0.000357143"
       d="M 1.6876684,9.9440912 C 1.3754791,9.8333042 1.1506862,9.6032042 1.0480309,9.2893532 1.0039113,9.1544662 0.9983936,8.9745567 1.0063979,7.9318737 l 0.00923,-1.201985 0.077379,-0.15625 C 1.1916604,6.3744256 1.3789118,6.187174 1.578125,6.0885181 l 0.15625,-0.077379 H 3 4.265625 l 0.15625,0.077379 c 0.1992131,0.098656 0.3864647,0.2859075 0.4851206,0.4851206 l 0.077379,0.15625 v 1.2656254 1.2656251 l -0.077379,0.15625 c -0.098656,0.199213 -0.2859075,0.386465 -0.4851206,0.485121 l -0.15625,0.07738 -1.21875,0.007 c -1.0483611,0.006 -1.2383867,6.2e-5 -1.3592066,-0.04282 z"
       id="path9" /><path
       style="fill:#00fe00;fill-opacity:1;stroke-width:0.000357143"
       d="m 2,7.9955137 v -1 h 1 1 v 1 1 H 3 2 Z"
       id="path823" /></g><path
     style="fill:#fecb32;stroke-width:0.0357143"
     d="m 716.84605,1443.4549 c -27.7665,-10.1839 -53.5588,-37.8164 -61.8098,-66.2197 -6.446,-22.1918 -5.497,-206.4302 1.534,-297.6912 25.9739,-337.13602 97.6412,-576.95399 235.1302,-786.80827 32.7417,-49.97472 74.9564,-106.94169 79.248,-106.94169 1.55,0 7.475,-4.2595 13.1671,-9.4656 19.41395,-17.75645 35.36115,-23.3469 66.59915,-23.3469 32.8552,0 49.3752,6.3605 69.9448,26.93015 18.138,18.13793 26.5681,37.4973 27.9736,64.23981 1.627,30.95576 -4.501,47.0618 -31.3667,82.44054 -53.7138,70.73453 -90.3335,129.87019 -124.36105,200.82581 -90.883,189.51325 -132.7574,407.62644 -140.4969,731.81365 -2.835,118.7631 -3.67,124.4869 -21.7283,149.0427 -11.299,15.3642 -29.7749,29.201 -47.2016,35.3495 -16.3972,5.785 -50.6347,5.699 -66.632,-0.17 z"
     id="path821-8"
     inkscape:connector-curvature="0"
     sodipodi:nodetypes="cssssssssssssccc" /><path
     style="stroke-width:0.000357143;fill:none"
     d="M 0,8 V 0 L 3.4140625,0.00149176 C 6.5585997,0.00286575 6.8170366,0.00686301 6.6876684,0.05212479 6.3767372,0.16090967 6.1508141,0.39191778 6.0480309,0.70615962 6.0039112,0.84104725 5.9983937,1.0209571 6.0063978,2.0636402 l 0.00923,1.2019848 0.077379,0.15625 c 0.098656,0.1992131 0.2859075,0.3864647 0.4851206,0.4851206 l 0.15625,0.077379 H 8 9.265625 l 0.15625,-0.077379 C 9.6210881,3.8083397 9.8083397,3.6210881 9.9069956,3.421875 l 0.077379,-0.15625 0.00923,-1.2019848 c 0.008,-1.0426831 0.00249,-1.22259295 -0.041633,-1.35748058 C 9.8491859,0.39191778 9.6232628,0.16090967 9.3123316,0.05212479 9.1829634,0.00686301 9.4414003,0.00286575 12.585938,0.00149176 L 16,0 v 8 8 L 12.585938,15.9985 C 9.4414003,15.9971 9.1829634,15.9931 9.3123316,15.94787 c 0.3109312,-0.108785 0.5368543,-0.339794 0.6396375,-0.654035 0.04412,-0.134888 0.049637,-0.314798 0.041633,-1.357481 l -0.00923,-1.201986 -0.077379,-0.15625 C 9.8083397,12.378912 9.6210881,12.19166 9.421875,12.093004 l -0.15625,-0.07738 H 8 6.734375 l -0.15625,0.07738 c -0.1992131,0.09866 -0.3864647,0.285908 -0.4851206,0.485121 l -0.077379,0.15625 -0.00923,1.201985 c -0.008,1.042683 -0.00249,1.222593 0.041633,1.35748 0.1027832,0.314242 0.3287063,0.54525 0.6396375,0.654035 0.1293682,0.04526 -0.1290687,0.04926 -3.2736059,0.05063 L 0,16 Z m 4.421875,4.906996 c 0.1992131,-0.09866 0.3864647,-0.285908 0.4851206,-0.485121 l 0.077379,-0.15625 V 11 9.734375 L 4.9069956,9.578125 C 4.8083397,9.3789119 4.6210881,9.1916603 4.421875,9.0930044 L 4.265625,9.015625 H 3 1.734375 L 1.578125,9.093004 C 1.3789118,9.1916603 1.1916604,9.3789119 1.0930044,9.578125 l -0.077379,0.15625 -0.00923,1.201985 c -0.008004,1.042683 -0.00249,1.222593 0.041633,1.35748 0.1026553,0.313851 0.3274482,0.543951 0.6396375,0.654738 0.1208199,0.04288 0.3108455,0.04886 1.3592066,0.04282 l 1.21875,-0.007 z m 10,0 c 0.199213,-0.09866 0.386465,-0.285908 0.485121,-0.485121 l 0.07738,-0.15625 V 11 9.734375 l -0.07738,-0.15625 C 14.80834,9.3789119 14.621088,9.1916603 14.421875,9.0930044 L 14.265625,9.015625 H 13 11.734375 l -0.15625,0.077379 C 11.378912,9.19166 11.19166,9.3789119 11.093004,9.578125 l -0.07738,0.15625 -0.0092,1.201985 c -0.008,1.042683 -0.0025,1.222593 0.04163,1.35748 0.102655,0.313851 0.327448,0.543951 0.639637,0.654738 0.12082,0.04288 0.310846,0.04886 1.359207,0.04282 l 1.21875,-0.007 z m -5,-3.0000004 C 9.6210881,9.8083397 9.8083397,9.6210881 9.9069956,9.421875 L 9.984375,9.265625 V 8 6.734375 L 9.9069956,6.578125 C 9.8083397,6.3789119 9.6210881,6.1916603 9.421875,6.0930044 L 9.265625,6.015625 H 8 6.734375 L 6.578125,6.093004 C 6.3789119,6.1916603 6.1916603,6.3789119 6.0930044,6.578125 l -0.077379,0.15625 -0.00923,1.2019847 c -0.008,1.0426831 -0.00249,1.2225931 0.041633,1.3574806 0.1026553,0.3138506 0.3274482,0.5439503 0.6396375,0.6547378 0.1208197,0.042876 0.3108457,0.048862 1.3592066,0.042821 l 1.21875,-0.00702 z m -5,-3 C 4.6210881,6.8083397 4.8083397,6.6210881 4.9069956,6.421875 L 4.984375,6.265625 V 5 3.734375 L 4.9069956,3.578125 C 4.8083397,3.3789119 4.6210881,3.1916603 4.421875,3.0930044 L 4.265625,3.015625 H 3 1.734375 L 1.578125,3.093004 C 1.3789118,3.1916603 1.1916604,3.3789119 1.0930044,3.578125 l -0.077379,0.15625 -0.00923,1.2019847 c -0.008004,1.0426831 -0.00249,1.2225931 0.041633,1.3574806 0.1026553,0.3138506 0.3274482,0.5439503 0.6396375,0.6547378 0.1208199,0.042876 0.3108455,0.048863 1.3592066,0.042821 l 1.21875,-0.00702 z m 10,0 C 14.621088,6.8083397 14.80834,6.6210881 14.906996,6.421875 l 0.07738,-0.15625 V 5 3.734375 l -0.07738,-0.15625 C 14.80834,3.3789119 14.621088,3.1916603 14.421875,3.0930044 L 14.265625,3.015625 H 13 11.734375 l -0.15625,0.077379 C 11.378912,3.19166 11.19166,3.3789119 11.093004,3.578125 l -0.07738,0.15625 -0.0092,1.2019847 c -0.008,1.0426831 -0.0025,1.2225931 0.04163,1.3574806 0.102655,0.3138506 0.327448,0.5439503 0.639637,0.6547378 0.12082,0.042876 0.310846,0.048863 1.359207,0.042821 l 1.21875,-0.00702 z"
     id="path825"
     inkscape:connector-curvature="0"
     transform="matrix(100,0,0,100,0,4.9999997e-5)" /><path
     style="fill:#323232;stroke-width:0.0357143"
     d="m 696.85355,1490.7286 c -39.8883,-14.8202 -74.727,-50.7556 -88.852,-91.6491 -7.155,-20.7152 -7.284,-23.2809 -7.117,-141.4105 0.6,-419.69146 79.3924,-736.15624 247.3223,-993.30518 52.6966,-80.69364 74.4285,-107.28286 108.2189,-132.40724 30.9738,-23.03021 54.03935,-30.53754 93.82335,-30.53754 39.3238,0 62.5855,6.9758 89.6157,26.87432 40.3443,29.69979 59.2864,68.53943 59.2864,121.56318 0,39.11593 -6.883,61.62053 -27.5839,90.19 -8.032,11.08497 -24.675,33.99884 -36.9846,50.91972 -155.26075,213.42403 -222.19975,467.31844 -232.21305,880.76524 -2.436,100.5769 -3.2,110.9529 -9.499,128.9911 -14.0666,40.2801 -51.4381,77.6064 -91.1161,91.0058 -28.2075,9.526 -77.845,9.053 -104.9012,-1 z m 86.6245,-47.1049 c 17.4267,-6.1485 35.9026,-19.9853 47.2016,-35.3495 18.0586,-24.5558 18.893,-30.2796 21.7283,-149.0427 7.739,-324.18721 49.6139,-542.3004 140.4969,-731.81365 34.02755,-70.95562 70.64725,-130.09128 124.36105,-200.82581 26.8657,-35.37874 32.9937,-51.48478 31.3667,-82.44054 -1.406,-26.74251 -9.836,-46.10188 -27.9736,-64.23981 -20.5696,-20.56962 -37.0896,-26.93015 -69.9448,-26.93015 -31.238,0 -47.1852,5.5905 -66.59915,23.34691 -5.692,5.2061 -11.6172,9.4656 -13.1671,9.4656 -4.292,0 -46.5063,56.96697 -79.248,106.94169 -137.489,209.85428 -209.1563,449.67225 -235.1302,786.80836 -7.031,91.261 -7.98,275.4993 -1.534,297.6911 8.251,28.4033 34.0433,56.0358 61.8098,66.2197 15.9973,5.867 50.2348,5.954 66.632,0.17 z"
     id="path819-7"
     inkscape:connector-curvature="0"
     sodipodi:nodetypes="csssssssssssccccssssssssssssccc" /><g
     id="g13"
     transform="matrix(100,0,0,100,1449.7198,-199.33628)"
     style="stroke-width:0.0114286"><path
       style="fill:#323232;stroke-width:0.000357143"
       d="m -12.793878,16.937455 c -0.31219,-0.110787 -0.536983,-0.340887 -0.639638,-0.654738 -0.04412,-0.134887 -0.04964,-0.314797 -0.04163,-1.35748 l 0.0092,-1.201985 0.07738,-0.15625 c 0.09865,-0.199213 0.285905,-0.386465 0.485118,-0.48512 l 0.15625,-0.07738 h 1.265625 1.265625 l 0.15625,0.07738 c 0.1992132,0.09866 0.3864648,0.285907 0.4851207,0.48512 l 0.077379,0.15625 v 1.265626 1.265625 l -0.077379,0.15625 c -0.098656,0.199213 -0.2859075,0.386465 -0.4851207,0.485121 l -0.15625,0.07738 -1.21875,0.007 c -1.048361,0.006 -1.238387,6.2e-5 -1.359206,-0.04282 z"
       id="path9-3" /><path
       style="fill:#f9f9f9;fill-opacity:1;stroke-width:0.000357143"
       d="m -12.481547,14.988877 v -1 h 1 1 v 1 1 h -1 -1 z"
       id="path823-4" /></g><g
     id="OUTLINER_OB_HAIR-6"
     style="stroke-width:0.0114286"
     transform="scale(100)"><path
       style="fill:none;stroke-width:0.2;stroke:none;stroke-dasharray:none"
       d="M 0,8 V 0 h 8 8 v 8 8 H 8 0 Z m 3.0260308,6.934344 C 3.4228112,14.80035 3.7965259,14.427088 3.9371925,14.024286 4.0001856,13.843904 4.0078269,13.740144 4.0321853,12.734375 4.1323178,8.5999066 4.8017081,6.0609625 6.3543153,3.9267222 6.4774106,3.7575134 6.6438412,3.5283747 6.7241612,3.417525 6.9311716,3.1318303 7,2.9067843 7,2.515625 7,1.9853875 6.8105788,1.5969911 6.4071359,1.2999932 6.1368337,1.1010081 5.9042169,1.03125 5.5109787,1.03125 c -0.39784,0 -0.6284946,0.075073 -0.9382331,0.3053754 C 4.2348419,1.5878692 4.0175234,1.8537614 3.4905572,2.6606978 1.8112575,5.2321872 1.0232941,8.396835 1.0173337,12.59375 c -0.00168,1.181296 -3.866e-4,1.206953 0.071166,1.414105 0.1412501,0.408935 0.4896362,0.768289 0.88852,0.916491 0.2705616,0.100526 0.7669369,0.105256 1.0490114,0.01 z m 3.9999998,0 c 0.399956,-0.135066 0.7766247,-0.513511 0.9099922,-0.914281 0.04444,-0.133542 0.081095,-0.377112 0.1116975,-0.742229 C 8.2285006,11.120972 8.5923025,9.6229013 9.2230766,8.4379316 9.6881653,7.5642178 10.430438,6.6382269 11.3041,5.8418381 11.869475,5.3264687 12,5.0779409 12,4.5168006 12,4.2770787 11.983969,4.1521644 11.934344,4.0052194 11.800111,3.6077309 11.423519,3.2311394 11.026031,3.0969055 10.762798,3.0080103 10.271804,3.0049945 10.02833,3.0907775 9.6312559,3.2306775 9.4924606,3.3293838 8.9377944,3.8663253 7.1477319,5.5991859 6.1903572,7.1773053 5.5793447,9.4023334 5.2721188,10.521111 5.0167678,12.28526 5.0178934,13.28125 c 5.125e-4,0.453851 0.00914,0.540901 0.072032,0.726605 0.1377794,0.406846 0.4873022,0.767951 0.8870944,0.916491 0.2705615,0.100526 0.7669369,0.105257 1.0490112,0.01 z m 4.0000004,0 c 0.398952,-0.134727 0.776619,-0.513495 0.909173,-0.911821 0.04487,-0.134839 0.07499,-0.342795 0.09619,-0.664105 0.05965,-0.904111 0.27106,-1.572186 0.70072,-2.214323 0.370505,-0.553728 0.749509,-0.903601 1.272641,-1.1748187 0.523691,-0.2715079 0.776459,-0.5256222 0.922188,-0.9271025 0.09995,-0.2753697 0.103361,-0.7527994 0.0074,-1.0369544 C 14.79799,7.6014525 14.420783,7.2285778 14.010589,7.0920741 13.823813,7.0299187 13.758748,7.0244378 13.379491,7.0389097 l -0.422852,0.016135 -0.408007,0.2070631 c -0.224404,0.113885 -0.540664,0.3018907 -0.7028,0.4177903 -0.35337,0.2525994 -0.923949,0.7921716 -1.247257,1.1794766 -1.0326122,1.2370133 -1.6458522,2.9731473 -1.5894978,4.5000003 0.013587,0.368123 0.031918,0.51086 0.085392,0.664911 0.1368459,0.394233 0.4897178,0.754106 0.8825497,0.90006 0.2705621,0.100526 0.7669371,0.105256 1.0490121,0.01 z"
       id="path823-1"
       inkscape:connector-curvature="0" /></g><g
     id="g16"
     transform="matrix(100,0,0,100,-1999.3847,599.54979)"
     style="stroke-width:0.0114286"><path
       style="fill:#323232;fill-opacity:1;stroke-width:0.000357143"
       d="M 30.687668,5.9485776 C 30.375479,5.8377901 30.150686,5.6076904 30.048031,5.2938398 30.003911,5.1589523 29.998394,4.9790423 30.006398,3.9363592 l 0.0092,-1.2019847 0.07738,-0.15625 c 0.09866,-0.1992131 0.285908,-0.3864647 0.485121,-0.4851206 l 0.15625,-0.077379 H 32 33.265625 l 0.15625,0.077379 c 0.199213,0.098656 0.386465,0.2859075 0.485121,0.4851206 l 0.07738,0.15625 v 1.265625 1.265625 l -0.07738,0.15625 c -0.09866,0.1992131 -0.285908,0.3864647 -0.485121,0.4851206 l -0.15625,0.077379 -1.21875,0.00702 c -1.048361,0.00604 -1.238387,6.26e-5 -1.359207,-0.042821 z"
       id="path6" /><path
       style="fill:#f9f9f9;fill-opacity:1;stroke-width:0.000357143"
       d="m 31,3.9999995 v -1 h 1 1 v 1 1 h -1 -1 z"
       id="path3" /></g><g
     id="g17"
     transform="matrix(100,0,0,100,-3170.8684,599.54979)"
     style="stroke-width:0.0114286"><path
       style="fill:#323232;stroke-width:0.000357143"
       d="M 40.40252,8.9485776 C 40.09033,8.8377901 39.865537,8.6076904 39.762882,8.2938398 39.718763,8.1589523 39.713245,7.9790423 39.721249,6.9363592 l 0.0092,-1.2019847 0.07738,-0.15625 c 0.09865,-0.1992131 0.285905,-0.3864647 0.485118,-0.4851206 l 0.15625,-0.077379 h 1.265625 1.265625 l 0.15625,0.077379 c 0.199213,0.098656 0.386465,0.2859075 0.485121,0.4851206 l 0.07738,0.15625 v 1.2656254 1.265625 l -0.07738,0.15625 c -0.09866,0.1992127 -0.285908,0.3864643 -0.485121,0.4851202 l -0.15625,0.077379 -1.21875,0.00702 c -1.048361,0.00604 -1.238386,6.26e-5 -1.359206,-0.042821 z"
       id="path11-6" /><path
       style="fill:#00fe00;fill-opacity:1;stroke-width:0.000357143"
       d="m 40.714851,6.9999995 v -1 h 1 1 v 1 1 h -1 -1 z"
       id="path2-0" /></g></svg>
