<?xml version="1.0" encoding="UTF-8" standalone="no"?>
<!-- Created with Inkscape (http://www.inkscape.org/) -->

<svg
   version="1.1"
   id="svg2"
   width="1600"
   height="1600"
   viewBox="0 0 1600 1600"
   sodipodi:docname="curve_fill.svg"
   inkscape:version="1.2.2 (732a01da63, 2022-12-09)"
   xmlns:inkscape="http://www.inkscape.org/namespaces/inkscape"
   xmlns:sodipodi="http://sodipodi.sourceforge.net/DTD/sodipodi-0.dtd"
   xmlns="http://www.w3.org/2000/svg"
   xmlns:svg="http://www.w3.org/2000/svg"
   xmlns:rdf="http://www.w3.org/1999/02/22-rdf-syntax-ns#"
   xmlns:cc="http://creativecommons.org/ns#"
   xmlns:dc="http://purl.org/dc/elements/1.1/">
  <metadata
     id="metadata8">
    <rdf:RDF>
      <cc:Work
         rdf:about="">
        <dc:format>image/svg+xml</dc:format>
        <dc:type
           rdf:resource="http://purl.org/dc/dcmitype/StillImage" />
      </cc:Work>
    </rdf:RDF>
  </metadata>
  <defs
     id="defs6" />
  <sodipodi:namedview
     pagecolor="#808080"
     bordercolor="#666666"
     borderopacity="1"
     objecttolerance="10"
     gridtolerance="10"
     guidetolerance="10"
     inkscape:pageopacity="0"
     inkscape:pageshadow="2"
     inkscape:window-width="1993"
     inkscape:window-height="1009"
     id="namedview4"
     showgrid="false"
     inkscape:zoom="0.5"
     inkscape:cx="429"
     inkscape:cy="606"
     inkscape:window-x="-8"
     inkscape:window-y="-8"
     inkscape:window-maximized="1"
     inkscape:current-layer="CURVE_FILL"
     inkscape:showpageshadow="0"
     inkscape:pagecheckerboard="true"
     inkscape:deskcolor="#d1d1d1" />
  <g
     id="CURVE_FILL"
     transform="matrix(100,0,0,100,0,4.9999997e-5)"
     style="stroke-width:0.0114286">
    <path
       style="fill:none;stroke-width:0.000357143"
       d="M 0,8 V 0 h 8 8 v 8 8 H 8 0 Z m 4.421875,6.953145 c 0.3636512,-0.07609 0.7095447,-0.268277 0.9930237,-0.551756 0.1838397,-0.18384 0.266155,-0.245222 0.3291829,-0.24547 0.046224,-1.87e-4 0.2608784,-0.02763 0.4770103,-0.06099 2.4899362,-0.384368 4.4802271,-1.404417 5.8507221,-2.998571 1.08413,-1.2610537 1.624699,-2.8344009 1.496795,-4.3564719 C 13.493381,5.8446669 13.230825,5.0732181 12.759214,4.3616956 12.511806,3.9884297 11.891553,3.3382925 11.506094,3.0482016 10.857887,2.5603688 9.9560797,2.1605249 9.0351697,1.9526418 L 8.6860319,1.8738286 8.4289534,1.6140468 C 8.2244634,1.4074064 8.1175384,1.3275042 7.90625,1.2234447 7.1042741,0.82847138 6.2134347,0.97027759 5.5918559,1.5918561 4.8204162,2.3632957 4.8046575,3.6072659 5.5566609,4.3700712 5.6715913,4.4866522 5.8122797,4.6163128 5.8693025,4.6582059 L 5.97298,4.734375 5.8727012,5.0625 C 5.7635972,5.4195037 5.5932797,5.9843109 5.3591247,6.765625 5.2767087,7.040625 5.1500278,7.4625 5.0776112,7.703125 5.0051947,7.94375 4.8786791,8.365625 4.7964656,8.640625 4.7142519,8.915625 4.5807469,9.3585938 4.4997878,9.625 4.4188284,9.8914062 4.2919822,10.309766 4.2179072,10.554688 L 4.0832253,11 3.94005,11.000544 C 3.695765,11.001469 3.3707062,11.08704 3.0948078,11.223049 2.4401257,11.545787 2.0010852,12.259088 2.0010852,13 c 0,0.740799 0.4388058,1.4538 1.0937226,1.777154 0.43249,0.213534 0.8702025,0.271582 1.3270672,0.175991 z"
       id="path825"
       inkscape:connector-curvature="0" />
    <path
       style="fill:#fecb98;stroke-width:0.000357143"
       d="M 5.359375,11.537754 C 5.290625,11.473495 5.1947887,11.392516 5.1464056,11.357801 l -0.087969,-0.06312 0.0912,-0.295779 c 0.05016,-0.162678 0.1585618,-0.520779 0.2408925,-0.795779 0.082331,-0.275 0.2090547,-0.696875 0.281609,-0.9375 C 5.7446928,9.025 5.8713678,8.603125 5.9536388,8.328125 6.3059881,7.1503569 6.6487756,6.014455 6.8259588,5.4375 L 6.9555166,5.015625 7.1730706,4.9917909 C 7.5985056,4.9451828 7.952645,4.8004506 8.2662322,4.5450303 L 8.4422059,4.4016978 8.7249978,4.4828159 C 9.4854503,4.7009497 10.114569,5.0842903 10.49692,5.5625 c 0.415419,0.5195672 0.628661,1.2271881 0.560325,1.859375 -0.163583,1.5133256 -1.3371541,2.846144 -3.1893734,3.622155 -0.6514803,0.272947 -1.2968635,0.440912 -2.2897466,0.595922 -0.075961,0.01186 -0.1174684,-0.0075 -0.21875,-0.102198 z"
       id="path823"
       inkscape:connector-curvature="0" />
    <path
       style="fill:#fe9832;stroke-width:0.000357143"
       d="M 3.6957081,14.452684 C 2.9375322,14.287964 2.406005,13.523787 2.5316177,12.77907 2.667423,11.973925 3.4438894,11.400553 4.2209303,11.531618 c 0.805145,0.135805 1.3785169,0.912271 1.2474519,1.689312 -0.1031756,0.611696 -0.5748931,1.105206 -1.1787006,1.233155 -0.2547294,0.05398 -0.3399982,0.05378 -0.5939735,-0.0014 z m 2.2211188,-0.872672 c 0.053318,-0.138946 0.08968,-0.493978 0.073606,-0.718683 -0.015454,-0.216032 -0.07896,-0.484126 -0.1610159,-0.679736 -0.01789,-0.04265 8.594e-4,-0.05669 0.097658,-0.07316 C 8.2644569,11.710814 9.9632013,10.747753 10.913946,9.28125 11.148824,8.9189547 11.268492,8.6721803 11.389841,8.2998778 11.527903,7.8762984 11.574544,7.5858384 11.573481,7.15625 11.569924,5.7181119 10.669947,4.5880591 9.1125263,4.0661634 L 8.7633006,3.9491372 8.8360356,3.7888466 C 8.982545,3.4659734 9.0358619,3.0101292 8.9685997,2.6554573 8.9513294,2.564392 8.9441903,2.4828931 8.9527347,2.4743486 c 0.051657,-0.051657 0.9677278,0.2673492 1.4378903,0.5007212 0.983226,0.4880383 1.841246,1.3369115 2.253751,2.2297246 0.830537,1.797589 0.455998,3.8925912 -1.001418,5.6014746 -1.15226,1.351076 -3.0549939,2.355376 -5.158583,2.7228 -0.6294741,0.109948 -0.5887891,0.106296 -0.5675481,0.05094 z M 6.6957081,4.4526841 C 5.9375322,4.2879641 5.406005,3.5237866 5.5316178,2.7790697 5.6674231,1.9739247 6.4438894,1.4005528 7.2209303,1.5316177 8.0260753,1.667423 8.5994472,2.4438893 8.4683822,3.2209303 8.3652066,3.8326256 7.8934891,4.3261356 7.2896816,4.454085 7.0349522,4.5080634 6.9496834,4.5078622 6.6957081,4.452685 Z"
       id="path821"
       inkscape:connector-curvature="0" />
    <path
       style="fill:#320000;stroke-width:0.000357143"
       d="M 3.5625,14.951405 C 2.8323192,14.794581 2.2007041,14.157179 2.0468548,13.421875 1.8607406,12.532365 2.2974095,11.616141 3.0948078,11.223048 3.3707063,11.087038 3.695765,11.001468 3.94005,11.000543 l 0.1431753,-5.44e-4 0.1346819,-0.445313 c 0.074075,-0.244922 0.2009212,-0.663281 0.2818806,-0.9296872 0.080959,-0.2664063 0.2144641,-0.709375 0.2966778,-0.984375 0.082213,-0.275 0.2087291,-0.696875 0.2811457,-0.9375 0.072417,-0.240625 0.1990975,-0.6625 0.2815134,-0.9375 0.234155,-0.7813141 0.4044725,-1.3461213 0.5135766,-1.703125 L 5.97298,4.7343738 5.8693025,4.6582047 C 5.8122797,4.6163116 5.6715913,4.4866509 5.5566609,4.37007 4.8046575,3.6072659 4.8204162,2.3632957 5.5918559,1.5918561 6.2134347,0.97027759 7.1042741,0.82847138 7.90625,1.2234447 8.1175384,1.3275042 8.2244634,1.4074064 8.4289534,1.6140468 l 0.2570785,0.2597818 0.3491378,0.078813 c 0.92091,0.2078831 1.8227173,0.607727 2.4709243,1.0955598 0.385459,0.2900909 1.005712,0.9402281 1.25312,1.313494 0.624924,0.942826 0.90559,2.0689825 0.808223,3.2429456 -0.06453,0.7781016 -0.235854,1.3975872 -0.582389,2.1059066 -1.124653,2.2987984 -3.5851196,3.8936664 -6.7639561,4.3843784 -0.2161319,0.03336 -0.4307866,0.06081 -0.4770103,0.06099 -0.063028,2.5e-4 -0.1453432,0.06163 -0.3291828,0.24547 -0.495186,0.495186 -1.1720041,0.696148 -1.8523988,0.550016 z m 0.7271816,-0.49732 C 4.8934891,14.326136 5.3652066,13.832626 5.4683822,13.22093 5.5994472,12.443889 5.0260753,11.667423 4.2209303,11.531618 3.4438894,11.400553 2.667423,11.973925 2.5316178,12.77907 c -0.1256128,0.744717 0.4059144,1.508894 1.1640903,1.673614 0.2539753,0.05518 0.3392441,0.05538 0.5939735,0.0014 z M 6.484375,13.529069 c 2.1035891,-0.367424 4.006323,-1.371724 5.158583,-2.7228 C 13.274479,8.8932394 13.539583,6.4894184 12.322715,4.6425981 12.043312,4.2185534 11.443304,3.6190347 11.015625,3.3365741 10.646936,3.0930735 10.193562,2.8628284 9.78125,2.7096987 9.4422025,2.583779 8.9757937,2.4512897 8.9527347,2.4743486 c -0.00854,0.00854 -0.00141,0.090043 0.015865,0.1811087 0.067262,0.3546719 0.013945,0.8105161 -0.1325641,1.1333893 l -0.072735,0.1602906 0.3492257,0.1170262 c 1.3411827,0.4494341 2.1735187,1.323466 2.4218867,2.5432116 0.05056,0.248325 0.0501,0.84807 -8.9e-4,1.140625 -0.245333,1.4076866 -1.31391,2.701722 -2.8959121,3.50692 -0.7865862,0.400352 -1.6465953,0.670523 -2.7105356,0.851513 -0.0968,0.01647 -0.1155487,0.03051 -0.097658,0.07316 0.082056,0.19561 0.1455622,0.463704 0.1610159,0.679736 0.016074,0.224705 -0.020288,0.579737 -0.073606,0.718683 -0.021241,0.05535 -0.061926,0.05901 0.5675481,-0.05094 z M 5.96875,11.576228 C 7.4164234,11.336862 8.6122597,10.818207 9.6073578,9.9980997 10.234156,9.4815263 10.782311,8.6441494 10.966476,7.921875 11.144728,7.22279 11.09267,6.6421069 10.798381,6.046875 10.425565,5.2928116 9.7363888,4.7729309 8.7249978,4.4828159 L 8.4422059,4.4016978 8.2662322,4.5450303 C 7.952645,4.8004506 7.5985056,4.9451828 7.1730706,4.9917909 L 6.9555166,5.015625 6.8259587,5.4375 c -0.1771831,0.576955 -0.5199706,1.7128569 -0.87232,2.890625 -0.082271,0.275 -0.2089459,0.696875 -0.2815003,0.9375 -0.072554,0.240625 -0.1992784,0.6625 -0.281609,0.9375 -0.082331,0.275 -0.1907322,0.633101 -0.2408925,0.795779 l -0.0912,0.295779 0.087969,0.06312 c 0.048383,0.03472 0.1442194,0.115694 0.2129694,0.179953 0.1012816,0.09467 0.1427887,0.114057 0.21875,0.102198 0.051563,-0.008 0.2273437,-0.03673 0.390625,-0.06372 z M 7.2896816,4.454085 C 8.0609766,4.2906444 8.5952741,3.5313703 8.4683822,2.7790697 8.3325769,1.9739247 7.5561106,1.4005528 6.7790697,1.5316177 6.1445147,1.6386493 5.6386494,2.1445147 5.5316178,2.7790697 5.406005,3.5237866 5.9375322,4.2879641 6.6957081,4.4526841 c 0.2539753,0.055178 0.3392441,0.055379 0.5939735,0.0014 z"
       id="path819"
       inkscape:connector-curvature="0" />
  </g>
</svg>
