<?xml version="1.0" encoding="UTF-8" standalone="no"?>
<!-- Created with Inkscape (http://www.inkscape.org/) -->

<svg
   version="1.1"
   id="svg2"
   width="1600"
   height="1600"
   viewBox="0 0 1600 1600"
   sodipodi:docname="curves_sculpt_add.svg"
   inkscape:version="1.4.3 (0d15f75, 2025-12-25)"
   xmlns:inkscape="http://www.inkscape.org/namespaces/inkscape"
   xmlns:sodipodi="http://sodipodi.sourceforge.net/DTD/sodipodi-0.dtd"
   xmlns="http://www.w3.org/2000/svg"
   xmlns:svg="http://www.w3.org/2000/svg"
   xmlns:rdf="http://www.w3.org/1999/02/22-rdf-syntax-ns#"
   xmlns:cc="http://creativecommons.org/ns#"
   xmlns:dc="http://purl.org/dc/elements/1.1/">
  <metadata
     id="metadata8">
    <rdf:RDF>
      <cc:Work
         rdf:about="">
        <dc:format>image/svg+xml</dc:format>
        <dc:type
           rdf:resource="http://purl.org/dc/dcmitype/StillImage" />
      </cc:Work>
    </rdf:RDF>
  </metadata>
  <defs
     id="defs6" />
  <sodipodi:namedview
     pagecolor="#808080"
     bordercolor="#666666"
     borderopacity="1"
     objecttolerance="10"
     gridtolerance="10"
     guidetolerance="10"
     inkscape:pageopacity="0"
     inkscape:pageshadow="2"
     inkscape:window-width="1920"
     inkscape:window-height="1009"
     id="namedview4"
     showgrid="false"
     inkscape:zoom="0.1767767"
     inkscape:cx="3080.1571"
     inkscape:cy="690.1362"
     inkscape:window-x="-8"
     inkscape:window-y="-8"
     inkscape:window-maximized="1"
     inkscape:current-layer="PAINT_ADD"
     inkscape:showpageshadow="0"
     inkscape:pagecheckerboard="true"
     inkscape:deskcolor="#d1d1d1" />
  <g
     id="PAINT_ADD"
     transform="matrix(100,0,0,100,0,4.9999997e-5)"
     style="stroke-width:0.0114286">
    <g
       id="OUTLINER_OB_HAIR"
       style="stroke-width:0.0114286">
      <path
         style="fill:none;stroke-width:0.000357143"
         d="M 0,8 V 0 h 8 8 v 8 8 H 8 0 Z m 3.0260308,6.934344 C 3.4228112,14.80035 3.7965259,14.427088 3.9371925,14.024286 4.0001856,13.843904 4.0078269,13.740144 4.0321853,12.734375 4.1323178,8.5999066 4.8017081,6.0609625 6.3543153,3.9267222 6.4774106,3.7575134 6.6438412,3.5283747 6.7241612,3.417525 6.9311716,3.1318303 7,2.9067843 7,2.515625 7,1.9853875 6.8105788,1.5969911 6.4071359,1.2999932 6.1368337,1.1010081 5.9042169,1.03125 5.5109787,1.03125 c -0.39784,0 -0.6284946,0.075073 -0.9382331,0.3053754 C 4.2348419,1.5878692 4.0175234,1.8537614 3.4905572,2.6606978 1.8112575,5.2321872 1.0232941,8.396835 1.0173337,12.59375 c -0.00168,1.181296 -3.866e-4,1.206953 0.071166,1.414105 0.1412501,0.408935 0.4896362,0.768289 0.88852,0.916491 0.2705616,0.100526 0.7669369,0.105256 1.0490114,0.01 z m 3.9999998,0 c 0.399956,-0.135066 0.7766247,-0.513511 0.9099922,-0.914281 0.04444,-0.133542 0.081095,-0.377112 0.1116975,-0.742229 C 8.2285006,11.120972 8.5923025,9.6229013 9.2230766,8.4379316 9.6881653,7.5642178 10.430438,6.6382269 11.3041,5.8418381 11.869475,5.3264687 12,5.0779409 12,4.5168006 12,4.2770787 11.983969,4.1521644 11.934344,4.0052194 11.800111,3.6077309 11.423519,3.2311394 11.026031,3.0969055 10.762798,3.0080103 10.271804,3.0049945 10.02833,3.0907775 9.6312559,3.2306775 9.4924606,3.3293838 8.9377944,3.8663253 7.1477319,5.5991859 6.1903572,7.1773053 5.5793447,9.4023334 5.2721188,10.521111 5.0167678,12.28526 5.0178934,13.28125 c 5.125e-4,0.453851 0.00914,0.540901 0.072032,0.726605 0.1377794,0.406846 0.4873022,0.767951 0.8870944,0.916491 0.2705615,0.100526 0.7669369,0.105257 1.0490112,0.01 z m 4.0000004,0 c 0.398952,-0.134727 0.776619,-0.513495 0.909173,-0.911821 0.04487,-0.134839 0.07499,-0.342795 0.09619,-0.664105 0.05965,-0.904111 0.27106,-1.572186 0.70072,-2.214323 0.370505,-0.553728 0.749509,-0.903601 1.272641,-1.1748187 0.523691,-0.2715079 0.776459,-0.5256222 0.922188,-0.9271025 0.09995,-0.2753697 0.103361,-0.7527994 0.0074,-1.0369544 C 14.79799,7.6014525 14.420783,7.2285778 14.010589,7.0920741 13.823813,7.0299187 13.758748,7.0244378 13.379491,7.0389097 l -0.422852,0.016135 -0.408007,0.2070631 c -0.224404,0.113885 -0.540664,0.3018907 -0.7028,0.4177903 -0.35337,0.2525994 -0.923949,0.7921716 -1.247257,1.1794766 -1.0326122,1.2370133 -1.6458522,2.9731473 -1.5894978,4.5000003 0.013587,0.368123 0.031918,0.51086 0.085392,0.664911 0.1368459,0.394233 0.4897178,0.754106 0.8825497,0.90006 0.2705621,0.100526 0.7669371,0.105256 1.0490121,0.01 z"
         id="path823-3"
         inkscape:connector-curvature="0" />
      <path
         style="fill:#fecb32;stroke-width:0.000357143"
         d="M 2.1769445,14.451609 C 1.8992792,14.34977 1.6413564,14.073445 1.5588465,13.789412 1.4943809,13.567494 1.5038716,11.72511 1.5741815,10.8125 1.8339199,7.4411394 2.550593,5.0429597 3.9254831,2.9444169 4.2528997,2.4446697 4.6750472,1.875 4.7179631,1.875 4.7334621,1.875 4.7927141,1.832405 4.8496337,1.780344 5.0437725,1.6027795 5.203245,1.546875 5.515625,1.546875 c 0.3285522,0 0.4937525,0.063605 0.6994484,0.2693015 0.1813794,0.1813793 0.265681,0.374973 0.279736,0.6423981 0.016269,0.3095576 -0.04501,0.470618 -0.3136669,0.8244054 -0.5371384,0.7073453 -0.903335,1.2987019 -1.24361,2.0082581 -0.9088306,1.8951325 -1.3275741,4.0762644 -1.4049694,7.3181369 -0.028353,1.187631 -0.036697,1.244869 -0.2172828,1.490427 -0.11299,0.153642 -0.2977497,0.29201 -0.4720163,0.353495 -0.1639721,0.05785 -0.5063471,0.05699 -0.6663195,-0.0017 z m 3.9999999,0 C 5.9149741,14.355527 5.67458,14.111232 5.5744912,13.83938 5.4011756,13.368638 5.6814144,10.976359 6.0798166,9.5256363 6.5597119,7.7781666 7.2919578,6.422955 8.4933409,5.0587819 8.8789216,4.6209544 9.7721959,3.75 9.8356634,3.75 9.8580354,3.75 9.9287724,3.716314 9.9928575,3.675142 10.170755,3.5608497 10.32688,3.5235213 10.57292,3.5364531 c 0.520349,0.027349 0.894534,0.4016285 0.921889,0.9221216 0.02203,0.4191719 -0.08499,0.6001915 -0.670242,1.1336669 -0.603521,0.5501287 -1.2286851,1.2767687 -1.6547814,1.9233834 -0.9317228,1.4139184 -1.406355,3.064569 -1.6225481,5.642813 -0.025322,0.301984 -0.067327,0.609393 -0.093342,0.68313 -0.096139,0.272487 -0.3391647,0.51595 -0.6106309,0.611729 -0.1639722,0.05785 -0.5063472,0.05699 -0.6663197,-0.0017 z"
         id="path821-8"
         inkscape:connector-curvature="0"
         sodipodi:nodetypes="cssssssssssssccccsssssssssscccc" />
      <path
         style="fill:#323232;stroke-width:0.000357143"
         d="M 1.9770194,14.924346 C 1.5781356,14.776144 1.2297495,14.41679 1.0884994,14.007855 1.0169472,13.800703 1.015656,13.775046 1.0173337,12.59375 1.0232941,8.396835 1.8112575,5.2321872 3.4905572,2.6606978 4.0175234,1.8537614 4.2348419,1.5878692 4.5727456,1.3366254 4.8824841,1.1063233 5.1131387,1.03125 5.5109787,1.03125 c 0.3932382,0 0.625855,0.069758 0.8961572,0.2687432 C 6.8105788,1.5969911 7,1.9853875 7,2.515625 7,2.9067843 6.9311716,3.1318303 6.7241612,3.417525 6.6438412,3.5283747 6.4774106,3.7575134 6.3543153,3.9267222 4.8017081,6.0609625 4.1323178,8.5999066 4.0321853,12.734375 c -0.024358,1.005769 -0.032,1.109529 -0.094993,1.289911 -0.1406666,0.402801 -0.5143813,0.776064 -0.9111617,0.910058 -0.2820745,0.09526 -0.7784498,0.09053 -1.0490114,-0.01 z M 2.843264,14.453297 C 3.0175306,14.391812 3.2022903,14.253444 3.3152803,14.099802 3.4958656,13.854244 3.50421,13.797006 3.5325631,12.609375 3.6099584,9.3675025 4.0287019,7.1863706 4.9375325,5.2912381 5.2778075,4.5816819 5.6440041,3.9903253 6.1811425,3.28298 6.4497991,2.9291926 6.5110788,2.7681322 6.4948094,2.4585746 6.4807544,2.1911495 6.3964528,1.9975558 6.2150734,1.8161765 6.0093775,1.6104803 5.8441772,1.546875 5.515625,1.546875 5.203245,1.546875 5.0437725,1.60278 4.8496337,1.7803441 4.7927137,1.8324048 4.7334619,1.875 4.7179631,1.875 4.6750472,1.875 4.2528997,2.4446697 3.9254831,2.9444169 2.550593,5.0429597 1.8339199,7.4411394 1.5741815,10.8125 c -0.07031,0.91261 -0.079801,2.754994 -0.015335,2.976912 0.08251,0.284033 0.3404327,0.560358 0.618098,0.662197 0.1599724,0.05867 0.5023474,0.05954 0.6663195,0.0017 z m 3.1337554,0.471049 C 5.5772272,14.775806 5.2277044,14.414701 5.089925,14.007855 5.0270359,13.822151 5.0184062,13.735101 5.0178934,13.28125 5.0167684,12.28526 5.2721187,10.521111 5.5793447,9.4023334 6.1903572,7.1773053 7.1477319,5.5991859 8.9377944,3.8663253 9.4924606,3.3293837 9.6312559,3.2306775 10.02833,3.0907775 c 0.243474,-0.085783 0.734468,-0.082767 0.997701,0.00613 0.397488,0.1342339 0.77408,0.5108254 0.908313,0.9083139 C 11.983969,4.1521644 12,4.2770787 12,4.5168006 12,5.0779409 11.869475,5.3264687 11.3041,5.8418381 10.430438,6.6382269 9.6881653,7.5642178 9.2230766,8.4379316 8.5923025,9.6229013 8.2285006,11.120972 8.0477203,13.277834 c -0.030603,0.365117 -0.067258,0.608687 -0.1116975,0.742229 -0.1333675,0.40077 -0.5100362,0.779214 -0.9099922,0.914281 -0.2820744,0.09526 -0.7784497,0.09053 -1.0490112,-0.01 z m 0.8662447,-0.471049 c 0.2714662,-0.09578 0.5144918,-0.339242 0.6106309,-0.611729 0.026016,-0.07374 0.06802,-0.381146 0.093342,-0.68313 C 7.7634306,10.580194 8.2380628,8.9295434 9.1697856,7.515625 9.5958819,6.8690103 10.221046,6.1423703 10.824567,5.5922416 11.409818,5.0587662 11.51684,4.8777466 11.494809,4.4585747 11.467454,3.9380816 11.093269,3.5638022 10.57292,3.5364531 10.32688,3.5235212 10.170755,3.5608497 9.9928575,3.6751419 9.9287728,3.7163137 9.8580356,3.75 9.8356634,3.75 9.7721959,3.75 8.8789216,4.6209544 8.4933409,5.0587819 7.2919578,6.422955 6.5597119,7.7781666 6.0798166,9.5256362 5.6814144,10.976359 5.4011756,13.368638 5.5744913,13.83938 c 0.1000887,0.271852 0.3404828,0.516147 0.6024531,0.612229 0.1599725,0.05867 0.5023475,0.05954 0.6663197,0.0017 z"
         id="path819-7"
         inkscape:connector-curvature="0"
         sodipodi:nodetypes="csssssssssssccccssssssssssssccccssssssssssssccccscsssssssssccc" />
    </g>
    <path
       style="fill:none;stroke-width:0.000357143"
       d="M 0,8 V 0 H 6.3143444 C 11.357658,0 12.623906,0.00786299 12.604928,0.0390625 12.559685,0.11344408 11.896719,0.89142875 11.719483,1.078125 11.621583,1.18125 11.310665,1.5363677 11.028554,1.8672753 10.21792,2.8181246 9.4614978,3.6943916 9.359375,3.8009128 9.3078125,3.8546959 9.2057041,3.9812584 9.1324672,4.0821628 9.0592303,4.1830669 8.9115741,4.3827519 8.8043422,4.5259069 8.6971103,4.6690619 8.5441416,4.8777325 8.4644119,4.9896197 8.3846822,5.1015069 8.3047462,5.2077537 8.2867766,5.2257234 8.2677197,5.2447803 8.1304391,5.2559016 7.9573509,5.2524103 7.3874881,5.2409163 6.8702297,5.3569497 6.390625,5.6038644 6.2055128,5.6991659 6.0620478,5.8085678 5.8378816,6.0253697 5.3790622,6.4691159 5.1848244,6.7805509 4.7464587,7.775325 4.6427737,8.010615 4.5010366,8.3085938 4.4314869,8.4375 3.9348903,9.3579125 3.3379319,9.6843938 2.039821,9.7455203 1.5251907,9.7697534 1.4754074,9.7862469 1.3300559,9.9806697 c -0.05813,0.077755 -0.065427,0.1386843 -0.074614,0.6230693 -0.011986,0.631972 0.00746,0.720919 0.2034662,0.930461 0.2985368,0.31916 0.9558659,0.440003 2.4004666,0.441302 1.1930612,0.0011 1.9911447,-0.101036 2.8828125,-0.368832 L 7,11.529241 7.000125,11.256808 C 7.0004062,10.679893 7.1671541,10.038454 7.4776497,9.4200484 7.6941259,8.9888988 7.8653344,8.7551744 8.2624194,8.3487231 8.6655016,7.9361331 8.9842603,7.6960106 9.4169503,7.4790084 10.10149,7.1356984 10.672593,7.0003378 11.437411,7.0001256 L 11.890449,7 13.945224,4.9454012 16,2.8908026 V 9.4454013 16 H 8 0 Z m 12.174908,7.45364 c 1.225085,-0.198698 2.336663,-1.013737 2.89315,-2.121336 0.302926,-0.602926 0.431691,-1.149465 0.431691,-1.832304 0,-0.682839 -0.128765,-1.229378 -0.431691,-1.8323041 C 14.699745,8.9346275 14.065415,8.2996484 13.335491,7.9333553 12.728624,7.6288156 12.18377,7.5002512 11.5,7.5002512 c -0.682839,0 -1.229378,0.1287647 -1.8323041,0.431691 -0.9272834,0.4658919 -1.6532822,1.3176628 -1.9829453,2.3264708 -0.2490506,0.762125 -0.2490506,1.72105 0,2.483174 0.1162819,0.355836 0.3576,0.838399 0.5511647,1.102163 0.2111622,0.287743 0.5812919,0.661782 0.8734597,0.882685 0.4483109,0.33896 1.132898,0.63153 1.702317,0.727514 0.327768,0.05525 1.021634,0.05509 1.363216,-3.13e-4 z"
       id="path837"
       inkscape:connector-curvature="0" />
    <path
       style="fill:#00fe00;stroke-width:0.000357143;fill-opacity:1"
       d="M 10.9375,14.95383 C 10.0484,14.802993 9.2455284,14.318877 8.713275,13.612668 7.5503344,12.069646 7.8530078,9.8696594 9.3873316,8.713275 10.930354,7.5503344 13.130341,7.8530078 14.286725,9.3873316 c 0.944076,1.2526264 0.944076,2.9727104 0,4.2253364 -0.77,1.021659 -2.097988,1.553437 -3.349225,1.341162 z M 12,13 v -1 h 1 1 V 11.5 11 H 13 12 V 10 9 H 11.5 11 v 1 1 H 10 9 v 0.5 0.5 h 1 1 v 1 1 h 0.5 0.5 z"
       id="path835"
       inkscape:connector-curvature="0" />
    <path
       style="fill:#323232;stroke-width:0.000357143"
       d="M 10.811692,15.453949 C 9.5921819,15.248382 8.4846756,14.432431 7.9319422,13.332304 7.6290159,12.729378 7.5002512,12.182839 7.5002512,11.5 c 0,-0.68377 0.1285644,-1.228624 0.4331041,-1.8354909 C 8.2996484,8.934585 8.9346275,8.3002553 9.6676959,7.9319422 10.270622,7.6290159 10.817161,7.5002513 11.5,7.5002513 c 0.68377,0 1.228624,0.1285643 1.835491,0.433104 0.729924,0.3662931 1.364254,1.0012722 1.732567,1.7343406 0.302926,0.6029261 0.431691,1.1494651 0.431691,1.8323041 0,0.682839 -0.128765,1.229378 -0.431691,1.832304 -0.187311,0.372814 -0.375181,0.634064 -0.690236,0.959841 -0.592168,0.61232 -1.380871,1.028167 -2.202914,1.161495 -0.341582,0.0554 -1.035448,0.05556 -1.363216,3.13e-4 z m 1.235891,-0.499932 c 1.499042,-0.243138 2.663296,-1.407392 2.906434,-2.906434 C 15.195244,10.560316 14.431388,9.0634606 13.085929,8.3868716 11.34667,7.5122531 9.2523972,8.1928947 8.3868716,9.9140712 c -0.5152179,1.0245578 -0.5146947,2.1473868 0.00148,3.1751508 0.6731678,1.340357 2.1747294,2.105574 3.6592314,1.864795 z M 11,13 V 12 H 10 9 V 11.5 11 h 1 1 V 10 9 h 0.5 0.5 v 1 1 h 1 1 v 0.5 0.5 h -1 -1 v 1 1 H 11.5 11 Z"
       id="path821"
       inkscape:connector-curvature="0"
       sodipodi:nodetypes="csssssssssssccssssssccccccccccccccccccccccccc" />
  </g>
</svg>
