<?xml version="1.0" encoding="UTF-8" standalone="no"?>
<!-- Created with Inkscape (http://www.inkscape.org/) -->

<svg
   version="1.1"
   id="svg2"
   width="1600"
   height="1600"
   viewBox="0 0 1600 1600"
   sodipodi:docname="curve_ncurve.svg"
   inkscape:version="1.2.2 (732a01da63, 2022-12-09)"
   xmlns:inkscape="http://www.inkscape.org/namespaces/inkscape"
   xmlns:sodipodi="http://sodipodi.sourceforge.net/DTD/sodipodi-0.dtd"
   xmlns="http://www.w3.org/2000/svg"
   xmlns:svg="http://www.w3.org/2000/svg"
   xmlns:rdf="http://www.w3.org/1999/02/22-rdf-syntax-ns#"
   xmlns:cc="http://creativecommons.org/ns#"
   xmlns:dc="http://purl.org/dc/elements/1.1/">
  <metadata
     id="metadata8">
    <rdf:RDF>
      <cc:Work
         rdf:about="">
        <dc:format>image/svg+xml</dc:format>
        <dc:type
           rdf:resource="http://purl.org/dc/dcmitype/StillImage" />
      </cc:Work>
    </rdf:RDF>
  </metadata>
  <defs
     id="defs6" />
  <sodipodi:namedview
     pagecolor="#808080"
     bordercolor="#666666"
     borderopacity="1"
     objecttolerance="10"
     gridtolerance="10"
     guidetolerance="10"
     inkscape:pageopacity="0"
     inkscape:pageshadow="2"
     inkscape:window-width="1993"
     inkscape:window-height="1009"
     id="namedview4"
     showgrid="false"
     inkscape:zoom="0.5"
     inkscape:cx="617"
     inkscape:cy="806"
     inkscape:window-x="-8"
     inkscape:window-y="-8"
     inkscape:window-maximized="1"
     inkscape:current-layer="CURVE_NCURVE"
     inkscape:showpageshadow="0"
     inkscape:pagecheckerboard="true"
     inkscape:deskcolor="#d1d1d1" />
  <g
     id="CURVE_NCURVE"
     transform="matrix(100,0,0,100,0,4.9999997e-5)"
     style="stroke-width:0.0114286">
    <path
       style="fill:none;stroke-width:0.000357143"
       d="M 4,15.265625 V 14.53125 h 3.1380341 c 3.1050089,0 3.1396239,6.81e-4 3.2890629,0.06475 0.418602,0.179476 1.171394,0.402041 1.695274,0.501214 0.192377,0.03642 0.210726,0.04829 0.453125,0.293236 0.199677,0.201774 0.308305,0.282745 0.518254,0.386304 0.146094,0.07206 0.357031,0.150654 0.46875,0.174648 0.177173,0.03805 -0.420708,0.04394 -4.6796875,0.04611 L 4,16 Z m 10.4375,0.68578 c 0.722578,-0.155191 1.358714,-0.791327 1.513905,-1.513905 0.04126,-0.192116 0.04376,-0.155279 0.04611,0.679688 L 16,16 15.117188,15.9975 C 14.282221,15.9952 14.245384,15.9927 14.4375,15.95139 Z m 1.50846,-2.396571 c -0.06234,-0.328054 -0.264045,-0.689207 -0.537816,-0.962978 -0.728363,-0.728363 -1.874689,-0.78824 -2.671137,-0.139524 l -0.184148,0.14999 -0.248729,-0.05345 C 11.393948,12.353284 10.482809,11.861781 9.8419488,11.220677 9.17968,10.558156 8.7446181,9.7145034 8.5759069,8.765625 c -0.074474,-0.4188625 -0.074474,-1.1123875 0,-1.53125 C 8.8803406,5.5221556 10.028786,4.2077047 11.738638,3.6144763 11.912858,3.5540313 12.16733,3.4805241 12.30413,3.4511269 l 0.248729,-0.053449 0.184148,0.1499903 c 0.796448,0.6487163 1.942774,0.5888391 2.671137,-0.139524 0.271767,-0.2717675 0.46875,-0.6237159 0.543261,-0.9706441 0.03794,-0.1766668 0.04395,0.5468631 0.04611,5.5546875 0.0014,3.1667964 -0.0013,5.7578124 -0.006,5.7578124 -0.0047,0 -0.02516,-0.08782 -0.04556,-0.195166 z M 4,12.75 V 12 H 3.265625 2.53125 V 8 4 H 3.265625 4 V 3.265625 2.53125 L 6.2578125,2.5309309 8.515625,2.5306119 8.0156084,3.0387433 C 7.5078528,3.5547395 7.2453087,3.8898952 6.9507197,4.3981477 c -0.427021,0.7367371 -0.7396628,1.624419 -0.879246,2.4964365 -0.076656,0.4788922 -0.076656,1.7319391 0,2.2108313 0.1403307,0.8766887 0.4499375,1.7557525 0.879246,2.4964365 0.3000947,0.517751 0.5551909,0.842209 1.0808303,1.37471 L 8.5482425,13.5 H 6.2741213 4 Z M 0,8 V 4 H 0.75 1.5 v 4 4 H 0.75 0 Z M 15.94596,1.5548345 C 15.925561,1.4474934 15.849843,1.2405475 15.777699,1.0949548 15.524301,0.58357428 14.991481,0.16757594 14.4375,0.04859484 14.245384,0.00733316 14.282221,0.00483409 15.117188,0.00248437 L 16,0 V 0.875 C 16,1.35625 15.9962,1.75 15.9915,1.75 15.9868,1.75 15.96634,1.662176 15.94594,1.5548345 Z M 4,0.75 V 0 L 8.8828125,0.00248437 C 13.141792,0.00465133 13.739673,0.01054246 13.5625,0.04859484 13.450781,0.07258919 13.239844,0.15118085 13.09375,0.22324297 12.883801,0.32680234 12.775173,0.40777297 12.575496,0.60954691 12.33359,0.85399353 12.314357,0.86646953 12.122371,0.90348416 11.570458,1.0098922 10.957267,1.1905901 10.428874,1.402531 L 10.185873,1.5 H 7.0929366 4 Z"
       id="path827"
       inkscape:connector-curvature="0" />
    <path
       style="fill:#fefefe;stroke-width:0.000357143"
       d="m 13,14 v -1 h 1 1 v 1 1 h -1 -1 z m -1.3125,0.471977 C 10.828137,14.245195 10.14363,13.947385 9.46875,13.50666 9.0081691,13.205881 8.7220494,12.966997 8.3100213,12.539226 7.3781756,11.571776 6.7932516,10.374143 6.5718978,8.9804156 6.4971934,8.51005 6.4975769,7.4896709 6.5726353,7.0130466 6.9581806,4.564875 8.5529794,2.6404333 10.921875,1.7648257 c 0.304239,-0.112455 1.110833,-0.3362841 1.132774,-0.3143437 0.006,0.00602 -0.0057,0.1066425 -0.02608,0.2235947 -0.06412,0.368233 2e-6,0.818061 0.172043,1.2068281 0.01895,0.042822 -0.0022,0.05926 -0.112067,0.087128 -0.07448,0.018891 -0.304174,0.091102 -0.510424,0.1604673 -1.8851597,0.6340131 -3.1543419,2.0811131 -3.5051378,3.9965 -0.075306,0.4111769 -0.075306,1.3388231 0,1.75 0.3507959,1.9153869 1.6199781,3.3624869 3.5051378,3.9964999 0.20625,0.06937 0.435941,0.141576 0.510424,0.160467 0.109873,0.02787 0.131017,0.04431 0.112067,0.08713 -0.134024,0.30286 -0.179085,0.505523 -0.181968,0.818405 -0.0017,0.180469 0.0084,0.394922 0.02233,0.476563 0.01394,0.08164 0.01394,0.147552 0,0.14647 -0.01394,-0.0011 -0.173008,-0.04093 -0.353477,-0.08856 z M 13,2 V 1 h 1 1 v 1 1 h -1 -1 z"
       id="path825"
       inkscape:connector-curvature="0" />
    <path
       style="fill:#98cbfe;stroke-width:0.000357143"
       d="m 1,14 v -1 h 1 1 v 1 1 H 2 1 Z m 3,0.01563 V 13.5 h 2.2836237 2.2836235 l 0.1773141,0.136331 c 0.294659,0.226554 0.7187678,0.492183 1.1148137,0.698233 l 0.375,0.195101 -3.1171875,7.93e-4 L 4,14.53125 Z M 1.5,8 V 4 H 2.015625 2.53125 v 4 4 H 2.015625 1.5 Z M 1,2 V 1 H 2 3 V 2 3 H 2 1 Z M 4,2.015625 V 1.5 l 3.0859375,7.35e-4 3.0859375,7.35e-4 -0.34375,0.1796942 C 9.4404691,1.88381 9.0159166,2.1528778 8.7272334,2.3788743 L 8.5325916,2.53125 H 6.2662959 4 Z"
       id="path823"
       inkscape:connector-curvature="0" />
    <path
       style="fill:#3232fe;stroke-width:0.000357143"
       d="m 0,14 v -2 h 2 2 v 2 2 H 2 0 Z m 3,0 V 13 H 2 1 v 1 1 H 2 3 Z M 0,2 V 0 H 2 4 V 2 4 H 2 0 Z M 3,2 V 1 H 2 1 v 1 1 h 1 1 z"
       id="path821"
       inkscape:connector-curvature="0" />
    <path
       style="fill:#323232;stroke-width:0.000357143"
       d="M 13.5625,15.951405 C 13.450781,15.927411 13.239844,15.848819 13.09375,15.776757 12.883801,15.673198 12.775173,15.592227 12.575496,15.390453 12.333097,15.145509 12.314748,15.133634 12.122371,15.097217 10.807924,14.848387 9.5520669,14.289403 8.6249094,13.540491 8.2733947,13.256555 7.5427697,12.490005 7.3125,12.16355 6.6681447,11.250045 6.2497172,10.218957 6.0714737,9.1054156 c -0.076656,-0.4788922 -0.076656,-1.731939 0,-2.2108312 C 6.2492344,5.78406 6.6698903,4.7474803 7.3125,3.8364497 7.5427697,3.509995 8.2733947,2.7434454 8.6249094,2.4595092 9.5546572,1.7085046 10.784192,1.1614831 12.122371,0.90348416 c 0.191986,-0.0370146 0.211219,-0.0494906 0.453125,-0.29393725 0.199909,-0.20200794 0.308062,-0.28258238 0.518254,-0.38610227 0.801976,-0.39497328 1.692815,-0.25316705 2.314394,0.36841142 0.787539,0.78753914 0.787539,2.02874864 0,2.81628804 -0.728363,0.7283631 -1.874689,0.7882403 -2.671137,0.139524 L 12.552859,3.3976778 12.30413,3.4511269 C 11.393948,3.6467156 10.482809,4.1382191 9.8419487,4.7793231 9.17968,5.4418441 8.7446181,6.2854966 8.5759069,7.234375 c -0.074474,0.4188625 -0.074474,1.1123875 0,1.53125 0.3044337,1.712219 1.4528791,3.02667 3.1627311,3.619899 0.17422,0.06044 0.428692,0.133952 0.565492,0.163349 l 0.248729,0.05345 0.184148,-0.14999 C 13.083512,12.170099 13.556564,12.001085 14,12.001085 c 0.925927,0 1.764918,0.677432 1.953145,1.57704 0.29819,1.425161 -0.965246,2.67942 -2.390645,2.37328 z M 15,14 v -1 h -1 -1 v 1 1 h 1 1 z m -2.959023,0.414063 c -0.01394,-0.08164 -0.02399,-0.296094 -0.02233,-0.476563 0.0029,-0.312883 0.04794,-0.515545 0.181968,-0.818405 0.01895,-0.04282 -0.0022,-0.05926 -0.112067,-0.08713 -0.07448,-0.01889 -0.304174,-0.0911 -0.510424,-0.160467 C 9.6929653,12.237487 8.4237831,10.790387 8.0729872,8.875 c -0.075306,-0.4111769 -0.075306,-1.3388231 0,-1.75 0.3507959,-1.9153869 1.6199781,-3.3624869 3.5051378,-3.9965 0.20625,-0.069366 0.435941,-0.1415758 0.510424,-0.1604673 0.109873,-0.027868 0.131017,-0.044306 0.112067,-0.087128 -0.172041,-0.3887671 -0.236168,-0.8385951 -0.172043,-1.2068281 0.02037,-0.1169522 0.0321,-0.2175698 0.02608,-0.2235947 -0.02194,-0.02194 -0.828535,0.2018887 -1.132774,0.3143437 C 10.270784,2.0054865 9.6421947,2.3453247 9.0868641,2.7568993 8.7724325,2.9899354 8.2176972,3.5249809 7.9600166,3.84375 7.2459884,4.7270541 6.7565737,5.8450609 6.5726366,7.0130466 6.4975769,7.4896709 6.4971934,8.51005 6.5718991,8.9804156 6.7431,10.058361 7.1241191,10.996627 7.7500013,11.881511 c 0.2370134,0.335094 0.8145584,0.945571 1.1537712,1.219559 0.6358644,0.513598 1.4662905,0.960131 2.2837285,1.227995 0.169337,0.05549 0.804085,0.227637 0.853477,0.231468 0.01394,0.0011 0.01394,-0.06483 0,-0.14647 z M 15,2 V 1 h -1 -1 v 1 1 h 1 1 z"
       id="path819"
       inkscape:connector-curvature="0" />
  </g>
</svg>
