<?xml version="1.0" encoding="UTF-8" standalone="no"?>
<!-- Created with Inkscape (http://www.inkscape.org/) -->

<svg
   version="1.1"
   id="svg2"
   width="1600"
   height="1600"
   viewBox="0 0 1600 1600"
   sodipodi:docname="curve_trim.svg"
   inkscape:version="1.2.2 (732a01da63, 2022-12-09)"
   xmlns:inkscape="http://www.inkscape.org/namespaces/inkscape"
   xmlns:sodipodi="http://sodipodi.sourceforge.net/DTD/sodipodi-0.dtd"
   xmlns="http://www.w3.org/2000/svg"
   xmlns:svg="http://www.w3.org/2000/svg"
   xmlns:rdf="http://www.w3.org/1999/02/22-rdf-syntax-ns#"
   xmlns:cc="http://creativecommons.org/ns#"
   xmlns:dc="http://purl.org/dc/elements/1.1/">
  <metadata
     id="metadata8">
    <rdf:RDF>
      <cc:Work
         rdf:about="">
        <dc:format>image/svg+xml</dc:format>
        <dc:type
           rdf:resource="http://purl.org/dc/dcmitype/StillImage" />
      </cc:Work>
    </rdf:RDF>
  </metadata>
  <defs
     id="defs6" />
  <sodipodi:namedview
     pagecolor="#808080"
     bordercolor="#666666"
     borderopacity="1"
     objecttolerance="10"
     gridtolerance="10"
     guidetolerance="10"
     inkscape:pageopacity="0"
     inkscape:pageshadow="2"
     inkscape:window-width="1993"
     inkscape:window-height="1009"
     id="namedview4"
     showgrid="false"
     inkscape:zoom="0.5"
     inkscape:cx="409"
     inkscape:cy="370"
     inkscape:window-x="-8"
     inkscape:window-y="-8"
     inkscape:window-maximized="1"
     inkscape:current-layer="CURVE_TRIM"
     inkscape:showpageshadow="0"
     inkscape:pagecheckerboard="true"
     inkscape:deskcolor="#d1d1d1" />
  <g
     id="CURVE_TRIM"
     transform="matrix(100,0,0,100,0,4.9999997e-5)"
     style="stroke-width:0.0114286">
    <path
       style="fill:none;stroke-width:0.000357143"
       d="M 0,8 V 0 h 8 8 v 8 8 H 8 0 Z m 4.421875,6.953145 c 0.3636512,-0.07609 0.7095447,-0.268277 0.9930237,-0.551756 0.1838397,-0.18384 0.266155,-0.245222 0.3291829,-0.24547 0.046224,-1.87e-4 0.2608784,-0.02763 0.4770103,-0.06099 2.4899362,-0.384368 4.4802271,-1.404417 5.8507221,-2.998571 1.082471,-1.2591247 1.624701,-2.8348937 1.497231,-4.3510887 -0.01929,-0.2294279 -0.05091,-0.4909694 -0.07027,-0.5812038 L 13.463571,6 h -1.339432 -1.339431 l 0.07507,0.1640625 C 11.226796,6.9661197 11.101187,8.0064084 10.526306,8.9259034 10.279644,9.3204263 9.9188616,9.741375 9.6073578,9.9980997 8.5888716,10.837482 7.4052144,11.34285 5.87178,11.593022 L 5.4928178,11.654848 5.3167213,11.497332 C 5.0988884,11.302484 4.7114522,11.107444 4.421875,11.046855 c -1.4200521,-0.297121 -2.6721408,0.954968 -2.3750202,2.37502 0.1186901,0.567266 0.5304395,1.099766 1.047953,1.355279 0.43249,0.213534 0.8702025,0.271582 1.3270672,0.175991 z M 15,4 V 3 H 11.5 8 v 1 1 h 3.5 3.5 z"
       id="path825"
       inkscape:connector-curvature="0" />
    <path
       style="fill:#fefefe;stroke-width:0.000357143"
       d="M 8,4 V 3 H 11.5 15 V 4 5 H 11.5 8 Z"
       id="path823"
       inkscape:connector-curvature="0" />
    <path
       style="fill:#fe9832;stroke-width:0.000357143"
       d="M 3.6957081,14.452684 C 2.9375322,14.287964 2.406005,13.523787 2.5316177,12.77907 2.667423,11.973925 3.4438894,11.400553 4.2209303,11.531618 c 0.805145,0.135805 1.3785169,0.912271 1.2474519,1.689312 -0.1031756,0.611696 -0.5748931,1.105206 -1.1787006,1.233155 -0.2547294,0.05398 -0.3399982,0.05378 -0.5939735,-0.0014 z m 2.2211188,-0.872672 c 0.053318,-0.138946 0.08968,-0.493978 0.073606,-0.718683 -0.015454,-0.216032 -0.07896,-0.484126 -0.1610159,-0.679736 -0.01789,-0.04265 8.594e-4,-0.05669 0.097658,-0.07316 2.3373794,-0.397619 4.0364819,-1.360892 4.986823,-2.827183 0.386326,-0.5960669 0.577614,-1.1241469 0.649688,-1.7935616 0.04854,-0.4508693 -0.0074,-0.9001122 -0.17833,-1.4330009 C 11.368863,6.0035931 11.419117,6 12.1501,6 h 0.78239 l 0.04876,0.2143737 c 0.13259,0.5829547 0.1279,1.3233941 -0.01265,1.9968297 -0.185615,0.8893766 -0.655596,1.8094066 -1.325644,2.5950656 -1.15226,1.351076 -3.0549939,2.355376 -5.158583,2.7228 -0.6294741,0.109948 -0.5887891,0.106296 -0.5675481,0.05094 z"
       id="path821"
       inkscape:connector-curvature="0" />
    <path
       style="fill:#320000;stroke-width:0.000357143"
       d="M 3.5625,14.951405 C 2.8323192,14.794581 2.2007041,14.157179 2.0468548,13.421875 1.7497342,12.001823 3.0018229,10.749734 4.421875,11.046855 c 0.2895772,0.06059 0.6770134,0.255629 0.8948462,0.450477 L 5.4928178,11.654848 5.87178,11.593022 C 7.4052144,11.34285 8.5888716,10.837482 9.6073578,9.9980997 9.9188616,9.741375 10.279644,9.3204263 10.526306,8.9259034 11.101187,8.0064084 11.226796,6.9661197 10.859781,6.1640625 L 10.784708,6 h 0.290794 0.290795 l 0.06475,0.2109375 c 0.10903,0.3552081 0.141511,0.5707753 0.142437,0.9453125 0.0011,0.4295884 -0.04558,0.7200484 -0.18364,1.1436278 -0.586909,1.8006632 -2.4710204,3.2120282 -4.9524729,3.7098382 -0.2147712,0.04309 -0.4444028,0.08751 -0.5102925,0.09872 -0.0968,0.01647 -0.1155487,0.03051 -0.097658,0.07316 0.1544856,0.368272 0.2063397,0.850382 0.1300394,1.209032 -0.025596,0.120313 -0.043133,0.222483 -0.038972,0.227046 0.00416,0.0046 0.2127912,-0.02703 0.4636222,-0.0702 C 8.9180631,13.111345 10.982876,11.893769 12.135074,10.15625 12.825563,9.1149897 13.163227,7.8947437 13.063847,6.7998597 13.044977,6.5919681 13.00933,6.3375 12.984632,6.234375 12.959934,6.13125 12.939225,6.0363281 12.938613,6.0234375 12.938001,6.0105469 13.055866,6 13.200536,6 h 0.263035 l 0.0352,0.1640625 c 0.07712,0.3594106 0.106757,0.9812791 0.06866,1.4405787 -0.06453,0.7781016 -0.235854,1.3975872 -0.582389,2.1059066 -1.124653,2.2987982 -3.5851196,3.8936662 -6.7639561,4.3843782 -0.2161319,0.03336 -0.4307866,0.06081 -0.4770103,0.06099 -0.063028,2.5e-4 -0.1453432,0.06163 -0.3291829,0.24547 -0.4951859,0.495186 -1.172004,0.696148 -1.8523987,0.550016 z m 0.7271816,-0.49732 C 4.8934891,14.326136 5.3652066,13.832626 5.4683822,13.22093 5.5994472,12.443889 5.0260753,11.667423 4.2209303,11.531618 3.4438894,11.400553 2.667423,11.973925 2.5316178,12.77907 c -0.1256128,0.744717 0.4059144,1.508894 1.1640903,1.673614 0.2539753,0.05518 0.3392441,0.05538 0.5939735,0.0014 z"
       id="path819"
       inkscape:connector-curvature="0" />
  </g>
</svg>
