<?xml version="1.0" encoding="UTF-8" standalone="no"?>
<!-- Created with Inkscape (http://www.inkscape.org/) -->

<svg
   version="1.1"
   id="svg2"
   width="1600"
   height="1600"
   viewBox="0 0 1600 1600"
   sodipodi:docname="curve_tilt.svg"
   inkscape:version="1.2.2 (732a01da63, 2022-12-09)"
   xmlns:inkscape="http://www.inkscape.org/namespaces/inkscape"
   xmlns:sodipodi="http://sodipodi.sourceforge.net/DTD/sodipodi-0.dtd"
   xmlns="http://www.w3.org/2000/svg"
   xmlns:svg="http://www.w3.org/2000/svg"
   xmlns:rdf="http://www.w3.org/1999/02/22-rdf-syntax-ns#"
   xmlns:cc="http://creativecommons.org/ns#"
   xmlns:dc="http://purl.org/dc/elements/1.1/">
  <metadata
     id="metadata8">
    <rdf:RDF>
      <cc:Work
         rdf:about="">
        <dc:format>image/svg+xml</dc:format>
        <dc:type
           rdf:resource="http://purl.org/dc/dcmitype/StillImage" />
      </cc:Work>
    </rdf:RDF>
  </metadata>
  <defs
     id="defs6" />
  <sodipodi:namedview
     pagecolor="#808080"
     bordercolor="#666666"
     borderopacity="1"
     objecttolerance="10"
     gridtolerance="10"
     guidetolerance="10"
     inkscape:pageopacity="0"
     inkscape:pageshadow="2"
     inkscape:window-width="1993"
     inkscape:window-height="1009"
     id="namedview4"
     showgrid="false"
     inkscape:zoom="0.5"
     inkscape:cx="3"
     inkscape:cy="8"
     inkscape:window-x="-8"
     inkscape:window-y="-8"
     inkscape:window-maximized="1"
     inkscape:current-layer="CURVE_TILT"
     inkscape:showpageshadow="0"
     inkscape:pagecheckerboard="true"
     inkscape:deskcolor="#d1d1d1" />
  <g
     id="CURVE_TILT"
     transform="matrix(100,0,0,100,0,4.9999997e-5)"
     style="stroke-width:0.0114286">
    <path
       style="fill:none;stroke-width:0.000357143"
       d="M 0,8 V 0 h 8 8 v 8 8 H 8 0 Z m 4.546875,6.953145 c 0.3636512,-0.07609 0.7095447,-0.268277 0.9930237,-0.551756 0.1838397,-0.18384 0.266155,-0.245222 0.3291829,-0.24547 0.2895884,-0.0011 1.3475028,-0.2064 1.9434184,-0.377067 2.0778528,-0.595087 3.597514,-1.607248 4.796875,-3.194929 0.0496,-0.06566 0.11088,-0.09241 0.296875,-0.129612 0.909218,-0.181847 1.592665,-1.0204838 1.592665,-1.954311 0,-0.9259269 -0.677432,-1.7649184 -1.57704,-1.9531453 -1.39548,-0.2919791 -2.632826,0.9085331 -2.387629,2.3165544 0.03198,0.1836559 0.02953,0.2034465 -0.03712,0.2994347 C 10.308163,9.4349928 9.9910894,9.7820322 9.7419491,9.9893916 8.73312,10.829041 7.5349631,11.342075 5.99678,11.593022 L 5.6178178,11.654848 5.4417212,11.497332 C 5.2238884,11.302484 4.8364522,11.107444 4.546875,11.046855 c -1.4200522,-0.297121 -2.6721408,0.954968 -2.3750202,2.37502 0.1186901,0.567266 0.5304395,1.099766 1.047953,1.355279 0.43249,0.213534 0.8702025,0.271582 1.3270672,0.175991 z m 10.47655,-5.7132884 c -0.0047,-0.690515 -0.0085,-0.1164191 -0.0085,1.2757684 2e-6,1.392188 0.0038,1.957154 0.0085,1.255482 0.0047,-0.701673 0.0047,-1.8407357 -5e-6,-2.5312504 z M 3,6.4847125 C 4.0742187,5.6808141 4.9655109,5.0118284 4.9806491,4.9980778 4.9957875,4.9843272 4.6462719,4.7920188 4.2039478,4.5707256 L 3.3997225,4.168375 3.6451737,3.9069284 C 5.4861603,1.9459706 8.3898878,1.4565796 10.773699,2.7054947 c 0.911707,0.4776572 1.741465,1.2374647 2.25912,2.0686703 l 0.139056,0.2232844 0.570313,0.00128 c 0.313671,7e-4 0.570312,-0.00812 0.570312,-0.019594 0,-0.011478 -0.06519,-0.1415559 -0.144858,-0.2890625 C 13.237941,2.9688022 11.602258,1.6901162 9.7312116,1.2219136 9.0684081,1.0560565 8.7383737,1.0169904 8,1.0169904 c -0.7383738,0 -1.0684081,0.039066 -1.7312116,0.2049232 C 5.3058259,1.4628812 4.3694934,1.934917 3.578125,2.5783653 3.2955425,2.8081283 2.799165,3.3004853 2.5859542,3.5625 L 2.4715226,3.703125 1.7355886,3.3359375 C 1.330825,3.1339844 0.99270113,2.96875 0.98420234,2.96875 c -0.008499,0 -0.0154523,1.1337531 -0.0154523,2.5194513 0,2.0110762 0.007882,2.5132662 0.0390625,2.4887981 C 1.0292969,7.96014 1.9257812,7.2886109 3,6.4847125 Z"
       id="path827"
       inkscape:connector-curvature="0" />
    <path
       style="fill:#fefefe;stroke-width:0.000357143"
       d="m 15.0149,10.515625 c -2e-6,-1.3921875 0.0038,-1.9662834 0.0085,-1.2757684 0.0047,0.6905147 0.0047,1.8295774 5e-6,2.5312504 -0.0047,0.701672 -0.0085,0.136706 -0.0085,-1.255482 z M 0.96875,5.4882013 c 0,-1.3856982 0.006954,-2.5194513 0.0154523,-2.5194513 0.008499,0 0.3466227,0.1652344 0.7513863,0.3671875 L 2.4715226,3.703125 2.5859542,3.5625 C 2.799165,3.3004853 3.2955425,2.8081283 3.578125,2.5783653 4.3694934,1.934917 5.3058259,1.4628812 6.2687884,1.2219136 6.9315919,1.0560565 7.2616262,1.0169904 8,1.0169904 c 0.7383738,0 1.0684081,0.039066 1.7312116,0.2049232 1.8710464,0.4682026 3.5067294,1.7468886 4.4364304,3.4681548 0.07967,0.1475066 0.144858,0.2775847 0.144858,0.2890625 0,0.011478 -0.256641,0.020295 -0.570312,0.019594 L 13.171875,4.9974497 13.032819,4.7741653 C 12.956338,4.6513587 12.809641,4.4445109 12.706826,4.3145031 11.55611,2.8594416 9.8326091,2.0188363 8,2.0188363 c -1.64527,0 -3.2254338,0.6851008 -4.3548263,1.8880921 L 3.3997225,4.168375 4.2039478,4.5707256 C 4.6462719,4.7920188 4.9957875,4.9843272 4.9806491,4.9980778 4.9655109,5.0118284 4.0742187,5.6808141 3,6.4847125 1.9257812,7.2886109 1.0292969,7.96014 1.0078125,7.9769994 0.97663203,8.0014675 0.96875,7.4992775 0.96875,5.4882013 Z"
       id="path825"
       inkscape:connector-curvature="0" />
    <path
       style="fill:#fefe00;stroke-width:0.000357143"
       d="M 3.8207081,14.452684 C 3.0625322,14.287964 2.531005,13.523787 2.6566177,12.77907 2.792423,11.973925 3.5688894,11.400553 4.3459303,11.531618 c 0.805145,0.135805 1.3785169,0.912271 1.2474519,1.689312 -0.1031756,0.611696 -0.5748931,1.105206 -1.1787006,1.233155 -0.2547294,0.05398 -0.3399982,0.05378 -0.5939735,-0.0014 z M 12.195708,9.9526841 c -0.758176,-0.16472 -1.289703,-0.9288975 -1.16409,-1.6736144 0.135805,-0.805145 0.912271,-1.3785169 1.689312,-1.2474519 0.805145,0.1358053 1.378517,0.9122716 1.247452,1.6893125 -0.103175,0.6116953 -0.574893,1.1052053 -1.1787,1.2331547 -0.25473,0.053978 -0.339999,0.053777 -0.593974,-0.0014 z"
       id="path823"
       inkscape:connector-curvature="0" />
    <path
       style="fill:#fe9832;stroke-width:0.000357143"
       d="m 6.0418269,13.580012 c 0.053318,-0.138946 0.08968,-0.493978 0.073606,-0.718683 -0.015454,-0.216032 -0.07896,-0.484126 -0.1610159,-0.679736 -0.01789,-0.04265 8.594e-4,-0.05669 0.097658,-0.07316 0.3951322,-0.06722 0.9507356,-0.191475 1.2759175,-0.285353 1.3972032,-0.403362 2.6659053,-1.187943 3.3883045,-2.0953697 l 0.104817,-0.1316647 0.103806,0.1359503 c 0.226323,0.2964071 0.608947,0.5613141 0.973789,0.6741981 l 0.166102,0.05139 -0.29399,0.343988 c -1.162915,1.360692 -3.0522685,2.359094 -5.1614466,2.727494 -0.6294741,0.109948 -0.5887891,0.106296 -0.5675481,0.05094 z"
       id="path821"
       inkscape:connector-curvature="0" />
    <path
       style="fill:#320000;stroke-width:0.000357143"
       d="m 3.6875,14.951405 c -0.7301808,-0.156824 -1.3617959,-0.794226 -1.5156452,-1.52953 -0.2971206,-1.420052 0.954968,-2.672141 2.3750202,-2.37502 0.2895772,0.06059 0.6770134,0.255629 0.8948462,0.450477 L 5.6178178,11.654848 5.99678,11.593022 C 7.5349631,11.342075 8.73312,10.829041 9.7419491,9.9893916 9.9910894,9.7820322 10.308163,9.4349928 10.497127,9.1628438 c 0.06665,-0.095988 0.0691,-0.1157788 0.03712,-0.2994347 -0.245197,-1.4080213 0.992149,-2.6085335 2.387629,-2.3165544 0.899608,0.1882269 1.57704,1.0272184 1.57704,1.9531453 0,0.9338272 -0.683447,1.772464 -1.592665,1.954311 -0.185995,0.0372 -0.247276,0.06395 -0.296875,0.129612 -0.437092,0.57861 -0.998464,1.162118 -1.500088,1.559236 -1.2595389,0.997137 -2.8797042,1.661016 -4.7631951,1.951767 -0.2161319,0.03336 -0.4307866,0.06081 -0.4770103,0.06099 -0.063028,2.5e-4 -0.1453432,0.06163 -0.3291829,0.24547 -0.4951859,0.495186 -1.172004,0.696148 -1.8523987,0.550016 z m 0.7271816,-0.49732 C 5.0184891,14.326136 5.4902066,13.832626 5.5933822,13.22093 5.7244472,12.443889 5.1510753,11.667423 4.3459303,11.531618 3.5688894,11.400553 2.792423,11.973925 2.6566178,12.77907 c -0.1256128,0.744717 0.4059144,1.508894 1.1640903,1.673614 0.2539753,0.05518 0.3392441,0.05538 0.5939735,0.0014 z M 6.609375,13.529069 c 2.1091781,-0.3684 3.998532,-1.366802 5.161447,-2.727494 l 0.29399,-0.343988 -0.166102,-0.05139 C 11.533868,10.29331 11.151244,10.028403 10.924921,9.7319959 L 10.821115,9.5960456 10.716298,9.7277103 C 9.9938984,10.635137 8.7251963,11.419718 7.3279931,11.82308 c -0.3251819,0.09388 -0.8807853,0.218136 -1.2759175,0.285353 -0.0968,0.01647 -0.1155487,0.03051 -0.097658,0.07316 0.082056,0.19561 0.1455622,0.463704 0.1610159,0.679736 0.016074,0.224705 -0.020288,0.579737 -0.073606,0.718683 -0.021241,0.05535 -0.061926,0.05901 0.5675481,-0.05094 z m 6.180307,-3.574984 c 0.603807,-0.1279494 1.075525,-0.6214594 1.1787,-1.2331547 0.131065,-0.7770409 -0.442307,-1.5535072 -1.247452,-1.6893125 -0.777041,-0.131065 -1.553507,0.4423069 -1.689312,1.2474519 -0.125613,0.7447169 0.405914,1.5088944 1.16409,1.6736144 0.253975,0.055178 0.339244,0.055379 0.593974,0.0014 z"
       id="path819"
       inkscape:connector-curvature="0" />
  </g>
</svg>
