<?xml version="1.0" encoding="UTF-8" standalone="no"?>
<!-- Created with Inkscape (http://www.inkscape.org/) -->

<svg
   version="1.1"
   id="svg2"
   width="1600"
   height="1600"
   viewBox="0 0 1600 1600"
   sodipodi:docname="decorate_locked.svg"
   inkscape:version="1.2.2 (732a01da63, 2022-12-09)"
   xmlns:inkscape="http://www.inkscape.org/namespaces/inkscape"
   xmlns:sodipodi="http://sodipodi.sourceforge.net/DTD/sodipodi-0.dtd"
   xmlns="http://www.w3.org/2000/svg"
   xmlns:svg="http://www.w3.org/2000/svg"
   xmlns:rdf="http://www.w3.org/1999/02/22-rdf-syntax-ns#"
   xmlns:cc="http://creativecommons.org/ns#"
   xmlns:dc="http://purl.org/dc/elements/1.1/">
  <metadata
     id="metadata8">
    <rdf:RDF>
      <cc:Work
         rdf:about="">
        <dc:format>image/svg+xml</dc:format>
        <dc:type
           rdf:resource="http://purl.org/dc/dcmitype/StillImage" />
      </cc:Work>
    </rdf:RDF>
  </metadata>
  <defs
     id="defs6" />
  <sodipodi:namedview
     pagecolor="#808080"
     bordercolor="#666666"
     borderopacity="1"
     objecttolerance="10"
     gridtolerance="10"
     guidetolerance="10"
     inkscape:pageopacity="0"
     inkscape:pageshadow="2"
     inkscape:window-width="1993"
     inkscape:window-height="1009"
     id="namedview4"
     showgrid="false"
     fit-margin-top="0"
     fit-margin-left="0"
     fit-margin-right="0"
     fit-margin-bottom="0"
     inkscape:zoom="0.25"
     inkscape:cx="102"
     inkscape:cy="760"
     inkscape:window-x="-8"
     inkscape:window-y="-8"
     inkscape:window-maximized="1"
     inkscape:current-layer="DECORATE_LOCKED"
     inkscape:showpageshadow="0"
     inkscape:pagecheckerboard="true"
     inkscape:deskcolor="#d1d1d1" />
  <g
     id="DECORATE_LOCKED"
     transform="matrix(100,0,0,100,0,4.9999997e-5)"
     style="stroke-width:0.0114286">
    <path
       style="fill:none;stroke-width:0.000357143"
       d="M 10,11 V 6 H 9.625 9.25 V 5.7845609 C 9.25,5.018975 9.047075,4.1149687 8.7172141,3.4110638 8.3324115,2.5899166 7.5745709,1.8015009 6.796875,1.4132486 6.5524128,1.2912047 6.1414481,1.1473176 5.828125,1.0740695 c -0.3571338,-0.08349 -1.2991162,-0.08349 -1.65625,0 C 3.8585519,1.1473176 3.4475872,1.2912047 3.203125,1.4132486 2.4254291,1.8015009 1.6675886,2.5899166 1.282786,3.4110638 0.95292497,4.1149687 0.75,5.018975 0.75,5.7845609 V 6 H 0.375 0 V 3 0 h 8 8 v 8 8 H 13 10 Z M 3.264985,5.7313615 C 3.2955219,5.3647737 3.3810844,4.9645763 3.4849104,4.7027193 3.6493612,4.2879604 3.9408513,3.9076068 4.1931922,3.7785109 4.2564791,3.7461334 4.3163975,3.7064753 4.326344,3.6903815 4.3507531,3.6508869 4.7003516,3.539269 4.8769453,3.5145885 c 0.2908503,-0.040649 0.7164318,0.090223 1.0085912,0.310154 0.439975,0.3312034 0.7341957,0.9418007 0.8298216,1.7221325 0.018956,0.1546875 0.034505,0.3199219 0.034554,0.3671875 L 6.75,6 H 4.9963037 3.2426078 Z"
       id="path829"
       inkscape:connector-curvature="0" />
    <path
       style="fill:#fefefe;stroke-width:0.000357143"
       d="M 4,13 V 12 H 3.5 3 V 10 8 h 2 2 v 3 3 H 5.5 4 Z M 6,11 V 9 H 5 4 v 1 1 H 4.5 5 v 1 1 H 5.5 6 Z M 1.7813757,5.7109375 C 1.7815905,5.2043331 1.9096018,4.5906356 2.1235412,4.0704953 2.455079,3.264444 3.0671369,2.6098581 3.7999803,2.277571 c 0.7583447,-0.3438498 1.6416947,-0.3438498 2.4000394,0 0.7328434,0.3322871 1.3449012,0.986873 1.6764391,1.7929243 0.2139396,0.5201403 0.3419453,1.1338378 0.3421656,1.6404422 L 8.21875,6 h -0.25 -0.25 V 5.6284521 C 7.71875,4.1923109 6.9070394,2.9648146 5.7070987,2.5863652 5.4047525,2.4910083 4.6206784,2.4842262 4.328125,2.5744372 3.101537,2.9526652 2.3399091,4.078681 2.2594646,5.6328125 L 2.2404584,6 H 2.0108542 1.78125 l 1.27e-4,-0.2890625 z"
       id="path827"
       inkscape:connector-curvature="0" />
    <path
       style="fill:#a2c9df;stroke-width:0.000357143"
       d="M 1.25,5.8470609 C 1.25,5.5986997 1.3111111,5.0683878 1.3755515,4.7575466 1.6996064,3.194401 2.6916814,2.0342209 4.0378622,1.6441131 c 0.6538357,-0.1894742 1.2704399,-0.1894742 1.9242756,0 1.1702807,0.339134 2.0778734,1.258706 2.5072669,2.54036 C 8.6290203,4.660894 8.75,5.3777247 8.75,5.8470609 V 6 H 8.484375 8.21875 L 8.218623,5.7109375 C 8.2184063,5.2043331 8.090399,4.5906356 7.8764594,4.0704953 7.5449216,3.264444 6.9328638,2.6098581 6.2000203,2.277571 5.4416756,1.9337212 4.5583256,1.9337212 3.799981,2.277571 3.0671369,2.6098581 2.455079,3.264444 2.1235412,4.0704953 1.9096018,4.5906356 1.7815959,5.2043331 1.7813757,5.7109375 L 1.78125,6 H 1.515625 1.25 Z M 2.2594646,5.6328125 C 2.3087943,4.6797975 2.6075949,3.8934109 3.1379891,3.3207025 3.4717928,2.9602684 3.8539091,2.7206654 4.328125,2.5744372 4.6206784,2.4842262 5.4047525,2.4910083 5.7070987,2.5863652 6.5676081,2.8577613 7.2068766,3.524751 7.5339885,4.4924763 7.6657963,4.8824156 7.71875,5.2079928 7.71875,5.6284521 V 6 H 7.4890725 7.259395 L 7.2391784,5.6915109 C 7.2018115,5.1213188 7.0863534,4.6688675 6.8673375,4.23436 6.5829912,3.6702428 6.1718456,3.2976062 5.6166447,3.1008102 5.423835,3.0324669 5.335525,3.0204246 5.015625,3.018853 4.6269325,3.0169434 4.5022362,3.0416403 4.1623729,3.1878456 4.0730678,3.2262635 4,3.2665943 4,3.2774697 4,3.288345 3.9580287,3.3158213 3.9067303,3.3385281 3.7617932,3.4026838 3.4298838,3.742124 3.2698291,3.9898807 2.9615052,4.467151 2.7504607,5.2230997 2.750088,5.8515625 L 2.75,6 H 2.4952292 2.2404584 Z"
       id="path825"
       inkscape:connector-curvature="0" />
    <path
       style="fill:#febe00;stroke-width:0.000357143"
       d="M 1,11 V 7 h 4 4 v 4 4 H 5 1 Z m 6,0 V 8 H 5 3 v 2 2 H 3.5 4 v 1 1 H 5.5 7 Z"
       id="path823"
       inkscape:connector-curvature="0" />
    <path
       style="fill:#4c4425;stroke-width:0.000357143"
       d="M 0,11 V 6 h 5 5 v 5 5 H 5 0 Z m 9,0 V 7 H 5 1 v 4 4 h 4 4 z"
       id="path821"
       inkscape:connector-curvature="0" />
    <path
       style="fill:#000000;stroke-width:0.000357143"
       d="M 5,12 V 11 H 4.5 4 V 10 9 h 1 1 v 2 2 H 5.5 5 Z M 0.75,5.7845609 C 0.75,5.018975 0.95292497,4.1149687 1.282786,3.4110638 1.6675886,2.5899166 2.4254291,1.8015009 3.203125,1.4132486 3.4475872,1.2912047 3.8585519,1.1473176 4.171875,1.0740695 c 0.3571338,-0.08349 1.2991162,-0.08349 1.65625,0 0.3133231,0.073248 0.7242878,0.2171352 0.96875,0.3391791 0.7776959,0.3882523 1.5355365,1.176668 1.9203391,1.9978152 C 9.047075,4.1149687 9.25,5.018975 9.25,5.7845609 V 6 H 9 8.75 V 5.8470609 C 8.75,5.7629447 8.7352466,5.5484916 8.7172144,5.3704984 8.5996172,4.2097019 8.1776666,3.2464166 7.4821284,2.5508783 6.0865328,1.1552827 3.9134672,1.1552827 2.5178717,2.5508783 1.8223334,3.2464166 1.4003828,4.2097019 1.2827854,5.3704984 1.2647535,5.5484916 1.25,5.7629447 1.25,5.8470609 V 6 H 1 0.75 Z m 2.000088,0.067002 C 2.7504591,5.2230997 2.9615052,4.467151 3.2698291,3.9898807 3.4298838,3.742124 3.7617932,3.4026838 3.9067303,3.3385281 3.9580287,3.3158213 4,3.288345 4,3.2774697 4,3.2665943 4.0730678,3.2262635 4.1623729,3.1878456 4.5022362,3.0416403 4.6269325,3.0169434 5.015625,3.018853 c 0.3199,0.00157 0.40821,0.013614 0.6010197,0.081957 0.9556485,0.3387385 1.5356434,1.2648167 1.6225337,2.5907007 L 7.259395,6 H 7.0104572 6.7615193 L 6.7246281,5.6460872 C 6.5972334,4.4239344 6.0641994,3.687844 5.1894453,3.5260862 5.0959841,3.5088034 4.9553591,3.5036297 4.8769453,3.5145885 4.7003516,3.539269 4.3507531,3.6508869 4.326344,3.6903815 4.3163975,3.7064753 4.2564791,3.7461334 4.1931922,3.7785109 3.9408513,3.9076068 3.6493612,4.2879604 3.4849104,4.7027193 3.3810844,4.9645763 3.2955219,5.3647737 3.264985,5.7313615 L 3.2426078,6 H 2.9963038 2.75 Z"
       id="path819"
       inkscape:connector-curvature="0" />
  </g>
</svg>
