<?xml version="1.0" encoding="UTF-8" standalone="no"?>
<!-- Created with Inkscape (http://www.inkscape.org/) -->

<svg
   version="1.1"
   id="svg2"
   width="1600"
   height="1600"
   viewBox="0 0 1600 1600"
   sodipodi:docname="degenerate_dissolve.svg"
   inkscape:version="1.2.2 (732a01da63, 2022-12-09)"
   xmlns:inkscape="http://www.inkscape.org/namespaces/inkscape"
   xmlns:sodipodi="http://sodipodi.sourceforge.net/DTD/sodipodi-0.dtd"
   xmlns="http://www.w3.org/2000/svg"
   xmlns:svg="http://www.w3.org/2000/svg"
   xmlns:rdf="http://www.w3.org/1999/02/22-rdf-syntax-ns#"
   xmlns:cc="http://creativecommons.org/ns#"
   xmlns:dc="http://purl.org/dc/elements/1.1/">
  <metadata
     id="metadata8">
    <rdf:RDF>
      <cc:Work
         rdf:about="">
        <dc:format>image/svg+xml</dc:format>
        <dc:type
           rdf:resource="http://purl.org/dc/dcmitype/StillImage" />
      </cc:Work>
    </rdf:RDF>
  </metadata>
  <defs
     id="defs6" />
  <sodipodi:namedview
     pagecolor="#808080"
     bordercolor="#666666"
     borderopacity="1"
     objecttolerance="10"
     gridtolerance="10"
     guidetolerance="10"
     inkscape:pageopacity="0"
     inkscape:pageshadow="2"
     inkscape:window-width="1993"
     inkscape:window-height="1009"
     id="namedview4"
     showgrid="false"
     inkscape:zoom="0.5"
     inkscape:cx="419"
     inkscape:cy="480"
     inkscape:window-x="-8"
     inkscape:window-y="-8"
     inkscape:window-maximized="1"
     inkscape:current-layer="DEGENERATE_DISSOLVE"
     inkscape:showpageshadow="0"
     inkscape:pagecheckerboard="true"
     inkscape:deskcolor="#d1d1d1" />
  <g
     id="DEGENERATE_DISSOLVE"
     transform="matrix(100,0,0,100,0,4.9999997e-5)"
     style="stroke-width:0.0114286">
    <path
       style="fill:none;stroke-width:0.000357143"
       d="M 0,8 V 0 h 8 8 v 8 8 H 8 0 Z m 5.2208906,6.700289 c 0.1606547,-0.04705 0.2233122,-0.103053 1.1713022,-1.046875 0.9712966,-0.967026 1.0052509,-0.997164 1.1234322,-0.997164 0.1181872,0 0.1520875,0.0301 1.1234322,0.997413 0.9752172,0.971172 1.0063675,0.998794 1.1840062,1.049892 0.1507335,0.04336 0.2072196,0.04624 0.3250336,0.01657 0.297509,-0.07491 0.473234,-0.235697 0.553686,-0.50661 0.05932,-0.199754 0.05934,-0.195455 -0.0015,-0.403159 C 10.653238,13.649705 10.597237,13.587047 9.6534147,12.639057 8.6863881,11.667761 8.65625,11.633806 8.65625,11.515625 c 0,-0.118187 0.030098,-0.152087 0.9974131,-1.123432 C 10.624835,9.4169756 10.652457,9.3858253 10.703555,9.2081866 10.746914,9.0574531 10.749794,9.0009675 10.720128,8.8831534 10.645215,8.5856441 10.484431,8.4099188 10.213518,8.3294666 10.013764,8.2701456 10.018063,8.2701297 9.8103594,8.3309603 9.6497047,8.3780119 9.5870472,8.4340131 8.6390572,9.3778353 7.6677606,10.344862 7.6338062,10.375 7.515625,10.375 7.3974437,10.375 7.3634894,10.344862 6.3921928,9.3778359 5.4442028,8.4340138 5.3815453,8.3780125 5.2208906,8.3309609 5.0131869,8.2701297 5.0174859,8.2701456 4.8177316,8.3294672 c -0.2709122,0.080452 -0.4316963,0.2561775 -0.50661,0.5536869 -0.029666,0.117814 -0.026786,0.1742997 0.016573,0.3250331 0.051098,0.1776387 0.07872,0.208789 1.0498919,1.1840058 C 6.3449022,11.363538 6.375,11.397438 6.375,11.515625 c 0,0.118187 -0.030098,0.152088 -0.9974131,1.123432 -0.9711716,0.975217 -0.9987935,1.006368 -1.0498919,1.184006 -0.043359,0.150734 -0.046239,0.20722 -0.016573,0.325034 0.073413,0.291548 0.2143887,0.452167 0.476255,0.542614 0.2046768,0.07069 0.2234228,0.07111 0.433514,0.0096 z M 15,4 V 1 H 8 1 v 3 3 h 7 7 z"
       id="path825"
       inkscape:connector-curvature="0" />
    <path
       style="fill:#febf00;stroke-width:0.000357143"
       d="M 1.5,4 V 1.5 H 8 14.5 V 4 6.5 H 8 1.5 Z"
       id="path823"
       inkscape:connector-curvature="0" />
    <path
       style="fill:#fe0000;stroke-width:0.000357143"
       d="m 4.7873766,14.690711 c -0.2618663,-0.09045 -0.4028422,-0.251066 -0.476255,-0.542614 -0.029666,-0.117815 -0.026786,-0.1743 0.016573,-0.325034 0.051098,-0.177638 0.07872,-0.208789 1.0498919,-1.184006 C 6.3449022,11.667713 6.375,11.633812 6.375,11.515625 6.375,11.397438 6.3449022,11.363538 5.3775869,10.392193 4.4064153,9.4169756 4.3787934,9.3858253 4.327695,9.2081866 4.2843356,9.0574531 4.2814556,9.0009675 4.3111216,8.8831534 c 0.074914,-0.2975093 0.2356978,-0.4732346 0.50661,-0.5536868 0.1997543,-0.059321 0.1954553,-0.059337 0.403159,0.00149 0.1606547,0.047052 0.2233122,0.1030528 1.1713022,1.046875 C 7.3634894,10.344862 7.3974437,10.375 7.515625,10.375 c 0.1181812,0 0.1521356,-0.03014 1.1234322,-0.9971641 0.94799,-0.9438221 1.0106475,-0.9998234 1.1713022,-1.046875 0.2077036,-0.060831 0.2034046,-0.060815 0.4031586,-0.00149 0.270913,0.080452 0.431697,0.2561775 0.50661,0.5536869 0.02967,0.117814 0.02679,0.1742997 -0.01657,0.3250331 -0.0511,0.1776387 -0.07872,0.208789 -1.0498919,1.1840061 -0.9673153,0.971345 -0.9974131,1.005245 -0.9974131,1.123432 0,0.118181 0.030138,0.152136 0.9971641,1.123432 0.9438219,0.94799 0.9998229,1.010648 1.0468749,1.171302 0.06083,0.207704 0.06081,0.203405 0.0015,0.403159 -0.08045,0.270913 -0.256178,0.431697 -0.553687,0.50661 -0.117814,0.02967 -0.1742997,0.02679 -0.3250332,-0.01657 -0.1776387,-0.0511 -0.208789,-0.07872 -1.1840062,-1.049892 -0.9713531,-0.967322 -1.0052534,-0.99742 -1.1234406,-0.99742 -0.1181813,0 -0.1521356,0.03014 -1.1234322,0.997164 -0.94799,0.943822 -1.0106475,0.999823 -1.1713022,1.046875 -0.2100912,0.06153 -0.2288372,0.06112 -0.433514,-0.0096 z"
       id="path821"
       inkscape:connector-curvature="0" />
    <path
       style="fill:#000000;stroke-width:0.000357143"
       d="M 1,4 V 1 h 7 7 V 4 7 H 8 1 Z M 14.5,4 V 1.5 H 8 1.5 V 4 6.5 H 8 14.5 Z"
       id="path819"
       inkscape:connector-curvature="0" />
  </g>
</svg>
