<?xml version="1.0" encoding="UTF-8" standalone="no"?>
<!-- Created with Inkscape (http://www.inkscape.org/) -->

<svg
   version="1.1"
   id="svg2"
   width="1600"
   height="1600"
   viewBox="0 0 1600 1600"
   sodipodi:docname="degree.svg"
   inkscape:version="1.2.2 (732a01da63, 2022-12-09)"
   xmlns:inkscape="http://www.inkscape.org/namespaces/inkscape"
   xmlns:sodipodi="http://sodipodi.sourceforge.net/DTD/sodipodi-0.dtd"
   xmlns="http://www.w3.org/2000/svg"
   xmlns:svg="http://www.w3.org/2000/svg"
   xmlns:rdf="http://www.w3.org/1999/02/22-rdf-syntax-ns#"
   xmlns:cc="http://creativecommons.org/ns#"
   xmlns:dc="http://purl.org/dc/elements/1.1/">
  <metadata
     id="metadata8">
    <rdf:RDF>
      <cc:Work
         rdf:about="">
        <dc:format>image/svg+xml</dc:format>
        <dc:type
           rdf:resource="http://purl.org/dc/dcmitype/StillImage" />
      </cc:Work>
    </rdf:RDF>
  </metadata>
  <defs
     id="defs6" />
  <sodipodi:namedview
     pagecolor="#808080"
     bordercolor="#666666"
     borderopacity="1"
     objecttolerance="10"
     gridtolerance="10"
     guidetolerance="10"
     inkscape:pageopacity="0"
     inkscape:pageshadow="2"
     inkscape:window-width="1993"
     inkscape:window-height="1009"
     id="namedview4"
     showgrid="false"
     inkscape:zoom="0.25"
     inkscape:cx="354"
     inkscape:cy="780"
     inkscape:window-x="-8"
     inkscape:window-y="-8"
     inkscape:window-maximized="1"
     inkscape:current-layer="DEGREE"
     inkscape:showpageshadow="0"
     inkscape:pagecheckerboard="true"
     inkscape:deskcolor="#d1d1d1" />
  <g
     id="DEGREE"
     transform="matrix(100,0,0,100,0,4.9999997e-5)"
     style="stroke-width:0.0114286">
    <path
       style="fill:none;stroke-width:0.000357143"
       d="M 0,8 V 0 h 8 8 v 8 8 H 8 0 Z M 10.90625,8.029445 C 11.91574,7.8675166 12.754817,7.1122619 13.022061,6.125 13.097191,5.8474531 13.096545,5.1009519 13.02093,4.8162812 12.895142,4.3427306 12.714633,4.0114769 12.39479,3.6672456 11.666101,2.8829951 10.508381,2.6322342 9.46875,3.0334691 9.1449037,3.1584544 8.9375641,3.3046369 8.609375,3.6393628 8.2872684,3.9678847 8.1546753,4.1733456 8.0289847,4.5387122 7.905355,4.8980872 7.8642284,5.2029678 7.8845581,5.609375 7.9044097,6.0062172 7.9648025,6.2657722 8.1124391,6.5887587 8.5911975,7.6361431 9.7222097,8.2193731 10.90625,8.029445 Z M 10.015625,6.6879412 C 9.6784603,6.5538803 9.3300388,6.1824372 9.2301653,5.8505828 9.1682097,5.64472 9.1761503,5.2607847 9.2470772,5.0328969 9.3239463,4.7859159 9.5195163,4.5338747 9.7577153,4.3748116 10.020617,4.1992525 10.224656,4.1461762 10.574828,4.1622575 c 0.240949,0.011065 0.316898,0.028624 0.495691,0.1146 0.268163,0.1289506 0.488882,0.3488256 0.622379,0.6199969 0.09957,0.2022431 0.103977,0.2264856 0.103977,0.5712384 0,0.3307528 -0.0071,0.3744703 -0.08718,0.5375694 -0.11727,0.2388034 -0.384996,0.5002834 -0.641554,0.6265869 -0.191329,0.094191 -0.234205,0.1027356 -0.551854,0.1099725 -0.283205,0.00645 -0.372174,-0.00319 -0.500658,-0.05428 z"
       id="path821"
       inkscape:connector-curvature="0" />
    <path
       style="fill:#fefefe;stroke-width:0.000357143"
       d="M 9.8737638,8.0017859 C 8.9462241,7.8060447 8.1966856,7.0852353 7.9546709,6.15625 7.8836591,5.8836681 7.8583266,5.3237978 7.9037678,5.03125 7.9503131,4.7315956 8.0884947,4.3299119 8.2229606,4.1033819 8.3525519,3.8850631 8.8305925,3.3924316 9.0625,3.2382175 9.4217688,2.9993105 9.9763316,2.84375 10.46875,2.84375 c 1.067841,0 2.040413,0.6372763 2.424758,1.5888191 0.145825,0.3610271 0.180282,0.5572462 0.181955,1.0361809 0.0018,0.5132031 -0.03724,0.7087487 -0.217777,1.0909766 -0.527388,1.11658 -1.742824,1.7039718 -2.9839222,1.4420593 z M 11.068137,6.6322491 c 0.256558,-0.1263035 0.524284,-0.3877835 0.641554,-0.6265869 0.08009,-0.1630991 0.08718,-0.2068166 0.08718,-0.5375694 0,-0.3447528 -0.0044,-0.3689953 -0.103977,-0.5712384 C 11.559401,4.6256831 11.338682,4.4058081 11.070519,4.2768575 10.891726,4.1908816 10.815777,4.1733228 10.574828,4.1622575 10.224656,4.1461762 10.020617,4.1992525 9.7577153,4.3748116 9.5195163,4.5338747 9.3239463,4.7859159 9.2470772,5.0328969 9.1761503,5.2607847 9.1682097,5.64472 9.2301653,5.8505828 c 0.099874,0.3318544 0.448295,0.7032975 0.7854597,0.8373584 0.128484,0.051087 0.217453,0.060733 0.500658,0.05428 0.317649,-0.00724 0.360525,-0.015781 0.551854,-0.1099721 z"
       id="path819"
       inkscape:connector-curvature="0" />
  </g>
</svg>
