<?xml version="1.0" encoding="UTF-8" standalone="no"?>
<!-- Created with Inkscape (http://www.inkscape.org/) -->

<svg
   version="1.1"
   id="svg2"
   width="1600"
   height="1600"
   viewBox="0 0 1600 1600"
   sodipodi:docname="delete_loose.svg"
   inkscape:version="1.2.2 (732a01da63, 2022-12-09)"
   xmlns:inkscape="http://www.inkscape.org/namespaces/inkscape"
   xmlns:sodipodi="http://sodipodi.sourceforge.net/DTD/sodipodi-0.dtd"
   xmlns="http://www.w3.org/2000/svg"
   xmlns:svg="http://www.w3.org/2000/svg"
   xmlns:rdf="http://www.w3.org/1999/02/22-rdf-syntax-ns#"
   xmlns:cc="http://creativecommons.org/ns#"
   xmlns:dc="http://purl.org/dc/elements/1.1/">
  <metadata
     id="metadata8">
    <rdf:RDF>
      <cc:Work
         rdf:about="">
        <dc:format>image/svg+xml</dc:format>
        <dc:type
           rdf:resource="http://purl.org/dc/dcmitype/StillImage" />
      </cc:Work>
    </rdf:RDF>
  </metadata>
  <defs
     id="defs6" />
  <sodipodi:namedview
     pagecolor="#808080"
     bordercolor="#666666"
     borderopacity="1"
     objecttolerance="10"
     gridtolerance="10"
     guidetolerance="10"
     inkscape:pageopacity="0"
     inkscape:pageshadow="2"
     inkscape:window-width="1993"
     inkscape:window-height="1009"
     id="namedview4"
     showgrid="false"
     inkscape:zoom="0.5"
     inkscape:cx="369"
     inkscape:cy="406"
     inkscape:window-x="-8"
     inkscape:window-y="-8"
     inkscape:window-maximized="1"
     inkscape:current-layer="DELETE_LOOSE"
     inkscape:showpageshadow="0"
     inkscape:pagecheckerboard="true"
     inkscape:deskcolor="#d1d1d1" />
  <g
     id="DELETE_LOOSE"
     transform="matrix(100,0,0,100,0,4.9999997e-5)"
     style="stroke-width:0.0114286">
    <path
       style="fill:none;stroke-width:0.000357143"
       d="m 0,13.336669 v -2.663331 l 0.8828125,0.879489 c 0.7433856,0.740586 0.90271,0.884732 1.0087977,0.912696 0.2884771,0.07604 -0.0857,0.426816 5.4577279,-5.1163889 4.4687279,-4.4685489 5.0876859,-5.0987497 5.1165539,-5.2094943 0.0686,-0.263182 0.04756,-0.2921374 -0.91327,-1.2568273 L 10.673338,0 H 13.336669 16 v 8 8 H 8 0 Z m 8.3681913,1.240352 c 0.07924,-0.03272 0.5186715,-0.450071 1.3819525,-1.312503 l 1.2657692,-1.264523 1.249856,1.253198 c 0.827515,0.829729 1.292095,1.273006 1.374856,1.311816 0.550356,0.258086 1.169262,-0.338054 0.936396,-0.90195 -0.03272,-0.07924 -0.450071,-0.518672 -1.312503,-1.381953 L 11.999995,11.015337 13.253193,9.7654813 C 14.082922,8.9379656 14.526199,8.4733859 14.565009,8.390625 14.828406,7.8289437 14.202306,7.2028441 13.640625,7.4662406 c -0.08276,0.03881 -0.547341,0.4820878 -1.374856,1.3118163 L 11.015913,10.031255 9.7501438,8.7667316 C 8.8868628,7.9043 8.4474309,7.4869519 8.3681912,7.4542291 7.804295,7.2213634 7.208155,7.8402694 7.4662406,8.390625 7.5050506,8.473386 7.9483284,8.9379656 8.7780569,9.7654813 L 10.031255,11.015337 8.7667316,12.281106 C 7.9043,13.144387 7.4869519,13.583819 7.4542291,13.663059 c -0.2281375,0.552446 0.3615156,1.142099 0.9139622,0.913962 z"
       id="path825"
       inkscape:connector-curvature="0" />
    <path
       style="fill:#febf00;stroke-width:0.000357143"
       d="M 1.2029927,10.529274 C 0.7561905,10.081209 0.350526,9.6933494 0.30151609,9.6673628 0.25250618,9.6413766 0.16467862,9.6176984 0.10634371,9.614745 L 2.8025281e-4,9.609375 1.4012625e-4,4.8046875 0,0 h 4.8143444 c 3.1258015,0 4.8077265,0.01070747 4.7954762,0.03052896 -0.010378,0.01679094 -0.003,0.09061906 0.016389,0.16406251 0.030507,0.11554536 0.1485187,0.24724669 0.8760484,0.97767283 L 11.34305,2.0164037 6.679205,6.68017 2.0153605,11.343936 Z"
       id="path823"
       inkscape:connector-curvature="0" />
    <path
       style="fill:#fe0000;stroke-width:0.000357143"
       d="M 7.828125,14.56563 C 7.4845384,14.406212 7.3156734,13.998578 7.4542291,13.663059 7.4869519,13.583819 7.9043,13.144387 8.7667316,12.281106 L 10.031255,11.015337 8.7780569,9.7654813 C 7.9483284,8.9379656 7.5050506,8.4733859 7.4662406,8.390625 7.208155,7.8402694 7.804295,7.2213634 8.3681913,7.4542291 8.4474309,7.4869519 8.8868628,7.9043 9.7501438,8.7667316 l 1.2657692,1.2645234 1.249856,-1.2531981 c 0.827515,-0.8297285 1.292095,-1.2730063 1.374856,-1.3118163 0.561681,-0.2633965 1.187781,0.3627031 0.924384,0.9243844 -0.03881,0.082761 -0.482087,0.5473406 -1.311816,1.3748563 l -1.253198,1.2498557 1.264523,1.265769 c 0.862432,0.863281 1.27978,1.302713 1.312503,1.381953 0.232866,0.563896 -0.38604,1.160036 -0.936396,0.90195 -0.08276,-0.03881 -0.547341,-0.482087 -1.374856,-1.311816 l -1.249856,-1.253198 -1.2657692,1.264523 c -0.863281,0.862432 -1.3027129,1.27978 -1.3819525,1.312503 -0.155855,0.06436 -0.3873216,0.05948 -0.5400663,-0.01139 z"
       id="path821"
       inkscape:connector-curvature="0" />
    <path
       style="fill:#000000;stroke-width:0.000357143"
       d="M 1.8612083,12.453742 C 1.7683066,12.420374 1.5245028,12.196067 0.86902081,11.540899 L 0,10.672293 V 10.150491 C 0,9.8445478 0.01262922,9.6208831 0.03052896,9.6098206 c 0.01679094,-0.010378 0.09061906,-0.003 0.16406251,0.016389 0.11554536,0.030507 0.24724669,0.1485187 0.97767283,0.8760484 L 2.0164037,11.34305 6.6798181,6.6793375 11.343232,2.015625 10.502305,1.171875 C 9.774265,0.44139109 9.6566506,0.31019929 9.6261653,0.19459147 9.6067984,0.12114802 9.5994431,0.0473199 9.6098206,0.03052896 9.6208844,0.01262725 9.84473,0 10.151013,0 h 0.522325 l 0.879489,0.8828125 c 0.740586,0.7433856 0.884732,0.90271 0.912696,1.0087977 0.07598,0.2882598 0.423246,-0.082597 -5.0851805,5.430697 C 4.6016228,10.103482 2.2929688,12.397492 2.25,12.420106 c -0.1309729,0.06893 -0.2595552,0.08005 -0.3887917,0.03364 z"
       id="path819"
       inkscape:connector-curvature="0" />
  </g>
</svg>
