<?xml version="1.0" encoding="UTF-8" standalone="no"?>
<!-- Created with Inkscape (http://www.inkscape.org/) -->

<svg
   version="1.1"
   id="svg2"
   width="16"
   height="16"
   viewBox="0 0 16 16"
   sodipodi:docname="DISCLOSURE_TRI_RIGHT.svg"
   inkscape:version="1.2.2 (732a01da63, 2022-12-09)"
   inkscape:export-filename="DISCLOSURE_TRI_RIGHT.png"
   inkscape:export-xdpi="3072"
   inkscape:export-ydpi="3072"
   xmlns:inkscape="http://www.inkscape.org/namespaces/inkscape"
   xmlns:sodipodi="http://sodipodi.sourceforge.net/DTD/sodipodi-0.dtd"
   xmlns="http://www.w3.org/2000/svg"
   xmlns:svg="http://www.w3.org/2000/svg"
   xmlns:rdf="http://www.w3.org/1999/02/22-rdf-syntax-ns#"
   xmlns:cc="http://creativecommons.org/ns#"
   xmlns:dc="http://purl.org/dc/elements/1.1/">
  <metadata
     id="metadata8">
    <rdf:RDF>
      <cc:Work
         rdf:about="">
        <dc:format>image/svg+xml</dc:format>
        <dc:type
           rdf:resource="http://purl.org/dc/dcmitype/StillImage" />
      </cc:Work>
    </rdf:RDF>
  </metadata>
  <defs
     id="defs6" />
  <sodipodi:namedview
     pagecolor="#7c7c7c"
     bordercolor="#666666"
     borderopacity="1"
     objecttolerance="10"
     gridtolerance="10"
     guidetolerance="10"
     inkscape:pageopacity="0"
     inkscape:pageshadow="2"
     inkscape:window-width="2560"
     inkscape:window-height="1009"
     id="namedview4"
     showgrid="false"
     inkscape:zoom="41.7193"
     inkscape:cx="5.0096718"
     inkscape:cy="7.8380989"
     inkscape:window-x="-8"
     inkscape:window-y="-8"
     inkscape:window-maximized="1"
     inkscape:current-layer="DISCLOSURE_TRI_RIGHT"
     inkscape:showpageshadow="0"
     inkscape:pagecheckerboard="true"
     inkscape:deskcolor="#d1d1d1" />
  <g
     id="DISCLOSURE_TRI_RIGHT">
    <path
       style="fill:none;stroke-width:0.03125"
       d="M 0,8 V 0 h 8 8 v 8 8 H 8 0 Z m 8.7420978,2.541673 C 11.242794,9.4302188 13.331215,8.4851722 13.383033,8.44157 c 0.242749,-0.2042597 0.242749,-0.6476303 0,-0.85189 C 13.331215,7.5460778 11.239348,6.5994994 8.7344397,5.4861728 L 4.1800613,3.4619428 3.9809922,3.4746184 C 3.7687625,3.4881322 3.6671722,3.5410003 3.5488059,3.69953 3.4845969,3.7855263 3.4843441,3.8000913 3.4754,7.9319741 3.47046,10.212357 3.4745375,12.123414 3.48446,12.178767 c 0.022454,0.125334 0.1538472,0.284994 0.2796197,0.339777 0.052415,0.02283 0.1709,0.04206 0.2633007,0.04273 0.1556943,0.0011 0.5010703,-0.146812 4.7147215,-2.019604 z"
       id="path823"
       inkscape:connector-curvature="0" />
    <path
       inkscape:connector-curvature="0"
       id="path821-0882-4-4-7"
       d="m 4.2411727,12.882012 c -0.040913,-3.4752257 -0.08294,-5.5844384 0,-9.764024 0.070446,-9.53e-5 7.5653683,4.8364571 7.5653683,4.8820117 C 9.1749818,9.7573443 7.1257931,11.069111 4.2411727,12.882012 Z"
       style="display:inline;fill:#fefefe;fill-opacity:1;stroke:#323232;stroke-width:0.631;stroke-linejoin:round;stroke-dasharray:none;stroke-opacity:1;enable-background:new"
       sodipodi:nodetypes="cccc"
       inkscape:label="ARROW" />
  </g>
</svg>
