<?xml version="1.0" encoding="UTF-8" standalone="no"?>
<!-- Created with Inkscape (http://www.inkscape.org/) -->

<svg
   version="1.1"
   id="svg2"
   width="1600"
   height="1600"
   viewBox="0 0 1600 1600"
   sodipodi:docname="dissolve_edges.svg"
   inkscape:version="1.2.2 (732a01da63, 2022-12-09)"
   xmlns:inkscape="http://www.inkscape.org/namespaces/inkscape"
   xmlns:sodipodi="http://sodipodi.sourceforge.net/DTD/sodipodi-0.dtd"
   xmlns="http://www.w3.org/2000/svg"
   xmlns:svg="http://www.w3.org/2000/svg"
   xmlns:rdf="http://www.w3.org/1999/02/22-rdf-syntax-ns#"
   xmlns:cc="http://creativecommons.org/ns#"
   xmlns:dc="http://purl.org/dc/elements/1.1/">
  <metadata
     id="metadata8">
    <rdf:RDF>
      <cc:Work
         rdf:about="">
        <dc:format>image/svg+xml</dc:format>
        <dc:type
           rdf:resource="http://purl.org/dc/dcmitype/StillImage" />
      </cc:Work>
    </rdf:RDF>
  </metadata>
  <defs
     id="defs6" />
  <sodipodi:namedview
     pagecolor="#808080"
     bordercolor="#666666"
     borderopacity="1"
     objecttolerance="10"
     gridtolerance="10"
     guidetolerance="10"
     inkscape:pageopacity="0"
     inkscape:pageshadow="2"
     inkscape:window-width="1993"
     inkscape:window-height="1009"
     id="namedview4"
     showgrid="false"
     inkscape:zoom="0.5"
     inkscape:cx="1067"
     inkscape:cy="660"
     inkscape:window-x="-8"
     inkscape:window-y="-8"
     inkscape:window-maximized="1"
     inkscape:current-layer="DISSOLVE_EDGES"
     inkscape:showpageshadow="0"
     inkscape:pagecheckerboard="true"
     inkscape:deskcolor="#d1d1d1" />
  <g
     id="DISSOLVE_EDGES"
     transform="matrix(100,0,0,100,0,4.9999997e-5)"
     style="stroke-width:0.0114286">
    <path
       style="fill:none;stroke-width:0.000357143"
       d="M 0.0020566,11.851563 C 0.0038556,8.2227363 0.00963211,7.7236175 0.04817476,7.8667328 0.15637876,8.2685119 0.44637206,8.635735 0.79973544,8.8184453 L 0.99976884,8.921875 0.99988447,11.960938 1,15 h 7 7 l 1.25e-4,-3.039062 1.25e-4,-3.039063 0.200033,-0.1034297 c 0.353364,-0.1827103 0.643357,-0.5499334 0.751561,-0.9517125 0.03854,-0.1431153 0.04432,0.3560034 0.04612,3.9848302 L 16,16 H 8 0 Z m 0,-8.2031255 L 0,0 h 8 8 L 15.9979,3.6484375 C 15.9961,6.8469937 15.9904,7.2767009 15.95178,7.1332672 15.843622,6.7314881 15.553628,6.364265 15.200265,6.1815547 L 15.000231,6.078125 15.000116,3.5390625 15,1 H 8 1 L 0.99988437,3.5390625 0.99976875,6.078125 0.79973534,6.1815547 C 0.44637206,6.364265 0.15637876,6.7314881 0.04817476,7.1332672 0.00954633,7.2767009 0.0038596,6.8469937 0.0020566,3.6484375 Z"
       id="path829"
       inkscape:connector-curvature="0" />
    <path
       style="fill:#fefe00;stroke-width:0.000357143"
       d="M 1,7.5 V 7 H 1.5 2 V 7.5 8 H 1.5 1 Z m 13,0 V 7 H 14.5 15 V 7.5 8 H 14.5 14 Z"
       id="path827"
       inkscape:connector-curvature="0" />
    <path
       style="fill:#fecb32;stroke-width:0.000357143"
       d="M 2,8.959635 C 2,8.9374341 2.0791629,8.8804447 2.1759175,8.8329919 2.4177928,8.714365 2.6924956,8.4438525 2.8184455,8.2002647 L 2.921875,8.0002313 H 8 13.078125 l 0.10343,0.2000334 C 13.307504,8.4438525 13.582207,8.714365 13.824082,8.8329919 13.920837,8.8804447 14,8.9374341 14,8.959635 14,8.9924816 12.882429,9 8,9 3.1175705,9 2,8.9924816 2,8.959635 Z M 2.8184455,6.7997353 C 2.6924956,6.5561475 2.4177928,6.285635 2.1759175,6.1670081 2.0791629,6.1195553 2,6.0625659 2,6.040365 2,6.0075184 3.1175705,6 8,6 c 4.882429,0 6,0.00752 6,0.040365 0,0.022201 -0.07916,0.07919 -0.175918,0.1266431 -0.241875,0.1186269 -0.516578,0.3891394 -0.642527,0.6327272 l -0.10343,0.2000335 H 8 2.921875 Z"
       id="path825"
       inkscape:connector-curvature="0" />
    <path
       style="fill:#6598cb;stroke-width:0.000357143"
       d="M 2,11.5 V 9 h 6 6 V 11.5 14 H 8 2 Z M 2,4 V 2 h 6 6 V 4 6 H 8 2 Z"
       id="path823"
       inkscape:connector-curvature="0" />
    <path
       style="fill:#fe0032;stroke-width:0.000357143"
       d="M 1.1285102,8.9506078 C 0.33614169,8.7375131 -0.15405328,7.9170816 0.04784976,7.1419234 0.25630109,6.3416247 1.0762358,5.8442062 1.8533344,6.0466147 2.26608,6.1541212 2.6324479,6.440015 2.8184455,6.7997353 L 2.921875,6.9997688 H 8 13.078125 l 0.10343,-0.2000335 C 13.367552,6.440015 13.73392,6.1541212 14.146666,6.0466147 15.211299,5.7693128 16.22999,6.7913762 15.95215,7.8580766 15.779578,8.5206241 15.169971,9 14.5,9 13.967713,9 13.424785,8.6706738 13.181555,8.2002647 L 13.078125,8.0002313 H 8 2.921875 L 2.8184455,8.2002647 C 2.5094756,8.7978141 1.7742367,9.1242653 1.1285102,8.9506078 Z M 2,7.5 V 7 H 1.5 1 V 7.5 8 H 1.5 2 Z m 13,0 V 7 H 14.5 14 V 7.5 8 h 0.5 0.5 z"
       id="path821"
       inkscape:connector-curvature="0" />
    <path
       style="fill:#323232;stroke-width:0.000357143"
       d="M 1,11.957703 V 8.9154053 l 0.1630602,0.042298 c 0.2078583,0.053918 0.4660213,0.053918 0.6738795,0 L 2,8.9154053 V 11.457703 14 h 6 6 V 11.457703 8.9154053 l 0.16306,0.042298 c 0.207858,0.053918 0.466022,0.053918 0.67388,0 L 15,8.9154053 V 11.957703 15 H 8 1 Z M 1,3.5422972 V 1 h 7 7 v 2.5422972 2.5422975 l -0.16306,-0.042298 c -0.207858,-0.053917 -0.466022,-0.053917 -0.67388,0 L 14,6.0845947 V 4.0422972 2 H 8 2 V 4.0422972 6.0845947 L 1.8369397,6.0422972 c -0.2078582,-0.053917 -0.4660212,-0.053917 -0.6738795,0 L 1,6.0845947 Z"
       id="path819"
       inkscape:connector-curvature="0" />
  </g>
</svg>
