<?xml version="1.0" encoding="UTF-8" standalone="no"?>
<!-- Created with Inkscape (http://www.inkscape.org/) -->

<svg
   xmlns:dc="http://purl.org/dc/elements/1.1/"
   xmlns:cc="http://creativecommons.org/ns#"
   xmlns:rdf="http://www.w3.org/1999/02/22-rdf-syntax-ns#"
   xmlns:svg="http://www.w3.org/2000/svg"
   xmlns="http://www.w3.org/2000/svg"
   xmlns:sodipodi="http://sodipodi.sourceforge.net/DTD/sodipodi-0.dtd"
   xmlns:inkscape="http://www.inkscape.org/namespaces/inkscape"
   version="1.1"
   id="svg2"
   width="16"
   height="16"
   viewBox="0 0 16 16"
   sodipodi:docname="DISSOLVE_UNSELECTED.svg"
   inkscape:version="0.92.4 (5da689c313, 2019-01-14)">
  <metadata
     id="metadata8">
    <rdf:RDF>
      <cc:Work
         rdf:about="">
        <dc:format>image/svg+xml</dc:format>
        <dc:type
           rdf:resource="http://purl.org/dc/dcmitype/StillImage" />
        <dc:title></dc:title>
      </cc:Work>
    </rdf:RDF>
  </metadata>
  <defs
     id="defs6" />
  <sodipodi:namedview
     pagecolor="#ffffff"
     bordercolor="#666666"
     borderopacity="1"
     objecttolerance="10"
     gridtolerance="10"
     guidetolerance="10"
     inkscape:pageopacity="0"
     inkscape:pageshadow="2"
     inkscape:window-width="828"
     inkscape:window-height="656"
     id="namedview4"
     showgrid="false"
     inkscape:zoom="14.75"
     inkscape:cx="8"
     inkscape:cy="8"
     inkscape:window-x="0"
     inkscape:window-y="0"
     inkscape:window-maximized="0"
     inkscape:current-layer="svg2" />
  <g
     id="DISSOLVE_UNSELECTED">
    <path
       style="fill:#ffffff;stroke-width:0.03125"
       d="M 3,15.5 V 15 h 5 5 V 15.5 16 H 8 3 Z M 0,11.03125 V 9 H 0.5 1 v 2.03125 2.03125 H 0.5 0 Z M 15,11 V 9 h 0.5 0.5 v 2 2 H 15.5 15 Z M 0,4.5 V 3 H 0.5 1 V 4.5 6 H 0.5 0 Z m 15,0 V 3 H 15.5 16 V 4.5 6 H 15.5 15 Z M 3,0.5 V 0 h 5 5 V 0.5 1 H 8 3 Z"
       id="path829"
       inkscape:connector-curvature="0" />
    <path
       style="fill:#fefecb;stroke-width:0.03125"
       d="M 1,7.5 V 7 H 1.5 2 V 7.5 8 H 1.5 1 Z m 6,0 V 7 H 7.5 8 V 7.5 8 H 7.5 7 Z m 7,0 V 7 H 14.5 15 V 7.5 8 H 14.5 14 Z"
       id="path827"
       inkscape:connector-curvature="0" />
    <path
       style="fill:#fea900;stroke-width:0.03125"
       d="M 0,14.53125 V 13.0625 H 0.5 1 V 11.03125 9 H 1.5 2 v 2 2 H 2.5 3 v 0.5 0.5 h 5 5 V 13.5 13 H 13.5 14 V 11 9 h 0.5 0.5 v 2 2 H 15.5 16 V 14.5 16 H 14.5 13 V 15.5 15 H 8 3 V 15.5 16 H 1.5 0 Z M 2,14.5 V 14 H 1.5 1 V 14.5 15 H 1.5 2 Z m 13,0 V 14 H 14.5 14 V 14.5 15 H 14.5 15 Z M 0,7.5 C 0,6.5208334 0.01085069,6 0.03125,6 0.05164931,6 0.0625,6.5208334 0.0625,7.5 0.0625,8.4791666 0.05164931,9 0.03125,9 0.01085069,9 0,8.4791666 0,7.5 Z m 3,0 V 7 H 4.5 6 V 7.5 8 H 4.5 3 Z m 6,0 V 7 h 2 2 V 7.5 8 H 11 9 Z M 1,4.5 V 3 H 0.5 0 V 1.5 0 H 1.5 3 V 0.5 1 h 5 5 V 0.5 0 H 14.5 16 V 1.5 3 H 15.5 15 V 4.5 6 H 14.5 14 V 4.5 3 H 13.5 13 V 2.5 2 H 8 3 V 2.5 3 H 2.5 2 V 4.5 6 H 1.5 1 Z m 1,-3 V 1 H 1.5 1 V 1.5 2 H 1.5 2 Z m 13,0 V 1 H 14.5 14 V 1.5 2 h 0.5 0.5 z"
       id="path825"
       inkscape:connector-curvature="0" />
    <path
       style="fill:#7f7f7f;stroke-width:0.03125"
       d="M 3,13.5 V 13 H 2.5 2 V 11 9 H 2.5 3 V 8.5 8 H 4.5 6 V 8.5 9 H 7.5 9 V 8.5 8 h 2 2 V 8.5 9 h 0.5 0.5 v 2 2 H 13.5 13 V 13.5 14 H 8 3 Z m 0,-7 V 6 H 2.5 2 V 4.5 3 H 2.5 3 V 2.5 2 h 5 5 V 2.5 3 H 13.5 14 V 4.5 6 H 13.5 13 V 6.5 7 H 11 9 V 6.5 6 H 7.5 6 V 6.5 7 H 4.5 3 Z"
       id="path823"
       inkscape:connector-curvature="0" />
    <path
       style="fill:#fe0000;stroke-width:0.03125"
       d="M 1,14.5 V 14 H 1.5 2 V 14.5 15 H 1.5 1 Z m 13,0 V 14 H 14.5 15 V 14.5 15 H 14.5 14 Z M 1,1.5 V 1 H 1.5 2 V 1.5 2 H 1.5 1 Z m 13,0 V 1 H 14.5 15 V 1.5 2 H 14.5 14 Z"
       id="path821"
       inkscape:connector-curvature="0" />
    <path
       style="fill:#323232;stroke-width:0.03125"
       d="M 0.0625,7.5 V 6 H 1.53125 3 V 7.5 9 H 1.53125 0.0625 Z M 2,7.5 V 7 H 1.5 1 V 7.5 8 H 1.5 2 Z m 4,0 V 6 H 7.5 9 V 7.5 9 H 7.5 6 Z m 2,0 V 7 H 7.5 7 V 7.5 8 H 7.5 8 Z m 5,0 V 6 H 14.5 16 V 7.5 9 H 14.5 13 Z m 2,0 V 7 H 14.5 14 V 7.5 8 h 0.5 0.5 z"
       id="path819"
       inkscape:connector-curvature="0" />
  </g>
</svg>
