<?xml version="1.0" encoding="UTF-8" standalone="no"?>
<!-- Created with Inkscape (http://www.inkscape.org/) -->

<svg
   version="1.1"
   id="svg2"
   width="16"
   height="16"
   viewBox="0 0 16 16"
   sodipodi:docname="DOWNARROW_HLT.svg"
   inkscape:version="1.2.2 (732a01da63, 2022-12-09)"
   inkscape:export-filename="DOWNARROW_HLT.png"
   inkscape:export-xdpi="3072"
   inkscape:export-ydpi="3072"
   xmlns:inkscape="http://www.inkscape.org/namespaces/inkscape"
   xmlns:sodipodi="http://sodipodi.sourceforge.net/DTD/sodipodi-0.dtd"
   xmlns="http://www.w3.org/2000/svg"
   xmlns:svg="http://www.w3.org/2000/svg"
   xmlns:rdf="http://www.w3.org/1999/02/22-rdf-syntax-ns#"
   xmlns:cc="http://creativecommons.org/ns#"
   xmlns:dc="http://purl.org/dc/elements/1.1/">
  <metadata
     id="metadata8">
    <rdf:RDF>
      <cc:Work
         rdf:about="">
        <dc:format>image/svg+xml</dc:format>
        <dc:type
           rdf:resource="http://purl.org/dc/dcmitype/StillImage" />
      </cc:Work>
    </rdf:RDF>
  </metadata>
  <defs
     id="defs6" />
  <sodipodi:namedview
     pagecolor="#707070"
     bordercolor="#666666"
     borderopacity="1"
     objecttolerance="10"
     gridtolerance="10"
     guidetolerance="10"
     inkscape:pageopacity="0"
     inkscape:pageshadow="2"
     inkscape:window-width="2560"
     inkscape:window-height="1009"
     id="namedview4"
     showgrid="false"
     inkscape:zoom="20.85965"
     inkscape:cx="4.4583682"
     inkscape:cy="11.457527"
     inkscape:window-x="-8"
     inkscape:window-y="-8"
     inkscape:window-maximized="1"
     inkscape:current-layer="DOWNARROW_HLT"
     inkscape:showpageshadow="0"
     inkscape:pagecheckerboard="true"
     inkscape:deskcolor="#d1d1d1"
     showguides="false" />
  <g
     id="DOWNARROW_HLT">
    <path
       style="fill:none;stroke-width:0.03125"
       d="M 0,8 V 0 h 8 8 v 8 8 H 8 0 Z m 8.484375,3.866627 c 0.2110566,-0.109554 5.192021,-5.092892 5.301601,-5.304127 0.06061,-0.1168434 0.07295,-0.1881881 0.07295,-0.421875 0,-0.2344275 -0.01222,-0.3046612 -0.0734,-0.421875 -0.100009,-0.1916006 -0.270125,-0.3639297 -0.4574,-0.4633497 -0.135714,-0.072048 -0.193214,-0.08295 -0.4375,-0.08295 -0.245022,0 -0.301377,0.010757 -0.4375,0.083509 -0.113984,0.060919 -0.735271,0.6631318 -2.296792,2.2262768 L 8.0157919,9.6250041 5.7969584,7.4091181 C 4.2735178,5.8877009 3.5340525,5.1703678 3.4375,5.1202775 3.3206134,5.0596384 3.2493981,5.0473341 3.015625,5.0473869 c -0.2442143,6.25e-5 -0.3018254,0.010986 -0.4375,0.083013 -0.1872746,0.09942 -0.3573909,0.2717491 -0.4574001,0.4633497 -0.061202,0.1172531 -0.073391,0.1873687 -0.073338,0.421875 5.63e-5,0.2449578 0.01084,0.3014122 0.083578,0.4375 0.061437,0.1149447 0.7635538,0.8349897 2.6559623,2.7237809 2.6322181,2.6271875 2.6623122,2.6549705 2.9943228,2.7643945 0.042969,0.01416 0.1835937,0.0214 0.3125,0.01609 0.1781847,-0.0073 0.2718353,-0.0291 0.390625,-0.09076 z"
       id="path821"
       inkscape:connector-curvature="0" />
    <path
       inkscape:connector-curvature="0"
       id="path821-0882-4-4-7"
       d="m 3.071138,4.7632134 c 3.4752255,-0.04091 5.5844379,-0.08294 9.764023,0 9.6e-5,0.07045 -4.8364566,7.5653686 -4.8820112,7.5653686 C 6.195806,9.6970224 4.884039,7.6478334 3.071138,4.7632134 Z"
       style="display:inline;fill:#fefefe;fill-opacity:1;stroke:#323232;stroke-width:0.631;stroke-linejoin:round;stroke-dasharray:none;stroke-opacity:1;enable-background:new"
       sodipodi:nodetypes="cccc"
       inkscape:label="ARROW" />
  </g>
  <g
     id="DISCLOSURE_TRI_RIGHT"
     transform="translate(-21)"
     style="display:inline;enable-background:new">
    <path
       inkscape:connector-curvature="0"
       id="path823-1959"
       d="M 0,8 V 0 h 8 8 v 8 8 H 8 0 Z m 8.7420978,2.541673 C 11.242794,9.4302188 13.331215,8.4851722 13.383033,8.44157 c 0.242749,-0.2042597 0.242749,-0.6476303 0,-0.85189 C 13.331215,7.5460778 11.239348,6.5994994 8.7344397,5.4861728 L 4.1800613,3.4619428 3.9809922,3.4746184 C 3.7687625,3.4881322 3.6671722,3.5410003 3.5488059,3.69953 3.4845969,3.7855263 3.4843441,3.8000913 3.4754,7.9319741 3.47046,10.212357 3.4745375,12.123414 3.48446,12.178767 c 0.022454,0.125334 0.1538472,0.284994 0.2796197,0.339777 0.052415,0.02283 0.1709,0.04206 0.2633007,0.04273 0.1556943,0.0011 0.5010703,-0.146812 4.7147215,-2.019604 z"
       style="fill:#ffffff;fill-opacity:0;stroke-width:0.03125" />
    <path
       inkscape:connector-curvature="0"
       id="path821-914"
       d="m 3.96875,8.015625 c 0,-3.2166472 0.00801,-4.0468825 0.039063,-4.0469119 0.084313,-7.93e-5 9.054687,4.0091497 9.054687,4.0469119 0,0.037762 -8.9703742,4.046991 -9.054687,4.046912 C 3.9767638,12.062508 3.96875,11.232272 3.96875,8.015625 Z"
       style="fill:#fefefe;stroke-width:0.03125" />
    <path
       inkscape:connector-curvature="0"
       id="path819-7144"
       d="M 3.7640756,12.518544 C 3.6383031,12.463761 3.5069103,12.304101 3.4844559,12.178767 3.4745391,12.123414 3.4704638,10.212357 3.4754,7.9319741 3.4843441,3.8000912 3.4845969,3.7855262 3.5488059,3.69953 3.6671722,3.5410003 3.7687625,3.4881322 3.9809922,3.4746184 l 0.199069,-0.012676 4.5543785,2.02423 c 2.5049083,1.1133266 4.5967753,2.059905 4.6485933,2.1035072 0.242749,0.2042597 0.242749,0.6476303 0,0.85189 -0.05182,0.043602 -2.140239,0.9886487 -4.6409352,2.1001034 -4.2136512,1.872792 -4.5590272,2.020737 -4.7147215,2.019604 -0.092401,-6.72e-4 -0.210886,-0.0199 -0.2633007,-0.04273 z M 8.5546875,10.058983 C 11.133168,8.9129247 13.0625,8.0383725 13.0625,8.015625 13.0625,7.9778628 4.0921253,3.9686338 4.0078125,3.9687131 3.9767638,3.9687425 3.96875,4.7989778 3.96875,8.015625 c 0,3.216647 0.00801,4.046882 0.039063,4.046912 0.021484,2e-5 2.0675781,-0.901579 4.5468745,-2.003554 z"
       style="fill:#323232;stroke-width:0.03125" />
  </g>
  <g
     id="DISCLOSURE_TRI_DOWN"
     style="display:none;enable-background:new">
    <path
       inkscape:connector-curvature="0"
       id="path823-7640"
       d="M 0,8 V 0 h 8 8 v 8 8 H 8 0 Z m 8.2290253,5.519874 c 0.05611,-0.02344 0.1376925,-0.08502 0.1812947,-0.136841 0.043602,-0.05182 0.9901806,-2.143685 2.103507,-4.6485933 l 2.02423,-4.5543784 -0.01267,-0.1990691 C 12.511877,3.7687597 12.458997,3.6671675 12.30047,3.5488059 12.2143,3.4844739 12.20769,3.4843749 7.98438,3.4843749 c -4.2233081,0 -4.2299241,9.38e-5 -4.31609,0.064431 C 3.5097525,3.6671675 3.4568825,3.7687597 3.4433684,3.9809922 l -0.012676,0.199069 2.02423,4.5543785 c 1.1133266,2.5049083 2.0598644,4.5967273 2.1034169,4.6484863 0.043553,0.05176 0.1220716,0.112787 0.1744859,0.135618 0.12468,0.05431 0.3678482,0.05496 0.4961997,0.0013 z"
       style="fill:#ffffff;fill-opacity:0;stroke-width:0.03125" />
    <path
       inkscape:connector-curvature="0"
       id="path821-0882"
       d="M 5.9410166,8.5546875 C 4.8390419,6.0753906 3.9374431,4.0292969 3.9374631,4.0078125 3.9374925,3.9767638 4.7677278,3.96875 7.984375,3.96875 c 3.216647,0 4.046882,0.00801 4.046912,0.039063 7.9e-5,0.084313 -4.0091498,9.054687 -4.046912,9.054687 -0.022748,0 -0.8972997,-1.929332 -2.0433584,-4.5078125 z"
       style="fill:#cbfe98;stroke-width:0.03125" />
    <path
       inkscape:connector-curvature="0"
       id="path819-5117"
       d="M 7.7328256,13.518544 C 7.6804113,13.495713 7.6018925,13.434686 7.5583397,13.382926 7.5147872,13.331167 6.5682494,11.239348 5.4549228,8.7344397 l -2.02423,-4.5543784 0.012676,-0.1990691 c 0.013514,-0.2122325 0.066384,-0.3138247 0.2249166,-0.4321863 0.086166,-0.064332 0.092782,-0.064431 4.31609,-0.064431 4.2233076,0 4.2299236,9.38e-5 4.3160896,0.064431 0.158532,0.1183616 0.211402,0.2199538 0.224917,0.4321863 l 0.01267,0.199069 -2.02423,4.5543785 C 9.4005006,11.239348 8.4539222,13.331215 8.41032,13.383033 c -0.043602,0.05182 -0.1251847,0.113397 -0.1812947,0.136841 -0.1283516,0.05363 -0.3715197,0.05298 -0.4961997,-0.0013 z M 10.027733,8.5546875 c 1.101975,-2.4792969 2.003574,-4.5253906 2.003554,-4.546875 -2.9e-5,-0.031049 -0.830265,-0.039063 -4.046912,-0.039063 -3.2166472,0 -4.0468825,0.00801 -4.0469119,0.039063 -7.93e-5,0.084313 4.0091497,9.0546875 4.0469119,9.0546875 0.022747,0 0.8972997,-1.929332 2.043358,-4.5078125 z"
       style="fill:#323232;stroke-width:0.03125" />
  </g>
</svg>
