<?xml version="1.0" encoding="UTF-8" standalone="no"?>
<!-- Created with Inkscape (http://www.inkscape.org/) -->

<svg
   version="1.1"
   id="svg2"
   width="1600"
   height="1600"
   viewBox="0 0 1600 1600"
   sodipodi:docname="driver_distance.svg"
   inkscape:version="1.2.2 (732a01da63, 2022-12-09)"
   xmlns:inkscape="http://www.inkscape.org/namespaces/inkscape"
   xmlns:sodipodi="http://sodipodi.sourceforge.net/DTD/sodipodi-0.dtd"
   xmlns="http://www.w3.org/2000/svg"
   xmlns:svg="http://www.w3.org/2000/svg"
   xmlns:rdf="http://www.w3.org/1999/02/22-rdf-syntax-ns#"
   xmlns:cc="http://creativecommons.org/ns#"
   xmlns:dc="http://purl.org/dc/elements/1.1/">
  <metadata
     id="metadata8">
    <rdf:RDF>
      <cc:Work
         rdf:about="">
        <dc:format>image/svg+xml</dc:format>
        <dc:type
           rdf:resource="http://purl.org/dc/dcmitype/StillImage" />
      </cc:Work>
    </rdf:RDF>
  </metadata>
  <defs
     id="defs6" />
  <sodipodi:namedview
     pagecolor="#808080"
     bordercolor="#666666"
     borderopacity="1"
     objecttolerance="10"
     gridtolerance="10"
     guidetolerance="10"
     inkscape:pageopacity="0"
     inkscape:pageshadow="2"
     inkscape:window-width="1993"
     inkscape:window-height="1009"
     id="namedview4"
     showgrid="false"
     inkscape:zoom="0.5"
     inkscape:cx="585"
     inkscape:cy="482"
     inkscape:window-x="-8"
     inkscape:window-y="-8"
     inkscape:window-maximized="1"
     inkscape:current-layer="DRIVER_DISTANCE"
     inkscape:showpageshadow="0"
     inkscape:pagecheckerboard="true"
     inkscape:deskcolor="#d1d1d1" />
  <g
     id="DRIVER_DISTANCE"
     transform="matrix(100,0,0,100,0,4.9999997e-5)"
     style="stroke-width:0.0114286">
    <path
       style="fill:none;stroke-width:0.000357143"
       d="M 0,8 V 0 h 8 8 v 8 8 H 8 0 Z m 4.6796956,6.933714 C 4.9607437,14.797661 5.0845425,14.413124 4.9420559,14.118786 4.8966859,14.025064 4.4321662,13.540932 3.4149881,12.527242 1.8287924,10.946485 1.8696873,10.979744 1.5452539,11.006648 1.1183845,11.042048 0.87041544,11.4942 1.0615906,11.888571 1.143583,12.057712 3.9712134,14.883748 4.125,14.950254 c 0.1591,0.0688 0.3927941,0.06184 0.5546956,-0.01654 z m 0.1458991,-2.915776 c 0.1636097,-0.09693 1.1488356,-1.092595 1.2237297,-1.236688 0.08485,-0.163249 0.076706,-0.420471 -0.018648,-0.589002 C 5.8659362,9.9010859 5.4796681,9.8014506 5.1870628,9.9746441 5.0141237,10.077007 4.0287559,11.068526 3.9506756,11.21875 c -0.034413,0.06621 -0.057121,0.177207 -0.05754,0.28125 -0.00196,0.487897 0.5064888,0.770318 0.9324591,0.517938 z m 3,-2.9999999 C 7.9892044,8.9210025 8.9744303,7.9253434 9.0493244,7.78125 9.1341744,7.6180013 9.1260306,7.3607791 9.0306759,7.1922481 8.8659363,6.9010859 8.4796681,6.8014506 8.1870628,6.9746441 8.0141238,7.0770069 7.0287559,8.0685263 6.9506756,8.21875 6.9162628,8.2849591 6.8935544,8.3959572 6.8931359,8.5 6.8911734,8.9878972 7.3996247,9.2703181 7.8255947,9.0179381 Z m 3.0000003,-3 C 10.989204,5.9210025 11.97443,4.9253434 12.049324,4.78125 12.134174,4.6180013 12.126031,4.3607791 12.030676,4.1922481 11.865936,3.9010859 11.479668,3.8014506 11.187063,3.9746441 11.014124,4.0770069 10.028756,5.0685263 9.9506756,5.21875 9.9162628,5.2849591 9.8935544,5.3959572 9.8931359,5.5 9.8911734,5.9878972 10.399625,6.2703181 10.825595,6.0179381 Z m 3.854101,-1.084224 c 0.281048,-0.1360532 0.404847,-0.5205897 0.26236,-0.8149282 -0.04537,-0.093722 -0.50989,-0.5778543 -1.527068,-1.5915443 -1.586195,-1.58075635 -1.545301,-1.54749788 -1.869734,-1.5205933 -0.42687,0.035399 -0.674839,0.4875518 -0.483663,0.8819228 0.08199,0.1691404 2.909622,2.995177 3.063409,3.0616827 0.1591,0.068804 0.392794,0.061836 0.554696,-0.01654 z"
       id="path823"
       inkscape:connector-curvature="0" />
    <path
       style="fill:#fefefe;stroke-width:0.000357143"
       d="M 4.125,14.950254 C 3.9712134,14.883748 1.143583,12.057712 1.0615906,11.888571 0.87041544,11.4942 1.1183845,11.042048 1.5452539,11.006648 c 0.3244334,-0.0269 0.2835385,-0.06016 1.8697342,1.520594 1.0171781,1.01369 1.4816978,1.497822 1.5270678,1.591544 0.089656,0.185205 0.071172,0.451553 -0.043346,0.624602 C 4.7475958,14.971737 4.3935611,15.066395 4.125,14.950254 Z m 10,-10.0000003 c -0.153787,-0.066506 -2.981417,-2.8925422 -3.063409,-3.0616826 -0.191176,-0.394371 0.05679,-0.8465235 0.483663,-0.8819229 0.324433,-0.0269045 0.283539,-0.060163 1.869734,1.5205934 1.017178,1.01369 1.481698,1.4978228 1.527068,1.5915443 0.08966,0.185205 0.07117,0.4515535 -0.04335,0.6246022 -0.151114,0.2283488 -0.505149,0.3230066 -0.77371,0.2068656 z"
       id="path821"
       inkscape:connector-curvature="0" />
    <path
       style="fill:#32fe98;stroke-width:0.000357143"
       d="M 4.3363762,12.095487 C 4.0577041,12.006354 3.8919953,11.783727 3.8931359,11.5 c 4.188e-4,-0.104043 0.023127,-0.215041 0.05754,-0.28125 0.07808,-0.150224 1.0634481,-1.141743 1.2363872,-1.2441059 0.2926053,-0.1731935 0.6788734,-0.073558 0.8436131,0.2176039 0.095355,0.168531 0.1034985,0.425753 0.018648,0.589002 -0.074894,0.144093 -1.06012,1.139752 -1.2237297,1.236688 -0.1426,0.08449 -0.3598525,0.118926 -0.4892185,0.07755 z m 3,-3.0000004 C 7.0577041,9.0063538 6.8919953,8.7837266 6.8931359,8.5 c 4.188e-4,-0.1040428 0.023127,-0.2150409 0.05754,-0.28125 0.07808,-0.1502237 1.0634482,-1.1417431 1.2363872,-1.2441059 0.2926053,-0.1731935 0.6788735,-0.073558 0.8436131,0.217604 0.095355,0.168531 0.1034985,0.4257531 0.018648,0.5890019 -0.074894,0.1440934 -1.06012,1.1397525 -1.2237297,1.2366881 -0.1426,0.084488 -0.3598525,0.118926 -0.4892183,0.077548 z m 2.9999998,-3 C 10.057704,6.0063537 9.8919953,5.7837266 9.8931359,5.5 c 4.188e-4,-0.1040428 0.023127,-0.2150409 0.05754,-0.28125 0.07808,-0.1502238 1.0634481,-1.1417431 1.2363871,-1.2441059 0.292605,-0.1731935 0.678873,-0.073558 0.843613,0.217604 0.09535,0.168531 0.103498,0.4257531 0.01865,0.5890019 -0.07489,0.1440934 -1.06012,1.1397525 -1.223729,1.2366881 -0.1426,0.084488 -0.359853,0.118926 -0.489219,0.077548 z"
       id="path819"
       inkscape:connector-curvature="0" />
  </g>
</svg>
