<?xml version="1.0" encoding="UTF-8" standalone="no"?>
<!-- Created with Inkscape (http://www.inkscape.org/) -->

<svg
   version="1.1"
   id="svg2"
   width="1600"
   height="1600"
   viewBox="0 0 1600 1600"
   sodipodi:docname="driver_transform.svg"
   inkscape:version="1.2.2 (732a01da63, 2022-12-09)"
   xmlns:inkscape="http://www.inkscape.org/namespaces/inkscape"
   xmlns:sodipodi="http://sodipodi.sourceforge.net/DTD/sodipodi-0.dtd"
   xmlns="http://www.w3.org/2000/svg"
   xmlns:svg="http://www.w3.org/2000/svg"
   xmlns:rdf="http://www.w3.org/1999/02/22-rdf-syntax-ns#"
   xmlns:cc="http://creativecommons.org/ns#"
   xmlns:dc="http://purl.org/dc/elements/1.1/">
  <metadata
     id="metadata8">
    <rdf:RDF>
      <cc:Work
         rdf:about="">
        <dc:format>image/svg+xml</dc:format>
        <dc:type
           rdf:resource="http://purl.org/dc/dcmitype/StillImage" />
      </cc:Work>
    </rdf:RDF>
  </metadata>
  <defs
     id="defs6" />
  <sodipodi:namedview
     pagecolor="#808080"
     bordercolor="#666666"
     borderopacity="1"
     objecttolerance="10"
     gridtolerance="10"
     guidetolerance="10"
     inkscape:pageopacity="0"
     inkscape:pageshadow="2"
     inkscape:window-width="1993"
     inkscape:window-height="1009"
     id="namedview4"
     showgrid="false"
     inkscape:zoom="0.5"
     inkscape:cx="273"
     inkscape:cy="230"
     inkscape:window-x="-8"
     inkscape:window-y="-8"
     inkscape:window-maximized="1"
     inkscape:current-layer="DRIVER_TRANSFORM"
     inkscape:showpageshadow="0"
     inkscape:pagecheckerboard="true"
     inkscape:deskcolor="#d1d1d1" />
  <g
     id="DRIVER_TRANSFORM"
     transform="matrix(100,0,0,100,0,4.9999997e-5)"
     style="stroke-width:0.0114286">
    <path
       style="fill:none;stroke-width:0.000357143"
       d="M 0,8 V 0 h 8 8 v 8 8 H 8 0 Z m 3.7815678,6.929688 C 3.9567631,14.810451 4.0133322,14.707439 4.0145434,14.505444 4.0155934,14.33028 4.0078369,14.313396 3.7457419,13.92035 3.037041,12.857562 2.5744461,11.748923 2.2989938,10.453125 1.7573252,7.9049772 2.0600353,5.2803231 3.1459728,3.109375 3.3892997,2.6229296 3.4055,2.5951875 3.7472963,2.0796502 4.0075019,1.6871777 4.0155922,1.669465 4.0145434,1.4945557 4.0133322,1.2925607 3.9567631,1.1895493 3.7815678,1.0703125 3.6386066,0.97301388 3.3925341,0.97335306 3.2475638,1.0710486 2.9472109,1.2734563 2.2219778,2.5092323 1.8496076,3.453125 0.72270512,6.3096237 0.72241372,9.7057725 1.8488277,12.542929 2.239787,13.527658 2.9682301,14.771252 3.25,14.935002 c 0.1538119,0.08939 0.39598,0.08697 0.5315678,-0.0053 z m 9.0235402,-0.01277 c 0.04703,-0.03488 0.190986,-0.217897 0.319892,-0.406717 0.948646,-1.389563 1.551042,-3.058753 1.802502,-4.994576 0.08167,-0.6287081 0.08167,-2.4025419 0,-3.03125 C 14.676275,4.5503447 14.072767,2.8780752 13.125,1.4897995 12.996094,1.3009794 12.852536,1.1182509 12.805983,1.0837361 c -0.11911,-0.08831 -0.388842,-0.10666563 -0.536662,-0.036521 -0.169997,0.080669 -0.249426,0.212223 -0.263143,0.4358299 l -0.01158,0.18883 0.281756,0.421875 c 0.891137,1.3343044 1.369792,2.6786784 1.635573,4.59375 0.05618,0.4048275 0.05623,2.2196766 6.3e-5,2.625 -0.13327,0.961788 -0.266433,1.56194 -0.507546,2.287465 -0.280362,0.843623 -0.63073,1.559621 -1.128565,2.306285 l -0.281283,0.421875 0.01158,0.188829 c 0.01335,0.217673 0.09071,0.351267 0.250641,0.432831 0.139368,0.07108 0.431735,0.05355 0.548289,-0.03287 z m -7.0219349,-2.9699 C 5.8375606,11.914891 6.2927459,11.306013 6.9395884,10.400143 7.5262862,9.5785019 8.0105028,8.90625 8.015625,8.90625 c 0.00512,0 0.4908225,0.6743297 1.0793341,1.498511 0.8264825,1.157447 1.0932179,1.509518 1.1719409,1.546875 0.147431,0.06996 0.405948,0.06252 0.531882,-0.01531 0.120913,-0.07473 0.232468,-0.285672 0.232468,-0.439581 0,-0.05969 -0.02491,-0.157203 -0.05536,-0.216696 -0.03045,-0.05949 -0.565411,-0.821842 -1.1888108,-1.6941075 L 8.6536278,8 9.7870822,6.4140625 C 10.410482,5.5417969 10.945447,4.7794484 10.975893,4.719955 11.048523,4.5780328 11.045942,4.4243837 10.968296,4.2676787 10.8702,4.0697016 10.773082,4.015625 10.515625,4.015625 c -0.169299,0 -0.237038,0.013899 -0.29965,0.061484 C 10.17148,4.1109247 9.6602953,4.8035028 9.0800088,5.6161712 8.4997225,6.4288394 8.0207497,7.09375 8.015625,7.09375 8.0105003,7.09375 7.5315275,6.4288394 6.9512412,5.6161712 6.3709547,4.8035028 5.85977,4.1109247 5.815275,4.0771087 5.7526634,4.0295241 5.6849237,4.015625 5.515625,4.015625 c -0.2574569,0 -0.3545747,0.054077 -0.4526709,0.2520537 -0.077646,0.156705 -0.080227,0.3103541 -0.0076,0.4522763 0.030446,0.059493 0.5654112,0.8218419 1.1888112,1.6941075 L 7.3776222,8 6.2441678,9.5859375 C 5.6207678,10.458203 5.0858028,11.220552 5.0553566,11.280045 5.0249106,11.339538 5,11.43928 5,11.501692 c 0,0.159304 0.1200306,0.370469 0.2502912,0.440329 0.1389207,0.0745 0.4108988,0.07705 0.5328819,0.005 z"
       id="path821"
       inkscape:connector-curvature="0" />
    <path
       style="fill:#32fe98;stroke-width:0.000357143"
       d="M 3.25,14.935002 C 2.9682301,14.771252 2.239787,13.527658 1.8488277,12.542929 0.72241372,9.7057725 0.72270512,6.3096237 1.8496076,3.453125 2.2219778,2.5092323 2.9472109,1.2734563 3.2475638,1.0710486 3.3925341,0.97335306 3.6386066,0.97301388 3.7815678,1.0703123 3.9567631,1.1895492 4.0133322,1.2925605 4.0145434,1.4945556 4.0155934,1.6694648 4.0075019,1.6871776 3.7472962,2.07965 3.4055,2.5951875 3.3892997,2.6229296 3.1459728,3.109375 1.7165217,5.9670569 1.6624511,9.6429166 3.0062932,12.605157 c 0.2098071,0.462479 0.4193096,0.835103 0.7394487,1.315193 0.262095,0.393046 0.2698518,0.40993 0.2688015,0.585094 -0.00121,0.201995 -0.05778,0.305007 -0.2329756,0.424244 -0.1355878,0.09228 -0.3777559,0.0947 -0.5315678,0.0053 z m 9.006818,0.01478 c -0.159926,-0.08156 -0.237287,-0.215158 -0.25064,-0.432831 l -0.01158,-0.188829 0.281284,-0.421875 c 0.896875,-1.345154 1.370065,-2.673743 1.63611,-4.59375 0.05616,-0.4053234 0.05612,-2.2201725 -6.2e-5,-2.625 C 13.646144,4.7724284 13.167489,3.4280544 12.276353,2.09375 L 11.994597,1.671875 12.00618,1.4830455 c 0.01372,-0.2236069 0.09315,-0.3551609 0.263144,-0.4358299 0.147819,-0.0701451 0.417551,-0.0517895 0.536662,0.036521 0.04655,0.034515 0.19011,0.2172433 0.319016,0.4060634 0.947767,1.3882757 1.551276,3.0605452 1.802502,4.9945755 0.08167,0.6287081 0.08167,2.4025419 0,3.03125 -0.251459,1.9358225 -0.853856,3.6050125 -1.802502,4.9945755 -0.128906,0.18882 -0.272857,0.371842 -0.319892,0.406718 -0.116554,0.08642 -0.408921,0.103946 -0.548289,0.03287 z M 5.2502912,11.942021 C 5.1200306,11.872161 5,11.660996 5,11.501693 5,11.439283 5.024911,11.339538 5.055357,11.280045 5.085803,11.220555 5.6207682,10.458203 6.2441682,9.5859375 L 7.3776222,8 6.2441678,6.4140625 C 5.6207678,5.5417969 5.0858028,4.7794484 5.0553566,4.719955 4.9827272,4.5780328 4.9853081,4.4243837 5.0629541,4.2676787 5.1610503,4.0697016 5.2581681,4.015625 5.515625,4.015625 c 0.1692987,0 0.2370384,0.013899 0.29965,0.061484 C 5.85977,4.1109247 6.3709547,4.8035028 6.9512412,5.6161712 7.5315275,6.4288394 8.0105003,7.09375 8.015625,7.09375 c 0.00512,0 0.4840975,-0.6649106 1.0643837,-1.4775788 0.5802866,-0.8126684 1.0914713,-1.5052465 1.1359663,-1.5390625 0.06261,-0.047585 0.130351,-0.061484 0.29965,-0.061484 0.257457,0 0.354575,0.054077 0.452671,0.2520537 0.07765,0.156705 0.08023,0.3103541 0.0076,0.4522763 -0.03045,0.059493 -0.565411,0.8218419 -1.1888108,1.6941075 L 8.6536278,8 9.7870822,9.5859375 c 0.6233998,0.8722655 1.1583648,1.6346145 1.1888108,1.6941075 0.03045,0.05949 0.05536,0.157007 0.05536,0.216696 0,0.153909 -0.111555,0.364852 -0.232468,0.439581 -0.125934,0.07783 -0.384451,0.08527 -0.531882,0.01531 C 10.188177,11.914279 9.9214416,11.562208 9.0949591,10.404761 8.5064475,9.5805797 8.0207472,8.90625 8.015625,8.90625 c -0.00512,0 -0.4893388,0.6722519 -1.0760366,1.493893 -0.6468425,0.90587 -1.1020278,1.514748 -1.1564153,1.546875 -0.1219831,0.07206 -0.3939612,0.06951 -0.5328819,-0.005 z"
       id="path819"
       inkscape:connector-curvature="0" />
  </g>
</svg>
