<?xml version="1.0" encoding="UTF-8" standalone="no"?>
<!-- Created with Inkscape (http://www.inkscape.org/) -->

<svg
   version="1.1"
   id="svg2"
   width="1600"
   height="1600"
   viewBox="0 0 1600 1600"
   sodipodi:docname="dutch_florin.svg"
   inkscape:version="1.2.2 (732a01da63, 2022-12-09)"
   xmlns:inkscape="http://www.inkscape.org/namespaces/inkscape"
   xmlns:sodipodi="http://sodipodi.sourceforge.net/DTD/sodipodi-0.dtd"
   xmlns="http://www.w3.org/2000/svg"
   xmlns:svg="http://www.w3.org/2000/svg"
   xmlns:rdf="http://www.w3.org/1999/02/22-rdf-syntax-ns#"
   xmlns:cc="http://creativecommons.org/ns#"
   xmlns:dc="http://purl.org/dc/elements/1.1/">
  <metadata
     id="metadata8">
    <rdf:RDF>
      <cc:Work
         rdf:about="">
        <dc:format>image/svg+xml</dc:format>
        <dc:type
           rdf:resource="http://purl.org/dc/dcmitype/StillImage" />
      </cc:Work>
    </rdf:RDF>
  </metadata>
  <defs
     id="defs6" />
  <sodipodi:namedview
     pagecolor="#808080"
     bordercolor="#666666"
     borderopacity="1"
     objecttolerance="10"
     gridtolerance="10"
     guidetolerance="10"
     inkscape:pageopacity="0"
     inkscape:pageshadow="2"
     inkscape:window-width="1993"
     inkscape:window-height="1009"
     id="namedview4"
     showgrid="false"
     inkscape:zoom="0.5"
     inkscape:cx="479"
     inkscape:cy="360"
     inkscape:window-x="-8"
     inkscape:window-y="-8"
     inkscape:window-maximized="1"
     inkscape:current-layer="DUTCH_FLORIN"
     inkscape:showpageshadow="0"
     inkscape:pagecheckerboard="true"
     inkscape:deskcolor="#d1d1d1" />
  <g
     id="DUTCH_FLORIN"
     transform="matrix(100,0,0,100,0,4.9999997e-5)"
     style="stroke-width:0.0114286">
    <path
       style="fill:none;stroke-width:0.000357143"
       d="M 0,8 V 0 h 8 8 v 8 8 H 8 0 Z m 5.0188478,4.5 c 0.01873,0 0.1522291,0.07039 0.2966656,0.156422 0.4739703,0.282315 1.1257988,0.525796 1.7313616,0.646726 0.2210503,0.04414 0.4284047,0.0559 0.96875,0.05493 0.7526956,-0.0014 1.0179666,-0.03964 1.6212378,-0.233969 0.2854822,-0.09196 1.0409722,-0.443463 1.2065422,-0.561359 0.04847,-0.03451 0.09851,-0.06275 0.11122,-0.06275 0.01271,0 0.40138,0.376172 0.86372,0.835937 0.46234,0.459766 0.85064,0.839482 0.86289,0.843814 0.01225,0.0043 0.345214,-0.315294 0.739921,-0.710281 l 0.717648,-0.718158 -0.686589,-0.694519 c -0.377625,-0.381985 -0.70967,-0.716264 -0.737878,-0.742843 -0.02821,-0.02658 -0.102613,-0.106917 -0.165343,-0.178529 l -0.114054,-0.130205 0.106381,-0.16667 C 12.993859,10.129539 13.311864,8.9926306 13.312316,8.0821356 13.312798,7.1104947 12.975113,5.9171469 12.502054,5.21875 L 12.406802,5.078125 13.265925,4.2185197 14.125049,3.3589147 13.406254,2.6406287 12.687458,1.9223429 11.832393,2.7769847 10.977327,3.6316266 10.730146,3.4890528 C 10.217196,3.1931834 9.5723722,2.9488426 8.96875,2.8216127 8.7596616,2.7775416 8.5567953,2.765625 8.015625,2.765625 7.4134753,2.765625 7.28545,2.774705 6.984375,2.83878 6.4619862,2.9499515 5.9355184,3.1375069 5.4717141,3.3776687 5.0627387,3.5894394 5.0509356,3.5933609 4.9740825,3.5430047 4.9307859,3.5146359 4.5349944,3.1354306 4.0945453,2.7003267 L 3.2937288,1.9092284 2.5688001,2.6341569 1.8438716,3.3590853 2.7069398,4.2225666 3.5700081,5.0860478 3.4638466,5.2695866 C 3.1599975,5.7948984 2.9009857,6.45813 2.7758639,7.03125 2.7128667,7.3198084 2.7043094,7.4441603 2.7048981,8.0625 c 5.825e-4,0.6118366 0.00987,0.7457263 0.071529,1.03125 0.1320504,0.6114794 0.4402353,1.399228 0.6886815,1.760332 0.053565,0.07785 0.097392,0.152989 0.097392,0.166964 0,0.01398 -0.3830978,0.408698 -0.8513286,0.877161 l -0.8513285,0.851751 0.718284,0.718794 0.718284,0.718794 0.8441913,-0.843773 C 4.6049075,12.879698 5.0001178,12.5 5.0188478,12.5 Z M 7.4974809,11.314366 C 6.3821075,11.108501 5.472575,10.417333 5.0156516,9.4283819 4.9568284,9.3010666 4.8706709,9.0717375 4.8241906,8.9187622 4.7454128,8.6594897 4.7396809,8.6014138 4.7396809,8.0625 c 0,-0.5389138 0.00573,-0.5969897 0.08451,-0.8562622 C 5.0047947,6.6118347 5.2719444,6.1580856 5.683765,5.746265 6.0955856,5.3344444 6.5493347,5.0672947 7.1437378,4.8866906 7.4030103,4.8079128 7.4610863,4.8021809 8,4.8021809 c 0.5389138,0 0.5969897,0.00573 0.8562622,0.08451 1.4033368,0.4263919 2.3384308,1.583336 2.4152848,2.9883094 0.08781,1.6052006 -1.02033,3.0679297 -2.568422,3.3902937 -0.2858462,0.05952 -0.9930644,0.08831 -1.2056441,0.04907 z"
       id="path821"
       inkscape:connector-curvature="0" />
    <path
       style="fill:#fefefe;stroke-width:0.000357143"
       d="M 2.5781269,13.468752 1.8598429,12.749958 2.7111714,11.898207 C 3.1794022,11.429744 3.5625,11.035022 3.5625,11.021046 c 0,-0.01398 -0.043826,-0.08911 -0.097392,-0.166964 C 3.2166622,10.492978 2.9084773,9.7052294 2.7764269,9.09375 2.7147674,8.8082263 2.7054807,8.6743366 2.7048981,8.0625 2.7043094,7.4441603 2.7128667,7.3198084 2.7758639,7.03125 2.9009857,6.45813 3.1599975,5.7948984 3.4638466,5.2695866 L 3.5700081,5.0860478 2.7069398,4.2225666 1.8438716,3.3590853 2.5688001,2.6341569 3.2937288,1.9092284 4.0945453,2.7003267 c 0.4404491,0.4351039 0.8362406,0.8143092 0.8795372,0.842678 0.076853,0.050356 0.088656,0.046435 0.4976316,-0.165336 C 5.9355184,3.1375069 6.4619862,2.9499515 6.984375,2.8387798 7.28545,2.7747069 7.4134753,2.765625 8.015625,2.765625 c 0.5411703,0 0.7440366,0.011917 0.953125,0.055988 0.6036222,0.1272299 1.248446,0.3715707 1.761396,0.6674401 l 0.247181,0.1425738 0.855066,-0.8546419 0.855065,-0.8546418 0.718796,0.7182858 0.718795,0.718286 -0.859124,0.859605 -0.859123,0.8596053 0.09525,0.140625 c 0.473059,0.6983969 0.810744,1.8917447 0.810262,2.8633856 -4.53e-4,0.910495 -0.318457,2.0474031 -0.770995,2.7564101 l -0.106381,0.16667 0.114054,0.130205 c 0.06273,0.07161 0.137134,0.15195 0.165343,0.178529 0.02821,0.02658 0.360253,0.360858 0.737878,0.742843 l 0.686589,0.694519 -0.717648,0.718158 c -0.394707,0.394987 -0.727671,0.714613 -0.739921,0.710281 -0.01225,-0.0043 -0.40055,-0.384048 -0.86289,-0.843813 C 11.356005,12.876172 10.967331,12.5 10.954625,12.5 c -0.01271,0 -0.06275,0.02824 -0.11122,0.06275 -0.16557,0.117896 -0.92106,0.469398 -1.2065422,0.561359 C 9.0335916,13.31844 8.7683206,13.356722 8.015625,13.358078 7.4752797,13.35905 7.2679253,13.347298 7.046875,13.303148 6.4413122,13.182218 5.7894838,12.938737 5.3155134,12.656422 5.1710769,12.57039 5.0375775,12.5 5.0188478,12.5 c -0.01873,0 -0.4139403,0.379698 -0.8782456,0.843773 L 3.2964109,14.187546 Z M 8.703125,11.265294 C 10.251217,10.94293 11.359353,9.4802006 11.271547,7.875 11.194693,6.4700266 10.259599,5.3130825 8.8562622,4.8866906 8.5969897,4.8079128 8.5389138,4.8021809 8,4.8021809 c -0.5389138,0 -0.5969897,0.00573 -0.8562622,0.08451 C 6.5493347,5.0672947 6.0955856,5.3344444 5.683765,5.746265 5.2719444,6.1580856 5.0047947,6.6118347 4.8241906,7.2062378 4.7454128,7.4655103 4.7396809,7.5235862 4.7396809,8.0625 c 0,0.5389138 0.00573,0.5969897 0.08451,0.8562622 0.3897444,1.2827238 1.3614272,2.1534728 2.6732903,2.3956038 0.2125797,0.03923 0.9197979,0.01045 1.2056441,-0.04907 z"
       id="path819"
       inkscape:connector-curvature="0" />
  </g>
</svg>
