<?xml version="1.0" encoding="UTF-8" standalone="no"?>
<!-- Created with Inkscape (http://www.inkscape.org/) -->

<svg
   version="1.1"
   id="svg2"
   width="1600"
   height="1600"
   viewBox="0 0 1600 1600"
   sodipodi:docname="edge_vertices.svg"
   inkscape:version="1.2.2 (732a01da63, 2022-12-09)"
   xmlns:inkscape="http://www.inkscape.org/namespaces/inkscape"
   xmlns:sodipodi="http://sodipodi.sourceforge.net/DTD/sodipodi-0.dtd"
   xmlns="http://www.w3.org/2000/svg"
   xmlns:svg="http://www.w3.org/2000/svg"
   xmlns:rdf="http://www.w3.org/1999/02/22-rdf-syntax-ns#"
   xmlns:cc="http://creativecommons.org/ns#"
   xmlns:dc="http://purl.org/dc/elements/1.1/">
  <metadata
     id="metadata8">
    <rdf:RDF>
      <cc:Work
         rdf:about="">
        <dc:format>image/svg+xml</dc:format>
        <dc:type
           rdf:resource="http://purl.org/dc/dcmitype/StillImage" />
      </cc:Work>
    </rdf:RDF>
  </metadata>
  <defs
     id="defs6" />
  <sodipodi:namedview
     pagecolor="#808080"
     bordercolor="#666666"
     borderopacity="1"
     objecttolerance="10"
     gridtolerance="10"
     guidetolerance="10"
     inkscape:pageopacity="0"
     inkscape:pageshadow="2"
     inkscape:window-width="1993"
     inkscape:window-height="1009"
     id="namedview4"
     showgrid="false"
     inkscape:zoom="0.5"
     inkscape:cx="299"
     inkscape:cy="508"
     inkscape:window-x="-8"
     inkscape:window-y="-8"
     inkscape:window-maximized="1"
     inkscape:current-layer="EDGE_VERTICES"
     inkscape:showpageshadow="0"
     inkscape:pagecheckerboard="true"
     inkscape:deskcolor="#d1d1d1" />
  <g
     id="EDGE_VERTICES"
     transform="matrix(100,0,0,100,0,4.9999997e-5)"
     style="stroke-width:0.0114286">
    <path
       style="fill:none;stroke-width:0.000357143"
       d="M 2,15.5 V 15 H 1.5 1 V 14.484375 13.96875 H 0.5 0 V 11.984375 10 H 0.5 1 V 9.5 9 H 1.5 2 V 8.5 8 H 1 0 V 4 0 H 4 8 V 1 2 H 8.5 9 V 1.5 1 H 9.5 10 V 0.5 0 h 2 2 V 0.5 1 H 14.5 15 V 1.5 2 H 15.5 16 V 3.984375 5.96875 H 15.5 15 V 6.484375 7 H 14.5 14 V 7.5 8 h 1 1 v 4 4 H 12 8 V 14.984375 13.96875 H 7.5 7 V 14.484375 15 H 6.5 6 V 15.5 16 H 4 2 Z m 3.421875,-1.593004 c 0.20039,-0.09924 0.3875012,-0.287039 0.4833412,-0.485121 0.063232,-0.130687 0.077567,-0.215046 0.087624,-0.515625 L 6.0048631,12.546875 9.2726575,9.2765931 12.540452,6.0063112 12.903039,5.993695 c 0.303495,-0.01056 0.38805,-0.024958 0.518836,-0.088347 0.198164,-0.096046 0.385925,-0.2831691 0.485121,-0.4834725 l 0.07738,-0.15625 V 4 2.734375 l -0.07738,-0.15625 C 13.80834,2.3789118 13.621088,2.1916604 13.421875,2.0930044 L 13.265625,2.015625 H 12 10.734375 l -0.15625,0.077379 C 10.377903,2.19216 10.190769,2.379884 10.094529,2.578125 10.029436,2.7122086 10.017023,2.7897909 10.007034,3.125 L 9.9953925,3.515625 6.7585812,6.7547962 3.52177,9.9939675 3.1280725,10.006205 c -0.3379766,0.01051 -0.4158119,0.02299 -0.5499475,0.08821 -0.198314,0.09642 -0.3860029,0.283566 -0.4851206,0.483712 l -0.077379,0.15625 -0.00923,1.201985 c -0.008,1.042683 -0.00249,1.222593 0.041633,1.35748 0.1026553,0.313851 0.3274482,0.543951 0.6396375,0.654738 0.1208199,0.04288 0.3108455,0.04886 1.3592066,0.04282 l 1.21875,-0.007 z"
       id="path827"
       inkscape:connector-curvature="0" />
    <path
       style="fill:#fefefe;stroke-width:0.000357143"
       d="M 5.9924853,10.915145 C 5.9510003,10.457646 5.5872531,10.071997 5.1393103,10.010599 5.0626893,10.000099 5.0002084,9.982869 5.0004628,9.972315 5.0007128,9.96176 6.1236672,8.8308684 7.4959069,7.4592216 l 2.4949809,-2.4939035 0.018267,0.1542341 c 0.05406,0.4564965 0.428764,0.8204422 0.900911,0.8750556 L 11.091764,6.015625 8.5503591,8.5561931 6.0089534,11.096761 Z"
       id="path825"
       inkscape:connector-curvature="0" />
    <path
       style="fill:#fecb32;stroke-width:0.000357143"
       d="M 0,14.984375 V 13.96875 H 0.5 1 V 14.484375 15 H 1.5 2 V 15.5 16 H 1 0 Z M 6,15.5 V 15 H 6.5 7 V 14.484375 13.96875 H 7.5 8 V 14.984375 16 H 7 6 Z M 3,12 v -1 h 1 1 v 1 1 H 4 3 Z M 0,9 V 8 H 1 2 V 8.5 9 H 1.5 1 V 9.5 10 H 0.5 0 Z M 14,7.5 V 7 H 14.5 15 V 6.484375 5.96875 H 15.5 16 V 6.984375 8 H 15 14 Z M 11,4 V 3 h 1 1 V 4 5 H 12 11 Z M 8,1 V 0 h 1 1 V 0.5 1 H 9.5 9 V 1.5 2 H 8.5 8 Z m 7,0.5 V 1 H 14.5 14 V 0.5 0 h 1 1 V 1 2 H 15.5 15 Z"
       id="path823"
       inkscape:connector-curvature="0" />
    <path
       style="fill:#656565;stroke-width:0.000357143"
       d="M 6,11.818521 V 11.105793 L 8.5533728,8.5528963 11.106746,6 h 0.720008 0.720009 L 9.28125,9.265625 C 7.4852178,11.061719 6.0121962,12.53125 6.0078684,12.53125 6.0035409,12.53125 6,12.210522 6,11.818521 Z M 6.75,6.765625 C 8.5288441,4.9867187 9.9878028,3.53125 9.9921309,3.53125 9.9964588,3.53125 10,3.8517694 10,4.2435153 V 4.9557806 L 7.4783791,7.4778903 4.9567578,10 h -0.7205097 -0.72051 z"
       id="path821"
       inkscape:connector-curvature="0" />
    <path
       style="fill:#983200;stroke-width:0.000357143"
       d="M 2.6876684,13.948578 C 2.3754791,13.837791 2.1506862,13.607691 2.0480309,13.29384 2.0039113,13.158953 1.9983937,12.979043 2.0063979,11.93636 l 0.00923,-1.201985 0.077379,-0.15625 C 2.1916604,10.378912 2.3789118,10.19166 2.578125,10.093004 l 0.15625,-0.07738 H 4 5.265625 l 0.15625,0.07738 c 0.1992131,0.09866 0.3864647,0.285908 0.4851206,0.485121 l 0.077379,0.15625 V 12 13.265625 l -0.077379,0.15625 C 5.8083397,13.621088 5.6210881,13.80834 5.421875,13.906996 l -0.15625,0.07738 -1.21875,0.007 c -1.0483611,0.006 -1.2383867,6.2e-5 -1.3592066,-0.04282 z M 5,12 V 11 H 4 3 v 1 1 H 4 5 Z M 10.687668,5.9485781 C 10.375479,5.8377906 10.150686,5.6076909 10.048031,5.2938403 10.003911,5.1589528 9.9983938,4.9790428 10.006398,3.9363597 l 0.0092,-1.2019847 0.07738,-0.15625 c 0.09866,-0.1992132 0.285908,-0.3864646 0.485121,-0.4851206 l 0.15625,-0.077379 H 12 13.265625 l 0.15625,0.077379 c 0.199213,0.098656 0.386465,0.2859074 0.485121,0.4851206 l 0.07738,0.15625 V 4 5.265625 l -0.07738,0.15625 c -0.09866,0.1992131 -0.285908,0.3864647 -0.485121,0.4851206 l -0.15625,0.077379 -1.21875,0.00702 c -1.048361,0.00604 -1.238387,6.26e-5 -1.359207,-0.042821 z M 13,4 V 3 h -1 -1 v 1 1 h 1 1 z"
       id="path819"
       inkscape:connector-curvature="0" />
  </g>
</svg>
