<?xml version="1.0" encoding="UTF-8" standalone="no"?>
<!-- Created with Inkscape (http://www.inkscape.org/) -->

<svg
   version="1.1"
   id="svg2"
   width="1600"
   height="1600"
   viewBox="0 0 1600 1600"
   sodipodi:docname="edit_external.svg"
   inkscape:version="1.2.2 (732a01da63, 2022-12-09)"
   xmlns:inkscape="http://www.inkscape.org/namespaces/inkscape"
   xmlns:sodipodi="http://sodipodi.sourceforge.net/DTD/sodipodi-0.dtd"
   xmlns="http://www.w3.org/2000/svg"
   xmlns:svg="http://www.w3.org/2000/svg"
   xmlns:rdf="http://www.w3.org/1999/02/22-rdf-syntax-ns#"
   xmlns:cc="http://creativecommons.org/ns#"
   xmlns:dc="http://purl.org/dc/elements/1.1/">
  <metadata
     id="metadata8">
    <rdf:RDF>
      <cc:Work
         rdf:about="">
        <dc:format>image/svg+xml</dc:format>
        <dc:type
           rdf:resource="http://purl.org/dc/dcmitype/StillImage" />
      </cc:Work>
    </rdf:RDF>
  </metadata>
  <defs
     id="defs6" />
  <sodipodi:namedview
     pagecolor="#808080"
     bordercolor="#666666"
     borderopacity="1"
     objecttolerance="10"
     gridtolerance="10"
     guidetolerance="10"
     inkscape:pageopacity="0"
     inkscape:pageshadow="2"
     inkscape:window-width="1993"
     inkscape:window-height="1009"
     id="namedview4"
     showgrid="false"
     inkscape:zoom="0.5"
     inkscape:cx="587"
     inkscape:cy="650"
     inkscape:window-x="-8"
     inkscape:window-y="-8"
     inkscape:window-maximized="1"
     inkscape:current-layer="EXTERNAL"
     inkscape:showpageshadow="0"
     inkscape:pagecheckerboard="true"
     inkscape:deskcolor="#d1d1d1" />
  <g
     id="EXTERNAL"
     transform="matrix(100,0,0,100,0,4.9999997e-5)"
     style="stroke-width:0.0114286">
    <path
       style="fill:none;stroke-width:0.000357143"
       d="M 0,8 V 0 H 4.5 9 v 1 1 h 1.833183 1.833183 L 9.9332547,4.7421875 C 7.8981903,6.7840097 7.1825656,7.5208156 7.1313216,7.6270537 7.0287328,7.8397378 7.0337403,8.211265 7.1421266,8.4287684 c 0.095559,0.1917622 0.3100968,0.3973622 0.5042547,0.4832475 0.11506,0.050896 0.1930687,0.060665 0.4144821,0.051903 0.2419947,-0.00958 0.2882922,-0.021353 0.4106288,-0.1044485 0.075836,-0.05151 1.3507734,-1.3019881 2.8331958,-2.77884 L 14,3.395445 V 5.1977225 7 h 1 1 V 11.5 16 H 8 0 Z m 11.878719,7.422817 c 0.554411,-0.09723 1.31604,-0.4252 1.763524,-0.759392 0.33423,-0.249612 0.908566,-0.845902 1.107917,-1.150266 0.331303,-0.505826 0.610474,-1.199043 0.684888,-1.700659 0.02043,-0.137722 0.03777,-0.803519 0.04205,-1.614499 0.0071,-1.3508713 0.0059,-1.3819616 -0.05715,-1.4668191 C 15.384507,8.6834997 15.316679,8.6154928 15.269215,8.5800559 15.18561,8.5176359 15.145996,8.515625 14,8.515625 c -1.145996,0 -1.18561,0.00201 -1.269215,0.064431 -0.04746,0.035437 -0.115292,0.1032291 -0.150729,0.1506491 -0.06183,0.082732 -0.06511,0.1363531 -0.0812,1.3261939 -0.01587,1.173195 -0.02043,1.249819 -0.08465,1.422738 -0.205402,0.553013 -0.657032,0.918641 -1.226701,0.993105 -0.366556,0.04791 -6.0079294,0.04813 -6.3701347,2.5e-4 C 4.1345147,12.382715 3.6174472,11.86568 3.5269291,11.182638 3.4788944,10.820171 3.4791131,5.1793291 3.5271791,4.8125031 3.6018347,4.2427169 3.9674169,3.7911803 4.5203656,3.5858019 4.693285,3.5215756 4.7699091,3.5170162 5.9431041,3.5011487 7.132945,3.4850562 7.1865663,3.4817731 7.2692981,3.4199472 7.3167181,3.3845103 7.3845103,3.3166822 7.4199472,3.2692181 7.4823641,3.1856103 7.484375,3.1459963 7.484375,2 7.484375,0.85400375 7.482365,0.81438966 7.419944,0.73078497 7.3845072,0.68332097 7.3164956,0.61549288 7.2688075,0.58005591 7.1839172,0.51697384 7.15321,0.51578697 5.8019884,0.52336213 5.0119628,0.52779112 4.3216644,0.54571131 4.1875,0.56527434 3.6535547,0.64313094 2.8102071,0.99789578 2.3528767,1.337032 2.2361383,1.4236001 1.9767519,1.6618598 1.7764625,1.8664982 1.1890262,2.4666895 0.86449184,3.0333537 0.6355015,3.8587112 0.56139219,4.1258259 0.55588981,4.2021425 0.53068453,5.3125 c -0.0340304,1.4991278 -0.0340304,3.8758722 0,5.375 0.0252053,1.110357 0.0307077,1.186674 0.10481697,1.453789 0.22612666,0.815036 0.5528188,1.3894 1.1249443,1.977789 0.191911,0.197367 0.4614292,0.442869 0.5989292,0.545561 0.4537522,0.338884 1.3196125,0.70451 1.8215516,0.769185 0.115334,0.01486 1.8355906,0.0288 3.8227925,0.03097 3.0519109,0.0033 3.6537729,-0.0032 3.8749999,-0.04198 z"
       id="path825"
       inkscape:connector-curvature="0" />
    <path
       style="fill:#fefefe;stroke-width:0.000357143"
       d="M 4.3125,14.934676 C 3.8302238,14.872592 3.0826595,14.556551 2.6401831,14.227686 2.3063379,13.97956 1.8352881,13.474873 1.6296624,13.145006 1.4261279,12.818493 1.2417666,12.398433 1.1352119,12.01842 1.0559887,11.735882 1.0553903,11.724471 1.0223821,9.8671875 0.9989699,8.5498419 0.9989699,7.4501581 1.0223821,6.1328125 1.0553903,4.2755288 1.0559887,4.2641184 1.1352119,3.9815797 1.2417039,3.6017909 1.4260262,3.1817256 1.6296624,2.8547413 1.8260795,2.5393489 2.3186447,2.0083606 2.6265186,1.7801242 3.069423,1.4517856 3.7964953,1.1416734 4.296875,1.0676809 4.4171875,1.0498899 5.0746094,1.025422 5.7578125,1.0133076 L 7,0.99128153 V 1.9933684 2.9954553 L 5.7890625,3.0058858 4.578125,3.0163164 4.3489187,3.0996961 C 4.0189416,3.2197337 3.8046053,3.3598831 3.5631334,3.6135016 3.3326544,3.8555747 3.1607294,4.1361122 3.0773041,4.40625 2.9991606,4.6592853 2.9547107,7.4547516 2.9929557,9.7109375 c 0.02795,1.6488375 0.031534,1.7183105 0.098753,1.9140625 0.1083491,0.31553 0.2429138,0.526406 0.4998997,0.783392 0.2569894,0.256989 0.46787,0.391556 0.7833916,0.499895 0.1957937,0.06723 0.2648778,0.07078 1.9140625,0.09848 2.2599766,0.03795 5.0528655,-0.0063 5.3046875,-0.08407 0.270129,-0.08342 0.550671,-0.255341 0.792748,-0.485824 0.253619,-0.241472 0.393768,-0.455809 0.513806,-0.785786 l 0.08338,-0.229206 0.01043,-1.210937 L 13.004545,9 h 1.002456 1.002457 l -0.02199,1.242188 c -0.01209,0.683203 -0.0368,1.340625 -0.05491,1.460937 -0.105931,0.703726 -0.506008,1.486015 -1.049985,2.053087 -0.467141,0.486973 -0.997146,0.824954 -1.632574,1.041084 -0.510483,0.173631 -0.463764,0.171788 -4.2462809,0.167492 -1.9184519,-0.0022 -3.5795004,-0.01573 -3.6912191,-0.03011 z"
       id="path823"
       inkscape:connector-curvature="0" />
    <path
       style="fill:#98cbfe;stroke-width:0.000357143"
       d="M 7.6041581,8.8910216 C 7.4152697,8.7956513 7.207515,8.5820141 7.1233234,8.3965722 7.0357291,8.2036353 7.0397487,7.8169 7.1313216,7.6270537 7.1825656,7.5208156 7.8981903,6.7840097 9.9332547,4.7421875 L 12.666366,2 H 10.833183 9 V 1 0 H 12.5 16 V 3.5 7 H 15 14 V 5.1977225 3.395445 L 11.304688,6.0806303 C 9.8222656,7.5574822 8.5473378,8.8079603 8.4715147,8.8594703 8.3474197,8.9437734 8.305295,8.9540947 8.0496397,8.9628356 7.7947622,8.97155 7.74906,8.9641825 7.6041581,8.8910216 Z"
       id="path821"
       inkscape:connector-curvature="0" />
    <path
       style="fill:#323232;stroke-width:0.000357143"
       d="M 4.1809266,15.433824 C 3.6789875,15.369149 2.8131272,15.003523 2.359375,14.664639 2.221875,14.561947 1.9523568,14.316445 1.7604458,14.119078 1.1883203,13.530689 0.86162816,12.956325 0.6355015,12.141289 0.56139219,11.874174 0.55588981,11.797857 0.53068453,10.6875 c -0.0340304,-1.4991278 -0.0340304,-3.8758722 0,-5.375 C 0.55588981,4.2021425 0.56139219,4.1258259 0.6355015,3.8587112 0.86449184,3.0333537 1.1890262,2.4666895 1.7764625,1.8664982 1.9767519,1.6618598 2.2361383,1.4236001 2.3528767,1.337032 2.8102071,0.99789578 3.6535547,0.64313094 4.1875,0.56527434 4.3216644,0.54571134 5.0119628,0.52779114 5.8019884,0.52336214 7.15321,0.51578714 7.1839172,0.51697414 7.2688075,0.58005594 7.3164955,0.61549294 7.3845072,0.683321 7.4199441,0.730785 7.4823641,0.81438966 7.484375,0.85400375 7.484375,2 c 0,1.1459963 -0.00201,1.1856103 -0.064431,1.269215 C 7.3845072,3.3166791 7.316715,3.3845072 7.269295,3.4199441 7.1865631,3.48177 7.1329419,3.4850531 5.9431009,3.5011456 4.7699059,3.5170131 4.6932819,3.5215725 4.5203625,3.5857988 3.9674137,3.7911772 3.6018316,4.2427137 3.5271759,4.8125 c -0.048063,0.3668259 -0.048281,6.007668 -2.5e-4,6.370135 0.090518,0.683042 0.6075857,1.200077 1.2904363,1.290353 0.3622053,0.04789 6.0035788,0.04767 6.3701348,-2.5e-4 0.569669,-0.07446 1.021299,-0.440091 1.226701,-0.993104 0.06423,-0.172919 0.06879,-0.249543 0.08465,-1.422738 0.01609,-1.189841 0.01938,-1.2434622 0.0812,-1.3261941 0.03544,-0.04742 0.103265,-0.1152122 0.150729,-0.1506491 0.08361,-0.06242 0.123219,-0.064431 1.269215,-0.064431 1.145996,0 1.18561,0.00201 1.269215,0.064431 0.04746,0.035437 0.115292,0.1034438 0.150729,0.151126 0.06306,0.084858 0.06428,0.1159478 0.05715,1.4668192 -0.0043,0.81098 -0.02162,1.476777 -0.04205,1.614499 -0.07441,0.501616 -0.353585,1.194833 -0.684887,1.700659 -0.199351,0.304364 -0.773688,0.900654 -1.107917,1.150266 -0.285998,0.21359 -0.813382,0.48083 -1.220368,0.618394 -0.567666,0.191874 -0.457492,0.187311 -4.4181561,0.182978 -1.9872018,-0.0022 -3.7074584,-0.01611 -3.8227925,-0.03097 z m 7.5727924,-0.510942 c 1.209358,-0.211796 2.300378,-1.059953 2.85537,-2.219757 0.160236,-0.334856 0.278278,-0.699781 0.32347,-1 0.01811,-0.120313 0.04282,-0.777734 0.05491,-1.460937 L 15.009458,9 h -1.002457 -1.002456 l -0.01043,1.210938 -0.01043,1.210937 -0.08338,0.229206 c -0.120038,0.329977 -0.260187,0.544314 -0.513806,0.785786 -0.242077,0.230483 -0.522619,0.402409 -0.792748,0.485824 -0.251822,0.07776 -3.0447109,0.122027 -5.3046875,0.08407 C 4.6398778,12.97907 4.5707937,12.975515 4.375,12.908287 4.0594784,12.799948 3.8485978,12.665381 3.5916084,12.408392 3.3346225,12.151406 3.2000578,11.94053 3.0917087,11.625 3.0244898,11.429248 3.0209054,11.359775 2.9929557,9.7109375 2.9547107,7.4547516 2.9991606,4.6592853 3.0773041,4.40625 3.1607294,4.1361122 3.3326544,3.8555747 3.5631334,3.6135016 3.8046053,3.3598831 4.0189416,3.2197337 4.3489187,3.0996961 L 4.578125,3.0163164 5.7890625,3.0058858 7,2.9954553 V 1.9933684 0.99128153 L 5.7578125,1.0133076 C 5.0746094,1.025422 4.4171875,1.0498899 4.296875,1.0676809 3.7964953,1.1416734 3.069423,1.4517856 2.6265186,1.7801243 2.3186448,2.0083606 1.8260795,2.5393489 1.6296624,2.8547413 1.4260262,3.1817256 1.2417039,3.6017909 1.1352119,3.9815797 1.0559888,4.2641184 1.0553903,4.2755288 1.0223821,6.1328125 c -0.0234122,1.3173456 -0.0234122,2.4170294 0,3.734375 0.033008,1.8572835 0.033607,1.8686945 0.1128298,2.1512325 0.1065547,0.380013 0.290916,0.800073 0.4944505,1.126586 0.2056257,0.329867 0.6766755,0.834554 1.0105207,1.08268 0.4424764,0.328865 1.1900407,0.644906 1.6723169,0.70699 0.1117187,0.01438 1.7727672,0.02793 3.6912191,0.03011 2.9395989,0.0033 3.5292779,-0.0033 3.7499999,-0.04191 z"
       id="path819"
       inkscape:connector-curvature="0" />
  </g>
</svg>
