<?xml version="1.0" encoding="UTF-8" standalone="no"?>
<!-- Created with Inkscape (http://www.inkscape.org/) -->

<svg
   version="1.1"
   id="svg2"
   width="1600"
   height="1600"
   viewBox="0 0 1600 1600"
   sodipodi:docname="empty_image.svg"
   inkscape:version="1.2.2 (732a01da63, 2022-12-09)"
   xmlns:inkscape="http://www.inkscape.org/namespaces/inkscape"
   xmlns:sodipodi="http://sodipodi.sourceforge.net/DTD/sodipodi-0.dtd"
   xmlns="http://www.w3.org/2000/svg"
   xmlns:svg="http://www.w3.org/2000/svg"
   xmlns:rdf="http://www.w3.org/1999/02/22-rdf-syntax-ns#"
   xmlns:cc="http://creativecommons.org/ns#"
   xmlns:dc="http://purl.org/dc/elements/1.1/">
  <metadata
     id="metadata8">
    <rdf:RDF>
      <cc:Work
         rdf:about="">
        <dc:format>image/svg+xml</dc:format>
        <dc:type
           rdf:resource="http://purl.org/dc/dcmitype/StillImage" />
      </cc:Work>
    </rdf:RDF>
  </metadata>
  <defs
     id="defs6" />
  <sodipodi:namedview
     pagecolor="#808080"
     bordercolor="#666666"
     borderopacity="1"
     objecttolerance="10"
     gridtolerance="10"
     guidetolerance="10"
     inkscape:pageopacity="0"
     inkscape:pageshadow="2"
     inkscape:window-width="1993"
     inkscape:window-height="1009"
     id="namedview4"
     showgrid="false"
     inkscape:zoom="0.5"
     inkscape:cx="265"
     inkscape:cy="262"
     inkscape:window-x="-8"
     inkscape:window-y="-8"
     inkscape:window-maximized="1"
     inkscape:current-layer="EMPTY_IMAGE"
     inkscape:showpageshadow="0"
     inkscape:pagecheckerboard="true"
     inkscape:deskcolor="#d1d1d1" />
  <g
     id="EMPTY_IMAGE"
     transform="matrix(100,0,0,100,0,4.9999997e-5)"
     style="stroke-width:0.0114286">
    <path
       style="fill:none;stroke-width:0.000357143"
       d="M 0,8 V 0 h 8 8 v 8 8 H 8 0 Z m 13.269218,7.419944 c 0.04746,-0.03544 0.115289,-0.103261 0.150726,-0.150719 0.06438,-0.08622 0.06444,-0.09066 0.08006,-5.7324444 0.01164,-4.2046472 0.0065,-5.6700906 -0.02022,-5.7399056 -0.02105,-0.055047 -0.691906,-0.7475964 -1.625,-1.6775451 -1.355489,-1.35091915 -1.605235,-1.58657599 -1.698528,-1.60270781 -0.06016,-0.010402 -2.18608,-0.0148817 -4.724275,-0.009955 -4.60534394,0.008939 -4.61507859,0.009091 -4.70119406,0.0733887 -0.0474618,0.035437 -0.11528807,0.10326428 -0.15072503,0.15072728 L 0.515625,0.81707959 0.50672091,7.9163522 c -0.004897,3.9045998 -8.2219e-4,7.1445618 0.009056,7.1999148 0.0223485,0.125235 0.1536701,0.284907 0.27954885,0.339901 0.0784903,0.03429 1.17936484,0.04045 6.24144734,0.03492 l 6.1461489,-0.0067 z"
       id="path853"
       inkscape:connector-curvature="0" />
    <path
       style="fill:#fefefe;stroke-width:0.000357143"
       d="M 1,8 V 1 H 5.25 9.5 V 2.75 4.5 H 11.25 13 V 9.75 15 H 7 1 Z M 12,9.5 V 5 H 10.5 9 V 3.5 2 H 5.5 2 v 6 6 h 5 5 z M 4.1306628,6.3157169 3.2769503,5.8882506 4.0962691,4.8639728 C 4.7554125,4.0399387 4.9230003,3.8477278 4.9535047,3.880785 4.9743587,3.903384 5.2665138,4.381665 5.6027369,4.9436306 L 6.2140522,5.9653866 5.6304634,6.3373941 C 5.30949,6.5419981 5.0328125,6.7170025 5.015625,6.7262922 4.9984375,6.7355822 4.6002044,6.5508231 4.1306628,6.3157169 Z M 11.507813,4.0078197 10,3.9993997 V 2.4920082 0.98461663 L 11.515625,2.5 c 0.833594,0.8334609 1.515625,1.5189534 1.515625,1.5233166 0,0.00436 -0.0035,0.00456 -0.0078,4.281e-4 -0.0043,-0.00413 -0.686329,-0.011294 -1.515625,-0.015925 z"
       id="path851"
       inkscape:connector-curvature="0" />
    <path
       style="fill:#fecb32;stroke-width:0.000357143"
       d="M 2,13.25 V 12.5 h 5 5 V 13.25 14 H 7 2 Z M 7.7408353,10.875 8.3833644,9.75 h 0.3593797 c 0.4594243,0 0.5756665,-0.035043 0.7739397,-0.2333162 0.09911,-0.09911 0.171369,-0.204896 0.1953125,-0.2859344 C 9.7378303,9.1433134 9.75,8.8245144 9.75,8.2352128 V 7.3683016 L 9.8659028,7.1563672 9.9818056,6.9444325 10.990903,8.7104684 12,10.476504 V 11.238252 12 H 9.5491531 7.0983062 Z M 11.003615,7.68718 C 10.464197,6.7420434 10.004979,5.96875 9.9831306,5.96875 c -0.021848,0 -0.114174,0.1323172 -0.2051678,0.2940381 L 9.6125197,6.5568262 9.4799841,6.4401637 C 9.4070897,6.3759994 9.2922503,6.3069634 9.2247863,6.2867506 9.1415559,6.2618141 8.7617275,6.2496816 8.0432494,6.2490097 L 6.984375,6.2480197 6.00341,4.6083847 C 5.4638791,3.7065856 5.0060591,2.96875 4.9860325,2.96875 4.9660056,2.96875 4.2916394,3.7914063 3.4874403,4.796875 2.6832417,5.8023438 2.0195772,6.625 2.0126304,6.625 2.0056837,6.625 2,5.584375 2,4.3125 V 2 H 5.5 9 V 2.4233763 2.8467525 L 8.8548928,2.7469162 C 8.3839669,2.4229107 7.6693856,2.4124619 7.1827622,2.7224658 6.7433125,3.0024177 6.5,3.4576859 6.5,4 6.5,4.5518775 6.7601756,5.0235506 7.21875,5.303025 7.7734616,5.6410897 8.6361144,5.5372834 9.0601347,5.0814447 L 9.1358947,5 H 10.567947 12 V 7.203125 C 12,8.4148437 11.9965,9.4061059 11.9922,9.40593 11.9879,9.4057425 11.543045,8.6323166 11.003627,7.68718 Z"
       id="path849"
       inkscape:connector-curvature="0" />
    <path
       style="fill:#fdfe00;stroke-width:0.000357143"
       d="M 7.6876684,4.94977 C 6.97962,4.6924953 6.7728872,3.8193719 7.2961294,3.2961294 7.5014528,3.0908059 7.6872622,3.017164 8,3.017164 c 0.3127378,0 0.4985472,0.073642 0.7038706,0.2789654 C 8.9091941,3.5014528 8.9828359,3.6872622 8.9828359,4 c 0,0.3127378 -0.073642,0.4985472 -0.2789653,0.7038706 C 8.4471069,4.9606341 8.0091959,5.0665994 7.6876684,4.94977 Z"
       id="path847"
       inkscape:connector-curvature="0" />
    <path
       style="fill:#fe9832;stroke-width:0.000357143"
       d="M 2.0000632,9.7423931 2.0001257,7.484375 2.4254086,6.953125 C 2.6593142,6.6609375 2.8781101,6.3872503 2.9116218,6.3449309 l 0.06093,-0.076944 0.9826031,0.4910065 C 4.4955878,7.0290472 4.9681059,7.25 5.0051966,7.25 5.0866146,7.25 5.1689328,7.202506 5.8908388,6.7390213 6.2078012,6.5355222 6.4648688,6.3898688 6.4801309,6.4051309 6.4953929,6.4203929 6.4664199,6.4844789 6.4137139,6.5520388 6.362295,6.6179487 6.3044247,6.7196766 6.2851125,6.7781006 6.2353887,6.92853 6.2368144,9.0581138 6.28675,9.2247863 6.3329128,9.3788644 6.5242478,9.5989084 6.6788653,9.6757369 6.7738409,9.7229297 6.8925691,9.7374247 7.2871528,9.75 l 0.4902788,0.015625 -0.63451,1.109375 -0.6345097,1.109375 -2.2542063,0.008 -2.2542062,0.008 6.25e-5,-2.2580179 z M 7,8 V 7 H 8 9 V 8 9 H 8 7 Z"
       id="path845"
       inkscape:connector-curvature="0" />
    <path
       style="fill:#fe6532;stroke-width:0.000357143"
       d="M 7.4966697,5.4258009 C 7.168445,5.3099344 6.8765169,5.0745794 6.6971853,4.78125 6.4326172,4.3485006 6.4325238,3.6526738 6.6969666,3.21875 6.7979319,3.0530811 7.0201728,2.8260382 7.1827537,2.7224658 7.6693772,2.4124619 8.3839584,2.4229107 8.8548844,2.7469162 L 9,2.8467525 8.9985094,3.3374388 C 8.9970312,3.8232063 8.996525,3.8267169 8.9478766,3.6876684 8.7010403,2.9821559 7.8191519,2.7731082 7.2961306,3.2961294 7.0908072,3.5014528 7.0171653,3.6872622 7.0171653,4 c 0,0.2186084 0.01356,0.2932819 0.07661,0.421875 0.3979537,0.8116478 1.5557384,0.7432441 1.8541016,-0.1095434 l 0.049141,-0.1404566 0.00149,0.4140625 C 8.9999647,4.9897744 9.0016784,5 9.0679475,5 c 0.067765,0 0.067744,2.187e-4 -0.00781,0.081445 -0.2496872,0.2684237 -0.6277987,0.4172372 -1.0601347,0.4172372 -0.2311206,0 -0.3426025,-0.016142 -0.5033303,-0.072881 z"
       id="path843"
       inkscape:connector-curvature="0" />
    <path
       style="fill:#656565;stroke-width:0.000357143"
       d="M 9.5,2.75 V 1 H 9.75 10 V 2.5 4 H 11.5 13 V 4.25 4.5 H 11.25 9.5 Z"
       id="path841"
       inkscape:connector-curvature="0" />
    <path
       style="fill:#323232;stroke-width:0.000357143"
       d="m 0.79532572,15.456168 c -0.12587875,-0.05499 -0.25720035,-0.214666 -0.27954885,-0.3399 -0.009878,-0.05535 -0.0139532,-3.295316 -0.009056,-7.1999158 l 0.008904,-7.09927261 0.0644309,-0.0862964 c 0.035437,-0.047463 0.10326325,-0.11529031 0.15072503,-0.15072728 0.0861155,-0.0642975 0.0958501,-0.0644495 4.7011941,-0.0733887 2.538195,-0.004927 4.6641191,-4.4719e-4 4.7242751,0.009955 0.09329,0.0161318 0.343039,0.25178866 1.698528,1.60270779 0.933094,0.9299487 1.603952,1.6224985 1.625,1.6775451 0.0267,0.069815 0.03186,1.5352584 0.02022,5.7399056 -0.01561,5.6417803 -0.01567,5.6462223 -0.08006,5.7324443 -0.03544,0.04746 -0.103264,0.115282 -0.150726,0.150719 l -0.0863,0.06443 -6.146149,0.0067 c -5.0620825,0.0055 -6.16295714,-6.3e-4 -6.24144742,-0.03492 z M 13.00764,9.4998791 13.015625,3.9997581 11.515505,2.499879 10.015386,1 H 5.5076928 1 v 7 7 H 6.9998272 12.999654 Z M 2,12.250206 v -0.249795 l 2.2542062,-0.008 2.2542063,-0.008 L 7.1429222,10.875 7.7774322,9.765625 7.2871534,9.75 C 6.8925697,9.7374247 6.7738416,9.7229297 6.6788659,9.6757369 6.5242484,9.5989084 6.3329134,9.3788644 6.2867506,9.2247862 6.2345909,9.0506931 6.235665,6.9463944 6.2880037,6.7692506 6.3387197,6.5975994 6.5975994,6.3387197 6.7692506,6.2880037 c 0.1771438,-0.052339 2.2814425,-0.053413 2.4555356,-0.00125 0.067464,0.020213 0.1823035,0.089249 0.2551979,0.1534131 L 9.6125197,6.5568262 9.7779628,6.2627881 C 9.8689566,6.1010672 9.9612581,5.96875 9.9830775,5.96875 c 0.021819,0 0.4849065,0.7793969 1.0290825,1.7319934 l 0.989411,1.7319932 -0.0086,0.5088634 -0.0086,0.508863 L 10.983163,8.6973144 9.9819516,6.9441656 9.8659756,7.1562338 9.75,7.3683016 V 8.2352128 C 9.75,8.8245144 9.73783,9.1433134 9.711996,9.2307494 9.6612803,9.4024006 9.4024006,9.6612803 9.2307494,9.7119963 9.1600053,9.7328984 8.9404028,9.75 8.7427441,9.75 H 8.3833644 L 7.7408353,10.875 7.0983062,12 H 9.5491531 12 v 0.25 0.25 H 7 2 Z M 9,8 V 7 H 8 7 v 1 1 h 1 1 z"
       id="path839"
       inkscape:connector-curvature="0" />
    <path
       style="fill:#000000;stroke-width:0.000357143"
       d="M 2.0006949,7.0701837 2,6.6559925 3.4749272,4.8123712 C 4.2861369,3.7983797 4.9661291,2.96875 4.9860206,2.96875 c 0.033715,0 2.0013263,3.2454281 1.977831,3.2622841 -0.0059,0.00423 -0.074008,0.025881 -0.1513516,0.048108 -0.077344,0.022227 -0.1770947,0.06634 -0.2216691,0.098029 -0.048532,0.034502 -0.092423,0.046237 -0.1094078,0.029251 C 6.4644381,6.3894381 6.2275134,6.5228662 5.8908388,6.7390212 5.1685162,7.2027734 5.0866316,7.25 5.0048716,7.25 4.9676025,7.25 4.5013478,7.0320312 3.96875,6.765625 3.4361522,6.4992187 2.9897558,6.2819156 2.9767578,6.2827294 2.9580513,6.2839012 2.5480166,6.7880541 2.0553824,7.4155966 2.0034738,7.48172 2.0013629,7.4683872 2.0006949,7.0701837 Z M 5.6304634,6.3373941 6.2140522,5.9653866 5.6027369,4.9436306 C 5.2665137,4.381665 4.9743591,3.9033844 4.9535047,3.880785 4.9230003,3.8477278 4.7554125,4.0399387 4.0962691,4.8639728 L 3.2769503,5.8882506 4.1306628,6.3157169 C 4.6002044,6.5508231 4.9984375,6.7355822 5.015625,6.7262922 5.0328125,6.7170025 5.30949,6.5419981 5.6304634,6.3373941 Z"
       id="path837"
       inkscape:connector-curvature="0" />
  </g>
</svg>
