<?xml version="1.0" encoding="UTF-8" standalone="no"?>
<!-- Created with Inkscape (http://www.inkscape.org/) -->

<svg
   version="1.1"
   id="svg2"
   width="1600"
   height="1600"
   viewBox="0 0 1600 1600"
   sodipodi:docname="expandmenu.svg"
   inkscape:version="1.2.2 (732a01da63, 2022-12-09)"
   xmlns:inkscape="http://www.inkscape.org/namespaces/inkscape"
   xmlns:sodipodi="http://sodipodi.sourceforge.net/DTD/sodipodi-0.dtd"
   xmlns="http://www.w3.org/2000/svg"
   xmlns:svg="http://www.w3.org/2000/svg"
   xmlns:rdf="http://www.w3.org/1999/02/22-rdf-syntax-ns#"
   xmlns:cc="http://creativecommons.org/ns#"
   xmlns:dc="http://purl.org/dc/elements/1.1/">
  <metadata
     id="metadata8">
    <rdf:RDF>
      <cc:Work
         rdf:about="">
        <dc:format>image/svg+xml</dc:format>
        <dc:type
           rdf:resource="http://purl.org/dc/dcmitype/StillImage" />
      </cc:Work>
    </rdf:RDF>
  </metadata>
  <defs
     id="defs6" />
  <sodipodi:namedview
     pagecolor="#808080"
     bordercolor="#666666"
     borderopacity="1"
     objecttolerance="10"
     gridtolerance="10"
     guidetolerance="10"
     inkscape:pageopacity="0"
     inkscape:pageshadow="2"
     inkscape:window-width="1993"
     inkscape:window-height="1009"
     id="namedview4"
     showgrid="false"
     inkscape:zoom="0.5"
     inkscape:cx="537"
     inkscape:cy="630"
     inkscape:window-x="-8"
     inkscape:window-y="-8"
     inkscape:window-maximized="1"
     inkscape:current-layer="EXPANDMENU"
     inkscape:showpageshadow="0"
     inkscape:pagecheckerboard="true"
     inkscape:deskcolor="#d1d1d1" />
  <g
     id="EXPANDMENU"
     transform="matrix(100,0,0,100,0,4.9999997e-5)"
     style="stroke-width:0.0114286">
    <path
       style="fill:none;stroke-width:0.000357143"
       d="M 0,8 V 0 h 8 8 v 8 8 H 8 0 Z m 15.023741,2.476563 -0.0081,-1.492188 H 10.21875 5.421875 l -0.00812,1.492188 -0.00812,1.492187 h 4.813106 4.813106 z m 0,-3.9375005 -0.0081,-1.4921875 H 10.21875 5.421875 L 5.413755,6.5390625 5.405635,8.03125 h 4.813106 4.813106 z m -1.34375,-4.03125 -0.0081,-1.4921875 H 7.375 1.078125 L 1.0700095,2.5078125 1.0618939,4 H 7.375 13.688106 Z"
       id="path823"
       inkscape:connector-curvature="0" />
    <path
       style="fill:#fefefe;stroke-width:0.000357143"
       d="M 6.1875,10.46875 V 9.75 H 10.21875 14.25 v 0.71875 0.71875 H 10.21875 6.1875 Z m 0,-3.9375 V 5.8125 H 10.21875 14.25 V 6.53125 7.25 H 10.21875 6.1875 Z M 1.84375,2.5 V 1.78125 H 7.375 12.90625 V 2.5 3.21875 H 7.375 1.84375 Z"
       id="path821"
       inkscape:connector-curvature="0" />
    <path
       style="fill:#323232;stroke-width:0.000357143"
       d="m 5.4137594,10.476563 0.00812,-1.492188 h 4.7968746 4.796875 l 0.0081,1.492188 0.0081,1.492187 H 10.21875 5.4056441 Z M 14.25,10.46875 V 9.75 H 10.21875 6.1875 v 0.71875 0.71875 H 10.21875 14.25 Z M 5.4137594,6.5390625 5.421875,5.046875 h 4.796875 4.796875 l 0.0081,1.4921875 0.0081,1.4921875 H 10.21875 5.4056441 Z M 14.25,6.53125 V 5.8125 H 10.21875 6.1875 V 6.53125 7.25 H 10.21875 14.25 Z M 1.0700095,2.5078125 1.078125,1.015625 H 7.375 13.671875 l 0.0081,1.4921875 L 13.688106,4 H 7.375 1.0618939 Z M 12.90625,2.5 V 1.78125 H 7.375 1.84375 V 2.5 3.21875 H 7.375 12.90625 Z"
       id="path819"
       inkscape:connector-curvature="0" />
  </g>
</svg>
