<?xml version="1.0" encoding="UTF-8" standalone="no"?>
<!-- Created with Inkscape (http://www.inkscape.org/) -->

<svg
   version="1.1"
   id="svg2"
   width="1600"
   height="1600"
   viewBox="0 0 1600 1600"
   sodipodi:docname="extrapolation_linear.svg"
   inkscape:version="1.2.2 (732a01da63, 2022-12-09)"
   xmlns:inkscape="http://www.inkscape.org/namespaces/inkscape"
   xmlns:sodipodi="http://sodipodi.sourceforge.net/DTD/sodipodi-0.dtd"
   xmlns="http://www.w3.org/2000/svg"
   xmlns:svg="http://www.w3.org/2000/svg"
   xmlns:rdf="http://www.w3.org/1999/02/22-rdf-syntax-ns#"
   xmlns:cc="http://creativecommons.org/ns#"
   xmlns:dc="http://purl.org/dc/elements/1.1/">
  <metadata
     id="metadata8">
    <rdf:RDF>
      <cc:Work
         rdf:about="">
        <dc:format>image/svg+xml</dc:format>
        <dc:type
           rdf:resource="http://purl.org/dc/dcmitype/StillImage" />
      </cc:Work>
    </rdf:RDF>
  </metadata>
  <defs
     id="defs6" />
  <sodipodi:namedview
     pagecolor="#808080"
     bordercolor="#666666"
     borderopacity="1"
     objecttolerance="10"
     gridtolerance="10"
     guidetolerance="10"
     inkscape:pageopacity="0"
     inkscape:pageshadow="2"
     inkscape:window-width="2560"
     inkscape:window-height="1009"
     id="namedview4"
     showgrid="false"
     inkscape:zoom="0.5"
     inkscape:cx="704"
     inkscape:cy="810"
     inkscape:window-x="-8"
     inkscape:window-y="-8"
     inkscape:window-maximized="1"
     inkscape:current-layer="EXTRAPOLATION_LINEAR"
     inkscape:showpageshadow="0"
     inkscape:pagecheckerboard="true"
     inkscape:deskcolor="#d1d1d1" />
  <g
     id="EXTRAPOLATION_LINEAR"
     transform="matrix(99.97286,0,0,99.97286,0.21710506,0.4071121)"
     style="stroke-width:0.0100027">
    <path
       style="fill:none;stroke-width:0.000312585"
       d="M 0,12.765625 V 9.53125 H 1.5 3 v -0.5 -0.5 H 4.9922366 6.9844731 L 10.71875,12.265625 14.453027,16 H 7.2265134 0 Z M 13.015625,11.46875 10.046998,8.5 H 11.523499 13 V 9 9.5 h 1.5 1.5 v 2.46875 c 0,1.357813 -0.0035,2.46875 -0.0079,2.46875 -0.0043,0 -1.343756,-1.335937 -2.976501,-2.96875 z M 3,7.03125 v -0.5 H 1.5 0 V 4.0391237 1.5469977 L 2.984375,4.53125 c 1.6414062,1.6413387 2.984375,2.9877956 2.984375,2.9921262 0,0.00433 -0.6679688,0.00787 -1.484375,0.00787 H 3 Z M 5.296875,3.75 1.5469727,0 H 8.7734863 16 V 3.25 6.5 H 14.5 13 V 7 7.5 H 11.023389 9.0467772 Z"
       id="path825"
       inkscape:connector-curvature="0" />
    <path
       style="fill:#fe7f7f;stroke-width:0.000312585"
       d="M 10.71875,12.265625 6.9844731,8.53125 h 0.359375 0.359375 L 11.4375,12.265625 15.171777,16 H 14.812402 14.453027 Z M 12.656305,11.828285 9.328235,8.5 h 0.3593813 0.3593817 l 2.977587,2.977709 2.977587,2.97771 -0.0089,0.350575 -0.0089,0.350576 z M 2.9910407,4.5379159 -0.00217164,1.5445818 0.00672668,1.194006 0.015625,0.84343025 3.3593203,4.18734 6.7030156,7.53125 H 6.3436341 5.9842528 Z M 4.578125,3.75 0.82822266,0 H 1.1875977 1.5469727 L 5.296875,3.75 9.0467772,7.5 h -0.359375 -0.359375 z"
       id="path823"
       inkscape:connector-curvature="0" />
    <path
       style="fill:#fe9729;stroke-width:0.000312585"
       d="m 0,8.03125 v -1.5 H 1.5 3 v 0.5 0.5 h 1.8519287 1.8519288 l 0.4992675,0.5 0.4992675,0.5 H 5.3511962 3 v 0.5 0.5 H 1.5 0 Z m 2,0 v -0.5 H 1.5 1 v 0.5 0.5 H 1.5 2 Z M 13,9 V 8.5 H 11.163696 9.3273925 L 8.828125,8 8.3288575,7.5 H 10.664429 13 V 7 6.5 H 14.5 16 V 8 9.5 H 14.5 13 Z M 15,8 V 7.5 H 14.5 14 V 8 8.5 h 0.5 0.5 z"
       id="path821"
       inkscape:connector-curvature="0" />
    <path
       style="fill:#fe0000;stroke-width:0.000312585"
       d="M 7.5859134,8.4140384 0,0.82807688 V 0.41403844 0 h 0.41408662 0.4140866 L 8.4140866,7.5859616 16,15.171923 V 15.585962 16 H 15.585913 15.171827 Z M 1,8.03125 v -0.5 H 1.5 2 v 0.5 0.5 H 1.5 1 Z M 14,8 V 7.5 H 14.5 15 V 8 8.5 H 14.5 14 Z"
       id="path819"
       inkscape:connector-curvature="0" />
  </g>
</svg>
