<?xml version="1.0" encoding="UTF-8" standalone="no"?>
<!-- Created with Inkscape (http://www.inkscape.org/) -->

<svg
   version="1.1"
   id="svg2"
   width="1600"
   height="1600"
   viewBox="0 0 1600 1600"
   sodipodi:docname="extrapolation_constant.svg"
   inkscape:version="1.2.2 (732a01da63, 2022-12-09)"
   xmlns:inkscape="http://www.inkscape.org/namespaces/inkscape"
   xmlns:sodipodi="http://sodipodi.sourceforge.net/DTD/sodipodi-0.dtd"
   xmlns="http://www.w3.org/2000/svg"
   xmlns:svg="http://www.w3.org/2000/svg"
   xmlns:rdf="http://www.w3.org/1999/02/22-rdf-syntax-ns#"
   xmlns:cc="http://creativecommons.org/ns#"
   xmlns:dc="http://purl.org/dc/elements/1.1/">
  <metadata
     id="metadata8">
    <rdf:RDF>
      <cc:Work
         rdf:about="">
        <dc:format>image/svg+xml</dc:format>
        <dc:type
           rdf:resource="http://purl.org/dc/dcmitype/StillImage" />
      </cc:Work>
    </rdf:RDF>
  </metadata>
  <defs
     id="defs6" />
  <sodipodi:namedview
     pagecolor="#808080"
     bordercolor="#666666"
     borderopacity="1"
     objecttolerance="10"
     gridtolerance="10"
     guidetolerance="10"
     inkscape:pageopacity="0"
     inkscape:pageshadow="2"
     inkscape:window-width="2560"
     inkscape:window-height="1009"
     id="namedview4"
     showgrid="false"
     inkscape:zoom="0.5"
     inkscape:cx="898"
     inkscape:cy="526"
     inkscape:window-x="-8"
     inkscape:window-y="-8"
     inkscape:window-maximized="1"
     inkscape:current-layer="EXTRAPOLATION_CONSTANT"
     inkscape:showpageshadow="0"
     inkscape:pagecheckerboard="true"
     inkscape:deskcolor="#d1d1d1" />
  <g
     id="EXTRAPOLATION_CONSTANT"
     transform="matrix(99.999152,0,0,99.999152,0.01356091,0)"
     style="stroke-width:0.01">
    <path
       style="fill:none;stroke-width:0.000312502"
       d="M 0,12.765625 V 9.53125 H 1.5 3 v -0.5 -0.5 H 4.9930256 6.9860512 L 7.2036997,8.7505794 C 7.5718981,9.1216206 7.3142456,9.09375 10.376172,9.09375 H 13 V 9.296875 9.5 H 14.5 16 V 12.75 16 H 8 0 Z M 3,7.03125 v -0.5 H 1.5 0 V 4.0391237 1.5469977 L 2.984375,4.53125 c 1.6414062,1.6413387 2.984375,2.9877956 2.984375,2.9921262 0,0.00433 -0.6679688,0.00787 -1.484375,0.00787 H 3 Z M 5.015625,3.46875 1.5469806,0 H 8.7734903 16 V 3.25 6.5 H 14.5 13 V 6.71875 6.9375 H 10.742135 8.4842694 Z"
       id="path825"
       inkscape:connector-curvature="0" />
    <path
       style="fill:#fe7f7f;stroke-width:0.000312502"
       d="M 7.577945,9.030285 C 7.4692731,8.9884581 7.3547859,8.9026166 7.202945,8.7491134 l -0.21857,-0.2209631 0.40625,0.018653 c 0.2234375,0.010259 1.5769531,0.025256 3.007813,0.033326 L 13,8.5948028 V 8.8442762 9.09375 L 10.367188,9.09212 C 7.8448891,9.0905625 7.7278087,9.0879666 7.577945,9.0302853 Z M 2.9910407,4.5379159 -0.00217164,1.5445818 0.00672668,1.194006 0.015625,0.84343025 3.3593203,4.18734 6.7030156,7.53125 H 6.3436341 5.9842528 Z M 4.546875,3.71875 0.82822347,0 H 1.187602 1.5469806 L 5.015625,3.46875 8.4842694,6.9375 H 10.742135 13 v 0.25 0.25 H 10.632763 8.2655266 Z"
       id="path823"
       inkscape:connector-curvature="0" />
    <path
       style="fill:#fe9729;stroke-width:0.000312502"
       d="m 0,8.03125 v -1.5 H 1.5 3 v 0.5 0.5 h 1.8519287 1.8519288 l 0.4992675,0.5 0.4992675,0.5 H 5.3511962 3 v 0.5 0.5 H 1.5 0 Z m 2,0 v -0.5 H 1.5 1 v 0.5 0.5 H 1.5 2 Z M 13,9.046875 V 8.59375 H 14.5 16 V 9.046875 9.5 H 14.5 13 Z M 13,6.96875 V 6.5 H 14.5 16 V 6.96875 7.4375 H 14.5 13 Z"
       id="path821"
       inkscape:connector-curvature="0" />
    <path
       style="fill:#fe0000;stroke-width:0.000312502"
       d="M 7.78125,8.5593016 C 7.7382812,8.5425338 5.9699219,6.7961809 3.8515625,4.6785172 L 0,0.82821987 V 0.41410994 0 H 0.41411175 0.82822347 L 4.546875,3.71875 8.2655266,7.4375 H 12.132763 16 V 8.015625 8.59375 L 11.929688,8.59177 C 9.3632103,8.5905187 7.8305106,8.5785244 7.78125,8.5593013 Z M 1,8.03125 v -0.5 H 1.5 2 v 0.5 0.5 H 1.5 1 Z"
       id="path819"
       inkscape:connector-curvature="0" />
  </g>
</svg>
