<?xml version="1.0" encoding="UTF-8" standalone="no"?>
<!-- Created with Inkscape (http://www.inkscape.org/) -->

<svg
   version="1.1"
   id="svg2"
   width="1600"
   height="1600"
   viewBox="0 0 1600 1600"
   sodipodi:docname="eyedropper.svg"
   inkscape:version="1.2.2 (732a01da63, 2022-12-09)"
   xmlns:inkscape="http://www.inkscape.org/namespaces/inkscape"
   xmlns:sodipodi="http://sodipodi.sourceforge.net/DTD/sodipodi-0.dtd"
   xmlns="http://www.w3.org/2000/svg"
   xmlns:svg="http://www.w3.org/2000/svg"
   xmlns:rdf="http://www.w3.org/1999/02/22-rdf-syntax-ns#"
   xmlns:cc="http://creativecommons.org/ns#"
   xmlns:dc="http://purl.org/dc/elements/1.1/">
  <metadata
     id="metadata8">
    <rdf:RDF>
      <cc:Work
         rdf:about="">
        <dc:format>image/svg+xml</dc:format>
        <dc:type
           rdf:resource="http://purl.org/dc/dcmitype/StillImage" />
      </cc:Work>
    </rdf:RDF>
  </metadata>
  <defs
     id="defs6" />
  <sodipodi:namedview
     pagecolor="#808080"
     bordercolor="#666666"
     borderopacity="1"
     objecttolerance="10"
     gridtolerance="10"
     guidetolerance="10"
     inkscape:pageopacity="0"
     inkscape:pageshadow="2"
     inkscape:window-width="1993"
     inkscape:window-height="1009"
     id="namedview4"
     showgrid="false"
     inkscape:zoom="0.5"
     inkscape:cx="611"
     inkscape:cy="642"
     inkscape:window-x="-8"
     inkscape:window-y="-8"
     inkscape:window-maximized="1"
     inkscape:current-layer="EYEDROPPER"
     inkscape:showpageshadow="0"
     inkscape:pagecheckerboard="true"
     inkscape:deskcolor="#d1d1d1" />
  <g
     id="EYEDROPPER"
     transform="matrix(100,0,0,100,0,4.9999997e-5)"
     style="stroke-width:0.0114286">
    <path
       style="fill:none;stroke-width:0.000357143"
       d="M 0,8 V 0 h 8 8 v 8 8 H 8 0 Z m 2.6747953,6.905513 C 2.845349,14.84708 2.9104302,14.791515 3.53125,14.174293 l 0.671875,-0.667981 0.2365387,-0.01372 c 0.1806519,-0.01048 0.2881929,-0.03753 0.455161,-0.114495 0.2093212,-0.09648 0.3260625,-0.208216 2.7441472,-2.626439 l 2.5255251,-2.5256696 0.175564,0.082321 c 0.16145,0.075703 0.208223,0.082321 0.581814,0.082321 0.394548,0 0.412551,-0.00297 0.625,-0.1031063 C 11.848611,8.1452975 12.146901,7.84796 12.286461,7.5502944 12.388094,7.3335241 12.390625,7.3180625 12.390625,6.9140625 V 6.5 h 0.220823 c 0.275759,0 0.520353,-0.042592 0.841677,-0.1465641 0.472608,-0.1529234 0.806062,-0.3594728 1.17345,-0.7268606 C 14.993963,5.2591875 15.200513,4.9257325 15.353436,4.453125 15.466181,4.1046887 15.5,3.8847584 15.5,3.5 15.5,2.6539092 15.216286,1.9631353 14.626575,1.3734246 14.259187,1.0060367 13.925733,0.79948753 13.453125,0.64656403 13.104689,0.53381916 12.884758,0.5 12.5,0.5 11.653909,0.5 10.963135,0.78371384 10.373425,1.3734246 10.006037,1.7408124 9.7994875,2.0742674 9.6465641,2.546875 9.5441894,2.8632626 9.4999972,3.1123519 9.5000103,3.3729269 l 1.06e-5,0.2051981 H 9.0703228 c -0.42172,0 -0.4338225,0.00193 -0.6518672,0.1041638 C 8.12079,3.8218488 7.8234525,4.1201387 7.6812312,4.421875 7.581095,4.6343237 7.578125,4.6523272 7.578125,5.046875 c 0,0.3955269 0.00276,0.4121425 0.1046594,0.6294944 0.057562,0.122784 0.1597912,0.2770793 0.2271753,0.3428781 L 8.0324759,6.1388813 5.5056378,8.6710031 C 3.1105075,11.071142 2.9741957,11.213704 2.8904659,11.406084 c -0.0625,0.143603 -0.092311,0.271553 -0.101931,0.4375 L 2.7749379,12.078125 2.1069566,12.75 c -0.6172221,0.62082 -0.6727867,0.685901 -0.731219,0.856455 -0.1351882,0.394591 -0.049175,0.770096 0.2425143,1.058742 0.2930213,0.289964 0.6648022,0.374527 1.0565434,0.240316 z"
       id="path827"
       inkscape:connector-curvature="0" />
    <path
       style="fill:#fefefe;stroke-width:0.000357143"
       d="M 6.64055,8.250075 8.3902656,6.5001503 9.0858031,7.1951725 9.7813406,7.8901947 8.72678,8.9450972 7.6722197,10 H 6.2815269 4.8908344 Z"
       id="path825"
       inkscape:connector-curvature="0" />
    <path
       style="fill:#98cbfe;stroke-width:0.000357143"
       d="M 2.171875,14.431196 C 2.028135,14.381186 1.8856459,14.227762 1.8436587,14.077799 1.7736127,13.827618 1.8087257,13.776379 2.5846609,12.996518 L 3.28771,12.289912 3.29311,12.012143 C 3.29742,11.790115 3.31304,11.706155 3.370934,11.59375 3.416401,11.50547 3.7126309,11.182672 4.1667455,10.726563 L 4.8901262,10 h 1.3907441 1.3907444 l -1.40612,1.408408 c -1.0104681,1.012113 -1.450085,1.431735 -1.5623697,1.491311 -0.1316488,0.06985 -0.1999841,0.08376 -0.4340181,0.08836 l -0.2777685,0.0055 -0.7066065,0.702563 c -0.792248,0.787714 -0.8506847,0.826314 -1.1128569,0.735093 z"
       id="path823"
       inkscape:connector-curvature="0" />
    <path
       style="fill:#989898;stroke-width:0.000357143"
       d="M 10.484375,8.3639622 C 10.153753,8.254745 10.062209,8.1763416 8.9036591,7.0101406 7.5302569,5.6276684 7.578125,5.6985666 7.578125,5.046875 c 0,-0.3951459 0.00285,-0.4123225 0.1041637,-0.6284194 C 7.8218487,4.12079 8.1201387,3.8234525 8.421875,3.6812312 8.6362347,3.5801944 8.6492491,3.578125 9.0703228,3.578125 H 9.5000209 L 9.5000103,3.3729269 C 9.4999972,3.1123519 9.5441894,2.8632626 9.6465641,2.546875 9.7994875,2.0742674 10.006037,1.7408124 10.373425,1.3734246 10.740813,1.0060367 11.074268,0.79948753 11.546875,0.64656403 11.895311,0.53381916 12.115242,0.5 12.5,0.5 c 0.846091,0 1.536865,0.28371384 2.126575,0.8734246 0.367388,0.3673878 0.573938,0.7008428 0.726861,1.1734504 C 15.466181,2.8953112 15.5,3.1152416 15.5,3.5 15.5,4.3460909 15.216286,5.0368647 14.626575,5.6265753 14.259187,5.9939631 13.925733,6.2005125 13.453125,6.3534359 13.131801,6.4574081 12.887207,6.5 12.611448,6.5 h -0.220823 v 0.4140625 c 0,0.404 -0.0025,0.4194616 -0.104164,0.6362319 -0.139766,0.2981062 -0.438001,0.5952259 -0.739586,0.7368228 -0.202577,0.095111 -0.245321,0.1032753 -0.578125,0.1104212 -0.233792,0.00502 -0.403056,-0.00671 -0.484375,-0.033576 z m 0.875,-0.559271 c 0.186031,-0.095892 0.356552,-0.267734 0.4574,-0.4609412 0.06118,-0.1172138 0.0734,-0.1874475 0.0734,-0.421875 0,-0.2337494 -0.01233,-0.3050003 -0.07299,-0.421875 C 11.711698,6.2967541 9.6928119,4.2735309 9.484375,4.1621756 9.3482766,4.0894662 9.2918525,4.0787006 9.046875,4.0787006 c -0.2442859,0 -0.3017856,0.010902 -0.4375,0.08295 -0.1872747,0.09942 -0.3573909,0.2717491 -0.4574,0.4633497 -0.061182,0.1172138 -0.073402,0.1874475 -0.073402,0.421875 0,0.2337494 0.012327,0.3050003 0.072989,0.421875 0.093928,0.1809694 2.12432,2.2270403 2.301563,2.3193356 0.197656,0.102925 0.266039,0.1170897 0.515625,0.106805 0.177321,-0.00731 0.272411,-0.029264 0.390625,-0.0902 z M 13.094211,5.92665 C 13.745735,5.7488653 14.24307,5.39352 14.595099,4.8542656 14.872886,4.4287387 14.983,4.0443019 14.983,3.5 14.983,2.7970882 14.747067,2.2171756 14.264946,1.7350543 13.782824,1.2529331 13.202912,1.0170003 12.5,1.0170003 c -0.544302,0 -0.928739,0.1101138 -1.354266,0.3879008 -0.678153,0.442703 -1.083706,1.1411067 -1.136036,1.9563695 -0.080321,1.2513316 0.794771,2.3534063 2.068427,2.6049403 0.210592,0.04159 0.803258,0.018514 1.016086,-0.039561 z M 11.687668,3.94977 C 10.97962,3.6924953 10.772887,2.8193718 11.296129,2.2961294 11.501453,2.0908059 11.687262,2.017164 12,2.017164 c 0.312738,0 0.498547,0.073642 0.703871,0.2789654 C 12.909194,2.5014529 12.982836,2.6872623 12.982836,3 c 0,0.3127378 -0.07364,0.4985472 -0.278965,0.7038706 -0.256764,0.2567635 -0.694675,0.3627288 -1.016203,0.2458994 z"
       id="path821"
       inkscape:connector-curvature="0" />
    <path
       style="fill:#323232;stroke-width:0.000357143"
       d="M 1.9689719,14.90329 C 1.7208971,14.815285 1.4602433,14.550356 1.3758424,14.300432 1.2954712,14.062439 1.2954378,13.840836 1.3757362,13.606455 1.4341684,13.435901 1.4897331,13.37082 2.1069552,12.75 l 0.6679813,-0.671875 0.013725,-0.236539 c 0.010482,-0.180652 0.037534,-0.288193 0.1144949,-0.455161 0.096472,-0.209299 0.2079671,-0.325814 2.6142973,-2.7320053 L 8.0309817,6.1410375 8.2105961,6.3206516 8.3902101,6.5002659 5.9167173,8.9766956 C 4.1963819,10.699075 3.4211922,11.495944 3.3708641,11.59375 c -0.057809,0.112345 -0.073447,0.196485 -0.077758,0.418393 l -0.0054,0.277769 -0.7030491,0.706606 c -0.7759347,0.779861 -0.8110485,0.8311 -0.7410022,1.081281 0.046416,0.16578 0.1920537,0.310358 0.3632717,0.360626 0.2430877,0.07137 0.2995172,0.03253 1.0778015,-0.741836 L 3.9913345,12.99354 4.269103,12.98814 c 0.2219081,-0.0043 0.3060484,-0.01995 0.4183931,-0.07776 0.097803,-0.05033 0.8940609,-0.824904 2.6148366,-2.543637 L 9.7765481,7.8954741 9.9633213,8.0649247 10.150094,8.234375 7.6317703,10.755849 c -2.41259,2.415608 -2.5275028,2.525705 -2.7369456,2.622243 -0.1669681,0.07696 -0.2745091,0.104012 -0.455161,0.114495 L 4.203125,13.506312 3.53125,14.174293 C 2.9104302,14.791515 2.845349,14.84708 2.6747953,14.905512 2.4452079,14.98417 2.194741,14.983381 1.9689719,14.903291 Z M 10.65625,7.8788625 C 10.613281,7.8647353 10.521875,7.8238856 10.453125,7.7880856 10.275882,7.6957903 8.2454897,5.6497194 8.1515616,5.46875 8.0909003,5.3518753 8.0785731,5.2806244 8.0785731,5.046875 c 0,-0.2344275 0.01222,-0.3046612 0.073402,-0.421875 0.1000091,-0.1916006 0.2701253,-0.3639297 0.4574,-0.4633497 0.1357144,-0.072048 0.1932141,-0.08295 0.4375,-0.08295 0.2449775,0 0.3014016,0.010766 0.4375,0.083475 0.2084369,0.1113553 2.2273229,2.1345785 2.3328129,2.3378244 0.06066,0.1168747 0.07299,0.1881256 0.07299,0.421875 0,0.2344275 -0.01222,0.3046612 -0.0734,0.421875 -0.179977,0.3448047 -0.473728,0.5357169 -0.848025,0.5511406 -0.128906,0.00531 -0.269531,-0.0019 -0.3125,-0.016028 z M 12.078125,5.9662109 C 10.987851,5.7508931 10.213338,4.9555903 10.028209,3.8612706 9.9046128,3.1306784 10.186073,2.2840355 10.735054,1.7350543 11.217176,1.2529331 11.797088,1.0170003 12.5,1.0170003 c 0.702912,0 1.282824,0.2359328 1.764946,0.718054 C 14.747067,2.2171756 14.983,2.7970882 14.983,3.5 c 0,0.5443019 -0.110114,0.9287387 -0.387901,1.3542656 C 14.24307,5.39352 13.745735,5.7488653 13.094211,5.92665 12.881383,5.984725 12.288717,6.007801 12.078125,5.9662109 Z m 0.34375,-2.0624478 c 0.197682,-0.093808 0.385878,-0.2810475 0.484351,-0.4818881 0.109995,-0.22434 0.109995,-0.61941 0,-0.84375 -0.09768,-0.1992258 -0.285125,-0.38667 -0.484351,-0.4843511 -0.22434,-0.1099947 -0.61941,-0.1099947 -0.84375,0 -0.812326,0.3982862 -0.744608,1.5456339 0.109543,1.8559961 0.197215,0.071659 0.53022,0.050793 0.734207,-0.046007 z"
       id="path819"
       inkscape:connector-curvature="0" />
  </g>
</svg>
