<?xml version="1.0" encoding="UTF-8" standalone="no"?>
<!-- Created with Inkscape (http://www.inkscape.org/) -->

<svg
   version="1.1"
   id="svg2"
   width="1600"
   height="1600"
   viewBox="0 0 1600 1600"
   sodipodi:docname="face_maps_active.svg"
   inkscape:version="1.2.2 (732a01da63, 2022-12-09)"
   inkscape:export-filename="FACE_MAPS_ACTIVE.png"
   inkscape:export-xdpi="3072"
   inkscape:export-ydpi="3072"
   xml:space="preserve"
   xmlns:inkscape="http://www.inkscape.org/namespaces/inkscape"
   xmlns:sodipodi="http://sodipodi.sourceforge.net/DTD/sodipodi-0.dtd"
   xmlns="http://www.w3.org/2000/svg"
   xmlns:svg="http://www.w3.org/2000/svg"
   xmlns:rdf="http://www.w3.org/1999/02/22-rdf-syntax-ns#"
   xmlns:cc="http://creativecommons.org/ns#"
   xmlns:dc="http://purl.org/dc/elements/1.1/"><metadata
     id="metadata8"><rdf:RDF><cc:Work
         rdf:about=""><dc:format>image/svg+xml</dc:format><dc:type
           rdf:resource="http://purl.org/dc/dcmitype/StillImage" /></cc:Work></rdf:RDF></metadata><defs
     id="defs6" /><sodipodi:namedview
     pagecolor="#808080"
     bordercolor="#666666"
     borderopacity="1"
     objecttolerance="10"
     gridtolerance="10"
     guidetolerance="10"
     inkscape:pageopacity="0"
     inkscape:pageshadow="2"
     inkscape:window-width="1993"
     inkscape:window-height="1009"
     id="namedview4"
     showgrid="false"
     inkscape:zoom="0.25"
     inkscape:cx="226"
     inkscape:cy="732"
     inkscape:window-x="-8"
     inkscape:window-y="-8"
     inkscape:window-maximized="1"
     inkscape:current-layer="FACE_MAPS_ACTIVE"
     inkscape:showpageshadow="false"
     inkscape:pagecheckerboard="true"
     inkscape:deskcolor="#575757" /><g
     id="FACE_MAPS_ACTIVE"
     transform="translate(0,3168)"><rect
       style="fill:none;fill-opacity:1;stroke:none;stroke-width:2"
       id="rect12465"
       width="1397.2881"
       height="1397.2881"
       x="100"
       y="-3071.5171"
       inkscape:label="frame" /><path
       style="fill:#666666;fill-opacity:1;stroke:none;stroke-width:0.03125"
       d="m 1147.966,-2220.066 v -413.4554 l 130.9958,-130.9744 130.9958,-130.9744 v 413.4553 413.4553 l -130.9958,130.9745 -130.9958,130.9744 z"
       id="path823"
       inkscape:connector-curvature="0" /><path
       style="fill:#7fb3fe;stroke:none;stroke-width:0.03125"
       d="m 492.98727,-2854.5554 42.23466,-42.3007 h 285.18869 285.18868 l -42.2347,42.3007 -42.2347,42.3007 H 735.94127 450.75259 Z"
       id="path12203" /><path
       style="fill:#ffaa00;fill-opacity:1;stroke:none;stroke-width:0.03125"
       d="m 274.66101,-2198.2121 v -349.322 h 349.32201 349.32202 l -0.0246,334.9944 c -0.0136,184.2468 -0.7982,341.4417 -1.74469,349.322 l -1.72009,14.3276 H 622.23835 274.66101 Z"
       id="path821" /><path
       style="fill:#464646;stroke:none;stroke-width:0.03125"
       d="m 207.09138,-1767.003 c -4.89195,-2.9826 -11.33481,-9.4255 -14.31746,-14.3174 -5.34745,-8.7706 -5.42302,-14.5793 -5.42302,-416.8917 0,-402.3124 0.0756,-408.1211 5.42305,-416.8916 2.98262,-4.892 9.42548,-11.3348 14.31743,-14.3175 8.77093,-5.3477 14.59367,-5.4232 419.29755,-5.4332 l 410.40317,-0.01 11.9217,11.9218 11.9217,11.9217 -0.011,410.4031 c -0.011,404.7039 -0.085,410.5266 -5.4328,419.2976 -2.9823,4.8922 -9.4255,11.3348 -14.3175,14.3175 -8.7705,5.3472 -14.5792,5.4232 -416.89162,5.4232 -402.31241,0 -408.12113,-0.076 -416.89165,-5.4232 z m 764.44527,-96.2147 c 0.94658,-7.8798 1.73168,-165.0752 1.74469,-349.322 l 0.0237,-334.9944 H 623.98302 274.66101 v 349.322 349.322 H 622.23835 969.8157 Z m -608.1806,-989.9731 130.97444,-130.9958 h 413.45535 413.45536 l -130.9744,130.9958 -130.9745,130.9957 H 645.83697 232.38162 Z m 700.00855,-1.3646 42.2347,-42.3007 H 820.41062 535.22193 l -42.23466,42.3007 -42.23468,42.3007 h 285.18868 285.18863 z"
       id="path819"
       inkscape:connector-curvature="0" /><g
       id="PARTICLEBRUSH_ADD"
       transform="matrix(73.971631,0,0,73.971631,502.53871,-2666.1216)"
       style="stroke-width:0.0135186"><path
         style="fill:#fefefe;stroke-width:0.000422459"
         d="M 7,11 V 9 H 5 3 V 8 7 H 5 7 V 5 3 h 1 1 v 2 2 h 2 2 V 8 9 H 11 9 v 2 2 H 8 7 Z"
         id="path821-4"
         inkscape:connector-curvature="0" /><path
         style="fill:#323232;stroke-width:0.000422459"
         d="M 6.796875,13.456468 C 6.6816722,13.404551 6.5775731,13.294419 6.5333316,13.177653 6.5111312,13.11906 6.5,12.490522 6.5,11.295567 V 9.5014519 L 4.6585203,9.4929134 C 2.8541783,9.4845472 2.8153007,9.4830756 2.7307638,9.4199441 2.6833114,9.3845072 2.6154929,9.3166791 2.5800559,9.269215 2.517636,9.1856103 2.515625,9.1459963 2.515625,8 c 0,-1.1459962 0.00201,-1.1856103 0.064431,-1.269215 C 2.615493,6.683321 2.6833115,6.6154928 2.7307639,6.5800559 2.8152999,6.5169249 2.854185,6.5154529 4.6577954,6.5070879 L 6.49855,6.49855 6.5070875,4.6577953 C 6.5154528,2.8541849 6.516925,2.8152997 6.5800559,2.7307637 6.6154928,2.6833114 6.6833209,2.6154929 6.730785,2.5800559 6.8143897,2.517636 6.8540038,2.515625 8,2.515625 c 1.1459963,0 1.1856103,0.00201 1.269215,0.064431 0.047464,0.035437 0.1152922,0.1032555 0.1507291,0.1507079 0.063131,0.084536 0.064603,0.1234211 0.072968,1.9270315 l 0.00854,1.8407547 1.8407549,0.00854 c 1.80361,0.00837 1.842495,0.00984 1.927031,0.072968 0.04745,0.035437 0.115271,0.103265 0.150708,0.1507291 0.06242,0.083605 0.06443,0.1232188 0.06443,1.269215 0,1.1459963 -0.002,1.1856103 -0.06443,1.269215 -0.03544,0.047464 -0.103256,0.1152922 -0.150708,0.1507291 -0.08454,0.063131 -0.123421,0.064603 -1.927031,0.072968 l -1.8407549,0.00854 -0.00854,1.8407547 c -0.00837,1.80361 -0.00984,1.842495 -0.072968,1.927031 -0.035437,0.04745 -0.1032447,0.115271 -0.1506838,0.150708 -0.083006,0.06201 -0.1294059,0.0647 -1.2324441,0.0716 -0.9081509,0.0057 -1.1656612,-0.0016 -1.2399412,-0.03508 z M 9,11 V 9 h 2 2 V 8 7 H 11 9 V 5 3 H 8 7 V 5 7 H 5 3 v 1 1 h 2 2 v 2 2 h 1 1 z"
         id="path819-2"
         inkscape:connector-curvature="0" /></g></g></svg>
