<?xml version="1.0" encoding="UTF-8" standalone="no"?>
<!-- Created with Inkscape (http://www.inkscape.org/) -->

<svg
   version="1.1"
   id="svg2"
   width="1600"
   height="1600"
   viewBox="0 0 1600 1600"
   sodipodi:docname="faceregions.svg"
   inkscape:version="1.2.2 (732a01da63, 2022-12-09)"
   xmlns:inkscape="http://www.inkscape.org/namespaces/inkscape"
   xmlns:sodipodi="http://sodipodi.sourceforge.net/DTD/sodipodi-0.dtd"
   xmlns="http://www.w3.org/2000/svg"
   xmlns:svg="http://www.w3.org/2000/svg"
   xmlns:rdf="http://www.w3.org/1999/02/22-rdf-syntax-ns#"
   xmlns:cc="http://creativecommons.org/ns#"
   xmlns:dc="http://purl.org/dc/elements/1.1/">
  <metadata
     id="metadata8">
    <rdf:RDF>
      <cc:Work
         rdf:about="">
        <dc:format>image/svg+xml</dc:format>
        <dc:type
           rdf:resource="http://purl.org/dc/dcmitype/StillImage" />
      </cc:Work>
    </rdf:RDF>
  </metadata>
  <defs
     id="defs6" />
  <sodipodi:namedview
     pagecolor="#808080"
     bordercolor="#666666"
     borderopacity="1"
     objecttolerance="10"
     gridtolerance="10"
     guidetolerance="10"
     inkscape:pageopacity="0"
     inkscape:pageshadow="2"
     inkscape:window-width="1993"
     inkscape:window-height="1009"
     id="namedview4"
     showgrid="false"
     inkscape:zoom="0.5"
     inkscape:cx="597"
     inkscape:cy="592"
     inkscape:window-x="-8"
     inkscape:window-y="-8"
     inkscape:window-maximized="1"
     inkscape:current-layer="FACEREGIONS"
     inkscape:showpageshadow="0"
     inkscape:pagecheckerboard="true"
     inkscape:deskcolor="#d1d1d1" />
  <g
     id="FACEREGIONS"
     transform="matrix(100,0,0,100,0,4.9999997e-5)"
     style="stroke-width:0.0114286">
    <path
       style="fill:none;stroke-width:0.000357143"
       d="M 0,8 V 0 h 8 8 v 8 8 H 8 0 Z m 7.2692584,6.419944 c 0.04744,-0.03544 0.1152488,-0.103265 0.1506857,-0.150729 l 0.064431,-0.0863 V 7.984375 1.7858332 L 7.4199441,1.699535 C 7.3845072,1.652071 7.3167006,1.5842429 7.2692631,1.5488059 7.1865194,1.4869942 7.1376894,1.4839931 6.0680691,1.4749815 5.45485,1.4698151 4.9078359,1.4738902 4.8524825,1.4840374 4.7971291,1.4941847 4.7074238,1.5398606 4.6531375,1.5855395 4.5500691,1.6722657 0.58615947,7.5919922 0.51149097,7.7706991 c -0.0547474,0.131029 -0.0547464,0.3588253 2.19e-6,0.4898572 0.0644598,0.154274 3.96708064,5.9922437 4.07057494,6.0892147 0.049394,0.04628 0.1249631,0.09837 0.1679319,0.115767 0.048917,0.0198 0.5183159,0.02923 1.2555644,0.02523 1.1352525,-0.0062 1.18053,-0.0087 1.263694,-0.07082 z m 7.9999996,0 c 0.04744,-0.03544 0.115249,-0.103265 0.150686,-0.150729 l 0.06443,-0.0863 V 7.984375 1.7858332 l -0.06443,-0.086298 c -0.03544,-0.047464 -0.103243,-0.1152921 -0.150681,-0.1507291 -0.08274,-0.061812 -0.131574,-0.064813 -1.201194,-0.073824 -0.613219,-0.00517 -1.160233,-0.00109 -1.215587,0.00906 -0.05535,0.010147 -0.145058,0.055823 -0.199345,0.1015021 -0.103068,0.086726 -4.0669776,6.0064527 -4.1416461,6.1851596 -0.054747,0.131029 -0.054746,0.3588253 2.2e-6,0.4898572 0.06446,0.154274 3.9670809,5.992244 4.0705749,6.089215 0.04939,0.04628 0.124963,0.09837 0.167932,0.115767 0.04892,0.0198 0.518316,0.02923 1.255564,0.02523 1.135253,-0.0062 1.18053,-0.0087 1.263694,-0.07082 z"
       id="path823"
       inkscape:connector-curvature="0" />
    <path
       style="fill:#f3bd00;stroke-width:0.000357143"
       d="M 3.0313358,11.140754 C 1.9828511,9.5681684 1.125,8.2744184 1.125,8.2657538 1.125,8.2570891 2.446875,8.25 4.0625,8.25 H 7 V 11.125 14 H 5.9688359 4.9376716 Z m 8.0000002,0 C 9.9828513,9.5681684 9.125,8.2744184 9.125,8.2657538 9.125,8.2570891 10.446875,8.25 12.0625,8.25 H 15 V 11.125 14 H 13.968836 12.937672 Z M 1.125,7.7655975 c 0,-0.00861 0.8671653,-1.3164213 1.9270341,-2.90625 L 4.9790681,1.96875 H 5.9895341 7 V 4.875 7.78125 H 4.0625 c -1.615625,0 -2.9375,-0.00704 -2.9375,-0.015652 z m 8,0 c 0,-0.00861 0.8671653,-1.3164213 1.927034,-2.90625 L 12.979068,1.96875 H 13.989534 15 V 4.875 7.78125 h -2.9375 c -1.615625,0 -2.9375,-0.00704 -2.9375,-0.015652 z"
       id="path821"
       inkscape:connector-curvature="0" />
    <path
       style="fill:#000000;stroke-width:0.000357143"
       d="M 4.75,14.465538 C 4.7070312,14.448146 4.6314619,14.396051 4.5820681,14.349771 4.4785737,14.2528 0.575953,8.4148303 0.51149316,8.2605563 0.45674453,8.1295244 0.45674353,7.9017281 0.51149097,7.7706991 0.58615947,7.5919922 4.5500691,1.6722657 4.6531375,1.5855395 c 0.054286,-0.045679 0.1439916,-0.091355 0.199345,-0.1015021 0.055353,-0.010147 0.6023675,-0.014222 1.2155866,-0.00906 1.0696203,0.00901 1.1184503,0.012013 1.201194,0.073824 0.047438,0.035437 0.1152441,0.1032651 0.150681,0.1507291 l 0.064431,0.086298 v 6.1985418 6.1985417 l -0.064431,0.0863 c -0.035437,0.04746 -0.1032454,0.115292 -0.1506857,0.150729 -0.083164,0.06212 -0.1284415,0.06466 -1.263694,0.07082 -0.7372485,0.004 -1.2066469,-0.0054 -1.2555644,-0.02523 z M 7,11.125 V 8.25 H 4.0625 c -1.615625,0 -2.9375,0.00709 -2.9375,0.015754 0,0.00866 0.8578511,1.3024146 1.9063358,2.875 L 4.9376716,14 H 5.9688359 7 Z M 7,4.875 V 1.96875 H 5.9895341 4.9790681 L 3.0520341,4.8593475 C 1.9921653,6.4491762 1.125,7.7569887 1.125,7.7655975 c 0,0.00861 1.321875,0.015652 2.9375,0.015652 H 7 Z m 5.75,9.590538 C 12.70703,14.448148 12.631462,14.396048 12.582068,14.349771 12.478574,14.2528 8.5759531,8.4148303 8.5114931,8.2605563 8.4567447,8.1295244 8.4567434,7.9017281 8.5114909,7.7706991 8.5861594,7.5919922 12.550069,1.6722657 12.653138,1.5855395 c 0.05429,-0.045679 0.143991,-0.091355 0.199344,-0.1015021 0.05535,-0.010147 0.602368,-0.014222 1.215587,-0.00906 1.06962,0.00901 1.11845,0.012013 1.201194,0.073824 0.04744,0.035437 0.115244,0.1032651 0.150681,0.1507291 l 0.06443,0.086298 v 6.1985418 6.1985417 l -0.06443,0.0863 c -0.03544,0.04746 -0.103245,0.115292 -0.150686,0.150729 -0.08316,0.06212 -0.128441,0.06466 -1.263694,0.07082 -0.737248,0.004 -1.206646,-0.0054 -1.255564,-0.02523 z M 15,11.125 V 8.25 h -2.9375 c -1.615625,0 -2.9375,0.00709 -2.9375,0.015754 0,0.00866 0.8578513,1.3024146 1.906336,2.875 L 12.937672,14 H 13.968836 15 Z m 0,-6.25 V 1.96875 H 13.989534 12.979068 L 11.052034,4.8593475 C 9.9921653,6.4491762 9.125,7.7569887 9.125,7.7655975 c 0,0.00861 1.321875,0.015652 2.9375,0.015652 H 15 Z"
       id="path819"
       inkscape:connector-curvature="0" />
  </g>
</svg>
