<?xml version="1.0" encoding="UTF-8" standalone="no"?>
<!-- Created with Inkscape (http://www.inkscape.org/) -->

<svg
   version="1.1"
   id="svg2"
   width="1600"
   height="1600"
   viewBox="0 0 1600 1600"
   sodipodi:docname="fake_user_off.svg"
   inkscape:version="1.2.2 (732a01da63, 2022-12-09)"
   xmlns:inkscape="http://www.inkscape.org/namespaces/inkscape"
   xmlns:sodipodi="http://sodipodi.sourceforge.net/DTD/sodipodi-0.dtd"
   xmlns="http://www.w3.org/2000/svg"
   xmlns:svg="http://www.w3.org/2000/svg"
   xmlns:rdf="http://www.w3.org/1999/02/22-rdf-syntax-ns#"
   xmlns:cc="http://creativecommons.org/ns#"
   xmlns:dc="http://purl.org/dc/elements/1.1/">
  <metadata
     id="metadata8">
    <rdf:RDF>
      <cc:Work
         rdf:about="">
        <dc:format>image/svg+xml</dc:format>
        <dc:type
           rdf:resource="http://purl.org/dc/dcmitype/StillImage" />
      </cc:Work>
    </rdf:RDF>
  </metadata>
  <defs
     id="defs6" />
  <sodipodi:namedview
     pagecolor="#808080"
     bordercolor="#666666"
     borderopacity="1"
     objecttolerance="10"
     gridtolerance="10"
     guidetolerance="10"
     inkscape:pageopacity="0"
     inkscape:pageshadow="2"
     inkscape:window-width="1993"
     inkscape:window-height="1009"
     id="namedview4"
     showgrid="false"
     inkscape:zoom="0.5"
     inkscape:cx="461"
     inkscape:cy="550"
     inkscape:window-x="-8"
     inkscape:window-y="-8"
     inkscape:window-maximized="1"
     inkscape:current-layer="FAKE_USER_OFF"
     inkscape:showpageshadow="0"
     inkscape:pagecheckerboard="true"
     inkscape:deskcolor="#d1d1d1" />
  <g
     id="FAKE_USER_OFF"
     transform="matrix(100,0,0,100,0,4.9999997e-5)"
     style="stroke-width:0.0114286">
    <path
       style="fill:none;stroke-width:0.000357143"
       d="M 0,8 V 0 h 8 8 v 8 8 H 8 0 Z m 8.5625,7.454545 c 0.7695366,-0.116871 1.477063,-0.429038 2.212585,-0.976212 0.315578,-0.234768 1.091959,-1.009506 1.387638,-1.384703 1.224549,-1.553873 2.209291,-3.6806163 2.803622,-6.0549669 0.316967,-1.2662844 0.507229,-2.6093943 0.514559,-3.6324131 0.0032,-0.4470294 -0.002,-0.4945825 -0.06726,-0.6167669 C 15.291746,2.5613296 15.219908,2.5424747 14.390625,2.5209771 13.579242,2.4999435 13.242508,2.4693223 12.597574,2.3579243 11.008235,2.0834013 9.2915944,1.4185944 8.484375,0.76499744 8.3137663,0.62685731 8.1156472,0.53125 8,0.53125 7.8843528,0.53125 7.6862338,0.62685731 7.515625,0.76499744 6.7084056,1.4185944 4.9917653,2.0834013 3.4024263,2.3579243 2.7574921,2.4693223 2.4207583,2.4999435 1.609375,2.5209771 0.78009166,2.5424747 0.70825366,2.5613296 0.58635806,2.7894831 0.52107856,2.9116675 0.51589259,2.9592206 0.51909584,3.40625 c 0.007331,1.0230188 0.19759247,2.3661287 0.51455956,3.6324131 0.5943302,2.3743506 1.5790729,4.5010939 2.8036218,6.0549669 0.2956787,0.375197 1.0720594,1.149935 1.3876381,1.384703 1.0953288,0.814844 2.2248188,1.145209 3.3375847,0.976212 z M 7.6062116,14.454489 C 6.5579062,14.291642 5.5531019,13.612636 4.6214391,12.4375 3.3442644,10.826559 2.3035219,8.3913309 1.8168264,5.875 1.6722942,5.1277341 1.5324451,4.0538097 1.5315846,3.68458 L 1.53125,3.541035 2.0078125,3.5211759 C 2.6294766,3.49527 3.039265,3.4530003 3.588905,3.3580859 5.0603309,3.1039928 6.7540775,2.4962656 7.6796875,1.8902868 L 8,1.6805845 8.3203125,1.8902868 c 0.92561,0.6059788 2.6193565,1.213706 4.0907825,1.4677991 0.54964,0.094914 0.959428,0.1371841 1.581093,0.16309 l 0.476562,0.019859 -3.34e-4,0.143545 c -1.88e-4,0.07895 -0.02109,0.34042 -0.04646,0.581045 -0.270144,2.5620866 -1.052882,4.9972025 -2.265131,7.0468751 -0.368552,0.623149 -0.823465,1.224898 -1.296161,1.714536 -0.817625,0.846928 -1.5929537,1.29222 -2.48566,1.427581 -0.3470109,0.05262 -0.4293403,0.0526 -0.7687884,-1.25e-4 z"
       id="path821"
       inkscape:connector-curvature="0" />
    <path
       style="fill:#fefea6;stroke-width:0.000357143"
       d="M 7.40625,15.451947 C 6.6611928,15.334142 5.9465272,15.015159 5.2249153,14.478333 4.9093366,14.243565 4.1329559,13.468827 3.8372772,13.09363 2.6127283,11.539757 1.6279856,9.4130137 1.0336554,7.0386631 0.71668831,5.7723787 0.52642638,4.4292688 0.51909584,3.40625 0.51589259,2.9592206 0.52107856,2.9116675 0.58635806,2.7894831 0.70825366,2.5613296 0.78009166,2.5424747 1.609375,2.5209771 2.4207583,2.4999435 2.7574921,2.4693223 3.4024263,2.3579243 4.9917653,2.0834013 6.7084056,1.4185944 7.515625,0.76499744 7.6862338,0.62685731 7.8843528,0.53125 8,0.53125 c 0.1156472,0 0.3137663,0.0956073 0.484375,0.23374744 0.8072194,0.65359696 2.52386,1.31840376 4.113199,1.59292686 0.644934,0.111398 0.981668,0.1420192 1.793051,0.1630528 0.829283,0.021498 0.901121,0.040353 1.023017,0.268506 0.06528,0.1221844 0.07047,0.1697375 0.06726,0.6167669 -0.0073,1.0230188 -0.197592,2.3661287 -0.514559,3.6324131 -0.594331,2.3743506 -1.579073,4.5010939 -2.803622,6.0549669 -0.295679,0.375197 -1.07206,1.149935 -1.387638,1.384703 -1.1003831,0.818604 -2.2492594,1.150636 -3.368835,0.973614 z M 8.375,14.454617 c 0.8927063,-0.135361 1.668035,-0.580653 2.48566,-1.427581 1.337589,-1.385529 2.475024,-3.6587004 3.121048,-6.2374357 C 14.223871,5.8229609 14.467047,4.2715791 14.468415,3.68458 L 14.46875,3.541035 13.992188,3.5211759 C 13.370523,3.49527 12.960735,3.4530003 12.411095,3.3580859 10.939669,3.1039928 9.2459225,2.4962656 8.3203125,1.8902868 L 8,1.6805845 7.6796875,1.8902868 C 6.7540775,2.4962656 5.0603309,3.1039928 3.588905,3.3580859 3.039265,3.4530003 2.6294766,3.49527 2.0078125,3.5211759 L 1.53125,3.541035 1.5315847,3.68458 c 8.606e-4,0.3692297 0.1407096,1.4431541 0.2852418,2.19042 0.4866955,2.5163309 1.527438,4.951559 2.8046127,6.5625 0.9316628,1.175136 1.9364672,1.854142 2.9847725,2.016989 0.3394481,0.05273 0.4217775,0.05274 0.7687884,1.25e-4 z"
       id="path819"
       inkscape:connector-curvature="0" />
  </g>
</svg>
