<?xml version="1.0" encoding="UTF-8" standalone="no"?>
<!-- Created with Inkscape (http://www.inkscape.org/) -->

<svg
   version="1.1"
   id="svg2"
   width="1600"
   height="1600"
   viewBox="0 0 1600 1600"
   sodipodi:docname="fake_user_on.svg"
   inkscape:version="1.2.2 (732a01da63, 2022-12-09)"
   xmlns:inkscape="http://www.inkscape.org/namespaces/inkscape"
   xmlns:sodipodi="http://sodipodi.sourceforge.net/DTD/sodipodi-0.dtd"
   xmlns="http://www.w3.org/2000/svg"
   xmlns:svg="http://www.w3.org/2000/svg"
   xmlns:rdf="http://www.w3.org/1999/02/22-rdf-syntax-ns#"
   xmlns:cc="http://creativecommons.org/ns#"
   xmlns:dc="http://purl.org/dc/elements/1.1/">
  <metadata
     id="metadata8">
    <rdf:RDF>
      <cc:Work
         rdf:about="">
        <dc:format>image/svg+xml</dc:format>
        <dc:type
           rdf:resource="http://purl.org/dc/dcmitype/StillImage" />
      </cc:Work>
    </rdf:RDF>
  </metadata>
  <defs
     id="defs6" />
  <sodipodi:namedview
     pagecolor="#808080"
     bordercolor="#666666"
     borderopacity="1"
     objecttolerance="10"
     gridtolerance="10"
     guidetolerance="10"
     inkscape:pageopacity="0"
     inkscape:pageshadow="2"
     inkscape:window-width="1993"
     inkscape:window-height="1009"
     id="namedview4"
     showgrid="false"
     inkscape:zoom="0.5"
     inkscape:cx="559"
     inkscape:cy="746"
     inkscape:window-x="-8"
     inkscape:window-y="-8"
     inkscape:window-maximized="1"
     inkscape:current-layer="FAKE_USER_ON"
     inkscape:showpageshadow="0"
     inkscape:pagecheckerboard="true"
     inkscape:deskcolor="#d1d1d1" />
  <g
     id="FAKE_USER_ON"
     transform="matrix(100,0,0,100,0,4.9999997e-5)"
     style="stroke-width:0.0114286">
    <path
       style="fill:none;stroke-width:0.000357143"
       d="M 0.0054596,9.8671875 C 0.00846238,6.4941406 0.0152621,3.7976563 0.02057008,3.875 0.10268751,5.07155 0.26564621,6.10221 0.550392,7.2259484 1.1621021,9.6400387 2.1684421,11.811791 3.3996656,13.37488 c 0.2993303,0.380012 1.2294022,1.307411 1.5506013,1.546144 0.7348115,0.546154 1.5526425,0.907855 2.3309831,1.030923 0.2307353,0.03648 -0.2300128,0.0424 -3.5078125,0.04503 L 0,16 Z M 8.71875,15.951947 c 0.7783406,-0.123068 1.596172,-0.484769 2.330983,-1.030923 0.321199,-0.238733 1.251271,-1.166131 1.550601,-1.546144 1.231224,-1.563089 2.237564,-3.7348412 2.849274,-6.1489316 C 15.734354,6.10221 15.897313,5.07155 15.97943,3.875 c 0.0053,-0.077344 0.01211,2.6191406 0.01511,5.9921875 L 16,16 12.226563,15.997 C 8.9487628,15.994344 8.4880147,15.98843 8.71875,15.951947 Z M 7.6062116,14.454489 C 6.5579062,14.291642 5.5531019,13.612636 4.6214391,12.4375 3.3442644,10.826559 2.3035219,8.3913309 1.8168264,5.875 1.6722942,5.1277341 1.5324451,4.0538097 1.5315846,3.68458 L 1.53125,3.541035 2.0078125,3.5211759 C 2.6294766,3.49527 3.039265,3.4530003 3.588905,3.3580859 5.0603309,3.1039928 6.7540775,2.4962656 7.6796875,1.8902868 L 8,1.6805845 8.3203125,1.8902868 c 0.92561,0.6059788 2.6193565,1.213706 4.0907825,1.4677991 0.54964,0.094914 0.959428,0.1371841 1.581093,0.16309 l 0.476562,0.019859 -3.34e-4,0.143545 c -1.88e-4,0.07895 -0.02109,0.34042 -0.04646,0.581045 -0.270144,2.5620866 -1.052882,4.9972025 -2.265131,7.0468751 -0.368552,0.623149 -0.823465,1.224898 -1.296161,1.714536 -0.817625,0.846928 -1.5929537,1.29222 -2.48566,1.427581 -0.3470109,0.05262 -0.4293403,0.0526 -0.7687884,-1.25e-4 z M 9,12.5 V 12 H 8.5 8 V 10.5 9 h 1 1 V 9.5 10 H 10.5 11 V 8.5 7 H 10.5 10 V 7.5 8 H 9 8 V 6.5 5 H 9.5 11 V 5.5 6 H 11.5 12 V 5 4 H 8.5 5 V 4.5 5 H 5.5 6 v 4 4 H 7.5 9 Z M 0.00209049,1.4453125 0,0 h 8 8 L 15.9979,1.4453125 C 15.9961,2.6597376 15.9895,2.8706563 15.95617,2.765625 15.85141,2.4352043 15.685535,2.2387456 15.40625,2.1142968 15.244893,2.0423966 15.19039,2.0366276 14.515625,2.0200273 13.706034,2.00011 13.369729,1.969706 12.722574,1.8579243 11.161352,1.5882578 9.5404388,0.96073722 8.7648472,0.32572916 8.38928,0.01823732 7.9476241,-0.05479977 7.5632778,0.12702449 7.4519872,0.17967334 7.3043309,0.26909044 7.2351528,0.32572916 6.4595612,0.96073722 4.8386484,1.5882578 3.2774263,1.8579243 2.6302708,1.969706 2.2939664,2.00011 1.484375,2.0200273 0.80961016,2.0366276 0.75510681,2.0423966 0.59375,2.1142968 0.31446472,2.2387456 0.14858965,2.4352043 0.04381704,2.765625 0.01051281,2.8706563 0.00384703,2.6597376 0.00209049,1.4453125 Z"
       id="path821"
       inkscape:connector-curvature="0" />
    <path
       style="fill:#aefe7f;stroke-width:0.000357143"
       d="M 7.28125,15.951947 C 6.5029094,15.828879 5.6850784,15.467178 4.9502669,14.921024 4.6290678,14.682291 3.6989959,13.754893 3.3996656,13.37488 1.4514137,10.901494 0.03292234,6.7196134 0.01831204,3.40625 0.01564566,2.801561 0.01629841,2.7954332 0.1031957,2.609375 0.21584477,2.368179 0.36963709,2.2120416 0.58980894,2.1153417 0.75499237,2.0427928 0.80909206,2.037041 1.484375,2.0202339 2.2943521,2.0000743 2.6307518,1.9696229 3.2774263,1.8579243 4.8386484,1.5882578 6.4595612,0.96073722 7.2351528,0.32572916 7.3043309,0.26909044 7.4519872,0.17967334 7.5632778,0.12702449 7.7330291,0.04671955 7.8033803,0.03129931 8,0.03129931 c 0.1966197,0 0.2669709,0.01542024 0.4367222,0.09572518 0.1112906,0.0526488 0.2589469,0.14206595 0.328125,0.19870467 0.7755916,0.63500806 2.3965048,1.26252864 3.9577268,1.53219514 0.646674,0.1116986 0.983074,0.14215 1.793051,0.1623096 0.675283,0.016807 0.729382,0.022559 0.894566,0.095108 0.220172,0.0967 0.373964,0.2528373 0.486613,0.4940333 0.0869,0.1860582 0.08755,0.192186 0.08488,0.796875 -0.01461,3.3133634 -1.433102,7.4952438 -3.381354,9.9686298 -0.29933,0.380012 -1.229402,1.307411 -1.550601,1.546144 -0.749053,0.556739 -1.5604936,0.911759 -2.362233,1.033521 -0.3636706,0.05523 -1.0485125,0.05397 -1.40625,-0.0026 z M 8.375,14.454617 c 0.8927063,-0.135361 1.668035,-0.580653 2.48566,-1.427581 1.337589,-1.385529 2.475024,-3.6587004 3.121048,-6.2374357 C 14.223871,5.8229609 14.467047,4.2715791 14.468415,3.68458 L 14.46875,3.541035 13.992188,3.5211759 C 13.370523,3.49527 12.960735,3.4530003 12.411095,3.3580859 10.939669,3.1039928 9.2459225,2.4962656 8.3203125,1.8902868 L 8,1.6805845 7.6796875,1.8902868 C 6.7540775,2.4962656 5.0603309,3.1039928 3.588905,3.3580859 3.039265,3.4530003 2.6294766,3.49527 2.0078125,3.5211759 L 1.53125,3.541035 1.5315847,3.68458 c 8.606e-4,0.3692297 0.1407096,1.4431541 0.2852418,2.19042 0.4866955,2.5163309 1.527438,4.951559 2.8046127,6.5625 0.9316628,1.175136 1.9364672,1.854142 2.9847725,2.016989 0.3394481,0.05273 0.4217775,0.05274 0.7687884,1.25e-4 z M 6,9 V 5 H 5.5 5 V 4.5 4 H 8.5 12 V 5 6 H 11.5 11 V 5.5 5 H 9.5 8 V 6.5 8 h 1 1 V 7.5 7 H 10.5 11 V 8.5 10 H 10.5 10 V 9.5 9 H 9 8 V 10.5 12 H 8.5 9 V 12.5 13 H 7.5 6 Z"
       id="path819"
       inkscape:connector-curvature="0" />
  </g>
</svg>
