<?xml version="1.0" encoding="UTF-8" standalone="no"?>
<!-- Created with Inkscape (http://www.inkscape.org/) -->

<svg
   version="1.1"
   id="svg2"
   width="1600"
   height="1600"
   viewBox="0 0 1600 1600"
   sodipodi:docname="field_domain.svg"
   inkscape:version="1.2.2 (732a01da63, 2022-12-09)"
   inkscape:export-filename="FIELD_DOMAIN.png"
   inkscape:export-xdpi="3072"
   inkscape:export-ydpi="3072"
   xmlns:inkscape="http://www.inkscape.org/namespaces/inkscape"
   xmlns:sodipodi="http://sodipodi.sourceforge.net/DTD/sodipodi-0.dtd"
   xmlns="http://www.w3.org/2000/svg"
   xmlns:svg="http://www.w3.org/2000/svg"
   xmlns:rdf="http://www.w3.org/1999/02/22-rdf-syntax-ns#"
   xmlns:cc="http://creativecommons.org/ns#"
   xmlns:dc="http://purl.org/dc/elements/1.1/">
  <metadata
     id="metadata8">
    <rdf:RDF>
      <cc:Work
         rdf:about="">
        <dc:format>image/svg+xml</dc:format>
        <dc:type
           rdf:resource="http://purl.org/dc/dcmitype/StillImage" />
      </cc:Work>
    </rdf:RDF>
  </metadata>
  <defs
     id="defs6" />
  <sodipodi:namedview
     pagecolor="#808080"
     bordercolor="#666666"
     borderopacity="1"
     objecttolerance="10"
     gridtolerance="10"
     guidetolerance="10"
     inkscape:pageopacity="0"
     inkscape:pageshadow="2"
     inkscape:window-width="1993"
     inkscape:window-height="1009"
     id="namedview4"
     showgrid="false"
     inkscape:zoom="0.5"
     inkscape:cx="677"
     inkscape:cy="768"
     inkscape:window-x="-8"
     inkscape:window-y="-8"
     inkscape:window-maximized="1"
     inkscape:current-layer="DOMAIN_SIZE"
     inkscape:showpageshadow="0"
     inkscape:pagecheckerboard="true"
     inkscape:deskcolor="#3c3c3c" />
  <g
     id="DOMAIN_SIZE"
     inkscape:label="FIELD_DOMAIN"
     transform="translate(0,3168)">
    <rect
       style="display:none;fill:#ffffff;stroke-width:2.46803;stroke-linecap:round"
       id="rect11471"
       width="16"
       height="16"
       x="0"
       y="0" />
    <path
       style="fill:#fefefe;stroke-width:0.03125"
       d="m 432.13084,-1890.2703 c -11.01871,-4.7992 -22.52992,-18.787 -24.49734,-29.7675 -0.86908,-4.8492 -1.22591,-170.427 -0.79373,-367.9502 0.78147,-356.8058 0.82264,-359.1832 6.38563,-366.8623 6.94187,-9.5826 360.98745,-276.1665 371.93832,-280.0564 10.12488,-3.5966 23.28029,-3.5966 33.40517,0 10.4948,3.7279 364.85681,270.2751 371.44611,279.3975 4.9262,6.8204 5.097,19.9169 4.8228,370.3477 -0.1927,242.6192 -1.223,365.7568 -3.1127,370.743 -3.9056,10.3097 -13.1269,19.7855 -23.5935,24.2453 -12.8687,5.4835 -723.40515,5.3897 -736.00153,-0.096 z m 719.46626,-390.2378 0.7009,-350.2844 -174.55973,-130.8802 c -96.00366,-71.9841 -175.14779,-130.8802 -175.87163,-130.8802 -0.72365,0 -80.17597,59.1271 -176.56028,131.3936 l -175.24422,131.3935 v 349.771 349.771 h 350.41499 350.41497 z m -438.70825,-394.3914 v -43.8045 h 87.6089 87.6089 v 43.8045 43.8044 h -87.6089 -87.6089 z"
       id="path823"
       inkscape:connector-curvature="0"
       sodipodi:nodetypes="cccssssccscccccssccccccccccccccc" />
    <path
       style="fill:#cbcbcb;stroke-width:0.03125"
       d="m 537.67104,-2280.6594 v -262.8267 h 262.82671 262.82675 v 262.8267 262.8267 H 800.49775 537.67104 Z"
       id="path821"
       inkscape:connector-curvature="0" />
    <path
       style="fill:#323232;stroke-width:0.03125"
       d="m 450.06214,-2279.9948 v -349.771 l 175.24422,-131.3935 c 96.38431,-72.2665 175.83643,-131.3936 176.56028,-131.3936 0.72365,0 79.86797,58.8961 175.87583,130.8802 l 174.55973,130.8802 -0.7009,350.2844 -0.7092,350.2843 H 800.47713 450.06214 Z m 613.26236,-0.6646 v -262.8267 H 800.49775 537.67104 v 262.8267 262.8267 h 262.82671 262.82675 z m -175.21785,-394.2401 v -43.8045 h -87.6089 -87.6089 v 43.8045 43.8044 h 87.6089 87.6089 z"
       id="path819-7"
       inkscape:connector-curvature="0" />
    <path
       style="display:inline;fill:#cafdfd;stroke-width:0.03125"
       d="m 143.43097,-1858.3278 v -147.1262 l 47.22668,46.9047 c 25.97467,25.7976 49.91768,48.2684 53.20669,49.9352 3.28901,1.6663 11.27819,3.0304 17.75374,3.0304 h 11.77373 L 391.1581,-2023.189 c 118.79961,-118.6372 127.39301,-126.0571 145.9944,-126.0571 13.49352,0 31.03007,11.3151 38.0186,24.5306 7.37579,13.9479 7.9159,23.7814 2.07852,37.8418 -2.88005,6.9369 -41.68202,47.6861 -121.83113,127.945 l -117.60526,117.7663 v 11.7737 c 0,6.4752 1.36363,14.4648 3.03039,17.7538 1.66667,3.2888 24.13749,27.232 49.93512,53.2067 l 46.90472,47.2266 H 290.55721 143.43097 Z m 1066.78583,99.8996 c 25.7976,-25.9747 48.2684,-49.9177 49.9351,-53.2067 1.6663,-3.2889 3.0304,-11.2783 3.0304,-17.7538 v -11.7737 l -117.6053,-117.7663 c -118.6371,-118.7996 -126.057,-127.393 -126.057,-145.9944 0,-13.4935 11.315,-31.0301 24.5306,-38.0186 13.9478,-7.3758 23.7814,-7.9163 37.8418,-2.0789 6.9368,2.8797 47.6861,41.682 127.9449,121.8311 l 117.7664,117.6052 h 11.7737 c 6.4751,0 14.4647,-1.364 17.7537,-3.0304 3.2889,-1.6663 27.232,-24.1375 53.2068,-49.9351 l 47.2266,-46.9042 v 147.1262 147.1262 H 1310.4383 1163.312 Z m -691.71021,-833.2013 c -5.98183,-2.5748 -53.83137,-48.311 -127.34849,-121.724 l -117.76629,-117.5994 h -11.77373 c -6.47552,0 -14.46473,1.3636 -17.75374,3.0304 -3.28901,1.6667 -27.23202,24.1375 -53.20669,49.9351 l -47.22668,46.9047 v -147.1262 -147.1262 h 147.12624 147.12625 l -46.90476,47.2266 c -25.79763,25.9747 -48.26843,49.9177 -49.93512,53.2067 -1.66669,3.289 -3.03035,11.2782 -3.03035,17.7538 v 11.7737 l 117.60524,117.7663 c 118.63715,118.7996 126.05702,127.393 126.05702,145.9944 0,13.4935 -11.31502,31.0301 -24.53054,38.0186 -13.71863,7.2546 -24.83072,7.8228 -38.43836,1.9655 z m 525.54401,-1.9655 c -13.2156,-6.9885 -24.5306,-24.5251 -24.5306,-38.0186 0,-18.6014 7.4199,-27.1948 126.057,-145.9944 l 117.6052,-117.7663 v -11.7737 c 0,-6.4756 -1.364,-14.4648 -3.0304,-17.7538 -1.6663,-3.289 -24.1375,-27.232 -49.9351,-53.2067 l -46.9047,-47.2266 h 147.1263 147.1262 v 147.1262 147.1262 l -47.2266,-46.9047 c -25.9748,-25.7977 -49.9178,-48.2685 -53.2068,-49.9351 -3.289,-1.6667 -11.2782,-3.0304 -17.7537,-3.0304 h -11.7737 l -117.7664,117.6052 c -80.2588,80.1492 -121.008,118.9512 -127.9449,121.8312 -14.0604,5.8375 -23.894,5.2974 -37.8418,-2.0785 z"
       id="path825"
       inkscape:connector-curvature="0" />
    <path
       style="display:inline;fill:#323232;stroke-width:0.03125"
       d="m 125.49968,-1671.2139 c -11.02545,-4.8475 -22.5266,-18.8283 -24.51605,-29.8016 -0.8792,-4.8495 -1.236227,-78.6438 -0.79339,-163.9874 0.78772,-151.8079 0.92748,-155.3339 6.44989,-162.7286 12.38335,-16.5817 28.73811,-22.826 49.6423,-18.9532 8.78004,1.6269 17.63818,9.0963 56.29288,47.4702 l 45.87322,45.5399 114.28681,-113.874 c 106.66521,-106.2798 115.34348,-114.2616 130.13172,-119.6879 74.57497,-27.364 143.96289,42.0238 116.59886,116.5988 -5.42632,14.7883 -13.40808,23.4666 -119.68795,130.1317 l -113.87391,114.2869 45.53987,45.8732 c 38.37382,38.6547 45.84363,47.5128 47.47023,56.2929 3.87266,20.9042 -2.37158,37.2591 -18.95339,49.6423 -7.40839,5.5325 -10.72364,5.6569 -166.83531,6.2561 -128.23644,0.4906 -160.9038,-0.1051 -167.62578,-3.0593 z m 265.27902,-87.2143 c -25.79763,-25.9747 -48.26843,-49.9177 -49.93512,-53.2067 -1.66669,-3.289 -3.03035,-11.2783 -3.03035,-17.7538 v -11.7737 l 117.60524,-117.7663 c 118.63715,-118.7996 126.05702,-127.393 126.05702,-145.9944 0,-13.4935 -11.31502,-31.0301 -24.53054,-38.0186 -13.94792,-7.3758 -23.78144,-7.9163 -37.84186,-2.0789 -6.93687,2.8797 -47.68612,41.682 -127.94499,121.8311 l -117.76629,117.6057 h -11.77373 c -6.47552,0 -14.46473,-1.3641 -17.75374,-3.0304 -3.28901,-1.6663 -27.23202,-24.1376 -53.20669,-49.9352 l -47.22668,-46.9046 v 147.1262 147.1262 h 147.12624 147.12625 z m 756.048,87.2006 c -21.2754,-9.5446 -31.6022,-35.5541 -23.1378,-58.2757 1.5787,-4.2394 22.8074,-27.7174 47.1739,-52.1744 l 44.3027,-44.4672 -113.911,-114.3239 c -106.31563,-106.7012 -114.29855,-115.3804 -119.72496,-130.1689 -27.364,-74.575 42.02386,-143.9628 116.59886,-116.5988 14.7883,5.4265 23.4665,13.4081 130.1317,119.6879 l 114.2869,113.874 45.8731,-45.5399 c 38.6547,-38.3739 47.5129,-45.8437 56.2929,-47.4702 20.9055,-3.8732 37.2614,2.3724 49.6423,18.9552 5.5527,7.4372 5.6447,10.2071 5.6447,170.0568 0,159.8497 -0.088,162.6195 -5.6447,170.0568 -3.1048,4.1579 -9.046,10.1006 -13.2033,13.2052 -7.4082,5.5325 -10.7236,5.6569 -166.8353,6.2561 -128.5974,0.4906 -160.8588,-0.096 -167.49,-3.0733 z m 310.7378,-187.1002 v -147.1262 l -47.2266,46.9047 c -25.9748,25.7976 -49.9178,48.2684 -53.2068,49.9352 -3.2888,1.6663 -11.2782,3.0304 -17.7537,3.0304 h -11.7737 l -117.7664,-117.6053 c -80.2588,-80.1491 -121.008,-118.9511 -127.9449,-121.8311 -14.0604,-5.8374 -23.894,-5.2977 -37.8418,2.079 -13.2156,6.9879 -24.5306,24.5245 -24.5306,38.018 0,18.6014 7.4196,27.1948 126.057,145.9944 l 117.6052,117.7663 v 11.7737 c 0,6.4752 -1.364,14.4648 -3.0304,17.7538 -1.6663,3.2888 -24.1375,27.232 -49.9351,53.2067 l -46.9047,47.2266 h 147.1263 147.1262 z M 502.07992,-2549.439 c -13.66638,-5.1438 -25.61818,-16.1901 -129.34458,-119.5453 l -114.28681,-113.8778 -45.87322,45.5399 c -38.6547,38.3738 -47.51284,45.8436 -56.29288,47.4702 -20.90548,3.873 -37.26137,-2.3723 -49.6423,-18.9552 -5.55278,-7.4374 -5.64472,-10.2071 -5.64472,-170.0568 0,-159.8497 0.0919,-162.6194 5.64472,-170.0568 3.1046,-4.1583 9.04694,-10.1006 13.20521,-13.2052 7.43735,-5.5528 10.20706,-5.6447 170.05677,-5.6447 159.8497,0 162.61943,0.092 170.05677,5.6447 16.58291,12.3809 22.8282,28.7368 18.95528,49.6423 -1.6266,8.78 -9.09641,17.6382 -47.47023,56.2929 l -45.53988,45.8732 113.87392,114.2868 c 106.27987,106.6652 114.26164,115.3435 119.68795,130.1318 27.43324,74.7635 -42.866,144.5083 -117.386,116.46 z m 54.86503,-44.156 c 13.21552,-6.9885 24.53054,-24.5251 24.53054,-38.0186 0,-18.6014 -7.41987,-27.1948 -126.05702,-145.9944 l -117.60524,-117.7663 v -11.7737 c 0,-6.4756 1.36363,-14.4648 3.03039,-17.7538 1.66667,-3.289 24.13749,-27.232 49.93512,-53.2067 l 46.90472,-47.2266 H 290.55721 143.43097 v 147.1262 147.1262 l 47.22668,-46.9047 c 25.97467,-25.7977 49.91768,-48.2685 53.20669,-49.9351 3.28901,-1.6667 11.27819,-3.0304 17.75374,-3.0304 h 11.77373 l 117.76629,117.5994 c 73.51712,73.413 121.36666,119.1492 127.34849,121.724 13.60764,5.8573 24.71973,5.2891 38.43836,-1.9655 z m 473.62065,44.0792 c -43.88386,-16.8467 -66.15958,-69.7165 -49.03606,-116.3832 5.42632,-14.7883 13.40811,-23.4666 119.68796,-130.1318 l 113.8739,-114.2868 -45.5399,-45.8732 c -38.3738,-38.6547 -45.8436,-47.5129 -47.4702,-56.2929 -3.8729,-20.9055 2.3724,-37.2614 18.9553,-49.6423 7.4374,-5.5528 10.207,-5.6447 170.0567,-5.6447 159.8498,0 162.6195,0.092 170.0568,5.6447 4.1579,3.1046 10.1006,9.0469 13.2052,13.2052 5.5527,7.4374 5.6447,10.2071 5.6447,170.0568 0,159.8497 -0.088,162.6194 -5.6447,170.0568 -12.3809,16.5829 -28.7368,22.8282 -49.6423,18.9552 -8.78,-1.6266 -17.6382,-9.0964 -56.2929,-47.4702 l -45.8731,-45.5399 -114.2869,113.874 c -106.6652,106.2799 -115.3434,114.2616 -130.1317,119.6879 -20.8299,7.6432 -47.3116,7.5587 -67.5628,-0.2156 z m 51.3268,-42.0007 c 6.9368,-2.88 47.6861,-41.682 127.9449,-121.8312 l 117.7664,-117.6052 h 11.7737 c 6.4751,0 14.4647,1.3636 17.7537,3.0304 3.2889,1.6667 27.232,24.1375 53.2068,49.9351 l 47.2266,46.9047 v -147.1262 -147.1262 H 1310.4383 1163.312 l 46.9048,47.2266 c 25.7976,25.9747 48.2684,49.9177 49.9351,53.2067 1.6663,3.289 3.0304,11.2782 3.0304,17.7538 v 11.7737 l -117.6053,117.7663 c -118.6371,118.7996 -126.057,127.393 -126.057,145.9944 0,13.4935 11.315,31.0301 24.5306,38.0186 13.9478,7.3758 23.7814,7.9159 37.8418,2.0785 z"
       id="path819"
       inkscape:connector-curvature="0" />
  </g>
</svg>
