<?xml version="1.0" encoding="UTF-8" standalone="no"?>
<svg
   height="1400"
   viewBox="0 0 1600 1400"
   width="1600"
   version="1.1"
   id="svg324"
   sodipodi:docname="file_folder_large.svg"
   inkscape:version="1.3.2 (091e20ef0f, 2023-11-25)"
   xmlns:inkscape="http://www.inkscape.org/namespaces/inkscape"
   xmlns:sodipodi="http://sodipodi.sourceforge.net/DTD/sodipodi-0.dtd"
   xmlns="http://www.w3.org/2000/svg"
   xmlns:svg="http://www.w3.org/2000/svg">
  <defs
     id="defs326" />
  <sodipodi:namedview
     pagecolor="#808080"
     showgrid="true"
     id="namedview314"
     bordercolor="#eeeeee"
     borderopacity="1"
     inkscape:showpageshadow="0"
     inkscape:pageopacity="0"
     inkscape:pagecheckerboard="true"
     inkscape:deskcolor="#303030"
     inkscape:zoom="0.35355339"
     inkscape:cx="917.8246"
     inkscape:cy="832.97179"
     inkscape:window-width="1920"
     inkscape:window-height="1018"
     inkscape:window-x="0"
     inkscape:window-y="30"
     inkscape:window-maximized="1"
     inkscape:current-layer="svg324">
    <inkscape:grid
       id="grid5"
       units="px"
       spacingx="100"
       spacingy="100"
       color="#4772b3"
       opacity="0.2"
       visible="true"
       originx="0"
       originy="-200" />
  </sodipodi:namedview>
  <g
     id="g817"
     transform="matrix(99.993479,0,0,92.307692,0.006521,-84.615385)"
     style="stroke-width:0.0114286"
     inkscape:label="file_folder">
    <path
       id="path823"
       style="display:inline;fill:#f8e242;stroke-width:0.000357143"
       d="M 3.2026436 2.4687533 L 2.4374961 3.2343652 L 1.6723485 3.9999984 L 1.6759035 3.9999984 L 1.6035745 4.0679395 L 1.5312456 4.1359017 L 1.5312456 5.3023259 L 1.5312456 6.46875 L 8.0156333 6.46875 L 14.500001 6.46875 L 14.499826 5.7578125 C 14.499726 5.3381945 14.485591 4.9962636 14.465351 4.9233496 C 14.421493 4.7653808 14.265874 4.6097489 14.107906 4.5658919 C 14.022198 4.542097 13.064796 4.5315492 10.981217 4.5314242 C 8.9524855 4.5313062 7.9473384 4.5205359 7.8833395 4.4982259 C 7.8312333 4.4800615 7.6945397 4.3605268 7.5795892 4.2325977 L 7.3705912 3.9999984 L 7.3588912 3.9999984 L 6.5937437 3.2343652 L 5.8285961 2.4687533 L 4.5156199 2.4687533 L 3.2026436 2.4687533 z M 1.5312456 7.0000065 L 1.5312456 10.499998 L 1.5312456 13.980842 L 8.0156333 13.980842 L 14.500001 13.980842 L 14.500001 10.499998 L 14.500001 7.0000065 L 8.0156333 7.0000065 L 1.5312456 7.0000065 z " />
    <path
       style="fill:#fefefe;fill-opacity:1;stroke-width:0.000357143"
       d="M 1.53125,7.5312495 H 8.015625 14.5 C 14.5,7.2259336 14.5,7.3053158 14.5,7 H 8.015625 1.53125 c 0,0.3053158 0,0.2259336 0,0.5312495 z"
       id="path825" />
    <path
       style="fill:#b1831d;fill-opacity:1;stroke-width:0.000357143"
       d="M 1.53125,13.980833 H 8.015625 14.5 V 14.5 H 8.015625 1.53125 Z m 0,-7.246458 V 6.46875 H 8.015625 14.5 V 6.734375 7 H 8.015625 1.53125 Z"
       id="path821"
       inkscape:connector-curvature="0"
       sodipodi:nodetypes="cccccccccccccccc" />
    <path
       style="fill:#4c380c;stroke-width:0.000357143"
       d="M 1,9.4763766 V 3.9527528 L 1.9767456,2.9763765 2.9534913,2 h 1.5624999 1.5625 L 7.078125,3 8.0777587,4 11.015442,4.0011 c 3.087808,0.00115 3.147824,0.00362 3.437683,0.1413375 0.168399,0.080009 0.359735,0.276855 0.453871,0.4669397 l 0.07738,0.15625 0.0083,5.1171875 L 15.000913,15 H 8.0004566 1 Z M 14.499826,9.7734375 C 14.499701,6.4388381 14.489551,5.0104947 14.465355,4.9233412 14.421497,4.7653722 14.265878,4.6097528 14.107909,4.5658953 14.022198,4.5420994 13.064086,4.5315453 10.978597,4.5314244 9.2332841,4.5313306 7.9412272,4.5192391 7.8974838,4.5026078 7.8560497,4.4868544 7.3746891,4.0227919 6.8277938,3.4713578 L 5.8334384,2.46875 H 4.5180647 3.2026909 L 2.3669705,3.3049006 1.53125,4.1410512 V 9.3205256 14.5 H 8.015625 14.5 l -1.87e-4,-4.7265625 z"
       id="path819"
       inkscape:connector-curvature="0" />
  </g>
</svg>
