<?xml version="1.0" encoding="UTF-8" standalone="no"?>
<!-- Created with Inkscape (http://www.inkscape.org/) -->

<svg
   version="1.1"
   id="svg2"
   width="1600"
   height="1600"
   viewBox="0 0 1600 1600"
   sodipodi:docname="file_cache.svg"
   inkscape:version="1.2.2 (732a01da63, 2022-12-09)"
   xmlns:inkscape="http://www.inkscape.org/namespaces/inkscape"
   xmlns:sodipodi="http://sodipodi.sourceforge.net/DTD/sodipodi-0.dtd"
   xmlns="http://www.w3.org/2000/svg"
   xmlns:svg="http://www.w3.org/2000/svg"
   xmlns:rdf="http://www.w3.org/1999/02/22-rdf-syntax-ns#"
   xmlns:cc="http://creativecommons.org/ns#"
   xmlns:dc="http://purl.org/dc/elements/1.1/">
  <metadata
     id="metadata8">
    <rdf:RDF>
      <cc:Work
         rdf:about="">
        <dc:format>image/svg+xml</dc:format>
        <dc:type
           rdf:resource="http://purl.org/dc/dcmitype/StillImage" />
      </cc:Work>
    </rdf:RDF>
  </metadata>
  <defs
     id="defs6" />
  <sodipodi:namedview
     pagecolor="#808080"
     bordercolor="#666666"
     borderopacity="1"
     objecttolerance="10"
     gridtolerance="10"
     guidetolerance="10"
     inkscape:pageopacity="0"
     inkscape:pageshadow="2"
     inkscape:window-width="1993"
     inkscape:window-height="1009"
     id="namedview4"
     showgrid="false"
     inkscape:zoom="0.5"
     inkscape:cx="1149"
     inkscape:cy="806"
     inkscape:window-x="-8"
     inkscape:window-y="-8"
     inkscape:window-maximized="1"
     inkscape:current-layer="FILE_CACHE"
     inkscape:showpageshadow="0"
     inkscape:pagecheckerboard="true"
     inkscape:deskcolor="#d1d1d1" />
  <g
     id="FILE_CACHE"
     transform="matrix(100,0,0,100,0,4.9999997e-5)"
     style="stroke-width:0.0114286">
    <path
       style="fill:none;stroke-width:0.000357143"
       d="M 0,8 V 0 h 8 8 V 3.5 7 h -1.995002 -1.995001 l -0.02062,-0.7550603 c -0.01134,-0.4152831 -0.02062,-0.8869372 -0.02062,-1.04812 0,-0.2268213 -0.01346,-0.3192653 -0.05955,-0.4090022 C 11.87645,4.7240491 11.619809,4.4376837 11.338889,4.1514503 8.8960153,1.6623717 8.3449031,1.1119162 8.2434325,1.0596829 8.1313084,1.0019657 8.0101134,1 4.563745,1 H 1 v 7 7 H 4 7 V 15.5 16 H 3.5 0 Z"
       id="path829"
       inkscape:connector-curvature="0" />
    <path
       style="fill:#fefefe;stroke-width:0.000357143"
       d="M 2,8 V 2 H 4.5 7 v 1.8235038 1.8235034 l 0.071237,0.1057081 c 0.03918,0.058139 0.1270709,0.1373313 0.1953125,0.1759822 L 7.390625,5.9989719 9.1953125,5.9994875 11,6 V 6.5 7 H 9 7 V 10.5 14 H 4.5 2 Z M 8,3.6121288 V 2.2242576 L 9.0091278,3.2449413 C 9.5641481,3.8063172 10.172351,4.4248538 10.36069,4.6194669 10.549029,4.81408 10.708984,4.9793144 10.716146,4.9866544 10.723307,4.9939944 10.115104,5 9.3645834,5 H 8 Z"
       id="path827"
       inkscape:connector-curvature="0" />
    <path
       style="fill:#909090;stroke-width:0.000357143"
       d="M 7.2665491,5.9286975 C 7.1983075,5.8900466 7.1104169,5.8108547 7.0712366,5.7527153 L 7,5.6470072 V 3.8235038 2 H 7.5 8 V 3.5 5 H 9.5 11 V 5.5 6 L 9.1953125,5.9994875 7.390625,5.9989719 Z"
       id="path825"
       inkscape:connector-curvature="0" />
    <path
       style="fill:#65fe00;stroke-width:0.000357143"
       d="m 8,14 v -1 h 3.5 3.5 v 1 1 H 11.5 8 Z M 8,11.5 V 11 H 11.5 15 V 11.5 12 H 11.5 8 Z M 8,9 V 8 h 3.5 3.5 v 1 1 H 11.5 8 Z"
       id="path823"
       inkscape:connector-curvature="0" />
    <path
       style="fill:#464646;stroke-width:0.000357143"
       d="M 1,8 V 1 h 3.563745 c 3.4463684,0 3.5675634,0.00197 3.6796875,0.059683 0.1014706,0.052233 0.6525828,0.6026888 3.0954565,3.0917674 0.28092,0.2862334 0.535832,0.5696434 0.56647,0.6297997 0.04864,0.095501 0.0586,0.2431562 0.07854,1.1640625 L 12.006732,7 H 11.503366 11 V 6 5 H 10.8653 C 10.734388,5 10.72058,4.9896731 10.374353,4.6328125 10.178418,4.4308594 9.5640331,3.8063172 9.0090534,3.2449413 8.0616038,2.2865713 8,2.2174121 8,2.1121288 V 2 H 5 2 v 6 6 H 4.5 7 V 14.5 15 H 4 1 Z"
       id="path821"
       inkscape:connector-curvature="0" />
    <path
       style="fill:#006500;stroke-width:0.000357143"
       d="M 7,11.5 V 7 H 11.5 16 V 11.5 16 H 11.5 7 Z M 15,14 V 13 H 11.5 8 v 1 1 h 3.5 3.5 z m 0,-2.5 V 11 H 11.5 8 V 11.5 12 H 11.5 15 Z M 15,9 V 8 H 11.5 8 v 1 1 h 3.5 3.5 z"
       id="path819"
       inkscape:connector-curvature="0" />
  </g>
</svg>
