<?xml version="1.0" encoding="UTF-8" standalone="no"?>
<!-- Created with Inkscape (http://www.inkscape.org/) -->

<svg
   version="1.1"
   id="svg2"
   width="1600"
   height="1600"
   viewBox="0 0 1600 1600"
   sodipodi:docname="file_tick.svg"
   inkscape:version="1.2.2 (732a01da63, 2022-12-09)"
   xmlns:inkscape="http://www.inkscape.org/namespaces/inkscape"
   xmlns:sodipodi="http://sodipodi.sourceforge.net/DTD/sodipodi-0.dtd"
   xmlns="http://www.w3.org/2000/svg"
   xmlns:svg="http://www.w3.org/2000/svg"
   xmlns:rdf="http://www.w3.org/1999/02/22-rdf-syntax-ns#"
   xmlns:cc="http://creativecommons.org/ns#"
   xmlns:dc="http://purl.org/dc/elements/1.1/">
  <metadata
     id="metadata8">
    <rdf:RDF>
      <cc:Work
         rdf:about="">
        <dc:format>image/svg+xml</dc:format>
        <dc:type
           rdf:resource="http://purl.org/dc/dcmitype/StillImage" />
      </cc:Work>
    </rdf:RDF>
  </metadata>
  <defs
     id="defs6" />
  <sodipodi:namedview
     pagecolor="#808080"
     bordercolor="#666666"
     borderopacity="1"
     objecttolerance="10"
     gridtolerance="10"
     guidetolerance="10"
     inkscape:pageopacity="0"
     inkscape:pageshadow="2"
     inkscape:window-width="2560"
     inkscape:window-height="1009"
     id="namedview4"
     showgrid="false"
     inkscape:zoom="0.5"
     inkscape:cx="828"
     inkscape:cy="408"
     inkscape:window-x="-8"
     inkscape:window-y="-8"
     inkscape:window-maximized="1"
     inkscape:current-layer="FILE_TICK"
     inkscape:showpageshadow="0"
     inkscape:pagecheckerboard="true"
     inkscape:deskcolor="#d1d1d1" />
  <g
     id="FILE_TICK"
     transform="matrix(99.998887,0,0,99.998887,0.01781229,0)"
     style="stroke-width:0.0100001">
    <path
       style="fill:none;stroke-width:0.000312503"
       d="M 0,14.007905 V 12.01581 L 1.984375,14 C 3.0757813,15.091305 3.96875,15.987747 3.96875,15.992095 3.96875,15.996443 3.0757813,16 1.984375,16 H 0 Z"
       id="path827"
       inkscape:connector-curvature="0" />
    <path
       style="fill:#fefefe;stroke-width:0.000312503"
       d="M 2,5.5 V 1 h 6 6 V 5.5 10 H 8 2 Z"
       id="path825"
       inkscape:connector-curvature="0" />
    <path
       style="fill:#cbcbcb;stroke-width:0.000312503"
       d="M 4,13.5 V 11 h 4 4 V 13.5 16 H 8 4 Z m 3,0 V 12 H 6 5 v 1.5 1.5 h 1 1 z"
       id="path823"
       inkscape:connector-curvature="0" />
    <path
       style="fill:#0065cb;stroke-width:0.000312503"
       d="M 1.9921875,14.007817 0,12.015443 V 7.5077216 3 H 1 2 V 6.5 10 h 6 6 V 5.5 1 H 7 0 V 0.5 0 h 8 8 v 8 8 H 14 12 V 13.5 11 H 8.0001859 4.0003719 l -0.008,2.500095 -0.008,2.500095 z"
       id="path821"
       inkscape:connector-curvature="0" />
    <path
       style="fill:#323232;stroke-width:0.000312503"
       d="M 5,13.5 V 12 H 6 7 V 13.5 15 H 6 5 Z M 0,2 V 1 H 1 2 V 2 3 H 1 0 Z"
       id="path819"
       inkscape:connector-curvature="0" />
  </g>
</svg>
