<?xml version="1.0" encoding="UTF-8" standalone="no"?>
<!-- Created with Inkscape (http://www.inkscape.org/) -->

<svg
   version="1.1"
   id="svg2"
   width="1600"
   height="1300"
   viewBox="0 0 1600 1300"
   sodipodi:docname="file_folder_up.svg"
   inkscape:version="1.4 (e7c3feb100, 2024-10-09)"
   xmlns:inkscape="http://www.inkscape.org/namespaces/inkscape"
   xmlns:sodipodi="http://sodipodi.sourceforge.net/DTD/sodipodi-0.dtd"
   xmlns="http://www.w3.org/2000/svg"
   xmlns:svg="http://www.w3.org/2000/svg"
   xmlns:rdf="http://www.w3.org/1999/02/22-rdf-syntax-ns#"
   xmlns:cc="http://creativecommons.org/ns#"
   xmlns:dc="http://purl.org/dc/elements/1.1/">
  <metadata
     id="metadata8">
    <rdf:RDF>
      <cc:Work
         rdf:about="">
        <dc:format>image/svg+xml</dc:format>
        <dc:type
           rdf:resource="http://purl.org/dc/dcmitype/StillImage" />
      </cc:Work>
    </rdf:RDF>
  </metadata>
  <defs
     id="defs6">
    <inkscape:path-effect
       effect="fillet_chamfer"
       id="path-effect6"
       is_visible="true"
       lpeversion="1"
       nodesatellites_param="F,0,0,1,0,10,0,1 @ F,0,0,1,0,10,0,1 @ F,0,0,1,0,10,0,1 @ F,0,0,1,0,10,0,1 @ F,0,0,1,0,13.09707,0,1 @ F,0,0,1,0,17.435576,0,1 @ F,0,0,1,0,17.435576,0,1 @ F,0,1,1,0,13.09707,0,1 @ F,0,0,1,0,10,0,1 @ F,0,0,1,0,10,0,1 @ F,0,0,1,0,10,0,1"
       radius="10"
       unit="px"
       method="auto"
       mode="F"
       chamfer_steps="1"
       flexible="false"
       use_knot_distance="true"
       apply_no_radius="true"
       apply_with_radius="true"
       only_selected="false"
       hide_knots="false" />
    <inkscape:path-effect
       effect="mirror_symmetry"
       start_point="255.25044,724.46215"
       end_point="255.24752,898.94788"
       center_point="255.24898,811.70502"
       id="path-effect5"
       is_visible="true"
       lpeversion="1.2"
       lpesatellites=""
       mode="free"
       discard_orig_path="false"
       fuse_paths="true"
       oposite_fuse="false"
       split_items="false"
       split_open="false"
       link_styles="false" />
    <inkscape:path-effect
       effect="fillet_chamfer"
       id="path-effect4"
       is_visible="true"
       lpeversion="1"
       nodesatellites_param="F,0,0,1,0,18,0,1 @ F,0,0,1,0,18,0,1 @ F,0,0,1,0,18,0,1 @ F,0,0,1,0,18,0,1"
       radius="18"
       unit="px"
       method="auto"
       mode="F"
       chamfer_steps="1"
       flexible="false"
       use_knot_distance="true"
       apply_no_radius="true"
       apply_with_radius="true"
       only_selected="false"
       hide_knots="false" />
    <inkscape:path-effect
       effect="mirror_symmetry"
       start_point="248.33489,898.56761"
       end_point="249.12956,749.83729"
       center_point="248.73222,824.20245"
       id="path-effect1"
       is_visible="false"
       lpeversion="1.2"
       lpesatellites=""
       mode="free"
       discard_orig_path="false"
       fuse_paths="true"
       oposite_fuse="false"
       split_items="false"
       split_open="false"
       link_styles="false" />
    <inkscape:path-effect
       effect="fillet_chamfer"
       id="path-effect3"
       is_visible="true"
       lpeversion="1"
       nodesatellites_param="F,0,0,1,0,4,0,1 @ F,0,0,1,0,4,0,1 @ F,0,0,1,0,4,0,1 @ F,0,0,1,0,4,0,1 @ F,0,0,1,0,4,0,1 @ F,0,0,1,0,4,0,1 @ F,0,0,1,0,4,0,1"
       radius="4"
       unit="px"
       method="auto"
       mode="F"
       chamfer_steps="1"
       flexible="false"
       use_knot_distance="true"
       apply_no_radius="true"
       apply_with_radius="true"
       only_selected="false"
       hide_knots="false" />
    <inkscape:path-effect
       effect="fillet_chamfer"
       id="path-effect2"
       is_visible="true"
       lpeversion="1"
       nodesatellites_param="F,0,0,1,0,0,0,1 @ F,0,0,1,0,0,0,1 @ F,0,0,1,0,0,0,1 @ F,0,0,1,0,0,0,1 @ F,0,0,1,0,0,0,1 @ F,0,0,1,0,0,0,1 @ F,0,0,1,0,0,0,1"
       radius="0"
       unit="px"
       method="auto"
       mode="F"
       chamfer_steps="1"
       flexible="false"
       use_knot_distance="true"
       apply_no_radius="true"
       apply_with_radius="true"
       only_selected="false"
       hide_knots="false" />
    <inkscape:path-effect
       effect="fillet_chamfer"
       id="path-effect41"
       is_visible="true"
       lpeversion="1"
       nodesatellites_param="F,0,0,1,0,0,0,1 @ F,0,0,1,0,0,0,1 @ F,0,0,1,0,0,0,1 @ F,0,0,1,0,0,0,1 @ F,0,0,1,0,0,0,1 @ F,0,0,1,0,0,0,1 @ F,0,0,1,0,0,0,1"
       radius="0"
       unit="px"
       method="auto"
       mode="F"
       chamfer_steps="1"
       flexible="false"
       use_knot_distance="true"
       apply_no_radius="true"
       apply_with_radius="true"
       only_selected="false"
       hide_knots="false" />
    <inkscape:path-effect
       effect="fillet_chamfer"
       id="path-effect13"
       is_visible="true"
       lpeversion="1"
       nodesatellites_param="F,0,0,1,0,17.049116,0,1 @ F,0,0,1,0,0,0,1 @ F,0,0,1,0,0,0,1 @ F,0,0,1,0,34.312839,0,1 @ F,0,0,1,0,0,0,1 @ F,0,0,1,0,0,0,1"
       radius="0"
       unit="px"
       method="auto"
       mode="F"
       chamfer_steps="1"
       flexible="false"
       use_knot_distance="true"
       apply_no_radius="true"
       apply_with_radius="true"
       only_selected="false"
       hide_knots="false" />
    <inkscape:path-effect
       effect="offset"
       id="path-effect36"
       is_visible="false"
       lpeversion="1.3"
       linejoin_type="miter"
       unit="mm"
       offset="-2"
       miter_limit="4"
       attempt_force_join="false"
       update_on_knot_move="true" />
  </defs>
  <sodipodi:namedview
     pagecolor="#3b3b3b"
     bordercolor="#666666"
     borderopacity="1"
     objecttolerance="10"
     gridtolerance="10"
     guidetolerance="10"
     inkscape:pageopacity="0"
     inkscape:pageshadow="2"
     inkscape:window-width="1993"
     inkscape:window-height="1009"
     id="namedview4"
     showgrid="true"
     fit-margin-top="0"
     fit-margin-left="0"
     fit-margin-right="0"
     fit-margin-bottom="0"
     inkscape:zoom="1.2153398"
     inkscape:cx="736.00816"
     inkscape:cy="914.14765"
     inkscape:window-x="-8"
     inkscape:window-y="-8"
     inkscape:window-maximized="1"
     inkscape:current-layer="g2"
     inkscape:showpageshadow="0"
     inkscape:pagecheckerboard="false"
     inkscape:deskcolor="#d1d1d1"
     showguides="true">
    <inkscape:grid
       id="grid1"
       units="px"
       originx="0"
       originy="0"
       spacingx="100"
       spacingy="100"
       empcolor="#0099e5"
       empopacity="0.30196078"
       color="#0099e5"
       opacity="0.14901961"
       empspacing="5"
       enabled="true"
       visible="true" />
    <inkscape:grid
       id="grid2"
       units="px"
       originx="0"
       originy="0"
       spacingx="50"
       spacingy="50"
       empcolor="#0099e5"
       empopacity="0.30196078"
       color="#0099e5"
       opacity="0.14901961"
       empspacing="5"
       enabled="false"
       visible="true" />
    <sodipodi:guide
       position="800,650"
       orientation="0,-1"
       id="guide1"
       inkscape:locked="false" />
    <sodipodi:guide
       position="800,650"
       orientation="1,0"
       id="guide2"
       inkscape:locked="false" />
  </sodipodi:namedview>
  <g
     id="g2"
     transform="matrix(2.9366779,0,0,2.9185292,49.967991,-1693.5984)"
     style="display:inline;stroke:none;stroke-width:0.0114286"
     inkscape:label="FILE_FOLDER_UP">
    <g
       id="blender_folder_01"
       style="display:inline;stroke:none;stroke-width:0.0114286"
       transform="translate(0.15254327)">
      <path
         sodipodi:nodetypes="cccccccc"
         inkscape:connector-curvature="0"
         id="path1"
         d="m 153.12479,614.45752 34.09823,34.31285 272.26142,-0.0312 c 18.93324,0 34.28166,15.34842 34.28166,34.28166 V 991.55581 H 16.73186 V 614.45752 Z"
         style="display:inline;opacity:1;mix-blend-mode:normal;fill:#edd341;fill-opacity:1;stroke:#000000;stroke-width:8.27649;stroke-dasharray:none;stroke-opacity:1;paint-order:normal"
         inkscape:label="back"
         inkscape:path-effect="#path-effect2"
         inkscape:original-d="m 153.12479,614.45752 34.09823,34.31285 272.26142,-0.0312 c 18.93324,0 34.28166,15.34842 34.28166,34.28166 V 991.55581 H 16.73186 V 614.45752 Z" />
    </g>
    <path
       sodipodi:nodetypes="cccccccc"
       inkscape:connector-curvature="0"
       id="rect4150"
       d="m 153.12479,614.45752 34.09823,34.31285 272.26142,-0.0312 c 18.93324,0 34.28166,15.34842 34.28166,34.28166 V 991.55581 H 16.73186 V 614.45752 Z"
       style="display:inline;opacity:1;mix-blend-mode:normal;fill:#000000;fill-opacity:0.301217;stroke:#000000;stroke-width:8.27649;stroke-dasharray:none;stroke-opacity:1;paint-order:normal"
       inkscape:label="dim layer"
       inkscape:path-effect="#path-effect41"
       inkscape:original-d="m 153.12479,614.45752 34.09823,34.31285 272.26142,-0.0312 c 18.93324,0 34.28166,15.34842 34.28166,34.28166 V 991.55581 H 16.73186 V 614.45752 Z" />
    <g
       id="blender_folder"
       inkscape:label="blender_folder"
       style="display:inline">
      <path
         id="rect3348"
         d="M 33.780976,700.23966 H 204.27213 l 34.09823,-34.31286 h 221.4239 a 34.276927,34.276927 45.029998 0 1 34.27691,34.31282 L 493.76612,991.5558 H 16.731867 l -7e-6,-274.26702 a 17.049116,17.049116 135 0 1 17.049116,-17.04912 z"
         style="display:inline;opacity:1;mix-blend-mode:normal;fill:#edd341;fill-opacity:1;stroke:#000000;stroke-width:8.27649;stroke-linecap:butt;stroke-miterlimit:4;stroke-dasharray:none;stroke-opacity:1;paint-order:normal"
         inkscape:label="front"
         sodipodi:nodetypes="ccccccc"
         inkscape:original-d="M 16.73186,700.23966 H 204.27213 L 238.37036,665.9268 H 494.1071 l -0.34098,325.629 H 16.731867 Z"
         inkscape:path-effect="#path-effect13;#path-effect36" />
    </g>
    <g
       id="blender_white"
       fill-opacity="0.15"
       style="display:inline;opacity:1;stroke:none"
       transform="matrix(1.1617813,0,0,1.168342,-14.789031,-224.69034)"
       inkscape:label="blender_black">
      <path
         id="path44"
         d="m 45.46962,997.15591 h 374.05457 v 3.14329 H 45.46962 Z"
         style="fill:#000000;fill-opacity:1" />
      <path
         id="path45"
         d="M 45.538475,982.26412 H 419.59305 v 3.14331 H 45.538475 Z"
         style="fill:#000000;fill-opacity:1" />
    </g>
    <g
       id="FILE_PARENT"
       transform="matrix(11.927663,0,0,11.929914,159.02914,719.32644)"
       style="display:none;stroke:none;stroke-width:0.0114286"
       inkscape:label="blender_white_02">
      <path
         style="fill:#fefefe;stroke-width:0.000357143"
         d="M 8,11.5 V 11 H 10.5 13 V 11.5 12 H 10.5 8 Z M 6,7.7188391 V 4.4376781 L 6.5,3.9355728 7,3.4334675 V 7.2167337 11 H 6.5 6 Z M 2.2023402,6.2163872 c -0.073295,-0.2206694 -0.053304,-0.557431 0.04506,-0.7590656 0.1069193,-0.2191735 4.114008,-4.2268462 4.3350036,-4.3356357 0.2193132,-0.1079612 0.6471294,-0.1079612 0.8664425,0 0.2209957,0.1087895 4.2280847,4.1164622 4.3350037,4.3356357 0.09836,0.2016346 0.118354,0.5383962 0.04506,0.7590656 -0.04633,0.1394956 -0.11016,0.213824 -0.11016,0.128285 0,-0.01668 -0.926535,-0.9568438 -2.0589661,-2.0892516 C 8.0876059,2.6832751 7.5648878,2.1788097 7.4488462,2.1216859 7.3226637,2.0595701 7.2491481,2.046875 7.015625,2.046875 6.7821019,2.046875 6.7085862,2.05957 6.5824037,2.121686 6.4663622,2.1788097 5.9436441,2.6832751 4.3714662,4.2554206 3.2390347,5.3878284 2.3125,6.3279919 2.3125,6.3446722 c 0,0.085539 -0.063827,0.011211 -0.1101598,-0.128285 z"
         id="path823"
         inkscape:connector-curvature="0" />
      <path
         style="fill:#cbcbcb;stroke-width:0.000357143"
         d="M 7.8532894,12.968733 C 7.5529141,12.924351 7.4355422,12.839023 6.7982594,12.201741 6.1584088,11.56189 6.0648769,11.432719 6.0378663,11.151612 L 6.0232981,11 H 6.5116491 7 V 7.2178294 3.4356584 L 5.3628316,5.0727431 C 4.1149003,6.3206109 3.6895503,6.7273969 3.5737691,6.7837244 3.3909519,6.8726647 3.0606192,6.900095 2.8574365,6.8432072 2.5777414,6.7648975 2.2502577,6.4600506 2.3152903,6.3385362 2.3326419,6.3061144 3.2657381,5.3608481 4.3888375,4.2379444 5.945795,2.6812581 6.4668862,2.1785545 6.5826056,2.1215882 c 0.2190022,-0.1078106 0.6470366,-0.1078106 0.8660388,0 0.1157194,0.056966 0.6368106,0.5596699 2.1937681,2.1163562 1.1230995,1.1229037 2.0561955,2.06817 2.0735475,2.1005918 0.06503,0.1215144 -0.262451,0.4263613 -0.542147,0.504671 -0.203103,0.056866 -0.533517,0.029456 -0.716182,-0.05941 C 10.344394,6.7287072 10.013315,6.4174178 9.1529438,5.5570969 L 8,4.40422 V 7.4995637 10.594908 L 8.2025462,10.797454 8.4050925,11 H 8.2025462 8 v 0.5 0.5 h 2.5 2.5 v -0.488351 -0.488351 l 0.151612,0.01457 c 0.304188,0.02923 0.614633,0.253662 0.760497,0.549794 0.0593,0.120393 0.07227,0.197174 0.07227,0.427965 0,0.230791 -0.01296,0.307572 -0.07227,0.427965 -0.09224,0.187258 -0.281261,0.376282 -0.468519,0.468519 l -0.146715,0.07227 -2.640625,0.0042 c -1.4523438,0.0023 -2.7136759,-0.0066 -2.8029606,-0.01981 z"
         id="path821"
         inkscape:connector-curvature="0" />
      <path
         style="fill:#323232;stroke-width:0.000357143"
         d="M 7.734375,13.4685 C 7.5140972,13.435085 7.2769378,13.337689 7.102525,13.209016 6.9026506,13.061558 5.8108066,11.951877 5.7238784,11.807847 5.6860269,11.745131 5.6238894,11.611538 5.5857953,11.510972 L 5.5165328,11.328125 5.5070106,8.5027184 5.4974881,5.6773119 4.7721816,6.3956759 C 4.3732631,6.7907763 3.9955622,7.1448994 3.9328466,7.1826163 3.7040669,7.3202037 3.4787547,7.375 3.1418006,7.375 2.9020788,7.375 2.7771645,7.3589687 2.6302192,7.3093444 2.2327308,7.1751106 1.8561394,6.7985191 1.7219055,6.4010306 1.6722813,6.2540856 1.65625,6.1291712 1.65625,5.8894494 1.65625,5.521325 1.7189262,5.2955347 1.8901368,5.046875 2.0262697,4.8491609 6.0697247,0.81440428 6.2234034,0.72293038 6.4544541,0.58540244 6.6782681,0.53125 7.015625,0.53125 c 0.3373569,0 0.5611709,0.0541524 0.7922216,0.19168038 C 7.9615253,0.81440428 12.00498,4.8491609 12.141113,5.046875 12.312324,5.2955347 12.375,5.521325 12.375,5.8894494 c 0,0.2397218 -0.01603,0.3646362 -0.06566,0.5115812 -0.134233,0.3974885 -0.510825,0.77408 -0.908313,0.9083138 C 11.254086,7.3589687 11.129171,7.375 10.889449,7.375 10.552522,7.375 10.327244,7.3202184 10.098403,7.1826381 10.035688,7.1449331 9.6503906,6.7832041 9.2421875,6.3787959 L 8.5,5.6435078 v 2.3602988 2.3602984 l 0.07074,0.06646 c 0.070638,0.06636 0.074096,0.06647 2.414062,0.07668 l 2.343323,0.01023 0.196161,0.07254 c 0.409486,0.151439 0.776916,0.520946 0.910058,0.915204 0.09184,0.271948 0.09184,0.748863 0,1.020812 -0.134233,0.397488 -0.510825,0.77408 -0.908313,0.908313 -0.192008,0.06484 -0.228129,0.06561 -2.914911,0.06176 -1.4962722,-0.0021 -2.7908072,-0.01456 -2.8767447,-0.0276 z m 5.709215,-0.556391 c 0.187258,-0.09224 0.376283,-0.281261 0.468519,-0.468519 0.0593,-0.120393 0.07227,-0.197174 0.07227,-0.427965 0,-0.230791 -0.01296,-0.307572 -0.07227,-0.427965 -0.150885,-0.306327 -0.43509,-0.506124 -0.793713,-0.557984 -0.108087,-0.01563 -1.212797,-0.0287 -2.454912,-0.02905 L 8.4050925,11 8.2025462,10.797454 8,10.594908 V 7.4995637 4.40422 l 1.1529438,1.1528769 c 0.8524262,0.8523762 1.1924962,1.1723478 1.3046872,1.2275775 0.216377,0.1065181 0.647175,0.1077362 0.860959,0.00243 0.187258,-0.092236 0.376283,-0.281261 0.468519,-0.4685191 0.105379,-0.2139406 0.104087,-0.6445731 -0.0026,-0.8612681 -0.10822,-0.2198422 -4.1158271,-4.22741 -4.3356777,-4.3356357 -0.2193132,-0.1079612 -0.6471294,-0.1079612 -0.8664425,0 -0.2198507,0.1082257 -4.2274574,4.1157935 -4.3356781,4.3356357 -0.06216,0.1262731 -0.074851,0.199739 -0.074851,0.4333034 0,0.3285522 0.063605,0.4937525 0.2693015,0.6994484 0.2056961,0.2056963 0.3708963,0.2693016 0.6994485,0.2693016 0.2332297,0 0.3070981,-0.012725 0.4326391,-0.074529 0.111559,-0.054921 0.4507056,-0.3736828 1.2890625,-1.2115834 L 6,4.4362078 6.0006281,7.6790412 c 3.469e-4,1.7835588 0.013417,3.3312678 0.029047,3.4393548 0.048362,0.334428 0.1184269,0.433188 0.7685838,1.083345 0.6372828,0.637282 0.7546546,0.72261 1.05503,0.766992 0.089285,0.01319 1.3506168,0.02211 2.8029611,0.01981 l 2.640625,-0.0042 0.146714,-0.07227 z"
         id="path819"
         inkscape:connector-curvature="0" />
    </g>
    <g
       id="g3"
       inkscape:label="blender_white"
       style="display:inline"
       transform="translate(5.8026818,-10.168548)">
      <path
         id="path2"
         style="display:inline;fill:#ffffff;fill-opacity:1;stroke:#000000;stroke-width:8.715;stroke-linecap:round;stroke-dasharray:none;stroke-opacity:1;paint-order:normal"
         inkscape:transform-center-y="-24.542689"
         transform="matrix(1.0002399,0,0,0.98170741,-11.342727,3.4738079)"
         d="m 251.87672,745.20391 -55.28327,55.85863 a 10.344289,10.344289 90.672924 0 0 -0.16888,14.37842 l 3.42824,3.63064 a 9.6029132,9.6029132 0.48200034 0 0 13.85233,0.11654 l 20.88111,-21.38157 a 4.07294,4.07294 22.160773 0 1 6.98684,2.8457 v 93.52134 a 13.09707,13.09707 45 0 0 13.09707,13.09707 h 56.02662 a 17.435576,17.435576 135 0 0 17.43558,-17.43558 v -0.0311 a 17.435576,17.435576 45 0 0 -17.43558,-17.43558 h -21.35062 a 13.09707,13.09707 45 0 1 -13.09707,-13.09707 v -58.61905 a 4.0579642,4.0579642 157.91286 0 1 6.96843,-2.82776 l 20.73915,21.34569 a 9.6791443,9.6791443 179.89164 0 0 13.90968,-0.0263 l 3.32476,-3.448 a 10.27005,10.27005 89.720833 0 0 -0.0698,-14.3291 l -55.19913,-56.13991 a 9.8646579,9.8646579 0.09375579 0 0 -14.04544,-0.023 z"
         sodipodi:nodetypes="cccccccccccc"
         inkscape:path-effect="#path-effect6"
         inkscape:original-d="m 258.91109,738.09633 -69.35201,70.07379 17.15922,18.17232 34.85479,-35.69017 v 116.61841 h 86.55927 v -34.90229 h -51.88327 v -81.71612 l 34.67601,35.69017 17.20726,-17.84508 z"
         inkscape:transform-center-x="-1.6314218e-05"
         inkscape:label="arrow" />
    </g>
  </g>
</svg>
