<?xml version="1.0" encoding="UTF-8" standalone="no"?>
<!-- Created with Inkscape (http://www.inkscape.org/) -->

<svg
   version="1.1"
   id="svg2"
   width="1600"
   height="1600"
   viewBox="0 0 1600 1600"
   sodipodi:docname="file_image.svg"
   inkscape:version="1.2.2 (732a01da63, 2022-12-09)"
   xmlns:inkscape="http://www.inkscape.org/namespaces/inkscape"
   xmlns:sodipodi="http://sodipodi.sourceforge.net/DTD/sodipodi-0.dtd"
   xmlns="http://www.w3.org/2000/svg"
   xmlns:svg="http://www.w3.org/2000/svg"
   xmlns:rdf="http://www.w3.org/1999/02/22-rdf-syntax-ns#"
   xmlns:cc="http://creativecommons.org/ns#"
   xmlns:dc="http://purl.org/dc/elements/1.1/">
  <metadata
     id="metadata8">
    <rdf:RDF>
      <cc:Work
         rdf:about="">
        <dc:format>image/svg+xml</dc:format>
        <dc:type
           rdf:resource="http://purl.org/dc/dcmitype/StillImage" />
      </cc:Work>
    </rdf:RDF>
  </metadata>
  <defs
     id="defs6" />
  <sodipodi:namedview
     pagecolor="#808080"
     bordercolor="#666666"
     borderopacity="1"
     objecttolerance="10"
     gridtolerance="10"
     guidetolerance="10"
     inkscape:pageopacity="0"
     inkscape:pageshadow="2"
     inkscape:window-width="1993"
     inkscape:window-height="1009"
     id="namedview4"
     showgrid="false"
     inkscape:zoom="0.5"
     inkscape:cx="3"
     inkscape:cy="8"
     inkscape:window-x="-8"
     inkscape:window-y="-8"
     inkscape:window-maximized="1"
     inkscape:current-layer="FILE_IMAGE"
     inkscape:showpageshadow="0"
     inkscape:pagecheckerboard="true"
     inkscape:deskcolor="#d1d1d1" />
  <g
     id="FILE_IMAGE"
     transform="matrix(100,0,0,100,0,4.9999997e-5)"
     style="stroke-width:0.0114286">
    <path
       style="fill:none;stroke-width:0.000357143"
       d="M 0,8 V 0 h 8 8 v 8 8 H 8 0 Z m 13.269218,7.419944 c 0.04746,-0.03544 0.115289,-0.103261 0.150726,-0.150719 0.06438,-0.08622 0.06444,-0.09066 0.08006,-5.7324444 0.01164,-4.2046472 0.0065,-5.6700906 -0.02022,-5.7399056 -0.02105,-0.055047 -0.691906,-0.7475964 -1.625,-1.6775451 -1.355489,-1.35091915 -1.605235,-1.58657599 -1.698528,-1.60270781 -0.06016,-0.010402 -2.18608,-0.0148817 -4.724275,-0.009955 -4.60534394,0.008939 -4.61507859,0.009091 -4.70119406,0.0733887 -0.0474618,0.035437 -0.11528807,0.10326428 -0.15072503,0.15072728 L 0.515625,0.81707959 0.50672091,7.9163522 c -0.004897,3.9045998 -8.2219e-4,7.1445618 0.009056,7.1999148 0.0223485,0.125235 0.1536701,0.284907 0.27954885,0.339901 0.0784903,0.03429 1.17936484,0.04045 6.24144734,0.03492 l 6.1461489,-0.0067 z"
       id="path839"
       inkscape:connector-curvature="0" />
    <path
       style="fill:#fefefe;stroke-width:0.000357143"
       d="M 1,8 V 1 H 5.25 9.5 V 2.75 4.5 H 11.25 13 V 9.75 15 H 7 1 Z M 12,9.5 V 5 H 10.5 9 V 3.5 2 H 5.5 2 v 6 6 h 5 5 z M 4.1306628,6.3157169 3.2769503,5.8882506 4.0962691,4.8639728 C 4.7554125,4.0399387 4.9230003,3.8477278 4.9535047,3.880785 4.9743587,3.903384 5.2665138,4.381665 5.6027369,4.9436306 L 6.2140522,5.9653866 5.6304634,6.3373941 C 5.30949,6.5419981 5.0328125,6.7170025 5.015625,6.7262922 4.9984375,6.7355822 4.6002044,6.5508231 4.1306628,6.3157169 Z M 11.507813,4.0078197 10,3.9993997 V 2.4920082 0.98461663 L 11.515625,2.5 c 0.833594,0.8334609 1.515625,1.5189534 1.515625,1.5233166 0,0.00436 -0.0035,0.00456 -0.0078,4.281e-4 -0.0043,-0.00413 -0.686329,-0.011294 -1.515625,-0.015925 z"
       id="path837"
       inkscape:connector-curvature="0" />
    <path
       style="fill:#75b6fe;stroke-width:0.000357143"
       d="M 11.003615,7.68718 C 10.464197,6.7420434 10.005462,5.96875 9.9842025,5.96875 9.9629434,5.96875 9.6040634,6.5670437 9.1866916,7.2982916 8.7693194,8.0295397 8.4179006,8.6166491 8.4057606,8.6029791 8.3936203,8.5893094 7.6273206,7.3160156 6.7028722,5.7734375 5.7784237,4.2308594 5.0057584,2.96875 4.9858384,2.96875 c -0.01992,0 -0.694199,0.8226563 -1.4983981,1.828125 C 2.6832417,5.8023438 2.0195772,6.625 2.0126304,6.625 2.0056837,6.625 2,5.584375 2,4.3125 V 2 H 5.5 9 V 2.4233763 2.8467525 L 8.8548928,2.7469162 C 8.3839669,2.4229107 7.6693856,2.4124619 7.1827622,2.7224658 6.7433125,3.0024177 6.5,3.4576859 6.5,4 6.5,4.5518775 6.7601756,5.0235506 7.21875,5.303025 7.7734616,5.6410897 8.6361144,5.5372834 9.0601347,5.0814447 L 9.1358947,5 H 10.567947 12 V 7.203125 C 12,8.4148437 11.9965,9.4061059 11.9922,9.40593 11.9879,9.4057425 11.543045,8.6323166 11.003627,7.68718 Z"
       id="path835"
       inkscape:connector-curvature="0" />
    <path
       style="fill:#fdfe00;stroke-width:0.000357143"
       d="M 7.6876684,4.94977 C 6.97962,4.6924953 6.7728872,3.8193719 7.2961294,3.2961294 7.5014528,3.0908059 7.6872622,3.017164 8,3.017164 c 0.3127378,0 0.4985472,0.073642 0.7038706,0.2789654 C 8.9091941,3.5014528 8.9828359,3.6872622 8.9828359,4 c 0,0.3127378 -0.073642,0.4985472 -0.2789653,0.7038706 C 8.4471069,4.9606341 8.0091959,5.0665994 7.6876684,4.94977 Z"
       id="path833"
       inkscape:connector-curvature="0" />
    <path
       style="fill:#fec100;stroke-width:0.000357143"
       d="M 7.4966697,5.4258009 C 7.168445,5.3099344 6.8765169,5.0745794 6.6971853,4.78125 6.4326172,4.3485006 6.4325238,3.6526738 6.6969666,3.21875 6.7979319,3.0530811 7.0201728,2.8260382 7.1827537,2.7224658 7.6693772,2.4124619 8.3839584,2.4229107 8.8548844,2.7469162 L 9,2.8467525 8.9985094,3.3374388 C 8.9970312,3.8232063 8.996525,3.8267169 8.9478766,3.6876684 8.7010403,2.9821559 7.8191519,2.7731082 7.2961306,3.2961294 7.0908072,3.5014528 7.0171653,3.6872622 7.0171653,4 c 0,0.2186084 0.01356,0.2932819 0.07661,0.421875 0.3979537,0.8116478 1.5557384,0.7432441 1.8541016,-0.1095434 l 0.049141,-0.1404566 0.00149,0.4140625 C 8.9999647,4.9897744 9.0016784,5 9.0679475,5 c 0.067765,0 0.067744,2.187e-4 -0.00781,0.081445 -0.2496872,0.2684237 -0.6277987,0.4172372 -1.0601347,0.4172372 -0.2311206,0 -0.3426025,-0.016142 -0.5033303,-0.072881 z"
       id="path831"
       inkscape:connector-curvature="0" />
    <path
       style="fill:#7f7f7f;stroke-width:0.000357143"
       d="M 2.0000632,9.7423931 2.0001257,7.484375 2.4254086,6.953125 C 2.6593142,6.6609375 2.8781101,6.3872503 2.9116218,6.3449309 l 0.06093,-0.076944 0.9826031,0.4910065 C 4.4955878,7.0290472 4.9667503,7.25 5.0021841,7.25 c 0.035434,0 0.095141,-0.01622 0.1326828,-0.036044 0.053987,-0.028508 0.9463784,-0.5936559 1.258789,-0.7971859 0.063163,-0.04115 0.095652,0.00752 0.8993066,1.3472866 l 0.8337759,1.3899787 -0.809139,1.4151696 -0.8091391,1.41517 -2.2542303,0.008 -2.25423,0.008 6.25e-5,-2.2580181 z"
       id="path829"
       inkscape:connector-curvature="0" />
    <path
       style="fill:#656565;stroke-width:0.000357143"
       d="M 9.5,2.75 V 1 H 9.75 10 V 2.5 4 H 11.5 13 V 4.25 4.5 H 11.25 9.5 Z"
       id="path827"
       inkscape:connector-curvature="0" />
    <path
       style="fill:#3c983c;stroke-width:0.000357143"
       d="M 2,13.25 V 12.5 h 5 5 V 13.25 14 H 7 2 Z M 8.5412953,9.4744241 9.9843284,6.9488481 10.992164,8.7126763 12,10.476504 V 11.238252 12 H 9.5491309 7.0982622 Z"
       id="path825"
       inkscape:connector-curvature="0" />
    <path
       style="fill:#323232;stroke-width:0.000357143"
       d="m 0.79532572,15.456168 c -0.12587875,-0.05499 -0.25720035,-0.214666 -0.27954885,-0.3399 -0.009878,-0.05535 -0.0139532,-3.295316 -0.009056,-7.1999158 l 0.008904,-7.09927261 0.0644309,-0.0862964 c 0.035437,-0.047463 0.10326325,-0.11529031 0.15072503,-0.15072728 0.0861155,-0.0642975 0.0958501,-0.0644495 4.7011941,-0.0733887 2.538195,-0.004927 4.6641191,-4.4719e-4 4.7242751,0.009955 0.09329,0.0161318 0.343039,0.25178866 1.698528,1.60270779 0.933094,0.9299487 1.603952,1.6224985 1.625,1.6775451 0.0267,0.069815 0.03186,1.5352584 0.02022,5.7399056 -0.01561,5.6417803 -0.01567,5.6462223 -0.08006,5.7324443 -0.03544,0.04746 -0.103264,0.115282 -0.150726,0.150719 l -0.0863,0.06443 -6.146149,0.0067 c -5.0620825,0.0055 -6.16295714,-6.3e-4 -6.24144742,-0.03492 z M 13.00764,9.4998791 13.015625,3.9997581 11.515505,2.499879 10.015386,1 H 5.5076928 1 v 7 7 h 5.9998272 5.9998268 z"
       id="path823"
       inkscape:connector-curvature="0" />
    <path
       style="fill:#1e4c1e;stroke-width:0.000357143"
       d="m 2,12.250206 v -0.249795 l 2.2544281,-0.008 2.2544282,-0.008 1.7140353,-3 c 0.9427193,-1.65 1.733004,-3.0041128 1.7561884,-3.0091394 0.026724,-0.00579 0.404575,0.625291 1.032322,1.724181 l 0.990169,1.73332 -0.0086,0.5088634 -0.0086,0.508863 -1,-1.7509374 -1,-1.7509375 -1.4430526,2.52567 L 7.0982622,12 H 9.5491309 12 v 0.25 0.25 H 7 2 Z"
       id="path821"
       inkscape:connector-curvature="0" />
    <path
       style="fill:#000000;stroke-width:0.000357143"
       d="M 7.2841391,7.7494972 C 6.4888416,6.4232341 6.4569666,6.3755237 6.39372,6.4167281 6.0813112,6.6202584 5.1888603,7.185445 5.1348669,7.2139563 5.097325,7.2337803 5.0374716,7.25 5.0018591,7.25 4.9662469,7.25 4.5013478,7.0320312 3.96875,6.765625 3.4361522,6.4992187 2.9897558,6.2819212 2.9767578,6.2827419 2.9637598,6.2835622 2.7421875,6.5502647 2.484375,6.8754134 L 2.015625,7.4665934 2.006915,7.0624178 1.998205,6.6582425 3.4740321,4.8134963 C 4.2857319,3.7988859 4.9660997,2.96875 4.9859553,2.96875 c 0.030609,0 3.3542991,5.4980928 3.4074994,5.6367303 C 8.4105581,8.6500516 8.166405,9.125 8.1263891,9.125 8.116805,9.125 7.7377925,8.5060238 7.2841391,7.7494972 Z M 5.6304634,6.3373941 6.2140522,5.9653866 5.6027369,4.9436306 C 5.2665137,4.381665 4.9743591,3.9033844 4.9535047,3.880785 4.9230003,3.8477278 4.7554125,4.0399388 4.0962691,4.8639728 L 3.2769503,5.8882506 4.1306628,6.3157169 C 4.6002044,6.5508231 4.9984375,6.7355822 5.015625,6.7262922 5.0328125,6.7170025 5.30949,6.5419981 5.6304634,6.3373941 Z"
       id="path819"
       inkscape:connector-curvature="0" />
  </g>
</svg>
