<?xml version="1.0" encoding="UTF-8" standalone="no"?>
<!-- Created with Inkscape (http://www.inkscape.org/) -->

<svg
   version="1.1"
   id="svg2"
   width="1600"
   height="1600"
   viewBox="0 0 1600 1600"
   sodipodi:docname="file_3d.svg"
   inkscape:version="1.2.2 (732a01da63, 2022-12-09)"
   xmlns:inkscape="http://www.inkscape.org/namespaces/inkscape"
   xmlns:sodipodi="http://sodipodi.sourceforge.net/DTD/sodipodi-0.dtd"
   xmlns="http://www.w3.org/2000/svg"
   xmlns:svg="http://www.w3.org/2000/svg"
   xmlns:rdf="http://www.w3.org/1999/02/22-rdf-syntax-ns#"
   xmlns:cc="http://creativecommons.org/ns#"
   xmlns:dc="http://purl.org/dc/elements/1.1/">
  <metadata
     id="metadata8">
    <rdf:RDF>
      <cc:Work
         rdf:about="">
        <dc:format>image/svg+xml</dc:format>
        <dc:type
           rdf:resource="http://purl.org/dc/dcmitype/StillImage" />
      </cc:Work>
    </rdf:RDF>
  </metadata>
  <defs
     id="defs6" />
  <sodipodi:namedview
     pagecolor="#808080"
     bordercolor="#666666"
     borderopacity="1"
     objecttolerance="10"
     gridtolerance="10"
     guidetolerance="10"
     inkscape:pageopacity="0"
     inkscape:pageshadow="2"
     inkscape:window-width="1993"
     inkscape:window-height="1009"
     id="namedview4"
     showgrid="false"
     inkscape:zoom="0.5"
     inkscape:cx="691"
     inkscape:cy="672"
     inkscape:window-x="-8"
     inkscape:window-y="-8"
     inkscape:window-maximized="1"
     inkscape:current-layer="FILE_3D"
     inkscape:showpageshadow="0"
     inkscape:pagecheckerboard="true"
     inkscape:deskcolor="#d1d1d1" />
  <g
     id="FILE_3D"
     transform="matrix(100,0,0,100,0,4.9999997e-5)"
     style="stroke-width:0.0114286">
    <path
       style="fill:none;stroke-width:0.000357143"
       d="M 0,8 V 0 h 8 8 v 8 8 H 8 0 Z m 7.9101334,7.42121 c 0.075208,-0.02615 1.4937729,-0.725302 3.1523666,-1.553678 2.739607,-1.368282 3.030202,-1.52062 3.174882,-1.664366 0.108252,-0.107553 0.180812,-0.215841 0.226562,-0.338119 l 0.06731,-0.179892 V 8 4.3148447 l -0.06758,-0.18086 C 14.414339,4.0019522 14.344736,3.9022088 14.20586,3.7645278 14.021039,3.5812975 13.929806,3.5330659 11,2.0696962 9.3414063,1.2412673 7.9228412,0.54215166 7.8476334,0.51610591 7.6594228,0.45092531 7.357645,0.45626681 7.1533297,0.52839516 7.0604047,0.5612 5.6203125,1.2709883 3.953125,2.1057026 1.1217251,3.5233056 0.91224747,3.6336913 0.77584812,3.7799906 0.68966797,3.8724256 0.60321872,4.0077178 0.56491062,4.1101053 0.5005385,4.2821553 0.5,4.3142969 0.5,7.984375 v 3.70078 l 0.0673059,0.179892 c 0.0459941,0.12293 0.11773315,0.229673 0.2265625,0.33711 0.14362603,0.141787 0.4521634,0.303735 3.1436316,1.650052 1.6414062,0.821059 3.0617187,1.51964 3.15625,1.552404 0.21655,0.07505 0.6243909,0.08335 0.8163834,0.0166 z M 4.4921875,11.820344 2.53125,10.836673 V 8.4946172 c 0,-1.2881306 0.010547,-2.3365466 0.023437,-2.3298135 0.012891,0.00673 0.9058594,0.4523763 1.984375,0.9903175 L 6.5,8.1331962 v 2.3396518 c 0,1.286809 -0.010547,2.337743 -0.023437,2.33541 -0.012891,-0.0023 -0.9058594,-0.446895 -1.9843755,-0.987914 z M 8.53125,10.476539 V 8.1368897 L 10.492188,7.1565184 C 11.570703,6.6173144 12.463672,6.1708406 12.476563,6.1643544 12.489453,6.1578684 12.5,7.2050916 12.5,8.4915175 v 2.3389555 l -1.960937,0.981562 C 9.4605469,12.351894 8.5675781,12.79868 8.5546875,12.804892 8.5417969,12.811105 8.53125,11.763346 8.53125,10.476539 Z M 5.6707912,5.4048972 C 4.6758888,4.9057153 3.8582931,4.49371 3.8539125,4.4893291 3.8417937,4.4772103 7.4798028,2.654563 7.515625,2.6548062 7.5565497,2.6550843 11.191592,4.4750747 11.178123,4.4885434 11.148565,4.5181022 7.5446544,6.3125 7.5148466,6.3125 7.4955187,6.3125 6.6656937,5.9040787 5.6707912,5.4048972 Z"
       id="path823"
       inkscape:connector-curvature="0" />
    <path
       style="fill:#fefefe;stroke-width:0.000357143"
       d="m 7.2317484,14.907633 c -0.087382,-0.0311 -0.2139446,-0.0913 -0.28125,-0.133777 C 6.8831931,14.731382 6.79701,14.686764 6.7589806,14.674705 6.6937444,14.654019 5.0557188,13.835852 4.921875,13.7571 4.8875,13.736875 4.8101563,13.699685 4.75,13.674456 4.6898437,13.649227 4.5914063,13.600178 4.53125,13.565459 4.4710937,13.530739 4.3726563,13.48152 4.3125,13.456084 4.2523437,13.430647 4.1539063,13.381428 4.09375,13.346709 4.0335937,13.311989 3.9351563,13.26277 3.875,13.237334 3.8148438,13.211897 3.7164063,13.162678 3.65625,13.127959 3.5960938,13.093239 3.4976563,13.04402 3.4375,13.018584 3.3773438,12.993147 3.2789063,12.943928 3.21875,12.909209 3.1585938,12.874489 3.0601563,12.82527 3,12.799834 2.9398438,12.774397 2.8414063,12.725178 2.78125,12.690459 2.7210938,12.655739 2.6226563,12.60652 2.5625,12.581084 2.5023438,12.555647 2.4039063,12.506428 2.34375,12.471709 2.2835938,12.436989 2.1851563,12.38777 2.125,12.362334 2.0648438,12.336897 1.9664062,12.287678 1.90625,12.252959 1.8460938,12.218239 1.7476562,12.168782 1.6875,12.143054 1.6273438,12.117326 1.4802913,12.041971 1.3607169,11.975598 1.1891109,11.880344 1.1281326,11.826222 1.0712721,11.718698 L 0.99923541,11.582474 1.0074302,7.95301 1.015625,4.3235459 1.0995005,4.1968087 C 1.1548254,4.1132122 1.2346049,4.0466253 1.3338755,4.0011912 1.4166502,3.9633069 1.5335938,3.9045466 1.59375,3.8706125 1.6539062,3.8366787 1.7523438,3.7881028 1.8125,3.7626662 1.8726562,3.7372297 1.9710938,3.6880109 2.03125,3.6532912 2.0914063,3.6185716 2.1898438,3.5693528 2.25,3.5439162 2.3101563,3.5184797 2.4085938,3.4692609 2.46875,3.4345412 2.5289063,3.3998216 2.6273438,3.3506028 2.6875,3.3251662 2.7476563,3.2997297 2.8460938,3.2505109 2.90625,3.2157912 2.9664063,3.1810716 3.0648438,3.1318528 3.125,3.1064162 3.1851563,3.0809797 3.2835938,3.031761 3.34375,2.9970412 3.4039063,2.9623215 3.5023438,2.9131027 3.5625,2.8876662 3.6226563,2.8622297 3.7210938,2.813011 3.78125,2.7782912 3.8414063,2.7435715 3.9398438,2.6943527 4,2.6689162 4.0601563,2.6434797 4.1585937,2.5951135 4.21875,2.5614358 4.2789063,2.527758 4.7148437,2.3088661 5.1875,2.0750093 5.6601562,1.8411525 6.0960937,1.6223312 6.15625,1.5887397 6.2164063,1.5551483 6.3148437,1.5068527 6.375,1.4814162 6.4351563,1.4559797 6.5335937,1.406761 6.59375,1.3720412 6.6539063,1.3373215 6.7523437,1.2881027 6.8125,1.2626662 6.8726563,1.2372297 6.9710937,1.188011 7.03125,1.1532912 7.4324562,0.92173116 7.6148178,0.92729681 8.0625,1.184765 8.122656,1.219362 8.2210938,1.26848 8.28125,1.2939162 8.341406,1.3193532 8.4398438,1.3685712 8.5,1.4032912 c 0.060156,0.03472 0.1585938,0.083939 0.21875,0.109375 0.060156,0.025437 0.1585938,0.074655 0.21875,0.109375 0.060156,0.03472 0.1585938,0.083939 0.21875,0.109375 0.060156,0.025437 0.1585938,0.074655 0.21875,0.109375 0.060156,0.03472 0.1585938,0.083939 0.21875,0.109375 0.060156,0.025437 0.1585938,0.073732 0.21875,0.1073235 0.060156,0.033591 0.496094,0.2524128 0.96875,0.4862696 0.472656,0.2338568 0.908594,0.4527487 0.96875,0.4864265 0.06016,0.033678 0.158594,0.082044 0.21875,0.1074804 0.06016,0.025437 0.158594,0.074655 0.21875,0.109375 0.06016,0.03472 0.158594,0.083938 0.21875,0.109375 0.06016,0.025437 0.158594,0.074655 0.21875,0.109375 0.06016,0.03472 0.158594,0.083938 0.21875,0.109375 0.06016,0.025437 0.158594,0.074655 0.21875,0.109375 0.06016,0.03472 0.158594,0.084177 0.21875,0.109905 0.293931,0.125711 0.551107,0.2950704 0.640625,0.421875 l 0.09375,0.1327988 0.0082,3.6116453 c 0.0082,3.6074387 0.0081,3.6118027 -0.05708,3.7465087 -0.04822,0.09962 -0.111622,0.162706 -0.242577,0.241396 -0.09751,0.05859 -0.211675,0.117025 -0.253702,0.129848 -0.04203,0.01282 -0.140463,0.06211 -0.21875,0.10953 -0.07829,0.04742 -0.176723,0.09664 -0.21875,0.109375 -0.04203,0.01274 -0.140463,0.06196 -0.21875,0.109375 -0.07829,0.04742 -0.176723,0.09664 -0.21875,0.109375 -0.04203,0.01274 -0.140463,0.06196 -0.21875,0.109375 -0.07829,0.04742 -0.176723,0.09664 -0.21875,0.109375 -0.04203,0.01274 -0.140463,0.06196 -0.21875,0.109375 -0.07829,0.04742 -0.177494,0.09687 -0.220463,0.109899 -0.04297,0.01303 -0.127344,0.05419 -0.1875,0.09148 -0.06016,0.03729 -0.489062,0.254697 -0.953125,0.483129 -0.464062,0.228433 -0.8929687,0.44277 -0.953125,0.476305 -0.060156,0.03354 -0.1585937,0.08179 -0.21875,0.107222 -0.060156,0.02544 -0.1585937,0.07465 -0.21875,0.109375 -0.060156,0.03472 -0.1585937,0.08394 -0.21875,0.109375 -0.060156,0.02544 -0.1585937,0.07465 -0.21875,0.109375 -0.060156,0.03472 -0.1585937,0.08394 -0.21875,0.109375 -0.060156,0.02544 -0.1585937,0.07465 -0.21875,0.109375 -0.060156,0.03472 -0.1585937,0.08451 -0.21875,0.110639 -0.060156,0.02613 -0.1789328,0.08158 -0.2639481,0.123207 -0.1848597,0.09053 -0.3718731,0.09508 -0.5980535,0.01458 z M 6.9350125,7.7793738 C 6.8604934,7.7231638 6.7216566,7.6494178 6.5625,7.5815056 6.5023437,7.5558372 6.4039063,7.5064284 6.34375,7.4717088 6.2835937,7.4369891 6.1851563,7.3877703 6.125,7.3623338 6.0648437,7.3368972 5.9664063,7.2876784 5.90625,7.2529588 5.8460937,7.2182391 5.7476563,7.1690203 5.6875,7.1435838 5.6273437,7.1181472 5.5289063,7.069865 5.46875,7.0362897 5.4085937,7.0027144 5.078125,6.8376347 4.734375,6.6694459 4.390625,6.5012569 4.0601563,6.3331003 4,6.2957644 3.9398438,6.2584284 3.8554688,6.2172228 3.8125,6.2041966 3.7695313,6.1911703 3.6703228,6.1417159 3.5920366,6.0942978 3.5137503,6.0468797 3.4153128,5.9976609 3.3732866,5.9849228 3.3312603,5.9721847 3.2328228,5.9229659 3.1545366,5.8755478 3.0762503,5.8281297 2.9778128,5.7789109 2.9357865,5.7661728 2.8937602,5.7534347 2.7953227,5.7042159 2.7170365,5.6567978 2.6387503,5.6093797 2.5403128,5.5601609 2.4982865,5.5474228 2.4562602,5.5346847 2.3585937,5.4862462 2.28125,5.4397819 2.2039063,5.3933175 2.1160156,5.3461125 2.0859375,5.3348816 2.034097,5.3155247 2.03125,5.4674894 2.03125,8.2539063 v 2.9394447 l 0.06683,0.01748 c 0.059622,0.01559 0.2113777,0.09009 0.387487,0.190235 0.033719,0.01917 0.1105267,0.0555 0.1706829,0.08073 0.060156,0.02523 0.1585938,0.07428 0.21875,0.108997 0.060156,0.03472 0.1585938,0.08394 0.21875,0.109375 0.060156,0.02544 0.1585938,0.07466 0.21875,0.109375 0.060156,0.03472 0.1585938,0.08394 0.21875,0.109375 0.060156,0.02544 0.1585938,0.07373 0.21875,0.107324 0.060156,0.03359 0.4960937,0.252413 0.96875,0.486269 0.4726562,0.233857 0.9085937,0.452749 0.96875,0.486427 0.060156,0.03368 0.1585937,0.08204 0.21875,0.10748 0.060156,0.02544 0.1585937,0.07389 0.21875,0.107674 0.060156,0.03378 0.165625,0.08828 0.234375,0.121092 0.1731956,0.08267 0.3857422,0.188614 0.515625,0.25701 l 0.109375,0.0576 0.00797,-2.910575 0.00798,-2.9105753 z M 8.28125,13.528968 c 0.077344,-0.04646 0.1750103,-0.0949 0.2170366,-0.107641 0.042026,-0.01274 0.1404637,-0.06196 0.21875,-0.109375 0.078286,-0.04742 0.1767237,-0.09664 0.21875,-0.109375 0.042026,-0.01274 0.1404637,-0.06196 0.21875,-0.109375 0.078286,-0.04742 0.1767237,-0.09664 0.21875,-0.109375 0.042026,-0.01274 0.1404637,-0.06196 0.21875,-0.109375 0.078286,-0.04742 0.1767237,-0.09664 0.21875,-0.109375 0.042026,-0.01274 0.1404637,-0.06196 0.2187504,-0.109375 0.07829,-0.04742 0.176723,-0.09664 0.21875,-0.109375 0.04203,-0.01274 0.140463,-0.06196 0.21875,-0.109375 0.07829,-0.04742 0.177494,-0.09654 0.220463,-0.109158 0.04297,-0.01262 0.09517,-0.03657 0.116007,-0.05322 0.05199,-0.04154 1.744879,-0.890887 1.82876,-0.91751 0.03709,-0.01177 0.134999,-0.06298 0.217582,-0.11379 L 13,11.150889 V 8.2439319 5.3369744 l -0.07897,0.019819 c -0.04343,0.010901 -0.145385,0.060072 -0.226563,0.1092691 -0.08118,0.049197 -0.181981,0.099872 -0.224008,0.11261 -0.04203,0.012738 -0.140463,0.061957 -0.21875,0.109375 -0.07829,0.047418 -0.176723,0.096637 -0.21875,0.109375 -0.04203,0.012738 -0.140463,0.061957 -0.21875,0.109375 -0.07829,0.047418 -0.176723,0.096637 -0.21875,0.109375 -0.04203,0.012738 -0.140463,0.061957 -0.21875,0.109375 -0.07829,0.047418 -0.176723,0.096637 -0.21875,0.109375 -0.04203,0.012738 -0.142019,0.063529 -0.222206,0.1128688 -0.08019,0.04934 -0.158302,0.089795 -0.173588,0.089901 -0.01529,9.37e-5 -0.06998,0.023359 -0.121544,0.051674 C 10.410806,6.61557 8.834555,7.4049566 8.7739828,7.4241816 8.7368959,7.4359525 8.6424997,7.4843797 8.5642134,7.5317978 8.4859272,7.5792159 8.3867188,7.6286703 8.34375,7.6416966 8.3007813,7.6547228 8.2128906,7.6986591 8.1484375,7.7393325 L 8.03125,7.8132841 v 2.9205019 c 0,2.768377 0.00285,2.919439 0.054687,2.900082 0.030078,-0.01123 0.1179687,-0.05844 0.195313,-0.1049 z M 7.7104681,6.8159937 c 0.081899,-0.049641 0.1832922,-0.1006784 0.2253185,-0.1134165 0.042026,-0.012738 0.1404637,-0.061957 0.21875,-0.109375 0.078286,-0.047418 0.1767237,-0.096637 0.21875,-0.109375 0.042026,-0.012738 0.1404637,-0.061957 0.21875,-0.109375 0.078286,-0.047418 0.1767237,-0.096637 0.21875,-0.109375 0.042026,-0.012738 0.1404637,-0.061957 0.21875,-0.109375 0.078286,-0.047418 0.1767237,-0.096637 0.21875,-0.109375 0.042026,-0.012738 0.1404637,-0.061957 0.21875,-0.109375 C 9.5453226,5.8895342 9.6445313,5.8400802 9.6875,5.8270534 9.730469,5.8140274 9.8148438,5.7728214 9.875,5.7354854 9.935156,5.6981494 10.265625,5.5299929 10.609375,5.3618039 10.953125,5.1936151 11.283594,5.0285354 11.34375,4.9949601 11.40391,4.9613851 11.502344,4.9131031 11.5625,4.887666 11.62266,4.86223 11.721094,4.813011 11.78125,4.778291 11.841406,4.7435716 11.939844,4.6941628 12,4.6684944 12.157023,4.6014928 12.315678,4.5187516 12.329937,4.4964269 12.336681,4.4858681 12.071844,4.3416544 11.741412,4.1759522 11.410979,4.01025 11.091406,3.8471481 11.03125,3.8135038 10.971094,3.7798594 10.872656,3.7315203 10.8125,3.7060838 10.752344,3.6806472 10.653906,3.6314284 10.59375,3.5967088 10.533594,3.5619891 10.435156,3.5127703 10.375,3.4873338 10.314844,3.4618972 10.216406,3.4126784 10.15625,3.3779588 10.096094,3.3432391 9.9976563,3.2940203 9.9375,3.2685838 9.8773438,3.2431472 9.7789063,3.1939284 9.71875,3.1592088 9.6585938,3.124489 9.5601563,3.0752703 9.5,3.0498338 9.4398438,3.0243973 9.3414063,2.9751785 9.28125,2.9404588 9.2210938,2.905739 9.1226563,2.8565203 9.0625,2.8310838 9.0023438,2.8056473 8.9039063,2.7564285 8.84375,2.7217088 8.7835938,2.686989 8.6851563,2.6377703 8.625,2.6123338 8.5648438,2.5868973 8.4664063,2.5376785 8.40625,2.5029588 8.3460938,2.468239 8.2476563,2.4190203 8.1875,2.3935838 8.1273438,2.3681473 8.0289063,2.3199872 7.96875,2.2865614 7.9085937,2.2531357 7.7836247,2.1887237 7.6910409,2.1434238 l -0.168334,-0.082364 -0.144166,0.065815 C 7.2992497,2.1630727 7.1851563,2.2204534 7.125,2.2543874 7.0648437,2.2883214 6.9664063,2.3368973 6.90625,2.3623338 6.8460937,2.3877703 6.7476563,2.436989 6.6875,2.4717088 6.6273437,2.5064285 6.5289063,2.5556473 6.46875,2.5810838 6.4085937,2.6065203 6.3101563,2.655739 6.25,2.6904588 6.1898437,2.7251785 6.0914063,2.7743973 6.03125,2.7998338 5.9710937,2.8252703 5.8726563,2.874489 5.8125,2.9092088 5.7523437,2.9439285 5.6539063,2.9931473 5.59375,3.0185838 5.5335937,3.0440203 5.4351563,3.093239 5.375,3.1279588 5.3148437,3.1626784 5.2164063,3.2118972 5.15625,3.2373338 5.0960937,3.2627703 4.9976563,3.3111366 4.9375,3.3448144 4.8773437,3.3784919 4.4414062,3.5972291 3.96875,3.8308969 3.4960938,4.0645647 3.08125,4.2710722 3.046875,4.2898028 3.0125,4.3085331 2.9115277,4.3608203 2.8224921,4.4059966 l -0.1618828,0.082138 0.099383,0.049182 c 1.3653239,0.6756703 1.8375933,0.9112818 1.9275077,0.961619 0.060156,0.033678 0.1585937,0.082044 0.21875,0.1074807 0.060156,0.025436 0.1585937,0.074655 0.21875,0.109375 0.060156,0.03472 0.1585937,0.083938 0.21875,0.109375 0.060156,0.025436 0.1585937,0.074655 0.21875,0.109375 0.060156,0.03472 0.1585937,0.083938 0.21875,0.109375 0.060156,0.025436 0.1585937,0.074655 0.21875,0.109375 0.060156,0.03472 0.1585937,0.083938 0.21875,0.109375 0.060156,0.025436 0.1585937,0.074655 0.21875,0.109375 0.060156,0.03472 0.1585937,0.083938 0.21875,0.109375 0.060156,0.025436 0.1585937,0.074655 0.21875,0.109375 0.060156,0.03472 0.1585937,0.084283 0.21875,0.1101403 0.060156,0.025857 0.1724388,0.082632 0.2495166,0.1261659 0.077078,0.043534 0.1577262,0.079153 0.1792181,0.079153 0.021492,0 0.1060844,-0.040615 0.1879834,-0.090257 z"
       id="path821"
       inkscape:connector-curvature="0" />
    <path
       style="fill:#323232;stroke-width:0.000357143"
       d="M 7.09375,15.404613 C 6.9992187,15.371849 5.5789062,14.673268 3.9375,13.852209 1.2460318,12.505892 0.93749447,12.343944 0.79386844,12.202157 0.68503909,12.09472 0.61330003,11.987977 0.56730594,11.865047 L 0.5,11.685155 V 7.984375 C 0.5,4.3142969 0.50053844,4.2821553 0.56491062,4.1101053 0.60321872,4.0077178 0.68966797,3.8724256 0.77584812,3.7799906 0.91224747,3.6336913 1.1217251,3.5233056 3.953125,2.1057026 5.6203125,1.2709883 7.0604047,0.5612 7.1533297,0.52839516 7.357645,0.45626681 7.6594228,0.45092531 7.8476334,0.51610591 7.9228412,0.54215166 9.3414063,1.2412673 11,2.0696962 c 2.929806,1.4633697 3.021039,1.5116013 3.20586,1.6948316 0.138876,0.137681 0.208479,0.2374244 0.257812,0.3694569 l 0.06758,0.18086 V 8 11.685155 l -0.06731,0.179892 c -0.04575,0.122278 -0.11831,0.230566 -0.226562,0.338119 -0.14468,0.143746 -0.435275,0.296084 -3.174882,1.664366 C 9.4039063,14.695908 7.9853412,15.395063 7.9101334,15.42121 7.7181409,15.487959 7.3103,15.479667 7.09375,15.404613 Z m 0.7360519,-0.511558 c 0.085015,-0.04163 0.2037919,-0.09708 0.2639481,-0.123207 0.060156,-0.02613 0.1585938,-0.07592 0.21875,-0.110639 0.060156,-0.03472 0.1585938,-0.08394 0.21875,-0.109375 0.060156,-0.02544 0.1585938,-0.07466 0.21875,-0.109375 0.060156,-0.03472 0.1585938,-0.08394 0.21875,-0.109375 0.060156,-0.02544 0.1585938,-0.07466 0.21875,-0.109375 0.060156,-0.03472 0.1585938,-0.08394 0.21875,-0.109375 0.060156,-0.02544 0.1585938,-0.07369 0.21875,-0.107222 0.060156,-0.03354 0.489062,-0.247872 0.953125,-0.476305 0.464063,-0.228432 0.892969,-0.44584 0.953125,-0.483129 0.06016,-0.03729 0.144531,-0.07845 0.1875,-0.09148 0.04297,-0.01303 0.142177,-0.06248 0.220463,-0.109899 0.07829,-0.04742 0.176724,-0.09664 0.21875,-0.109375 0.04203,-0.01274 0.140464,-0.06196 0.21875,-0.109375 0.07829,-0.04742 0.176724,-0.09664 0.21875,-0.109375 0.04203,-0.01274 0.140464,-0.06196 0.21875,-0.109375 0.07829,-0.04742 0.176724,-0.09664 0.21875,-0.109375 0.04203,-0.01274 0.140464,-0.06196 0.21875,-0.109375 0.07829,-0.04742 0.176724,-0.09671 0.21875,-0.10953 0.04203,-0.01282 0.156193,-0.07126 0.253702,-0.129848 0.130955,-0.07869 0.194353,-0.141779 0.242577,-0.241396 0.06521,-0.134706 0.06528,-0.13907 0.05708,-3.7465087 L 14.015625,4.34912 13.921875,4.2163212 C 13.832355,4.0895166 13.575181,3.9201572 13.28125,3.7944463 13.22109,3.7687183 13.122656,3.7192613 13.0625,3.6845413 13.00234,3.6498213 12.903906,3.6006033 12.84375,3.5751663 12.78359,3.5497293 12.685156,3.5005113 12.625,3.4657913 12.56484,3.4310713 12.466406,3.3818533 12.40625,3.3564163 12.34609,3.3309793 12.247656,3.2817613 12.1875,3.2470413 12.12734,3.2123213 12.028906,3.1631033 11.96875,3.1376663 11.908594,3.1122297 11.810156,3.0638635 11.75,3.0301858 11.689844,2.996508 11.253906,2.7776161 10.78125,2.5437593 10.308594,2.3099025 9.8726563,2.0910812 9.8125,2.0574898 9.7523438,2.0238983 9.6539063,1.9756027 9.59375,1.9501662 9.5335938,1.9247297 9.4351563,1.875511 9.375,1.8407912 9.3148438,1.8060715 9.2164063,1.7568527 9.15625,1.7314162 9.0960938,1.7059797 8.9976563,1.656761 8.9375,1.6220412 8.8773438,1.5873215 8.7789063,1.5381027 8.71875,1.5126662 8.6585938,1.4872297 8.5601563,1.438011 8.5,1.4032912 8.4398438,1.3685715 8.3414063,1.3193527 8.28125,1.2939162 8.2210938,1.2684797 8.1226563,1.2193617 8.0625,1.184765 7.6148178,0.92729681 7.4324562,0.92173116 7.03125,1.1532912 6.9710937,1.188011 6.8726563,1.2372297 6.8125,1.2626662 6.7523437,1.2881027 6.6539063,1.3373215 6.59375,1.3720412 6.5335937,1.406761 6.4351563,1.4559797 6.375,1.4814162 6.3148437,1.5068527 6.2164063,1.5551483 6.15625,1.5887398 6.0960937,1.6223312 5.6601562,1.8411525 5.1875,2.0750093 4.7148437,2.3088661 4.2789063,2.527758 4.21875,2.5614358 4.1585937,2.5951135 4.0601563,2.6434797 4,2.6689162 3.939844,2.6943532 3.8414063,2.7435712 3.78125,2.7782912 3.721094,2.8130112 3.6226563,2.8622292 3.5625,2.8876662 3.502344,2.9131032 3.4039063,2.9623212 3.34375,2.9970412 3.283594,3.0317612 3.1851563,3.0809792 3.125,3.1064162 3.064844,3.1318532 2.9664063,3.1810712 2.90625,3.2157913 2.846094,3.2505113 2.7476563,3.2997293 2.6875,3.3251663 2.627344,3.3506033 2.5289063,3.3998213 2.46875,3.4345413 2.408594,3.4692613 2.3101563,3.5184793 2.25,3.5439163 2.189844,3.5693533 2.0914063,3.6185713 2.03125,3.6532913 1.971094,3.6880113 1.8726562,3.7372293 1.8125,3.7626663 1.752344,3.7881033 1.6539062,3.8366783 1.59375,3.8706125 1.533594,3.9045465 1.4166502,3.9633065 1.3338755,4.0011912 1.2346045,4.0466252 1.1548254,4.1132122 1.0995005,4.1968087 l -0.083875,0.1267372 -0.00819,3.6294641 -0.008195,3.629464 0.0720367,0.136223 c 0.05686,0.107525 0.1178388,0.161647 0.2894448,0.256901 0.1195744,0.06637 0.2666269,0.141728 0.3267831,0.167456 0.060156,0.02573 0.1585938,0.07519 0.21875,0.109905 0.060156,0.03472 0.1585938,0.08394 0.21875,0.109375 0.060156,0.02544 0.1585938,0.07465 0.21875,0.109375 0.060156,0.03472 0.1585938,0.08394 0.21875,0.109375 0.060156,0.02544 0.1585938,0.07465 0.21875,0.109375 0.060156,0.03472 0.1585938,0.08394 0.21875,0.109375 0.060156,0.02544 0.1585938,0.07465 0.21875,0.109375 0.060156,0.03472 0.1585938,0.08394 0.21875,0.109375 0.060156,0.02544 0.1585938,0.07465 0.21875,0.109375 0.060156,0.03472 0.1585938,0.08394 0.21875,0.109375 0.060156,0.02544 0.1585937,0.07465 0.21875,0.109375 0.060156,0.03472 0.1585937,0.08394 0.21875,0.109375 0.060156,0.02544 0.1585937,0.07465 0.21875,0.109375 0.060156,0.03472 0.1585937,0.08377 0.21875,0.108997 0.060156,0.02523 0.1375,0.06242 0.171875,0.08264 0.1338437,0.07875 1.7718694,0.896919 1.8371056,0.917605 0.038029,0.01206 0.1242125,0.05668 0.1915178,0.09915 0.315061,0.198824 0.6296266,0.241466 0.8793035,0.119199 z M 6.875,13.592192 C 6.7451172,13.523796 6.5325706,13.417854 6.359375,13.335183 6.290625,13.302366 6.1851563,13.247875 6.125,13.21409 6.0648437,13.180306 5.9664063,13.131853 5.90625,13.106416 5.8460937,13.08098 5.7476563,13.032613 5.6875,12.998936 5.6273437,12.965258 5.1914062,12.746366 4.71875,12.512509 4.2460937,12.278653 3.8101563,12.059831 3.75,12.02624 3.6898438,11.992648 3.5914063,11.944353 3.53125,11.918916 3.4710938,11.89348 3.3726563,11.844261 3.3125,11.809541 3.2523438,11.774822 3.1539063,11.725603 3.09375,11.700166 3.0335938,11.67473 2.9351563,11.625511 2.875,11.590791 2.8148438,11.556072 2.7164063,11.507023 2.65625,11.481794 2.5960938,11.456565 2.5192864,11.420236 2.4855671,11.401063 2.3094578,11.300923 2.1577025,11.226419 2.0980801,11.210828 L 2.03125,11.193351 V 8.2539063 c 0,-2.7864169 0.00285,-2.9383816 0.054687,-2.9190247 0.030078,0.011231 0.1179688,0.058436 0.1953125,0.1049003 0.077344,0.046464 0.1750102,0.094903 0.2170365,0.1076409 0.042026,0.012738 0.1404638,0.061957 0.21875,0.109375 0.078286,0.047418 0.1767237,0.096637 0.21875,0.109375 0.042026,0.012738 0.1404638,0.061957 0.2187501,0.109375 0.078286,0.047418 0.1767237,0.096637 0.21875,0.109375 0.042026,0.012738 0.1404637,0.061957 0.21875,0.109375 0.078286,0.047418 0.1774946,0.096872 0.2204634,0.1098988 0.042969,0.013026 0.1273437,0.054232 0.1875,0.091568 0.060156,0.037336 0.390625,0.2054925 0.734375,0.3736815 0.34375,0.1681888 0.6742187,0.3332685 0.734375,0.3668438 0.060156,0.033575 0.1585937,0.081857 0.21875,0.1072941 0.060156,0.025436 0.1585937,0.074655 0.21875,0.109375 0.060156,0.03472 0.1585937,0.083938 0.21875,0.109375 0.060156,0.025436 0.1585937,0.074655 0.21875,0.109375 0.060156,0.03472 0.1585937,0.084128 0.21875,0.1097968 0.1591566,0.067912 0.2979934,0.1416582 0.3725125,0.1978682 l 0.065312,0.049265 -0.00798,2.910575 -0.00797,2.910575 z M 6.5,10.472848 V 8.1331962 L 4.5390625,7.1551212 C 3.4605469,6.61718 2.5675781,6.1715372 2.5546875,6.1648037 2.5417969,6.1580706 2.53125,7.2064866 2.53125,8.4946172 v 2.3420558 l 1.9609375,0.983671 c 1.0785156,0.541019 1.9714844,0.985581 1.984375,0.987914 C 6.4894531,12.810592 6.5,11.759657 6.5,10.472848 Z m 1.53125,0.260938 V 7.8132841 L 8.1484375,7.7393325 C 8.2128906,7.6986591 8.3007813,7.6547228 8.34375,7.6416966 8.3867188,7.6286703 8.4859272,7.5792159 8.5642134,7.5317978 8.6424997,7.4843797 8.7368959,7.4359525 8.7739828,7.4241816 8.834555,7.4049566 10.410806,6.61557 10.640625,6.4893669 c 0.05156,-0.028315 0.106257,-0.051569 0.121544,-0.051674 0.01529,-9.38e-5 0.0934,-0.040561 0.173588,-0.089901 0.08019,-0.04934 0.18018,-0.1001307 0.222206,-0.1128688 0.04203,-0.012738 0.140464,-0.061957 0.21875,-0.109375 0.07829,-0.047418 0.176724,-0.096637 0.21875,-0.109375 0.04203,-0.012738 0.140464,-0.061957 0.21875,-0.109375 0.07829,-0.047418 0.176724,-0.096637 0.21875,-0.109375 0.04203,-0.012738 0.140464,-0.061957 0.21875,-0.109375 0.07829,-0.047418 0.176724,-0.096637 0.21875,-0.109375 0.04203,-0.012738 0.14283,-0.063413 0.224008,-0.11261 0.08118,-0.049198 0.183131,-0.098368 0.226563,-0.1092691 L 13,5.3369744 v 2.9069575 2.9069571 l -0.150151,0.09239 c -0.08258,0.05081 -0.180495,0.102019 -0.217582,0.11379 -0.08388,0.02662 -1.776772,0.875966 -1.82876,0.91751 -0.02083,0.01665 -0.07304,0.0406 -0.116007,0.05322 -0.04297,0.01262 -0.142177,0.06174 -0.220463,0.109158 -0.07829,0.04742 -0.176724,0.09664 -0.21875,0.109375 -0.04203,0.01274 -0.140464,0.06196 -0.21875,0.109375 -0.078287,0.04742 -0.1767242,0.09664 -0.2187504,0.109375 -0.042026,0.01274 -0.1404638,0.06196 -0.21875,0.109375 -0.078286,0.04742 -0.1767238,0.09664 -0.21875,0.109375 -0.042026,0.01274 -0.1404638,0.06196 -0.21875,0.109375 -0.078286,0.04742 -0.1767238,0.09664 -0.21875,0.109375 -0.042026,0.01274 -0.1404638,0.06196 -0.21875,0.109375 -0.078286,0.04742 -0.1767238,0.09664 -0.21875,0.109375 -0.042026,0.01274 -0.1396928,0.06118 -0.2170366,0.107641 -0.077344,0.04646 -0.1652344,0.09367 -0.1953125,0.1049 C 8.0340988,13.653225 8.03125,13.502162 8.03125,10.733786 Z M 10.539063,11.812035 12.5,10.830473 V 8.4915175 c 0,-1.2864259 -0.01055,-2.3336491 -0.02344,-2.3271631 -0.01289,0.00649 -0.90586,0.45296 -1.984375,0.992164 L 8.53125,8.1368897 v 2.3396493 c 0,1.286807 0.010547,2.334566 0.023437,2.328353 0.012891,-0.0062 0.9058594,-0.452998 1.984376,-0.992857 z M 7.3432666,6.8270975 C 7.2661888,6.7835634 7.1539063,6.7267887 7.09375,6.7009316 7.0335937,6.6750741 6.9351563,6.6255109 6.875,6.5907912 6.8148437,6.5560716 6.7164063,6.5068528 6.65625,6.4814162 6.5960937,6.4559797 6.4976563,6.4067609 6.4375,6.3720412 6.3773437,6.3373216 6.2789063,6.2881028 6.21875,6.2626662 6.1585937,6.2372297 6.0601563,6.1880109 6,6.1532912 5.9398437,6.1185716 5.8414063,6.0693528 5.78125,6.0439162 5.7210937,6.0184797 5.6226563,5.9692609 5.5625,5.9345412 5.5023437,5.8998216 5.4039063,5.8506028 5.34375,5.8251662 5.2835937,5.7997297 5.1851563,5.7505109 5.125,5.7157912 5.0648437,5.6810716 4.9664063,5.6318528 4.90625,5.6064162 4.8460937,5.5809797 4.7476563,5.5326134 4.6875,5.4989356 4.5975856,5.4485984 4.1253162,5.2129869 2.7599921,4.5373172 L 2.6606093,4.488135 2.8224921,4.4059966 C 2.9115277,4.3608203 3.0125,4.3085331 3.046875,4.2898028 3.08125,4.2710722 3.4960938,4.0645647 3.96875,3.8308969 4.4414062,3.5972291 4.8773437,3.3784919 4.9375,3.3448144 4.9976563,3.3111366 5.0960937,3.2627703 5.15625,3.2373337 5.2164063,3.2118972 5.3148437,3.1626784 5.375,3.1279587 5.4351563,3.093239 5.5335937,3.0440203 5.59375,3.0185838 5.6539063,2.9931473 5.7523437,2.9439285 5.8125,2.9092088 5.8726563,2.874489 5.9710937,2.8252703 6.03125,2.7998338 6.0914063,2.7743973 6.1898437,2.7251785 6.25,2.6904588 6.3101563,2.655739 6.4085937,2.6065203 6.46875,2.5810838 6.5289063,2.5556473 6.6273437,2.5064285 6.6875,2.4717088 6.7476563,2.436989 6.8460937,2.3877703 6.90625,2.3623338 6.9664063,2.3368973 7.0648437,2.2883214 7.125,2.2543874 7.1851563,2.2204534 7.2992497,2.1630727 7.3785409,2.1268747 l 0.144166,-0.065815 0.168334,0.082364 c 0.092584,0.0453 0.2175529,0.109712 0.2777091,0.1431377 0.060156,0.033426 0.1585938,0.081586 0.21875,0.1070224 0.060156,0.025437 0.1585938,0.074655 0.21875,0.109375 0.060156,0.03472 0.1585938,0.083938 0.21875,0.109375 0.060156,0.025437 0.1585938,0.074655 0.21875,0.109375 0.060156,0.03472 0.1585938,0.083938 0.21875,0.109375 0.060156,0.025437 0.1585938,0.074655 0.21875,0.109375 0.060156,0.03472 0.1585938,0.083938 0.21875,0.109375 0.060156,0.025437 0.1585938,0.074655 0.21875,0.1093749 0.060156,0.03472 0.1585938,0.083938 0.21875,0.109375 0.060156,0.025437 0.158594,0.074655 0.21875,0.109375 0.06016,0.03472 0.158594,0.083938 0.21875,0.109375 0.06016,0.025437 0.158594,0.074655 0.21875,0.109375 0.06016,0.03472 0.158594,0.083938 0.21875,0.109375 0.06016,0.025437 0.158594,0.073776 0.21875,0.10742 0.06016,0.033644 0.379729,0.1967463 0.710162,0.3624485 0.330432,0.1657022 0.595269,0.3099159 0.588525,0.3204747 C 12.315678,4.5187516 12.157023,4.6014928 12,4.6684944 c -0.06016,0.025668 -0.158594,0.075077 -0.21875,0.1097968 -0.06016,0.03472 -0.158594,0.083939 -0.21875,0.109375 -0.06016,0.025437 -0.158594,0.073719 -0.21875,0.1072941 -0.06016,0.033575 -0.390625,0.198655 -0.734375,0.3668438 -0.34375,0.168189 -0.6742187,0.3363456 -0.734375,0.3736815 -0.060156,0.037336 -0.1445312,0.078542 -0.1875,0.091568 -0.042969,0.013026 -0.1421772,0.062481 -0.2204634,0.1098988 -0.078286,0.047418 -0.1767238,0.096637 -0.21875,0.109375 -0.042026,0.012738 -0.1404638,0.061957 -0.21875,0.109375 -0.078286,0.047418 -0.1767238,0.096637 -0.21875,0.109375 -0.042026,0.012738 -0.1404638,0.061957 -0.21875,0.109375 -0.078286,0.047418 -0.1767238,0.096637 -0.21875,0.109375 -0.042026,0.012738 -0.1404638,0.061957 -0.21875,0.109375 -0.078286,0.047418 -0.1767238,0.096637 -0.21875,0.109375 -0.042026,0.012738 -0.1434197,0.063776 -0.2253185,0.1134165 -0.081899,0.049641 -0.1664915,0.090256 -0.1879834,0.090256 -0.021492,0 -0.10214,-0.035619 -0.1792181,-0.079152 z m 2.01563,-1.4214166 C 10.353796,4.9069306 11.172448,4.4942184 11.178123,4.4885434 11.191592,4.4750747 7.5565497,2.655084 7.515625,2.6548062 7.4798028,2.654563 3.8417937,4.4772103 3.8539125,4.4893291 3.8819513,4.5173678 7.4865834,6.3125 7.5148466,6.3125 c 0.019328,0 0.8491506,-0.4080684 1.84405,-0.9068191 z"
       id="path819"
       inkscape:connector-curvature="0" />
  </g>
</svg>
