<?xml version="1.0" encoding="UTF-8" standalone="no"?>
<!-- Created with Inkscape (http://www.inkscape.org/) -->

<svg
   version="1.1"
   id="svg2"
   width="1600"
   height="1600"
   viewBox="0 0 1600 1600"
   sodipodi:docname="filebrowser.svg"
   inkscape:version="1.2.2 (732a01da63, 2022-12-09)"
   xmlns:inkscape="http://www.inkscape.org/namespaces/inkscape"
   xmlns:sodipodi="http://sodipodi.sourceforge.net/DTD/sodipodi-0.dtd"
   xmlns="http://www.w3.org/2000/svg"
   xmlns:svg="http://www.w3.org/2000/svg"
   xmlns:rdf="http://www.w3.org/1999/02/22-rdf-syntax-ns#"
   xmlns:cc="http://creativecommons.org/ns#"
   xmlns:dc="http://purl.org/dc/elements/1.1/">
  <metadata
     id="metadata8">
    <rdf:RDF>
      <cc:Work
         rdf:about="">
        <dc:format>image/svg+xml</dc:format>
        <dc:type
           rdf:resource="http://purl.org/dc/dcmitype/StillImage" />
      </cc:Work>
    </rdf:RDF>
  </metadata>
  <defs
     id="defs6" />
  <sodipodi:namedview
     pagecolor="#808080"
     bordercolor="#666666"
     borderopacity="1"
     objecttolerance="10"
     gridtolerance="10"
     guidetolerance="10"
     inkscape:pageopacity="0"
     inkscape:pageshadow="2"
     inkscape:window-width="2560"
     inkscape:window-height="1009"
     id="namedview4"
     showgrid="false"
     fit-margin-top="0"
     fit-margin-left="0"
     fit-margin-right="0"
     fit-margin-bottom="0"
     inkscape:zoom="0.5"
     inkscape:cx="882"
     inkscape:cy="440"
     inkscape:window-x="-8"
     inkscape:window-y="-8"
     inkscape:window-maximized="1"
     inkscape:current-layer="FILEBROWSER"
     inkscape:showpageshadow="0"
     inkscape:pagecheckerboard="true"
     inkscape:deskcolor="#d1d1d1" />
  <g
     id="FILEBROWSER"
     transform="scale(99.999988)"
     style="stroke-width:0.01">
    <path
       style="fill:none;stroke-width:0.0003125"
       d="M 0,8.0000009 V 0 H 8.0000009 16.000002 V 8.0000009 16.000002 H 8.0000009 0 Z m 14.992646,1.8828126 -0.0083,-5.1171879 -0.07738,-0.1562502 C 14.812862,4.4192908 14.621525,4.2224445 14.453126,4.1424359 14.163268,4.0047194 14.103251,4.0022521 11.015443,4.0010983 l -2.9376832,-0.0011 -0.9996339,-1.0000001 -0.9996338,-1 H 4.5159919 2.9534917 L 1.9767458,2.9763767 1.0000001,3.9527532 v 5.5236244 5.5236244 h 7.0004572 7.0004577 z"
       id="path827"
       inkscape:connector-curvature="0" />
    <path
       style="fill:#ffe680;stroke-width:0.0003125"
       d="M 1.5312502,7.5000007 V 7.0000008 H 8.0156258 14.500001 V 7.5000007 8.0000009 H 8.0156258 1.5312502 Z M 2.4375003,3.2343753 3.202647,2.4687503 H 4.5156254 5.828604 l 0.7651466,0.765625 0.7651467,0.765625 H 4.5156254 1.6723536 Z"
       id="path825"
       inkscape:connector-curvature="0" />
    <path
       style="fill:#f8e242;stroke-width:0.0003125"
       d="M 1.5312502,10.500001 V 8.0000009 h 6.4843756 6.4843752 v 2.5000001 2.500001 H 8.0156258 1.5312502 Z m 0,-5.1976782 V 4.135895 l 0.072327,-0.067947 0.072327,-0.067947 h 2.8473471 2.8473468 l 0.2090013,0.2325993 c 0.1149507,0.1279293 0.2516338,0.2474605 0.3037401,0.2656249 0.063999,0.02231 1.0691544,0.033083 3.0978885,0.0332 2.083581,1.172e-4 3.040976,0.010676 3.126683,0.034471 0.157969,0.043857 0.313589,0.1994769 0.357446,0.357446 0.02024,0.072914 0.03437,0.4148529 0.03447,0.8344712 l 1.76e-4,0.7109377 H 8.0156258 1.5312502 Z"
       id="path823"
       inkscape:connector-curvature="0" />
    <path
       style="fill:#b1831d;stroke-width:0.0003125"
       d="m 1.5312502,13.750001 v -0.749999 h 6.4843756 6.4843752 v 0.749999 0.75 H 8.0156258 1.5312502 Z m 0,-7.0156253 V 6.4687508 H 8.0156258 14.500001 V 6.7343757 7.0000008 H 8.0156258 1.5312502 Z"
       id="path821"
       inkscape:connector-curvature="0" />
    <path
       style="fill:#4c380c;stroke-width:0.0003125"
       d="M 1.0000001,9.4763776 V 3.9527532 L 1.9767458,2.9763767 2.9534917,2.0000002 h 1.5625002 1.5625002 l 0.9996338,1 0.9996339,1.0000001 2.9376832,0.0011 c 3.087808,0.00115 3.147825,0.00362 3.437683,0.1413375 0.168399,0.080009 0.359736,0.2768552 0.453871,0.4669398 l 0.07738,0.15625 0.0083,5.1171882 0.0083,5.1171892 H 8.0004573 1.0000001 Z M 14.499827,9.7734386 C 14.49971,6.4388387 14.489552,5.0104951 14.465356,4.9233419 14.421499,4.7653728 14.265879,4.6097533 14.10791,4.5658959 14.022199,4.5420998 13.064087,4.5315459 10.978598,4.5314249 9.233285,4.531337 7.9412281,4.5192394 7.8974846,4.5026082 7.8560507,4.486855 7.3746897,4.0227924 6.8277946,3.4713583 L 5.8334392,2.4687503 H 4.5180652 3.2026913 L 2.3669707,3.3049011 1.5312502,4.1410516 v 5.1794751 5.1794743 h 6.4843756 6.4843752 z"
       id="path819"
       inkscape:connector-curvature="0" />
  </g>
</svg>
