<?xml version="1.0" encoding="UTF-8" standalone="no"?>
<!-- Created with Inkscape (http://www.inkscape.org/) -->

<svg
   version="1.1"
   id="svg2"
   width="1600"
   height="1600"
   viewBox="0 0 1600 1600"
   sodipodi:docname="file_font.svg"
   inkscape:version="1.2.2 (732a01da63, 2022-12-09)"
   xmlns:inkscape="http://www.inkscape.org/namespaces/inkscape"
   xmlns:sodipodi="http://sodipodi.sourceforge.net/DTD/sodipodi-0.dtd"
   xmlns="http://www.w3.org/2000/svg"
   xmlns:svg="http://www.w3.org/2000/svg"
   xmlns:rdf="http://www.w3.org/1999/02/22-rdf-syntax-ns#"
   xmlns:cc="http://creativecommons.org/ns#"
   xmlns:dc="http://purl.org/dc/elements/1.1/">
  <metadata
     id="metadata8">
    <rdf:RDF>
      <cc:Work
         rdf:about="">
        <dc:format>image/svg+xml</dc:format>
        <dc:type
           rdf:resource="http://purl.org/dc/dcmitype/StillImage" />
      </cc:Work>
    </rdf:RDF>
  </metadata>
  <defs
     id="defs6" />
  <sodipodi:namedview
     pagecolor="#808080"
     bordercolor="#666666"
     borderopacity="1"
     objecttolerance="10"
     gridtolerance="10"
     guidetolerance="10"
     inkscape:pageopacity="0"
     inkscape:pageshadow="2"
     inkscape:window-width="1993"
     inkscape:window-height="1009"
     id="namedview4"
     showgrid="false"
     inkscape:zoom="0.5"
     inkscape:cx="559"
     inkscape:cy="582"
     inkscape:window-x="-8"
     inkscape:window-y="-8"
     inkscape:window-maximized="1"
     inkscape:current-layer="FILE_FONT"
     inkscape:showpageshadow="0"
     inkscape:pagecheckerboard="true"
     inkscape:deskcolor="#d1d1d1" />
  <g
     id="FILE_FONT"
     transform="matrix(100,0,0,100,0,4.9999997e-5)"
     style="stroke-width:0.0114286">
    <path
       style="fill:none;stroke-width:0.000357143"
       d="M 0,8 V 0 h 8 8 v 8 8 H 8 0 Z m 13.269218,7.419944 c 0.04746,-0.03544 0.115289,-0.103261 0.150726,-0.150719 0.06438,-0.08622 0.06444,-0.09066 0.08006,-5.7324444 0.01164,-4.2046472 0.0065,-5.6700906 -0.02022,-5.7399056 -0.02105,-0.055047 -0.691906,-0.7475964 -1.625,-1.6775451 -1.355489,-1.35091915 -1.605235,-1.58657599 -1.698528,-1.60270781 -0.06016,-0.010402 -2.18608,-0.0148817 -4.724275,-0.009955 -4.60534394,0.008939 -4.61507859,0.009091 -4.70119406,0.0733887 -0.0474618,0.035437 -0.11528807,0.10326428 -0.15072503,0.15072728 L 0.515625,0.81707959 0.50672091,7.9163522 c -0.004897,3.9045998 -8.2219e-4,7.1445618 0.009056,7.1999148 0.0223485,0.125235 0.1536701,0.284907 0.27954885,0.339901 0.0784903,0.03429 1.17936484,0.04045 6.24144734,0.03492 l 6.1461489,-0.0067 z"
       id="path827"
       inkscape:connector-curvature="0" />
    <path
       style="fill:#fefefe;stroke-width:0.000357143"
       d="M 1,8 V 1 H 5.25 9.5 V 2.75 4.5 H 11.25 13 V 9.75 15 H 7 1 Z m 9.121455,5.002335 c 0.211102,-0.07232 0.493425,-0.236822 0.636032,-0.370595 0.04709,-0.04417 0.09091,-0.0743 0.09738,-0.06696 0.0065,0.0073 0.03866,0.104753 0.07153,0.216472 l 0.05977,0.203125 0.550657,0.0085 0.550657,0.0085 -0.104296,-0.242896 C 11.830618,12.403213 11.810692,12.173252 11.819972,10.875 11.828936,9.6209444 11.815739,9.5026891 11.63824,9.2465584 11.532784,9.0943859 11.233574,8.8913063 11.020289,8.8271434 10.492028,8.6682253 9.6674856,8.6893778 9.1786069,8.8743894 8.8492788,8.9990203 8.5414031,9.3538994 8.3897791,9.7836475 c -0.025683,0.072793 -0.041624,0.1374247 -0.035424,0.1436247 0.0062,0.0062 0.1856469,0.038992 0.398771,0.072872 0.213124,0.03388 0.4325862,0.06932 0.4876934,0.07876 0.095654,0.01638 0.1032778,0.01 0.1682209,-0.1409649 0.1243204,-0.28899 0.3386232,-0.39563 0.7357556,-0.3661222 0.229858,0.017079 0.364204,0.066575 0.453757,0.1671722 0.07243,0.081361 0.127008,0.2857379 0.114857,0.4300929 -0.0099,0.117527 -0.0168,0.124415 -0.18035,0.179824 -0.09353,0.03169 -0.406817,0.107361 -0.6961802,0.16816 -0.8301578,0.174428 -1.1196615,0.291817 -1.3508953,0.547765 -0.3348728,0.370664 -0.3927478,1.013577 -0.1288716,1.431584 0.173756,0.275247 0.4972832,0.49466 0.8337719,0.565455 0.228296,0.04803 0.7057475,0.01749 0.9305692,-0.05954 z M 9.6069188,12.255223 C 9.2048106,12.066337 9.1730281,11.5079 9.5540722,11.32668 9.6188642,11.29587 9.9092909,11.211243 10.199466,11.138629 l 0.527591,-0.132026 -0.01506,0.363886 c -0.01191,0.287671 -0.02885,0.39088 -0.08091,0.492768 -0.177734,0.34788 -0.695872,0.546181 -1.0241682,0.391966 z m -5.9467801,0.09634 0.2336966,-0.648438 1.1417488,-0.0082 1.1417487,-0.0082 0.2444009,0.65663 L 6.6661347,13 h 0.619284 0.6192844 L 7.8739751,12.91918 C 7.8207106,12.779083 5.8097419,7.6501353 5.7277697,7.4453125 L 5.6496038,7.25 5.0201144,7.2505719 4.390625,7.2511438 3.328125,10.02093 C 2.74375,11.544313 2.248783,12.837805 2.2281984,12.895358 L 2.1907718,13 h 0.6178351 0.6178353 z m 0.7107557,-1.96875 C 4.8772262,8.9639797 5.0166884,8.60021 5.0354556,8.6493872 5.0914216,8.7960384 5.6428744,10.26557 5.7211172,10.476563 l 0.089811,0.242187 H 5.0309688 4.25101 Z M 11.507813,4.0078197 10,3.9993997 V 2.4920082 0.98461663 L 11.515625,2.5 c 0.833594,0.8334609 1.515625,1.5189534 1.515625,1.5233166 0,0.00436 -0.0035,0.00456 -0.0078,4.281e-4 -0.0043,-0.00413 -0.686329,-0.011294 -1.515625,-0.015925 z"
       id="path825"
       inkscape:connector-curvature="0" />
    <path
       style="fill:#0065fe;stroke-width:0.000357143"
       d="M 9.1908853,13.061872 C 8.8543966,12.991077 8.5308694,12.771664 8.3571134,12.496417 8.0932372,12.07841 8.1511122,11.435497 8.485985,11.064833 c 0.2312338,-0.255948 0.5207375,-0.373337 1.3508953,-0.547765 0.2893637,-0.0608 0.6026457,-0.136471 0.6961807,-0.16816 0.16355,-0.05541 0.170458,-0.0623 0.18035,-0.179824 0.01215,-0.144355 -0.04243,-0.3487353 -0.114857,-0.4300959 C 10.509001,9.6383906 10.374655,9.588895 10.144797,9.5718159 9.7476641,9.5423081 9.5333613,9.6489481 9.4090409,9.9379381 9.3440978,10.088903 9.3364744,10.095291 9.24082,10.078906 9.185713,10.069506 8.9662506,10.034026 8.7531266,10.000146 8.5400025,9.966266 8.3605556,9.933474 8.3543556,9.927274 8.3481556,9.921074 8.3640956,9.856443 8.3897796,9.7836493 8.5414036,9.3539012 8.8492793,8.9990221 9.1786074,8.8743912 9.6674861,8.6893796 10.492029,8.6682271 11.02029,8.8271452 c 0.213285,0.064163 0.512495,0.2672425 0.617951,0.419415 0.177498,0.2561307 0.190696,0.374386 0.181732,1.6284418 -0.0093,1.298252 0.01065,1.528213 0.16321,1.883521 l 0.104296,0.242896 -0.550657,-0.0085 -0.550657,-0.0085 -0.05977,-0.203125 c -0.03287,-0.111719 -0.06506,-0.209131 -0.07153,-0.216472 -0.0065,-0.0073 -0.05029,0.02279 -0.09738,0.06696 -0.142607,0.133773 -0.42493,0.298273 -0.636032,0.370595 -0.2248227,0.07702 -0.7022743,0.107569 -0.9305702,0.05954 z m 1.0480487,-0.837476 c 0.359149,-0.183224 0.452256,-0.351289 0.473061,-0.853907 l 0.01506,-0.363886 -0.527591,0.132026 c -0.2901751,0.07261 -0.5806022,0.157237 -0.6453938,0.188051 -0.3810441,0.18122 -0.3492616,0.739657 0.052847,0.928543 0.1622003,0.07619 0.4497288,0.06217 0.6320148,-0.03083 z M 2.2281984,12.895358 C 2.248783,12.837805 2.74375,11.544313 3.328125,10.02093 l 1.0625,-2.7697859 0.6294894,-5.719e-4 0.6294894,-5.719e-4 0.078166,0.1953125 c 0.081972,0.2048228 2.0929409,5.3337702 2.1462059,5.4738682 L 7.9047031,13 H 7.2854187 6.6661347 L 6.4217337,12.34337 6.1773328,11.68674 5.0355841,11.69494 3.8938353,11.70314 3.6601387,12.351563 3.4264422,13 H 2.8086069 2.1907717 Z M 5.7211172,10.476563 C 5.6428744,10.26557 5.0914216,8.7960384 5.0354556,8.6493872 5.0166884,8.60021 4.8772262,8.9639797 4.3708944,10.382813 L 4.25101,10.71875 h 0.7799587 0.7799591 z"
       id="path823"
       inkscape:connector-curvature="0" />
    <path
       style="fill:#656565;stroke-width:0.000357143"
       d="M 9.5,2.75 V 1 H 9.75 10 V 2.5 4 H 11.5 13 V 4.25 4.5 H 11.25 9.5 Z"
       id="path821"
       inkscape:connector-curvature="0" />
    <path
       style="fill:#323232;stroke-width:0.000357143"
       d="m 0.79532572,15.456168 c -0.12587875,-0.05499 -0.25720035,-0.214666 -0.27954885,-0.3399 -0.009878,-0.05535 -0.0139532,-3.295316 -0.009056,-7.1999158 l 0.008904,-7.09927261 0.0644309,-0.0862964 c 0.035437,-0.047463 0.10326325,-0.11529031 0.15072503,-0.15072728 0.0861155,-0.0642975 0.0958501,-0.0644495 4.7011941,-0.0733887 2.538195,-0.004927 4.6641191,-4.4719e-4 4.7242751,0.009955 0.09329,0.0161318 0.343039,0.25178866 1.698528,1.60270779 0.933094,0.9299487 1.603952,1.6224985 1.625,1.6775451 0.0267,0.069815 0.03186,1.5352584 0.02022,5.7399056 -0.01561,5.6417803 -0.01567,5.6462223 -0.08006,5.7324443 -0.03544,0.04746 -0.103264,0.115282 -0.150726,0.150719 l -0.0863,0.06443 -6.146149,0.0067 c -5.0620825,0.0055 -6.16295714,-6.3e-4 -6.24144742,-0.03492 z M 13.00764,9.4998791 13.015625,3.9997581 11.515505,2.499879 10.015386,1 H 5.5076928 1 v 7 7 h 5.9998272 5.9998268 z"
       id="path819"
       inkscape:connector-curvature="0" />
  </g>
</svg>
