<?xml version="1.0" encoding="UTF-8" standalone="no"?>
<!-- Created with Inkscape (http://www.inkscape.org/) -->

<svg
   version="1.1"
   id="svg2331"
   width="1600"
   height="1600"
   viewBox="0 0 1600 1600"
   sodipodi:docname="FILE_FOLDER_LARGE.svg"
   inkscape:version="1.2.2 (732a01da63, 2022-12-09)"
   xmlns:inkscape="http://www.inkscape.org/namespaces/inkscape"
   xmlns:sodipodi="http://sodipodi.sourceforge.net/DTD/sodipodi-0.dtd"
   xmlns="http://www.w3.org/2000/svg"
   xmlns:svg="http://www.w3.org/2000/svg">
  <defs
     id="defs2335" />
  <sodipodi:namedview
     id="namedview2333"
     pagecolor="#ffffff"
     bordercolor="#000000"
     borderopacity="0.25"
     inkscape:showpageshadow="2"
     inkscape:pageopacity="0.0"
     inkscape:pagecheckerboard="true"
     inkscape:deskcolor="#d1d1d1"
     showgrid="false"
     inkscape:zoom="0.5"
     inkscape:cx="739"
     inkscape:cy="968"
     inkscape:window-width="2560"
     inkscape:window-height="1377"
     inkscape:window-x="-8"
     inkscape:window-y="-8"
     inkscape:window-maximized="1"
     inkscape:current-layer="g2337" />
  <g
     inkscape:groupmode="layer"
     inkscape:label="Image"
     id="g2337"
     transform="translate(0,3168)">
    <g
       id="FILE_FOLDER_LARGE"
       transform="matrix(100,0,0,100,0,-3168)">
      <path
         style="fill:#ffffff;stroke-width:0.03125;fill-opacity:0"
         d="M 0,8 V 0 h 8 8 v 8 8 H 8 0 Z m 14.992644,1.8828125 -0.0083,-5.1171875 -0.07738,-0.15625 C 14.81286,4.4192903 14.621524,4.2224441 14.453125,4.1424353 14.163266,4.0047191 14.10325,4.0022516 11.015442,4.0010978 L 8.0777587,4 7.078125,3 6.0784912,2 h -1.5625 -1.5624999 L 1.9767456,2.9763765 1,3.9527528 V 9.4763766 15 h 7.0004566 7.0004564 z"
         id="path2833" />
      <path
         style="fill:#fefefe;stroke-width:0.03125"
         d="M 1.53125,5.734375 V 5.46875 H 8.015625 14.5 V 5.734375 6 H 8.015625 1.53125 Z"
         id="path2831" />
      <path
         style="fill:#f8e242;stroke-width:0.03125"
         d="M 1.53125,10 V 6 H 8.015625 14.5 v 4 4 H 8.015625 1.53125 Z"
         id="path2829" />
      <path
         style="fill:#fecb00;stroke-width:0.03125"
         d="M 1.53125,4.8049006 V 4.1410512 L 2.3669705,3.3049006 3.2026909,2.46875 h 1.3153738 1.3153737 l 0.9943553,1.0026078 c 0.5468954,0.5514341 1.028256,1.0154966 1.06969,1.03125 0.043743,0.016631 1.3358004,0.028715 3.0811133,0.028817 2.085489,1.25e-4 3.043601,0.010675 3.129312,0.034471 0.157969,0.043857 0.313588,0.1994769 0.357446,0.3574459 0.01886,0.067944 0.03437,0.2184557 0.03447,0.3344713 L 14.5,5.46875 H 8.015625 1.53125 Z"
         id="path2827" />
      <path
         style="fill:#b1831d;stroke-width:0.03125"
         d="M 1.53125,14.25 V 14 H 8.015625 14.5 v 0.25 0.25 H 8.015625 1.53125 Z"
         id="path2825" />
      <path
         style="fill:#4c380c;stroke-width:0.03125"
         d="M 1,9.4763766 V 3.9527528 L 1.9767456,2.9763765 2.9534913,2 h 1.5624999 1.5625 L 7.078125,3 8.0777587,4 11.015442,4.0011 c 3.087808,0.00115 3.147824,0.00362 3.437683,0.1413375 0.168399,0.080009 0.359735,0.276855 0.453871,0.4669397 l 0.07738,0.15625 0.0083,5.1171875 L 15.000913,15 H 8.0004566 1 Z M 14.499826,9.7734375 C 14.499701,6.4388381 14.489551,5.0104947 14.465355,4.9233412 14.421497,4.7653722 14.265878,4.6097528 14.107909,4.5658953 14.022198,4.5420994 13.064086,4.5315453 10.978597,4.5314244 9.2332841,4.5313306 7.9412272,4.5192391 7.8974838,4.5026078 7.8560497,4.4868544 7.3746891,4.0227919 6.8277938,3.4713578 L 5.8334384,2.46875 H 4.5180647 3.2026909 L 2.3669705,3.3049006 1.53125,4.1410512 V 9.3205256 14.5 H 8.015625 14.5 l -1.87e-4,-4.7265625 z"
         id="path2823" />
    </g>
  </g>
</svg>
