<?xml version="1.0" encoding="UTF-8" standalone="no"?>
<!-- Created with Inkscape (http://www.inkscape.org/) -->

<svg
   version="1.1"
   id="svg2"
   width="1600"
   height="1600"
   viewBox="0 0 1600 1600"
   sodipodi:docname="file_hidden.svg"
   inkscape:version="1.2.2 (732a01da63, 2022-12-09)"
   xmlns:inkscape="http://www.inkscape.org/namespaces/inkscape"
   xmlns:sodipodi="http://sodipodi.sourceforge.net/DTD/sodipodi-0.dtd"
   xmlns="http://www.w3.org/2000/svg"
   xmlns:svg="http://www.w3.org/2000/svg"
   xmlns:rdf="http://www.w3.org/1999/02/22-rdf-syntax-ns#"
   xmlns:cc="http://creativecommons.org/ns#"
   xmlns:dc="http://purl.org/dc/elements/1.1/">
  <metadata
     id="metadata8">
    <rdf:RDF>
      <cc:Work
         rdf:about="">
        <dc:format>image/svg+xml</dc:format>
        <dc:type
           rdf:resource="http://purl.org/dc/dcmitype/StillImage" />
      </cc:Work>
    </rdf:RDF>
  </metadata>
  <defs
     id="defs6" />
  <sodipodi:namedview
     pagecolor="#808080"
     bordercolor="#666666"
     borderopacity="1"
     objecttolerance="10"
     gridtolerance="10"
     guidetolerance="10"
     inkscape:pageopacity="0"
     inkscape:pageshadow="2"
     inkscape:window-width="1993"
     inkscape:window-height="1009"
     id="namedview4"
     showgrid="false"
     inkscape:zoom="0.5"
     inkscape:cx="535"
     inkscape:cy="420"
     inkscape:window-x="-8"
     inkscape:window-y="-8"
     inkscape:window-maximized="1"
     inkscape:current-layer="FILE_HIDDEN"
     inkscape:showpageshadow="0"
     inkscape:pagecheckerboard="true"
     inkscape:deskcolor="#d1d1d1" />
  <g
     id="FILE_HIDDEN"
     transform="matrix(100,0,0,100,0,4.9999997e-5)"
     style="stroke-width:0.0114286">
    <path
       style="fill:none;stroke-width:0.000357143"
       d="M 0,8 V 0 h 8 8 v 8 8 H 8 0 Z m 13.269218,7.419944 c 0.04746,-0.03544 0.115289,-0.103261 0.150726,-0.150719 0.06438,-0.08622 0.06444,-0.09066 0.08006,-5.7324444 0.01164,-4.2046472 0.0065,-5.6700906 -0.02022,-5.7399056 -0.02105,-0.055047 -0.691906,-0.7475964 -1.625,-1.6775451 -1.355489,-1.35091915 -1.605235,-1.58657599 -1.698528,-1.60270781 -0.06016,-0.010402 -2.18608,-0.0148817 -4.724275,-0.009955 -4.60534394,0.008939 -4.61507859,0.009091 -4.70119406,0.0733887 -0.0474618,0.035437 -0.11528807,0.10326428 -0.15072503,0.15072728 L 0.515625,0.81707959 0.50672091,7.9163522 c -0.004897,3.9045998 -8.2219e-4,7.1445618 0.009056,7.1999148 0.0223485,0.125235 0.1536701,0.284907 0.27954885,0.339901 0.0784903,0.03429 1.17936484,0.04045 6.24144734,0.03492 l 6.1461489,-0.0067 z"
       id="path837"
       inkscape:connector-curvature="0" />
    <path
       style="fill:#fefefe;stroke-width:0.000357143"
       d="M 2,15.25 V 15 h 1 1 v 0.25 0.25 H 3 2 Z m 4,0 V 15 h 1 1 v 0.25 0.25 H 7 6 Z m 4,0 V 15 h 1 1 v 0.25 0.25 H 11 10 Z M 0.5,12 V 11 H 0.75 1 v 1 1 H 0.75 0.5 Z M 13,12 v -1 h 0.25 0.25 v 1 1 H 13.25 13 Z m -6.5625,0.747587 c -0.1117187,-0.01661 -0.2233906,-0.03751 -0.24816,-0.04645 -0.030757,-0.0111 0.061863,-0.123485 0.2921319,-0.354471 L 6.8186384,12.008447 7.1671319,11.9916 C 7.5701322,11.972118 7.8274444,11.90199 8.203125,11.709251 8.3993447,11.608583 8.5206588,11.513457 8.7670581,11.267058 9.0134572,11.020659 9.1085825,10.899345 9.2092509,10.703125 9.4012316,10.328923 9.4718353,10.07009 9.4905525,9.671875 l 0.016157,-0.34375 0.3472994,-0.3511628 0.3472991,-0.3511628 0.121225,0.1167878 c 0.260975,0.2514234 0.896217,1.1537572 0.896217,1.2730378 0,0.06094 -0.367133,0.637222 -0.572861,0.899212 -0.206879,0.263457 -0.626332,0.69247 -0.8490142,0.868367 -0.5651497,0.446411 -1.2281528,0.758602 -1.9288359,0.908239 -0.3379575,0.07217 -1.1170485,0.10275 -1.4305391,0.05614 z M 3.63758,11.252412 C 3.5499678,11.156554 3.4053291,10.984202 3.3161603,10.869408 3.1400787,10.642724 2.78125,10.069989 2.78125,10.015625 2.78125,9.9546872 3.1483834,9.3784028 3.3541106,9.1164131 3.5609903,8.8529563 3.9804428,8.4239428 4.203125,8.2480463 4.5046531,8.0098694 4.9486709,7.7433841 5.2606897,7.6133297 5.377855,7.5644934 5.3751403,7.5692525 5.148275,7.8104119 4.8901422,8.0848088 4.7072753,8.4021572 4.5888447,8.78125 c -0.064392,0.2061172 -0.073023,0.2946581 -0.071587,0.734375 0.00151,0.4611847 0.0084,0.520387 0.088814,0.762616 l 0.087182,0.262615 -0.4481893,0.442921 -0.4481894,0.442921 z M 5.0005425,9.3984375 C 5.0016394,9.1933059 5.0959812,8.8525653 5.2230478,8.5948078 5.4044675,8.2267941 5.7267941,7.9044675 6.0948078,7.7230478 6.3525653,7.5959813 6.6933059,7.5016384 6.8984375,7.5005425 L 7,7.5 V 7.868255 8.23651 L 6.8359375,8.3959406 C 6.7457031,8.4836272 6.615625,8.5812919 6.546875,8.6129728 6.3867981,8.6867387 6.1867387,8.8867981 6.1129728,9.046875 6.0812919,9.115625 5.9836272,9.2457031 5.8959406,9.3359375 L 5.73651,9.5 H 5.368255 5 L 5.0005437,9.3984375 Z M 0.5,8 V 7 H 0.75 1 V 8 9 H 0.75 0.5 Z M 13,8 V 7 h 0.25 0.25 V 8 9 H 13.25 13 Z M 0.5,3.984375 V 2.96875 H 0.75 1 V 3.984375 5 H 0.75 0.5 Z M 11,4.25 V 4 H 10.5 10 V 3.5 3 H 9.75 9.5 V 2.5 2 H 9.75 10 V 1.4925427 0.98508537 L 10.508157,1.4925427 11.016315,2 h 0.360336 0.360336 L 11.868493,2.1339954 12,2.2679907 V 2.6258478 2.9837049 L 12.515374,3.499665 13.030747,4.015625 12.515374,4.006355 12,3.9970847 V 4.2485422 4.5 H 11.5 11 Z M 3,0.75 V 0.5 H 4 5 V 0.75 1 H 4 3 Z m 4,0 V 0.5 H 8 9 V 0.75 1 H 8 7 Z"
       id="path835"
       inkscape:connector-curvature="0" />
    <path
       style="fill:#cbcbcb;stroke-width:0.000357143"
       d="M 1,8 V 1 H 5.25 9.5 V 2.75 4.5 H 11.25 13 V 9.75 15 H 7 1 Z m 3.6151844,6.095619 c 0.1749075,-0.08185 0.2882981,-0.175136 0.6559425,-0.539647 l 0.4444803,-0.440692 0.243759,0.0512 c 0.9984569,0.209729 1.9657107,0.122744 2.9070372,-0.261433 1.0478722,-0.42766 1.9873936,-1.268667 2.6344086,-2.358175 0.09186,-0.154687 0.192541,-0.314787 0.22373,-0.355777 0.03119,-0.04099 0.05671,-0.101223 0.05671,-0.133851 0,-0.1939964 -0.623451,-1.1575251 -1.039504,-1.6065304 l -0.175972,-0.1899085 0.23437,-0.2319665 c 0.169131,-0.1673963 0.266536,-0.296756 0.349926,-0.464721 0.110258,-0.2220847 0.115555,-0.2472278 0.115555,-0.5484956 0,-0.3016403 -0.0052,-0.3262878 -0.11671,-0.5518881 C 11.008348,6.17932 10.827392,6.0021566 10.536863,5.8645163 10.345586,5.7738975 10.301848,5.765625 10.014004,5.765625 c -0.2995293,0 -0.3249321,0.00537 -0.5468746,0.1157087 C 9.2699853,5.9793397 9.1632969,6.0684056 8.7697981,6.4634828 L 8.3052209,6.9299228 8.1447981,6.8869137 C 8.0565653,6.8632584 7.8254516,6.8227759 7.6312119,6.7969522 5.5371638,6.5185534 3.5215519,7.6198384 2.3980215,9.65625 2.2439544,9.9354981 2.2268938,10.0509 2.3143108,10.222488 c 0.2164695,0.424903 0.6308485,1.020149 0.9498086,1.36438 l 0.1818369,0.196244 -0.20778,0.215223 c -0.1357568,0.140619 -0.2428371,0.28924 -0.3089157,0.428756 -0.093036,0.196433 -0.1011356,0.238561 -0.1011356,0.526034 0,0.286025 0.00838,0.330184 0.098891,0.521238 0.1255763,0.265064 0.3043634,0.459099 0.5375349,0.583378 0.2477104,0.132028 0.3800385,0.160674 0.6826222,0.147772 0.2081991,-0.0089 0.296401,-0.02959 0.4680113,-0.109894 z"
       id="path833"
       inkscape:connector-curvature="0" />
    <path
       style="fill:#75b6fe;stroke-width:0.000357143"
       d="m 8.1550631,10.673063 c 0.4373757,-0.437629 0.7993341,-0.7915827 0.8043516,-0.7865649 0.00502,0.00502 -0.013278,0.085342 -0.040657,0.1784999 -0.1842287,0.626844 -0.7270547,1.169569 -1.3541172,1.353866 -0.093354,0.02744 -0.1776256,0.04989 -0.1872703,0.04989 -0.00964,0 0.3403172,-0.358059 0.7776928,-0.795687 z M 5.06418,10.007813 C 5.0463009,9.9433594 5.0226044,9.8027344 5.0115209,9.6953125 L 4.9913691,9.5 H 5.3622856 5.7332025 L 5.421875,9.8125 c -0.17123,0.171875 -0.3144459,0.3125 -0.3182572,0.3125 -0.00381,0 -0.021558,-0.05273 -0.039438,-0.117187 z M 7,7.8666013 V 7.5 h 0.088011 c 0.1089653,0 0.4451419,0.060734 0.4975053,0.08988 0.025476,0.01418 -0.067686,0.127435 -0.2734375,0.332415 L 7,8.2332025 Z"
       id="path831"
       inkscape:connector-curvature="0" />
    <path
       style="fill:#656565;stroke-width:0.000357143"
       d="M 9.5,3.75 V 3 H 9.75 10 V 3.5 4 H 10.5 11 V 4.25 4.5 H 10.25 9.5 Z M 12,4.25 V 4 H 12.5 13 V 4.25 4.5 H 12.5 12 Z M 9.5,1.5 V 1 H 9.75 10 V 1.5 2 H 9.75 9.5 Z"
       id="path829"
       inkscape:connector-curvature="0" />
    <path
       style="fill:#fe0000;stroke-width:0.000357143"
       d="m 3.9332134,13.697836 c -0.045327,-0.0076 -0.1565168,-0.05873 -0.24709,-0.113634 C 3.3583803,13.385526 3.2338175,12.961237 3.4045209,12.625 3.4915781,12.453522 9.4102122,6.5103734 9.6180794,6.385705 9.8910666,6.2219809 10.139848,6.2221559 10.410495,6.3862612 10.745852,6.5896037 10.86315,7.0185031 10.676801,7.3600044 10.564728,7.5653887 4.6082259,13.524529 4.4211416,13.618435 4.287915,13.685307 4.0700534,13.72076 3.9332134,13.697835 Z"
       id="path827"
       inkscape:connector-curvature="0" />
    <path
       style="fill:#0000cb;stroke-width:0.000357143"
       d="M 7.0887378,11.742151 C 7.3229066,11.5043 7.3688441,11.47202 7.5414662,11.424027 8.1901284,11.243683 8.7436828,10.690128 8.9240269,10.041466 8.9720203,9.8688441 9.0042997,9.8229066 9.2421509,9.5887378 L 9.5068622,9.328125 9.4906287,9.671875 c -0.018805,0.398207 -0.089467,0.657185 -0.2813778,1.03125 -0.1815247,0.353822 -0.652304,0.824601 -1.0061259,1.006126 -0.3740647,0.19191 -0.6330428,0.262572 -1.03125,0.281378 l -0.34375,0.01623 z M 4.6060341,10.278122 C 4.5256637,10.036029 4.5187631,9.9767588 4.5172575,9.515625 4.5158231,9.0759081 4.5244528,8.9873672 4.5888447,8.78125 4.7096622,8.3945159 4.8905816,8.0832059 5.1598066,7.7987881 5.3971109,7.5480922 5.4090256,7.5402587 5.6779109,7.4581547 6.0804059,7.3352525 6.3746437,7.2835353 6.7995425,7.2610097 c 0.3573344,-0.018944 0.9395141,0.025602 1.0365434,0.079311 0.027382,0.015157 0.00348,0.056591 -0.079212,0.1373419 L 7.6384506,7.5933 7.4207878,7.5471925 C 6.0048616,7.2472578 4.7473625,8.5052988 5.0473697,9.9216338 L 5.0936537,10.140143 4.8934158,10.34038 4.693178,10.540618 Z"
       id="path825"
       inkscape:connector-curvature="0" />
    <path
       style="fill:#323232;stroke-width:0.000357143"
       d="M 0.796875,15.455886 C 0.68194747,15.404806 0.57769619,15.294744 0.53333162,15.177653 0.5121415,15.121726 0.5,14.709084 0.5,14.044841 V 13 H 0.75 1 v 1 1 H 1.5 2 v 0.25 0.25 L 1.4453125,15.4988 C 1.0531098,15.497913 0.86316278,15.485349 0.796875,15.455887 Z M 4,15.25 V 15 h 1 1 v 0.25 0.25 H 5 4 Z m 4,0 V 15 h 1 1 v 0.25 0.25 H 9 8 Z m 4,0.0019 V 15 h 0.5 0.5 v -1 -1 h 0.251154 0.251153 l -0.009,1.091508 c -0.0086,1.046292 -0.01163,1.09508 -0.0734,1.177756 -0.154631,0.206993 -0.181177,0.214198 -0.82838,0.224817 L 12,15.503788 V 15.251894 Z M 6.34375,13.233978 C 6.1804687,13.21152 5.9727341,13.174231 5.8821172,13.151112 l -0.1647581,-0.04203 0.2116331,-0.207201 0.2116328,-0.207201 0.28125,0.04507 c 0.5470656,0.08768 1.3628269,0.01252 1.9461641,-0.179308 0.45741,-0.150414 1.0287162,-0.461186 1.4288359,-0.77724 0.222682,-0.175897 0.642135,-0.60491 0.849014,-0.868367 0.205728,-0.26199 0.572861,-0.838274 0.572861,-0.899212 0,-0.051237 -0.34564,-0.6070194 -0.517397,-0.8319644 C 10.617662,9.0740537 10.472102,8.90289 10.377886,8.8032975 L 10.206584,8.62222 10.386396,8.4439225 10.566207,8.265625 10.741863,8.4528231 c 0.40819,0.435011 1.039387,1.4093425 1.039387,1.6044239 0,0.03263 -0.02552,0.09286 -0.05671,0.133851 -0.03119,0.04099 -0.131868,0.20109 -0.22373,0.355777 -0.397819,0.669887 -1.038194,1.387185 -1.5798467,1.769621 -1.0907097,0.770101 -2.3327184,1.08865 -3.5772153,0.917482 z M 3.2649119,11.587724 C 2.9451848,11.242664 2.5309958,10.647813 2.3143108,10.222488 2.2268938,10.0509 2.2439544,9.9354981 2.3980215,9.65625 3.3950125,7.8491919 5.1230003,6.7546378 6.9851947,6.75061 7.4093275,6.7496928 8.28125,6.8738156 8.28125,6.9351106 c 0,0.010901 -0.087891,0.1065419 -0.1953125,0.2125356 L 7.890625,7.3403619 7.578125,7.29222 C 7.2031766,7.2344575 6.5845153,7.2503134 6.18981,7.3278019 5.4824772,7.466665 4.7809691,7.7916078 4.203125,8.2480463 3.9804428,8.4239428 3.5609903,8.8529563 3.3541106,9.1164131 3.1483834,9.3784028 2.78125,9.9546872 2.78125,10.015625 c 0,0.1173 0.6367519,1.024249 0.88739,1.263943 0.061935,0.05923 0.11261,0.122992 0.11261,0.141692 0,0.0187 -0.075085,0.108152 -0.1668547,0.198782 L 3.4475409,11.784824 Z M 0.5,10 V 9 H 0.75 1 v 1 1 H 0.75 0.5 Z M 13,10 V 9 h 0.25 0.25 v 1 1 H 13.25 13 Z M 0.5,6 V 5 H 0.75 1 V 6 7 H 0.75 0.5 Z M 13.000604,5.4937072 13.002347,3.9874144 12.501173,3.4855497 12,2.9836852 V 2.6249099 2.2661346 l 0.721906,0.7184952 c 0.397049,0.3951724 0.738431,0.7606827 0.758627,0.8122452 0.02692,0.068734 0.0338,0.5085903 0.02576,1.6484375 L 13.49534,7 h -0.248239 -0.248239 l 0.0017,-1.5062928 z M 0.5066445,1.8928663 C 0.51524612,0.86237416 0.51834334,0.81334375 0.58005591,0.73073466 0.61549288,0.68329834 0.68329881,0.61549288 0.73073572,0.58005591 0.81341188,0.518294 0.86219959,0.51525359 1.9084923,0.50665884 L 3,0.49769266 V 0.74884634 1 H 2 1 V 1.984375 2.96875 H 0.748832 0.49766403 Z M 10.515625,1.5 10.016358,1 H 9.5081788 9 V 0.75 0.5 h 0.5635038 c 0.4140434,0 0.5901752,0.0115951 0.6640622,0.0437167 0.05531,0.0240442 0.416848,0.36154418 0.803424,0.75 L 11.733854,2 h -0.359481 -0.35948 z M 5,0.75 V 0.5 H 6 7 V 0.75 1 H 6 5 Z"
       id="path823"
       inkscape:connector-curvature="0" />
    <path
       style="fill:#7f0000;stroke-width:0.000357143"
       d="M 3.7693044,14.185981 C 3.5715678,14.136316 3.2901394,13.969758 3.1535134,13.821537 3.0833302,13.745397 2.9814065,13.589168 2.9270163,13.474363 2.8363974,13.283086 2.828125,13.239348 2.828125,12.951504 c 0,-0.299538 0.00537,-0.324925 0.1157193,-0.546875 0.1109263,-0.223113 0.2448916,-0.361654 3.2343751,-3.3448324 3.5736262,-3.5660891 3.2553244,-3.2928844 3.8374056,-3.2937219 0.286515,-4.125e-4 0.329857,0.00777 0.521238,0.098441 0.290529,0.1376404 0.471485,0.3148038 0.612052,0.5992207 0.111535,0.2256759 0.11669,0.2500747 0.11626,0.5502675 -8.34e-4,0.5839862 0.273297,0.2644684 -3.2937216,3.8390271 -2.9374875,2.943696 -3.1246206,3.124892 -3.335644,3.229833 -0.1914091,0.09519 -0.2610791,0.11279 -0.484375,0.122383 -0.143445,0.0062 -0.3154038,-0.0025 -0.38213,-0.01927 z M 4.4211416,13.618436 C 4.6082259,13.52453 10.564728,7.5653897 10.676801,7.3600053 10.86315,7.0185041 10.745852,6.5896047 10.410495,6.3862622 10.139848,6.2221559 9.8910666,6.2219809 9.6180794,6.3857059 9.4102122,6.5103734 3.4915781,12.453522 3.4045209,12.625 c -0.1707034,0.336237 -0.046141,0.760526 0.2816025,0.959202 0.090573,0.0549 0.2017635,0.10604 0.24709,0.113634 0.13684,0.02292 0.3547016,-0.01253 0.4879282,-0.0794 z"
       id="path821"
       inkscape:connector-curvature="0" />
    <path
       style="fill:#000000;stroke-width:0.000357143"
       d="M 6.0843669,9.1015625 C 6.1297294,8.9769344 6.2915625,8.7772472 6.4149519,8.6936506 6.6779984,8.5154359 6.6660403,8.5653581 6.3756172,8.8578659 6.2126753,9.0219772 6.0760075,9.15625 6.0719106,9.15625 c -0.0041,0 0.00151,-0.024609 0.012456,-0.054687 z"
       id="path819"
       inkscape:connector-curvature="0" />
  </g>
</svg>
