<?xml version="1.0" encoding="UTF-8" standalone="no"?>
<!-- Created with Inkscape (http://www.inkscape.org/) -->

<svg
   version="1.1"
   id="svg2"
   width="1600"
   height="1600"
   viewBox="0 0 1600 1600"
   sodipodi:docname="fill_mask.svg"
   inkscape:version="1.2.2 (732a01da63, 2022-12-09)"
   xmlns:inkscape="http://www.inkscape.org/namespaces/inkscape"
   xmlns:sodipodi="http://sodipodi.sourceforge.net/DTD/sodipodi-0.dtd"
   xmlns="http://www.w3.org/2000/svg"
   xmlns:svg="http://www.w3.org/2000/svg"
   xmlns:rdf="http://www.w3.org/1999/02/22-rdf-syntax-ns#"
   xmlns:cc="http://creativecommons.org/ns#"
   xmlns:dc="http://purl.org/dc/elements/1.1/">
  <metadata
     id="metadata8">
    <rdf:RDF>
      <cc:Work
         rdf:about="">
        <dc:format>image/svg+xml</dc:format>
        <dc:type
           rdf:resource="http://purl.org/dc/dcmitype/StillImage" />
      </cc:Work>
    </rdf:RDF>
  </metadata>
  <defs
     id="defs6" />
  <sodipodi:namedview
     pagecolor="#808080"
     bordercolor="#666666"
     borderopacity="1"
     objecttolerance="10"
     gridtolerance="10"
     guidetolerance="10"
     inkscape:pageopacity="0"
     inkscape:pageshadow="2"
     inkscape:window-width="1993"
     inkscape:window-height="1009"
     id="namedview4"
     showgrid="false"
     inkscape:zoom="0.5"
     inkscape:cx="527"
     inkscape:cy="552"
     inkscape:window-x="-8"
     inkscape:window-y="-8"
     inkscape:window-maximized="1"
     inkscape:current-layer="svg2"
     inkscape:showpageshadow="0"
     inkscape:pagecheckerboard="true"
     inkscape:deskcolor="#d1d1d1" />
  <g
     id="FILL_MASK"
     transform="matrix(100,0,0,100,0,4.9999997e-5)"
     style="stroke-width:0.0114286">
    <path
       style="fill:#fefefe;stroke-width:0.000357143"
       d="M 0,8 V 0 h 8 8 v 8 8 H 8 0 Z m 9.359375,6.926265 c 1.095193,-0.166782 2.196695,-0.563008 2.937379,-1.056615 0.286053,-0.190632 0.920858,-0.792052 1.13088,-1.071407 0.177562,-0.236178 0.350719,-0.578434 0.467092,-0.923243 l 0.08965,-0.265625 0.0083,-4.9055166 c 0.0082,-4.8466304 0.0075,-4.9077551 -0.05469,-5.0920053 C 13.90334,1.5092843 13.875,1.3988881 13.875,1.3665283 c 0,-0.08253 -0.168122,-0.2415251 -0.255409,-0.2415441 -0.03999,-8.6e-6 -0.148276,-0.028734 -0.240626,-0.063835 -0.157249,-0.059767 -0.224844,-0.063238 -1.064598,-0.054672 L 11.41768,1.015625 11.185402,1.1363105 C 10.288258,1.6024443 10.068807,1.6877169 9.4161003,1.8238143 8.8539947,1.9410202 8.4971597,1.9805034 8,1.9805034 7.5028403,1.9805034 7.1460053,1.9410202 6.5838997,1.8238143 5.9311931,1.687717 5.7117084,1.602431 4.8146003,1.1363105 L 4.5823259,1.015625 3.6985581,1.0064458 C 2.816685,0.99728637 2.8142178,0.99744528 2.5475849,1.0805771 2.2752413,1.1654895 2.1250208,1.2793305 2.1249842,1.4008352 2.1249756,1.4295946 2.0966372,1.5276656 2.06201,1.6187709 1.9997368,1.7826136 1.9991417,1.8378908 2.0073383,6.6968959 L 2.015625,11.609375 2.105274,11.875 c 0.1163736,0.344809 0.2895298,0.687065 0.4670918,0.923243 0.2100225,0.279355 0.844827,0.880775 1.1308805,1.071407 0.7702028,0.513279 2.0110268,0.947209 3.0467537,1.065483 0.1632812,0.01865 0.3460937,0.03949 0.40625,0.04631 0.2729622,0.03098 1.9059259,-0.0099 2.203125,-0.05518 z"
       id="path825"
       inkscape:connector-curvature="0" />
    <path
       style="fill:#fecb32;stroke-width:0.000357143"
       d="M 7.40625,13.981736 C 7.3460937,13.97475 7.1632812,13.953779 7,13.935133 4.9836934,13.704883 3.3789663,12.690496 3.0603705,11.444799 3.002051,11.216772 3,11.052324 3,6.6043762 V 2 h 0.6287856 0.6287853 l 0.2696522,0.1553998 c 0.6806725,0.3922701 1.4882278,0.648144 2.4884019,0.7884503 0.36574,0.051307 1.60301,0.051307 1.96875,0 1.0001741,-0.1403063 1.807729,-0.3961802 2.488402,-0.7884503 L 11.742429,2 H 12.371214 13 v 4.6043762 c 0,4.4479478 -0.0021,4.6123958 -0.06037,4.8404228 -0.313626,1.226266 -1.781602,2.176804 -3.830254,2.480149 -0.2987325,0.04423 -1.4738291,0.08341 -1.703125,0.05679 z"
       id="path823"
       inkscape:connector-curvature="0" />
    <path
       style="fill:#323232;stroke-width:0.000357143"
       d="M 7.15625,14.981448 C 7.0960937,14.974621 6.9132812,14.953779 6.75,14.935133 5.7142731,14.816859 4.4734491,14.382929 3.7032462,13.86965 3.4171928,13.679018 2.7823883,13.077598 2.5723658,12.798243 2.3948038,12.562065 2.2216476,12.219809 2.105274,11.875 L 2.015625,11.609375 2.006935,6.703125 1.998245,1.796875 2.063802,1.6158262 C 2.1092172,1.4903787 2.1717487,1.3956957 2.267408,1.3075201 2.3433398,1.2375286 2.3975657,1.1674803 2.3879101,1.1518572 c -0.00966,-0.015623 -0.00596,-0.025129 0.0082,-0.021124 0.014168,0.004 0.1087475,-0.02437 0.2101762,-0.063056 0.1781036,-0.0679303 0.2150783,-0.0700249 1.0802225,-0.061195 l 0.8958069,0.00914 0.2322772,0.1206855 C 5.7117422,1.6024443 5.9311925,1.6877169 6.5838997,1.8238143 7.1460053,1.9410202 7.5028403,1.9805034 8,1.9805034 c 0.4971597,0 0.8539947,-0.039483 1.4161003,-0.1566891 C 10.068807,1.687717 10.288292,1.602431 11.1854,1.1363105 l 0.232274,-0.1206855 0.888294,-0.0092 c 1.041174,-0.0107844 1.106586,0.00108 1.367877,0.2482025 0.08794,0.083171 0.170348,0.1407635 0.183128,0.1279839 0.01278,-0.01278 0.01914,-0.00917 0.01412,0.00801 -0.005,0.017187 0.02215,0.113207 0.06037,0.2133767 l 0.06948,0.1821267 -0.0083,4.9116232 -0.0083,4.911623 -0.08965,0.265625 c -0.116373,0.344809 -0.28953,0.687065 -0.467092,0.923243 -0.210022,0.279355 -0.844827,0.880775 -1.13088,1.071407 -0.740684,0.493607 -1.842186,0.889833 -2.937379,1.056615 -0.2971991,0.04526 -1.9301628,0.08616 -2.203125,0.05518 z m 1.953125,-1.0565 c 2.048652,-0.303345 3.516628,-1.253883 3.830254,-2.480149 C 12.997949,11.216772 13,11.052324 13,6.6043762 V 2 h -0.628786 -0.628785 l -0.269652,0.1553998 c -0.680673,0.3922701 -1.4882279,0.648144 -2.488402,0.7884503 -0.36574,0.051307 -1.60301,0.051307 -1.96875,0 C 6.0154509,2.8035438 5.2078956,2.5476699 4.5272231,2.1553998 L 4.2575709,2 H 3.6287856 3 v 4.6043762 c 0,4.4479478 0.00205,4.6123958 0.06037,4.8404228 0.1928592,0.754072 0.8127636,1.402414 1.8033532,1.886082 0.6000872,0.293 1.4054335,0.520794 2.1362763,0.604252 0.1632812,0.01865 0.3460937,0.03962 0.40625,0.0466 0.2292959,0.02663 1.4043925,-0.01255 1.703125,-0.05679 z"
       id="path821"
       inkscape:connector-curvature="0" />
    <path
       style="fill:#08172c;stroke-width:0.000357143"
       d="m 13.704703,1.2828526 c -0.126649,-0.1285829 -0.139618,-0.1515413 -0.07695,-0.1362179 0.103515,0.025311 0.174864,0.092554 0.212372,0.2001492 0.01739,0.049894 0.02831,0.090716 0.02426,0.090716 -0.004,0 -0.07591,-0.069591 -0.159684,-0.1546474 z M 2.15625,1.3839042 c 0,-0.056532 0.1496049,-0.218627 0.2183796,-0.236612 0.034579,-0.00904 0.06287,-0.013654 0.06287,-0.010248 0,0.00341 -0.063281,0.068299 -0.140625,0.1442059 C 2.2195313,1.3571572 2.15625,1.4033515 2.15625,1.3839042 Z"
       id="path819"
       inkscape:connector-curvature="0" />
  </g>
</svg>
