<?xml version="1.0" encoding="UTF-8" standalone="no"?>
<!-- Created with Inkscape (http://www.inkscape.org/) -->

<svg
   version="1.1"
   id="svg2"
   width="1600"
   height="1600"
   viewBox="0 0 1600 1600"
   sodipodi:docname="filter.svg"
   inkscape:version="1.4.3 (0d15f75042, 2025-12-25)"
   xmlns:inkscape="http://www.inkscape.org/namespaces/inkscape"
   xmlns:sodipodi="http://sodipodi.sourceforge.net/DTD/sodipodi-0.dtd"
   xmlns="http://www.w3.org/2000/svg"
   xmlns:svg="http://www.w3.org/2000/svg"
   xmlns:rdf="http://www.w3.org/1999/02/22-rdf-syntax-ns#"
   xmlns:cc="http://creativecommons.org/ns#"
   xmlns:dc="http://purl.org/dc/elements/1.1/">
  <metadata
     id="metadata8">
    <rdf:RDF>
      <cc:Work
         rdf:about="">
        <dc:format>image/svg+xml</dc:format>
        <dc:type
           rdf:resource="http://purl.org/dc/dcmitype/StillImage" />
      </cc:Work>
    </rdf:RDF>
  </metadata>
  <defs
     id="defs6">
    <inkscape:path-effect
       effect="clone_original"
       css_properties=""
       attributes="clip-path,mask"
       linkeditem="#path6"
       is_visible="true"
       method="d"
       allow_transforms="true"
       id="path-effect16"
       lpeversion="1" />
    <inkscape:path-effect
       effect="offset"
       id="path-effect17"
       is_visible="true"
       lpeversion="1.3"
       linejoin_type="round"
       unit="mm"
       offset="16.71155"
       miter_limit="4"
       attempt_force_join="false"
       update_on_knot_move="true" />
    <inkscape:path-effect
       effect="mirror_symmetry"
       start_point="2.015625,3.980595"
       end_point="14.015625,3.980595"
       center_point="8.015625,3.980595"
       id="path-effect1"
       is_visible="true"
       lpeversion="1.2"
       lpesatellites=""
       mode="free"
       discard_orig_path="false"
       fuse_paths="true"
       oposite_fuse="true"
       split_items="false"
       split_open="false"
       link_styles="false" />
  </defs>
  <sodipodi:namedview
     pagecolor="#000000"
     bordercolor="#666666"
     borderopacity="1"
     objecttolerance="10"
     gridtolerance="10"
     guidetolerance="10"
     inkscape:pageopacity="0"
     inkscape:pageshadow="2"
     inkscape:window-width="1993"
     inkscape:window-height="1009"
     id="namedview4"
     showgrid="true"
     inkscape:zoom="0.38688434"
     inkscape:cx="1163.1383"
     inkscape:cy="997.7142"
     inkscape:window-x="-8"
     inkscape:window-y="-8"
     inkscape:window-maximized="1"
     inkscape:current-layer="svg2"
     inkscape:showpageshadow="0"
     inkscape:pagecheckerboard="false"
     inkscape:deskcolor="#d1d1d1">
    <inkscape:grid
       id="grid1"
       units="px"
       originx="0"
       originy="0"
       spacingx="100"
       spacingy="100"
       empcolor="#0099e5"
       empopacity="0.30196078"
       color="#0099e5"
       opacity="0.14901961"
       empspacing="5"
       enabled="true"
       visible="true" />
  </sodipodi:namedview>
  <g
     id="FILTER-3"
     transform="scale(100)"
     style="display:inline;vector-effect:non-scaling-stroke;stroke:#000000;stroke-width:0.01;stroke-dasharray:none;stroke-opacity:1;-inkscape-stroke:hairline"
     inkscape:label="FILTER">
    <path
       id="rect2"
       style="display:inline;vector-effect:non-scaling-stroke;fill:none;stroke:#000000;stroke-width:1;stroke-linejoin:bevel;stroke-dasharray:none;stroke-dashoffset:83.9528;stroke-opacity:1;-inkscape-stroke:hairline"
       transform="scale(0.01)"
       d="m 0.5,0 h 1599 c 0.277,0 0.5,0.223 0.5,0.5 v 1599 c 0,0.277 -0.223,0.5 -0.5,0.5 H 0.5 C 0.223,1600 0,1599.777 0,1599.5 V 0.5 C 0,0.223 0.223,0 0.5,0 Z" />
    <path
       original-d="M 6.3816992,2.0727434 C 4.6934845,2.244111 3.4023221,2.6016707 2.6399805,3.1089153 1.7901867,3.6743485 1.7892614,4.3279325 2.6374414,4.8881731 2.776696,4.9801541 2.9539064,5.0864209 3.03125,5.1243255 c 0.017343,0.0085 0.066225,0.023777 0.1875,0.084941 L 7,8.9806041 c 0.081941,2.0120069 0.015488,6.0506459 0.015488,6.0506549 -2.838e-4,0.0085 1,-0.491953 1,-0.491953 L 9,14.047353 c 0,-9e-6 0.00856,-3.377843 0.015625,-5.066758 L 10.96619,7.0781341 C 12.151156,5.9223913 12.689162,5.3185007 12.770723,5.2099895 13.088522,5.0530487 13.102785,5.0391817 13.194512,4.9875872 13.568586,4.777179 13.786679,4.5757404 13.908652,4.3279778 14.028451,4.0846313 14.032902,3.9368972 13.927402,3.7064544 13.823344,3.4791603 13.663593,3.3109063 13.36002,3.1089153 12.597678,2.6016707 11.306515,2.244111 9.6183008,2.0727434 c -0.7563988,-0.076781 -2.4802028,-0.076781 -3.2366016,0 z"
       d="M 8.0253906,1.34375 C 7.4201764,1.3442503 6.774666,1.3625378 6.3632812,1.4042969 4.670239,1.5761546 3.2195508,1.9478968 2.3164063,2.5488281 1.9370832,2.8012216 1.6811767,3.057587 1.5117187,3.4277344 1.3206822,3.845014 1.3306938,4.2057102 1.5371094,4.625 c 0.2049402,0.4162932 0.5379584,0.6959225 0.9882812,0.9492187 0.068381,0.038463 0.1030191,0.063164 0.3554688,0.1894532 l 3.4804687,3.4960937 c 0.0058,1.4167054 0.00564,1.6563714 -0.017578,5.7167974 a 0.67224721,0.67224721 0 0 0 0.9726562,0.605468 l 1.0000001,-0.5 1,-0.5 A 0.67224721,0.67224721 0 0 0 9.6875,13.978516 c -0.00666,-3.118966 -0.00587,-3.300182 0,-4.7187504 L 13.169922,5.7636719 C 13.422445,5.6373478 13.457002,5.6126857 13.525391,5.5742187 13.97661,5.3204179 14.308074,5.0386623 14.511719,4.625 14.716536,4.2089571 14.731733,3.848582 14.539063,3.4277344 14.368196,3.0545102 14.110569,2.8004394 13.732422,2.5488281 12.829705,1.9481815 11.380592,1.5761596 9.6875,1.4042969 9.276115,1.3625377 8.6317163,1.3442503 8.0253906,1.34375 Z"
       id="use15"
       inkscape:path-effect="#path-effect16;#path-effect17"
       inkscape:original-d="M 6.3816992,2.0727434 C 4.6934845,2.244111 3.4023221,2.6016707 2.6399805,3.1089153 1.7901867,3.6743485 1.7892614,4.3279325 2.6374414,4.8881731 2.8159534,5.0235187 3.0201799,5.1109318 3.21875,5.2092665 L 7,8.9806041 7.015488,15.031259 c -2.838e-4,0.0085 1.000137,-0.550664 1.000137,-0.550664 l 1,-0.5 v -5 L 12.770723,5.2099895 C 13.088522,5.0530487 13.102785,5.0391817 13.194512,4.9875872 13.568586,4.777179 13.786679,4.5757404 13.908652,4.3279778 14.028451,4.0846313 14.032902,3.9368972 13.927402,3.7064544 13.823344,3.4791603 13.663593,3.3109063 13.36002,3.1089153 12.597678,2.6016707 11.306515,2.244111 9.6183008,2.0727434 c -0.7563988,-0.076781 -2.4802028,-0.076781 -3.2366016,0 z"
       class="fromclone"
       sodipodi:nodetypes="ssscccccccssssss"
       style="display:inline;vector-effect:non-scaling-stroke;fill:#323232;fill-opacity:1;stroke:none;stroke-width:0.01;stroke-dasharray:none;stroke-opacity:1;-inkscape-stroke:hairline"
       transform="matrix(0.90226913,0,0,0.97839537,0.75931324,-0.31471878)" />
    <path
       d="M 8.0253906,2.015625 C 7.4136599,2.0161307 6.8047912,2.0343876 6.4316406,2.0722656 4.7434264,2.2436332 3.4517951,2.6021304 2.6894531,3.109375 2.3858801,3.311366 2.2271049,3.4797372 2.1230469,3.7070313 2.0175469,3.9374741 2.020826,4.0847785 2.140625,4.328125 c 0.121973,0.2477626 0.3407697,0.4497481 0.7148438,0.6601562 0.091727,0.051594 0.1060291,0.065715 0.4238281,0.2226563 l 3.7539062,3.7695313 c 0.00707,1.6889152 -0.017578,6.0001262 -0.017578,6.0001262 l 1,-0.5 1,-0.500126 c 0,0 -0.00707,-3.311085 0,-5.0000002 L 12.771484,5.2109375 C 13.089283,5.0539967 13.103586,5.0398758 13.195313,4.9882812 13.569387,4.777873 13.78623,4.5758876 13.908203,4.328125 14.028002,4.0847785 14.033234,3.9374741 13.927734,3.7070313 13.823676,3.4797372 13.662948,3.311366 13.359375,3.109375 12.597033,2.6021304 11.307355,2.2436332 9.6191406,2.0722656 9.2459901,2.0343876 8.6371213,2.0161307 8.0253906,2.015625 Z"
       style="display:inline;vector-effect:non-scaling-stroke;fill:#cbcbcb;fill-opacity:1;stroke:none;stroke-width:0.01;stroke-dasharray:none;stroke-opacity:1;-inkscape-stroke:hairline"
       id="path6"
       sodipodi:nodetypes="sssccccccssssssssss"
       transform="matrix(0.90226913,0,0,0.97839537,0.75931324,-0.31471878)" />
    <path
       style="display:inline;fill:#989898;stroke-width:0.000335558"
       d="M 7.9915643,8.4718538 11.149506,5.0939844 12.281942,4.7827109 8.8938333,8.4718538 V 13.36383 l -0.902269,0.489199 z"
       id="path823-5"
       inkscape:connector-curvature="0"
       sodipodi:nodetypes="ccccccc" />
    <path
       style="display:inline;fill:#fefefe;stroke-width:0.000357143"
       d="M 6.4023437,2.0371094 C 5.3709556,2.1418034 4.3929624,2.3375018 3.7128906,2.5742188 2.6363172,2.9489493 2.0353553,3.4665161 2.015625,3.9804688 c 0.01973,0.5139526 0.6206922,1.0315194 1.6972656,1.4062499 0.6800718,0.236717 1.658065,0.4324154 2.6894531,0.5371094 0.7563989,0.07678 2.4799294,0.07678 3.2363282,0 1.6882151,-0.171368 2.9798451,-0.5298644 3.7421871,-1.0371094 0.300226,-0.199764 0.461185,-0.3680527 0.564454,-0.5898437 0.04832,-0.1037742 0.07195,-0.2095286 0.07031,-0.3164062 0.0016,-0.1068777 -0.02199,-0.2126321 -0.07031,-0.3164063 C 13.842044,3.4422715 13.681085,3.2739828 13.380859,3.0742188 12.618517,2.5669737 11.326887,2.2084774 9.6386719,2.0371094 c -0.7563988,-0.07678 -2.4799293,-0.07678 -3.2363282,0 z M 7.4824219,3.0039063 C 6.8357954,3.0250713 6.192452,3.0856914 5.5839844,3.1855469 4.6945925,3.3315049 4.0516091,3.5134121 3.5292969,3.7675781 3.2958734,3.8811658 3.2115974,3.9382963 3.2109375,3.9804688 c 6.599e-4,0.042172 0.084936,0.099303 0.3183594,0.2128906 0.5223122,0.254166 1.1652956,0.4360732 2.0546875,0.5820312 2.4338706,0.399422 5.4297806,0.1478488 6.9296876,-0.5820312 0.234332,-0.114034 0.320312,-0.1706706 0.320312,-0.2128906 0,-0.04222 -0.08598,-0.098857 -0.320312,-0.2128907 -1.12493,-0.54741 -3.0913708,-0.8271669 -5.0312501,-0.7636718 z"
       id="path827-6"
       inkscape:connector-curvature="0"
       sodipodi:nodetypes="cssssssscsccsscssscccc"
       inkscape:path-effect="#path-effect1"
       inkscape:original-d="M 7.0863906,5.988859 C 5.0634775,5.857573 3.5180462,5.47824 2.648249,4.899497 2.3480227,4.699733 2.1869288,4.531429 2.0836593,4.309638 1.7977117,3.69551 2.4056726,3.029401 3.7133684,2.574222 4.3934402,2.337505 5.3715868,2.142378 6.4029749,2.037684 c 0.7563988,-0.07678 2.48019,-0.07678 3.2365888,0 1.6882153,0.171368 2.9793813,0.528919 3.7417233,1.036164 0.300226,0.199764 0.46132,0.368068 0.564589,0.589859 0.191411,0.411092 -0.014,0.860818 -0.577926,1.236011 C 12.615086,5.400656 11.298612,5.767353 9.6645156,5.93129 9.2030928,5.97758 7.4989544,6.01563 7.0863906,5.988859 Z M 9.4776197,4.945963 C 10.761395,4.819766 11.809252,4.574272 12.501058,4.237628 c 0.234332,-0.11403 0.333316,-0.214817 0.333316,-0.257033 0,-0.04222 -0.08598,-0.09954 -0.320312,-0.213574 C 11.014155,3.037141 8.0175968,2.785415 5.5837262,3.184837 4.6943343,3.330795 4.0519981,3.512855 3.5296859,3.767021 3.2953534,3.881051 3.2100908,3.938872 3.2100908,3.981087 c 0,0.04221 0.072259,0.142506 0.3065914,0.256541 0.8177503,0.397931 2.0896153,0.657536 3.7578125,0.76702 0.3692334,0.02423 1.7277422,-0.01195 2.203125,-0.05869 z"
       transform="matrix(0.90226913,0,0,0.97839537,0.75931324,-0.31471878)" />
    <path
       style="display:inline;fill:#656565;fill-opacity:1;stroke-width:0.000335558"
       d="M 7.3235126,4.582287 C 5.8183497,4.4751684 4.6707851,4.2211721 3.9329543,3.8318372 3.7215233,3.7202708 3.6556791,3.6216612 3.6556791,3.5803583 c 0,-0.041308 0.077577,-0.097389 0.2890081,-0.2089598 1.3533191,-0.7141122 4.0570206,-0.9603997 6.2530268,-0.5696062 0.802471,0.1428047 1.382031,0.3209304 1.853298,0.5696062 0.21143,0.1115665 0.289007,0.1676569 0.289007,0.2089598 0,0.041308 -0.08931,0.1399086 -0.30074,0.2514789 -0.624196,0.329372 -1.569645,0.5695621 -2.7279549,0.6930327 -0.4289231,0.045721 -1.6546638,0.081129 -1.9878115,0.057413 z"
       id="path821-2"
       inkscape:connector-curvature="0"
       sodipodi:nodetypes="csscssscscc" />
    <path
       style="fill:#fe0000;stroke-width:0.000347093"
       d="m 2.9459338,13.480822 c -0.3153227,-0.09975 -0.5249613,-0.459176 -0.4474737,-0.767185 0.019585,-0.07784 0.061288,-0.182522 0.092678,-0.232616 0.031389,-0.05009 2.2691084,-2.299924 4.9727105,-4.9996252 l 4.9156384,-4.9085484 0.177369,-0.050594 c 0.146765,-0.041864 0.201811,-0.044543 0.319009,-0.015533 0.282961,0.070043 0.450451,0.2375777 0.522052,0.5221923 0.02961,0.1177133 0.02709,0.1713681 -0.01502,0.3187763 L 13.432267,3.5249292 8.5049616,8.4514621 C 5.1719767,11.783918 3.5383293,13.397001 3.4561249,13.436734 c -0.1723784,0.08332 -0.3403048,0.09784 -0.5101911,0.04409 z"
       id="path823"
       inkscape:connector-curvature="0" />
    <path
       style="fill:#7f0000;stroke-width:0.000347093"
       d="M 2.797684,13.952469 C 2.5656903,13.875897 2.4362749,13.791551 2.273931,13.611117 2.0759272,13.391048 2.0001747,13.17769 2.0001747,12.840074 c 0,-0.212893 0.015528,-0.313465 0.070312,-0.455396 C 2.1381627,12.209353 2.3295448,12.013913 7.1732942,7.17368 12.017043,2.3334467 12.212626,2.142203 12.38808,2.0745767 c 0.259009,-0.099832 0.656055,-0.099108 0.911451,0.00166 0.250236,0.098735 0.52536,0.3736597 0.624166,0.6237134 0.100845,0.2552104 0.101578,0.651968 0.0017,0.9107891 -0.06766,0.1753275 -0.259047,0.3707677 -5.1027966,5.2110011 -4.8807451,4.8772287 -5.0379651,5.0308927 -5.2147595,5.0968637 -0.2518395,0.09397 -0.5856834,0.107928 -0.8100863,0.03387 z m 0.6581777,-0.520998 c 0.082204,-0.03973 1.7158516,-1.652815 5.0488321,-4.9852734 l 4.9273052,-4.9265329 0.05062,-0.1772405 c 0.04211,-0.1474082 0.04464,-0.201063 0.01502,-0.3187761 -0.0716,-0.2846148 -0.239092,-0.4521488 -0.522053,-0.5221925 -0.117197,-0.029011 -0.172244,-0.02633 -0.319009,0.015533 L 12.479218,2.5675826 7.5635777,7.4761311 C 4.8599788,10.175832 2.622259,12.425665 2.5908702,12.475759 c -0.1698335,0.271037 -0.1330371,0.61176 0.090152,0.834788 0.2084623,0.208312 0.4999335,0.253799 0.7748352,0.120924 z"
       id="path819"
       inkscape:connector-curvature="0" />
  </g>
</svg>
