<?xml version="1.0" encoding="UTF-8" standalone="no"?>
<!-- Created with Inkscape (http://www.inkscape.org/) -->

<svg
   version="1.1"
   id="svg2"
   width="1600"
   height="1600"
   viewBox="0 0 1600 1600"
   sodipodi:docname="flatten_handler.svg"
   inkscape:version="1.2.2 (732a01da63, 2022-12-09)"
   xmlns:inkscape="http://www.inkscape.org/namespaces/inkscape"
   xmlns:sodipodi="http://sodipodi.sourceforge.net/DTD/sodipodi-0.dtd"
   xmlns="http://www.w3.org/2000/svg"
   xmlns:svg="http://www.w3.org/2000/svg"
   xmlns:rdf="http://www.w3.org/1999/02/22-rdf-syntax-ns#"
   xmlns:cc="http://creativecommons.org/ns#"
   xmlns:dc="http://purl.org/dc/elements/1.1/">
  <metadata
     id="metadata8">
    <rdf:RDF>
      <cc:Work
         rdf:about="">
        <dc:format>image/svg+xml</dc:format>
        <dc:type
           rdf:resource="http://purl.org/dc/dcmitype/StillImage" />
      </cc:Work>
    </rdf:RDF>
  </metadata>
  <defs
     id="defs6" />
  <sodipodi:namedview
     pagecolor="#808080"
     bordercolor="#666666"
     borderopacity="1"
     objecttolerance="10"
     gridtolerance="10"
     guidetolerance="10"
     inkscape:pageopacity="0"
     inkscape:pageshadow="2"
     inkscape:window-width="2560"
     inkscape:window-height="1009"
     id="namedview4"
     showgrid="false"
     fit-margin-top="0"
     fit-margin-left="0"
     fit-margin-right="0"
     fit-margin-bottom="0"
     inkscape:zoom="0.5"
     inkscape:cx="982"
     inkscape:cy="482"
     inkscape:window-x="-8"
     inkscape:window-y="-8"
     inkscape:window-maximized="1"
     inkscape:current-layer="FLATTEN_HANDLER"
     inkscape:showpageshadow="0"
     inkscape:pagecheckerboard="true"
     inkscape:deskcolor="#d1d1d1" />
  <g
     id="FLATTEN_HANDLER"
     transform="matrix(100.0183,0,0,100.0183,6.2570154e-4,0)"
     style="stroke-width:0.0099982">
    <path
       style="fill:none;stroke-width:0.00031244"
       d="M 0.00248432,9.1015629 C 0.00457611,3.2931122 0.01151803,2.232751 0.04641913,2.390625 0.19090655,3.0442097 0.70245317,3.6037795 1.349113,3.8156145 1.6790773,3.9237052 2.2277572,3.9234858 2.5585678,3.8151293 2.932346,3.6927005 3.4198549,3.3289132 3.5592883,3.0683752 L 3.5958818,3 H 4.7978845 5.9998876 V 3.5000002 4.0000001 H 7.99985 9.9998126 V 3.5000002 3 h 1.1693044 1.169304 l 0.07186,0.1171875 c 0.203339,0.3315837 0.632584,0.6612445 1.030847,0.7916932 0.330811,0.1083551 0.879491,0.1085745 1.209455,4.852e-4 0.64666,-0.211835 1.158207,-0.771405 1.302694,-1.4249895 0.0353,-0.1596839 0.0414,0.329415 0.04113,3.2968751 -2.82e-4,3.0594799 -0.0056,3.4552861 -0.0435,3.2458298 C 15.843306,8.432532 15.493779,7.6047084 15.141215,7.1093759 14.904454,6.7767405 14.236602,6.1071054 13.905989,5.8708528 13.383792,5.4976952 12.570473,5.1554475 11.947888,5.0468756 c -0.368869,-0.064326 -1.527319,-0.064326 -1.896189,0 C 9.4291145,5.1554475 8.6157961,5.4976952 8.0935984,5.8708528 7.7629861,6.1071054 7.0951335,6.7767405 6.858373,7.1093759 6.4967788,7.6173954 6.1537376,8.4384314 6.0467615,9.0518888 c -0.039435,0.2261385 -0.046874,0.73665 -0.046874,3.2166582 0,2.864354 0.00176,2.952558 0.062057,3.113726 0.079479,0.212431 0.3356731,0.471177 0.5489921,0.554461 0.1542409,0.06022 0.1475492,0.06035 -3.2281879,0.06181 L 0,16.000001 Z M 9.3887632,15.936733 c 0.213319,-0.08328 0.469513,-0.34203 0.548992,-0.554461 0.060065,-0.16054 0.062057,-0.248482 0.062057,-2.738553 0,-1.609617 0.011872,-2.635292 0.031715,-2.7399238 0.06603,-0.3481856 0.276147,-0.6316633 0.578463,-0.7804324 0.219856,-0.1081903 0.559749,-0.1081903 0.779605,0 0.302317,0.1487691 0.512434,0.4322468 0.578464,0.7804324 0.01984,0.1046318 0.03172,1.1303068 0.03172,2.7399238 0,2.490071 0.002,2.578013 0.06206,2.738553 0.07948,0.212431 0.335673,0.471177 0.548993,0.554461 l 0.154561,0.06034 H 10.999794 9.2342019 Z m 6.0021218,-3.35e-4 c 0.203451,-0.0783 0.464763,-0.340528 0.545549,-0.547458 l 0.06034,-0.154564 0.0015,0.382812 L 15.999774,16 15.616969,15.9984 15.234164,15.9968 15.390959,15.93645 Z M 15.967792,1.6953126 C 15.966802,1.5663116 15.831266,1.207247 15.71387,1.0226206 15.467535,0.63521447 15.070425,0.3218921 14.652091,0.18486938 14.321281,0.07651447 13.772601,0.07629506 13.442636,0.18438576 13.063867,0.30846413 12.679719,0.5888137 12.464208,0.89843754 L 12.371766,1.03125 H 11.185789 9.9998126 V 0.51562502 0 H 12.999756 15.9997 v 0.89062502 c 0,0.48984378 -0.007,0.89062508 -0.01563,0.89062508 -0.0086,0 -0.01592,-0.038672 -0.01628,-0.085937 z M 0.00248432,0.85156254 0,0 0.85154655,0.00248437 C 1.6357446,0.00477225 1.6882641,0.00824711 1.5155966,0.04642 0.79672598,0.20534615 0.2053423,0.79674094 0.04641913,1.5156251 0.00824695,1.6882957 0.00477216,1.6357753 0.00248432,0.85156254 Z m 3.58827368,0.03125 C 3.303534,0.45507588 2.8688625,0.15215749 2.3905801,0.04642 2.2271814,0.01029619 2.4470726,0.00464944 4.1014857,0.00248437 L 5.9998876,0 V 0.51562502 1.03125 H 4.8451605 3.6904335 Z"
       id="path831"
       inkscape:connector-curvature="0" />
    <path
       style="fill:#fefefe;stroke-width:0.00031244"
       d="m 6.610937,15.936733 c -0.213319,-0.08328 -0.469513,-0.34203 -0.5489921,-0.554461 -0.0603,-0.161167 -0.062057,-0.249372 -0.062057,-3.113725 0,-3.2824342 -0.00553,-3.1831054 0.2147238,-3.8538782 C 6.3637749,7.9604065 6.6198937,7.4447749 6.8707232,7.0937503 7.1069711,6.7631318 7.7765939,6.0952669 8.109223,5.8585017 8.617233,5.4969007 9.4382534,5.153853 10.051699,5.0468749 c 0.36887,-0.064326 1.52732,-0.064326 1.896189,0 0.622585,0.1085719 1.435904,0.4508196 1.958101,0.8239772 0.330613,0.2362526 0.998465,0.9058877 1.235226,1.2385231 0.361594,0.5080195 0.704635,1.3290555 0.811611,1.9425128 0.03943,0.2261386 0.04687,0.73665 0.04687,3.216659 0,3.385817 0.02104,3.13624 -0.290268,3.443684 -0.290745,0.287139 -0.294489,0.28777 -1.708857,0.28777 -1.420701,0 -1.427513,-0.0012 -1.713036,-0.290274 -0.306374,-0.310234 -0.287764,-0.112 -0.287764,-3.065172 0,-1.610183 -0.01187,-2.636125 -0.03172,-2.7407598 -0.06603,-0.3481856 -0.276147,-0.6316633 -0.578464,-0.7804324 -0.219856,-0.1081903 -0.559749,-0.1081903 -0.779605,0 -0.302316,0.1487691 -0.512433,0.4322468 -0.578463,0.7804324 -0.01984,0.1046348 -0.031715,1.1305768 -0.031715,2.7407598 0,2.953172 0.01861,2.754938 -0.2877638,3.065172 -0.2860718,0.289675 -0.2910941,0.290518 -1.7211832,0.288812 -1.1345478,-0.0014 -1.2368229,-0.0059 -1.3799286,-0.06181 z M 9.006651,12.304688 9.015461,9.6093752 9.099191,9.3801591 C 9.2181301,9.0545412 9.3597774,8.8302113 9.594902,8.5950823 9.8317979,8.3581819 10.05767,8.2161921 10.379964,8.1015705 c 0.200438,-0.071285 0.278248,-0.081518 0.61983,-0.081518 0.341582,0 0.419391,0.010233 0.619829,0.081518 0.322294,0.1146216 0.548167,0.2566114 0.785063,0.4935118 0.235124,0.235129 0.376772,0.4594589 0.495716,0.7850768 l 0.08373,0.2292161 0.0088,2.6953128 L 13.001742,15 h 1.00009 1.000091 l -0.0099,-2.820312 -0.0099,-2.8203126 -0.08263,-0.3125002 c -0.39681,-1.5006054 -1.494629,-2.5847936 -2.993466,-2.9562956 -0.260675,-0.064611 -0.371163,-0.073582 -0.906233,-0.073582 -0.53507,0 -0.645558,0.00897 -0.906233,0.073582 C 8.5947233,6.4620816 7.4969047,7.5462698 7.1000994,9.0468752 L 7.0174647,9.3593754 7.0075649,12.179688 6.9976649,15 H 7.9977554 8.9978457 Z M 3.8669276,2.366051 C 3.8799206,2.293629 3.8898196,2.0767124 3.8889236,1.8840135 L 3.8872942,1.533652 4.943591,1.5337527 5.9998878,1.5338535 V 2.015599 2.4973444 L 4.9215956,2.4975319 3.8433033,2.4977194 3.8669279,2.3660433 Z M 9.9998126,2.0156805 V 1.5319493 l 1.0781774,0.00173 1.078178,0.00173 -0.02351,0.083856 c -0.01293,0.046121 -0.02307,0.2621841 -0.02253,0.4801412 l 9.75e-4,0.3962856 -1.055643,0.00186 -1.0556424,0.00186 V 2.0156803 Z"
       id="path829"
       inkscape:connector-curvature="0" />
    <path
       style="fill:#65cbfe;stroke-width:0.00031244"
       d="M 6.9998689,13.5 V 12 H 7.99985 8.9998313 V 13.5 15 H 7.99985 6.9998689 Z m 5.9998871,0 V 12 h 0.999982 0.999981 v 1.5 1.5 h -0.999981 -0.999982 z"
       id="path827"
       inkscape:connector-curvature="0" />
    <path
       style="fill:#fea900;stroke-width:0.00031244"
       d="M 13.718493,3.4656893 C 13.341263,3.392017 12.896049,3.0343247 12.729926,2.6714585 12.558253,2.296468 12.557819,1.7982299 12.728839,1.4246634 12.841065,1.1795248 13.146946,0.86750918 13.39453,0.74562178 c 0.394416,-0.19417432 0.910663,-0.19372186 1.306487,0.001145 0.245184,0.12070592 0.551659,0.43389512 0.663365,0.67789652 0.171021,0.3735666 0.170587,0.8718046 -0.0011,1.2467951 C 15.253251,2.91183 14.944761,3.2271471 14.704831,3.3444959 14.40584,3.4907306 14.062638,3.5329003 13.71849,3.4656891 Z M 1.6249696,3.3719391 C 1.2477395,3.298267 0.80252518,2.9405747 0.63640264,2.5777085 0.46472955,2.202718 0.46429561,1.7044799 0.63531682,1.3309134 0.74754293,1.0857748 1.0534239,0.77375918 1.3010077,0.65187178 1.6954244,0.45769746 2.2116715,0.45814992 2.607495,0.6530167 2.852679,0.77372262 3.1591544,1.0869118 3.2708599,1.3309132 3.4418811,1.7044798 3.4414475,2.2027178 3.2697748,2.5777083 3.1597298,2.81808 2.8512402,3.1333973 2.6113096,3.2507461 2.3123192,3.3969806 1.9691172,3.4391505 1.6249689,3.3719391 Z M 6.9998689,2.0000001 V 1 H 7.99985 8.9998313 V 2.0000001 3 H 7.99985 6.9998689 Z"
       id="path825"
       inkscape:connector-curvature="0" />
    <path
       style="fill:#0000fe;stroke-width:0.00031244"
       d="M 5.9998876,2.0000001 V 0 H 7.99985 9.9998126 v 2.0000001 2 H 7.99985 5.9998876 Z m 2.9999437,0 V 1 H 7.99985 6.9998689 V 2.0000001 3 H 7.99985 8.9998313 Z"
       id="path823"
       inkscape:connector-curvature="0" />
    <path
       style="fill:#191919;stroke-width:0.00031244"
       d="M 13.60912,3.9556439 C 13.127026,3.8437573 12.652191,3.511661 12.410285,3.1171875 L 12.338421,3 H 11.169117 9.9998126 V 2.7500002 2.5000001 l 0.3359314,-9.539e-4 c 0.184762,-5.25e-4 0.659805,-0.00123 1.055651,-0.00156 l 0.71972,-6.094e-4 -9.85e-4,-0.3968746 c -5.41e-4,-0.218281 0.0097,-0.4348955 0.02269,-0.4813655 L 12.15649,1.5341457 11.414084,1.533676 C 11.005761,1.5334166 10.520509,1.5327667 10.335747,1.532226 L 9.9998126,1.5312492 V 1.2812501 1.03125 h 1.1859764 1.185977 l 0.09244,-0.13281246 c 0.215513,-0.30962384 0.599661,-0.58997341 0.97843,-0.71405178 0.190158,-0.0622923 0.292565,-0.0750108 0.603976,-0.0750108 0.31141,0 0.413818,0.0127185 0.603975,0.0750108 0.578358,0.18946004 1.068876,0.67958994 1.257996,1.25699844 0.10859,0.3315418 0.10859,0.8794399 0,1.2109817 -0.186863,0.5705177 -0.655467,1.0454036 -1.228742,1.245213 -0.281653,0.098168 -0.781201,0.1252582 -1.070721,0.058065 z m 0.737908,-0.4870587 c 0.403036,-0.07522 0.844188,-0.4212447 1.01627,-0.7971267 0.171673,-0.3749905 0.172107,-0.8732286 0.0011,-1.2467951 C 15.25268,1.180662 14.946204,0.86747278 14.70102,0.74676687 14.305196,0.55189992 13.788949,0.55144746 13.394533,0.74562187 13.146949,0.86750927 12.841068,1.1795249 12.728842,1.4246635 c -0.112517,0.2457734 -0.156215,0.5745987 -0.113248,0.8521899 0.04785,0.3091302 0.162388,0.5366075 0.389055,0.7726611 0.358817,0.3736789 0.817818,0.5169717 1.342381,0.4190707 z M 1.5155966,3.8618939 C 0.85431658,3.7084212 0.30215055,3.2028244 0.09063405,2.5571119 c -0.10785143,-0.3292463 -0.10785143,-0.8787273 0,-1.2079736 C 0.28009054,0.77077008 0.77021121,0.28024233 1.3476089,0.09111938 1.6784196,-0.01723554 2.2270995,-0.01745494 2.5570639,0.09063576 2.9588079,0.22224028 3.3236371,0.49723587 3.5665651,0.85156254 L 3.6897596,1.03125 h 1.1550639 1.1550641 v 0.2500001 0.25 l -0.1640594,0.00106 c -0.090233,5.814e-4 -0.5655717,9.159e-4 -1.0563088,7.427e-4 l -0.8922489,-3.143e-4 0.00164,0.3508196 c 9.024e-4,0.1929507 -0.00902,0.4102851 -0.022059,0.4829651 l -0.0237,0.1321458 0.9143079,-4.008e-4 c 0.5028697,-2.109e-4 0.988135,7.03e-5 1.0783677,6.68e-4 l 0.1640594,0.00107 V 2.7500002 3 H 4.7993338 3.59878 L 3.534341,3.1042666 C 3.3713702,3.3679638 2.9546975,3.6754338 2.5863182,3.8038289 2.3046651,3.9019966 1.8051166,3.9290871 1.5155966,3.8618939 Z M 2.253505,3.374835 C 2.6565406,3.2996152 3.0976931,2.9535902 3.2697741,2.5777085 3.4414475,2.202718 3.4418811,1.7044799 3.2708592,1.3309134 3.159153,1.086912 2.8526774,0.77372278 2.6074934,0.65301687 2.2116699,0.45814992 1.6954228,0.45769746 1.3010061,0.65187187 1.0534223,0.77375927 0.74754136,1.0857749 0.63531525,1.3309135 0.52279857,1.5766869 0.47910071,1.9055122 0.52206703,2.1831034 0.56991503,2.4922336 0.68445571,2.7197109 0.91112192,2.9557645 1.26994,3.3294434 1.7289405,3.4727363 2.2535034,3.3748352 Z"
       id="path821"
       inkscape:connector-curvature="0" />
    <path
       style="fill:#000000;stroke-width:0.00031244"
       d="M 7.0077077,10.679688 C 7.0196292,9.376767 7.0208615,9.3552591 7.1012609,9.0468752 7.4908559,7.55253 8.5945384,6.462127 10.093561,6.0905796 c 0.260675,-0.064611 0.371163,-0.073582 0.906233,-0.073582 0.53507,0 0.645558,0.00897 0.906233,0.073582 1.499022,0.3715474 2.602705,1.4619504 2.9923,2.9562956 0.0804,0.3083839 0.08163,0.3298918 0.09355,1.6328128 L 15.003961,12 h -1.000095 -1.000095 l -0.01088,-1.195312 -0.01088,-1.1953128 -0.08267,-0.2292161 C 12.782482,9.056148 12.640658,8.8310588 12.404686,8.5950823 12.16779,8.3581819 11.941917,8.2161921 11.619623,8.1015705 c -0.200438,-0.071285 -0.278247,-0.081518 -0.619829,-0.081518 -0.341582,0 -0.419392,0.010233 -0.61983,0.081518 C 10.05767,8.2161921 9.8317979,8.3581819 9.594902,8.5950823 9.3589299,8.8310588 9.2171059,9.056148 9.1002427,9.3801591 L 9.0175694,9.6093752 9.0066932,10.804688 8.9958165,12 H 7.995722 6.9956273 Z"
       id="path819"
       inkscape:connector-curvature="0" />
  </g>
</svg>
