<?xml version="1.0" encoding="UTF-8" standalone="no"?>
<!-- Created with Inkscape (http://www.inkscape.org/) -->

<svg
   version="1.1"
   id="svg2"
   width="1600"
   height="1600"
   viewBox="0 0 1600 1600"
   sodipodi:docname="flatten.svg"
   inkscape:version="1.4.3 (0d15f75, 2025-12-25)"
   xml:space="preserve"
   xmlns:inkscape="http://www.inkscape.org/namespaces/inkscape"
   xmlns:sodipodi="http://sodipodi.sourceforge.net/DTD/sodipodi-0.dtd"
   xmlns="http://www.w3.org/2000/svg"
   xmlns:svg="http://www.w3.org/2000/svg"
   xmlns:rdf="http://www.w3.org/1999/02/22-rdf-syntax-ns#"
   xmlns:cc="http://creativecommons.org/ns#"
   xmlns:dc="http://purl.org/dc/elements/1.1/"><metadata
     id="metadata8"><rdf:RDF><cc:Work
         rdf:about=""><dc:format>image/svg+xml</dc:format><dc:type
           rdf:resource="http://purl.org/dc/dcmitype/StillImage" /></cc:Work></rdf:RDF></metadata><defs
     id="defs6" /><sodipodi:namedview
     pagecolor="#808080"
     bordercolor="#666666"
     borderopacity="1"
     objecttolerance="10"
     gridtolerance="10"
     guidetolerance="10"
     inkscape:pageopacity="0"
     inkscape:pageshadow="2"
     inkscape:window-width="1904"
     inkscape:window-height="993"
     id="namedview4"
     showgrid="false"
     fit-margin-top="0"
     fit-margin-left="0"
     fit-margin-right="0"
     fit-margin-bottom="0"
     inkscape:zoom="0.35355339"
     inkscape:cx="868.32713"
     inkscape:cy="667.5088"
     inkscape:window-x="1920"
     inkscape:window-y="0"
     inkscape:window-maximized="1"
     inkscape:current-layer="FLATTEN_HANDLER"
     inkscape:showpageshadow="0"
     inkscape:pagecheckerboard="true"
     inkscape:deskcolor="#d1d1d1" /><g
     id="FLATTEN_HANDLER"
     transform="matrix(100.0183,0,0,100.0183,6.2570154e-4,0)"
     style="stroke-width:0.0099982"><path
       style="fill:#98cbfe;fill-opacity:1;stroke-width:0.000549972"
       d="m 3.1908646,13.279417 c 0.015105,-0.193013 0.026614,-0.771142 0.025572,-1.284723 l -0.00189,-0.933783 1.2280171,2.69e-4 8.4279433,-0.03811 v 1.283944 1.283948 l -8.4535145,0.03886 -1.2535883,5.01e-4 0.027466,-0.350942 z"
       id="path829"
       inkscape:connector-curvature="0"
       sodipodi:nodetypes="csccccccccc" /><path
       style="fill:none;stroke-width:0.00031244"
       d="m 0.00112733,17.100099 c 0.00209179,-5.808451 0.00903371,-6.868812 0.04393481,-6.710938 0.14448742,0.653585 0.65603404,1.213155 1.30269386,1.42499 0.3299643,0.10809 0.8786442,0.107871 1.2094548,-4.85e-4 0.3737782,-0.122429 0.8612871,-0.486217 1.0007205,-0.746755 l 0.036593,-0.06837 h 1.2020027 1.2020031 v 0.5 0.5 H 7.998493 9.9984556 v -0.5 -0.5 h 1.1693044 1.169304 l 0.07186,0.117188 c 0.203339,0.331583 0.632584,0.661244 1.030847,0.791693 0.330811,0.108355 0.879491,0.108574 1.209455,4.85e-4 0.64666,-0.211835 1.158207,-0.771405 1.302694,-1.424989 0.0353,-0.159684 0.0414,0.329415 0.04113,3.296875 -2.82e-4,3.05948 -0.0056,3.455286 -0.0435,3.24583 -0.107601,-0.59455 -0.457128,-1.422373 -0.809692,-1.917706 -0.236761,-0.332635 -0.904613,-1.00227 -1.235226,-1.238523 -0.522197,-0.373158 -1.335516,-0.715405 -1.958101,-0.823977 -0.368869,-0.06433 -1.527319,-0.06433 -1.896189,0 -0.6225845,0.108572 -1.4359029,0.450819 -1.9581006,0.823977 -0.3306123,0.236253 -0.9984649,0.905888 -1.2352254,1.238523 -0.3615942,0.50802 -0.7046354,1.329056 -0.8116115,1.942513 -0.039435,0.226139 -0.046874,0.73665 -0.046874,3.216658 0,2.864354 0.00176,2.952558 0.062057,3.113726 0.079479,0.212431 0.3356731,0.471177 0.5489921,0.554461 0.1542409,0.06022 0.1475492,0.06035 -3.2281879,0.06181 l -3.38274869,0.0015 z m 9.38627887,6.83517 c 0.213319,-0.08328 0.469513,-0.34203 0.548992,-0.554461 0.060065,-0.16054 0.062057,-0.248482 0.062057,-2.738553 0,-1.609617 0.011872,-2.635292 0.031715,-2.739924 0.06603,-0.348185 0.276147,-0.631663 0.578463,-0.780432 0.219856,-0.10819 0.559749,-0.10819 0.779605,0 0.302317,0.148769 0.512434,0.432247 0.578464,0.780432 0.01984,0.104632 0.03172,1.130307 0.03172,2.739924 0,2.490071 0.002,2.578013 0.06206,2.738553 0.07948,0.212431 0.335673,0.471177 0.548993,0.554461 l 0.154561,0.06034 H 10.998437 9.2328449 Z m 6.0021218,-3.35e-4 c 0.203451,-0.0783 0.464763,-0.340528 0.545549,-0.547458 l 0.06034,-0.154564 0.0015,0.382812 0.0015,0.382812 -0.382805,-0.0016 -0.382805,-0.0016 0.156795,-0.06035 z M 15.966435,9.6938489 C 15.965445,9.5648479 15.829909,9.2057833 15.712513,9.0211569 15.466178,8.6337507 15.069068,8.3204284 14.650734,8.1834056 14.319924,8.0750507 13.771244,8.0748313 13.441279,8.182922 13.06251,8.3070004 12.678362,8.58735 12.462851,8.8969738 l -0.09244,0.1328125 H 11.184432 9.9984556 v -0.515625 -0.515625 h 2.9999434 2.999944 v 0.890625 c 0,0.4898438 -0.007,0.8906251 -0.01563,0.8906251 -0.0086,0 -0.01592,-0.038672 -0.01628,-0.085937 z M 0.00112733,8.8500988 -0.00135699,7.9985363 0.85018956,8.0010206 C 1.6343876,8.0033085 1.6869071,8.0067834 1.5142396,8.0449563 0.79536899,8.2038824 0.20398531,8.7952772 0.04506214,9.5141614 0.00688996,9.686832 0.00341517,9.6343116 0.00112733,8.8500988 Z M 3.589401,8.8813488 C 3.302177,8.4536121 2.8675055,8.1506938 2.3892231,8.0449563 2.2258244,8.0088325 2.4457156,8.0031857 4.1001287,8.0010206 l 1.8984019,-0.00248 v 0.515625 0.515625 H 4.8438035 3.6890765 Z"
       id="path831"
       inkscape:connector-curvature="0" /><g
       id="BEND"
       transform="matrix(0.99981703,0,0,0.99981703,-6.2280076e-6,-3.2194108)"
       style="stroke-width:0.0114286"><path
         style="fill:none;stroke-width:0.000357143"
         d="M 4.1806406e-4,12.710938 8.3612844e-4,9.421875 0.09018535,9.6785575 C 0.20587563,10.010913 0.32245869,10.1887 0.601215,10.45787 c 0.26622569,0.25707 0.4210492,0.352683 0.7480449,0.461963 0.2099806,0.07017 0.2917895,0.08011 0.65625,0.07975 0.3767753,-3.78e-4 0.4407716,-0.0089 0.6730477,-0.08977 0.3323553,-0.115691 0.5101427,-0.232274 0.7793127,-0.51103 C 3.7157113,10.131761 3.8105134,9.9778472 3.9212794,9.6464297 3.9950459,9.4257159 4.0024469,9.360285 3.9982447,8.9659903 3.9932341,8.4958828 4.0002791,8.47128 4.1642078,8.38651 4.2140569,8.3607319 4.3197259,8.2901141 4.3990281,8.2295816 4.744235,7.9660791 5.5806003,7.6179741 6.2269259,7.4687894 l 0.305051,-0.070412 0.1485312,0.1389334 C 6.8737441,7.7180606 7.0539716,7.8211494 7.34926,7.9198325 7.558205,7.9896603 7.6421356,8 8,8 8.3578644,8 8.441795,7.9896603 8.65074,7.9198325 8.9460284,7.8211494 9.1262559,7.7180606 9.3194919,7.5373109 l 0.1485312,-0.1389334 0.305051,0.070412 c 0.6474229,0.1494381 1.4863709,0.5000987 1.8372399,0.7679234 0.07416,0.05661 0.175629,0.1240191 0.225478,0.1497972 0.163928,0.08477 0.170974,0.1093728 0.165963,0.5794803 -0.0042,0.3942947 0.0032,0.4597256 0.07697,0.6804394 0.110766,0.3314175 0.205568,0.4853312 0.463409,0.7523552 0.26917,0.278756 0.446957,0.395339 0.779313,0.51103 0.232275,0.08085 0.296272,0.08939 0.673047,0.08977 0.364461,3.66e-4 0.446269,-0.0096 0.65625,-0.07975 0.326996,-0.10928 0.481819,-0.204893 0.748045,-0.461963 0.278756,-0.26917 0.395339,-0.446957 0.51103,-0.7793124 L 15.999169,9.4218771 15.999587,12.71094 16,16 H 8 0 Z m 0,-8.4218755 L 0,0 h 8 8 l -4.19e-4,4.2890625 -4.18e-4,4.2890625 -0.08935,-0.2566825 C 15.860671,8.1802669 15.776641,7.9964669 15.723079,7.9129981 15.600107,7.7213606 15.215759,7.3484075 15.03125,7.2416794 14.817208,7.1178675 14.432931,7 14.243315,7 14.082983,7 14.069104,6.9931519 13.9207,6.8408091 13.086174,5.9841353 11.620623,5.2585122 10.105178,4.9516691 L 9.7176972,4.8732131 9.4811762,4.6256494 C 9.196035,4.3271956 9.0177572,4.2082581 8.6785575,4.0901853 8.4452547,4.0089744 8.3834491,4.0008362 8,4.0008362 c -0.3834491,0 -0.4452547,0.00814 -0.6785575,0.089349 C 6.9822428,4.2082581 6.803965,4.3271956 6.5188237,4.6256494 L 6.2823028,4.8732131 5.8948219,4.9516691 C 4.3793772,5.2585122 2.9138259,5.9841353 2.0792998,6.8408091 1.9308957,6.9931519 1.9170171,7 1.7566847,7 1.5670695,7 1.1827916,7.1178675 0.96875,7.2416794 0.78424131,7.3484075 0.39989322,7.7213606 0.27691978,7.9129981 0.22335791,7.9964669 0.13932742,8.1802669 0.09018535,8.3214425 L 8.3612844e-4,8.578125 Z"
         id="path825-8"
         inkscape:connector-curvature="0" /><path
         style="fill:#fefefe;fill-opacity:1;stroke-width:0.000357143"
         d="M 3.9397263,8.3990622 C 3.8188706,7.9886194 3.4611041,7.5169806 3.0899478,7.27881 2.8321268,7.1133669 2.4617217,7.0009031 2.1730498,7.0004181 L 1.9242245,7 2.0792998,6.8408091 C 2.9113864,5.9866394 4.3777341,5.2594225 5.8843759,4.9537287 c 0.2079338,-0.042189 0.382866,-0.071904 0.3887378,-0.066032 0.00587,0.00587 -0.017118,0.058152 -0.05109,0.1161772 C 6.1880531,5.0618997 6.1242003,5.2173231 6.0801294,5.34926 6.0103506,5.5581578 6,5.6422166 6,6 6,6.3578644 6.01034,6.441795 6.080167,6.65074 6.172607,6.9273475 6.2754423,7.1150522 6.4256029,7.2812619 l 0.1059047,0.1172237 -0.3048165,0.070358 c -0.6448844,0.1488522 -1.4824732,0.4972485 -1.82617,0.7595982 -0.078481,0.059906 -0.1760944,0.1261765 -0.2169194,0.147269 -0.040825,0.021092 -0.1035578,0.064998 -0.139406,0.097569 -0.064895,0.058962 -0.06535,0.058639 -0.1044694,-0.074218 z m 8.0282307,0.084357 C 11.945115,8.4558972 11.885642,8.4122878 11.835792,8.38651 11.785943,8.3607319 11.684478,8.2933231 11.610314,8.2367128 11.259501,7.9689309 10.4205,7.6182281 9.7733084,7.4688434 L 9.4684919,7.3984856 9.5743966,7.2812619 C 9.7245572,7.1150522 9.8273925,6.9273475 9.9198325,6.65074 9.9896603,6.441795 10,6.3578644 10,6 10,5.6422166 9.9896494,5.5581578 9.9198706,5.34926 9.8757997,5.2173231 9.8119469,5.0618997 9.7779759,5.0038741 9.7440047,4.9458484 9.7210144,4.8935687 9.7268863,4.8876969 c 0.00587,-0.00587 0.180804,0.023842 0.3887377,0.066032 1.506642,0.3056937 2.972989,1.0329106 3.805076,1.8870803 L 14.075776,7 H 13.83246 C 13.563458,7 13.22038,7.0960406 12.96875,7.2417856 12.794765,7.3425581 12.432505,7.6865978 12.302,7.875 c -0.05358,0.077344 -0.141308,0.2571378 -0.194962,0.3995422 -0.08484,0.2251712 -0.102964,0.2523953 -0.139081,0.208877 z"
         id="path823-2"
         inkscape:connector-curvature="0" /><path
         style="fill:#fea900;stroke-width:0.000357143;fill-opacity:1"
         d="M 1.4966697,10.425801 C 0.87387719,10.205949 0.5,9.6710934 0.5,9 0.5,8.5670697 0.61495672,8.269205 0.90051594,7.9622222 1.1921374,7.6487222 1.5459018,7.5 2,7.5 c 0.5518773,0 1.0235507,0.2601756 1.303025,0.71875 0.2643772,0.4338019 0.2643772,1.1286981 0,1.5625 -0.1009653,0.1656688 -0.3232062,0.392712 -0.4857871,0.496284 -0.3656692,0.23295 -0.9081448,0.293857 -1.3205682,0.148267 z m 12.0000003,0 C 12.873877,10.205949 12.5,9.6710934 12.5,9 12.5,8.5670697 12.614957,8.269205 12.900516,7.9622222 13.192137,7.6487222 13.545902,7.5 14,7.5 c 0.454098,0 0.807863,0.1487222 1.099484,0.4622222 C 15.385043,8.269205 15.5,8.5670697 15.5,9 c 0,0.4329303 -0.114957,0.730795 -0.400516,1.037778 -0.29386,0.315906 -0.645491,0.46261 -1.106311,0.461563 -0.222725,-5.06e-4 -0.337968,-0.01758 -0.496503,-0.07354 z M 7.4966697,7.4258009 C 6.8738772,7.2059491 6.5,6.6710934 6.5,6 6.5,5.5670697 6.6149569,5.269205 6.9005159,4.9622222 7.1921375,4.6487222 7.5459019,4.5 8,4.5 8.4540981,4.5 8.8078625,4.6487222 9.0994841,4.9622222 9.3850431,5.269205 9.5,5.5670697 9.5,6 9.5,6.4329303 9.3850431,6.730795 9.0994841,7.0377778 8.8056241,7.3536844 8.4539928,7.5003881 7.9931734,7.4993409 7.7704478,7.4988347 7.655205,7.4817653 7.4966697,7.4258009 Z"
         id="path821-4"
         inkscape:connector-curvature="0" /><path
         style="fill:#000000;stroke-width:0.000357143;fill-opacity:1"
         d="M 1.3214424,10.909815 C 0.98908709,10.794124 0.81129969,10.677541 0.54212981,10.398785 0.28505963,10.132559 0.18944691,9.9777359 0.08016759,9.65074 0.01033978,9.441795 0,9.3578644 0,9 0,8.6421356 0.01033978,8.558205 0.08016759,8.34926 0.18944691,8.0222641 0.28505963,7.8674406 0.54212981,7.601215 0.81129969,7.3224587 0.98908709,7.2058756 1.3214424,7.0901853 1.5547454,7.0089744 1.6165509,7.0008362 2,7.0008362 c 0.3834491,0 0.4452546,0.00814 0.6785576,0.089349 C 3.0109129,7.2058756 3.1887003,7.3224587 3.4578703,7.601215 3.7149403,7.8674406 3.8105531,8.0222641 3.9198325,8.34926 3.9896603,8.558205 4,8.6421356 4,9 4,9.3578644 3.9896603,9.441795 3.9198325,9.65074 3.8105531,9.9777359 3.7149403,10.132559 3.4578703,10.398785 3.1887003,10.677541 3.0109129,10.794124 2.6785576,10.909815 2.4452546,10.991026 2.3834491,10.999164 2,10.999164 c -0.3834491,0 -0.4452546,-0.0081 -0.6785576,-0.08935 z M 2.4775483,10.435069 C 2.8132126,10.322912 3.1219379,10.078386 3.303025,9.78125 c 0.2643772,-0.4338019 0.2643772,-1.1286981 0,-1.5625 C 3.2020597,8.0530813 2.9798188,7.8260381 2.8172379,7.7224659 2.3439746,7.4209731 1.6560254,7.4209731 1.1827621,7.7224659 0.74331247,8.0024178 0.5,8.4576859 0.5,9 c 0,0.6710934 0.37387719,1.205949 0.9966697,1.425801 0.2789205,0.09846 0.7019752,0.102459 0.9808786,0.0093 z M 13.321443,10.909815 C 12.989087,10.794124 12.8113,10.677541 12.54213,10.398785 12.28506,10.132559 12.189447,9.9777359 12.080168,9.65074 12.01034,9.441795 12,9.3578644 12,9 12,8.6421356 12.01034,8.558205 12.080168,8.34926 12.189447,8.0222641 12.28506,7.8674406 12.54213,7.601215 12.8113,7.3224587 12.989087,7.2058756 13.321443,7.0901853 13.554745,7.0089744 13.616551,7.0008362 14,7.0008362 c 0.383449,0 0.445255,0.00814 0.678558,0.089349 0.332355,0.1156903 0.510142,0.2322734 0.779312,0.5110297 0.25707,0.2662256 0.352683,0.4210491 0.461963,0.748045 C 15.98966,8.558205 16,8.6421356 16,9 c 0,0.3578644 -0.01034,0.441795 -0.08017,0.65074 -0.10928,0.3269959 -0.204893,0.481819 -0.461963,0.748045 -0.26917,0.278756 -0.446957,0.395339 -0.779312,0.51103 -0.233303,0.08121 -0.295109,0.08935 -0.678558,0.08935 -0.383449,0 -0.445255,-0.0081 -0.678557,-0.08935 z m 1.156105,-0.474746 c 0.247793,-0.0828 0.448876,-0.211247 0.621936,-0.397291 C 15.385043,9.730795 15.5,9.4329303 15.5,9 15.5,8.5670697 15.385043,8.269205 15.099484,7.9622222 14.807863,7.6487222 14.454098,7.5 14,7.5 13.545902,7.5 13.192137,7.6487222 12.900516,7.9622222 12.614957,8.269205 12.5,8.5670697 12.5,9 c 0,0.6710934 0.373877,1.205949 0.99667,1.425801 0.27892,0.09846 0.701975,0.102459 0.980878,0.0093 z M 7.3214425,7.9098147 C 6.9890872,7.7941244 6.8112997,7.6775412 6.5421297,7.398785 6.2850597,7.1325594 6.1894469,6.9777359 6.0801675,6.65074 6.0103397,6.441795 6,6.3578644 6,6 6,5.6421356 6.0103397,5.558205 6.0801675,5.34926 6.1894469,5.0222641 6.2850597,4.8674406 6.5421297,4.601215 6.8112997,4.3224587 6.9890872,4.2058756 7.3214425,4.0901853 7.5547453,4.0089744 7.6165509,4.0008362 8,4.0008362 c 0.3834491,0 0.4452547,0.00814 0.6785575,0.089349 C 9.0109128,4.2058756 9.1887003,4.3224587 9.4578703,4.601215 9.7149403,4.8674406 9.8105531,5.0222641 9.9198325,5.34926 9.9896603,5.558205 10,5.6421356 10,6 10,6.3578644 9.9896603,6.441795 9.9198325,6.65074 9.8105531,6.9777359 9.7149403,7.1325594 9.4578703,7.398785 9.1887003,7.6775412 9.0109128,7.7941244 8.6785575,7.9098147 8.4452547,7.9910256 8.3834491,7.9991637 8,7.9991637 c -0.3834491,0 -0.4452547,-0.00814 -0.6785575,-0.089349 z M 8.4775484,7.4350687 C 8.7253406,7.3522731 8.9264241,7.2238216 9.0994841,7.0377778 9.3850431,6.730795 9.5,6.4329303 9.5,6 9.5,5.5670697 9.3850431,5.269205 9.0994841,4.9622222 8.8078625,4.6487222 8.4540981,4.5 8,4.5 7.5459019,4.5 7.1921375,4.6487222 6.9005159,4.9622222 6.6149569,5.269205 6.5,5.5670697 6.5,6 c 0,0.6710934 0.3738772,1.2059491 0.9966697,1.4258009 0.2789206,0.098462 0.7019753,0.1024591 0.9808787,0.00927 z"
         id="path819-5"
         inkscape:connector-curvature="0" /></g><path
       style="fill:#fea900;stroke-width:0.00031244"
       d="m 7.6704203,13.488534 c -0.37723,-0.07367 -0.822444,-0.431365 -0.988567,-0.794231 -0.171673,-0.374991 -0.172107,-0.873229 -0.0011,-1.246796 0.112226,-0.245138 0.418107,-0.557154 0.665691,-0.679041 0.394416,-0.194175 0.910663,-0.193722 1.306487,0.0011 0.245184,0.120706 0.551659,0.433895 0.663365,0.677896 0.171021,0.373567 0.170587,0.871805 -0.0011,1.246796 -0.110031,0.240371 -0.418521,0.555688 -0.658451,0.673037 -0.298991,0.146235 -0.642193,0.188405 -0.986341,0.121193 z"
       id="path825" /><path
       id="path3-2"
       style="baseline-shift:baseline;display:inline;overflow:visible;vector-effect:none;fill:#653200;fill-opacity:1;stroke-width:0.0099982;enable-background:accumulate;stop-color:#000000"
       d="m 13.187258,10.623004 c -0.404506,0.19914 -0.709933,0.508166 -0.898437,0.919921 -0.241161,0.526818 -0.241303,1.135024 0,1.66211 0.255082,0.557183 0.744287,0.958338 1.347656,1.076172 0.424311,0.07575 0.89494,0.04178 1.302734,-0.162113 0.405503,-0.19833 0.704228,-0.502598 0.892578,-0.914062 0.241325,-0.527092 0.243136,-1.135286 0.0019,-1.66211 -0.188367,-0.411452 -0.493932,-0.72078 -0.898437,-0.919921 -0.550065,-0.270739 -1.198271,-0.270661 -1.748047,0 z M 7.125,10.72024 c -0.4045063,0.19914 -0.7099327,0.508166 -0.8984375,0.919921 -0.2411602,0.526818 -0.2413028,1.135024 0,1.66211 0.2550829,0.557183 0.7442872,0.958338 1.3476562,1.076172 0.4243113,0.07575 0.8949403,0.04178 1.3027343,-0.162113 0.4055032,-0.19833 0.7042283,-0.502598 0.8925782,-0.914062 0.2413248,-0.527092 0.2431358,-1.135286 0.00195,-1.66211 -0.1883669,-0.411452 -0.4939319,-0.72078 -0.8984375,-0.919921 -0.550065,-0.270739 -1.1982712,-0.270661 -1.7480469,0 z M 1.0783382,10.526811 c -0.4045063,0.19914 -0.7099327,0.508166 -0.8984375,0.919921 -0.2411602,0.526818 -0.2413028,1.135024 0,1.66211 0.2550829,0.557183 0.7442872,0.958338 1.3476562,1.076172 0.4243113,0.07575 0.8949403,0.04178 1.3027343,-0.162113 0.4055032,-0.19833 0.7042283,-0.502598 0.8925782,-0.914062 0.2413248,-0.527092 0.2431358,-1.135286 0.00195,-1.66211 -0.1883669,-0.411452 -0.4939319,-0.72078 -0.8984375,-0.919921 -0.550065,-0.270739 -1.1982712,-0.270661 -1.7480469,0 z" /><path
       id="path2-7"
       style="baseline-shift:baseline;display:inline;overflow:visible;vector-effect:none;fill:#fe9832;fill-opacity:1;stroke-width:0.0099982;enable-background:accumulate;stop-color:#000000"
       d="m 13.732678,13.791225 c -0.37723,-0.07367 -0.822444,-0.431365 -0.988567,-0.794231 -0.171673,-0.374991 -0.172107,-0.873229 -0.0011,-1.246796 0.112226,-0.245138 0.418107,-0.557154 0.665691,-0.679041 0.394416,-0.194175 0.910663,-0.193722 1.306487,0.0011 0.245184,0.120706 0.551659,0.433895 0.663365,0.677896 0.171021,0.373567 0.170587,0.871805 -0.0011,1.246796 -0.110031,0.240371 -0.418521,0.555688 -0.658451,0.673037 -0.298991,0.146235 -0.642193,0.188405 -0.986341,0.121193 z m -6.0622577,0.09724 c -0.37723,-0.07367 -0.822444,-0.431365 -0.988567,-0.794231 -0.171673,-0.374991 -0.172107,-0.873229 -0.0011,-1.246796 0.112226,-0.245138 0.418107,-0.557154 0.665691,-0.679041 0.394416,-0.194175 0.910663,-0.193722 1.306487,0.0011 0.245184,0.120706 0.551659,0.433895 0.663365,0.677896 0.171021,0.373567 0.170587,0.871805 -0.0011,1.246796 -0.110031,0.240371 -0.418521,0.555688 -0.658451,0.673037 -0.298991,0.146235 -0.642193,0.188405 -0.986341,0.121193 z M 1.6237585,13.695032 c -0.37723,-0.07367 -0.822444,-0.431365 -0.988567,-0.794231 -0.171673,-0.374991 -0.172107,-0.873229 -0.0011,-1.246796 0.112226,-0.245138 0.418107,-0.557154 0.665691,-0.679041 0.394416,-0.194175 0.910663,-0.193722 1.306487,0.0011 0.245184,0.120706 0.551659,0.433895 0.663365,0.677896 0.171021,0.373567 0.170587,0.871805 -0.0011,1.246796 -0.110031,0.240371 -0.418521,0.555688 -0.658451,0.673037 -0.298991,0.146235 -0.642193,0.188405 -0.986341,0.121193 z" /><g
       id="g5"
       enable-background="new"
       transform="matrix(0,0.99981703,-0.99981703,0,-2.1196187,-4.7082486)"
       style="fill:#ffffff;stroke-width:0.0114286"><path
         id="rect1"
         style="display:none;fill:#cb6500;fill-opacity:1;fill-rule:evenodd;stroke-width:0.0101482"
         inkscape:label="rect1"
         d="m -16,-16 v 3 h 1.5 c 0.275171,0 0.4985,0.222388 0.5,0.497207 h 8 C -5.9985,-12.777612 -5.7752106,-13 -5.5,-13 H -4 v -3 z"
         transform="matrix(0,-1,-1,0,0,0)" /><g
         id="path5"
         style="opacity:1;stroke-width:0.0123756"
         transform="matrix(0.92347826,0,0,0.92347826,2.9305254,-19.354783)"><path
           style="baseline-shift:baseline;display:inline;overflow:visible;vector-effect:none;fill:#009b00;fill-opacity:1;stroke-width:0.0123756;stroke-linecap:round;stroke-linejoin:round;paint-order:stroke fill markers;enable-background:accumulate;stop-color:#000000;stop-opacity:1"
           d="M 12.5,7.125 C 12.021211,7.125 11.625,7.5211522 11.625,8 V 9.125 H 7 A 0.3750375,0.3750375 0 0 0 6.625,9.5 v 1 A 0.3750375,0.3750375 0 0 0 7,10.875 h 4.625 V 12 c 0,0.478835 0.396165,0.875 0.875,0.875 0.239476,0 0.461274,-0.09817 0.619141,-0.255859 l 2,-2 C 15.276833,10.461274 15.375,10.239476 15.375,10 c 0,-0.2394705 -0.09811,-0.4612746 -0.255859,-0.6191406 l -2,-2 C 12.961214,7.2229501 12.739403,7.125 12.5,7.125 Z m 0,0.75 c 0.0368,0 0.06482,0.014039 0.08789,0.037109 l 2,2 C 14.610947,9.9351833 14.625,9.9633105 14.625,10 c 0,0.03672 -0.014,0.06476 -0.03711,0.08789 l -2,2 C 12.56476,12.111 12.53672,12.125 12.5,12.125 12.42663,12.125 12.375,12.07337 12.375,12 V 10.5 A 0.3750375,0.3750375 0 0 0 12,10.125 H 7.375 V 9.875 H 12 A 0.3750375,0.3750375 0 0 0 12.375,9.5 V 8 c 0,-0.073452 0.05159,-0.125 0.125,-0.125 z"
           id="path7" /><path
           style="baseline-shift:baseline;display:inline;overflow:visible;vector-effect:none;fill:#00ff00;stroke-width:0.0134011;stroke-linecap:round;stroke-linejoin:round;paint-order:stroke fill markers;enable-background:accumulate;stop-color:#000000;stop-opacity:1"
           d="m 14.8536,9.64645 -2,-2 C 12.7631,7.55596 12.6381,7.5 12.5,7.5 12.2239,7.5 12,7.72385 12,8 V 9.5 H 7 v 1 h 5 V 12 c 0,0.2761 0.2239,0.5 0.5,0.5 0.1381,0 0.2631,-0.056 0.3536,-0.1464 l 2,-2 C 14.944,10.2631 15,10.1381 15,10 15,9.86192 14.944,9.73692 14.8536,9.64645 Z"
           id="path8" /></g></g></g></svg>
