<?xml version="1.0" encoding="UTF-8" standalone="no"?>
<!-- Created with Inkscape (http://www.inkscape.org/) -->

<svg
   version="1.1"
   id="svg2"
   width="1600"
   height="1600"
   viewBox="0 0 1600 1600"
   sodipodi:docname="flock.svg"
   inkscape:version="1.2.2 (732a01da63, 2022-12-09)"
   xmlns:inkscape="http://www.inkscape.org/namespaces/inkscape"
   xmlns:sodipodi="http://sodipodi.sourceforge.net/DTD/sodipodi-0.dtd"
   xmlns="http://www.w3.org/2000/svg"
   xmlns:svg="http://www.w3.org/2000/svg"
   xmlns:rdf="http://www.w3.org/1999/02/22-rdf-syntax-ns#"
   xmlns:cc="http://creativecommons.org/ns#"
   xmlns:dc="http://purl.org/dc/elements/1.1/">
  <metadata
     id="metadata8">
    <rdf:RDF>
      <cc:Work
         rdf:about="">
        <dc:format>image/svg+xml</dc:format>
        <dc:type
           rdf:resource="http://purl.org/dc/dcmitype/StillImage" />
      </cc:Work>
    </rdf:RDF>
  </metadata>
  <defs
     id="defs6" />
  <sodipodi:namedview
     pagecolor="#808080"
     bordercolor="#666666"
     borderopacity="1"
     objecttolerance="10"
     gridtolerance="10"
     guidetolerance="10"
     inkscape:pageopacity="0"
     inkscape:pageshadow="2"
     inkscape:window-width="1993"
     inkscape:window-height="1009"
     id="namedview4"
     showgrid="false"
     inkscape:zoom="0.5"
     inkscape:cx="407"
     inkscape:cy="330"
     inkscape:window-x="-8"
     inkscape:window-y="-8"
     inkscape:window-maximized="1"
     inkscape:current-layer="FLOCK"
     inkscape:showpageshadow="0"
     inkscape:pagecheckerboard="true"
     inkscape:deskcolor="#d1d1d1" />
  <g
     id="FLOCK"
     transform="matrix(100,0,0,100,0,4.9999997e-5)"
     style="stroke-width:0.0114286">
    <path
       style="fill:none;stroke-width:0.000357143"
       d="M 0,8 V 0 h 8 8 v 8 8 H 8 0 Z m 9.0295581,7.007813 c -9.312e-4,-0.01289 -0.2242159,-0.466404 -0.49619,-1.007807 L 8.03887,13.015637 8.5368597,12.020035 c 0.2738944,-0.547581 0.4927362,-1.000856 0.4863156,-1.007276 -0.00642,-0.0064 -0.5337719,0.197417 -1.1718912,0.452974 L 6.6910666,11.930381 6.6046334,11.805658 C 6.3695994,11.466504 5.8575859,11.138019 5.421875,11.046855 4.0018228,10.749734 2.7497343,12.001823 3.0468548,13.421875 3.2350816,14.321483 4.0740731,14.998915 5,14.998915 c 0.5045556,0 1.0154666,-0.206958 1.3715359,-0.555576 0.1173869,-0.11493 0.234075,-0.240271 0.2593075,-0.278535 l 0.045877,-0.06957 1.1538272,0.465193 c 0.6346053,0.255855 1.1643744,0.466459 1.177265,0.468008 0.012891,0.0015 0.022676,-0.0077 0.021746,-0.02062 z m -2,-5 C 7.0286269,9.9949219 6.8053422,9.5414091 6.5333681,9.0000059 L 6.03887,8.0156369 6.5368597,7.020035 C 6.8107541,6.4724537 7.0295959,6.0191794 7.0231753,6.0127587 7.0167544,6.0063378 6.4894034,6.2101762 5.8512841,6.4657328 L 4.6910666,6.9303809 4.6046334,6.8056578 C 4.3695994,6.4665037 3.8575859,6.1380194 3.421875,6.0468547 2.0018229,5.7497344 0.74973425,7.0018228 1.0468547,8.421875 1.2350816,9.3214828 2.074073,9.9989147 3,9.9989147 c 0.5045556,0 1.0154666,-0.2069575 1.3715359,-0.5555756 0.1173869,-0.1149303 0.234075,-0.240271 0.2593075,-0.2785347 l 0.045877,-0.069571 1.1538272,0.4651922 c 0.6346053,0.2558556 1.1643744,0.4664594 1.177265,0.4680084 0.012891,0.0015 0.022676,-0.0077 0.021746,-0.02062 z m 7.9999999,0 C 15.028627,9.9949219 14.805342,9.5414091 14.533368,9.0000059 L 14.03887,8.0156369 14.53686,7.020035 c 0.273894,-0.5475813 0.492736,-1.0008556 0.486315,-1.0072763 -0.0064,-0.00642 -0.533772,0.1974175 -1.171891,0.4529741 L 12.691067,6.9303809 12.604633,6.8056578 C 12.369599,6.4665037 11.857586,6.1380194 11.421875,6.0468547 10.001823,5.7497344 8.7497344,7.0018228 9.0468547,8.421875 9.2350816,9.3214828 10.074073,9.9989147 11,9.9989147 c 0.504556,0 1.015467,-0.2069575 1.371536,-0.5555756 0.117387,-0.1149303 0.234075,-0.240271 0.259307,-0.2785347 l 0.04588,-0.069571 1.153827,0.4651922 c 0.634606,0.2558556 1.164375,0.4664594 1.177265,0.4680084 0.01289,0.0015 0.02268,-0.0077 0.02175,-0.02062 z m -2,-5.0000005 C 13.028627,4.9949219 12.805342,4.5414091 12.533368,4.0000059 L 12.03887,3.015637 12.53686,2.0200349 c 0.273894,-0.5475812 0.492736,-1.0008555 0.486315,-1.0072763 -0.0064,-0.00642 -0.533772,0.1974176 -1.171891,0.4529742 L 10.691067,1.9303811 10.604633,1.8056577 C 10.369599,1.4665036 9.8575859,1.1380194 9.421875,1.0468547 8.0018228,0.74973425 6.7497344,2.0018229 7.0468547,3.421875 7.2350816,4.3214828 8.0740731,4.9989147 9,4.9989147 c 0.5045556,0 1.015467,-0.2069575 1.371536,-0.5555756 0.117387,-0.1149304 0.234075,-0.240271 0.259307,-0.2785347 l 0.04588,-0.069571 1.153827,0.4651922 c 0.634606,0.2558556 1.164375,0.4664594 1.177265,0.4680082 0.01289,0.00155 0.02268,-0.00773 0.02175,-0.020621 z"
       id="path823"
       inkscape:connector-curvature="0" />
    <path
       style="fill:#65cbfe;stroke-width:0.000357143"
       d="m 7.8305475,14.560426 -1.1538272,-0.465193 -0.045877,0.06957 c -0.1276331,0.193552 -0.4836022,0.492854 -0.7314781,0.615035 -1.5103131,0.744453 -3.1966124,-0.55712 -2.8525105,-2.201714 0.2224061,-1.062963 1.2982061,-1.756574 2.3750202,-1.53127 0.4357109,0.09116 0.9477244,0.419649 1.1827584,0.758803 l 0.086433,0.124723 1.1602175,-0.464648 c 0.6381193,-0.255557 1.1654703,-0.459395 1.1718912,-0.452974 0.00642,0.0064 -0.2124212,0.459695 -0.4863156,1.007276 L 8.03887,13.015637 8.5333681,14.000006 c 0.2719741,0.541403 0.4952594,0.994916 0.49619,1.007807 9.313e-4,0.01289 -0.00885,0.02217 -0.021746,0.02062 -0.012891,-0.0015 -0.5426597,-0.212153 -1.177265,-0.468008 z M 4.6977753,12.957374 c 0.3210819,-0.134156 0.399355,-0.555097 0.1496513,-0.804801 -0.2027047,-0.202704 -0.4921485,-0.202704 -0.6948532,0 -0.3864546,0.386455 0.039958,1.015905 0.5452019,0.804801 z M 5.8305475,9.5604256 4.6767203,9.0952334 4.6308434,9.1648044 C 4.5032103,9.3583556 4.1472412,9.6576581 3.8993653,9.7798394 2.3890521,10.524292 0.70275288,9.2227191 1.0468547,7.578125 1.2350816,6.6785172 2.074073,6.0010853 3,6.0010853 c 0.6064322,0 1.2817037,0.338585 1.6046334,0.8045725 L 4.6910666,6.9303809 5.8512841,6.4657328 C 6.4894034,6.2101762 7.0167544,6.0063378 7.0231753,6.0127587 7.0295959,6.0191794 6.8107541,6.4724537 6.5368597,7.020035 L 6.03887,8.0156369 6.5333681,9.0000059 c 0.2719741,0.5414032 0.4952594,0.994916 0.49619,1.0078071 9.313e-4,0.01289 -0.00885,0.02217 -0.021746,0.02062 -0.012891,-0.0015 -0.5426597,-0.2121528 -1.177265,-0.4680084 z M 2.6977753,7.9573741 C 3.0188571,7.8232178 3.0971302,7.4022772 2.8474265,7.1525734 c -0.2027047,-0.2027047 -0.4921482,-0.2027047 -0.694853,0 -0.3864547,0.3864547 0.039958,1.015905 0.5452018,0.8048007 z M 13.830548,9.5604256 12.67672,9.0952334 12.630843,9.1648044 C 12.50321,9.3583556 12.147241,9.6576581 11.899365,9.7798394 10.389052,10.524292 8.7027528,9.2227191 9.0468547,7.578125 9.2350816,6.6785172 10.074073,6.0010853 11,6.0010853 c 0.606432,0 1.281704,0.338585 1.604633,0.8045725 l 0.08643,0.1247231 1.160217,-0.4646481 c 0.638119,-0.2555566 1.16547,-0.459395 1.171891,-0.4529741 0.0064,0.00642 -0.212421,0.459695 -0.486315,1.0072763 l -0.49799,0.9956019 0.494498,0.984369 c 0.271974,0.5414032 0.495259,0.994916 0.49619,1.0078071 9.31e-4,0.01289 -0.0089,0.02217 -0.02174,0.02062 -0.01289,-0.0015 -0.54266,-0.2121528 -1.177265,-0.4680084 z M 10.697775,7.9573741 c 0.321082,-0.1341563 0.399355,-0.5550969 0.149652,-0.8048007 -0.202705,-0.2027047 -0.492149,-0.2027047 -0.694854,0 -0.3864543,0.3864547 0.03996,1.015905 0.545202,0.8048007 z M 11.830548,4.5604256 10.67672,4.0952334 10.630843,4.1648044 C 10.50321,4.3583556 10.147241,4.6576581 9.8993653,4.7798394 8.3890522,5.5242916 6.7027528,4.2227191 7.0468547,2.578125 7.2692609,1.5151618 8.3450609,0.82155066 9.421875,1.0468547 c 0.4357109,0.091165 0.947724,0.4196489 1.182758,0.758803 l 0.08643,0.1247234 1.160217,-0.4646483 c 0.638119,-0.2555566 1.16547,-0.459395 1.171891,-0.4529742 0.0064,0.00642 -0.212421,0.4596951 -0.486315,1.0072763 l -0.49799,0.9956021 0.494498,0.9843689 c 0.271974,0.5414032 0.495259,0.994916 0.49619,1.0078066 9.31e-4,0.012891 -0.0089,0.02217 -0.02174,0.020621 -0.01289,-0.00155 -0.54266,-0.2121525 -1.177265,-0.4680081 z M 8.6977753,2.9573742 c 0.3210819,-0.1341565 0.399355,-0.555097 0.1496513,-0.8048007 -0.2027047,-0.2027047 -0.4921485,-0.2027047 -0.6948532,0 -0.3864547,0.3864548 0.039958,1.0159049 0.5452019,0.8048007 z"
       id="path821"
       inkscape:connector-curvature="0" />
    <path
       style="fill:#323232;stroke-width:0.000357143"
       d="m 4.2953256,12.956044 c -0.3153078,-0.13734 -0.3897712,-0.556451 -0.1427522,-0.803471 0.3510969,-0.351096 0.92643,-0.03662 0.834036,0.455882 -0.055262,0.294571 -0.4069831,0.471422 -0.6912838,0.347589 z M 2.2953257,7.9560437 C 1.9800177,7.8187044 1.9055544,7.3995928 2.1525735,7.1525734 c 0.2027048,-0.2027047 0.4921483,-0.2027047 0.694853,0 0.3878507,0.387851 -0.048476,1.0228357 -0.5521008,0.8034703 z m 8.0000003,0 C 9.9800178,7.8187044 9.9055544,7.3995928 10.152573,7.1525734 c 0.202705,-0.2027047 0.492149,-0.2027047 0.694854,0 0.38785,0.387851 -0.04848,1.0228357 -0.552101,0.8034703 z M 8.2953256,2.9560439 C 7.9800178,2.8187043 7.9055544,2.3995927 8.1525734,2.1525735 c 0.2027047,-0.2027047 0.4921485,-0.2027047 0.6948532,0 0.3878506,0.3878509 -0.048476,1.0228356 -0.552101,0.8034704 z"
       id="path819"
       inkscape:connector-curvature="0" />
  </g>
</svg>
