<?xml version="1.0" encoding="UTF-8" standalone="no"?>
<!-- Created with Inkscape (http://www.inkscape.org/) -->

<svg
   version="1.1"
   id="svg2"
   width="1600"
   height="1600"
   viewBox="0 0 1600 1600"
   sodipodi:docname="follow_leader.svg"
   inkscape:version="1.2.2 (732a01da63, 2022-12-09)"
   xmlns:inkscape="http://www.inkscape.org/namespaces/inkscape"
   xmlns:sodipodi="http://sodipodi.sourceforge.net/DTD/sodipodi-0.dtd"
   xmlns="http://www.w3.org/2000/svg"
   xmlns:svg="http://www.w3.org/2000/svg"
   xmlns:rdf="http://www.w3.org/1999/02/22-rdf-syntax-ns#"
   xmlns:cc="http://creativecommons.org/ns#"
   xmlns:dc="http://purl.org/dc/elements/1.1/">
  <metadata
     id="metadata8">
    <rdf:RDF>
      <cc:Work
         rdf:about="">
        <dc:format>image/svg+xml</dc:format>
        <dc:type
           rdf:resource="http://purl.org/dc/dcmitype/StillImage" />
      </cc:Work>
    </rdf:RDF>
  </metadata>
  <defs
     id="defs6" />
  <sodipodi:namedview
     pagecolor="#808080"
     bordercolor="#666666"
     borderopacity="1"
     objecttolerance="10"
     gridtolerance="10"
     guidetolerance="10"
     inkscape:pageopacity="0"
     inkscape:pageshadow="2"
     inkscape:window-width="1993"
     inkscape:window-height="1009"
     id="namedview4"
     showgrid="false"
     inkscape:zoom="0.5"
     inkscape:cx="383"
     inkscape:cy="354"
     inkscape:window-x="-8"
     inkscape:window-y="-8"
     inkscape:window-maximized="1"
     inkscape:current-layer="FOLLOW_LEADER"
     inkscape:showpageshadow="0"
     inkscape:pagecheckerboard="true"
     inkscape:deskcolor="#d1d1d1" />
  <g
     id="FOLLOW_LEADER"
     transform="matrix(100,0,0,100,0,4.9999997e-5)"
     style="stroke-width:0.0114286">
    <path
       style="fill:none;stroke-width:0.000357143"
       d="M 0,8 V 0 h 8 8 v 8 8 H 8 0 Z m 15.029558,5.007813 c -9.31e-4,-0.01289 -0.224216,-0.466404 -0.49619,-1.007807 l -0.494498,-0.984369 0.49799,-0.995602 c 0.273894,-0.5475813 0.492736,-1.0008556 0.486315,-1.0072763 -0.0064,-0.00642 -0.533772,0.1974175 -1.171891,0.4529741 L 12.691067,9.9303809 12.604633,9.8056578 C 12.369599,9.4665037 11.857586,9.1380194 11.421875,9.0468547 10.001823,8.7497344 8.7497344,10.001823 9.0468547,11.421875 9.2350816,12.321483 10.074073,12.998915 11,12.998915 c 0.504556,0 1.015467,-0.206958 1.371536,-0.555576 0.117387,-0.11493 0.234075,-0.240271 0.259307,-0.278535 l 0.04588,-0.06957 1.153827,0.465193 c 0.634606,0.255855 1.164375,0.466459 1.177265,0.468008 0.01289,0.0015 0.02268,-0.0077 0.02175,-0.02062 z m -7.9999999,-3 C 7.0286269,9.9949219 6.8053422,9.5414091 6.5333681,9.0000059 L 6.03887,8.0156369 6.5368597,7.020035 C 6.8107541,6.4724537 7.0295959,6.0191794 7.0231753,6.0127587 7.0167544,6.0063378 6.4894034,6.2101762 5.8512841,6.4657328 L 4.6910666,6.9303809 4.6046334,6.8056578 C 4.3695994,6.4665037 3.8575859,6.1380194 3.421875,6.0468547 2.0018229,5.7497344 0.74973425,7.0018228 1.0468547,8.421875 1.2350816,9.3214828 2.074073,9.9989147 3,9.9989147 c 0.5045556,0 1.0154666,-0.2069575 1.3715359,-0.5555756 0.1173869,-0.1149303 0.234075,-0.240271 0.2593075,-0.2785347 l 0.045877,-0.069571 1.1538272,0.4651922 c 0.6346053,0.2558556 1.1643744,0.4664594 1.177265,0.4680084 0.012891,0.0015 0.022676,-0.0077 0.021746,-0.02062 z M 15.029558,7.0078125 C 15.028627,6.9949219 14.805342,6.5414091 14.533368,6.0000059 L 14.03887,5.0156369 14.53686,4.020035 c 0.273894,-0.5475812 0.492736,-1.0008556 0.486315,-1.0072764 -0.0064,-0.00642 -0.533772,0.1974177 -1.171891,0.4529742 L 12.691067,3.9303809 12.604633,3.8056578 C 12.369599,3.4665038 11.857586,3.1380194 11.421875,3.0468548 10.001823,2.7497343 8.7497344,4.0018228 9.0468547,5.421875 9.2350816,6.3214828 10.074073,6.9989147 11,6.9989147 c 0.504556,0 1.015467,-0.2069575 1.371536,-0.5555756 0.117387,-0.1149304 0.234075,-0.240271 0.259307,-0.2785347 l 0.04588,-0.069571 1.153827,0.4651922 c 0.634606,0.2558556 1.164375,0.4664594 1.177265,0.4680082 0.01289,0.00155 0.02268,-0.00773 0.02175,-0.020621 z"
       id="path827"
       inkscape:connector-curvature="0" />
    <path
       style="fill:#fefefe;stroke-width:0.000357143"
       d="M 10.5625,12.951405 C 9.8323191,12.794581 9.2007041,12.157179 9.0468547,11.421875 8.7497344,10.001823 10.001823,8.7497344 11.421875,9.0468547 c 0.435663,0.091155 0.947724,0.4196487 1.182698,0.7587159 l 0.08637,0.1246363 1.127708,-0.4512975 c 0.692623,-0.2771807 1.138885,-0.4401207 1.156677,-0.4223282 0.01779,0.017793 -0.157269,0.4012925 -0.453748,0.9940028 l -0.482717,0.965033 0.482716,0.965042 c 0.296461,0.592682 0.471539,0.97622 0.453748,0.994011 -0.01779,0.01779 -0.46685,-0.146268 -1.163821,-0.425189 l -1.134852,-0.454156 -0.04584,0.06952 c -0.02522,0.03824 -0.141889,0.163559 -0.259276,0.278489 -0.465321,0.455583 -1.153502,0.648858 -1.809036,0.508066 z m 0.135275,-1.994031 c 0.321082,-0.134156 0.399355,-0.555097 0.149652,-0.804801 -0.351097,-0.3510961 -0.9264304,-0.03662 -0.834036,0.455882 0.05519,0.294207 0.397567,0.468759 0.684384,0.348919 z M 10.5625,6.9514053 C 9.8323191,6.7945809 9.2007041,6.1571794 9.0468547,5.421875 8.7497344,4.0018228 10.001823,2.7497343 11.421875,3.0468548 c 0.435663,0.091155 0.947724,0.4196486 1.182698,0.7587158 l 0.08637,0.1246363 1.127708,-0.4512975 c 0.692623,-0.2771806 1.138885,-0.4401207 1.156677,-0.4223281 0.01779,0.017793 -0.157269,0.4012925 -0.453748,0.9940025 l -0.482717,0.9650328 0.482716,0.9650428 c 0.296461,0.5926819 0.471539,0.97622 0.453748,0.9940106 -0.01779,0.017791 -0.46685,-0.1462678 -1.163821,-0.4251888 l -1.134852,-0.4541565 -0.04584,0.069525 c -0.02522,0.038239 -0.141889,0.163559 -0.259276,0.2784894 -0.465321,0.4555834 -1.153502,0.6488584 -1.809036,0.5080662 z m 0.135275,-1.9940312 c 0.321082,-0.1341563 0.399355,-0.5550969 0.149652,-0.8048007 -0.202705,-0.2027046 -0.492149,-0.2027046 -0.694854,0 -0.3864543,0.3864547 0.03996,1.015905 0.545202,0.8048007 z"
       id="path825"
       inkscape:connector-curvature="0" />
    <path
       style="fill:#65cbfe;stroke-width:0.000357143"
       d="m 14.984375,13 c 0.01062,-0.01719 0.02552,-0.03125 0.03309,-0.03125 0.0076,0 0.01378,0.01406 0.01378,0.03125 0,0.01719 -0.01489,0.03125 -0.03309,0.03125 -0.0182,0 -0.0244,-0.01406 -0.01378,-0.03125 z m -8,-3 C 6.994998,9.982812 7.00989,9.96875 7.017469,9.96875 c 0.00758,0 0.013781,0.014062 0.013781,0.03125 0,0.01719 -0.014893,0.03125 -0.033094,0.03125 -0.018202,0 -0.024403,-0.01406 -0.013781,-0.03125 z m 8,-0.96875 C 14.973753,9.0140625 14.979954,9 14.998156,9 c 0.0182,0 0.03309,0.014062 0.03309,0.03125 0,0.017188 -0.0062,0.03125 -0.01378,0.03125 -0.0076,0 -0.02247,-0.014062 -0.03309,-0.03125 z m 0,-2.03125 c 0.01062,-0.017188 0.02552,-0.03125 0.03309,-0.03125 0.0076,0 0.01378,0.014062 0.01378,0.03125 0,0.017188 -0.01489,0.03125 -0.03309,0.03125 -0.0182,0 -0.0244,-0.014062 -0.01378,-0.03125 z m -8,-0.96875 C 6.9737525,6.0140625 6.9799537,6 6.9981556,6 c 0.018202,0 0.033094,0.014062 0.033094,0.03125 0,0.017188 -0.0062,0.03125 -0.013781,0.03125 -0.00758,0 -0.022472,-0.014062 -0.033094,-0.03125 z m 8,-3 C 14.973753,3.0140625 14.979954,3 14.998156,3 c 0.0182,0 0.03309,0.014063 0.03309,0.03125 0,0.017187 -0.0062,0.03125 -0.01378,0.03125 -0.0076,0 -0.02247,-0.014063 -0.03309,-0.03125 z"
       id="path823"
       inkscape:connector-curvature="0" />
    <path
       style="fill:#cbfe00;stroke-width:0.000357143"
       d="M 2.5625,9.9514053 C 1.8323192,9.7945809 1.2007041,9.1571794 1.0468547,8.421875 0.74973425,7.0018228 2.0018229,5.7497344 3.421875,6.0468547 3.8575378,6.1380094 4.3695991,6.4665034 4.6045728,6.8055706 L 4.6909459,6.9302069 5.8186541,6.4789094 C 6.5112766,6.2017287 6.9575387,6.0387887 6.9753312,6.0565812 6.9931241,6.0743741 6.8180619,6.4578737 6.5215834,7.0505837 L 6.0388659,8.0156166 6.5215822,8.9806594 C 6.8180425,9.5733413 6.9931206,9.9568794 6.97533,9.97467 6.9575391,9.9924609 6.50848,9.8284022 5.8115091,9.5494813 L 4.6766566,9.0953247 4.6308116,9.1648497 C 4.6055969,9.2030888 4.4889228,9.3284088 4.3715359,9.4433391 3.906215,9.8989225 3.2180344,10.092197 2.5625,9.9514053 Z M 2.6977753,7.9573741 C 3.0188571,7.8232178 3.0971302,7.4022772 2.8474265,7.1525734 c -0.2027047,-0.2027047 -0.4921482,-0.2027047 -0.694853,0 -0.3864547,0.3864547 0.039958,1.015905 0.5452018,0.8048007 z"
       id="path821"
       inkscape:connector-curvature="0" />
    <path
       style="fill:#323232;stroke-width:0.000357143"
       d="m 10.295326,10.956044 c -0.3153082,-0.13734 -0.3897716,-0.556451 -0.142753,-0.803471 0.351097,-0.3510961 0.92643,-0.03662 0.834036,0.455882 -0.05526,0.294571 -0.406983,0.471422 -0.691283,0.347589 z M 2.2953257,7.9560437 C 1.9800177,7.8187044 1.9055544,7.3995928 2.1525735,7.1525734 c 0.2027048,-0.2027047 0.4921483,-0.2027047 0.694853,0 0.3878507,0.387851 -0.048476,1.0228357 -0.5521008,0.8034703 z m 8.0000003,-3 C 9.9800178,4.8187044 9.9055544,4.3995928 10.152573,4.1525734 c 0.202705,-0.2027047 0.492149,-0.2027047 0.694854,0 0.38785,0.387851 -0.04848,1.0228357 -0.552101,0.8034703 z"
       id="path819"
       inkscape:connector-curvature="0" />
  </g>
</svg>
