<?xml version="1.0" encoding="UTF-8" standalone="no"?>
<!-- Created with Inkscape (http://www.inkscape.org/) -->

<svg
   version="1.1"
   id="svg2"
   width="1600"
   height="1600"
   viewBox="0 0 1600 1600"
   sodipodi:docname="fontpreview.svg"
   inkscape:version="1.2.2 (732a01da63, 2022-12-09)"
   xmlns:inkscape="http://www.inkscape.org/namespaces/inkscape"
   xmlns:sodipodi="http://sodipodi.sourceforge.net/DTD/sodipodi-0.dtd"
   xmlns="http://www.w3.org/2000/svg"
   xmlns:svg="http://www.w3.org/2000/svg"
   xmlns:rdf="http://www.w3.org/1999/02/22-rdf-syntax-ns#"
   xmlns:cc="http://creativecommons.org/ns#"
   xmlns:dc="http://purl.org/dc/elements/1.1/">
  <metadata
     id="metadata8">
    <rdf:RDF>
      <cc:Work
         rdf:about="">
        <dc:format>image/svg+xml</dc:format>
        <dc:type
           rdf:resource="http://purl.org/dc/dcmitype/StillImage" />
      </cc:Work>
    </rdf:RDF>
  </metadata>
  <defs
     id="defs6" />
  <sodipodi:namedview
     pagecolor="#808080"
     bordercolor="#666666"
     borderopacity="1"
     objecttolerance="10"
     gridtolerance="10"
     guidetolerance="10"
     inkscape:pageopacity="0"
     inkscape:pageshadow="2"
     inkscape:window-width="1993"
     inkscape:window-height="1009"
     id="namedview4"
     showgrid="false"
     inkscape:zoom="0.5"
     inkscape:cx="875"
     inkscape:cy="738"
     inkscape:window-x="-8"
     inkscape:window-y="-8"
     inkscape:window-maximized="1"
     inkscape:current-layer="FONTPREVIEW"
     inkscape:showpageshadow="0"
     inkscape:pagecheckerboard="true"
     inkscape:deskcolor="#d1d1d1" />
  <g
     id="FONTPREVIEW"
     transform="matrix(100,0,0,100,0,4.9999997e-5)"
     style="stroke-width:0.0114286">
    <path
       style="fill:none;stroke-width:0.000357143"
       d="M 0,8 V 0 h 8 8 v 8 8 H 8 0 Z m 13.453125,6.940289 c 0.223979,-0.107992 1.38381,-1.269524 1.48158,-1.483753 l 0.06975,-0.152839 -0.0033,-5.7320245 c -0.003,-5.151735 -0.0083,-5.7468446 -0.05299,-5.8784112 C 14.841543,1.3791407 14.610529,1.1512111 14.294981,1.0487901 14.155109,1.0033906 13.558546,0.99948391 7.9375,1.0071572 l -6.203125,0.00847 -0.15625,0.077379 C 1.3789118,1.1916604 1.1916604,1.3789118 1.0930044,1.578125 l -0.077379,0.15625 v 5.78125 5.78125 l 0.076025,0.15625 c 0.052742,0.108397 0.2489389,0.331838 0.640625,0.729581 0.3105301,0.315332 0.620926,0.612468 0.6897686,0.660304 0.2863704,0.198986 -0.1137575,0.186279 5.6404566,0.179124 l 5.2343754,-0.0065 z"
       id="path823"
       inkscape:connector-curvature="0" />
    <path
       style="fill:#fefefe;stroke-width:0.000357143"
       d="M 2.5074573,13.523093 2,13.014935 V 7.5074675 2 h 5.9998275 5.9998275 l 0.008,5.5159709 0.008,5.5159711 -0.500345,0.499654 -0.500345,0.499654 H 8.014925 3.0149146 Z M 4,12.5 V 12 H 3.5 3 V 12.5 13 H 3.5 4 Z m 9,0 V 12 H 9 5 v 0.5 0.5 h 4 4 z M 6,9 V 7 H 7.5 9 V 6.5 6 H 7.5 6 V 5 4 h 2 2 V 3.5 3 H 7.5 5 v 4 4 H 5.5 6 Z"
       id="path821"
       inkscape:connector-curvature="0" />
    <path
       style="fill:#323232;stroke-width:0.000357143"
       d="M 2.6876684,14.979313 C 2.4625898,14.900264 2.3302053,14.789882 1.7322748,14.182706 1.3405887,13.784963 1.1443913,13.561522 1.0916498,13.453125 l -0.076025,-0.15625 v -5.78125 -5.78125 l 0.077379,-0.15625 C 1.1916604,1.3789118 1.3789118,1.1916604 1.578125,1.0930044 L 1.734375,1.015625 7.9375,1.0071572 c 5.621046,-0.007673 6.217609,-0.00377 6.357481,0.041633 0.315548,0.102421 0.546562,0.3303506 0.653193,0.6444712 0.04466,0.1315666 0.05002,0.7266762 0.05299,5.8784112 l 0.0033,5.7320244 -0.06975,0.152839 c -0.09777,0.214229 -1.257601,1.375761 -1.48158,1.483753 l -0.15625,0.07534 -5.234375,0.0065 c -4.6991969,0.0058 -5.2487357,0.0015 -5.3748316,-0.04282 z M 13.51528,13.531596 14.015625,13.031942 14.00764,7.5159709 13.999655,2 H 7.9998275 2 v 5.5074675 5.5074675 l 0.5074573,0.508158 0.5074573,0.508157 h 5.0000104 5.00001 z M 3,12.5 V 12 H 3.5 4 V 12.5 13 H 3.5 3 Z m 2,0 V 12 h 4 4 V 12.5 13 H 9 5 Z M 5,7 V 3 H 7.5 10 V 3.5 4 H 8 6 V 5 6 H 7.5 9 V 6.5 7 H 7.5 6 v 2 2 H 5.5 5 Z"
       id="path819"
       inkscape:connector-curvature="0" />
  </g>
</svg>
