<?xml version="1.0" encoding="UTF-8" standalone="no"?>
<!-- Created with Inkscape (http://www.inkscape.org/) -->

<svg
   version="1.1"
   id="svg2"
   width="1600"
   height="1600"
   viewBox="0 0 1600 1600"
   sodipodi:docname="force_drag.svg"
   inkscape:version="1.2.2 (732a01da63, 2022-12-09)"
   xmlns:inkscape="http://www.inkscape.org/namespaces/inkscape"
   xmlns:sodipodi="http://sodipodi.sourceforge.net/DTD/sodipodi-0.dtd"
   xmlns="http://www.w3.org/2000/svg"
   xmlns:svg="http://www.w3.org/2000/svg"
   xmlns:rdf="http://www.w3.org/1999/02/22-rdf-syntax-ns#"
   xmlns:cc="http://creativecommons.org/ns#"
   xmlns:dc="http://purl.org/dc/elements/1.1/">
  <metadata
     id="metadata8">
    <rdf:RDF>
      <cc:Work
         rdf:about="">
        <dc:format>image/svg+xml</dc:format>
        <dc:type
           rdf:resource="http://purl.org/dc/dcmitype/StillImage" />
      </cc:Work>
    </rdf:RDF>
  </metadata>
  <defs
     id="defs6" />
  <sodipodi:namedview
     pagecolor="#808080"
     bordercolor="#666666"
     borderopacity="1"
     objecttolerance="10"
     gridtolerance="10"
     guidetolerance="10"
     inkscape:pageopacity="0"
     inkscape:pageshadow="2"
     inkscape:window-width="1993"
     inkscape:window-height="1009"
     id="namedview4"
     showgrid="false"
     inkscape:zoom="0.5"
     inkscape:cx="379"
     inkscape:cy="342"
     inkscape:window-x="-8"
     inkscape:window-y="-8"
     inkscape:window-maximized="1"
     inkscape:current-layer="FORCE_DRAG"
     inkscape:showpageshadow="0"
     inkscape:pagecheckerboard="true"
     inkscape:deskcolor="#d1d1d1" />
  <g
     id="FORCE_DRAG"
     transform="matrix(100,0,0,100,0,4.9999997e-5)"
     style="stroke-width:0.0114286">
    <path
       style="fill:none;stroke-width:0.000357143"
       d="M 0,8 V 0 h 8 8 l -0.0028,6.3515625 c -0.0024,5.3092105 -0.0095,6.3148505 -0.04341,6.1278615 -0.112543,-0.620205 -0.415071,-1.188094 -0.864863,-1.623471 -0.388576,-0.376121 -0.844371,-0.631727 -1.363046,-0.764381 -0.13003,-0.03326 -0.243727,-0.06777 -0.25266,-0.07671 C 13.456506,9.9981747 13.433755,9.8661778 13.002031,7.28125 12.862807,6.4476562 12.705124,5.5039662 12.651624,5.1841609 l -0.09727,-0.581464 0.161616,-0.3284603 c 0.08889,-0.1806535 0.169659,-0.3780194 0.179489,-0.438591 0.02339,-0.14413 -0.03477,-0.3138975 -0.145446,-0.4245756 -0.07385,-0.07385 -0.1697,-0.2464125 -0.18959,-0.3413247 -0.0026,-0.012579 -0.02915,-0.058026 -0.05892,-0.1009953 C 12.471735,2.9257813 12.42636,2.8484375 12.400669,2.796875 12.301251,2.5973327 12.207688,2.4476858 12.098244,2.3131658 12.035616,2.2361883 11.988063,2.1618415 11.992572,2.1479507 12.003281,2.1149524 11.075824,1.1875 11.032116,1.1875 c -0.0184,0 -0.124562,-0.071596 -0.235912,-0.1591025 -0.11135,-0.0875064 -0.202454,-0.14911862 -0.202454,-0.13691603 0,0.0122026 -0.04922,-0.0153544 -0.109375,-0.0612378 C 10.424219,0.78436028 10.375,0.75552378 10.375,0.76616259 c 0,0.0106388 -0.03867,-0.008131 -0.08594,-0.0417099 C 10.213271,0.67060731 10.00809,0.57307141 9.9447453,0.56077594 9.9321666,0.55833437 9.89375,0.54082166 9.859375,0.52185875 9.825,0.50289587 9.7828125,0.48381034 9.765625,0.47944647 9.748437,0.47508247 9.6359375,0.43487497 9.515625,0.39009617 9.3953125,0.34531737 9.2828125,0.30487717 9.265625,0.30022907 9.2484375,0.29558088 9.1710938,0.27314592 9.09375,0.25037356 9.0164062,0.22760119 8.9320313,0.20616208 8.90625,0.20273107 8.8804688,0.19930007 8.803125,0.18646044 8.734375,0.17419856 8.665625,0.16193668 8.5671875,0.146134 8.515625,0.13908148 8.4640625,0.13202897 8.3856716,0.11836908 8.3414228,0.10872617 8.27066,0.09330518 7.5979409,0.05427622 7.515625,0.06081608 7.4984375,0.06218162 7.3648438,0.0682124 7.21875,0.07421785 7.0726562,0.08022331 6.9109375,0.09434406 6.859375,0.1055973 c -0.051563,0.0112532 -0.15,0.026913 -0.21875,0.0347994 -0.2645831,0.0303508 -0.4536466,0.0687306 -0.7734375,0.15700709 -0.080871,0.022324 -0.1856563,0.0475538 -0.2694625,0.0648803 -0.040783,0.008432 -0.1603141,0.0508923 -0.265625,0.0943573 -0.1053113,0.043465 -0.2175191,0.0845332 -0.2493509,0.0912627 -0.031832,0.006729 -0.077535,0.0285509 -0.1015625,0.0484921 -0.024027,0.0199412 -0.043687,0.0263566 -0.043687,0.0142565 0,-0.0121001 -0.045703,0.006246 -0.1015625,0.040769 -0.055859,0.034523 -0.1119284,0.0642171 -0.1245978,0.0659869 -0.012669,0.00177 -0.087663,0.0309207 -0.1666535,0.0647797 -0.07899,0.033859 -0.150465,0.0615618 -0.158834,0.0615618 -0.00837,0 -0.077516,0.0428631 -0.1536591,0.0952513 -0.076144,0.0523882 -0.1384431,0.0865869 -0.1384431,0.075997 0,-0.01059 -0.045703,0.013322 -0.1015625,0.053138 -0.055859,0.039816 -0.1112884,0.072414 -0.1231759,0.07244 -0.011887,2.67e-5 -0.095373,0.056298 -0.1855241,0.1250485 -0.090151,0.06875 -0.1739009,0.125 -0.1861109,0.125 -0.01221,0 -0.083412,0.049208 -0.1582257,0.1093517 C 3.2643366,1.5601202 3.1933034,1.6093389 3.1812991,1.6093517 3.169295,1.6093645 3.0613069,1.6972656 2.9413256,1.8046875 2.8213444,1.9121094 2.7113949,2 2.6969935,2 2.6635037,2 2,2.6644968 2,2.6980368 2,2.7118644 1.9121094,2.8213444 1.8046875,2.9413256 1.6972656,3.0613069 1.6093645,3.169295 1.6093517,3.1812991 c -1.28e-5,0.012004 -0.049231,0.083038 -0.109375,0.1578518 -0.060143,0.074814 -0.1093517,0.146016 -0.1093517,0.1582257 0,0.01221 -0.05625,0.09596 -0.125,0.1861109 -0.06875,0.090151 -0.1250218,0.1736366 -0.1250485,0.1855241 -2.67e-5,0.011888 -0.032625,0.067317 -0.07244,0.1231759 -0.039816,0.055859 -0.063728,0.1015625 -0.053138,0.1015625 0.01059,0 -0.0236088,0.062299 -0.075997,0.1384431 -0.0523882,0.076143 -0.0952513,0.14529 -0.0952513,0.1536591 0,0.00837 -0.0277028,0.079844 -0.0615618,0.1588341 -0.033859,0.07899 -0.0586643,0.1469528 -0.0551229,0.1510284 0.003541,0.00408 -0.0261527,0.060145 -0.0659869,0.1245978 C 0.6212442,4.8847655 0.5985526,4.9375 0.6106527,4.9375 c 0.0121001,0 0.005685,0.019659 -0.0142565,0.043687 C 0.5764551,5.005215 0.5546336,5.050918 0.5479041,5.0827495 0.5411751,5.1145815 0.5001064,5.2267892 0.4566414,5.3321004 0.4131764,5.4374113 0.3707156,5.5569426 0.3622841,5.5977254 0.3449576,5.6815314 0.3197279,5.7863167 0.2974038,5.8671879 0.2091273,6.1869784 0.1707476,6.3760419 0.14039676,6.640625 0.13251076,6.709375 0.11685056,6.8078125 0.10559736,6.859375 0.09434406,6.9109375 0.08022331,7.0726563 0.07421785,7.21875 0.0682124,7.3648438 0.0621816,7.4984375 0.06081608,7.515625 c -0.0065399,0.082316 0.0324891,0.755035 0.04791009,0.8257978 0.009643,0.044249 0.0233028,0.1226397 0.0303553,0.1742022 0.007053,0.051562 0.0228552,0.15 0.0351171,0.21875 0.0122619,0.06875 0.0251015,0.1460938 0.0285325,0.171875 0.003431,0.025781 0.0248701,0.1101563 0.0476425,0.1875 0.0227724,0.077344 0.0452073,0.1546875 0.0498555,0.171875 0.004648,0.017188 0.0450884,0.1296875 0.0898671,0.25 0.0447788,0.1203125 0.0849864,0.2328125 0.0893503,0.25 0.004364,0.017188 0.0272124,0.066406 0.0507745,0.109375 0.0235621,0.042969 0.0410749,0.081385 0.0389172,0.08537 -0.009815,0.018127 0.1004279,0.251435 0.1553145,0.328693 0.0335793,0.04726 0.0523487,0.08594 0.0417099,0.08594 -0.0106388,0 0.0181977,0.04922 0.0640811,0.109375 0.0458834,0.06016 0.0734404,0.109375 0.0612378,0.109375 -0.0122026,0 0.0494096,0.0911 0.13691603,0.202454 0.087506,0.11135 0.1591025,0.21751 0.1591025,0.235912 0,0.04371 0.9274524,0.971165 0.9604507,0.960456 0.013891,-0.0045 0.088238,0.04304 0.1652151,0.105672 0.13452,0.109444 0.2841669,0.203007 0.4837092,0.302425 0.051563,0.02569 0.1289063,0.07107 0.171875,0.100835 0.042969,0.02977 0.088878,0.05524 0.1020212,0.05661 0.013143,0.0014 0.1305735,0.05379 0.2609569,0.116503 0.2839053,0.136553 0.4163035,0.132859 0.62972,-0.01757 0.122395,-0.08627 0.1550047,-0.09527 0.2837328,-0.07832 0.079994,0.01054 1.1509129,0.178417 2.3798191,0.373067 1.2289062,0.194651 2.4945313,0.393191 2.8125,0.441202 0.3179688,0.04801 0.581608,0.08935 0.585866,0.09187 0.0043,0.0025 0.03495,0.110965 0.06821,0.240995 0.293665,1.148218 1.224636,2.016832 2.387852,2.227909 0.186989,0.03393 -0.818651,0.04106 -6.1278615,0.04341 L 0,16 Z m 13.520576,7.953767 c 1.239311,-0.224886 2.208305,-1.19388 2.433191,-2.433191 0.03627,-0.199904 0.04089,-0.07992 0.04341,1.127862 L 16,16 14.648438,15.9972 C 13.440651,15.9947 13.320672,15.9901 13.520576,15.95379 Z M 9.5,12.357188 C 9.2507812,12.317104 8.1398438,12.140048 7.03125,11.963732 L 5.015625,11.643155 5.03125,10.680696 5.046875,9.7182356 5.388,9.3747428 5.7291253,9.03125 H 7.01432 8.2995147 l 1.0998194,1.101563 c 0.6049009,0.605859 1.1085599,1.111284 1.1192429,1.123167 0.01068,0.01188 -0.03059,0.103942 -0.09173,0.204576 -0.129896,0.213833 -0.28607,0.591303 -0.338348,0.817784 -0.02584,0.111944 -0.05137,0.158058 -0.08606,0.155444 -0.02712,-0.002 -0.2532202,-0.03651 -0.502439,-0.0766 z M 10.146505,9.4152988 9.03125,8.2993475 V 7.0150662 5.7307847 l 0.3493003,-0.3502238 0.3493,-0.3502237 0.9234027,0.00827 0.923402,0.00827 0.06816,0.40625 c 0.03749,0.2234375 0.183136,1.0953125 0.323658,1.9375 0.140521,0.8421875 0.296163,1.7703125 0.34587,2.0625 0.04971,0.2921875 0.09072,0.5471588 0.09114,0.5666028 4.19e-4,0.01944 -0.06603,0.0521 -0.147673,0.07257 -0.224387,0.05626 -0.592903,0.210416 -0.7917,0.331179 -0.09758,0.05927 -0.183475,0.107773 -0.190883,0.107773 -0.0074,0 -0.515334,-0.502178 -1.128725,-1.115951 z"
       id="path831"
       inkscape:connector-curvature="0" />
    <path
       style="fill:#fefefe;stroke-width:0.000357143"
       d="M 9.375,13.388201 C 9.1257812,13.347796 7.8882813,13.151893 6.625,12.952861 5.3617187,12.753829 4.2743981,12.58106 4.2087322,12.56893 L 4.0893394,12.54688 4.4927906,12.211097 c 0.2250235,-0.187282 0.4295378,-0.384224 0.4624369,-0.445313 0.032442,-0.06024 0.079322,-0.109529 0.1041794,-0.109529 0.024857,0 0.9181431,0.139515 1.9850809,0.310033 1.0669381,0.170519 2.0981085,0.332944 2.2914897,0.360944 0.1933816,0.028 0.4336584,0.06536 0.5339494,0.08303 l 0.1823461,0.03212 -0.02901,0.177249 c -0.01595,0.09749 -0.02238,0.328421 -0.01427,0.513187 l 0.01474,0.335937 -0.097805,-0.0035 c -0.053793,-0.0019 -0.3017112,-0.0366 -0.55093,-0.07701 z M 3.4292316,11.588306 c -0.047015,-0.03425 -0.085482,-0.05339 -0.085482,-0.04254 0,0.01085 -0.062299,-0.02313 -0.1384431,-0.07552 C 3.1291634,11.417863 3.0567836,11.375 3.044463,11.375 c -0.01232,0 -0.082466,-0.04922 -0.1558788,-0.109375 -0.073413,-0.06016 -0.1483767,-0.109375 -0.1665865,-0.109375 -0.041615,0 -0.7243866,-0.680307 -0.7140364,-0.711458 0.00419,-0.0126 -0.039508,-0.08153 -0.097101,-0.153176 -0.057594,-0.07164 -0.09977,-0.136018 -0.093725,-0.143057 0.00604,-0.007 -0.025314,-0.06092 -0.069685,-0.119741 C 1.6768259,9.9352003 1.4721178,9.5396806 1.4494895,9.453125 1.4449962,9.4359375 1.404835,9.3234375 1.3602424,9.203125 1.3156498,9.0828125 1.2726028,8.9597656 1.2645825,8.9296875 1.2565621,8.8996094 1.2433656,8.8503906 1.2352568,8.8203125 1.1845425,8.6321959 1.1571877,8.4896775 1.1347886,8.296875 1.1069045,8.0568597 1.1087065,7.0363025 1.1374095,6.8125 1.1634342,6.6095809 1.217751,6.3404884 1.2509509,6.25 1.2667161,6.2070312 1.2862931,6.1367187 1.2944554,6.09375 1.3344512,5.8832009 1.3958384,5.6908241 1.4400136,5.6375962 1.4600277,5.6134809 1.4672885,5.59375 1.4561489,5.59375 c -0.01114,0 0.00156,-0.042187 0.028226,-0.09375 0.026664,-0.051563 0.040593,-0.09375 0.030953,-0.09375 -0.00964,0 4.69e-5,-0.031641 0.021528,-0.070312 0.02148,-0.038672 0.039927,-0.077344 0.040993,-0.085937 0.00107,-0.00859 0.040573,-0.096325 0.087793,-0.1949587 0.04722,-0.098634 0.082057,-0.1830085 0.077416,-0.1875 -0.00464,-0.00449 0.024105,-0.053869 0.06388,-0.1097288 0.039775,-0.055859 0.063654,-0.1015625 0.053065,-0.1015625 -0.01059,0 0.026703,-0.066797 0.082874,-0.1484375 0.05617,-0.081641 0.100636,-0.1554688 0.098813,-0.1640625 -0.00182,-0.00859 0.03727,-0.066867 0.086874,-0.1294969 0.049604,-0.06263 0.090188,-0.1248425 0.090188,-0.1382509 0,-0.013408 0.084375,-0.1271816 0.1875,-0.2528291 0.103125,-0.1256475 0.1875,-0.2425009 0.1875,-0.2596743 0,-0.040784 0.9289647,-0.9697488 0.9697488,-0.9697488 0.017173,0 0.1340268,-0.084375 0.2596743,-0.1875 0.1256475,-0.103125 0.2394206,-0.1875 0.2528291,-0.1875 0.013408,0 0.082084,-0.045703 0.1526119,-0.1015625 0.070528,-0.055859 0.1288018,-0.094953 0.1294971,-0.086874 6.938e-4,0.00808 0.068061,-0.031268 0.1497013,-0.087439 0.081641,-0.05617 0.1484375,-0.093463 0.1484375,-0.082874 0,0.01059 0.038672,-0.00828 0.085937,-0.041939 0.047266,-0.033656 0.096644,-0.062402 0.1097287,-0.06388 0.013085,-0.00148 0.1044916,-0.041322 0.203125,-0.088542 0.098634,-0.04722 0.186365,-0.086727 0.1949588,-0.087793 0.00859,-0.00107 0.047266,-0.019513 0.085937,-0.040993 0.038672,-0.02148 0.070312,-0.031168 0.070312,-0.021528 0,0.00964 0.042187,-0.00429 0.09375,-0.030953 0.051563,-0.026664 0.09375,-0.039366 0.09375,-0.028226 0,0.01114 0.019731,0.00388 0.043846,-0.016135 0.053228,-0.044175 0.2456047,-0.1055624 0.4561538,-0.1455582 0.042969,-0.00816 0.1132812,-0.027739 0.15625,-0.043504 0.090488,-0.0332 0.3595809,-0.087517 0.5625,-0.1135414 0.2238025,-0.028703 1.2443597,-0.030505 1.484375,-0.00262 0.1928025,0.022399 0.3353209,0.049754 0.5234375,0.1004682 0.030078,0.00811 0.079297,0.021305 0.109375,0.029326 0.030078,0.00802 0.153125,0.051067 0.2734375,0.09566 0.1203125,0.044593 0.2328125,0.084754 0.25,0.089247 0.086556,0.022628 0.4820753,0.2273364 0.5756928,0.2979598 0.05882,0.044372 0.112701,0.07573 0.119741,0.069685 0.007,-0.00604 0.07142,0.036132 0.143057,0.093725 0.07164,0.057593 0.140572,0.1012892 0.153176,0.097101 0.03115,-0.01035 0.711458,0.6724215 0.711458,0.7140364 0,0.01821 0.04922,0.093174 0.109375,0.1665865 0.06016,0.073413 0.109375,0.1435583 0.109375,0.1558788 0,0.012321 0.04286,0.0847 0.09525,0.1608439 0.05239,0.076144 0.08659,0.1384431 0.076,0.1384431 -0.01059,0 0.01079,0.042187 0.0475,0.09375 0.03672,0.051563 0.06075,0.09375 0.05341,0.09375 -0.0073,0 0.01796,0.064974 0.05624,0.1443859 0.05773,0.1197832 0.0638,0.15972 0.03562,0.234375 L 11.705047,4 H 10.57027 C 9.6275906,4 9.4163231,4.0080094 9.3222534,4.0473144 9.1710625,4.1104859 8.1441378,5.1303228 8.0619403,5.2989287 8.0032459,5.4193247 8,5.4934269 8,6.7129912 V 8 H 6.7286162 C 5.4863244,8 5.4539681,8.0015594 5.3145537,8.0681853 5.1131753,8.1644228 4.1811228,9.0889838 4.0775991,9.2951981 4.0002556,9.4492625 4,9.4527838 4,10.364372 v 0.9146 L 3.8116559,11.435713 C 3.5479997,11.65513 3.5305334,11.662099 3.4292316,11.588306 Z M 3.0996186,8.98032 C 3.2306891,8.6682331 3.4037469,8.4501788 3.9427681,7.9179444 4.4953159,7.3723541 4.7416175,7.1863084 5.0603131,7.0737994 5.2559322,7.00474 5.306565,7.0012872 6.1328125,7.0006591 L 7,7 7.0006594,6.1171875 C 7.0012906,5.2732031 7.0045241,5.2252947 7.0741994,5.0279197 7.1833528,4.7187119 7.2997019,4.5684856 7.9025297,3.9584059 8.7377047,3.1131841 8.8840434,3.0299593 9.5841353,3.0020534 L 10.027645,2.984375 9.75601,2.7922748 C 9.4206781,2.5551282 9.2540975,2.4656862 8.9270463,2.3471802 8.4929331,2.1898808 7.9954581,2.0942044 7.6077531,2.0934485 7.1473219,2.092551 6.4104094,2.2375966 5.8800703,2.4335067 5.3329916,2.6356004 4.7468603,2.9729771 4.203125,3.398755 3.4814634,3.9638597 2.7759072,4.9531737 2.4335067,5.8800703 2.2375966,6.4104094 2.0925509,7.1473219 2.0934485,7.6077531 c 7.56e-4,0.387705 0.096432,0.88518 0.2537317,1.3192932 0.1185037,0.3270446 0.2079439,0.493624 0.4450946,0.8289725 L 2.984375,10.027663 3.0017721,9.5997688 C 3.0166065,9.2349056 3.0310197,9.1436581 3.0996186,8.98032 Z M 9.4208566,10.152194 8.299615,9.03125 h 0.1421525 c 0.2199884,0 0.3984091,-0.1101306 0.5031059,-0.3105434 C 8.9981984,8.6186309 9.03125,8.5064325 9.03125,8.4274891 V 8.299615 l 1.121549,1.1218469 1.121549,1.1218471 -0.08249,0.06153 c -0.137104,0.102273 -0.410444,0.370606 -0.533692,0.523916 l -0.116072,0.144381 z M 12.31914,9.4906266 C 12.266943,9.1778131 12.109268,8.2328125 11.968753,7.390625 11.828238,6.5484375 11.681887,5.6743512 11.643528,5.4482112 l -0.06974,-0.4111637 0.26875,-0.010711 c 0.344131,-0.013716 0.541514,-0.1049606 0.643258,-0.2973603 l 0.06815,-0.1288656 0.09748,0.5827572 c 0.05361,0.3205166 0.211404,1.2647887 0.350643,2.0983825 0.348052,2.0836978 0.429092,2.5655072 0.446785,2.65625 l 0.01523,0.078125 h -0.427351 c -0.235044,0 -0.471301,0.0098 -0.525016,0.02188 l -0.09766,0.02188 z"
       id="path829"
       inkscape:connector-curvature="0" />
    <path
       style="fill:#fecbcb;stroke-width:0.000357143"
       d="m 11.020861,12.882813 c 0.03966,-0.274527 0.110143,-0.52342 0.198845,-0.7022 0.334232,-0.673647 0.86621,-1.044617 1.663107,-1.159752 L 13,11.003929 V 12.001965 13 h -0.998035 -0.998036 z"
       id="path827"
       inkscape:connector-curvature="0" />
    <path
       style="fill:#fe6565;stroke-width:0.000357143"
       d="m 12.708682,14.95056 c -0.31328,-0.05705 -0.505193,-0.138134 -0.829031,-0.350275 -0.471308,-0.308747 -0.761536,-0.80996 -0.85879,-1.483097 L 11.003929,13 H 12.001965 13 v -0.998035 -0.998036 l 0.117188,0.01693 c 0.448434,0.06479 0.754442,0.188241 1.105287,0.445905 0.154157,0.113213 0.2504,0.218392 0.37781,0.412885 0.217145,0.331477 0.292577,0.514159 0.351265,0.850703 0.04186,0.240061 0.04186,0.299231 0,0.539292 -0.05869,0.336544 -0.13412,0.519226 -0.351265,0.850703 -0.12741,0.194493 -0.223653,0.299672 -0.37781,0.412885 -0.496376,0.364542 -1.016397,0.507903 -1.513793,0.417326 z"
       id="path825"
       inkscape:connector-curvature="0" />
    <path
       style="fill:#989898;stroke-width:0.000357143"
       d="M 2.7922748,9.7560188 C 2.5551241,9.4206703 2.4656839,9.2540909 2.3471802,8.9270463 2.1898808,8.4929331 2.0942044,7.9954581 2.0934485,7.6077531 2.092551,7.1473219 2.2375966,6.4104094 2.4335067,5.8800703 2.6356004,5.3329916 2.9729771,4.7468603 3.398755,4.203125 3.9638597,3.4814634 4.9531738,2.7759072 5.8800703,2.4335067 6.4104094,2.2375966 7.1473219,2.0925509 7.6077531,2.0934485 c 0.387705,7.56e-4 0.88518,0.096432 1.3192932,0.2537317 0.3270512,0.118506 0.4936318,0.207948 0.8289637,0.4450946 L 10.027645,2.984375 9.584135,3.002053 C 8.8840431,3.0299593 8.7377044,3.1131841 7.9025294,3.9584059 7.2997016,4.5684856 7.1833525,4.7187119 7.0741991,5.0279197 c -0.069675,0.197375 -0.07291,0.2452834 -0.07354,1.0892678 L 7,7 6.1328125,7.0006594 C 5.306565,7.0012875 5.2559322,7.0047403 5.0603131,7.0737997 4.7416175,7.1863087 4.4953159,7.3723544 3.9427681,7.9179447 3.4037469,8.4501791 3.2306891,8.6682334 3.0996186,8.9803203 3.0310197,9.1436584 3.0166065,9.2349059 3.0017721,9.5997691 L 2.984375,10.027663 Z"
       id="path823"
       inkscape:connector-curvature="0" />
    <path
       style="fill:#323232;stroke-width:0.000357143"
       d="M 3.3046875,12.661771 C 3.1714844,12.593976 3.0625,12.544863 3.0625,12.552631 c 0,0.0078 -0.038672,-0.01273 -0.085937,-0.04556 C 2.9292969,12.474239 2.8484375,12.42636 2.796875,12.400669 2.5973327,12.301251 2.4476858,12.207688 2.3131658,12.098244 2.2361883,12.035616 2.1618415,11.988063 2.1479507,11.992572 2.1149524,12.003281 1.1875,11.075824 1.1875,11.032116 c 0,-0.0184 -0.071596,-0.124562 -0.1591025,-0.235912 -0.0875064,-0.11135 -0.14911862,-0.202454 -0.13691603,-0.202454 0.0122026,0 -0.0153544,-0.04922 -0.0612378,-0.109375 C 0.78436028,10.424219 0.75552378,10.375 0.76616259,10.375 c 0.0106388,0 -0.008131,-0.03867 -0.0417099,-0.08594 C 0.66956609,10.211805 0.559323,9.9784975 0.56913819,9.9603703 0.571296,9.9563853 0.55378312,9.9179688 0.530221,9.875 0.50665887,9.8320313 0.48381034,9.7828125 0.47944647,9.765625 0.47508247,9.748437 0.43487497,9.6359375 0.39009617,9.515625 0.34531737,9.3953125 0.30487717,9.2828125 0.30022907,9.265625 0.29558088,9.2484375 0.27314592,9.1710938 0.25037356,9.09375 0.22760119,9.0164062 0.20616208,8.9320313 0.20273107,8.90625 0.19930007,8.8804688 0.18646044,8.803125 0.17419856,8.734375 0.16193668,8.665625 0.146134,8.5671875 0.13908148,8.515625 0.13202897,8.4640625 0.11836908,8.3856716 0.10872617,8.3414228 0.09330518,8.27066 0.05427622,7.5979409 0.06081608,7.515625 0.06218162,7.4984375 0.0682124,7.3648438 0.07421785,7.21875 0.08022331,7.0726562 0.09434406,6.9109375 0.1055973,6.859375 c 0.0112532,-0.051563 0.026913,-0.15 0.0347994,-0.21875 0.0303508,-0.2645831 0.0687306,-0.4536466 0.15700709,-0.7734375 0.022324,-0.080871 0.0475538,-0.1856563 0.0648803,-0.2694625 0.008432,-0.040783 0.0508923,-0.1603141 0.0943573,-0.265625 0.043465,-0.1053113 0.0845332,-0.2175191 0.0912627,-0.2493509 0.006729,-0.031832 0.0285509,-0.077535 0.0484921,-0.1015625 0.0199412,-0.024027 0.0263566,-0.043687 0.0142565,-0.043687 -0.0121001,0 0.0105915,-0.052734 0.0504257,-0.1171875 0.0398342,-0.064453 0.0695283,-0.1205222 0.0659869,-0.1245978 -0.003541,-0.00408 0.0212639,-0.072038 0.0551229,-0.1510285 0.033859,-0.07899 0.0615618,-0.150465 0.0615618,-0.158834 0,-0.00837 0.0428631,-0.077516 0.0952513,-0.1536591 0.0523882,-0.076144 0.0865869,-0.1384431 0.075997,-0.1384431 -0.01059,0 0.013322,-0.045703 0.053138,-0.1015625 0.039816,-0.055859 0.072414,-0.1112884 0.07244,-0.1231759 2.67e-5,-0.011887 0.056298,-0.095373 0.1250485,-0.1855241 0.06875,-0.090151 0.125,-0.1739009 0.125,-0.1861109 0,-0.01221 0.049208,-0.083412 0.1093517,-0.1582257 C 1.5601202,3.2643366 1.6093389,3.1933034 1.6093517,3.1812991 1.6093645,3.169295 1.6972656,3.0613069 1.8046875,2.9413256 1.9121094,2.8213444 2,2.7113949 2,2.6969935 2,2.6635037 2.6644968,2 2.6980368,2 2.7118644,2 2.8213444,1.9121094 2.9413256,1.8046875 3.0613069,1.6972656 3.169295,1.6093645 3.1812991,1.6093517 c 0.012004,-1.28e-5 0.083038,-0.049231 0.1578518,-0.109375 0.074814,-0.060143 0.146016,-0.1093517 0.1582257,-0.1093517 0.01221,0 0.09596,-0.05625 0.1861109,-0.125 0.090151,-0.06875 0.1736366,-0.1250218 0.1855241,-0.1250485 0.011888,-2.67e-5 0.067317,-0.032625 0.1231759,-0.07244 0.055859,-0.039816 0.1015625,-0.063728 0.1015625,-0.053138 0,0.01059 0.062299,-0.0236088 0.1384431,-0.075997 0.076143,-0.0523882 0.14529,-0.0952513 0.1536591,-0.0952513 0.00837,0 0.079844,-0.0277028 0.1588341,-0.0615618 0.07899,-0.033859 0.1469528,-0.0586643 0.1510284,-0.0551229 0.00408,0.003541 0.060145,-0.0261527 0.1245978,-0.0659869 C 4.8847655,0.6212442 4.9375,0.5985526 4.9375,0.6106527 c 0,0.0121001 0.019659,0.005685 0.043687,-0.0142565 C 5.005215,0.5764551 5.050918,0.5546336 5.0827495,0.5479041 5.1145815,0.5411751 5.2267892,0.5001064 5.3321004,0.4566414 5.4374113,0.4131764 5.5569426,0.3707156 5.5977254,0.3622841 5.6815314,0.3449576 5.7863167,0.3197279 5.8671879,0.2974038 6.1869784,0.2091273 6.3760419,0.1707476 6.640625,0.14039676 6.709375,0.13251076 6.8078125,0.11685056 6.859375,0.10559736 6.9109375,0.09434406 7.0726563,0.08022331 7.21875,0.07421785 7.3648438,0.0682124 7.4984375,0.0621816 7.515625,0.06081608 c 0.082316,-0.0065399 0.755035,0.0324891 0.8257978,0.04791009 0.044249,0.009643 0.1226397,0.0233028 0.1742022,0.0303553 0.051562,0.007053 0.15,0.0228552 0.21875,0.0351171 0.06875,0.0122619 0.1460938,0.0251015 0.171875,0.0285325 0.025781,0.003431 0.1101563,0.0248701 0.1875,0.0476425 0.077344,0.0227724 0.1546875,0.0452073 0.171875,0.0498555 0.017188,0.004648 0.1296875,0.0450884 0.25,0.0898671 0.1203125,0.0447788 0.2328125,0.0849864 0.25,0.0893503 0.017188,0.004364 0.066406,0.0272124 0.109375,0.0507745 0.042969,0.0235621 0.081385,0.0410749 0.08537,0.0389172 0.018127,-0.009815 0.251435,0.1004279 0.328693,0.1553145 0.04726,0.0335793 0.08594,0.0523487 0.08594,0.0417099 0,-0.0106388 0.04922,0.0181977 0.109375,0.0640811 0.06016,0.0458834 0.109375,0.0734404 0.109375,0.0612378 0,-0.0122026 0.0911,0.0494096 0.202454,0.13691603 0.11135,0.087506 0.21751,0.1591025 0.235912,0.1591025 0.04371,0 0.971165,0.9274524 0.960456,0.9604507 -0.0045,0.013891 0.04304,0.088238 0.105672,0.1652151 0.109444,0.13452 0.203007,0.2841669 0.302425,0.4837092 0.02569,0.051563 0.07607,0.1359375 0.111961,0.1875 0.03589,0.051563 0.0624,0.09701 0.05892,0.1009953 -0.02099,0.024015 0.10408,0.2513147 0.180135,0.3273703 0.110123,0.1101228 0.169679,0.2937825 0.142407,0.4391553 -0.01114,0.059359 -0.12194,0.3095913 -0.246231,0.5560722 C 12.429522,4.8409616 12.416627,4.8588119 12.266537,4.93587 L 12.111194,5.015625 10.919021,5.024485 9.7268472,5.033345 9.3790463,5.3820687 9.03125,5.7307847 v 1.412289 1.4122894 L 8.9448734,8.7207066 C 8.8802666,8.8443784 8.8238963,8.9043475 8.7212084,8.95865 L 8.5839197,9.03125 H 7.1568472 5.7297747 L 5.3805122,9.3819909 5.03125,9.7327316 v 0.9362674 c 0,0.877289 -0.004,0.944531 -0.063495,1.067431 -0.045613,0.09422 -0.1871309,0.235615 -0.502505,0.502054 -0.5604578,0.473494 -0.623284,0.516143 -0.7848559,0.532793 -0.1098263,0.01132 -0.1764956,-0.0081 -0.3757066,-0.109506 z M 3.8116559,11.435713 4,11.278972 v -0.9146 C 4,9.4527837 4.00025,9.4492625 4.0775991,9.2951981 4.1811228,9.0889837 5.1131753,8.1644228 5.3145537,8.0681853 5.4539681,8.0015603 5.4863244,8 6.7286162,8 H 8 V 6.7129912 C 8,5.4934269 8.0032459,5.4193247 8.0619403,5.2989287 8.1441378,5.1303228 9.1710625,4.1104859 9.3222534,4.0473144 9.4163231,4.0080094 9.6275906,4 10.57027,4 h 1.134778 l 0.03397,-0.089989 c 0.02818,-0.074655 0.02211,-0.1145918 -0.03562,-0.234375 -0.03827,-0.079412 -0.06358,-0.1443859 -0.05624,-0.1443859 0.0073,0 -0.01669,-0.042187 -0.05341,-0.09375 -0.03672,-0.051563 -0.05809,-0.09375 -0.0475,-0.09375 0.01059,0 -0.02361,-0.062299 -0.076,-0.1384431 C 11.417863,3.1291634 11.375,3.0567836 11.375,3.044463 c 0,-0.01232 -0.04922,-0.082466 -0.109375,-0.1558788 -0.06016,-0.073413 -0.109375,-0.1483767 -0.109375,-0.1665865 0,-0.041615 -0.680307,-0.7243866 -0.711458,-0.7140364 -0.0126,0.00419 -0.08153,-0.039508 -0.153176,-0.097101 -0.07164,-0.057594 -0.136018,-0.09977 -0.143057,-0.093725 -0.007,0.00604 -0.06092,-0.025314 -0.119741,-0.069685 C 9.9352003,1.6768259 9.5396806,1.4721178 9.453125,1.4494895 9.4359375,1.4449962 9.3234375,1.404835 9.203125,1.3602424 9.0828125,1.3156498 8.9597656,1.2726028 8.9296875,1.2645825 8.8996094,1.2565621 8.8503906,1.2433656 8.8203125,1.2352568 8.6321959,1.1845425 8.4896775,1.1571877 8.296875,1.1347886 8.0568597,1.1069045 7.0363025,1.1087065 6.8125,1.1374095 6.6095809,1.1634342 6.3404884,1.217751 6.25,1.2509509 6.2070312,1.2667161 6.1367187,1.2862931 6.09375,1.2944554 5.8832009,1.3344512 5.6908241,1.3958384 5.6375962,1.4400136 5.6134809,1.4600277 5.59375,1.4672885 5.59375,1.4561489 c 0,-0.01114 -0.042187,0.00156 -0.09375,0.028226 -0.051563,0.026664 -0.09375,0.040593 -0.09375,0.030953 0,-0.00964 -0.031641,4.69e-5 -0.070312,0.021528 -0.038672,0.02148 -0.077344,0.039927 -0.085937,0.040993 -0.00859,0.00107 -0.096325,0.040573 -0.1949587,0.087793 -0.098634,0.04722 -0.1900397,0.087064 -0.203125,0.088542 -0.013085,0.00148 -0.062463,0.030224 -0.1097288,0.06388 -0.047266,0.033656 -0.085937,0.052528 -0.085937,0.041939 0,-0.01059 -0.066797,0.026703 -0.1484375,0.082874 -0.081641,0.05617 -0.1490063,0.095518 -0.1497012,0.087439 -6.969e-4,-0.00808 -0.058969,0.031014 -0.1294972,0.086874 -0.07053,0.055857 -0.139205,0.1015601 -0.1526134,0.1015601 -0.013408,0 -0.1271816,0.084375 -0.2528291,0.1875 -0.1256475,0.103125 -0.2425009,0.1875 -0.2596743,0.1875 -0.040784,0 -0.9697488,0.9289647 -0.9697488,0.9697488 0,0.017173 -0.084375,0.1340268 -0.1875,0.2596743 -0.103125,0.1256475 -0.1875,0.2394206 -0.1875,0.2528291 0,0.013408 -0.040585,0.075621 -0.090188,0.1382509 C 2.078958,4.2768821 2.039865,4.3351562 2.041688,4.34375 2.043508,4.35234 1.999045,4.426172 1.942875,4.5078125 1.886705,4.5894535 1.849412,4.65625 1.860001,4.65625 c 0.01059,0 -0.013289,0.045703 -0.053065,0.1015625 C 1.767161,4.8136715 1.738415,4.86305 1.743056,4.8675412 1.747696,4.8720312 1.71286,4.9564082 1.66564,5.0550412 1.61842,5.1536752 1.578913,5.2414062 1.577847,5.25 1.576777,5.25859 1.558334,5.297266 1.536854,5.335937 1.515374,5.374609 1.505686,5.406249 1.515326,5.406249 c 0.00964,0 -0.00429,0.042187 -0.030953,0.09375 -0.026664,0.051563 -0.039366,0.09375 -0.028226,0.09375 0.01114,0 0.00388,0.019731 -0.016135,0.043846 -0.044175,0.053228 -0.1055624,0.2456047 -0.1455582,0.4561538 -0.00816,0.042969 -0.027739,0.1132812 -0.043504,0.15625 -0.0332,0.090488 -0.087517,0.3595809 -0.1135414,0.5625 -0.028703,0.2238025 -0.030505,1.2443597 -0.00262,1.484375 0.022399,0.1928025 0.049754,0.3353209 0.1004682,0.5234375 0.00811,0.030078 0.021305,0.079297 0.029326,0.109375 0.00802,0.030078 0.051067,0.153125 0.09566,0.2734375 0.044593,0.1203125 0.084754,0.2328125 0.089247,0.25 0.022628,0.086556 0.2273364,0.4820753 0.2979598,0.5756932 0.044372,0.05882 0.07573,0.112701 0.069685,0.119741 -0.00604,0.007 0.036132,0.07142 0.093725,0.143057 0.057593,0.07164 0.1012892,0.140572 0.097101,0.153176 -0.01035,0.03115 0.6724215,0.711458 0.7140364,0.711458 0.01821,0 0.093174,0.04922 0.1665865,0.109375 0.073413,0.06016 0.1435583,0.109375 0.1558788,0.109375 0.012321,0 0.0847,0.04286 0.1608439,0.09525 0.076144,0.05239 0.1384431,0.08637 0.1384431,0.07552 0,-0.01085 0.038467,0.0083 0.085482,0.04254 0.1013018,0.07379 0.1187681,0.06682 0.3824243,-0.152593 z"
       id="path821"
       inkscape:connector-curvature="0" />
    <path
       style="fill:#650000;stroke-width:0.000357143"
       d="m 12.479424,15.955879 c -0.640302,-0.122235 -1.198269,-0.423196 -1.638121,-0.883583 -0.376013,-0.393569 -0.634512,-0.865683 -0.769126,-1.404708 -0.074224,-0.297206 -0.074224,-1.03797 0,-1.335176 0.278115,-1.113636 1.08906,-1.93983 2.204497,-2.245953 0.343937,-0.09439 1.102715,-0.09439 1.446652,0 1.115437,0.306123 1.926382,1.132317 2.204497,2.245953 0.07422,0.297206 0.07422,1.03797 0,1.335176 -0.278246,1.114159 -1.103497,1.953882 -2.204497,2.243156 -0.310928,0.08169 -0.933978,0.104299 -1.243902,0.04514 z m 0.949759,-1.036389 c 0.247168,-0.05501 0.52931,-0.192386 0.793292,-0.386256 0.154157,-0.113213 0.2504,-0.218392 0.37781,-0.412885 0.217145,-0.331477 0.292577,-0.514159 0.351265,-0.850703 0.04186,-0.240061 0.04186,-0.299231 0,-0.539292 -0.05846,-0.335251 -0.134127,-0.519213 -0.347679,-0.845312 -0.171794,-0.262334 -0.273614,-0.359604 -0.572621,-0.547034 -0.252588,-0.158331 -0.458902,-0.236771 -0.761604,-0.289558 -0.240061,-0.04186 -0.299231,-0.04186 -0.539292,0 -0.336544,0.05869 -0.519226,0.13412 -0.850703,0.351265 -0.194493,0.12741 -0.299672,0.223653 -0.412885,0.37781 -0.589209,0.802291 -0.589209,1.642659 0,2.44495 0.113213,0.154157 0.218392,0.2504 0.412885,0.37781 0.323838,0.212141 0.515751,0.293226 0.829031,0.350275 0.256438,0.0467 0.398629,0.04057 0.720501,-0.03107 z"
       id="path819"
       inkscape:connector-curvature="0" />
  </g>
</svg>
