<?xml version="1.0" encoding="UTF-8" standalone="no"?>
<!-- Created with Inkscape (http://www.inkscape.org/) -->

<svg
   version="1.1"
   id="svg2"
   width="1600"
   height="1600"
   viewBox="0 0 1600 1600"
   sodipodi:docname="force_field.svg"
   inkscape:version="1.2.2 (732a01da63, 2022-12-09)"
   xmlns:inkscape="http://www.inkscape.org/namespaces/inkscape"
   xmlns:sodipodi="http://sodipodi.sourceforge.net/DTD/sodipodi-0.dtd"
   xmlns="http://www.w3.org/2000/svg"
   xmlns:svg="http://www.w3.org/2000/svg"
   xmlns:rdf="http://www.w3.org/1999/02/22-rdf-syntax-ns#"
   xmlns:cc="http://creativecommons.org/ns#"
   xmlns:dc="http://purl.org/dc/elements/1.1/">
  <metadata
     id="metadata8">
    <rdf:RDF>
      <cc:Work
         rdf:about="">
        <dc:format>image/svg+xml</dc:format>
        <dc:type
           rdf:resource="http://purl.org/dc/dcmitype/StillImage" />
      </cc:Work>
    </rdf:RDF>
  </metadata>
  <defs
     id="defs6" />
  <sodipodi:namedview
     pagecolor="#808080"
     bordercolor="#666666"
     borderopacity="1"
     objecttolerance="10"
     gridtolerance="10"
     guidetolerance="10"
     inkscape:pageopacity="0"
     inkscape:pageshadow="2"
     inkscape:window-width="1993"
     inkscape:window-height="1009"
     id="namedview4"
     showgrid="false"
     inkscape:zoom="0.5"
     inkscape:cx="191"
     inkscape:cy="208"
     inkscape:window-x="-8"
     inkscape:window-y="-8"
     inkscape:window-maximized="1"
     inkscape:current-layer="FORCE_FIELD"
     inkscape:showpageshadow="0"
     inkscape:pagecheckerboard="true"
     inkscape:deskcolor="#d1d1d1" />
  <g
     id="FORCE_FIELD"
     transform="matrix(100,0,0,100,0,4.9999997e-5)"
     style="stroke-width:0.0114286">
    <path
       style="fill:none;stroke-width:0.000357143"
       d="M 0,8 V 0 h 8 8 v 8 8 H 8 0 Z m 3.5859791,4.801988 c 0.079682,-0.01944 0.4760196,-0.238264 0.4328953,-0.239006 -0.015401,-2.5e-4 0.00569,-0.03212 0.046875,-0.07079 C 4.3042244,12.268246 4.39988,11.888627 4.3000097,11.5625 4.2288991,11.330288 3.1394703,9.4683022 3.0063993,9.3515388 2.831883,9.1984091 2.8125,9.1835219 2.8125,9.2026134 c 0,0.00967 -0.031641,-0.00246 -0.070312,-0.026951 C 2.4391709,8.9837669 1.8197193,9.1162544 1.5717643,9.4259913 1.5237002,9.4860313 1.4681575,9.553005 1.4483361,9.5748219 c -0.058432,0.064315 -0.1381478,0.330739 -0.1403182,0.4689721 -0.00485,0.30878 0.027907,0.38267 0.6395843,1.442816 0.3296,0.571256 0.6098197,1.032134 0.6227103,1.024174 0.012891,-0.008 0.023437,-2.81e-4 0.023437,0.01703 0,0.05422 0.2147603,0.198256 0.3843951,0.257803 0.1560752,0.05479 0.421128,0.06193 0.607834,0.01637 z m 9.3986799,-0.0065 c 0.171064,-0.04973 0.421591,-0.20794 0.421591,-0.266238 0,-0.01809 0.01055,-0.02639 0.02344,-0.01843 0.01289,0.008 0.29311,-0.452918 0.62271,-1.024174 C 14.664078,10.4265 14.696832,10.35261 14.691984,10.04383 14.68981,9.9055609 14.610097,9.6391366 14.551664,9.5748219 14.531843,9.553005 14.4763,9.4860313 14.428236,9.4259912 14.180281,9.1162544 13.560829,8.9837669 13.257813,9.1756628 c -0.03867,0.02449 -0.07031,0.036618 -0.07031,0.026951 0,-0.019092 -0.01938,-0.0042 -0.193899,0.1489253 -0.133071,0.1167635 -1.2225,1.9787489 -1.293611,2.2109609 -0.09987,0.326127 -0.0042,0.705746 0.234261,0.929687 0.04118,0.03867 0.06227,0.07053 0.04687,0.0708 -0.05356,9.22e-4 0.364532,0.222753 0.448537,0.237986 0.0465,0.0084 0.09073,0.02151 0.09828,0.02906 0.03101,0.03101 0.301592,0.01052 0.456717,-0.03458 z M 9.9609375,12.200119 c 0.038672,-0.02492 0.070312,-0.03695 0.070312,-0.02673 0,0.01022 0.0221,-0.0035 0.04911,-0.03053 0.02701,-0.02701 0.0692,-0.04911 0.09375,-0.04911 0.02455,0 0.04464,-0.01406 0.04464,-0.03125 0,-0.01719 0.0273,-0.03125 0.06066,-0.03125 0.03336,0 0.06868,-0.01298 0.07848,-0.02885 0.0098,-0.01586 0.05985,-0.03808 0.111219,-0.04936 0.05137,-0.01128 0.09339,-0.03193 0.09339,-0.04589 0,-0.01396 0.03516,-0.0342 0.07813,-0.04499 0.04297,-0.01079 0.07813,-0.03423 0.07813,-0.05211 0,-0.01787 0.01406,-0.02381 0.03125,-0.01319 0.01719,0.01062 0.03125,0.0054 0.03125,-0.01168 0,-0.01704 0.02461,-0.0391 0.05469,-0.04902 0.03008,-0.0099 0.09949,-0.05657 0.154245,-0.103668 0.05476,-0.0471 0.145301,-0.120794 0.201212,-0.163763 0.117025,-0.08994 0.417327,-0.392972 0.517067,-0.521773 0.03731,-0.04818 0.101481,-0.12979 0.142601,-0.181352 0.10576,-0.132617 0.462915,-0.754662 0.477862,-0.8322769 0.0069,-0.035599 0.02586,-0.080868 0.04223,-0.100599 0.04823,-0.058111 0.200058,-0.5336285 0.240953,-0.7546241 0.0064,-0.034375 0.02493,-0.1328125 0.04127,-0.21875 C 12.669729,8.7734375 12.679369,8.4992188 12.674812,8.25 12.663622,7.6381031 12.572358,7.3264609 12.321189,7.0424637 12.237918,6.9483091 11.875,6.7222097 11.875,6.7644862 c 0,0.011249 -0.01758,0.00947 -0.03906,-0.00395 -0.133385,-0.083328 -0.569497,-0.046197 -0.703125,0.059864 -0.02149,0.017052 -0.03906,0.021696 -0.03906,0.01032 0,-0.022386 -0.01912,-0.00784 -0.19204,0.1460337 -0.306425,0.2726853 -0.422237,0.714011 -0.289765,1.1042003 0.0461,0.1357922 0.05623,0.5147807 0.01579,0.5909216 -0.0091,0.017188 -0.02051,0.048828 -0.02529,0.070312 -0.0326,0.1465359 -0.0689,0.2588391 -0.121059,0.3745438 -0.114692,0.2544318 -0.155795,0.3286443 -0.189458,0.3420709 -0.01991,0.00794 -0.05318,0.055437 -0.07394,0.1055462 -0.02076,0.050109 -0.05017,0.083425 -0.06536,0.074035 -0.01519,-0.00939 -0.02762,-0.00388 -0.02762,0.012254 0,0.04781 -0.2277678,0.26812 -0.3609203,0.3491034 -0.0679,0.041297 -0.1304859,0.083657 -0.1390797,0.094134 -0.00859,0.01048 -0.064844,0.03781 -0.125,0.06074 -0.183505,0.06994 -0.4517838,0.202938 -0.4760841,0.236014 -0.012628,0.01719 -0.023174,0.02114 -0.023437,0.0088 -2.5e-4,-0.01236 -0.057575,0.02983 -0.1273606,0.09375 -0.1394906,0.127764 -0.3003859,0.384984 -0.317125,0.50698 -0.00589,0.04289 -0.018894,0.09205 -0.028909,0.109236 -0.053039,0.09103 0.039821,0.572073 0.1320065,0.683843 0.2416822,0.293025 0.475351,0.446439 0.7250722,0.476041 0.089492,0.01061 0.1665866,0.02269 0.1713219,0.02685 0.022645,0.0199 0.3434881,-0.05606 0.4054528,-0.09599 z M 6.65625,12.173679 c 0.2351912,-0.05169 0.6026162,-0.339239 0.6439625,-0.503976 0.010485,-0.04177 0.029932,-0.07595 0.043215,-0.07595 0.071523,0 0.1068088,-0.475005 0.052446,-0.70601 C 7.3745928,10.797312 7.18702,10.496228 7.1101597,10.429124 6.9816881,10.316961 6.7915069,10.222008 6.5938266,10.171332 6.48215,10.142703 6.3837125,10.109277 6.3750766,10.097053 6.3664406,10.084828 6.3038203,10.041038 6.2359203,9.9997409 6.1027678,9.9187575 5.875,9.6984472 5.875,9.6506375 5.875,9.6345085 5.86257,9.6289935 5.847377,9.6383835 5.832184,9.6477735 5.802772,9.6144575 5.782016,9.5643485 5.7612597,9.5142394 5.7279872,9.4667434 5.7080763,9.4588022 5.6746447,9.4454681 5.6201209,9.3469672 5.5146559,9.109375 5.4659916,8.9997431 5.4291825,8.8843197 5.3975588,8.7421875 5.3927784,8.7207031 5.3803544,8.6890625 5.3699494,8.671875 5.3421569,8.6259656 5.3485469,8.0210697 5.3772169,7.9839234 5.4128831,7.9377128 5.40492,7.4600209 5.3677175,7.4140625 5.3503263,7.3925781 5.3461928,7.375 5.3585316,7.375 5.3708706,7.375 5.3354634,7.2941406 5.2798494,7.1953125 5.1216509,6.9141891 4.9127138,6.7387006 4.6586769,6.6735828 4.2958241,6.5805722 3.9006925,6.6886494 3.6371081,6.9530047 3.5349372,7.0554744 3.4508719,7.1868862 3.4621109,7.2265625 3.4657625,7.2394531 3.4563569,7.25 3.4412097,7.25 c -0.025927,0 -0.0882,0.2100137 -0.092662,0.3125 -0.024701,0.5673644 -0.025803,1.1752369 -0.00235,1.296875 0.016569,0.085937 0.035329,0.184375 0.04169,0.21875 0.040895,0.2209956 0.1927285,0.6965134 0.2409528,0.7546241 0.016374,0.019731 0.03538,0.065 0.042236,0.100599 0.014947,0.077615 0.3721015,0.6996599 0.4778615,0.8322769 0.04112,0.05156 0.1052906,0.133171 0.142601,0.181352 0.09974,0.128801 0.4000415,0.431835 0.5170671,0.521773 0.055911,0.04297 0.1464563,0.116662 0.2012125,0.163763 0.054757,0.0471 0.1241669,0.09375 0.154245,0.103668 0.030078,0.0099 0.054687,0.03198 0.054687,0.04902 0,0.01704 0.014062,0.0223 0.03125,0.01168 0.017188,-0.01062 0.03125,-0.0047 0.03125,0.01319 0,0.01788 0.035156,0.04132 0.078125,0.05211 0.042969,0.01078 0.078125,0.03103 0.078125,0.04499 0,0.01396 0.042026,0.03461 0.093392,0.04589 0.051366,0.01128 0.1014141,0.03349 0.1112194,0.04936 0.00981,0.01586 0.043951,0.02885 0.075879,0.02885 0.031928,0 0.062739,0.0131 0.068468,0.02911 0.016045,0.04484 0.4483381,0.143782 0.6133519,0.140384 0.080886,-0.0017 0.1962834,-0.01384 0.2564396,-0.02707 z M 8.421875,9.9218953 C 9.1647875,9.7664541 9.7977041,9.1335375 9.9531453,8.390625 10.250266,6.9705728 8.9981772,5.7184844 7.578125,6.0156047 7.0106991,6.1343284 6.4780709,6.5462381 6.2230478,7.0635578 c -0.2954,0.5992253 -0.2954,1.2111591 0,1.8103844 0.3931413,0.7974956 1.3092084,1.2340898 2.1988272,1.0479531 z M 6.3932256,5.9338431 C 6.5128191,5.8890975 6.6269797,5.8121028 6.7459603,5.6959441 6.9868753,5.4607434 7.2730356,5.3273669 7.6796875,5.2607434 7.9795622,5.2116137 8.0203856,5.2116116 8.3194934,5.2607122 8.7016828,5.3234481 8.9325891,5.4246297 9.2958109,5.6885278 9.6200659,5.9241122 9.810465,6 10.077288,6 10.653537,6 11.09375,5.5601491 11.09375,4.984375 c 0,-0.2378547 -0.0822,-0.4808997 -0.218554,-0.6462097 C 10.769183,4.20964 10.139701,3.7743953 9.8438022,3.6250263 8.9438159,3.1707147 7.6634784,3.0879065 6.6714788,3.4198503 6.4939269,3.4792628 6.2596625,3.5726194 6.1508909,3.6273088 5.6348041,3.8867947 5.1825859,4.29559 5.0655291,4.6084525 c -0.1959247,0.5236556 0.061522,1.1311497 0.5605493,1.3227231 0.2311938,0.088754 0.5342444,0.089807 0.7671472,0.00267 z M 9.3650469,2.9326941 C 9.8741259,2.7422231 10.132416,2.1375079 9.9326941,1.6037033 9.8418763,1.3609706 9.6077794,1.1268739 9.3650469,1.0360559 9.1924878,0.97149341 9.1368484,0.96875 8,0.96875 c -1.1368484,0 -1.1924878,0.002743 -1.3650469,0.0673059 -0.6695112,0.2504963 -0.8538312,1.155392 -0.3400062,1.6692171 0.2879297,0.2879298 0.3068793,0.2912044 1.6960684,0.2930987 1.1481694,0.00157 1.2010653,-9.628e-4 1.3740316,-0.065678 z"
       id="path827"
       inkscape:connector-curvature="0" />
    <path
       style="fill:#fecb98;stroke-width:0.000357143"
       d="M 3.0625,12.257387 C 2.9145163,12.154956 2.8821653,12.106386 2.3602989,11.203125 1.87604,10.364957 1.8357643,10.283376 1.8241805,10.117188 1.8165973,10.008394 1.8241517,9.9375 1.8433279,9.9375 c 0.01742,0 0.028685,-0.010547 0.025033,-0.023437 -0.013005,-0.04591 0.070536,-0.1608012 0.1667292,-0.2292969 0.07005,-0.04988 0.1497007,-0.071554 0.2813136,-0.07655 C 2.4173817,9.6043825 2.5,9.6136222 2.5,9.6287481 c 0,0.015126 0.018906,0.027502 0.042014,0.027502 0.097823,0 0.2286464,0.1889234 0.7249262,1.0468749 0.4540147,0.784885 0.5260397,0.92767 0.537821,1.066194 0.018303,0.215215 -0.085853,0.418344 -0.2578866,0.502938 -0.10927,0.05373 -0.3980738,0.04486 -0.4843746,-0.01487 z m 9.385167,0.01399 c -0.17051,-0.09154 -0.270439,-0.290283 -0.252429,-0.502054 0.01178,-0.138524 0.08381,-0.281309 0.537821,-1.066194 0.49628,-0.8579516 0.627103,-1.046875 0.724927,-1.046875 0.02311,0 0.04201,-0.012376 0.04201,-0.027502 0,-0.015126 0.08262,-0.024366 0.183596,-0.020532 0.131613,0.005 0.211264,0.02667 0.281314,0.07655 0.09619,0.068496 0.179734,0.1833866 0.166729,0.2292969 -0.0037,0.012891 0.0076,0.023437 0.02503,0.023437 0.01918,0 0.02673,0.070894 0.01915,0.1796881 -0.01158,0.166188 -0.05186,0.247769 -0.536118,1.085937 -0.531226,0.91946 -0.556631,0.957196 -0.711286,1.056491 -0.09484,0.06089 -0.376391,0.06778 -0.480748,0.01176 z M 9.34375,11.731455 c -0.1179056,-0.05077 -0.25,-0.183888 -0.25,-0.251941 0,-0.02311 -0.012376,-0.04201 -0.027502,-0.04201 -0.015126,0 -0.024366,-0.08262 -0.020532,-0.183596 0.005,-0.131613 0.02667,-0.211264 0.07655,-0.281314 0.068496,-0.09619 0.1833866,-0.179734 0.2292969,-0.166729 0.012891,0.0037 0.023437,-0.0074 0.023437,-0.02461 0,-0.01719 0.012345,-0.03125 0.027434,-0.03125 0.015088,0 0.081885,-0.02375 0.1484375,-0.05279 0.066552,-0.02903 0.128035,-0.05385 0.1366287,-0.05514 0.022248,-0.0033 0.3821399,-0.211051 0.4333639,-0.25011 0.0463,-0.0353 0.444548,-0.4376771 0.515993,-0.5213374 0.08355,-0.09783 0.300643,-0.4839137 0.300643,-0.5346615 0,-0.028064 0.01368,-0.05948 0.0304,-0.069814 0.01672,-0.010334 0.04554,-0.07796 0.06404,-0.1502816 0.0185,-0.072321 0.04228,-0.1525868 0.05284,-0.1783681 0.02784,-0.067995 0.02724,-0.065458 0.05172,-0.21875 0.0277,-0.1734634 0.03296,-0.5835212 0.0088,-0.6828759 -0.0098,-0.040425 -0.0336,-0.09242 -0.05279,-0.1155429 -0.04824,-0.05812 -0.02881,-0.3255956 0.03051,-0.4201265 0.132194,-0.2106578 0.35602,-0.2994972 0.611397,-0.2426706 0.08867,0.019731 0.307311,0.1794253 0.247048,0.1804443 -0.01556,2.5e-4 -0.01237,0.01081 0.0071,0.023437 0.04638,0.030094 0.13649,0.2982197 0.159996,0.4760841 0.0305,0.2308166 0.01285,0.953125 -0.02329,0.953125 -0.0056,0 -0.01479,0.041866 -0.04479,0.203125 -0.02725,0.1464638 -0.03244,0.166615 -0.05233,0.203125 -0.0094,0.017188 -0.03624,0.094531 -0.05973,0.171875 -0.02349,0.077344 -0.06114,0.1683634 -0.08366,0.2022659 -0.02252,0.033902 -0.04095,0.080527 -0.04095,0.1036094 0,0.052563 -0.292023,0.5497588 -0.375562,0.6394268 -0.03407,0.03657 -0.06194,0.07584 -0.06194,0.08728 0,0.01144 -0.03516,0.05873 -0.07813,0.105093 -0.04297,0.04636 -0.07813,0.09847 -0.07813,0.115782 0,0.01732 -0.01406,0.02279 -0.03125,0.01217 -0.01719,-0.01062 -0.03125,-0.0066 -0.03125,0.009 0,0.01557 -0.04922,0.07898 -0.109375,0.14092 -0.06016,0.06194 -0.109375,0.105801 -0.109375,0.09747 0,-0.0083 -0.03961,0.024 -0.08803,0.07186 -0.04842,0.04786 -0.120454,0.108109 -0.160079,0.13389 -0.03962,0.02578 -0.0906,0.06464 -0.11327,0.08635 -0.06791,0.06503 -0.443143,0.254959 -0.463495,0.234608 -0.01038,-0.01038 -0.01887,-0.0053 -0.01887,0.01131 0,0.0166 -0.05222,0.04906 -0.11604,0.07214 -0.063822,0.02308 -0.135139,0.06106 -0.1584821,0.0844 -0.023343,0.02334 -0.062531,0.04244 -0.087085,0.04244 -0.024553,0 -0.044651,0.01055 -0.04466,0.02344 -3.12e-5,0.04404 -0.2654047,0.03645 -0.3749828,-0.01073 z M 6.078125,11.620716 C 5.975,11.585342 5.8802934,11.540195 5.8676659,11.520388 c -0.012628,-0.01981 -0.023174,-0.02557 -0.023437,-0.01281 -5.531e-4,0.02681 -0.390005,-0.174752 -0.4515959,-0.233726 -0.022673,-0.02171 -0.073645,-0.06057 -0.1132697,-0.08635 -0.039625,-0.02578 -0.1116603,-0.08603 -0.1600791,-0.13389 -0.048418,-0.04786 -0.088034,-0.0802 -0.088034,-0.07186 0,0.0083 -0.049219,-0.03553 -0.109375,-0.09747 -0.060156,-0.06194 -0.109375,-0.125355 -0.109375,-0.14092 0,-0.01556 -0.014062,-0.01961 -0.03125,-0.009 -0.017188,0.01062 -0.03125,0.0051 -0.03125,-0.01217 0,-0.01732 -0.035156,-0.06942 -0.078125,-0.115782 -0.042969,-0.04636 -0.078125,-0.09366 -0.078125,-0.105093 0,-0.01144 -0.027872,-0.05071 -0.061938,-0.08728 C 4.4482734,10.324384 4.15625,9.8271884 4.15625,9.7746253 4.15625,9.7515425 4.1378225,9.7049181 4.1153,9.6710159 4.0927775,9.6371134 4.0551309,9.5460938 4.0316409,9.46875 4.0081509,9.3914062 3.9812706,9.3140625 3.9719072,9.296875 3.9520169,9.260365 3.9468256,9.2402138 3.9195775,9.09375 3.8895769,8.9324909 3.8803453,8.890625 3.8747872,8.890625 c -0.035749,0 -0.047206,-0.579995 -0.021472,-1.0869747 0.011713,-0.2307512 0.027497,-0.295934 0.099082,-0.4091847 C 4.0568456,7.2292237 4.1588985,7.1686534 4.34887,7.1591509 c 0.2028578,-0.010147 0.4021785,0.098218 0.4893328,0.2660363 0.021158,0.04074 0.028698,0.1836044 0.019793,0.375 -0.021427,0.4605091 -0.019626,0.7611919 0.0055,0.9185628 0.024476,0.1532916 0.023877,0.1507553 0.051721,0.21875 0.010558,0.025781 0.034335,0.1060469 0.052838,0.1783681 0.018503,0.072321 0.047322,0.1399478 0.064043,0.1502816 0.016721,0.010334 0.030401,0.04175 0.030401,0.069814 0,0.050748 0.2170969,0.4368315 0.3006428,0.5346615 0.071445,0.08366 0.4696972,0.4860378 0.5159928,0.5213378 0.077271,0.05892 0.41674,0.246759 0.4646144,0.257087 0.025781,0.0056 0.085548,0.01477 0.1328159,0.02046 0.047268,0.0057 0.1070335,0.02785 0.1328125,0.04924 0.025779,0.0214 0.046872,0.02894 0.046872,0.01677 0,-0.03183 0.2179778,0.197052 0.2226563,0.233799 0.00737,0.0579 0.012705,0.07761 0.029441,0.108807 0.066809,0.124527 -0.081075,0.454755 -0.2457487,0.54876 -0.1234894,0.0705 -0.3685103,0.06791 -0.5844741,-0.0062 z M 5.7800006,5.4280394 C 5.6866897,5.3786953 5.6205334,5.3123997 5.5695066,5.2171019 5.4206437,4.939085 5.5311831,4.6780894 5.9229044,4.3826916 6.7911772,3.7279253 8.0667175,3.5395544 9.1575181,3.9050059 c 0.3607822,0.1208732 0.5235516,0.2049 0.9476749,0.4892197 0.372188,0.2495038 0.488557,0.3900716 0.488557,0.5901494 0,0.1629166 -0.12568,0.3620575 -0.280001,0.4436644 C 10.075116,5.5542319 9.9555475,5.5256206 9.578125,5.2520134 9.0296641,4.8544147 8.6770688,4.7400222 8,4.7400222 c -0.3651572,0 -0.500365,0.012911 -0.69646,0.066504 -0.3264141,0.08921 -0.7169803,0.2960553 -0.8479722,0.44909 C 6.3321019,5.3998581 6.1511319,5.5 6.0139325,5.5 5.9601138,5.5 5.8548444,5.4676178 5.7800006,5.4280394 Z m 1,-3 C 6.6256797,2.3464324 6.5,2.1472917 6.5,1.984375 6.5,1.8214583 6.6256797,1.6223176 6.7800006,1.5407106 6.9144822,1.4695951 6.9288094,1.46875 8,1.46875 c 1.0711906,0 1.0855178,8.45e-4 1.2199994,0.071961 C 9.3743203,1.6223176 9.5,1.8214583 9.5,1.984375 9.5,2.1472917 9.3743203,2.3464324 9.2199994,2.4280394 9.0855178,2.4991549 9.0711906,2.5 8,2.5 6.9288094,2.5 6.9144822,2.499155 6.7800006,2.4280394 Z"
       id="path825"
       inkscape:connector-curvature="0" />
    <path
       style="fill:#fe9832;stroke-width:0.000357143"
       d="M 7.6957081,9.4214341 C 6.9375322,9.2567141 6.406005,8.4925366 6.5316178,7.7478197 6.6674231,6.9426747 7.4438894,6.3693028 8.2209303,6.5003678 9.0260753,6.6361731 9.5994472,7.4126394 9.4683822,8.1896803 9.3652066,8.8013756 8.8934891,9.2948856 8.2896816,9.422835 8.0349522,9.4768134 7.9496834,9.4766122 7.6957081,9.421435 Z"
       id="path823"
       inkscape:connector-curvature="0" />
    <path
       style="fill:#cb6500;stroke-width:0.000357143"
       d="M 2.9781451,12.785618 C 2.8085103,12.726071 2.59375,12.582038 2.59375,12.527815 c 0,-0.01733 -0.010547,-0.02499 -0.023437,-0.01703 -0.012891,0.008 -0.2931103,-0.452918 -0.6227103,-1.024174 C 1.3359245,10.426464 1.3031696,10.352574 1.3080179,10.043794 1.3101882,9.9055609 1.3899036,9.6391366 1.4483361,9.5748219 1.4681575,9.553005 1.5237002,9.4860313 1.5717643,9.4259912 1.8197193,9.1162544 2.4391709,8.9837669 2.7421875,9.1756628 c 0.038672,0.02449 0.070312,0.036618 0.070312,0.026951 0,-0.019092 0.019383,-0.0042 0.1938993,0.1489253 0.133071,0.1167635 1.2224998,1.9787489 1.2936104,2.2109609 0.09987,0.326127 0.00421,0.705746 -0.2342603,0.929687 -0.041182,0.03867 -0.062276,0.07053 -0.046875,0.0708 0.043124,7.44e-4 -0.3532131,0.219565 -0.4328953,0.239006 -0.186706,0.04556 -0.4517588,0.03842 -0.607834,-0.01637 z m 0.5687299,-0.51336 c 0.1720334,-0.0846 0.27619,-0.287724 0.2578866,-0.502939 C 3.7929803,11.630795 3.7209553,11.48801 3.2669406,10.703125 2.7706608,9.8451734 2.6398377,9.65625 2.5420144,9.65625 2.5189065,9.65625 2.5,9.6438741 2.5,9.6287481 c 0,-0.015126 -0.082618,-0.024366 -0.1835963,-0.020532 -0.1316129,0.005 -0.211264,0.02667 -0.2813136,0.07655 -0.096194,0.068496 -0.1797342,0.1833866 -0.1667292,0.2292969 0.00365,0.012891 -0.00761,0.023437 -0.025033,0.023437 -0.019176,0 -0.026731,0.070894 -0.019147,0.179687 0.011584,0.166189 0.051859,0.24777 0.5361184,1.085938 0.5218664,0.903261 0.5542174,0.951831 0.7022011,1.054262 0.086301,0.05974 0.375105,0.0686 0.484375,0.01487 z m 8.981067,0.557767 c -0.0075,-0.0075 -0.05177,-0.02062 -0.09828,-0.02906 -0.084,-0.01523 -0.502095,-0.237065 -0.448537,-0.237986 0.0154,-2.5e-4 -0.0057,-0.03212 -0.04687,-0.07079 C 11.695776,12.268246 11.60012,11.888627 11.69999,11.5625 11.771101,11.330288 12.86053,9.4683022 12.993601,9.3515388 13.168117,9.1984091 13.1875,9.1835219 13.1875,9.2026134 c 0,0.00967 0.03164,-0.00246 0.07031,-0.026951 0.303016,-0.1918959 0.922468,-0.059408 1.170423,0.2503285 0.04806,0.06004 0.103607,0.1270137 0.123428,0.1488306 0.05843,0.064315 0.138148,0.330739 0.140318,0.4689725 0.0048,0.30878 -0.02791,0.38267 -0.639584,1.442816 -0.3296,0.571256 -0.60982,1.032134 -0.622711,1.024174 -0.01289,-0.008 -0.02344,3.31e-4 -0.02344,0.01843 0,0.0583 -0.250527,0.216508 -0.421591,0.266238 -0.155125,0.0451 -0.425712,0.06558 -0.456717,0.03458 z m 0.400473,-0.570409 c 0.154655,-0.09929 0.18006,-0.137031 0.711286,-1.056491 0.484259,-0.838168 0.524535,-0.919749 0.536118,-1.085937 0.0076,-0.108794 2.9e-5,-0.179688 -0.01915,-0.179688 -0.01742,0 -0.02868,-0.010547 -0.02503,-0.023437 0.013,-0.04591 -0.07054,-0.1608012 -0.166729,-0.2292969 -0.07005,-0.04988 -0.149701,-0.071554 -0.281314,-0.07655 C 13.582618,9.6043825 13.5,9.6136222 13.5,9.6287481 c 0,0.015126 -0.01891,0.027502 -0.04201,0.027502 -0.09782,0 -0.228647,0.1889234 -0.724927,1.0468749 -0.454014,0.784885 -0.526039,0.92767 -0.537821,1.066194 -0.01801,0.211771 0.08192,0.410519 0.252429,0.502054 0.104357,0.05602 0.385904,0.04914 0.480748,-0.01176 z m -3.3729303,0.0365 c -0.00474,-0.0042 -0.08183,-0.01625 -0.1713219,-0.02685 -0.2497212,-0.0296 -0.48339,-0.183016 -0.7250722,-0.476041 -0.092186,-0.11177 -0.1850456,-0.592816 -0.1320065,-0.683843 0.010015,-0.01719 0.023023,-0.06634 0.028909,-0.109236 0.016739,-0.121996 0.1776344,-0.379216 0.317125,-0.50698 0.069785,-0.06392 0.1270975,-0.106107 0.1273606,-0.09375 2.5e-4,0.01236 0.01081,0.0084 0.023437,-0.0088 0.0243,-0.03308 0.2925791,-0.166072 0.4760841,-0.236014 0.060156,-0.02293 0.1164062,-0.05026 0.125,-0.06074 0.00859,-0.01048 0.07118,-0.05284 0.1390797,-0.094134 C 9.8972322,9.9187575 10.125,9.6984472 10.125,9.6506375 c 0,-0.016129 0.01243,-0.021644 0.02762,-0.012254 0.01519,0.00939 0.04461,-0.023926 0.06536,-0.074035 0.02076,-0.050109 0.05403,-0.097605 0.07394,-0.1055462 0.03366,-0.013427 0.07477,-0.087639 0.189458,-0.342071 0.05216,-0.1157046 0.08846,-0.2280078 0.121059,-0.3745437 0.0048,-0.021484 0.01616,-0.053125 0.02529,-0.070312 0.04044,-0.076141 0.03032,-0.4551294 -0.01579,-0.5909216 -0.132472,-0.3901893 -0.01666,-0.831515 0.289765,-1.1042003 0.172916,-0.1538765 0.19204,-0.1684194 0.19204,-0.1460337 0,0.011376 0.01758,0.00673 0.03906,-0.01032 0.133628,-0.1060607 0.56974,-0.143191 0.703125,-0.059864 0.02148,0.013422 0.03906,0.015199 0.03906,0.00395 0,-0.042277 0.362918,0.1838229 0.446189,0.2779775 0.251169,0.2839972 0.342433,0.5956394 0.353623,1.2075363 0.0046,0.2492187 -0.0051,0.5234375 -0.02142,0.609375 -0.01634,0.085937 -0.03491,0.184375 -0.04127,0.21875 -0.0409,0.2209956 -0.192728,0.6965134 -0.240953,0.7546241 -0.01637,0.019731 -0.03538,0.065 -0.04223,0.100599 -0.01495,0.077615 -0.372102,0.6996591 -0.477862,0.8322771 -0.04112,0.05156 -0.10529,0.133171 -0.142601,0.181352 -0.09974,0.128801 -0.400041,0.431835 -0.517067,0.521773 -0.05591,0.04297 -0.146456,0.116662 -0.201212,0.163762 -0.05476,0.0471 -0.124167,0.09375 -0.154245,0.103669 -0.03008,0.0099 -0.05469,0.03198 -0.05469,0.04902 0,0.01704 -0.01406,0.0223 -0.03125,0.01168 -0.01719,-0.01062 -0.03125,-0.0047 -0.03125,0.01319 0,0.01788 -0.03516,0.04132 -0.07813,0.05211 -0.04297,0.01079 -0.07813,0.03103 -0.07813,0.04499 0,0.01396 -0.04203,0.03461 -0.09339,0.04589 -0.05137,0.01128 -0.101414,0.03349 -0.111219,0.04936 -0.0098,0.01586 -0.04512,0.02885 -0.07848,0.02885 -0.03336,0 -0.06066,0.01406 -0.06066,0.03125 0,0.01719 -0.02009,0.03125 -0.04464,0.03125 -0.02455,0 -0.06674,0.0221 -0.09375,0.04911 -0.02701,0.02701 -0.04911,0.04075 -0.04911,0.03053 0,-0.01022 -0.031641,0.0018 -0.070312,0.02673 -0.061965,0.03993 -0.3828075,0.115892 -0.4054528,0.09599 z m 0.1632481,-0.553925 c 9.4e-6,-0.01289 0.020107,-0.02344 0.04466,-0.02344 0.024554,0 0.063742,-0.0191 0.087085,-0.04244 0.023343,-0.02334 0.09466,-0.06133 0.1584822,-0.0844 0.06382,-0.02308 0.11604,-0.05554 0.11604,-0.07214 0,-0.0166 0.0085,-0.02169 0.01887,-0.01131 0.02035,0.02035 0.395581,-0.16958 0.463495,-0.234608 0.02267,-0.02171 0.07364,-0.06057 0.113269,-0.08635 0.03963,-0.02578 0.111661,-0.08603 0.160079,-0.13389 0.04842,-0.04786 0.08803,-0.0802 0.08803,-0.07186 0,0.0083 0.04922,-0.03553 0.109375,-0.09747 0.06016,-0.06194 0.109375,-0.125355 0.109375,-0.14092 0,-0.01556 0.01406,-0.01961 0.03125,-0.009 0.01719,0.01062 0.03125,0.0051 0.03125,-0.01217 0,-0.01732 0.03516,-0.06942 0.07813,-0.115782 0.04297,-0.04636 0.07813,-0.09366 0.07813,-0.105093 0,-0.01144 0.02787,-0.05071 0.06194,-0.08728 0.08354,-0.08967 0.375562,-0.5868636 0.375562,-0.6394267 0,-0.023083 0.01843,-0.069707 0.04095,-0.1036094 0.02252,-0.033902 0.06017,-0.1249221 0.08366,-0.2022659 0.02349,-0.077344 0.05037,-0.1546875 0.05973,-0.171875 0.01989,-0.03651 0.02508,-0.056661 0.05233,-0.203125 0.03,-0.1612591 0.03923,-0.203125 0.04479,-0.203125 0.03614,0 0.0538,-0.7223084 0.02329,-0.953125 C 12.125,7.7596356 12.034892,7.4915103 11.98851,7.4614159 c -0.01946,-0.012628 -0.02265,-0.023174 -0.0071,-0.023437 0.01556,-2.5e-4 -0.01256,-0.036277 -0.0625,-0.080031 -0.235996,-0.2067672 -0.61999,-0.1381372 -0.795945,0.1422569 -0.05932,0.094531 -0.07874,0.3620066 -0.03051,0.4201265 0.01919,0.023123 0.04295,0.075118 0.05279,0.1155429 0.0242,0.099355 0.01894,0.5094125 -0.0088,0.6828759 -0.02448,0.1532916 -0.02388,0.1507553 -0.05172,0.21875 -0.01056,0.025781 -0.03434,0.1060469 -0.05284,0.1783681 -0.0185,0.072321 -0.04732,0.1399478 -0.06404,0.1502816 -0.01672,0.010334 -0.0304,0.04175 -0.0304,0.069814 0,0.050748 -0.217097,0.4368315 -0.300643,0.5346615 -0.07144,0.08366 -0.469697,0.4860377 -0.515993,0.5213377 -0.05122,0.03906 -0.4111156,0.246765 -0.433364,0.25011 -0.00859,0.0013 -0.070077,0.0261 -0.1366287,0.05514 C 9.4843191,10.726245 9.4175222,10.75 9.4024338,10.75 9.387345,10.75 9.375,10.764063 9.375,10.78125 c 0,0.01719 -0.010547,0.02826 -0.023437,0.02461 -0.04591,-0.013 -0.1608012,0.07054 -0.2292969,0.166729 -0.04988,0.07005 -0.071554,0.149701 -0.07655,0.281314 -0.00383,0.100978 0.00541,0.183596 0.020532,0.183596 0.015126,0 0.027502,0.01891 0.027502,0.04201 0,0.06805 0.1320944,0.201172 0.25,0.251941 0.1095781,0.04718 0.3749509,0.05478 0.3749828,0.01073 z m -3.6939225,0.404434 c -0.1253644,-0.03143 -0.2326228,-0.07025 -0.2383519,-0.08626 -0.00573,-0.01601 -0.03654,-0.02911 -0.068468,-0.02911 -0.031928,0 -0.066074,-0.01298 -0.075879,-0.02885 -0.00981,-0.01586 -0.059854,-0.03808 -0.1112193,-0.04936 -0.051365,-0.01128 -0.093392,-0.03193 -0.093392,-0.04589 0,-0.01396 -0.035156,-0.0342 -0.078125,-0.04499 -0.042969,-0.01079 -0.078125,-0.03423 -0.078125,-0.05211 0,-0.01787 -0.014062,-0.02381 -0.03125,-0.01319 -0.017188,0.01062 -0.03125,0.0054 -0.03125,-0.01168 0,-0.01704 -0.024609,-0.0391 -0.054687,-0.04902 -0.030078,-0.0099 -0.099488,-0.05657 -0.154245,-0.103668 C 4.9550612,11.585412 4.8645156,11.511719 4.808605,11.46875 4.6915794,11.378812 4.3912778,11.075778 4.2915378,10.946977 4.2542275,10.898796 4.1900572,10.817187 4.1489369,10.765625 4.0431769,10.633008 3.6860225,10.010963 3.6710753,9.9333481 3.6642197,9.8977494 3.6452137,9.85248 3.6288397,9.8327491 3.5806153,9.7746384 3.4287816,9.2991206 3.3878869,9.078125 3.3815259,9.04375 3.3627653,8.9453125 3.3461966,8.859375 3.322745,8.7377369 3.3238472,8.1298644 3.3485497,7.5625 3.3530116,7.4600137 3.4152844,7.25 3.4412112,7.25 3.4563582,7.25 3.4657642,7.239453 3.4621122,7.226563 3.4508734,7.1868862 3.5349387,7.0554744 3.6371097,6.9530047 3.9006941,6.6886494 4.2958256,6.5805722 4.6586784,6.6735828 4.9127153,6.7387006 5.1216525,6.9141891 5.2798509,7.1953125 5.335465,7.2941406 5.3708722,7.375 5.3585331,7.375 c -0.012339,0 -0.00821,0.017578 0.00919,0.039063 0.037202,0.045958 0.045166,0.5236503 0.0095,0.5698609 -0.02867,0.037146 -0.03506,0.6420422 -0.00727,0.6879516 0.010405,0.017188 0.022829,0.048828 0.027609,0.070312 0.031624,0.1421322 0.068433,0.2575556 0.1170972,0.3671875 0.105465,0.2375922 0.1599887,0.3360931 0.1934203,0.3494272 0.019911,0.00794 0.053183,0.055437 0.073939,0.1055462 0.020756,0.050109 0.050168,0.083425 0.065361,0.074035 0.015193,-0.00939 0.027623,-0.00388 0.027623,0.012254 0,0.04781 0.2277678,0.26812 0.3609203,0.3491034 0.0679,0.041297 0.1305203,0.085087 0.1391562,0.097312 0.00864,0.01222 0.1070735,0.04565 0.21875,0.07428 0.1976803,0.05068 0.3878616,0.145629 0.5163331,0.257792 0.07686,0.0671 0.2644332,0.368188 0.2857141,0.458616 0.054363,0.231005 0.019077,0.70601 -0.052446,0.70601 -0.013284,0 -0.032731,0.03418 -0.043215,0.07595 -0.041346,0.164737 -0.4087713,0.45229 -0.6439625,0.503976 -0.1874091,0.04119 -0.3946916,0.0323 -0.6314397,-0.02706 z m 0.6377888,-0.519737 c 0.1646734,-0.094 0.3125578,-0.424233 0.2457487,-0.54876 -0.016736,-0.0312 -0.02207,-0.05091 -0.029441,-0.108807 -0.00468,-0.03675 -0.2226563,-0.265634 -0.2226563,-0.233799 0,0.01217 -0.021092,0.0046 -0.046872,-0.01677 -0.025779,-0.0214 -0.085545,-0.04355 -0.1328125,-0.04924 -0.047268,-0.0057 -0.1070347,-0.0149 -0.132816,-0.02046 C 6.2958756,10.638722 5.9564069,10.450882 5.8791356,10.391963 5.83284,10.356663 5.4345881,9.9542859 5.3631428,9.8706256 5.2795969,9.7727956 5.0625,9.3867119 5.0625,9.3359641 5.0625,9.3079001 5.04882,9.2764841 5.032099,9.2661501 5.015379,9.2558161 4.986559,9.1881901 4.968056,9.1158685 4.9495531,9.0435469 4.9257762,8.9632813 4.9152184,8.9375 4.8873741,8.8695053 4.8879738,8.8720416 4.8634975,8.71875 4.8383697,8.5613791 4.8365688,8.2606963 4.8579959,7.8001872 c 0.00891,-0.1913956 0.00137,-0.3342603 -0.019793,-0.375 C 4.7510487,7.2573687 4.5517281,7.1490037 4.3488703,7.1591509 4.1588987,7.1686534 4.0568459,7.2292237 3.9523975,7.3944656 3.8808125,7.5077162 3.8650288,7.5728991 3.8533156,7.8036503 3.8275809,8.31063 3.8390378,8.890625 3.8747872,8.890625 c 0.00556,0 0.01479,0.041866 0.04479,0.203125 0.027248,0.1464638 0.032439,0.166615 0.05233,0.203125 0.00936,0.017188 0.036244,0.094531 0.059734,0.171875 0.02349,0.077344 0.061137,0.1683634 0.083659,0.2022659 0.022522,0.033902 0.04095,0.080527 0.04095,0.1036094 0,0.052563 0.2920234,0.5497587 0.3755616,0.6394267 0.034066,0.03657 0.061938,0.07584 0.061938,0.08728 0,0.01144 0.035156,0.05873 0.078125,0.105093 0.042969,0.04636 0.078125,0.09847 0.078125,0.115782 0,0.01732 0.014062,0.02279 0.03125,0.01217 0.017188,-0.01062 0.03125,-0.0066 0.03125,0.009 0,0.01557 0.049219,0.07898 0.109375,0.14092 0.060156,0.06194 0.109375,0.105801 0.109375,0.09747 0,-0.0083 0.039615,0.024 0.088034,0.07186 0.048419,0.04786 0.1204544,0.108109 0.1600791,0.13389 0.039625,0.02578 0.090596,0.06464 0.1132697,0.08635 0.061591,0.05897 0.4510431,0.260538 0.4515959,0.233726 2.5e-4,-0.01276 0.01081,-0.007 0.023437,0.01281 0.040627,0.06373 0.3915807,0.164845 0.5542091,0.159682 0.085937,-0.0027 0.1942634,-0.02666 0.2407241,-0.05319 z M 5.6260784,5.9311756 C 5.1270509,5.7396022 4.8696044,5.1321081 5.0655291,4.6084525 5.1470984,4.3904391 5.411855,4.09981 5.7263697,3.8830338 6.3697016,3.4396228 7.1248366,3.2191184 8,3.2191184 c 0.6719794,0 1.3240981,0.1435622 1.8438022,0.4059079 0.2958988,0.149369 0.9253808,0.5846137 1.0313938,0.713139 0.136354,0.16531 0.218554,0.408355 0.218554,0.6462097 C 11.09375,5.5601491 10.653537,6 10.077288,6 9.810465,6 9.6200659,5.9241122 9.2958109,5.6885253 8.9325891,5.4246272 8.7016828,5.3234456 8.3194934,5.2607097 8.0203856,5.2116116 7.9795622,5.2116138 7.6796875,5.2607409 7.2730356,5.3273644 6.9868753,5.4607409 6.7459603,5.6959416 6.4413772,5.9933006 6.0190131,6.0820181 5.6260784,5.9311731 Z M 6.2311941,5.4391219 C 6.2968691,5.4056387 6.3978372,5.3230609 6.4555678,5.2556159 6.5865597,5.1025812 6.9771259,4.8957356 7.30354,4.8065259 7.499635,4.7529328 7.6348428,4.7400222 8,4.7400222 c 0.6770688,0 1.0296641,0.1143925 1.578125,0.5119912 0.3774225,0.2736072 0.496991,0.3022185 0.735624,0.176026 0.154321,-0.081607 0.280001,-0.2807478 0.280001,-0.4436644 0,-0.2000778 -0.116369,-0.3406456 -0.488557,-0.5901494 C 9.6810697,4.1099059 9.5183003,4.0258791 9.1575181,3.9050059 8.0667175,3.5395544 6.7911772,3.7279253 5.9229044,4.3826916 5.5311831,4.6780894 5.4206438,4.939085 5.5695066,5.2171019 c 0.051027,0.095298 0.1171831,0.1615934 0.210494,0.2109375 0.1663203,0.087953 0.2942541,0.091095 0.4511935,0.011082 z M 6.6260784,2.9311757 C 6.3923678,2.8414558 6.1559234,2.6018985 6.0673059,2.3650467 5.8675841,1.8312421 6.1258741,1.2265269 6.6349531,1.0360559 6.8075122,0.97149341 6.8631516,0.96875 8,0.96875 c 1.1368484,0 1.1924878,0.002743 1.3650469,0.0673059 0.509079,0.190471 0.7673691,0.7951862 0.5676472,1.3289908 C 9.8418763,2.6077794 9.6077794,2.8418761 9.3650469,2.9326941 9.1920806,2.9974089 9.1391847,2.9999373 7.9910153,2.9983717 6.8554931,2.9968233 6.7884909,2.9935248 6.6260784,2.9311757 Z M 9.2199994,2.4280394 C 9.3743203,2.3464324 9.5,2.1472917 9.5,1.984375 9.5,1.8214583 9.3743203,1.6223176 9.2199994,1.5407106 9.0855178,1.4695951 9.0711906,1.46875 8,1.46875 6.9288094,1.46875 6.9144822,1.4695951 6.7800006,1.540711 6.6256797,1.6223176 6.5,1.8214583 6.5,1.984375 6.5,2.1472917 6.6256797,2.3464324 6.7800006,2.4280394 6.9144822,2.4991549 6.9288094,2.5 8,2.5 c 1.0711906,0 1.0855178,-8.45e-4 1.2199994,-0.071961 z"
       id="path821"
       inkscape:connector-curvature="0" />
    <path
       style="fill:#320000;stroke-width:0.000357143"
       d="M 7.5625,9.9201553 C 6.8323191,9.7633309 6.2007041,9.1259294 6.0468547,8.390625 5.7497344,6.9705728 7.0018228,5.7184844 8.421875,6.0156047 9.1647875,6.1710459 9.7977041,6.8039625 9.9531453,7.546875 10.251335,8.9720363 8.9878991,10.226295 7.5625,9.9201553 Z M 8.2896816,9.422835 C 8.8934891,9.2948856 9.3652066,8.8013756 9.4683822,8.1896803 9.5994472,7.4126394 9.0260753,6.6361731 8.2209303,6.5003678 7.4438894,6.3693028 6.6674231,6.9426747 6.5316178,7.7478197 6.406005,8.4925366 6.9375322,9.2567141 7.6957081,9.4214341 c 0.2539753,0.055178 0.3392441,0.055379 0.5939735,0.0014 z"
       id="path819"
       inkscape:connector-curvature="0" />
  </g>
</svg>
