<?xml version="1.0" encoding="UTF-8" standalone="no"?>
<!-- Created with Inkscape (http://www.inkscape.org/) -->

<svg
   version="1.1"
   id="svg2"
   width="1600"
   height="1600"
   viewBox="0 0 1600 1600"
   sodipodi:docname="fullscreen_enter.svg"
   inkscape:version="1.2.2 (732a01da63, 2022-12-09)"
   xmlns:inkscape="http://www.inkscape.org/namespaces/inkscape"
   xmlns:sodipodi="http://sodipodi.sourceforge.net/DTD/sodipodi-0.dtd"
   xmlns="http://www.w3.org/2000/svg"
   xmlns:svg="http://www.w3.org/2000/svg"
   xmlns:rdf="http://www.w3.org/1999/02/22-rdf-syntax-ns#"
   xmlns:cc="http://creativecommons.org/ns#"
   xmlns:dc="http://purl.org/dc/elements/1.1/">
  <metadata
     id="metadata8">
    <rdf:RDF>
      <cc:Work
         rdf:about="">
        <dc:format>image/svg+xml</dc:format>
        <dc:type
           rdf:resource="http://purl.org/dc/dcmitype/StillImage" />
      </cc:Work>
    </rdf:RDF>
  </metadata>
  <defs
     id="defs6" />
  <sodipodi:namedview
     pagecolor="#808080"
     bordercolor="#666666"
     borderopacity="1"
     objecttolerance="10"
     gridtolerance="10"
     guidetolerance="10"
     inkscape:pageopacity="0"
     inkscape:pageshadow="2"
     inkscape:window-width="1993"
     inkscape:window-height="1009"
     id="namedview4"
     showgrid="false"
     fit-margin-top="0"
     fit-margin-left="0"
     fit-margin-right="0"
     fit-margin-bottom="0"
     inkscape:zoom="0.5"
     inkscape:cx="665"
     inkscape:cy="636"
     inkscape:window-x="-8"
     inkscape:window-y="-8"
     inkscape:window-maximized="1"
     inkscape:current-layer="FULLSCREEN_ENTER"
     inkscape:showpageshadow="0"
     inkscape:pagecheckerboard="true"
     inkscape:deskcolor="#d1d1d1" />
  <g
     id="FULLSCREEN_ENTER"
     transform="matrix(100,0,0,100,0,4.9999997e-5)"
     style="stroke-width:0.0114286">
    <path
       style="fill:none;stroke-width:0.000357143"
       d="M 0,7.9999999 V 0 H 7.9999999 16 V 7.9999999 16 H 7.9999999 0 Z m 6.5468749,7.3812681 c 0.3017363,-0.14222 0.6000262,-0.439559 0.7395862,-0.737224 0.1013169,-0.216097 0.1041637,-0.233274 0.1041637,-0.628419 0,-0.394548 -0.00297,-0.412551 -0.1031061,-0.625 C 7.1448955,13.088036 6.8477152,12.790219 6.5502943,12.65182 6.3482915,12.557823 6.2958883,12.547342 5.9729852,12.536358 l -0.3551397,-0.01208 0.8419844,-0.848077 c 1.0323831,-1.039852 1.024545,-1.027149 1.024545,-1.660576 0,-0.394548 -0.00297,-0.4125514 -0.1031062,-0.6250002 C 7.2390473,9.0888886 6.9417099,8.7905986 6.6440443,8.6510386 6.4279474,8.549722 6.4107708,8.5468749 6.0156249,8.5468749 c -0.6334343,0 -0.6207121,-0.00784 -1.6606628,1.0246315 L 3.5067994,10.413577 3.4949359,10.042726 C 3.4840149,9.7013433 3.4748472,9.6542208 3.3795599,9.4497055 3.2409675,9.1522436 2.9430713,8.8550373 2.6406249,8.7124811 2.4281761,8.6123446 2.4101728,8.6093749 2.015625,8.6093749 c -0.3945478,0 -0.4125512,0.00297 -0.6250001,0.1031062 C 1.0888889,8.8547023 0.79059886,9.1520398 0.65103883,9.4497055 L 0.54687499,9.6718748 v 2.3750002 2.375 l 0.10312695,0.218749 c 0.17549557,0.372257 0.53767996,0.690646 0.92812306,0.815894 0.097825,0.03138 0.6277369,0.03877 2.4374999,0.03398 l 2.3125,-0.0061 z M 10.625,7.3920773 c 0.181992,-0.080872 0.291356,-0.1778605 1.051201,-0.9322474 l 0.848077,-0.8419844 0.01183,0.3551397 c 0.01077,0.3230319 0.0211,0.3749166 0.114405,0.5738897 0.141394,0.3015363 0.438443,0.5997522 0.736693,0.7395862 0.216097,0.1013169 0.233273,0.1041637 0.628419,0.1041637 0.395145,0 0.412322,-0.00285 0.628419,-0.1041637 0.297666,-0.13956 0.595004,-0.4378499 0.737224,-0.7395862 l 0.103106,-0.21875 V 3.9687499 1.609375 L 15.381268,1.3906249 C 15.239048,1.0888889 14.941709,0.79059886 14.644044,0.65103883 L 14.421875,0.54687499 h -2.375 -2.3750002 l -0.21875,0.10310635 C 9.1513886,0.79220264 8.8530987,1.0895399 8.7135386,1.3872055 8.612222,1.6033024 8.6093749,1.620479 8.6093749,2.015625 c 0,0.395146 0.00285,0.4123225 0.1041637,0.6284195 0.1397666,0.2981061 0.4380009,0.5952258 0.7395862,0.7368227 0.2014228,0.094569 0.248125,0.1036246 0.5896012,0.1143184 l 0.370851,0.011614 -0.8420706,0.8481627 C 8.5390255,5.3949132 8.5468749,5.382191 8.5468749,6.0156253 c 0,0.3945731 0.00296,0.4125375 0.1031269,0.625 0.1230101,0.260925 0.4160103,0.5757469 0.6468732,0.6950496 0.2749915,0.1421072 0.3825378,0.1638794 0.765625,0.1549979 0.318183,-0.00738 0.382657,-0.018678 0.5625,-0.098595 z"
       id="path823"
       inkscape:connector-curvature="0" />
    <path
       style="fill:#fefefe;stroke-width:0.000357143"
       d="M 1.75,14.971193 C 1.4878288,14.889758 1.253091,14.690747 1.1205008,14.4375 L 1.046875,14.296874 V 12.046875 9.7968749 L 1.130112,9.6406248 c 0.099847,-0.1874268 0.2722298,-0.3574915 0.4636375,-0.4574 0.1172136,-0.061182 0.1874476,-0.073401 0.421875,-0.073401 0.2344273,0 0.3046612,0.01222 0.4218749,0.073401 0.1914077,0.099909 0.3637913,0.2699732 0.4636375,0.4574 l 0.083237,0.1562501 0.015625,0.9142901 0.015626,0.914291 1.2031249,-1.20552 C 5.0679087,9.569087 5.4678446,9.1898552 5.5781249,9.1309333 c 0.1360647,-0.072698 0.1925834,-0.083491 0.4375,-0.083547 0.2345062,-6.24e-5 0.3046219,0.012135 0.421875,0.073338 0.1916006,0.1000087 0.3639296,0.2701253 0.4633496,0.4574 0.072048,0.1357143 0.082949,0.193214 0.082949,0.4375007 0,0.244988 -0.010764,0.301395 -0.083482,0.4375 -0.058922,0.110281 -0.4381522,0.510215 -1.2890047,1.359375 l -1.2055219,1.203125 0.8986675,0.01563 c 0.8679187,0.01509 0.9034791,0.01814 1.0392925,0.08925 0.1917928,0.100415 0.3640138,0.270508 0.4633497,0.457624 0.072048,0.135714 0.082949,0.193213 0.082949,0.4375 0,0.244286 -0.010902,0.301786 -0.082949,0.4375 -0.099336,0.187116 -0.2715569,0.357208 -0.4633497,0.457625 l -0.140625,0.07363 -2.1875,0.0055 C 2.8125,14.992905 1.7929687,14.984489 1.75,14.971168 Z M 9.7499998,6.9726124 C 9.4810161,6.8841758 9.2524018,6.6897705 9.1207249,6.4374999 9.0595223,6.3202468 9.0473336,6.2501311 9.0473867,6.0156249 9.0474493,5.7707083 9.0582352,5.7141896 9.1309333,5.5781249 9.1898552,5.4678446 9.569087,5.0679087 10.419936,4.2187499 L 11.625456,3.015625 10.711165,3 9.7968749,2.9843749 9.6406248,2.9011374 C 9.453198,2.8012912 9.2831333,2.6289076 9.1832248,2.4374999 9.1220224,2.3202468 9.1098336,2.2501313 9.1098867,2.015625 9.1099492,1.7714107 9.1208733,1.7137996 9.1929002,1.578125 9.2922361,1.3910089 9.4644571,1.220916 9.6562498,1.1205008 l 0.1406251,-0.073626 h 2.2500001 2.249999 l 0.140626,0.073626 c 0.191599,0.1003142 0.363876,0.2703559 0.463637,0.4576242 l 0.08324,0.15625 v 2.2343749 2.234375 l -0.08324,0.15625 c -0.09984,0.1874269 -0.27223,0.3574916 -0.463637,0.4574 -0.117214,0.061182 -0.187448,0.073401 -0.421875,0.073401 -0.234428,0 -0.304661,-0.01222 -0.421875,-0.073401 -0.191408,-0.099908 -0.363791,-0.2699731 -0.463638,-0.4574 l -0.08324,-0.15625 -0.01563,-0.8986675 -0.01563,-0.8986675 -1.203125,1.2055219 c -1.345447,1.3481271 -1.362249,1.3613506 -1.75,1.3773287 -0.1289067,0.00531 -0.2695317,-0.0019 -0.3125004,-0.016029 z"
       id="path821"
       inkscape:connector-curvature="0" />
    <path
       style="fill:#323232;stroke-width:0.000357143"
       d="M 1.578125,15.456518 C 1.1876819,15.33127 0.82549752,15.012881 0.65000195,14.640624 L 0.546875,14.421875 v -2.375 -2.3750002 L 0.65103883,9.4497055 C 0.79059886,9.1520398 1.0888889,8.8547023 1.3906249,8.7124811 1.6030738,8.6123446 1.6210771,8.6093749 2.015625,8.6093749 c 0.3945478,0 0.4125511,0.00297 0.6249999,0.1031062 0.3024464,0.1425562 0.6003426,0.4397625 0.738935,0.7372244 0.095287,0.2045153 0.104455,0.2516378 0.115376,0.5930205 l 0.011863,0.370851 0.8481628,-0.8420706 C 5.3949129,8.5390255 5.3821907,8.5468749 6.015625,8.5468749 c 0.3951459,0 0.4123225,0.00285 0.6284194,0.1041637 0.2976656,0.13956 0.595003,0.43785 0.7372243,0.7395862 0.1001365,0.2124488 0.1031062,0.2304522 0.1031062,0.6250002 0,0.633427 0.00783,0.620724 -1.024545,1.660576 l -0.8419844,0.848076 0.3551397,0.01209 c 0.3229031,0.01098 0.3753063,0.02147 0.5773091,0.115462 0.2974209,0.138399 0.5946012,0.436217 0.7372244,0.738805 0.1001365,0.212449 0.1031061,0.230452 0.1031061,0.625 0,0.395145 -0.00285,0.412322 -0.1041637,0.628419 -0.13956,0.297666 -0.4378499,0.595004 -0.7395862,0.737224 l -0.21875,0.103106 -2.3125,0.0061 c -1.809763,0.0048 -2.3396749,-0.0026 -2.4374999,-0.03398 z m 4.7656249,-0.545769 c 0.1917928,-0.100415 0.3640138,-0.270508 0.4633497,-0.457624 0.072048,-0.135714 0.082949,-0.193214 0.082949,-0.4375 0,-0.244287 -0.010902,-0.301786 -0.082949,-0.4375 -0.099336,-0.187117 -0.2715569,-0.357209 -0.4633497,-0.457624 -0.1358134,-0.0711 -0.1713738,-0.07416 -1.0392925,-0.08926 l -0.8986675,-0.01563 1.2055219,-1.203125 c 0.8508525,-0.849161 1.2300828,-1.249095 1.2890047,-1.359376 0.07272,-0.136104 0.083482,-0.192512 0.083482,-0.437499 0,-0.2442864 -0.010902,-0.301786 -0.082949,-0.4375004 C 6.8014295,9.3908502 6.6291005,9.2207339 6.4374999,9.1207249 6.3202468,9.0595223 6.2501311,9.0473336 6.0156249,9.0473867 5.7707083,9.0474493 5.7141896,9.0582352 5.5781249,9.1309333 5.4678446,9.1898552 5.0679087,9.569087 4.2187499,10.419936 L 3.015625,11.625456 3,10.711165 2.9843749,9.7968749 2.9011374,9.6406248 C 2.8012912,9.453198 2.6289076,9.2831333 2.4374999,9.1832248 2.3202862,9.1220429 2.2500523,9.1098229 2.015625,9.1098229 c -0.2344274,0 -0.3046614,0.012221 -0.421875,0.073402 -0.1914077,0.099909 -0.3637912,0.2699732 -0.4636375,0.4574 L 1.0468755,9.796875 v 2.25 2.249999 l 0.073626,0.140626 c 0.1325902,0.253247 0.367328,0.452258 0.6294992,0.533693 0.042968,0.01335 1.0625,0.02177 2.265625,0.01872 l 2.1874999,-0.0055 z M 9.5781249,7.4577121 C 9.1829524,7.3271715 8.8251746,7.0121961 8.6500017,6.6406249 8.5498389,6.4281624 8.5468749,6.410198 8.5468749,6.0156249 c 0,-0.6334343 -0.00784,-0.6207121 1.0246315,-1.6606628 L 10.413577,3.5067994 10.042726,3.4951856 C 9.7012498,3.4844921 9.6545476,3.4754368 9.4531248,3.3808672 9.1515395,3.2392703 8.8533052,2.9421506 8.7135386,2.6440445 8.612222,2.4279475 8.6093749,2.410771 8.6093749,2.015625 c 0,-0.395146 0.00285,-0.4123226 0.1041637,-0.6284195 0.1395601,-0.2976656 0.43785,-0.59500286 0.7395862,-0.73722416 l 0.21875,-0.10310638 h 2.3750002 2.375 l 0.222169,0.10416384 c 0.297665,0.13956003 0.595004,0.4378501 0.737224,0.7395861 l 0.103106,0.2187501 v 2.3593749 2.359375 l -0.103106,0.21875 c -0.14222,0.3017363 -0.439559,0.6000262 -0.737224,0.7395862 -0.216097,0.1013169 -0.233274,0.1041637 -0.628419,0.1041637 -0.395146,0 -0.412323,-0.00285 -0.62842,-0.1041637 C 13.088956,7.1466271 12.791907,6.8484112 12.650513,6.5468749 12.557213,6.3479018 12.54687,6.2960171 12.536108,5.9729852 L 12.524278,5.6178455 11.676201,6.4598299 C 10.656755,7.471953 10.648727,7.4770812 10.0625,7.4906724 9.8272289,7.4961271 9.6599583,7.4847449 9.5781249,7.4577121 Z M 10.453125,6.8979081 C 10.56662,6.8390181 10.938586,6.4869664 11.8125,5.6113118 l 1.203125,-1.2055219 0.01563,0.8986675 0.01563,0.8986675 0.08324,0.15625 c 0.09984,0.1874269 0.27223,0.3574916 0.463638,0.4574 0.117213,0.061182 0.187446,0.073401 0.421874,0.073401 0.234428,0 0.304661,-0.01222 0.421875,-0.073401 0.191407,-0.099908 0.363792,-0.2699731 0.463637,-0.4574 l 0.08324,-0.15625 V 3.9687499 1.734375 l -0.08325,-0.15625 C 14.801376,1.3908567 14.629099,1.2208148 14.4375,1.1205008 L 14.296874,1.046875 H 12.046875 9.7968749 L 9.6562498,1.1205009 C 9.4644571,1.2209159 9.2922361,1.391009 9.1929002,1.5781251 c -0.072027,0.1356746 -0.082958,0.1932857 -0.083014,0.4375 -6.25e-5,0.2345063 0.012135,0.3046218 0.073338,0.4218749 0.099909,0.1914077 0.2699732,0.3637913 0.4574,0.4636375 l 0.1562501,0.083237 0.9142907,0.015626 0.914291,0.015625 -1.20552,1.2031249 C 9.569087,5.0679087 9.1898552,5.4678446 9.1309333,5.5781249 c -0.072698,0.1360647 -0.083491,0.1925834 -0.083547,0.4375 -6.24e-5,0.3193235 0.056561,0.4676009 0.2606137,0.6823353 0.2091741,0.2201244 0.4273082,0.3041631 0.7545,0.2906803 0.178137,-0.00734 0.271867,-0.029111 0.390625,-0.090732 z"
       id="path819"
       inkscape:connector-curvature="0" />
  </g>
</svg>
