<?xml version="1.0" encoding="UTF-8" standalone="no"?>
<!-- Created with Inkscape (http://www.inkscape.org/) -->

<svg
   version="1.1"
   id="svg2"
   width="1600"
   height="1600"
   viewBox="0 0 1600 1600"
   sodipodi:docname="game.svg"
   inkscape:version="1.2.2 (732a01da63, 2022-12-09)"
   xmlns:inkscape="http://www.inkscape.org/namespaces/inkscape"
   xmlns:sodipodi="http://sodipodi.sourceforge.net/DTD/sodipodi-0.dtd"
   xmlns="http://www.w3.org/2000/svg"
   xmlns:svg="http://www.w3.org/2000/svg"
   xmlns:rdf="http://www.w3.org/1999/02/22-rdf-syntax-ns#"
   xmlns:cc="http://creativecommons.org/ns#"
   xmlns:dc="http://purl.org/dc/elements/1.1/">
  <metadata
     id="metadata8">
    <rdf:RDF>
      <cc:Work
         rdf:about="">
        <dc:format>image/svg+xml</dc:format>
        <dc:type
           rdf:resource="http://purl.org/dc/dcmitype/StillImage" />
      </cc:Work>
    </rdf:RDF>
  </metadata>
  <defs
     id="defs6" />
  <sodipodi:namedview
     pagecolor="#808080"
     bordercolor="#666666"
     borderopacity="1"
     objecttolerance="10"
     gridtolerance="10"
     guidetolerance="10"
     inkscape:pageopacity="0"
     inkscape:pageshadow="2"
     inkscape:window-width="1993"
     inkscape:window-height="1009"
     id="namedview4"
     showgrid="false"
     inkscape:zoom="0.28588106"
     inkscape:cx="341.05092"
     inkscape:cy="713.58347"
     inkscape:window-x="-8"
     inkscape:window-y="-8"
     inkscape:window-maximized="1"
     inkscape:current-layer="GAME"
     inkscape:showpageshadow="0"
     inkscape:pagecheckerboard="true"
     inkscape:deskcolor="#d1d1d1" />
  <g
     id="GAME"
     transform="matrix(100,0,0,100,0,4.9999997e-5)"
     style="stroke-width:0.0114286">
    <path
       style="fill:none;stroke-width:0.000357143"
       d="M 0,8 V 0 h 8 8 v 8 8 H 8 0 Z m 14.133603,4.379414 c 0.333998,-0.11861 0.540621,-0.252161 0.797001,-0.515143 0.252091,-0.258584 0.378551,-0.463526 0.494734,-0.801771 0.04604,-0.134039 0.05904,-0.261304 0.05904,-0.578125 0,-0.223437 -0.01596,-0.455469 -0.03547,-0.515625 -0.01951,-0.060156 -0.05304,-0.19375 -0.07451,-0.296875 -0.02147,-0.103125 -0.07078,-0.3 -0.109567,-0.4375 -0.03879,-0.1375 -0.08612,-0.3238281 -0.105179,-0.4140625 C 15.071028,8.4006841 15.049884,8.31304 14.984375,8.09375 14.945866,7.9648437 14.897571,7.7820312 14.877052,7.6875 c -0.02052,-0.094531 -0.05258,-0.2421875 -0.07124,-0.328125 -0.01866,-0.085937 -0.06507,-0.26875 -0.103125,-0.40625 -0.03805,-0.1375 -0.08516,-0.3238281 -0.104689,-0.4140625 -0.01952,-0.090234 -0.05138,-0.2378906 -0.0708,-0.328125 C 14.507778,6.1207031 14.46015,5.9414062 14.421355,5.8125 14.38256,5.6835937 14.333745,5.49375 14.312876,5.390625 14.24833,5.0716562 14.154507,4.7760328 14.055362,4.5792262 13.930122,4.3306206 13.522704,3.912465 13.279345,3.7827559 12.807357,3.5311891 12.542713,3.5017375 10.744952,3.5007091 L 9.5055297,3.5 9.4949525,3.1584297 C 9.4835231,2.7893538 9.4563722,2.719789 9.269215,2.5800559 9.1856103,2.517636 9.1459963,2.515625 8,2.515625 c -1.1459962,0 -1.1856103,0.00201 -1.269215,0.064431 C 6.5436278,2.719789 6.5164769,2.7893538 6.5050475,3.1584297 L 6.4944703,3.5 5.2550475,3.5009125 C 4.5733653,3.5014125 3.8398438,3.51485 3.625,3.5307706 2.995511,3.5774178 2.6539482,3.7284528 2.256896,4.1357303 1.931185,4.4698294 1.7945841,4.7409669 1.6876473,5.2656259 c -0.021019,0.103125 -0.065399,0.271875 -0.098622,0.375 -0.033223,0.103125 -0.089452,0.328125 -0.1249521,0.5 -0.035501,0.171875 -0.075678,0.3617188 -0.089283,0.421875 -0.013605,0.060156 -0.039385,0.1796875 -0.057289,0.265625 -0.017904,0.085937 -0.055337,0.2195313 -0.083185,0.296875 -0.027848,0.077344 -0.062354,0.196875 -0.076679,0.265625 -0.071302,0.3421782 -0.16705301,0.7931563 -0.18909669,0.890625 -0.0136051,0.060156 -0.0393851,0.1796875 -0.057289,0.265625 -0.0179039,0.085937 -0.0553106,0.2195313 -0.0831259,0.296875 -0.0278154,0.077344 -0.065222,0.2109375 -0.0831259,0.296875 -0.0179039,0.085937 -0.0437282,0.2054688 -0.0573874,0.265625 -0.13804497,0.6079611 -0.16368707,0.8063051 -0.14746044,1.1406251 0.0273554,0.563607 0.19113853,0.926943 0.59557823,1.321229 0.2585835,0.252091 0.4635254,0.378551 0.8017706,0.494734 0.2440832,0.08384 0.9106991,0.08413 1.15625,5.03e-4 0.3466331,-0.118052 0.5774128,-0.264199 0.8359266,-0.529369 0.3381228,-0.346829 0.4888481,-0.654835 0.5686809,-1.162096 0.018935,-0.120312 0.042777,-0.260937 0.052983,-0.3125 0.012816,-0.06475 0.1353332,-0.212165 0.3960691,-0.476562 L 5.3249231,9.5000025 H 8.0145569 10.704191 L 11.039035,9.83594 c 0.360375,0.361551 0.396292,0.42709 0.492362,0.898437 0.110241,0.54087 0.259479,0.828781 0.603382,1.164052 0.305808,0.298132 0.636583,0.47647 1.021471,0.55073 0.191698,0.03699 0.798805,-0.0063 0.977353,-0.06974 z"
       id="path833"
       inkscape:connector-curvature="0" />
    <path
       style="fill:#fefefe;stroke-width:0.000357143"
       d="m 13.039328,11.384507 c -0.106653,-0.02099 -0.228577,-0.161806 -0.376127,-0.434412 -0.07352,-0.135833 -0.191777,-0.345407 -0.262792,-0.46572 -0.07101,-0.120312 -0.212845,-0.373437 -0.315176,-0.5625 C 11.9829,9.7328125 11.851449,9.5003438 11.793117,9.4052778 11.602582,9.09475 11.59128,8.9135272 11.752404,8.7524038 c 0.09088,-0.090877 0.23792,-0.1385819 0.333192,-0.1080954 0.199185,0.063738 0.231175,0.1055947 0.618162,0.8088166 0.122959,0.2234375 0.277297,0.4976563 0.342973,0.609375 0.452337,0.769451 0.521471,0.954798 0.424039,1.136851 -0.07484,0.139844 -0.259344,0.219024 -0.431442,0.185156 z M 1.9143276,10.322007 C 1.8186151,10.303172 1.6675751,10.146128 1.6483258,10.045433 1.6288084,9.9433338 2.6078794,5.0298994 2.6765975,4.8850869 2.746023,4.7387838 2.8745925,4.6398334 3.2182622,4.4682094 3.3818116,4.3865347 3.5929688,4.2768984 3.6875,4.2245728 L 3.859375,4.1294359 7.96875,4.1194053 c 3.877651,-0.00946 4.113929,-0.00694 4.190143,0.044864 0.221988,0.1508759 0.221988,0.4893359 0,0.6402118 -0.0754,0.051246 -0.348751,0.056971 -4.1134624,0.086144 C 4.4695541,4.918335 4.00405,4.9274322 3.9360556,4.9709325 3.8938813,4.9979144 3.7457184,5.0728531 3.606805,5.1374628 L 3.354235,5.2549356 3.3155622,5.4634053 C 3.2065353,6.0511272 3.2263919,6 3.1071594,6 H 3 V 6.5303619 C 3,6.8749775 2.9838183,7.1403828 2.9537964,7.2881744 2.8889618,7.6073419 2.7435284,8.3322103 2.6260202,8.921875 2.4218587,9.9463716 2.3979498,10.048972 2.3420146,10.140625 2.2531296,10.286268 2.0881862,10.356221 1.9143276,10.322007 Z M 7,3.5 V 3 H 7.234375 7.46875 V 3.5 4 H 7.234375 7 Z"
       id="path831"
       inkscape:connector-curvature="0" />
    <path
       style="fill:#cbcbcb;stroke-width:0.000357143"
       d="m 13.222135,11.93495 c -0.537089,-0.105478 -1.04958,-0.616651 -1.156673,-1.1537 -0.07161,-0.359083 -0.09866,-0.467375 -0.165557,-0.662764 C 11.832882,9.9227403 11.798257,9.8787288 11.377468,9.4544231 L 10.92681,9 H 8.0158481 5.1048859 L 4.6071303,9.5010688 C 4.2493044,9.8612769 4.1026759,10.030388 4.085545,10.102631 4.072438,10.157901 4.034251,10.356095 4.000683,10.543059 3.923506,10.972915 3.8068055,11.226335 3.5732983,11.471143 3.2417313,11.818757 2.7497919,11.988131 2.292042,11.912279 1.5742583,11.793339 1.03125,11.150592 1.03125,10.419907 1.03125,10.305263 1.096589,9.9341506 1.1877101,9.53125 1.2013151,9.471094 1.2270951,9.3515625 1.2449991,9.265625 1.262903,9.1796875 1.3003096,9.0460938 1.328125,8.96875 1.3559404,8.8914062 1.393347,8.7578125 1.4112509,8.671875 1.4291548,8.5859375 1.4549348,8.4664063 1.4685399,8.40625 1.4905836,8.3087812 1.5863349,7.8578031 1.6576366,7.515625 1.6719624,7.446875 1.7064682,7.3273437 1.734316,7.25 1.7621638,7.1726562 1.799597,7.0390625 1.8175009,6.953125 1.8354048,6.8671875 1.8611848,6.7476563 1.8747899,6.6875 c 0.013605,-0.060156 0.053782,-0.25 0.089283,-0.421875 0.0355,-0.171875 0.091729,-0.396875 0.1249521,-0.5 C 2.122248,5.6625 2.166643,5.49375 2.18768,5.390625 2.246363,5.1029594 2.280809,4.9995559 2.3824635,4.8059159 2.5644729,4.4592084 2.9802199,4.1517006 3.3913175,4.0597159 3.4920616,4.0371739 4.2378478,4.0194299 5.5078125,4.0093589 L 7.46875,3.9938072 V 3.4969038 3 H 8.234375 9 v 0.4967463 0.4967465 l 1.710938,0.01592 c 1.076385,0.010016 1.76863,0.028751 1.866495,0.050515 0.257723,0.057315 0.538088,0.207855 0.732543,0.3933335 0.270847,0.2583446 0.389668,0.5095215 0.502556,1.0623634 0.02106,0.103125 0.07003,0.2929687 0.108823,0.421875 0.0388,0.1289062 0.08642,0.3082031 0.10584,0.3984375 0.01942,0.090234 0.05128,0.2378906 0.0708,0.328125 0.01952,0.090234 0.06663,0.2765625 0.104689,0.4140625 0.03806,0.1375 0.08446,0.3203125 0.103125,0.40625 0.01866,0.085937 0.05072,0.2335937 0.07124,0.328125 0.02052,0.094531 0.06881,0.2773438 0.107323,0.40625 0.03851,0.1289063 0.085,0.3046875 0.103318,0.390625 0.01832,0.085937 0.04979,0.2335938 0.06995,0.328125 0.02016,0.094531 0.06839,0.284375 0.107182,0.421875 0.03879,0.1375 0.088,0.334375 0.109348,0.4375 0.02135,0.103125 0.05111,0.2275533 0.06614,0.2765063 0.05159,0.16806 0.0662,0.473681 0.03154,0.659838 -0.151516,0.813805 -0.946119,1.359549 -1.74972,1.201731 z m 0.139424,-0.61113 c 0.09421,-0.06173 0.153378,-0.188452 0.149206,-0.319575 -0.0035,-0.108992 -0.153594,-0.41367 -0.464034,-0.941745 C 12.981055,9.9507813 12.826717,9.6765625 12.703758,9.453125 12.316771,8.7499031 12.284781,8.7080466 12.085596,8.6443084 c -0.09527,-0.030487 -0.242315,0.017218 -0.333192,0.1080953 -0.161124,0.1611235 -0.149822,0.3423463 0.04071,0.6528741 0.05833,0.095066 0.189782,0.3275347 0.292115,0.5165972 0.102331,0.189063 0.244161,0.442187 0.315176,0.5625 0.07102,0.120313 0.189272,0.329887 0.262792,0.46572 0.14755,0.272606 0.269474,0.413424 0.376127,0.434412 0.09584,0.01886 0.243176,-0.0089 0.322231,-0.06069 z M 2.2273117,10.269464 c 0.031618,-0.0193 0.083235,-0.07728 0.1147029,-0.128839 0.055935,-0.09165 0.079844,-0.1942534 0.2840056,-1.21875 C 2.6808221,8.646875 2.765263,8.225 2.8136665,7.984375 2.8620701,7.74375 2.9259944,7.4238281 2.9557206,7.2734375 L 3.0097682,7 H 3.5048841 4 V 7.5 8 H 4.5 5 V 7.5 7 H 5.5 6 V 6.5 6 H 5.5 5 V 5.5 5 H 4.5 4 V 5.5 6 H 3.6068919 3.2137841 L 3.2324571,5.914063 C 3.2427271,5.866797 3.2655831,5.7437505 3.2832481,5.6406255 3.3548511,5.2226196 3.3256041,5.2682674 3.6051231,5.138253 3.7449619,5.073209 3.8938816,4.9979149 3.9360559,4.970933 4.0040499,4.927433 4.4695544,4.918335 8.0454309,4.890626 11.810142,4.861453 12.083492,4.855728 12.158893,4.804482 c 0.221988,-0.1508759 0.221988,-0.4893359 0,-0.6402118 -0.07621,-0.051799 -0.312492,-0.054329 -4.1901427,-0.044864 L 3.859375,4.1294359 3.6875,4.2245728 C 3.5929687,4.2768984 3.3818116,4.3865347 3.2182622,4.4682094 2.8745925,4.6398334 2.746023,4.7387837 2.6765975,4.8850869 2.6078794,5.0298994 1.6288084,9.9433337 1.6483258,10.045433 c 0.019249,0.100695 0.1702893,0.257739 0.2660018,0.276574 0.089599,0.01763 0.2391427,-0.0075 0.3129841,-0.05254 z M 12,7.5 V 7 H 12.5 13 V 6.5 6 H 12.5 12 V 5.5 5 H 11.5 11 V 5.5 6 H 10.5 10 V 6.5 7 H 10.5 11 V 7.5 8 h 0.5 0.5 z m -1,-1 V 6 H 11.5 12 V 6.5 7 H 11.5 11 Z"
       id="path829"
       inkscape:connector-curvature="0" />
    <path
       style="fill:#fe9832;stroke-width:0.000357143"
       d="M 10,6.5 V 6 H 10.5 11 V 6.5 7 H 10.5 10 Z"
       id="path827"
       inkscape:connector-curvature="0" />
    <path
       style="fill:#3265fe;stroke-width:0.000357143"
       d="M 11,5.5 V 5 H 11.5 12 V 5.5 6 H 11.5 11 Z"
       id="path825"
       inkscape:connector-curvature="0" />
    <path
       style="fill:#fe0000;stroke-width:0.000357143"
       d="M 11,7.5 V 7 H 11.5 12 V 7.5 8 H 11.5 11 Z"
       id="path823"
       inkscape:connector-curvature="0" />
    <path
       style="fill:#009800;stroke-width:0.000357143"
       d="M 12,6.5 V 6 H 12.5 13 V 6.5 7 H 12.5 12 Z"
       id="path821"
       inkscape:connector-curvature="0" />
    <path
       style="fill:#323232;stroke-width:0.000357143"
       d="M 13.15625,12.449156 C 12.771362,12.374897 12.440587,12.196558 12.134779,11.898427 11.790876,11.563156 11.641638,11.275245 11.531397,10.734375 11.435327,10.263028 11.39941,10.197489 11.039035,9.8359375 L 10.704191,9.5 H 8.0145569 5.3249231 L 4.94741,9.8828125 C 4.6866741,10.147209 4.5641572,10.294625 4.5513409,10.359375 c -0.010206,0.05156 -0.034049,0.192187 -0.052983,0.3125 C 4.4185249,11.179136 4.2677998,11.487142 3.929677,11.833971 3.6711628,12.099141 3.4403831,12.245287 3.09375,12.36334 2.8481991,12.446967 2.1815832,12.446678 1.9375,12.362837 1.5992548,12.246655 1.3943129,12.120195 1.1357294,11.868104 0.73128972,11.473818 0.56750659,11.110482 0.54015119,10.546875 0.52392456,10.212555 0.54956666,10.014211 0.68761163,9.40625 0.70127084,9.3460938 0.72709519,9.2265625 0.74499906,9.140625 0.76290297,9.0546875 0.80030962,8.9210938 0.828125,8.84375 0.85594038,8.7664062 0.89334703,8.6328125 0.91125094,8.546875 0.92915481,8.4609375 0.95493484,8.3414063 0.96853991,8.28125 0.99058359,8.1837812 1.0863349,7.7328031 1.1576366,7.390625 1.1719624,7.321875 1.2064682,7.2023437 1.234316,7.125 1.2621638,7.0476562 1.299597,6.9140625 1.3175009,6.828125 1.3354048,6.7421875 1.3611848,6.6226563 1.3747899,6.5625 c 0.013605,-0.060156 0.053782,-0.25 0.089283,-0.421875 0.0355,-0.171875 0.091729,-0.396875 0.1249521,-0.5 C 1.6222481,5.5375 1.6666281,5.36875 1.6876473,5.265625 1.7945841,4.7409659 1.931185,4.4698284 2.256896,4.1357294 2.6539482,3.7284519 2.995511,3.5774169 3.625,3.5307697 3.8398438,3.5148491 4.5733653,3.5014128 5.2550475,3.5009116 L 6.4944703,3.5 6.5050475,3.1584297 C 6.5164769,2.7893538 6.5436278,2.719789 6.730785,2.5800559 6.8143897,2.517636 6.8540038,2.515625 8,2.515625 c 1.1459963,0 1.1856103,0.00201 1.269215,0.064431 0.1871572,0.1397331 0.2143081,0.2092979 0.2257375,0.5783738 L 9.5055297,3.5 10.744953,3.5007094 c 1.79776,0.00103 2.062404,0.03048 2.534392,0.2820468 0.243359,0.1297091 0.650777,0.5478647 0.776017,0.7964704 0.09915,0.1968065 0.192968,0.49243 0.257514,0.8113987 0.02087,0.103125 0.06968,0.2929688 0.108479,0.421875 0.0388,0.1289063 0.08642,0.3082031 0.10584,0.3984375 0.01942,0.090234 0.05128,0.2378906 0.0708,0.328125 0.01952,0.090234 0.06663,0.2765625 0.104689,0.4140625 0.03806,0.1375 0.08446,0.3203125 0.103125,0.40625 0.01866,0.085937 0.05072,0.2335938 0.07124,0.328125 0.02052,0.094531 0.06881,0.2773438 0.107323,0.40625 0.06551,0.21929 0.08665,0.3069341 0.175273,0.7265625 0.01906,0.090234 0.06639,0.2765625 0.10518,0.4140625 0.03879,0.1375 0.0881,0.334375 0.109566,0.4375 0.02147,0.103125 0.055,0.2367188 0.07451,0.296875 0.01951,0.060157 0.03547,0.2921877 0.03547,0.5156247 0,0.440906 -0.02992,0.573403 -0.211674,0.9375 -0.123378,0.247151 -0.530656,0.665346 -0.774606,0.795369 -0.335239,0.178681 -0.513634,0.225358 -0.904345,0.236624 -0.197656,0.0057 -0.394531,0.0036 -0.4375,-0.0047 z m 0.628547,-0.511618 c 0.580031,-0.107552 1.076669,-0.611412 1.187058,-1.204319 0.03466,-0.186157 0.02005,-0.491778 -0.03154,-0.659838 -0.01503,-0.04895 -0.04479,-0.173381 -0.06614,-0.276506 -0.02135,-0.103125 -0.07056,-0.3 -0.109349,-0.4375 C 14.726036,9.221875 14.677806,9.0320313 14.657645,8.9375 14.637485,8.842969 14.606005,8.6953125 14.587695,8.609375 14.569375,8.523438 14.522885,8.3476563 14.484377,8.21875 14.445867,8.0898438 14.397577,7.9070313 14.377054,7.8125 14.356534,7.717969 14.324474,7.5703125 14.305814,7.484375 14.287154,7.398438 14.240744,7.215625 14.202689,7.078125 14.164639,6.940625 14.117529,6.7542969 14.098,6.6640625 14.07848,6.5738285 14.04662,6.4261719 14.0272,6.3359375 14.007778,6.2457031 13.96015,6.0664063 13.921355,5.9375 13.88256,5.8085938 13.83359,5.61875 13.812532,5.515625 13.699644,4.9627831 13.580823,4.7116063 13.309976,4.4532616 13.115521,4.2677831 12.835156,4.1172434 12.577432,4.0599281 12.479568,4.0381638 11.787323,4.0194291 10.710937,4.0094131 L 9,3.9934928 V 3.4967463 3 H 8 7 V 3.4966069 3.9932137 L 5.2734375,4.0094647 C 4.1937944,4.0196269 3.4885897,4.0386062 3.3913175,4.0601194 2.9815194,4.1507509 2.5646062,4.4589547 2.3824635,4.8059159 2.2808093,4.9995559 2.2463627,5.1029594 2.18768,5.390625 2.1666429,5.49375 2.1222481,5.6625 2.0890249,5.765625 2.0558018,5.86875 1.9995733,6.09375 1.9640728,6.265625 1.9285722,6.4375 1.888395,6.6273437 1.8747899,6.6875 1.8611848,6.7476562 1.8354048,6.8671875 1.8175009,6.953125 1.799597,7.0390625 1.7621638,7.1726562 1.734316,7.25 1.7064682,7.3273437 1.6719624,7.446875 1.6576366,7.515625 1.5863349,7.8578031 1.4905836,8.3087812 1.4685399,8.40625 1.4549348,8.4664063 1.4291548,8.5859375 1.4112509,8.671875 1.393347,8.7578125 1.3559404,8.8914062 1.328125,8.96875 1.3003096,9.0460938 1.262903,9.1796875 1.2449991,9.265625 1.2270952,9.3515625 1.2013152,9.4710938 1.1877101,9.53125 1.0965893,9.9341506 1.03125,10.305263 1.03125,10.419907 c 0,0.730685 0.5430083,1.373432 1.260792,1.492372 0.4577499,0.07585 0.9496893,-0.09352 1.2812561,-0.441136 0.2335072,-0.244808 0.3502075,-0.498228 0.4273847,-0.928084 0.033568,-0.186964 0.071756,-0.385156 0.084862,-0.440428 0.017131,-0.07224 0.1637594,-0.2413541 0.5215853,-0.6015622 L 5.1048859,9 H 8.0158481 10.92681 l 0.450657,0.4544231 c 0.526971,0.5313744 0.530872,0.5388972 0.687995,1.3268269 0.05024,0.251929 0.22948,0.567488 0.432145,0.760798 0.358104,0.341574 0.817213,0.482635 1.28719,0.39549 z M 4,7.5 V 7 H 3.5 3 V 6.5 6 H 3.5 4 V 5.5 5 H 4.5 5 V 5.5 6 H 5.5 6 V 6.5 7 H 5.5 5 V 7.5 8 H 4.5 4 Z"
       id="path819"
       inkscape:connector-curvature="0" />
  </g>
</svg>
