<?xml version="1.0" encoding="UTF-8" standalone="no"?>
<!-- Created with Inkscape (http://www.inkscape.org/) -->

<svg
   version="1.1"
   id="svg2"
   width="1600"
   height="1600"
   viewBox="0 0 1600 1600"
   sodipodi:docname="get_list_item.svg"
   inkscape:version="1.4.3 (0d15f75, 2025-12-25)"
   xml:space="preserve"
   xmlns:inkscape="http://www.inkscape.org/namespaces/inkscape"
   xmlns:sodipodi="http://sodipodi.sourceforge.net/DTD/sodipodi-0.dtd"
   xmlns="http://www.w3.org/2000/svg"
   xmlns:svg="http://www.w3.org/2000/svg"
   xmlns:rdf="http://www.w3.org/1999/02/22-rdf-syntax-ns#"
   xmlns:cc="http://creativecommons.org/ns#"
   xmlns:dc="http://purl.org/dc/elements/1.1/"><metadata
     id="metadata8"><rdf:RDF><cc:Work
         rdf:about=""><dc:format>image/svg+xml</dc:format><dc:type
           rdf:resource="http://purl.org/dc/dcmitype/StillImage" /></cc:Work></rdf:RDF></metadata><defs
     id="defs6" /><sodipodi:namedview
     pagecolor="#808080"
     bordercolor="#666666"
     borderopacity="1"
     objecttolerance="10"
     gridtolerance="10"
     guidetolerance="10"
     inkscape:pageopacity="0"
     inkscape:pageshadow="2"
     inkscape:window-width="2560"
     inkscape:window-height="1009"
     id="namedview4"
     showgrid="true"
     inkscape:zoom="0.3535534"
     inkscape:cx="991.36368"
     inkscape:cy="780.64587"
     inkscape:window-x="1912"
     inkscape:window-y="-8"
     inkscape:window-maximized="1"
     inkscape:current-layer="g7"
     inkscape:showpageshadow="0"
     inkscape:pagecheckerboard="true"
     inkscape:deskcolor="#d1d1d1"><inkscape:grid
       id="grid1"
       units="px"
       originx="0"
       originy="0"
       spacingx="100"
       spacingy="100"
       empcolor="#0099e5"
       empopacity="0.30196078"
       color="#0099e5"
       opacity="0.14901961"
       empspacing="5"
       enabled="true"
       visible="true" /></sodipodi:namedview><g
     id="FIELD_AT_INDEX"
     transform="matrix(100,0,0,100,0,4.9999997e-5)"
     style="stroke-width:0.0114286"
     inkscape:label="FIELD_TO_LIST"><g
       id="g7"
       inkscape:label="LIST"
       style="stroke-width:0.0114286"
       transform="translate(-2.4826338)"><path
         style="stroke-width:0.0114286;opacity:1;baseline-shift:baseline;display:inline;overflow:visible;vector-effect:none;fill:#333333;stroke-linecap:round;stroke-linejoin:round;paint-order:markers stroke fill;enable-background:accumulate;stop-color:#000000;stop-opacity:1"
         d="M 6,5.5 A 0.50005,0.50005 0 0 0 5.5,6 V 8 A 0.50005,0.50005 0 0 0 6,8.5 h 9 A 0.50005,0.50005 0 0 0 15.5,8 V 6 A 0.50005,0.50005 0 0 0 15,5.5 Z m 0.5,1 h 8 v 1 h -8 z"
         id="path6"
         transform="translate(-0.0173661,0.999992)" /><path
         id="rect1-5"
         style="fill:#b3b3b3;stroke:#333333;stroke-width:1;stroke-linecap:round;stroke-linejoin:round;paint-order:markers stroke fill"
         d="M 5.9826341,9.9999924 H 14.982634 V 11.999993 H 5.9826341 Z" /><path
         style="stroke-width:0.0114286;opacity:1;stroke:none;baseline-shift:baseline;display:inline;overflow:visible;vector-effect:none;fill:#333333;stroke-linecap:round;stroke-linejoin:round;paint-order:markers stroke fill;enable-background:accumulate;stop-color:#000000;stop-opacity:1"
         d="M 6,8.5 A 0.50005,0.50005 0 0 0 5.5,9 v 2 A 0.50005,0.50005 0 0 0 6,11.5 h 9 A 0.50005,0.50005 0 0 0 15.5,11 V 9 A 0.50005,0.50005 0 0 0 15,8.5 Z m 0.5,1 h 8 v 1 h -8 z"
         id="path4"
         transform="translate(-0.0173661,0.999992)" /><path
         style="stroke-width:0.0114286;opacity:1;stroke:none;baseline-shift:baseline;display:inline;overflow:visible;vector-effect:none;fill:#333333;stroke-linecap:round;stroke-linejoin:round;paint-order:markers stroke fill;enable-background:accumulate;stop-color:#000000;stop-opacity:1"
         d="M 6,11.5 A 0.50005,0.50005 0 0 0 5.5,12 v 2 A 0.50005,0.50005 0 0 0 6,14.5 h 9 A 0.50005,0.50005 0 0 0 15.5,14 V 12 A 0.50005,0.50005 0 0 0 15,11.5 Z m 0.5,1 h 8 v 1 h -8 z"
         id="path2"
         transform="translate(0.0026344,0.999992)" /><path
         style="stroke-width:0.0114286;opacity:1;stroke:none;baseline-shift:baseline;display:inline;overflow:visible;vector-effect:none;fill:#b3b3b3;stroke-linecap:round;stroke-linejoin:round;paint-order:markers stroke fill;enable-background:accumulate;stop-color:#000000;stop-opacity:1"
         d="m 6,12 h 9 v 2 H 6 Z"
         id="path3"
         transform="translate(0.0026344,0.999992)" /><path
         id="rect1-5-7-1"
         style="fill:#b3b3b3;stroke-width:1;stroke-linecap:round;stroke-linejoin:round;paint-order:markers stroke fill"
         d="M 5.9826338,6.9999995 H 14.982634 V 9 H 5.9826338 Z" /><path
         id="rect2"
         style="opacity:1;fill:#666666;stroke-width:1.41421;stroke-linecap:round;stroke-linejoin:round;paint-order:markers stroke fill"
         d="M 5.9426343,7.9999991 H 14.982634 V 8.9999919 H 5.9426343 Z" /><path
         id="rect1-5-7"
         style="fill:#b3b3b3;stroke-width:1;stroke-linecap:round;stroke-linejoin:round;paint-order:markers stroke fill"
         d="M 5.9826341,9.9999924 H 14.982634 V 11.999993 H 5.9826341 Z" /><path
         id="rect2-2"
         style="fill:#666666;stroke-width:1.4142;stroke-linecap:round;stroke-linejoin:round;paint-order:markers stroke fill"
         d="m 5.9626339,10.999999 h 9.0400001 v 0.999987 H 5.9626339 Z" /><path
         id="rect2-2-1"
         style="fill:#666666;stroke-width:1.41421;stroke-linecap:round;stroke-linejoin:round;paint-order:markers stroke fill"
         d="m 5.9826346,14 h 9.0399994 v 1 H 5.9826346 Z" /></g><path
       style="baseline-shift:baseline;display:inline;overflow:visible;vector-effect:none;fill:#333333;stroke-width:0.00999998;enable-background:accumulate;stop-color:#000000"
       d="m 4.3200042,0.0607557 c -0.733146,-0.2052684 -1.429596,0.4944212 -1.224609,1.2265625 0.08488,0.3031634 0.203925,0.3588047 0.507813,0.6757813 0.303887,0.3169766 0.821356,0.8365429 1.724609,1.7382812 0.6574725,0.6563702 1.1847225,1.1763854 1.5566406,1.5371094 0.1859591,0.180362 0.3330966,0.3197841 0.4414063,0.4199219 0.054155,0.050069 0.097666,0.089749 0.1367187,0.1230468 0.019526,0.016649 0.037458,0.031463 0.060547,0.048828 0.023089,0.017365 0.00801,0.034411 0.1582031,0.085937 0.049482,0.016976 0.241345,0.096516 0.4609375,0.046875 0.2195925,-0.04964 0.3485883,-0.1578545 0.5195312,-0.3027337 0.3418858,-0.2897584 0.8785848,-0.8298952 2.0097654,-1.9589844 0.910728,-0.9090444 1.428175,-1.4286592 1.730469,-1.7441406 0.302293,-0.3154814 0.422196,-0.3869803 0.501953,-0.671875 0.209061,-0.7466948 -0.504058,-1.4534307 -1.248047,-1.21875 -0.210385,0.066364 -0.225209,0.1190939 -0.3125,0.1933594 -0.08729,0.074266 -0.19548,0.1746705 -0.345703,0.3183593 -0.300445,0.2873777 -0.766938,0.7487535 -1.5078124,1.4882813 L 7.9996922,3.5548963 6.5114109,2.0666151 C 5.7030802,1.2581972 5.240623,0.7976258 4.9547702,0.5255995 4.6689172,0.2535731 4.5851842,0.1350019 4.3200042,0.0607557 Z"
       id="path2-9"
       sodipodi:nodetypes="ssssssssssssscssscccss" /><path
       style="fill:#fefefe;stroke-width:0.0003125"
       d="M 7.8434422,5.443581 C 7.7839132,5.423159 6.9949438,4.6579363 5.6820166,3.3472104 3.8762912,1.544513 3.6097052,1.2664445 3.5777482,1.1523076 3.4778882,0.7956391 3.8290392,0.442901 4.1848042,0.5425091 c 0.116621,0.032652 0.357971,0.262328 1.9737796,1.8783104 L 7.9994953,4.2619292 9.8433438,2.4214309 C 11.323804,0.9436605 11.710817,0.5734805 11.807064,0.5431205 12.155745,0.4331341 12.521847,0.7943881 12.42224,1.1501496 12.389486,1.2671342 12.138082,1.5295063 10.317368,3.3468548 8.0544147,5.6056245 8.1297266,5.5417951 7.8434422,5.443581 Z"
       id="path821-4"
       inkscape:connector-curvature="0"
       sodipodi:nodetypes="ssssscsssss" /></g></svg>
