<?xml version="1.0" encoding="UTF-8" standalone="no"?>
<!-- Created with Inkscape (http://www.inkscape.org/) -->

<svg
   version="1.1"
   id="svg2"
   width="1600"
   height="1600"
   viewBox="0 0 1600 1600"
   sodipodi:docname="gp_both.svg"
   inkscape:version="1.4 (86a8ad7, 2024-10-11)"
   xmlns:inkscape="http://www.inkscape.org/namespaces/inkscape"
   xmlns:sodipodi="http://sodipodi.sourceforge.net/DTD/sodipodi-0.dtd"
   xmlns="http://www.w3.org/2000/svg"
   xmlns:svg="http://www.w3.org/2000/svg"
   xmlns:rdf="http://www.w3.org/1999/02/22-rdf-syntax-ns#"
   xmlns:cc="http://creativecommons.org/ns#"
   xmlns:dc="http://purl.org/dc/elements/1.1/">
  <metadata
     id="metadata8">
    <rdf:RDF>
      <cc:Work
         rdf:about="">
        <dc:format>image/svg+xml</dc:format>
        <dc:type
           rdf:resource="http://purl.org/dc/dcmitype/StillImage" />
      </cc:Work>
    </rdf:RDF>
  </metadata>
  <defs
     id="defs6" />
  <sodipodi:namedview
     pagecolor="#808080"
     bordercolor="#666666"
     borderopacity="1"
     objecttolerance="10"
     gridtolerance="10"
     guidetolerance="10"
     inkscape:pageopacity="0"
     inkscape:pageshadow="2"
     inkscape:window-width="2560"
     inkscape:window-height="1009"
     id="namedview4"
     showgrid="false"
     inkscape:zoom="0.5"
     inkscape:cx="405"
     inkscape:cy="898"
     inkscape:window-x="1912"
     inkscape:window-y="-8"
     inkscape:window-maximized="1"
     inkscape:current-layer="OUTLINER_OB_GREASEPENCIL"
     inkscape:showpageshadow="0"
     inkscape:pagecheckerboard="true"
     inkscape:deskcolor="#d1d1d1" />
  <g
     id="OUTLINER_OB_GREASEPENCIL"
     style="stroke-width:0.0001"
     transform="matrix(100,0,0,100,0,4.9999997e-5)"
     inkscape:label="gp_both">
    <path
       style="stroke-width:0.00031;fill:none;stroke:none;stroke-dasharray:none"
       d="M 0,8 V 0 h 8 8 v 8 8 H 8 0 Z m 6.453125,6.968852 c 2.0524313,-0.433694 3.973716,-2.01693 5.038319,-4.151831 l 0.242931,-0.487163 v -0.297741 c 0,-0.3465682 -0.06034,-0.506977 -0.269302,-0.7159404 C 11.259377,9.1104803 11.094177,9.046875 10.765625,9.046875 c -0.504281,0 -0.707894,0.1599644 -1.02479,0.8051041 C 9.2194088,10.913505 8.5003419,11.74501 7.578125,12.352865 6.6957472,12.934462 5.7451837,13.173348 4.943995,13.014849 4.7951994,12.985413 4.5833053,12.908598 4.3896719,12.813898 4.1301822,12.686991 4.0177916,12.606689 3.7368369,12.347452 3.5501769,12.175221 3.3524103,11.970948 3.2973556,11.893513 3.1546641,11.692814 3.023023,11.384043 3.0063474,11.210938 2.9984828,11.129297 2.9819059,11.0625 2.9695097,11.0625 c -0.040919,0 -0.09459,-0.509088 -0.09455,-0.896837 C 2.8751289,8.5555388 3.61939,6.5838522 4.7245994,5.265625 5.5746084,4.2517853 6.5048319,3.6470544 7.5395728,3.4356322 8.3916491,3.2615331 9.4610256,3.4206159 10.321565,3.8494881 c 0.09952,0.049597 0.197955,0.08657 0.21875,0.082162 0.0208,-0.00441 0.103892,0.010794 0.184658,0.033784 0.207255,0.058993 0.537116,0.034113 0.718617,-0.054202 0.324452,-0.1578733 0.530492,-0.4668883 0.551337,-0.826884 C 12.023783,2.5859832 11.764078,2.2207451 11.259048,2.0494427 11.142353,2.0098606 10.900536,1.9183057 10.721678,1.8459874 7.7039384,0.62581591 4.5870072,1.7613577 2.5789433,4.8125 2.1238196,5.5040353 1.8575988,6.0201853 1.5450185,6.8170778 0.9172585,8.4174891 0.71584478,10.162491 1.0047048,11.498229 c 0.1274331,0.589273 0.3995828,1.21033 0.7148393,1.631293 0.1991441,0.265918 0.8476607,0.890594 1.1345338,1.092826 0.6270137,0.442015 1.2357196,0.690323 1.9814333,0.808285 0.3124188,0.04942 1.2632122,0.01311 1.6176138,-0.06178 z m 7.990465,-0.05706 c 0.187048,-0.09173 0.376176,-0.280727 0.468519,-0.4682 l 0.07227,-0.146715 V 11.4375 8.578125 l -0.07147,-0.25 C 14.530191,6.9893328 13.252986,6.0366331 11.390625,5.7007647 11.011992,5.6324797 10.068266,5.6070769 9.6544878,5.6540316 8.8101362,5.7498472 7.9954584,6.0156553 7.375,6.3977687 6.3614287,7.0219838 5.6273759,7.9669122 5.2806694,9.09375 5.2251425,9.2742187 5.144925,9.5121047 5.1024078,9.6223856 4.9076753,10.127485 5.1153569,10.67947 5.5876603,10.912109 c 0.2112097,0.104034 0.6447197,0.104034 0.8559294,0 0.2950665,-0.145339 0.5205653,-0.456307 0.5495375,-0.757825 0.00991,-0.103122 0.02999,-0.153069 0.065279,-0.1623624 0.033428,-0.0088 0.070544,-0.089901 0.1078493,-0.2356447 0.031285,-0.1222222 0.122841,-0.3537391 0.2034588,-0.5144822 0.3924687,-0.7825413 1.0377728,-1.2727806 1.9896603,-1.511551 0.3845513,-0.096461 1.1309274,-0.133465 1.5537534,-0.077034 0.758438,0.1012231 1.461782,0.4032259 1.812629,0.7783094 0.281976,0.301455 0.256522,0.017335 0.274898,3.0684809 0.01482,2.461351 0.0211,2.715312 0.07014,2.83938 0.109493,0.276992 0.343742,0.514179 0.606148,0.613751 0.184362,0.06996 0.583589,0.04843 0.766646,-0.04134 z"
       id="path823"
       inkscape:connector-curvature="0" />
    <path
       style="fill:#333333;stroke:#333333;stroke-width:1.5;stroke-dasharray:none;stroke-opacity:1"
       d="m 7.9854926,15.131403 c 1.9960292,-0.407105 3.8829454,-1.951887 4.9336994,-4.039126 0.24765,-0.491939 0.283965,-0.643092 0.197983,-0.824085 -0.09032,-0.190135 -0.255752,-0.2975556 -0.458235,-0.2975556 -0.265197,0 -0.355026,0.089534 -0.613527,0.6115136 -0.775586,1.566099 -2.0845023,2.804614 -3.5366036,3.346382 C 7.9710472,14.129167 7.5958573,14.18884 6.985211,14.170859 6.3638813,14.152563 6.1382112,14.098071 5.6532455,13.849232 5.3920287,13.715201 5.2587423,13.6157 4.912533,13.296278 4.4448847,12.864811 4.3309173,12.723846 4.1653268,12.372065 3.9410592,11.895629 3.8531817,11.405031 3.8531817,10.629437 c 0,-1.1214873 0.2446391,-2.218949 0.7536375,-3.3808514 C 5.0791166,6.1704613 5.6607676,5.3268575 6.480913,4.5304732 6.8997621,4.1237593 7.0413157,4.0061233 7.3951625,3.7707002 8.3174296,3.157093 9.3455923,2.8887304 10.450198,2.9732997 c 0.62852,0.048119 1.133127,0.1734254 1.782392,0.4426092 0.62085,0.2574029 0.817091,0.2675423 1.031568,0.053299 C 13.56624,3.1674556 13.420867,2.7435219 12.969782,2.6107517 12.87097,2.5816678 12.642541,2.4960198 12.462163,2.4204228 12.068642,2.2554976 11.500017,2.0880912 11.05193,2.0052425 10.548359,1.9121352 9.5390775,1.9195066 9.0404195,2.0199338 7.9663,2.2362558 6.9601187,2.7454106 6.0341236,3.5412004 5.3307692,4.1456554 4.6346453,5.0329159 4.0741028,6.0393903 3.4723677,7.1198271 3.0506344,8.3975909 2.8630744,9.7085534 c -0.063812,0.4460166 -0.052882,1.4989396 0.019724,1.9001026 0.1800004,0.994536 0.4971698,1.620429 1.1458993,2.261285 0.7909927,0.781392 1.5258661,1.165169 2.5379156,1.325385 0.302992,0.04797 1.0311241,0.01516 1.4188795,-0.06393 z"
       id="path4581" />
    <path
       style="fill:#fecb98;fill-opacity:1;stroke-width:1;stroke-linecap:round;stroke-linejoin:round;paint-order:markers stroke fill"
       d="M 13.790807,2.9931313 12.838922,8.8841358 9.9424808,13.203615 5.6820461,13.895678 3.8005588,9.5286589 5.0719788,4.6320645 9.0021986,1.9991277 Z"
       id="path1" />
    <path
       style="fill:#333333;stroke:#333333;stroke-width:1.5;stroke-dasharray:none;stroke-opacity:1"
       d="M 6.3362003,15.093753 C 5.2678359,14.924937 4.4738588,14.51638 3.6245067,13.698396 3.1612162,13.252215 2.9660635,13.00336 2.742039,12.573089 2.3202089,11.762903 2.1516451,10.89774 2.1899111,9.7392566 2.2677739,7.3819995 3.3126599,4.8942716 4.9867709,3.0803229 5.8181384,2.1795115 6.9664978,1.4244736 8.0356417,1.0757128 9.4711232,0.60745041 11.038559,0.67610999 12.51359,1.2718637 c 0.187707,0.075813 0.441489,0.1717936 0.563957,0.2132888 0.38024,0.1288339 0.6533,0.3915329 0.744245,0.7160044 0.05889,0.2101023 0.03088,0.5593895 -0.05979,0.7455249 -0.09563,0.1963232 -0.294242,0.3947164 -0.490779,0.4902441 -0.190481,0.092583 -0.536662,0.1186663 -0.754171,0.056822 -0.08477,-0.024101 -0.17197,-0.040039 -0.193795,-0.035417 -0.02182,0.00462 -0.125131,-0.034139 -0.229572,-0.086133 C 10.985214,2.8203669 9.6549315,2.7138118 8.6001154,3.0923653 7.3471279,3.5420382 6.2109874,4.6087871 5.3466328,6.1471352 4.6933047,7.3099064 4.278774,8.8029042 4.2786493,9.9936484 c -4.26e-5,0.4064896 0.056283,0.9401836 0.099228,0.9401836 0.013009,0 0.030406,0.07003 0.038661,0.155612 0.017501,0.181471 0.1556547,0.505166 0.305406,0.715565 0.057779,0.08117 0.2653299,0.295324 0.461225,0.475879 0.2948552,0.271767 0.4128064,0.35595 0.6851345,0.488991 0.2032136,0.09928 0.4255913,0.179804 0.5817487,0.210663 0.8408283,0.16616 1.8384216,-0.08427 2.7644557,-0.693979 0.9678448,-0.637234 1.7224878,-1.508928 2.2697118,-2.6217596 0.332575,-0.6763208 0.546262,-0.8440166 1.075493,-0.8440166 0.344807,0 0.51818,0.066679 0.734053,0.2823175 0.219303,0.2190631 0.282626,0.3872248 0.282626,0.7505435 v 0.3121312 l -0.25495,0.510709 c -1.117275,2.238086 -3.133617,3.897843 -5.2875941,4.352499 -0.3719359,0.07851 -1.3697705,0.116575 -1.6976472,0.06477 z"
       id="path819-9-4" />
    <g
       id="path821-7">
      <path
         style="fill:#fecb98"
         d="M 6.4673847,14.569643 C 5.4553352,14.409426 4.7204619,14.02565 3.9294691,13.244257 3.2807396,12.603401 2.9635702,11.977508 2.7835699,10.982972 2.7109639,10.58181 2.7000341,9.5288868 2.763846,9.0828698 2.951406,7.7719073 3.3731394,6.4941436 3.9748745,5.4137068 4.5354169,4.4072324 5.2315408,3.5199719 5.9348952,2.9155169 6.8608903,2.1197271 7.8670717,1.6105723 8.9411912,1.3942503 9.4398492,1.2938231 10.449131,1.2864517 10.952701,1.379559 c 0.448088,0.082849 1.016713,0.2502551 1.410234,0.4151803 0.180379,0.075597 0.408807,0.161245 0.507619,0.1903289 0.451085,0.1327702 0.596458,0.5567039 0.294376,0.8584568 -0.214477,0.2142427 -0.410718,0.2041033 -1.031568,-0.0533 C 11.484096,2.5210416 10.97949,2.3957361 10.35097,2.3476162 9.2463639,2.2630469 8.2182013,2.5314095 7.2959341,3.1450167 6.9420873,3.3804398 6.8005337,3.4980758 6.3816847,3.9047897 5.5615393,4.701174 4.9798883,5.5447778 4.5075908,6.6229021 3.9985924,7.7848045 3.7539533,8.8822662 3.7539533,10.003753 c 0,0.775594 0.087878,1.266193 0.3121452,1.742628 0.1655905,0.351782 0.2795579,0.492747 0.7472062,0.924213 0.3462092,0.319423 0.4794956,0.418923 0.7407124,0.552955 0.4849657,0.248838 0.7106359,0.30333 1.3319655,0.321627 0.4496083,0.01324 0.5738383,0.0053 0.8676761,-0.05505 0.8140302,-0.167354 1.6142604,-0.572249 2.3463433,-1.187188 0.794021,-0.666966 1.388826,-1.422954 1.846183,-2.3464697 0.258502,-0.521979 0.34833,-0.6115132 0.613527,-0.6115132 0.202483,0 0.367912,0.1074209 0.458235,0.297556 0.08598,0.180993 0.04966,0.3321458 -0.197983,0.8240839 -1.050755,2.087239 -2.9376705,3.632022 -4.9336997,4.039127 -0.3877554,0.07909 -1.1158876,0.11189 -1.4188796,0.06393 z"
         id="path2" />
      <path
         style="fill:#fe9832"
         d="M 11.042969,0.88867188 C 10.417308,0.77299069 9.4638204,0.77902448 8.8417969,0.90429688 7.678063,1.1386667 6.5912024,1.6933379 5.609375,2.5371094 4.8462688,3.1929144 4.1224937,4.1188428 3.5371094,5.1699219 2.902159,6.3099979 2.4655226,7.6418248 2.2695313,9.0117188 c -0.080571,0.5631539 -0.076862,1.5171652 0.021484,2.0605472 0.1917848,1.059647 0.5805533,1.829363 1.2871094,2.527343 0.842911,0.832682 1.7136231,1.291191 2.8105469,1.464844 0.4599279,0.0728 1.1163181,0.02982 1.5976562,-0.06836 2.1782482,-0.44427 4.1649922,-2.091213 5.2792972,-4.304688 0.128655,-0.255571 0.214839,-0.433461 0.263672,-0.636718 0.04883,-0.2032581 0.0173,-0.4630815 -0.06055,-0.6269536 -0.160536,-0.3379367 -0.528881,-0.5820313 -0.908203,-0.5820313 -0.188868,0 -0.485174,0.079505 -0.662109,0.2558594 C 11.721502,9.277917 11.632474,9.4629335 11.498047,9.734375 11.069043,10.60064 10.525002,11.293541 9.7792969,11.919922 9.1018513,12.488966 8.3738689,12.851664 7.6523437,13 7.3772452,13.056501 7.3414113,13.057909 6.9003906,13.044922 6.3046965,13.02738 6.2384943,13.012909 5.7832031,12.779297 5.5499457,12.659611 5.4895801,12.613879 5.1523437,12.302734 4.6948307,11.880619 4.6674394,11.85157 4.5175781,11.533203 4.328206,11.130899 4.2539062,10.741732 4.2539062,10.003906 4.2539062,8.9551322 4.478651,7.9340622 4.9648437,6.8242187 5.4150656,5.7964871 5.9521654,5.0194264 6.7304687,4.2636719 7.1434944,3.8626126 7.2311711,3.7874856 7.5722656,3.5605469 8.4078253,3.0046283 9.3117167,2.7690826 10.3125,2.8457031 c 0.582955,0.044631 1.013595,0.1511441 1.628906,0.40625 0.325496,0.1349501 0.558652,0.2260083 0.833985,0.2402344 0.275333,0.014226 0.578214,-0.1311274 0.742187,-0.2949219 0.262244,-0.2619577 0.372021,-0.6690637 0.25586,-1.0078125 C 13.657276,1.8507043 13.361586,1.6088375 13.011719,1.5058594 12.967745,1.4929162 12.722397,1.4034532 12.556641,1.3339844 12.116003,1.1493125 11.535102,0.97966461 11.042969,0.88867188 Z"
         id="path3"
         sodipodi:nodetypes="ssssssccccccsssscssssssssssssssss" />
    </g>
  </g>
</svg>
