<?xml version="1.0" encoding="UTF-8" standalone="no"?>
<!-- Created with Inkscape (http://www.inkscape.org/) -->

<svg
   version="1.1"
   id="svg2"
   width="1600"
   height="1600"
   viewBox="0 0 1600 1600"
   sodipodi:docname="gp_delete_point.svg"
   inkscape:version="1.4.3 (0d15f75, 2025-12-25)"
   xml:space="preserve"
   xmlns:inkscape="http://www.inkscape.org/namespaces/inkscape"
   xmlns:sodipodi="http://sodipodi.sourceforge.net/DTD/sodipodi-0.dtd"
   xmlns="http://www.w3.org/2000/svg"
   xmlns:svg="http://www.w3.org/2000/svg"
   xmlns:rdf="http://www.w3.org/1999/02/22-rdf-syntax-ns#"
   xmlns:cc="http://creativecommons.org/ns#"
   xmlns:dc="http://purl.org/dc/elements/1.1/"><metadata
     id="metadata8"><rdf:RDF><cc:Work
         rdf:about=""><dc:format>image/svg+xml</dc:format><dc:type
           rdf:resource="http://purl.org/dc/dcmitype/StillImage" /></cc:Work></rdf:RDF></metadata><defs
     id="defs6" /><sodipodi:namedview
     pagecolor="#808080"
     bordercolor="#666666"
     borderopacity="1"
     objecttolerance="10"
     gridtolerance="10"
     guidetolerance="10"
     inkscape:pageopacity="0"
     inkscape:pageshadow="2"
     inkscape:window-width="2560"
     inkscape:window-height="1009"
     id="namedview4"
     showgrid="true"
     inkscape:zoom="0.35355339"
     inkscape:cx="1531.5933"
     inkscape:cy="1071.9739"
     inkscape:window-x="1912"
     inkscape:window-y="-8"
     inkscape:window-maximized="1"
     inkscape:current-layer="GP_SELECT_POINTS"
     inkscape:showpageshadow="0"
     inkscape:pagecheckerboard="true"
     inkscape:deskcolor="#d1d1d1"><inkscape:grid
       id="grid1"
       units="px"
       originx="0"
       originy="0"
       spacingx="100"
       spacingy="100"
       empcolor="#0099e5"
       empopacity="0.30196078"
       color="#0099e5"
       opacity="0.14901961"
       empspacing="5"
       enabled="true"
       visible="true" /></sodipodi:namedview><g
     id="OUTLINER_OB_GREASEPENCIL"
     style="stroke-width:0.0001"
     transform="matrix(100,0,0,100,0,4.9999997e-5)"
     inkscape:label="gp_both"><path
       style="stroke-width:0.00031;fill:none;stroke:none;stroke-dasharray:none"
       d="M 0,8 V 0 h 8 8 v 8 8 H 8 0 Z m 6.453125,6.968852 c 2.0524313,-0.433694 3.973716,-2.01693 5.038319,-4.151831 l 0.242931,-0.487163 v -0.297741 c 0,-0.3465682 -0.06034,-0.506977 -0.269302,-0.7159404 C 11.259377,9.1104803 11.094177,9.046875 10.765625,9.046875 c -0.504281,0 -0.707894,0.1599644 -1.02479,0.8051041 C 9.2194088,10.913505 8.5003419,11.74501 7.578125,12.352865 6.6957472,12.934462 5.7451837,13.173348 4.943995,13.014849 4.7951994,12.985413 4.5833053,12.908598 4.3896719,12.813898 4.1301822,12.686991 4.0177916,12.606689 3.7368369,12.347452 3.5501769,12.175221 3.3524103,11.970948 3.2973556,11.893513 3.1546641,11.692814 3.023023,11.384043 3.0063474,11.210938 2.9984828,11.129297 2.9819059,11.0625 2.9695097,11.0625 c -0.040919,0 -0.09459,-0.509088 -0.09455,-0.896837 C 2.8751289,8.5555388 3.61939,6.5838522 4.7245994,5.265625 5.5746084,4.2517853 6.5048319,3.6470544 7.5395728,3.4356322 8.3916491,3.2615331 9.4610256,3.4206159 10.321565,3.8494881 c 0.09952,0.049597 0.197955,0.08657 0.21875,0.082162 0.0208,-0.00441 0.103892,0.010794 0.184658,0.033784 0.207255,0.058993 0.537116,0.034113 0.718617,-0.054202 0.324452,-0.1578733 0.530492,-0.4668883 0.551337,-0.826884 C 12.023783,2.5859832 11.764078,2.2207451 11.259048,2.0494427 11.142353,2.0098606 10.900536,1.9183057 10.721678,1.8459874 7.7039384,0.62581591 4.5870072,1.7613577 2.5789433,4.8125 2.1238196,5.5040353 1.8575988,6.0201853 1.5450185,6.8170778 0.9172585,8.4174891 0.71584478,10.162491 1.0047048,11.498229 c 0.1274331,0.589273 0.3995828,1.21033 0.7148393,1.631293 0.1991441,0.265918 0.8476607,0.890594 1.1345338,1.092826 0.6270137,0.442015 1.2357196,0.690323 1.9814333,0.808285 0.3124188,0.04942 1.2632122,0.01311 1.6176138,-0.06178 z m 7.990465,-0.05706 c 0.187048,-0.09173 0.376176,-0.280727 0.468519,-0.4682 l 0.07227,-0.146715 V 11.4375 8.578125 l -0.07147,-0.25 C 14.530191,6.9893328 13.252986,6.0366331 11.390625,5.7007647 11.011992,5.6324797 10.068266,5.6070769 9.6544878,5.6540316 8.8101362,5.7498472 7.9954584,6.0156553 7.375,6.3977687 6.3614287,7.0219838 5.6273759,7.9669122 5.2806694,9.09375 5.2251425,9.2742187 5.144925,9.5121047 5.1024078,9.6223856 4.9076753,10.127485 5.1153569,10.67947 5.5876603,10.912109 c 0.2112097,0.104034 0.6447197,0.104034 0.8559294,0 0.2950665,-0.145339 0.5205653,-0.456307 0.5495375,-0.757825 0.00991,-0.103122 0.02999,-0.153069 0.065279,-0.1623624 0.033428,-0.0088 0.070544,-0.089901 0.1078493,-0.2356447 0.031285,-0.1222222 0.122841,-0.3537391 0.2034588,-0.5144822 0.3924687,-0.7825413 1.0377728,-1.2727806 1.9896603,-1.511551 0.3845513,-0.096461 1.1309274,-0.133465 1.5537534,-0.077034 0.758438,0.1012231 1.461782,0.4032259 1.812629,0.7783094 0.281976,0.301455 0.256522,0.017335 0.274898,3.0684809 0.01482,2.461351 0.0211,2.715312 0.07014,2.83938 0.109493,0.276992 0.343742,0.514179 0.606148,0.613751 0.184362,0.06996 0.583589,0.04843 0.766646,-0.04134 z"
       id="path823"
       inkscape:connector-curvature="0" /><g
       id="GP_SELECT_POINTS"
       style="stroke-width:0.0114286"
       transform="translate(0.01868886,-0.05694425)"><path
         style="fill:none;stroke-width:0.000357143"
         d="M 0,8 V 0 h 8 8 v 8 8 H 8 0 Z m 8.453125,6.157094 c 1.0712841,-0.161095 1.909274,-0.445473 2.53026,-0.858662 0.346916,-0.230831 0.808808,-0.715052 0.964259,-1.010874 0.234351,-0.445971 0.27885,-0.622237 0.294613,-1.166989 0.01605,-0.554746 -0.01196,-0.702811 -0.20143,-1.06469 C 11.896975,9.781126 11.505551,9.4022584 11.203125,9.2450479 10.790376,9.0304878 10.247972,8.897819 9.59375,8.8514044 L 9.265625,8.828125 9.9587598,8.7266466 C 12.046112,8.4210475 13.018105,8.0828959 13.657137,7.439999 14.11208,6.9823047 14.250328,6.6355896 14.249512,5.9543719 14.248828,5.3647547 14.135633,4.9673053 13.837485,4.5073894 13.638203,4.19998 13.15238,3.7200229 12.809693,3.4920068 12.013313,2.9621142 10.72073,2.5101398 9.2050075,2.2315656 8.2261359,2.0516592 6.7555653,1.8836717 5.671875,1.8279659 5.4828125,1.8182474 5.2542969,1.8027486 5.1640625,1.7935243 L 5,1.7767527 V 1.3883764 1 H 3 1 V 3 5 H 3 5 V 4.671875 4.34375 l 0.1171875,1.27e-4 c 0.1909919,2.148e-4 0.947651,0.059183 1.6171875,0.1260484 2.2390313,0.2236065 3.929284,0.6549338 4.680611,1.1944228 l 0.149362,0.1072485 -0.227487,0.065975 C 10.718206,6.01699 10.271594,6.0978878 8.546875,6.3429381 6.6689841,6.6097513 5.963981,6.7569409 5.296875,7.021469 4.8597378,7.1948072 4.6063391,7.356874 4.3087713,7.6534325 3.8772919,8.0834506 3.75,8.3957428 3.75,9.0242997 c 0,0.6360196 0.1488622,1.0047153 0.5768935,1.4288253 0.3053296,0.302533 0.5382187,0.44248 0.9793586,0.588515 0.6155954,0.203786 1.1080835,0.257718 2.6156229,0.286441 0.55,0.01048 1.0351563,0.02694 1.078125,0.03657 0.072944,0.01636 0.069836,0.0205 -0.046875,0.06241 -0.3562719,0.127951 -1.0858128,0.250561 -1.7108859,0.28754 -0.3232157,0.01912 -0.4146107,0.0353 -0.484375,0.08577 -0.047294,0.03421 -0.1563016,0.08849 -0.2422391,0.120622 -0.2237213,0.08365 -0.5141797,0.381298 -0.610755,0.625881 -0.058508,0.148175 -0.074036,0.246488 -0.074036,0.46875 0,0.347517 0.077918,0.567133 0.2815806,0.793655 0.1693512,0.18836 0.2856746,0.263223 0.5655079,0.363948 0.202718,0.07297 0.2391052,0.07593 0.7752021,0.06311 0.3436068,-0.0082 0.7327503,-0.03905 1,-0.07924 z"
         id="path825"
         inkscape:connector-curvature="0" /><path
         style="fill:#ffffff;stroke-width:0.000357143"
         d="M 6.8167581,13.715997 C 6.5944216,13.639393 6.457874,13.530723 6.3795344,13.368037 6.1717916,12.936625 6.359655,12.456221 6.7855628,12.329739 c 0.090204,-0.02679 0.1736565,-0.06432 0.1854507,-0.0834 0.012305,-0.01991 0.1912984,-0.04652 0.4200071,-0.06245 1.4925625,-0.103919 2.6573904,-0.536837 2.7813744,-1.033723 0.01994,-0.07992 0.01252,-0.08663 -0.146004,-0.131789 C 9.6987019,10.925021 9.4347435,10.90407 8.015625,10.858784 6.1816807,10.800261 5.7269854,10.738289 5.171875,10.471203 4.7557604,10.270993 4.4700856,9.9851045 4.3185475,9.617235 4.2029591,9.3366356 4.1847888,8.8710521 4.2777466,8.5717815 4.4786856,7.924874 5.0760453,7.5213354 6.28125,7.2183406 6.7732557,7.0946479 7.3231125,7.0018959 8.859375,6.7834541 10.692511,6.522799 11.366589,6.3819609 11.867027,6.155051 12.108033,6.0457737 12.1875,5.9825697 12.1875,5.9001615 12.1875,5.7108716 11.851785,5.3487044 11.469196,5.1252606 10.643832,4.6432222 9.0706838,4.243335 7.171875,4.0329016 c -0.5033406,-0.055783 -1.5849209,-0.145475 -2,-0.165855 l -0.15625,-0.00767 -0.00833,-0.797075 -0.00833,-0.7970749 0.3989497,0.02135 c 1.9746375,0.1056735 3.8144197,0.3730149 5.1345793,0.7461131 2.150869,0.6078694 3.248745,1.6008263 3.248745,2.9382766 0,0.5172918 -0.135047,0.8228144 -0.527232,1.1927828 C 12.816112,7.5768432 12.03138,7.8751913 10.774764,8.1063366 10.539166,8.1496731 9.7938535,8.2633094 9.1185141,8.3588616 7.7560184,8.5516378 7.1147187,8.6575172 6.7367912,8.7520872 6.3990109,8.8366109 6.0218728,8.96149 5.9535815,9.011426 5.9043405,9.047432 5.9187335,9.057693 6.0818709,9.102889 6.4956203,9.2175124 6.8015553,9.2415883 8.359374,9.2821215 c 1.1402694,0.029669 1.6210889,0.070209 2.018014,0.170149 0.953314,0.240031 1.404666,0.7462335 1.403399,1.5739515 -7.81e-4,0.536524 -0.154568,0.964663 -0.489163,1.362172 -0.593348,0.704915 -1.7502756,1.174334 -3.3137128,1.344527 -0.57721,0.06283 -0.9452338,0.05747 -1.1611541,-0.01692 z"
         id="path823-4"
         inkscape:connector-curvature="0" /><path
         style="fill:#febe00;stroke-width:0.000357143"
         d="M 1.5,3 V 1.5 H 3 4.5 V 3 4.5 H 3 1.5 Z"
         id="path821"
         inkscape:connector-curvature="0" /><path
         style="fill:#000000;stroke-width:0.000357143"
         d="M 6.6779229,14.173228 C 6.3980896,14.072503 6.2817662,13.99764 6.112415,13.80928 5.9087519,13.582758 5.8308344,13.363142 5.8308344,13.015625 c 0,-0.222262 0.015528,-0.320575 0.074036,-0.46875 0.096575,-0.244583 0.3870337,-0.542235 0.610755,-0.625881 0.085937,-0.03213 0.194945,-0.08641 0.2422391,-0.120622 0.069764,-0.05047 0.1611593,-0.06665 0.484375,-0.08577 0.6250731,-0.03698 1.354614,-0.159589 1.7108859,-0.28754 C 9.0698356,11.385146 9.072944,11.381007 9,11.364651 8.9570313,11.355013 8.471875,11.33856 7.921875,11.328081 6.4143356,11.299358 5.9218475,11.245426 5.3062521,11.04164 4.8651122,10.895605 4.6322231,10.755658 4.3268935,10.453125 3.8988622,10.029015 3.75,9.6603193 3.75,9.0242997 3.75,8.3957428 3.8772919,8.0834506 4.3087713,7.6534347 4.6063391,7.3568763 4.8597378,7.1948094 5.296875,7.0214713 5.963981,6.7569432 6.6689841,6.6097534 8.546875,6.3429403 10.271594,6.09789 10.718206,6.0169922 11.336861,5.8375719 L 11.564348,5.7715969 11.414986,5.6643484 C 10.663659,5.1248594 8.9734063,4.6935322 6.734375,4.4699256 6.0648385,4.4030606 5.3081794,4.3440844 5.1171875,4.3438771 L 5,4.34375 V 4.671875 5 H 3 1 V 3 1 h 2 2 v 0.3883764 0.3883763 l 0.1640625,0.016772 c 0.090234,0.00922 0.31875,0.024723 0.5078125,0.034442 1.0836903,0.055706 2.5542609,0.2236933 3.5331325,0.4035997 1.5157225,0.2785742 2.8083055,0.7305486 3.6046855,1.2604412 0.342687,0.2280161 0.82851,0.7079732 1.027792,1.0153826 0.298148,0.4599159 0.411321,0.8573653 0.412027,1.4469825 7.81e-4,0.6812177 -0.137432,1.0279328 -0.592375,1.4856271 -0.639032,0.6428969 -1.611025,0.9810485 -3.6983772,1.2866476 L 9.265625,8.828125 9.59375,8.8514044 c 0.654222,0.046415 1.196626,0.1790834 1.609375,0.3936435 0.302426,0.1572105 0.69385,0.5360781 0.837702,0.8108311 0.18947,0.361879 0.217483,0.509944 0.20143,1.06469 -0.01576,0.544752 -0.06026,0.721018 -0.294613,1.166989 -0.155451,0.295822 -0.617343,0.780043 -0.964259,1.010874 -0.832742,0.554087 -2.1534907,0.904978 -3.53026,0.937904 -0.5360969,0.01282 -0.5724841,0.0099 -0.7752021,-0.06311 z m 1.2999893,-0.440307 c 1.5634372,-0.170193 2.7203648,-0.639612 3.3137128,-1.344527 0.334595,-0.397509 0.488342,-0.825649 0.489163,-1.362172 0.0013,-0.827718 -0.450085,-1.3339207 -1.403399,-1.5739517 C 9.9804639,9.3523303 9.4996443,9.31179 8.359375,9.2821213 6.8015562,9.2415881 6.4956213,9.2175122 6.0818719,9.1028888 5.9187347,9.0576938 5.9043412,9.0474322 5.9535825,9.0114263 6.0218737,8.9614903 6.3990119,8.8366112 6.7367922,8.7520875 7.1147197,8.6575175 7.7560193,8.5516381 9.118515,8.3588619 c 0.6753395,-0.095552 1.420652,-0.2091885 1.65625,-0.252525 1.256616,-0.2311453 2.041348,-0.5294934 2.479253,-0.9425894 0.392185,-0.3699684 0.527232,-0.675491 0.527232,-1.1927829 0,-1.3374502 -1.097876,-2.3304071 -3.248745,-2.9382765 C 9.212345,2.6595899 7.3725628,2.3922485 5.3979253,2.286575 l -0.3989497,-0.02135 0.00832,0.7970749 0.00832,0.797075 0.15625,0.00767 c 0.4150791,0.02038 1.4966594,0.1100724 2,0.165855 1.8988088,0.2104334 3.4719574,0.6103206 4.2973214,1.092359 0.382589,0.2234438 0.718304,0.585611 0.718304,0.7749009 0,0.082408 -0.07947,0.1456122 -0.320473,0.2548895 -0.500429,0.2269119 -1.174507,0.36775 -3.007643,0.6284051 C 7.3231125,7.0018962 6.7732557,7.0946481 6.28125,7.2183409 5.0760453,7.5213356 4.4786856,7.9248743 4.2777466,8.5717818 c -0.092958,0.2992706 -0.074788,0.7648541 0.040801,1.0454535 0.1515381,0.3678692 0.4372129,0.6537577 0.8533275,0.8539677 0.5551104,0.267086 1.0098057,0.329058 2.84375,0.387581 1.4191185,0.04529 1.6830769,0.06624 2.0107659,0.159596 0.15852,0.04516 0.165947,0.05187 0.146004,0.131789 -0.123984,0.496886 -1.2888118,0.929804 -2.7813743,1.033723 -0.2287087,0.01592 -0.4077019,0.04253 -0.4200071,0.06245 -0.011794,0.01908 -0.095247,0.05661 -0.1854507,0.0834 -0.4259078,0.126482 -0.6137712,0.606886 -0.4060284,1.038298 0.1803841,0.374599 0.6094197,0.47254 1.5983778,0.364884 z M 4.5,3 V 1.5 H 3 1.5 V 3 4.5 H 3 4.5 Z"
         id="path819"
         inkscape:connector-curvature="0" /></g><path
       style="fill:#000000;stroke-width:0.01"
       d="m 14.560078,7.065763 c -0.277825,-0.063119 -0.578766,-0.043335 -0.871093,0.09375 -0.273377,0.1281976 -0.229248,0.1491217 -0.310547,0.2207031 -0.0813,0.071581 -0.177777,0.161753 -0.296875,0.2753907 -0.238197,0.2272754 -0.56236,0.5495278 -0.978516,0.9667969 L 11.382344,9.3431068 10.647969,8.6087318 C 10.214108,8.175298 9.8864983,7.8529496 9.6499224,7.628263 9.5316345,7.5159197 9.4357151,7.4288708 9.3550006,7.3587318 9.3146433,7.3236623 9.2796809,7.2929957 9.2378131,7.2610755 9.1959452,7.2291554 9.1778303,7.1988805 9.0210162,7.1341224 7.8514247,6.6511295 6.615475,7.9333756 7.1538287,9.081388 c 0.1281972,0.2733758 0.1491217,0.2292472 0.2207031,0.3105469 0.071581,0.0813 0.161753,0.1777763 0.2753906,0.296875 0.2272753,0.2381974 0.5495275,0.5643121 0.9667969,0.9804681 l 0.7207031,0.720703 -0.734375,0.734375 c -0.4334335,0.433861 -0.7557816,0.761471 -0.9804687,0.998047 -0.1123436,0.118288 -0.1993916,0.212254 -0.2695313,0.292969 -0.03507,0.04036 -0.065735,0.07727 -0.097656,0.119141 -0.031921,0.04187 -0.062193,0.05801 -0.1269532,0.214843 -0.3024162,0.732314 0.05069,1.543768 0.7519532,1.869141 0.4032228,0.187086 0.7302662,0.194847 1.140625,0.02539 0.1568142,-0.06476 0.174929,-0.09503 0.2167969,-0.126953 0.041868,-0.03192 0.07683,-0.06259 0.1171875,-0.09766 0.080714,-0.07014 0.1766339,-0.157188 0.2949218,-0.269531 0.2365759,-0.224687 0.5641854,-0.548988 0.9980464,-0.982422 l 0.734375,-0.732422 0.720703,0.720703 c 0.416156,0.41727 0.740318,0.737569 0.978516,0.964844 0.119098,0.113638 0.215575,0.203809 0.296875,0.275391 0.0813,0.07158 0.03717,0.09251 0.310547,0.220703 1.148012,0.538353 2.432212,-0.697596 1.949218,-1.867188 -0.06476,-0.156814 -0.09503,-0.172976 -0.126953,-0.214843 -0.03192,-0.04187 -0.06259,-0.07878 -0.09766,-0.119141 -0.07014,-0.08071 -0.157188,-0.174681 -0.269531,-0.292969 -0.224683,-0.236572 -0.548984,-0.564182 -0.982418,-0.998043 l -0.732422,-0.734375 0.720703,-0.720703 c 0.41727,-0.416156 0.739522,-0.7422708 0.966797,-0.9804681 0.113638,-0.1190987 0.201856,-0.2155752 0.273438,-0.296875 0.07158,-0.0813 0.0925,-0.037171 0.220703,-0.3105469 0.411255,-0.8769822 -0.217307,-1.8262687 -1.050782,-2.015625 z"
       id="path3-0" /><path
       style="fill:#fe0000;stroke-width:0.000357143"
       d="M 8.195593,14.938708 C 7.852006,14.77929 7.683141,14.371656 7.821697,14.036137 7.854417,13.956897 8.271768,13.517466 9.1342,12.654184 L 10.398722,11.388415 9.145525,10.138559 C 8.315796,9.3110443 7.872519,8.8464642 7.833709,8.7637033 7.575623,8.2133477 8.171763,7.5944417 8.735659,7.8273074 c 0.07924,0.032723 0.518672,0.4500709 1.381952,1.3125025 l 1.26577,1.2645231 1.249856,-1.2531978 c 0.827515,-0.8297285 1.292095,-1.2730063 1.374856,-1.3118163 0.561681,-0.2633965 1.187781,0.3627031 0.924384,0.9243844 -0.03881,0.082761 -0.482087,0.547341 -1.311816,1.3748557 l -1.253198,1.249856 1.264523,1.26577 c 0.862432,0.863281 1.27978,1.302713 1.312503,1.381953 0.232866,0.563896 -0.38604,1.160036 -0.936396,0.90195 -0.08276,-0.03881 -0.547341,-0.482087 -1.374856,-1.311817 l -1.249856,-1.253197 -1.26577,1.264523 C 9.254331,14.500029 8.814899,14.917377 8.735659,14.9501 8.579804,15.01446 8.348338,15.00958 8.195593,14.93871 Z"
       id="path821-7-9"
       inkscape:connector-curvature="0" /></g></svg>
