<?xml version="1.0" encoding="UTF-8" standalone="no"?>
<svg
   height="1600"
   viewBox="0 0 1600 1600"
   width="1600"
   version="1.1"
   id="svg4"
   xml:space="preserve"
   sodipodi:docname="gp_draw_stroke.svg"
   inkscape:version="1.4.3 (0d15f75, 2025-12-25)"
   xmlns:inkscape="http://www.inkscape.org/namespaces/inkscape"
   xmlns:sodipodi="http://sodipodi.sourceforge.net/DTD/sodipodi-0.dtd"
   xmlns="http://www.w3.org/2000/svg"
   xmlns:svg="http://www.w3.org/2000/svg"><sodipodi:namedview
     id="namedview1"
     pagecolor="#505050"
     bordercolor="#eeeeee"
     borderopacity="1"
     inkscape:showpageshadow="0"
     inkscape:pageopacity="0"
     inkscape:pagecheckerboard="0"
     inkscape:deskcolor="#d1d1d1"
     inkscape:zoom="0.35974058"
     inkscape:cx="786.67801"
     inkscape:cy="800.57692"
     inkscape:window-width="2560"
     inkscape:window-height="1009"
     inkscape:window-x="1912"
     inkscape:window-y="-8"
     inkscape:window-maximized="1"
     inkscape:current-layer="svg4"
     showgrid="true"><inkscape:grid
       id="grid1"
       units="px"
       originx="0"
       originy="0"
       spacingx="100"
       spacingy="100"
       empcolor="#0099e5"
       empopacity="0.30196078"
       color="#0099e5"
       opacity="0.14901961"
       empspacing="5"
       enabled="true"
       visible="true" /></sodipodi:namedview><defs
     id="defs4" /><g
     id="STROKE"
     transform="matrix(100,0,0,100,-78.90625,-19.74455)"
     style="stroke-width:0.0114286"
     inkscape:label="stroke"><path
       style="fill:none;stroke-width:0.000357143"
       d="m 0.7890625,8.1974455 v -8 h 8 7.9999995 v 8 7.9999995 h -7.9999995 -8 z m 2.71875,6.9221775 c 1.0364363,-0.182651 1.7319459,-0.635353 2.0649409,-1.344052 0.154795,-0.329444 0.2163091,-0.643572 0.2163091,-1.104605 0,-0.61817 -0.089669,-0.98111 -0.4530463,-1.833735 C 4.9414919,9.9115218 4.8564728,9.591073 4.8304875,8.9318205 4.7844422,7.7636321 5.2326778,6.8145502 6.1586572,6.1195914 6.9873003,5.4976846 8.0984359,5.1661955 9.3543947,5.1661955 c 1.7086903,0 3.2428523,0.5575069 4.2839293,1.5567581 0.400503,0.3844125 0.650264,0.7178516 0.858682,1.1463669 0.223115,0.4587344 0.296908,0.7508391 0.299992,1.1875 0.0041,0.5739416 -0.173572,1.0343875 -0.560072,1.4518455 -0.85679,0.925411 -2.133984,0.993935 -3.354113,0.179953 C 10.556896,10.471192 10.001629,9.9038758 9.7612003,9.5426705 9.2958353,8.843533 8.9625403,7.9726218 8.8517309,7.1661955 8.8052884,6.8282058 8.7666687,6.7000733 8.6836509,6.6085389 8.5802353,6.4945139 8.4629512,6.4474455 8.2822434,6.4474455 c -0.2952293,0 -0.4931809,0.2044734 -0.4931809,0.50943 0,0.4099619 0.2482784,1.4210934 0.4967897,2.0232103 1.1709212,2.8370212 3.9978558,4.1175202 6.1019638,2.7639702 0.299821,-0.192871 0.786761,-0.686798 0.973139,-0.987104 C 15.938104,9.8270186 15.993819,8.6916602 15.516599,7.5852752 15.277131,7.0300924 14.976854,6.5965808 14.482494,6.0923317 13.491063,5.0810677 12.096526,4.4247717 10.445313,4.1923568 10.256747,4.1658155 9.8520122,4.1510164 9.3359375,4.151793 8.6291353,4.1528555 8.4705884,4.1623952 8.1171875,4.2251171 5.9725719,4.6057433 4.4750469,5.7923164 3.9576413,7.5209586 3.7090286,8.351568 3.7429641,9.4961699 4.0427303,10.390913 c 0.051544,0.15385 0.199881,0.528336 0.3296366,0.832192 0.3239544,0.758622 0.3933612,1.037649 0.3783959,1.521216 -0.010019,0.323738 -0.022805,0.399335 -0.093534,0.553016 -0.2481563,0.539201 -0.863827,0.804258 -2.0220679,0.870537 -0.4644275,0.02657 -0.5258516,0.03682 -0.6286502,0.104849 -0.2897891,0.191773 -0.2908883,0.649249 -0.00204,0.851037 0.112383,0.07851 0.1143624,0.0787 0.6595963,0.06346 0.3007812,-0.0084 0.6804687,-0.03883 0.84375,-0.0676 z M 9.5176794,3.1613513 C 9.5552213,3.1414995 9.6896641,3.0286736 9.8164413,2.9106271 9.9869956,2.7518181 10.129227,2.6556863 10.363316,2.5410032 10.936913,2.2599913 11.349061,2.1987854 12.673427,2.1979401 13.499805,2.1974126 13.542844,2.1905342 13.68453,2.0363522 13.902143,1.7995435 13.824586,1.3931661 13.532802,1.2413513 13.40877,1.1768175 11.451647,1.1787371 11.054688,1.2437819 10.262079,1.3736569 9.6004794,1.679928 9.1137153,2.1423062 8.8616375,2.3817553 8.7890625,2.5058548 8.7890625,2.6974455 c 0,0.2956953 0.2017237,0.5 0.4936838,0.5 0.091671,0 0.1973912,-0.016242 0.2349331,-0.036094 z"
       id="path821"
       inkscape:connector-curvature="0" /><path
       style="fill:#333333;stroke:#333333;stroke-width:1.57657;stroke-dasharray:none;stroke-opacity:1"
       d="m 8.6070365,15.405803 c 1.9990195,-0.408159 3.8887625,-1.956944 4.9410895,-4.049589 0.24802,-0.493213 0.284391,-0.644757 0.19828,-0.826218 -0.09045,-0.190629 -0.256134,-0.298328 -0.458921,-0.298328 -0.265594,0 -0.355557,0.08977 -0.614446,0.613097 -0.776748,1.570158 -2.087625,2.811881 -3.5419018,3.355052 C 8.5925693,14.400972 8.2168174,14.4608 7.6052564,14.442772 6.982996,14.424432 6.7569878,14.369801 6.2712956,14.12031 6.0096875,13.985933 5.8762014,13.886175 5.5294736,13.565925 5.0611247,13.133341 4.9469866,12.992011 4.781148,12.639318 4.5565445,12.161648 4.4685353,11.669779 4.4685353,10.892175 c 0,-1.1243918 0.2450056,-2.2246964 0.7547665,-3.3896085 C 5.6963068,6.4216493 6.278829,5.5758602 7.1002029,4.777413 7.5196795,4.3696455 7.6614451,4.2517048 8.015822,4.0156719 8.9394707,3.4004752 9.9691735,3.1314175 11.075434,3.2162058 c 0.629462,0.048244 1.134825,0.1738747 1.785063,0.4437558 0.621779,0.2580697 0.818314,0.2682353 1.033112,0.053438 0.302535,-0.302535 0.156944,-0.7275667 -0.294817,-0.8606809 -0.09896,-0.029159 -0.32773,-0.1150291 -0.508379,-0.190822 C 12.696303,2.4965443 12.126825,2.3287042 11.678068,2.245641 11.173742,2.1522925 10.162948,2.159683 9.6635435,2.2603704 8.5878151,2.4772527 7.5801265,2.9877264 6.6527442,3.7855775 5.9483362,4.3915983 5.2511696,5.2811572 4.6897874,6.2902389 4.0871509,7.3734745 3.6647858,8.6545481 3.4769448,9.9689065 c -0.063908,0.4471725 -0.052962,1.5028235 0.019754,1.9050245 0.1802699,0.997112 0.4979144,1.624627 1.1476157,2.267143 0.7921777,0.783417 1.5281519,1.168187 2.5417174,1.328818 0.3034459,0.0481 1.0326688,0.0152 1.4210051,-0.06409 z"
       id="path4581" /><path
       style="fill:#333333;stroke:#333333;stroke-width:1.57657;stroke-dasharray:none;stroke-opacity:1"
       d="M 6.9552735,15.368056 C 5.8853087,15.198803 5.0901422,14.789188 4.2395178,13.969085 3.7755333,13.521748 3.5800883,13.272248 3.3557281,12.840862 2.9332662,12.028578 2.7644498,11.161173 2.8027731,9.9996893 2.8807527,7.6363259 3.9272038,5.1421537 5.6038226,3.3235062 6.4364356,2.4203614 7.5865152,1.6633677 8.6572606,1.3137033 10.094893,0.844228 11.664676,0.91306544 13.141918,1.5103624 c 0.187988,0.07601 0.442149,0.1722386 0.564802,0.2138413 0.380809,0.1291677 0.654277,0.3925471 0.745359,0.7178592 0.05897,0.2106465 0.03093,0.5608386 -0.05988,0.7474561 -0.09577,0.1968317 -0.294682,0.3957388 -0.491514,0.491514 C 13.709918,3.773857 13.363218,3.8000067 13.145384,3.738002 13.060494,3.713839 12.973157,3.697859 12.9513,3.702493 12.92945,3.707133 12.82598,3.668265 12.721383,3.616137 11.611252,3.0628768 10.278975,2.9560457 9.2225799,3.3355798 7.9677154,3.7864176 6.829873,4.8559297 5.9642237,6.3982628 5.3099169,7.5640461 4.8947652,9.0609113 4.8946403,10.25474 c -4.27e-5,0.407542 0.056368,0.942618 0.099377,0.942618 0.013029,0 0.030452,0.07021 0.038718,0.156016 0.017528,0.181942 0.1558879,0.506475 0.3058636,0.71742 0.057866,0.08138 0.2657273,0.296088 0.4619159,0.477111 0.2952968,0.27247 0.4134247,0.356872 0.6861608,0.490256 0.203518,0.09954 0.4262289,0.180271 0.5826202,0.211209 0.8420878,0.166592 1.8411754,-0.08449 2.7685968,-0.695776 0.9692944,-0.638885 1.7250684,-1.512837 2.2731124,-2.6285507 0.333072,-0.6780728 0.547081,-0.8462031 1.077103,-0.8462031 0.345325,0 0.518958,0.066852 0.735154,0.2830489 0.219632,0.2196305 0.283049,0.3882279 0.283049,0.7524869 v 0.312941 l -0.255333,0.512032 c -1.118948,2.243882 -3.138311,3.90794 -5.2955143,4.363772 -0.372493,0.07871 -1.3718225,0.116878 -1.7001903,0.06494 z"
       id="path819-9-4" /><path
       style="fill:none;stroke:none;stroke-width:0.000325825;stroke-dasharray:none"
       d="M 1.9722965,8.6058288 V 0.1974455 h 8.4083845 8.408381 V 8.6058288 17.014213 H 10.380681 1.9722965 Z m 6.7825436,7.3245982 c 2.1572039,-0.455834 4.1765669,-2.119891 5.2955149,-4.363773 l 0.255332,-0.512032 v -0.31294 c 0,-0.364261 -0.06342,-0.532858 -0.283049,-0.7524886 -0.216197,-0.2161967 -0.389829,-0.2830489 -0.735153,-0.2830489 -0.530025,0 -0.744031,0.1681303 -1.077103,0.8462035 -0.548046,1.115715 -1.30382,1.989666 -2.273113,2.628551 C 9.0098476,13.792185 8.0107598,14.043266 7.1686721,13.876675 7.0122808,13.845736 6.7895699,13.765001 6.5860519,13.665467 6.3133159,13.532082 6.195188,13.447679 5.8998911,13.17521 5.7037025,12.994187 5.4958403,12.779486 5.4379752,12.698098 5.2879996,12.487154 5.1496385,12.162621 5.1321116,11.980679 c -0.00826,-0.08581 -0.025689,-0.156016 -0.038718,-0.156016 -0.043008,0 -0.099419,-0.535076 -0.099377,-0.942618 1.781e-4,-1.6923183 0.7824322,-3.7646554 1.9440602,-5.1501754 0.8934002,-1.065594 1.8711096,-1.7011952 2.958672,-1.92341 0.8955732,-0.1829865 2.0195392,-0.015783 2.9240072,0.4349823 0.104601,0.052129 0.208061,0.09099 0.229917,0.086356 0.02186,-0.00464 0.109195,0.011345 0.194085,0.035509 0.217834,0.062005 0.564534,0.035854 0.755301,-0.056969 C 14.341073,4.1424054 14.557631,3.8176159 14.57954,3.4392431 14.609869,2.9154377 14.336907,2.531555 13.806096,2.351508 13.683444,2.3099052 13.429283,2.2136767 13.241294,2.1376667 10.069505,0.855208 6.7934608,2.0487168 4.6828895,5.2556135 4.2045327,5.9824503 3.9247218,6.5249486 3.5961849,7.3625209 2.9363792,9.0446298 2.7246837,10.87871 3.0282894,12.282635 c 0.1339383,0.619355 0.4199807,1.272115 0.7513304,1.714568 0.20931,0.279492 0.890932,0.936056 1.1924493,1.148612 0.6590215,0.46458 1.2988005,0.725563 2.0825814,0.849546 0.3283671,0.05194 1.3276965,0.01378 1.7001896,-0.06493 z m 8.3983609,-0.05997 c 0.196596,-0.09641 0.39538,-0.295057 0.492436,-0.4921 l 0.07596,-0.154203 V 12.218806 9.2134658 l -0.07512,-0.262762 C 17.244224,7.5435691 15.90182,6.5422361 13.944389,6.1892223 13.546428,6.1174518 12.554527,6.090752 12.119625,6.1401031 11.232172,6.2408095 10.375906,6.5201869 9.7237748,6.9218064 8.6584629,7.5778864 7.8869382,8.5710514 7.5225331,9.7554119 7.464172,9.9450931 7.3798592,10.195123 7.3351716,10.311034 c -0.2046732,0.530884 0.013609,1.111047 0.5100236,1.355559 0.2219915,0.109346 0.6776312,0.109346 0.8996227,0 0.3101291,-0.152758 0.5471392,-0.4796 0.5775903,-0.79651 0.010416,-0.108386 0.031521,-0.160883 0.068611,-0.170651 0.035134,-0.0092 0.074145,-0.09449 0.1133548,-0.247673 0.032882,-0.128462 0.1291118,-0.371796 0.213845,-0.5407451 0.412504,-0.8224883 1.09075,-1.3377534 2.091229,-1.5887125 0.404181,-0.1013854 1.188659,-0.1402781 1.63307,-0.080966 0.797154,0.1063902 1.536402,0.4238097 1.905159,0.8180404 0.296371,0.3168436 0.269618,0.01822 0.288931,3.2251212 0.01558,2.586998 0.02218,2.853923 0.07372,2.984325 0.115083,0.291131 0.361289,0.540426 0.63709,0.645082 0.193774,0.07353 0.61338,0.0509 0.805781,-0.04345 z"
       id="path823"
       inkscape:connector-curvature="0" /><path
       style="fill:#fe9832;stroke-width:0.000105105"
       d="M 11.673961,1.1006898 C 11.041188,0.98356596 10.090205,0.99025798 9.4610128,1.1171124 8.2910047,1.3530029 7.1974333,1.9110527 6.2113862,2.7593748 5.4441951,3.4194095 4.719327,4.3515745 4.1318715,5.4075227 3.4943732,6.5534224 3.0537494,7.8906046 2.8570654,9.2668394 c -0.081485,0.5701627 -0.077132,1.5218236 0.022581,2.0733576 0.1926302,1.065479 0.5848866,1.844968 1.2953344,2.547559 0.8467174,0.837353 1.725934,1.299147 2.828797,1.473929 0.4685695,0.07425 1.1226354,0.03164 1.6094171,-0.06774 2.1907241,-0.447302 4.1854871,-2.104147 5.3045081,-4.329413 0.12908,-0.256695 0.217032,-0.434887 0.266867,-0.642536 0.04983,-0.20765 0.016,-0.4767723 -0.06364,-0.6445889 -0.164139,-0.345898 -0.543128,-0.5994257 -0.931984,-0.5994257 -0.192003,0 -0.499978,0.083652 -0.681539,0.2648148 C 12.325854,9.5239557 12.237883,9.7126827 12.103006,9.9853291 11.674719,10.851092 11.131283,11.541483 10.386842,12.167486 9.7110741,12.73574 8.9862533,13.097463 8.2683243,13.245221 7.993832,13.301698 7.9623767,13.303391 7.521095,13.290384 6.9258038,13.272833 6.8670536,13.259023 6.4125634,13.025568 6.1803547,12.906291 6.1237519,12.864959 5.7864509,12.553416 5.3287501,12.130669 5.3076182,12.105302 5.1582855,11.787711 4.9703003,11.387918 4.8955235,11.002464 4.8955235,10.264515 4.8955235,9.2164629 5.1199714,8.1969626 5.605802,7.0867361 6.0556428,6.0587541 6.5897105,5.2825777 7.3671284,4.5268596 7.7804872,4.125039 7.8678154,4.0518974 8.2087878,3.8247925 9.0412949,3.2703006 9.9379227,3.0360453 10.934943,3.1124611 c 0.58152,0.04457 1.009258,0.1514003 1.623788,0.40646 0.326739,0.1356134 0.56179,0.2276513 0.843713,0.2422338 0.281921,0.014582 0.596654,-0.1368206 0.763652,-0.3038186 C 14.434177,3.1892537 14.546054,2.7708448 14.426802,2.4227109 14.307555,2.0745772 14.005442,1.8257358 13.648782,1.7206438 13.607506,1.7084811 13.360377,1.6195995 13.195106,1.5502591 12.751445,1.3641168 12.169059,1.1923304 11.673961,1.1006898 Z"
       id="path2"
       sodipodi:nodetypes="ssssssscccccssssccsssssssssssssss" /></g></svg>
