<?xml version="1.0" encoding="UTF-8" standalone="no"?>
<!-- Created with Inkscape (http://www.inkscape.org/) -->

<svg
   version="1.1"
   id="svg2"
   width="1600"
   height="1600"
   viewBox="0 0 1600 1600"
   sodipodi:docname="gp_fill.svg"
   inkscape:version="1.4 (86a8ad7, 2024-10-11)"
   xmlns:inkscape="http://www.inkscape.org/namespaces/inkscape"
   xmlns:sodipodi="http://sodipodi.sourceforge.net/DTD/sodipodi-0.dtd"
   xmlns="http://www.w3.org/2000/svg"
   xmlns:svg="http://www.w3.org/2000/svg"
   xmlns:rdf="http://www.w3.org/1999/02/22-rdf-syntax-ns#"
   xmlns:cc="http://creativecommons.org/ns#"
   xmlns:dc="http://purl.org/dc/elements/1.1/">
  <metadata
     id="metadata8">
    <rdf:RDF>
      <cc:Work
         rdf:about="">
        <dc:format>image/svg+xml</dc:format>
        <dc:type
           rdf:resource="http://purl.org/dc/dcmitype/StillImage" />
      </cc:Work>
    </rdf:RDF>
  </metadata>
  <defs
     id="defs6" />
  <sodipodi:namedview
     pagecolor="#808080"
     bordercolor="#666666"
     borderopacity="1"
     objecttolerance="10"
     gridtolerance="10"
     guidetolerance="10"
     inkscape:pageopacity="0"
     inkscape:pageshadow="2"
     inkscape:window-width="2560"
     inkscape:window-height="1009"
     id="namedview4"
     showgrid="true"
     inkscape:zoom="0.35355339"
     inkscape:cx="1455.2258"
     inkscape:cy="794.78802"
     inkscape:window-x="1912"
     inkscape:window-y="-8"
     inkscape:window-maximized="1"
     inkscape:current-layer="svg2"
     inkscape:showpageshadow="0"
     inkscape:pagecheckerboard="true"
     inkscape:deskcolor="#d1d1d1">
    <inkscape:grid
       id="grid1"
       units="px"
       originx="0"
       originy="0"
       spacingx="100"
       spacingy="100"
       empcolor="#0099e5"
       empopacity="0.30196078"
       color="#0099e5"
       opacity="0.14901961"
       empspacing="5"
       enabled="true"
       visible="true" />
  </sodipodi:namedview>
  <g
     id="CURVE_FILL"
     transform="matrix(100,0,0,100,0,4.9999997e-5)"
     style="stroke-width:0.0114286"
     inkscape:label="gp_fill">
    <path
       style="fill:none;stroke-width:0.000357143"
       d="M 0,8 V 0 h 8 8 v 8 8 H 8 0 Z m 4.421875,6.953145 c 0.3636512,-0.07609 0.7095447,-0.268277 0.9930237,-0.551756 0.1838397,-0.18384 0.266155,-0.245222 0.3291829,-0.24547 0.046224,-1.87e-4 0.2608784,-0.02763 0.4770103,-0.06099 2.4899362,-0.384368 4.4802271,-1.404417 5.8507221,-2.998571 1.08413,-1.2610537 1.624699,-2.8344009 1.496795,-4.3564719 C 13.493381,5.8446669 13.230825,5.0732181 12.759214,4.3616956 12.511806,3.9884297 11.891553,3.3382925 11.506094,3.0482016 10.857887,2.5603688 9.9560797,2.1605249 9.0351697,1.9526418 L 8.6860319,1.8738286 8.4289534,1.6140468 C 8.2244634,1.4074064 8.1175384,1.3275042 7.90625,1.2234447 7.1042741,0.82847138 6.2134347,0.97027759 5.5918559,1.5918561 4.8204162,2.3632957 4.8046575,3.6072659 5.5566609,4.3700712 5.6715913,4.4866522 5.8122797,4.6163128 5.8693025,4.6582059 L 5.97298,4.734375 5.8727012,5.0625 C 5.7635972,5.4195037 5.5932797,5.9843109 5.3591247,6.765625 5.2767087,7.040625 5.1500278,7.4625 5.0776112,7.703125 5.0051947,7.94375 4.8786791,8.365625 4.7964656,8.640625 4.7142519,8.915625 4.5807469,9.3585938 4.4997878,9.625 4.4188284,9.8914062 4.2919822,10.309766 4.2179072,10.554688 L 4.0832253,11 3.94005,11.000544 C 3.695765,11.001469 3.3707062,11.08704 3.0948078,11.223049 2.4401257,11.545787 2.0010852,12.259088 2.0010852,13 c 0,0.740799 0.4388058,1.4538 1.0937226,1.777154 0.43249,0.213534 0.8702025,0.271582 1.3270672,0.175991 z"
       id="path825"
       inkscape:connector-curvature="0" />
    <path
       style="fill:#fe9832;fill-opacity:1;stroke-width:1;stroke-linecap:round;stroke-linejoin:round;paint-order:markers stroke fill"
       d="M 14.163079,2.0454508 13.139392,8.385514 10.024468,13.034257 5.442661,13.779074 3.4192497,9.0791677 4.7865752,3.8093164 9.0132585,0.97567654 Z"
       id="path1" />
    <path
       style="stroke-width:1.3515;fill:#333333;stroke:#333333;stroke-dasharray:none;stroke-opacity:1"
       d="m 6.2177024,14.468303 c 1.9340925,-0.394765 3.7624574,-1.89272 4.7806066,-3.916688 0.239965,-0.477026 0.275154,-0.6235972 0.19184,-0.7991037 -0.08751,-0.1843715 -0.247816,-0.2885362 -0.444017,-0.2885362 -0.256967,0 -0.344008,0.08682 -0.594489,0.5929759 C 9.4001241,11.575577 8.1318234,12.776549 6.7247807,13.301894 6.2037052,13.496448 5.8401575,13.554312 5.2484595,13.536876 4.6464097,13.519134 4.4277421,13.466294 3.9578248,13.224998 3.7047135,13.09503 3.5755631,12.998546 3.2400967,12.688806 2.7869595,12.270418 2.6765285,12.133727 2.5160762,11.792609 2.2987676,11.330615 2.2136169,10.854888 2.2136169,10.102805 c 0,-1.087491 0.237048,-2.1516852 0.7302522,-3.2783666 C 3.4015112,5.7789955 3.9651135,4.960964 4.7598099,4.1887206 5.165662,3.7943355 5.3028232,3.6802654 5.6456902,3.4519788 6.5393394,2.856972 7.5355982,2.5967443 8.605928,2.67875 9.2149453,2.7254109 9.7038937,2.8469184 10.333012,3.1079424 10.934597,3.3575426 11.12475,3.3673746 11.332571,3.159626 11.625279,2.8670204 11.484418,2.4559376 11.047329,2.327192 10.951584,2.2989898 10.730243,2.215938 10.555462,2.1426326 10.174152,1.9827068 9.6231711,1.820375 9.1889881,1.7400377 8.7010432,1.6497528 7.7230796,1.6569008 7.2398949,1.7542837 6.1991054,1.9640483 5.2241458,2.457769 4.3268843,3.2294358 3.645355,3.8155679 2.9708317,4.6759327 2.4276829,5.6518976 1.8446196,6.699583 1.4359727,7.9386136 1.2542327,9.2098366 c -0.061832,0.4324968 -0.051241,1.4535024 0.019112,1.8425044 0.1744149,0.964388 0.4817426,1.571309 1.110342,2.192738 0.7664482,0.757706 1.4785185,1.129849 2.4591642,1.285209 0.2935901,0.04652 0.9991284,0.0147 1.3748517,-0.06199 z"
       id="path4581"
       transform="matrix(1.1098713,0,0,1.1098713,1.0499848,-0.89897055)" />
    <path
       style="stroke-width:1.3515;display:none;fill:#333333;stroke:#320000;stroke-dasharray:none;stroke-opacity:1"
       d="M 4.6195875,14.431793 C 3.5843745,14.268095 2.8150344,13.871923 1.9920377,13.078734 1.5431231,12.646079 1.3540261,12.404767 1.136953,11.987539 0.72821226,11.201912 0.56487896,10.362975 0.60195756,9.2396092 0.67740434,6.9538081 1.6898675,4.5414911 3.3120309,2.782529 4.1176011,1.9090241 5.230327,1.1768738 6.2662954,0.83868504 7.6572339,0.3846172 9.1760322,0.45119549 10.605293,1.02889 c 0.181883,0.073515 0.427789,0.166586 0.546458,0.2068233 0.368441,0.1249286 0.633027,0.3796643 0.721151,0.6943001 0.05706,0.2037334 0.02992,0.5424326 -0.05793,0.7229256 -0.09266,0.190372 -0.285112,0.3827513 -0.475551,0.4753833 -0.18457,0.089777 -0.520009,0.1150691 -0.730769,0.055099 -0.08214,-0.02337 -0.166633,-0.038825 -0.187781,-0.034343 -0.02114,0.00448 -0.121248,-0.033104 -0.222449,-0.083522 C 9.1243424,2.5304531 7.8353386,2.427128 6.8132535,2.7942064 5.5991461,3.2302483 4.49826,4.2646606 3.6607264,5.7563764 3.0276709,6.8839003 2.6260032,8.3316406 2.6258823,9.4862895 c -4.12e-5,0.3941678 0.054537,0.9116835 0.096149,0.9116835 0.012606,0 0.029463,0.06791 0.037461,0.150895 0.016958,0.175971 0.1508248,0.489853 0.2959293,0.693874 0.055986,0.07871 0.2570967,0.286372 0.4469132,0.461454 0.2857058,0.263528 0.399997,0.34516 0.6638748,0.474167 0.1969079,0.09627 0.4123853,0.174355 0.5636971,0.204278 0.8147374,0.161123 1.7813754,-0.08172 2.6786747,-0.672943 0.9378121,-0.617917 1.6690389,-1.463187 2.1992827,-2.5422851 0.3222552,-0.6558193 0.5293119,-0.8184318 1.0421209,-0.8184318 0.334108,0 0.502101,0.064658 0.711276,0.2737596 0.212497,0.2124226 0.273856,0.3754868 0.273856,0.7277921 V 9.6532026 L 11.388078,10.14843 c -1.082606,2.170242 -3.036382,3.779687 -5.1235211,4.220561 -0.3603948,0.07613 -1.3272667,0.113041 -1.6449694,0.0628 z"
       id="path819-9-4"
       transform="matrix(1.1098713,0,0,1.1098713,1.0499848,-0.89897055)" />
    <path
       style="stroke-width:0.901006;fill:#ffffff;fill-opacity:1;stroke:#ffffff;stroke-dasharray:none;stroke-opacity:1"
       d="M 4.8428507,14.530288 C 3.862205,14.374928 3.1501347,14.002785 2.3836865,13.245079 1.7550871,12.62365 1.4477594,12.016729 1.2733445,11.052341 1.2029914,10.663339 1.1924008,9.6423334 1.2542327,9.2098366 1.4359727,7.9386136 1.8446196,6.699583 2.4276829,5.6518976 2.9708317,4.6759327 3.645355,3.8155679 4.3268843,3.2294358 5.2241458,2.457769 6.1991054,1.9640483 7.2398949,1.7542837 7.7230796,1.6569008 8.7010432,1.6497528 9.1889881,1.7400377 c 0.434183,0.080337 0.9851639,0.2426691 1.3664739,0.4025949 0.174781,0.073306 0.396122,0.1563572 0.491867,0.1845594 0.437089,0.1287456 0.57795,0.5398284 0.285242,0.8324342 C 11.12475,3.3673746 10.934597,3.3575426 10.333012,3.1079424 9.7038937,2.8469184 9.2149453,2.7254113 8.605928,2.67875 7.5355982,2.5967443 6.5393394,2.856972 5.6456902,3.4519788 5.3028232,3.6802654 5.165662,3.7943355 4.7598099,4.1887206 3.9651135,4.960964 3.4015112,5.7789955 2.9438691,6.8244384 2.4506649,7.9511198 2.2136169,9.015314 2.2136169,10.102805 c 0,0.752083 0.085151,1.22781 0.3024593,1.689804 0.1604523,0.341118 0.2708833,0.477809 0.7240205,0.896197 0.3354664,0.30974 0.4646168,0.406224 0.7177281,0.536192 0.4699173,0.241296 0.6885849,0.294136 1.2906347,0.311878 0.4356569,0.01284 0.5560321,0.0052 0.8407521,-0.05338 0.7887709,-0.162281 1.56417,-0.554903 2.2735366,-1.151201 0.7693825,-0.646748 1.3457303,-1.379819 1.7888948,-2.275341 0.250481,-0.5061557 0.337522,-0.5929758 0.594489,-0.5929758 0.196201,0 0.356497,0.1041647 0.444017,0.2885362 0.08332,0.1755065 0.04812,0.3220776 -0.19184,0.7991036 -1.0181492,2.023968 -2.8465141,3.521923 -4.7806066,3.916688 -0.3757233,0.07669 -1.0812616,0.108498 -1.3748517,0.06199 z"
       id="path821-7"
       transform="matrix(1.1098713,0,0,1.1098713,1.0499848,-0.89897055)" />
  </g>
</svg>
