<?xml version="1.0" encoding="UTF-8" standalone="no"?>
<!-- Created with Inkscape (http://www.inkscape.org/) -->

<svg
   version="1.1"
   id="svg2"
   width="1600"
   height="1600"
   viewBox="0 0 1600 1600"
   sodipodi:docname="gp_fill_join.svg"
   inkscape:version="1.4.3 (0d15f75, 2025-12-25)"
   xml:space="preserve"
   xmlns:inkscape="http://www.inkscape.org/namespaces/inkscape"
   xmlns:sodipodi="http://sodipodi.sourceforge.net/DTD/sodipodi-0.dtd"
   xmlns="http://www.w3.org/2000/svg"
   xmlns:svg="http://www.w3.org/2000/svg"
   xmlns:rdf="http://www.w3.org/1999/02/22-rdf-syntax-ns#"
   xmlns:cc="http://creativecommons.org/ns#"
   xmlns:dc="http://purl.org/dc/elements/1.1/"><metadata
     id="metadata8"><rdf:RDF><cc:Work
         rdf:about=""><dc:format>image/svg+xml</dc:format><dc:type
           rdf:resource="http://purl.org/dc/dcmitype/StillImage" /></cc:Work></rdf:RDF></metadata><defs
     id="defs6" /><sodipodi:namedview
     pagecolor="#808080"
     bordercolor="#666666"
     borderopacity="1"
     objecttolerance="10"
     gridtolerance="10"
     guidetolerance="10"
     inkscape:pageopacity="0"
     inkscape:pageshadow="2"
     inkscape:window-width="2560"
     inkscape:window-height="1009"
     id="namedview4"
     showgrid="false"
     inkscape:zoom="0.35355339"
     inkscape:cx="1211.981"
     inkscape:cy="857.01342"
     inkscape:window-x="1912"
     inkscape:window-y="-8"
     inkscape:window-maximized="1"
     inkscape:current-layer="CURVE_FILL"
     inkscape:showpageshadow="0"
     inkscape:pagecheckerboard="true"
     inkscape:deskcolor="#d1d1d1" /><g
     id="CURVE_FILL"
     transform="matrix(100,0,0,100,0,4.9999997e-5)"
     style="stroke-width:0.0114286"
     inkscape:label="gp_fill_select"><g
       id="CURVE_FILL-6"
       style="stroke-width:0.0114286"
       inkscape:label="gp_fill_join"><path
         style="fill:none;stroke-width:0.000357143"
         d="M 0,8 V 0 h 8 8 v 8 8 H 8 0 Z m 4.421875,6.953145 c 0.3636512,-0.07609 0.7095447,-0.268277 0.9930237,-0.551756 0.1838397,-0.18384 0.266155,-0.245222 0.3291829,-0.24547 0.046224,-1.87e-4 0.2608784,-0.02763 0.4770103,-0.06099 2.4899362,-0.384368 4.4802271,-1.404417 5.8507221,-2.998571 1.08413,-1.2610537 1.624699,-2.8344009 1.496795,-4.3564719 C 13.493381,5.8446669 13.230825,5.0732181 12.759214,4.3616956 12.511806,3.9884297 11.891553,3.3382925 11.506094,3.0482016 10.857887,2.5603688 9.9560797,2.1605249 9.0351697,1.9526418 L 8.6860319,1.8738286 8.4289534,1.6140468 C 8.2244634,1.4074064 8.1175384,1.3275042 7.90625,1.2234447 7.1042741,0.82847138 6.2134347,0.97027759 5.5918559,1.5918561 4.8204162,2.3632957 4.8046575,3.6072659 5.5566609,4.3700712 5.6715913,4.4866522 5.8122797,4.6163128 5.8693025,4.6582059 L 5.97298,4.734375 5.8727012,5.0625 C 5.7635972,5.4195037 5.5932797,5.9843109 5.3591247,6.765625 5.2767087,7.040625 5.1500278,7.4625 5.0776112,7.703125 5.0051947,7.94375 4.8786791,8.365625 4.7964656,8.640625 4.7142519,8.915625 4.5807469,9.3585938 4.4997878,9.625 4.4188284,9.8914062 4.2919822,10.309766 4.2179072,10.554688 L 4.0832253,11 3.94005,11.000544 C 3.695765,11.001469 3.3707062,11.08704 3.0948078,11.223049 2.4401257,11.545787 2.0010852,12.259088 2.0010852,13 c 0,0.740799 0.4388058,1.4538 1.0937226,1.777154 0.43249,0.213534 0.8702025,0.271582 1.3270672,0.175991 z"
         id="path825"
         inkscape:connector-curvature="0" /><g
         id="CURVE_FILL-1"
         style="stroke-width:0.0114286"
         inkscape:label="gp_fill"
         transform="translate(-1.6)"><path
           style="fill:none;stroke-width:0.000357143"
           d="M 0,8 V 0 h 8 8 v 8 8 H 8 0 Z m 4.421875,6.953145 c 0.3636512,-0.07609 0.7095447,-0.268277 0.9930237,-0.551756 0.1838397,-0.18384 0.266155,-0.245222 0.3291829,-0.24547 0.046224,-1.87e-4 0.2608784,-0.02763 0.4770103,-0.06099 2.4899362,-0.384368 4.4802271,-1.404417 5.8507221,-2.998571 1.08413,-1.2610537 1.624699,-2.8344009 1.496795,-4.3564719 C 13.493381,5.8446669 13.230825,5.0732181 12.759214,4.3616956 12.511806,3.9884297 11.891553,3.3382925 11.506094,3.0482016 10.857887,2.5603688 9.9560797,2.1605249 9.0351697,1.9526418 L 8.6860319,1.8738286 8.4289534,1.6140468 C 8.2244634,1.4074064 8.1175384,1.3275042 7.90625,1.2234447 7.1042741,0.82847138 6.2134347,0.97027759 5.5918559,1.5918561 4.8204162,2.3632957 4.8046575,3.6072659 5.5566609,4.3700712 5.6715913,4.4866522 5.8122797,4.6163128 5.8693025,4.6582059 L 5.97298,4.734375 5.8727012,5.0625 C 5.7635972,5.4195037 5.5932797,5.9843109 5.3591247,6.765625 5.2767087,7.040625 5.1500278,7.4625 5.0776112,7.703125 5.0051947,7.94375 4.8786791,8.365625 4.7964656,8.640625 4.7142519,8.915625 4.5807469,9.3585938 4.4997878,9.625 4.4188284,9.8914062 4.2919822,10.309766 4.2179072,10.554688 L 4.0832253,11 3.94005,11.000544 C 3.695765,11.001469 3.3707062,11.08704 3.0948078,11.223049 2.4401257,11.545787 2.0010852,12.259088 2.0010852,13 c 0,0.740799 0.4388058,1.4538 1.0937226,1.777154 0.43249,0.213534 0.8702025,0.271582 1.3270672,0.175991 z"
           id="path825-4"
           inkscape:connector-curvature="0" /><path
           style="fill:#fe9832;fill-opacity:1;stroke-width:1;stroke-linecap:round;stroke-linejoin:round;paint-order:markers stroke fill"
           d="M 14.163079,2.0454508 13.470357,9.330313 10.024468,13.034257 5.442661,13.779074 3.4192497,9.0791677 4.7865752,3.8093164 9.0132585,0.97567654 Z"
           id="path1-2"
           sodipodi:nodetypes="cccccccc" /><path
           style="fill:#00fe00;fill-opacity:1;stroke-width:0.999999;stroke-linecap:round;stroke-linejoin:round;paint-order:markers stroke fill"
           d="M 9.640637,2.668075 8.9446586,9.0081382 7.426901,13.656881 4.3118475,14.401698 2.9361818,9.7017923 3.8657915,4.4319406 6.7394058,1.5983007 Z"
           id="path1-2-7"
           sodipodi:nodetypes="cccccccc" /><path
           style="fill:#333333;stroke:#333333;stroke-width:1.3515;stroke-dasharray:none;stroke-opacity:1"
           d="m 6.2177024,14.468303 c 1.9340925,-0.394765 3.7624574,-1.89272 4.7806066,-3.916688 0.239965,-0.477026 0.275154,-0.6235972 0.19184,-0.7991037 -0.08751,-0.1843715 -0.247816,-0.2885362 -0.444017,-0.2885362 -0.256967,0 -0.344008,0.08682 -0.594489,0.5929759 C 9.4001241,11.575577 8.1318234,12.776549 6.7247807,13.301894 6.2037052,13.496448 5.8401575,13.554312 5.2484595,13.536876 4.6464097,13.519134 4.4277421,13.466294 3.9578248,13.224998 3.7047135,13.09503 3.5755631,12.998546 3.2400967,12.688806 2.7869595,12.270418 2.6765285,12.133727 2.5160762,11.792609 2.2987676,11.330615 2.2136169,10.854888 2.2136169,10.102805 c 0,-1.087491 0.237048,-2.1516852 0.7302522,-3.2783666 C 3.4015112,5.7789955 3.9651135,4.960964 4.7598099,4.1887206 5.165662,3.7943355 5.3028232,3.6802654 5.6456902,3.4519788 6.5393394,2.856972 7.5355982,2.5967443 8.605928,2.67875 9.2149453,2.7254109 9.7038937,2.8469184 10.333012,3.1079424 10.934597,3.3575426 11.12475,3.3673746 11.332571,3.159626 11.625279,2.8670204 11.484418,2.4559376 11.047329,2.327192 10.951584,2.2989898 10.730243,2.215938 10.555462,2.1426326 10.174152,1.9827068 9.6231711,1.820375 9.1889881,1.7400377 8.7010432,1.6497528 7.7230796,1.6569008 7.2398949,1.7542837 6.1991054,1.9640483 5.2241458,2.457769 4.3268843,3.2294358 3.645355,3.8155679 2.9708317,4.6759327 2.4276829,5.6518976 1.8446196,6.699583 1.4359727,7.9386136 1.2542327,9.2098366 c -0.061832,0.4324968 -0.051241,1.4535024 0.019112,1.8425044 0.1744149,0.964388 0.4817426,1.571309 1.110342,2.192738 0.7664482,0.757706 1.4785185,1.129849 2.4591642,1.285209 0.2935901,0.04652 0.9991284,0.0147 1.3748517,-0.06199 z"
           id="path4581-3"
           transform="matrix(1.1098713,0,0,1.1098713,1.0499848,-0.89897055)" /><path
           style="display:none;fill:#333333;stroke:#320000;stroke-width:1.3515;stroke-dasharray:none;stroke-opacity:1"
           d="M 4.6195875,14.431793 C 3.5843745,14.268095 2.8150344,13.871923 1.9920377,13.078734 1.5431231,12.646079 1.3540261,12.404767 1.136953,11.987539 0.72821226,11.201912 0.56487896,10.362975 0.60195756,9.2396092 0.67740434,6.9538081 1.6898675,4.5414911 3.3120309,2.782529 4.1176011,1.9090241 5.230327,1.1768738 6.2662954,0.83868504 7.6572339,0.3846172 9.1760322,0.45119549 10.605293,1.02889 c 0.181883,0.073515 0.427789,0.166586 0.546458,0.2068233 0.368441,0.1249286 0.633027,0.3796643 0.721151,0.6943001 0.05706,0.2037334 0.02992,0.5424326 -0.05793,0.7229256 -0.09266,0.190372 -0.285112,0.3827513 -0.475551,0.4753833 -0.18457,0.089777 -0.520009,0.1150691 -0.730769,0.055099 -0.08214,-0.02337 -0.166633,-0.038825 -0.187781,-0.034343 -0.02114,0.00448 -0.121248,-0.033104 -0.222449,-0.083522 C 9.1243424,2.5304531 7.8353386,2.427128 6.8132535,2.7942064 5.5991461,3.2302483 4.49826,4.2646606 3.6607264,5.7563764 3.0276709,6.8839003 2.6260032,8.3316406 2.6258823,9.4862895 c -4.12e-5,0.3941678 0.054537,0.9116835 0.096149,0.9116835 0.012606,0 0.029463,0.06791 0.037461,0.150895 0.016958,0.175971 0.1508248,0.489853 0.2959293,0.693874 0.055986,0.07871 0.2570967,0.286372 0.4469132,0.461454 0.2857058,0.263528 0.399997,0.34516 0.6638748,0.474167 0.1969079,0.09627 0.4123853,0.174355 0.5636971,0.204278 0.8147374,0.161123 1.7813754,-0.08172 2.6786747,-0.672943 0.9378121,-0.617917 1.6690389,-1.463187 2.1992827,-2.5422851 0.3222552,-0.6558193 0.5293119,-0.8184318 1.0421209,-0.8184318 0.334108,0 0.502101,0.064658 0.711276,0.2737596 0.212497,0.2124226 0.273856,0.3754868 0.273856,0.7277921 V 9.6532026 L 11.388078,10.14843 c -1.082606,2.170242 -3.036382,3.779687 -5.1235211,4.220561 -0.3603948,0.07613 -1.3272667,0.113041 -1.6449694,0.0628 z"
           id="path819-9-4-2"
           transform="matrix(1.1098713,0,0,1.1098713,1.0499848,-0.89897055)" /><path
           id="rect1"
           style="fill:#fefe00;stroke-width:1.5;stroke-linecap:round;stroke-linejoin:round;paint-order:markers stroke fill"
           d="m 9.640637,2.8280751 h 0.56662 l -0.76,6.2939934 h -0.56662 z"
           sodipodi:nodetypes="ccccc" /><path
           style="fill:#ffffff;fill-opacity:1;stroke:#ffffff;stroke-width:0.901006;stroke-dasharray:none;stroke-opacity:1"
           d="M 4.8428507,14.530288 C 3.862205,14.374928 3.1501347,14.002785 2.3836865,13.245079 1.7550871,12.62365 1.4477594,12.016729 1.2733445,11.052341 1.2029914,10.663339 1.1924008,9.6423334 1.2542327,9.2098366 1.4359727,7.9386136 1.8446196,6.699583 2.4276829,5.6518976 2.9708317,4.6759327 3.645355,3.8155679 4.3268843,3.2294358 5.2241458,2.457769 6.1991054,1.9640483 7.2398949,1.7542837 7.7230796,1.6569008 8.7010432,1.6497528 9.1889881,1.7400377 c 0.434183,0.080337 0.9851639,0.2426691 1.3664739,0.4025949 0.174781,0.073306 0.396122,0.1563572 0.491867,0.1845594 0.437089,0.1287456 0.57795,0.5398284 0.285242,0.8324342 C 11.12475,3.3673746 10.934597,3.3575426 10.333012,3.1079424 9.7038937,2.8469184 9.2149453,2.7254113 8.605928,2.67875 7.5355982,2.5967443 6.5393394,2.856972 5.6456902,3.4519788 5.3028232,3.6802654 5.165662,3.7943355 4.7598099,4.1887206 3.9651135,4.960964 3.4015112,5.7789955 2.9438691,6.8244384 2.4506649,7.9511198 2.2136169,9.015314 2.2136169,10.102805 c 0,0.752083 0.085151,1.22781 0.3024593,1.689804 0.1604523,0.341118 0.2708833,0.477809 0.7240205,0.896197 0.3354664,0.30974 0.4646168,0.406224 0.7177281,0.536192 0.4699173,0.241296 0.6885849,0.294136 1.2906347,0.311878 0.4356569,0.01284 0.5560321,0.0052 0.8407521,-0.05338 0.7887709,-0.162281 1.56417,-0.554903 2.2735366,-1.151201 0.7693825,-0.646748 1.3457303,-1.379819 1.7888948,-2.275341 0.250481,-0.5061557 0.337522,-0.5929758 0.594489,-0.5929758 0.196201,0 0.356497,0.1041647 0.444017,0.2885362 0.08332,0.1755065 0.04812,0.3220776 -0.19184,0.7991036 -1.0181492,2.023968 -2.8465141,3.521923 -4.7806066,3.916688 -0.3757233,0.07669 -1.0812616,0.108498 -1.3748517,0.06199 z"
           id="path821-7-2"
           transform="matrix(1.1098713,0,0,1.1098713,1.0499848,-0.89897055)" /></g><g
         id="STRING_JOIN"
         style="stroke-width:0.0114286"
         transform="translate(1.2072573,0.59507914)"><path
           style="fill:none;stroke-width:0.000357143"
           d="M 0,8 V 0 h 8 8 v 8 8 H 8 0 Z m 6.5037191,6.954233 c 0.4673037,-0.08166 0.8679415,-0.250696 1.2587422,-0.531082 L 8,14.252725 8.2382141,14.423636 c 0.5757178,0.413058 1.2382709,0.607438 1.9313369,0.566616 1.330056,-0.07834 2.428857,-1.003612 2.758272,-2.322664 0.07422,-0.297206 0.07422,-1.03797 0,-1.335176 C 12.598408,10.01336 11.499607,9.08809 10.169551,9.0097481 9.476485,8.9689259 8.8139319,9.1633059 8.2382141,9.5763644 L 8,9.7472753 7.7617859,9.5763644 C 7.1860681,9.1633059 6.523515,8.9689259 5.8304488,9.0097481 4.5003934,9.08809 3.4015919,10.01336 3.0721766,11.332412 c -0.074223,0.297206 -0.074223,1.03797 0,1.335176 0.3912512,1.566656 1.8788975,2.557965 3.4315425,2.286645 z M 2.578125,7.6402837 C 2.9116081,7.5699572 3.1685794,7.4284947 3.4129356,7.1807209 L 3.625,6.9656906 V 7.2640953 7.5625 H 4.3300441 5.0350878 L 5.0238547,6.0703125 C 5.0131741,4.6514972 5.0092719,4.5661019 4.9444937,4.3336087 4.7396034,3.5982431 4.26438,3.2422881 3.3313091,3.1252909 2.7354844,3.0505809 1.7221003,3.1356888 1.0859375,3.3138656 L 0.96875,3.3466878 V 3.8771041 4.4075203 L 1.1009632,4.34007 C 1.7728659,3.9972909 2.9629156,3.9267113 3.3830231,4.204725 3.5229547,4.2973275 3.6232844,4.4883222 3.6243137,4.6640625 L 3.625,4.78125 3.0546875,4.7815 C 1.9435165,4.782 1.3772306,4.9107169 0.99117241,5.2505391 0.69817975,5.5084416 0.54600497,6.0049731 0.61441819,6.4798519 0.70310116,7.09543 1.1220427,7.5230922 1.765625,7.6550219 c 0.2028366,0.04158 0.5776689,0.034778 0.8125,-0.014744 z M 2.3603056,6.7020516 C 1.9458397,6.5440578 1.8716519,6.0356875 2.2246054,5.7721697 2.3619068,5.6696594 2.6380652,5.6260106 3.1526366,5.6254881 L 3.6333978,5.625 3.6178331,5.8425403 C 3.5909972,6.217605 3.4116088,6.49327 3.0850686,6.6612353 c -0.1708855,0.0879 -0.5458523,0.1090169 -0.724763,0.040816 z m 7.230536,0.9373303 C 10.315828,7.4684903 10.874181,6.7642356 10.997681,5.8649262 11.124113,4.9442612 10.888294,4.0967306 10.361397,3.578125 10.005439,3.2277684 9.5875369,3.0733693 9.078125,3.1040044 8.6035175,3.1325463 8.2526894,3.29775 7.9155156,3.6514725 L 7.75,3.8251119 V 2.646931 1.46875 H 7.046875 6.34375 V 4.515625 7.5625 H 7.046875 7.75 V 7.2593191 6.9561381 l 0.1640625,0.1716385 c 0.456505,0.4775859 1.0512563,0.6590515 1.6767791,0.5116053 z M 8.375,6.6101012 C 8.2976562,6.5850572 8.1846834,6.5233987 8.1239494,6.4730819 c -0.4982803,-0.4128128 -0.4982803,-1.7519603 0,-2.1649541 0.3135903,-0.2599156 0.8940787,-0.2318334 1.161675,0.056198 0.1929194,0.2076516 0.3070403,0.5891072 0.3070403,1.0262994 0,0.5886466 -0.1831053,1.0084497 -0.5145397,1.1796772 C 8.9172309,6.6534241 8.56957,6.6731028 8.375,6.6101012 Z m 6.671246,1.0002147 c 0.119967,-0.026156 0.292232,-0.069102 0.382812,-0.095435 L 15.59375,7.4670041 V 6.8920319 6.3170597 l -0.179687,0.1084056 c -0.299936,0.1809513 -0.561071,0.2464409 -0.976563,0.2449113 -0.430564,-0.00158 -0.630402,-0.065771 -0.866963,-0.2784604 -0.514955,-0.4629884 -0.514955,-1.539594 0,-2.0025825 0.237226,-0.2132865 0.436451,-0.2770606 0.866963,-0.277524 0.309569,-3.344e-4 0.392377,0.011162 0.5975,0.082942 0.130968,0.045831 0.310265,0.1258646 0.398437,0.1778528 l 0.160313,0.094524 V 3.8910247 3.3149212 l -0.164022,-0.048709 c -0.42013,-0.1247656 -0.661037,-0.1559078 -1.195353,-0.154525 -0.438193,0.00113 -0.579428,0.013333 -0.806292,0.069639 -0.853677,0.2118779 -1.398918,0.7149722 -1.621879,1.4965075 -0.100705,0.3529988 -0.100705,1.0725838 0,1.4255825 0.249198,0.8735032 0.913684,1.409201 1.927297,1.5537554 0.265544,0.03787 1.053076,0.00976 1.312745,-0.046856 z"
           id="path825-1"
           inkscape:connector-curvature="0" /><path
           style="fill:#fecb32;stroke-width:0.000357143"
           d="M 5.7380002,14.732793 C 5.1747639,14.631037 4.5664135,14.323404 4.140363,13.924885 3.7169941,13.528871 3.3576227,12.839643 3.2486349,12.21466 c -0.073241,-0.419991 -0.073241,-0.538861 0,-0.958853 0.075819,-0.434777 0.2391206,-0.837994 0.4953367,-1.223064 0.4547469,-0.6834416 1.1843363,-1.1508687 2.0252366,-1.2975091 0.4199914,-0.073241 0.5388611,-0.073241 0.9588526,0 0.4347766,0.075819 0.8379946,0.2391204 1.2230641,0.4953368 0.683442,0.4547465 1.1508688,1.1843363 1.2975092,2.0252363 0.073241,0.419992 0.073241,0.538862 0,0.958853 -0.075819,0.434776 -0.2391204,0.837994 -0.4953366,1.223064 -0.454747,0.683442 -1.1843363,1.150868 -2.0252367,1.297508 -0.4019804,0.0701 -0.5911082,0.06964 -0.9900606,-0.0024 z m 4.8938908,0 C 10.227519,14.65974 9.812776,14.487909 9.4364525,14.237513 L 9.1246666,14.030057 9.3239703,13.727121 c 0.4069298,-0.618523 0.5723046,-1.194106 0.5723046,-1.991888 0,-0.797781 -0.1653748,-1.373364 -0.5723046,-1.9918865 L 9.1246666,9.4404097 9.4364525,9.232954 C 9.8249426,8.9744621 10.227179,8.8112517 10.6631,8.7352339 c 0.41999,-0.073241 0.53886,-0.073241 0.958853,0 0.434776,0.075819 0.837993,0.2391204 1.223063,0.4953368 0.683442,0.4547465 1.150868,1.1843363 1.297509,2.0252363 0.07323,0.419992 0.07323,0.538862 0,0.958853 -0.07582,0.434776 -0.23912,0.837994 -0.495336,1.223064 -0.454747,0.683442 -1.184336,1.150868 -2.025236,1.297508 -0.401982,0.0701 -0.591109,0.06964 -0.990062,-0.0024 z"
           id="path821"
           inkscape:connector-curvature="0" /><path
           style="fill:#983200;stroke-width:0.000357143"
           d="M 5.6117241,15.349087 C 4.8416259,15.209344 4.147544,14.835859 3.6075277,14.270631 3.1474858,13.78911 2.8312189,13.211491 2.6665223,12.552009 c -0.09081,-0.363623 -0.09081,-1.269928 0,-1.633552 C 3.069553,9.3046337 4.4139067,8.1725909 6.0411931,8.0767417 6.8891408,8.0267968 7.6997565,8.2646155 8.4041317,8.7699813 L 8.6955801,8.9790859 8.9870286,8.7699813 C 9.6914037,8.2646155 10.50202,8.0267968 11.349967,8.0767417 c 1.627288,0.095849 2.97164,1.227892 3.37467,2.8417153 0.09081,0.363624 0.09081,1.269929 0,1.633552 -0.40303,1.613825 -1.747382,2.745867 -3.37467,2.841717 -0.847947,0.04994 -1.6585633,-0.187875 -2.3629384,-0.693239 L 8.6955801,14.491381 8.404958,14.699893 c -0.8175373,0.586556 -1.8351054,0.823056 -2.7932339,0.649194 z m 1.1163367,-0.613855 c 0.8409004,-0.14664 1.5704897,-0.614066 2.0252367,-1.297508 0.2562162,-0.38507 0.4195181,-0.788288 0.4953366,-1.223064 0.073241,-0.419991 0.073241,-0.538861 0,-0.958853 C 9.1019937,10.414907 8.6345669,9.6853172 7.9511249,9.2305707 7.5660555,8.9743543 7.1628374,8.8110526 6.7280608,8.7352339 c -0.4199915,-0.073241 -0.5388612,-0.073241 -0.9588526,0 -0.8409003,0.1466404 -1.5704897,0.6140675 -2.0252366,1.2975091 -0.2562161,0.38507 -0.4195181,0.788287 -0.4953367,1.223064 -0.073241,0.419992 -0.073241,0.538862 0,0.958853 0.1089882,0.624983 0.4683592,1.314213 0.8917281,1.710225 0.4260505,0.398519 1.0344009,0.706157 1.5976372,0.807908 0.3989523,0.07207 0.5880801,0.07255 0.9900606,0.0024 z m 4.8938922,0 c 0.8409,-0.14664 1.570489,-0.614066 2.025236,-1.297508 0.256216,-0.38507 0.419517,-0.788288 0.495336,-1.223064 0.07323,-0.419991 0.07323,-0.538861 0,-0.958853 -0.146641,-0.8409 -0.614067,-1.5704898 -1.297509,-2.0252363 -0.38507,-0.2562164 -0.788287,-0.4195181 -1.223063,-0.4953368 -0.419993,-0.073241 -0.538863,-0.073241 -0.958853,0 -0.435921,0.076018 -0.8381574,0.2392282 -1.2266474,0.4977201 l -0.311786,0.2074557 0.1993037,0.3029368 c 0.4069298,0.6185225 0.5723046,1.1941055 0.5723046,1.9918865 0,0.797782 -0.1653748,1.373365 -0.5723046,1.991888 l -0.1993037,0.302936 0.311786,0.207456 c 0.3763234,0.250396 0.7910664,0.422227 1.1954384,0.49528 0.398953,0.07207 0.58808,0.07255 0.990062,0.0024 z"
           id="path819"
           inkscape:connector-curvature="0" /></g></g></g></svg>
