<?xml version="1.0" encoding="UTF-8" standalone="no"?>
<!-- Created with Inkscape (http://www.inkscape.org/) -->

<svg
   version="1.1"
   id="svg2"
   width="1600"
   height="1600"
   viewBox="0 0 1600 1600"
   sodipodi:docname="gp_fill_select.svg"
   inkscape:version="1.4 (86a8ad7, 2024-10-11)"
   xml:space="preserve"
   xmlns:inkscape="http://www.inkscape.org/namespaces/inkscape"
   xmlns:sodipodi="http://sodipodi.sourceforge.net/DTD/sodipodi-0.dtd"
   xmlns="http://www.w3.org/2000/svg"
   xmlns:svg="http://www.w3.org/2000/svg"
   xmlns:rdf="http://www.w3.org/1999/02/22-rdf-syntax-ns#"
   xmlns:cc="http://creativecommons.org/ns#"
   xmlns:dc="http://purl.org/dc/elements/1.1/"><metadata
     id="metadata8"><rdf:RDF><cc:Work
         rdf:about=""><dc:format>image/svg+xml</dc:format><dc:type
           rdf:resource="http://purl.org/dc/dcmitype/StillImage" /></cc:Work></rdf:RDF></metadata><defs
     id="defs6" /><sodipodi:namedview
     pagecolor="#808080"
     bordercolor="#666666"
     borderopacity="1"
     objecttolerance="10"
     gridtolerance="10"
     guidetolerance="10"
     inkscape:pageopacity="0"
     inkscape:pageshadow="2"
     inkscape:window-width="1009"
     inkscape:window-height="1000"
     id="namedview4"
     showgrid="false"
     inkscape:zoom="0.088388348"
     inkscape:cx="1289.7628"
     inkscape:cy="458.20519"
     inkscape:window-x="895"
     inkscape:window-y="4"
     inkscape:window-maximized="0"
     inkscape:current-layer="CURVE_FILL"
     inkscape:showpageshadow="0"
     inkscape:pagecheckerboard="true"
     inkscape:deskcolor="#d1d1d1" /><g
     id="CURVE_FILL"
     transform="matrix(100,0,0,100,0,4.9999997e-5)"
     style="stroke-width:0.0114286"
     inkscape:label="gp_fill_select"><path
       style="fill:none;stroke-width:0.000357143"
       d="M 0,8 V 0 h 8 8 v 8 8 H 8 0 Z m 4.421875,6.953145 c 0.3636512,-0.07609 0.7095447,-0.268277 0.9930237,-0.551756 0.1838397,-0.18384 0.266155,-0.245222 0.3291829,-0.24547 0.046224,-1.87e-4 0.2608784,-0.02763 0.4770103,-0.06099 2.4899362,-0.384368 4.4802271,-1.404417 5.8507221,-2.998571 1.08413,-1.2610537 1.624699,-2.8344009 1.496795,-4.3564719 C 13.493381,5.8446669 13.230825,5.0732181 12.759214,4.3616956 12.511806,3.9884297 11.891553,3.3382925 11.506094,3.0482016 10.857887,2.5603688 9.9560797,2.1605249 9.0351697,1.9526418 L 8.6860319,1.8738286 8.4289534,1.6140468 C 8.2244634,1.4074064 8.1175384,1.3275042 7.90625,1.2234447 7.1042741,0.82847138 6.2134347,0.97027759 5.5918559,1.5918561 4.8204162,2.3632957 4.8046575,3.6072659 5.5566609,4.3700712 5.6715913,4.4866522 5.8122797,4.6163128 5.8693025,4.6582059 L 5.97298,4.734375 5.8727012,5.0625 C 5.7635972,5.4195037 5.5932797,5.9843109 5.3591247,6.765625 5.2767087,7.040625 5.1500278,7.4625 5.0776112,7.703125 5.0051947,7.94375 4.8786791,8.365625 4.7964656,8.640625 4.7142519,8.915625 4.5807469,9.3585938 4.4997878,9.625 4.4188284,9.8914062 4.2919822,10.309766 4.2179072,10.554688 L 4.0832253,11 3.94005,11.000544 C 3.695765,11.001469 3.3707062,11.08704 3.0948078,11.223049 2.4401257,11.545787 2.0010852,12.259088 2.0010852,13 c 0,0.740799 0.4388058,1.4538 1.0937226,1.777154 0.43249,0.213534 0.8702025,0.271582 1.3270672,0.175991 z"
       id="path825"
       inkscape:connector-curvature="0" /><g
       id="CURVE_FILL-1"
       style="stroke-width:0.0114286"
       inkscape:label="gp_fill"
       transform="translate(-1.6)"><path
         style="fill:none;stroke-width:0.000357143"
         d="M 0,8 V 0 h 8 8 v 8 8 H 8 0 Z m 4.421875,6.953145 c 0.3636512,-0.07609 0.7095447,-0.268277 0.9930237,-0.551756 0.1838397,-0.18384 0.266155,-0.245222 0.3291829,-0.24547 0.046224,-1.87e-4 0.2608784,-0.02763 0.4770103,-0.06099 2.4899362,-0.384368 4.4802271,-1.404417 5.8507221,-2.998571 1.08413,-1.2610537 1.624699,-2.8344009 1.496795,-4.3564719 C 13.493381,5.8446669 13.230825,5.0732181 12.759214,4.3616956 12.511806,3.9884297 11.891553,3.3382925 11.506094,3.0482016 10.857887,2.5603688 9.9560797,2.1605249 9.0351697,1.9526418 L 8.6860319,1.8738286 8.4289534,1.6140468 C 8.2244634,1.4074064 8.1175384,1.3275042 7.90625,1.2234447 7.1042741,0.82847138 6.2134347,0.97027759 5.5918559,1.5918561 4.8204162,2.3632957 4.8046575,3.6072659 5.5566609,4.3700712 5.6715913,4.4866522 5.8122797,4.6163128 5.8693025,4.6582059 L 5.97298,4.734375 5.8727012,5.0625 C 5.7635972,5.4195037 5.5932797,5.9843109 5.3591247,6.765625 5.2767087,7.040625 5.1500278,7.4625 5.0776112,7.703125 5.0051947,7.94375 4.8786791,8.365625 4.7964656,8.640625 4.7142519,8.915625 4.5807469,9.3585938 4.4997878,9.625 4.4188284,9.8914062 4.2919822,10.309766 4.2179072,10.554688 L 4.0832253,11 3.94005,11.000544 C 3.695765,11.001469 3.3707062,11.08704 3.0948078,11.223049 2.4401257,11.545787 2.0010852,12.259088 2.0010852,13 c 0,0.740799 0.4388058,1.4538 1.0937226,1.777154 0.43249,0.213534 0.8702025,0.271582 1.3270672,0.175991 z"
         id="path825-4"
         inkscape:connector-curvature="0" /><path
         style="fill:#fe9832;fill-opacity:1;stroke-width:1;stroke-linecap:round;stroke-linejoin:round;paint-order:markers stroke fill"
         d="M 14.163079,2.0454508 13.139392,8.385514 10.024468,13.034257 5.442661,13.779074 3.4192497,9.0791677 4.7865752,3.8093164 9.0132585,0.97567654 Z"
         id="path1-2" /><path
         style="fill:#333333;stroke:#333333;stroke-width:1.3515;stroke-dasharray:none;stroke-opacity:1"
         d="m 6.2177024,14.468303 c 1.9340925,-0.394765 3.7624574,-1.89272 4.7806066,-3.916688 0.239965,-0.477026 0.275154,-0.6235972 0.19184,-0.7991037 -0.08751,-0.1843715 -0.247816,-0.2885362 -0.444017,-0.2885362 -0.256967,0 -0.344008,0.08682 -0.594489,0.5929759 C 9.4001241,11.575577 8.1318234,12.776549 6.7247807,13.301894 6.2037052,13.496448 5.8401575,13.554312 5.2484595,13.536876 4.6464097,13.519134 4.4277421,13.466294 3.9578248,13.224998 3.7047135,13.09503 3.5755631,12.998546 3.2400967,12.688806 2.7869595,12.270418 2.6765285,12.133727 2.5160762,11.792609 2.2987676,11.330615 2.2136169,10.854888 2.2136169,10.102805 c 0,-1.087491 0.237048,-2.1516852 0.7302522,-3.2783666 C 3.4015112,5.7789955 3.9651135,4.960964 4.7598099,4.1887206 5.165662,3.7943355 5.3028232,3.6802654 5.6456902,3.4519788 6.5393394,2.856972 7.5355982,2.5967443 8.605928,2.67875 9.2149453,2.7254109 9.7038937,2.8469184 10.333012,3.1079424 10.934597,3.3575426 11.12475,3.3673746 11.332571,3.159626 11.625279,2.8670204 11.484418,2.4559376 11.047329,2.327192 10.951584,2.2989898 10.730243,2.215938 10.555462,2.1426326 10.174152,1.9827068 9.6231711,1.820375 9.1889881,1.7400377 8.7010432,1.6497528 7.7230796,1.6569008 7.2398949,1.7542837 6.1991054,1.9640483 5.2241458,2.457769 4.3268843,3.2294358 3.645355,3.8155679 2.9708317,4.6759327 2.4276829,5.6518976 1.8446196,6.699583 1.4359727,7.9386136 1.2542327,9.2098366 c -0.061832,0.4324968 -0.051241,1.4535024 0.019112,1.8425044 0.1744149,0.964388 0.4817426,1.571309 1.110342,2.192738 0.7664482,0.757706 1.4785185,1.129849 2.4591642,1.285209 0.2935901,0.04652 0.9991284,0.0147 1.3748517,-0.06199 z"
         id="path4581-3"
         transform="matrix(1.1098713,0,0,1.1098713,1.0499848,-0.89897055)" /><path
         style="display:none;fill:#333333;stroke:#320000;stroke-width:1.3515;stroke-dasharray:none;stroke-opacity:1"
         d="M 4.6195875,14.431793 C 3.5843745,14.268095 2.8150344,13.871923 1.9920377,13.078734 1.5431231,12.646079 1.3540261,12.404767 1.136953,11.987539 0.72821226,11.201912 0.56487896,10.362975 0.60195756,9.2396092 0.67740434,6.9538081 1.6898675,4.5414911 3.3120309,2.782529 4.1176011,1.9090241 5.230327,1.1768738 6.2662954,0.83868504 7.6572339,0.3846172 9.1760322,0.45119549 10.605293,1.02889 c 0.181883,0.073515 0.427789,0.166586 0.546458,0.2068233 0.368441,0.1249286 0.633027,0.3796643 0.721151,0.6943001 0.05706,0.2037334 0.02992,0.5424326 -0.05793,0.7229256 -0.09266,0.190372 -0.285112,0.3827513 -0.475551,0.4753833 -0.18457,0.089777 -0.520009,0.1150691 -0.730769,0.055099 -0.08214,-0.02337 -0.166633,-0.038825 -0.187781,-0.034343 -0.02114,0.00448 -0.121248,-0.033104 -0.222449,-0.083522 C 9.1243424,2.5304531 7.8353386,2.427128 6.8132535,2.7942064 5.5991461,3.2302483 4.49826,4.2646606 3.6607264,5.7563764 3.0276709,6.8839003 2.6260032,8.3316406 2.6258823,9.4862895 c -4.12e-5,0.3941678 0.054537,0.9116835 0.096149,0.9116835 0.012606,0 0.029463,0.06791 0.037461,0.150895 0.016958,0.175971 0.1508248,0.489853 0.2959293,0.693874 0.055986,0.07871 0.2570967,0.286372 0.4469132,0.461454 0.2857058,0.263528 0.399997,0.34516 0.6638748,0.474167 0.1969079,0.09627 0.4123853,0.174355 0.5636971,0.204278 0.8147374,0.161123 1.7813754,-0.08172 2.6786747,-0.672943 0.9378121,-0.617917 1.6690389,-1.463187 2.1992827,-2.5422851 0.3222552,-0.6558193 0.5293119,-0.8184318 1.0421209,-0.8184318 0.334108,0 0.502101,0.064658 0.711276,0.2737596 0.212497,0.2124226 0.273856,0.3754868 0.273856,0.7277921 V 9.6532026 L 11.388078,10.14843 c -1.082606,2.170242 -3.036382,3.779687 -5.1235211,4.220561 -0.3603948,0.07613 -1.3272667,0.113041 -1.6449694,0.0628 z"
         id="path819-9-4-2"
         transform="matrix(1.1098713,0,0,1.1098713,1.0499848,-0.89897055)" /><path
         style="fill:#ffffff;fill-opacity:1;stroke:#ffffff;stroke-width:0.901006;stroke-dasharray:none;stroke-opacity:1"
         d="M 4.8428507,14.530288 C 3.862205,14.374928 3.1501347,14.002785 2.3836865,13.245079 1.7550871,12.62365 1.4477594,12.016729 1.2733445,11.052341 1.2029914,10.663339 1.1924008,9.6423334 1.2542327,9.2098366 1.4359727,7.9386136 1.8446196,6.699583 2.4276829,5.6518976 2.9708317,4.6759327 3.645355,3.8155679 4.3268843,3.2294358 5.2241458,2.457769 6.1991054,1.9640483 7.2398949,1.7542837 7.7230796,1.6569008 8.7010432,1.6497528 9.1889881,1.7400377 c 0.434183,0.080337 0.9851639,0.2426691 1.3664739,0.4025949 0.174781,0.073306 0.396122,0.1563572 0.491867,0.1845594 0.437089,0.1287456 0.57795,0.5398284 0.285242,0.8324342 C 11.12475,3.3673746 10.934597,3.3575426 10.333012,3.1079424 9.7038937,2.8469184 9.2149453,2.7254113 8.605928,2.67875 7.5355982,2.5967443 6.5393394,2.856972 5.6456902,3.4519788 5.3028232,3.6802654 5.165662,3.7943355 4.7598099,4.1887206 3.9651135,4.960964 3.4015112,5.7789955 2.9438691,6.8244384 2.4506649,7.9511198 2.2136169,9.015314 2.2136169,10.102805 c 0,0.752083 0.085151,1.22781 0.3024593,1.689804 0.1604523,0.341118 0.2708833,0.477809 0.7240205,0.896197 0.3354664,0.30974 0.4646168,0.406224 0.7177281,0.536192 0.4699173,0.241296 0.6885849,0.294136 1.2906347,0.311878 0.4356569,0.01284 0.5560321,0.0052 0.8407521,-0.05338 0.7887709,-0.162281 1.56417,-0.554903 2.2735366,-1.151201 0.7693825,-0.646748 1.3457303,-1.379819 1.7888948,-2.275341 0.250481,-0.5061557 0.337522,-0.5929758 0.594489,-0.5929758 0.196201,0 0.356497,0.1041647 0.444017,0.2885362 0.08332,0.1755065 0.04812,0.3220776 -0.19184,0.7991036 -1.0181492,2.023968 -2.8465141,3.521923 -4.7806066,3.916688 -0.3757233,0.07669 -1.0812616,0.108498 -1.3748517,0.06199 z"
         id="path821-7-2"
         transform="matrix(1.1098713,0,0,1.1098713,1.0499848,-0.89897055)" /></g><g
       id="SELECT_HANDLETYPE"
       style="stroke-width:0.01"
       inkscape:label="select"><path
         style="fill:none;stroke-width:0.0003125"
         d="M 0.00248437,9.1015625 C 0.0045762,3.2931122 0.01151824,2.2327509 0.04642,2.390625 0.19091013,3.0442095 0.70246634,3.6037794 1.3491383,3.8156144 1.6791087,3.923705 2.227799,3.9234856 2.5586158,3.81513 2.932401,3.6927012 3.4199191,3.3289141 3.559355,3.0683759 L 3.5959491,3 H 4.7979744 6 V 3.5 4 h 1.3002184 c 1.2276722,0 1.2987241,0.00305 1.2734375,0.054687 -0.01473,0.030078 -0.030913,2.3539062 -0.035964,5.1640625 -0.010155,5.6497555 -0.024638,5.2328975 0.1861253,5.3573975 0.1103209,0.06517 0.3042206,0.0709 0.3989078,0.01179 0.036174,-0.02258 0.4466537,-0.438326 0.912176,-0.923871 0.465522,-0.485548 0.855532,-0.88262 0.866689,-0.882385 0.01116,2.5e-4 0.322629,0.654788 0.69216,1.454557 0.369531,0.79977 0.701529,1.482193 0.737773,1.516496 0.104879,0.09926 0.271096,0.132459 0.397917,0.07947 0.0591,-0.0247 0.488503,-0.271595 0.954216,-0.548664 0.639025,-0.380179 0.858355,-0.5262 0.894048,-0.595224 0.107989,-0.208826 0.08817,-0.263128 -0.593329,-1.625814 -0.352344,-0.704523 -0.640625,-1.295082 -0.640625,-1.312351 0,-0.02044 0.388108,-0.0314 1.112366,-0.0314 1.218871,0 1.22559,-9.5e-4 1.336523,-0.188746 0.06928,-0.117277 0.0651,-0.335735 -0.0086,-0.451879 C 15.751252,11.026563 14.268706,9.4164063 12.489444,7.5 L 9.2544231,4.015625 9.6272116,4.0068506 10,3.9980763 V 3.4990381 3 h 1.169326 1.169326 l 0.07187,0.1171875 c 0.203344,0.3315834 0.632596,0.6612444 1.030867,0.7916931 0.330817,0.108355 0.879507,0.1085744 1.209478,4.844e-4 0.646775,-0.2118684 1.158945,-0.7722037 1.3025,-1.4249894 0.03462,-0.1574249 0.04164,0.9036378 0.04379,6.6150997 0.0023,6.1361977 -0.0022,6.8073967 -0.04641,6.8515627 C 15.906555,15.995231 15.127366,16 7.9508928,16 H 0 Z M 15.968091,1.6953125 C 15.967102,1.5663116 15.831562,1.2072469 15.714164,1.0226206 15.467825,0.63521444 15.070708,0.32189209 14.652366,0.18486937 14.321549,0.07651446 13.772859,0.07629506 13.442888,0.18438575 13.064112,0.30846412 12.679956,0.58881369 12.464442,0.8984375 L 12.371998,1.03125 H 11.185999 10 V 0.515625 0 h 3 3 v 0.890625 c 0,0.4898437 -0.007,0.890625 -0.01563,0.890625 -0.0086,0 -0.01592,-0.038672 -0.01628,-0.085937 z M 0.00248437,0.8515625 0,0 0.8515625,0.00248437 C 1.6357752,0.00477225 1.6882957,0.00824711 1.515625,0.04642 0.79674091,0.20534615 0.20534615,0.79674091 0.04642,1.515625 0.00824711,1.6882957 0.00477225,1.6357752 0.00248437,0.8515625 Z m 3.58834093,0.03125 C 3.3035959,0.45507588 2.8689163,0.15215749 2.390625,0.04642 2.2272231,0.01029619 2.4471185,0.00464944 4.1015625,0.00248437 L 6,0 V 0.515625 1.03125 H 4.8452513 3.6905025 Z"
         id="path829"
         inkscape:connector-curvature="0" /><path
         style="fill:#fefefe;stroke-width:0.0003125"
         d="m 12.755798,14.79119 c -0.01646,-0.03125 -0.334946,-0.717752 -0.707745,-1.525565 -0.756429,-1.639098 -0.756977,-1.63997 -1.031248,-1.641507 l -0.15743,-8.83e-4 -0.756957,0.77432 -0.7569558,0.77432 -8.563e-4,-3.9211647 -8.559e-4,-3.921165 0.073581,0.077415 c 0.040469,0.042578 0.965079,1.0399525 2.054687,2.2163875 1.089609,1.176435 2.210158,2.3858102 2.490109,2.6875002 l 0.509001,0.548527 -0.962126,0.01563 c -0.645338,0.01048 -0.982706,0.02754 -1.024627,0.05182 -0.128527,0.07443 -0.210353,0.19419 -0.225698,0.330338 -0.01438,0.127556 0.02973,0.226164 0.706744,1.579937 0.397143,0.79414 0.722079,1.449173 0.722079,1.455628 0,0.0065 -0.172266,0.114363 -0.382812,0.239795 -0.210547,0.125433 -0.413446,0.247731 -0.450887,0.271774 -0.06032,0.03874 -0.07148,0.03725 -0.098,-0.0131 z"
         id="path827"
         inkscape:connector-curvature="0"
         sodipodi:nodetypes="ssscccccsssccccssscss" /><path
         style="fill:#000000;stroke-width:0.0003125"
         d="m 15.924116,15.976563 c 0.01556,-0.01289 0.03878,-0.0375 0.0516,-0.05469 0.01331,-0.01783 0.02353,-0.0078 0.0238,0.02344 2.81e-4,0.0304 -0.02265,0.05469 -0.05161,0.05469 -0.02865,0 -0.03936,-0.01055 -0.0238,-0.02344 z m -3.441463,-0.13572 c -0.05251,-0.01483 -0.124645,-0.05892 -0.1603,-0.09797 -0.03566,-0.03905 -0.365338,-0.721388 -0.732627,-1.516309 -0.367289,-0.794922 -0.677106,-1.445313 -0.688482,-1.445313 -0.01138,0 -0.387674,0.383203 -0.836217,0.851563 -0.4485436,0.468359 -0.8596867,0.883203 -0.9136517,0.921875 -0.066696,0.04779 -0.14285,0.07031 -0.2377981,0.07031 -0.1205881,0 -0.1562631,-0.01658 -0.2610038,-0.121323 L 8.53125,14.382353 V 9.2707719 c 0,-3.8124972 0.00922,-5.13181 0.036266,-5.1911766 C 8.6029047,4.0019259 8.6114425,4 8.9203672,4 h 0.3165847 l 3.2643361,3.5191497 c 1.795385,1.9355322 3.281417,3.5492043 3.302292,3.5859373 0.02088,0.03673 0.03845,0.135239 0.03906,0.218902 9.87e-4,0.13571 -0.01198,0.165198 -0.120216,0.273438 L 15.6011,11.71875 h -1.128676 c -0.735184,0 -1.128677,0.01095 -1.128677,0.0314 0,0.01727 0.288281,0.607827 0.640625,1.312351 0.686659,1.372999 0.705889,1.426494 0.585938,1.630023 -0.03935,0.06677 -0.286944,0.23117 -0.882813,0.586186 -0.455469,0.271367 -0.85625,0.507569 -0.890625,0.524895 -0.104454,0.05265 -0.213819,0.06561 -0.314222,0.03724 z m 0.822035,-1.306811 c 0.210546,-0.12428 0.382812,-0.232058 0.382812,-0.239506 0,-0.0074 -0.323438,-0.660297 -0.71875,-1.450776 -0.496909,-0.993634 -0.718714,-1.468622 -0.718633,-1.538929 1.56e-4,-0.123821 0.09189,-0.281739 0.207869,-0.357811 0.07673,-0.05032 0.189718,-0.05807 1.050742,-0.07201 L 14.473501,10.859375 11.9681,8.15625 C 10.59013,6.6695313 9.4359356,5.4253906 9.4032247,5.3914931 c -0.058478,-0.060599 -0.059458,0.00411 -0.0585,3.859375 L 9.3456991,13.171875 10.102537,12.397647 10.859375,11.62342 11,11.624326 c 0.08107,5.22e-4 0.181331,0.02573 0.236744,0.05952 0.109568,0.06681 0.05332,-0.04429 0.879814,1.738027 0.334745,0.721875 0.622249,1.338067 0.638898,1.369315 0.02688,0.05045 0.0379,0.05189 0.09835,0.01281 0.03744,-0.0242 0.24034,-0.145689 0.450887,-0.269969 z m 2.671943,-6.549657 c 3.47e-4,-0.06875 0.0067,-0.093195 0.01422,-0.054323 0.0075,0.038872 0.0072,0.095122 -6.31e-4,0.125 -0.0078,0.029878 -0.01394,-0.00193 -0.01359,-0.070677 z"
         id="path819"
         inkscape:connector-curvature="0" /></g></g></svg>
