<?xml version="1.0" encoding="UTF-8" standalone="no"?>
<!-- Created with Inkscape (http://www.inkscape.org/) -->

<svg
   version="1.1"
   id="svg2"
   width="1600"
   height="1600"
   viewBox="0 0 1600 1600"
   sodipodi:docname="gp_select_strokes.svg"
   inkscape:version="1.2.2 (732a01da63, 2022-12-09)"
   xmlns:inkscape="http://www.inkscape.org/namespaces/inkscape"
   xmlns:sodipodi="http://sodipodi.sourceforge.net/DTD/sodipodi-0.dtd"
   xmlns="http://www.w3.org/2000/svg"
   xmlns:svg="http://www.w3.org/2000/svg"
   xmlns:rdf="http://www.w3.org/1999/02/22-rdf-syntax-ns#"
   xmlns:cc="http://creativecommons.org/ns#"
   xmlns:dc="http://purl.org/dc/elements/1.1/">
  <metadata
     id="metadata8">
    <rdf:RDF>
      <cc:Work
         rdf:about="">
        <dc:format>image/svg+xml</dc:format>
        <dc:type
           rdf:resource="http://purl.org/dc/dcmitype/StillImage" />
      </cc:Work>
    </rdf:RDF>
  </metadata>
  <defs
     id="defs6" />
  <sodipodi:namedview
     pagecolor="#808080"
     bordercolor="#666666"
     borderopacity="1"
     objecttolerance="10"
     gridtolerance="10"
     guidetolerance="10"
     inkscape:pageopacity="0"
     inkscape:pageshadow="2"
     inkscape:window-width="1993"
     inkscape:window-height="1009"
     id="namedview4"
     showgrid="false"
     fit-margin-top="0"
     fit-margin-left="0"
     fit-margin-right="0"
     fit-margin-bottom="0"
     inkscape:zoom="0.5"
     inkscape:cx="-101"
     inkscape:cy="82"
     inkscape:window-x="-8"
     inkscape:window-y="-8"
     inkscape:window-maximized="1"
     inkscape:current-layer="GP_SELECT_STROKES"
     inkscape:showpageshadow="0"
     inkscape:pagecheckerboard="true"
     inkscape:deskcolor="#d1d1d1" />
  <g
     id="GP_SELECT_STROKES"
     transform="matrix(100,0,0,100,0,4.9999997e-5)"
     style="stroke-width:0.0114286">
    <path
       style="fill:none;stroke-width:0.000357143"
       d="M 0,8 V 0 h 8 8 v 8 8 H 8 0 Z m 8.578125,6.657866 c 1.0998047,-0.167325 2.033974,-0.487752 2.68514,-0.921023 0.157483,-0.104785 0.396173,-0.315304 0.628646,-0.554447 0.410679,-0.422462 0.554237,-0.650427 0.741061,-1.176776 0.09254,-0.260716 0.09679,-0.295229 0.109488,-0.889117 0.01214,-0.567584 0.0077,-0.636255 -0.05503,-0.84375 C 12.559855,9.850501 12.405887,9.6047631 12.048608,9.2531815 11.869982,9.0774047 11.740269,8.9287513 11.760354,8.9228409 11.780441,8.9169308 11.972584,8.8605847 12.18734,8.7976284 13.08686,8.5339322 13.503152,8.3081 14.003293,7.8125 14.328433,7.4903122 14.380977,7.4224053 14.511072,7.15625 14.732928,6.7023697 14.757658,6.5650872 14.743999,5.8632519 14.732666,5.2809435 14.729706,5.2580153 14.628507,4.96875 14.421342,4.3765935 14.192091,4.0337479 13.669962,3.5352416 13.488513,3.3620013 13.224507,3.1433771 13.083284,3.0494102 12.486191,2.6521183 11.467677,2.2395235 10.408133,1.9657204 8.751806,1.5376993 6.2561812,1.2737617 3.8125,1.2681655 L 2.703125,1.265625 2.3907645,1.40625 C 2.1460416,1.5164245 2.0315943,1.5908591 1.8622305,1.75 1.5947725,2.001314 1.4884523,2.1650962 1.3895315,2.4781757 1.2512142,2.915943 1.2965082,3.4434081 1.5081368,3.859375 1.5892142,4.0187365 1.9463985,4.3903612 2.109375,4.48492 2.178125,4.524809 2.3609375,4.605965 2.515625,4.6652675 L 2.796875,4.77309 3.6875,4.7922935 C 5.4576881,4.8304615 7.3268369,5.0039234 8.623975,5.2504106 9.112569,5.343255 10,5.5676028 10,5.5982778 10,5.612975 9.9868848,5.625 9.9708555,5.625 9.8709111,5.625 7.0044494,6.0493553 6.671875,6.1133856 5.6366106,6.3127053 4.8789466,6.5746909 4.38622,6.9037213 4.0949635,7.0982146 3.61872,7.6082019 3.4905722,7.8628291 3.2866447,8.2680284 3.25,8.4448044 3.25,9.02336 c 0,0.5936866 0.040334,0.7825921 0.2585719,1.211015 0.1025887,0.201393 0.1916603,0.313797 0.4581166,0.578125 0.1819221,0.180469 0.4125355,0.376175 0.5124743,0.434902 0.2877554,0.169094 0.8277112,0.356564 1.3131081,0.455905 l 0.089146,0.01824 -0.1560075,0.164955 C 5.4477766,12.180062 5.3125,12.549981 5.3125,13.015625 c 0,0.495678 0.1358229,0.840741 0.4655537,1.18276 0.2419781,0.250996 0.3723291,0.333282 0.7264822,0.458602 l 0.2610891,0.09239 0.6875,-0.01247 c 0.4887828,-0.0089 0.8139563,-0.03171 1.125,-0.07904 z"
       id="path823"
       inkscape:connector-curvature="0" />
    <path
       style="fill:#febe00;stroke-width:0.000357143"
       d="M 6.6779229,14.173228 C 6.3980896,14.072503 6.2817662,13.99764 6.112415,13.80928 5.9087519,13.582758 5.8308344,13.363142 5.8308344,13.015625 c 0,-0.222262 0.015528,-0.320575 0.074036,-0.46875 0.096575,-0.244583 0.3870337,-0.542235 0.610755,-0.625881 0.085937,-0.03213 0.1950057,-0.08646 0.2423737,-0.120722 0.069482,-0.05026 0.1600597,-0.06665 0.46875,-0.0848 0.7700516,-0.04528 1.7420013,-0.226264 1.7420013,-0.324382 0,-0.02884 -0.2501672,-0.0435 -1.0234375,-0.05997 C 6.4050872,11.298313 5.9213028,11.245245 5.3062521,11.04164 4.8651122,10.895605 4.6322231,10.755658 4.3268935,10.453125 3.8988622,10.029015 3.75,9.6603193 3.75,9.0242997 3.75,8.3957428 3.8772919,8.0834506 4.3087713,7.6534347 4.6063391,7.3568763 4.8597378,7.1948094 5.296875,7.0214713 5.970049,6.7545369 6.6578682,6.6120628 8.640625,6.32885 10.568167,6.0535244 11.46875,5.8693769 11.46875,5.7505669 11.46875,5.6875506 11.321732,5.5837422 11.0131,5.4288338 9.7526753,4.7962044 6.9697737,4.3567854 3.828125,4.2943287 L 2.953125,4.2769334 2.65625,4.1636435 C 2.4014514,4.0664097 2.3324129,4.0235318 2.1691402,3.8611141 1.9122234,3.6055419 1.8308345,3.4021359 1.8308345,3.015625 c 0,-0.2192573 0.015686,-0.3208335 0.071164,-0.4608331 C 1.9942611,2.3219661 2.2364403,2.056808 2.4471848,1.9578763 2.9628417,1.7158065 2.7958588,1.7380525 3.9339222,1.7598091 c 3.6633503,0.070033 6.5076468,0.53973 8.1898188,1.3524374 0.559572,0.2703454 0.888922,0.4948338 1.254153,0.8548435 0.448459,0.4420472 0.705407,0.8776066 0.830565,1.40791 0.05718,0.2422656 0.05346,0.941099 -0.0062,1.1702406 -0.12527,0.4809438 -0.557414,1.0139381 -1.061613,1.3093659 -0.614791,0.3602273 -1.622779,0.6452813 -2.970921,0.840162 -0.3849657,0.055649 -0.4821378,0.079371 -0.4750871,0.1159828 0.00646,0.033552 0.092787,0.056565 0.3185301,0.084915 1.155315,0.1450922 1.945538,0.7053781 2.190375,1.5530277 0.04298,0.148785 0.05023,0.274611 0.03874,0.671875 -0.01576,0.544752 -0.06026,0.721018 -0.294613,1.166989 -0.155451,0.295822 -0.617343,0.780043 -0.964259,1.010874 -0.832742,0.554087 -2.1534907,0.904978 -3.53026,0.937904 -0.5360969,0.01282 -0.5724841,0.0099 -0.7752021,-0.06311 z"
       id="path821"
       inkscape:connector-curvature="0" />
    <path
       style="fill:#000000;stroke-width:0.000357143"
       d="M 6.5045359,14.656987 C 6.1503828,14.531667 6.0200318,14.449381 5.7780537,14.198385 5.4483229,13.856366 5.3125,13.511303 5.3125,13.015625 c 0,-0.465644 0.1352766,-0.835563 0.4129094,-1.129119 l 0.1560075,-0.164955 -0.089146,-0.01824 C 5.306874,11.603966 4.7669182,11.416496 4.4791628,11.247402 4.379224,11.188675 4.1486106,10.992969 3.9666885,10.8125 3.7002322,10.548172 3.6111606,10.435768 3.5085719,10.234375 3.2903344,9.8059521 3.25,9.6170466 3.25,9.02336 3.25,8.4448044 3.2866447,8.2680284 3.4905722,7.8628291 3.61872,7.6082019 4.0949635,7.0982146 4.38622,6.9037213 4.8789466,6.5746909 5.6366106,6.3127053 6.671875,6.1133856 7.0044494,6.0493553 9.8709111,5.625 9.9708555,5.625 9.9868848,5.625 10,5.612975 10,5.5982778 10,5.5676028 9.112569,5.343255 8.623975,5.2504106 7.3268369,5.0039234 5.4576881,4.8304615 3.6875,4.7922935 L 2.796875,4.77309 2.515625,4.6652675 C 2.3609375,4.605965 2.178125,4.5248088 2.109375,4.48492 1.9463985,4.3903612 1.5892142,4.0187365 1.5081368,3.859375 1.2965082,3.4434081 1.2512142,2.915943 1.3895315,2.4781757 1.4884523,2.1650962 1.5947725,2.001314 1.8622305,1.75 2.0315943,1.5908591 2.1460416,1.5164245 2.3907645,1.40625 L 2.703125,1.265625 3.8125,1.268166 c 2.4436812,0.0056 4.939306,0.2695338 6.595633,0.6975549 1.059544,0.2738031 2.078058,0.6863979 2.675151,1.0836897 0.141223,0.093967 0.405229,0.3125911 0.586678,0.4858314 0.522129,0.4985062 0.75138,0.8413518 0.958545,1.4335085 0.101199,0.2892652 0.104159,0.3121933 0.115492,0.8945018 0.01366,0.7018353 -0.01107,0.8391178 -0.232927,1.2929982 -0.130095,0.2661553 -0.182639,0.3340621 -0.507779,0.65625 -0.500141,0.4956 -0.916433,0.7214321 -1.815953,0.9851284 -0.214756,0.062956 -0.406899,0.1193019 -0.426986,0.1252125 -0.02008,0.00591 0.109628,0.1545638 0.288254,0.3303406 0.357279,0.3515816 0.511247,0.597319 0.638821,1.019571 0.06269,0.207495 0.06717,0.276166 0.05503,0.84375 -0.0127,0.593888 -0.01695,0.628401 -0.109488,0.889117 -0.186824,0.526349 -0.330382,0.754314 -0.741061,1.176776 -0.546075,0.561745 -0.99663,0.838461 -1.829411,1.123566 -0.8227894,0.281684 -1.6175859,0.412945 -2.609375,0.43094 l -0.6875,0.01247 z M 8.453125,14.157094 c 1.0712841,-0.161095 1.909274,-0.445473 2.53026,-0.858662 0.346916,-0.230831 0.808808,-0.715052 0.964259,-1.010874 0.234351,-0.445971 0.27885,-0.622237 0.294613,-1.166989 0.01605,-0.554746 -0.01196,-0.702811 -0.20143,-1.06469 C 11.881605,9.7517725 11.497747,9.3916021 11.153211,9.2230388 10.828483,9.0641666 10.419333,8.9466781 10.013147,8.8956666 9.7874043,8.8673162 9.7010784,8.8443031 9.6946169,8.8107513 9.6875661,8.77414 9.7847383,8.7504172 10.169704,8.6947685 11.517846,8.4998878 12.525834,8.2148338 13.140625,7.8546065 13.644824,7.5591787 14.076968,7.0261844 14.202238,6.5452406 14.261922,6.316099 14.265637,5.6172656 14.208459,5.375 14.083301,4.8446966 13.826353,4.4091372 13.377894,3.96709 13.012663,3.6070803 12.683313,3.3825919 12.123741,3.1122465 10.441569,2.2995391 7.5972725,1.8298421 3.9339222,1.7598091 2.7958588,1.7380525 2.9628417,1.7158065 2.4471848,1.9578763 2.2364403,2.056808 1.9942611,2.3219661 1.9019984,2.5547919 1.8465203,2.6947915 1.8308345,2.7963677 1.8308345,3.015625 c 0,0.3865109 0.081389,0.5899169 0.3383057,0.8454891 0.1632727,0.1624177 0.2323112,0.2052956 0.4871098,0.3025294 l 0.296875,0.1132899 0.875,0.017395 c 3.1416487,0.062457 5.9245503,0.5018757 7.184975,1.1345051 0.308632,0.1549084 0.45565,0.2587168 0.45565,0.3217331 0,0.11881 -0.900583,0.3029575 -2.828125,0.5782831 C 6.6578682,6.6120628 5.970049,6.7545369 5.296875,7.0214713 4.8597378,7.1948094 4.6063391,7.3568763 4.3087713,7.6534347 3.8772919,8.0834506 3.75,8.3957428 3.75,9.0242997 c 0,0.6360196 0.1488622,1.0047153 0.5768935,1.4288253 0.3053296,0.302533 0.5382187,0.44248 0.9793586,0.588515 0.6150507,0.203605 1.0988351,0.256673 2.6390604,0.289481 0.7732703,0.01647 1.0234375,0.03113 1.0234375,0.05997 0,0.09812 -0.9719497,0.279106 -1.7420013,0.324382 -0.3086903,0.01815 -0.399268,0.03453 -0.46875,0.0848 -0.047368,0.03427 -0.1564362,0.08859 -0.2423737,0.120722 -0.2237213,0.08365 -0.5141797,0.381298 -0.610755,0.625881 -0.058508,0.148175 -0.074036,0.246488 -0.074036,0.46875 0,0.347517 0.077918,0.567133 0.2815806,0.793655 0.1693512,0.18836 0.2856746,0.263223 0.5655079,0.363948 0.202718,0.07297 0.2391052,0.07593 0.7752021,0.06311 0.3436068,-0.0082 0.7327503,-0.03905 1,-0.07924 z"
       id="path819"
       inkscape:connector-curvature="0" />
  </g>
</svg>
