<?xml version="1.0" encoding="UTF-8" standalone="no"?>
<!-- Created with Inkscape (http://www.inkscape.org/) -->

<svg
   xmlns:dc="http://purl.org/dc/elements/1.1/"
   xmlns:cc="http://creativecommons.org/ns#"
   xmlns:rdf="http://www.w3.org/1999/02/22-rdf-syntax-ns#"
   xmlns:svg="http://www.w3.org/2000/svg"
   xmlns="http://www.w3.org/2000/svg"
   xmlns:sodipodi="http://sodipodi.sourceforge.net/DTD/sodipodi-0.dtd"
   xmlns:inkscape="http://www.inkscape.org/namespaces/inkscape"
   version="1.1"
   id="svg2"
   width="16"
   height="16"
   viewBox="0 0 16 16"
   sodipodi:docname="GRIDFILL.svg"
   inkscape:version="0.92.4 (5da689c313, 2019-01-14)">
  <metadata
     id="metadata8">
    <rdf:RDF>
      <cc:Work
         rdf:about="">
        <dc:format>image/svg+xml</dc:format>
        <dc:type
           rdf:resource="http://purl.org/dc/dcmitype/StillImage" />
        <dc:title></dc:title>
      </cc:Work>
    </rdf:RDF>
  </metadata>
  <defs
     id="defs6" />
  <sodipodi:namedview
     pagecolor="#ffffff"
     bordercolor="#666666"
     borderopacity="1"
     objecttolerance="10"
     gridtolerance="10"
     guidetolerance="10"
     inkscape:pageopacity="0"
     inkscape:pageshadow="2"
     inkscape:window-width="828"
     inkscape:window-height="480"
     id="namedview4"
     showgrid="false"
     inkscape:zoom="14.75"
     inkscape:cx="8"
     inkscape:cy="8"
     inkscape:window-x="0"
     inkscape:window-y="0"
     inkscape:window-maximized="0"
     inkscape:current-layer="svg2" />
  <g
     id="GRIDFILL">
    <path
       style="fill:#ffffff;stroke-width:0.03125"
       d="M 0,8 V 0 h 8 8 v 8 8 H 8 0 Z M 14,7.5 V 1 H 7.5 1 V 7.5 14 H 7.5 14 Z"
       id="path827"
       inkscape:connector-curvature="0" />
    <path
       style="fill:#98cbfe;stroke-width:0.03125"
       d="M 2,11.5 V 10 H 3.5 5 V 11.5 13 H 3.5 2 Z m 4,0 V 10 H 7.5 9 V 11.5 13 H 7.5 6 Z m 4,0 V 10 H 11.5 13 V 11.5 13 H 11.5 10 Z M 2,3.5 V 2 H 3.5 5 V 3.5 5 H 3.5 2 Z m 4,0 V 2 H 7.5 9 V 3.5 5 H 7.5 6 Z m 4,0 V 2 H 11.5 13 V 3.5 5 H 11.5 10 Z"
       id="path825"
       inkscape:connector-curvature="0" />
    <path
       style="fill:#fecb00;stroke-width:0.03125"
       d="M 2,7.5 V 6 H 3.5 5 V 7.5 9 H 3.5 2 Z m 4,0 V 6 H 7.5 9 V 7.5 9 H 7.5 6 Z m 4,0 V 6 H 11.5 13 V 7.5 9 H 11.5 10 Z"
       id="path823"
       inkscape:connector-curvature="0" />
    <path
       style="fill:#fe0000;stroke-width:0.03125"
       d="M 1,7.5 V 5 H 7.5 14 V 7.5 10 H 7.5 1 Z m 12,0 V 6 H 7.5 2 V 7.5 9 H 7.5 13 Z"
       id="path821"
       inkscape:connector-curvature="0" />
    <path
       style="fill:#323232;stroke-width:0.03125"
       d="M 1,12 V 10 H 1.5 2 V 11.5 13 H 3.5 5 V 11.5 10 H 5.5 6 V 11.5 13 H 7.5 9 V 11.5 10 H 9.5 10 V 11.5 13 H 11.5 13 V 11.5 10 h 0.5 0.5 v 2 2 H 7.5 1 Z M 5,7.5 V 6 H 5.5 6 V 7.5 9 H 5.5 5 Z m 4,0 V 6 H 9.5 10 V 7.5 9 H 9.5 9 Z M 1,3 V 1 H 7.5 14 V 3 5 H 13.5 13 V 3.5 2 H 11.5 10 V 3.5 5 H 9.5 9 V 3.5 2 H 7.5 6 V 3.5 5 H 5.5 5 V 3.5 2 H 3.5 2 V 3.5 5 H 1.5 1 Z"
       id="path819"
       inkscape:connector-curvature="0" />
  </g>
</svg>
