<?xml version="1.0" encoding="UTF-8" standalone="no"?>
<!-- Created with Inkscape (http://www.inkscape.org/) -->

<svg
   version="1.1"
   id="svg2"
   width="1600"
   height="1600"
   viewBox="0 0 1600 1600"
   sodipodi:docname="group_bright.svg"
   inkscape:version="1.2.2 (732a01da63, 2022-12-09)"
   xmlns:inkscape="http://www.inkscape.org/namespaces/inkscape"
   xmlns:sodipodi="http://sodipodi.sourceforge.net/DTD/sodipodi-0.dtd"
   xmlns="http://www.w3.org/2000/svg"
   xmlns:svg="http://www.w3.org/2000/svg"
   xmlns:rdf="http://www.w3.org/1999/02/22-rdf-syntax-ns#"
   xmlns:cc="http://creativecommons.org/ns#"
   xmlns:dc="http://purl.org/dc/elements/1.1/">
  <metadata
     id="metadata8">
    <rdf:RDF>
      <cc:Work
         rdf:about="">
        <dc:format>image/svg+xml</dc:format>
        <dc:type
           rdf:resource="http://purl.org/dc/dcmitype/StillImage" />
      </cc:Work>
    </rdf:RDF>
  </metadata>
  <defs
     id="defs6" />
  <sodipodi:namedview
     pagecolor="#808080"
     bordercolor="#666666"
     borderopacity="1"
     objecttolerance="10"
     gridtolerance="10"
     guidetolerance="10"
     inkscape:pageopacity="0"
     inkscape:pageshadow="2"
     inkscape:window-width="2560"
     inkscape:window-height="1009"
     id="namedview4"
     showgrid="true"
     inkscape:snap-global="true"
     inkscape:zoom="0.35355339"
     inkscape:cx="1640.4877"
     inkscape:cy="758.01847"
     inkscape:window-x="-8"
     inkscape:window-y="-8"
     inkscape:window-maximized="1"
     inkscape:current-layer="GROUP_BRIGHT"
     inkscape:showpageshadow="0"
     inkscape:pagecheckerboard="true"
     inkscape:deskcolor="#d1d1d1">
    <inkscape:grid
       type="xygrid"
       id="grid29557"
       spacingx="100"
       spacingy="100" />
  </sodipodi:namedview>
  <g
     id="GROUP_BRIGHT"
     transform="matrix(100,0,0,100,0,-5.2254)"
     style="stroke-width:0.0114286">
    <path
       style="fill:#000000;fill-opacity:0.5;stroke:none;stroke-width:0.417241;stroke-dasharray:none;stroke-opacity:1"
       d="m 12.484376,3.052254 v -2 H 6.4999993 0.51562501 v 2 2 H 6.4999993 12.484376 Z"
       id="path26838" />
    <path
       style="fill:none;stroke-width:0.000357143"
       d="m 0,8.052254 v -8 h 8 8 v 8 8 H 8 0 Z m 11.269219,6.419944 c 0.04747,-0.03543 0.115289,-0.103263 0.150725,-0.150724 0.06426,-0.08606 0.06445,-0.09798 0.07256,-4.4250009 l 0.0082,-4.3387066 0.341247,-0.010568 c 0.368721,-0.01142 0.438344,-0.038608 0.57805,-0.2257287 0.06363,-0.085234 0.06443,-0.1132294 0.06443,-2.269215 0,-2.15598574 -7.94e-4,-2.18398153 -0.06443,-2.26921503 -0.03547,-0.0474643 -0.103298,-0.11529239 -0.150762,-0.15072936 l -0.0863,-0.0644309 H 6.5 0.81708316 L 0.730785,0.63230991 c -0.047464,0.035437 -0.11529212,0.10326506 -0.15072909,0.15072906 -0.063636,0.0852335 -0.0644309,0.11322929 -0.0644309,2.26921503 0,2.1559856 7.9499e-4,2.1839816 0.0644309,2.269215 0.13973306,0.1871572 0.20929793,0.2143081 0.57837369,0.2257375 L 1.5,5.5577839 v 4.292076 c 0,2.9642651 0.010311,4.3192911 0.033331,4.3800481 0.04433,0.117 0.148539,0.227081 0.2635434,0.278395 0.07717,0.03443 0.9154412,0.04064 4.7399,0.03508 4.6386136,-0.0068 4.6462896,-0.0069 4.7324436,-0.07119 z"
       id="path3723"
       inkscape:connector-curvature="0" />
    <path
       style="fill:#000000;stroke-width:0.000357143"
       d="M 2.0000001,9.8022541 2,6.052254 H 6.4999999 11 l 0,3.7500001 V 14.052254 H 6.5 2.0000001 Z M 8.3810897,8.9643628 C 8.5683479,8.8721265 8.7573725,8.6831019 8.8496088,8.4958437 8.9536429,8.284634 8.9536429,7.851124 8.8496088,7.6399144 8.7573725,7.4526562 8.5683479,7.2636316 8.3810897,7.1713953 L 8.234375,7.099129 H 6.4843751 4.734375 L 4.5876603,7.1713953 C 4.3998085,7.2639241 4.210855,7.4532319 4.1200185,7.6399144 4.0336236,7.8174681 4.0069297,8.1506519 4.0630425,8.3510674 4.1393035,8.623445 4.4013507,8.902265 4.6769441,9.0042631 c 0.099008,0.036643 0.4197831,0.043339 1.8386806,0.038377 l 1.71875,-0.00601 z"
       id="path3721"
       inkscape:connector-curvature="0"
       sodipodi:nodetypes="cccccccccsssscccssssscs" />
    <path
       id="path26834"
       style="fill:#ffffff;fill-opacity:1;stroke:none;stroke-width:0.4;stroke-dasharray:none;stroke-opacity:1"
       d="m 2,6.052254 v 3.75 5.25 H 6.5 11 v -5.25 -3.75 H 6.5 Z m 2.734375,1.046875 h 1.75 1.75 l 0.1467187,0.072266 c 0.1872579,0.092236 0.3762798,0.2812576 0.4685157,0.4685156 0.1040339,0.2112094 0.1040339,0.6447281 0,0.8559375 -0.09224,0.1872581 -0.2812578,0.3762795 -0.4685157,0.4685157 L 8.234375,9.036629 6.515625,9.0426446 C 5.0967289,9.0476046 4.7759605,9.0409114 4.6769531,9.0042657 4.40136,8.9022677 4.1393078,8.6234399 4.0630469,8.3510626 4.0069338,8.1506473 4.0336249,7.8174638 4.1200195,7.6399102 4.2108559,7.4532279 4.3998046,7.2639232 4.5876563,7.1713946 Z"
       sodipodi:nodetypes="ccccccccccccsscccccsscc" />
    <path
       style="fill:#000000;stroke-width:0.000357143"
       d="M 21.183418,11.806538 V 7.5565384 h 4.5 4.5 v 4.2499996 4.25 h -4.5 -4.5 z m 6.38109,-0.837891 c 0.187258,-0.09224 0.376283,-0.281261 0.468519,-0.468519 0.104034,-0.21121 0.104034,-0.6447196 0,-0.8559292 C 27.940787,9.4569406 27.751766,9.267916 27.564508,9.1756797 l -0.146715,-0.072266 h -1.75 -1.75 l -0.146715,0.072266 c -0.187852,0.092529 -0.376805,0.2818366 -0.467642,0.4685191 -0.08639,0.1775537 -0.113088,0.5107372 -0.05697,0.7111532 0.07626,0.272377 0.338308,0.551197 0.613901,0.653195 0.09901,0.03664 0.419783,0.04334 1.838681,0.03838 l 1.71875,-0.006 z"
       id="path3721-4"
       inkscape:connector-curvature="0" />
    <path
       style="fill:#b3b3b3;stroke-width:0.000357143"
       d="m 20.183418,5.0565384 v -2 h 5.5 5.500001 v 2 2 h -5.500001 -5.5 z"
       id="path3719-0"
       inkscape:connector-curvature="0" />
    <path
       style="fill:#ff2a2a;fill-opacity:1;stroke:none;stroke-width:0.4;stroke-dasharray:none;stroke-opacity:1"
       d="M 20.980293,16.512587 C 20.865289,16.461277 20.76108,16.351192 20.71675,16.234192 20.69373,16.173442 20.68342,14.818409 20.68342,11.854144 V 7.5620681 l -0.34157,-0.010577 c -0.369076,-0.011429 -0.438641,-0.03858 -0.578374,-0.2257375 -0.06364,-0.085233 -0.06443,-0.1132294 -0.06443,-2.269215 0,-2.1559857 7.95e-4,-2.1839815 0.06443,-2.269215 0.03544,-0.047464 0.103265,-0.1152921 0.150729,-0.1507291 l 0.0863,-0.064431 h 5.682917 5.682917 l 0.0863,0.064431 c 0.04746,0.035437 0.115292,0.1032651 0.150729,0.1507291 0.06363,0.085233 0.06443,0.1132293 0.06443,2.269215 0,2.1559856 -7.95e-4,2.1839816 -0.06443,2.269215 -0.139706,0.1871209 -0.209329,0.2143091 -0.57805,0.2257287 l -0.341251,0.010568 -0.0082,4.3387069 c -0.0081,4.327021 -0.0083,4.33894 -0.07256,4.425001 -0.03543,0.04746 -0.103263,0.115287 -0.150725,0.150724 -0.08616,0.06433 -0.09383,0.06444 -4.732444,0.07119 -3.824459,0.0056 -4.66273,-6.46e-4 -4.7399,-0.03508 z m 9.203125,-4.706049 V 7.5565384 h -4.5 -4.5 v 4.2499996 4.25 h 4.5 4.5 z m -6.323056,-0.797991 c -0.275593,-0.101998 -0.53764,-0.380818 -0.613901,-0.653195 -0.05611,-0.200416 -0.02942,-0.5335995 0.05697,-0.7111532 0.09084,-0.1866825 0.27979,-0.3759904 0.467642,-0.4685191 l 0.146715,-0.072266 h 1.75 1.75 l 0.146715,0.072266 c 0.187258,0.092236 0.376283,0.2812609 0.468519,0.4685191 0.104033,0.2112096 0.104033,0.6447192 0,0.8559292 -0.09224,0.187258 -0.281261,0.376283 -0.468519,0.468519 l -0.146715,0.07227 -1.71875,0.006 c -1.418898,0.005 -1.739673,-0.0017 -1.838681,-0.03838 z M 31.18342,5.0565384 v -2 h -5.500002 -5.5 v 2 2 h 5.5 5.500002 z"
       id="path3717-7-6"
       inkscape:connector-curvature="0" />
  </g>
</svg>
