<?xml version="1.0" encoding="UTF-8" standalone="no"?>
<!-- Created with Inkscape (http://www.inkscape.org/) -->

<svg
   version="1.1"
   id="svg2"
   width="1600"
   height="1600"
   viewBox="0 0 1600 1600"
   sodipodi:docname="group_vertex.svg"
   inkscape:version="1.2.2 (732a01da63, 2022-12-09)"
   xmlns:inkscape="http://www.inkscape.org/namespaces/inkscape"
   xmlns:sodipodi="http://sodipodi.sourceforge.net/DTD/sodipodi-0.dtd"
   xmlns="http://www.w3.org/2000/svg"
   xmlns:svg="http://www.w3.org/2000/svg"
   xmlns:rdf="http://www.w3.org/1999/02/22-rdf-syntax-ns#"
   xmlns:cc="http://creativecommons.org/ns#"
   xmlns:dc="http://purl.org/dc/elements/1.1/">
  <metadata
     id="metadata8">
    <rdf:RDF>
      <cc:Work
         rdf:about="">
        <dc:format>image/svg+xml</dc:format>
        <dc:type
           rdf:resource="http://purl.org/dc/dcmitype/StillImage" />
      </cc:Work>
    </rdf:RDF>
  </metadata>
  <defs
     id="defs6" />
  <sodipodi:namedview
     pagecolor="#808080"
     bordercolor="#666666"
     borderopacity="1"
     objecttolerance="10"
     gridtolerance="10"
     guidetolerance="10"
     inkscape:pageopacity="0"
     inkscape:pageshadow="2"
     inkscape:window-width="1993"
     inkscape:window-height="1009"
     id="namedview4"
     showgrid="false"
     inkscape:zoom="0.5"
     inkscape:cx="547"
     inkscape:cy="378"
     inkscape:window-x="-8"
     inkscape:window-y="-8"
     inkscape:window-maximized="1"
     inkscape:current-layer="GROUP_VERTEX"
     inkscape:showpageshadow="0"
     inkscape:pagecheckerboard="true"
     inkscape:deskcolor="#d1d1d1" />
  <g
     id="GROUP_VERTEX"
     transform="matrix(100,0,0,100,0,4.9999997e-5)"
     style="stroke-width:0.0114286">
    <path
       style="fill:none;stroke-width:0.000357143"
       d="M 0,8 V 0 L 3.4140625,0.00149176 C 6.5585997,0.00286575 6.8170366,0.00686301 6.6876684,0.05212479 6.3767372,0.16090967 6.1508141,0.39191778 6.0480309,0.70615962 6.0039112,0.84104725 5.9983937,1.0209571 6.0063978,2.0636402 l 0.00923,1.2019848 0.077379,0.15625 c 0.098656,0.1992131 0.2859075,0.3864647 0.4851206,0.4851206 l 0.15625,0.077379 H 8 9.265625 l 0.15625,-0.077379 C 9.6210881,3.8083397 9.8083397,3.6210881 9.9069956,3.421875 l 0.077379,-0.15625 0.00923,-1.2019848 c 0.008,-1.0426831 0.00249,-1.22259295 -0.041633,-1.35748058 C 9.8491859,0.39191778 9.6232628,0.16090967 9.3123316,0.05212479 9.1829634,0.00686301 9.4414003,0.00286575 12.585938,0.00149176 L 16,0 v 8 8 L 12.585938,15.9985 C 9.4414003,15.9971 9.1829634,15.9931 9.3123316,15.94787 c 0.3109312,-0.108785 0.5368543,-0.339794 0.6396375,-0.654035 0.04412,-0.134888 0.049637,-0.314798 0.041633,-1.357481 l -0.00923,-1.201986 -0.077379,-0.15625 C 9.8083397,12.378912 9.6210881,12.19166 9.421875,12.093004 l -0.15625,-0.07738 H 8 6.734375 l -0.15625,0.07738 c -0.1992131,0.09866 -0.3864647,0.285908 -0.4851206,0.485121 l -0.077379,0.15625 -0.00923,1.201985 c -0.008,1.042683 -0.00249,1.222593 0.041633,1.35748 0.1027832,0.314242 0.3287063,0.54525 0.6396375,0.654035 0.1293682,0.04526 -0.1290687,0.04926 -3.2736059,0.05063 L 0,16 Z m 4.421875,4.906996 c 0.1992131,-0.09866 0.3864647,-0.285908 0.4851206,-0.485121 l 0.077379,-0.15625 V 11 9.734375 L 4.9069956,9.578125 C 4.8083397,9.3789119 4.6210881,9.1916603 4.421875,9.0930044 L 4.265625,9.015625 H 3 1.734375 L 1.578125,9.093004 C 1.3789118,9.1916603 1.1916604,9.3789119 1.0930044,9.578125 l -0.077379,0.15625 -0.00923,1.201985 c -0.008004,1.042683 -0.00249,1.222593 0.041633,1.35748 0.1026553,0.313851 0.3274482,0.543951 0.6396375,0.654738 0.1208199,0.04288 0.3108455,0.04886 1.3592066,0.04282 l 1.21875,-0.007 z m 10,0 c 0.199213,-0.09866 0.386465,-0.285908 0.485121,-0.485121 l 0.07738,-0.15625 V 11 9.734375 l -0.07738,-0.15625 C 14.80834,9.3789119 14.621088,9.1916603 14.421875,9.0930044 L 14.265625,9.015625 H 13 11.734375 l -0.15625,0.077379 C 11.378912,9.19166 11.19166,9.3789119 11.093004,9.578125 l -0.07738,0.15625 -0.0092,1.201985 c -0.008,1.042683 -0.0025,1.222593 0.04163,1.35748 0.102655,0.313851 0.327448,0.543951 0.639637,0.654738 0.12082,0.04288 0.310846,0.04886 1.359207,0.04282 l 1.21875,-0.007 z m -5,-3.0000004 C 9.6210881,9.8083397 9.8083397,9.6210881 9.9069956,9.421875 L 9.984375,9.265625 V 8 6.734375 L 9.9069956,6.578125 C 9.8083397,6.3789119 9.6210881,6.1916603 9.421875,6.0930044 L 9.265625,6.015625 H 8 6.734375 L 6.578125,6.093004 C 6.3789119,6.1916603 6.1916603,6.3789119 6.0930044,6.578125 l -0.077379,0.15625 -0.00923,1.2019847 c -0.008,1.0426831 -0.00249,1.2225931 0.041633,1.3574806 0.1026553,0.3138506 0.3274482,0.5439503 0.6396375,0.6547378 0.1208197,0.042876 0.3108457,0.048862 1.3592066,0.042821 l 1.21875,-0.00702 z m -5,-3 C 4.6210881,6.8083397 4.8083397,6.6210881 4.9069956,6.421875 L 4.984375,6.265625 V 5 3.734375 L 4.9069956,3.578125 C 4.8083397,3.3789119 4.6210881,3.1916603 4.421875,3.0930044 L 4.265625,3.015625 H 3 1.734375 L 1.578125,3.093004 C 1.3789118,3.1916603 1.1916604,3.3789119 1.0930044,3.578125 l -0.077379,0.15625 -0.00923,1.2019847 c -0.008004,1.0426831 -0.00249,1.2225931 0.041633,1.3574806 0.1026553,0.3138506 0.3274482,0.5439503 0.6396375,0.6547378 0.1208199,0.042876 0.3108455,0.048863 1.3592066,0.042821 l 1.21875,-0.00702 z m 10,0 C 14.621088,6.8083397 14.80834,6.6210881 14.906996,6.421875 l 0.07738,-0.15625 V 5 3.734375 l -0.07738,-0.15625 C 14.80834,3.3789119 14.621088,3.1916603 14.421875,3.0930044 L 14.265625,3.015625 H 13 11.734375 l -0.15625,0.077379 C 11.378912,3.19166 11.19166,3.3789119 11.093004,3.578125 l -0.07738,0.15625 -0.0092,1.2019847 c -0.008,1.0426831 -0.0025,1.2225931 0.04163,1.3574806 0.102655,0.3138506 0.327448,0.5439503 0.639637,0.6547378 0.12082,0.042876 0.310846,0.048863 1.359207,0.042821 l 1.21875,-0.00702 z"
       id="path825"
       inkscape:connector-curvature="0" />
    <path
       style="fill:#fefefe;stroke-width:0.000357143"
       d="m 7,14 v -1 h 1 1 v 1 1 H 8 7 Z M 2,11 v -1 h 1 1 v 1 1 H 3 2 Z m 10,0 v -1 h 1 1 v 1 1 H 13 12 Z M 7,8 V 7 H 8 9 V 8 9 H 8 7 Z M 2,5 V 4 H 3 4 V 5 6 H 3 2 Z M 12,5 V 4 h 1 1 V 5 6 H 13 12 Z M 7,2 V 1 H 8 9 V 2 3 H 8 7 Z"
       id="path823"
       inkscape:connector-curvature="0" />
    <path
       style="fill:#656565;stroke-width:0.000357143"
       d="m 11.687668,12.948578 c -0.312189,-0.110787 -0.536982,-0.340887 -0.639637,-0.654738 -0.04412,-0.134887 -0.04964,-0.314797 -0.04163,-1.35748 l 0.0092,-1.201985 0.07738,-0.15625 c 0.09866,-0.1992131 0.285908,-0.3864647 0.485121,-0.4851206 l 0.15625,-0.077379 H 13 14.265625 l 0.15625,0.077379 c 0.199213,0.098656 0.386465,0.2859075 0.485121,0.4851206 l 0.07738,0.15625 V 11 12.265625 l -0.07738,0.15625 c -0.09866,0.199213 -0.285908,0.386465 -0.485121,0.485121 l -0.15625,0.07738 -1.21875,0.007 c -1.048361,0.006 -1.238387,6.2e-5 -1.359207,-0.04282 z M 14,11 v -1 h -1 -1 v 1 1 h 1 1 z M 11.687668,6.9485781 C 11.375479,6.8377906 11.150686,6.6076909 11.048031,6.2938403 11.003911,6.1589528 10.998394,5.9790428 11.006398,4.9363597 l 0.0092,-1.2019847 0.07738,-0.15625 c 0.09866,-0.1992131 0.285908,-0.3864647 0.485121,-0.4851206 l 0.15625,-0.077379 H 13 14.265625 l 0.15625,0.077379 c 0.199213,0.098656 0.386465,0.2859075 0.485121,0.4851206 l 0.07738,0.15625 V 5 6.265625 l -0.07738,0.15625 c -0.09866,0.1992131 -0.285908,0.3864647 -0.485121,0.4851206 l -0.15625,0.077379 -1.21875,0.00702 c -1.048361,0.00604 -1.238387,6.26e-5 -1.359207,-0.042821 z M 14,5 V 4 h -1 -1 v 1 1 h 1 1 z M 6.6876684,3.9485781 C 6.3754791,3.8377906 6.1506862,3.6076909 6.0480309,3.2938403 6.0039112,3.1589528 5.9983937,2.9790429 6.0063978,1.9363598 L 6.015625,0.734375 6.0930044,0.578125 C 6.1916603,0.37891184 6.3789119,0.19166038 6.578125,0.0930044 L 6.734375,0.015625 H 8 9.265625 l 0.15625,0.0773794 C 9.6210881,0.19166038 9.8083397,0.37891184 9.9069956,0.578125 l 0.077379,0.15625 V 2 3.265625 l -0.077379,0.15625 C 9.8083397,3.6210881 9.6210881,3.8083397 9.421875,3.9069956 l -0.15625,0.077379 -1.21875,0.00702 c -1.0483609,0.00604 -1.2383869,6.25e-5 -1.3592066,-0.042821 z M 9,2 V 1 H 8 7 v 1 1 h 1 1 z"
       id="path821"
       inkscape:connector-curvature="0" />
    <path
       style="fill:#323232;stroke-width:0.000357143"
       d="M 6.6876684,15.948578 C 6.3754791,15.837791 6.1506862,15.607691 6.0480309,15.29384 6.0039112,15.158953 5.9983937,14.979043 6.0063978,13.93636 l 0.00923,-1.201985 0.077379,-0.15625 C 6.1916603,12.378912 6.3789119,12.19166 6.578125,12.093004 l 0.15625,-0.07738 H 8 9.265625 l 0.15625,0.07738 c 0.1992131,0.09866 0.3864647,0.285908 0.4851206,0.485121 l 0.077379,0.15625 V 14 15.265625 l -0.077379,0.15625 C 9.8083397,15.621088 9.6210881,15.80834 9.421875,15.906996 l -0.15625,0.07738 -1.21875,0.007 c -1.0483609,0.006 -1.2383869,6.2e-5 -1.3592066,-0.04282 z M 9,14 V 13 H 8 7 v 1 1 H 8 9 Z M 1.6876684,12.948578 C 1.3754791,12.837791 1.1506862,12.607691 1.0480309,12.29384 1.0039113,12.158953 0.99839366,11.979043 1.0063979,10.93636 l 0.00923,-1.201985 0.077379,-0.15625 C 1.1916604,9.3789119 1.3789118,9.1916603 1.578125,9.0930044 L 1.734375,9.015625 H 3 4.265625 l 0.15625,0.077379 C 4.6210881,9.19166 4.8083397,9.3789115 4.9069956,9.5781246 l 0.077379,0.15625 V 11 12.265625 l -0.077379,0.15625 C 4.8083397,12.621088 4.6210881,12.80834 4.421875,12.906996 l -0.15625,0.07738 -1.21875,0.007 c -1.0483611,0.006 -1.2383867,6.2e-5 -1.3592066,-0.04282 z M 4,11 V 10 H 3 2 v 1 1 H 3 4 Z M 6.6876684,9.9485781 C 6.3754791,9.8377906 6.1506862,9.6076909 6.0480309,9.2938403 6.0039112,9.1589528 5.9983937,8.9790428 6.0063978,7.9363597 L 6.015625,6.734375 6.0930044,6.578125 C 6.1916603,6.3789119 6.3789119,6.1916603 6.578125,6.0930044 L 6.734375,6.015625 H 8 9.265625 l 0.15625,0.077379 C 9.6210881,6.19166 9.8083397,6.3789115 9.9069956,6.5781246 l 0.077379,0.15625 V 8 9.265625 l -0.077379,0.15625 C 9.8083397,9.6210881 9.6210881,9.8083397 9.421875,9.9069956 l -0.15625,0.077379 -1.21875,0.00702 c -1.0483609,0.00604 -1.2383869,6.25e-5 -1.3592066,-0.042821 z M 9,8 V 7 H 8 7 V 8 9 H 8 9 Z M 1.6876684,6.9485781 C 1.3754791,6.8377906 1.1506862,6.6076909 1.0480309,6.2938403 1.0039113,6.1589528 0.99839366,5.9790428 1.0063979,4.9363597 L 1.015625,3.734375 1.0930044,3.578125 C 1.1916604,3.3789119 1.3789118,3.1916603 1.578125,3.0930044 L 1.734375,3.015625 H 3 4.265625 l 0.15625,0.077379 C 4.6210881,3.19166 4.8083397,3.3789115 4.9069956,3.5781246 l 0.077379,0.15625 V 5 6.265625 l -0.077379,0.15625 C 4.8083397,6.6210881 4.6210881,6.8083397 4.421875,6.9069956 l -0.15625,0.077379 -1.21875,0.00702 c -1.0483611,0.00604 -1.2383867,6.26e-5 -1.3592066,-0.042821 z M 4,5 V 4 H 3 2 v 1 1 h 1 1 z"
       id="path819"
       inkscape:connector-curvature="0" />
  </g>
</svg>
