<?xml version="1.0" encoding="UTF-8" standalone="no"?>
<!-- Created with Inkscape (http://www.inkscape.org/) -->

<svg
   version="1.1"
   id="svg2"
   width="1600"
   height="1600"
   viewBox="0 0 1600 1600"
   sodipodi:docname="groupoutput.svg"
   inkscape:version="1.2.2 (732a01da63, 2022-12-09)"
   xmlns:inkscape="http://www.inkscape.org/namespaces/inkscape"
   xmlns:sodipodi="http://sodipodi.sourceforge.net/DTD/sodipodi-0.dtd"
   xmlns="http://www.w3.org/2000/svg"
   xmlns:svg="http://www.w3.org/2000/svg"
   xmlns:rdf="http://www.w3.org/1999/02/22-rdf-syntax-ns#"
   xmlns:cc="http://creativecommons.org/ns#"
   xmlns:dc="http://purl.org/dc/elements/1.1/">
  <metadata
     id="metadata8">
    <rdf:RDF>
      <cc:Work
         rdf:about="">
        <dc:format>image/svg+xml</dc:format>
        <dc:type
           rdf:resource="http://purl.org/dc/dcmitype/StillImage" />
      </cc:Work>
    </rdf:RDF>
  </metadata>
  <defs
     id="defs6" />
  <sodipodi:namedview
     pagecolor="#808080"
     bordercolor="#666666"
     borderopacity="1"
     objecttolerance="10"
     gridtolerance="10"
     guidetolerance="10"
     inkscape:pageopacity="0"
     inkscape:pageshadow="2"
     inkscape:window-width="1993"
     inkscape:window-height="1009"
     id="namedview4"
     showgrid="false"
     inkscape:zoom="0.5"
     inkscape:cx="549"
     inkscape:cy="534"
     inkscape:window-x="-8"
     inkscape:window-y="-8"
     inkscape:window-maximized="1"
     inkscape:current-layer="GROUPOUTPUT"
     inkscape:showpageshadow="0"
     inkscape:pagecheckerboard="true"
     inkscape:deskcolor="#d1d1d1" />
  <g
     id="GROUPOUTPUT"
     transform="matrix(100,0,0,100,0,4.9999997e-5)"
     style="stroke-width:0.0114286">
    <path
       style="fill:none;stroke-width:0.000357143"
       d="M 0,8 V 0 h 8 8 v 8 8 H 8 0 Z M 12.507741,5.5157697 10.015625,3.015625 10.007513,4.5078125 9.9993997,6 H 8.9997 8 v 2 2 h 1 1 v 1.507739 1.507739 l 2.499928,-2.499781 2.499929,-2.4997823 z M 4.8103978,10.908288 C 5.8413622,10.606808 6.6123309,9.8313741 6.9129147,8.7935947 6.9752406,8.5784119 6.984375,8.4769709 6.984375,8 6.984375,7.5230291 6.975245,7.4215881 6.912915,7.2064053 6.6103506,6.1617884 5.8382116,5.3896494 4.7935947,5.0870853 4.5784119,5.0247594 4.4769709,5.015625 4,5.015625 c -0.4769709,0 -0.5784119,0.00913 -0.7935947,0.07146 C 2.1617885,5.3896491 1.3896495,6.1617881 1.0870853,7.206405 1.0247594,7.4215881 1.015625,7.5230291 1.015625,8 c 0,0.4769709 0.00913,0.5784119 0.07146,0.7935947 0.3205196,1.1066087 1.1723594,1.9106943 2.2879147,2.1596533 0.3123275,0.0697 1.1309772,0.04406 1.4353981,-0.04496 z"
       id="path827"
       inkscape:connector-curvature="0" />
    <path
       style="fill:#fefefe;stroke-width:0.000357143"
       d="M 10,11.507739 V 10 H 9 8 V 8 6 h 0.9997 0.9996997 l 0.00811,-1.4921875 0.0081,-1.4921875 2.492116,2.5001447 2.492116,2.500145 L 12.499928,10.515697 10,13.015478 Z"
       id="path825"
       inkscape:connector-curvature="0" />
    <path
       style="fill:#fefe00;stroke-width:0.000357143"
       d="M 3.5023497,10.467898 C 3.2677128,10.418682 3.0573695,10.341337 2.796875,10.208488 2.4437474,10.028397 1.9729129,9.5580194 1.7905368,9.203125 1.5620187,8.7584409 1.515625,8.5554034 1.515625,8 1.515625,7.4445966 1.562019,7.2415591 1.7905368,6.796875 1.9722876,6.4431975 2.4431977,5.9722875 2.796875,5.7905369 3.2415591,5.5620187 3.4445966,5.515625 4,5.515625 c 0.5554034,0 0.7584409,0.046394 1.203125,0.2749119 C 5.5568025,5.9722875 6.0277125,6.4431975 6.2094631,6.796875 6.4379812,7.2415591 6.484375,7.4445966 6.484375,8 c 0,0.5554034 -0.046394,0.7584409 -0.2749119,1.203125 -0.1818869,0.3539425 -0.6527809,0.824737 -1.0063381,1.006126 -0.4190266,0.214977 -0.625185,0.265823 -1.125,0.277462 -0.240625,0.0056 -0.4997241,-0.0029 -0.5757753,-0.01882 z M 4.421875,9.9531453 C 5.3214828,9.7649184 5.9989147,8.9259269 5.9989147,8 5.9989147,6.9092425 5.0907575,6.0010853 4,6.0010853 2.9092424,6.0010853 2.0010852,6.9092425 2.0010852,8 c 0,0.7407994 0.4388058,1.4538003 1.0937226,1.7771538 0.43249,0.2135343 0.8702025,0.2715822 1.3270672,0.1759915 z"
       id="path823"
       inkscape:connector-curvature="0" />
    <path
       style="fill:#fea900;stroke-width:0.000357143"
       d="M 3.5625,9.9514053 C 2.8323192,9.7945809 2.2007041,9.1571794 2.0468548,8.421875 1.7497342,7.0018228 3.0018229,5.7497344 4.421875,6.0468547 5.1647875,6.2022959 5.7977041,6.8352125 5.9531453,7.578125 6.2513347,9.0032863 4.9878991,10.257545 3.5625,9.9514053 Z"
       id="path821"
       inkscape:connector-curvature="0" />
    <path
       style="fill:#323232;stroke-width:0.000357143"
       d="M 3.375,10.953248 C 2.2594447,10.704289 1.4076049,9.9002034 1.0870853,8.7935947 1.0247594,8.5784119 1.015625,8.4769709 1.015625,8 c 0,-0.4769709 0.00913,-0.5784119 0.07146,-0.7935947 C 1.3896492,6.1617884 2.1617882,5.3896494 3.206405,5.0870853 3.4215881,5.0247594 3.5230291,5.015625 4,5.015625 c 0.4769709,0 0.5784119,0.00913 0.7935947,0.07146 1.0446169,0.3025641 1.8167559,1.0747031 2.11932,2.11932 0.062326,0.2151831 0.07146,0.3166241 0.07146,0.793595 0,0.4769709 -0.00913,0.5784119 -0.07146,0.7935947 C 6.6123309,9.8313741 5.8413622,10.606808 4.8103978,10.908288 4.5059772,10.997309 3.6873275,11.022951 3.375,10.953248 Z m 1.359375,-0.54623 C 5.1639862,10.270511 5.4259397,10.108177 5.7670581,9.7670581 6.1124716,9.4216447 6.2733859,9.1597462 6.4111553,8.71875 6.4747184,8.5152856 6.484375,8.4204931 6.484375,8 6.484375,7.4445966 6.4379812,7.2415591 6.2094631,6.796875 6.0277125,6.4431975 5.5568025,5.9722875 5.203125,5.7905369 4.7584409,5.5620187 4.5554034,5.515625 4,5.515625 3.4445966,5.515625 3.2415591,5.562019 2.796875,5.7905369 2.4431977,5.9722875 1.9722876,6.4431975 1.7905368,6.796875 1.5620187,7.2415591 1.515625,7.4445966 1.515625,8 c 0,0.5554034 0.046394,0.7584409 0.2749118,1.203125 0.1823761,0.3548944 0.6532106,0.825272 1.0063382,1.005363 0.4753194,0.242406 0.7023494,0.291706 1.28125,0.278225 0.3453037,-0.008 0.4835981,-0.02483 0.65625,-0.07969 z"
       id="path819"
       inkscape:connector-curvature="0" />
  </g>
</svg>
