<?xml version="1.0" encoding="UTF-8" standalone="no"?>
<!-- Created with Inkscape (http://www.inkscape.org/) -->

<svg
   version="1.1"
   id="svg2"
   width="1600"
   height="1600"
   viewBox="0 0 1600 1600"
   sodipodi:docname="groundgrid.svg"
   inkscape:version="1.2.2 (732a01da63, 2022-12-09)"
   xmlns:inkscape="http://www.inkscape.org/namespaces/inkscape"
   xmlns:sodipodi="http://sodipodi.sourceforge.net/DTD/sodipodi-0.dtd"
   xmlns="http://www.w3.org/2000/svg"
   xmlns:svg="http://www.w3.org/2000/svg"
   xmlns:rdf="http://www.w3.org/1999/02/22-rdf-syntax-ns#"
   xmlns:cc="http://creativecommons.org/ns#"
   xmlns:dc="http://purl.org/dc/elements/1.1/">
  <metadata
     id="metadata8">
    <rdf:RDF>
      <cc:Work
         rdf:about="">
        <dc:format>image/svg+xml</dc:format>
        <dc:type
           rdf:resource="http://purl.org/dc/dcmitype/StillImage" />
      </cc:Work>
    </rdf:RDF>
  </metadata>
  <defs
     id="defs6" />
  <sodipodi:namedview
     pagecolor="#808080"
     bordercolor="#666666"
     borderopacity="1"
     objecttolerance="10"
     gridtolerance="10"
     guidetolerance="10"
     inkscape:pageopacity="0"
     inkscape:pageshadow="2"
     inkscape:window-width="1993"
     inkscape:window-height="1009"
     id="namedview4"
     showgrid="false"
     inkscape:zoom="0.5"
     inkscape:cx="469"
     inkscape:cy="386"
     inkscape:window-x="-8"
     inkscape:window-y="-8"
     inkscape:window-maximized="1"
     inkscape:current-layer="GROUNDGRID"
     inkscape:showpageshadow="0"
     inkscape:pagecheckerboard="true"
     inkscape:deskcolor="#d1d1d1" />
  <g
     id="GROUNDGRID"
     transform="matrix(100,0,0,100,0,4.9999997e-5)"
     style="stroke-width:0.0114286">
    <path
       style="fill:none;stroke-width:0.000357143"
       d="M 0,14 V 12 H 1.5 3 V 13.5 15 H 3.5 4 V 13.5 12 H 5.5 7 V 13.5 15 H 7.5 8 V 13.5 12 H 9.5 11 V 13.5 15 H 11.5 12 V 13.5 12 H 13.5 15 V 11.5 11 H 13.5 12 V 9.5 8 H 13.5 15 V 7.5 7 H 13.5 12 V 5.5 4 H 13.5 15 V 3.5 3 H 13.5 12 V 1.5 0 h 2 2 v 8 8 H 8 0 Z M 0,9.5 V 8 H 1.5 3 V 9.5 11 H 1.5 0 Z m 4,0 V 8 H 5.5 7 V 9.5 11 H 5.5 4 Z m 4,0 V 8 H 9.5 11 V 9.5 11 H 9.5 8 Z M 0,5.5 V 4 H 1.5 3 V 5.5 7 H 1.5 0 Z m 4,0 V 4 H 5.5 7 V 5.5 7 H 5.5 4 Z m 4,0 V 4 H 9.5 11 V 5.5 7 H 9.5 8 Z M 0,1.5 V 0 H 1.5 3 V 1.5 3 H 1.5 0 Z m 4,0 V 0 H 5.5 7 V 1.5 3 H 5.5 4 Z m 4,0 V 0 H 9.5 11 V 1.5 3 H 9.5 8 Z"
       id="path825"
       inkscape:connector-curvature="0" />
    <path
       style="fill:#fefefe;stroke-width:0.000357143"
       d="M 3,13.5 V 12 H 1.5 0 V 11.5 11 H 1.5 3 V 9.5 8 H 3.5 4 V 9.5 11 H 5.5 7 V 11.5 12 H 5.5 4 V 13.5 15 H 3.5 3 Z m 8,0 V 12 H 9.5 8 V 11.5 11 H 9.5 11 V 9.5 8 H 11.5 12 V 9.5 11 H 13.5 15 V 11.5 12 H 13.5 12 V 13.5 15 H 11.5 11 Z M 3,5.5 V 4 H 1.5 0 V 3.5 3 H 1.5 3 V 1.5 0 H 3.5 4 V 1.5 3 H 5.5 7 V 3.5 4 H 5.5 4 V 5.5 7 H 3.5 3 Z m 8,0 V 4 H 9.5 8 V 3.5 3 H 9.5 11 V 1.5 0 H 11.5 12 V 1.5 3 H 13.5 15 V 3.5 4 H 13.5 12 V 5.5 7 H 11.5 11 Z"
       id="path823"
       inkscape:connector-curvature="0" />
    <path
       style="fill:#65fe00;stroke-width:0.000357143"
       d="M 0,7.5 V 7 H 7.5 15 V 7.5 8 H 7.5 0 Z"
       id="path821"
       inkscape:connector-curvature="0" />
    <path
       style="fill:#fe0032;stroke-width:0.000357143"
       d="M 7,11.5 V 8 H 7.5 8 V 11.5 15 H 7.5 7 Z m 0,-8 V 0 H 7.5 8 V 3.5 7 H 7.5 7 Z"
       id="path819"
       inkscape:connector-curvature="0" />
  </g>
</svg>
