<?xml version="1.0" encoding="UTF-8" standalone="no"?>
<!-- Created with Inkscape (http://www.inkscape.org/) -->

<svg
   version="1.1"
   id="svg2"
   width="1600"
   height="1600"
   viewBox="0 0 1600 1600"
   sodipodi:docname="hair_data.svg"
   inkscape:version="1.2.2 (732a01da63, 2022-12-09)"
   xmlns:inkscape="http://www.inkscape.org/namespaces/inkscape"
   xmlns:sodipodi="http://sodipodi.sourceforge.net/DTD/sodipodi-0.dtd"
   xmlns="http://www.w3.org/2000/svg"
   xmlns:svg="http://www.w3.org/2000/svg"
   xmlns:rdf="http://www.w3.org/1999/02/22-rdf-syntax-ns#"
   xmlns:cc="http://creativecommons.org/ns#"
   xmlns:dc="http://purl.org/dc/elements/1.1/">
  <metadata
     id="metadata8">
    <rdf:RDF>
      <cc:Work
         rdf:about="">
        <dc:format>image/svg+xml</dc:format>
        <dc:type
           rdf:resource="http://purl.org/dc/dcmitype/StillImage" />
      </cc:Work>
    </rdf:RDF>
  </metadata>
  <defs
     id="defs6" />
  <sodipodi:namedview
     pagecolor="#808080"
     bordercolor="#666666"
     borderopacity="1"
     objecttolerance="10"
     gridtolerance="10"
     guidetolerance="10"
     inkscape:pageopacity="0"
     inkscape:pageshadow="2"
     inkscape:window-width="2560"
     inkscape:window-height="1009"
     id="namedview4"
     showgrid="false"
     inkscape:zoom="0.5"
     inkscape:cx="1074"
     inkscape:cy="794"
     inkscape:window-x="-8"
     inkscape:window-y="-8"
     inkscape:window-maximized="1"
     inkscape:current-layer="OUTLINER_OB_HAIR"
     inkscape:showpageshadow="0"
     inkscape:pagecheckerboard="true"
     inkscape:deskcolor="#d1d1d1" />
  <g
     id="OUTLINER_OB_HAIR"
     transform="matrix(100,0,0,100,0,4.9999997e-5)"
     style="stroke-width:0.0114286">
    <path
       style="fill:none;stroke-width:0.000357143"
       d="M 0,8 V 0 h 8 8 v 8 8 H 8 0 Z m 2.843264,6.453297 C 3.0175306,14.391812 3.2022903,14.253444 3.3152803,14.099802 3.4958656,13.854244 3.50421,13.797006 3.5325631,12.609375 3.6099584,9.3675025 4.0287019,7.1863706 4.9375325,5.2912381 5.2778075,4.5816819 5.6440041,3.9903253 6.1811425,3.28298 6.4497991,2.9291926 6.5110788,2.7681322 6.4948094,2.4585746 6.4807544,2.1911495 6.3964528,1.9975558 6.2150734,1.8161765 6.0093775,1.6104803 5.8441772,1.546875 5.515625,1.546875 5.203245,1.546875 5.0437725,1.60278 4.8496337,1.7803441 4.7927137,1.8324048 4.7334619,1.875 4.7179631,1.875 4.6750472,1.875 4.2528997,2.4446697 3.9254831,2.9444169 2.550593,5.0429597 1.8339199,7.4411394 1.5741815,10.8125 c -0.07031,0.91261 -0.079801,2.754994 -0.015335,2.976912 0.08251,0.284033 0.3404327,0.560358 0.618098,0.662197 0.1599724,0.05867 0.5023474,0.05954 0.6663195,0.0017 z m 4.0000001,0 c 0.2714662,-0.09578 0.5144918,-0.339242 0.6106309,-0.611729 0.026016,-0.07374 0.06802,-0.381146 0.093342,-0.68313 C 7.7634306,10.580194 8.2380628,8.9295434 9.1697856,7.515625 9.5958819,6.8690103 10.221046,6.1423703 10.824567,5.5922416 11.409818,5.0587663 11.51684,4.8777466 11.494809,4.4585747 11.467454,3.9380816 11.093269,3.5638022 10.57292,3.5364531 10.32688,3.5235213 10.170755,3.5608497 9.9928575,3.6751419 9.9287728,3.7163138 9.8580356,3.75 9.8356634,3.75 9.7721959,3.75 8.8789216,4.6209544 8.4933409,5.0587819 7.2919578,6.422955 6.5597119,7.7781666 6.0798166,9.5256363 5.6814144,10.976359 5.4011756,13.368638 5.5744912,13.83938 c 0.1000888,0.271852 0.3404829,0.516147 0.6024532,0.612229 0.1599725,0.05867 0.5023475,0.05954 0.6663197,0.0017 z m 3.9999999,0 c 0.270778,-0.09554 0.514492,-0.339243 0.610021,-0.610001 0.02568,-0.07279 0.0607,-0.345039 0.07783,-0.605006 0.04964,-0.753679 0.177791,-1.252724 0.482486,-1.878915 0.398062,-0.818075 1.001701,-1.4571987 1.744318,-1.8468578 0.369534,-0.1938984 0.544357,-0.3459347 0.654195,-0.5689275 0.0593,-0.1203925 0.07227,-0.1971741 0.07227,-0.4279647 0,-0.3285522 -0.06361,-0.4937525 -0.269302,-0.6994484 C 14.011212,7.6123066 13.842809,7.5465084 13.531259,7.548995 13.138562,7.552125 13.071073,7.568803 12.73176,7.7465203 11.049148,8.6277962 9.8098968,10.512937 9.545294,12.59375 9.484162,13.07449 9.49774,13.616656 9.57649,13.83938 c 0.095019,0.268737 0.3372132,0.515677 0.600463,0.612229 0.159973,0.05867 0.502348,0.05954 0.66632,0.0017 z"
       id="path823"
       inkscape:connector-curvature="0" />
    <path
       style="fill:#ffffff;stroke-width:0.000357143"
       d="M 2.3181133,13.949189 C 2.1477063,13.862352 2.0620167,13.720046 2.0252198,13.462777 1.9836431,13.17209 2.0122857,11.769305 2.07742,10.90625 2.3257223,7.6161456 3.0239156,5.2695387 4.3623697,3.2266016 4.7567531,2.624638 4.9394762,2.3888277 5.1484609,2.2121243 5.4208084,1.9818459 5.6310978,1.9748479 5.8451887,2.1889388 5.9731512,2.3169013 6.0204253,2.4608642 5.9859806,2.6176901 5.9749484,2.6679194 5.8654809,2.8412843 5.7427197,3.0029455 4.7985775,4.2462631 4.1826213,5.4708912 3.7503144,6.9641937 3.3028756,8.5097656 3.0856498,10.184453 3.0341996,12.485031 c -0.021368,0.955481 -0.031601,1.109422 -0.08061,1.212701 -0.1172641,0.247116 -0.413762,0.36444 -0.6354763,0.251457 z m 4.0000001,0 C 6.1436612,13.86029 6.0585087,13.71707 6.030975,13.466244 6.0176,13.344401 6.0120481,13.193167 6.0186375,13.130168 c 0.00659,-0.063 0.034165,-0.339543 0.061278,-0.614543 C 6.2511344,10.77902 6.5812628,9.3638894 7.0943731,8.1670453 7.5044087,7.2106259 8.1262125,6.2536984 8.9327747,5.3378294 9.3310106,4.8856234 9.9628306,4.2787278 10.125,4.1926356 c 0.06016,-0.031936 0.151562,-0.081226 0.203125,-0.1095328 0.357871,-0.1964672 0.802191,0.2422053 0.624532,0.6165941 -0.03048,0.064224 -0.237397,0.287305 -0.470464,0.5072056 -1.4428146,1.36131 -2.2478889,2.5774078 -2.7759752,4.1932225 -0.3285603,1.005315 -0.5334644,2.136565 -0.6597466,3.64238 -0.030693,0.365997 -0.064399,0.595204 -0.097912,0.665827 -0.1123641,0.23679 -0.4130225,0.351654 -0.6304458,0.240857 z m 3.9999996,0 c -0.286527,-0.146011 -0.3642814,-0.493115 -0.273426,-1.220603 0.156302,-1.251519 0.631932,-2.349802 1.435992,-3.3158719 0.633852,-0.761566 1.674394,-1.4375566 2.108163,-1.3695735 0.235632,0.03693 0.43279,0.2944313 0.401881,0.5248807 -0.02593,0.1933596 -0.143346,0.3140571 -0.465928,0.4789693 -0.394986,0.2019272 -0.700453,0.4330578 -1.07167,0.8108757 -0.392584,0.3995647 -0.658272,0.7720057 -0.892786,1.2515087 -0.333338,0.681565 -0.478443,1.232685 -0.529744,2.01201 -0.02117,0.321609 -0.04845,0.516163 -0.08239,0.587702 -0.112016,0.236055 -0.412977,0.35074 -0.630089,0.240102 z"
       id="path821"
       inkscape:connector-curvature="0" />
    <path
       style="fill:#333333;stroke-width:0.000357143"
       d="M 2.1769445,14.451609 C 1.8992792,14.34977 1.6413564,14.073445 1.5588465,13.789412 1.4943809,13.567494 1.5038716,11.72511 1.5741815,10.8125 1.8339199,7.4411394 2.550593,5.0429597 3.9254831,2.9444169 4.2528997,2.4446697 4.6750472,1.875 4.7179631,1.875 4.7334621,1.875 4.7927141,1.832405 4.8496337,1.780344 5.0437725,1.6027795 5.203245,1.546875 5.515625,1.546875 c 0.3285522,0 0.4937525,0.063605 0.6994484,0.2693015 0.1813794,0.1813793 0.265681,0.374973 0.279736,0.6423981 0.016269,0.3095576 -0.04501,0.470618 -0.3136669,0.8244054 -0.5371384,0.7073453 -0.903335,1.2987019 -1.24361,2.0082581 -0.9088306,1.8951325 -1.3275741,4.0762644 -1.4049694,7.3181369 -0.028353,1.187631 -0.036697,1.244869 -0.2172828,1.490427 -0.11299,0.153642 -0.2977497,0.29201 -0.4720163,0.353495 -0.1639721,0.05785 -0.5063471,0.05699 -0.6663195,-0.0017 z M 2.7922778,13.89625 C 3.0006681,13.737303 3.0070228,13.700234 3.0341996,12.485031 3.0856498,10.184453 3.3028756,8.5097656 3.7503144,6.9641937 4.1826212,5.4708912 4.7985775,4.2462631 5.7427197,3.0029455 5.8654809,2.8412843 5.9749484,2.6679194 5.9859806,2.6176901 6.0204253,2.4608642 5.9731512,2.3169013 5.8451887,2.1889388 5.6310978,1.9748479 5.4208084,1.9818459 5.1484609,2.2121243 4.7315491,2.5646366 3.9109853,3.8530759 3.4426141,4.890625 c -0.8904993,1.9726578 -1.3660952,4.4639028 -1.4318021,7.5 -0.020878,0.964713 0.00408,1.244184 0.1253078,1.403121 0.1662772,0.218001 0.4471979,0.261886 0.656158,0.102504 z m 3.3846666,0.555359 C 5.9149741,14.355527 5.67458,14.111232 5.5744912,13.83938 5.4011756,13.368638 5.6814144,10.976359 6.0798166,9.5256363 6.5597119,7.7781666 7.2919578,6.422955 8.4933409,5.0587819 8.8789216,4.6209544 9.7721959,3.75 9.8356634,3.75 9.8580354,3.75 9.9287724,3.716314 9.9928575,3.675142 10.170755,3.5608497 10.32688,3.5235213 10.57292,3.5364531 c 0.520349,0.027349 0.894534,0.4016285 0.921889,0.9221216 0.02203,0.4191719 -0.08499,0.6001915 -0.670242,1.1336669 -0.603521,0.5501287 -1.2286851,1.2767687 -1.6547814,1.9233834 -0.9317228,1.4139184 -1.406355,3.064569 -1.6225481,5.642813 -0.025322,0.301984 -0.067327,0.609393 -0.093342,0.68313 -0.096139,0.272487 -0.3391647,0.51595 -0.6106309,0.611729 -0.1639722,0.05785 -0.5063472,0.05699 -0.6663197,-0.0017 z M 6.7922778,13.89625 C 6.9621347,13.766694 6.9949941,13.656331 7.0464712,13.042505 7.3594344,9.3106691 8.2250366,7.3365525 10.482193,5.2069025 10.71526,4.9870019 10.922181,4.7639206 10.952657,4.6996969 11.130316,4.3253081 10.685996,3.8866356 10.328125,4.0831028 10.276563,4.11141 10.185156,4.1606997 10.125,4.1926356 9.9628306,4.2787278 9.3310106,4.8856234 8.9327747,5.3378294 8.1262125,6.2536984 7.5044088,7.2106259 7.0943731,8.1670453 6.5812628,9.3638894 6.2511344,10.77902 6.0799156,12.515625 c -0.027113,0.275 -0.054688,0.551544 -0.061278,0.614543 -0.024237,0.231719 0.031867,0.551331 0.116185,0.661877 0.1675716,0.219698 0.4478041,0.264114 0.6574552,0.104205 z m 3.3846662,0.555359 C 9.9136938,14.355057 9.6714991,14.108117 9.5764806,13.83938 9.4977306,13.616656 9.4841525,13.07449 9.545285,12.59375 9.8098878,10.512937 11.049139,8.6277963 12.731751,7.7465203 13.071064,7.5688031 13.138553,7.5521291 13.53125,7.548995 c 0.31155,-0.00249 0.479953,0.063312 0.683823,0.2671816 0.205697,0.2056959 0.269302,0.3708962 0.269302,0.6994484 0,0.2307906 -0.01296,0.3075722 -0.07227,0.4279647 -0.109838,0.2229928 -0.284661,0.3750291 -0.654195,0.5689275 -0.742617,0.3896591 -1.346257,1.0287828 -1.744318,1.8468578 -0.304695,0.626191 -0.432844,1.125236 -0.482486,1.878915 -0.01712,0.259967 -0.05214,0.532219 -0.07783,0.605006 -0.09553,0.270758 -0.339243,0.514465 -0.610021,0.610001 -0.163972,0.05785 -0.506347,0.05699 -0.66632,-0.0017 z m 0.615334,-0.555359 c 0.168599,-0.128597 0.203176,-0.241019 0.238317,-0.774865 0.0513,-0.779325 0.196406,-1.330445 0.529744,-2.01201 0.234514,-0.479503 0.500202,-0.851944 0.892786,-1.2515087 0.371218,-0.3778179 0.676684,-0.6089485 1.07167,-0.8108757 0.322582,-0.1649122 0.439993,-0.2856097 0.465928,-0.4789693 0.03091,-0.2304494 -0.166249,-0.487951 -0.40188,-0.5248807 -0.43377,-0.067983 -1.474312,0.6080075 -2.108164,1.3695735 -0.80406,0.9660699 -1.27969,2.0643529 -1.435991,3.3158719 -0.090856,0.727488 -0.0131,1.074592 0.273425,1.220603 0.140754,0.07173 0.339865,0.0495 0.474165,-0.05294 z"
       id="path819"
       inkscape:connector-curvature="0" />
  </g>
</svg>
