<?xml version="1.0" encoding="UTF-8" standalone="no"?>
<!-- Created with Inkscape (http://www.inkscape.org/) -->

<svg
   version="1.1"
   id="svg2"
   width="1600"
   height="1600"
   viewBox="0 0 1600 1600"
   sodipodi:docname="handle_auto.svg"
   inkscape:version="1.2.2 (732a01da63, 2022-12-09)"
   xmlns:inkscape="http://www.inkscape.org/namespaces/inkscape"
   xmlns:sodipodi="http://sodipodi.sourceforge.net/DTD/sodipodi-0.dtd"
   xmlns="http://www.w3.org/2000/svg"
   xmlns:svg="http://www.w3.org/2000/svg"
   xmlns:rdf="http://www.w3.org/1999/02/22-rdf-syntax-ns#"
   xmlns:cc="http://creativecommons.org/ns#"
   xmlns:dc="http://purl.org/dc/elements/1.1/">
  <metadata
     id="metadata8">
    <rdf:RDF>
      <cc:Work
         rdf:about="">
        <dc:format>image/svg+xml</dc:format>
        <dc:type
           rdf:resource="http://purl.org/dc/dcmitype/StillImage" />
      </cc:Work>
    </rdf:RDF>
  </metadata>
  <defs
     id="defs6" />
  <sodipodi:namedview
     pagecolor="#808080"
     bordercolor="#666666"
     borderopacity="1"
     objecttolerance="10"
     gridtolerance="10"
     guidetolerance="10"
     inkscape:pageopacity="0"
     inkscape:pageshadow="2"
     inkscape:window-width="1993"
     inkscape:window-height="1009"
     id="namedview4"
     showgrid="false"
     inkscape:zoom="0.5"
     inkscape:cx="383"
     inkscape:cy="440"
     inkscape:window-x="-8"
     inkscape:window-y="-8"
     inkscape:window-maximized="1"
     inkscape:current-layer="HANDLE_AUTO"
     inkscape:showpageshadow="0"
     inkscape:pagecheckerboard="true"
     inkscape:deskcolor="#d1d1d1" />
  <g
     id="HANDLE_AUTO"
     transform="matrix(100,0,0,100,0,4.9999997e-5)"
     style="stroke-width:0.0114286">
    <path
       style="fill:none;stroke-width:0.000357143"
       d="M 0,8 V 0 h 8 8 v 8 8 H 8 0 Z m 8.6801166,7.835079 c 0.5732856,-0.19981 1.0418981,-0.674696 1.228764,-1.245213 0.1085924,-0.331542 0.1085924,-0.87944 0,-1.210982 C 9.7197578,12.801476 9.22923,12.311346 8.6508619,12.121886 8.3208913,12.013795 7.7722009,12.014014 7.4413841,12.12237 c -0.5774085,0.189123 -1.0675382,0.679651 -1.2569985,1.258019 -0.1078534,0.329246 -0.1078534,0.878727 0,1.207974 0.2115207,0.645712 0.7636969,1.151309 1.4249894,1.304781 0.2895253,0.06719 0.7890831,0.0401 1.0707416,-0.05806 z M 10,9.48521 V 8.97042 l 2.132813,-0.00865 2.132812,-0.00865 0.159338,-0.072128 c 0.198945,-0.090057 0.394022,-0.2864297 0.487137,-0.4903716 0.10051,-0.2201384 0.10051,-0.5923616 0,-0.8125 C 14.81898,7.3741831 14.623908,7.1778106 14.424963,7.0877534 L 14.265625,7.015625 12.132813,7.0069775 10,6.99833 V 6.499165 6 H 8 6 V 6.51479 7.02958 L 3.8671875,7.03823 1.734375,7.04688 1.578125,7.118688 C 1.3733703,7.212782 1.1772856,7.408075 1.0885457,7.6062869 c -0.10031173,0.224059 -0.10031173,0.5946172 0,0.8186762 0.08874,0.1982119 0.2848246,0.3935053 0.4895793,0.4876044 l 0.15625,0.071808 2.1328125,0.00865 L 6,9.00167 V 9.500835 10 h 2 2 z M 8.6801166,3.8663288 C 9.2534022,3.6665194 9.7220147,3.1916334 9.9088806,2.6211158 10.017473,2.289574 10.017473,1.741676 9.9088806,1.4101342 9.7197578,0.83272566 9.22923,0.34259578 8.6508619,0.15313575 8.3208913,0.04504506 7.7722009,0.04526446 7.4413841,0.15361937 6.8639756,0.34274231 6.3738459,0.83327006 6.1843856,1.4116383 c -0.1078534,0.3292462 -0.1078534,0.8787272 0,1.2079734 0.2115207,0.6457127 0.7636969,1.1513092 1.4249894,1.3047821 0.2895253,0.067193 0.7890831,0.040103 1.0707416,-0.058065 z"
       id="path829"
       inkscape:connector-curvature="0" />
    <path
       style="fill:#cbfefe;stroke-width:0.000357143"
       d="M 1.703125,8.9562869 C 1.4142472,8.8649266 1.2088447,8.6864913 1.087947,8.421875 0.98766075,8.2023722 0.98793334,7.8310175 1.0885457,7.6062869 1.1772856,7.408075 1.3733703,7.2127816 1.578125,7.1186825 L 1.734375,7.046875 3.8671875,7.0382275 6,7.02958 V 8.01479 9 L 3.9140625,8.9979094 C 2.3236749,8.9963156 1.7984291,8.9864275 1.703125,8.9562869 Z M 10,7.984375 V 6.99833 l 2.132813,0.00865 2.132812,0.00865 0.15625,0.071808 c 0.204755,0.094099 0.400839,0.2893925 0.489579,0.4876044 0.100312,0.224059 0.100312,0.5946172 0,0.8186762 -0.08874,0.1982119 -0.284824,0.3935053 -0.489579,0.4876044 L 14.265625,8.953131 12.132813,8.961781 10,8.97042 Z"
       id="path827"
       inkscape:connector-curvature="0" />
    <path
       style="fill:#fe9832;stroke-width:0.000357143"
       d="M 7,8 V 7 H 8 9 V 8 9 H 8 7 Z"
       id="path825"
       inkscape:connector-curvature="0" />
    <path
       style="fill:#fea900;stroke-width:0.000357143"
       d="M 7.71875,15.403189 C 7.3415128,15.329517 6.8962903,14.971825 6.7301647,14.608958 6.5584881,14.233968 6.5580544,13.73573 6.7290772,13.362163 c 0.1122281,-0.245138 0.418115,-0.557154 0.6657034,-0.679041 0.3944241,-0.194174 0.9106807,-0.193722 1.3065119,0.0011 0.2451884,0.120706 0.5516697,0.433895 0.6633772,0.677896 0.1710244,0.373567 0.1705906,0.871805 -0.00109,1.246795 -0.1100456,0.240372 -0.4185409,0.555689 -0.6584759,0.673038 -0.2989963,0.146234 -0.6422047,0.188404 -0.9863594,0.121193 z m 0,-11.9687499 C 7.3415128,3.3607669 6.8962903,3.0030746 6.7301647,2.6402084 6.5584881,2.2652179 6.5580544,1.7669799 6.7290772,1.3934134 6.8413053,1.1482747 7.1471922,0.83625916 7.3947806,0.71437175 7.7892047,0.52019744 8.3054613,0.52064991 8.7012925,0.71551675 8.9464809,0.83622266 9.2529622,1.1494118 9.3646697,1.3934133 9.5356941,1.7669798 9.5352603,2.2652178 9.3635822,2.6402083 9.2535366,2.8805799 8.9450413,3.1958971 8.7051063,3.3132458 8.40611,3.4594805 8.0629016,3.5016502 7.7187469,3.434439 Z"
       id="path823"
       inkscape:connector-curvature="0" />
    <path
       style="fill:#3200fe;stroke-width:0.000357143"
       d="M 6,8 V 6 h 2 2 v 2 2 H 8 6 Z M 9,8 V 7 H 8 7 v 1 1 h 1 1 z"
       id="path821"
       inkscape:connector-curvature="0" />
    <path
       style="fill:#980000;stroke-width:0.000357143"
       d="m 7.609375,15.893144 c -0.6612925,-0.153473 -1.2134688,-0.65907 -1.4249894,-1.304782 -0.1078534,-0.329246 -0.1078534,-0.878728 0,-1.207974 0.1894603,-0.578368 0.67959,-1.068896 1.2569985,-1.258019 0.3308168,-0.108355 0.8795072,-0.108574 1.2094778,-4.84e-4 0.5783681,0.18946 1.0688959,0.67959 1.2580187,1.256998 0.1085924,0.331542 0.1085924,0.87944 0,1.210982 -0.1868659,0.570518 -0.6554784,1.045404 -1.228764,1.245213 -0.2816585,0.09817 -0.7812163,0.125258 -1.0707416,0.05807 z M 8.3472972,15.406085 C 8.7503403,15.330865 9.1915009,14.98484 9.3635853,14.608958 9.5352619,14.233968 9.5356956,13.73573 9.3646728,13.362163 9.2529653,13.118162 8.9464841,12.804973 8.7012956,12.684267 8.3054644,12.4894 7.7892078,12.488947 7.3947837,12.683123 7.1471953,12.80501 6.8413084,13.117026 6.7290803,13.362165 6.6165616,13.607938 6.5728628,13.936763 6.61583,14.214354 c 0.047849,0.309131 0.1623916,0.536608 0.3890622,0.772662 0.3588247,0.373678 0.8178337,0.516971 1.3424066,0.41907 z M 7.609375,3.9243938 C 6.9480825,3.7709209 6.3959062,3.2653244 6.1843856,2.6196117 6.0765322,2.2903655 6.0765322,1.7408845 6.1843856,1.4116383 6.3738459,0.83327006 6.8639756,0.34274231 7.4413841,0.15361937 7.7722009,0.04526446 8.3208913,0.04504506 8.6508619,0.15313575 9.22923,0.34259578 9.7197578,0.83272565 9.9088806,1.4101342 c 0.1085924,0.3315418 0.1085924,0.8794398 0,1.2109816 C 9.7220147,3.1916334 9.2534022,3.6665194 8.6801166,3.8663287 8.3984581,3.9644966 7.8989003,3.9915869 7.609375,3.9243938 Z M 8.3472972,3.437335 C 8.7503403,3.362115 9.1915009,3.0160903 9.3635853,2.6402084 9.5352619,2.2652179 9.5356956,1.7669799 9.3646728,1.3934134 9.2529653,1.1494119 8.9464841,0.83622275 8.7012956,0.71551684 8.3054644,0.52064991 7.7892078,0.52019744 7.3947837,0.71437184 7.1471953,0.83625925 6.8413084,1.1482748 6.7290803,1.3934135 6.6165616,1.6391868 6.5728628,1.9680122 6.61583,2.2456033 6.6636787,2.5547335 6.7782216,2.7822108 7.0048922,3.0182645 7.3637169,3.3919432 7.8227259,3.535236 8.3472988,3.4373351 Z"
       id="path819"
       inkscape:connector-curvature="0" />
  </g>
</svg>
