<?xml version="1.0" encoding="UTF-8" standalone="no"?>
<!-- Created with Inkscape (http://www.inkscape.org/) -->

<svg
   version="1.1"
   id="svg2"
   width="1600"
   height="1600"
   viewBox="0 0 1600 1600"
   sodipodi:docname="handle_free.svg"
   inkscape:version="1.2.2 (732a01da63, 2022-12-09)"
   xmlns:inkscape="http://www.inkscape.org/namespaces/inkscape"
   xmlns:sodipodi="http://sodipodi.sourceforge.net/DTD/sodipodi-0.dtd"
   xmlns="http://www.w3.org/2000/svg"
   xmlns:svg="http://www.w3.org/2000/svg"
   xmlns:rdf="http://www.w3.org/1999/02/22-rdf-syntax-ns#"
   xmlns:cc="http://creativecommons.org/ns#"
   xmlns:dc="http://purl.org/dc/elements/1.1/">
  <metadata
     id="metadata8">
    <rdf:RDF>
      <cc:Work
         rdf:about="">
        <dc:format>image/svg+xml</dc:format>
        <dc:type
           rdf:resource="http://purl.org/dc/dcmitype/StillImage" />
      </cc:Work>
    </rdf:RDF>
  </metadata>
  <defs
     id="defs6" />
  <sodipodi:namedview
     pagecolor="#808080"
     bordercolor="#666666"
     borderopacity="1"
     objecttolerance="10"
     gridtolerance="10"
     guidetolerance="10"
     inkscape:pageopacity="0"
     inkscape:pageshadow="2"
     inkscape:window-width="1993"
     inkscape:window-height="1009"
     id="namedview4"
     showgrid="false"
     inkscape:zoom="0.5"
     inkscape:cx="227"
     inkscape:cy="218"
     inkscape:window-x="-8"
     inkscape:window-y="-8"
     inkscape:window-maximized="1"
     inkscape:current-layer="HANDLE_FREE"
     inkscape:showpageshadow="0"
     inkscape:pagecheckerboard="true"
     inkscape:deskcolor="#d1d1d1" />
  <g
     id="HANDLE_FREE"
     transform="matrix(100,0,0,100,0,4.9999997e-5)"
     style="stroke-width:0.0114286">
    <path
       style="fill:none;stroke-width:0.000357143"
       d="M 0,8 V 0 L 0.8828125,0.00248437 C 1.6930211,0.00476442 1.7502047,0.00837776 1.578125,0.04642 0.92454053,0.19091013 0.3649705,0.70246634 0.15313575,1.3491383 0.04504506,1.6791087 0.04526446,2.227799 0.15361937,2.5586158 0.34012634,3.1280375 0.8095995,3.60446 1.3795145,3.8026569 1.6430644,3.8943103 2.0845554,3.9299072 2.34375,3.8804016 L 2.515625,3.8475741 4.2578125,5.587745 6,7.3279156 V 8.6639578 10 H 6.515625 7.03125 v 1.122451 1.122451 l -0.1171875,0.07187 c -0.3315834,0.203344 -0.6612444,0.632596 -0.7916931,1.030867 -0.1085925,0.331542 -0.1085925,0.87944 0,1.210982 0.1891228,0.577408 0.6796506,1.067538 1.2580187,1.256998 0.190161,0.06229 0.2925703,0.07501 0.6039869,0.07501 0.3114166,0 0.4138259,-0.01272 0.6039869,-0.07501 C 9.16673,15.626154 9.6572578,15.136024 9.8463806,14.558616 9.9547356,14.227799 9.954955,13.679109 9.846865,13.349138 9.7227859,12.970362 9.4424363,12.586206 9.1328125,12.370692 L 9,12.278248 V 11.139124 10 H 9.5 10 V 8 6 H 8.6641672 7.3283344 L 5.6073959,4.2792712 3.8864575,2.5585423 3.9305953,2.3495836 C 3.9937434,2.0506256 3.9657616,1.6063036 3.8656588,1.3184577 3.6434731,0.67956341 3.0989413,0.18919281 2.453125,0.04642 2.2952413,0.01151612 3.3503231,0.00457632 9.1328125,0.00248437 L 16,0 v 8 8 H 8 0 Z"
       id="path829"
       inkscape:connector-curvature="0" />
    <path
       style="fill:#cbfefe;stroke-width:0.000357143"
       d="M 8.8026756,12.180678 C 8.3152678,11.936224 7.7026247,11.944016 7.0859375,12.202513 7.0344487,12.224096 7.03125,12.16035 7.03125,11.112718 V 10 H 8.015625 9 v 1.140625 c 0,0.627344 -0.00352,1.1385 -0.00781,1.135904 -0.0043,-0.0026 -0.089577,-0.04573 -0.1895119,-0.09585 z M 4.2553747,5.5835384 2.5263745,3.8542897 2.7084998,3.7846703 C 3.1899444,3.6006334 3.6060366,3.2021503 3.8199113,2.7202941 L 3.890625,2.5609773 5.6092684,4.2804887 7.3279119,6 H 6.6645775 6.0012431 l -0.00843,0.6563934 -0.00843,0.6563938 z"
       id="path827"
       inkscape:connector-curvature="0" />
    <path
       style="fill:#fe9832;stroke-width:0.000357143"
       d="M 7,8 V 7 H 8 9 V 8 9 H 8 7 Z"
       id="path825"
       inkscape:connector-curvature="0" />
    <path
       style="fill:#fea900;stroke-width:0.000357143"
       d="M 7.65625,15.371939 C 7.2790128,15.298267 6.8337903,14.940575 6.6676647,14.577708 6.4959881,14.202718 6.4955544,13.70448 6.6665772,13.330913 c 0.1122281,-0.245138 0.418115,-0.557154 0.6657034,-0.679041 0.3944241,-0.194174 0.9106807,-0.193722 1.3065119,0.0011 0.2451884,0.120706 0.5516697,0.433895 0.6633772,0.677896 0.1710244,0.373567 0.1705906,0.871805 -0.00109,1.246795 C 9.1910366,14.818079 8.8825413,15.133396 8.6426063,15.250745 8.34361,15.396979 8.0004016,15.439149 7.6562469,15.371938 Z M 1.6875,3.3719391 C 1.3102628,3.2982669 0.86504022,2.9405746 0.69891456,2.5777084 0.52723825,2.2027179 0.52680431,1.7044799 0.69782872,1.3309134 0.81005694,1.0857747 1.1159436,0.77375916 1.3635321,0.65187175 1.7579562,0.45769744 2.2742129,0.45814991 2.6700439,0.65301675 2.9152324,0.77372266 3.2217138,1.0869118 3.3334213,1.3309133 3.5044456,1.7044798 3.5040119,2.2027178 3.3323369,2.5777083 3.2222897,2.81808 2.9137945,3.1333972 2.6738594,3.2507459 2.3748633,3.3969806 2.0316548,3.4391503 1.6875,3.3719391 Z"
       id="path823"
       inkscape:connector-curvature="0" />
    <path
       style="fill:#3200fe;stroke-width:0.000357143"
       d="M 6,8 V 6 h 2 2 v 2 2 H 8 6 Z M 9,8 V 7 H 8 7 v 1 1 h 1 1 z"
       id="path821"
       inkscape:connector-curvature="0" />
    <path
       style="fill:#980000;stroke-width:0.000357143"
       d="m 7.546875,15.861894 c -0.6612925,-0.153473 -1.2134688,-0.65907 -1.4249894,-1.304782 -0.1078534,-0.329246 -0.1078534,-0.878728 0,-1.207974 0.1894603,-0.578368 0.67959,-1.068896 1.2569985,-1.258019 0.3308168,-0.108355 0.8795072,-0.108574 1.2094778,-4.84e-4 0.5783681,0.18946 1.0688959,0.67959 1.2580187,1.256998 0.1085925,0.331542 0.1085925,0.87944 0,1.210982 -0.1868659,0.570518 -0.6554784,1.045404 -1.228764,1.245213 -0.2816585,0.09817 -0.7812163,0.125258 -1.0707416,0.05807 z M 8.2847972,15.374835 C 8.6878403,15.299615 9.1290009,14.95359 9.3010853,14.577708 9.4727619,14.202718 9.4731956,13.70448 9.3021728,13.330913 9.1904653,13.086912 8.8839841,12.773723 8.6387956,12.653017 8.2429644,12.45815 7.7267078,12.457697 7.3322837,12.651873 7.0846953,12.77376 6.7788084,13.085776 6.6665803,13.330915 6.5540616,13.576688 6.5103628,13.905513 6.55333,14.183104 c 0.047849,0.309131 0.1623916,0.536608 0.3890622,0.772662 0.3588247,0.373678 0.8178337,0.516971 1.3424066,0.41907 z M 1.578125,3.8618938 C 0.91683259,3.7084209 0.36465622,3.2028244 0.15313575,2.5571117 0.0452823,2.2278655 0.0452823,1.6783845 0.15313575,1.3491383 0.34259578,0.77077006 0.83272566,0.28024232 1.4101342,0.09111937 1.740951,-0.01723554 2.2896412,-0.01745494 2.6196117,0.09063575 3.19798,0.28009579 3.6885078,0.77022566 3.8776306,1.3476342 c 0.1085925,0.3315418 0.1085925,0.8794398 0,1.2109816 C 3.6907647,3.1291334 3.2221522,3.6040194 2.6488667,3.8038288 2.3672083,3.9019966 1.8676504,3.9290869 1.578125,3.8618938 Z M 2.3160472,3.374835 C 2.7190903,3.299615 3.1602509,2.9535903 3.3323353,2.5777084 3.5040119,2.2027179 3.5044456,1.7044799 3.3334197,1.3309134 3.2217122,1.0869119 2.9152308,0.77372275 2.6700423,0.65301684 2.2742114,0.45814991 1.7579546,0.45769744 1.3635305,0.65187184 1.1159421,0.77375925 0.81005538,1.0857748 0.69782716,1.3309135 0.58530837,1.5766868 0.54160969,1.9055122 0.58457681,2.1831033 0.63242572,2.4922335 0.74696853,2.7197108 0.973639,2.9557645 1.3324638,3.3294432 1.7914728,3.472736 2.3160456,3.3748351 Z"
       id="path819"
       inkscape:connector-curvature="0" />
  </g>
</svg>
