<?xml version="1.0" encoding="UTF-8" standalone="no"?>
<!-- Created with Inkscape (http://www.inkscape.org/) -->

<svg
   version="1.1"
   id="svg2"
   width="1600"
   height="1600"
   viewBox="0 0 1600 1600"
   sodipodi:docname="help.svg"
   inkscape:version="1.2.2 (732a01da63, 2022-12-09)"
   xmlns:inkscape="http://www.inkscape.org/namespaces/inkscape"
   xmlns:sodipodi="http://sodipodi.sourceforge.net/DTD/sodipodi-0.dtd"
   xmlns="http://www.w3.org/2000/svg"
   xmlns:svg="http://www.w3.org/2000/svg"
   xmlns:rdf="http://www.w3.org/1999/02/22-rdf-syntax-ns#"
   xmlns:cc="http://creativecommons.org/ns#"
   xmlns:dc="http://purl.org/dc/elements/1.1/">
  <metadata
     id="metadata8">
    <rdf:RDF>
      <cc:Work
         rdf:about="">
        <dc:format>image/svg+xml</dc:format>
        <dc:type
           rdf:resource="http://purl.org/dc/dcmitype/StillImage" />
      </cc:Work>
    </rdf:RDF>
  </metadata>
  <defs
     id="defs6" />
  <sodipodi:namedview
     pagecolor="#808080"
     bordercolor="#666666"
     borderopacity="1"
     objecttolerance="10"
     gridtolerance="10"
     guidetolerance="10"
     inkscape:pageopacity="0"
     inkscape:pageshadow="2"
     inkscape:window-width="1993"
     inkscape:window-height="1009"
     id="namedview4"
     showgrid="false"
     inkscape:zoom="0.5"
     inkscape:cx="5"
     inkscape:cy="8"
     inkscape:window-x="-8"
     inkscape:window-y="-8"
     inkscape:window-maximized="1"
     inkscape:current-layer="HELP"
     inkscape:showpageshadow="0"
     inkscape:pagecheckerboard="true"
     inkscape:deskcolor="#d1d1d1" />
  <g
     id="HELP"
     transform="matrix(100,0,0,100,0,4.9999997e-5)"
     style="stroke-width:0.0114286">
    <path
       style="fill:none;stroke-width:0.000357143"
       d="M 0,8 V 0 h 8 8 v 8 8 H 8 0 Z m 5.2692409,7.419944 c 0.2063303,-0.154094 0.21422,-0.182696 0.2249066,-0.815344 0.00892,-0.527772 0.014399,-0.576738 0.0625,-0.558083 1.1963459,0.463973 2.5211659,0.57762 3.7858547,0.324761 0.2649912,-0.05298 0.8294198,-0.219494 1.1008508,-0.324761 0.0481,-0.01865 0.05358,0.03031 0.0625,0.558083 0.01069,0.632647 0.01858,0.661248 0.224905,0.815344 0.08407,0.06279 0.126599,0.06467 1.669944,0.07366 0.87102,0.0051 1.632892,4.37e-4 1.693048,-0.01032 0.08956,-0.01601 0.221378,-0.130904 0.72763,-0.634233 0.455847,-0.453214 0.626627,-0.643417 0.650123,-0.72406 0.02039,-0.06999 0.02845,-0.685332 0.02237,-1.708673 -0.0093,-1.558915 -0.01112,-1.601477 -0.07393,-1.685569 -0.154095,-0.206329 -0.182697,-0.214219 -0.815344,-0.224906 -0.527772,-0.0089 -0.576738,-0.0144 -0.558083,-0.0625 0.463973,-1.1963454 0.57762,-2.5211654 0.324761,-3.7858542 -0.05298,-0.2649912 -0.219494,-0.8294194 -0.324761,-1.1008503 -0.01865,-0.048101 0.03031,-0.053585 0.558083,-0.0625 0.632647,-0.010687 0.661248,-0.018576 0.815344,-0.224905 0.06279,-0.084073 0.06467,-0.1265997 0.07366,-1.6699441 0.0051,-0.8710203 4.36e-4,-1.6328922 -0.01032,-1.6930484 C 15.467287,1.8166894 15.352389,1.6848718 14.84906,1.1786198 14.395846,0.72277356 14.205643,0.55199325 14.125,0.52849691 c -0.06999,-0.0203911 -0.685332,-0.0284472 -1.708673,-0.0223698 -1.558915,0.009258 -1.601477,0.0111248 -1.685569,0.0739288 -0.206329,0.15409547 -0.214219,0.18269712 -0.224906,0.81534419 -0.0089,0.5277716 -0.0144,0.5767382 -0.0625,0.5580834 C 9.2470066,1.4895102 7.9221866,1.3758634 6.6574978,1.6287224 6.3925066,1.6817042 5.8280784,1.8482157 5.5566475,1.9534835 5.5085466,1.9721383 5.5030625,1.9231717 5.4941475,1.3954001 5.4834609,0.76275303 5.4755713,0.73415138 5.2692422,0.58005591 5.1851497,0.51725194 5.1425875,0.51538516 3.5836731,0.50612712 2.5603316,0.50004972 1.9449857,0.50810578 1.875,0.52849691 1.7943566,0.55199325 1.6041538,0.72277356 1.1509399,1.1786198 0.64761119,1.6848718 0.5327135,1.8166894 0.51670716,1.90625 c -0.0107512,0.060156 -0.0153929,0.8220281 -0.0103149,1.6930484 0.008998,1.5433444 0.0108735,1.5858707 0.0736636,1.6699441 0.154096,0.2063291 0.18269737,0.2142184 0.81534424,0.224905 0.5277715,0.00892 0.5767381,0.014399 0.5580834,0.0625 C 1.6479394,6.3444869 1.5005128,7.1397153 1.5005128,8 c 0,0.8602847 0.1474266,1.6555131 0.4529707,2.443353 0.018655,0.0481 -0.030312,0.05358 -0.5580834,0.0625 -0.63264682,0.01069 -0.66124819,0.01858 -0.81534419,0.224904 -0.0627901,0.08407 -0.064666,0.1266 -0.0736636,1.669945 -0.005078,0.87102 -4.2969e-4,1.632892 0.0103296,1.693048 0.0159641,0.08926 0.12974788,0.220652 0.61860769,0.714352 0.329475,0.332737 0.6412329,0.624177 0.6927954,0.647644 0.076055,0.03461 0.4015153,0.04134 1.7242969,0.03565 1.592484,-0.0069 1.6325606,-0.0085 1.716819,-0.07145 z M 2.6315065,13.366005 2.5,13.232009 2.50164,12.373817 c 0.00156,-0.817156 0.00418,-0.854479 0.054687,-0.780543 0.4518061,0.66133 1.1890693,1.398593 1.850399,1.850399 0.073934,0.05051 0.036466,0.05313 -0.7830316,0.05469 L 2.763013,13.5 Z m 8.9617675,0.07767 c 0.66133,-0.451806 1.398593,-1.189069 1.850399,-1.850399 0.05051,-0.07394 0.05313,-0.03661 0.05469,0.780543 L 13.5,13.232009 13.368493,13.366005 13.236987,13.5 12.376306,13.4984 C 11.556808,13.4968 11.519341,13.4942 11.593274,13.44371 Z M 7.5826353,10.450042 C 7.1222766,10.366876 6.6250441,10.11543 6.2768137,9.7897016 5.930775,9.4660225 5.6370444,8.9026838 5.5479637,8.3918569 c -0.059863,-0.3432781 -0.059863,-0.4404356 0,-0.7837138 C 5.6099337,7.2527803 5.7434078,6.9232119 5.952825,6.6084772 6.3245103,6.0498688 6.9208369,5.6678197 7.6081431,5.5479638 c 0.3432781,-0.059863 0.4404356,-0.059863 0.7837138,0 0.3553628,0.06197 0.6849312,0.195444 0.9996659,0.4048612 0.5586084,0.3716853 0.9406572,0.9680119 1.0605132,1.6553181 0.05986,0.3432782 0.05986,0.4404357 0,0.7837138 -0.06197,0.3553628 -0.195444,0.6849312 -0.404861,0.9996659 C 9.6754897,9.9501313 9.0791631,10.33218 8.3918569,10.452036 8.0633,10.509332 7.9087172,10.508951 7.5826353,10.450043 Z M 2.5016391,3.6236941 2.5,2.763013 2.6339954,2.6315065 2.7679907,2.5 3.6261828,2.50164 C 4.4433391,2.5032 4.4806622,2.50582 4.4067256,2.556327 3.7453959,3.0081331 3.0081327,3.7453963 2.5563266,4.406726 2.5058166,4.48066 2.5031996,4.443192 2.5016391,3.6236941 Z M 13.4068,4.359375 C 13.073686,3.8226116 12.25419,3.0078497 11.593274,2.5563266 c -0.07393,-0.05051 -0.03647,-0.053127 0.783032,-0.054687 L 13.236987,2.5 l 0.13202,0.1345184 0.13202,0.1345185 -0.0083,0.857669 -0.0083,0.8576691 z"
       id="path827"
       inkscape:connector-curvature="0" />
    <path
       style="fill:#fefefe;stroke-width:0.000357143"
       d="M 1.5230927,14.476228 1,13.952455 V 12.476228 11 H 1.5 2 v 1.225944 1.225944 L 2.272786,13.725944 2.5455719,14 H 3.7727859 5 V 14.5 15 H 3.5230928 2.0461855 Z M 11,14.5 V 14 h 1.225944 1.225944 L 13.725944,13.727214 14,13.454428 V 12.227214 11 h 0.5 0.5 v 1.476907 1.476907 L 14.476228,14.476907 13.952455,15 H 12.476228 11 Z M 6.640625,13.84381 C 5.824845,13.657255 4.9309159,13.224133 4.265625,12.693088 3.2151069,11.854549 2.4403111,10.6254 2.1543655,9.34375 2.1217709,9.1976563 2.0947983,9.0605469 2.0944263,9.0390625 2.0938943,9.0083319 2.4221433,9 3.6333534,9 h 1.5396035 l 0.076126,0.1916575 c 0.250315,0.6302006 0.9264406,1.3031635 1.571186,1.5638365 l 0.1796437,0.07263 3.13e-5,1.539063 c 3.12e-5,1.445959 -0.00326,1.538903 -0.054644,1.536427 -0.030078,-0.0015 -0.1671875,-0.02836 -0.3046875,-0.05981 z m 2.3594184,-1.476622 3.13e-5,-1.539063 0.1796437,-0.07263 C 9.8244638,10.494821 10.500589,9.8218581 10.750904,9.1916575 L 10.827043,9 h 1.539604 c 1.21121,0 1.539459,0.00833 1.538927,0.039063 -3.72e-4,0.021484 -0.02735,0.1585938 -0.05994,0.3046875 -0.285945,1.2816505 -1.060741,2.5107995 -2.111259,3.3493385 -0.672562,0.536849 -1.569787,0.96941 -2.390625,1.152545 -0.1460937,0.03259 -0.2832031,0.05957 -0.3046875,0.05994 -0.030731,5.31e-4 -0.039053,-0.327586 -0.039019,-1.538386 z M 2.0944263,6.9609375 C 2.0947982,6.9394531 2.1217709,6.8023438 2.1543655,6.65625 2.3375005,5.8354125 2.7700625,4.9381872 3.3069119,4.265625 4.1454512,3.2151069 5.3746003,2.4403111 6.65625,2.1543655 6.8023438,2.1217709 6.9394531,2.0947983 6.9609375,2.0944263 6.9916681,2.0938941 7,2.4221433 7,3.6333534 V 5.1729569 L 6.8083425,5.2490831 C 6.1781419,5.4993981 5.5051788,6.1755237 5.2445056,6.8202691 L 5.171875,6.9999128 3.6328125,6.9999441 C 2.4220123,6.9999906 2.0938943,6.9916684 2.0944263,6.9609375 Z M 10.755494,6.8202691 C 10.494821,6.1755237 9.8218581,5.4993981 9.1916575,5.2490831 L 9,5.1729569 V 3.6333534 C 9,2.4221433 9.00833,2.0938942 9.039063,2.0944263 c 0.021484,3.719e-4 0.1585938,0.027345 0.3046875,0.059939 1.2816505,0.2859456 2.5107995,1.0607414 3.3493385,2.1112595 0.536849,0.6725622 0.96941,1.5697875 1.152545,2.390625 0.03259,0.1460938 0.05957,0.2832031 0.05994,0.3046875 5.31e-4,0.030731 -0.327586,0.039053 -1.538386,0.039019 L 10.828125,6.999925 10.755495,6.8202813 Z M 1,3.5230928 V 2.0461855 L 1.5237725,1.5230927 2.0475451,1 H 3.5237725 5 V 1.5 2 H 3.7727859 2.5455719 L 2.272786,2.2740557 2,2.5481114 V 3.7740556 5 H 1.5 1 Z M 14,3.7740556 V 2.5481114 L 13.727214,2.2740557 13.454428,2 H 12.227214 11 V 1.5 1 h 1.476907 1.476907 L 14.476907,1.5237725 15,2.0475451 V 3.5237725 5 H 14.5 14 Z"
       id="path825"
       inkscape:connector-curvature="0" />
    <path
       style="fill:#fe0000;stroke-width:0.000357143"
       d="M 7.328125,13.966343 C 7.190625,13.949889 7.0605469,13.930079 7.0390625,13.922319 7.0085337,13.911293 7,13.572679 7,12.372336 v -1.535875 l 0.070312,0.01997 C 7.4544519,10.965533 7.5723781,10.981383 8,10.981383 c 0.4277147,0 0.5452981,-0.01581 0.9299841,-0.12503 l 0.070609,-0.02005 -0.00811,1.542785 -0.00811,1.542785 -0.140625,0.02284 c -0.2385191,0.03875 -1.2517469,0.0532 -1.515625,0.02163 z M 2.0829876,8.9765625 C 2.0750396,8.9636719 2.0511117,8.784375 2.0298145,8.578125 1.9920416,8.2123172 2.0056211,7.4810519 2.0562185,7.15625 l 0.021907,-0.140625 1.5427847,-0.00811 1.542785,-0.00811 -0.020048,0.070609 C 5.0344256,7.4547019 5.0186175,7.5722853 5.0186175,8 c 0,0.4276219 0.015849,0.5455481 0.1249519,0.9296875 L 5.1635394,9 H 3.6304891 C 2.7873113,9 2.0909356,8.9894531 2.0829876,8.9765625 Z M 10.856353,8.9299841 C 10.965574,8.5452981 10.981383,8.4277147 10.981383,8 c 0,-0.4277147 -0.01581,-0.5452981 -0.12503,-0.9299841 l -0.02005,-0.070609 1.542403,0.00811 1.542403,0.00811 0.02796,0.15625 c 0.03628,0.2027547 0.03628,1.4534953 0,1.65625 l -0.02796,0.15625 -1.542403,0.00811 -1.542403,0.00811 z m -3.8488371,-5.3086925 0.00811,-1.5424029 0.15625,-0.02796 c 0.2027547,-0.036281 1.4534953,-0.036281 1.65625,0 l 0.15625,0.02796 0.00811,1.5424029 0.00811,1.5424031 -0.070609,-0.020048 C 8.5452981,5.0344256 8.4277147,5.0186175 8,5.0186175 c -0.4277147,0 -0.5452981,0.015808 -0.9299841,0.1250294 l -0.070609,0.020048 z"
       id="path823"
       inkscape:connector-curvature="0" />
    <path
       style="fill:#323232;stroke-width:0.000357143"
       d="M 7.21875,14.464919 C 6.0187897,14.326823 4.7761259,13.794362 3.859375,13.025483 3.1012368,12.389633 2.5539633,11.692678 2.1413264,10.83754 1.5179371,9.5456447 1.340525,8.0989338 1.6287224,6.6574978 1.8244326,5.6786422 2.3295939,4.6283306 2.9745167,3.859375 3.6103672,3.1012368 4.3073225,2.5539633 5.1624603,2.1413264 6.07781,1.6996348 6.9595275,1.5005128 8,1.5005128 c 0.7547006,0 1.3693906,0.095226 2.045627,0.3169019 1.659904,0.5441309 3.049477,1.7627075 3.812015,3.34292 C 14.300407,6.0778809 14.499487,6.9586553 14.499487,8 c 0,1.0404725 -0.199122,1.92219 -0.640813,2.83754 -0.412637,0.855138 -0.959911,1.552093 -1.718049,2.187943 -0.933931,0.783288 -2.1625025,1.303599 -3.40625,1.442577 -0.3312784,0.03702 -1.1819941,0.03525 -1.515625,-0.0031 z M 8.609375,13.96806 c 1.2134053,-0.135588 2.330759,-0.609935 3.25,-1.379713 C 13.204706,11.461758 13.999487,9.7577663 13.999487,8 c 0,-1.7577662 -0.794781,-3.4617581 -2.140112,-4.5883469 -2.2404553,-1.8761722 -5.4782947,-1.8761722 -7.71875,0 C 2.7952944,4.5382419 2.0005128,6.2422337 2.0005128,8 c 0,1.8109975 0.8432565,3.558142 2.2651122,4.693088 1.2045741,0.96151 2.8436166,1.442599 4.34375,1.274972 z M 7.4794241,10.955879 C 6.8391219,10.833644 6.2811547,10.532683 5.8413031,10.072296 5.46529,9.6787272 5.2067906,9.2066125 5.0721766,8.6675878 c -0.074223,-0.2972056 -0.074223,-1.03797 0,-1.3351756 0.2781153,-1.1136359 1.08906,-1.9398303 2.2044978,-2.2459528 0.3439365,-0.094391 1.1027147,-0.094391 1.4466512,0 1.1154378,0.3061225 1.9263824,1.1323169 2.2044974,2.2459528 0.07422,0.2972056 0.07422,1.03797 0,1.3351756 -0.278246,1.1141594 -1.1034971,1.9538822 -2.2044974,2.2431562 -0.3109278,0.08169 -0.9339778,0.104299 -1.2439015,0.04514 z M 8.3918569,10.452036 C 9.0791631,10.33218 9.6754897,9.9501313 10.047175,9.3915228 c 0.209417,-0.3147347 0.342891,-0.6443031 0.404861,-0.9996659 0.05986,-0.3432781 0.05986,-0.4404356 0,-0.7837138 C 10.33218,6.9208369 9.9501312,6.3245103 9.3915228,5.952825 9.0767881,5.7434078 8.7472197,5.6099338 8.3918569,5.5479638 c -0.3432781,-0.059863 -0.4404357,-0.059863 -0.7837138,0 C 6.9208369,5.6678197 6.3245103,6.0498688 5.952825,6.6084772 5.7434078,6.9232119 5.6099337,7.2527803 5.5479637,7.6081431 c -0.059863,0.3432782 -0.059863,0.4404357 0,0.7837138 0.089081,0.5108269 0.3828113,1.0741656 0.7288501,1.3978447 0.3482303,0.3257284 0.8454628,0.5771744 1.3058215,0.6603404 0.3260819,0.05891 0.4806647,0.05929 0.8092216,0.002 z"
       id="path821"
       inkscape:connector-curvature="0" />
    <path
       style="fill:#000000;stroke-width:0.000357143"
       d="M 1.828125,15.455746 C 1.7765625,15.432279 1.4648046,15.140839 1.1353296,14.808102 0.64646975,14.314402 0.532686,14.183007 0.51672187,14.09375 c -0.0107593,-0.06016 -0.0154076,-0.822028 -0.0103296,-1.693048 0.008998,-1.543345 0.0108735,-1.585871 0.0736636,-1.669945 0.154593,-0.206994 0.18169884,-0.214368 0.82056793,-0.223226 l 0.5837512,-0.0081 0.125,0.27208 c 0.06875,0.149644 0.1847656,0.377171 0.2578125,0.505615 L 2.5,11.510668 v 0.860671 0.86067 L 2.6315065,13.366005 2.763013,13.5 h 0.8631595 0.8631594 l 0.233535,0.132813 c 0.1284443,0.07305 0.3559712,0.189062 0.5056153,0.257812 l 0.2720803,0.125 -0.00809,0.583751 c -0.00886,0.63887 -0.016232,0.665977 -0.2232278,0.820568 -0.084258,0.06293 -0.124335,0.0646 -1.716819,0.07145 -1.3227817,0.0057 -1.6482422,-10e-4 -1.7242969,-0.03565 z M 5,14.5 V 14 H 3.7727859 2.5455719 L 2.272786,13.725944 2,13.451888 V 12.225944 11 H 1.5 1 v 1.476228 1.476227 L 1.5230927,14.476228 2.0461855,15 H 3.5230928 5 Z m 5.796875,0.955886 c -0.114927,-0.05108 -0.219179,-0.161142 -0.263543,-0.278233 -0.01911,-0.05043 -0.0328,-0.317148 -0.03208,-0.625 l 0.0013,-0.537028 0.270547,-0.125 c 0.148801,-0.06875 0.375638,-0.184766 0.504083,-0.257812 L 11.51067,13.5 h 0.863159 0.863159 l 0.131507,-0.133995 0.131507,-0.133996 v -0.86067 -0.860671 l 0.132812,-0.233535 c 0.07305,-0.128444 0.189063,-0.355971 0.257813,-0.505615 l 0.125,-0.272081 0.583751,0.0081 c 0.638869,0.0089 0.665975,0.01623 0.820568,0.223226 0.06279,0.08407 0.06467,0.1266 0.07366,1.669945 0.0051,0.87102 4.28e-4,1.632892 -0.01033,1.693048 -0.01596,0.08925 -0.129763,0.220674 -0.618608,0.714395 -0.329475,0.332761 -0.644297,0.624558 -0.699604,0.648437 -0.144557,0.06242 -3.227629,0.06178 -3.368191,-6.97e-4 z M 14.476228,14.476907 15,13.953814 V 12.476907 11 H 14.5 14 v 1.227214 1.227214 L 13.725944,13.727214 13.451888,14 H 12.225944 11 v 0.5 0.5 h 1.476228 1.476227 z M 0.796875,5.4558862 C 0.68194747,5.4048062 0.57769619,5.2947441 0.53333162,5.1776531 0.51132519,5.1195719 0.5,4.5538269 0.5,3.5125869 0.5,2.2356228 0.50826266,1.9163557 0.54341781,1.8349338 0.56729759,1.7796265 0.85909447,1.4648046 1.1918553,1.1353296 1.6855756,0.64648456 1.8169956,0.53268553 1.90625,0.51672187 c 0.060156,-0.0107593 0.8220281,-0.0154076 1.6930484,-0.0103296 1.5433444,0.008998 1.5858707,0.0108735 1.6699441,0.0736636 0.2069944,0.154593 0.2143684,0.18169884 0.2232262,0.82056793 l 0.00809,0.5837512 -0.2720803,0.125 C 5.0788381,2.178125 4.8513112,2.2941406 4.7228669,2.3671875 L 4.4893319,2.5 H 3.6286613 2.7679907 L 2.6339954,2.6315065 2.5,2.763013 V 3.6261725 4.4893319 L 2.3671875,4.7228669 C 2.2941406,4.8513112 2.178125,5.0781484 2.109375,5.2269494 l -0.125,0.2705475 -0.546875,2.84e-5 c -0.3880813,2e-5 -0.57409678,-0.012071 -0.640625,-0.041639 z M 2,3.7740556 V 2.5481114 L 2.272786,2.2740557 2.5455719,2 H 3.7727859 5 V 1.5 1 H 3.5237725 2.0475451 L 1.5237725,1.5230927 1,2.0461855 V 3.5230928 5 H 1.5 2 Z M 13.890625,5.2284822 C 13.821875,5.0788381 13.705859,4.8513112 13.632813,4.7228669 L 13.5,4.4893319 V 3.6261725 2.763013 L 13.366005,2.6315065 13.232009,2.5 h -0.86067 -0.860671 L 11.277133,2.3671875 C 11.148689,2.2941406 10.921162,2.178125 10.771518,2.109375 l -0.27208,-0.125 0.0081,-0.5837512 c 0.0089,-0.6388693 0.01623,-0.66597543 0.223227,-0.82056789 0.08409,-0.062804 0.126655,-0.0646708 1.685569,-0.0739288 1.023341,-0.006077 1.638687,0.001979 1.708673,0.0223698 0.08064,0.0234963 0.270846,0.19427665 0.72406,0.65012289 0.503329,0.506252 0.618227,0.6380696 0.634233,0.7276302 0.01075,0.060156 0.01539,0.8220281 0.01032,1.6930484 -0.009,1.5433444 -0.01087,1.5858707 -0.07366,1.6699441 -0.154593,0.2069944 -0.181699,0.2143684 -0.820568,0.2232262 l -0.583751,0.00809 z M 15,3.5237725 V 2.0475451 L 14.476907,1.5237725 13.953814,1 H 12.476907 11 V 1.5 2 h 1.227214 1.227214 L 13.727214,2.2740557 14,2.5481114 V 3.7740556 5 h 0.5 0.5 z"
       id="path819"
       inkscape:connector-curvature="0" />
  </g>
</svg>
