<?xml version="1.0" encoding="UTF-8" standalone="no"?>
<!-- Created with Inkscape (http://www.inkscape.org/) -->

<svg
   version="1.1"
   id="svg2"
   width="1600"
   height="1600"
   viewBox="0 0 1600 1600"
   sodipodi:docname="hide_on.svg"
   inkscape:version="1.2.2 (732a01da63, 2022-12-09)"
   xmlns:inkscape="http://www.inkscape.org/namespaces/inkscape"
   xmlns:sodipodi="http://sodipodi.sourceforge.net/DTD/sodipodi-0.dtd"
   xmlns="http://www.w3.org/2000/svg"
   xmlns:svg="http://www.w3.org/2000/svg"
   xmlns:rdf="http://www.w3.org/1999/02/22-rdf-syntax-ns#"
   xmlns:cc="http://creativecommons.org/ns#"
   xmlns:dc="http://purl.org/dc/elements/1.1/">
  <metadata
     id="metadata8">
    <rdf:RDF>
      <cc:Work
         rdf:about="">
        <dc:format>image/svg+xml</dc:format>
        <dc:type
           rdf:resource="http://purl.org/dc/dcmitype/StillImage" />
      </cc:Work>
    </rdf:RDF>
  </metadata>
  <defs
     id="defs6" />
  <sodipodi:namedview
     pagecolor="#808080"
     bordercolor="#666666"
     borderopacity="1"
     objecttolerance="10"
     gridtolerance="10"
     guidetolerance="10"
     inkscape:pageopacity="0"
     inkscape:pageshadow="2"
     inkscape:window-width="1993"
     inkscape:window-height="1009"
     id="namedview4"
     showgrid="false"
     inkscape:zoom="0.5"
     inkscape:cx="175"
     inkscape:cy="130"
     inkscape:window-x="-8"
     inkscape:window-y="-8"
     inkscape:window-maximized="1"
     inkscape:current-layer="HIDE_ON"
     inkscape:showpageshadow="0"
     inkscape:pagecheckerboard="true"
     inkscape:deskcolor="#d1d1d1" />
  <g
     id="HIDE_ON"
     transform="matrix(100,0,0,100,0,4.9999997e-5)"
     style="stroke-width:0.0114286">
    <path
       style="fill:none;stroke-width:0.000357143"
       d="M 0,8 V 0 h 8 8 v 8 8 H 8 0 Z m 3.515625,6.093981 C 3.6908416,14.028031 3.7798966,13.947178 4.875,12.859804 l 1.171875,-1.163602 0.3220294,0.08745 C 6.9875347,11.951635 7.2381594,11.982155 8,11.98228 c 0.7662531,1.25e-4 0.989285,-0.02734 1.6534372,-0.203639 0.5171338,-0.13727 1.0571238,-0.344172 1.6223958,-0.621634 1.06589,-0.523189 1.975431,-1.142691 3.038077,-2.0692817 0.445902,-0.3888112 0.516411,-0.4635384 0.595893,-0.6315456 0.07597,-0.16059 0.09015,-0.2298672 0.09015,-0.4405547 0,-0.3662734 -0.09264,-0.5440522 -0.470868,-0.9035575 C 14.011634,6.6202259 13.38924,6.1259369 12.718775,5.6743697 12.521133,5.5412547 12.353249,5.4261659 12.3457,5.4186169 12.3382,5.4110669 12.719482,5.0149628 13.193102,4.5383834 13.977767,3.7488147 14.06072,3.6552263 14.127323,3.484375 14.230938,3.2185775 14.230528,2.8106369 14.126379,2.546875 14.024749,2.2894881 13.741762,2.0065009 13.484375,1.90487 13.220908,1.8008386 12.812842,1.8003353 12.546875,1.90371 12.372962,1.971308 12.274259,2.0613537 11.184795,3.1463247 L 10.010214,4.3160638 9.6535447,4.2213879 C 8.9895206,4.0451262 8.7662084,4.0176053 8,4.0176053 c -0.7661822,0 -0.9895275,0.027523 -1.6534372,0.2037538 -0.5171334,0.13727 -1.057124,0.3441715 -1.6223962,0.6216337 -1.06589,0.5231891 -1.9754303,1.1426909 -3.0380768,2.0692819 -0.4459022,0.3888112 -0.5164107,0.4635384 -0.5958922,0.6315456 -0.075973,0.16059 -0.090148,0.2298672 -0.090148,0.4405547 0,0.3662734 0.092645,0.5440522 0.4708678,0.9035575 0.5372037,0.5106188 1.2456802,1.0682844 1.9094792,1.5030145 l 0.3335212,0.218428 -0.8528236,0.859375 c -0.7760841,0.782046 -0.8594006,0.876247 -0.9259165,1.046875 -0.1020088,0.261676 -0.1031004,0.674309 -0.00246,0.928176 0.077653,0.195872 0.2895602,0.452157 0.4619623,0.558708 0.3152818,0.194855 0.7516648,0.230465 1.1209407,0.09147 z"
       id="path831"
       inkscape:connector-curvature="0" />
    <path
       style="fill:#fefefe;stroke-width:0.000357143"
       d="m 7.484375,10.966587 c -0.1203125,-0.01386 -0.3080975,-0.042 -0.4173,-0.06254 l -0.19855,-0.03734 0.4131728,-0.414025 0.4131725,-0.414024 0.4728775,-0.01493 C 8.7141941,10.006477 8.9668488,9.941675 9.453125,9.6940484 9.6973281,9.5696928 9.7860894,9.4991131 10.126976,9.1582263 10.467863,8.8173394 10.538443,8.7285781 10.662798,8.484375 10.91045,7.9980497 10.975226,7.7454625 10.99248,7.1988178 l 0.01493,-0.4730575 0.286925,-0.2857319 0.286925,-0.2857315 0.287085,0.180664 c 0.614291,0.3865754 1.405727,0.9942544 1.890293,1.4514013 L 14.001653,8.015625 13.555514,8.3981634 C 12.532613,9.2752413 11.784463,9.7759856 10.741032,10.281923 9.5762906,10.846682 8.4673438,11.079821 7.484375,10.966587 Z M 4.1489372,9.6774347 C 3.5034269,9.2677469 2.727861,8.6726091 2.241361,8.2136378 L 1.9983471,7.984375 2.444486,7.6018366 C 3.1671537,6.9821909 3.7743569,6.5384325 4.41692,6.1603347 4.8127578,5.9274153 5.2593703,5.7078662 5.2397028,5.755865 5.2304606,5.7784206 5.1765641,5.9304687 5.1199325,6.09375 L 5.0169659,6.390625 5.0171847,7.03125 c 1.875e-4,0.6203297 0.00302,0.64904 0.088961,0.90625 0.089875,0.2689834 0.2609788,0.63658 0.3646694,0.7834506 l 0.05671,0.080326 L 4.9903304,9.3358856 4.453136,9.870495 4.1489482,9.677435 Z M 6.0005425,6.9296875 C 6.0016394,6.7245559 6.0959812,6.3838153 6.2230478,6.1260578 6.4044675,5.7580441 6.7267941,5.4357175 7.0948078,5.2542978 7.3525653,5.1272313 7.6933059,5.0328884 7.8984375,5.0317925 L 8,5.03125 V 5.5270025 6.0227547 L 7.8606897,6.0418494 C 7.4363209,6.1000156 7.0687656,6.4675709 7.0105994,6.8919397 L 6.9915047,7.03125 H 6.4957525 6 l 5.437e-4,-0.1015625 z"
       id="path829"
       inkscape:connector-curvature="0" />
    <path
       style="fill:#75b6fe;stroke-width:0.000357143"
       d="M 9.3435894,8.3933341 C 9.970845,7.7645003 10.488961,7.25 10.494959,7.25 c 0.02388,0 -0.03726,0.3399309 -0.09556,0.53125 C 10.27593,8.1864819 10.106708,8.4586575 9.7670581,8.7983081 9.5206588,9.0447072 9.3993447,9.1398325 9.203125,9.2405009 8.9209531,9.3852663 8.6285094,9.4820634 8.375,9.5146053 L 8.203125,9.5366681 Z M 5.7688816,8.1939666 C 5.5609012,7.7809728 5.515625,7.5731069 5.515625,7.03125 c 0,-0.4204931 0.00966,-0.5152856 0.07322,-0.71875 C 5.6879522,5.9952597 5.8840909,5.6257428 6.0418384,5.4590794 6.1616966,5.3324469 6.2000044,5.3140469 6.53125,5.2240031 7.1301831,5.0611925 7.4311044,5.0192725 8,5.0193988 8.3580753,5.0194925 8.6111097,5.0366209 8.828125,5.0755028 9,5.1062969 9.1470406,5.1376188 9.1548816,5.1451069 9.1627228,5.152595 8.9658478,5.3614775 8.7173816,5.60929 L 8.265625,6.0598584 8.1328125,6.0414394 8,6.0230206 V 5.5271353 5.03125 L 7.8984375,5.0317937 C 7.6933059,5.0328906 7.3525653,5.1272325 7.0948078,5.2542991 6.7267941,5.4357188 6.4044675,5.7580453 6.2230478,6.1260591 6.0959813,6.3838166 6.0016384,6.7245572 6.0005425,6.9296888 L 6,7.03125 H 6.4958853 6.9917706 L 7.0101278,7.1640625 7.028485,7.296875 6.4755056,7.8515625 C 6.1713669,8.1566406 5.9120097,8.40625 5.8991559,8.40625 c -0.012854,0 -0.071477,-0.095527 -0.1302743,-0.2122834 z"
       id="path827"
       inkscape:connector-curvature="0" />
    <path
       style="fill:#fe0000;stroke-width:0.000357143"
       d="M 2.8346027,13.638496 C 2.5102681,13.535817 2.294638,13.165854 2.3743402,12.848812 c 0.020144,-0.08013 0.06304,-0.187875 0.095326,-0.239437 0.032286,-0.05156 2.3339594,-2.367376 5.1148301,-5.1462516 l 5.0561287,-5.0525018 0.182438,-0.052078 c 0.150958,-0.043092 0.207578,-0.04585 0.328125,-0.015989 0.291048,0.072098 0.463324,0.244545 0.536972,0.5375067 0.03046,0.1211654 0.02786,0.1763937 -0.01545,0.328125 L 13.620629,3.390625 8.5525022,8.4616388 C 5.1242656,11.891828 3.4439288,13.552217 3.359375,13.593116 3.18207,13.67888 3.0093443,13.693817 2.8346027,13.638496 Z"
       id="path825"
       inkscape:connector-curvature="0" />
    <path
       style="fill:#0000cb;stroke-width:0.000357143"
       d="M 7.9493087,9.7873272 C 8.1847116,9.5483953 8.2031372,9.5364978 8.3700691,9.5156409 8.6237456,9.4839463 8.918115,9.3867225 9.203125,9.2405009 9.5569469,9.0589763 10.027726,8.5881969 10.209251,8.234375 c 0.146221,-0.28501 0.243445,-0.5793794 0.27514,-0.8330559 0.02086,-0.1669319 0.03275,-0.1853575 0.271686,-0.4207604 l 0.249875,-0.2461837 -0.01432,0.46875 c -0.01656,0.5420734 -0.08173,0.79599 -0.328835,1.28125 C 10.538443,8.7285781 10.467863,8.8173394 10.126976,9.1582263 9.7860894,9.4991131 9.6973281,9.5696928 9.453125,9.6940484 8.967865,9.9411575 8.7139484,10.006326 8.171875,10.022883 l -0.46875,0.01432 z M 5.4608094,8.7104669 C 5.3565675,8.5513741 5.1895731,8.1871744 5.106385,7.9375 5.0212347,7.6819366 5.0178397,7.6482006 5.0167538,7.046875 5.0155662,6.3893066 5.0237253,6.3355253 5.1935206,5.8817069 5.2548431,5.7178075 5.2657506,5.7074062 5.4801969,5.6083303 5.6028072,5.5516831 5.7978031,5.4697006 5.9135213,5.4261472 L 6.1239172,5.3469582 5.9966472,5.507967 C 5.8363041,5.7108166 5.6831113,6.0135159 5.5888013,6.3138459 5.5252362,6.5162675 5.515625,6.6104959 5.515625,7.03125 c 0,0.5502619 0.04796,0.7647491 0.2633687,1.1778394 L 5.8961728,8.4338037 5.7206178,8.6075269 C 5.6240625,8.7030747 5.5365409,8.78125 5.5261253,8.78125 c -0.010415,0 -0.039808,-0.031852 -0.065316,-0.070783 z"
       id="path823"
       inkscape:connector-curvature="0" />
    <path
       style="fill:#7f0000;stroke-width:0.000357143"
       d="M 2.6823866,14.129393 C 2.4437626,14.050575 2.3106485,13.963756 2.1436649,13.77803 1.940002,13.551508 1.8620845,13.331892 1.8620845,12.984375 c 0,-0.219137 0.015972,-0.322658 0.072322,-0.46875 0.06961,-0.180468 0.266462,-0.38164 5.2486452,-5.3638231 4.9821833,-4.9821832 5.1833553,-5.1790355 5.3638233,-5.2486452 0.266412,-0.1027599 0.674805,-0.1020135 0.9375,0.00171 0.257387,0.1016309 0.540374,0.3846181 0.642005,0.642005 0.103727,0.2626951 0.104473,0.6710884 0.0017,0.9375 -0.0696,0.1804712 -0.26645,0.3816431 -5.2486328,5.3638265 -5.0202616,5.0202628 -5.181975,5.1784338 -5.3638222,5.2463398 -0.2590369,0.09673 -0.6024221,0.111094 -0.8332384,0.03486 z M 3.359375,13.593116 c 0.084554,-0.0409 1.7648906,-1.701288 5.1931272,-5.1314772 L 13.620629,3.390625 13.672707,3.2081866 C 13.716019,3.0564553 13.71862,3.001227 13.68816,2.8800616 13.614512,2.5870999 13.442236,2.4146527 13.151188,2.3425549 13.030641,2.3126931 12.974021,2.3154521 12.823063,2.3585436 L 12.640625,2.4106216 7.5844966,7.4631234 C 4.8036259,10.241999 2.5019524,12.557813 2.4696665,12.609375 c -0.1746874,0.278986 -0.1368393,0.629702 0.092729,0.859271 0.2144201,0.21442 0.5142216,0.261242 0.7969795,0.12447 z"
       id="path821"
       inkscape:connector-curvature="0" />
    <path
       style="fill:#000000;stroke-width:0.000357143"
       d="M 7.40625,11.980722 C 7.0467287,11.93676 6.8155156,11.894329 6.4609375,11.807244 6.2417969,11.753423 6.0625,11.700744 6.0625,11.69018 c 0,-0.01056 0.1808969,-0.199702 0.4019931,-0.420308 l 0.4019931,-0.4011 0.2890304,0.04965 c 1.13961,0.195758 2.2904215,-0.0085 3.5855154,-0.636497 1.152864,-0.5589993 2.036569,-1.1747777 3.253515,-2.2670955 0.01852,-0.016624 -0.722988,-0.6655494 -1.072672,-0.9387403 -0.315131,-0.2461966 -1.209787,-0.8623153 -1.303872,-0.897931 -0.02398,-0.00908 0.109667,-0.1653996 0.335122,-0.3919978 l 0.375,-0.3769021 0.375,0.2535796 c 0.693338,0.4688444 1.306625,0.9555994 1.825958,1.4492316 0.378223,0.3595053 0.470868,0.5372841 0.470868,0.9035575 0,0.2106875 -0.01418,0.2799647 -0.09015,0.4405547 -0.07948,0.1680072 -0.149991,0.2427344 -0.595893,0.6315456 -1.062646,0.9265907 -1.972187,1.5460927 -3.038077,2.0692817 -0.771994,0.378931 -1.5241474,0.634109 -2.260208,0.766805 -0.2714794,0.04894 -1.3598097,0.08743 -1.609375,0.05691 z M 3.296875,10.337657 C 2.6001183,9.8655856 1.9890639,9.3804372 1.4709171,8.8879325 1.0926945,8.5284272 1.0000493,8.3506484 1.0000493,7.984375 c 0,-0.2106875 0.014176,-0.2799647 0.090148,-0.4405547 C 1.1696791,7.3758131 1.2401876,7.3010859 1.6860898,6.9122747 2.7487363,5.9856837 3.6582766,5.3661819 4.7241666,4.8429928 5.82925,4.3005659 6.7608691,4.045165 7.7656528,4.0091766 8.4939297,3.9830922 9.1238063,4.0615887 9.8243162,4.2657316 L 10.008008,4.3192628 9.5948466,4.7332759 9.1816856,5.1472894 8.9892803,5.1061553 C 8.8834575,5.0835319 8.6175781,5.0478012 8.3984375,5.0267541 7.4522284,4.9358769 6.3944031,5.1689628 5.2589681,5.7185194 4.1085806,6.2753128 3.2231856,6.8921481 2.0054525,7.9851725 1.986932,8.0017963 2.7284411,8.6507219 3.078125,8.9239128 c 0.2755125,0.2152447 0.9941072,0.71175 1.315915,0.9092178 0.053803,0.033015 0.027005,0.068632 -0.2997803,0.3984374 -0.197376,0.1992 -0.3731572,0.361727 -0.390625,0.361171 C 3.6861669,10.592184 3.503125,10.477396 3.296875,10.337657 Z M 7.0135209,7.2058675 C 6.9781797,7.0650563 7.0186853,6.7760566 7.0971834,6.6089516 7.25111,6.2812778 7.5697525,6.0659509 7.94112,6.0386503 8.3158344,6.0111041 8.314245,6.0145444 7.6420044,6.6861222 7.0542075,7.2733391 7.0345378,7.2896056 7.0135209,7.2058675 Z"
       id="path819"
       inkscape:connector-curvature="0" />
  </g>
</svg>
