<?xml version="1.0" encoding="UTF-8" standalone="no"?>
<!-- Created with Inkscape (http://www.inkscape.org/) -->

<svg
   version="1.1"
   id="svg2"
   width="1600"
   height="1600"
   viewBox="0 0 1600 1600"
   sodipodi:docname="history_cycle_forward.svg"
   inkscape:version="1.2.2 (732a01da63, 2022-12-09)"
   xmlns:inkscape="http://www.inkscape.org/namespaces/inkscape"
   xmlns:sodipodi="http://sodipodi.sourceforge.net/DTD/sodipodi-0.dtd"
   xmlns="http://www.w3.org/2000/svg"
   xmlns:svg="http://www.w3.org/2000/svg"
   xmlns:rdf="http://www.w3.org/1999/02/22-rdf-syntax-ns#"
   xmlns:cc="http://creativecommons.org/ns#"
   xmlns:dc="http://purl.org/dc/elements/1.1/">
  <metadata
     id="metadata8">
    <rdf:RDF>
      <cc:Work
         rdf:about="">
        <dc:format>image/svg+xml</dc:format>
        <dc:type
           rdf:resource="http://purl.org/dc/dcmitype/StillImage" />
      </cc:Work>
    </rdf:RDF>
  </metadata>
  <defs
     id="defs6" />
  <sodipodi:namedview
     pagecolor="#808080"
     bordercolor="#666666"
     borderopacity="1"
     objecttolerance="10"
     gridtolerance="10"
     guidetolerance="10"
     inkscape:pageopacity="0"
     inkscape:pageshadow="2"
     inkscape:window-width="1993"
     inkscape:window-height="1009"
     id="namedview4"
     showgrid="false"
     inkscape:zoom="0.5"
     inkscape:cx="5"
     inkscape:cy="8"
     inkscape:window-x="-8"
     inkscape:window-y="-8"
     inkscape:window-maximized="1"
     inkscape:current-layer="HISTORY_CYCLE_FORWARD"
     inkscape:showpageshadow="0"
     inkscape:pagecheckerboard="true"
     inkscape:deskcolor="#d1d1d1" />
  <g
     id="HISTORY_CYCLE_FORWARD"
     transform="matrix(100,0,0,100,0,4.9999997e-5)"
     style="stroke-width:0.0114286">
    <path
       style="fill:none;stroke-width:0.000357143"
       d="M 0,8 V 0 h 8 8 v 8 8 H 8 0 Z m 8.640625,7.017732 c 0.051562,-0.0087 0.178125,-0.02401 0.28125,-0.03402 0.103125,-0.01001 0.2085938,-0.02418 0.234375,-0.03147 0.025781,-0.0073 0.103125,-0.02155 0.171875,-0.03168 0.06875,-0.01013 0.18125,-0.03395 0.25,-0.05294 0.06875,-0.01898 0.1390625,-0.03622 0.15625,-0.03829 0.043942,-0.0053 0.281168,-0.07422 0.484375,-0.140708 0.430986,-0.14102 1.268161,-0.537205 1.485571,-0.703031 0.0572,-0.04363 0.116025,-0.07933 0.130712,-0.07933 0.01469,0 0.07539,-0.04162 0.134897,-0.09248 0.05951,-0.05086 0.120197,-0.09305 0.134865,-0.09375 0.04143,-0.002 0.483625,-0.381116 0.691533,-0.592928 l 0.186954,-0.190465 -0.553659,-0.553659 -0.55366,-0.55366 -0.165526,0.163471 c -0.09104,0.08991 -0.175851,0.163471 -0.188469,0.163471 -0.01262,0 -0.125744,0.08437 -0.251391,0.1875 -0.125648,0.103125 -0.240337,0.1875 -0.254865,0.1875 -0.01453,0 -0.04862,0.01967 -0.07575,0.0437 -0.214711,0.190201 -1.0903207,0.576828 -1.5002713,0.662448 -0.041764,0.0087 -0.085906,0.02202 -0.098093,0.02955 -0.046205,0.02856 -0.4731578,0.107473 -0.7071519,0.130708 -0.5379219,0.05341 -1.2891891,0.02281 -1.7332972,-0.07061 -0.1213231,-0.02552 -0.2305581,-0.05256 -0.2427447,-0.0601 -0.012187,-0.0075 -0.056328,-0.02083 -0.098093,-0.02955 -0.4099506,-0.08562 -1.28556,-0.472247 -1.5002709,-0.662448 -0.027135,-0.02404 -0.061223,-0.0437 -0.075751,-0.0437 -0.014528,0 -0.1292178,-0.08437 -0.2548653,-0.1875 -0.1256475,-0.103125 -0.238964,-0.1875 -0.251815,-0.1875 -0.031289,0 -0.6338581,-0.60148 -0.6338581,-0.632713 0,-0.01348 -0.084375,-0.127313 -0.1875,-0.25296 -0.103125,-0.125648 -0.1875,-0.240337 -0.1875,-0.254865 0,-0.01453 -0.019667,-0.04862 -0.043704,-0.07575 C 3.2348453,10.72525 2.8482178,9.8496403 2.7625979,9.4396897 2.7538752,9.3979253 2.7405761,9.3537838 2.7330443,9.3415969 2.7255126,9.3294103 2.6984694,9.2201753 2.6729483,9.0988522 2.5180183,8.3623403 2.5566622,7.1178919 2.7502768,6.6086469 2.7697286,6.5574847 2.7850597,6.5085937 2.784346,6.5 2.7702916,6.3307716 3.2455247,5.262695 3.4250463,5.0600394 3.4490834,5.0329047 3.46875,4.9988169 3.46875,4.9842884 c 0,-0.014528 0.084375,-0.1292178 0.1875,-0.2548653 0.103125,-0.1256475 0.1875,-0.238964 0.1875,-0.251815 0,-0.031289 0.60148,-0.6338581 0.6327128,-0.6338581 0.013481,0 0.1273128,-0.084375 0.2529603,-0.1875 0.1256475,-0.103125 0.2403369,-0.1875 0.2548653,-0.1875 0.014528,0 0.048616,-0.019667 0.075751,-0.043704 C 5.262695,3.2455247 6.3307716,2.7702916 6.5,2.784346 6.5085937,2.7850598 6.5574847,2.7697286 6.6086469,2.7502768 7.0713644,2.5743519 8.1565644,2.5240981 8.96875,2.6409843 c 0.042969,0.00618 0.1625,0.034358 0.265625,0.06261 0.103125,0.028252 0.2085938,0.056698 0.234375,0.063214 0.4638744,0.1172434 1.265251,0.475789 1.471211,0.6582377 0.02713,0.024037 0.06122,0.043704 0.07575,0.043704 0.01453,0 0.129217,0.084375 0.254865,0.1875 0.125647,0.103125 0.239803,0.1875 0.25368,0.1875 0.01388,0 0.08758,0.063533 0.163793,0.1411856 l 0.138563,0.1411856 -0.928931,0.9293191 C 10.386769,5.5665656 9.96875,6.0022509 9.96875,6.0236297 c 0,0.030672 0.530591,0.03887 2.515625,0.03887 H 15 V 3.50799 0.95348012 L 13.969053,1.9840718 12.938107,3.0146634 12.711241,2.7937809 C 12.449716,2.5391538 12.146599,2.2818291 12.106006,2.27998 12.090671,2.2792815 12.029437,2.237094 11.96993,2.18623 11.910423,2.135366 11.84972,2.09375 11.835033,2.09375 c -0.01469,0 -0.07351,-0.035699 -0.130712,-0.079331 C 11.349794,1.7440074 10.021137,1.1858112 9.7109375,1.1769571 9.6636719,1.175608 9.625,1.1642273 9.625,1.1516668 9.625,1.1391063 9.5582031,1.1181092 9.4765625,1.1050064 9.3949219,1.0919037 9.3210937,1.0794436 9.3125,1.0773173 9.3039063,1.0751911 9.2335938,1.0629957 9.15625,1.0502165 8.6402338,0.96495731 7.950955,0.93272744 7.5038337,0.97295147 7.1325116,1.0063565 6.8949213,1.0332849 6.84375,1.0477654 c -0.025781,0.0073 -0.103125,0.021554 -0.171875,0.031684 -0.06875,0.010131 -0.18125,0.033953 -0.25,0.052938 -0.06875,0.018985 -0.1390625,0.036216 -0.15625,0.038292 C 6.2216825,1.175985 5.9844569,1.2448977 5.78125,1.3113876 5.3502637,1.4524076 4.5130894,1.8485917 4.2956791,2.0144185 4.2384741,2.0580508 4.1796537,2.09375 4.1649672,2.09375 c -0.014687,0 -0.075391,0.041616 -0.1348975,0.09248 C 3.9705625,2.237094 3.9098734,2.2792815 3.8952047,2.27998 3.7665319,2.2861073 2.2860483,3.7663684 2.27998,3.8949619 2.2792815,3.9097641 2.237094,3.9705625 2.18623,4.0300697 2.135366,4.0895766 2.09375,4.1502803 2.09375,4.1649672 c 0,0.014686 -0.035699,0.073507 -0.079331,0.1307119 C 1.8485917,4.5130894 1.4524076,5.3502638 1.3113876,5.78125 1.2448977,5.9844569 1.175985,6.2216825 1.1706794,6.265625 c -0.00208,0.017188 -0.019306,0.0875 -0.038292,0.15625 -0.018985,0.06875 -0.042807,0.18125 -0.052938,0.25 -0.010131,0.06875 -0.024389,0.1460938 -0.031684,0.171875 -0.0073,0.025781 -0.021459,0.13125 -0.031473,0.234375 -0.010015,0.103125 -0.0253717,0.2296875 -0.0341263,0.28125 -0.0283205,0.1668006 -0.0353143,0.8679922 -0.0112209,1.125 0.03824,0.4079116 0.062726,0.6220675 0.0768206,0.671875 0.0073,0.025781 0.021554,0.103125 0.031684,0.171875 0.010131,0.06875 0.033756,0.18125 0.0525,0.25 0.018744,0.06875 0.037524,0.1460938 0.041733,0.171875 0.065528,0.401402 0.5949659,1.6321 0.8407356,1.954321 0.043632,0.0572 0.079331,0.116025 0.079331,0.130712 0,0.01469 0.041616,0.07539 0.09248,0.134897 0.050864,0.05951 0.093052,0.120197 0.09375,0.134865 0.00613,0.128673 1.4863884,1.609157 1.6149819,1.615225 0.014802,7e-4 0.075601,0.04289 0.1351078,0.09375 0.059507,0.05086 0.1202106,0.09248 0.1348975,0.09248 0.014686,0 0.073507,0.0357 0.1307119,0.07933 0.3222206,0.245769 1.5529193,0.775207 1.9543209,0.840735 0.025781,0.0042 0.103125,0.02299 0.171875,0.04173 0.06875,0.01874 0.18125,0.04237 0.25,0.0525 0.06875,0.01013 0.1460938,0.02439 0.171875,0.03168 0.049681,0.01406 0.2711084,0.03974 0.65625,0.07612 0.2461462,0.02325 0.9803591,0.01641 1.140625,-0.01062 z M 8.378825,8.8863334 C 8.5861606,8.7904647 8.7662213,8.6149719 8.8662569,8.4112669 L 8.953125,8.234375 V 6.015625 3.796875 L 8.8662569,3.6199831 C 8.6977419,3.2768316 8.3913,3.0835977 8.015625,3.0835977 c -0.375675,0 -0.6821169,0.1932339 -0.8506319,0.5363854 l -0.086868,0.1768919 -0.00936,1.6312434 -0.00936,1.6312438 -1.600019,0.00938 -1.6000194,0.00938 -0.1768919,0.086868 C 3.1126259,7.4448318 2.9618698,8.1653277 3.374767,8.6355918 c 0.1281491,0.1459537 0.3275394,0.2645184 0.5048113,0.3001787 0.074821,0.015051 1.0852571,0.025113 2.2454134,0.022359 2.0833578,-0.00495 2.1111566,-0.00583 2.253825,-0.071799 z"
       id="path823"
       inkscape:connector-curvature="0" />
    <path
       style="fill:#fefefe;stroke-width:0.000357143"
       d="m 7.5,15.028357 c -0.3851416,-0.03638 -0.6065691,-0.06206 -0.65625,-0.07612 -0.025781,-0.0073 -0.103125,-0.02155 -0.171875,-0.03168 -0.06875,-0.01013 -0.18125,-0.03376 -0.25,-0.0525 C 6.353125,14.849306 6.2757812,14.830526 6.25,14.826317 5.8485984,14.760789 4.6178997,14.231351 4.2956791,13.985582 4.2384741,13.941949 4.1796537,13.90625 4.1649672,13.90625 c -0.014687,0 -0.075391,-0.04162 -0.1348975,-0.09248 C 3.9705625,13.762906 3.9097641,13.720718 3.8949619,13.72002 3.7663684,13.713952 2.2861073,12.233468 2.27998,12.104795 2.2792815,12.090127 2.237094,12.029438 2.18623,11.96993 2.135366,11.910423 2.09375,11.84972 2.09375,11.835033 c 0,-0.01469 -0.035699,-0.07351 -0.079331,-0.130712 C 1.7686488,11.3821 1.2392106,10.151402 1.1736829,9.75 1.1694742,9.7242188 1.1506945,9.646875 1.1319501,9.578125 c -0.018744,-0.06875 -0.04237,-0.18125 -0.0525,-0.25 C 1.0693189,9.259375 1.0550609,9.1820313 1.0477654,9.15625 1.0336708,9.1064425 1.0091848,8.8922866 0.97094484,8.484375 0.94685147,8.2273672 0.95384525,7.5261756 0.98216575,7.359375 0.99092034,7.3078125 1.0062772,7.18125 1.016292,7.078125 1.0263068,6.975 1.0404698,6.8695312 1.0477654,6.84375 c 0.0073,-0.025781 0.021554,-0.103125 0.031684,-0.171875 0.010131,-0.06875 0.033953,-0.18125 0.052938,-0.25 0.018985,-0.06875 0.036216,-0.1390625 0.038292,-0.15625 C 1.175985,6.2216825 1.2448977,5.9844569 1.3113876,5.78125 1.4524076,5.3502637 1.8485917,4.5130894 2.0144185,4.2956791 2.0580508,4.2384741 2.09375,4.1796537 2.09375,4.1649672 c 0,-0.014687 0.041616,-0.075391 0.09248,-0.1348975 C 2.237094,3.9705625 2.2792815,3.9097641 2.27998,3.8949619 2.2860483,3.7663684 3.7665319,2.2861073 3.8952047,2.27998 3.9098734,2.2792815 3.9705625,2.237094 4.0300697,2.18623 4.0895766,2.135366 4.1502803,2.09375 4.1649672,2.09375 c 0.014686,0 0.073507,-0.035699 0.1307119,-0.079331 C 4.5130894,1.8485917 5.3502638,1.4524076 5.78125,1.3113876 5.9844569,1.2448977 6.2216825,1.175985 6.265625,1.1706794 c 0.017188,-0.00208 0.0875,-0.019306 0.15625,-0.038292 0.06875,-0.018985 0.18125,-0.042807 0.25,-0.052938 0.06875,-0.010131 0.1460938,-0.024389 0.171875,-0.031684 0.051171,-0.014481 0.2887616,-0.041409 0.6600837,-0.0748139 0.4471213,-0.040224 1.1364001,-0.007994 1.6524163,0.077265 0.077344,0.012779 0.1476563,0.024975 0.15625,0.027101 0.00859,0.00213 0.082422,0.014586 0.1640625,0.027689 0.081641,0.013103 0.1484375,0.0341 0.1484375,0.04666 0,0.01256 0.038672,0.023941 0.085937,0.02529 0.310199,0.00885 1.638856,0.5670503 1.993384,0.8374614 0.0572,0.043632 0.116025,0.079331 0.130712,0.079331 0.01469,0 0.07539,0.041616 0.134897,0.09248 0.05951,0.050864 0.120741,0.093052 0.136076,0.09375 0.04059,0.00185 0.34371,0.2591738 0.605235,0.5138009 L 12.938107,3.0146634 13.969053,1.9840718 15,0.95348012 V 3.50799 6.0625 h -2.515625 c -1.985034,0 -2.515625,-0.0082 -2.515625,-0.03887 0,-0.021379 0.418019,-0.4570641 0.928932,-0.9681894 L 11.826613,4.1261212 11.68805,3.9849356 C 11.61184,3.9072834 11.538133,3.84375 11.524257,3.84375 c -0.01388,0 -0.128033,-0.084375 -0.25368,-0.1875 -0.125648,-0.103125 -0.240337,-0.1875 -0.254865,-0.1875 -0.01453,0 -0.04862,-0.019667 -0.07575,-0.043704 C 10.734001,3.2425975 9.9326244,2.8840519 9.46875,2.7668085 9.4429688,2.7602923 9.3375,2.7318459 9.234375,2.7035943 9.13125,2.6753427 9.0117188,2.6471682 8.96875,2.6409843 8.1565644,2.5240981 7.0713644,2.5743519 6.6086469,2.7502768 6.5574847,2.7697286 6.5085937,2.7850597 6.5,2.784346 6.3307716,2.7702916 5.262695,3.2455247 5.0600394,3.4250463 5.0329047,3.4490834 4.9988169,3.46875 4.9842884,3.46875 c -0.014528,0 -0.1292178,0.084375 -0.2548653,0.1875 -0.1256475,0.103125 -0.2394797,0.1875 -0.2529603,0.1875 -0.031233,0 -0.6327128,0.6025687 -0.6327128,0.6338581 0,0.012851 -0.084375,0.1261675 -0.1875,0.251815 -0.103125,0.1256475 -0.1875,0.2403369 -0.1875,0.2548653 0,0.014528 -0.019667,0.048616 -0.043704,0.075751 C 3.2455247,5.262695 2.7702916,6.3307716 2.784346,6.5 2.7850598,6.50859 2.769729,6.557485 2.750277,6.6086469 2.5566624,7.1178919 2.5180184,8.3623403 2.672948,9.0988522 c 0.025521,0.1213231 0.052564,0.2305581 0.060096,0.2427447 0.00753,0.012187 0.020831,0.056328 0.029554,0.098093 0.08562,0.4099506 0.4722474,1.2855601 0.6624483,1.5002711 0.024037,0.02713 0.043704,0.06122 0.043704,0.07575 0,0.01453 0.084375,0.129217 0.1875,0.254865 0.103125,0.125647 0.1875,0.23948 0.1875,0.25296 0,0.03123 0.6025687,0.632713 0.6338581,0.632713 0.012851,0 0.1261675,0.08437 0.251815,0.1875 0.1256475,0.103125 0.2403369,0.1875 0.2548653,0.1875 0.014528,0 0.048616,0.01967 0.075751,0.0437 0.2147109,0.190201 1.0903203,0.576828 1.5002709,0.662448 0.041764,0.0087 0.085906,0.02202 0.098093,0.02955 0.046205,0.02856 0.4731578,0.107473 0.7071519,0.130708 0.5379219,0.05341 1.2891891,0.02281 1.7332972,-0.07061 0.1213231,-0.02552 0.2305581,-0.05256 0.2427447,-0.0601 0.012187,-0.0075 0.056328,-0.02083 0.098093,-0.02955 0.4099506,-0.08562 1.2855606,-0.472247 1.5002716,-0.662448 0.02713,-0.02404 0.06122,-0.0437 0.07575,-0.0437 0.01453,0 0.129217,-0.08437 0.254865,-0.1875 0.125647,-0.103125 0.238773,-0.1875 0.251391,-0.1875 0.01262,0 0.09743,-0.07356 0.188469,-0.163471 l 0.165526,-0.163471 0.55366,0.55366 0.553659,0.553659 -0.186954,0.190465 c -0.207908,0.211812 -0.650102,0.590955 -0.691533,0.592928 -0.01467,7e-4 -0.07536,0.04289 -0.134865,0.09375 -0.05951,0.05086 -0.12021,0.09248 -0.134897,0.09248 -0.01469,0 -0.07351,0.0357 -0.130712,0.07933 -0.21741,0.165826 -1.054585,0.56201 -1.485571,0.70303 -0.203207,0.06649 -0.4404328,0.135403 -0.4843753,0.140709 -0.017188,0.0021 -0.0875,0.01931 -0.15625,0.03829 -0.06875,0.01899 -0.18125,0.04281 -0.25,0.05294 -0.06875,0.01013 -0.1460938,0.02439 -0.171875,0.03168 -0.025781,0.0073 -0.13125,0.02146 -0.234375,0.03147 -0.103125,0.01001 -0.2296875,0.02533 -0.28125,0.03402 -0.1602659,0.02703 -0.8944788,0.03387 -1.140625,0.01062 z"
       id="path821"
       inkscape:connector-curvature="0" />
    <path
       style="fill:#98cbfe;stroke-width:0.000357143"
       d="M 3.8795866,8.9357734 C 3.4541663,8.850195 3.1460975,8.4637284 3.1460975,8.015625 c 0,-0.375675 0.1932341,-0.6821169 0.5363856,-0.8506319 l 0.1768919,-0.086868 1.6000194,-0.00938 1.600019,-0.00938 0.00936,-1.6312438 0.00936,-1.6312434 0.086868,-0.1768919 C 7.3335081,3.2768316 7.63995,3.0835977 8.015625,3.0835977 c 0.375675,0 0.6821169,0.1932339 0.8506319,0.5363854 L 8.953125,3.796875 v 2.21875 2.21875 L 8.8662569,8.4112669 C 8.7662212,8.6149719 8.5861606,8.7904647 8.378825,8.8863334 8.2361566,8.9523013 8.2083578,8.9531869 6.125,8.9581322 4.9648437,8.9608853 3.9544075,8.9508247 3.8795866,8.9357734 Z"
       id="path819"
       inkscape:connector-curvature="0" />
  </g>
</svg>
