<?xml version="1.0" encoding="UTF-8" standalone="no"?>
<!-- Created with Inkscape (http://www.inkscape.org/) -->

<svg
   version="1.1"
   id="svg2"
   width="1600"
   height="1600"
   viewBox="0 0 1600 1600"
   sodipodi:docname="home.svg"
   inkscape:version="1.2.2 (732a01da63, 2022-12-09)"
   xmlns:inkscape="http://www.inkscape.org/namespaces/inkscape"
   xmlns:sodipodi="http://sodipodi.sourceforge.net/DTD/sodipodi-0.dtd"
   xmlns="http://www.w3.org/2000/svg"
   xmlns:svg="http://www.w3.org/2000/svg"
   xmlns:rdf="http://www.w3.org/1999/02/22-rdf-syntax-ns#"
   xmlns:cc="http://creativecommons.org/ns#"
   xmlns:dc="http://purl.org/dc/elements/1.1/">
  <metadata
     id="metadata8">
    <rdf:RDF>
      <cc:Work
         rdf:about="">
        <dc:format>image/svg+xml</dc:format>
        <dc:type
           rdf:resource="http://purl.org/dc/dcmitype/StillImage" />
      </cc:Work>
    </rdf:RDF>
  </metadata>
  <defs
     id="defs6" />
  <sodipodi:namedview
     pagecolor="#808080"
     bordercolor="#666666"
     borderopacity="1"
     objecttolerance="10"
     gridtolerance="10"
     guidetolerance="10"
     inkscape:pageopacity="0"
     inkscape:pageshadow="2"
     inkscape:window-width="1993"
     inkscape:window-height="1009"
     id="namedview4"
     showgrid="false"
     inkscape:zoom="0.5"
     inkscape:cx="375"
     inkscape:cy="780"
     inkscape:window-x="-8"
     inkscape:window-y="-8"
     inkscape:window-maximized="1"
     inkscape:current-layer="HOME"
     inkscape:showpageshadow="0"
     inkscape:pagecheckerboard="true"
     inkscape:deskcolor="#d1d1d1" />
  <g
     id="HOME"
     transform="matrix(100,0,0,100,0,4.9999997e-5)"
     style="stroke-width:0.0114286">
    <path
       style="fill:none;stroke-width:0.000357143"
       d="M 0,8 V 0 h 8 8 v 8 8 H 8 0 Z m 13,3.666594 V 8.3331875 l 0.231583,0.2245534 c 0.28806,0.2793157 0.454598,0.3586616 0.752792,0.3586616 0.373893,0 0.682573,-0.1935459 0.848028,-0.5317228 0.06767,-0.1383063 0.08424,-0.2162344 0.08413,-0.3956422 -2.18e-4,-0.3878884 -0.02498,-0.4222678 -1.027436,-1.4272416 L 13,5.6704672 V 3.8352334 2 H 12 11 V 2.8354051 3.67081 L 9.7734375,2.4461866 C 8.4012313,1.0761495 8.4109994,1.0837021 8.0109625,1.0834655 7.5970412,1.0832207 7.7894894,0.91134866 4.3527637,4.3505397 0.92028041,7.7854856 1.1149653,7.5667241 1.1147155,7.9890375 c -3.125e-4,0.52686 0.402264,0.927365 0.9321595,0.927365 0.2928703,0 0.4643107,-0.079746 0.7366236,-0.3426419 L 3,8.3647463 V 11.682373 15 h 5 5 z"
       id="path827"
       inkscape:connector-curvature="0" />
    <path
       style="fill:#fefefe;stroke-width:0.000357143"
       d="M 3,11.679615 V 8.3592294 L 5.5078944,5.85148 8.0157887,3.3437309 10.007894,5.3360188 12,7.3283066 V 11.164153 15 H 11 10 V 12 9 H 8 6 v 3 3 H 4.5 3 Z"
       id="path825"
       inkscape:connector-curvature="0" />
    <path
       style="fill:#cbcbcb;stroke-width:0.000357143"
       d="M 12,11.164429 V 7.3288575 L 12.5,7.828125 13,8.3273925 V 11.663696 15 H 12.5 12 Z M 11.992004,4.6638822 11,3.6715144 V 2.8357572 2 h 1 1 v 1.828125 c 0,1.0054688 -0.0036,1.828125 -0.008,1.828125 -0.0044,0 -0.454397,-0.4465656 -1,-0.9923678 z"
       id="path823"
       inkscape:connector-curvature="0" />
    <path
       style="fill:#656565;stroke-width:0.000357143"
       d="M 6,12 V 9 h 2 2 v 3 3 H 8 6 Z"
       id="path821"
       inkscape:connector-curvature="0" />
    <path
       style="fill:#983200;stroke-width:0.000357143"
       d="M 1.8483364,8.9048059 C 1.4203534,8.8178231 1.1149835,8.4327528 1.1147155,7.9797125 1.1144707,7.5657912 0.94259866,7.7582394 4.3817897,4.3215137 7.8125828,0.89318019 7.5988819,1.0835977 8.015625,1.0835977 c 0.4167431,0 0.2030422,-0.19041751 3.633835,3.237916 2.554567,2.5527357 3.117124,3.1298966 3.184896,3.2675738 0.173479,0.3524203 0.0818,0.8160313 -0.214274,1.0835131 -0.191042,0.1725947 -0.376713,0.2438019 -0.635707,0.2438019 -0.414578,0 -0.241209,0.1522919 -3.250155,-2.8550359 L 8.0153159,3.3439238 5.3123453,6.0479288 C 3.1510259,8.2100756 2.5780639,8.7669406 2.453125,8.8268228 2.2709005,8.9141612 2.0405263,8.9438662 1.8483364,8.9048059 Z"
       id="path819"
       inkscape:connector-curvature="0" />
  </g>
</svg>
