<?xml version="1.0" encoding="UTF-8" standalone="no"?>
<!-- Created with Inkscape (http://www.inkscape.org/) -->

<svg
   version="1.1"
   id="svg2"
   width="1600"
   height="1600"
   viewBox="0 0 1600 1600"
   sodipodi:docname="hook_select.svg"
   inkscape:version="1.2.2 (732a01da63, 2022-12-09)"
   xmlns:inkscape="http://www.inkscape.org/namespaces/inkscape"
   xmlns:sodipodi="http://sodipodi.sourceforge.net/DTD/sodipodi-0.dtd"
   xmlns="http://www.w3.org/2000/svg"
   xmlns:svg="http://www.w3.org/2000/svg"
   xmlns:rdf="http://www.w3.org/1999/02/22-rdf-syntax-ns#"
   xmlns:cc="http://creativecommons.org/ns#"
   xmlns:dc="http://purl.org/dc/elements/1.1/">
  <metadata
     id="metadata8">
    <rdf:RDF>
      <cc:Work
         rdf:about="">
        <dc:format>image/svg+xml</dc:format>
        <dc:type
           rdf:resource="http://purl.org/dc/dcmitype/StillImage" />
      </cc:Work>
    </rdf:RDF>
  </metadata>
  <defs
     id="defs6" />
  <sodipodi:namedview
     pagecolor="#808080"
     bordercolor="#666666"
     borderopacity="1"
     objecttolerance="10"
     gridtolerance="10"
     guidetolerance="10"
     inkscape:pageopacity="0"
     inkscape:pageshadow="2"
     inkscape:window-width="1993"
     inkscape:window-height="1009"
     id="namedview4"
     showgrid="false"
     inkscape:zoom="0.5"
     inkscape:cx="535"
     inkscape:cy="426"
     inkscape:window-x="-8"
     inkscape:window-y="-8"
     inkscape:window-maximized="1"
     inkscape:current-layer="HOOK_SELECT"
     inkscape:showpageshadow="0"
     inkscape:pagecheckerboard="true"
     inkscape:deskcolor="#d1d1d1" />
  <g
     id="HOOK_SELECT"
     transform="matrix(100,0,0,100,0,4.9999997e-5)"
     style="stroke-width:0.0114286">
    <path
       style="fill:none;stroke-width:0.000357143"
       d="M 0,8 V 0 h 8 8 v 8 8 H 8 0 Z m 12.199308,7.202917 c 1.429273,-0.249244 2.473612,-1.200167 2.741008,-2.495824 0.04863,-0.235621 0.05893,-0.42467 0.05927,-1.087156 5.85e-4,-1.139262 -0.04538,-1.338098 -0.457522,-1.979312 C 14.420546,9.4515625 14.248868,9.1683859 14.16056,9.0113438 L 14,8.7258125 V 8.2293375 7.7328628 l 0.192281,-0.1398691 c 0.751303,-0.5465103 1.004814,-1.6034384 0.587677,-2.4501112 -0.47115,-0.9563019 -1.643234,-1.3636003 -2.609114,-0.9066659 -0.987853,0.4673293 -1.402901,1.6704756 -0.916851,2.6577818 0.122392,0.2486147 0.381986,0.559051 0.585149,0.6997516 l 0.157931,0.109375 0.0015,0.7898425 0.0015,0.7898428 0.113194,0.2247744 c 0.196891,0.3909744 0.418556,0.7786123 0.640047,1.1192863 l 0.214549,0.329997 0.0017,0.638753 c 0.002,0.735512 -0.02468,0.872923 -0.216361,1.115423 C 12.500336,13.030943 12.137107,13.187332 11.593,13.21057 11.035192,13.23439 10.63369,13.105361 10.334421,12.806092 10.137246,12.608973 10.072053,12.452899 10.020026,12.053553 9.9943813,11.856713 9.9496016,11.66768 9.9085078,11.582792 9.8201419,11.400253 9.6294791,11.21047 9.4435881,11.120018 9.2660344,11.033624 8.9328506,11.00693 8.732435,11.063043 c -0.2803213,0.07848 -0.5543853,0.341236 -0.6558291,0.628758 -0.082925,0.235034 -0.091665,0.657479 -0.020677,0.999406 0.2705069,1.302955 1.3000175,2.25287 2.7201431,2.509838 0.328917,0.05952 1.086957,0.06051 1.423235,0.0019 z M 4.7319559,12.83115 c 0.057722,-0.02412 0.4859869,-0.270544 0.9517003,-0.547613 0.6390244,-0.380179 0.8583547,-0.5262 0.8940479,-0.595223 C 6.6856928,11.479487 6.6658756,11.425185 5.984375,10.0625 5.6320312,9.3579763 5.34375,8.7674181 5.34375,8.7501487 c 0,-0.020444 0.3881075,-0.031399 1.1123659,-0.031399 1.2188707,0 1.2255897,-9.5e-4 1.3365235,-0.1887447 C 7.8522828,8.4290366 7.8581175,8.201675 7.80358,8.1036653 7.7827047,8.06615 6.2781606,6.4318425 4.4601484,4.4718709 0.83989784,0.568933 1.0543607,0.77889762 0.79059731,0.87928672 0.72387266,0.90468231 0.64219191,0.969616 0.60205944,1.0291686 L 0.53125,1.1342427 v 5.1077445 c 0,4.6722458 0.004358,5.1151218 0.0511107,5.1942678 0.10309762,0.174531 0.3794844,0.252112 0.5403638,0.151679 0.036175,-0.02258 0.446654,-0.438325 0.9121764,-0.923871 0.4655225,-0.485547 0.8555326,-0.8826199 0.8666893,-0.8823836 0.011157,2.5e-4 0.3226285,0.6547866 0.6921598,1.4545556 0.3695312,0.79977 0.7016778,1.482333 0.7381031,1.516806 0.056524,0.0535 0.1842531,0.109771 0.2707131,0.119273 0.013443,0.0015 0.071668,-0.01705 0.1293897,-0.04116 z"
       id="path827"
       inkscape:connector-curvature="0" />
    <path
       style="fill:#fefefe;stroke-width:0.000357143"
       d="M 4.6607784,11.58942 C 4.5943312,11.445708 4.2768906,10.758594 3.9553544,10.0625 3.3001778,8.6441084 3.2881647,8.6256966 3.0168054,8.6240378 L 2.859375,8.6230753 2.1022872,9.3974753 1.3451994,10.171875 1.3444747,6.2507103 1.34375,2.3295455 1.417331,2.4069605 c 0.040469,0.042578 0.9650789,1.0399526 2.0546875,2.2163876 1.0896088,1.176435 2.2101572,2.38581 2.4901082,2.6875 L 6.4711281,7.859375 5.5090016,7.875 C 4.8636641,7.8854803 4.5262962,7.9025419 4.484375,7.9268181 4.3558478,8.0012469 4.2740225,8.1210081 4.2586769,8.2571556 4.2442994,8.3847119 4.2884094,8.4833203 4.9654213,9.8370934 5.3625644,10.631233 5.6875,11.286266 5.6875,11.292721 c 0,0.0065 -0.1722656,0.114363 -0.3828125,0.239795 -0.2105469,0.125433 -0.4143763,0.248341 -0.4529544,0.273129 -0.068494,0.04401 -0.072981,0.03893 -0.1909547,-0.216225 z"
       id="path825"
       inkscape:connector-curvature="0" />
    <path
       style="fill:#fefe00;stroke-width:0.000357143"
       d="M 10.776072,15.201045 C 9.3559475,14.944077 8.3264369,13.994162 8.05593,12.691207 7.984942,12.34928 7.993683,11.926835 8.076607,11.691801 c 0.1014437,-0.287522 0.3755078,-0.550273 0.6558291,-0.628758 0.2004156,-0.05611 0.5335993,-0.02942 0.7111531,0.05697 0.1858909,0.09045 0.3765537,0.280235 0.4649197,0.462774 0.041094,0.08489 0.085873,0.273921 0.1115181,0.470761 0.05203,0.399346 0.11722,0.55542 0.314339,0.752539 0.299269,0.299269 0.700771,0.428302 1.258578,0.404478 0.544108,-0.02324 0.907337,-0.179627 1.160203,-0.499526 0.191684,-0.2425 0.218339,-0.379911 0.21636,-1.115423 l -0.0017,-0.638753 -0.214548,-0.329997 C 12.53175,10.286197 12.310085,9.8985591 12.113193,9.5075847 L 12,9.2828103 11.998536,8.4929675 11.997073,7.703125 11.839142,7.59375 C 11.75228,7.5335937 11.60673,7.3955028 11.515697,7.2868809 11.204698,6.9157944 11.05295,6.4989131 11.05295,6.015625 c 0,-1.0991487 0.863526,-1.9626747 1.962675,-1.9626747 1.099149,0 1.962675,0.863526 1.962675,1.9626747 0,0.6309934 -0.292811,1.2186006 -0.786019,1.5773687 L 14,7.7328628 v 0.4964747 0.496475 l 0.16056,0.2855313 c 0.08831,0.1570421 0.259986,0.4402187 0.381507,0.6292812 0.412145,0.641214 0.458106,0.84005 0.457522,1.979312 -3.4e-4,0.662486 -0.01065,0.851535 -0.05927,1.087156 -0.267396,1.295657 -1.311735,2.24658 -2.741008,2.495824 -0.336278,0.05864 -1.094318,0.05765 -1.423236,-0.0019 z M 13.44359,6.9117903 c 0.187048,-0.091727 0.376176,-0.2807269 0.468519,-0.4682006 0.104034,-0.2112097 0.104034,-0.6447197 0,-0.8559294 -0.09224,-0.1872581 -0.281261,-0.3762828 -0.468519,-0.468519 -0.21121,-0.1040341 -0.64472,-0.1040341 -0.85593,0 -0.187852,0.092529 -0.376805,0.2818365 -0.467642,0.468519 -0.08639,0.1775538 -0.113088,0.5107375 -0.05697,0.7111531 0.07607,0.2717163 0.336166,0.5489291 0.613901,0.6543172 0.184362,0.069957 0.583589,0.048429 0.766646,-0.04134 z"
       id="path823"
       inkscape:connector-curvature="0" />
    <path
       style="fill:#323232;stroke-width:0.000357143"
       d="M 4.4881031,12.842674 C 4.4385912,12.82785 4.3682787,12.787515 4.3318531,12.753041 4.2954278,12.718568 3.9632813,12.036005 3.59375,11.236235 3.2242188,10.436466 2.9127468,9.7819153 2.9015902,9.7816794 2.8904335,9.7814431 2.5004234,10.178516 2.0349009,10.664063 1.5693785,11.149609 1.1588991,11.565352 1.1227245,11.587934 0.96184506,11.688367 0.68545828,11.610786 0.58236066,11.436255 0.53560781,11.357109 0.53125,10.914233 0.53125,6.2419872 V 1.1342427 L 0.60205944,1.0291686 C 0.64219191,0.969616 0.72387266,0.90468231 0.79059731,0.87928672 1.0543607,0.77889763 0.83989784,0.568933 4.4601484,4.4718709 6.2781606,6.4318425 7.7827047,8.06615 7.80358,8.1036653 7.858117,8.2016753 7.852283,8.4290366 7.792639,8.5300053 7.6817056,8.7178013 7.6749866,8.71875 6.4561159,8.71875 5.7318575,8.71875 5.34375,8.729705 5.34375,8.750149 c 0,0.017269 0.2882812,0.6078276 0.640625,1.312351 0.6815006,1.362685 0.7013178,1.416987 0.5933291,1.625814 -0.064072,0.123902 -1.8546135,1.197245 -1.9751379,1.184 -0.013443,-0.0015 -0.064951,-0.01481 -0.1144631,-0.02964 z M 5.3046875,11.532516 C 5.5152344,11.407084 5.6875,11.299176 5.6875,11.292721 5.6875,11.286266 5.3625644,10.631233 4.9654213,9.8370934 4.2884094,8.4833203 4.2442994,8.3847119 4.2586769,8.2571556 4.2740225,8.1210081 4.3558478,8.0012469 4.484375,7.9268181 4.5262963,7.9025419 4.8636641,7.8854803 5.5090016,7.875 L 6.4711281,7.859375 5.9621266,7.3108478 C 5.6821756,7.0091578 4.5616272,5.7997828 3.4720184,4.6233478 2.3824098,3.4469128 1.4578004,2.4495383 1.4173309,2.4069602 l -0.073581,-0.077415 7.247e-4,3.9211648 7.247e-4,3.921165 0.7570878,-0.7744 0.7570878,-0.7744 0.1574304,9.625e-4 c 0.2713593,0.00166 0.2833724,0.020071 0.938549,1.4384625 0.3215362,0.696094 0.6389768,1.383208 0.705424,1.52692 0.1179735,0.255154 0.122461,0.260236 0.1909547,0.216225 0.038578,-0.02479 0.2424075,-0.147696 0.4529545,-0.273129 z"
       id="path821"
       inkscape:connector-curvature="0" />
    <path
       style="fill:#650000;stroke-width:0.000357143"
       d="M 12.676944,6.9531306 C 12.399209,6.8477425 12.139118,6.5705297 12.063043,6.2988134 12.00693,6.0983978 12.033624,5.7652141 12.120018,5.5876603 12.210855,5.4009778 12.399808,5.21167 12.58766,5.1191412 c 0.21121,-0.104034 0.64472,-0.104034 0.85593,0 0.187258,0.092236 0.376282,0.281261 0.468519,0.4685191 0.104034,0.2112097 0.104034,0.6447197 0,0.8559294 -0.09234,0.1874737 -0.281471,0.376474 -0.468519,0.4682006 -0.183057,0.089769 -0.582284,0.1112972 -0.766646,0.04134 z"
       id="path819"
       inkscape:connector-curvature="0" />
  </g>
</svg>
