<?xml version="1.0" encoding="UTF-8" standalone="no"?>
<!-- Created with Inkscape (http://www.inkscape.org/) -->

<svg
   version="1.1"
   id="svg2"
   width="1600"
   height="1600"
   viewBox="0 0 1600 1600"
   sodipodi:docname="hook_selected.svg"
   inkscape:version="1.2.2 (732a01da63, 2022-12-09)"
   xmlns:inkscape="http://www.inkscape.org/namespaces/inkscape"
   xmlns:sodipodi="http://sodipodi.sourceforge.net/DTD/sodipodi-0.dtd"
   xmlns="http://www.w3.org/2000/svg"
   xmlns:svg="http://www.w3.org/2000/svg"
   xmlns:rdf="http://www.w3.org/1999/02/22-rdf-syntax-ns#"
   xmlns:cc="http://creativecommons.org/ns#"
   xmlns:dc="http://purl.org/dc/elements/1.1/">
  <metadata
     id="metadata8">
    <rdf:RDF>
      <cc:Work
         rdf:about="">
        <dc:format>image/svg+xml</dc:format>
        <dc:type
           rdf:resource="http://purl.org/dc/dcmitype/StillImage" />
      </cc:Work>
    </rdf:RDF>
  </metadata>
  <defs
     id="defs6" />
  <sodipodi:namedview
     pagecolor="#808080"
     bordercolor="#666666"
     borderopacity="1"
     objecttolerance="10"
     gridtolerance="10"
     guidetolerance="10"
     inkscape:pageopacity="0"
     inkscape:pageshadow="2"
     inkscape:window-width="1993"
     inkscape:window-height="1009"
     id="namedview4"
     showgrid="false"
     inkscape:zoom="0.5"
     inkscape:cx="187"
     inkscape:cy="272"
     inkscape:window-x="-8"
     inkscape:window-y="-8"
     inkscape:window-maximized="1"
     inkscape:current-layer="HOOK_SELECTED"
     inkscape:showpageshadow="0"
     inkscape:pagecheckerboard="true"
     inkscape:deskcolor="#d1d1d1" />
  <g
     id="HOOK_SELECTED"
     transform="matrix(100,0,0,100,0,4.9999997e-5)"
     style="stroke-width:0.0114286">
    <path
       style="fill:none;stroke-width:0.000357143"
       d="M 0,8 V 0 h 8 8 v 8 8 H 8 0 Z M 8.2158328,15.2174 8.3535406,15.154923 8.10284,14.897774 C 7.6417463,14.42482 7.2883216,13.790202 7.1001575,13.097329 7.0260944,12.824607 7.0185169,12.743513 7.0180625,12.21875 c -4.781e-4,-0.551576 0.00348,-0.589606 0.086156,-0.828125 0.086711,-0.250159 0.2186853,-0.48019 0.414904,-0.723179 0.1534903,-0.190076 0.5775822,-0.462969 0.8697325,-0.559651 0.2310969,-0.07648 0.2785503,-0.08128 0.6875,-0.06959 0.3859319,0.01103 0.4658313,0.02288 0.6580197,0.09761 0.3435623,0.133587 0.6856503,0.397728 0.8970473,0.692647 0.219665,0.306453 0.331144,0.595123 0.380018,0.984043 l 0.03731,0.296875 0.155314,0.05523 c 0.182644,0.06494 0.46853,0.05682 0.647501,-0.01841 l 0.117187,-0.04926 V 11.69017 11.283401 L 11.800527,11.024513 C 11.599483,10.715114 11.317878,10.209598 11.142766,9.84375 l -0.127141,-0.265625 -0.0101,-0.6699944 -0.0101,-0.6699943 -0.15934,-0.1737557 C 10.490418,7.6874384 10.197791,7.1289319 10.090117,6.640625 c -0.05376,-0.2437859 -0.05376,-1.0062141 0,-1.25 0.11617,-0.5268353 0.434292,-1.1089997 0.8129,-1.4876078 0.402089,-0.4020891 1.03322,-0.735076 1.548678,-0.8170891 L 12.679803,3.0496347 10.383686,1.8998173 C 9.1208209,1.2674178 8.0566894,0.75 8.0189484,0.75 7.9044769,0.75 1.8894337,3.7686675 1.8147718,3.8635847 L 1.75,3.9459288 V 8.015625 c 0,4.060192 1.5e-4,4.069887 0.064292,4.151431 0.072875,0.09264 6.0905606,3.11468 6.1998344,3.113508 0.035199,-3.78e-4 0.1259668,-0.0288 0.2017062,-0.06316 z m 3.9834752,-0.01448 c 1.429273,-0.249244 2.473612,-1.200167 2.741008,-2.495824 0.04863,-0.235621 0.05893,-0.42467 0.05927,-1.087156 5.85e-4,-1.139262 -0.04538,-1.338098 -0.457522,-1.979312 C 14.420546,9.4515625 14.248868,9.1683859 14.16056,9.0113438 L 14,8.7258125 V 8.2293375 7.7328628 l 0.192281,-0.1398691 c 0.751303,-0.5465103 1.004814,-1.6034384 0.587677,-2.4501112 -0.47115,-0.9563019 -1.643234,-1.3636003 -2.609114,-0.9066659 -0.987853,0.4673293 -1.402901,1.6704756 -0.916851,2.6577818 0.122392,0.2486147 0.381986,0.559051 0.585149,0.6997516 l 0.157931,0.109375 0.0015,0.7898425 0.0015,0.7898428 0.113194,0.2247744 c 0.196891,0.3909744 0.418556,0.7786123 0.640047,1.1192863 l 0.214549,0.329997 0.0017,0.638753 c 0.002,0.735512 -0.02468,0.872923 -0.216361,1.115423 C 12.500336,13.030943 12.137107,13.187332 11.593,13.21057 11.035192,13.23439 10.63369,13.105361 10.334421,12.806092 10.137246,12.608973 10.072053,12.452899 10.020026,12.053553 9.9943813,11.856713 9.9496016,11.66768 9.9085078,11.582792 9.8201419,11.400253 9.6294791,11.21047 9.4435881,11.120018 9.2660344,11.033624 8.9328506,11.00693 8.732435,11.063043 c -0.2803213,0.07848 -0.5543853,0.341236 -0.6558291,0.628758 -0.082925,0.235034 -0.091665,0.657479 -0.020677,0.999406 0.2705069,1.302955 1.3000175,2.25287 2.7201431,2.509838 0.328917,0.05952 1.086957,0.06051 1.423235,0.0019 z"
       id="path827"
       inkscape:connector-curvature="0" />
    <path
       style="fill:#fefe00;stroke-width:0.000357143"
       d="M 10.776072,15.201045 C 9.3559475,14.944077 8.3264369,13.994162 8.05593,12.691207 7.984942,12.34928 7.993683,11.926835 8.076607,11.691801 c 0.1014437,-0.287522 0.3755078,-0.550273 0.6558291,-0.628758 0.2004156,-0.05611 0.5335993,-0.02942 0.7111531,0.05697 0.1858909,0.09045 0.3765537,0.280235 0.4649197,0.462774 0.041094,0.08489 0.085873,0.273921 0.1115181,0.470761 0.05203,0.399346 0.11722,0.55542 0.314339,0.752539 0.299269,0.299269 0.700771,0.428302 1.258578,0.404478 0.544108,-0.02324 0.907337,-0.179627 1.160203,-0.499526 0.191684,-0.2425 0.218339,-0.379911 0.21636,-1.115423 l -0.0017,-0.638753 -0.214548,-0.329997 C 12.53175,10.286197 12.310085,9.8985591 12.113193,9.5075847 L 12,9.2828103 11.998536,8.4929675 11.997073,7.703125 11.839142,7.59375 C 11.75228,7.5335937 11.60673,7.3955028 11.515697,7.2868809 11.204698,6.9157944 11.05295,6.4989131 11.05295,6.015625 c 0,-1.0991487 0.863526,-1.9626747 1.962675,-1.9626747 1.099149,0 1.962675,0.863526 1.962675,1.9626747 0,0.6309934 -0.292811,1.2186006 -0.786019,1.5773687 L 14,7.7328628 v 0.4964747 0.496475 l 0.16056,0.2855313 c 0.08831,0.1570421 0.259986,0.4402187 0.381507,0.6292812 0.412145,0.641214 0.458106,0.84005 0.457522,1.979312 -3.4e-4,0.662486 -0.01065,0.851535 -0.05927,1.087156 -0.267396,1.295657 -1.311735,2.24658 -2.741008,2.495824 -0.336278,0.05864 -1.094318,0.05765 -1.423236,-0.0019 z M 13.44359,6.9117903 c 0.187048,-0.091727 0.376176,-0.2807269 0.468519,-0.4682006 0.104034,-0.2112097 0.104034,-0.6447197 0,-0.8559294 -0.09224,-0.1872581 -0.281261,-0.3762828 -0.468519,-0.468519 -0.21121,-0.1040341 -0.64472,-0.1040341 -0.85593,0 -0.187852,0.092529 -0.376805,0.2818365 -0.467642,0.468519 -0.08639,0.1775538 -0.113088,0.5107375 -0.05697,0.7111531 0.07607,0.2717163 0.336166,0.5489291 0.613901,0.6543172 0.184362,0.069957 0.583589,0.048429 0.766646,-0.04134 z M 5.3301809,5.3723944 C 3.8541453,4.6351203 2.6416561,4.0270728 2.6357608,4.0211775 2.6298655,4.0152822 3.8383844,3.4042084 5.3213584,2.6632359 L 8.017675,1.316013 9.9229,2.2688947 c 1.047874,0.5240849 1.90938,0.9646647 1.914458,0.9790662 0.0051,0.014402 -0.0341,0.041292 -0.08707,0.059756 -0.176452,0.061512 -0.637224,0.3852544 -0.84727,0.5953 -0.441987,0.4419875 -0.832704,1.234454 -0.841301,1.7063578 -0.0017,0.091387 -0.02414,0.1047788 -0.8914723,0.53125 C 8.6808731,6.38125 8.220495,6.6084478 8.1471809,6.6455087 l -0.1332984,0.067384 z"
       id="path825"
       inkscape:connector-curvature="0" />
    <path
       style="fill:#fecb32;stroke-width:0.000357143"
       d="M 4.984375,13.205657 2.296875,11.857643 2.288935,8.1631963 C 2.2845672,6.1312509 2.2915985,4.4692134 2.3045594,4.46978 2.3175205,4.4703456 3.5445313,5.0789928 5.03125,5.8223278 l 2.703125,1.3515178 0.00809,1.6374641 0.00809,1.6374643 -0.1065303,0.08781 c -0.1676494,0.138191 -0.4444328,0.575937 -0.5400025,0.85404 -0.081012,0.235742 -0.085983,0.28208 -0.087159,0.8125 -0.00108,0.485728 0.00849,0.600747 0.070093,0.842728 C 7.1898647,13.450057 7.38345,13.912639 7.57952,14.222841 7.7535116,14.498113 7.7800847,14.5659 7.7109375,14.558086 7.6894531,14.555657 6.4625,13.947065 4.984375,13.205657 Z M 11.204062,12.164602 11.048748,12.109375 11.01144,11.8125 C 10.936168,11.213519 10.656588,10.725107 10.202793,10.399828 9.81456,10.121543 9.6052972,10.053627 9.0884247,10.038156 8.7598203,10.02832 8.621675,10.036865 8.489865,10.075185 8.3956175,10.102583 8.3101231,10.125 8.2998778,10.125 c -0.010245,0 -0.018043,-0.6644531 -0.017328,-1.4765625 l 0.0013,-1.4765625 0.85162,-0.4197231 C 9.6038606,6.5213041 10.004057,6.3267728 10.024795,6.3198603 c 0.02436,-0.00812 0.03787,0.024302 0.03817,0.091598 0.0019,0.4388557 0.358144,1.2003975 0.773126,1.6529222 l 0.15934,0.1737557 0.0101,0.6699943 0.0101,0.6699944 0.127141,0.265625 c 0.175112,0.3658481 0.456717,0.8713641 0.657761,1.1807631 l 0.168223,0.258888 v 0.406769 0.406769 l -0.117188,0.04926 c -0.17897,0.07522 -0.464856,0.08335 -0.6475,0.01841 z"
       id="path823"
       inkscape:connector-curvature="0" />
    <path
       style="fill:#323232;stroke-width:0.000357143"
       d="M 4.9143559,13.76502 C 2.8390346,12.728491 1.8582437,12.222931 1.8142922,12.167056 1.7501501,12.085512 1.75,12.075817 1.75,8.015625 V 3.9459288 L 1.814772,3.8635848 C 1.8894337,3.7686675 7.9044769,0.75 8.0189484,0.75 c 0.037741,0 1.1037522,0.518359 2.3689136,1.1519089 l 2.300294,1.1519089 -0.176997,0.020803 c -0.09735,0.011441 -0.27932,0.055151 -0.404381,0.097133 L 11.879395,3.2480831 9.9485644,2.281993 8.0177341,1.3159029 5.3315513,2.6581839 C 3.8541506,3.3964384 2.6407185,4.0051147 2.6350353,4.0107981 2.6212623,4.0245709 7.9749634,6.6980203 8.0153778,6.6975509 8.0327013,6.6973634 8.4617188,6.4899641 8.96875,6.2366931 9.4757813,5.9834222 9.9222656,5.7636222 9.9609375,5.7482487 10.030861,5.7204516 10.03125,5.7219284 10.03125,6.0151328 V 6.3099684 L 9.1575925,6.7409219 8.2839353,7.171875 l -0.00134,1.4891303 -0.00134,1.4891307 -0.091301,0.03183 c -0.050216,0.0175 -0.1662313,0.08229 -0.2578125,0.143973 L 7.765625,10.438083 7.75,8.8059597 7.734375,7.1738372 5.03125,5.8223234 C 3.5445313,5.0789909 2.3175205,4.4703462 2.3045594,4.46978 2.2915984,4.4692144 2.2845672,6.1312366 2.2889344,8.1631647 l 0.00794,3.6944143 2.7146281,1.356146 c 2.1183178,1.058247 2.7205769,1.346755 2.7417091,1.313398 0.018622,-0.02939 0.02723,-0.03092 0.027559,-0.0049 2.5e-4,0.02083 0.1286656,0.171966 0.2853387,0.335849 l 0.2848603,0.297969 -0.1364228,0.0619 c -0.075033,0.03405 -0.1652222,0.06221 -0.2004212,0.06259 -0.035199,3.78e-4 -1.430096,-0.681617 -3.0997707,-1.515544 z"
       id="path821"
       inkscape:connector-curvature="0" />
    <path
       style="fill:#650000;stroke-width:0.000357143"
       d="M 12.676944,6.9531306 C 12.399209,6.8477425 12.139118,6.5705297 12.063043,6.2988134 12.00693,6.0983978 12.033624,5.7652141 12.120018,5.5876603 12.210855,5.4009778 12.399808,5.21167 12.58766,5.1191412 c 0.21121,-0.104034 0.64472,-0.104034 0.85593,0 0.187258,0.092236 0.376282,0.281261 0.468519,0.4685191 0.104034,0.2112097 0.104034,0.6447197 0,0.8559294 -0.09234,0.1874737 -0.281471,0.376474 -0.468519,0.4682006 -0.183057,0.089769 -0.582284,0.1112972 -0.766646,0.04134 z"
       id="path819"
       inkscape:connector-curvature="0" />
  </g>
</svg>
