<?xml version="1.0" encoding="UTF-8" standalone="no"?>
<!-- Created with Inkscape (http://www.inkscape.org/) -->

<svg
   version="1.1"
   id="svg2"
   width="1600"
   height="1600"
   viewBox="0 0 1600 1600"
   sodipodi:docname="image_reference.svg"
   inkscape:version="1.2.2 (732a01da63, 2022-12-09)"
   xmlns:inkscape="http://www.inkscape.org/namespaces/inkscape"
   xmlns:sodipodi="http://sodipodi.sourceforge.net/DTD/sodipodi-0.dtd"
   xmlns="http://www.w3.org/2000/svg"
   xmlns:svg="http://www.w3.org/2000/svg"
   xmlns:rdf="http://www.w3.org/1999/02/22-rdf-syntax-ns#"
   xmlns:cc="http://creativecommons.org/ns#"
   xmlns:dc="http://purl.org/dc/elements/1.1/">
  <metadata
     id="metadata8">
    <rdf:RDF>
      <cc:Work
         rdf:about="">
        <dc:format>image/svg+xml</dc:format>
        <dc:type
           rdf:resource="http://purl.org/dc/dcmitype/StillImage" />
      </cc:Work>
    </rdf:RDF>
  </metadata>
  <defs
     id="defs6" />
  <sodipodi:namedview
     pagecolor="#808080"
     bordercolor="#666666"
     borderopacity="1"
     objecttolerance="10"
     gridtolerance="10"
     guidetolerance="10"
     inkscape:pageopacity="0"
     inkscape:pageshadow="2"
     inkscape:window-width="1993"
     inkscape:window-height="1009"
     id="namedview4"
     showgrid="false"
     inkscape:zoom="0.5"
     inkscape:cx="665"
     inkscape:cy="736"
     inkscape:window-x="-8"
     inkscape:window-y="-8"
     inkscape:window-maximized="1"
     inkscape:current-layer="IMAGE_REFERENCE"
     inkscape:showpageshadow="0"
     inkscape:pagecheckerboard="true"
     inkscape:deskcolor="#d1d1d1" />
  <g
     id="IMAGE_REFERENCE"
     transform="matrix(100,0,0,100,0,4.9999997e-5)"
     style="stroke-width:0.0114286">
    <path
       style="fill:none;stroke-width:0.000357143"
       d="M 0,8 V 0 h 8 8 v 8 8 H 8 0 Z m 1.7437394,6.955182 c 0.046412,-0.02465 0.5132054,-0.474651 1.0373185,-1 L 3.7339906,13 H 9.3669953 15 V 7 1 H 9 3 v 5.6321716 5.6321714 l -0.9823152,0.985016 c -0.6550499,0.656851 -0.9894773,1.014211 -1.003813,1.072648 -0.0346707,0.141328 0.00212,0.381288 0.073913,0.482116 0.036562,0.05135 0.1126272,0.116104 0.1690334,0.143906 0.1276842,0.06293 0.3750546,0.06657 0.4869212,0.0072 z"
       id="path835"
       inkscape:connector-curvature="0" />
    <path
       style="fill:#fefefe;stroke-width:0.000357143"
       d="M 1.2568182,14.948029 C 1.200412,14.920227 1.1243469,14.855469 1.0877848,14.804123 1.0159893,14.703295 0.97920113,14.463335 1.0138718,14.322007 1.0282075,14.26357 1.3626349,13.90621 2.0176848,13.249359 L 3,12.264343 V 6.6321716 1 h 6 6 v 6 6 H 9.3669953 3.7339906 l -0.9529327,0.955182 c -0.5241131,0.525349 -0.9909064,0.975349 -1.0373185,1 -0.1118666,0.05941 -0.359237,0.05578 -0.4869212,-0.0072 z M 14,7 V 2 H 9 4 v 1.490625 c 0,0.8310334 0.011859,1.4774884 0.026801,1.4609375 0.014741,-0.016328 0.2208075,-0.2731184 0.4579263,-0.5706453 0.3464084,-0.4346591 0.4385497,-0.5329097 0.4689097,-0.5 0.020782,0.022527 0.3129265,0.5008306 0.6492106,1.0628975 l 0.6114256,1.02194 -0.6106047,0.39057 L 4.9930637,6.746895 4.4965319,6.4982634 4,6.2496319 V 9.1248159 12 h 5 5 z"
       id="path833"
       inkscape:connector-curvature="0" />
    <path
       style="fill:#75b6fe;stroke-width:0.000357143"
       d="m 13.366977,11.820313 c -0.05762,-0.09883 -0.833683,-1.45586 -1.72458,-3.0156255 C 10.7515,7.2449219 10.005251,5.96875 9.9840669,5.96875 9.9628825,5.96875 9.6040634,6.5670437 9.1866916,7.2982916 8.7693194,8.0295397 8.4179006,8.6166491 8.4057606,8.6029791 8.3936203,8.5893094 7.6273206,7.3160156 6.7028722,5.7734375 5.7784237,4.2308594 5.0055816,2.96875 4.985445,2.96875 4.9653087,2.96875 4.7411481,3.2289063 4.4873106,3.546875 4.2334731,3.8648438 4.0199856,4.125 4.0128941,4.125 4.0058022,4.125 4,3.646875 4,3.0625 V 2 h 5 5 v 5 5 H 13.735872 13.471744 Z M 12.477548,5.4350687 C 12.725341,5.3522731 12.926424,5.2238216 13.099484,5.0377778 13.385043,4.730795 13.5,4.4329303 13.5,4 13.5,3.5670697 13.385043,3.269205 13.099484,2.9622222 12.807863,2.6487223 12.454098,2.5 12,2.5 11.545902,2.5 11.192137,2.6487223 10.900516,2.9622222 10.614957,3.269205 10.5,3.5670697 10.5,4 c 0,0.6710934 0.373877,1.2059491 0.99667,1.4258009 0.27892,0.098462 0.701975,0.1024591 0.980878,0.00927 z"
       id="path831"
       inkscape:connector-curvature="0" />
    <path
       style="fill:#fdfe00;stroke-width:0.000357143"
       d="M 11.687668,4.94977 C 10.97962,4.6924953 10.772887,3.8193719 11.296129,3.2961294 11.501453,3.0908059 11.687262,3.017164 12,3.017164 c 0.312738,0 0.498547,0.073642 0.703871,0.2789654 C 12.909194,3.5014528 12.982836,3.6872622 12.982836,4 c 0,0.3127378 -0.07364,0.4985472 -0.278965,0.7038706 -0.256764,0.2567635 -0.694675,0.3627288 -1.016203,0.2458994 z"
       id="path829"
       inkscape:connector-curvature="0" />
    <path
       style="fill:#fec100;stroke-width:0.000357143"
       d="M 11.49667,5.4258009 C 10.873877,5.2059491 10.5,4.6710934 10.5,4 10.5,3.5670697 10.614957,3.269205 10.900516,2.9622222 11.192137,2.6487223 11.545902,2.5 12,2.5 c 0.454098,0 0.807863,0.1487223 1.099484,0.4622222 C 13.385043,3.269205 13.5,3.5670697 13.5,4 c 0,0.4329303 -0.114957,0.730795 -0.400516,1.0377778 -0.29386,0.3159066 -0.645491,0.4626103 -1.106311,0.4615631 -0.222725,-5.062e-4 -0.337968,-0.017576 -0.496503,-0.07354 z m 0.925205,-0.5220378 c 0.197682,-0.093808 0.385878,-0.2810475 0.484351,-0.4818881 0.109995,-0.22434 0.109995,-0.61941 0,-0.84375 -0.09768,-0.1992259 -0.285125,-0.38667 -0.484351,-0.4843511 -0.22434,-0.1099947 -0.61941,-0.1099947 -0.84375,0 -0.812326,0.3982861 -0.744608,1.5456339 0.109543,1.8559961 0.197215,0.071659 0.53022,0.050793 0.734207,-0.046007 z"
       id="path827"
       inkscape:connector-curvature="0" />
    <path
       style="fill:#7f7f7f;stroke-width:0.000357143"
       d="M 4,9.3907841 V 6.7808587 l 0.4683594,0.2345707 c 0.4802981,0.24055 0.5484712,0.2608559 0.6665075,0.1985268 0.053987,-0.028508 0.9463784,-0.5936559 1.258789,-0.7971859 0.063163,-0.04115 0.095652,0.00752 0.8993066,1.3472866 L 8.1267384,9.1540356 7.3176047,10.569205 6.5084709,11.984375 5.2542356,11.992542 4,12.000709 Z"
       id="path825"
       inkscape:connector-curvature="0" />
    <path
       style="fill:#3c983c;stroke-width:0.000357143"
       d="M 8.5126172,9.5234375 C 9.2906488,8.1613281 9.9400797,7.0240447 9.9557975,6.9961409 9.9777384,6.9571891 10.319502,7.5323322 11.427432,9.4727034 L 12.870488,12 H 9.9842513 7.098015 Z"
       id="path823"
       inkscape:connector-curvature="0" />
    <path
       style="fill:#1e4c1e;stroke-width:0.000357143"
       d="m 6.5369412,11.930872 c 0.025125,-0.03932 0.8028182,-1.397478 1.7282072,-3.0181211 1.0704694,-1.8747231 1.6978316,-2.943305 1.7246007,-2.9375 0.023141,0.00502 0.8134369,1.3591241 1.7562129,3.0091241 l 1.714139,3 -0.26664,0.0091 c -0.146652,0.005 -0.282571,0.003 -0.302042,-0.0045 -0.01947,-0.0075 -0.681486,-1.144603 -1.471143,-2.5269574 l -1.435741,-2.5133719 -1.4385884,2.51785 -1.4385882,2.5178503 -0.3080493,0.009 -0.3080491,0.009 z"
       id="path821"
       inkscape:connector-curvature="0" />
    <path
       style="fill:#000000;stroke-width:0.000357143"
       d="M 7.2841391,7.7494972 C 6.4888416,6.4232341 6.4569666,6.3755237 6.39372,6.4167281 6.0813112,6.6202584 5.1888603,7.185445 5.1348669,7.2139563 5.0168306,7.2762853 4.9486575,7.2559794 4.4683594,7.0154294 L 4,6.7808587 V 6.5152453 6.2496319 L 4.4965319,6.4982634 4.9930637,6.746895 5.6036684,6.3563247 6.2142731,5.9657547 5.6028475,4.9438147 C 5.2665634,4.3817478 4.9742725,3.9032978 4.9533122,3.8805925 4.9225275,3.8472447 4.8287512,3.947645 4.4654137,4.4029534 L 4.015625,4.9665969 4.0069106,4.5621531 3.9981959,4.1577091 4.4738731,3.5632297 C 4.7354956,3.2362659 4.9658644,2.96875 4.9858034,2.96875 c 0.030709,0 3.3542825,5.4976534 3.4076513,5.6367303 C 8.4105581,8.6500516 8.166405,9.125 8.1263891,9.125 c -0.00958,0 -0.3885966,-0.6189762 -0.84225,-1.3755028 z"
       id="path819"
       inkscape:connector-curvature="0" />
  </g>
</svg>
