<?xml version="1.0" encoding="UTF-8" standalone="no"?>
<!-- Created with Inkscape (http://www.inkscape.org/) -->

<svg
   version="1.1"
   id="svg2"
   width="1600"
   height="1600"
   viewBox="0 0 1600 1600"
   sodipodi:docname="implicit_conversion.svg"
   inkscape:version="1.4.3 (0d15f75, 2025-12-25)"
   xmlns:inkscape="http://www.inkscape.org/namespaces/inkscape"
   xmlns:sodipodi="http://sodipodi.sourceforge.net/DTD/sodipodi-0.dtd"
   xmlns="http://www.w3.org/2000/svg"
   xmlns:svg="http://www.w3.org/2000/svg"
   xmlns:rdf="http://www.w3.org/1999/02/22-rdf-syntax-ns#"
   xmlns:cc="http://creativecommons.org/ns#"
   xmlns:dc="http://purl.org/dc/elements/1.1/">
  <metadata
     id="metadata8">
    <rdf:RDF>
      <cc:Work
         rdf:about="">
        <dc:format>image/svg+xml</dc:format>
        <dc:type
           rdf:resource="http://purl.org/dc/dcmitype/StillImage" />
      </cc:Work>
    </rdf:RDF>
  </metadata>
  <defs
     id="defs6" />
  <sodipodi:namedview
     pagecolor="#808080"
     bordercolor="#666666"
     borderopacity="1"
     objecttolerance="10"
     gridtolerance="10"
     guidetolerance="10"
     inkscape:pageopacity="0"
     inkscape:pageshadow="2"
     inkscape:window-width="1920"
     inkscape:window-height="1017"
     id="namedview4"
     showgrid="false"
     inkscape:zoom="0.35355339"
     inkscape:cx="362.03867"
     inkscape:cy="465.27626"
     inkscape:window-x="-8"
     inkscape:window-y="-8"
     inkscape:window-maximized="1"
     inkscape:current-layer="IMPLICIT_CONVERSION"
     inkscape:showpageshadow="0"
     inkscape:pagecheckerboard="true"
     inkscape:deskcolor="#d1d1d1" />
  <g
     id="IMPLICIT_CONVERSION"
     transform="matrix(100,0,0,100,0,4.9999997e-5)"
     style="stroke-width:0.0114286"
     inkscape:label="IMPLICIT_CONVERSION">
    <circle
       style="fill:#6363c7;fill-opacity:1;stroke:#7b7b8d;stroke-width:1.05;stroke-linecap:round;stroke-linejoin:round;stroke-opacity:1;paint-order:markers stroke fill"
       id="path1"
       cx="3.7900925"
       cy="4.3274932"
       r="2.5143363" />
    <circle
       style="fill:#c7c729;fill-opacity:1;stroke:#7b7b8d;stroke-width:1.05;stroke-linecap:round;stroke-linejoin:round;stroke-opacity:1;paint-order:markers stroke fill"
       id="circle3"
       cx="12.133952"
       cy="11.539983"
       r="2.5143363" />
    <path
       style="fill:none;stroke-width:0.000357143"
       d="M 0,8 V 0 h 8 8 v 8 8 H 8 0 Z m 7.0545678,6.054808 C 7.8839306,13.225578 8.5625,12.533053 8.5625,12.515865 8.5625,12.479996 5.5593316,9.46875 5.5235584,9.46875 5.5106012,9.46875 5.5,9.9328125 5.5,10.5 v 1.03125 h -1 -1 v -1 -1 h -1 -1 v 2 2 h 2 2 v 1.015625 c 0,0.558594 0.010493,1.015625 0.023318,1.015625 0.012825,0 0.7018875,-0.678461 1.5312498,-1.507692 z m 8.2146582,1.365136 c 0.04746,-0.03544 0.115281,-0.10325 0.150718,-0.150695 0.06359,-0.08514 0.06464,-0.120868 0.08007,-2.732444 0.01155,-1.953174 0.0062,-2.6707322 -0.02031,-2.73993 -0.04604,-0.1200328 -2.152243,-2.2200869 -2.270801,-2.2641669 -0.138718,-0.051576 -1.281943,-0.042592 -1.405219,0.011043 -0.129099,0.056168 -2.227469,2.1615791 -2.2709759,2.2785963 -0.045901,0.1234553 -0.045306,5.2340866 6.25e-4,5.3553066 0.044306,0.116936 0.1484853,0.227031 0.2635435,0.27851 0.076451,0.03421 0.5820404,0.04068 2.7399074,0.03508 2.618475,-0.0068 2.647059,-0.0075 2.732444,-0.0713 z M 6.2692263,8.4199441 C 6.3166841,8.3845072 6.3845072,8.3166944 6.4199441,8.2692494 6.4835325,8.1841134 6.4845797,8.1483806 6.5000172,5.5368053 6.5115628,3.5836312 6.5062431,2.8660729 6.4797041,2.796875 6.4336684,2.6768423 4.3274612,0.576788 4.2089031,0.532708 4.070185,0.48113253 2.9269597,0.49011637 2.8036838,0.54375069 2.6745852,0.59991837 0.57621513,2.7053296 0.532708,2.8223469 0.4868072,2.9458022 0.4874023,8.0564325 0.53333175,8.1776531 c 0.044306,0.1169363 0.14848512,0.2270319 0.26354338,0.2785103 0.0764505,0.034205 0.58204017,0.040678 2.73990717,0.035078 2.6184753,-0.00679 2.6470597,-0.00754 2.732444,-0.071297 z M 10.5,5.53125 V 4.5 h 1 1 v 1 1 h 1 1 v -2 -2 h -2 -2 V 1.484375 c 0,-0.55859375 -0.01049,-1.015625 -0.02332,-1.015625 -0.03562,0 -3.039182,3.0109259 -3.039182,3.0466347 0,0.035869 3.003168,3.0471153 3.038942,3.0471153 C 10.4894,6.5625 10.5,6.0984375 10.5,5.53125 Z"
       id="path847"
       inkscape:connector-curvature="0" />
    <path
       style="fill:#00fe00;stroke-width:0.000357143"
       d="m 13.113137,5.5374012 v -1 h -1.5 -1.5 V 5.2325184 5.9276356 L 9.1756355,4.9905246 8.238134,4.0534137 9.167823,3.1233005 l 0.929689,-0.9301131 0.0084,0.6721069 0.0084,0.6721069 h 1.99939 1.999391 v 1.5 1.5 h -0.5 -0.5 z"
       id="path3" />
    <path
       style="fill:#00fe00;stroke-width:0.000357143"
       d="m 5.9151472,12.975351 v -0.679492 h -2 -2 v -1.5 -1.5 h 0.5 0.5 v 1 1 h 1.4994022 1.4994022 l 0.00841,-0.687731 0.00841,-0.6877298 0.9296891,0.9301118 0.929689,0.930112 -0.9375015,0.93711 -0.937501,0.937111 z"
       id="path839" />
    <path
       style="fill:#009800;stroke-width:0.000357143"
       d="M 9.0583287,5.591969 C 8.2290984,4.7626065 7.5506371,4.069974 7.5506371,4.0527859 c 0,-0.035709 3.0035609,-3.0466347 3.0391819,-3.0466347 0.01282,0 0.02332,0.4570312 0.02332,1.015625 v 1.015625 h 2 2 v 2 2 h -1 -1 v -1 -1 h -1 -1 v 1.03125 c 0,0.5671875 -0.0106,1.03125 -0.02356,1.03125 -0.01296,0 -0.7020197,-0.6785694 -1.5312503,-1.5079322 z M 14.113137,5.0374012 v -1.5 h -1.999391 -1.99939 l -0.0084,-0.6721069 -0.0084,-0.6721069 -0.929689,0.9301131 -0.929689,0.9301132 0.9375015,0.9371109 0.9375015,0.937111 V 5.2325184 4.5374012 h 1.5 1.5 v 1 1 h 0.5 0.5 z"
       id="path2" />
    <path
       style="fill:#009800;stroke-width:0.000357143"
       d="m 5.4151472,13.811484 v -1.015625 h -2 -2 v -2 -2 h 1 1 v 1 1 h 1 1 v -1.03125 c 0,-0.5671875 0.010601,-1.03125 0.023558,-1.03125 0.035773,0 3.0389416,3.011246 3.0389416,3.047115 0,0.03571 -3.0035609,3.046635 -3.0391822,3.046635 -0.012824,0 -0.023317,-0.457031 -0.023317,-1.015625 z M 6.8604613,10.85051 5.9307722,9.9203982 l -0.00841,0.6877298 -0.00841,0.687731 H 4.4145494 2.9151472 v -1 -1 h -0.5 -0.5 v 1.5 1.5 h 2 2 v 0.679492 0.679492 l 0.9375016,-0.937111 0.9375015,-0.937111 z"
       id="path837" />
  </g>
</svg>
