<?xml version="1.0" encoding="UTF-8" standalone="no"?>
<!-- Created with Inkscape (http://www.inkscape.org/) -->

<svg
   version="1.1"
   id="svg2"
   width="1600"
   height="1600"
   viewBox="0 0 1600 1600"
   sodipodi:docname="index.svg"
   inkscape:version="1.2.2 (732a01da63, 2022-12-09)"
   xmlns:inkscape="http://www.inkscape.org/namespaces/inkscape"
   xmlns:sodipodi="http://sodipodi.sourceforge.net/DTD/sodipodi-0.dtd"
   xmlns="http://www.w3.org/2000/svg"
   xmlns:svg="http://www.w3.org/2000/svg"
   xmlns:rdf="http://www.w3.org/1999/02/22-rdf-syntax-ns#"
   xmlns:cc="http://creativecommons.org/ns#"
   xmlns:dc="http://purl.org/dc/elements/1.1/">
  <metadata
     id="metadata8">
    <rdf:RDF>
      <cc:Work
         rdf:about="">
        <dc:format>image/svg+xml</dc:format>
        <dc:type
           rdf:resource="http://purl.org/dc/dcmitype/StillImage" />
      </cc:Work>
    </rdf:RDF>
  </metadata>
  <defs
     id="defs6" />
  <sodipodi:namedview
     pagecolor="#808080"
     bordercolor="#666666"
     borderopacity="1"
     objecttolerance="10"
     gridtolerance="10"
     guidetolerance="10"
     inkscape:pageopacity="0"
     inkscape:pageshadow="2"
     inkscape:window-width="1993"
     inkscape:window-height="1009"
     id="namedview4"
     showgrid="false"
     inkscape:zoom="0.5"
     inkscape:cx="-3"
     inkscape:cy="8"
     inkscape:window-x="-8"
     inkscape:window-y="-8"
     inkscape:window-maximized="1"
     inkscape:current-layer="INDEX"
     inkscape:showpageshadow="0"
     inkscape:pagecheckerboard="true"
     inkscape:deskcolor="#d1d1d1" />
  <g
     id="INDEX"
     transform="matrix(100,0,0,100,0,4.9999997e-5)"
     style="stroke-width:0.0114286">
    <path
       style="fill:none;stroke-width:0.000357143"
       d="M 0,8 V 0 h 8 8 v 8 8 H 8 0 Z m 15.269218,7.419944 c 0.04746,-0.03544 0.115289,-0.103265 0.150726,-0.150729 l 0.06443,-0.0863 V 9 2.8170832 L 15.419944,2.730785 C 15.384507,2.683321 15.316711,2.6154929 15.269286,2.5800559 15.188008,2.5193234 15.13491,2.515095 14.344257,2.5063922 l -0.838803,-0.00923 -0.01054,-0.3401501 C 13.483528,1.7895325 13.456239,1.7197512 13.269286,1.5800559 13.188008,1.5193234 13.13491,1.515095 12.344257,1.5063922 l -0.838803,-0.00923 -0.01054,-0.3401501 c -0.01139,-0.36751605 -0.0387,-0.43733949 -0.2257,-0.57695339 L 11.182917,0.515625 H 6 0.81708316 L 0.73078496,0.5800559 C 0.68332096,0.6154929 0.61549286,0.68332096 0.5800559,0.73078496 L 0.515625,0.81708316 V 7 13.182917 l 0.0644309,0.0863 c 0.035437,0.04746 0.10323315,0.115292 0.15065818,0.150729 0.0812777,0.06073 0.13437585,0.06496 0.92502942,0.07366 l 0.8388022,0.0092 0.01054,0.34015 c 0.011386,0.367477 0.038676,0.437258 0.2256288,0.576953 0.081296,0.06075 0.1343582,0.06496 0.9277565,0.07368 L 4.5,14.502869 v 0.293406 c 0,0.315307 0.027693,0.426915 0.1348941,0.543647 0.1528718,0.166462 -0.1338466,0.158437 5.4018799,0.15119 5.14363,-0.0067 5.146192,-0.0068 5.232444,-0.07117 z"
       id="path829"
       inkscape:connector-curvature="0" />
    <path
       style="fill:#fefefe;stroke-width:0.000357143"
       d="m 5,14.750343 v -0.249656 l 4.0914634,-0.0082 c 4.0772836,-0.0081 4.0917626,-0.0084 4.1777566,-0.07259 0.04746,-0.03544 0.115287,-0.103264 0.150724,-0.150726 l 0.06443,-0.08629 0.0081,-5.5914617 L 13.500508,3 H 14.250254 15 v 6 6 H 10 5 Z m -2,-1 v -0.249656 l 4.0914634,-0.0082 c 4.0772836,-0.0081 4.0917626,-0.0084 4.1777566,-0.07259 0.04746,-0.03544 0.115287,-0.103264 0.150724,-0.150726 l 0.06443,-0.08629 0.0081,-5.5914618 L 11.500508,2 H 12.250254 13 v 6 6 H 8 3 Z M 1,7 V 1 h 5 5 v 6 6 H 6 1 Z m 3.2692603,5.419944 C 4.3166994,12.384507 4.3845072,12.316679 4.4199441,12.269215 4.4823641,12.18561 4.484375,12.145996 4.484375,11 4.484375,9.8540038 4.482365,9.8143897 4.419944,9.730785 4.3845072,9.6833209 4.3166791,9.6154928 4.269215,9.5800559 4.1856103,9.5176359 4.1459962,9.515625 3,9.515625 c -1.1459963,0 -1.1856103,0.00201 -1.269215,0.064431 -0.047464,0.035437 -0.1152921,0.1032428 -0.1507291,0.1506797 -0.061764,0.08268 -0.06482,0.1317441 -0.073832,1.1855693 -0.00517,0.604626 -0.0011,1.144609 0.00906,1.199962 0.022973,0.12527 0.1542213,0.284785 0.2800457,0.340359 0.075272,0.03325 0.3361692,0.04059 1.2414905,0.03492 1.1030382,-0.0069 1.1494385,-0.0096 1.2324441,-0.0716 z M 10,10.5 V 10 H 7.5 5 V 10.5 11 H 7.5 10 Z M 4.2692603,8.4199441 C 4.3166994,8.3845072 4.3845072,8.3166791 4.4199441,8.269215 4.4823641,8.1856103 4.484375,8.1459963 4.484375,7 4.484375,5.8540038 4.482365,5.8143897 4.419944,5.730785 4.3845072,5.6833209 4.3166791,5.6154928 4.269215,5.5800559 4.1856103,5.5176359 4.1459962,5.515625 3,5.515625 c -1.1459963,0 -1.1856103,0.00201 -1.269215,0.064431 -0.047464,0.035437 -0.1152921,0.1032429 -0.1507291,0.1506797 -0.061764,0.08268 -0.06482,0.1317441 -0.073832,1.1855691 -0.00517,0.6046262 -0.0011,1.1446094 0.00906,1.1999628 0.022973,0.1252697 0.1542213,0.2847841 0.2800457,0.3403584 0.075272,0.033247 0.3361692,0.040585 1.2414905,0.034921 1.1030382,-0.0069 1.1494385,-0.0096 1.2324441,-0.071602 z M 10,6.5 V 6 H 7.5 5 V 6.5 7 H 7.5 10 Z M 4.2692603,4.4199441 C 4.3166994,4.3845072 4.3845072,4.3166791 4.4199441,4.269215 4.4823641,4.1856103 4.484375,4.1459962 4.484375,3 4.484375,1.8540037 4.482365,1.8143897 4.419944,1.730785 4.3845072,1.683321 4.3166791,1.6154929 4.269215,1.5800559 4.1856103,1.517636 4.1459962,1.515625 3,1.515625 c -1.1459963,0 -1.1856103,0.00201 -1.269215,0.064431 -0.047464,0.035437 -0.1152921,0.1032429 -0.1507291,0.1506798 -0.061764,0.08268 -0.06482,0.131744 -0.073832,1.1855691 -0.00517,0.6046261 -0.0011,1.1446093 0.00906,1.1999627 0.022973,0.1252697 0.1542213,0.2847841 0.2800457,0.3403584 0.075272,0.033247 0.3361692,0.040585 1.2414905,0.034921 1.1030382,-0.0069 1.1494385,-0.0096 1.2324441,-0.071603 z M 10,2.5 V 2 H 7.5 5 V 2.5 3 H 7.5 10 Z"
       id="path827"
       inkscape:connector-curvature="0" />
    <path
       style="fill:#98cbfe;stroke-width:0.000357143"
       d="M 2,3 V 2 H 3 4 V 3 4 H 3 2 Z"
       id="path825"
       inkscape:connector-curvature="0" />
    <path
       style="fill:#fefe00;stroke-width:0.000357143"
       d="M 2,7 V 6 H 3 4 V 7 8 H 3 2 Z"
       id="path823"
       inkscape:connector-curvature="0" />
    <path
       style="fill:#fe6565;stroke-width:0.000357143"
       d="m 2,11 v -1 h 1 1 v 1 1 H 3 2 Z"
       id="path821"
       inkscape:connector-curvature="0" />
    <path
       style="fill:#323232;stroke-width:0.000357143"
       d="M 4.796875,15.456034 C 4.5712825,15.355413 4.5,15.196998 4.5,14.796275 v -0.293406 l -0.8415294,-0.0092 C 2.8650723,14.484904 2.8120097,14.48069 2.7307141,14.419944 2.543761,14.280249 2.5164717,14.210468 2.5050853,13.842991 l -0.01054,-0.34015 -0.8388022,-0.0092 c -0.79065356,-0.0087 -0.84375169,-0.01293 -0.92502941,-0.07366 -0.047425,-0.03544 -0.11522121,-0.103265 -0.15065818,-0.150729 L 0.515625,13.182917 V 7 0.81708316 L 0.5800559,0.73078496 C 0.6154929,0.68332096 0.68332096,0.61549286 0.73078496,0.5800559 L 0.81708316,0.515625 H 6 11.182917 l 0.0863,0.0644309 c 0.186998,0.1396139 0.214312,0.20943734 0.2257,0.5769534 l 0.01054,0.3401501 0.838803,0.00923 c 0.790653,0.0087 0.843751,0.012931 0.925029,0.073664 0.186953,0.1396953 0.214242,0.2094766 0.225629,0.5769534 l 0.01054,0.3401501 0.838803,0.00923 c 0.790653,0.0087 0.843751,0.012931 0.925029,0.073664 0.04743,0.035437 0.115221,0.1032651 0.150658,0.1507291 l 0.06443,0.086298 V 9 15.182917 l -0.06443,0.0863 c -0.03544,0.04746 -0.103263,0.115292 -0.150726,0.150729 -0.08625,0.0644 -0.08881,0.06443 -5.232444,0.07117 -4.2411181,0.0056 -5.1626365,-6.16e-4 -5.239899,-0.03508 z M 15,9 V 3 h -0.749746 -0.749746 l -0.0081,5.5914613 -0.0081,5.5914617 -0.06443,0.08629 c -0.03544,0.04746 -0.103263,0.115289 -0.150724,0.150726 -0.08599,0.06421 -0.100473,0.06446 -4.1777566,0.07259 L 5,14.500687 V 14.750343 15 h 5 5 z M 13,8 V 2 h -0.749746 -0.749746 l -0.0081,5.5914612 -0.0081,5.5914618 -0.06443,0.08629 c -0.03544,0.04746 -0.103263,0.115289 -0.150724,0.150726 -0.08599,0.06421 -0.100473,0.06446 -4.1777566,0.07259 L 3,13.500687 V 13.750343 14 h 5 5 z M 11,7 V 1 H 6 1 v 6 6 h 5 5 z M 1.7953257,12.456626 C 1.6695013,12.401052 1.5382533,12.241537 1.51528,12.116267 1.5051287,12.060914 1.5010535,11.520931 1.506224,10.916305 1.5152359,9.8624797 1.5182915,9.8134153 1.5800559,9.7307356 1.6154929,9.6832987 1.683321,9.6154928 1.730785,9.5800559 1.8143897,9.5176359 1.8540037,9.515625 3,9.515625 c 1.1459962,0 1.1856103,0.00201 1.269215,0.064431 0.047464,0.035437 0.1152922,0.103265 0.1507291,0.1507291 0.06242,0.083605 0.064431,0.1232187 0.064431,1.2692149 0,1.145996 -0.00201,1.18561 -0.064431,1.269215 -0.035437,0.04746 -0.1032447,0.115292 -0.1506838,0.150729 -0.083006,0.06201 -0.1294059,0.0647 -1.2324441,0.0716 -0.9053213,0.0057 -1.1662182,-0.0017 -1.2414905,-0.03492 z M 4,11 V 10 H 3 2 v 1 1 H 3 4 Z M 5,10.5 V 10 H 7.5 10 V 10.5 11 H 7.5 5 Z M 1.7953257,8.4566259 C 1.6695013,8.4010516 1.5382533,8.2415372 1.51528,8.1162675 1.5051287,8.0609141 1.5010535,7.5209309 1.506224,6.9163047 1.5152359,5.8624797 1.5182915,5.8134153 1.5800559,5.7307356 1.6154929,5.6832987 1.683321,5.6154928 1.730785,5.5800559 1.8143897,5.5176359 1.8540037,5.515625 3,5.515625 c 1.1459962,0 1.1856103,0.00201 1.269215,0.064431 0.047464,0.035437 0.1152922,0.103265 0.1507291,0.1507291 0.06242,0.083605 0.064431,0.1232188 0.064431,1.269215 0,1.1459963 -0.00201,1.1856103 -0.064431,1.269215 -0.035437,0.047464 -0.1032447,0.1152921 -0.1506838,0.150729 -0.083006,0.062005 -0.1294059,0.064701 -1.2324441,0.071602 -0.9053213,0.00566 -1.1662182,-0.00167 -1.2414905,-0.03492 z M 4,7 V 6 H 3 2 V 7 8 H 3 4 Z M 5,6.5 V 6 H 7.5 10 V 6.5 7 H 7.5 5 Z M 1.7953257,4.4566259 C 1.6695013,4.4010516 1.5382533,4.2415372 1.51528,4.1162675 1.5051287,4.0609141 1.5010535,3.5209309 1.506224,2.9163048 1.5152359,1.8624797 1.5182915,1.8134153 1.5800559,1.7307357 1.6154929,1.6832988 1.683321,1.6154929 1.730785,1.5800559 1.8143897,1.517636 1.8540037,1.515625 3,1.515625 c 1.1459962,0 1.1856103,0.00201 1.269215,0.064431 0.047464,0.035437 0.1152922,0.1032651 0.1507291,0.1507291 0.06242,0.083605 0.064431,0.1232187 0.064431,1.269215 0,1.1459962 -0.00201,1.1856103 -0.064431,1.269215 -0.035437,0.047464 -0.1032447,0.1152921 -0.1506838,0.150729 -0.083006,0.062005 -0.1294059,0.064701 -1.2324441,0.071603 -0.9053213,0.00566 -1.1662182,-0.00168 -1.2414905,-0.034921 z M 4,3 V 2 H 3 2 V 3 4 H 3 4 Z M 5,2.5 V 2 H 7.5 10 V 2.5 3 H 7.5 5 Z"
       id="path819"
       inkscape:connector-curvature="0" />
  </g>
</svg>
