<?xml version="1.0" encoding="UTF-8" standalone="no"?>
<!-- Created with Inkscape (http://www.inkscape.org/) -->

<svg
   version="1.1"
   id="svg2"
   width="1600"
   height="1600"
   viewBox="0 0 1600 1600"
   sodipodi:docname="indent.svg"
   inkscape:version="1.2.2 (732a01da63, 2022-12-09)"
   xmlns:inkscape="http://www.inkscape.org/namespaces/inkscape"
   xmlns:sodipodi="http://sodipodi.sourceforge.net/DTD/sodipodi-0.dtd"
   xmlns="http://www.w3.org/2000/svg"
   xmlns:svg="http://www.w3.org/2000/svg"
   xmlns:rdf="http://www.w3.org/1999/02/22-rdf-syntax-ns#"
   xmlns:cc="http://creativecommons.org/ns#"
   xmlns:dc="http://purl.org/dc/elements/1.1/">
  <metadata
     id="metadata8">
    <rdf:RDF>
      <cc:Work
         rdf:about="">
        <dc:format>image/svg+xml</dc:format>
        <dc:type
           rdf:resource="http://purl.org/dc/dcmitype/StillImage" />
      </cc:Work>
    </rdf:RDF>
  </metadata>
  <defs
     id="defs6" />
  <sodipodi:namedview
     pagecolor="#808080"
     bordercolor="#666666"
     borderopacity="1"
     objecttolerance="10"
     gridtolerance="10"
     guidetolerance="10"
     inkscape:pageopacity="0"
     inkscape:pageshadow="2"
     inkscape:window-width="1993"
     inkscape:window-height="1009"
     id="namedview4"
     showgrid="false"
     inkscape:zoom="0.5"
     inkscape:cx="425"
     inkscape:cy="392"
     inkscape:window-x="-8"
     inkscape:window-y="-8"
     inkscape:window-maximized="1"
     inkscape:current-layer="INDENT"
     inkscape:showpageshadow="0"
     inkscape:pagecheckerboard="true"
     inkscape:deskcolor="#d1d1d1" />
  <g
     id="INDENT"
     transform="matrix(100,0,0,100,0,4.9999997e-5)"
     style="stroke-width:0.0114286">
    <path
       style="fill:none;stroke-width:0.000357143"
       d="M 0,8 V 0 h 8 8 v 8 8 H 8 0 Z m 15,6 V 13 H 8 1 v 1 1 h 7 7 z M 3.5858153,9.5235609 C 4.3979919,8.7115194 5.0625,8.0330581 5.0625,8.0158691 5.0625,7.9986803 4.3910706,7.3130778 3.5704347,6.4923084 L 2.0783692,5 H 1.5391846 1 v 3 3 H 1.5545654 2.1091308 Z M 15,10 V 9 H 11.5 8 v 1 1 H 11.5 15 Z M 15,6 V 5 H 11.5 8 V 6 7 H 11.5 15 Z M 15,2 V 1 H 8 1 v 1 1 h 7 7 z"
       id="path821"
       inkscape:connector-curvature="0" />
    <path
       style="fill:#fefefe;stroke-width:0.000357143"
       d="m 1,14 v -1 h 7 7 v 1 1 H 8 1 Z M 1,8 V 5 H 1.5391846 2.0783692 L 3.5704347,6.4923084 C 4.3910706,7.3130778 5.0625,7.9986803 5.0625,8.0158691 c 0,0.017189 -0.6645081,0.6956503 -1.4766847,1.5076918 L 2.1091308,11 H 1.5545654 1 Z m 7,2 V 9 h 3.5 3.5 v 1 1 H 11.5 8 Z M 8,6 V 5 H 11.5 15 V 6 7 H 11.5 8 Z M 1,2 V 1 h 7 7 V 2 3 H 8 1 Z"
       id="path819"
       inkscape:connector-curvature="0" />
  </g>
</svg>
