<?xml version="1.0" encoding="UTF-8" standalone="no"?>
<!-- Created with Inkscape (http://www.inkscape.org/) -->

<svg
   version="1.1"
   id="svg2"
   width="1600"
   height="1600"
   viewBox="0 0 1600 1600"
   sodipodi:docname="intersect.svg"
   inkscape:version="1.2.2 (732a01da63, 2022-12-09)"
   xmlns:inkscape="http://www.inkscape.org/namespaces/inkscape"
   xmlns:sodipodi="http://sodipodi.sourceforge.net/DTD/sodipodi-0.dtd"
   xmlns="http://www.w3.org/2000/svg"
   xmlns:svg="http://www.w3.org/2000/svg"
   xmlns:rdf="http://www.w3.org/1999/02/22-rdf-syntax-ns#"
   xmlns:cc="http://creativecommons.org/ns#"
   xmlns:dc="http://purl.org/dc/elements/1.1/">
  <metadata
     id="metadata8">
    <rdf:RDF>
      <cc:Work
         rdf:about="">
        <dc:format>image/svg+xml</dc:format>
        <dc:type
           rdf:resource="http://purl.org/dc/dcmitype/StillImage" />
      </cc:Work>
    </rdf:RDF>
  </metadata>
  <defs
     id="defs6" />
  <sodipodi:namedview
     pagecolor="#808080"
     bordercolor="#666666"
     borderopacity="1"
     objecttolerance="10"
     gridtolerance="10"
     guidetolerance="10"
     inkscape:pageopacity="0"
     inkscape:pageshadow="2"
     inkscape:window-width="1993"
     inkscape:window-height="1009"
     id="namedview4"
     showgrid="false"
     inkscape:zoom="0.5"
     inkscape:cx="691"
     inkscape:cy="972"
     inkscape:window-x="-8"
     inkscape:window-y="-8"
     inkscape:window-maximized="1"
     inkscape:current-layer="INTERSECT"
     inkscape:showpageshadow="0"
     inkscape:pagecheckerboard="true"
     inkscape:deskcolor="#d1d1d1" />
  <g
     id="INTERSECT"
     transform="matrix(100,0,0,100,0,4.9999997e-5)"
     style="stroke-width:0.0114286">
    <path
       style="fill:none;stroke-width:0.000357143"
       d="M 0,8 V 0 h 8 8 v 8 8 H 8 0 Z m 15,2.5 V 6 H 13 11 V 3.5 1 H 6 1 v 7 7 h 7 7 z"
       id="path825"
       inkscape:connector-curvature="0" />
    <path
       style="fill:#fecb32;stroke-width:0.000357143"
       d="M 2,8 V 2 h 4 4 V 4 6 H 7.5 5 v 4 4 H 3.5 2 Z m 9,2.5 V 7 H 12.5 14 V 10.5 14 H 12.5 11 Z"
       id="path823"
       inkscape:connector-curvature="0" />
    <path
       style="fill:#fe0000;stroke-width:0.000357143"
       d="M 6,10.5 V 7 h 2 2 V 10.5 14 H 8 6 Z"
       id="path821"
       inkscape:connector-curvature="0" />
    <path
       style="fill:#323232;stroke-width:0.000357143"
       d="M 1,8 V 1 h 5 5 V 3.5 6 h 2 2 V 10.5 15 H 8 1 Z m 4,2 V 6 H 7.5 10 V 4 2 H 6 2 v 6 6 H 3.5 5 Z m 5,0.5 V 7 H 8 6 v 3.5 3.5 h 2 2 z m 4,0 V 7 H 12.5 11 v 3.5 3.5 h 1.5 1.5 z"
       id="path819"
       inkscape:connector-curvature="0" />
  </g>
</svg>
