<?xml version="1.0" encoding="UTF-8" standalone="no"?>
<!-- Created with Inkscape (http://www.inkscape.org/) -->

<svg
   version="1.1"
   id="svg2"
   width="1600"
   height="1600"
   viewBox="0 0 1600 1600"
   sodipodi:docname="invert_rotation.svg"
   inkscape:version="1.2.2 (732a01da63, 2022-12-09)"
   xmlns:inkscape="http://www.inkscape.org/namespaces/inkscape"
   xmlns:sodipodi="http://sodipodi.sourceforge.net/DTD/sodipodi-0.dtd"
   xmlns="http://www.w3.org/2000/svg"
   xmlns:svg="http://www.w3.org/2000/svg">
  <defs
     id="defs6" />
  <sodipodi:namedview
     id="namedview4"
     pagecolor="#808080"
     bordercolor="#000000"
     borderopacity="0.25"
     inkscape:showpageshadow="2"
     inkscape:pageopacity="0"
     inkscape:pagecheckerboard="true"
     inkscape:deskcolor="#d1d1d1"
     showgrid="false"
     inkscape:zoom="0.5"
     inkscape:cx="283"
     inkscape:cy="202"
     inkscape:window-width="1993"
     inkscape:window-height="1009"
     inkscape:window-x="-8"
     inkscape:window-y="-8"
     inkscape:window-maximized="1"
     inkscape:current-layer="svg2" />
  <g
     id="INVERT_ROTATION"
     transform="matrix(100,0,0,100,0,4.9999997e-5)"
     style="stroke-width:0.0114286">
    <path
       style="fill:none;stroke-width:0.000357143"
       d="M 0,8 V 0 h 8 8 v 8 8 H 8 0 Z M 15.019343,9.9776763 C 15.012588,9.9709219 14.67438,10.131384 14.26777,10.33426 L 13.528477,10.703125 13.414046,10.5625 C 13.200835,10.300485 12.704458,9.8081281 12.421875,9.5783653 11.630507,8.9349172 10.694174,8.4628813 9.7312116,8.2219134 9.0684081,8.0560566 8.7383737,8.0169903 8,8.0169903 c -0.7383738,0 -1.0684081,0.039066 -1.7312116,0.2049231 C 4.3977416,8.6901163 2.762059,9.9688022 1.8323583,11.690068 1.7526862,11.837575 1.6875,11.967653 1.6875,11.979131 c 0,0.01148 0.2566406,0.02029 0.5703125,0.01959 L 2.828125,11.99745 2.9671811,11.774165 C 3.043662,11.651359 3.1903588,11.444511 3.2931738,11.314503 4.44389,9.8594419 6.1673909,9.0188366 8,9.0188366 c 1.6452688,0 3.225434,0.6851009 4.354824,1.8880904 l 0.24545,0.261444 -0.792325,0.396406 c -0.435778,0.218023 -0.786475,0.408656 -0.779325,0.423627 0.0071,0.01497 0.907149,0.69782 2,1.517442 l 1.987001,1.49022 0.008,-2.503054 c 0.0044,-1.37668 0.0025,-2.5085811 -0.0043,-2.5153357 z M 3,6.4847125 C 4.0742187,5.6808141 4.9655109,5.0118284 4.9806491,4.9980778 4.9957875,4.9843272 4.6462719,4.7920188 4.2039478,4.5707256 L 3.3997225,4.168375 3.6451737,3.9069284 C 5.4861603,1.9459706 8.3898878,1.4565796 10.773699,2.7054947 c 0.911707,0.4776572 1.741465,1.2374647 2.25912,2.0686703 l 0.139056,0.2232844 0.570313,0.00128 c 0.313671,7e-4 0.570312,-0.00812 0.570312,-0.019594 0,-0.011478 -0.06519,-0.1415559 -0.144858,-0.2890625 C 13.237941,2.9688022 11.602258,1.6901162 9.7312116,1.2219136 9.0684081,1.0560565 8.7383737,1.0169904 8,1.0169904 c -0.7383738,0 -1.0684081,0.039066 -1.7312116,0.2049232 C 5.3058259,1.4628812 4.3694934,1.934917 3.578125,2.5783653 3.2955425,2.8081283 2.799165,3.3004853 2.5859542,3.5625 L 2.4715226,3.703125 1.7355886,3.3359375 C 1.330825,3.1339844 0.99270113,2.96875 0.98420234,2.96875 c -0.008499,0 -0.0154523,1.1337531 -0.0154523,2.5194513 0,2.0110762 0.007882,2.5132662 0.0390625,2.4887981 C 1.0292969,7.96014 1.9257812,7.2886109 3,6.4847125 Z"
       id="path853" />
    <path
       style="fill:#98cbfe;stroke-width:0.000357143"
       d="m 13.028624,13.505845 c -1.092851,-0.819621 -1.992851,-1.502469 -2,-1.517441 -0.0072,-0.01497 0.343547,-0.205604 0.779325,-0.423627 l 0.792325,-0.396406 -0.24545,-0.261445 C 10.51384,8.9459706 7.6101109,8.4565803 5.2263009,9.7054947 4.3145941,10.183152 3.4848359,10.942959 2.9671811,11.774165 l -0.1390561,0.223284 -0.5703125,0.0013 C 1.9441406,11.999427 1.6875,11.990609 1.6875,11.979131 c 0,-0.01148 0.065186,-0.141556 0.1448583,-0.289063 C 2.762059,9.9688019 4.3977416,8.6901159 6.2687884,8.2219131 6.9315919,8.0560563 7.2616263,8.01699 8,8.01699 c 0.7383738,0 1.0684081,0.039066 1.7312116,0.2049231 0.9629624,0.2409678 1.8992954,0.7130038 2.6906634,1.3564519 0.282583,0.2297628 0.77896,0.72212 0.992171,0.984135 l 0.114431,0.140625 0.739293,-0.368865 c 0.40661,-0.202876 0.744818,-0.3633384 0.751573,-0.3565841 0.0068,0.00675 0.0087,1.1386561 0.0043,2.5153351 l -0.008,2.503055 z"
       id="path851" />
    <path
       style="fill:#fe9832;stroke-width:0.000357143"
       d="m 0.96875,5.4882013 c 0,-1.3856982 0.006954,-2.5194513 0.0154523,-2.5194513 0.008499,0 0.3466227,0.1652344 0.7513863,0.3671875 L 2.4715226,3.703125 2.5859542,3.5625 C 2.799165,3.3004853 3.2955425,2.8081283 3.578125,2.5783653 4.3694934,1.934917 5.3058259,1.4628812 6.2687884,1.2219136 6.9315919,1.0560565 7.2616262,1.0169904 8,1.0169904 c 0.7383738,0 1.0684081,0.039066 1.7312116,0.2049232 1.8710464,0.4682026 3.5067294,1.7468886 4.4364304,3.4681548 0.07967,0.1475066 0.144858,0.2775847 0.144858,0.2890625 0,0.011478 -0.256641,0.020295 -0.570312,0.019594 L 13.171875,4.9974497 13.032819,4.7741653 C 12.956338,4.6513587 12.809641,4.4445109 12.706826,4.3145031 11.55611,2.8594416 9.8326091,2.0188363 8,2.0188363 c -1.64527,0 -3.2254338,0.6851008 -4.3548263,1.8880921 L 3.3997225,4.168375 4.2039478,4.5707256 C 4.6462719,4.7920188 4.9957875,4.9843272 4.9806491,4.9980778 4.9655109,5.0118284 4.0742187,5.6808141 3,6.4847125 1.9257812,7.2886109 1.0292969,7.96014 1.0078125,7.9769994 0.97663203,8.0014675 0.96875,7.4992775 0.96875,5.4882013 Z"
       id="path849" />
  </g>
</svg>
