<?xml version="1.0" encoding="UTF-8" standalone="no"?>
<!-- Created with Inkscape (http://www.inkscape.org/) -->

<svg
   version="1.1"
   id="svg2"
   width="1600"
   height="1600"
   viewBox="0 0 1600 1600"
   sodipodi:docname="ipo_cubic.svg"
   inkscape:version="1.2.2 (732a01da63, 2022-12-09)"
   xmlns:inkscape="http://www.inkscape.org/namespaces/inkscape"
   xmlns:sodipodi="http://sodipodi.sourceforge.net/DTD/sodipodi-0.dtd"
   xmlns="http://www.w3.org/2000/svg"
   xmlns:svg="http://www.w3.org/2000/svg"
   xmlns:rdf="http://www.w3.org/1999/02/22-rdf-syntax-ns#"
   xmlns:cc="http://creativecommons.org/ns#"
   xmlns:dc="http://purl.org/dc/elements/1.1/">
  <metadata
     id="metadata8">
    <rdf:RDF>
      <cc:Work
         rdf:about="">
        <dc:format>image/svg+xml</dc:format>
        <dc:type
           rdf:resource="http://purl.org/dc/dcmitype/StillImage" />
      </cc:Work>
    </rdf:RDF>
  </metadata>
  <defs
     id="defs6" />
  <sodipodi:namedview
     pagecolor="#808080"
     bordercolor="#666666"
     borderopacity="1"
     objecttolerance="10"
     gridtolerance="10"
     guidetolerance="10"
     inkscape:pageopacity="0"
     inkscape:pageshadow="2"
     inkscape:window-width="1993"
     inkscape:window-height="1009"
     id="namedview4"
     showgrid="false"
     inkscape:zoom="0.5"
     inkscape:cx="361"
     inkscape:cy="388"
     inkscape:window-x="-8"
     inkscape:window-y="-8"
     inkscape:window-maximized="1"
     inkscape:current-layer="IPO_CUBIC"
     inkscape:showpageshadow="0"
     inkscape:pagecheckerboard="true"
     inkscape:deskcolor="#d1d1d1" />
  <g
     id="IPO_CUBIC"
     transform="matrix(100,0,0,100,0,4.9999997e-5)"
     style="stroke-width:0.0114286">
    <path
       style="fill:none;stroke-width:0.000357143"
       d="M 0,8 V 0 h 8 8 v 8 8 H 8 0 Z m 2.0960493,6.811529 c 1.1611135,-0.06497 1.9005795,-0.166182 2.7577379,-0.377453 2.2999672,-0.566891 4.2160891,-1.683454 5.9240648,-3.452072 1.643374,-1.7017231 2.938698,-3.865344 3.988558,-6.6622196 0.208997,-0.5567753 0.217466,-0.57271 0.34373,-0.6467056 0.2049,-0.1200794 0.498292,-0.4549429 0.581041,-0.6631716 0.05855,-0.1473367 0.07224,-0.2409972 0.07224,-0.4942822 0,-0.4410767 -0.07035,-0.60992 -0.385361,-0.9249344 -0.350627,-0.3506272 -0.459201,-0.387405 -1.143684,-0.387405 -0.484735,0 -0.547167,0.00641 -0.713032,0.073261 -0.207747,0.083725 -0.544096,0.3786044 -0.661817,0.5802188 -0.04098,0.070185 -0.168187,0.3947969 -0.282681,0.7213594 C 11.617634,5.3140178 10.513488,7.3265741 9.0965641,8.9217266 7.9235556,10.242282 6.2339397,11.304363 4.578125,11.761987 3.6318944,12.0235 2.8391513,12.134607 1.46875,12.197782 c -0.4011845,0.01849 -0.58662566,0.101475 -0.87805941,0.392909 -0.31501443,0.315014 -0.38536057,0.483857 -0.38536057,0.924934 0,0.409367 0.0714002,0.597944 0.33179064,0.876302 0.21750765,0.232516 0.338124,0.313621 0.58276594,0.391859 0.2122737,0.06789 0.2430854,0.06876 0.9761627,0.02774 z M 5.2307494,7.7119963 C 5.3705253,7.6706984 5.6875,7.3840278 5.6875,7.2989131 5.6875,7.2594444 5.7275287,7.25 5.8948119,7.25 6.0088334,7.25 6.1600053,7.232898 6.2307494,7.211996 6.4024006,7.16128 6.6612803,6.9024003 6.7119963,6.7307491 c 0.05443,-0.1842213 0.05443,-4.2772776 0,-4.4614988 C 6.6612803,2.0975995 6.4024006,1.8387196 6.2307494,1.7880036 6.1600053,1.7671016 6.0088334,1.75 5.8948119,1.75 5.7275287,1.75 5.6875,1.7405556 5.6875,1.701087 c 0,-0.085115 -0.3169747,-0.3717853 -0.4567506,-0.4130834 -0.1804925,-0.053328 -2.2810062,-0.053328 -2.4614988,0 -0.1716511,0.050716 -0.430531,0.3095959 -0.481247,0.481247 C 2.2639308,1.8507266 2.25,2.1185935 2.25,2.5 2.25,3.2220647 2.2682583,3.3016259 2.4833161,3.5166838 2.6617304,3.6950981 2.8025486,3.75 3.0817506,3.75 H 3.265625 V 4.5 5.25 H 3.0817506 c -0.1011309,0 -0.2417559,0.017102 -0.3125,0.038004 -0.1716511,0.050716 -0.430531,0.3095957 -0.481247,0.4812469 -0.051426,0.174056 -0.051426,1.2874428 0,1.4614988 0.047032,0.1591822 0.3086144,0.43005 0.4619964,0.4783953 0.1603781,0.05055 2.3109428,0.053022 2.4807494,0.00285 z"
       id="path823"
       inkscape:connector-curvature="0" />
    <path
       style="fill:#00fe00;stroke-width:0.000357143"
       d="M 1.3329747,14.048823 C 0.93195194,13.90365 0.82155947,13.421087 1.1208952,13.121752 c 0.1399491,-0.139949 0.286118,-0.183826 0.6134798,-0.184154 1.2080951,-0.0012 2.7471512,-0.28269 3.8698109,-0.707758 3.4232066,-1.296115 5.9073151,-4.3132372 7.6580031,-9.3011749 0.238913,-0.680694 0.265345,-0.7374374 0.393909,-0.8456168 0.127862,-0.1075885 0.277653,-0.1451997 0.578277,-0.1451997 0.327125,0 0.473437,0.04386 0.61348,0.1839033 0.333297,0.3332974 0.142738,0.8867808 -0.329703,0.9576277 -0.130395,0.019554 -0.134809,0.024162 -0.188594,0.1968838 -0.03029,0.097274 -0.152959,0.4370179 -0.272596,0.7549866 -1.642024,4.3641472 -3.945438,7.25383 -7.0031464,8.7856 -1.4817775,0.742303 -3.0772462,1.142678 -4.8975656,1.229021 -0.2148438,0.01019 -0.4609375,0.02481 -0.546875,0.03249 -0.090801,0.0081 -0.2065774,-0.0043 -0.2764003,-0.02954 z M 3,6.5 V 6 H 4 5 V 5.5 5 H 4.5 4 V 4.5 4 H 4.5 5 V 3.5 3 H 4 3 V 2.5 2 H 4 5 V 2.25 2.5 H 5.5 6 v 2 2 H 5.5 5 V 6.75 7 H 4 3 Z"
       id="path821"
       inkscape:connector-curvature="0" />
    <path
       style="fill:#323232;stroke-width:0.000357143"
       d="M 1.1198866,14.783786 C 0.87524466,14.705548 0.75462831,14.624443 0.53712066,14.391927 0.27673025,14.113569 0.20533002,13.924992 0.20533002,13.515625 c 0,-0.441077 0.0703461,-0.60992 0.38536057,-0.924934 C 0.88212434,12.299257 1.0675655,12.216277 1.46875,12.197782 2.8391513,12.134607 3.6318944,12.0235 4.578125,11.761987 6.2339397,11.304363 7.9235556,10.242282 9.0965641,8.9217266 10.513488,7.3265741 11.617634,5.3140178 12.576845,2.578125 c 0.114494,-0.3265625 0.2417,-0.6511742 0.282681,-0.7213594 0.117721,-0.2016144 0.45407,-0.4964935 0.661817,-0.5802188 0.165865,-0.066847 0.228297,-0.073261 0.713032,-0.073261 0.684483,0 0.793057,0.036778 1.143684,0.387405 0.315015,0.3150144 0.385361,0.4838577 0.385361,0.9249344 0,0.253285 -0.01369,0.3469455 -0.07224,0.4942822 -0.08275,0.2082287 -0.376141,0.5430922 -0.581041,0.6631716 -0.126264,0.073996 -0.134733,0.08993 -0.34373,0.6467056 -1.04986,2.7968756 -2.345184,4.9604965 -3.988558,6.6622194 -1.7079757,1.768618 -3.6240976,2.885181 -5.9240648,3.452072 -0.8571584,0.211271 -1.5966244,0.312482 -2.7577379,0.377453 -0.7330773,0.04102 -0.763889,0.04014 -0.9761627,-0.02774 z M 2.15625,14.045871 c 4.8733363,-0.231157 8.514523,-2.828101 10.952533,-7.811496 0.449313,-0.9184153 1.004667,-2.2641153 1.220775,-2.9581116 0.05378,-0.172722 0.0582,-0.17733 0.188594,-0.1968838 0.472441,-0.070847 0.663,-0.6243303 0.329703,-0.9576277 -0.140043,-0.1400434 -0.286355,-0.1839033 -0.61348,-0.1839033 -0.300624,0 -0.450415,0.037611 -0.578277,0.1451997 -0.128564,0.1081794 -0.154996,0.1649228 -0.393909,0.8456168 -1.750688,4.9879377 -4.2347965,8.0050599 -7.6580031,9.3011749 -1.1226597,0.425068 -2.6617158,0.70655 -3.8698109,0.707758 -0.3273618,3.28e-4 -0.4735307,0.0442 -0.6134798,0.184154 -0.38922861,0.389229 -0.07385,1.006845 0.4884798,0.956607 0.085937,-0.0077 0.3320312,-0.0223 0.546875,-0.03249 z M 2.75,7.709145 C 2.596618,7.6607997 2.3350356,7.3899319 2.2880036,7.2307494 c -0.051426,-0.174056 -0.051426,-1.2874428 0,-1.4614988 C 2.3387196,5.5975994 2.5975995,5.3387197 2.7692506,5.2880037 2.8399947,5.2671016 2.9806197,5.25 3.0817506,5.25 H 3.265625 V 4.5 3.75 H 3.0817506 C 2.8025486,3.75 2.6617304,3.6950981 2.4833161,3.5166838 2.2682583,3.3016259 2.25,3.2220647 2.25,2.5 2.25,2.1185935 2.263931,1.8507266 2.288004,1.7692506 2.33872,1.5975995 2.5975999,1.3387196 2.769251,1.2880036 c 0.1804926,-0.053328 2.2810063,-0.053328 2.4614988,0 C 5.3705253,1.3293017 5.6875,1.6159723 5.6875,1.701087 5.6875,1.7405556 5.7275287,1.75 5.8948119,1.75 c 0.1140215,0 0.2651934,0.017102 0.3359375,0.038004 0.1716512,0.050716 0.4305309,0.3095959 0.4812469,0.481247 0.05443,0.1842212 0.05443,4.2772775 0,4.4614988 C 6.6612803,6.9024006 6.4024006,7.1612803 6.2307494,7.2119962 6.1600053,7.2328984 6.0088334,7.25 5.8948119,7.25 5.7275287,7.25 5.6875,7.2594444 5.6875,7.2989131 5.6875,7.3840278 5.3705253,7.6706984 5.2307494,7.7119962 5.0609428,7.7621672 2.9103781,7.7596953 2.75,7.7091462 Z M 5,6.75 V 6.5 H 5.5 6 v -2 -2 H 5.5 5 V 2.25 2 H 4 3 V 2.5 3 H 4 5 V 3.5 4 H 4.5 4 V 4.5 5 H 4.5 5 V 5.5 6 H 4 3 V 6.5 7 h 1 1 z"
       id="path819"
       inkscape:connector-curvature="0" />
  </g>
</svg>
