<?xml version="1.0" encoding="UTF-8" standalone="no"?>
<!-- Created with Inkscape (http://www.inkscape.org/) -->

<svg
   version="1.1"
   id="svg2"
   width="1600"
   height="1600"
   viewBox="0 0 1600 1600"
   sodipodi:docname="ipo_constant.svg"
   inkscape:version="1.2.2 (732a01da63, 2022-12-09)"
   xmlns:inkscape="http://www.inkscape.org/namespaces/inkscape"
   xmlns:sodipodi="http://sodipodi.sourceforge.net/DTD/sodipodi-0.dtd"
   xmlns="http://www.w3.org/2000/svg"
   xmlns:svg="http://www.w3.org/2000/svg"
   xmlns:rdf="http://www.w3.org/1999/02/22-rdf-syntax-ns#"
   xmlns:cc="http://creativecommons.org/ns#"
   xmlns:dc="http://purl.org/dc/elements/1.1/">
  <metadata
     id="metadata8">
    <rdf:RDF>
      <cc:Work
         rdf:about="">
        <dc:format>image/svg+xml</dc:format>
        <dc:type
           rdf:resource="http://purl.org/dc/dcmitype/StillImage" />
      </cc:Work>
    </rdf:RDF>
  </metadata>
  <defs
     id="defs6" />
  <sodipodi:namedview
     pagecolor="#808080"
     bordercolor="#666666"
     borderopacity="1"
     objecttolerance="10"
     gridtolerance="10"
     guidetolerance="10"
     inkscape:pageopacity="0"
     inkscape:pageshadow="2"
     inkscape:window-width="1993"
     inkscape:window-height="1009"
     id="namedview4"
     showgrid="false"
     inkscape:zoom="0.5"
     inkscape:cx="529"
     inkscape:cy="608"
     inkscape:window-x="-8"
     inkscape:window-y="-8"
     inkscape:window-maximized="1"
     inkscape:current-layer="IPO_CONSTANT"
     inkscape:showpageshadow="0"
     inkscape:pagecheckerboard="true"
     inkscape:deskcolor="#d1d1d1" />
  <g
     id="IPO_CONSTANT"
     transform="matrix(100,0,0,100,0,4.9999997e-5)"
     style="stroke-width:0.0114286">
    <path
       style="fill:none;stroke-width:0.000357143"
       d="M 0,8 V 0 h 8 8 v 8 8 H 8 0 Z m 9.015625,6.753059 c 0.2633372,-0.105426 0.6320075,-0.474097 0.7374344,-0.737434 l 0.075066,-0.1875 0.00819,-4.9914641 0.00819,-4.9914637 2.4918116,-0.00854 2.491812,-0.00854 0.1875,-0.075066 c 0.142095,-0.056888 0.244997,-0.1325622 0.424934,-0.3125 0.315015,-0.3150144 0.385361,-0.4838577 0.385361,-0.9249344 0,-0.4410767 -0.07035,-0.60992 -0.385361,-0.9249344 -0.179937,-0.1799376 -0.282839,-0.2556122 -0.424934,-0.3125 l -0.1875,-0.075066 H 11.53125 8.234375 l -0.1817822,0.07335 C 7.8414694,1.361646 7.5082184,1.6558979 7.3852678,1.865697 7.3412578,1.9407944 7.2787559,2.0873621 7.246375,2.1914031 7.1897625,2.3732994 7.1875,2.5689678 7.1875,7.2834175 v 4.9028485 l -2.9609375,0.0084 -2.9609375,0.0084 -0.1875,0.07507 c -0.14209525,0.05689 -0.24499678,0.132562 -0.42493441,0.3125 -0.31501443,0.315014 -0.38536057,0.483857 -0.38536057,0.924934 0,0.409367 0.0714002,0.597944 0.33179064,0.876302 0.2173444,0.232342 0.33787712,0.313443 0.58276594,0.392116 0.1675507,0.05383 0.3761201,0.05652 3.9113634,0.05047 l 3.734375,-0.0064 z"
       id="path823"
       inkscape:connector-curvature="0" />
    <path
       style="fill:#98cbfe;stroke-width:0.000357143"
       d="M 1.3954747,14.048167 C 0.99489294,13.90534 0.88403997,13.421107 1.1833952,13.121752 1.2465841,13.058563 1.3542171,12.991335 1.4225796,12.972356 1.5095153,12.94822 2.507187,12.937796 4.74183,12.937674 L 7.936785,12.9375 7.944955,7.6796875 7.953125,2.421875 8.0220672,2.2929935 c 0.086113,-0.1609815 0.2262812,-0.280915 0.3773406,-0.3228683 0.1672769,-0.046457 6.1039932,-0.044346 6.2717622,0.00223 0.165127,0.045843 0.344619,0.2291727 0.390236,0.3985796 0.07982,0.2964215 -0.09954,0.6072124 -0.398314,0.6901895 -0.07583,0.021061 -1.063641,0.032337 -2.84278,0.032451 L 9.09375,3.09375 9.0935625,8.3203125 c -1.25e-4,3.7168995 -0.010141,5.2624645 -0.034681,5.3508575 -0.044224,0.159297 -0.2284272,0.3435 -0.3877241,0.387724 -0.087417,0.02427 -1.167375,0.03415 -3.6399203,0.03331 -2.8962542,-9.87e-4 -3.5367927,-0.0087 -3.6357754,-0.04404 z"
       id="path821"
       inkscape:connector-curvature="0" />
    <path
       style="fill:#323232;stroke-width:0.000357143"
       d="M 1.1823866,14.784043 C 0.93749778,14.70537 0.81696506,14.624269 0.59962066,14.391927 0.33923025,14.113569 0.26783002,13.924992 0.26783002,13.515625 c 0,-0.441077 0.0703461,-0.60992 0.38536057,-0.924934 0.17993763,-0.179938 0.28283916,-0.255613 0.42493441,-0.3125 l 0.1875,-0.07507 2.9609375,-0.0084 2.9609375,-0.0084 V 7.2834175 C 7.1875,2.5689677 7.18976,2.3732994 7.246375,2.1914031 7.2787559,2.0873621 7.3412578,1.9407944 7.3852678,1.865697 7.5082184,1.6558979 7.8414694,1.361646 8.0525928,1.2764665 L 8.234375,1.203125 h 3.296875 3.296875 l 0.1875,0.075066 c 0.142095,0.056888 0.244997,0.1325624 0.424934,0.3125 0.315015,0.3150144 0.385361,0.4838577 0.385361,0.9249344 0,0.4410767 -0.07035,0.60992 -0.385361,0.9249344 -0.179937,0.1799378 -0.282839,0.2556122 -0.424934,0.3125 l -0.1875,0.075066 -2.491812,0.00854 -2.4918117,0.00854 -0.00819,4.9914637 -0.00819,4.9914645 -0.075066,0.1875 c -0.056888,0.142095 -0.1325622,0.244997 -0.3125,0.424934 -0.1799375,0.179938 -0.2828391,0.255613 -0.4249344,0.3125 l -0.1875,0.07507 -3.734375,0.0064 c -3.5352433,0.006 -3.7438127,0.0034 -3.9113634,-0.05047 z M 8.6711703,14.058894 C 8.8304672,14.01467 9.01467,13.830467 9.0588944,13.67117 c 0.02454,-0.08839 0.034558,-1.633958 0.034681,-5.3508575 L 9.09375,3.09375 11.820313,3.093575 C 13.599451,3.0934625 14.587258,3.082185 14.663092,3.061124 14.961864,2.978147 15.141223,2.667356 15.061406,2.3709345 15.015789,2.2015277 14.836297,2.0181979 14.67117,1.972355 14.503401,1.9257786 8.5666847,1.9236672 8.3994078,1.9701244 8.2483484,2.0120778 8.1081806,2.1320113 8.0220672,2.2929927 L 7.953125,2.421875 7.944955,7.6796875 7.936785,12.9375 4.74183,12.937687 c -2.234643,1.26e-4 -3.2323147,0.01055 -3.3192504,0.03468 -0.068362,0.01898 -0.1759955,0.08621 -0.2391844,0.149396 -0.23301645,0.233017 -0.22701357,0.585677 0.013798,0.810599 0.1750966,0.163544 0.055695,0.158566 3.834057,0.159853 2.4725453,8.41e-4 3.5525031,-0.009 3.6399203,-0.03331 z"
       id="path819"
       inkscape:connector-curvature="0" />
  </g>
</svg>
