<?xml version="1.0" encoding="UTF-8" standalone="no"?>
<!-- Created with Inkscape (http://www.inkscape.org/) -->

<svg
   version="1.1"
   id="svg2"
   width="1600"
   height="1600"
   viewBox="0 0 1600 1600"
   sodipodi:docname="ipo_expo.svg"
   inkscape:version="1.2.2 (732a01da63, 2022-12-09)"
   xmlns:inkscape="http://www.inkscape.org/namespaces/inkscape"
   xmlns:sodipodi="http://sodipodi.sourceforge.net/DTD/sodipodi-0.dtd"
   xmlns="http://www.w3.org/2000/svg"
   xmlns:svg="http://www.w3.org/2000/svg"
   xmlns:rdf="http://www.w3.org/1999/02/22-rdf-syntax-ns#"
   xmlns:cc="http://creativecommons.org/ns#"
   xmlns:dc="http://purl.org/dc/elements/1.1/">
  <metadata
     id="metadata8">
    <rdf:RDF>
      <cc:Work
         rdf:about="">
        <dc:format>image/svg+xml</dc:format>
        <dc:type
           rdf:resource="http://purl.org/dc/dcmitype/StillImage" />
      </cc:Work>
    </rdf:RDF>
  </metadata>
  <defs
     id="defs6" />
  <sodipodi:namedview
     pagecolor="#808080"
     bordercolor="#666666"
     borderopacity="1"
     objecttolerance="10"
     gridtolerance="10"
     guidetolerance="10"
     inkscape:pageopacity="0"
     inkscape:pageshadow="2"
     inkscape:window-width="1993"
     inkscape:window-height="1009"
     id="namedview4"
     showgrid="false"
     inkscape:zoom="0.5"
     inkscape:cx="535"
     inkscape:cy="362"
     inkscape:window-x="-8"
     inkscape:window-y="-8"
     inkscape:window-maximized="1"
     inkscape:current-layer="IPO_EXPO"
     inkscape:showpageshadow="0"
     inkscape:pagecheckerboard="true"
     inkscape:deskcolor="#d1d1d1" />
  <g
     id="IPO_EXPO"
     transform="matrix(100,0,0,100,0,4.9999997e-5)"
     style="stroke-width:0.0114286">
    <path
       style="fill:none;stroke-width:0.000357143"
       d="M 0,8 V 0 h 8 8 v 8 8 H 8 0 Z m 4.265625,6.797908 c 2.2683997,-0.02924 3.7602938,-0.240765 5.28125,-0.748795 1.393065,-0.465311 2.291796,-1.006998 3.172839,-1.912346 0.834102,-0.857113 1.35795,-1.792703 1.791308,-3.199267 0.201956,-0.6554928 0.35268,-1.3386647 0.486199,-2.2037409 C 15.121025,5.9316287 15.3125,4.1835916 15.3125,3.8554763 V 3.5243881 L 15.466544,3.3558397 C 15.69076,3.110511 15.76342,2.9048708 15.76342,2.515625 c 0,-0.4410767 -0.07035,-0.60992 -0.385361,-0.9249344 -0.350627,-0.3506272 -0.459201,-0.387405 -1.143684,-0.387405 -0.684483,0 -0.793057,0.036778 -1.143684,0.387405 -0.373015,0.3730151 -0.380157,0.4003384 -0.405118,1.5499344 -0.01748,0.8049097 -0.03622,1.0656706 -0.132537,1.84375 -0.329613,2.6627659 -0.644743,3.7950791 -1.354635,4.8674369 -0.647437,0.9780121 -2.0146544,1.6929501 -3.8976307,2.0381301 -1.1758415,0.21555 -1.9533037,0.270177 -4.1913953,0.294502 l -1.90625,0.02072 -0.1875,0.07405 c -0.14321172,0.05656 -0.243583,0.13013 -0.42493441,0.311482 -0.31501443,0.315014 -0.38536057,0.483857 -0.38536057,0.924934 0,0.409367 0.0714002,0.597944 0.33179064,0.876302 0.39591728,0.423237 0.49494444,0.448983 1.66600434,0.433143 0.4984375,-0.0067 1.4265625,-0.01896 2.0625,-0.02716 z"
       id="path825"
       inkscape:connector-curvature="0" />
    <path
       style="fill:#fecb32;stroke-width:0.000357143"
       d="m 11,11.887452 v -0.677376 l 0.336998,-0.347873 c 0.647132,-0.668015 1.067328,-1.449538 1.410682,-2.6237292 0.235009,-0.8036791 0.38376,-1.6585588 0.57893,-3.3271469 0.09708,-0.8299666 0.110912,-1.0401481 0.111064,-1.6875 9.4e-5,-0.4430586 0.01401,-0.789273 0.03468,-0.8637473 0.04422,-0.1592967 0.228427,-0.3434995 0.387724,-0.3877238 0.156625,-0.043483 0.587306,-0.04478 0.740512,-0.00223 0.29587,0.082171 0.478126,0.3937903 0.400002,0.6839202 -0.04334,0.160961 -0.191144,0.3317118 -0.33086,0.3822339 L 14.5625,3.0750555 V 3.552685 c 0,0.6911491 -0.243043,2.7336306 -0.456619,3.8373241 -0.476973,2.4648556 -1.366413,4.0061269 -2.910568,5.0435959 L 11,12.564829 Z"
       id="path823"
       inkscape:connector-curvature="0" />
    <path
       style="fill:#98cb00;stroke-width:0.000357143"
       d="M 1.3256854,14.044128 C 0.95713047,13.917424 0.83077031,13.455913 1.0826693,13.156548 1.2606429,12.945039 1.1615268,12.95517 3.265625,12.933426 c 1.9058503,-0.0197 2.3088047,-0.03865 3.2538953,-0.153018 1.8851978,-0.228141 3.4102291,-0.75453 4.3638987,-1.506268 l 0.117793,-0.09285 -0.0084,0.694346 -0.0084,0.694347 -0.25,0.142629 c -0.8003181,0.456593 -2.0413903,0.861157 -3.2774297,1.068372 -1.198535,0.200928 -1.8959037,0.2516 -3.6913203,0.268217 -0.825,0.0076 -1.6860927,0.01835 -1.9135392,0.02381 -0.2726843,0.0065 -0.4519807,-0.0033 -0.5264004,-0.02888 z"
       id="path821"
       inkscape:connector-curvature="0" />
    <path
       style="fill:#323232;stroke-width:0.000357143"
       d="M 1.1198866,14.782256 C 0.87668287,14.70658 0.75559519,14.625477 0.53712066,14.391927 0.27673025,14.113569 0.20533002,13.924992 0.20533002,13.515625 c 0,-0.441077 0.0703461,-0.60992 0.38536057,-0.924934 C 0.772042,12.409339 0.87241328,12.335766 1.015625,12.279209 l 0.1875,-0.07405 1.90625,-0.02072 c 2.2380916,-0.02432 3.0155538,-0.07895 4.1913953,-0.294502 1.8829763,-0.345179 3.2501937,-1.060118 3.8976307,-2.0381301 0.709892,-1.0723578 1.025022,-2.204671 1.354635,-4.8674369 0.09632,-0.7780794 0.11506,-1.0388403 0.132537,-1.84375 0.02496,-1.149596 0.0321,-1.1769193 0.405118,-1.5499344 0.350627,-0.3506272 0.459201,-0.387405 1.143684,-0.387405 0.684483,0 0.793057,0.036778 1.143684,0.387405 0.315015,0.3150144 0.385361,0.4838577 0.385361,0.9249344 0,0.3892458 -0.07266,0.594886 -0.296876,0.8402147 L 15.3125,3.5243881 v 0.3310882 c 0,0.3281153 -0.191475,2.0761524 -0.315279,2.8782828 -0.214714,1.39114 -0.515267,2.4826087 -0.951629,3.4558729 -0.52003,1.159877 -1.38598,2.182223 -2.451842,2.89466 -1.200147,0.802195 -2.9491103,1.361906 -4.953125,1.585122 -0.82927,0.09237 -1.2224106,0.113638 -2.375,0.128494 -0.6359375,0.0082 -1.5640625,0.02042 -2.0625,0.02716 -0.8001031,0.01082 -0.9269802,0.0058 -1.0832384,-0.04281 z M 3.765625,14.049199 c 0.825,-0.0076 1.6757812,-0.029 1.890625,-0.04747 2.6437253,-0.227305 4.370108,-0.741714 5.75,-1.713323 0.36723,-0.258574 1.018165,-0.902359 1.271118,-1.257157 0.675395,-0.947323 1.132859,-2.1133862 1.428513,-3.6412409 C 14.319457,6.2863156 14.5625,4.2438341 14.5625,3.552685 V 3.0750555 l 0.107234,-0.038776 c 0.139716,-0.050522 0.287517,-0.2212729 0.33086,-0.3822339 0.07812,-0.2901299 -0.104132,-0.6017489 -0.400002,-0.6839201 -0.153206,-0.042549 -0.583887,-0.041252 -0.740512,0.00223 -0.159297,0.044224 -0.3435,0.2284272 -0.387724,0.3877238 -0.02068,0.074474 -0.03458,0.4206888 -0.03468,0.8637473 -1.56e-4,0.6473519 -0.01399,0.8575335 -0.111064,1.6875 -0.246934,2.1111388 -0.452403,3.1116925 -0.845855,4.1189791 -0.534319,1.3679283 -1.355846,2.2621703 -2.6377172,2.8711903 -1.0911634,0.518413 -2.3893222,0.816601 -4.2492878,0.976062 -0.2320313,0.01989 -1.2796875,0.04503 -2.328125,0.05587 -2.1040982,0.02174 -2.0049821,0.01161 -2.1829558,0.223122 -0.19428408,0.230894 -0.17175998,0.566785 0.052024,0.775803 0.1334894,0.124682 0.269735,0.151395 0.7173928,0.140654 0.2274465,-0.0055 1.0885392,-0.01617 1.9135392,-0.02381 z"
       id="path819"
       inkscape:connector-curvature="0" />
  </g>
</svg>
