<?xml version="1.0" encoding="UTF-8" standalone="no"?>
<!-- Created with Inkscape (http://www.inkscape.org/) -->

<svg
   version="1.1"
   id="svg2"
   width="1600"
   height="1600"
   viewBox="0 0 1600 1600"
   sodipodi:docname="is_spline_cyclic.svg"
   inkscape:version="1.2.2 (732a01da63, 2022-12-09)"
   xmlns:inkscape="http://www.inkscape.org/namespaces/inkscape"
   xmlns:sodipodi="http://sodipodi.sourceforge.net/DTD/sodipodi-0.dtd"
   xmlns="http://www.w3.org/2000/svg"
   xmlns:svg="http://www.w3.org/2000/svg"
   xmlns:rdf="http://www.w3.org/1999/02/22-rdf-syntax-ns#"
   xmlns:cc="http://creativecommons.org/ns#"
   xmlns:dc="http://purl.org/dc/elements/1.1/">
  <metadata
     id="metadata8">
    <rdf:RDF>
      <cc:Work
         rdf:about="">
        <dc:format>image/svg+xml</dc:format>
        <dc:type
           rdf:resource="http://purl.org/dc/dcmitype/StillImage" />
      </cc:Work>
    </rdf:RDF>
  </metadata>
  <defs
     id="defs6" />
  <sodipodi:namedview
     pagecolor="#808080"
     bordercolor="#666666"
     borderopacity="1"
     objecttolerance="10"
     gridtolerance="10"
     guidetolerance="10"
     inkscape:pageopacity="0"
     inkscape:pageshadow="2"
     inkscape:window-width="1993"
     inkscape:window-height="1009"
     id="namedview4"
     showgrid="false"
     inkscape:zoom="0.5"
     inkscape:cx="511"
     inkscape:cy="598"
     inkscape:window-x="-8"
     inkscape:window-y="-8"
     inkscape:window-maximized="1"
     inkscape:current-layer="IS_SPLINE_CYCLIC"
     inkscape:showpageshadow="0"
     inkscape:pagecheckerboard="true"
     inkscape:deskcolor="#d1d1d1" />
  <g
     id="IS_SPLINE_CYCLIC"
     transform="matrix(100,0,0,100,0,4.9999997e-5)"
     style="stroke-width:0.0114286">
    <path
       style="fill:none;stroke-width:0.000357143"
       d="M 0,8 V 0 h 8 8 L 15.9957,3.7578125 C 15.993298,5.9146794 15.980658,7.4024603 15.966072,7.25 15.883012,6.3817806 15.631935,5.4485322 15.278061,4.6926803 L 15.126865,4.3697359 15.232444,4.1600844 C 15.439037,3.7498459 15.484375,3.5410737 15.484375,3 c 0,-0.5554034 -0.04639,-0.758441 -0.274912,-1.203125 C 15.027713,1.4431977 14.556803,0.97228759 14.203125,0.79053681 13.758441,0.56201872 13.555403,0.515625 13,0.515625 c -0.541074,0 -0.749846,0.0453382 -1.160084,0.251931 L 11.630264,0.87313472 11.30732,0.72193897 C 10.898726,0.53064409 10.433001,0.36624166 9.9708338,0.25015502 9.6674222,0.17394443 9.1067812,0.06295487 9.0234375,0.06259984 9.0105469,0.06254493 9,0.52629459 9,1.0931546 v 1.0306547 l 0.085937,0.019614 c 0.5594791,0.1276904 1.215305,0.3394258 1.371087,0.4426598 0.02206,0.014617 0.04098,0.1920635 0.0508,0.4764174 0.01783,0.5160847 0.0696,0.7248228 0.282925,1.140625 0.181525,0.3538219 0.652304,0.8246012 1.006126,1.0061259 0.418443,0.2146782 0.624007,0.2653854 1.147116,0.2829638 l 0.459615,0.015445 0.09934,0.2383578 C 13.786727,6.4269394 13.973615,7.3219244 13.973615,8 c 0,0.6780756 -0.186888,1.5730606 -0.47067,2.253983 l -0.09934,0.238358 -0.459615,0.01544 c -0.523109,0.01758 -0.728673,0.06829 -1.147116,0.282964 -0.353822,0.181525 -0.824601,0.652304 -1.006126,1.006126 -0.213323,0.415802 -0.265099,0.62454 -0.282925,1.140625 -0.0098,0.284354 -0.02874,0.461801 -0.0508,0.476418 -0.155782,0.103233 -0.8116074,0.314969 -1.3710865,0.442659 L 9,13.876191 v 1.030654 c 0,0.56686 0.010547,1.03061 0.023437,1.030555 0.083344,-3.56e-4 0.6439847,-0.111344 0.9473963,-0.187555 C 10.433,15.633758 10.898725,15.469356 11.307319,15.278061 l 0.322944,-0.151196 0.209652,0.105579 c 0.410238,0.206593 0.61901,0.251931 1.160084,0.251931 0.555403,0 0.758441,-0.04639 1.203125,-0.274912 0.353678,-0.18175 0.824588,-0.65266 1.006338,-1.006338 C 15.43798,13.758441 15.484374,13.555403 15.484374,13 c 0,-0.541074 -0.04534,-0.749846 -0.251931,-1.160084 L 15.126864,11.630264 15.27806,11.30732 c 0.353874,-0.755852 0.604951,-1.6891006 0.688011,-2.55732 0.01459,-0.1524603 0.02723,1.335321 0.02967,3.492188 L 16,16 H 8 0 Z m 6.9613587,6.903469 -0.00823,-1.03403 -0.40625,-0.102969 C 5.7347494,13.560627 4.93312,13.159345 4.2734375,12.628425 L 4,12.40836 v 0.795186 0.795186 l -0.6405941,0.0084 -0.6405943,0.0084 0.2710232,0.21875 c 0.8353921,0.674267 1.9520961,1.236258 2.9886589,1.504068 0.2798513,0.0723 0.8403935,0.187823 0.9516151,0.196114 0.031229,0.0023 0.037762,-0.213248 0.03125,-1.031088 z M 2.796454,12 H 3.59164 L 3.3715747,11.726563 C 3.11407,11.406606 2.876323,11.03208 2.6702356,10.621736 2.4222885,10.128044 2.2996967,9.7706563 2.1434228,9.0859375 L 2.1238093,9 H 1.0931546 C 0.52629459,9 0.06254493,9.0105469 0.06259984,9.0234375 0.06295447,9.1066859 0.17389935,9.6672441 0.24993753,9.9699763 0.51730184,11.034439 1.0768621,12.156813 1.765625,13.010165 l 0.21875,0.271023 0.00845,-0.640594 L 2.001268,12 Z M 2.1434228,6.9140625 C 2.2996967,6.2293437 2.4222885,5.8719562 2.6702356,5.3782641 2.876323,4.9679197 3.11407,4.5933944 3.3715747,4.2734375 L 3.59164,4 H 2.796454 2.001268 L 1.9928215,3.3594059 1.984375,2.7188116 1.765625,2.9898348 C 1.0768621,3.8431869 0.51730184,4.9655613 0.24993753,6.0300237 0.17389935,6.3327559 0.06295446,6.8933141 0.06259984,6.9765625 0.06254493,6.9894531 0.52629459,7 1.0931546,7 H 2.1238093 Z M 4.8158416,2.9845637 C 5.4033703,2.6198889 5.9384178,2.3877509 6.546875,2.2335302 L 6.953125,2.1305613 6.961365,1.0939544 6.969605,0.05734758 6.883243,0.0745233 C 6.8357378,0.08396994 6.7054687,0.10700835 6.59375,0.12571976 5.3675541,0.33109138 3.9912481,0.95735778 2.9898348,1.765625 L 2.7188116,1.984375 3.3594059,1.9928215 4,2.001268 V 2.796454 3.59164 L 4.2734375,3.3715747 C 4.4238281,3.2505388 4.66791,3.0763838 4.8158416,2.9845637 Z"
       id="path829"
       inkscape:connector-curvature="0" />
    <path
       style="fill:#fefecb;stroke-width:0.000357143"
       d="M 6.59375,15.876158 C 5.2748478,15.629788 3.9984228,15.048315 2.9897809,14.234375 l -0.2710771,-0.21875 0.3984606,-0.0087 0.3984606,-0.0087 L 3.875,14.2363 c 0.4266147,0.28262 1.1371575,0.641952 1.5934256,0.805821 0.3651575,0.131145 0.9289844,0.279975 1.2737619,0.336227 l 0.2265625,0.03696 v 0.261046 c 0,0.189572 -0.010695,0.260239 -0.039063,0.258102 -0.021484,-0.0016 -0.1726563,-0.0279 -0.3359375,-0.0584 z M 9,15.677282 v -0.260218 l 0.2421875,-0.03711 c 0.5230588,-0.08014 1.2648695,-0.302772 1.7634485,-0.529237 l 0.208761,-0.09483 0.05686,0.06409 c 0.03127,0.03525 0.125227,0.118536 0.208782,0.185086 l 0.151917,0.120999 -0.323792,0.151596 c -0.40939,0.191672 -0.874874,0.356024 -1.3373342,0.472184 -0.3034116,0.07621 -0.8640525,0.1872 -0.9473963,0.187555 C 9.0105469,15.937463 9,15.820402 9,15.677282 Z M 6.421875,14.268237 C 5.6356678,14.066819 4.8327094,13.690408 4.1953125,13.22447 L 4,13.081696 V 12.745028 12.40836 l 0.2734375,0.220065 c 0.6597875,0.531004 1.4616009,0.932352 2.2734375,1.137968 l 0.40625,0.102893 0.00908,0.252857 c 0.010949,0.30502 0.044555,0.295934 -0.5403262,0.146094 z M 9,14.125595 c 0,-0.246489 10e-4,-0.249633 0.085937,-0.269018 0.5875391,-0.134094 1.06974,-0.288966 1.348441,-0.433088 0.09553,-0.0494 0.09687,-0.04904 0.09687,0.02605 0,0.04188 0.02651,0.161335 0.05892,0.265457 l 0.05892,0.189314 -0.33236,0.130147 C 9.9844831,14.164561 9.2173234,14.375 9.075275,14.375 9.0020297,14.375 9,14.368275 9,14.125595 Z M 1.765625,13.010219 C 1.0767081,12.156507 0.51729294,11.034403 0.24993753,9.9699763 0.17389935,9.6672441 0.06295446,9.1066859 0.06259984,9.0234375 0.06254493,9.0105469 0.17959817,9 0.32271816,9 h 0.26021815 l 0.0371082,0.2421875 C 0.76207887,10.169177 1.2010892,11.275885 1.7636027,12.125 l 0.2380753,0.359375 -0.00865,0.398461 -0.00865,0.39846 z M 2.7755303,11.804688 C 2.3009812,11.155512 1.9115071,10.315484 1.7183798,9.5245978 1.5831082,8.9706394 1.5743758,9 1.8744046,9 2.1208943,9 2.1240385,9.001 2.1434228,9.085937 2.2996967,9.7706558 2.4222885,10.128044 2.6702356,10.621736 2.876323,11.03208 3.11407,11.406606 3.3715747,11.726563 L 3.59164,12 H 3.2549722 2.9183043 Z M 0.06259984,6.9765625 C 0.06295447,6.8933141 0.17389935,6.3327559 0.24993753,6.0300237 0.51729294,4.9655966 1.0767081,3.8434934 1.765625,2.9897809 L 1.984375,2.7187038 1.9930265,3.1171644 2.001678,3.515625 1.7636027,3.875 C 1.2010892,4.724115 0.76207887,5.8308228 0.62004453,6.7578125 L 0.58293631,7 H 0.32271816 C 0.17959817,7 0.06254493,6.9894531 0.06259984,6.9765625 Z M 1.625,6.9289034 c 0,-0.1293203 0.1848443,-0.83078 0.3004631,-1.1402172 C 2.1233366,5.2591056 2.4621873,4.6239606 2.7755303,4.1953125 L 2.9183043,4 H 3.2549722 3.59164 L 3.3715747,4.2734375 C 3.11407,4.5933944 2.876323,4.9679197 2.6702356,5.3782641 2.4222885,5.8719562 2.2996967,6.2293437 2.1434228,6.9140625 2.1240385,6.9989956 2.1208943,7 1.8744046,7 1.6357812,7 1.625,6.9969266 1.625,6.9289034 Z M 4,3.2549722 V 2.9183043 L 4.1953125,2.7755303 C 4.8444881,2.3009812 5.6845159,1.9115071 6.4754022,1.7183798 7.0096675,1.587917 6.9730394,1.5759175 6.9622013,1.8778572 L 6.953125,2.1307144 6.546875,2.2336067 C 5.7350384,2.4392234 4.933225,2.8405707 4.2734375,3.3715747 L 4,3.59164 Z M 10.467938,2.5922534 C 10.292666,2.4801442 9.6575922,2.2738921 9.0859375,2.1434228 9.0010044,2.1240385 9,2.1208943 9,1.8744046 9,1.6317246 9.0020297,1.625 9.075275,1.625 c 0.1424322,0 0.9096131,0.2105976 1.24358,0.3413731 l 0.334479,0.1309765 -0.0327,0.084138 c -0.01799,0.046276 -0.04934,0.1642584 -0.06967,0.2621836 -0.03009,0.144922 -0.04553,0.1725645 -0.08303,0.1485825 z M 2.796875,1.9212036 C 2.8484375,1.8780364 3.0247795,1.7401607 3.1887459,1.6148133 4.1416119,0.88637634 5.4385216,0.31920522 6.59375,0.12571976 6.7054687,0.10700835 6.8355469,0.08401189 6.8828125,0.07461653 L 6.96875,0.05753405 V 0.32106231 0.58459059 L 6.7421875,0.621555 C 6.39741,0.67780659 5.8335831,0.82663672 5.4684256,0.9577825 5.0126544,1.1214722 4.3017734,1.4808813 3.8762406,1.7627637 L 3.5181063,2 3.1106156,1.9998448 2.703125,1.9996896 Z M 11,1.1482302 C 10.517491,0.92601869 9.7666263,0.70039956 9.2421875,0.62004453 L 9,0.58293631 V 0.32271816 C 9,0.17959817 9.010547,0.06254493 9.023437,0.06259984 9.106781,0.06295487 9.6674217,0.17394443 9.9708333,0.25015502 10.433597,0.36639169 10.898831,0.53069203 11.309049,0.72275516 l 0.324675,0.1520119 -0.0903,0.0677524 c -0.04966,0.0372638 -0.14655,0.11984074 -0.215299,0.18350444 l -0.125,0.1157522 z"
       id="path827"
       inkscape:connector-curvature="0" />
    <path
       style="fill:#fefe00;stroke-width:0.000357143"
       d="M 6.484375,15.328403 C 5.5372056,15.124838 4.6771247,14.765111 3.890625,14.243571 L 3.546875,14.015625 3.7734375,14.006443 4,13.997262 v -0.455568 -0.455567 l 0.070312,0.05057 c 0.826165,0.594174 1.6931662,0.99393 2.5624025,1.181471 l 0.3358403,0.07246 9.38e-5,0.507812 c 1.25e-4,0.594629 0.055029,0.545873 -0.4842775,0.429966 z M 9,14.890625 V 14.375 h 0.075275 c 0.141805,0 0.9089516,-0.210166 1.235604,-0.338504 0.179578,-0.07055 0.32874,-0.125206 0.331473,-0.12145 0.0027,0.0038 0.06299,0.119329 0.133898,0.256829 0.07091,0.1375 0.194127,0.324497 0.273813,0.415548 0.07968,0.09105 0.138991,0.17144 0.13179,0.178641 -0.02442,0.02442 -0.383823,0.177752 -0.630708,0.269078 -0.321101,0.118779 -0.7093762,0.226733 -1.1029287,0.306652 C 8.9508444,15.442795 9,15.492274 9,14.890625 Z m 3.5625,0.06078 c -0.730181,-0.156824 -1.361796,-0.794226 -1.515645,-1.52953 -0.297121,-1.420052 0.954968,-2.672141 2.37502,-2.37502 0.742912,0.155441 1.375829,0.788358 1.53127,1.53127 0.29819,1.425161 -0.965246,2.67942 -2.390645,2.37328 z M 1.7564291,12.109375 C 1.2257942,11.30916 0.84971659,10.398157 0.65785706,9.4482163 0.55738462,8.9507538 0.50777569,9 1.109375,9 1.6249486,9 1.625,9.0000072 1.625,9.0710966 c 0,0.1286887 0.1845793,0.8300503 0.3000741,1.1402174 0.1998538,0.536717 0.5512464,1.180293 0.9382307,1.718373 L 2.9138733,12 H 2.4583057 2.0027381 l -0.00918,0.226562 -0.00918,0.226563 z M 0.59375,6.9345962 c 0,-0.1111325 0.12352356,-0.6838818 0.21988219,-1.0195415 C 1.0056402,5.2462059 1.3550728,4.4958834 1.7564291,3.890625 L 1.984375,3.546875 1.9935566,3.7734375 2.0027381,4 H 2.4583057 2.9138733 L 2.8633043,4.070312 C 2.4763205,4.6083925 2.1249279,5.2519694 1.9250741,5.7886862 1.8095793,6.0988531 1.625,6.8002147 1.625,6.9289034 1.625,6.9999928 1.6249486,7 1.109375,7 0.60695284,7 0.59375,6.9983253 0.59375,6.9345962 Z M 12.5625,4.9514053 C 11.832319,4.7945809 11.200704,4.1571794 11.046855,3.421875 10.786618,2.1781071 11.736265,1.0010852 13,1.0010852 c 1.090758,0 1.998915,0.9081572 1.998915,1.9989148 0,1.2683769 -1.187653,2.2196075 -2.436415,1.9514053 z M 4,2.4583057 V 2.0027381 L 3.7734375,1.9935566 3.546875,1.984375 3.890625,1.7564291 C 4.4958834,1.3550728 5.2462059,1.0056402 5.9150547,0.81363219 6.2291112,0.72347519 6.8213978,0.59375 6.9189712,0.59375 c 0.0435,0 0.049767,0.0640513 0.049681,0.5078125 L 6.9685588,1.609375 6.6327184,1.6818337 C 5.7634787,1.8693746 4.8964775,2.2691312 4.0703125,2.8633048 L 4,2.9138733 Z M 10.296875,1.9613755 C 9.9862322,1.8362246 9.2191372,1.625 9.075275,1.625 H 9 V 1.109375 C 9,0.5077255 8.9508444,0.55720488 9.4482163,0.65820634 c 0.3935525,0.0799189 0.7818277,0.18787269 1.1029287,0.30665188 0.246885,0.0913259 0.606287,0.24465688 0.630708,0.26907788 0.0072,0.0072 -0.05227,0.087589 -0.132162,0.1786409 -0.07989,0.091051 -0.204612,0.2815 -0.27716,0.4232192 C 10.699981,1.9775153 10.633594,2.092074 10.625,2.090371 10.6164,2.088671 10.46875,2.03062 10.296875,1.9613755 Z"
       id="path825"
       inkscape:connector-curvature="0" />
    <path
       style="fill:#fe9832;stroke-width:0.000357143"
       d="m 14.5786,11.045139 c -0.08568,-0.07676 -0.268489,-0.197668 -0.40625,-0.268689 -0.137761,-0.07102 -0.253548,-0.131365 -0.257304,-0.134098 -0.0038,-0.0027 0.0509,-0.151895 0.12145,-0.331473 C 14.303911,9.6302391 14.478691,8.7168531 14.478691,8 c 0,-0.7168531 -0.17478,-1.6302391 -0.442195,-2.3108791 -0.07055,-0.1795775 -0.125206,-0.3287403 -0.12145,-0.3314731 0.0038,-0.00273 0.119329,-0.062987 0.256829,-0.1338981 0.1375,-0.070911 0.324497,-0.1941269 0.415548,-0.2738125 0.09105,-0.079686 0.17144,-0.1389909 0.178641,-0.13179 0.07752,0.07752 0.371639,0.8895784 0.483523,1.335 0.324029,1.2900006 0.324113,2.4033466 2.81e-4,3.6926175 -0.124705,0.4964793 -0.438335,1.3444113 -0.495759,1.3403353 -0.01085,-7.72e-4 -0.08983,-0.0642 -0.175504,-0.140961 z"
       id="path823"
       inkscape:connector-curvature="0" />
    <path
       style="fill:#980000;stroke-width:0.000357143"
       d="m 15.039576,11.522039 c -0.03839,-0.05639 -0.117768,-0.149026 -0.176396,-0.205851 l -0.106595,-0.103316 0.09448,-0.207999 C 15.186927,10.265456 15.400339,9.3952934 15.474979,8.4609375 15.561739,7.3748844 15.318513,6.0242431 14.85072,4.9943641 l -0.09483,-0.208761 0.06409,-0.056864 c 0.03525,-0.031275 0.118536,-0.1252269 0.185086,-0.2087816 L 15.126065,4.36804 15.277661,4.6918325 c 0.956299,2.0425544 0.956927,4.5722991 0.0016,6.6128545 -0.08247,0.176172 -0.154449,0.320217 -0.159941,0.3201 -0.0055,-1.25e-4 -0.0414,-0.04636 -0.07979,-0.102748 z M 13.71875,10.592453 c -0.09453,-0.03156 -0.210833,-0.05824 -0.258448,-0.05929 l -0.08657,-0.0019 0.05932,-0.117187 C 13.722133,9.8429909 13.973615,8.7199184 13.973615,8 c 0,-0.7199184 -0.251482,-1.8429909 -0.540564,-2.4140625 L 13.37373,5.46875 h 0.07598 c 0.04179,0 0.161167,-0.026514 0.265289,-0.058921 L 13.904313,5.350908 14.03446,5.6832668 C 14.304418,6.3726731 14.478691,7.2815231 14.478691,8 c 0,0.7199341 -0.174269,1.6273122 -0.445634,2.320313 -0.07235,0.184765 -0.133996,0.334495 -0.136989,0.332731 -0.003,-0.0018 -0.08279,-0.02903 -0.177318,-0.06059 z"
       id="path821"
       inkscape:connector-curvature="0" />
    <path
       style="fill:#323232;stroke-width:0.000357143"
       d="M 12.50235,15.467898 C 12.267713,15.418682 12.057369,15.341337 11.796875,15.208488 11.443748,15.028397 10.972913,14.558019 10.790537,14.203125 10.562019,13.758441 10.515625,13.555403 10.515625,13 c 0,-0.555403 0.04639,-0.758441 0.274912,-1.203125 0.181751,-0.353677 0.652661,-0.824587 1.006338,-1.006338 0.444684,-0.228518 0.647722,-0.274912 1.203125,-0.274912 0.555403,0 0.758441,0.04639 1.203125,0.274912 0.353678,0.181751 0.824588,0.652661 1.006338,1.006338 0.228518,0.444684 0.274912,0.647722 0.274912,1.203125 0,0.555403 -0.04639,0.758441 -0.274912,1.203125 -0.181887,0.353943 -0.652781,0.824737 -1.006338,1.006126 -0.419027,0.214977 -0.625185,0.265823 -1.125,0.277462 -0.240625,0.0056 -0.499724,-0.0029 -0.575775,-0.01882 z m 0.919525,-0.514753 c 0.567426,-0.118723 1.100054,-0.530633 1.355077,-1.047953 0.394615,-0.800484 0.252475,-1.692054 -0.368808,-2.313336 -0.787539,-0.787539 -2.028749,-0.787539 -2.816288,0 -0.787539,0.787539 -0.787539,2.028749 0,2.816288 0.4871,0.4871 1.15545,0.686143 1.830019,0.545001 z M 12.50235,5.4678978 C 12.267713,5.4186819 12.057369,5.3413366 11.796875,5.2084878 11.443748,5.0283972 10.972913,4.5580194 10.790537,4.203125 10.562019,3.7584409 10.515625,3.5554034 10.515625,3 c 0,-0.5554034 0.04639,-0.758441 0.274912,-1.203125 C 10.972288,1.4431977 11.443198,0.97228759 11.796875,0.79053681 12.241559,0.56201872 12.444597,0.515625 13,0.515625 c 0.555403,0 0.758441,0.0463937 1.203125,0.27491181 0.353678,0.18175078 0.824588,0.65266089 1.006338,1.00633819 0.228518,0.444684 0.274912,0.6477216 0.274912,1.203125 0,0.5554034 -0.04639,0.7584409 -0.274912,1.203125 -0.181887,0.3539425 -0.652781,0.8247369 -1.006338,1.0061259 -0.419027,0.2149775 -0.625185,0.2658228 -1.125,0.2774622 -0.240625,0.0056 -0.499724,-0.00286 -0.575775,-0.018815 z M 13.421875,4.9531453 C 14.321483,4.7649184 14.998915,3.9259269 14.998915,3 14.998915,1.9092424 14.090758,1.0010852 13,1.0010852 c -1.090757,0 -1.998915,0.9081572 -1.998915,1.9989148 0,0.7407994 0.438806,1.4538003 1.093723,1.7771537 0.43249,0.2135344 0.870202,0.2715822 1.327067,0.1759916 z"
       id="path819"
       inkscape:connector-curvature="0" />
  </g>
</svg>
