<?xml version="1.0" encoding="UTF-8" standalone="no"?>
<!-- Created with Inkscape (http://www.inkscape.org/) -->

<svg
   version="1.1"
   id="svg2"
   width="1600"
   height="1600"
   viewBox="0 0 1600 1600"
   sodipodi:docname="keyframes_insert.svg"
   inkscape:version="1.2.2 (732a01da63, 2022-12-09)"
   xmlns:inkscape="http://www.inkscape.org/namespaces/inkscape"
   xmlns:sodipodi="http://sodipodi.sourceforge.net/DTD/sodipodi-0.dtd"
   xmlns="http://www.w3.org/2000/svg"
   xmlns:svg="http://www.w3.org/2000/svg"
   xmlns:rdf="http://www.w3.org/1999/02/22-rdf-syntax-ns#"
   xmlns:cc="http://creativecommons.org/ns#"
   xmlns:dc="http://purl.org/dc/elements/1.1/">
  <metadata
     id="metadata8">
    <rdf:RDF>
      <cc:Work
         rdf:about="">
        <dc:format>image/svg+xml</dc:format>
        <dc:type
           rdf:resource="http://purl.org/dc/dcmitype/StillImage" />
      </cc:Work>
    </rdf:RDF>
  </metadata>
  <defs
     id="defs6" />
  <sodipodi:namedview
     pagecolor="#808080"
     bordercolor="#666666"
     borderopacity="1"
     objecttolerance="10"
     gridtolerance="10"
     guidetolerance="10"
     inkscape:pageopacity="0"
     inkscape:pageshadow="2"
     inkscape:window-width="1993"
     inkscape:window-height="1009"
     id="namedview4"
     showgrid="false"
     inkscape:zoom="0.5"
     inkscape:cx="-3"
     inkscape:cy="8"
     inkscape:window-x="-8"
     inkscape:window-y="-8"
     inkscape:window-maximized="1"
     inkscape:current-layer="KEYFRAMES_INSERT"
     inkscape:showpageshadow="0"
     inkscape:pagecheckerboard="true"
     inkscape:deskcolor="#d1d1d1" />
  <g
     id="KEYFRAMES_INSERT"
     transform="matrix(100,0,0,100,0,4.9999997e-5)"
     style="stroke-width:0.0114286">
    <path
       style="fill:none;stroke-width:0.000357143"
       d="M 0,12.039109 V 8.0782175 L 3.953125,12.03125 C 6.1273437,14.205418 7.90625,15.987819 7.90625,15.992141 7.90625,15.996463 6.1273437,16 3.953125,16 H 0 Z m 8.6828766,3.387394 0.5728681,-0.573496 0.3501778,0.181726 c 0.6347035,0.32938 1.1871655,0.465016 1.8940775,0.465016 0.682839,0 1.229378,-0.128765 1.832304,-0.431691 0.733069,-0.368313 1.368048,-1.002643 1.734341,-1.732567 0.304539,-0.606867 0.433104,-1.151721 0.433104,-1.835491 0,-0.706912 -0.135636,-1.259374 -0.465016,-1.8940775 L 14.853007,9.2557447 15.426503,8.6828766 16,8.1100084 V 12.055004 16 H 12.055004 8.1100084 Z M 0,3.96875 V 0 H 3.9765163 7.9530328 L 3.984375,3.96875 C 1.8016132,6.1515625 0.01218089,7.9375 0.00785864,7.9375 0.00353639,7.9375 0,6.1515625 0,3.96875 Z M 12.03125,3.953125 8.0782175,0 H 12.039109 16 v 3.953125 c 0,2.1742187 -0.0035,3.953125 -0.0079,3.953125 -0.0043,0 -1.786723,-1.7789063 -3.960891,-3.953125 z"
       id="path829"
       inkscape:connector-curvature="0" />
    <path
       style="fill:#fefefe;stroke-width:0.000357143"
       d="M 10.9375,14.95383 C 10.0484,14.802993 9.2455284,14.318877 8.713275,13.612668 7.5503344,12.069646 7.8530078,9.8696594 9.3873316,8.713275 10.930354,7.5503344 13.130341,7.8530078 14.286725,9.3873316 c 0.944076,1.2526264 0.944076,2.9727104 0,4.2253364 -0.77,1.021659 -2.097988,1.553437 -3.349225,1.341162 z M 12,13 v -1 h 1 1 V 11.5 11 H 13 12 V 10 9 H 11.5 11 v 1 1 H 10 9 v 0.5 0.5 h 1 1 v 1 1 h 0.5 0.5 z"
       id="path827"
       inkscape:connector-curvature="0" />
    <path
       style="fill:#fecb32;stroke-width:0.000357143"
       d="M 4.328125,4.34375 C 6.3390075,2.3328125 7.9878131,0.6875 7.9921375,0.6875 7.9964619,0.6875 8,2.3328125 8,4.34375 V 8 H 4.3359875 0.67197516 Z"
       id="path825"
       inkscape:connector-curvature="0" />
    <path
       style="fill:#fe9832;stroke-width:0.000357143"
       d="M 4.31255,11.671945 0.64072475,8 H 4.3203625 8 V 4.3203625 0.64072475 L 11.671945,4.31255 15.343891,7.984375 14.40645,7.992645 13.469009,8.000915 13.247143,7.8891854 C 12.734378,7.6309616 12.147211,7.5002512 11.5,7.5002512 c -0.646793,0 -1.234402,0.1307232 -1.7462334,0.3884769 L 9.5328103,8 H 8.766405 8 V 8.766405 9.5328103 L 7.8887281,9.7537666 C 7.6309744,10.265598 7.5002512,10.853207 7.5002512,11.5 c 0,0.647211 0.1307104,1.234378 0.388935,1.747143 l 0.1117297,0.221866 -0.00827,0.937441 -0.00827,0.937441 z"
       id="path823"
       inkscape:connector-curvature="0" />
    <path
       style="fill:#986500;stroke-width:0.000357143"
       d="M 3.9608913,12.039017 C 1.3411612,9.4192253 0,8.0568706 0,8.0155331 0,7.9289822 7.9291641,0 8.0157169,0 8.0570559,0 9.4193013,1.3411153 12.039109,3.9609834 15.544118,7.4660744 16,7.9327884 16,8.0159878 16,8.09631 15.915937,8.19398 15.423019,8.6863569 15.10568,9.0033484 14.841226,9.2563309 14.835343,9.24854 14.488624,8.7893391 14.098236,8.4036269 13.732819,8.1592209 L 13.494764,8 h 0.932256 0.932255 L 11.6875,4.3281247 8.0157244,0.65624959 4.3359872,4.3358875 0.65625,8.0155256 l 3.6640625,3.6641834 3.6640625,3.664183 0.00828,-0.923864 0.00828,-0.923865 0.1587532,0.237356 c 0.2439537,0.364741 0.6299318,0.755318 1.0888509,1.101824 0.00779,0.0059 -0.2451916,0.270337 -0.5621831,0.587676 C 8.1937303,15.916187 8.0963375,16 8.0158956,16 7.9325728,16 7.4676597,15.545866 3.9608913,12.039017 Z M 8,8.7526181 V 8 H 8.7526181 9.5052359 L 9.2604306,8.1623378 C 9.1257875,8.2516234 8.8601612,8.4801391 8.6701503,8.6701503 8.4801391,8.8601613 8.2516234,9.1257875 8.1623378,9.2604306 L 8,9.5052359 Z"
       id="path821"
       inkscape:connector-curvature="0" />
    <path
       style="fill:#323232;stroke-width:0.000357143"
       d="M 10.811692,15.453949 C 9.5921819,15.248382 8.4846756,14.432431 7.9319422,13.332304 7.6290159,12.729378 7.5002512,12.182839 7.5002512,11.5 c 0,-0.68377 0.1285644,-1.228624 0.4331041,-1.8354909 C 8.2996484,8.934585 8.9346275,8.3002553 9.6676959,7.9319422 10.270622,7.6290159 10.817161,7.5002513 11.5,7.5002513 c 0.68377,0 1.228624,0.1285643 1.835491,0.433104 0.729924,0.3662931 1.364254,1.0012722 1.732567,1.7343406 0.302926,0.6029261 0.431691,1.1494651 0.431691,1.8323041 0,0.682839 -0.128765,1.229378 -0.431691,1.832304 -0.187311,0.372814 -0.375181,0.634064 -0.690236,0.959841 -0.592168,0.61232 -1.380871,1.028167 -2.202914,1.161495 -0.341582,0.0554 -1.035448,0.05556 -1.363216,3.13e-4 z m 1.235891,-0.499932 c 1.499042,-0.243138 2.663296,-1.407392 2.906434,-2.906434 C 15.195244,10.560316 14.431388,9.0634606 13.085929,8.3868716 11.34667,7.5122531 9.2523972,8.1928947 8.3868716,9.9140712 c -0.5152179,1.0245578 -0.5146947,2.1473868 0.00148,3.1751508 0.6731678,1.340357 2.1747294,2.105574 3.6592314,1.864795 z M 11,13 V 12 H 10 9 V 11.5 11 h 1 1 V 10 9 h 0.5 0.5 v 1 1 h 1 1 v 0.5 0.5 h -1 -1 v 1 1 H 11.5 11 Z"
       id="path819"
       inkscape:connector-curvature="0" />
  </g>
</svg>
