<?xml version="1.0" encoding="UTF-8" standalone="no"?>
<!-- Created with Inkscape (http://www.inkscape.org/) -->

<svg
   version="1.1"
   id="svg2"
   width="1600"
   height="1600"
   viewBox="0 0 1600 1600"
   sodipodi:docname="keyframe.svg"
   inkscape:version="1.2.2 (732a01da63, 2022-12-09)"
   xmlns:inkscape="http://www.inkscape.org/namespaces/inkscape"
   xmlns:sodipodi="http://sodipodi.sourceforge.net/DTD/sodipodi-0.dtd"
   xmlns="http://www.w3.org/2000/svg"
   xmlns:svg="http://www.w3.org/2000/svg"
   xmlns:rdf="http://www.w3.org/1999/02/22-rdf-syntax-ns#"
   xmlns:cc="http://creativecommons.org/ns#"
   xmlns:dc="http://purl.org/dc/elements/1.1/">
  <metadata
     id="metadata8">
    <rdf:RDF>
      <cc:Work
         rdf:about="">
        <dc:format>image/svg+xml</dc:format>
        <dc:type
           rdf:resource="http://purl.org/dc/dcmitype/StillImage" />
      </cc:Work>
    </rdf:RDF>
  </metadata>
  <defs
     id="defs6" />
  <sodipodi:namedview
     pagecolor="#808080"
     bordercolor="#666666"
     borderopacity="1"
     objecttolerance="10"
     gridtolerance="10"
     guidetolerance="10"
     inkscape:pageopacity="0"
     inkscape:pageshadow="2"
     inkscape:window-width="1993"
     inkscape:window-height="1009"
     id="namedview4"
     showgrid="false"
     inkscape:zoom="0.5"
     inkscape:cx="259"
     inkscape:cy="126"
     inkscape:window-x="-8"
     inkscape:window-y="-8"
     inkscape:window-maximized="1"
     inkscape:current-layer="KEYFRAME"
     inkscape:showpageshadow="0"
     inkscape:pagecheckerboard="true"
     inkscape:deskcolor="#d1d1d1" />
  <g
     id="KEYFRAME"
     transform="matrix(100,0,0,100,0,4.9999997e-5)"
     style="stroke-width:0.0114286">
    <path
       style="fill:none;stroke-width:0.000357143"
       d="M 0,8 V 0 h 8 8 v 8 8 H 8 0 Z m 8.4548019,4.891421 C 8.6785569,12.779482 12.81247,8.6413028 12.904131,8.4375 13.001608,8.2207659 12.995158,7.7838084 12.891421,7.5764481 12.779482,7.3526931 8.6413028,3.2187803 8.4375,3.1271194 c -0.1985641,-0.089305 -0.6451859,-0.089305 -0.84375,0 C 7.3899472,3.2187803 3.2517678,7.3526931 3.1398291,7.5764481 3.0360921,7.7838084 3.0296422,8.2207659 3.1271194,8.4375 c 0.091661,0.2038028 4.2255737,4.341982 4.4493287,4.453921 0.1305216,0.0653 0.1988585,0.07733 0.4391769,0.07733 0.2403184,0 0.3086553,-0.01203 0.4391769,-0.07733 z M 6.3514531,9.6795791 4.6874991,8.0154069 6.3516709,6.3514531 8.0158431,4.6874991 9.6797969,6.3516709 11.343751,8.0158431 9.6795791,9.6797969 8.0154069,11.343751 Z"
       id="path823"
       inkscape:connector-curvature="0" />
    <path
       style="fill:#f3eec2;stroke-width:0.000357143"
       d="M 7.7312512,12.37814 C 7.5858819,12.270064 3.6872412,8.3623394 3.6135647,8.2508591 c -0.067147,-0.1015994 -0.067147,-0.3688688 0,-0.4704682 0.073676,-0.1114803 3.9723172,-4.0192047 4.1176865,-4.1272809 0.17237,-0.12815 0.3963776,-0.12815 0.5687476,0 0.1453693,0.1080762 4.0440102,4.0158006 4.1176862,4.1272809 0.03033,0.045889 0.05106,0.1414138 0.05106,0.2352341 0,0.09382 -0.02074,0.1893447 -0.05106,0.2352341 -0.07368,0.1114803 -3.9723169,4.0192049 -4.1176862,4.1272809 -0.097837,0.07274 -0.1539279,0.09061 -0.2843738,0.09061 -0.1304459,0 -0.1865369,-0.01787 -0.2843738,-0.09061 z M 9.6797969,6.3516709 8.0158431,4.6874991 6.3516709,6.3514531 4.6874991,8.0154069 6.3514531,9.6795791 8.0154069,11.343751 9.6795791,9.6797969 11.343751,8.0158431 Z"
       id="path821"
       inkscape:connector-curvature="0" />
    <path
       style="fill:#000000;stroke-width:0.000357143"
       d="M 7.5764481,12.891421 C 7.3526931,12.779482 3.2187803,8.6413028 3.1271194,8.4375 3.0296423,8.2207659 3.0360921,7.7838084 3.1398291,7.5764481 3.2517678,7.3526931 7.3899472,3.2187803 7.59375,3.1271194 c 0.1985641,-0.089305 0.6451859,-0.089305 0.84375,0 0.2038028,0.091661 4.341982,4.2255737 4.453921,4.4493287 0.103737,0.2073603 0.110187,0.6443178 0.01271,0.8610519 -0.09166,0.2038028 -4.2255741,4.341982 -4.4493291,4.453921 -0.1305216,0.0653 -0.1988585,0.07733 -0.4391769,0.07733 -0.2403184,0 -0.3086553,-0.01203 -0.4391769,-0.07733 z M 8.2999988,12.37814 c 0.1453693,-0.108076 4.0440102,-4.0158006 4.1176862,-4.1272809 0.03033,-0.045889 0.05106,-0.1414138 0.05106,-0.2352341 0,-0.09382 -0.02074,-0.1893447 -0.05106,-0.2352341 C 12.344009,7.6689106 8.4453681,3.7611862 8.2999988,3.65311 c -0.17237,-0.12815 -0.3963775,-0.12815 -0.5687475,0 -0.1453694,0.1080762 -4.04401,4.0158006 -4.1176866,4.1272809 -0.067147,0.1015994 -0.067147,0.3688688 0,0.4704682 0.073677,0.1114803 3.9723172,4.0192049 4.1176866,4.1272809 0.097837,0.07274 0.1539278,0.09061 0.2843737,0.09061 0.1304459,0 0.1865369,-0.01787 0.2843738,-0.09061 z"
       id="path819"
       inkscape:connector-curvature="0" />
  </g>
</svg>
