<?xml version="1.0" encoding="UTF-8" standalone="no"?>
<!-- Created with Inkscape (http://www.inkscape.org/) -->

<svg
   version="1.1"
   id="svg2"
   width="1600"
   height="1600"
   viewBox="0 0 1600 1600"
   sodipodi:docname="layer.svg"
   inkscape:version="1.4 (86a8ad7, 2024-10-11)"
   xmlns:inkscape="http://www.inkscape.org/namespaces/inkscape"
   xmlns:sodipodi="http://sodipodi.sourceforge.net/DTD/sodipodi-0.dtd"
   xmlns="http://www.w3.org/2000/svg"
   xmlns:svg="http://www.w3.org/2000/svg"
   xmlns:rdf="http://www.w3.org/1999/02/22-rdf-syntax-ns#"
   xmlns:cc="http://creativecommons.org/ns#"
   xmlns:dc="http://purl.org/dc/elements/1.1/">
  <metadata
     id="metadata8">
    <rdf:RDF>
      <cc:Work
         rdf:about="">
        <dc:format>image/svg+xml</dc:format>
        <dc:type
           rdf:resource="http://purl.org/dc/dcmitype/StillImage" />
      </cc:Work>
    </rdf:RDF>
  </metadata>
  <defs
     id="defs6" />
  <sodipodi:namedview
     pagecolor="#808080"
     bordercolor="#666666"
     borderopacity="1"
     objecttolerance="10"
     gridtolerance="10"
     guidetolerance="10"
     inkscape:pageopacity="0"
     inkscape:pageshadow="2"
     inkscape:window-width="1920"
     inkscape:window-height="1009"
     id="namedview4"
     showgrid="false"
     inkscape:zoom="0.25"
     inkscape:cx="616"
     inkscape:cy="1112"
     inkscape:window-x="2552"
     inkscape:window-y="-8"
     inkscape:window-maximized="1"
     inkscape:current-layer="LAYER"
     inkscape:showpageshadow="0"
     inkscape:pagecheckerboard="true"
     inkscape:deskcolor="#d1d1d1" />
  <g
     id="LAYER"
     transform="matrix(100,0,0,100,0,4.9999997e-5)"
     style="stroke-width:0.0114286">
    <path
       style="fill:#000000;fill-opacity:1;stroke:#000000;stroke-width:1;stroke-linecap:round;stroke-linejoin:round;stroke-dasharray:none;stroke-opacity:1;paint-order:markers stroke fill"
       d="M 6.1123351,6.6375555 C 5.1094347,6.1318675 3.7750323,5.4588591 3.1469966,5.1419816 L 2.0051134,4.5658402 3.0328083,4.049328 C 3.5980404,3.7652461 4.8912231,3.1145015 5.9065476,2.6032282 6.9218721,2.0919553 7.8080361,1.6508409 7.8758008,1.6229742 7.9976253,1.5728768 8.0327012,1.589136 10.996948,3.0697518 L 13.994887,4.5671957 11.009546,6.062092 C 9.3676092,6.8842848 8.0043125,7.556988 7.9799984,7.556988 c -0.024314,0 -0.8647626,-0.4137447 -1.8676633,-0.9194325 z"
       id="path825"
       inkscape:connector-curvature="0" />
    <path
       style="fill:#000000;fill-opacity:1;stroke:#000000;stroke-width:1;stroke-linecap:round;stroke-linejoin:round;stroke-dasharray:none;stroke-opacity:1;paint-order:markers stroke fill"
       d="M 5.9768225,10.211866 C 4.8788368,9.662335 3.5267359,8.9900513 2.9721534,8.7179025 L 1.963822,8.2230865 2.7076605,7.8490962 C 3.1167713,7.6434016 3.6539299,7.3829878 3.9013463,7.2703989 L 4.3511934,7.065692 6.0328615,7.8982013 c 0.924917,0.4578803 1.7431714,0.8438685 1.8183424,0.8577514 0.075172,0.013883 0.2121972,0.00547 0.3045022,-0.018702 0.092305,-0.02417 0.9077167,-0.4109504 1.8120258,-0.8595118 0.9043101,-0.4485614 1.6644621,-0.8155665 1.6892271,-0.8155665 0.02476,0 0.569496,0.2601755 1.210511,0.5781671 l 1.16548,0.5781674 -2.985341,1.4962537 C 9.4056719,10.5377 8.0422192,11.211014 8.017714,11.211014 c -0.024505,0 -0.9429062,-0.449617 -2.0408915,-0.999148 z"
       id="path823-4"
       inkscape:connector-curvature="0" />
    <path
       style="fill:#000000;fill-opacity:1;stroke:#000000;stroke-width:1;stroke-linecap:round;stroke-linejoin:round;stroke-dasharray:none;stroke-opacity:1;paint-order:markers stroke fill"
       d="M 6.1123351,13.945608 C 5.1094347,13.43992 3.7750323,12.766928 3.1469966,12.45007 L 2.0051134,11.873966 2.9566827,11.402637 c 0.5233631,-0.25923 1.0463902,-0.525605 1.1622822,-0.591943 l 0.2107131,-0.12062 1.7114568,0.848336 c 0.9413015,0.466584 1.7737591,0.859026 1.8499059,0.872094 0.076146,0.01307 0.2131725,0.0041 0.3045022,-0.01971 0.09133,-0.02391 0.9075094,-0.411251 1.8137331,-0.860763 l 1.64768,-0.817298 1.168965,0.579898 1.168966,0.579898 -2.985341,1.496253 c -1.6419368,0.82294 -3.0052335,1.496254 -3.0295476,1.496254 -0.024314,0 -0.8647626,-0.413744 -1.8676633,-0.919432 z"
       id="path821-3"
       inkscape:connector-curvature="0" />
    <path
       style="fill:#fefefe;stroke-width:0.000357143"
       d="M 6.112335,6.6375555 C 5.1094345,6.1318675 3.7750322,5.4588591 3.1469965,5.1419816 L 2.0051133,4.5658402 3.0328082,4.049328 C 3.5980403,3.7652461 4.8912229,3.1145015 5.9065474,2.6032282 6.9218719,2.0919553 7.808036,1.6508409 7.8758006,1.6229742 7.9976251,1.5728768 8.0327011,1.589136 10.996948,3.0697518 L 13.994887,4.5671957 11.009546,6.062092 C 9.367609,6.8842848 8.0043124,7.556988 7.9799982,7.556988 c -0.024314,0 -0.8647625,-0.4137447 -1.8676632,-0.9194325 z"
       id="path825-1"
       inkscape:connector-curvature="0" />
    <path
       style="fill:#bebebe;stroke-width:0.000357143"
       d="M 5.9768224,10.211866 C 4.8788366,9.662335 3.5267358,8.9900513 2.9721533,8.7179025 L 1.9638218,8.2230865 2.7076604,7.8490962 C 3.1167712,7.6434016 3.6539297,7.3829878 3.9013462,7.2703989 L 4.3511933,7.065692 6.0328614,7.8982013 C 6.9577783,8.3560816 7.7760328,8.7420698 7.8512038,8.7559527 7.9263758,8.7698357 8.063401,8.7614227 8.155706,8.7372507 8.2480115,8.7130801 9.0634227,8.3262998 9.9677318,7.8777384 10.872042,7.429177 11.632194,7.0621719 11.656959,7.0621719 c 0.02476,0 0.569496,0.2601755 1.210511,0.5781671 l 1.16548,0.5781674 -2.985341,1.4962537 C 9.4056718,10.5377 8.0422191,11.211014 8.0177139,11.211014 c -0.024505,0 -0.9429062,-0.449617 -2.0408915,-0.999148 z"
       id="path823-7"
       inkscape:connector-curvature="0" />
    <path
       style="fill:#7f7f7f;stroke-width:0.000357143"
       d="M 6.112335,13.945608 C 5.1094345,13.43992 3.7750322,12.766928 3.1469965,12.45007 L 2.0051133,11.873966 2.9566826,11.402637 c 0.5233631,-0.25923 1.0463902,-0.525605 1.1622821,-0.591943 l 0.2107132,-0.12062 1.7114568,0.848336 c 0.9413015,0.466584 1.773759,0.859026 1.8499059,0.872094 0.076146,0.01307 0.2131725,0.0041 0.3045022,-0.01971 0.09133,-0.02391 0.9075094,-0.411251 1.8137332,-0.860763 l 1.64768,-0.817298 1.168965,0.579898 1.168966,0.579898 -2.985341,1.496253 c -1.641937,0.82294 -3.0052336,1.496254 -3.0295478,1.496254 -0.024314,0 -0.8647625,-0.413744 -1.8676632,-0.919431 z"
       id="path821-1"
       inkscape:connector-curvature="0" />
  </g>
</svg>
