<?xml version="1.0" encoding="UTF-8" standalone="no"?>
<!-- Created with Inkscape (http://www.inkscape.org/) -->

<svg
   version="1.1"
   id="svg2"
   width="1600"
   height="1600"
   viewBox="0 0 1600 1600"
   sodipodi:docname="lens_scale.svg"
   inkscape:version="1.2.2 (732a01da63, 2022-12-09)"
   xmlns:inkscape="http://www.inkscape.org/namespaces/inkscape"
   xmlns:sodipodi="http://sodipodi.sourceforge.net/DTD/sodipodi-0.dtd"
   xmlns="http://www.w3.org/2000/svg"
   xmlns:svg="http://www.w3.org/2000/svg"
   xmlns:rdf="http://www.w3.org/1999/02/22-rdf-syntax-ns#"
   xmlns:cc="http://creativecommons.org/ns#"
   xmlns:dc="http://purl.org/dc/elements/1.1/">
  <metadata
     id="metadata8">
    <rdf:RDF>
      <cc:Work
         rdf:about="">
        <dc:format>image/svg+xml</dc:format>
        <dc:type
           rdf:resource="http://purl.org/dc/dcmitype/StillImage" />
      </cc:Work>
    </rdf:RDF>
  </metadata>
  <defs
     id="defs6" />
  <sodipodi:namedview
     pagecolor="#808080"
     bordercolor="#666666"
     borderopacity="1"
     objecttolerance="10"
     gridtolerance="10"
     guidetolerance="10"
     inkscape:pageopacity="0"
     inkscape:pageshadow="2"
     inkscape:window-width="1993"
     inkscape:window-height="1009"
     id="namedview4"
     showgrid="false"
     fit-margin-top="0"
     fit-margin-left="0"
     fit-margin-right="0"
     fit-margin-bottom="0"
     inkscape:zoom="0.5"
     inkscape:cx="123"
     inkscape:cy="108"
     inkscape:window-x="-8"
     inkscape:window-y="-8"
     inkscape:window-maximized="1"
     inkscape:current-layer="LENS_SCALE"
     inkscape:showpageshadow="0"
     inkscape:pagecheckerboard="true"
     inkscape:deskcolor="#d1d1d1" />
  <g
     id="LENS_SCALE"
     transform="matrix(100,0,0,100,0,4.9999997e-5)"
     style="stroke-width:0.0114286">
    <path
       style="fill:none;stroke-width:0.000357143"
       d="M 4.1642053,15.065003 3.2502859,14.139768 3.8829553,13.510085 4.515625,12.880402 4.71875,13.020397 c 0.290569,0.200262 1.0218494,0.552158 1.4100297,0.678513 1.4823322,0.48251 3.0570318,0.378845 4.4583133,-0.293498 0.211181,-0.101326 0.501118,-0.260593 0.644303,-0.353925 l 0.260335,-0.169696 0.628776,0.629417 0.628774,0.629417 -0.928232,0.929688 L 10.892816,16 7.9854706,15.995117 5.078125,15.990238 Z M 0.9296875,11.821049 0,10.892816 V 8 5.1071841 L 0.9296875,4.1789513 1.859375,3.2507185 2.4887919,3.8794935 3.1182088,4.5082682 2.9485131,4.7686041 C 2.3526114,5.6827981 2.0005128,6.8829769 2.0005128,8 c 0,1.1170231 0.3520986,2.317202 0.9480003,3.231396 l 0.1696957,0.260335 -0.6294169,0.628776 -0.6294169,0.628774 z m 12.5803975,0.295996 -0.629683,-0.63267 0.139995,-0.203125 C 13.220659,10.990681 13.572555,10.2594 13.69891,9.8712207 14.18142,8.3888881 14.077755,6.8141885 13.405412,5.4129075 13.304086,5.2017256 13.144819,4.9117891 13.051487,4.7686041 L 12.881791,4.5082682 13.511208,3.8794935 14.140625,3.2507185 15.070313,4.1789513 16,5.1071841 15.9951,8.0145294 15.9902,10.921875 15.064965,11.835795 14.13973,12.749714 Z M 3.8794935,2.4887919 3.2507185,1.859375 4.1789513,0.9296875 5.1071841,0 H 8 10.892816 L 11.821049,0.9296875 12.749281,1.859375 12.120507,2.4887919 11.491731,3.1182088 11.231396,2.9485131 C 10.317202,2.3526114 9.1170231,2.0005128 8,2.0005128 c -1.1170231,0 -2.3172019,0.3520986 -3.2313959,0.9480003 L 4.5082682,3.1182088 Z"
       id="path827"
       inkscape:connector-curvature="0" />
    <path
       style="fill:#fefefe;stroke-width:0.000357143"
       d="m 0.5,13.805022 v -1.694977 l 0.5390625,0.537212 c 0.2964844,0.295467 0.5786498,0.551957 0.6270344,0.569978 0.1123659,0.04185 0.2741546,0.04186 0.3865562,1.9e-5 0.048385,-0.01801 0.3770097,-0.320987 0.7302782,-0.673282 l 0.6423062,-0.640536 0.3356638,0.335663 0.3356633,0.335664 -0.6405362,0.642305 c -0.352295,0.353269 -0.6552721,0.681894 -0.6732824,0.730279 -0.04184,0.112401 -0.041831,0.27419 1.91e-5,0.386556 0.018021,0.04839 0.2745108,0.33055 0.5699777,0.627034 L 3.8899553,15.5 H 2.1949776 0.5 Z m 12.147257,1.155915 c 0.295467,-0.296484 0.551957,-0.578649 0.569978,-0.627034 0.04185,-0.112366 0.04186,-0.274155 1.9e-5,-0.386556 -0.01801,-0.04839 -0.320987,-0.37701 -0.673282,-0.730279 l -0.640536,-0.642305 0.335663,-0.335664 0.335664,-0.335663 0.642305,0.640536 c 0.353269,0.352295 0.681894,0.655272 0.730279,0.673282 0.112401,0.04184 0.27419,0.04183 0.386556,-1.9e-5 0.04839,-0.01802 0.33055,-0.274511 0.627035,-0.569978 L 15.5,12.110045 V 13.805022 15.5 H 13.805022 12.110045 Z M 7.5625,9.9514053 C 6.832319,9.7945811 6.2007041,9.1571794 6.0468547,8.421875 5.7497344,7.0018229 7.0018229,5.7497344 8.421875,6.0468547 9.1647875,6.2022959 9.7977041,6.8352125 9.9531455,7.578125 10.251335,9.0032862 8.987899,10.257545 7.5625,9.9514053 Z M 4.0125122,7.7154635 C 4.1623328,5.73082 5.73082,4.1623328 7.7154635,4.0125122 L 8,3.9910325 v 0.4999906 0.499991 L 7.7531753,5.0115984 C 6.3033391,5.13251 5.13251,6.3033391 5.0115984,7.7531753 L 4.9910141,8 H 4.4910231 3.9910325 Z M 2.796582,3.4655794 C 2.4529932,3.1200855 2.1266235,2.8177418 2.0713162,2.7937044 1.9519382,2.7418209 1.7879176,2.737393 1.6660969,2.7827651 1.6177123,2.8007859 1.3355469,3.0572759 1.0390625,3.3527428 L 0.5,3.8899553 V 2.1949776 0.5 H 2.1949776 3.8899553 L 3.3527428,1.0390625 C 3.0572759,1.3355469 2.8007859,1.6177123 2.7827651,1.6660969 2.7409141,1.7784628 2.7409061,1.9402515 2.782746,2.0526531 2.800756,2.1010381 3.1037334,2.4296628 3.4560284,2.7829313 L 4.0965646,3.4252375 3.7623084,3.7594938 C 3.5784675,3.9433347 3.4265307,4.09375 3.4246706,4.09375 c -0.00186,0 -0.2844997,-0.2826769 -0.6280886,-0.6281706 z m 9.428456,0.2896981 -0.321837,-0.3298059 0.640653,-0.6424234 c 0.35236,-0.3533328 0.65539,-0.6820105 0.6734,-0.7303951 0.04184,-0.1124016 0.04183,-0.2741903 -1.9e-5,-0.3865562 -0.01802,-0.048385 -0.274511,-0.33055 -0.569978,-0.6270344 L 12.110045,0.5 H 13.805022 15.5 V 2.1949776 3.8899553 L 14.960937,3.3527428 C 14.664453,3.0572759 14.382288,2.8007859 14.333903,2.7827651 c -0.121821,-0.045372 -0.285841,-0.040944 -0.405219,0.010939 -0.05531,0.024037 -0.381677,0.3263811 -0.725266,0.671875 -0.343589,0.3454937 -0.63187,0.6262206 -0.640625,0.6238372 -0.0088,-0.00238 -0.160744,-0.152746 -0.337755,-0.3341388 z"
       id="path825"
       inkscape:connector-curvature="0" />
    <path
       style="fill:#bec6f7;stroke-width:0.000357143"
       d="M 7.34375,13.964919 C 5.8109619,13.78852 4.3899206,13.027586 3.4116531,11.859375 1.891547,10.044121 1.5741252,7.5397318 2.5945878,5.4129075 3.1962641,4.1589078 4.1581307,3.196669 5.410799,2.595607 7.5397972,1.5740596 10.043313,1.8908714 11.859375,3.4116531 13.204706,4.5382419 13.999487,6.2422338 13.999487,8 c 0,1.7577662 -0.794781,3.461758 -2.140112,4.588347 -1.251182,1.047748 -2.9288631,1.559182 -4.515625,1.376572 z M 8.9514219,12.907821 C 10.743288,12.544671 12.159308,11.300044 12.73954,9.5782094 12.926082,9.0246479 12.982973,8.6558153 12.982973,8 c 0,-0.4719403 -0.01269,-0.6412775 -0.06908,-0.9219594 -0.416965,-2.0754753 -1.979899,-3.6190794 -4.054521,-4.0043781 -0.4340447,-0.080611 -1.2847053,-0.080611 -1.71875,0 C 5.3063828,3.4143178 3.8506318,4.6704606 3.2604597,6.4217906 3.0739178,6.9753521 3.0170268,7.3441847 3.0170268,8 c 0,0.4719403 0.012687,0.6412775 0.069077,0.9219594 0.2727399,1.3575796 1.0204276,2.4848556 2.1482714,3.2389126 0.6543878,0.437513 1.3483894,0.687183 2.28125,0.820691 0.2331378,0.03337 1.1361403,-0.01301 1.4357969,-0.07374 z"
       id="path823"
       inkscape:connector-curvature="0" />
    <path
       style="fill:#323232;stroke-width:0.000357143"
       d="M 7.515625,12.981563 C 6.8336787,12.883965 6.3240031,12.738355 5.828125,12.499461 4.6115975,11.913386 3.6965644,10.872346 3.2604597,9.5782094 3.0739178,9.0246479 3.0170268,8.6558153 3.0170268,8 c 0,-0.4719403 0.012687,-0.6412775 0.069077,-0.9219594 0.4169661,-2.0754753 1.9798995,-3.6190794 4.0545214,-4.0043781 0.4340447,-0.080611 1.2847053,-0.080611 1.71875,0 C 10.693617,3.4143178 12.149368,4.6704606 12.73954,6.4217906 12.926082,6.9753521 12.982973,7.3441847 12.982973,8 c 0,0.4719403 -0.01269,0.6412775 -0.06908,0.9219594 -0.410594,2.0437626 -1.932257,3.5744056 -3.9624741,3.9858616 -0.2996566,0.06073 -1.2026591,0.107108 -1.4357969,0.07374 z M 8.421875,9.9531455 C 9.1647875,9.7977041 9.7977041,9.1647875 9.9531455,8.421875 10.250266,7.0018229 8.9981771,5.7497344 7.578125,6.0468547 7.010699,6.1655784 6.4780709,6.5774881 6.2230479,7.0948078 c -0.2954,0.5992253 -0.2954,1.2111591 0,1.8103844 0.3931412,0.7974956 1.3092083,1.2340898 2.1988271,1.0479533 z M 5.0115984,7.7531753 C 5.13251,6.3033391 6.3033391,5.13251 7.7531753,5.0115984 L 8,4.9910141 V 4.4910231 3.9910325 l -0.2845365,0.02148 C 5.73082,4.1623328 4.1623328,5.73082 4.0125122,7.7154635 L 3.9910325,8 h 0.4999906 0.499991 z"
       id="path821"
       inkscape:connector-curvature="0" />
    <path
       style="fill:#000000;stroke-width:0.000357143"
       d="m 0,13.46875 c 0,-1.392187 0.0106378,-2.53125 0.02363956,-2.53125 0.01300176,0 0.43125288,0.407795 0.92944694,0.906212 l 0.9058073,0.906211 0.6280768,-0.627516 0.6280767,-0.627516 0.159428,0.197867 0.1594278,0.197867 -0.631014,0.63598 c -0.3470578,0.34979 -0.6762656,0.655649 -0.7315729,0.679688 -0.1193763,0.05189 -0.2833964,0.05631 -0.4052193,0.01094 -0.048385,-0.01802 -0.33055,-0.274511 -0.6270344,-0.569978 L 0.5,12.110045 V 13.805022 15.5 H 2.1949776 3.8899553 L 3.3527428,14.960937 C 3.0572759,14.664453 2.8007859,14.382288 2.7827651,14.333903 2.7373922,14.21208 2.7418211,14.04806 2.7937071,13.928684 2.817746,13.873377 3.1236054,13.544169 3.4733947,13.197111 l 0.6359803,-0.631014 0.1978672,0.159427 0.1978672,0.159429 -0.6275162,0.628076 -0.6275161,0.628077 0.9062114,0.905807 C 4.6547047,15.545107 5.0625,15.963358 5.0625,15.97636 5.0625,15.989362 3.9234375,16 2.53125,16 H 0 Z m 10.9375,2.50761 c 0,-0.013 0.407795,-0.431253 0.906212,-0.929447 l 0.906211,-0.905807 -0.627516,-0.628077 -0.627516,-0.628076 0.197867,-0.159429 0.197867,-0.159427 0.63598,0.631014 c 0.34979,0.347058 0.655649,0.676266 0.679688,0.731573 0.05189,0.119376 0.05631,0.283396 0.01094,0.405219 -0.01802,0.04839 -0.274511,0.33055 -0.569978,0.627034 L 12.110045,15.5 H 13.805022 15.5 v -1.694978 -1.694977 l -0.539063,0.537212 c -0.296484,0.295467 -0.578649,0.551957 -0.627034,0.569978 -0.121823,0.04537 -0.285843,0.04094 -0.405219,-0.01094 -0.05531,-0.02404 -0.384515,-0.329898 -0.731573,-0.679688 l -0.631014,-0.63598 0.159427,-0.197867 0.159429,-0.197867 0.628076,0.627516 0.628077,0.627516 0.905807,-0.906211 C 15.545107,11.345295 15.963358,10.9375 15.97636,10.9375 15.989362,10.9375 16,12.076563 16,13.46875 V 16 H 13.46875 C 12.076563,16 10.9375,15.989362 10.9375,15.97636 Z M 0,2.53125 V 0 H 2.53125 C 3.9234375,0 5.0625,0.0106378 5.0625,0.02363956 5.0625,0.03664132 4.6547047,0.45489244 4.1562885,0.9530865 L 3.2500771,1.8588938 3.8775932,2.4869706 4.5051094,3.1150473 4.3072422,3.2744753 4.109375,3.4339031 3.4733947,2.8028891 C 3.1236054,2.4558313 2.817746,2.1266235 2.7937071,2.0713162 2.7418211,1.9519399 2.7373922,1.7879198 2.7827651,1.6660969 2.8007859,1.6177123 3.0572759,1.3355469 3.3527428,1.0390625 L 3.8899553,0.5 H 2.1949776 0.5 V 2.1949776 3.8899553 L 1.0390625,3.3527428 C 1.3355469,3.0572759 1.6177123,2.8007859 1.6660969,2.7827651 c 0.1218229,-0.045373 0.285843,-0.040944 0.4052193,0.010942 0.055307,0.024039 0.3845151,0.3298983 0.7315729,0.6796876 L 3.4339031,4.109375 3.2744753,4.3072422 3.1150473,4.5051094 2.4869706,3.8775932 1.8588938,3.2500771 0.9530865,4.1562885 C 0.45489244,4.6547047 0.03664132,5.0625 0.02363956,5.0625 0.0106378,5.0625 0,3.9234375 0,2.53125 Z M 15.046913,4.1562885 14.141106,3.2500771 13.513029,3.8775932 12.884953,4.5051094 12.725524,4.3072422 12.566097,4.109375 13.197111,3.4733947 c 0.347058,-0.3497893 0.676266,-0.6556487 0.731573,-0.6796876 0.119376,-0.051886 0.283396,-0.056315 0.405219,-0.010942 0.04839,0.018021 0.33055,0.2745108 0.627034,0.5699777 L 15.5,3.8899553 V 2.1949776 0.5 h -1.694978 -1.694977 l 0.537212,0.5390625 c 0.295467,0.2964844 0.551957,0.5786498 0.569978,0.6270344 0.04537,0.1218229 0.04094,0.285843 -0.01094,0.4052193 -0.02404,0.055307 -0.329898,0.3845151 -0.679688,0.7315729 L 11.890625,3.4339031 11.692758,3.2744753 11.494891,3.1150473 12.122407,2.4869706 12.749923,1.8588938 11.843712,0.9530865 C 11.345295,0.45489244 10.9375,0.03664132 10.9375,0.02363956 10.9375,0.0106378 12.076563,0 13.46875,0 H 16 v 2.53125 c 0,1.3921875 -0.01064,2.53125 -0.02364,2.53125 -0.013,0 -0.431253,-0.4077953 -0.929447,-0.9062115 z"
       id="path819"
       inkscape:connector-curvature="0" />
  </g>
</svg>
