<?xml version="1.0" encoding="UTF-8" standalone="no"?>
<!-- Created with Inkscape (http://www.inkscape.org/) -->

<svg
   version="1.1"
   id="svg2"
   width="1600"
   height="1600"
   viewBox="0 0 1600 1600"
   sodipodi:docname="levels.svg"
   inkscape:version="1.2.2 (732a01da63, 2022-12-09)"
   xmlns:inkscape="http://www.inkscape.org/namespaces/inkscape"
   xmlns:sodipodi="http://sodipodi.sourceforge.net/DTD/sodipodi-0.dtd"
   xmlns="http://www.w3.org/2000/svg"
   xmlns:svg="http://www.w3.org/2000/svg"
   xmlns:rdf="http://www.w3.org/1999/02/22-rdf-syntax-ns#"
   xmlns:cc="http://creativecommons.org/ns#"
   xmlns:dc="http://purl.org/dc/elements/1.1/">
  <metadata
     id="metadata8">
    <rdf:RDF>
      <cc:Work
         rdf:about="">
        <dc:format>image/svg+xml</dc:format>
        <dc:type
           rdf:resource="http://purl.org/dc/dcmitype/StillImage" />
      </cc:Work>
    </rdf:RDF>
  </metadata>
  <defs
     id="defs6" />
  <sodipodi:namedview
     pagecolor="#808080"
     bordercolor="#666666"
     borderopacity="1"
     objecttolerance="10"
     gridtolerance="10"
     guidetolerance="10"
     inkscape:pageopacity="0"
     inkscape:pageshadow="2"
     inkscape:window-width="1993"
     inkscape:window-height="1009"
     id="namedview4"
     showgrid="false"
     inkscape:zoom="0.5"
     inkscape:cx="909"
     inkscape:cy="710"
     inkscape:window-x="-8"
     inkscape:window-y="-8"
     inkscape:window-maximized="1"
     inkscape:current-layer="LEVELS"
     inkscape:showpageshadow="0"
     inkscape:pagecheckerboard="true"
     inkscape:deskcolor="#d1d1d1" />
  <g
     id="LEVELS"
     transform="matrix(100,0,0,100,0,4.9999997e-5)"
     style="stroke-width:0.0114286">
    <path
       style="fill:none;stroke-width:0.000357143"
       d="M 0,8 V 0 H 1 2 V 2.8708811 5.7417622 L 1.7890625,5.8624616 C 1.5300609,6.0106637 1.0268941,6.5056172 0.87921047,6.7574622 0.82137,6.8560975 0.73004222,7.0600037 0.67625987,7.2105872 0.58128331,7.4765087 0.57847381,7.4996384 0.57847381,8.015625 c 0,0.5159866 0.002809,0.5391162 0.0977861,0.8050378 C 0.73004222,8.9712463 0.82137,9.1751525 0.87921047,9.2737878 1.0268941,9.5256328 1.5300609,10.020586 1.7890625,10.168788 L 2,10.289488 V 13.144744 16 H 1 0 Z m 4,5.142731 c 0,-2.806 0.00109,-2.857617 0.060975,-2.876622 C 4.2109637,10.218504 4.5982487,9.9260663 4.8125,9.6986341 5.0916859,9.4022725 5.2233937,9.1891147 5.35499,8.8206628 5.4499666,8.5547412 5.4527763,8.5316116 5.4527763,8.015625 5.4527763,7.4996384 5.4499669,7.4765087 5.35499,7.2105872 5.2233937,6.8421353 5.0916859,6.6289775 4.8125,6.3326159 4.5982487,6.1051837 4.2109638,5.8127456 4.0609747,5.7651409 4.0010909,5.7461344 4,5.6943884 4,2.8728941 V 0 H 5.5 7 V 1.4021311 2.8042622 L 6.7890625,2.9249617 C 6.5300609,3.0731637 6.0268941,3.5681172 5.8792106,3.8199622 5.82137,3.9185975 5.7300422,4.1225037 5.67626,4.2730872 5.5812834,4.5390087 5.5784737,4.5621384 5.5784737,5.078125 c 0,0.5159866 0.00281,0.5391162 0.097786,0.8050378 0.053782,0.1505834 0.14511,0.3544897 0.2029506,0.453125 0.1476835,0.251845 0.6508503,0.7467984 0.9098519,0.8950006 L 7,7.3519878 V 11.675994 16 H 5.5 4 Z m 5,-1.46875 C 9,7.4114778 9.0008969,7.3476775 9.0609747,7.3286091 9.2109638,7.2810044 9.5982488,6.9885662 9.8125,6.7611341 10.091686,6.4647725 10.223394,6.2516147 10.35499,5.8831628 10.44997,5.6172412 10.45278,5.5941116 10.45278,5.078125 c 0,-0.5159866 -0.0028,-0.5391163 -0.09779,-0.8050378 C 10.223394,3.9046353 10.091686,3.6914775 9.8125,3.3951159 9.5982488,3.1676838 9.2109638,2.8752455 9.0609747,2.8276409 9.0017003,2.8088279 9,2.7691349 9,1.4041441 V 0 h 1.5 1.5 v 4.3716122 4.3716122 l -0.07309,0.018345 c -0.148745,0.037332 -0.54327,0.3296706 -0.770657,0.5710462 -0.279186,0.2963616 -0.410894,0.5095194 -0.54249,0.8779714 -0.09498,0.265922 -0.09779,0.289051 -0.09779,0.805038 0,0.515987 0.0028,0.539116 0.09779,0.805038 0.131596,0.368452 0.263304,0.58161 0.54249,0.877971 0.227387,0.241376 0.621912,0.533714 0.770657,0.571046 L 12,13.288026 V 14.644013 16 H 10.5 9 Z m 5.000929,2.958832 9.29e-4,-1.367188 0.194383,-0.108754 c 0.241495,-0.135112 0.748723,-0.63654 0.893297,-0.883083 0.05784,-0.09864 0.149169,-0.302542 0.202951,-0.453125 0.09498,-0.265922 0.09779,-0.289051 0.09779,-0.805038 0,-0.515987 -0.0028,-0.539116 -0.09779,-0.805038 C 15.238707,10.060004 15.147379,9.8560975 15.089538,9.7574622 14.944964,9.5109191 14.437736,9.0094913 14.196241,8.8743791 L 14.001859,8.765625 14.000929,4.3828125 14,0 h 1 1 v 8 8 h -1 -1 z"
       id="path829"
       inkscape:connector-curvature="0" />
    <path
       style="fill:#fefefe;stroke-width:0.000357143"
       d="m 12.625,12.434439 c -0.377237,-0.07367 -0.82246,-0.431364 -0.988585,-0.794231 -0.171677,-0.37499 -0.172111,-0.873228 -0.0011,-1.246795 0.112228,-0.245138 0.418115,-0.5571539 0.665704,-0.6790411 0.394424,-0.1941744 0.91068,-0.1937219 1.306511,0.00114 0.245189,0.120706 0.55167,0.4338951 0.663378,0.6778961 0.171024,0.373567 0.17059,0.871805 -0.0011,1.246795 -0.110045,0.240372 -0.418541,0.555689 -0.658476,0.673038 -0.298996,0.146234 -0.642204,0.188404 -0.986359,0.121193 z M 2.6875,9.4344391 C 2.3102628,9.3607669 1.8650402,9.0030747 1.6989146,8.6402084 1.5272382,8.2652178 1.5268043,7.76698 1.6978286,7.3934134 1.8100568,7.1482747 2.1159435,6.8362591 2.363532,6.7143719 2.7579561,6.5201975 3.2742127,6.52065 3.670044,6.7155156 3.9152324,6.8362216 4.2217137,7.1494106 4.3334212,7.3934122 4.5044455,7.7669787 4.5040118,8.2652166 4.3323337,8.6402072 4.222288,8.8805788 3.9137927,9.1958959 3.6738577,9.3132447 3.3748615,9.4594794 3.0316532,9.5016491 2.6874983,9.4344378 Z M 13.703125,8.6608384 c -0.201376,-0.073983 -0.259703,-0.080459 -0.734375,-0.08154 -0.498232,-0.00113 -0.634061,0.017706 -0.920716,0.127706 C 12.004963,8.7235322 12,8.2746325 12,4.3627184 V 0 h 1 1 v 4.375 c 0,3.4815122 -0.008,4.3741019 -0.03906,4.3706022 -0.02149,-0.00242 -0.1375,-0.040563 -0.257813,-0.084764 z M 7.6875,6.4969391 C 7.3102628,6.4232669 6.8650403,6.0655747 6.6989147,5.7027084 6.5272381,5.3277178 6.5268044,4.82948 6.6978272,4.4559134 6.8100553,4.2107747 7.1159422,3.8987591 7.3635306,3.7768719 7.7579547,3.5826975 8.2742113,3.58315 8.6700425,3.7780156 8.9152309,3.8987216 9.2217122,4.2119106 9.3334197,4.4559122 9.5044441,4.8294787 9.5040103,5.3277166 9.3323322,5.7027072 9.2222866,5.9430787 8.9137913,6.2583959 8.6738563,6.3757447 8.37486,6.5219794 8.0316516,6.5641491 7.6874969,6.4969378 Z M 2,2.8783434 V 0 H 3 4 V 2.8694908 5.7389816 L 3.7734375,5.6591403 C 3.5640309,5.5853447 3.5066469,5.5793659 3.015625,5.5801856 2.4842032,5.5810731 2.3800868,5.5977184 2.0546875,5.7338141 2.0028344,5.7555012 2,5.6075028 2,2.8783434 Z m 5,-1.46875 V 0 H 8 9 V 1.4007408 2.8014816 L 8.7734375,2.7216402 C 8.5640309,2.6478446 8.5066469,2.6418659 8.015625,2.6426857 7.4842031,2.6435729 7.3800869,2.6602184 7.0546875,2.7963142 7.0030744,2.817901 7,2.7399433 7,1.4095934 Z"
       id="path827"
       inkscape:connector-curvature="0" />
    <path
       style="fill:#3298fe;stroke-width:0.000357143"
       d="M 7,11.668532 C 7,7.5554434 7.00276,7.3382163 7.054687,7.3599359 7.3800864,7.4960316 7.4842026,7.5126772 8.0156245,7.5135644 8.5066464,7.5143831 8.5640304,7.5084044 8.773437,7.4346094 L 9,7.3547684 V 11.677384 16 H 8 7 Z"
       id="path825"
       inkscape:connector-curvature="0" />
    <path
       style="fill:#00fe00;stroke-width:0.000357143"
       d="m 12,14.652907 c 0,-1.199023 0.0053,-1.345068 0.04803,-1.328661 0.286325,0.109873 0.4228,0.12885 0.920716,0.128025 0.479758,-7.94e-4 0.532518,-0.0068 0.75847,-0.08594 0.133565,-0.0468 0.249581,-0.08508 0.257813,-0.08508 0.0082,0 0.01497,0.611719 0.01497,1.359375 V 16 h -1 -1 z"
       id="path823"
       inkscape:connector-curvature="0" />
    <path
       style="fill:#fe0000;stroke-width:0.000357143"
       d="m 2,13.137282 c 0,-2.714279 0.00284,-2.861533 0.054687,-2.839846 0.3253993,0.136096 0.4295157,0.152741 0.9609375,0.153628 0.4910219,8.19e-4 0.5484059,-0.0052 0.7578125,-0.07895 L 4,10.292268 V 13.146134 16 H 3 2 Z"
       id="path821"
       inkscape:connector-curvature="0" />
    <path
       style="fill:#323232;stroke-width:0.000357143"
       d="m 12.390625,13.424744 c -0.474918,-0.10829 -0.859449,-0.333621 -1.224472,-0.717525 -0.287876,-0.302767 -0.419117,-0.5134 -0.552393,-0.886556 -0.09498,-0.265922 -0.09779,-0.289051 -0.09779,-0.805038 0,-0.515987 0.0028,-0.539116 0.09779,-0.805038 0.141737,-0.3968448 0.270886,-0.5952326 0.60499,-0.929337 0.334104,-0.3341044 0.532492,-0.4632531 0.929337,-0.60499 0.265922,-0.094977 0.289051,-0.097786 0.805038,-0.097786 0.515987,0 0.539116,0.00281 0.805038,0.097786 0.396845,0.1417369 0.595233,0.2708856 0.929337,0.60499 0.334104,0.3341044 0.463253,0.5324922 0.60499,0.929337 0.09498,0.265922 0.09779,0.289051 0.09779,0.805038 0,0.515987 -0.0028,0.539116 -0.09779,0.805038 -0.141737,0.396845 -0.270886,0.595233 -0.60499,0.929337 -0.335799,0.335799 -0.53552,0.465328 -0.929337,0.602723 -0.248286,0.08662 -0.315994,0.09642 -0.726913,0.105146 -0.303841,0.0065 -0.514898,-0.0045 -0.640625,-0.03313 z m 0.862922,-0.987409 c 0.403043,-0.07522 0.844204,-0.421245 1.016288,-0.797127 0.171677,-0.37499 0.172111,-0.873228 0.0011,-1.246795 C 14.159215,10.149412 13.852734,9.8362228 13.607546,9.7155169 13.211714,9.52065 12.695458,9.5201975 12.301034,9.7143731 12.053445,9.8362603 11.747558,10.148276 11.63533,10.393415 c -0.112518,0.245773 -0.156217,0.574598 -0.11325,0.852189 0.04785,0.309131 0.162392,0.536608 0.389062,0.772662 0.358825,0.373678 0.817834,0.516971 1.342407,0.41907 z M 2.453125,10.424744 C 1.9782069,10.316454 1.5936758,10.091123 1.228653,9.7072191 0.94077722,9.4044522 0.80953613,9.1938188 0.67625987,8.8206628 0.58128331,8.5547412 0.57847381,8.5316116 0.57847381,8.015625 c 0,-0.5159866 0.002809,-0.5391163 0.0977861,-0.8050378 C 0.81799691,6.8137422 0.94714575,6.6153544 1.28125,6.28125 1.6153542,5.9471456 1.8137423,5.8179969 2.210587,5.67626 2.4765087,5.581283 2.4996384,5.578474 3.015625,5.578474 c 0.5159866,0 0.5391163,0.00281 0.8050378,0.097786 C 4.2175078,5.8179969 4.4158956,5.9471456 4.75,6.28125 5.0841044,6.6153544 5.2132531,6.8137422 5.35499,7.2105872 5.449967,7.4765087 5.452776,7.4996384 5.452776,8.015625 c 0,0.5159866 -0.00281,0.5391162 -0.097786,0.8050378 C 5.2132531,9.2175078 5.0841044,9.4158956 4.75,9.75 c -0.3357994,0.335799 -0.53552,0.465328 -0.9293372,0.602723 -0.2482862,0.08662 -0.3159937,0.09642 -0.7269128,0.105146 -0.3038405,0.0065 -0.5148979,-0.0045 -0.640625,-0.03313 z M 3.3160472,9.437335 C 3.7190903,9.362115 4.1602509,9.0160903 4.3323353,8.6402084 4.5040119,8.2652178 4.5044456,7.76698 4.3334228,7.3934134 4.2217153,7.1494119 3.9152341,6.8362228 3.6700456,6.7155169 3.2742144,6.52065 2.7579577,6.5201975 2.3635336,6.7143731 2.1159452,6.8362603 1.8100585,7.1482759 1.6978303,7.3934147 1.5853115,7.6391881 1.5416128,7.9680134 1.5845799,8.2456044 1.6324288,8.5547347 1.7469717,8.7822119 1.9736421,9.0182656 2.332467,9.3919444 2.791476,9.5352372 3.3160487,9.4373362 Z M 7.453125,7.4872437 C 6.9782069,7.3789537 6.5936756,7.1536234 6.2286531,6.7697191 5.9407772,6.4669522 5.8095362,6.2563187 5.67626,5.8831628 5.5812834,5.6172412 5.5784737,5.5941116 5.5784737,5.078125 c 0,-0.5159866 0.00281,-0.5391163 0.097786,-0.8050378 C 5.8179969,3.8762422 5.9471456,3.6778544 6.28125,3.34375 6.6153544,3.0096457 6.8137422,2.8804969 7.2105872,2.7387599 7.4765087,2.6437833 7.4996384,2.6409738 8.015625,2.6409738 c 0.5159866,0 0.5391162,0.00281 0.8050378,0.097786 C 9.2175078,2.8804969 9.4158956,3.0096457 9.75,3.34375 c 0.334104,0.3341044 0.463253,0.5324922 0.60499,0.9293372 0.09498,0.2659215 0.09779,0.2890512 0.09779,0.8050378 0,0.5159866 -0.0028,0.5391162 -0.09779,0.8050378 C 10.213253,6.2800078 10.084104,6.4783956 9.75,6.8125 9.4142006,7.1482994 9.21448,7.2778284 8.8206628,7.4152228 8.5723766,7.5018447 8.5046691,7.5116384 8.09375,7.5203694 7.7899094,7.5268253 7.5788522,7.5159119 7.453125,7.4872437 Z M 8.3160472,6.499835 C 8.7190903,6.424615 9.1602509,6.0785903 9.3323353,5.7027084 9.5040119,5.3277178 9.5044456,4.82948 9.3334228,4.4559134 9.2217153,4.2119119 8.9152341,3.8987228 8.6700456,3.7780169 8.2742144,3.58315 7.7579578,3.5826975 7.3635337,3.7768731 7.1159453,3.8987603 6.8100584,4.2107759 6.6978303,4.4559147 6.5853116,4.7016881 6.5416128,5.0305134 6.58458,5.3081044 6.6324287,5.6172347 6.7469716,5.8447119 6.9736422,6.0807656 7.3324669,6.4544444 7.7914759,6.5977372 8.3160488,6.4998362 Z"
       id="path819"
       inkscape:connector-curvature="0" />
  </g>
</svg>
