<?xml version="1.0" encoding="UTF-8" standalone="no"?>
<!-- Created with Inkscape (http://www.inkscape.org/) -->

<svg
   xmlns:dc="http://purl.org/dc/elements/1.1/"
   xmlns:cc="http://creativecommons.org/ns#"
   xmlns:rdf="http://www.w3.org/1999/02/22-rdf-syntax-ns#"
   xmlns:svg="http://www.w3.org/2000/svg"
   xmlns="http://www.w3.org/2000/svg"
   xmlns:sodipodi="http://sodipodi.sourceforge.net/DTD/sodipodi-0.dtd"
   xmlns:inkscape="http://www.inkscape.org/namespaces/inkscape"
   version="1.1"
   id="svg2"
   width="16"
   height="16"
   viewBox="0 0 16 16"
   sodipodi:docname="LIGHTPROBE_PLANAR.svg"
   inkscape:version="0.92.4 (5da689c313, 2019-01-14)">
  <metadata
     id="metadata8">
    <rdf:RDF>
      <cc:Work
         rdf:about="">
        <dc:format>image/svg+xml</dc:format>
        <dc:type
           rdf:resource="http://purl.org/dc/dcmitype/StillImage" />
        <dc:title></dc:title>
      </cc:Work>
    </rdf:RDF>
  </metadata>
  <defs
     id="defs6" />
  <sodipodi:namedview
     pagecolor="#ffffff"
     bordercolor="#666666"
     borderopacity="1"
     objecttolerance="10"
     gridtolerance="10"
     guidetolerance="10"
     inkscape:pageopacity="0"
     inkscape:pageshadow="2"
     inkscape:window-width="1147"
     inkscape:window-height="749"
     id="namedview4"
     showgrid="false"
     inkscape:zoom="14.75"
     inkscape:cx="-1.0169492"
     inkscape:cy="8"
     inkscape:window-x="0"
     inkscape:window-y="0"
     inkscape:window-maximized="0"
     inkscape:current-layer="svg2" />
  <g
     id="LIGHTPROBE_PLANAR">
    <path
       style="fill:#ffffff;stroke-width:0.03125"
       d="M 0,8 V 0 h 8 8 v 8 8 H 8 0 Z M 14,8 V 2 H 8 2 v 6 6 h 6 6 z"
       id="path825"
       inkscape:connector-curvature="0" />
    <path
       style="fill:#e5f1fe;stroke-width:0.03125"
       d="M 2.5,8 V 2.5 H 8 13.5 V 8 13.5 H 8 2.5 Z M 8.421875,9.9531453 C 9.1647875,9.7977041 9.7977041,9.1647875 9.9531453,8.421875 10.250266,7.0018228 8.9981772,5.7497344 7.578125,6.0468547 7.0106991,6.1655784 6.4780709,6.5774881 6.2230478,7.0948078 c -0.2954,0.5992253 -0.2954,1.2111591 0,1.8103844 0.3931413,0.7974956 1.3092084,1.2340898 2.1988272,1.0479531 z"
       id="path823"
       inkscape:connector-curvature="0" />
    <path
       style="fill:#fdfe00;stroke-width:0.03125"
       d="M 7.6957081,9.4526841 C 6.9375322,9.2879641 6.406005,8.5237866 6.5316178,7.7790697 6.6674231,6.9739247 7.4438894,6.4005528 8.2209303,6.5316178 9.0260753,6.6674231 9.5994472,7.4438894 9.4683822,8.2209303 9.3652066,8.8326256 8.8934891,9.3261356 8.2896816,9.454085 8.0349522,9.5080634 7.9496834,9.5078622 7.6957081,9.452685 Z"
       id="path821"
       inkscape:connector-curvature="0" />
    <path
       style="fill:#000000;stroke-width:0.03125"
       d="M 2,8 V 2 h 6 6 v 6 6 H 8 2 Z M 13.5,8 V 2.5 H 8 2.5 V 8 13.5 H 8 13.5 Z M 7.5625,9.9514053 C 6.8323191,9.7945809 6.2007041,9.1571794 6.0468547,8.421875 5.7497344,7.0018228 7.0018228,5.7497344 8.421875,6.0468547 9.1647875,6.2022959 9.7977041,6.8352125 9.9531453,7.578125 10.251335,9.0032863 8.9878991,10.257545 7.5625,9.9514053 Z M 8.2896816,9.454085 C 8.8934891,9.3261356 9.3652066,8.8326256 9.4683822,8.2209303 9.5994472,7.4438894 9.0260753,6.6674231 8.2209303,6.5316178 7.4438894,6.4005528 6.6674231,6.9739247 6.5316178,7.7790697 6.406005,8.5237866 6.9375322,9.2879641 7.6957081,9.4526841 c 0.2539753,0.055178 0.3392441,0.055379 0.5939735,0.0014 z"
       id="path819"
       inkscape:connector-curvature="0" />
  </g>
</svg>
