<?xml version="1.0" encoding="UTF-8" standalone="no"?>
<!-- Created with Inkscape (http://www.inkscape.org/) -->

<svg
   version="1.1"
   id="svg2"
   width="1600"
   height="1600"
   viewBox="0 0 1600 1600"
   sodipodi:docname="light_sun.svg"
   inkscape:version="1.2.2 (732a01da63, 2022-12-09)"
   xmlns:inkscape="http://www.inkscape.org/namespaces/inkscape"
   xmlns:sodipodi="http://sodipodi.sourceforge.net/DTD/sodipodi-0.dtd"
   xmlns="http://www.w3.org/2000/svg"
   xmlns:svg="http://www.w3.org/2000/svg"
   xmlns:rdf="http://www.w3.org/1999/02/22-rdf-syntax-ns#"
   xmlns:cc="http://creativecommons.org/ns#"
   xmlns:dc="http://purl.org/dc/elements/1.1/">
  <metadata
     id="metadata8">
    <rdf:RDF>
      <cc:Work
         rdf:about="">
        <dc:format>image/svg+xml</dc:format>
        <dc:type
           rdf:resource="http://purl.org/dc/dcmitype/StillImage" />
      </cc:Work>
    </rdf:RDF>
  </metadata>
  <defs
     id="defs6" />
  <sodipodi:namedview
     pagecolor="#808080"
     bordercolor="#666666"
     borderopacity="1"
     objecttolerance="10"
     gridtolerance="10"
     guidetolerance="10"
     inkscape:pageopacity="0"
     inkscape:pageshadow="2"
     inkscape:window-width="1993"
     inkscape:window-height="1009"
     id="namedview4"
     showgrid="false"
     inkscape:zoom="0.5"
     inkscape:cx="87"
     inkscape:cy="44"
     inkscape:window-x="-8"
     inkscape:window-y="-8"
     inkscape:window-maximized="1"
     inkscape:current-layer="LIGHT_SUN"
     inkscape:showpageshadow="0"
     inkscape:pagecheckerboard="true"
     inkscape:deskcolor="#d1d1d1" />
  <g
     id="LIGHT_SUN"
     transform="matrix(100,0,0,100,0,4.9999997e-5)"
     style="stroke-width:0.0114286">
    <path
       style="fill:none;stroke-width:0.000357143"
       d="M 0,8 V 0 h 8 8 v 8 8 H 8 0 Z m 8.18355,6.670153 C 8.4016444,14.605386 8.5741359,14.432894 8.6389031,14.2148 8.6785544,14.08128 8.6875,13.862368 8.6875,13.025578 V 12 H 7.984375 7.28125 v 1.025578 c 0,0.83679 0.00895,1.055702 0.048597,1.189222 0.062547,0.210618 0.2383168,0.390882 0.4422556,0.453563 0.1936938,0.05953 0.2166687,0.05963 0.4114475,0.0018 z m 4.272695,-1.744376 c 0.0189,-0.0034 0.06812,-0.02782 0.109375,-0.05426 0.04125,-0.02644 0.09993,-0.05724 0.130401,-0.06846 0.03047,-0.01122 0.06457,-0.04532 0.07579,-0.07579 0.01122,-0.03047 0.04213,-0.08931 0.0687,-0.130768 0.109929,-0.171517 0.107111,-0.496637 -0.0058,-0.668959 -0.02941,-0.04488 -0.05346,-0.09275 -0.05346,-0.106381 0,-0.01363 -0.327091,-0.351655 -0.726868,-0.751161 l -0.726868,-0.726374 -0.499694,0.500789 -0.499695,0.500788 0.765625,0.759483 c 0.900501,0.893277 0.914555,0.901746 1.362495,0.821089 z M 3.9406197,12.8985 c 0.027497,-0.0056 0.086768,-0.03426 0.1317131,-0.06371 0.044945,-0.02945 0.092872,-0.05354 0.1065047,-0.05354 0.013632,0 0.3516547,-0.327091 0.7511603,-0.726868 L 5.6563722,11.327514 5.1562525,10.828127 4.6561328,10.328741 3.9216022,11.062772 c -0.7961453,0.795605 -0.872034,0.898145 -0.8670924,1.171603 0.00349,0.192897 0.013207,0.23643 0.07397,0.331245 0.026437,0.04125 0.057244,0.09993 0.06846,0.130401 0.011216,0.03047 0.045321,0.0644 0.075789,0.0754 0.030468,0.011 0.094068,0.0468 0.1413337,0.07954 0.047266,0.03275 0.085937,0.05277 0.085937,0.04449 0,-0.0083 0.038672,-0.0027 0.085937,0.01236 0.076397,0.02437 0.2056956,0.02097 0.3546822,-0.0093 z M 8.4375,10.967086 c 0.5374331,-0.08583 1.1258525,-0.371251 1.5347425,-0.744437 1.3624795,-1.2435096 1.3624795,-3.4517884 0,-4.6952978 C 9.4384728,5.04019 8.7029741,4.7504722 8,4.7504722 c -0.7029741,0 -1.4384728,0.2897178 -1.9722425,0.776879 -1.3624797,1.2435094 -1.3624797,3.4517882 0,4.6952978 0.3979425,0.363194 0.9940347,0.657209 1.5035006,0.741582 0.2409075,0.0399 0.6659319,0.04124 0.9062419,0.0029 z M 4,8.0140994 V 7.3094487 l -1.0703125,0.00934 c -1.0552634,0.00921 -1.0724391,0.010385 -1.2215581,0.083798 -0.1814728,0.089341 -0.3134678,0.2601919 -0.3641112,0.4712972 -0.078663,0.3279053 0.1331235,0.694219 0.4593345,0.7944815 0.1182376,0.036341 0.365258,0.046492 1.1732098,0.04821 L 4,8.71875 Z M 14.323121,8.6286653 C 14.504593,8.5393247 14.636588,8.3684734 14.687232,8.1573681 14.767693,7.8219672 14.554026,7.4618362 14.2148,7.3610969 14.08128,7.3214456 13.862368,7.3125 13.025578,7.3125 H 12 v 0.7046325 0.7046322 l 1.085938,-0.00932 c 1.071761,-0.0092 1.087911,-0.010292 1.237183,-0.083779 z M 5.1643759,5.1637603 5.6561441,4.6712703 4.9218219,3.9374472 C 4.517945,3.5338444 4.1875,3.2162378 4.1875,3.2316553 c 0,0.015417 -0.025308,0.00513 -0.056239,-0.022864 C 4.0604412,3.1447 3.8480691,3.0720313 3.765625,3.0836791 3.5703694,3.1112649 3.5239906,3.123372 3.4828828,3.1574884 3.4579222,3.1782038 3.4375,3.1856841 3.4375,3.1741109 c 0,-0.059899 -0.2188609,0.15771 -0.2819106,0.2802985 -0.080897,0.157289 -0.1081723,0.4561987 -0.051211,0.5612156 0.018645,0.034375 0.030464,0.074393 0.026264,0.088928 -0.00766,0.026504 1.4903434,1.5516969 1.5240328,1.5516969 0.00986,0 0.2392284,-0.2216203 0.5097007,-0.4924896 z M 12.764379,4.1914625 c -0.008,-0.00798 0.0062,-0.037449 0.03161,-0.065478 0.06007,-0.066377 0.131606,-0.2805966 0.120337,-0.3603597 -0.02759,-0.1952556 -0.03969,-0.2416344 -0.07381,-0.2827422 -0.02072,-0.024961 -0.0282,-0.045383 -0.01662,-0.045383 0.0599,0 -0.15771,-0.2188609 -0.280298,-0.2819106 -0.157289,-0.080897 -0.456199,-0.1081723 -0.561216,-0.051211 -0.03438,0.018645 -0.07446,0.030442 -0.08907,0.026216 -0.01461,-0.00423 -0.373208,0.3368715 -0.796875,0.757995 L 10.328125,4.6542681 10.82782,5.15532 11.327514,5.6563722 12.053204,4.931175 c 0.39913,-0.3988584 0.719159,-0.7317291 0.711175,-0.7397125 z M 8.6812131,2.9296875 C 8.6720063,1.8744241 8.6708281,1.8572484 8.5974153,1.7081294 8.5080747,1.5266566 8.3372234,1.3946616 8.1261181,1.3440182 7.7907172,1.2635567 7.4305862,1.4772242 7.3298469,1.8164499 7.2902625,1.9497457 7.28125,2.167392 7.28125,2.9900469 V 4 h 0.7046506 0.7046507 z"
       id="path823"
       inkscape:connector-curvature="0" />
    <path
       style="fill:#fdfe00;stroke-width:0.000357143"
       d="M 7.7721025,14.668363 C 7.5681637,14.605682 7.3923937,14.425418 7.3298469,14.2148 7.2901956,14.08128 7.28125,13.862368 7.28125,13.025578 V 12 H 7.984375 8.6875 v 1.025578 c 0,1.176749 -0.013749,1.269421 -0.21875,1.474422 -0.079617,0.07962 -0.1780163,0.138323 -0.2852,0.170153 -0.1947788,0.05784 -0.2177537,0.05774 -0.4114475,-0.0018 z M 12.015625,12.915928 C 11.878667,12.870561 11.764846,12.7704 11.09375,12.104688 l -0.765625,-0.759483 0.499695,-0.500788 0.499694,-0.500789 0.726868,0.726374 c 0.399777,0.399506 0.726868,0.737528 0.726868,0.751161 0,0.01363 0.02406,0.0615 0.05346,0.106381 0.11291,0.172322 0.115727,0.497442 0.0058,0.668959 -0.02657,0.04145 -0.05748,0.1003 -0.0687,0.130768 -0.01122,0.03047 -0.04532,0.06457 -0.07579,0.07579 -0.03047,0.01122 -0.08915,0.04202 -0.130401,0.06846 -0.04125,0.02644 -0.09047,0.05085 -0.109375,0.05426 -0.211071,0.03801 -0.302309,0.03597 -0.44062,-0.0098 z m -8.4296875,-0.0081 C 3.5386719,12.892739 3.5,12.887178 3.5,12.895456 c 0,0.0083 -0.038672,-0.01174 -0.085937,-0.04449 -0.047266,-0.03275 -0.1108659,-0.06854 -0.1413337,-0.07954 -0.030468,-0.011 -0.064573,-0.04493 -0.075789,-0.0754 -0.011216,-0.03047 -0.042023,-0.08915 -0.06846,-0.130401 -0.060763,-0.09481 -0.070484,-0.138348 -0.07397,-0.331245 -0.00494,-0.273458 0.070947,-0.375998 0.8670924,-1.171603 l 0.7345306,-0.734031 0.5001197,0.499386 0.5001197,0.499387 -0.7263744,0.726868 C 4.5304922,12.454159 4.19247,12.78125 4.1788375,12.78125 c -0.013632,0 -0.06156,0.0241 -0.1065047,0.05354 -0.044945,0.02945 -0.1042159,0.05812 -0.1317131,0.06371 -0.1489866,0.03028 -0.2782856,0.03368 -0.3546822,0.0093 z M 7.6613722,10.467036 C 7.0451466,10.356926 6.4406134,9.9989084 6.0906322,9.5368097 5.886995,9.2679366 5.6733569,8.8326122 5.5894794,8.515625 5.4969703,8.1660181 5.4967947,7.5852344 5.5890919,7.234375 5.6743156,6.9104059 5.9259681,6.4128025 6.1331897,6.1585056 6.7124794,5.4476172 7.7395425,5.1034562 8.5781244,5.3392262 9.0847762,5.4816734 9.56304,5.7857287 9.8668091,6.1585056 10.074031,6.4128025 10.325683,6.9104059 10.410907,7.234375 c 0.09208,0.3500341 0.09208,0.9312159 0,1.28125 C 10.325683,8.8395941 10.074031,9.3371975 9.8668091,9.5914944 9.3558434,10.218537 8.3982328,10.598701 7.6613716,10.467036 Z M 1.8033527,8.6683634 C 1.4771417,8.5681009 1.265355,8.2017872 1.3440182,7.8738819 1.3946616,7.6627766 1.5266566,7.4919253 1.7081294,7.4025847 1.8572484,7.3291719 1.8744241,7.3279937 2.9296875,7.3187869 L 4,7.3094487 V 8.0140994 8.71875 L 2.9765625,8.7165719 C 2.1686107,8.7148531 1.9215903,8.7047028 1.8033527,8.6683619 Z M 12,8.0171325 V 7.3125 h 1.025578 c 0.83679,0 1.055702,0.00895 1.189222,0.048597 0.339226,0.1007393 0.552893,0.4608703 0.472432,0.7962712 -0.05064,0.2111053 -0.182639,0.3819566 -0.364111,0.4712972 -0.149272,0.073488 -0.165422,0.074581 -1.237184,0.08378 L 12,8.7217647 Z M 3.8798741,4.8936156 C 3.4635969,4.4741669 3.1264425,4.1190887 3.1306422,4.1045531 3.1348422,4.0900178 3.1230232,4.05 3.1043783,4.015625 3.0474171,3.9106081 3.0746927,3.6116984 3.1555894,3.4544094 3.2186391,3.3318209 3.4375,3.1142116 3.4375,3.1741109 c 0,0.011573 0.020422,0.00409 0.045383,-0.016622 0.041108,-0.034116 0.087487,-0.046223 0.2827422,-0.073809 0.082444,-0.011648 0.2948162,0.061021 0.3656359,0.1251122 0.030932,0.027992 0.056239,0.038281 0.056239,0.022864 0,-0.015417 0.330445,0.3021891 0.7343219,0.7057919 L 5.6561442,4.6712711 5.164376,5.1637611 C 4.8939034,5.4346297 4.6645378,5.65625 4.654675,5.65625 4.644815,5.65625 4.2961516,5.3130647 3.8798741,4.8936156 Z M 10.82782,5.15532 10.328125,4.6542681 11.098428,3.8885894 c 0.423667,-0.4211235 0.782261,-0.7622213 0.796875,-0.757995 0.01461,0.00423 0.0547,-0.00757 0.08907,-0.026216 0.105017,-0.056961 0.403927,-0.029686 0.561216,0.051211 0.122588,0.06305 0.340197,0.2819106 0.280298,0.2819106 -0.01157,0 -0.0041,0.020422 0.01662,0.045383 0.03412,0.041108 0.04622,0.087487 0.07381,0.2827422 0.01127,0.079763 -0.06027,0.2939825 -0.120337,0.3603597 -0.02537,0.028029 -0.03959,0.057494 -0.03161,0.065478 0.008,0.00798 -0.312045,0.3408541 -0.711175,0.7397125 l -0.72569,0.7251972 z M 7.28125,2.9900469 c 0,-0.8226549 0.00901,-1.0403012 0.048597,-1.173597 0.1007393,-0.3392257 0.4608703,-0.5528932 0.7962712,-0.4724317 0.2111053,0.050643 0.3819566,0.1826384 0.4712972,0.3641112 0.073413,0.149119 0.074591,0.1662947 0.083798,1.2215581 L 8.6905513,4 H 7.9859006 7.28125 Z"
       id="path821"
       inkscape:connector-curvature="0" />
    <path
       style="fill:#000000;stroke-width:0.000357143"
       d="M 7.5312581,10.964231 C 7.0217922,10.879858 6.4257,10.585843 6.0277575,10.222649 4.6652778,8.9791394 4.6652778,6.7708606 6.0277575,5.5273513 6.5615272,5.04019 7.2970259,4.7504722 8,4.7504722 c 0.7029741,0 1.4384728,0.2897178 1.9722425,0.7768791 1.3624795,1.2435093 1.3624795,3.4517881 0,4.6952977 -0.40889,0.373186 -0.9973094,0.658603 -1.5347425,0.744437 -0.24031,0.03838 -0.6653344,0.03704 -0.9062419,-0.0029 z M 8.59375,10.405043 C 9.0817916,10.270108 9.5659406,9.9607125 9.8668097,9.5914944 10.074031,9.3371975 10.325684,8.8395941 10.410908,8.515625 c 0.09208,-0.3500341 0.09208,-0.9312159 0,-1.28125 C 10.325684,6.9104059 10.074031,6.4128025 9.8668097,6.1585056 9.28752,5.4476172 8.2604569,5.1034562 7.421875,5.3392262 6.9152231,5.4816734 6.4369594,5.7857288 6.1331903,6.1585056 5.9259687,6.4128025 5.6743163,6.9104059 5.5890925,7.234375 c -0.092298,0.3508594 -0.092122,0.9316431 3.875e-4,1.28125 0.083877,0.3169872 0.2975156,0.7523116 0.5011528,1.0211847 0.3499813,0.4620987 0.9545144,0.8201163 1.57074,0.9302263 0.2356481,0.04211 0.657255,0.01407 0.9323778,-0.06199 z"
       id="path819"
       inkscape:connector-curvature="0" />
  </g>
</svg>
