<?xml version="1.0" encoding="UTF-8" standalone="no"?>
<!-- Created with Inkscape (http://www.inkscape.org/) -->

<svg
   version="1.1"
   id="svg2"
   width="1600"
   height="1600"
   viewBox="0 0 1600 1600"
   sodipodi:docname="lightprobe_grid.svg"
   inkscape:version="1.2.2 (732a01da63, 2022-12-09)"
   xmlns:inkscape="http://www.inkscape.org/namespaces/inkscape"
   xmlns:sodipodi="http://sodipodi.sourceforge.net/DTD/sodipodi-0.dtd"
   xmlns="http://www.w3.org/2000/svg"
   xmlns:svg="http://www.w3.org/2000/svg"
   xmlns:rdf="http://www.w3.org/1999/02/22-rdf-syntax-ns#"
   xmlns:cc="http://creativecommons.org/ns#"
   xmlns:dc="http://purl.org/dc/elements/1.1/">
  <metadata
     id="metadata8">
    <rdf:RDF>
      <cc:Work
         rdf:about="">
        <dc:format>image/svg+xml</dc:format>
        <dc:type
           rdf:resource="http://purl.org/dc/dcmitype/StillImage" />
      </cc:Work>
    </rdf:RDF>
  </metadata>
  <defs
     id="defs6" />
  <sodipodi:namedview
     pagecolor="#808080"
     bordercolor="#666666"
     borderopacity="1"
     objecttolerance="10"
     gridtolerance="10"
     guidetolerance="10"
     inkscape:pageopacity="0"
     inkscape:pageshadow="2"
     inkscape:window-width="1993"
     inkscape:window-height="1009"
     id="namedview4"
     showgrid="false"
     inkscape:zoom="0.5"
     inkscape:cx="759"
     inkscape:cy="548"
     inkscape:window-x="-8"
     inkscape:window-y="-8"
     inkscape:window-maximized="1"
     inkscape:current-layer="LIGHTPROBE_GRID"
     inkscape:showpageshadow="0"
     inkscape:pagecheckerboard="true"
     inkscape:deskcolor="#d1d1d1" />
  <g
     id="LIGHTPROBE_GRID"
     transform="matrix(100,0,0,100,0,4.9999997e-5)"
     style="stroke-width:0.0114286">
    <path
       style="fill:none;stroke-width:0.000357143"
       d="M 0,8 V 0 h 8 8 v 8 8 H 8 0 Z m 3.2693106,6.419944 c 0.1867938,-0.139616 0.2142216,-0.209615 0.2255703,-0.57568 l 0.010506,-0.338877 0.3388769,-0.01051 c 0.3661181,-0.01135 0.436174,-0.03881 0.5756803,-0.225666 0.060476,-0.081 0.064431,-0.128213 0.064431,-0.769215 0,-0.641002 -0.00395,-0.688213 -0.064431,-0.769215 C 4.2804378,11.543931 4.2103819,11.51647 3.8442638,11.505119 L 3.5053869,11.494613 3.4948809,11.155736 C 3.4835303,10.789618 3.4560688,10.719562 3.269215,10.580056 3.1882134,10.51958 3.1410016,10.515625 2.5,10.515625 c -0.6410015,0 -0.6882136,0.004 -0.769215,0.06443 -0.1868537,0.139506 -0.2143155,0.209562 -0.2256659,0.57568 l -0.010506,0.338877 -0.338877,0.01051 c -0.36611817,0.01135 -0.43617389,0.03881 -0.57568029,0.225666 -0.0604763,0.081 -0.0644309,0.128213 -0.0644309,0.769215 0,0.641002 0.003955,0.688213 0.0644309,0.769215 0.13973306,0.187157 0.20929793,0.214308 0.57837369,0.225737 L 1.5,13.50553 v 0.292076 c 0,0.314011 0.027775,0.425673 0.1348941,0.542316 0.1354627,0.147506 0.2095831,0.159993 0.9019723,0.151955 0.5974617,-0.0069 0.6527483,-0.01237 0.7324442,-0.07193 z m 5,0 c 0.1867938,-0.139616 0.2142216,-0.209615 0.2255703,-0.57568 l 0.010506,-0.338877 0.3388769,-0.01051 c 0.3661181,-0.01135 0.436174,-0.03881 0.5756803,-0.225666 0.060476,-0.081 0.064431,-0.128213 0.064431,-0.769215 0,-0.641002 -0.00395,-0.688213 -0.064431,-0.769215 C 9.2804378,11.543931 9.2103819,11.51647 8.8442638,11.505119 L 8.5053869,11.494613 8.4948809,11.155736 C 8.4835303,10.789618 8.4560688,10.719562 8.269215,10.580056 8.1882134,10.51958 8.1410016,10.515625 7.5,10.515625 c -0.6410016,0 -0.6882134,0.004 -0.769215,0.06443 -0.1868538,0.139506 -0.2143153,0.209562 -0.2256659,0.57568 l -0.010506,0.338877 -0.3388768,0.01051 c -0.3661182,0.01135 -0.4361741,0.03881 -0.5756804,0.225666 -0.060476,0.081 -0.064431,0.128213 -0.064431,0.769215 0,0.641002 0.00395,0.688213 0.064431,0.769215 0.1397332,0.187157 0.2092978,0.214308 0.5783738,0.225737 L 6.5,13.50553 v 0.292076 c 0,0.314011 0.027774,0.425673 0.1348941,0.542316 0.1354628,0.147506 0.2095831,0.159993 0.9019725,0.151955 0.5974615,-0.0069 0.6527481,-0.01237 0.732444,-0.07193 z m 5.0000004,0 c 0.186793,-0.139616 0.214221,-0.209615 0.22557,-0.57568 l 0.01051,-0.338877 0.338877,-0.01051 c 0.366118,-0.01135 0.436174,-0.03881 0.57568,-0.225666 0.06048,-0.081 0.06443,-0.128213 0.06443,-0.769215 0,-0.641002 -0.004,-0.688213 -0.06443,-0.769215 -0.139506,-0.186854 -0.209562,-0.214315 -0.57568,-0.225666 l -0.338877,-0.01051 -0.01051,-0.338877 c -0.01135,-0.366118 -0.03881,-0.436174 -0.225666,-0.57568 -0.081,-0.06048 -0.128213,-0.06443 -0.769215,-0.06443 -0.641002,0 -0.688213,0.004 -0.769215,0.06443 -0.186854,0.139506 -0.214315,0.209562 -0.225666,0.57568 l -0.01051,0.338877 -0.338877,0.01051 c -0.366118,0.01135 -0.436174,0.03881 -0.57568,0.225666 -0.06048,0.081 -0.06443,0.128213 -0.06443,0.769215 0,0.641002 0.004,0.688213 0.06443,0.769215 0.139733,0.187157 0.209298,0.214308 0.578374,0.225737 L 11.5,13.50553 v 0.292076 c 0,0.314011 0.02777,0.425673 0.134894,0.542316 0.135463,0.147506 0.209583,0.159993 0.901973,0.151955 0.597461,-0.0069 0.652748,-0.01237 0.732444,-0.07193 z M 3.2693106,9.4199441 C 3.4561044,9.2803278 3.4835322,9.2103291 3.4948809,8.8442638 L 3.5053869,8.5053869 3.8442637,8.4948809 C 4.2103819,8.4835303 4.2804378,8.4560688 4.4199441,8.269215 4.4804203,8.1882134 4.484375,8.1410016 4.484375,7.5 4.484375,6.8589984 4.480425,6.8117866 4.419944,6.730785 4.2804378,6.5439312 4.2103819,6.5164697 3.8442638,6.5051191 L 3.5053869,6.4946131 3.4948809,6.1557363 C 3.4835303,5.7896181 3.4560688,5.7195622 3.269215,5.5800559 3.1882134,5.5195797 3.1410016,5.515625 2.5,5.515625 c -0.6410015,0 -0.6882136,0.00395 -0.769215,0.064431 C 1.5439313,5.7195622 1.5164695,5.7896181 1.5051191,6.1557363 l -0.010506,0.3388768 -0.338877,0.010506 C 0.78961803,6.5164697 0.71956231,6.5439312 0.58005591,6.730785 0.51957956,6.8117866 0.515625,6.8589984 0.515625,7.5 c 0,0.6410016 0.003955,0.6882134 0.0644309,0.769215 0.13973306,0.1871572 0.20929793,0.2143081 0.5783737,0.2257375 L 1.5,8.5055297 v 0.2920759 c 0,0.3140113 0.027775,0.4256731 0.1348941,0.5423163 0.1354627,0.1475056 0.2095831,0.1599928 0.9019723,0.151955 0.5974617,-0.00694 0.6527483,-0.012365 0.7324442,-0.071933 z M 7.921875,9.4531453 C 8.6647875,9.2977041 9.2977041,8.6647875 9.4531453,7.921875 9.7502656,6.5018228 8.4981772,5.2497344 7.078125,5.5468547 6.5106991,5.6655784 5.9780709,6.0774881 5.7230478,6.5948078 c -0.2954,0.5992253 -0.2954,1.2111591 0,1.8103844 0.3931413,0.7974956 1.3092084,1.2340897 2.1988272,1.0479531 z m 5.347436,-0.033201 c 0.186793,-0.1396163 0.214221,-0.209615 0.22557,-0.5756803 l 0.01051,-0.3388769 0.338877,-0.010506 c 0.366118,-0.011351 0.436174,-0.038812 0.57568,-0.2256659 0.06048,-0.081002 0.06443,-0.1282134 0.06443,-0.769215 0,-0.6410016 -0.004,-0.6882134 -0.06443,-0.769215 -0.13951,-0.186854 -0.209566,-0.2143155 -0.575684,-0.2256661 L 13.505387,6.4946131 13.494881,6.1557363 C 13.48353,5.7896181 13.456069,5.7195622 13.269215,5.5800559 13.188213,5.5195797 13.141002,5.515625 12.5,5.515625 c -0.641002,0 -0.688213,0.00395 -0.769215,0.064431 -0.186854,0.1395063 -0.214315,0.2095622 -0.225666,0.5756804 l -0.01051,0.3388768 -0.338877,0.010506 c -0.366118,0.011351 -0.436174,0.038812 -0.57568,0.2256659 -0.06048,0.081002 -0.06443,0.1282134 -0.06443,0.769215 0,0.6410016 0.004,0.6882134 0.06443,0.769215 0.139733,0.1871572 0.209298,0.2143081 0.578374,0.2257375 L 11.5,8.5055297 v 0.2920759 c 0,0.3140113 0.02777,0.4256731 0.134894,0.5423163 0.135463,0.1475056 0.209583,0.1599928 0.901973,0.151955 0.597461,-0.00694 0.652748,-0.012365 0.732444,-0.071933 z m -10.0000004,-5 C 3.4561044,4.2803278 3.4835322,4.2103291 3.4948809,3.8442638 L 3.5053869,3.5053869 3.8442637,3.4948809 C 4.2103819,3.4835303 4.2804378,3.4560688 4.4199441,3.269215 4.4804203,3.1882134 4.484375,3.1410016 4.484375,2.5 4.484375,1.8589985 4.480425,1.8117864 4.419944,1.730785 4.2804378,1.5439313 4.2103819,1.5164695 3.8442638,1.5051191 L 3.5053869,1.4946132 3.4948809,1.1557362 C 3.4835303,0.78961803 3.4560688,0.71956231 3.269215,0.58005591 3.1882134,0.51957956 3.1410016,0.515625 2.5,0.515625 1.8589985,0.515625 1.8117864,0.51958 1.730785,0.5800559 1.5439313,0.71956231 1.5164695,0.78961803 1.5051191,1.1557362 l -0.010506,0.338877 -0.338877,0.010506 C 0.78961803,1.5164695 0.71956231,1.5439313 0.58005591,1.730785 0.51957956,1.8117864 0.515625,1.8589985 0.515625,2.5 c 0,0.6410016 0.003955,0.6882134 0.0644309,0.769215 0.13973306,0.1871572 0.20929793,0.2143081 0.5783737,0.2257375 L 1.5,3.5055297 v 0.2920759 c 0,0.3140113 0.027775,0.4256732 0.1348941,0.5423163 0.1354627,0.1475056 0.2095831,0.1599928 0.9019723,0.151955 0.5974617,-0.00694 0.6527483,-0.012365 0.7324442,-0.071933 z m 5,0 C 8.4561044,4.2803278 8.4835322,4.2103291 8.4948809,3.8442638 L 8.5053869,3.5053869 8.8442638,3.4948809 C 9.2103819,3.4835303 9.2804378,3.4560688 9.4199441,3.269215 9.4804203,3.1882134 9.484375,3.1410016 9.484375,2.5 9.484375,1.8589985 9.480425,1.8117864 9.419944,1.730785 9.2804378,1.5439313 9.2103819,1.5164695 8.8442638,1.5051191 L 8.5053869,1.4946132 8.4948809,1.1557362 C 8.4835303,0.78961803 8.4560688,0.71956231 8.269215,0.58005591 8.1882134,0.51957956 8.1410016,0.515625 7.5,0.515625 6.8589984,0.515625 6.8117866,0.51958 6.730785,0.5800559 6.5439312,0.71956231 6.5164697,0.78961803 6.5051191,1.1557362 l -0.010506,0.338877 -0.3388768,0.010506 C 5.7896181,1.5164695 5.7195622,1.5439313 5.5800559,1.730785 5.5195797,1.8117864 5.515625,1.8589985 5.515625,2.5 c 0,0.6410016 0.00395,0.6882134 0.064431,0.769215 0.1397332,0.1871572 0.2092978,0.2143081 0.5783738,0.2257375 L 6.5,3.5055297 v 0.2920759 c 0,0.3140113 0.027774,0.4256732 0.1348941,0.5423163 0.1354628,0.1475056 0.2095831,0.1599928 0.9019725,0.151955 0.5974615,-0.00694 0.6527481,-0.012365 0.732444,-0.071933 z m 5.0000004,0 c 0.186793,-0.1396163 0.214221,-0.209615 0.22557,-0.5756803 l 0.01051,-0.3388769 0.338877,-0.010506 c 0.366118,-0.011351 0.436174,-0.038812 0.57568,-0.2256659 0.06048,-0.081002 0.06443,-0.1282134 0.06443,-0.769215 0,-0.6410015 -0.004,-0.6882136 -0.06443,-0.769215 -0.139506,-0.1868537 -0.209562,-0.2143155 -0.57568,-0.2256659 l -0.338877,-0.010506 -0.01051,-0.338877 C 13.48353,0.78961803 13.456069,0.71956231 13.269215,0.58005591 13.188213,0.51957956 13.141002,0.515625 12.5,0.515625 c -0.641002,0 -0.688213,0.003955 -0.769215,0.0644309 -0.186854,0.1395064 -0.214315,0.20956212 -0.225666,0.5756803 l -0.01051,0.338877 -0.338877,0.010506 c -0.366118,0.01135 -0.436174,0.038812 -0.57568,0.2256659 -0.06048,0.081001 -0.06443,0.1282135 -0.06443,0.769215 0,0.6410016 0.004,0.6882134 0.06443,0.769215 0.139733,0.1871572 0.209298,0.2143081 0.578374,0.2257375 L 11.5,3.5055297 v 0.2920759 c 0,0.3140113 0.02777,0.4256732 0.134894,0.5423163 0.135463,0.1475056 0.209583,0.1599928 0.901973,0.151955 0.597461,-0.00694 0.652748,-0.012365 0.732444,-0.071933 z"
       id="path825"
       inkscape:connector-curvature="0" />
    <path
       style="fill:#e5f1fe;stroke-width:0.000357143"
       d="M 2,13.5 V 13 H 1.5 1 V 12.5 12 H 1.5 2 V 11.5 11 H 2.5 3 V 11.5 12 H 3.5 4 V 12.5 13 H 3.5 3 V 13.5 14 H 2.5 2 Z m 5,0 V 13 H 6.5 6 V 12.5 12 H 6.5 7 V 11.5 11 H 7.5 8 V 11.5 12 H 8.5 9 V 12.5 13 H 8.5 8 V 13.5 14 H 7.5 7 Z m 5,0 V 13 H 11.5 11 V 12.5 12 H 11.5 12 V 11.5 11 H 12.5 13 V 11.5 12 H 13.5 14 V 12.5 13 H 13.5 13 V 13.5 14 H 12.5 12 Z M 2,8.5 V 8 H 1.5 1 V 7.5 7 H 1.5 2 V 6.5 6 H 2.5 3 V 6.5 7 H 3.5 4 V 7.5 8 H 3.5 3 V 8.5 9 H 2.5 2 Z m 10,0 V 8 H 11.5 11 V 7.5 7 H 11.5 12 V 6.5 6 H 12.5 13 V 6.5 7 H 13.5 14 V 7.5 8 H 13.5 13 V 8.5 9 H 12.5 12 Z M 2,3.5 V 3 H 1.5 1 V 2.5 2 H 1.5 2 V 1.5 1 H 2.5 3 V 1.5 2 H 3.5 4 V 2.5 3 H 3.5 3 V 3.5 4 H 2.5 2 Z m 5,0 V 3 H 6.5 6 V 2.5 2 H 6.5 7 V 1.5 1 H 7.5 8 V 1.5 2 H 8.5 9 V 2.5 3 H 8.5 8 V 3.5 4 H 7.5 7 Z m 5,0 V 3 H 11.5 11 V 2.5 2 H 11.5 12 V 1.5 1 H 12.5 13 V 1.5 2 H 13.5 14 V 2.5 3 H 13.5 13 V 3.5 4 H 12.5 12 Z"
       id="path823"
       inkscape:connector-curvature="0" />
    <path
       style="fill:#fdfe00;stroke-width:0.000357143"
       d="M 7.1957081,8.9526841 C 6.4375322,8.7879641 5.906005,8.0237866 6.0316178,7.2790697 6.1674231,6.4739247 6.9438894,5.9005528 7.7209303,6.0316178 8.5260753,6.1674231 9.0994472,6.9438894 8.9683822,7.7209303 8.8652066,8.3326256 8.3934891,8.8261356 7.7896816,8.954085 7.5349522,9.0080634 7.4496834,9.0078622 7.1957081,8.952685 Z"
       id="path821"
       inkscape:connector-curvature="0" />
    <path
       style="fill:#000000;stroke-width:0.000357143"
       d="M 1.796875,14.456799 C 1.5709071,14.354167 1.5,14.196722 1.5,13.797606 V 13.50553 L 1.1584296,13.494953 C 0.78935384,13.483523 0.71978897,13.456372 0.58005591,13.269215 0.51957956,13.188213 0.515625,13.141002 0.515625,12.5 c 0,-0.641002 0.003955,-0.688213 0.0644309,-0.769215 0.1395064,-0.186854 0.20956212,-0.214315 0.5756803,-0.225666 l 0.338877,-0.01051 0.010506,-0.338877 c 0.01135,-0.366118 0.038812,-0.436174 0.2256659,-0.57568 0.081001,-0.06048 0.1282135,-0.06443 0.769215,-0.06443 0.6410016,0 0.6882134,0.004 0.769215,0.06443 0.1868538,0.139506 0.2143153,0.209562 0.2256659,0.57568 l 0.010506,0.338877 0.3388769,0.01051 c 0.3661181,0.01135 0.436174,0.03881 0.5756803,0.225666 0.060476,0.081 0.064431,0.128213 0.064431,0.769215 0,0.641002 -0.00395,0.688213 -0.064431,0.769215 -0.1395063,0.186854 -0.2095622,0.214315 -0.5756803,0.225666 l -0.3388769,0.01051 -0.010506,0.338877 c -0.011349,0.366065 -0.038776,0.436064 -0.2255703,0.57568 -0.079696,0.05957 -0.1349825,0.065 -0.7324442,0.07193 -0.4918853,0.0057 -0.6686338,-0.0027 -0.7399914,-0.03508 z M 3,13.5 V 13 H 3.5 4 V 12.5 12 H 3.5 3 V 11.5 11 H 2.5 2 V 11.5 12 H 1.5 1 V 12.5 13 H 1.5 2 V 13.5 14 H 2.5 3 Z m 3.796875,0.956799 C 6.5709072,14.354167 6.5,14.196722 6.5,13.797606 V 13.50553 L 6.1584297,13.494953 C 5.7893537,13.483523 5.7197891,13.456372 5.5800559,13.269215 5.5195797,13.188213 5.515625,13.141002 5.515625,12.5 c 0,-0.641002 0.00395,-0.688213 0.064431,-0.769215 0.1395063,-0.186854 0.2095622,-0.214315 0.5756804,-0.225666 l 0.3388768,-0.01051 0.010506,-0.338877 c 0.011351,-0.366118 0.038812,-0.436174 0.2256659,-0.57568 0.081002,-0.06048 0.1282134,-0.06443 0.769215,-0.06443 0.6410016,0 0.6882134,0.004 0.769215,0.06443 0.1868537,0.139506 0.2143153,0.209562 0.2256659,0.57568 l 0.010506,0.338877 0.3388769,0.01051 c 0.3661181,0.01135 0.436174,0.03881 0.5756803,0.225666 0.060476,0.081 0.064431,0.128213 0.064431,0.769215 0,0.641002 -0.00395,0.688213 -0.064431,0.769215 -0.1395063,0.186854 -0.2095622,0.214315 -0.5756803,0.225666 l -0.3388769,0.01051 -0.010506,0.338877 c -0.011349,0.366065 -0.038777,0.436064 -0.2255703,0.57568 -0.079696,0.05957 -0.1349825,0.065 -0.732444,0.07193 -0.4918854,0.0057 -0.6686341,-0.0027 -0.7399916,-0.03508 z M 8,13.5 V 13 H 8.5 9 V 12.5 12 H 8.5 8 V 11.5 11 H 7.5 7 V 11.5 12 H 6.5 6 V 12.5 13 H 6.5 7 V 13.5 14 H 7.5 8 Z m 3.796875,0.956799 C 11.570907,14.354167 11.5,14.196722 11.5,13.797606 V 13.50553 l -0.34157,-0.01058 c -0.369076,-0.01143 -0.438641,-0.03858 -0.578374,-0.225738 -0.06048,-0.081 -0.06443,-0.128213 -0.06443,-0.769215 0,-0.641002 0.004,-0.688213 0.06443,-0.769215 0.139506,-0.186854 0.209562,-0.214315 0.57568,-0.225666 l 0.338877,-0.01051 0.01051,-0.338877 c 0.01135,-0.366118 0.03881,-0.436174 0.225666,-0.57568 0.081,-0.06048 0.128213,-0.06443 0.769215,-0.06443 0.641002,0 0.688213,0.004 0.769215,0.06443 0.186854,0.139506 0.214315,0.209562 0.225666,0.57568 l 0.01051,0.338877 0.338877,0.01051 c 0.366118,0.01135 0.436174,0.03881 0.57568,0.225666 0.06048,0.081 0.06443,0.128213 0.06443,0.769215 0,0.641002 -0.004,0.688213 -0.06443,0.769215 -0.139506,0.186854 -0.209562,0.214315 -0.57568,0.225666 l -0.338877,0.01051 -0.01051,0.338877 c -0.01135,0.366065 -0.03878,0.436064 -0.22557,0.57568 -0.0797,0.05957 -0.134983,0.065 -0.732444,0.07193 -0.491886,0.0057 -0.668635,-0.0027 -0.739992,-0.03508 z M 13,13.5 V 13 H 13.5 14 V 12.5 12 H 13.5 13 V 11.5 11 H 12.5 12 V 11.5 12 H 11.5 11 V 12.5 13 H 11.5 12 V 13.5 14 H 12.5 13 Z M 1.796875,9.4567988 C 1.5709071,9.3541669 1.5,9.1967219 1.5,8.7976056 V 8.5055297 L 1.1584296,8.4949525 C 0.78935384,8.4835231 0.71978897,8.4563722 0.58005591,8.269215 0.51957956,8.1882134 0.515625,8.1410016 0.515625,7.5 0.515625,6.8589984 0.51958,6.8117866 0.5800559,6.730785 0.71956231,6.5439312 0.78961803,6.5164697 1.1557362,6.5051191 l 0.338877,-0.010506 0.010506,-0.3388768 C 1.5164695,5.7896181 1.5439313,5.7195622 1.730785,5.5800559 1.8117864,5.5195797 1.8589985,5.515625 2.5,5.515625 c 0.6410016,0 0.6882134,0.00395 0.769215,0.064431 0.1868538,0.1395063 0.2143153,0.2095622 0.2256659,0.5756804 l 0.010506,0.3388768 0.3388769,0.010506 c 0.3661181,0.011351 0.436174,0.038812 0.5756803,0.2256659 0.060476,0.081002 0.064431,0.1282134 0.064431,0.769215 0,0.6410016 -0.00395,0.6882134 -0.064431,0.769215 C 4.2804378,8.4560687 4.2103819,8.4835303 3.8442638,8.4948809 L 3.5053869,8.5053869 3.4948809,8.8442638 C 3.4835322,9.2103291 3.4561044,9.2803278 3.2693106,9.4199441 3.1896147,9.4795116 3.1343281,9.4849412 2.5368664,9.4918769 2.0449811,9.4975872 1.8682326,9.4892084 1.796875,9.4567988 Z M 3,8.5 V 8 H 3.5 4 V 7.5 7 H 3.5 3 V 6.5 6 H 2.5 2 V 6.5 7 H 1.5 1 V 7.5 8 H 1.5 2 V 8.5 9 H 2.5 3 Z M 7.0625,9.4514053 C 6.3323191,9.2945809 5.7007041,8.6571794 5.5468547,7.921875 5.2497344,6.5018228 6.5018228,5.2497344 7.921875,5.5468547 8.6647875,5.7022959 9.2977041,6.3352125 9.4531453,7.078125 9.7513347,8.5032863 8.4878991,9.7575447 7.0625,9.4514053 Z M 7.7896816,8.954085 C 8.3934891,8.8261356 8.8652066,8.3326256 8.9683822,7.7209303 9.0994472,6.9438894 8.5260753,6.1674231 7.7209303,6.0316178 6.9438894,5.9005528 6.1674231,6.4739247 6.0316178,7.2790697 5.906005,8.0237866 6.4375322,8.7879641 7.1957081,8.9526841 c 0.2539753,0.055178 0.3392441,0.055379 0.5939735,0.0014 z M 11.796875,9.4567988 C 11.570907,9.3541669 11.5,9.1967219 11.5,8.7976056 V 8.5055297 L 11.15843,8.4949525 C 10.789354,8.4835231 10.719789,8.4563722 10.580056,8.269215 10.51958,8.1882134 10.515625,8.1410016 10.515625,7.5 c 0,-0.6410016 0.004,-0.6882134 0.06443,-0.769215 0.139506,-0.1868538 0.209562,-0.2143153 0.57568,-0.2256659 l 0.338877,-0.010506 0.01051,-0.3388768 c 0.01135,-0.3661182 0.03881,-0.4361741 0.225666,-0.5756804 0.081,-0.060476 0.128213,-0.064431 0.769215,-0.064431 0.641002,0 0.688213,0.00395 0.769215,0.064431 0.186854,0.1395063 0.214315,0.2095622 0.225666,0.5756804 l 0.01051,0.3388768 0.338877,0.010506 c 0.366118,0.011351 0.436174,0.038812 0.57568,0.2256659 0.06048,0.081002 0.06443,0.1282134 0.06443,0.769215 0,0.6410016 -0.004,0.6882134 -0.06443,0.769215 -0.139506,0.1868537 -0.209562,0.2143153 -0.57568,0.2256659 l -0.338877,0.010506 -0.01051,0.3388769 c -0.01135,0.3660653 -0.03878,0.436064 -0.22557,0.5756803 -0.0797,0.059567 -0.134983,0.064997 -0.732444,0.071933 -0.491886,0.00571 -0.668635,-0.00267 -0.739992,-0.035078 z M 13,8.5 V 8 H 13.5 14 V 7.5 7 H 13.5 13 V 6.5 6 H 12.5 12 V 6.5 7 H 11.5 11 V 7.5 8 H 11.5 12 V 8.5 9 H 12.5 13 Z M 1.796875,4.4567987 C 1.5709071,4.3541669 1.5,4.1967219 1.5,3.7976056 V 3.5055297 L 1.1584296,3.4949525 C 0.78935384,3.4835231 0.71978897,3.4563722 0.58005591,3.269215 0.51957956,3.1882134 0.515625,3.1410016 0.515625,2.5 0.515625,1.8589985 0.51958,1.8117864 0.5800559,1.730785 0.71956231,1.5439313 0.78961803,1.5164695 1.1557362,1.5051191 l 0.338877,-0.010506 0.010506,-0.338877 C 1.5164695,0.78961803 1.5439313,0.71956231 1.730785,0.58005591 1.8117864,0.51957956 1.8589985,0.515625 2.5,0.515625 c 0.6410016,0 0.6882134,0.003955 0.769215,0.0644309 0.1868538,0.1395064 0.2143153,0.20956212 0.2256659,0.5756803 l 0.010506,0.338877 0.3388769,0.010506 c 0.3661181,0.01135 0.436174,0.038812 0.5756803,0.2256659 0.060476,0.081001 0.064431,0.1282135 0.064431,0.769215 0,0.6410016 -0.00395,0.6882134 -0.064431,0.769215 C 4.2804378,3.4560688 4.2103819,3.4835303 3.8442638,3.4948809 L 3.5053869,3.5053869 3.4948809,3.8442638 C 3.4835322,4.2103291 3.4561044,4.2803278 3.2693106,4.4199441 3.1896147,4.4795116 3.1343281,4.4849413 2.5368664,4.4918769 2.0449811,4.4975872 1.8682326,4.4892084 1.796875,4.4567987 Z M 3,3.5 V 3 H 3.5 4 V 2.5 2 H 3.5 3 V 1.5 1 H 2.5 2 V 1.5 2 H 1.5 1 V 2.5 3 H 1.5 2 V 3.5 4 H 2.5 3 Z M 6.796875,4.4567987 C 6.5709072,4.3541669 6.5,4.1967219 6.5,3.7976056 V 3.5055297 L 6.1584297,3.4949525 C 5.7893537,3.4835231 5.7197891,3.4563722 5.5800559,3.269215 5.5195797,3.1882134 5.515625,3.1410016 5.515625,2.5 c 0,-0.6410015 0.00395,-0.6882136 0.064431,-0.769215 C 5.7195622,1.5439313 5.7896181,1.5164695 6.1557363,1.5051191 l 0.3388768,-0.010506 0.010506,-0.338877 C 6.5164697,0.78961803 6.5439312,0.71956231 6.730785,0.58005591 6.8117866,0.51957956 6.8589984,0.515625 7.5,0.515625 c 0.6410016,0 0.6882134,0.003955 0.769215,0.0644309 0.1868537,0.1395064 0.2143153,0.20956212 0.2256659,0.5756803 l 0.010506,0.338877 0.3388769,0.010506 c 0.3661181,0.01135 0.436174,0.038812 0.5756803,0.2256659 0.060476,0.081001 0.064431,0.1282135 0.064431,0.769215 0,0.6410016 -0.00395,0.6882134 -0.064431,0.769215 C 9.2804378,3.4560688 9.2103819,3.4835303 8.8442638,3.4948809 l -0.3388769,0.010506 -0.010506,0.3388769 c -0.011349,0.3660653 -0.038777,0.436064 -0.2255703,0.5756803 -0.079696,0.059567 -0.1349825,0.064997 -0.732444,0.071933 -0.4918853,0.00571 -0.6686341,-0.00267 -0.7399916,-0.035078 z M 8,3.5 V 3 H 8.5 9 V 2.5 2 H 8.5 8 V 1.5 1 H 7.5 7 V 1.5 2 H 6.5 6 V 2.5 3 H 6.5 7 V 3.5 4 H 7.5 8 Z m 3.796875,0.9567987 C 11.570907,4.3541669 11.5,4.1967219 11.5,3.7976056 V 3.5055297 L 11.15843,3.4949525 C 10.789354,3.4835231 10.719789,3.4563722 10.580056,3.269215 10.51958,3.1882134 10.515625,3.1410016 10.515625,2.5 c 0,-0.6410015 0.004,-0.6882136 0.06443,-0.769215 0.139506,-0.1868537 0.209562,-0.2143155 0.57568,-0.2256659 l 0.338877,-0.010506 0.01051,-0.338877 c 0.01135,-0.36611817 0.03881,-0.43617389 0.225666,-0.57568029 0.081,-0.0604763 0.128213,-0.0644309 0.769215,-0.0644309 0.641002,0 0.688213,0.003955 0.769215,0.0644309 0.186854,0.1395064 0.214315,0.20956212 0.225666,0.57568029 l 0.01051,0.338877 0.338877,0.010506 c 0.366118,0.01135 0.436174,0.038812 0.57568,0.2256659 0.06048,0.081001 0.06443,0.1282135 0.06443,0.769215 0,0.6410016 -0.004,0.6882134 -0.06443,0.769215 -0.139506,0.1868538 -0.209562,0.2143153 -0.57568,0.2256659 l -0.338877,0.010506 -0.01051,0.3388769 c -0.01135,0.3660653 -0.03878,0.436064 -0.22557,0.5756803 -0.0797,0.059567 -0.134983,0.064997 -0.732444,0.071933 -0.491886,0.00571 -0.668634,-0.00267 -0.739992,-0.035078 z M 13,3.5 V 3 H 13.5 14 V 2.5 2 H 13.5 13 V 1.5 1 H 12.5 12 V 1.5 2 H 11.5 11 V 2.5 3 H 11.5 12 V 3.5 4 h 0.5 0.5 z"
       id="path819"
       inkscape:connector-curvature="0" />
  </g>
</svg>
