<?xml version="1.0" encoding="UTF-8" standalone="no"?>
<!-- Created with Inkscape (http://www.inkscape.org/) -->

<svg
   version="1.1"
   id="svg2"
   width="1600"
   height="1600"
   viewBox="0 0 1600 1600"
   sodipodi:docname="lineart_scene.svg"
   inkscape:version="1.2.2 (732a01da63, 2022-12-09)"
   xmlns:inkscape="http://www.inkscape.org/namespaces/inkscape"
   xmlns:sodipodi="http://sodipodi.sourceforge.net/DTD/sodipodi-0.dtd"
   xmlns="http://www.w3.org/2000/svg"
   xmlns:svg="http://www.w3.org/2000/svg"
   xmlns:rdf="http://www.w3.org/1999/02/22-rdf-syntax-ns#"
   xmlns:cc="http://creativecommons.org/ns#"
   xmlns:dc="http://purl.org/dc/elements/1.1/">
  <metadata
     id="metadata8">
    <rdf:RDF>
      <cc:Work
         rdf:about="">
        <dc:format>image/svg+xml</dc:format>
        <dc:type
           rdf:resource="http://purl.org/dc/dcmitype/StillImage" />
      </cc:Work>
    </rdf:RDF>
  </metadata>
  <defs
     id="defs6" />
  <sodipodi:namedview
     pagecolor="#808080"
     bordercolor="#666666"
     borderopacity="1"
     objecttolerance="10"
     gridtolerance="10"
     guidetolerance="10"
     inkscape:pageopacity="0"
     inkscape:pageshadow="2"
     inkscape:window-width="1993"
     inkscape:window-height="1009"
     id="namedview4"
     showgrid="false"
     inkscape:zoom="0.5"
     inkscape:cx="253"
     inkscape:cy="46"
     inkscape:window-x="-8"
     inkscape:window-y="-8"
     inkscape:window-maximized="1"
     inkscape:current-layer="LINEART_SCENE"
     inkscape:showpageshadow="0"
     inkscape:pagecheckerboard="true"
     inkscape:deskcolor="#d1d1d1" />
  <g
     id="LINEART_SCENE"
     transform="matrix(100,0,0,100,0,4.9999997e-5)"
     style="stroke-width:0.0114286">
    <path
       style="fill:none;stroke-width:0.000357143"
       d="M 0,8 V 0 h 8 8 v 8 8 H 8 0 Z m 8.2730244,7.390819 c 0.4082247,-0.07221 0.98244,-0.270156 1.1951672,-0.412007 0.059849,-0.03991 0.1206006,-0.07256 0.1350031,-0.07256 0.014403,0 0.1552787,-0.09047 0.3130584,-0.201038 0.5489679,-0.384715 1.0728849,-1.014501 1.3210719,-1.588024 L 11.288036,13 h 0.357214 c 1.103443,0 2.147689,-0.294315 2.747711,-0.774427 0.107662,-0.08615 0.25088,-0.246111 0.342169,-0.382179 C 15.021983,11.415833 15,11.77631 15,7.5 15,3.22369 15.021983,3.5841672 14.73513,3.1566059 14.55379,2.8863141 14.313495,2.6809821 13.971086,2.5037299 13.30549,2.159176 12.52464,2 11.5,2 10.47536,2 9.6945097,2.159176 9.0289138,2.5037299 8.686505,2.6809821 8.4462103,2.8863141 8.2648703,3.1566059 7.9893797,3.5672312 8.0000128,3.4702244 7.9999075,5.5739009 l -9.37e-5,1.8479741 -0.4675604,0.0066 C 7.2664141,7.432225 6.9462497,7.456833 6.7901584,7.485509 6.5199109,7.535156 5.9165725,7.7534434 5.6718738,7.8901037 c -0.06875,0.038396 -0.18125,0.1013306 -0.25,0.1398547 C 5.0510631,8.2377419 4.3801469,8.9050056 4.1914969,9.2536363 4.1507269,9.32898 4.0831272,9.4539063 4.0412753,9.53125 3.8883244,9.8139081 3.6901997,10.365188 3.6425766,10.640625 c -0.031513,0.182265 -0.048663,0.475496 -0.048728,0.833167 -9.37e-5,0.480398 0.010137,0.595807 0.078896,0.890625 0.043448,0.186289 0.1009881,0.394958 0.1278678,0.463708 0.3681897,0.941723 1.1742647,1.816761 2.0549903,2.230801 0.3364803,0.158184 0.4154163,0.184992 0.831896,0.282527 0.3372003,0.07897 0.4547346,0.09171 0.859375,0.09319 0.2797853,0.001 0.572514,-0.01665 0.7261493,-0.04382 z M 4.7233256,6.9107441 C 5.8243259,6.62147 6.6495772,5.7817472 6.9278234,4.6675878 c 0.074223,-0.2972056 0.074223,-1.03797 0,-1.3351756 C 6.6497081,2.2187762 5.8387634,1.392582 4.7233256,1.0864593 4.3793891,0.9920687 3.6206109,0.9920687 3.2766744,1.0864593 2.1612366,1.392582 1.350292,2.2187762 1.0721766,3.3324122 c -0.0742231,0.2972056 -0.0742231,1.03797 0,1.3351756 0.2968794,1.1887713 1.2139043,2.0604803 2.4072475,2.2882909 0.3099237,0.059165 0.9329737,0.036557 1.2439015,-0.045135 z"
       id="path825"
       inkscape:connector-curvature="0" />
    <path
       style="fill:#fee532;stroke-width:0.000357143"
       d="M 6.6875,15.341453 C 6.2710203,15.243918 6.1920844,15.21711 5.8556041,15.058926 4.9748784,14.644886 4.1688034,13.769848 3.8006138,12.828125 c -0.02688,-0.06875 -0.08442,-0.277419 -0.1278679,-0.463708 -0.06876,-0.294818 -0.078983,-0.410227 -0.078896,-0.890625 6.25e-5,-0.357671 0.017215,-0.650902 0.048728,-0.833167 C 3.6902009,10.365188 3.8883256,9.8139081 4.0412766,9.53125 4.0831284,9.4539062 4.1507281,9.32898 4.1914981,9.2536363 4.3801481,8.9050056 5.0510644,8.2377419 5.421875,8.0299575 5.490625,7.9914334 5.603125,7.9284987 5.671875,7.8901028 5.9165738,7.7534425 6.5199122,7.535155 6.7901597,7.4855081 6.9462509,7.4568328 7.2664153,7.4322266 7.5322547,7.4284744 l 0.4675603,-0.0066 9.37e-5,-1.8479741 C 8.0000025,3.4702244 7.9893809,3.5672312 8.2648716,3.1566059 8.4462116,2.8863141 8.6865062,2.6809821 9.028915,2.5037299 9.6945097,2.159176 10.47536,2 11.5,2 c 1.02464,0 1.80549,0.159176 2.471086,0.5037299 0.342409,0.1772522 0.582704,0.3825842 0.764044,0.652876 C 15.021983,3.5841672 15,3.22369 15,7.5 c 0,4.27631 0.02198,3.915833 -0.26487,4.343394 -0.09129,0.136068 -0.234507,0.296034 -0.342169,0.382179 C 13.792939,12.705685 12.748693,13 11.64525,13 h -0.357214 l -0.05071,0.117188 c -0.248187,0.573523 -0.772104,1.203309 -1.3210719,1.588024 -0.1577797,0.110571 -0.2986559,0.201038 -0.3130584,0.201038 -0.014402,0 -0.075154,0.03265 -0.1350031,0.07256 -0.112361,0.07493 -0.4850082,0.227136 -0.7732922,0.315859 -0.3199469,0.09847 -0.6745003,0.141695 -1.1480244,0.13997 -0.4046403,-0.0015 -0.5221747,-0.01422 -0.859375,-0.09319 z m 1.359375,-0.952121 c 0.06875,-0.01178 0.1460938,-0.02465 0.171875,-0.02861 0.025781,-0.004 0.1101562,-0.02599 0.1875,-0.04897 0.077344,-0.02298 0.1476563,-0.04326 0.15625,-0.04506 0.00859,-0.0018 0.047266,-0.02085 0.085937,-0.04233 0.038672,-0.02148 0.070312,-0.02991 0.070312,-0.01874 0,0.01117 0.035156,-0.0027 0.078125,-0.03087 0.042969,-0.02815 0.078125,-0.04316 0.078125,-0.03334 0,0.0098 0.066797,-0.02811 0.1484375,-0.08428 0.081641,-0.05617 0.1531022,-0.0976 0.1588038,-0.09207 0.0057,0.0055 0.065143,-0.03397 0.1320934,-0.08777 0.06695,-0.0538 0.1287278,-0.0939 0.1372837,-0.08911 0.020322,0.01137 0.4842122,-0.449403 0.4763335,-0.473137 -0.00332,-0.01 0.041095,-0.07677 0.098688,-0.148415 0.05759,-0.07164 0.105029,-0.141954 0.105412,-0.15625 3.81e-4,-0.01429 0.04182,-0.08576 0.09207,-0.158804 0.05026,-0.07305 0.08335,-0.132812 0.07353,-0.132812 -0.0098,0 0.0052,-0.03516 0.03334,-0.07813 0.02815,-0.04297 0.04205,-0.07813 0.03087,-0.07813 -0.01118,0 -0.0027,-0.03164 0.01874,-0.07031 0.02148,-0.03867 0.04053,-0.07734 0.04233,-0.08594 0.0018,-0.0086 0.02199,-0.07891 0.04486,-0.15625 0.02287,-0.07734 0.0454,-0.16875 0.05007,-0.203125 0.0047,-0.03438 0.02063,-0.11875 0.03548,-0.1875 0.0465,-0.215305 0.01804,-0.955657 -0.0404,-1.051041 -0.0067,-0.01089 -0.02075,-0.07417 -0.03129,-0.140625 -0.01054,-0.06646 -0.0342,-0.148959 -0.05257,-0.183334 -0.01837,-0.03438 -0.03074,-0.06616 -0.02749,-0.07064 0.0033,-0.0045 -0.01575,-0.05003 -0.04223,-0.101235 -0.02648,-0.0512 -0.05004,-0.103789 -0.05237,-0.11686 C 10.293291,10.118614 10.1991,9.9375002 10.122187,9.8403134 10.0731,9.7782606 10.040858,9.7195591 10.050555,9.7098616 10.073224,9.6871928 9.3605478,8.96875 9.3153919,8.96875 9.2966934,8.96875 9.2110497,8.9182122 9.1250722,8.8564434 9.039095,8.794675 8.96875,8.753445 8.96875,8.7648216 c 0,0.011376 -0.042188,-0.00936 -0.09375,-0.046072 -0.051562,-0.036716 -0.09375,-0.058406 -0.09375,-0.0482 0,0.010205 -0.045703,-0.00565 -0.1015625,-0.035229 C 8.5706019,8.5775512 8.5638244,8.57524 8.421875,8.5473925 8.3703125,8.5372772 8.2859375,8.5155481 8.234375,8.4991056 8.1828125,8.4826634 8.0914063,8.4623506 8.03125,8.4539659 7.8974891,8.4353222 7.3263487,8.4337994 7.21875,8.4518003 7.1757812,8.4589887 7.0984375,8.4718069 7.046875,8.4802853 6.7875287,8.5229294 6.7209784,8.5417997 6.4840606,8.6398722 6.2089803,8.7537419 6.0141894,8.8549312 5.9349641,8.925115 5.9077881,8.94919 5.8770321,8.960366 5.8666181,8.949952 5.8397861,8.92312 5.0868859,9.682362 5.107404,9.7155613 c 0.0093,0.015047 -0.00244,0.043414 -0.026086,0.063039 -0.084891,0.070453 -0.3756231,0.7187037 -0.4111559,0.9167597 -0.010017,0.05583 -0.026393,0.143703 -0.036391,0.195266 -0.041004,0.211464 -0.036024,0.986491 0.00728,1.133915 0.023805,0.08103 0.051764,0.189522 0.06213,0.241085 0.028771,0.143112 0.030846,0.149163 0.088384,0.257812 0.029582,0.05586 0.045435,0.101563 0.035229,0.101563 -0.010206,0 0.011485,0.04219 0.0482,0.09375 0.036716,0.05156 0.057448,0.09375 0.046072,0.09375 -0.011377,0 0.029853,0.07035 0.091622,0.156322 0.061769,0.08598 0.1123066,0.171621 0.1123066,0.19032 0,0.04515 0.7184428,0.757832 0.7411116,0.735163 0.0097,-0.0097 0.068399,0.02254 0.1304478,0.07165 0.092341,0.07308 0.3390915,0.200347 0.3709556,0.191332 0.00448,-0.0013 0.050033,0.01936 0.101235,0.04584 0.051202,0.02648 0.096758,0.04548 0.101235,0.04223 0.00448,-0.0033 0.036265,0.0091 0.07064,0.02749 0.034375,0.01837 0.1168753,0.04202 0.1833341,0.05256 0.066459,0.01054 0.12974,0.02462 0.140625,0.03129 0.010885,0.0067 0.075221,0.0209 0.1429687,0.03162 0.067748,0.01072 0.1268769,0.0232 0.1313984,0.02772 0.016332,0.01633 0.6859288,-0.0058 0.8079238,-0.0267 z m 4.422639,-2.470556 c 0.513762,-0.08762 1.007829,-0.271772 1.274222,-0.474923 0.05671,-0.04325 0.137571,-0.137434 0.179687,-0.209301 L 14,11.103884 V 7.5 3.8961163 L 13.923423,3.7654481 C 13.747307,3.4649272 13.208368,3.2118194 12.453125,3.0749344 c -0.439555,-0.079668 -1.466695,-0.079668 -1.90625,0 C 9.7916316,3.2118194 9.2526934,3.4649272 9.0765766,3.7654481 L 9,3.8961163 v 1.935514 1.9355144 l 0.3046875,0.1509715 c 0.3844662,0.1905016 0.6413616,0.3728847 0.9720595,0.6901144 0.337969,0.3242047 0.595024,0.6679482 0.789898,1.0562785 0.320012,0.6376989 0.443314,1.1892289 0.427318,1.9113959 l -0.0096,0.432832 0.344514,-0.01973 c 0.189483,-0.01085 0.477764,-0.04246 0.640625,-0.07023 z M 3.4794241,6.9558787 C 2.8391218,6.8336441 2.2811548,6.5326834 1.8413031,6.0722959 1.4652899,5.6787272 1.2067907,5.2066125 1.0721766,4.6675878 c -0.0742231,-0.2972056 -0.0742231,-1.03797 0,-1.3351756 0.2781154,-1.113636 1.08906,-1.9398302 2.2044978,-2.2459529 0.3439365,-0.0943906 1.1027147,-0.0943906 1.4466512,0 1.1154378,0.3061227 1.9263825,1.1323169 2.2044978,2.2459529 0.074223,0.2972056 0.074223,1.03797 0,1.3351756 C 6.6495772,5.7817472 5.8243259,6.62147 4.7233256,6.9107441 4.4123978,6.9924362 3.7893478,7.0150434 3.4794241,6.9558787 Z m 1.0138881,-1.03742 C 5.1806375,5.7402972 5.7404372,5.1738122 5.9259122,4.46875 5.9562025,4.353605 5.9793466,4.1505744 5.9793466,4 5.9793466,3.0992625 5.3589187,2.3082573 4.46875,2.0740879 4.353605,2.0437976 4.1505744,2.0206535 4,2.0206535 c -0.9007375,0 -1.6917427,0.6204279 -1.9259121,1.5105965 -0.068879,0.2618375 -0.068879,0.6756625 0,0.9375 0.2837932,1.0788078 1.3606412,1.7241037 2.4192243,1.4497087 z"
       id="path823"
       inkscape:connector-curvature="0" />
    <path
       style="fill:#989898;stroke-width:0.000357143"
       d="m 5.59375,13.243597 c -0.077344,-0.01566 -0.1546875,-0.03232 -0.171875,-0.03702 -0.2800784,-0.07659 -0.3040825,-0.08997 -0.3964866,-0.221066 -0.052759,-0.07485 -0.095663,-0.147913 -0.095343,-0.162362 3.219e-4,-0.01445 -0.026953,-0.06494 -0.060609,-0.112207 -0.033656,-0.04727 -0.052843,-0.08594 -0.042637,-0.08594 0.010205,0 -0.00565,-0.0457 -0.035229,-0.101562 -0.057538,-0.108649 -0.059612,-0.114701 -0.088384,-0.257813 -0.010366,-0.05156 -0.038325,-0.16005 -0.06213,-0.241084 -0.043309,-0.147425 -0.048288,-0.922452 -0.00728,-1.133916 0.01,-0.05156 0.026374,-0.139432 0.036391,-0.195265 0.035533,-0.198057 0.3262653,-0.8463069 0.4111559,-0.91676 0.023647,-0.019625 0.035385,-0.047993 0.026086,-0.063039 -0.020518,-0.033199 0.7323818,-0.7924415 0.759214,-0.7656094 0.010414,0.010414 0.04117,-7.625e-4 0.068346,-0.024837 0.079225,-0.070184 0.2740162,-0.1713732 0.5490965,-0.2852428 0.2369178,-0.098072 0.3034682,-0.1169429 0.5628144,-0.1595869 0.051563,-0.00848 0.1289063,-0.021297 0.171875,-0.028485 0.1075988,-0.018 0.6787391,-0.016478 0.8125,0.00217 0.060156,0.00838 0.1515625,0.028697 0.203125,0.04514 0.051562,0.016443 0.1359375,0.038172 0.1875,0.048287 0.1419494,0.027848 0.1487269,0.030159 0.2578125,0.087928 0.055859,0.029582 0.1015625,0.045435 0.1015625,0.035229 0,-0.010206 0.038672,0.00898 0.085937,0.042637 0.047266,0.033656 0.097759,0.06093 0.1122078,0.060609 0.014449,-3.219e-4 0.087512,0.042583 0.1623619,0.095343 0.1299937,0.091628 0.1512078,0.1297466 0.2206569,0.3964866 0.04755,0.182629 0.066854,0.3776134 0.055496,0.560534 -0.020147,0.3244545 -0.029301,0.3935545 -0.072713,0.5488405 -0.021622,0.07734 -0.038355,0.143915 -0.037184,0.147936 0.00512,0.01758 -0.193064,0.465264 -0.2215681,0.500502 -0.017379,0.02148 -0.022169,0.03906 -0.010645,0.03906 0.011524,0 -0.025256,0.0668 -0.081733,0.148438 -0.056477,0.08164 -0.1028556,0.158986 -0.1030638,0.171878 -2.187e-4,0.01289 -0.03905,0.07191 -0.086316,0.131143 -0.047266,0.05924 -0.085937,0.123688 -0.085937,0.143227 0,0.04509 -0.8620553,0.905315 -0.9072394,0.905315 -0.01848,0 -0.082066,0.03867 -0.1413018,0.08594 -0.059236,0.04726 -0.1182507,0.08611 -0.1311429,0.08631 -0.012892,2.19e-4 -0.090238,0.04659 -0.1718784,0.103064 -0.081641,0.05648 -0.1484375,0.09326 -0.1484375,0.08173 0,-0.01152 -0.017578,-0.0067 -0.039063,0.01065 -0.035238,0.0285 -0.4829194,0.226689 -0.5005016,0.221568 -0.00402,-0.0012 -0.070592,0.01522 -0.1479359,0.03643 -0.2524497,0.06922 -0.7299528,0.09744 -0.9375,0.05541 z M 13,8.3002628 C 13,6.3819931 12.995826,4.8125 12.990724,4.8125 c -0.0051,0 -0.135179,0.027393 -0.289062,0.060875 -0.402647,0.087606 -0.911924,0.1340565 -1.334515,0.1217203 l -0.367229,-0.01072 3.1e-5,2.2604306 3.2e-5,2.2604303 -0.160237,-0.2395737 C 10.63181,8.9547753 10.212658,8.5159288 9.8951278,8.2766631 9.7567097,8.1723616 9.4986756,8.0150191 9.3217194,7.9270128 L 9,7.7670012 V 5.8315587 3.8961163 L 9.076577,3.7654481 c 0.1761168,-0.3005209 0.715055,-0.5536287 1.470298,-0.6905137 0.439555,-0.079668 1.466695,-0.079668 1.90625,0 0.755243,0.136885 1.294182,0.3899928 1.470298,0.6905137 L 14,3.8961163 V 7.5 11.103884 l -0.07658,0.130668 c -0.04212,0.07187 -0.126413,0.168681 -0.187326,0.215141 -0.122594,0.09351 -0.51607,0.285863 -0.650159,0.317839 L 13,11.788026 Z M 3.671875,5.9558284 C 2.7078632,5.7716137 2.0206535,4.9576322 2.0206535,4 2.0206535,3.0992625 2.6410814,2.3082573 3.53125,2.0740879 3.646395,2.0437976 3.8494256,2.0206535 4,2.0206535 c 0.9007375,0 1.6917425,0.6204279 1.9259122,1.5105965 0.2657519,1.0102259 -0.3999638,2.1195391 -1.4326,2.3872087 -0.2712341,0.070306 -0.5764203,0.08419 -0.8214372,0.03737 z M 5,4 V 3 H 4 3 v 1 1 h 1 1 z"
       id="path821"
       inkscape:connector-curvature="0" />
    <path
       style="fill:#656565;stroke-width:0.000357143"
       d="m 7.2389513,14.416035 c -0.00452,-0.0045 -0.063651,-0.017 -0.1313985,-0.02772 -0.067748,-0.01072 -0.1320837,-0.02495 -0.1429687,-0.03162 -0.010885,-0.0067 -0.074166,-0.02075 -0.140625,-0.03129 -0.066459,-0.01054 -0.1489591,-0.0342 -0.1833341,-0.05257 -0.034375,-0.01837 -0.066163,-0.03074 -0.07064,-0.02749 -0.00448,0.0033 -0.050033,-0.01575 -0.101235,-0.04223 -0.051202,-0.02648 -0.096758,-0.04711 -0.101235,-0.04584 -0.033453,0.0095 -0.2811028,-0.120226 -0.3818762,-0.199982 -0.068055,-0.05386 -0.1292447,-0.09282 -0.1359779,-0.08658 -0.038646,0.03582 -0.7564712,-0.693079 -0.7192253,-0.730325 0.00788,-0.0079 0.062616,2.5e-4 0.1216341,0.0181 0.2943444,0.08896 0.4899406,0.117453 0.7134937,0.103954 0.3107007,-0.01876 0.4115532,-0.032 0.5656866,-0.07426 0.077344,-0.02121 0.1476562,-0.03919 0.15625,-0.03997 0.036863,-0.0033 0.4566437,-0.189279 0.4921875,-0.21803 0.021484,-0.01738 0.039063,-0.02217 0.039063,-0.01065 0,0.01152 0.066797,-0.02526 0.1484375,-0.08173 0.081641,-0.05648 0.1589859,-0.102855 0.1718784,-0.103064 0.012892,-2.18e-4 0.071907,-0.03905 0.1311429,-0.08631 0.059236,-0.04727 0.1228218,-0.08594 0.1413018,-0.08594 0.045184,0 0.9072394,-0.860227 0.9072394,-0.905315 0,-0.01954 0.038672,-0.08399 0.085937,-0.143226 0.047266,-0.05924 0.086108,-0.118251 0.086316,-0.131143 2.188e-4,-0.01289 0.046587,-0.09024 0.1030638,-0.171879 0.056477,-0.08164 0.093257,-0.148437 0.081733,-0.148437 -0.011524,0 -0.00673,-0.01758 0.010645,-0.03906 0.028504,-0.03524 0.2266891,-0.482919 0.2215681,-0.500501 -0.00117,-0.004 0.015562,-0.07059 0.037184,-0.147936 0.043412,-0.155286 0.052567,-0.224386 0.072713,-0.5488409 C 9.4326394,9.5889537 9.4053119,9.3954878 9.3147478,9.0958197 9.2969119,9.0368019 9.2887669,8.9820666 9.2966478,8.9741856 9.33517,8.9356634 10.022358,9.6148394 10.034187,9.703125 c 0.0023,0.017188 0.04314,0.080469 0.09074,0.140625 0.07467,0.09436 0.168546,0.27578 0.182079,0.35189 0.0023,0.01307 0.02589,0.06566 0.05237,0.11686 0.02648,0.0512 0.04548,0.09676 0.04223,0.101235 -0.0033,0.0045 0.0091,0.03626 0.02749,0.07064 0.01837,0.03438 0.04202,0.116875 0.05257,0.183334 0.01054,0.06646 0.02462,0.12974 0.03129,0.140625 0.05844,0.09538 0.0869,0.835736 0.0404,1.051041 -0.01485,0.06875 -0.03081,0.153125 -0.03548,0.1875 -0.0047,0.03438 -0.0272,0.125781 -0.05007,0.203125 -0.02287,0.07734 -0.04306,0.147656 -0.04486,0.15625 -0.0018,0.0086 -0.02085,0.04727 -0.04233,0.08594 -0.02148,0.03867 -0.02991,0.07031 -0.01874,0.07031 0.01117,0 -0.0027,0.03516 -0.03087,0.07813 -0.02815,0.04297 -0.04316,0.07813 -0.03334,0.07813 0.0098,0 -0.02327,0.05977 -0.07353,0.132812 -0.05026,0.07305 -0.09169,0.144509 -0.09207,0.158804 -3.81e-4,0.0143 -0.04782,0.08461 -0.105412,0.15625 -0.057593,0.07164 -0.1020031,0.138429 -0.098688,0.148415 0.00788,0.02373 -0.4560116,0.484511 -0.4763335,0.473137 -0.00856,-0.0048 -0.070334,0.03531 -0.1372837,0.08911 -0.06695,0.0538 -0.1263919,0.0933 -0.1320935,0.08777 -0.0057,-0.0055 -0.077163,0.0359 -0.1588037,0.09207 -0.081641,0.05617 -0.1484375,0.0941 -0.1484375,0.08428 0,-0.0098 -0.035156,0.0052 -0.078125,0.03334 -0.042969,0.02815 -0.078125,0.04205 -0.078125,0.03087 0,-0.01118 -0.031641,-0.0027 -0.070312,0.01874 -0.038672,0.02148 -0.077344,0.04053 -0.085937,0.04233 -0.00859,0.0018 -0.078906,0.02208 -0.15625,0.04506 -0.077344,0.02298 -0.1617188,0.04502 -0.1875,0.04897 -0.025781,0.004 -0.103125,0.01683 -0.171875,0.02861 -0.121995,0.0209 -0.7915922,0.04303 -0.8079237,0.0267 z m 4.2553817,-2.825727 c 0.01619,-0.680385 -0.09024,-1.210815 -0.356,-1.7741796 L 11,9.5228819 l -3.1e-5,-2.2692535 -3.1e-5,-2.2692534 0.367228,0.01072 C 11.789758,5.007431 12.299034,4.960981 12.701681,4.8733747 12.855564,4.8398934 12.985642,4.8125 12.990744,4.8125 12.995826,4.8125 13,6.3863728 13,8.3099953 V 11.80749 l -0.210937,0.04771 c -0.338605,0.07658 -0.593867,0.112032 -0.960938,0.13347 l -0.34375,0.02008 z M 3,4 V 3 H 4 5 V 4 5 H 4 3 Z"
       id="path819"
       inkscape:connector-curvature="0" />
  </g>
</svg>
