<?xml version="1.0" encoding="UTF-8" standalone="no"?>
<!-- Created with Inkscape (http://www.inkscape.org/) -->

<svg
   version="1.1"
   id="svg2"
   width="1600"
   height="1600"
   viewBox="0 0 1600 1600"
   sodipodi:docname="link_blend.svg"
   inkscape:version="1.2.2 (732a01da63, 2022-12-09)"
   xmlns:inkscape="http://www.inkscape.org/namespaces/inkscape"
   xmlns:sodipodi="http://sodipodi.sourceforge.net/DTD/sodipodi-0.dtd"
   xmlns="http://www.w3.org/2000/svg"
   xmlns:svg="http://www.w3.org/2000/svg"
   xmlns:rdf="http://www.w3.org/1999/02/22-rdf-syntax-ns#"
   xmlns:cc="http://creativecommons.org/ns#"
   xmlns:dc="http://purl.org/dc/elements/1.1/">
  <metadata
     id="metadata8">
    <rdf:RDF>
      <cc:Work
         rdf:about="">
        <dc:format>image/svg+xml</dc:format>
        <dc:type
           rdf:resource="http://purl.org/dc/dcmitype/StillImage" />
      </cc:Work>
    </rdf:RDF>
  </metadata>
  <defs
     id="defs6" />
  <sodipodi:namedview
     pagecolor="#808080"
     bordercolor="#666666"
     borderopacity="1"
     objecttolerance="10"
     gridtolerance="10"
     guidetolerance="10"
     inkscape:pageopacity="0"
     inkscape:pageshadow="2"
     inkscape:window-width="1993"
     inkscape:window-height="1009"
     id="namedview4"
     showgrid="false"
     inkscape:zoom="0.5"
     inkscape:cx="227"
     inkscape:cy="172"
     inkscape:window-x="-8"
     inkscape:window-y="-8"
     inkscape:window-maximized="1"
     inkscape:current-layer="LINK_BLEND"
     inkscape:showpageshadow="0"
     inkscape:pagecheckerboard="true"
     inkscape:deskcolor="#d1d1d1" />
  <g
     id="LINK_BLEND"
     transform="matrix(100,0,0,100,0,4.9999997e-5)"
     style="stroke-width:0.0114286">
    <path
       style="fill:none;stroke-width:0.000357143"
       d="M 0,8 V 0 h 8 8 v 8 8 H 8 0 Z m 5.734375,7.410077 C 6.1739012,15.264273 6.4281666,15.105949 6.7670581,14.767058 7.1125266,14.421589 7.2775347,14.153042 7.4063866,13.726563 L 7.4748375,13.5 H 8 8.5251625 l 0.068451,0.226563 c 0.1288519,0.426479 0.29386,0.695026 0.6393285,1.040495 0.3454134,0.345414 0.6073119,0.506328 1.048308,0.644097 0.231994,0.07248 0.249455,0.07322 1.71875,0.07322 1.469295,0 1.486756,-7.44e-4 1.71875,-0.07322 0.440996,-0.137769 0.702895,-0.298683 1.048308,-0.644097 0.345414,-0.345413 0.506328,-0.607312 0.644097,-1.048308 0.07028,-0.224975 0.07322,-0.273856 0.07322,-1.21875 0,-1.121439 -0.01191,-1.193674 -0.283263,-1.71875 -0.107745,-0.208485 -0.153943,-0.349752 -0.21476,-0.656707 C 14.741596,8.8892116 14.147778,7.5163981 13.58323,6.8807481 13.183845,6.4310619 12.685637,6.0714613 12.253092,5.92067 11.458175,5.6435506 10.524493,5.9661828 10.166835,6.6415725 9.985205,6.9845553 9.9533269,7.1463869 9.9546481,7.71875 c 0.00164,0.7125291 0.083095,1.0716469 0.4085849,1.801475 0.0096,0.021517 -0.05045,0.057427 -0.150185,0.08982 C 9.9231416,9.704202 9.5725447,9.9053284 9.3619706,10.098281 L 9.1581134,10.285079 8.9702784,10.128761 C 8.6534566,9.8650994 8.2478272,9.6529697 7.7493066,9.4902359 7.3260216,9.3520619 6.9907272,9.3072203 5.953125,9.2500178 4.1818516,9.1523684 3.8694134,9.1213966 3.411775,8.998095 2.8538086,8.8477625 2.7027069,8.652785 2.8724432,8.3021566 3.0014381,8.0356888 3.5104497,7.5520891 4.2759166,6.96875 L 4.3784334,6.890625 4.3319537,6.6875 C 4.30639,6.5757813 4.2713072,6.3387362 4.2539916,6.1607338 4.2366763,5.9827309 4.2181475,5.8328147 4.2128169,5.8275866 4.1792953,5.7947097 2.9162873,6.2817472 2.3862454,6.5319441 1.9220582,6.7510556 1.7766301,6.8493784 1.4428368,7.1697753 0.99032941,7.6041219 0.68282747,8.1507741 0.57551953,8.7116222 0.47973988,9.2122172 0.55520578,9.7817988 0.80040997,10.40899 l 0.0804842,0.205866 -0.10945847,0.217355 C 0.71123359,10.951757 0.629048,11.15443 0.58880113,11.282596 0.51854681,11.506321 0.515625,11.55493 0.515625,12.5 c 0,1.115619 0.0123652,1.192223 0.27491181,1.703125 0.18237613,0.354894 0.65321059,0.825272 1.00633819,1.005363 0.5513928,0.281203 0.6018705,0.287404 2.28125,0.280266 1.4121147,-0.006 1.4413628,-0.0074 1.65625,-0.07868 z m -2.9375,-1.954191 c -0.1149275,-0.05108 -0.2191788,-0.161142 -0.2635434,-0.278233 -0.037457,-0.09886 -0.046353,-0.814492 -0.00989,-0.795927 0.5725185,0.291512 1.0285706,0.492525 1.4003344,0.61722 0.2567693,0.08612 0.489109,0.156751 0.5163106,0.156947 0.027201,1.88e-4 0.095823,0.05805 0.1524925,0.128571 0.056669,0.07052 0.1469134,0.14731 0.2005425,0.170651 0.084779,0.0369 -0.033035,0.04244 -0.9024925,0.04244 -0.7656361,0 -1.0219716,-0.0098 -1.09375,-0.04167 z m 8.568231,-0.11556 C 11.484101,13.210046 11.5,13.111006 11.5,12.5 c 0,-0.341854 -0.01401,-0.626653 -0.03333,-0.677653 -0.04436,-0.117091 -0.148616,-0.227153 -0.263543,-0.278233 l -0.09375,-0.04167 0.129407,-0.0012 0.129408,-0.0012 0.156669,0.382813 c 0.281004,0.686617 0.364223,1.057018 0.288816,1.285502 -0.04809,0.145728 -0.136947,0.203736 -0.348785,0.227703 l -0.168015,0.01901 0.06823,-0.0747 z M 6.7447387,7.8586806 C 7.3798725,7.7089506 8.141635,7.1580616 8.6397181,6.488275 8.7820556,6.29687 9.1407209,5.7676903 9.4367519,5.3123203 10.174539,4.1774187 10.21079,4.1288106 10.638537,3.7008366 c 0.43518,-0.4354113 0.613231,-0.546075 0.772474,-0.4801147 0.292044,0.1209687 0.451993,0.6428675 0.637532,2.0802047 0.01652,0.1279609 0.01843,0.1296381 0.226245,0.1985021 0.115273,0.038198 0.341861,0.1314447 0.503529,0.2072154 0.161667,0.07577 0.296889,0.1341006 0.300493,0.1296225 C 13.121591,5.7831009 13.330549,4.384995 13.3778,3.8357694 13.510959,2.2879848 12.871113,1.2240955 11.524215,0.75376769 11.099753,0.60554816 10.760144,0.55014734 10.28125,0.55100106 9.3859387,0.55259713 8.6452759,0.80237966 7.7387128,1.4084513 5.7639444,2.728658 4.7097056,4.3120131 4.7127516,5.953125 c 0.00114,0.6147203 0.1522337,1.0512269 0.4902478,1.4163222 0.4234425,0.4573687 0.9577287,0.6269116 1.5417393,0.4892334 z"
       id="path827"
       inkscape:connector-curvature="0" />
    <path
       style="fill:#fefefe;stroke-width:0.000357143"
       d="m 2.5625,14.951405 c -0.7301808,-0.156824 -1.3617959,-0.794226 -1.5156453,-1.52953 -0.0637201,-0.304543 -0.0637201,-1.539207 0,-1.84375 0.1554412,-0.742912 0.7883579,-1.375829 1.5312703,-1.53127 0.3158352,-0.066083 2.5279147,-0.066083 2.84375,0 0.5693447,0.119125 1.1034769,0.532936 1.3526606,1.047953 0.070404,0.145512 0.13682,0.296208 0.1475916,0.33488 L 6.9417119,11.5 H 6.4261938 5.9106756 L 5.7325213,11.313224 C 5.4326034,10.998791 5.4392925,11 3.9991628,11 2.5847685,11 2.5810241,11.000631 2.2902738,11.287769 2.0215943,11.553111 2,11.643292 2,12.5 2,13.356708 2.0215943,13.446889 2.2902738,13.712231 2.5810241,13.999369 2.5847685,14 3.9991628,14 5.4392925,14 5.4326034,14.0012 5.7325213,13.686776 L 5.9106756,13.5 h 0.5155181 0.5155182 l -0.019585,0.07031 c -0.010772,0.03867 -0.077188,0.189367 -0.1475916,0.334879 -0.2491837,0.515017 -0.7833159,0.928828 -1.3526606,1.047953 -0.3066897,0.06417 -2.5588793,0.0628 -2.859375,-0.0017 z m 8,0 C 10.006109,14.831907 9.4714059,14.413508 9.2254644,13.905192 9.1550606,13.75968 9.0886444,13.608984 9.0778728,13.570313 L 9.0582881,13.5 h 0.5155181 0.5155178 l 0.178155,0.186776 C 10.567374,14.001185 10.56082,14 12,14 13.419781,14 13.426725,13.9988 13.712231,13.709726 13.979312,13.439286 14,13.352317 14,12.5 14,11.647683 13.979312,11.560714 13.712231,11.290274 13.426725,11.001177 13.419781,11 12,11 10.56082,11 10.567374,10.9988 10.267479,11.313224 L 10.089324,11.5 H 9.5738063 9.0582881 l 0.019585,-0.07031 c 0.010772,-0.03867 0.077188,-0.189368 0.1475916,-0.33488 0.2491837,-0.515017 0.7833153,-0.928828 1.3526603,-1.047953 0.315835,-0.066083 2.527915,-0.066083 2.84375,0 0.567426,0.118723 1.100054,0.530633 1.355077,1.047953 0.191526,0.388515 0.221963,0.581201 0.221963,1.405192 0,0.823991 -0.03044,1.016677 -0.221963,1.405192 -0.255023,0.51732 -0.787651,0.92923 -1.355077,1.047953 -0.30669,0.06417 -2.558879,0.0628 -2.859375,-0.0017 z M 5,12.5 V 12 h 3 3 V 12.5 13 H 8 5 Z"
       id="path825"
       inkscape:connector-curvature="0" />
    <path
       style="fill:#98cbfe;stroke-width:0.000357143"
       d="m 12.25,13.490555 c 0,-0.0077 0.02109,-0.07373 0.04687,-0.146805 0.06498,-0.184178 0.05901,-0.567569 -0.01325,-0.850083 -0.04887,-0.19109 -0.20283,-0.628674 -0.33102,-0.940838 -0.02203,-0.05364 0.009,-0.05605 0.603645,-0.04687 0.686685,0.01059 0.707856,0.01611 0.863692,0.224831 0.06048,0.081 0.06443,0.128213 0.06443,0.769215 0,0.641002 -0.004,0.688213 -0.06443,0.769215 -0.148798,0.199298 -0.195555,0.214271 -0.703362,0.225224 -0.25662,0.0055 -0.466582,0.0038 -0.466582,-0.0039 z M 4.0153666,12.489119 C 3.4429872,12.286951 2.5625,11.84198 2.5625,11.754886 c 0,-0.04316 0.1690149,-0.187329 0.2598469,-0.221648 0.055675,-0.02104 0.451479,-0.03279 1.078125,-0.03202 0.8518684,0.0011 0.97706,0.007 0.8964031,0.04289 C 4.6819475,11.595188 4.5776962,11.70525 4.5333316,11.822341 4.5149994,11.870731 4.5,12.071122 4.5,12.267659 c 0,0.320127 -0.0057,0.357167 -0.054687,0.355672 -0.030078,-9.18e-4 -0.2235538,-0.06131 -0.4299464,-0.134212 z m 3.39102,-1.215681 C 7.2468669,10.745453 6.8513747,10.208457 6.400095,9.9071034 L 6.2116278,9.78125 h 0.12094 c 0.3973303,0 1.0462813,0.1173234 1.4361594,0.259642 0.3961309,0.144601 0.9865672,0.515599 1.0279191,0.645888 0.010891,0.03431 -0.013488,0.1232 -0.057741,0.210529 -0.042124,0.08313 -0.107449,0.252741 -0.1451662,0.376917 L 8.5251625,11.5 H 8 7.4748375 Z M 1.1908537,9.9753009 C 1.1536897,9.8599794 1.1009797,9.6264478 1.0737202,9.4563425 1.0321808,9.1971263 1.0302928,9.1085984 1.0620572,8.9094675 1.1138402,8.58484 1.2509727,8.2428825 1.4403732,7.9660878 1.7504994,7.5128616 2.0505109,7.2649022 2.609375,6.9999091 3.0229953,6.803785 3.7423294,6.5129047 3.7623791,6.5336641 c 0.00702,0.00727 0.01765,0.042721 0.023628,0.078789 0.00848,0.051176 -0.064628,0.1272707 -0.3328819,0.3464738 C 3.0120809,7.3193259 2.5271536,7.8288956 2.4233808,8.0409994 2.2982728,8.2967109 2.2618857,8.5204131 2.3102483,8.73652 2.3432147,8.8838291 2.3804525,8.9487988 2.5110828,9.0869213 2.678127,9.2635456 2.8133986,9.3471656 3.0777597,9.4372194 L 3.234375,9.49057 2.859375,9.50774 C 2.2959398,9.5335378 1.7851507,9.7239941 1.4182748,10.045078 L 1.2584246,10.184977 Z M 14.203125,9.7911344 c -0.103125,-0.056636 -0.3,-0.1414497 -0.4375,-0.1884747 l -0.25,-0.0855 L 12.214609,9.5067272 10.913593,9.4962947 10.754225,9.12296 C 10.503059,8.5345791 10.391327,7.8562875 10.466293,7.375 c 0.06935,-0.4452162 0.261788,-0.7319606 0.603589,-0.8993666 0.482853,-0.2364903 0.916851,-0.189399 1.453417,0.1577035 0.632899,0.4094206 1.087811,1.044375 1.519777,2.1212669 0.156008,0.3889284 0.385566,1.1133331 0.358674,1.1318468 -0.0061,0.00421 -0.0955,-0.03868 -0.198625,-0.095316 z m -8.125,-2.4412035 C 5.3211247,7.0869619 5.0458003,6.2560122 5.3385719,5.117905 5.6462397,3.9218909 6.531665,2.8409442 8.0171694,1.8478149 8.6559675,1.4207483 9.1151716,1.2197987 9.7130556,1.1056881 10.79048,0.90005353 12.015476,1.3266798 12.516959,2.0821963 c 0.290166,0.4371531 0.417055,1.034227 0.357513,1.6822625 -0.04148,0.451459 -0.157353,1.2762684 -0.183307,1.3048303 -0.0112,0.012328 -0.0505,0.014534 -0.08733,0.0049 -0.05795,-0.015155 -0.07195,-0.053891 -0.104109,-0.288039 C 12.407341,4.1133897 12.260626,3.5174963 12.118495,3.2377488 11.944306,2.8949016 11.59891,2.6705732 11.280664,2.693593 10.965934,2.7163585 10.787971,2.8313589 10.278892,3.3409416 9.7693003,3.8510366 9.7487019,3.8782278 9.0035034,5.0245338 8.1389984,6.3543644 7.9748647,6.5563472 7.4388172,6.9500375 7.0838134,7.2107638 6.597035,7.4085934 6.3187744,7.4052297 6.2723547,7.4046672 6.1640625,7.3797844 6.078125,7.3499309 Z"
       id="path823"
       inkscape:connector-curvature="0" />
    <path
       style="fill:#0065fe;stroke-width:0.000357143"
       d="m 11.203125,13.456956 c 0.05156,-0.02233 0.167176,-0.04919 0.256918,-0.0597 0.212967,-0.02493 0.285651,-0.06682 0.339478,-0.195644 0.108294,-0.259185 0.01941,-0.615265 -0.415005,-1.66255 C 11.372254,11.5095 11.43695,11.5 11.650537,11.5 h 0.282224 l 0.124448,0.320313 c 0.207068,0.532961 0.260894,0.737663 0.27823,1.058117 0.01261,0.233169 0.0043,0.336217 -0.03711,0.460938 L 12.244977,13.5 11.677176,13.4988 C 11.183523,13.4977 11.121618,13.4923 11.203125,13.45698 Z M 4.265625,13.1084 C 3.7881581,12.969409 3.4504944,12.838096 2.9735009,12.60591 l -0.4796241,-0.233466 0.010874,-0.277406 c 0.00598,-0.152574 0.020255,-0.286771 0.031721,-0.298215 0.011466,-0.01145 0.102872,0.03195 0.203125,0.09643 0.3028546,0.194796 0.9078492,0.470907 1.3434395,0.613126 l 0.4111613,0.134243 0.010881,0.265625 c 0.00598,0.146094 0.010806,0.267718 0.010714,0.270275 -9.38e-5,0.0026 -0.1126672,-0.0281 -0.2501672,-0.06813 z M 8.7854566,10.66411 C 8.7434144,10.585554 8.4184028,10.351346 8.1790191,10.227103 7.6990794,9.9780078 7.2727262,9.8619213 6.6512728,9.8111306 6.3154091,9.7836809 6.1600616,9.7564478 6.03125,9.7024381 5.5993541,9.5213475 5.5981384,9.5212022 4.34375,9.5010581 3.1026615,9.4811275 3.1145204,9.4825219 2.7936223,9.3188119 2.726426,9.2845309 2.5992833,9.18018 2.5110828,9.0869213 2.3804525,8.9487988 2.3432147,8.8838291 2.3102483,8.73652 2.2618857,8.5204131 2.2982728,8.2967109 2.4233808,8.0409994 2.5271536,7.8288956 3.0120809,7.3193259 3.453125,6.9589272 3.7213784,6.7397241 3.7944881,6.6636294 3.7860069,6.6124534 3.7800294,6.5763853 3.7693969,6.54093 3.7623791,6.5336641 3.7423294,6.5129047 3.0229953,6.803785 2.609375,6.9999091 2.0505109,7.2649022 1.7504994,7.5128616 1.4403732,7.9660878 1.2509727,8.2428825 1.1138402,8.58484 1.0620572,8.9094675 c -0.031764,0.1991309 -0.029876,0.2876587 0.011663,0.546875 0.027259,0.1701053 0.08036,0.4048587 0.1180006,0.5216741 l 0.068438,0.2123914 -0.1249435,0.131359 c -0.068719,0.07225 -0.15340089,0.169411 -0.18818214,0.21592 l -0.0632386,0.08456 -0.0819344,-0.209561 C 0.6310015,9.9756859 0.53161769,9.5064331 0.53137566,9.1355616 0.53093284,8.4570759 0.87515834,7.7146706 1.4428368,7.1697753 1.7766301,6.8493784 1.9220582,6.7510556 2.3862454,6.5319441 2.9162873,6.2817472 4.1792953,5.7947097 4.2128169,5.8275866 c 0.00533,0.00523 0.023859,0.1551443 0.041175,0.3331472 C 4.2713072,6.3387362 4.30639,6.5757813 4.3319537,6.6875 L 4.3784334,6.890625 4.2759166,6.96875 C 3.5104497,7.5520891 3.0014381,8.0356888 2.8724432,8.3021566 2.7027069,8.652785 2.8538086,8.8477625 3.411775,8.998095 c 0.4576384,0.1233016 0.7700766,0.1542734 2.54135,0.2519228 1.0376022,0.057202 1.3728966,0.1020441 1.7961816,0.2402181 0.4994622,0.163041 0.9041187,0.3748379 1.2226856,0.6399521 l 0.189549,0.157744 -0.076783,0.0826 c -0.042231,0.04543 -0.1198312,0.143183 -0.1724453,0.217233 -0.086123,0.12121 -0.098773,0.128824 -0.1268565,0.07635 z M 14.730411,10.199091 14.413947,9.8825572 14.314047,9.53182 C 14.112927,8.8257144 13.714997,7.9478891 13.369422,7.4479975 12.985932,6.8932581 12.34964,6.4375125 11.822604,6.3400847 11.48844,6.2783109 10.987037,6.4465391 10.761605,6.6960644 10.342856,7.15957 10.338414,8.1532197 10.750795,9.1142891 c 0.0855,0.1992612 0.155455,0.3655428 0.155455,0.3695147 0,0.00397 -0.09726,0.01626 -0.216128,0.027308 -0.11887,0.011048 -0.23622,0.027797 -0.260777,0.037221 -0.03156,0.01211 -0.07327,-0.04688 -0.142277,-0.2012028 C 10.032047,8.776785 9.9212487,8.2005284 9.9469391,7.578125 c 0.018384,-0.4453941 0.0647,-0.6424728 0.2201039,-0.9365525 0.35677,-0.6751375 1.29111,-0.9980294 2.086049,-0.7209025 0.574089,0.2001353 1.227013,0.7430797 1.622925,1.3495556 0.333727,0.5112197 0.717733,1.3788919 0.923266,2.0861472 0.101123,0.3479722 0.278532,1.1455582 0.256936,1.1551162 -0.0051,0.0023 -0.151753,-0.138304 -0.325808,-0.312398 z M 5.9055284,7.8351306 C 5.3483184,7.6451384 4.9399003,7.1864081 4.7764694,6.5669853 4.6069091,5.9243319 4.7665637,4.9022181 5.1588984,4.1186594 5.6540337,3.1297906 6.5117506,2.2287216 7.7387128,1.4084513 8.6452759,0.80237966 9.3859387,0.55259713 10.28125,0.55100106 10.760144,0.55014731 11.099753,0.60554816 11.524215,0.75376769 12.871113,1.2240955 13.510959,2.2879848 13.3778,3.8357694 13.33055,4.384995 13.121591,5.7831009 13.07881,5.8362666 13.07521,5.8407466 12.939984,5.7824146 12.778317,5.7066441 12.616649,5.6308734 12.390061,5.5376266 12.274788,5.4994288 12.066972,5.4305647 12.065061,5.4288875 12.048543,5.3009266 11.863004,3.8635894 11.703055,3.3416906 11.411011,3.2207219 11.251768,3.1547616 11.073717,3.2654253 10.638537,3.7008366 10.21079,4.1288106 10.174539,4.1774187 9.4367519,5.3123203 8.7190841,6.4162734 8.44408,6.7810684 8.1080706,7.0748281 7.2972794,7.7836706 6.5306894,8.0482925 5.9055284,7.8351306 Z M 6.5687744,7.3721847 C 6.7901103,7.3266541 7.1906025,7.1323344 7.4388172,6.9500375 7.9748647,6.5563472 8.1389984,6.3543644 9.0035034,5.0245337 9.7487019,3.8782278 9.7693003,3.8510366 10.278892,3.3409416 10.787971,2.8313589 10.965934,2.7163585 11.280664,2.693593 c 0.318246,-0.02302 0.663642,0.2013086 0.837831,0.5441557 0.142131,0.2797475 0.288846,0.875641 0.381234,1.548405 0.03215,0.2341485 0.04615,0.2728838 0.104109,0.2880391 0.03683,0.00963 0.07613,0.00742 0.08733,-0.0049 0.02595,-0.028562 0.141826,-0.8533713 0.183307,-1.3048304 0.05954,-0.6480391 -0.06735,-1.245113 -0.357516,-1.6822661 C 12.015476,1.3266797 10.79048,0.90005353 9.7130556,1.1056881 9.1151716,1.2197987 8.6559675,1.4207483 8.0171694,1.8478149 6.531665,2.8409442 5.6462397,3.9218909 5.3385719,5.117905 5.0458003,6.2560122 5.3211247,7.0869619 6.078125,7.3499309 c 0.1846191,0.064134 0.2685534,0.067941 0.4906494,0.022254 z"
       id="path821"
       inkscape:connector-curvature="0" />
    <path
       style="fill:#323232;stroke-width:0.000357143"
       d="M 2.5023496,15.466879 C 2.2719503,15.420249 2.0595902,15.342469 1.796875,15.208488 1.4437474,15.028397 0.97291294,14.558019 0.79053681,14.203125 0.52799016,13.692223 0.515625,13.615619 0.515625,12.5 c 0,-0.944894 0.002937,-0.993775 0.0732198,-1.21875 C 0.726614,10.840254 0.88752859,10.578355 1.232942,10.232942 1.5783554,9.8875284 1.8402538,9.7266141 2.28125,9.5888447 2.5132439,9.5163688 2.530705,9.515625 4,9.515625 c 1.469295,0 1.4867559,7.438e-4 1.71875,0.07322 0.4409962,0.1377694 0.7028947,0.2986837 1.0483081,0.644097 0.3454685,0.345469 0.5104766,0.614016 0.6393285,1.040496 L 7.4748375,11.5 H 8 8.5251625 l 0.068451,-0.226562 C 8.7224654,10.846958 8.8874735,10.578411 9.232942,10.232942 9.5783553,9.8875284 9.8402538,9.7266141 10.28125,9.5888447 10.513244,9.5163688 10.530705,9.515625 12,9.515625 c 1.469295,0 1.486756,7.438e-4 1.71875,0.07322 0.440996,0.1377694 0.702895,0.2986837 1.048308,0.644097 0.345414,0.345413 0.506328,0.607312 0.644097,1.048308 0.07028,0.224975 0.07322,0.273856 0.07322,1.21875 0,0.944894 -0.0029,0.993775 -0.07322,1.21875 -0.137769,0.440996 -0.298683,0.702895 -0.644097,1.048308 -0.345413,0.345414 -0.607312,0.506328 -1.048308,0.644097 -0.231994,0.07248 -0.249455,0.07322 -1.71875,0.07322 -1.469295,0 -1.486756,-7.44e-4 -1.71875,-0.07322 C 9.8402538,15.273386 9.5783553,15.112472 9.2329419,14.767058 8.8874734,14.421589 8.7224653,14.153042 8.5936134,13.726563 L 8.5251625,13.5 H 8 7.4748375 l -0.068451,0.226563 c -0.1288519,0.426479 -0.29386,0.695026 -0.6393285,1.040495 -0.3388915,0.338891 -0.5931569,0.497215 -1.0326831,0.643019 -0.2148872,0.07129 -0.2441353,0.07267 -1.65625,0.07868 -0.790625,0.0034 -1.4997239,-0.0065 -1.5757754,-0.02187 z M 5.421875,14.953145 c 0.5693447,-0.119125 1.1034769,-0.532936 1.3526606,-1.047953 0.070404,-0.145512 0.13682,-0.296208 0.1475916,-0.334879 L 6.9417119,13.5 H 6.4261938 5.9106756 L 5.7325213,13.686776 C 5.4326034,14.001209 5.4392925,14 3.9991628,14 2.5847685,14 2.5810241,13.999369 2.2902738,13.712231 2.0215943,13.446889 2,13.356708 2,12.5 2,11.643292 2.0215943,11.553111 2.2902738,11.287769 2.5810241,11.000631 2.5847685,11 3.9991628,11 5.4392925,11 5.4326034,10.9988 5.7325212,11.313224 L 5.9106756,11.5 H 6.4261937 6.9417119 L 6.9221269,11.42969 C 6.9113556,11.391016 6.8449394,11.24032 6.7745356,11.094808 6.5253519,10.579791 5.9912197,10.16598 5.421875,10.046855 c -0.3158353,-0.066083 -2.5279148,-0.066083 -2.84375,0 -0.7429124,0.155441 -1.3758291,0.788357 -1.5312703,1.53127 -0.0637201,0.304543 -0.0637201,1.539207 0,1.84375 0.1538494,0.735304 0.7854645,1.372706 1.5156453,1.52953 0.3004957,0.06454 2.5526853,0.06591 2.859375,0.0017 z m 8,0 c 0.567426,-0.118723 1.100054,-0.530633 1.355077,-1.047953 0.191526,-0.388515 0.221963,-0.581201 0.221963,-1.405192 0,-0.823991 -0.03044,-1.016677 -0.221963,-1.405192 -0.255023,-0.51732 -0.787651,-0.92923 -1.355077,-1.047953 -0.315835,-0.066083 -2.527915,-0.066083 -2.84375,0 -0.569345,0.119125 -1.1034769,0.532936 -1.3526606,1.047953 -0.070404,0.145512 -0.13682,0.296208 -0.1475916,0.33488 L 9.0582881,11.5 h 0.5155181 0.5155178 l 0.178155,-0.186776 C 10.567374,10.998815 10.56082,11 12,11 c 1.419781,0 1.426725,0.0012 1.712231,0.290274 C 13.979312,11.560714 14,11.647683 14,12.5 14,13.352317 13.97931,13.439286 13.712231,13.709726 13.426725,13.998823 13.419781,14 12,14 10.56082,14 10.567374,14.0012 10.267479,13.686776 L 10.089324,13.5 H 9.5738063 9.0582881 l 0.019585,0.07031 c 0.010772,0.03867 0.077188,0.189367 0.1475916,0.334879 0.2459415,0.508316 0.7806443,0.926715 1.3370353,1.046213 0.300496,0.06454 2.552685,0.06591 2.859375,0.0017 z m -8.625,-1.497259 c -0.1149275,-0.05108 -0.2191788,-0.161142 -0.2635434,-0.278233 -0.044043,-0.116242 -0.044043,-1.239064 0,-1.355306 0.044223,-0.116717 0.1482981,-0.226858 0.2635434,-0.278904 0.080794,-0.03649 -0.049536,-0.04134 -0.9430747,-0.03508 -0.9924589,0.0069 -1.0405149,0.01002 -1.123069,0.07169 -0.2073554,0.154909 -0.2141816,0.180288 -0.2249111,0.836193 -0.011291,0.690233 -0.00205,0.765043 0.1110615,0.899473 0.1493228,0.17746 0.1799445,0.181832 1.2737433,0.181832 0.8593841,0 0.9868172,-0.0059 0.90625,-0.04167 z m 8.472394,-0.03594 c 0.21294,-0.159081 0.215106,-0.168346 0.215106,-0.919944 0,-0.751598 -0.0022,-0.760862 -0.215106,-0.919944 -0.08255,-0.06167 -0.130611,-0.06474 -1.123069,-0.07169 -0.893539,-0.0063 -1.023869,-0.0014 -0.943075,0.03508 0.115245,0.05205 0.219321,0.162187 0.263543,0.278904 0.01932,0.051 0.03333,0.335799 0.03333,0.677653 0,0.341854 -0.01401,0.626653 -0.03333,0.677653 -0.04422,0.116717 -0.148298,0.226858 -0.263543,0.278904 -0.08079,0.03649 0.04954,0.04134 0.943075,0.03508 0.992458,-0.0069 1.040515,-0.01002 1.123069,-0.07169 z M 11,12.5 V 12 H 8 5 v 0.5 0.5 h 3 3 z"
       id="path819"
       inkscape:connector-curvature="0" />
  </g>
</svg>
