<?xml version="1.0" encoding="UTF-8" standalone="no"?>
<!-- Created with Inkscape (http://www.inkscape.org/) -->

<svg
   version="1.1"
   id="svg2"
   width="1600"
   height="1600"
   viewBox="0 0 1600 1600"
   sodipodi:docname="linked_pick.svg"
   inkscape:version="1.4 (86a8ad7, 2024-10-11)"
   xmlns:inkscape="http://www.inkscape.org/namespaces/inkscape"
   xmlns:sodipodi="http://sodipodi.sourceforge.net/DTD/sodipodi-0.dtd"
   xmlns="http://www.w3.org/2000/svg"
   xmlns:svg="http://www.w3.org/2000/svg"
   xmlns:rdf="http://www.w3.org/1999/02/22-rdf-syntax-ns#"
   xmlns:cc="http://creativecommons.org/ns#"
   xmlns:dc="http://purl.org/dc/elements/1.1/">
  <metadata
     id="metadata8">
    <rdf:RDF>
      <cc:Work
         rdf:about="">
        <dc:format>image/svg+xml</dc:format>
        <dc:type
           rdf:resource="http://purl.org/dc/dcmitype/StillImage" />
      </cc:Work>
    </rdf:RDF>
  </metadata>
  <defs
     id="defs6" />
  <sodipodi:namedview
     pagecolor="#808080"
     bordercolor="#666666"
     borderopacity="1"
     objecttolerance="10"
     gridtolerance="10"
     guidetolerance="10"
     inkscape:pageopacity="0"
     inkscape:pageshadow="2"
     inkscape:window-width="2560"
     inkscape:window-height="1009"
     id="namedview4"
     showgrid="true"
     inkscape:zoom="0.35355339"
     inkscape:cx="708.52099"
     inkscape:cy="862.67027"
     inkscape:window-x="1912"
     inkscape:window-y="-8"
     inkscape:window-maximized="1"
     inkscape:current-layer="LINKED"
     inkscape:showpageshadow="0"
     inkscape:pagecheckerboard="true"
     inkscape:deskcolor="#d1d1d1">
    <inkscape:grid
       id="grid1"
       units="px"
       originx="0"
       originy="0"
       spacingx="100"
       spacingy="100"
       empcolor="#0099e5"
       empopacity="0.30196078"
       color="#0099e5"
       opacity="0.14901961"
       empspacing="5"
       enabled="true"
       visible="true" />
  </sodipodi:namedview>
  <g
     id="LINKED"
     transform="matrix(100,0,0,100,0,4.9999997e-5)"
     style="stroke-width:0.0114286">
    <path
       style="fill:none;stroke-width:0.000357143"
       d="M 0,8 V 0 h 2.747161 2.7471609 l 0.012911,0.7578125 c 0.011634,0.6827898 0.019958,0.7794685 0.084084,0.9765625 0.1415,0.4349057 0.3017222,0.6927802 0.641625,1.032683 0.3454687,0.3454686 0.6140165,0.5104767 1.0404956,0.6393286 L 7.5,3.4748375 V 4 4.5251625 L 7.2734375,4.5936134 C 6.8469584,4.7224653 6.5784106,4.8874734 6.2329419,5.2329419 5.8875284,5.5783553 5.7266141,5.8402537 5.5888447,6.28125 5.5163688,6.5132441 5.515625,6.530705 5.515625,8 c 0,1.469295 7.438e-4,1.4867559 0.07322,1.71875 0.1377694,0.440996 0.2986837,0.702895 0.6440972,1.048308 0.3454687,0.345469 0.6140165,0.510477 1.0404956,0.639329 L 7.5,11.474838 V 12 12.525163 l -0.2265625,0.06845 c -0.4264791,0.128852 -0.6950269,0.29386 -1.0404956,0.639329 -0.3399028,0.339903 -0.500125,0.597777 -0.641625,1.032683 -0.064126,0.197094 -0.07245,0.293773 -0.084084,0.976563 L 5.4943219,16 H 2.747161 0 Z m 7.5012231,7.554688 c 0.00109,-0.397739 0.00567,-0.435297 0.042891,-0.351563 0.05108,0.114928 0.1611422,0.219179 0.2782332,0.263543 C 7.8733466,15.485992 8.1581463,15.5 8.5,15.5 c 0.3418538,0 0.6266534,-0.01401 0.6776531,-0.03333 0.117091,-0.04436 0.2271531,-0.148616 0.2782331,-0.263543 0.037216,-0.08373 0.041798,-0.04618 0.042891,0.351563 L 9.5,16 h -1 -1 l 0.00122,-0.445312 z m 3.9915439,-0.3125 c -0.01163,-0.68279 -0.01996,-0.779469 -0.08408,-0.976563 -0.1415,-0.434906 -0.301722,-0.69278 -0.641625,-1.032683 -0.345469,-0.345469 -0.614016,-0.510477 -1.0404955,-0.639329 L 9.5,12.525163 V 12 11.474838 l 0.2265625,-0.06845 c 0.4264795,-0.128852 0.6950265,-0.29386 1.0404955,-0.639329 0.345414,-0.345413 0.506328,-0.607312 0.644097,-1.048308 0.07248,-0.2319941 0.07322,-0.249455 0.07322,-1.71875 0,-1.469295 -7.44e-4,-1.4867559 -0.07322,-1.71875 C 11.273386,5.8402538 11.112472,5.5783553 10.767058,5.2329419 10.421589,4.8874734 10.153042,4.7224653 9.7265625,4.5936134 L 9.5,4.5251625 V 4 3.4748375 l 0.2265625,-0.068451 c 0.4264795,-0.1288519 0.6950265,-0.29386 1.0404955,-0.6393286 0.339903,-0.3399028 0.500125,-0.5977773 0.641625,-1.032683 0.06413,-0.197094 0.07245,-0.2937727 0.08408,-0.9765625 L 11.505678,0 H 13.752839 16 v 8 8 H 13.752839 11.505678 Z M 7.5024462,8 c 0,-0.7682372 0.00573,-0.8777422 0.041667,-0.796875 0.05108,0.1149275 0.1611422,0.2191787 0.2782332,0.2635434 C 7.8733466,7.4859916 8.1581463,7.5 8.5,7.5 8.8418538,7.5 9.1266534,7.4859916 9.1776531,7.4666684 9.2947441,7.4223037 9.4048062,7.3180525 9.4558862,7.203125 9.4918278,7.1222578 9.4975538,7.2317628 9.4975538,8 c 0,0.7682372 -0.00573,0.8777422 -0.041668,0.796875 C 9.4048062,8.6819475 9.2947441,8.5776963 9.1776531,8.5333316 9.1266534,8.5140084 8.8418538,8.5 8.5,8.5 8.1581463,8.5 7.8733466,8.5140084 7.8223469,8.5333316 7.7052559,8.5776963 7.5951937,8.6819475 7.5441137,8.796875 7.5081722,8.8777422 7.5024462,8.7682372 7.5024462,8 Z M 7.5012231,0.4453125 7.5,0 h 1 1 L 9.49878,0.4453125 C 9.4976844,0.84305128 9.4931034,0.88060947 9.4558875,0.796875 9.4048075,0.68194747 9.2947453,0.57769619 9.1776544,0.53333162 9.0614125,0.48928881 7.93859,0.48928881 7.8223481,0.53333162 7.7052572,0.57769619 7.595195,0.68194747 7.544115,0.796875 7.5068991,0.88060947 7.5023169,0.84305128 7.5012244,0.4453125 Z"
       id="path823"
       inkscape:connector-curvature="0" />
    <path
       style="fill:#fefefe;stroke-width:0.000357143"
       d="m 1.8154795,15.427828 c 3.656e-4,-0.405906 0.015429,-0.67271 0.046312,-0.820313 0.1191253,-0.569345 0.5329359,-1.103477 1.0479531,-1.352661 0.1455119,-0.0704 0.2962078,-0.13682 0.3348797,-0.147591 l 0.070313,-0.01959 v 0.515518 0.515518 l -0.1867766,0.17816 C 2.8427104,14.569142 2.814937,14.668835 2.814937,15.421187 v 0.608203 h -0.5 -0.5 l 5.437e-4,-0.601562 z m 3.9994575,-0.0066 c 0,-0.752352 -0.027773,-0.852045 -0.3132237,-1.124318 L 5.314937,14.118715 v -0.515518 -0.515518 l 0.070312,0.01959 c 0.038672,0.01077 0.1893678,0.07719 0.3348797,0.147591 0.5150163,0.249184 0.9288283,0.783316 1.0479533,1.352661 0.03088,0.147601 0.04595,0.414407 0.04631,0.820313 l 5.45e-4,0.601556 h -0.5 -0.5 z m -2,-3.391838 v -3 h 0.5 0.5 v 3 3 h -0.5 -0.5 z M 3.0912648,10.892688 C 2.7936292,10.770263 2.6214348,10.654237 2.3889223,10.419437 2.1288957,10.156853 1.9348548,9.8004606 1.8617917,9.451265 c -0.066083,-0.3158353 -0.066083,-2.5279147 0,-2.84375 C 1.980917,6.0381703 2.3947276,5.5040381 2.9097448,5.2548544 3.0552567,5.1844506 3.2059526,5.1180344 3.2446245,5.1072628 l 0.070312,-0.019585 V 5.6031963 6.1187144 L 3.1281607,6.2968688 C 2.8137523,6.5967637 2.814937,6.5902103 2.814937,8.02939 c 0,1.4391797 -0.00118,1.4326263 0.3132237,1.7325213 L 3.314937,9.940066 v 0.513413 c 0,0.282376 -0.010547,0.513078 -0.023437,0.51267 -0.012891,-4.09e-4 -0.1029963,-0.03347 -0.2002347,-0.07346 z M 5.314937,10.455584 V 9.940066 L 5.5017133,9.7619113 C 5.816122,9.4620163 5.814937,9.4685697 5.814937,8.02939 c 0,-1.4391797 0.00118,-1.4326263 -0.3132237,-1.7325212 L 5.314937,6.1187144 V 5.6031963 5.0876781 l 0.070312,0.019585 c 0.038672,0.010772 0.1893678,0.077188 0.3348797,0.1475916 0.5150163,0.2491837 0.9288283,0.7833159 1.0479533,1.3526606 0.06608,0.3158353 0.06608,2.5279147 0,2.84375 -0.119125,0.5693447 -0.532936,1.1034777 -1.0479533,1.3526617 -0.1455119,0.0704 -0.2962078,0.13682 -0.3348797,0.147591 l -0.070312,0.01959 z m -1.5,-6.426194 v -3 h 0.5 0.5 v 3 3 h -0.5 -0.5 z M 3.0912648,2.8926865 C 2.6189795,2.6984267 2.2478845,2.3604009 2.036797,1.9321847 1.8526776,1.5586771 1.8161226,1.3437519 1.8154795,0.6309525 L 1.814937,0.02939 h 0.5 0.5 v 0.60820272 c 0,0.75235238 0.027773,0.85204498 0.3132237,1.12431858 L 3.314937,1.9400657 V 2.4534778 C 3.314937,2.7358545 3.30439,2.9665562 3.2915,2.9661483 3.2786089,2.9657405 3.1885032,2.9326825 3.0912648,2.8926865 Z M 5.314937,2.4555837 V 1.9400657 L 5.5017133,1.7619113 C 5.7871636,1.4896377 5.814937,1.3899451 5.814937,0.63759272 V 0.02939 h 0.5 0.5 L 6.814393,0.6309525 C 6.814028,1.0368584 6.798964,1.3036628 6.768081,1.451265 6.648956,2.0206098 6.235145,2.5547417 5.7201279,2.8039255 5.5746161,2.8743294 5.4239201,2.9407457 5.3852483,2.9515172 l -0.070312,0.019585 z"
       id="path821"
       inkscape:connector-curvature="0" />
    <path
       style="fill:#323232;stroke-width:0.000357143"
       d="m 1.3221704,15.271578 c 0.011634,-0.68279 0.019958,-0.779469 0.084084,-0.976563 0.1415,-0.434906 0.3017222,-0.692779 0.641625,-1.032683 0.3454687,-0.345469 0.6140165,-0.510477 1.0404956,-0.639329 l 0.226562,-0.06845 V 12.029391 11.504229 L 3.0883745,11.435777 C 2.6618954,11.306925 2.3933476,11.141918 2.0478789,10.796448 1.7024654,10.451036 1.5415511,10.189136 1.4037817,9.74814 1.3313057,9.5161459 1.3305617,9.498685 1.3305617,8.02939 c 0,-1.469295 7.437e-4,-1.4867559 0.07322,-1.71875 C 1.5415511,5.8696438 1.7024654,5.6077453 2.0478789,5.2623319 2.3933476,4.9168634 2.6618954,4.7518553 3.0883745,4.6230034 L 3.314937,4.5545525 V 4.02939 3.5042275 L 3.0883745,3.4357766 C 2.6618954,3.3069247 2.3933476,3.1419166 2.0478789,2.796448 1.7079761,2.4565452 1.5477539,2.1986707 1.4062539,1.763765 1.3421279,1.566671 1.3338039,1.4699923 1.3221704,0.7872025 L 1.3092589,0.02939 h 0.252839 0.2528391 l 5.437e-4,0.6015625 c 3.657e-4,0.4059059 0.015429,0.6727103 0.046312,0.8203125 0.1191253,0.5693448 0.532936,1.1034767 1.0479532,1.3526605 0.1455118,0.070404 0.2962078,0.1368202 0.3348797,0.1475917 l 0.070312,0.019585 V 2.4555837 1.9400657 L 3.128162,1.7619113 C 2.8427104,1.4896377 2.814937,1.3899451 2.814937,0.63759272 V 0.02939 h 0.25 0.25 l 0.00122,0.4453125 c 0.00109,0.3977388 0.00567,0.435297 0.042891,0.3515625 0.05108,-0.11492753 0.1611422,-0.21917881 0.2782331,-0.26354338 0.1162419,-0.0440428 1.2390644,-0.0440428 1.3553063,0 0.1170909,0.0443646 0.2271531,0.14861585 0.2782331,0.26354338 0.037216,0.0837345 0.041798,0.0461763 0.042891,-0.3515625 L 5.3149415,0.02939 h 0.25 0.25 v 0.60820272 c 0,0.75235238 -0.027773,0.85204498 -0.3132237,1.12431858 L 5.314937,1.9400657 v 0.515518 0.515518 L 5.385249,2.9515167 C 5.4239214,2.9407457 5.5746173,2.8743294 5.7201292,2.8039255 6.235146,2.5547417 6.648957,2.0206098 6.768082,1.451265 6.798962,1.3036628 6.814032,1.0368584 6.814392,0.6309525 L 6.814937,0.02939 H 7.067776 7.320615 L 7.307705,0.7872025 C 7.296075,1.4699923 7.287745,1.566671 7.223625,1.763765 7.082125,2.1986707 6.921903,2.4565452 6.582,2.796448 6.236531,3.1419166 5.967984,3.3069247 5.5415045,3.4357766 L 5.314937,3.5042275 V 4.02939 4.5545525 l 0.2265625,0.068451 c 0.4264795,0.1288519 0.6950265,0.29386 1.0404955,0.6393285 0.345414,0.3454134 0.506328,0.6073118 0.644097,1.0483081 0.07248,0.2319941 0.07322,0.249455 0.07322,1.71875 0,1.469295 -7.44e-4,1.4867559 -0.07322,1.71875 C 7.088323,10.189137 6.927409,10.451036 6.581995,10.796448 6.236526,11.141917 5.967979,11.306925 5.5414995,11.435777 l -0.2265625,0.06845 v 0.525162 0.525163 l 0.2265625,0.06845 c 0.4264795,0.128852 0.6950265,0.29386 1.0404955,0.639329 0.339903,0.339903 0.500125,0.597777 0.641625,1.032683 0.06413,0.197094 0.07245,0.293773 0.08408,0.976563 l 0.012915,0.757812 H 7.067776 6.814937 L 6.814393,15.427827 C 6.814028,15.021921 6.798963,14.755117 6.768083,14.607514 6.648958,14.03817 6.235147,13.504037 5.7201299,13.254853 5.5746181,13.184453 5.4239221,13.118033 5.3852503,13.107262 l -0.070312,-0.01959 v 0.515518 0.515518 l 0.1867737,0.17816 c 0.2854516,0.272273 0.313225,0.371966 0.313225,1.124318 v 0.608202 h -0.25 -0.25 l -0.00122,-0.445311 c -0.00109,-0.397739 -0.00567,-0.435297 -0.042891,-0.351563 -0.05108,0.114928 -0.1611422,0.219179 -0.2782331,0.263543 -0.051003,0.01932 -0.3358021,0.03333 -0.6776559,0.03333 -0.3418537,0 -0.6266534,-0.01401 -0.6776531,-0.03333 -0.117091,-0.04436 -0.2271532,-0.148614 -0.2782332,-0.263541 -0.037216,-0.08373 -0.041798,-0.04618 -0.042891,0.351563 l -0.00122,0.44531 h -0.25 -0.25 v -0.608203 c 0,-0.752352 0.027773,-0.852045 0.3132237,-1.124318 L 3.314937,14.118715 v -0.515518 -0.515518 l -0.070312,0.01959 c -0.038672,0.01077 -0.1893678,0.07719 -0.3348797,0.147591 -0.5150172,0.249184 -0.9288278,0.783316 -1.0479531,1.352661 -0.030883,0.147601 -0.045946,0.414407 -0.046312,0.820313 L 1.814937,16.029389 H 1.5620979 1.3092589 Z M 4.814937,12.02939 v -3 h -0.5 -0.5 v 3 3 h 0.5 0.5 z m -1.5,-1.575912 V 9.940066 L 3.1281607,9.7619113 C 2.8137523,9.4620163 2.814937,9.4685697 2.814937,8.02939 c 0,-1.4391797 -0.00118,-1.4326263 0.3132237,-1.7325212 L 3.314937,6.1187144 V 5.6031963 5.0876781 L 3.244625,5.1072631 C 3.2059526,5.1180344 3.0552567,5.1844506 2.9097448,5.2548544 2.5427239,5.4324322 2.2206929,5.7535706 2.0379848,6.1241978 1.8288073,6.5485194 1.8160223,6.6582581 1.8160223,8.02939 c 0,1.3699172 0.0129,1.4810956 0.2207747,1.902795 0.1461937,0.296572 0.4665828,0.649477 0.7263428,0.800059 0.145555,0.08438 0.47985,0.232369 0.5283597,0.233905 0.012891,4.1e-4 0.023437,-0.230295 0.023437,-0.512671 z m 2.4051922,0.350448 C 6.235146,10.554742 6.648957,10.02061 6.768082,9.451265 c 0.06608,-0.3158353 0.06608,-2.5279147 0,-2.84375 C 6.648957,6.0381703 6.235146,5.5040381 5.7201292,5.2548544 5.5746173,5.1844506 5.4239214,5.1180344 5.3852495,5.1072628 l -0.070312,-0.019585 v 0.5155181 0.5155182 l 0.1867762,0.1781543 c 0.3144088,0.299895 0.3132238,0.2933416 0.3132238,1.7325213 0,1.4391797 0.0012,1.4326263 -0.3132237,1.7325213 L 5.314937,9.940066 v 0.515518 0.515518 l 0.070312,-0.01959 c 0.038672,-0.01077 0.1893678,-0.07719 0.3348797,-0.147591 z M 3.4750151,8.6642841 C 3.6045364,8.5453378 3.7038351,8.52939 4.314937,8.52939 c 0.3418538,0 0.6266534,0.014008 0.6776531,0.033332 0.117091,0.044365 0.2271531,0.1486159 0.2782331,0.2635434 0.035942,0.080867 0.041668,-0.028638 0.041668,-0.796875 0,-0.7682372 -0.00573,-0.8777422 -0.041668,-0.796875 -0.05108,0.1149271 -0.1611421,0.2191783 -0.2782331,0.263543 -0.051,0.019323 -0.3357993,0.033332 -0.6776531,0.033332 -0.3418537,0 -0.6266534,-0.014008 -0.6776531,-0.033332 C 3.5201929,7.4516937 3.4101307,7.3474425 3.3590507,7.232515 3.3231087,7.151648 3.3173827,7.261153 3.3173827,8.02939 c 0,0.7682372 0.00573,0.8777422 0.041667,0.796875 0.022917,-0.051562 0.075101,-0.1244538 0.1159654,-0.1619809 z M 4.814937,4.02939 v -3 h -0.5 -0.5 v 3 3 h 0.5 0.5 z"
       id="path819"
       inkscape:connector-curvature="0" />
    <g
       id="SELECT_ROOT"
       transform="translate(-0.185063,0.02939)"
       style="stroke-width:0.00999994"
       inkscape:label="SELECT">
      <path
         style="fill:none;stroke-width:0.0003125"
         d="M 0,8 V 0 H 1.5 3 V 5.5 11 H 2.5 2 V 13.5 16 H 1 0 Z m 7,5.5 V 11 H 6.5 6 V 5.5 0 h 4.999759 4.999759 l -6e-6,7.95114 c -5e-6,7.169584 -0.0048,7.955943 -0.04887,8 C 15.90679,15.994996 15.445947,16 11.450893,16 H 7 Z m 5.731956,2.33115 c 0.05772,-0.02412 0.485987,-0.270544 0.9517,-0.547613 0.639025,-0.380179 0.858355,-0.5262 0.894048,-0.595223 0.107989,-0.208827 0.08817,-0.263129 -0.593329,-1.625814 -0.352344,-0.704524 -0.640625,-1.295082 -0.640625,-1.312351 0,-0.02044 0.388108,-0.0314 1.112366,-0.0314 1.218871,0 1.22559,-9.5e-4 1.336523,-0.188745 0.05964,-0.100968 0.06548,-0.32833 0.01094,-0.42634 C 15.782705,11.06615 14.278161,9.4318425 12.460148,7.4718709 8.8398978,3.5689331 9.0543606,3.7788975 8.7905972,3.8792869 8.7238725,3.9046822 8.6421919,3.9696159 8.6020594,4.0291687 L 8.53125,4.1342428 v 5.1077444 c 0,4.6722458 0.00436,5.1151218 0.051111,5.1942678 0.1030975,0.174531 0.3794844,0.252112 0.5403641,0.151679 0.036174,-0.02258 0.4466537,-0.438325 0.9121759,-0.923871 0.465522,-0.485547 0.855532,-0.88262 0.866689,-0.882384 0.01116,2.5e-4 0.322629,0.654787 0.69216,1.454556 0.369531,0.79977 0.701678,1.482333 0.738103,1.516806 0.05652,0.0535 0.184253,0.109771 0.270713,0.119273 0.01344,0.0015 0.07167,-0.01705 0.12939,-0.04116 z M 8.6477866,0.04361979 C 8.6374025,0.03323568 8.6104491,0.03212548 8.5878906,0.0411527 c -0.024929,0.0099758 -0.017524,0.01738071 0.01888,0.0188802 0.032942,0.0013569 0.0514,-0.006029 0.041016,-0.01641311 z m 0.25,0 C 8.8874025,0.03323568 8.8604491,0.03212548 8.8378906,0.0411527 c -0.024929,0.0099758 -0.017524,0.01738071 0.01888,0.0188802 0.032942,0.0013569 0.0514,-0.006029 0.041016,-0.01641311 z m 0.25,0 C 9.1374025,0.03323568 9.1104491,0.03212548 9.0878906,0.0411527 c -0.024929,0.0099758 -0.017524,0.01738071 0.01888,0.0188802 0.032942,0.0013569 0.0514,-0.006029 0.041016,-0.01641311 z"
         id="path853"
         inkscape:connector-curvature="0" />
      <path
         style="fill:#fefefe;stroke-width:0.0003125"
         d="m 12.755798,14.79119 c -0.01646,-0.03125 -0.334946,-0.717752 -0.707745,-1.525565 -0.756429,-1.639098 -0.756977,-1.63997 -1.031248,-1.641507 l -0.15743,-8.83e-4 -0.756957,0.77432 -0.7569558,0.77432 -8.563e-4,-3.9211647 -8.559e-4,-3.921165 0.073581,0.077415 c 0.040469,0.042578 0.965079,1.0399525 2.054687,2.2163875 1.089609,1.176435 2.210158,2.3858102 2.490109,2.6875002 l 0.509001,0.548527 -0.962126,0.01563 c -0.645338,0.01048 -0.982706,0.02754 -1.024627,0.05182 -0.128527,0.07443 -0.210353,0.19419 -0.225698,0.330338 -0.01438,0.127556 0.02973,0.226164 0.706744,1.579937 0.397143,0.79414 0.722079,1.449173 0.722079,1.455628 0,0.0065 -0.172266,0.114363 -0.382812,0.239795 -0.210547,0.125433 -0.413446,0.247731 -0.450887,0.271774 -0.06032,0.03874 -0.07148,0.03725 -0.098,-0.0131 z"
         id="path851"
         inkscape:connector-curvature="0" />
      <path
         style="fill:#cfcecd;stroke-width:0.0003125"
         d="m 8.5878906,0.04115269 c 0.022559,-0.0090272 0.049512,-0.007917 0.059896,0.0024671 0.010384,0.01038412 -0.00807,0.01777001 -0.041016,0.0164131 -0.036405,-0.0014995 -0.043809,-0.0089044 -0.01888,-0.0188802 z m 0.25,0 c 0.022559,-0.0090272 0.049512,-0.007917 0.059896,0.0024671 0.010384,0.01038412 -0.00807,0.01777001 -0.041016,0.0164131 -0.036405,-0.0014995 -0.043809,-0.0089044 -0.01888,-0.0188802 z m 0.25,0 c 0.022559,-0.0090272 0.049512,-0.007917 0.059896,0.0024671 0.010384,0.01038412 -0.00807,0.01777001 -0.041016,0.0164131 -0.036405,-0.0014995 -0.043809,-0.0089044 -0.01888,-0.0188802 z"
         id="path849"
         inkscape:connector-curvature="0" />
      <path
         style="fill:#000000;stroke-width:0.0003125"
         d="m 15.924116,15.976563 c 0.01556,-0.01289 0.03878,-0.0375 0.0516,-0.05469 0.01331,-0.01783 0.02353,-0.0078 0.0238,0.02344 2.81e-4,0.0304 -0.02265,0.05469 -0.05161,0.05469 -0.02865,0 -0.03936,-0.01055 -0.0238,-0.02344 z M 12.48197,15.825567 c -0.06743,-0.02308 -0.144802,-0.06921 -0.171944,-0.102512 -0.02714,-0.0333 -0.34988,-0.708827 -0.717196,-1.501174 -0.367316,-0.792347 -0.682609,-1.439322 -0.700651,-1.437721 -0.01804,0.0016 -0.412492,0.401008 -0.876554,0.887572 -0.4640625,0.486565 -0.8760522,0.900099 -0.9155328,0.918965 -0.039481,0.01887 -0.1275778,0.0343 -0.1957716,0.0343 -0.097603,0 -0.1488284,-0.02276 -0.2407172,-0.106972 L 8.546875,14.411057 8.5387853,9.2799778 c -0.00805,-5.1044381 -0.00776,-5.1316106 0.05518,-5.2334515 0.034798,-0.056305 0.1136338,-0.1262719 0.17519,-0.1554822 0.1618025,-0.07678 0.3032944,-0.040666 0.4660722,0.1189609 0.073259,0.071841 0.9469585,1.0095262 1.9415535,2.083745 0.994595,1.0742187 2.426934,2.6194622 3.182975,3.4338747 0.75604,0.8144123 1.400964,1.5216123 1.433163,1.5715563 0.04484,0.06955 0.05493,0.128471 0.04309,0.251687 -0.01298,0.135057 -0.03359,0.177494 -0.128397,0.264381 l -0.112939,0.103501 h -1.125459 c -0.733028,0 -1.125459,0.01095 -1.125459,0.0314 0,0.01727 0.288281,0.607827 0.640625,1.312351 0.710864,1.421398 0.72359,1.459106 0.558603,1.655183 -0.08428,0.100165 -1.701012,1.081767 -1.853942,1.125627 -0.0519,0.01489 -0.131736,0.008 -0.207066,-0.01774 z m 0.787983,-1.265671 c 0.229651,-0.138184 0.417547,-0.257178 0.417547,-0.264429 0,-0.0073 -0.323438,-0.660828 -0.71875,-1.452392 -0.490704,-0.982574 -0.718713,-1.471053 -0.718633,-1.539578 1.56e-4,-0.122628 0.09231,-0.280697 0.207869,-0.356487 0.07675,-0.05034 0.189824,-0.05806 1.053821,-0.07201 l 0.967851,-0.01563 -2.44674,-2.640625 C 10.687211,6.7664062 9.5316319,5.5220819 9.4649641,5.4535847 L 9.34375,5.3290441 V 9.2600238 13.191003 L 9.7877316,12.728314 C 10.8454,11.62608 10.846603,11.624987 11.001635,11.625117 c 0.26758,2.19e-4 0.289565,0.02939 0.721277,0.956747 0.215077,0.462006 0.537673,1.159523 0.716881,1.550037 0.232854,0.507416 0.338214,0.705633 0.369222,0.694632 0.02386,-0.0085 0.231286,-0.128453 0.460938,-0.266637 z m 2.706678,-6.575521 c 3.47e-4,-0.06875 0.0067,-0.093195 0.01422,-0.054323 0.0075,0.038872 0.0072,0.095122 -6.31e-4,0.125 -0.0078,0.029878 -0.01394,-0.00193 -0.01359,-0.070677 z"
         id="path837"
         inkscape:connector-curvature="0" />
    </g>
  </g>
</svg>
