<?xml version="1.0" encoding="UTF-8" standalone="no"?>
<!-- Created with Inkscape (http://www.inkscape.org/) -->

<svg
   version="1.1"
   id="svg2"
   width="1600"
   height="1600"
   viewBox="0 0 1600 1600"
   sodipodi:docname="list_length.svg"
   inkscape:version="1.4.3 (0d15f75, 2025-12-25)"
   xml:space="preserve"
   xmlns:inkscape="http://www.inkscape.org/namespaces/inkscape"
   xmlns:sodipodi="http://sodipodi.sourceforge.net/DTD/sodipodi-0.dtd"
   xmlns="http://www.w3.org/2000/svg"
   xmlns:svg="http://www.w3.org/2000/svg"
   xmlns:rdf="http://www.w3.org/1999/02/22-rdf-syntax-ns#"
   xmlns:cc="http://creativecommons.org/ns#"
   xmlns:dc="http://purl.org/dc/elements/1.1/"><metadata
     id="metadata8"><rdf:RDF><cc:Work
         rdf:about=""><dc:format>image/svg+xml</dc:format><dc:type
           rdf:resource="http://purl.org/dc/dcmitype/StillImage" /></cc:Work></rdf:RDF></metadata><defs
     id="defs6" /><sodipodi:namedview
     pagecolor="#808080"
     bordercolor="#666666"
     borderopacity="1"
     objecttolerance="10"
     gridtolerance="10"
     guidetolerance="10"
     inkscape:pageopacity="0"
     inkscape:pageshadow="2"
     inkscape:window-width="1920"
     inkscape:window-height="1009"
     id="namedview4"
     showgrid="true"
     inkscape:zoom="0.35355339"
     inkscape:cx="960.25101"
     inkscape:cy="1125.714"
     inkscape:window-x="-8"
     inkscape:window-y="-8"
     inkscape:window-maximized="1"
     inkscape:current-layer="g7"
     inkscape:showpageshadow="0"
     inkscape:pagecheckerboard="true"
     inkscape:deskcolor="#d1d1d1"><inkscape:grid
       id="grid1"
       units="px"
       originx="0"
       originy="0"
       spacingx="100"
       spacingy="100"
       empcolor="#0099e5"
       empopacity="0.30196078"
       color="#0099e5"
       opacity="0.14901961"
       empspacing="5"
       enabled="true"
       visible="true" /></sodipodi:namedview><g
     id="FIELD_AT_INDEX"
     transform="matrix(100,0,0,100,0,4.9999997e-5)"
     style="stroke-width:0.0114286"
     inkscape:label="list length"><path
       style="fill:none;stroke-width:0.000357143"
       d="M 0,8 V 0 h 8 8 v 8 8 H 8 0 Z m 13.241351,6.503325 c 1.305728,-0.652968 2.086146,-1.060485 2.139473,-1.117187 0.04617,-0.0491 0.09891,-0.12885 0.117188,-0.177235 0.0464,-0.122806 0.04631,-5.264083 -9.4e-5,-5.3865561 -0.01833,-0.048385 -0.06404,-0.12119 -0.101562,-0.1617897 -0.03753,-0.0406 -1.007274,-0.5433341 -2.154993,-1.1171875 C 11.439139,5.6422672 11.135652,5.5 11.015625,5.5 10.895598,5.5 10.592111,5.6422672 8.7898869,6.5433697 7.6421678,7.1172231 6.6724213,7.6199575 6.6348941,7.6605572 c -0.037527,0.0406 -0.08323,0.113405 -0.1015625,0.1617897 -0.046404,0.1224731 -0.046493,5.2637501 -9.38e-5,5.3865561 0.018281,0.04839 0.071015,0.12814 0.1171875,0.177234 0.053327,0.0567 0.8337453,0.46422 2.1394735,1.117188 1.9443082,0.972308 2.0647332,1.027925 2.2257262,1.027925 0.160993,0 0.281418,-0.05562 2.225726,-1.027925 z M 6.0457591,13.371837 C 6.0076297,13.263767 6.0005106,12.815628 6.0003506,10.51342 6.0001319,7.3556525 5.9785497,7.5844506 6.3055744,7.2775041 6.4657966,7.1271184 6.7066053,6.9988928 8.5873578,6.0625 l 2.1026572,-1.046875 0.263663,-0.01099 c 0.178875,-0.00746 0.30809,0.00415 0.401819,0.036084 l 0.138156,0.047075 0.01099,-1.7704594 c 0.006,-0.9737527 0.0038,-1.934889 -0.005,-2.1358585 -0.01726,-0.39405824 -0.04313,-0.46159571 -0.230409,-0.60141999 L 11.182917,0.515625 H 6 0.81708316 l -0.0862982,0.0644309 c -0.047464,0.035437 -0.1152921,0.103264 -0.15072906,0.15072668 L 0.515625,0.81707841 0.50670444,6.9163516 c -0.004906,3.3546004 -8.3125e-4,6.1445624 0.009056,6.1999154 0.0223815,0.125305 0.15376078,0.28498 0.27956531,0.339777 0.0766424,0.03338 0.60433895,0.04175 2.69547555,0.04273 l 2.6001762,0.0012 -0.045218,-0.128163 z"
       id="path855"
       inkscape:connector-curvature="0" /><g
       id="g7"
       inkscape:label="LIST"
       style="stroke-width:0.0114286"
       transform="translate(-2.4826338,-5.9999929)"><path
         style="baseline-shift:baseline;display:inline;overflow:visible;opacity:1;vector-effect:none;fill:#333333;stroke-width:0.0114286;stroke-linecap:round;stroke-linejoin:round;paint-order:markers stroke fill;enable-background:accumulate;stop-color:#000000;stop-opacity:1"
         d="M 6,5.5 A 0.50005,0.50005 0 0 0 5.5,6 V 8 A 0.50005,0.50005 0 0 0 6,8.5 h 9 A 0.50005,0.50005 0 0 0 15.5,8 V 6 A 0.50005,0.50005 0 0 0 15,5.5 Z m 0.5,1 h 8 v 1 h -8 z"
         id="path6"
         transform="translate(-0.01736611,0.999992)" /><path
         id="rect1-5"
         style="fill:#b3b3b3;stroke:#333333;stroke-width:1;stroke-linecap:round;stroke-linejoin:round;paint-order:markers stroke fill"
         d="M 5.9588752,9.9762344 H 14.958875 V 11.976235 H 5.9588752 Z" /><path
         style="baseline-shift:baseline;display:inline;overflow:visible;opacity:1;vector-effect:none;fill:#333333;stroke-width:0.0114286;stroke-linecap:round;stroke-linejoin:round;paint-order:markers stroke fill;enable-background:accumulate;stop-color:#000000;stop-opacity:1"
         d="m 5.9588751,9.4762332 a 0.50005,0.50005 0 0 0 -0.5,0.5 v 1.9999988 a 0.50005,0.50005 0 0 0 0.5,0.5 h 9.0000009 a 0.50005,0.50005 0 0 0 0.5,-0.5 V 9.9762332 a 0.50005,0.50005 0 0 0 -0.5,-0.5 z m 0.5,0.9999988 h 8.0000009 v 1 H 6.4588751 Z"
         id="path4" /><path
         style="baseline-shift:baseline;display:inline;overflow:visible;opacity:1;vector-effect:none;fill:#333333;stroke:none;stroke-width:0.0114286;stroke-linecap:round;stroke-linejoin:round;paint-order:markers stroke fill;enable-background:accumulate;stop-color:#000000;stop-opacity:1"
         d="M 6,11.5 A 0.50005,0.50005 0 0 0 5.5,12 v 2 A 0.50005,0.50005 0 0 0 6,14.5 h 9 A 0.50005,0.50005 0 0 0 15.5,14 V 12 A 0.50005,0.50005 0 0 0 15,11.5 Z m 0.5,1 h 8 v 1 h -8 z"
         id="path2"
         transform="translate(0.00263435,0.999992)" /><path
         style="baseline-shift:baseline;display:inline;overflow:visible;opacity:1;vector-effect:none;fill:#b3b3b3;stroke:none;stroke-width:0.0114286;stroke-linecap:round;stroke-linejoin:round;paint-order:markers stroke fill;enable-background:accumulate;stop-color:#000000;stop-opacity:1"
         d="m 6,12 h 9 v 2 H 6 Z"
         id="path3"
         transform="translate(0.00263435,0.999992)" /><path
         id="rect1-5-7-8"
         style="fill:#b3b3b3;stroke-width:1;stroke-linecap:round;stroke-linejoin:round;paint-order:markers stroke fill"
         d="M 5.9826337,6.9999921 H 14.982634 V 8.9999927 H 5.9826337 Z" /><path
         id="rect2"
         style="opacity:1;fill:#666666;stroke-width:1.41037;stroke-linecap:round;stroke-linejoin:round;paint-order:markers stroke fill"
         d="M 5.9626341,8.0027086 H 15.002634 V 8.9972754 H 5.9626341 Z" /><path
         id="rect1-5-7"
         style="fill:#b3b3b3;stroke-width:1;stroke-linecap:round;stroke-linejoin:round;paint-order:markers stroke fill"
         d="M 5.9588752,9.9762344 H 14.958875 V 11.976235 H 5.9588752 Z" /><path
         id="rect2-2"
         style="fill:#666666;stroke-width:1.41421;stroke-linecap:round;stroke-linejoin:round;paint-order:markers stroke fill"
         d="m 5.9626339,10.999992 h 9.0400001 v 0.999994 H 5.9626339 Z" /><path
         id="rect2-2-3"
         style="fill:#666666;stroke-width:1.41421;stroke-linecap:round;stroke-linejoin:round;paint-order:markers stroke fill"
         d="m 5.9826345,13.999992 h 9.0399995 v 0.999997 H 5.9826345 Z" /></g><g
       id="STRING_LENGTH"
       style="stroke-width:0.0114286"
       transform="translate(-0.02448911,0.0914922)"
       inkscape:label="LENGTH"><path
         style="fill:none;stroke-width:0.000357143"
         d="M 0,8 V 0 h 8 8 v 8 8 H 8 0 Z m 2,6 v -1 h 6 6 v 1 1 H 14.5 15 V 12.5 10 H 14.5 14 v 1 1 H 8 2 V 11 10 H 1.5 1 V 12.5 15 H 1.5 2 Z M 2.578125,7.6402837 C 2.9116081,7.5699572 3.1685794,7.4284947 3.4129356,7.1807209 L 3.625,6.9656906 V 7.2640953 7.5625 H 4.3300441 5.0350878 L 5.0238547,6.0703125 C 5.0131741,4.6514972 5.0092719,4.5661019 4.9444937,4.3336087 4.7396034,3.5982431 4.26438,3.2422881 3.3313091,3.1252909 2.7354844,3.0505809 1.7221003,3.1356888 1.0859375,3.3138656 L 0.96875,3.3466878 V 3.8771041 4.4075203 L 1.1009632,4.34007 C 1.7728659,3.9972909 2.9629156,3.9267113 3.3830231,4.204725 3.5229547,4.2973275 3.6232844,4.4883222 3.6243137,4.6640625 L 3.625,4.78125 3.0546875,4.7815 C 1.9435165,4.782 1.3772306,4.9107169 0.99117241,5.2505391 0.69817975,5.5084416 0.54600497,6.0049731 0.61441819,6.4798519 0.70310116,7.09543 1.1220427,7.5230922 1.765625,7.6550219 c 0.2028366,0.04158 0.5776689,0.034778 0.8125,-0.014744 z M 2.3603056,6.7020516 C 1.9458397,6.5440578 1.8716519,6.0356875 2.2246054,5.7721697 2.3619068,5.6696594 2.6380652,5.6260106 3.1526366,5.6254881 L 3.6333978,5.625 3.6178331,5.8425403 C 3.5909972,6.217605 3.4116088,6.49327 3.0850686,6.6612353 c -0.1708855,0.0879 -0.5458523,0.1090169 -0.724763,0.040816 z m 7.230536,0.9373303 C 10.315828,7.4684903 10.874181,6.7642356 10.997681,5.8649262 11.124113,4.9442612 10.888294,4.0967306 10.361397,3.578125 10.005439,3.2277684 9.5875369,3.0733693 9.078125,3.1040044 8.6035175,3.1325463 8.2526894,3.29775 7.9155156,3.6514725 L 7.75,3.8251119 V 2.646931 1.46875 H 7.046875 6.34375 V 4.515625 7.5625 H 7.046875 7.75 V 7.2593191 6.9561381 l 0.1640625,0.1716385 c 0.456505,0.4775859 1.0512563,0.6590515 1.6767791,0.5116053 z M 8.375,6.6101012 C 8.2976562,6.5850572 8.1846834,6.5233987 8.1239494,6.4730819 c -0.4982803,-0.4128128 -0.4982803,-1.7519603 0,-2.1649541 0.3135903,-0.2599156 0.8940787,-0.2318334 1.161675,0.056198 0.1929194,0.2076516 0.3070403,0.5891072 0.3070403,1.0262994 0,0.5886466 -0.1831053,1.0084497 -0.5145397,1.1796772 C 8.9172309,6.6534241 8.56957,6.6731028 8.375,6.6101012 Z m 6.671246,1.0002147 c 0.119967,-0.026156 0.292232,-0.069102 0.382812,-0.095435 L 15.59375,7.4670041 V 6.8920319 6.3170597 l -0.179687,0.1084056 c -0.299936,0.1809513 -0.561071,0.2464409 -0.976563,0.2449113 -0.430564,-0.00158 -0.630402,-0.065771 -0.866963,-0.2784604 -0.514955,-0.4629884 -0.514955,-1.539594 0,-2.0025825 0.237226,-0.2132865 0.436451,-0.2770606 0.866963,-0.277524 0.309569,-3.344e-4 0.392377,0.011162 0.5975,0.082942 0.130968,0.045831 0.310265,0.1258646 0.398437,0.1778528 l 0.160313,0.094524 V 3.8910247 3.3149212 l -0.164022,-0.048709 c -0.42013,-0.1247656 -0.661037,-0.1559078 -1.195353,-0.154525 -0.438193,0.00113 -0.579428,0.013333 -0.806292,0.069639 -0.853677,0.2118779 -1.398918,0.7149722 -1.621879,1.4965075 -0.100705,0.3529988 -0.100705,1.0725838 0,1.4255825 0.249198,0.8735032 0.913684,1.409201 1.927297,1.5537554 0.265544,0.03787 1.053076,0.00976 1.312745,-0.046856 z"
         id="path825"
         inkscape:connector-curvature="0" /><path
         style="fill:#fefefe;stroke:#000000;stroke-width:1;stroke-dasharray:none;stroke-opacity:1"
         d="M 2,12.5 V 12 h 6 6 V 12.5 13 H 8 2 Z"
         id="path823"
         inkscape:connector-curvature="0" /><path
         style="fill:#fe0000;stroke:#000000;stroke-width:1;stroke-dasharray:none;stroke-opacity:1"
         d="M 1,12.5 V 10 H 1.5 2 V 12.5 15 H 1.5 1 Z m 13,0 V 10 H 14.5 15 V 12.5 15 H 14.5 14 Z"
         id="path819"
         inkscape:connector-curvature="0" /><path
         style="fill:#fefefe;stroke:none;stroke-width:1;stroke-dasharray:none;stroke-opacity:1"
         d="M 2,12.5 V 12 h 6 6 V 12.5 13 H 8 2 Z"
         id="path823-9"
         inkscape:connector-curvature="0" /><path
         style="fill:#fe0000;stroke:none;stroke-width:1;stroke-dasharray:none;stroke-opacity:1"
         d="M 1,12.5 V 9.9999995 H 1.5 2 V 12.5 15 H 1.5 1 Z m 13,0 V 9.9999995 H 14.5 15 V 12.5 15 H 14.5 14 Z"
         id="path819-2"
         inkscape:connector-curvature="0" /></g></g></svg>
