<?xml version="1.0" encoding="UTF-8" standalone="no"?>
<!-- Created with Inkscape (http://www.inkscape.org/) -->

<svg
   version="1.1"
   id="svg2"
   width="1600"
   height="1600"
   viewBox="0 0 1600 1600"
   sodipodi:docname="load_factory.svg"
   inkscape:version="1.2.2 (732a01da63, 2022-12-09)"
   xmlns:inkscape="http://www.inkscape.org/namespaces/inkscape"
   xmlns:sodipodi="http://sodipodi.sourceforge.net/DTD/sodipodi-0.dtd"
   xmlns="http://www.w3.org/2000/svg"
   xmlns:svg="http://www.w3.org/2000/svg"
   xmlns:rdf="http://www.w3.org/1999/02/22-rdf-syntax-ns#"
   xmlns:cc="http://creativecommons.org/ns#"
   xmlns:dc="http://purl.org/dc/elements/1.1/">
  <metadata
     id="metadata8">
    <rdf:RDF>
      <cc:Work
         rdf:about="">
        <dc:format>image/svg+xml</dc:format>
        <dc:type
           rdf:resource="http://purl.org/dc/dcmitype/StillImage" />
      </cc:Work>
    </rdf:RDF>
  </metadata>
  <defs
     id="defs6" />
  <sodipodi:namedview
     pagecolor="#808080"
     bordercolor="#666666"
     borderopacity="1"
     objecttolerance="10"
     gridtolerance="10"
     guidetolerance="10"
     inkscape:pageopacity="0"
     inkscape:pageshadow="2"
     inkscape:window-width="1993"
     inkscape:window-height="1009"
     id="namedview4"
     showgrid="false"
     inkscape:zoom="0.5"
     inkscape:cx="257"
     inkscape:cy="324"
     inkscape:window-x="-8"
     inkscape:window-y="-8"
     inkscape:window-maximized="1"
     inkscape:current-layer="LOAD_FACTORY"
     inkscape:showpageshadow="0"
     inkscape:pagecheckerboard="true"
     inkscape:deskcolor="#d1d1d1" />
  <g
     id="LOAD_FACTORY"
     transform="matrix(100,0,0,100,0,4.9999997e-5)"
     style="stroke-width:0.0114286">
    <path
       style="fill:none;stroke-width:0.000357143"
       d="M 0,8 V 0 h 8 8 v 8 8 H 8 0 Z m 12.241621,6.003289 c 1.976189,-0.98831 3.084904,-1.559474 3.139203,-1.617187 0.04617,-0.04907 0.09891,-0.128814 0.117188,-0.177199 0.02191,-0.05799 0.03324,-0.635035 0.03324,-1.693278 0,-1.0582431 -0.01133,-1.6352856 -0.03324,-1.6932781 -0.05349,-0.141565 -0.168335,-0.2389585 -0.435235,-0.3690866 -0.137652,-0.067113 -0.249729,-0.1297556 -0.249058,-0.1392047 6.72e-4,-0.00945 0.06475,-0.063934 0.142408,-0.1210778 C 15.14633,8.0530131 15.354356,7.7628888 15.434344,7.5260306 15.564783,7.1397816 15.506698,6.2696084 15.29546,5.4454175 15.07092,4.5693191 14.710544,3.815015 14.18357,3.1181149 13.92629,2.7778734 13.273735,2.1299831 12.927043,1.8705704 11.929808,1.1243878 10.645118,0.63116694 9.3504622,0.49744172 8.8153775,0.44217275 7.6113628,0.47558053 7.1468441,0.55858553 5.858285,0.78883837 4.6701353,1.2873527 3.7396269,1.9881584 L 3.515625,2.1568638 3.4977941,1.8674944 C 3.48646,1.6835623 3.4559634,1.5176149 3.4140966,1.4120568 3.2670713,1.0413627 2.900705,0.69218494 2.5260308,0.56565547 c -0.2719483,-0.0918384 -0.7488633,-0.0918384 -1.0208116,0 C 1.1077308,0.69988941 0.73113941,1.0764808 0.59690547,1.4739692 0.53253294,1.6645867 0.53125,1.7137325 0.53125,3.9890213 v 2.3206356 l 0.0730559,0.2012668 c 0.0885491,0.24395 0.25743753,0.4810213 0.4532066,0.6361732 0.080087,0.063471 0.1579377,0.1256178 0.1730017,0.138104 0.015064,0.012487 -0.097436,0.085575 -0.24999999,0.1624197 -0.29308585,0.1476238 -0.39279244,0.231175 -0.4471826,0.3747263 -0.0459582,0.1212968 -0.046045,3.2649361 -9.375e-5,3.3865561 0.018281,0.04839 0.0710154,0.128116 0.1171875,0.17718 0.0547958,0.05823 1.49219674,0.793479 4.13906544,2.117188 3.8821923,1.941499 4.0624033,2.027979 4.2259961,2.027979 0.1630187,0 0.3114294,-0.07029 3.2261341,-1.527961 z M 9.8040331,5.826325 C 6.9511444,4.3979647 7.0541031,4.4413469 6.7786478,4.5515622 c -0.119755,0.047916 -0.1404331,0.047916 -0.2924415,0 C 6.3686475,4.5145053 6.204725,4.4998391 5.9035034,4.4994281 L 5.484375,4.4988559 5.75,4.3233275 C 6.2733012,3.9775231 6.8647869,3.7343109 7.53833,3.5879863 7.9992875,3.487845 8.9651878,3.4874753 9.4145641,3.5872675 10.963405,3.9312169 11.998884,4.8629788 12.341788,6.2212881 12.426368,6.5563369 12.509182,7.1585941 12.4701,7.1544497 12.4608,7.1534591 11.261034,6.5558031 9.8040331,5.826325 Z"
       id="path855"
       inkscape:connector-curvature="0" />
    <path
       style="fill:#cbcbcb;stroke-width:0.000357143"
       d="M 5.0078125,10.035538 C 2.8207031,8.9418363 1.03125,8.036495 1.03125,8.0236684 c 0,-0.012826 0.2389063,-0.1429303 0.5309029,-0.2891197 L 2.0930558,7.46875 H 4.212335 c 2.0707066,0 2.1237353,-0.0015 2.3136956,-0.065656 C 6.9235191,7.2688606 7.3001106,6.8922691 7.4343444,6.4947806 7.5606394,6.1208016 7.5084528,5.5052044 7.326975,5.2282341 7.3010337,5.1886428 7.2871962,5.15625 7.2962247,5.15625 c 0.00903,0 1.2503684,0.6171806 2.7585333,1.3715128 2.231092,1.1159153 2.755623,1.3899419 2.814587,1.4704028 C 13.057093,8.2543603 13.537199,8.5 13.850185,8.5 c 0.125758,0 0.232828,0.0412 0.650182,0.2501841 C 14.775165,8.8877853 15,9.0108669 15,9.0236988 15,9.0489797 9.1135313,11.999962 9.0331541,12.014976 9.0063256,12.019987 7.1949219,11.12924 5.0078125,10.035538 Z"
       id="path853"
       inkscape:connector-curvature="0" />
    <path
       style="fill:#999999;stroke-width:0.000357143"
       d="M 5,13.029986 C 2.8085938,11.932579 1.0261938,11.033924 1.0391113,11.032975 c 0.012917,-9.5e-4 1.8094019,0.891255 3.9921875,1.982674 L 9,15.000049 9.0075,13.492212 9.015,11.984375 9.02343,13.482506 C 9.02807,14.306478 9.02117,14.990679 9.008115,15.002953 8.99506,15.015228 7.1914062,14.127392 5,13.029986 Z M 1.0144496,9.515625 c 6.1e-6,-0.825 0.00404,-1.1580122 0.00897,-0.7400272 0.00493,0.4179853 0.00492,1.0929853 -1.11e-5,1.5000002 -0.00493,0.407015 -0.00896,0.06503 -0.00896,-0.759973 z"
       id="path851"
       inkscape:connector-curvature="0" />
    <path
       style="fill:#989898;stroke-width:0.000357143"
       d="M 5,13.00235 1.015625,11.008259 1.0237435,9.5353794 C 1.0282087,8.7252956 1.0387775,8.0625 1.0472298,8.0625 c 0.00845,0 1.8012834,0.8929797 3.9840689,1.984399 L 9,12.031299 v 1.48435 C 9,14.332042 8.99648,14.999199 8.99219,14.998221 8.9878906,14.997243 7.1914062,14.099101 5,13.00235 Z"
       id="path849"
       inkscape:connector-curvature="0" />
    <path
       style="fill:#676767;stroke-width:0.000357143"
       d="m 9.03125,15.015636 c 0,-0.02047 5.941245,-2.991058 5.95489,-2.977413 0.0058,0.0058 -1.331721,0.681551 -2.9722,1.501737 -1.64048,0.820186 -2.98269,1.48424 -2.98269,1.475676 z m 5.9832,-4.500011 c 6e-6,-0.825 0.004,-1.1580122 0.009,-0.7400272 0.0049,0.4179852 0.0049,1.0929852 -1.1e-5,1.5000002 -0.0049,0.407015 -0.009,0.06503 -0.009,-0.759973 z"
       id="path847"
       inkscape:connector-curvature="0" />
    <path
       style="fill:#656565;stroke-width:0.000357143"
       d="m 9.03125,13.515529 v -1.484214 l 2.968685,-1.484407 C 13.632712,9.7304834 14.975412,9.0625 14.983712,9.0625 c 0.0083,0 0.01888,0.6644531 0.0235,1.476563 l 0.0084,1.476562 -2.992187,1.492058 -2.992188,1.492059 z m 3.015573,-0.570125 2.484427,-1.242096 v -0.914154 c 0,-0.502785 -0.007,-0.914154 -0.01557,-0.914154 -0.0086,0 -1.133565,0.558943 -2.5,1.242096 l -2.48443,1.242096 v 0.914154 c 0,0.502785 0.00701,0.914154 0.015573,0.914154 0.00857,0 1.133565,-0.558943 2.5,-1.242096 z"
       id="path845"
       inkscape:connector-curvature="0" />
    <path
       style="fill:#00fe00;stroke-width:0.000357143"
       d="M 13,11.047243 V 10.625368 L 13.5,10.375 14,10.124632 v 0.421875 0.421875 L 13.5,11.21875 13,11.469118 Z m 0.676944,-3.0941124 c -0.28463,-0.1080044 -0.543618,-0.3889722 -0.611798,-0.663719 -0.02031,-0.081832 -0.0503,-0.1919725 -0.06666,-0.2447554 -0.01636,-0.052783 -0.02974,-0.1458625 -0.02974,-0.206844 0,-0.3317847 -0.185927,-1.0512506 -0.377085,-1.4591703 C 12.309921,4.7774166 11.767237,4.1410459 11.234375,3.7870359 9.9989506,2.9662749 8.3221716,2.7656728 6.7850122,3.254735 5.9394734,3.5237513 5.15594,4.0200503 4.5170491,4.6912891 L 4.2380872,4.984375 5.2674813,5 c 0.9965456,0.015126 1.0340753,0.017931 1.1761084,0.087891 0.1872581,0.092236 0.3762828,0.281261 0.4685191,0.4685191 0.104034,0.2112097 0.104034,0.6447197 0,0.8559294 -0.092236,0.1872581 -0.281261,0.3762828 -0.4685191,0.4685191 L 6.296875,6.953125 H 4.015625 1.734375 L 1.5876602,6.8808587 C 1.4004023,6.7886225 1.2113775,6.5995978 1.1191412,6.4123397 L 1.046875,6.265625 V 3.984375 1.703125 L 1.119141,1.5564102 C 1.211377,1.3691523 1.4004021,1.1801275 1.58766,1.0878912 c 0.2112099,-0.10403408 0.6447197,-0.10403408 0.8559296,0 0.1872579,0.092236 0.3762827,0.2812611 0.468519,0.468519 0.068992,0.1400673 0.072688,0.1833046 0.081575,0.9542729 l 0.00931,0.8075581 0.2563163,-0.2458146 C 4.6412606,1.7470967 6.3518322,1.0294995 8.2537172,0.97723572 9.4129428,0.94538022 10.328772,1.1133647 11.321288,1.5398997 c 1.312795,0.5641753 2.400297,1.5713492 3.01806,2.7951303 0.519094,1.0283194 0.812624,2.6214462 0.572744,3.1085597 -0.09232,0.1874628 -0.281443,0.3764684 -0.468502,0.4682006 -0.183057,0.089769 -0.582284,0.1112972 -0.766646,0.04134 z"
       id="path843"
       inkscape:connector-curvature="0" />
    <path
       style="fill:#fe0000;stroke-width:0.000357143"
       d="M 12,11.547243 V 11.125368 L 12.5,10.875 13,10.624632 v 0.421875 0.421875 L 12.5,11.71875 12,11.969118 Z"
       id="path841"
       inkscape:connector-curvature="0" />
    <path
       style="fill:#323232;stroke-width:0.000357143"
       d="M 4.7894909,13.503271 C 2.1426223,12.179562 0.70522131,11.444312 0.65042556,11.386083 0.60425341,11.337019 0.55151903,11.257288 0.53323806,11.208903 0.48728662,11.087282 0.48737347,7.9436437 0.53333181,7.8223469 0.58763059,7.6790366 0.68732791,7.5952953 0.97788456,7.4489416 L 1.2526439,7.310545 1.4719345,7.3896475 c 0.1411362,0.050911 0.2882353,0.07974 0.4127406,0.080891 l 0.1934501,0.00179 -0.5390625,0.2712303 -0.5390625,0.2712301 v 1.5082071 1.508208 l 4.0077128,2.003905 4.0077131,2.003905 3.0079119,-1.50386 3.007912,-1.503859 V 10.522678 9.0140631 L 14.529054,8.7648438 14.026858,8.5156241 14.224367,8.4974125 c 0.108629,-0.010016 0.283505,-0.05332 0.388611,-0.09623 l 0.191103,-0.078018 0.246397,0.1230103 c 0.135519,0.067656 0.27985,0.1531466 0.320737,0.1899797 0.15938,0.1435775 0.160035,0.1512634 0.160035,1.8764315 0,1.06039 -0.01132,1.638316 -0.03324,1.696316 -0.01828,0.04838 -0.07101,0.128124 -0.117187,0.177199 -0.0543,0.05771 -1.163015,0.628877 -3.139204,1.617187 -2.9147047,1.457672 -3.0631154,1.527962 -3.2261341,1.527962 -0.1635928,0 -0.3438038,-0.08648 -4.225996,-2.027979 z M 9.53125,13.273253 V 12.359007 L 10.765625,11.742055 12,11.125104 v 0.421918 0.421917 l 1,-0.500189 1,-0.500189 v -0.421432 -0.421432 l 0.249306,-0.125348 C 14.386425,9.9314069 14.505956,9.875 14.514931,9.875 c 0.009,0 0.01632,0.411369 0.01632,0.914154 v 0.914154 l -2.484427,1.242096 C 10.680388,13.628557 9.5553881,14.1875 9.5468231,14.1875 c -0.00857,0 -0.015573,-0.411411 -0.015573,-0.914247 z M 10,6.4996584 C 7.4589413,5.22784 7.2574369,5.1211744 7.1498091,4.9909184 7.0861103,4.9138275 6.9494287,4.7942831 6.8460722,4.7252644 L 6.6581512,4.5997756 6.7828331,4.5498878 c 0.2704978,-0.1082319 0.17299,-0.1493806 3.0368272,1.2815538 1.4655927,0.7322931 2.6684457,1.3348518 2.6730057,1.3390197 0.0046,0.00417 0.02954,0.090566 0.05552,0.1919959 0.02597,0.1014297 0.08135,0.2542209 0.12305,0.3395359 0.0417,0.085315 0.07297,0.1576203 0.06948,0.1606788 C 12.737228,7.8657303 11.503906,7.2523744 10,6.4996584 Z"
       id="path839"
       inkscape:connector-curvature="0" />
    <path
       style="fill:#006500;stroke-width:0.000357143"
       d="M 13.477019,8.4243462 C 13.132506,8.2963447 12.773486,7.9634266 12.642886,7.6508569 12.561255,7.4554866 12.476505,7.0864362 12.45509,6.8330897 12.421898,6.4404112 12.270162,5.8989703 12.094636,5.546875 11.58165,4.5178562 10.699037,3.8725094 9.4145641,3.5872678 8.9651878,3.4874753 7.9992875,3.487845 7.53833,3.5879866 6.8647869,3.7343112 6.2733012,3.9775234 5.75,4.3233278 l -0.265625,0.1755284 0.4236197,5.719e-4 c 0.3468287,4.688e-4 0.4588622,0.012473 0.6180359,0.066228 0.3974885,0.1342338 0.77408,0.5108253 0.9083138,0.9083138 0.091838,0.2719481 0.091838,0.7488631 0,1.0208112 C 7.3001106,6.8922691 6.9235191,7.2688606 6.5260306,7.4030944 6.3354272,7.4674625 6.2861931,7.46875 4.015625,7.46875 1.745057,7.46875 1.6958228,7.4674625 1.5052192,7.4030944 1.1077308,7.2688606 0.73113941,6.8922691 0.59690547,6.4947806 0.53253763,6.3041772 0.53125,6.2549431 0.53125,3.984375 c 0,-2.270568 0.001287,-2.3198022 0.0656555,-2.5104058 0.13423391,-0.3974884 0.5108253,-0.77407979 0.9083137,-0.90831373 0.2719483,-0.0918384 0.7488633,-0.0918384 1.0208116,0 C 2.900705,0.69218494 3.2670713,1.0413627 3.4140966,1.4120568 3.4559634,1.5176149 3.48646,1.6835623 3.4977941,1.8674944 L 3.515625,2.1568638 3.7396269,1.9881584 C 4.6701353,1.2873527 5.858285,0.78883838 7.1468441,0.55858553 7.6113628,0.47558053 8.8153775,0.44217275 9.3504622,0.49744172 10.645118,0.63116694 11.929808,1.1243878 12.927043,1.8705704 c 0.346692,0.2594127 0.999247,0.907303 1.256527,1.2475445 0.526974,0.6969001 0.88735,1.4512042 1.11189,2.3273026 0.211238,0.8241909 0.269323,1.6943641 0.138884,2.0806131 -0.134233,0.3974885 -0.510825,0.77408 -0.908313,0.9083138 -0.282075,0.095258 -0.77845,0.090527 -1.049012,-0.01 z M 14.44359,7.9117903 C 14.630649,7.8200581 14.819776,7.6310525 14.912092,7.4435897 15.151972,6.9564762 14.858442,5.3633494 14.339348,4.33503 13.721585,3.1112489 12.634083,2.104075 11.321288,1.5398997 10.328772,1.1133647 9.4129428,0.94538022 8.2537172,0.97723572 6.3518322,1.0294995 4.6412606,1.7470967 3.2593084,3.0724266 L 3.0029921,3.3182412 2.9936835,2.5106831 C 2.9847968,1.7397148 2.9811007,1.6964775 2.9121088,1.5564103 2.8198725,1.3691523 2.6308477,1.1801275 2.4435898,1.0878912 2.2323799,0.98385712 1.7988701,0.98385712 1.5876603,1.0878912 1.4004023,1.1801275 1.2113775,1.3691523 1.1191412,1.5564103 L 1.046875,1.703125 v 2.28125 2.28125 L 1.119141,6.4123397 C 1.211377,6.5995978 1.4004021,6.7886225 1.58766,6.8808588 l 0.146715,0.072266 h 2.28125 2.28125 L 6.4435897,6.8808587 C 6.6308478,6.7886225 6.8198725,6.5995978 6.9121088,6.4123397 7.0161428,6.20113 7.0161428,5.76762 6.9121088,5.5564103 6.8198725,5.3691522 6.6308478,5.1801275 6.4435897,5.0878912 6.3015566,5.0179309 6.2640269,5.0151262 5.2674813,5 L 4.2380872,4.984375 4.5170491,4.6912891 C 5.6527362,3.4981006 7.1385622,2.9171427 8.828125,3.0056583 c 0.6626753,0.034717 1.298444,0.1968254 1.875,0.4780867 0.831652,0.4057047 1.509312,1.0856462 1.88854,1.8948969 0.191158,0.4079197 0.377085,1.1273856 0.377085,1.4591703 0,0.060981 0.01338,0.1540612 0.02974,0.206844 0.01636,0.052783 0.04635,0.1629229 0.06666,0.2447554 0.06818,0.2747468 0.327168,0.5557146 0.611798,0.663719 0.184362,0.069957 0.583589,0.048429 0.766646,-0.04134 z"
       id="path837"
       inkscape:connector-curvature="0" />
  </g>
</svg>
