<?xml version="1.0" encoding="UTF-8" standalone="no"?>
<!-- Created with Inkscape (http://www.inkscape.org/) -->

<svg
   version="1.1"
   id="svg2"
   width="1600"
   height="1600"
   viewBox="0 0 1600 1600"
   sodipodi:docname="loc_rot_scale_custom.svg"
   inkscape:version="1.2.2 (732a01da63, 2022-12-09)"
   xmlns:inkscape="http://www.inkscape.org/namespaces/inkscape"
   xmlns:sodipodi="http://sodipodi.sourceforge.net/DTD/sodipodi-0.dtd"
   xmlns="http://www.w3.org/2000/svg"
   xmlns:svg="http://www.w3.org/2000/svg"
   xmlns:rdf="http://www.w3.org/1999/02/22-rdf-syntax-ns#"
   xmlns:cc="http://creativecommons.org/ns#"
   xmlns:dc="http://purl.org/dc/elements/1.1/">
  <metadata
     id="metadata8">
    <rdf:RDF>
      <cc:Work
         rdf:about="">
        <dc:format>image/svg+xml</dc:format>
        <dc:type
           rdf:resource="http://purl.org/dc/dcmitype/StillImage" />
      </cc:Work>
    </rdf:RDF>
  </metadata>
  <defs
     id="defs6" />
  <sodipodi:namedview
     pagecolor="#808080"
     bordercolor="#666666"
     borderopacity="1"
     objecttolerance="10"
     gridtolerance="10"
     guidetolerance="10"
     inkscape:pageopacity="0"
     inkscape:pageshadow="2"
     inkscape:window-width="1993"
     inkscape:window-height="1009"
     id="namedview4"
     showgrid="false"
     inkscape:zoom="0.5"
     inkscape:cx="-3"
     inkscape:cy="8"
     inkscape:window-x="-8"
     inkscape:window-y="-8"
     inkscape:window-maximized="1"
     inkscape:current-layer="LOC_ROT_SCALE_CUSTOM"
     inkscape:showpageshadow="0"
     inkscape:pagecheckerboard="true"
     inkscape:deskcolor="#d1d1d1" />
  <g
     id="LOC_ROT_SCALE_CUSTOM"
     transform="matrix(100,0,0,100,0,4.9999997e-5)"
     style="stroke-width:0.0114286">
    <path
       style="fill:none;stroke-width:0.000357143"
       d="M 0,8 V 0 h 8 8 l -0.0012,6.0234375 c -10e-4,5.0463855 -0.008,6.0082305 -0.04289,5.9296875 -0.107796,-0.242538 -0.405355,-0.36075 -0.664789,-0.264103 -0.04838,0.01802 -0.316376,0.260332 -0.595536,0.53846 L 14.18802,12.73317 12.883085,11.434097 c -0.821545,-0.817852 -1.34339,-1.314254 -1.408743,-1.340055 l -0.103805,-0.04098 0.734829,-0.7374668 C 12.95476,8.463125 12.967378,8.4440981 12.967378,8.015625 c 0,-0.4325803 -0.0052,-0.4402456 -0.938251,-1.3761522 L 11.217981,5.8258206 11.951055,5.0931597 c 0.403191,-0.4029638 0.746624,-0.7371778 0.763184,-0.7426978 0.01656,-0.00552 0.126303,0.1373256 0.243873,0.3174343 l 0.213763,0.327471 0.37569,0.00232 0.37569,0.00232 0.264935,0.2678575 c 0.145714,0.1473219 0.325102,0.303581 0.398639,0.3472422 0.274326,0.162876 0.522255,0.16245 0.792416,-0.00136 0.324421,-0.196709 0.44841,-0.6218187 0.279266,-0.9574856 C 15.571901,4.48438 11.588023,0.47641564 11.381921,0.35381293 11.107848,0.19077733 10.859758,0.19115634 10.589505,0.35502393 10.364226,0.49162112 10.238106,0.7169069 10.23873,0.98160655 10.239011,1.098016 10.25948,1.210713 10.29146,1.2718974 c 0.02876,0.055006 0.05229,0.1071164 0.05229,0.1158013 0,0.00868 -0.05977,-0.00543 -0.132812,-0.031356 C 9.9840281,1.2757927 9.3753522,1.1314788 9.015625,1.0729407 8.53533,0.9947826 7.46467,0.9947826 6.984375,1.0729407 5.6827781,1.2847367 4.5574575,1.7820868 3.578125,2.5783653 3.2955425,2.8081283 2.799165,3.3004853 2.5859542,3.5625 L 2.4715226,3.703125 1.7322303,3.33426 C 1.3256196,3.1313844 0.98741156,2.9709218 0.98065697,2.9776764 c -0.006755,0.00675 -0.008681,1.1386555 -0.004282,2.5153352 l 0.008,2.503054 L 2.9713762,6.5058453 C 4.0642269,5.6862241 4.9606031,5.0015625 4.9633234,4.984375 4.9660453,4.9671875 4.6153472,4.7765553 4.1839978,4.5607478 L 3.3997262,4.1683706 3.6451756,3.9069262 C 4.7745659,2.7039372 6.3547313,2.0188363 8,2.0188363 c 0.9718069,0 1.9044272,0.2312027 2.77711,0.6884638 0.357903,0.1875307 0.852601,0.512923 0.839513,0.5521974 -0.0046,0.013818 -0.338063,0.3549997 -0.741018,0.7581828 L 10.142958,4.7507406 9.3605413,3.9708778 C 8.7977903,3.4099634 8.5386441,3.1731672 8.4375,3.1274437 8.2391788,3.0377903 7.7927491,3.0376186 7.59375,3.1271187 7.3899472,3.2187797 3.2517678,7.3526925 3.1398291,7.5764475 c -0.065429,0.1307866 -0.077224,0.1981122 -0.076643,0.4375 0.00105,0.434005 0.00743,0.4434169 0.9231909,1.3620878 L 4.7817591,10.173946 3.8999044,11.056124 3.0180495,11.938302 2.2512123,11.175661 C 1.7571352,10.684289 1.4343554,10.387697 1.34375,10.341824 c -0.3351238,-0.16967 -0.76064294,-0.04571 -0.95748781,0.278931 -0.16386715,0.270253 -0.16424616,0.518343 -0.001211,0.792416 0.11543231,0.194048 4.13069931,4.19053 4.28682331,4.266768 0.2668028,0.130283 0.4833132,0.119876 0.7396238,-0.03555 C 5.7350993,15.448156 5.8588409,15.02212 5.6894256,14.6875 5.6435528,14.596895 5.3469609,14.274115 4.8555881,13.780038 L 4.0929478,13.013201 4.9751256,12.131346 5.8573031,11.249491 6.655214,12.044873 c 0.9186591,0.915747 0.9286244,0.922504 1.3604109,0.922504 0.4284732,0 0.4475,-0.01262 1.2999672,-0.862035 l 0.7374669,-0.734828 0.04098,0.103805 c 0.0258,0.06535 0.522203,0.587198 1.340055,1.408741 l 1.299073,1.304935 -0.505688,0.507565 c -0.278128,0.279161 -0.520435,0.547152 -0.53846,0.595537 -0.09665,0.259434 0.02157,0.556992 0.264103,0.664789 0.07854,0.03491 -0.883303,0.04187 -5.9296876,0.04289 L 0,16 Z m 15.687484,7.964892 c 0.108872,-0.04341 0.21916,-0.150974 0.268402,-0.261767 0.04036,-0.09081 0.04171,-0.08763 0.04289,0.101563 L 16,16 15.804688,15.998 c -0.162357,-0.0016 -0.182133,-0.0072 -0.117204,-0.03313 z"
       id="path847"
       inkscape:connector-curvature="0" />
    <path
       style="fill:#cbfefe;stroke-width:0.000357143"
       d="m 3.5475091,12.469385 -0.5299268,-0.530616 0.8824224,-0.882745 0.8824225,-0.882746 0.5377159,0.537717 0.537716,0.537716 -0.8742419,0.875182 c -0.4808331,0.48135 -0.8814285,0.87539 -0.8902119,0.875645 -0.00878,2.5e-4 -0.2544369,-0.238315 -0.5458962,-0.530153 z M 0.96875,5.4882013 c 0,-1.3856982 0.006954,-2.5194513 0.0154523,-2.5194513 0.008499,0 0.3466227,0.1652344 0.7513863,0.3671875 L 2.4715226,3.703125 2.5859542,3.5625 C 2.799165,3.3004853 3.2955425,2.8081283 3.578125,2.5783653 4.3694934,1.934917 5.3058259,1.4628812 6.2687884,1.2219136 6.9315919,1.0560565 7.2616262,1.0169904 8,1.0169904 c 0.4967459,0 0.7614759,0.014581 1.015625,0.055938 0.4006066,0.06519 1.009953,0.213265 1.206678,0.2932294 0.109169,0.044375 0.499595,0.4199063 1.91795,1.8447795 L 13.921132,5 13.546503,4.99768 13.171875,4.99536 12.958112,4.667889 c -0.11757,-0.1801087 -0.227313,-0.3229544 -0.243873,-0.3174344 -0.01656,0.00552 -0.36014,0.3398813 -0.763511,0.7430247 L 11.217327,5.826475 10.679801,5.2889494 10.142275,4.7514234 10.875263,4.0180219 C 11.278407,3.6146509 11.612019,3.273315 11.616623,3.2594975 11.629711,3.2202231 11.135012,2.8948308 10.77711,2.7073001 9.0226334,1.788004 6.9787894,1.7873392 5.2263009,2.7054947 4.6369125,3.0142844 4.1006566,3.4217631 3.6451738,3.9069284 L 3.3997225,4.168375 4.2039478,4.5707256 C 4.6462719,4.7920188 4.9957875,4.9843272 4.9806491,4.9980778 4.9655109,5.0118284 4.0742187,5.6808141 3,6.4847125 1.9257812,7.2886109 1.0292969,7.96014 1.0078125,7.9769994 0.97663203,8.0014675 0.96875,7.4992775 0.96875,5.4882013 Z"
       id="path845"
       inkscape:connector-curvature="0" />
    <path
       style="fill:#cafdfd;stroke-width:0.000357143"
       d="m 12.676683,14.960938 c 0.294463,-0.296485 0.550953,-0.569779 0.569978,-0.607321 0.01902,-0.03754 0.03459,-0.128734 0.03459,-0.202648 V 14.01658 l -1.34239,-1.344228 C 10.587234,11.318875 10.5,11.217968 10.5,11.007978 10.5,10.883932 10.885158,10.5 11.0096,10.5 c 0.208153,0 0.31131,0.08927 1.662752,1.438861 l 1.344228,1.342389 h 0.134389 c 0.07391,0 0.165106,-0.01557 0.202648,-0.03459 0.03754,-0.01902 0.310836,-0.275515 0.607321,-0.569978 L 15.5,12.141295 V 13.820648 15.5 h -1.679352 -1.679353 z"
       id="path843"
       inkscape:connector-curvature="0" />
    <path
       style="fill:#f3eec2;stroke-width:0.000357143"
       d="M 7.7312512,12.37814 C 7.5858819,12.270064 3.6872412,8.3623394 3.6135647,8.2508591 c -0.067147,-0.1015994 -0.067147,-0.3688688 0,-0.4704682 0.073676,-0.1114803 3.9723172,-4.0192047 4.1176865,-4.1272809 0.17237,-0.12815 0.3963776,-0.12815 0.5687476,0 0.1453693,0.1080762 4.0440102,4.0158006 4.1176862,4.1272809 0.03033,0.045889 0.05106,0.1414138 0.05106,0.2352341 0,0.09382 -0.02074,0.1893447 -0.05106,0.2352341 -0.07368,0.1114803 -3.9723169,4.0192049 -4.1176862,4.1272809 -0.097837,0.07274 -0.1539279,0.09061 -0.2843738,0.09061 -0.1304459,0 -0.1865369,-0.01787 -0.2843738,-0.09061 z"
       id="path841"
       inkscape:connector-curvature="0" />
    <path
       style="fill:#3298fe;stroke-width:0.000357143"
       d="m 11.953125,15.956277 c -0.242845,-0.108945 -0.360719,-0.405827 -0.264103,-0.66518 0.01802,-0.04839 0.260332,-0.316376 0.53846,-0.595537 L 12.73317,14.187995 11.434097,12.88306 c -0.821139,-0.824845 -1.314213,-1.343276 -1.340225,-1.40915 l -0.04115,-0.104216 0.22364,-0.22364 C 10.487867,10.934547 10.5,10.927116 10.5,11.009086 c 0,0.208735 0.08862,0.311175 1.438861,1.663266 l 1.342389,1.344228 v 0.134389 c 0,0.07391 -0.01557,0.165106 -0.03459,0.202648 -0.01902,0.03754 -0.275515,0.310836 -0.569978,0.607321 L 12.141295,15.5 H 13.820648 15.5 v -1.679352 -1.679353 l -0.539062,0.535388 c -0.296485,0.294463 -0.569779,0.550953 -0.607321,0.569978 -0.03754,0.01902 -0.128734,0.03459 -0.202648,0.03459 H 14.01658 l -1.344228,-1.34239 C 11.320261,10.588619 11.217821,10.5 11.009086,10.5 c -0.08197,0 -0.07454,-0.01213 0.136968,-0.22364 l 0.22364,-0.22364 0.104216,0.04115 c 0.06587,0.02601 0.584166,0.518947 1.408726,1.339802 l 1.304512,1.29865 0.523613,-0.519809 c 0.441219,-0.438013 0.542329,-0.523276 0.642548,-0.541842 0.238623,-0.04421 0.425315,0.02708 0.566635,0.216362 0.06338,0.08489 0.06443,0.116507 0.06443,1.94109 0,1.824583 -0.001,1.856198 -0.06443,1.94109 -0.03544,0.04746 -0.103255,0.115292 -0.150707,0.150729 -0.08456,0.06315 -0.122404,0.06457 -1.904319,0.07141 -1.467858,0.0056 -1.836101,-0.0011 -1.911793,-0.03508 z"
       id="path839"
       inkscape:connector-curvature="0" />
    <path
       style="fill:#fe0000;stroke-width:0.000357143"
       d="M 4.8541244,15.752435 C 4.7996741,15.738826 4.6942053,15.69146 4.6197494,15.647177 4.4125312,15.523933 0.42854334,11.51651 0.34148888,11.34375 0.17259883,11.008588 0.29637086,10.58296 0.61975116,10.386862 0.87606187,10.231435 1.0925722,10.221028 1.359375,10.351311 c 0.156124,0.07624 4.1713909,4.07272 4.2868234,4.266768 0.1630357,0.274073 0.1626566,0.522163 -0.00121,0.792416 -0.157541,0.25982 -0.5098932,0.412164 -0.790864,0.34194 z M 14.822874,5.7211853 C 14.768424,5.7075762 14.662955,5.66021 14.588499,5.6159272 14.381281,5.4926831 10.397293,1.4852597 10.310239,1.3125 c -0.16889,-0.3351625 -0.04512,-0.76078966 0.278262,-0.95688809 0.256311,-0.15542733 0.472821,-0.16583406 0.739624,-0.0355506 0.156124,0.0762375 4.171391,4.07271959 4.286823,4.26676809 0.163036,0.2740722 0.162657,0.5221628 -0.0012,0.7924159 -0.157541,0.2598197 -0.509893,0.4121638 -0.790863,0.34194 z"
       id="path837"
       inkscape:connector-curvature="0" />
    <path
       style="fill:#000000;stroke-width:0.000357143"
       d="M 7.5764481,12.891421 C 7.3526931,12.779482 3.2187803,8.6413028 3.1271194,8.4375 3.0296423,8.2207659 3.0360921,7.7838084 3.1398291,7.5764481 3.2517678,7.3526931 7.3899472,3.2187803 7.59375,3.1271194 c 0.1985641,-0.089305 0.6451859,-0.089305 0.84375,0 0.2038028,0.091661 4.341982,4.2255737 4.453921,4.4493287 0.103737,0.2073603 0.110187,0.6443178 0.01271,0.8610519 -0.09166,0.2038028 -4.2255741,4.341982 -4.4493291,4.453921 -0.1305216,0.0653 -0.1988585,0.07733 -0.4391769,0.07733 -0.2403184,0 -0.3086553,-0.01203 -0.4391769,-0.07733 z M 8.2999988,12.37814 c 0.1453693,-0.108076 4.0440102,-4.0158006 4.1176862,-4.1272809 0.03033,-0.045889 0.05106,-0.1414138 0.05106,-0.2352341 0,-0.09382 -0.02074,-0.1893447 -0.05106,-0.2352341 C 12.344009,7.6689106 8.4453681,3.7611862 8.2999988,3.65311 c -0.17237,-0.12815 -0.3963775,-0.12815 -0.5687475,0 -0.1453694,0.1080762 -4.04401,4.0158006 -4.1176866,4.1272809 -0.067147,0.1015994 -0.067147,0.3688688 0,0.4704682 0.073677,0.1114803 3.9723172,4.0192049 4.1176866,4.1272809 0.097837,0.07274 0.1539278,0.09061 0.2843737,0.09061 0.1304459,0 0.1865369,-0.01787 0.2843738,-0.09061 z"
       id="path835"
       inkscape:connector-curvature="0" />
  </g>
</svg>
