<?xml version="1.0" encoding="UTF-8" standalone="no"?>
<!-- Created with Inkscape (http://www.inkscape.org/) -->

<svg
   version="1.1"
   id="svg2"
   width="1600"
   height="1600"
   viewBox="0 0 1600 1600"
   sodipodi:docname="loc_rot_scale.svg"
   inkscape:version="1.2.2 (732a01da63, 2022-12-09)"
   xmlns:inkscape="http://www.inkscape.org/namespaces/inkscape"
   xmlns:sodipodi="http://sodipodi.sourceforge.net/DTD/sodipodi-0.dtd"
   xmlns="http://www.w3.org/2000/svg"
   xmlns:svg="http://www.w3.org/2000/svg"
   xmlns:rdf="http://www.w3.org/1999/02/22-rdf-syntax-ns#"
   xmlns:cc="http://creativecommons.org/ns#"
   xmlns:dc="http://purl.org/dc/elements/1.1/">
  <metadata
     id="metadata8">
    <rdf:RDF>
      <cc:Work
         rdf:about="">
        <dc:format>image/svg+xml</dc:format>
        <dc:type
           rdf:resource="http://purl.org/dc/dcmitype/StillImage" />
      </cc:Work>
    </rdf:RDF>
  </metadata>
  <defs
     id="defs6" />
  <sodipodi:namedview
     pagecolor="#808080"
     bordercolor="#666666"
     borderopacity="1"
     objecttolerance="10"
     gridtolerance="10"
     guidetolerance="10"
     inkscape:pageopacity="0"
     inkscape:pageshadow="2"
     inkscape:window-width="1993"
     inkscape:window-height="1009"
     id="namedview4"
     showgrid="false"
     inkscape:zoom="0.5"
     inkscape:cx="169"
     inkscape:cy="36"
     inkscape:window-x="-8"
     inkscape:window-y="-8"
     inkscape:window-maximized="1"
     inkscape:current-layer="LOC_ROT_SCALE"
     inkscape:showpageshadow="0"
     inkscape:pagecheckerboard="true"
     inkscape:deskcolor="#d1d1d1" />
  <g
     id="LOC_ROT_SCALE"
     transform="matrix(100,0,0,100,0,4.9999997e-5)"
     style="stroke-width:0.0114286">
    <path
       style="fill:none;stroke-width:0.000357143"
       d="M 0,8 V 0 h 8 8 l -0.0012,6.0234375 c -10e-4,5.0463855 -0.008,6.0082305 -0.04289,5.9296875 -0.107796,-0.242538 -0.405355,-0.36075 -0.664789,-0.264103 -0.04838,0.01802 -0.316376,0.260332 -0.595536,0.53846 L 14.18802,12.73317 12.883085,11.432948 c -1.217927,-1.213526 -1.316995,-1.304646 -1.485795,-1.366585 -0.851226,-0.3123427 -1.6432454,0.479676 -1.330902,1.330902 0.06194,0.168801 0.153058,0.267869 1.366585,1.485795 l 1.300221,1.304935 -0.505688,0.507565 c -0.278128,0.279161 -0.520435,0.547152 -0.53846,0.595537 -0.09665,0.259434 0.02156,0.556992 0.264103,0.664789 0.07854,0.03491 -0.883302,0.04187 -5.9296872,0.04289 L 0,16 Z m 5.390625,7.658803 C 5.6469419,15.516909 5.8134353,15.176515 5.7609722,14.901634 5.7173191,14.672914 5.6041528,14.532722 4.8556194,13.780069 L 4.0930106,13.013263 7.5909559,9.51535 c 1.92387,-1.9238525 3.4924721,-3.5067706 3.4857811,-3.5175956 -0.01294,-0.020932 1.587382,-1.6305857 1.637855,-1.64741 0.01637,-0.00546 0.12595,0.1374431 0.24352,0.3175518 l 0.213763,0.327471 0.37569,0.00232 0.37569,0.00232 0.264935,0.2678575 c 0.145714,0.1473219 0.325102,0.303581 0.398639,0.3472422 0.274326,0.162876 0.522255,0.16245 0.792416,-0.00136 0.324421,-0.196709 0.44841,-0.6218187 0.279266,-0.9574856 C 15.571901,4.48438 11.588023,0.47641564 11.381921,0.35381293 11.107848,0.19077733 10.859758,0.19115634 10.589505,0.35502393 10.364226,0.49162112 10.238106,0.7169069 10.23873,0.98160655 10.239011,1.098016 10.25948,1.210713 10.29146,1.2718974 c 0.02876,0.055006 0.05229,0.1071164 0.05229,0.1158013 0,0.00868 -0.05977,-0.00543 -0.132812,-0.031356 C 9.9840281,1.2757927 9.3753522,1.1314788 9.015625,1.0729407 8.53533,0.9947826 7.46467,0.9947826 6.984375,1.0729407 5.6827781,1.2847367 4.5574575,1.7820868 3.578125,2.5783653 3.2955425,2.8081283 2.799165,3.3004853 2.5859542,3.5625 L 2.4715226,3.703125 1.7322303,3.33426 C 1.3256196,3.1313844 0.98741156,2.9709218 0.98065697,2.9776764 c -0.006755,0.00675 -0.008681,1.1386555 -0.004282,2.5153352 l 0.008,2.503054 L 2.9713762,6.5058453 C 4.0642269,5.6862241 4.9606031,5.0015625 4.9633234,4.984375 4.9660453,4.9671875 4.6153472,4.7765553 4.1839978,4.5607478 L 3.3997262,4.1683706 3.6451756,3.9069262 C 4.7745659,2.7039372 6.3547313,2.0188363 8,2.0188363 c 0.9718069,0 1.9044272,0.2312027 2.77711,0.6884638 0.308638,0.1617177 0.847883,0.5078305 0.847888,0.5442152 1e-6,0.00943 -1.510665,1.5278169 -3.3570355,3.3741997 C 6.4215916,8.4720975 4.9133884,9.9936991 4.9164,10.007051 c 0.00301,0.01335 -0.4229194,0.453313 -0.9465122,0.97769 L 3.0179005,11.938153 2.2511377,11.175588 C 1.7966811,10.723618 1.4334619,10.388023 1.359375,10.351647 1.0932416,10.220976 0.87627366,10.231306 0.61975116,10.386862 0.29637086,10.58296 0.17259883,11.008588 0.34148888,11.34375 c 0.0870545,0.17276 4.07104232,4.180183 4.27826052,4.303427 0.2625881,0.156176 0.5032087,0.159805 0.7708756,0.01163 z m 10.296859,0.306089 c 0.108872,-0.04341 0.21916,-0.150974 0.268402,-0.261767 0.04036,-0.09081 0.04171,-0.08763 0.04289,0.101563 L 16,16 15.804688,15.998 c -0.162357,-0.0016 -0.182133,-0.0072 -0.117204,-0.03313 z"
       id="path827"
       inkscape:connector-curvature="0" />
    <path
       style="fill:#cbfefe;stroke-width:0.000357143"
       d="M 3.5474344,12.46931 3.0174335,11.93862 3.9696544,10.984974 C 4.4933756,10.460469 4.9194113,10.020404 4.9164,10.007051 4.9133875,9.9936991 6.4215916,8.4720975 8.2679625,6.625715 10.114333,4.7793322 11.624999,3.2609425 11.624997,3.2515153 11.624992,3.2151306 11.085748,2.8690178 10.77711,2.7073001 9.0226334,1.788004 6.9787894,1.7873392 5.2263009,2.7054947 4.6369131,3.014284 4.1006566,3.4217632 3.6451756,3.9069263 L 3.3997262,4.1683707 4.1839978,4.5607479 c 0.4313494,0.2158075 0.7852269,0.4040538 0.7863947,0.4183253 0.00117,0.014272 -0.8952081,0.6989331 -1.991947,1.5214703 L 0.984375,7.9960656 0.976375,5.4930116 C 0.971975,4.1163319 0.973902,2.984431 0.980657,2.9776764 0.987412,2.9709264 1.3256196,3.1313844 1.7322303,3.33426 L 2.4715226,3.703125 2.5859542,3.5625 C 2.799165,3.3004853 3.2955425,2.8081283 3.578125,2.5783653 4.3694934,1.934917 5.3058259,1.4628812 6.2687884,1.2219136 6.9315919,1.0560565 7.2616262,1.0169904 8,1.0169904 c 0.4967459,0 0.7614759,0.014581 1.015625,0.055938 0.4006066,0.06519 1.009953,0.213265 1.206678,0.2932294 0.109169,0.044375 0.499595,0.4199063 1.91795,1.8447795 L 13.921132,5 13.546503,4.9976837 13.171875,4.9953672 12.959222,4.6695587 C 12.842263,4.4903637 12.736232,4.34375 12.723596,4.34375 c -0.03543,0 -1.645471,1.61728 -1.645471,1.6528659 0,0.030666 -6.9531797,7.0019441 -6.9847197,7.0029001 -0.00878,2.81e-4 -0.2544703,-0.238326 -0.5459709,-0.530206 z"
       id="path825"
       inkscape:connector-curvature="0" />
    <path
       style="fill:#cafdfd;stroke-width:0.000357143"
       d="m 12.676683,14.960938 c 0.294463,-0.296485 0.550953,-0.569779 0.569978,-0.607321 0.01902,-0.03754 0.03459,-0.128734 0.03459,-0.202648 V 14.01658 l -1.34239,-1.344228 C 10.584693,11.31633 10.5,11.218242 10.5,11.005919 c 0,-0.15402 0.129154,-0.354189 0.280001,-0.433958 0.159206,-0.08419 0.27145,-0.09036 0.43194,-0.02373 0.07918,0.03287 0.544307,0.475774 1.460411,1.390625 l 1.344228,1.342389 h 0.134389 c 0.07391,0 0.165106,-0.01557 0.202648,-0.03459 0.03754,-0.01902 0.310836,-0.275515 0.607321,-0.569978 L 15.5,12.141295 V 13.820648 15.5 h -1.679352 -1.679353 z"
       id="path823"
       inkscape:connector-curvature="0" />
    <path
       style="fill:#3298fe;stroke-width:0.000357143"
       d="m 11.953125,15.956277 c -0.242845,-0.108945 -0.360719,-0.405827 -0.264103,-0.66518 0.01802,-0.04839 0.260332,-0.316376 0.53846,-0.595537 L 12.73317,14.187995 11.432948,12.88306 c -1.213526,-1.217926 -1.304646,-1.316994 -1.366585,-1.485795 -0.3123427,-0.851226 0.479676,-1.6432447 1.330902,-1.330902 0.168799,0.06194 0.267856,0.153045 1.485371,1.366162 l 1.304512,1.299799 0.523613,-0.519809 c 0.441219,-0.438013 0.542329,-0.523276 0.642548,-0.541842 0.238623,-0.04421 0.425315,0.02708 0.566635,0.216362 0.06338,0.08489 0.06443,0.116507 0.06443,1.94109 0,1.824583 -0.001,1.856198 -0.06443,1.94109 -0.03544,0.04746 -0.103255,0.115292 -0.150707,0.150729 -0.08456,0.06315 -0.122404,0.06457 -1.904319,0.07141 -1.467858,0.0056 -1.836101,-0.0011 -1.911793,-0.03508 z M 15.5,13.820648 v -1.679353 l -0.539062,0.535388 c -0.296485,0.294463 -0.569779,0.550953 -0.607321,0.569978 -0.03754,0.01902 -0.128734,0.03459 -0.202648,0.03459 H 14.01658 l -1.344228,-1.342389 c -0.916104,-0.914851 -1.38123,-1.357752 -1.460411,-1.390625 -0.16049,-0.06663 -0.272734,-0.06047 -0.43194,0.02373 C 10.629154,10.65173 10.5,10.851899 10.5,11.005919 c 0,0.212323 0.08469,0.310411 1.438861,1.666433 l 1.342389,1.344228 v 0.134389 c 0,0.07391 -0.01557,0.165106 -0.03459,0.202648 -0.01902,0.03754 -0.275515,0.310836 -0.569978,0.607321 L 12.141295,15.5 H 13.820648 15.5 Z"
       id="path821"
       inkscape:connector-curvature="0" />
    <path
       style="fill:#fe0000;stroke-width:0.000357143"
       d="M 4.8541244,15.752435 C 4.7996741,15.738826 4.6942053,15.69146 4.6197494,15.647177 4.4125312,15.523933 0.42854334,11.51651 0.34148888,11.34375 0.17259883,11.008588 0.29637086,10.58296 0.61975116,10.386862 0.87606187,10.231435 1.0925722,10.221028 1.359375,10.351311 c 0.156124,0.07624 4.1713909,4.07272 4.2868234,4.266768 0.1630357,0.274073 0.1626566,0.522163 -0.00121,0.792416 -0.157541,0.25982 -0.5098932,0.412164 -0.790864,0.34194 z M 14.822874,5.7211853 C 14.768424,5.7075762 14.662955,5.66021 14.588499,5.6159272 14.381281,5.4926831 10.397293,1.4852597 10.310239,1.3125 c -0.16889,-0.3351625 -0.04512,-0.76078966 0.278262,-0.95688809 0.256311,-0.15542733 0.472821,-0.16583406 0.739624,-0.0355506 0.156124,0.0762375 4.171391,4.07271959 4.286823,4.26676809 0.163036,0.2740722 0.162657,0.5221628 -0.0012,0.7924159 -0.157541,0.2598197 -0.509893,0.4121638 -0.790863,0.34194 z"
       id="path819"
       inkscape:connector-curvature="0" />
  </g>
</svg>
