<?xml version="1.0" encoding="UTF-8" standalone="no"?>
<!-- Created with Inkscape (http://www.inkscape.org/) -->

<svg
   version="1.1"
   id="svg2"
   width="1600"
   height="1600"
   viewBox="0 0 1600 1600"
   sodipodi:docname="loopsel.svg"
   inkscape:version="1.2.2 (732a01da63, 2022-12-09)"
   xmlns:inkscape="http://www.inkscape.org/namespaces/inkscape"
   xmlns:sodipodi="http://sodipodi.sourceforge.net/DTD/sodipodi-0.dtd"
   xmlns="http://www.w3.org/2000/svg"
   xmlns:svg="http://www.w3.org/2000/svg"
   xmlns:rdf="http://www.w3.org/1999/02/22-rdf-syntax-ns#"
   xmlns:cc="http://creativecommons.org/ns#"
   xmlns:dc="http://purl.org/dc/elements/1.1/">
  <metadata
     id="metadata8">
    <rdf:RDF>
      <cc:Work
         rdf:about="">
        <dc:format>image/svg+xml</dc:format>
        <dc:type
           rdf:resource="http://purl.org/dc/dcmitype/StillImage" />
      </cc:Work>
    </rdf:RDF>
  </metadata>
  <defs
     id="defs6" />
  <sodipodi:namedview
     pagecolor="#808080"
     bordercolor="#666666"
     borderopacity="1"
     objecttolerance="10"
     gridtolerance="10"
     guidetolerance="10"
     inkscape:pageopacity="0"
     inkscape:pageshadow="2"
     inkscape:window-width="1993"
     inkscape:window-height="1009"
     id="namedview4"
     showgrid="false"
     inkscape:zoom="0.5"
     inkscape:cx="461"
     inkscape:cy="568"
     inkscape:window-x="-8"
     inkscape:window-y="-8"
     inkscape:window-maximized="1"
     inkscape:current-layer="LOOPSEL"
     inkscape:showpageshadow="0"
     inkscape:pagecheckerboard="true"
     inkscape:deskcolor="#d1d1d1" />
  <g
     id="LOOPSEL"
     transform="matrix(100,0,0,100,0,4.9999997e-5)"
     style="stroke-width:0.0114285">
    <path
       style="fill:none;stroke-width:0.000357143"
       d="M 0,8 V 0 h 8 8 v 8 8 H 8 0 Z m 8.8732344,6.972296 c 0.085335,-0.03242 1.4037776,-0.739066 2.9298706,-1.570313 2.971922,-1.618775 2.972697,-1.619256 3.135393,-1.948858 l 0.07713,-0.15625 v -3.78125 -3.78125 l -0.07738,-0.15625 C 14.835979,3.3716219 14.644814,3.1847606 14.435555,3.0867519 14.342093,3.0429783 13.035156,2.5590673 11.53125,2.0113942 L 8.796875,1.015625 8.5,1.0182072 8.203125,1.0207894 6.4850591,1.6510196 C 5.5401228,1.9976464 4.7551566,2.28125 4.7406897,2.28125 4.7262227,2.28125 4.6547497,2.240219 4.5818609,2.190071 4.3080034,2.0016514 4.2595272,1.9962405 2.9363598,2.0063979 L 1.734375,2.015625 1.578125,2.0930044 C 1.3789118,2.1916604 1.1916604,2.3789118 1.0930044,2.578125 L 1.015625,2.734375 V 4 5.265625 l 0.077379,0.15625 C 1.2413691,5.7214634 1.5453358,5.9461766 1.8606896,5.9894006 L 2,6.0084953 v 2.603955 c 0,2.5308977 0.00176,2.6086607 0.06275,2.7716697 0.085053,0.227325 0.2395683,0.398539 0.5087091,0.563688 0.1239787,0.07607 0.9496347,0.53159 1.8347909,1.012255 0.8851562,0.480665 2.0453125,1.110976 2.578125,1.400692 0.5328125,0.289716 1.0460938,0.558763 1.140625,0.597883 0.2202881,0.09116 0.5294066,0.09681 0.7482344,0.01366 z"
       id="path831"
       inkscape:connector-curvature="0" />
    <path
       style="fill:#fefefe;stroke-width:0.000357143"
       d="M 9.3773419,5.9881644 C 9.2557509,5.7914262 9.0391122,5.6270028 8.6709363,5.4520203 8.4733141,5.3580966 8.3045025,5.28125 8.2957997,5.28125 8.27704,5.28125 7.7945341,5.0569587 7.59375,4.9549047 7.5164062,4.9155925 7.41898,4.8727578 7.3772469,4.8597166 7.3355141,4.8466753 7.1280884,4.7533728 6.9163016,4.6523778 6.7045147,4.5513825 6.5220962,4.46875 6.5109269,4.46875 6.4997579,4.46875 6.4189019,4.433284 6.3312472,4.389937 6.2435925,4.3465891 5.9117188,4.1944231 5.59375,4.0517903 L 5.015625,3.7924578 V 3.5326841 3.27291 L 6.7656581,2.6363341 8.5156913,1.9997582 11.250033,2.9943061 c 1.503888,0.5470014 2.734342,1.0072098 2.734342,1.0226855 0,0.024296 -4.4644906,2.0745596 -4.5208888,2.076164 -0.011489,3.282e-4 -0.050254,-0.046919 -0.086144,-0.1049912 z"
       id="path829"
       inkscape:connector-curvature="0" />
    <path
       style="fill:#cbcbcb;stroke-width:0.000357143"
       d="M 5.7578125,11.336716 4.03125,10.395128 V 8.2015578 6.0079881 l 0.1283987,-0.020532 c 0.070619,-0.011292 0.1841944,-0.047489 0.2523891,-0.080437 0.096658,-0.0467 0.1422041,-0.052981 0.2066178,-0.028491 0.098452,0.037432 0.4963219,0.2225822 0.6938444,0.3228841 0.077344,0.039275 0.17477,0.08208 0.2165031,0.095121 0.041733,0.013041 0.2456391,0.1044625 0.453125,0.2031582 0.2074857,0.098696 0.4124031,0.1900806 0.4553719,0.2030775 0.042969,0.012996 0.092187,0.0345 0.109375,0.047784 0.017188,0.013285 0.228125,0.1116257 0.46875,0.218535 0.240625,0.1069097 0.4481303,0.20409 0.4611225,0.2159563 0.012993,0.011867 0.020024,1.1627044 0.015625,2.5574178 l -0.008,2.535843 z"
       id="path827"
       inkscape:connector-curvature="0" />
    <path
       style="fill:#fecb32;stroke-width:0.000357143"
       d="M 8.1514344,14.395781 C 8.0079891,14.321273 7.8097656,14.215804 7.7109375,14.161406 7.6121094,14.107008 7.4503906,14.018411 7.3515625,13.964523 6.9844769,13.764365 6.8237537,13.676657 6.65625,13.585082 6.5617187,13.533402 6.371875,13.432033 6.234375,13.359818 6.096875,13.287604 5.9,13.182232 5.796875,13.125658 5.6023784,13.018958 5.4293978,12.92444 5.109375,12.75 5.00625,12.693788 4.8515625,12.609413 4.765625,12.5625 4.6796875,12.515587 4.5285156,12.433114 4.4296875,12.379227 4.3308594,12.325339 4.1691406,12.237161 4.0703125,12.183273 3.6718509,11.966008 3.5547912,11.90201 3.3828125,11.80741 3.2839844,11.753048 3.1609375,11.687351 3.109375,11.661418 2.8153325,11.513527 2.6268168,11.367236 2.564562,11.238635 2.5009281,11.107184 2.5,11.068574 2.5,8.5526338 V 6 h 0.5154286 0.5154286 l 0.00801,2.3631544 0.00801,2.3631546 0.15625,0.08426 c 0.085937,0.04634 0.2476563,0.134136 0.359375,0.195102 0.1117187,0.06096 0.2875,0.156845 0.390625,0.213066 0.103125,0.05622 0.2578125,0.140604 0.34375,0.187517 0.085937,0.04691 0.2335937,0.127484 0.328125,0.179047 0.094531,0.05156 0.2492187,0.135937 0.34375,0.1875 0.094531,0.05156 0.25625,0.139741 0.359375,0.195953 0.2059953,0.112285 0.4429684,0.241531 0.6953125,0.379227 0.090234,0.04924 0.2449219,0.133612 0.34375,0.1875 0.2719028,0.148258 0.4885734,0.26651 0.6875,0.375215 0.098828,0.05401 0.2394531,0.130235 0.3125,0.1694 L 8,13.151301 V 9.9819003 C 8,7.5610234 7.9912597,6.8125 7.9629912,6.8125 7.9426366,6.8125 7.8617772,6.7828591 7.7833037,6.7466312 7.6237447,6.6729694 7.4057725,6.5741287 7.171875,6.4693759 7.0859375,6.4308881 6.9453125,6.3670166 6.859375,6.3274391 6.7734375,6.2878612 6.6328125,6.224405 6.546875,6.1864247 6.4609375,6.1484447 6.2623616,6.0558053 6.1055953,5.98056 5.9488287,5.9053144 5.8087287,5.84375 5.7942619,5.84375 c -0.023486,0 -0.1576672,-0.062452 -0.7239494,-0.3369444 -0.090234,-0.043739 -0.1638506,-0.080742 -0.1635919,-0.082228 2.5e-4,-0.00149 0.020735,-0.058953 0.045503,-0.1277025 0.029961,-0.083163 0.045492,-0.2583544 0.046405,-0.5234375 0.00146,-0.4233144 0.00546,-0.4325891 0.1528,-0.3544494 0.045621,0.024193 0.1602903,0.07862 0.2548216,0.1209481 0.094531,0.042328 0.2421875,0.1084501 0.328125,0.1469379 0.085937,0.038488 0.2265625,0.1023593 0.3125,0.1419368 0.085937,0.039578 0.2265625,0.1030341 0.3125,0.1410144 0.085937,0.03798 0.2845134,0.1306194 0.4412797,0.2058647 0.1567665,0.075246 0.2968665,0.13681 0.3113334,0.13681 0.014467,0 0.1393285,0.054674 0.27747,0.1214972 0.2529072,0.1223387 0.5416235,0.2553209 0.7939119,0.3656737 0.4509169,0.1972347 0.6454169,0.3148747 0.7377166,0.446195 l 0.094538,0.134506 0.00817,3.866717 0.00817,3.866718 -0.072321,0.136761 c -0.082326,0.155681 -0.2809259,0.280682 -0.4459428,0.280682 -0.058738,0 -0.2112872,-0.05705 -0.3622725,-0.135469 z M 2,4 V 3 H 3 4 V 4 5 H 3 2 Z"
       id="path825"
       inkscape:connector-curvature="0" />
    <path
       style="fill:#989898;stroke-width:0.000357143"
       d="m 9.53125,9.9112784 c 0,-2.939325 -0.00748,-3.5808806 -0.042941,-3.6813778 L 9.4453681,6.1081931 11.542997,5.1563528 c 1.153695,-0.5235122 2.185519,-0.9954934 2.292941,-1.0488475 l 0.195312,-0.097007 v 3.5063282 3.5063285 l -2.179687,1.18746 c -1.198829,0.653104 -2.2113286,1.203857 -2.2500005,1.223898 l -0.070312,0.03644 z"
       id="path823"
       inkscape:connector-curvature="0" />
    <path
       style="fill:#983200;stroke-width:0.000357143"
       d="M 8.125,14.958638 C 8.0304688,14.919518 7.5171875,14.650471 6.984375,14.360755 6.4515625,14.071039 5.2914062,13.440728 4.40625,12.960063 3.5210938,12.479397 2.6954378,12.023883 2.5714591,11.947808 2.3023183,11.782659 2.1478031,11.611445 2.06275,11.38412 2.0017605,11.221111 2,11.143348 2,8.6124503 V 6.0084953 L 1.8606896,5.9894006 C 1.5453358,5.9461766 1.2413691,5.7214634 1.0930044,5.421875 L 1.015625,5.265625 V 4 2.734375 L 1.093004,2.578125 C 1.1916604,2.3789118 1.3789118,2.1916604 1.578125,2.0930044 L 1.734375,2.015625 H 3 4.265625 l 0.15625,0.077379 c 0.1998619,0.098977 0.3870409,0.2865352 0.4841406,0.4851206 0.069117,0.1413561 0.077983,0.2066874 0.093004,0.6853809 L 5.015625,3.7926366 5.59375,4.0518797 c 0.3179688,0.1425837 0.6498425,0.2947094 0.7374972,0.3380569 0.087655,0.043347 0.1685106,0.078813 0.1796797,0.078813 0.011169,0 0.1935878,0.082632 0.4053747,0.1836278 0.2117868,0.100995 0.4192125,0.1942975 0.4609453,0.2073388 0.041733,0.013041 0.1391593,0.055876 0.2165031,0.095188 0.2124106,0.1079637 0.6837691,0.3263453 0.7043888,0.3263453 0.00999,0 0.1912353,0.083891 0.4027687,0.1864253 0.3178016,0.1540438 0.4120787,0.2164841 0.5427681,0.3594794 0.094857,0.1037878 0.184061,0.2422756 0.2228682,0.3459969 0.064183,0.1715459 0.064706,0.204734 0.064706,4.1080989 v 3.935154 l -0.067306,0.179893 C 9.2721406,14.908938 8.6431969,15.173087 8.125,14.958638 Z m 0.6262494,-0.499349 c 0.09323,-0.0493 0.1588519,-0.115024 0.2084003,-0.208721 l 0.072321,-0.136761 -0.00817,-3.866718 -0.00817,-3.8667171 -0.094538,-0.134506 C 8.8287869,6.1145456 8.6342869,5.9969056 8.18337,5.7996709 7.9310816,5.6893181 7.6423653,5.5563359 7.3894581,5.4339972 7.2513166,5.3671737 7.126455,5.3125 7.1119881,5.3125 7.0975212,5.3125 6.9574212,5.2509356 6.8006547,5.17569 6.6438884,5.1004447 6.4453125,5.0078053 6.359375,4.9698253 6.2734375,4.931845 6.1328125,4.8683887 6.046875,4.8288109 5.9609375,4.7892334 5.8203125,4.7253619 5.734375,4.6868741 5.6484375,4.6483863 5.5007812,4.5822644 5.40625,4.5399362 5.3117187,4.4976084 5.1970491,4.4431816 5.1514284,4.4189881 c -0.1473447,-0.07814 -0.1513428,-0.068865 -0.1528,0.3544494 -9.125e-4,0.2650831 -0.016444,0.4402741 -0.046405,0.5234375 -0.024768,0.06875 -0.045244,0.1262162 -0.045503,0.1277025 -2.5e-4,0.00149 0.073358,0.038489 0.1635919,0.082228 0.5662822,0.2744928 0.7004637,0.3369444 0.7239494,0.3369444 0.014467,0 0.1545669,0.061564 0.3113334,0.13681 0.1567663,0.075245 0.3553422,0.1678847 0.4412797,0.2058647 0.085937,0.03798 0.2265625,0.1014365 0.3125,0.1410144 0.085937,0.039578 0.2265625,0.103449 0.3125,0.1419368 C 7.4057725,6.5741287 7.6237447,6.6729694 7.7833037,6.7466312 7.8617772,6.7828591 7.9426366,6.8125 7.9629912,6.8125 7.9912597,6.8125 8,7.5610234 8,9.9819003 v 3.1694007 l -0.1328125,-0.07121 c -0.073047,-0.03917 -0.2136719,-0.115395 -0.3125,-0.1694 -0.1989266,-0.108705 -0.4155972,-0.226957 -0.6875,-0.375215 -0.098828,-0.05389 -0.2535156,-0.138263 -0.34375,-0.1875 C 6.2710934,12.210281 6.0341203,12.081035 5.828125,11.96875 5.725,11.912538 5.5632812,11.824359 5.46875,11.772797 5.3742187,11.721234 5.2195312,11.636859 5.125,11.585297 5.0304687,11.533734 4.8828125,11.453163 4.796875,11.40625 4.7109375,11.359337 4.55625,11.274954 4.453125,11.218733 4.35,11.162512 4.1742187,11.066632 4.0625,11.005667 3.9507813,10.944701 3.7890625,10.856906 3.703125,10.810565 L 3.546875,10.726309 3.5388659,8.3631544 3.5308572,6 H 3.0154286 2.5 v 2.5526338 c 0,2.5159402 9.281e-4,2.5545502 0.064562,2.6860012 0.062255,0.128601 0.2507705,0.274892 0.544813,0.422782 0.051563,0.02593 0.1746094,0.09163 0.2734375,0.145993 0.1719788,0.0946 0.2890384,0.158597 0.6875,0.375863 0.098828,0.05389 0.2605469,0.142066 0.359375,0.195954 0.098828,0.05389 0.25,0.13636 0.3359375,0.183273 0.085937,0.04691 0.240625,0.131288 0.34375,0.1875 0.3200228,0.17444 0.4930034,0.268958 0.6875,0.375658 0.103125,0.05657 0.3,0.161946 0.4375,0.23416 0.1375,0.07221 0.3273437,0.173584 0.421875,0.225264 0.1675037,0.09158 0.3282269,0.179283 0.6953125,0.379441 0.098828,0.05389 0.2605469,0.142485 0.359375,0.196883 0.7256706,0.399433 0.8052097,0.422208 1.0403119,0.297883 z M 7.4767475,7.1850447 C 7.4637553,7.1731784 7.25625,7.0759981 7.015625,6.9690884 6.775,6.8621791 6.5640625,6.7638381 6.546875,6.7505534 6.5296875,6.7372687 6.4804687,6.7157656 6.4375,6.7027691 6.3945312,6.6897722 6.1896138,6.5983875 5.9821281,6.4996916 5.7746422,6.4009959 5.5707359,6.3095747 5.5290031,6.2965334 5.48727,6.2834922 5.3898437,6.2406878 5.3125,6.2014125 5.1149775,6.1011106 4.7171078,5.91596 4.6186556,5.8785284 4.5542419,5.8540384 4.5086959,5.8603187 4.4120378,5.9070191 4.3438431,5.9399669 4.2302681,5.9761637 4.1596487,5.9874562 L 4.03125,6.0079881 v 2.1935697 2.1935702 l 1.7265625,0.941588 1.7265625,0.941589 0.008,-2.5358425 C 7.496775,8.3477491 7.489745,7.1969112 7.47675,7.1850447 Z M 4,4 V 3 H 3 2 v 1 1 h 1 1 z"
       id="path821"
       inkscape:connector-curvature="0" />
    <path
       style="fill:#323232;stroke-width:0.000357143"
       d="M 9.2723953,14.706924 C 9.4751116,14.474847 9.53125,14.288238 9.53125,13.846469 v -0.369936 l 2.25,-1.226533 2.25,-1.226533 V 7.5150766 c 0,-2.7779763 -0.0081,-3.5114744 -0.03906,-3.5232063 -0.02149,-0.00815 -1.262571,-0.4597119 -2.757969,-1.003473 L 8.5153128,1.9997406 6.7654687,2.6365137 5.015625,3.2732869 4.9965637,3.0038309 C 4.9765044,2.7202623 4.9463159,2.6262541 4.8094803,2.4212418 L 4.7256263,2.2956086 6.4800006,1.6556168 8.234375,1.015625 h 0.28125 0.28125 l 2.734375,0.9957692 c 1.503906,0.5476731 2.810843,1.0315841 2.904305,1.0753577 0.209259,0.098009 0.400424,0.28487 0.502691,0.4913731 l 0.07738,0.15625 v 3.78125 3.78125 l -0.07713,0.15625 c -0.162057,0.328308 -0.175241,0.336556 -2.969896,1.857918 -1.435075,0.78123 -2.6584457,1.44884 -2.718602,1.483578 l -0.109375,0.06316 z"
       id="path819"
       inkscape:connector-curvature="0" />
  </g>
</svg>
