<?xml version="1.0" encoding="UTF-8" standalone="no"?>
<!-- Created with Inkscape (http://www.inkscape.org/) -->

<svg
   version="1.1"
   id="svg2"
   width="1600"
   height="1600"
   viewBox="0 0 1600 1600"
   sodipodi:docname="loopsel.svg"
   inkscape:version="1.4 (86a8ad7, 2024-10-11)"
   xml:space="preserve"
   xmlns:inkscape="http://www.inkscape.org/namespaces/inkscape"
   xmlns:sodipodi="http://sodipodi.sourceforge.net/DTD/sodipodi-0.dtd"
   xmlns="http://www.w3.org/2000/svg"
   xmlns:svg="http://www.w3.org/2000/svg"
   xmlns:rdf="http://www.w3.org/1999/02/22-rdf-syntax-ns#"
   xmlns:cc="http://creativecommons.org/ns#"
   xmlns:dc="http://purl.org/dc/elements/1.1/"><metadata
     id="metadata8"><rdf:RDF><cc:Work
         rdf:about=""><dc:format>image/svg+xml</dc:format><dc:type
           rdf:resource="http://purl.org/dc/dcmitype/StillImage" /></cc:Work></rdf:RDF></metadata><defs
     id="defs6" /><sodipodi:namedview
     pagecolor="#808080"
     bordercolor="#666666"
     borderopacity="1"
     objecttolerance="10"
     gridtolerance="10"
     guidetolerance="10"
     inkscape:pageopacity="0"
     inkscape:pageshadow="2"
     inkscape:window-width="1920"
     inkscape:window-height="1009"
     id="namedview4"
     showgrid="false"
     inkscape:zoom="0.1767767"
     inkscape:cx="240.41631"
     inkscape:cy="373.35238"
     inkscape:window-x="-8"
     inkscape:window-y="-8"
     inkscape:window-maximized="1"
     inkscape:current-layer="LOOPSEL"
     inkscape:showpageshadow="0"
     inkscape:pagecheckerboard="true"
     inkscape:deskcolor="#d1d1d1" /><g
     id="LOOPSEL"
     transform="matrix(100,0,0,100,0,4.9999997e-5)"
     style="stroke-width:0.0114285"><path
       style="fill:none;stroke-width:0.000357143"
       d="M 0,8 V 0 h 8 8 v 8 8 H 8 0 Z m 8.8732344,6.972296 c 0.085335,-0.03242 1.4037776,-0.739066 2.9298706,-1.570313 2.971922,-1.618775 2.972697,-1.619256 3.135393,-1.948858 l 0.07713,-0.15625 v -3.78125 -3.78125 l -0.07738,-0.15625 C 14.835979,3.3716219 14.644814,3.1847606 14.435555,3.0867519 14.342093,3.0429783 13.035156,2.5590673 11.53125,2.0113942 L 8.796875,1.015625 8.5,1.0182072 8.203125,1.0207894 6.4850591,1.6510196 C 5.5401228,1.9976464 4.7551566,2.28125 4.7406897,2.28125 4.7262227,2.28125 4.6547497,2.240219 4.5818609,2.190071 4.3080034,2.0016514 4.2595272,1.9962405 2.9363598,2.0063979 L 1.734375,2.015625 1.578125,2.0930044 C 1.3789118,2.1916604 1.1916604,2.3789118 1.0930044,2.578125 L 1.015625,2.734375 V 4 5.265625 l 0.077379,0.15625 C 1.2413691,5.7214634 1.5453358,5.9461766 1.8606896,5.9894006 L 2,6.0084953 v 2.603955 c 0,2.5308977 0.00176,2.6086607 0.06275,2.7716697 0.085053,0.227325 0.2395683,0.398539 0.5087091,0.563688 0.1239787,0.07607 0.9496347,0.53159 1.8347909,1.012255 0.8851562,0.480665 2.0453125,1.110976 2.578125,1.400692 0.5328125,0.289716 1.0460938,0.558763 1.140625,0.597883 0.2202881,0.09116 0.5294066,0.09681 0.7482344,0.01366 z"
       id="path831"
       inkscape:connector-curvature="0" /><path
       style="fill:#fefefe;stroke-width:0.000357143"
       d="M 8.4703463,5.0662894 C 8.3487553,4.8695512 8.1321166,4.7051278 7.7639407,4.5301453 7.5663185,4.4362216 7.3975069,4.359375 7.3888041,4.359375 7.3700444,4.359375 6.8875385,4.1350837 6.6867544,4.0330297 6.6094106,3.9937175 6.5119844,3.9508828 6.4702513,3.9378416 6.4285185,3.9248003 6.2210928,3.8314978 6.009306,3.7305028 5.7975191,3.6295075 5.6151006,3.546875 5.6039313,3.546875 5.5927623,3.546875 5.5119063,3.511409 5.4242516,3.468062 5.3365969,3.4247141 5.0047232,3.2725481 4.6867544,3.1299153 L 4.1086294,2.8705828 V 2.6108091 2.351035 L 5.8586625,1.7144591 7.6086957,1.0778832 10.343037,2.0724311 c 1.503888,0.5470014 2.734342,1.0072098 2.734342,1.0226855 0,0.024296 -4.4644902,2.0745596 -4.5208884,2.076164 -0.011489,3.282e-4 -0.050254,-0.046919 -0.086144,-0.1049912 z"
       id="path829"
       inkscape:connector-curvature="0" /><path
       style="fill:#6598cb;stroke-width:0.000357143;fill-opacity:1"
       d="M 4.8508169,10.414841 3.1242544,9.473253 V 7.2796828 5.0861131 l 0.1283987,-0.020532 c 0.070619,-0.011292 0.1841944,-0.047489 0.2523891,-0.080437 0.096658,-0.0467 0.1422041,-0.052981 0.2066178,-0.028491 0.098452,0.037432 0.4963219,0.2225822 0.6938444,0.3228841 0.077344,0.039275 0.17477,0.08208 0.2165031,0.095121 0.041733,0.013041 0.2456391,0.1044625 0.453125,0.2031582 0.2074857,0.098696 0.4124031,0.1900806 0.4553719,0.2030775 0.042969,0.012996 0.092187,0.0345 0.109375,0.047784 0.017188,0.013285 0.228125,0.1116257 0.46875,0.218535 0.240625,0.1069097 0.4481303,0.20409 0.4611225,0.2159563 0.012993,0.011867 0.020024,1.1627044 0.015625,2.5574178 l -0.008,2.535843 z"
       id="path827"
       inkscape:connector-curvature="0" /><path
       style="fill:#fecb32;stroke-width:0.000357143"
       d="M 7.2444388,13.473906 C 7.1009935,13.399398 6.90277,13.293929 6.8039419,13.239531 6.7051138,13.185133 6.543395,13.096536 6.4445669,13.042648 6.0774813,12.84249 5.9167581,12.754782 5.7492544,12.663207 c -0.094531,-0.05168 -0.284375,-0.153049 -0.421875,-0.225264 -0.1375,-0.07221 -0.334375,-0.177586 -0.4375,-0.23416 -0.1944966,-0.1067 -0.3674772,-0.201218 -0.6875,-0.375658 -0.103125,-0.05621 -0.2578125,-0.140587 -0.34375,-0.1875 C 3.7726919,11.593712 3.62152,11.511239 3.5226919,11.457352 3.4238638,11.403464 3.262145,11.315286 3.1633169,11.261398 2.7648553,11.044133 2.6477956,10.980135 2.4758169,10.885535 2.3769888,10.831173 2.2539419,10.765476 2.2023794,10.739543 1.9083369,10.591652 1.7198212,10.445361 1.6575664,10.31676 1.5939325,10.185309 1.5930044,10.146699 1.5930044,7.6307588 V 5.078125 H 2.108433 2.6238616 l 0.00801,2.3631544 0.00801,2.3631546 0.15625,0.08426 c 0.085937,0.04634 0.2476563,0.134136 0.359375,0.195102 0.1117187,0.06096 0.2875,0.156845 0.390625,0.213066 0.103125,0.05622 0.2578125,0.140604 0.34375,0.187517 0.085937,0.04691 0.2335937,0.127484 0.328125,0.179047 0.094531,0.05156 0.2492187,0.135937 0.34375,0.1875 0.094531,0.05156 0.25625,0.139741 0.359375,0.195953 0.2059953,0.112285 0.4429684,0.241531 0.6953125,0.379227 0.090234,0.04924 0.2449219,0.133612 0.34375,0.1875 0.2719028,0.148258 0.4885734,0.26651 0.6875,0.375215 0.098828,0.05401 0.2394531,0.130235 0.3125,0.1694 l 0.1328103,0.07121 V 9.0600253 c 0,-2.4208769 -0.00874,-3.1694003 -0.037009,-3.1694003 -0.020355,0 -0.101214,-0.029641 -0.1796875,-0.065869 C 6.7167491,5.7510944 6.4987769,5.6522537 6.2648794,5.5475009 6.1789419,5.5090131 6.0383169,5.4451416 5.9523794,5.4055641 5.8664419,5.3659862 5.7258169,5.30253 5.6398794,5.2645497 5.5539419,5.2265697 5.355366,5.1339303 5.1985997,5.058685 5.0418331,4.9834394 4.9017331,4.921875 4.8872663,4.921875 4.8637803,4.921875 4.7295991,4.859423 4.1633169,4.5849306 4.0730829,4.5411916 3.9994663,4.5041886 3.999725,4.5027026 3.999975,4.5012126 4.02046,4.4437496 4.045228,4.3750001 4.075189,4.2918371 4.09072,4.1166457 4.091633,3.8515626 c 0.00146,-0.4233144 0.00546,-0.4325891 0.1528,-0.3544494 0.045621,0.024193 0.1602903,0.07862 0.2548216,0.1209481 0.094531,0.042328 0.2421875,0.1084501 0.328125,0.1469379 0.085937,0.038488 0.2265625,0.1023593 0.3125,0.1419368 0.085937,0.039578 0.2265625,0.1030341 0.3125,0.1410144 0.085937,0.03798 0.2845134,0.1306194 0.4412797,0.2058647 0.1567665,0.075246 0.2968665,0.13681 0.3113334,0.13681 0.014467,0 0.1393285,0.054674 0.27747,0.1214972 0.2529072,0.1223387 0.5416235,0.2553209 0.7939119,0.3656737 0.4509169,0.1972347 0.6454169,0.3148747 0.7377166,0.446195 l 0.094538,0.134506 0.00817,3.866717 0.00817,3.866718 -0.072321,0.136761 c -0.082326,0.155681 -0.2809259,0.280682 -0.4459428,0.280682 -0.058738,0 -0.2112872,-0.05705 -0.3622725,-0.135469 z M 1.0930044,3.078125 v -1 h 1 1 v 1 1 h -1 -1 z"
       id="path825"
       inkscape:connector-curvature="0" /><path
       style="fill:#989898;stroke-width:0.000357143"
       d="m 8.6242544,8.9894034 c 0,-2.939325 -0.00748,-3.5808806 -0.042941,-3.6813778 L 8.5383725,5.1863181 10.636001,4.2344778 C 11.789696,3.7109656 12.82152,3.2389844 12.928942,3.1856303 l 0.195312,-0.097007 V 6.5949515 10.10128 l -2.179687,1.18746 c -1.1988286,0.653104 -2.2113282,1.203857 -2.2500001,1.223898 l -0.070312,0.03644 z"
       id="path823"
       inkscape:connector-curvature="0" /><path
       style="fill:#983200;stroke-width:0.000357143"
       d="M 7.2180044,14.036763 C 7.1234732,13.997643 6.6101919,13.728596 6.0773794,13.43888 5.5445669,13.149164 4.3844106,12.518853 3.4992544,12.038188 2.6140982,11.557522 1.7884422,11.102008 1.6644635,11.025933 1.3953227,10.860784 1.2408075,10.68957 1.1557544,10.462245 1.0947649,10.299236 1.0930044,10.221473 1.0930044,7.6905753 V 5.0866203 L 0.953694,5.0675256 C 0.6383402,5.0243016 0.3343735,4.7995884 0.1860088,4.5 L 0.1086294,4.34375 V 3.078125 1.8125 L 0.1860084,1.65625 C 0.2846648,1.4570368 0.4719162,1.2697854 0.6711294,1.1711294 l 0.15625,-0.077379 h 1.265625 1.265625 l 0.15625,0.077379 C 3.7147413,1.270106 3.9019203,1.4576642 3.99902,1.6562496 4.068137,1.7976057 4.077003,1.862937 4.092024,2.3416305 l 0.016605,0.5291311 0.578125,0.2592431 c 0.3179688,0.1425837 0.6498425,0.2947094 0.7374972,0.3380569 0.087655,0.043347 0.1685106,0.078813 0.1796797,0.078813 0.011169,0 0.1935878,0.082632 0.4053747,0.1836278 0.2117868,0.100995 0.4192125,0.1942975 0.4609453,0.2073388 0.041733,0.013041 0.1391593,0.055876 0.2165031,0.095188 0.2124106,0.1079637 0.6837691,0.3263453 0.7043888,0.3263453 0.00999,0 0.1912353,0.083891 0.4027687,0.1864253 0.3178016,0.1540438 0.4120787,0.2164841 0.5427681,0.3594794 0.094857,0.1037878 0.184061,0.2422756 0.2228682,0.3459969 0.064183,0.1715459 0.064706,0.204734 0.064706,4.1080989 v 3.935154 l -0.067306,0.179893 c -0.1918032,0.512641 -0.8207469,0.77679 -1.3389438,0.562341 z m 0.6262494,-0.499349 c 0.09323,-0.0493 0.1588519,-0.115024 0.2084003,-0.208721 l 0.072321,-0.136761 -0.00817,-3.866718 -0.00817,-3.8667171 -0.094538,-0.134506 C 7.9217913,5.1926706 7.7272913,5.0750306 7.2763744,4.8777959 7.024086,4.7674431 6.7353697,4.6344609 6.4824625,4.5121222 6.344321,4.4452987 6.2194594,4.390625 6.2049925,4.390625 c -0.014467,0 -0.1545669,-0.061564 -0.3113334,-0.13681 C 5.7368928,4.1785697 5.5383169,4.0859303 5.4523794,4.0479503 5.3664419,4.00997 5.2258169,3.9465137 5.1398794,3.9069359 5.0539419,3.8673584 4.9133169,3.8034869 4.8273794,3.7649991 4.7414419,3.7265113 4.5937856,3.6603894 4.4992544,3.6180612 4.4047231,3.5757334 4.2900535,3.5213066 4.2444328,3.4971131 4.0970881,3.4189731 4.09309,3.4282481 4.0916328,3.8515625 4.0907203,4.1166456 4.0751888,4.2918366 4.0452278,4.375 c -0.024768,0.06875 -0.045244,0.1262162 -0.045503,0.1277025 -2.5e-4,0.00149 0.073358,0.038489 0.1635919,0.082228 0.5662822,0.2744928 0.7004637,0.3369444 0.7239494,0.3369444 0.014467,0 0.1545669,0.061564 0.3113334,0.13681 0.1567663,0.075245 0.3553422,0.1678847 0.4412797,0.2058647 0.085937,0.03798 0.2265625,0.1014365 0.3125,0.1410144 0.085937,0.039578 0.2265625,0.103449 0.3125,0.1419368 0.2338977,0.1047529 0.4518699,0.2035936 0.6114289,0.2772554 0.078473,0.036228 0.1593329,0.065869 0.1796875,0.065869 0.028269,0 0.037009,0.7485234 0.037009,3.1694003 v 3.1694007 l -0.1328125,-0.07121 c -0.073047,-0.03917 -0.2136719,-0.115395 -0.3125,-0.1694 -0.1989266,-0.108705 -0.4155972,-0.226957 -0.6875,-0.375215 -0.098828,-0.05389 -0.2535156,-0.138263 -0.34375,-0.1875 -0.2523441,-0.137695 -0.4893172,-0.266941 -0.6953125,-0.379226 -0.103125,-0.05621 -0.2648438,-0.144391 -0.359375,-0.195953 -0.094531,-0.05156 -0.2492188,-0.135938 -0.34375,-0.1875 -0.094531,-0.05156 -0.2421875,-0.132134 -0.328125,-0.179047 -0.085937,-0.04691 -0.240625,-0.131296 -0.34375,-0.187517 C 3.4430044,10.240637 3.2672231,10.144757 3.1555044,10.083792 3.0437857,10.022826 2.8820669,9.935031 2.7961294,9.88869 L 2.6398794,9.804434 2.6318703,7.4412794 2.6238616,5.078125 H 2.108433 1.5930044 v 2.5526338 c 0,2.5159402 9.281e-4,2.5545502 0.064562,2.6860012 0.062255,0.128601 0.2507705,0.274892 0.544813,0.422782 0.051563,0.02593 0.1746094,0.09163 0.2734375,0.145993 0.1719788,0.0946 0.2890384,0.158597 0.6875,0.375863 0.098828,0.05389 0.2605469,0.142066 0.359375,0.195954 0.098828,0.05389 0.25,0.13636 0.3359375,0.183273 0.085937,0.04691 0.240625,0.131288 0.34375,0.1875 0.3200228,0.17444 0.4930034,0.268958 0.6875,0.375658 0.103125,0.05657 0.3,0.161946 0.4375,0.23416 0.1375,0.07221 0.3273437,0.173584 0.421875,0.225264 0.1675037,0.09158 0.3282269,0.179283 0.6953125,0.379441 0.098828,0.05389 0.2605469,0.142485 0.359375,0.196883 0.7256706,0.399433 0.8052097,0.422208 1.0403119,0.297883 z M 6.5697519,6.2631697 C 6.5567597,6.2513034 6.3492544,6.1541231 6.1086294,6.0472134 5.8680044,5.9403041 5.6570669,5.8419631 5.6398794,5.8286784 5.6226919,5.8153937 5.5734731,5.7938906 5.5305044,5.7808941 5.4875356,5.7678972 5.2826182,5.6765125 5.0751325,5.5778166 4.8676466,5.4791209 4.6637403,5.3876997 4.6220075,5.3746584 4.5802744,5.3616172 4.4828481,5.3188128 4.4055044,5.2795375 4.2079819,5.1792356 3.8101122,4.994085 3.71166,4.9566534 3.6472463,4.9321634 3.6017003,4.9384437 3.5050422,4.9851441 3.4368475,5.0180919 3.3232725,5.0542887 3.2526531,5.0655812 L 3.1242544,5.0861131 V 7.2796828 9.473253 l 1.7265625,0.941588 1.7265625,0.941589 0.008,-2.5358425 c 0.0044,-1.3947134 -0.00263,-2.5455513 -0.015625,-2.5574178 z M 3.0930044,3.078125 v -1 h -1 -1 v 1 1 h 1 1 z"
       id="path821"
       inkscape:connector-curvature="0" /><path
       style="fill:#323232;stroke-width:0.000357143"
       d="M 8.3653997,13.785049 C 8.568116,13.552972 8.6242544,13.366363 8.6242544,12.924594 v -0.369936 l 2.2499996,-1.226533 2.25,-1.226533 V 6.5932016 c 0,-2.7779763 -0.0081,-3.5114744 -0.03906,-3.5232063 -0.02149,-0.00815 -1.262571,-0.4597119 -2.757969,-1.003473 L 7.6083172,1.0778656 5.8584731,1.7146387 4.1086294,2.3514119 4.0895681,2.0819559 C 4.0695088,1.7983873 4.0393203,1.7043791 3.9024847,1.4993668 L 3.8186307,1.3737336 5.573005,0.7337418 7.3273794,0.09375 h 0.28125 0.28125 l 2.7343746,0.9957692 c 1.503906,0.5476731 2.810843,1.0315841 2.904305,1.0753577 0.209259,0.098009 0.400424,0.28487 0.502691,0.4913731 L 14.10863,2.8125 V 6.59375 10.375 l -0.07713,0.15625 c -0.162057,0.328308 -0.175241,0.336556 -2.969896,1.857918 -1.4350746,0.78123 -2.6584453,1.44884 -2.7186016,1.483578 l -0.109375,0.06316 z"
       id="path819"
       inkscape:connector-curvature="0" /><path
       style="fill:#fefefe;stroke-width:0.000357143"
       d="m 12.184599,13.91633 c -0.875828,-1.902145 -0.918267,-1.985783 -1.041225,-2.052001 -0.07924,-0.04267 -0.143907,-0.0532 -0.244183,-0.03975 -0.14998,0.02012 -0.102289,-0.02419 -1.1468184,1.065504 l -0.475681,0.496248 V 9.4529912 5.5196523 l 0.136606,0.1402137 c 0.07513,0.077117 1.2312264,1.3214637 2.5690934,2.7652137 l 2.432486,2.6250003 -0.968989,0.01563 c -0.856554,0.01381 -0.978741,0.02202 -1.053033,0.07075 -0.113868,0.07469 -0.18112,0.184479 -0.20022,0.326878 -0.01431,0.106703 0.05755,0.265889 0.707998,1.568328 0.586143,1.173677 0.7161,1.456589 0.682805,1.486444 -0.0464,0.04161 -0.849556,0.516865 -0.871015,0.515414 -0.0076,-5.15e-4 -0.245142,-0.50325 -0.527824,-1.117187 z"
       id="path823-0"
       inkscape:connector-curvature="0"
       sodipodi:nodetypes="cccsccccsccssscscc" /><path
       style="fill:#000000;stroke-width:0.000357143"
       d="m 12.418131,16.0172 c -0.06566,-0.02257 -0.138394,-0.06006 -0.161639,-0.0833 -0.02324,-0.02324 -0.348132,-0.700865 -0.72197,-1.505821 -0.373837,-0.804955 -0.690343,-1.46197 -0.703344,-1.460032 -0.013,0.0019 -0.399352,0.393843 -0.8585574,0.870903 -0.459206,0.47706 -0.870443,0.891899 -0.913861,0.921864 -0.118678,0.0819 -0.320205,0.07136 -0.431867,-0.0226 -0.05065,-0.04262 -0.108164,-0.116449 -0.127804,-0.164063 -0.0264,-0.06399 -0.03357,-1.416528 -0.02749,-5.1860828 l 0.0082,-5.0995123 0.09245,-0.096497 c 0.05085,-0.053073 0.144736,-0.1121613 0.208637,-0.1313066 0.09812,-0.029397 0.133486,-0.025643 0.227432,0.024135 0.111554,0.059108 6.7088824,7.1434497 6.7484874,7.2466597 0.06911,0.180089 -0.03234,0.453184 -0.199821,0.537932 -0.05734,0.02902 -0.360369,0.03918 -1.178749,0.03952 -0.716717,3.13e-4 -1.101563,0.01143 -1.101563,0.03186 0,0.01727 0.288281,0.607827 0.640625,1.31235 0.724649,1.448961 0.730846,1.468167 0.539063,1.670643 -0.103541,0.109312 -1.691043,1.069052 -1.838059,1.111215 -0.0474,0.0136 -0.130166,0.0062 -0.20019,-0.01786 z m 0.716167,-1.222485 c 0.22441,-0.131856 0.426523,-0.256332 0.44914,-0.276612 0.03329,-0.02985 -0.09666,-0.312767 -0.682805,-1.486444 -0.650448,-1.302439 -0.722309,-1.461625 -0.707998,-1.568328 0.0191,-0.142399 0.08635,-0.252193 0.20022,-0.326878 0.07429,-0.04873 0.196479,-0.05694 1.053033,-0.07075 l 0.968989,-0.01563 -2.432486,-2.6250003 C 10.644524,6.9813297 9.4884316,5.7369835 9.4132976,5.659866 L 9.2766916,5.5196523 v 3.9333389 3.9333398 l 0.475681,-0.49625 c 1.0445294,-1.089696 0.9968384,-1.045387 1.1468184,-1.065504 0.100276,-0.01345 0.16494,-0.0029 0.244183,0.03975 0.122958,0.06622 0.165397,0.149856 1.041225,2.052001 0.282682,0.613937 0.520203,1.116672 0.527824,1.117187 0.0076,5.16e-4 0.197464,-0.106945 0.421875,-0.238802 z"
       id="path819-9"
       inkscape:connector-curvature="0"
       sodipodi:nodetypes="ccscscsccccsscccssscccssssccccscccsscssss" /></g></svg>
