<?xml version="1.0" encoding="UTF-8" standalone="no"?>
<!-- Created with Inkscape (http://www.inkscape.org/) -->

<svg
   version="1.1"
   id="svg2"
   width="1600"
   height="1600"
   viewBox="0 0 1600 1600"
   sodipodi:docname="loop_back.svg"
   inkscape:version="1.2.2 (732a01da63, 2022-12-09)"
   xmlns:inkscape="http://www.inkscape.org/namespaces/inkscape"
   xmlns:sodipodi="http://sodipodi.sourceforge.net/DTD/sodipodi-0.dtd"
   xmlns="http://www.w3.org/2000/svg"
   xmlns:svg="http://www.w3.org/2000/svg"
   xmlns:rdf="http://www.w3.org/1999/02/22-rdf-syntax-ns#"
   xmlns:cc="http://creativecommons.org/ns#"
   xmlns:dc="http://purl.org/dc/elements/1.1/">
  <metadata
     id="metadata8">
    <rdf:RDF>
      <cc:Work
         rdf:about="">
        <dc:format>image/svg+xml</dc:format>
        <dc:type
           rdf:resource="http://purl.org/dc/dcmitype/StillImage" />
      </cc:Work>
    </rdf:RDF>
  </metadata>
  <defs
     id="defs6" />
  <sodipodi:namedview
     pagecolor="#808080"
     bordercolor="#666666"
     borderopacity="1"
     objecttolerance="10"
     gridtolerance="10"
     guidetolerance="10"
     inkscape:pageopacity="0"
     inkscape:pageshadow="2"
     inkscape:window-width="2560"
     inkscape:window-height="1009"
     id="namedview4"
     showgrid="true"
     inkscape:zoom="0.35355339"
     inkscape:cx="731.14841"
     inkscape:cy="890.95455"
     inkscape:window-x="-8"
     inkscape:window-y="-8"
     inkscape:window-maximized="1"
     inkscape:current-layer="LOOP_BACK"
     inkscape:showpageshadow="0"
     inkscape:pagecheckerboard="true"
     inkscape:deskcolor="#d1d1d1">
    <inkscape:grid
       type="xygrid"
       id="grid249"
       spacingx="100"
       originx="1600"
       originy="0"
       spacingy="100" />
  </sodipodi:namedview>
  <g
     id="LOOP_BACK"
     transform="matrix(100,0,0,100,0,4.9999997e-5)"
     style="stroke-width:0.0114286">
    <path
       style="fill:none;stroke-width:0.000357143"
       d="M 0,8 V 0 h 8 8 v 8 8 H 8 0 Z m 12.518545,6.436848 c 0.101519,-0.03473 0.254893,-0.11148 0.34083,-0.170549 0.195551,-0.13441 2.355889,-2.303429 2.448613,-2.458452 0.03751,-0.06272 0.09606,-0.194995 0.130108,-0.293955 C 15.497031,11.342597 15.5,11.246741 15.5,9.515625 15.5,7.7727541 15.497378,7.6896234 15.436848,7.5127047 15.402115,7.4111859 15.325368,7.2578125 15.266299,7.171875 15.131889,6.9763241 12.96287,4.8159862 12.807847,4.7232616 12.745131,4.6857494 12.612852,4.6272009 12.513892,4.5931537 12.338892,4.5329447 12.241767,4.53125 8.9662766,4.53125 H 5.5985878 L 5.9201697,4.2109375 C 6.3262191,3.8064909 6.3818341,3.6851009 6.3996156,3.1644581 6.4097912,2.8665081 6.4013437,2.7824423 6.3438675,2.6097281 6.2089144,2.204194 5.834175,1.8263773 5.4322806,1.6906555 5.2853356,1.6410313 5.1604212,1.625 4.9206994,1.625 4.5526459,1.625 4.3268822,1.6876503 4.078125,1.8588174 3.8812156,1.9943086 0.81498772,5.0692322 0.72305381,5.2234034 0.58548709,5.4540997 0.53125,5.6781194 0.53125,6.015625 c 0,0.3375056 0.0542371,0.5615253 0.19180381,0.7922216 0.0919339,0.1541712 3.15816179,3.2290944 3.35507119,3.3645854 0.2487572,0.171168 0.4745209,0.233818 0.8425744,0.233818 0.2397218,0 0.3646362,-0.01603 0.5115812,-0.06566 0.3974885,-0.134233 0.77408,-0.5108249 0.9083138,-0.9083134 0.049624,-0.146945 0.065656,-0.2718593 0.065656,-0.5115812 0,-0.52061 -0.1445916,-0.8276185 -0.5746344,-1.2201103 L 5.6118356,7.5 h 2.8734691 2.8734693 l 0.586238,0.5856291 0.586238,0.585629 v 0.8437578 0.8437581 l -0.585629,0.586238 -0.585629,0.586238 h -1.330178 c -1.268964,0 -1.3391252,0.003 -1.5245946,0.06566 -0.3974885,0.134233 -0.77408,0.510825 -0.9083138,0.908313 -0.095961,0.284155 -0.092553,0.761585 0.0074,1.036955 0.1606479,0.44258 0.484036,0.74599 0.9581941,0.899001 0.1561809,0.0504 0.3362166,0.05562 1.9716703,0.05714 1.726653,0.0016 1.807297,-8.84e-4 1.984375,-0.06147 z"
       id="path827"
       inkscape:connector-curvature="0" />
    <path
       style="fill:#fefefe;stroke-width:0.000357143"
       d="M 11.782898,12.701269 C 11.626221,12.617912 11.5,12.419833 11.5,12.257318 c 0,-0.119053 0.08544,-0.293519 0.206622,-0.42191 0.112186,-0.118861 0.256276,-0.126355 0.450877,-0.02345 0.152574,0.08068 0.280001,0.280338 0.280001,0.438713 0,0.141359 -0.115875,0.353589 -0.232364,0.425583 -0.165403,0.102225 -0.26592,0.108179 -0.422238,0.02501 z m 1.497103,-1.56448 c -0.243159,-0.128585 -0.358427,-0.476158 -0.217379,-0.655471 0.07864,-0.09998 0.302264,-0.210068 0.426704,-0.210068 0.158375,0 0.35803,0.127427 0.438713,0.280001 0.08878,0.167891 0.09118,0.290899 0.0083,0.425031 -0.07205,0.116579 -0.284242,0.232468 -0.425648,0.232468 -0.05203,0 -0.15583,-0.03238 -0.230673,-0.07196 z m 0,-2.4374996 c -0.165503,-0.08752 -0.293823,-0.2995856 -0.266292,-0.44008 0.0697,-0.3556722 0.468454,-0.5262122 0.780071,-0.3336225 0.135639,0.08383 0.252791,0.3114137 0.222592,0.4324169 -0.03822,0.153129 -0.1413,0.2826359 -0.277417,0.348529 -0.172707,0.083606 -0.290676,0.081744 -0.458954,-0.00724 z M 4.3766481,5.7012694 C 4.2211331,5.61853 4.09375,5.420095 4.09375,5.2605763 4.09375,5.1207778 4.2091862,4.9072362 4.3225297,4.8373644 4.4896034,4.73437 4.5777238,4.7266663 4.7323803,4.8015344 5.1726869,5.0146831 5.0868028,5.6632791 4.6057906,5.7575406 4.5443403,5.7695825 4.4713644,5.7516616 4.3766481,5.7012694 Z m -0.096647,-2.50198 C 3.929265,3.0138159 3.9133056,2.5300533 4.2522212,2.3572361 c 0.1448729,-0.073872 0.2738882,-0.068782 0.4365282,0.017225 0.3507356,0.1854735 0.366695,0.669236 0.027779,0.8420535 -0.1448728,0.073872 -0.2738881,0.068782 -0.4365273,-0.017225 z"
       id="path825"
       inkscape:connector-curvature="0" />
    <path
       style="fill:#fdfdfd;stroke-width:0.000357143"
       d="m 8.8425006,12.699289 c -0.3660422,-0.193567 -0.3584862,-0.71508 0.012966,-0.894897 0.1307984,-0.06332 0.1713768,-0.06483 1.5308554,-0.05691 l 1.396496,0.0081 -0.09896,0.108335 C 11.568005,11.990793 11.5,12.13925 11.5,12.265331 c 0,0.15402 0.129154,0.354189 0.280001,0.433958 l 0.136079,0.07196 H 10.44733 8.9785803 Z m 3.3149984,0 c 0.152574,-0.08068 0.280001,-0.280338 0.280001,-0.438713 0,-0.143755 -0.116017,-0.353677 -0.23668,-0.428251 -0.05899,-0.03646 -0.170057,-0.07566 -0.246825,-0.08712 l -0.13958,-0.02083 0.592793,-0.592484 L 13,10.539407 V 9.4472884 8.3551697 l 0.07196,0.1360797 c 0.08161,0.1543209 0.280747,0.2800006 0.443664,0.2800006 0.162917,0 0.362058,-0.1256797 0.443664,-0.2800006 l 0.07196,-0.1360797 -0.0021,1.2314778 c -0.0018,1.0381975 -0.0083,1.2117555 -0.04146,1.1058225 -0.05959,-0.190169 -0.135542,-0.286577 -0.2814,-0.357185 -0.167581,-0.08113 -0.276863,-0.08083 -0.446307,0.0012 -0.263735,0.127672 -0.327499,0.328526 -0.188027,0.592271 0.07977,0.150847 0.279938,0.280001 0.433958,0.280001 0.126962,0 0.292435,-0.07563 0.389694,-0.178103 l 0.08307,-0.08752 -0.05597,0.09715 c -0.09482,0.164588 -1.58665,1.630573 -1.713067,1.683394 -0.172884,0.07224 -0.205768,0.05686 -0.05214,-0.02438 z M 13.014444,8.161875 C 13.067791,7.9311678 13.294895,7.74 13.515625,7.74 c 0.22073,0 0.447834,0.1911678 0.501181,0.421875 0.01791,0.077462 0.0085,0.069604 -0.0539,-0.045227 -0.0855,-0.1572334 -0.28419,-0.2828981 -0.447281,-0.2828981 -0.163091,0 -0.361776,0.1256647 -0.447281,0.2828981 -0.06245,0.1148313 -0.07181,0.1226888 -0.0539,0.045227 z M 1.3112507,6.1680394 C 1.2182404,6.1188544 1.1523956,6.0530097 1.1032106,5.9599994 1.0148623,5.79293 1.0123182,5.6733175 1.0935899,5.5076788 1.1343136,5.4246809 1.6835488,4.8550837 2.6775463,3.865 3.5144353,3.0314063 4.1619419,2.3954921 4.1164497,2.4518574 3.7511847,2.9044256 4.3668244,3.5200653 4.8193925,3.1548003 4.8757578,3.1093081 4.2398438,3.7568147 3.40625,4.5937037 2.4161663,5.5877012 1.8465692,6.1369366 1.7635711,6.17766 1.5979326,6.2589319 1.4783199,6.2563878 1.3112507,6.1680394 Z m 2.9687499,-0.46875 C 4.1274266,5.6186062 4,5.4189509 4,5.2605763 4,5.0350484 4.1890097,4.8082897 4.421875,4.7544441 c 0.077462,-0.017912 0.069604,-0.00855 -0.045227,0.0539 -0.1572333,0.085505 -0.282898,0.28419 -0.282898,0.4472809 0,0.1629166 0.1256797,0.3620575 0.2800006,0.4436644 0.074844,0.039578 0.114986,0.071961 0.089205,0.071961 -0.025781,0 -0.1081109,-0.032382 -0.182955,-0.071961 z m 0.4712488,0 C 4.9055703,5.6176825 5.03125,5.4185416 5.03125,5.255625 5.03125,5.0927084 4.9055703,4.8935675 4.7512494,4.8119606 L 4.6151697,4.74 h 3.71875 3.7187503 l 0.136079,0.071961 c 0.154321,0.081607 0.280001,0.2807478 0.280001,0.4436644 0,0.1629166 -0.12568,0.3620575 -0.280001,0.4436644 L 12.05267,5.77125 H 8.3339197 4.6151697 Z M 4.9456091,2.9379769 C 5.0413081,2.5783217 4.6929284,2.2299419 4.3332731,2.3256409 4.2186584,2.3561381 4.2103,2.3550063 4.2632416,2.3161582 4.425305,2.1972373 4.7096787,2.2357364 4.8725962,2.3986538 c 0.1629175,0.1629175 0.2014166,0.4472911 0.082496,0.6093546 -0.038848,0.052942 -0.03998,0.044583 -0.00948,-0.070031 z"
       id="path823"
       inkscape:connector-curvature="0" />
    <path
       style="fill:#cbcbcb;stroke-width:0.000357143"
       d="M 8.6975447,13.682437 C 8.6085381,13.65146 8.4851366,13.591974 8.4233191,13.550245 8.2922059,13.46174 8.1157603,13.213481 8.0621506,13.04208 8.0056541,12.861449 8.0346522,12.502188 8.1198156,12.32766 8.2475544,12.065882 8.5248769,11.844106 8.796875,11.786213 l 0.09375,-0.01995 -0.099685,0.06688 c -0.114825,0.07703 -0.22844,0.289622 -0.22844,0.427442 0,0.158375 0.1274266,0.35803 0.2800006,0.438713 l 0.1360797,0.07196 h 1.5633437 c 1.496424,0 1.568782,-0.0027 1.690397,-0.06209 0.07902,-0.03861 0.423538,-0.36059 0.911194,-0.851563 0.681557,-0.686193 0.790916,-0.809621 0.835937,-0.943478 0.04494,-0.133607 0.0518,-0.326452 0.0518,-1.4560229 0,-1.2988465 -1.87e-4,-1.3023493 -0.07196,-1.4380975 C 13.769086,7.6603219 13.238344,7.6614004 13.07224,8.0218066 13.0411,8.0893625 13.008594,8.1448106 13,8.1450216 12.991406,8.1452403 12.668648,7.8291894 12.28276,7.4427028 L 11.581145,6.74 7.9858853,6.7405166 4.390625,6.7410328 5.0679625,7.4132956 C 5.8649881,8.2043497 5.890625,8.2432594 5.890625,8.661875 5.890625,8.9904272 5.82702,9.1556275 5.6213234,9.3613234 5.4156275,9.5670197 5.2504272,9.630625 4.921875,9.630625 4.6882547,9.630625 4.6148559,9.61794 4.48846,9.5557203 4.3735747,9.4991669 3.95171,9.0962394 2.7665235,7.91108 1.1509369,6.2955306 1.0831442,6.2179766 1.0416708,5.93787 l -0.01773,-0.119745 0.075615,0.1389769 c 0.051396,0.094463 0.1192013,0.1620259 0.2116946,0.2109375 0.1670125,0.088318 0.2866199,0.090891 0.4523204,0.00973 C 1.9418152,6.0904591 4.9174731,3.1080634 4.983135,2.9509128 5.0496628,2.7916891 5.0434337,2.6791198 4.9592894,2.5200007 4.9101044,2.4269904 4.8442597,2.3611456 4.7512494,2.3119606 4.59213,2.2278164 4.4795609,2.2215871 4.3203372,2.2881151 4.1710622,2.3504861 1.1850621,5.3254316 1.0908712,5.505625 1.0327049,5.6169009 1.0277618,5.6203319 1.045849,5.536875 1.1022941,5.2764291 1.1955078,5.1715294 2.7665738,3.6004275 3.9508497,2.4161243 4.3740937,2.0118308 4.4886887,1.955419 4.7052634,1.8488054 5.1359581,1.8475412 5.3498397,1.9528912 5.6808347,2.1159268 5.8815769,2.4216304 5.9010594,2.7923245 5.9234669,3.2186718 5.9033844,3.249723 5.0855809,4.0531983 4.6913037,4.4405674 4.3174569,4.7872321 4.2548097,4.8235643 4.1233209,4.8998216 4,5.1089272 4,5.255625 4,5.4185416 4.1256797,5.6176825 4.2800006,5.6992894 L 4.4160803,5.77125 H 8.234375 12.05267 l 0.136079,-0.071961 c 0.152574,-0.080683 0.280001,-0.2803385 0.280001,-0.4387131 0,-0.1378204 -0.113615,-0.3504091 -0.22844,-0.4274419 l -0.09968,-0.066876 0.09375,0.019954 c 0.263454,0.056075 0.371168,0.1475947 1.487118,1.2635447 0.850135,0.8501353 1.129875,1.1489253 1.1875,1.2683675 l 0.07538,0.15625 v 1.78125 1.7812498 l -0.07538,0.15625 c -0.108733,0.225377 -2.230491,2.347135 -2.455868,2.455868 l -0.15625,0.07538 -1.71875,0.0072 c -1.5863394,0.0066 -1.7312172,0.0029 -1.8805803,-0.04913 z m 3.6009683,-2.629536 c 0.377224,-0.377905 0.689378,-0.68728 0.693675,-0.6875 0.0043,-2.19e-4 0.0078,0.03876 0.0078,0.08663 0,0.07134 -0.108182,0.195297 -0.600022,0.6875 C 11.887623,11.652268 11.786272,11.74 11.706303,11.74 c -0.08608,0 -0.0382,-0.05556 0.59221,-0.687099 z"
       id="path821"
       inkscape:connector-curvature="0" />
    <path
       style="fill:#323232;stroke-width:0.000357143"
       d="M 8.5625,14.181175 C 8.0883419,14.028164 7.7649537,13.724754 7.6043059,13.282174 c -0.099954,-0.27537 -0.1033612,-0.7528 -0.0074,-1.036955 0.1342338,-0.397488 0.5108253,-0.77408 0.9083138,-0.908313 0.1854694,-0.06263 0.2556306,-0.06566 1.5245943,-0.06566 h 1.330178 L 11.945621,10.685008 12.53125,10.09877 V 9.2550159 8.4112581 L 11.945012,7.8256291 11.358774,7.24 H 8.4853047 5.6118356 l 0.21978,0.2005891 C 6.2616584,7.8330809 6.40625,8.1400894 6.40625,8.6606994 c 0,0.2397219 -0.016031,0.3646362 -0.065656,0.5115812 -0.1342338,0.3974885 -0.5108253,0.7740804 -0.9083138,0.9083134 -0.146945,0.04963 -0.2718594,0.06566 -0.5115812,0.06566 -0.3680535,0 -0.5938172,-0.06265 -0.8425744,-0.233818 C 3.8812156,9.776941 0.81498772,6.7020178 0.72305381,6.5478466 0.58548709,6.3171503 0.53125,6.0931306 0.53125,5.755625 0.53125,5.4181194 0.58548709,5.1940997 0.72305381,4.9634034 0.81498772,4.8092322 3.8812156,1.7343086 4.078125,1.5988174 4.3268822,1.4276503 4.5526459,1.365 4.9206994,1.365 c 0.2397218,0 0.3646362,0.016031 0.5115812,0.065656 0.4018944,0.1357218 0.7766338,0.5135385 0.9115869,0.9190726 0.057476,0.1727142 0.065924,0.25678 0.055748,0.55473 C 6.3818345,3.4251014 6.3262195,3.5464914 5.9201696,3.950938 L 5.5985878,4.27125 h 3.3676888 c 3.2754904,0 3.3726154,0.00169 3.5476154,0.061904 0.09896,0.034047 0.231239,0.092596 0.293955,0.1301079 0.155023,0.092725 2.324042,2.2530625 2.458452,2.4486134 0.05907,0.085937 0.135816,0.2393109 0.170549,0.3408297 0.06053,0.1769184 0.06315,0.2600491 0.06315,2.00292 0,1.731116 -0.003,1.826972 -0.0619,1.998267 -0.03405,0.09896 -0.09259,0.231239 -0.130108,0.293955 -0.09272,0.155023 -2.253062,2.324042 -2.448613,2.458452 -0.08594,0.05907 -0.239311,0.135816 -0.34083,0.170549 -0.177078,0.06058 -0.257722,0.06308 -1.984375,0.06147 -1.6354534,-0.0015 -1.8154891,-0.0067 -1.97167,-0.05714 z m 3.890625,-0.532182 c 0.225377,-0.108733 2.347135,-2.230491 2.455868,-2.455868 l 0.07538,-0.15625 v -1.78125 -1.78125 l -0.07538,-0.15625 C 14.851368,7.1986828 14.571628,6.8998928 13.721493,6.0497575 12.551821,4.8800859 12.497984,4.8360587 12.158705,4.7717156 12.051558,4.7513956 10.625962,4.7395656 8.1910472,4.7387916 L 4.390625,4.7375831 5.0966709,4.0434791 C 5.9023219,3.2514544 5.9234616,3.2185734 5.9010594,2.7923246 5.8815769,2.4216305 5.6808347,2.1159269 5.3498397,1.9528913 5.1359581,1.8475412 4.7052634,1.8488054 4.4886888,1.9554191 4.2701206,2.0630139 1.229235,5.1039323 1.1216352,5.3225085 1.01366,5.5418476 1.0137479,5.9695785 1.1218133,6.1891098 c 0.1078504,0.2190944 3.1475438,3.2587553 3.3666466,3.3666106 0.1263959,0.06222 0.1997947,0.074905 0.433415,0.074905 0.3285522,0 0.4937525,-0.063605 0.6994484,-0.2693016 C 5.8270197,9.1556275 5.890625,8.9904272 5.890625,8.661875 5.890625,8.2432594 5.864988,8.2043497 5.0679625,7.4132956 L 4.390625,6.7410328 7.9857441,6.7405166 11.580863,6.74 12.290432,7.4493875 13,8.1587753 V 9.2555675 10.35236 L 12.30618,11.04618 11.61236,11.74 h -1.28629 c -0.7394281,0 -1.3573891,0.01348 -1.453525,0.03172 -0.4919041,0.09329 -0.8108728,0.44679 -0.8360919,0.926614 -0.013881,0.264102 0.025115,0.40727 0.1688181,0.619795 0.1217075,0.179994 0.262896,0.284483 0.4922735,0.364312 0.1493631,0.05198 0.2942409,0.05577 1.8805803,0.04913 l 1.71875,-0.0072 z"
       id="path819"
       inkscape:connector-curvature="0" />
  </g>
</svg>
