<?xml version="1.0" encoding="UTF-8" standalone="no"?>
<!-- Created with Inkscape (http://www.inkscape.org/) -->

<svg
   version="1.1"
   id="svg2"
   width="1600"
   height="1600"
   viewBox="0 0 1600 1600"
   sodipodi:docname="magic_tex.svg"
   inkscape:version="1.2.2 (732a01da63, 2022-12-09)"
   xmlns:inkscape="http://www.inkscape.org/namespaces/inkscape"
   xmlns:sodipodi="http://sodipodi.sourceforge.net/DTD/sodipodi-0.dtd"
   xmlns="http://www.w3.org/2000/svg"
   xmlns:svg="http://www.w3.org/2000/svg"
   xmlns:rdf="http://www.w3.org/1999/02/22-rdf-syntax-ns#"
   xmlns:cc="http://creativecommons.org/ns#"
   xmlns:dc="http://purl.org/dc/elements/1.1/">
  <metadata
     id="metadata8">
    <rdf:RDF>
      <cc:Work
         rdf:about="">
        <dc:format>image/svg+xml</dc:format>
        <dc:type
           rdf:resource="http://purl.org/dc/dcmitype/StillImage" />
      </cc:Work>
    </rdf:RDF>
  </metadata>
  <defs
     id="defs6" />
  <sodipodi:namedview
     pagecolor="#808080"
     bordercolor="#666666"
     borderopacity="1"
     objecttolerance="10"
     gridtolerance="10"
     guidetolerance="10"
     inkscape:pageopacity="0"
     inkscape:pageshadow="2"
     inkscape:window-width="1993"
     inkscape:window-height="1009"
     id="namedview4"
     showgrid="false"
     inkscape:zoom="0.5"
     inkscape:cx="529"
     inkscape:cy="816"
     inkscape:window-x="-8"
     inkscape:window-y="-8"
     inkscape:window-maximized="1"
     inkscape:current-layer="MAGIC_TEX"
     inkscape:showpageshadow="0"
     inkscape:pagecheckerboard="true"
     inkscape:deskcolor="#d1d1d1" />
  <g
     id="MAGIC_TEX"
     transform="matrix(100,0,0,100,0,4.9999997e-5)"
     style="stroke-width:0.0114286">
    <path
       style="fill:none;stroke-width:0.000357143"
       d="M 0,8 V 0 h 8 8 v 8 8 H 8 0 Z m 13.269218,7.419944 c 0.04746,-0.03544 0.115289,-0.103261 0.150726,-0.150719 0.06438,-0.08622 0.06444,-0.09066 0.08006,-5.7324444 0.01164,-4.2046472 0.0065,-5.6700906 -0.02022,-5.7399056 -0.02105,-0.055047 -0.691906,-0.7475964 -1.625,-1.6775451 -1.355489,-1.35091915 -1.605235,-1.58657599 -1.698528,-1.60270781 -0.06016,-0.010402 -2.18608,-0.0148817 -4.724275,-0.009955 -4.60534394,0.008939 -4.61507859,0.009091 -4.70119406,0.0733887 -0.0474618,0.035437 -0.11528807,0.10326428 -0.15072503,0.15072728 L 0.515625,0.81707959 0.50672091,7.9163522 c -0.004897,3.9045998 -8.2219e-4,7.1445618 0.009056,7.1999148 0.0223485,0.125235 0.1536701,0.284907 0.27954885,0.339901 0.0784903,0.03429 1.17936484,0.04045 6.24144734,0.03492 l 6.1461489,-0.0067 z"
       id="path851"
       inkscape:connector-curvature="0" />
    <path
       style="fill:#fefefe;stroke-width:0.000357143"
       d="M 1,8 V 1 H 5.234375 9.46875 V 1.5 2 H 5.734375 2 v 6 6 h 5 5 V 9.25 4.5 H 12.5 13 V 9.75 15 H 7 1 Z M 11.507813,4.0078197 10,3.9993997 V 2.4920082 0.98461663 L 11.515625,2.5 c 0.833594,0.8334609 1.515625,1.5189534 1.515625,1.5233166 0,0.00436 -0.0035,0.00456 -0.0078,4.281e-4 -0.0043,-0.00413 -0.686329,-0.011294 -1.515625,-0.015925 z"
       id="path849"
       inkscape:connector-curvature="0" />
    <path
       style="fill:#fd00fd;stroke-width:0.000357143"
       d="m 5.71875,13.230787 c -0.8913575,-0.082 -1.5936006,-0.267614 -3.109375,-0.821849 l -0.59375,-0.217101 -0.00842,-0.674044 c -0.00463,-0.370723 -0.00463,-0.978072 0,-1.349663 l 0.00842,-0.6756203 0.40625,0.3802134 c 0.8359288,0.7823549 1.5826034,1.2612749 2.4360916,1.5625179 1.379625,0.486947 2.8951487,0.313668 3.8551731,-0.440786 C 9.0435347,10.734808 9.0924731,10.68624 9.2888422,10.42311 9.6580869,9.9283309 9.7869084,9.5544188 9.7899031,8.96875 9.7913563,8.6845422 9.7785447,8.5720816 9.7286509,8.4310756 9.5244581,7.8540006 9.0785569,7.46875 8.6148244,7.46875 c -0.3018325,0 -0.5580263,0.1954797 -0.5984385,0.4566172 -0.00901,0.058236 -0.024583,0.1579225 -0.034603,0.2215262 C 7.941685,8.40144 7.6232375,8.5893231 7.2971512,8.5508244 6.8099025,8.4932981 6.3903312,8.0663463 6.2337819,7.46875 6.1514278,7.1543803 6.1816725,6.6603244 6.3051753,6.3025084 6.5951316,5.4624394 7.3176831,4.7899059 8.2747775,4.4692497 8.6024272,4.3594769 9.0294269,4.28125 9.3009684,4.28125 H 9.5 V 4.390625 4.5 h 0.761904 c 0.854228,0 0.835682,-0.00365 1.464659,0.2883653 L 12,4.9153147 v 1.9527165 c 0,1.8752825 -0.0024,1.9565907 -0.06038,2.0504082 -0.03321,0.05373 -0.140386,0.2944525 -0.238175,0.5349384 -0.463958,1.1409752 -0.940743,1.8699202 -1.585129,2.4234642 -0.7754884,0.666165 -1.7092899,1.101322 -2.741319,1.277472 -0.3806444,0.06497 -1.3132319,0.108029 -1.65625,0.07647 z"
       id="path847"
       inkscape:connector-curvature="0" />
    <path
       style="fill:#fd7e00;stroke-width:0.000357143"
       d="M 3.703125,7.2252953 C 3.6111978,7.2071812 3.3897841,6.9819903 3.2358016,6.75 3.0623003,6.4886028 2.9285983,6.2210456 2.5911943,5.4600472 2.4404738,5.1201044 2.2457967,4.7348162 2.1585785,4.6038512 L 2,4.3657334 V 3.1828666 2 h 3.7336009 3.733601 l 0.00942,-0.5078125 c 0.00646,-0.3485338 0.011607,-0.2411586 0.016399,0.342334 L 9.5,2.6846679 9.3984375,2.7002007 c -0.055859,0.00854 -0.228125,0.024162 -0.3828125,0.034708 -0.8466525,0.057725 -1.8071788,0.3760772 -2.5,0.828589 C 5.4265544,4.2748175 4.8329897,5.0391788 4.249855,6.4812362 3.9853859,7.1352522 3.8918913,7.2624916 3.703125,7.2252953 Z"
       id="path845"
       inkscape:connector-curvature="0" />
    <path
       style="fill:#656565;stroke-width:0.000357143"
       d="M 9.5,2.75 V 1 H 9.75 10 V 2.5 4 H 11.5 13 V 4.25 4.5 H 11.25 9.5 Z"
       id="path843"
       inkscape:connector-curvature="0" />
    <path
       style="fill:#00fd20;stroke-width:0.000357143"
       d="M 2,13.094255 V 12.18851 l 0.3515625,0.128028 c 2.1302984,0.77579 2.7371122,0.917018 3.9296875,0.914582 0.5541903,-0.0011 0.7430331,-0.01381 1.078125,-0.07236 1.0568056,-0.184661 1.9785328,-0.613244 2.756944,-1.281919 0.64758,-0.556288 1.106665,-1.258661 1.586578,-2.4273736 C 12.029991,8.6529116 12,8.4545066 12,11.414922 V 14 H 7 2 Z"
       id="path841"
       inkscape:connector-curvature="0" />
    <path
       style="fill:#0000fd;stroke-width:0.000357143"
       d="M 5.9375,11.68636 C 5.1760122,11.592804 4.4603319,11.335392 3.71875,10.888334 3.3102759,10.642087 2.9421807,10.354432 2.4335211,9.8839644 L 2.0014931,9.484375 2.0007465,6.9434681 C 2.0002806,5.3572422 2.0110872,4.4094137 2.0295088,4.4207987 2.1065421,4.4684081 2.364019,4.9446094 2.5884206,5.4545016 3.025953,6.4486759 3.2364703,6.8222791 3.5088031,7.0878959 3.6127944,7.1893225 3.6727675,7.2233997 3.7512044,7.22563 3.9008538,7.2298847 3.9967663,7.0990184 4.1893703,6.6277812 4.6692734,5.4536194 4.9525991,4.9703959 5.4958428,4.39954 6.4094684,3.4394756 7.7111897,2.8238452 9.015625,2.7349091 9.1703125,2.7243625 9.3425781,2.7087438 9.3984375,2.7002007 L 9.5,2.6846679 V 3.4829591 4.28125 H 9.3009684 c -0.2715415,0 -0.6985412,0.078227 -1.0261909,0.1879997 C 7.3176831,4.7899059 6.5951316,5.4624394 6.3051753,6.3025084 6.1816725,6.6603244 6.1514278,7.1543803 6.2337819,7.46875 6.3903312,8.0663462 6.8099025,8.4932981 7.2971512,8.5508244 7.6232375,8.5893231 7.941685,8.40144 7.9817831,8.1468934 7.9918025,8.0832897 8.0073737,7.9836028 8.0163859,7.9253672 8.0567981,7.6642297 8.3129919,7.46875 8.6148244,7.46875 c 0.4637325,0 0.9096337,0.3852506 1.1138265,0.9623256 0.049894,0.141006 0.062705,0.2534666 0.061252,0.5376744 C 9.7878156,9.376985 9.7201612,9.6876747 9.5675,9.9900953 9.4596069,10.20383 9.1445116,10.635768 9.0120291,10.751542 8.4655947,11.229067 7.9284856,11.499892 7.25,11.640007 6.9599991,11.699895 6.2513641,11.724922 5.9375,11.68636 Z M 11.828125,4.8367334 C 11.759375,4.8000188 11.555469,4.7097097 11.375,4.6360466 L 11.046875,4.5021134 11.523438,4.5010572 12,4.5 v 0.203125 c 0,0.1117187 -0.01055,0.2025034 -0.02344,0.2017438 -0.01289,-7.594e-4 -0.07969,-0.03142 -0.148438,-0.068135 z"
       id="path839"
       inkscape:connector-curvature="0" />
    <path
       style="fill:#323232;stroke-width:0.000357143"
       d="m 0.79532572,15.456168 c -0.12587875,-0.05499 -0.25720035,-0.214666 -0.27954885,-0.3399 -0.009878,-0.05535 -0.0139532,-3.295316 -0.009056,-7.1999158 l 0.008904,-7.09927261 0.0644309,-0.0862964 c 0.035437,-0.047463 0.10326325,-0.11529031 0.15072503,-0.15072728 0.0861155,-0.0642975 0.0958501,-0.0644495 4.7011941,-0.0733887 2.538195,-0.004927 4.6641191,-4.4719e-4 4.7242751,0.009955 0.09329,0.0161318 0.343039,0.25178866 1.698528,1.60270779 0.933094,0.9299487 1.603952,1.6224985 1.625,1.6775451 0.0267,0.069815 0.03186,1.5352584 0.02022,5.7399056 -0.01561,5.6417803 -0.01567,5.6462223 -0.08006,5.7324443 -0.03544,0.04746 -0.103264,0.115282 -0.150726,0.150719 l -0.0863,0.06443 -6.146149,0.0067 c -5.0620825,0.0055 -6.16295714,-6.3e-4 -6.24144742,-0.03492 z M 13.00764,9.4998791 13.015625,3.9997581 11.515505,2.499879 10.015386,1 H 5.5076928 1 v 7 7 h 5.9998272 5.9998268 z"
       id="path837"
       inkscape:connector-curvature="0" />
  </g>
</svg>
