<?xml version="1.0" encoding="UTF-8" standalone="no"?>
<!-- Created with Inkscape (http://www.inkscape.org/) -->

<svg
   version="1.1"
   id="svg2"
   width="1600"
   height="1600"
   viewBox="0 0 1600 1600"
   sodipodi:docname="make_screenshot_area.svg"
   inkscape:version="1.2.2 (732a01da63, 2022-12-09)"
   xmlns:inkscape="http://www.inkscape.org/namespaces/inkscape"
   xmlns:sodipodi="http://sodipodi.sourceforge.net/DTD/sodipodi-0.dtd"
   xmlns="http://www.w3.org/2000/svg"
   xmlns:svg="http://www.w3.org/2000/svg"
   xmlns:rdf="http://www.w3.org/1999/02/22-rdf-syntax-ns#"
   xmlns:cc="http://creativecommons.org/ns#"
   xmlns:dc="http://purl.org/dc/elements/1.1/">
  <metadata
     id="metadata8">
    <rdf:RDF>
      <cc:Work
         rdf:about="">
        <dc:format>image/svg+xml</dc:format>
        <dc:type
           rdf:resource="http://purl.org/dc/dcmitype/StillImage" />
      </cc:Work>
    </rdf:RDF>
  </metadata>
  <defs
     id="defs6" />
  <sodipodi:namedview
     pagecolor="#808080"
     bordercolor="#666666"
     borderopacity="1"
     objecttolerance="10"
     gridtolerance="10"
     guidetolerance="10"
     inkscape:pageopacity="0"
     inkscape:pageshadow="2"
     inkscape:window-width="1993"
     inkscape:window-height="1009"
     id="namedview4"
     showgrid="false"
     inkscape:zoom="0.5"
     inkscape:cx="155"
     inkscape:cy="54"
     inkscape:window-x="-8"
     inkscape:window-y="-8"
     inkscape:window-maximized="1"
     inkscape:current-layer="MAKE_SCREENSHOT_AREA"
     inkscape:showpageshadow="0"
     inkscape:pagecheckerboard="true"
     inkscape:deskcolor="#d1d1d1" />
  <g
     id="MAKE_SCREENSHOT_AREA"
     transform="matrix(100,0,0,100,0,4.9999997e-5)"
     style="stroke-width:0.0114286">
    <path
       style="fill:none;stroke-width:0.000357143"
       d="m 0.00281838,14.679688 c 0.00191258,-0.895976 0.01237499,-1.285161 0.03255347,-1.210938 0.09476665,0.348582 0.34252618,0.783364 0.56293946,0.987878 0.24834316,0.230429 0.62614339,0.431288 0.96418869,0.512614 0.092621,0.02228 0.5779943,0.03064 1.421875,0.02448 l 1.28125,-0.0093 0.15625,-0.07738 C 4.7214634,14.758631 4.9461766,14.454664 4.9894006,14.13931 L 5.0084953,14 H 8 10.991505 l 0.01909,0.13931 c 0.04322,0.315354 0.267938,0.619321 0.567526,0.767686 l 0.15625,0.07738 1.28125,0.0093 c 1.328594,0.0097 1.402035,0.0044 1.734375,-0.125466 0.207274,-0.08098 0.572786,-0.322322 0.706628,-0.466569 0.218539,-0.235529 0.417971,-0.601785 0.508,-0.932939 0.02018,-0.07422 0.03064,0.314962 0.03255,1.210937 L 16,16 H 8 0 Z M 0.00298352,8 c 0,-2.6105688 0.00378024,-2.8173203 0.04914127,-2.6876684 C 0.12178992,5.51145 0.26143222,5.7021141 0.41495188,5.8077266 0.560724,5.9080094 0.80377719,6 0.92296709,6 H 1 v 2 2 H 0.92296709 C 0.80377719,10 0.560724,10.091991 0.41495188,10.192273 0.26143222,10.297886 0.12178992,10.48855 0.05212479,10.687668 0.00676376,10.81732 0.00298352,10.610569 0.00298352,8 Z M 15.943581,10.683098 C 15.886407,10.499906 15.73911,10.298259 15.585048,10.192273 15.439276,10.091991 15.196223,10 15.077033,10 H 15 V 8 6 h 0.07703 c 0.11919,0 0.362243,-0.091991 0.508015,-0.1922734 0.15352,-0.1056125 0.293162,-0.2962766 0.362827,-0.495395 0.04538,-0.1297129 0.04926,0.075276 0.05063,2.6798559 8.22e-4,1.5511719 -0.0021,2.8203125 -0.0065,2.8203125 -0.0044,0 -0.02619,-0.05823 -0.0484,-0.129402 z M 0.00281838,1.3203125 0,0 h 8 8 L 15.9972,1.3203125 C 15.9953,2.2162878 15.98482,2.6054728 15.96465,2.53125 15.87462,2.2000961 15.675189,1.8338398 15.45665,1.5983113 15.322786,1.4540644 14.957274,1.2127257 14.75,1.1317422 14.41766,1.0018944 14.344219,0.99658156 13.015625,1.006276 l -1.28125,0.00935 -0.15625,0.077379 C 11.278537,1.2413691 11.053823,1.5453358 11.010599,1.8606896 L 10.991505,2 H 8 5.0084953 L 4.9894006,1.8606896 C 4.9461766,1.5453358 4.7214634,1.2413691 4.421875,1.0930044 L 4.265625,1.015625 2.984375,1.006276 C 1.6557813,0.99658156 1.5823402,1.0018944 1.25,1.1317422 1.0427259,1.2127257 0.67721378,1.4540644 0.54337194,1.5983113 0.32483297,1.8338398 0.12540055,2.2000961 0.03537185,2.53125 0.01519337,2.6054728 0.00473096,2.2162878 0.00281838,1.3203125 Z"
       id="path827"
       inkscape:connector-curvature="0" />
    <path
       style="fill:#fefefe;stroke-width:0.000357143"
       d="M 1.53125,14.965276 C 1.1950627,14.871888 0.83326206,14.674631 0.59831131,14.456628 0.45406438,14.322786 0.21272571,13.957274 0.13174217,13.75 0.00189437,13.41766 -0.00341843,13.344219 0.00627601,12.015625 L 0.015625,10.734375 0.0930044,10.578125 C 0.24136906,10.278537 0.54533581,10.053823 0.86068956,10.010599 L 1,9.9915047 V 8 6.0084953 L 0.86068956,5.9894006 C 0.54533581,5.9461766 0.24136906,5.7214634 0.0930044,5.421875 L 0.015625,5.265625 0.00627601,3.984375 C -0.00341843,2.6557813 0.00189437,2.5823402 0.13174217,2.25 0.21272571,2.0427259 0.45406438,1.6772138 0.59831131,1.5433719 0.84665447,1.3129427 1.2244547,1.1120841 1.5625,1.0307582 1.6551211,1.0084757 2.1404943,1.0001184 2.984375,1.006276 l 1.28125,0.00935 0.15625,0.077379 C 4.7214634,1.2413691 4.9461766,1.5453358 4.9894006,1.8606896 L 5.0084953,2 H 8 10.991505 l 0.01909,-0.1393104 c 0.04322,-0.3153538 0.267938,-0.6193205 0.567526,-0.7676852 l 0.15625,-0.077379 1.28125,-0.00935 c 1.328594,-0.009694 1.402035,-0.00438 1.734375,0.1254662 0.207274,0.080984 0.572786,0.3223222 0.706628,0.4665691 0.230429,0.2483432 0.431288,0.6261434 0.512614,0.9641887 0.02228,0.092621 0.03064,0.5779944 0.02448,1.421875 l -0.0093,1.28125 -0.07738,0.15625 C 15.758631,5.7214634 15.454664,5.9461766 15.13931,5.9894006 L 15,6.0084953 V 8 9.9915047 l 0.13931,0.019094 c 0.315354,0.04322 0.619321,0.267938 0.767686,0.567526 l 0.07738,0.15625 0.0093,1.28125 c 0.0062,0.843881 -0.0022,1.329254 -0.02448,1.421875 -0.08133,0.338045 -0.282185,0.715846 -0.512614,0.964189 -0.133842,0.144247 -0.499354,0.385585 -0.706628,0.466569 -0.33234,0.129848 -0.405781,0.13516 -1.734375,0.125466 l -1.28125,-0.0093 -0.15625,-0.07738 c -0.299542,-0.148413 -0.524256,-0.45238 -0.56748,-0.767734 L 10.991505,14 H 8 5.0084953 l -0.019095,0.13931 c -0.043224,0.315354 -0.2679372,0.619321 -0.5675256,0.767686 l -0.15625,0.07738 -1.3125,0.0056 c -0.7731712,0.0033 -1.3574441,-0.0068 -1.421875,-0.02474 z M 4,13.5 V 13 h 4 4 v 0.501455 0.501455 l 1.132813,-0.0093 1.132812,-0.0093 0.15625,-0.07738 c 0.199213,-0.09866 0.386465,-0.285908 0.485121,-0.485121 l 0.07738,-0.15625 0.0093,-1.132812 L 15.00291,11 H 14.501455 14 V 8 5 h 0.501455 0.501455 L 14.99361,3.8671875 14.98431,2.734375 14.90693,2.578125 C 14.80834,2.3789118 14.621088,2.1916604 14.421875,2.0930044 L 14.265625,2.015625 13.132813,2.0063574 12,1.9970898 V 2.4985449 3 H 8 4 V 2.4985449 1.9970898 l -1.1328125,0.00927 -1.1328125,0.00927 -0.15625,0.077379 C 1.3789118,2.1916604 1.1916604,2.3789118 1.0930044,2.578125 L 1.015625,2.734375 1.0063574,3.8671875 0.99708981,5 H 1.4985449 2 v 3 3 H 1.5 1 v 1.077033 c 0,0.911785 0.00779,1.099975 0.050759,1.226562 0.1051861,0.309866 0.3294278,0.536702 0.6369094,0.64428 0.116975,0.04093 0.3220044,0.04939 1.2263941,0.05063 L 4,14 Z"
       id="path825"
       inkscape:connector-curvature="0" />
    <path
       style="fill:#98c0fe;stroke-width:0.000357143"
       d="M 2,8 V 3 h 6 6 v 5 5 H 8 2 Z m 4,3.5 V 11 H 5.5 5 V 10.5 10 H 4.5 4 v 1 1 h 1 1 z m 2,0 V 11 H 7.5 7 V 11.5 12 H 7.5 8 Z m 2,0 V 11 H 9.5 9 V 11.5 12 H 9.5 10 Z M 13,11 V 10 H 12.5 12 V 10.5 11 H 11.5 11 v 0.5 0.5 h 1 1 z M 5,8.5 V 8 H 4.5 4 V 8.5 9 H 4.5 5 Z m 8,0 V 8 H 12.5 12 V 8.5 9 H 12.5 13 Z M 5,6.5 V 6 H 5.5 6 V 5.5 5 H 5 4 V 6 7 H 4.5 5 Z M 13,6 V 5 H 12 11 V 5.5 6 H 11.5 12 V 6.5 7 H 12.5 13 Z M 8,5.5 V 5 H 7.5 7 V 5.5 6 H 7.5 8 Z m 2,0 V 5 H 9.5 9 V 5.5 6 H 9.5 10 Z"
       id="path823"
       inkscape:connector-curvature="0" />
    <path
       style="fill:#fe3200;stroke-width:0.000357143"
       d="M 4,11 V 10 H 4.5 5 V 10.5 11 H 5.5 6 V 11.5 12 H 5 4 Z m 3,0.5 V 11 H 7.5 8 V 11.5 12 H 7.5 7 Z m 2,0 V 11 H 9.5 10 V 11.5 12 H 9.5 9 Z m 2,0 V 11 H 11.5 12 V 10.5 10 h 0.5 0.5 v 1 1 H 12 11 Z M 4,8.5 V 8 H 4.5 5 V 8.5 9 H 4.5 4 Z m 8,0 V 8 H 12.5 13 V 8.5 9 H 12.5 12 Z M 4,6 V 5 H 5 6 V 5.5 6 H 5.5 5 V 6.5 7 H 4.5 4 Z m 8,0.5 V 6 H 11.5 11 V 5.5 5 h 1 1 V 6 7 H 12.5 12 Z M 7,5.5 V 5 H 7.5 8 V 5.5 6 H 7.5 7 Z m 2,0 V 5 H 9.5 10 V 5.5 6 H 9.5 9 Z"
       id="path821"
       inkscape:connector-curvature="0" />
    <path
       style="fill:#191919;stroke-width:0.000357143"
       d="M 1.6876684,13.947875 C 1.3801868,13.840297 1.1559451,13.613461 1.050759,13.303595 1.0077879,13.177008 1,12.988818 1,12.077033 V 11 H 1.5 2 v 1 1 H 3 4 V 13.5 14 L 2.9140625,13.9985 C 2.0096728,13.9973 1.8046434,13.9888 1.6876684,13.94787 Z M 12,13.501455 V 13 h 1 1 v -1 -1 h 0.501455 0.501455 l -0.0093,1.132813 -0.0093,1.132812 -0.07738,0.15625 c -0.09866,0.199213 -0.285908,0.386465 -0.485121,0.485121 l -0.15625,0.07738 -1.132812,0.0093 L 12,14.00291 Z M 1.0063574,3.8671875 1.015625,2.734375 1.0930044,2.578125 C 1.1916604,2.3789118 1.3789118,2.1916604 1.578125,2.0930044 L 1.734375,2.015625 2.8671875,2.0063574 4,1.9970898 V 2.4985449 3 H 3 2 V 4 5 H 1.4985449 0.99708981 Z M 14,4 V 3 H 13 12 V 2.4985449 1.9970898 l 1.132813,0.00927 1.132812,0.00927 0.15625,0.077379 c 0.199213,0.098656 0.386465,0.2859074 0.485121,0.4851206 l 0.07738,0.15625 0.0093,1.1328125 L 15.00291,5 H 14.501455 14 Z"
       id="path819"
       inkscape:connector-curvature="0" />
  </g>
</svg>
