<?xml version="1.0" encoding="UTF-8" standalone="no"?>
<!-- Created with Inkscape (http://www.inkscape.org/) -->

<svg
   xmlns:dc="http://purl.org/dc/elements/1.1/"
   xmlns:cc="http://creativecommons.org/ns#"
   xmlns:rdf="http://www.w3.org/1999/02/22-rdf-syntax-ns#"
   xmlns:svg="http://www.w3.org/2000/svg"
   xmlns="http://www.w3.org/2000/svg"
   xmlns:sodipodi="http://sodipodi.sourceforge.net/DTD/sodipodi-0.dtd"
   xmlns:inkscape="http://www.inkscape.org/namespaces/inkscape"
   version="1.1"
   id="svg2"
   width="16"
   height="16"
   viewBox="0 0 16 16"
   sodipodi:docname="MAKEDUPLIFACE.svg"
   inkscape:version="0.92.4 (5da689c313, 2019-01-14)">
  <metadata
     id="metadata8">
    <rdf:RDF>
      <cc:Work
         rdf:about="">
        <dc:format>image/svg+xml</dc:format>
        <dc:type
           rdf:resource="http://purl.org/dc/dcmitype/StillImage" />
        <dc:title></dc:title>
      </cc:Work>
    </rdf:RDF>
  </metadata>
  <defs
     id="defs6" />
  <sodipodi:namedview
     pagecolor="#ffffff"
     bordercolor="#666666"
     borderopacity="1"
     objecttolerance="10"
     gridtolerance="10"
     guidetolerance="10"
     inkscape:pageopacity="0"
     inkscape:pageshadow="2"
     inkscape:window-width="1135"
     inkscape:window-height="730"
     id="namedview4"
     showgrid="false"
     inkscape:zoom="14.75"
     inkscape:cx="8"
     inkscape:cy="8"
     inkscape:window-x="0"
     inkscape:window-y="0"
     inkscape:window-maximized="0"
     inkscape:current-layer="svg2" />
  <g
     id="MAKEDUPLIFACE">
    <path
       style="fill:#ffffff;stroke-width:0.03125"
       d="M 0,13.5 V 11 H 1 2 V 12.5 14 H 3.5 5 v 1 1 H 2.5 0 Z M 11,15 V 14 H 12.5 14 V 12.5 11 h 1 1 V 13.5 16 H 13.5 11 Z M 0,2.5 V 0 H 2.5 5 V 1 2 H 3.5 2 V 3.5 5 H 1 0 Z m 14,1 V 2 H 12.5 11 V 1 0 H 13.5 16 V 2.5 5 h -1 -1 z"
       id="path825"
       inkscape:connector-curvature="0" />
    <path
       style="fill:#98cbfe;stroke-width:0.03125"
       d="M 3,12 V 11 H 4 5 V 8 5 H 4 3 V 4 3 h 1 1 v 1 1 h 3 3 V 4 3 h 1 1 v 1 1 h -1 -1 v 3 3 h 1 1 v 1 1 H 12 11 V 12 11 H 8 5 v 1 1 H 4 3 Z"
       id="path823"
       inkscape:connector-curvature="0" />
    <path
       style="fill:#fe9832;stroke-width:0.03125"
       d="M 6,13.5 V 12 h 2 2 V 13.5 15 H 8 6 Z M 1,8 V 6 H 2.5 4 v 2 2 H 2.5 1 Z M 12,8 V 6 h 1.5 1.5 v 2 2 H 13.5 12 Z M 6,2.5 V 1 h 2 2 V 2.5 4 H 8 6 Z"
       id="path821"
       inkscape:connector-curvature="0" />
    <path
       style="fill:#000000;stroke-width:0.03125"
       d="M 5,15 V 14 H 3.5 2 V 12.5 11 H 1 0 V 8 5 H 1 2 V 3.5 2 H 3.5 5 V 1 0 h 3 3 V 1 2 H 12.5 14 V 3.5 5 h 1 1 v 3 3 H 15 14 V 12.5 14 H 12.5 11 v 1 1 H 8 5 Z m 5,-1.5 V 12 H 8 6 v 1.5 1.5 h 2 2 z M 5,12 v -1 h 3 3 v 1 1 h 1 1 V 12 11 H 12 11 V 8 5 h 1 1 V 4 3 H 12 11 V 4 5 H 8 5 V 4 3 H 4 3 v 1 1 h 1 1 v 3 3 H 4 3 v 1 1 H 4 5 Z M 4,8 V 6 H 2.5 1 v 2 2 H 2.5 4 Z M 15,8 V 6 H 13.5 12 v 2 2 H 13.5 15 Z M 10,2.5 V 1 H 8 6 V 2.5 4 h 2 2 z"
       id="path819"
       inkscape:connector-curvature="0" />
  </g>
</svg>
