<?xml version="1.0" encoding="UTF-8" standalone="no"?>
<!-- Created with Inkscape (http://www.inkscape.org/) -->

<svg
   version="1.1"
   id="svg2"
   width="1600"
   height="1600"
   viewBox="0 0 1600 1600"
   sodipodi:docname="make_edgeface.svg"
   inkscape:version="1.2.2 (732a01da63, 2022-12-09)"
   xmlns:inkscape="http://www.inkscape.org/namespaces/inkscape"
   xmlns:sodipodi="http://sodipodi.sourceforge.net/DTD/sodipodi-0.dtd"
   xmlns="http://www.w3.org/2000/svg"
   xmlns:svg="http://www.w3.org/2000/svg"
   xmlns:rdf="http://www.w3.org/1999/02/22-rdf-syntax-ns#"
   xmlns:cc="http://creativecommons.org/ns#"
   xmlns:dc="http://purl.org/dc/elements/1.1/">
  <metadata
     id="metadata8">
    <rdf:RDF>
      <cc:Work
         rdf:about="">
        <dc:format>image/svg+xml</dc:format>
        <dc:type
           rdf:resource="http://purl.org/dc/dcmitype/StillImage" />
      </cc:Work>
    </rdf:RDF>
  </metadata>
  <defs
     id="defs6" />
  <sodipodi:namedview
     pagecolor="#808080"
     bordercolor="#666666"
     borderopacity="1"
     objecttolerance="10"
     gridtolerance="10"
     guidetolerance="10"
     inkscape:pageopacity="0"
     inkscape:pageshadow="2"
     inkscape:window-width="1993"
     inkscape:window-height="1009"
     id="namedview4"
     showgrid="false"
     inkscape:zoom="0.5"
     inkscape:cx="205"
     inkscape:cy="66"
     inkscape:window-x="-8"
     inkscape:window-y="-8"
     inkscape:window-maximized="1"
     inkscape:current-layer="svg2"
     inkscape:showpageshadow="0"
     inkscape:pagecheckerboard="true"
     inkscape:deskcolor="#d1d1d1" />
  <g
     id="MAKE_EDGEFACE"
     transform="matrix(100,0,0,100,0,4.9999997e-5)"
     style="stroke-width:0.0114286">
    <path
       style="fill:#fecb32;stroke-width:0.000357143"
       d="M 3.7842481,12.508678 C 3.4920728,12.364761 3.3646578,12.053574 3.4898684,11.789712 c 0.066436,-0.140002 0.1598413,-0.233408 0.2998438,-0.299844 0.2660687,-0.126257 0.5802784,0.0045 0.7204194,0.299844 0.2055634,0.433193 -0.2964979,0.93047 -0.7258835,0.718966 z m 7.9999999,0 c -0.292175,-0.143917 -0.41959,-0.455104 -0.29438,-0.718966 0.06644,-0.140002 0.159842,-0.233408 0.299844,-0.299844 0.266069,-0.126257 0.580279,0.0045 0.72042,0.299844 0.205563,0.433193 -0.296498,0.93047 -0.725884,0.718966 z M 5.0949541,11.820313 C 5.0023619,11.337742 4.6605247,10.995746 4.1796875,10.904622 L 4,10.870569 V 8 5.1294312 L 4.1796875,5.0949541 C 4.6622584,5.0023619 5.0042541,4.6605247 5.0953781,4.1796875 L 5.1294312,4 H 8 10.870569 l 0.03448,0.1796875 c 0.09259,0.4825709 0.434429,0.8245666 0.915267,0.9156906 L 12,5.1294312 V 8 10.870569 l -0.179687,0.03405 c -0.480838,0.09112 -0.822675,0.43312 -0.915267,0.91569 L 10.870569,12 H 8 5.1294312 Z M 3.7842481,4.5086784 C 3.4920728,4.3647609 3.3646578,4.0535741 3.4898684,3.7897122 3.5563041,3.6497097 3.6497097,3.5563041 3.7897122,3.4898684 4.0557809,3.3636106 4.3699906,3.4943869 4.5101316,3.7897122 4.715695,4.2229053 4.2136337,4.7201822 3.7842481,4.5086784 Z m 7.9999999,0 c -0.292175,-0.1439175 -0.41959,-0.4551043 -0.29438,-0.7189662 0.06644,-0.1400025 0.159842,-0.2334081 0.299844,-0.2998438 0.266069,-0.1262578 0.580279,0.00452 0.72042,0.2998438 0.205563,0.4331931 -0.296498,0.93047 -0.725884,0.7189662 z"
       id="path825"
       inkscape:connector-curvature="0" />
    <path
       style="fill:#6598cb;stroke-width:0.000357143"
       d="M 0,14.25 V 12.5 h 1.5118337 1.5118338 l 0.038507,0.09296 c 0.044372,0.107123 0.272028,0.327375 0.3707758,0.358716 L 3.5,12.972962 V 14.486481 16 H 1.75 0 Z m 4,0.314716 v -1.435285 l 0.1796875,-0.03405 c 0.3192487,-0.0605 0.6725937,-0.295892 0.7596487,-0.506061 L 4.9763325,12.5 H 8 11.023668 l 0.037,0.08932 c 0.08706,0.210169 0.4404,0.44556 0.759649,0.506061 L 12,13.129431 V 14.564716 16 H 8 4 Z m 8.5,-0.07655 v -1.511834 l 0.09296,-0.03851 c 0.107123,-0.04437 0.327375,-0.272028 0.358716,-0.370776 L 12.972962,12.5 H 14.486481 16 V 14.25 16 H 14.25 12.5 Z M 0,8 V 4 h 1.4352844 1.4352845 l 0.034053,0.1796875 c 0.060501,0.3192487 0.2958919,0.6725937 0.5060613,0.7596487 L 3.5,4.9763325 V 8 11.023668 l -0.089317,0.037 c -0.2101694,0.08706 -0.44556,0.4404 -0.5060613,0.759649 L 2.8705689,12 H 1.4352844 0 Z m 13.095378,3.820313 c -0.0605,-0.319249 -0.295892,-0.672594 -0.506061,-0.759649 L 12.5,11.023668 V 8 4.9763325 l 0.08932,-0.036996 c 0.210169,-0.087055 0.44556,-0.4404 0.506061,-0.7596487 L 13.129431,4 H 14.564716 16 v 4 4 H 14.564716 13.129431 Z M 0,1.75 V 0 H 1.75 3.5 V 1.5135191 3.0270383 L 3.432951,3.0483193 C 3.3342028,3.0796603 3.1065468,3.2999116 3.0621748,3.407035 L 3.0236675,3.5 H 1.5118337 0 Z M 4.9393362,3.4106831 C 4.8522812,3.2005137 4.4989362,2.9651231 4.1796875,2.9046218 L 4,2.8705689 V 1.4352844 0 h 4 4 v 1.4352844 1.4352845 l -0.179687,0.034053 c -0.319249,0.060501 -0.672594,0.2958919 -0.759649,0.5060613 L 11.023668,3.5 H 8 4.9763325 Z m 8.0123448,0.022267 C 12.92034,3.3342028 12.700088,3.1065468 12.592965,3.0621748 L 12.5,3.0236675 V 1.5118337 0 H 14.25 16 V 1.75 3.5 h -1.513519 -1.513519 z"
       id="path823"
       inkscape:connector-curvature="0" />
    <path
       style="fill:#fe0032;stroke-width:0.000357143"
       d="m 3.75,13.079808 c -0.4354122,-0.09826 -0.7529165,-0.432437 -0.8403635,-0.884495 -0.067052,-0.346624 0.064294,-0.760617 0.3158738,-0.995614 0.5331494,-0.498007 1.3890853,-0.373621 1.7393328,0.252764 0.3673616,0.656991 0.00365,1.468208 -0.7304681,1.629218 -0.2227178,0.04885 -0.2602656,0.0487 -0.484375,-0.0019 z m 0.4602878,-0.569676 c 0.1400025,-0.06644 0.2334081,-0.159842 0.2998438,-0.299844 0.1262578,-0.266069 -0.00452,-0.580279 -0.2998438,-0.72042 -0.2660687,-0.126257 -0.5802784,0.0045 -0.7204194,0.299844 -0.066537,0.140216 -0.066537,0.28036 0,0.420576 0.1403022,0.295665 0.4540444,0.426247 0.7204194,0.299844 z M 11.75,13.079808 c -0.435412,-0.09826 -0.752917,-0.432437 -0.840363,-0.884495 -0.06705,-0.346624 0.06429,-0.760617 0.315873,-0.995614 0.53315,-0.498007 1.389086,-0.373621 1.739333,0.252764 0.367362,0.656991 0.0036,1.468208 -0.730468,1.629218 -0.222718,0.04885 -0.260266,0.0487 -0.484375,-0.0019 z m 0.460288,-0.569676 C 12.415785,12.412617 12.5625,12.20012 12.5625,12 c 0,-0.20012 -0.146715,-0.412617 -0.352212,-0.510132 -0.266069,-0.126257 -0.580279,0.0045 -0.72042,0.299844 -0.06654,0.140216 -0.06654,0.28036 0,0.420576 0.140303,0.295665 0.454045,0.426247 0.72042,0.299844 z M 3.75,5.0798084 C 3.3145878,4.9815487 2.9970835,4.6473706 2.9096365,4.1953125 2.862252,3.9503578 2.9079378,3.6799819 3.035157,3.4524625 c 0.4171386,-0.746013 1.5125474,-0.746013 1.9296861,0 C 5.3322047,4.1094537 4.9684912,4.9206712 4.234375,5.0816809 4.0116572,5.1305284 3.9741094,5.1303834 3.75,5.0798091 Z M 4.2102878,4.5101316 C 4.3502903,4.4436959 4.4436959,4.3502903 4.5101316,4.2102878 4.6363894,3.9442191 4.5056131,3.6300094 4.2102878,3.4898684 3.9442191,3.3636106 3.6300094,3.4943869 3.4898684,3.7897122 c -0.066537,0.1402162 -0.066537,0.2803594 0,0.4205756 0.1403022,0.295665 0.4540444,0.4262469 0.7204194,0.2998438 z M 11.75,5.0798084 c -0.435412,-0.09826 -0.752917,-0.4324378 -0.840363,-0.8844959 -0.04739,-0.2449547 -0.0017,-0.5153306 0.12552,-0.74285 0.417139,-0.746013 1.512547,-0.746013 1.929686,0 0.367362,0.6569912 0.0036,1.4682087 -0.730468,1.6292184 -0.222718,0.048847 -0.260266,0.048703 -0.484375,-0.00187 z m 0.460288,-0.5696768 c 0.140002,-0.066436 0.233408,-0.1598413 0.299844,-0.2998438 0.126257,-0.2660687 -0.0045,-0.5802784 -0.299844,-0.7204194 -0.266069,-0.1262578 -0.580279,0.00452 -0.72042,0.2998438 -0.06654,0.1402162 -0.06654,0.2803594 0,0.4205756 0.140303,0.295665 0.454045,0.4262469 0.72042,0.2998438 z"
       id="path821"
       inkscape:connector-curvature="0" />
    <path
       style="fill:#191919;stroke-width:0.000357143"
       d="m 3.5,14.50067 v -1.49933 l 0.070312,0.0292 c 0.038672,0.01606 0.1511719,0.04488 0.25,0.06405 L 4,13.129431 V 14.564716 16 H 3.75 3.5 Z m 8.5,0.06405 v -1.435285 l 0.179688,-0.03485 c 0.09883,-0.01917 0.211328,-0.04799 0.25,-0.06405 L 12.5,13.00134 V 14.50067 16 H 12.25 12 Z M 0,12.25 V 12 h 1.4352844 1.4352845 l 0.034849,0.179688 c 0.019167,0.09883 0.047988,0.211328 0.064046,0.25 L 2.9986601,12.5 H 1.49933 0 Z m 5.0305359,0.179688 c 0.016058,-0.03867 0.044878,-0.151172 0.064046,-0.25 L 5.1294312,12 H 8 10.870569 l 0.03485,0.179688 c 0.01917,0.09883 0.04799,0.211328 0.06405,0.25 L 10.99866,12.5 H 8 5.00134 Z m 8.0000001,0 c 0.01606,-0.03867 0.04488,-0.151172 0.06405,-0.25 L 13.129431,12 H 14.564716 16 v 0.25 0.25 H 14.50067 13.00134 Z M 3.5,8 V 5.00134 l 0.070312,0.029196 c 0.038672,0.016058 0.1511719,0.044878 0.25,0.064046 L 4,5.1294313 V 8 10.870569 l -0.1796875,0.03485 c -0.098828,0.01917 -0.2113281,0.04799 -0.25,0.06405 L 3.5,10.99866 Z m 8.921875,2.968087 c -0.03438,-0.01523 -0.143359,-0.0434 -0.242187,-0.0626 L 12,10.870569 V 8 5.1294312 l 0.179688,-0.03485 c 0.09883,-0.019167 0.211328,-0.047988 0.25,-0.064046 L 12.5,5.00134 v 2.99933 c 0,1.6496316 -0.0035,2.998378 -0.0078,2.997215 -0.0043,-0.0012 -0.03594,-0.01457 -0.07031,-0.0298 z M 0,3.75 V 3.5 h 1.49933 1.4993301 l -0.029196,0.070312 c -0.016058,0.038672 -0.044878,0.1511719 -0.064046,0.25 L 2.8705689,4 H 1.4352844 0 Z m 5.0945816,0.070312 c -0.019167,-0.098828 -0.047988,-0.2113281 -0.064046,-0.25 L 5.00134,3.5 H 8 10.99866 l -0.0292,0.070312 c -0.01606,0.038672 -0.04488,0.1511719 -0.06405,0.25 L 10.870569,4 H 8 5.1294312 Z m 8.0000004,0 c -0.01917,-0.098828 -0.04799,-0.2113281 -0.06405,-0.25 L 13.00134,3.5 H 14.50067 16 V 3.75 4 H 14.564716 13.129431 Z M 3.5,1.49933 V 0 H 3.75 4 v 1.4352844 1.4352845 l -0.1796875,0.034849 c -0.098828,0.019167 -0.2113281,0.047988 -0.25,0.064046 L 3.5,2.9986601 Z m 8.921875,1.4687573 C 12.3875,2.9528619 12.278516,2.9246917 12.179688,2.9054868 L 12,2.8705689 V 1.4352844 0 h 0.25 0.25 v 1.5 c 0,0.825 -0.0035,1.4990483 -0.0078,1.497885 -0.0043,-0.00116 -0.03594,-0.014572 -0.07031,-0.029798 z"
       id="path819"
       inkscape:connector-curvature="0" />
  </g>
</svg>
