<?xml version="1.0" encoding="UTF-8" standalone="no"?>
<!-- Created with Inkscape (http://www.inkscape.org/) -->

<svg
   version="1.1"
   id="svg2"
   width="1600"
   height="1600"
   viewBox="0 0 1600 1600"
   sodipodi:docname="make_regular.svg"
   inkscape:version="1.2.2 (732a01da63, 2022-12-09)"
   xmlns:inkscape="http://www.inkscape.org/namespaces/inkscape"
   xmlns:sodipodi="http://sodipodi.sourceforge.net/DTD/sodipodi-0.dtd"
   xmlns="http://www.w3.org/2000/svg"
   xmlns:svg="http://www.w3.org/2000/svg"
   xmlns:rdf="http://www.w3.org/1999/02/22-rdf-syntax-ns#"
   xmlns:cc="http://creativecommons.org/ns#"
   xmlns:dc="http://purl.org/dc/elements/1.1/">
  <metadata
     id="metadata8">
    <rdf:RDF>
      <cc:Work
         rdf:about="">
        <dc:format>image/svg+xml</dc:format>
        <dc:type
           rdf:resource="http://purl.org/dc/dcmitype/StillImage" />
      </cc:Work>
    </rdf:RDF>
  </metadata>
  <defs
     id="defs6" />
  <sodipodi:namedview
     pagecolor="#808080"
     bordercolor="#666666"
     borderopacity="1"
     objecttolerance="10"
     gridtolerance="10"
     guidetolerance="10"
     inkscape:pageopacity="0"
     inkscape:pageshadow="2"
     inkscape:window-width="1993"
     inkscape:window-height="1009"
     id="namedview4"
     showgrid="false"
     inkscape:zoom="0.5"
     inkscape:cx="165"
     inkscape:cy="32"
     inkscape:window-x="-8"
     inkscape:window-y="-8"
     inkscape:window-maximized="1"
     inkscape:current-layer="MAKE_REGULAR"
     inkscape:showpageshadow="0"
     inkscape:pagecheckerboard="true"
     inkscape:deskcolor="#d1d1d1" />
  <g
     id="MAKE_REGULAR"
     transform="matrix(100,0,0,100,0,4.9999997e-5)"
     style="stroke-width:0.0114286">
    <path
       style="fill:none;stroke-width:0.000357143"
       d="m 0.0020566,15.351563 c 0.00195518,-0.616461 0.00422941,-0.64037 0.04611816,-0.48483 0.14127551,0.524579 0.55899746,0.94367 1.08033544,1.083875 0.1622133,0.04362 0.144673,0.04535 -0.4800727,0.04733 L 0,16 Z m 1.8646762,0.600262 C 2.268512,15.843621 2.6357349,15.553628 2.8184455,15.200265 L 2.921875,15.000231 H 8 13.078125 l 0.10343,0.200034 c 0.18271,0.353363 0.549933,0.643356 0.951712,0.75156 0.142255,0.03831 -0.658218,0.04406 -6.133267,0.04406 -5.4750488,0 -6.275522,-0.0058 -6.1332672,-0.04406 z m 13.0047572,-0.0012 c 0.521338,-0.140206 0.93906,-0.559296 1.080335,-1.083875 0.04189,-0.15554 0.04416,-0.131632 0.04612,0.484829 L 16,16 15.351563,15.9979 C 14.726817,15.9959 14.709277,15.9942 14.87149,15.95056 Z M 0.00411319,8 c 0,-5.4750488 0.00575063,-6.275522 0.04406157,-6.1332672 0.108204,0.4017792 0.3981973,0.7690021 0.75156068,0.9517127 L 0.99976884,2.921875 V 8 13.078125 l -0.2000334,0.10343 C 0.44637206,13.364265 0.15637876,13.731488 0.04817476,14.133267 0.00986382,14.275522 0.00411319,13.475049 0.00411319,8 Z M 15.957563,14.161336 C 15.900942,13.807249 15.53677,13.343987 15.175918,13.167008 L 15,13.08073 15.000116,8.0013025 15.000231,2.921875 15.200265,2.8184455 c 0.353363,-0.1827106 0.643356,-0.5499335 0.75156,-0.9517127 0.03833,-0.1423234 0.04433,0.654562 0.04612,6.1254547 0.0011,3.4589845 -0.0032,6.2890625 -0.0096,6.2890625 -0.0064,0 -0.02026,-0.05396 -0.03081,-0.119914 z M 0.0020566,0.6484375 0,0 0.6484375,0.0020566 C 1.2648984,0.00401178 1.288807,0.00628601 1.1332672,0.04817476 0.60868809,0.18945027 0.18959751,0.60717222 0.04939217,1.1285102 0.00576754,1.2907235 0.00403805,1.2731832 0.0020566,0.6484375 Z M 15.957563,1.1613362 C 15.947017,1.0953836 15.889157,0.94301575 15.828986,0.822741 15.643068,0.45111134 15.281144,0.15978062 14.866733,0.04817476 14.711193,0.00628601 14.735102,0.00401178 15.351563,0.0020566 L 16,0 v 0.640625 c 0,0.35234375 -0.0052,0.640625 -0.01163,0.640625 -0.0064,0 -0.02026,-0.053961 -0.03081,-0.1199138 z M 2.8184455,0.79973544 C 2.6357349,0.44637206 2.268512,0.15637876 1.8667328,0.04817476 1.724478,0.00986382 2.5249512,0.00411319 8,0.00411319 c 5.475049,0 6.275522,0.00575063 6.133267,0.04406157 -0.401779,0.108204 -0.769002,0.3981973 -0.951712,0.75156068 l -0.10343,0.2000334 H 8 2.921875 Z"
       id="path827"
       inkscape:connector-curvature="0" />
    <path
       style="fill:#fefefe;stroke-width:0.000357143"
       d="M 2.8184455,13.799735 C 2.6924956,13.556148 2.4177928,13.285635 2.1759175,13.167008 L 2,13.08073 V 12.040365 11 H 3.5 5 V 9.5 8 H 3.5 2 V 6.5 5 H 3.5 5 V 3.5 2 H 6.5 8 V 3.5 5 H 9.5 11 V 3.5 2 h 1.040365 1.040365 l 0.08628,0.1759175 c 0.118627,0.2418753 0.389139,0.5165781 0.632727,0.642528 L 13.999769,2.921875 13.999894,3.9609375 14.000019,5 h -1.5 -1.5 V 6.5 8 h 1.5 1.5 V 9.5 11 h -1.5 -1.5 v 1.5 1.5 h -1.5000002 -1.5 V 12.5 11 h -1.5 -1.5 V 12.5 14 L 3.9609563,13.999875 2.9218938,13.99975 2.8184642,13.799717 Z M 11,9.5 V 8 H 9.5 8 V 6.5 5 H 6.5 5 V 6.5 8 H 6.5 8 V 9.5 11 H 9.5 11 Z"
       id="path825"
       inkscape:connector-curvature="0" />
    <path
       style="fill:#98cbfe;stroke-width:0.000357143"
       d="M 5,12.5 V 11 H 3.5 2 V 9.5 8 H 3.5 5 V 6.5 5 H 3.5 2 L 2.0001156,3.9609375 2.0002312,2.921875 2.2002647,2.8184455 C 2.4438524,2.6924956 2.7143651,2.4177928 2.8329918,2.1759175 L 2.9192699,2 H 3.959635 5 V 3.5 5 H 6.5 8 V 3.5 2 H 9.5 11 V 3.5 5 H 12.5 14 V 6.5 8 H 12.5 11 V 9.5 11 h 1.5 1.5 v 1.040365 1.040365 l -0.175918,0.08628 c -0.241875,0.118627 -0.516578,0.389139 -0.642527,0.632727 l -0.10343,0.200034 -1.039062,1.15e-4 L 11,14 V 12.5 11 H 9.5 8 V 12.5 14 H 6.5 5 Z m 3,-3 V 8 H 9.5 11 V 6.5 5 H 9.5 8 V 6.5 8 H 6.5 5 V 9.5 11 H 6.5 8 Z"
       id="path823"
       inkscape:connector-curvature="0" />
    <path
       style="fill:#fefe00;stroke-width:0.000357143"
       d="M 1,14.5 V 14 H 1.5 2 V 14.5 15 H 1.5 1 Z m 13,0 V 14 H 14.5 15 V 14.5 15 H 14.5 14 Z M 1,1.5 V 1 H 1.5 2 V 1.5 2 H 1.5 1 Z m 13,0 V 1 H 14.5 15 V 1.5 2 H 14.5 14 Z"
       id="path821"
       inkscape:connector-curvature="0" />
    <path
       style="fill:#323232;stroke-width:0.000357143"
       d="M 1.1285102,15.950608 C 0.33848963,15.738145 -0.15401727,14.916943 0.04661462,14.146666 0.15412117,13.73392 0.44001506,13.367552 0.79973544,13.181555 l 0.2000334,-0.10343 V 8 2.921875 L 0.79973544,2.8184455 C 0.44001506,2.6324479 0.15412117,2.26608 0.04661462,1.8533344 -0.22999595,0.79135475 0.79135475,-0.22999595 1.8533344,0.04661462 2.26608,0.15412117 2.6324479,0.44001506 2.8184455,0.79973544 L 2.921875,0.99976884 H 8 13.078125 l 0.10343,-0.2000334 c 0.185997,-0.35972038 0.552365,-0.64561427 0.965111,-0.75312081 1.061979,-0.27661058 2.08333,0.74474012 1.806719,1.80671977 -0.107506,0.4127456 -0.3934,0.7791135 -0.75312,0.9651111 L 15.000231,2.921875 V 8 13.078125 l 0.200034,0.10343 c 0.35972,0.185997 0.645614,0.552365 0.75312,0.965111 0.276611,1.061979 -0.74474,2.08333 -1.806719,1.806719 -0.412746,-0.107506 -0.779114,-0.3934 -0.965111,-0.75312 l -0.10343,-0.200034 H 8 2.921875 l -0.1034295,0.200034 c -0.3089699,0.597549 -1.0442088,0.924 -1.6899353,0.750343 z M 2,14.5 V 14 H 1.5 1 V 14.5 15 H 1.5 2 Z m 13,0 V 14 H 14.5 14 v 0.5 0.5 h 0.5 0.5 z m -1.818445,-0.700265 c 0.125949,-0.243587 0.400652,-0.5141 0.642527,-0.632727 L 14,13.08073 13.999884,8.0013025 13.999769,2.921875 13.799735,2.8184455 C 13.556148,2.6924956 13.285635,2.4177928 13.167008,2.1759175 L 13.08073,2 H 8 2.9192699 L 2.8329918,2.1759175 C 2.7143651,2.4177928 2.4438524,2.6924956 2.2002646,2.8184455 L 2.0002312,2.921875 2.0001156,8.0013025 2,13.08073 2.1759175,13.16701 c 0.2418753,0.118627 0.5165781,0.38914 0.642528,0.632727 L 2.921875,13.999769 H 8 13.078125 Z M 2,1.5 V 1 H 1.5 1 V 1.5 2 H 1.5 2 Z m 13,0 V 1 H 14.5 14 V 1.5 2 h 0.5 0.5 z"
       id="path819"
       inkscape:connector-curvature="0" />
  </g>
</svg>
