<?xml version="1.0" encoding="UTF-8" standalone="no"?>
<!-- Created with Inkscape (http://www.inkscape.org/) -->

<svg
   version="1.1"
   id="svg2"
   width="1600"
   height="1600"
   viewBox="0 0 1600 1600"
   sodipodi:docname="man_trans.svg"
   inkscape:version="1.2.2 (732a01da63, 2022-12-09)"
   xmlns:inkscape="http://www.inkscape.org/namespaces/inkscape"
   xmlns:sodipodi="http://sodipodi.sourceforge.net/DTD/sodipodi-0.dtd"
   xmlns="http://www.w3.org/2000/svg"
   xmlns:svg="http://www.w3.org/2000/svg"
   xmlns:rdf="http://www.w3.org/1999/02/22-rdf-syntax-ns#"
   xmlns:cc="http://creativecommons.org/ns#"
   xmlns:dc="http://purl.org/dc/elements/1.1/">
  <metadata
     id="metadata8">
    <rdf:RDF>
      <cc:Work
         rdf:about="">
        <dc:format>image/svg+xml</dc:format>
        <dc:type
           rdf:resource="http://purl.org/dc/dcmitype/StillImage" />
      </cc:Work>
    </rdf:RDF>
  </metadata>
  <defs
     id="defs6" />
  <sodipodi:namedview
     pagecolor="#808080"
     bordercolor="#666666"
     borderopacity="1"
     objecttolerance="10"
     gridtolerance="10"
     guidetolerance="10"
     inkscape:pageopacity="0"
     inkscape:pageshadow="2"
     inkscape:window-width="1993"
     inkscape:window-height="1009"
     id="namedview4"
     showgrid="false"
     inkscape:zoom="0.5"
     inkscape:cx="153"
     inkscape:cy="38"
     inkscape:window-x="-8"
     inkscape:window-y="-8"
     inkscape:window-maximized="1"
     inkscape:current-layer="MAN_TRANS"
     inkscape:showpageshadow="0"
     inkscape:pagecheckerboard="true"
     inkscape:deskcolor="#d1d1d1" />
  <g
     id="MAN_TRANS"
     transform="matrix(100,0,0,100,0,4.9999997e-5)"
     style="stroke-width:0.0114286">
    <path
       style="fill:none;stroke-width:0.000357143"
       d="M 0,8 V 0 h 8 8 v 8 8 H 8 0 Z m 3.672395,6.911948 c 0.1377859,-0.04797 0.3416922,-0.14798 0.453125,-0.222249 0.1368591,-0.09122 1.0770775,-1.008156 2.8974044,-2.82567 L 9.7177237,9.1733928 10.569799,10.018886 c 0.990963,0.983307 1.008669,0.995497 1.445826,0.995497 0.235423,0 0.306709,-0.01251 0.4375,-0.07676 0.2066,-0.101493 0.393587,-0.292876 0.49054,-0.50207 0.0458,-0.09882 0.500768,-1.8604425 1.087233,-4.2097222 C 14.992921,2.3721304 15.03868,2.175638 15.024268,1.9602079 14.988229,1.4215032 14.611071,1.0420144 14.078125,1.0082185 13.872847,0.99520106 13.608648,1.0570851 9.7881247,2.0130791 7.5489372,2.5733818 5.6504997,3.0629902 5.5693747,3.1010976 5.3803712,3.1898797 5.1911444,3.3796147 5.093625,3.578125 5.029373,3.7089156 5.016867,3.7802019 5.016867,4.015625 c 0,0.4371569 0.012191,0.4548625 0.9954978,1.4458256 L 6.8578572,6.3135262 4.1672209,9.0083256 C 2.3497065,10.828652 1.4327658,11.768871 1.3415508,11.90573 c -0.074269,0.111433 -0.1742809,0.315339 -0.2222494,0.453125 -0.078134,0.224434 -0.087215,0.292821 -0.087215,0.65677 0,0.364399 0.00903,0.432179 0.087623,0.657946 0.2031381,0.583515 0.6540534,1.034699 1.2368424,1.23758 0.2270441,0.07904 0.2942482,0.08801 0.6590739,0.08801 0.3639491,0 0.4323356,-0.0091 0.65677,-0.08722 z"
       id="path825"
       inkscape:connector-curvature="0" />
    <path
       style="fill:#fefefe;stroke-width:0.000357143"
       d="m 2.0386532,12.862205 c 0.035137,-0.311733 0.003,-0.276843 3.1985646,-3.4727447 L 8.2780059,6.34835 8.4863928,6.5061031 8.69478,6.6638562 5.6316303,9.7303656 C 3.1667113,12.197988 2.5643601,12.81671 2.5473823,12.898438 L 2.526284,13 H 2.2747029 2.0231217 Z M 6.5388459,4.1642428 C 6.3026369,4.0909044 6.0882812,4.03877 6.0625,4.0483887 c -0.041667,0.015545 -0.041667,0.012561 0,-0.026862 0.025781,-0.024393 1.8245234,-0.4880325 3.997205,-1.0303102 l 3.95033,-0.985959 -0.35658,0.3552955 -0.35658,0.3552956 -3.164279,0.7908684 -3.1642794,0.7908684 z"
       id="path823"
       inkscape:connector-curvature="0" />
    <path
       style="fill:#98cbfe;stroke-width:0.000357143"
       d="M 2.6769445,13.953131 C 2.3244861,13.819388 2.03125,13.434421 2.03125,13.105446 V 13 H 2.278767 2.526284 L 2.547382,12.898438 C 2.5643602,12.81671 3.166745,12.197955 5.6318128,9.7301831 L 8.695145,6.6634912 8.4569475,6.4842094 C 8.2430569,6.3232222 8.1523994,6.2393784 8.2578125,6.3000409 8.3148856,6.332885 8.35834,6.3773375 7.1259853,5.1422069 6.4991837,4.5139931 5.9929338,4.0001812 6.0009853,4.0004031 c 0.00805,2.188e-4 0.2288991,0.067203 0.4907716,0.1488463 L 6.9678887,4.2976925 10.132382,3.5066666 13.296875,2.7156409 13.664063,2.3504965 C 13.866016,2.149667 14.03125,1.9957662 14.03125,2.0084948 c 0,0.020096 -1.886397,7.5843721 -1.972776,7.9106496 L 12.026104,10.041414 10.880083,8.8957069 C 10.249772,8.2655681 9.7232809,7.75 9.7101034,7.75 c -0.013177,0 -1.3931887,1.3690847 -3.0666915,3.04241 -2.3587419,2.358492 -3.0768794,3.059148 -3.1946347,3.116869 -0.1883038,0.0923 -0.5847846,0.114828 -0.7718327,0.04385 z"
       id="path821"
       inkscape:connector-curvature="0" />
    <path
       style="fill:#003265;stroke-width:0.000357143"
       d="m 2.3565511,14.911151 c -0.582789,-0.202881 -1.0337043,-0.654065 -1.2368424,-1.23758 -0.078596,-0.225767 -0.087623,-0.293547 -0.087623,-0.657946 0,-0.363949 0.00908,-0.432336 0.087215,-0.65677 0.047969,-0.137786 0.1479807,-0.341692 0.2222494,-0.453125 0.091215,-0.136859 1.0081557,-1.077077 2.8256701,-2.8974044 L 6.8578572,6.3135263 6.0123644,5.4614506 C 5.0290572,4.4704875 5.0168666,4.4527819 5.0168666,4.015625 c 0,-0.2354231 0.012507,-0.3067094 0.076758,-0.4375 0.097519,-0.1985103 0.2867462,-0.3882453 0.4757497,-0.4770274 0.081125,-0.038107 1.9795625,-0.5277158 4.21875,-1.0880185 3.8205237,-0.955994 4.0847227,-1.01787804 4.2900007,-1.0048606 0.532946,0.033796 0.910104,0.4132847 0.946143,0.9519894 0.01441,0.2154301 -0.03135,0.4119225 -0.99337,4.2656249 -0.586465,2.3492797 -1.041434,4.1109022 -1.087233,4.2097222 -0.09695,0.209194 -0.28394,0.400577 -0.49054,0.50207 -0.130791,0.06425 -0.202077,0.07676 -0.4375,0.07676 -0.437157,0 -0.454863,-0.01219 -1.445826,-0.995497 L 9.7177238,9.1733928 7.0229244,11.864029 c -1.8203269,1.817514 -2.7605453,2.734455 -2.8974044,2.82567 -0.1114328,0.07427 -0.3153391,0.174281 -0.453125,0.222249 -0.2244344,0.07813 -0.2928209,0.08722 -0.65677,0.08722 -0.3648257,0 -0.4320298,-0.009 -0.6590739,-0.08801 z M 3.4487772,13.909279 C 3.5665325,13.851558 4.28467,13.150902 6.6434119,10.79241 8.3169147,9.1190847 9.6969259,7.75 9.7101034,7.75 c 0.013178,0 0.5396686,0.5155681 1.1699796,1.1457069 l 1.146021,1.1457071 0.03237,-0.1222696 c 0.148879,-0.5623569 1.972765,-7.8983221 1.965505,-7.9055821 -0.0052,-0.00519 -1.814056,0.4417333 -4.019706,0.9931576 L 5.9939991,4.0093097 7.1342206,5.1530925 C 7.8631363,5.8842841 8.2684709,6.3128372 8.2578881,6.341125 8.2487781,6.365462 6.8812669,7.7454681 5.2189631,9.4078041 2.8621663,11.764647 2.1803011,12.463722 2.1226113,12.582304 c -0.089027,0.182997 -0.1164822,0.513234 -0.059569,0.716509 0.076076,0.271717 0.3361658,0.54893 0.6139017,0.654318 0.1870481,0.07098 0.5835289,0.04845 0.7718327,-0.04385 z"
       id="path819"
       inkscape:connector-curvature="0" />
  </g>
</svg>
