<?xml version="1.0" encoding="UTF-8" standalone="no"?>
<!-- Created with Inkscape (http://www.inkscape.org/) -->

<svg
   version="1.1"
   id="svg2"
   width="1600"
   height="1600"
   viewBox="0 0 1600 1600"
   sodipodi:docname="mark_fs_edge.svg"
   inkscape:version="1.2.2 (732a01da63, 2022-12-09)"
   xmlns:inkscape="http://www.inkscape.org/namespaces/inkscape"
   xmlns:sodipodi="http://sodipodi.sourceforge.net/DTD/sodipodi-0.dtd"
   xmlns="http://www.w3.org/2000/svg"
   xmlns:svg="http://www.w3.org/2000/svg"
   xmlns:rdf="http://www.w3.org/1999/02/22-rdf-syntax-ns#"
   xmlns:cc="http://creativecommons.org/ns#"
   xmlns:dc="http://purl.org/dc/elements/1.1/">
  <metadata
     id="metadata8">
    <rdf:RDF>
      <cc:Work
         rdf:about="">
        <dc:format>image/svg+xml</dc:format>
        <dc:type
           rdf:resource="http://purl.org/dc/dcmitype/StillImage" />
      </cc:Work>
    </rdf:RDF>
  </metadata>
  <defs
     id="defs6" />
  <sodipodi:namedview
     pagecolor="#808080"
     bordercolor="#666666"
     borderopacity="1"
     objecttolerance="10"
     gridtolerance="10"
     guidetolerance="10"
     inkscape:pageopacity="0"
     inkscape:pageshadow="2"
     inkscape:window-width="1993"
     inkscape:window-height="1009"
     id="namedview4"
     showgrid="false"
     inkscape:zoom="0.5"
     inkscape:cx="523"
     inkscape:cy="256"
     inkscape:window-x="-8"
     inkscape:window-y="-8"
     inkscape:window-maximized="1"
     inkscape:current-layer="MARK_FS_EDGE"
     inkscape:showpageshadow="0"
     inkscape:pagecheckerboard="true"
     inkscape:deskcolor="#d1d1d1" />
  <g
     id="MARK_FS_EDGE"
     transform="matrix(100,0,0,100,0,4.9999997e-5)"
     style="stroke-width:0.0114286">
    <path
       style="fill:none;stroke-width:0.000357143"
       d="M 0,8 V 0 h 8 8 v 8 8 H 8 0 Z m 8.2744413,7.514041 C 8.54904,15.39951 8.7169403,15.138074 8.7180638,14.823282 l 6.875e-4,-0.192343 0.1484375,-0.08851 c 0.081641,-0.04868 0.1723293,-0.10275 0.2015303,-0.120157 0.029201,-0.01741 0.2260759,-0.128627 0.4375,-0.247156 0.211424,-0.11853 0.3914384,-0.224021 0.4000322,-0.234425 0.00859,-0.0104 0.057813,-0.03979 0.1093747,-0.06529 0.05156,-0.02551 0.128907,-0.06971 0.171875,-0.09824 0.04297,-0.02852 0.223763,-0.134195 0.401764,-0.234824 0.178002,-0.100629 0.384094,-0.218118 0.457983,-0.261087 0.07389,-0.04297 0.265752,-0.152659 0.426361,-0.243756 0.16061,-0.0911 0.334205,-0.192261 0.385767,-0.22481 0.05156,-0.03255 0.128907,-0.07883 0.171875,-0.102845 0.30376,-0.169774 0.781379,-0.442717 0.859375,-0.491104 0.05156,-0.03199 0.2625,-0.152596 0.46875,-0.268018 0.20625,-0.115423 0.382032,-0.219082 0.390625,-0.230354 0.0086,-0.01127 0.06484,-0.04387 0.125,-0.07245 0.06016,-0.02857 0.147524,-0.08409 0.194151,-0.123371 l 0.08477,-0.07142 -0.04119,-3.3748591 C 14.085192,5.8212092 14.081912,4.6868061 14.102832,4.653292 14.157102,4.566384 14.101032,4.4428307 13.976047,4.3739407 13.911867,4.3385667 13.803109,4.2786297 13.734359,4.2407479 13.665609,4.2028659 13.602328,4.1638309 13.593734,4.1540039 13.585158,4.1441794 13.465626,4.0748762 13.328126,4 13.190626,3.925124 13.071095,3.8550881 13.062501,3.844365 13.053901,3.833642 12.997661,3.800426 12.937501,3.770551 12.877345,3.7406759 12.771876,3.6819528 12.703126,3.640055 12.634376,3.5981572 12.458595,3.4979791 12.312501,3.4174369 12.166408,3.3368944 12.039845,3.2627341 12.031251,3.2526356 12.022658,3.2425375 11.973439,3.2132266 11.921876,3.1875 11.870314,3.1617734 11.821095,3.1327375 11.812501,3.1229751 11.798818,3.1074323 11.234559,2.7858399 10.911349,2.609375 10.848388,2.575 10.789844,2.5388343 10.78125,2.5290068 10.772656,2.5191793 10.653125,2.4498762 10.515625,2.375 10.378125,2.3001238 10.258594,2.230088 10.25,2.219365 10.241406,2.2086419 10.185156,2.1754255 10.125,2.1455507 10.064844,2.1156758 9.959375,2.0569528 9.890625,2.0150551 9.821875,1.9731573 9.6460938,1.8729791 9.5,1.7924367 9.3539063,1.7118944 9.2273437,1.6377564 9.21875,1.6276856 9.2101563,1.6176147 9.1516119,1.58125 9.0886513,1.546875 9.0256906,1.5125 8.8030578,1.3859375 8.5939116,1.265625 8.3847653,1.1453125 8.1831538,1.0295042 8.1458853,1.0082732 7.9953281,0.92250356 7.8672309,0.97363431 7.140625,1.4095286 7.0890625,1.4404612 6.9203125,1.5374233 6.765625,1.625 6.6109375,1.7125767 6.4421875,1.8100718 6.390625,1.8416559 6.3390625,1.87324 6.1070313,2.0077437 5.875,2.140553 5.6429688,2.2733623 5.396875,2.4155118 5.328125,2.4564408 5.259375,2.4973698 5.0860238,2.5977424 4.9429003,2.6794911 4.7997766,2.7612397 4.6591516,2.8424096 4.6304003,2.8598685 4.6016488,2.8773275 4.3700044,3.0109213 4.1156344,3.1567434 3.8612647,3.3025659 3.6011084,3.4532056 3.5375094,3.4914988 3.4739106,3.5297919 3.309375,3.6253344 3.171875,3.7038153 3.034375,3.7822963 2.8526966,3.8863847 2.7681453,3.9351225 L 2.6144155,4.0237369 2.3940269,3.9181184 C 2.0406926,3.7487875 1.743893,3.7880847 1.5093963,4.0352466 1.1647731,4.3984825 1.2808515,4.9314328 1.7576638,5.1751166 l 0.1482888,0.075786 0.00796,3.1633325 0.00796,3.1633319 0.484375,0.271738 c 0.2664063,0.149456 0.4984375,0.283634 0.515625,0.298174 0.017187,0.01454 0.080469,0.05146 0.140625,0.08204 0.1826663,0.09286 0.3584791,0.191343 0.375,0.210058 0.00859,0.0097 0.1891116,0.115203 0.4011506,0.234375 0.2120391,0.119171 0.4511016,0.254278 0.53125,0.300237 0.2301441,0.131972 0.2706891,0.155139 0.8488494,0.485024 0.9068741,0.517441 1.6662897,0.953408 1.765625,1.013613 0.051563,0.03125 0.1464844,0.08559 0.2109375,0.120758 0.1135091,0.06193 0.1171875,0.06935 0.1171875,0.236182 0,0.206953 0.062172,0.367989 0.1968962,0.509989 0.1974622,0.208128 0.5120722,0.2798 0.7650451,0.174288 z"
       id="path827"
       inkscape:connector-curvature="0" />
    <path
       style="fill:#98cbfe;stroke-width:0.000357143"
       d="M 8.4043544,7.4508409 C 8.3819153,7.4238034 8.3133966,7.3737159 8.2520906,7.3395353 8.1907844,7.3053544 8.0492188,7.2228381 7.9375,7.1561656 7.8257813,7.0894931 7.6570313,6.9914859 7.5625,6.9383722 7.4679688,6.8852584 7.3273438,6.8005069 7.25,6.7500353 7.1726563,6.6995637 7.0397497,6.6209884 6.9546519,6.5754231 6.8695544,6.5298575 6.7640856,6.4677631 6.7202769,6.437435 6.6764684,6.4071069 6.5165853,6.3138553 6.3649813,6.2302091 6.2133772,6.1465628 6.0024397,6.0262216 5.8962313,5.9627841 5.7900228,5.8993462 5.6257812,5.8036366 5.53125,5.7500953 5.4367188,5.6965544 5.2989003,5.6148641 5.2249869,5.5685616 4.9457794,5.3936538 4.6969,5.2484587 4.515625,5.1547228 4.4125,5.1013978 4.2648438,5.0170837 4.1875,4.9673581 4.1101563,4.9176328 3.9695313,4.8334916 3.875,4.7803778 3.7804688,4.7272641 3.6117188,4.6290494 3.5,4.5621231 3.3882813,4.4951969 3.2230469,4.4016922 3.1328125,4.3543347 3.0425781,4.3069772 2.96875,4.2600563 2.96875,4.2500663 c 0,-0.00999 0.094922,-0.070584 0.2109375,-0.1346519 C 3.2957031,4.0513459 3.446875,3.9647394 3.515625,3.9229556 3.6567694,3.8371731 3.6821844,3.8226241 4.09375,3.5920009 4.2570313,3.5005053 4.3976563,3.4177659 4.40625,3.4081353 4.4148438,3.3985047 4.4733881,3.3625 4.5363488,3.328125 4.6364941,3.2734481 5.1417516,2.9843318 5.5466756,2.75 5.6209256,2.7070313 5.7919703,2.6096032 5.9267753,2.5334932 6.06158,2.4573833 6.1789062,2.3870708 6.1875,2.3772432 6.1960937,2.3674157 6.2551366,2.33125 6.3187066,2.296875 6.3822766,2.2625 6.6050234,2.1359375 6.8137,2.015625 7.0223762,1.8953125 7.2540934,1.7617187 7.3286269,1.71875 7.4031603,1.6757812 7.5741631,1.5788304 7.7086334,1.5033036 7.8431037,1.4277768 7.9578456,1.3538492 7.9636153,1.3390199 c 0.00577,-0.014829 0.050128,0.00126 0.098574,0.035759 0.048446,0.034497 0.1034909,0.062721 0.1223222,0.062721 0.018831,0 0.034238,0.014063 0.034238,0.03125 0,0.017187 0.012113,0.03125 0.026918,0.03125 0.014805,0 0.2351335,0.1195313 0.4896182,0.265625 0.2544846,0.1460937 0.4732306,0.265625 0.4861021,0.265625 0.012872,0 0.02809,0.01128 0.03382,0.025067 0.00573,0.013787 0.1369791,0.095778 0.2916666,0.1822027 0.3754503,0.2097659 0.4891716,0.2753789 0.6307746,0.3639337 0.06557,0.041008 0.238756,0.1405111 0.38485,0.2211172 0.146094,0.080606 0.321875,0.1806608 0.390625,0.2223437 0.122987,0.074567 0.505834,0.2958656 0.8125,0.4696537 0.08594,0.048701 0.198437,0.1137866 0.25,0.1446347 0.05156,0.030848 0.20625,0.1202085 0.34375,0.1985785 0.1375,0.07837 0.320312,0.184429 0.40625,0.2356865 0.08594,0.051257 0.300167,0.1740181 0.476065,0.2728013 0.175898,0.098783 0.320039,0.1888818 0.320312,0.2002187 2.82e-4,0.011337 -0.108486,0.080176 -0.24169,0.1529747 -0.133203,0.072799 -0.249218,0.1408894 -0.257812,0.1513119 -0.0086,0.010423 -0.05781,0.039819 -0.109375,0.065326 -0.05156,0.025507 -0.128906,0.069714 -0.171875,0.098238 -0.04297,0.028524 -0.223763,0.134195 -0.401764,0.234824 -0.178002,0.1006291 -0.384094,0.2181182 -0.457983,0.2610869 -0.07389,0.042969 -0.265752,0.1526588 -0.426361,0.2437556 -0.16061,0.091097 -0.334205,0.1922616 -0.385767,0.2248107 -0.05156,0.03255 -0.128905,0.07883 -0.171874,0.1028452 C 10.634159,6.2722006 10.156131,6.5453694 10.078125,6.59375 10.000119,6.6421306 9.5220912,6.9152994 9.21875,7.0848394 9.1757812,7.108855 9.0984375,7.1549878 9.046875,7.1873566 8.85929,7.3051147 8.5022203,7.5 8.4740484,7.5 8.4581564,7.5 8.4267934,7.477878 8.4043544,7.4508409 Z"
       id="path825"
       inkscape:connector-curvature="0" />
    <path
       style="fill:#6598cb;stroke-width:0.000357143"
       d="M 7.171875,14.171282 C 7.103125,14.131227 7.0328125,14.08639 7.015625,14.071645 6.9984375,14.056899 6.9351563,14.020118 6.875,13.989909 6.8148437,13.9597 6.709375,13.900834 6.640625,13.859097 6.571875,13.81736 6.3398437,13.683711 6.125,13.5621 5.9101562,13.440488 5.6921875,13.315817 5.640625,13.285052 5.5890625,13.254287 5.4835937,13.1935 5.40625,13.149971 5.2489837,13.061461 4.4110325,12.58309 4.265625,12.498809 4.2140625,12.468922 3.9820313,12.335589 3.75,12.202513 3.3779569,11.989135 3.2109878,11.894274 2.9859663,11.768437 c -0.0335,-0.01873 -0.075687,-0.04565 -0.09375,-0.05981 C 2.8741536,11.694461 2.7257812,11.60854 2.5625,11.517689 L 2.265625,11.352504 2.2576523,8.4262522 C 2.2532673,6.8168134 2.2572504,5.5 2.2665037,5.5 c 0.022844,0 0.2679266,0.1339266 0.5147463,0.2812853 0.1117188,0.0667 0.2804687,0.1647288 0.375,0.2178425 0.094531,0.053114 0.2351563,0.1382397 0.3125,0.1891684 0.077344,0.050929 0.225,0.1353354 0.328125,0.1875704 0.1801484,0.091249 0.4241269,0.2327612 0.7093619,0.411445 0.073913,0.046303 0.2117318,0.1279928 0.3062631,0.1815337 0.094531,0.053541 0.2632813,0.1516775 0.375,0.2180809 0.1117187,0.066403 0.34375,0.2004194 0.515625,0.2978135 C 6.0010394,7.6535547 6.2930059,7.8241991 6.53125,7.96875 6.8550947,8.1652381 7.0608478,8.2857456 7.1796875,8.3485338 L 7.3125,8.4187041 v 2.9156479 c 0,1.603606 -0.00352,2.914322 -0.00781,2.912702 -0.0043,-0.0016 -0.064063,-0.03572 -0.1328125,-0.07577 z M 8.71875,11.080159 C 8.71875,9.32812 8.706556,7.940745 8.690792,7.8992828 8.665082,7.8316608 8.680412,7.8157888 8.8813926,7.7019359 9.0015997,7.63384 9.1231653,7.5639306 9.1515381,7.5465822 9.1799109,7.5292337 9.3507813,7.4319259 9.53125,7.3303428 9.7117187,7.22876 9.8664063,7.1367528 9.875,7.1258825 9.88359,7.1150125 9.939844,7.0812155 10,7.0507785 c 0.06016,-0.030437 0.1375,-0.072024 0.171875,-0.092414 0.03438,-0.020391 0.210156,-0.1201878 0.390625,-0.2217709 0.180469,-0.1015828 0.335156,-0.1942644 0.34375,-0.2059587 0.0086,-0.011694 0.02983,-0.026887 0.04718,-0.033761 0.02753,-0.010904 0.867711,-0.4898481 1.009586,-0.5755137 0.02893,-0.017471 0.207296,-0.1197628 0.396358,-0.227315 0.189063,-0.1075525 0.4,-0.2302613 0.46875,-0.2726866 0.06875,-0.042425 0.146099,-0.087789 0.171886,-0.1008097 0.02579,-0.01302 0.192016,-0.1058822 0.369397,-0.2063597 0.17738,-0.1004778 0.331259,-0.1739378 0.341952,-0.1632446 0.01069,0.010693 0.02982,0.8241521 0.04249,1.8076868 0.01268,0.9835344 0.03323,2.3999632 0.04568,3.1476194 l 0.02262,1.3593752 -0.403264,0.231709 c -0.221795,0.127441 -0.60717,0.348042 -0.856389,0.490226 -0.249219,0.142184 -0.46783,0.271332 -0.485802,0.286996 -0.01797,0.01566 -0.04624,0.03412 -0.06281,0.04102 -0.02635,0.01097 -0.86747,0.490984 -1.008159,0.575338 -0.02893,0.01735 -0.200264,0.114467 -0.380733,0.215819 -0.180469,0.101352 -0.363281,0.208195 -0.40625,0.237427 -0.04297,0.02923 -0.144725,0.08993 -0.2261259,0.134881 -0.3268772,0.180509 -0.6787435,0.382533 -0.9426322,0.541211 -0.1529731,0.09198 -0.2900825,0.167244 -0.3046875,0.167244 -0.014605,0 -0.026554,-1.398303 -0.026554,-3.107341 z"
       id="path823"
       inkscape:connector-curvature="0" />
    <path
       style="fill:#fe0000;stroke-width:0.000357143"
       d="M 7.734375,15.50313 C 7.665625,15.471231 7.5643847,15.397712 7.5093962,15.339753 7.300425,15.119496 7.3125,15.342074 7.3125,11.710356 V 8.4187041 L 7.1796875,8.3485338 C 7.0608478,8.2857456 6.8550947,8.1652381 6.53125,7.96875 6.2930059,7.8241991 6.0010394,7.6535547 5.703125,7.4847397 5.53125,7.3873456 5.2992187,7.2533297 5.1875,7.1869262 5.0757813,7.1205228 4.9070312,7.0223866 4.8125,6.9688453 4.7179687,6.9153044 4.5801503,6.8336141 4.5062369,6.7873116 4.2210019,6.6086278 3.9770234,6.4671153 3.796875,6.3758666 3.69375,6.3236316 3.5460937,6.239225 3.46875,6.1882963 3.3914063,6.1373675 3.2507813,6.0522416 3.15625,5.9991278 3.0617187,5.9460141 2.8929688,5.8479691 2.78125,5.78125 2.6695313,5.7145309 2.5007813,5.6164859 2.40625,5.5633722 2.3117187,5.5102584 2.1710937,5.4254909 2.09375,5.375 2.0164063,5.3245091 1.8757812,5.2418456 1.78125,5.1913034 1.4710207,5.0254356 1.3125,4.7969366 1.3125,4.515625 1.3125,4.1352534 1.6339683,3.8148522 2.017278,3.8131863 2.1822049,3.8124706 2.4978168,3.9483197 2.8125,4.1554775 2.8898437,4.2063931 3.0304687,4.2915084 3.125,4.3446222 3.2195313,4.3977359 3.3882813,4.4957809 3.5,4.5625 c 0.1117188,0.066719 0.2804687,0.1647641 0.375,0.2178778 0.094531,0.053114 0.2351562,0.137255 0.3125,0.1869803 0.077344,0.049726 0.225,0.1340397 0.328125,0.1873647 0.181275,0.093736 0.4301544,0.238931 0.7093619,0.4138388 0.073913,0.046303 0.2117318,0.1279928 0.3062631,0.1815337 0.094531,0.053541 0.2587728,0.1492509 0.3649812,0.2126888 0.1062085,0.063438 0.317146,0.1837787 0.46875,0.267425 0.1516041,0.083646 0.3114872,0.1768978 0.3552957,0.2072259 0.043809,0.030328 0.1492775,0.092423 0.234375,0.1379881 0.085098,0.045565 0.2180043,0.1241406 0.2953481,0.1746122 0.077344,0.050472 0.2179687,0.1352231 0.3125,0.1883369 0.094531,0.053114 0.2632813,0.1511209 0.375,0.2177934 0.1117188,0.066673 0.2523438,0.1489844 0.3125,0.182915 0.1601994,0.09036 0.2980163,0.2472466 0.3884228,0.4421694 l 0.079717,0.171875 -3.813e-4,3.53125 c -3.656e-4,3.373693 -0.00297,3.536827 -0.058379,3.65625 -0.1637603,0.352946 -0.5876091,0.51905 -0.9250045,0.362505 z"
       id="path821"
       inkscape:connector-curvature="0" />
    <path
       style="fill:#000000;stroke-width:0.000357143"
       d="M 7.171875,14.579599 C 7.103125,14.538566 7.0117187,14.485272 6.96875,14.461167 6.9257812,14.437063 6.6375,14.271969 6.328125,14.094293 6.01875,13.916616 5.5195312,13.630829 5.21875,13.459211 4.6405897,13.129326 4.6000447,13.106159 4.3699006,12.974188 4.2897522,12.928228 4.0506897,12.793121 3.8386506,12.67395 3.6266116,12.554778 3.4460937,12.44931 3.4375,12.439575 3.4209791,12.42086 3.2451662,12.322378 3.0625,12.229517 3.0023437,12.198936 2.9390625,12.162019 2.921875,12.147479 2.9046875,12.132939 2.6726562,11.998761 2.40625,11.849305 L 1.921875,11.577567 1.913915,8.4127378 1.905955,5.2479088 1.992041,5.3069748 c 0.047348,0.032486 0.1246866,0.082453 0.1718646,0.1110366 l 0.085778,0.051971 0.00797,2.9412609 0.00797,2.9412607 0.296875,0.165185 c 0.1632812,0.09085 0.3116536,0.176772 0.3297163,0.190935 0.018063,0.01416 0.06025,0.04108 0.09375,0.05981 0.2250215,0.125837 0.3919906,0.220698 0.7640337,0.434076 0.2320313,0.133076 0.4640625,0.266409 0.515625,0.296296 0.1454075,0.08428 0.9833587,0.562652 1.140625,0.651162 0.077344,0.04353 0.1828125,0.104316 0.234375,0.135081 0.051563,0.03076 0.2695312,0.155436 0.484375,0.277048 0.2148437,0.121611 0.446875,0.25526 0.515625,0.296997 0.06875,0.04174 0.1742187,0.100329 0.234375,0.130204 0.060156,0.02988 0.1164062,0.06371 0.125,0.07519 0.00859,0.01148 0.076076,0.05152 0.14996,0.08898 0.1599937,0.08112 0.1686925,0.09923 0.1564156,0.325575 l -0.0095,0.175166 z m 1.5479413,-0.164734 0.00107,-0.21174 0.2254962,-0.127535 C 9.0704009,14.005446 9.3464719,13.847243 9.5598691,13.724028 9.7732666,13.600813 9.9532391,13.5 9.9598084,13.5 c 0.00657,0 0.085097,-0.04662 0.1745056,-0.103597 0.08941,-0.05698 0.310217,-0.186925 0.490686,-0.28877 0.180469,-0.101845 0.351799,-0.199367 0.380733,-0.216715 0.140689,-0.08435 0.981811,-0.564367 1.008159,-0.575338 0.01657,-0.0069 0.04483,-0.02536 0.06281,-0.04102 0.01797,-0.01566 0.236583,-0.144812 0.485802,-0.286996 0.249219,-0.142184 0.634594,-0.362785 0.856389,-0.490226 L 13.822153,11.265625 13.79953,9.90625 C 13.78709,9.1585938 13.76653,7.742165 13.75385,6.7586306 13.74117,5.7750959 13.72205,4.9616369 13.71136,4.9509438 c -0.01069,-0.010693 -0.164572,0.062767 -0.341953,0.1632446 -0.17738,0.1004775 -0.343609,0.1933394 -0.369396,0.2063597 -0.02579,0.01302 -0.103136,0.058385 -0.171886,0.1008097 -0.06875,0.042425 -0.279688,0.1651341 -0.46875,0.2726866 -0.189063,0.1075522 -0.367424,0.209844 -0.396358,0.227315 -0.141875,0.085666 -0.982055,0.5646093 -1.009586,0.5755137 -0.01736,0.00687 -0.03859,0.022067 -0.04718,0.033761 -0.0086,0.011694 -0.163281,0.1043759 -0.34375,0.2059587 -0.180469,0.1015831 -0.35625,0.20138 -0.390625,0.2217709 C 10.1375,6.9787544 10.060156,7.0203409 10,7.0507781 9.9398437,7.0812153 9.8835937,7.1150122 9.875,7.1258825 9.8664062,7.1367528 9.7117187,7.22876 9.53125,7.3303428 9.3507812,7.4319259 9.1795403,7.5292337 9.1507144,7.5465822 8.729925,7.7998291 8.6756312,7.8233372 8.6422503,7.7667356 8.6241687,7.7360769 8.5798106,7.6659541 8.5436762,7.6109069 L 8.4779772,7.5108216 8.7155512,7.3788441 C 8.8462169,7.3062566 8.9953125,7.220235 9.046875,7.1876853 9.0984375,7.1551356 9.1757812,7.108855 9.21875,7.0848394 9.5220912,6.9152994 10.000119,6.6421306 10.078125,6.59375 10.156135,6.545369 10.634159,6.2722006 10.9375,6.1026606 c 0.04297,-0.024016 0.120312,-0.070296 0.171875,-0.1028444 0.05156,-0.032549 0.225157,-0.1337137 0.385767,-0.2248106 0.160609,-0.091097 0.352471,-0.2007869 0.426361,-0.2437556 0.07389,-0.042969 0.279981,-0.1604578 0.457983,-0.2610869 0.178001,-0.100629 0.358795,-0.2063 0.401764,-0.234824 0.04297,-0.028524 0.120312,-0.072732 0.171875,-0.098238 0.05156,-0.025507 0.100781,-0.054903 0.109375,-0.065326 0.0086,-0.010422 0.124609,-0.078513 0.257812,-0.1513119 0.133204,-0.072799 0.241964,-0.1416375 0.24169,-0.1529747 C 13.561721,4.5561515 13.417588,4.4660532 13.24169,4.3672698 13.065792,4.2684868 12.851562,4.145726 12.765625,4.0944685 c -0.08594,-0.051258 -0.26875,-0.1573162 -0.40625,-0.2356866 -0.1375,-0.07837 -0.292188,-0.1677306 -0.34375,-0.1985784 -0.05156,-0.030848 -0.164063,-0.095934 -0.25,-0.1446347 C 11.458959,3.34178 11.076112,3.120481 10.953125,3.0459144 10.884375,3.0042315 10.708594,2.9041769 10.5625,2.8235707 10.416406,2.7429646 10.243223,2.6434618 10.17765,2.6024535 10.036047,2.5138987 9.9223253,2.4482857 9.546875,2.2385198 9.3921875,2.1520952 9.2609375,2.070104 9.2552084,2.0563171 9.2494791,2.0425302 9.2342603,2.03125 9.2213887,2.03125 9.2085172,2.03125 8.9897713,1.9117187 8.7352866,1.765625 8.4808019,1.6195313 8.2604737,1.5 8.2456684,1.5 8.2308634,1.5 8.21875,1.4859375 8.21875,1.46875 8.21875,1.451563 8.203343,1.4375 8.184512,1.4375 8.165681,1.4375 8.110636,1.409275 8.0621898,1.374779 8.0137434,1.3402822 7.969385,1.3241908 7.9636153,1.3390199 7.9578456,1.3538492 7.8431037,1.4277768 7.7086334,1.5033036 7.5741631,1.5788304 7.4031603,1.6757812 7.3286269,1.71875 7.2540934,1.7617187 7.0223763,1.8953125 6.8137,2.015625 6.6050234,2.1359375 6.3822766,2.2625 6.3187066,2.296875 6.2551366,2.33125 6.1960938,2.3674157 6.1875,2.3772432 6.17891,2.3870732 6.06158,2.4573832 5.9267753,2.5334932 5.7919703,2.6096032 5.6209256,2.7070313 5.5466756,2.75 5.1417516,2.9843318 4.6364941,3.2734481 4.5363487,3.328125 4.4733881,3.3625 4.4148437,3.3988647 4.40625,3.4089356 4.3976562,3.4190062 4.2710938,3.4931444 4.125,3.5736869 3.9789063,3.6542291 3.803125,3.7542459 3.734375,3.7959463 3.665625,3.8376466 3.5742188,3.8915497 3.53125,3.9157313 3.4882813,3.9399128 3.3423638,4.0230325 3.2069891,4.1004419 L 2.9608529,4.2411866 2.8271777,4.1664741 C 2.6150953,4.0479387 2.6084073,4.0236516 2.763718,3.9360241 3.0590642,3.7693875 3.4277222,3.5576022 3.5375094,3.4914987 3.6011084,3.4532056 3.8612647,3.3025659 4.1156344,3.1567434 4.3700044,3.0109212 4.6016487,2.8773275 4.6304003,2.8598685 4.6591516,2.8424096 4.7997766,2.7612397 4.9429003,2.6794911 5.0860237,2.5977424 5.259375,2.4973698 5.328125,2.4564408 5.396875,2.4155118 5.6429687,2.2733623 5.875,2.140553 6.1070313,2.0077437 6.3390625,1.87324 6.390625,1.8416559 6.4421875,1.8100718 6.6109375,1.7125767 6.765625,1.625 6.9203125,1.5374233 7.0890625,1.4404612 7.140625,1.4095286 7.8672309,0.97363431 7.9953281,0.92250356 8.1458853,1.0082732 8.1831533,1.0295042 8.3847653,1.1453125 8.5939116,1.265625 8.8030578,1.3859375 9.0256906,1.5125 9.0886512,1.546875 9.1516122,1.58125 9.2101562,1.617615 9.21875,1.627686 9.22734,1.637757 9.3539062,1.711895 9.5,1.7924371 c 0.1460937,0.080542 0.321875,0.1807206 0.390625,0.2226184 0.06875,0.041898 0.174219,0.1006207 0.234375,0.1304956 0.06016,0.029875 0.116406,0.063091 0.125,0.073814 0.0086,0.010723 0.128125,0.080759 0.265625,0.155635 0.1375,0.074876 0.257031,0.1441792 0.265625,0.1540068 0.0086,0.00983 0.06714,0.045993 0.130099,0.080368 0.32321,0.1764649 0.887468,0.4980573 0.901151,0.5136001 0.0086,0.00976 0.05781,0.038798 0.109375,0.064525 0.05156,0.025727 0.100781,0.055038 0.109375,0.065136 0.0086,0.010098 0.135156,0.084259 0.28125,0.1648013 0.146094,0.080542 0.321875,0.1807203 0.390625,0.2226181 0.06875,0.041898 0.174219,0.1006209 0.234375,0.1304956 0.06016,0.029875 0.116406,0.063091 0.125,0.073814 0.0086,0.010723 0.128125,0.080759 0.265625,0.155635 0.1375,0.074876 0.257031,0.1441794 0.265625,0.1540069 0.0086,0.00983 0.07188,0.048863 0.140625,0.086744 0.06875,0.037882 0.177509,0.097819 0.241687,0.1331928 0.124986,0.06889 0.181061,0.1924429 0.126786,0.2793513 -0.02093,0.033514 -0.01765,1.1679172 0.0099,3.4249709 l 0.04119,3.3748591 -0.08478,0.07142 c -0.04663,0.03928 -0.133994,0.0948 -0.19415,0.123371 -0.06016,0.02858 -0.116406,0.06118 -0.125,0.07245 -0.0086,0.01127 -0.184375,0.114931 -0.390625,0.230354 -0.20625,0.115422 -0.417188,0.23603 -0.46875,0.268018 -0.078,0.04839 -0.555615,0.32133 -0.859375,0.491104 -0.04297,0.02402 -0.120313,0.0703 -0.171875,0.102845 -0.05156,0.03255 -0.225158,0.133713 -0.385767,0.22481 -0.160609,0.0911 -0.352471,0.200787 -0.426361,0.243756 -0.07389,0.04297 -0.279981,0.160458 -0.457983,0.261087 -0.178002,0.100629 -0.358795,0.2063 -0.401764,0.234824 -0.04297,0.02852 -0.120313,0.07273 -0.171875,0.09824 -0.051562,0.02551 -0.1007813,0.05489 -0.109375,0.06529 -0.00859,0.0104 -0.184375,0.113291 -0.390625,0.228638 -0.20625,0.115347 -0.43125,0.244015 -0.5,0.285929 -0.06875,0.04191 -0.1636719,0.09761 -0.2109375,0.123776 l -0.085937,0.04757 0.00107,-0.21174 z"
       id="path819"
       inkscape:connector-curvature="0" />
  </g>
</svg>
