<?xml version="1.0" encoding="UTF-8" standalone="no"?>
<!-- Created with Inkscape (http://www.inkscape.org/) -->

<svg
   version="1.1"
   id="svg2"
   width="1600"
   height="1600"
   viewBox="0 0 1600 1600"
   sodipodi:docname="mask_face_sets_boundary.svg"
   inkscape:version="1.4 (86a8ad7, 2024-10-11)"
   xml:space="preserve"
   xmlns:inkscape="http://www.inkscape.org/namespaces/inkscape"
   xmlns:sodipodi="http://sodipodi.sourceforge.net/DTD/sodipodi-0.dtd"
   xmlns="http://www.w3.org/2000/svg"
   xmlns:svg="http://www.w3.org/2000/svg"
   xmlns:rdf="http://www.w3.org/1999/02/22-rdf-syntax-ns#"
   xmlns:cc="http://creativecommons.org/ns#"
   xmlns:dc="http://purl.org/dc/elements/1.1/"><metadata
     id="metadata8"><rdf:RDF><cc:Work
         rdf:about=""><dc:format>image/svg+xml</dc:format><dc:type
           rdf:resource="http://purl.org/dc/dcmitype/StillImage" /></cc:Work></rdf:RDF></metadata><defs
     id="defs6" /><sodipodi:namedview
     pagecolor="#808080"
     bordercolor="#666666"
     borderopacity="1"
     objecttolerance="10"
     gridtolerance="10"
     guidetolerance="10"
     inkscape:pageopacity="0"
     inkscape:pageshadow="2"
     inkscape:window-width="2560"
     inkscape:window-height="1009"
     id="namedview4"
     showgrid="false"
     inkscape:zoom="0.35355339"
     inkscape:cx="999.84899"
     inkscape:cy="842.87128"
     inkscape:window-x="-8"
     inkscape:window-y="-8"
     inkscape:window-maximized="1"
     inkscape:current-layer="MOD_MASK"
     inkscape:showpageshadow="0"
     inkscape:pagecheckerboard="true"
     inkscape:deskcolor="#d1d1d1" /><g
     id="MOD_MASK"
     transform="matrix(100,0,0,100,0,4.9999997e-5)"
     style="stroke-width:0.0114286"
     inkscape:label="mask_facesets_boundary"><path
       style="fill:none;stroke-width:0.000357143"
       d="M 0,8 V 0 h 8 8 v 8 8 H 8 0 Z m 9.359375,6.926265 c 1.095193,-0.166782 2.196695,-0.563008 2.937379,-1.056615 0.286053,-0.190632 0.920858,-0.792052 1.13088,-1.071407 0.177562,-0.236178 0.350719,-0.578434 0.467092,-0.923243 l 0.08965,-0.265625 0.0083,-4.9045597 C 14.002108,1.1184819 14.027045,1.6220011 13.725273,1.3056247 13.44039,1.006955 13.386473,0.99553056 12.313487,1.006482 L 11.41768,1.015625 11.185403,1.1363105 C 10.288258,1.6024443 10.068808,1.6877169 9.4161003,1.8238143 8.8539947,1.9410202 8.4971597,1.9805034 8,1.9805034 7.5028403,1.9805034 7.1460053,1.9410202 6.5838997,1.8238143 5.9311925,1.6877169 5.7117422,1.6024443 4.8145975,1.1363105 L 4.5823203,1.015625 3.6865134,1.006482 C 2.6135267,0.99553056 2.5596096,1.0069551 2.2747269,1.3056247 1.9729551,1.6220011 1.9978916,1.1184819 2.0073345,6.7048153 L 2.015625,11.609375 2.105274,11.875 c 0.1163736,0.344809 0.2895298,0.687065 0.4670918,0.923243 0.2100225,0.279355 0.844827,0.880775 1.1308805,1.071407 0.7702028,0.513279 2.0110268,0.947209 3.0467537,1.065483 0.1632812,0.01865 0.3460937,0.03949 0.40625,0.04631 0.2729622,0.03098 1.9059259,-0.0099 2.203125,-0.05518 z"
       id="path825"
       inkscape:connector-curvature="0" /><path
       style="fill:#c37f77;stroke-width:0.000357143;fill-opacity:1"
       d="M 7.40625,13.979516 C 6.3682906,13.880049 5.57285,13.67712 4.8637237,13.330881 3.8731341,12.847213 3.2532297,12.198871 3.0603705,11.444799 3.002051,11.216772 3,11.052324 3,6.6043762 V 2 H 3.6287856 4.2575709 L 4.5272231,2.1553998 C 5.3675678,2.6396887 6.4232012,2.92523 7.6072659,2.9885298 L 8,3.0095252 V 6.5047625 10 H 6.5 5 l 3.719e-4,0.08594 c 0.00106,0.246455 0.1843647,0.659906 0.4087653,0.922005 C 5.86559,11.541077 6.7538656,11.92163 7.6965,11.987891 L 8,12.009225 V 13.004613 14 L 7.7578125,13.995 C 7.6246094,13.992249 7.4664063,13.985281 7.40625,13.979516 Z M 6.421875,6.9037631 C 6.6195566,6.8099553 6.8077534,6.6227156 6.9062262,6.421875 c 0.1099947,-0.22434 0.1099947,-0.61941 0,-0.84375 C 6.808545,5.3788991 6.6211009,5.191455 6.421875,5.0937737 c -0.22434,-0.1099946 -0.61941,-0.1099946 -0.84375,0 C 4.7657991,5.49206 4.8335172,6.6394078 5.6876684,6.94977 c 0.197215,0.071659 0.53022,0.050793 0.7342066,-0.046007 z"
       id="path823"
       inkscape:connector-curvature="0" /><path
       style="fill:#e0d293;stroke-width:0.000357143;fill-opacity:1"
       d="m 8,13.009375 v -1.00015 l 0.3035009,-0.02133 c 0.9426344,-0.06626 1.8309101,-0.446814 2.2873631,-0.979948 0.2244,-0.262099 0.407701,-0.67555 0.408765,-0.922005 L 11,10 H 9.5 8 V 6.5047625 3.0095252 L 8.3927341,2.9885298 C 9.5767988,2.92523 10.632432,2.6396887 11.472777,2.1553998 L 11.742429,2 H 12.371214 13 v 4.6043762 c 0,4.4479478 -0.0021,4.6123958 -0.06037,4.8404228 -0.35407,1.3844 -2.201097,2.418325 -4.5438927,2.54357 L 8,14.009525 Z m 2.421875,-6.1056119 c 0.197682,-0.093808 0.385878,-0.2810475 0.484351,-0.4818881 0.109995,-0.22434 0.109995,-0.61941 0,-0.84375 -0.09768,-0.1992259 -0.285125,-0.38667 -0.484351,-0.4843512 -0.22434,-0.1099947 -0.61941,-0.1099947 -0.84375,0 C 8.7657991,5.49206 8.8335172,6.6394078 9.6876684,6.94977 9.8848834,7.021429 10.217888,7.000563 10.421875,6.9037631 Z"
       id="path821"
       inkscape:connector-curvature="0" /><g
       id="path4-8"
       style="fill:#323232;fill-opacity:1"><path
         style="fill:#323232;fill-opacity:1"
         d="M 9.687668,6.9497704 C 8.97962,6.6924957 8.7728872,5.8193723 9.296129,5.2961298 9.501453,5.0908063 9.687262,5.0171645 10,5.0171645 c 0.312738,0 0.498547,0.073642 0.703871,0.2789653 0.205323,0.2053234 0.278965,0.3911328 0.278965,0.7038706 0,0.3127378 -0.07364,0.4985472 -0.278965,0.7038706 -0.256764,0.2567635 -0.694675,0.3627288 -1.016203,0.2458994 z"
         id="path6" /><path
         style="fill:#323232;fill-opacity:1"
         d="m 10,4.5175781 c -0.3912295,0 -0.7869353,0.1560766 -1.0566406,0.4257813 C 8.1768991,5.7098206 8.4976155,7.0493106 9.5175781,7.4199219 10.067275,7.619658 10.647518,7.4657624 11.056641,7.0566406 11.326349,6.7869344 11.482422,6.3912274 11.482422,6 c 0,-0.3912295 -0.156077,-0.7869356 -0.425781,-1.0566406 C 10.786935,4.6736551 10.39123,4.5175781 10,4.5175781 Z m 0,1 c 0.234246,0 0.208667,-0.00813 0.349609,0.1328125 C 10.490551,5.7913324 10.482422,5.7657539 10.482422,6 c 0,0.2342482 0.0081,0.2086688 -0.132813,0.3496094 C 10.245204,6.4540146 9.9527341,6.5143914 9.859375,6.4804687 9.4632416,6.3365306 9.3703673,5.9304144 9.6503906,5.6503906 9.7913333,5.5094483 9.7657535,5.5175781 10,5.5175781 Z"
         id="path7" /></g><path
       style="fill:#96dbb3;stroke-width:0.000357143;fill-opacity:1"
       d="M 9.6876684,6.94977 C 8.97962,6.6924953 8.7728872,5.8193719 9.2961294,5.2961294 9.5014528,5.0908059 9.6872622,5.0171641 10,5.0171641 c 0.312738,0 0.498547,0.073642 0.703871,0.2789653 C 10.909194,5.5014528 10.982836,5.6872622 10.982836,6 c 0,0.3127378 -0.07364,0.4985472 -0.278965,0.7038706 C 10.447107,6.9606341 10.009196,7.0665994 9.6876684,6.94977 Z"
       id="path4" /><g
       id="path3-2"
       style="fill:#323232;fill-opacity:1"><path
         style="fill:#323232;fill-opacity:1"
         d="M 5.6876684,6.9497704 C 4.97962,6.6924957 4.7728872,5.8193723 5.2961294,5.2961298 5.5014528,5.0908063 5.6872622,5.0171645 6,5.0171645 c 0.3127378,0 0.4985472,0.073642 0.7038706,0.2789653 0.2053235,0.2053234 0.2789653,0.3911328 0.2789653,0.7038706 0,0.3127378 -0.073642,0.4985472 -0.2789653,0.7038706 C 6.4471069,6.9606345 6.0091959,7.0665998 5.6876684,6.9497704 Z"
         id="path1" /><path
         style="fill:#323232;fill-opacity:1"
         d="m 6,4.5175781 c -0.3912293,0 -0.7869355,0.156076 -1.0566406,0.4257813 C 4.1768987,5.7098205 4.4976152,7.0493107 5.5175781,7.4199219 6.0672749,7.6196583 6.6475182,7.4657627 7.0566406,7.0566406 7.3263455,6.7869356 7.4824219,6.3912295 7.4824219,6 7.4824219,5.6087707 7.3263459,5.2130645 7.0566406,4.9433594 6.7869356,4.6736545 6.3912295,4.5175781 6,4.5175781 Z m 0,1 c 0.2342461,0 0.2086676,-0.00813 0.3496094,0.1328125 C 6.4905511,5.7913323 6.4824219,5.7657537 6.4824219,6 c 0,0.2342461 0.00813,0.2086676 -0.1328125,0.3496094 C 6.2452044,6.4540143 5.9527332,6.5143911 5.859375,6.4804687 5.4632411,6.3365305 5.3703669,5.9304145 5.6503906,5.6503906 5.7913323,5.5094489 5.7657537,5.5175781 6,5.5175781 Z"
         id="path5" /></g><path
       style="fill:#96dbb3;stroke-width:0.000357143;fill-opacity:1"
       d="M 5.6876684,6.94977 C 4.97962,6.6924953 4.7728872,5.8193719 5.2961294,5.2961294 5.5014528,5.0908059 5.6872622,5.0171641 6,5.0171641 c 0.3127378,0 0.4985472,0.073642 0.7038706,0.2789653 C 6.9091941,5.5014528 6.9828359,5.6872622 6.9828359,6 c 0,0.3127378 -0.073642,0.4985472 -0.2789653,0.7038706 C 6.4471069,6.9606341 6.0091959,7.0665994 5.6876684,6.94977 Z"
       id="path3" /><g
       id="path2-4"
       style="fill:#323232;fill-opacity:1"><path
         style="fill:#323232;fill-opacity:1"
         d="M 7.421875,11.966333 C 6.5699337,11.849481 5.7609216,11.453252 5.3734678,10.963086 5.1585491,10.691194 5.0013884,10.32171 5.0003709,10.085938 L 5,10 h 3 3 l -3.72e-4,0.08594 c -0.0011,0.246455 -0.184365,0.659906 -0.408765,0.922005 -0.359709,0.420137 -1.01063,0.75791 -1.7627389,0.914712 -0.2976241,0.06205 -1.09234,0.08673 -1.40625,0.04368 z"
         id="path8" /><path
         style="fill:#323232;fill-opacity:1"
         d="M 4.4980469,9.5 4.5,10.087891 c 0.00197,0.455704 0.2024304,0.833802 0.4804687,1.185547 0.516137,0.652962 1.412569,1.055761 2.3730469,1.1875 0.4519327,0.06198 1.1303839,0.04411 1.5761719,-0.04883 C 9.7658152,12.237791 10.503292,11.879916 10.970703,11.333984 11.276582,10.976718 11.497805,10.579711 11.5,10.087891 L 11.501953,9.5 H 8 Z m 1.1972656,1 H 8 10.298828 c -0.03997,0.08059 -0.04419,0.132548 -0.08789,0.183594 -0.2520075,0.294342 -0.8162854,0.610714 -1.4843755,0.75 -0.1494642,0.03116 -1.060445,0.06123 -1.2363281,0.03711 C 6.7468297,11.368738 6.0243957,10.979713 5.765625,10.652344 5.7250274,10.600984 5.7289929,10.565734 5.6953125,10.5 Z"
         id="path9" /></g><path
       style="fill:#96dbb3;stroke-width:0.000357143;fill-opacity:1"
       d="M 7.421875,11.966333 C 6.5699337,11.849481 5.7609216,11.453252 5.3734678,10.963086 5.1585491,10.691194 5.0013884,10.32171 5.0003709,10.085938 L 5,10 h 3 3 l -3.72e-4,0.08594 c -0.0011,0.246455 -0.184365,0.659906 -0.408765,0.922005 -0.359709,0.420137 -1.0106302,0.75791 -1.7627389,0.914712 -0.2976241,0.06205 -1.09234,0.08673 -1.40625,0.04368 z"
       id="path2" /><path
       id="path819-7"
       style="fill:#cb6500;fill-opacity:1;stroke-width:1;stroke:#cb6500;stroke-dasharray:none;stroke-opacity:1"
       d="M 3.6865037,1.0064839 C 2.613517,0.99553244 2.5596091,1.0069548 2.2747264,1.3056245 1.9729546,1.6220009 1.9979007,1.1184903 2.0073435,6.7048237 l 0.00828,4.9045513 0.089648,0.265625 c 0.1163736,0.344809 0.2895279,0.687064 0.4670899,0.923242 0.2100225,0.279355 0.8448255,0.880774 1.1308789,1.071406 0.7702029,0.513279 2.0110307,0.947214 3.0467577,1.065488 0.163274,0.01864 0.346065,0.03948 0.406231,0.04631 h 1.9e-5 c 0.272991,0.03098 1.90591,-0.0099 2.203106,-0.05518 1.095192,-0.166782 2.196698,-0.563014 2.937382,-1.056621 0.286053,-0.190632 0.920857,-0.792051 1.130879,-1.071406 0.177562,-0.236178 0.350717,-0.578433 0.46709,-0.923242 l 0.08967,-0.265625 0.0083,-4.9045513 C 14.002098,1.1184903 14.027045,1.6220009 13.725273,1.3056245 13.44039,1.0069549 13.386482,0.99553248 12.313496,1.0064839 l -0.89582,0.00914 -0.232266,0.1206836 C 10.288266,1.6024419 10.068801,1.6877107 9.416093,1.8238081 8.853988,1.9410142 8.497159,1.9805073 8,1.9805073 7.50284,1.9805073 7.146012,1.941014 6.583906,1.8238081 5.931199,1.6877107 5.711734,1.6024449 4.81459,1.1363081 L 4.582324,1.0156245 Z M 2.9999998,1.9999995 h 0.6287891 0.628789 L 4.527226,2.1553901 c 0.680673,0.3922701 1.488225,0.6481508 2.488399,0.7884571 0.36574,0.051307 1.60301,0.051307 1.96875,0 C 9.984549,2.8035409 10.7921,2.5476602 11.472773,2.1553901 L 11.742422,1.9999995 H 12.371211 13 v 4.604375 c 0,4.4479475 -0.0021,4.6124025 -0.06037,4.8404295 -0.313626,1.226266 -1.781602,2.176792 -3.830254,2.480137 -0.298733,0.04424 -1.473829,0.08343 -1.703125,0.0568 C 7.346091,13.974741 7.163281,13.953781 7,13.935131 6.269157,13.851671 5.463818,13.623873 4.86373,13.330873 3.8731407,12.84721 3.2532301,12.198876 3.0603709,11.444804 3.0020509,11.216777 2.9999998,11.052322 2.9999998,6.6043745 Z" /><path
       id="path819"
       style="fill:#fecb32;stroke-width:0.000357143;fill-opacity:1"
       d="M 3.6865039 1.0064839 C 2.6135172 0.99553244 2.5596093 1.0069548 2.2747266 1.3056245 C 1.9729548 1.6220009 1.9979009 1.1184903 2.0073437 6.7048237 L 2.015625 11.609375 L 2.1052734 11.875 C 2.221647 12.219809 2.3948013 12.562064 2.5723633 12.798242 C 2.7823858 13.077597 3.4171888 13.679016 3.7032422 13.869648 C 4.4734451 14.382927 5.7142731 14.816862 6.75 14.935136 C 6.9132735 14.953781 7.0960654 14.974617 7.1562305 14.981445 L 7.15625 14.981445 C 7.4292408 15.012423 9.0621598 14.971529 9.3593555 14.926269 C 10.454548 14.759487 11.556054 14.363255 12.296738 13.869648 C 12.582791 13.679016 13.217595 13.077597 13.427617 12.798242 C 13.605179 12.562064 13.778334 12.219809 13.894707 11.875 L 13.984375 11.609375 L 13.992656 6.7048237 C 14.002098 1.1184903 14.027045 1.6220009 13.725273 1.3056245 C 13.44039 1.0069549 13.386482 0.99553248 12.313496 1.0064839 L 11.417676 1.0156245 L 11.18541 1.1363081 C 10.288266 1.6024419 10.068801 1.6877107 9.4160937 1.8238081 C 8.8539881 1.9410142 8.4971597 1.9805073 8 1.9805073 C 7.5028403 1.9805073 7.1460118 1.941014 6.5839063 1.8238081 C 5.9311991 1.6877107 5.7117345 1.6024449 4.8145898 1.1363081 L 4.5823242 1.0156245 L 3.6865039 1.0064839 z M 3 1.9999995 L 3.6287891 1.9999995 L 4.2575781 1.9999995 L 4.5272266 2.1553901 C 5.2078991 2.5476602 6.0154509 2.8035409 7.015625 2.9438472 C 7.381365 2.9951542 8.618635 2.9951542 8.984375 2.9438472 C 9.9845491 2.8035409 10.7921 2.5476602 11.472773 2.1553901 L 11.742422 1.9999995 L 12.371211 1.9999995 L 13 1.9999995 L 13 6.6043745 C 13 11.052322 12.997949 11.216777 12.939629 11.444804 C 12.626003 12.67107 11.158027 13.621596 9.109375 13.924941 C 8.8106425 13.969181 7.6355459 14.008368 7.40625 13.981738 C 7.3460937 13.974758 7.1632812 13.953786 7 13.935136 C 6.2691572 13.851678 5.4638177 13.623878 4.8637305 13.330878 C 3.8731409 12.84721 3.2532303 12.198876 3.0603711 11.444804 C 3.0020511 11.216777 3 11.052322 3 6.6043745 L 3 1.9999995 z " /></g></svg>
