<?xml version="1.0" encoding="UTF-8" standalone="no"?>
<!-- Created with Inkscape (http://www.inkscape.org/) -->

<svg
   version="1.1"
   id="svg2"
   width="1600"
   height="1600"
   viewBox="0 0 1600 1600"
   sodipodi:docname="mask_slice.svg"
   inkscape:version="1.2.2 (732a01da63, 2022-12-09)"
   xmlns:inkscape="http://www.inkscape.org/namespaces/inkscape"
   xmlns:sodipodi="http://sodipodi.sourceforge.net/DTD/sodipodi-0.dtd"
   xmlns="http://www.w3.org/2000/svg"
   xmlns:svg="http://www.w3.org/2000/svg"
   xmlns:rdf="http://www.w3.org/1999/02/22-rdf-syntax-ns#"
   xmlns:cc="http://creativecommons.org/ns#"
   xmlns:dc="http://purl.org/dc/elements/1.1/">
  <metadata
     id="metadata8">
    <rdf:RDF>
      <cc:Work
         rdf:about="">
        <dc:format>image/svg+xml</dc:format>
        <dc:type
           rdf:resource="http://purl.org/dc/dcmitype/StillImage" />
      </cc:Work>
    </rdf:RDF>
  </metadata>
  <defs
     id="defs6" />
  <sodipodi:namedview
     pagecolor="#808080"
     bordercolor="#666666"
     borderopacity="1"
     objecttolerance="10"
     gridtolerance="10"
     guidetolerance="10"
     inkscape:pageopacity="0"
     inkscape:pageshadow="2"
     inkscape:window-width="1993"
     inkscape:window-height="1009"
     id="namedview4"
     showgrid="false"
     inkscape:zoom="0.5"
     inkscape:cx="467"
     inkscape:cy="586"
     inkscape:window-x="-8"
     inkscape:window-y="-8"
     inkscape:window-maximized="1"
     inkscape:current-layer="MASK_SLICE"
     inkscape:showpageshadow="0"
     inkscape:pagecheckerboard="true"
     inkscape:deskcolor="#d1d1d1" />
  <g
     id="MASK_SLICE"
     transform="matrix(100,0,0,100,0,4.9999997e-5)"
     style="stroke-width:0.0114286">
    <path
       style="fill:none;stroke-width:0.000357143"
       d="M 0,8 V 0 L 5.7421875,0.0014617 C 11.311082,0.00287929 11.480023,0.00462588 11.340167,0.05933625 11.260852,0.09036331 11.071008,0.18727323 10.918292,0.27469161 10.261473,0.65066937 9.4670578,0.87412122 8.453125,0.96808991 8.2640625,0.98561172 8.0847656,0.99995953 8.0546875,0.99997387 8.0029841,0.99999856 8,1.1637004 8,4 v 3 h 3 3 V 3.8917972 C 14,0.86748025 13.998325,0.77911806 13.937942,0.61772825 13.858461,0.40529716 13.602262,0.1465512 13.388939,0.06326715 L 13.234375,0.0029234 14.617188,0.0014617 16,0 v 8 8 H 8 0 Z m 8.359375,6.926265 c 1.0951931,-0.166782 2.196695,-0.563008 2.937379,-1.056615 0.286053,-0.190632 0.920858,-0.792052 1.13088,-1.071407 0.177562,-0.236178 0.350719,-0.578434 0.467092,-0.923243 l 0.08965,-0.265625 0.009,-1.8046875 L 13.002397,8 H 10.001198 7 V 5.0028053 2.0056106 L 6.7265625,1.984423 C 6.0704612,1.9335842 5.4517484,1.8198712 4.9375,1.6556117 4.6660981,1.5689214 4.4997516,1.4919802 3.8145975,1.1362297 L 3.5823203,1.015625 2.6865136,1.006482 C 1.6135267,0.99553056 1.5596096,1.0069551 1.2747269,1.3056247 0.97295506,1.6220011 0.99789162,1.1184819 1.0073345,6.7048153 L 1.015625,11.609375 1.105274,11.875 c 0.1163736,0.344809 0.2895297,0.687065 0.4670917,0.923243 0.2100226,0.279355 0.8448272,0.880775 1.1308806,1.071407 0.7702028,0.513279 2.0110268,0.947209 3.0467537,1.065483 0.1632812,0.01865 0.3460937,0.03949 0.40625,0.04631 0.2729622,0.03098 1.9059259,-0.0099 2.203125,-0.05518 z"
       id="path829"
       inkscape:connector-curvature="0" />
    <path
       style="fill:#cbe5fe;stroke-width:0.000357143"
       d="M 6.40625,13.979516 C 5.3682906,13.880049 4.57285,13.67712 3.8637238,13.330881 2.8731341,12.847213 2.2532296,12.198871 2.0603705,11.444799 2.002051,11.216772 2,11.052324 2,6.6043762 V 2 H 2.6287855 3.2575709 L 3.5272231,2.1553998 C 4.3675678,2.6396887 5.4232012,2.92523 6.6072659,2.9885298 L 7,3.0095252 V 6.5047625 10 H 5.5 4 l 3.719e-4,0.08594 c 0.00106,0.246455 0.1843647,0.659906 0.4087653,0.922005 C 4.86559,11.541077 5.7538656,11.92163 6.6965,11.987891 L 7,12.009225 V 13.004613 14 L 6.7578125,13.995 C 6.6246094,13.992249 6.4664063,13.985281 6.40625,13.979516 Z M 5.421875,6.9037631 C 5.6195566,6.8099553 5.8077534,6.6227156 5.9062262,6.421875 c 0.1099947,-0.22434 0.1099947,-0.61941 0,-0.84375 C 5.808545,5.3788991 5.6211009,5.191455 5.421875,5.0937737 c -0.22434,-0.1099946 -0.61941,-0.1099946 -0.84375,0 C 3.7657991,5.49206 3.8335172,6.6394078 4.6876684,6.94977 c 0.197215,0.071659 0.53022,0.050793 0.7342066,-0.046007 z"
       id="path827"
       inkscape:connector-curvature="0" />
    <path
       style="fill:#6598fe;stroke-width:0.000357143"
       d="m 7,13.009375 v -1.00015 l 0.3035009,-0.02133 c 0.9426344,-0.06626 1.83091,-0.446814 2.2873629,-0.979948 0.2244006,-0.262099 0.4077015,-0.67555 0.4087653,-0.922005 L 10,10 H 8.5 7 V 9 8 H 9.5 12 v 1.6043763 c 0,1.4832207 -0.0046,1.6222007 -0.06037,1.8404227 -0.35407,1.3844 -2.2010971,2.418325 -4.5438927,2.54357 L 7,14.009525 Z"
       id="path825"
       inkscape:connector-curvature="0" />
    <path
       style="fill:#65fe00;stroke-width:0.000357143"
       d="M 8,4.5047625 V 2.0095252 L 8.3927341,1.9885298 C 9.5767988,1.92523 10.632432,1.6396887 11.472777,1.1553998 L 11.742429,1 H 12.371214 13 V 4 7 H 10.5 8 Z m 2.421875,1.3990006 c 0.197682,-0.093808 0.385878,-0.2810475 0.484351,-0.4818881 0.109995,-0.22434 0.109995,-0.61941 0,-0.84375 -0.09768,-0.1992259 -0.285125,-0.38667 -0.484351,-0.4843512 -0.22434,-0.1099947 -0.61941,-0.1099947 -0.84375,0 C 8.7657991,4.49206 8.8335172,5.6394078 9.6876684,5.94977 9.8848834,6.021429 10.217888,6.000563 10.421875,5.9037631 Z"
       id="path823"
       inkscape:connector-curvature="0" />
    <path
       style="fill:#0032fe;stroke-width:0.000357143"
       d="M 6.15625,14.981448 C 6.0960937,14.974621 5.9132812,14.953779 5.75,14.935133 4.7142731,14.816859 3.4734491,14.382929 2.7032463,13.86965 2.4171929,13.679018 1.7823883,13.077598 1.5723658,12.798243 1.3948037,12.562065 1.2216476,12.219809 1.105274,11.875 L 1.015625,11.609375 1.0073345,6.7048153 C 0.99789162,1.1184819 0.97295506,1.6220011 1.2747269,1.3056247 1.5596096,1.006955 1.6135267,0.99553056 2.6865136,1.006482 l 0.8958067,0.00914 0.2322772,0.1206047 C 4.4997516,1.4919802 4.6660981,1.5689214 4.9375,1.6556117 5.4517484,1.8198712 6.0704612,1.9335842 6.7265625,1.984423 L 7,2.0056106 V 2.5075679 3.0095252 L 6.6072659,2.9885298 C 5.4232012,2.92523 4.3675678,2.6396887 3.5272231,2.1553998 L 3.2575709,2 H 2.6287855 2 V 6.6043762 C 2,11.052324 2.00205,11.216772 2.06037,11.444799 2.3795838,12.692911 3.8890472,13.649671 6,13.9419 c 0.1730034,0.02395 0.5902547,0.0411 1,0.0411 0.4097453,0 0.8269966,-0.01715 1,-0.0411 2.110953,-0.292229 3.620416,-1.248989 3.939629,-2.497101 C 11.995441,11.226577 12,11.087597 12,9.6043763 V 8 h 0.501198 0.501199 l -0.009,1.8046875 -0.009,1.8046875 -0.08965,0.265625 c -0.116373,0.344809 -0.28953,0.687065 -0.467092,0.923243 -0.210022,0.279355 -0.844827,0.880775 -1.13088,1.071407 -0.740684,0.493607 -1.8421859,0.889833 -2.937379,1.056615 -0.2971991,0.04526 -1.9301628,0.08616 -2.203125,0.05518 z M 6.421875,11.966333 C 5.5699337,11.849481 4.7609216,11.453252 4.3734678,10.963086 4.1585491,10.691194 4.0013884,10.32171 4.0003709,10.085938 L 4,10 h 3 3 l -3.719e-4,0.08594 c -0.00106,0.246455 -0.1843647,0.659906 -0.4087653,0.922005 -0.3597084,0.420137 -1.01063,0.75791 -1.7627387,0.914712 -0.2976241,0.06205 -1.09234,0.08673 -1.40625,0.04368 z M 4.6876684,6.94977 C 3.97962,6.6924953 3.7728872,5.8193719 4.2961294,5.2961294 4.5014528,5.0908059 4.6872622,5.0171641 5,5.0171641 c 0.3127378,0 0.4985472,0.073642 0.7038706,0.2789653 C 5.9091941,5.5014528 5.9828359,5.6872622 5.9828359,6 c 0,0.3127378 -0.073642,0.4985472 -0.2789653,0.7038706 C 5.4471069,6.9606341 5.0091959,7.0665994 4.6876684,6.94977 Z"
       id="path821"
       inkscape:connector-curvature="0" />
    <path
       style="fill:#006532;stroke-width:0.000357143"
       d="M 13,4 V 1 H 12.371214 11.742429 L 11.472777,1.1553998 C 10.632432,1.6396887 9.5767987,1.92523 8.3927341,1.9885298 L 8,2.0095252 V 1.5075679 1.0056106 L 8.2734375,0.98442297 C 8.9295388,0.93358425 9.5482516,0.81987125 10.0625,0.65561169 10.333903,0.56892116 10.5003,0.49195616 11.1854,0.13622972 L 11.417674,0.015625 12.305968,0.00642417 c 1.056715,-0.0109453 1.105536,-0.00151095 1.388407,0.26830278 C 14.024106,0.58923691 14,0.30394097 14,3.8917972 V 7 H 13.5 13 Z M 9.6876684,5.94977 C 8.97962,5.6924953 8.7728872,4.8193719 9.2961294,4.2961294 9.5014528,4.0908059 9.6872622,4.0171641 10,4.0171641 c 0.312738,0 0.498547,0.073642 0.703871,0.2789653 C 10.909194,4.5014528 10.982836,4.6872622 10.982836,5 c 0,0.3127378 -0.07364,0.4985472 -0.278965,0.7038706 C 10.447107,5.9606341 10.009196,6.0665994 9.6876684,5.94977 Z"
       id="path819"
       inkscape:connector-curvature="0" />
  </g>
</svg>
