<?xml version="1.0" encoding="UTF-8" standalone="no"?>
<!-- Created with Inkscape (http://www.inkscape.org/) -->

<svg
   version="1.1"
   id="svg2"
   width="1600"
   height="1600"
   viewBox="0 0 1600 1600"
   sodipodi:docname="mask_below.svg"
   inkscape:version="1.4 (86a8ad7, 2024-10-11)"
   xmlns:inkscape="http://www.inkscape.org/namespaces/inkscape"
   xmlns:sodipodi="http://sodipodi.sourceforge.net/DTD/sodipodi-0.dtd"
   xmlns="http://www.w3.org/2000/svg"
   xmlns:svg="http://www.w3.org/2000/svg"
   xmlns:rdf="http://www.w3.org/1999/02/22-rdf-syntax-ns#"
   xmlns:cc="http://creativecommons.org/ns#"
   xmlns:dc="http://purl.org/dc/elements/1.1/">
  <metadata
     id="metadata8">
    <rdf:RDF>
      <cc:Work
         rdf:about="">
        <dc:format>image/svg+xml</dc:format>
        <dc:type
           rdf:resource="http://purl.org/dc/dcmitype/StillImage" />
      </cc:Work>
    </rdf:RDF>
  </metadata>
  <defs
     id="defs6">
    <inkscape:path-effect
       effect="fill_between_many"
       method="originald"
       linkedpaths="#path819-9,0,1|"
       id="path-effect1" />
    <inkscape:path-effect
       effect="fill_between_many"
       method="originald"
       linkedpaths="#path819-9,0,1|"
       id="path-effect2" />
  </defs>
  <sodipodi:namedview
     pagecolor="#808080"
     bordercolor="#666666"
     borderopacity="1"
     objecttolerance="10"
     gridtolerance="10"
     guidetolerance="10"
     inkscape:pageopacity="0"
     inkscape:pageshadow="2"
     inkscape:window-width="2560"
     inkscape:window-height="1009"
     id="namedview4"
     showgrid="true"
     inkscape:zoom="0.35355339"
     inkscape:cx="465.27626"
     inkscape:cy="941.86623"
     inkscape:window-x="-8"
     inkscape:window-y="-8"
     inkscape:window-maximized="1"
     inkscape:current-layer="MOD_MASK"
     inkscape:showpageshadow="0"
     inkscape:pagecheckerboard="true"
     inkscape:deskcolor="#d1d1d1">
    <inkscape:grid
       id="grid2"
       units="px"
       originx="0"
       originy="0"
       spacingx="100"
       spacingy="100"
       empcolor="#0099e5"
       empopacity="0.30196078"
       color="#0099e5"
       opacity="0.14901961"
       empspacing="5"
       enabled="true"
       visible="true" />
  </sodipodi:namedview>
  <g
     id="MOD_MASK"
     transform="matrix(100,0,0,100,0,4.9999997e-5)"
     style="stroke-width:0.0114286">
    <path
       style="fill:none;stroke-width:0.000357143"
       d="M 0,8 V 0 h 8 8 v 8 8 H 8 0 Z m 9.359375,6.926265 c 1.095193,-0.166782 2.196695,-0.563008 2.937379,-1.056615 0.286053,-0.190632 0.920858,-0.792052 1.13088,-1.071407 0.177562,-0.236178 0.350719,-0.578434 0.467092,-0.923243 l 0.08965,-0.265625 0.0083,-4.9045597 C 14.002108,1.1184819 14.027045,1.6220011 13.725273,1.3056247 13.44039,1.006955 13.386473,0.99553056 12.313487,1.006482 L 11.41768,1.015625 11.185403,1.1363105 C 10.288258,1.6024443 10.068808,1.6877169 9.4161003,1.8238143 8.8539947,1.9410202 8.4971597,1.9805034 8,1.9805034 7.5028403,1.9805034 7.1460053,1.9410202 6.5838997,1.8238143 5.9311925,1.6877169 5.7117422,1.6024443 4.8145975,1.1363105 L 4.5823203,1.015625 3.6865134,1.006482 C 2.6135267,0.99553056 2.5596096,1.0069551 2.2747269,1.3056247 1.9729551,1.6220011 1.9978916,1.1184819 2.0073345,6.7048153 L 2.015625,11.609375 2.105274,11.875 c 0.1163736,0.344809 0.2895298,0.687065 0.4670918,0.923243 0.2100225,0.279355 0.844827,0.880775 1.1308805,1.071407 0.7702028,0.513279 2.0110268,0.947209 3.0467537,1.065483 0.1632812,0.01865 0.3460937,0.03949 0.40625,0.04631 0.2729622,0.03098 1.9059259,-0.0099 2.203125,-0.05518 z"
       id="path825"
       inkscape:connector-curvature="0" />
    <path
       style="fill:#cbe5fe;stroke-width:0.000357143"
       d="M 7.40625,13.979516 C 6.3682906,13.880049 5.57285,13.67712 4.8637237,13.330881 3.8731341,12.847213 3.2532297,12.198871 3.0603705,11.444799 3.002051,11.216772 3,11.052324 3,6.6043762 V 2 H 3.6287856 4.2575709 L 4.5272231,2.1553998 C 5.3675678,2.6396887 6.4232012,2.92523 7.6072659,2.9885298 L 8,3.0095252 V 6.5047625 13.004613 14 L 7.7578125,13.995 c -0.1332031,-0.0028 -0.2914062,-0.0097 -0.3515625,-0.01548 z"
       id="path823"
       inkscape:connector-curvature="0"
       sodipodi:nodetypes="ccsscccsscccccc" />
    <path
       style="fill:#6598fe;stroke-width:0.000357143"
       d="M 8,13.009375 V 6.5047625 3.0095252 L 8.3927341,2.9885298 C 9.5767988,2.92523 10.632432,2.6396887 11.472777,2.1553998 L 11.742429,2 H 12.371214 13 v 4.6043762 c 0,4.4479478 -0.0021,4.6123958 -0.06037,4.8404228 -0.35407,1.3844 -2.201097,2.418325 -4.5438927,2.54357 L 8,14.009525 Z"
       id="path821"
       inkscape:connector-curvature="0"
       sodipodi:nodetypes="cccsscccscscc" />
    <path
       inkscape:original-d="M 0,0"
       inkscape:path-effect="#path-effect1"
       d="M 0,0"
       id="path1" />
    <path
       style="fill:#0032fe;stroke-width:0.000357143"
       d="M 7.15625,14.981448 C 7.0960937,14.974621 6.9132812,14.953779 6.75,14.935133 5.7142731,14.816859 4.4734491,14.382929 3.7032462,13.86965 3.4171928,13.679018 2.7823883,13.077598 2.5723658,12.798243 2.3948038,12.562065 2.2216476,12.219809 2.105274,11.875 L 2.015625,11.609375 2.0073345,6.7048153 C 1.9978916,1.1184819 1.9729551,1.6220011 2.2747269,1.3056247 2.5596096,1.006955 2.6135267,0.99553056 3.6865134,1.006482 l 0.8958069,0.00914 0.2322772,0.1206855 C 5.7117422,1.6024443 5.9311925,1.6877169 6.5838997,1.8238143 7.1460053,1.9410202 7.5028403,1.9805034 8,1.9805034 c 0.4971597,0 0.8539947,-0.039483 1.4161003,-0.1566891 0.6527077,-0.1360974 0.8721577,-0.22137 1.7693017,-0.6875038 L 11.41768,1.015625 12.313487,1.006482 c 1.072986,-0.0109514 1.126903,4.731e-4 1.411786,0.2991427 0.301772,0.3163764 0.276835,-0.1871428 0.267393,5.3991906 l -0.0083,4.9045597 -0.08965,0.265625 c -0.116373,0.344809 -0.28953,0.687065 -0.467092,0.923243 -0.210022,0.279355 -0.844827,0.880775 -1.13088,1.071407 -0.740684,0.493607 -1.842186,0.889833 -2.937379,1.056615 -0.2971991,0.04526 -1.9301628,0.08616 -2.203125,0.05518 z m 1.953125,-1.0565 c 2.048652,-0.303345 3.516628,-1.253883 3.830254,-2.480149 C 12.997949,11.216772 13,11.052324 13,6.6043762 V 2 h -0.628786 -0.628785 l -0.269652,0.1553998 c -0.680673,0.3922701 -1.4882279,0.648144 -2.488402,0.7884503 -0.36574,0.051307 -1.60301,0.051307 -1.96875,0 C 6.0154509,2.8035438 5.2078956,2.5476699 4.5272231,2.1553998 L 4.2575709,2 H 3.6287856 3 v 4.6043762 c 0,4.4479478 0.00205,4.6123958 0.06037,4.8404228 0.1928592,0.754072 0.8127636,1.402414 1.8033532,1.886082 0.6000872,0.293 1.4054335,0.520794 2.1362763,0.604252 0.1632812,0.01865 0.3460937,0.03962 0.40625,0.0466 0.2292959,0.02663 1.4043925,-0.01255 1.703125,-0.05679 z"
       id="path819"
       inkscape:connector-curvature="0"
       sodipodi:nodetypes="ccssscssscssssscssccsssscccsscccsssscccscscccc" />
    <path
       style="fill:#fefefe;stroke:#000000;stroke-width:0.999997;stroke-dasharray:none;stroke-opacity:1;paint-order:stroke markers fill"
       d="m 8.0722081,12.41866 c 1.9437949,2.568809 2.3472879,3.076647 2.4368929,3.06707 0.07986,-0.0085 0.702239,-0.796531 2.428353,-3.074559 1.276531,-1.684695 2.320966,-3.0920439 2.320966,-3.1274445 0,-0.052319 -0.301463,-0.064358 -1.610767,-0.064358 H 12.036887 V 6.9492476 4.6791329 H 10.474932 8.9129773 V 6.9492476 9.2193627 H 7.3266166 c -1.2372,0 -1.5860919,0.013292 -1.5851391,0.060372 6.749e-4,0.0332 1.049501,1.4457213 2.3307306,3.1389213 z"
       id="path825-0"
       inkscape:connector-curvature="0"
       sodipodi:nodetypes="scssscccccccssss" />
  </g>
</svg>
