<?xml version="1.0" encoding="UTF-8" standalone="no"?>
<!-- Created with Inkscape (http://www.inkscape.org/) -->

<svg
   version="1.1"
   id="svg2"
   width="1600"
   height="1600"
   viewBox="0 0 1600 1600"
   sodipodi:docname="mask_to_sdf.svg"
   inkscape:version="1.4.3 (0d15f75, 2025-12-25)"
   xmlns:inkscape="http://www.inkscape.org/namespaces/inkscape"
   xmlns:sodipodi="http://sodipodi.sourceforge.net/DTD/sodipodi-0.dtd"
   xmlns="http://www.w3.org/2000/svg"
   xmlns:svg="http://www.w3.org/2000/svg"
   xmlns:rdf="http://www.w3.org/1999/02/22-rdf-syntax-ns#"
   xmlns:cc="http://creativecommons.org/ns#"
   xmlns:dc="http://purl.org/dc/elements/1.1/">
  <metadata
     id="metadata8">
    <rdf:RDF>
      <cc:Work
         rdf:about="">
        <dc:format>image/svg+xml</dc:format>
        <dc:type
           rdf:resource="http://purl.org/dc/dcmitype/StillImage" />
      </cc:Work>
    </rdf:RDF>
  </metadata>
  <defs
     id="defs6" />
  <sodipodi:namedview
     pagecolor="#808080"
     bordercolor="#666666"
     borderopacity="1"
     objecttolerance="10"
     gridtolerance="10"
     guidetolerance="10"
     inkscape:pageopacity="0"
     inkscape:pageshadow="2"
     inkscape:window-width="1920"
     inkscape:window-height="1009"
     id="namedview4"
     showgrid="true"
     inkscape:zoom="0.35355339"
     inkscape:cx="684.47937"
     inkscape:cy="726.90577"
     inkscape:window-x="-8"
     inkscape:window-y="-8"
     inkscape:window-maximized="1"
     inkscape:current-layer="INVERT_MASK"
     inkscape:showpageshadow="0"
     inkscape:pagecheckerboard="true"
     inkscape:deskcolor="#d1d1d1">
    <inkscape:grid
       id="grid1"
       units="px"
       originx="0"
       originy="0"
       spacingx="100"
       spacingy="100"
       empcolor="#0099e5"
       empopacity="0.30196078"
       color="#0099e5"
       opacity="0.14901961"
       empspacing="5"
       enabled="true"
       visible="true" />
  </sodipodi:namedview>
  <g
     id="INVERT_MASK"
     transform="matrix(100,0,0,100,0,4.9999997e-5)"
     style="stroke-width:0.0114286">
    <path
       id="path5"
       style="baseline-shift:baseline;display:inline;overflow:visible;opacity:1;vector-effect:none;fill:#cccccc;fill-opacity:1;stroke-width:0.0114286;enable-background:accumulate;stop-color:#000000;stop-opacity:1"
       d="m 1.1007512,-0.02533143 c -0.153413,0.1122773 -0.273389,0.2170903 -0.335332,0.2820312 0.016979,-0.0178029 0.029082,-0.0310727 0.029082,-0.0321484 v -1.96e-5 l -2e-5,-1.95e-5 c -6e-6,-3.7e-6 -4.9e-5,1.7e-6 -5.8e-5,0 -0.00152,4.99e-5 -0.023107,0.0200061 -0.079785,0.0751563 -0.103641,0.1008452 -0.31136298,0.34891 -0.43164098,0.60351558 C 0.0424422,1.4123953 0.0569602,1.715364 0.0388562,2.0809185 0.0026462,2.8120276 0.0166882,4.0034577 0.0212782,6.7176373 l 0.007793,5.0566407 0.17968802,0.529297 c 0.169188,0.501294 0.380576,0.948609 0.71288998,1.390625 0.497141,0.661259 0.831842,0.982469 1.529297,1.447265 C 2.8771282,15.425482 3.3792086,15.803919 3.8603456,16 h 3.340351 l -0.01766,-0.471816 c 3.78e-4,4.4e-5 0.00159,-4.3e-5 0.00199,0 L 7.2020236,16 h 5.0082414 c 0.490037,-0.196052 0.911803,-0.573439 1.339605,-0.858535 0.697445,-0.464792 1.030204,-0.786011 1.527344,-1.447265 0.332309,-0.442012 0.545657,-0.889328 0.714844,-1.390625 l 0.177734,-0.529297 0.0098,-5.0566407 c 0.0046,-2.7141791 0.01668,-3.9056151 -0.01953,-4.6367188 -0.0181,-0.3655518 -0.0016,-0.6685273 -0.242187,-1.17773435 -0.120274,-0.25460348 -0.329954,-0.50266848 -0.433594,-0.60351558 -0.10364,-0.1008472 -0.08799,-0.0840268 -0.04883,-0.0429688 -0.06195,-0.0649425 -0.181914,-0.1697509 -0.335332,-0.2820312 H 9.856291 c -0.381651,0.1979744 -0.3929798,0.1878507 -0.8352928,0.2800781 -0.478751,0.099826 -0.630557,0.1152344 -1.021485,0.1152344 -0.390926,0 -0.540777,-0.015408 -1.019531,-0.1152344 -0.442314,-0.0922278 -0.45364,-0.0821022 -0.835293,-0.2800781 z m 3.785371,4.19804683 c 0.619183,0.2315602 1.202805,0.5174108 1.914062,0.6171875 0.893454,0.1253346 1.506938,0.1253346 2.400391,0 C 9.911589,4.6901609 10.493682,4.4041453 11.112684,4.1727154 v 2.4453125 c 0,2.1629579 -5.38e-4,3.2884302 -0.0078,3.8710941 -0.0036,0.286909 -0.0016,0.384499 8.2e-4,0.411777 -0.05992,0.155566 -0.727749,0.875649 -2.2820898,1.105801 h -0.00199 c 0.109586,-0.01623 -0.332086,0.02441 -0.654297,0.03516 -0.322211,0.01074 -0.869388,-0.02423 -0.542969,0.01367 -0.0631,-0.0073 -0.238964,-0.02867 -0.398437,-0.04687 -0.498182,-0.0569 -1.159405,-0.248873 -1.509727,-0.419922 -0.644784,-0.314825 -0.791972,-0.583256 -0.823223,-0.68668 0.00246,-0.0256 0.00459,-0.1218 9.57e-4,-0.412929 -0.0073,-0.5826643 -0.00781,-1.7081375 -0.00781,-3.8710941 z"
       sodipodi:nodetypes="ccscccssscccccccccccsscccccscccssscccsscscccccccscccc" />
    <g
       id="path819-9-8"
       style="opacity:1">
      <path
         style="baseline-shift:baseline;display:inline;overflow:visible;vector-effect:none;fill:#999999;enable-background:accumulate;stop-color:#000000;stop-opacity:1"
         d="M 7.1792965,14.791228 C 7.1207797,14.784614 6.9429641,14.764314 6.7841431,14.746183 5.7767068,14.631135 4.5697756,14.209057 3.8206107,13.709798 3.5423707,13.524374 2.9249058,12.93938 2.72062,12.667656 2.5479081,12.437929 2.3794816,12.105022 2.2662867,11.769631 l -0.0872,-0.25837 -0.00806,-4.7705918 C 2.1618375,1.3069253 2.1375821,1.796691 2.4311111,1.4889564 2.7082122,1.1984448 2.7606566,1.1873324 3.8043349,1.1979847 l 0.8713379,0.00889 0.2259324,0.117389 c 0.8726397,0.4534044 1.0860955,0.5363478 1.7209749,0.6687277 0.5467512,0.1140045 0.8938393,0.1524092 1.3774195,0.1524092 0.4835806,0 0.8306687,-0.038404 1.3774199,-0.1524092 0.6348795,-0.1323796 0.8483355,-0.215323 1.7209735,-0.6687245 l 0.225934,-0.117389 0.871338,-0.00889 c 1.043678,-0.010652 1.096122,4.602e-4 1.373223,0.2909717 0.29353,0.3077346 0.269274,-0.1820311 0.26009,5.2517128 l -0.0081,4.7705916 -0.0872,0.25837 c -0.113194,0.33539 -0.281622,0.668298 -0.454333,0.898025 -0.204286,0.271724 -0.821751,0.856717 -1.099991,1.042142 -0.720452,0.480125 -1.791867,0.865528 -2.8571448,1.027754 -0.2890811,0.04402 -1.8774414,0.08381 -2.1429475,0.05367 z m 1.8997761,-1.027642 c 1.9926934,-0.295059 3.4205724,-1.219634 3.7256314,-2.412405 0.05673,-0.221799 0.05872,-0.381755 0.05872,-4.7082074 V 2.1643649 h -0.611611 -0.61161 L 11.377918,2.31552 C 10.715837,2.6970753 9.9303405,2.9459601 8.957486,3.082434 8.6017361,3.132339 7.3982615,3.132339 7.0425116,3.082434 6.0696572,2.9459601 5.2841604,2.6970753 4.6220798,2.31552 L 4.3597941,2.1643649 H 3.7481839 3.1365735 v 4.4786087 c 0,4.3264524 0.00199,4.4864084 0.058721,4.7082074 0.1875913,0.733474 0.7905631,1.364107 1.7540949,1.834565 0.5836957,0.284997 1.3670448,0.506568 2.077924,0.587747 0.158822,0.01814 0.3366405,0.03854 0.3951534,0.04533 0.2230328,0.0259 1.3660327,-0.01221 1.6566049,-0.05524 z"
         id="path8" />
      <path
         style="baseline-shift:baseline;display:inline;overflow:visible;vector-effect:none;fill:#999999;enable-background:accumulate;stop-color:#000000;stop-opacity:1"
         d="M 3.8164063,-0.01757813 C 3.2900447,-0.02295043 3.0031074,-0.04903367 2.578125,0.04101562 c -0.4249824,0.0900493 -1.1076957,0.76200069 -1.2673438,0.929375 0.01601,-0.0167851 0.017873,-0.0196134 -0.0625,0.0585938 C 1.1679086,1.1071915 1.0155088,1.2868038 0.9260156,1.47625 0.74702929,1.8551424 0.74973288,2.1079948 0.73265625,2.4528125 0.69850299,3.1424479 0.71048669,4.0271864 0.71507813,6.7421875 l 0.007813,4.9687505 0.15234377,0.447265 c 0.1520968,0.450656 0.349213,0.863014 0.6328125,1.240235 0.4077528,0.542358 1.0584419,1.225584 1.6279417,1.605108 C 4.1234697,15.661624 4.7682636,15.859337 6,16 c 0.1588181,0.01813 0.9817075,-0.0069 1.0429692,-2e-6 0.011725,0.0013 0.019595,-0.0013 0.03125,0 C 7.9816423,16.100079 9.1740599,16.12577 10,16 c 1.228666,-0.187107 1.920023,-0.657201 2.853517,-1.279302 0.569492,-0.379522 1.390684,-1.019906 1.798437,-1.562265 0.283596,-0.377218 0.480716,-0.789576 0.632813,-1.240235 l 0.152343,-0.447265 0.0078,-4.9687505 C 15.44951,3.7871815 15.46149,3.1824431 15.42733,2.4928075 15.41025,2.1479897 15.41296,1.8951374 15.23397,1.516245 15.14448,1.3267988 14.992078,1.1471864 14.911705,1.0689794 c -0.08037,-0.078207 -0.07851,-0.0753787 -0.0625,-0.058594 C 14.689556,0.84301142 13.846843,0.13105985 13.421861,0.04101057 12.996879,-0.0490387 12.709941,-0.02295533 12.18358,-0.01758318 L 11.02147,-0.00586443 10.537095,0.2460887 C 9.6826206,0.69006536 9.7177488,0.679954 9.1289063,0.80273438 8.6293999,0.90688837 8.4192084,0.9296875 8,0.9296875 7.5807932,0.9296875 7.3706017,0.90688805 6.8710937,0.80273438 6.2822512,0.6799537 6.3173809,0.69006813 5.4628906,0.24609375 L 4.9785156,-0.00585938 Z M 4.3515625,3.4765625 c 0.7535072,0.3814811 1.5639154,0.6762172 2.5214844,0.8105469 0.7293327,0.1023116 1.5245735,0.1023116 2.2539062,0 C 10.084522,4.1527797 10.89493,3.8580435 11.648438,3.4765625 v 3.1660156 c 0,2.1630398 -0.0024,3.2883505 -0.0098,3.8789059 -0.0074,0.590556 1.05e-4,0.48307 -0.01172,0.529297 -0.116761,0.456531 -1.014672,1.256285 -2.7265624,1.509766 0.031792,-0.0047 -0.3841661,0.02999 -0.7148437,0.04102 -0.3306777,0.01103 -0.815797,-0.01262 -0.6230469,0.0098 -0.061698,-0.0072 -0.2372104,-0.02673 -0.3964844,-0.04492 C 6.6028808,12.502099 5.9039763,12.299579 5.4824219,12.09375 4.7241292,11.723503 4.4471193,11.340401 4.3730469,11.050781 c -0.011824,-0.04623 -0.00435,0.06126 -0.011719,-0.529297 -0.00736,-0.5905551 -0.00977,-1.7158661 -0.00977,-3.8789059 z"
         id="path9"
         sodipodi:nodetypes="cscssscccccccccsscccscscscccsssccccsscssccsccssccc" />
    </g>
    <g
       id="path819-9"
       style="opacity:1"
       transform="matrix(0.949375,0,0,0.949375,0.40499983,0.40564466)">
      <path
         style="baseline-shift:baseline;display:inline;overflow:visible;vector-effect:none;fill:#4d4d4d;enable-background:accumulate;stop-color:#000000;stop-opacity:1"
         d="M 7.1792969,14.791228 C 7.1207801,14.784614 6.9429645,14.764314 6.7841435,14.746183 5.7767072,14.631135 4.569776,14.209057 3.820611,13.709798 3.5423711,13.524374 2.9249062,12.93938 2.7206204,12.667656 2.5479085,12.437929 2.379482,12.105022 2.2662871,11.769631 l -0.0872,-0.25837 -0.00806,-4.7705918 C 2.1618378,1.3069253 2.1375825,1.796691 2.4311115,1.4889564 2.7082126,1.1984448 2.760657,1.1873324 3.8043353,1.1979847 l 0.8713379,0.00889 0.2259324,0.117389 C 5.7742453,1.7776684 5.9877011,1.8606118 6.6225805,1.9929917 7.1693317,2.1069962 7.5164198,2.1454009 8,2.1454009 c 0.4835802,0 0.8306683,-0.038404 1.3774195,-0.1524092 C 10.012299,1.8606118 10.225755,1.7776684 11.098393,1.3242669 l 0.225934,-0.117389 0.871338,-0.00889 c 1.043678,-0.010652 1.096122,4.602e-4 1.373223,0.2909717 0.29353,0.3077346 0.269274,-0.1820311 0.26009,5.2517128 l -0.0081,4.7705916 -0.0872,0.25837 c -0.113194,0.33539 -0.281622,0.668298 -0.454333,0.898025 -0.204286,0.271724 -0.821751,0.856717 -1.099991,1.042142 -0.720452,0.480125 -1.791867,0.865528 -2.8571448,1.027754 -0.2890811,0.04402 -1.877441,0.08381 -2.1429471,0.05367 z m 1.8997757,-1.027642 c 1.9926934,-0.295059 3.4205724,-1.219634 3.7256314,-2.412405 0.05673,-0.221799 0.05872,-0.381755 0.05872,-4.7082074 V 2.1643649 h -0.611611 -0.61161 L 11.377918,2.31552 C 10.715837,2.6970753 9.9303405,2.9459601 8.957486,3.082434 8.6017361,3.132339 7.3982619,3.132339 7.042512,3.082434 6.0696576,2.9459601 5.2841608,2.6970753 4.6220802,2.31552 L 4.3597945,2.1643649 H 3.7481843 3.1365739 v 4.4786087 c 0,4.3264524 0.00199,4.4864084 0.058721,4.7082074 0.1875913,0.733474 0.7905631,1.364107 1.7540949,1.834565 0.5836957,0.284997 1.3670448,0.506568 2.077924,0.587747 0.158822,0.01814 0.3366405,0.03854 0.3951534,0.04533 0.2230328,0.0259 1.3660323,-0.01221 1.6566045,-0.05524 z"
         id="path6" />
      <path
         style="baseline-shift:baseline;display:inline;overflow:visible;vector-effect:none;fill:#4d4d4d;enable-background:accumulate;stop-color:#000000;stop-opacity:1"
         d="M 3.8144531,0.61859544 C 3.2888945,0.61323133 3.0042186,0.59251666 2.6230469,0.67328295 2.2418751,0.75404923 1.8629338,1.0567104 1.7070312,1.2201579 c 0.00665,-0.00698 0.00261,-0.0046 -0.068359,0.064453 C 1.5677018,1.3536689 1.4383827,1.5062614 1.3613281,1.6693767 1.2072189,1.9956072 1.2061148,2.2274691 1.1894531,2.5639079 1.1561298,3.2367856 1.167283,4.0268543 1.171875,6.7421875 l 0.00781,4.9335935 0.1386719,0.414063 c 0.1451904,0.430192 0.3396024,0.828652 0.6035156,1.179687 0.3716306,0.494312 0.8259589,0.926419 1.34375,1.271485 0.9451716,0.629881 2.2123813,1.063103 3.4042969,1.199218 0.1588186,0.01813 0.33571,0.03805 0.3964843,0.04492 0.00917,10e-4 0.018158,-0.001 0.027344,0 l 0.097656,-0.986328 c 5.688e-4,6.6e-5 0.00139,-6.5e-5 0.00195,0 l -0.099604,0.98633 c 0.7996112,0.08774 1.6479488,0.05271 2.3789063,-0.05859 1.199659,-0.182691 2.366048,-0.588652 3.261719,-1.185547 0.517786,-0.345064 0.972119,-0.777172 1.34375,-1.271485 0.26391,-0.351033 0.458325,-0.749493 0.603516,-1.179687 l 0.138672,-0.414063 0.0078,-4.9335935 c 0.0046,-2.7153332 0.01575,-3.5054017 -0.01758,-4.1782796 C 14.793873,2.227472 14.792773,1.9956102 14.638658,1.6693797 14.561608,1.5062644 14.432284,1.3536718 14.361314,1.2846141 14.290344,1.2155563 14.286304,1.2131851 14.292954,1.220161 14.137066,1.0567106 13.758125,0.75404921 13.376953,0.67328295 12.995782,0.59251668 12.711105,0.61323148 12.185547,0.61859544 L 11.076172,0.6303142 10.636719,0.85882982 C 9.7790079,1.3044756 9.7708439,1.3105168 9.1738281,1.4350017 8.6659342,1.5409046 8.4306362,1.565861 8,1.565861 7.5693648,1.565861 7.334067,1.5409042 6.8261719,1.4350017 6.2291562,1.3105168 6.2209937,1.3044786 5.3632812,0.85882982 L 4.9238281,0.6303142 Z M 4.1367187,3.1855469 c 0.7928841,0.4545418 1.7076029,0.7380233 2.7675782,0.8867187 0.6630091,0.093008 1.5283971,0.093008 2.1914062,0 C 10.155679,3.9235702 11.070397,3.6400885 11.863281,3.1855469 v 3.4570312 c 0,2.1630729 -4.08e-4,3.2871143 -0.0078,3.8808599 -0.0074,0.593745 -0.0048,0.522369 -0.01953,0.580078 -0.15019,0.587237 -1.142555,1.40906 -2.9042974,1.669922 3.548e-4,-5.3e-5 -0.4061352,0.03378 -0.7402343,0.04492 -0.3340992,0.01114 -0.7930294,-0.0083 -0.6542969,0.0078 -0.061132,-0.0071 -0.2372907,-0.02869 -0.3964844,-0.04687 C 6.5512736,12.711988 5.8390248,12.506985 5.3886849,12.2871 4.5939554,11.899062 4.2583013,11.471926 4.1640755,11.103507 c -0.01476,-0.05771 -0.012127,0.01367 -0.019531,-0.580078 -0.0074,-0.5937453 -0.00781,-1.717787 -0.00781,-3.8808599 z"
         id="path7"
         sodipodi:nodetypes="cscssscccsscccccccsscccccscscccsssccccsscscccsccssccc" />
    </g>
    <path
       style="display:inline;fill:#4d4d4d;stroke-width:0.000347388"
       d="M 7.1792969,14.791229 C 7.1207837,14.784588 6.9429647,14.764316 6.7841435,14.746179 5.7767073,14.631136 4.5697761,14.209058 3.8206111,13.709799 3.5423712,13.524375 2.9249063,12.939382 2.7206205,12.667658 2.5479086,12.437931 2.3794821,12.105024 2.2662872,11.769633 l -0.0872,-0.25837 -0.00806,-4.7705923 C 2.1618379,1.3069269 2.1375826,1.7966926 2.4311115,1.4889579 2.7082127,1.1984463 2.7606571,1.1873339 3.8043354,1.1979862 l 0.8713381,0.00889 0.2259326,0.117389 C 5.7742455,1.7776699 5.9877015,1.8606133 6.6225802,1.9929933 7.169332,2.1069977 7.5164201,2.1454024 8,2.1454024 c 0.4835799,0 0.830668,-0.038404 1.3774198,-0.1524091 0.6348792,-0.13238 0.8483352,-0.2153234 1.7209732,-0.6687248 l 0.225934,-0.117389 0.871338,-0.00889 c 1.043678,-0.010652 1.096122,4.602e-4 1.373223,0.2909717 0.29353,0.3077347 0.269274,-0.182031 0.26009,5.2517128 l -0.0081,4.770592 -0.0872,0.25837 c -0.113194,0.335391 -0.281622,0.668298 -0.454333,0.898025 -0.204286,0.271724 -0.821751,0.856717 -1.099991,1.042141 -0.720452,0.480125 -1.791867,0.865528 -2.8571448,1.027754 -0.2890811,0.04402 -1.8774408,0.08381 -2.1429471,0.05367 z m 1.8997757,-1.027642 c 1.9926934,-0.295059 3.4205724,-1.219633 3.7256314,-2.412404 0.05673,-0.221799 0.05872,-0.381755 0.05872,-4.7082079 V 2.1643665 h -0.611611 -0.61161 l -0.262286,0.1511551 c -0.662081,0.3815553 -1.4475775,0.6304401 -2.420432,0.7669139 -0.3557499,0.049906 -1.5592241,0.049906 -1.914974,0 C 6.0696584,2.9459617 5.2841613,2.6970769 4.6220813,2.3155216 L 4.3597946,2.1643665 H 3.7481844 3.136574 v 4.4786086 c 0,4.3264529 0.00199,4.4864089 0.058721,4.7082079 0.1875913,0.733474 0.7905631,1.364107 1.7540949,1.834564 0.583696,0.284997 1.3670444,0.506568 2.0779244,0.587747 0.1588212,0.01814 0.3366402,0.03854 0.3951534,0.04533 0.2230327,0.0259 1.3660318,-0.01221 1.6566045,-0.05524 z"
       id="path819"
       inkscape:connector-curvature="0" />
    <path
       style="stroke-width:0.000347388;display:inline;fill:#999999;fill-opacity:1"
       d="M 7.4224682,13.818824 C 7.363955,13.812029 7.186136,13.79163 7.0273148,13.773494 5.0660832,13.549533 3.5051889,12.562854 3.1952955,11.351183 3.1385689,11.129384 3.136574,10.969428 3.136574,6.6429751 V 2.1643665 h 0.6116104 0.6116102 l 0.2622867,0.1511551 c 0.66208,0.3815553 1.4475771,0.6304401 2.4204317,0.7669139 0.3557499,0.049906 1.5592241,0.049906 1.914974,0 0.9728545,-0.1364738 1.758351,-0.3853586 2.420432,-0.7669139 l 0.262286,-0.1511551 h 0.61161 0.611611 v 4.4786086 c 0,4.3264529 -0.002,4.4864089 -0.05872,4.7082079 -0.305059,1.192771 -1.732938,2.117345 -3.7256314,2.412404 -0.2905727,0.04302 -1.4335717,0.08113 -1.6566045,0.05524 z"
       id="path823"
       inkscape:connector-curvature="0" />
    <path
       style="baseline-shift:baseline;display:inline;overflow:visible;opacity:1;vector-effect:none;fill:#1a1a1a;fill-opacity:1;stroke:#4d4d4d;stroke-width:0.0114286;stroke-opacity:1;enable-background:accumulate;stop-color:#000000;stop-opacity:1"
       d="m 7.3399337,14.792533 c -0.05852,-0.0066 -0.346333,-0.01691 -0.505154,-0.03504 -1.007436,-0.115053 -2.279367,-0.537131 -3.053532,-1.06139 -0.2768557,-0.187485 -0.880705,-0.775418 -1.08499,-1.047142 -0.172712,-0.229727 -0.3161396,-0.562634 -0.429334,-0.898024 l -0.0872,-0.25837 -0.0081,-4.7705923 c -0.00531,-4.3589416 -0.03345,-4.1239782 0.260085,-4.4317128 0.277101,-0.2905116 0.329545,-0.301624 1.373223,-0.2909717 l 1.031338,0.02889 0.225932,0.117389 c 0.8726404,0.4534036 1.086096,0.5363478 1.720975,0.6687277 0.546752,0.1140045 0.89384,0.1524092 1.37742,0.1524092 0.48358,0 0.830669,-0.038404 1.37742,-0.1524092 C 10.172896,2.6819173 10.386351,2.5989714 11.25899,2.1455724 l 0.225934,-0.117389 0.871338,-0.00889 c 1.043678,-0.010648 1.096122,4.602e-4 1.373223,0.2909717 0.29353,0.3077346 0.269274,-1.0020311 0.26009,4.4317128 l -0.0081,4.7705921 -0.0872,0.25837 c -0.113194,0.335389 -0.281622,0.668297 -0.454333,0.898024 -0.204286,0.271724 -0.821751,0.856717 -1.099991,1.042142 -0.720452,0.480125 -1.791867,0.865528 -2.8571453,1.027754 -0.289081,0.04402 -1.877441,0.08381 -2.142947,0.05367 z m 1.899776,-1.027642 c 1.9926933,-0.295059 3.4205723,-1.304487 3.7256313,-2.497257 0.05673,-0.221799 0.05872,-0.296902 0.05872,-4.6233549 V 2.9856704 H 12.41245 11.80084 l -0.262285,0.1511551 c -0.66208,0.3815573 -1.447577,0.6304401 -2.4204323,0.766914 -0.35575,0.049905 -1.559224,0.049905 -1.914974,0 C 6.2302937,3.7672656 5.4447966,3.5183828 4.7827167,3.1368255 l -0.262285,-0.1511551 -0.771611,-0.02 h -0.61161 v 3.6586087 c 0,4.3264529 0.002,4.4864089 0.05872,4.7082079 0.187591,0.733473 0.950563,1.384106 1.914095,1.854564 0.583695,0.284997 1.367044,0.506568 2.077924,0.587747 0.158822,0.01814 0.33664,0.03854 0.395153,0.04533 0.223033,0.0259 1.366033,-0.01221 1.656605,-0.05524 z"
       id="path4"
       sodipodi:nodetypes="ccssscccccssssscssccssscccccscccsssscccscscccc" />
    <path
       style="display:inline;fill:#4d4d4d;fill-opacity:1;stroke-width:0.00029355"
       d="M 7.3171669,13.818245 C 7.268378,13.812536 7.1201109,13.795198 6.9876844,13.779664 6.1476749,13.681145 5.1413249,13.319683 4.5166643,12.892127 4.2846654,12.733333 3.7627464,12.331351 3.5924111,12.098651 3.4484023,11.901916 3.2474379,11.628096 3.1994418,11.329597 L 3.147947,11.009339 3.141227,6.9238858 C 3.133557,2.2705214 3.136574,2.9593069 3.136574,2.9593069 c 0,0 0.4951843,0.00374 1.3654126,0.012858 l 0.00528,-0.00653 0.1883846,0.1005299 c 0.7276156,0.3882861 1.6279481,0.6785224 2.1573156,0.7918904 0.4558866,0.097631 0.74382,0.081023 1.1470334,0.081023 0.4032132,0 0.6940902,0.016609 1.1499768,-0.081023 0.5293688,-0.1133677 1.4780952,-0.382391 2.2057102,-0.770674 l 0.188386,-0.1005299 -0.04422,-5.389e-4 c 0.870227,-0.00912 1.524117,-0.012863 1.524117,-0.012863 0,0 0.02032,-0.6604802 0.01276,3.9504394 l -0.0067,4.0854533 -0.05856,0.320259 c -0.05438,0.297401 -0.268398,0.628887 -0.412406,0.825622 -0.170335,0.232699 -0.770035,0.719534 -1.002035,0.87833 -0.600719,0.41117 -1.5647854,0.599801 -2.4530244,0.738729 -0.2410384,0.0377 -1.5654272,0.07177 -1.7868087,0.04596 z M 8.9012171,12.93819 c 1.6615249,-0.252684 2.8521029,-1.044473 3.1064639,-2.065941 0.0473,-0.189945 0.04895,-0.326929 0.04895,-4.0320282 v -2.835403 h -0.509962 -0.509965 l -0.218697,0.1294467 c -0.552047,0.3267567 -1.2070008,0.539898 -2.0181756,0.6567716 -0.2966276,0.04274 -1.3000953,0.04274 -1.5967227,0 C 6.3919403,4.6741625 5.7369858,4.4610217 5.1849374,4.1342645 L 4.9662403,4.0048178 H 4.4562742 3.9463079 v 2.835403 c 0,3.7050992 0.00166,3.8420832 0.048963,4.0320282 0.1564153,0.628134 0.6591787,1.168197 1.4625803,1.571089 0.486691,0.244066 1.139854,0.433816 1.7325921,0.503337 0.1324265,0.01553 0.2806937,0.033 0.3294825,0.03882 0.1859667,0.02219 1.1390096,-0.01046 1.3812918,-0.04732 z"
       id="path819-1"
       inkscape:connector-curvature="0"
       sodipodi:nodetypes="ccssscccscssssscccscsssccccsscccsssscccscscccc" />
    <path
       style="fill:#cccccc;fill-opacity:1;stroke-width:0.000211372"
       d="m 7.6437505,11.994939 c -0.036093,-0.004 -0.1457814,-0.01632 -0.2437499,-0.02721 C 6.1902167,11.833312 5.2273807,11.241113 5.0362233,10.513875 5.0012315,10.380753 5.000001,10.284748 5.000001,7.6880352 V 4.9999997 h 0.3772712 0.3772711 l 0.1617913,0.090723 C 6.324738,5.3197301 6.8092711,5.4691092 7.4093754,5.55102 c 0.2194441,0.029953 0.9618059,0.029953 1.1812498,0 C 9.1907296,5.469108 9.6752625,5.31973 10.083666,5.0907225 l 0.161791,-0.090723 H 10.622728 11 v 2.6880354 c 0,2.5967121 -0.0013,2.6927171 -0.03621,2.8258401 -0.188177,0.715893 -1.0689632,1.270818 -2.2981542,1.447912 -0.1792394,0.02581 -0.8842973,0.0487 -1.0218747,0.03315 z"
       id="path823-2"
       inkscape:connector-curvature="0" />
    <path
       style="fill:#ffffff;stroke-width:0.000142856"
       d="M 7.7625,10.792695 C 7.738437,10.789895 7.665312,10.781515 7.5999999,10.774045 6.7934772,10.681952 6.1515865,10.276199 6.0241481,9.7779193 6.0008203,9.6867084 6,9.6209291 6,7.84175 V 5.9999995 h 0.2515142 0.2515141 l 0.1078609,0.062161 c 0.2722689,0.156908 0.5952911,0.2592574 0.9953608,0.31538 0.1462959,0.020523 0.641204,0.020523 0.7875001,0 0.4000694,-0.056123 0.7230914,-0.1584721 0.9953603,-0.3153803 l 0.107861,-0.06216 H 9.7484848 10 V 7.8417501 C 10,9.620929 9.9990992,9.6867082 9.9758591,9.7779198 9.8504087,10.268426 9.2632179,10.648642 8.4437568,10.76998 c -0.1194928,0.0177 -0.5895316,0.03337 -0.68125,0.02271 z"
       id="path823-2-5"
       inkscape:connector-curvature="0"
       inkscape:label="White" />
  </g>
</svg>
