<?xml version="1.0" encoding="UTF-8" standalone="no"?>
<!-- Created with Inkscape (http://www.inkscape.org/) -->

<svg
   version="1.1"
   id="svg2"
   width="1600"
   height="1600"
   viewBox="0 0 1600 1600"
   sodipodi:docname="mat_sphere_sky.svg"
   inkscape:version="1.2.2 (732a01da63, 2022-12-09)"
   xmlns:inkscape="http://www.inkscape.org/namespaces/inkscape"
   xmlns:sodipodi="http://sodipodi.sourceforge.net/DTD/sodipodi-0.dtd"
   xmlns="http://www.w3.org/2000/svg"
   xmlns:svg="http://www.w3.org/2000/svg"
   xmlns:rdf="http://www.w3.org/1999/02/22-rdf-syntax-ns#"
   xmlns:cc="http://creativecommons.org/ns#"
   xmlns:dc="http://purl.org/dc/elements/1.1/">
  <metadata
     id="metadata8">
    <rdf:RDF>
      <cc:Work
         rdf:about="">
        <dc:format>image/svg+xml</dc:format>
        <dc:type
           rdf:resource="http://purl.org/dc/dcmitype/StillImage" />
      </cc:Work>
    </rdf:RDF>
  </metadata>
  <defs
     id="defs6" />
  <sodipodi:namedview
     pagecolor="#808080"
     bordercolor="#666666"
     borderopacity="1"
     objecttolerance="10"
     gridtolerance="10"
     guidetolerance="10"
     inkscape:pageopacity="0"
     inkscape:pageshadow="2"
     inkscape:window-width="1993"
     inkscape:window-height="1009"
     id="namedview4"
     showgrid="false"
     inkscape:zoom="0.5"
     inkscape:cx="385"
     inkscape:cy="176"
     inkscape:window-x="-8"
     inkscape:window-y="-8"
     inkscape:window-maximized="1"
     inkscape:current-layer="MAT_SPHERE_SKY"
     inkscape:showpageshadow="0"
     inkscape:pagecheckerboard="true"
     inkscape:deskcolor="#d1d1d1" />
  <g
     id="MAT_SPHERE_SKY"
     transform="matrix(100,0,0,100,0,4.9999997e-5)"
     style="stroke-width:0.0114286">
    <path
       style="fill:none;stroke-width:0.000357143"
       d="M 0,8 V 0 h 8 8 v 8 8 H 8 0 Z m 8.984375,7.46806 c 0.7616853,-0.08511 1.596158,-0.334497 2.356174,-0.704151 0.555735,-0.270296 0.964561,-0.529464 1.362576,-0.863779 0.357018,-0.29988 1.072278,-1.02845 1.325604,-1.350271 0.106943,-0.135859 0.318064,-0.36789 0.46916,-0.515625 0.356429,-0.348503 0.47483,-0.575528 0.49562,-0.950317 0.01078,-0.194415 0.04995,-0.364519 0.163231,-0.708917 0.159326,-0.4843912 0.260611,-0.9368184 0.31132,-1.390625 0.04058,-0.36317 0.04058,-1.60558 0,-1.96875 C 15.330527,5.7848091 14.751419,4.3607078 14.00667,3.421875 13.766908,3.1196311 13.042306,2.3847676 12.703125,2.0998703 11.740088,1.2909603 10.284418,0.67720866 8.984375,0.53194006 c -0.36317,-0.0405811 -1.60558,-0.0405811 -1.96875,0 C 6.2539397,0.61705187 5.4194666,0.866437 4.6594512,1.2360907 3.8261603,1.6413839 3.3503513,1.9941844 2.5912418,2.7696166 1.9028445,3.4728163 1.6240817,3.8617072 1.235041,4.6615994 0.86647347,5.4193975 0.61695603,6.2547975 0.53194006,7.015625 c -0.0405811,0.36317 -0.0405811,1.60558 0,1.96875 0.0524341,0.4692453 0.15344266,0.9122147 0.32778725,1.4375 0.0912738,0.275 0.18262069,0.563281 0.20299309,0.640625 0.063921,0.242674 0.2327222,0.568043 0.4402923,0.848672 0.1100617,0.148801 0.2844873,0.387478 0.3876123,0.530392 0.103125,0.142915 0.4123133,0.49009 0.6870852,0.771501 0.786562,0.805567 1.2330632,1.138081 2.0838892,1.551894 0.7351512,0.357553 1.592784,0.617748 2.3071506,0.69996 0.3333787,0.03837 1.6815822,0.04047 2.015625,0.0031 z"
       id="path829"
       inkscape:connector-curvature="0" />
    <path
       style="fill:#fefefe;stroke-width:0.000357143"
       d="M 6.96875,15.464919 C 5.7808959,15.328216 4.3421428,14.736692 3.421875,14.00667 2.911171,13.601543 2.058199,12.704233 1.7456766,12.243343 L 1.6124544,12.046875 1.8109303,12.2234 c 0.2339594,0.208085 0.5868911,0.422298 0.8921947,0.541519 0.1816176,0.07092 0.2664917,0.131625 0.5,0.357604 0.54733,0.529683 1.0048375,0.848089 1.7088969,1.189321 0.715824,0.346934 1.4833875,0.572944 2.2286031,0.656216 0.1546875,0.01729 0.5414062,0.03143 0.859375,0.03143 0.3179688,0 0.7046875,-0.01414 0.859375,-0.03143 0.7452156,-0.08327 1.512779,-0.309282 2.228603,-0.656216 0.720336,-0.349121 1.167445,-0.663029 1.740147,-1.221728 0.281858,-0.274967 0.335482,-0.313099 0.546875,-0.388891 0.250425,-0.08979 0.532977,-0.224577 0.725407,-0.346052 0.06509,-0.04109 0.118343,-0.06842 0.118343,-0.06074 0,0.04893 -0.450179,0.569477 -0.809419,0.935947 -0.76119,0.77651 -1.236033,1.128497 -2.068782,1.533526 -0.760016,0.369654 -1.5944887,0.619039 -2.356174,0.704151 -0.3340428,0.03733 -1.6822463,0.03523 -2.015625,-0.0031 z M 3.40625,11.439684 C 2.8541357,11.321655 2.2738717,11.012298 1.9922451,10.685834 1.839712,10.509016 1.6312792,10.176237 1.6032678,10.064801 1.5640824,9.9089138 1.7696956,9.5455691 2.0636021,9.2513319 2.4403211,8.8741891 3.0156695,8.6058241 3.609375,8.5303231 3.7640625,8.5106519 3.9371672,8.4879559 3.9940519,8.4798878 4.1520991,8.4574716 4.3246641,8.2810734 4.4189494,8.0455528 4.48379,7.8835844 4.5,7.7903409 4.5,7.5793344 4.5,7.2462972 4.5429106,7.0419034 4.6708309,6.765625 4.9405581,6.1830766 5.4721594,5.7612366 6.171875,5.5745056 c 0.3045072,-0.081263 0.9454928,-0.081263 1.25,0 0.5281503,0.140946 0.9627138,0.4159472 1.2611194,0.7980644 0.2492587,0.3191828 0.3662687,0.6131091 0.4080081,1.0249059 0.028419,0.2803738 0.070948,0.3698316 0.2335325,0.4912182 0.06537,0.048806 0.1331072,0.064431 0.2793191,0.064431 0.1775881,0 0.2105109,-0.011637 0.4117709,-0.1455478 C 10.356207,7.5809675 10.570045,7.5180791 11,7.5180791 c 0.295517,0 0.395468,0.012789 0.5625,0.071975 0.309686,0.1097344 0.599741,0.3173637 0.742955,0.5318294 0.197262,0.2954015 0.221583,0.4497971 0.14451,0.9173721 -0.02997,0.1818057 0.01207,0.3281288 0.132587,0.4615291 0.09143,0.1012003 0.156538,0.1358781 0.381047,0.2029463 0.49959,0.1492443 1.168703,0.531212 1.299067,0.741582 0.04579,0.07389 0.0069,0.130963 -0.207367,0.304687 -0.352565,0.285797 -0.874014,0.509657 -1.539674,0.660989 l -0.3125,0.07104 -4.265625,0.0072 c -4.0200594,0.0068 -4.2809166,0.0039 -4.53125,-0.04957 z M 0.83592966,10.34375 C 0.56953791,9.5291738 0.49987066,9.0413747 0.50025641,7.9934191 0.50064109,6.948395 0.57437453,6.4430981 0.84813869,5.609375 1.1269802,4.7601891 1.5913593,3.9022763 2.0998703,3.296875 2.3847676,2.9576941 3.1196311,2.2330921 3.421875,1.9933304 4.3607078,1.2485807 5.7848091,0.66947319 7.015625,0.53194006 c 0.36317,-0.0405811 1.60558,-0.0405811 1.96875,0 1.230816,0.13753313 2.654917,0.71664074 3.59375,1.46139034 0.302244,0.2397617 1.037107,0.9643637 1.322005,1.3035446 0.80891,0.9630375 1.422661,2.4187075 1.56793,3.71875 0.04169,0.3730628 0.0406,1.5964028 -0.0018,1.9777941 -0.01854,0.1669009 -0.06078,0.4370496 -0.09387,0.6003309 -0.07328,0.3615662 -0.337067,1.193728 -0.371629,1.172367 -0.01373,-0.0085 -0.03382,-0.06263 -0.04464,-0.120329 -0.01082,-0.0577 -0.07402,-0.194778 -0.140444,-0.304626 -0.120607,-0.199462 -0.120706,-0.199906 -0.0761,-0.340755 0.07766,-0.2452167 0.192367,-0.8172411 0.227,-1.1319879 0.04204,-0.3820219 0.04285,-1.3572635 0.0015,-1.7277941 -0.134772,-1.2061016 -0.668688,-2.5178909 -1.39911,-3.4375 -0.243401,-0.3064434 -0.813363,-0.8857566 -1.147076,-1.1658949 -0.948613,-0.7963212 -2.289973,-1.363096 -3.5625,-1.50529 -0.3623178,-0.0404859 -1.3564322,-0.0404859 -1.71875,0 C 5.9345234,1.1667116 4.6227341,1.7006278 3.703125,2.4310497 3.3966816,2.6744499 2.8173684,3.2444119 2.5372301,3.578125 c -0.7963212,0.9486128 -1.363096,2.2899728 -1.50529,3.5625 -0.040556,0.3629447 -0.0404624,1.3570569 1.625e-4,1.71875 0.017374,0.1546875 0.053681,0.3939509 0.080682,0.5316963 0.047783,0.2437631 0.047232,0.255855 -0.020645,0.453125 -0.049503,0.1438678 -0.075293,0.3114917 -0.088881,0.5776787 l -0.0191433,0.375 z M 10,4.5 V 4 H 10.5 11 V 4.5 5 H 10.5 10 Z"
       id="path827"
       inkscape:connector-curvature="0" />
    <path
       style="fill:#98cbfe;stroke-width:0.000357143"
       d="M 7.09375,14.964919 C 5.8640128,14.823396 4.5072625,14.243551 3.578125,13.462419 3.4234375,13.332372 3.2152009,13.142255 3.1153767,13.039937 l -0.1814982,-0.186034 0.2283734,0.06508 c 0.2255787,0.06428 0.2805672,0.06519 4.4939981,0.07456 4.490279,0.01 4.596436,0.0073 5.173539,-0.132243 l 0.302227,-0.07306 -0.214446,0.218797 c -0.117945,0.120339 -0.341008,0.325231 -0.495695,0.455316 -0.946221,0.795726 -2.289476,1.36346 -3.5625,1.50571 -0.3328738,0.0372 -1.4321178,0.03524 -1.765625,-0.0031 z M 14.545429,9.9985191 C 14.267289,9.7136784 13.794001,9.4410466 13.271519,9.2647 13.014399,9.1779175 12.955076,9.1466172 12.963264,9.1020556 12.96884,9.0717063 12.981026,8.9176822 12.990343,8.75978 13.004286,8.5234778 12.99564,8.4343544 12.941476,8.2560291 12.714445,7.5085787 11.928321,7 11,7 10.503407,7 10.031688,7.1430537 9.6953125,7.3956606 L 9.59375,7.4719306 V 7.3347141 C 9.59375,7.2592451 9.565636,7.0862637 9.531273,6.9503112 9.3106094,6.0772622 8.6204628,5.4034794 7.640625,5.1044919 7.3784537,5.0244928 7.3212175,5.0186712 6.796875,5.0186712 c -0.5243425,0 -0.5815788,0.00582 -0.84375,0.085821 C 4.7715278,5.4650444 4.0020516,6.39506 3.9993137,7.4659362 3.9988106,7.6632166 3.9826466,7.7695812 3.9383416,7.8671875 3.8823316,7.99058 3.8693719,8 3.7556213,8 3.5673006,8 3.1335828,8.0834662 2.890625,8.1664631 2.148074,8.4201259 1.5777929,8.8745334 1.2502083,9.4735687 L 1.1625292,9.6339025 1.1273175,9.4642881 C 1.0414907,9.0508631 1.0282953,8.9132431 1.0105155,8.2461163 0.98243225,7.1923866 1.0547005,6.6420734 1.333805,5.7843084 1.5944493,4.9832769 2.0334913,4.1784453 2.5372956,3.578125 2.8172625,3.2445234 3.3965519,2.6745528 3.703125,2.4310497 4.6227341,1.7006278 5.9345234,1.1667116 7.140625,1.0319401 c 0.3623178,-0.0404859 1.3564322,-0.0404859 1.71875,0 1.206102,0.1347715 2.517891,0.6686877 3.4375,1.3991096 0.306443,0.2434002 0.885757,0.8133622 1.165895,1.1470753 0.796321,0.9486128 1.363096,2.2899728 1.50529,3.5625 0.04047,0.3621547 0.04049,1.3562691 3.1e-5,1.71875 -0.05164,0.4627453 -0.230351,1.265625 -0.281715,1.265625 -0.0096,0 -0.07303,-0.05692 -0.140958,-0.1264809 z M 10.858077,5.9521503 C 11.397052,5.811765 11.812233,5.3952541 11.953385,4.8533344 12.155794,4.0762359 11.658375,3.2563012 10.858077,3.0478497 10.076095,2.8441695 9.2569144,3.33927 9.0478497,4.1419234 8.7693225,5.2112622 9.7887378,6.2306775 10.858077,5.9521503 Z"
       id="path825"
       inkscape:connector-curvature="0" />
    <path
       style="fill:#fefe00;stroke-width:0.000357143"
       d="M 10.12851,5.9506078 C 9.3361416,5.7375131 8.8459466,4.9170816 9.0478497,4.1419234 9.2569144,3.33927 10.076095,2.8441695 10.858077,3.0478498 11.658375,3.2563013 12.155794,4.0762359 11.953385,4.8533344 11.74241,5.6633228 10.91352,6.1617234 10.12851,5.9506078 Z M 11,4.5 V 4 H 10.5 10 V 4.5 5 h 0.5 0.5 z"
       id="path823"
       inkscape:connector-curvature="0" />
    <path
       style="fill:#7f7f7f;stroke-width:0.000357143"
       d="M 3.40625,12.439251 C 2.8555695,12.322426 2.2741665,12.01264 1.9922451,11.685834 1.8147943,11.480131 1.6342659,11.177485 1.5741914,10.98499 1.5038081,10.759463 1.4847802,10.406476 1.531212,10.187679 l 0.039506,-0.186159 0.085416,0.178927 c 0.3115442,0.652614 0.9630361,1.109656 1.8110715,1.270526 0.375676,0.07127 8.2874825,0.07386 8.7584185,0.0029 0.83345,-0.125631 1.541585,-0.416766 1.934217,-0.795212 l 0.155278,-0.149668 0.08243,0.140658 c 0.05121,0.08739 0.08768,0.203909 0.09628,0.307664 0.04474,0.539507 -0.671093,1.120633 -1.705707,1.384725 -0.624538,0.159416 -0.571496,0.157763 -4.9912491,0.155604 -3.8513928,-0.0019 -4.1426187,-0.0058 -4.390625,-0.05837 z"
       id="path821"
       inkscape:connector-curvature="0" />
    <path
       style="fill:#000000;stroke-width:0.000357143"
       d="M 3.3320459,12.951441 C 2.3446534,12.75525 1.5385662,12.169893 1.1864877,11.393401 1.054739,11.102835 1.0009238,10.843741 1.0009238,10.5 c 0,-0.343741 0.053815,-0.6028353 0.1855639,-0.8934009 C 1.4815413,8.9558725 2.0933966,8.4388044 2.890625,8.1664631 3.1335828,8.0834663 3.5673006,8 3.7556213,8 3.8693719,8 3.8823316,7.99058 3.9383416,7.8671875 3.9826466,7.7695812 3.9988094,7.6632166 3.9993137,7.4659363 4.0020512,6.39506 4.7715278,5.4650444 5.953125,5.1044919 c 0.2621712,-0.079999 0.3194075,-0.085821 0.84375,-0.085821 0.5243425,0 0.5815787,0.00582 0.84375,0.085821 0.9798378,0.2989875 1.6699844,0.9727703 1.8906484,1.8458194 0.034362,0.1359525 0.062477,0.3089337 0.062477,0.3844028 v 0.1372165 l 0.1015625,-0.07627 C 10.031688,7.1430537 10.503407,7 11,7 c 0.928321,0 1.714445,0.5085787 1.941476,1.2560291 0.05416,0.1783253 0.06281,0.2674487 0.04887,0.5037509 -0.0093,0.1579022 -0.0215,0.3119263 -0.02708,0.3422756 -0.0082,0.044562 0.05113,0.075862 0.308255,0.1626444 0.784905,0.2649191 1.362242,0.6936622 1.608984,1.194867 0.09775,0.19856 0.103872,0.230407 0.103872,0.540433 0,0.310897 -0.006,0.341714 -0.10609,0.547532 -0.138784,0.285305 -0.517339,0.661856 -0.862013,0.85745 -0.47722,0.270811 -1.053278,0.459234 -1.673461,0.547374 -0.465896,0.06621 -8.6771219,0.06538 -9.0107651,-9.16e-4 z m 8.8935781,-0.497595 c 1.089376,-0.164208 1.920474,-0.596726 2.189914,-1.139669 0.141033,-0.284194 0.104465,-0.518136 -0.131,-0.838062 C 14.082552,10.201675 13.552626,9.8889206 12.997259,9.7163813 12.740384,9.6365766 12.673994,9.6020006 12.581898,9.5000616 12.462035,9.3673872 12.42005,9.2207447 12.449965,9.0392559 12.527038,8.5716809 12.502717,8.4172853 12.305455,8.1218837 12.162241,7.9074181 11.872186,7.6997887 11.5625,7.5900544 11.395468,7.5308684 11.295517,7.5180791 11,7.5180791 c -0.429955,0 -0.643793,0.062888 -0.984375,0.2894981 C 9.814365,7.9414878 9.7814422,7.953125 9.6038541,7.953125 9.4576422,7.953125 9.389905,7.9375 9.324535,7.8886941 9.1619509,7.7673075 9.1194212,7.6778497 9.0910025,7.3974759 9.0492631,6.9856791 8.9322531,6.6917528 8.6829944,6.37257 8.3845887,5.9904528 7.9500253,5.7154516 7.421875,5.5745056 c -0.3045072,-0.081263 -0.9454928,-0.081263 -1.25,0 C 5.4721594,5.7612366 4.9405581,6.1830766 4.6708309,6.765625 4.5429106,7.0419034 4.5,7.2462972 4.5,7.5793344 4.5,7.7903409 4.48379,7.8835844 4.4189494,8.0455528 4.3246641,8.2810734 4.1520991,8.4574716 3.9940519,8.4798878 3.9371672,8.4879559 3.7640625,8.5106519 3.609375,8.5303231 2.6395839,8.6536506 1.8089283,9.2647966 1.5693498,10.03125 c -0.071975,0.230262 -0.072174,0.706169 -3.915e-4,0.9375 0.063837,0.205724 0.2408529,0.505604 0.4232867,0.717084 0.1708137,0.198009 0.600609,0.483648 0.9078578,0.603355 0.5547327,0.216131 0.3212615,0.206194 4.8967721,0.208428 3.4715011,0.0017 4.1731211,-0.0052 4.4287491,-0.04377 z"
       id="path819"
       inkscape:connector-curvature="0" />
  </g>
</svg>
