<?xml version="1.0" encoding="UTF-8" standalone="no"?>
<!-- Created with Inkscape (http://www.inkscape.org/) -->

<svg
   version="1.1"
   id="svg2"
   width="1600"
   height="1600"
   viewBox="0 0 1600 1600"
   sodipodi:docname="material.svg"
   inkscape:version="1.2.2 (732a01da63, 2022-12-09)"
   xmlns:inkscape="http://www.inkscape.org/namespaces/inkscape"
   xmlns:sodipodi="http://sodipodi.sourceforge.net/DTD/sodipodi-0.dtd"
   xmlns="http://www.w3.org/2000/svg"
   xmlns:svg="http://www.w3.org/2000/svg"
   xmlns:rdf="http://www.w3.org/1999/02/22-rdf-syntax-ns#"
   xmlns:cc="http://creativecommons.org/ns#"
   xmlns:dc="http://purl.org/dc/elements/1.1/">
  <metadata
     id="metadata8">
    <rdf:RDF>
      <cc:Work
         rdf:about="">
        <dc:format>image/svg+xml</dc:format>
        <dc:type
           rdf:resource="http://purl.org/dc/dcmitype/StillImage" />
      </cc:Work>
    </rdf:RDF>
  </metadata>
  <defs
     id="defs6" />
  <sodipodi:namedview
     pagecolor="#808080"
     bordercolor="#666666"
     borderopacity="1"
     objecttolerance="10"
     gridtolerance="10"
     guidetolerance="10"
     inkscape:pageopacity="0"
     inkscape:pageshadow="2"
     inkscape:window-width="2560"
     inkscape:window-height="1009"
     id="namedview4"
     showgrid="false"
     fit-margin-top="0"
     fit-margin-left="0"
     fit-margin-right="0"
     fit-margin-bottom="0"
     inkscape:zoom="0.5"
     inkscape:cx="616"
     inkscape:cy="392"
     inkscape:window-x="-8"
     inkscape:window-y="-8"
     inkscape:window-maximized="1"
     inkscape:current-layer="MATERIAL"
     inkscape:showpageshadow="0"
     inkscape:pagecheckerboard="true"
     inkscape:deskcolor="#d1d1d1" />
  <g
     id="MATERIAL"
     transform="scale(9.765625)"
     style="stroke-width:0.01">
    <path
       style="fill:none;stroke-width:0.0032"
       d="M 0,81.92 V 0 h 81.92 81.92 v 81.92 81.92 H 81.92 0 Z m 96.275773,70.58721 c 4.704727,-1.00678 9.743447,-2.59747 14.376457,-4.53853 9.75291,-4.0861 20.03515,-11.82468 26.95755,-20.28868 1.91182,-2.33757 6.12546,-8.61037 7.8235,-11.64674 2.69332,-4.81611 5.64548,-13.08502 7.11256,-19.922105 0.85721,-3.994845 0.88217,-4.396336 0.88217,-14.191155 0,-9.794819 -0.025,-10.19631 -0.88217,-14.191155 -1.04198,-4.855978 -2.62062,-9.871127 -4.57716,-14.541072 C 143.88258,43.434864 136.144,33.152624 127.68,26.230216 125.34243,24.318397 119.06963,20.104756 116.03326,18.406722 111.21715,15.713398 102.94824,12.761243 96.111155,11.294156 92.11631,10.436952 91.714819,10.411994 81.92,10.411994 c -9.794819,0 -10.19631,0.02496 -14.191155,0.882162 C 60.89176,12.761243 52.622851,15.713398 47.806736,18.406722 44.770368,20.104756 38.497574,24.318397 36.16,26.230216 29.468134,31.703257 23.050378,39.503104 18.406722,47.806736 15.713398,52.622851 12.761243,60.89176 11.294156,67.728845 10.436952,71.72369 10.411994,72.125181 10.411994,81.92 c 0,9.794819 0.02496,10.19631 0.882162,14.191155 1.041985,4.855975 2.620626,9.871125 4.57716,14.541075 4.086107,9.75291 11.824683,20.03515 20.288684,26.95755 2.337574,1.91182 8.610368,6.12546 11.646736,7.8235 4.554954,2.54727 12.993482,5.61272 18.913264,6.87057 5.352822,1.13739 7.015034,1.25336 16.48,1.14972 8.43567,-0.0924 9.416826,-0.16337 13.075773,-0.94636 z"
       id="path829"
       inkscape:connector-curvature="0" />
    <path
       style="fill:#fefefe;stroke-width:0.0032"
       d="M 73.92,143.03106 C 50.520163,139.79947 31.30796,124.0771 23.692032,101.92684 22.967155,99.818595 21.988519,96.290595 21.517286,94.086835 20.715389,90.336701 20.660498,89.557222 20.660498,81.92 c 0,-7.637222 0.05489,-8.416701 0.856788,-12.166835 C 25.08442,53.071184 34.300685,39.510262 48.32,30.315328 54.602576,26.194735 61.913706,23.19361 69.753165,21.517286 73.503299,20.715389 74.282778,20.660498 81.92,20.660498 c 7.637222,0 8.416701,0.05489 12.166835,0.856788 14.968955,3.200835 28.006305,11.353028 36.782495,22.999917 5.71451,7.583725 9.42872,15.767482 11.45338,25.235962 0.8019,3.750134 0.85679,4.529613 0.85679,12.166835 0,7.637222 -0.0549,8.416701 -0.85679,12.166835 -3.20083,14.968955 -11.35302,28.006305 -22.99991,36.782495 -7.54499,5.68532 -15.80679,9.44542 -25.072355,11.41089 -3.330183,0.70642 -4.82329,0.83173 -11.050445,0.92743 -3.96,0.0609 -8.136,-0.0186 -9.28,-0.17659 z m 17.74256,-10.85497 c 18.34871,-3.71866 32.84875,-16.46364 38.79033,-34.095226 1.91019,-5.66847 2.49275,-9.445315 2.49275,-16.160864 0,-4.832669 -0.12991,-6.566682 -0.70734,-9.440864 C 127.96857,51.226269 111.96413,35.419763 90.72,31.474304 c -4.444618,-0.825454 -13.155382,-0.825454 -17.6,0 -18.78264,3.48831 -33.68953,16.351213 -39.732893,34.284832 -1.910189,5.66847 -2.492753,9.445315 -2.492753,16.160864 0,4.832669 0.129919,6.566682 0.707347,9.440864 C 34.394557,105.26248 42.05088,116.80579 53.6,124.52733 c 6.700931,4.48013 13.807507,7.03675 23.36,8.40388 2.387331,0.34166 11.634077,-0.13325 14.70256,-0.75512 z"
       id="path827"
       inkscape:connector-curvature="0" />
    <path
       style="fill:#feedcb;stroke-width:0.0032"
       d="M 30.833201,78.724624 C 31.913796,62.23551 40.930925,47.144192 54.88,38.479226 62.00816,34.051315 70.330605,31.383293 78.731994,30.832718 L 81.92,30.623796 V 56.271898 81.92 H 56.271898 30.623796 Z"
       id="path825"
       inkscape:connector-curvature="0" />
    <path
       style="fill:#fecb65;stroke-width:0.0032"
       d="M 81.92,107.5681 V 81.92 h 25.6481 25.6481 l -0.20892,3.188006 C 131.31977,110.85817 110.86132,131.31957 85.115376,133.0068 L 81.92,133.2162 Z"
       id="path823"
       inkscape:connector-curvature="0" />
    <path
       style="fill:#983232;stroke-width:0.0032"
       d="M 76.96,132.90896 C 60.589027,130.94536 46.80872,122.36903 38.479226,108.96 34.051315,101.83184 31.383293,93.509395 30.832718,85.108006 L 30.623796,81.92 H 56.271898 81.92 V 56.271898 30.623796 l 3.195376,0.209405 C 101.60449,31.913796 116.69581,40.930925 125.36077,54.88 c 4.42791,7.12816 7.09594,15.450605 7.64651,23.851994 L 133.2162,81.92 H 107.5681 81.92 v 25.6 25.6 l -2,-0.048 c -1.1,-0.0264 -2.432,-0.0998 -2.96,-0.16309 z"
       id="path821"
       inkscape:connector-curvature="0" />
    <path
       style="fill:#000000;stroke-width:0.0032"
       d="M 72,153.26861 C 64.313658,152.21613 53.911434,148.84722 47.806736,145.43328 44.770368,143.73524 38.497574,139.5216 36.16,137.60978 29.468134,132.13674 23.050378,124.3369 18.406722,116.03326 15.713398,111.21715 12.761243,102.94824 11.294156,96.111155 10.436952,92.11631 10.411994,91.714819 10.411994,81.92 c 0,-9.794819 0.02496,-10.19631 0.882162,-14.191155 1.041985,-4.855978 2.620626,-9.871127 4.57716,-14.541072 C 19.957423,43.434864 27.695999,33.152624 36.16,26.230216 c 2.337574,-1.911819 8.610368,-6.12546 11.646736,-7.823494 4.816115,-2.693324 13.085024,-5.645479 19.922109,-7.112566 3.994845,-0.857204 4.396336,-0.882162 14.191155,-0.882162 9.794819,0 10.19631,0.02496 14.191155,0.882162 6.837085,1.467087 15.105995,4.419242 19.922105,7.112566 3.03637,1.698034 9.30917,5.911675 11.64674,7.823494 6.69187,5.473041 13.10962,13.272888 17.75328,21.57652 2.69332,4.816115 5.64548,13.085024 7.11256,19.922109 0.85721,3.994845 0.88217,4.396336 0.88217,14.191155 0,9.794819 -0.025,10.19631 -0.88217,14.191155 -1.46708,6.837085 -4.41924,15.105995 -7.11256,19.922105 -1.69804,3.03637 -5.91168,9.30917 -7.8235,11.64674 -5.47304,6.69187 -13.27288,13.10962 -21.57652,17.75328 -4.77604,2.67091 -13.08651,5.64638 -19.757487,7.07393 -3.658947,0.78299 -4.640103,0.854 -13.075773,0.94636 -5.016,0.0549 -10.056,-0.0283 -11.2,-0.18496 z m 22.250445,-10.98839 c 16.462705,-3.49218 30.113905,-12.79368 39.274225,-26.76022 4.12059,-6.28258 7.12172,-13.59371 8.79804,-21.433165 0.8019,-3.750134 0.85679,-4.529613 0.85679,-12.166835 0,-7.637222 -0.0549,-8.416701 -0.85679,-12.166835 C 138.75558,53.071184 129.53932,39.510262 115.52,30.315328 109.23742,26.194735 101.92629,23.19361 94.086835,21.517286 90.336701,20.715389 89.557222,20.660498 81.92,20.660498 c -7.637222,0 -8.416701,0.05489 -12.166835,0.856788 -14.968951,3.200835 -28.006304,11.353028 -36.782499,22.999917 -5.71451,7.583725 -9.42872,15.767482 -11.45338,25.235962 -0.801897,3.750134 -0.856788,4.529613 -0.856788,12.166835 0,7.637222 0.05489,8.416701 0.856788,12.166835 2.226259,10.411275 6.690286,19.626655 13.405172,27.673165 8.385046,10.04788 20.866793,17.55395 33.778166,20.31295 5.194966,1.11011 6.984995,1.25019 14.499376,1.1347 6.227155,-0.0957 7.720262,-0.22101 11.050445,-0.92743 z"
       id="path819"
       inkscape:connector-curvature="0" />
  </g>
</svg>
