<?xml version="1.0" encoding="UTF-8" standalone="no"?>
<!-- Created with Inkscape (http://www.inkscape.org/) -->

<svg
   version="1.1"
   id="svg2"
   width="1600"
   height="1600"
   viewBox="0 0 1600 1600"
   sodipodi:docname="material_add.svg"
   inkscape:version="1.2.2 (732a01da63, 2022-12-09)"
   xmlns:inkscape="http://www.inkscape.org/namespaces/inkscape"
   xmlns:sodipodi="http://sodipodi.sourceforge.net/DTD/sodipodi-0.dtd"
   xmlns="http://www.w3.org/2000/svg"
   xmlns:svg="http://www.w3.org/2000/svg"
   xmlns:rdf="http://www.w3.org/1999/02/22-rdf-syntax-ns#"
   xmlns:cc="http://creativecommons.org/ns#"
   xmlns:dc="http://purl.org/dc/elements/1.1/">
  <metadata
     id="metadata8">
    <rdf:RDF>
      <cc:Work
         rdf:about="">
        <dc:format>image/svg+xml</dc:format>
        <dc:type
           rdf:resource="http://purl.org/dc/dcmitype/StillImage" />
      </cc:Work>
    </rdf:RDF>
  </metadata>
  <defs
     id="defs6" />
  <sodipodi:namedview
     pagecolor="#808080"
     bordercolor="#666666"
     borderopacity="1"
     objecttolerance="10"
     gridtolerance="10"
     guidetolerance="10"
     inkscape:pageopacity="0"
     inkscape:pageshadow="2"
     inkscape:window-width="1993"
     inkscape:window-height="1009"
     id="namedview4"
     showgrid="false"
     inkscape:zoom="0.5"
     inkscape:cx="577"
     inkscape:cy="484"
     inkscape:window-x="-8"
     inkscape:window-y="-8"
     inkscape:window-maximized="1"
     inkscape:current-layer="MATERIAL_ADD"
     inkscape:showpageshadow="0"
     inkscape:pagecheckerboard="true"
     inkscape:deskcolor="#d1d1d1" />
  <g
     id="MATERIAL_ADD"
     transform="matrix(100,0,0,100,0,4.9999997e-5)"
     style="stroke-width:0.0114286">
    <path
       style="fill:none;stroke-width:0.000357143"
       d="M 0,8 V 0 h 8 8 v 8 8 H 8 0 Z m 12.174908,7.45364 c 1.225085,-0.198698 2.336663,-1.013737 2.89315,-2.121336 0.302926,-0.602926 0.431691,-1.149465 0.431691,-1.832304 0,-0.682839 -0.128765,-1.229378 -0.431691,-1.8323041 C 14.699745,8.9346275 14.065415,8.2996484 13.335491,7.9333553 12.728624,7.6288156 12.18377,7.5002512 11.5,7.5002512 c -0.682839,0 -1.229378,0.1287647 -1.8323041,0.431691 -0.9272834,0.4658919 -1.6532822,1.3176628 -1.9829453,2.3264708 -0.2490506,0.762125 -0.2490506,1.72105 0,2.483174 0.1162819,0.355836 0.3576,0.838399 0.5511647,1.102163 0.2111622,0.287743 0.5812919,0.661782 0.8734597,0.882685 0.4483109,0.33896 1.132898,0.63153 1.702317,0.727514 0.327768,0.05525 1.021634,0.05509 1.363216,-3.13e-4 z M 8.2986228,14.679688 C 7.6753522,14.046422 7.2605809,13.274904 7.0706894,12.395603 c -0.078359,-0.362846 -0.078359,-1.42836 0,-1.791206 0.192165,-0.8898286 0.6100668,-1.6619948 1.24089,-2.2928176 0.6308228,-0.6308231 1.402989,-1.048725 2.2928176,-1.24089 0.362846,-0.078359 1.42836,-0.078359 1.791206,0 0.881205,0.1903025 1.650735,0.6045587 2.287718,1.2315315 l 0.323946,0.3188554 -0.01596,-0.8183507 C 14.977096,7.0743669 14.966283,6.9418941 14.892977,6.5980691 14.795174,6.1393397 14.639992,5.6474416 14.450067,5.1941184 14.051033,4.2416859 13.295313,3.2375609 12.46875,2.5615446 12.240471,2.3748435 11.627894,1.9633551 11.331373,1.7975314 10.86105,1.5345115 10.053539,1.2462151 9.385855,1.102945 8.9957334,1.0192336 8.9565253,1.0167963 8,1.0167963 c -0.9565253,0 -0.9957334,0.00244 -1.385855,0.086149 C 5.9464609,1.2462151 5.1389503,1.5345115 4.6686266,1.7975314 4.3721062,1.9633551 3.7595288,2.3748435 3.53125,2.5615446 2.8777475,3.0960212 2.2510135,3.857725 1.7975314,4.6686266 1.5345115,5.1389503 1.2462151,5.9464609 1.102945,6.614145 1.0192336,7.0042666 1.0167963,7.0434747 1.0167963,8 c 0,0.9565253 0.00244,0.9957334 0.086149,1.385855 0.1017563,0.4742166 0.2559204,0.963977 0.4469882,1.420027 0.3990339,0.952432 1.1547542,1.956557 1.9813168,2.632573 0.2282788,0.186702 0.8408562,0.59819 1.1373766,0.764013 0.4448196,0.248758 1.2688946,0.548118 1.8469984,0.670955 0.4817778,0.10237 0.6652787,0.118345 1.4085025,0.122615 L 8.6138797,15 Z"
       id="path831"
       inkscape:connector-curvature="0" />
    <path
       style="fill:#fefefe;stroke-width:0.000357143"
       d="M 10.9375,14.95383 C 10.0484,14.802993 9.2455284,14.318877 8.713275,13.612668 7.5503344,12.069646 7.8530078,9.8696594 9.3873316,8.713275 10.930354,7.5503344 13.130341,7.8530078 14.286725,9.3873316 c 0.944076,1.2526264 0.944076,2.9727104 0,4.2253364 -0.77,1.021659 -2.097988,1.553437 -3.349225,1.341162 z M 12,13 v -1 h 1 1 V 11.5 11 H 13 12 V 10 9 H 11.5 11 v 1 1 H 10 9 v 0.5 0.5 h 1 1 v 1 1 H 11.5 12 Z M 7.21875,13.96595 C 5.7588962,13.778189 4.3406084,13.005307 3.4103962,11.890625 2.7546457,11.104833 2.3187056,10.204893 2.1012975,9.1881675 2.0229872,8.8219434 2.0176268,8.7458225 2.0176268,8 c 0,-0.7458225 0.00536,-0.8219434 0.083671,-1.1881675 C 2.4496504,5.1827328 3.3496763,3.8584241 4.71875,2.9604812 5.3322828,2.5580796 6.0462603,2.2650009 6.8118325,2.1012975 7.1780566,2.0229872 7.2541775,2.0176268 8,2.0176268 c 0.7458225,0 0.8219434,0.00536 1.1881675,0.083671 0.2152109,0.046019 0.5597422,0.1415887 0.765625,0.2123775 2.0221705,0.6952834 3.5189665,2.3996753 3.9365565,4.4825325 0.07959,0.3969822 0.133902,0.9225425 0.09533,0.9225425 -0.0126,0 -0.06024,-0.026372 -0.10586,-0.058605 -0.106298,-0.075102 -0.530847,-0.285205 -0.76104,-0.3766278 l -0.178091,-0.07073 -0.03381,-0.1767063 C 12.846116,6.7185019 12.653449,6.1470172 12.499638,5.828125 12.197336,5.2013669 11.739708,4.6111244 11.224743,4.1837803 10.539288,3.614955 9.7981519,3.2617538 8.9219594,3.0863479 8.4586703,2.9936017 7.6044625,2.9875186 7.140625,3.0736625 5.3063828,3.4143178 3.8506319,4.6704606 3.2604597,6.4217906 3.0739178,6.9753522 3.0170268,7.3441847 3.0170268,8 c 0,0.4719403 0.012687,0.6412775 0.069077,0.9219594 0.3195345,1.5905046 1.315048,2.8894096 2.7420214,3.5776786 0.3188922,0.153811 0.8903769,0.346478 1.2079559,0.407244 l 0.1767063,0.03381 0.07073,0.178091 c 0.091423,0.230193 0.3015256,0.654742 0.3766278,0.76104 0.032233,0.04562 0.058605,0.09133 0.058605,0.101563 0,0.02468 -0.2474881,0.01704 -0.5,-0.01544 z"
       id="path829"
       inkscape:connector-curvature="0" />
    <path
       style="fill:#feedcb;stroke-width:0.000357143"
       d="M 3.0110548,7.6879516 C 3.1165817,6.0776866 3.9971606,4.603925 5.359375,3.7577369 6.0554844,3.3253238 6.8682231,3.0647748 7.6886712,3.0110076 L 8,2.990605 V 5.4953025 8 H 5.4953025 2.990605 Z"
       id="path827"
       inkscape:connector-curvature="0" />
    <path
       style="fill:#fecb65;stroke-width:0.000357143"
       d="M 8,8.3158797 V 8 H 8.3150184 8.6300366 L 8.4560731,8.1589928 C 8.3603934,8.2464387 8.218635,8.3885847 8.141055,8.4748725 L 8,8.6317597 Z"
       id="path825"
       inkscape:connector-curvature="0" />
    <path
       style="fill:#983232;stroke-width:0.000357143"
       d="M 6.9375,12.887144 C 5.8896544,12.659748 4.8575741,12.036689 4.1837803,11.224743 3.4815213,10.378495 3.0813251,9.3843234 3.0110076,8.3113288 L 2.990605,8 H 5.4953025 8 V 5.4953025 2.990605 l 0.3113288,0.020403 c 2.0402582,0.1337058 3.8054242,1.4976789 4.4343442,3.426492 0.07551,0.2315944 0.191827,0.6952688 0.191827,0.7647128 0,0.00584 -0.117394,-0.021672 -0.260876,-0.061147 -0.143482,-0.039476 -0.388355,-0.089195 -0.544163,-0.1104872 -0.36336,-0.049656 -1.249993,-0.023323 -1.562093,0.046394 C 9.9930438,7.2059328 9.3967434,7.4656831 8.9195816,7.7960591 L 8.6250294,8 H 8.3125147 8 V 8.3125147 8.6250294 L 7.7960591,8.9195816 c -0.330376,0.4771618 -0.5901263,1.0734622 -0.7190875,1.6507864 -0.069716,0.3121 -0.096049,1.198733 -0.046394,1.562093 0.021292,0.155808 0.071011,0.400681 0.1104872,0.544163 0.047982,0.174398 0.059805,0.259836 0.035667,0.257738 -0.019859,-0.0017 -0.1275134,-0.02297 -0.2392322,-0.04722 z"
       id="path823"
       inkscape:connector-curvature="0" />
    <path
       style="fill:#323232;stroke-width:0.000357143"
       d="M 10.811692,15.453949 C 9.5921819,15.248382 8.4846756,14.432431 7.9319422,13.332304 7.6290159,12.729378 7.5002512,12.182839 7.5002512,11.5 c 0,-0.68377 0.1285644,-1.228624 0.4331041,-1.8354909 C 8.2996484,8.934585 8.9346275,8.3002553 9.6676959,7.9319422 10.270622,7.6290159 10.817161,7.5002513 11.5,7.5002513 c 0.68377,0 1.228624,0.1285643 1.835491,0.433104 0.729924,0.3662931 1.364254,1.0012722 1.732567,1.7343406 0.302926,0.6029261 0.431691,1.1494651 0.431691,1.8323041 0,0.682839 -0.128765,1.229378 -0.431691,1.832304 -0.187311,0.372814 -0.375181,0.634064 -0.690236,0.959841 -0.592168,0.61232 -1.380871,1.028167 -2.202914,1.161495 -0.341582,0.0554 -1.035448,0.05556 -1.363216,3.13e-4 z m 1.235891,-0.499932 c 1.499042,-0.243138 2.663296,-1.407392 2.906434,-2.906434 C 15.195244,10.560316 14.431388,9.0634606 13.085929,8.3868716 11.34667,7.5122531 9.2523972,8.1928947 8.3868716,9.9140712 c -0.5152179,1.0245578 -0.5146947,2.1473868 0.00148,3.1751508 0.6731678,1.340357 2.1747294,2.105574 3.6592314,1.864795 z M 11,13 V 12 H 10 9 V 11.5 11 h 1 1 V 10 9 h 0.5 0.5 v 1 1 h 1 1 v 0.5 0.5 h -1 -1 v 1 1 H 11.5 11 Z"
       id="path821"
       inkscape:connector-curvature="0" />
    <path
       style="fill:#000000;stroke-width:0.000357143"
       d="M 7.03125,14.96595 C 6.3046431,14.872496 5.2673569,14.537297 4.6686266,14.202468 4.3721062,14.036645 3.7595288,13.625157 3.53125,13.438455 2.8777475,12.903979 2.2510135,12.142275 1.7975314,11.331373 1.5345115,10.86105 1.2462151,10.053539 1.102945,9.385855 1.0192336,8.9957334 1.0167963,8.9565253 1.0167963,8 c 0,-0.9565253 0.00244,-0.9957334 0.086149,-1.385855 C 1.2047013,6.1399284 1.3588654,5.6501678 1.5499332,5.1941184 1.9489671,4.2416859 2.7046874,3.2375609 3.53125,2.5615446 3.7595288,2.3748435 4.3721062,1.9633551 4.6686266,1.7975314 5.1389503,1.5345115 5.9464609,1.2462151 6.614145,1.102945 7.0042666,1.0192336 7.0434747,1.0167963 8,1.0167963 c 0.9565253,0 0.9957334,0.00244 1.385855,0.086149 0.667684,0.1432701 1.475195,0.4315665 1.945518,0.6945864 0.296521,0.1658237 0.909098,0.5773121 1.137377,0.7640132 0.653503,0.5344766 1.280237,1.2961804 1.733718,2.107082 0.261192,0.4670546 0.55192,1.279414 0.69051,1.9294425 0.07339,0.3442343 0.08411,0.4759847 0.0984,1.2097484 l 0.01604,0.8234428 -0.253745,-0.2643059 C 14.614114,8.2215859 14.389281,8.0208984 14.254045,7.9209822 L 14.008161,7.7393163 13.987194,7.4555956 C 13.924843,6.6118866 13.597794,5.6150103 13.142053,4.8795272 12.635453,4.0619666 12.067306,3.4760369 11.28125,2.9604812 10.667717,2.5580796 9.9537397,2.2650009 9.1881675,2.1012975 8.8219434,2.0229872 8.7458225,2.0176268 8,2.0176268 c -0.7458225,0 -0.8219434,0.00536 -1.1881675,0.083671 C 5.3500209,2.413879 4.0768419,3.2099916 3.2197916,4.3473831 2.661734,5.0879813 2.2990181,5.8871763 2.1012975,6.8118325 2.0229872,7.1780566 2.0176268,7.2541775 2.0176268,8 c 0,0.7458225 0.00536,0.8219434 0.083671,1.1881675 0.3616805,1.6914275 1.3138025,3.0464565 2.7782297,3.9538855 0.7354831,0.455741 1.7323594,0.78279 2.5760684,0.845141 l 0.2837206,0.02097 0.181666,0.245884 c 0.099916,0.135236 0.2988653,0.3584 0.4421087,0.495919 L 8.6235338,15 7.9289544,14.996038 C 7.5469356,14.993858 7.1429687,14.980318 7.03125,14.96595 Z"
       id="path819"
       inkscape:connector-curvature="0" />
  </g>
</svg>
