<?xml version="1.0" encoding="UTF-8" standalone="no"?>
<!-- Created with Inkscape (http://www.inkscape.org/) -->

<svg
   version="1.1"
   id="svg2"
   width="1600"
   height="1600"
   viewBox="0 0 1600 1600"
   sodipodi:docname="material_replace.svg"
   inkscape:version="1.2.2 (732a01da63, 2022-12-09)"
   xmlns:inkscape="http://www.inkscape.org/namespaces/inkscape"
   xmlns:sodipodi="http://sodipodi.sourceforge.net/DTD/sodipodi-0.dtd"
   xmlns="http://www.w3.org/2000/svg"
   xmlns:svg="http://www.w3.org/2000/svg"
   xmlns:rdf="http://www.w3.org/1999/02/22-rdf-syntax-ns#"
   xmlns:cc="http://creativecommons.org/ns#"
   xmlns:dc="http://purl.org/dc/elements/1.1/">
  <metadata
     id="metadata8">
    <rdf:RDF>
      <cc:Work
         rdf:about="">
        <dc:format>image/svg+xml</dc:format>
        <dc:type
           rdf:resource="http://purl.org/dc/dcmitype/StillImage" />
      </cc:Work>
    </rdf:RDF>
  </metadata>
  <defs
     id="defs6" />
  <sodipodi:namedview
     pagecolor="#808080"
     bordercolor="#666666"
     borderopacity="1"
     objecttolerance="10"
     gridtolerance="10"
     guidetolerance="10"
     inkscape:pageopacity="0"
     inkscape:pageshadow="2"
     inkscape:window-width="1993"
     inkscape:window-height="1009"
     id="namedview4"
     showgrid="false"
     inkscape:zoom="0.5"
     inkscape:cx="273"
     inkscape:cy="38"
     inkscape:window-x="-8"
     inkscape:window-y="-8"
     inkscape:window-maximized="1"
     inkscape:current-layer="MATERIAL_REPLACE"
     inkscape:showpageshadow="0"
     inkscape:pagecheckerboard="true"
     inkscape:deskcolor="#d1d1d1" />
  <g
     id="MATERIAL_REPLACE"
     transform="matrix(100,0,0,100,0,4.9999997e-5)"
     style="stroke-width:0.0114286">
    <path
       style="fill:none;stroke-width:0.000357143"
       d="M 0,8 V 0 h 8 8 v 8 8 H 8 0 Z m 10.951422,5.907821 c 1.129506,-0.228912 2.160906,-0.834863 2.864798,-1.683078 0.568825,-0.685455 0.922026,-1.426591 1.097432,-2.3027836 0.09275,-0.4632891 0.09883,-1.3174969 0.01268,-1.7813344 C 14.663397,6.7248353 13.836013,5.500295 12.640625,4.7577369 11.944558,4.32535 11.131772,4.0647744 10.311457,4.0110159 L 10.000256,3.9906219 9.7642422,3.7131244 C 9.3601841,3.2380456 8.7060484,2.7437292 8.125,2.4743838 7.7845572,2.3165714 7.3153594,2.1651382 6.9219594,2.0861036 6.429615,1.9871909 5.570385,1.9871909 5.0780406,2.0861036 3.0025654,2.5030697 1.4589611,4.0660031 1.0736625,6.140625 c -0.0806108,0.4340447 -0.0806108,1.2847053 0,1.71875 0.2629404,1.4157897 1.0903243,2.64033 2.2857125,3.382888 0.6960672,0.432387 1.5088534,0.692963 2.3291684,0.746721 l 0.311201,0.02039 0.2360134,0.277498 c 0.1298075,0.152623 0.3724431,0.390713 0.5391903,0.529088 0.7997813,0.663697 1.5940531,1.001498 2.7406769,1.165599 0.2331378,0.03337 1.13614,-0.01301 1.435797,-0.07374 z"
       id="path833"
       inkscape:connector-curvature="0" />
    <path
       style="fill:#fefefe;stroke-width:0.000357143"
       d="m 10,13.507869 v -0.501526 l 0.226563,-0.02165 c 0.515805,-0.0493 1.140915,-0.214319 1.507812,-0.398039 0.625979,-0.313453 1.262342,-0.874663 1.603057,-1.413741 0.363911,-0.575779 0.577709,-1.2186818 0.647257,-1.9463465 L 14.006343,9 h 0.501526 0.501526 l -0.0204,0.3113287 C 14.824197,11.825993 12.8263,13.824177 10.312048,13.988945 L 10,14.009395 Z M 5.0110547,8.6879516 C 5.1165816,7.0776866 5.9971606,5.603925 7.359375,4.7577369 8.0554844,4.3253238 8.8682231,4.0647747 9.6886713,4.0110075 L 10,3.990605 v 0.5015259 0.501526 L 9.7734375,5.0153109 C 8.5951588,5.1279281 7.60587,5.6359178 6.9314281,6.4746544 6.3803484,7.1599781 6.1030069,7.8559022 6.0153109,8.7734375 L 5.9936569,9 H 5.4921309 4.990605 Z m -3.9999999,-2 C 1.1165817,5.0776866 1.9971607,3.603925 3.359375,2.7577369 4.0554844,2.3253238 4.8682231,2.0647748 5.6886712,2.0110076 L 6,1.990605 V 2.4921309 2.9936568 L 5.7734375,3.0153111 C 4.5951588,3.1279281 3.60587,3.6359178 2.9314283,4.4746544 2.3803483,5.1599781 2.1030068,5.8559022 2.0153111,6.7734375 L 1.9936568,7 H 1.4921309 0.99060503 Z"
       id="path831"
       inkscape:connector-curvature="0" />
    <path
       style="fill:#feedcb;stroke-width:0.000357143"
       d="M 6.0153109,8.7734375 C 6.0646103,8.2576319 6.2296297,7.6325222 6.41335,7.265625 6.7268028,6.6396459 7.2880131,6.0032834 7.8270909,5.6625681 8.4028703,5.2986566 9.0457728,5.0848594 9.7734375,5.0153109 L 10,4.9936569 V 6.9968284 9 H 7.9968284 5.9936569 Z"
       id="path829"
       inkscape:connector-curvature="0" />
    <path
       style="fill:#cbcbcb;stroke-width:0.000357143"
       d="M 2.0153111,6.7734375 C 2.0646104,6.2576319 2.2296297,5.6325222 2.4133498,5.265625 2.7268028,4.6396459 3.2880131,4.0032834 3.8270909,3.6625681 4.4028703,3.2986566 5.0457728,3.0848594 5.7734375,3.0153111 L 6,2.9936568 V 4.4912056 5.9887544 L 5.8263272,6.2521897 C 5.7308072,6.3970791 5.6007291,6.6237578 5.5372647,6.7559203 L 5.421875,6.9962156 3.7077659,6.9981078 1.9936568,7 Z"
       id="path827"
       inkscape:connector-curvature="0" />
    <path
       style="fill:#fecb65;stroke-width:0.000357143"
       d="M 10,11.003172 V 9 h 2.003172 2.003171 l -0.02165,0.2265625 c -0.112617,1.1782785 -0.620607,2.1675675 -1.459343,2.8420095 -0.685324,0.55108 -1.381248,0.828421 -2.298783,0.916117 L 10,13.006343 Z"
       id="path825"
       inkscape:connector-curvature="0" />
    <path
       style="fill:#656565;stroke-width:0.000357143"
       d="M 5.140625,10.8897 C 4.9203044,10.840906 4.4438194,10.675879 4.265625,10.58665 3.6396459,10.273197 3.0032833,9.7119869 2.6625683,9.1729091 2.2986565,8.5971297 2.0848594,7.9542272 2.0153111,7.2265625 L 1.9936568,7 H 3.7032969 C 5.319205,7 5.4117116,7.003 5.3905903,7.054687 5.2896187,7.3017906 5.1431678,7.794 5.0861034,8.0780406 5.0297141,8.3587225 5.0170269,8.5280597 5.0170269,9 c 0,0.6597916 0.056761,1.024105 0.2480634,1.592162 0.06045,0.179502 0.1099097,0.330636 0.1099097,0.335853 0,0.01266 -0.016063,0.01003 -0.234375,-0.03832 z M 6,4.4878997 V 2.9936568 l 0.2265625,0.021654 c 0.9087841,0.086859 1.6100091,0.3641617 2.2834328,0.9029936 L 8.7856156,4.1388388 8.4474953,4.2521925 C 8.2615291,4.3145372 8.0039063,4.4144797 7.875,4.4742875 7.3173325,4.7330241 6.6451984,5.2335994 6.2816556,5.6609397 6.1741878,5.7872666 6.0668512,5.9112166 6.04313,5.9363841 6.00642,5.9753316 6,5.7597187 6,4.4878997 Z"
       id="path823"
       inkscape:connector-curvature="0" />
    <path
       style="fill:#983232;stroke-width:0.000357143"
       d="M 9.703125,12.979391 C 9.2033594,12.919447 8.6004191,12.754891 8.2667313,12.587368 7.6377822,12.271612 7.0035122,11.712349 6.6625681,11.172909 6.2986566,10.59713 6.0848594,9.9542272 6.0153109,9.2265625 L 5.9936569,9 H 7.9968284 10 V 6.9968284 4.9936569 l 0.226563,0.021654 c 0.515805,0.049299 1.140915,0.2143188 1.507812,0.3980391 0.625979,0.3134528 1.262342,0.8746631 1.603057,1.4137409 0.363911,0.5757794 0.577709,1.2186819 0.647257,1.9463466 L 14.006343,9 H 12.003172 10 v 2 2 L 9.8984375,12.9953 C 9.8425785,12.9927 9.7546875,12.9856 9.703125,12.97937 Z"
       id="path821"
       inkscape:connector-curvature="0" />
    <path
       style="fill:#323232;stroke-width:0.000357143"
       d="M 9.515625,13.979391 C 8.9620481,13.912993 8.3477294,13.744093 7.890625,13.532617 7.2947444,13.256937 6.6444709,12.767428 6.2357578,12.286876 L 5.9997444,12.009378 5.6878238,11.988937 C 4.0776941,11.883419 2.6038957,11.002792 1.7577369,9.640625 1.3253238,8.9445156 1.0647747,8.1317769 1.0110076,7.3113288 L 0.99060503,7 H 1.4921309 1.9936568 l 0.021654,0.2265625 c 0.087696,0.9175353 0.3650372,1.6134594 0.9161171,2.2987831 0.4418584,0.5494954 1.0649156,0.9876764 1.7404468,1.2240134 0.2548947,0.08918 0.6750044,0.195428 0.6947256,0.175707 0.00436,-0.0044 -0.041243,-0.153946 -0.1013444,-0.332411 C 5.1314881,10.195441 5.0381056,9.7248259 5.0110075,9.3113288 L 4.990605,9 h 0.5015259 0.501526 l 0.021654,0.2265625 c 0.1126172,1.1782785 0.6206069,2.1675675 1.4593435,2.8420095 0.6853237,0.55108 1.3812478,0.828421 2.2987831,0.916117 L 10,13.006343 V 13.503172 14 L 9.8046875,13.9953 C 9.6972656,13.9927 9.5671875,13.9856 9.515625,13.97937 Z M 13.984689,8.7734375 C 13.93539,8.2576319 13.77037,7.6325222 13.58665,7.265625 13.273197,6.6396459 12.711987,6.0032834 12.172909,5.6625681 11.59713,5.2986566 10.954227,5.0848594 10.226563,5.0153109 L 10,4.9936569 V 4.4922259 3.990795 L 9.6796875,4.0122131 C 9.5035156,4.0239928 9.2311453,4.0585956 9.07442,4.0891078 L 8.789465,4.1445844 8.527545,3.9303953 C 7.8690566,3.3919059 7.1448625,3.1052614 6.2109375,3.0134546 L 6,2.9927189 V 2.491662 1.990605 L 6.3113288,2.011008 C 6.9112859,2.0503251 7.5772441,2.2204713 8.125,2.4743838 8.7060484,2.7437292 9.3601841,3.2380456 9.7642422,3.7131244 l 0.2360138,0.2774975 0.311201,0.020394 c 2.51453,0.1647869 4.512724,2.1627444 4.677488,4.6769357 L 15.009395,9 h -0.501526 -0.501526 z"
       id="path819"
       inkscape:connector-curvature="0" />
  </g>
</svg>
