<?xml version="1.0" encoding="UTF-8" standalone="no"?>
<!-- Created with Inkscape (http://www.inkscape.org/) -->

<svg
   version="1.1"
   id="svg2"
   width="1600"
   height="1600"
   viewBox="0 0 1600 1600"
   sodipodi:docname="material_index.svg"
   inkscape:version="1.2.2 (732a01da63, 2022-12-09)"
   xmlns:inkscape="http://www.inkscape.org/namespaces/inkscape"
   xmlns:sodipodi="http://sodipodi.sourceforge.net/DTD/sodipodi-0.dtd"
   xmlns="http://www.w3.org/2000/svg"
   xmlns:svg="http://www.w3.org/2000/svg"
   xmlns:rdf="http://www.w3.org/1999/02/22-rdf-syntax-ns#"
   xmlns:cc="http://creativecommons.org/ns#"
   xmlns:dc="http://purl.org/dc/elements/1.1/">
  <metadata
     id="metadata8">
    <rdf:RDF>
      <cc:Work
         rdf:about="">
        <dc:format>image/svg+xml</dc:format>
        <dc:type
           rdf:resource="http://purl.org/dc/dcmitype/StillImage" />
      </cc:Work>
    </rdf:RDF>
  </metadata>
  <defs
     id="defs6" />
  <sodipodi:namedview
     pagecolor="#808080"
     bordercolor="#666666"
     borderopacity="1"
     objecttolerance="10"
     gridtolerance="10"
     guidetolerance="10"
     inkscape:pageopacity="0"
     inkscape:pageshadow="2"
     inkscape:window-width="1993"
     inkscape:window-height="1009"
     id="namedview4"
     showgrid="false"
     inkscape:zoom="0.5"
     inkscape:cx="793"
     inkscape:cy="368"
     inkscape:window-x="-8"
     inkscape:window-y="-8"
     inkscape:window-maximized="1"
     inkscape:current-layer="MATERIAL_INDEX"
     inkscape:showpageshadow="0"
     inkscape:pagecheckerboard="true"
     inkscape:deskcolor="#d1d1d1" />
  <g
     id="MATERIAL_INDEX"
     transform="matrix(100,0,0,100,0,4.9999997e-5)"
     style="stroke-width:0.0114286">
    <path
       style="fill:none;stroke-width:0.000357143"
       d="M 0,8 V 0 h 8 8 v 8 8 H 8 0 Z m 15.269218,7.419944 c 0.04746,-0.03544 0.115289,-0.103265 0.150726,-0.150729 l 0.06443,-0.0863 V 9 2.8170832 L 15.419944,2.730785 C 15.384507,2.683321 15.316711,2.6154929 15.269286,2.5800559 15.188008,2.5193234 15.13491,2.515095 14.344257,2.5063922 l -0.838803,-0.00923 -0.01054,-0.3401501 C 13.483528,1.7895325 13.456239,1.7197512 13.269286,1.5800559 13.188008,1.5193234 13.13491,1.515095 12.344257,1.5063922 l -0.838803,-0.00923 -0.01054,-0.3401501 c -0.01139,-0.36751605 -0.0387,-0.43733949 -0.2257,-0.57695339 L 11.182917,0.515625 H 6 0.81708316 L 0.73078496,0.5800559 C 0.68332096,0.6154929 0.61549286,0.68332096 0.5800559,0.73078496 L 0.515625,0.81708316 V 7 13.182917 l 0.0644309,0.0863 c 0.035437,0.04746 0.10323315,0.115292 0.15065818,0.150729 0.0812777,0.06073 0.13437585,0.06496 0.92502942,0.07366 l 0.8388022,0.0092 0.01054,0.34015 c 0.011386,0.367477 0.038676,0.437258 0.2256288,0.576953 0.081296,0.06075 0.1343582,0.06496 0.9277565,0.07368 L 4.5,14.502869 v 0.293406 c 0,0.315307 0.027693,0.426915 0.1348941,0.543647 0.1528718,0.166462 -0.1338466,0.158437 5.4018799,0.15119 5.14363,-0.0067 5.146192,-0.0068 5.232444,-0.07117 z"
       id="path829"
       inkscape:connector-curvature="0" />
    <path
       style="fill:#fefefe;stroke-width:0.000357143"
       d="m 5,14.750343 v -0.249656 l 4.0914634,-0.0082 c 4.0772836,-0.0081 4.0917626,-0.0084 4.1777566,-0.07259 0.04746,-0.03544 0.115287,-0.103264 0.150724,-0.150726 l 0.06443,-0.08629 0.0081,-5.5914617 L 13.500508,3 H 14.250254 15 v 6 6 H 10 5 Z m -2,-1 v -0.249656 l 4.0914634,-0.0082 c 4.0772836,-0.0081 4.0917626,-0.0084 4.1777566,-0.07259 0.04746,-0.03544 0.115287,-0.103264 0.150724,-0.150726 l 0.06443,-0.08629 0.0081,-5.5914618 L 11.500508,2 H 12.250254 13 v 6 6 H 8 3 Z M 1,7 V 1 h 5 5 v 6 6 H 6 1 Z M 6.7383262,9.9093609 C 7.0516572,9.8479672 7.5073719,9.70032 7.734375,9.58665 8.3603541,9.2731972 8.9967166,8.7119869 9.3374319,8.1729091 9.7598609,7.5045438 9.9799172,6.7603059 9.9799172,6 9.9799172,4.8127372 9.4347847,3.6627231 8.5253456,2.9314283 8.0860878,2.5782139 7.7929456,2.4137066 7.2957687,2.2414067 6.1739956,1.8526491 4.9884897,1.9751106 3.953125,2.5866982 3.4971781,2.8560251 2.9345163,3.3968159 2.6625683,3.8270909 2.240139,4.4954562 2.0200829,5.2396941 2.0200829,6 c 0,1.1872628 0.5451323,2.3372769 1.4545715,3.0685719 0.6708994,0.5394809 1.2372922,0.7715187 2.2284706,0.9129515 0.1813766,0.025881 0.7300087,-0.012364 1.0352012,-0.072163 z"
       id="path827"
       inkscape:connector-curvature="0" />
    <path
       style="fill:#feedcb;stroke-width:0.000357143"
       d="M 2.0153111,5.7734375 C 2.0646104,5.2576319 2.2296297,4.6325222 2.4133498,4.265625 2.7268028,3.6396459 3.2880131,3.0032833 3.8270909,2.6625683 4.4028703,2.2986565 5.0457728,2.0848594 5.7734375,2.0153111 L 6,1.9936568 V 3.9968284 6 H 3.9968284 1.9936568 Z"
       id="path825"
       inkscape:connector-curvature="0" />
    <path
       style="fill:#fecb65;stroke-width:0.000357143"
       d="M 6,8.0031716 V 6 H 8.0031716 10.006343 L 9.9846891,6.2265625 C 9.8720719,7.4048413 9.3640822,8.39413 8.5253456,9.0685719 7.8400219,9.6196516 7.1440978,9.8969931 6.2265625,9.9846891 L 6,10.006343 Z"
       id="path823"
       inkscape:connector-curvature="0" />
    <path
       style="fill:#983232;stroke-width:0.000357143"
       d="M 5.703125,9.9793906 C 5.2033594,9.9194469 4.6004191,9.7548913 4.2667313,9.5873678 3.6377822,9.2716116 3.0035123,8.7123491 2.6625683,8.1729091 2.2986565,7.5971297 2.0848594,6.9542272 2.0153111,6.2265625 L 1.9936568,6 H 3.9968284 6 V 3.9968284 1.9936568 l 0.2265625,0.021654 C 6.7423681,2.0646098 7.3674778,2.2296294 7.734375,2.4133495 8.3603541,2.7268025 8.9967166,3.2880128 9.3374319,3.8270906 9.7013434,4.40287 9.9151406,5.0457725 9.9846891,5.7734372 L 10.006343,6 H 8.0031716 6 v 2 2 L 5.8984375,9.99532 C 5.8425785,9.99274 5.7546875,9.98558 5.703125,9.979393 Z"
       id="path821"
       inkscape:connector-curvature="0" />
    <path
       style="fill:#323232;stroke-width:0.000357143"
       d="M 4.796875,15.456034 C 4.5712825,15.355413 4.5,15.196998 4.5,14.796275 v -0.293406 l -0.8415294,-0.0092 C 2.8650723,14.484904 2.8120097,14.48069 2.7307141,14.419944 2.543761,14.280249 2.5164717,14.210468 2.5050853,13.842991 l -0.01054,-0.34015 -0.8388022,-0.0092 c -0.79065356,-0.0087 -0.84375169,-0.01293 -0.92502941,-0.07366 -0.047425,-0.03544 -0.11522121,-0.103265 -0.15065818,-0.150729 L 0.515625,13.182917 V 7 0.81708316 L 0.5800559,0.73078496 C 0.6154929,0.68332096 0.68332096,0.61549286 0.73078496,0.5800559 L 0.81708316,0.515625 H 6 11.182917 l 0.0863,0.0644309 c 0.186998,0.1396139 0.214312,0.20943734 0.2257,0.5769534 l 0.01054,0.3401501 0.838803,0.00923 c 0.790653,0.0087 0.843751,0.012931 0.925029,0.073664 0.186953,0.1396953 0.214242,0.2094766 0.225629,0.5769534 l 0.01054,0.3401501 0.838803,0.00923 c 0.790653,0.0087 0.843751,0.012931 0.925029,0.073664 0.04743,0.035437 0.115221,0.1032651 0.150658,0.1507291 l 0.06443,0.086298 V 9 15.182917 l -0.06443,0.0863 c -0.03544,0.04746 -0.103263,0.115292 -0.150726,0.150729 -0.08625,0.0644 -0.08881,0.06443 -5.232444,0.07117 -4.2411181,0.0056 -5.1626365,-6.16e-4 -5.239899,-0.03508 z M 15,9 V 3 h -0.749746 -0.749746 l -0.0081,5.5914613 -0.0081,5.5914617 -0.06443,0.08629 c -0.03544,0.04746 -0.103263,0.115289 -0.150724,0.150726 -0.08599,0.06421 -0.100473,0.06446 -4.1777566,0.07259 L 5,14.500687 V 14.750343 15 h 5 5 z M 13,8 V 2 h -0.749746 -0.749746 l -0.0081,5.5914612 -0.0081,5.5914618 -0.06443,0.08629 c -0.03544,0.04746 -0.103263,0.115289 -0.150724,0.150726 -0.08599,0.06421 -0.100473,0.06446 -4.1777566,0.07259 L 3,13.500687 V 13.750343 14 h 5 5 z M 11,7 V 1 H 6 1 v 6 6 h 5 5 z"
       id="path819"
       inkscape:connector-curvature="0" />
  </g>
</svg>
