<?xml version="1.0" encoding="UTF-8" standalone="no"?>
<!-- Created with Inkscape (http://www.inkscape.org/) -->

<svg
   version="1.1"
   id="svg11573"
   width="1600"
   height="1600"
   viewBox="0 0 1600 1600"
   sodipodi:docname="matrix_svd.svg"
   inkscape:version="1.4.3 (0d15f75, 2025-12-25)"
   xml:space="preserve"
   xmlns:inkscape="http://www.inkscape.org/namespaces/inkscape"
   xmlns:sodipodi="http://sodipodi.sourceforge.net/DTD/sodipodi-0.dtd"
   xmlns="http://www.w3.org/2000/svg"
   xmlns:svg="http://www.w3.org/2000/svg"><defs
     id="defs11577" /><sodipodi:namedview
     id="namedview11575"
     pagecolor="#ffffff"
     bordercolor="#000000"
     borderopacity="0.25"
     inkscape:showpageshadow="2"
     inkscape:pageopacity="0.0"
     inkscape:pagecheckerboard="true"
     inkscape:deskcolor="#d1d1d1"
     showgrid="true"
     inkscape:zoom="0.25"
     inkscape:cx="690"
     inkscape:cy="840"
     inkscape:window-width="1920"
     inkscape:window-height="1009"
     inkscape:window-x="-8"
     inkscape:window-y="-8"
     inkscape:window-maximized="1"
     inkscape:current-layer="TRANSPOSE_MATRIX"><inkscape:grid
       id="grid1"
       units="px"
       originx="0"
       originy="0"
       spacingx="100"
       spacingy="100"
       empcolor="#0099e5"
       empopacity="0.30196078"
       color="#0099e5"
       opacity="0.14901961"
       empspacing="5"
       enabled="true"
       visible="true" /></sodipodi:namedview><g
     inkscape:groupmode="layer"
     inkscape:label="Image"
     id="g11579"
     transform="translate(0,1584)"><g
       id="MULTIPLY_MATRIX"
       transform="matrix(100,0,0,100,0,-1584)"><path
         style="fill:#ffffff;stroke-width:0.03125;fill-opacity:0"
         d="M 0,8 V 0 h 8 8 v 8 8 H 8 0 Z m 4,6.5 V 14 H 3 2 V 8 2 H 3 4 V 1.5 1 H 2.5 1 v 7 7 H 2.5 4 Z M 15,8 V 1 H 13.5 12 V 1.5 2 h 1 1 v 6 6 h -1 -1 v 0.5 0.5 h 1.5 1.5 z m -9.46875,3.814784 c 0.095955,-0.04815 0.5129216,-0.441899 1.3126562,-1.239556 L 8.0159378,9.4062416 9.1564063,10.549041 c 0.8014743,0.803112 1.1869127,1.167613 1.2967187,1.226279 0.136102,0.07271 0.192517,0.08348 0.4375,0.08348 0.244286,0 0.301786,-0.0109 0.4375,-0.08295 0.187275,-0.09942 0.357391,-0.271749 0.4574,-0.46335 0.0612,-0.117253 0.07339,-0.187369 0.07334,-0.421875 -6.2e-5,-0.244912 -0.01085,-0.301437 -0.08354,-0.4375 -0.05867,-0.109806 -0.423167,-0.4952444 -1.226279,-1.2967187 L 9.4062416,8.0159378 10.575228,6.8439062 C 11.344866,6.0722631 11.769146,5.623835 11.817195,5.53125 c 0.06065,-0.1168691 0.07298,-0.1881369 0.07298,-0.421875 0,-0.2344275 -0.01222,-0.3046612 -0.0734,-0.421875 -0.100009,-0.1916006 -0.270125,-0.3639297 -0.4574,-0.4633497 -0.135714,-0.072048 -0.193214,-0.08295 -0.4375,-0.08295 -0.244984,0 -0.301397,0.010764 -0.4375,0.08348 C 10.374449,4.2834113 9.9853759,4.6516 9.1720294,5.4665841 L 8.0159337,6.6250081 6.8282794,5.4403966 C 6.0454116,4.6595344 5.5926959,4.2309109 5.5,4.1828041 5.3831316,4.1221522 5.3118619,4.1098231 5.078125,4.1098231 c -0.2344275,0 -0.3046612,0.01222 -0.421875,0.073402 -0.1916006,0.1000091 -0.3639297,0.2701253 -0.4633497,0.4574 -0.072027,0.1356747 -0.082958,0.1932856 -0.083013,0.4375 -6.25e-5,0.2338166 0.012245,0.3049666 0.072917,0.421875 0.048107,0.092696 0.4767303,0.5454116 1.2575925,1.3282794 L 6.6250081,8.0159338 5.4665847,9.1720294 C 4.6516006,9.9853759 4.2834119,10.374449 4.2246809,10.484375 c -0.072695,0.136063 -0.083489,0.192587 -0.083544,0.4375 -6.25e-5,0.234506 0.012136,0.304622 0.073338,0.421875 0.1316769,0.252271 0.3602913,0.446676 0.629275,0.535113 0.146845,0.04828 0.5358547,0.01202 0.6875,-0.06408 z"
         id="path12067" /><g
         id="TRANSPOSE_MATRIX"><path
           style="fill:#ffffff;fill-opacity:0;stroke-width:0.03125"
           d="M 0,8 V 0 h 8 8 v 8 8 H 8 0 Z m 15,5.5 V 12 H 14.5 14 v 1 1 H 10 6 V 13 12 H 5.5 5 v 1.5 1.5 h 5 5 z M 9,12 V 11 H 8 7 v 1 1 h 1 1 z m 4,0 v -1 h -1 -1 v 1 1 h 1 1 z M 4,10.5 V 10 H 3 2 V 6 2 H 3 4 V 1.5 1 H 2.5 1 v 5 5 H 2.5 4 Z M 5,8 V 7 H 4 3 V 8 9 H 4 5 Z M 9,8 V 7 H 8 7 v 1 1 h 1 1 z m 4,0 V 7 h -1 -1 v 1 1 h 1 1 z M 5,4 V 3 H 4 3 V 4 5 H 4 5 Z M 9,4 V 3 H 8 7 v 1 1 h 1 1 z"
           id="path15042" /><path
           id="path15040-0"
           style="fill:#fefefe;stroke:#000000;stroke-width:0.5;stroke-dasharray:none;stroke-opacity:1;paint-order:fill markers stroke"
           d="M 1,10 V 9 h 1 1 v 1 1 H 2 1 Z M 9,2 V 1 h 1 1 V 2 3 H 10 9 Z M 1,6 V 5 H 2 3 V 6 7 H 2 1 Z M 1,2 V 1 H 2 3 V 2 3 H 2 1 Z M 5,2 V 1 H 6 7 V 2 3 H 6 5 Z M 9,6 V 5 h 1 1 V 6 7 H 10 9 Z M 5,6 V 5 H 6 7 V 6 7 H 6 5 Z m 4,4 V 9 h 1 1 v 1 1 H 10 9 Z M 5,10 V 9 h 1 1 v 1 1 H 6 5 Z"
           sodipodi:nodetypes="ccccccccccccccccccccccccccccccccccccccccccccccccccccccccccccccccccccccccccccccccc" /><path
           id="path15040-0-8"
           style="fill:#fefefe;stroke:none;stroke-width:0.5;stroke-dasharray:none;stroke-opacity:1;paint-order:fill markers stroke"
           d="M 1,10 V 9 h 1 1 v 1 1 H 2 1 Z M 9,2 V 1 h 1 1 V 2 3 H 10 9 Z M 1,6 V 5 H 2 3 V 6 7 H 2 1 Z M 1,2 V 1 H 2 3 V 2 3 H 2 1 Z M 5,2 V 1 H 6 7 V 2 3 H 6 5 Z M 9,6 V 5 h 1 1 V 6 7 H 10 9 Z M 5,6 V 5 H 6 7 V 6 7 H 6 5 Z m 4,4 V 9 h 1 1 v 1 1 H 10 9 Z M 5,10 V 9 h 1 1 v 1 1 H 6 5 Z"
           sodipodi:nodetypes="ccccccccccccccccccccccccccccccccccccccccccccccccccccccccccccccccccccccccccccccccc" /><g
           id="EMPTY_SINGLE_ARROW"
           style="stroke-width:0.0114286"
           transform="rotate(135,8.5857864,9.4142136)"><path
             style="fill:none;stroke-width:0.0114286"
             d="M 0,8 V 0 h 8 8 v 8 8 H 8 0 Z m 9.2307494,2.711996 c 0.1855553,-0.05482 0.4327172,-0.310063 0.4862953,-0.502187 0.033951,-0.121742 0.0374,-0.5314887 0.018543,-2.2025493 L 9.7124203,5.9542766 9.8644797,6.0965103 c 0.3273923,0.3062372 0.6277013,0.4184472 1.1198953,0.4184472 0.51498,0 0.798064,-0.1125425 1.163856,-0.4627009 0.228215,-0.21846 0.356467,-0.4075085 0.45057,-0.6641544 0.05556,-0.1515144 0.06783,-0.2528153 0.06783,-0.5599772 0,-0.4151038 -0.05106,-0.6139428 -0.228071,-0.8881022 C 12.303521,3.7308747 9.0153809,0.46238112 8.84375,0.36669641 8.5756306,0.21721922 8.3850712,0.17254254 8.015625,0.17254254 c -0.3694491,0 -0.5600125,0.0446781 -0.828125,0.19415633 -0.1716263,0.095685 -3.4285672,3.33299203 -3.5635562,3.54207393 -0.1770072,0.2741628 -0.2280697,0.473 -0.2280697,0.8881022 0,0.3071619 0.012269,0.4084628 0.067825,0.5599772 0.094103,0.2566459 0.2223557,0.4456944 0.45057,0.6641544 0.3657925,0.3501584 0.6488766,0.4627009 1.1638563,0.4627009 0.4821087,0 0.7872647,-0.1107856 1.1005291,-0.3995425 L 6.3143762,5.9590603 6.2979894,6.8779678 c -0.049408,2.7705972 -0.05097,3.2001632 -0.012148,3.3407822 0.047117,0.170666 0.3010932,0.438997 0.4641588,0.490395 0.1603781,0.05055 2.3109428,0.05302 2.4807494,0.0029 z"
             id="path4150"
             inkscape:connector-curvature="0" /><path
             style="fill:#191919;stroke-width:1.5;stroke:#000000;stroke-opacity:1;fill-opacity:1;stroke-dasharray:none"
             d="M 7.0624984,5.6871388 V 4.1333328 L 6.3359359,4.8573822 c -0.8250175,0.8221641 -0.8838662,0.8623731 -1.262475,0.8625969 -0.52686,3.125e-4 -0.927365,-0.4022638 -0.927365,-0.9321594 0,-0.4023588 -0.040007,-0.3531572 1.7224206,-2.1182872 1.7768994,-1.77962463 1.7424278,-1.75150453 2.1471069,-1.75150453 0.4049556,0 0.3686981,-0.029626 2.1627346,1.76713103 1.782343,1.7850451 1.737933,1.7304057 1.738174,2.1385732 3.13e-4,0.52686 -0.402263,0.927365 -0.932159,0.927365 -0.374175,0 -0.433298,-0.040769 -1.2734371,-0.8780963 L 8.9687484,4.1332975 V 5.687121 7.2409447 H 8.0156234 7.0624984 Z M 8.4756253,5.3525772 C 8.4841053,4.0061538 8.4863203,3.9616038 8.5488043,3.8779456 8.6900921,3.6887806 8.8764975,3.6175503 9.1154397,3.66142 c 0.1022406,0.018771 0.2220084,0.1239409 0.8533087,0.7493016 0.4039056,0.4001059 0.7691446,0.7505856 0.8116406,0.778844 0.103486,0.068814 0.307788,0.064942 0.418318,-0.00793 C 11.422396,5.0341606 11.471505,4.775611 11.315652,4.565946 11.207913,4.4210072 8.3313756,1.553409 8.2196075,1.4795227 8.1203834,1.4139286 7.9108628,1.4139289 7.8116393,1.4795233 7.6998593,1.5534182 4.854569,4.3897747 4.7468437,4.5346959 4.5909912,4.7443613 4.6401006,5.0029109 4.863789,5.1503856 4.9743234,5.2232597 5.1786262,5.2271294 5.2821075,5.1583088 5.3246037,5.1300466 5.6828109,4.7866025 6.0781234,4.3951 6.6952415,3.7839291 6.8136906,3.6801878 6.9158071,3.6614303 c 0.2389244,-0.043887 0.4253438,0.027345 0.5666354,0.2165153 0.062484,0.083658 0.064695,0.1282082 0.073179,1.4746316 l 0.00875,1.3883675 H 8.0156253 8.466879 l 0.00875,-1.3883675 z"
             id="path4146-9"
             inkscape:connector-curvature="0" /><path
             style="fill:#fcedb9;stroke-width:0.0114286"
             d="M 7.5556231,5.3616325 C 7.5471394,4.0152091 7.5449284,3.9706591 7.4824441,3.8870009 7.3411525,3.6978306 7.1547331,3.6265984 6.9158087,3.6704856 6.8136922,3.6892431 6.6952431,3.7929844 6.078125,4.4041553 5.6828125,4.7956578 5.3246053,5.1391019 5.2821091,5.1673641 5.1786278,5.2361847 4.974325,5.232315 4.8637906,5.1594409 4.6401022,5.0119663 4.5909928,4.7534166 4.7468453,4.5437513 4.8545706,4.39883 7.6998609,1.5624735 7.8116409,1.4885786 c 0.099223,-0.065594 0.3087441,-0.065595 0.4079682,-6e-7 0.1117681,0.073886 2.9883059,2.9414845 3.0960449,3.0864233 0.155853,0.209665 0.106744,0.4682146 -0.116945,0.6156896 -0.11053,0.072872 -0.314832,0.076744 -0.418318,0.00793 C 10.737895,5.1703625 10.372656,4.8198828 9.96875,4.4197769 9.3374497,3.7944163 9.2176819,3.6892466 9.1154413,3.6704753 8.8764991,3.6266056 8.6900937,3.6978359 8.5488059,3.8870009 8.4863216,3.9706591 8.4841106,4.0152091 8.4756269,5.3616325 L 8.4668787,6.75 H 8.015625 7.5643712 l -0.00875,-1.3883675 z"
             id="path4148"
             inkscape:connector-curvature="0" /><path
             style="fill:#f8a954;stroke-width:0.0114286"
             d="M 7.0625,5.6961941 V 4.1423881 L 6.3359375,4.8664375 C 5.51092,5.6886016 5.4520713,5.7288106 5.0734625,5.7290344 4.5466025,5.7293469 4.1460975,5.3267706 4.1460975,4.796875 c 0,-0.4023588 -0.040007,-0.3531572 1.7224206,-2.1182872 1.7768994,-1.77962461 1.7424278,-1.75150446 2.1471069,-1.75150446 0.4049556,0 0.3686981,-0.0296255 2.162735,1.76713096 1.782343,1.7850451 1.737933,1.7304057 1.738174,2.1385732 3.13e-4,0.52686 -0.402263,0.927365 -0.932159,0.927365 -0.374175,0 -0.433298,-0.040769 -1.2734375,-0.8780963 L 8.96875,4.1423528 V 5.6961763 7.25 H 8.015625 7.0625 Z M 8.4756269,5.3616325 c 0.00848,-1.3464234 0.010695,-1.3909734 0.073179,-1.4746316 0.1412878,-0.189165 0.3276932,-0.2603953 0.5666354,-0.2165256 0.1022406,0.018771 0.2220084,0.1239409 0.8533087,0.7493016 0.403906,0.4001059 0.769145,0.7505856 0.811641,0.778844 0.103486,0.068814 0.307788,0.064942 0.418318,-0.00793 0.223689,-0.147475 0.272798,-0.4060246 0.116945,-0.6156896 C 11.207915,4.4300625 8.3313772,1.5624643 8.2196091,1.488578 8.120385,1.4229839 7.9108644,1.4229842 7.8116409,1.4885786 7.6998609,1.5624735 4.8545706,4.39883 4.7468453,4.5437512 4.5909928,4.7534166 4.6401022,5.0119662 4.8637906,5.1594409 4.974325,5.232315 5.1786278,5.2361847 5.2821091,5.1673641 5.3246053,5.1391019 5.6828125,4.7956578 6.078125,4.4041553 6.6952431,3.7929844 6.8136922,3.6892431 6.9158087,3.6704856 c 0.2389244,-0.043887 0.4253438,0.027345 0.5666354,0.2165153 0.062484,0.083658 0.064695,0.1282082 0.073179,1.4746316 L 7.5643712,6.75 H 8.015625 8.4668787 l 0.00875,-1.3883675 z"
             id="path4146"
             inkscape:connector-curvature="0" /><path
             style="fill:#fe911c;stroke-width:0.0114286"
             d="m 6.9998078,13.657047 v -1 h 1 1 v 1 1 h -1 -1 z"
             id="path4144"
             inkscape:connector-curvature="0" /><path
             style="fill:#191919;stroke-width:0.0114286"
             d="m 6.7498078,15.366192 c -0.1533819,-0.04834 -0.4149644,-0.319213 -0.4619963,-0.478396 -0.026688,-0.09033 -0.038004,-0.456773 -0.038004,-1.230749 0,-0.773977 0.011315,-1.140421 0.038004,-1.23075 0.050716,-0.171651 0.3095957,-0.430531 0.4812469,-0.481247 0.1804925,-0.05333 2.2810063,-0.05333 2.4614988,0 0.1716512,0.05072 0.4305309,0.309596 0.4812469,0.481247 0.053328,0.180493 0.053328,2.281007 0,2.461499 -0.050716,0.171652 -0.3095957,0.430531 -0.4812469,0.481247 -0.1698066,0.05017 -2.3203713,0.0477 -2.4807494,-0.0028 z m 2.25,-1.709145 v -1 h -1 -1 v 1 1 h 1 1 z"
             id="path4142"
             inkscape:connector-curvature="0" /></g></g></g></g></svg>
