<?xml version="1.0" encoding="UTF-8" standalone="no"?>
<!-- Created with Inkscape (http://www.inkscape.org/) -->

<svg
   version="1.1"
   id="svg2"
   width="1600"
   height="1600"
   viewBox="0 0 1600 1600"
   sodipodi:docname="matshaderball.svg"
   inkscape:version="1.2.2 (732a01da63, 2022-12-09)"
   xmlns:inkscape="http://www.inkscape.org/namespaces/inkscape"
   xmlns:sodipodi="http://sodipodi.sourceforge.net/DTD/sodipodi-0.dtd"
   xmlns="http://www.w3.org/2000/svg"
   xmlns:svg="http://www.w3.org/2000/svg"
   xmlns:rdf="http://www.w3.org/1999/02/22-rdf-syntax-ns#"
   xmlns:cc="http://creativecommons.org/ns#"
   xmlns:dc="http://purl.org/dc/elements/1.1/">
  <metadata
     id="metadata8">
    <rdf:RDF>
      <cc:Work
         rdf:about="">
        <dc:format>image/svg+xml</dc:format>
        <dc:type
           rdf:resource="http://purl.org/dc/dcmitype/StillImage" />
      </cc:Work>
    </rdf:RDF>
  </metadata>
  <defs
     id="defs6" />
  <sodipodi:namedview
     pagecolor="#808080"
     bordercolor="#666666"
     borderopacity="1"
     objecttolerance="10"
     gridtolerance="10"
     guidetolerance="10"
     inkscape:pageopacity="0"
     inkscape:pageshadow="2"
     inkscape:window-width="1993"
     inkscape:window-height="1009"
     id="namedview4"
     showgrid="false"
     inkscape:zoom="0.5"
     inkscape:cx="343"
     inkscape:cy="242"
     inkscape:window-x="-8"
     inkscape:window-y="-8"
     inkscape:window-maximized="1"
     inkscape:current-layer="MATSHADERBALL"
     inkscape:showpageshadow="0"
     inkscape:pagecheckerboard="true"
     inkscape:deskcolor="#d1d1d1" />
  <g
     id="MATSHADERBALL"
     transform="matrix(100,0,0,100,0,4.9999997e-5)"
     style="stroke-width:0.0114286">
    <path
       style="fill:none;stroke-width:0.000357143"
       d="M 0,8 V 0 h 8 8 v 8 8 H 8 0 Z m 15.0625,6.523615 V 13.98473 l -1.007632,-1.00799 -1.007632,-1.00799 h -0.838042 -0.838041 l 0.253811,-0.191252 C 13.653253,10.249136 14.492978,7.5563216 13.698295,5.1287797 12.671797,1.9931064 9.2702406,0.27331235 6.1287797,1.3017052 5.0858312,1.6431262 4.1160447,2.2994665 3.4116531,3.140625 2.507099,4.22081 2.0005128,5.6062897 2.0005128,7 c 0,1.8581022 0.8980337,3.66493 2.3745234,4.777498 L 4.6288466,11.96875 H 3.8067884 2.9847302 L 1.9767401,12.976382 0.96875,13.984014 V 14.523257 15.0625 H 8.015625 15.0625 Z"
       id="path831"
       inkscape:connector-curvature="0" />
    <path
       style="fill:#fefefe;stroke-width:0.000357143"
       d="M 3.4634072,9.01174 C 3.1334566,8.2826597 2.9583982,7.3351222 3.030289,6.6674047 3.1541559,5.5169375 3.5100216,4.6611959 4.2395684,3.7594819 4.5903381,3.3259331 5.2171991,2.8444233 5.8307628,2.5372402 6.57704,2.1636134 7.6165694,1.953197 8.3343447,2.0304774 8.9767216,2.0996398 9.5148134,2.2385195 10.01174,2.4634071 l 0.246115,0.1113811 -0.4031528,0.084888 C 8.0946669,3.0302676 6.5755119,3.935915 5.3860525,5.3236706 4.5343591,6.3173506 3.9364319,7.5403166 3.6596756,8.8547022 L 3.5747881,9.257855 Z"
       id="path829"
       inkscape:connector-curvature="0" />
    <path
       style="fill:#aefe7f;stroke-width:0.000357143"
       d="M 7.5826353,9.4500422 C 7.1222766,9.3668756 6.6250441,9.11543 6.2768137,8.7897016 5.930775,8.4660225 5.6370444,7.9026837 5.5479637,7.3918569 c -0.059863,-0.3432782 -0.059863,-0.4404357 0,-0.7837138 C 5.6099337,6.2527803 5.7434078,5.9232119 5.952825,5.6084772 6.3245103,5.0498687 6.9208369,4.6678197 7.6081431,4.5479637 c 0.3432781,-0.059863 0.4404356,-0.059863 0.7837138,0 0.3553628,0.06197 0.6849312,0.1954441 0.9996659,0.4048613 0.5586084,0.3716853 0.9406572,0.9680119 1.0605132,1.6553181 0.05986,0.3432781 0.05986,0.4404356 0,0.7837138 -0.06197,0.3553628 -0.195444,0.6849312 -0.404861,0.9996659 C 9.6754897,8.9501313 9.0791631,9.3321803 8.3918569,9.4520362 8.0633,9.5093319 7.9087172,9.5089509 7.5826353,9.4500425 Z M 8.3580766,8.4521503 C 8.8970516,8.311765 9.3122331,7.8952541 9.4533853,7.3533344 9.6557938,6.5762359 9.1583753,5.7563012 8.3580766,5.5478497 7.5760953,5.3441694 6.7569144,5.83927 6.5478497,6.6419234 6.2693225,7.7112622 7.2887378,8.7306775 8.3580766,8.4521503 Z"
       id="path827"
       inkscape:connector-curvature="0" />
    <path
       style="fill:#75b6fe;stroke-width:0.000357143"
       d="M 7.46875,12.464919 C 6.3297688,12.33384 5.3141841,11.89531 4.4147869,11.146215 3.5520684,10.427669 2.8627478,9.2464466 2.6243557,8.078125 c -0.1530779,-0.75021 -0.1530779,-1.40604 0,-2.15625 C 2.8627478,4.7535534 3.5520684,3.5723309 4.4147869,2.8537851 5.3611575,2.0655665 6.3844078,1.6408127 7.6171875,1.5244605 c 1.0881962,-0.1027062 2.3829165,0.2389044 3.3777965,0.891228 0.661954,0.4340304 1.109282,0.8771349 1.552092,1.5374365 0.535414,0.7983903 0.832956,1.6521325 0.928464,2.6640625 0.105123,1.1138103 -0.246537,2.4128234 -0.928464,3.4296875 -0.44281,0.660302 -0.890138,1.103406 -1.552092,1.537437 -1.0396093,0.681651 -2.3693984,1.01374 -3.526234,0.880607 z M 8.359375,11.96806 c 1.1308922,-0.126367 1.989558,-0.486276 2.881143,-1.207628 0.433549,-0.35077 0.915059,-0.9776311 1.222242,-1.5911948 C 12.836387,8.42296 13.046803,7.3834306 12.969523,6.6656553 12.90036,6.0232784 12.761481,5.4851866 12.536593,4.98826 L 12.425212,4.742145 12.340324,5.1452978 C 11.969732,6.9053331 11.064085,8.4244881 9.6763294,9.6139475 8.6827813,10.465528 7.4596597,11.063573 6.1457331,11.340233 l -0.4027172,0.08479 0.2184125,0.100673 c 0.4603666,0.212197 1.058761,0.37321 1.6323216,0.439218 0.3323472,0.03825 0.4472297,0.03872 0.765625,0.0031 z M 8.7233256,9.9107441 C 9.8243259,9.62147 10.649577,8.7817472 10.927823,7.6675878 c 0.07422,-0.2972056 0.07422,-1.03797 0,-1.3351756 C 10.649708,5.2187763 9.8387634,4.3925819 8.7233256,4.0864594 c -0.3439365,-0.094391 -1.1027147,-0.094391 -1.4466512,0 -1.1154378,0.3061225 -1.9263825,1.1323169 -2.2044978,2.2459528 -0.074223,0.2972056 -0.074223,1.03797 0,1.3351756 0.2968793,1.1887713 1.2139043,2.0604803 2.4072475,2.288291 0.3099237,0.059164 0.9329737,0.036557 1.2439015,-0.045135 z M 3.8762456,8.0460875 C 4.2175737,6.9951063 4.7017616,6.1220403 5.3860525,5.3236706 6.5755119,3.935915 8.0946669,3.0302676 9.8547022,2.6596757 L 10.257855,2.5747882 10.01174,2.4634071 C 9.5148134,2.2385195 8.9767216,2.0996398 8.3343447,2.0304774 7.6165694,1.953197 6.57704,2.1636134 5.8307628,2.5372402 5.2171991,2.8444233 4.5903381,3.3259331 4.2395684,3.7594819 3.5100216,4.6611959 3.1541559,5.5169375 3.030289,6.6674047 2.9583982,7.3351222 3.1334566,8.2826597 3.4634072,9.01174 L 3.5747881,9.257855 3.6596751,8.8547022 C 3.7063631,8.6329684 3.8038198,8.2690916 3.8762456,8.0460875 Z"
       id="path825"
       inkscape:connector-curvature="0" />
    <path
       style="fill:#767676;stroke-width:0.000357143"
       d="M 1.46875,14.382603 V 14.202707 L 2.3361432,13.335728 3.2035363,12.46875 h 1.1562593 1.1562591 l 0.2711769,0.10646 c 1.4358265,0.563681 2.9897103,0.563681 4.4255364,0 l 0.271177,-0.10646 h 1.172299 1.172299 l 0.866979,0.867393 0.866978,0.867393 V 14.383018 14.5625 H 8.015625 1.46875 Z"
       id="path823"
       inkscape:connector-curvature="0" />
    <path
       style="fill:#001dfe;stroke-width:0.000357143"
       d="M 7.59375,11.964919 C 7.0201894,11.898911 6.421795,11.737898 5.9614284,11.525701 L 5.7430159,11.425028 6.1457331,11.340233 C 7.4596597,11.063573 8.6827813,10.465528 9.6763294,9.6139475 11.064085,8.4244881 11.969732,6.9053331 12.340324,5.1452978 l 0.08489,-0.4031528 0.111381,0.246115 c 0.32995,0.7290803 0.505009,1.6766178 0.433118,2.3443353 -0.123867,1.1504672 -0.479733,2.0062088 -1.209279,2.9079227 -0.619951,0.766255 -1.740146,1.420272 -2.7932661,1.630828 -0.6103275,0.122026 -0.9343525,0.144102 -1.3734159,0.09357 z"
       id="path821"
       inkscape:connector-curvature="0" />
    <path
       style="fill:#000000;stroke-width:0.000357143"
       d="M 0.96875,14.523257 V 13.984014 L 1.9767401,12.976382 2.9847302,11.96875 H 3.8067884 4.6288466 L 4.3750362,11.777498 C 2.3467471,10.249136 1.5070219,7.5563216 2.3017053,5.1287797 3.3282034,1.9931064 6.7297594,0.27331235 9.8712203,1.3017052 10.914169,1.6431262 11.883955,2.2994665 12.588347,3.140625 13.492901,4.22081 13.999487,5.6062897 13.999487,7 c 0,1.8581022 -0.898034,3.66493 -2.374523,4.777498 l -0.253811,0.191252 h 0.838041 0.838042 l 1.007632,1.00799 1.007632,1.00799 V 14.523615 15.0625 H 8.015625 0.96875 Z M 14.5625,14.383018 V 14.203536 L 13.695522,13.336143 12.828543,12.46875 h -1.172299 -1.172299 l -0.271177,0.10646 c -1.4358261,0.563681 -2.9897099,0.563681 -4.4255364,0 L 5.5160547,12.46875 H 4.3597956 3.2035362 L 2.3361432,13.335728 1.46875,14.202707 V 14.382603 14.5625 H 8.015625 14.5625 Z M 8.484375,12.46806 c 1.1840394,-0.132306 2.184866,-0.558945 3.100838,-1.321845 0.862719,-0.718546 1.552039,-1.8997684 1.790431,-3.06809 0.153078,-0.75021 0.153078,-1.40604 0,-2.15625 C 13.137252,4.7535534 12.447932,3.5723309 11.585213,2.8537851 10.638843,2.0655665 9.6155922,1.6408127 8.3828125,1.5244605 7.2946162,1.4217543 5.9998956,1.7633649 5.0050156,2.4156885 4.3430619,2.8497189 3.8957338,3.2928234 3.4529241,3.953125 2.9175097,4.7515153 2.6199685,5.6052575 2.5244605,6.6171875 c -0.1051237,1.1138103 0.246537,2.4128234 0.9284636,3.4296875 0.4428097,0.660302 0.8901378,1.103406 1.5520915,1.537437 1.0288097,0.67457 2.3494397,1.010007 3.4793594,0.883748 z M 7.4794241,9.9558788 C 6.8391219,9.8336441 6.2811547,9.5326834 5.8413031,9.0722959 5.46529,8.6787272 5.2067906,8.2066125 5.0721766,7.6675878 c -0.074223,-0.2972056 -0.074223,-1.03797 0,-1.3351756 0.2781153,-1.1136359 1.08906,-1.9398303 2.2044978,-2.2459528 0.3439365,-0.094391 1.1027147,-0.094391 1.4466512,0 1.1154378,0.3061225 1.9263824,1.1323169 2.2044974,2.2459528 0.07422,0.2972056 0.07422,1.03797 0,1.3351756 C 10.649577,8.7817472 9.8243259,9.62147 8.7233256,9.9107441 8.4123978,9.9924363 7.7893478,10.015043 7.4794241,9.9558788 Z M 8.3918569,9.4520363 c 0.6873062,-0.119856 1.2836328,-0.501905 1.6553181,-1.0605135 0.209417,-0.3147347 0.342891,-0.6443031 0.404861,-0.9996659 0.05986,-0.3432782 0.05986,-0.4404357 0,-0.7837138 C 10.33218,5.9208369 9.9501312,5.3245103 9.3915228,4.952825 9.0767881,4.7434078 8.7472197,4.6099337 8.3918569,4.5479637 c -0.3432781,-0.059863 -0.4404357,-0.059863 -0.7837138,0 C 6.9208369,4.6678197 6.3245103,5.0498687 5.952825,5.6084772 5.7434078,5.9232119 5.6099337,6.2527803 5.5479637,6.6081431 c -0.059863,0.3432781 -0.059863,0.4404356 0,0.7837138 0.089081,0.5108269 0.3828113,1.0741656 0.7288501,1.3978447 0.3482303,0.3257284 0.8454628,0.577174 1.3058215,0.6603406 0.3260819,0.058909 0.4806647,0.05929 0.8092216,0.00199 z M 7.6285103,8.4506078 C 6.8361416,8.2375131 6.3459466,7.4170816 6.5478497,6.6419234 6.7569144,5.83927 7.5760953,5.3441694 8.3580766,5.5478497 9.1583753,5.7563013 9.6557938,6.5762359 9.4533853,7.3533344 9.2424103,8.1633228 8.41352,8.6617234 7.6285103,8.4506078 Z"
       id="path819"
       inkscape:connector-curvature="0" />
  </g>
</svg>
