<?xml version="1.0" encoding="UTF-8" standalone="no"?>
<!-- Created with Inkscape (http://www.inkscape.org/) -->

<svg
   xmlns:dc="http://purl.org/dc/elements/1.1/"
   xmlns:cc="http://creativecommons.org/ns#"
   xmlns:rdf="http://www.w3.org/1999/02/22-rdf-syntax-ns#"
   xmlns:svg="http://www.w3.org/2000/svg"
   xmlns="http://www.w3.org/2000/svg"
   xmlns:sodipodi="http://sodipodi.sourceforge.net/DTD/sodipodi-0.dtd"
   xmlns:inkscape="http://www.inkscape.org/namespaces/inkscape"
   version="1.1"
   id="svg2"
   width="16"
   height="16"
   viewBox="0 0 16 16"
   sodipodi:docname="MAXIMIZE.svg"
   inkscape:version="0.92.4 (5da689c313, 2019-01-14)">
  <metadata
     id="metadata8">
    <rdf:RDF>
      <cc:Work
         rdf:about="">
        <dc:format>image/svg+xml</dc:format>
        <dc:type
           rdf:resource="http://purl.org/dc/dcmitype/StillImage" />
        <dc:title></dc:title>
      </cc:Work>
    </rdf:RDF>
  </metadata>
  <defs
     id="defs6" />
  <sodipodi:namedview
     pagecolor="#ffffff"
     bordercolor="#666666"
     borderopacity="1"
     objecttolerance="10"
     gridtolerance="10"
     guidetolerance="10"
     inkscape:pageopacity="0"
     inkscape:pageshadow="2"
     inkscape:window-width="1292"
     inkscape:window-height="803"
     id="namedview4"
     showgrid="false"
     inkscape:zoom="14.75"
     inkscape:cx="8"
     inkscape:cy="8"
     inkscape:window-x="0"
     inkscape:window-y="0"
     inkscape:window-maximized="0"
     inkscape:current-layer="svg2" />
  <g
     id="MAXIMIZE">
    <path
       style="fill:#ffffff;stroke-width:0.03125"
       d="M 0,8 V 0 h 8 8 v 8 8 H 8 0 Z m 7,6.484375 V 14 H 4.5 2 V 11.5 9 H 1.5 1 v 2.984375 2.984375 h 3 3 z m 8,-2.5 V 9 H 14.5 14 V 11.5 14 H 11.5 9 v 0.484375 0.484375 h 3 3 z M 6.7631019,12.973253 7.0418287,12.953125 5.0496503,10.960938 C 3.9539522,9.8652344 3.0466894,8.96875 3.0335106,8.96875 c -0.045222,0 -0.064477,0.7053644 -0.064618,2.367188 L 2.96875,13 4.7265625,12.9967 C 5.6933594,12.9949 6.6098022,12.98433 6.7631019,12.97326 Z M 13.03125,11.364281 c 0,-1.6433488 -0.02034,-2.395531 -0.06479,-2.395531 -0.01316,0 -0.920531,0.8964844 -2.016371,1.992188 l -1.9924352,1.992187 0.2477356,0.01771 c 0.1362547,0.0097 1.0528136,0.02029 2.0367986,0.02344 L 13.03125,13 Z M 5.0535591,5.0078125 7.0462997,3.015625 6.7809622,2.9952891 C 6.6350269,2.9841043 5.7175781,2.9735574 4.7421875,2.9718516 L 2.96875,2.96875 2.9688906,4.6328125 C 2.9690344,6.3132738 2.9882655,7 3.0351824,7 3.0492815,7 3.9575504,6.1035156 5.0535576,5.0078125 Z m 7.9572639,1.6122813 c 0.01123,-0.2089485 0.02043,-1.1159797 0.02043,-2.0156251 V 2.96875 l -1.773437,0.0031 C 10.282425,2.97356 9.3660183,2.984103 9.2213568,2.995287 L 8.9583325,3.015625 10.949128,5.0078125 C 12.044065,6.1035156 12.951279,7 12.965159,7 c 0.01388,0 0.03443,-0.1709578 0.04566,-0.3799062 z M 2,4.46875 v -2.5 H 4.5 7 V 1.484375 1 H 4 1 V 3.984375 6.96875 H 1.5 2 Z M 15,3.984375 V 1 H 12 9 V 1.484375 1.96875 h 2.5 2.5 v 2.5 2.5 h 0.5 0.5 z"
       id="path821"
       inkscape:connector-curvature="0" />
    <path
       style="fill:#fefefe;stroke-width:0.03125"
       d="M 1,11.984375 V 9 H 1.5 2 V 11.5 14 H 4.5 7 v 0.484375 0.484375 H 4 1 Z m 8,2.5 V 14 H 11.5 14 V 11.5 9 h 0.5 0.5 v 2.984375 2.984375 H 12 9 Z M 2.9688921,11.335938 c 1.406e-4,-1.6618236 0.019397,-2.367188 0.064618,-2.367188 0.013179,0 0.9204416,0.8964844 2.0161397,1.992188 l 1.9921784,1.992187 -0.2787268,0.02013 c -0.1532997,0.01107 -1.0697425,0.02162 -2.0365394,0.02344 L 2.96875,13 2.9688906,11.335938 Z m 6.2364973,1.634894 -0.2477356,-0.01771 1.9924352,-1.992187 c 1.09584,-1.0957036 2.003206,-1.992188 2.016371,-1.992188 0.04445,0 0.06479,0.7521822 0.06479,2.395531 V 13 L 11.242188,12.9943 C 10.258203,12.9911 9.3416441,12.9806 9.2053894,12.97086 Z M 2.9892918,6.6484375 C 2.9781501,6.4550781 2.9689703,5.5480469 2.9688921,4.6328125 L 2.96875,2.96875 4.7421875,2.97185 C 5.7175781,2.97356 6.6350269,2.984103 6.7809622,2.995287 L 7.0462997,3.015625 5.0535591,5.0078125 C 3.9575519,6.1035156 3.049283,7 3.0351839,7 3.0210849,7 3.0004334,6.8417969 2.9892918,6.6484375 Z M 10.949128,5.0078125 8.9583325,3.015625 9.2213538,2.9952891 C 9.3660153,2.9841043 10.282422,2.9735574 11.257813,2.9718516 L 13.03125,2.96875 V 4.6044688 C 13.03125,6.2627834 13.010911,7 12.965159,7 12.951279,7 12.044065,6.1035156 10.949128,5.0078125 Z M 1,3.984375 V 1 H 4 7 V 1.484375 1.96875 H 4.5 2 v 2.5 2.5 H 1.5 1 Z M 14,4.46875 v -2.5 H 11.5 9 V 1.484375 1 h 3 3 V 3.984375 6.96875 H 14.5 14 Z"
       id="path819"
       inkscape:connector-curvature="0" />
  </g>
</svg>
