<?xml version="1.0" encoding="UTF-8" standalone="no"?>
<!-- Created with Inkscape (http://www.inkscape.org/) -->

<svg
   version="1.1"
   id="svg2"
   width="16"
   height="16"
   viewBox="0 0 16 16"
   sodipodi:docname="MENU_SWITCH.svg"
   inkscape:version="1.2.2 (732a01da63, 2022-12-09)"
   inkscape:export-filename="MENU_SWITCH.png"
   inkscape:export-xdpi="3072"
   inkscape:export-ydpi="3072"
   xmlns:inkscape="http://www.inkscape.org/namespaces/inkscape"
   xmlns:sodipodi="http://sodipodi.sourceforge.net/DTD/sodipodi-0.dtd"
   xmlns="http://www.w3.org/2000/svg"
   xmlns:svg="http://www.w3.org/2000/svg">
  <defs
     id="defs6" />
  <sodipodi:namedview
     id="namedview4"
     pagecolor="#ffffff"
     bordercolor="#000000"
     borderopacity="0.25"
     inkscape:showpageshadow="2"
     inkscape:pageopacity="0.0"
     inkscape:pagecheckerboard="true"
     inkscape:deskcolor="#d1d1d1"
     showgrid="false"
     inkscape:zoom="45.254834"
     inkscape:cx="10.915961"
     inkscape:cy="8.3526988"
     inkscape:window-width="2560"
     inkscape:window-height="1009"
     inkscape:window-x="-8"
     inkscape:window-y="-8"
     inkscape:window-maximized="1"
     inkscape:current-layer="g8" />
  <g
     inkscape:groupmode="layer"
     inkscape:label="Image"
     id="g8">
    <g
       id="MENU_SWITCH"
       inkscape:label="MENU_SWITCH">
      <path
         style="fill:#fefefe;stroke-width:0.03125"
         d="M 4.1282697,14.950546 C 3.8800884,14.883807 3.6642775,14.756407 3.4695603,14.56169 2.9999869,14.092116 2.8967126,13.385832 3.2119659,12.800025 3.3340625,12.573144 3.6130184,12.306449 3.8505431,12.189516 4.2392437,11.998159 4.2505622,11.997624 7.70555,12.007079 l 3.122575,0.0085 0.178899,0.07226 c 0.545625,0.220394 0.912847,0.716359 0.953005,1.287112 0.05501,0.781793 -0.468282,1.437745 -1.259428,1.578721 -0.371558,0.06621 -6.3250132,0.06333 -6.5723313,-0.0032 z m 0.81532,-0.538756 c 0.1870478,-0.09173 0.3761765,-0.280727 0.468519,-0.4682 0.059301,-0.120393 0.072266,-0.197174 0.072266,-0.427965 0,-0.328552 -0.063605,-0.493752 -0.2693016,-0.699448 C 5.0093775,12.61048 4.8441772,12.546875 4.515625,12.546875 c -0.2307906,0 -0.3075722,0.01296 -0.4279647,0.07227 -0.1878519,0.09253 -0.3768053,0.281837 -0.4676419,0.468519 -0.086395,0.177554 -0.1130887,0.510738 -0.056976,0.711153 0.076076,0.271717 0.3361659,0.54893 0.6139016,0.654318 0.1843615,0.06996 0.5835884,0.04843 0.7666453,-0.04134 z"
         id="path2672"
         sodipodi:nodetypes="ccssccccscccsscscssccc" />
      <path
         style="fill:#000000;stroke:#000000;stroke-width:0.131;stroke-dasharray:none"
         d="M 4,15.451234 C 3.3202544,15.27079 2.751423,14.696774 2.5785947,14.016872 c -0.061306,-0.241177 -0.061306,-0.761317 0,-1.002494 0.1746532,-0.687081 0.7487025,-1.26113 1.4357834,-1.435783 0.1024391,-0.02604 0.2290016,-0.05028 0.28125,-0.05387 6.7043719,0.02545 1e-7,5e-6 6.7043719,0.02545 0.505614,-0.05501 1.248459,0.752588 1.421405,1.432955 0.06131,0.241177 0.06131,0.761317 0,1.002494 -0.174179,0.685217 -0.721446,1.234759 -1.43703,1.443004 -0.172482,0.05019 -0.45281,0.05511 -3.5,0.0614 -2.8203409,0.0058 -3.3380366,6e-5 -3.484375,-0.0388 z m 6.700601,-0.497513 c 0.627315,-0.111782 1.115123,-0.570783 1.238766,-1.165612 0.04874,-0.234497 0.02096,-0.60298 -0.06206,-0.823084 -0.143508,-0.380464 -0.479808,-0.719414 -0.870279,-0.877137 l -0.178899,-0.07226 -3.122575,-0.0085 c -3.4549878,-0.0095 -3.4663063,-0.0089 -3.8550069,0.182437 -0.368359,0.181343 -0.6664478,0.549303 -0.7713897,0.952202 -0.2034641,0.781151 0.2712644,1.599652 1.0491163,1.808828 0.2473181,0.06651 6.2007733,0.06938 6.5723313,0.0032 z M 4.1769444,14.453131 C 3.8992087,14.347743 3.6391184,14.07053 3.5630428,13.798813 c -0.056113,-0.200415 -0.029419,-0.533599 0.056976,-0.711153 0.090837,-0.186682 0.27979,-0.37599 0.4676419,-0.468519 0.2112097,-0.104034 0.6447197,-0.104034 0.8559294,0 0.1872581,0.09224 0.3762828,0.281261 0.468519,0.468519 0.1040341,0.21121 0.1040341,0.64472 0,0.85593 -0.092342,0.187473 -0.2814712,0.376474 -0.468519,0.4682 -0.1830569,0.08977 -0.5822838,0.111298 -0.7666453,0.04134 z"
         id="path2664"
         sodipodi:nodetypes="csssccccccccccsccccsccccssscssscc" />
      <path
         style="fill:#fefefe;stroke-width:0.03125"
         d="M 3.9676132,5.7610835 V 2.8986855 H 4.5412325 5.1148529 V 2.326206 1.7537264 H 7.4093324 9.7038119 V 2.326206 2.8986855 H 7.4093324 5.1148529 v 2.862398 2.8623972 H 4.5412325 3.9676132 Z"
         id="path851"
         inkscape:connector-curvature="0"
         sodipodi:nodetypes="ccccccccccccccccc" />
      <path
         style="fill:#cbcbcb;stroke-width:0.03125"
         d="M 4.7565312,9.8775629 C 4.5275194,9.796918 4.1448362,9.6539323 4.0239045,9.4784937 3.9088556,9.3115903 3.7696209,8.8481485 3.7696209,8.7116804 V 8.6234838 H 6.835711 9.7038109 V 8.0510046 7.4785255 H 7.4093314 5.1148518 V 6.9060459 6.3335664 H 7.4093314 9.7038109 V 5.7610867 5.1886072 H 7.4093314 5.1148518 V 4.6161275 4.0436481 H 7.4093314 9.7038109 V 2.8938222 1.5083456 l 0.1598216,0.021863 c 0.3617865,0.049493 1.3413645,0.5424331 1.5115775,0.8854477 l 0.08877,0.1788998 v 3.1665276 3.1665268 l -0.08877,0.1789 c -0.04883,0.098399 -0.153689,0.2436883 -0.233033,0.3228745 -0.07934,0.07918 -0.224924,0.3521668 -0.323517,0.4008941 l -0.179255,0.088595 -3.1762972,0.00765 c -2.2453986,0.00679 -2.5644335,0.00102 -2.7065766,-0.049027 z M 3.7653019,2.7391814 C 3.8320345,2.2532967 4.4681751,1.5527572 4.9550281,1.4861574 l 0.1598237,-0.021863 v 0.857048 0.5773427 H 4.5363581 l -0.7929632,6e-7 z"
         id="path849"
         inkscape:connector-curvature="0"
         sodipodi:nodetypes="csscccccccccccccccccccccssccccssccccsscccccs" />
      <path
         style="fill:#656565;stroke-width:0.03125"
         d="M 5.1148529,8.0510014 V 7.4785222 H 7.4093324 9.7038119 V 8.0510014 8.6234807 H 7.4093324 5.1148529 Z m 0,-2.2899179 V 5.1886039 H 7.4093324 9.7038119 V 5.7610835 6.333563 H 7.4093324 5.1148529 Z m 0,-2.2899183 V 2.8986855 H 7.4093324 9.7038119 V 3.4711652 4.0436447 H 7.4093324 5.1148529 Z"
         id="path843"
         inkscape:connector-curvature="0" />
      <rect
         style="fill:none;fill-opacity:1;stroke:#323232;stroke-width:1;stroke-dasharray:none;stroke-opacity:1"
         id="rect11824"
         width="8.0709391"
         height="9.1998549"
         x="3.393048"
         y="1.1420076"
         ry="1.6048762" />
      <rect
         style="fill:none;fill-opacity:1;stroke:none;stroke-width:0.131;stroke-dasharray:none;stroke-opacity:1"
         id="rect14439"
         width="16"
         height="16"
         x="0"
         y="0"
         ry="0" />
    </g>
  </g>
</svg>
