<?xml version="1.0" encoding="UTF-8" standalone="no"?>
<!-- Created with Inkscape (http://www.inkscape.org/) -->

<svg
   version="1.1"
   id="svg2"
   width="1600"
   height="1600"
   viewBox="0 0 1600 1600"
   sodipodi:docname="mesh_icosphere.svg"
   inkscape:version="1.2.2 (732a01da63, 2022-12-09)"
   xmlns:inkscape="http://www.inkscape.org/namespaces/inkscape"
   xmlns:sodipodi="http://sodipodi.sourceforge.net/DTD/sodipodi-0.dtd"
   xmlns="http://www.w3.org/2000/svg"
   xmlns:svg="http://www.w3.org/2000/svg"
   xmlns:rdf="http://www.w3.org/1999/02/22-rdf-syntax-ns#"
   xmlns:cc="http://creativecommons.org/ns#"
   xmlns:dc="http://purl.org/dc/elements/1.1/">
  <metadata
     id="metadata8">
    <rdf:RDF>
      <cc:Work
         rdf:about="">
        <dc:format>image/svg+xml</dc:format>
        <dc:type
           rdf:resource="http://purl.org/dc/dcmitype/StillImage" />
      </cc:Work>
    </rdf:RDF>
  </metadata>
  <defs
     id="defs6" />
  <sodipodi:namedview
     pagecolor="#808080"
     bordercolor="#666666"
     borderopacity="1"
     objecttolerance="10"
     gridtolerance="10"
     guidetolerance="10"
     inkscape:pageopacity="0"
     inkscape:pageshadow="2"
     inkscape:window-width="1993"
     inkscape:window-height="1009"
     id="namedview4"
     showgrid="false"
     inkscape:zoom="0.5"
     inkscape:cx="551"
     inkscape:cy="666"
     inkscape:window-x="-8"
     inkscape:window-y="-8"
     inkscape:window-maximized="1"
     inkscape:current-layer="MESH_ICOSPHERE"
     inkscape:showpageshadow="0"
     inkscape:pagecheckerboard="true"
     inkscape:deskcolor="#d1d1d1" />
  <g
     id="MESH_ICOSPHERE"
     transform="matrix(100,0,0,100,0,4.9999997e-5)"
     style="stroke-width:0.0114286">
    <path
       style="fill:none;stroke-width:0.000357143"
       d="M 0,8 V 0 L 3.9140625,0.00112737 C 7.7333737,0.00222745 7.8243425,0.00362876 7.671875,0.05901373 7.5859375,0.09023118 6.1469934,0.80056353 4.4742216,1.6375301 1.1863857,3.2825891 1.2603987,3.2401103 1.0930044,3.578125 l -0.077379,0.15625 v 4.28125 4.28125 l 0.077127,0.15625 c 0.1782829,0.36118 0.087247,0.308713 3.4675698,1.998439 L 7.6579912,16 H 3.8289956 0 Z m 11.470928,6.451564 c 3.380323,-1.689726 3.289287,-1.637259 3.46757,-1.998439 l 0.07713,-0.15625 v -4.28125 -4.28125 l -0.07738,-0.15625 C 14.770851,3.2401103 14.844864,3.2825891 11.557028,1.6375301 9.8842566,0.80056353 8.4453125,0.09023118 8.359375,0.05901373 8.2069016,0.00362659 8.2973497,0.00222749 12.101563,0.00112737 L 16,0 v 8 8 H 12.186629 8.3732587 Z"
       id="path825"
       inkscape:connector-curvature="0" />
    <path
       style="fill:#fefefe;stroke-width:0.000357143"
       d="M 4.7654541,13.410953 C 2.5036197,12.277518 2.0018787,12.015082 2.078125,12.005339 c 0.1557425,-0.0199 7.0112066,0.01108 7.0319038,0.03177 0.010564,0.01056 -0.060015,0.150676 -0.1568416,0.31136 -0.096827,0.160684 -0.1896969,0.317389 -0.2063778,0.348233 -0.016681,0.03084 -0.073476,0.136313 -0.1262128,0.234375 -0.052736,0.09806 -0.1576947,0.277913 -0.2332403,0.399668 C 8.3118103,13.452503 8.25,13.561638 8.25,13.573269 c 0,0.01163 -0.078269,0.151077 -0.1739309,0.309878 -0.095662,0.1588 -0.1877141,0.314181 -0.20456,0.345289 -0.016846,0.03111 -0.081166,0.15064 -0.1429338,0.265625 -0.061768,0.114985 -0.1279959,0.231893 -0.1471734,0.259795 -0.030564,0.04447 -0.3781903,-0.121312 -2.8159478,-1.342903 z M 8.84375,14.606424 c 0,-0.01026 0.025902,-0.05598 0.057561,-0.1016 0.031658,-0.04562 0.078586,-0.125137 0.1042847,-0.176699 0.096143,-0.192906 0.2552828,-0.475745 0.3882985,-0.690123 0.075546,-0.121755 0.1373562,-0.230889 0.1373562,-0.242521 0,-0.01163 0.078269,-0.151077 0.1739309,-0.309878 0.095662,-0.1588 0.1875788,-0.313964 0.2042597,-0.344808 0.016681,-0.03084 0.073286,-0.136313 0.12579,-0.234375 0.0525,-0.09806 0.137835,-0.245092 0.189623,-0.326732 l 0.09416,-0.148438 h 1.845701 c 1.015135,0 1.839841,0.0055 1.83268,0.0122 -0.03628,0.03399 -5.1536456,2.57892 -5.1536456,2.562978 z m -3.3334944,-3.629859 -2.5991197,-0.0082 0.095308,-0.179509 c 0.05242,-0.09873 0.1199876,-0.214664 0.150151,-0.257633 0.049695,-0.07079 0.1294413,-0.212425 0.3269735,-0.5807222 0.03764,-0.070151 0.14111,-0.2478855 0.2299338,-0.3949377 C 3.8023259,9.4085106 3.875,9.2794475 3.875,9.2687559 3.875,9.2580641 3.9462988,9.1355506 4.0334416,8.9965031 4.1205844,8.8574559 4.2003981,8.7205003 4.2108056,8.6921575 4.2212131,8.6638147 4.2835084,8.5547303 4.3492394,8.4497481 4.4149703,8.3447656 4.46875,8.2503425 4.46875,8.2399191 c 0,-0.010424 0.063281,-0.123185 0.140625,-0.2505807 C 4.6867187,7.8619428 4.75,7.7500578 4.75,7.7407053 4.75,7.7313525 4.8212216,7.6088675 4.9082703,7.4685159 4.9953191,7.3281644 5.0751331,7.1899413 5.0856347,7.1613531 5.0961362,7.1327653 5.1585084,7.0234803 5.2242394,6.9184981 5.2899703,6.8135156 5.34375,6.7184434 5.34375,6.7072266 c 0,-0.011217 0.077344,-0.14543 0.171875,-0.298251 C 5.6101562,6.2561547 5.6875,6.12321 5.6875,6.1135431 c 0,-0.00967 0.063281,-0.121809 0.140625,-0.2492047 0.077344,-0.1273956 0.140625,-0.2465959 0.140625,-0.264889 0,-0.018294 0.012724,-0.041125 0.028277,-0.050737 0.028123,-0.017381 0.095869,0.085974 0.27953,0.4264575 0.052896,0.098062 0.1098222,0.2035309 0.1265028,0.234375 0.016681,0.030844 0.106094,0.1826425 0.1986962,0.33733 0.092602,0.1546875 0.1774469,0.3058234 0.1885444,0.3358575 0.011097,0.030034 0.069851,0.13226 0.1305634,0.2271691 0.060713,0.094909 0.1103866,0.181055 0.1103866,0.1914353 0,0.01038 0.063281,0.1231059 0.140625,0.2505015 0.077344,0.1273957 0.140625,0.2401569 0.140625,0.2505807 0,0.010423 0.05625,0.1080175 0.125,0.2168756 0.06875,0.1088578 0.125,0.2070341 0.125,0.2181694 0,0.011135 0.063281,0.1244787 0.140625,0.2518743 0.077344,0.1273957 0.140625,0.2401569 0.140625,0.2505807 0,0.010423 0.05625,0.1080175 0.125,0.2168756 0.06875,0.1088578 0.125,0.2068619 0.125,0.2177869 0,0.010925 0.072674,0.140179 0.1614978,0.2872315 0.088824,0.1470522 0.1922938,0.3247866 0.2299335,0.3949647 0.1810915,0.3376433 0.2706968,0.4975263 0.3432362,0.6124353 0.043477,0.06887 0.1283188,0.216473 0.1885378,0.328004 L 9.126445,11 8.61791,10.992369 c -0.2796944,-0.0042 -1.6781388,-0.01131 -3.1076544,-0.0158 z m 5.4181924,-0.03125 c 0.01113,-0.03008 0.08902,-0.165092 0.173085,-0.30003 0.08407,-0.134939 0.161411,-0.268533 0.171875,-0.296875 0.01046,-0.02834 0.08781,-0.161937 0.171875,-0.296875 0.08407,-0.1349389 0.161399,-0.2685327 0.171847,-0.2968755 0.01045,-0.028343 0.09476,-0.178095 0.187364,-0.3327825 0.0926,-0.1546875 0.182016,-0.3064859 0.198697,-0.33733 0.01668,-0.030844 0.07348,-0.1363128 0.126212,-0.234375 C 12.182143,8.75211 12.287098,8.5722592 12.362644,8.4505042 12.43819,8.3287469 12.5,8.2196125 12.5,8.2079806 c 0,-0.011632 0.07827,-0.1510762 0.173931,-0.3098772 0.09566,-0.1588006 0.187579,-0.3139643 0.20426,-0.3448084 0.01668,-0.030844 0.07348,-0.1363128 0.126212,-0.234375 0.05274,-0.098062 0.157695,-0.2779128 0.233241,-0.3996678 C 13.31319,6.7974969 13.375,6.6883625 13.375,6.6767306 c 0,-0.011632 0.07827,-0.1510762 0.173931,-0.3098772 0.09566,-0.1588006 0.187714,-0.3141809 0.20456,-0.3452893 0.01685,-0.031109 0.08101,-0.1506397 0.142593,-0.265625 0.06158,-0.1149854 0.117184,-0.2149235 0.123565,-0.222085 0.0064,-0.00716 0.0116,1.2197918 0.0116,2.7265625 V 11 H 12.46973 c -1.474037,0 -1.560386,-0.0031 -1.541283,-0.05469 z M 9.8904697,10.255923 C 9.7643894,10.047393 9.67186,9.8833588 9.4552516,9.484375 9.3899341,9.3640625 9.3119109,9.2304688 9.2818669,9.1875 9.2306472,9.1142453 9.0491881,8.7886534 8.94225,8.578125 8.9160591,8.5265625 8.8500544,8.4140625 8.7955737,8.328125 8.7410928,8.2421875 8.6459153,8.0777963 8.5840684,7.9628109 8.5222216,7.8478256 8.4578366,7.7282944 8.4409909,7.6971859 8.424145,7.6660775 8.3320931,7.5106972 8.2364309,7.3518966 8.1407691,7.1930956 8.0625,7.0536509 8.0625,7.0420194 8.0625,7.0303875 8.0006897,6.9212531 7.9251437,6.7994978 7.7954825,6.5905262 7.6426831,6.3195641 7.5359747,6.109375 7.5097975,6.0578125 7.4438044,5.9453125 7.3893238,5.859375 7.2901331,5.7029131 7.0999988,5.3616316 6.9975994,5.15625 L 6.9430674,5.046875 10.007838,5.038905 c 1.685624,-0.00438 3.070995,-0.00174 3.078602,0.00586 0.0076,0.00761 -0.0065,0.05338 -0.03124,0.1017166 C 12.942921,5.3654269 12.767891,5.67884 12.71816,5.75 12.668673,5.8208125 12.588271,5.9637172 12.391431,6.3307222 12.353792,6.4009003 12.250322,6.5786347 12.161498,6.7256869 12.072674,6.8727394 12,7.0018025 12,7.0124941 c 0,0.010692 -0.06785,0.12827 -0.150775,0.2612853 -0.08293,0.133015 -0.172171,0.2840331 -0.198321,0.3355956 -0.09782,0.1928794 -0.207606,0.3879712 -0.364406,0.6475619 C 11.197674,8.4039894 11.125,8.5330525 11.125,8.5437441 c 0,0.010692 -0.06785,0.12827 -0.150775,0.2612853 -0.08293,0.133015 -0.172171,0.2840331 -0.198321,0.3355956 -0.09782,0.1928794 -0.207606,0.3879713 -0.364406,0.6475619 C 10.322674,9.9352394 10.25,10.063583 10.25,10.073396 c 0,0.0098 -0.0528,0.101355 -0.117343,0.203427 l -0.117343,0.185585 z M 2,7.7362194 V 5.03125 h 1.5622112 1.562211 L 5.0309612,5.1831437 C 4.9795575,5.2666853 4.9375,5.3441794 4.9375,5.3553525 c 0,0.011173 -0.077344,0.1453509 -0.171875,0.2981719 -0.094531,0.1528209 -0.171875,0.2864147 -0.171875,0.296875 0,0.01046 -0.078269,0.1489462 -0.1739309,0.3077472 C 4.3241569,6.4169472 4.2322403,6.5721109 4.2155594,6.602955 4.1988787,6.6337991 4.1420831,6.7392678 4.0893466,6.83733 4.0366103,6.9353922 3.9316519,7.1152428 3.8561062,7.2369978 3.7805603,7.3587531 3.71875,7.4678875 3.71875,7.4795194 c 0,0.011632 -0.077344,0.146184 -0.171875,0.299005 C 3.4523437,7.9313453 3.375,8.0649391 3.375,8.0753994 3.375,8.0858594 3.296731,8.2243456 3.2010691,8.3831466 3.1054069,8.5419472 3.0134902,8.6971109 2.9968095,8.727955 2.9801289,8.7587991 2.9233331,8.8642678 2.8705967,8.96233 2.8178602,9.0603922 2.712902,9.2402428 2.6373562,9.3619978 2.5618103,9.4837531 2.5,9.5928875 2.5,9.6045194 2.5,9.6161509 2.4254199,9.7485644 2.3342664,9.8987716 2.2431129,10.048978 2.1411598,10.225774 2.1077039,10.29165 2.074248,10.357526 2.0363281,10.418122 2.0234375,10.426307 2.0105469,10.434492 2,9.2239525 2,7.7362194 Z M 4.59375,2.7188906 C 5.9945312,2.0160167 7.1516788,1.4401645 7.1651891,1.439219 7.1786994,1.4382737 7.15409,1.4899832 7.1105016,1.5541292 7.0669131,1.6182752 7.03125,1.6817068 7.03125,1.6950881 c 0,0.013381 -0.078269,0.1542576 -0.1739309,0.3130583 C 6.7616569,2.1669472 6.6697403,2.322111 6.6530594,2.3529551 6.6363787,2.3837991 6.5795831,2.4892678 6.5268466,2.5873301 6.4741103,2.6853923 6.3691519,2.8652428 6.2936062,2.9869979 6.2180603,3.108753 6.15625,3.2178875 6.15625,3.2295194 c 0,0.011632 -0.073977,0.144045 -0.1643919,0.2942522 C 5.9014425,3.6739784 5.8038928,3.8390625 5.7750813,3.890625 l -0.052384,0.09375 -1.837911,0.00623 -1.8379109,0.00623 z m 2.3125,1.2659538 c 0,-0.00834 0.042187,-0.083719 0.09375,-0.1675188 0.051563,-0.0838 0.09375,-0.1615084 0.09375,-0.1726862 0,-0.011178 0.071299,-0.1340888 0.1584416,-0.2731363 C 7.3393344,3.2324559 7.4191816,3.0955004 7.42963,3.0671575 7.4400784,3.0388146 7.5234672,2.8939549 7.6149384,2.7452471 7.7064097,2.5965392 7.78125,2.4663108 7.78125,2.4558507 c 0,-0.01046 0.078269,-0.1489464 0.1739309,-0.3077471 0.095662,-0.1588008 0.1877141,-0.314181 0.20456,-0.3452895 0.016846,-0.031109 0.08075,-0.1506398 0.1420088,-0.265625 0.061259,-0.1149853 0.1289278,-0.2276573 0.1503747,-0.2503824 0.031966,-0.033871 0.5340384,0.2066041 2.7856226,1.3342171 l 2.746628,1.3755356 -3.539062,0.00172 C 8.4988281,3.9992259 6.90625,3.99318 6.90625,3.9848444 Z"
       id="path823"
       inkscape:connector-curvature="0" />
    <path
       style="fill:#656565;stroke-width:0.000357143"
       d="M 7.7734375,14.919907 C 7.5618341,14.811296 7.5388834,14.787871 7.5901347,14.732813 c 0.015199,-0.01633 0.077835,-0.123767 0.1391903,-0.238752 0.061356,-0.114985 0.1253384,-0.234517 0.1421841,-0.265625 0.016846,-0.03111 0.1088978,-0.186489 0.20456,-0.345289 C 8.1717309,13.724346 8.25,13.584901 8.25,13.573269 c 0,-0.01163 0.06181,-0.120766 0.1373563,-0.242521 0.075546,-0.121755 0.180504,-0.301606 0.2332403,-0.399668 0.052736,-0.09806 0.1095321,-0.203531 0.1262128,-0.234375 0.016681,-0.03084 0.1095506,-0.187549 0.2063778,-0.348233 0.096827,-0.160684 0.16733,-0.300871 0.1566734,-0.311528 -0.010656,-0.01066 -1.6147347,-0.02503 -3.5646181,-0.03194 L 2,11.992443 V 11.229976 C 2,10.470512 2.0003094,10.46702 2.078125,10.34375 2.121094,10.27568 2.15625,10.211304 2.15625,10.200687 c 0,-0.01062 0.077344,-0.144342 0.171875,-0.2971626 C 2.4226563,9.7507034 2.5,9.6161509 2.5,9.6045194 2.5,9.5928875 2.5618103,9.4837531 2.6373562,9.3619978 2.712902,9.2402428 2.8178603,9.0603922 2.8705967,8.96233 2.9233331,8.8642678 2.9801289,8.7587991 2.9968095,8.727955 3.0134902,8.6971109 3.1054069,8.5419472 3.2010691,8.3831466 3.2967309,8.2243456 3.375,8.0858597 3.375,8.0753994 c 0,-0.01046 0.077344,-0.1440541 0.171875,-0.296875 0.094531,-0.152821 0.171875,-0.2873735 0.171875,-0.299005 0,-0.011632 0.06181,-0.1207663 0.1373563,-0.2425216 C 3.9316519,7.1152428 4.0366103,6.9353922 4.0893466,6.83733 4.1420831,6.7392678 4.1988787,6.6337991 4.2155594,6.602955 4.2322403,6.5721109 4.3241569,6.4169472 4.4198191,6.2581466 4.5154809,6.0993456 4.59375,5.9608597 4.59375,5.9503994 c 0,-0.01046 0.077344,-0.1440541 0.171875,-0.296875 C 4.8601562,5.5007034 4.9375,5.3665259 4.9375,5.3553525 c 0,-0.011173 0.042058,-0.088667 0.093461,-0.1722088 L 5.1244222,5.03125 H 3.5622112 2 V 4.5158709 4.0004919 l 1.8613481,-0.00806 1.8613485,-0.00806 0.052385,-0.09375 C 5.8038928,3.8390625 5.9014425,3.6739784 5.9918581,3.5237716 6.0822734,3.3735644 6.15625,3.2411509 6.15625,3.2295194 c 0,-0.011632 0.06181,-0.1207664 0.1373562,-0.2425215 0.075546,-0.1217551 0.1805041,-0.3016056 0.2332404,-0.3996678 0.052736,-0.098062 0.1095321,-0.203531 0.1262128,-0.234375 0.016681,-0.030844 0.1050818,-0.1826749 0.1964472,-0.3374019 0.091365,-0.154727 0.19142,-0.3305083 0.222344,-0.390625 0.095507,-0.1856668 0.1208666,-0.2051859 0.5384113,-0.4144179 l 0.405814,-0.2033538 0.2185247,0.1094859 c 0.2616622,0.131099 0.2507328,0.1222198 0.2113038,0.1716649 -0.017463,0.0219 -0.082103,0.1338965 -0.1436435,0.2488818 -0.06154,0.1149852 -0.1256743,0.2345164 -0.14252,0.265625 C 8.142895,1.8339226 8.0508431,1.9893028 7.9551809,2.1481036 7.8595191,2.3069043 7.78125,2.4453905 7.78125,2.4558507 c 0,0.01046 -0.07484,0.1406885 -0.1663116,0.2893964 C 7.5234672,2.8939549 7.4400784,3.0388146 7.42963,3.0671575 7.4191816,3.0955004 7.3393344,3.2324559 7.2521916,3.3715031 7.1650488,3.5105506 7.09375,3.6334619 7.09375,3.6446394 7.09375,3.6558172 7.0515625,3.7335259 7,3.8173256 6.9484375,3.9011256 6.90625,3.9765091 6.90625,3.9848444 6.90625,3.99318 8.509375,4 10.46875,4 h 3.5625 V 4.7524681 5.5049362 L 13.909426,5.7321819 C 13.729393,6.0680072 13.736593,6.0553309 13.548931,6.3668534 13.453269,6.5256544 13.375,6.6650991 13.375,6.6767306 c 0,0.011632 -0.06181,0.1207663 -0.137356,0.2425216 -0.07555,0.121755 -0.180504,0.3016056 -0.233241,0.3996678 -0.05274,0.098062 -0.109532,0.2035309 -0.126212,0.234375 -0.01668,0.030844 -0.108598,0.1860078 -0.20426,0.3448084 C 12.578269,8.0569044 12.5,8.1963491 12.5,8.2079806 c 0,0.011632 -0.06181,0.1207663 -0.137356,0.2425216 -0.07555,0.121755 -0.180504,0.3016056 -0.233241,0.3996678 -0.05274,0.098062 -0.109532,0.2035309 -0.126212,0.234375 -0.01668,0.030844 -0.106094,0.1826425 -0.198697,0.33733 -0.0926,0.1546875 -0.176916,0.3044397 -0.187364,0.3327825 -0.01045,0.028343 -0.08778,0.1619366 -0.171847,0.2968755 -0.08407,0.134938 -0.161411,0.268532 -0.171875,0.296875 -0.01046,0.02834 -0.08781,0.161936 -0.171875,0.296875 -0.08407,0.134938 -0.161955,0.269951 -0.173085,0.30003 C 10.909345,10.996936 10.995694,11 12.469731,11 h 1.561519 v 0.515625 0.515625 h -1.856117 -1.856118 l -0.09416,0.148438 c -0.05179,0.08164 -0.137119,0.22867 -0.189623,0.326732 -0.052504,0.09806 -0.1091097,0.203531 -0.1257904,0.234375 -0.016681,0.03084 -0.1085975,0.186008 -0.2042597,0.344808 -0.095662,0.158801 -0.1739309,0.298246 -0.1739309,0.309878 0,0.01163 -0.06181,0.120766 -0.1373563,0.242521 -0.075546,0.121755 -0.1830134,0.305748 -0.2388165,0.408873 -0.055803,0.103125 -0.131956,0.24375 -0.1692278,0.3125 -0.037272,0.06875 -0.088007,0.157925 -0.112746,0.198168 -0.039169,0.06372 -0.7954825,0.476634 -0.8648447,0.47217 -0.013136,-8.47e-4 -0.1188056,-0.05026 -0.2348212,-0.109806 z m 1.2435178,-4.12269 C 8.9567363,10.685686 8.8718941,10.538085 8.8284175,10.469213 8.7558781,10.354304 8.6662728,10.194421 8.4851813,9.8567778 8.4475416,9.7865997 8.3440716,9.6088653 8.2552478,9.4618131 8.1664241,9.3147606 8.09375,9.1855066 8.09375,9.1745816 8.09375,9.1636566 8.0375,9.0656525 7.96875,8.9567947 7.9,8.8479366 7.84375,8.7503425 7.84375,8.7399191 7.84375,8.7294953 7.7804687,8.6167341 7.703125,8.4893384 7.6257812,8.3619428 7.5625,8.2485994 7.5625,8.2374641 7.5625,8.2263288 7.50625,8.1281525 7.4375,8.0192947 7.36875,7.9104366 7.3125,7.8128425 7.3125,7.8024191 7.3125,7.7919953 7.2492187,7.6792341 7.171875,7.5518384 7.0945312,7.4244428 7.03125,7.3117169 7.03125,7.3013369 7.03125,7.2909569 6.981576,7.2048109 6.9208634,7.1099016 6.8601509,7.0149925 6.8013972,6.9127666 6.7903,6.8827325 6.7792025,6.8526984 6.6943575,6.7015625 6.6017556,6.546875 6.5091534,6.3921875 6.4197403,6.2403891 6.4030594,6.209545 6.3863787,6.1787009 6.3294525,6.0732322 6.2765566,5.97517 6.0928956,5.6346869 6.0251494,5.5313319 5.9970266,5.5487125 c -0.015552,0.00961 -0.028277,0.032443 -0.028277,0.050737 0,0.018293 -0.063281,0.1374934 -0.140625,0.264889 C 5.7507812,5.9917341 5.6875,6.1038763 5.6875,6.1135431 c 0,0.00967 -0.077344,0.1426116 -0.171875,0.2954325 -0.094531,0.152821 -0.171875,0.2870341 -0.171875,0.298251 0,0.011217 -0.05378,0.106289 -0.1195106,0.2112715 C 5.1585084,7.0234803 5.0961362,7.1327653 5.0856347,7.1613531 5.0751331,7.1899412 4.9953191,7.3281644 4.9082703,7.4685159 4.8212216,7.6088675 4.75,7.7313525 4.75,7.7407053 4.75,7.7500553 4.686719,7.8619428 4.609375,7.9893384 4.532031,8.1167341 4.46875,8.2294953 4.46875,8.2399191 c 0,0.010423 -0.05378,0.1048465 -0.1195106,0.209829 C 4.2835084,8.5547303 4.2212131,8.6638147 4.2108056,8.6921575 4.2003981,8.7205003 4.1205844,8.8574559 4.0334416,8.9965031 3.9462987,9.1355506 3.875,9.2580641 3.875,9.2687559 3.875,9.2794475 3.8023259,9.4085106 3.7135022,9.5555631 3.6246784,9.7026153 3.5212084,9.8803497 3.4835687,9.9505278 3.2860366,10.318825 3.2062903,10.460457 3.1565953,10.53125 c -0.030163,0.04297 -0.097731,0.158904 -0.150151,0.257633 l -0.095308,0.179509 2.5991197,0.0082 c 1.4295156,0.0045 2.82796,0.01161 3.1076544,0.0158 L 9.126445,11 Z M 10.25,10.073396 c 0,-0.0098 0.07267,-0.1381566 0.161498,-0.2852091 0.1568,-0.2595906 0.266585,-0.4546825 0.364406,-0.6475619 0.02615,-0.051562 0.115395,-0.2025806 0.198321,-0.3355956 C 11.057151,8.6720141 11.125,8.5544359 11.125,8.5437441 c 0,-0.010692 0.07267,-0.1397547 0.161498,-0.2868072 0.1568,-0.2595906 0.266585,-0.4546825 0.364406,-0.6475619 0.02615,-0.051563 0.115395,-0.2025806 0.198321,-0.3355956 C 11.932151,7.1407641 12,7.0231859 12,7.0124941 12,7.0018025 12.072674,6.8727394 12.161498,6.7256869 12.250322,6.5786347 12.353792,6.4009003 12.391431,6.3307222 12.588271,5.9637172 12.668673,5.8208125 12.71816,5.75 12.76789,5.67884 12.942921,5.3654269 13.0552,5.1464897 c 0.02479,-0.048337 0.03885,-0.094109 0.03124,-0.1017166 -0.0076,-0.00761 -1.392978,-0.010246 -3.078602,-0.00586 l -3.0647708,0.00797 0.054532,0.109375 c 0.1023993,0.2053816 0.2925337,0.5466631 0.3917243,0.703125 0.054481,0.085937 0.1204738,0.1984375 0.146651,0.25 0.1067084,0.2101891 0.2595078,0.4811513 0.389169,0.6901228 C 8.0006897,6.9212531 8.0625,7.0303875 8.0625,7.0420194 c 0,0.011632 0.078269,0.1510762 0.1739309,0.3098772 0.095662,0.1588006 0.1877141,0.3141809 0.20456,0.3452893 0.016846,0.031109 0.081231,0.1506397 0.1430775,0.265625 0.061847,0.1149854 0.1570244,0.2793766 0.2115053,0.3653141 0.054481,0.085937 0.1204854,0.1984375 0.1466763,0.25 0.1069381,0.2105284 0.2883972,0.5361203 0.3396169,0.609375 0.030044,0.042969 0.1080672,0.1765625 0.1733847,0.296875 0.2166084,0.3989838 0.3091378,0.563018 0.4352181,0.771548 l 0.1248443,0.206485 0.117343,-0.185585 C 10.197196,10.174751 10.25,10.083209 10.25,10.073396 Z"
       id="path821"
       inkscape:connector-curvature="0" />
    <path
       style="fill:#323232;stroke-width:0.000357143"
       d="M 4.5603219,14.451564 C 1.1799986,12.761838 1.271035,12.814305 1.0927521,12.453125 l -0.077127,-0.15625 v -4.28125 -4.28125 l 0.077379,-0.15625 C 1.2613184,3.2382534 1.1771395,3.2863606 4.5775666,1.5867348 L 7.7208728,0.015625 H 8.015625 8.3103772 l 3.1433058,1.5711098 c 3.400428,1.6996258 3.316249,1.6515186 3.484563,1.9913902 l 0.07738,0.15625 v 4.28125 4.28125 l -0.07713,0.15625 c -0.178283,0.36118 -0.08725,0.308713 -3.46757,1.998439 L 8.3732588,16 H 8.015625 7.6579912 Z M 11.031314,13.531218 14.03125,12.031186 V 8.0233297 4.0154737 L 11.023438,2.5116644 8.015625,1.0078552 5.0078125,2.5116646 2,4.0154741 v 4.0078556 4.0078553 l 2.9921875,1.498311 c 1.6457031,0.824071 3.0027634,1.499086 3.0156894,1.500032 0.012926,9.47e-4 1.3734731,-0.673292 3.0234371,-1.49831 z"
       id="path819"
       inkscape:connector-curvature="0" />
  </g>
</svg>
