<?xml version="1.0" encoding="UTF-8" standalone="no"?>
<!-- Created with Inkscape (http://www.inkscape.org/) -->

<svg
   version="1.1"
   id="svg2"
   width="1600"
   height="1600"
   viewBox="0 0 1600 1600"
   sodipodi:docname="mesh_to_volume.svg"
   inkscape:version="1.2.2 (732a01da63, 2022-12-09)"
   xmlns:inkscape="http://www.inkscape.org/namespaces/inkscape"
   xmlns:sodipodi="http://sodipodi.sourceforge.net/DTD/sodipodi-0.dtd"
   xmlns="http://www.w3.org/2000/svg"
   xmlns:svg="http://www.w3.org/2000/svg">
  <defs
     id="defs6" />
  <sodipodi:namedview
     id="namedview4"
     pagecolor="#808080"
     bordercolor="#000000"
     borderopacity="0.25"
     inkscape:showpageshadow="2"
     inkscape:pageopacity="0"
     inkscape:pagecheckerboard="true"
     inkscape:deskcolor="#d1d1d1"
     showgrid="false"
     inkscape:zoom="0.5"
     inkscape:cx="420"
     inkscape:cy="564"
     inkscape:window-width="2560"
     inkscape:window-height="1009"
     inkscape:window-x="-8"
     inkscape:window-y="-8"
     inkscape:window-maximized="1"
     inkscape:current-layer="g8" />
  <g
     inkscape:groupmode="layer"
     inkscape:label="Image"
     id="g8"
     transform="matrix(100,0,0,100,-10000,168400)"
     style="stroke-width:0.01">
    <g
       id="MESH_TO_VOLUME"
       transform="translate(100,-1684)"
       style="stroke-width:0.01">
      <path
         style="fill:none;stroke-width:0.0003125"
         d="M 8,16 H 0 V 8 0 h 8 8 v 8 8 z M 3.4708231,15.496505 3.8322713,15.5 4.0176981,15.46716 4.203125,15.43432 l 0.25,-0.08089 0.25,-0.08089 0.15625,-0.0781 0.15625,-0.0781 0.1875,-0.126911 0.1875,-0.126911 0.2359503,-0.235951 0.2359506,-0.23595 0.1339372,-0.197574 0.1339369,-0.197574 0.087439,-0.193051 0.087439,-0.193051 0.017416,-0.0525 0.017416,-0.0525 0.1502578,-0.01884 0.1502578,-0.01884 0.2556756,-0.04702 0.2556756,-0.04702 0.1661994,-0.05649 0.1661994,-0.05649 0.0082,-1.148778 0.0082,-1.148778 -0.101951,0.06799 -0.1019509,0.06799 -0.25,0.12202 -0.25,0.12202 -0.1875,0.04883 -0.1875,0.04883 -0.34375,0.03173 -0.34375,0.03173 -0.149945,0.02942 -0.149945,0.02942 -0.1702944,0.08056 -0.1702944,0.08056 -0.1689362,0.154398 -0.1689363,0.154398 -0.094956,0.148055 -0.094956,0.148054 -0.097351,0.302478 -0.097351,0.302477 -0.092068,0.127097 -0.092068,0.127096 -0.1307053,0.09468 -0.130705,0.09468 -0.1715256,0.04986 -0.171526,0.04986 L 3.412755,13.458813 3.2426987,13.441262 3.0772699,13.360325 2.911841,13.279389 2.7961495,13.151332 2.680458,13.023275 2.618979,12.884292 2.5575,12.745308 2.540567,12.581248 2.523635,12.417189 l 0.049864,-0.171526 0.049864,-0.171525 0.095922,-0.132417 0.095922,-0.132417 0.1459938,-0.09996 0.1459938,-0.09996 0.1482427,-0.135887 0.1482428,-0.135887 0.092604,-0.145363 0.092604,-0.145363 0.064931,-0.194327 0.064931,-0.194326 V 10.316777 9.9753334 L 3.6589972,9.7767294 3.5992441,9.578125 3.5652472,9.4125244 3.53125,9.2469237 V 9.0736831 8.9004428 L 3.59544,8.5830337 3.65963,8.265625 3.7818937,8.0118191 3.9041575,7.7580134 4.0848328,7.5161187 4.2655084,7.2742237 4.5098178,7.0901312 4.7541272,6.9060384 5.0098762,6.7828341 5.265625,6.65963 5.5830337,6.59544 5.9004428,6.53125 H 6.046875 6.1933072 l 0.3132131,0.063829 0.3132131,0.063829 0.20159,0.091405 0.2015897,0.091405 0.208856,0.13926 L 7.640625,7.1202384 7.8614672,7.31966 8.0823094,7.5190819 8.1895922,7.5850072 8.296875,7.6509328 8.4912016,7.7160912 8.6855284,7.78125 H 8.984375 9.2832216 L 9.4775484,7.7163187 9.671875,7.6513878 9.8172378,7.5587841 9.9626006,7.4661806 10.099484,7.3190278 10.236368,7.171875 10.303025,7.0625 10.369683,6.953125 10.434841,6.7587984 10.5,6.5644716 V 5.921875 5.2792784 L 10.435069,5.0849516 10.370138,4.890625 10.275062,4.74141 10.179987,4.5921947 9.9884309,4.4180853 9.796875,4.2439756 9.4263744,3.9957122 9.0558741,3.7474491 8.8417931,3.6396394 8.6277122,3.53183 8.3196387,3.4090941 8.0115653,3.2863581 7.8417203,3.2386191 7.671875,3.19088 7.5346972,3.15556 7.3975197,3.1202402 7.5503222,3.0096505 7.703125,2.8990609 l 0.25,-0.1207477 0.25,-0.1207478 L 8.3940406,2.6093523 8.5849559,2.5611392 8.7924781,2.5361559 9,2.5111726 l 0.2075219,0.024983 0.2075222,0.024983 0.1909153,0.048392 0.1909156,0.048392 0.226379,0.106911 0.226379,0.106911 0.148621,0.1018925 0.148621,0.1018925 0.152344,0.1419222 0.152345,0.1419225 0.135865,0.1902734 0.135866,0.1902738 0.109391,0.2316012 0.109391,0.2316016 0.04839,0.1909156 0.04839,0.1909153 0.02498,0.2075222 L 11.488827,5 l -0.02498,0.2075219 -0.02498,0.2075222 -0.04883,0.1909153 -0.04883,0.1909156 -0.152745,0.3288838 -0.152746,0.328884 -0.03696,0.1467947 -0.03696,0.1467947 0.01371,0.3368212 0.01371,0.3368216 0.05411,0.1289181 0.05411,0.1289178 0.279417,-0.089855 0.2794,-0.089856 0.351561,2.5e-4 0.351561,2.5e-4 1.400084,0.4662303 1.400084,0.4662306 -0.08423,-0.14618 -0.08422,-0.1461796 -0.132984,-0.1875 -0.132984,-0.1875 L 14.432875,7.4805887 14.140624,7.1955762 13.913057,7.0487371 13.685489,6.901898 13.506807,6.822527 13.328124,6.743156 l -0.06879,-0.026487 -0.06879,-0.026487 0.09005,-0.2664097 0.09005,-0.26641 0.05633,-0.2583806 0.05633,-0.2583806 V 4.9999763 4.3593513 L 13.425675,4.0945653 13.36804,3.8297794 13.259892,3.5190781 13.151744,3.2083766 13.025016,2.955739 12.898288,2.703125 12.708459,2.4254606 12.51863,2.1477962 12.185417,1.8145833 11.852204,1.4813704 11.574539,1.2915413 11.296875,1.1017121 11.044237,0.97498409 10.7916,0.84825613 10.480898,0.74010803 10.170197,0.63195997 9.9054109,0.574325 9.640625,0.51669003 H 9 8.359375 L 8.0945891,0.574325 7.8298031,0.63195997 7.5191019,0.74010803 7.2084003,0.84825613 6.9557628,0.97498409 6.703125,1.1017121 6.4254606,1.2915413 6.1477963,1.4813704 5.8145834,1.8145833 5.4813703,2.1477962 5.2915413,2.4254606 5.1017122,2.703125 4.9749841,2.9557627 4.8482563,3.2084003 4.7401081,3.5191019 4.63196,3.8298031 4.583062,4.0789641 4.534165,4.328125 4.513761,4.5360856 4.493357,4.7440459 l -0.145116,0.05447 -0.1451156,0.05447 -0.25,0.1243628 -0.25,0.1243631 L 3.4254606,5.2915413 3.1477963,5.4813703 2.8145833,5.8145834 2.4813704,6.1477963 2.2915413,6.4254606 2.1017121,6.703125 1.9749841,6.9557628 1.8482561,7.2084003 1.740108,7.5191019 1.63196,7.8298031 1.574325,8.0945891 1.51669,8.359375 1.516565,9 1.51644,9.640625 l 0.053382,0.2411909 0.053382,0.2411911 -0.2428656,0.243184 -0.2428656,0.243184 -0.126911,0.1875 -0.12691093,0.1875 -0.0780973,0.15625 -0.0780973,0.15625 -0.0808935,0.25 -0.0808935,0.25 -0.0328353,0.185427 L 0.5,12.167729 V 12.5 12.832271 l 0.0328353,0.185427 0.0328353,0.185427 0.0808935,0.25 0.0808935,0.25 0.0780973,0.15625 0.0780973,0.15625 0.126911,0.1875 0.126911,0.1875 0.2359504,0.23595 0.2359504,0.235951 0.1875,0.126911 0.1875,0.126911 0.15625,0.0781 0.15625,0.0781 0.25,0.08141 0.25,0.0814 0.15625,0.02883 0.15625,0.02883 z m 8.5147949,0.0012 0.157493,0.0023 1.538478,-0.513966 1.538479,-0.513967 0.08924,-0.06354 0.08924,-0.06354 0.05073,-0.106901 0.05073,-0.1069 V 12 9.8688206 L 15.449272,9.76192 15.398545,9.6550191 15.309306,9.5914759 15.220068,9.5279325 13.681589,9.0139662 12.143111,8.5 H 12 11.856889 L 10.318411,9.0139662 8.7799322,9.5279325 8.6906938,9.5914759 8.6014553,9.6550191 8.5507278,9.76192 8.5,9.8688206 V 12 14.131179 l 0.050728,0.106901 0.050727,0.106901 0.089327,0.06361 0.089327,0.06361 1.524008,0.511596 1.524008,0.511597 0.157493,0.0023 z M 9.015625,10.03125 H 9 V 10.015625 10 H 9.015625 9.03125 v 0.01563 0.01563 z"
         id="path307" />
      <path
         style="fill:#fefefe;stroke-width:0.0003125"
         d="m 11.984013,10.997474 -0.03089,-0.0025 L 10.492186,10.505562 9.031248,10.01615 V 10.00003 9.983909 L 10.515625,9.4894603 12,8.9950378 13.484375,9.4894603 14.96875,9.9838828 v 0.016118 0.01612 L 13.491825,10.50806 12.0149,11 11.98401,10.9975 Z"
         id="path305" />
      <path
         style="fill:#cbcbcb;stroke-width:0.0003125"
         d="m 11.976563,14.997533 -0.02344,-0.0025 -1.46875,-0.492324 -1.46875,-0.492323 -0.00804,-1.989585 -0.00804,-1.989586 h 0.03929 0.03929 L 10.539059,10.518228 12,11.005206 V 13.002603 15 l -0.02344,-0.0025 z"
         id="path303" />
      <path
         style="fill:#fecb32;stroke-width:0.0003125"
         d="M 3.4708231,14.996505 3.234375,14.99301 3.078125,14.964182 2.921875,14.935353 2.6828497,14.856788 2.4438244,14.778223 2.2531478,14.662549 2.0624712,14.546875 1.8932078,14.411465 1.7239445,14.276056 1.5885347,14.106792 1.453125,13.937529 1.3374507,13.746852 1.2217764,13.556176 1.1433357,13.31715 1.064895,13.078125 1.028209,12.861271 0.9915232,12.644416 l 0.0181745,-0.283145 0.018175,-0.283146 0.046252,-0.172336 0.046252,-0.172336 0.066557,-0.177891 0.066558,-0.177891 0.1531109,-0.234542 0.153111,-0.234543 0.1883682,-0.185466 0.1883682,-0.185466 0.1427511,-0.08914 0.142751,-0.08914 -0.013917,-0.0625 -0.013918,-0.0625 L 2.1283675,9.98742 2.0626183,9.740465 2.0275778,9.45617 1.9925373,9.171875 2.0109397,8.8845903 2.029342,8.5973056 2.0948023,8.2760866 2.1602626,7.9548672 2.2235763,7.7664963 2.2868902,7.578125 2.3941096,7.3457231 2.5013291,7.1133213 2.7098924,6.7988481 2.9184557,6.484375 3.2014153,6.2014153 3.484375,5.9184556 3.7988481,5.7098925 4.1133212,5.5013291 4.3457231,5.3941097 4.578125,5.28689 4.7664963,5.2235763 4.9548672,5.1602625 5.2821213,5.0902028 5.609375,5.0201428 h 0.4375 0.4375 l 0.3272537,0.07006 0.3272541,0.07006 0.1883709,0.063314 L 7.515625,5.28689 7.7480269,5.3941097 7.9804287,5.5013291 8.2792769,5.7004966 8.578125,5.8996641 8.7890625,6.0932256 9,6.2867869 8.9992219,5.9324559 8.9984437,5.578125 8.8025691,5.4305794 8.6066941,5.2830338 8.3509222,5.1293103 8.0951503,4.9755869 7.8210128,4.8596984 7.5468753,4.74381 7.2031253,4.656189 6.8593753,4.568568 6.5496397,4.52979 6.2399037,4.491012 5.8465147,4.510948 5.4531253,4.530884 5.2421878,4.573045 5.0312503,4.615205 5.0319253,4.51854 5.0326003,4.421875 5.0917994,4.15625 5.1509981,3.890625 5.2356737,3.65625 5.3203497,3.421875 5.4298069,3.203125 5.5392641,2.984375 5.7229203,2.715684 5.9065762,2.4469929 6.1767834,2.1767857 6.4469906,1.9065785 6.7156819,1.7229224 6.9843728,1.5392663 l 0.21875,-0.1097896 0.21875,-0.1097896 0.265625,-0.093699 0.265625,-0.0937 0.265625,-0.057263 0.265625,-0.057263 h 0.515625 0.515625 l 0.265625,0.057263 0.2656252,0.057263 0.265625,0.0937 0.265625,0.093699 0.21875,0.1097896 0.21875,0.1097896 0.268691,0.1836561 0.268691,0.1836561 0.270207,0.2702072 0.270207,0.2702072 0.183656,0.2686911 0.183657,0.268691 0.109789,0.21875 0.10979,0.21875 0.0937,0.265625 0.0937,0.265625 0.05726,0.265625 0.05726,0.265625 V 5 5.515625 l -0.05726,0.265625 -0.05726,0.265625 -0.0937,0.265625 -0.0937,0.265625 -0.107788,0.21414 -0.107786,0.2141403 0.01235,0.01235 0.01235,0.01235 0.236419,0.060466 0.236418,0.060466 0.228196,0.097106 0.228195,0.097106 0.251604,0.1683997 0.251604,0.1684 0.217032,0.220089 0.217032,0.2200891 -0.01565,0.015647 -0.01565,0.015647 -0.982636,-0.327665 -0.982635,-0.327665 -0.390036,0.00396 -0.390036,0.00396 -0.05841,-0.1676168 -0.05841,-0.1676166 0.01356,-0.234375 0.01356,-0.234375 0.158208,-0.34375 0.158208,-0.34375 0.04809,-0.15625 0.04809,-0.15625 0.03866,-0.1875 0.03866,-0.1875 V 5 4.671875 L 11.94087,4.484375 11.90223,4.296875 11.837351,4.09375 11.772462,3.890625 11.663361,3.671875 11.55426,3.453125 11.458845,3.3125 11.363429,3.171875 11.142651,2.9419018 10.921873,2.7119286 l -0.1875,-0.1335656 -0.1875,-0.1335657 -0.21875,-0.1086305 -0.21875,-0.1086306 -0.2031252,-0.064889 -0.203125,-0.064889 -0.1875,-0.038642 -0.1875,-0.038642 h -0.328125 -0.328125 l -0.1875,0.038642 -0.1875,0.038642 -0.203125,0.064889 -0.203125,0.064889 -0.21875,0.1086306 -0.21875,0.1086305 -0.1875,0.1335657 -0.1875,0.1335656 L 6.8573444,2.9419018 6.6365662,3.171875 6.5370319,3.3181306 6.4374978,3.4643859 v 0.013949 0.013948 l 0.3014644,0.037946 0.301464,0.037945 0.3657919,0.089323 0.3657916,0.089323 0.3189953,0.1270872 0.3189953,0.1270872 0.1826344,0.092194 0.1826347,0.092194 0.3766,0.2517347 0.3766,0.251735 0.1509637,0.1477615 0.1509641,0.1477619 0.076988,0.15625 0.076988,0.15625 v 0.625 0.625 l -0.077379,0.15625 -0.077379,0.15625 -0.1257457,0.1257456 -0.1257456,0.1257457 -0.15625,0.076759 -0.15625,0.076758 h -0.28125 -0.28125 L 8.5554016,7.1915869 8.4076803,7.1187903 8.1647766,6.9010341 7.9218728,6.6832778 7.7127428,6.5435656 7.5036125,6.4038534 7.2752428,6.2984553 7.0468728,6.1930572 6.8524,6.1427656 6.6579269,6.0924741 6.3528062,6.0466706 6.0476856,6.0008672 5.7422947,6.04653 5.4369037,6.092193 5.2418881,6.14128 5.0468728,6.190367 l -0.3125,0.1538475 -0.3125,0.1538475 -0.2577691,0.2041369 -0.257769,0.2041372 -0.2041372,0.257769 -0.2041369,0.2577691 -0.1538475,0.3125 -0.1538475,0.3125 -0.048947,0.1944728 -0.048947,0.1944731 -0.046071,0.3055269 -0.046071,0.3055272 0.017729,0.15625 0.017729,0.15625 0.031511,0.171875 0.031511,0.171875 0.05997,0.1986044 0.05997,0.1986034 v 0.214367 0.214366 l -0.050759,0.149529 -0.050759,0.14953 -0.09118,0.132541 -0.09118,0.13254 -0.1783734,0.121554 -0.1783734,0.121553 -0.1499804,0.152156 -0.1499804,0.152156 -0.092639,0.1875 -0.092639,0.1875 -0.049379,0.242188 -0.049379,0.242187 0.049379,0.242188 0.049379,0.242187 0.092366,0.1875 0.092367,0.1875 0.1815027,0.181503 0.1815028,0.181503 0.1875,0.09237 0.1875,0.09237 0.2421875,0.04938 0.2421875,0.04938 0.2421875,-0.04938 0.2421875,-0.04938 0.1883206,-0.0927 0.1883207,-0.0927 0.1681868,-0.16992 0.1681869,-0.169919 0.073211,-0.120627 0.073211,-0.120627 0.096171,-0.294808 0.096171,-0.294808 0.092188,-0.13399 0.092188,-0.13399 0.1338175,-0.09207 0.1338175,-0.09207 0.1543556,-0.04728 0.1543556,-0.04728 0.2942016,-0.0193 0.2942012,-0.0193 0.2057988,-0.04381 0.2057984,-0.04381 0.1725775,-0.05993 0.1725772,-0.05993 0.1623212,-0.08225 0.1623213,-0.08225 h 0.016664 0.016664 v 0.559934 0.559934 l -0.2421875,0.08005 -0.2421875,0.08005 -0.2284469,0.04748 -0.2284468,0.04748 -0.3028032,0.01997 -0.3028031,0.01997 -0.084565,0.269129 -0.084565,0.269129 L 5.6654325,13.742202 5.5468728,13.937529 5.4114631,14.106792 5.2760534,14.276056 5.10679,14.411465 4.9375266,14.546875 4.74685,14.662549 4.5561734,14.778223 4.3171481,14.856277 4.0781228,14.934329 3.8926959,14.967165 3.7072691,15 3.4708209,14.996505 Z"
         id="path301" />
      <path
         style="fill:#989898;stroke-width:0.0003125"
         d="M 12.054688,14.986711 12,15.004212 V 13.00475 11.005287 l 1.500229,-0.500195 1.500229,-0.500195 -0.008,2.00272 -0.008,2.00272 -1.4375,0.479437 -1.4375,0.479436 z"
         id="path299" />
      <path
         style="fill:#cb6500;stroke-width:0.0003125"
         d="m 3.4708231,15.496505 -0.3614481,-0.0035 -0.15625,-0.02883 -0.15625,-0.02883 -0.25,-0.0814 -0.25,-0.08141 -0.15625,-0.0781 -0.15625,-0.0781 -0.1875,-0.126911 -0.1875,-0.126911 -0.2359504,-0.235951 -0.2359504,-0.23595 -0.126911,-0.1875 -0.12691101,-0.1875 -0.0780973,-0.15625 -0.0780973,-0.15625 -0.0808935,-0.25 -0.0808935,-0.25 L 0.53283528,13.017698 0.5,12.832271 V 12.5 12.167729 l 0.0328353,-0.185427 0.0328353,-0.185427 0.0808935,-0.25 0.0808935,-0.25 0.0780973,-0.15625 0.0780973,-0.15625 0.126911,-0.1875 0.126911,-0.1875 L 1.3803397,10.366191 1.6232053,10.123007 1.569823,9.8818159 1.5164407,9.640625 1.5165657,9 1.5166907,8.359375 1.5743257,8.0945891 1.6319607,7.8298031 1.7401087,7.5191019 1.8482568,7.2084003 1.9749848,6.9557628 2.1017128,6.703125 2.291542,6.4254606 2.4813712,6.1477963 2.8145841,5.8145834 3.147797,5.4813703 3.4254613,5.2915413 3.7031257,5.1017122 l 0.25,-0.1243631 0.25,-0.1243628 0.1451156,-0.05447 0.145116,-0.05447 L 4.5137617,4.5360856 4.534166,4.328125 4.5830632,4.0789641 4.6319607,3.8298031 4.7401088,3.5191019 4.848257,3.2084003 4.9749848,2.9557627 5.1017129,2.703125 5.291542,2.4254606 5.481371,2.1477962 5.8145842,1.8145833 6.147797,1.4813704 6.4254613,1.2915413 6.7031257,1.1017121 6.9557635,0.97498409 7.208401,0.84825613 7.5191026,0.74010803 7.8298038,0.63195997 8.0945898,0.574325 8.3593757,0.51669003 h 0.640625 0.640625 l 0.264786,0.057635 0.2647863,0.057635 0.310701,0.10814806 0.310701,0.1081481 0.252638,0.12672796 0.252638,0.12672805 0.277664,0.1898292 0.277664,0.1898291 0.333213,0.3332129 0.333213,0.3332129 0.189829,0.2776644 0.18983,0.2776644 0.126728,0.2526377 0.126727,0.2526376 0.108149,0.3107016 0.108148,0.3107012 0.05763,0.264786 0.05764,0.2647859 V 5 5.640625 l -0.05633,0.2583806 -0.05633,0.2583807 -0.09005,0.26641 -0.09005,0.2664096 0.06879,0.026487 0.06879,0.026487 0.178683,0.079371 0.178682,0.079371 0.227568,0.146839 0.227567,0.1468391 0.29225,0.2850125 0.292251,0.2850125 0.132984,0.1875 0.132984,0.1875 0.08459,0.1468059 0.08459,0.1468057 L 14.779884,8.3069878 14.39949,8.1797388 14.162318,7.9314928 13.925145,7.6832472 13.671907,7.5147481 13.418668,7.3462494 13.190473,7.2491431 12.962277,7.1520372 12.725859,7.0915716 12.48944,7.0311059 l -0.01235,-0.01235 -0.01235,-0.01235 0.107787,-0.2141403 0.107788,-0.21414 0.0937,-0.265625 0.0937,-0.265625 0.05726,-0.265625 0.05726,-0.265625 V 5 4.484375 L 12.924975,4.21875 12.867713,3.953125 12.774013,3.6875 12.680314,3.421875 12.570524,3.203125 12.460734,2.984375 12.277078,2.715684 12.093422,2.4469929 11.823215,2.1767857 11.553008,1.9065785 11.284317,1.7229224 11.015626,1.5392662 10.796876,1.4294767 10.578126,1.3196871 10.312501,1.2259876 10.046876,1.132288 9.7812507,1.0750252 9.5156257,1.0177625 h -0.515625 -0.515625 l -0.265625,0.057263 -0.265625,0.057263 -0.265625,0.0937 -0.265625,0.093699 -0.21875,0.1097896 -0.21875,0.1097895 L 6.7156848,1.7229224 6.4469935,1.9065785 6.1767863,2.1767857 5.9065792,2.4469929 5.7229232,2.715684 5.539267,2.984375 5.4298098,3.203125 5.3203526,3.421875 5.2356767,3.65625 5.151001,3.890625 5.0918023,4.15625 5.0326033,4.421875 5.0319283,4.51854 5.0312533,4.615205 5.2421908,4.573045 5.4531283,4.530884 5.8465177,4.510948 6.2399068,4.491012 6.5496427,4.52979 l 0.3097356,0.038778 0.34375,0.087621 0.34375,0.087621 0.2741375,0.1158884 0.2741375,0.1158885 0.2557719,0.1537234 0.2557719,0.1537234 0.195875,0.1475457 0.1958747,0.1475456 7.781e-4,0.3543309 7.781e-4,0.354331 L 8.7890654,6.0932256 8.5781279,5.8996641 8.2792798,5.7004966 7.9804317,5.5013291 7.7480298,5.3941097 7.5156279,5.28689 7.3272567,5.2235763 7.1388857,5.1602625 6.8116317,5.0902028 6.4843779,5.0201428 h -0.4375 -0.4375 L 5.2821242,5.0902028 4.9548701,5.1602625 4.7664992,5.2235763 4.5781279,5.28689 4.345726,5.3941097 4.1133242,5.5013291 3.798851,5.7098925 3.4843779,5.9184556 3.2014182,6.2014153 2.9184586,6.484375 2.7098953,6.7988481 2.501332,7.1133213 2.3941125,7.3457231 2.2868931,7.578125 l -0.063314,0.1883713 -0.063314,0.1883709 -0.06546,0.3212194 -0.06546,0.321219 -0.018402,0.2872847 -0.018402,0.2872847 0.035041,0.284295 0.035041,0.284295 0.065749,0.246955 0.065749,0.246955 0.013917,0.0625 0.013917,0.0625 -0.142751,0.08914 -0.1427511,0.08914 -0.1883682,0.185466 -0.1883682,0.185466 -0.153111,0.234543 -0.1531109,0.234542 -0.066815,0.178352 -0.066815,0.178352 -0.051431,0.1875 -0.051431,0.1875 V 12.5 12.890625 l 0.051431,0.1875 0.051431,0.1875 0.066815,0.178352 0.066815,0.178352 0.1514099,0.231937 0.1514099,0.231936 0.1787433,0.178744 0.1787434,0.178743 0.2319367,0.15141 0.2319368,0.15141 0.177891,0.06656 0.1778909,0.06656 0.172336,0.04625 0.1723359,0.04625 0.2831456,0.01817 0.2831453,0.01817 0.2168547,-0.03669 0.2168544,-0.03669 0.2390253,-0.07844 0.2390253,-0.07844 0.1906766,-0.115674 0.1906766,-0.115674 0.1692634,-0.13541 0.1692634,-0.135409 0.1354097,-0.169264 0.1354097,-0.169263 0.1185597,-0.195327 0.1185597,-0.195327 0.084565,-0.269129 0.084565,-0.269129 0.3074791,-0.02027 0.307479,-0.02027 0.270646,-0.06008 0.2706459,-0.06008 0.1845797,-0.06458 0.1845797,-0.06458 h 0.011949 0.01195 l -0.00903,0.270538 -0.00903,0.270538 -0.1661994,0.05641 -0.1661993,0.05641 -0.2556757,0.04702 -0.2556756,0.04702 -0.1502578,0.01884 -0.1502578,0.01884 -0.017416,0.0525 -0.017416,0.0525 -0.087439,0.193051 -0.087439,0.193051 -0.1339369,0.197574 -0.1339372,0.197574 -0.2359506,0.23595 -0.2359503,0.235951 -0.1875,0.126911 -0.1875,0.126911 -0.15625,0.0781 -0.15625,0.0781 -0.25,0.08089 -0.25,0.08089 L 4.017701,15.467165 3.8322742,15.5 3.470826,15.496505 Z m 0.013552,-1.499532 -0.0625,-0.0019 -0.203125,-0.04399 -0.203125,-0.04399 -0.1875,-0.09234 -0.1875,-0.09234 -0.1815028,-0.181503 -0.1815027,-0.181503 -0.092367,-0.1875 -0.092366,-0.1875 -0.049379,-0.242187 -0.049379,-0.242188 0.049379,-0.242187 0.049379,-0.242188 0.092639,-0.1875 0.092639,-0.1875 0.1499804,-0.152156 0.1499804,-0.152156 0.1783734,-0.121553 0.1783734,-0.121554 0.09118,-0.13254 0.09118,-0.132541 0.050759,-0.149529 0.050759,-0.14953 v -0.214366 -0.214366 l -0.05997,-0.1986044 -0.05997,-0.1986043 -0.031511,-0.171875 -0.031511,-0.171875 -0.017729,-0.15625 -0.017729,-0.15625 0.046071,-0.3055272 0.046071,-0.3055269 0.048947,-0.1944731 0.048947,-0.1944728 0.1538475,-0.3125 0.1538475,-0.3125 0.2041369,-0.2577691 0.2041372,-0.2577691 0.257769,-0.2041372 0.2577691,-0.2041368 0.3125,-0.1538475 0.3125,-0.1538475 0.1950153,-0.049087 0.1950156,-0.049087 0.305391,-0.045663 0.3053909,-0.045663 0.3051206,0.045803 0.3051207,0.045803 0.1944731,0.050292 0.1944728,0.050292 0.22837,0.1053982 0.2283697,0.1053981 0.2091303,0.1397122 0.20913,0.1397122 0.2429038,0.2177562 0.2429037,0.2177563 0.1477213,0.072796 0.1477212,0.072797 h 0.28125 0.28125 l 0.15625,-0.076758 0.15625,-0.076759 0.1257456,-0.1257456 0.1257457,-0.1257456 0.077379,-0.15625 0.077379,-0.15625 v -0.625 -0.625 L 9.9073872,5.1406263 9.8303994,4.9843763 9.6794353,4.8366144 9.5284716,4.6888528 9.1518716,4.4371178 8.7752716,4.1853831 8.5926369,4.0931894 8.4100025,4.0009956 8.0910072,3.8739084 7.7720119,3.7468213 7.4062203,3.6574981 7.0404284,3.568175 6.7389644,3.5302297 6.4375,3.4922841 V 3.4783356 3.4643872 L 6.5370341,3.3181319 6.6365684,3.1718763 6.8573466,2.941903 7.078125,2.7119298 l 0.1875,-0.1335656 0.1875,-0.1335656 0.21875,-0.1086306 0.21875,-0.1086306 0.203125,-0.064889 0.203125,-0.064889 0.1875,-0.038642 0.1875,-0.038642 H 9 9.328125 l 0.1875,0.038642 0.1875,0.038642 0.203125,0.064889 0.203125,0.064889 0.21875,0.1086306 0.21875,0.1086306 0.1875,0.1335656 0.1875,0.1335656 0.220778,0.2299732 0.220779,0.2299733 0.09542,0.140625 0.09541,0.140625 0.109101,0.21875 0.109101,0.21875 0.06489,0.203125 0.06489,0.203125 0.03864,0.1875 0.03864,0.1875 v 0.328125 0.328125 l -0.03866,0.1875 -0.03866,0.1875 -0.04809,0.15625 -0.04809,0.15625 -0.158208,0.34375 -0.158208,0.34375 -0.01374,0.234375 -0.01374,0.234375 0.0616,0.1744359 0.0616,0.1744362 -0.243779,0.079919 -0.24378,0.079919 -0.05429,-0.129355 -0.05429,-0.129355 -0.01371,-0.3368216 -0.01371,-0.3368213 0.03696,-0.1467946 0.03696,-0.1467947 L 11.188434,6.1257601 11.34118,5.7968764 11.39001,5.6059607 11.43884,5.4150454 11.46382,5.2075232 11.4888,5.0000014 11.463844,4.7924794 11.438861,4.5849572 11.390469,4.3940419 11.342077,4.2031263 11.235166,3.9767469 11.128255,3.7503678 11.026362,3.6017469 10.92447,3.453125 10.782548,3.3007806 10.640625,3.1484363 10.450352,3.0125708 10.260078,2.8767053 10.028477,2.7673143 9.796875,2.6579233 9.6059594,2.6095312 9.4150441,2.5611392 9.2075219,2.5361559 9,2.5111726 8.7924781,2.5361559 8.5849559,2.5611392 8.3940406,2.6093522 8.203125,2.6575654 l -0.25,0.1207478 -0.25,0.1207477 -0.1528028,0.1105896 -0.1528025,0.1105897 0.1371775,0.03532 0.1371778,0.03532 0.1698453,0.047739 0.169845,0.047739 0.3080734,0.122736 0.3080735,0.1227359 0.2140809,0.1078094 0.214081,0.1078097 0.3705003,0.2482631 0.3705006,0.2482634 0.1915559,0.1741097 0.1915561,0.1741094 0.09507,0.1492153 0.09508,0.149215 0.06493,0.1943266 L 10.5,5.2792784 V 5.921875 6.5644716 L 10.43507,6.7587984 10.37014,6.953125 10.27754,7.0984878 10.18494,7.2438506 10.037778,7.3807341 9.890625,7.5176175 9.78125,7.584275 9.671875,7.6509328 9.4775484,7.7160912 9.2832216,7.78125 H 8.984375 8.6855284 L 8.4912016,7.7160912 8.296875,7.6509328 8.1895922,7.5850072 8.0823094,7.5190819 7.8614672,7.31966 7.640625,7.1202384 7.4317691,6.9809781 7.2229131,6.8417181 7.0213234,6.7503128 6.8197334,6.6589075 6.5065203,6.5950787 6.1933072,6.53125 H 6.046875 5.9004428 L 5.5830337,6.59544 5.265625,6.65963 5.0098762,6.7828341 4.7541272,6.9060384 4.5098178,7.0901313 4.2655084,7.2742238 4.0848328,7.5161188 3.9041575,7.7580134 3.7818937,8.0118191 3.65963,8.265625 3.59544,8.5830338 3.53125,8.9004428 V 9.0736831 9.2469238 L 3.565247,9.4125244 3.599244,9.578125 3.658997,9.7767294 3.71875,9.9753334 v 0.3414446 0.341444 l -0.064931,0.194326 -0.064931,0.194327 -0.092604,0.145363 -0.092604,0.145363 -0.1482428,0.135887 -0.1482427,0.135887 -0.1459938,0.09996 -0.1459938,0.09996 -0.095922,0.132417 -0.095922,0.132417 -0.049864,0.171525 -0.049864,0.171526 0.017551,0.170056 0.017551,0.170056 0.080937,0.165429 0.080937,0.165429 0.1280566,0.115692 0.1280567,0.115691 0.1389835,0.06148 0.1389837,0.06148 0.1640597,0.01693 0.1640593,0.01693 0.171526,-0.04986 0.1715256,-0.04986 0.130705,-0.09468 0.1307053,-0.09468 0.092068,-0.127096 0.092068,-0.127097 0.097351,-0.302477 0.097351,-0.302478 0.094956,-0.148054 0.094956,-0.148055 0.1689363,-0.154398 0.1689362,-0.154398 0.1702944,-0.08056 0.1702944,-0.08056 0.149945,-0.02942 0.149945,-0.02942 0.34375,-0.03173 0.34375,-0.03173 0.1875,-0.04883 0.1875,-0.04883 0.25,-0.12202 0.25,-0.12202 L 7.3984361,11.03036 7.5,10.962613 v 0.31064 0.310641 l -0.2421875,0.111319 -0.2421875,0.111319 -0.15625,0.04762 -0.15625,0.04762 -0.1583566,0.03193 -0.1583565,0.03193 -0.2947685,0.01934 -0.2947684,0.01934 -0.1543556,0.04728 -0.1543557,0.04728 -0.1338175,0.09207 -0.1338175,0.09207 -0.092187,0.13399 -0.092188,0.13399 -0.096171,0.294808 -0.096171,0.294808 -0.073211,0.120627 -0.073211,0.120627 -0.1681869,0.169919 -0.1681869,0.16992 -0.1883206,0.09247 -0.1883206,0.09247 -0.21875,0.04613 -0.21875,0.04613 -0.0625,-0.0019 z"
         id="path297" />
      <path
         style="fill:#323232;stroke-width:0.0003125"
         d="M 11.985618,15.497693 11.828125,15.495387 10.304117,14.98379 8.7801088,14.472194 8.6907822,14.408588 8.6014553,14.344982 8.5507278,14.238081 8.5,14.131179 V 12 9.8688206 L 8.5507278,9.76192 8.6014553,9.6550191 8.6906938,9.5914759 8.7799322,9.5279325 10.318411,9.0139662 11.856889,8.5 H 12 12.143111 l 1.538478,0.5139662 1.538479,0.5139663 0.08924,0.063543 0.08924,0.063543 L 15.449272,9.76192 15.5,9.8688206 V 12 14.131179 l -0.05073,0.106901 -0.05073,0.106901 -0.08924,0.06354 -0.08924,0.06354 -1.538479,0.513966 -1.538478,0.513966 -0.157493,-0.0023 z m -9.97e-4,-0.50016 0.0315,0.0025 1.484127,-0.494833 1.484127,-0.494833 V 11.999958 9.9895825 L 13.492188,9.4921875 12,8.9947916 10.507813,9.4921875 9.015625,9.9895834 v 2.0104156 2.010415 l 1.46875,0.492327 1.46875,0.492326 0.0315,0.0025 z"
         id="path295" />
    </g>
  </g>
</svg>
