<?xml version="1.0" encoding="UTF-8" standalone="no"?>
<!-- Created with Inkscape (http://www.inkscape.org/) -->

<svg
   version="1.1"
   id="svg2"
   width="1600"
   height="1600"
   viewBox="0 0 1600 1600"
   sodipodi:docname="meta_ellipsoid.svg"
   inkscape:version="1.2.2 (732a01da63, 2022-12-09)"
   xmlns:inkscape="http://www.inkscape.org/namespaces/inkscape"
   xmlns:sodipodi="http://sodipodi.sourceforge.net/DTD/sodipodi-0.dtd"
   xmlns="http://www.w3.org/2000/svg"
   xmlns:svg="http://www.w3.org/2000/svg"
   xmlns:rdf="http://www.w3.org/1999/02/22-rdf-syntax-ns#"
   xmlns:cc="http://creativecommons.org/ns#"
   xmlns:dc="http://purl.org/dc/elements/1.1/">
  <metadata
     id="metadata8">
    <rdf:RDF>
      <cc:Work
         rdf:about="">
        <dc:format>image/svg+xml</dc:format>
        <dc:type
           rdf:resource="http://purl.org/dc/dcmitype/StillImage" />
      </cc:Work>
    </rdf:RDF>
  </metadata>
  <defs
     id="defs6" />
  <sodipodi:namedview
     pagecolor="#808080"
     bordercolor="#666666"
     borderopacity="1"
     objecttolerance="10"
     gridtolerance="10"
     guidetolerance="10"
     inkscape:pageopacity="0"
     inkscape:pageshadow="2"
     inkscape:window-width="1993"
     inkscape:window-height="1009"
     id="namedview4"
     showgrid="false"
     inkscape:zoom="0.5"
     inkscape:cx="321"
     inkscape:cy="320"
     inkscape:window-x="-8"
     inkscape:window-y="-8"
     inkscape:window-maximized="1"
     inkscape:current-layer="META_ELLIPSOID"
     inkscape:showpageshadow="0"
     inkscape:pagecheckerboard="true"
     inkscape:deskcolor="#d1d1d1" />
  <g
     id="META_ELLIPSOID"
     transform="matrix(100,0,0,100,0,4.9999997e-5)"
     style="stroke-width:0.0114286">
    <path
       style="fill:none;stroke-width:0.000357143"
       d="M 0.00425569,11.367188 C 0.00659632,8.8191406 0.01427109,6.7695312 0.02131075,6.8125 0.13362148,7.4980241 0.29653684,8.0310394 0.564357,8.5892009 1.5742093,10.693825 3.6613066,11.998155 6.0216684,11.999744 l 0.3810432,2.5e-4 0.1551634,0.164062 c 0.08534,0.09023 0.1566244,0.178125 0.1584097,0.195313 0.00403,0.03879 0.8813294,0.920428 0.9077219,0.912209 0.010526,-0.0033 0.1353375,0.09951 0.2773571,0.228416 0.14202,0.128906 0.2750466,0.240067 0.2956147,0.247024 0.020568,0.007 0.1092253,0.07375 0.1970157,0.148437 0.087791,0.07468 0.1702834,0.135789 0.1833175,0.135789 0.013034,0 0.113169,0.07031 0.2225225,0.15625 0.1093534,0.08594 0.2083456,0.15625 0.2199828,0.15625 0.011637,0 0.067251,0.03516 0.1235859,0.07813 0.056335,0.04297 0.1113784,0.07813 0.1223191,0.07813 0.010941,0 0.078676,0.04044 0.1505225,0.08988 0.071847,0.04943 0.1376618,0.08816 0.1462556,0.08606 0.00859,-0.0021 0.057813,0.02494 0.109375,0.06009 0.096057,0.06547 0.2377247,0.13324 0.265625,0.127059 0.00859,-0.0019 0.058962,0.0274 0.111928,0.06511 0.05297,0.03772 0.172498,0.09839 0.265625,0.134823 0.09313,0.03644 0.200963,0.08671 0.239634,0.111713 0.03867,0.025 0.07031,0.03829 0.07031,0.02951 0,-0.0088 0.07868,0.01885 0.174853,0.06138 0.159649,0.0706 0.3679,0.138439 0.427037,0.139101 0.01307,1.57e-4 0.06238,0.02023 0.109566,0.04464 0.04719,0.0244 0.13653,0.05243 0.198533,0.06229 0.062,0.0099 0.151758,0.03275 0.199456,0.05089 0.0477,0.01814 0.09286,0.02683 0.100366,0.01933 0.0075,-0.0075 0.05829,-1.56e-4 0.112854,0.01635 0.184222,0.0557 0.378412,0.06988 0.94296,0.06885 0.522349,-9.47e-4 0.765014,-0.01868 0.833338,-0.06091 0.01529,-0.0094 0.0688,-0.02237 0.118918,-0.02871 0.05012,-0.0063 0.134099,-0.03376 0.186622,-0.06092 0.05252,-0.02716 0.0955,-0.04167 0.0955,-0.03224 0,0.0094 0.03516,-0.0059 0.07813,-0.03404 0.04297,-0.02815 0.07813,-0.04187 0.07813,-0.03047 0,0.0114 0.0623,-0.02214 0.138443,-0.07453 0.07614,-0.05238 0.154173,-0.09525 0.173399,-0.09525 0.04562,0 0.656908,-0.611285 0.656908,-0.656908 0,-0.01923 0.04286,-0.09726 0.09525,-0.173399 0.05239,-0.07614 0.08593,-0.138443 0.07453,-0.138443 -0.0114,0 0.0023,-0.03516 0.03047,-0.07813 0.02815,-0.04297 0.04347,-0.07813 0.03404,-0.07813 -0.0094,0 0.0051,-0.04297 0.03224,-0.0955 0.02716,-0.05252 0.05457,-0.136503 0.06092,-0.186622 0.0063,-0.05012 0.01926,-0.103632 0.02871,-0.118918 0.04223,-0.06832 0.05996,-0.310989 0.06091,-0.833338 10e-4,-0.564548 -0.01316,-0.758738 -0.06885,-0.94296 -0.0165,-0.05457 -0.02386,-0.10535 -0.01635,-0.112854 0.0075,-0.0075 -0.0012,-0.05267 -0.01933,-0.100366 -0.01813,-0.0477 -0.04103,-0.137453 -0.05089,-0.199456 -0.0099,-0.062 -0.03788,-0.151343 -0.06228,-0.198533 -0.0244,-0.04719 -0.04449,-0.0965 -0.04463,-0.109566 -6.63e-4,-0.05914 -0.0685,-0.267388 -0.139101,-0.427037 -0.04253,-0.09617 -0.07015,-0.174853 -0.06138,-0.174853 0.0088,0 -0.0045,-0.03164 -0.02951,-0.07031 -0.02501,-0.03867 -0.07527,-0.146507 -0.111713,-0.239634 -0.03644,-0.09313 -0.09711,-0.212658 -0.134823,-0.265625 -0.03772,-0.052966 -0.06381,-0.096303 -0.05799,-0.096303 0.01767,0 -0.06682,-0.1823853 -0.123053,-0.265625 C 14.71815,9.644531 14.69111,9.595313 14.68709,9.578125 14.68309,9.560937 14.63934,9.488091 14.58991,9.4162444 14.540444,9.3443978 14.5,9.2766625 14.5,9.2657219 14.5,9.2547809 14.46484,9.1997379 14.42187,9.1434028 14.3789,9.0870678 14.34374,9.0314541 14.34374,9.0198169 c 0,-0.011637 -0.07031,-0.1106294 -0.15625,-0.2199828 -0.08594,-0.1093535 -0.15625,-0.2094888 -0.15625,-0.2225225 0,-0.013034 -0.0611,-0.095527 -0.135788,-0.1833175 C 13.820778,8.3062038 13.753981,8.2175466 13.747024,8.1969784 13.740067,8.1764103 13.628906,8.0433838 13.5,7.9013638 13.371094,7.7593441 13.268307,7.6345331 13.271585,7.6240066 c 0.0081,-0.025918 -0.891342,-0.9219185 -0.920427,-0.916936 -0.01267,0.00217 -0.103892,-0.070916 -0.20272,-0.1624134 L 11.96875,6.3782981 11.9685,6.0250866 C 11.967158,4.1850228 11.133445,2.4486143 9.703125,1.3069117 8.8444684,0.62151909 7.7340584,0.16271606 6.625,0.03508125 6.4846037,0.01892391 8.3171913,0.00648281 11.195313,0.00405423 L 16,0 v 8 8 H 8 0 Z M 5.34375,10.947513 C 4.6848344,10.840185 4.2200438,10.691756 3.6868441,10.418388 2.7656129,9.9460794 2.0226708,9.2031372 1.5503619,8.2819059 1.1175043,7.4376237 0.91271684,6.4623872 0.99593019,5.6415966 1.0718632,4.8926159 1.2306806,4.3416275 1.5503619,3.7180941 2.0226708,2.7968629 2.7656129,2.0539208 3.6868441,1.5816119 4.5311262,1.1487543 5.5063628,0.94396684 6.3271534,1.0271802 c 0.7489807,0.075933 1.2999691,0.2347504 1.9235025,0.5544317 0.9212313,0.4723089 1.6641735,1.215251 2.1364821,2.1364822 0.287837,0.5614206 0.461527,1.12289 0.536407,1.7339818 l 0.02285,0.186451 -0.07476,-0.05408 c -0.04112,-0.029744 -0.09585,-0.06328 -0.121633,-0.074525 -0.02578,-0.011244 -0.103125,-0.058521 -0.171875,-0.1050594 -0.06875,-0.046538 -0.139062,-0.087904 -0.15625,-0.091924 -0.01719,-0.00402 -0.06641,-0.031058 -0.109375,-0.060085 -0.08324,-0.056231 -0.265625,-0.1407221 -0.265625,-0.1230525 0,0.00582 -0.04334,-0.020278 -0.096303,-0.057993 C 9.897605,5.0340922 9.7780737,4.9734219 9.6849469,4.9369847 9.5918197,4.9005475 9.4839844,4.8502769 9.4453125,4.8252722 9.4066406,4.8002675 9.375,4.7869872 9.375,4.7957606 9.375,4.8045306 9.296316,4.7769136 9.2001469,4.7343836 9.0404981,4.6637794 8.8322466,4.5959444 8.77311,4.5952825 8.7600394,4.5951262 8.7107347,4.5750503 8.6635444,4.5506472 8.6163541,4.5262441 8.5270141,4.4982156 8.4650109,4.4883616 8.4030081,4.4785078 8.3132531,4.4556081 8.2655553,4.4374734 8.2178575,4.4193387 8.1726925,4.4106409 8.1651887,4.4181447 c -0.0075,0.0075 -0.058288,1.562e-4 -0.1128534,-0.016351 -0.1842222,-0.055696 -0.3784122,-0.069876 -0.9429603,-0.068854 -0.5223491,9.437e-4 -0.7650144,0.018682 -0.8333378,0.060907 -0.015286,0.00945 -0.068799,0.022367 -0.1189185,0.028709 -0.050119,0.00634 -0.134099,0.033755 -0.1866221,0.060916 C 5.9179734,4.5106325 5.875,4.5251384 5.875,4.5157072 c 0,-0.00943 -0.035156,0.00589 -0.078125,0.034042 -0.042969,0.028154 -0.078125,0.041865 -0.078125,0.030469 0,-0.011396 -0.062299,0.022143 -0.1384431,0.074531 C 5.5041634,4.7071369 5.4261337,4.75 5.4069075,4.75 5.361285,4.75 4.75,5.361285 4.75,5.4069075 4.75,5.4261335 4.707137,5.5041635 4.654749,5.5803069 4.602361,5.6564509 4.568822,5.71875 4.580218,5.71875 c 0.011396,0 -0.00232,0.035156 -0.030469,0.078125 C 4.5215944,5.8398437 4.5062756,5.875 4.5157072,5.875 c 0.00943,0 -0.00507,0.042973 -0.032235,0.095497 -0.027161,0.052523 -0.054573,0.1365031 -0.060916,0.1866222 -0.00634,0.050119 -0.019262,0.1036324 -0.028709,0.1189184 -0.042226,0.068323 -0.059962,0.3109887 -0.060907,0.8333378 -0.00102,0.5645481 0.013158,0.7587381 0.068854,0.9429603 0.016497,0.054566 0.023855,0.1053497 0.016351,0.1128535 -0.0075,0.0075 0.00119,0.052669 0.019329,0.1003665 0.018135,0.047698 0.041034,0.1374528 0.050888,0.1994556 0.00985,0.062003 0.037883,0.1513432 0.062286,0.1985335 0.024403,0.04719 0.042596,0.089464 0.040428,0.093941 -0.010942,0.022597 0.075175,0.2886 0.1433084,0.4426619 0.042531,0.096169 0.07015,0.1748531 0.061377,0.1748531 -0.00877,0 0.00451,0.031641 0.029512,0.070312 0.025005,0.038672 0.075275,0.1465072 0.1117125,0.2396344 0.036437,0.093127 0.097107,0.2126581 0.1348234,0.265625 0.037716,0.052966 0.067016,0.1033338 0.065112,0.1119278 -0.00571,0.02579 0.059566,0.166559 0.1159331,0.25 0.029027,0.04297 0.051227,0.08516 0.049335,0.09375 -0.00189,0.0086 0.041841,0.08144 0.097185,0.161881 C 5.4547181,10.648571 5.5,10.723338 5.5,10.734278 c 0,0.01094 0.036825,0.06817 0.081834,0.127182 l 0.081834,0.10729 -0.1208965,-0.0043 c -0.066493,-0.0023 -0.1560529,-0.01 -0.1990216,-0.01698 z M 0.00425569,2.6328125 0,0 2.7734375,0.00405423 C 4.5111587,0.00659444 5.4593497,0.01818122 5.3125,0.03508125 3.7283653,0.21738968 2.2653122,1.0257957 1.2756617,2.265625 0.62277641,3.0835566 0.20753626,4.0508137 0.02131075,5.1875 0.01427109,5.2304687 0.00659632,4.0808594 0.00425569,2.6328125 Z"
       id="path825"
       inkscape:connector-curvature="0" />
    <path
       style="fill:#fefefe;stroke-width:0.000357143"
       d="m 12.453125,14.654338 c -0.250684,-0.03497 -0.402464,-0.06088 -0.458441,-0.07826 -0.0287,-0.0089 -0.08144,-0.02264 -0.117187,-0.03051 -0.03575,-0.0079 -0.09221,-0.02036 -0.125469,-0.02775 -0.03326,-0.0074 -0.08951,-0.02898 -0.125,-0.04798 -0.03549,-0.01899 -0.06453,-0.02846 -0.06453,-0.02104 0,0.0074 -0.130078,-0.03548 -0.289063,-0.09534 -0.158984,-0.05986 -0.303125,-0.112262 -0.320312,-0.116455 -0.0646,-0.01576 -0.534686,-0.249252 -0.617188,-0.306561 -0.04726,-0.03283 -0.08594,-0.05075 -0.08594,-0.03982 0,0.01093 -0.04219,-0.01016 -0.09375,-0.04687 -0.05156,-0.03672 -0.09375,-0.05805 -0.09375,-0.04741 0,0.01064 -0.04703,-0.01653 -0.1045122,-0.06037 -0.057482,-0.04384 -0.1143322,-0.07972 -0.1263344,-0.07972 -0.012002,0 -0.098353,-0.05654 -0.1918915,-0.125638 -0.093538,-0.0691 -0.1781435,-0.124337 -0.1880113,-0.122748 -0.00987,0.0016 -0.076877,-0.04486 -0.1489087,-0.103222 C 9.23081,13.24628 9.1507812,13.190249 9.125,13.180129 9.0992187,13.17001 8.9564097,13.056041 8.8076462,12.926865 8.6588831,12.797688 8.5300216,12.699145 8.5212869,12.70788 8.5125525,12.716614 8.2288437,12.447198 7.8908228,12.109177 7.5528019,11.771156 7.2833859,11.487447 7.2921203,11.478713 7.3008547,11.469978 7.2023116,11.341117 7.0731353,11.192354 6.9439594,11.04359 6.82999,10.900781 6.8198706,10.875 6.8097506,10.84922 6.7537206,10.76919 6.6953584,10.697158 6.6369964,10.625128 6.5905459,10.558117 6.5921356,10.548249 6.5937256,10.538349 6.5384886,10.453779 6.4693878,10.360238 6.4002869,10.2667 6.34375,10.180349 6.34375,10.168347 c 0,-0.012 -0.035872,-0.06885 -0.079715,-0.126335 C 6.2201912,9.9845306 6.1930237,9.9375 6.2036625,9.9375 6.2143012,9.9375 6.1929656,9.8953125 6.15625,9.84375 6.1195344,9.7921875 6.0984406,9.75 6.109375,9.75 6.120309,9.75 6.102395,9.711328 6.069559,9.664063 6.0122497,9.5815613 5.7787541,9.1114753 5.7629975,9.046875 5.758805,9.0296875 5.7064003,8.8855469 5.6465425,8.7265625 5.5866844,8.5675781 5.5437822,8.4375 5.5512044,8.4375 c 0.00742,0 -0.00205,-0.029037 -0.02104,-0.064528 -0.018994,-0.03549 -0.040583,-0.09174 -0.047975,-0.125 C 5.4747994,8.214713 5.4623094,8.158252 5.4544374,8.1225035 5.4465672,8.0867556 5.4330094,8.0340212 5.42431,8.0053159 5.4046994,7.9406062 5.3820697,7.8080659 5.3476066,7.5560656 5.3179753,7.3393969 5.3267712,6.6465037 5.3598322,6.59301 5.3715053,6.5741225 5.3880975,6.5139906 5.3967038,6.4593834 5.40531,6.4047762 5.4324334,6.3212631 5.4569781,6.2737987 5.4815228,6.2263344 5.493255,6.1875 5.4830497,6.1875 c -0.010206,0 0.010527,-0.040843 0.046073,-0.090762 0.035545,-0.049919 0.064628,-0.1058631 0.064628,-0.1243206 0,-0.043737 0.3349303,-0.3786678 0.3786678,-0.3786678 0.018458,0 0.074402,-0.029083 0.1243206,-0.064628 0.049919,-0.035546 0.090762,-0.056278 0.090762,-0.046073 0,0.010205 0.038834,-0.00153 0.086299,-0.026072 0.047464,-0.024545 0.1309775,-0.051668 0.1855847,-0.060274 0.054607,-0.00861 0.1147391,-0.025198 0.1336266,-0.036872 0.053494,-0.033061 0.7463869,-0.041857 0.9630556,-0.012226 0.2520003,0.034463 0.3845406,0.057093 0.4492503,0.076703 0.028705,0.0087 0.08144,0.022257 0.1171875,0.030128 0.035748,0.00787 0.092209,0.02036 0.1254685,0.027752 0.03326,0.00739 0.08951,0.028981 0.125,0.047975 0.035491,0.018994 0.064528,0.028461 0.064528,0.02104 0,-0.00742 0.1300781,0.03548 0.2890625,0.095338 0.1589844,0.059858 0.303125,0.1122625 0.3203125,0.116455 0.0646,0.015757 0.5346863,0.2492522 0.6171875,0.3065616 0.047266,0.032833 0.085937,0.05075 0.085937,0.039816 0,-0.010934 0.042188,0.010159 0.09375,0.046875 0.051562,0.036716 0.09375,0.058051 0.09375,0.047413 0,-0.010639 0.047031,0.016529 0.1045122,0.060372 0.05748,0.043843 0.114332,0.079715 0.126335,0.079715 0.012,0 0.09835,0.056537 0.191891,0.1256378 0.09354,0.069101 0.178144,0.1243372 0.188011,0.1227478 0.0099,-0.00159 0.07688,0.044861 0.148909,0.1032228 0.07203,0.058362 0.152061,0.1143925 0.177842,0.1245122 0.02578,0.010119 0.16859,0.1240888 0.317354,0.2532647 0.148763,0.1291763 0.277624,0.2277194 0.286359,0.218985 0.0087,-0.00873 0.292443,0.2606816 0.630464,0.5987025 0.338021,0.3380209 0.607437,0.6217297 0.598703,0.6304641 -0.0087,0.00873 0.08981,0.1375962 0.218985,0.2863594 0.129176,0.1487634 0.243145,0.2915724 0.253264,0.3173537 0.01012,0.025781 0.06395,0.103125 0.119623,0.171875 0.05567,0.06875 0.102123,0.1357588 0.103223,0.1489088 0.0011,0.01315 0.05854,0.1004396 0.127637,0.1939781 0.0691,0.093538 0.125638,0.1798894 0.125638,0.1918915 0,0.012002 0.03587,0.068853 0.07972,0.1263344 0.04384,0.057481 0.07101,0.104512 0.06037,0.104512 -0.01064,0 0.0107,0.04219 0.04741,0.09375 0.03672,0.05156 0.05781,0.09375 0.04687,0.09375 -0.01093,0 0.007,0.03867 0.03982,0.08594 0.05731,0.0825 0.290805,0.552587 0.306562,0.617187 0.0042,0.01719 0.0566,0.161328 0.116455,0.320313 0.05986,0.158984 0.10276,0.289062 0.09534,0.289062 -0.0074,0 0.002,0.02904 0.02104,0.06453 0.01899,0.03549 0.04058,0.09174 0.04798,0.125 0.0074,0.03326 0.01988,0.08972 0.02775,0.125469 0.0079,0.03575 0.02143,0.08848 0.03013,0.117187 0.01961,0.06471 0.04224,0.19725 0.0767,0.44925 0.02963,0.216669 0.02084,0.909562 -0.01223,0.963056 -0.01167,0.01889 -0.02826,0.07902 -0.03687,0.133627 -0.0086,0.05461 -0.03573,0.13812 -0.06027,0.185584 -0.02454,0.04747 -0.03628,0.0863 -0.02607,0.0863 0.01021,0 -0.01053,0.04084 -0.04607,0.09076 -0.03555,0.04992 -0.06463,0.105863 -0.06463,0.12432 0,0.01846 -0.07765,0.111209 -0.172554,0.206114 -0.09491,0.09491 -0.187656,0.172554 -0.206114,0.172554 -0.01846,0 -0.0744,0.02908 -0.12432,0.06463 -0.04992,0.03554 -0.09076,0.05628 -0.09076,0.04607 0,-0.0102 -0.03883,0.0015 -0.0863,0.02607 -0.04746,0.02454 -0.130977,0.05167 -0.185584,0.06027 -0.05461,0.0086 -0.114577,0.0251 -0.133265,0.03665 -0.04806,0.0297 -0.766777,0.04054 -0.954227,0.01439 z"
       id="path823"
       inkscape:connector-curvature="0" />
    <path
       style="fill:#fecb32;stroke-width:0.000357143"
       d="M 5.3125,11.964919 C 4.2034416,11.837284 3.0930316,11.378481 2.234375,10.693088 1.1433197,9.8221916 0.38828122,8.5927753 0.08871377,7.1993453 0.02210897,6.889535 0.015625,6.7831369 0.015625,6 0.015625,5.2168631 0.022109,5.110465 0.08871377,4.8006547 0.49030478,2.9326647 1.6817189,1.4102691 3.3795491,0.595607 5.5085472,-0.42594044 8.0120637,-0.10912865 9.828125,1.411653 c 1.354792,1.1345118 2.139083,2.8263936 2.140369,4.6172317 l 2.5e-4,0.35701 -0.07233,-0.067947 C 11.856644,6.2805762 11.813183,6.25 11.799845,6.25 11.786505,6.25 11.701525,6.186719 11.61099,6.109375 11.52046,6.032031 11.435722,5.96875 11.422688,5.96875 c -0.01303,0 -0.113169,-0.070312 -0.222522,-0.15625 -0.109353,-0.085937 -0.211372,-0.15625 -0.226709,-0.15625 -0.01534,0 -0.0378,-0.087891 -0.04992,-0.1953125 C 10.856366,4.8656459 10.67747,4.2843819 10.387138,3.7180941 9.9148294,2.7968629 9.1718872,2.0539208 8.2506559,1.5816119 7.4063737,1.1487543 6.4311372,0.94396684 5.6103466,1.0271802 4.8613659,1.1031132 4.3103775,1.2619306 3.6868441,1.5816119 2.7656129,2.0539208 2.0226708,2.7968629 1.5503619,3.7180941 1.2306806,4.3416275 1.0718632,4.8926159 0.99593019,5.6415966 0.93823819,6.2106525 1.0337853,6.9424038 1.2508292,7.59375 c 0.1346555,0.4041 0.4562215,1.0205584 0.7094389,1.3600309 0.4554087,0.6105379 1.0583978,1.1220371 1.726576,1.4646071 0.5704646,0.292474 1.1753728,0.477471 1.7568953,0.537308 l 0.1968856,0.02026 0.1640625,0.212672 c 0.090234,0.11697 0.1640625,0.222817 0.1640625,0.235216 0,0.0124 0.063281,0.09661 0.140625,0.187147 C 6.186719,11.701521 6.25,11.786644 6.25,11.80015 c 0,0.01351 0.037787,0.064 0.083972,0.112204 L 6.4179431,12 5.9824091,11.995946 C 5.7428653,11.993716 5.4414062,11.979754 5.3125,11.964919 Z"
       id="path821"
       inkscape:connector-curvature="0" />
    <path
       style="fill:#323232;stroke-width:0.000357143"
       d="m 12.336511,15.669844 c -0.0084,-0.0084 -0.07705,-0.02125 -0.152481,-0.02848 -0.07544,-0.0072 -0.1818,-0.02666 -0.236365,-0.04315 -0.05457,-0.0165 -0.10535,-0.02386 -0.112854,-0.01635 -0.0075,0.0075 -0.05267,-0.0012 -0.100366,-0.01933 -0.0477,-0.01813 -0.137453,-0.04103 -0.199456,-0.05089 -0.062,-0.0099 -0.151343,-0.03788 -0.198533,-0.06228 -0.04719,-0.0244 -0.08946,-0.0426 -0.09394,-0.04043 -0.0226,0.01094 -0.2886,-0.07517 -0.442662,-0.143308 -0.09617,-0.04253 -0.174853,-0.07015 -0.174853,-0.06138 0,0.0088 -0.03164,-0.0045 -0.07031,-0.02951 -0.03867,-0.02501 -0.146508,-0.07527 -0.239635,-0.111713 -0.09313,-0.03644 -0.212658,-0.09711 -0.265625,-0.134823 -0.052966,-0.03772 -0.096303,-0.06381 -0.096303,-0.05799 0,0.01942 -0.1862931,-0.06945 -0.28125,-0.134179 -0.051562,-0.03515 -0.1007813,-0.06218 -0.109375,-0.06008 -0.00859,0.0021 -0.074409,-0.03663 -0.1462556,-0.08606 C 9.3443978,14.540444 9.2766625,14.5 9.2657219,14.5 9.2547809,14.5 9.1997379,14.46484 9.1434028,14.42187 9.0870678,14.3789 9.0314541,14.34374 9.0198169,14.34374 c -0.011637,0 -0.1106294,-0.07031 -0.2199828,-0.15625 -0.1093535,-0.08594 -0.2094888,-0.15625 -0.2225225,-0.15625 -0.013034,0 -0.095527,-0.0611 -0.1833175,-0.135788 C 8.3062038,13.820778 8.2175466,13.753981 8.1969784,13.747024 8.1764103,13.740067 8.0433838,13.628906 7.9013638,13.5 7.7593441,13.371094 7.6345331,13.268307 7.6240066,13.271585 7.5986284,13.279487 6.702305,12.38083 6.7059697,12.351158 6.7075353,12.33849 6.6090966,12.218391 6.4872197,12.084272 6.3653425,11.950152 6.2599328,11.82359 6.2529759,11.803022 6.2460187,11.782453 6.1792219,11.693796 6.1045384,11.606006 6.0298547,11.518215 5.96875,11.435723 5.96875,11.422688 c 0,-0.01303 -0.070312,-0.113169 -0.15625,-0.222522 -0.085937,-0.109353 -0.15625,-0.208346 -0.15625,-0.219983 0,-0.01164 -0.035156,-0.06725 -0.078125,-0.123586 C 5.5351562,10.800262 5.5,10.745219 5.5,10.734278 c 0,-0.01094 -0.045282,-0.08571 -0.1006266,-0.166147 -0.055344,-0.08044 -0.094071,-0.146256 -0.086059,-0.146256 0.00801,0 -0.014189,-0.04219 -0.049335,-0.09375 C 5.1985056,10.232068 5.13074,10.0904 5.1369206,10.0625 5.1388206,10.0539 5.1095236,10.00354 5.0718086,9.9505719 5.0340922,9.897605 4.9734219,9.7780737 4.9369847,9.6849469 4.9005475,9.5918197 4.8502769,9.4839844 4.8252722,9.4453125 4.8002675,9.4066406 4.7869872,9.375 4.7957606,9.375 4.8045306,9.375 4.7769136,9.296316 4.7343836,9.2001469 4.66625,9.046085 4.5801334,8.7800819 4.591075,8.757485 4.593245,8.753005 4.57505,8.710735 4.550647,8.663544 4.526244,8.616354 4.498215,8.5270137 4.488361,8.4650105 4.478511,8.4030075 4.455607,8.3132527 4.437473,8.2655549 4.419338,8.2178569 4.41064,8.1726919 4.418144,8.1651883 4.425644,8.1576883 4.4183002,8.1069003 4.401793,8.0523349 4.346097,7.8681127 4.331917,7.6739227 4.332939,7.1093746 4.3338827,6.5870255 4.351621,6.3443602 4.393846,6.2760368 4.403296,6.2607508 4.416213,6.2072378 4.422555,6.1571183 4.428895,6.1069993 4.45631,6.0230193 4.483471,5.9704962 4.5106325,5.9179734 4.5251384,5.875 4.5157072,5.875 c -0.00943,0 0.00589,-0.035156 0.034042,-0.078125 0.028154,-0.042969 0.041865,-0.078125 0.030469,-0.078125 -0.011396,0 0.022143,-0.062299 0.074531,-0.1384431 C 4.7071369,5.5041634 4.75,5.4261337 4.75,5.4069075 4.75,5.3876816 4.8899391,5.2320122 5.0609756,5.0609756 5.2320122,4.8899391 5.3876816,4.75 5.4069075,4.75 5.4261335,4.75 5.5041635,4.707137 5.5803069,4.654749 5.6564509,4.602361 5.71875,4.568822 5.71875,4.580218 c 0,0.011396 0.035156,-0.00232 0.078125,-0.030469 C 5.8398437,4.5215944 5.875,4.5062756 5.875,4.5157072 c 0,0.00943 0.042973,-0.00507 0.095497,-0.032235 0.052523,-0.027161 0.1365031,-0.054573 0.1866222,-0.060916 0.050119,-0.00634 0.1036324,-0.019262 0.1189184,-0.028709 0.068323,-0.042226 0.3109887,-0.059962 0.8333378,-0.060907 0.5645481,-0.00102 0.7587381,0.013158 0.9429603,0.068854 0.054566,0.016497 0.1053497,0.023855 0.1128535,0.016351 0.0075,-0.0075 0.052669,0.00119 0.1003665,0.019329 0.047698,0.018135 0.1374528,0.041034 0.1994556,0.050888 0.062003,0.00985 0.1513432,0.037883 0.1985335,0.062286 0.04719,0.024403 0.096495,0.044489 0.1095656,0.044635 0.059137,6.625e-4 0.2673881,0.068497 0.4270369,0.1391009 0.096169,0.042531 0.1748531,0.07015 0.1748531,0.061377 0,-0.00877 0.031641,0.00451 0.070312,0.029512 0.038672,0.025005 0.1465072,0.075275 0.2396344,0.1117125 0.093127,0.036437 0.2056269,0.092101 0.25,0.1236972 0.044373,0.031597 0.087709,0.057693 0.096303,0.057993 0.03335,0.00117 0.206939,0.083979 0.28125,0.1341785 0.04297,0.029027 0.09219,0.056065 0.109375,0.060085 0.01719,0.00402 0.09003,0.047753 0.161881,0.097185 C 10.655602,5.4595556 10.723338,5.5 10.734278,5.5 c 0.01094,0 0.06598,0.035156 0.122319,0.078125 0.05633,0.042969 0.111949,0.078125 0.123586,0.078125 0.01164,0 0.11063,0.070312 0.219983,0.15625 0.109353,0.085937 0.209489,0.15625 0.222522,0.15625 0.01303,0 0.09553,0.061105 0.183318,0.1357884 0.08779,0.074683 0.176447,0.1414803 0.197016,0.1484375 0.02057,0.00696 0.153594,0.1181179 0.295614,0.2470241 0.14202,0.1289063 0.266831,0.2316931 0.277357,0.2284153 0.02508,-0.00781 0.904711,0.87353 0.903704,0.9054525 -4.25e-4,0.013471 0.101703,0.1372678 0.226952,0.2751035 0.125249,0.1378356 0.233418,0.267439 0.240375,0.2880071 0.007,0.020568 0.07375,0.1092254 0.148438,0.1970157 0.07468,0.087791 0.135788,0.1702834 0.135788,0.1833175 0,0.013034 0.07031,0.113169 0.15625,0.2225225 0.08594,0.1093534 0.15625,0.2083456 0.15625,0.2199828 0,0.011637 0.03516,0.067251 0.07813,0.1235859 0.04297,0.056335 0.07813,0.1113785 0.07813,0.1223191 0,0.010941 0.04044,0.078676 0.08988,0.1505225 0.04943,0.071847 0.08816,0.1376619 0.08606,0.1462556 -0.0021,0.00859 0.02494,0.057813 0.06008,0.109375 0.06547,0.096057 0.13324,0.2377247 0.127059,0.265625 -0.0019,0.00859 0.0274,0.058962 0.06511,0.111928 0.03772,0.05297 0.09839,0.172498 0.134823,0.265625 0.03644,0.09313 0.08671,0.200963 0.111713,0.239635 0.02501,0.03867 0.03829,0.07031 0.02951,0.07031 -0.0088,0 0.01885,0.07868 0.06138,0.174853 0.0706,0.159649 0.138439,0.3679 0.139101,0.427037 1.56e-4,0.01307 0.02023,0.06238 0.04463,0.109566 0.0244,0.04719 0.05243,0.13653 0.06228,0.198533 0.0099,0.062 0.03275,0.151758 0.05089,0.199456 0.01813,0.0477 0.02683,0.09286 0.01933,0.100366 -0.0075,0.0075 -1.56e-4,0.05829 0.01635,0.112854 0.0557,0.184222 0.06988,0.378412 0.06885,0.94296 -9.47e-4,0.522349 -0.01868,0.765014 -0.06091,0.833338 -0.0094,0.01529 -0.02237,0.0688 -0.02871,0.118918 -0.0063,0.05012 -0.03375,0.134099 -0.06092,0.186622 -0.02716,0.05252 -0.04167,0.0955 -0.03224,0.0955 0.0094,0 -0.0059,0.03516 -0.03404,0.07813 -0.02815,0.04297 -0.04186,0.07813 -0.03047,0.07813 0.0114,0 -0.02214,0.0623 -0.07453,0.138443 -0.05239,0.07614 -0.09525,0.154173 -0.09525,0.173399 0,0.04562 -0.611285,0.656908 -0.656908,0.656908 -0.01923,0 -0.09726,0.04286 -0.173399,0.09525 -0.07614,0.05239 -0.138443,0.08593 -0.138443,0.07453 0,-0.0114 -0.03516,0.0023 -0.07813,0.03047 -0.04297,0.02815 -0.07813,0.04347 -0.07813,0.03404 0,-0.0094 -0.04297,0.0051 -0.0955,0.03224 -0.05252,0.02716 -0.136503,0.05457 -0.186622,0.06092 -0.05012,0.0063 -0.103632,0.01926 -0.118918,0.02871 -0.06398,0.03954 -0.30247,0.05958 -0.821483,0.06901 -0.302854,0.0055 -0.557541,0.0031 -0.565969,-0.0053 z m 1.070841,-1.0299 c 0.01869,-0.01155 0.07866,-0.02804 0.133265,-0.03665 0.05461,-0.0086 0.13812,-0.03573 0.185584,-0.06027 0.04747,-0.02454 0.0863,-0.03628 0.0863,-0.02607 0,0.01021 0.04084,-0.01053 0.09076,-0.04607 0.04992,-0.03555 0.105863,-0.06463 0.12432,-0.06463 0.01846,0 0.111209,-0.07765 0.206114,-0.172554 0.09491,-0.09491 0.172554,-0.187656 0.172554,-0.206114 0,-0.01846 0.02908,-0.0744 0.06463,-0.12432 0.03554,-0.04992 0.05628,-0.09076 0.04607,-0.09076 -0.0102,0 0.0015,-0.03883 0.02607,-0.0863 0.02454,-0.04746 0.05167,-0.130977 0.06027,-0.185584 0.0086,-0.05461 0.0252,-0.114739 0.03687,-0.133627 0.03306,-0.05349 0.04186,-0.746387 0.01223,-0.963056 -0.03446,-0.252 -0.05709,-0.38454 -0.0767,-0.44925 -0.0087,-0.0287 -0.02226,-0.08144 -0.03013,-0.117187 -0.0079,-0.03575 -0.02036,-0.09221 -0.02775,-0.125469 -0.0074,-0.03326 -0.02898,-0.08951 -0.04798,-0.125 -0.01899,-0.03549 -0.02846,-0.06453 -0.02104,-0.06453 0.0074,0 -0.03548,-0.130078 -0.09534,-0.289062 -0.05986,-0.158985 -0.112262,-0.303125 -0.116455,-0.320313 -0.01576,-0.0646 -0.249252,-0.534686 -0.306561,-0.617187 -0.03283,-0.04727 -0.05075,-0.08594 -0.03982,-0.08594 0.01093,0 -0.01016,-0.04219 -0.04687,-0.09375 -0.03672,-0.05156 -0.05805,-0.09375 -0.04741,-0.09375 0.01064,0 -0.01653,-0.04703 -0.06037,-0.1045122 -0.04384,-0.057482 -0.07972,-0.1143322 -0.07972,-0.1263344 0,-0.012002 -0.05654,-0.098353 -0.125638,-0.1918915 -0.0691,-0.093538 -0.126537,-0.1808285 -0.127637,-0.1939781 -0.0011,-0.01315 -0.04755,-0.080159 -0.103223,-0.1489088 C 13.244079,9.228125 13.190249,9.1507813 13.180129,9.125 13.17001,9.0992188 13.056041,8.9564097 12.926865,8.8076463 12.797688,8.6588831 12.699145,8.5300216 12.70788,8.5212869 12.716614,8.5125525 12.447198,8.2288437 12.109177,7.8908228 11.771156,7.5528019 11.487448,7.2833859 11.478713,7.2921203 11.469978,7.3008547 11.341117,7.2023116 11.192354,7.0731353 11.04359,6.9439594 10.900781,6.82999 10.875,6.8198706 10.84922,6.8097506 10.76919,6.7537206 10.697158,6.6953584 10.625128,6.6369964 10.558117,6.5905459 10.548249,6.5921356 10.538349,6.5937256 10.453779,6.5384886 10.360238,6.4693878 10.2667,6.4002869 10.180349,6.34375 10.168347,6.34375 c -0.012,0 -0.06885,-0.035872 -0.126335,-0.079715 C 9.9845306,6.2201912 9.9375,6.1930237 9.9375,6.2036625 9.9375,6.2143012 9.8953125,6.1929656 9.84375,6.15625 9.7921875,6.1195344 9.75,6.0984406 9.75,6.109375 9.75,6.120309 9.711328,6.102395 9.664063,6.069559 9.5815613,6.0122497 9.1114753,5.7787541 9.046875,5.7629975 9.0296875,5.758805 8.8855469,5.7064003 8.7265625,5.6465425 8.5675781,5.5866844 8.4375,5.5437822 8.4375,5.5512044 c 0,0.00742 -0.029037,-0.00205 -0.064528,-0.02104 -0.03549,-0.018994 -0.09174,-0.040583 -0.125,-0.047975 C 8.214713,5.4747994 8.158252,5.4623094 8.1225035,5.4544374 8.0867556,5.4465672 8.0340212,5.4330094 8.0053159,5.42431 7.9406062,5.4046994 7.8080659,5.3820697 7.5560656,5.3476066 7.3393969,5.3179753 6.6465037,5.3267712 6.59301,5.3598322 6.5741225,5.3715053 6.5139906,5.3880975 6.4593834,5.3967038 6.4047762,5.40531 6.3212631,5.4324334 6.2737987,5.4569781 6.2263344,5.4815228 6.1875,5.493255 6.1875,5.4830497 c 0,-0.010206 -0.040843,0.010527 -0.090762,0.046073 -0.049919,0.035545 -0.1058631,0.064628 -0.1243206,0.064628 -0.043737,0 -0.3786678,0.3349303 -0.3786678,0.3786678 0,0.018458 -0.029083,0.074402 -0.064628,0.1243206 -0.035546,0.049919 -0.056278,0.090762 -0.046073,0.090762 0.010205,0 -0.00153,0.038834 -0.026072,0.086299 -0.024545,0.047464 -0.051668,0.1309775 -0.060274,0.1855847 -0.00861,0.054607 -0.025198,0.1147391 -0.036872,0.1336266 -0.033061,0.053494 -0.041857,0.7463869 -0.012226,0.9630556 0.034463,0.2520003 0.057093,0.3845406 0.076703,0.4492503 0.0087,0.028705 0.022257,0.08144 0.030128,0.1171875 0.00787,0.035748 0.02036,0.092209 0.027752,0.1254685 0.00739,0.03326 0.028981,0.08951 0.047975,0.125 0.018994,0.035491 0.028461,0.064528 0.02104,0.064528 -0.00742,0 0.03548,0.1300781 0.095338,0.2890625 0.059858,0.1589844 0.1122625,0.303125 0.116455,0.3203125 0.015757,0.0646 0.2492522,0.5346863 0.3065616,0.6171875 0.032833,0.047266 0.05075,0.085937 0.039816,0.085937 -0.010934,0 0.010159,0.042188 0.046875,0.09375 0.036716,0.051562 0.058051,0.09375 0.047413,0.09375 -0.010639,0 0.016529,0.047031 0.060372,0.1045122 0.043843,0.05748 0.079715,0.114332 0.079715,0.126335 0,0.012 0.056537,0.09835 0.1256378,0.191891 0.069101,0.09354 0.1243372,0.178144 0.1227478,0.188011 -0.00159,0.0099 0.044861,0.07688 0.1032228,0.148909 0.058362,0.07203 0.1143925,0.152061 0.1245122,0.177842 0.010119,0.02578 0.1240888,0.16859 0.2532647,0.317354 0.1291763,0.148763 0.2277194,0.277624 0.218985,0.286359 -0.00873,0.0087 0.2606816,0.292443 0.5987025,0.630464 0.3380209,0.338021 0.6217297,0.607437 0.6304641,0.598703 0.00873,-0.0087 0.1375962,0.08981 0.2863594,0.218985 0.1487634,0.129176 0.2915724,0.243145 0.3173537,0.253264 0.025781,0.01012 0.10581,0.06615 0.1778419,0.124513 0.072032,0.05836 0.1390409,0.104812 0.1489087,0.103222 0.00987,-0.0016 0.094473,0.05365 0.1880113,0.122748 0.093538,0.0691 0.1798894,0.125638 0.1918915,0.125638 0.012002,0 0.068853,0.03587 0.1263344,0.07972 0.057481,0.04384 0.104512,0.07101 0.104512,0.06037 0,-0.01064 0.04219,0.0107 0.09375,0.04741 0.05156,0.03672 0.09375,0.05781 0.09375,0.04687 0,-0.01093 0.03867,0.007 0.08594,0.03982 0.0825,0.05731 0.552587,0.290805 0.617187,0.306562 0.01719,0.0042 0.161328,0.0566 0.320313,0.116455 0.158984,0.05986 0.289062,0.10276 0.289062,0.09534 0,-0.0074 0.02904,0.002 0.06453,0.02104 0.03549,0.01899 0.09174,0.04058 0.125,0.04798 0.03326,0.0074 0.08972,0.01988 0.125469,0.02775 0.03575,0.0079 0.08848,0.0216 0.117187,0.03051 0.05598,0.01738 0.207757,0.04329 0.458441,0.07826 0.18745,0.02615 0.906167,0.01531 0.954227,-0.01439 z"
       id="path819"
       inkscape:connector-curvature="0" />
  </g>
</svg>
