<?xml version="1.0" encoding="UTF-8" standalone="no"?>
<!-- Created with Inkscape (http://www.inkscape.org/) -->

<svg
   version="1.1"
   id="svg2"
   width="1600"
   height="1600"
   viewBox="0 0 1600 1600"
   sodipodi:docname="metallic.svg"
   inkscape:version="1.2.2 (732a01da63, 2022-12-09)"
   xmlns:inkscape="http://www.inkscape.org/namespaces/inkscape"
   xmlns:sodipodi="http://sodipodi.sourceforge.net/DTD/sodipodi-0.dtd"
   xmlns="http://www.w3.org/2000/svg"
   xmlns:svg="http://www.w3.org/2000/svg">
  <defs
     id="defs6" />
  <sodipodi:namedview
     id="namedview4"
     pagecolor="#ffffff"
     bordercolor="#000000"
     borderopacity="0.25"
     inkscape:showpageshadow="2"
     inkscape:pageopacity="0.0"
     inkscape:pagecheckerboard="true"
     inkscape:deskcolor="#d1d1d1"
     showgrid="false"
     inkscape:zoom="0.5"
     inkscape:cx="1015"
     inkscape:cy="796"
     inkscape:window-width="2560"
     inkscape:window-height="1377"
     inkscape:window-x="2552"
     inkscape:window-y="-8"
     inkscape:window-maximized="1"
     inkscape:current-layer="metallic" />
  <g
     inkscape:groupmode="layer"
     inkscape:label="Image"
     id="g8"
     transform="translate(0,3168)">
    <g
       id="metallic"
       transform="matrix(100,0,0,100,0,-3168)">
      <path
         style="fill:#ffffff;stroke-width:0.03125;fill-opacity:0.02"
         d="M 0,8 V 0 h 8 8 v 8 8 H 8 0 Z m 9.265625,7.47255 c 1.309133,-0.22507 2.458608,-0.737199 3.453076,-1.538458 0.387412,-0.312144 1.083068,-1.027571 1.364234,-1.403007 0.73377,-0.979788 1.198834,-2.090043 1.407109,-3.35921 0.04431,-0.2700356 0.05641,-0.5213347 0.05641,-1.171875 0,-0.6505403 -0.0121,-0.9018394 -0.05641,-1.171875 C 15.281769,5.5589581 14.816705,4.4487031 14.082935,3.4689147 13.801769,3.0934794 13.106113,2.3780525 12.718701,2.0659083 11.705403,1.2494774 10.526313,0.73222384 9.171875,0.50995634 8.9018394,0.46564266 8.6505403,0.45354587 8,0.45354587 c -0.6505403,0 -0.9018394,0.0120968 -1.171875,0.0564105 C 5.4736875,0.73222384 4.2945969,1.2494774 3.2812988,2.0659083 2.8938869,2.3780525 2.1982311,3.0934794 1.9170652,3.4689147 1.1832952,4.4487031 0.71823069,5.5589581 0.50995634,6.828125 c -0.0806241,0.4913012 -0.0806241,1.8524488 0,2.34375 0.2222675,1.354438 0.73952106,2.533528 1.55595196,3.546826 0.3121442,0.387412 1.0275711,1.083068 1.4030064,1.364234 1.0961659,0.820926 2.3799947,1.314677 3.7967103,1.460188 0.06875,0.0071 0.4625,0.0086 0.875,0.0034 0.5818628,-0.0073 0.8340688,-0.02392 1.125,-0.07394 z"
         id="path857" />
      <path
         style="fill:#cbe4fe;stroke-width:0.03125"
         d="M 7.453125,14.916139 C 5.9293894,14.783821 4.3913453,14.112097 3.3266031,13.113923 L 3.109375,12.910277 5.5546875,10.462976 8,8.015675 V 11.476588 14.9375 L 7.7890625,14.9322 C 7.6730469,14.929356 7.521875,14.922109 7.453125,14.916139 Z M 8,4.5187144 V 1.0531036 l 0.3515625,0.021137 c 1.6191413,0.097346 3.1998965,0.7600432 4.3218345,1.8118365 L 12.890625,3.0897235 10.445313,5.5370244 8,7.984325 Z"
         id="path855" />
      <path
         style="fill:#666666;stroke-width:0.03125;fill-opacity:1"
         d="M 8,11.473448 V 8 H 4.5265519 1.0531036 L 1.0742402,7.6484375 C 1.2890451,4.075605 4.075605,1.2890451 7.6484375,1.0742402 L 8,1.0531036 V 4.5265519 8 h 3.473448 3.473448 L 14.92576,8.3515625 C 14.710955,11.924395 11.924395,14.710955 8.3515625,14.92576 L 8,14.946896 Z"
         id="path853" />
      <path
         style="fill:#999999;stroke-width:0.03125;fill-opacity:1"
         d="M 2.8923247,12.682371 C 1.8237523,11.528214 1.1718666,9.9753753 1.0742402,8.3515625 L 1.0531036,8 h 3.465562 3.4655619 l 2.4557715,-2.4556241 2.455772,-2.4556238 0.211904,0.2288767 c 1.068573,1.1541568 1.720458,2.7069959 1.818085,4.3308087 L 14.946896,8 H 11.481334 8.0157725 l -2.4557716,2.455624 -2.4557715,2.455624 z"
         id="path851" />
      <path
         style="fill:#323232;stroke-width:0.03125"
         d="M 7.265625,15.543123 C 5.8489094,15.397612 4.5650806,14.903861 3.4689147,14.082935 3.0934794,13.801769 2.3780525,13.106113 2.0659083,12.718701 1.2494774,11.705403 0.73222384,10.526313 0.50995634,9.171875 c -0.0806241,-0.4913012 -0.0806241,-1.8524488 0,-2.34375 C 0.71823069,5.5589581 1.1832952,4.4487031 1.9170652,3.4689147 2.1982311,3.0934794 2.8938869,2.3780525 3.2812988,2.0659083 4.2945969,1.2494774 5.4736875,0.73222384 6.828125,0.50995634 7.0981606,0.46564266 7.3494597,0.45354587 8,0.45354587 c 0.6505403,0 0.9018394,0.0120968 1.171875,0.0564105 1.354438,0.2222675 2.533528,0.73952103 3.546826,1.55595193 0.387412,0.3121442 1.083068,1.0275711 1.364234,1.4030064 0.73377,0.9797884 1.198834,2.0900434 1.407109,3.3592103 0.04431,0.2700356 0.05641,0.5213347 0.05641,1.171875 0,0.6505403 -0.0121,0.9018394 -0.05641,1.171875 -0.208275,1.269167 -0.673339,2.379422 -1.407109,3.35921 -0.281166,0.375436 -0.976822,1.090863 -1.364234,1.403007 -0.994468,0.801259 -2.143943,1.313388 -3.453076,1.538458 -0.2909312,0.05002 -0.5431372,0.06659 -1.125,0.07394 -0.4125,0.0052 -0.80625,0.0037 -0.875,-0.0034 z m 1.8125,-0.696802 c 0.7530772,-0.127275 1.314163,-0.307944 2,-0.643997 C 12.87723,13.320781 14.22787,11.648992 14.715587,9.6999616 14.879138,9.0463719 14.92027,8.7047544 14.92027,8 14.92027,7.2952456 14.87914,6.9536281 14.715587,6.3000384 14.102542,3.8501684 12.149832,1.8974584 9.6999616,1.2844136 9.0463719,1.1208621 8.7047544,1.0797297 8,1.0797297 c -0.7047544,0 -1.0463719,0.041132 -1.6999616,0.2046839 -2.44987,0.6130448 -4.40258,2.5657548 -5.0156248,5.0156248 C 1.1208621,6.9536281 1.0797297,7.2952456 1.0797297,8 c 0,0.7047544 0.041132,1.0463719 0.2046839,1.6999616 0.6130448,2.4498704 2.5657548,4.4025804 5.0156248,5.0156254 0.3332141,0.08338 0.8055366,0.166436 1.1530866,0.202762 0.3036194,0.03173 1.2625431,-0.01077 1.625,-0.07203 z"
         id="path849" />
    </g>
  </g>
</svg>
