<?xml version="1.0" encoding="UTF-8" standalone="no"?>
<!-- Created with Inkscape (http://www.inkscape.org/) -->

<svg
   version="1.1"
   id="svg2"
   width="1600"
   height="1600"
   viewBox="0 0 1600 1600"
   sodipodi:docname="meta_data.svg"
   inkscape:version="1.2.2 (732a01da63, 2022-12-09)"
   xmlns:inkscape="http://www.inkscape.org/namespaces/inkscape"
   xmlns:sodipodi="http://sodipodi.sourceforge.net/DTD/sodipodi-0.dtd"
   xmlns="http://www.w3.org/2000/svg"
   xmlns:svg="http://www.w3.org/2000/svg"
   xmlns:rdf="http://www.w3.org/1999/02/22-rdf-syntax-ns#"
   xmlns:cc="http://creativecommons.org/ns#"
   xmlns:dc="http://purl.org/dc/elements/1.1/">
  <metadata
     id="metadata8">
    <rdf:RDF>
      <cc:Work
         rdf:about="">
        <dc:format>image/svg+xml</dc:format>
        <dc:type
           rdf:resource="http://purl.org/dc/dcmitype/StillImage" />
      </cc:Work>
    </rdf:RDF>
  </metadata>
  <defs
     id="defs6" />
  <sodipodi:namedview
     pagecolor="#808080"
     bordercolor="#666666"
     borderopacity="1"
     objecttolerance="10"
     gridtolerance="10"
     guidetolerance="10"
     inkscape:pageopacity="0"
     inkscape:pageshadow="2"
     inkscape:window-width="1993"
     inkscape:window-height="1009"
     id="namedview4"
     showgrid="false"
     fit-margin-top="0"
     fit-margin-left="0"
     fit-margin-right="0"
     fit-margin-bottom="0"
     inkscape:zoom="0.5"
     inkscape:cx="125"
     inkscape:cy="114"
     inkscape:window-x="-8"
     inkscape:window-y="-8"
     inkscape:window-maximized="1"
     inkscape:current-layer="META_DATA"
     inkscape:showpageshadow="0"
     inkscape:pagecheckerboard="true"
     inkscape:deskcolor="#d1d1d1" />
  <g
     id="META_DATA"
     transform="matrix(100,0,0,100,0,4.9999997e-5)"
     style="stroke-width:0.0114286">
    <path
       style="fill:none;stroke-width:0.000356447"
       d="m 0.00424739,13.356726 c 0.00233607,-1.453802 0.00999588,-2.608188 0.01702182,-2.565303 0.11196028,0.683385 0.27468732,1.216153 0.54097041,1.771134 0.60050348,1.251554 1.56049498,2.211918 2.81072168,2.811808 1.6483817,0.790935 3.5191063,0.791304 5.1662031,9.98e-4 1.2515553,-0.600503 2.2119186,-1.560495 2.8118086,-2.810721 0.538798,-1.122904 0.705904,-2.282665 0.514299,-3.5693524 l -0.01898,-0.1274979 0.306876,-0.097537 c 1.407431,-0.4473202 2.429061,-1.5765107 2.742716,-3.0314628 0.07991,-0.370691 0.07991,-1.1887632 0,-1.5594542 -0.344152,-1.596422 -1.541174,-2.793444 -3.137596,-3.1375967 -0.370691,-0.0799125 -1.188764,-0.0799125 -1.559455,0 C 8.7438784,1.3553954 7.6146878,2.3770254 7.1673488,3.7844598 L 7.0698109,4.0913363 6.942313,4.0723503 C 5.655625,3.8807441 4.4958646,4.0478512 3.3729613,4.5866486 2.1227346,5.1865391 1.1627431,6.1469021 0.56223962,7.3984574 0.29595653,7.9534384 0.13322949,8.4862057 0.02126921,9.1695906 0.01424327,9.2124757 0.00658346,7.1668616 0.00424739,4.6237817 L 0,0 h 8 8 v 8 8 H 8 0 Z M 5.4892787,14.935821 C 4.8317171,14.860354 4.260858,14.68826 3.6796573,14.390282 2.7602218,13.918894 2.018728,13.1774 1.5473397,12.257965 1.1153259,11.415328 0.91093766,10.441992 0.9939888,9.622802 1.0697738,8.8752813 1.2282816,8.325367 1.5473397,7.7030491 2.018728,6.7836135 2.7602218,6.0421196 3.6796573,5.5707316 4.3019752,5.2516734 4.8518895,5.0931655 5.5994102,5.0173807 c 0.3651824,-0.037023 0.867737,-0.00855 1.2334397,0.069877 l 0.1535049,0.032921 v 0.2243727 0.224373 L 6.7758284,5.7753113 6.5653021,5.9816979 5.9727095,5.9989006 C 5.544757,6.0113238 5.3064624,6.0331767 5.1150097,6.0775567 3.5448839,6.4415208 2.3794654,7.6251318 2.0397913,9.2007797 c -0.079913,0.370691 -0.079913,1.1887633 0,1.5594543 0.3441526,1.596422 1.5411746,2.793444 3.1375966,3.137597 0.1966266,0.04239 0.3980404,0.05715 0.7797271,0.05715 0.5696178,0 0.8443727,-0.04359 1.3099415,-0.207819 1.3352106,-0.470998 2.35746,-1.646744 2.5996966,-2.990057 0.097144,-0.538708 0.1137537,-0.682332 0.1137537,-0.983653 V 9.4644236 L 10.222912,9.2234398 10.465318,8.9824561 h 0.176545 c 0.199879,0 0.191371,-0.011032 0.240531,0.3118909 0.06077,0.3991567 0.07188,0.73616 0.03543,1.074433 -0.07953,0.737971 -0.23625,1.275406 -0.550931,1.889185 -0.4713918,0.919435 -1.2128857,1.660929 -2.1323213,2.132317 -0.8807001,0.451529 -1.863219,0.646773 -2.745293,0.545539 z"
       id="path827"
       inkscape:connector-curvature="0" />
    <path
       style="fill:#fefefe;stroke-width:0.000356447"
       d="M 5.5516569,11.928108 C 4.8228994,11.77159 4.1925156,11.13543 4.0389661,10.401559 3.742425,8.9842754 4.9920726,7.7346277 6.4093567,8.0311688 c 0.8978542,0.18786 1.5739656,1.025216 1.5739656,1.949338 0,1.2659042 -1.185338,2.2152812 -2.4316654,1.9476012 z M 10.994431,6.7480524 C 10.511486,5.9856767 9.8141324,5.3140039 8.9890124,4.8164828 8.9840421,4.8134886 9.0013194,4.7074979 9.0274074,4.580955 9.1462054,4.0047183 9.5541015,3.4736165 10.07513,3.216765 c 0.798924,-0.3938452 1.688756,-0.2519821 2.308827,0.3680892 1.161282,1.1612829 0.511869,3.1113769 -1.12683,3.3837059 -0.110357,0.01834 -0.112566,0.016486 -0.262696,-0.2205077 z"
       id="path825"
       inkscape:connector-curvature="0" />
    <path
       style="fill:#cbcbcb;stroke-width:0.000356447"
       d="M 5.7231969,12.956018 C 5.2718967,12.893676 4.9625434,12.803746 4.6315789,12.638678 4.3268525,12.486697 4.168092,12.373449 3.9030288,12.118983 3.3038855,11.543795 2.9833965,10.798543 2.9833965,9.9805068 c 0,-0.818036 0.320489,-1.5632886 0.9196323,-2.1384767 C 4.1634979,7.5919753 4.3252631,7.4756095 4.6158447,7.3292666 5.1243387,7.0731786 5.4058782,7.0171263 6.2846004,6.9970308 L 7.0019493,6.9806259 7.4931774,6.4926278 7.9844054,6.0046297 V 5.7313596 c 0,-0.1502985 0.00878,-0.2732699 0.019509,-0.2732699 0.01073,0 0.15665,0.071718 0.3242667,0.1593737 0.814235,0.4258067 1.5785787,1.1969638 2.0106709,2.0285938 l 0.175797,0.3383482 H 10.270625 10.026603 L 9.5045292,8.5071569 8.9824561,9.0299084 v 0.4389084 c 0,0.2413995 -0.013206,0.5149337 -0.029346,0.6078532 -0.01614,0.09292 -0.045971,0.273415 -0.066289,0.401103 -0.098276,0.617582 -0.4016309,1.186173 -0.8756192,1.64121 -0.4284229,0.411294 -0.8867952,0.655015 -1.4614936,0.777091 -0.2222709,0.04722 -0.6789121,0.08033 -0.8265107,0.05994 z m 0.6861598,-1.026174 c 0.8978542,-0.18786 1.5739656,-1.025215 1.5739656,-1.9493372 0,-1.0886313 -0.906387,-1.9950182 -1.9950182,-1.9950182 -1.0886313,0 -1.9950182,0.9063869 -1.9950182,1.9950182 0,0.7393552 0.4379502,1.4509662 1.0915905,1.7736902 0.4316469,0.213117 0.8685062,0.271052 1.3244803,0.175647 z M 11.539815,7.8206628 C 11.539721,7.7992202 11.455246,7.6076853 11.352063,7.3950294 11.24888,7.1823735 11.170353,7.0024867 11.177558,6.995281 11.184758,6.988071 11.286796,6.962319 11.404297,6.938046 12.139143,6.7862365 12.773142,6.1509296 12.927895,5.411306 13.224437,3.994022 11.974789,2.7443742 10.557505,3.0409155 10.197617,3.1162155 9.8487245,3.3090882 9.5754679,3.5837988 9.2547265,3.9062465 9.1021043,4.2059752 8.999087,4.7157283 L 8.982081,4.7998773 8.569013,4.5987923 C 8.3418261,4.4881962 8.1384016,4.3976973 8.116959,4.3976842 7.9871844,4.3975906 8.2452806,3.6865846 8.5245393,3.2748538 8.6645165,3.0684753 9.0332176,2.6948369 9.2475633,2.5421479 9.7583831,2.1782654 10.358134,1.9853459 10.978557,1.9853459 c 0.477325,0 0.889667,0.098159 1.325537,0.3155471 0.304726,0.151981 0.463486,0.2652293 0.72855,0.5196947 0.599143,0.575188 0.919632,1.3204405 0.919632,2.1384766 0,0.6204233 -0.19292,1.2201744 -0.556802,1.7309942 -0.152689,0.2143457 -0.526327,0.5830468 -0.732706,0.723024 -0.411822,0.2793205 -1.122467,0.5372517 -1.122953,0.4075803 z"
       id="path823"
       inkscape:connector-curvature="0" />
    <path
       style="fill:#fecb32;stroke-width:0.000356447"
       d="M 5.3021442,15.933798 C 4.1952477,15.806412 3.0870023,15.348503 2.2300195,14.664446 1.141091,13.795248 0.38752434,12.568228 0.08854084,11.177514 0.02206587,10.868308 0.01559454,10.762117 0.01559454,9.9805068 c 0,-0.7816103 0.0064714,-0.887801 0.0729463,-1.1970074 C 0.48934902,6.9191507 1.6784407,5.3997228 3.3729613,4.5866486 5.4978093,3.5670927 7.9964456,3.8832867 9.8089668,5.4011041 11.151675,6.5254968 11.944907,8.226167 11.944907,9.9805068 c 0,1.7543392 -0.793232,3.4550102 -2.1359402,4.5794032 -1.2487422,1.045704 -2.9231538,1.556142 -4.5068226,1.373888 z M 6.3871941,14.937123 C 7.0913943,14.858906 7.6335249,14.698435 8.2345727,14.390282 9.1540083,13.918894 9.8955022,13.1774 10.36689,12.257965 10.798904,11.415328 11.003292,10.441992 10.920241,9.622802 10.844456,8.8752813 10.685948,8.325367 10.36689,7.7030491 9.8955022,6.7836135 9.1540083,6.0421196 8.2345727,5.5707316 7.3919363,5.1387178 6.4186009,4.9343295 5.5994102,5.0173807 4.8518895,5.0931655 4.3019752,5.2516734 3.6796573,5.5707316 2.7602218,6.0421196 2.0187279,6.7836135 1.5473397,7.7030491 1.2282816,8.325367 1.0697738,8.8752813 0.9939888,9.622802 c -0.0830511,0.81919 0.1213371,1.792526 0.5533509,2.635163 0.4713882,0.919435 1.2128821,1.660929 2.1323176,2.132317 0.4381189,0.224621 0.8406393,0.3688 1.279407,0.458273 0.5785348,0.117973 0.9538162,0.141247 1.4281298,0.08857 z"
       id="path821"
       inkscape:connector-curvature="0" />
    <path
       style="fill:#323232;stroke-width:0.000356447"
       d="M 5.5204678,13.953268 C 3.7742625,13.73099 2.4105232,12.47995 2.0397913,10.760234 c -0.079913,-0.370691 -0.079913,-1.1887633 0,-1.5594543 C 2.3794654,7.6251318 3.5448839,6.4415208 5.1150097,6.0775567 5.3064624,6.0331767 5.544757,6.0113238 5.9727095,5.9989006 L 6.5653021,5.9816979 6.7758284,5.7753114 6.9863548,5.5689245 V 5.3413729 5.1138215 l 0.085769,0.019467 C 7.2362242,5.1705335 7.5646752,5.2731297 7.7738782,5.352491 L 7.9844054,5.432354 V 5.718492 6.0046297 L 7.4931774,6.4926278 7.0019493,6.9806259 6.2846004,6.9970308 C 5.4058782,7.0171263 5.1243387,7.0731786 4.6158447,7.3292666 4.3252631,7.4756095 4.1634979,7.5919753 3.9030288,7.8420301 3.3038855,8.4172182 2.9833965,9.1624708 2.9833965,9.9805068 c 0,0.4773252 0.098159,0.8896662 0.3155471,1.3255362 0.151981,0.304727 0.2652295,0.463487 0.5196947,0.72855 0.5751881,0.599144 1.3204407,0.919633 2.1384767,0.919633 0.6204232,0 1.2201743,-0.19292 1.7309941,-0.556803 0.2143458,-0.152689 0.5830469,-0.526327 0.7230242,-0.732706 0.2319597,-0.341995 0.4131905,-0.794205 0.4756871,-1.186944 0.020319,-0.127688 0.050149,-0.308184 0.06629,-0.401103 0.01614,-0.09292 0.029346,-0.3667591 0.029346,-0.6085316 V 9.0285517 L 9.5052076,8.5064786 10.027959,7.9844054 h 0.240284 c 0.196965,0 0.245529,0.00984 0.269379,0.05458 0.04551,0.085376 0.242404,0.6964317 0.266317,0.8265108 l 0.0215,0.1169595 H 10.643956 10.462474 L 10.22149,9.2248614 9.9805068,9.467267 v 0.3076048 c 0,0.6571262 -0.180775,1.4430072 -0.4598285,1.9990072 -0.5317501,1.059485 -1.5373538,1.838617 -2.721458,2.108562 -0.2603784,0.05936 -1.0327613,0.10214 -1.2787525,0.07083 z M 11.806313,8.7147773 C 11.788448,8.595655 11.735631,8.4080006 11.580971,7.91423 c -0.01225,-0.039111 6.2e-5,-0.05458 0.04345,-0.05458 0.09222,0 0.468095,-0.1347281 0.69526,-0.249208 0.290846,-0.1465712 0.452529,-0.2628859 0.712956,-0.5129001 0.599143,-0.5751881 0.919632,-1.3204407 0.919632,-2.1384767 0,-0.8180361 -0.320489,-1.5632886 -0.919632,-2.1384766 C 12.76758,2.5661223 12.60882,2.452874 12.304094,2.300893 11.868224,2.0835048 11.455882,1.9853459 10.978557,1.9853459 c -0.593093,0 -1.1895615,0.1840408 -1.68421,0.5196645 C 9.0878584,2.6451148 8.7142668,3.013806 8.5616768,3.2280702 8.3411955,3.5376661 8.0779727,4.1281703 8.0779727,4.3131939 c 0,0.043389 -0.015471,0.055707 -0.05458,0.043457 C 7.5296212,4.2019946 7.3419668,4.1491723 7.2228445,4.1313088 7.144237,4.119521 7.079922,4.0957037 7.079922,4.0783816 c 0,-0.017322 0.048312,-0.1758709 0.1073581,-0.3523307 0.4626888,-1.3827246 1.5756688,-2.3747667 3.0115499,-2.6843104 0.370691,-0.0799125 1.188764,-0.0799125 1.559455,0 1.596422,0.3441527 2.793444,1.5411747 3.137596,3.1375967 0.07991,0.370691 0.07991,1.1887632 0,1.5594542 -0.309543,1.4358815 -1.301585,2.5488615 -2.68431,3.0115503 -0.17646,0.059047 -0.335008,0.1073581 -0.352331,0.1073581 -0.01733,0 -0.04114,-0.064315 -0.05293,-0.1429225 z"
       id="path819"
       inkscape:connector-curvature="0" />
  </g>
</svg>
