<?xml version="1.0" encoding="UTF-8" standalone="no"?>
<!-- Created with Inkscape (http://www.inkscape.org/) -->

<svg
   version="1.1"
   id="svg2"
   width="1600"
   height="1600"
   viewBox="0 0 1600 1600"
   sodipodi:docname="mirror_marker.svg"
   inkscape:version="1.2.2 (732a01da63, 2022-12-09)"
   xmlns:inkscape="http://www.inkscape.org/namespaces/inkscape"
   xmlns:sodipodi="http://sodipodi.sourceforge.net/DTD/sodipodi-0.dtd"
   xmlns="http://www.w3.org/2000/svg"
   xmlns:svg="http://www.w3.org/2000/svg"
   xmlns:rdf="http://www.w3.org/1999/02/22-rdf-syntax-ns#"
   xmlns:cc="http://creativecommons.org/ns#"
   xmlns:dc="http://purl.org/dc/elements/1.1/">
  <metadata
     id="metadata8">
    <rdf:RDF>
      <cc:Work
         rdf:about="">
        <dc:format>image/svg+xml</dc:format>
        <dc:type
           rdf:resource="http://purl.org/dc/dcmitype/StillImage" />
      </cc:Work>
    </rdf:RDF>
  </metadata>
  <defs
     id="defs6" />
  <sodipodi:namedview
     pagecolor="#808080"
     bordercolor="#666666"
     borderopacity="1"
     objecttolerance="10"
     gridtolerance="10"
     guidetolerance="10"
     inkscape:pageopacity="0"
     inkscape:pageshadow="2"
     inkscape:window-width="1993"
     inkscape:window-height="1009"
     id="namedview4"
     showgrid="false"
     inkscape:zoom="0.5"
     inkscape:cx="367"
     inkscape:cy="58"
     inkscape:window-x="-8"
     inkscape:window-y="-8"
     inkscape:window-maximized="1"
     inkscape:current-layer="MIRROR_MARKER"
     inkscape:showpageshadow="0"
     inkscape:pagecheckerboard="true"
     inkscape:deskcolor="#d1d1d1" />
  <g
     id="MIRROR_MARKER"
     transform="matrix(100,0,0,100,0,4.9999997e-5)"
     style="stroke-width:0.0114286">
    <path
       style="fill:none;stroke-width:0.000357143"
       d="M 0,8 V 0 h 8 8 L 15.9985,3.4140625 C 15.9971,6.5585997 15.9931,6.8170366 15.94787,6.6876684 15.839085,6.3767372 15.608076,6.1508141 15.293835,6.0480309 c -0.134888,-0.04412 -0.314798,-0.049637 -1.357481,-0.041633 -1.199529,0.00921 -1.202304,0.00938 -1.358235,0.085015 -0.112655,0.054642 -0.352668,0.2702716 -0.860246,0.7728516 L 11.013884,7.5613281 10.37413,6.9189362 C 9.6400431,6.1818222 9.5700975,6.1263762 9.2370275,6.0175544 9.181915,5.9995478 9.1847831,5.9900425 9.2732697,5.8974378 9.3261194,5.8421281 9.3869178,5.7371094 9.4083772,5.6640625 9.4298366,5.5910156 9.4662622,5.53125 9.4893228,5.53125 c 0.065713,0 0.058724,-0.9063972 -0.00857,-1.1116206 C 9.4347837,4.2794466 9.2436138,4.0786541 7.3506625,2.182324 5.5341719,0.36259212 5.2545378,0.09439362 5.1403791,0.06243115 4.8621719,-0.01546204 4.9501225,-0.09126502 2.6794675,2.1834453 0.78755991,4.0787319 0.59646706,4.2794481 0.55049994,4.4196294 c -0.0611794,0.1865725 -0.0716449,1.0806687 -0.0148675,1.270175 0.0423185,0.1412465 0.18863709,0.2880162 0.33621825,0.3372547 0.0760017,0.025357 0.91179851,0.035643 2.93749991,0.036153 2.696216,6.781e-4 2.8260569,0.00327 2.7218994,0.054296 C 6.3755622,6.1937813 6.1832334,6.3959284 6.0930044,6.578125 l -0.077379,0.15625 -0.00854,4.203125 c -0.0077,3.788922 -0.0036,4.218336 0.041633,4.357481 0.101614,0.312603 0.3282578,0.544192 0.6389518,0.652894 0.1293682,0.04526 -0.1290687,0.04926 -3.2736059,0.05063 L 0,16 Z m 9.3123316,7.947875 C 9.6198131,15.840297 9.844055,15.613461 9.9492409,15.303595 9.9938266,15.172252 10,14.929493 10,13.307623 v -1.846444 l 0.212646,0.2006 c 0.30522,0.287929 0.452504,0.352604 0.802979,0.352604 0.345906,0 0.495002,-0.06377 0.786347,-0.336303 L 12,11.492834 v 1.830616 c 0,1.607264 0.0062,1.84886 0.05076,1.980145 0.105186,0.309866 0.329428,0.536702 0.636909,0.64428 0.130704,0.04573 0.01351,0.04914 -1.687668,0.04914 -1.7011834,0 -1.8183719,-0.0034 -1.6876694,-0.04914 z m 6.0000004,0 c 0.07725,-0.02703 0.199897,-0.09004 0.272548,-0.140023 0.153678,-0.105733 0.293309,-0.296342 0.362995,-0.49552 l 0.04914,-0.140457 0.0015,0.414062 L 16,16 15.585938,15.9985 15.171875,15.997 15.312332,15.94786 Z"
       id="path825"
       inkscape:connector-curvature="0" />
    <path
       style="fill:#fefefe;stroke-width:0.000357143"
       d="M 6.6876684,15.948578 C 6.3757166,15.837875 6.1502034,15.607193 6.0487166,15.294981 6.0034866,15.155836 5.9993837,14.726422 6.0070834,10.9375 l 0.00854,-4.203125 0.077379,-0.15625 C 6.1916603,6.3789119 6.3789119,6.1916603 6.578125,6.0930044 l 0.15625,-0.077379 h 1.28125 1.28125 l 0.15625,0.075787 c 0.1126406,0.054635 0.3525306,0.2701344 0.859516,0.7721253 l 0.703265,0.6963378 0.702985,-0.696389 c 0.507361,-0.502601 0.746465,-0.7174644 0.859234,-0.7721254 l 0.15625,-0.075736 H 14 15.265625 l 0.15625,0.077379 c 0.199213,0.098656 0.386465,0.2859075 0.485121,0.4851206 l 0.07738,0.15625 V 11 15.265625 l -0.07738,0.15625 c -0.09866,0.199213 -0.285908,0.386465 -0.485121,0.485121 l -0.15625,0.07738 H 14 12.734375 l -0.15625,-0.07738 C 12.378912,15.80834 12.19166,15.621088 12.093004,15.421875 l -0.07738,-0.15625 -0.0088,-1.885517 -0.0088,-1.885518 -0.19709,0.184368 c -0.290385,0.271641 -0.439739,0.335425 -0.785408,0.335425 -0.350254,0 -0.49778,-0.0647 -0.802047,-0.351725 l -0.211714,-0.19972 -0.00874,1.901344 -0.00874,1.901343 -0.077379,0.15625 C 9.80834,15.621088 9.6210881,15.80834 9.421875,15.906996 l -0.15625,0.07738 -1.21875,0.007 c -1.0483609,0.006 -1.2383869,6.2e-5 -1.3592066,-0.04282 z M 9,12.007993 V 9.0159856 l 1.007932,1.0075744 1.007932,1.007574 0.992068,-0.992068 L 13,9.0469981 V 12.023499 15 h 1 1 V 11 7 H 14.00799 13.01598 L 12.015622,8.0000028 11.015264,9.0000056 10.015628,8.0000028 9.0159913,7 H 8.0079956 7 v 4 4 h 1 1 z"
       id="path823"
       inkscape:connector-curvature="0" />
    <path
       style="fill:#fe9729;stroke-width:0.000357143"
       d="M 7,11 V 7 H 8.0079956 9.0159912 L 10.015628,8.0000028 11.015264,9.0000056 12.015622,8.0000028 13.01598,7 H 14.00799 15 v 4 4 H 14 13 V 12.023499 9.0469981 L 12.007932,10.039066 11.015864,11.031134 10.007932,10.02356 9,9.0159856 V 12.007993 15 H 8 7 Z M 1.53125,4.8827078 V 4.7341656 L 3.2735416,2.9920824 5.0158334,1.2499991 6.7579166,2.9922908 8.5,4.7345825 V 4.8829162 5.03125 H 5.015625 1.53125 Z"
       id="path821"
       inkscape:connector-curvature="0" />
    <path
       style="fill:#000000;stroke-width:0.000357143"
       d="M 0.859375,6.0252731 C 0.72228997,5.9770978 0.57642147,5.8259459 0.53563247,5.6898044 0.47885503,5.5002981 0.4893205,4.6062019 0.55049994,4.4196294 0.59646706,4.2794481 0.78755991,4.0787319 2.6794675,2.1834453 4.9501225,-0.09126502 4.8621719,-0.01546204 5.1403791,0.06243115 5.2545378,0.09439362 5.5341719,0.36259212 7.3506612,2.182324 9.2436125,4.0786541 9.4347825,4.2794466 9.48075,4.4196294 9.548744,4.6269831 9.554996,5.53125 9.48844,5.53125 9.464503,5.53125 9.428638,5.591924 9.407097,5.6688641 9.385723,5.7452051 9.324458,5.8492303 9.269502,5.9024962 L 9.170436,5.9985142 7.9680323,6.0150052 C 5.2753034,6.0519344 0.95300669,6.0581778 0.859375,6.0252731 Z M 8.5,4.8829162 V 4.7345825 L 6.7579166,2.9922908 5.0158334,1.2499991 3.2735416,2.9920824 1.53125,4.7341656 V 4.8827078 5.03125 H 5.015625 8.5 Z"
       id="path819"
       inkscape:connector-curvature="0" />
  </g>
</svg>
