<?xml version="1.0" encoding="UTF-8" standalone="no"?>
<!-- Created with Inkscape (http://www.inkscape.org/) -->

<svg
   version="1.1"
   id="svg2"
   width="1600"
   height="1600"
   viewBox="0 0 1600 1600"
   sodipodi:docname="mirror_y.svg"
   inkscape:version="1.2.2 (732a01da63, 2022-12-09)"
   xmlns:inkscape="http://www.inkscape.org/namespaces/inkscape"
   xmlns:sodipodi="http://sodipodi.sourceforge.net/DTD/sodipodi-0.dtd"
   xmlns="http://www.w3.org/2000/svg"
   xmlns:svg="http://www.w3.org/2000/svg"
   xmlns:rdf="http://www.w3.org/1999/02/22-rdf-syntax-ns#"
   xmlns:cc="http://creativecommons.org/ns#"
   xmlns:dc="http://purl.org/dc/elements/1.1/">
  <metadata
     id="metadata8">
    <rdf:RDF>
      <cc:Work
         rdf:about="">
        <dc:format>image/svg+xml</dc:format>
        <dc:type
           rdf:resource="http://purl.org/dc/dcmitype/StillImage" />
      </cc:Work>
    </rdf:RDF>
  </metadata>
  <defs
     id="defs6" />
  <sodipodi:namedview
     pagecolor="#808080"
     bordercolor="#666666"
     borderopacity="1"
     objecttolerance="10"
     gridtolerance="10"
     guidetolerance="10"
     inkscape:pageopacity="0"
     inkscape:pageshadow="2"
     inkscape:window-width="1993"
     inkscape:window-height="1009"
     id="namedview4"
     showgrid="false"
     inkscape:zoom="0.5"
     inkscape:cx="195"
     inkscape:cy="268"
     inkscape:window-x="-8"
     inkscape:window-y="-8"
     inkscape:window-maximized="1"
     inkscape:current-layer="MIRROR_Y"
     inkscape:showpageshadow="0"
     inkscape:pagecheckerboard="true"
     inkscape:deskcolor="#d1d1d1" />
  <g
     id="MIRROR_Y"
     transform="matrix(100,0,0,100,0,4.9999997e-5)"
     style="stroke-width:0.0114286">
    <path
       style="fill:none;stroke-width:0.000357143"
       d="M 0,8 V 0 h 8 8 v 8 8 H 12.734375 9.46875 v -0.665807 c 0,-0.59395 -0.00709,-0.68679 -0.065656,-0.860224 C 9.271574,14.084516 8.913483,13.718893 8.5262477,13.578679 8.3165766,13.502758 8.3168719,13.501143 8.5546397,13.42354 8.9191353,13.304576 9.3040416,12.911879 9.4343444,12.526031 9.4987813,12.335224 9.5,12.287316 9.5,9.9455138 V 7.5594131 l 0.3203125,-0.390685 c 0.1761719,-0.2148769 0.4726545,-0.5762915 0.6588495,-0.803144 0.186196,-0.2268525 0.416326,-0.522076 0.511399,-0.6560522 0.09507,-0.1339763 0.238969,-0.3167888 0.319767,-0.40625 0.149285,-0.1652907 0.794611,-0.9636135 1.079865,-1.3358844 0.08618,-0.1124628 0.335882,-0.4277938 0.554903,-0.7007356 0.487007,-0.6069014 0.531464,-0.703876 0.54827,-1.1959539 0.01018,-0.2979499 0.0017,-0.3820158 -0.05575,-0.5547299 C 13.302664,1.110444 12.927925,0.73262728 12.526031,0.59690547 12.378538,0.54709637 12.254227,0.53125 12.010979,0.53125 c -0.567914,0 -0.867046,0.16088866 -1.29979,0.6990956 -0.139977,0.1740912 -0.324149,0.3937308 -0.409271,0.4880882 -0.08512,0.094357 -0.229341,0.2771698 -0.320488,0.40625 C 9.8902838,2.2537639 9.6601762,2.5492188 9.47008,2.78125 8.8759384,3.5064594 8.5205341,3.9519575 8.3833453,4.1434675 c -0.072754,0.1015616 -0.1852537,0.2451059 -0.25,0.3189872 L 8.015625,4.5967844 7.765625,4.2787347 C 7.628125,4.1038072 7.4334447,3.8675775 7.3330022,3.75378 7.2325594,3.6399822 7.08889,3.4589847 7.0137366,3.3515631 6.9385834,3.2441416 6.7043575,2.9445012 6.4932347,2.6856954 5.6763,1.6842528 5.4794019,1.437804 5.3374641,1.2390676 5.0370572,0.818449 4.6501738,0.625 4.109375,0.625 3.5791375,0.625 3.1907413,0.81442109 2.8937433,1.2178642 2.6953628,1.4873449 2.625,1.7210697 2.625,2.1105507 c 0,0.3478762 0.051171,0.5488375 0.2081908,0.8176249 0.079133,0.1354591 0.7204039,0.9460488 1.292942,1.6343244 0.1215272,0.1460938 0.2963503,0.3710937 0.3884953,0.5 0.092145,0.1289062 0.2672028,0.3539062 0.3890166,0.5 0.4616459,0.5536606 0.9629631,1.1793481 1.1016859,1.375 0.079212,0.1117187 0.2299485,0.3001331 0.3349703,0.4186984 L 6.53125,7.5717716 v 2.3799215 c 0,2.3355239 0.00122,2.3835479 0.065656,2.5743379 0.13152,0.389453 0.489611,0.755076 0.8768463,0.89529 0.2096715,0.07592 0.2093762,0.07754 -0.028392,0.155139 C 7.0808647,13.695424 6.6959584,14.088121 6.5656556,14.473969 6.5070859,14.647403 6.5,14.740243 6.5,15.334193 V 16 H 3.25 0 Z"
       id="path825"
       inkscape:connector-curvature="0" />
    <path
       style="fill:#cbcbcb;stroke-width:0.000357143"
       d="m 7.0060584,15.351563 c 0.010841,-0.734845 0.033414,-0.821182 0.2788682,-1.066636 0.2056959,-0.205697 0.3708962,-0.269302 0.6994484,-0.269302 0.3285522,0 0.4937525,0.06361 0.6994484,0.269302 0.2454541,0.245454 0.2680269,0.331791 0.2788682,1.066636 L 8.9722581,16 H 7.984375 6.9964919 Z"
       id="path823"
       inkscape:connector-curvature="0" />
    <path
       style="fill:#fecb32;stroke-width:0.000357143"
       d="M 7.6769444,12.953131 C 7.5108141,12.890092 7.3243403,12.747163 7.2159697,12.599802 7.0247662,12.339805 7.03125,12.43845 7.03125,9.7894703 V 7.3680488 L 6.8986569,7.2074619 C 6.8257306,7.1191391 6.7270788,7.0069072 6.6794306,6.9580575 6.6317825,6.9092078 6.52665,6.7756141 6.4458031,6.6611825 6.2685538,6.4103013 5.5744037,5.5345513 5.5006397,5.46875 5.4304116,5.4061031 5.1022766,4.9953878 4.9513716,4.78125 4.7963084,4.5612119 4.3473822,3.9952206 4.2913794,3.9491541 4.1777925,3.85572 3.3132328,2.7312815 3.2325544,2.5720557 3.1510641,2.4112274 3.140625,2.3586876 3.140625,2.109375 3.140625,1.8785845 3.15359,1.8018027 3.212891,1.6814102 3.305352,1.4936956 3.4945953,1.3047248 3.68141,1.2135657 3.8560391,1.1283527 4.2153566,1.0994015 4.39583,1.1560037 4.59641,1.2189117 4.8067653,1.3807811 4.9443919,1.5781255 5.106035,1.8099068 5.6776938,2.5299441 5.7507266,2.59375 5.8162119,2.6509617 6.4944734,3.5100988 6.6836594,3.7754725 6.7588909,3.8810006 6.8649763,4.0133619 6.919405,4.0696084 6.9738334,4.125855 7.242,4.4512306 7.5153303,4.792665 L 8.0122947,5.413455 8.10771,5.2929128 C 8.1601881,5.2266147 8.2320069,5.1441341 8.2673069,5.1096228 8.3543697,5.0245056 8.8017925,4.4622562 8.9513716,4.25 9.1022766,4.0358622 9.4304116,3.6251469 9.5006397,3.5625 9.5729478,3.4979975 10.266188,2.6241674 10.442725,2.375 c 0.07915,-0.1117187 0.184122,-0.2453125 0.233263,-0.296875 0.04914,-0.051563 0.213792,-0.2483366 0.36589,-0.4372758 0.411332,-0.5109628 0.615326,-0.6292587 1.04247,-0.6045257 0.510152,0.029539 0.883415,0.4076361 0.910461,0.9222511 0.01795,0.3414498 -0.03688,0.4635064 -0.431814,0.9612641 C 12.374938,3.15686 12.201883,3.3667816 12.178429,3.3863309 12.154975,3.40588 12.081678,3.4992187 12.015547,3.59375 11.862985,3.8118303 11.050132,4.8259844 10.91917,4.9616416 10.864871,5.0178881 10.758891,5.1502494 10.683659,5.2557775 10.50014,5.5132031 9.8156275,6.3818903 9.7624819,6.4248072 9.7392009,6.4436075 9.5583644,6.6613806 9.3606225,6.9087475 l -0.3595303,0.4497581 -0.00836,2.4691847 -0.00836,2.4691847 -0.072266,0.146715 c -0.092343,0.187473 -0.2814713,0.376474 -0.4685191,0.4682 -0.1830569,0.08977 -0.5822838,0.111297 -0.7666453,0.04134 z"
       id="path821"
       inkscape:connector-curvature="0" />
    <path
       style="fill:#653200;stroke-width:0.000357143"
       d="m 6.5,15.334193 c 0,-0.59395 0.00709,-0.68679 0.065656,-0.860224 0.1303028,-0.385848 0.5152091,-0.778545 0.8797047,-0.897509 0.2377678,-0.0776 0.2380631,-0.07922 0.028392,-0.155139 C 7.0865166,13.281107 6.7284256,12.915484 6.5969056,12.526031 6.5324747,12.335241 6.53125,12.287217 6.53125,9.9516931 V 7.5717716 L 6.3403009,7.3561984 C 6.2352791,7.2376331 6.0845422,7.0492187 6.0053306,6.9375 5.8666078,6.7418481 5.3652906,6.1161606 4.9036447,5.5625 4.7818309,5.4164062 4.6067734,5.1914062 4.5146281,5.0625 4.4224831,4.9335937 4.24766,4.7085938 4.1261328,4.5625 3.5535947,3.8742244 2.9123233,3.0636347 2.8331908,2.9281756 2.6761705,2.6593882 2.625,2.4584269 2.625,2.1105507 2.625,1.7210697 2.6953628,1.4873449 2.8937433,1.2178642 3.1907413,0.81442109 3.5791375,0.625 4.109375,0.625 4.6501738,0.625 5.0370572,0.818449 5.3374641,1.2390676 5.4794019,1.437804 5.6763,1.6842528 6.4932347,2.6856954 6.7043575,2.9445012 6.9385834,3.2441416 7.0137366,3.3515631 7.08889,3.4589847 7.2325594,3.6399822 7.3330022,3.75378 7.4334447,3.8675775 7.628125,4.1038072 7.765625,4.2787347 l 0.25,0.3180497 0.1177203,-0.1343297 c 0.064746,-0.073881 0.1772463,-0.2174256 0.25,-0.3189872 C 8.5205341,3.9519575 8.8759384,3.5064594 9.47008,2.78125 9.6601762,2.5492188 9.8902838,2.2537639 9.98143,2.1246838 c 0.091147,-0.1290802 0.235366,-0.3118927 0.320488,-0.40625 0.08512,-0.094357 0.269294,-0.313997 0.409271,-0.4880882 0.432744,-0.53820694 0.731876,-0.6990956 1.29979,-0.6990956 0.243248,0 0.367559,0.0158464 0.515052,0.0656555 0.401894,0.13572181 0.776633,0.5135385 0.911586,0.9190726 0.05748,0.1727141 0.06592,0.25678 0.05575,0.5547299 -0.01681,0.4920779 -0.06126,0.5890525 -0.54827,1.1959539 -0.219021,0.2729418 -0.468728,0.5882728 -0.554903,0.7007356 -0.285254,0.3722709 -0.93058,1.1705937 -1.079865,1.3358844 -0.0808,0.089461 -0.224693,0.2722737 -0.319767,0.40625 -0.09507,0.1339762 -0.325203,0.4291997 -0.511399,0.6560522 -0.186195,0.2268525 -0.4826776,0.5882671 -0.6588495,0.803144 L 9.5,7.5594131 v 2.3861007 c 0,2.3418022 -0.00122,2.3897102 -0.065656,2.5805172 -0.1303028,0.385848 -0.5152091,0.778545 -0.8797047,0.897509 -0.2377678,0.0776 -0.2380631,0.07922 -0.028392,0.155139 0.3872353,0.140214 0.7453263,0.505837 0.8768463,0.89529 0.05857,0.173434 0.065656,0.266274 0.065656,0.860224 V 16 H 9.2205041 8.9722581 l -0.00957,-0.648437 C 8.9518503,14.616718 8.9292775,14.530381 8.6838234,14.284927 8.4781275,14.07923 8.3129272,14.015625 7.984375,14.015625 c -0.3285522,0 -0.4937525,0.06361 -0.6994484,0.269302 -0.2454541,0.245454 -0.2680269,0.331791 -0.2788682,1.066636 L 6.9964919,16 H 6.7482459 6.5 Z M 8.4435897,12.91179 c 0.1870478,-0.09173 0.3761765,-0.280727 0.4685191,-0.4682 l 0.072266,-0.146715 0.00836,-2.4691847 0.00836,-2.4691847 0.3595303,-0.4497581 C 9.5583644,6.6613806 9.7392009,6.4436075 9.7624819,6.4248072 9.8156275,6.3818903 10.50014,5.5132031 10.683659,5.2557775 10.758891,5.1502494 10.864871,5.0178881 10.91917,4.9616416 11.050132,4.8259844 11.862985,3.8118303 12.015547,3.59375 12.081678,3.4992187 12.154975,3.40588 12.178429,3.3863309 12.201883,3.3667816 12.374938,3.15686 12.562995,2.9198387 12.957925,2.422081 13.012755,2.3000244 12.994809,1.9585746 12.967763,1.4439596 12.5945,1.0658629 12.084348,1.0363235 11.657204,1.0115905 11.45321,1.1298864 11.041878,1.6408492 10.88978,1.8297884 10.725129,2.0265625 10.675988,2.078125 10.626847,2.1296875 10.521878,2.2632813 10.442725,2.375 10.266188,2.6241674 9.5729478,3.4979975 9.5006397,3.5625 9.4304116,3.6251469 9.1022766,4.0358622 8.9513716,4.25 8.8017925,4.4622562 8.3543697,5.0245056 8.2673069,5.1096228 8.2320069,5.1441341 8.1601881,5.2266147 8.10771,5.2929128 L 8.0122947,5.413455 7.5153303,4.792665 C 7.242,4.4512306 6.9738334,4.125855 6.919405,4.0696084 6.8649763,4.0133619 6.7588909,3.8810006 6.6836594,3.7754725 6.4944734,3.5100988 5.8162119,2.6509617 5.7507266,2.59375 5.6776938,2.5299441 5.106035,1.8099068 4.9443922,1.578125 4.8067656,1.3807806 4.5964103,1.2189109 4.3958303,1.1560032 4.2153569,1.0994015 3.8560394,1.1283526 3.6814103,1.2135657 3.4945956,1.3047248 3.3053525,1.4936956 3.2128913,1.6814103 3.1535903,1.8018027 3.140625,1.8785845 3.140625,2.109375 c 0,0.2493126 0.010439,0.3018524 0.091929,0.4626807 0.080678,0.1592258 0.9452381,1.2836643 1.058825,1.3770984 0.056003,0.046067 0.504929,0.6120578 0.6599922,0.8320959 0.150905,0.2141378 0.47904,0.6248531 0.5492681,0.6875 0.073764,0.065801 0.7679141,0.9415512 0.9451634,1.1924325 0.080847,0.1144316 0.1859794,0.2480253 0.2336275,0.296875 0.047648,0.04885 0.1463,0.1610816 0.2192263,0.2494044 L 7.03125,7.3680487 v 2.4214216 c 0,2.6489797 -0.00648,2.5503347 0.1847197,2.8103317 0.1083706,0.147361 0.2948444,0.29029 0.4609747,0.353329 0.1843615,0.06996 0.5835884,0.04843 0.7666453,-0.04134 z"
       id="path819"
       inkscape:connector-curvature="0" />
  </g>
</svg>
