<?xml version="1.0" encoding="UTF-8" standalone="no"?>
<!-- Created with Inkscape (http://www.inkscape.org/) -->

<svg
   version="1.1"
   id="svg2"
   width="1600"
   height="1600"
   viewBox="0 0 1600 1600"
   sodipodi:docname="mirror_x.svg"
   inkscape:version="1.2.2 (732a01da63, 2022-12-09)"
   xmlns:inkscape="http://www.inkscape.org/namespaces/inkscape"
   xmlns:sodipodi="http://sodipodi.sourceforge.net/DTD/sodipodi-0.dtd"
   xmlns="http://www.w3.org/2000/svg"
   xmlns:svg="http://www.w3.org/2000/svg"
   xmlns:rdf="http://www.w3.org/1999/02/22-rdf-syntax-ns#"
   xmlns:cc="http://creativecommons.org/ns#"
   xmlns:dc="http://purl.org/dc/elements/1.1/">
  <metadata
     id="metadata8">
    <rdf:RDF>
      <cc:Work
         rdf:about="">
        <dc:format>image/svg+xml</dc:format>
        <dc:type
           rdf:resource="http://purl.org/dc/dcmitype/StillImage" />
      </cc:Work>
    </rdf:RDF>
  </metadata>
  <defs
     id="defs6" />
  <sodipodi:namedview
     pagecolor="#808080"
     bordercolor="#666666"
     borderopacity="1"
     objecttolerance="10"
     gridtolerance="10"
     guidetolerance="10"
     inkscape:pageopacity="0"
     inkscape:pageshadow="2"
     inkscape:window-width="1993"
     inkscape:window-height="1009"
     id="namedview4"
     showgrid="false"
     inkscape:zoom="0.5"
     inkscape:cx="185"
     inkscape:cy="814"
     inkscape:window-x="-8"
     inkscape:window-y="-8"
     inkscape:window-maximized="1"
     inkscape:current-layer="MIRROR_X"
     inkscape:showpageshadow="0"
     inkscape:pagecheckerboard="true"
     inkscape:deskcolor="#d1d1d1" />
  <g
     id="MIRROR_X"
     transform="matrix(100,0,0,100,0,4.9999997e-5)"
     style="stroke-width:0.0114286">
    <path
       style="fill:none;stroke-width:0.000357143"
       d="M 0,8 V 0 h 8 8 v 8 8 h -1.546953 -1.546953 l 0.203873,-0.257812 c 0.277628,-0.351081 0.337095,-0.511969 0.352149,-0.95273 0.01018,-0.29795 0.0017,-0.382016 -0.05575,-0.55473 -0.08702,-0.261512 -0.294695,-0.542409 -0.527966,-0.714134 l -0.184174,-0.135581 0.198702,-0.144105 c 0.24226,-0.175695 0.453541,-0.454666 0.541415,-0.714877 0.09645,-0.285602 0.09259,-0.76149 -0.0084,-1.03981 C 13.337787,11.24345 13.404232,11.333385 12.251244,9.8962928 11.743529,9.2634725 11.278906,8.6812747 11.21875,8.6025197 10.915996,8.2061631 10.129468,7.2288456 10.082035,7.19007 10.052226,7.1657025 10.01385,7.1196281 9.9967531,7.0876831 9.9585512,7.0163022 9.9694906,7.0001781 10.530337,6.3012325 10.76287,6.0114416 11.083104,5.6106603 11.241967,5.4106075 11.400831,5.2105547 11.591915,4.9765625 11.666599,4.890625 11.741279,4.804688 11.961894,4.5304687 12.156845,4.28125 12.351796,4.0320312 12.691234,3.6048416 12.911151,3.33194 13.400481,2.7247165 13.44524,2.6273344 13.462116,2.133208 13.472296,1.8352581 13.463816,1.7511922 13.406366,1.5784781 13.271414,1.172944 12.896675,0.79512728 12.494781,0.65940547 12.206947,0.56220253 11.733442,0.56676269 11.450508,0.6694625 11.197356,0.76135141 10.934203,0.93771022 10.796133,1.1080069 10.739783,1.1775093 10.318277,1.7054688 9.8594509,2.28125 8.5804409,3.8862822 8.0543897,4.53267 8.0196484,4.5419156 7.9902712,4.5497337 7.5610153,4.0245806 6.1717991,2.28125 5.7129734,1.7054688 5.2914666,1.1775093 5.2351169,1.1080069 5.0970475,0.93771022 4.8338937,0.76135141 4.5807425,0.6694625 4.2978078,0.56676269 3.8243028,0.56220253 3.5364694,0.65940547 3.134575,0.79512728 2.7598356,1.172944 2.6248825,1.5784781 2.5674069,1.7511922 2.5589587,1.8352581 2.5691345,2.133208 2.5860102,2.6273344 2.6307693,2.7247165 3.1200987,3.33194 3.3400159,3.6048416 3.6794538,4.0320312 3.874405,4.28125 4.0693559,4.5304687 4.2899669,4.8046875 4.3646509,4.890625 4.439335,4.9765625 4.6304194,5.2105547 4.7892825,5.4106075 4.9481459,5.6106603 5.2683797,6.0114416 5.5009128,6.3012325 6.0617594,7.0001781 6.0726987,7.0163022 6.0344969,7.0876831 6.0174003,7.1196281 5.9790238,7.1657025 5.9492153,7.19007 5.9017822,7.2288456 5.1152538,8.2061631 4.8125,8.6025197 4.7523438,8.6812747 4.2877213,9.2634725 3.7800059,9.8962928 2.6270183,11.333385 2.6934636,11.24345 2.6053424,11.486221 c -0.1010246,0.27832 -0.104886,0.754208 -0.00844,1.03981 0.087875,0.260211 0.299155,0.539182 0.5414154,0.714877 l 0.1987025,0.144105 -0.184174,0.135581 c -0.2332711,0.171725 -0.4409411,0.452622 -0.5279669,0.714134 -0.057476,0.172714 -0.065924,0.25678 -0.055748,0.55473 0.015053,0.440761 0.074521,0.601649 0.3521481,0.952729 L 3.1251556,16 H 1.5625778 0 Z m 6.15625,6.916827 C 5.074885,13.557326 5.1530178,13.647259 4.9203763,13.494306 L 4.7230962,13.364602 4.8924578,13.243325 c 0.093149,-0.0667 0.2819791,-0.257722 0.4196225,-0.424489 C 5.4497238,12.65207 5.6337394,12.43125 5.7210041,12.328125 5.8082684,12.225 5.9449397,12.049219 6.0247178,11.9375 6.1623984,11.744696 6.4543603,11.380683 7.0725197,10.631116 7.2241244,10.447283 7.4133531,10.205469 7.4930278,10.09375 7.5727025,9.9820313 7.7221034,9.7864266 7.82503,9.6590728 L 8.0121691,9.4275209 8.1316172,9.5653228 c 0.065697,0.075791 0.1789744,0.2209447 0.2517281,0.3225631 0.1368356,0.1911251 0.6553756,0.8410121 1.1491544,1.4402391 0.1557928,0.189063 0.3586312,0.449219 0.4507528,0.578125 0.092121,0.128906 0.2390795,0.31875 0.3265745,0.421875 0.0875,0.103125 0.271699,0.323945 0.409343,0.490711 0.137643,0.166767 0.326473,0.357786 0.419622,0.424489 l 0.169362,0.121277 -0.19728,0.129704 C 10.878232,13.647259 10.956365,13.557326 9.875,14.916827 L 9.015625,15.99724 h -1 -1 z"
       id="path825"
       inkscape:connector-curvature="0" />
    <path
       style="fill:#cbcbcb;stroke-width:0.000357143"
       d="m 3.4748447,15.604764 c -0.3683808,-0.459827 -0.4249571,-0.5887 -0.4071541,-0.927439 0.014055,-0.267426 0.098357,-0.461019 0.279736,-0.642398 0.2056959,-0.205697 0.3708962,-0.269302 0.6994484,-0.269302 0.2446797,0 0.3043847,0.01136 0.4591712,0.08737 0.097857,0.04805 0.2269379,0.139461 0.2868466,0.203125 0.1055213,0.112136 1.4829134,1.826068 1.5307944,1.904816 C 6.3425366,15.991938 6.0836769,16 5.0694591,16 H 3.7914797 Z m 6.2327181,0.356174 c 0.047881,-0.07875 1.4252732,-1.79268 1.5307942,-1.904816 0.05991,-0.06366 0.18899,-0.155071 0.286847,-0.203125 0.154786,-0.07601 0.214491,-0.08737 0.459171,-0.08737 0.328552,0 0.493752,0.06361 0.699448,0.269302 0.18138,0.181379 0.265681,0.374972 0.279736,0.642398 0.0178,0.338739 -0.03877,0.467612 -0.407154,0.927439 L 12.23977,16 H 10.961791 C 9.9475731,16 9.6887134,15.9919 9.7075628,15.96094 Z"
       id="path823"
       inkscape:connector-curvature="0" />
    <path
       style="fill:#fecb32;stroke-width:0.000357143"
       d="M 3.6769444,12.951609 C 3.4021025,12.850806 3.13937,12.571428 3.0630428,12.298813 3.0040861,12.088241 3.0329517,11.7589 3.1257047,11.583878 3.2008131,11.44215 4.8577019,9.3409456 5.0813125,9.1038491 5.1424344,9.0390413 5.2541406,8.8977569 5.3295494,8.7898841 5.4879856,8.5632384 6.2075081,7.6571322 6.269195,7.6065728 6.2920456,7.5878441 6.4087925,7.4499525 6.5286325,7.3001472 6.7389944,7.0371853 6.7445666,7.0258166 6.6898937,6.9711438 6.6587475,6.9399975 6.5716391,6.8318094 6.4963197,6.7307256 6.2927619,6.4575375 5.5252556,5.4891916 5.4836997,5.453125 5.4362947,5.4119819 5.10845,5.0005416 4.942335,4.77372 4.8700709,4.6750475 4.770355,4.5527909 4.7207434,4.5020394 4.6711319,4.4512875 4.4904794,4.2296759 4.3192931,4.0095691 4.1481069,3.7894625 3.8169559,3.372125 3.5834019,3.0821525 3.0986151,2.480258 3.0489301,2.378031 3.0676906,2.0210746 3.0817457,1.7536495 3.1660472,1.5600558 3.3474266,1.3786765 3.5531225,1.1729803 3.7183228,1.109375 4.046875,1.109375 c 0.2446797,0 0.3043847,0.011361 0.4591712,0.087372 0.097857,0.048054 0.227016,0.1394608 0.28702,0.203125 0.060004,0.063664 0.4783194,0.5798157 0.9295894,1.1470032 1.1295913,1.4197491 1.5351563,1.9236062 1.6462931,2.0452853 0.052206,0.057158 0.2185457,0.2682144 0.3696444,0.4690138 l 0.2747247,0.36509 0.1105284,-0.1428969 C 8.1846372,5.2047737 8.3147541,5.0340922 8.412995,4.904075 8.5112362,4.7740578 8.6277725,4.6286656 8.6719647,4.5809813 8.7672225,4.4781966 9.1943256,3.9473659 10.308594,2.546875 c 0.45127,-0.5671875 0.869585,-1.0833389 0.92959,-1.1470032 0.06,-0.063664 0.189163,-0.1550705 0.28702,-0.203125 0.154786,-0.076011 0.214491,-0.087372 0.459171,-0.087372 0.328552,0 0.493752,0.063605 0.699448,0.2693015 0.18138,0.1813793 0.265681,0.374973 0.279736,0.6423981 0.01876,0.3569564 -0.03092,0.4591834 -0.515711,1.0610779 -0.233554,0.2899725 -0.564705,0.70731 -0.735891,0.9274166 -0.171186,0.2201068 -0.351839,0.4417184 -0.40145,0.4924703 -0.04961,0.050751 -0.149328,0.1730081 -0.221592,0.2716806 -0.166115,0.2268216 -0.49396,0.6382619 -0.541365,0.679405 -0.04156,0.036067 -0.8090619,1.0044125 -1.0126197,1.2776006 -0.075319,0.1010838 -0.1624278,0.2092719 -0.1935741,0.2404182 -0.054673,0.054673 -0.049101,0.066041 0.1612613,0.3290034 0.11984,0.1498053 0.2365869,0.2876969 0.2594375,0.3064256 0.061687,0.050559 0.781209,0.9566656 0.939646,1.1833113 0.07541,0.1078728 0.187115,0.2491572 0.248237,0.313965 0.224898,0.2384622 1.880715,2.3387091 1.956312,2.4813981 0.06667,0.125844 0.07813,0.18881 0.07813,0.429544 0,0.329462 -0.06344,0.494416 -0.269302,0.700282 -0.176978,0.176979 -0.375531,0.265077 -0.630725,0.279854 -0.408208,0.02364 -0.634192,-0.09773 -0.980193,-0.526433 C 10.986357,12.322541 10.843943,12.153906 10.78768,12.09375 10.73142,12.03359 10.605001,11.874158 10.506755,11.739448 10.285213,11.435683 9.6689434,10.658182 9.6132109,10.612133 9.556865,10.565576 9.1005325,9.9923547 8.9517584,9.78125 8.8027572,9.5698231 8.4785419,9.1627006 8.3918191,9.078125 8.3565716,9.04375 8.2589494,8.9277344 8.1748813,8.8203125 8.0908131,8.7128906 8.0191478,8.625 8.015625,8.625 8.012105,8.625 7.940437,8.712891 7.8563687,8.8203125 7.7723006,8.9277344 7.6746784,9.04375 7.6394309,9.078125 7.5527081,9.1627006 7.2284928,9.5698231 7.0794916,9.78125 6.9307175,9.9923547 6.474385,10.565576 6.4180391,10.612133 c -0.055732,0.04605 -0.6720025,0.82355 -0.8935438,1.127315 -0.098246,0.13471 -0.2246628,0.294146 -0.2809256,0.354302 -0.056263,0.06016 -0.1979028,0.227824 -0.3147553,0.372595 -0.2345688,0.290613 -0.3860016,0.416547 -0.5855503,0.486952 -0.1639722,0.05785 -0.5063472,0.05699 -0.6663197,-0.0017 z"
       id="path821"
       inkscape:connector-curvature="0" />
    <path
       style="fill:#653200;stroke-width:0.000357143"
       d="m 2.9212826,15.742188 c -0.2776274,-0.351081 -0.3370949,-0.511969 -0.3521481,-0.95273 -0.010176,-0.29795 -0.00173,-0.382016 0.055748,-0.55473 0.087026,-0.261512 0.2946958,-0.542409 0.5279669,-0.714134 L 3.3370234,13.385013 3.1383209,13.240908 C 2.8960605,13.065213 2.6847801,12.786242 2.5969055,12.526031 2.5004564,12.240429 2.5043177,11.764541 2.6053424,11.486221 2.6934636,11.24345 2.6270183,11.333385 3.7800059,9.8962928 4.2877212,9.2634725 4.7523437,8.6812747 4.8125,8.6025197 5.1152537,8.2061631 5.9017822,7.2288456 5.9492153,7.19007 5.9790237,7.1657025 6.0174003,7.1196281 6.0344969,7.0876831 6.0726987,7.0163022 6.0617594,7.0001781 5.5009128,6.3012325 5.2683797,6.0114416 4.9481459,5.6106603 4.7892825,5.4106075 4.6304194,5.2105547 4.439335,4.9765625 4.3646509,4.890625 4.2899669,4.8046875 4.0693559,4.5304687 3.874405,4.28125 3.6794538,4.0320312 3.3400159,3.6048416 3.1200987,3.33194 2.6307693,2.7247165 2.5860102,2.6273344 2.5691345,2.133208 2.5589587,1.8352581 2.5674069,1.7511922 2.6248825,1.5784781 2.7598356,1.172944 3.134575,0.79512728 3.5364694,0.65940547 c 0.2878334,-0.0972029 0.7613384,-0.0926428 1.0442731,0.010057 0.2531512,0.0918889 0.516305,0.26824772 0.6543744,0.43854443 0.05635,0.069502 0.4778565,0.5974619 0.9366822,1.1732431 1.2792171,1.6052922 1.8166134,2.265625 1.8438259,2.265625 0.027212,0 0.5646087,-0.6603328 1.8438259,-2.265625 0.4588261,-0.5757812 0.8803321,-1.1037407 0.9366821,-1.1732431 0.13807,-0.17029671 0.401223,-0.34665552 0.654374,-0.43854443 0.282935,-0.10269981 0.75644,-0.10725997 1.044274,-0.010057 0.401894,0.13572181 0.776633,0.51353853 0.911586,0.91907263 0.05748,0.1727142 0.06592,0.25678 0.05575,0.5547299 -0.01688,0.4941264 -0.06164,0.5915085 -0.550965,1.198732 -0.219917,0.2729016 -0.559355,0.7000912 -0.754306,0.94931 -0.194951,0.2492187 -0.415562,0.5234375 -0.490246,0.609375 -0.07468,0.085937 -0.265768,0.3199297 -0.424632,0.5199825 -0.158863,0.2000528 -0.479097,0.6008341 -0.71163,0.890625 -0.5608464,0.6989456 -0.5717858,0.7150697 -0.5335839,0.7864506 0.017097,0.031945 0.055473,0.078019 0.085282,0.1023869 0.04743,0.038776 0.833961,1.0160931 1.136715,1.4124497 0.06016,0.078755 0.524779,0.6609528 1.032494,1.2937731 1.152988,1.4370922 1.086543,1.3471572 1.174663,1.5899282 0.101025,0.27832 0.104887,0.754208 0.0084,1.03981 -0.08787,0.260211 -0.299155,0.539182 -0.541415,0.714877 l -0.198702,0.144105 0.184174,0.135581 c 0.233271,0.171725 0.440941,0.452622 0.527966,0.714134 0.05748,0.172714 0.06592,0.25678 0.05575,0.55473 -0.01505,0.440761 -0.07452,0.601649 -0.352149,0.952729 L 12.906094,16 h -0.331873 c -0.260939,0 -0.325352,-0.0083 -0.301362,-0.03906 0.01678,-0.02148 0.15847,-0.198683 0.314862,-0.393775 0.334272,-0.41699 0.39334,-0.556838 0.375838,-0.889837 -0.01406,-0.267426 -0.09836,-0.461019 -0.279736,-0.642398 -0.205696,-0.205697 -0.370896,-0.269302 -0.699448,-0.269302 -0.242734,0 -0.304787,0.0116 -0.453125,0.08472 -0.09453,0.04659 -0.214063,0.125374 -0.265625,0.175068 -0.05156,0.04969 -0.43125,0.514137 -0.84375,1.032096 l -0.75,0.941743 -0.3203125,3.75e-4 C 9.1753906,15.999849 9.03125,15.99303 9.03125,15.98451 c 0,-0.01231 1.291026,-1.636272 1.768606,-2.224705 0.0584,-0.07195 0.196654,-0.190308 0.307237,-0.263012 l 0.201061,-0.132189 -0.169362,-0.121278 C 11.045643,13.176621 10.856813,12.985601 10.71917,12.818835 10.581526,12.65207 10.397322,12.43125 10.309827,12.328125 10.222333,12.225 10.075374,12.035156 9.9832525,11.90625 9.8911309,11.777344 9.6882925,11.517188 9.5324997,11.328125 9.0387209,10.728898 8.5201809,10.079011 8.3833453,9.8878859 8.3105916,9.7862675 8.1973141,9.6411141 8.1316172,9.5653228 L 8.0121691,9.4275209 7.82503,9.6590728 C 7.7221034,9.7864266 7.5727025,9.9820313 7.4930278,10.09375 7.4133531,10.205469 7.2241244,10.447283 7.0725197,10.631116 6.4543603,11.380683 6.1623984,11.744696 6.0247178,11.9375 5.9449397,12.049219 5.8082684,12.225 5.7210041,12.328125 5.6337394,12.43125 5.4497237,12.65207 5.3120803,12.818836 5.1744369,12.985603 4.9856069,13.176622 4.8924578,13.243325 l -0.1693616,0.121277 0.2010604,0.132189 c 0.1105831,0.0727 0.24884,0.19106 0.3072372,0.263012 C 5.7089741,14.348236 7,15.9722 7,15.984508 c 0,0.0085 -0.1441406,0.01532 -0.3203125,0.01512 l -0.3203125,-3.75e-4 -0.75,-0.941743 C 5.196875,14.539547 4.8171875,14.075104 4.765625,14.02541 4.7140625,13.975716 4.5945312,13.896936 4.5,13.850342 c -0.1483375,-0.07311 -0.2103909,-0.08472 -0.453125,-0.08472 -0.3285522,0 -0.4937525,0.06361 -0.6994484,0.269302 -0.1813794,0.181379 -0.2656809,0.374973 -0.279736,0.642398 -0.017501,0.332999 0.041566,0.472847 0.3758388,0.889838 0.1563919,0.195092 0.2980797,0.37229 0.3148612,0.393775 0.023991,0.03071 -0.040423,0.03906 -0.3013615,0.03906 H 3.1251556 L 2.9212826,15.742183 Z M 4.3432641,12.953297 C 4.5428128,12.882897 4.6942456,12.756958 4.9288144,12.466345 5.0456669,12.321574 5.1873066,12.153906 5.2435697,12.09375 5.2998327,12.03359 5.4262491,11.874158 5.5244953,11.739448 5.7460366,11.435683 6.3623066,10.658182 6.4180391,10.612133 6.474385,10.565576 6.9307175,9.9923547 7.0794916,9.78125 7.2284928,9.5698231 7.5527081,9.1627006 7.6394309,9.078125 7.6746784,9.04375 7.7723006,8.9277344 7.8563688,8.8203125 7.9404369,8.7128906 8.0121022,8.625 8.015625,8.625 c 0.00352,0 0.075188,0.087891 0.1592563,0.1953125 0.084068,0.1074219 0.1816903,0.2234375 0.2169378,0.2578125 0.086723,0.084576 0.4109381,0.4916981 0.5599393,0.703125 0.1487741,0.2111047 0.6051066,0.784326 0.6614525,0.830883 0.055732,0.04605 0.6720021,0.82355 0.8935441,1.127315 0.09825,0.13471 0.224662,0.294146 0.280925,0.354302 0.05626,0.06016 0.198677,0.228791 0.316475,0.374744 0.346001,0.4287 0.571985,0.550069 0.980193,0.526433 0.255195,-0.01478 0.453747,-0.102875 0.630725,-0.279854 0.205867,-0.205866 0.269302,-0.37082 0.269302,-0.700282 0,-0.240734 -0.01145,-0.3037 -0.07813,-0.429544 C 12.830653,11.442558 11.174836,9.3423113 10.949938,9.1038491 10.888816,9.0390413 10.777109,8.8977569 10.701701,8.7898841 10.543264,8.5632384 9.8237419,7.6571322 9.762055,7.6065728 9.7392044,7.5878441 9.6224575,7.4499525 9.5026175,7.3001472 9.2922556,7.0371853 9.2866834,7.0258166 9.3413562,6.9711438 9.3725025,6.9399975 9.4596109,6.8318094 9.5349303,6.7307256 9.7384881,6.4575375 10.505994,5.4891916 10.54755,5.453125 10.59496,5.411982 10.9228,5.0005416 11.088915,4.77372 c 0.07226,-0.098673 0.17198,-0.2209291 0.221592,-0.2716806 0.04961,-0.050752 0.230264,-0.2723635 0.40145,-0.4924703 C 11.883143,3.7894625 12.214294,3.372125 12.447848,3.0821525 12.932635,2.480258 12.98232,2.378031 12.963559,2.0210746 12.949504,1.7536495 12.865203,1.5600558 12.683823,1.3786765 12.478127,1.1729803 12.312927,1.109375 11.984375,1.109375 c -0.24468,0 -0.304385,0.011361 -0.459171,0.087372 -0.09786,0.048054 -0.227016,0.1394608 -0.28702,0.203125 -0.06001,0.063664 -0.47832,0.5798157 -0.92959,1.1470032 C 9.1943256,3.9473659 8.7672225,4.4781966 8.6719647,4.5809812 8.6277725,4.6286656 8.5112363,4.7740578 8.412995,4.904075 8.3147541,5.0340922 8.1846372,5.2047737 8.1238463,5.2833672 L 8.0133178,5.4262641 7.7385931,5.0611741 C 7.5874944,4.8603747 7.4211547,4.6493184 7.3689488,4.5921603 7.2578119,4.4704812 6.8522469,3.9666241 5.7226556,2.546875 5.2713856,1.9796875 4.8530706,1.4635361 4.7930662,1.3998718 4.7330622,1.3362076 4.6039031,1.2448013 4.5060462,1.1967468 4.3512597,1.1207357 4.2915547,1.109375 4.046875,1.109375 c -0.3285522,0 -0.4937525,0.063605 -0.6994484,0.2693015 -0.1813794,0.1813793 -0.2656809,0.374973 -0.279736,0.6423981 -0.01876,0.3569564 0.030924,0.4591834 0.5157113,1.0610779 0.233554,0.2899725 0.564705,0.70731 0.7358912,0.9274166 0.1711863,0.2201068 0.3518388,0.4417184 0.4014503,0.4924703 0.049612,0.050751 0.1493275,0.1730081 0.2215916,0.2716806 0.166115,0.2268216 0.4939597,0.6382619 0.5413647,0.679405 0.041556,0.036067 0.8090622,1.0044125 1.01262,1.2776006 0.075319,0.1010838 0.1624278,0.2092719 0.193574,0.2404182 0.054673,0.054673 0.049101,0.066041 -0.1612612,0.3290034 C 6.4087925,7.4499525 6.2920456,7.5878441 6.269195,7.6065728 6.2075081,7.6571322 5.4879856,8.5632384 5.3295494,8.7898841 5.2541406,8.8977569 5.1424344,9.0390413 5.0813125,9.1038491 4.8577019,9.3409456 3.2008131,11.44215 3.1257047,11.583878 c -0.092753,0.175022 -0.1216186,0.504363 -0.062662,0.714935 0.076327,0.272615 0.3390598,0.551993 0.6139017,0.652796 0.1599725,0.05867 0.5023475,0.05954 0.6663197,0.0017 z"
       id="path819"
       inkscape:connector-curvature="0" />
  </g>
</svg>
