<?xml version="1.0" encoding="UTF-8" standalone="no"?>
<!-- Created with Inkscape (http://www.inkscape.org/) -->

<svg
   version="1.1"
   id="svg2"
   width="1600"
   height="1600"
   viewBox="0 0 1600 1600"
   sodipodi:docname="mod_displace.svg"
   inkscape:version="1.2.2 (732a01da63, 2022-12-09)"
   xmlns:inkscape="http://www.inkscape.org/namespaces/inkscape"
   xmlns:sodipodi="http://sodipodi.sourceforge.net/DTD/sodipodi-0.dtd"
   xmlns="http://www.w3.org/2000/svg"
   xmlns:svg="http://www.w3.org/2000/svg"
   xmlns:rdf="http://www.w3.org/1999/02/22-rdf-syntax-ns#"
   xmlns:cc="http://creativecommons.org/ns#"
   xmlns:dc="http://purl.org/dc/elements/1.1/">
  <metadata
     id="metadata8">
    <rdf:RDF>
      <cc:Work
         rdf:about="">
        <dc:format>image/svg+xml</dc:format>
        <dc:type
           rdf:resource="http://purl.org/dc/dcmitype/StillImage" />
      </cc:Work>
    </rdf:RDF>
  </metadata>
  <defs
     id="defs6" />
  <sodipodi:namedview
     pagecolor="#808080"
     bordercolor="#666666"
     borderopacity="1"
     objecttolerance="10"
     gridtolerance="10"
     guidetolerance="10"
     inkscape:pageopacity="0"
     inkscape:pageshadow="2"
     inkscape:window-width="1993"
     inkscape:window-height="1009"
     id="namedview4"
     showgrid="false"
     inkscape:zoom="0.5"
     inkscape:cx="-3"
     inkscape:cy="8"
     inkscape:window-x="-8"
     inkscape:window-y="-8"
     inkscape:window-maximized="1"
     inkscape:current-layer="MOD_DISPLACE"
     inkscape:showpageshadow="0"
     inkscape:pagecheckerboard="true"
     inkscape:deskcolor="#d1d1d1" />
  <g
     id="MOD_DISPLACE"
     transform="matrix(100,0,0,100,0,4.9999997e-5)"
     style="stroke-width:0.0114286">
    <path
       style="fill:none;stroke-width:0.000357143"
       d="M 0,13.5 V 11 h 1.2488501 1.2488501 l 0.4777124,0.397078 c 0.2627418,0.218392 0.7659936,0.636103 1.1183374,0.928246 1.1138825,0.923566 1.5100334,1.258581 1.7109375,1.446896 L 6,13.955295 V 14.977648 16 H 3 0 Z m 9,1.549252 v -0.950748 l 0.085937,-0.06607 c 0.1915881,-0.147292 0.4942316,-0.368062 0.6752563,-0.492581 0.3415797,-0.234957 0.4992177,-0.346472 0.7856807,-0.555804 0.154688,-0.113037 0.372656,-0.267957 0.484375,-0.344265 0.111719,-0.07631 0.308594,-0.217044 0.4375,-0.312746 0.128906,-0.0957 0.311719,-0.224908 0.40625,-0.287127 0.09453,-0.06222 0.245157,-0.17048 0.334724,-0.240581 0.08957,-0.0701 0.255346,-0.190737 0.368398,-0.268081 0.113051,-0.07734 0.290419,-0.203906 0.39415,-0.28125 0.368923,-0.275076 0.196756,-0.249651 1.691791,-0.249836 L 16,11 V 13.5 16 H 12.5 9 Z M 3,8.5 V 8 H 1.5 0 V 5.5 3 H 0.93205269 C 1.8594681,3 1.8644131,3.0003497 1.9259502,3.070312 1.9800042,3.131767 2.2454901,3.5261679 2.6448329,4.1382717 2.7112689,4.2401029 2.8570313,4.4605054 2.96875,4.6280551 3.0804688,4.7956051 3.3291097,5.1693201 3.521285,5.4585329 3.7134606,5.7477462 3.9148728,6.0476562 3.9688675,6.125 4.0228622,6.2023437 4.1539091,6.3980044 4.2600825,6.5598016 4.3662559,6.7215987 4.5445313,6.9911853 4.65625,7.1588828 4.7679687,7.3265803 5.0164928,7.7004506 5.2085256,7.9897062 5.4005587,8.2789616 5.5974122,8.571875 5.6459784,8.640625 c 0.048566,0.06875 0.120761,0.1777344 0.1604328,0.2421875 L 5.8785425,9 H 4.4392712 3 Z M 9.4398587,8.8828125 C 9.478335,8.8183594 9.5475869,8.7234375 9.5937522,8.671875 9.7308406,8.5187597 10.172073,7.9605934 10.236037,7.859375 c 0.03258,-0.051563 0.200227,-0.2679309 0.372541,-0.4808188 0.172313,-0.2128878 0.373969,-0.4713465 0.448123,-0.5743528 0.07415,-0.1030062 0.272081,-0.3577315 0.439837,-0.5660562 0.167756,-0.2083247 0.33161,-0.4209597 0.36412,-0.4725222 0.03251,-0.051563 0.16996,-0.2273438 0.305445,-0.390625 0.135485,-0.1632813 0.31174,-0.3867219 0.391679,-0.4965347 0.07994,-0.1098128 0.314093,-0.414895 0.520343,-0.6779603 0.20625,-0.2630653 0.501291,-0.6407966 0.655646,-0.8394028 L 14.014417,3 H 15.007208 16 V 5.5 8 H 14.5 13 V 8.5 9 H 11.184951 9.3699025 Z M 3,0.5 V 0 h 5 5 V 0.5 1 H 8 3 Z"
       id="path851"
       inkscape:connector-curvature="0" />
    <path
       style="fill:#fefe65;stroke-width:0.000357143"
       d="M 7,14.5 V 14 H 7.5 8 V 14.5 15 H 7.5 7 Z m 0,-4 V 10 H 7.5 8 V 10.5 11 H 7.5 7 Z M 1,9.5 V 9 H 1.5 2 V 9.5 10 H 1.5 1 Z m 13,0 V 9 H 14.5 15 V 9.5 10 H 14.5 14 Z M 1,1.5 V 1 H 1.5 2 V 1.5 2 H 1.5 1 Z m 13,0 V 1 H 14.5 15 V 1.5 2 H 14.5 14 Z"
       id="path849"
       inkscape:connector-curvature="0" />
    <path
       style="fill:#cbcbcb;stroke-width:0.000357143"
       d="M 6.3432041,12.86682 C 6.2661606,12.793571 6.0414062,12.59959 5.84375,12.435752 3.2767797,10.30797 3.0163314,10.089952 3.0052083,10.059638 2.9990554,10.04287 3.6098328,10.03125 4.4973959,10.03125 H 6 V 11.015625 12 H 7.5 9 V 11.015625 10.03125 l 1.960938,5.94e-4 1.960937,5.94e-4 -0.15625,0.09795 c -0.08594,0.05387 -0.229532,0.155559 -0.319099,0.225968 -0.08957,0.07041 -0.255423,0.191298 -0.368569,0.268642 -0.113146,0.07734 -0.285958,0.200774 -0.384026,0.274289 -0.09807,0.07352 -0.248618,0.182033 -0.334556,0.241151 -0.08594,0.05912 -0.282812,0.199583 -0.4375,0.312143 -0.154687,0.11256 -0.372656,0.267376 -0.484375,0.344035 -0.111719,0.07666 -0.308594,0.217745 -0.4375,0.313522 -0.1289062,0.09578 -0.3257812,0.236545 -0.4375,0.312817 -0.1117187,0.07627 -0.3406913,0.237309 -0.5088278,0.35786 L 8.7479697,13 H 7.6156262 6.4832828 Z"
       id="path847"
       inkscape:connector-curvature="0" />
    <path
       style="fill:#fefe00;stroke-width:0.000357143"
       d="M 7.0432153,8.8702288 C 6.9936656,8.7988544 6.8617187,8.6029263 6.75,8.4348328 6.6382813,8.2667394 6.4118512,7.9278709 6.2468222,7.6817919 6.0817934,7.4357125 5.8919497,7.1510587 5.8249472,7.0492278 5.6231434,6.7425234 5.3141481,6.2792153 4.9961031,5.8064572 4.8306784,5.5605619 4.6408347,5.2760587 4.5742281,5.1742278 4.3994128,4.9069631 4.0911722,4.444385 3.7461031,3.9314572 3.5806784,3.6855619 3.3947053,3.4070313 3.3328291,3.3125 3.2709531,3.2179687 3.1707537,3.0666008 3.1101637,2.9761268 L 3,2.8116287 V 2.4214393 2.03125 h 5 5 v 0.2979626 0.2979625 l -0.139095,0.1786 C 12.784403,2.904005 12.555638,3.1953125 12.352539,3.453125 12.14944,3.7109375 11.917938,4.0132813 11.83809,4.125 c -0.07985,0.1117187 -0.274368,0.3578125 -0.432267,0.546875 -0.157899,0.1890625 -0.324136,0.4 -0.369416,0.46875 -0.04528,0.06875 -0.216758,0.29375 -0.38106,0.5 C 10.491045,5.846875 10.322158,6.0648437 10.280042,6.125 10.237927,6.1851563 10.023565,6.4577744 9.8036816,6.7308178 9.5837988,7.0038612 9.3880819,7.2569862 9.3687556,7.2933178 9.3494294,7.3296494 9.2198813,7.4980759 9.0808709,7.6675991 8.9418606,7.8371222 8.7687566,8.0550909 8.696195,8.1519741 8.6236338,8.2488572 8.4478525,8.4786328 8.30557,8.6625872 l -0.258695,0.3344619 -0.4567847,0.00147 -0.456785,0.00148 z"
       id="path845"
       inkscape:connector-curvature="0" />
    <path
       style="fill:#fe6500;stroke-width:0.000357143"
       d="M 9,9.2218738 V 9 H 8.53125 C 8.2734375,9 8.0625,8.9924234 8.0625,8.9831631 8.0625,8.9739028 8.1785156,8.8192059 8.3203125,8.6393922 8.4621094,8.4595788 8.634375,8.2366659 8.703125,8.1440303 8.771875,8.051395 8.9418606,7.8369512 9.0808709,7.6674888 9.2198813,7.4980263 9.3494294,7.3296494 9.3687556,7.2933178 9.3880819,7.2569863 9.5837988,7.0038613 9.8036816,6.7308178 10.023565,6.4577744 10.237927,6.1851563 10.280042,6.125 c 0.04212,-0.060156 0.211003,-0.278125 0.375305,-0.484375 0.164302,-0.20625 0.335779,-0.43125 0.38106,-0.5 0.04528,-0.06875 0.211517,-0.2796875 0.369416,-0.46875 C 11.563722,4.4828125 11.758242,4.2367188 11.83809,4.125 11.91794,4.0132813 12.145236,3.7165463 12.343196,3.4655888 12.541157,3.2146316 12.766406,2.9263502 12.84375,2.8249638 l 0.140625,-0.1843388 0.0093,0.1789208 0.0093,0.1789207 0.500854,0.00858 0.500853,0.00858 -0.260202,0.3320875 c -0.614802,0.7846506 -1.065732,1.3668059 -1.178556,1.5215294 -0.06662,0.091364 -0.239221,0.3093331 -0.38355,0.484375 -0.14433,0.1750418 -0.289081,0.3604456 -0.32167,0.4120081 -0.03259,0.051563 -0.196508,0.2641975 -0.364264,0.4725222 -0.167756,0.2083247 -0.365683,0.46305 -0.439837,0.5660562 -0.07415,0.1030063 -0.27581,0.361465 -0.448123,0.5743528 C 10.436264,7.5914441 10.268566,7.8078125 10.235915,7.859375 10.203264,7.9109375 10.034873,8.1270522 9.8617122,8.33963 9.6885516,8.5522078 9.5128738,8.7772078 9.4713169,8.83963 9.42976,8.9020522 9.3067131,9.063515 9.1978794,9.1984363 L 9,9.4437472 Z M 5.8357775,8.9301778 C 5.7540487,8.8052988 5.6537547,8.6539063 5.6129016,8.59375 5.5720484,8.5335938 5.3857922,8.2548266 5.1989991,7.9742675 5.0122059,7.6937084 4.7679687,7.3268691 4.65625,7.1590694 4.5445313,6.9912694 4.3662559,6.7215987 4.2600825,6.5598016 4.1539091,6.3980044 4.0228622,6.2023437 3.9688675,6.125 3.9148728,6.0476562 3.7134606,5.7477462 3.521285,5.4585334 3.3291097,5.1693206 3.0804688,4.7956056 2.96875,4.6280556 2.8570313,4.4605059 2.7112686,4.2401034 2.6448329,4.1382722 2.2454901,3.5261684 1.9800045,3.1317678 1.9259502,3.0703125 L 1.8641054,3 H 2.429977 2.9958486 l 0.00989,-0.085937 c 0.00954,-0.082873 0.013497,-0.080366 0.1110887,0.070312 0.05566,0.085937 0.1392748,0.2125 0.1858098,0.28125 0.080085,0.1183166 0.4995344,0.7463944 0.9473647,1.4185719 0.1117187,0.1676859 0.2576212,0.3881997 0.3242281,0.4900309 0.066607,0.1018309 0.2564503,0.3863341 0.421875,0.6322294 0.318045,0.4727581 0.6270403,0.9360662 0.8288441,1.2427706 0.067002,0.1018309 0.2568462,0.3864269 0.421875,0.6324356 0.1650291,0.2460088 0.3846462,0.5764775 0.4880384,0.734375 0.1033919,0.1578975 0.2345053,0.3503678 0.2913625,0.4277116 l 0.1033772,0.140625 -0.5627916,0.00851 -0.5627918,0.00851 -0.00982,0.077918 C 5.9856584,9.1470475 5.964955,9.1275572 5.8357775,8.9301778 Z M 3,1.515625 V 1 h 5 5 V 1.515625 2.03125 H 8 3 Z"
       id="path843"
       inkscape:connector-curvature="0" />
    <path
       style="fill:#656565;stroke-width:0.000357143"
       d="m 9,13.551138 v -0.547365 l -0.1171875,-0.0097 -0.1171875,-0.0097 0.2881438,-0.203125 c 0.158479,-0.111719 0.3786731,-0.266406 0.4893199,-0.34375 0.1106469,-0.07734 0.316416,-0.225 0.4572643,-0.328125 0.140849,-0.103125 0.337344,-0.24375 0.436655,-0.3125 0.09931,-0.06875 0.317132,-0.223437 0.484045,-0.34375 0.166913,-0.120313 0.364076,-0.260938 0.43814,-0.3125 0.07406,-0.05156 0.219875,-0.157031 0.324025,-0.234375 0.104149,-0.07734 0.281859,-0.203906 0.39491,-0.28125 0.113052,-0.07734 0.278831,-0.198232 0.368398,-0.268642 0.08957,-0.07041 0.233162,-0.172095 0.319099,-0.225968 l 0.15625,-0.09795 -1.960937,-5.94e-4 L 9,10.03125 V 9.7390559 9.4468619 L 9.1767831,9.2234309 9.3535659,9 H 11.176783 13 v 1 1 l 0.164063,1.56e-4 0.164062,1.57e-4 -0.08363,0.05452 c -0.04599,0.02999 -0.168496,0.117805 -0.272227,0.195148 -0.103731,0.07734 -0.281099,0.203907 -0.39415,0.28125 -0.113052,0.07734 -0.278831,0.19798 -0.368398,0.268081 -0.08957,0.0701 -0.240193,0.178362 -0.334724,0.240581 -0.09453,0.06222 -0.277344,0.191427 -0.40625,0.287128 -0.128906,0.0957 -0.325781,0.236437 -0.4375,0.312745 -0.111719,0.07631 -0.329687,0.231228 -0.484375,0.344265 -0.286463,0.209332 -0.444101,0.320847 -0.7856812,0.555805 -0.1810247,0.124518 -0.4836682,0.345288 -0.6752563,0.492581 L 9,14.098487 V 13.551122 Z M 5.796875,13.765287 C 5.6041516,13.584105 5.2097353,13.250633 4.09375,12.325324 3.7414062,12.033181 3.2381544,11.61547 2.9754126,11.397078 L 2.4977002,11 h 0.2503145 0.2503145 l 0.00865,-0.456532 0.00865,-0.456531 0.59375,0.494289 c 0.52865,0.440095 1.0260169,0.852908 2.234375,1.854526 0.1976562,0.163838 0.4224106,0.357819 0.4994541,0.431068 L 6.4832828,13 H 6.2424553 6.0016278 l -0.00863,0.470779 -0.00863,0.470779 z M 3,9.515625 V 9 h 1.4463872 1.4463872 l 0.053613,0.090759 C 5.9899584,9.1645191 6,9.2610959 6,9.6063841 V 10.03125 H 4.5 3 Z"
       id="path841"
       inkscape:connector-curvature="0" />
    <path
       style="fill:#323232;stroke-width:0.000357143"
       d="M 6,14.5 V 13 H 7.5 9 V 14.5 16 H 7.5 6 Z m 2,0 V 14 H 7.5 7 V 14.5 15 H 7.5 8 Z M 0,9.5 V 8 H 1.5 3 V 9.5 11 H 1.5 0 Z m 2,0 V 9 H 1.5 1 V 9.5 10 H 1.5 2 Z m 11,0 V 8 H 14.5 16 V 9.5 11 H 14.5 13 Z m 2,0 V 9 H 14.5 14 V 9.5 10 h 0.5 0.5 z"
       id="path839"
       inkscape:connector-curvature="0" />
    <path
       style="fill:#320000;stroke-width:0.000357143"
       d="M 6,10.5 V 9 H 7.5 9 V 10.5 12 H 7.5 6 Z m 2,0 V 10 H 7.5 7 V 10.5 11 H 7.5 8 Z M 0,1.5 V 0 H 1.5 3 V 1.5 3 H 1.5 0 Z m 2,0 V 1 H 1.5 1 V 1.5 2 H 1.5 2 Z m 11,0 V 0 H 14.5 16 V 1.5 3 H 14.5 13 Z m 2,0 V 1 H 14.5 14 V 1.5 2 h 0.5 0.5 z"
       id="path837"
       inkscape:connector-curvature="0" />
  </g>
</svg>
