<?xml version="1.0" encoding="UTF-8" standalone="no"?>
<!-- Created with Inkscape (http://www.inkscape.org/) -->

<svg
   version="1.1"
   id="svg2"
   width="1600"
   height="1600"
   viewBox="0 0 1600 1600"
   sodipodi:docname="mod_skin.svg"
   inkscape:version="1.2.2 (732a01da63, 2022-12-09)"
   xmlns:inkscape="http://www.inkscape.org/namespaces/inkscape"
   xmlns:sodipodi="http://sodipodi.sourceforge.net/DTD/sodipodi-0.dtd"
   xmlns="http://www.w3.org/2000/svg"
   xmlns:svg="http://www.w3.org/2000/svg"
   xmlns:rdf="http://www.w3.org/1999/02/22-rdf-syntax-ns#"
   xmlns:cc="http://creativecommons.org/ns#"
   xmlns:dc="http://purl.org/dc/elements/1.1/">
  <metadata
     id="metadata8">
    <rdf:RDF>
      <cc:Work
         rdf:about="">
        <dc:format>image/svg+xml</dc:format>
        <dc:type
           rdf:resource="http://purl.org/dc/dcmitype/StillImage" />
      </cc:Work>
    </rdf:RDF>
  </metadata>
  <defs
     id="defs6" />
  <sodipodi:namedview
     pagecolor="#808080"
     bordercolor="#666666"
     borderopacity="1"
     objecttolerance="10"
     gridtolerance="10"
     guidetolerance="10"
     inkscape:pageopacity="0"
     inkscape:pageshadow="2"
     inkscape:window-width="1993"
     inkscape:window-height="1009"
     id="namedview4"
     showgrid="false"
     inkscape:zoom="0.5"
     inkscape:cx="305"
     inkscape:cy="364"
     inkscape:window-x="-8"
     inkscape:window-y="-8"
     inkscape:window-maximized="1"
     inkscape:current-layer="MOD_SKIN"
     inkscape:showpageshadow="0"
     inkscape:pagecheckerboard="true"
     inkscape:deskcolor="#d1d1d1" />
  <g
     id="MOD_SKIN"
     transform="matrix(100,0,0,100,0,4.9999997e-5)"
     style="stroke-width:0.0114286">
    <path
       style="fill:none;stroke-width:0.000357143"
       d="M 0,8 V 0 L 3.4921875,0.00248437 C 6.5495825,0.00465943 6.9594922,0.01036659 6.7845191,0.04832346 6.3320641,0.14647455 5.8603659,0.33988625 5.5274409,0.56376694 5.2312372,0.76295375 4.7388619,1.2587879 4.5339962,1.5641905 4.3391194,1.854702 4.2074912,2.1448508 4.0732253,2.5798706 L 3.9869581,2.859375 3.9700416,4.265625 3.953125,5.671875 3.7726169,5.9278978 C 3.5576181,6.2328403 3.2880809,6.7790809 3.1861597,7.1164041 3.1148511,7.3524103 3.1064522,7.3643016 2.8931496,7.53125 2.7723712,7.6257813 2.5792321,7.7684725 2.4639516,7.8483419 2.3486711,7.9282109 2.2006374,8.0346003 2.1349878,8.0847625 2.0693383,8.1349247 1.903125,8.2592759 1.765625,8.3610988 1.628125,8.4629216 1.3560435,8.7010634 1.1609995,8.8903031 0.62649337,9.4089025 0.38952831,9.7967447 0.16688889,10.517371 c -0.08269039,0.267647 -0.0863537,0.307344 -0.0863537,0.935754 0,0.62841 0.0036633,0.668107 0.0863537,0.935754 0.21494595,0.695724 0.46214377,1.108862 0.94758001,1.583674 0.4756552,0.465246 0.8584584,0.688118 1.5279017,0.88956 0.2407212,0.07244 0.3518548,0.08616 0.8009222,0.09893 0.5988888,0.01703 0.7997841,-0.0093 1.2720278,-0.166586 C 5.2331069,14.621983 5.4133259,14.513009 6.3125,13.828682 6.4585938,13.717496 6.6821662,13.552354 6.8093278,13.4617 c 0.1271613,-0.09065 0.3240363,-0.231503 0.4375,-0.312999 0.1134635,-0.0815 0.2300016,-0.148293 0.2589734,-0.148438 0.066226,-3.31e-4 0.6356279,0.409791 1.3884291,1.00004 0.6279159,0.492329 1.0742425,0.737665 1.6856407,0.926558 0.267647,0.08269 0.307344,0.08635 0.935754,0.08635 0.62841,0 0.668107,-0.0037 0.935754,-0.08635 0.695724,-0.214946 1.108862,-0.462144 1.583674,-0.94758 0.463541,-0.473912 0.681595,-0.847495 0.891808,-1.527902 0.08269,-0.267647 0.08635,-0.307344 0.08635,-0.935754 0,-0.62841 -0.0037,-0.668107 -0.08635,-0.935754 C 14.792585,10.145253 14.660945,9.854855 14.466444,9.5641906 14.260101,9.2558281 13.756539,8.7512913 13.402591,8.4982788 13.062163,8.2549297 12.671204,7.9610506 12.29441,7.6652716 12.114622,7.52414 11.950113,7.3975775 11.928834,7.3840216 11.907556,7.3704659 11.851183,7.2377809 11.803562,7.0891663 11.685037,6.7192822 11.440658,6.2302219 11.202413,5.8861244 L 11.003618,5.5990047 10.992938,4.2291897 10.982258,2.859375 10.895758,2.5798706 C 10.760861,2.1439834 10.629411,1.8543745 10.434754,1.5641905 10.229888,1.2587879 9.7375128,0.76295375 9.4413091,0.56376694 9.1083841,0.33988625 8.6366859,0.14647455 8.1842309,0.04832346 8.0098397,0.01049281 8.4950334,0.00465219 11.992188,0.00248437 L 16,0 v 8 8 H 8 0 Z"
       id="path825"
       inkscape:connector-curvature="0" />
    <path
       style="fill:#fefe00;stroke-width:0.000357143"
       d="M 11.064647,13.999195 C 10.545629,13.890051 10.150182,13.685739 9.546875,13.215024 9.1773944,12.926746 8.7849994,12.630847 8.5220578,12.442225 8.4178625,12.36748 8.2474309,12.237402 8.1433206,12.153162 L 7.9540294,12 H 7.5077916 7.0615534 L 6.8330191,12.179688 C 6.707325,12.278518 6.5356928,12.408594 6.4516138,12.46875 6.3675348,12.52891 6.1905344,12.655469 6.0582797,12.75 c -0.132255,0.09453 -0.3436128,0.250272 -0.4696841,0.34609 -0.74953,0.569665 -0.8304722,0.618244 -1.2760956,0.76587 -0.2438375,0.08078 -0.3040734,0.088 -0.734375,0.088 -0.4293562,0 -0.4910731,-0.0074 -0.734375,-0.08752 C 2.3745478,13.707839 2.1747966,13.583552 1.8112474,13.220003 1.4476982,12.856453 1.3234111,12.656702 1.1688143,12.1875 c -0.080165,-0.243302 -0.08752,-0.305019 -0.08752,-0.734375 0,-0.429356 0.00736,-0.491073 0.08752,-0.734375 C 1.4018328,10.011538 1.7742237,9.5956409 2.8896471,8.796875 3.0576555,8.6765625 3.2742625,8.5178497 3.3709959,8.4441797 3.4677294,8.37051 3.6546816,8.233055 3.7864453,8.1387247 4.0048091,7.9823969 4.0279438,7.9555266 4.0477981,7.83517 4.1331581,7.31772 4.4871659,6.5882706 4.8329622,6.2173031 L 4.9653937,6.0752316 4.9754016,4.5610531 4.9854094,3.046875 5.0739972,2.78125 C 5.2313447,2.309452 5.3546709,2.1115739 5.7174975,1.7487474 6.0810466,1.3851982 6.2807978,1.2609111 6.75,1.1063143 c 0.2433019,-0.080165 0.3050188,-0.08752 0.734375,-0.08752 0.4293562,0 0.4910731,0.00736 0.734375,0.08752 0.4692022,0.1545968 0.6689534,0.2788839 1.0325025,0.6424331 0.3628381,0.3628381 0.48618,0.5607466 0.6434834,1.0325026 l 0.08857,0.265625 0.010041,1.4987716 0.010041,1.4987715 0.14823,0.1574785 c 0.195928,0.2081537 0.310867,0.3801225 0.481211,0.7199784 0.14269,0.2846825 0.280443,0.6771756 0.31829,0.9068884 0.0177,0.107431 0.04607,0.1436616 0.195734,0.25 0.09627,0.068399 0.319745,0.2368616 0.496614,0.3743616 0.4068,0.3162503 0.798206,0.6090231 1.102874,0.8249538 0.130919,0.092787 0.37905,0.3107559 0.551402,0.484375 0.346307,0.3488512 0.475714,0.5590562 0.627193,1.0187962 0.08016,0.243302 0.08752,0.305019 0.08752,0.734375 0,0.429356 -0.0074,0.491073 -0.08752,0.734375 -0.154597,0.469202 -0.278884,0.668953 -0.642433,1.032503 -0.365228,0.365228 -0.569102,0.491591 -1.032503,0.639957 -0.217585,0.06966 -0.336272,0.08693 -0.65625,0.09545 -0.214844,0.0057 -0.45294,-0.0027 -0.529103,-0.01872 z M 4.421875,12.906996 c 0.1994037,-0.09875 0.3866353,-0.286093 0.4848328,-0.485121 0.072471,-0.146884 0.077761,-0.192775 0.088253,-0.765625 l 0.011162,-0.609375 0.2361835,-0.1875 c 0.1299009,-0.103125 0.3004378,-0.228167 0.3789709,-0.277872 0.078533,-0.0497 0.2521547,-0.176267 0.3858263,-0.28125 0.1336715,-0.104983 0.3082668,-0.237884 0.3879893,-0.295336 l 0.1449503,-0.1044567 0.1651332,0.051941 c 0.1380197,0.043413 0.2796818,0.050302 0.8627906,0.041957 0.6340237,-0.00907 0.7093425,-0.015931 0.8257691,-0.075189 l 0.1281118,-0.065206 0.3628988,0.2917677 c 0.1995944,0.160472 0.3720525,0.291768 0.38324,0.291768 0.011188,0 0.1794359,0.127011 0.373885,0.282246 l 0.353544,0.282246 0.010336,0.631816 c 0.0098,0.597881 0.01448,0.640209 0.08748,0.788067 0.09829,0.199063 0.285522,0.386388 0.484889,0.485121 0.153428,0.07598 0.170077,0.07738 0.921875,0.07738 0.751798,0 0.768447,-0.0014 0.921875,-0.07738 0.199213,-0.09866 0.386465,-0.285908 0.485121,-0.485121 0.07598,-0.153428 0.07738,-0.170077 0.07738,-0.921875 0,-0.751798 -0.0014,-0.768447 -0.07738,-0.921875 -0.09866,-0.199213 -0.285908,-0.386465 -0.485121,-0.485121 -0.150107,-0.07434 -0.184001,-0.07777 -0.862093,-0.08726 -0.635774,-0.0089 -0.723094,-0.0038 -0.879614,0.0512 l -0.17377,0.06108 -0.345937,-0.2777602 C 9.9701963,9.6874922 9.8054687,9.5625 9.7944003,9.5625 9.7833316,9.5625 9.6014778,9.4253906 9.3902809,9.2578125 L 9.0062863,8.953125 8.9950428,8.34375 C 8.984475,7.7709906 8.9791672,7.7249862 8.9067078,7.578125 8.7590444,7.2788391 8.4548094,7.0538434 8.1393103,7.0105994 L 8,6.9915047 V 6 5.0084953 L 8.1393103,4.9894006 C 8.4546641,4.9461766 8.7586309,4.7214634 8.9069956,4.421875 8.9829775,4.2684469 8.984375,4.2517978 8.984375,3.5 8.984375,2.7482021 8.982975,2.7315532 8.906996,2.578125 8.8083397,2.3789118 8.6210881,2.1916604 8.421875,2.0930044 8.2684469,2.0170225 8.2517978,2.015625 7.5,2.015625 c -0.7517978,0 -0.7684469,0.0014 -0.921875,0.077379 C 6.3789119,2.1916604 6.1916603,2.3789118 6.0930044,2.578125 6.0170225,2.7315532 6.015625,2.7482021 6.015625,3.5 c 0,0.7517978 0.0014,0.7684469 0.077379,0.921875 0.1483647,0.2995884 0.4523315,0.5243016 0.7676853,0.5675256 L 7,5.0084953 V 6 6.9915047 L 6.8606897,7.0105994 C 6.5452459,7.0538356 6.2411128,7.2787241 6.0931828,7.578125 6.0197834,7.7266809 6.0154734,7.7666047 6.0056616,8.3888831 5.9942641,9.1117056 6.0131638,9.0471175 5.765625,9.2091909 5.696875,9.2542044 5.5421875,9.3699741 5.421875,9.4664566 5.3015625,9.5629394 5.1257812,9.6932372 5.03125,9.7560072 4.9367187,9.8187772 4.7832494,9.9321241 4.6902069,10.007889 L 4.5210388,10.145645 4.3933319,10.080635 C 4.2742831,10.020032 4.2137187,10.015625 3.5,10.015625 c -0.7517979,0 -0.7684468,0.0014 -0.921875,0.07738 -0.1992327,0.09867 -0.3864821,0.285927 -0.4850912,0.485121 -0.074207,0.149901 -0.077758,0.184676 -0.087382,0.855864 -0.00839,0.585301 -0.00159,0.725409 0.041604,0.857481 0.10338,0.316066 0.3267152,0.545348 0.6404128,0.657463 0.116163,0.04152 0.2647728,0.04892 0.8592066,0.04282 0.6944616,-0.0071 0.72403,-0.01 0.875,-0.08476 z M 3,11.5 V 11 H 3.5 4 V 11.5 12 H 3.5 3 Z m 8,0 V 11 H 11.5 12 V 11.5 12 H 11.5 11 Z M 7,8.5 V 8 H 7.5 8 V 8.5 9 H 7.5 7 Z m 0,-5 V 3 H 7.5 8 V 3.5 4 H 7.5 7 Z"
       id="path823"
       inkscape:connector-curvature="0" />
    <path
       style="fill:#fe3200;stroke-width:0.000357143"
       d="M 10.815769,14.98457 C 10.140976,14.832639 9.6095397,14.56006 8.890625,13.997144 8.1341138,13.404789 7.5717062,12.999934 7.5058012,13.000263 c -0.028972,1.56e-4 -0.1455099,0.06694 -0.2589734,0.148438 -0.1134637,0.0815 -0.3103387,0.222345 -0.4375,0.312999 C 6.6821662,13.55235 6.4585938,13.717496 6.3125,13.828682 5.4133259,14.513009 5.2331069,14.621983 4.7153206,14.794458 4.2430769,14.951762 4.0421816,14.978072 3.4432928,14.961044 2.9942254,14.948274 2.8830918,14.934554 2.6423706,14.862114 1.9575385,14.65604 1.5351773,14.403923 1.0586965,13.916781 0.59515581,13.442869 0.37710238,13.069286 0.16688889,12.388879 0.0841985,12.121232 0.08053519,12.081535 0.08053519,11.453125 c 0,-0.62841 0.0036633,-0.668107 0.0863537,-0.935754 C 0.38952831,9.7967447 0.62649337,9.4089025 1.1609995,8.8903031 1.3560435,8.7010634 1.628125,8.4629216 1.765625,8.3610988 1.903125,8.2592759 2.0693383,8.1349247 2.1349878,8.0847625 2.2006374,8.0346003 2.3486711,7.9282109 2.4639516,7.8483419 2.5792321,7.7684725 2.7723712,7.6257812 2.8931496,7.53125 3.1064522,7.3643016 3.1148511,7.3524103 3.1861597,7.1164041 3.2880809,6.7790809 3.5576181,6.2328403 3.7726169,5.9278978 L 3.953125,5.671875 3.9700416,4.265625 3.9869581,2.859375 4.0732253,2.5798706 C 4.2878234,1.8845759 4.5352175,1.4710727 5.0207191,0.9961965 5.4946312,0.53265581 5.8682141,0.31460237 6.5486206,0.10438889 6.8162678,0.0216985 6.8559647,0.01803519 7.484375,0.01803519 c 0.6284103,0 0.6681072,0.0036633 0.9357544,0.0863537 0.6804065,0.21021348 1.0539894,0.42826692 1.5279015,0.89180761 0.4853261,0.4747048 0.7321901,0.88722 0.9477271,1.5836741 l 0.0865,0.2795044 0.01068,1.3698147 0.01068,1.369815 0.198795,0.2871197 c 0.238245,0.3440975 0.482624,0.8331578 0.601149,1.2030418 0.04762,0.1486147 0.103994,0.2812997 0.125272,0.2948554 0.02128,0.013556 0.185788,0.1401184 0.365576,0.28125 0.376794,0.295779 0.767753,0.5896581 1.108181,0.8330072 0.353948,0.2530125 0.85751,0.7575493 1.063853,1.0659118 0.194501,0.2906644 0.326141,0.5810624 0.460417,1.0156804 0.08269,0.267647 0.08635,0.307344 0.08635,0.935754 0,0.62841 -0.0037,0.668107 -0.08635,0.935754 -0.210213,0.680407 -0.428267,1.05399 -0.891808,1.527902 -0.47621,0.486866 -0.89713,0.738218 -1.583674,0.945693 -0.252192,0.07621 -0.335996,0.08545 -0.857629,0.09453 -0.421475,0.0073 -0.632278,-0.0021 -0.777981,-0.03493 z M 12.25,13.92246 c 0.463401,-0.148366 0.667275,-0.274729 1.032503,-0.639957 0.363549,-0.36355 0.487836,-0.563301 0.642433,-1.032503 0.08016,-0.243302 0.08752,-0.305019 0.08752,-0.734375 0,-0.429356 -0.0074,-0.491073 -0.08752,-0.734375 C 13.773457,10.32151 13.64405,10.111305 13.297743,9.7624538 13.125391,9.5888347 12.87726,9.3708659 12.746341,9.2780788 12.441673,9.0621481 12.050267,8.7693753 11.643467,8.453125 11.466598,8.315625 11.243121,8.1471625 11.146853,8.0787634 10.997186,7.972425 10.96882,7.9361944 10.951119,7.8287634 10.913272,7.5990506 10.775519,7.2065575 10.632829,6.921875 10.462485,6.5820191 10.347546,6.4100503 10.151617,6.2018966 L 10.003388,6.0444181 9.9933472,4.5456466 9.9833063,3.046875 9.8947359,2.78125 C 9.7374325,2.309494 9.6140906,2.1115855 9.2512525,1.7487474 8.8877034,1.3851982 8.6879522,1.2609111 8.21875,1.1063143 7.9754481,1.0261491 7.9137312,1.0187939 7.484375,1.0187939 c -0.4293562,0 -0.4910731,0.00736 -0.734375,0.08752 C 6.2807978,1.2609111 6.0810466,1.3851982 5.7174975,1.7487474 5.3546709,2.1115739 5.2313447,2.309452 5.0739972,2.78125 L 4.9854094,3.046875 4.9754016,4.5610531 4.9653938,6.0752316 4.8329622,6.2173031 C 4.4871659,6.5882706 4.1331581,7.31772 4.0477981,7.83517 4.0279438,7.9555266 4.0048091,7.9823969 3.7864453,8.1387247 3.6546816,8.233055 3.4677294,8.37051 3.3709959,8.4441797 3.2742625,8.5178497 3.0576555,8.6765625 2.8896471,8.796875 2.0550246,9.3945566 1.5680456,9.8558975 1.3687908,10.237663 1.30694,10.356167 1.2169506,10.572656 1.1688143,10.71875 c -0.080165,0.243302 -0.08752,0.305019 -0.08752,0.734375 0,0.429356 0.00736,0.491073 0.08752,0.734375 0.1545968,0.469202 0.2788839,0.668953 0.6424331,1.032503 0.3635492,0.363549 0.5633004,0.487836 1.0325026,0.642433 0.2433019,0.08016 0.3050188,0.08752 0.734375,0.08752 0.4303016,0 0.4905375,-0.0072 0.734375,-0.088 0.4456234,-0.147626 0.5265656,-0.196205 1.2760956,-0.76587 0.1260713,-0.09582 0.3374291,-0.251559 0.4696841,-0.34609 0.1322547,-0.09453 0.309255,-0.221094 0.393334,-0.28125 0.084079,-0.06016 0.2557113,-0.190234 0.3814054,-0.289062 L 7.0615534,12 h 0.4462382 0.4462378 l 0.1892912,0.153163 c 0.1041103,0.08424 0.2745419,0.214317 0.3787372,0.289062 0.2629416,0.188622 0.6553366,0.484521 1.0248172,0.772799 0.49902,0.389348 0.795848,0.56318 1.174022,0.687545 0.332532,0.109357 0.460875,0.126316 0.872853,0.115341 0.319978,-0.0085 0.438665,-0.02579 0.65625,-0.09545 z"
       id="path821"
       inkscape:connector-curvature="0" />
    <path
       style="fill:#320000;stroke-width:0.000357143"
       d="M 2.6876684,12.948933 C 2.3739708,12.836818 2.1506356,12.607536 2.0472556,12.29147 2.0040572,12.159398 1.9972593,12.01929 2.005652,11.433989 c 0.00962,-0.671188 0.013175,-0.705963 0.087382,-0.855864 0.098609,-0.199194 0.2858585,-0.386455 0.4850912,-0.485121 0.1534282,-0.07598 0.1700771,-0.07738 0.921875,-0.07738 0.7137187,0 0.7742831,0.0044 0.8933319,0.06501 l 0.1277069,0.06501 0.1691681,-0.137756 C 4.7832494,9.9321241 4.9367188,9.8187772 5.03125,9.7560072 5.1257812,9.6932372 5.3015625,9.5629394 5.421875,9.4664566 5.5421875,9.3699741 5.696875,9.2542044 5.765625,9.2091909 6.0131638,9.0471175 5.9942641,9.1117056 6.0056616,8.3888831 6.0154734,7.7666047 6.0197834,7.7266809 6.0931828,7.578125 6.2411128,7.2787241 6.5452459,7.0538356 6.8606897,7.0105994 L 7,6.9915047 V 6 5.0084953 L 6.8606897,4.9894006 C 6.5453359,4.9461766 6.2413691,4.7214634 6.0930044,4.421875 6.0170225,4.2684469 6.015625,4.2517978 6.015625,3.5 c 0,-0.7517979 0.0014,-0.7684468 0.077379,-0.921875 C 6.1916603,2.3789118 6.3789119,2.1916604 6.578125,2.0930044 6.7315531,2.0170225 6.7482022,2.015625 7.5,2.015625 c 0.7517978,0 0.7684469,0.0014 0.921875,0.077379 0.1992131,0.098656 0.3864647,0.2859074 0.4851206,0.4851206 0.075982,0.1534282 0.077379,0.1700771 0.077379,0.921875 0,0.7517978 -0.0014,0.7684469 -0.077379,0.921875 -0.1483647,0.2995888 -0.4523315,0.524302 -0.7676853,0.567526 L 8,5.0084953 V 6 6.9915047 l 0.1393103,0.019095 c 0.3154991,0.043244 0.6197341,0.2682397 0.7673975,0.5675256 0.072459,0.1468612 0.077767,0.1928656 0.088335,0.765625 l 0.011243,0.609375 0.3839947,0.3046875 C 9.6014778,9.4253906 9.7833316,9.5625 9.7944003,9.5625 c 0.011068,0 0.1757959,0.1249922 0.3660607,0.2777606 l 0.345937,0.2777604 0.17377,-0.06108 c 0.15652,-0.05501 0.24384,-0.060095 0.879614,-0.0512 0.678092,0.0095 0.711986,0.01292 0.862093,0.08726 0.199213,0.09866 0.386465,0.285908 0.485121,0.485121 0.07598,0.153428 0.07738,0.170077 0.07738,0.921875 0,0.751798 -0.0014,0.768447 -0.07738,0.921875 -0.09866,0.199213 -0.285908,0.386465 -0.485121,0.485121 -0.153428,0.07598 -0.170077,0.07738 -0.921875,0.07738 -0.751798,0 -0.768447,-0.0014 -0.921875,-0.07738 -0.199367,-0.09873 -0.386602,-0.286058 -0.484889,-0.485121 -0.073,-0.147858 -0.0777,-0.190186 -0.08748,-0.788067 L 9.9954163,11.001992 9.6418722,10.719746 C 9.4474231,10.564511 9.279175,10.4375 9.2679872,10.4375 c -0.011188,0 -0.1836456,-0.131296 -0.38324,-0.291768 L 8.5218484,9.8539641 8.3937366,9.9191697 C 8.27731,9.9784275 8.2019912,9.9852856 7.5679675,9.9943584 6.9848587,10.002703 6.8431966,9.9958147 6.7051769,9.9524009 L 6.5400437,9.9004603 6.3950934,10.004917 c -0.079723,0.05745 -0.2543178,0.190353 -0.3879893,0.295336 -0.1336716,0.104983 -0.3072935,0.231545 -0.3858263,0.28125 -0.078533,0.0497 -0.24907,0.174747 -0.3789709,0.277872 l -0.2361835,0.1875 -0.011162,0.609375 c -0.010493,0.57285 -0.015783,0.618741 -0.088253,0.765625 -0.098198,0.199028 -0.2854291,0.38637 -0.4848328,0.485121 -0.15097,0.07476 -0.1805384,0.07763 -0.875,0.08476 -0.5944338,0.0061 -0.7430436,-0.0013 -0.8592066,-0.04282 z M 4,11.5 V 11 H 3.5 3 V 11.5 12 H 3.5 4 Z m 8,0 V 11 H 11.5 11 V 11.5 12 H 11.5 12 Z M 8,8.5 V 8 H 7.5 7 V 8.5 9 H 7.5 8 Z m 0,-5 V 3 H 7.5 7 V 3.5 4 H 7.5 8 Z"
       id="path819"
       inkscape:connector-curvature="0" />
  </g>
</svg>
