<?xml version="1.0" encoding="UTF-8" standalone="no"?>
<!-- Created with Inkscape (http://www.inkscape.org/) -->

<svg
   version="1.1"
   id="svg2"
   width="1600"
   height="1600"
   viewBox="0 0 1600 1600"
   sodipodi:docname="mod_physics.svg"
   inkscape:version="1.2.2 (732a01da63, 2022-12-09)"
   xmlns:inkscape="http://www.inkscape.org/namespaces/inkscape"
   xmlns:sodipodi="http://sodipodi.sourceforge.net/DTD/sodipodi-0.dtd"
   xmlns="http://www.w3.org/2000/svg"
   xmlns:svg="http://www.w3.org/2000/svg"
   xmlns:rdf="http://www.w3.org/1999/02/22-rdf-syntax-ns#"
   xmlns:cc="http://creativecommons.org/ns#"
   xmlns:dc="http://purl.org/dc/elements/1.1/">
  <metadata
     id="metadata8">
    <rdf:RDF>
      <cc:Work
         rdf:about="">
        <dc:format>image/svg+xml</dc:format>
        <dc:type
           rdf:resource="http://purl.org/dc/dcmitype/StillImage" />
      </cc:Work>
    </rdf:RDF>
  </metadata>
  <defs
     id="defs6" />
  <sodipodi:namedview
     pagecolor="#808080"
     bordercolor="#666666"
     borderopacity="1"
     objecttolerance="10"
     gridtolerance="10"
     guidetolerance="10"
     inkscape:pageopacity="0"
     inkscape:pageshadow="2"
     inkscape:window-width="1993"
     inkscape:window-height="1009"
     id="namedview4"
     showgrid="false"
     inkscape:zoom="0.5"
     inkscape:cx="269"
     inkscape:cy="358"
     inkscape:window-x="-8"
     inkscape:window-y="-8"
     inkscape:window-maximized="1"
     inkscape:current-layer="MOD_PHYSICS"
     inkscape:showpageshadow="0"
     inkscape:pagecheckerboard="true"
     inkscape:deskcolor="#d1d1d1" />
  <g
     id="MOD_PHYSICS"
     transform="matrix(100,0,0,100,0,4.9999997e-5)"
     style="stroke-width:0.0114286">
    <path
       style="fill:none;stroke-width:0.000357143"
       d="M 0,8 V 0 h 8 8 v 8 8 H 8 0 Z m 9.03125,6.923611 c 0.3656525,-0.06011 0.5303453,-0.09617 0.890625,-0.19502 0.274841,-0.07541 0.921875,-0.314167 0.921875,-0.340178 0,-0.0072 -0.07043,-0.100494 -0.156499,-0.207312 -0.08607,-0.106817 -0.206477,-0.296732 -0.267562,-0.422032 -0.06108,-0.125301 -0.11453,-0.227819 -0.118769,-0.227819 -0.0042,0 -0.122025,0.04172 -0.261747,0.09271 C 8.26785,14.270416 6.2335431,14.022553 4.6741409,12.970279 2.390944,11.429594 1.4385584,8.5295794 2.3740102,5.9663806 L 2.4646962,5.717895 2.3535317,5.6714475 C 2.2923913,5.6459012 2.2360715,5.625 2.2283766,5.625 2.2000659,5.625 1.9171611,5.4234609 1.7602971,5.2915437 L 1.5987191,5.1556625 1.4736466,5.4762687 C 1.2825614,5.9660891 1.1639361,6.4232447 1.0579877,7.078125 c -0.0625288,0.3864981 -0.053827,1.5149088 0.014941,1.9375 0.2596407,1.595537 0.9497368,2.932361 2.0741923,4.018033 1.163666,1.123531 2.5851085,1.771001 4.2747541,1.947158 0.2634053,0.02746 1.3235722,-0.01022 1.609375,-0.05721 z m 3.914563,-0.865305 c 0.162708,-0.04622 0.198939,-0.05587 0.252619,-0.06726 0.0232,-0.0049 0.07945,-0.03338 0.125,-0.06322 0.04555,-0.02984 0.08282,-0.04374 0.08282,-0.03089 0,0.01286 0.106381,-0.08174 0.236402,-0.210217 0.214686,-0.212135 0.365916,-0.442254 0.403978,-0.614712 0.0068,-0.03101 0.0251,-0.09857 0.04056,-0.150131 0.04272,-0.142417 0.0215,-0.577535 -0.03466,-0.710937 -0.02714,-0.06445 -0.04253,-0.117188 -0.03421,-0.117188 0.0083,0 -0.0024,-0.03164 -0.02393,-0.07031 -0.02148,-0.03867 -0.03955,-0.07928 -0.04016,-0.09025 -0.0056,-0.100727 -0.589063,-0.683777 -0.636648,-0.636192 -0.0082,0.0082 -0.0324,4.88e-4 -0.05371,-0.0172 -0.02131,-0.01769 -0.06831,-0.03866 -0.104438,-0.0466 -0.03613,-0.0079 -0.09387,-0.02068 -0.128305,-0.0283 -0.03444,-0.0076 -0.07813,-0.02344 -0.09709,-0.03516 -0.01896,-0.01172 -0.150997,-0.0213 -0.293421,-0.0213 -0.142424,0 -0.274463,0.0096 -0.293421,0.0213 -0.01896,0.01172 -0.06265,0.02754 -0.09709,0.03516 -0.03444,0.0076 -0.09218,0.02035 -0.128306,0.0283 -0.03613,0.0079 -0.08313,0.02892 -0.104438,0.0466 -0.02131,0.01769 -0.04548,0.02543 -0.05371,0.0172 -0.04759,-0.04758 -0.631052,0.535465 -0.636647,0.636192 -6.1e-4,0.01096 -0.01868,0.05158 -0.04016,0.09025 -0.02148,0.03867 -0.03225,0.07031 -0.02393,0.07031 0.0083,0 -0.0074,0.05273 -0.03495,0.117188 -0.05669,0.132654 -0.07726,0.565351 -0.03379,0.710937 0.01539,0.05156 0.03359,0.119122 0.04043,0.150131 0.04014,0.181873 0.19801,0.429892 0.396366,0.622703 0.119011,0.115684 0.226116,0.207619 0.238011,0.204299 0.0119,-0.0033 0.05678,0.01385 0.09975,0.03816 0.04297,0.02431 0.09219,0.04757 0.109375,0.05169 0.07625,0.01827 0.163158,0.04168 0.25,0.06735 0.144588,0.04273 0.470751,0.04384 0.617688,0.0021 z M 8.7233256,10.910744 C 9.8243259,10.62147 10.649577,9.7817472 10.927823,8.6675878 c 0.07422,-0.2972056 0.07422,-1.03797 0,-1.3351756 -0.278115,-1.113636 -1.0890596,-1.9398303 -2.2044974,-2.2459528 -0.3439365,-0.094391 -1.1027147,-0.094391 -1.4466512,0 -1.1154378,0.3061225 -1.9263825,1.1323168 -2.2044978,2.2459528 -0.074223,0.2972056 -0.074223,1.03797 0,1.3351756 0.2968793,1.1887713 1.2139043,2.0604802 2.4072475,2.2882912 0.3099237,0.05916 0.9329737,0.03656 1.2439015,-0.04514 z M 14.573199,10.403087 C 14.708809,10.039281 14.851592,9.4794559 14.927071,9.015625 14.968429,8.7614759 14.98301,8.4967459 14.98301,8 14.98301,7.2616262 14.94394,6.9315919 14.778087,6.2687884 14.163732,3.8136863 12.186314,1.8362677 9.7312116,1.2219136 9.0676719,1.0558723 8.7385197,1.016963 8,1.0172662 7.2170003,1.0175874 6.7799403,1.0751413 6.078125,1.2703463 5.8009191,1.3474492 5.15625,1.5860797 5.15625,1.6115873 c 0,0.0072 0.070425,0.100494 0.1564991,0.2073115 0.086074,0.1068174 0.2064771,0.2967319 0.2675615,0.4220323 0.061084,0.1253004 0.1145306,0.2278189 0.1187697,0.2278189 0.00424,0 0.1220247,-0.041721 0.2617463,-0.092713 1.7724731,-0.6468726 3.8054912,-0.3986837 5.3673374,0.6552394 2.280771,1.5390479 3.232837,4.4403529 2.297826,7.0023426 l -0.09069,0.248486 0.111164,0.04645 c 0.06114,0.02555 0.11725,0.04645 0.124688,0.04645 0.02756,0 0.373636,0.247092 0.494469,0.353042 0.148211,0.129956 0.131374,0.147744 0.307574,-0.324955 z M 3.6581363,4.8262084 c 0.084298,-0.028213 0.1051384,-0.033866 0.2122396,-0.057576 0.040425,-0.00895 0.090938,-0.030743 0.1122504,-0.048431 0.021312,-0.017688 0.045481,-0.025427 0.053709,-0.017199 0.047585,0.047585 0.6310519,-0.5354653 0.6366472,-0.6361916 6.094e-4,-0.010964 0.018682,-0.051576 0.040162,-0.090248 0.02148,-0.038672 0.032246,-0.070312 0.023925,-0.070312 -0.00832,0 0.00741,-0.052734 0.034953,-0.1171875 C 4.8287153,3.6564081 4.8492819,3.2237109 4.8058141,3.078125 4.7904191,3.0265625 4.7722234,2.9590034 4.7653797,2.9279937 4.7252403,2.7461208 4.5673703,2.4981022 4.3690141,2.3052907 4.2500034,2.1896068 4.1428984,2.0976725 4.1310031,2.1009923 4.1191075,2.1043121 4.0742188,2.0871388 4.03125,2.0628295 3.9882813,2.0385202 3.9390625,2.0152609 3.921875,2.0111423 3.82982,1.9890828 3.7560494,1.9693142 3.671875,1.9441488 3.5262728,1.9006183 3.2044709,1.8990653 3.0561074,1.9411772 c -0.1649695,0.046825 -0.2008523,0.05638 -0.2545397,0.067779 -0.0232,0.00493 -0.07945,0.033375 -0.125,0.06322 -0.04555,0.029845 -0.082818,0.043745 -0.082818,0.030888 0,-0.012857 -0.1063809,0.081741 -0.236402,0.2102171 -0.2146861,0.2121351 -0.3659161,0.4422539 -0.4039776,0.6147116 -0.00684,0.03101 -0.025097,0.098569 -0.040563,0.1501313 -0.042717,0.1424169 -0.021502,0.5775347 0.034665,0.7109375 0.027137,0.064453 0.042531,0.1171875 0.034209,0.1171875 -0.00832,0 0.00244,0.031641 0.023925,0.070312 0.02148,0.038672 0.039553,0.079283 0.040162,0.090248 0.0056,0.1007263 0.5890624,0.6837763 0.636647,0.6361916 0.00823,-0.00823 0.032397,-4.875e-4 0.053709,0.017199 0.021312,0.017688 0.068309,0.038659 0.1044378,0.046604 0.036129,0.00794 0.093517,0.020612 0.1275305,0.028149 0.034013,0.00754 0.082209,0.025115 0.1071025,0.039063 0.057014,0.031944 0.4811385,0.026263 0.5829417,-0.00781 z"
       id="path831"
       inkscape:connector-curvature="0" />
    <path
       style="fill:#fefefe;stroke-width:0.000357143"
       d="M 7.421875,14.980816 C 7.0751806,14.944671 6.6021466,14.861504 6.2687884,14.778087 3.8136863,14.163732 1.8362677,12.186314 1.2219136,9.7312116 1.0558723,9.0676719 1.016963,8.7385197 1.0172662,8 1.0174287,7.6012553 1.0339839,7.2264953 1.0579877,7.078125 1.1639361,6.4232447 1.2825614,5.9660891 1.4736466,5.4762687 L 1.5987191,5.1556625 1.7602971,5.2915437 C 1.9171611,5.4234609 2.2000659,5.625 2.2283766,5.625 c 0.00769,0 0.064015,0.020901 0.1251551,0.046448 l 0.1111645,0.046448 -0.090686,0.2484856 c -0.6447206,1.7665763 -0.3951993,3.8020972 0.6572663,5.3617834 1.5406069,2.283081 4.4400551,3.232945 7.0078965,2.295799 0.139722,-0.05099 0.257508,-0.09271 0.261747,-0.09271 0.0042,0 0.05769,0.102518 0.118769,0.227819 0.06109,0.1253 0.181488,0.315215 0.267562,0.422032 0.08607,0.106818 0.156499,0.200108 0.156499,0.207312 0,0.02601 -0.647034,0.264771 -0.921875,0.340178 -0.674515,0.185062 -1.0710112,0.241721 -1.78125,0.254541 -0.3265625,0.0059 -0.65,0.0049 -0.71875,-0.0023 z m 6.84375,-4.252774 C 14.144792,10.622092 13.798716,10.375 13.771156,10.375 c -0.0074,0 -0.06355,-0.0209 -0.124688,-0.04645 l -0.111164,-0.04645 0.09069,-0.248486 C 14.270291,8.2681922 14.021096,6.2313837 12.970279,4.6741409 11.428034,2.388633 8.5298775,1.4384496 5.9608266,2.3760371 5.821105,2.4270292 5.7033191,2.46875 5.6990803,2.46875 5.6948412,2.46875 5.641395,2.3662315 5.5803106,2.2409311 5.5192262,2.1156307 5.3988234,1.9257162 5.3127491,1.8188987 5.2266747,1.7120813 5.15625,1.6187912 5.15625,1.6115873 c 0,-0.025508 0.6446691,-0.2641381 0.921875,-0.341241 C 6.7799403,1.0751413 7.2170003,1.0175876 8,1.0172662 8.7385197,1.016963 9.0676719,1.0558723 9.7312116,1.2219136 12.186314,1.8362677 14.163732,3.8136863 14.778087,6.2687884 14.943943,6.9315919 14.98301,7.2616263 14.98301,8 c 0,0.7383738 -0.03907,1.0684081 -0.204923,1.7312116 -0.08555,0.3418864 -0.266933,0.8772144 -0.352095,1.0391734 -0.035,0.06656 -0.03668,0.06611 -0.160367,-0.04234 z"
       id="path829"
       inkscape:connector-curvature="0" />
    <path
       style="fill:#98cbfe;stroke-width:0.000357143"
       d="m 12.618043,13.608431 c -0.0048,-0.0043 -0.06492,-0.01592 -0.133668,-0.02577 -0.242654,-0.03476 -0.295409,-0.05972 -0.480719,-0.227416 -0.259292,-0.234646 -0.34475,-0.420853 -0.33514,-0.730243 0.0083,-0.266623 0.01854,-0.312265 0.109288,-0.486373 0.0621,-0.119142 0.302727,-0.382344 0.333407,-0.364685 0.0079,0.0046 0.04771,-0.01347 0.08835,-0.04011 0.105132,-0.06888 0.192356,-0.08587 0.44106,-0.08587 0.248704,0 0.335928,0.01698 0.44106,0.08587 0.04065,0.02663 0.0846,0.04878 0.09767,0.04921 0.04868,0.0016 0.261015,0.234575 0.324089,0.355586 0.09093,0.17446 0.101119,0.220102 0.108537,0.486373 0.0086,0.309971 -0.07874,0.498889 -0.34013,0.735437 -0.103747,0.09389 -0.195076,0.164256 -0.202954,0.156379 -0.0079,-0.0079 -0.05473,0.0066 -0.104111,0.03211 -0.04938,0.02554 -0.08979,0.04093 -0.08979,0.0342 0,-0.0067 -0.05587,-0.002 -0.124144,0.01047 -0.06828,0.01249 -0.128045,0.01916 -0.132813,0.01484 z M 3.1456375,4.3539709 C 3.1389381,4.3472716 3.1016783,4.33567 3.0628382,4.32819 3.023998,4.3207103 2.9623296,4.2950056 2.9257973,4.2710687 2.8892651,4.2471319 2.8453125,4.2249887 2.828125,4.2218619 2.7684602,4.2110075 2.5615273,3.9860269 2.4965539,3.8613728 2.4056206,3.6869134 2.3954352,3.6412713 2.3880166,3.375 2.3793804,3.065029 2.4667526,2.8761108 2.7281467,2.6395627 c 0.1037472,-0.093886 0.1951426,-0.16419 0.2031011,-0.1562316 0.00796,0.00796 0.041659,-8.12e-5 0.074889,-0.017865 0.033231,-0.017785 0.091147,-0.038831 0.1287037,-0.04677 0.08164,-0.017258 0.3616072,-0.017998 0.4276594,-0.00113 0.025781,0.00658 0.091995,0.022435 0.1471425,0.035225 0.1475472,0.03422 0.4593172,0.3307806 0.5514809,0.524577 0.064472,0.1355677 0.076406,0.203011 0.07036,0.3976332 -0.00828,0.2666231 -0.018538,0.3122653 -0.1092874,0.4863728 -0.060815,0.116675 -0.2807613,0.3605034 -0.3159463,0.3502513 -0.00859,-0.0025 -0.052546,0.019639 -0.097672,0.049206 -0.045126,0.029568 -0.1154387,0.061909 -0.15625,0.071868 -0.089052,0.021732 -0.4894219,0.038541 -0.5066901,0.021272 z"
       id="path827"
       inkscape:connector-curvature="0" />
    <path
       style="fill:#fefe00;stroke-width:0.000357143"
       d="M 7.2790422,8.4587794 C 6.8215741,8.3305981 6.5191987,7.9479634 6.5186387,7.4965425 6.51842,7.3266175 6.5362738,7.2536175 6.6192081,7.0851534 6.9916581,6.3286 8.0083419,6.3286 8.3807919,7.0851534 8.4637263,7.2536175 8.4815722,7.3266175 8.4813612,7.4965425 8.4808925,7.8735894 8.2701175,8.2069903 7.9270141,8.3733966 7.6982781,8.4843341 7.4751678,8.5137331 7.2790422,8.4587794 Z"
       id="path825"
       inkscape:connector-curvature="0" />
    <path
       style="fill:#fe9832;stroke-width:0.000357143"
       d="M 7.5826353,10.450042 C 7.1222766,10.366876 6.6250441,10.11543 6.2768137,9.7897016 5.930775,9.4660225 5.6370444,8.9026838 5.5479637,8.3918569 c -0.059863,-0.3432781 -0.059863,-0.4404357 0,-0.7837138 C 5.6099337,7.2527803 5.7434078,6.9232119 5.952825,6.6084772 6.3245103,6.0498687 6.9208369,5.6678197 7.6081431,5.5479637 c 0.3432781,-0.059863 0.4404356,-0.059863 0.7837138,0 0.3553628,0.06197 0.6849312,0.1954441 0.9996659,0.4048613 0.5586084,0.3716853 0.9406572,0.9680119 1.0605132,1.6553181 0.05986,0.3432781 0.05986,0.4404356 0,0.7837138 -0.06197,0.3553628 -0.195444,0.6849312 -0.404861,0.9996659 C 9.6754897,9.9501313 9.0791631,10.33218 8.3918569,10.452036 8.0633,10.509332 7.9087172,10.508951 7.5826353,10.450042 Z M 7.9270141,8.3733966 C 8.2701175,8.2069903 8.4808934,7.8735894 8.4813612,7.4965425 8.48158,7.3266175 8.4637262,7.2536175 8.3807919,7.0851534 8.0083419,6.3286 6.9916581,6.3286 6.6192081,7.0851534 6.5362738,7.2536175 6.5184278,7.3266175 6.5186387,7.4965425 6.5190637,7.8390681 6.7037503,8.16532 6.9932734,8.3349919 7.3117353,8.5216231 7.5971869,8.5333634 7.9270141,8.3733966 Z"
       id="path823"
       inkscape:connector-curvature="0" />
    <path
       style="fill:#0032fe;stroke-width:0.000357143"
       d="m 12.328125,14.056206 c -0.08684,-0.02566 -0.173745,-0.04908 -0.25,-0.06735 -0.01719,-0.0041 -0.06641,-0.02738 -0.109375,-0.05169 -0.04297,-0.02431 -0.08786,-0.04148 -0.09975,-0.03816 -0.0119,0.0033 -0.119,-0.08862 -0.238011,-0.204299 -0.198356,-0.192811 -0.356226,-0.44083 -0.396366,-0.622703 -0.0068,-0.03101 -0.02504,-0.09857 -0.04043,-0.150131 -0.04347,-0.145586 -0.0229,-0.578283 0.03379,-0.710937 0.02754,-0.06445 0.04327,-0.117188 0.03495,-0.117188 -0.0083,0 0.0024,-0.03164 0.02393,-0.07031 0.02148,-0.03867 0.03955,-0.07928 0.04016,-0.09025 0.0056,-0.100727 0.589062,-0.683777 0.636647,-0.636192 0.0082,0.0082 0.0324,4.88e-4 0.05371,-0.0172 0.02131,-0.01769 0.06831,-0.03866 0.104438,-0.0466 0.03613,-0.0079 0.09387,-0.02068 0.128306,-0.0283 0.03444,-0.0076 0.07813,-0.02344 0.09709,-0.03516 0.01896,-0.01172 0.150997,-0.0213 0.293421,-0.0213 0.142424,0 0.274463,0.0096 0.293421,0.0213 0.01896,0.01172 0.06265,0.02754 0.09709,0.03516 0.03444,0.0076 0.09218,0.02035 0.128305,0.0283 0.03613,0.0079 0.08313,0.02892 0.104438,0.0466 0.02131,0.01769 0.04548,0.02543 0.05371,0.0172 0.04759,-0.04758 0.631052,0.535465 0.636648,0.636192 6.09e-4,0.01096 0.01868,0.05158 0.04016,0.09025 0.02148,0.03867 0.03225,0.07031 0.02393,0.07031 -0.0083,0 0.0071,0.05273 0.03421,0.117188 0.05617,0.133402 0.07738,0.56852 0.03466,0.710937 -0.01547,0.05156 -0.03372,0.119122 -0.04056,0.150131 -0.03806,0.172458 -0.189292,0.402577 -0.403978,0.614712 -0.130021,0.128476 -0.236402,0.223074 -0.236402,0.210217 0,-0.01286 -0.03727,10e-4 -0.08282,0.03089 -0.04555,0.02985 -0.1018,0.05829 -0.125,0.06322 -0.05368,0.0114 -0.08991,0.02104 -0.252619,0.06726 -0.146937,0.04174 -0.4731,0.04063 -0.617688,-0.0021 z M 12.875,13.583123 c 0,0.0067 0.0404,-0.0087 0.08979,-0.0342 0.04938,-0.02554 0.09623,-0.03999 0.104111,-0.03211 0.0079,0.0079 0.09921,-0.06249 0.202954,-0.156379 0.261395,-0.236548 0.348767,-0.425466 0.34013,-0.735437 -0.0074,-0.266271 -0.0176,-0.311913 -0.108537,-0.486373 -0.06307,-0.121011 -0.275411,-0.353984 -0.324089,-0.355586 -0.01307,-4.32e-4 -0.05702,-0.02257 -0.09767,-0.04921 -0.105132,-0.06888 -0.192356,-0.08587 -0.44106,-0.08587 -0.248704,0 -0.335928,0.01698 -0.44106,0.08587 -0.04065,0.02663 -0.08041,0.04468 -0.08835,0.04011 -0.03068,-0.01766 -0.271307,0.245543 -0.333407,0.364685 -0.09075,0.174108 -0.101006,0.21975 -0.109288,0.486373 -0.0096,0.30939 0.07585,0.495597 0.33514,0.730242 0.18531,0.167696 0.238065,0.192653 0.480719,0.227417 0.06875,0.0098 0.128901,0.02145 0.133668,0.02577 0.0048,0.0043 0.06453,-0.0023 0.132813,-0.01484 0.06828,-0.01248 0.124144,-0.0172 0.124144,-0.01047 z M 3.0751946,4.8340166 C 3.0503013,4.8200694 3.0021053,4.8024912 2.9680921,4.7949541 2.9340789,4.7874169 2.8766902,4.77475 2.8405616,4.7668053 2.804433,4.7588606 2.757436,4.7378891 2.7361238,4.7202012 2.7148117,4.7025137 2.6906425,4.6947741 2.6824147,4.7030019 2.6348301,4.7505866 2.0513627,4.1675366 2.0457677,4.0668103 2.0451586,4.0558459 2.0270857,4.0152344 2.0056057,3.9765625 1.9841256,3.9378906 1.9733595,3.90625 1.9816809,3.90625 c 0.00832,0 -0.00707,-0.052734 -0.034209,-0.1171875 C 1.8913054,3.6556597 1.8700895,3.2205419 1.912807,3.078125 1.9282731,3.0265625 1.9465266,2.9590034 1.9533704,2.9279937 1.9914319,2.755536 2.1426619,2.5254172 2.357348,2.3132821 2.4873691,2.184806 2.59375,2.0902083 2.59375,2.103065 c 0,0.012857 0.037268,-0.00104 0.082818,-0.030888 0.04555,-0.029845 0.1017997,-0.058295 0.125,-0.06322 0.053687,-0.011399 0.08957,-0.020954 0.2545397,-0.067779 0.1483635,-0.042112 0.4701654,-0.040559 0.6157676,0.00297 0.084174,0.025165 0.157945,0.044934 0.25,0.066994 0.017187,0.00412 0.066406,0.027378 0.109375,0.051687 0.042969,0.024309 0.087858,0.041483 0.099753,0.038163 0.011895,-0.00332 0.1190003,0.088615 0.238011,0.2042984 0.1983562,0.1928115 0.3562262,0.4408301 0.3963656,0.622703 0.00684,0.03101 0.025039,0.098569 0.040434,0.1501313 0.043468,0.1455859 0.022901,0.5782831 -0.033792,0.7109375 -0.027546,0.064453 -0.043275,0.1171875 -0.034953,0.1171875 0.00832,0 -0.00244,0.031641 -0.023925,0.070312 -0.02148,0.038672 -0.039553,0.079283 -0.040162,0.090248 -0.0056,0.1007263 -0.5890625,0.6837763 -0.6366472,0.6361916 -0.00823,-0.00823 -0.032397,-4.875e-4 -0.053709,0.017199 -0.021312,0.017688 -0.071825,0.039481 -0.1122503,0.048431 -0.1071012,0.02371 -0.1279412,0.029363 -0.2122397,0.057576 -0.1018031,0.034071 -0.5259278,0.039752 -0.5829411,0.00781 z M 3.6523278,4.3326984 c 0.040811,-0.00996 0.1111238,-0.0423 0.15625,-0.071868 C 3.8537038,4.2312631 3.8976563,4.20912 3.90625,4.2116241 3.941435,4.2218762 4.1613816,3.9780478 4.2221963,3.8613728 4.3129459,3.6872653 4.3232019,3.6416231 4.3314837,3.375 4.3375291,3.1803778 4.325595,3.1129345 4.2611234,2.9773668 4.1689597,2.7835704 3.8571897,2.4870099 3.7096425,2.4527898 3.6544953,2.4399998 3.5882813,2.4241488 3.5625,2.4175653 3.496448,2.4006983 3.2164809,2.4014383 3.1348406,2.4186953 c -0.037556,0.00794 -0.095473,0.028985 -0.1287037,0.04677 -0.033231,0.017784 -0.066931,0.025824 -0.074889,0.017865 -0.00796,-0.00796 -0.099354,0.062346 -0.2031011,0.1562316 C 2.4667526,2.8761108 2.3793804,3.065029 2.3880166,3.375 c 0.00742,0.2662713 0.017604,0.3119134 0.1085373,0.4863728 0.064973,0.1246541 0.2719063,0.3496347 0.3315711,0.3604891 0.017187,0.00313 0.06114,0.02527 0.097672,0.049207 0.036532,0.023937 0.098201,0.049641 0.1370409,0.057121 0.03884,0.00748 0.0761,0.019082 0.082799,0.025781 0.017268,0.017269 0.4176381,4.594e-4 0.5066909,-0.021273 z"
       id="path821"
       inkscape:connector-curvature="0" />
    <path
       style="fill:#fe3200;stroke-width:0.000357143"
       d="M 7.4794241,10.955879 C 6.8391219,10.833644 6.2811547,10.532683 5.8413031,10.072296 5.46529,9.6787272 5.2067906,9.2066125 5.0721766,8.6675878 c -0.074223,-0.2972056 -0.074223,-1.03797 0,-1.3351756 0.2781153,-1.113636 1.08906,-1.9398303 2.2044978,-2.2459528 0.3439365,-0.094391 1.1027147,-0.094391 1.4466512,0 1.1154378,0.3061225 1.9263824,1.1323168 2.2044974,2.2459528 0.07422,0.2972056 0.07422,1.03797 0,1.3351756 -0.278246,1.1141594 -1.1034971,1.9538822 -2.2044974,2.2431562 -0.3109278,0.08169 -0.9339778,0.104299 -1.2439015,0.04514 z M 8.3918569,10.452036 C 9.0791631,10.33218 9.6754897,9.9501313 10.047175,9.3915228 c 0.209417,-0.3147347 0.342891,-0.6443031 0.404861,-0.9996659 0.05986,-0.3432781 0.05986,-0.4404357 0,-0.7837138 C 10.33218,6.9208369 9.9501312,6.3245103 9.3915228,5.952825 9.0767881,5.7434078 8.7472197,5.6099337 8.3918569,5.5479637 c -0.3432781,-0.059863 -0.4404357,-0.059863 -0.7837138,0 C 6.9208369,5.6678197 6.3245103,6.0498687 5.952825,6.6084772 5.7434078,6.9232119 5.6099337,7.2527803 5.5479637,7.6081431 c -0.059863,0.3432781 -0.059863,0.4404356 0,0.7837138 0.089081,0.5108269 0.3828113,1.0741656 0.7288501,1.3978447 0.3482303,0.3257284 0.8454628,0.5771744 1.3058215,0.6603404 0.3260819,0.05891 0.4806647,0.05929 0.8092216,0.002 z"
       id="path819"
       inkscape:connector-curvature="0" />
  </g>
</svg>
