<?xml version="1.0" encoding="UTF-8" standalone="no"?>
<!-- Created with Inkscape (http://www.inkscape.org/) -->

<svg
   version="1.1"
   id="svg2"
   width="1600"
   height="1600"
   viewBox="0 0 1600 1600"
   sodipodi:docname="mod_sound_echo.svg"
   inkscape:version="1.4 (86a8ad7, 2024-10-11)"
   xmlns:inkscape="http://www.inkscape.org/namespaces/inkscape"
   xmlns:sodipodi="http://sodipodi.sourceforge.net/DTD/sodipodi-0.dtd"
   xmlns="http://www.w3.org/2000/svg"
   xmlns:svg="http://www.w3.org/2000/svg"
   xmlns:rdf="http://www.w3.org/1999/02/22-rdf-syntax-ns#"
   xmlns:cc="http://creativecommons.org/ns#"
   xmlns:dc="http://purl.org/dc/elements/1.1/">
  <metadata
     id="metadata8">
    <rdf:RDF>
      <cc:Work
         rdf:about="">
        <dc:format>image/svg+xml</dc:format>
        <dc:type
           rdf:resource="http://purl.org/dc/dcmitype/StillImage" />
      </cc:Work>
    </rdf:RDF>
  </metadata>
  <defs
     id="defs6" />
  <sodipodi:namedview
     pagecolor="#808080"
     bordercolor="#666666"
     borderopacity="1"
     objecttolerance="10"
     gridtolerance="10"
     guidetolerance="10"
     inkscape:pageopacity="0"
     inkscape:pageshadow="2"
     inkscape:window-width="1920"
     inkscape:window-height="1009"
     id="namedview4"
     showgrid="true"
     inkscape:zoom="0.25"
     inkscape:cx="590"
     inkscape:cy="896"
     inkscape:window-x="-8"
     inkscape:window-y="-8"
     inkscape:window-maximized="1"
     inkscape:current-layer="svg2"
     inkscape:showpageshadow="0"
     inkscape:pagecheckerboard="true"
     inkscape:deskcolor="#d1d1d1">
    <inkscape:grid
       id="grid6"
       units="px"
       originx="0"
       originy="0"
       spacingx="1"
       spacingy="1"
       empcolor="#0099e5"
       empopacity="0.30196078"
       color="#0099e5"
       opacity="0.14901961"
       empspacing="5"
       enabled="true"
       visible="true" />
  </sodipodi:namedview>
  <g
     id="SOUND"
     transform="matrix(99.999145,0,0,99.999145,0.01368253,0)"
     style="stroke-width:0.0100001"
     inkscape:label="MOD_SOUND_ECHO">
    <path
       style="fill:none;stroke-width:0.000312503"
       d="m 0.00246711,13.289063 c 0.0017519,-1.92505 0.01192331,-2.68376 0.03508648,-2.617188 0.04761001,0.136834 0.19881822,0.282899 0.3351421,0.323743 0.0812709,0.02435 0.56802262,0.03589 1.53717991,0.03645 l 1.4182494,8.22e-4 0.5531141,0.522616 c 0.3042125,0.287439 0.9622093,0.909336 1.4622146,1.381992 0.5290569,0.500118 0.9510247,0.874711 1.0093863,0.89606 0.1334881,0.04883 1.1328403,0.05353 1.2753094,0.006 0.058424,-0.01949 0.1513584,-0.07795 0.2065209,-0.129902 C 8.0443616,13.512164 8.03125,13.899299 8.03125,7.9053462 8.03125,3.942595 8.0216866,2.449412 7.9958091,2.3718507 7.9465706,2.2242696 7.7998009,2.0779509 7.6585544,2.0356325 7.5009578,1.9884154 6.5615791,1.9890296 6.3942506,2.036459 6.2843959,2.067598 6.0511747,2.2864995 4.7961303,3.536459 L 3.3266359,5 H 1.9091311 C 0.93827012,5 0.45415222,5.0112275 0.37269569,5.0356325 0.23637181,5.0764759 0.0851636,5.2225409 0.03755359,5.359375 0.0143933,5.4259391 0.00421879,4.6624662 0.00246711,2.7265625 L 0,0 h 8 8 v 8 8 H 8 0 Z m 13.01925689,0.02509 c -0.0034,-0.01062 0.07828,-0.11472 0.181401,-0.231322 0.103125,-0.116602 0.192898,-0.228642 0.199494,-0.248979 0.0066,-0.02034 0.05933,-0.09559 0.117188,-0.167236 0.05786,-0.07164 0.105193,-0.13904 0.105193,-0.149772 0,-0.01073 0.05625,-0.09566 0.125,-0.188719 0.06875,-0.09306 0.125,-0.181973 0.125,-0.197576 0,-0.0156 0.02915,-0.06542 0.06477,-0.11071 0.03562,-0.04529 0.05604,-0.08234 0.04537,-0.08234 -0.01067,0 0.02172,-0.05977 0.07198,-0.132813 0.05026,-0.07305 0.0947,-0.146875 0.09876,-0.164062 0.0072,-0.03025 0.039,-0.102613 0.220048,-0.5 0.08161,-0.179113 0.203131,-0.522239 0.191037,-0.53939 -0.0032,-0.0045 0.016,-0.05018 0.04257,-0.101563 0.02657,-0.05138 0.04142,-0.09342 0.03299,-0.09342 -0.0084,0 0.01126,-0.06199 0.04373,-0.137757 0.03248,-0.07577 0.05193,-0.144874 0.04323,-0.153573 -0.0087,-0.0087 -0.002,-0.04163 0.01484,-0.07318 0.01686,-0.03155 0.03865,-0.1077946 0.04842,-0.1694321 0.0098,-0.061637 0.02484,-0.13195 0.03348,-0.15625 0.0175,-0.049234 0.04433,-0.1833325 0.06512,-0.3254319 0.0075,-0.051562 0.02258,-0.1429687 0.03342,-0.203125 0.04445,-0.2466872 0.05079,-0.3956822 0.0506,-1.1875 -2.19e-4,-0.8404963 -0.0036,-0.9017325 -0.06787,-1.234375 -0.01993,-0.103125 -0.04234,-0.2296875 -0.0498,-0.28125 -0.0075,-0.051563 -0.02016,-0.121875 -0.02822,-0.15625 -0.01603,-0.068367 -0.102756,-0.4047572 -0.126891,-0.4921875 -0.0083,-0.030078 -0.02079,-0.080066 -0.02775,-0.1110834 -0.007,-0.031017 -0.03623,-0.1118769 -0.06503,-0.1796875 -0.04974,-0.1170769 -0.06046,-0.1512525 -0.092,-0.2931385 -0.0074,-0.03326 -0.03133,-0.093025 -0.05319,-0.1328125 -0.02186,-0.039788 -0.0427,-0.089949 -0.0463,-0.11147 -0.0036,-0.021521 -0.03919,-0.1058962 -0.07907,-0.1875 -0.03988,-0.081604 -0.07326,-0.1554018 -0.07418,-0.1639956 -9.16e-4,-0.00859 -0.02176,-0.050781 -0.04632,-0.09375 -0.02456,-0.042969 -0.04643,-0.085156 -0.04859,-0.09375 C 14.153427,4.4022691 14.044057,4.1895381 13.993697,4.1255247 13.959666,4.0822675 13.91207,4.0046875 13.887928,3.953125 13.817856,3.8034616 13.720492,3.6507384 13.604033,3.5078125 13.544514,3.4347656 13.505497,3.375 13.517329,3.375 c 0.01183,0 -0.04348,-0.076071 -0.122908,-0.1690466 C 13.314989,3.1129777 13.249717,3.0250871 13.249371,3.0106409 13.249025,2.9961946 13.116429,2.84375 12.954713,2.671875 l -0.294028,-0.3125 -0.352951,0.3509064 -0.35295,0.3509064 0.1227,0.125656 c 0.06748,0.069111 0.109887,0.1256562 0.09423,0.1256562 -0.01566,0 0.02829,0.059766 0.09766,0.1328125 0.184288,0.1940509 0.429134,0.4921875 0.404212,0.4921875 -0.01183,0 0.02865,0.061214 0.08995,0.1360309 0.06131,0.074817 0.111467,0.1461116 0.111467,0.1584322 0,0.01232 0.04044,0.081185 0.08988,0.1530313 0.04943,0.071847 0.09262,0.1446931 0.09598,0.1618806 0.0034,0.017188 0.02479,0.052344 0.04764,0.078125 0.03984,0.044963 0.15481,0.296875 0.135489,0.296875 -0.0051,0 0.02354,0.04621 0.06376,0.1026897 0.04022,0.056479 0.07599,0.1197606 0.07951,0.140625 0.0035,0.020864 0.02378,0.069576 0.04504,0.1082478 0.02126,0.038672 0.03081,0.070312 0.02121,0.070312 -0.0096,0 0.0044,0.033406 0.0312,0.074235 0.02675,0.040829 0.0552,0.1041106 0.06322,0.140625 0.02639,0.120179 0.04291,0.1734406 0.119893,0.3867028 0.04188,0.1160156 0.0711,0.2109375 0.06493,0.2109375 -0.0062,0 0.0089,0.057159 0.0336,0.1270203 0.02465,0.069861 0.04263,0.1366581 0.03997,0.1484375 -0.0027,0.011779 0.01313,0.084475 0.0351,0.1615456 0.02197,0.077071 0.04471,0.1825397 0.05054,0.234375 0.0058,0.051836 0.0176,0.1384475 0.02617,0.192471 0.07916,0.4991815 0.08036,1.5790372 0.0022,1.9799006 -0.0084,0.042969 -0.02175,0.1458516 -0.02971,0.2286281 -0.008,0.082777 -0.02115,0.1613041 -0.02931,0.174505 -0.0082,0.013201 -0.0228,0.072037 -0.03253,0.1307469 -0.0097,0.05871 -0.02986,0.1419013 -0.04473,0.18487 -0.0418,0.1208066 -0.104775,0.3593752 -0.09486,0.3593752 0.0049,0 -0.0085,0.03255 -0.02984,0.07234 -0.02129,0.03979 -0.04337,0.09604 -0.04906,0.125 -0.01617,0.08235 -0.110106,0.324247 -0.166068,0.427659 -0.0279,0.05156 -0.04851,0.09698 -0.04579,0.100926 0.0027,0.0039 -0.02942,0.08487 -0.07141,0.179834 -0.042,0.09496 -0.07304,0.176107 -0.069,0.180323 0.004,0.0042 -0.02518,0.05337 -0.06496,0.10923 -0.03978,0.05586 -0.06313,0.101562 -0.0519,0.101562 0.01123,0 -0.03,0.06868 -0.09162,0.152624 -0.06162,0.08394 -0.112036,0.163476 -0.112036,0.176738 0,0.01326 -0.03516,0.07021 -0.07813,0.126541 -0.04297,0.05634 -0.07813,0.112844 -0.07813,0.125575 0,0.01273 -0.08438,0.125951 -0.1875,0.251599 -0.103125,0.125647 -0.1875,0.236963 -0.1875,0.247368 0,0.01041 -0.101051,0.130831 -0.224557,0.267612 l -0.224557,0.248693 0.356663,0.357678 0.356663,0.357677 0.178681,-0.176817 c 0.09827,-0.09725 0.175936,-0.18551 0.172581,-0.196135 z m -1.599849,-1.243066 c 0.08594,-0.09797 0.15625,-0.186563 0.15625,-0.196875 0,-0.01031 0.05977,-0.09013 0.132813,-0.177381 0.07305,-0.08725 0.132812,-0.168293 0.132812,-0.180104 0,-0.01181 0.0641,-0.104781 0.142452,-0.206601 0.07835,-0.101819 0.132929,-0.185126 0.12129,-0.185126 -0.01164,0 0.01638,-0.04922 0.06226,-0.109375 0.04588,-0.06016 0.07472,-0.109375 0.06408,-0.109375 -0.01064,0 0.0107,-0.04219 0.04741,-0.09375 0.03672,-0.05156 0.05859,-0.09375 0.04861,-0.09375 -0.01,0 0.01736,-0.05625 0.06076,-0.125 0.0434,-0.06875 0.07121,-0.125 0.06179,-0.125 -0.0094,0 2.82e-4,-0.03164 0.02154,-0.07031 0.02126,-0.03867 0.04223,-0.08437 0.04659,-0.101563 0.0044,-0.01719 0.04442,-0.129687 0.08902,-0.25 0.04459,-0.1203125 0.08682,-0.2398437 0.09383,-0.265625 0.007,-0.025781 0.03501,-0.1242188 0.06222,-0.21875 0.102914,-0.357565 0.123685,-0.4692131 0.165694,-0.890625 0.02809,-0.2817872 0.02811,-1.039405 3.1e-5,-1.28125 -0.01197,-0.103125 -0.02978,-0.262685 -0.03958,-0.3545778 -0.0098,-0.091893 -0.03115,-0.1919969 -0.04745,-0.2224538 -0.0163,-0.030457 -0.02271,-0.062306 -0.01424,-0.070776 0.0085,-0.00847 0.0012,-0.052874 -0.01626,-0.098675 -0.01741,-0.045801 -0.03788,-0.1145484 -0.04547,-0.1527715 -0.0076,-0.038223 -0.04353,-0.1538713 -0.07985,-0.2569963 -0.0751,-0.2132519 -0.07617,-0.2165831 -0.109752,-0.34375 -0.01362,-0.051563 -0.04213,-0.1289062 -0.06337,-0.171875 -0.02124,-0.042969 -0.08571,-0.1765625 -0.143264,-0.296875 -0.05756,-0.1203125 -0.130636,-0.2574219 -0.162394,-0.3046875 -0.03176,-0.047266 -0.04904,-0.085937 -0.0384,-0.085937 0.01064,0 -0.01653,-0.047031 -0.06037,-0.1045122 -0.04383,-0.057482 -0.07971,-0.115365 -0.07971,-0.1286297 0,-0.013265 -0.0681,-0.1107769 -0.151339,-0.2166934 -0.08324,-0.1059166 -0.157065,-0.2088131 -0.164063,-0.2286591 -0.007,-0.019846 -0.0971,-0.1313803 -0.200223,-0.247854 -0.103125,-0.1164735 -0.1875,-0.2221779 -0.1875,-0.2348985 0,-0.01272 -0.01789,-0.04102 -0.03976,-0.062889 -0.03218,-0.032181 -0.109025,0.029504 -0.403095,0.323574 l -0.363335,0.363335 0.17965,0.2033597 c 0.09881,0.1118478 0.174732,0.2089953 0.16872,0.2158828 -0.006,0.00689 0.05015,0.08547 0.124794,0.1746285 0.07465,0.089158 0.1262,0.1621056 0.114561,0.1621056 -0.01164,0 0.02339,0.05625 0.07784,0.125 0.05445,0.06875 0.09011,0.125 0.07925,0.125 -0.01086,0 0.02137,0.059766 0.07162,0.1328125 0.05026,0.073047 0.0917,0.1398437 0.0921,0.1484375 3.97e-4,0.00859 0.03565,0.092969 0.07833,0.1875 0.08943,0.198065 0.117409,0.2780728 0.158437,0.453125 0.0081,0.034375 0.04354,0.1292969 0.07884,0.2109375 0.03531,0.081641 0.05801,0.1484375 0.05045,0.1484375 -0.0076,0 0.001,0.038672 0.01908,0.085937 0.01805,0.047266 0.03765,0.1210937 0.04355,0.1640625 0.0059,0.042969 0.01916,0.1241084 0.02946,0.1803106 0.04754,0.2593906 0.06878,0.9724172 0.03837,1.2884394 -0.01243,0.1291866 -0.05934,0.4946309 -0.0682,0.53125 -0.0021,0.00859 -0.01997,0.071875 -0.03977,0.140625 -0.01979,0.06875 -0.03402,0.1320312 -0.03161,0.140625 0.0024,0.00859 -0.01304,0.048178 -0.03433,0.087966 -0.02129,0.039787 -0.04378,0.096037 -0.04998,0.125 -0.0062,0.028963 -0.04093,0.1370344 -0.0772,0.2401594 -0.03627,0.103125 -0.07007,0.2015625 -0.07512,0.21875 -0.01877,0.063905 -0.09767,0.2223593 -0.167273,0.3359373 -0.0395,0.06445 -0.06389,0.117188 -0.0542,0.117188 0.0097,0 -0.01993,0.04922 -0.06582,0.109375 -0.04588,0.06016 -0.07303,0.109375 -0.06033,0.109375 0.01271,0 -0.02533,0.05977 -0.08453,0.132812 -0.05919,0.07305 -0.115565,0.153907 -0.125268,0.179688 -0.0097,0.02578 -0.119576,0.164258 -0.244161,0.307727 l -0.226518,0.260852 0.355324,0.356336 c 0.195428,0.195984 0.362585,0.356157 0.371459,0.355941 0.0089,-2.19e-4 0.08645,-0.08055 0.172385,-0.178519 z M 9.9331647,10.688219 c 0.054931,-0.06836 0.095956,-0.129001 0.091167,-0.134769 -0.0048,-0.0058 0.05237,-0.08344 0.127015,-0.172594 0.07465,-0.08916 0.1262,-0.162106 0.114562,-0.162106 -0.01164,0 0.02057,-0.05273 0.07158,-0.117187 0.07458,-0.09424 0.185617,-0.2987249 0.207868,-0.382813 0.0023,-0.00859 0.02852,-0.061328 0.05832,-0.1171875 C 10.633474,9.5457031 10.650962,9.5 10.642538,9.5 c -0.0084,0 0.01181,-0.063281 0.04496,-0.140625 0.03315,-0.077344 0.05339,-0.140625 0.04496,-0.140625 -0.0084,0 0.0065,-0.042188 0.03316,-0.09375 0.02666,-0.051562 0.04059,-0.09375 0.03095,-0.09375 -0.0096,0 -0.0033,-0.026596 0.0141,-0.059103 0.08839,-0.1651606 0.137233,-0.9405731 0.08977,-1.4252722 -0.02686,-0.2743234 -0.04496,-0.3601525 -0.121604,-0.5766222 -0.06327,-0.178705 -0.08158,-0.23871 -0.104928,-0.3439237 -0.0075,-0.033644 -0.04489,-0.1285657 -0.08315,-0.2109375 C 10.552504,6.33302 10.519443,6.2585937 10.517302,6.25 c -0.0021,-0.00859 -0.02399,-0.050781 -0.04855,-0.09375 -0.02456,-0.042969 -0.04516,-0.088435 -0.04577,-0.1010353 -6.1e-4,-0.012601 -0.06087,-0.099434 -0.13392,-0.1929628 -0.07305,-0.093529 -0.132813,-0.1801403 -0.132813,-0.1924703 0,-0.01233 -0.06279,-0.095912 -0.139528,-0.1857382 C 9.9399809,5.3942175 9.8840706,5.3138459 9.8924766,5.30544 9.9008866,5.29703 9.8853866,5.271588 9.8580426,5.248894 9.8147876,5.212996 9.7612816,5.254674 9.4464439,5.569513 L 9.0845628,5.9313947 9.1985313,6.0704784 c 0.062683,0.076496 0.1139687,0.149331 0.1139687,0.161856 0,0.012525 0.050913,0.084904 0.1131394,0.1608437 0.062227,0.07594 0.1042147,0.1380719 0.093307,0.1380719 -0.010908,0 0.014475,0.052734 0.056406,0.1171875 0.041931,0.064453 0.093718,0.1804687 0.1150822,0.2578125 0.054101,0.1958609 0.050063,0.1829037 0.1210772,0.3884837 0.062554,0.181086 0.095122,0.4223994 0.095183,0.7052663 6.25e-5,0.221265 -0.028401,0.5657991 -0.052653,0.6376512 -0.012154,0.036011 -0.025907,0.079536 -0.030561,0.096724 -0.00465,0.017188 -0.038281,0.115625 -0.074726,0.21875 -0.036445,0.103125 -0.069198,0.2015625 -0.072786,0.21875 -0.00809,0.038759 -0.1633647,0.3530553 -0.2156057,0.4364122 -0.021168,0.033777 -0.1141097,0.1583203 -0.2065359,0.276764 l -0.1680481,0.2153516 0.3550381,0.356049 c 0.1952712,0.195826 0.3634609,0.356048 0.3737553,0.356048 0.010294,0 0.063661,-0.05593 0.1185922,-0.124281 z"
       id="path825"
       inkscape:connector-curvature="0" />
    <path
       style="fill:#fefefe;stroke-width:0.000312503"
       d="M 4.0071506,6.3556978 4.0232506,5.7113953 5.3630516,4.3713228 6.7028525,3.03125 H 6.8514262 7 V 4.015625 5 H 6.5230928 6.0461856 L 5.5230928,5.5237725 5,6.047545 V 6.5237725 7 H 4.4955253 3.9910503 Z"
       id="path4" />
    <path
       style="fill:#fefefe;stroke-width:0.000312503"
       d="M 1,6.5 V 6 H 2 3 V 6.5 7 H 2 1 Z"
       id="path3" />
    <path
       style="fill:#cbcbcb;stroke-width:0.000312503"
       d="M 6.4968853,12.645868 C 6.3868797,12.537034 5.9453125,12.118866 5.515625,11.716606 5.0859375,11.314347 4.5761719,10.831589 4.3828125,10.643811 L 4.03125,10.302397 V 8.6511988 7 H 4.515625 5 V 6.5230928 6.0461856 L 5.5237725,5.5230928 6.047545,5 H 6.5237725 7 V 8.921875 12.84375 H 6.8484478 c -0.1442234,0 -0.161225,-0.0096 -0.3515625,-0.197882 z M 1.03125,8.5 V 7 H 2.015625 3 V 8.5 10 H 2.015625 1.03125 Z"
       id="path821"
       inkscape:connector-curvature="0" />
    <path
       style="fill:#323232;stroke-width:0.000312503"
       d="M 6.35284,13.83356 C 6.2944784,13.812211 5.8725106,13.437618 5.3434537,12.9375 4.8434484,12.464844 4.1854516,11.842947 3.8812391,11.555508 L 3.328125,11.032892 1.9031007,11.032071 c -0.9770022,-5.63e-4 -1.4584212,-0.01196 -1.53124998,-0.03626 -0.14758115,-0.04924 -0.29389977,-0.196008 -0.33621826,-0.337255 -0.05043142,-0.168325 -0.05043142,-5.1175334 0,-5.2858584 C 0.07795095,5.2314491 0.22426957,5.0846794 0.37185072,5.0354409 0.44483103,5.0110919 0.92383256,5 1.9023562,5 H 3.3266359 L 4.7961303,3.5364591 c 1.2550444,-1.2499595 1.4882656,-1.4688615 1.5981203,-1.5 0.1673285,-0.04743 1.1067072,-0.048044 1.2643038,-8.266e-4 0.1412465,0.042318 0.2880162,0.1886371 0.3372547,0.3362183 0.025878,0.077561 0.035441,1.5707442 0.035441,5.5334954 0,5.9939528 0.013112,5.6068178 -0.1965797,5.8043108 -0.055162,0.05195 -0.1480969,0.11041 -0.2065209,0.129902 -0.1424691,0.04753 -1.1418213,0.04283 -1.2753094,-0.006 z M 7,7.9375 V 3.03125 H 6.8514262 6.7028525 L 5.3592387,4.3751619 4.015625,5.7190734 l 0.010448,2.288901 0.010448,2.2889006 0.098927,0.10501 c 0.05441,0.05776 0.5489269,0.528717 1.0989269,1.046582 0.55,0.517864 1.1046959,1.043657 1.2326578,1.168427 0.2234581,0.217886 0.2385956,0.226856 0.3828125,0.226856 H 7 Z M 3,8 V 6 H 1.9950017 0.99000328 l 0.0206234,0.7550603 c 0.011343,0.4152831 0.020623,1.3152831 0.020623,2 V 10 H 2.015625 3 Z"
       id="path819"
       inkscape:connector-curvature="0" />
    <g
       id="path823-0-9"
       transform="matrix(0.9101027,0,0,0.9101027,10.666631,0.76262457)"
       style="stroke-width:0.0109879">
      <path
         id="path6"
         style="fill:#323232;stroke-width:0.0109879"
         d="m -2.8341361,8.1803111 c -0.00664,0.8737279 0.012747,1.7732982 0.2612408,2.6663599 0.2161543,0.864402 0.5331269,1.704094 0.9172077,2.507958 l 0.00526,0.01316 0.00785,0.01045 c 0.4161887,0.725684 0.86519511,1.462538 1.44921771,2.117482 l 0.0235853,0.0262 0.0288217,0.02097 c -0.031867,-0.02344 0.0219913,0.02648 0.0707773,0.09436 0.048773,0.06786 0.1082501,0.15604 0.1808062,0.243707 0.072563,0.08767 0.149147,0.186374 0.31710291,0.248966 0.083981,0.03129 0.2025508,0.04232 0.3092483,0.0079 0.10669756,-0.03446 0.18669306,-0.103638 0.24370746,-0.17557 l -0.023585,0.02882 C 1.0762824,15.871549 1.1943226,15.751578 1.3135257,15.632036 l 0.707558,-0.710134 -0.222762,-0.235874 C 1.1361838,13.98465 0.57175512,13.18801 0.11325131,12.343059 c -0.2550502,-0.64696 -0.5393951,-1.248867 -0.6839946,-1.868516 v -0.0026 -0.0026 c -0.1871828,-0.7422298 -0.2636041,-1.5148941 -0.2523561,-2.2890379 z m 2.71471081,0 c -0.00203,0.5070928 0.0334859,1.0121757 0.0937187,1.5054233 v 0.013113 l 0.002704,0.013112 c 0.221789,1.1138016 0.61768341,2.2080786 1.26051419,3.1604916 l 0.015731,0.02359 0.018349,0.02097 c 0.1138625,0.119781 0.2832685,0.411429 0.4717055,0.683995 0.09422,0.136281 0.194776,0.270608 0.327597,0.38524 0.13282,0.114626 0.31384,0.216817 0.529349,0.214886 l 0.131039,-0.0027 0.096981,-0.0891 c 0.1414986,-0.133496 0.2775256,-0.269758 0.4114436,-0.403585 l 0.70494,-0.704961 -0.217504,-0.238471 c -0.485896,-0.528258 -0.903146,-1.099629 -1.202892,-1.72958 -0.335285,-0.789457 -0.603859,-1.5936668 -0.61062,-2.4083597 v -0.00262 -0.00526 C 1.9087417,8.470648 1.9082667,8.3252748 1.9100887,8.1803111 Z m 2.73507699,0 c 6.3e-4,0.024954 -9.4e-4,0.049492 1.72e-4,0.074533 -0.0149,0.7047678 0.107981,1.4045607 0.382622,2.0572199 0.218363,0.714562 0.672066,1.26921 1.045628,1.787266 0.04762,0.071 0.118004,0.145594 0.220144,0.188682 0.102135,0.04308 0.222048,0.04005 0.306609,0.01316 0.169122,-0.05386 0.23958,-0.145681 0.30663,-0.220122 0.06705,-0.07444 0.120772,-0.145222 0.162479,-0.19394 0.04171,-0.04872 0.087729,-0.06574 0.015709,-0.03668 l 0.062901,-0.02359 0.741638,-0.744278 -0.196558,-0.235852 C 5.2716557,10.379291 4.9457737,9.8888441 4.8068297,9.3398098 l -0.0027,-0.013113 -0.0053,-0.015731 C 4.6739617,8.9523697 4.6251407,8.5672405 4.6396507,8.1803111 Z" />
      <path
         id="path5"
         style="fill:#00ff00;stroke-width:0.0109879"
         d="m -2.4979332,8.1803111 c -0.00585,0.8668379 0.013703,1.7353902 0.2476777,2.5762679 0.2098164,0.841659 0.5205264,1.665535 0.8975497,2.454629 0.41278839,0.719754 0.85295881,1.436269 1.41063151,2.061662 0.1723368,0.126744 0.43675131,0.763149 0.66040931,0.480977 C 0.83752442,15.634308 0.95671678,15.514775 1.0759128,15.395239 1.2354331,15.235266 1.3949647,15.075287 1.5544857,14.915314 0.86714808,14.187365 0.28209091,13.364856 -0.19101819,12.49 -0.44281989,11.848395 -0.73962049,11.224255 -0.89683821,10.550535 -1.0915373,9.7785258 -1.1707675,8.9789876 -1.1596671,8.1803111 Z m 2.71250031,0 c -0.00188,0.490635 0.0324489,0.9823691 0.0914654,1.4656567 0.21506811,1.0800392 0.59771297,2.1335562 1.20939519,3.0398182 0.337582,0.355093 0.64259,1.18286 1.082304,1.178921 0.137282,-0.129506 0.2712,-0.262555 0.404663,-0.395928 0.158921,-0.159375 0.317828,-0.318748 0.476749,-0.478123 -0.504457,-0.548505 -0.942666,-1.150372 -1.260429,-1.819951 -0.343393,-0.807383 -0.632327,-1.6542587 -0.639699,-2.542617 -0.00499,-0.148944 -0.00561,-0.2983508 -0.00388,-0.4477769 z m 2.73263059,0 c 6.53e-4,0.023547 -7.9e-4,0.046885 3.43e-4,0.070477 -0.01587,0.6729699 0.099405,1.3356887 0.36157,1.9508189 0.191928,0.643649 0.626597,1.174542 1.013115,1.711574 0.183728,0.273908 0.427746,-0.29987 0.608561,-0.372815 l 0.476384,-0.477737 C 5.0000467,10.577362 4.6398077,10.045076 4.4821937,9.4222617 4.3433477,9.0236364 4.2893797,8.6015004 4.3037917,8.1803111 Z" />
      <path
         id="path6-8"
         style="fill:#323232;stroke-width:0.0109879"
         d="M 5.643414,8.1803111 C 5.650054,7.3065841 5.630667,6.4070131 5.3821732,5.5139511 5.1660189,4.6495501 4.8490463,3.8098581 4.4649655,3.0059939 l -0.00526,-0.01316 -0.00785,-0.01045 C 4.0356668,2.2566999 3.5866603,1.5198459 3.0026377,0.86490103 l -0.023585,-0.0262 -0.028822,-0.02097 c 0.031867,0.02344 -0.021991,-0.02648 -0.070777,-0.09436 -0.048773,-0.06786 -0.1082501,-0.156041 -0.1808062,-0.243708 -0.072563,-0.08767 -0.149147,-0.186374 -0.3171029,-0.248965 -0.083981,-0.03129 -0.2025508,-0.04232 -0.3092483,-0.0079 -0.1066975,0.03446 -0.186693,0.103638 -0.2437074,0.17557 l 0.023585,-0.02882 c -0.1191784,0.119525 -0.2372186,0.239496 -0.3564217,0.359039 l -0.707558,0.71013387 0.222762,0.235873 c 0.6621379,0.701378 1.2265665,1.498018 1.6850703,2.3429692 0.2550502,0.64696 0.5393951,1.248867 0.6839946,1.868516 v 0.0026 0.0026 c 0.1871828,0.74223 0.2636041,1.514895 0.2523561,2.289038 z m -2.7147109,0 c 0.00203,-0.507092 -0.033486,-1.012175 -0.093719,-1.505423 v -0.01311 l -0.0027,-0.01311 C 2.6104951,5.5348611 2.2146007,4.4405841 1.57177,3.4881709 L 1.556039,3.4645809 1.53769,3.4436109 C 1.4238275,3.3238299 1.2544215,3.0321819 1.0659845,2.7596159 c -0.09422,-0.136281 -0.194776,-0.270607 -0.32759702,-0.38524 -0.13282,-0.114625 -0.31384,-0.216817 -0.52934895,-0.214885 l -0.131039,0.0027 -0.096981,0.0891 c -0.14150231,0.133496 -0.27752931,0.269758 -0.41144731,0.403584 l -0.70494002,0.704961 0.217504,0.238472 c 0.48589602,0.5282572 0.90314603,1.0996282 1.20289198,1.7295792 0.335285,0.789457 0.60385902,1.593667 0.61062002,2.40836 v 0.0026 0.0053 c 0.00489,0.145848 0.00536,0.291221 0.00354,0.436184 z m -2.73507687,0 c -6.3e-4,-0.02495 9.4e-4,-0.04949 -1.72e-4,-0.07453 0.0149,-0.704767 -0.107981,-1.40456 -0.38262201,-2.05722 -0.218363,-0.714562 -0.67206602,-1.26921 -1.04562802,-1.787266 -0.04762,-0.071 -0.118004,-0.145594 -0.220144,-0.188682 -0.102135,-0.04308 -0.222048,-0.04005 -0.306609,-0.01316 -0.1691221,0.05386 -0.2395801,0.14568 -0.3066301,0.220122 -0.06705,0.07444 -0.120772,0.145222 -0.162479,0.193939 -0.04171,0.04872 -0.087729,0.06574 -0.015709,0.03668 l -0.062901,0.02359 -0.741638,0.744278 0.196558,0.235852 c 0.39197,0.46742 0.717852,0.957867 0.856796,1.506902 l 0.0027,0.01311 0.0053,0.01573 c 0.124868,0.358596 0.173689,0.743725 0.159179,1.130654 z" />
      <path
         id="path5-8"
         style="fill:#ffffff;stroke-width:0.0109879"
         d="M 5.3072111,8.1803111 C 5.3130611,7.3134741 5.2935081,6.4449211 5.0595334,5.6040431 4.849717,4.7623841 4.539007,3.9385091 4.1619837,3.1494149 3.7491952,2.4296609 3.3090248,1.7131459 2.7513521,1.0877529 2.5790153,0.96100804 2.3146008,0.32460303 2.0909428,0.60677603 1.9717534,0.72631503 1.8525611,0.84584703 1.7333651,0.96538304 1.5738448,1.1253569 1.4143132,1.2853359 1.2547922,1.4453079 c 0.6873376,0.727949 1.2723947,1.550458 1.7455038,2.4253142 0.2518017,0.641605 0.5486023,1.265745 0.70582,1.939465 0.1946991,0.77201 0.2739294,1.571548 0.2628289,2.370224 z m -2.7125004,0 c 0.00188,-0.490635 -0.032449,-0.982369 -0.091465,-1.465656 -0.2150681,-1.08004 -0.5977129,-2.133556 -1.2093951,-3.0398192 -0.337582,-0.355093 -0.64259002,-1.18286 -1.08230397,-1.178921 -0.137282,0.129506 -0.2712,0.262555 -0.40466301,0.395928 -0.158921,0.159375 -0.317828,0.318748 -0.47674902,0.478123 0.50445702,0.5485062 0.94266598,1.1503722 1.26042898,1.8199512 0.34339302,0.807383 0.63232702,1.654259 0.63969902,2.542618 0.00499,0.148944 0.00561,0.29835 0.00389,0.447776 z m -2.73263047,0 c -6.53e-4,-0.02355 7.9e-4,-0.04688 -3.43e-4,-0.07048 0.01587,-0.672969 -0.099405,-1.335688 -0.36157001,-1.950818 -0.19192802,-0.643649 -0.62659702,-1.174542 -1.01311502,-1.711574 -0.183728,-0.273908 -0.4277461,0.29987 -0.6085611,0.372815 l -0.476384,0.477736 c 0.407124,0.485267 0.767363,1.017553 0.9249771,1.640368 0.138846,0.398625 0.192814,0.820761 0.178402,1.24195 z" />
    </g>
  </g>
</svg>
