<?xml version="1.0" encoding="UTF-8" standalone="no"?>
<!-- Created with Inkscape (http://www.inkscape.org/) -->

<svg
   version="1.1"
   id="svg2"
   width="1600"
   height="1600"
   viewBox="0 0 1600 1600"
   sodipodi:docname="mod_normaledit.svg"
   inkscape:version="1.2.2 (732a01da63, 2022-12-09)"
   xmlns:inkscape="http://www.inkscape.org/namespaces/inkscape"
   xmlns:sodipodi="http://sodipodi.sourceforge.net/DTD/sodipodi-0.dtd"
   xmlns="http://www.w3.org/2000/svg"
   xmlns:svg="http://www.w3.org/2000/svg"
   xmlns:rdf="http://www.w3.org/1999/02/22-rdf-syntax-ns#"
   xmlns:cc="http://creativecommons.org/ns#"
   xmlns:dc="http://purl.org/dc/elements/1.1/">
  <metadata
     id="metadata8">
    <rdf:RDF>
      <cc:Work
         rdf:about="">
        <dc:format>image/svg+xml</dc:format>
        <dc:type
           rdf:resource="http://purl.org/dc/dcmitype/StillImage" />
      </cc:Work>
    </rdf:RDF>
  </metadata>
  <defs
     id="defs6" />
  <sodipodi:namedview
     pagecolor="#808080"
     bordercolor="#666666"
     borderopacity="1"
     objecttolerance="10"
     gridtolerance="10"
     guidetolerance="10"
     inkscape:pageopacity="0"
     inkscape:pageshadow="2"
     inkscape:window-width="1993"
     inkscape:window-height="1009"
     id="namedview4"
     showgrid="false"
     inkscape:zoom="0.5"
     inkscape:cx="-3"
     inkscape:cy="8"
     inkscape:window-x="-8"
     inkscape:window-y="-8"
     inkscape:window-maximized="1"
     inkscape:current-layer="MOD_NORMALEDIT"
     inkscape:showpageshadow="0"
     inkscape:pagecheckerboard="true"
     inkscape:deskcolor="#d1d1d1" />
  <g
     id="MOD_NORMALEDIT"
     transform="matrix(100,0,0,100,0,4.9999997e-5)"
     style="stroke-width:0.0114286">
    <path
       style="fill:none;stroke-width:0.000357143"
       d="M 0,8 V 0 h 8 8 v 8 8 H 8 0 Z m 12.179628,4.179747 C 14.887217,9.4722628 15.25,9.0984234 15.25,9.0158006 15.25,8.9338016 15.056021,8.7280988 13.695907,7.3677803 L 12.141813,5.8134538 13.159057,4.7895394 C 14.072592,3.8700131 14.185012,3.7457184 14.261753,3.5703678 14.50788,3.0079703 14.387522,2.3823485 13.954393,1.9727129 13.527359,1.5688426 12.942697,1.4687357 12.399523,1.7064855 12.222722,1.783872 12.100958,1.8939508 11.179212,2.8096921 L 10.155298,3.8269347 8.6322184,2.3040923 C 7.3005434,0.97262534 7.0973791,0.78125 7.0155659,0.78125 c -0.082461,0 -0.458175,0.3645884 -3.1639443,3.0702531 -2.708627,2.7085222 -3.0703716,3.0813 -3.0703716,3.1640178 0,0.082872 0.4728205,0.5665957 4.0702675,4.1641221 C 8.4484447,14.776649 8.9326859,15.25 9.0155209,15.25 c 0.082677,0 0.4559566,-0.362207 3.1641071,-3.070253 z"
       id="path827"
       inkscape:connector-curvature="0" />
    <path
       style="fill:#fefe00;stroke-width:0.000357143"
       d="M 7.859375,8.453395 C 7.6260584,8.3701753 7.5022659,8.1336397 7.5653609,7.8916103 7.5940081,7.7817213 7.9283044,7.4355247 10.181915,5.1819147 12.435525,2.9283044 12.781721,2.5940081 12.89161,2.565361 13.243646,2.4735884 13.559382,2.790566 13.465602,3.1416103 13.437109,3.2482678 13.075269,3.6234716 10.880299,5.822395 9.4766031,7.2286184 8.2929688,8.3976281 8.25,8.4201937 8.1186047,8.4891984 7.9903231,8.5001019 7.859375,8.453395 Z"
       id="path825"
       inkscape:connector-curvature="0" />
    <path
       style="fill:#65fe00;stroke-width:0.000357143"
       d="M 5.1796231,10.851498 1.3437331,7.0155131 4.1797762,4.1795984 7.0158194,1.3436838 8.4215406,2.7496655 9.8272619,4.1556472 8.3096203,5.6793862 C 6.9136997,7.0809153 6.7851031,7.2188769 6.70625,7.3995225 6.4688541,7.9433775 6.5689528,8.5274759 6.9727128,8.9543928 7.3822428,9.3874103 8.0072656,9.5077453 8.5703678,9.2619881 8.7495441,9.1837894 8.8911209,9.0517775 10.289408,7.6590856 l 1.523783,-1.5176853 1.437166,1.4371656 1.437165,1.4371657 -2.836004,2.8358764 -2.8360046,2.835876 z"
       id="path823"
       inkscape:connector-curvature="0" />
    <path
       style="fill:#006500;stroke-width:0.000357143"
       d="M 7.741095,9.3737588 C 7.3340031,9.3053153 6.9207825,8.9930388 6.7327087,8.6117075 6.5340369,8.2088878 6.5253581,7.8144787 6.7060353,7.3995225 6.7861219,7.2155897 6.9612928,7.03296 9.4660872,4.5219469 11.961007,2.0208321 12.155316,1.8334649 12.359375,1.7320135 12.919321,1.4536269 13.57225,1.566265 13.996037,2.0143572 14.414672,2.4570017 14.506419,3.0654923 14.236531,3.609375 14.135189,3.8136003 13.949954,4.0057116 11.446803,6.5026628 8.9432863,8.9999794 8.7527097,9.1828231 8.5707113,9.2620488 8.3857066,9.3425834 8.0890647,9.4099944 7.953125,9.4023934 7.91875,9.4004716 7.8233366,9.3875856 7.741095,9.3737588 Z M 8.25,8.4201937 C 8.2929688,8.3976281 9.4766031,7.2286184 10.880299,5.822395 13.075269,3.6234716 13.437109,3.2482678 13.465602,3.1416103 13.559382,2.790566 13.243646,2.4735884 12.89161,2.565361 12.781721,2.5940081 12.435525,2.9283044 10.181915,5.1819147 7.9283044,7.4355247 7.5940081,7.7817212 7.5653609,7.8916103 7.4595166,8.2976247 7.87402,8.6176466 8.25,8.4201937 Z"
       id="path821"
       inkscape:connector-curvature="0" />
    <path
       style="fill:#003200;stroke-width:0.000357143"
       d="M 4.8515175,11.179643 C 1.2540705,7.5821166 0.78125,7.0983934 0.78125,7.0155209 0.78125,6.9328031 1.1429946,6.5600253 3.8516216,3.8515031 6.5608591,1.1423704 6.9330272,0.78125 7.0158037,0.78125 c 0.082135,0 0.2834622,0.18968144 1.617606,1.5240334 L 10.157205,3.8293169 9.9921113,3.99236 9.8270175,4.1554028 8.4214184,2.7495433 7.0158194,1.3436838 4.1797762,4.1795984 1.3437331,7.0155131 5.1796231,10.851498 9.0155134,14.687484 11.851477,11.851649 14.68744,9.0158141 13.249496,7.5776203 11.811551,6.1394269 11.976635,5.9763934 12.141719,5.81336 13.69586,7.3677337 c 1.360156,1.36036 1.55414,1.5660679 1.55414,1.6480669 0,0.082623 -0.362783,0.4564622 -3.070372,3.1639464 C 9.4714775,14.887793 9.0981984,15.25 9.0155209,15.25 c -0.082835,0 -0.5670762,-0.473351 -4.1640034,-4.070357 z"
       id="path819"
       inkscape:connector-curvature="0" />
  </g>
</svg>
