<?xml version="1.0" encoding="UTF-8" standalone="no"?>
<!-- Created with Inkscape (http://www.inkscape.org/) -->

<svg
   version="1.1"
   id="svg2"
   width="1600"
   height="1600"
   viewBox="0 0 1600 1600"
   sodipodi:docname="mod_meshdeform.svg"
   inkscape:version="1.2.2 (732a01da63, 2022-12-09)"
   xmlns:inkscape="http://www.inkscape.org/namespaces/inkscape"
   xmlns:sodipodi="http://sodipodi.sourceforge.net/DTD/sodipodi-0.dtd"
   xmlns="http://www.w3.org/2000/svg"
   xmlns:svg="http://www.w3.org/2000/svg"
   xmlns:rdf="http://www.w3.org/1999/02/22-rdf-syntax-ns#"
   xmlns:cc="http://creativecommons.org/ns#"
   xmlns:dc="http://purl.org/dc/elements/1.1/">
  <metadata
     id="metadata8">
    <rdf:RDF>
      <cc:Work
         rdf:about="">
        <dc:format>image/svg+xml</dc:format>
        <dc:type
           rdf:resource="http://purl.org/dc/dcmitype/StillImage" />
      </cc:Work>
    </rdf:RDF>
  </metadata>
  <defs
     id="defs6" />
  <sodipodi:namedview
     pagecolor="#808080"
     bordercolor="#666666"
     borderopacity="1"
     objecttolerance="10"
     gridtolerance="10"
     guidetolerance="10"
     inkscape:pageopacity="0"
     inkscape:pageshadow="2"
     inkscape:window-width="1993"
     inkscape:window-height="1009"
     id="namedview4"
     showgrid="false"
     inkscape:zoom="0.5"
     inkscape:cx="289"
     inkscape:cy="184"
     inkscape:window-x="-8"
     inkscape:window-y="-8"
     inkscape:window-maximized="1"
     inkscape:current-layer="MOD_MESHDEFORM"
     inkscape:showpageshadow="0"
     inkscape:pagecheckerboard="true"
     inkscape:deskcolor="#d1d1d1" />
  <g
     id="MOD_MESHDEFORM"
     transform="matrix(100,0,0,100,0,4.9999997e-5)"
     style="stroke-width:0.0114286">
    <path
       style="fill:none;stroke-width:0.000357143"
       d="M 0,8 V 0 h 8 8 v 8 8 H 8 0 Z m 15.269217,7.419944 c 0.04746,-0.03544 0.11529,-0.103265 0.150727,-0.150729 l 0.06443,-0.0863 V 8 0.81708316 l -0.06443,-0.0862982 C 15.384504,0.68332096 15.316679,0.61549286 15.269215,0.5800559 L 15.182917,0.515625 H 8 0.81708316 L 0.73078496,0.5800559 C 0.68332096,0.6154929 0.61549286,0.68332018 0.5800559,0.73078318 L 0.515625,0.81707959 0.50672091,7.9163522 c -0.004897,3.9045998 -8.2219e-4,7.1445618 0.009056,7.1999148 0.02235,0.125243 0.15367888,0.284917 0.27954885,0.339885 0.0785944,0.03432 1.34793484,0.04044 7.24144704,0.03492 l 7.1461472,-0.0067 z M 2.5003868,11.210938 2.5007737,8.921875 2.6096177,8.8513697 C 2.6694819,8.8125919 2.855636,8.7263544 3.0232934,8.6597309 4.2550944,8.1702403 5.4146444,8.0128534 6.2762301,8.2182069 6.6028047,8.2960438 6.5879194,8.26649 6.4575107,8.578125 6.3381354,8.8633938 6.2208072,9.2933981 6.1676041,9.640625 c -0.07143,0.466185 -0.044141,1.68175 0.048759,2.171875 0.091901,0.484858 0.1946853,0.880472 0.34303,1.320313 L 6.6832341,13.5 H 4.5916172 2.5 Z m 6.4420966,2.152425 C 8.9092406,13.288212 8.8298344,13.168937 8.7660253,13.098308 8.565045,12.875847 8.2789541,11.94644 8.1687809,11.158074 8.1034556,10.690626 8.1222666,10.123215 8.2160725,9.7315628 L 8.2841094,9.4475009 8.5404922,9.550415 c 0.3445772,0.1383159 0.7713516,0.2496169 1.1304509,0.2948169 0.4527689,0.05699 1.5924019,0.023469 2.0634319,-0.060694 0.43191,-0.077173 1.062887,-0.2393031 1.4668,-0.3768947 0.153614,-0.052329 0.283693,-0.095143 0.289062,-0.095143 0.0054,0 0.0098,0.9421868 0.0098,2.0937498 V 13.5 H 11.251462 9.0029247 Z M 9.7894281,7.8119362 C 9.630645,7.7801487 9.4883672,7.7464991 9.4732553,7.7371594 9.4581434,7.7278197 9.4924778,7.6038412 9.5495541,7.4616516 9.6886813,7.1150547 9.7999422,6.6888691 9.8452319,6.3290569 9.9022222,5.8762884 9.8687006,4.7366553 9.7845375,4.265625 9.7073644,3.8337153 9.5452344,3.2027378 9.4076428,2.7988254 9.3553141,2.6452106 9.3125,2.5151325 9.3125,2.5097629 9.3125,2.5043933 10.254687,2.5 11.40625,2.5 H 13.5 V 4.80863 7.1172597 L 13.195313,7.2430862 C 12.716819,7.4406891 12.385819,7.5496722 11.901724,7.6690056 11.040093,7.8814047 10.364711,7.927105 9.7894281,7.8119362 Z M 2.5,4.5916172 V 2.5 H 4.80863 7.1172597 L 7.2430862,2.8046875 C 7.6392831,3.7640744 7.875,4.7842609 7.875,5.5396209 7.875,5.8479881 7.818979,6.2624006 7.7463112,6.4915862 L 7.7142997,6.5925478 7.5680875,6.5187425 C 7.3797384,6.4236678 6.8995678,6.2704806 6.5617519,6.197695 6.3411222,6.1501584 6.1533181,6.1407009 5.4375,6.1410806 4.6738306,6.1414869 4.5363625,6.1494884 4.203125,6.2129431 3.70206,6.3083556 3.3102163,6.4099725 2.8671875,6.5593928 L 2.5,6.6832341 Z"
       id="path825"
       inkscape:connector-curvature="0" />
    <path
       style="fill:#fefefe;stroke-width:0.000357143"
       d="M 1,14.5 V 14 H 1.5 2 V 14.5 15 H 1.5 1 Z m 6.46875,0 V 14 H 8.015625 8.5625 V 14.5 15 H 8.015625 7.46875 Z M 14,14.5 V 14 H 14.5 15 V 14.5 15 H 14.5 14 Z M 14,8.078125 V 7.53125 H 14.5 15 V 8.078125 8.625 H 14.5 14 Z M 1,7.984375 V 7.40625 H 1.5 2 V 7.984375 8.5625 H 1.5 1 Z M 7.7800006,8.4592894 C 7.6256797,8.3776825 7.5,8.1785416 7.5,8.015625 7.5,7.8527084 7.6256797,7.6535675 7.7800006,7.5719606 c 0.172095,-0.091006 0.2991538,-0.091006 0.4712488,0 0.1543209,0.081607 0.2800006,0.2807478 0.2800006,0.4436644 0,0.1629166 -0.1256797,0.3620575 -0.2800006,0.4436644 -0.172095,0.091006 -0.2991538,0.091006 -0.4712488,0 z M 1,1.5 V 1 H 1.5 2 V 1.5 2 H 1.5 1 Z m 6.4375,0 V 1 H 7.984375 8.53125 V 1.5 2 H 7.984375 7.4375 Z M 14,1.5 V 1 H 14.5 15 V 1.5 2 H 14.5 14 Z"
       id="path823"
       inkscape:connector-curvature="0" />
    <path
       style="fill:#cbe5fe;stroke-width:0.000357143"
       d="M 2,14.5 V 14 H 1.5 1 V 11.28125 8.5625 H 1.5 2 V 11.28125 14 h 2.71875 c 1.4953125,0 2.71875,-0.0057 2.71875,-0.01271 0,-0.007 -0.041832,-0.105948 -0.092961,-0.219904 C 7.2137575,13.475896 6.9507819,12.70448 6.8605156,12.347543 6.6987181,11.707752 6.6501194,11.354276 6.6344278,10.703125 6.611165,9.7377988 6.7155219,9.2105466 7.0704837,8.5 7.1778116,8.2851563 7.2700344,8.0996625 7.2754234,8.0877919 7.2949725,8.0447319 6.7501262,7.8088716 6.4491187,7.73009 6.0693497,7.6306947 5.3062709,7.595155 4.8216169,7.6542906 4.0276647,7.7511656 2.7749211,8.1320203 2.3415441,8.4082734 2.2629871,8.4583491 2.1540027,8.5082619 2.0993566,8.5191913 L 2,8.5390625 V 7.9919897 7.4449169 L 2.2578125,7.3342613 C 2.6066113,7.1845538 3.2938609,6.9512819 3.65625,6.8595928 4.2917303,6.6988075 4.6466516,6.6500972 5.296875,6.6344278 c 0.6932738,-0.016707 1.0342738,0.019281 1.53125,0.1616003 0.2775381,0.079479 0.8477309,0.3344207 1.0161128,0.4543194 l 0.086565,0.061639 0.1244659,-0.241931 C 8.2027469,6.7833947 8.2615628,6.6066403 8.3266953,6.2543603 c 0.062537,-0.338239 0.062827,-1.0671031 6e-4,-1.5003497 C 8.2267906,4.0542822 7.9720169,3.1840147 7.6519325,2.4470774 7.5683697,2.2546887 7.5,2.0753918 7.5,2.0486399 7.5,2.0065853 7.5698097,2 8.015625,2 H 8.53125 V 1.5 1 H 11.265625 14 V 1.5 2 H 14.5 15 V 4.765625 7.53125 H 14.5 14 v 0.5134191 0.513419 L 13.601563,8.7129575 C 12.887787,8.9903963 12.279788,9.16438 11.601732,9.2852253 11.095333,9.3754775 10.137181,9.3993841 9.703125,9.3325972 9.1492606,9.2473756 8.6122025,9.0569953 8.1966709,8.7985781 l -0.1314543,-0.081751 -0.1271929,0.26278 c -0.2098662,0.4335838 -0.286504,0.7888841 -0.304354,1.4110179 -0.017371,0.605434 0.027373,1.016355 0.1771397,1.626824 0.1045769,0.426272 0.2986875,1.004228 0.4421025,1.316343 C 8.4547175,13.772982 8.5,13.884333 8.5,13.941388 8.5,13.996336 8.4677641,14 7.984375,14 H 7.46875 V 14.5 15 H 4.734375 2 Z M 8.2512494,8.4592894 C 8.4055703,8.3776825 8.53125,8.1785416 8.53125,8.015625 c 0,-0.1629166 -0.1256797,-0.3620575 -0.2800006,-0.4436644 -0.172095,-0.091006 -0.2991538,-0.091006 -0.4712488,0 C 7.6256797,7.6535675 7.5,7.8527084 7.5,8.015625 c 0,0.1629166 0.1256797,0.3620575 0.2800006,0.4436644 0.172095,0.091006 0.2991538,0.091006 0.4712488,0 z m 2.9947396,-0.131995 c 0.679676,-0.097623 1.478942,-0.3276338 2.226429,-0.6407147 0.199673,-0.083632 0.400064,-0.1613503 0.445312,-0.1727069 L 14,7.4932244 V 4.7466122 2 H 11.277907 C 8.6977481,2 8.5569797,2.0028516 8.5781834,2.0546875 9.1310319,3.4062153 9.3752291,4.4747953 9.3748156,5.5406631 9.3744688,6.4372444 9.1917931,7.1694166 8.8200094,7.7643622 8.7667406,7.849605 8.7302213,7.9307791 8.738855,7.9447491 c 0.020573,0.033287 0.36364,0.2060296 0.5251188,0.2644097 0.4456415,0.161114 1.3199682,0.2132275 1.9820152,0.1181356 z M 8.5625,14.5 V 14 H 11.28125 14 V 11.3125 8.625 H 14.5 15 V 11.3125 14 H 14.5 14 V 14.5 15 H 11.28125 8.5625 Z M 1,4.703125 V 2 H 1.5 2 V 1.5 1 H 4.71875 7.4375 V 1.5 2 H 4.71875 2 V 4.703125 7.40625 H 1.5 1 Z"
       id="path821"
       inkscape:connector-curvature="0" />
    <path
       style="fill:#0032fe;stroke-width:0.000357143"
       d="M 0.79532572,15.456152 C 0.66945575,15.401184 0.53812687,15.24151 0.51577687,15.116267 c -0.009878,-0.05535 -0.0139532,-3.295315 -0.009056,-7.1999148 l 0.008904,-7.09927261 0.0644309,-0.0862964 c 0.035437,-0.047463 0.10326506,-0.11529031 0.15072906,-0.15072728 L 0.81708316,0.515625 H 8 15.182917 l 0.0863,0.0644309 c 0.04746,0.035437 0.115292,0.10326506 0.150729,0.15072906 l 0.06443,0.0862982 V 8 15.182917 l -0.06443,0.0863 c -0.03544,0.04746 -0.103264,0.115292 -0.150727,0.150729 l -0.0863,0.06443 -7.1461472,0.0067 c -5.8935122,0.0055 -7.16285264,-5.98e-4 -7.24144708,-0.03492 z M 15,8 V 1 H 8 1 v 7 7 h 7 7 z M 2,11.269531 V 8.5390625 L 2.099357,8.5191915 C 2.1540027,8.5082619 2.2629871,8.4583491 2.3415441,8.4082734 2.7749211,8.1320203 4.0276647,7.7511656 4.8216169,7.6542906 5.3062709,7.595155 6.0693497,7.6306947 6.4491187,7.73009 6.7501262,7.8088716 7.2949725,8.0447319 7.2754234,8.0877919 7.2700344,8.0996625 7.1778116,8.2851562 7.0704838,8.5 6.7155219,9.2105466 6.611165,9.7377987 6.6344278,10.703125 c 0.015692,0.651151 0.06429,1.004627 0.2260878,1.644418 0.090266,0.356937 0.3532419,1.128353 0.4840235,1.419841 C 7.3956675,13.88134 7.4375,13.980297 7.4375,13.987288 7.4375,13.99428 6.2140625,14 4.71875,14 H 2 Z m 4.5593928,1.863282 C 6.4110481,12.692972 6.3082637,12.297358 6.2163628,11.8125 6.1234634,11.322375 6.0961741,10.10681 6.1676041,9.640625 6.2208072,9.2933981 6.3381353,8.8633938 6.4575106,8.578125 6.5879194,8.26649 6.6028047,8.2960438 6.27623,8.2182069 5.4146444,8.0128534 4.2550944,8.1702403 3.0232933,8.6597309 2.8556359,8.7263544 2.6694819,8.8125919 2.6096177,8.8513697 L 2.5007737,8.921875 2.5003868,11.210938 2.5,13.5 H 4.5916172 6.6832341 Z M 8.5,13.941388 C 8.5,13.884333 8.4547175,13.772982 8.2529119,13.333792 8.1094969,13.021678 7.9153863,12.443721 7.8108094,12.017449 7.6610428,11.40698 7.6162991,10.996059 7.6336697,10.390625 7.6515197,9.7684916 7.7281575,9.4131913 7.9380237,8.9796075 l 0.1271929,-0.26278 0.1314543,0.081751 C 8.8235472,9.1884297 9.5540363,9.3744647 10.459337,9.3748156 11.525205,9.3752281 12.593785,9.1310319 13.945313,8.5781834 13.997148,8.5569797 14,8.6977481 14,11.277907 V 14 H 11.25 C 8.5816475,14 8.5,13.998259 8.5,13.941388 Z m 5,-2.535138 c 0,-1.151563 -0.0044,-2.09375 -0.0098,-2.09375 -0.0054,0 -0.135448,0.042814 -0.289062,0.095143 -0.403913,0.1375916 -1.03489,0.2997216 -1.4668,0.3768947 -0.47103,0.084163 -1.610663,0.1176847 -2.0634319,0.060694 C 9.3118438,9.8000319 8.8850694,9.6887309 8.5404922,9.550415 L 8.2841094,9.4475009 8.2160725,9.7315628 c -0.093806,0.3916522 -0.1126169,0.9590632 -0.047292,1.4265112 0.1101732,0.788366 0.3962641,1.717773 0.5972444,1.940234 0.063809,0.07063 0.1432153,0.189904 0.1764581,0.265055 L 9.0029247,13.5 H 11.251462 13.5 Z M 9.671875,8.3123397 C 9.5171875,8.2807738 9.3336319,8.2343425 9.2639738,8.2091588 9.102495,8.1507788 8.7594278,7.9780363 8.738855,7.9447491 8.7302213,7.9307791 8.7667406,7.849605 8.8200094,7.7643622 9.1917931,7.1694166 9.3744681,6.4372444 9.3748156,5.5406631 9.3752291,4.4747953 9.1310319,3.4062153 8.5781834,2.0546875 8.5569797,2.0028515 8.6977481,2 11.277907,2 H 14 v 2.7466122 2.7466122 l -0.08227,0.020648 c -0.04525,0.011357 -0.245639,0.089075 -0.445312,0.1727069 -0.747487,0.3130809 -1.546753,0.5430912 -2.226429,0.6407147 -0.460515,0.066145 -1.211656,0.059009 -1.574114,-0.014954 z m 1.449114,-0.4850453 c 0.648683,-0.093172 1.392674,-0.3027081 2.074324,-0.5842082 L 13.5,7.1172597 V 4.80863 2.5 h -2.09375 c -1.151563,0 -2.09375,0.00439 -2.09375,0.00976 0,0.00537 0.042814,0.1354477 0.095143,0.2890625 0.1375916,0.4039124 0.2997216,1.0348899 0.3768947,1.4667996 0.084163,0.4710303 0.1176847,1.6106634 0.060694,2.0634319 -0.04529,0.3598122 -0.1565506,0.7859978 -0.2956778,1.1325947 -0.057076,0.1421897 -0.091411,0.2661681 -0.076299,0.2755078 0.015112,0.00934 0.1573897,0.042989 0.3161728,0.074777 0.3619463,0.07246 0.8914863,0.078568 1.3315613,0.015358 z M 2,4.71875 V 2 h 2.75 c 2.4679594,0 2.75,0.00499 2.75,0.04864 0,0.026752 0.06837,0.2060488 0.1519325,0.3984375 0.3200844,0.7369373 0.5748581,1.6072048 0.6753619,2.3069332 0.062228,0.4332466 0.061938,1.1621106 -6e-4,1.5003497 -0.065132,0.35228 -0.1239485,0.5290344 -0.2714269,0.8156956 L 7.9308016,7.3119869 7.8442369,7.2503475 C 7.6758559,7.1304487 7.1056631,6.8755072 6.828125,6.7960281 6.3311487,6.6537084 5.9901488,6.6177209 5.296875,6.6344278 4.6457237,6.6501194 4.2922484,6.6987181 3.6524569,6.8605156 3.2955197,6.9507819 2.5241041,7.2137575 2.2326161,7.3445391 2.1186604,7.3956675 2.0197035,7.4375 2.012712,7.4375 2.0057204,7.4375 2,6.2140625 2,4.71875 Z M 3.53125,6.3599509 C 4.2844303,6.16815 4.5159375,6.1415691 5.4375,6.1410806 c 0.7158181,-3.781e-4 0.9036222,0.00908 1.1242519,0.056614 0.3378159,0.072786 0.8179865,0.2259728 1.0063356,0.3210475 l 0.1462122,0.073805 0.032012,-0.1009616 C 8.0229778,5.6190087 7.8342294,4.2361344 7.2430862,2.8046875 L 7.1172597,2.5 H 4.80863 2.5 V 4.5916172 6.6832341 L 2.8671875,6.5593928 C 3.0691406,6.4912803 3.3679688,6.4015313 3.53125,6.3599509 Z"
       id="path819"
       inkscape:connector-curvature="0" />
  </g>
</svg>
