<?xml version="1.0" encoding="UTF-8" standalone="no"?>
<!-- Created with Inkscape (http://www.inkscape.org/) -->

<svg
   version="1.1"
   id="svg2"
   width="1600"
   height="1600"
   viewBox="0 0 1600 1600"
   sodipodi:docname="mod_hue_saturation.svg"
   inkscape:version="1.2.2 (732a01da63, 2022-12-09)"
   xmlns:inkscape="http://www.inkscape.org/namespaces/inkscape"
   xmlns:sodipodi="http://sodipodi.sourceforge.net/DTD/sodipodi-0.dtd"
   xmlns="http://www.w3.org/2000/svg"
   xmlns:svg="http://www.w3.org/2000/svg"
   xmlns:rdf="http://www.w3.org/1999/02/22-rdf-syntax-ns#"
   xmlns:cc="http://creativecommons.org/ns#"
   xmlns:dc="http://purl.org/dc/elements/1.1/">
  <metadata
     id="metadata8">
    <rdf:RDF>
      <cc:Work
         rdf:about="">
        <dc:format>image/svg+xml</dc:format>
        <dc:type
           rdf:resource="http://purl.org/dc/dcmitype/StillImage" />
      </cc:Work>
    </rdf:RDF>
  </metadata>
  <defs
     id="defs6" />
  <sodipodi:namedview
     pagecolor="#808080"
     bordercolor="#666666"
     borderopacity="1"
     objecttolerance="10"
     gridtolerance="10"
     guidetolerance="10"
     inkscape:pageopacity="0"
     inkscape:pageshadow="2"
     inkscape:window-width="1993"
     inkscape:window-height="1009"
     id="namedview4"
     showgrid="false"
     inkscape:zoom="0.5"
     inkscape:cx="255"
     inkscape:cy="422"
     inkscape:window-x="-8"
     inkscape:window-y="-8"
     inkscape:window-maximized="1"
     inkscape:current-layer="MOD_HUE_SATURATION"
     inkscape:showpageshadow="0"
     inkscape:pagecheckerboard="true"
     inkscape:deskcolor="#d1d1d1" />
  <g
     id="MOD_HUE_SATURATION"
     transform="matrix(100,0,0,100,0,4.9999997e-5)"
     style="stroke-width:0.0114286">
    <path
       style="fill:none;stroke-width:0.000357143"
       d="M 0,8 V 0 h 8 8 v 8 8 H 8 0 Z m 13.973271,6.937973 c 0.254673,-0.07954 0.398932,-0.168824 0.609485,-0.37723 0.58026,-0.574344 0.580632,-1.546774 8.09e-4,-2.120684 -0.340741,-0.337266 -0.650543,-0.453957 -1.155348,-0.435176 -0.290492,0.01081 -0.340541,0.02217 -0.562858,0.127817 -0.792595,0.376638 -1.093247,1.296514 -0.686365,2.099998 0.154046,0.304199 0.528979,0.605863 0.89913,0.723421 0.200065,0.06354 0.663686,0.05414 0.895145,-0.01815 z m -0.715744,-1.029714 c -0.302009,-0.189593 -0.302009,-0.626925 0,-0.816518 0.0799,-0.05016 0.140651,-0.06145 0.281883,-0.05238 0.15449,0.0099 0.195591,0.02663 0.289666,0.117814 0.0603,0.05844 0.123964,0.159487 0.141482,0.224543 0.04427,0.164404 -0.0067,0.330458 -0.141482,0.461113 -0.09408,0.09118 -0.135176,0.107898 -0.289666,0.117814 -0.141232,0.0091 -0.201986,-0.0022 -0.281883,-0.05238 z m -2.513788,0.04784 c 0.367741,-0.191335 0.367741,-0.720853 0,-0.912188 C 10.672367,13.006771 9.9397688,13 5.9931809,13 H 1.3270084 l -0.112163,0.07622 c -0.28718721,0.195149 -0.28718721,0.652417 0,0.847566 L 1.3270084,14 h 4.6661725 c 3.9465878,0 4.6791861,-0.0068 4.7505581,-0.04391 z M 9.9732706,9.9379734 C 10.227944,9.8584356 10.372203,9.7691494 10.582756,9.5607428 11.163016,8.9863994 11.163388,8.0139688 10.583565,7.4400594 10.242824,7.1027925 9.9330222,6.9861016 9.4282172,7.0048825 9.137725,7.01569 9.0876763,7.0270553 8.8653588,7.1327 8.0727641,7.5093384 7.7721119,8.4292138 8.1789944,9.2326981 8.3330403,9.5368972 8.7079734,9.8385609 9.0781238,9.9561194 9.2781894,10.01966 9.7418097,10.010261 9.9732694,9.9379734 Z M 9.2575269,8.9082588 c -0.3020091,-0.1895932 -0.3020091,-0.6269244 0,-0.8165175 0.079897,-0.050157 0.1406509,-0.061447 0.2818831,-0.052383 0.15449,0.00992 0.1955909,0.026632 0.2896663,0.1178138 0.060297,0.058442 0.123964,0.1594866 0.1414818,0.2245431 0.04427,0.1644041 -0.00668,0.3304578 -0.1414818,0.4611125 C 9.7350009,8.9340097 9.6939,8.9507263 9.53941,8.9606416 9.3981778,8.9697059 9.3374238,8.9584166 9.2575269,8.9082588 Z m -2.5137875,0.047835 c 0.3677403,-0.191335 0.3677403,-0.7208532 0,-0.9121882 C 6.6731928,8.0072006 6.2221031,8 3.9931809,8 H 1.3270084 l -0.112163,0.076217 c -0.28718721,0.1951487 -0.28718721,0.6524175 0,0.8475662 L 1.3270084,9 H 3.9931809 C 6.2221031,9 6.6731928,8.9928 6.7437394,8.9560938 Z m 7.9999996,0 c 0.367741,-0.191335 0.367741,-0.7208532 0,-0.9121882 C 14.675671,8.00849 14.433854,8 13.493181,8 H 12.327008 L 12.214845,8.076217 C 12.078741,8.1687022 12,8.3240184 12,8.5 c 0,0.1759816 0.07874,0.3312978 0.214845,0.4237831 L 12.327008,9 h 1.166173 c 0.940673,0 1.18249,-0.00849 1.250558,-0.043906 z M 2.9732708,4.9379734 C 3.2279441,4.8584356 3.3722025,4.7691494 3.5827559,4.5607428 4.1630156,3.9863994 4.1633875,3.0139687 3.5835653,2.4400595 3.2428253,2.1027925 2.9330233,1.9861015 2.4282185,2.0048824 2.1377263,2.0156899 2.0876774,2.0270553 1.8653599,2.1327 1.0727654,2.5093384 0.77211303,3.4292138 1.1789957,4.2326981 1.3330414,4.5368972 1.7079748,4.8385609 2.078125,4.9561194 c 0.2000655,0.06354 0.663686,0.054142 0.8951458,-0.018146 z M 2.2575269,3.9082588 c -0.3020091,-0.1895932 -0.3020091,-0.6269244 0,-0.8165176 C 2.3374238,3.041584 2.3981777,3.030294 2.5394101,3.0393585 2.6939,3.0492739 2.7350008,3.0659905 2.8290764,3.1571722 2.9638777,3.2878269 3.0148276,3.4538806 2.9705583,3.6182847 2.9530404,3.6833413 2.8893735,3.7843856 2.8290764,3.8428278 2.7350008,3.9340097 2.6939,3.9507262 2.5394101,3.9606416 2.3981777,3.9697059 2.3374238,3.9584166 2.2575269,3.9082588 Z m 12.4862121,0.047835 c 0.367741,-0.191335 0.367741,-0.7208532 0,-0.9121883 C 14.672367,3.0067708 13.939769,3 9.9931809,3 H 5.3270084 L 5.2148453,3.076217 c -0.2871872,0.1951489 -0.2871872,0.6524177 0,0.8475664 L 5.3270084,4 H 9.9931809 C 13.939769,4 14.672367,3.99323 14.743739,3.9560938 Z"
       id="path823"
       inkscape:connector-curvature="0" />
    <path
       style="fill:#cbe5fe;stroke-width:0.000357143"
       d="M 1.2148454,13.923783 C 1.0787406,13.831298 1,13.675982 1,13.5 1,13.324018 1.0787406,13.168702 1.2148454,13.076217 L 1.3270084,13 h 4.6661725 c 3.9465878,0 4.6791861,0.0068 4.7505581,0.04391 0.367741,0.191335 0.367741,0.720853 0,0.912188 C 10.672367,13.993229 9.9397688,14 5.9931809,14 H 1.3270084 Z m 0,-4.9999999 C 1.0787406,8.8312978 1,8.6759816 1,8.5 1,8.3240184 1.0787406,8.1687022 1.2148454,8.0762169 L 1.3270084,8 h 2.6661725 c 2.2289222,0 2.6800119,0.0072 2.7505585,0.043906 0.3677403,0.191335 0.3677403,0.7208532 0,0.9121882 C 6.6731928,8.9927994 6.2221031,9 3.9931809,9 H 1.3270084 Z m 10.9999996,0 C 12.078741,8.8312978 12,8.6759816 12,8.5 12,8.3240184 12.078741,8.1687022 12.214845,8.0762169 L 12.327008,8 h 1.166173 c 0.940673,0 1.18249,0.00849 1.250558,0.043906 0.367741,0.191335 0.367741,0.7208532 0,0.9121882 C 14.675671,8.99151 14.433854,9 13.493181,9 h -1.166173 z m -6.9999997,-5 c -0.2871872,-0.1951487 -0.2871872,-0.6524175 0,-0.8475664 L 5.3270084,3 h 4.6661725 c 3.9465881,0 4.6791861,0.00677 4.7505581,0.043906 0.367741,0.1913351 0.367741,0.7208533 0,0.9121883 C 14.672367,3.9932291 13.939769,4 9.9931809,4 H 5.3270084 Z"
       id="path821"
       inkscape:connector-curvature="0" />
    <path
       style="fill:#6598fe;stroke-width:0.000357143"
       d="M 13.078125,14.956119 C 12.423988,14.748368 12,14.175729 12,13.5 c 0,-0.599757 0.322515,-1.109342 0.86536,-1.3673 0.222318,-0.105645 0.272366,-0.11701 0.562858,-0.127818 0.504805,-0.01878 0.814607,0.09791 1.155349,0.435177 0.57982,0.57391 0.579449,1.54634 -8.1e-4,2.120684 -0.210553,0.208406 -0.354812,0.297693 -0.609485,0.37723 -0.23146,0.07229 -0.69508,0.08169 -0.895146,0.01815 z m 0.750951,-1.113291 c 0.0603,-0.05844 0.123964,-0.159487 0.141482,-0.224543 0.04427,-0.164404 -0.0067,-0.330458 -0.141482,-0.461113 -0.09408,-0.09118 -0.135176,-0.107898 -0.289666,-0.117814 -0.141232,-0.0091 -0.201986,0.0022 -0.281883,0.05238 -0.302009,0.189593 -0.302009,0.626925 0,0.816518 0.0799,0.05016 0.140651,0.06145 0.281883,0.05238 0.15449,-0.0099 0.195591,-0.02663 0.289666,-0.117814 z M 9.078125,9.9561194 C 8.4239875,9.7483678 8,9.1757287 8,8.5 8,7.9002431 8.3225147,7.3906584 8.86536,7.1327 9.0876775,7.0270553 9.1377263,7.01569 9.4282184,7.0048825 c 0.504805,-0.018781 0.8146066,0.09791 1.1553486,0.4351769 0.57982,0.5739094 0.579449,1.54634 -8.1e-4,2.1206834 -0.210553,0.2084066 -0.354812,0.2976928 -0.6094851,0.3772306 -0.2314597,0.072288 -0.69508,0.081687 -0.8951456,0.018146 z M 9.8290763,8.8428278 C 9.8893734,8.7843856 9.9530403,8.6833413 9.9705581,8.6182847 10.014828,8.4538806 9.9638778,8.2878269 9.8290763,8.1571722 9.7350009,8.0659903 9.6939,8.0492737 9.53941,8.0393584 c -0.1412322,-0.00906 -0.2019862,0.00223 -0.2818831,0.052383 -0.3020091,0.1895932 -0.3020091,0.6269244 0,0.8165175 0.079897,0.050157 0.1406509,0.061447 0.2818831,0.052383 0.15449,-0.00992 0.1955909,-0.026632 0.2896663,-0.1178141 z M 2.078125,4.9561194 C 1.4239874,4.7483678 1,4.1757287 1,3.5 1,2.9002431 1.3225145,2.3906584 1.8653599,2.1327 2.0876774,2.0270553 2.1377263,2.0156899 2.4282185,2.0048824 2.9330233,1.9861015 3.2428253,2.1027925 3.5835666,2.4400595 4.1633875,3.0139687 4.1630156,3.9863994 3.5827572,4.5607428 3.3722037,4.7691494 3.2279453,4.8584356 2.973272,4.9379734 2.7418123,5.0102612 2.2781918,5.0196597 2.0781263,4.9561194 Z M 2.8290764,3.8428278 C 2.9638777,3.7121731 3.0148276,3.5461194 2.9705583,3.3817153 2.9530404,3.3166588 2.8893735,3.2156144 2.8290764,3.1571722 2.7350008,3.0659905 2.6939,3.0492739 2.5394101,3.0393585 c -0.1412324,-0.00906 -0.2019863,0.00223 -0.2818832,0.052383 -0.3020091,0.1895932 -0.3020091,0.6269244 0,0.8165176 0.079897,0.050157 0.1406508,0.061447 0.2818832,0.052383 C 2.6939,3.9507263 2.7350008,3.9340097 2.8290764,3.8428278 Z"
       id="path819"
       inkscape:connector-curvature="0" />
  </g>
</svg>
