<?xml version="1.0" encoding="UTF-8" standalone="no"?>
<!-- Created with Inkscape (http://www.inkscape.org/) -->

<svg
   version="1.1"
   id="svg2"
   width="1600"
   height="1600"
   viewBox="0 0 1600 1600"
   sodipodi:docname="mod_subsurf.svg"
   inkscape:version="1.2.2 (732a01da63, 2022-12-09)"
   xmlns:inkscape="http://www.inkscape.org/namespaces/inkscape"
   xmlns:sodipodi="http://sodipodi.sourceforge.net/DTD/sodipodi-0.dtd"
   xmlns="http://www.w3.org/2000/svg"
   xmlns:svg="http://www.w3.org/2000/svg"
   xmlns:rdf="http://www.w3.org/1999/02/22-rdf-syntax-ns#"
   xmlns:cc="http://creativecommons.org/ns#"
   xmlns:dc="http://purl.org/dc/elements/1.1/">
  <metadata
     id="metadata8">
    <rdf:RDF>
      <cc:Work
         rdf:about="">
        <dc:format>image/svg+xml</dc:format>
        <dc:type
           rdf:resource="http://purl.org/dc/dcmitype/StillImage" />
      </cc:Work>
    </rdf:RDF>
  </metadata>
  <defs
     id="defs6" />
  <sodipodi:namedview
     pagecolor="#808080"
     bordercolor="#666666"
     borderopacity="1"
     objecttolerance="10"
     gridtolerance="10"
     guidetolerance="10"
     inkscape:pageopacity="0"
     inkscape:pageshadow="2"
     inkscape:window-width="1993"
     inkscape:window-height="1009"
     id="namedview4"
     showgrid="false"
     inkscape:zoom="0.5"
     inkscape:cx="563"
     inkscape:cy="536"
     inkscape:window-x="-8"
     inkscape:window-y="-8"
     inkscape:window-maximized="1"
     inkscape:current-layer="MOD_SUBSURF"
     inkscape:showpageshadow="0"
     inkscape:pagecheckerboard="true"
     inkscape:deskcolor="#d1d1d1" />
  <g
     id="MOD_SUBSURF"
     transform="matrix(100,0,0,100,0,4.9999997e-5)"
     style="stroke-width:0.0114286">
    <path
       style="fill:none;stroke-width:0.000357143"
       d="M 0,8 V 0 h 8 8 v 8 8 H 8 0 Z m 11.256438,5.965757 c 1.665124,-0.831948 3.061155,-1.547788 3.102292,-1.590757 0.04114,-0.04297 0.08975,-0.117712 0.108032,-0.166097 0.02288,-0.06055 0.03302,-1.356211 0.03255,-4.1562499 C 14.498636,4.0273534 14.497954,3.9828894 14.434972,3.84375 14.399961,3.7664063 14.333473,3.6629722 14.28722,3.6138966 14.232959,3.5563234 13.141392,2.9936858 11.210359,2.027959 L 8.2175931,0.53125 H 8.015625 7.8136569 L 4.8208909,2.027959 C 2.8898582,2.9936858 1.7982908,3.5563234 1.7440297,3.6138966 1.6977773,3.6629722 1.6312893,3.7664063 1.5962785,3.84375 c -0.062983,0.1391394 -0.063663,0.1836034 -0.064342,4.2089031 -4.737e-4,2.8073439 0.00964,4.0955439 0.032645,4.1562499 0.018332,0.04839 0.064036,0.12113 0.1015625,0.161657 0.059525,0.06428 5.8267712,2.974926 6.1151059,3.086203 0.060253,0.02325 0.1853459,0.03759 0.2785328,0.03192 0.1515275,-0.0092 0.4846953,-0.167945 3.1966553,-1.522924 z"
       id="path827"
       inkscape:connector-curvature="0" />
    <path
       style="fill:#fefe00;stroke-width:0.000357143"
       d="M 6.7066587,6.0661219 5.3982753,5.4132994 6.6991375,4.7655509 8,4.1178022 9.296875,4.7635653 c 0.713281,0.3551697 1.296875,0.6515044 1.296875,0.6585216 0,0.00922 -2.4236331,1.2292381 -2.5605684,1.2889478 C 8.0232047,6.715385 7.4262694,6.4251744 6.7066587,6.0661219 Z M 3.5523641,4.4935144 C 2.8678833,4.1501578 2.3124145,3.8650503 2.3179892,3.8599419 2.3235639,3.8548331 2.9064088,3.5616828 3.6132,3.2084966 L 4.898275,2.5663395 6.1360197,3.1816072 C 6.8167794,3.5200044 7.3740425,3.8066941 7.3743822,3.8186953 7.3748728,3.8360669 4.8802916,5.0979756 4.8145984,5.1135869 4.8048506,5.1159025 4.236845,4.8368706 3.5523641,4.4935144 Z M 9.9070597,4.4833428 C 9.2114113,4.1342391 8.6386572,3.8369684 8.6342728,3.8227419 8.6298884,3.808515 9.1868506,3.5182784 9.8719669,3.1777713 l 1.2456651,-0.6191036 1.305826,0.6530607 1.305825,0.6530607 -1.260394,0.6301056 C 11.775672,4.8414525 11.200256,5.1234422 11.190185,5.1215384 11.180115,5.1196353 10.602708,4.8324466 9.9070597,4.4833428 Z M 6.7370763,2.8978979 5.4897775,2.2708939 6.7214513,1.6527728 C 7.3988719,1.3128062 7.9776878,1.0338863 8.0077088,1.0329508 8.0377297,1.0320155 8.6167634,1.3083795 9.2944503,1.6470933 L 10.526608,2.2629367 9.2568691,2.8970933 C 8.5585125,3.2458794 7.98651,3.5298216 7.9857525,3.5280759 7.9849963,3.5263291 7.4230906,3.24275 6.7370763,2.8978979 Z"
       id="path825"
       inkscape:connector-curvature="0" />
    <path
       style="fill:#fe9832;stroke-width:0.000357143"
       d="M 6.3671875,14.185725 5,13.499859 V 11.657187 C 5,9.8894488 5.00231,9.8154263 5.056741,9.8369444 5.087949,9.8492814 5.7064695,10.154688 6.4312317,10.515625 l 1.317749,0.65625 5.094e-4,1.851563 c 2.813e-4,1.018359 -0.00301,1.850795 -0.0073,1.849857 -0.0043,-9.37e-4 -0.6230469,-0.310344 -1.375,-0.68757 z M 3.2265625,12.615617 2.03125,12.016005 V 10.167696 8.3193878 L 3.25,8.9278306 4.46875,9.5362734 v 1.8412386 c 0,1.012681 -0.010547,1.840446 -0.023437,1.839478 C 4.432422,13.216021 3.8839849,12.945404 3.2265625,12.615617 Z M 6.3671875,9.900705 5,9.2141319 V 7.5143228 C 5,5.8846159 5.00234,5.8154391 5.056741,5.8369444 5.087949,5.8492814 5.7064695,6.1546875 6.4312317,6.515625 l 1.317749,0.65625 5.094e-4,1.7109375 c 2.813e-4,0.9410156 -0.00301,1.7094815 -0.0073,1.7077015 -0.0043,-0.0018 -0.6230469,-0.312194 -1.375,-0.689809 z M 3.3278784,8.3771403 C 2.709264,8.0689422 2.1644531,7.8021028 2.1171875,7.7841637 L 2.03125,7.7515469 V 6.0354672 4.3193878 L 3.25,4.9278306 4.46875,5.5362734 V 7.2368869 C 4.46875,8.1722241 4.46512,8.9375 4.46069,8.9375 4.45626,8.9375 3.9464919,8.6853381 3.3278784,8.3771403 Z"
       id="path823"
       inkscape:connector-curvature="0" />
    <path
       style="fill:#cb6500;stroke-width:0.000357143"
       d="M 8.2819341,13.02339 8.2826184,11.171875 9.6413091,10.49573 11,9.8195841 v 1.8481879 1.848187 L 9.640625,14.195432 8.28125,14.874906 8.2819344,13.02339 Z m 3.2498759,-1.625004 5.6e-4,-1.851511 1.210377,-0.6015631 c 0.665707,-0.3308597 1.220924,-0.6015628 1.233815,-0.6015625 0.01289,3e-7 0.02344,0.8262553 0.02344,1.8361226 v 1.836121 l -1.234375,0.616952 -1.234375,0.616951 5.59e-4,-1.85151 z M 8.2819341,8.8797494 8.2826184,7.171875 9.6413091,6.4957297 11,5.8195841 10.999274,7.5269797 10.998548,9.234375 9.6398988,9.9109994 8.28125,10.587624 8.2819344,8.8797494 Z M 11.53181,7.2552628 11.53237,5.546875 12.742747,4.9453119 c 0.665707,-0.3308597 1.220924,-0.6015628 1.233815,-0.6015625 0.01289,3e-7 0.02313,0.7628912 0.02276,1.6953131 l -6.81e-4,1.6953125 -1.233694,0.6146378 -1.233693,0.6146378 5.59e-4,-1.7083878 z"
       id="path821"
       inkscape:connector-curvature="0" />
    <path
       style="fill:#320000;stroke-width:0.000357143"
       d="M 7.78125,15.456763 C 7.4929153,15.345486 1.7256692,12.434844 1.6661441,12.37056 1.6286172,12.330033 1.582914,12.257288 1.5645816,12.208903 1.5415809,12.148198 1.5314627,10.859997 1.5319363,8.0526531 1.5326154,4.0273534 1.5332951,3.9828894 1.5962785,3.84375 1.6312893,3.7664063 1.6977773,3.6629722 1.7440297,3.6138966 1.7982908,3.5563234 2.8898582,2.9936858 4.8208909,2.027959 L 7.8136569,0.53125 H 8.015625 8.2175931 l 2.9927659,1.496709 c 1.931033,0.9657268 3.0226,1.5283644 3.076861,1.5859376 0.04625,0.049076 0.112741,0.1525096 0.147752,0.2298534 0.06298,0.1391394 0.06366,0.1836034 0.06434,4.2089031 4.72e-4,2.8000389 -0.0097,4.0957029 -0.03255,4.1562499 -0.01828,0.04839 -0.06689,0.123128 -0.108032,0.166097 -0.04114,0.04297 -1.437168,0.758809 -3.102292,1.590757 -2.7119599,1.354979 -3.0451277,1.513704 -3.1966552,1.522924 -0.093187,0.0057 -0.2182794,-0.0087 -0.2785328,-0.03192 z M 7.749491,13.023438 7.7489816,11.171875 6.4312326,10.515625 C 5.7064697,10.154688 5.0879491,9.8492813 5.0567412,9.8369444 5.0023075,9.8154263 5,9.8894488 5,11.657187 v 1.842672 l 1.3671875,0.685866 c 0.7519531,0.377226 1.3707031,0.686633 1.375,0.68757 0.0043,9.38e-4 0.00758,-0.831498 0.0073,-1.849857 z M 11,11.667772 V 9.8195841 L 9.6413091,10.49573 8.2826184,11.171875 8.2819341,13.02339 8.2812497,14.874906 9.6406247,14.195432 11,13.515959 Z m 3,-1.4879 c 0,-1.0098673 -0.01055,-1.8361223 -0.02344,-1.8361226 -0.01289,-3e-7 -0.568108,0.2707028 -1.233815,0.6015625 l -1.210377,0.6015631 -5.6e-4,1.851511 -5.59e-4,1.85151 1.234375,-0.616951 1.234375,-0.616952 v -1.836121 z m -9.53125,1.19764 V 9.5362734 L 3.25,8.9278306 2.03125,8.3193878 v 1.8483082 1.848309 l 1.1953125,0.599612 c 0.6574219,0.329787 1.2058594,0.600405 1.21875,0.601373 0.012891,9.69e-4 0.023437,-0.826797 0.023437,-1.839478 z M 7.7494906,8.8828125 7.7489812,7.171875 6.4312322,6.515625 C 5.7064697,6.1546875 5.0879491,5.8492812 5.0567412,5.8369444 5.00234,5.8154391 5,5.8846159 5,7.5143228 V 9.2141319 L 6.3671875,9.900705 c 0.7519531,0.377615 1.3707031,0.688029 1.375,0.689809 0.0043,0.0018 0.00758,-0.7666859 0.0073,-1.7077015 z M 10.999274,7.5269797 11,5.8195841 9.6413091,6.4957297 8.2826184,7.171875 8.2819341,8.8797494 8.28125,10.587624 9.6398988,9.9109994 10.998548,9.234375 10.999273,7.5269797 Z m 3.000045,-1.4879172 c 3.75e-4,-0.9324219 -0.0099,-1.6953128 -0.02276,-1.6953131 -0.01289,-3e-7 -0.568108,0.2707028 -1.233815,0.6015625 L 11.532371,5.546875 11.53181,7.2552628 11.53125,8.9636506 12.764944,8.3490128 13.998639,7.734375 13.99932,6.0390625 Z M 4.46875,7.2368869 V 5.5362734 L 3.25,4.9278306 2.03125,4.3193878 v 1.7160794 1.7160797 l 0.085937,0.032617 C 2.164453,7.8021029 2.709264,8.0689422 3.3278784,8.3771403 3.9464928,8.6853381 4.4562584,8.9375 4.4606909,8.9375 c 0.00443,0 0.00806,-0.7652759 0.00806,-1.7006131 z M 9.3225356,6.068985 C 10.021703,5.7202081 10.59375,5.4291041 10.59375,5.4220869 c 0,-0.00702 -0.583594,-0.3033519 -1.296875,-0.6585216 L 8,4.1178022 6.6991375,4.7655509 5.3982753,5.4132994 6.7066587,6.0661219 c 0.7196107,0.3590525 1.316546,0.6492631 1.3265229,0.6449128 0.00998,-0.00435 0.5901862,-0.2932725 1.289354,-0.6420497 z M 6.1036609,4.4749453 C 6.8028975,4.1260091 7.3747219,3.8306966 7.3743822,3.8186953 7.3740416,3.8066941 6.8167794,3.5200044 6.1360197,3.1816072 L 4.898275,2.5663395 3.6132,3.2084966 C 2.9064088,3.5616828 2.3235639,3.8548331 2.3179892,3.8599419 2.3053198,3.8715516 4.7903053,5.11936 4.8145984,5.1135869 4.8243466,5.1112713 5.4044247,4.8238816 6.1036609,4.4749453 Z M 12.468889,4.4948947 13.729283,3.8647891 12.423458,3.2117284 11.117633,2.5586677 9.8719669,3.1777713 C 9.1868506,3.5182784 8.6298884,3.808515 8.6342728,3.8227419 c 0.00662,0.021478 2.4991462,1.288065 2.5559122,1.2987965 0.01007,0.0019 0.585488,-0.2800859 1.278704,-0.6266437 z M 9.2568691,2.8970933 10.526608,2.2629367 9.2944503,1.6470933 C 8.6167634,1.3083795 8.0377297,1.0320154 8.0077088,1.0329508 7.9776878,1.0338865 7.3988719,1.3128062 6.7214513,1.6527728 l -1.2316738,0.6181211 1.2472988,0.627004 c 0.6860143,0.3448521 1.2479187,0.6284324 1.2486762,0.630178 7.563e-4,0.00175 0.57276,-0.2821965 1.2711166,-0.6309826 z"
       id="path819"
       inkscape:connector-curvature="0" />
  </g>
</svg>
