<?xml version="1.0" encoding="UTF-8" standalone="no"?>
<!-- Created with Inkscape (http://www.inkscape.org/) -->

<svg
   version="1.1"
   id="svg2"
   width="1600"
   height="1600"
   viewBox="0 0 1600 1600"
   sodipodi:docname="mod_screw.svg"
   inkscape:version="1.2.2 (732a01da63, 2022-12-09)"
   xmlns:inkscape="http://www.inkscape.org/namespaces/inkscape"
   xmlns:sodipodi="http://sodipodi.sourceforge.net/DTD/sodipodi-0.dtd"
   xmlns="http://www.w3.org/2000/svg"
   xmlns:svg="http://www.w3.org/2000/svg"
   xmlns:rdf="http://www.w3.org/1999/02/22-rdf-syntax-ns#"
   xmlns:cc="http://creativecommons.org/ns#"
   xmlns:dc="http://purl.org/dc/elements/1.1/">
  <metadata
     id="metadata8">
    <rdf:RDF>
      <cc:Work
         rdf:about="">
        <dc:format>image/svg+xml</dc:format>
        <dc:type
           rdf:resource="http://purl.org/dc/dcmitype/StillImage" />
      </cc:Work>
    </rdf:RDF>
  </metadata>
  <defs
     id="defs6" />
  <sodipodi:namedview
     pagecolor="#808080"
     bordercolor="#666666"
     borderopacity="1"
     objecttolerance="10"
     gridtolerance="10"
     guidetolerance="10"
     inkscape:pageopacity="0"
     inkscape:pageshadow="2"
     inkscape:window-width="1993"
     inkscape:window-height="1009"
     id="namedview4"
     showgrid="false"
     inkscape:zoom="0.5"
     inkscape:cx="-3"
     inkscape:cy="8"
     inkscape:window-x="-8"
     inkscape:window-y="-8"
     inkscape:window-maximized="1"
     inkscape:current-layer="MOD_SCREW"
     inkscape:showpageshadow="0"
     inkscape:pagecheckerboard="true"
     inkscape:deskcolor="#d1d1d1" />
  <g
     id="MOD_SCREW"
     transform="matrix(100,0,0,100,0,4.9999997e-5)"
     style="stroke-width:0.0114286">
    <path
       style="fill:none;stroke-width:0.000357143"
       d="M 0,8 V 0 h 8 8 v 8 8 H 8 0 Z m 9.6440444,7.380211 c 0.2976656,-0.13956 0.5950036,-0.43785 0.7372246,-0.739586 l 0.103106,-0.21875 0.0095,-0.75 0.0095,-0.75 0.184874,-0.1875 c 0.299393,-0.303645 0.383703,-0.665454 0.248417,-1.066057 -0.04923,-0.145775 -0.10493,-0.228721 -0.25,-0.372277 C 10.539453,11.150373 10.5,11.091102 10.5,11.015625 c 0,-0.07548 0.03945,-0.134748 0.186658,-0.280416 0.300059,-0.296929 0.386067,-0.663973 0.25,-1.0668906 -0.04923,-0.1457759 -0.104931,-0.2287218 -0.25,-0.3722771 -0.251836,-0.2492076 -0.251836,-0.311625 0,-0.5608325 0.145069,-0.1435554 0.20077,-0.2265013 0.25,-0.3722772 0.12326,-0.3649947 0.04779,-0.7646769 -0.190191,-1.0071563 l -0.126692,-0.1290894 0.1198,-0.022009 c 0.221858,-0.040759 0.992466,-0.3050722 1.280415,-0.4391738 0.6513,-0.3033184 1.137895,-0.7223303 1.346705,-1.15966 L 13.484375,5.359375 V 4 2.640625 L 13.366695,2.3941573 C 13.225409,2.0982485 12.893018,1.7470842 12.535615,1.5161389 11.84227,1.0681151 10.733488,0.72689956 9.46875,0.57234506 c -0.6424297,-0.0785067 -2.2950703,-0.0785067 -2.9375,0 C 5.2665125,0.72689956 4.15773,1.0681151 3.4643847,1.5161389 3.1069823,1.7470842 2.7745911,2.0982485 2.6333048,2.3941573 L 2.515625,2.640625 V 4 5.359375 l 0.1176798,0.2464678 c 0.20881,0.4373297 0.6954055,0.8563416 1.3467049,1.15966 0.2980681,0.1388138 1.030985,0.3877519 1.3403028,0.4552388 L 5.5,7.2599456 v 0.414305 0.4143047 L 5.298645,8.2819062 C 5.1353584,8.4387022 5.0851394,8.5112381 5.03302,8.6655716 4.951493,8.9069875 4.951493,9.1242625 5.03302,9.3656784 5.085139,9.5200119 5.1353584,9.5925478 5.298645,9.7493437 5.4335331,9.8788697 5.5,9.9667687 5.5,10.015625 c 0,0.04886 -0.066467,0.136755 -0.201355,0.266281 -0.1632866,0.156796 -0.2135056,0.229332 -0.265625,0.383666 -0.035348,0.104672 -0.06427,0.262196 -0.06427,0.350053 0,0.08786 0.028922,0.245381 0.06427,0.350053 0.052119,0.154334 0.1023384,0.22687 0.265625,0.383666 C 5.4335331,11.87887 5.5,11.966769 5.5,12.015625 c 0,0.04886 -0.066467,0.136755 -0.201355,0.266281 -0.1632866,0.156796 -0.2135056,0.229332 -0.265625,0.383666 -0.081527,0.241416 -0.081527,0.458691 0,0.700106 0.05177,0.153299 0.1024206,0.226949 0.2604169,0.378665 l 0.1961465,0.188349 0.036639,0.259086 c 0.084568,0.598 0.4878522,1.082973 1.0519022,1.264976 0.095581,0.03084 0.4449334,0.03884 1.484375,0.03398 l 1.359375,-0.0064 z"
       id="path827"
       inkscape:connector-curvature="0" />
    <path
       style="fill:#fefefe;stroke-width:0.000357143"
       d="m 9,5.9655066 v -0.995566 l 0.070312,-0.013959 c 0.038672,-0.00768 0.2179693,-0.029808 0.398438,-0.04918 0.3473869,-0.037289 1.133808,-0.1862028 1.382813,-0.2618434 L 11,4.5998669 v 0.997715 0.997715 l -0.07303,0.027766 C 10.696041,6.7108622 9.6904734,6.8937922 9.1484375,6.9466087 L 9,6.9610728 Z M 5.40625,4.7144344 C 5.3460937,4.6979734 5.2206631,4.6629997 5.1275153,4.6367147 L 4.9581559,4.5889244 6.7368903,2.8076685 c 0.9783041,-0.9796907 1.812401,-1.7946519 1.8535485,-1.81102506 0.047348,-0.0188402 0.1104478,-0.0188565 0.171875,-4.375e-5 0.053384,0.0163487 0.1754743,0.0385708 0.2713121,0.0493823 L 9.2078772,1.0656394 7.3617509,2.9077518 C 6.3463819,3.9209131 5.515625,4.7486262 5.515625,4.7471134 c 0,-0.00151 -0.049219,-0.016218 -0.109375,-0.032679 z"
       id="path825"
       inkscape:connector-curvature="0" />
    <path
       style="fill:#fefe00;stroke-width:0.000357143"
       d="M 5.828125,13.493696 C 5.5826253,13.408277 5.4261887,13.117961 5.5003972,12.885497 5.58977,12.605531 5.7367472,12.535227 6.6875,12.317663 c 0.077344,-0.0177 0.1652344,-0.04167 0.1953125,-0.05326 0.050766,-0.01957 0.054687,0.01702 0.054687,0.510392 v 0.531476 l -0.1640625,0.03563 c -0.1591675,0.03457 -0.3718297,0.08661 -0.6364381,0.155746 -0.1518028,0.03966 -0.1847488,0.03924 -0.3088744,-0.0039 z m 2.1476819,-0.984744 0.00857,-0.522299 0.109375,-0.02669 c 0.060156,-0.01468 0.1867188,-0.04614 0.28125,-0.06992 0.094531,-0.02378 0.2703125,-0.06597 0.390625,-0.09376 0.2063231,-0.04767 0.3283225,-0.07746 0.7578125,-0.185051 0.098828,-0.02476 0.2452763,-0.0614 0.3254403,-0.08143 0.3739273,-0.09344 0.7322083,0.262808 0.6194753,0.615952 -0.08216,0.257354 -0.203605,0.32606 -0.8746031,0.494779 -0.1117187,0.02809 -0.2746734,0.07124 -0.3621216,0.0959 -0.087448,0.02465 -0.1846497,0.04482 -0.2160034,0.04482 -0.031354,0 -0.1285553,0.02017 -0.2160034,0.04482 -0.087448,0.02465 -0.2433716,0.06578 -0.3464966,0.09139 -0.103125,0.02561 -0.2453816,0.06169 -0.3161256,0.08018 -0.070744,0.01848 -0.137881,0.03361 -0.1491932,0.03361 -0.011312,0 -0.016712,-0.235034 -0.011999,-0.522298 z M 5.828125,11.493696 C 5.5826253,11.408277 5.4261887,11.117961 5.5003972,10.885497 5.58977,10.605531 5.7367472,10.535227 6.6875,10.317663 c 0.077344,-0.0177 0.1652344,-0.04167 0.1953125,-0.05326 0.050766,-0.01957 0.054687,0.01702 0.054687,0.510392 v 0.531476 l -0.1640625,0.03563 c -0.1591675,0.03457 -0.3718297,0.08661 -0.6364381,0.155746 -0.1518028,0.03966 -0.1847488,0.03924 -0.3088744,-0.0039 z M 7.9758069,10.508952 7.984375,9.9866534 8.09375,9.9599669 c 0.060156,-0.014677 0.1867188,-0.046139 0.28125,-0.069916 0.094531,-0.023776 0.2703125,-0.06597 0.390625,-0.093765 0.2063231,-0.047665 0.3283225,-0.077456 0.7578125,-0.1850506 0.098828,-0.024758 0.2452763,-0.061404 0.3254403,-0.081435 0.3739272,-0.093435 0.7322082,0.2628081 0.6194752,0.6159527 -0.08216,0.257354 -0.203605,0.32606 -0.874603,0.494779 -0.1117187,0.02809 -0.2746734,0.07124 -0.3621216,0.0959 -0.087448,0.02465 -0.1846497,0.04482 -0.2160034,0.04482 -0.031354,0 -0.1285553,0.02017 -0.2160034,0.04482 -0.087448,0.02465 -0.2433716,0.06578 -0.3464966,0.09139 -0.103125,0.02561 -0.2453816,0.06169 -0.3161256,0.08018 -0.070744,0.01848 -0.137881,0.03361 -0.1491932,0.03361 -0.011312,0 -0.016712,-0.235034 -0.011999,-0.522298 z M 5.828125,9.4936962 C 5.684385,9.4436834 5.5418959,9.2902625 5.4999088,9.1402988 5.4526594,8.9715406 5.4974338,8.8092213 5.6298528,8.669205 5.7348812,8.5581519 5.86714,8.5141428 6.703125,8.312075 6.789062,8.291303 6.8843322,8.267107 6.9148356,8.258307 6.9666246,8.243365 6.9697276,8.277192 6.9617106,8.7693432 L 6.953125,9.2963803 6.78125,9.3377466 C 6.5277616,9.3987556 6.2825325,9.4596191 6.1369994,9.4976431 5.9851966,9.5373056 5.9522506,9.5368847 5.828125,9.4936962 Z M 8,8.5047594 V 7.9715822 l 0.1171875,-0.01964 C 8.1816406,7.9411406 8.2976562,7.9142441 8.375,7.8921722 8.4523438,7.8701 8.6210938,7.8283222 8.75,7.7993322 8.8789063,7.7703422 9.06875,7.7252247 9.171875,7.6990709 9.275,7.6729175 9.4367188,7.6323269 9.53125,7.6088697 9.6257812,7.5854125 9.7687138,7.5498316 9.8488778,7.5298006 10.222805,7.4363659 10.581086,7.7926087 10.468353,8.1457528 10.386198,8.4031066 10.264748,8.4718131 9.59375,8.6405316 9.4820313,8.6686225 9.3190766,8.7117759 9.2316284,8.7364281 9.1441803,8.76108 9.0469787,8.78125 9.015625,8.78125 8.984271,8.78125 8.8870697,8.80142 8.7996216,8.826072 8.6017613,8.88185 8.2926388,8.9603709 8.1825906,8.9828059 8.1369219,8.9921159 8.0771563,9.0083291 8.0497781,9.018835 8.0054394,9.0358497 8,8.9796766 8,8.5047594 Z M 7.234375,6.9783847 C 6.8150266,6.9506072 6.1568528,6.8630162 5.7394722,6.7794403 4.4046094,6.5121491 3.4166881,5.9962797 3.1047235,5.4036366 L 3.015625,5.234375 3.009671,4.1875 C 3.006401,3.6117188 3.014821,3.1757813 3.028395,3.21875 3.2209929,3.8284666 4.0919579,4.3843519 5.3437498,4.6965041 5.498792,4.7351661 5.5145207,4.7467701 5.5043523,4.8149944 5.4703783,5.0429416 5.4680093,5.9951141 5.5011223,6.1133812 5.5449733,6.2700019 5.6901951,6.4159828 5.8542476,6.4683528 6.0925066,6.5444113 6.3789509,6.38474 6.4645591,6.1281494 6.4840516,6.069725 6.5,5.8371062 6.5,5.6112181 V 5.2005131 L 6.6338378,5.0691609 6.7676759,4.9378091 7.2041503,4.9728775 c 0.2543056,0.020432 0.7201525,0.027774 1.1161622,0.017592 L 9,4.9729925 v 0.9931994 0.993199 L 8.7139494,6.9796956 C 8.4334591,6.9996053 7.5428253,6.9988162 7.234375,6.9783862 Z M 11,5.5963162 V 4.5988825 l 0.257813,-0.085239 c 0.915249,-0.3026056 1.552421,-0.7840353 1.713792,-1.2948931 0.01357,-0.042969 0.022,0.3929688 0.01872,0.96875 l -0.006,1.046875 -0.0891,0.1692616 C 12.672187,5.8274431 12.070467,6.2383825 11.2832,6.5045906 11.138179,6.5536281 11.015133,6.59375 11.009763,6.59375 11.004393,6.59375 11,6.1449047 11,5.5963162 Z"
       id="path823"
       inkscape:connector-curvature="0" />
    <path
       style="fill:#fecb32;stroke-width:0.000357143"
       d="M 6.75,14.97146 C 6.48924,14.889574 6.248505,14.686875 6.1296034,14.449087 6.053835,14.297559 6.0005678,14.000575 6.0002359,13.727817 l -2.5e-4,-0.194058 0.125,-0.03251 c 0.06875,-0.01788 0.1847657,-0.04836 0.2578125,-0.06775 0.1142519,-0.03032 0.5241075,-0.121005 0.5468775,-0.121005 0.0043,0 0.00782,0.152589 0.00782,0.339087 0,0.384628 0.031441,0.509637 0.1634519,0.649882 0.19131,0.203244 0.5136378,0.202712 0.7054747,-0.0012 C 7.9442975,14.153782 7.96875,14.037015 7.96875,13.525171 v -0.465503 l -0.1171875,0.02001 c -0.1189281,0.0203 -0.2889597,0.06314 -0.6043091,0.152237 C 6.9167878,13.325282 6.9375,13.355965 6.9375,12.773047 v -0.508203 l 0.2109375,-0.05608 c 0.1160156,-0.03084 0.2882812,-0.07531 0.3828125,-0.09882 0.094531,-0.0235 0.2316406,-0.05842 0.3046875,-0.0776 L 7.96875,11.997491 V 11.52858 11.059668 l -0.1171875,0.02001 c -0.1148881,0.01961 -0.2790128,0.06109 -0.6121216,0.1547 C 6.9178509,11.324745 6.9375,11.354766 6.9375,10.773047 v -0.508203 l 0.2109375,-0.05608 c 0.3092991,-0.08223 0.5435175,-0.141114 0.6377219,-0.160319 0.045669,-0.0093 0.1054343,-0.02552 0.1328125,-0.03603 0.044306,-0.017002 0.049778,0.03795 0.049778,0.499867 0,0.285432 0.00892,0.518968 0.019812,0.518968 0.010897,0 0.077693,-0.01512 0.1484375,-0.03361 C 8.2077434,10.97916 8.35,10.94308 8.453125,10.91746 8.55625,10.89185 8.7121734,10.85072 8.7996216,10.82607 c 0.087448,-0.02465 0.1846497,-0.04482 0.2160034,-0.04482 0.031354,0 0.1285553,-0.02017 0.2160034,-0.04482 C 9.3190764,10.71178 9.4820313,10.66858 9.59375,10.64044 9.7054688,10.6123 9.8425781,10.57753 9.8984375,10.56319 L 10,10.5371 v 0.477389 0.477388 l -0.1484375,0.03717 c -0.081641,0.02044 -0.2328125,0.05849 -0.3359375,0.08455 -0.31512,0.07963 -0.521315,0.129854 -0.75,0.182685 -0.1203125,0.02779 -0.2960938,0.06999 -0.390625,0.09376 -0.094531,0.02378 -0.2210937,0.05524 -0.28125,0.06992 l -0.109375,0.02669 -0.00857,0.522299 c -0.00471,0.287264 6.875e-4,0.522298 0.011999,0.522298 0.011312,0 0.078449,-0.01512 0.1491932,-0.03361 0.070744,-0.01848 0.2130006,-0.05456 0.3161256,-0.08018 0.103125,-0.02561 0.2590484,-0.06674 0.3464966,-0.09139 0.087448,-0.02465 0.1846497,-0.04482 0.2160034,-0.04482 0.031354,0 0.1285553,-0.02017 0.2160034,-0.04482 0.087448,-0.02465 0.2504029,-0.06785 0.3621216,-0.09599 0.1117188,-0.02814 0.2496247,-0.06315 0.3064575,-0.0778 l 0.1033327,-0.02663 -0.00958,0.88043 -0.00958,0.880431 -0.083237,0.15625 c -0.099762,0.187268 -0.2720381,0.35731 -0.4636375,0.457624 -0.1401894,0.0734 -0.14445,0.07364 -1.375,0.07944 -0.6789063,0.0032 -1.2695313,-0.0052 -1.3125,-0.01872 z M 6,12.001624 v -0.467865 l 0.125,-0.03251 c 0.06875,-0.01788 0.1847656,-0.04836 0.2578125,-0.06775 0.1142378,-0.03032 0.5240934,-0.121005 0.5468634,-0.121005 0.0043,0 0.00782,0.209616 0.00782,0.465813 v 0.465812 l -0.1461919,0.04981 c -0.080406,0.0274 -0.177075,0.04981 -0.2148209,0.04981 -0.037746,0 -0.1231316,0.01897 -0.1897456,0.04216 -0.066614,0.02319 -0.1808822,0.05148 -0.2539291,0.06287 L 6,12.469489 Z m 0,-2 V 9.5337588 L 6.1328125,9.4988978 C 6.2798991,9.4602897 6.5194659,9.4007522 6.78125,9.3377466 L 6.953125,9.2963806 6.961675,8.7779159 6.970225,8.2594512 7.1491782,8.2102162 C 7.2475959,8.1831366 7.4125,8.1398831 7.515625,8.1140972 7.61875,8.0883113 7.7610066,8.0520906 7.8317506,8.0336069 7.9024947,8.0151231 7.9696316,8 7.9809437,8 c 0.011312,0 0.016712,0.2350344 0.011999,0.5222984 L 7.984375,9.0445966 7.875,9.0712831 C 7.5867381,9.1416159 7.3767569,9.1955156 7.2316284,9.2364281 7.1441803,9.26108 7.0492584,9.28125 7.0206909,9.28125 c -0.044447,0 -0.051973,0.039452 -0.052163,0.2734375 -1.25e-4,0.1503906 -0.00913,0.3677097 -0.020009,0.4829315 l -0.019787,0.209494 -0.1418078,0.04832 c -0.077994,0.02658 -0.172691,0.04832 -0.2104369,0.04832 -0.037746,0 -0.1231316,0.01897 -0.1897456,0.04216 -0.066614,0.02319 -0.1808822,0.05148 -0.2539291,0.06287 L 6,10.469489 Z M 8,9.5026703 V 9.0337588 L 8.1328125,8.9988978 C 8.2058594,8.9797241 8.35,8.9430794 8.453125,8.9174653 8.55625,8.8918513 8.7121734,8.8507241 8.7996216,8.8260719 8.8870697,8.80142 8.9842713,8.78125 9.015625,8.78125 9.046979,8.78125 9.1441803,8.76108 9.2316284,8.736428 9.3190764,8.711776 9.4820313,8.668581 9.59375,8.640438 9.7054688,8.612296 9.8425781,8.577532 9.8984375,8.563185 L 10,8.5371 V 9.0144888 9.4918775 L 9.8515625,9.5290495 C 9.4797497,9.6221585 9.3313125,9.6593782 9.1640625,9.701437 9.0652344,9.7262891 8.8789063,9.7703422 8.75,9.7993322 8.6210938,9.8283222 8.4523438,9.8701 8.375,9.8921722 8.2976562,9.9142441 8.1816406,9.9411406 8.1171875,9.9519425 L 8,9.9715822 Z M 6,7.6530709 V 6.8366534 l 0.1484375,0.022564 c 0.081641,0.01241 0.2960937,0.039054 0.4765625,0.059208 l 0.328125,0.036645 0.00843,0.6415635 0.00843,0.6415637 -0.1674253,0.052776 C 6.7104731,8.3200006 6.606495,8.34375 6.5714947,8.34375 c -0.035,0 -0.1181391,0.018971 -0.1847531,0.042157 C 6.3201276,8.409093 6.2058594,8.437384 6.1328125,8.448776 L 6,8.4694888 Z M 8,7.4906438 V 7.0097053 L 8.4778238,6.9891025 C 8.9034094,6.9707522 9.5303703,6.9108588 9.876855,6.8554538 L 10,6.8357619 V 7.1638197 7.4918775 L 9.8515625,7.5290495 C 9.4797497,7.6221585 9.3313125,7.6593782 9.1640625,7.701437 9.0652344,7.7262891 8.8789063,7.7703422 8.75,7.7993322 8.6210938,7.8283222 8.4523438,7.8701 8.375,7.8921722 8.2976562,7.9142441 8.1816406,7.9411406 8.1171875,7.9519425 L 8,7.9715822 Z M 7.25,4.9812778 C 7.1726562,4.9746156 7.0333616,4.960755 6.9404563,4.9504769 L 6.7715372,4.9317891 8.5732688,3.1298569 C 9.5642209,2.1387942 10.375,1.3103916 10.375,1.2889623 c 0,-0.050132 0.02887,-0.049094 0.261114,0.00939 C 11.77473,1.585087 12.620482,2.071186 12.894489,2.5963622 12.968509,2.7382329 12.9828,2.8035546 12.9828,3 c 0,0.1964453 -0.01429,0.2617672 -0.08831,0.4036366 C 12.518027,4.1251822 11.167874,4.7078875 9.375,4.9225928 8.9769613,4.9702597 7.5724019,5.0090487 7.25,4.9812778 Z M 4.703125,4.5023178 C 3.9162194,4.2293338 3.3237234,3.8218734 3.1055108,3.4036366 3.0314913,3.2617672 3.0171997,3.1964453 3.0171997,3 c 0,-0.1964454 0.014292,-0.2617671 0.088311,-0.4036365 C 3.4139897,2.0051174 4.4048297,1.4876091 5.7394722,1.2206648 6.4225678,1.0840377 6.9571937,1.0294257 7.796875,1.0105015 l 0.75,-0.0169031 -1.7967731,1.8000758 C 5.7618766,3.7837159 4.9532828,4.5926912 4.9532269,4.5913975 4.9531644,4.5901037 4.840625,4.5500175 4.703125,4.5023178 Z"
       id="path821"
       inkscape:connector-curvature="0" />
    <path
       style="fill:#fe3200;stroke-width:0.000357143"
       d="M 6.578125,15.456754 C 6.3379131,15.379244 6.1391412,15.253415 5.9468769,15.057152 5.7040175,14.809242 5.5764231,14.546753 5.5262228,14.191778 L 5.4895834,13.932692 5.2934369,13.744343 C 5.1354406,13.592627 5.0847897,13.518977 5.03302,13.365678 c -0.081527,-0.241415 -0.081527,-0.45869 0,-0.700106 0.052119,-0.154334 0.1023384,-0.22687 0.265625,-0.383666 C 5.4335331,12.15238 5.5,12.064481 5.5,12.015625 5.5,11.966769 5.4335331,11.87887 5.298645,11.749344 5.1353584,11.592548 5.0851394,11.520012 5.03302,11.365678 c -0.081527,-0.241415 -0.081527,-0.45869 0,-0.700106 0.052119,-0.154334 0.1023384,-0.22687 0.265625,-0.383666 C 5.4335331,10.15238 5.5,10.064481 5.5,10.015625 5.5,9.9667688 5.4335331,9.8788697 5.298645,9.7493438 5.1353584,9.5925478 5.0851394,9.5200119 5.03302,9.3656784 4.9514925,9.1242625 4.9514925,8.9069875 5.03302,8.6655716 5.0851394,8.5112381 5.1353584,8.4387022 5.298645,8.2819063 L 5.5,8.0885553 V 7.6742506 7.2599456 L 5.3203125,7.2207416 C 5.0109947,7.1532547 4.2780778,6.9043166 3.9800097,6.7655028 3.3287103,6.4621844 2.8421148,6.0431725 2.6333048,5.6058428 L 2.515625,5.359375 V 4 2.640625 L 2.6333048,2.3941573 C 2.7745911,2.0982485 3.1069823,1.7470842 3.4643847,1.5161389 4.15773,1.0681151 5.2665125,0.72689956 6.53125,0.57234506 c 0.6424297,-0.0785067 2.2950703,-0.0785067 2.9375,0 1.264738,0.1545545 2.37352,0.49577004 3.066865,0.94379384 0.357403,0.2309453 0.689794,0.5821096 0.83108,0.8780184 l 0.11768,0.2464677 V 4 5.359375 l -0.11768,0.2464678 c -0.20881,0.4373297 -0.695405,0.8563416 -1.346705,1.15966 -0.287949,0.1341016 -1.058557,0.3984147 -1.280415,0.4391738 l -0.1198,0.022009 0.126692,0.1290894 c 0.237976,0.2424794 0.313451,0.6421616 0.190191,1.0071563 -0.04923,0.1457759 -0.104931,0.2287218 -0.25,0.3722772 -0.251836,0.2492075 -0.251836,0.3116249 0,0.5608325 0.145069,0.1435553 0.20077,0.2265012 0.25,0.3722771 0.136067,0.4029179 0.05006,0.7699619 -0.25,1.0668909 C 10.539453,10.880877 10.5,10.940148 10.5,11.015625 c 0,0.07548 0.03945,0.134748 0.186658,0.280416 0.145069,0.143556 0.20077,0.226502 0.25,0.372277 0.135285,0.400603 0.05098,0.762412 -0.248418,1.066057 l -0.184874,0.1875 -0.0095,0.75 -0.0095,0.75 -0.103106,0.21875 c -0.142212,0.301736 -0.43955,0.600026 -0.7372156,0.739586 L 9.421875,15.484375 8.0625,15.490731 c -1.0394416,0.0049 -1.3887941,-0.0031 -1.484375,-0.03398 z M 9.4375,14.910749 c 0.1915994,-0.100314 0.3638759,-0.270356 0.4636375,-0.457624 l 0.083237,-0.15625 0.00959,-0.880974 0.00959,-0.880974 0.115413,-0.0368 c 0.157658,-0.05026 0.302047,-0.194857 0.348113,-0.348606 0.0757,-0.25267 -0.08254,-0.531714 -0.349886,-0.616992 L 10,11.495153 v -0.479528 -0.479528 l 0.117188,-0.03738 c 0.159314,-0.05082 0.303648,-0.194865 0.349885,-0.349192 0.0757,-0.2526697 -0.08254,-0.5317141 -0.349885,-0.6169916 L 10,9.4951531 V 9.015625 8.5360969 l 0.117188,-0.03738 C 10.382412,8.4141153 10.545943,8.1285525 10.468353,7.8854972 10.417111,7.7249778 10.273786,7.5795194 10.122076,7.5340659 l -0.1241588,-0.037199 0.00885,-0.3321728 0.0089,-0.3321728 0.359375,-0.074841 c 1.244792,-0.2592328 2.219683,-0.7830028 2.520277,-1.3540437 l 0.0891,-0.1692616 V 4 2.765625 l -0.0891,-0.1692615 C 12.618101,2.0698088 11.774238,1.5849642 10.636114,1.2983536 10.403718,1.2398298 10.375,1.2388183 10.375,1.289157 c 0,0.021536 -0.871875,0.910947 -1.9375,1.976468 L 6.5,5.2029359 V 5.6124297 C 6.5,5.8376512 6.4840516,6.069725 6.4645591,6.1281494 6.4142928,6.2788109 6.2676759,6.4223112 6.1182747,6.4670728 5.870465,6.5413184 5.5904838,6.3867919 5.5041909,6.1281494 5.4573394,5.9877225 5.45769,5.0312472 5.5046534,4.8630006 5.5356622,4.7519147 5.7906016,4.4842347 7.3742169,2.9000069 L 9.2078756,1.0656388 9.0336244,1.0462011 C 8.9377881,1.0355104 8.8242188,1.0166154 8.78125,1.0042124 8.657245,0.96841797 7.122075,1.0204136 6.640625,1.0767146 4.8447831,1.2867209 3.4869206,1.8702989 3.1047235,2.5963635 L 3.015625,2.765625 V 4 5.234375 L 3.104723,5.4036366 C 3.4053072,5.9746591 4.37986,6.4982647 5.625,6.757725 l 0.359375,0.074886 0.00831,0.8294925 0.00832,0.8294925 -0.1381166,0.03867 C 5.6987812,8.5762134 5.5537622,8.7183281 5.5003972,8.8854972 5.4205991,9.1354706 5.590315,9.4207878 5.8671875,9.5021259 L 6,9.5411431 v 0.4744819 0.474482 l -0.1328125,0.03902 c -0.2768725,0.08134 -0.4465884,0.366655 -0.3667903,0.616629 0.053293,0.166945 0.1984025,0.309289 0.3619887,0.35509 L 6,11.539373 v 0.476252 0.476252 l -0.1376141,0.03853 c -0.1635862,0.0458 -0.3086953,0.188145 -0.3619887,0.35509 -0.079798,0.249974 0.089918,0.535291 0.3667903,0.616629 L 6,13.541143 l 2.5e-4,0.190366 c 3.344e-4,0.269333 0.053956,0.566763 0.1293675,0.717578 0.1189016,0.237788 0.3596366,0.440487 0.6203966,0.522373 0.042969,0.01349 0.6335937,0.02192 1.3125,0.01872 1.23055,-0.0058 1.2348106,-0.006 1.375,-0.07944 z M 7.296875,14.431196 C 7.1600409,14.383586 7.0139759,14.232378 6.9731325,14.096054 6.9535347,14.030643 6.9375,13.820552 6.9375,13.629187 c 0,-0.335799 0.00236,-0.347937 0.067566,-0.347937 0.037161,0 0.14263,-0.02109 0.234375,-0.04687 0.3331088,-0.09361 0.4972335,-0.135086 0.6121216,-0.1547 L 7.96875,13.059668 v 0.465503 c 0,0.263756 -0.01536,0.51154 -0.035441,0.571728 -0.049238,0.147581 -0.1960082,0.2939 -0.3372547,0.336219 -0.1396719,0.04185 -0.1740222,0.04163 -0.2991794,-0.0019 z M 6.9375,11.765625 c 0,-0.475647 0.00122,-0.484375 0.067566,-0.484375 0.037161,0 0.1461457,-0.0222 0.2421875,-0.04934 0.3153494,-0.0891 0.485381,-0.131933 0.6043091,-0.152237 l 0.1171874,-0.02 v 0.468912 0.468911 l -0.1328125,0.03486 C 7.7628906,12.051526 7.61875,12.088171 7.515625,12.113785 7.4125,12.139399 7.2565766,12.180526 7.1691284,12.205178 7.0816803,12.22983 6.9937897,12.25 6.9738159,12.25 6.94779,12.25 6.9375,12.112753 6.9375,11.765625 Z M 6.948384,10.039063 C 6.9593409,9.9230469 6.9684056,9.7050781 6.9685278,9.5546875 6.9687153,9.3207016 6.9762441,9.28125 7.0206909,9.28125 c 0.028568,0 0.1234894,-0.02017 0.2109375,-0.044822 C 7.3190764,9.211776 7.4820312,9.168581 7.59375,9.140438 7.7054687,9.112296 7.8425781,9.077532 7.8984375,9.063185 L 8,9.0371 V 9.5144888 9.9918775 L 7.8515625,10.02905 C 7.4005687,10.141987 7.3143897,10.164229 7.1691284,10.205179 6.9213925,10.275019 6.9257872,10.278329 6.948384,10.039063 Z M 6.96875,7.6046619 V 6.9593234 L 7.2734375,6.9795 c 0.1675781,0.011097 0.3996094,0.020249 0.515625,0.020338 L 8,7 V 7.4959387 7.9918775 L 7.8515625,8.0290491 C 7.4005687,8.1419859 7.3143897,8.1642281 7.1691284,8.2051781 7.0816803,8.22983 7.0008209,8.25 6.9894409,8.25 6.9780609,8.25 6.96875,7.9595978 6.96875,7.6046619 Z"
       id="path819"
       inkscape:connector-curvature="0" />
  </g>
</svg>
