<?xml version="1.0" encoding="UTF-8" standalone="no"?>
<!-- Created with Inkscape (http://www.inkscape.org/) -->

<svg
   version="1.1"
   id="svg2"
   width="1600"
   height="1600"
   viewBox="0 0 1600 1600"
   sodipodi:docname="mod_multires.svg"
   inkscape:version="1.2.2 (732a01da63, 2022-12-09)"
   xmlns:inkscape="http://www.inkscape.org/namespaces/inkscape"
   xmlns:sodipodi="http://sodipodi.sourceforge.net/DTD/sodipodi-0.dtd"
   xmlns="http://www.w3.org/2000/svg"
   xmlns:svg="http://www.w3.org/2000/svg"
   xmlns:rdf="http://www.w3.org/1999/02/22-rdf-syntax-ns#"
   xmlns:cc="http://creativecommons.org/ns#"
   xmlns:dc="http://purl.org/dc/elements/1.1/">
  <metadata
     id="metadata8">
    <rdf:RDF>
      <cc:Work
         rdf:about="">
        <dc:format>image/svg+xml</dc:format>
        <dc:type
           rdf:resource="http://purl.org/dc/dcmitype/StillImage" />
      </cc:Work>
    </rdf:RDF>
  </metadata>
  <defs
     id="defs6" />
  <sodipodi:namedview
     pagecolor="#808080"
     bordercolor="#666666"
     borderopacity="1"
     objecttolerance="10"
     gridtolerance="10"
     guidetolerance="10"
     inkscape:pageopacity="0"
     inkscape:pageshadow="2"
     inkscape:window-width="1993"
     inkscape:window-height="1009"
     id="namedview4"
     showgrid="false"
     inkscape:zoom="0.35355339"
     inkscape:cx="586.89863"
     inkscape:cy="1114.4003"
     inkscape:window-x="-8"
     inkscape:window-y="-8"
     inkscape:window-maximized="1"
     inkscape:current-layer="MOD_MULTIRES"
     inkscape:showpageshadow="0"
     inkscape:pagecheckerboard="true"
     inkscape:deskcolor="#d1d1d1" />
  <g
     id="MOD_MULTIRES"
     transform="matrix(100,0,0,100,0,4.9999997e-5)"
     style="stroke-width:0.0114286">
    <path
       style="fill:none;stroke-width:0.000357143"
       d="M 0,8 V 0 h 8 8 v 8 8 H 8 0 Z m 2.1977753,7.457374 c 0.1332207,-0.05566 0.263298,-0.2128 0.2888341,-0.348919 L 2.5069557,15 H 3.5 4.4930444 l 0.020346,0.108455 c 0.025536,0.136119 0.1556135,0.293256 0.2888341,0.348919 0.1442216,0.06026 1.2513291,0.06026 1.3955506,0 0.1332206,-0.05566 0.2632978,-0.2128 0.2888341,-0.348919 L 6.5069556,15 H 8.046875 9.5867944 l 0.020346,0.108455 c 0.025536,0.136119 0.1556135,0.293256 0.2888341,0.348919 0.1449035,0.06054 1.2831455,0.06037 1.4253415,-2.19e-4 0.132754,-0.05657 0.230279,-0.1662 0.282799,-0.317915 l 0.04279,-0.123612 1.676275,-0.0081 1.676275,-0.0081 0.0081,-1.676275 0.0081,-1.676276 0.123612,-0.04279 c 0.151715,-0.05252 0.26135,-0.150044 0.317915,-0.282798 0.06059,-0.142196 0.06077,-1.280438 2.19e-4,-1.4253415 C 15.401708,9.7627569 15.244572,9.6326797 15.108452,9.6071434 L 15,9.5867944 V 8.046875 6.5069556 l 0.108455,-0.020346 c 0.136119,-0.025536 0.293256,-0.1556135 0.348919,-0.2888341 0.06026,-0.1442216 0.06026,-1.2513291 0,-1.3955506 -0.05566,-0.1332206 -0.2128,-0.2632978 -0.348919,-0.2888341 L 15,4.4930444 V 3.5 2.5069557 l 0.110043,-0.020644 C 15.25575,2.4589767 15.4285,2.3032 15.470618,2.1611642 c 0.02101,-0.070853 0.03007,-0.348024 0.02382,-0.7292879 C 15.48342,0.75854853 15.477304,0.73541672 15.269215,0.58005591 L 15.182917,0.515625 H 8 0.81708316 L 0.73078496,0.5800559 C 0.68332096,0.6154929 0.61549286,0.68332018 0.5800559,0.73078318 L 0.515625,0.81707959 0.50672091,7.9163522 c -0.004897,3.9045998 -8.2219e-4,7.1445618 0.009056,7.1999148 0.0223595,0.125296 0.15373466,0.284975 0.27954885,0.339777 0.13670072,0.05954 1.26057524,0.06061 1.40244954,0.0013 z"
       id="path829"
       inkscape:connector-curvature="0" />
    <path
       style="fill:#cbe5fe;stroke-width:0.000357143"
       d="M 1,8 V 1 h 7 7 V 1.5 2 H 8.5 2 V 8.5 15 H 1.5 1 Z m 4,4.516797 C 5,10.059485 5.0006937,10.031709 5.066645,9.8527347 5.1298141,9.6813072 5.2516375,9.5533006 7.4025825,7.3982306 8.9116538,5.886265 9.7144384,5.1037175 9.7989288,5.0622931 9.9226706,5.0016237 9.9921181,5 12.462991,5 H 15 V 5.5 6 H 12.631121 10.262242 L 8.1311209,8.1312416 6,10.262483 V 12.631242 15 H 5.5 5 Z m 5.109343,2.366016 c 0.0124,-0.06445 0.03355,-0.203861 0.04699,-0.309795 0.01344,-0.105933 0.04576,-0.232496 0.07181,-0.28125 0.02605,-0.04875 0.09288,-0.215205 0.148507,-0.369893 0.356742,-0.992055 1.038957,-1.936465 1.888977,-2.614963 0.512768,-0.4093 1.212938,-0.787824 1.859375,-1.005212 0.275594,-0.09268 0.745157,-0.20795 0.847093,-0.20795 0.01535,0 0.02791,0.230866 0.02791,0.513036 v 0.513035 l -0.148573,0.03186 c -0.473013,0.101443 -1.148344,0.397806 -1.625097,0.713158 -0.406044,0.268581 -0.915827,0.758073 -1.241707,1.192283 -0.346271,0.46138 -0.719511,1.265407 -0.832939,1.794302 L 11.119821,15 h -0.516513 -0.516514 z"
       id="path827"
       inkscape:connector-curvature="0" />
    <path
       style="fill:#cbcbcb;stroke-width:0.000357143"
       d="M 2.5,8.75 V 2.5 H 8.75 15 v 1 1 H 12.407422 C 9.8476163,4.5 9.8125584,4.5008344 9.6339847,4.5659491 9.4618091,4.6287316 9.3388966,4.7461431 7.0741059,7.0112616 L 4.6950869,9.390625 4.5975434,9.6511075 4.5,9.91159 V 12.455795 15 h -1 -1 z"
       id="path825"
       inkscape:connector-curvature="0" />
    <path
       style="fill:#989898;stroke-width:0.000357143"
       d="M 6.5,12.742096 V 10.484192 L 8.4922784,8.4920959 10.484557,6.5 H 12.742278 15 V 8.046875 9.59375 l -0.101562,6.75e-4 c -0.320317,0.00213 -1.144554,0.2620831 -1.738103,0.548167 -0.710692,0.342547 -1.287568,0.762128 -1.849797,1.34542 -0.521735,0.54128 -0.848219,1.008937 -1.168976,1.674447 -0.2851107,0.591551 -0.5450061,1.416159 -0.5471357,1.735977 L 9.59375,15 H 8.046875 6.5 Z"
       id="path823"
       inkscape:connector-curvature="0" />
    <path
       style="fill:#0032fe;stroke-width:0.000357143"
       d="m 0.79532572,15.456957 c -0.12629056,-0.05622 -0.25726978,-0.215844 -0.27954885,-0.340689 -0.009878,-0.05535 -0.0139532,-3.295316 -0.009056,-7.1999158 l 0.008904,-7.09927261 0.0644309,-0.0862964 c 0.035437,-0.047463 0.10326506,-0.11529031 0.15072906,-0.15072728 L 0.81708316,0.515625 H 8 15.182917 l 0.0863,0.0644309 c 0.212984,0.15901578 0.21516,0.16831784 0.21516,0.9199441 0,0.7516251 -0.0022,0.7609256 -0.215158,0.9199441 l -0.0863,0.064431 -6.3412357,0.00804 -6.3412358,0.00804 -0.00804,6.3412358 -0.00804,6.3412361 -0.064431,0.0863 c -0.1568255,0.210045 -0.1742187,0.214431 -0.8830777,0.22266 -0.4900321,0.0057 -0.66927712,-0.0028 -0.74154068,-0.03492 z M 2,8.5 V 2 H 8.5 15 V 1.5 1 H 8 1 v 7 7 H 1.5 2 Z m 2.796875,6.956799 C 4.6815141,15.404403 4.5775031,15.294235 4.5333316,15.177653 4.5106988,15.117919 4.5,14.258642 4.5,12.500636 V 9.91159 L 4.5975434,9.6511075 4.6950869,9.390625 7.0741059,7.0112616 c 2.271146,-2.2714747 2.3872819,-2.3823772 2.5612435,-2.4458232 0.18125,-0.066104 0.1965659,-0.066415 2.8649066,-0.058136 2.654223,0.00823 2.683598,0.00901 2.76897,0.072754 0.212975,0.1590291 0.215149,0.1683238 0.215149,0.9199441 0,0.7516191 -0.0022,0.7609112 -0.215146,0.9199441 -0.08512,0.063557 -0.118149,0.064545 -2.436234,0.072816 l -2.349949,0.00839 -1.9911007,1.9916144 -1.9911012,1.991615 -0.00823,2.349285 c -0.00812,2.317532 -0.00911,2.350451 -0.072666,2.435569 -0.1568397,0.210036 -0.174225,0.214419 -0.8830775,0.222648 -0.4918854,0.0057 -0.6686341,-0.0027 -0.7399916,-0.03508 z M 6,12.631242 V 10.262483 L 8.1311209,8.1312416 10.262242,6 H 12.631121 15 V 5.5 5 H 12.462991 C 9.9921181,5 9.9226706,5.001625 9.7989288,5.0622931 9.7144384,5.1037175 8.9116537,5.886265 7.4025825,7.3982306 5.2516375,9.5533006 5.1298141,9.6813072 5.066645,9.8527347 5.000695,10.031709 5,10.059485 5,12.516797 V 15 H 5.5 6 Z m 3.890625,2.824644 C 9.5232031,15.292584 9.5065134,14.888827 9.8272144,13.921875 10.36985,12.285767 11.593187,10.898591 13.160335,10.142358 14.099124,9.6893419 15.018466,9.4865947 15.272803,9.6764844 15.476927,9.8288853 15.483474,9.854 15.494159,10.525626 c 0.0054,0.33825 0.0012,0.661003 -0.0094,0.71723 -0.03089,0.165009 -0.182725,0.310502 -0.38578,0.369667 -0.553433,0.161254 -0.807652,0.256273 -1.132052,0.423124 -1.196191,0.615246 -1.980045,1.631265 -2.344042,3.038306 -0.04672,0.180599 -0.159485,0.324645 -0.300156,0.383421 -0.142439,0.05952 -1.297596,0.05832 -1.43215,-0.0015 z m 1.261059,-0.604459 c 0.113428,-0.528895 0.486668,-1.332922 0.832939,-1.794302 0.32588,-0.43421 0.835663,-0.923702 1.241707,-1.192283 0.476753,-0.315352 1.152084,-0.611715 1.625097,-0.713158 L 15,11.119821 v -0.513035 c 0,-0.28217 -0.01256,-0.513036 -0.02791,-0.513036 -0.101936,0 -0.571499,0.115272 -0.847093,0.20795 -0.646437,0.217388 -1.346607,0.595912 -1.859375,1.005212 -0.85002,0.678498 -1.532235,1.622908 -1.888977,2.614963 -0.05562,0.154688 -0.122453,0.321139 -0.148507,0.369893 -0.02605,0.04875 -0.05837,0.175317 -0.07181,0.28125 -0.01344,0.105934 -0.03459,0.245341 -0.04699,0.309795 L 10.086794,15 h 0.516514 0.516513 z"
       id="path821"
       inkscape:connector-curvature="0" />
    <path
       style="fill:#656565;stroke-width:0.000357143"
       d="m 11.65625,14.958526 c 0,-0.110489 0.21385,-0.669181 0.379534,-0.991553 0.438984,-0.854124 1.077065,-1.492205 1.931189,-1.931189 0.322372,-0.165684 0.881064,-0.379534 0.991553,-0.379534 0.03395,0 0.04147,0.303358 0.04147,1.671875 V 15 h -1.671875 c -1.368517,0 -1.671875,-0.0075 -1.671875,-0.04147 z"
       id="path819"
       inkscape:connector-curvature="0" />
  </g>
</svg>
