<?xml version="1.0" encoding="UTF-8" standalone="no"?>
<!-- Created with Inkscape (http://www.inkscape.org/) -->

<svg
   version="1.1"
   id="svg2"
   width="1600"
   height="1600"
   viewBox="0 0 1600 1600"
   sodipodi:docname="mod_sound_pitch.svg"
   inkscape:version="1.4 (86a8ad7, 2024-10-11)"
   xml:space="preserve"
   xmlns:inkscape="http://www.inkscape.org/namespaces/inkscape"
   xmlns:sodipodi="http://sodipodi.sourceforge.net/DTD/sodipodi-0.dtd"
   xmlns="http://www.w3.org/2000/svg"
   xmlns:svg="http://www.w3.org/2000/svg"
   xmlns:rdf="http://www.w3.org/1999/02/22-rdf-syntax-ns#"
   xmlns:cc="http://creativecommons.org/ns#"
   xmlns:dc="http://purl.org/dc/elements/1.1/"><metadata
     id="metadata8"><rdf:RDF><cc:Work
         rdf:about=""><dc:format>image/svg+xml</dc:format><dc:type
           rdf:resource="http://purl.org/dc/dcmitype/StillImage" /></cc:Work></rdf:RDF></metadata><defs
     id="defs6" /><sodipodi:namedview
     pagecolor="#808080"
     bordercolor="#666666"
     borderopacity="1"
     objecttolerance="10"
     gridtolerance="10"
     guidetolerance="10"
     inkscape:pageopacity="0"
     inkscape:pageshadow="2"
     inkscape:window-width="2560"
     inkscape:window-height="1009"
     id="namedview4"
     showgrid="true"
     inkscape:zoom="0.25"
     inkscape:cx="1338"
     inkscape:cy="944"
     inkscape:window-x="1912"
     inkscape:window-y="-8"
     inkscape:window-maximized="1"
     inkscape:current-layer="SOUND"
     inkscape:showpageshadow="0"
     inkscape:pagecheckerboard="true"
     inkscape:deskcolor="#d1d1d1"><inkscape:grid
       id="grid1"
       units="px"
       originx="0"
       originy="0"
       spacingx="100"
       spacingy="100"
       empcolor="#0099e5"
       empopacity="0.30196078"
       color="#0099e5"
       opacity="0.14901961"
       empspacing="5"
       enabled="true"
       visible="true" /></sodipodi:namedview><g
     id="SOUND"
     transform="matrix(99.999145,0,0,99.999145,0.01368253,0)"
     style="stroke-width:0.0100001"
     inkscape:label="MOD_SOUND_PITCH"><g
       id="path2-6"
       transform="translate(9.6800828,-2.761719)"
       style="stroke:none" /><path
       style="fill:none;stroke-width:0.000312503"
       d="m 0.00246711,13.289063 c 0.0017519,-1.92505 0.01192331,-2.68376 0.03508648,-2.617188 0.04761001,0.136834 0.19881822,0.282899 0.3351421,0.323743 0.0812709,0.02435 0.56802262,0.03589 1.53717991,0.03645 l 1.4182494,8.22e-4 0.5531141,0.522616 c 0.3042125,0.287439 0.9622093,0.909336 1.4622146,1.381992 0.5290569,0.500118 0.9510247,0.874711 1.0093863,0.89606 0.1334881,0.04883 1.1328403,0.05353 1.2753094,0.006 0.058424,-0.01949 0.1513584,-0.07795 0.2065209,-0.129902 C 8.0443616,13.512164 8.03125,13.899299 8.03125,7.9053462 8.03125,3.942595 8.0216866,2.449412 7.9958091,2.3718507 7.9465706,2.2242696 7.7998009,2.0779509 7.6585544,2.0356325 7.5009578,1.9884154 6.5615791,1.9890296 6.3942506,2.036459 6.2843959,2.067598 6.0511747,2.2864995 4.7961303,3.536459 L 3.3266359,5 H 1.9091311 C 0.93827012,5 0.45415222,5.0112275 0.37269569,5.0356325 0.23637181,5.0764759 0.0851636,5.2225409 0.03755359,5.359375 0.0143933,5.4259391 0.00421879,4.6624662 0.00246711,2.7265625 L 0,0 h 8 8 v 8 8 H 8 0 Z m 13.01925689,0.02509 c -0.0034,-0.01062 0.07828,-0.11472 0.181401,-0.231322 0.103125,-0.116602 0.192898,-0.228642 0.199494,-0.248979 0.0066,-0.02034 0.05933,-0.09559 0.117188,-0.167236 0.05786,-0.07164 0.105193,-0.13904 0.105193,-0.149772 0,-0.01073 0.05625,-0.09566 0.125,-0.188719 0.06875,-0.09306 0.125,-0.181973 0.125,-0.197576 0,-0.0156 0.02915,-0.06542 0.06477,-0.11071 0.03562,-0.04529 0.05604,-0.08234 0.04537,-0.08234 -0.01067,0 0.02172,-0.05977 0.07198,-0.132813 0.05026,-0.07305 0.0947,-0.146875 0.09876,-0.164062 0.0072,-0.03025 0.039,-0.102613 0.220048,-0.5 0.08161,-0.179113 0.203131,-0.522239 0.191037,-0.53939 -0.0032,-0.0045 0.016,-0.05018 0.04257,-0.101563 0.02657,-0.05138 0.04142,-0.09342 0.03299,-0.09342 -0.0084,0 0.01126,-0.06199 0.04373,-0.137757 0.03248,-0.07577 0.05193,-0.144874 0.04323,-0.153573 -0.0087,-0.0087 -0.002,-0.04163 0.01484,-0.07318 0.01686,-0.03155 0.03865,-0.1077946 0.04842,-0.1694321 0.0098,-0.061637 0.02484,-0.13195 0.03348,-0.15625 0.0175,-0.049234 0.04433,-0.1833325 0.06512,-0.3254319 0.0075,-0.051562 0.02258,-0.1429687 0.03342,-0.203125 0.04445,-0.2466872 0.05079,-0.3956822 0.0506,-1.1875 -2.19e-4,-0.8404963 -0.0036,-0.9017325 -0.06787,-1.234375 -0.01993,-0.103125 -0.04234,-0.2296875 -0.0498,-0.28125 -0.0075,-0.051563 -0.02016,-0.121875 -0.02822,-0.15625 -0.01603,-0.068367 -0.102756,-0.4047572 -0.126891,-0.4921875 -0.0083,-0.030078 -0.02079,-0.080066 -0.02775,-0.1110834 -0.007,-0.031017 -0.03623,-0.1118769 -0.06503,-0.1796875 -0.04974,-0.1170769 -0.06046,-0.1512525 -0.092,-0.2931385 -0.0074,-0.03326 -0.03133,-0.093025 -0.05319,-0.1328125 -0.02186,-0.039788 -0.0427,-0.089949 -0.0463,-0.11147 -0.0036,-0.021521 -0.03919,-0.1058962 -0.07907,-0.1875 -0.03988,-0.081604 -0.07326,-0.1554018 -0.07418,-0.1639956 -9.16e-4,-0.00859 -0.02176,-0.050781 -0.04632,-0.09375 -0.02456,-0.042969 -0.04643,-0.085156 -0.04859,-0.09375 C 14.153427,4.4022691 14.044057,4.1895381 13.993697,4.1255247 13.959666,4.0822675 13.91207,4.0046875 13.887928,3.953125 13.817856,3.8034616 13.720492,3.6507384 13.604033,3.5078125 13.544514,3.4347656 13.505497,3.375 13.517329,3.375 c 0.01183,0 -0.04348,-0.076071 -0.122908,-0.1690466 C 13.314989,3.1129777 13.249717,3.0250871 13.249371,3.0106409 13.249025,2.9961946 13.116429,2.84375 12.954713,2.671875 l -0.294028,-0.3125 -0.352951,0.3509064 -0.35295,0.3509064 0.1227,0.125656 c 0.06748,0.069111 0.109887,0.1256562 0.09423,0.1256562 -0.01566,0 0.02829,0.059766 0.09766,0.1328125 0.184288,0.1940509 0.429134,0.4921875 0.404212,0.4921875 -0.01183,0 0.02865,0.061214 0.08995,0.1360309 0.06131,0.074817 0.111467,0.1461116 0.111467,0.1584322 0,0.01232 0.04044,0.081185 0.08988,0.1530313 0.04943,0.071847 0.09262,0.1446931 0.09598,0.1618806 0.0034,0.017188 0.02479,0.052344 0.04764,0.078125 0.03984,0.044963 0.15481,0.296875 0.135489,0.296875 -0.0051,0 0.02354,0.04621 0.06376,0.1026897 0.04022,0.056479 0.07599,0.1197606 0.07951,0.140625 0.0035,0.020864 0.02378,0.069576 0.04504,0.1082478 0.02126,0.038672 0.03081,0.070312 0.02121,0.070312 -0.0096,0 0.0044,0.033406 0.0312,0.074235 0.02675,0.040829 0.0552,0.1041106 0.06322,0.140625 0.02639,0.120179 0.04291,0.1734406 0.119893,0.3867028 0.04188,0.1160156 0.0711,0.2109375 0.06493,0.2109375 -0.0062,0 0.0089,0.057159 0.0336,0.1270203 0.02465,0.069861 0.04263,0.1366581 0.03997,0.1484375 -0.0027,0.011779 0.01313,0.084475 0.0351,0.1615456 0.02197,0.077071 0.04471,0.1825397 0.05054,0.234375 0.0058,0.051836 0.0176,0.1384475 0.02617,0.192471 0.07916,0.4991815 0.08036,1.5790372 0.0022,1.9799006 -0.0084,0.042969 -0.02175,0.1458516 -0.02971,0.2286281 -0.008,0.082777 -0.02115,0.1613041 -0.02931,0.174505 -0.0082,0.013201 -0.0228,0.072037 -0.03253,0.1307469 -0.0097,0.05871 -0.02986,0.1419013 -0.04473,0.18487 -0.0418,0.1208066 -0.104775,0.3593752 -0.09486,0.3593752 0.0049,0 -0.0085,0.03255 -0.02984,0.07234 -0.02129,0.03979 -0.04337,0.09604 -0.04906,0.125 -0.01617,0.08235 -0.110106,0.324247 -0.166068,0.427659 -0.0279,0.05156 -0.04851,0.09698 -0.04579,0.100926 0.0027,0.0039 -0.02942,0.08487 -0.07141,0.179834 -0.042,0.09496 -0.07304,0.176107 -0.069,0.180323 0.004,0.0042 -0.02518,0.05337 -0.06496,0.10923 -0.03978,0.05586 -0.06313,0.101562 -0.0519,0.101562 0.01123,0 -0.03,0.06868 -0.09162,0.152624 -0.06162,0.08394 -0.112036,0.163476 -0.112036,0.176738 0,0.01326 -0.03516,0.07021 -0.07813,0.126541 -0.04297,0.05634 -0.07813,0.112844 -0.07813,0.125575 0,0.01273 -0.08438,0.125951 -0.1875,0.251599 -0.103125,0.125647 -0.1875,0.236963 -0.1875,0.247368 0,0.01041 -0.101051,0.130831 -0.224557,0.267612 l -0.224557,0.248693 0.356663,0.357678 0.356663,0.357677 0.178681,-0.176817 c 0.09827,-0.09725 0.175936,-0.18551 0.172581,-0.196135 z m -1.599849,-1.243066 c 0.08594,-0.09797 0.15625,-0.186563 0.15625,-0.196875 0,-0.01031 0.05977,-0.09013 0.132813,-0.177381 0.07305,-0.08725 0.132812,-0.168293 0.132812,-0.180104 0,-0.01181 0.0641,-0.104781 0.142452,-0.206601 0.07835,-0.101819 0.132929,-0.185126 0.12129,-0.185126 -0.01164,0 0.01638,-0.04922 0.06226,-0.109375 0.04588,-0.06016 0.07472,-0.109375 0.06408,-0.109375 -0.01064,0 0.0107,-0.04219 0.04741,-0.09375 0.03672,-0.05156 0.05859,-0.09375 0.04861,-0.09375 -0.01,0 0.01736,-0.05625 0.06076,-0.125 0.0434,-0.06875 0.07121,-0.125 0.06179,-0.125 -0.0094,0 2.82e-4,-0.03164 0.02154,-0.07031 0.02126,-0.03867 0.04223,-0.08437 0.04659,-0.101563 0.0044,-0.01719 0.04442,-0.129687 0.08902,-0.25 0.04459,-0.1203125 0.08682,-0.2398437 0.09383,-0.265625 0.007,-0.025781 0.03501,-0.1242188 0.06222,-0.21875 0.102914,-0.357565 0.123685,-0.4692131 0.165694,-0.890625 0.02809,-0.2817872 0.02811,-1.039405 3.1e-5,-1.28125 -0.01197,-0.103125 -0.02978,-0.262685 -0.03958,-0.3545778 -0.0098,-0.091893 -0.03115,-0.1919969 -0.04745,-0.2224538 -0.0163,-0.030457 -0.02271,-0.062306 -0.01424,-0.070776 0.0085,-0.00847 0.0012,-0.052874 -0.01626,-0.098675 -0.01741,-0.045801 -0.03788,-0.1145484 -0.04547,-0.1527715 -0.0076,-0.038223 -0.04353,-0.1538713 -0.07985,-0.2569963 -0.0751,-0.2132519 -0.07617,-0.2165831 -0.109752,-0.34375 -0.01362,-0.051563 -0.04213,-0.1289062 -0.06337,-0.171875 -0.02124,-0.042969 -0.08571,-0.1765625 -0.143264,-0.296875 -0.05756,-0.1203125 -0.130636,-0.2574219 -0.162394,-0.3046875 -0.03176,-0.047266 -0.04904,-0.085937 -0.0384,-0.085937 0.01064,0 -0.01653,-0.047031 -0.06037,-0.1045122 -0.04383,-0.057482 -0.07971,-0.115365 -0.07971,-0.1286297 0,-0.013265 -0.0681,-0.1107769 -0.151339,-0.2166934 -0.08324,-0.1059166 -0.157065,-0.2088131 -0.164063,-0.2286591 -0.007,-0.019846 -0.0971,-0.1313803 -0.200223,-0.247854 -0.103125,-0.1164735 -0.1875,-0.2221779 -0.1875,-0.2348985 0,-0.01272 -0.01789,-0.04102 -0.03976,-0.062889 -0.03218,-0.032181 -0.109025,0.029504 -0.403095,0.323574 l -0.363335,0.363335 0.17965,0.2033597 c 0.09881,0.1118478 0.174732,0.2089953 0.16872,0.2158828 -0.006,0.00689 0.05015,0.08547 0.124794,0.1746285 0.07465,0.089158 0.1262,0.1621056 0.114561,0.1621056 -0.01164,0 0.02339,0.05625 0.07784,0.125 0.05445,0.06875 0.09011,0.125 0.07925,0.125 -0.01086,0 0.02137,0.059766 0.07162,0.1328125 0.05026,0.073047 0.0917,0.1398437 0.0921,0.1484375 3.97e-4,0.00859 0.03565,0.092969 0.07833,0.1875 0.08943,0.198065 0.117409,0.2780728 0.158437,0.453125 0.0081,0.034375 0.04354,0.1292969 0.07884,0.2109375 0.03531,0.081641 0.05801,0.1484375 0.05045,0.1484375 -0.0076,0 0.001,0.038672 0.01908,0.085937 0.01805,0.047266 0.03765,0.1210937 0.04355,0.1640625 0.0059,0.042969 0.01916,0.1241084 0.02946,0.1803106 0.04754,0.2593906 0.06878,0.9724172 0.03837,1.2884394 -0.01243,0.1291866 -0.05934,0.4946309 -0.0682,0.53125 -0.0021,0.00859 -0.01997,0.071875 -0.03977,0.140625 -0.01979,0.06875 -0.03402,0.1320312 -0.03161,0.140625 0.0024,0.00859 -0.01304,0.048178 -0.03433,0.087966 -0.02129,0.039787 -0.04378,0.096037 -0.04998,0.125 -0.0062,0.028963 -0.04093,0.1370344 -0.0772,0.2401594 -0.03627,0.103125 -0.07007,0.2015625 -0.07512,0.21875 -0.01877,0.063905 -0.09767,0.2223593 -0.167273,0.3359373 -0.0395,0.06445 -0.06389,0.117188 -0.0542,0.117188 0.0097,0 -0.01993,0.04922 -0.06582,0.109375 -0.04588,0.06016 -0.07303,0.109375 -0.06033,0.109375 0.01271,0 -0.02533,0.05977 -0.08453,0.132812 -0.05919,0.07305 -0.115565,0.153907 -0.125268,0.179688 -0.0097,0.02578 -0.119576,0.164258 -0.244161,0.307727 l -0.226518,0.260852 0.355324,0.356336 c 0.195428,0.195984 0.362585,0.356157 0.371459,0.355941 0.0089,-2.19e-4 0.08645,-0.08055 0.172385,-0.178519 z M 9.9331647,10.688219 c 0.054931,-0.06836 0.095956,-0.129001 0.091167,-0.134769 -0.0048,-0.0058 0.05237,-0.08344 0.127015,-0.172594 0.07465,-0.08916 0.1262,-0.162106 0.114562,-0.162106 -0.01164,0 0.02057,-0.05273 0.07158,-0.117187 0.07458,-0.09424 0.185617,-0.2987249 0.207868,-0.382813 0.0023,-0.00859 0.02852,-0.061328 0.05832,-0.1171875 C 10.633474,9.5457031 10.650962,9.5 10.642538,9.5 c -0.0084,0 0.01181,-0.063281 0.04496,-0.140625 0.03315,-0.077344 0.05339,-0.140625 0.04496,-0.140625 -0.0084,0 0.0065,-0.042188 0.03316,-0.09375 0.02666,-0.051562 0.04059,-0.09375 0.03095,-0.09375 -0.0096,0 -0.0033,-0.026596 0.0141,-0.059103 0.08839,-0.1651606 0.137233,-0.9405731 0.08977,-1.4252722 -0.02686,-0.2743234 -0.04496,-0.3601525 -0.121604,-0.5766222 -0.06327,-0.178705 -0.08158,-0.23871 -0.104928,-0.3439237 -0.0075,-0.033644 -0.04489,-0.1285657 -0.08315,-0.2109375 C 10.552504,6.33302 10.519443,6.2585937 10.517302,6.25 c -0.0021,-0.00859 -0.02399,-0.050781 -0.04855,-0.09375 -0.02456,-0.042969 -0.04516,-0.088435 -0.04577,-0.1010353 -6.1e-4,-0.012601 -0.06087,-0.099434 -0.13392,-0.1929628 -0.07305,-0.093529 -0.132813,-0.1801403 -0.132813,-0.1924703 0,-0.01233 -0.06279,-0.095912 -0.139528,-0.1857382 C 9.9399809,5.3942175 9.8840706,5.3138459 9.8924766,5.30544 9.9008866,5.29703 9.8853866,5.271588 9.8580426,5.248894 9.8147876,5.212996 9.7612816,5.254674 9.4464439,5.569513 L 9.0845628,5.9313947 9.1985313,6.0704784 c 0.062683,0.076496 0.1139687,0.149331 0.1139687,0.161856 0,0.012525 0.050913,0.084904 0.1131394,0.1608437 0.062227,0.07594 0.1042147,0.1380719 0.093307,0.1380719 -0.010908,0 0.014475,0.052734 0.056406,0.1171875 0.041931,0.064453 0.093718,0.1804687 0.1150822,0.2578125 0.054101,0.1958609 0.050063,0.1829037 0.1210772,0.3884837 0.062554,0.181086 0.095122,0.4223994 0.095183,0.7052663 6.25e-5,0.221265 -0.028401,0.5657991 -0.052653,0.6376512 -0.012154,0.036011 -0.025907,0.079536 -0.030561,0.096724 -0.00465,0.017188 -0.038281,0.115625 -0.074726,0.21875 -0.036445,0.103125 -0.069198,0.2015625 -0.072786,0.21875 -0.00809,0.038759 -0.1633647,0.3530553 -0.2156057,0.4364122 -0.021168,0.033777 -0.1141097,0.1583203 -0.2065359,0.276764 l -0.1680481,0.2153516 0.3550381,0.356049 c 0.1952712,0.195826 0.3634609,0.356048 0.3737553,0.356048 0.010294,0 0.063661,-0.05593 0.1185922,-0.124281 z"
       id="path825"
       inkscape:connector-curvature="0" /><path
       style="fill:#fefefe;stroke-width:0.000312503"
       d="M 1,6.5 V 6 H 2 3 V 6.5 7 H 2 1 Z M 4.0071506,6.3556978 4.0232506,5.7113953 5.3630516,4.3713228 6.7028525,3.03125 H 6.8514262 7 V 4.015625 5 H 6.5230928 6.0461856 L 5.5230928,5.5237725 5,6.047545 V 6.5237725 7 H 4.4955253 3.9910503 Z"
       id="path823"
       inkscape:connector-curvature="0"
       sodipodi:nodetypes="cccccccccccccccccccccccccc" /><path
       style="fill:#cbcbcb;stroke-width:0.000312503"
       d="M 6.4968853,12.645868 C 6.3868797,12.537034 5.9453125,12.118866 5.515625,11.716606 5.0859375,11.314347 4.5761719,10.831589 4.3828125,10.643811 L 4.03125,10.302397 V 8.6511988 7 H 4.515625 5 V 6.5230928 6.0461856 L 5.5237725,5.5230928 6.047545,5 H 6.5237725 7 V 8.921875 12.84375 H 6.8484478 c -0.1442234,0 -0.161225,-0.0096 -0.3515625,-0.197882 z M 1.03125,8.5 V 7 H 2.015625 3 V 8.5 10 H 2.015625 1.03125 Z"
       id="path821"
       inkscape:connector-curvature="0" /><path
       style="fill:#323232;stroke-width:0.000312503"
       d="M 6.35284,13.83356 C 6.2944784,13.812211 5.8725106,13.437618 5.3434537,12.9375 4.8434484,12.464844 4.1854516,11.842947 3.8812391,11.555508 L 3.328125,11.032892 1.9031007,11.032071 c -0.9770022,-5.63e-4 -1.4584212,-0.01196 -1.53124998,-0.03626 -0.14758115,-0.04924 -0.29389977,-0.196008 -0.33621826,-0.337255 -0.05043142,-0.168325 -0.05043142,-5.1175334 0,-5.2858584 C 0.07795095,5.2314491 0.22426957,5.0846794 0.37185072,5.0354409 0.44483103,5.0110919 0.92383256,5 1.9023562,5 H 3.3266359 L 4.7961303,3.5364591 c 1.2550444,-1.2499595 1.4882656,-1.4688615 1.5981203,-1.5 0.1673285,-0.04743 1.1067072,-0.048044 1.2643038,-8.266e-4 0.1412465,0.042318 0.2880162,0.1886371 0.3372547,0.3362183 0.025878,0.077561 0.035441,1.5707442 0.035441,5.5334954 0,5.9939528 0.013112,5.6068178 -0.1965797,5.8043108 -0.055162,0.05195 -0.1480969,0.11041 -0.2065209,0.129902 -0.1424691,0.04753 -1.1418213,0.04283 -1.2753094,-0.006 z M 7,7.9375 V 3.03125 H 6.8514262 6.7028525 L 5.3592387,4.3751619 4.015625,5.7190734 l 0.010448,2.288901 0.010448,2.2889006 0.098927,0.10501 c 0.05441,0.05776 0.5489269,0.528717 1.0989269,1.046582 0.55,0.517864 1.1046959,1.043657 1.2326578,1.168427 0.2234581,0.217886 0.2385956,0.226856 0.3828125,0.226856 H 7 Z M 3,8 V 6 H 1.9950017 0.99000328 l 0.0206234,0.7550603 c 0.011343,0.4152831 0.020623,1.3152831 0.020623,2 V 10 H 2.015625 3 Z"
       id="path819"
       inkscape:connector-curvature="0" /><path
       id="path5"
       style="fill:#323232;stroke:none;stroke-width:0.0100001;stroke-linecap:round;stroke-linejoin:round;paint-order:markers stroke fill"
       d="M 8.6402404,0.5556367 C 7.6053382,0.54914522 6.7504518,1.394276 6.7423787,2.429167 l -0.032442,4.3350731 v 0.00406 0.024331 c 0.012703,0.014948 0.026242,0.029165 0.040553,0.042581 -0.017736,0.1817557 -0.1326266,1.074868 0.3183379,2.2425577 0.5232863,1.3549562 2.0472346,2.7949032 4.2742434,2.8042142 2.16712,0.0091 3.699432,-1.295804 4.268162,-2.5933406 0.495806,-1.1311578 0.399989,-2.0283172 0.387278,-2.1918682 0.01425,-0.01276 0.02779,-0.026298 0.04055,-0.040553 v -0.022307 -4.56014 c -10e-6,-1.0360076 -0.851717,-1.88771501 -1.887725,-1.88772374 -1.036008,7.15e-6 -1.885687,0.85171504 -1.885695,1.88772374 v 4.5824436 c -2e-6,6.748e-4 -2e-6,0.00135 0,0.00202 2.06e-4,0.036872 0.0017,0.074727 0.004,0.1115197 -1.54e-4,0.00477 -0.01362,0.3716307 -0.115574,0.6042338 -0.09432,0.2152074 -0.103317,0.2345787 -0.121657,0.2473708 -0.01833,0.012792 -0.184516,0.089222 -0.671147,0.087188 -0.480121,-0.00199 -0.629002,-0.080082 -0.64073,-0.089215 -0.01173,-0.00914 -0.03524,-0.057354 -0.129768,-0.3021168 -0.114383,-0.296169 -0.113548,-0.7603613 -0.113548,-0.7603613 0.0037,-0.044513 0.0056,-0.089155 0.0061,-0.1338237 2e-6,-6.748e-4 2e-6,-0.00135 0,-0.00202 l 0.03241,-4.3654877 C 10.522285,1.4195 9.6762667,0.56208466 8.6402404,0.5556367 Z M 11.360297,10.59853 c -1.488503,0 -2.7068858,1.21417 -2.7068858,2.700803 0,1.486633 1.2183828,2.700804 2.7068858,2.700804 1.488503,0 2.708914,-1.214171 2.708914,-2.700804 0,-1.486633 -1.220411,-2.700803 -2.708914,-2.700803 z" /><path
       id="path1"
       style="fill:#fe0000;fill-opacity:1;stroke-width:0.0100001;stroke-linecap:round;stroke-linejoin:round;paint-order:markers stroke fill"
       d="m 8.6272113,1.0997892 a 1.3679337,1.3679337 0 0 0 -1.3764686,1.357226 l -0.031854,4.3367121 c -0.017836,0.2146927 -0.065173,1.110892 0.324667,2.1203108 0.377574,0.9776589 1.4081428,2.0738779 2.9377963,2.3856699 a 2.1886955,2.1823698 0 0 0 -1.3283917,2.003335 2.1886955,2.1823698 0 0 0 2.1886817,2.182377 2.1886955,2.1823698 0 0 0 2.188704,-2.182377 2.1886955,2.1823698 0 0 0 -1.315111,-2.000314 c 1.479602,-0.286197 2.505253,-1.275926 2.909613,-2.1984569 0.417333,-0.9521285 0.397314,-1.8110091 0.384705,-2.0311958 V 2.4976291 A 1.3679337,1.3679337 0 0 0 14.141641,1.1296969 1.3679337,1.3679337 0 0 0 12.77371,2.4976291 V 7.080173 a 1.3680705,1.3680705 0 0 0 0.0043,0.1004501 c 0,0 0.0073,0.447602 -0.158156,0.8250295 C 12.454408,8.3830794 12.410194,8.6555721 11.34809,8.6511334 10.296684,8.6467342 10.265892,8.3696621 10.095592,7.9287029 9.9252928,7.4877437 9.9481206,6.9583317 9.9481217,6.9583317 A 1.3680705,1.3680705 0 0 0 9.9545617,6.840789 L 9.9866162,2.4762576 A 1.3679337,1.3679337 0 0 0 8.6272113,1.0997892 Z" /><path
       id="path1-2"
       style="fill:#fe6565;stroke-width:0.0100001;stroke-linecap:round;stroke-linejoin:round;paint-order:markers stroke fill"
       d="M 8.6229328,1.9205403 C 8.3113949,1.9185861 8.0739239,2.1518881 8.0714939,2.4634227 l -0.032057,4.2790456 c 0.00144,0.00212 0.00287,0.00426 0.00428,0.00641 l -0.00215,0.057706 c -6.796e-4,0.0063 -0.095781,0.8726629 0.2671831,1.8124937 0.3188966,0.8257243 1.3882389,1.940282 3.030806,1.947149 1.618447,0.0067 2.692233,-1.013824 3.032914,-1.7911012 0.385371,-0.8792013 0.315083,-1.6953488 0.314204,-1.7056368 l -0.0022,-0.055557 c 0.0013,-0.00144 0.0029,-0.00288 0.0043,-0.0043 V 2.4976273 c -4e-6,-0.3119131 -0.235249,-0.5471582 -0.547161,-0.5471607 -0.311913,2.5e-6 -0.547159,0.2352476 -0.547161,0.5471607 v 4.582544 c 2.07e-4,0.012003 0.0012,0.024367 0.0022,0.036335 0.0012,0.017073 0.002,0.034182 0.0022,0.051299 0,0 0.03809,0.5630492 -0.226569,1.1670124 -0.06436,0.1468159 -0.185795,0.5341167 -0.581375,0.810068 -0.395579,0.2759528 -0.84572,0.3295417 -1.44701,0.327019 -0.59783,-0.0025 -1.062257,-0.061736 -1.4577609,-0.3697819 C 9.4906357,8.7940773 9.4007436,8.4057563 9.3304196,8.2236648 9.071702,7.5537653 9.127371,6.9219962 9.127371,6.9219962 c 9.551e-4,-0.014998 0.00246,-0.029952 0.00428,-0.044872 0.0014,-0.014215 0.00185,-0.028485 0.00213,-0.042763 L 9.1658354,2.4719793 C 9.1677877,2.160054 8.9348581,1.9224713 8.6229328,1.9205403 Z M 11.341642,11.989838 a 1.3170242,1.3132176 0 0 0 -1.317017,1.313205 1.3170242,1.3132176 0 0 0 1.317017,1.313227 1.3170242,1.3132176 0 0 0 1.317039,-1.313227 1.3170242,1.3132176 0 0 0 -1.317039,-1.313205 z" /></g></svg>
