<?xml version="1.0" encoding="UTF-8" standalone="no"?>
<!-- Created with Inkscape (http://www.inkscape.org/) -->

<svg
   version="1.1"
   id="svg2"
   width="1600"
   height="1600"
   viewBox="0 0 1600 1600"
   sodipodi:docname="modifier_data.svg"
   inkscape:version="1.2.2 (732a01da63, 2022-12-09)"
   xmlns:inkscape="http://www.inkscape.org/namespaces/inkscape"
   xmlns:sodipodi="http://sodipodi.sourceforge.net/DTD/sodipodi-0.dtd"
   xmlns="http://www.w3.org/2000/svg"
   xmlns:svg="http://www.w3.org/2000/svg"
   xmlns:rdf="http://www.w3.org/1999/02/22-rdf-syntax-ns#"
   xmlns:cc="http://creativecommons.org/ns#"
   xmlns:dc="http://purl.org/dc/elements/1.1/">
  <metadata
     id="metadata8">
    <rdf:RDF>
      <cc:Work
         rdf:about="">
        <dc:format>image/svg+xml</dc:format>
        <dc:type
           rdf:resource="http://purl.org/dc/dcmitype/StillImage" />
      </cc:Work>
    </rdf:RDF>
  </metadata>
  <defs
     id="defs6" />
  <sodipodi:namedview
     pagecolor="#808080"
     bordercolor="#666666"
     borderopacity="1"
     objecttolerance="10"
     gridtolerance="10"
     guidetolerance="10"
     inkscape:pageopacity="0"
     inkscape:pageshadow="2"
     inkscape:window-width="1993"
     inkscape:window-height="1009"
     id="namedview4"
     showgrid="false"
     inkscape:zoom="0.5"
     inkscape:cx="401"
     inkscape:cy="954"
     inkscape:window-x="-8"
     inkscape:window-y="-8"
     inkscape:window-maximized="1"
     inkscape:current-layer="MODIFIER_DATA"
     inkscape:showpageshadow="0"
     inkscape:pagecheckerboard="true"
     inkscape:deskcolor="#d1d1d1" />
  <g
     id="MODIFIER_DATA"
     transform="matrix(100,0,0,100,0,4.9999997e-5)"
     style="stroke-width:0.0114286">
    <path
       style="fill:none;stroke-width:0.000357143"
       d="M 0,8 V 0 h 8 8 v 8 8 H 8 0 Z m 13.394273,7.466265 c 0.297096,-0.04132 0.6665,-0.172917 0.926368,-0.330005 0.25032,-0.151316 0.664303,-0.565299 0.815619,-0.815619 0.471492,-0.779981 0.472222,-1.81959 0.0018,-2.610032 C 15.04822,11.559638 14.384942,10.877239 12.199666,8.6875 L 9.3773362,5.859375 9.41078,5.625 C 9.4302159,5.4887919 9.4373909,5.1615687 9.4279103,4.84375 9.4147063,4.4011091 9.3965466,4.2368894 9.3326341,3.9821528 9.1961744,3.4382644 8.9835759,2.9565253 8.6786484,2.5002482 8.4768206,2.1982436 7.8330063,1.5544295 7.5310019,1.3526015 6.8470653,0.89553031 6.0995966,0.63985141 5.3412834,0.60358709 4.7569294,0.57564194 4.7615544,0.57393784 4.3637094,0.96376863 4.1767344,1.1469771 4.0043475,1.3421265 3.9806275,1.3974338 3.9252597,1.5265331 3.9255281,1.7244867 3.9812431,1.8525662 4.0053025,1.9078735 4.469365,2.39601 5.0124931,2.937314 L 6,3.9215028 V 4.9607516 6 H 4.9607516 3.9215028 L 2.937314,5.0124947 C 2.39601,4.4693666 1.9078735,4.0053041 1.8525662,3.9812447 1.7244867,3.9255281 1.5265331,3.9252597 1.3974338,3.9806291 1.3421265,4.0043491 1.1469771,4.1767359 0.96376863,4.3637109 0.57393784,4.7615559 0.57564194,4.7569309 0.60358709,5.341285 0.63985141,6.0995981 0.89553031,6.8470669 1.3526015,7.5310034 1.5544295,7.8330078 2.1982436,8.4768222 2.5002482,8.67865 c 0.4562771,0.3049275 0.9380162,0.5175259 1.4819046,0.6539856 0.2547366,0.063913 0.4189563,0.082072 0.8615972,0.095276 0.3178187,0.00948 0.6450419,0.00231 0.78125,-0.01713 L 5.859375,9.3773378 8.6875,12.199698 c 2.189739,2.185276 2.872138,2.848553 3.023109,2.938395 0.502761,0.299192 1.081288,0.411956 1.683664,0.328174 z m -0.57616,-2.017076 c -0.330871,-0.168608 -0.372627,-0.590336 -0.08051,-0.813145 0.284321,-0.216862 0.70464,-0.03426 0.75312,0.327185 0.04666,0.347884 -0.362894,0.643788 -0.67261,0.48596 z"
       id="path827"
       inkscape:connector-curvature="0" />
    <path
       style="fill:#fefefe;stroke-width:0.000357143"
       d="m 12.699648,14.453488 c -0.346097,-0.07529 -0.682461,-0.288695 -0.877265,-0.556585 -0.065,-0.08939 -0.128123,-0.166932 -0.140269,-0.172314 -0.03592,-0.01592 -0.143962,-0.383174 -0.164899,-0.560526 L 11.497847,13 h 0.262676 0.262675 l 0.01997,0.148438 c 0.03805,0.282817 0.260905,0.575227 0.559263,0.733808 0.189492,0.100717 0.605646,0.100717 0.795138,0 0.298358,-0.158581 0.521215,-0.450991 0.559263,-0.733808 L 13.976802,13 h 0.261599 c 0.295467,0 0.281094,0.01897 0.216507,-0.285749 -0.07463,-0.352114 -0.297836,-0.712353 -0.54927,-0.886496 C 13.831483,11.776396 13.615479,11.572656 13.425628,11.375 13.235777,11.177344 12.022393,9.9539062 10.72922,8.65625 9.4206341,7.3431275 8.3634741,6.2578644 8.3452478,6.2089031 8.2983919,6.0830322 8.3047028,5.9104341 8.3650991,5.6660016 8.40159,5.5183172 8.41784,5.3191434 8.4181616,5.015625 8.4185553,4.6428209 8.4060337,4.5275675 8.3334806,4.236235 8.020295,2.9786584 7.0597872,2.0135446 5.8111912,1.7018505 5.5191959,1.6289581 5.4277725,1.6205962 4.953125,1.6233692 l -0.53125,0.0031 L 4.6875,1.3569934 4.953125,1.0875142 5.28125,1.1051014 c 0.6496075,0.034819 1.3691184,0.2837939 1.956035,0.6768549 0.3167103,0.2121027 0.7999059,0.6952982 1.0120088,1.0120087 0.2441731,0.364598 0.4599296,0.8410621 0.5703606,1.2595505 0.09161,0.3471656 0.09728,0.4016222 0.098547,0.9464844 0.00105,0.4510465 -0.010722,0.6262087 -0.05355,0.796875 l -0.054895,0.21875 2.9143306,2.9098909 c 2.316188,2.3126592 2.93545,2.9476262 3.017234,3.0937502 0.129188,0.23082 0.219775,0.516763 0.246572,0.778318 L 15.008631,13 h -0.251492 -0.251492 l -0.03726,0.22093 c -0.103175,0.611695 -0.574893,1.105205 -1.1787,1.233155 -0.254023,0.05383 -0.340239,0.05374 -0.590034,-5.97e-4 z M 3.5068628,6.9287275 C 3.3683991,6.8705331 3.2012247,6.7188059 2.4678002,5.9856769 1.9735623,5.4916378 1.59375,5.0876487 1.59375,5.0559894 1.59375,5.0068359 1.5632262,5 1.34375,5 c -0.1375,0 -0.25,-0.010857 -0.25,-0.024127 0,-0.01327 0.1196462,-0.1431522 0.2658805,-0.2886266 L 1.6255111,4.4227466 2.633068,5.4286616 c 0.5541564,0.5532531 1.0471442,1.0206353 1.0955289,1.0386268 0.1209297,0.044967 2.3302156,0.044408 2.4490562,-6.187e-4 0.117091,-0.044365 0.2271531,-0.1486159 0.2782331,-0.2635434 0.037528,-0.084436 0.041789,-0.054457 0.042891,0.30175 l 0.00122,0.3955 -0.1461918,0.049813 c -0.1245288,0.042431 -0.3340517,0.04967 -1.414061,0.048852 -1.2381222,-9.376e-4 -1.2717422,-0.00259 -1.4328828,-0.070312 z"
       id="path825"
       inkscape:connector-curvature="0" />
    <path
       style="fill:#cbe5fe;stroke-width:0.000357143"
       d="M 8.9999316,11.075038 C 7.4484234,9.5216984 6.2859603,8.3817163 6.2275663,8.3562884 6.094545,8.2983641 5.9253441,8.3010188 5.6660016,8.3650991 5.5183172,8.40159 5.3191434,8.41784 5.015625,8.4181616 4.6428209,8.4185553 4.5275675,8.4060338 4.236235,8.3334806 2.9765838,8.0197784 1.9937703,7.0395662 1.7066994,5.81064 1.6190607,5.4354659 1.5804993,5.15625 1.6163242,5.15625 c 0.0136,0 0.4113498,0.3869478 0.8838889,0.8598841 0.7533435,0.7539768 0.8795128,0.8675193 1.0243966,0.921875 C 3.6794106,6.9960856 3.7696694,7 4.9539622,7 6.4213475,7 6.4177384,7.0005906 6.7097262,6.7122309 7.0000678,6.4254959 7,6.4259066 7,4.953125 7,3.7696669 6.9960831,3.6794038 6.9380091,3.5246097 6.8836534,3.3797259 6.7701109,3.2535566 6.0161341,2.5002131 5.5431978,2.027674 5.15625,1.6299241 5.15625,1.6163242 c 0,-0.035825 0.2792159,0.00274 0.65439,0.090375 1.2289262,0.2870709 2.2091384,1.2698844 2.5228406,2.5295356 0.072553,0.2913325 0.085075,0.4065859 0.084681,0.77939 -3.219e-4,0.3035184 -0.016572,0.5026922 -0.053062,0.6503766 -0.060427,0.2445581 -0.066738,0.41774 -0.01973,0.5413818 0.018078,0.047549 1.2358437,1.29398 2.7061464,2.7698469 1.470303,1.4758669 2.667059,2.6896119 2.65946,2.6972109 -0.0076,0.0076 -0.08279,-0.01734 -0.167083,-0.05543 -0.233994,-0.105722 -0.747281,-0.118766 -1.025832,-0.02607 -0.411773,0.137029 -0.787723,0.512242 -0.924216,0.922403 -0.09981,0.299937 -0.09625,0.739516 0.0083,1.02372 0.04268,0.116015 0.0758,0.210937 0.07359,0.210937 -0.0022,0 -1.206315,-1.203733 -2.6758089,-2.674962 z m 2.1594674,0.420771 c 0.153687,-0.05128 0.297285,-0.200474 0.340088,-0.353352 0.07748,-0.276744 0.113669,-0.232973 -1.6360686,-1.9790189 C 8.5861803,7.8888947 8.2415756,7.5614284 8.1457528,7.5311981 7.7970597,7.4211925 7.4309694,7.7824584 7.5305872,8.1382575 c 0.032576,0.1163519 0.2361681,0.3314137 1.6361219,1.7283019 1.0048239,1.0026226 1.6337499,1.6073676 1.6926659,1.6275856 0.125845,0.04319 0.174763,0.04346 0.300024,0.0017 z"
       id="path823"
       inkscape:connector-curvature="0" />
    <path
       style="fill:#6598fe;stroke-width:0.000357143"
       d="m 12.734375,14.966828 c -0.245671,-0.03656 -0.517781,-0.13521 -0.75,-0.271892 -0.143136,-0.08425 -0.871817,-0.793463 -3.0796766,-2.997401 L 6.0125219,8.8104953 5.7953234,8.8650206 C 5.6264088,8.9074247 5.4496066,8.9192469 5,8.9182016 4.4551378,8.9169359 4.4006812,8.9112647 4.0535156,8.8196544 3.6350272,8.7092234 3.1585631,8.4934669 2.7939652,8.2492938 2.4772546,8.0371909 1.9940591,7.5539953 1.7819564,7.237285 1.3986693,6.6649628 1.1463993,5.9467506 1.1045943,5.3088366 L 1.084355,5 h 0.2506623 0.2506624 l 0.021905,0.2511144 c 0.070103,0.8036453 0.4449324,1.6187134 0.9993849,2.1731659 0.4220552,0.4220553 1.0256157,0.7588681 1.6292654,0.9092003 0.2913325,0.072553 0.4065859,0.085075 0.77939,0.084681 0.3035184,-3.219e-4 0.5026922,-0.016572 0.6503766,-0.053062 0.2443218,-0.060369 0.4169478,-0.066705 0.5429015,-0.019927 0.049488,0.018379 1.267071,1.211119 2.7832844,2.7264954 1.4824215,1.481602 2.6953125,2.681017 2.6953125,2.665365 0,-0.01565 0.05607,0.04985 0.124608,0.145556 0.307936,0.430029 0.891677,0.673022 1.407701,0.585984 0.612882,-0.103376 1.106219,-0.574576 1.234276,-1.17889 C 14.519424,12.981341 14.532308,13 14.254064,13 h -0.245936 l -0.01553,-0.137795 c -0.03307,-0.293401 -0.260194,-0.600805 -0.549007,-0.743064 -0.21121,-0.104034 -0.64472,-0.104034 -0.85593,0 -0.288813,0.142259 -0.515936,0.449663 -0.549007,0.743064 L 12.023122,13 H 11.777186 11.53125 v -0.150182 c 0,-0.503867 0.451294,-1.07867 0.98681,-1.256878 0.173207,-0.05764 0.258806,-0.06662 0.54267,-0.0569 0.320518,0.01097 0.349061,0.01764 0.58273,0.136185 0.44602,0.226272 0.743783,0.625798 0.824922,1.106844 L 14.505647,13 h 0.248253 0.248253 l -0.01939,0.164063 c -0.08799,0.744659 -0.4926,1.333046 -1.121163,1.630404 -0.333125,0.157593 -0.773756,0.224969 -1.127229,0.172361 z m -1.875,-3.472683 C 10.800459,11.473927 10.171533,10.869182 9.1667091,9.8665594 7.7667553,8.4696713 7.5631638,8.2546094 7.5305872,8.1382575 7.4309694,7.7824584 7.7970597,7.4211925 8.1457528,7.5311981 c 0.095823,0.03023 0.4404275,0.3576966 1.7176656,1.63224 1.7497376,1.7460459 1.7135526,1.7022749 1.6360686,1.9790189 -0.0428,0.152878 -0.186401,0.302076 -0.340088,0.353352 -0.125261,0.04179 -0.174179,0.04152 -0.300024,-0.0017 z M 6.5,5.3457844 C 6.5,4.3576138 6.4884266,3.7854437 6.4672884,3.7285969 6.4492969,3.6802122 5.9818,3.1871094 5.4284062,2.6328125 L 4.4222356,1.625 H 4.7816397 5.1410434 L 6.0082025,2.4925738 C 6.7625391,3.2472716 6.8834694,3.3814863 6.9376806,3.5241591 6.9962122,3.6782019 7,3.7650544 7,4.953125 7,6.4211231 7.0005469,6.4177841 6.7126669,6.7092847 6.6226556,6.8004281 6.5379828,6.875 6.524505,6.875 6.5110272,6.875 6.5,6.1868528 6.5,5.3457844 Z"
       id="path821"
       inkscape:connector-curvature="0" />
    <path
       style="fill:#323232;stroke-width:0.000357143"
       d="M 12.600336,15.464117 C 12.34687,15.427789 11.957916,15.285263 11.710609,15.138092 11.559638,15.048249 10.877239,14.384973 8.6875,12.199697 L 5.859375,9.3773362 5.625,9.41078 C 5.4887919,9.4302159 5.1615687,9.4373909 4.84375,9.4279103 4.4011091,9.4147063 4.2368894,9.3965466 3.9821528,9.3326341 3.4382644,9.1961744 2.9565253,8.9835759 2.5002482,8.6786484 2.1982436,8.4768206 1.5544295,7.8330063 1.3526015,7.5310019 0.89553031,6.8470653 0.63985141,6.0995966 0.60358709,5.3412834 0.57564194,4.7569294 0.57393784,4.7615544 0.96376863,4.3637094 1.1469771,4.1767344 1.3421265,4.0043475 1.3974338,3.9806275 1.5265331,3.9252597 1.7244867,3.9255281 1.8525662,3.9812431 1.9078735,4.0053025 2.39601,4.469365 2.937314,5.0124931 L 3.9215028,6 H 4.9607516 6 V 4.9607516 3.9215028 L 5.0124947,2.937314 C 4.4693666,2.39601 4.0053041,1.9078735 3.9812447,1.8525662 3.9255281,1.7244867 3.9252597,1.5265331 3.9806291,1.3974338 4.0043491,1.3421265 4.1767359,1.1469771 4.3637109,0.96376863 4.7615559,0.57393784 4.7569309,0.57564194 5.341285,0.60358709 6.0995981,0.63985141 6.8470669,0.89553031 7.5310034,1.3526015 7.8330078,1.5544295 8.4768222,2.1982436 8.67865,2.5002482 c 0.3049275,0.4562771 0.5175259,0.9380162 0.6539856,1.4819046 0.063913,0.2547366 0.082072,0.4189563 0.095276,0.8615972 0.00948,0.3178187 0.00231,0.6450419 -0.01713,0.78125 L 9.3773378,5.859375 12.199698,8.6875 c 2.185276,2.189739 2.848553,2.872138 2.938395,3.023109 0.47039,0.790442 0.469661,1.830051 -0.0018,2.610032 -0.151316,0.25032 -0.565299,0.664303 -0.815619,0.815619 -0.496881,0.30036 -1.104369,0.416136 -1.720305,0.327857 z M 13.26924,14.96627 c 0.736868,-0.102489 1.333168,-0.577438 1.593573,-1.269272 0.04418,-0.117365 0.09249,-0.341729 0.112344,-0.521765 0.04527,-0.410456 -0.0092,-0.70359 -0.200535,-1.078387 -0.132416,-0.259432 -0.168385,-0.296845 -3.049431,-3.1718748 L 8.8097566,6.015625 8.8646513,5.796875 C 8.9074794,5.6262087 8.9192503,5.4510466 8.9182016,5 8.9169359,4.4551378 8.9112647,4.4006812 8.8196544,4.0535156 8.7092234,3.6350272 8.4934669,3.1585631 8.2492938,2.7939652 8.0371909,2.4772546 7.5539953,1.9940591 7.237285,1.7819564 6.6503684,1.3888954 5.9308575,1.13992 5.28125,1.1051016 L 4.953125,1.0875143 4.6881622,1.3562849 4.4231997,1.6250556 5.4437034,2.6484653 C 6.30062,3.5078222 6.4673272,3.6894078 6.4836703,3.78125 c 0.010705,0.060156 0.015243,0.6251616 0.010084,1.2555672 -0.00901,1.101209 -0.011908,1.1495772 -0.07381,1.2324441 -0.035437,0.047438 -0.1032444,0.1152459 -0.1506829,0.1506828 -0.082867,0.061902 -0.131235,0.064799 -1.232444,0.07381 C 4.4064116,6.4989128 3.8414063,6.494375 3.78125,6.4836703 3.6894078,6.4673272 3.5078222,6.30062 2.6484653,5.4437034 L 1.6250556,4.4231997 1.3562849,4.6881622 1.0875143,4.953125 1.1051016,5.28125 C 1.13992,5.9308575 1.3888954,6.6503684 1.7819564,7.237285 1.9940591,7.5539953 2.4772546,8.0371909 2.7939652,8.2492938 3.1585631,8.4934669 3.6350272,8.7092234 4.0535156,8.8196544 4.4006813,8.9112647 4.4551378,8.9169347 5,8.9182016 c 0.4496066,0.00105 0.6264088,-0.010777 0.7953234,-0.053181 l 0.2171985,-0.054525 2.8921765,2.8870394 c 2.2078596,2.203938 2.9365406,2.913153 3.0796766,2.997401 0.233891,0.137666 0.506216,0.235962 0.75,0.270714 0.265925,0.03791 0.266762,0.03791 0.534865,6.2e-4 z m -0.554169,-1.038765 c -0.263658,-0.09864 -0.461903,-0.274618 -0.597006,-0.529936 -0.101532,-0.191874 -0.100986,-0.602703 0.0011,-0.809909 0.09253,-0.187852 0.281836,-0.376805 0.468519,-0.467642 0.177554,-0.08639 0.510737,-0.113088 0.711153,-0.05697 0.29201,0.08176 0.5876,0.377255 0.669313,0.669104 0.03041,0.108608 0.03094,0.185039 0.0024,0.348711 -0.0629,0.361209 -0.238181,0.615004 -0.537107,0.7777 -0.194947,0.106104 -0.53249,0.138499 -0.718389,0.06895 z m 0.577207,-0.531255 c 0.298752,-0.227869 0.250839,-0.654693 -0.09174,-0.817258 -0.312453,-0.148269 -0.706344,0.143581 -0.66001,0.489029 0.04835,0.360501 0.468775,0.544065 0.751751,0.328229 z"
       id="path819"
       inkscape:connector-curvature="0" />
  </g>
</svg>
