<?xml version="1.0" encoding="UTF-8" standalone="no"?>
<!-- Created with Inkscape (http://www.inkscape.org/) -->

<svg
   version="1.1"
   id="svg2"
   width="1600"
   height="1600"
   viewBox="0 0 1600 1600"
   sodipodi:docname="mouse_rmb_drag.svg"
   inkscape:version="1.2.2 (732a01da63, 2022-12-09)"
   xmlns:inkscape="http://www.inkscape.org/namespaces/inkscape"
   xmlns:sodipodi="http://sodipodi.sourceforge.net/DTD/sodipodi-0.dtd"
   xmlns="http://www.w3.org/2000/svg"
   xmlns:svg="http://www.w3.org/2000/svg"
   xmlns:rdf="http://www.w3.org/1999/02/22-rdf-syntax-ns#"
   xmlns:cc="http://creativecommons.org/ns#"
   xmlns:dc="http://purl.org/dc/elements/1.1/">
  <metadata
     id="metadata8">
    <rdf:RDF>
      <cc:Work
         rdf:about="">
        <dc:format>image/svg+xml</dc:format>
        <dc:type
           rdf:resource="http://purl.org/dc/dcmitype/StillImage" />
      </cc:Work>
    </rdf:RDF>
  </metadata>
  <defs
     id="defs6" />
  <sodipodi:namedview
     pagecolor="#808080"
     bordercolor="#666666"
     borderopacity="1"
     objecttolerance="10"
     gridtolerance="10"
     guidetolerance="10"
     inkscape:pageopacity="0"
     inkscape:pageshadow="2"
     inkscape:window-width="1993"
     inkscape:window-height="1009"
     id="namedview4"
     showgrid="false"
     inkscape:zoom="0.5"
     inkscape:cx="337"
     inkscape:cy="448"
     inkscape:window-x="-8"
     inkscape:window-y="-8"
     inkscape:window-maximized="1"
     inkscape:current-layer="MOUSE_RMB_DRAG"
     inkscape:showpageshadow="0"
     inkscape:pagecheckerboard="true"
     inkscape:deskcolor="#d1d1d1" />
  <g
     id="MOUSE_RMB_DRAG"
     transform="matrix(100,0,0,100,0,4.9999997e-5)"
     style="stroke-width:0.0114286">
    <path
       style="fill:none;stroke-width:0.000357143"
       d="M 0.0021988,14.492188 0.0043976,12.984375 0.06120919,13.25 c 0.22032266,1.030128 0.90141731,1.917121 1.82941581,2.382458 0.3022152,0.151543 0.6380414,0.268104 0.9190207,0.31898 0.2167195,0.03924 0.1055196,0.0432 -1.2862082,0.04576 L 0,16 Z m 8.1748593,1.461539 c 1.022476,-0.185524 1.9524769,-0.873736 2.4289859,-1.797477 0.174635,-0.338539 0.283786,-0.644887 0.345287,-0.96909 0.04054,-0.213702 0.04865,-0.557486 0.04855,-2.0578 -1.25e-4,-1.7422319 -0.0022,-1.8045712 -0.06221,-1.9030831 -0.09348,-0.1533253 -0.235195,-0.2260228 -0.44086,-0.22616 -0.205809,-1.25e-4 -0.347842,0.079076 -0.448244,0.2499894 C 9.98634,9.3560338 9.98387,9.4152781 9.967804,11.1875 c -0.016409,1.810105 -0.017292,1.830281 -0.089496,2.046875 -0.2841472,0.852361 -0.8955735,1.432468 -1.7689313,1.67832 -0.2492763,0.07017 -0.2568294,0.07038 -2.609375,0.07038 -2.3525456,0 -2.3600987,-2.19e-4 -2.609375,-0.07038 -0.9183308,-0.258513 -1.5428443,-0.88285 -1.8038275,-1.80332 l -0.070883,-0.25 V 8.5 4.140625 l 0.070883,-0.25 C 1.3482704,2.9684283 1.9896206,2.3289021 2.890625,2.0919278 3.0998372,2.0369027 3.2666666,2.0233082 3.9131678,2.0086037 4.589785,1.9932142 4.6974981,1.9838641 4.7806409,1.9333018 4.9263687,1.8446795 4.9997663,1.6995418 4.9997663,1.5 4.9997663,1.2977202 4.9262134,1.1553056 4.7737231,1.0623312 4.6791016,1.0046397 4.6150247,1.0002253 3.8706397,1.0001168 3.2858406,1.0000316 3.0021205,1.0127635 2.8203238,1.0472497 1.4458761,1.307978 0.35494575,2.3766224 0.06120919,3.75 L 0.0043976,4.015625 0.0021988,2.0078125 0,0 6.2265625,0.00137165 C 11.51748,0.00253719 12.435205,0.00913445 12.333869,0.04527537 12.103321,0.12749903 12,0.28009502 12,0.53836981 c 0,0.19588131 0.02014,0.2297216 0.341751,0.57415609 0.358666,0.3841229 0.558084,0.7571235 0.624835,1.1687241 0.02148,0.1324571 0.03307,1.2794516 0.0333,3.296875 3.46e-4,3.0317409 0.0016,3.0957913 0.06245,3.1955981 0.09348,0.1533253 0.235195,0.2260228 0.44086,0.22616 0.205809,1.25e-4 0.347842,-0.079076 0.448244,-0.2499893 0.06364,-0.1083347 0.06419,-0.1370513 0.06419,-3.3592688 0,-2.9810104 -0.0045,-3.2674257 -0.05415,-3.460541 C 13.869331,1.5717728 13.727902,1.2464466 13.533988,0.94673237 13.31123,0.60243725 12.877072,0.13838606 12.703125,0.05866273 12.580095,0.00227564 12.605093,0.00136181 14.289063,6.863125e-4 L 16,0 15.999475,1.1796875 15.99895,2.359375 15.933037,2.2564381 C 15.73852,1.9526569 15.224937,1.9669326 15.057943,2.2807624 15.003106,2.3838129 15,2.5071098 15,4.5808287 v 2.1911785 l 0.07031,0.1033106 c 0.120778,0.1774569 0.22323,0.2330156 0.42969,0.2330156 0.20646,0 0.308912,-0.055559 0.429688,-0.2330156 L 16,6.7720072 V 11.386004 16 L 11.976563,15.9972 C 8.5748084,15.9948 7.9877262,15.9881 8.1770581,15.95375 Z M 10.802412,7.9200456 c 0.04852,-0.035381 0.119854,-0.1262515 0.158526,-0.201934 0.07022,-0.137416 0.07031,-0.1398029 0.07031,-1.7415897 0,-0.9306675 -0.01402,-1.7297453 -0.03341,-1.9035725 C 10.866294,2.8931955 10.14333,1.8651849 9.078125,1.3432266 8.478545,1.0494278 8.0358884,0.96875 7.0234781,0.96875 c -0.5647497,0 -0.6129237,0.004568 -0.7415897,0.0703125 -0.075683,0.038672 -0.1665528,0.110012 -0.201934,0.1585336 -0.063817,0.087519 -0.064393,0.1136479 -0.072274,3.2812501 -0.00782,3.1427269 -0.00696,3.1946332 0.054402,3.2948769 0.034291,0.056017 0.1081781,0.1299506 0.1641947,0.1642981 0.099616,0.061082 0.1498965,0.062273 2.2948847,0.054402 2.1579622,-0.00792 2.1944472,-0.00908 2.2812502,-0.072378 z"
       id="path823"
       inkscape:connector-curvature="0" />
    <path
       style="fill:#fefefe;stroke-width:0.000357143"
       d="M 2.8096457,15.951438 C 2.5075465,15.896738 2.1807134,15.779866 1.84375,15.606044 0.92269916,15.130923 0.24387558,14.216203 0.04866939,13.18716 0.00604546,12.962465 0,12.38025 0,8.5 0,4.6197497 0.00604546,4.0375353 0.04866939,3.81284 0.24471142,2.7793905 0.91948194,1.8729093 1.8537764,1.387874 2.4808952,1.0623078 2.8051806,0.99996147 3.8706397,1.0001168 c 0.744385,1.094e-4 0.8084619,0.00452 0.9030834,0.062214 0.3045591,0.1856919 0.308545,0.6875401 0.00692,0.8709706 C 4.6974981,1.9838641 4.589785,1.9932142 3.9131678,2.0086037 3.2666666,2.0233082 3.0998372,2.0369027 2.890625,2.0919278 1.9896206,2.3289021 1.3482704,2.9684283 1.0867975,3.890625 l -0.070883,0.25 V 8.5 12.859375 l 0.070883,0.25 c 0.2609832,0.92047 0.8854967,1.544807 1.8038275,1.80332 0.2492763,0.07017 0.2568294,0.07038 2.609375,0.07038 2.3525456,0 2.3600988,-2.19e-4 2.609375,-0.07038 0.8733578,-0.245852 1.4847841,-0.825959 1.7689313,-1.67832 0.072205,-0.216594 0.073087,-0.23677 0.089496,-2.046875 0.016066,-1.7722219 0.018535,-1.8314662 0.080763,-1.9373937 0.100402,-0.1709138 0.242435,-0.2501269 0.448244,-0.2499894 0.205665,1.25e-4 0.347376,0.072835 0.44086,0.22616 0.06006,0.098512 0.0621,0.1608512 0.06221,1.9030831 1.25e-4,1.952718 -0.0076,2.063382 -0.177019,2.537815 -0.368157,1.030921 -1.1604223,1.817435 -2.1822345,2.166386 -0.4761997,0.162623 -0.5543034,0.166656 -3.1681559,0.163635 -1.9119807,-0.0022 -2.4758268,-0.0119 -2.6628234,-0.04576 z M 6.2262769,7.9380212 C 6.1702603,7.9036737 6.0963728,7.8297397 6.0620822,7.7737231 6.0007178,7.6734794 5.9998609,7.6215731 6.0076803,4.4788462 6.0155619,1.311244 6.0161372,1.2851147 6.0799544,1.1975961 6.1153356,1.1490745 6.2062059,1.0777344 6.2818884,1.0390625 6.4105544,0.97331753 6.4587284,0.96875 7.0234781,0.96875 c 1.0124103,0 1.4550669,0.0806778 2.0546469,0.3744766 1.065205,0.5219583 1.788169,1.5499689 1.919719,2.7297228 0.01938,0.1738272 0.03341,0.972905 0.03341,1.9035725 0,1.6017869 -9.4e-5,1.6041737 -0.07031,1.7415897 -0.03867,0.075683 -0.110009,0.1665528 -0.158526,0.201934 -0.0868,0.063301 -0.123288,0.064458 -2.2812504,0.072377 -2.1449882,0.00787 -2.1952682,0.00668 -2.2948847,-0.054402 z"
       id="path821"
       inkscape:connector-curvature="0" />
    <path
       style="fill:#fefe00;stroke-width:0.000357143"
       d="M 13.226277,8.9376688 C 13.17026,8.903515 13.096485,8.8297397 13.062331,8.7737231 13.001478,8.6739163 13.000227,8.6098659 12.999881,5.578125 12.999662,3.5607016 12.988067,2.4137071 12.966586,2.28125 12.899835,1.8696494 12.700417,1.4966488 12.341751,1.1125259 12.018169,0.76597806 11.99998,0.73507484 12.000117,0.53210919 c 1.87e-4,-0.28086208 0.161176,-0.46981937 0.440475,-0.51700669 0.186691,-0.03154121 0.352125,0.06359221 0.647412,0.37229841 0.438845,0.45878703 0.724447,0.96320039 0.873475,1.54268309 0.04966,0.1931153 0.05415,0.4795306 0.05415,3.460541 0,3.2222175 -5.5e-4,3.2509341 -0.06419,3.3592688 C 13.851033,8.9208075 13.709,9.0000206 13.503191,8.9998831 13.38367,8.9997894 13.295811,8.9800641 13.226277,8.9376688 Z M 15.331853,7.0942769 C 15.282341,7.0785709 15.207177,7.0333553 15.164822,6.9937978 14.99385,6.8341203 15,6.9245063 15,4.5713769 15,2.5068619 15.003113,2.3838 15.057941,2.2807624 15.225973,1.9649815 15.744297,1.9530155 15.934351,2.2605296 15.999424,2.3658203 16,2.3860753 16,4.5693797 v 2.2026275 l -0.07031,0.1033106 c -0.03867,0.056821 -0.105469,0.1291319 -0.148438,0.1606916 -0.09298,0.068293 -0.32355,0.098188 -0.449397,0.058267 z"
       id="path819"
       inkscape:connector-curvature="0" />
  </g>
</svg>
