<?xml version="1.0" encoding="UTF-8" standalone="no"?>
<!-- Created with Inkscape (http://www.inkscape.org/) -->

<svg
   version="1.1"
   id="svg2"
   width="1600"
   height="1600"
   viewBox="0 0 1600 1600"
   sodipodi:docname="named_layer_selection.svg"
   inkscape:version="1.2.2 (732a01da63, 2022-12-09)"
   xmlns:inkscape="http://www.inkscape.org/namespaces/inkscape"
   xmlns:sodipodi="http://sodipodi.sourceforge.net/DTD/sodipodi-0.dtd"
   xmlns="http://www.w3.org/2000/svg"
   xmlns:svg="http://www.w3.org/2000/svg">
  <defs
     id="defs6" />
  <sodipodi:namedview
     id="namedview4"
     pagecolor="#808080"
     bordercolor="#000000"
     borderopacity="0.25"
     inkscape:showpageshadow="2"
     inkscape:pageopacity="0"
     inkscape:pagecheckerboard="true"
     inkscape:deskcolor="#303030"
     showgrid="false"
     inkscape:zoom="0.5"
     inkscape:cx="597"
     inkscape:cy="790"
     inkscape:window-width="1993"
     inkscape:window-height="1009"
     inkscape:window-x="-8"
     inkscape:window-y="-8"
     inkscape:window-maximized="1"
     inkscape:current-layer="NAMED_LAYER_SELECTION" />
  <g
     id="NAMED_LAYER_SELECTION"
     transform="matrix(100,0,0,100,0,4.9999997e-5)"
     style="stroke-width:0.0114286">
    <path
       style="fill:none;stroke-width:0.000357143"
       d="M 0,8 V 0 h 8 8 v 8 8 H 8 0 Z m 13.03125,7.110269 c 0.163281,-0.02509 0.402344,-0.07478 0.53125,-0.110433 0.270926,-0.07493 0.80764,-0.331194 1.179688,-0.563264 L 15,14.275758 V 13.137879 12 H 13.703125 12.40625 v 0.49931 0.499311 l 0.585938,0.0085 0.585937,0.0085 v 0.34375 0.34375 l -0.1875,0.101406 c -0.103125,0.05577 -0.302789,0.138063 -0.443698,0.182867 -0.232774,0.07401 -0.292777,0.08038 -0.65625,0.06969 -0.359539,-0.01058 -0.419744,-0.02079 -0.594501,-0.10081 -0.125746,-0.05758 -0.250578,-0.148385 -0.353309,-0.257008 -0.274212,-0.289939 -0.370364,-0.596678 -0.39552,-1.261769 -0.01891,-0.500032 0.0241,-0.843926 0.145747,-1.165143 0.09011,-0.237943 0.352319,-0.522196 0.588857,-0.638354 0.157226,-0.07721 0.21898,-0.08839 0.542455,-0.09817 0.281947,-0.0085 0.401167,9.62e-4 0.523798,0.04169 0.194313,0.06454 0.467702,0.305416 0.547508,0.482392 0.04595,0.101898 0.06985,0.123453 0.122855,0.110799 0.0362,-0.0086 0.37384,-0.07151 0.750323,-0.139708 0.376482,-0.0682 0.690444,-0.129929 0.697693,-0.137177 0.02972,-0.02972 -0.182222,-0.468421 -0.31869,-0.659664 C 14.292779,9.8766603 13.939121,9.6486328 13.444803,9.5229334 13.196952,9.4599078 13.098657,9.4536766 12.375,9.4551153 c -0.759865,0.00151 -0.810988,0.0054 -1.100745,0.083727 -1.119334,0.3025816 -1.7999491,1.1566497 -1.9327903,2.4253587 -0.082638,0.789239 0.1362675,1.645261 0.5705356,2.231056 0.3551277,0.479041 0.9158077,0.796807 1.6128307,0.914074 0.333859,0.05617 1.143663,0.05667 1.506419,9.38e-4 z M 8.7546434,14.759582 9.4627128,14.456664 9.391015,14.361145 C 9.20018,14.106903 8.9539156,13.469411 8.8703213,13.013251 c -0.021809,-0.119007 -0.040225,-0.430817 -0.040924,-0.69291 -7e-4,-0.262094 -0.00556,-0.476548 -0.010797,-0.476563 -0.00524,-1.5e-5 -0.1107078,0.04519 -0.234375,0.100465 -0.2089403,0.09338 -0.2491722,0.100507 -0.5685997,0.10067 l -0.34375,1.88e-4 -1.7110103,-0.73815 -1.71101,-0.73815 -1.6405524,0.70352 C 1.666138,11.676768 0.96875,11.992798 0.96875,12.015746 c 0,0.0378 6.9283756,3.037048 7.0310994,3.04372 0.025699,0.0017 0.3653559,-0.133279 0.754794,-0.299884 z m 3.1735736,-1.35966 c 0.04808,-0.02067 0.09052,-0.03901 0.09432,-0.04077 0.0038,-0.0018 -0.02162,-0.06087 -0.0565,-0.131362 -0.0586,-0.118431 -0.06268,-0.176905 -0.05379,-0.769538 0.0089,-0.590646 0.01472,-0.648185 0.07406,-0.727568 0.14119,-0.188894 0.207764,-0.214208 0.593166,-0.225543 l 0.356376,-0.01048 -0.07644,-0.150838 c -0.04204,-0.08296 -0.122527,-0.183713 -0.178861,-0.223894 -0.09023,-0.06436 -0.138058,-0.07306 -0.401632,-0.07306 -0.274329,0 -0.310033,0.0072 -0.429421,0.0862 -0.24936,0.165081 -0.365934,0.448677 -0.401314,0.976296 -0.02043,0.304697 0.02484,0.737826 0.100257,0.959158 0.04699,0.13792 0.212852,0.368967 0.264864,0.368967 0.01513,0 0.06684,-0.01691 0.114912,-0.03758 z M 8.6208478,10.816814 9.1924969,10.571127 9.3154903,10.365759 c 0.1529225,-0.255343 0.5391031,-0.6694899 0.7936677,-0.8511434 0.27395,-0.1954865 0.669312,-0.3764418 1.031467,-0.4720975 0.287575,-0.075957 0.374812,-0.083674 1.09375,-0.096761 l 0.78125,-0.014221 1.023438,-0.4379794 c 0.5802,-0.2482963 1.023437,-0.4552484 1.023437,-0.4778538 0,-0.022892 -0.698695,-0.3394965 -1.640552,-0.743394 L 11.781395,6.56879 10.070385,7.30694 8.359375,8.0450897 H 8.015625 7.671875 L 5.9608647,7.30694 4.2498547,6.56879 2.6093023,7.2723094 C 1.666138,7.6767675 0.96875,7.9927975 0.96875,8.0157459 c 0,0.038165 6.929165,3.0371981 7.0324119,3.0437201 0.02642,0.0017 0.305279,-0.107525 0.6196859,-0.242652 z M 11.554688,5.5591141 C 13.605726,4.6800391 15.0625,4.0390228 15.0625,4.0155912 c 0,-0.023424 -1.431474,-0.6538309 -3.445312,-1.517282 C 9.7222656,1.6858447 8.13512,1.0069626 8.0901975,0.98968228 8.0182559,0.96200866 7.5889525,1.1380947 4.488635,2.4669241 2.4327582,3.348095 0.96875,3.9922381 0.96875,4.0156237 c 0,0.037934 6.92803,3.0371222 7.03125,3.0438735 0.025781,0.00169 1.6253906,-0.6734863 3.554688,-1.5003831 z"
       id="path1579" />
    <path
       style="fill:#cbcbcb;stroke-width:0.000357143"
       d="M 4.4609375,13.556047 C 2.4312173,12.683998 0.96875,12.038947 0.96875,12.015746 c 0,-0.02295 0.697388,-0.338978 1.6405523,-0.743437 l 1.6405524,-0.703519 1.71101,0.73815 1.7110103,0.73815 0.34375,-1.88e-4 c 0.3194275,-1.56e-4 0.3596594,-0.0073 0.5685997,-0.10067 0.1236672,-0.05527 0.2291359,-0.100481 0.234375,-0.100465 0.00524,1.5e-5 0.010098,0.214468 0.010797,0.476562 7e-4,0.262094 0.019116,0.573904 0.040924,0.692911 0.083594,0.45616 0.3298587,1.093652 0.5206937,1.347893 l 0.071698,0.09552 -0.7080694,0.302918 C 8.3652049,14.926176 8.0255477,15.061123 7.999849,15.059454 7.97415,15.057754 6.3816402,14.381247 4.4609371,13.556036 Z m 7.2297095,-0.233984 c -0.05233,-0.06349 -0.116327,-0.177579 -0.142206,-0.25353 -0.07541,-0.221332 -0.120689,-0.65446 -0.100257,-0.959158 0.03538,-0.527619 0.151954,-0.811215 0.401314,-0.976296 0.119388,-0.07904 0.155092,-0.0862 0.429421,-0.0862 0.263574,0 0.311404,0.0087 0.401632,0.07306 0.05633,0.04018 0.136822,0.140933 0.178862,0.223894 l 0.07644,0.150838 -0.356375,0.01048 c -0.385403,0.01134 -0.451977,0.03665 -0.593167,0.225543 -0.05934,0.07938 -0.06519,0.136922 -0.07406,0.727568 -0.0089,0.592633 -0.0048,0.651107 0.05379,0.769538 0.03488,0.07049 0.0603,0.129607 0.0565,0.131362 -0.09214,0.04251 -0.187826,0.07835 -0.209233,0.07835 -0.01513,0 -0.07032,-0.05195 -0.122658,-0.115437 z M 4.4609375,9.5560472 C 2.4312173,8.6839978 0.96875,8.0389466 0.96875,8.0157459 c 0,-0.022948 0.697388,-0.3389784 1.6405523,-0.7434365 L 4.2498547,6.56879 5.9608647,7.30694 7.671875,8.0450897 h 0.34375 0.34375 l 1.71101,-0.7381497 1.71101,-0.73815 1.640553,0.7035194 c 0.941857,0.4038975 1.640552,0.7205015 1.640552,0.743394 0,0.022605 -0.443237,0.2295575 -1.023437,0.4778538 l -1.023438,0.4379794 -0.78125,0.014221 c -0.718938,0.013087 -0.806175,0.020804 -1.09375,0.096761 -0.362155,0.095656 -0.757517,0.276611 -1.031467,0.4720975 -0.2545646,0.181653 -0.6407452,0.5957999 -0.7936677,0.8511429 l -0.1229934,0.205368 -0.5716491,0.245687 c -0.3144069,0.135127 -0.5932656,0.24432 -0.6196859,0.242652 -0.02642,-0.0017 -1.6195213,-0.678208 -3.5402244,-1.5034188 z"
       id="path1577" />
    <path
       style="fill:#fecb00;stroke-width:0.000357143"
       d="M 11.524831,15.109331 C 10.827808,14.992064 10.267128,14.674298 9.9120003,14.195257 9.4777322,13.609462 9.2588266,12.75344 9.3414647,11.964201 9.4743059,10.695492 10.154921,9.8414238 11.274255,9.5388422 c 0.289757,-0.078328 0.34088,-0.082216 1.100745,-0.083727 0.723657,-0.00144 0.821952,0.00479 1.069803,0.067818 0.494318,0.1256994 0.847976,0.3537269 1.10309,0.7112368 0.136468,0.191243 0.348409,0.629945 0.31869,0.659664 -0.0072,0.0072 -0.32121,0.06898 -0.697693,0.137177 -0.376483,0.0682 -0.714128,0.131067 -0.750323,0.139708 -0.053,0.01265 -0.07691,-0.0089 -0.122855,-0.110799 -0.07981,-0.176976 -0.353195,-0.417851 -0.547508,-0.482392 -0.122631,-0.04073 -0.241851,-0.05022 -0.523798,-0.04169 -0.323475,0.0098 -0.385229,0.02096 -0.542455,0.09817 -0.236538,0.116158 -0.49875,0.400411 -0.588857,0.638354 -0.121642,0.321217 -0.164659,0.665111 -0.145747,1.165143 0.02516,0.665091 0.121308,0.97183 0.39552,1.261769 0.102731,0.108623 0.227563,0.19943 0.353309,0.257008 0.174757,0.08002 0.234962,0.09023 0.594501,0.10081 0.363473,0.0107 0.423476,0.0043 0.65625,-0.06969 0.140909,-0.0448 0.340573,-0.127094 0.443698,-0.182867 l 0.1875,-0.101406 v -0.34375 -0.34375 l -0.585937,-0.0085 -0.585938,-0.0085 V 12.49931 12 H 13.703125 15 v 1.137879 1.137879 l -0.257812,0.160814 c -0.86424,0.539082 -1.502269,0.722461 -2.492188,0.71629 -0.266406,-0.0017 -0.592732,-0.02125 -0.725169,-0.04353 z M 4.4609375,5.5560472 C 2.4232726,4.6805844 0.96875,4.0389866 0.96875,4.0156237 0.96875,3.9922381 2.4327582,3.348095 4.488635,2.4669241 7.5889525,1.1380947 8.0182559,0.96200866 8.0901975,0.98968228 8.13512,1.0069626 9.7222656,1.6858447 11.617188,2.4983092 13.631026,3.3617603 15.0625,3.9921675 15.0625,4.0155912 15.0625,4.0575022 8.0844294,7.0650194 8,7.0594972 7.9742188,7.0578097 6.3816406,6.3812584 4.4609375,5.5560472 Z"
       id="path1575" />
  </g>
</svg>
