<?xml version="1.0" encoding="UTF-8" standalone="no"?>
<!-- Created with Inkscape (http://www.inkscape.org/) -->

<svg
   xmlns:dc="http://purl.org/dc/elements/1.1/"
   xmlns:cc="http://creativecommons.org/ns#"
   xmlns:rdf="http://www.w3.org/1999/02/22-rdf-syntax-ns#"
   xmlns:svg="http://www.w3.org/2000/svg"
   xmlns="http://www.w3.org/2000/svg"
   xmlns:sodipodi="http://sodipodi.sourceforge.net/DTD/sodipodi-0.dtd"
   xmlns:inkscape="http://www.inkscape.org/namespaces/inkscape"
   version="1.1"
   id="svg2"
   width="16"
   height="16"
   viewBox="0 0 16 16"
   sodipodi:docname="NEW_WINDOW.svg"
   inkscape:version="0.92.4 (5da689c313, 2019-01-14)">
  <metadata
     id="metadata8">
    <rdf:RDF>
      <cc:Work
         rdf:about="">
        <dc:format>image/svg+xml</dc:format>
        <dc:type
           rdf:resource="http://purl.org/dc/dcmitype/StillImage" />
        <dc:title></dc:title>
      </cc:Work>
    </rdf:RDF>
  </metadata>
  <defs
     id="defs6" />
  <sodipodi:namedview
     pagecolor="#ffffff"
     bordercolor="#666666"
     borderopacity="1"
     objecttolerance="10"
     gridtolerance="10"
     guidetolerance="10"
     inkscape:pageopacity="0"
     inkscape:pageshadow="2"
     inkscape:window-width="1164"
     inkscape:window-height="826"
     id="namedview4"
     showgrid="false"
     inkscape:zoom="14.75"
     inkscape:cx="8"
     inkscape:cy="8"
     inkscape:window-x="0"
     inkscape:window-y="0"
     inkscape:window-maximized="0"
     inkscape:current-layer="svg2" />
  <g
     id="NEW_WINDOW">
    <path
       style="fill:#ffffff;stroke-width:0.03125"
       d="M 0,8 V 0 h 8 8 v 8 8 H 8 0 Z m 15,2 V 5 H 13 11 V 3 1 H 6 1 v 5 5 h 2 2 v 2 2 h 5 5 z"
       id="path827"
       inkscape:connector-curvature="0" />
    <path
       style="fill:#fdfefe;stroke-width:0.03125"
       d="M 2,6 V 2 h 3 3 v 1 1 h 1 1 V 4.5 5 H 7.5 5 V 7.5 10 H 3.5 2 Z"
       id="path825"
       inkscape:connector-curvature="0" />
    <path
       style="fill:#97bffd;stroke-width:0.03125"
       d="M 6,10 V 6 h 3 3 v 1 1 h 1 1 v 3 3 H 10 6 Z"
       id="path823"
       inkscape:connector-curvature="0" />
    <path
       style="fill:#fdbe00;stroke-width:0.03125"
       d="M 13,6.5 V 6 H 13.5 14 V 6.5 7 H 13.5 13 Z M 9,2.5 V 2 H 9.5 10 V 2.5 3 H 9.5 9 Z"
       id="path821"
       inkscape:connector-curvature="0" />
    <path
       style="fill:#000000;stroke-width:0.03125"
       d="M 5,13 V 11 H 3 1 V 6 1 h 5 5 v 2 2 h 2 2 v 5 5 H 10 5 Z m 9,-2 V 8 H 13 12 V 7 6 H 9 6 v 4 4 h 4 4 z M 5,7.5 V 5 H 7.5 10 V 4.5 4 H 9 8 V 3 2 H 5 2 v 4 4 H 3.5 5 Z m 9,-1 V 6 H 13.5 13 V 6.5 7 h 0.5 0.5 z m -4,-4 V 2 H 9.5 9 V 2.5 3 H 9.5 10 Z"
       id="path819"
       inkscape:connector-curvature="0" />
  </g>
</svg>
