<?xml version="1.0" encoding="UTF-8" standalone="no"?>
<!-- Created with Inkscape (http://www.inkscape.org/) -->

<svg
   version="1.1"
   id="svg2"
   width="1600"
   height="1600"
   viewBox="0 0 1600 1600"
   sodipodi:docname="nla.svg"
   inkscape:version="1.2.2 (732a01da63, 2022-12-09)"
   xmlns:inkscape="http://www.inkscape.org/namespaces/inkscape"
   xmlns:sodipodi="http://sodipodi.sourceforge.net/DTD/sodipodi-0.dtd"
   xmlns="http://www.w3.org/2000/svg"
   xmlns:svg="http://www.w3.org/2000/svg"
   xmlns:rdf="http://www.w3.org/1999/02/22-rdf-syntax-ns#"
   xmlns:cc="http://creativecommons.org/ns#"
   xmlns:dc="http://purl.org/dc/elements/1.1/">
  <metadata
     id="metadata8">
    <rdf:RDF>
      <cc:Work
         rdf:about="">
        <dc:format>image/svg+xml</dc:format>
        <dc:type
           rdf:resource="http://purl.org/dc/dcmitype/StillImage" />
      </cc:Work>
    </rdf:RDF>
  </metadata>
  <defs
     id="defs6" />
  <sodipodi:namedview
     pagecolor="#808080"
     bordercolor="#666666"
     borderopacity="1"
     objecttolerance="10"
     gridtolerance="10"
     guidetolerance="10"
     inkscape:pageopacity="0"
     inkscape:pageshadow="2"
     inkscape:window-width="1993"
     inkscape:window-height="1009"
     id="namedview4"
     showgrid="false"
     inkscape:zoom="0.5"
     inkscape:cx="223"
     inkscape:cy="66"
     inkscape:window-x="-8"
     inkscape:window-y="-8"
     inkscape:window-maximized="1"
     inkscape:current-layer="NLA"
     inkscape:showpageshadow="0"
     inkscape:pagecheckerboard="true"
     inkscape:deskcolor="#d1d1d1" />
  <g
     id="NLA"
     transform="matrix(100,0,0,100,0,4.9999997e-5)"
     style="stroke-width:0.0114286">
    <path
       style="fill:none;stroke-width:0.000357143"
       d="m 0.00149176,14.085938 c 0.00138761,-1.780421 0.00492287,-1.904256 0.05063303,-1.773606 0.10757792,0.307481 0.33441462,0.531723 0.6442798,0.636909 C 0.83041019,12.99473 1.1653888,13 3.9229672,13 H 7 v 1.077033 c 0,0.911785 0.00779,1.099975 0.050759,1.226562 0.1051859,0.309866 0.3294278,0.536702 0.6369093,0.64428 0.1291591,0.04519 -0.1743693,0.04926 -3.7736059,0.05063 L 0,16 Z M 14.312332,15.947875 c 0.310931,-0.108785 0.536854,-0.339793 0.639637,-0.654035 0.04412,-0.134887 0.04964,-0.314797 0.04163,-1.35748 l -0.0092,-1.201985 -0.07738,-0.15625 c -0.09873,-0.199367 -0.286058,-0.386602 -0.485121,-0.484889 -0.147846,-0.073 -0.190211,-0.0777 -0.787617,-0.08748 l -0.631366,-0.01033 -0.0093,-1.130526 -0.0093,-1.130526 -0.07738,-0.15625 C 12.80834,9.3789119 12.621088,9.1916603 12.421875,9.0930044 L 12.265625,9.015625 6.5625,9.0071434 C 1.3994982,8.9994653 0.84475653,9.0034081 0.70501941,9.0487766 0.39250775,9.1502394 0.16083876,9.3769397 0.05212479,9.6876684 0.00703789,9.8165366 0.00286045,9.4226931 0.00149176,4.9140625 L 0,0 0.9140625,0.00149176 C 1.7850006,0.00291314 1.8214984,0.00530195 1.6876684,0.05212479 1.3767371,0.16090967 1.1508142,0.39191778 1.0480309,0.70615962 1.0039113,0.84104725 0.99839366,1.0209571 1.0063979,2.0636402 l 0.00923,1.2019848 0.077379,0.15625 c 0.098656,0.1992131 0.2859074,0.3864647 0.4851206,0.4851206 l 0.15625,0.077379 1.1313632,0.00926 1.1313631,0.00926 0.00926,1.1313632 0.00926,1.1313631 0.077379,0.15625 c 0.098656,0.1992131 0.2859075,0.3864647 0.4851206,0.4851206 l 0.15625,0.077379 5.203125,0.0085 c 4.7049646,0.00768 5.2179026,0.0037 5.3574806,-0.041633 0.312536,-0.1015038 0.544183,-0.3281888 0.652894,-0.6389081 0.04509,-0.1288682 0.04927,0.2649753 0.05063,4.7736066 L 16,16 15.085938,15.9985 C 14.214999,15.9971 14.178502,15.9947 14.312332,15.94787 Z M 15.943581,3.6830978 C 15.853218,3.3935647 15.61234,3.1555647 15.303595,3.050759 15.170365,3.0055328 14.873163,3 12.577033,3 H 10 V 1.9229671 C 10,1.0111825 9.9922122,0.822992 9.9492409,0.69640459 9.844055,0.38653941 9.6198131,0.15970271 9.3123316,0.05212479 9.1829634,0.00686301 9.4414003,0.00286575 12.585938,0.00149176 L 16,0 v 1.90625 c 0,1.0484375 -0.0036,1.90625 -0.008,1.90625 -0.0044,0 -0.02619,-0.058231 -0.0484,-0.1294022 z"
       id="path825"
       inkscape:connector-curvature="0" />
    <path
       style="fill:#fefefe;stroke-width:0.000357143"
       d="m 8,14 v -1 h 3 3 V 13.5 14 H 11.5 9 V 14.5 15 H 8.5 8 Z M 1,11 V 10 H 6.5 12 V 10.5 11 H 7 2 V 11.5 12 H 1.5 1 Z M 5,5 V 4 h 5 5 V 4.5 5 H 10.5 6 V 5.5 6 H 5.5 5 Z M 2,2 V 1 H 5.5 9 V 1.5 2 H 6 3 V 2.5 3 H 2.5 2 Z"
       id="path823"
       inkscape:connector-curvature="0" />
    <path
       style="fill:#cbcbcb;stroke-width:0.000357143"
       d="M 9,14.5 V 14 H 11.5 14 V 14.5 15 H 11.5 9 Z m -7,-3 V 11 h 5 5 V 11.5 12 H 7 2 Z m 4,-6 V 5 H 10.5 15 V 5.5 6 H 10.5 6 Z M 3,2.5 V 2 H 6 9 V 2.5 3 H 6 3 Z"
       id="path821"
       inkscape:connector-curvature="0" />
    <path
       style="fill:#323232;stroke-width:0.000357143"
       d="M 7.6876684,15.948173 C 7.3796587,15.839757 7.1558881,15.613293 7.0507591,15.303595 7.00779,15.177014 7,14.988863 7,14.077618 V 13.00117 L 3.8671875,12.99277 0.734375,12.98437 0.578125,12.90699 C 0.37891184,12.80834 0.19166038,12.621088 0.0930044,12.421875 L 0.015625,12.265625 V 11 9.734375 L 0.0930044,9.578125 C 0.19166038,9.3789119 0.37891184,9.1916603 0.578125,9.0930044 L 0.734375,9.015625 H 6.5 12.265625 l 0.15625,0.077379 c 0.199213,0.098656 0.386465,0.2859075 0.485121,0.4851206 l 0.07738,0.15625 0.0093,1.1305264 0.0093,1.130526 0.631366,0.01033 c 0.597406,0.0098 0.639771,0.01448 0.787617,0.08748 0.199063,0.09829 0.386388,0.285522 0.485121,0.484889 l 0.07738,0.15625 V 14 15.265625 l -0.07738,0.15625 c -0.09866,0.199213 -0.285908,0.386465 -0.485121,0.485121 l -0.15625,0.07738 -3.21875,0.0066 c -2.8663966,0.0059 -3.2341256,0.0012 -3.3592066,-0.04282 z M 14,14 V 13 H 11 8 v 1 1 h 3 3 z M 12,11 V 10 H 6.5 1 v 1 1 H 6.5 12 Z M 4.6876684,6.9480637 C 4.3798525,6.8399556 4.1559091,6.6133541 4.0507591,6.3035953 4.0077931,6.1770234 4,5.9889297 4,5.0784881 V 4.0029103 L 2.8671875,3.9936425 1.734375,3.984375 1.578125,3.9069956 C 1.3789118,3.8083397 1.1916604,3.6210881 1.0930044,3.421875 L 1.015625,3.265625 V 2 0.734375 L 1.093004,0.578125 C 1.1916604,0.37891184 1.3789118,0.19166038 1.578125,0.0930044 L 1.734375,0.015625 H 5.5 9.265625 l 0.15625,0.0773794 C 9.6210881,0.19166038 9.8083397,0.37891184 9.9069956,0.578125 l 0.077379,0.15625 0.00926,1.1321256 0.00927,1.1321256 2.63136,0.0085 2.63136,0.0085 0.15625,0.077379 c 0.199213,0.098656 0.386465,0.2859075 0.485121,0.4851206 l 0.07738,0.15625 V 5 6.265625 l -0.07738,0.15625 c -0.09866,0.1992131 -0.285908,0.3864647 -0.485121,0.4851206 l -0.15625,0.077379 -5.21875,0.00651 c -4.6849947,0.00584 -5.2331216,0.00146 -5.3592066,-0.042821 z M 15,5 V 4 H 10 5 v 1 1 h 5 5 z M 9,2 V 1 H 5.5 2 V 2 3 H 5.5 9 Z"
       id="path819"
       inkscape:connector-curvature="0" />
  </g>
</svg>
