<?xml version="1.0" encoding="UTF-8" standalone="no"?>
<!-- Created with Inkscape (http://www.inkscape.org/) -->

<svg
   version="1.1"
   id="svg2"
   width="1600"
   height="1600"
   viewBox="0 0 1600 1600"
   sodipodi:docname="nla_pushdown.svg"
   inkscape:version="1.2.2 (732a01da63, 2022-12-09)"
   xmlns:inkscape="http://www.inkscape.org/namespaces/inkscape"
   xmlns:sodipodi="http://sodipodi.sourceforge.net/DTD/sodipodi-0.dtd"
   xmlns="http://www.w3.org/2000/svg"
   xmlns:svg="http://www.w3.org/2000/svg"
   xmlns:rdf="http://www.w3.org/1999/02/22-rdf-syntax-ns#"
   xmlns:cc="http://creativecommons.org/ns#"
   xmlns:dc="http://purl.org/dc/elements/1.1/">
  <metadata
     id="metadata8">
    <rdf:RDF>
      <cc:Work
         rdf:about="">
        <dc:format>image/svg+xml</dc:format>
        <dc:type
           rdf:resource="http://purl.org/dc/dcmitype/StillImage" />
      </cc:Work>
    </rdf:RDF>
  </metadata>
  <defs
     id="defs6" />
  <sodipodi:namedview
     pagecolor="#808080"
     bordercolor="#666666"
     borderopacity="1"
     objecttolerance="10"
     gridtolerance="10"
     guidetolerance="10"
     inkscape:pageopacity="0"
     inkscape:pageshadow="2"
     inkscape:window-width="1993"
     inkscape:window-height="1009"
     id="namedview4"
     showgrid="false"
     inkscape:zoom="0.5"
     inkscape:cx="375"
     inkscape:cy="156"
     inkscape:window-x="-8"
     inkscape:window-y="-8"
     inkscape:window-maximized="1"
     inkscape:current-layer="NLA_PUSHDOWN"
     inkscape:showpageshadow="0"
     inkscape:pagecheckerboard="true"
     inkscape:deskcolor="#d1d1d1" />
  <g
     id="NLA_PUSHDOWN"
     transform="matrix(100,0,0,100,0,4.9999997e-5)"
     style="stroke-width:0.0114286">
    <path
       style="fill:none;stroke-width:0.000357143"
       d="M 0,8 V 0 h 8 8 v 8 8 H 8 0 Z m 8.2360834,7.864907 c 0.035314,-0.0084 0.1196894,-0.0384 0.1875,-0.06673 0.06781,-0.02833 0.1303228,-0.0508 0.1389166,-0.04992 0.00859,8.81e-4 1.1799344,-1.162041 2.602979,-2.584268 2.226443,-2.225163 2.672047,-2.691242 2.69635,-2.820242 0.0016,-0.0086 0.01104,-0.03672 0.02093,-0.0625 0.0793,-0.206659 0.08881,-0.3413487 0.03974,-0.5625 C 13.867614,9.4714203 13.744752,9.3217209 12.922235,8.5 12.466325,8.0445313 12.086228,7.6756756 12.077576,7.6803206 c -0.0087,0.00465 -0.06129,-0.015681 -0.116966,-0.04517 -0.136399,-0.072239 -0.165374,-0.078272 -0.382485,-0.079634 -0.255518,-0.0016 -0.35741,0.00977 -0.377414,0.04214 -0.0093,0.015039 -0.04682,0.027344 -0.0834,0.027344 -0.04605,0 -0.535615,0.4681947 -1.5919061,1.5224134 L 8,10.669827 6.4745941,9.1474134 C 5.4183034,8.0931947 4.9287372,7.625 4.8826884,7.625 4.8461134,7.625 4.8085834,7.612695 4.7992894,7.597656 4.7792854,7.565289 4.6773937,7.553912 4.4218753,7.555516 4.204764,7.556876 4.1757894,7.562916 4.0393903,7.63515 3.9837113,7.664639 3.9310762,7.684965 3.9224241,7.68032 3.9137716,7.6756756 3.5336753,8.0445313 3.0777653,8.5 2.2552483,9.3217209 2.1323858,9.4714203 2.0775029,9.71875 c -0.049074,0.2211513 -0.039559,0.355841 0.039738,0.5625 0.00989,0.02578 0.019311,0.05391 0.02093,0.0625 0.024307,0.12902 0.4708631,0.596035 2.7042333,2.828125 1.4273803,1.426562 2.6019812,2.590845 2.6102243,2.587295 0.00824,-0.0035 0.067601,0.01553 0.1319063,0.0424 0.064306,0.02687 0.152135,0.05524 0.1951759,0.06304 0.043041,0.0078 0.085604,0.02172 0.094585,0.03093 0.016419,0.01683 0.2421503,-0.0023 0.3617875,-0.03064 z m 2.188e-4,-7.0644054 c 0.2408781,-0.050083 0.3578119,-0.1594038 2.9703888,-2.7770107 2.618438,-2.6234803 2.628007,-2.633529 2.684207,-2.8188765 0.07313,-0.2411939 0.07343,-0.4258512 10e-4,-0.6577394 C 13.835673,2.3666069 13.800361,2.3260736 12.976415,1.4959726 12.505062,1.0211013 12.081997,0.61492294 12.036268,0.593354 11.861176,0.51076806 11.824913,0.49797128 11.71875,0.48130541 c -0.117865,-0.0185029 -0.259302,-0.0178301 -0.359375,0.001709 -0.03438,0.006712 -0.08515,0.0132793 -0.112827,0.0145943 -0.02768,0.001315 -0.101507,0.0371234 -0.164062,0.0795742 -0.06255,0.0424507 -0.113736,0.0671156 -0.113736,0.0548108 0,-0.0123048 -0.667969,0.64548529 -1.484375,1.46175589 L 8,3.5778784 6.515625,2.09375 C 5.6992187,1.2774794 5.03125,0.61968928 5.03125,0.63199409 5.03125,0.64429888 4.9800687,0.619634 4.9175141,0.57718322 4.8549594,0.53473244 4.7811313,0.49892406 4.7534516,0.49760903 4.7257719,0.496294 4.675,0.48972656 4.640625,0.48301475 4.5405522,0.46347528 4.399115,0.46280253 4.28125,0.48130538 4.1750869,0.49797125 4.1388241,0.51076803 3.9637319,0.59335397 3.9180031,0.61492294 3.4949384,1.0211013 3.0235883,1.4959726 2.1996423,2.3260736 2.1643304,2.3666069 2.1080614,2.546875 c -0.072382,0.2318883 -0.072088,0.4165455 0.00104,0.6577394 0.0562,0.1853475 0.065769,0.1953962 2.6842074,2.8188765 C 7.47477,8.710115 7.5309594,8.7621263 7.79687,8.8037125 c 0.051563,0.00806 0.1007813,0.021714 0.109375,0.030333 0.014497,0.01454 0.1793778,-0.00222 0.3300478,-0.033544 z"
       id="path825"
       inkscape:connector-curvature="0" />
    <path
       style="fill:#fefefe;stroke-width:0.000357143"
       d="M 5.8670572,11.351433 3.7499119,9.2341159 4.1013806,8.8826472 4.4528494,8.5311784 l 1.773575,1.7733696 1.7735747,1.77337 1.7655906,-1.765383 1.7655903,-1.7653828 0.351467,0.3514675 0.351468,0.3514672 -2.109158,2.1093311 c -1.1600373,1.160133 -2.1162676,2.109332 -2.1249564,2.109332 -0.00869,0 -0.9685134,-0.952793 -2.1329434,-2.117317 z M 5.8669009,4.2887647 3.7495872,2.1712791 4.1016581,1.8202069 4.4537291,1.4691348 6.218955,3.2345681 7.9841812,5.0000019 9.7575178,3.22687 11.530854,1.4537381 11.890646,1.8125086 12.250437,2.1712791 10.133123,4.2887647 C 8.9685884,5.4533816 8.0086884,6.40625 8,6.40625 7.99131,6.40625 7.0314116,5.4533816 5.8668891,4.2887647 Z"
       id="path823"
       inkscape:connector-curvature="0" />
    <path
       style="fill:#cbcbcb;stroke-width:0.000357143"
       d="M 5.5156747,12.4063 3.0471228,9.9375994 3.398605,9.5861172 3.7500875,9.2346347 5.8750437,11.359419 8,13.484203 l 2.117485,-2.117314 2.117486,-2.1173137 0.351057,0.3520559 0.351058,0.3520563 -2.460804,2.4606565 C 9.1228394,13.767705 8.0084463,14.875 7.9998522,14.875 c -0.00859,0 -1.1264738,-1.110915 -2.4841775,-2.4687 z m 0,-7.0625003 L 3.0471228,2.8750994 3.398605,2.5236171 3.7500875,2.1721348 5.8750437,4.2969187 8,6.4217028 10.124956,4.2969187 12.249913,2.1721348 12.601395,2.5236171 12.952877,2.8750994 10.484325,5.3437997 C 9.1266216,6.701585 8.0086753,7.8125 8,7.8125 7.99132,7.8125 6.8733784,6.701585 5.5156747,5.3437997 Z"
       id="path821"
       inkscape:connector-curvature="0" />
    <path
       style="fill:#323232;stroke-width:0.000357143"
       d="m 7.8742959,15.895542 c -0.00898,-0.0092 -0.051544,-0.02313 -0.094585,-0.03093 -0.043041,-0.0078 -0.1308703,-0.03617 -0.1951759,-0.06304 -0.064305,-0.02687 -0.1236635,-0.04595 -0.1319063,-0.0424 -0.00824,0.0036 -1.182844,-1.160733 -2.6102243,-2.587295 -2.2333702,-2.23209 -2.6799266,-2.699105 -2.7042333,-2.828125 -0.00162,-0.0086 -0.011038,-0.03672 -0.02093,-0.0625 C 2.0379443,10.074591 2.0284291,9.9399013 2.0775029,9.71875 2.1323858,9.4714203 2.2552483,9.3217209 3.0777652,8.5 3.5336753,8.0445313 3.9137716,7.6756756 3.9224237,7.6803206 c 0.00865,0.00465 0.061287,-0.015681 0.1169663,-0.04517 0.1363991,-0.072239 0.1653737,-0.078272 0.382485,-0.079634 0.2555184,-0.0016 0.35741,0.00977 0.3774141,0.04214 0.00929,0.015039 0.046824,0.027344 0.083399,0.027344 0.046049,0 0.535615,0.4681947 1.5919057,1.5224134 L 8,10.669827 9.5254059,9.1474134 C 10.581697,8.0931947 11.071263,7.625 11.117312,7.625 c 0.03657,0 0.0741,-0.012305 0.0834,-0.027344 0.02,-0.032367 0.121896,-0.043744 0.377414,-0.04214 0.217111,0.00136 0.246086,0.0074 0.382485,0.079634 0.05568,0.029489 0.108314,0.049815 0.116966,0.04517 0.0087,-0.00465 0.388749,0.3642107 0.844659,0.8196794 0.822517,0.8217209 0.945379,0.9714203 1.000262,1.21875 0.04907,0.2211513 0.03956,0.3558406 -0.03974,0.5624996 -0.0099,0.02578 -0.01931,0.05391 -0.02093,0.0625 -0.0243,0.129 -0.469907,0.595079 -2.69635,2.820242 -1.4230446,1.422227 -2.5943853,2.585148 -2.602979,2.584268 -0.00859,-8.78e-4 -0.071106,0.02158 -0.1389166,0.04992 -0.1850843,0.07733 -0.5122615,0.135329 -0.5492875,0.09737 z M 10.47673,12.413895 12.937687,9.9527906 12.23439,9.250015 11.531093,8.5472391 9.7655463,10.312579 7.9999991,12.077918 6.2263809,10.304505 4.4527625,8.5310916 3.7499863,9.2343887 3.0472097,9.9376862 5.5157181,12.406343 C 6.8733978,13.764104 7.9913247,14.875 8,14.875 c 0.00868,0 1.1232038,-1.107497 2.47673,-2.461105 z M 7.90625,8.8340456 C 7.8976562,8.8254263 7.8484375,8.8117763 7.796875,8.8037125 7.5309644,8.7621263 7.474775,8.710115 4.7933137,6.0234909 2.1748749,3.4000106 2.1653064,3.3899619 2.1091063,3.2046144 2.0359729,2.9634205 2.0356795,2.7787633 2.1080614,2.546875 2.1643304,2.3666069 2.1996423,2.3260736 3.0235883,1.4959726 3.4949384,1.0211013 3.9180031,0.61492294 3.9637319,0.593354 4.1388241,0.51076806 4.1750869,0.49797128 4.28125,0.48130541 c 0.117865,-0.0185029 0.2593022,-0.0178301 0.359375,0.001709 0.034375,0.006712 0.085147,0.0132793 0.1128266,0.0145943 0.02768,0.001315 0.1015078,0.0371234 0.1640625,0.0795742 0.062555,0.0424507 0.1137359,0.0671156 0.1137359,0.0548108 0,-0.0123048 0.6679687,0.64548529 1.484375,1.46175589 L 8,3.5778784 9.484375,2.09375 c 0.816406,-0.8162706 1.484375,-1.47406072 1.484375,-1.46175591 0,0.0123048 0.05118,-0.0123601 0.113736,-0.0548109 0.06256,-0.0424508 0.136383,-0.0782592 0.164062,-0.0795742 0.02768,-0.001315 0.07845,-0.007882 0.112827,-0.0145943 0.100073,-0.0195395 0.24151,-0.0202122 0.359375,-0.001709 0.106163,0.0166659 0.142426,0.0294627 0.317518,0.11204859 0.04573,0.0215689 0.468794,0.42774732 0.940144,0.90261862 0.823946,0.8301009 0.859258,0.8706342 0.915527,1.0509024 0.07238,0.2318882 0.07209,0.4165454 -0.001,0.6577393 -0.0562,0.1853475 -0.06577,0.1953963 -2.684207,2.8188766 C 8.5941109,8.6410978 8.4771772,8.750419 8.2362991,8.8005015 8.0856291,8.8318284 7.9207484,8.8485859 7.9062513,8.8340456 Z M 10.484369,5.3437559 12.952965,2.8750117 12.242116,2.1641627 11.531267,1.4533137 9.7577181,3.2266578 7.9841694,5.0000019 6.2187419,3.2343669 4.4533147,1.4687322 3.7501747,2.1718719 3.047035,2.8750117 5.5156309,5.3437559 C 6.8733584,6.701565 7.9913247,7.8125 8,7.8125 c 0.00868,0 1.1266416,-1.110935 2.484369,-2.4687441 z"
       id="path819"
       inkscape:connector-curvature="0" />
  </g>
</svg>
