<?xml version="1.0" encoding="UTF-8" standalone="no"?>
<!-- Created with Inkscape (http://www.inkscape.org/) -->

<svg
   version="1.1"
   id="svg2"
   width="1600"
   height="1600"
   viewBox="0 0 1600 1600"
   sodipodi:docname="node_instancereference.svg"
   inkscape:version="1.4.3 (0d15f75, 2025-12-25)"
   xml:space="preserve"
   xmlns:inkscape="http://www.inkscape.org/namespaces/inkscape"
   xmlns:sodipodi="http://sodipodi.sourceforge.net/DTD/sodipodi-0.dtd"
   xmlns="http://www.w3.org/2000/svg"
   xmlns:svg="http://www.w3.org/2000/svg"><defs
     id="defs6" /><sodipodi:namedview
     id="namedview4"
     pagecolor="#808080"
     bordercolor="#000000"
     borderopacity="0.25"
     inkscape:showpageshadow="2"
     inkscape:pageopacity="0"
     inkscape:pagecheckerboard="true"
     inkscape:deskcolor="#d1d1d1"
     showgrid="true"
     inkscape:zoom="0.25"
     inkscape:cx="494"
     inkscape:cy="984"
     inkscape:window-width="1920"
     inkscape:window-height="1009"
     inkscape:window-x="-8"
     inkscape:window-y="-8"
     inkscape:window-maximized="1"
     inkscape:current-layer="INSTANCE_ROTATE"><inkscape:grid
       id="grid1"
       units="px"
       originx="0"
       originy="0"
       spacingx="100"
       spacingy="100"
       empcolor="#0099e5"
       empopacity="0.30196078"
       color="#0099e5"
       opacity="0.14901961"
       empspacing="5"
       enabled="true"
       visible="true" /></sodipodi:namedview><g
     id="INSTANCE_ROTATE"
     transform="matrix(100,0,0,100,0,4.9999997e-5)"
     style="stroke-width:0.0114286"><g
       id="g1"
       inkscape:label="ZOOM"
       transform="matrix(0.00814276,0,0,0.00813361,4.5877852,1.7177808)"
       style="display:inline"><g
         id="g67"
         inkscape:label="frame"><path
           style="baseline-shift:baseline;display:inline;overflow:visible;opacity:1;vector-effect:none;fill:#323232;fill-opacity:1;enable-background:accumulate;stop-color:#000000;stop-opacity:1"
           d="m 387.38724,968.72869 -54.81445,54.86721 -42.57226,42.6094 c 5.44681,-0.3194 10.89458,-0.474 16.33398,-0.3458 49.32877,1.1627 97.75598,20.6642 134.43945,57.3477 40.69321,40.6932 60.23415,95.8648 57.06055,150.6582 l 42.94922,-42.8555 55.30078,-55.1777 z"
           id="path36" /><path
           style="baseline-shift:baseline;display:inline;overflow:visible;opacity:1;vector-effect:none;fill:#323232;fill-opacity:1;enable-background:accumulate;stop-color:#000000;stop-opacity:1"
           d="m 852.43412,161.12842 c -145.6258,-1e-5 -285.28716,57.84961 -388.26014,160.82261 C 361.201,424.92404 303.35139,564.5854 303.35143,710.2112 c 2e-5,302.5967 246.50514,549.0826 549.08269,549.0826 145.62577,0 285.28708,-57.8496 388.26008,-160.8226 102.973,-102.97292 160.8226,-242.63423 160.8226,-388.26 0,-145.6258 -57.8496,-285.28716 -160.8225,-388.26016 -102.973,-102.973 -242.63438,-160.82263 -388.26018,-160.82262 z"
           id="path67" /></g><g
         id="g3"
         inkscape:label="inner"
         style="display:inline"
         transform="matrix(0.93399916,0,0,0.93399916,56.10626,46.935572)"><path
           id="path6"
           style="display:inline;opacity:1;fill:#ffffff;stroke-width:2.84579;stroke-linecap:round;stroke-linejoin:round;paint-order:stroke markers fill"
           d="M 1331.4505,711.13599 A 481.36649,481.36649 0 0 1 850.08405,1192.5025 481.36649,481.36649 0 0 1 368.71756,711.13599 481.36649,481.36649 0 0 1 850.08405,229.7695 481.36649,481.36649 0 0 1 1331.4505,711.13599 Z" /><path
           id="path4"
           style="display:inline;opacity:1;fill:#98cbfe;stroke-width:2.84579;stroke-linecap:round;stroke-linejoin:round;paint-order:stroke markers fill"
           d="M 1219.4689,711.13599 A 369.38483,369.38483 0 0 1 850.08405,1080.5208 369.38483,369.38483 0 0 1 480.69922,711.13599 369.38483,369.38483 0 0 1 850.08405,341.75116 369.38483,369.38483 0 0 1 1219.4689,711.13599 Z" /><path
           id="path5"
           style="display:inline;opacity:1;fill:#ffffff;stroke-width:2.84579;stroke-linecap:round;stroke-linejoin:round;paint-order:stroke markers fill"
           d="M 799.35387,550.4549 A 106.46429,106.46429 0 0 1 692.88959,656.91918 106.46429,106.46429 0 0 1 586.4253,550.4549 106.46429,106.46429 0 0 1 692.88959,443.99061 106.46429,106.46429 0 0 1 799.35387,550.4549 Z" /></g><g
         id="g41"
         inkscape:label="handle"
         style="display:inline"><path
           d="m 306.33451,1065.8595 c -38.36682,-0.9043 -77.27968,9.2867 -111.63672,31.1133 -24.83431,15.777 -342.80506,333.7478 -358.58203,358.5821 -76.64549,120.6467 -4.2562,280.8295 136.400391,301.8281 51.55113,7.696 106.422461,-6.6449 148.556639,-38.8262 29.72818,-22.7058 332.89812,-328.8182 345.91602,-349.2734 49.91766,-78.4363 39.00725,-180.8541 -26.21485,-246.0762 -36.68347,-36.6835 -85.11068,-56.185 -134.43945,-57.3477 z"
           style="baseline-shift:baseline;display:inline;overflow:visible;opacity:1;vector-effect:none;fill:#320000;fill-opacity:1;stroke:#000000;stroke-opacity:1;enable-background:accumulate;stop-color:#000000;stop-opacity:1"
           id="path35"
           inkscape:label="path1233"
           sodipodi:nodetypes="ssssssss" /><path
           d="m 303.00443,1162.4513 c -36.29807,-1.5079 -63.8205,24.7669 -87.15994,49.0264 -101.51724,97.69 -201.651847,197.0549 -297.512502,300.2469 -28.659998,38.7471 -16.752897,98.2779 23.062962,124.7718 33.286964,26.4305 85.910582,33.1284 118.881201,2.528 111.048399,-106.2948 220.996239,-214.0039 325.645279,-326.5795 16.94518,-25.9927 16.01305,-60.8069 6.31743,-89.2564 -15.15473,-34.8058 -51.8164,-58.1699 -89.23443,-60.7372 z"
           style="display:none;fill:#986532;fill-opacity:1;stroke:#000000;stroke-width:0.000357143;stroke-opacity:1"
           id="path8"
           inkscape:label="path1232"
           sodipodi:nodetypes="cccccccc" /><path
           style="display:none;fill:#fecb98;fill-opacity:1;stroke:#000000;stroke-width:0.0341268;stroke-opacity:1"
           d="m -55.612531,1600.3454 c -21.0038,-8.2518 -39.032481,-33.168 -31.72506,-55.9333 110.582505,-121.6594 227.305011,-236.1199 344.389521,-351.3337 13.40748,-15.4302 34.30234,-28.0867 54.58949,-17.1988 26.53935,10.466 41.02099,48.8691 18.83172,70.9406 l -345.469211,343.636 c -11.264485,9.7223 -25.904314,18.2502 -40.61646,9.8892 z"
           id="path825-3"
           inkscape:connector-curvature="0"
           inkscape:label="path1231"
           sodipodi:nodetypes="ccccscc" /><path
           d="m 304.55469,1141.3398 c 30.61019,0.7215 60.18093,12.6028 82.83203,35.254 40.2544,40.2544 47.16493,103.0351 15.90625,152.1523 0.0434,-0.068 -156.56178,161.1216 -156.64063,161.2012 -48.44439,48.9146 -97.73417,98.021 -132.06445,131.3925 -0.0224,0.022 -39.35028,37.2199 -39.343749,37.2149 -25.60407,19.5559 -61.314092,28.6727 -91.580078,24.1543 -44.470414,-6.639 -75.710159,-33.8408 -92.035153,-69.9649 -16.325,-36.124 -16.22901,-78.2263 8.21484,-116.7031 -0.0434,0.068 69.953871,-73.1061 70.037109,-73.1914 28.4119231,-29.1292 61.878579,-62.9586 95.515625,-96.5957 33.637047,-33.637 67.466536,-67.1037 96.595706,-95.5156 0.0853,-0.083 73.2598,-70.0806 73.1914,-70.0371 21.55593,-13.6942 45.56516,-19.9225 69.3711,-19.3614 z"
           style="baseline-shift:baseline;display:inline;overflow:visible;opacity:1;vector-effect:none;fill:#986532;fill-opacity:1;stroke:none;stroke-opacity:1;enable-background:accumulate;stop-color:#000000;stop-opacity:1"
           id="path7"
           inkscape:label="path1233"
           sodipodi:nodetypes="ssssssss" /><path
           d="m 302.88281,1212.2813 c 13.01705,0.3068 24.86375,5.0278 34.32617,14.4902 15.27037,15.2704 19.10179,37.7425 9.3711,57.9121 -0.53462,0.6729 -0.78938,1.0685 -1.29688,1.623 -0.69206,0.7562 -1.42768,1.5575 -2.20508,2.4004 -31.09585,33.7157 -119.56221,124.2359 -194.73828,199.4473 -0.0612,0.061 -116.20429,114.0336 -116.167965,114.0059 -10.067826,7.6896 -27.7706493,11.897 -38.03125,10.3652 -20.167225,-3.0108 -30.708732,-13.2069 -37.847656,-29.0039 -7.138924,-15.7971 -7.952148,-31.486 3.447265,-49.4297 -0.154702,0.2435 313.737906,-313.649 313.494136,-313.4941 9.52448,-6.0508 19.52792,-8.555 29.64844,-8.3164 z"
           style="baseline-shift:baseline;display:inline;overflow:visible;opacity:1;fill:#fecb98;fill-opacity:1;stroke:none;stroke-width:0.999683;stroke-dasharray:none;stroke-opacity:1;enable-background:accumulate;stop-color:#000000;stop-opacity:1"
           id="path9"
           inkscape:label="path1233"
           sodipodi:nodetypes="ssssssss"
           transform="translate(-28.231199,-24.782387)" /></g></g><g
       id="path825-9-4"
       style="stroke-width:0.0114286"
       inkscape:label="NODE_INSTANCE"
       transform="translate(-7,-7)"><path
         style="baseline-shift:baseline;display:inline;overflow:visible;vector-effect:none;fill:#333333;stroke-linejoin:round;enable-background:accumulate;stop-color:#000000;stop-opacity:1"
         d="M 8,7.5 C 7.7238691,7.5000276 7.5000276,7.7238691 7.5,8 v 3.5 3.5 c 2.76e-5,0.276131 0.2238691,0.499972 0.5,0.5 H 8.5 9 c 0.2761309,-2.8e-5 0.4999724,-0.223869 0.5,-0.5 2.76e-5,0.276131 0.2238691,0.499972 0.5,0.5 h 0.5 0.5 c 0.276131,-2.8e-5 0.499972,-0.223869 0.5,-0.5 2.8e-5,0.276131 0.223869,0.499972 0.5,0.5 h 0.5 0.5 c 0.276131,-2.8e-5 0.499972,-0.223869 0.5,-0.5 v -1 -0.5 h 0.5 1 c 0.276131,-2.8e-5 0.499972,-0.223869 0.5,-0.5 V 12.5 12 c -2.8e-5,-0.276131 -0.223869,-0.499972 -0.5,-0.5 0.276131,-2.8e-5 0.499972,-0.223869 0.5,-0.5 V 10.5 10 C 15.499972,9.7238691 15.276131,9.5000276 15,9.5 15.276131,9.4999724 15.499972,9.2761309 15.5,9 V 8.5 8 C 15.499972,7.7238691 15.276131,7.5000276 15,7.5 h -3.5 z"
         id="path2"
         sodipodi:nodetypes="cccccccccccccccccccccccccccccccccc" /><path
         style="baseline-shift:baseline;display:inline;overflow:visible;vector-effect:none;fill:#fefefe;stroke-linejoin:round;enable-background:accumulate;stop-color:#000000;stop-opacity:1"
         d="M 8,11.5 V 8.0000002 h 3.5 3.5 v 0.5000001 0.5 H 12 9 V 12 15 H 8.5 8 Z m 2,1 V 10 h 2.5 2.5 v 0.5 0.5 h -2 -2 v 2 2 H 10.5 10 Z m 2,1 V 12 h 1.5 1.5 v 0.5 0.5 h -1 -1 v 1 1 H 12.5 12 Z"
         id="path1" /></g><path
       style="fill:none;stroke-width:0.000357143"
       d="M 0,8 V 0 h 8 8 v 8 8 H 8 0 Z m 8.890625,6.717352 c 3.014869,-0.257294 5.349857,-1.792961 6.090035,-4.005272 0.222251,-0.664285 0.243664,-0.8288956 0.260751,-2.0045569 0.01619,-1.1142394 -0.0066,-1.5126344 -0.117245,-2.0454506 C 14.949498,5.8206366 14.541546,4.9774662 13.962691,4.26149 L 13.757227,4.0073547 14.100625,3.66774 c 0.18887,-0.1867884 0.363025,-0.3848666 0.387012,-0.4401737 0.05402,-0.124551 0.06238,-1.2677095 0.01028,-1.4052194 -0.04624,-0.1220292 -0.150425,-0.2284078 -0.2761,-0.281901 C 14.076871,1.4787496 9.1747913,0.5 9.0107316,0.5 H 8.8797303 l 0.060135,0.17109428 C 8.9918884,0.81910969 9,0.93092075 9,1.5 9,2.0690793 8.99189,2.1808903 8.939865,2.3289057 c -0.059346,0.1688512 -0.059346,0.1733374 0,0.3421886 C 8.9917937,2.8188406 9,2.9308108 9,3.4916131 9,3.8487966 8.986703,4.1873997 8.970452,4.2440647 8.946426,4.3278377 8.992666,4.6052137 9.2178698,5.7282334 9.370201,6.4878612 9.5109967,7.1515625 9.5307492,7.203125 c 0.1041281,0.2718181 0.4247012,0.4026709 0.6968168,0.2844297 0.05531,-0.024032 0.359645,-0.3043534 0.676305,-0.6229356 l 0.575746,-0.57924 0.205504,0.2207162 c 0.481561,0.5172078 0.811644,1.0686359 0.939328,1.569216 0.07576,0.2970053 0.07837,0.415224 0.01457,0.6603106 C 12.287323,10.086644 10.668764,11.051607 8.4629484,11.225336 7.3668856,11.311662 5.9912594,11.060203 5.09375,10.60946 4.34308,10.232462 3.8011044,9.7371366 3.5425634,9.1917916 L 3.453125,9.0031378 3.1476569,9.0015691 C 2.9296102,9.0004503 2.7932233,8.9827903 2.6710943,8.9398656 2.501735,8.8803406 2.4982179,8.8803572 2.3242592,8.9415 2.1655356,8.9972866 2.0803766,9.0023531 1.4448012,8.9938222 l -0.70371729,-0.00945 0.0194141,0.3824338 c 0.0894519,1.76209 1.06918359,3.277469 2.76812759,4.281542 0.9369522,0.553737 2.2658838,0.956297 3.5182494,1.065747 0.4465494,0.03903 1.4047713,0.04072 1.84375,0.0033 z M 2,5 V 2 H 5 8 V 1.5 1 H 4.5 1 V 4.5 8 H 1.5 2 Z M 4,6 V 4 H 6 8 V 3.5 3 H 5.5 3 V 5.5 8 H 3.5 4 Z M 6,7 V 6 H 7 8 V 5.5 5 H 6.5 5 V 6.5 8 H 5.5 6 Z"
       id="path303" /></g></svg>
