<?xml version="1.0" encoding="UTF-8" standalone="no"?>
<!-- Created with Inkscape (http://www.inkscape.org/) -->

<svg
   version="1.1"
   id="svg2"
   width="1600"
   height="1600"
   viewBox="0 0 1600 1600"
   sodipodi:docname="node_backgroundshader.svg"
   inkscape:version="1.2.2 (732a01da63, 2022-12-09)"
   xmlns:inkscape="http://www.inkscape.org/namespaces/inkscape"
   xmlns:sodipodi="http://sodipodi.sourceforge.net/DTD/sodipodi-0.dtd"
   xmlns="http://www.w3.org/2000/svg"
   xmlns:svg="http://www.w3.org/2000/svg"
   xmlns:rdf="http://www.w3.org/1999/02/22-rdf-syntax-ns#"
   xmlns:cc="http://creativecommons.org/ns#"
   xmlns:dc="http://purl.org/dc/elements/1.1/">
  <metadata
     id="metadata8">
    <rdf:RDF>
      <cc:Work
         rdf:about="">
        <dc:format>image/svg+xml</dc:format>
        <dc:type
           rdf:resource="http://purl.org/dc/dcmitype/StillImage" />
      </cc:Work>
    </rdf:RDF>
  </metadata>
  <defs
     id="defs6" />
  <sodipodi:namedview
     pagecolor="#808080"
     bordercolor="#666666"
     borderopacity="1"
     objecttolerance="10"
     gridtolerance="10"
     guidetolerance="10"
     inkscape:pageopacity="0"
     inkscape:pageshadow="2"
     inkscape:window-width="1993"
     inkscape:window-height="1009"
     id="namedview4"
     showgrid="false"
     inkscape:zoom="0.40429688"
     inkscape:cx="913.93236"
     inkscape:cy="880.54106"
     inkscape:window-x="-8"
     inkscape:window-y="-8"
     inkscape:window-maximized="1"
     inkscape:current-layer="NODE_BACKGROUNDSHADER"
     inkscape:showpageshadow="0"
     inkscape:pagecheckerboard="true"
     inkscape:deskcolor="#d1d1d1" />
  <g
     inkscape:groupmode="layer"
     id="layer1"
     inkscape:label="Layer 1">
    <g
       id="NODE_BACKGROUNDSHADER"
       transform="matrix(5.8916759,0,0,5.8916759,126.56208,1435.685)"
       style="stroke-width:0.169731">
      <g
         id="g296"
         style="stroke-width:0.169731">
        <path
           style="fill:none;stroke-width:0.00530408"
           d="M -4.5083482,-11.475605 V -33.86697 l 22.2771422,22.273519 c 12.252428,12.2504378 22.277142,22.326552 22.277142,22.391349 0,0.06535 -10.024714,0.117326 -22.277142,0.117326 H -4.5083482 Z M 65.561644,9.8715098 c -0.006,-0.574304 -0.40203,-1.879641 -0.88114,-2.900676 C 63.448134,4.3437498 2.8855388,-56.073331 0.49564679,-57.059851 c -0.949006,-0.39178 -2.46316899,-0.71227 -3.36476899,-0.71227 h -1.639286 v -17.75132 -17.75133 L 47.47159,-41.296322 c 28.589004,28.588152 51.979994,52.031012 51.979994,52.095245 0,0.06386 -7.62295,0.117326 -16.93991,0.117326 h -16.93991 l -0.0102,-1.0442042 z m 59.415896,0.10099 c 0,-2.697242 -1.76553,-4.734798 -19.39068,-22.3782498 -9.881006,-9.891289 -17.842546,-17.984159 -17.692286,-17.984159 0.1503,0 1.47921,0.414949 2.95305,0.921977 5.74352,1.976071 12.141276,2.892627 21.890496,3.136146 l 9.34156,0.233465 18.50268,18.5070318 18.5027,18.5070332 H 142.0313 c -16.8342,0 -17.05376,-0.01213 -17.05376,-0.9430662 z m 59.39552,-0.10099 c -0.0267,-2.735217 -2.06621,-5.071153 -20.33865,-23.2948058 l -18.58733,-18.537701 4.96473,-2.417486 c 2.73061,-1.329648 7.03987,-3.808678 9.57616,-5.509018 l 4.61139,-3.091518 26.94738,26.947382 26.94739,26.947381 h -17.05544 -17.05544 l -0.0102,-1.0442042 z m 21.67692,-40.6396398 -26.82946,-26.832451 3.09113,-4.61081 c 1.70012,-2.53595 4.17899,-6.84494 5.50862,-9.57555 l 2.41748,-4.96473 18.53771,18.58733 c 18.22365,18.272444 20.55958,20.311946 23.2948,20.338649 l 1.04421,0.01019 v 16.93991 c 0,9.316954 -0.0535,16.9399098 -0.11733,16.9399098 -0.0653,0 -12.1908,-12.0745968 -26.947,-26.8324458 z m 8.42392,-51.021531 -18.40418,-18.448249 -0.21936,-9.28214 c -0.22901,-9.69534 -1.14178,-16.08306 -3.11942,-21.8311 -0.50718,-1.47385 -0.92198,-2.80279 -0.92198,-2.95304 0,-0.1503 8.09287,7.81127 17.98416,17.69228 17.64345,17.625159 19.68101,19.390689 22.37825,19.390689 0.93089,0 0.94307,0.2201 0.94307,16.93992 0,9.31695 -0.0535,16.93991 -0.11882,16.93991 -0.0653,0 -8.40008,-8.30172 -18.52238,-18.44827 z M 19.836736,-98.215121 C 8.8680948,-109.21661 2.5132288,-115.2507 1.2929908,-115.82287 c -1.02103601,-0.47881 -2.744024,-0.87504 -3.828877,-0.88069 l -1.972462,-0.0102 v -17.98198 -17.98197 l 18.5070322,18.50268 18.507033,18.50269 0.233316,9.34157 c 0.243563,9.750979 1.160045,16.146939 3.137349,21.893989 0.507771,1.47578 0.861235,2.74534 0.785492,2.82111 -0.07574,0.0757 -7.647059,-7.394 -16.825078,-16.5995 z m 161.065704,-76.511979 -51.97843,-51.98 h 17.28721 17.28721 v 1.17519 c 0,0.64633 0.32049,1.95166 0.71227,2.90068 0.98658,2.38987 61.4036,62.95242 64.03069,64.18484 1.02103,0.47896 2.53518,0.87549 3.36478,0.88113 l 1.50833,0.0102 v 17.40402 c 0,9.5722 -0.052,17.40401 -0.11733,17.40401 -0.0639,0 -23.50709,-23.391 -52.09525,-51.98 z M 20.294784,-157.1629 C 1.9415228,-175.56664 0.24327679,-177.01553 -2.9999932,-177.03745 l -1.508355,-0.0102 v -17.51955 -17.51954 l 26.9473812,26.94738 26.947381,26.94738 -3.091517,4.6114 c -1.700325,2.53628 -4.1794,6.84556 -5.509019,9.57618 l -2.417515,4.96478 z m 16.734455,-42.62599 -26.915213,-26.91821 h 17.518551 17.518537 l 0.01022,1.50834 c 0.02228,3.24328 1.470885,4.94151 19.87455,23.29477 l 18.12329,18.07358 -4.96478,2.41752 c -2.73062,1.32965 -7.02028,3.79556 -9.53255,5.47985 -2.5123,1.6843 -4.60145,3.06236 -4.64258,3.06236 -0.0416,0 -12.18666,-12.11319 -26.990023,-26.91821 z m 173.576061,-4.64107 -22.27352,-22.27714 h 22.39137 22.39135 v 22.27714 c 0,12.25243 -0.0535,22.27714 -0.11733,22.27714 -0.0654,0 -10.14091,-10.02471 -22.39135,-22.27714 z m -72.40071,18.25732 c -5.07692,-1.92984 -12.37928,-3.01027 -22.10813,-3.271 l -9.57724,-0.25663 -18.499076,-18.50339 -18.49905,-18.5034 h 17.98197 17.981976 v 1.87133 c 0,1.0292 0.32064,2.64781 0.71257,3.59683 0.48297,1.16955 6.20175,7.22068 17.74974,18.78143 9.37041,9.38077 16.82931,17.04123 16.57535,17.02324 -0.25396,-0.0178 -1.29712,-0.35019 -2.31819,-0.73841 z"
           id="path825"
           inkscape:connector-curvature="0" />
        <path
           style="fill:#989898;stroke-width:0.00530408"
           d="m 107.10941,-33.912356 c -10.127866,-1.449499 -17.697286,-3.611971 -25.061776,-7.159903 -18.06717,-8.70405 -31.65671,-24.164982 -38.133495,-43.384762 -2.770416,-8.22119 -3.615328,-13.69887 -3.615328,-23.438659 0,-7.009 0.188465,-9.52389 1.025937,-13.69242 6.19254,-30.82377 29.404346,-53.74849 60.215422,-59.47073 6.44619,-1.19718 19.07972,-1.19718 25.52589,0 27.24112,5.05921 48.8611,23.71473 57.62599,49.72448 2.77042,8.22119 3.61533,13.69887 3.61533,23.43867 0,7.00898 -0.18846,9.523879 -1.02594,13.692409 -6.09792,30.3528 -28.69679,53.085047 -58.84841,59.195741 -4.45032,0.901928 -17.8612,1.590707 -21.32363,1.095145 z"
           id="path823"
           inkscape:connector-curvature="0" />
        <path
           style="fill:#ffffff;stroke-width:0.00530408"
           d="M 17.883031,-11.479199 -4.5083482,-33.874143 v -11.948984 -11.948984 h 1.639285 c 0.901631,0 2.41574899,0.32049 3.36476999,0.71228 2.38989101,0.98658 62.95243721,61.4035948 64.18485721,64.0306788 0.47896,1.021036 0.87549,2.326343 0.88113,2.900677 l 0.0102,1.0442042 H 52.923174 40.274469 Z M 47.586912,-41.181046 -4.5083482,-93.277851 v -11.717939 -11.71792 l 1.972462,0.0102 c 1.084897,0.006 2.80784099,0.40188 3.828877,0.88069 1.226728,0.57519 7.625911,6.6726 18.8637642,17.973949 13.801966,13.88 17.116434,17.45336 17.586303,18.9599 2.795173,8.96229 11.145314,21.66968 19.539976,29.736288 8.37942,8.051939 19.61477,15.197837 28.01335,17.817006 1.51018,0.470938 5.21949,3.924088 19.888056,18.514517 17.73197,17.6375118 19.75623,19.9595028 19.78291,22.6926848 l 0.0102,1.0442042 H 112.32986 99.682164 Z M 140.63898,-7.5346602 C 130.49364,-17.682388 122.19289,-26.140737 122.19289,-26.330999 c 0,-0.190247 0.70797,-0.345889 1.57311,-0.345889 2.86619,0 9.25063,-1.377916 15.50494,-3.346324 l 6.17152,-1.942359 18.58964,18.540003 c 18.27474,18.2259538 20.31426,20.5618758 20.34096,23.2971228 l 0.0102,1.0442042 h -12.6491 -12.64909 z m 50.78346,-8.6222788 -27.06971,-27.072668 1.15662,-0.757868 c 1.91618,-1.25554 9.22207,-8.390016 11.44752,-11.178936 l 2.08233,-2.60956 27.03765,27.034677 27.03765,27.0346928 v 7.311165 7.3111802 h -7.31118 -7.31117 z m 37.74715,-22.549517 c -1.22896,-0.576384 -8.12228,-7.153175 -20.39645,-19.460195 l -18.54,-18.58964 1.94235,-6.17154 c 1.96841,-6.25431 3.34633,-12.63874 3.34633,-15.50493 0,-0.86525 0.15757,-1.573099 0.3502,-1.573099 0.19262,0 8.651,8.302679 18.79633,18.450409 l 18.44615,18.4504 v 12.64477 12.644777 l -1.04421,-0.01022 c -0.5743,-0.0056 -1.87964,-0.401879 -2.90068,-0.880689 z m 0,-59.405695 c -1.23089,-0.57713 -7.90018,-6.946639 -19.79201,-18.902169 -14.59043,-14.66856 -18.04357,-18.37787 -18.51454,-19.88805 -2.79481,-8.96182 -11.14523,-21.66966 -19.53993,-29.73629 -8.37938,-8.05191 -19.6143,-15.19754 -28.01334,-17.81705 -1.50655,-0.4699 -5.0799,-3.78432 -18.9599,-17.5863 -11.30136,-11.23784 -17.39876,-17.6371 -17.97396,-18.86375 -0.47881,-1.02104 -0.87504,-2.74404 -0.88069,-3.8289 l -0.0102,-1.97244 h 11.71948 11.71947 l 52.09526,52.09679 52.09525,52.09679 v 12.64615 12.646149 l -1.04421,-0.0102 c -0.5743,-0.006 -1.87964,-0.40188 -2.90068,-0.88069 z M 13.937734,-134.23592 -4.5083482,-152.68632 v -12.18067 -12.18065 l 1.508355,0.0102 c 3.24331399,0.0223 4.941471,1.47074 23.2970942,19.87687 l 18.075896,18.1256 -1.942345,6.17149 c -1.968408,6.25424 -3.346323,12.63868 -3.346323,15.50487 0,0.86525 -0.157574,1.57311 -0.350197,1.57311 -0.192623,0 -8.650986,-8.30269 -18.796338,-18.45042 z m 214.303636,-24.2105 c -2.62708,-1.23237 -63.04416,-61.79497 -64.03068,-64.18484 -0.39178,-0.94901 -0.71228,-2.25433 -0.71228,-2.90068 v -1.17519 h 12.41666 12.41667 l 22.39136,22.39494 22.39138,22.39494 v 12.18104 12.18104 l -1.50834,-0.0102 c -0.8296,-0.006 -2.34375,-0.40203 -3.36478,-0.88113 z m -205.731971,-26.62356 -27.0177472,-27.0207 v -7.30821 -7.30821 h 7.311179 7.3111802 l 27.034678,27.03765 27.034695,27.03764 -2.49639,1.992 c -2.61363,2.08557 -8.39188,7.91524 -10.76929,10.86514 l -1.39054,1.72541 z m 42.264475,-17.15548 c -18.436027,-18.45489 -19.62276,-19.85037 -19.62276,-23.07443 v -1.40717 h 12.18499 12.18499 l 18.44608,18.45041 c 10.14535,10.14771 18.446076,18.60607 18.446076,18.79633 0,0.19025 -0.72029,0.34589 -1.60082,0.34589 -2.77053,0 -11.007666,1.78769 -16.029336,3.47882 -2.65615,0.8945 -5.05038,1.62636 -5.32051,1.62636 -0.27015,0 -8.68005,-8.1973 -18.68871,-18.21621 z"
           id="path821"
           inkscape:connector-curvature="0" />
        <path
           style="fill:#323232;stroke-width:0.00530408"
           d="m 105.25298,-26.489048 c -16.392766,-2.317743 -29.842616,-7.75341 -40.994106,-16.56754 -16.252751,-12.846133 -26.847166,-30.263903 -30.5463,-50.219713 -1.221679,-6.5904 -1.221679,-22.648359 0,-29.238749 3.699134,-19.95582 14.293549,-37.37359 30.5463,-50.21974 9.55569,-7.55279 22.68198,-13.3893 35.42483,-15.75139 6.590386,-1.22168 22.648346,-1.22168 29.238746,0 12.74285,2.36209 25.86915,8.1986 35.42484,15.75139 16.25273,12.84615 26.84715,30.26392 30.54628,50.21974 1.22168,6.59039 1.22168,22.648349 0,29.238749 -2.46829,13.31574 -8.32234,26.17099 -16.58023,36.40952 -10.36895,12.855885 -22.82644,21.52906 -38.27695,26.649268 -8.66676,2.872102 -13.13375,3.575763 -23.87689,3.761153 -5.23281,0.09059 -10.14073,0.07574 -10.90652,-0.03269 z m 23.18007,-8.518482 c 26.61177,-5.393296 47.64168,-23.877781 56.25896,-49.449491 2.77041,-8.22119 3.61533,-13.69887 3.61533,-23.438659 0,-7.009 -0.18847,-9.52389 -1.02594,-13.69242 -6.19256,-30.82377 -29.40434,-53.74849 -60.21544,-59.47073 -6.44618,-1.19718 -19.07971,-1.19718 -25.52589,0 -27.241056,5.05921 -48.861036,23.71473 -57.625931,49.72448 -2.770416,8.22119 -3.615328,13.69887 -3.615328,23.43867 0,7.00898 0.188465,9.523879 1.025937,13.692409 4.050578,20.162 15.154816,36.90366 31.904896,48.102482 9.71859,6.497693 20.02551,10.205649 33.879816,12.188433 3.46243,0.495592 16.87331,-0.193217 21.32363,-1.095144 z"
           id="path819"
           inkscape:connector-curvature="0" />
      </g>
    </g>
  </g>
</svg>
