<?xml version="1.0" encoding="UTF-8" standalone="no"?>
<!-- Created with Inkscape (http://www.inkscape.org/) -->

<svg
   version="1.1"
   id="svg2"
   width="1600"
   height="1600"
   viewBox="0 0 1600 1600"
   sodipodi:docname="node_makegroup.svg"
   inkscape:version="1.2.2 (732a01da63, 2022-12-09)"
   xmlns:inkscape="http://www.inkscape.org/namespaces/inkscape"
   xmlns:sodipodi="http://sodipodi.sourceforge.net/DTD/sodipodi-0.dtd"
   xmlns="http://www.w3.org/2000/svg"
   xmlns:svg="http://www.w3.org/2000/svg"
   xmlns:rdf="http://www.w3.org/1999/02/22-rdf-syntax-ns#"
   xmlns:cc="http://creativecommons.org/ns#"
   xmlns:dc="http://purl.org/dc/elements/1.1/">
  <metadata
     id="metadata8">
    <rdf:RDF>
      <cc:Work
         rdf:about="">
        <dc:format>image/svg+xml</dc:format>
        <dc:type
           rdf:resource="http://purl.org/dc/dcmitype/StillImage" />
      </cc:Work>
    </rdf:RDF>
  </metadata>
  <defs
     id="defs6" />
  <sodipodi:namedview
     pagecolor="#808080"
     bordercolor="#666666"
     borderopacity="1"
     objecttolerance="10"
     gridtolerance="10"
     guidetolerance="10"
     inkscape:pageopacity="0"
     inkscape:pageshadow="2"
     inkscape:window-width="1993"
     inkscape:window-height="1009"
     id="namedview4"
     showgrid="false"
     inkscape:zoom="0.5"
     inkscape:cx="9"
     inkscape:cy="8"
     inkscape:window-x="-8"
     inkscape:window-y="-8"
     inkscape:window-maximized="1"
     inkscape:current-layer="NODE_MAKEGROUP"
     inkscape:showpageshadow="0"
     inkscape:pagecheckerboard="true"
     inkscape:deskcolor="#d1d1d1" />
  <g
     id="NODE_MAKEGROUP"
     transform="matrix(100,0,0,100,0,4.9999997e-5)"
     style="stroke-width:0.0114286">
    <path
       style="fill:none;stroke-width:0.000357143"
       d="M 0,8 V 0 h 8 8 v 8 8 H 8 0 Z m 8.84375,6.909555 c 1.566277,-0.35707 2.740901,-1.549642 3.081225,-3.128305 0.08007,-0.371415 0.08007,-1.191085 0,-1.5625 -0.0708,-0.3284084 -0.210335,-0.7286781 -0.352449,-1.011015 -0.05928,-0.1177772 -0.103369,-0.2176038 -0.09797,-0.2218372 0.0054,-0.00423 0.13497,-0.032056 0.287934,-0.061827 1.579659,-0.3074547 2.816144,-1.5362512 3.162484,-3.1428203 0.08007,-0.371415 0.08007,-1.191085 0,-1.5625 C 14.58015,2.61921 13.38079,1.41985 11.78125,1.0750252 c -0.371415,-0.0800686 -1.191085,-0.0800686 -1.5625,0 C 9.4596619,1.2386675 8.7453841,1.615341 8.2265625,2.1256028 L 8,2.3484273 7.7734375,2.1256028 C 7.2546159,1.615341 6.5403381,1.2386675 5.78125,1.0750252 5.409835,0.9949566 4.590165,0.9949566 4.21875,1.0750252 2.61921,1.41985 1.41985,2.61921 1.0750252,4.21875 c -0.0800686,0.371415 -0.0800686,1.191085 0,1.5625 0.3463401,1.6065691 1.5828247,2.8353656 3.1624835,3.1428203 0.1529641,0.029772 0.2825344,0.057594 0.2879344,0.061827 0.0054,0.00423 -0.038686,0.10406 -0.097969,0.2218372 C 4.28536,9.4900714 4.1458225,9.8903411 4.075025,10.21875 c -0.080069,0.371415 -0.080069,1.191084 0,1.5625 0.3033266,1.407042 1.2760194,2.521326 2.6124747,2.992763 0.2456016,0.08664 0.6112716,0.172936 0.875,0.206507 0.2464716,0.03137 1.0203631,-0.01149 1.28125,-0.07097 z"
       id="path825"
       inkscape:connector-curvature="0" />
    <path
       style="fill:#fefe7f;stroke-width:0.000357143"
       d="M 7.6875,14.480426 C 6.097335,14.27939 4.9022178,13.194707 4.5757872,11.65625 c -0.075729,-0.35691 -0.075729,-0.95559 0,-1.3125 C 4.8761025,8.9283744 5.9283744,7.8761025 7.34375,7.5757872 c 0.35691,-0.075729 0.95559,-0.075729 1.3125,0 1.415376,0.3003153 2.467648,1.3525872 2.767963,2.7679628 0.07573,0.35691 0.07573,0.95559 0,1.3125 -0.296478,1.39729 -1.335394,2.451424 -2.7134536,2.753199 -0.2724538,0.05966 -0.8150503,0.0973 -1.0232594,0.07098 z m 0.9116319,-0.575243 c 0.3610453,-0.07674 0.6901815,-0.21768 1.031085,-0.441529 0.3840521,-0.252182 0.5581481,-0.423537 0.8042821,-0.791624 0.723623,-1.082155 0.723623,-2.261905 0,-3.3440603 -0.246134,-0.3680863 -0.42023,-0.5394419 -0.8042821,-0.7916241 -1.038961,-0.6822181 -2.2214728,-0.6822181 -3.2604338,0 C 5.9857309,8.7885278 5.811635,8.9598834 5.5655009,9.3279697 4.9724878,10.214803 4.8646787,11.178959 5.2539672,12.114073 c 0.1284884,0.308642 0.4739994,0.827534 0.6782228,1.018561 0.3592934,0.336077 0.9464484,0.654733 1.4012816,0.760493 0.4938406,0.11483 0.76975,0.117458 1.2656603,0.01206 z M 4.6875,8.4782981 C 3.1383756,8.3125906 1.9013766,7.1907419 1.5757872,5.65625 c -0.075729,-0.35691 -0.075729,-0.95559 0,-1.3125 C 1.8761025,2.9283743 2.9283743,1.8761025 4.34375,1.5757872 c 0.35691,-0.075729 0.95559,-0.075729 1.3125,0 0.6875841,0.145892 1.2866316,0.4641489 1.7888381,0.9503588 l 0.2419635,0.2342559 -0.063487,0.096362 C 7.5886462,2.9097623 7.5238128,3.0227162 7.4794903,3.107772 L 7.3989041,3.2624191 7.3327872,3.1702719 C 7.0963678,2.8407739 6.5662816,2.4422225 6.1140725,2.2539673 5.1969675,1.8721756 4.2296816,1.9717062 3.3697831,2.5363456 2.9857308,2.7885278 2.8116351,2.9598835 2.5655009,3.3279697 1.9724879,4.2148025 1.8646788,5.1789594 2.2539673,6.1140725 2.381168,6.4196222 2.7273818,6.94109 2.9268048,7.1275019 3.1334875,7.3206997 3.5251937,7.5805803 3.8035666,7.7091962 4.2230316,7.9030012 4.8404919,8.0191569 5.2084778,7.9734859 L 5.4013303,7.9495509 5.1303528,8.2244894 C 4.981315,8.3757053 4.8453125,8.4973059 4.828125,8.4947125 4.8109375,8.4921187 4.7476563,8.4847328 4.6875,8.4782981 Z m 6.181449,-0.2550956 -0.270279,-0.2736516 0.192852,0.023935 c 0.367986,0.045671 0.985446,-0.070485 1.404911,-0.2642896 0.278373,-0.128616 0.67008,-0.3884966 0.876762,-0.5816944 C 13.272618,6.94109 13.618832,6.4196222 13.746033,6.1140725 14.135321,5.1789594 14.027512,4.2148025 13.434499,3.3279697 13.188365,2.9598835 13.014269,2.7885278 12.630217,2.5363456 11.771987,1.9728018 10.802788,1.8722777 9.8902659,2.2521613 9.6059391,2.3705268 9.1511369,2.6625668 8.93219,2.8673658 8.7279666,3.0583931 8.3824556,3.5772847 8.2539672,3.8859275 7.8233178,4.9203944 8.0102222,6.0238612 8.7757147,6.9662725 8.8821891,7.097355 8.8840013,7.1033619 8.8111513,7.0837306 8.7689244,7.0723512 8.6078125,7.0480253 8.453125,7.0296734 8.1262766,6.9908962 8.1074616,6.9758078 7.9095309,6.59375 7.4638328,5.7334356 7.3921,4.7474334 7.7106022,3.859375 8.1324791,2.6830839 9.1065919,1.8382881 10.34375,1.5757872 c 0.35691,-0.075729 0.95559,-0.075729 1.3125,0 1.415376,0.3003153 2.467648,1.3525871 2.767963,2.7679628 0.115067,0.5423072 0.06214,1.2477116 -0.134815,1.796875 -0.468361,1.3058984 -1.58372,2.1732166 -3.008846,2.3397178 l -0.141324,0.016511 z M 7.2344956,6.9502384 C 7.3014597,6.8658884 7.3663597,6.784655 7.3787175,6.7697194 7.3966334,6.7480662 7.53125,6.9604653 7.53125,7.0103859 c 0,0.00708 -0.059766,0.022377 -0.1328125,0.033989 -0.073047,0.011612 -0.1672109,0.029689 -0.2092537,0.04017 -0.071501,0.017825 -0.068573,0.00914 0.045312,-0.1343065 z"
       id="path823"
       inkscape:connector-curvature="0" />
    <path
       style="fill:#fea900;stroke-width:0.000357143"
       d="M 7.734375,13.968215 C 7.2063481,13.896499 6.8003537,13.746382 6.3697831,13.463654 5.9857309,13.211472 5.811635,13.040117 5.5655009,12.67203 c -0.7236228,-1.082155 -0.7236228,-2.261905 0,-3.3440603 0.2461341,-0.3680863 0.42023,-0.5394419 0.8042822,-0.7916241 1.038961,-0.6822181 2.2214728,-0.6822181 3.2604338,0 0.3840521,0.2521822 0.5581481,0.4235378 0.8042821,0.7916241 0.593013,0.8868323 0.700822,1.8509893 0.311534,2.7861023 -0.128489,0.308643 -0.474,0.827535 -0.678223,1.018562 -0.2189469,0.204799 -0.6737491,0.496839 -0.9580759,0.615205 -0.4244319,0.176691 -1.0082438,0.270236 -1.3753591,0.220376 z m -3,-6.0002606 C 4.2083481,7.8972406 3.8006316,7.7465647 3.3697831,7.4636544 2.9857308,7.2114722 2.8116351,7.0401166 2.5655009,6.6720303 1.8418783,5.5898747 1.8418783,4.4101253 2.5655009,3.3279697 2.8116351,2.9598835 2.9857308,2.7885278 3.3697831,2.5363456 4.4047778,1.8567318 5.5918119,1.8544924 6.6208766,2.5302124 6.9538584,2.74886 7.0974325,2.8728508 7.2660872,3.0874183 L 7.3962081,3.2529616 7.2913244,3.5141775 C 7.2336384,3.6578463 7.1588609,3.8832306 7.1251519,4.0150312 6.9156553,4.8341544 6.9735028,5.6942778 7.2913244,6.4858225 L 7.3962081,6.7470384 7.2643647,6.9150206 C 7.1384609,7.075435 7.1186247,7.0874197 6.8240731,7.1810394 6.4160794,7.310715 6.0623031,7.4852909 5.6760859,7.7475294 5.3735475,7.9529509 5.3495862,7.9632581 5.140625,7.9778669 5.0203125,7.9862781 4.8375,7.9818175 4.734375,7.9679544 Z m 6.03125,0.00396 C 10.642404,7.9554434 10.54662,7.9074469 10.3125,7.7448553 9.9390656,7.4855134 9.6472384,7.3389478 9.2237541,7.19805 9.0405331,7.1370906 8.8644947,7.0640756 8.8325578,7.0357947 8.7184869,6.9347828 8.3537231,6.3536962 8.2539672,6.1140725 7.8646787,5.1789594 7.9724878,4.2148025 8.5655009,3.3279697 8.811635,2.9598835 8.9857309,2.7885278 9.3697831,2.5363456 c 1.0389609,-0.6822181 2.2214729,-0.6822181 3.2604339,0 0.384052,0.2521822 0.558148,0.4235379 0.804282,0.7916241 0.723623,1.0821556 0.723623,2.261905 0,3.3440606 -0.115491,0.1727134 -0.280501,0.379985 -0.366689,0.4606038 -0.218947,0.204799 -0.673749,0.496839 -0.958076,0.6152046 -0.408525,0.1700694 -1.004647,0.2694482 -1.344109,0.2240747 z"
       id="path821"
       inkscape:connector-curvature="0" />
    <path
       style="fill:#191919;stroke-width:0.000357143"
       d="M 7.5625,14.980521 C 5.8128841,14.757808 4.4464812,13.504325 4.0750253,11.78125 c -0.080069,-0.371415 -0.080069,-1.191085 0,-1.5625 C 4.1458228,9.8903416 4.2853603,9.4900719 4.4274744,9.207735 4.4867572,9.0899578 4.5308431,8.9901312 4.5254431,8.9858978 4.5200431,8.9816647 4.3904728,8.9538422 4.2375087,8.9240703 2.6578499,8.6166156 1.4213653,7.3878191 1.0750252,5.78125 0.9949566,5.409835 0.9949566,4.590165 1.0750252,4.21875 1.41985,2.61921 2.61921,1.41985 4.21875,1.0750252 c 0.371415,-0.0800686 1.191085,-0.0800686 1.5625,0 0.7590881,0.1636423 1.4733659,0.5403158 1.9921875,1.0505776 L 8,2.3484273 8.2265625,2.1256028 C 8.7453841,1.615341 9.4596619,1.2386675 10.21875,1.0750252 c 0.371415,-0.0800686 1.191085,-0.0800686 1.5625,0 1.59954,0.3448248 2.7989,1.5441848 3.143725,3.1437248 0.08007,0.371415 0.08007,1.191085 0,1.5625 -0.34634,1.6065691 -1.582825,2.8353656 -3.162484,3.1428203 -0.152964,0.029772 -0.282534,0.057594 -0.287934,0.061827 -0.0054,0.00423 0.03869,0.10406 0.09797,0.2218372 0.142114,0.2823369 0.281651,0.6826066 0.352449,1.0110155 0.08007,0.371415 0.08007,1.191084 0,1.5625 -0.340324,1.578663 -1.514948,2.771234 -3.081225,3.128304 -0.2608869,0.05948 -1.0347784,0.10234 -1.28125,0.07097 z m 1.1482594,-0.571072 c 1.3780596,-0.301775 2.4169756,-1.355909 2.7134536,-2.753199 0.07573,-0.35691 0.07573,-0.95559 0,-1.3125 C 11.123898,8.9283744 10.071626,7.8761025 8.65625,7.5757872 c -0.35691,-0.075729 -0.95559,-0.075729 -1.3125,0 -1.4153756,0.3003153 -2.4676475,1.3525872 -2.7679628,2.7679628 -0.075729,0.35691 -0.075729,0.95559 0,1.3125 0.3264306,1.538457 1.5215478,2.62314 3.1117128,2.824176 0.2082091,0.02632 0.7508056,-0.01131 1.0232594,-0.07098 z M 5.1508297,8.2044819 C 5.7302884,7.6186138 6.4504684,7.2291141 7.2375087,7.0759297 7.3904728,7.0461578 7.5200431,7.0183353 7.5254431,7.0141022 7.5308431,7.0098688 7.4867572,6.9100422 7.4274744,6.792265 7.2853603,6.5099281 7.1458228,6.1096584 7.0750253,5.78125 c -0.080069,-0.371415 -0.080069,-1.191085 0,-1.5625 C 7.1739569,3.7598359 7.4030678,3.1908834 7.6234831,2.8567635 L 7.6870516,2.7604019 7.4450881,2.526146 C 6.7638219,1.86658 5.9206669,1.5194267 5,1.5194267 c -1.4769106,0 -2.7835331,0.9294799 -3.2893977,2.3399483 -0.2592395,0.7228203 -0.2592395,1.5584297 0,2.28125 0.4620038,1.2881744 1.6126461,2.1917409 2.9768977,2.3376731 0.060156,0.00643 0.1234375,0.013761 0.140625,0.016281 0.017188,0.00252 0.1624047,-0.1280241 0.3227047,-0.2900972 z M 11.671875,8.4158422 C 12.861817,8.1874222 13.869437,7.3115734 14.289398,6.140625 14.60006,5.2744266 14.53705,4.2918641 14.117053,3.453125 13.784457,2.7889263 13.213724,2.2183081 12.546875,1.8832628 c -0.974948,-0.4898439 -2.118802,-0.4898439 -3.09375,0 C 8.6452103,2.2891841 8.0190913,2.9992358 7.7106022,3.859375 7.3999159,4.7256409 7.4630206,5.7090434 7.8830581,6.546875 7.9347587,6.65 8.0170788,6.7927253 8.0659919,6.8640422 8.1503841,6.9870891 8.1649303,6.9947591 8.3508997,7.0142656 9.3270144,7.1166513 10.1681,7.51701 10.848819,8.2032813 l 0.291104,0.2934778 0.140976,-0.016464 c 0.07754,-0.00906 0.253476,-0.038059 0.390976,-0.064453 z"
       id="path819"
       inkscape:connector-curvature="0" />
  </g>
</svg>
