<?xml version="1.0" encoding="UTF-8" standalone="no"?>
<!-- Created with Inkscape (http://www.inkscape.org/) -->

<svg
   version="1.1"
   id="svg2"
   width="1600"
   height="1600"
   viewBox="0 0 1600 1600"
   sodipodi:docname="node_clusterbyconnected.svg"
   inkscape:version="1.4.3 (0d15f75, 2025-12-25)"
   xml:space="preserve"
   xmlns:inkscape="http://www.inkscape.org/namespaces/inkscape"
   xmlns:sodipodi="http://sodipodi.sourceforge.net/DTD/sodipodi-0.dtd"
   xmlns="http://www.w3.org/2000/svg"
   xmlns:svg="http://www.w3.org/2000/svg"
   xmlns:rdf="http://www.w3.org/1999/02/22-rdf-syntax-ns#"
   xmlns:cc="http://creativecommons.org/ns#"
   xmlns:dc="http://purl.org/dc/elements/1.1/"><metadata
     id="metadata8"><rdf:RDF><cc:Work
         rdf:about=""><dc:format>image/svg+xml</dc:format><dc:type
           rdf:resource="http://purl.org/dc/dcmitype/StillImage" /></cc:Work></rdf:RDF></metadata><defs
     id="defs6" /><sodipodi:namedview
     pagecolor="#808080"
     bordercolor="#666666"
     borderopacity="1"
     objecttolerance="10"
     gridtolerance="10"
     guidetolerance="10"
     inkscape:pageopacity="0"
     inkscape:pageshadow="2"
     inkscape:window-width="2560"
     inkscape:window-height="1009"
     id="namedview4"
     showgrid="true"
     inkscape:zoom="0.25"
     inkscape:cx="852"
     inkscape:cy="1148"
     inkscape:window-x="1912"
     inkscape:window-y="-8"
     inkscape:window-maximized="1"
     inkscape:current-layer="VERTEX_NEIGHBORS"
     inkscape:showpageshadow="0"
     inkscape:pagecheckerboard="true"
     inkscape:deskcolor="#d1d1d1"><inkscape:grid
       id="grid4"
       units="px"
       originx="0"
       originy="0"
       spacingx="100"
       spacingy="100"
       empcolor="#0099e5"
       empopacity="0.30196078"
       color="#0099e5"
       opacity="0.14901961"
       empspacing="5"
       enabled="true"
       visible="true" /></sodipodi:namedview><g
     id="DRIVER_DISTANCE"
     transform="matrix(100,0,0,100,0,4.9999997e-5)"
     style="stroke-width:0.0114286"
     inkscape:label="node_clusterbydistance"><g
       id="CONNECTED"
       style="stroke-width:0.0114286"
       transform="translate(2,1.9999995)"><path
         style="fill:none;stroke-width:0.000357143"
         d="M 0,8.0000002 V 0 H 8.0000002 16.000001 V 8.0000002 16.000001 H 8.0000002 0 Z M 8.5994824,14.94003 c 0.7528739,-0.192552 1.3729739,-0.707115 1.6871446,-1.400003 0.292173,-0.644374 0.292173,-1.435679 0,-2.080053 C 9.8904541,10.586235 9.0018195,10 8.0735459,10 H 7.7820891 L 7.735879,9.8984379 C 7.7104636,9.8425784 7.6425525,9.7125002 7.5849652,9.6093752 7.482768,9.4263645 7.3584117,9.1995684 7.1608092,8.8358166 7.1070865,8.7369216 7.0276908,8.5998668 6.9843752,8.5312502 6.9410597,8.4626337 6.8616717,8.3255791 6.8079581,8.2266841 6.7542443,8.1277894 6.6700111,7.973047 6.6207734,7.8828127 6.2768693,7.2525656 6.1536773,7.0264727 6.0546173,6.8437502 6.0033687,6.7492191 5.936869,6.6367191 5.9068399,6.5937502 5.8768111,6.5507815 5.8030223,6.424219 5.7428648,6.3125002 5.6827073,6.2007816 5.5874808,6.0250003 5.5312502,5.9218753 5.4750195,5.8187503 5.380436,5.6447388 5.3210646,5.5351835 L 5.2131162,5.335992 5.3535757,5.1914337 C 5.4944018,5.046498 5.7312942,4.7019171 5.7666145,4.5906323 c 0.018284,-0.057607 0.085049,-0.059382 2.2333857,-0.059382 2.1483368,0 2.2151018,0.00177 2.2333858,0.059382 0.03993,0.1258039 0.28081,0.4648981 0.464821,0.6543397 0.336325,0.3462501 0.731325,0.5746005 1.202311,0.6950582 0.321471,0.082219 0.877493,0.082219 1.198965,0 0.916113,-0.2343023 1.606245,-0.924434 1.840547,-1.8405478 0.08222,-0.3214713 0.08222,-0.8774932 0,-1.1989645 -0.234302,-0.9161139 -0.924434,-1.6062455 -1.840547,-1.840548 -0.321472,-0.0822185 -0.877494,-0.0822185 -1.198965,0 -0.711963,0.1820895 -1.321282,0.6657397 -1.646876,1.3072176 L 10.18623,2.5000001 H 8.0000002 5.8137705 L 5.7463589,2.3671875 C 5.4207642,1.7257096 4.8114457,1.2420594 4.0994824,1.0599699 c -0.3214713,-0.0822185 -0.8774932,-0.0822185 -1.1989645,0 -0.7528738,0.1925527 -1.3729738,0.707116 -1.6871442,1.4000038 -0.29217305,0.644374 -0.29217305,1.4356789 0,2.0800526 0.3228916,0.7121222 0.9440952,1.2165387 1.7385145,1.4116711 0.2682241,0.065884 0.2827798,0.07394 0.3457228,0.1913538 0.03614,0.067416 0.1156465,0.2139802 0.1766808,0.325699 0.061034,0.1117189 0.1549261,0.2840391 0.2086493,0.3829339 0.053723,0.098895 0.1329762,0.2357245 0.1761187,0.3040664 0.043142,0.068342 0.07844,0.1335288 0.07844,0.1448601 0,0.011331 0.044242,0.09247 0.098314,0.1803085 0.054073,0.087838 0.1365459,0.2300186 0.1832735,0.3159562 0.085416,0.1570908 0.2044821,0.3755578 0.3704353,0.6796875 0.2038943,0.3736615 0.2904982,0.5327006 0.3828827,0.703125 0.053573,0.098828 0.1219753,0.2148438 0.1520044,0.2578125 0.030029,0.042969 0.1038176,0.1695312 0.1639751,0.28125 0.1102997,0.2048381 0.2349757,0.4340817 0.407894,0.7499997 0.051742,0.09453 0.1364602,0.25152 0.1882629,0.348864 l 0.094187,0.176989 -0.097049,0.151238 C 5.6202016,11.553319 5.5000001,11.979782 5.5000001,12.5 c 0,0.719954 0.2481232,1.311611 0.7550283,1.800388 0.3351574,0.323172 0.6865319,0.521044 1.1333008,0.638204 0.3110672,0.08157 0.895114,0.08227 1.2111532,0.0014 z"
         id="path827"
         inkscape:connector-curvature="0" /><path
         style="fill:#fefefe;stroke-width:0.000357143"
         d="M 5.9843752,3.5156527 V 3.0000342 h 2.015625 2.0156248 V 3.5156527 4.0312713 H 8.0000002 5.9843752 Z"
         id="path17" /><path
         style="fill:#fefefe;stroke-width:0.000357143"
         d="M 2.969781,10.017692 C 2.975831,9.9182518 2.981957,9.7401348 2.983394,9.6218858 2.984834,9.5036374 2.989434,9.3276764 2.99362,9.2308624 2.99781,9.1340484 3.00068,9.0301601 3,9 2.99874,8.943942 2.99518,8.5322534 2.99482,8.4017363 2.9947108,8.3619153 2.99773,8.2499397 3.00153,8.1529016 3.00533,8.0558636 3.00961,7.8797192 3.01105,7.7614702 3.01249,7.6432212 3.01676,7.4670704 3.02055,7.3700239 3.02434,7.2729779 3.02808,7.0965212 3.02887,6.9778988 3.0296598,6.8592763 3.03403,6.7257167 3.03859,6.6810996 3.04314,6.6364826 3.04289,6.5551452 3.0380228,6.5003501 c -0.00487,-0.054795 -0.00588,-0.211581 -0.00226,-0.3484129 0.00362,-0.1368324 0.00707,-0.2891012 0.00767,-0.3383752 0.00751,-0.6248678 0.017324,-0.819177 0.041699,-0.8257082 0.010464,-0.0028 0.1254851,0.024738 0.2556117,0.061201 0.1301267,0.036463 0.3504015,0.076658 0.4894997,0.089321 0.2347853,0.021374 0.252698,0.027524 0.2500001,0.085834 -0.011277,0.2437263 -0.018333,0.4584325 -0.019111,0.581529 -4.996e-4,0.079097 -0.00381,0.255802 -0.00736,0.3926777 -0.00355,0.1368756 -0.00416,0.2908514 -0.00136,0.3421684 0.00849,0.1556395 0.00849,0.2313736 2e-5,0.4148274 -0.00446,0.096655 -0.00929,0.2724855 -0.010728,0.3907346 -0.00144,0.1182488 -0.00571,0.2943998 -0.0095,0.3914462 -0.00379,0.097047 -0.00753,0.2735028 -0.00832,0.3921253 -7.9e-4,0.1186224 -0.00451,0.2481147 -0.00826,0.2877608 -0.00375,0.039646 -0.00437,0.1614709 -0.00137,0.2707213 0.003,0.1092504 0.00628,0.2311951 0.00729,0.2709877 0.00101,0.039792 -0.00181,0.1514314 -0.00628,0.2480866 -0.00446,0.096656 -0.00929,0.2724858 -0.010728,0.3907352 -0.00395,0.324828 -0.022736,0.57824 -0.044215,0.596306 -0.010569,0.0089 -0.1281184,0.0037 -0.2612259,-0.01143 -0.1331052,-0.01518 -0.3541276,-0.01787 -0.4911627,-0.006 l -0.2491534,0.0216 z"
         id="path825-8" /><path
         style="fill:#656565;stroke-width:0.000357143"
         d="M 5.9074552,2.7890625 C 5.8703946,2.6730469 5.8326968,2.5605469 5.823682,2.5390627 5.81066,2.5080277 6.2579252,2.4999997 8.0000002,2.4999997 c 1.7420751,0 2.1893398,0.00803 2.1763188,0.039063 -0.009,0.021484 -0.04671,0.1339842 -0.08377,0.2499998 L 10.025163,3 H 8.0000002 5.9748377 Z"
         id="path20" /><path
         style="fill:#656565;stroke-width:0.000357143"
         d="m 5.813827,4.5078127 c 7.289e-4,-0.012891 0.035119,-0.121875 0.07642,-0.2421875 L 5.9653406,4.0468751 H 8.0000002 10.03466 l 0.07509,0.2187501 c 0.0413,0.1203125 0.07569,0.2292968 0.07642,0.2421875 7.28e-4,0.012891 -0.9830487,0.023437 -2.1861738,0.023437 -1.203125,0 -2.1869028,-0.010547 -2.1861732,-0.023437 z"
         id="path19" /><path
         style="fill:#656565;stroke-width:0.000357143"
         d="m 3.9895232,10.176527 c -0.00371,-0.0274 -0.00253,-0.12045 0.00263,-0.2067842 0.00515,-0.08633 0.010635,-0.253668 0.012184,-0.371852 0.00155,-0.1181835 0.00647,-0.2939608 0.010933,-0.3906159 0.00446,-0.096655 0.00729,-0.2082939 0.00628,-0.2480866 -0.00101,-0.039793 -0.00429,-0.1617371 -0.00729,-0.2709878 -0.003,-0.1092505 -0.00238,-0.2310752 0.00137,-0.2707212 0.00375,-0.039646 0.00747,-0.1691385 0.00826,-0.2877608 7.897e-4,-0.1186225 0.00453,-0.2950788 0.00832,-0.3921253 0.00379,-0.097046 0.00806,-0.2731973 0.0095,-0.3914463 0.00144,-0.118249 0.00626,-0.2940796 0.010728,-0.3907346 0.00847,-0.1834538 0.00847,-0.259188 -1.99e-5,-0.4148274 -0.0028,-0.051317 -0.00218,-0.2052926 0.00136,-0.3421683 0.00355,-0.1368758 0.00686,-0.3135806 0.00736,-0.3926778 5.001e-4,-0.079097 0.00601,-0.2257909 0.012251,-0.325987 0.00624,-0.1001956 0.004,-0.1958127 -0.00497,-0.2124814 -0.033265,-0.061825 0.04102,-0.1237301 0.1497729,-0.1248144 0.061689,-6.147e-4 0.1732707,-0.01331 0.2479589,-0.028212 0.074688,-0.014901 0.1360107,-0.014246 0.1362733,0.00146 2.64e-4,0.015703 -0.00219,0.1244371 -0.00545,0.2416327 -0.00326,0.1171954 -0.00806,0.3011621 -0.010663,0.4088145 -0.0026,0.1076522 -0.00781,0.2995016 -0.011572,0.4263315 -0.00376,0.1268298 -0.00314,0.2733308 0.00138,0.3255572 0.00452,0.052227 0.00564,0.1908956 0.00249,0.3081535 -0.00315,0.1172579 -0.00776,0.297276 -0.010235,0.4000402 -0.00248,0.1027634 -0.00653,0.2709237 -0.009,0.3736878 -0.010684,0.4434397 -0.014303,0.5900252 -0.019324,0.7828398 -0.00293,0.1125026 -0.00271,0.2708892 4.987e-4,0.3519706 0.0032,0.081082 0.00354,0.2354727 7.443e-4,0.3430916 -0.00554,0.2132892 -0.0119,0.4731415 -0.019384,0.7918265 -0.00264,0.11259 -0.00707,0.2761411 -0.00983,0.3634461 l -0.00502,0.158737 -0.1969096,-0.0699 c -0.1083014,-0.03844 -0.2232249,-0.07568 -0.2553946,-0.08274 -0.032185,-0.007 -0.061514,-0.03527 -0.065227,-0.06266 z"
         id="path18" /><path
         style="fill:#656565;stroke-width:0.000357143"
         d="m 2.4450178,10.161068 c 0.00373,-0.108117 0.00901,-0.2927182 0.01174,-0.4102222 0.00988,-0.4260255 0.014549,-0.6093605 0.021262,-0.8357075 0.00376,-0.1268301 0.00314,-0.2733308 -0.00138,-0.3255572 -0.00452,-0.052226 -0.00564,-0.1908954 -0.00249,-0.3081534 0.00315,-0.1172579 0.00765,-0.2932803 0.00999,-0.3911609 0.00234,-0.097881 0.00661,-0.2740316 0.0095,-0.3914464 0.00288,-0.1174148 0.00726,-0.2975613 0.00974,-0.4003255 0.00248,-0.1027639 0.00666,-0.2708475 0.0093,-0.3735189 0.00264,-0.1026712 0.00241,-0.2710351 -4.954e-4,-0.3741419 -0.00291,-0.1031068 -6.54e-4,-0.1954958 0.00501,-0.2053089 0.00567,-0.00981 0.00769,-0.083915 0.0045,-0.1646725 -0.00319,-0.080757 -0.00352,-0.2348824 -7.214e-4,-0.3425011 0.00279,-0.1076186 0.00722,-0.283746 0.00983,-0.3913937 0.00261,-0.1076475 0.00703,-0.2837126 0.00983,-0.3912558 l 0.00508,-0.1955326 0.2636957,0.1522447 0.2636952,0.1522445 -0.011418,0.1648087 c -0.00995,0.1436016 -0.013214,0.2660693 -0.018239,0.6840943 -5.925e-4,0.049274 -0.00404,0.2015426 -0.00767,0.3383752 -0.00362,0.1368321 -0.00261,0.293618 0.00226,0.3484129 0.00487,0.054795 0.00512,0.1361326 5.673e-4,0.1807496 -0.00455,0.044617 -0.00893,0.1781764 -0.00972,0.2967991 -7.9e-4,0.1186224 -0.00453,0.2950788 -0.00832,0.3921251 -0.00379,0.097047 -0.00806,0.2731973 -0.0095,0.3914463 -0.00144,0.1182489 -0.00572,0.2943931 -0.00952,0.3914314 -0.0038,0.097038 -0.00682,0.2090136 -0.00671,0.2488347 3.574e-4,0.1305169 0.00392,0.5422053 0.00518,0.5982637 6.767e-4,0.03016 -0.0022,0.1340483 -0.00638,0.2308624 -0.00419,0.096814 -0.00879,0.272775 -0.010226,0.3910237 -0.00144,0.118249 -0.00772,0.298273 -0.01396,0.4000522 l -0.011348,0.185053 -0.2599259,0.07533 -0.2599256,0.07533 z"
         id="path821" /><g
         id="VERTEX_NEIGHBORS"
         transform="translate(18.28,-2.52)"
         style="stroke-width:0.0114286"><path
           style="fill:#983200;stroke-width:0.000357143"
           d="m -16.586179,16.464093 c -0.312189,-0.110787 -0.536982,-0.340887 -0.639637,-0.654738 -0.04412,-0.134887 -0.04964,-0.314797 -0.04163,-1.35748 l 0.0092,-1.201985 0.07738,-0.15625 c 0.09866,-0.199213 0.285908,-0.386465 0.485121,-0.485121 l 0.15625,-0.07738 h 1.265648 1.265625 l 0.15625,0.07738 c 0.199213,0.09866 0.386465,0.285908 0.485121,0.485121 l 0.07738,0.15625 v 1.265625 1.265625 l -0.07738,0.15625 c -0.09866,0.199213 -0.285908,0.386465 -0.485121,0.485121 l -0.15625,0.07738 -1.21875,0.007 c -1.048361,0.006 -1.238387,6.2e-5 -1.359207,-0.04282 z"
           id="path15" /><path
           style="fill:#983200;stroke-width:0.000357143"
           d="M -7.5861791,8.218578 C -7.8983684,8.1077905 -8.1231613,7.8776908 -8.2258166,7.5638402 -8.2699366,7.4289527 -8.2754536,7.2490427 -8.2674496,6.2063596 l 0.00923,-1.2019847 0.077379,-0.15625 C -8.0821846,4.6489118 -7.8949332,4.4616602 -7.69572,4.3630043 l 0.15625,-0.077379 h 1.265625 1.265625 l 0.15625,0.077379 c 0.1992131,0.098656 0.3864647,0.2859075 0.4851206,0.4851206 l 0.077379,0.15625 v 1.265625 1.265625 l -0.077379,0.15625 C -4.4655054,7.891088 -4.6527569,8.0783396 -4.85197,8.1769955 l -0.15625,0.077379 -1.21875,0.00702 c -1.0483611,0.00604 -1.2383867,6.25e-5 -1.3592066,-0.042821 z"
           id="path13" /><path
           style="fill:#fecb32;stroke-width:0.000357143"
           d="m -16.273847,14.515515 v -1 h 1 1 v 1 1 h -1 -1 z"
           id="path16" /><path
           style="fill:#fecb32;stroke-width:0.000357143"
           d="m -7.2738475,6.2699999 v -1 h 1 1 v 1 1 h -1 -1 z"
           id="path825-9" /></g></g><g
       id="MERGE_CENTER"
       transform="matrix(0.96554463,0.2587169,-0.2587169,0.96554463,-18.906967,-7.2980341)"
       style="stroke-width:0.0100039"><path
         style="baseline-shift:baseline;display:inline;overflow:visible;opacity:1;vector-effect:none;fill:#ffffff;stroke:none;stroke-width:1.00039;stroke-dasharray:none;stroke-opacity:1;enable-background:accumulate;stop-color:#000000;stop-opacity:1"
         d="m 26.808594,2.296875 c -0.343575,0 -0.614021,0.032571 -0.839844,0.1113281 -1.547505,0.5397017 -2.319184,2.3170852 -1.597656,3.7773438 0.365839,0.7404013 1.037666,1.2822904 1.839843,1.4648437 0.499058,0.1135716 0.939042,0.097844 1.429688,-0.066406 0.822738,-0.275423 1.468906,-0.9233088 1.755859,-1.7460938 0.07876,-0.2258253 0.113282,-0.4982239 0.113282,-0.8417969 0,-0.3435729 -0.03452,-0.6140183 -0.113282,-0.8398437 C 29.111233,3.3383472 28.468294,2.693454 27.650391,2.4082031 27.424567,2.3294456 27.152168,2.296875 26.808594,2.296875 Z m 0,1.5 c 0.3072,0 0.235078,-0.00997 0.347656,0.029297 0.399426,0.1393033 0.684914,0.4247909 0.824219,0.8242187 0.03926,0.1125779 0.0293,0.038501 0.0293,0.3457031 0,0.3072021 0.01,0.2350785 -0.0293,0.3476563 -0.138627,0.3974876 -0.439138,0.6901104 -0.816407,0.8164062 -0.03439,0.011511 -0.563809,0.04038 -0.621093,0.027344 -0.325821,-0.074148 -0.666782,-0.341435 -0.828125,-0.6679688 -0.328316,-0.6644595 -0.0096,-1.4291134 0.748047,-1.6933593 0.112579,-0.039263 0.0385,-0.029297 0.345703,-0.029297 z"
         id="path11"
         transform="translate(0.01525702,0.95949632)" /><path
         style="baseline-shift:baseline;display:inline;overflow:visible;opacity:1;vector-effect:none;fill:#333333;stroke:none;stroke-width:1.00039;stroke-dasharray:none;stroke-opacity:1;enable-background:accumulate;stop-color:#000000;stop-opacity:1"
         d="m 26.808594,1.796875 c -0.375188,0 -0.701324,0.033144 -1.003907,0.1386719 -1.821106,0.6351218 -2.738492,2.738943 -1.882812,4.4707031 0.430637,0.8715424 1.225645,1.5157528 2.177734,1.7324219 0.570825,0.1299037 1.132327,0.1096963 1.699219,-0.080078 0.971896,-0.3253557 1.733358,-1.0904861 2.070313,-2.0566407 0.104981,-0.3010082 0.140625,-0.62878 0.140625,-1.0058594 0,-0.3770773 -0.03593,-0.7037399 -0.140625,-1.0039062 C 29.533851,3.0308095 28.776736,2.2711515 27.814453,1.9355469 27.511022,1.8297235 27.18378,1.796875 26.808594,1.796875 Z"
         id="path12"
         sodipodi:nodetypes="ssssssscss"
         transform="translate(0.01525702,0.95949632)" /><path
         style="fill:#fecb32;stroke:#ffffff;stroke-width:1.50059;stroke-dasharray:none"
         d="M 26.392348,7.8786003 C 25.828349,7.7502497 25.322005,7.3453306 25.058414,6.8118631 24.533492,5.749504 25.078264,4.47855 26.230857,4.0765762 c 0.169201,-0.05901 0.268362,-0.070841 0.59375,-0.070841 0.325387,0 0.424548,0.011831 0.59375,0.070841 0.608665,0.2122771 1.073087,0.6766996 1.285364,1.2853649 0.05901,0.1692016 0.07084,0.2683625 0.07084,0.59375 0,0.3253875 -0.01183,0.4245484 -0.07084,0.59375 -0.212789,0.6101363 -0.685361,1.0816628 -1.285364,1.2825222 -0.262516,0.087881 -0.747838,0.1099409 -1.026009,0.046637 z"
         id="path823-3"
         inkscape:connector-curvature="0" /><path
         style="baseline-shift:baseline;display:inline;overflow:visible;opacity:1;vector-effect:none;fill:#ffffff;stroke:none;stroke-width:0.0100039;enable-background:accumulate;stop-color:#000000;stop-opacity:1"
         d="m 26.808594,2.296875 c -0.343575,0 -0.614021,0.032571 -0.839844,0.1113281 -1.547505,0.5397017 -2.319184,2.3170852 -1.597656,3.7773438 0.365839,0.7404013 1.037666,1.2822904 1.839843,1.4648437 0.499058,0.1135716 0.939042,0.097844 1.429688,-0.066406 0.822738,-0.275423 1.468906,-0.9233088 1.755859,-1.7460938 0.07876,-0.2258253 0.113282,-0.4982239 0.113282,-0.8417969 0,-0.3435729 -0.03452,-0.6140183 -0.113282,-0.8398437 C 29.111233,3.3383472 28.468294,2.693454 27.650391,2.4082031 27.424567,2.3294456 27.152168,2.296875 26.808594,2.296875 Z"
         id="path10"
         sodipodi:nodetypes="ssssssscss"
         transform="translate(0.01525702,0.95949632)" /><path
         style="fill:#fecb32;stroke:none;stroke-width:1.00039;stroke-dasharray:none"
         d="M 26.392348,7.8786003 C 25.828349,7.7502497 25.322005,7.3453306 25.058414,6.8118631 24.533492,5.749504 25.078264,4.47855 26.230857,4.0765762 c 0.169201,-0.05901 0.268362,-0.070841 0.59375,-0.070841 0.325387,0 0.424548,0.011831 0.59375,0.070841 0.608665,0.2122771 1.073087,0.6766996 1.285364,1.2853649 0.05901,0.1692016 0.07084,0.2683625 0.07084,0.59375 0,0.3253875 -0.01183,0.4245484 -0.07084,0.59375 -0.212789,0.6101363 -0.685361,1.0816628 -1.285364,1.2825222 -0.262516,0.087881 -0.747838,0.1099409 -1.026009,0.046637 z"
         id="path823-3-4"
         inkscape:connector-curvature="0" /><g
         id="REMOVE_DOUBLES"
         style="opacity:1;stroke-width:0.0114286"
         transform="matrix(0.96630717,-0.25892123,0.25892123,0.96630717,36.658131,-2.5437856)"><path
           id="path6-0-1-3"
           style="fill:#fe0000;stroke:#333333;stroke-width:1;stroke-dasharray:none"
           d="m -15.479034,3.5707023 c -0.562067,-0.094499 -1.056712,-0.6039542 -1.149588,-1.184008 -0.11917,-0.744269 0.431554,-1.4800434 1.197004,-1.5992128 0.739474,-0.1151256 1.471107,0.4362216 1.589701,1.1979728 0.13754,0.8834486 -0.662108,1.3903898 -1.175087,1.586912 z m 7.0180178,-0.00154 c -0.562067,-0.094499 -1.056712,-0.6039542 -1.149588,-1.184008 -0.11917,-0.744269 0.431554,-1.4800434 1.197003,-1.5992128 0.739474,-0.1151256 1.4711082,0.4362216 1.589702,1.1979728 0.1134459,0.728686 -0.4327444,1.466296 -1.175087,1.586912 -0.210184,0.03415 -0.46203,-0.00166 -0.46203,-0.00166 z m -8.1683748,5.8501443 c -0.11917,-0.744269 0.431554,-1.4800434 1.197003,-1.5992128 0.739474,-0.1151256 1.471107,0.4362216 1.589701,1.1979728 0.113446,0.728686 -0.432744,1.4662954 -1.175087,1.5869124 -0.78291,0.127205 -1.494986,-0.457257 -1.611617,-1.1856724 z m 7.0187868,-0.00154 c -0.11917,-0.744269 0.431554,-1.4800434 1.197003,-1.5992128 0.739474,-0.1151256 1.4711082,0.4362216 1.589702,1.1979728 0.1134459,0.728686 -0.4327444,1.4662954 -1.175087,1.5869114 -0.7829104,0.127205 -1.4949868,-0.457256 -1.611618,-1.1856714 z"
           sodipodi:nodetypes="csssccssssscsssscsssscs" /><path
           style="fill:#fea900;stroke-width:0.000357143"
           d="M -8.4989862,9.856143 C -8.9600734,9.642207 -9.0623226,9.0517055 -8.6981146,8.7061595 c 0.4456468,-0.4228112 1.1821309,-0.1074237 1.1821309,0.5062288 0,0.4985406 -0.5374266,0.8504937 -0.9830025,0.6437547 z"
           id="path825"
           inkscape:connector-curvature="0" /><path
           style="fill:#fea900;stroke-width:0.000357143"
           d="m -15.517774,9.8576844 c -0.461087,-0.213936 -0.563336,-0.8044375 -0.199128,-1.1499835 0.445646,-0.4228112 1.182131,-0.1074237 1.182131,0.5062288 0,0.4985406 -0.537427,0.8504943 -0.983003,0.6437547 z"
           id="path825-4"
           inkscape:connector-curvature="0" /><path
           style="fill:#fea900;stroke-width:0.000357143"
           d="m -8.4989862,2.8235321 c -0.461087,-0.213936 -0.563337,-0.8044375 -0.1991284,-1.1499835 0.4456468,-0.4228112 1.1821309,-0.1074237 1.1821309,0.5062288 0,0.4985406 -0.5374266,0.8504938 -0.9830025,0.6437547 z"
           id="path825-6"
           inkscape:connector-curvature="0" /><path
           style="fill:#fea900;stroke-width:0.000357143"
           d="M -15.517004,2.8250734 C -15.978091,2.6111375 -16.080341,2.020636 -15.716132,1.67509 c 0.445646,-0.4228112 1.18213,-0.1074237 1.18213,0.5062288 0,0.4985406 -0.537426,0.8504937 -0.983002,0.6437546 z"
           id="path825-6-6"
           inkscape:connector-curvature="0" /><path
           id="path6-0-1"
           style="fill:#fe0000;stroke-width:0.000357143"
           d="m -15.479034,3.5707023 c -0.562067,-0.094499 -1.056712,-0.6039542 -1.149588,-1.184008 -0.11917,-0.744269 0.431554,-1.48004338 1.197004,-1.59921278 0.739474,-0.1151256 1.471107,0.43622158 1.589701,1.19797278 0.113446,0.728686 -0.432744,1.466296 -1.175087,1.586912 -0.210184,0.03415 -0.249858,0.03401 -0.46203,-0.0017 z m 0.502096,-0.7347173 c 0.474732,-0.198005 0.591516,-0.8098991 0.221562,-1.1608951 -0.354086,-0.3359421 -0.91606,-0.2234712 -1.124133,0.2249788 -0.25614,0.5520491 0.340236,1.1704591 0.902571,0.9359163 z m 6.5159218,0.733176 c -0.562067,-0.094499 -1.056712,-0.6039542 -1.149588,-1.184008 -0.11917,-0.744269 0.431554,-1.48004344 1.1970036,-1.59921284 0.7394741,-0.1151256 1.4711078,0.43622164 1.5897016,1.19797284 0.1134459,0.728686 -0.4327444,1.466296 -1.1750872,1.586912 -0.2101837,0.03415 -0.2498575,0.03401 -0.46203,-0.0017 z m 0.5020963,-0.7347173 c 0.4747321,-0.198005 0.5915153,-0.8098991 0.2215621,-1.1608951 -0.3540862,-0.3359421 -0.9160606,-0.2234712 -1.1241331,0.2249788 -0.2561403,0.5520491 0.340236,1.1704591 0.902571,0.9359163 z m -7.5208841,7.7688703 c -0.562066,-0.0945 -1.056711,-0.6039549 -1.149587,-1.1840087 -0.11917,-0.744269 0.431554,-1.4800434 1.197003,-1.5992128 0.739474,-0.1151256 1.471107,0.4362216 1.589701,1.1979728 0.113446,0.728686 -0.432744,1.4662957 -1.175087,1.5869127 -0.210184,0.03415 -0.249857,0.03401 -0.46203,-0.0017 z m 0.502096,-0.734718 c 0.474732,-0.198005 0.591516,-0.8098991 0.221562,-1.1608951 -0.354086,-0.3359421 -0.91606,-0.2234712 -1.124133,0.2249788 -0.25614,0.5520491 0.340236,1.1704593 0.902571,0.9359163 z m 6.5166918,0.733176 c -0.5620664,-0.0945 -1.0567114,-0.6039543 -1.1495874,-1.1840081 -0.11917,-0.744269 0.431554,-1.4800434 1.197003,-1.5992128 0.7394741,-0.1151256 1.4711078,0.4362216 1.5897016,1.1979728 0.1134459,0.728686 -0.4327444,1.4662961 -1.1750872,1.5869121 -0.2101837,0.03415 -0.2498575,0.03401 -0.46203,-0.0017 z m 0.5020963,-0.7347174 c 0.4747321,-0.198005 0.5915153,-0.8098991 0.2215621,-1.1608951 -0.3540862,-0.3359421 -0.9160606,-0.2234712 -1.1241331,0.2249788 -0.2561407,0.5520491 0.340236,1.1704587 0.902571,0.9359163 z" /></g></g></g></svg>
