<?xml version="1.0" encoding="UTF-8" standalone="no"?>
<!-- Created with Inkscape (http://www.inkscape.org/) -->

<svg
   version="1.1"
   id="svg2"
   width="1600"
   height="1600"
   viewBox="0 0 1600 1600"
   sodipodi:docname="node_grid_info.svg"
   inkscape:version="1.4 (86a8ad7, 2024-10-11)"
   inkscape:export-filename="VOLUME_CUBE.png"
   inkscape:export-xdpi="3072"
   inkscape:export-ydpi="3072"
   xml:space="preserve"
   xmlns:inkscape="http://www.inkscape.org/namespaces/inkscape"
   xmlns:sodipodi="http://sodipodi.sourceforge.net/DTD/sodipodi-0.dtd"
   xmlns="http://www.w3.org/2000/svg"
   xmlns:svg="http://www.w3.org/2000/svg"
   xmlns:rdf="http://www.w3.org/1999/02/22-rdf-syntax-ns#"
   xmlns:cc="http://creativecommons.org/ns#"
   xmlns:dc="http://purl.org/dc/elements/1.1/"><metadata
     id="metadata8"><rdf:RDF><cc:Work
         rdf:about=""><dc:format>image/svg+xml</dc:format><dc:type
           rdf:resource="http://purl.org/dc/dcmitype/StillImage" /></cc:Work></rdf:RDF></metadata><defs
     id="defs6" /><sodipodi:namedview
     pagecolor="#808080"
     bordercolor="#666666"
     borderopacity="1"
     objecttolerance="10"
     gridtolerance="10"
     guidetolerance="10"
     inkscape:pageopacity="0"
     inkscape:pageshadow="2"
     inkscape:window-width="2560"
     inkscape:window-height="1009"
     id="namedview4"
     showgrid="true"
     inkscape:zoom="0.32593203"
     inkscape:cx="1624.5718"
     inkscape:cy="984.86792"
     inkscape:window-x="1912"
     inkscape:window-y="-8"
     inkscape:window-maximized="1"
     inkscape:current-layer="MESH_CUBE"
     inkscape:showpageshadow="0"
     inkscape:pagecheckerboard="1"
     inkscape:deskcolor="#d1d1d1"><inkscape:grid
       type="xygrid"
       id="grid10683"
       originx="0"
       originy="0"
       spacingy="100"
       spacingx="100"
       units="px" /></sodipodi:namedview><g
     id="MESH_CUBE"
     transform="matrix(100,0,0,100,0,4.9999997e-5)"
     style="display:inline;stroke-width:0.0114286;enable-background:new"
     inkscape:label="VOLUME_CUBE"><g
       id="g3"
       transform="translate(-2.3200004,-2.3200004)"
       inkscape:label="Grid"
       style="display:inline;stroke-width:0.0114286;enable-background:new"><path
         id="rect1"
         style="baseline-shift:baseline;display:inline;overflow:visible;vector-effect:none;fill:#323232;stroke-linecap:round;stroke-linejoin:round;paint-order:markers stroke fill;enable-background:accumulate;stop-color:#000000;stop-opacity:1"
         d="M 4.1230891,2.3199999 H 14.516912 c 0.998911,0 1.803088,0.8041776 1.803088,1.8030887 V 14.516911 C 16.32,15.515822 15.515823,16.32 14.516912,16.32 H 4.1230891 C 3.124178,16.32 2.3200004,15.515822 2.3200004,14.516911 V 4.1230886 c 0,-0.9989111 0.8041776,-1.8030887 1.8030887,-1.8030887 z" /><g
         id="rect2-2-5-7"
         transform="matrix(1.0716036,0,0,1.0716036,-0.77860787,-0.66768013)"
         style="stroke-width:0.0106649"><path
           style="fill:#cb6500;stroke-width:0.0106649;stroke-linecap:round;stroke-linejoin:round;paint-order:markers stroke fill"
           d="m 4.953125,3.3203125 c -0.8957377,0 -1.6328125,0.7370748 -1.6328125,1.6328125 V 7.6875 c 0,0.8957377 0.7370748,1.6328125 1.6328125,1.6328125 h 2.8398437 c 0.8957378,0 1.6308594,-0.7370748 1.6308594,-1.6328125 V 4.953125 c 0,-0.8957377 -0.7351216,-1.6328125 -1.6308594,-1.6328125 z m 0,1 h 2.8398437 c 0.3590371,0 0.6308594,0.2737753 0.6308594,0.6328125 V 7.6875 c 0,0.3590372 -0.2718223,0.6328125 -0.6308594,0.6328125 H 4.953125 C 4.5940879,8.3203125 4.3203125,8.0465372 4.3203125,7.6875 V 4.953125 c 0,-0.3590372 0.2737754,-0.6328125 0.6328125,-0.6328125 z"
           id="path10" /><path
           style="fill:#fecb32;stroke-width:0.0106649;stroke-linecap:round;stroke-linejoin:round;paint-order:markers stroke fill"
           d="m 4.9524665,3.8199978 h 2.8396153 c 0.6273874,0 1.1324683,0.5050809 1.1324683,1.1324683 v 2.7350672 c 0,0.6273874 -0.5050809,1.1324683 -1.1324683,1.1324683 H 4.9524665 c -0.6273874,0 -1.1324682,-0.5050809 -1.1324682,-1.1324683 V 4.9524661 c 0,-0.6273874 0.5050808,-1.1324683 1.1324682,-1.1324683 z"
           id="path11" /></g><g
         id="rect2-2-5-7-2"
         transform="matrix(1.0716036,0,0,1.0716036,-0.61860782,-0.66768013)"
         style="stroke-width:0.0106649"><path
           style="fill:#cb6500;stroke-width:0.0106649;stroke-linecap:round;stroke-linejoin:round;paint-order:markers stroke fill"
           d="m 10.900391,3.3203125 c -0.895738,0 -1.6328129,0.7370748 -1.6328129,1.6328125 V 7.6875 c 0,0.8957377 0.7370749,1.6328125 1.6328129,1.6328125 h 2.839843 c 0.895738,0 1.632813,-0.7370748 1.632813,-1.6328125 V 4.953125 c 0,-0.8957377 -0.737075,-1.6328125 -1.632813,-1.6328125 z m 0,1 h 2.839843 c 0.359037,0 0.632813,0.2737753 0.632813,0.6328125 V 7.6875 c 0,0.3590372 -0.273776,0.6328125 -0.632813,0.6328125 h -2.839843 c -0.359037,0 -0.632813,-0.2737753 -0.632813,-0.6328125 V 4.953125 c 0,-0.3590372 0.273776,-0.6328125 0.632813,-0.6328125 z"
           id="path8" /><path
           style="fill:#fecb32;stroke-width:0.0106649;stroke-linecap:round;stroke-linejoin:round;paint-order:markers stroke fill"
           d="m 10.900192,3.8199978 h 2.839616 c 0.627387,0 1.132468,0.5050809 1.132468,1.1324683 v 2.7350672 c 0,0.6273874 -0.505081,1.1324683 -1.132468,1.1324683 h -2.839616 c -0.627387,0 -1.132468,-0.5050809 -1.132468,-1.1324683 V 4.9524661 c 0,-0.6273874 0.505081,-1.1324683 1.132468,-1.1324683 z"
           id="path9" /></g><g
         id="rect2-2-5-7-2-7"
         transform="matrix(1.0716036,0,0,1.0716036,-0.61860782,-0.66768013)"
         style="stroke-width:0.0106649"><path
           style="fill:#cb6500;stroke-width:0.0106649;stroke-linecap:round;stroke-linejoin:round;paint-order:markers stroke fill"
           d="m 10.900391,9.3203125 c -0.895738,0 -1.6328129,0.7370745 -1.6328129,1.6328125 V 13.6875 c 0,0.895738 0.7370749,1.632812 1.6328129,1.632813 h 2.839843 c 0.895738,0 1.632813,-0.737075 1.632813,-1.632813 v -2.734375 c 0,-0.895738 -0.737075,-1.6328125 -1.632813,-1.6328125 z m 0,1.0000005 h 2.839843 c 0.359037,0 0.632813,0.273775 0.632813,0.632812 V 13.6875 c 0,0.359037 -0.273776,0.632813 -0.632813,0.632813 h -2.839843 c -0.359037,0 -0.632813,-0.273776 -0.632813,-0.632813 v -2.734375 c 0,-0.359037 0.273776,-0.632813 0.632813,-0.632812 z"
           id="path6" /><path
           style="fill:#fecb32;stroke-width:0.0106649;stroke-linecap:round;stroke-linejoin:round;paint-order:markers stroke fill"
           d="m 10.900192,9.8199978 h 2.839616 c 0.627387,0 1.132468,0.5050812 1.132468,1.1324682 v 2.735067 c 0,0.627388 -0.505081,1.132469 -1.132468,1.132469 h -2.839616 c -0.627387,0 -1.132468,-0.505081 -1.132468,-1.132469 v -2.735067 c 0,-0.627387 0.505081,-1.1324682 1.132468,-1.1324682 z"
           id="path7" /></g><g
         id="rect2-2-5-7-2-7-9"
         transform="matrix(1.0716036,0,0,1.0716036,-0.64256442,-0.66768013)"
         style="stroke-width:0.0106649"><path
           style="fill:#cb6500;stroke-width:0.0106649;stroke-linecap:round;stroke-linejoin:round;paint-order:markers stroke fill"
           d="m 4.8242187,9.3203125 c -0.8957377,0 -1.6308593,0.7370745 -1.6308593,1.6328125 V 13.6875 c 0,0.895738 0.7351216,1.632812 1.6308593,1.632813 h 2.8398438 c 0.8957377,0 1.6328125,-0.737075 1.6328125,-1.632813 v -2.734375 c 0,-0.895738 -0.7370748,-1.6328125 -1.6328125,-1.6328125 z m 0,1.0000005 h 2.8398438 c 0.3590371,0 0.6328125,0.273775 0.6328125,0.632812 V 13.6875 c 0,0.359037 -0.2737754,0.632813 -0.6328125,0.632813 H 4.8242187 c -0.359037,0 -0.6308593,-0.273776 -0.6308593,-0.632813 v -2.734375 c 0,-0.359037 0.2718223,-0.632813 0.6308593,-0.632812 z"
           id="path4" /><path
           style="fill:#fecb32;stroke-width:0.0106649;stroke-linecap:round;stroke-linejoin:round;paint-order:markers stroke fill"
           d="m 4.8250043,9.8199978 h 2.8396154 c 0.6273874,0 1.1324682,0.5050812 1.1324682,1.1324682 v 2.735067 c 0,0.627388 -0.5050808,1.132469 -1.1324682,1.132469 H 4.8250043 c -0.6273874,0 -1.1324682,-0.505081 -1.1324682,-1.132469 v -2.735067 c 0,-0.627387 0.5050808,-1.1324682 1.1324682,-1.1324682 z"
           id="path5" /></g></g><path
       inkscape:connector-curvature="0"
       id="path827-666"
       d="M 0,8 V 0 h 8 8 v 8 8 H 8 0 Z m 11.326467,6.00029 c 3.319702,-1.106746 3.322552,-1.107867 3.51104,-1.381855 0.206207,-0.299746 0.193743,-0.0036 0.193743,-4.60281 0,-4.5991825 0.01246,-4.3030644 -0.193743,-4.60281 C 14.649019,3.1388275 14.646169,3.1377059 11.326467,2.0309595 8.4439647,1.0699703 8.2195475,1.0000958 8.015625,1.0000958 c -0.2039225,0 -0.4283397,0.069875 -3.3108416,1.0308637 C 1.3850808,3.1377059 1.3822313,3.1388275 1.1937435,3.412815 0.98753566,3.7125606 1,3.4164425 1,8.015625 c 0,4.599183 -0.0124643,4.303064 0.1937435,4.60281 0.1884878,0.273988 0.1913373,0.275109 3.5110399,1.381855 2.8825019,0.96099 3.1069191,1.030864 3.3108416,1.030864 0.2039225,0 0.4283397,-0.06987 3.310842,-1.030864 z"
       style="fill:#ffffff;fill-opacity:0;stroke-width:0.000357143" /><g
       id="COLLECTION_INFO"
       style="stroke-width:0.0114286"
       transform="translate(0,0.1249995)"><path
         style="fill:none;stroke-width:0.000357143"
         d="M 0,8 V 0 h 8 8 v 8 8 H 8 0 Z m 11.814426,7.408012 c 0.780104,-0.151849 1.409123,-0.449552 2.065622,-0.977621 0.340774,-0.274108 0.697418,-0.692669 0.958503,-1.124908 0.765895,-1.267979 0.855296,-2.791161 0.24413,-4.1593814 C 14.833595,8.5884722 14.336339,7.9366356 13.880048,7.5696088 12.995896,6.8584222 12.064215,6.5183434 11,6.5183434 c -1.0642147,0 -1.9958956,0.3400788 -2.8800484,1.0512653 -0.3407735,0.2741082 -0.6974175,0.6926694 -0.9585025,1.1249088 -0.765895,1.2679781 -0.8552963,2.7911605 -0.24413,4.1593805 0.2490859,0.55763 0.7463415,1.209466 1.2026325,1.576493 0.7708428,0.620043 1.4297612,0.894831 2.5206734,1.051192 0.201088,0.02882 0.859905,-0.01247 1.173801,-0.07357 z M 7.1478278,14.179688 C 6.5930575,13.494739 6.2596359,12.785727 6.0861034,11.921959 c -0.098912,-0.492344 -0.098912,-1.351574 0,-1.843918 0.3694132,-1.8387773 1.6467179,-3.2810601 3.3982716,-3.8371969 0.540881,-0.1717354 0.8905,-0.2244178 1.492153,-0.2248463 l 0.523402,-3.719e-4 3.2e-5,-0.2550475 3.1e-5,-0.2550478 0.34157,-0.010577 c 0.369076,-0.011429 0.438641,-0.03858 0.578374,-0.2257375 C 12.48358,5.1839816 12.484375,5.1559856 12.484375,3 c 0,-2.15598575 -7.94e-4,-2.18398153 -0.06443,-2.26921503 -0.03544,-0.047464 -0.103265,-0.11529209 -0.150729,-0.15072906 L 12.182917,0.515625 H 6.5 0.81708316 L 0.73078496,0.5800559 C 0.68332097,0.61549288 0.61549287,0.68332097 0.58005591,0.73078497 0.51641991,0.81601847 0.515625,0.84401425 0.515625,3 c 0,2.1559856 7.95e-4,2.1839816 0.0644309,2.269215 0.13973306,0.1871572 0.20929793,0.2143081 0.5783737,0.2257375 L 1.5,5.5055297 v 4.2920759 c 0,2.9642654 0.010312,4.3192914 0.033332,4.3800474 0.044365,0.117091 0.1486159,0.227153 0.2635434,0.278233 0.075755,0.03367 0.6232066,0.0419 2.8520691,0.04289 L 7.4072631,14.5 Z"
         id="path829"
         inkscape:connector-curvature="0" /><path
         style="fill:#fefefe;stroke-width:0.000357143"
         d="M 10.75,14.980295 C 10.044957,14.89436 9.4947625,14.714538 8.9734897,14.399675 8.3808928,14.04173 7.9582703,13.619107 7.600325,13.02651 6.8322881,11.754986 6.8322881,10.245014 7.600325,8.9734897 8.1044422,8.1388981 8.832885,7.5521581 9.7639813,7.2307263 10.838038,6.8599419 12.023011,6.9941828 13.02651,7.600325 c 0.592597,0.3579453 1.01522,0.7805678 1.373165,1.3731647 0.768037,1.2715243 0.768037,2.7814963 0,4.0530203 -0.503852,0.834154 -1.232603,1.421327 -2.162475,1.742362 -0.414161,0.142988 -1.168661,0.250249 -1.4872,0.211423 z M 13,13.5 V 13 H 12.5 12 V 11.5 10 H 10.5 9 V 10.5 11 H 9.5 10 v 1 1 H 9.5 9 v 0.5 0.5 h 2 2 z m -1,-5 V 8 H 11 10 V 8.5 9 h 1 1 z"
         id="path827"
         inkscape:connector-curvature="0" /><path
         style="fill:#000000;stroke-width:0.000357143"
         d="M 10.640625,15.481583 C 9.5497128,15.325222 8.8907944,15.050434 8.1199516,14.430391 7.7791781,14.156283 7.4225341,13.737722 7.1614491,13.305483 6.3955541,12.037504 6.3061528,10.514322 6.9173191,9.1461016 7.166405,8.5884722 7.6636606,7.9366356 8.1199516,7.5696088 9.0041044,6.8584222 9.9357853,6.5183434 11,6.5183434 c 1.064215,0 1.995896,0.3400788 2.880048,1.0512654 0.340774,0.2741081 0.697418,0.6926693 0.958503,1.1249087 0.765895,1.2679781 0.855296,2.7911605 0.24413,4.1593805 -0.249086,0.55763 -0.746342,1.209466 -1.202633,1.576493 -0.656499,0.528069 -1.285518,0.825772 -2.065622,0.977621 -0.313896,0.0611 -0.972713,0.102393 -1.173801,0.07357 z m 1.065325,-0.57754 c 0.509232,-0.0979 0.885651,-0.24167 1.32056,-0.504368 0.592597,-0.357945 1.01522,-0.780568 1.373165,-1.373165 0.768037,-1.271524 0.768037,-2.781496 0,-4.0530203 C 13.895558,8.1388981 13.167115,7.5521581 12.236019,7.2307263 11.161963,6.8599419 9.9769891,6.9941828 8.9734897,7.600325 8.3808928,7.9582703 7.9582703,8.3808928 7.600325,8.9734897 c -0.7680369,1.2715243 -0.7680369,2.7814963 0,4.0530203 0.5041172,0.834592 1.23256,1.421332 2.1636563,1.742764 0.1964437,0.06782 0.7062467,0.176921 0.9860187,0.211021 0.18481,0.02253 0.624649,-0.01256 0.95595,-0.07625 z M 9,13.5 V 13 H 9.5 10 V 12 11 H 9.5 9 V 10.5 10 H 10.5 12 V 11.5 13 H 12.5 13 V 13.5 14 H 11 9 Z m 1,-5 V 8 h 1 1 V 8.5 9 h -1 -1 z"
         id="path819"
         inkscape:connector-curvature="0" /></g></g></svg>
