<?xml version="1.0" encoding="UTF-8" standalone="no"?>
<!-- Created with Inkscape (http://www.inkscape.org/) -->

<svg
   version="1.1"
   id="svg2"
   width="1600"
   height="1600"
   viewBox="0 0 1600 1600"
   sodipodi:docname="node_waves.svg"
   inkscape:version="1.2.2 (732a01da63, 2022-12-09)"
   xmlns:inkscape="http://www.inkscape.org/namespaces/inkscape"
   xmlns:sodipodi="http://sodipodi.sourceforge.net/DTD/sodipodi-0.dtd"
   xmlns="http://www.w3.org/2000/svg"
   xmlns:svg="http://www.w3.org/2000/svg"
   xmlns:rdf="http://www.w3.org/1999/02/22-rdf-syntax-ns#"
   xmlns:cc="http://creativecommons.org/ns#"
   xmlns:dc="http://purl.org/dc/elements/1.1/">
  <metadata
     id="metadata8">
    <rdf:RDF>
      <cc:Work
         rdf:about="">
        <dc:format>image/svg+xml</dc:format>
        <dc:type
           rdf:resource="http://purl.org/dc/dcmitype/StillImage" />
      </cc:Work>
    </rdf:RDF>
  </metadata>
  <defs
     id="defs6" />
  <sodipodi:namedview
     pagecolor="#808080"
     bordercolor="#666666"
     borderopacity="1"
     objecttolerance="10"
     gridtolerance="10"
     guidetolerance="10"
     inkscape:pageopacity="0"
     inkscape:pageshadow="2"
     inkscape:window-width="1993"
     inkscape:window-height="1009"
     id="namedview4"
     showgrid="false"
     inkscape:zoom="0.5"
     inkscape:cx="221"
     inkscape:cy="80"
     inkscape:window-x="-8"
     inkscape:window-y="-8"
     inkscape:window-maximized="1"
     inkscape:current-layer="NODE_WAVES"
     inkscape:showpageshadow="0"
     inkscape:pagecheckerboard="true"
     inkscape:deskcolor="#d1d1d1" />
  <g
     id="NODE_WAVES"
     transform="matrix(100,0,0,100,0,4.9999997e-5)"
     style="stroke-width:0.0114286">
    <path
       style="fill:none;stroke-width:0.000357143"
       d="M 0,8 V 0 h 8 8 v 8 8 H 8 0 Z m 13.269218,7.419944 c 0.04746,-0.03544 0.115289,-0.103261 0.150726,-0.150719 0.06438,-0.08622 0.06444,-0.09066 0.08006,-5.7324444 0.01164,-4.2046472 0.0065,-5.6700906 -0.02022,-5.7399056 -0.02105,-0.055047 -0.691906,-0.7475964 -1.625,-1.6775451 -1.355489,-1.35091915 -1.605235,-1.58657599 -1.698528,-1.60270781 -0.06016,-0.010402 -2.18608,-0.0148817 -4.724275,-0.009955 -4.60534394,0.008939 -4.61507859,0.009091 -4.70119406,0.0733887 -0.0474618,0.035437 -0.11528807,0.10326428 -0.15072503,0.15072728 L 0.515625,0.81707959 0.50672091,7.9163522 c -0.004897,3.9045998 -8.2219e-4,7.1445618 0.009056,7.1999148 0.0223485,0.125235 0.1536701,0.284907 0.27954885,0.339901 0.0784903,0.03429 1.17936484,0.04045 6.24144734,0.03492 l 6.1461489,-0.0067 z"
       id="path831"
       inkscape:connector-curvature="0" />
    <path
       style="fill:#fefefe;stroke-width:0.000357143"
       d="M 1,8 V 1 H 5.25 9.5 V 2.75 4.5 H 11.25 13 V 9.75 15 H 7 1 Z M 12,9.5 V 5 H 10.5 9 V 3.5 2 H 5.5 2 v 6 6 h 5 5 z M 11.507813,4.0078197 10,3.9993997 V 2.4920082 0.98461663 L 11.515625,2.5 c 0.833594,0.8334609 1.515625,1.5189534 1.515625,1.5233166 0,0.00436 -0.0035,0.00456 -0.0078,4.281e-4 -0.0043,-0.00413 -0.686329,-0.011294 -1.515625,-0.015925 z"
       id="path829"
       inkscape:connector-curvature="0" />
    <path
       style="fill:#98fefe;stroke-width:0.000357143"
       d="M 4.15625,7.5784616 C 3.8773172,7.5389503 3.4868278,7.4599938 3.328125,7.4110156 3.1217542,7.3473259 2.6045662,7.2185056 2.2421875,7.1405319 L 2,7.0884197 V 4.54421 2 H 5.5 9 V 3.5 5 h 1.5 1.5 v 0.8614809 c 0,0.80571 -0.0035,0.8604466 -0.05469,0.8455066 C 11.603257,6.6070731 9.6196369,6.5824312 8.984375,6.6702047 8.04204,6.8004059 7.4702847,6.9339944 6.421875,7.2689219 5.8760206,7.4433019 5.5489947,7.5232716 5.15625,7.5784125 c -0.3778544,0.05305 -0.6257453,0.053063 -1,6.25e-5 z"
       id="path827"
       inkscape:connector-curvature="0" />
    <path
       style="fill:#98cbfe;stroke-width:0.000357143"
       d="m 4.421875,13.417746 c -0.4909422,-0.04838 -1.2946816,-0.150789 -2.125,-0.270762 l -0.28125,-0.04064 -0.00814,-1.369404 c -0.0077,-1.295081 -0.00516,-1.368476 0.046875,-1.3523 0.03026,0.0094 0.1956437,0.06821 0.3675187,0.130673 0.171875,0.06246 0.3546875,0.125673 0.40625,0.140469 0.051563,0.0148 0.1921875,0.06103 0.3125,0.102742 0.5387528,0.186787 0.9737403,0.298567 1.6153891,0.415113 0.3881109,0.07049 1.3668081,0.06872 1.6824737,-0.003 0.7211838,-0.163962 1.1370841,-0.396803 1.3784356,-0.771714 0.072545,-0.11269 0.102276,-0.205873 0.1246335,-0.390625 C 7.9784446,9.7035017 8.0777,9.4950548 8.2768103,9.3042345 8.3617143,9.2228655 8.43893,9.1562911 8.4484006,9.1562911 c 0.00947,0 0.077691,-0.039528 0.151599,-0.087839 0.2025438,-0.1323959 0.5263988,-0.2557766 0.8843791,-0.3369256 0.3418072,-0.077483 1.5159593,-0.078242 1.8378773,-0.00119 0.117082,0.028025 0.244608,0.050954 0.28339,0.050954 0.03878,0 0.143379,0.021638 0.232436,0.048086 L 12,8.8774219 v 1.8290201 c 0,1.727394 -0.003,1.828101 -0.05469,1.812474 -0.114762,-0.03472 -0.46756,-0.08095 -0.619494,-0.08118 -0.327241,-4.88e-4 -0.986629,0.135134 -1.591444,0.327325 -1.2419184,0.394641 -1.8956984,0.542907 -2.89162,0.655768 -0.5261078,0.05962 -1.8010497,0.058 -2.42088,-0.0031 z"
       id="path825"
       inkscape:connector-curvature="0" />
    <path
       style="fill:#0065fe;stroke-width:0.000357143"
       d="m 2,13.551829 v -0.448171 l 0.1484375,0.02475 c 0.081641,0.01361 0.2257812,0.03324 0.3203125,0.04362 0.094531,0.01039 0.3054688,0.0385 0.46875,0.06248 1.1477287,0.168539 1.9250175,0.23442 2.76463,0.234327 1.3859591,-1.56e-4 2.3444666,-0.167448 4.032245,-0.703769 0.604815,-0.192191 1.264203,-0.327812 1.591444,-0.327325 0.151934,2.19e-4 0.504732,0.04646 0.619494,0.08118 C 11.995369,12.534061 12,12.597468 12,13.267731 V 14 H 7 2 Z M 5.21875,11.217517 C 4.8755872,11.199572 4.7890447,11.186678 4.25,11.073181 3.9205381,11.003812 3.5223794,10.890881 3.140625,10.758526 3.0203125,10.716814 2.8796875,10.67058 2.828125,10.655784 2.7765625,10.640988 2.59375,10.577777 2.421875,10.515315 2.25,10.452853 2.0847656,10.394089 2.0546875,10.384729 2.0035168,10.368805 2,10.262443 2,8.7307303 2,7.8303912 2.0076568,7.09375 2.0170151,7.09375 c 0.019045,0 0.3612008,0.076849 0.5767349,0.129535 0.077344,0.018907 0.1898438,0.044929 0.25,0.057828 0.060156,0.012899 0.221875,0.05486 0.359375,0.093247 0.3697275,0.1032191 0.6181541,0.1549972 0.984375,0.2051684 0.4123444,0.05649 0.5596547,0.056321 0.96875,-0.00112 0.3927447,-0.055141 0.7197706,-0.1351106 1.265625,-0.3094906 0.4241166,-0.1354891 0.7974275,-0.2451797 1.0625,-0.3121956 0.5269091,-0.1332141 0.8837356,-0.2013732 1.5,-0.2865216 0.6352619,-0.087773 2.618882,-0.063132 2.960938,0.036783 C 11.996032,6.7218031 12,6.8012791 12,7.8023247 12,8.8175169 11.996749,8.8804291 11.945313,8.8605263 11.915234,8.8488875 11.827344,8.8268913 11.75,8.8116453 11.672656,8.7963994 11.489844,8.7598763 11.34375,8.7304825 10.954685,8.6522038 9.8323987,8.6528819 9.484375,8.7316075 9.1217094,8.8136438 8.8055478,8.93405 8.5999959,9.0684125 c -0.073908,0.048312 -0.1421281,0.087839 -0.151599,0.087839 -0.00947,0 -0.086687,0.066575 -0.1715903,0.1479434 C 8.0776962,9.4950152 7.9784412,9.7034621 7.9415569,10.008258 7.8982539,10.366092 7.7229666,10.613639 7.359375,10.830434 6.8176294,11.153456 6.1841616,11.268004 5.21875,11.217519 Z"
       id="path823"
       inkscape:connector-curvature="0" />
    <path
       style="fill:#656565;stroke-width:0.000357143"
       d="M 9.5,2.75 V 1 H 9.75 10 V 2.5 4 H 11.5 13 V 4.25 4.5 H 11.25 9.5 Z"
       id="path821"
       inkscape:connector-curvature="0" />
    <path
       style="fill:#323232;stroke-width:0.000357143"
       d="m 0.79532572,15.456168 c -0.12587875,-0.05499 -0.25720035,-0.214666 -0.27954885,-0.3399 -0.009878,-0.05535 -0.0139532,-3.295316 -0.009056,-7.1999158 l 0.008904,-7.09927261 0.0644309,-0.0862964 c 0.035437,-0.047463 0.10326325,-0.11529031 0.15072503,-0.15072728 0.0861155,-0.0642975 0.0958501,-0.0644495 4.7011941,-0.0733887 2.538195,-0.004927 4.6641191,-4.4719e-4 4.7242751,0.009955 0.09329,0.0161318 0.343039,0.25178866 1.698528,1.60270779 0.933094,0.9299487 1.603952,1.6224985 1.625,1.6775451 0.0267,0.069815 0.03186,1.5352584 0.02022,5.7399056 -0.01561,5.6417803 -0.01567,5.6462223 -0.08006,5.7324443 -0.03544,0.04746 -0.103264,0.115282 -0.150726,0.150719 l -0.0863,0.06443 -6.146149,0.0067 c -5.0620825,0.0055 -6.16295714,-6.3e-4 -6.24144742,-0.03492 z M 13.00764,9.4998791 13.015625,3.9997581 11.515505,2.499879 10.015386,1 H 5.5076928 1 v 7 7 h 5.9998272 5.9998268 z"
       id="path819"
       inkscape:connector-curvature="0" />
  </g>
</svg>
