<?xml version="1.0" encoding="UTF-8" standalone="no"?>
<!-- Created with Inkscape (http://www.inkscape.org/) -->

<svg
   version="1.1"
   id="svg2"
   width="1600"
   height="1600"
   viewBox="0 0 1600 1600"
   sodipodi:docname="node_distributepointsingrid.svg"
   inkscape:version="1.4 (86a8ad7, 2024-10-11)"
   inkscape:export-filename="VOLUME_CUBE.png"
   inkscape:export-xdpi="3072"
   inkscape:export-ydpi="3072"
   xml:space="preserve"
   xmlns:inkscape="http://www.inkscape.org/namespaces/inkscape"
   xmlns:sodipodi="http://sodipodi.sourceforge.net/DTD/sodipodi-0.dtd"
   xmlns="http://www.w3.org/2000/svg"
   xmlns:svg="http://www.w3.org/2000/svg"
   xmlns:rdf="http://www.w3.org/1999/02/22-rdf-syntax-ns#"
   xmlns:cc="http://creativecommons.org/ns#"
   xmlns:dc="http://purl.org/dc/elements/1.1/"><metadata
     id="metadata8"><rdf:RDF><cc:Work
         rdf:about=""><dc:format>image/svg+xml</dc:format><dc:type
           rdf:resource="http://purl.org/dc/dcmitype/StillImage" /></cc:Work></rdf:RDF></metadata><defs
     id="defs6" /><sodipodi:namedview
     pagecolor="#808080"
     bordercolor="#666666"
     borderopacity="1"
     objecttolerance="10"
     gridtolerance="10"
     guidetolerance="10"
     inkscape:pageopacity="0"
     inkscape:pageshadow="2"
     inkscape:window-width="2560"
     inkscape:window-height="1009"
     id="namedview4"
     showgrid="true"
     inkscape:zoom="0.23046875"
     inkscape:cx="6.5084746"
     inkscape:cy="820.0678"
     inkscape:window-x="1912"
     inkscape:window-y="-8"
     inkscape:window-maximized="1"
     inkscape:current-layer="MESH_CUBE"
     inkscape:showpageshadow="0"
     inkscape:pagecheckerboard="1"
     inkscape:deskcolor="#d1d1d1"><inkscape:grid
       type="xygrid"
       id="grid10683"
       originx="0"
       originy="0"
       spacingy="100"
       spacingx="100"
       units="px" /></sodipodi:namedview><g
     id="MESH_CUBE"
     transform="matrix(100,0,0,100,0,4.9999997e-5)"
     style="display:inline;stroke-width:0.0114286;enable-background:new"
     inkscape:label="VOLUME_CUBE"><g
       id="g3"
       transform="translate(-0.32,-2.3200004)"
       inkscape:label="Grid"
       style="display:inline;stroke-width:0.0114286;enable-background:new"><path
         id="rect1"
         style="baseline-shift:baseline;display:inline;overflow:visible;vector-effect:none;fill:#323232;stroke-linecap:round;stroke-linejoin:round;paint-order:markers stroke fill;enable-background:accumulate;stop-color:#000000;stop-opacity:1"
         d="M 4.1230859 2.3199999 C 3.1241748 2.3199999 2.32 3.1241747 2.32 4.1230858 L 2.32 7.8864062 C 2.4454092 7.7629243 2.6130613 7.5941709 2.716582 7.4938476 C 2.8672357 7.3478469 2.9915427 7.2295041 3.0857227 7.1422851 C 3.1328124 7.0986751 3.1719754 7.0629361 3.2068164 7.0329101 C 3.2242364 7.0178971 3.2394878 7.0035232 3.2595508 6.9879882 C 3.2796142 6.9724532 3.2755625 6.9619354 3.3865039 6.9137694 C 3.6604754 6.7948229 3.9328453 6.7948231 4.2068164 6.9137694 C 4.3177565 6.9619354 4.3137065 6.9724542 4.3337695 6.9879882 C 4.3538325 7.0035232 4.3690839 7.0178971 4.3865039 7.0329101 C 4.4213446 7.0629361 4.4605077 7.0986751 4.5075977 7.1422851 C 4.6017774 7.2295043 4.7260846 7.347847 4.8767383 7.4938476 C 5.1780457 7.785849 5.5819128 8.1857678 6.0310352 8.6364257 C 6.7255142 9.3332788 7.1175945 9.7294917 7.3493945 9.9762694 C 7.5811945 10.223047 7.7096848 10.316624 7.7595508 10.591504 C 7.7878718 10.747637 7.6352829 10.867638 7.5896289 11.027051 C 7.7564769 10.975272 7.8842383 10.819498 8.0486133 10.849316 C 8.3234983 10.89918 8.4170697 11.027672 8.6638477 11.259473 C 8.9106247 11.491273 9.3068394 11.883354 10.003691 12.577832 C 10.454349 13.026954 10.854269 13.430821 11.14627 13.732129 C 11.292271 13.882783 11.410607 14.007095 11.497852 14.101328 C 11.541467 14.148418 11.577197 14.187581 11.607227 14.222422 C 11.622237 14.239842 11.636618 14.255093 11.652148 14.275156 C 11.667678 14.295219 11.678197 14.291169 11.726367 14.402109 C 11.845341 14.676148 11.845719 14.950254 11.726367 15.224375 C 11.677797 15.335938 11.664672 15.330209 11.648242 15.351328 C 11.631822 15.372448 11.617667 15.389156 11.601367 15.407969 C 11.568769 15.445595 11.53129 15.488204 11.48418 15.538828 C 11.38995 15.640076 11.263472 15.772829 11.113086 15.9275 C 11.006106 16.037528 10.851327 16.191531 10.724746 16.32 L 14.516914 16.32 C 15.515825 16.32 16.32 15.515825 16.32 14.516914 L 16.32 4.1230858 C 16.32 3.1241747 15.515825 2.3199999 14.516914 2.3199999 L 4.1230859 2.3199999 z M 4.8220508 13.327832 C 4.8217508 13.33107 4.8201005 13.343522 4.8200977 13.343457 C 4.8200977 13.343427 4.8218978 13.350615 4.8220508 13.351269 C 4.8220232 13.340151 4.8220801 13.338938 4.8220508 13.327832 z " /><path
         id="path10"
         style="fill:#666666;fill-opacity:1;stroke-width:0.0114285;stroke-linecap:round;stroke-linejoin:round;paint-order:markers stroke fill"
         d="M 4.5291797 2.890371 C 3.569304 2.890371 2.7794531 3.6802218 2.7794531 4.6400976 L 2.7794531 7.4339647 C 2.8969094 7.320732 3.0075839 7.2146485 3.0857227 7.1422851 C 3.1328124 7.0986751 3.1719754 7.0629361 3.2068164 7.0329101 C 3.2242364 7.0178971 3.2394878 7.0035232 3.2595508 6.9879882 C 3.2796142 6.9724532 3.2755625 6.9619354 3.3865039 6.9137694 C 3.5416739 6.8464014 3.6963301 6.8185767 3.8510547 6.8275194 L 3.8510547 4.6400976 C 3.8510547 4.255352 4.1444343 3.9619726 4.5291797 3.9619726 L 7.5723633 3.9619726 C 7.9571088 3.9619726 8.2483984 4.255352 8.2483984 4.6400976 L 8.2483984 7.5702733 C 8.2483984 7.9550189 7.9571088 8.2483983 7.5723633 8.2483983 L 5.6390234 8.2483983 C 5.7788659 8.3875023 5.8785092 8.4833783 6.0310352 8.6364257 C 6.7255142 9.3332788 7.1175945 9.7294917 7.3493945 9.9762694 C 7.5193144 10.157169 7.6332397 10.256184 7.7018555 10.404199 C 7.964975 10.452619 8.1649232 10.645014 8.2266797 10.902187 C 8.3801218 10.97027 8.4790522 11.085893 8.6638477 11.259473 C 8.9106247 11.491273 9.3068394 11.883354 10.003691 12.577832 C 10.153757 12.727387 10.247458 12.824804 10.38416 12.962207 L 10.38416 11.069726 C 10.38416 10.684981 10.67754 10.3916 11.062285 10.391601 L 14.105469 10.391601 C 14.490215 10.391601 14.783594 10.684981 14.783594 11.069726 L 14.783594 13.999902 C 14.783594 14.384647 14.490215 14.678027 14.105469 14.678027 L 11.804824 14.678027 C 11.830899 14.860126 11.805665 15.042248 11.726367 15.224375 C 11.677797 15.335938 11.664672 15.330209 11.648242 15.351328 C 11.631822 15.372448 11.617667 15.389156 11.601367 15.407969 C 11.568769 15.445595 11.53129 15.488204 11.48418 15.538828 C 11.433073 15.593741 11.351659 15.67771 11.28291 15.749629 L 14.105469 15.749629 C 15.065345 15.749629 15.855195 14.959778 15.855195 13.999902 L 15.855195 11.069726 C 15.855195 10.10985 15.065345 9.3199999 14.105469 9.3199999 C 15.065345 9.3199999 15.855195 8.5301491 15.855195 7.5702733 L 15.855195 4.6400976 C 15.855195 3.6802218 15.065345 2.890371 14.105469 2.890371 L 11.062285 2.890371 C 10.138696 2.890371 9.372898 3.621742 9.3162891 4.5321093 C 9.2598267 3.621742 8.4959522 2.890371 7.5723633 2.890371 L 4.5291797 2.890371 z M 11.062285 3.9619726 L 14.105469 3.9619726 C 14.490215 3.9619726 14.783594 4.255352 14.783594 4.6400976 L 14.783594 7.5702733 C 14.783594 7.9550189 14.490215 8.2483983 14.105469 8.2483983 L 11.062285 8.2483983 C 10.67754 8.2483983 10.38416 7.9550189 10.38416 7.5702733 L 10.38416 4.6400976 C 10.38416 4.255352 10.67754 3.9619726 11.062285 3.9619726 z M 9.3162891 7.6782812 C 9.3729001 8.5886466 10.138697 9.3199999 11.062285 9.3199999 C 10.138657 9.3199999 9.3728417 10.051416 9.3162891 10.961836 C 9.2597371 10.051415 8.4939009 9.3199999 7.5702734 9.3199999 L 7.5723633 9.3199999 C 8.4959508 9.3199999 9.2598246 8.5886466 9.3162891 7.6782812 z " /><path
         id="path5"
         style="fill:#7fb3fe;fill-opacity:1;stroke-width:0.0114285;stroke-linecap:round;stroke-linejoin:round;paint-order:markers stroke fill"
         d="M 4.5284766 3.4258397 C 3.856166 3.4258397 3.3149219 3.9670838 3.3149219 4.6393944 L 3.3149219 6.9499804 C 3.3315372 6.9403374 3.3458038 6.9314397 3.3865039 6.9137694 C 3.660475 6.7948233 3.9328453 6.7948232 4.2068164 6.9137694 C 4.3177563 6.9619356 4.3137063 6.9724538 4.3337695 6.9879882 C 4.3538326 7.0035226 4.3690836 7.0178969 4.3865039 7.0329101 C 4.4213444 7.0629364 4.4605079 7.0986754 4.5075977 7.1422851 C 4.6017774 7.2295043 4.7260846 7.3478469 4.8767383 7.4938476 C 5.1780457 7.7858489 5.5819128 8.1857678 6.0310352 8.6364257 C 6.0920802 8.6976794 6.1209533 8.7271564 6.1774219 8.7838671 L 7.5714063 8.7838671 C 8.2437169 8.7838671 8.7849805 8.242623 8.7849805 7.5703124 L 8.7849805 4.6393944 C 8.7849805 3.9670838 8.2437169 3.4258397 7.5714063 3.4258397 L 4.5284766 3.4258397 z M 11.06207 3.4258397 C 10.38976 3.4258397 9.8485156 3.9670838 9.8485156 4.6393944 L 9.8485156 7.5703124 C 9.8485156 8.242623 10.38976 8.7838671 11.06207 8.7838671 L 14.10502 8.7838671 C 14.77733 8.7838671 15.318574 8.242623 15.318574 7.5703124 L 15.318574 4.6393944 C 15.318574 3.9670838 14.77733 3.4258397 14.10502 3.4258397 L 11.06207 3.4258397 z M 7.2323242 9.8554687 C 7.2651664 9.8898168 7.3214575 9.9465273 7.3493945 9.9762694 C 7.5811945 10.223047 7.7096848 10.316624 7.7595508 10.591504 C 7.7878718 10.747637 7.6352829 10.867638 7.5896289 11.027051 C 7.7564769 10.975272 7.8842383 10.819498 8.0486133 10.849316 C 8.3234983 10.89918 8.4170697 11.027672 8.6638477 11.259473 C 8.693539 11.287362 8.7501523 11.34357 8.7844336 11.376348 L 8.7844336 11.069023 C 8.7844336 10.396713 8.2431895 9.8554687 7.5708789 9.8554687 L 7.2323242 9.8554687 z M 11.06207 9.8554687 C 10.38976 9.8554687 9.8485156 10.396713 9.8485156 11.069023 L 9.8485156 12.423769 C 9.907955 12.482952 9.939226 12.513586 10.003691 12.577832 C 10.454349 13.026954 10.854269 13.430821 11.14627 13.732129 C 11.292271 13.882783 11.410607 14.007095 11.497852 14.101328 C 11.541467 14.148418 11.577197 14.187581 11.607227 14.222422 C 11.622237 14.239842 11.636618 14.255093 11.652148 14.275156 C 11.667678 14.295219 11.678197 14.291169 11.726367 14.402109 C 11.843767 14.672523 11.845155 14.943002 11.730508 15.213496 L 14.10502 15.213496 C 14.77733 15.213496 15.318574 14.672233 15.318574 13.999922 L 15.318574 11.069023 C 15.318574 10.396713 14.77733 9.8554687 14.10502 9.8554687 L 11.06207 9.8554687 z M 4.8220508 13.327832 C 4.8217508 13.33107 4.8201005 13.343522 4.8200977 13.343457 C 4.8200977 13.343427 4.8218978 13.350615 4.8220508 13.351269 C 4.8220232 13.340151 4.8220801 13.338938 4.8220508 13.327832 z " /></g><path
       inkscape:connector-curvature="0"
       id="path827-666"
       d="M 0,8 V 0 h 8 8 v 8 8 H 8 0 Z m 11.326467,6.00029 c 3.319702,-1.106746 3.322552,-1.107867 3.51104,-1.381855 0.206207,-0.299746 0.193743,-0.0036 0.193743,-4.60281 0,-4.5991825 0.01246,-4.3030644 -0.193743,-4.60281 C 14.649019,3.1388275 14.646169,3.1377059 11.326467,2.0309595 8.4439647,1.0699703 8.2195475,1.0000958 8.015625,1.0000958 c -0.2039225,0 -0.4283397,0.069875 -3.3108416,1.0308637 C 1.3850808,3.1377059 1.3822313,3.1388275 1.1937435,3.412815 0.98753566,3.7125606 1,3.4164425 1,8.015625 c 0,4.599183 -0.0124643,4.303064 0.1937435,4.60281 0.1884878,0.273988 0.1913373,0.275109 3.5110399,1.381855 2.8825019,0.96099 3.1069191,1.030864 3.3108416,1.030864 0.2039225,0 0.4283397,-0.06987 3.310842,-1.030864 z"
       style="fill:#ffffff;fill-opacity:0;stroke-width:0.000357143" /><g
       id="POINT_DISTRIBUTE"
       style="display:inline;stroke-width:0.0114286"
       transform="translate(-4.507722,4.5078311)"><path
         style="fill:none;stroke-width:0.000357143"
         d="M 0,8 V 0 h 8 8 v 8 8 H 8 0 Z m 8.2275663,7.456342 c 0.057393,-0.02492 0.7737009,-0.719102 1.6687265,-1.617188 1.3880132,-1.392758 1.5706462,-1.587192 1.5897432,-1.692463 0.04342,-0.239372 -0.02774,-0.4254 -0.21675,-0.566635 -0.0813,-0.06075 -0.134358,-0.06496 -0.927757,-0.07368 L 9.5,11.497131 V 11.338972 C 9.5,11.200178 9.4933,11.183706 9.445313,11.204438 8.9723397,11.408762 8.5261784,11.5 8,11.5 7.4738216,11.5 7.0276603,11.408762 6.5546875,11.204438 6.5066966,11.183706 6.5,11.200177 6.5,11.33895 v 0.158136 l -0.8259059,0.0093 c -0.7775847,0.0087 -0.830951,0.01304 -0.9121316,0.0737 -0.1890128,0.141237 -0.2601713,0.327264 -0.2167481,0.566635 0.019096,0.105271 0.2017162,0.299686 1.5897428,1.69242 0.8624922,0.865417 1.6103553,1.592602 1.6619178,1.615965 0.1222994,0.05541 0.3047369,0.05595 0.4306913,0.0013 z M 4.2728025,11.417266 c 0.045491,-0.03396 0.1117047,-0.100555 0.1471416,-0.14798 0.060746,-0.0813 0.06496,-0.134358 0.073678,-0.927757 L 4.5028694,9.5 H 4.6610281 C 4.7998222,9.5 4.8162941,9.4933 4.7955619,9.445313 4.5912384,8.9723397 4.5,8.5261784 4.5,8 4.5,7.4738216 4.5912384,7.0276603 4.7955619,6.5546875 4.8162941,6.5066966 4.7998231,6.5 4.6610503,6.5 H 4.5029137 L 4.4936444,5.6740941 C 4.4849172,4.8965094 4.4806053,4.8431431 4.4199441,4.7619625 4.2787069,4.5729497 4.09268,4.5017912 3.8533088,4.5452144 3.7480384,4.5643109 3.5536044,4.7469444 2.1608457,6.1349572 1.2627599,7.0299828 0.56857597,7.7462903 0.54365822,7.8036837 0.49184491,7.9230263 0.48740531,8.0870372 0.53268941,8.2089031 0.57333447,8.318285 3.6367297,11.395757 3.765625,11.456695 c 0.1284644,0.06073 0.4014444,0.03951 0.5071775,-0.03943 z m 7.9361005,0.0188 c 0.117355,-0.04361 3.190798,-3.1098751 3.247327,-3.2397447 0.0558,-0.1281925 0.05584,-0.2955172 1.25e-4,-0.4238825 -0.02492,-0.057393 -0.719102,-0.773701 -1.617188,-1.6687266 -1.392759,-1.3880128 -1.587193,-1.5706463 -1.692463,-1.5897428 -0.239372,-0.043424 -0.4254,0.027736 -0.566635,0.2167497 -0.06075,0.081296 -0.06496,0.1343584 -0.07368,0.9277565 L 11.497131,6.5 H 11.338972 C 11.200178,6.5 11.183706,6.5067 11.204438,6.554687 11.408762,7.0276603 11.5,7.4738216 11.5,8 11.5,8.5261784 11.408762,8.9723397 11.204438,9.4453125 11.18369,9.4933409 11.200246,9.5 11.340407,9.5 H 11.5 v 0.779216 c 0,0.476101 0.01297,0.813436 0.03333,0.867187 0.09722,0.256597 0.407048,0.389438 0.675571,0.289658 z M 8.7233256,10.910744 C 9.8243259,10.62147 10.649577,9.7817472 10.927823,8.6675878 c 0.07422,-0.2972056 0.07422,-1.03797 0,-1.3351756 -0.278115,-1.113636 -1.0890596,-1.9398303 -2.2044974,-2.2459528 -0.3439365,-0.094391 -1.1027147,-0.094391 -1.4466512,0 -1.1154378,0.3061225 -1.9263825,1.1323168 -2.2044978,2.2459528 -0.074223,0.2972056 -0.074223,1.03797 0,1.3351756 0.2968793,1.1887713 1.2139043,2.0604802 2.4072475,2.2882912 0.3099237,0.05916 0.9329737,0.03656 1.2439015,-0.04514 z M 6.8551369,4.68238 C 7.1926528,4.5593878 7.5654497,4.5 8,4.5 8.5261784,4.5 8.9723397,4.5912384 9.4453125,4.7955619 9.4933034,4.8162941 9.5,4.7998231 9.5,4.6610503 V 4.5029137 l 0.825906,-0.00927 c 0.777585,-0.00873 0.830951,-0.013039 0.912132,-0.0737 C 11.42705,4.2787069 11.498209,4.09268 11.454786,3.8533088 11.435689,3.7480384 11.253056,3.5536044 9.8650428,2.1608457 8.9700172,1.2627599 8.2537097,0.56857597 8.1963163,0.54365822 c -0.1282788,-0.055693 -0.2956038,-0.055693 -0.4238826,0 C 7.7150403,0.56857597 6.9987328,1.2627599 6.1037072,2.1608457 4.7156944,3.5536044 4.5330609,3.7480384 4.5139644,3.8533088 c -0.043424,0.2393721 0.027736,0.4254003 0.2167497,0.5666353 0.081296,0.060746 0.1343584,0.06496 0.9277565,0.073678 L 6.5,4.5028694 v 0.1581587 c 0,0.1387941 0.0067,0.155266 0.054687,0.1345338 C 6.584765,4.7825679 6.7199673,4.7316369 6.8551369,4.68238 Z"
         id="path827"
         inkscape:connector-curvature="0" /><path
         style="fill:#fefefe;stroke-width:0.000357143"
         d="M 12,9.9920653 V 9 H 11.684157 C 11.405411,9 11.370603,8.9940338 11.387805,8.9492044 11.44319,8.8048753 11.5,8.3242403 11.5,8 11.5,7.6757597 11.44319,7.1951247 11.387805,7.0507956 11.370604,7.0059691 11.405378,7 11.683724,7 h 0.31541 l 0.0082,-1.0001403 0.0082,-1.0001403 1.492188,1.492449 1.492188,1.4924494 -1.5,1.4997566 L 12,10.984131 Z M 7,4.3158434 V 4 H 5.9923097 4.9846191 L 6.4843756,2.4999994 7.9841322,0.99999875 9.4765819,2.4921869 10.969032,3.984375 9.9845159,3.9926266 9,4.0008778 V 4.3162825 C 9,4.5946231 8.9940309,4.6293962 8.9492044,4.6121947 8.8048753,4.5568103 8.3242403,4.5 8,4.5 7.6757597,4.5 7.1951247,4.5568103 7.0507956,4.6121947 7.0059662,4.6293972 7,4.5945894 7,4.3158434 Z"
         id="path825"
         inkscape:connector-curvature="0"
         sodipodi:nodetypes="ccsssssccccccccscccccccccsssss" /><path
         style="fill:#fecb32;stroke-width:0.000357143"
         d="M 7.5826353,10.450042 C 7.1222766,10.366876 6.6250441,10.11543 6.2768137,9.7897016 5.930775,9.4660225 5.6370444,8.9026838 5.5479637,8.3918569 c -0.059863,-0.3432781 -0.059863,-0.4404357 0,-0.7837138 C 5.6099337,7.2527803 5.7434078,6.9232119 5.952825,6.6084772 6.3245103,6.0498687 6.9208369,5.6678197 7.6081431,5.5479637 c 0.3432781,-0.059863 0.4404356,-0.059863 0.7837138,0 0.3553628,0.06197 0.6849312,0.1954441 0.9996659,0.4048613 0.5586084,0.3716853 0.9406572,0.9680119 1.0605132,1.6553181 0.05986,0.3432781 0.05986,0.4404356 0,0.7837138 -0.06197,0.3553628 -0.195444,0.6849312 -0.404861,0.9996659 -0.3716853,0.5586085 -0.9680119,0.9406572 -1.6553181,1.0605132 -0.3285569,0.0573 -0.4831397,0.05692 -0.8092216,-0.002 z"
         id="path823"
         inkscape:connector-curvature="0" /><path
         style="fill:#cb6500;stroke-width:0.000357143"
         d="M 7.4794241,10.955879 C 6.8391219,10.833644 6.2811547,10.532683 5.8413031,10.072296 5.46529,9.6787272 5.2067906,9.2066125 5.0721766,8.6675878 c -0.074223,-0.2972056 -0.074223,-1.03797 0,-1.3351756 0.2781153,-1.113636 1.08906,-1.9398303 2.2044978,-2.2459528 0.3439365,-0.094391 1.1027147,-0.094391 1.4466512,0 1.1154378,0.3061225 1.9263824,1.1323168 2.2044974,2.2459528 0.07422,0.2972056 0.07422,1.03797 0,1.3351756 -0.278246,1.1141594 -1.1034971,1.9538822 -2.2044974,2.2431562 -0.3109278,0.08169 -0.9339778,0.104299 -1.2439015,0.04514 z M 8.3918569,10.452036 C 9.0791631,10.33218 9.6754897,9.9501313 10.047175,9.3915228 c 0.209417,-0.3147347 0.342891,-0.6443031 0.404861,-0.9996659 0.05986,-0.3432781 0.05986,-0.4404357 0,-0.7837138 C 10.33218,6.9208369 9.9501312,6.3245103 9.3915228,5.952825 9.0767881,5.7434078 8.7472197,5.6099337 8.3918569,5.5479637 c -0.3432781,-0.059863 -0.4404357,-0.059863 -0.7837138,0 C 6.9208369,5.6678197 6.3245103,6.0498687 5.952825,6.6084772 5.7434078,6.9232119 5.6099337,7.2527803 5.5479637,7.6081431 c -0.059863,0.3432781 -0.059863,0.4404356 0,0.7837138 0.089081,0.5108269 0.3828113,1.0741656 0.7288501,1.3978447 0.3482303,0.3257284 0.8454628,0.5771744 1.3058215,0.6603404 0.3260819,0.05891 0.4806647,0.05929 0.8092216,0.002 z"
         id="path821"
         inkscape:connector-curvature="0" /><path
         style="fill:#323232;stroke-width:0.000357143"
         d="M 11.796875,11.424635 C 11.681948,11.373556 11.577696,11.263494 11.533332,11.146403 11.512966,11.092652 11.5,10.755317 11.5,10.279216 V 9.5 h -0.159593 c -0.140066,0 -0.156734,-0.00669 -0.136219,-0.054687 0.01286,-0.030078 0.05496,-0.1390625 0.09356,-0.2421875 l 0.07018,-0.1875 0.315597,-0.0089 0.315597,-0.0089 0.0083,0.9856041 0.0083,0.9856044 1.492188,-1.49245 1.492188,-1.4924497 -1.5,-1.4997566 L 12,4.9846191 v 1.0087837 1.0087838 l -0.316037,-0.00891 -0.316038,-0.00891 -0.07018,-0.1875 C 11.259145,6.69375 11.217045,6.5847656 11.204188,6.5546875 11.183689,6.5067288 11.200273,6.5 11.338972,6.5 h 0.158159 l 0.0092,-0.8415294 c 0.0087,-0.7933981 0.01293,-0.8464609 0.07368,-0.9277565 0.141235,-0.1890135 0.327263,-0.2601732 0.566635,-0.2167497 0.105271,0.019096 0.299705,0.20173 1.692463,1.5897428 0.898086,0.8950256 1.59227,1.6113331 1.617188,1.6687265 0.05573,0.1283654 0.05569,0.2956901 -1.25e-4,0.4238826 -0.05653,0.1298696 -3.129972,3.1961367 -3.247327,3.2397447 -0.118878,0.04417 -0.298115,0.0392 -0.412028,-0.01143 z M 6.5,4.6610281 V 4.5028694 L 5.6584706,4.4936222 C 4.8650725,4.4849037 4.8120097,4.48069 4.7307141,4.4199441 4.5417006,4.2787091 4.4705409,4.0926809 4.5139644,3.8533088 4.5330609,3.7480384 4.7156944,3.5536044 6.1037072,2.1608457 6.9987328,1.2627599 7.7150403,0.56857597 7.7724337,0.54365822 c 0.1282788,-0.055693 0.2956038,-0.055693 0.4238825,0 0.057393,0.0249178 0.773701,0.71910168 1.6687266,1.61718748 1.3880132,1.3927587 1.5706462,1.5871927 1.5897432,1.6924631 0.04342,0.2393712 -0.02774,0.4253981 -0.216749,0.5666353 -0.08118,0.060661 -0.134546,0.064973 -0.912131,0.0737 L 9.5,4.5029137 V 4.6610503 C 9.5,4.7997281 9.49327,4.8163103 9.445313,4.7958116 9.4152344,4.7829553 9.30625,4.740855 9.203125,4.7022556 l -0.1875,-0.07018 -0.0089,-0.3155972 -0.0089,-0.3155972 0.9856041,-0.00825 L 10.969032,3.984375 9.4765819,2.4921869 7.9841322,0.99999875 6.4843756,2.4999994 4.9846191,4 h 1.0087837 1.0087838 l -0.00891,0.3160375 -0.00891,0.3160378 -0.1875,0.07018 C 6.69375,4.740855 6.5847656,4.7829553 6.5546875,4.7958116 6.5067288,4.8163106 6.5,4.7997269 6.5,4.6610281 Z"
         id="path819"
         inkscape:connector-curvature="0"
         sodipodi:nodetypes="csscscsccccccccccccccsscccsssccccscssssssscsscsssccccccccccccccss" /></g></g></svg>
