<?xml version="1.0" encoding="UTF-8" standalone="no"?>
<!-- Created with Inkscape (http://www.inkscape.org/) -->

<svg
   version="1.1"
   id="svg2"
   width="1600"
   height="1600"
   viewBox="0 0 1600 1600"
   sodipodi:docname="node_ray_portal.svg"
   inkscape:version="1.4 (86a8ad7, 2024-10-11)"
   xml:space="preserve"
   xmlns:inkscape="http://www.inkscape.org/namespaces/inkscape"
   xmlns:sodipodi="http://sodipodi.sourceforge.net/DTD/sodipodi-0.dtd"
   xmlns="http://www.w3.org/2000/svg"
   xmlns:svg="http://www.w3.org/2000/svg"
   xmlns:rdf="http://www.w3.org/1999/02/22-rdf-syntax-ns#"
   xmlns:cc="http://creativecommons.org/ns#"
   xmlns:dc="http://purl.org/dc/elements/1.1/"><metadata
     id="metadata8"><rdf:RDF><cc:Work
         rdf:about=""><dc:format>image/svg+xml</dc:format><dc:type
           rdf:resource="http://purl.org/dc/dcmitype/StillImage" /></cc:Work></rdf:RDF></metadata><defs
     id="defs6" /><sodipodi:namedview
     pagecolor="#808080"
     bordercolor="#666666"
     borderopacity="1"
     objecttolerance="10"
     gridtolerance="10"
     guidetolerance="10"
     inkscape:pageopacity="0"
     inkscape:pageshadow="2"
     inkscape:window-width="1920"
     inkscape:window-height="1009"
     id="namedview4"
     showgrid="true"
     inkscape:zoom="0.1767767"
     inkscape:cx="1564.1202"
     inkscape:cy="769.33218"
     inkscape:window-x="2552"
     inkscape:window-y="-8"
     inkscape:window-maximized="1"
     inkscape:current-layer="RAYCAST"
     inkscape:showpageshadow="0"
     inkscape:pagecheckerboard="true"
     inkscape:deskcolor="#d1d1d1"><inkscape:grid
       id="grid1"
       units="px"
       originx="0"
       originy="0"
       spacingx="100"
       spacingy="100"
       empcolor="#0099e5"
       empopacity="0.30196078"
       color="#0099e5"
       opacity="0.14901961"
       empspacing="5"
       enabled="true"
       visible="true" /></sodipodi:namedview><g
     id="RAYCAST"
     transform="matrix(100,0,0,100,0,4.9999997e-5)"
     style="stroke-width:0.0114286"><g
       id="g1"
       inkscape:label="Portal"><path
         style="stroke-width:0.000357143;fill:none"
         d="m 0.00525322,13.132813 c 0.00288927,-1.576954 0.01013784,-2.810938 0.01610792,-2.742188 0.11367295,1.30903 0.59075223,2.484912 1.39774356,3.44509 1.0529541,1.252832 2.5077422,1.996817 4.1902703,2.142924 0.06875,0.006 -1.1652344,0.01322 -2.7421875,0.01611 L 0,16 Z M 6.390625,15.978639 c 1.9254684,-0.167203 3.5826766,-1.140712 4.618375,-2.713014 0.218495,-0.331698 0.514092,-0.928768 0.635292,-1.283212 l 0.08616,-0.251963 0.251963,-0.08616 c 0.354444,-0.1212 0.951514,-0.416797 1.283212,-0.635292 1.572302,-1.0356984 2.545811,-2.6929066 2.713014,-4.618375 0.006,-0.06875 0.01322,2.0652344 0.01611,4.742188 L 16,16 11.132813,15.9947 C 8.4558594,15.9918 6.321875,15.98456 6.390625,15.97859 Z M 5.3673931,14.406341 C 4.8505616,14.319254 4.4906047,14.204053 4.046875,13.983718 3.1349922,13.530923 2.4686508,12.864532 2.016434,11.953125 1.90557,11.729688 1.778599,11.420313 1.7342762,11.265625 1.6278827,10.894309 1.5312623,10.29196 1.5312623,10 c 0,-0.2937216 0.097071,-0.8966856 0.2037526,-1.265625 C 1.8245772,8.4246397 2.0825963,7.8698531 2.2727616,7.578125 2.6231747,7.0405644 3.1695256,6.5162166 3.7220606,6.1871938 L 3.984375,6.0309913 4.0070866,6.2420581 c 0.1213737,1.127976 0.2975081,1.766441 0.6984081,2.531641 0.5654565,1.0792897 1.4415165,1.9553499 2.5208062,2.5208059 0.7652,0.4009 1.403665,0.577035 2.531641,0.698408 l 0.2110669,0.02271 -0.1562025,0.262314 c -0.3290229,0.552535 -0.8533707,1.098886 -1.3909313,1.449299 -0.2917281,0.190166 -0.8465147,0.448185 -1.15625,0.537747 -0.3904906,0.112913 -0.9806456,0.204308 -1.296875,0.20084 -0.1460937,-0.0016 -0.4167044,-0.02837 -0.6013569,-0.05948 z M 0.00525322,4.8671875 0,0 4.8671875,0.00525322 C 7.5441406,0.00814249 9.678125,0.01539106 9.609375,0.02136114 7.6839066,0.18856411 6.0266984,1.162073 4.9909997,2.734375 4.7725053,3.0660734 4.4769081,3.6631434 4.3557078,4.0175875 L 4.2695503,4.2695503 4.0175875,4.3557078 C 3.6631434,4.4769081 3.0660734,4.7725053 2.734375,4.9909997 1.162073,6.0266984 0.18856411,7.6839066 0.02136114,9.609375 0.01539106,9.678125 0.00814249,7.5441406 0.00525322,4.8671875 Z M 15.968744,5.5859375 C 15.968735,5.3928591 15.857568,4.7499181 15.764853,4.4067247 15.219467,2.3879213 13.554131,0.74307528 11.526144,0.22016772 11.200282,0.13614572 10.696262,0.0479019 10.390625,0.02136114 10.321875,0.01539106 11.555859,0.00814249 13.132813,0.00525322 L 16,0 v 2.859375 c 0,1.5726562 -0.007,2.859375 -0.01563,2.859375 -0.0086,0 -0.01563,-0.059766 -0.01563,-0.1328125 z"
         id="path825"
         inkscape:connector-curvature="0" /><path
         style="stroke-width:0.000357143;fill:#fefefe"
         d="M 5.734375,15.48033 C 4.3775119,15.344142 3.3446144,14.916952 2.3832469,14.094357 1.6143906,13.436484 0.95823403,12.365577 0.70749409,11.359375 c -0.24513453,-0.983707 -0.24513453,-1.7350425 0,-2.71875 C 0.90324284,7.8550991 1.3230997,7.0640656 1.905643,6.3832469 2.5635157,5.6143906 3.6344231,4.9582341 4.640625,4.7074941 c 0.9837075,-0.2451344 1.7350425,-0.2451344 2.71875,0 1.0062019,0.25074 2.0771094,0.9068965 2.734982,1.6757528 0.737995,0.8624959 1.148174,1.7608406 1.330343,2.9136281 0.161751,1.023572 -0.05763,2.230772 -0.587783,3.234375 -0.625397,1.183913 -1.6306979,2.080848 -2.883792,2.572936 -0.6286384,0.246866 -1.6989563,0.428316 -2.21875,0.376144 z"
         id="path823"
         inkscape:connector-curvature="0"
         sodipodi:nodetypes="csssssssscsc" /><path
         style="stroke-width:0.000357143;fill:#98cbfe"
         d="M 11.884007,11.058144 C 11.994563,10.59257 12.014042,9.7211438 11.926171,9.171875 11.737998,7.9956312 11.303328,7.0238537 10.580895,6.1642847 9.6163641,5.0166606 8.3672769,4.3207947 6.828125,4.0736172 6.3853894,4.0025169 5.6006631,4.0016725 5.1887156,4.0718547 5.0261031,4.0995578 4.8880638,4.1172319 4.8819622,4.11113 4.8758603,4.1050281 4.9147541,3.9966688 4.9683928,3.8703309 5.2755584,3.1468513 5.8260881,2.3823777 6.3832469,1.9056443 7.0640656,1.323101 7.8550991,0.90324409 8.640625,0.70749534 c 0.9837075,-0.24513453 1.735043,-0.24513453 2.71875,0 1.006202,0.25073994 2.077109,0.90689646 2.734982,1.67575286 0.737995,0.8624959 1.148174,1.7608406 1.330343,2.9136281 0.161751,1.0235718 -0.05763,2.2307715 -0.587783,3.234375 -0.441431,0.8356546 -1.015623,1.4738757 -1.80331,2.0043997 -0.293406,0.197616 -0.900423,0.516508 -1.09255,0.573963 -0.06643,0.01987 -0.07266,0.01425 -0.05705,-0.05147 z"
         id="path821-8"
         inkscape:connector-curvature="0"
         sodipodi:nodetypes="cssssssssssssscc" /><path
         style="stroke-width:0.000357143;fill:#323232"
         d="M 5.609375,15.980869 C 4.9761462,15.914583 4.3034125,15.761034 3.8332312,15.575472 0.50326987,14.26127 -0.94907447,10.384386 0.70549466,7.2263009 1.3001117,6.0913522 2.2365862,5.1836959 3.390625,4.6238006 3.596875,4.5237363 3.8790081,4.4030944 4.0175875,4.3557078 L 4.2695503,4.2695503 4.3557078,4.0175875 C 4.6924859,3.0326977 5.3925353,2.0431879 6.244715,1.3475023 7.883015,0.01005921 10.201136,-0.35122875 12.166769,0.42452769 14.469019,1.3331337 15.981164,3.5434238 15.981164,6 c 0,1.8029759 -0.810478,3.4947191 -2.231164,4.657196 -0.470032,0.384604 -1.203524,0.794218 -1.767587,0.987096 l -0.251963,0.08616 -0.08616,0.251963 c -0.04739,0.138579 -0.168028,0.420712 -0.268093,0.626962 -0.976793,2.013337 -2.9806112,3.304014 -5.235574,3.372281 -0.2234375,0.0068 -0.4625,0.0064 -0.53125,-7.88e-4 z m 1.125,-0.563217 c 1.1043447,-0.167949 2.0273741,-0.59171 2.8823781,-1.323295 0.7688559,-0.657873 1.4250129,-1.72878 1.6757529,-2.734982 0.245134,-0.983707 0.245134,-1.7350425 0,-2.71875 C 11.041766,7.6344231 10.385609,6.5635156 9.6167531,5.9056431 8.9359344,5.3230997 8.1449009,4.9032428 7.359375,4.7074941 6.3756675,4.4623597 5.6243325,4.4623597 4.640625,4.7074941 3.6344231,4.9582341 2.5635157,5.6143906 1.905643,6.3832469 1.1676475,7.2457428 0.75746928,8.1440875 0.57529956,9.296875 c -0.10039462,0.6353072 -0.057783,1.300133 0.13219453,2.0625 0.25073994,1.006202 0.90689651,2.077109 1.67575281,2.734982 0.9613675,0.822595 1.994265,1.249785 3.3511281,1.385973 0.1907703,0.01915 0.6520822,-0.0098 1,-0.06268 z m 5.627357,-4.496464 c 0.641885,-0.308095 1.311403,-0.812153 1.732625,-1.3044349 0.582543,-0.6808187 1.0024,-1.4718522 1.198149,-2.2573781 0.245134,-0.9837075 0.245134,-1.7350425 0,-2.71875 C 15.041766,3.6344231 14.385609,2.5635157 13.616753,1.905643 12.754257,1.1676475 11.855913,0.75746928 10.703125,0.57529956 9.6795531,0.41354922 8.4723534,0.63293384 7.46875,1.1630831 6.493525,1.6782415 5.7191225,2.4417639 5.1936181,3.40625 5.055705,3.6593694 4.8639344,4.0931009 4.8819622,4.1111287 c 0.0061,0.0061 0.1441409,-0.011572 0.3067534,-0.039275 0.4119475,-0.070181 1.1966738,-0.069337 1.6394094,0.00176 1.5391519,0.2471775 2.7882391,0.9430435 3.75277,2.0906675 0.722433,0.8595691 1.157103,1.8313466 1.345276,3.0075904 0.08787,0.5492687 0.06839,1.4206954 -0.04216,1.8862694 -0.01561,0.06572 -0.0094,0.07134 0.05705,0.05147 0.04101,-0.01227 0.230316,-0.09706 0.420675,-0.188426 z"
         id="path819-2"
         inkscape:connector-curvature="0"
         sodipodi:nodetypes="ccssscsssssccccccccssssssssssccccssssssssscsscccc" /><path
         id="path1"
         style="fill:#98cbfe;stroke-width:1;stroke-linecap:round;stroke-linejoin:round;paint-order:markers stroke fill"
         d="M 10.205577,10.034792 A 4.2131081,4.2131081 0 0 1 5.9924688,14.2479 4.2131081,4.2131081 0 0 1 1.7793608,10.034792 4.2131081,4.2131081 0 0 1 5.9924688,5.8216839 4.2131081,4.2131081 0 0 1 10.205577,10.034792 Z" /></g><path
       style="stroke-width:0.000357143;fill:none"
       d="M 0,8 V 0 h 8 8 v 8 8 H 8 0 Z M 10.414012,10.414113 14,6.8282269 V 8.4141134 10 H 14.5 15 V 7.5 5 H 12.5 10 V 5.5 6 h 1.585921 1.58592 L 9.5859484,9.5858925 6.0000562,13.171785 3.5000281,10.671903 1,8.1720216 v 0.827965 0.8279647 L 3.08585,11.913976 5.1717,14 h 0.8281619 0.8281615 z"
       id="path821"
       inkscape:connector-curvature="0"
       inkscape:label="Frame" /><path
       style="fill:#fe0000;fill-opacity:1;stroke:#fe0000;stroke-width:1;stroke-dasharray:none;stroke-opacity:1"
       d="M 2.3184924,9.7168595 C 2.3593612,9.2216346 2.4929178,8.6766733 2.6898733,8.3477894 4.1476451,9.7777834 5.056087,10.586479 6.5000561,12.030364 L 13.191841,4.993457 H 11.605921 10.02 v -0.5 -0.5 h 2.5 2.5 v 2.5 2.4999999 h -0.5 -0.5 V 7.4075704 5.8216839 L 7.3280233,13 H 6.4998618 5.6716999 C 4.4254315,11.784727 2.3184924,9.7168595 2.3184924,9.7168595 Z"
       id="path819"
       inkscape:connector-curvature="0"
       sodipodi:nodetypes="cccccccccccccccccccc"
       inkscape:label="Arrow-light" /><path
       style="fill:#fefe00;stroke:#000000;stroke-width:0.000357143"
       d="M 2.3184924,9.7168595 C 2.4216769,9.2448946 2.5151074,8.5948922 2.6898733,8.3477894 4.1476452,9.7777834 5.056087,10.586479 6.5000561,12.030364 L 13.191841,4.993457 H 11.605921 10.02 v -0.5 -0.5 h 2.5 2.5 v 2.5 2.4999999 h -0.5 -0.5 V 7.4075704 5.8216839 L 7.3280232,13 H 6.4998622 5.6717002 C 4.4254317,11.784727 3.5216379,10.974339 2.3184924,9.7168595 Z"
       id="path819-4"
       inkscape:connector-curvature="0"
       sodipodi:nodetypes="cccccccccccccccccccc"
       inkscape:label="Arrow" /></g></svg>
