<?xml version="1.0" encoding="UTF-8" standalone="no"?>
<!-- Created with Inkscape (http://www.inkscape.org/) -->

<svg
   version="1.1"
   id="svg2"
   width="1600"
   height="1600"
   viewBox="0 0 1600 1600"
   sodipodi:docname="node_frameparent.svg"
   inkscape:version="1.4 (86a8ad7, 2024-10-11)"
   xml:space="preserve"
   xmlns:inkscape="http://www.inkscape.org/namespaces/inkscape"
   xmlns:sodipodi="http://sodipodi.sourceforge.net/DTD/sodipodi-0.dtd"
   xmlns="http://www.w3.org/2000/svg"
   xmlns:svg="http://www.w3.org/2000/svg"
   xmlns:rdf="http://www.w3.org/1999/02/22-rdf-syntax-ns#"
   xmlns:cc="http://creativecommons.org/ns#"
   xmlns:dc="http://purl.org/dc/elements/1.1/"><metadata
     id="metadata8"><rdf:RDF><cc:Work
         rdf:about=""><dc:format>image/svg+xml</dc:format><dc:type
           rdf:resource="http://purl.org/dc/dcmitype/StillImage" /></cc:Work></rdf:RDF></metadata><defs
     id="defs6" /><sodipodi:namedview
     pagecolor="#808080"
     bordercolor="#666666"
     borderopacity="1"
     objecttolerance="10"
     gridtolerance="10"
     guidetolerance="10"
     inkscape:pageopacity="0"
     inkscape:pageshadow="2"
     inkscape:window-width="2560"
     inkscape:window-height="1009"
     id="namedview4"
     showgrid="true"
     inkscape:zoom="0.5"
     inkscape:cx="1099"
     inkscape:cy="846"
     inkscape:window-x="1912"
     inkscape:window-y="-8"
     inkscape:window-maximized="1"
     inkscape:current-layer="NODE_FRAME"
     inkscape:showpageshadow="0"
     inkscape:pagecheckerboard="true"
     inkscape:deskcolor="#d1d1d1"><inkscape:grid
       id="grid2"
       units="px"
       originx="0"
       originy="0"
       spacingx="100"
       spacingy="100"
       empcolor="#0099e5"
       empopacity="0.30196078"
       color="#0099e5"
       opacity="0.14901961"
       empspacing="5"
       enabled="true"
       visible="true" /></sodipodi:namedview><g
     id="NODE_FRAME"
     transform="matrix(100,0,0,100,0,4.9999997e-5)"
     style="stroke-width:0.0114286"><path
       style="fill:none;stroke-width:0.000357143"
       d="M 1,8 V 1 H 5.828125 10.65625 V 1.5 2 H 9.328125 8 v 6 6 h 3 3 V 9.609375 5.21875 H 14.5 15 V 10.109375 15 H 8 1 Z M 7,8 V 2 H 4.5 2 v 6 6 H 4.5 7 Z"
       id="path827"
       inkscape:connector-curvature="0" /><path
       style="fill:#fecb32;fill-opacity:1;stroke-width:0.000357143"
       d="M 9,7.9999999 V 3 h 2 2 V 7.9999999 13 H 11 9 Z"
       id="path1" /><path
       style="fill:#98cbfe;stroke-width:0.000357143"
       d="M 3,5.5 V 4 H 4.5 6 V 5.5 8 H 4.5 3 Z"
       id="path825"
       sodipodi:nodetypes="ccccccccc" /><path
       style="fill:#656565;stroke-width:0.000357143"
       d="M 3,3.5 V 3 H 4.5 6 V 3.5 4 H 4.5 3 Z"
       id="path823" /><path
       style="fill:#656565;stroke-width:0.000357143;fill-opacity:1"
       d="M 15,1.5 V 1 H 15.5 16 V 1.5 2 H 15.5 15 Z"
       id="path4" /><path
       style="fill:#656565;stroke-width:0.000357143;fill-opacity:1"
       d="M 15,4.5 V 4 H 15.5 16 V 4.5 5 H 15.5 15 Z"
       id="path3" /><path
       style="fill:#323232;stroke-width:0.000357143"
       d="M 0,8 V 0 h 8 8 V 0.5 1 H 8.5 1 v 7 7 h 7 7 V 10 5 H 15.5 16 V 10.5 16 H 8 0 Z M 2,5 V 2 H 4.5 7 V 5 9 H 4.5 2 Z M 6,5 V 3 H 4.5 3 V 5 8 H 4.5 6 Z M 15,3 V 2 H 15.5 16 V 3 4 H 15.5 15 Z"
       id="path819"
       inkscape:connector-curvature="0"
       sodipodi:nodetypes="cccccccccccccccccccccccccccccccccccccccccccccccc" /><path
       style="fill:#32fe00;stroke-width:0.000357143"
       d="M 4,11 V 9 H 4.5 5 V 10.5 12 H 6.5 8 V 12.5 13 H 6 4 Z"
       id="path823-4"
       inkscape:connector-curvature="0" /><path
       style="fill:#009800;stroke-width:0.000357143"
       d="M 3.796875,13.455886 C 3.6819475,13.404806 3.5776962,13.294744 3.5333316,13.177653 3.5109588,13.118604 3.5,12.417386 3.5,11.044841 V 9 H 3.75 4 v 2 2 h 2 2 v 0.25 0.25 L 5.9453125,13.4988 C 4.3028406,13.4978 3.8718166,13.489195 3.796875,13.455887 Z M 5,10.5 V 9 H 5.25 5.5 v 1.25 1.25 H 6.75 8 V 11.75 12 H 6.5 5 Z"
       id="path819-1"
       inkscape:connector-curvature="0" /><path
       style="fill:#986500;fill-opacity:1;stroke-width:0.000357143"
       d="M 9,13.5 V 13 h 2 2 V 13.5 14 H 11 9 Z"
       id="path2-3" /><path
       style="fill:#986500;fill-opacity:1;stroke-width:0.000357142"
       d="M 13,8.0364587 V 2.0000001 C 13.625991,2 14.040066,2.5 14,3 V 8.0364587 13 c 0,0.616176 -0.525245,1 -1,1 z"
       id="path2-3-3"
       sodipodi:nodetypes="ccccccc" /><path
       style="fill:#fefe00;fill-opacity:1;stroke-width:0.000357143"
       d="M 8,3 C 8,2.5 8.5877083,2 9.0090625,2 H 10.5 13 V 2.5 3 H 10.5 8 Z"
       id="path2"
       sodipodi:nodetypes="ccccccccc" /><path
       style="fill:#fefe00;fill-opacity:1;stroke-width:0.000357144"
       d="M 8,8.5000003 V 3 H 8.5 9 V 8.5000003 14 C 8.5818139,14 8.2767648,14 8,13.5 Z"
       id="path2-4"
       sodipodi:nodetypes="cccccccc" /><path
       style="fill:#fefefe;stroke-width:0.000357143"
       d="M 14,3.609375 V 2 H 12.328125 10.65625 V 1.5 1 H 12.828125 15 V 3.109375 5.21875 H 14.5 14 Z"
       id="path829"
       inkscape:connector-curvature="0" /></g></svg>
