<?xml version="1.0" encoding="UTF-8" standalone="no"?>
<!-- Created with Inkscape (http://www.inkscape.org/) -->

<svg
   version="1.1"
   id="svg2"
   width="1600"
   height="1600"
   viewBox="0 0 1600 1600"
   sodipodi:docname="node_normalmap.svg"
   inkscape:version="1.2.2 (732a01da63, 2022-12-09)"
   xmlns:inkscape="http://www.inkscape.org/namespaces/inkscape"
   xmlns:sodipodi="http://sodipodi.sourceforge.net/DTD/sodipodi-0.dtd"
   xmlns="http://www.w3.org/2000/svg"
   xmlns:svg="http://www.w3.org/2000/svg"
   xmlns:rdf="http://www.w3.org/1999/02/22-rdf-syntax-ns#"
   xmlns:cc="http://creativecommons.org/ns#"
   xmlns:dc="http://purl.org/dc/elements/1.1/">
  <metadata
     id="metadata8">
    <rdf:RDF>
      <cc:Work
         rdf:about="">
        <dc:format>image/svg+xml</dc:format>
        <dc:type
           rdf:resource="http://purl.org/dc/dcmitype/StillImage" />
      </cc:Work>
    </rdf:RDF>
  </metadata>
  <defs
     id="defs6" />
  <sodipodi:namedview
     pagecolor="#808080"
     bordercolor="#666666"
     borderopacity="1"
     objecttolerance="10"
     gridtolerance="10"
     guidetolerance="10"
     inkscape:pageopacity="0"
     inkscape:pageshadow="2"
     inkscape:window-width="1993"
     inkscape:window-height="1009"
     id="namedview4"
     showgrid="false"
     inkscape:zoom="0.5"
     inkscape:cx="325"
     inkscape:cy="128"
     inkscape:window-x="-8"
     inkscape:window-y="-8"
     inkscape:window-maximized="1"
     inkscape:current-layer="NODE_NORMALMAP"
     inkscape:showpageshadow="0"
     inkscape:pagecheckerboard="true"
     inkscape:deskcolor="#d1d1d1" />
  <g
     id="NODE_NORMALMAP"
     transform="matrix(100,0,0,100,0,4.9999997e-5)"
     style="stroke-width:0.0114286">
    <path
       style="fill:none;stroke-width:0.000357143"
       d="M 0,8 V 0 h 8 8 v 8 8 H 8 0 Z m 13.269218,7.419944 c 0.04746,-0.03544 0.115289,-0.103261 0.150726,-0.150719 0.06438,-0.08622 0.06444,-0.09066 0.08006,-5.7324444 0.01164,-4.2046472 0.0065,-5.6700906 -0.02022,-5.7399056 -0.02105,-0.055047 -0.691906,-0.7475964 -1.625,-1.6775451 -1.355489,-1.35091915 -1.605235,-1.58657599 -1.698528,-1.60270781 -0.06016,-0.010402 -2.18608,-0.0148817 -4.724275,-0.009955 -4.60534394,0.008939 -4.61507859,0.009091 -4.70119406,0.0733887 -0.0474618,0.035437 -0.11528807,0.10326428 -0.15072503,0.15072728 L 0.515625,0.81707959 0.50672091,7.9163522 c -0.004897,3.9045998 -8.2219e-4,7.1445618 0.009056,7.1999148 0.0223485,0.125235 0.1536701,0.284907 0.27954885,0.339901 0.0784903,0.03429 1.17936484,0.04045 6.24144734,0.03492 l 6.1461489,-0.0067 z"
       id="path851"
       inkscape:connector-curvature="0" />
    <path
       style="fill:#fefefe;stroke-width:0.000357143"
       d="M 1,8 V 1 H 5.25 9.5 V 2.75 4.5 H 11.25 13 V 9.75 15 H 7 1 Z M 12,9.5 V 5 H 10.5 9 V 3.5 2 H 5.5 2 v 6 6 h 5 5 z M 11.507813,4.0078197 10,3.9993997 V 2.4920082 0.98461663 L 11.515625,2.5 c 0.833594,0.8334609 1.515625,1.5189534 1.515625,1.5233166 0,0.00436 -0.0035,0.00456 -0.0078,4.281e-4 -0.0043,-0.00413 -0.686329,-0.011294 -1.515625,-0.015925 z"
       id="path849"
       inkscape:connector-curvature="0" />
    <path
       style="fill:#fecbfe;stroke-width:0.000357143"
       d="M 7,7 V 5 H 7.25 7.5 V 6.796875 8.59375 H 9.25 11 V 8.796875 9 H 9 7 Z"
       id="path847"
       inkscape:connector-curvature="0" />
    <path
       style="fill:#fefe65;stroke-width:0.000357143"
       d="M 6.4375,13.480389 C 5.9720556,13.421702 5.3899184,13.242797 4.9557628,13.025016 4.1445781,12.61811 3.38189,11.855422 2.9749841,11.044237 2.8180231,10.731329 2.6503806,10.254825 2.574325,9.9054109 2.4918062,9.5263037 2.4918062,8.4736963 2.574325,8.0945891 2.7680682,7.2044962 3.1776887,6.4514778 3.8145834,5.8145834 4.4514778,5.1776887 5.2044962,4.7680681 6.0945891,4.574325 6.4701653,4.4925747 7.5264994,4.49181 7.8990056,4.5730187 8.3050931,4.6615484 9,4.9112828 9,4.9686922 c 0,0.012923 0.040365,0.031568 0.089699,0.041436 0.1749031,0.034981 0.7415634,0.4503022 1.090575,0.7993131 0.642238,0.6422379 1.051083,1.392416 1.245401,2.2851485 0.08252,0.3791072 0.08252,1.4317147 0,1.8108219 C 11.231932,10.795504 10.822311,11.548523 10.185417,12.185417 9.6842125,12.686621 9.1613569,13.01962 8.515625,13.248883 8.00742,13.429318 7.7595894,13.471071 7.125,13.483164 c -0.3179687,0.0061 -0.6273437,0.0048 -0.6875,-0.0028 z m 1.40625,-0.570834 c 1.5456,-0.352356 2.715413,-1.522287 3.065496,-3.065805 0.09156,-0.4036712 0.111893,-1.0386006 0.04609,-1.4388716 C 10.814255,7.5467447 10.422839,6.7764109 9.8232144,6.1767856 9.2510816,5.6046528 8.5745503,5.2465619 7.71875,5.0628831 7.4284044,5.0005669 7.3348553,4.9945803 6.90625,5.0108884 6.6009462,5.022505 6.3236747,5.0518109 6.15625,5.0901594 4.5880416,5.4493547 3.4153528,6.6400703 3.0750253,8.21875 c -0.080069,0.371415 -0.080069,1.191085 0,1.5625 0.3033266,1.407042 1.2760194,2.521326 2.6124747,2.992763 0.2456016,0.08664 0.6112716,0.172937 0.875,0.206508 0.2464716,0.03137 1.0203631,-0.01149 1.28125,-0.07097 z"
       id="path845"
       inkscape:connector-curvature="0" />
    <path
       style="fill:#9898fe;stroke-width:0.000357143"
       d="M 2,8 V 2 H 5.5 9 V 3.4720934 C 9,4.8622537 8.9969563,4.9428719 8.9453125,4.9205622 8.1634156,4.5827875 7.6091497,4.4777012 6.78125,4.5102659 6.2514078,4.5311069 5.9424194,4.5884909 5.484375,4.7511169 4.8386431,4.98038 4.3157875,5.3133794 3.8145834,5.8145834 3.3030688,6.3260978 2.9732413,6.8493275 2.740108,7.5191019 2.549242,8.0674456 2.51669,8.2832125 2.51669,9 c 0,0.7167875 0.032552,0.9325544 0.223418,1.480898 0.2331333,0.669774 0.5629608,1.193004 1.0744754,1.704519 0.5115144,0.511514 1.0347441,0.841342 1.7045185,1.074475 C 6.0674456,13.450758 6.2832125,13.48331 7,13.48331 c 0.7167875,0 0.9325544,-0.03255 1.4808981,-0.223418 0.6697744,-0.233133 1.1930041,-0.562961 1.7045189,-1.074475 0.636894,-0.636895 1.046515,-1.389913 1.240258,-2.2800061 0.08252,-0.3791072 0.08252,-1.4317146 0,-1.8108218 C 11.152137,6.8379028 10.388482,5.7680244 9.2950584,5.1095987 L 9.1130519,5 H 10.556526 12 V 9.5 14 H 7 2 Z m 5,3.004484 V 9 H 4.9955162 2.9910325 l 0.02148,-0.2845366 C 3.1623328,6.73082 4.73082,5.1623328 6.7154634,5.0125122 L 7,4.9910325 V 6.9955162 9 h 2.0044838 2.0044842 l -0.02148,0.2845366 C 10.837667,11.26918 9.26918,12.837667 7.2845366,12.987488 L 7,13.008968 Z M 6.140625,12.906375 C 4.7952887,12.59907 3.702065,11.634673 3.2356759,10.34375 3.1590053,10.131532 3.0336098,9.6362962 3.0319263,9.5390625 3.0313932,9.5082738 3.3985975,9.5 4.765625,9.5 H 6.5 v 1.734375 c 0,1.631956 -0.00323,1.734219 -0.054687,1.73174 -0.030078,-0.0015 -0.1671875,-0.02833 -0.304688,-0.05974 z M 7.5,6.8125 c 0,-1.4045275 0.00826,-1.7811069 0.039063,-1.7805738 0.097234,0.00168 0.5924694,0.1270791 0.8046875,0.2037497 1.1231153,0.4057628 2.0148105,1.2974588 2.4205735,2.4205741 0.09281,0.2569022 0.202683,0.716095 0.20375,0.8515625 L 10.96875,8.59375 H 9.234375 7.5 Z"
       id="path843"
       inkscape:connector-curvature="0" />
    <path
       style="fill:#656565;stroke-width:0.000357143"
       d="M 9.5,2.75 V 1 H 9.75 10 V 2.5 4 H 11.5 13 V 4.25 4.5 H 11.25 9.5 Z"
       id="path841"
       inkscape:connector-curvature="0" />
    <path
       style="fill:#00fe00;stroke-width:0.000357143"
       d="M 6.5859375,12.977617 6.5,12.964599 V 11.232299 9.5 H 4.7697137 3.0394277 l -0.01937,-0.1171875 c -0.010654,-0.064453 -0.019525,-0.1769531 -0.019714,-0.25 L 3,9 h 2 2 v 2 2 L 6.8359375,12.9953 c -0.090234,-0.0026 -0.2027344,-0.01054 -0.25,-0.0177 z"
       id="path839"
       inkscape:connector-curvature="0" />
    <path
       style="fill:#323232;stroke-width:0.000357143"
       d="m 0.79532572,15.456168 c -0.12587875,-0.05499 -0.25720035,-0.214666 -0.27954885,-0.3399 -0.009878,-0.05535 -0.0139532,-3.295316 -0.009056,-7.1999158 l 0.008904,-7.09927261 0.0644309,-0.0862964 c 0.035437,-0.047463 0.10326325,-0.11529031 0.15072503,-0.15072728 0.0861155,-0.0642975 0.0958501,-0.0644495 4.7011941,-0.0733887 2.538195,-0.004927 4.6641191,-4.4719e-4 4.7242751,0.009955 0.09329,0.0161318 0.343039,0.25178866 1.698528,1.60270779 0.933094,0.9299487 1.603952,1.6224985 1.625,1.6775451 0.0267,0.069815 0.03186,1.5352584 0.02022,5.7399056 -0.01561,5.6417803 -0.01567,5.6462223 -0.08006,5.7324443 -0.03544,0.04746 -0.103264,0.115282 -0.150726,0.150719 l -0.0863,0.06443 -6.146149,0.0067 c -5.0620825,0.0055 -6.16295714,-6.3e-4 -6.24144742,-0.03492 z M 13.00764,9.4998791 13.015625,3.9997581 11.515505,2.499879 10.015386,1 H 5.5076928 1 v 7 7 h 5.9998272 5.9998268 z"
       id="path837"
       inkscape:connector-curvature="0" />
  </g>
</svg>
