<?xml version="1.0" encoding="UTF-8" standalone="no"?>
<!-- Created with Inkscape (http://www.inkscape.org/) -->

<svg
   version="1.1"
   id="svg2"
   width="1600"
   height="1600"
   viewBox="0 0 1600 1600"
   sodipodi:docname="node_ungroup.svg"
   inkscape:version="1.2.2 (732a01da63, 2022-12-09)"
   xmlns:inkscape="http://www.inkscape.org/namespaces/inkscape"
   xmlns:sodipodi="http://sodipodi.sourceforge.net/DTD/sodipodi-0.dtd"
   xmlns="http://www.w3.org/2000/svg"
   xmlns:svg="http://www.w3.org/2000/svg"
   xmlns:rdf="http://www.w3.org/1999/02/22-rdf-syntax-ns#"
   xmlns:cc="http://creativecommons.org/ns#"
   xmlns:dc="http://purl.org/dc/elements/1.1/">
  <metadata
     id="metadata8">
    <rdf:RDF>
      <cc:Work
         rdf:about="">
        <dc:format>image/svg+xml</dc:format>
        <dc:type
           rdf:resource="http://purl.org/dc/dcmitype/StillImage" />
      </cc:Work>
    </rdf:RDF>
  </metadata>
  <defs
     id="defs6" />
  <sodipodi:namedview
     pagecolor="#808080"
     bordercolor="#666666"
     borderopacity="1"
     objecttolerance="10"
     gridtolerance="10"
     guidetolerance="10"
     inkscape:pageopacity="0"
     inkscape:pageshadow="2"
     inkscape:window-width="1993"
     inkscape:window-height="1009"
     id="namedview4"
     showgrid="false"
     inkscape:zoom="0.5"
     inkscape:cx="9"
     inkscape:cy="8"
     inkscape:window-x="-8"
     inkscape:window-y="-8"
     inkscape:window-maximized="1"
     inkscape:current-layer="NODE_UNGROUP"
     inkscape:showpageshadow="0"
     inkscape:pagecheckerboard="true"
     inkscape:deskcolor="#d1d1d1" />
  <g
     id="NODE_UNGROUP"
     transform="matrix(100,0,0,100,0,4.9999997e-5)"
     style="stroke-width:0.0114286">
    <path
       style="fill:none;stroke-width:0.000357143"
       d="M 0,11.325786 V 6.6515728 L 0.2265625,6.8743972 C 0.76897075,7.4078566 1.475061,7.7705191 2.297506,7.9380769 2.5976872,7.9992331 2.6992842,8.0056297 3.109375,7.9891916 4.309355,7.9410913 5.1924075,7.5187837 6.0625,6.5769013 6.4323797,6.1765031 6.7803828,5.4519694 6.9249747,4.78125 c 0.080069,-0.371415 0.080069,-1.191085 0,-1.5625 C 6.7803828,2.5480306 6.4323797,1.8234968 6.0625,1.4230987 5.4930844,0.80670141 4.9972947,0.46754966 4.3125,0.22598756 4.0600537,0.13693687 3.6755403,0.04716483 3.4375,0.021702 3.3773438,0.01526717 5.4023437,0.00895985 7.9375,0.00768572 L 12.546875,0.00536912 12.21875,0.07777135 C 10.600624,0.434818 9.4211275,1.6132842 9.0750253,3.21875 c -0.080069,0.371415 -0.080069,1.191085 0,1.5625 0.1699241,0.7882272 0.5471372,1.4873409 1.1017607,2.0419644 0.578168,0.5781684 1.269005,0.9413415 2.12072,1.1148625 0.300181,0.061156 0.401778,0.067553 0.811869,0.051115 0.501244,-0.020092 0.836746,-0.081211 1.234375,-0.2248675 0.527297,-0.1905038 1.048235,-0.5147678 1.429687,-0.8899269 L 16,6.6515728 V 11.325786 16 L 12.164063,15.995 C 10.054297,15.9922 8.3773438,15.98473 8.4375,15.9783 c 0.2380403,-0.02546 0.6225538,-0.115235 0.875,-0.204285 0.6847947,-0.241563 1.180584,-0.580715 1.75,-1.197112 0.36988,-0.400398 0.717883,-1.124932 0.862475,-1.795651 0.08007,-0.371415 0.08007,-1.191085 0,-1.5625 C 11.780383,10.548031 11.43238,9.8234969 11.0625,9.4230987 10.623648,8.9480369 10.259292,8.6621737 9.796875,8.4301244 9.2550591,8.1582313 8.7680184,8.0372097 8.109375,8.0108084 7.6992841,7.9943703 7.5976872,8.0007669 7.2975059,8.0619231 6.4457912,8.2354441 5.7549544,8.5986172 5.1767856,9.1767856 4.6221625,9.7314091 4.2449494,10.430523 4.0750253,11.21875 c -0.080069,0.371415 -0.080069,1.191085 0,1.5625 0.3003488,1.39323 1.2617488,2.504456 2.5812247,2.983487 0.1289063,0.0468 0.3820313,0.11767 0.5625,0.157492 l 0.328125,0.0724 -3.7734375,0.0027 L 0,16 Z M 0,0.67421366 V 0 L 1.2734375,0.00268456 2.546875,0.00536912 2.21875,0.07777135 C 1.4310952,0.25157083 0.75217391,0.60866331 0.2265625,1.1256028 L 0,1.3484273 Z M 15.765625,1.1215044 C 15.184916,0.54044859 14.276867,0.11148778 13.4375,0.021702 13.377344,0.01526717 13.929297,0.0077518 14.664063,0.00500116 L 16,0 v 0.671875 c 0,0.3695313 -0.0035,0.6711178 -0.0078,0.6701924 -0.0043,-9.253e-4 -0.10625,-0.1001788 -0.226563,-0.220563 z"
       id="path825"
       inkscape:connector-curvature="0" />
    <path
       style="fill:#fefe7f;stroke-width:0.000357143"
       d="M 7.6875,15.480426 C 6.097335,15.27939 4.9022178,14.194707 4.5757872,12.65625 c -0.075729,-0.35691 -0.075729,-0.95559 0,-1.3125 C 4.8761025,9.9283744 5.9283744,8.8761025 7.34375,8.5757872 c 0.35691,-0.075729 0.95559,-0.075729 1.3125,0 1.415376,0.3003153 2.467648,1.3525872 2.767963,2.7679628 0.07573,0.35691 0.07573,0.95559 0,1.3125 -0.296478,1.39729 -1.335394,2.451424 -2.7134536,2.753199 -0.2724538,0.05966 -0.8150503,0.0973 -1.0232594,0.07098 z m 0.9116319,-0.575243 c 0.3610453,-0.07674 0.6901815,-0.21768 1.031085,-0.441529 0.3840521,-0.252182 0.5581481,-0.423537 0.8042821,-0.791624 0.723623,-1.082155 0.723623,-2.261905 0,-3.34406 -0.246134,-0.3680866 -0.42023,-0.5394422 -0.8042821,-0.7916244 -1.038961,-0.6822181 -2.2214728,-0.6822181 -3.2604338,0 C 5.9857309,9.7885278 5.811635,9.9598834 5.5655009,10.32797 c -0.5930131,0.886833 -0.7008222,1.850989 -0.3115337,2.786103 0.1284884,0.308642 0.4739994,0.827534 0.6782228,1.018561 0.3592934,0.336077 0.9464484,0.654733 1.4012816,0.760493 0.4938406,0.11483 0.76975,0.117458 1.2656603,0.01206 z M 2.6875,7.4804259 C 1.6316299,7.3469378 0.70939806,6.8078628 0.15868149,6.0022481 L 0,5.7701212 0.00396265,4.9241231 C 0.00662096,4.3565953 0.01604342,4.1398428 0.03258827,4.265625 0.10124057,4.7875534 0.25305203,5.1987847 0.53634563,5.6302169 0.78852781,6.0142691 0.95988347,6.188365 1.3279697,6.4344991 2.393029,7.1466897 3.5741306,7.1571178 4.6302169,6.4636544 5.0142691,6.2114722 5.188365,6.0401166 5.4344991,5.6720303 c 0.7236228,-1.0821556 0.7236228,-2.261905 0,-3.3440606 C 5.188365,1.9598835 5.0142691,1.7885278 4.6302169,1.5363456 3.5912559,0.8541275 2.408744,0.8541275 1.369783,1.5363456 0.98573078,1.7885278 0.81163512,1.9598835 0.56550091,2.3279697 0.25763953,2.7883669 0.10352295,3.1950947 0.03258827,3.734375 0.01604342,3.8601572 0.00662096,3.6434047 0.00396265,3.0758769 L 0,2.2298789 0.15868149,1.9977519 C 0.54728913,1.4292779 1.1703513,0.95772072 1.859375,0.71060234 c 0.7228203,-0.25923953 1.5584297,-0.25923953 2.28125,0 1.0080575,0.36153986 1.7872328,1.14071516 2.1487728,2.14877266 0.2592394,0.7228203 0.2592394,1.5584297 0,2.28125 C 5.7999034,6.5054491 4.5525072,7.4260128 3.1170093,7.4818103 2.9409355,7.4886541 2.7476563,7.4880312 2.6875,7.4804259 Z m 10,0 C 11.097335,7.2793897 9.9022178,6.1947069 9.5757872,4.65625 c -0.075729,-0.35691 -0.075729,-0.95559 0,-1.3125 0.2625009,-1.2371581 1.1072968,-2.2112708 2.2835878,-2.63314766 0.72282,-0.25923953 1.55843,-0.25923953 2.28125,0 0.689024,0.24711838 1.312086,0.71867556 1.700693,1.28714956 L 16,2.2298789 15.996,3.0758769 C 15.9933,3.6434047 15.98392,3.8601572 15.96737,3.734375 15.896477,3.1950947 15.74236,2.7883669 15.434499,2.3279697 15.188365,1.9598835 15.014269,1.7885278 14.630217,1.5363456 c -1.038961,-0.6822181 -2.221473,-0.6822181 -3.260434,0 -0.384052,0.2521822 -0.558148,0.4235379 -0.804282,0.7916241 -0.7121907,1.0650594 -0.7226188,2.2461609 -0.02915,3.3022472 0.252182,0.3840522 0.423537,0.5581481 0.791624,0.8042822 1.065059,0.7121906 2.246161,0.7226187 3.302247,0.029155 0.384052,-0.2521822 0.558148,-0.4235378 0.804282,-0.7916241 0.307861,-0.4603972 0.461978,-0.867125 0.532913,-1.4064053 0.01655,-0.1257822 0.02597,0.09097 0.02863,0.6584981 L 16,5.7701213 15.841318,6.0022481 c -0.477349,0.69829 -1.26304,1.2172269 -2.130559,1.4072006 -0.272453,0.059663 -0.81505,0.0973 -1.023259,0.070977 z"
       id="path823"
       inkscape:connector-curvature="0" />
    <path
       style="fill:#7fbffe;stroke-width:0.000357143"
       d="M 7.734375,14.968215 C 7.2063481,14.896499 6.8003537,14.746382 6.3697831,14.463654 5.9857309,14.211472 5.811635,14.040117 5.5655009,13.67203 c -0.7236228,-1.082155 -0.7236228,-2.261905 0,-3.34406 0.2461341,-0.3680866 0.42023,-0.5394422 0.8042822,-0.7916244 1.038961,-0.6822181 2.2214728,-0.6822181 3.2604338,0 0.3840521,0.2521822 0.5581481,0.4235378 0.8042821,0.7916244 0.593013,0.886832 0.700822,1.850989 0.311534,2.786102 -0.128489,0.308643 -0.474,0.827535 -0.678223,1.018562 -0.2189469,0.204799 -0.6737491,0.496839 -0.9580759,0.615205 -0.4244319,0.176691 -1.0082438,0.270236 -1.3753591,0.220376 z m -5,-8.0000003 C 2.206348,6.8964994 1.8003537,6.7463822 1.369783,6.4636544 0.98573078,6.2114722 0.81163512,6.0401166 0.56550091,5.6720303 c -0.72362268,-1.0821556 -0.72362268,-2.261905 0,-3.3440606 C 0.81163512,1.9598835 0.98573078,1.7885278 1.369783,1.5363456 c 1.038961,-0.6822181 2.2214729,-0.6822181 3.2604339,0 C 5.0142691,1.7885278 5.188365,1.9598835 5.4344991,2.3279697 6.0275122,3.2148025 6.1353213,4.1789594 5.7460328,5.1140725 5.6175444,5.4227153 5.2720334,5.9416069 5.06781,6.1326341 4.8488631,6.3374331 4.3940609,6.6294731 4.1097341,6.7478387 3.6853022,6.92453 3.1014902,7.0180753 2.734375,6.9682147 Z m 10,0 C 12.206348,6.8964994 11.800354,6.7463822 11.369783,6.4636544 10.985731,6.2114722 10.811635,6.0401166 10.565501,5.6720303 c -0.7236229,-1.0821556 -0.7236229,-2.261905 0,-3.3440606 0.246134,-0.3680862 0.42023,-0.5394419 0.804282,-0.7916241 1.038961,-0.6822181 2.221473,-0.6822181 3.260434,0 0.384052,0.2521822 0.558148,0.4235379 0.804282,0.7916241 0.723623,1.0821556 0.723623,2.261905 0,3.3440606 -0.115491,0.1727134 -0.280501,0.379985 -0.366689,0.4606038 -0.218947,0.204799 -0.673749,0.496839 -0.958076,0.6152047 C 13.685302,6.92453 13.10149,7.0180753 12.734375,6.9682147 Z"
       id="path821"
       inkscape:connector-curvature="0" />
    <path
       style="fill:#191919;stroke-width:0.000357143"
       d="M 7.21875,15.924439 C 7.0382812,15.883402 6.7851562,15.811536 6.65625,15.764737 5.3367741,15.285706 4.3753741,14.17448 4.0750253,12.78125 c -0.080069,-0.371415 -0.080069,-1.191085 0,-1.5625 C 4.2449494,10.430523 4.6221625,9.7314091 5.1767856,9.1767856 5.7549544,8.5986172 6.4457912,8.2354441 7.2975059,8.0619231 7.5976872,8.0007669 7.6992841,7.9943703 8.109375,8.0108084 c 1.19998,0.0481 2.083033,0.4704078 2.953125,1.4122903 0.36988,0.4003982 0.717883,1.1249323 0.862475,1.7956513 0.08007,0.371415 0.08007,1.191085 0,1.5625 -0.144592,0.670719 -0.492595,1.395253 -0.862475,1.795651 -0.558942,0.605059 -1.054554,0.94746 -1.71875,1.187423 -0.4261569,0.153963 -0.7272216,0.205848 -1.28125,0.220806 -0.4617628,0.01247 -0.5499009,0.0061 -0.84375,-0.06069 z m 1.4920094,-0.51499 c 1.3780596,-0.301775 2.4169756,-1.355909 2.7134536,-2.753199 0.07573,-0.35691 0.07573,-0.95559 0,-1.3125 C 11.123898,9.9283744 10.071626,8.8761025 8.65625,8.5757872 c -0.35691,-0.075729 -0.95559,-0.075729 -1.3125,0 -1.4153756,0.3003153 -2.4676475,1.3525872 -2.7679628,2.7679628 -0.075729,0.35691 -0.075729,0.95559 0,1.3125 0.3264306,1.538457 1.5215478,2.62314 3.1117128,2.824176 0.2082091,0.02632 0.7508056,-0.01131 1.0232594,-0.07098 z M 2.21875,7.9244387 C 1.4211104,7.7430637 0.750299,7.3894928 0.2265625,6.8743972 L 0,6.6515728 V 6.2108469 5.7701212 L 0.15868149,6.0022481 C 0.54728913,6.5707222 1.1703513,7.0422794 1.859375,7.2893978 2.7257659,7.6001287 3.7107144,7.53685 4.546875,7.1167372 5.5127119,6.6314709 6.1947872,5.7375259 6.4242128,4.65625 c 0.075729,-0.35691 0.075729,-0.95559 0,-1.3125 C 6.1617119,2.1065919 5.3169162,1.1324792 4.140625,0.71060234 c -0.7228203,-0.25923953 -1.5584297,-0.25923953 -2.28125,0 C 1.1703513,0.95772072 0.54728913,1.4292779 0.15868149,1.9977519 L 0,2.2298789 V 1.7891531 1.3484273 L 0.2265625,1.1256028 C 0.76897075,0.59214356 1.475061,0.22948094 2.297506,0.06192312 2.5976872,7.6679063e-4 2.6992842,-0.00562967 3.109375,0.01080852 4.309355,0.05890884 5.1924075,0.48121625 6.0625,1.4230987 6.4323797,1.8234968 6.7803828,2.5480306 6.9249747,3.21875 c 0.080069,0.371415 0.080069,1.191085 0,1.5625 C 6.7803828,5.4519694 6.4323797,6.1765031 6.0625,6.5769012 5.5035584,7.1819603 5.0079462,7.5243609 4.34375,7.7643241 3.9175931,7.9182872 3.6165284,7.9701716 3.0625,7.9851297 2.6007371,7.9975966 2.5125991,7.9912569 2.21875,7.9244387 Z m 10,0 C 12.038281,7.8834019 11.785156,7.8115363 11.65625,7.7647372 10.336774,7.2857059 9.3753741,6.1744797 9.0750253,4.78125 c -0.080069,-0.371415 -0.080069,-1.191085 0,-1.5625 0.1699241,-0.7882273 0.5471372,-1.487341 1.1017607,-2.0419643 0.578168,-0.57816861 1.269005,-0.94134162 2.12072,-1.11486258 0.300181,-0.0611563294 0.401778,-0.06755279 0.811869,-0.0511146 0.501244,0.02009199 0.836746,0.08121079 1.234375,0.22486748 0.527297,0.19050378 1.048235,0.51476772 1.429687,0.8899268 L 16,1.3484273 v 0.4407258 0.4407258 l -0.158682,-0.232127 c -0.388607,-0.568474 -1.011669,-1.04003118 -1.700693,-1.28714956 -0.72282,-0.25923953 -1.55843,-0.25923953 -2.28125,0 C 10.683084,1.1324792 9.8382881,2.1065919 9.5757872,3.34375 c -0.075729,0.35691 -0.075729,0.95559 0,1.3125 0.2625009,1.2371581 1.1072968,2.2112709 2.2835878,2.6331478 0.866198,0.3106619 1.848761,0.2476519 2.6875,-0.172345 C 15.050437,6.8648953 15.5396,6.4436166 15.841318,6.0022481 L 16,5.7701212 v 0.4407257 0.4407259 l -0.226562,0.2228244 c -0.381453,0.375159 -0.90239,0.6994231 -1.429688,0.8899269 -0.426157,0.1539631 -0.727222,0.2058475 -1.28125,0.2208056 -0.461763,0.012467 -0.549901,0.00613 -0.84375,-0.060691 z"
       id="path819"
       inkscape:connector-curvature="0" />
  </g>
</svg>
