<?xml version="1.0" encoding="UTF-8" standalone="no"?>
<!-- Created with Inkscape (http://www.inkscape.org/) -->

<svg
   version="1.1"
   id="svg2"
   width="1600"
   height="1600"
   viewBox="0 0 1600 1600"
   sodipodi:docname="node_getgeometrycomponent.svg"
   inkscape:version="1.4.3 (0d15f75, 2025-12-25)"
   xml:space="preserve"
   xmlns:inkscape="http://www.inkscape.org/namespaces/inkscape"
   xmlns:sodipodi="http://sodipodi.sourceforge.net/DTD/sodipodi-0.dtd"
   xmlns="http://www.w3.org/2000/svg"
   xmlns:svg="http://www.w3.org/2000/svg"
   xmlns:rdf="http://www.w3.org/1999/02/22-rdf-syntax-ns#"
   xmlns:cc="http://creativecommons.org/ns#"
   xmlns:dc="http://purl.org/dc/elements/1.1/"><metadata
     id="metadata8"><rdf:RDF><cc:Work
         rdf:about=""><dc:format>image/svg+xml</dc:format><dc:type
           rdf:resource="http://purl.org/dc/dcmitype/StillImage" /></cc:Work></rdf:RDF></metadata><defs
     id="defs6" /><sodipodi:namedview
     pagecolor="#808080"
     bordercolor="#666666"
     borderopacity="1"
     objecttolerance="10"
     gridtolerance="10"
     guidetolerance="10"
     inkscape:pageopacity="0"
     inkscape:pageshadow="2"
     inkscape:window-width="2560"
     inkscape:window-height="1009"
     id="namedview4"
     showgrid="true"
     inkscape:zoom="0.3535534"
     inkscape:cx="991.36368"
     inkscape:cy="780.64587"
     inkscape:window-x="1912"
     inkscape:window-y="-8"
     inkscape:window-maximized="1"
     inkscape:current-layer="geometry_set"
     inkscape:showpageshadow="0"
     inkscape:pagecheckerboard="true"
     inkscape:deskcolor="#d1d1d1"><inkscape:grid
       id="grid1"
       units="px"
       originx="0"
       originy="0"
       spacingx="100"
       spacingy="100"
       empcolor="#0099e5"
       empopacity="0.30196078"
       color="#0099e5"
       opacity="0.14901961"
       empspacing="5"
       enabled="true"
       visible="true" /></sodipodi:namedview><g
     id="FIELD_AT_INDEX"
     transform="matrix(100,0,0,100,0,4.9999997e-5)"
     style="stroke-width:0.0114286"
     inkscape:label="Get"><g
       id="geometry_set"
       transform="translate(-3.1591566e-4,0.52303362)"><path
         id="path303"
         style="fill:#ffffff;fill-opacity:0;stroke-width:0.03125"
         d="M 3.41566e-06 -6.77625e-06 L 3.41566e-06 7.9999932 L 3.41566e-06 15.999993 L 8.0000034 15.999993 L 16.000003 15.999993 L 16.000003 7.9999932 L 16.000003 -6.77625e-06 L 13.608343 -6.77625e-06 C 13.705077 0.30050613 13.72069 0.63157889 13.627269 0.96524713 C 13.565478 1.1859671 13.440552 1.4160652 13.312816 1.5687628 C 13.18508 1.7214604 13.080132 1.811118 12.943675 1.9535284 C 12.810921 2.0920738 12.641604 2.2650372 12.421273 2.4875128 C 13.616814 4.7644004 15.495986 8.3783829 15.642718 8.6988799 C 15.778181 8.9947693 15.724924 9.2430064 15.488011 9.4199542 C 15.404126 9.4826072 15.3563 9.4848268 13.75555 9.5006768 C 12.850152 9.5096408 12.133492 9.5201843 12.162972 9.5241143 C 12.256374 9.5365518 12.435466 9.7202012 12.469886 9.8388409 C 12.492406 9.9165491 12.500014 10.790102 12.493714 12.56804 C 12.484484 15.153005 12.483635 15.183932 12.419945 15.269232 C 12.384508 15.316689 12.316682 15.384495 12.269222 15.419935 L 12.269222 15.419954 C 12.18319 15.484154 12.170374 15.484346 8.0367808 15.491146 C 4.6289786 15.496706 3.8739334 15.490467 3.7968784 15.456067 C 3.6818653 15.404726 3.5776497 15.294639 3.5333237 15.177649 C 3.5105157 15.117454 3.4996104 14.056736 3.4987729 11.818274 C 3.4977429 9.0652896 3.4909463 8.5617252 3.4558823 8.6406182 C 3.3368483 8.9084388 3.0219769 9.0099327 2.7263706 8.8757549 C 2.2484704 8.6588324 1.4821641 7.906035 1.1144565 7.2922588 C 0.38339947 6.0719806 0.29600004 4.4432638 0.89146826 3.1365948 C 1.232986 2.3871835 1.800465 1.7340925 2.491937 1.2686456 C 2.4431575 1.1718926 2.4017885 1.0687272 2.3733628 0.96720026 C 2.2796729 0.63257306 2.2949406 0.30086029 2.3915073 -6.77625e-06 L 3.41566e-06 -6.77625e-06 z M 6.0256089 -6.77625e-06 C 6.2541897 0.22688722 6.5363061 0.50898198 6.8906479 0.86337213 C 7.3788845 1.0728222 7.8341922 1.3731525 8.2279331 1.7439581 L 8.9612534 1.0121221 C 9.3824944 0.59164675 9.7146937 0.2612843 9.9799058 -6.77625e-06 L 8.0000034 -6.77625e-06 L 6.0256089 -6.77625e-06 z " /><path
         id="path301"
         style="fill:#cbfefe;stroke-width:0.03125"
         d="M 12.038558 2.8724346 C 11.804336 3.1073156 11.528236 3.3832437 11.201488 3.7093878 C 10.071002 4.837784 9.5440503 5.3727069 9.1468003 5.7093878 C 8.9744123 5.8554922 8.6955387 6.0848784 8.3089097 6.1722784 C 8.0764259 6.2248336 7.8717467 6.2089542 7.7193394 6.1807745 C 7.0294151 7.281939 6.4008485 8.2896931 6.0357847 8.8828057 L 5.9636558 8.9999932 L 10.591996 8.9999932 L 15.220355 8.9999932 L 15.169281 8.8984307 C 15.141193 8.8425713 14.203668 7.0349002 13.085882 4.8813799 C 12.67957 4.098581 12.329409 3.4269655 12.038558 2.8724346 z " /><path
         style="fill:#00cbfe;stroke-width:0.03125"
         d="M 4,11 V 7 H 5.0010994 C 5.9646437,7 6.0010409,7.00216 5.9713284,7.057682 5.9543497,7.0894075 5.7476669,7.42334 5.5120334,7.7997544 5.0162716,8.5917128 4.9558053,8.7325144 4.9764644,9.046875 5.0014681,9.4273462 5.2083953,9.7393709 5.546875,9.9069956 L 5.703125,9.984375 8.8515625,9.99277 12,10.001165 V 12.500583 15 H 8 4 Z"
         id="path299" /><path
         id="path297"
         style="fill:#0098fe;stroke-width:0.03125"
         d="M 2.7918198 1.6886065 C 2.2905399 2.0202316 1.8698058 2.4583709 1.5536753 2.9861651 C 0.90724044 4.065417 0.82730068 5.4583005 1.3455112 6.613294 C 1.6405647 7.2709127 2.1507508 7.8779513 2.7520933 8.2868878 L 2.9843784 8.444837 L 2.9925425 7.2224151 L 3.0007261 5.9999932 L 4.8206675 5.9993878 L 6.6406284 5.9987823 L 6.8288315 5.6971221 C 6.8248242 5.6934346 6.8207866 5.6897079 6.8167222 5.6859503 C 6.7022252 5.5800914 6.550872 5.437842 6.361644 5.2543096 C 5.9854324 4.8894213 5.4583284 4.367467 4.799144 3.7093878 C 3.8953093 2.8070687 3.3777143 2.2878501 3.0628159 1.9593878 C 2.9630291 1.8553031 2.881633 1.7828563 2.7918198 1.6886065 z " /><path
         id="path295"
         style="fill:#0065cb;stroke-width:0.03125"
         d="m 2.4896714,1.2640948 c -0.00493,0.00326 -0.00985,0.00654 -0.014766,0.00982 -0.4861441,0.3248873 -1.055749,0.9252235 -1.3604493,1.4338281 -0.82071888,1.3699413 -0.82071888,3.2145704 0,4.5845117 0.3677076,0.6137762 1.1340139,1.3665736 1.6119141,1.5834961 0.2956063,0.1341778 0.6104777,0.032684 0.7295117,-0.2351367 0.035064,-0.078893 0.041863,0.4246714 0.042891,3.1776558 8.369e-4,2.238462 0.011744,3.29918 0.034551,3.359375 0.044326,0.11699 0.1485416,0.227077 0.2635547,0.278418 0.077055,0.0344 0.8320806,0.04068 4.2398828,0.03508 4.1335938,-0.0068 4.1464308,-0.007 4.2324608,-0.07121 0.04746,-0.03544 0.115283,-0.103243 0.150723,-0.150703 0.06369,-0.0853 0.06457,-0.116227 0.07377,-2.701192 0.0063,-1.777938 -0.0013,-2.6514911 -0.02383,-2.7291991 -0.03442,-0.1186397 -0.213514,-0.3022886 -0.306914,-0.3147266 -0.02948,-0.00393 0.68718,-0.014478 1.592578,-0.023437 1.60075,-0.01585 1.648562,-0.018089 1.732442,-0.080742 0.236917,-0.1769478 0.29017,-0.4251653 0.154707,-0.7210547 -0.146728,-0.3204968 -2.025885,-3.9344796 -3.221426,-6.2113671 -0.1134,0.114504 -0.240324,0.2421303 -0.382715,0.3849218 0.290852,0.5545308 0.641012,1.2261466 1.047324,2.0089453 1.117786,2.1535203 2.055311,3.9611914 2.083399,4.0170508 l 0.05107,0.1015625 H 10.591996 5.9636558 L 6.0357847,8.8828057 C 6.4008485,8.2896931 7.0294152,7.2819389 7.7193394,6.1807745 7.7146416,6.1799059 7.7099917,6.1790281 7.705394,6.1781378 7.551636,6.1483628 7.4039059,6.0903329 7.4378159,6.1019659 7.3314199,6.0654653 7.2424424,6.0356139 7.1175034,5.9457159 7.0989634,5.9323719 7.0906415,5.9225054 7.0725815,5.9066534 7.0348165,5.8782514 7.0017734,5.8497554 6.9768784,5.8285284 6.9271472,5.7861255 6.8801926,5.7443852 6.8288315,5.6971221 L 6.6406284,5.9987823 4.8206675,5.9993878 3.0007261,5.9999932 2.9925425,7.2224151 2.9843784,8.444837 2.7520933,8.2868878 C 1.4864943,7.4262303 0.82177052,5.9193398 1.0473862,4.4224151 1.2204669,3.2740518 1.8578393,2.3049426 2.7918979,1.6886846 2.7617457,1.6570457 2.7306396,1.6229601 2.6975815,1.5843878 2.6237867,1.4982834 2.5507958,1.3861639 2.4896714,1.2640948 Z m 1.510332,5.7358984 h 1.0010938 c 0.9635443,0 0.9999468,0.00218 0.9702343,0.057695 C 5.9543528,7.0894138 5.7476682,7.4233444 5.5120347,7.7997588 5.0162729,8.5917172 4.9558092,8.7325076 4.9764683,9.0468682 5.001472,9.4273394 5.2083987,9.7393802 5.5468784,9.9070049 l 0.15625,0.077363 3.1484375,0.0084 3.1484371,0.0084 v 2.499414 2.499414 h -3.9999996 -4 v -4 z"
         sodipodi:nodetypes="csssssssccscccsccsccsccccscscccscccccccscsccsssscccccccccc" /></g><path
       style="baseline-shift:baseline;display:inline;overflow:visible;vector-effect:none;fill:#333333;stroke-width:0.00999998;enable-background:accumulate;stop-color:#000000"
       d="m 4.3200042,0.0607557 c -0.733146,-0.2052684 -1.429596,0.4944212 -1.224609,1.2265625 0.08488,0.3031634 0.203925,0.3588047 0.507813,0.6757813 0.303887,0.3169766 0.821356,0.8365429 1.724609,1.7382812 0.6574725,0.6563702 1.1847225,1.1763854 1.5566406,1.5371094 0.1859591,0.180362 0.3330966,0.3197841 0.4414063,0.4199219 0.054155,0.050069 0.097666,0.089749 0.1367187,0.1230468 0.019526,0.016649 0.037458,0.031463 0.060547,0.048828 0.023089,0.017365 0.00801,0.034411 0.1582031,0.085937 0.049482,0.016976 0.241345,0.096516 0.4609375,0.046875 0.2195925,-0.04964 0.3485883,-0.1578545 0.5195312,-0.3027337 0.3418858,-0.2897584 0.8785848,-0.8298952 2.0097654,-1.9589844 0.910728,-0.9090444 1.428175,-1.4286592 1.730469,-1.7441406 0.302293,-0.3154814 0.422196,-0.3869803 0.501953,-0.671875 0.209061,-0.7466948 -0.504058,-1.4534307 -1.248047,-1.21875 -0.210385,0.066364 -0.225209,0.1190939 -0.3125,0.1933594 -0.08729,0.074266 -0.19548,0.1746705 -0.345703,0.3183593 -0.300445,0.2873777 -0.766938,0.7487535 -1.5078124,1.4882813 L 7.9996922,3.5548963 6.5114109,2.0666151 C 5.7030802,1.2581972 5.240623,0.7976258 4.9547702,0.5255995 4.6689172,0.2535731 4.5851842,0.1350019 4.3200042,0.0607557 Z"
       id="path2-9"
       sodipodi:nodetypes="ssssssssssssscssscccss" /><path
       style="fill:#fefefe;stroke-width:0.0003125"
       d="M 7.8434422,5.443581 C 7.7839132,5.423159 6.9949438,4.6579363 5.6820166,3.3472104 3.8762912,1.544513 3.6097052,1.2664445 3.5777482,1.1523076 3.4778882,0.7956391 3.8290392,0.442901 4.1848042,0.5425091 c 0.116621,0.032652 0.357971,0.262328 1.9737796,1.8783104 L 7.9994953,4.2619292 9.8433438,2.4214309 C 11.323804,0.9436605 11.710817,0.5734805 11.807064,0.5431205 12.155745,0.4331341 12.521847,0.7943881 12.42224,1.1501496 12.389486,1.2671342 12.138082,1.5295063 10.317368,3.3468548 8.0544147,5.6056245 8.1297266,5.5417951 7.8434422,5.443581 Z"
       id="path821-4"
       inkscape:connector-curvature="0"
       sodipodi:nodetypes="ssssscsssss" /></g></svg>
