<?xml version="1.0" encoding="UTF-8" standalone="no"?>
<!-- Created with Inkscape (http://www.inkscape.org/) -->

<svg
   version="1.1"
   id="svg2"
   width="1600"
   height="1600"
   viewBox="0 0 1600 1600"
   sodipodi:docname="node_advectgrid.svg"
   inkscape:version="1.4 (86a8ad7, 2024-10-11)"
   inkscape:export-filename="VOLUME_CUBE.png"
   inkscape:export-xdpi="3072"
   inkscape:export-ydpi="3072"
   xml:space="preserve"
   xmlns:inkscape="http://www.inkscape.org/namespaces/inkscape"
   xmlns:sodipodi="http://sodipodi.sourceforge.net/DTD/sodipodi-0.dtd"
   xmlns="http://www.w3.org/2000/svg"
   xmlns:svg="http://www.w3.org/2000/svg"
   xmlns:rdf="http://www.w3.org/1999/02/22-rdf-syntax-ns#"
   xmlns:cc="http://creativecommons.org/ns#"
   xmlns:dc="http://purl.org/dc/elements/1.1/"><metadata
     id="metadata8"><rdf:RDF><cc:Work
         rdf:about=""><dc:format>image/svg+xml</dc:format><dc:type
           rdf:resource="http://purl.org/dc/dcmitype/StillImage" /></cc:Work></rdf:RDF></metadata><defs
     id="defs6" /><sodipodi:namedview
     pagecolor="#808080"
     bordercolor="#666666"
     borderopacity="1"
     objecttolerance="10"
     gridtolerance="10"
     guidetolerance="10"
     inkscape:pageopacity="0"
     inkscape:pageshadow="2"
     inkscape:window-width="2560"
     inkscape:window-height="1009"
     id="namedview4"
     showgrid="true"
     inkscape:zoom="0.23046875"
     inkscape:cx="1028.339"
     inkscape:cy="798.37289"
     inkscape:window-x="1912"
     inkscape:window-y="-8"
     inkscape:window-maximized="1"
     inkscape:current-layer="MESH_CUBE"
     inkscape:showpageshadow="0"
     inkscape:pagecheckerboard="1"
     inkscape:deskcolor="#d1d1d1"><inkscape:grid
       type="xygrid"
       id="grid10683"
       originx="0"
       originy="0"
       spacingy="100"
       spacingx="100"
       units="px" /></sodipodi:namedview><g
     id="MESH_CUBE"
     transform="matrix(100,0,0,100,0,4.9999997e-5)"
     style="display:inline;stroke-width:0.0114286;enable-background:new"
     inkscape:label="VOLUME_CUBE"><g
       id="g3"
       transform="translate(-2.2893192,-2.494953)"
       inkscape:label="Grid"
       style="display:inline;stroke-width:0.0114286;enable-background:new"><path
         id="rect1"
         style="baseline-shift:baseline;display:inline;overflow:visible;vector-effect:none;fill:#323232;stroke-linecap:round;stroke-linejoin:round;paint-order:markers stroke fill;enable-background:accumulate;stop-color:#000000;stop-opacity:1"
         d="M 4.0924079,2.4949525 H 14.48623 c 0.998911,0 1.803088,0.8041776 1.803088,1.8030887 V 14.691864 c 0,0.998911 -0.804177,1.803089 -1.803088,1.803089 H 4.0924079 c -0.9989111,0 -1.8030887,-0.804178 -1.8030887,-1.803089 V 4.2980412 c 0,-0.9989111 0.8041776,-1.8030887 1.8030887,-1.8030887 z" /><path
         id="path4"
         style="fill:#0065fe;stroke-width:0.0114285;stroke-linecap:round;stroke-linejoin:round;paint-order:markers stroke fill;fill-opacity:1"
         d="m 4.4964045,9.4949529 c -0.9598757,0 -1.7476347,0.7898521 -1.7476347,1.7497281 v 2.930166 c 0,0.959876 0.787759,1.749727 1.7476347,1.749728 h 3.0431868 c 0.9598758,0 1.7497278,-0.789852 1.7497278,-1.749728 v -2.930166 c 0,-0.959876 -0.789852,-1.7497281 -1.7497278,-1.7497281 z m 0,1.0716041 h 3.0431868 c 0.3847455,0 0.6781242,0.293379 0.6781242,0.678124 v 2.930166 c 0,0.384745 -0.2933787,0.678125 -0.6781242,0.678125 H 4.4964045 c -0.3847453,0 -0.6760311,-0.29338 -0.6760311,-0.678125 v -2.930166 c 0,-0.384745 0.2912858,-0.678125 0.6760311,-0.678124 z M 11.031608,9.4949529 c -0.959876,0 -1.749727,0.7898521 -1.749727,1.7497281 v 2.930166 c 0,0.959876 0.789851,1.749727 1.749727,1.749728 h 3.043186 c 0.959876,0 1.749729,-0.789852 1.749729,-1.749728 v -2.930166 c 0,-0.959876 -0.789853,-1.7497281 -1.749729,-1.7497281 z m 0,1.0716041 h 3.043186 c 0.384746,0 0.678125,0.293379 0.678125,0.678124 v 2.930166 c 0,0.384745 -0.293379,0.678125 -0.678125,0.678125 h -3.043186 c -0.384745,0 -0.678124,-0.29338 -0.678124,-0.678125 v -2.930166 c 0,-0.384745 0.293379,-0.678125 0.678124,-0.678124 z m 0,-7.5012257 c -0.959876,0 -1.749727,0.789852 -1.749727,1.7497278 v 2.930166 c 0,0.9598758 0.789851,1.7497278 1.749727,1.7497278 h 3.043186 c 0.959876,0 1.749729,-0.789852 1.749729,-1.7497278 v -2.930166 c 0,-0.9598758 -0.789853,-1.7497278 -1.749729,-1.7497278 z m 0,1.0716036 h 3.043186 c 0.384746,0 0.678125,0.2933786 0.678125,0.6781242 v 2.930166 c 0,0.3847456 -0.293379,0.6781242 -0.678125,0.6781242 h -3.043186 c -0.384745,0 -0.678124,-0.2933786 -0.678124,-0.6781242 v -2.930166 c 0,-0.3847456 0.293379,-0.6781242 0.678124,-0.6781242 z M 4.4984975,3.0653313 c -0.9598757,0 -1.7497277,0.789852 -1.7497277,1.7497278 v 2.930166 c 0,0.9598758 0.789852,1.7497278 1.7497277,1.7497278 h 3.0431867 c 0.9598759,0 1.7476348,-0.789852 1.7476348,-1.7497278 v -2.930166 c 0,-0.9598758 -0.7877589,-1.7497278 -1.7476348,-1.7497278 z m 0,1.0716036 h 3.0431867 c 0.3847455,0 0.6760312,0.2933786 0.6760312,0.6781242 v 2.930166 c 0,0.3847456 -0.2912857,0.6781242 -0.6760312,0.6781242 H 4.4984975 c -0.3847454,0 -0.6781241,-0.2933786 -0.6781241,-0.6781242 v -2.930166 c 0,-0.3847456 0.2933787,-0.6781242 0.6781241,-0.6781242 z" /><g
         id="rect2-2-5-7"
         transform="matrix(1.0716036,0,0,1.0716036,-0.80928911,-0.4927275)"
         style="stroke-width:0.0106649" /><g
         id="rect2-2-5-7-2"
         transform="matrix(1.0716036,0,0,1.0716036,-0.64928906,-0.4927275)"
         style="stroke-width:0.0106649" /><path
         style="fill:#fecb32;stroke-width:0.0114285;stroke-linecap:round;stroke-linejoin:round;paint-order:markers stroke fill"
         d="m 11.031395,10.030418 h 3.042943 c 0.67231,0 1.213557,0.541247 1.213557,1.213557 v 2.930908 c 0,0.672311 -0.541247,1.213557 -1.213557,1.213557 h -3.042943 c -0.67231,0 -1.2135558,-0.541246 -1.2135558,-1.213557 v -2.930908 c 0,-0.67231 0.5412458,-1.213557 1.2135558,-1.213557 z"
         id="path7" /><path
         id="path11"
         style="display:inline;fill:#98cbfe;stroke-width:0.0114285;stroke-linecap:round;stroke-linejoin:round;paint-order:markers stroke fill;enable-background:new;fill-opacity:1"
         d="m 4.4977918,3.6007959 h 3.042942 c 0.6723106,0 1.2135571,0.5412465 1.2135571,1.2135571 v 2.9309079 c 0,0.6723106 -0.5412465,1.2135571 -1.2135571,1.2135571 h -3.042942 c -0.6723106,0 -1.213557,-0.5412465 -1.213557,-1.2135571 V 4.814353 c 0,-0.6723106 0.5412464,-1.2135571 1.213557,-1.2135571 z m 6.5336042,0 h 3.042942 c 0.672311,0 1.213557,0.5412465 1.213557,1.2135571 v 2.9309079 c 0,0.6723106 -0.541246,1.2135571 -1.213557,1.2135571 h -3.042942 c -0.672311,0 -1.2135568,-0.5412465 -1.2135568,-1.2135571 V 4.814353 c 0,-0.6723106 0.5412458,-1.2135571 1.2135568,-1.2135571 z M 4.4972464,10.030418 h 3.042942 c 0.6723106,0 1.213557,0.541247 1.213557,1.213557 v 2.930908 c 0,0.672311 -0.5412464,1.213557 -1.213557,1.213557 h -3.042942 c -0.6723106,0 -1.213557,-0.541246 -1.213557,-1.213557 v -2.930908 c 0,-0.67231 0.5412464,-1.213557 1.213557,-1.213557 z" /></g><g
       id="TIME"
       transform="matrix(0.8540479,0,0,0.8540479,3.0487801,3.1053758)"
       style="display:inline;stroke-width:0.0133817;enable-background:new"><path
         style="fill:none;stroke-width:0.000418176"
         d="M 0,8 V 0 h 8 8 v 8 8 H 8 0 Z m 9.109375,6.909049 c 0.7544931,-0.127973 1.314626,-0.308399 2,-0.644225 1.808321,-0.886059 3.180183,-2.581338 3.668712,-4.5336124 C 14.943943,9.0684081 14.98301,8.7383738 14.98301,8 14.98301,7.2616262 14.94394,6.9315919 14.778087,6.2687884 14.163732,3.8136863 12.186314,1.8362677 9.7312116,1.2219136 9.0684081,1.0560565 8.7383737,1.0169904 8,1.0169904 c -0.7383738,0 -1.0684081,0.039066 -1.7312116,0.2049232 C 3.8136863,1.8362677 1.8362677,3.8136863 1.2219136,6.2687884 1.0560565,6.9315919 1.0169904,7.2616262 1.0169904,8 c 0,0.7383738 0.039066,1.0684081 0.2049232,1.7312116 0.6143541,2.4551024 2.5917727,4.4325204 5.0468748,5.0468754 0.3333582,0.08342 0.8063922,0.166584 1.1530866,0.202729 0.3141512,0.03275 1.3246525,-0.01022 1.6875,-0.07177 z"
         id="path827"
         inkscape:connector-curvature="0" /><path
         style="fill:#fefefe;stroke-width:0.000418176"
         d="M 7.34375,13.964919 C 5.8109619,13.788519 4.3899206,13.027586 3.4116531,11.859375 2.8091364,11.139872 2.3502432,10.221702 2.1543655,9.34375 2.1217709,9.1976563 2.0947983,9.0605469 2.0944263,9.0390625 2.0938998,9.0086516 2.3048476,9 3.046875,9 H 4 V 8.5 8 H 3 2 L 2.0002563,7.8359375 C 2.0003969,7.7457031 2.0146549,7.5453125 2.0319399,7.390625 2.2677622,5.2801978 3.5212056,3.5014828 5.4107991,2.5958122 5.6231409,2.4940381 5.9304687,2.3664118 6.09375,2.3121984 6.3657,2.2219042 6.8668406,2.0960555 6.9609375,2.0944263 6.9913484,2.0938998 7,2.3048476 7,3.046875 V 4 H 7.5 8 V 3 2 l 0.1640625,2.563e-4 c 0.090234,1.406e-4 0.290625,0.014399 0.4453125,0.031684 1.626998,0.1818031 3.080453,0.9768048 4.083713,2.2336849 0.536849,0.6725622 0.969411,1.5697875 1.152546,2.390625 0.03259,0.1460938 0.05957,0.2832032 0.05994,0.3046875 5.25e-4,0.030411 -0.210421,0.039063 -0.952449,0.039063 H 12 v 0.5 0.5 h 1 1 l -2.5e-4,0.1640625 c -1.56e-4,0.090234 -0.0144,0.290625 -0.03168,0.4453125 -0.235822,2.1104273 -1.489265,3.8891423 -3.378859,4.7948133 -0.212342,0.101774 -0.519669,0.2294 -0.6829507,0.283613 -0.27195,0.09029 -0.7730907,0.216143 -0.8671875,0.217773 C 9.0086516,13.9061 9,13.695153 9,12.953125 V 12 H 8.5 8 v 1 1 L 7.7890625,13.9959 C 7.6730469,13.993717 7.4726562,13.979754 7.34375,13.964919 Z M 8.390625,8.6588034 C 8.5733384,8.557655 8.73147,8.3262441 8.7634072,8.1132719 8.7826991,7.9846238 8.8484591,7.9132263 10.079597,6.6842416 10.915455,5.8498444 11.397581,5.3455222 11.43774,5.2635712 11.51893,5.0978862 11.516365,4.9782775 11.428039,4.8112506 11.347356,4.6586766 11.147701,4.53125 10.989326,4.53125 10.78436,4.53125 10.647673,4.6489088 9.3921203,5.9061078 8.7054425,6.5936859 8.134615,7.15625 8.1236144,7.15625 8.1039841,7.15625 6.5895562,6.1628419 6.375,6.0092241 6.1240944,5.8295809 5.4741784,5.4095116 5.34375,5.3426819 5.0100003,5.1716725 4.5834484,5.2955512 4.3862622,5.6207547 4.2213366,5.8927534 4.2218994,6.1367859 4.3881059,6.4203978 4.4514444,6.5284766 4.5497847,6.6142797 4.8099672,6.7884772 6.6088956,7.9928953 7.5647594,8.625725 7.6562487,8.6728581 7.9073994,8.8022453 8.1395375,8.7978028 8.3906238,8.6588034 Z"
         id="path825-6"
         inkscape:connector-curvature="0" /><path
         style="fill:#989898;stroke-width:0.000418176"
         d="M 8,13 V 12 H 8.5 9 v 1 1 H 8.5 8 Z M 2,8.5 V 8 H 3 4 V 8.5 9 H 3 2 Z m 10,-1 V 7 h 1 1 V 7.5 8 H 13 12 Z M 7,3 V 2 H 7.5 8 V 3 4 H 7.5 7 Z"
         id="path823-14"
         inkscape:connector-curvature="0" /><path
         style="fill:#fe0000;stroke-width:0.000418176"
         d="M 7.859375,8.7531922 C 7.6794297,8.7071522 7.7349547,8.7421309 5.9196731,7.53125 4.4290391,6.536925 4.4766194,6.5714322 4.3881981,6.4205528 4.2218956,6.1367791 4.221305,5.8928056 4.3862638,5.6207547 4.5229109,5.3953938 4.7481828,5.2693169 5.0128463,5.2700794 5.28602,5.2708669 5.1453366,5.1884213 7.1115784,6.5 8.6022125,7.494325 8.5546322,7.4598178 8.6430534,7.6106972 8.8093559,7.8944709 8.8099466,8.1384444 8.6449909,8.4104953 8.4885894,8.6684356 8.133505,8.8233294 7.8593781,8.7531922 Z"
         id="path821-2"
         inkscape:connector-curvature="0" /><path
         style="fill:#323232;stroke-width:0.000418176"
         d="M 7.421875,14.980816 C 7.0751806,14.944671 6.6021466,14.861504 6.2687884,14.778087 3.8136863,14.163732 1.8362677,12.186314 1.2219136,9.7312116 1.0560565,9.0684081 1.0169904,8.7383737 1.0169904,8 c 0,-0.7383738 0.039066,-1.0684081 0.2049232,-1.7312116 C 1.8362677,3.8136863 3.8136863,1.8362677 6.2687884,1.2219136 6.9315919,1.0560565 7.2616262,1.0169904 8,1.0169904 c 0.7383738,0 1.0684081,0.039066 1.7312116,0.2049232 C 12.186314,1.8362677 14.163732,3.8136863 14.778087,6.2687884 14.943943,6.9315919 14.98301,7.2616263 14.98301,8 c 0,0.7383738 -0.03907,1.0684081 -0.204923,1.7312116 -0.488529,1.9522744 -1.860391,3.6475534 -3.668712,4.5336124 -0.997415,0.488723 -1.8652369,0.698733 -2.96875,0.718428 -0.3265625,0.0058 -0.65,0.0047 -0.71875,-0.0024 z M 9,13.957402 c 0,-0.0285 0.088304,-0.06014 0.2668334,-0.09559 0.3955097,-0.07855 0.8873036,-0.248663 1.3223676,-0.457418 C 12.47971,12.49728 13.73224,10.719785 13.96806,8.609376 13.98535,8.4546885 13.9996,8.0292979 13.99974,7.6640635 13.999963,7.1241219 13.992038,7 13.957402,7 13.9289,7 13.897266,6.9116962 13.861811,6.7331666 13.699813,5.9174594 13.244827,4.9568409 12.693088,4.265625 11.824399,3.177335 10.552245,2.3955556 9.2149703,2.1282099 8.7121622,2.0276893 8.3830159,2.000534 7.6640625,2.0002564 7.1241219,2.0000479 7,2.0079622 7,2.0425985 7,2.0710998 6.9116963,2.1027339 6.7331666,2.1381895 6.3376569,2.2167369 5.8458628,2.3868523 5.4107991,2.595607 3.52029,3.5027213 2.2677602,5.2802159 2.0319401,7.390625 2.0146551,7.5453125 2.0003974,7.9707031 2.0002564,8.3359375 2.000047,8.8758781 2.0079622,9 2.0425985,9 c 0.028501,0 0.060135,0.088304 0.095591,0.2668334 0.1733478,0.8728586 0.6556889,1.8548176 1.2734636,2.5925416 0.9782675,1.168211 2.3993088,1.929144 3.9320969,2.105544 0.1289062,0.01483 0.5542969,0.0288 0.9453125,0.03103 C 8.8704359,13.999261 9,13.992237 9,13.957402 Z M 8.7711237,7.9482072 C 8.7595056,7.9365891 8.7498681,7.8977866 8.7497069,7.8619791 8.7490506,7.7163453 8.5716347,7.48164 8.34531,7.3269991 L 8.1239659,7.1757616 9.3822956,5.9158769 C 10.647717,4.6488912 10.784254,4.53125 10.989326,4.53125 c 0.158375,0 0.35803,0.1274266 0.438713,0.2800006 0.08833,0.1670269 0.09089,0.2866356 0.0097,0.4523206 -0.06954,0.141906 -2.6307884,2.7204638 -2.6666153,2.684636 z"
         id="path819-3"
         inkscape:connector-curvature="0" /></g></g></svg>
