<?xml version="1.0" encoding="UTF-8" standalone="no"?>
<!-- Created with Inkscape (http://www.inkscape.org/) -->

<svg
   version="1.1"
   id="svg2"
   width="1600"
   height="1600"
   viewBox="0 0 1600 1600"
   sodipodi:docname="node_fresnel.svg"
   inkscape:version="1.2.2 (732a01da63, 2022-12-09)"
   xmlns:inkscape="http://www.inkscape.org/namespaces/inkscape"
   xmlns:sodipodi="http://sodipodi.sourceforge.net/DTD/sodipodi-0.dtd"
   xmlns="http://www.w3.org/2000/svg"
   xmlns:svg="http://www.w3.org/2000/svg"
   xmlns:rdf="http://www.w3.org/1999/02/22-rdf-syntax-ns#"
   xmlns:cc="http://creativecommons.org/ns#"
   xmlns:dc="http://purl.org/dc/elements/1.1/">
  <metadata
     id="metadata8">
    <rdf:RDF>
      <cc:Work
         rdf:about="">
        <dc:format>image/svg+xml</dc:format>
        <dc:type
           rdf:resource="http://purl.org/dc/dcmitype/StillImage" />
      </cc:Work>
    </rdf:RDF>
  </metadata>
  <defs
     id="defs6" />
  <sodipodi:namedview
     pagecolor="#808080"
     bordercolor="#666666"
     borderopacity="1"
     objecttolerance="10"
     gridtolerance="10"
     guidetolerance="10"
     inkscape:pageopacity="0"
     inkscape:pageshadow="2"
     inkscape:window-width="1993"
     inkscape:window-height="1009"
     id="namedview4"
     showgrid="false"
     inkscape:zoom="0.5"
     inkscape:cx="261"
     inkscape:cy="250"
     inkscape:window-x="-8"
     inkscape:window-y="-8"
     inkscape:window-maximized="1"
     inkscape:current-layer="NODE_FRESNEL"
     inkscape:showpageshadow="0"
     inkscape:pagecheckerboard="true"
     inkscape:deskcolor="#d1d1d1" />
  <g
     id="NODE_FRESNEL"
     transform="matrix(100,0,0,100,0,4.9999997e-5)"
     style="stroke-width:0.0114286">
    <path
       style="fill:none;stroke-width:0.000357143"
       d="M 0,8 V 0 h 8 8 v 8 8 H 8 0 Z m 9.109375,6.909049 c 0.7544931,-0.127973 1.314626,-0.308399 2,-0.644225 1.808321,-0.886059 3.180183,-2.581338 3.668712,-4.5336124 C 14.943943,9.0684081 14.98301,8.7383738 14.98301,8 14.98301,7.2616262 14.94394,6.9315919 14.778087,6.2687884 14.163732,3.8136863 12.186314,1.8362677 9.7312116,1.2219136 9.0684081,1.0560565 8.7383737,1.0169904 8,1.0169904 c -0.7383738,0 -1.0684081,0.039066 -1.7312116,0.2049232 C 3.8136863,1.8362677 1.8362677,3.8136863 1.2219136,6.2687884 1.0560565,6.9315919 1.0169904,7.2616262 1.0169904,8 c 0,0.7383738 0.039066,1.0684081 0.2049232,1.7312116 0.6143541,2.4551024 2.5917727,4.4325204 5.0468748,5.0468754 0.3333582,0.08342 0.8063922,0.166584 1.1530866,0.202729 0.3141512,0.03275 1.3246525,-0.01022 1.6875,-0.07177 z"
       id="path827"
       inkscape:connector-curvature="0" />
    <path
       style="fill:#fefefe;stroke-width:0.000357143"
       d="M 7.421875,14.980816 C 7.0751806,14.944671 6.6021466,14.861504 6.2687884,14.778087 3.8136863,14.163732 1.8362677,12.186314 1.2219136,9.7312116 1.0560565,9.0684081 1.0169904,8.7383737 1.0169904,8 c 0,-0.7383738 0.039066,-1.0684081 0.2049232,-1.7312116 C 1.8362677,3.8136863 3.8136863,1.8362677 6.2687884,1.2219136 6.9315919,1.0560565 7.2616262,1.0169904 8,1.0169904 c 0.7383738,0 1.0684081,0.039066 1.7312116,0.2049232 C 12.186314,1.8362677 14.163732,3.8136863 14.778087,6.2687884 14.943943,6.9315919 14.98301,7.2616263 14.98301,8 c 0,0.7383738 -0.03907,1.0684081 -0.204923,1.7312116 -0.488529,1.9522744 -1.860391,3.6475534 -3.668712,4.5336124 -0.997415,0.488723 -1.8652369,0.698733 -2.96875,0.718428 -0.3265625,0.0058 -0.65,0.0047 -0.71875,-0.0024 z m 1.1875,-1.012756 c 1.2134053,-0.135588 2.330759,-0.609935 3.25,-1.379713 C 13.204706,11.461758 13.999487,9.7577663 13.999487,8 c 0,-1.7577663 -0.794781,-3.4617581 -2.140112,-4.5883469 -2.2404553,-1.8761722 -5.4782947,-1.8761722 -7.71875,0 C 2.7952944,4.5382419 2.0005128,6.2422337 2.0005128,8 c 0,1.8109975 0.8432565,3.558142 2.2651122,4.693088 1.2045741,0.96151 2.8436166,1.442599 4.34375,1.274972 z"
       id="path825"
       inkscape:connector-curvature="0" />
    <path
       style="fill:#cbcbcb;stroke-width:0.000357143"
       d="M 7.515625,12.981563 C 6.8336787,12.883965 6.3240031,12.738356 5.828125,12.499461 4.6115975,11.913386 3.6965644,10.872346 3.2604597,9.5782094 3.0739178,9.0246478 3.0170268,8.6558153 3.0170268,8 c 0,-0.4719403 0.012687,-0.6412775 0.069077,-0.9219594 0.4169661,-2.0754753 1.9798995,-3.6190793 4.0545214,-4.0043781 0.4340447,-0.080611 1.2847053,-0.080611 1.71875,0 C 10.693617,3.4143178 12.149368,4.6704606 12.73954,6.4217906 12.926082,6.9753522 12.982973,7.3441847 12.982973,8 c 0,0.4719403 -0.01269,0.6412775 -0.06908,0.9219594 -0.410595,2.0437626 -1.932258,3.5744066 -3.9624751,3.9858616 -0.2996566,0.06073 -1.2026591,0.107108 -1.4357969,0.07374 z M 8.84375,11.909555 c 1.566277,-0.35707 2.740901,-1.549642 3.081225,-3.128305 0.08007,-0.371415 0.08007,-1.191085 0,-1.5625 C 11.58015,5.61921 10.38079,4.41985 8.78125,4.0750253 c -0.371415,-0.080069 -1.191085,-0.080069 -1.5625,0 C 5.61921,4.41985 4.41985,5.61921 4.0750253,7.21875 c -0.080069,0.371415 -0.080069,1.191085 0,1.5625 0.3033266,1.407042 1.2760194,2.521326 2.6124747,2.992763 0.2456016,0.08664 0.6112716,0.172937 0.875,0.206508 0.2464716,0.03137 1.0203631,-0.01149 1.28125,-0.07097 z"
       id="path823"
       inkscape:connector-curvature="0" />
    <path
       style="fill:#989898;stroke-width:0.000357143"
       d="M 7.4794241,10.955879 C 6.8391219,10.833644 6.2811547,10.532683 5.8413031,10.072296 5.46529,9.6787272 5.2067906,9.2066125 5.0721766,8.6675878 c -0.074223,-0.2972056 -0.074223,-1.03797 0,-1.3351756 0.2781153,-1.113636 1.08906,-1.9398303 2.2044978,-2.2459528 0.3439365,-0.094391 1.1027147,-0.094391 1.4466512,0 1.1154378,0.3061225 1.9263824,1.1323168 2.2044974,2.2459528 0.07422,0.2972056 0.07422,1.03797 0,1.3351756 -0.278246,1.1141594 -1.1034971,1.9538822 -2.2044974,2.2431562 -0.3109278,0.08169 -0.9339778,0.104299 -1.2439015,0.04514 z M 8.421875,9.9531453 C 9.1647875,9.7977041 9.7977041,9.1647875 9.9531453,8.421875 10.250266,7.0018228 8.9981772,5.7497344 7.578125,6.0468547 7.0106991,6.1655784 6.4780709,6.5774881 6.2230478,7.0948078 c -0.2954,0.5992253 -0.2954,1.2111591 0,1.8103844 0.3931413,0.7974956 1.3092084,1.2340898 2.1988272,1.0479531 z"
       id="path821"
       inkscape:connector-curvature="0" />
    <path
       style="fill:#323232;stroke-width:0.000357143"
       d="M 7.34375,13.964919 C 5.8109619,13.788519 4.3899206,13.027586 3.4116531,11.859375 1.8915469,10.044121 1.5741252,7.5397319 2.5945878,5.4129075 3.1962641,4.1589078 4.1581306,3.1966691 5.4107991,2.595607 7.5397972,1.5740596 10.043314,1.8908713 11.859375,3.4116531 13.204706,4.5382419 13.999487,6.2422338 13.999487,8 c 0,1.7577663 -0.794781,3.461758 -2.140112,4.588347 -1.251181,1.047747 -2.9288631,1.559182 -4.515625,1.376572 z M 8.9514219,12.907821 C 10.743288,12.544671 12.159308,11.300044 12.73954,9.5782094 12.926082,9.0246478 12.982973,8.6558153 12.982973,8 c 0,-0.4719403 -0.01269,-0.6412775 -0.06908,-0.9219594 -0.416967,-2.0754753 -1.9799,-3.6190793 -4.054522,-4.0043781 -0.4340447,-0.080611 -1.2847053,-0.080611 -1.71875,0 C 5.3063828,3.4143178 3.8506319,4.6704606 3.2604597,6.4217906 3.0739178,6.9753522 3.0170268,7.3441847 3.0170268,8 c 0,0.4719403 0.012687,0.6412775 0.069077,0.9219594 0.2727398,1.3575796 1.0204276,2.4848556 2.1482714,3.2389126 0.6543878,0.437513 1.3483894,0.687183 2.28125,0.820691 0.2331378,0.03337 1.1361403,-0.01301 1.4357969,-0.07374 z M 7.5625,11.980521 C 5.8128841,11.757808 4.4464812,10.504325 4.0750253,8.78125 c -0.080069,-0.371415 -0.080069,-1.191085 0,-1.5625 C 4.41985,5.61921 5.61921,4.41985 7.21875,4.0750253 c 0.371415,-0.080069 1.191085,-0.080069 1.5625,0 1.59954,0.3448247 2.7989,1.5441847 3.143725,3.1437247 0.08007,0.371415 0.08007,1.191085 0,1.5625 -0.340324,1.578663 -1.514948,2.771235 -3.081225,3.128305 -0.2608869,0.05948 -1.0347784,0.10234 -1.28125,0.07097 z M 8.7233256,10.910744 C 9.8243259,10.62147 10.649577,9.7817472 10.927823,8.6675878 c 0.07422,-0.2972056 0.07422,-1.03797 0,-1.3351756 -0.278115,-1.113636 -1.0890596,-1.9398303 -2.2044974,-2.2459528 -0.3439365,-0.094391 -1.1027147,-0.094391 -1.4466512,0 -1.1154378,0.3061225 -1.9263825,1.1323168 -2.2044978,2.2459528 -0.074223,0.2972056 -0.074223,1.03797 0,1.3351756 0.2968793,1.1887713 1.2139043,2.0604802 2.4072475,2.2882912 0.3099237,0.05916 0.9329737,0.03656 1.2439015,-0.04514 z M 7.5625,9.9514053 C 6.8323191,9.7945809 6.2007041,9.1571794 6.0468547,8.421875 5.7497344,7.0018228 7.0018228,5.7497344 8.421875,6.0468547 9.1647875,6.2022959 9.7977041,6.8352125 9.9531453,7.578125 10.251335,9.0032863 8.9878991,10.257545 7.5625,9.9514053 Z"
       id="path819"
       inkscape:connector-curvature="0" />
  </g>
</svg>
