<?xml version="1.0" encoding="UTF-8" standalone="no"?>
<!-- Created with Inkscape (http://www.inkscape.org/) -->

<svg
   xmlns:dc="http://purl.org/dc/elements/1.1/"
   xmlns:cc="http://creativecommons.org/ns#"
   xmlns:rdf="http://www.w3.org/1999/02/22-rdf-syntax-ns#"
   xmlns:svg="http://www.w3.org/2000/svg"
   xmlns="http://www.w3.org/2000/svg"
   xmlns:sodipodi="http://sodipodi.sourceforge.net/DTD/sodipodi-0.dtd"
   xmlns:inkscape="http://www.inkscape.org/namespaces/inkscape"
   version="1.1"
   id="svg2"
   width="16"
   height="16"
   viewBox="0 0 16 16"
   sodipodi:docname="NODE_GEOMETRY.svg"
   inkscape:version="0.92.4 (5da689c313, 2019-01-14)">
  <metadata
     id="metadata8">
    <rdf:RDF>
      <cc:Work
         rdf:about="">
        <dc:format>image/svg+xml</dc:format>
        <dc:type
           rdf:resource="http://purl.org/dc/dcmitype/StillImage" />
        <dc:title></dc:title>
      </cc:Work>
    </rdf:RDF>
  </metadata>
  <defs
     id="defs6" />
  <sodipodi:namedview
     pagecolor="#ffffff"
     bordercolor="#666666"
     borderopacity="1"
     objecttolerance="10"
     gridtolerance="10"
     guidetolerance="10"
     inkscape:pageopacity="0"
     inkscape:pageshadow="2"
     inkscape:window-width="954"
     inkscape:window-height="808"
     id="namedview4"
     showgrid="false"
     inkscape:zoom="14.75"
     inkscape:cx="8"
     inkscape:cy="8"
     inkscape:window-x="0"
     inkscape:window-y="0"
     inkscape:window-maximized="0"
     inkscape:current-layer="svg2" />
  <g
     id="NODE_GEOMETRY">
    <path
       style="fill:#ffffff;stroke-width:0.03125"
       d="M 0,8 V 0 h 8 8 v 8 8 H 8 0 Z m 13.980303,5.929688 c 0.01036,-0.03867 0.01904,-0.260142 0.01927,-0.492155 L 14,13.015691 8.4922206,7.5078456 2.9844414,2 H 2.4922207 2 v 6 6 h 5.9807303 5.9807307 z"
       id="path823"
       inkscape:connector-curvature="0" />
    <path
       style="fill:#fefefe;stroke-width:0.03125"
       d="M 2,8 V 2 H 2.4922207 2.9844414 L 8.4922206,7.5078456 14,13.015691 l -4.25e-4,0.421842 c -2.5e-4,0.232013 -0.0089,0.453483 -0.01927,0.492155 L 13.961461,14 H 7.9807303 2 Z m 9.911803,4.570313 C 11.687485,12.333984 9.5905625,10.228144 7.2519756,7.8906681 L 3,3.6407112 V 8.3203556 13 h 4.6598272 4.6598278 z"
       id="path821"
       inkscape:connector-curvature="0" />
    <path
       style="fill:#98cbfe;stroke-width:0.03125"
       d="M 3,8.3203556 V 3.6407112 L 7.2519756,7.8906681 C 9.5905625,10.228144 11.687485,12.333984 11.911803,12.570313 L 12.319655,13 H 7.6598272 3 Z"
       id="path819"
       inkscape:connector-curvature="0" />
  </g>
</svg>
