<?xml version="1.0" encoding="UTF-8" standalone="no"?>
<!-- Created with Inkscape (http://www.inkscape.org/) -->

<svg
   xmlns:dc="http://purl.org/dc/elements/1.1/"
   xmlns:cc="http://creativecommons.org/ns#"
   xmlns:rdf="http://www.w3.org/1999/02/22-rdf-syntax-ns#"
   xmlns:svg="http://www.w3.org/2000/svg"
   xmlns="http://www.w3.org/2000/svg"
   xmlns:sodipodi="http://sodipodi.sourceforge.net/DTD/sodipodi-0.dtd"
   xmlns:inkscape="http://www.inkscape.org/namespaces/inkscape"
   version="1.1"
   id="svg2"
   width="16"
   height="16"
   viewBox="0 0 16 16"
   sodipodi:docname="NODE_CHANNEL.svg"
   inkscape:version="0.92.4 (5da689c313, 2019-01-14)">
  <metadata
     id="metadata8">
    <rdf:RDF>
      <cc:Work
         rdf:about="">
        <dc:format>image/svg+xml</dc:format>
        <dc:type
           rdf:resource="http://purl.org/dc/dcmitype/StillImage" />
        <dc:title></dc:title>
      </cc:Work>
    </rdf:RDF>
  </metadata>
  <defs
     id="defs6" />
  <sodipodi:namedview
     pagecolor="#ffffff"
     bordercolor="#666666"
     borderopacity="1"
     objecttolerance="10"
     gridtolerance="10"
     guidetolerance="10"
     inkscape:pageopacity="0"
     inkscape:pageshadow="2"
     inkscape:window-width="930"
     inkscape:window-height="654"
     id="namedview4"
     showgrid="false"
     inkscape:zoom="14.75"
     inkscape:cx="8"
     inkscape:cy="8"
     inkscape:window-x="0"
     inkscape:window-y="0"
     inkscape:window-maximized="0"
     inkscape:current-layer="svg2" />
  <g
     id="NODE_CHANNEL">
    <path
       style="fill:#ffffff;stroke-width:0.03125"
       d="M 0,13.5 V 11 H 2 4 V 11.5 12 H 5.5 7 v 1 1 H 8 9 V 13 12 H 10.5 12 V 11.5 11 h 2 2 V 13.5 16 H 8 0 Z M 0,2.5 V 0 h 8 8 V 2.5 5 H 14 12 V 4.5 4 H 10.5 9 V 3 2 H 8 7 V 3 4 H 5.5 4 V 4.5 5 H 2 0 Z"
       id="path829"
       inkscape:connector-curvature="0" />
    <path
       style="fill:#fefefe;stroke-width:0.03125"
       d="M 7,12.5 V 11 H 8 9 V 12.5 14 H 8 7 Z m 0,-9 V 2 H 8 9 V 3.5 5 H 8 7 Z"
       id="path827"
       inkscape:connector-curvature="0" />
    <path
       style="fill:#007efd;stroke-width:0.03125"
       d="M 12,8 V 6 h 2 2 v 2 2 h -2 -2 z"
       id="path825"
       inkscape:connector-curvature="0" />
    <path
       style="fill:#fd0000;stroke-width:0.03125"
       d="M 0,8 V 6 h 2 2 v 2 2 H 2 0 Z"
       id="path823"
       inkscape:connector-curvature="0" />
    <path
       style="fill:#00fd00;stroke-width:0.03125"
       d="M 5,8 V 5 h 3 3 v 3 3 H 8 5 Z"
       id="path821"
       inkscape:connector-curvature="0" />
    <path
       style="fill:#181818;stroke-width:0.03125"
       d="M 4,11.5 V 11 H 2 0 V 10.5 10 H 2 4 V 8 6 H 2 0 V 5.5 5 H 2 4 V 4.5 4 H 5.5 7 V 4.5 5 H 6 5 v 3 3 H 6 7 V 11.5 12 H 5.5 4 Z m 5,0 V 11 h 1 1 V 8 5 H 10 9 V 4.5 4 H 10.5 12 V 4.5 5 h 2 2 V 5.5 6 h -2 -2 v 2 2 h 2 2 V 10.5 11 H 14 12 V 11.5 12 H 10.5 9 Z"
       id="path819"
       inkscape:connector-curvature="0" />
  </g>
</svg>
