<?xml version="1.0" encoding="UTF-8" standalone="no"?>
<!-- Created with Inkscape (http://www.inkscape.org/) -->

<svg
   version="1.1"
   id="svg2"
   width="1600"
   height="1600"
   viewBox="0 0 1600 1600"
   sodipodi:docname="node_filterlist.svg"
   inkscape:version="1.4.3 (0d15f75, 2025-12-25)"
   xml:space="preserve"
   xmlns:inkscape="http://www.inkscape.org/namespaces/inkscape"
   xmlns:sodipodi="http://sodipodi.sourceforge.net/DTD/sodipodi-0.dtd"
   xmlns="http://www.w3.org/2000/svg"
   xmlns:svg="http://www.w3.org/2000/svg"
   xmlns:rdf="http://www.w3.org/1999/02/22-rdf-syntax-ns#"
   xmlns:cc="http://creativecommons.org/ns#"
   xmlns:dc="http://purl.org/dc/elements/1.1/"><metadata
     id="metadata8"><rdf:RDF><cc:Work
         rdf:about=""><dc:format>image/svg+xml</dc:format><dc:type
           rdf:resource="http://purl.org/dc/dcmitype/StillImage" /></cc:Work></rdf:RDF></metadata><defs
     id="defs6"><inkscape:path-effect
       effect="clone_original"
       css_properties=""
       attributes="clip-path,mask"
       linkeditem="#path6-9"
       is_visible="true"
       method="d"
       allow_transforms="true"
       id="path-effect16"
       lpeversion="1" /><inkscape:path-effect
       effect="offset"
       id="path-effect17"
       is_visible="true"
       lpeversion="1.3"
       linejoin_type="round"
       unit="mm"
       offset="16.69911"
       miter_limit="4"
       attempt_force_join="false"
       update_on_knot_move="true" /><inkscape:path-effect
       effect="mirror_symmetry"
       start_point="2.015625,3.980595"
       end_point="14.015625,3.980595"
       center_point="8.015625,3.980595"
       id="path-effect1"
       is_visible="true"
       lpeversion="1.2"
       lpesatellites=""
       mode="free"
       discard_orig_path="false"
       fuse_paths="true"
       oposite_fuse="true"
       split_items="false"
       split_open="false"
       link_styles="false" /><inkscape:path-effect
       effect="clone_original"
       css_properties=""
       attributes="clip-path,mask"
       linkeditem="#path6-5"
       is_visible="true"
       method="d"
       allow_transforms="true"
       id="path-effect16-4"
       lpeversion="1" /><inkscape:path-effect
       effect="offset"
       id="path-effect17-8"
       is_visible="true"
       lpeversion="1.3"
       linejoin_type="round"
       unit="mm"
       offset="16.69911"
       miter_limit="4"
       attempt_force_join="false"
       update_on_knot_move="true" /><inkscape:path-effect
       effect="mirror_symmetry"
       start_point="2.015625,3.980595"
       end_point="14.015625,3.980595"
       center_point="8.015625,3.980595"
       id="path-effect1-8"
       is_visible="true"
       lpeversion="1.2"
       lpesatellites=""
       mode="free"
       discard_orig_path="false"
       fuse_paths="true"
       oposite_fuse="true"
       split_items="false"
       split_open="false"
       link_styles="false" /><inkscape:path-effect
       effect="mirror_symmetry"
       start_point="2.015625,3.980595"
       end_point="14.015625,3.980595"
       center_point="8.015625,3.980595"
       id="path-effect1-5"
       is_visible="true"
       lpeversion="1.2"
       lpesatellites=""
       mode="free"
       discard_orig_path="false"
       fuse_paths="true"
       oposite_fuse="true"
       split_items="false"
       split_open="false"
       link_styles="false" /></defs><sodipodi:namedview
     pagecolor="#808080"
     bordercolor="#666666"
     borderopacity="1"
     objecttolerance="10"
     gridtolerance="10"
     guidetolerance="10"
     inkscape:pageopacity="0"
     inkscape:pageshadow="2"
     inkscape:window-width="1920"
     inkscape:window-height="1009"
     id="namedview4"
     showgrid="true"
     inkscape:zoom="0.3535534"
     inkscape:cx="1442.4978"
     inkscape:cy="769.33216"
     inkscape:window-x="-8"
     inkscape:window-y="-8"
     inkscape:window-maximized="1"
     inkscape:current-layer="FIELD_AT_INDEX"
     inkscape:showpageshadow="0"
     inkscape:pagecheckerboard="true"
     inkscape:deskcolor="#d1d1d1"><inkscape:grid
       id="grid1"
       units="px"
       originx="0"
       originy="0"
       spacingx="100"
       spacingy="100"
       empcolor="#0099e5"
       empopacity="0.30196078"
       color="#0099e5"
       opacity="0.14901961"
       empspacing="5"
       enabled="true"
       visible="true" /></sodipodi:namedview><g
     id="g7"
     inkscape:label="List"
     style="stroke-width:0.0114286"
     transform="matrix(100,0,0,100,-549.26341,-649.9992)"><path
       style="baseline-shift:baseline;display:inline;overflow:visible;opacity:1;vector-effect:none;fill:#333333;stroke-width:0.0114286;stroke-linecap:round;stroke-linejoin:round;paint-order:markers stroke fill;enable-background:accumulate;stop-color:#000000;stop-opacity:1"
       d="M 6,5.5 A 0.50005,0.50005 0 0 0 5.5,6 V 8 A 0.50005,0.50005 0 0 0 6,8.5 h 9 A 0.50005,0.50005 0 0 0 15.5,8 V 6 A 0.50005,0.50005 0 0 0 15,5.5 Z m 0.5,1 h 8 v 1 h -8 z"
       id="path6"
       transform="translate(-0.0173661,0.999992)" /><path
       id="rect1-5"
       style="fill:#b3b3b3;stroke:#333333;stroke-width:1;stroke-linecap:round;stroke-linejoin:round;paint-order:markers stroke fill"
       d="M 5.9826341,9.9999924 H 14.982634 V 11.999993 H 5.9826341 Z" /><path
       style="baseline-shift:baseline;display:inline;overflow:visible;opacity:1;vector-effect:none;fill:#333333;stroke:none;stroke-width:0.0114286;stroke-linecap:round;stroke-linejoin:round;paint-order:markers stroke fill;enable-background:accumulate;stop-color:#000000;stop-opacity:1"
       d="M 6,8.5 A 0.50005,0.50005 0 0 0 5.5,9 v 2 A 0.50005,0.50005 0 0 0 6,11.5 h 9 A 0.50005,0.50005 0 0 0 15.5,11 V 9 A 0.50005,0.50005 0 0 0 15,8.5 Z m 0.5,1 h 8 v 1 h -8 z"
       id="path4"
       transform="translate(-0.0173661,0.999992)" /><path
       style="baseline-shift:baseline;display:inline;overflow:visible;opacity:1;vector-effect:none;fill:#333333;stroke:none;stroke-width:0.0114286;stroke-linecap:round;stroke-linejoin:round;paint-order:markers stroke fill;enable-background:accumulate;stop-color:#000000;stop-opacity:1"
       d="M 6,11.5 A 0.50005,0.50005 0 0 0 5.5,12 v 2 A 0.50005,0.50005 0 0 0 6,14.5 h 9 A 0.50005,0.50005 0 0 0 15.5,14 V 12 A 0.50005,0.50005 0 0 0 15,11.5 Z m 0.5,1 h 8 v 1 h -8 z"
       id="path2"
       transform="translate(0.0026344,0.999992)" /><path
       style="baseline-shift:baseline;display:inline;overflow:visible;opacity:1;vector-effect:none;fill:#b3b3b3;stroke:none;stroke-width:0.0114286;stroke-linecap:round;stroke-linejoin:round;paint-order:markers stroke fill;enable-background:accumulate;stop-color:#000000;stop-opacity:1"
       d="m 6,12 h 9 v 2 H 6 Z"
       id="path3"
       transform="translate(0.0026344,0.999992)" /><path
       id="rect1-5-7-1"
       style="fill:#b3b3b3;stroke-width:1;stroke-linecap:round;stroke-linejoin:round;paint-order:markers stroke fill"
       d="M 5.9826338,6.9999995 H 14.982634 V 9 H 5.9826338 Z" /><path
       id="rect2"
       style="opacity:1;fill:#666666;stroke-width:1.41421;stroke-linecap:round;stroke-linejoin:round;paint-order:markers stroke fill"
       d="M 5.9426343,7.9999991 H 14.982634 V 8.9999919 H 5.9426343 Z" /><path
       id="rect1-5-7"
       style="fill:#b3b3b3;stroke-width:1;stroke-linecap:round;stroke-linejoin:round;paint-order:markers stroke fill"
       d="M 5.9826341,9.9999924 H 14.982634 V 11.999993 H 5.9826341 Z" /><path
       id="rect2-2"
       style="fill:#666666;stroke-width:1.4142;stroke-linecap:round;stroke-linejoin:round;paint-order:markers stroke fill"
       d="m 5.9626339,10.999999 h 9.0400001 v 0.999987 H 5.9626339 Z" /><path
       id="rect2-2-1"
       style="fill:#666666;stroke-width:1.41421;stroke-linecap:round;stroke-linejoin:round;paint-order:markers stroke fill"
       d="m 5.9826346,14 h 9.0399994 v 1 H 5.9826346 Z" /></g><g
     id="FIELD_AT_INDEX"
     transform="matrix(100,0,0,100,0,4.9999997e-5)"
     style="stroke-width:0.0114286"
     inkscape:label="Filter"><path
       style="stroke-width:0.0114286;opacity:1;baseline-shift:baseline;display:inline;overflow:visible;vector-effect:none;fill:#333333;stroke-linejoin:round;enable-background:accumulate;stop-color:#000000;stop-opacity:1"
       d="M 9.8652344,2.3144531 C 9.3032037,2.3149569 8.7509107,2.3295016 8.3730469,2.3710938 6.8031268,2.5438949 5.5757196,2.8892621 4.7617187,3.4765625 4.4481849,3.7027782 4.2123238,3.9648359 4.0820312,4.2734375 3.9557682,4.5724941 3.9655297,4.9773142 4.1035156,5.28125 c 0.1607295,0.3540291 0.4551255,0.6305874 0.8398438,0.8652344 0.055137,0.03363 0.1596248,0.095834 0.3300781,0.1894531 l 3.1972656,3.4824219 c 0.00439,1.7462946 -0.015625,5.6679686 -0.015625,5.6679686 a 0.50005,0.50005 0 0 0 0.7382813,0.441406 L 10.09375,15.439453 a 0.50005,0.50005 0 0 0 0.002,0 l 0.900391,-0.488281 a 0.50005,0.50005 0 0 0 0.261719,-0.441406 c 0,0 -0.0052,-2.995586 0,-4.6914066 L 14.457031,6.3359375 C 14.627486,6.2423181 14.731973,6.1801125 14.787109,6.1464844 15.172488,5.9114341 15.4651,5.6334449 15.625,5.28125 15.762143,4.9791734 15.773606,4.5745278 15.646484,4.2734375 15.51532,3.9627705 15.279505,3.7021828 14.966797,3.4765625 14.153125,2.8894992 12.927383,2.5438995 11.357422,2.3710938 10.979559,2.3295022 10.427267,2.3149569 9.8652344,2.3144531 Z m 0,1 c 0.5410526,4.85e-4 1.0878056,0.01831 1.3828126,0.050781 1.474253,0.1622712 2.571817,0.5190704 3.132812,0.9238281 0.234698,0.1693349 0.289228,0.2392833 0.345704,0.3730469 0.06312,0.149497 0.06716,0.031337 -0.01172,0.2050781 -0.06005,0.1322581 -0.160061,0.2494179 -0.449219,0.4257812 -0.0976,0.059528 -0.07639,0.052636 -0.357422,0.203125 a 0.50005,0.50005 0 0 0 -0.132812,0.1035157 l -3.384766,3.6855469 a 0.50005,0.50005 0 0 0 -0.132812,0.3359375 c -0.006,1.5545392 -6.65e-4,4.2413802 0,4.5937502 l -0.6406255,0.345703 -0.1601562,0.08594 c 0.00459,-0.918427 0.019176,-3.605389 0.013672,-5.0253902 A 0.50005,0.50005 0 0 0 9.3398438,9.2851563 L 5.9550781,5.5996094 A 0.50005,0.50005 0 0 0 5.8222656,5.4960937 C 5.5412374,5.3456037 5.5624364,5.3524932 5.4648437,5.2929687 5.1750241,5.1162023 5.0748375,4.9976114 5.015625,4.8671875 4.9375909,4.6953051 4.9399293,4.8136401 5.0039062,4.6621094 5.0612537,4.5262804 5.1137841,4.457802 5.3476562,4.2890625 5.9083234,3.8845419 7.008126,3.5275102 8.4824219,3.3652344 8.7774282,3.3327625 9.3241831,3.3149381 9.8652344,3.3144531 Z"
       id="path5" /><path
       d="m 9.8651865,2.813552 c -0.5515413,4.944e-4 -1.1005023,0.018343 -1.4369373,0.055375 -1.522108,0.1675385 -2.686653,0.5180253 -3.373987,1.0139358 -0.273703,0.1974776 -0.416856,0.3620867 -0.510676,0.584302 -0.09512,0.2252937 -0.09216,0.3693067 0.01585,0.6072158 0.109971,0.2422265 0.30724,0.4396987 0.644509,0.6454054 0.0827,0.050441 0.0956,0.064247 0.382126,0.2176812 l 3.384552,3.6853033 c 0.0064,1.6511785 -0.01585,5.8660575 -0.01585,5.8660575 L 9.8563815,15 10.757989,14.511049 c 0,0 -0.0064,-3.2371 0,-4.8882785 L 14.144303,5.9374672 C 14.430832,5.7840331 14.443728,5.7702277 14.526431,5.719786 14.863699,5.5140792 15.059205,5.3166071 15.169178,5.0743806 15.277189,4.8364715 15.281907,4.6924585 15.186787,4.4671648 15.092967,4.2449495 14.948053,4.0803404 14.67435,3.8828628 13.987016,3.3869523 12.824232,3.0364655 11.302125,2.868927 10.96569,2.8318954 10.416729,2.8140464 9.8651865,2.813552 Z"
       style="display:inline;vector-effect:non-scaling-stroke;fill:#cbcbcb;fill-opacity:1;stroke:none;stroke-width:0.00938862;stroke-dasharray:none;stroke-opacity:1;-inkscape-stroke:hairline"
       id="path6-1"
       sodipodi:nodetypes="sssccccccssssssssss" /><path
       style="display:inline;vector-effect:non-scaling-stroke;fill:#989898;stroke:none;stroke-width:0.000335308;stroke-dasharray:none;stroke-opacity:1;-inkscape-stroke:hairline"
       d="M 9.8563825,9.6228945 13.012012,6.2475788 14.143618,5.9365405 10.757991,9.6228945 V 14.511172 L 9.8563825,15 Z"
       id="path823"
       inkscape:connector-curvature="0"
       sodipodi:nodetypes="ccccccc" /><path
       style="display:inline;vector-effect:non-scaling-stroke;fill:#fefefe;stroke:none;stroke-width:0.000357143;stroke-dasharray:none;stroke-opacity:1;-inkscape-stroke:hairline"
       d="M 6.4023437,2.0371094 C 5.3709556,2.1418034 4.3929624,2.3375018 3.7128906,2.5742188 2.6363172,2.9489493 2.0353553,3.4665161 2.015625,3.9804688 c 0.01973,0.5139526 0.6206922,1.0315194 1.6972656,1.4062499 0.6800718,0.236717 1.658065,0.4324154 2.6894531,0.5371094 0.7563989,0.07678 2.4799294,0.07678 3.2363282,0 1.6882151,-0.171368 2.9798451,-0.5298644 3.7421871,-1.0371094 0.300226,-0.199764 0.461185,-0.3680527 0.564454,-0.5898437 0.04832,-0.1037742 0.07195,-0.2095286 0.07031,-0.3164062 0.0016,-0.1068777 -0.02199,-0.2126321 -0.07031,-0.3164063 C 13.842044,3.4422715 13.681085,3.2739828 13.380859,3.0742188 12.618517,2.5669737 11.326887,2.2084774 9.6386719,2.0371094 c -0.7563988,-0.07678 -2.4799293,-0.07678 -3.2363282,0 z M 7.4824219,3.0039063 C 6.8357954,3.0250713 6.192452,3.0856914 5.5839844,3.1855469 4.6945925,3.3315049 4.0516091,3.5134121 3.5292969,3.7675781 3.2958734,3.8811658 3.2115974,3.9382963 3.2109375,3.9804688 c 6.599e-4,0.042172 0.084936,0.099303 0.3183594,0.2128906 0.5223122,0.254166 1.1652956,0.4360732 2.0546875,0.5820312 2.4338706,0.399422 5.4297806,0.1478488 6.9296876,-0.5820312 0.234332,-0.114034 0.320312,-0.1706706 0.320312,-0.2128906 0,-0.04222 -0.08598,-0.098857 -0.320312,-0.2128907 -1.12493,-0.54741 -3.0913708,-0.8271669 -5.0312501,-0.7636718 z"
       id="path827"
       inkscape:connector-curvature="0"
       sodipodi:nodetypes="cssssssscsccsscssscccc"
       inkscape:path-effect="#path-effect1-5"
       inkscape:original-d="M 7.0863906,5.988859 C 5.0634775,5.857573 3.5180462,5.47824 2.648249,4.899497 2.3480227,4.699733 2.1869288,4.531429 2.0836593,4.309638 1.7977117,3.69551 2.4056726,3.029401 3.7133684,2.574222 4.3934402,2.337505 5.3715868,2.142378 6.4029749,2.037684 c 0.7563988,-0.07678 2.48019,-0.07678 3.2365888,0 1.6882153,0.171368 2.9793813,0.528919 3.7417233,1.036164 0.300226,0.199764 0.46132,0.368068 0.564589,0.589859 0.191411,0.411092 -0.014,0.860818 -0.577926,1.236011 C 12.615086,5.400656 11.298612,5.767353 9.6645156,5.93129 9.2030928,5.97758 7.4989544,6.01563 7.0863906,5.988859 Z M 9.4776197,4.945963 C 10.761395,4.819766 11.809252,4.574272 12.501058,4.237628 c 0.234332,-0.11403 0.333316,-0.214817 0.333316,-0.257033 0,-0.04222 -0.08598,-0.09954 -0.320312,-0.213574 C 11.014155,3.037141 8.0175968,2.785415 5.5837262,3.184837 4.6943343,3.330795 4.0519981,3.512855 3.5296859,3.767021 3.2953534,3.881051 3.2100908,3.938872 3.2100908,3.981087 c 0,0.04221 0.072259,0.142506 0.3065914,0.256541 0.8177503,0.397931 2.0896153,0.657536 3.7578125,0.76702 0.3692334,0.02423 1.7277422,-0.01195 2.203125,-0.05869 z"
       transform="matrix(0.901608,0,0,0.97765561,2.6294302,0.8429649)" /><path
       style="display:inline;vector-effect:non-scaling-stroke;fill:#656565;fill-opacity:1;stroke:none;stroke-width:0.000335308;stroke-dasharray:none;stroke-opacity:1;-inkscape-stroke:hairline"
       d="M 9.1888202,5.7362682 C 7.6847602,5.6292305 6.5380362,5.3754262 5.8007462,4.9863858 5.5894702,4.8749035 5.5236742,4.7763687 5.5236742,4.7350971 c 0,-0.041277 0.07752,-0.097315 0.288796,-0.208802 1.352328,-0.7135722 4.0540493,-0.9596734 6.2484468,-0.5691753 0.801883,0.1426965 1.381019,0.3206875 1.851939,0.5691753 0.211274,0.1114822 0.288796,0.1675301 0.288796,0.208802 0,0.041276 -0.08924,0.1398025 -0.300521,0.2512887 -0.623736,0.3291228 -1.568493,0.5691314 -2.725955,0.6925086 -0.428609,0.045687 -1.6534518,0.081067 -1.9863558,0.057368 z"
       id="path821"
       inkscape:connector-curvature="0"
       sodipodi:nodetypes="csscssscscc" /></g></svg>
