<?xml version="1.0" encoding="UTF-8" standalone="no"?>
<!-- Created with Inkscape (http://www.inkscape.org/) -->

<svg
   version="1.1"
   id="svg2"
   width="1600"
   height="1600"
   viewBox="0 0 1600 1600"
   sodipodi:docname="node_mixshader.svg"
   inkscape:version="1.2.2 (732a01da63, 2022-12-09)"
   xmlns:inkscape="http://www.inkscape.org/namespaces/inkscape"
   xmlns:sodipodi="http://sodipodi.sourceforge.net/DTD/sodipodi-0.dtd"
   xmlns="http://www.w3.org/2000/svg"
   xmlns:svg="http://www.w3.org/2000/svg"
   xmlns:rdf="http://www.w3.org/1999/02/22-rdf-syntax-ns#"
   xmlns:cc="http://creativecommons.org/ns#"
   xmlns:dc="http://purl.org/dc/elements/1.1/">
  <metadata
     id="metadata8">
    <rdf:RDF>
      <cc:Work
         rdf:about="">
        <dc:format>image/svg+xml</dc:format>
        <dc:type
           rdf:resource="http://purl.org/dc/dcmitype/StillImage" />
      </cc:Work>
    </rdf:RDF>
  </metadata>
  <defs
     id="defs6" />
  <sodipodi:namedview
     pagecolor="#808080"
     bordercolor="#666666"
     borderopacity="1"
     objecttolerance="10"
     gridtolerance="10"
     guidetolerance="10"
     inkscape:pageopacity="0"
     inkscape:pageshadow="2"
     inkscape:window-width="1993"
     inkscape:window-height="1009"
     id="namedview4"
     showgrid="false"
     inkscape:zoom="0.5"
     inkscape:cx="213"
     inkscape:cy="74"
     inkscape:window-x="-8"
     inkscape:window-y="-8"
     inkscape:window-maximized="1"
     inkscape:current-layer="NODE_MIXSHADER"
     inkscape:showpageshadow="0"
     inkscape:pagecheckerboard="true"
     inkscape:deskcolor="#d1d1d1" />
  <g
     id="NODE_MIXSHADER"
     transform="matrix(100,0,0,100,0,4.9999997e-5)"
     style="stroke-width:0.0114286">
    <path
       style="fill:none;stroke-width:0.000357143"
       d="M 0,8 V 0 h 8 8 V 4 8 H 15.504484 15.008968 L 14.987488,7.7154634 C 14.866206,6.1088691 13.81911,4.7523947 12.287321,4.2174969 L 12,4.117165 V 3.0585825 2 H 9.2518941 6.5037881 L 6.4940816,1.4084363 C 6.4834616,0.76120612 6.4762466,0.73462737 6.269215,0.58005591 6.1836225,0.51615181 6.1609806,0.515625 3.5,0.515625 c -2.6609805,0 -2.68362244,5.2687e-4 -2.76921503,0.0644309 C 0.68332097,0.6154929 0.61549288,0.68332096 0.58005591,0.73078496 0.51596794,0.81662381 0.515625,0.83402475 0.515625,4 c 0,3.1659753 3.4281e-4,3.1833762 0.0644309,3.269215 0.035437,0.047464 0.10326506,0.1152922 0.15072906,0.1507291 C 0.81637756,7.4838481 0.8390195,7.484375 3.5,7.484375 c 2.6609806,0 2.6836225,-5.281e-4 2.769215,-0.064431 C 6.316679,7.384507 6.3845072,7.3166865 6.4199441,7.2692321 6.4833111,7.1843751 6.4845151,7.1484143 6.4928331,5.0914755 L 6.5012919,3 H 8.7506459 11 v 0.4955163 0.4955162 l -0.284537,0.02148 C 8.9207531,4.147995 7.4595859,5.4348866 7.0750253,7.21875 c -0.080069,0.371415 -0.080069,1.191085 0,1.5625 0.3845606,1.783863 1.8457278,3.070755 3.6404377,3.206238 L 11,12.008967 V 12.504484 13 H 8.7506459 6.5012919 l -0.00846,-2.091476 C 6.4845147,8.8515856 6.4833109,8.8156244 6.4199441,8.7307678 6.3845072,8.6833134 6.3166791,8.6154928 6.269215,8.5800559 6.1836225,8.5161519 6.1609806,8.515625 3.5,8.515625 c -2.6609805,0 -2.68362244,5.281e-4 -2.76921503,0.064431 C 0.68332097,8.6154928 0.61549288,8.6833209 0.58005591,8.730785 0.51596794,8.8166238 0.515625,8.8340247 0.515625,12 c 0,3.165975 3.4281e-4,3.183376 0.0644309,3.269215 0.035437,0.04746 0.10326506,0.115292 0.15072906,0.150729 0.0855926,0.0639 0.10823453,0.06443 2.76921504,0.06443 2.6609806,0 2.6836225,-5.28e-4 2.769215,-0.06443 0.2070316,-0.154571 0.2142466,-0.18115 0.2248666,-0.82838 L 6.5037881,14 H 9.2518941 12 v -1.058582 -1.058583 l 0.287321,-0.100332 c 1.186252,-0.414237 2.080945,-1.30893 2.495182,-2.4951821 L 14.882835,9 H 15.441418 16 V 12.5 16 H 8 0 Z"
       id="path829"
       inkscape:connector-curvature="0" />
    <path
       style="fill:#fefefe;stroke-width:0.000357143"
       d="M 6.5,13.5 V 13 H 8.75 11 v -0.495516 -0.495516 l 0.289063,-0.02178 c 0.255894,-0.01928 0.379813,-0.03812 0.640625,-0.0974 L 12,11.873809 V 12.936905 14 H 9.25 6.5 Z m 8.389792,-4.5703125 c 0.05928,-0.2608119 0.07812,-0.3847306 0.0974,-0.640625 L 15.008968,8 H 15.504484 16 V 8.5 9 H 15.436905 14.873809 Z M 11.765625,4.0769572 C 11.6625,4.0540562 11.448047,4.0254456 11.289063,4.0133781 L 11,3.9914369 V 3.4957184 3 H 8.75 6.5 V 2.5 2 H 9.25 12 v 1.0625 c 0,0.584375 -0.01055,1.0610591 -0.02344,1.0592978 -0.01289,-0.00176 -0.107813,-0.021939 -0.210938,-0.044841 z"
       id="path827"
       inkscape:connector-curvature="0" />
    <path
       style="fill:#c5c5c5;stroke-width:0.000357143"
       d="M 1,9.5 V 9 H 3.5 6 V 9.5 10 H 3.5 1 Z m 0,-8 V 1 H 3.5 6 V 1.5 2 H 3.5 1 Z"
       id="path825"
       inkscape:connector-curvature="0" />
    <path
       style="fill:#65a4fe;stroke-width:0.000357143"
       d="M 1,12.5 V 10 H 3.5 6 V 12.5 15 H 3.5 1 Z m 9.6875,-1.019574 C 9.097335,11.27939 7.9022178,10.194707 7.5757872,8.65625 c -0.075729,-0.35691 -0.075729,-0.95559 0,-1.3125 0.3003153,-1.4153756 1.3525872,-2.4676475 2.7679628,-2.7679628 0.35691,-0.075729 0.95559,-0.075729 1.3125,0 1.415376,0.3003153 2.467648,1.3525872 2.767963,2.7679628 0.07573,0.35691 0.07573,0.95559 0,1.3125 -0.296478,1.39729 -1.335394,2.451424 -2.713454,2.753199 -0.272453,0.05966 -0.81505,0.0973 -1.023259,0.07098 z M 11.210515,8.4833009 C 11.365973,8.4183469 13.320508,6.4705269 13.40654,6.2948212 13.48768,6.1291072 13.4851,6.0095009 13.39674,5.8425006 13.316106,5.6899266 13.116451,5.5625 12.958076,5.5625 c -0.20103,0 -0.343404,0.1191087 -1.355439,1.1339487 C 10.592639,7.7092444 10.5,7.8208919 10.5,8.0253313 c 0,0.15402 0.129154,0.3541884 0.280001,0.4339581 0.159015,0.084089 0.271688,0.090373 0.430514,0.024012 z M 1,4.5 V 2 H 3.5 6 V 4.5 7 H 3.5 1 Z"
       id="path823"
       inkscape:connector-curvature="0" />
    <path
       style="fill:#323232;stroke-width:0.000357143"
       d="M 10.5625,11.980521 C 8.8128841,11.757808 7.4464812,10.504325 7.0750253,8.78125 c -0.080069,-0.371415 -0.080069,-1.191085 0,-1.5625 C 7.41985,5.61921 8.61921,4.41985 10.21875,4.0750253 c 0.371415,-0.080069 1.191085,-0.080069 1.5625,0 1.59954,0.3448247 2.7989,1.5441847 3.143725,3.1437247 0.08007,0.371415 0.08007,1.191085 0,1.5625 -0.340324,1.578663 -1.514948,2.771235 -3.081225,3.128305 -0.260887,0.05948 -1.034778,0.10234 -1.28125,0.07097 z m 1.148259,-0.571072 c 1.37806,-0.301775 2.416976,-1.355909 2.713454,-2.753199 0.07573,-0.35691 0.07573,-0.95559 0,-1.3125 -0.300315,-1.4153756 -1.352587,-2.4676475 -2.767963,-2.7679628 -0.35691,-0.075729 -0.95559,-0.075729 -1.3125,0 C 8.9283744,4.8761025 7.8761025,5.9283744 7.5757872,7.34375 c -0.075729,0.35691 -0.075729,0.95559 0,1.3125 0.3264306,1.538457 1.5215478,2.62314 3.1117128,2.824176 0.208209,0.02632 0.750806,-0.01131 1.023259,-0.07098 z M 10.780001,8.4592894 C 10.629154,8.3795197 10.5,8.1793513 10.5,8.0253313 10.5,7.8208919 10.592639,7.7092444 11.602637,6.6964488 12.614672,5.6816087 12.757046,5.5625 12.958076,5.5625 c 0.158375,0 0.35803,0.1274266 0.438713,0.2800006 0.08831,0.1670003 0.09089,0.2866066 0.0098,0.4523206 -0.08603,0.1757057 -2.040567,2.1235257 -2.196025,2.1884797 -0.158826,0.066362 -0.271499,0.060078 -0.430514,-0.024012 z"
       id="path821"
       inkscape:connector-curvature="0" />
    <path
       style="fill:#000000;stroke-width:0.000357143"
       d="m 0.79532572,15.456321 c -0.12588353,-0.0552 -0.25717091,-0.214828 -0.27967578,-0.340053 -0.009948,-0.05535 -0.014023,-1.495319 -0.009056,-3.199922 0.008959,-3.0744569 0.009547,-3.099971 0.0734619,-3.1855694 C 0.61549288,8.6833172 0.68332097,8.6154928 0.73078497,8.5800559 0.81637756,8.5161519 0.8390195,8.515625 3.5,8.515625 c 2.6609806,0 2.6836225,5.281e-4 2.769215,0.064431 0.047464,0.035437 0.1152922,0.103265 0.1507291,0.1507291 0.064088,0.085839 0.064431,0.1032397 0.064431,3.2692149 0,3.165975 -3.438e-4,3.183376 -0.064431,3.269215 -0.035437,0.04746 -0.10326,0.115292 -0.1507179,0.150729 -0.085384,0.06376 -0.1139687,0.0645 -2.732444,0.0713 -2.152166,0.0056 -2.66394792,-9.35e-4 -2.74145648,-0.03492 z M 6,12 V 9 H 3.5 1 v 3 3 H 3.5 6 Z M 0.79532572,7.4563212 C 0.66944219,7.4011234 0.53815481,7.2414931 0.51564994,7.1162675 0.50570213,7.0609141 0.50162694,5.6209494 0.506594,3.9163456 0.51555266,0.84188919 0.51614103,0.81637509 0.58005591,0.7307765 0.61549288,0.68331716 0.68332097,0.61549288 0.73078497,0.58005591 0.81637756,0.51615181 0.8390195,0.515625 3.5,0.515625 c 2.6609806,0 2.6836225,5.2687e-4 2.769215,0.0644309 0.047464,0.035437 0.1152922,0.10326506 0.1507291,0.15072906 C 6.4840322,0.81662381 6.484375,0.83402475 6.484375,4 c 0,3.1659753 -3.438e-4,3.1833762 -0.064431,3.269215 -0.035437,0.047464 -0.10326,0.1152922 -0.1507179,0.1507291 -0.085384,0.063757 -0.1139687,0.064503 -2.732444,0.071298 -2.152166,0.00558 -2.66394792,-9.344e-4 -2.74145638,-0.034921 z M 6,4 V 1 H 3.5 1 V 4 7 H 3.5 6 Z"
       id="path819"
       inkscape:connector-curvature="0" />
  </g>
</svg>
