<?xml version="1.0" encoding="UTF-8" standalone="no"?>
<!-- Created with Inkscape (http://www.inkscape.org/) -->

<svg
   version="1.1"
   id="svg2"
   width="1600"
   height="1600"
   viewBox="0 0 1600 1600"
   sodipodi:docname="node_gridtomesh.svg"
   inkscape:version="1.4 (86a8ad7, 2024-10-11)"
   inkscape:export-filename="VOLUME_CUBE.png"
   inkscape:export-xdpi="3072"
   inkscape:export-ydpi="3072"
   xml:space="preserve"
   xmlns:inkscape="http://www.inkscape.org/namespaces/inkscape"
   xmlns:sodipodi="http://sodipodi.sourceforge.net/DTD/sodipodi-0.dtd"
   xmlns="http://www.w3.org/2000/svg"
   xmlns:svg="http://www.w3.org/2000/svg"
   xmlns:rdf="http://www.w3.org/1999/02/22-rdf-syntax-ns#"
   xmlns:cc="http://creativecommons.org/ns#"
   xmlns:dc="http://purl.org/dc/elements/1.1/"><metadata
     id="metadata8"><rdf:RDF><cc:Work
         rdf:about=""><dc:format>image/svg+xml</dc:format><dc:type
           rdf:resource="http://purl.org/dc/dcmitype/StillImage" /></cc:Work></rdf:RDF></metadata><defs
     id="defs6" /><sodipodi:namedview
     pagecolor="#808080"
     bordercolor="#666666"
     borderopacity="1"
     objecttolerance="10"
     gridtolerance="10"
     guidetolerance="10"
     inkscape:pageopacity="0"
     inkscape:pageshadow="2"
     inkscape:window-width="2560"
     inkscape:window-height="1009"
     id="namedview4"
     showgrid="true"
     inkscape:zoom="0.23046875"
     inkscape:cx="670.37289"
     inkscape:cy="898.1695"
     inkscape:window-x="1912"
     inkscape:window-y="-8"
     inkscape:window-maximized="1"
     inkscape:current-layer="MESH_CUBE"
     inkscape:showpageshadow="0"
     inkscape:pagecheckerboard="1"
     inkscape:deskcolor="#d1d1d1"><inkscape:grid
       type="xygrid"
       id="grid10683"
       originx="0"
       originy="0"
       spacingy="100"
       spacingx="100"
       units="px" /></sodipodi:namedview><g
     id="MESH_CUBE"
     transform="matrix(100,0,0,100,0,4.9999997e-5)"
     style="display:inline;stroke-width:0.0114286;enable-background:new"
     inkscape:label="VOLUME_CUBE"><g
       id="g3"
       transform="translate(-2.3200004,-2.3200004)"
       inkscape:label="Grid"
       style="display:inline;stroke-width:0.0114286;enable-background:new"><path
         id="rect1"
         style="baseline-shift:baseline;display:inline;overflow:visible;vector-effect:none;fill:#323232;stroke-linecap:round;stroke-linejoin:round;paint-order:markers stroke fill;enable-background:accumulate;stop-color:#000000;stop-opacity:1"
         d="M 4.1230891,2.3199999 H 14.516912 c 0.998911,0 1.803088,0.8041776 1.803088,1.8030887 V 14.516911 C 16.32,15.515822 15.515823,16.32 14.516912,16.32 H 4.1230891 C 3.124178,16.32 2.3200004,15.515822 2.3200004,14.516911 V 4.1230886 c 0,-0.9989111 0.8041776,-1.8030887 1.8030887,-1.8030887 z" /><g
         id="rect2-2-5-7"
         transform="matrix(1.0716036,0,0,1.0716036,-0.77860787,-0.66768013)"
         style="stroke-width:0.0106649"><path
           style="fill:#cb6500;stroke-width:0.0106649;stroke-linecap:round;stroke-linejoin:round;paint-order:markers stroke fill"
           d="m 4.953125,3.3203125 c -0.8957377,0 -1.6328125,0.7370748 -1.6328125,1.6328125 V 7.6875 c 0,0.8957377 0.7370748,1.6328125 1.6328125,1.6328125 h 2.8398437 c 0.8957378,0 1.6308594,-0.7370748 1.6308594,-1.6328125 V 4.953125 c 0,-0.8957377 -0.7351216,-1.6328125 -1.6308594,-1.6328125 z m 0,1 h 2.8398437 c 0.3590371,0 0.6308594,0.2737753 0.6308594,0.6328125 V 7.6875 c 0,0.3590372 -0.2718223,0.6328125 -0.6308594,0.6328125 H 4.953125 C 4.5940879,8.3203125 4.3203125,8.0465372 4.3203125,7.6875 V 4.953125 c 0,-0.3590372 0.2737754,-0.6328125 0.6328125,-0.6328125 z"
           id="path10" /><path
           style="fill:#fecb32;stroke-width:0.0106649;stroke-linecap:round;stroke-linejoin:round;paint-order:markers stroke fill"
           d="m 4.9524665,3.8199978 h 2.8396153 c 0.6273874,0 1.1324683,0.5050809 1.1324683,1.1324683 v 2.7350672 c 0,0.6273874 -0.5050809,1.1324683 -1.1324683,1.1324683 H 4.9524665 c -0.6273874,0 -1.1324682,-0.5050809 -1.1324682,-1.1324683 V 4.9524661 c 0,-0.6273874 0.5050808,-1.1324683 1.1324682,-1.1324683 z"
           id="path11" /></g><g
         id="rect2-2-5-7-2"
         transform="matrix(1.0716036,0,0,1.0716036,-0.61860782,-0.66768013)"
         style="stroke-width:0.0106649"><path
           style="fill:#cb6500;stroke-width:0.0106649;stroke-linecap:round;stroke-linejoin:round;paint-order:markers stroke fill"
           d="m 10.900391,3.3203125 c -0.895738,0 -1.6328129,0.7370748 -1.6328129,1.6328125 V 7.6875 c 0,0.8957377 0.7370749,1.6328125 1.6328129,1.6328125 h 2.839843 c 0.895738,0 1.632813,-0.7370748 1.632813,-1.6328125 V 4.953125 c 0,-0.8957377 -0.737075,-1.6328125 -1.632813,-1.6328125 z m 0,1 h 2.839843 c 0.359037,0 0.632813,0.2737753 0.632813,0.6328125 V 7.6875 c 0,0.3590372 -0.273776,0.6328125 -0.632813,0.6328125 h -2.839843 c -0.359037,0 -0.632813,-0.2737753 -0.632813,-0.6328125 V 4.953125 c 0,-0.3590372 0.273776,-0.6328125 0.632813,-0.6328125 z"
           id="path8" /><path
           style="fill:#fecb32;stroke-width:0.0106649;stroke-linecap:round;stroke-linejoin:round;paint-order:markers stroke fill"
           d="m 10.900192,3.8199978 h 2.839616 c 0.627387,0 1.132468,0.5050809 1.132468,1.1324683 v 2.7350672 c 0,0.6273874 -0.505081,1.1324683 -1.132468,1.1324683 h -2.839616 c -0.627387,0 -1.132468,-0.5050809 -1.132468,-1.1324683 V 4.9524661 c 0,-0.6273874 0.505081,-1.1324683 1.132468,-1.1324683 z"
           id="path9" /></g><g
         id="rect2-2-5-7-2-7"
         transform="matrix(1.0716036,0,0,1.0716036,-0.61860782,-0.66768013)"
         style="stroke-width:0.0106649"><path
           style="fill:#cb6500;stroke-width:0.0106649;stroke-linecap:round;stroke-linejoin:round;paint-order:markers stroke fill"
           d="m 10.900391,9.3203125 c -0.895738,0 -1.6328129,0.7370745 -1.6328129,1.6328125 V 13.6875 c 0,0.895738 0.7370749,1.632812 1.6328129,1.632813 h 2.839843 c 0.895738,0 1.632813,-0.737075 1.632813,-1.632813 v -2.734375 c 0,-0.895738 -0.737075,-1.6328125 -1.632813,-1.6328125 z m 0,1.0000005 h 2.839843 c 0.359037,0 0.632813,0.273775 0.632813,0.632812 V 13.6875 c 0,0.359037 -0.273776,0.632813 -0.632813,0.632813 h -2.839843 c -0.359037,0 -0.632813,-0.273776 -0.632813,-0.632813 v -2.734375 c 0,-0.359037 0.273776,-0.632813 0.632813,-0.632812 z"
           id="path6" /><path
           style="fill:#fecb32;stroke-width:0.0106649;stroke-linecap:round;stroke-linejoin:round;paint-order:markers stroke fill"
           d="m 10.900192,9.8199978 h 2.839616 c 0.627387,0 1.132468,0.5050812 1.132468,1.1324682 v 2.735067 c 0,0.627388 -0.505081,1.132469 -1.132468,1.132469 h -2.839616 c -0.627387,0 -1.132468,-0.505081 -1.132468,-1.132469 v -2.735067 c 0,-0.627387 0.505081,-1.1324682 1.132468,-1.1324682 z"
           id="path7" /></g><g
         id="rect2-2-5-7-2-7-9"
         transform="matrix(1.0716036,0,0,1.0716036,-0.64256442,-0.66768013)"
         style="stroke-width:0.0106649"><path
           style="fill:#cb6500;stroke-width:0.0106649;stroke-linecap:round;stroke-linejoin:round;paint-order:markers stroke fill"
           d="m 4.8242187,9.3203125 c -0.8957377,0 -1.6308593,0.7370745 -1.6308593,1.6328125 V 13.6875 c 0,0.895738 0.7351216,1.632812 1.6308593,1.632813 h 2.8398438 c 0.8957377,0 1.6328125,-0.737075 1.6328125,-1.632813 v -2.734375 c 0,-0.895738 -0.7370748,-1.6328125 -1.6328125,-1.6328125 z m 0,1.0000005 h 2.8398438 c 0.3590371,0 0.6328125,0.273775 0.6328125,0.632812 V 13.6875 c 0,0.359037 -0.2737754,0.632813 -0.6328125,0.632813 H 4.8242187 c -0.359037,0 -0.6308593,-0.273776 -0.6308593,-0.632813 v -2.734375 c 0,-0.359037 0.2718223,-0.632813 0.6308593,-0.632812 z"
           id="path4" /><path
           style="fill:#fecb32;stroke-width:0.0106649;stroke-linecap:round;stroke-linejoin:round;paint-order:markers stroke fill"
           d="m 4.8250043,9.8199978 h 2.8396154 c 0.6273874,0 1.1324682,0.5050812 1.1324682,1.1324682 v 2.735067 c 0,0.627388 -0.5050808,1.132469 -1.1324682,1.132469 H 4.8250043 c -0.6273874,0 -1.1324682,-0.505081 -1.1324682,-1.132469 v -2.735067 c 0,-0.627387 0.5050808,-1.1324682 1.1324682,-1.1324682 z"
           id="path5" /></g></g><path
       inkscape:connector-curvature="0"
       id="path827-666"
       d="M 0,8 V 0 h 8 8 v 8 8 H 8 0 Z m 11.326467,6.00029 c 3.319702,-1.106746 3.322552,-1.107867 3.51104,-1.381855 0.206207,-0.299746 0.193743,-0.0036 0.193743,-4.60281 0,-4.5991825 0.01246,-4.3030644 -0.193743,-4.60281 C 14.649019,3.1388275 14.646169,3.1377059 11.326467,2.0309595 8.4439647,1.0699703 8.2195475,1.0000958 8.015625,1.0000958 c -0.2039225,0 -0.4283397,0.069875 -3.3108416,1.0308637 C 1.3850808,3.1377059 1.3822313,3.1388275 1.1937435,3.412815 0.98753566,3.7125606 1,3.4164425 1,8.015625 c 0,4.599183 -0.0124643,4.303064 0.1937435,4.60281 0.1884878,0.273988 0.1913373,0.275109 3.5110399,1.381855 2.8825019,0.96099 3.1069191,1.030864 3.3108416,1.030864 0.2039225,0 0.4283397,-0.06987 3.310842,-1.030864 z"
       style="fill:#ffffff;fill-opacity:0;stroke-width:0.000357143" /><g
       id="MESH_TO_VOLUME"
       style="stroke-width:0.00704538"
       transform="matrix(1.4193687,0,0,1.4193687,-6.0378019,-6.0046332)"><path
         style="fill:none;stroke-width:0.000220168"
         d="M 8,16 H 0 V 8 0 h 8 8 v 8 8 z M 3.4708231,15.496505 3.8322713,15.5 4.0176981,15.46716 4.203125,15.43432 l 0.25,-0.08089 0.25,-0.08089 0.15625,-0.0781 0.15625,-0.0781 0.1875,-0.126911 0.1875,-0.126911 0.2359503,-0.235951 0.2359506,-0.23595 0.1339372,-0.197574 0.1339369,-0.197574 0.087439,-0.193051 0.087439,-0.193051 0.017416,-0.0525 0.017416,-0.0525 0.1502578,-0.01884 0.1502578,-0.01884 0.2556756,-0.04702 0.2556756,-0.04702 0.1661994,-0.05649 0.1661994,-0.05649 0.0082,-1.148778 0.0082,-1.148778 -0.101951,0.06799 -0.1019509,0.06799 -0.25,0.12202 -0.25,0.12202 -0.1875,0.04883 -0.1875,0.04883 -0.34375,0.03173 -0.34375,0.03173 -0.149945,0.02942 -0.149945,0.02942 -0.1702944,0.08056 -0.1702944,0.08056 -0.1689362,0.154398 -0.1689363,0.154398 -0.094956,0.148055 -0.094956,0.148054 -0.097351,0.302478 -0.097351,0.302477 -0.092068,0.127097 -0.092068,0.127096 -0.1307053,0.09468 -0.130705,0.09468 -0.1715256,0.04986 -0.171526,0.04986 L 3.412755,13.458813 3.2426987,13.441262 3.0772699,13.360325 2.911841,13.279389 2.7961495,13.151332 2.680458,13.023275 2.618979,12.884292 2.5575,12.745308 2.540567,12.581248 2.523635,12.417189 l 0.049864,-0.171526 0.049864,-0.171525 0.095922,-0.132417 0.095922,-0.132417 0.1459938,-0.09996 0.1459938,-0.09996 0.1482427,-0.135887 0.1482428,-0.135887 0.092604,-0.145363 0.092604,-0.145363 0.064931,-0.194327 0.064931,-0.194326 V 10.316777 9.9753334 L 3.6589972,9.7767294 3.5992441,9.578125 3.5652472,9.4125244 3.53125,9.2469237 V 9.0736831 8.9004428 L 3.59544,8.5830337 3.65963,8.265625 3.7818937,8.0118191 3.9041575,7.7580134 4.0848328,7.5161187 4.2655084,7.2742237 4.5098178,7.0901312 4.7541272,6.9060384 5.0098762,6.7828341 5.265625,6.65963 5.5830337,6.59544 5.9004428,6.53125 H 6.046875 6.1933072 l 0.3132131,0.063829 0.3132131,0.063829 0.20159,0.091405 0.2015897,0.091405 0.208856,0.13926 L 7.640625,7.1202384 7.8614672,7.31966 8.0823094,7.5190819 8.1895922,7.5850072 8.296875,7.6509328 8.4912016,7.7160912 8.6855284,7.78125 H 8.984375 9.2832216 L 9.4775484,7.7163187 9.671875,7.6513878 9.8172378,7.5587841 9.9626006,7.4661806 10.099484,7.3190278 10.236368,7.171875 10.303025,7.0625 10.369683,6.953125 10.434841,6.7587984 10.5,6.5644716 V 5.921875 5.2792784 L 10.435069,5.0849516 10.370138,4.890625 10.275062,4.74141 10.179987,4.5921947 9.9884309,4.4180853 9.796875,4.2439756 9.4263744,3.9957122 9.0558741,3.7474491 8.8417931,3.6396394 8.6277122,3.53183 8.3196387,3.4090941 8.0115653,3.2863581 7.8417203,3.2386191 7.671875,3.19088 7.5346972,3.15556 7.3975197,3.1202402 7.5503222,3.0096505 7.703125,2.8990609 l 0.25,-0.1207477 0.25,-0.1207478 L 8.3940406,2.6093523 8.5849559,2.5611392 8.7924781,2.5361559 9,2.5111726 l 0.2075219,0.024983 0.2075222,0.024983 0.1909153,0.048392 0.1909156,0.048392 0.226379,0.106911 0.226379,0.106911 0.148621,0.1018925 0.148621,0.1018925 0.152344,0.1419222 0.152345,0.1419225 0.135865,0.1902734 0.135866,0.1902738 0.109391,0.2316012 0.109391,0.2316016 0.04839,0.1909156 0.04839,0.1909153 0.02498,0.2075222 L 11.488827,5 l -0.02498,0.2075219 -0.02498,0.2075222 -0.04883,0.1909153 -0.04883,0.1909156 -0.152745,0.3288838 -0.152746,0.328884 -0.03696,0.1467947 -0.03696,0.1467947 0.01371,0.3368212 0.01371,0.3368216 0.05411,0.1289181 0.05411,0.1289178 0.279417,-0.089855 0.2794,-0.089856 0.351561,2.5e-4 0.351561,2.5e-4 1.400084,0.4662303 1.400084,0.4662306 -0.08423,-0.14618 -0.08422,-0.1461796 -0.132984,-0.1875 -0.132984,-0.1875 L 14.432875,7.4805887 14.140624,7.1955762 13.913057,7.0487371 13.685489,6.901898 13.506807,6.822527 13.328124,6.743156 l -0.06879,-0.026487 -0.06879,-0.026487 0.09005,-0.2664097 0.09005,-0.26641 0.05633,-0.2583806 0.05633,-0.2583806 V 4.9999763 4.3593513 L 13.425675,4.0945653 13.36804,3.8297794 13.259892,3.5190781 13.151744,3.2083766 13.025016,2.955739 12.898288,2.703125 12.708459,2.4254606 12.51863,2.1477962 12.185417,1.8145833 11.852204,1.4813704 11.574539,1.2915413 11.296875,1.1017121 11.044237,0.97498409 10.7916,0.84825613 10.480898,0.74010803 10.170197,0.63195997 9.9054109,0.574325 9.640625,0.51669003 H 9 8.359375 L 8.0945891,0.574325 7.8298031,0.63195997 7.5191019,0.74010803 7.2084003,0.84825613 6.9557628,0.97498409 6.703125,1.1017121 6.4254606,1.2915413 6.1477963,1.4813704 5.8145834,1.8145833 5.4813703,2.1477962 5.2915413,2.4254606 5.1017122,2.703125 4.9749841,2.9557627 4.8482563,3.2084003 4.7401081,3.5191019 4.63196,3.8298031 4.583062,4.0789641 4.534165,4.328125 4.513761,4.5360856 4.493357,4.7440459 l -0.145116,0.05447 -0.1451156,0.05447 -0.25,0.1243628 -0.25,0.1243631 L 3.4254606,5.2915413 3.1477963,5.4813703 2.8145833,5.8145834 2.4813704,6.1477963 2.2915413,6.4254606 2.1017121,6.703125 1.9749841,6.9557628 1.8482561,7.2084003 1.740108,7.5191019 1.63196,7.8298031 1.574325,8.0945891 1.51669,8.359375 1.516565,9 1.51644,9.640625 l 0.053382,0.2411909 0.053382,0.2411911 -0.2428656,0.243184 -0.2428656,0.243184 -0.126911,0.1875 -0.12691093,0.1875 -0.0780973,0.15625 -0.0780973,0.15625 -0.0808935,0.25 -0.0808935,0.25 -0.0328353,0.185427 L 0.5,12.167729 V 12.5 12.832271 l 0.0328353,0.185427 0.0328353,0.185427 0.0808935,0.25 0.0808935,0.25 0.0780973,0.15625 0.0780973,0.15625 0.126911,0.1875 0.126911,0.1875 0.2359504,0.23595 0.2359504,0.235951 0.1875,0.126911 0.1875,0.126911 0.15625,0.0781 0.15625,0.0781 0.25,0.08141 0.25,0.0814 0.15625,0.02883 0.15625,0.02883 z m 8.5147949,0.0012 0.157493,0.0023 1.538478,-0.513966 1.538479,-0.513967 0.08924,-0.06354 0.08924,-0.06354 0.05073,-0.106901 0.05073,-0.1069 V 12 9.8688206 L 15.449272,9.76192 15.398545,9.6550191 15.309306,9.5914759 15.220068,9.5279325 13.681589,9.0139662 12.143111,8.5 H 12 11.856889 L 10.318411,9.0139662 8.7799322,9.5279325 8.6906938,9.5914759 8.6014553,9.6550191 8.5507278,9.76192 8.5,9.8688206 V 12 14.131179 l 0.050728,0.106901 0.050727,0.106901 0.089327,0.06361 0.089327,0.06361 1.524008,0.511596 1.524008,0.511597 0.157493,0.0023 z M 9.015625,10.03125 H 9 V 10.015625 10 H 9.015625 9.03125 v 0.01563 0.01563 z"
         id="path307" /><path
         style="fill:#fefefe;stroke-width:0.000220168"
         d="m 11.984013,10.997474 -0.03089,-0.0025 L 10.492186,10.505562 9.031248,10.01615 V 10.00003 9.983909 L 10.515625,9.4894603 12,8.9950378 13.484375,9.4894603 14.96875,9.9838828 v 0.016118 0.01612 L 13.491825,10.50806 12.0149,11 11.98401,10.9975 Z"
         id="path305" /><path
         style="fill:#cbcbcb;stroke-width:0.000220168"
         d="m 11.976563,14.997533 -0.02344,-0.0025 -1.46875,-0.492324 -1.46875,-0.492323 -0.00804,-1.989585 -0.00804,-1.989586 h 0.03929 0.03929 L 10.539059,10.518228 12,11.005206 V 13.002603 15 l -0.02344,-0.0025 z"
         id="path303" /><path
         style="fill:#989898;stroke-width:0.000220168"
         d="M 12.054688,14.986711 12,15.004212 V 13.00475 11.005287 l 1.500229,-0.500195 1.500229,-0.500195 -0.008,2.00272 -0.008,2.00272 -1.4375,0.479437 -1.4375,0.479436 z"
         id="path299" /><path
         style="fill:#323232;stroke-width:0.000220168"
         d="M 11.985618,15.497693 11.828125,15.495387 10.304117,14.98379 8.7801088,14.472194 8.6907822,14.408588 8.6014553,14.344982 8.5507278,14.238081 8.5,14.131179 V 12 9.8688206 L 8.5507278,9.76192 8.6014553,9.6550191 8.6906938,9.5914759 8.7799322,9.5279325 10.318411,9.0139662 11.856889,8.5 H 12 12.143111 l 1.538478,0.5139662 1.538479,0.5139663 0.08924,0.063543 0.08924,0.063543 L 15.449272,9.76192 15.5,9.8688206 V 12 14.131179 l -0.05073,0.106901 -0.05073,0.106901 -0.08924,0.06354 -0.08924,0.06354 -1.538479,0.513966 -1.538478,0.513966 -0.157493,-0.0023 z m -9.97e-4,-0.50016 0.0315,0.0025 1.484127,-0.494833 1.484127,-0.494833 V 11.999958 9.9895825 L 13.492188,9.4921875 12,8.9947916 10.507813,9.4921875 9.015625,9.9895834 v 2.0104156 2.010415 l 1.46875,0.492327 1.46875,0.492326 0.0315,0.0025 z"
         id="path295" /></g></g></svg>
