<?xml version="1.0" encoding="UTF-8" standalone="no"?>
<!-- Created with Inkscape (http://www.inkscape.org/) -->

<svg
   version="1.1"
   id="svg2"
   width="1600"
   height="1600"
   viewBox="0 0 1600 1600"
   sodipodi:docname="node_gridlaplacian.svg"
   inkscape:version="1.4 (86a8ad7, 2024-10-11)"
   inkscape:export-filename="VOLUME_CUBE.png"
   inkscape:export-xdpi="3072"
   inkscape:export-ydpi="3072"
   xml:space="preserve"
   xmlns:inkscape="http://www.inkscape.org/namespaces/inkscape"
   xmlns:sodipodi="http://sodipodi.sourceforge.net/DTD/sodipodi-0.dtd"
   xmlns="http://www.w3.org/2000/svg"
   xmlns:svg="http://www.w3.org/2000/svg"
   xmlns:rdf="http://www.w3.org/1999/02/22-rdf-syntax-ns#"
   xmlns:cc="http://creativecommons.org/ns#"
   xmlns:dc="http://purl.org/dc/elements/1.1/"><metadata
     id="metadata8"><rdf:RDF><cc:Work
         rdf:about=""><dc:format>image/svg+xml</dc:format><dc:type
           rdf:resource="http://purl.org/dc/dcmitype/StillImage" /></cc:Work></rdf:RDF></metadata><defs
     id="defs6" /><sodipodi:namedview
     pagecolor="#808080"
     bordercolor="#666666"
     borderopacity="1"
     objecttolerance="10"
     gridtolerance="10"
     guidetolerance="10"
     inkscape:pageopacity="0"
     inkscape:pageshadow="2"
     inkscape:window-width="2560"
     inkscape:window-height="1009"
     id="namedview4"
     showgrid="true"
     inkscape:zoom="0.23046875"
     inkscape:cx="149.69492"
     inkscape:cy="1084.7458"
     inkscape:window-x="1912"
     inkscape:window-y="-8"
     inkscape:window-maximized="1"
     inkscape:current-layer="MESH_CUBE"
     inkscape:showpageshadow="0"
     inkscape:pagecheckerboard="1"
     inkscape:deskcolor="#d1d1d1"
     showguides="false"><inkscape:grid
       type="xygrid"
       id="grid10683"
       originx="0"
       originy="0"
       spacingy="100"
       spacingx="100"
       units="px" /></sodipodi:namedview><g
     id="MESH_CUBE"
     transform="matrix(100,0,0,100,0,4.9999997e-5)"
     style="display:inline;stroke-width:0.0114286;enable-background:new"
     inkscape:label="VOLUME_CUBE"><g
       id="SMOOTH_LAPLACIAN"
       style="stroke-width:0.0114286"
       transform="translate(-16.546453,-1.691334)"><path
         style="fill:none;stroke-width:0.000357143"
         d="M 16.551892,8.4342626 V 0.43426263 h 8 8 l -0.0037,3.46093747 c -0.002,1.9035156 -0.01499,3.3936491 -0.02881,3.3114075 C 32.480621,6.9759501 32.321734,6.6702513 32.141679,6.4798698 31.860028,6.1820648 31.358947,5.992196 30.997651,6.0463757 l -0.140066,0.021004 -0.507991,-0.5072913 -0.507991,-0.5072909 0.05439,-0.145205 C 30.194475,4.1107191 29.634484,3.1915808 28.768392,3.0568135 28.334745,2.9893365 27.854615,3.1592927 27.547372,3.4890301 L 27.380018,3.6686375 27.176893,3.6161195 C 26.520074,3.446298 25.9836,3.3092626 25.975593,3.3092626 c -0.0051,0 -0.01706,-0.058473 -0.02665,-0.1299395 -0.02902,-0.2163878 -0.219609,-0.559702 -0.411408,-0.7410976 -0.553893,-0.5238487 -1.386143,-0.5238487 -1.940036,0 -0.19195,0.1815385 -0.382389,0.5247488 -0.411468,0.7415502 -0.01457,0.1085944 -0.03116,0.1335092 -0.09925,0.1490388 -0.07925,0.018074 -0.558485,0.1406201 -1.032073,0.2639137 -0.127359,0.033156 -0.24961,0.060284 -0.271668,0.060284 -0.02206,0 -0.113682,-0.077794 -0.203607,-0.1728763 C 21.274812,3.1580464 20.788987,2.9884648 20.366014,3.0565825 19.497062,3.1965232 18.940523,4.1106192 19.239042,4.9075926 l 0.05439,0.145205 -0.507991,0.5072909 -0.507991,0.5072913 -0.140066,-0.021004 c -0.197246,-0.029579 -0.496495,0.025847 -0.730322,0.1352678 -0.548279,0.2565707 -0.889252,0.8866635 -0.795349,1.4697469 0.07008,0.4351469 0.360053,0.8424034 0.739506,1.0386053 l 0.200443,0.1036419 1.16e-4,3.3203133 1.15e-4,3.320312 h 7 7 l 5.34e-4,-3.320312 5.35e-4,-3.3203133 0.175908,-0.076189 c 0.371933,-0.1610918 0.721771,-0.6125422 0.78981,-1.0192175 0.01434,-0.0857 0.0275,1.8264194 0.02954,4.2907198 l 0.0037,4.445312 h -8 -8 z"
         id="path829"
         inkscape:connector-curvature="0" /><path
         style="fill:#fefe00;stroke-width:0.000357143;fill-opacity:1"
         d="M 18.551892,11.593496 V 8.7527289 l 0.164063,-0.092729 c 0.34475,-0.1948544 0.618669,-0.6016797 0.682899,-1.0142478 0.04398,-0.2825163 -0.0044,-0.547501 -0.153533,-0.8416244 l -0.121478,-0.23951 0.424962,-0.4209178 0.424962,-0.4209178 0.109375,0.046523 c 0.453763,0.1930078 1.060708,0.064576 1.454393,-0.307755 0.191799,-0.1813956 0.382384,-0.52471 0.411408,-0.7410978 0.0096,-0.071467 0.02243,-0.1299394 0.02855,-0.1299394 0.0061,0 0.148405,-0.036168 0.316198,-0.080373 0.167793,-0.044205 0.481401,-0.1251388 0.696907,-0.1798528 l 0.391829,-0.09948 0.165877,0.1796375 c 0.304798,0.3300833 0.791022,0.5017327 1.224591,0.4323114 0.288448,-0.046185 0.609188,-0.2144481 0.806538,-0.4231168 0.08993,-0.095082 0.180509,-0.1728763 0.201298,-0.1728763 0.03777,0 0.727611,0.1702306 1.052413,0.2597003 0.09453,0.026039 0.208668,0.055399 0.253637,0.065244 0.06827,0.014946 0.08465,0.039419 0.09925,0.1482922 0.02908,0.2168015 0.219519,0.5600115 0.411469,0.7415503 0.394029,0.3726562 1.000824,0.5007581 1.455538,0.3072828 l 0.10823,-0.046051 0.424962,0.4209178 0.424962,0.4209178 -0.121684,0.23951 c -0.214808,0.4228028 -0.223772,0.8247931 -0.02773,1.2437159 0.109896,0.2348428 0.353823,0.5047819 0.550349,0.6090391 l 0.139767,0.074149 v 2.8516169 2.851616 h -6 -6 z"
         id="path825"
         inkscape:connector-curvature="0"
         sodipodi:nodetypes="ccssscccsssssscsssssscsscccscscccccc" /><path
         style="fill:#fe9832;stroke-width:0.000357143"
         d="M 17.723767,8.0936423 C 17.26268,7.8797064 17.16043,7.2892048 17.524639,6.9436588 17.970286,6.5208476 18.70677,6.8362351 18.70677,7.4498876 c 0,0.4985406 -0.537427,0.8504937 -0.983003,0.6437547 z m 13.125,0 C 30.38768,7.8797064 30.28543,7.2892048 30.649639,6.9436588 31.095285,6.5208476 31.83177,6.8362351 31.83177,7.4498876 c 0,0.4985406 -0.537427,0.8504937 -0.983003,0.6437547 z m -10.5625,-3 C 19.82518,4.8797064 19.72293,4.2892048 20.087139,3.9436589 20.532786,3.5208476 21.26927,3.8362351 21.26927,4.4498876 c 0,0.4985406 -0.537427,0.8504937 -0.983003,0.6437547 z m 8,0 C 27.82518,4.8797064 27.72293,4.2892048 28.087139,3.9436589 28.532785,3.5208476 29.26927,3.8362351 29.26927,4.4498876 c 0,0.4985406 -0.537427,0.8504937 -0.983003,0.6437547 z m -4,-1 C 23.82518,3.8797064 23.72293,3.2892047 24.087139,2.9436589 24.532786,2.5208476 25.26927,2.836235 25.26927,3.4498876 c 0,0.4985406 -0.537427,0.8504938 -0.983003,0.6437547 z"
         id="path823"
         inkscape:connector-curvature="0" /><path
         style="fill:#fe1919;stroke-width:0.000357143"
         d="M 17.761737,8.8392714 C 17.19967,8.7447723 16.705025,8.235317 16.612149,7.6552632 16.49298,6.9109942 17.043703,6.1752198 17.809153,6.0560504 c 0.739474,-0.1151256 1.471108,0.4362216 1.589701,1.1979728 0.113446,0.728686 -0.432744,1.466296 -1.175087,1.5869122 -0.210184,0.034151 -0.249857,0.034008 -0.46203,-0.00166 z m 0.502096,-0.7347176 c 0.474733,-0.198005 0.591516,-0.809899 0.221563,-1.160895 -0.354086,-0.3359421 -0.916061,-0.2234712 -1.124133,0.2249788 -0.256141,0.5520491 0.340236,1.1704591 0.90257,0.9359162 z M 30.886737,8.8392714 C 30.32467,8.7447724 29.830025,8.235317 29.737149,7.6552632 29.61798,6.9109942 30.168703,6.1752198 30.934153,6.0560504 c 0.739474,-0.1151256 1.471107,0.4362216 1.589701,1.1979728 0.113446,0.728686 -0.432744,1.466296 -1.175087,1.5869122 -0.210184,0.034151 -0.249857,0.034008 -0.46203,-0.00166 z m 0.502096,-0.7347176 c 0.474732,-0.198005 0.591516,-0.809899 0.221562,-1.160895 -0.354086,-0.3359421 -0.91606,-0.2234712 -1.124133,0.2249788 -0.25614,0.5520491 0.340236,1.1704591 0.902571,0.9359162 z M 20.324237,5.8392714 C 19.76217,5.7447723 19.267525,5.235317 19.174649,4.6552632 19.05548,3.9109942 19.606203,3.1752199 20.371653,3.0560504 c 0.739474,-0.1151255 1.471108,0.4362217 1.589701,1.1979728 0.113446,0.728686 -0.432744,1.466296 -1.175087,1.5869122 -0.210183,0.034151 -0.249857,0.034008 -0.46203,-0.00166 z m 0.502096,-0.7347176 c 0.474733,-0.198005 0.591516,-0.809899 0.221563,-1.1608949 -0.354087,-0.3359422 -0.916061,-0.2234713 -1.124133,0.2249787 -0.256141,0.5520491 0.340235,1.1704591 0.90257,0.9359162 z m 7.497904,0.7347176 C 27.76217,5.7447724 27.267525,5.235317 27.174649,4.6552632 27.05548,3.9109942 27.606203,3.1752199 28.371653,3.0560504 c 0.739474,-0.1151255 1.471107,0.4362217 1.589701,1.1979728 0.113446,0.728686 -0.432744,1.466296 -1.175087,1.5869122 -0.210184,0.034151 -0.249857,0.034008 -0.46203,-0.00166 z m 0.502096,-0.7347176 c 0.474732,-0.198005 0.591516,-0.809899 0.221562,-1.1608949 -0.354086,-0.3359422 -0.91606,-0.2234713 -1.124133,0.2249787 -0.25614,0.5520491 0.340236,1.1704591 0.902571,0.9359162 z M 24.324237,4.8392714 C 23.76217,4.7447723 23.267525,4.235317 23.174649,3.6552632 23.05548,2.9109941 23.606203,2.1752199 24.371653,2.0560504 c 0.739474,-0.1151255 1.471108,0.4362217 1.589701,1.1979729 0.113446,0.7286859 -0.432744,1.4662959 -1.175087,1.5869121 -0.210183,0.034151 -0.249857,0.034008 -0.46203,-0.00166 z m 0.502096,-0.7347175 c 0.474733,-0.198005 0.591516,-0.8098991 0.221563,-1.160895 -0.354087,-0.3359422 -0.916061,-0.2234713 -1.124133,0.2249787 -0.256141,0.5520491 0.340235,1.1704591 0.90257,0.9359163 z"
         id="path821"
         inkscape:connector-curvature="0" /><path
         style="fill:#191919;stroke-width:0.000357143"
         d="M 17.551892,12.106911 V 8.7795595 l 0.08594,0.034533 c 0.129975,0.052229 0.624816,0.042464 0.78125,-0.015417 l 0.132813,-0.04914 v 2.8423635 2.842364 h 6 6 v -2.84375 c 0,-1.564063 0.0053,-2.84375 0.0117,-2.84375 0.0064,0 0.07323,0.022243 0.148437,0.049428 0.149933,0.054196 0.538081,0.072729 0.72268,0.034505 l 0.117183,-0.024265 v 3.313917 3.313916 h -7 -7 z M 18.972297,6.4326073 C 18.856519,6.3138992 18.468225,6.0905126 18.377663,6.0905126 c -0.02246,0 -0.04793,-0.011478 -0.0566,-0.025507 -0.0087,-0.014029 0.206387,-0.2473322 0.477904,-0.5184518 l 0.493669,-0.4929454 0.08012,0.1367147 c 0.09281,0.1583703 0.341988,0.4009303 0.491058,0.4780172 l 0.103001,0.053264 -0.417967,0.4188287 c -0.229881,0.2303565 -0.425855,0.4188296 -0.435496,0.4188296 -0.0096,0 -0.07312,-0.056995 -0.141059,-0.1266553 z M 29.586182,6.1404335 29.168215,5.7216048 29.271216,5.6683407 c 0.14907,-0.077087 0.398247,-0.3196469 0.491058,-0.4780172 l 0.08012,-0.1367146 0.493669,0.4929453 c 0.45621,0.4555418 0.525242,0.5439165 0.424922,0.5439831 -0.09116,6.25e-5 -0.441145,0.1974134 -0.57936,0.3266969 -0.08351,0.078116 -0.157608,0.1420284 -0.164658,0.1420284 -0.0071,0 -0.200903,-0.1884731 -0.430785,-0.4188291 z M 21.979585,4.5308907 c 0.02838,-0.1085269 -0.04801,-0.4742009 -0.14022,-0.6712587 l -0.0908,-0.1940257 0.268849,-0.065926 c 0.147867,-0.036259 0.430568,-0.1078417 0.628224,-0.1590724 0.582157,-0.1508897 0.514523,-0.1625431 0.522579,0.09004 0.0048,0.1518767 0.03163,0.2769729 0.0883,0.4123757 0.04474,0.1069004 0.08846,0.2170647 0.09714,0.2448097 0.01299,0.041471 -0.05554,0.068097 -0.385174,0.1496613 -0.220535,0.054568 -0.527535,0.1333351 -0.682223,0.1750373 -0.341885,0.092169 -0.325731,0.091201 -0.306682,0.018359 z m 4.931682,-0.00301 C 26.790954,4.495412 26.480244,4.4158004 26.220798,4.3509645 l -0.471719,-0.1178841 0.09054,-0.1934815 c 0.092,-0.1966016 0.168316,-0.5623022 0.139966,-0.6707144 -0.0086,-0.032792 -0.01091,-0.059622 -0.0052,-0.059622 0.0057,0 0.232924,0.057447 0.504887,0.1276611 0.271962,0.070214 0.583632,0.1489936 0.6926,0.175067 0.222135,0.053151 0.216419,0.029867 0.08463,0.344761 -0.05688,0.1359062 -0.08344,0.2603493 -0.0883,0.4137559 -0.0038,0.1206653 -0.01398,0.2187191 -0.02258,0.2178969 -0.0086,-8.219e-4 -0.114062,-0.028059 -0.234375,-0.060526 z"
         id="path819"
         inkscape:connector-curvature="0"
         sodipodi:nodetypes="ccsscccccssssccccccsssscsscsssscsscssssssscsscssssscscsssssscscc" /></g><g
       id="g3"
       transform="matrix(0.70998569,0,0,0.70998569,1.3883859,4.413033)"
       inkscape:label="Grid"
       style="display:inline;stroke-width:0.0160969;enable-background:new"><path
         id="rect1"
         style="baseline-shift:baseline;display:inline;overflow:visible;vector-effect:none;fill:#323232;stroke-width:0.0160969;stroke-linecap:round;stroke-linejoin:round;paint-order:markers stroke fill;enable-background:accumulate;stop-color:#000000;stop-opacity:1"
         d="M 4.1230891,2.3199999 H 14.516912 c 0.998911,0 1.803088,0.8041776 1.803088,1.8030887 V 14.516911 C 16.32,15.515822 15.515823,16.32 14.516912,16.32 H 4.1230891 C 3.124178,16.32 2.3200004,15.515822 2.3200004,14.516911 V 4.1230886 c 0,-0.9989111 0.8041776,-1.8030887 1.8030887,-1.8030887 z" /><g
         id="rect2-2-5-7"
         transform="matrix(1.0716036,0,0,1.0716036,-0.77860787,-0.66768013)"
         style="stroke-width:0.0150211" /><g
         id="rect2-2-5-7-2"
         transform="matrix(1.0716036,0,0,1.0716036,-0.61860782,-0.66768013)"
         style="stroke-width:0.0150211" /><g
         id="rect2-2-5-7-2-7"
         transform="matrix(1.0716036,0,0,1.0716036,-0.61860782,-0.66768013)"
         style="stroke-width:0.0150211" /><g
         id="rect2-2-5-7-2-7-9"
         transform="matrix(1.0716036,0,0,1.0716036,-0.64256442,-0.66768013)"
         style="stroke-width:0.0150211" /><path
         id="path4"
         style="display:inline;fill:#0065fe;fill-opacity:1;stroke-width:0.0150211;stroke-linecap:round;stroke-linejoin:round;paint-order:markers stroke fill;enable-background:new"
         transform="matrix(1.0716036,0,0,1.0716036,-0.64256442,-0.6676801)"
         d="m 4.8242187,9.3203125 c -0.8957377,0 -1.6308593,0.7370745 -1.6308593,1.6328125 V 13.6875 c 0,0.895738 0.7351216,1.632812 1.6308593,1.632813 h 2.8398438 c 0.8957377,0 1.6328125,-0.737075 1.6328125,-1.632813 v -2.734375 c 0,-0.895738 -0.7370748,-1.6328125 -1.6328125,-1.6328125 z m 0,1.0000005 h 2.8398438 c 0.3590371,0 0.6328125,0.273775 0.6328125,0.632812 V 13.6875 c 0,0.359037 -0.2737754,0.632813 -0.6328125,0.632813 H 4.8242187 c -0.359037,0 -0.6308593,-0.273776 -0.6308593,-0.632813 v -2.734375 c 0,-0.359037 0.2718223,-0.632813 0.6308593,-0.632812 z M 10.922747,9.3203125 c -0.895738,0 -1.6328131,0.7370745 -1.6328131,1.6328125 V 13.6875 c 0,0.895738 0.7370751,1.632812 1.6328131,1.632813 h 2.839843 c 0.895738,0 1.632813,-0.737075 1.632813,-1.632813 v -2.734375 c 0,-0.895738 -0.737075,-1.6328125 -1.632813,-1.6328125 z m 0,1.0000005 h 2.839843 c 0.359037,0 0.632813,0.273775 0.632813,0.632812 V 13.6875 c 0,0.359037 -0.273776,0.632813 -0.632813,0.632813 h -2.839843 c -0.359037,0 -0.632813,-0.273776 -0.632813,-0.632813 v -2.734375 c 0,-0.359037 0.273776,-0.632813 0.632813,-0.632812 z m 0,-7.0000005 c -0.895738,0 -1.6328131,0.7370748 -1.6328131,1.6328125 V 7.6875 c 0,0.8957377 0.7370751,1.6328125 1.6328131,1.6328125 h 2.839843 c 0.895738,0 1.632813,-0.7370748 1.632813,-1.6328125 V 4.953125 c 0,-0.8957377 -0.737075,-1.6328125 -1.632813,-1.6328125 z m 0,1 h 2.839843 c 0.359037,0 0.632813,0.2737753 0.632813,0.6328125 V 7.6875 c 0,0.3590372 -0.273776,0.6328125 -0.632813,0.6328125 h -2.839843 c -0.359037,0 -0.632813,-0.2737753 -0.632813,-0.6328125 V 4.953125 c 0,-0.3590372 0.273776,-0.6328125 0.632813,-0.6328125 z m -6.0965751,-1 c -0.8957377,0 -1.6328125,0.7370748 -1.6328125,1.6328125 V 7.6875 c 0,0.8957377 0.7370748,1.6328125 1.6328125,1.6328125 h 2.8398437 c 0.8957378,0 1.6308594,-0.7370748 1.6308594,-1.6328125 V 4.953125 c 0,-0.8957377 -0.7351216,-1.6328125 -1.6308594,-1.6328125 z m 0,1 h 2.8398437 c 0.3590371,0 0.6308594,0.2737753 0.6308594,0.6328125 V 7.6875 c 0,0.3590372 -0.2718223,0.6328125 -0.6308594,0.6328125 H 4.8261719 C 4.4671348,8.3203125 4.1933594,8.0465372 4.1933594,7.6875 V 4.953125 c 0,-0.3590372 0.2737754,-0.6328125 0.6328125,-0.6328125 z" /><path
         id="path5"
         style="display:inline;fill:#98cbfe;fill-opacity:1;stroke-width:0.0150211;stroke-linecap:round;stroke-linejoin:round;paint-order:markers stroke fill;enable-background:new"
         transform="matrix(1.0716036,0,0,1.0716036,-0.64256442,-0.6676801)"
         d="m 4.8250043,9.8199978 h 2.8396154 c 0.6273874,0 1.1324682,0.5050812 1.1324682,1.1324682 v 2.735067 c 0,0.627388 -0.5050808,1.132469 -1.1324682,1.132469 H 4.8250043 c -0.6273874,0 -1.1324682,-0.505081 -1.1324682,-1.132469 v -2.735067 c 0,-0.627387 0.5050808,-1.1324682 1.1324682,-1.1324682 z m 6.0975437,0 h 2.839616 c 0.627387,0 1.132468,0.5050812 1.132468,1.1324682 v 2.735067 c 0,0.627388 -0.505081,1.132469 -1.132468,1.132469 h -2.839616 c -0.627387,0 -1.1324682,-0.505081 -1.1324682,-1.132469 v -2.735067 c 0,-0.627387 0.5050812,-1.1324682 1.1324682,-1.1324682 z m 0,-6 h 2.839616 c 0.627387,0 1.132468,0.5050809 1.132468,1.1324683 v 2.7350672 c 0,0.6273874 -0.505081,1.1324683 -1.132468,1.1324683 h -2.839616 c -0.627387,0 -1.1324682,-0.5050809 -1.1324682,-1.1324683 V 4.9524661 c 0,-0.6273874 0.5050812,-1.1324683 1.1324682,-1.1324683 z m -6.0970346,0 h 2.8396153 c 0.6273874,0 1.1324683,0.5050809 1.1324683,1.1324683 v 2.7350672 c 0,0.6273874 -0.5050809,1.1324683 -1.1324683,1.1324683 H 4.8255134 c -0.6273874,0 -1.1324682,-0.5050809 -1.1324682,-1.1324683 V 4.9524661 c 0,-0.6273874 0.5050808,-1.1324683 1.1324682,-1.1324683 z" /></g><g
       id="SAMPLE_NEAREST-5-1"
       style="display:inline;stroke-width:0.013369;enable-background:new"
       transform="matrix(0,-0.85486013,0.85486013,0,1.1640668,13.594442)"><path
         style="fill:#fefe00;stroke-width:0.00041778"
         d="M 2.984375,9.4969731 2.890625,9.4950325 2.695708,9.4526853 2.500791,9.4103378 2.3059599,9.3067322 2.1111289,9.2031263 1.9498351,9.04203 1.7885412,8.8809338 1.6787118,8.6613978 1.5688825,8.4418619 1.5316177,8.2209316 1.494353,8 1.5316177,7.7790697 1.5688825,7.5581394 1.6787118,7.3386034 1.7885412,7.1190675 1.9538043,6.9538044 2.1190674,6.7885412 2.3386035,6.6787119 2.5581395,6.5688825 2.7790698,6.5316178 3,6.4943531 3.2209303,6.5316181 3.4418606,6.5688831 3.6613966,6.6787125 3.8809325,6.7885418 4.0461956,6.953805 4.2114587,7.1190681 4.3212881,7.338604 4.4311175,7.55814 4.4683825,7.7790703 4.5056469,8 4.4683822,8.2209303 4.4311175,8.4418606 4.3212881,8.6613966 4.2114587,8.8809325 4.050165,9.0420288 3.8888712,9.203125 3.6950544,9.30619 3.5012378,9.4092553 3.2896816,9.454085 3.078125,9.4989147 2.984375,9.4969741 Z"
         id="path305-1-3" /><path
         style="fill:#323232;stroke-width:0.00041778"
         d="M 2.984375,9.9969731 2.765625,9.9950325 2.5625,9.9514066 2.359375,9.9077803 2.0948078,9.777155 1.8302406,9.6465297 1.5918561,9.4081453 1.3534716,9.1697606 1.2230479,8.9051934 1.0926243,8.6406262 l -0.04577,-0.21875 -0.04577,-0.21875 v -0.203125 -0.203125 l 0.04577,-0.21875 0.04577,-0.21875 L 1.2230479,7.0948091 1.3534716,6.8302419 1.5918561,6.5918572 1.8302406,6.3534728 2.0948078,6.2230491 2.359375,6.0926256 l 0.21875,-0.04577 0.21875,-0.045769 H 3 3.203125 l 0.21875,0.045769 0.21875,0.04577 0.2645672,0.1304235 0.2645672,0.1304237 0.2383847,0.2383844 0.2383843,0.2383847 0.1304238,0.2645672 0.1304234,0.2645671 0.04577,0.21875 0.045769,0.21875 v 0.203125 0.203125 l -0.045769,0.21875 -0.04577,0.21875 L 4.7769522,8.9051934 4.6465284,9.1697606 4.4081441,9.4081453 4.1697594,9.6465297 3.9051922,9.7769534 3.640625,9.9073769 l -0.21875,0.04577 -0.21875,0.045769 -0.21875,-0.00194 z m 0,-0.5 0.09375,0.00194 0.2115566,-0.04483 0.2115562,-0.04483 L 3.6950544,9.3061891 3.8888713,9.2031241 4.050165,9.0420278 4.2114587,8.8809316 4.3212881,8.6613956 4.4311175,8.4418597 4.4683822,8.2209294 4.5056469,7.9999991 4.4683822,7.7790687 4.4311175,7.5581384 4.3212881,7.3386025 4.2114587,7.1190666 4.0461956,6.9538034 3.8809325,6.7885403 3.6613966,6.6787109 3.4418606,6.5688816 3.2209303,6.5316169 3,6.4943531 2.7790698,6.5316178 2.5581395,6.5688825 2.3386035,6.6787119 2.1190674,6.7885412 1.9538043,6.9538044 1.7885413,7.1190675 1.6787118,7.3386034 1.5688825,7.5581394 1.5316178,7.7790697 1.494353,8 l 0.037265,0.2209303 0.037265,0.2209303 0.1098293,0.219536 0.1098294,0.2195359 0.1612939,0.1610963 0.1612938,0.1610962 0.194831,0.1036059 0.1948311,0.1036057 0.194917,0.042347 0.194917,0.042347 0.09375,0.00194 z"
         id="path297-7-8"
         sodipodi:nodetypes="cccccccccccccccccccccccccccccccccccccccccccccccccccccccccccccccccccccccccccccccccccccccccccccc" /></g></g></svg>
