<?xml version="1.0" encoding="UTF-8" standalone="no"?>
<!-- Created with Inkscape (http://www.inkscape.org/) -->

<svg
   version="1.1"
   id="svg2"
   width="1600"
   height="1600"
   viewBox="0 0 1600 1600"
   sodipodi:docname="node_fieldtolist.svg"
   inkscape:version="1.4.3 (0d15f75, 2025-12-25)"
   xmlns:inkscape="http://www.inkscape.org/namespaces/inkscape"
   xmlns:sodipodi="http://sodipodi.sourceforge.net/DTD/sodipodi-0.dtd"
   xmlns="http://www.w3.org/2000/svg"
   xmlns:svg="http://www.w3.org/2000/svg"
   xmlns:rdf="http://www.w3.org/1999/02/22-rdf-syntax-ns#"
   xmlns:cc="http://creativecommons.org/ns#"
   xmlns:dc="http://purl.org/dc/elements/1.1/">
  <metadata
     id="metadata8">
    <rdf:RDF>
      <cc:Work
         rdf:about="">
        <dc:format>image/svg+xml</dc:format>
        <dc:type
           rdf:resource="http://purl.org/dc/dcmitype/StillImage" />
      </cc:Work>
    </rdf:RDF>
  </metadata>
  <defs
     id="defs6" />
  <sodipodi:namedview
     pagecolor="#808080"
     bordercolor="#666666"
     borderopacity="1"
     objecttolerance="10"
     gridtolerance="10"
     guidetolerance="10"
     inkscape:pageopacity="0"
     inkscape:pageshadow="2"
     inkscape:window-width="2560"
     inkscape:window-height="1009"
     id="namedview4"
     showgrid="true"
     inkscape:zoom="0.7071068"
     inkscape:cx="1266.4282"
     inkscape:cy="558.61434"
     inkscape:window-x="1912"
     inkscape:window-y="-8"
     inkscape:window-maximized="1"
     inkscape:current-layer="g7"
     inkscape:showpageshadow="0"
     inkscape:pagecheckerboard="true"
     inkscape:deskcolor="#d1d1d1">
    <inkscape:grid
       id="grid1"
       units="px"
       originx="0"
       originy="0"
       spacingx="100"
       spacingy="100"
       empcolor="#0099e5"
       empopacity="0.30196078"
       color="#0099e5"
       opacity="0.14901961"
       empspacing="5"
       enabled="true"
       visible="true" />
  </sodipodi:namedview>
  <g
     id="FIELD_AT_INDEX"
     transform="matrix(100,0,0,100,0,4.9999997e-5)"
     style="stroke-width:0.0114286"
     inkscape:label="FIELD_TO_LIST">
    <path
       style="fill:none;stroke-width:0.000357143"
       d="M 0,8 V 0 h 8 8 v 8 8 H 8 0 Z m 13.241351,6.503325 c 1.305728,-0.652968 2.086146,-1.060485 2.139473,-1.117187 0.04617,-0.0491 0.09891,-0.12885 0.117188,-0.177235 0.0464,-0.122806 0.04631,-5.264083 -9.4e-5,-5.3865561 -0.01833,-0.048385 -0.06404,-0.12119 -0.101562,-0.1617897 -0.03753,-0.0406 -1.007274,-0.5433341 -2.154993,-1.1171875 C 11.439139,5.6422672 11.135652,5.5 11.015625,5.5 10.895598,5.5 10.592111,5.6422672 8.7898869,6.5433697 7.6421678,7.1172231 6.6724213,7.6199575 6.6348941,7.6605572 c -0.037527,0.0406 -0.08323,0.113405 -0.1015625,0.1617897 -0.046404,0.1224731 -0.046493,5.2637501 -9.38e-5,5.3865561 0.018281,0.04839 0.071015,0.12814 0.1171875,0.177234 0.053327,0.0567 0.8337453,0.46422 2.1394735,1.117188 1.9443082,0.972308 2.0647332,1.027925 2.2257262,1.027925 0.160993,0 0.281418,-0.05562 2.225726,-1.027925 z M 6.0457591,13.371837 C 6.0076297,13.263767 6.0005106,12.815628 6.0003506,10.51342 6.0001319,7.3556525 5.9785497,7.5844506 6.3055744,7.2775041 6.4657966,7.1271184 6.7066053,6.9988928 8.5873578,6.0625 l 2.1026572,-1.046875 0.263663,-0.01099 c 0.178875,-0.00746 0.30809,0.00415 0.401819,0.036084 l 0.138156,0.047075 0.01099,-1.7704594 c 0.006,-0.9737527 0.0038,-1.934889 -0.005,-2.1358585 -0.01726,-0.39405824 -0.04313,-0.46159571 -0.230409,-0.60141999 L 11.182917,0.515625 H 6 0.81708316 l -0.0862982,0.0644309 c -0.047464,0.035437 -0.1152921,0.103264 -0.15072906,0.15072668 L 0.515625,0.81707841 0.50670444,6.9163516 c -0.004906,3.3546004 -8.3125e-4,6.1445624 0.009056,6.1999154 0.0223815,0.125305 0.15376078,0.28498 0.27956531,0.339777 0.0766424,0.03338 0.60433895,0.04175 2.69547555,0.04273 l 2.6001762,0.0012 -0.045218,-0.128163 z"
       id="path855"
       inkscape:connector-curvature="0" />
    <path
       style="fill:#fefefe;stroke-width:0.000357143"
       d="M 1,7 V 1 h 5 5 v 1.9960241 l 0,3.5039679 h 0.01196 L 9.6386864,6.539011 6.006965,11.999984 5.9983037,13 H 3.4991519 1 Z m 3.2692603,5.419944 C 4.3166994,12.384507 4.3845072,12.316679 4.4199441,12.269215 4.4823641,12.18561 4.484375,12.145996 4.484375,11 4.484375,9.8540038 4.482365,9.8143897 4.419944,9.730785 4.3845072,9.6833209 4.3166791,9.6154928 4.269215,9.5800559 4.1856103,9.5176359 4.1459962,9.515625 3,9.515625 c -1.1459963,0 -1.1856103,0.00201 -1.269215,0.064431 -0.047464,0.035437 -0.1152921,0.1032428 -0.1507291,0.1506797 -0.061764,0.08268 -0.06482,0.1317441 -0.073832,1.1855693 -0.00517,0.604626 -0.0011,1.144609 0.00906,1.199962 0.022973,0.12527 0.1542213,0.284785 0.2800457,0.340359 0.075272,0.03325 0.3361692,0.04059 1.2414905,0.03492 1.1030382,-0.0069 1.1494385,-0.0096 1.2324441,-0.0716 z m 0,-3.9999999 C 4.3166994,8.3845072 4.3845072,8.3166791 4.4199441,8.269215 4.4823641,8.1856103 4.484375,8.1459963 4.484375,7 4.484375,5.8540038 4.482365,5.8143897 4.419944,5.730785 4.3845072,5.6833209 4.3166791,5.6154928 4.269215,5.5800559 4.1856103,5.5176359 4.1459962,5.515625 3,5.515625 c -1.1459963,0 -1.1856103,0.00201 -1.269215,0.064431 -0.047464,0.035437 -0.1152921,0.1032429 -0.1507291,0.1506797 -0.061764,0.08268 -0.06482,0.1317441 -0.073832,1.1855691 -0.00517,0.6046262 -0.0011,1.1446094 0.00906,1.1999628 0.022973,0.1252697 0.1542213,0.2847841 0.2800457,0.3403584 0.075272,0.033247 0.3361692,0.040585 1.2414905,0.034921 1.1030382,-0.0069 1.1494385,-0.0096 1.2324441,-0.071602 z m 0,-4 C 4.3166994,4.3845072 4.3845072,4.3166791 4.4199441,4.269215 4.4823641,4.1856103 4.484375,4.1459962 4.484375,3 4.484375,1.8540037 4.482365,1.8143897 4.419944,1.730785 4.3845072,1.683321 4.3166791,1.6154929 4.269215,1.5800559 4.1856103,1.517636 4.1459962,1.515625 3,1.515625 c -1.1459963,0 -1.1856103,0.00201 -1.269215,0.064431 -0.047464,0.035437 -0.1152921,0.1032429 -0.1507291,0.1506798 -0.061764,0.08268 -0.06482,0.131744 -0.073832,1.1855691 -0.00517,0.6046261 -0.0011,1.1446093 0.00906,1.1999627 0.022973,0.1252697 0.1542213,0.2847841 0.2800457,0.3403584 0.075272,0.033247 0.3361692,0.040585 1.2414905,0.034921 1.1030382,-0.0069 1.1494385,-0.0096 1.2324441,-0.071603 z M 10,2.5 V 2 H 7.5 5 V 2.5 3 H 7.5 10 Z"
       id="path853"
       inkscape:connector-curvature="0"
       sodipodi:nodetypes="ccccccccccccccssssssssccccccsssssssscsscccsssssssscssccccccccccc" />
    <path
       style="fill:#98cbfe;stroke-width:0.000357143"
       d="M 2,3 V 2 H 3 4 V 3 4 H 3 2 Z"
       id="path851"
       inkscape:connector-curvature="0" />
    <path
       style="fill:#fefe00;stroke-width:0.000357143"
       d="M 2,7 V 6 H 3 4 V 7 8 H 3 2 Z"
       id="path849"
       inkscape:connector-curvature="0" />
    <path
       style="fill:#fe6565;stroke-width:0.000357143"
       d="m 2,11 v -1 h 1 1 v 1 1 H 3 2 Z"
       id="path845"
       inkscape:connector-curvature="0" />
    <path
       style="fill:#323232;stroke-width:0.000357143"
       d="m 0.79532572,13.456044 c -0.12580453,-0.0548 -0.25718378,-0.214472 -0.27956531,-0.339777 -0.009887,-0.05535 -0.0139623,-2.845315 -0.009056,-6.1999154 L 0.515625,0.81707841 0.58005591,0.73078259 C 0.61549288,0.68331991 0.68332097,0.61549287 0.73078497,0.58005591 L 0.81708316,0.515625 H 6 11.182917 l 0.0863,0.0644309 c 0.187279,0.13982428 0.213154,0.20736175 0.230409,0.60142 0.0088,0.2009695 0.01106,1.1623179 0.005,2.1363297 l 0.0046,3.3245197 -0.125753,-0.044368 c -0.06912,-0.024403 -0.180188,-0.044368 -0.246777,-0.044368 H 11.015625 L 11,3 V 1 H 6 1 v 6 6 H 3.5 6 v 0.121071 c 0,0.06659 0.02047,0.179089 0.045489,0.25 L 6.0909775,13.5 3.4908012,13.498778 c -2.0911365,-9.84e-4 -2.61883304,-0.0093 -2.69547548,-0.04273 z M 1.7953257,12.456626 C 1.6695013,12.401052 1.5382533,12.241537 1.51528,12.116267 1.5051287,12.060914 1.5010535,11.520931 1.506224,10.916305 1.5152359,9.8624797 1.5182915,9.8134153 1.5800559,9.7307356 1.6154929,9.6832987 1.683321,9.6154928 1.730785,9.5800559 1.8143897,9.5176359 1.8540037,9.515625 3,9.515625 c 1.1459962,0 1.1856103,0.00201 1.269215,0.064431 0.047464,0.035437 0.1152922,0.103265 0.1507291,0.1507291 0.06242,0.083605 0.064431,0.1232187 0.064431,1.2692149 0,1.145996 -0.00201,1.18561 -0.064431,1.269215 -0.035437,0.04746 -0.1032447,0.115292 -0.1506838,0.150729 -0.083006,0.06201 -0.1294059,0.0647 -1.2324441,0.0716 -0.9053213,0.0057 -1.1662182,-0.0017 -1.2414905,-0.03492 z M 4,11 V 10 H 3 2 v 1 1 H 3 4 Z M 1.7953257,8.4566259 C 1.6695013,8.4010516 1.5382533,8.2415372 1.51528,8.1162675 1.5051287,8.0609141 1.5010535,7.5209309 1.506224,6.9163047 1.5152359,5.8624797 1.5182915,5.8134153 1.5800559,5.7307356 1.6154929,5.6832987 1.683321,5.6154928 1.730785,5.5800559 1.8143897,5.5176359 1.8540037,5.515625 3,5.515625 c 1.1459962,0 1.1856103,0.00201 1.269215,0.064431 0.047464,0.035437 0.1152922,0.103265 0.1507291,0.1507291 0.06242,0.083605 0.064431,0.1232188 0.064431,1.269215 0,1.1459963 -0.00201,1.1856103 -0.064431,1.269215 -0.035437,0.047464 -0.1032447,0.1152921 -0.1506838,0.150729 -0.083006,0.062005 -0.1294059,0.064701 -1.2324441,0.071602 -0.9053213,0.00566 -1.1662182,-0.00167 -1.2414905,-0.03492 z M 4,7 V 6 H 3 2 V 7 8 H 3 4 Z M 1.7953257,4.4566259 C 1.6695013,4.4010516 1.5382533,4.2415372 1.51528,4.1162675 1.5051287,4.0609141 1.5010535,3.5209309 1.506224,2.9163048 1.5152359,1.8624797 1.5182915,1.8134153 1.5800559,1.7307357 1.6154929,1.6832988 1.683321,1.6154929 1.730785,1.5800559 1.8143897,1.517636 1.8540037,1.515625 3,1.515625 c 1.1459962,0 1.1856103,0.00201 1.269215,0.064431 0.047464,0.035437 0.1152922,0.1032651 0.1507291,0.1507291 0.06242,0.083605 0.064431,0.1232187 0.064431,1.269215 0,1.1459962 -0.00201,1.1856103 -0.064431,1.269215 -0.035437,0.047464 -0.1032447,0.1152921 -0.1506838,0.150729 -0.083006,0.062005 -0.1294059,0.064701 -1.2324441,0.071603 -0.9053213,0.00566 -1.1662182,-0.00168 -1.2414905,-0.034921 z M 4,3 V 2 H 3 2 V 3 4 H 3 4 Z M 5,2.5 V 2 H 7.5 10 V 2.5 3 H 7.5 5 Z m 0.02,4 V 6 h 2.5 2.5 V 6.5 7 h -2.5 -2.5 z m 0,4 V 10 h 2.5 2.5 v 0.5 0.5 h -2.5 -2.5 z"
       id="path839"
       inkscape:connector-curvature="0"
       sodipodi:nodetypes="csscsscccsscccscccccccccsscccccsssssssscccccccccccccccssssssssssccccccccccccsssssssssscccccccccccccccccccccccccccccccccccccc" />
    <g
       id="g7"
       inkscape:label="LIST"
       style="stroke-width:0.0114286">
      <g
         id="rect1-2"
         style="opacity:1"
         transform="translate(-0.01736611,0.999992)">
        <path
           style="baseline-shift:baseline;display:inline;overflow:visible;vector-effect:none;fill:#333333;stroke-linecap:round;stroke-linejoin:round;paint-order:markers stroke fill;enable-background:accumulate;stop-color:#000000;stop-opacity:1"
           d="M 6,5.5 A 0.50005,0.50005 0 0 0 5.5,6 V 8 A 0.50005,0.50005 0 0 0 6,8.5 h 9 A 0.50005,0.50005 0 0 0 15.5,8 V 6 A 0.50005,0.50005 0 0 0 15,5.5 Z m 0.5,1 h 8 v 1 h -8 z"
           id="path6" />
      </g>
      <rect
         style="fill:#b3b3b3;stroke:#333333;stroke-width:1;stroke-linecap:round;stroke-linejoin:round;paint-order:markers stroke fill"
         id="rect1-5"
         width="9"
         height="2.0000005"
         x="5.9826341"
         y="9.9999924"
         rx="0"
         ry="0" />
      <g
         id="rect1-5-7-2"
         style="opacity:1"
         transform="translate(-0.01736611,0.999992)">
        <path
           style="baseline-shift:baseline;display:inline;overflow:visible;vector-effect:none;fill:#333333;stroke-linecap:round;stroke-linejoin:round;paint-order:markers stroke fill;enable-background:accumulate;stop-color:#000000;stop-opacity:1"
           d="M 6,8.5 A 0.50005,0.50005 0 0 0 5.5,9 v 2 A 0.50005,0.50005 0 0 0 6,11.5 h 9 A 0.50005,0.50005 0 0 0 15.5,11 V 9 A 0.50005,0.50005 0 0 0 15,8.5 Z m 0.5,1 h 8 v 1 h -8 z"
           id="path4" />
      </g>
      <g
         id="rect1-5-1-1"
         style="opacity:1;stroke:none"
         transform="translate(0.00263435,0.999992)">
        <path
           style="baseline-shift:baseline;display:inline;overflow:visible;vector-effect:none;fill:#333333;stroke:none;stroke-linecap:round;stroke-linejoin:round;paint-order:markers stroke fill;enable-background:accumulate;stop-color:#000000;stop-opacity:1"
           d="M 6,11.5 A 0.50005,0.50005 0 0 0 5.5,12 v 2 A 0.50005,0.50005 0 0 0 6,14.5 h 9 A 0.50005,0.50005 0 0 0 15.5,14 V 12 A 0.50005,0.50005 0 0 0 15,11.5 Z m 0.5,1 h 8 v 1 h -8 z"
           id="path2" />
        <path
           style="baseline-shift:baseline;display:inline;overflow:visible;vector-effect:none;fill:#b3b3b3;stroke:none;stroke-linecap:round;stroke-linejoin:round;paint-order:markers stroke fill;enable-background:accumulate;stop-color:#000000;stop-opacity:1"
           d="m 6,12 h 9 v 2 H 6 Z"
           id="path3" />
      </g>
      <rect
         style="fill:#b3b3b3;stroke:none;stroke-width:1;stroke-linecap:round;stroke-linejoin:round;paint-order:markers stroke fill"
         id="rect1-5-7-4"
         width="9"
         height="2.0000005"
         x="5.9826341"
         y="6.9999914"
         rx="0"
         ry="0" />
      <rect
         style="opacity:1;fill:#666666;stroke:none;stroke-width:1.41421;stroke-linecap:round;stroke-linejoin:round;paint-order:markers stroke fill"
         id="rect2"
         width="9.04"
         height="0.99999332"
         x="5.9626336"
         y="7.9999995" />
      <rect
         style="fill:#b3b3b3;stroke:none;stroke-width:1;stroke-linecap:round;stroke-linejoin:round;paint-order:markers stroke fill"
         id="rect1-5-7"
         width="9"
         height="2.0000005"
         x="5.9826341"
         y="9.9999924"
         rx="0"
         ry="0" />
      <rect
         style="fill:#666666;stroke:none;stroke-width:1.41421;stroke-linecap:round;stroke-linejoin:round;paint-order:markers stroke fill"
         id="rect2-2"
         width="9.04"
         height="1.0000002"
         x="5.9626341"
         y="10.999992" />
      <rect
         style="fill:#666666;stroke:none;stroke-width:1.41421;stroke-linecap:round;stroke-linejoin:round;paint-order:markers stroke fill"
         id="rect2-2-7"
         width="9.04"
         height="1.0000002"
         x="5.9826345"
         y="13.999991" />
    </g>
  </g>
</svg>
