<?xml version="1.0" encoding="UTF-8" standalone="no"?>
<!-- Created with Inkscape (http://www.inkscape.org/) -->

<svg
   version="1.1"
   id="svg2"
   width="1600"
   height="1600"
   viewBox="0 0 1600 1600"
   sodipodi:docname="node_clusterbydistance.svg"
   inkscape:version="1.4.3 (0d15f75, 2025-12-25)"
   xml:space="preserve"
   xmlns:inkscape="http://www.inkscape.org/namespaces/inkscape"
   xmlns:sodipodi="http://sodipodi.sourceforge.net/DTD/sodipodi-0.dtd"
   xmlns="http://www.w3.org/2000/svg"
   xmlns:svg="http://www.w3.org/2000/svg"
   xmlns:rdf="http://www.w3.org/1999/02/22-rdf-syntax-ns#"
   xmlns:cc="http://creativecommons.org/ns#"
   xmlns:dc="http://purl.org/dc/elements/1.1/"><metadata
     id="metadata8"><rdf:RDF><cc:Work
         rdf:about=""><dc:format>image/svg+xml</dc:format><dc:type
           rdf:resource="http://purl.org/dc/dcmitype/StillImage" /></cc:Work></rdf:RDF></metadata><defs
     id="defs6" /><sodipodi:namedview
     pagecolor="#808080"
     bordercolor="#666666"
     borderopacity="1"
     objecttolerance="10"
     gridtolerance="10"
     guidetolerance="10"
     inkscape:pageopacity="0"
     inkscape:pageshadow="2"
     inkscape:window-width="1920"
     inkscape:window-height="1009"
     id="namedview4"
     showgrid="true"
     inkscape:zoom="0.5"
     inkscape:cx="1368"
     inkscape:cy="770"
     inkscape:window-x="-8"
     inkscape:window-y="-8"
     inkscape:window-maximized="1"
     inkscape:current-layer="MERGE_CENTER"
     inkscape:showpageshadow="0"
     inkscape:pagecheckerboard="true"
     inkscape:deskcolor="#d1d1d1"><inkscape:grid
       id="grid4"
       units="px"
       originx="0"
       originy="0"
       spacingx="100"
       spacingy="100"
       empcolor="#0099e5"
       empopacity="0.30196078"
       color="#0099e5"
       opacity="0.14901961"
       empspacing="5"
       enabled="true"
       visible="true" /></sodipodi:namedview><g
     id="DRIVER_DISTANCE"
     transform="matrix(100,0,0,100,0,4.9999997e-5)"
     style="stroke-width:0.0114286"
     inkscape:label="node_clusterbydistance"><g
       id="path821-0"
       style="opacity:1"
       transform="rotate(45,2.1624648,10.417986)"><path
         id="path4"
         style="baseline-shift:baseline;display:inline;overflow:visible;vector-effect:none;fill:#333333;enable-background:accumulate;stop-color:#000000;stop-opacity:1"
         d="m 11.362485,0.64923386 c -0.760442,0.0630614 -1.223218,0.91754164 -0.892578,1.59960944 0.06854,0.1413936 0.08057,0.1251959 0.113281,0.1640625 0.03271,0.038867 0.07179,0.081148 0.117188,0.1308594 0.09079,0.099423 0.210288,0.2263332 0.351562,0.3730468 0.28255,0.2934272 0.649596,0.6673824 1.019532,1.0371094 0.369935,0.369727 0.741491,0.7351169 1.033203,1.015625 0.145856,0.140254 0.270913,0.2581933 0.36914,0.3476562 0.04911,0.044731 0.09224,0.082943 0.13086,0.1152344 0.03863,0.032291 0.0022,0.040407 0.179687,0.1171875 0.506345,0.2189731 1.076262,0.086362 1.390625,-0.3886719 C 15.406144,4.811654 15.434487,4.4205051 15.251155,4.041812 15.167575,3.869151 15.133522,3.8673916 15.059751,3.7839995 14.985979,3.7006075 14.889929,3.596105 14.762876,3.463687 14.508769,3.1988511 14.135981,2.8233251 13.626157,2.3152495 12.833339,1.5251502 12.458943,1.1429803 12.180845,0.91681198 12.041795,0.80372784 11.908502,0.71396262 11.739438,0.66876511 11.570375,0.6235676 11.434276,0.64328054 11.362485,0.64923386 Z M 1.6453276,10.366392 c -0.76044041,0.06306 -1.22321807,0.917539 -0.89257812,1.599609 0.0685413,0.141393 0.0805727,0.125196 0.11328125,0.164062 0.0327085,0.03887 0.071792,0.08115 0.11718751,0.13086 0.090791,0.09942 0.21028766,0.226333 0.35156256,0.373047 0.2825497,0.293427 0.6495955,0.667382 1.0195312,1.037109 0.3699358,0.369727 0.741491,0.735117 1.0332032,1.015625 0.145856,0.140254 0.2709134,0.258193 0.3691406,0.347656 0.049114,0.04473 0.092234,0.08294 0.1308594,0.115235 0.038625,0.03229 0.00215,0.04041 0.1796875,0.117187 0.5063464,0.218973 1.0762602,0.08637 1.3906249,-0.388672 0.2311579,-0.349304 0.2594885,-0.740458 0.076172,-1.11914 C 5.4504181,13.586313 5.4163649,13.584549 5.3425933,13.501157 5.2688217,13.417765 5.1727717,13.313263 5.0457183,13.180845 4.7916114,12.916009 4.4188233,12.540483 3.9089995,12.032407 3.1161815,11.242309 2.741785,10.860137 2.463687,10.63397 2.324638,10.520886 2.1913422,10.431121 2.0222808,10.385923 1.8532193,10.340725 1.7171182,10.360439 1.6453276,10.366392 Z m 2.6210898,4.442441 C 4.1126308,14.742323 1.2850004,11.916291 1.203008,11.74715 1.0118328,11.352779 1.259802,10.900627 1.6866713,10.865227 c 0.3244334,-0.0269 0.2835385,-0.06016 1.8697342,1.520594 1.0171781,1.01369 1.4816978,1.497822 1.5270678,1.591544 0.089656,0.185205 0.071172,0.451553 -0.043346,0.624602 -0.1511141,0.228349 -0.5051488,0.323007 -0.7737099,0.206866 z M 13.983575,5.0916751 c -0.153787,-0.06651 -2.981417,-2.8925422 -3.063409,-3.0616826 -0.191176,-0.394371 0.05679,-0.8465235 0.483663,-0.8819229 0.324433,-0.026904 0.283539,-0.060163 1.869734,1.5205934 1.017178,1.01369 1.481698,1.4978228 1.527067,1.5915443 0.08966,0.185205 0.07117,0.4515535 -0.04335,0.6246022 -0.151114,0.2283486 -0.505149,0.3230066 -0.773709,0.2068656 z M 11.649595,3.5711089 C 11.370796,3.4989322 11.063494,3.5331222 10.798032,3.6902495 10.629421,3.7900505 10.581137,3.8533526 10.456235,3.9695464 10.331334,4.0857402 10.186751,4.2283746 10.044126,4.3718901 9.9015006,4.5154057 9.7624429,4.6589629 9.6495942,4.7820464 9.5931699,4.8435881 9.5439955,4.9005815 9.5011567,4.9519683 c -0.042839,0.051387 -0.071811,0.071791 -0.1289062,0.1816406 -0.098346,0.18923 -0.112575,0.334395 -0.1132813,0.5097656 -0.00193,0.4794552 0.3370267,0.9290108 0.7910158,1.0742188 0.360753,0.1153875 0.613544,0.042638 0.896485,-0.125 0.174509,-0.1033942 0.212664,-0.1637634 0.335937,-0.2792969 0.123273,-0.1155335 0.268504,-0.2552856 0.410156,-0.3984375 0.141652,-0.1431519 0.27865,-0.2879156 0.390625,-0.4101563 0.05599,-0.06112 0.106129,-0.1153767 0.148438,-0.1660156 0.04231,-0.050639 0.06848,-0.069137 0.126953,-0.1816406 C 12.548584,4.7914739 12.527943,4.438321 12.331235,4.0906402 12.178424,3.8205611 11.928393,3.6432856 11.649595,3.5711089 Z M 8.7910156,6.4296875 C 8.5122171,6.3575108 8.2049149,6.3917009 7.9394531,6.5488281 7.7708423,6.6486291 7.7225578,6.7119312 7.5976562,6.828125 7.4727547,6.9443188 7.3281721,7.0869532 7.1855469,7.2304687 7.0429217,7.3739843 6.9038643,7.5175416 6.7910156,7.640625 6.7345913,7.7021667 6.6854169,7.7591601 6.6425781,7.8105469 6.5997393,7.8619337 6.5707671,7.882338 6.5136719,7.9921875 6.4153065,8.1814382 6.4010965,8.3265908 6.4003906,8.5019531 c -0.00193,0.4794546 0.3370262,0.929011 0.7910156,1.0742188 0.360749,0.1153851 0.6135449,0.042637 0.8964844,-0.125 C 8.262402,9.3477772 8.3005554,9.2874085 8.4238281,9.171875 8.5471009,9.0563415 8.6923326,8.9165893 8.8339844,8.7734375 8.9756362,8.6302857 9.1126345,8.4855214 9.2246094,8.3632813 9.2805968,8.3021612 9.3307381,8.2479038 9.3730469,8.1972656 9.4153557,8.1466275 9.4415302,8.1281188 9.5,8.015625 9.6900082,7.6500571 9.6693795,7.2969086 9.4726563,6.9492187 9.3198452,6.6791393 9.0698141,6.5018642 8.7910156,6.4296875 Z M 5.932437,9.2882661 C 5.6536381,9.2160896 5.3463357,9.2502794 5.0808745,9.4074067 4.9122618,9.5072082 4.8639792,9.5705098 4.7390776,9.6867036 4.6141761,9.8028974 4.4695935,9.9455316 4.3269683,10.089048 4.1843431,10.232563 4.0452856,10.376121 3.932437,10.499204 c -0.056424,0.06154 -0.1055987,0.118535 -0.1484375,0.169922 -0.042839,0.05139 -0.071811,0.07179 -0.1289062,0.181641 -0.098362,0.189246 -0.1125754,0.334403 -0.1132813,0.509765 -0.00193,0.479455 0.33702,0.929014 0.7910156,1.074219 0.3607386,0.115377 0.6135387,0.04264 0.8964844,-0.125 C 5.4038192,12.206357 5.4419769,12.145988 5.5652495,12.030454 5.6885221,11.91492 5.833754,11.775168 5.9754058,11.632017 6.1170575,11.488865 6.254056,11.3441 6.3660308,11.22186 6.4220178,11.16074 6.4721595,11.106483 6.5144683,11.055845 6.556777,11.005207 6.5829516,10.986698 6.6414214,10.874204 6.8314293,10.508636 6.8108008,10.155487 6.6140776,9.8077974 6.4612667,9.5377172 6.2112359,9.3604426 5.932437,9.2882661 Z M 4.4848056,11.958004 c 0.057379,-0.286897 -0.4443809,-0.31176 -0.4432403,-0.595488 4.188e-4,-0.104043 0.023127,-0.21504 0.05754,-0.28125 0.07808,-0.150223 1.0634481,-1.1417434 1.2363872,-1.2441056 0.2926053,-0.173194 0.6788734,-0.07356 0.8436131,0.2176036 0.095355,0.168531 0.1034985,0.425753 0.018648,0.589002 -0.074894,0.144093 -1.06012,1.139752 -1.2237297,1.236689 -0.1426,0.08449 -0.5158554,0.210734 -0.4892185,0.07755 z M 7.3433842,9.0994239 C 7.0647121,9.0102911 6.8990033,8.7876639 6.9001439,8.5039373 c 4.188e-4,-0.1040428 0.023127,-0.2150409 0.05754,-0.28125 0.07808,-0.1502237 1.0634482,-1.1417431 1.2363872,-1.2441059 0.2926053,-0.1731935 0.6788735,-0.073558 0.8436131,0.217604 0.095355,0.168531 0.1034985,0.4257531 0.018648,0.5890019 -0.074894,0.1440934 -1.06012,1.1397525 -1.2237297,1.2366881 -0.1426,0.084488 -0.3598525,0.118926 -0.4892183,0.077548 z M 10.201963,6.2408453 c -0.2838442,0.070961 -0.4443814,-0.31176 -0.4432404,-0.5954866 4.19e-4,-0.1040428 0.02313,-0.2150409 0.05754,-0.28125 0.07808,-0.1502238 1.0634484,-1.1417431 1.2363874,-1.2441059 0.292605,-0.1731935 0.678873,-0.073558 0.843613,0.217604 0.09535,0.168531 0.103498,0.4257531 0.01865,0.5890019 -0.07489,0.1440934 -1.06012,1.1397525 -1.223729,1.2366881 -0.1426,0.084488 -0.357452,0.044606 -0.489219,0.077548 z"
         sodipodi:nodetypes="ssscssssccscsssssscscssssccccssscssccsccssccssscsccsssssscsssssssccssssssssssssssssssssssscssscsssssssssssssssssssssssssscscssss" /><path
         style="fill:none;stroke-width:0.000357143"
         d="M 0,8 V 0 h 8 8 v 8 8 H 8 0 Z m 4.6796956,6.933714 C 4.9607437,14.797661 5.0845425,14.413124 4.9420559,14.118786 4.8966859,14.025064 4.4321662,13.540932 3.4149881,12.527242 1.8287924,10.946485 1.8696873,10.979744 1.5452539,11.006648 1.1183845,11.042048 0.87041544,11.4942 1.0615906,11.888571 1.143583,12.057712 3.9712134,14.883748 4.125,14.950254 c 0.1591,0.0688 0.3927941,0.06184 0.5546956,-0.01654 z m 0.1458991,-2.915776 c 0.1636097,-0.09693 1.1488356,-1.092595 1.2237297,-1.236688 0.08485,-0.163249 0.076706,-0.420471 -0.018648,-0.589002 C 5.8659362,9.9010859 5.4796681,9.8014506 5.1870628,9.9746441 5.0141237,10.077007 4.0287559,11.068526 3.9506756,11.21875 c -0.034413,0.06621 -0.057121,0.177207 -0.05754,0.28125 -0.00196,0.487897 0.5064888,0.770318 0.9324591,0.517938 z m 3,-2.9999999 C 7.9892044,8.9210025 8.9744303,7.9253434 9.0493244,7.78125 9.1341744,7.6180013 9.1260306,7.3607791 9.0306759,7.1922481 8.8659363,6.9010859 8.4796681,6.8014506 8.1870628,6.9746441 8.0141238,7.0770069 7.0287559,8.0685263 6.9506756,8.21875 6.9162628,8.2849591 6.8935544,8.3959572 6.8931359,8.5 6.8911734,8.9878972 7.3996247,9.2703181 7.8255947,9.0179381 Z m 3.0000003,-3 C 10.989204,5.9210025 11.97443,4.9253434 12.049324,4.78125 12.134174,4.6180013 12.126031,4.3607791 12.030676,4.1922481 11.865936,3.9010859 11.479668,3.8014506 11.187063,3.9746441 11.014124,4.0770069 10.028756,5.0685263 9.9506756,5.21875 9.9162628,5.2849591 9.8935544,5.3959572 9.8931359,5.5 9.8911734,5.9878972 10.399625,6.2703181 10.825595,6.0179381 Z m 3.854101,-1.084224 c 0.281048,-0.1360532 0.404847,-0.5205897 0.26236,-0.8149282 -0.04537,-0.093722 -0.50989,-0.5778543 -1.527068,-1.5915443 -1.586195,-1.58075635 -1.545301,-1.54749788 -1.869734,-1.5205933 -0.42687,0.035399 -0.674839,0.4875518 -0.483663,0.8819228 0.08199,0.1691404 2.909622,2.995177 3.063409,3.0616827 0.1591,0.068804 0.392794,0.061836 0.554696,-0.01654 z"
         id="path823"
         inkscape:connector-curvature="0" /><path
         style="fill:#fefefe;stroke-width:0.000357143"
         d="M 4.2664214,14.808833 C 4.1126348,14.742327 1.2850044,11.916291 1.203012,11.74715 c -0.1911752,-0.394371 0.056794,-0.846523 0.4836633,-0.881923 0.3244334,-0.0269 0.2835385,-0.06016 1.8697342,1.520594 1.0171781,1.01369 1.4816978,1.497822 1.5270678,1.591544 0.089656,0.185205 0.071172,0.451553 -0.043346,0.624602 -0.1511141,0.228349 -0.5051488,0.323007 -0.7737099,0.206866 z M 13.983579,5.0916751 C 13.829792,5.0251691 11.002162,2.1991329 10.92017,2.0299925 10.728994,1.6356215 10.97696,1.183469 11.403833,1.1480696 c 0.324433,-0.026904 0.283539,-0.060163 1.869734,1.5205934 1.017178,1.01369 1.481698,1.4978228 1.527068,1.5915443 0.08966,0.185205 0.07117,0.4515535 -0.04335,0.6246022 -0.151114,0.2283488 -0.505149,0.3230066 -0.77371,0.2068656 z"
         id="path821"
         inkscape:connector-curvature="0"
         sodipodi:nodetypes="ssccscscssssscc" /><path
         style="fill:#32fe98;stroke-width:0.000357143"
         d="m 4.4777976,11.954066 c -0.2786721,-0.08913 -0.4443809,-0.31176 -0.4432403,-0.595487 4.188e-4,-0.104043 0.023127,-0.215041 0.05754,-0.28125 0.07808,-0.150224 1.0634481,-1.1417434 1.2363872,-1.2441063 0.2926053,-0.1731935 0.6788734,-0.073558 0.8436131,0.2176043 0.095355,0.168531 0.1034985,0.425753 0.018648,0.589002 -0.074894,0.144093 -1.06012,1.139752 -1.2237297,1.236688 -0.1426,0.08449 -0.3598525,0.118926 -0.4892185,0.07755 z M 7.3363762,9.0954866 C 7.0577041,9.0063538 6.8919953,8.7837266 6.8931359,8.5 c 4.188e-4,-0.1040428 0.023127,-0.2150409 0.05754,-0.28125 0.07808,-0.1502237 1.0634482,-1.1417431 1.2363872,-1.2441059 0.2926053,-0.1731935 0.6788735,-0.073558 0.8436131,0.217604 0.095355,0.168531 0.1034985,0.4257531 0.018648,0.5890019 -0.074894,0.1440934 -1.06012,1.1397525 -1.2237297,1.2366881 -0.1426,0.084488 -0.3598525,0.118926 -0.4892183,0.077548 z M 10.194955,6.236908 C 9.9111108,6.3078689 9.7505739,5.925148 9.7517145,5.6414214 c 4.188e-4,-0.1040428 0.023127,-0.2150409 0.05754,-0.28125 0.07808,-0.1502238 1.0634485,-1.1417431 1.2363875,-1.2441059 0.292605,-0.1731935 0.678873,-0.073558 0.843613,0.217604 0.09535,0.168531 0.103498,0.4257531 0.01865,0.5890019 -0.07489,0.1440934 -1.06012,1.1397525 -1.223729,1.2366881 -0.1426,0.084488 -0.357452,0.044606 -0.489219,0.077548 z"
         id="path819"
         inkscape:connector-curvature="0"
         sodipodi:nodetypes="cssssscccsssssssssssscssss" /></g><g
       id="REMOVE_DOUBLES"
       style="opacity:1;stroke-width:0.0114286"
       transform="translate(19.727292,0.29947573)"><path
         id="path6-0-1-3"
         style="fill:#fe0000;stroke:#333333;stroke-width:1;stroke-dasharray:none"
         d="m -15.479034,3.5707023 c -0.562067,-0.094499 -1.056712,-0.6039542 -1.149588,-1.184008 -0.11917,-0.744269 0.431554,-1.4800434 1.197004,-1.5992128 0.739474,-0.1151256 1.471107,0.4362216 1.589701,1.1979728 0.13754,0.8834486 -0.662108,1.3903898 -1.175087,1.586912 z m 7.0180178,-0.00154 c -0.562067,-0.094499 -1.056712,-0.6039542 -1.149588,-1.184008 -0.11917,-0.744269 0.431554,-1.4800434 1.197003,-1.5992128 0.739474,-0.1151256 1.4711082,0.4362216 1.589702,1.1979728 0.1134459,0.728686 -0.4327444,1.466296 -1.175087,1.586912 -0.210184,0.03415 -0.46203,-0.00166 -0.46203,-0.00166 z m -8.1683748,5.8501443 c -0.11917,-0.744269 0.431554,-1.4800434 1.197003,-1.5992128 0.739474,-0.1151256 1.471107,0.4362216 1.589701,1.1979728 0.113446,0.728686 -0.432744,1.4662954 -1.175087,1.5869124 -0.78291,0.127205 -1.494986,-0.457257 -1.611617,-1.1856724 z m 7.0187868,-0.00154 c -0.11917,-0.744269 0.431554,-1.4800434 1.197003,-1.5992128 0.739474,-0.1151256 1.4711082,0.4362216 1.589702,1.1979728 0.1134459,0.728686 -0.4327444,1.4662954 -1.175087,1.5869114 -0.7829104,0.127205 -1.4949868,-0.457256 -1.611618,-1.1856714 z"
         sodipodi:nodetypes="csssccssssscsssscsssscs" /><path
         style="fill:#fea900;stroke-width:0.000357143"
         d="M -8.4989862,9.856143 C -8.9600734,9.642207 -9.0623226,9.0517055 -8.6981146,8.7061595 c 0.4456468,-0.4228112 1.1821309,-0.1074237 1.1821309,0.5062288 0,0.4985406 -0.5374266,0.8504937 -0.9830025,0.6437547 z"
         id="path825"
         inkscape:connector-curvature="0" /><path
         style="fill:#fea900;stroke-width:0.000357143"
         d="m -15.517774,9.8576844 c -0.461087,-0.213936 -0.563336,-0.8044375 -0.199128,-1.1499835 0.445646,-0.4228112 1.182131,-0.1074237 1.182131,0.5062288 0,0.4985406 -0.537427,0.8504943 -0.983003,0.6437547 z"
         id="path825-4"
         inkscape:connector-curvature="0" /><path
         style="fill:#fea900;stroke-width:0.000357143"
         d="m -8.4989862,2.8235321 c -0.461087,-0.213936 -0.563337,-0.8044375 -0.1991284,-1.1499835 0.4456468,-0.4228112 1.1821309,-0.1074237 1.1821309,0.5062288 0,0.4985406 -0.5374266,0.8504938 -0.9830025,0.6437547 z"
         id="path825-6"
         inkscape:connector-curvature="0" /><path
         style="fill:#fea900;stroke-width:0.000357143"
         d="M -15.517004,2.8250734 C -15.978091,2.6111375 -16.080341,2.020636 -15.716132,1.67509 c 0.445646,-0.4228112 1.18213,-0.1074237 1.18213,0.5062288 0,0.4985406 -0.537426,0.8504937 -0.983002,0.6437546 z"
         id="path825-6-6"
         inkscape:connector-curvature="0" /><path
         id="path6-0-1"
         style="fill:#fe0000;stroke-width:0.000357143"
         d="m -15.479034,3.5707023 c -0.562067,-0.094499 -1.056712,-0.6039542 -1.149588,-1.184008 -0.11917,-0.744269 0.431554,-1.48004338 1.197004,-1.59921278 0.739474,-0.1151256 1.471107,0.43622158 1.589701,1.19797278 0.113446,0.728686 -0.432744,1.466296 -1.175087,1.586912 -0.210184,0.03415 -0.249858,0.03401 -0.46203,-0.0017 z m 0.502096,-0.7347173 c 0.474732,-0.198005 0.591516,-0.8098991 0.221562,-1.1608951 -0.354086,-0.3359421 -0.91606,-0.2234712 -1.124133,0.2249788 -0.25614,0.5520491 0.340236,1.1704591 0.902571,0.9359163 z m 6.5159218,0.733176 c -0.562067,-0.094499 -1.056712,-0.6039542 -1.149588,-1.184008 -0.11917,-0.744269 0.431554,-1.48004344 1.1970036,-1.59921284 0.7394741,-0.1151256 1.4711078,0.43622164 1.5897016,1.19797284 0.1134459,0.728686 -0.4327444,1.466296 -1.1750872,1.586912 -0.2101837,0.03415 -0.2498575,0.03401 -0.46203,-0.0017 z m 0.5020963,-0.7347173 c 0.4747321,-0.198005 0.5915153,-0.8098991 0.2215621,-1.1608951 -0.3540862,-0.3359421 -0.9160606,-0.2234712 -1.1241331,0.2249788 -0.2561403,0.5520491 0.340236,1.1704591 0.902571,0.9359163 z m -7.5208841,7.7688703 c -0.562066,-0.0945 -1.056711,-0.6039549 -1.149587,-1.1840087 -0.11917,-0.744269 0.431554,-1.4800434 1.197003,-1.5992128 0.739474,-0.1151256 1.471107,0.4362216 1.589701,1.1979728 0.113446,0.728686 -0.432744,1.4662957 -1.175087,1.5869127 -0.210184,0.03415 -0.249857,0.03401 -0.46203,-0.0017 z m 0.502096,-0.734718 c 0.474732,-0.198005 0.591516,-0.8098991 0.221562,-1.1608951 -0.354086,-0.3359421 -0.91606,-0.2234712 -1.124133,0.2249788 -0.25614,0.5520491 0.340236,1.1704593 0.902571,0.9359163 z m 6.5166918,0.733176 c -0.5620664,-0.0945 -1.0567114,-0.6039543 -1.1495874,-1.1840081 -0.11917,-0.744269 0.431554,-1.4800434 1.197003,-1.5992128 0.7394741,-0.1151256 1.4711078,0.4362216 1.5897016,1.1979728 0.1134459,0.728686 -0.4327444,1.4662961 -1.1750872,1.5869121 -0.2101837,0.03415 -0.2498575,0.03401 -0.46203,-0.0017 z m 0.5020963,-0.7347174 c 0.4747321,-0.198005 0.5915153,-0.8098991 0.2215621,-1.1608951 -0.3540862,-0.3359421 -0.9160606,-0.2234712 -1.1241331,0.2249788 -0.2561407,0.5520491 0.340236,1.1704587 0.902571,0.9359163 z" /></g><g
       id="MERGE_CENTER"
       transform="matrix(0.99960536,0,0,0.99960536,-18.790341,0.0011645)"
       style="stroke-width:0.0100039"><g
         id="path823-3-8-2"
         style="stroke:#333333;stroke-width:1.00039;stroke-dasharray:none;stroke-opacity:1"
         transform="translate(0.01525731,0.95949632)"><g
           id="path10-9"
           style="opacity:1"><path
             style="baseline-shift:baseline;display:inline;overflow:visible;vector-effect:none;fill:#ffffff;stroke:none;enable-background:accumulate;stop-color:#000000;stop-opacity:1"
             d="m 26.808594,2.296875 c -0.343575,0 -0.614021,0.032571 -0.839844,0.1113281 -1.547505,0.5397017 -2.319184,2.3170852 -1.597656,3.7773438 0.365839,0.7404013 1.037666,1.2822904 1.839843,1.4648437 0.499058,0.1135716 0.939042,0.097844 1.429688,-0.066406 0.822738,-0.275423 1.468906,-0.9233088 1.755859,-1.7460938 0.07876,-0.2258253 0.113282,-0.4982239 0.113282,-0.8417969 0,-0.3435729 -0.03452,-0.6140183 -0.113282,-0.8398437 C 29.111233,3.3383472 28.468294,2.693454 27.650391,2.4082031 27.424567,2.3294456 27.152168,2.296875 26.808594,2.296875 Z m 0,1.5 c 0.3072,0 0.235078,-0.00997 0.347656,0.029297 0.399426,0.1393033 0.684914,0.4247909 0.824219,0.8242187 0.03926,0.1125779 0.0293,0.038501 0.0293,0.3457031 0,0.3072021 0.01,0.2350785 -0.0293,0.3476563 -0.138627,0.3974876 -0.439138,0.6901104 -0.816407,0.8164062 -0.03439,0.011511 -0.563809,0.04038 -0.621093,0.027344 -0.325821,-0.074148 -0.666782,-0.341435 -0.828125,-0.6679688 -0.328316,-0.6644595 -0.0096,-1.4291134 0.748047,-1.6933593 0.112579,-0.039263 0.0385,-0.029297 0.345703,-0.029297 z"
             id="path11" /><path
             style="baseline-shift:baseline;display:inline;overflow:visible;vector-effect:none;fill:#333333;stroke:none;enable-background:accumulate;stop-color:#000000;stop-opacity:1"
             d="m 26.808594,1.796875 c -0.375188,0 -0.701324,0.033144 -1.003907,0.1386719 -1.821106,0.6351218 -2.738492,2.738943 -1.882812,4.4707031 0.430637,0.8715424 1.225645,1.5157528 2.177734,1.7324219 0.570825,0.1299037 1.132327,0.1096963 1.699219,-0.080078 0.971896,-0.3253557 1.733358,-1.0904861 2.070313,-2.0566407 0.104981,-0.3010082 0.140625,-0.62878 0.140625,-1.0058594 0,-0.3770773 -0.03593,-0.7037399 -0.140625,-1.0039062 C 29.533851,3.0308095 28.776736,2.2711515 27.814453,1.9355469 27.511022,1.8297235 27.18378,1.796875 26.808594,1.796875 Z"
             id="path12"
             sodipodi:nodetypes="ssssssscss" /></g></g><path
         style="fill:none;stroke-width:0.000312624"
         d="m 4.078125,15.950385 c 1.3373028,-0.207129 2.5999447,-0.8122 3.6640625,-1.755856 L 8,13.965902 8.2578125,14.194529 c 1.0641178,0.943656 2.3267595,1.548727 3.6640625,1.755856 0.248098,0.03843 -0.21418,0.04356 -3.921875,0.04356 -3.7076947,0 -4.1699734,-0.0051 -3.921875,-0.04356 z M 0,6 V 0 H 3.6165084 7.2330169 L 5.5901512,1.6484375 C 4.3080828,2.9348542 3.9307694,3.3311897 3.8720803,3.453125 3.8049841,3.5925269 3.796875,3.651495 3.796875,4 c 0,0.3512522 0.00772,0.4063741 0.076594,0.546875 0.098377,0.200685 0.4103409,0.51261 0.6109056,0.6108284 0.1487891,0.072864 0.1887047,0.076998 0.8359375,0.086592 L 6,5.25437 V 5.5034975 5.752625 L 5.8037828,5.977875 C 5.4323647,6.4042488 5.1825147,6.8900466 5.0804087,7.3843716 c -0.064171,0.3106709 -0.064171,0.9205859 0,1.2312568 0.089839,0.4349379 0.3518247,0.9794894 0.6159772,1.2803425 L 5.7883903,10.000758 5.645005,10.289442 C 5.2602125,11.06416 4.5426459,11.647728 3.71875,11.855986 3.2646053,11.970782 2.7800739,12 1.3305597,12 H 0 Z m 12.90625,5.96419 C 11.749052,11.857726 10.836363,11.2586 10.354995,10.289442 l -0.143385,-0.288684 0.092,-0.1047871 c 0.264153,-0.3008531 0.526138,-0.8454046 0.615977,-1.2803425 0.06417,-0.3106709 0.06417,-0.9205859 0,-1.2312568 C 10.817485,6.8900466 10.567635,6.4042488 10.196217,5.977875 L 10,5.752625 V 5.5034975 5.25437 l 0.679688,-0.010075 c 0.647232,-0.00959 0.687148,-0.013728 0.835937,-0.086592 0.200565,-0.098218 0.512529,-0.4101434 0.610906,-0.6108284 0.06836,-0.1394453 0.07659,-0.1965813 0.07659,-0.53125 0,-0.3319916 -0.0086,-0.39292 -0.0752,-0.53125 C 12.069208,3.3623769 11.689159,2.9633424 10.394222,1.6640625 L 8.7357206,0 H 12.36786 16 v 6 6 L 14.601563,11.9958 C 13.832422,11.9935 13.069531,11.97926 12.90625,11.96424 Z"
         id="path827-6"
         inkscape:connector-curvature="0" /><path
         style="fill:#fecb32;stroke:#ffffff;stroke-width:1.50059;stroke-dasharray:none"
         d="M 26.392348,7.8786003 C 25.828349,7.7502497 25.322005,7.3453306 25.058414,6.8118631 24.533492,5.749504 25.078264,4.47855 26.230857,4.0765762 c 0.169201,-0.05901 0.268362,-0.070841 0.59375,-0.070841 0.325387,0 0.424548,0.011831 0.59375,0.070841 0.608665,0.2122771 1.073087,0.6766996 1.285364,1.2853649 0.05901,0.1692016 0.07084,0.2683625 0.07084,0.59375 0,0.3253875 -0.01183,0.4245484 -0.07084,0.59375 -0.212789,0.6101363 -0.685361,1.0816628 -1.285364,1.2825222 -0.262516,0.087881 -0.747838,0.1099409 -1.026009,0.046637 z"
         id="path823-3"
         inkscape:connector-curvature="0" /><g
         id="path823-3-8"
         style="opacity:1;stroke:none"
         transform="translate(0.01525731,0.95949632)"><path
           style="baseline-shift:baseline;display:inline;overflow:visible;vector-effect:none;fill:#ffffff;stroke:none;enable-background:accumulate;stop-color:#000000;stop-opacity:1"
           d="m 26.808594,2.296875 c -0.343575,0 -0.614021,0.032571 -0.839844,0.1113281 -1.547505,0.5397017 -2.319184,2.3170852 -1.597656,3.7773438 0.365839,0.7404013 1.037666,1.2822904 1.839843,1.4648437 0.499058,0.1135716 0.939042,0.097844 1.429688,-0.066406 0.822738,-0.275423 1.468906,-0.9233088 1.755859,-1.7460938 0.07876,-0.2258253 0.113282,-0.4982239 0.113282,-0.8417969 0,-0.3435729 -0.03452,-0.6140183 -0.113282,-0.8398437 C 29.111233,3.3383472 28.468294,2.693454 27.650391,2.4082031 27.424567,2.3294456 27.152168,2.296875 26.808594,2.296875 Z"
           id="path10"
           sodipodi:nodetypes="ssssssscss" /></g><path
         style="fill:#fecb32;stroke:none;stroke-width:1.00039;stroke-dasharray:none"
         d="M 26.392348,7.8786003 C 25.828349,7.7502497 25.322005,7.3453306 25.058414,6.8118631 24.533492,5.749504 25.078264,4.47855 26.230857,4.0765762 c 0.169201,-0.05901 0.268362,-0.070841 0.59375,-0.070841 0.325387,0 0.424548,0.011831 0.59375,0.070841 0.608665,0.2122771 1.073087,0.6766996 1.285364,1.2853649 0.05901,0.1692016 0.07084,0.2683625 0.07084,0.59375 0,0.3253875 -0.01183,0.4245484 -0.07084,0.59375 -0.212789,0.6101363 -0.685361,1.0816628 -1.285364,1.2825222 -0.262516,0.087881 -0.747838,0.1099409 -1.026009,0.046637 z"
         id="path823-3-4"
         inkscape:connector-curvature="0" /></g></g></svg>
