<?xml version="1.0" encoding="UTF-8" standalone="no"?>
<!-- Created with Inkscape (http://www.inkscape.org/) -->

<svg
   version="1.1"
   id="svg2"
   width="1600"
   height="1600"
   viewBox="0 0 1600 1600"
   sodipodi:docname="node_colorbalance.svg"
   inkscape:version="1.2.2 (732a01da63, 2022-12-09)"
   xmlns:inkscape="http://www.inkscape.org/namespaces/inkscape"
   xmlns:sodipodi="http://sodipodi.sourceforge.net/DTD/sodipodi-0.dtd"
   xmlns="http://www.w3.org/2000/svg"
   xmlns:svg="http://www.w3.org/2000/svg"
   xmlns:rdf="http://www.w3.org/1999/02/22-rdf-syntax-ns#"
   xmlns:cc="http://creativecommons.org/ns#"
   xmlns:dc="http://purl.org/dc/elements/1.1/">
  <metadata
     id="metadata8">
    <rdf:RDF>
      <cc:Work
         rdf:about="">
        <dc:format>image/svg+xml</dc:format>
        <dc:type
           rdf:resource="http://purl.org/dc/dcmitype/StillImage" />
      </cc:Work>
    </rdf:RDF>
  </metadata>
  <defs
     id="defs6" />
  <sodipodi:namedview
     pagecolor="#808080"
     bordercolor="#666666"
     borderopacity="1"
     objecttolerance="10"
     gridtolerance="10"
     guidetolerance="10"
     inkscape:pageopacity="0"
     inkscape:pageshadow="2"
     inkscape:window-width="1993"
     inkscape:window-height="1009"
     id="namedview4"
     showgrid="false"
     inkscape:zoom="0.5"
     inkscape:cx="335"
     inkscape:cy="466"
     inkscape:window-x="-8"
     inkscape:window-y="-8"
     inkscape:window-maximized="1"
     inkscape:current-layer="NODE_COLORBALANCE"
     inkscape:showpageshadow="0"
     inkscape:pagecheckerboard="true"
     inkscape:deskcolor="#d1d1d1" />
  <g
     id="NODE_COLORBALANCE"
     transform="matrix(100,0,0,100,0,4.9999997e-5)"
     style="stroke-width:0.0114286">
    <path
       style="fill:none;stroke-width:0.000357143"
       d="M 0,8 V 0 h 8 8 v 8 8 H 8 0 Z m 11.96875,6.007904 V 13.047058 L 9.9922794,11.070404 8.0158088,9.0937494 6.0391544,11.07022 4.0625,13.04669 v 0.96103 0.96103 H 8.015625 11.96875 Z M 15,8.5 V 8 H 8 1 V 8.5 9 h 7 7 z M 10.03125,5.015625 C 10.03125,3.9070313 10.027693,3 10.023347,3 10.019,3 9.1084937,3.9070313 8,5.015625 L 5.9845566,7.03125 H 8.0079034 10.03125 Z M 3.421875,6.9531453 C 4.3214828,6.7649184 4.9989147,5.9259269 4.9989147,5 4.9989147,3.9092425 4.0907575,3.0010852 3,3.0010852 1.9092424,3.0010852 1.0010852,3.9092425 1.0010852,5 c 0,0.7407994 0.4388058,1.4538003 1.0937226,1.7771537 0.4324901,0.2135344 0.8702025,0.2715822 1.3270672,0.1759916 z M 15,5 V 3 h -2 -2 v 2 2 h 2 2 z"
       id="path827"
       inkscape:connector-curvature="0" />
    <path
       style="fill:#fefefe;stroke-width:0.000357143"
       d="M 4.0625,14.00772 V 13.04669 L 6.0391544,11.07022 8.0158088,9.0937494 9.9922794,11.070404 11.96875,13.047058 v 0.960846 0.960846 H 8.015625 4.0625 Z M 1,8.5 V 8 h 7 7 V 8.5 9 H 8 1 Z"
       id="path825"
       inkscape:connector-curvature="0" />
    <path
       style="fill:#3200fe;stroke-width:0.000357143"
       d="M 8,5.015625 C 9.1084937,3.9070313 10.019,3 10.023347,3 c 0.0043,0 0.0079,0.9070313 0.0079,2.015625 V 7.03125 H 8.0079034 5.9845566 Z"
       id="path823"
       inkscape:connector-curvature="0" />
    <path
       style="fill:#fe0000;stroke-width:0.000357143"
       d="M 11,5 V 3 h 2 2 v 2 2 h -2 -2 z"
       id="path821"
       inkscape:connector-curvature="0" />
    <path
       style="fill:#00fe00;stroke-width:0.000357143"
       d="M 2.5625,6.9514053 C 1.8323192,6.7945809 1.2007041,6.1571794 1.0468547,5.421875 0.74973425,4.0018228 2.0018229,2.7497343 3.421875,3.0468548 4.1647875,3.2022959 4.7977041,3.8352125 4.9531453,4.578125 5.2513347,6.0032863 3.9878991,7.2575447 2.5625,6.9514053 Z"
       id="path819"
       inkscape:connector-curvature="0" />
  </g>
</svg>
