<?xml version="1.0" encoding="UTF-8" standalone="no"?>
<!-- Created with Inkscape (http://www.inkscape.org/) -->

<svg
   version="1.1"
   id="svg2"
   width="1600"
   height="1600"
   viewBox="0 0 1600 1600"
   sodipodi:docname="node_hairinfo.svg"
   inkscape:version="1.2.2 (732a01da63, 2022-12-09)"
   xmlns:inkscape="http://www.inkscape.org/namespaces/inkscape"
   xmlns:sodipodi="http://sodipodi.sourceforge.net/DTD/sodipodi-0.dtd"
   xmlns="http://www.w3.org/2000/svg"
   xmlns:svg="http://www.w3.org/2000/svg"
   xmlns:rdf="http://www.w3.org/1999/02/22-rdf-syntax-ns#"
   xmlns:cc="http://creativecommons.org/ns#"
   xmlns:dc="http://purl.org/dc/elements/1.1/">
  <metadata
     id="metadata8">
    <rdf:RDF>
      <cc:Work
         rdf:about="">
        <dc:format>image/svg+xml</dc:format>
        <dc:type
           rdf:resource="http://purl.org/dc/dcmitype/StillImage" />
      </cc:Work>
    </rdf:RDF>
  </metadata>
  <defs
     id="defs6" />
  <sodipodi:namedview
     pagecolor="#808080"
     bordercolor="#666666"
     borderopacity="1"
     objecttolerance="10"
     gridtolerance="10"
     guidetolerance="10"
     inkscape:pageopacity="0"
     inkscape:pageshadow="2"
     inkscape:window-width="1993"
     inkscape:window-height="1009"
     id="namedview4"
     showgrid="false"
     inkscape:zoom="0.5"
     inkscape:cx="247"
     inkscape:cy="104"
     inkscape:window-x="-8"
     inkscape:window-y="-8"
     inkscape:window-maximized="1"
     inkscape:current-layer="NODE_HAIRINFO"
     inkscape:showpageshadow="0"
     inkscape:pagecheckerboard="true"
     inkscape:deskcolor="#d1d1d1" />
  <g
     id="NODE_HAIRINFO"
     transform="matrix(100,0,0,100,0,4.9999997e-5)"
     style="stroke-width:0.0114286">
    <path
       style="fill:none;stroke-width:0.000357143"
       d="M 0,8 V 0 h 8 8 L 15.9959,5.3203125 C 15.9936,8.2464844 15.98055,10.543717 15.96681,10.425274 15.878164,9.6614116 15.569156,8.8444078 15.114514,8.171875 14.863245,7.8001831 14.199817,7.1367553 13.828125,6.8854862 13.303741,6.5309947 12.713109,6.2714091 12.110197,6.1304481 L 11.861019,6.0721903 10.633205,3.6220328 C 9.9143041,2.1874331 9.3729809,1.143175 9.3271975,1.1026328 8.9904934,0.80447544 8.4440044,1.1345267 8.5626866,1.5643581 c 0.016593,0.060094 0.5153409,1.0791823 1.108329,2.2646397 L 10.749176,5.984375 10.632401,6.0050112 C 10.401023,6.0459 9.8914844,6.1206509 9.8854281,6.1145947 9.8820234,6.1111903 9.3226184,4.9976853 8.6423059,3.6401397 7.9180237,2.1948539 7.37297,1.1431774 7.3271887,1.1026328 6.9896537,0.80370641 6.4440284,1.1346136 6.5631419,1.5660068 6.579985,1.6270081 7.1004603,2.6882834 7.7197534,3.9243966 8.3390466,5.1605097 8.87272,6.23185 8.9056941,6.3051531 L 8.9656475,6.4384309 8.6937613,6.5768994 C 8.5442238,6.6530569 8.381385,6.7429147 8.3318972,6.7765838 L 8.2419197,6.8378 6.8241272,4.0048375 C 5.9757559,2.3096641 5.3747406,1.1440656 5.3276691,1.1026328 4.9882716,0.80389222 4.4439775,1.1344286 4.5633556,1.5667813 4.5803166,1.6282085 5.2453109,2.978822 6.0411212,4.5681447 L 7.4880487,7.4578222 7.2786584,7.681355 C 7.1634934,7.8042981 6.9878653,8.0247256 6.8883734,8.1711938 L 6.7074787,8.4375 H 3.8537394 1 v 0.5 0.5 h 2.6283434 c 2.490416,0 2.6272325,0.00287 2.6071725,0.054687 -0.011644,0.030078 -0.05498,0.1939959 -0.096302,0.3642616 -0.326175,1.3439984 -0.055211,2.7860764 0.7462721,3.9716764 0.2512691,0.371692 0.9146969,1.03512 1.2863888,1.286389 0.6725328,0.454642 1.4895366,0.76365 2.2533992,0.852284 0.118443,0.01374 -2.1787898,0.02684 -5.1049617,0.02909 L 0,16 Z M 4.2645194,7.8473603 C 4.3154734,7.8183769 4.3846141,7.7476612 4.418165,7.6902144 4.5573366,7.4519197 4.6117094,7.5788794 2.9372244,4.2322412 1.9490844,2.2573375 1.3705696,1.1343121 1.3264753,1.1054204 1.0440641,0.9203775 0.68145353,1.049294 0.59645347,1.3649601 c -0.0261681,0.097181 -0.0233683,0.1593401 0.0126382,0.2805872 0.0571507,0.1924472 2.99598803,6.0670005 3.07437703,6.1454886 0.08167,0.081774 0.2857494,0.1473079 0.3946563,0.1267329 0.051563,-0.00974 0.13544,-0.041425 0.1863944,-0.070409 z m 2,0 C 6.3154734,7.8183769 6.3846141,7.7476612 6.418165,7.6902144 6.5548866,7.456115 6.6066884,7.577105 4.9400566,4.2379116 3.9105372,2.1752105 3.3772272,1.1386743 3.3293075,1.1072761 2.9512829,0.85958491 2.4845933,1.178772 2.5966194,1.6083897 2.6417227,1.7813599 5.6101887,7.7269094 5.6854522,7.7950216 5.8398953,7.9347909 6.0736644,7.95592 6.2645194,7.8473603 Z m 5.3102066,8.1194377 c 0.763862,-0.08863 1.580866,-0.397642 2.253399,-0.852284 0.371692,-0.251269 1.03512,-0.914697 1.286389,-1.286389 0.454642,-0.672533 0.76365,-1.489537 0.852284,-2.253399 0.01444,-0.124482 0.02672,0.763721 0.02909,2.104962 L 16,16 13.679688,15.9959 c -1.34124,-0.0024 -2.229444,-0.01465 -2.104962,-0.02909 z"
       id="path823"
       inkscape:connector-curvature="0" />
    <path
       style="fill:#fefefe;stroke-width:0.000357143"
       d="M 10.425274,15.969003 C 9.6387609,15.869689 8.8420997,15.567596 8.171875,15.114514 7.8001831,14.863245 7.1367553,14.199817 6.8854862,13.828125 6.0840031,12.642525 5.8130391,11.200447 6.1392141,9.8564491 6.1805359,9.6861834 6.2238719,9.5222656 6.2355159,9.4921875 6.2555759,9.4403697 6.1187594,9.4375 3.6283434,9.4375 H 1 v -0.5 -0.5 H 3.8537394 6.7074787 L 6.8883734,8.1711938 C 6.9878653,8.0247256 7.1634934,7.8042981 7.2786584,7.681355 L 7.4880488,7.4578222 6.0406159,4.5671359 C 5.2445281,2.9772585 4.5795338,1.6257583 4.5628506,1.5638021 4.4464662,1.1315836 4.9892869,0.80473803 5.3281159,1.1030172 5.3745966,1.1439353 5.9816175,2.3213767 6.8241272,4.0048375 L 8.2419197,6.8378 8.3318972,6.7765837 C 8.381385,6.7429147 8.5442238,6.6530569 8.6937613,6.5768994 L 8.9656475,6.4384309 8.9056941,6.3051531 C 8.87272,6.23185 8.3388244,5.1600656 7.7192597,3.92341 7.099695,2.6867542 6.5792197,1.624592 6.5626481,1.5630497 6.4465166,1.1317702 6.990665,0.80454134 7.3276356,1.1030172 c 0.04519,0.040028 0.5956266,1.1022895 1.3146703,2.5371225 0.6803125,1.3575456 1.2397175,2.4710506 1.2431222,2.474455 0.00606,0.00606 0.5155949,-0.068695 0.7469729,-0.1095835 L 10.749176,5.984375 9.6705709,3.828125 C 9.0773381,2.6421875 8.57859,1.6222129 8.5622419,1.5615147 8.4464775,1.1317017 8.9914403,0.80525356 9.3276441,1.1030172 c 0.045193,0.040026 0.5918575,1.0947876 1.3055609,2.5190156 l 1.227814,2.4501575 0.249178,0.058258 c 0.602912,0.140961 1.193544,0.4005466 1.717928,0.7550381 0.371692,0.2512691 1.03512,0.9146969 1.286389,1.2863888 0.385044,0.5695791 0.643881,1.1855634 0.796023,1.8943868 0.10088,0.469997 0.10088,1.397479 0,1.867476 -0.152142,0.708824 -0.410979,1.324808 -0.796023,1.894387 -0.251269,0.371692 -0.914697,1.03512 -1.286389,1.286389 -0.573884,0.387954 -1.201591,0.650724 -1.894387,0.793027 -0.365871,0.07515 -1.147752,0.107008 -1.508464,0.06146 z m 1.27415,-1.082499 c 1.221614,-0.231736 2.248259,-0.999908 2.813629,-2.105254 0.483432,-0.945153 0.567734,-1.960206 0.24753,-2.9804375 C 14.581962,9.2316894 14.161758,8.5628744 13.722422,8.1484263 12.483503,6.9796931 10.717571,6.7203209 9.21875,7.4869475 7.0635947,8.5892797 6.388665,11.304119 7.779915,13.274522 c 0.6638266,0.940165 1.7224097,1.546486 2.92321,1.674317 0.20214,0.02152 0.727553,-0.01136 0.996299,-0.06233 z M 9,13.5 V 13 H 9.5 10 V 12 11 H 9.5 9 V 10.5 10 H 10.5 12 V 11.5 13 H 12.5 13 V 13.5 14 H 11 9 Z m 1,-5 V 8 h 1 1 V 8.5 9 H 11 10 Z M 3.8622166,7.8915888 C 3.7950294,7.8674481 3.7145928,7.8221997 3.6834687,7.7910359 3.6050797,7.7125478 0.66624234,1.8379945 0.60909166,1.6455472 0.47424991,1.1914858 0.93192187,0.84689909 1.3264753,1.1054204 c 0.044094,0.028892 0.6226091,1.1519171 1.6107491,3.1268209 1.32625,2.6506525 1.5419422,3.1007462 1.5419422,3.2176303 0,0.326315 -0.3134772,0.550755 -0.61695,0.4417172 z m 2.0029022,9.968e-4 C 5.7995281,7.8689941 5.7186778,7.82509 5.6854522,7.7950209 5.6101887,7.7269094 2.6417227,1.7813599 2.5966194,1.6083897 2.4845933,1.178772 2.9512829,0.85958491 3.3293075,1.1072761 3.3772272,1.1386743 3.9105372,2.1752105 4.9400566,4.2379116 6.6066884,7.577105 6.5548866,7.456115 6.418165,7.6902144 6.3078116,7.8791653 6.0698737,7.9662322 5.8651188,7.8925856 Z"
       id="path821"
       inkscape:connector-curvature="0" />
    <path
       style="fill:#323232;stroke-width:0.000357143"
       d="M 10.633284,14.938053 C 8.5860953,14.70879 7.0547034,13.023568 7.0547034,11 7.0547034,8.8291391 8.8291391,7.0547034 11,7.0547034 c 2.170861,0 3.945297,1.7744357 3.945297,3.9452966 0,1.671562 -1.059901,3.159788 -2.656745,3.730385 -0.482849,0.172536 -1.183764,0.260472 -1.655268,0.207668 z M 13,13.5 V 13 H 12.5 12 V 11.5 10 H 10.5 9 V 10.5 11 H 9.5 10 v 1 1 H 9.5 9 v 0.5 0.5 h 2 2 z m -1,-5 V 8 H 11 10 V 8.5 9 h 1 1 z"
       id="path819"
       inkscape:connector-curvature="0" />
  </g>
</svg>
