<?xml version="1.0" encoding="UTF-8" standalone="no"?>
<!-- Created with Inkscape (http://www.inkscape.org/) -->

<svg
   version="1.1"
   id="svg2"
   width="1600"
   height="1600"
   viewBox="0 0 1600 1600"
   sodipodi:docname="node_storenamedgrid.svg"
   inkscape:version="1.4 (86a8ad7, 2024-10-11)"
   xml:space="preserve"
   xmlns:inkscape="http://www.inkscape.org/namespaces/inkscape"
   xmlns:sodipodi="http://sodipodi.sourceforge.net/DTD/sodipodi-0.dtd"
   xmlns="http://www.w3.org/2000/svg"
   xmlns:svg="http://www.w3.org/2000/svg"
   xmlns:rdf="http://www.w3.org/1999/02/22-rdf-syntax-ns#"
   xmlns:cc="http://creativecommons.org/ns#"
   xmlns:dc="http://purl.org/dc/elements/1.1/"><metadata
     id="metadata8"><rdf:RDF><cc:Work
         rdf:about=""><dc:format>image/svg+xml</dc:format><dc:type
           rdf:resource="http://purl.org/dc/dcmitype/StillImage" /></cc:Work></rdf:RDF></metadata><defs
     id="defs6" /><sodipodi:namedview
     pagecolor="#808080"
     bordercolor="#666666"
     borderopacity="1"
     objecttolerance="10"
     gridtolerance="10"
     guidetolerance="10"
     inkscape:pageopacity="0"
     inkscape:pageshadow="2"
     inkscape:window-width="2560"
     inkscape:window-height="1009"
     id="namedview4"
     showgrid="true"
     inkscape:zoom="0.25"
     inkscape:cx="1026"
     inkscape:cy="748"
     inkscape:window-x="1912"
     inkscape:window-y="-8"
     inkscape:window-maximized="1"
     inkscape:current-layer="SET_CURVE_HANDLE_POSITIONS"
     inkscape:showpageshadow="0"
     inkscape:pagecheckerboard="true"
     inkscape:deskcolor="#d1d1d1"><inkscape:grid
       id="grid1"
       units="px"
       originx="0"
       originy="0"
       spacingx="100"
       spacingy="100"
       empcolor="#0099e5"
       empopacity="0.30196078"
       color="#0099e5"
       opacity="0.14901961"
       empspacing="5"
       enabled="true"
       visible="true" /></sodipodi:namedview><g
     id="SET_CURVE_HANDLE_POSITIONS"
     transform="matrix(100,0,0,100,0,4.9999997e-5)"
     style="stroke-width:0.0114286"><path
       style="fill:none;stroke-width:0.000357143"
       d="M 0.00248437,11.101563 C 0.00458759,6.9546337 0.01132811,6.2318909 0.04642,6.390625 0.19091013,7.0442094 0.70246634,7.6037794 1.3491383,7.8156144 1.6791087,7.923705 2.227799,7.9234856 2.5586158,7.81513 2.932401,7.6927012 3.4199191,7.3289141 3.559355,7.0683759 L 3.5959491,7 H 4.7979744 6 V 7.5 8 h 2 2 V 7.5 7 h 1.169326 1.169326 l 0.07187,0.1171875 c 0.203344,0.3315834 0.632596,0.6612444 1.030867,0.7916931 0.330817,0.108355 0.879507,0.1085744 1.209478,4.844e-4 0.646719,-0.2118503 1.158556,-0.7717706 1.302619,-1.4249894 0.03496,-0.1585125 0.04166,0.5625522 0.04333,4.6640624 L 15.998795,16 H 7.9993975 0 Z m 8.15691503,2.988452 c 0.077264,-0.02545 0.669955,-0.597672 2.1739016,-2.098838 1.820714,-1.817348 2.072118,-2.0797204 2.104872,-2.1967051 0.09961,-0.3557613 -0.266495,-0.7170153 -0.615176,-0.6070291 -0.09625,0.03036 -0.48326,0.40054 -1.9637204,1.8783102 L 8.0154281,12.906252 6.1745166,11.065142 C 4.5587084,9.4491597 4.3173584,9.2194834 4.2007375,9.1868316 3.8449722,9.0872234 3.4938203,9.4399616 3.5936812,9.79663 c 0.031957,0.1141369 0.2985425,0.392205 2.1042682,2.194903 1.3129272,1.310726 2.1018965,2.075948 2.1614256,2.09637 0.1255941,0.04309 0.1745634,0.04343 0.3000244,0.0021 z M 15.968091,5.6953125 C 15.9671,5.5663116 15.831562,5.2072469 15.714164,5.0226206 15.467825,4.6352144 15.070708,4.3218922 14.652366,4.1848694 14.321549,4.0765144 13.772859,4.076295 13.442888,4.184385 13.064112,4.3084634 12.679956,4.5888131 12.464442,4.8984369 l -0.09244,0.1328125 H 11.185999 10 V 4.5156244 3.9999994 H 8 6 v 0.515625 0.515625 H 4.8449144 3.6898288 L 3.5666319,4.8515619 C 3.3236994,4.4972353 2.9588633,4.2222397 2.5571117,4.090635 2.2278655,3.9827816 1.6783845,3.9827816 1.3491383,4.090635 0.70246634,4.3024706 0.19091013,4.8620406 0.04642,5.515625 0.01085845,5.6764834 0.00461574,5.2979531 0.00248437,2.8515625 L 0,0 h 8 8 v 2.890625 c 0,1.5898437 -0.007,2.890625 -0.01563,2.890625 -0.0086,0 -0.01592,-0.038672 -0.01628,-0.085937 z"
       id="path827"
       inkscape:connector-curvature="0" /><g
       id="MESH_CUBE"
       style="display:inline;stroke-width:0.0114286;enable-background:new"
       inkscape:label="VOLUME_CUBE"><g
         id="g3"
         transform="translate(-0.32,-0.3200005)"
         inkscape:label="Grid"
         style="display:inline;stroke-width:0.0114286;enable-background:new"><path
           id="rect1"
           style="baseline-shift:baseline;display:inline;overflow:visible;vector-effect:none;fill:#323232;stroke-linecap:round;stroke-linejoin:round;paint-order:markers stroke fill;enable-background:accumulate;stop-color:#000000;stop-opacity:1"
           d="M 4.1230891,2.3199999 H 14.516912 c 0.998911,0 1.803088,0.8041776 1.803088,1.8030887 V 14.516911 C 16.32,15.515822 15.515823,16.32 14.516912,16.32 H 4.1230891 C 3.124178,16.32 2.3200004,15.515822 2.3200004,14.516911 V 4.1230886 c 0,-0.9989111 0.8041776,-1.8030887 1.8030887,-1.8030887 z" /><g
           id="rect2-2-5-7"
           transform="matrix(1.0716036,0,0,1.0716036,-0.77860787,-0.66768013)"
           style="stroke-width:0.0106649"><path
             style="fill:#cb6500;stroke-width:0.0106649;stroke-linecap:round;stroke-linejoin:round;paint-order:markers stroke fill"
             d="m 4.953125,3.3203125 c -0.8957377,0 -1.6328125,0.7370748 -1.6328125,1.6328125 V 7.6875 c 0,0.8957377 0.7370748,1.6328125 1.6328125,1.6328125 h 2.8398437 c 0.8957378,0 1.6308594,-0.7370748 1.6308594,-1.6328125 V 4.953125 c 0,-0.8957377 -0.7351216,-1.6328125 -1.6308594,-1.6328125 z m 0,1 h 2.8398437 c 0.3590371,0 0.6308594,0.2737753 0.6308594,0.6328125 V 7.6875 c 0,0.3590372 -0.2718223,0.6328125 -0.6308594,0.6328125 H 4.953125 C 4.5940879,8.3203125 4.3203125,8.0465372 4.3203125,7.6875 V 4.953125 c 0,-0.3590372 0.2737754,-0.6328125 0.6328125,-0.6328125 z"
             id="path10" /><path
             style="fill:#fecb32;stroke-width:0.0106649;stroke-linecap:round;stroke-linejoin:round;paint-order:markers stroke fill"
             d="m 4.9524665,3.8199978 h 2.8396153 c 0.6273874,0 1.1324683,0.5050809 1.1324683,1.1324683 v 2.7350672 c 0,0.6273874 -0.5050809,1.1324683 -1.1324683,1.1324683 H 4.9524665 c -0.6273874,0 -1.1324682,-0.5050809 -1.1324682,-1.1324683 V 4.9524661 c 0,-0.6273874 0.5050808,-1.1324683 1.1324682,-1.1324683 z"
             id="path11" /></g><g
           id="rect2-2-5-7-2"
           transform="matrix(1.0716036,0,0,1.0716036,-0.61860782,-0.66768013)"
           style="stroke-width:0.0106649"><path
             style="fill:#cb6500;stroke-width:0.0106649;stroke-linecap:round;stroke-linejoin:round;paint-order:markers stroke fill"
             d="m 10.900391,3.3203125 c -0.895738,0 -1.6328129,0.7370748 -1.6328129,1.6328125 V 7.6875 c 0,0.8957377 0.7370749,1.6328125 1.6328129,1.6328125 h 2.839843 c 0.895738,0 1.632813,-0.7370748 1.632813,-1.6328125 V 4.953125 c 0,-0.8957377 -0.737075,-1.6328125 -1.632813,-1.6328125 z m 0,1 h 2.839843 c 0.359037,0 0.632813,0.2737753 0.632813,0.6328125 V 7.6875 c 0,0.3590372 -0.273776,0.6328125 -0.632813,0.6328125 h -2.839843 c -0.359037,0 -0.632813,-0.2737753 -0.632813,-0.6328125 V 4.953125 c 0,-0.3590372 0.273776,-0.6328125 0.632813,-0.6328125 z"
             id="path8" /><path
             style="fill:#fecb32;stroke-width:0.0106649;stroke-linecap:round;stroke-linejoin:round;paint-order:markers stroke fill"
             d="m 10.900192,3.8199978 h 2.839616 c 0.627387,0 1.132468,0.5050809 1.132468,1.1324683 v 2.7350672 c 0,0.6273874 -0.505081,1.1324683 -1.132468,1.1324683 h -2.839616 c -0.627387,0 -1.132468,-0.5050809 -1.132468,-1.1324683 V 4.9524661 c 0,-0.6273874 0.505081,-1.1324683 1.132468,-1.1324683 z"
             id="path9" /></g><g
           id="rect2-2-5-7-2-7"
           transform="matrix(1.0716036,0,0,1.0716036,-0.61860782,-0.66768013)"
           style="stroke-width:0.0106649"><path
             style="fill:#cb6500;stroke-width:0.0106649;stroke-linecap:round;stroke-linejoin:round;paint-order:markers stroke fill"
             d="m 10.900391,9.3203125 c -0.895738,0 -1.6328129,0.7370745 -1.6328129,1.6328125 V 13.6875 c 0,0.895738 0.7370749,1.632812 1.6328129,1.632813 h 2.839843 c 0.895738,0 1.632813,-0.737075 1.632813,-1.632813 v -2.734375 c 0,-0.895738 -0.737075,-1.6328125 -1.632813,-1.6328125 z m 0,1.0000005 h 2.839843 c 0.359037,0 0.632813,0.273775 0.632813,0.632812 V 13.6875 c 0,0.359037 -0.273776,0.632813 -0.632813,0.632813 h -2.839843 c -0.359037,0 -0.632813,-0.273776 -0.632813,-0.632813 v -2.734375 c 0,-0.359037 0.273776,-0.632813 0.632813,-0.632812 z"
             id="path6" /><path
             style="fill:#fecb32;stroke-width:0.0106649;stroke-linecap:round;stroke-linejoin:round;paint-order:markers stroke fill"
             d="m 10.900192,9.8199978 h 2.839616 c 0.627387,0 1.132468,0.5050812 1.132468,1.1324682 v 2.735067 c 0,0.627388 -0.505081,1.132469 -1.132468,1.132469 h -2.839616 c -0.627387,0 -1.132468,-0.505081 -1.132468,-1.132469 v -2.735067 c 0,-0.627387 0.505081,-1.1324682 1.132468,-1.1324682 z"
             id="path7" /></g><g
           id="rect2-2-5-7-2-7-9"
           transform="matrix(1.0716036,0,0,1.0716036,-0.64256442,-0.66768013)"
           style="stroke-width:0.0106649"><path
             style="fill:#cb6500;stroke-width:0.0106649;stroke-linecap:round;stroke-linejoin:round;paint-order:markers stroke fill"
             d="m 4.8242187,9.3203125 c -0.8957377,0 -1.6308593,0.7370745 -1.6308593,1.6328125 V 13.6875 c 0,0.895738 0.7351216,1.632812 1.6308593,1.632813 h 2.8398438 c 0.8957377,0 1.6328125,-0.737075 1.6328125,-1.632813 v -2.734375 c 0,-0.895738 -0.7370748,-1.6328125 -1.6328125,-1.6328125 z m 0,1.0000005 h 2.8398438 c 0.3590371,0 0.6328125,0.273775 0.6328125,0.632812 V 13.6875 c 0,0.359037 -0.2737754,0.632813 -0.6328125,0.632813 H 4.8242187 c -0.359037,0 -0.6308593,-0.273776 -0.6308593,-0.632813 v -2.734375 c 0,-0.359037 0.2718223,-0.632813 0.6308593,-0.632812 z"
             id="path4" /><path
             style="fill:#fecb32;stroke-width:0.0106649;stroke-linecap:round;stroke-linejoin:round;paint-order:markers stroke fill"
             d="m 4.8250043,9.8199978 h 2.8396154 c 0.6273874,0 1.1324682,0.5050812 1.1324682,1.1324682 v 2.735067 c 0,0.627388 -0.5050808,1.132469 -1.1324682,1.132469 H 4.8250043 c -0.6273874,0 -1.1324682,-0.505081 -1.1324682,-1.132469 v -2.735067 c 0,-0.627387 0.5050808,-1.1324682 1.1324682,-1.1324682 z"
             id="path5" /></g></g><g
         id="NAMED_ATTRIBUTE"
         style="stroke-width:0.0114286"><path
           style="fill:none;stroke-width:0.000357143"
           d="M 0,11.250052 V 6.5001041 l 0.1484375,0.1063475 c 0.27256716,0.19528 0.37208447,0.211285 1.2451762,0.2002553 C 2.148132,6.797175 2.1766418,6.7945219 2.328125,6.7197478 2.5354623,6.6174034 2.7523,6.3965412 2.8434485,6.19486 2.9153493,6.0357678 2.9209664,6.03125 3.046875,6.03125 c 0.1259084,0 0.1315256,0.00452 0.2034266,0.16361 0.091148,0.2016812 0.3079862,0.4225434 0.5153234,0.5248878 l 0.15625,0.077127 H 6.25 c 2.1910775,0 2.3419219,-0.00352 2.5625,-0.059832 C 9.3005387,6.612455 9.6828853,6.4056288 9.9675584,6.1122259 l 0.1394336,-0.143709 0.141816,0.1377053 c 0.30292,0.2941369 0.817699,0.5687525 1.33946,0.7145515 0.214538,0.05995 0.320674,0.067174 1.005482,0.068438 0.853968,0.00157 1.00213,-0.022464 1.559613,-0.2530588 0.330975,-0.1369034 0.5073,-0.2577612 0.624427,-0.4279994 0.176403,-0.2563934 0.196589,-0.3782068 0.185287,-1.1181471 -0.0097,-0.6371 -0.01379,-0.6753888 -0.08746,-0.8243816 C 14.777006,4.0661728 14.58961,3.8789147 14.390625,3.7809894 14.258192,3.7158156 14.189123,3.7040209 13.9375,3.70361 c -0.296587,-4.844e-4 -0.297195,-3.25e-4 -0.626659,0.1652003 -0.351535,0.1766131 -0.612713,0.2350256 -0.741848,0.165915 -0.173683,-0.092952 -0.173683,-0.7264981 0,-0.8194506 0.129135,-0.069111 0.390313,-0.010698 0.741848,0.165915 0.329464,0.1655247 0.330072,0.1656847 0.626659,0.1652003 0.251623,-4.125e-4 0.320692,-0.012206 0.453125,-0.077379 0.198985,-0.097925 0.386381,-0.2851834 0.484994,-0.4846356 0.07366,-0.1489929 0.07773,-0.1872817 0.08746,-0.8243816 0.0113,-0.7399402 -0.0089,-0.8617537 -0.185287,-1.1181471 C 14.660663,0.87160812 14.484338,0.75075022 14.153363,0.61384694 13.59588,0.38325228 13.447718,0.35921194 12.59375,0.36078806 c -0.684808,0.001264 -0.790944,0.008488 -1.005482,0.0684381 -0.543644,0.15191406 -1.039135,0.42175378 -1.371991,0.74717294 L 10.041928,1.3468521 9.7944016,1.0997276 C 9.51161,0.81739541 9.2062956,0.64949294 8.75,0.52537706 8.4908266,0.45487991 8.4502191,0.453125 7.078125,0.453125 H 5.671875 L 5.515625,0.5305044 C 5.1616069,0.70582419 4.9713144,1.0060346 4.9407137,1.4375 L 4.921875,1.703125 4.8017591,1.375 C 4.6033006,0.83286528 4.4164825,0.61144375 4.0535953,0.48825897 c -0.2201694,-0.0747382 -1.7932713,-0.0747382 -2.0134407,0 -0.2200925,0.0747121 -0.4039258,0.21418 -0.5231728,0.39691306 C 1.4490904,0.98920822 1.1639744,1.7155404 0.71749009,2.921875 0.33580747,3.953125 0.01822931,4.8027344 0.01176085,4.8098959 0.00529238,4.8170572 0,3.7377603 0,2.4114583 V 0 h 8 8 v 8 8 H 8 0 Z m 15.269226,4.169892 c 0.04746,-0.03544 0.115281,-0.10325 0.150718,-0.150695 0.06359,-0.08514 0.06464,-0.120868 0.08007,-2.732444 0.01155,-1.953174 0.0062,-2.6707322 -0.02031,-2.73993 -0.04604,-0.1200328 -2.152243,-2.2200869 -2.270801,-2.2641669 -0.138718,-0.051576 -1.281943,-0.042592 -1.405219,0.011043 -0.129099,0.056168 -2.227469,2.1615791 -2.2709759,2.2785963 -0.045901,0.1234553 -0.045306,5.2340866 6.25e-4,5.3553066 0.044306,0.116936 0.1484853,0.227031 0.2635435,0.27851 0.076451,0.03421 0.5820404,0.04068 2.7399074,0.03508 2.618475,-0.0068 2.647059,-0.0075 2.732444,-0.0713 z"
           id="path825"
           inkscape:connector-curvature="0" /><path
           style="fill:#fefefe;stroke-width:0.000357143"
           d="M 11.71875,6.8465006 C 11.144103,6.7204375 10.605876,6.4489672 10.248808,6.1050934 L 10.106992,5.9685169 9.9675584,6.1122259 C 9.6828853,6.4056287 9.3005387,6.612455 8.8125,6.7370431 8.5919219,6.7933528 8.4410775,6.796875 6.25,6.796875 H 3.921875 L 3.765625,6.7197478 C 3.5582878,6.6174034 3.34145,6.3965412 3.2503016,6.19486 3.1784006,6.0357678 3.1727834,6.03125 3.046875,6.03125 2.9209664,6.03125 2.9153493,6.03577 2.8434485,6.19486 2.7523,6.3965412 2.5354623,6.6174034 2.328125,6.7197478 2.1766763,6.794505 2.1480202,6.7971766 1.3955607,6.8066912 0.52200462,6.8177369 0.41471491,6.8005741 0.1484375,6.6071934 L 0,6.4993928 V 5.6775456 4.8556987 l 0.71459344,-1.92399 C 1.1770459,1.6865895 1.4640466,0.95705187 1.5279828,0.86412372 1.6433303,0.69647178 1.8297058,0.55969744 2.0401546,0.48825897 c 0.2201694,-0.0747382 1.7932713,-0.0747382 2.0134407,0 C 4.4164825,0.61144375 4.6033006,0.83286528 4.8017591,1.375 L 4.921875,1.703125 4.9407137,1.4375 C 4.9713144,1.0060346 5.1616069,0.70582419 5.515625,0.53050441 L 5.671875,0.453125 h 1.40625 c 1.3720941,0 1.4127016,0.001755 1.671875,0.0722521 0.4562956,0.12411588 0.76161,0.29201835 1.0444016,0.5743505 l 0.2475264,0.2471245 0.174349,-0.170453 c 0.332856,-0.32541915 0.828347,-0.59525887 1.371991,-0.74717294 0.214538,-0.05995 0.320674,-0.0671741 1.005482,-0.0684381 0.853968,-0.001576 1.00213,0.0224642 1.559613,0.25305888 0.330975,0.13690328 0.5073,0.25776118 0.624427,0.42799936 0.176403,0.2563934 0.196589,0.3782069 0.185287,1.1181471 -0.0097,0.6370999 -0.01379,0.6753887 -0.08746,0.8243816 -0.09861,0.1994522 -0.286009,0.3867103 -0.484994,0.4846356 -0.132433,0.065174 -0.201502,0.076968 -0.453125,0.077379 -0.296587,4.844e-4 -0.297195,3.25e-4 -0.626659,-0.1652003 -0.351535,-0.1766131 -0.612713,-0.2350256 -0.741848,-0.165915 -0.173683,0.092952 -0.173683,0.7264981 0,0.8194506 0.129135,0.069111 0.390313,0.010698 0.741848,-0.165915 0.329464,-0.1655247 0.330072,-0.1656847 0.626659,-0.1652003 0.251623,4.125e-4 0.320692,0.012206 0.453125,0.077379 0.198985,0.097925 0.386381,0.2851834 0.484994,0.4846356 0.07366,0.1489928 0.07773,0.1872816 0.08746,0.8243816 0.0113,0.7399403 -0.0089,0.8617537 -0.185287,1.1181471 -0.16057,0.2333813 -0.524843,0.4295754 -1.105915,0.5956366 -0.257517,0.073594 -0.340583,0.081246 -0.984375,0.090679 -0.596759,0.00874 -0.743308,0.00149 -0.96875,-0.047969 z m 1.524755,-0.9898065 c 0.132478,-0.027256 0.349854,-0.092524 0.483058,-0.145041 L 13.96875,5.6161678 V 5.1492297 c 0,-0.256816 -0.01055,-0.4622506 -0.02344,-0.4565213 -0.01289,0.00573 -0.142969,0.07011 -0.289063,0.1430694 -0.374379,0.1869647 -0.595158,0.2358978 -0.997869,0.2211663 -0.272434,-0.00997 -0.360598,-0.026137 -0.503557,-0.09236 C 11.671583,4.7407309 11.4375,4.3035866 11.4375,3.625 c 0,-0.6785867 0.234083,-1.115731 0.717324,-1.3395842 0.142959,-0.066223 0.231123,-0.082394 0.503557,-0.09236 0.402711,-0.014732 0.62349,0.034201 0.997869,0.2211661 0.146094,0.072959 0.276172,0.1373404 0.289063,0.1430696 0.01289,0.00573 0.02344,-0.1997055 0.02344,-0.4565215 V 1.6338321 l -0.24219,-0.095666 C 13.320867,1.3779133 13.029094,1.3340857 12.487963,1.352114 11.9463,1.3701601 11.758438,1.4116916 11.379678,1.5971274 10.896423,1.8337231 10.533063,2.2578616 10.351854,2.796875 c -0.07919,0.235557 -0.08405,0.2833994 -0.08405,0.828125 0,0.5439703 0.0049,0.5928947 0.08374,0.828125 0.246888,0.7370812 0.836805,1.2513462 1.612714,1.4058978 0.298232,0.059404 0.985268,0.058153 1.279245,-0.00233 z M 2.0462603,5.421875 l 0.1326234,-0.375 h 0.8690926 0.8690928 l 0.131699,0.375 0.1316991,0.375 0.5854703,0.00852 c 0.5566703,0.0081 0.5847256,0.00567 0.5703378,-0.04935 C 5.3279525,5.724215 4.9654481,4.7395234 4.5307103,3.5678375 L 3.7402775,1.4375 H 3.046875 2.3534725 L 1.5630398,3.5678375 C 1.1283018,4.7395234 0.76579759,5.724215 0.75747484,5.7560412 c -0.014388,0.05502 0.013672,0.057447 0.57051496,0.04935 L 1.913637,5.796875 Z M 2.4770419,4.1796875 C 2.4852802,4.1582031 2.6152787,3.7820313 2.7659275,3.34375 2.9165763,2.9054687 3.0424064,2.5435434 3.0455499,2.5394714 c 0.00314,-0.00407 0.1268542,0.3474905 0.2749123,0.7812502 0.1480581,0.4337593 0.2786531,0.8132628 0.2902106,0.8433409 0.019553,0.050884 -0.019662,0.054687 -0.5637978,0.054687 -0.4550048,0 -0.5814871,-0.00867 -0.5698331,-0.039062 z M 8.489385,5.7635978 C 8.9629303,5.6657844 9.2958388,5.4394488 9.4418303,5.116055 9.5058978,4.9741353 9.5153984,4.9047675 9.5155038,4.578125 9.5156288,4.2386684 9.5078653,4.1865781 9.4337556,4.0285475 9.3323553,3.8123216 9.1635128,3.6399678 8.9613253,3.5462931 8.8249013,3.4830869 8.8149094,3.4721972 8.8756497,3.4529188 8.9805625,3.4196206 9.1839712,3.2224366 9.2600756,3.0802567 9.3191316,2.969927 9.328125,2.9035642 9.328125,2.578125 9.328125,2.2447511 9.3199462,2.1875152 9.2544438,2.0625 9.1067247,1.7805692 8.8982163,1.6258816 8.5139234,1.5131244 8.3555059,1.4666424 8.1519734,1.4567148 7.1328125,1.4457585 L 5.9375,1.4329085 V 3.6227044 5.8125 h 1.1575675 c 0.9285806,0 1.2044006,-0.00967 1.3943175,-0.048902 z M 7.0625,4.4795987 V 3.8966975 l 0.4577225,0.018546 c 0.3945384,0.015986 0.4770691,0.028508 0.5978753,0.090714 C 8.302515,4.1009175 8.375,4.2366662 8.375,4.4870787 8.375,4.6946634 8.31003,4.8288597 8.1533719,4.9448569 8.0568578,5.01632 7.7562253,5.0600462 7.3515625,5.0614775 L 7.0625,5.0625 Z m 0,-1.8077237 V 2.1785189 l 0.4002984,0.016235 c 0.4321382,0.017527 0.5426188,0.050944 0.6594422,0.1994607 0.050319,0.06397 0.065259,0.1275383 0.065259,0.27766 0,0.1501217 -0.014941,0.2136904 -0.065259,0.27766 -0.1168234,0.1485175 -0.227304,0.1819345 -0.6594422,0.199461 L 7.0625,3.1652313 Z"
           id="path823"
           inkscape:connector-curvature="0"
           sodipodi:nodetypes="sscssscssssssscccssssscsscssscsssssccsssssssscscscsssscssscssssssscssssscsssccccccssscccsssccssssssscscsssssssscccscccsssssccccssssscc" /><path
           style="fill:#323232;stroke-width:0.000357143"
           d="M 11.96426,5.8590228 C 11.530946,5.7727119 11.141479,5.5665769 10.846442,5.2673897 10.615225,5.0329203 10.460457,4.7782756 10.351546,4.453125 10.272755,4.2178947 10.267808,4.1689703 10.267808,3.625 c 0,-0.5447256 0.0049,-0.592568 0.08405,-0.828125 0.181209,-0.5390134 0.544569,-0.9631519 1.027824,-1.1997476 0.37876,-0.1854358 0.566622,-0.2269673 1.108285,-0.2450134 0.541131,-0.018028 0.832904,0.025799 1.2386,0.1860522 l 0.242187,0.095666 v 0.4669381 c 0,0.256816 -0.01055,0.4622506 -0.02344,0.4565215 -0.01289,-0.00573 -0.142969,-0.07011 -0.289063,-0.1430696 -0.374379,-0.1869647 -0.595158,-0.2358977 -0.997869,-0.2211661 -0.272434,0.00997 -0.360598,0.026137 -0.503557,0.09236 C 11.671583,2.509269 11.4375,2.9464133 11.4375,3.625 c 0,0.6785866 0.234083,1.1157309 0.717324,1.3395841 0.142959,0.066223 0.231123,0.082394 0.503557,0.09236 0.402711,0.014731 0.62349,-0.034202 0.997869,-0.2211663 0.146094,-0.072959 0.276172,-0.1373403 0.289063,-0.1430694 0.01289,-0.00573 0.02344,0.1997053 0.02344,0.4565213 v 0.4669381 l -0.242187,0.095485 c -0.133204,0.052517 -0.35058,0.117785 -0.483058,0.145041 -0.293977,0.060482 -0.981013,0.061733 -1.279245,0.00233 z M 0.75747484,5.7560412 C 0.76579759,5.724215 1.1283018,4.7395234 1.5630398,3.5678375 L 2.3534725,1.4375 H 3.046875 3.7402775 l 0.7904328,2.1303375 c 0.4347378,1.1716859 0.7972422,2.1563775 0.805565,2.1882037 0.014388,0.055019 -0.013667,0.057447 -0.5703378,0.04935 l -0.5854703,-0.00852 -0.1316991,-0.375 -0.131699,-0.375 H 3.0479763 2.1788837 l -0.1326234,0.375 -0.1326233,0.375 -0.5856472,0.00852 c -0.55684299,0.0081 -0.58490299,0.00567 -0.57051496,-0.04935 z M 3.6106728,4.1640625 C 3.5991153,4.1339844 3.4685203,3.7544809 3.3204622,3.3207216 3.1724041,2.8869619 3.0486935,2.5353994 3.0455499,2.5394714 3.0424064,2.5435434 2.9165763,2.9054687 2.7659275,3.34375 2.6152787,3.7820313 2.4852802,4.1582031 2.4770419,4.1796875 2.4653879,4.2100797 2.5918703,4.21875 3.046875,4.21875 c 0.5441356,0 0.5833503,-0.0038 0.5637978,-0.054687 z M 5.9375,3.6227044 V 1.4329085 l 1.1953125,0.01285 c 1.0191609,0.010956 1.2226934,0.020884 1.3811109,0.067366 0.3842929,0.1127572 0.5928013,0.2674448 0.7405204,0.5493756 0.065502,0.1250152 0.073681,0.1822511 0.073681,0.515625 0,0.3254392 -0.00899,0.391802 -0.068049,0.5021317 -0.076104,0.1421799 -0.2795131,0.3393639 -0.3844259,0.372662 -0.06074,0.019278 -0.050748,0.030168 0.085676,0.093374 0.2021875,0.093675 0.37103,0.2660285 0.4724303,0.4822544 0.07411,0.1580306 0.081858,0.2101209 0.081748,0.5495775 -9.38e-5,0.3266425 -0.00961,0.3960103 -0.073673,0.53793 C 9.3507853,5.3177334 9.1161178,5.5422269 8.8933697,5.6407369 8.5493028,5.7928994 8.3440916,5.8125 7.0950675,5.8125 H 5.9375 Z M 7.8564969,5.032645 C 8.209525,4.9871659 8.375,4.8130537 8.375,4.4870787 8.375,4.2366662 8.302515,4.1009175 8.1180978,4.0059572 7.9972916,3.9437513 7.9147609,3.9312291 7.5202225,3.9152434 L 7.0625,3.8966975 V 4.4795987 5.0625 L 7.3515625,5.06148 C 7.5105469,5.0609156 7.7377672,5.0479412 7.8564969,5.0326456 Z M 7.9600391,3.0826295 C 8.12973,2.994879 8.1875,2.8905564 8.1875,2.671875 8.1875,2.5217533 8.1725594,2.4581846 8.1222406,2.394215 8.0054172,2.2456979 7.8949366,2.212281 7.4627984,2.1947543 L 7.0625,2.1785189 V 2.671875 3.1652313 l 0.4002984,-0.016236 c 0.2795741,-0.011339 0.4295347,-0.031354 0.4972407,-0.066366 z"
           id="path819"
           inkscape:connector-curvature="0"
           sodipodi:nodetypes="sssscssscssscssssssscsssssscccssccccccccsssssssssccsssscsssccssccssssccccsssssscccss" /></g><path
         inkscape:connector-curvature="0"
         id="path827-666"
         d="M 0,8 V 0 h 8 8 v 8 8 H 8 0 Z m 11.326467,6.00029 c 3.319702,-1.106746 3.322552,-1.107867 3.51104,-1.381855 0.206207,-0.299746 0.193743,-0.0036 0.193743,-4.60281 0,-4.5991825 0.01246,-4.3030644 -0.193743,-4.60281 C 14.649019,3.1388275 14.646169,3.1377059 11.326467,2.0309595 8.4439647,1.0699703 8.2195475,1.0000958 8.015625,1.0000958 c -0.2039225,0 -0.4283397,0.069875 -3.3108416,1.0308637 C 1.3850808,3.1377059 1.3822313,3.1388275 1.1937435,3.412815 0.98753566,3.7125606 1,3.4164425 1,8.015625 c 0,4.599183 -0.0124643,4.303064 0.1937435,4.60281 0.1884878,0.273988 0.1913373,0.275109 3.5110399,1.381855 2.8825019,0.96099 3.1069191,1.030864 3.3108416,1.030864 0.2039225,0 0.4283397,-0.06987 3.310842,-1.030864 z"
         style="fill:#ffffff;fill-opacity:0;stroke-width:0.000357143" /></g><g
       id="ATTRIBUTE_REMOVE"
       transform="matrix(0.00183895,0,0,0.00183895,5.9720208,19.928037)"
       inkscape:label="ATTRIBUTE_STORE"
       style="stroke-width:5.43788"><path
         style="fill:#cbcbcb;stroke-width:0.169933"
         d="m 1848.438,-2830.3175 v -721.8206 h 1263.186 1263.1861 v 721.8206 721.8206 h -721.8206 -721.8206 v -541.3654 -541.3655 h -360.9103 -360.9103 v 541.3655 541.3654 H 2028.8931 1848.438 Z"
         id="path823-8"
         inkscape:connector-curvature="0" /><path
         style="fill:#0065cb;stroke-width:0.169933"
         d="M 943.29848,-2647.0862 404.79671,-3185.6759 V -4632.093 -6078.5102 h 360.9103 360.91029 v 1082.7309 1082.7309 H 3111.624 5096.6307 V -5356.6896 -6800.3308 H 2750.7137 404.79671 v -180.4551 -180.4552 H 2931.1689 5457.541 v 2526.3721 2526.3721 h -541.3655 -541.3654 v -721.8206 -721.8206 H 3111.624 1848.438 v 721.8206 721.8206 h -183.3189 -183.3188 z"
         id="path821-1"
         inkscape:connector-curvature="0" /><path
         style="fill:#323232;stroke-width:0.169933"
         d="m 2209.3483,-2649.8623 v -541.3655 h 360.9103 360.9103 v 541.3655 541.3654 H 2570.2586 2209.3483 Z M 404.79671,-6439.4205 v -360.9103 h 360.9103 360.91029 v 360.9103 360.9103 H 765.70701 404.79671 Z"
         id="path819-2"
         inkscape:connector-curvature="0" /><path
         style="fill:#fefefe;stroke-width:0.169933"
         d="M 1126.6173,-5356.6896 V -6800.3308 H 3111.624 5096.6307 v 1443.6412 1443.6412 H 3111.624 1126.6173 Z"
         id="path825-8"
         inkscape:connector-curvature="0" /></g></g></svg>
