<?xml version="1.0" encoding="UTF-8" standalone="no"?>
<!-- Created with Inkscape (http://www.inkscape.org/) -->

<svg
   version="1.1"
   id="svg2"
   width="1600"
   height="1600"
   viewBox="0 0 1600 1600"
   sodipodi:docname="node_griddivergence.svg"
   inkscape:version="1.4 (86a8ad7, 2024-10-11)"
   inkscape:export-filename="VOLUME_CUBE.png"
   inkscape:export-xdpi="3072"
   inkscape:export-ydpi="3072"
   xml:space="preserve"
   xmlns:inkscape="http://www.inkscape.org/namespaces/inkscape"
   xmlns:sodipodi="http://sodipodi.sourceforge.net/DTD/sodipodi-0.dtd"
   xmlns="http://www.w3.org/2000/svg"
   xmlns:svg="http://www.w3.org/2000/svg"
   xmlns:rdf="http://www.w3.org/1999/02/22-rdf-syntax-ns#"
   xmlns:cc="http://creativecommons.org/ns#"
   xmlns:dc="http://purl.org/dc/elements/1.1/"><metadata
     id="metadata8"><rdf:RDF><cc:Work
         rdf:about=""><dc:format>image/svg+xml</dc:format><dc:type
           rdf:resource="http://purl.org/dc/dcmitype/StillImage" /></cc:Work></rdf:RDF></metadata><defs
     id="defs6" /><sodipodi:namedview
     pagecolor="#808080"
     bordercolor="#666666"
     borderopacity="1"
     objecttolerance="10"
     gridtolerance="10"
     guidetolerance="10"
     inkscape:pageopacity="0"
     inkscape:pageshadow="2"
     inkscape:window-width="1920"
     inkscape:window-height="1009"
     id="namedview4"
     showgrid="true"
     inkscape:zoom="0.25"
     inkscape:cx="786"
     inkscape:cy="1112"
     inkscape:window-x="-8"
     inkscape:window-y="-8"
     inkscape:window-maximized="1"
     inkscape:current-layer="MESH_CUBE"
     inkscape:showpageshadow="0"
     inkscape:pagecheckerboard="1"
     inkscape:deskcolor="#d1d1d1"
     showguides="false"><inkscape:grid
       type="xygrid"
       id="grid10683"
       originx="0"
       originy="0"
       spacingy="100"
       spacingx="100"
       units="px" /></sodipodi:namedview><g
     id="MESH_CUBE"
     transform="matrix(100,0,0,100,0,4.9999997e-5)"
     style="display:inline;stroke-width:0.0114286;enable-background:new"
     inkscape:label="VOLUME_CUBE"><path
       inkscape:connector-curvature="0"
       id="path827-666"
       d="M 0.00353124,7.9975577 V -0.00244232 H 8.0035308 16.003532 V 7.9975577 15.997558 H 8.0035308 0.00353124 Z M 11.329999,13.997848 c 3.319702,-1.106746 3.322552,-1.107867 3.51104,-1.381855 0.206207,-0.299746 0.193743,-0.0036 0.193743,-4.6028103 0,-4.5991825 0.01246,-4.3030644 -0.193743,-4.60281 C 14.652551,3.1363852 14.649701,3.1352636 11.329999,2.0285172 8.4474958,1.067528 8.2230778,0.99765348 8.0191558,0.99765348 c -0.203923,0 -0.42834,0.069875 -3.3108416,1.03086372 -3.319702,1.1067464 -3.322552,1.107868 -3.511039,1.3818555 -0.20620796,0.2997456 -0.193744,0.00363 -0.193744,4.60281 0,4.5991833 -0.01246,4.3030643 0.193744,4.6028103 0.188487,0.273988 0.191337,0.275109 3.511039,1.381855 2.8825016,0.96099 3.1069186,1.030864 3.3108416,1.030864 0.203923,0 0.42834,-0.06987 3.3108432,-1.030864 z"
       style="display:inline;fill:#ffffff;fill-opacity:0;stroke-width:0.000357143;enable-background:new" /><g
       id="g3"
       transform="matrix(0.64095584,0,0,0.64095584,5.6196007,2.0238494)"
       inkscape:label="Grid"
       style="display:inline;stroke-width:0.0178305;enable-background:new"><path
         id="rect1"
         style="baseline-shift:baseline;display:inline;overflow:visible;vector-effect:none;fill:#323232;stroke-width:0.0178305;stroke-linecap:round;stroke-linejoin:round;paint-order:markers stroke fill;enable-background:accumulate;stop-color:#000000;stop-opacity:1"
         d="M 4.1230891,2.3199999 H 14.516912 c 0.998911,0 1.803088,0.8041776 1.803088,1.8030887 V 14.516911 C 16.32,15.515822 15.515823,16.32 14.516912,16.32 H 4.1230891 C 3.124178,16.32 2.3200004,15.515822 2.3200004,14.516911 V 4.1230886 c 0,-0.9989111 0.8041776,-1.8030887 1.8030887,-1.8030887 z" /><g
         id="rect2-2-5-7"
         transform="matrix(1.0716036,0,0,1.0716036,-0.77860787,-0.66768013)"
         style="stroke-width:0.0166389" /><g
         id="rect2-2-5-7-2"
         transform="matrix(1.0716036,0,0,1.0716036,-0.61860782,-0.66768013)"
         style="stroke-width:0.0166389" /><g
         id="rect2-2-5-7-2-7"
         transform="matrix(1.0716036,0,0,1.0716036,-0.61860782,-0.66768013)"
         style="stroke-width:0.0166389" /><g
         id="rect2-2-5-7-2-7-9"
         transform="matrix(1.0716036,0,0,1.0716036,-0.64256442,-0.66768013)"
         style="stroke-width:0.0166389" /><path
         id="path4"
         style="display:inline;fill:#0065fe;fill-opacity:1;stroke-width:0.0166389;stroke-linecap:round;stroke-linejoin:round;paint-order:markers stroke fill;enable-background:new"
         transform="matrix(1.0716036,0,0,1.0716036,-0.64256442,-0.6676801)"
         d="m 4.8242187,9.3203125 c -0.8957377,0 -1.6308593,0.7370745 -1.6308593,1.6328125 V 13.6875 c 0,0.895738 0.7351216,1.632812 1.6308593,1.632813 h 2.8398438 c 0.8957377,0 1.6328125,-0.737075 1.6328125,-1.632813 v -2.734375 c 0,-0.895738 -0.7370748,-1.6328125 -1.6328125,-1.6328125 z m 0,1.0000005 h 2.8398438 c 0.3590371,0 0.6328125,0.273775 0.6328125,0.632812 V 13.6875 c 0,0.359037 -0.2737754,0.632813 -0.6328125,0.632813 H 4.8242187 c -0.359037,0 -0.6308593,-0.273776 -0.6308593,-0.632813 v -2.734375 c 0,-0.359037 0.2718223,-0.632813 0.6308593,-0.632812 z M 10.922747,9.3203125 c -0.895738,0 -1.6328131,0.7370745 -1.6328131,1.6328125 V 13.6875 c 0,0.895738 0.7370751,1.632812 1.6328131,1.632813 h 2.839843 c 0.895738,0 1.632813,-0.737075 1.632813,-1.632813 v -2.734375 c 0,-0.895738 -0.737075,-1.6328125 -1.632813,-1.6328125 z m 0,1.0000005 h 2.839843 c 0.359037,0 0.632813,0.273775 0.632813,0.632812 V 13.6875 c 0,0.359037 -0.273776,0.632813 -0.632813,0.632813 h -2.839843 c -0.359037,0 -0.632813,-0.273776 -0.632813,-0.632813 v -2.734375 c 0,-0.359037 0.273776,-0.632813 0.632813,-0.632812 z m 0,-7.0000005 c -0.895738,0 -1.6328131,0.7370748 -1.6328131,1.6328125 V 7.6875 c 0,0.8957377 0.7370751,1.6328125 1.6328131,1.6328125 h 2.839843 c 0.895738,0 1.632813,-0.7370748 1.632813,-1.6328125 V 4.953125 c 0,-0.8957377 -0.737075,-1.6328125 -1.632813,-1.6328125 z m 0,1 h 2.839843 c 0.359037,0 0.632813,0.2737753 0.632813,0.6328125 V 7.6875 c 0,0.3590372 -0.273776,0.6328125 -0.632813,0.6328125 h -2.839843 c -0.359037,0 -0.632813,-0.2737753 -0.632813,-0.6328125 V 4.953125 c 0,-0.3590372 0.273776,-0.6328125 0.632813,-0.6328125 z m -6.0965751,-1 c -0.8957377,0 -1.6328125,0.7370748 -1.6328125,1.6328125 V 7.6875 c 0,0.8957377 0.7370748,1.6328125 1.6328125,1.6328125 h 2.8398437 c 0.8957378,0 1.6308594,-0.7370748 1.6308594,-1.6328125 V 4.953125 c 0,-0.8957377 -0.7351216,-1.6328125 -1.6308594,-1.6328125 z m 0,1 h 2.8398437 c 0.3590371,0 0.6308594,0.2737753 0.6308594,0.6328125 V 7.6875 c 0,0.3590372 -0.2718223,0.6328125 -0.6308594,0.6328125 H 4.8261719 C 4.4671348,8.3203125 4.1933594,8.0465372 4.1933594,7.6875 V 4.953125 c 0,-0.3590372 0.2737754,-0.6328125 0.6328125,-0.6328125 z" /><path
         id="path5"
         style="display:inline;fill:#98cbfe;fill-opacity:1;stroke-width:0.0166389;stroke-linecap:round;stroke-linejoin:round;paint-order:markers stroke fill;enable-background:new"
         transform="matrix(1.0716036,0,0,1.0716036,-0.64256442,-0.6676801)"
         d="m 4.8250043,9.8199978 h 2.8396154 c 0.6273874,0 1.1324682,0.5050812 1.1324682,1.1324682 v 2.735067 c 0,0.627388 -0.5050808,1.132469 -1.1324682,1.132469 H 4.8250043 c -0.6273874,0 -1.1324682,-0.505081 -1.1324682,-1.132469 v -2.735067 c 0,-0.627387 0.5050808,-1.1324682 1.1324682,-1.1324682 z m 6.0975437,0 h 2.839616 c 0.627387,0 1.132468,0.5050812 1.132468,1.1324682 v 2.735067 c 0,0.627388 -0.505081,1.132469 -1.132468,1.132469 h -2.839616 c -0.627387,0 -1.1324682,-0.505081 -1.1324682,-1.132469 v -2.735067 c 0,-0.627387 0.5050812,-1.1324682 1.1324682,-1.1324682 z m 0,-6 h 2.839616 c 0.627387,0 1.132468,0.5050809 1.132468,1.1324683 v 2.7350672 c 0,0.6273874 -0.505081,1.1324683 -1.132468,1.1324683 h -2.839616 c -0.627387,0 -1.1324682,-0.5050809 -1.1324682,-1.1324683 V 4.9524661 c 0,-0.6273874 0.5050812,-1.1324683 1.1324682,-1.1324683 z m -6.0970346,0 h 2.8396153 c 0.6273874,0 1.1324683,0.5050809 1.1324683,1.1324683 v 2.7350672 c 0,0.6273874 -0.5050809,1.1324683 -1.1324683,1.1324683 H 4.8255134 c -0.6273874,0 -1.1324682,-0.5050809 -1.1324682,-1.1324683 V 4.9524661 c 0,-0.6273874 0.5050808,-1.1324683 1.1324682,-1.1324683 z" /></g><g
       id="LOC_SCALE"
       style="stroke-width:0.0118106"
       transform="matrix(-0.68424048,0.68424048,-0.68424048,-0.68424048,15.330925,7.9279718)"><path
         style="fill:none;stroke-width:0.000369078"
         d="M 0,8 V 0 h 8 8 l -0.0012,6.0234375 c -10e-4,5.0463855 -0.008,6.0082305 -0.04289,5.9296875 -0.107796,-0.242538 -0.405355,-0.36075 -0.664789,-0.264103 -0.04838,0.01802 -0.316376,0.260332 -0.595536,0.53846 L 14.18802,12.73317 12.883085,11.432948 c -1.217927,-1.213526 -1.316995,-1.304646 -1.485795,-1.366585 -0.851226,-0.3123427 -1.6432454,0.479676 -1.330902,1.330902 0.06194,0.168801 0.153058,0.267869 1.366585,1.485795 l 1.300221,1.304935 -0.505688,0.507565 c -0.278128,0.279161 -0.520435,0.547152 -0.53846,0.595537 -0.09665,0.259434 0.02156,0.556992 0.264103,0.664789 0.07854,0.03491 -0.883302,0.04187 -5.9296872,0.04289 L 0,16 Z m 5.390625,7.658803 C 5.6469419,15.516909 5.8134353,15.176515 5.7609722,14.901634 5.7173191,14.672914 5.6041528,14.532722 4.8556194,13.780069 L 4.0930106,13.013263 7.5910475,9.5152581 C 9.5149678,7.5913553 11.086618,6.0063222 11.083605,5.9929625 c -0.003,-0.01336 0.422914,-0.4533266 0.946507,-0.9777034 l 0.951987,-0.9534125 0.766763,0.7625659 c 0.454457,0.4519691 0.817676,0.7875641 0.891763,0.8239406 0.266133,0.130671 0.483101,0.1203407 0.739624,-0.035215 0.32338,-0.1960984 0.447152,-0.6217256 0.278262,-0.9568881 -0.08661,-0.1718813 -4.070488,-4.17984566 -4.27659,-4.30244837 -0.274073,-0.1630356 -0.522163,-0.16265659 -0.792416,0.001211 -0.324641,0.19684487 -0.448601,0.622364 -0.278931,0.95748777 0.04587,0.090605 0.342457,0.4133768 0.833807,0.9074308 L 11.906989,2.9867366 8.4089525,6.4847419 C 6.4850322,8.4086447 4.9133816,9.9936778 4.9163953,10.007037 c 0.00301,0.01336 -0.4229147,0.453327 -0.9465075,0.977704 L 3.0179005,11.938153 2.2511377,11.175588 C 1.7966811,10.723618 1.4334619,10.388023 1.359375,10.351647 1.0932416,10.220976 0.87627366,10.231306 0.61975116,10.386862 0.29637086,10.58296 0.17259883,11.008588 0.34148888,11.34375 c 0.0870545,0.17276 4.07104232,4.180183 4.27826052,4.303427 0.2625881,0.156176 0.5032087,0.159805 0.7708756,0.01163 z m 10.296859,0.306089 c 0.108872,-0.04341 0.21916,-0.150974 0.268402,-0.261767 0.04036,-0.09081 0.04171,-0.08763 0.04289,0.101563 L 16,16 15.804688,15.998 c -0.162357,-0.0016 -0.182133,-0.0072 -0.117204,-0.03313 z"
         id="path827"
         inkscape:connector-curvature="0" /><g
         id="path825-3"
         style="fill:#3298fe;fill-opacity:1;stroke-width:0.0118106"><path
           style="fill:#3298fe;fill-opacity:1;stroke-width:0.0118106"
           d="M 3.5474344,12.46931 3.0174335,11.93862 3.9696544,10.984974 C 4.4933756,10.460469 4.9194091,10.020398 4.9163953,10.007038 4.9133853,9.993678 6.4851894,8.4084875 8.4093016,6.4843928 l 3.4983854,-3.4983541 0.537555,0.537555 0.537555,0.537555 -0.952336,0.9521916 c -0.523785,0.523705 -0.952336,0.9662441 -0.952336,0.9834197 0,0.030572 -6.9532763,7.001803 -6.9847197,7.002756 -0.00878,2.81e-4 -0.2544703,-0.238326 -0.5459709,-0.530206 z"
           id="path3" /><path
           d="M 11.908203,2.2792969 8.0566406,6.1308594 C 7.0941741,7.0933171 6.2197798,7.9701357 5.5859375,8.609375 4.7591044,9.4432486 4.1581884,10.087092 3.6152344,10.630859 l -1.3046875,1.308594 0.8828125,0.882813 c 0.1472439,0.147435 0.283072,0.2821 0.3847656,0.380859 0.050847,0.04938 0.093601,0.08998 0.1269531,0.121094 0.016676,0.01556 0.030363,0.02666 0.046875,0.04101 0.00826,0.0072 0.015671,0.01586 0.033203,0.0293 0.00877,0.0067 0.017503,0.01355 0.042969,0.0293 0.012733,0.0079 0.062248,0.03309 0.0625,0.0332 1.261e-4,5.6e-5 0.070215,0.02536 0.070312,0.02539 9.74e-5,2.7e-5 0.1483689,0.01758 0.1484375,0.01758 1.228e-4,-4e-6 0.2555261,-0.07986 0.2558594,-0.08008 3.332e-4,-2.16e-4 0.031638,-0.02346 0.039063,-0.0293 0.014848,-0.01167 0.019687,-0.01646 0.025391,-0.02148 0.011406,-0.01005 0.020272,-0.01692 0.029297,-0.02539 0.01805,-0.01695 0.039061,-0.03791 0.066406,-0.06445 0.05469,-0.05309 0.1314245,-0.128708 0.2285156,-0.224609 0.1941824,-0.191803 0.4684436,-0.463649 0.796875,-0.791016 0.6568626,-0.654736 1.529008,-1.52676 2.4003903,-2.4003927 C 8.8225541,8.9896489 9.6927738,8.1135183 10.345703,7.4550781 11.747058,6.0418973 11.600811,6.151145 12.38489,5.3671849 l 1.304687,-1.3066406 -0.890625,-0.890625 z"
           id="path6"
           sodipodi:nodetypes="ccscccsscccssccccccsssscccc"
           style="fill:#3298fe;fill-opacity:1;stroke-width:0.0118106" /></g><path
         style="fill:#cbfefe;fill-opacity:1;stroke-width:0.000369078"
         d="m 3.5474344,12.46931 -0.5300009,-0.53069 8.8902535,-8.9525813 0.537555,0.537555 0.537555,0.537555 C 9.0750235,7.9683297 7.5356456,9.6882079 4.0934053,12.999516 4.0846253,12.999797 3.8389352,12.76119 3.5474344,12.46931 Z"
         id="path825"
         inkscape:connector-curvature="0"
         sodipodi:nodetypes="scccccs" /><g
         id="path819-1"
         style="stroke-width:0.0118106"><path
           style="fill:#fe0000;stroke-width:0.0118106"
           d="M 4.854124,15.752435 C 4.799674,15.738825 4.694205,15.691455 4.619749,15.647177 4.412531,15.523933 0.42854328,11.51651 0.34148888,11.34375 c -0.1688901,-0.335162 -0.045118,-0.76079 0.2782623,-0.956888 0.2563107,-0.155427 0.47282102,-0.165834 0.73962382,-0.03555 0.156124,0.07624 4.171391,4.07272 4.286823,4.266768 0.163036,0.274073 0.162657,0.522163 -0.0012,0.792416 -0.157541,0.25982 -0.509893,0.412164 -0.790864,0.34194 z M 14.822874,5.7211853 C 14.768424,5.7075763 14.662955,5.6602103 14.588499,5.6159272 14.381281,5.4926831 10.397293,1.4852597 10.310239,1.3125 c -0.16889,-0.3351625 -0.04512,-0.7607897 0.278262,-0.9568881 0.256311,-0.1554273 0.472821,-0.165834 0.739624,-0.035551 0.156124,0.076237 4.171391,4.0727196 4.286823,4.2667681 0.163036,0.2740722 0.162657,0.5221628 -0.0012,0.7924159 -0.157541,0.2598197 -0.509893,0.4121638 -0.790863,0.34194 z"
           id="path1" /><path
           d="M 11.546875,-0.12890625 C 11.174798,-0.31059558 10.684674,-0.28729314 10.330078,-0.07226562 9.7807805,0.26082768 9.5736657,0.9623668 9.8632813,1.5371094 c 0.045232,0.089764 0.058335,0.092884 0.076172,0.1152343 0.017837,0.02235 0.034657,0.041561 0.054687,0.064453 0.04006,0.045784 0.08956,0.1006987 0.1503907,0.1660156 0.121661,0.1306338 0.286678,0.3036044 0.482422,0.5058594 0.391489,0.40451 0.90428,0.9266258 1.421875,1.4472656 0.517595,0.5206398 1.038791,1.0393025 1.445313,1.4375 0.20326,0.1990987 0.378745,0.366669 0.511718,0.4921875 0.06649,0.062759 0.121194,0.1145696 0.167969,0.15625 0.04678,0.04168 0.0407,0.053162 0.158203,0.1230469 0.118121,0.070253 0.197271,0.119153 0.369141,0.1621093 C 15.242575,6.3423457 15.75703,6.1070261 16.041016,5.6386717 16.275029,5.252708 16.275911,4.7203368 16.044916,4.332031 15.971303,4.2082738 15.962983,4.2197161 15.921875,4.1738281 15.880767,4.1279402 15.829956,4.0737199 15.767578,4.0078125 15.642822,3.8759978 15.474102,3.7027578 15.275391,3.5 14.877968,3.0944844 14.359856,2.5722669 13.839844,2.0546875 13.319832,1.5371081 12.79911,1.0235994 12.396484,0.6328125 12.195172,0.43741904 12.023558,0.27310449 11.894531,0.15234375 11.830018,0.09196338 11.775183,0.04331938 11.730469,0.00390625 c -0.02236,-0.01970656 -0.04062,-0.03707582 -0.0625,-0.0546875 -0.02188,-0.01761168 -0.01766,-0.02761757 -0.121094,-0.078125 z m 3.154297,6.33593745 0.06836,0.015625 0.07227,-0.00195 z M 1.578125,9.9023438 C 1.2060478,9.7206526 0.71592395,9.7439572 0.36132813,9.9589844 c -0.54929604,0.3330936 -0.75641387,1.0346306 -0.46679688,1.6093746 0.04523232,0.08976 0.05833525,0.09288 0.07617187,0.115235 0.01783663,0.02235 0.03465721,0.04156 0.05468751,0.06445 0.04006059,0.04578 0.08956031,0.100699 0.15039062,0.166016 0.12166061,0.130633 0.28667729,0.303604 0.48242187,0.505859 0.39148918,0.40451 0.90427998,0.926626 1.42187498,1.447266 0.517595,0.520639 1.0387908,1.039302 1.4453125,1.4375 0.2032609,0.199098 0.3787458,0.366669 0.5117188,0.492187 0.066486,0.06276 0.1211937,0.11457 0.1679687,0.15625 0.046775,0.04168 0.040702,0.05316 0.1582031,0.123047 0.1180931,0.07023 0.197261,0.119147 0.3691407,0.162109 0.5414028,0.135315 1.0558583,-0.100004 1.3398437,-0.568359 0.2340133,-0.385963 0.2348952,-0.918335 0.00391,-1.306641 C 6.0025533,14.239524 5.9942329,14.250966 5.953125,14.205078 5.9120171,14.15919 5.8612062,14.10497 5.7988281,14.039063 5.6740719,13.907248 5.5053517,13.734008 5.3066406,13.53125 4.9092185,13.125735 4.3911059,12.603517 3.8710938,12.085938 3.3510816,11.568358 2.8303596,11.054849 2.4277344,10.664063 2.2264218,10.468669 2.0548079,10.304355 1.9257812,10.183594 1.8612679,10.123213 1.8064328,10.074569 1.7617187,10.035156 1.7393617,10.015446 1.7210987,9.99808 1.6992187,9.980469 1.6773387,9.962857 1.6815517,9.95285 1.578125,9.9023438 Z m 3.1542969,6.3359372 0.035156,0.0078 0.037109,0.0039 z"
           id="path2"
           sodipodi:nodetypes="sssssssssscssccssssssssscccccssssssssssccccssssssssccccc"
           style="stroke-width:0.0118106" /></g><path
         style="fill:#fe0000;stroke-width:0.000369078"
         d="M 4.8541244,15.752435 C 4.7996741,15.738826 4.6942053,15.69146 4.6197494,15.647177 4.4125312,15.523933 0.42854334,11.51651 0.34148888,11.34375 0.17259883,11.008588 0.29637086,10.58296 0.61975116,10.386862 0.87606187,10.231435 1.0925722,10.221028 1.359375,10.351311 c 0.156124,0.07624 4.1713909,4.07272 4.2868234,4.266768 0.1630357,0.274073 0.1626566,0.522163 -0.00121,0.792416 -0.157541,0.25982 -0.5098932,0.412164 -0.790864,0.34194 z M 14.822874,5.7211853 C 14.768424,5.7075762 14.662955,5.66021 14.588499,5.6159272 14.381281,5.4926831 10.397293,1.4852597 10.310239,1.3125 c -0.16889,-0.3351625 -0.04512,-0.76078966 0.278262,-0.95688809 0.256311,-0.15542733 0.472821,-0.16583406 0.739624,-0.0355506 0.156124,0.0762375 4.171391,4.07271959 4.286823,4.26676809 0.163036,0.2740722 0.162657,0.5221628 -0.0012,0.7924159 -0.157541,0.2598197 -0.509893,0.4121638 -0.790863,0.34194 z"
         id="path819"
         inkscape:connector-curvature="0" /></g><g
       id="SAMPLE_NEAREST-5-1"
       style="display:inline;stroke-width:0.0114286;enable-background:new"
       transform="translate(1.3713453,-0.07211219)"><path
         style="fill:#fefe00;stroke-width:0.000357143"
         d="M 2.984375,9.4969731 2.890625,9.4950325 2.695708,9.4526853 2.500791,9.4103378 2.3059599,9.3067322 2.1111289,9.2031263 1.9498351,9.04203 1.7885412,8.8809338 1.6787118,8.6613978 1.5688825,8.4418619 1.5316177,8.2209316 1.494353,8 1.5316177,7.7790697 1.5688825,7.5581394 1.6787118,7.3386034 1.7885412,7.1190675 1.9538043,6.9538044 2.1190674,6.7885412 2.3386035,6.6787119 2.5581395,6.5688825 2.7790698,6.5316178 3,6.4943531 3.2209303,6.5316181 3.4418606,6.5688831 3.6613966,6.6787125 3.8809325,6.7885418 4.0461956,6.953805 4.2114587,7.1190681 4.3212881,7.338604 4.4311175,7.55814 4.4683825,7.7790703 4.5056469,8 4.4683822,8.2209303 4.4311175,8.4418606 4.3212881,8.6613966 4.2114587,8.8809325 4.050165,9.0420288 3.8888712,9.203125 3.6950544,9.30619 3.5012378,9.4092553 3.2896816,9.454085 3.078125,9.4989147 2.984375,9.4969741 Z"
         id="path305-1-3" /><path
         style="fill:#323232;stroke-width:0.000357143"
         d="M 2.984375,9.9969731 2.765625,9.9950325 2.5625,9.9514066 2.359375,9.9077803 2.0948078,9.777155 1.8302406,9.6465297 1.5918561,9.4081453 1.3534716,9.1697606 1.2230479,8.9051934 1.0926243,8.6406262 l -0.04577,-0.21875 -0.04577,-0.21875 v -0.203125 -0.203125 l 0.04577,-0.21875 0.04577,-0.21875 L 1.2230479,7.0948091 1.3534716,6.8302419 1.5918561,6.5918572 1.8302406,6.3534728 2.0948078,6.2230491 2.359375,6.0926256 l 0.21875,-0.04577 0.21875,-0.045769 H 3 3.203125 l 0.21875,0.045769 0.21875,0.04577 0.2645672,0.1304235 0.2645672,0.1304237 0.2383847,0.2383844 0.2383843,0.2383847 0.1304238,0.2645672 0.1304234,0.2645671 0.04577,0.21875 0.045769,0.21875 v 0.203125 0.203125 l -0.045769,0.21875 -0.04577,0.21875 L 4.7769522,8.9051934 4.6465284,9.1697606 4.4081441,9.4081453 4.1697594,9.6465297 3.9051922,9.7769534 3.640625,9.9073769 l -0.21875,0.04577 -0.21875,0.045769 -0.21875,-0.00194 z m 0,-0.5 0.09375,0.00194 0.2115566,-0.04483 0.2115562,-0.04483 L 3.6950544,9.3061891 3.8888713,9.2031241 4.050165,9.0420278 4.2114587,8.8809316 4.3212881,8.6613956 4.4311175,8.4418597 4.4683822,8.2209294 4.5056469,7.9999991 4.4683822,7.7790687 4.4311175,7.5581384 4.3212881,7.3386025 4.2114587,7.1190666 4.0461956,6.9538034 3.8809325,6.7885403 3.6613966,6.6787109 3.4418606,6.5688816 3.2209303,6.5316169 3,6.4943531 2.7790698,6.5316178 2.5581395,6.5688825 2.3386035,6.6787119 2.1190674,6.7885412 1.9538043,6.9538044 1.7885413,7.1190675 1.6787118,7.3386034 1.5688825,7.5581394 1.5316178,7.7790697 1.494353,8 l 0.037265,0.2209303 0.037265,0.2209303 0.1098293,0.219536 0.1098294,0.2195359 0.1612939,0.1610963 0.1612938,0.1610962 0.194831,0.1036059 0.1948311,0.1036057 0.194917,0.042347 0.194917,0.042347 0.09375,0.00194 z"
         id="path297-7-8"
         sodipodi:nodetypes="cccccccccccccccccccccccccccccccccccccccccccccccccccccccccccccccccccccccccccccccccccccccccccccc" /></g></g></svg>
