<?xml version="1.0" encoding="UTF-8" standalone="no"?>
<!-- Created with Inkscape (http://www.inkscape.org/) -->

<svg
   version="1.1"
   id="svg2"
   width="1600"
   height="1600"
   viewBox="0 0 1600 1600"
   sodipodi:docname="node_vector_transform.svg"
   inkscape:version="1.2.2 (732a01da63, 2022-12-09)"
   xmlns:inkscape="http://www.inkscape.org/namespaces/inkscape"
   xmlns:sodipodi="http://sodipodi.sourceforge.net/DTD/sodipodi-0.dtd"
   xmlns="http://www.w3.org/2000/svg"
   xmlns:svg="http://www.w3.org/2000/svg"
   xmlns:rdf="http://www.w3.org/1999/02/22-rdf-syntax-ns#"
   xmlns:cc="http://creativecommons.org/ns#"
   xmlns:dc="http://purl.org/dc/elements/1.1/">
  <metadata
     id="metadata8">
    <rdf:RDF>
      <cc:Work
         rdf:about="">
        <dc:format>image/svg+xml</dc:format>
        <dc:type
           rdf:resource="http://purl.org/dc/dcmitype/StillImage" />
      </cc:Work>
    </rdf:RDF>
  </metadata>
  <defs
     id="defs6" />
  <sodipodi:namedview
     pagecolor="#808080"
     bordercolor="#666666"
     borderopacity="1"
     objecttolerance="10"
     gridtolerance="10"
     guidetolerance="10"
     inkscape:pageopacity="0"
     inkscape:pageshadow="2"
     inkscape:window-width="1993"
     inkscape:window-height="1009"
     id="namedview4"
     showgrid="false"
     inkscape:zoom="0.5"
     inkscape:cx="9"
     inkscape:cy="8"
     inkscape:window-x="-8"
     inkscape:window-y="-8"
     inkscape:window-maximized="1"
     inkscape:current-layer="svg2"
     inkscape:showpageshadow="0"
     inkscape:pagecheckerboard="true"
     inkscape:deskcolor="#d1d1d1" />
  <g
     id="NODE_VECTOR_TRANSFORM"
     transform="matrix(100,0,0,100,0,4.9999997e-5)"
     style="stroke-width:0.0114286">
    <path
       style="fill:#fefefe;stroke-width:0.000357143"
       d="M 1,8 V 1 h 7 7 v 7 7 H 8 1 Z m 4.6721813,5.920948 c 0.5339653,-0.09312 0.9849193,-0.355986 1.3248818,-0.772301 l 0.1748119,-0.214073 0.00867,0.438963 0.00867,0.438963 H 8.1571081 9.125 l -9.38e-5,-1.851563 C 9.1248125,9.9972462 9.1105944,9.7357303 8.979275,9.2824134 8.7215609,8.3927794 8.1436712,7.9285941 7.0468694,7.7302241 6.6624772,7.6607019 5.4757466,7.6514531 4.9687444,7.7140281 4.62232,7.7567844 3.8773784,7.887355 3.6796819,7.9399706 L 3.5624944,7.9711591 V 8.7047794 9.4383997 L 3.7421819,9.3481803 C 3.98525,9.2261378 4.3505222,9.1069522 4.7311175,9.0254981 4.9911588,8.9698447 5.1543862,8.95762 5.6562444,8.9562122 6.2976153,8.9544122 6.5095312,8.9863822 6.7838247,9.1263166 7.0292006,9.251495 7.1875,9.5306544 7.1875,9.8381844 V 9.9611922 L 6.2109375,9.97683 C 4.9614728,9.9968378 4.5850237,10.05769 4.0064556,10.333179 3.5429519,10.553879 3.2567334,10.88963 3.1050113,11.390625 3.062227,11.531901 3.0482049,11.682129 3.0481326,12 c -1.093e-4,0.476411 0.06329,0.741613 0.2469049,1.032825 0.4619044,0.732579 1.3552222,1.066331 2.3771438,0.888123 z M 5.50183,12.634447 C 5.2855631,12.568274 5.0526044,12.35212 5.0032947,12.171875 c -0.1192188,-0.43579 0.071483,-0.800041 0.4989444,-0.953012 0.1825453,-0.06533 0.2686462,-0.07319 0.9430734,-0.08613 L 7.1875,11.1185 v 0.199809 c 0,0.243584 -0.067744,0.516077 -0.1792216,0.720898 -0.11831,0.217374 -0.404414,0.471859 -0.6243853,0.55538 -0.2435,0.09245 -0.6501194,0.11083 -0.8820631,0.03986 z M 10.59375,5.9394928 12.015625,4.536225 10.586171,3.1043266 9.1567178,1.6724281 8.7971088,2.0310168 C 8.5993241,2.2282406 8.4375,2.403794 8.4375,2.4211354 c 0,0.017341 0.3479413,0.3796802 0.7732031,0.8051971 L 9.9839063,4 H 6.4919531 3 V 4.5 5 H 6.5388412 10.077683 L 9.2497788,5.8305641 8.421875,6.6611284 8.78125,7.0022712 c 0.1976563,0.1876285 0.3664063,0.340996 0.375,0.3408163 C 9.16484,7.3429 9.8117188,6.7112903 10.59375,5.9394928 Z"
       id="path821"
       inkscape:connector-curvature="0" />
    <path
       style="fill:#323232;stroke-width:0.000357143"
       d="M 0,8 V 0 h 8 8 v 8 8 H 8 0 Z M 15,8 V 1 H 8 1 v 7 7 h 7 7 z M 4.625,13.92191 C 3.8931897,13.774315 3.3359056,13.30239 3.1224587,12.649512 3.0589497,12.455255 3.0480508,12.360013 3.0481326,12 3.0482045,11.682129 3.062227,11.531901 3.1050113,11.390625 3.3350294,10.631092 3.8664412,10.243928 4.953125,10.044169 5.1596628,10.006202 5.4937922,9.9883138 6.2109375,9.97683 L 7.1875,9.9611922 V 9.8381844 C 7.1875,9.5306544 7.0292006,9.251495 6.7838303,9.1263166 6.5095369,8.9863822 6.2976209,8.9544131 5.65625,8.9562122 5.1543919,8.9576216 4.9911644,8.9698447 4.7311231,9.0254981 4.3505278,9.1069522 3.9852556,9.2261378 3.7421875,9.3481803 L 3.5625,9.4383997 V 8.7047794 7.9711591 L 3.6796875,7.9399706 C 3.8773841,7.887355 4.6223256,7.7567844 4.96875,7.7140281 5.4757522,7.6514531 6.6624828,7.6607019 7.046875,7.7302241 8.1436769,7.9285941 8.7215666,8.3927794 8.9792806,9.2824134 9.1106,9.7357303 9.1248187,9.9972463 9.1249119,11.960938 L 9.125,13.8125 H 8.1571081 7.1892159 l -0.00867,-0.438963 -0.00867,-0.438963 -0.1748119,0.214073 C 6.7802938,13.414101 6.4600738,13.658164 6.1684622,13.780185 5.7512538,13.95476 5.0892663,14.015545 4.625,13.92191 Z M 6.3838931,12.594587 C 6.6038644,12.511066 6.8899684,12.256581 7.0082784,12.039207 7.1197559,11.834386 7.1875,11.561893 7.1875,11.318309 V 11.1185 l -0.7421875,0.01424 c -0.6744272,0.01294 -0.7605281,0.0208 -0.9430734,0.08613 -0.4274616,0.152971 -0.6181632,0.517222 -0.4989444,0.953012 0.04931,0.180245 0.2822684,0.396399 0.4985353,0.462572 0.2319437,0.07097 0.6385631,0.0526 0.8820631,-0.03986 z M 8.78125,7.0022712 8.421875,6.6611284 9.2497788,5.8305641 10.077683,5 H 6.5388412 3 V 4.5 4 H 6.4919531 9.9839063 L 9.2107031,3.2263325 C 8.7854413,2.8008156 8.4375,2.4384768 8.4375,2.4211354 8.4375,2.403794 8.5993241,2.2282406 8.7971088,2.0310168 L 9.1567178,1.6724281 10.586171,3.1043266 12.015625,4.536225 10.59375,5.9394928 C 9.8117188,6.7112903 9.1648437,7.3429078 9.15625,7.3430875 9.1476563,7.343275 8.9789063,7.1898997 8.78125,7.0022712 Z"
       id="path819"
       inkscape:connector-curvature="0" />
  </g>
</svg>
