<?xml version="1.0" encoding="UTF-8" standalone="no"?>
<!-- Created with Inkscape (http://www.inkscape.org/) -->

<svg
   version="1.1"
   id="svg2"
   width="1600"
   height="1600"
   viewBox="0 0 1600 1600"
   sodipodi:docname="node_separatehsv.svg"
   inkscape:version="1.2.2 (732a01da63, 2022-12-09)"
   xmlns:inkscape="http://www.inkscape.org/namespaces/inkscape"
   xmlns:sodipodi="http://sodipodi.sourceforge.net/DTD/sodipodi-0.dtd"
   xmlns="http://www.w3.org/2000/svg"
   xmlns:svg="http://www.w3.org/2000/svg"
   xmlns:rdf="http://www.w3.org/1999/02/22-rdf-syntax-ns#"
   xmlns:cc="http://creativecommons.org/ns#"
   xmlns:dc="http://purl.org/dc/elements/1.1/">
  <metadata
     id="metadata8">
    <rdf:RDF>
      <cc:Work
         rdf:about="">
        <dc:format>image/svg+xml</dc:format>
        <dc:type
           rdf:resource="http://purl.org/dc/dcmitype/StillImage" />
      </cc:Work>
    </rdf:RDF>
  </metadata>
  <defs
     id="defs6" />
  <sodipodi:namedview
     pagecolor="#808080"
     bordercolor="#666666"
     borderopacity="1"
     objecttolerance="10"
     gridtolerance="10"
     guidetolerance="10"
     inkscape:pageopacity="0"
     inkscape:pageshadow="2"
     inkscape:window-width="2560"
     inkscape:window-height="1009"
     id="namedview4"
     showgrid="false"
     inkscape:zoom="0.5"
     inkscape:cx="606"
     inkscape:cy="1060"
     inkscape:window-x="-8"
     inkscape:window-y="-8"
     inkscape:window-maximized="1"
     inkscape:current-layer="NODE_SEPARATEHSV"
     inkscape:showpageshadow="0"
     inkscape:pagecheckerboard="true"
     inkscape:deskcolor="#d1d1d1" />
  <g
     id="NODE_SEPARATEHSV"
     transform="matrix(99.934891,0,0,99.934891,2.2155144e-5,1.5874184e-5)"
     style="stroke-width:0.0100065">
    <path
       style="fill:none;stroke-width:0.000312908"
       d="M 0,8.005212 V 0 L 3.8071663,0.0046853 C 5.9011077,0.00726222 7.5721175,0.01443404 7.5205214,0.02062268 5.4945836,0.26362164 3.8973759,1.5402802 3.2625839,3.4240199 3.0759205,3.9779421 3.0189923,4.3470149 3.0189923,5.0032575 c 0,0.4722478 0.012696,0.6416953 0.069122,0.92256 0.075978,0.3781844 0.2275646,0.853097 0.3770538,1.1812866 0.2253995,0.4948444 0.71282,1.178225 1.0791989,1.5130745 L 4.7132668,8.7745438 4.3298366,8.9840146 C 4.1189499,9.0992237 3.9374254,9.1934857 3.9264492,9.1934857 c -0.010976,0 -0.3325334,0.1712017 -0.7145711,0.3804483 -0.3820378,0.2092468 -0.8916174,0.482439 -1.1323992,0.607095 -0.2407818,0.124655 -0.7677452,0.407264 -1.17102987,0.62802 -0.8016779,0.438835 -0.85648997,0.486307 -0.85617032,0.741526 2.142e-4,0.170943 0.07973824,0.316093 0.22222799,0.405619 0.064005,0.04021 0.47520017,0.263252 0.913767,0.49564 0.9803355,0.51946 1.5347377,0.815547 2.5641694,1.369433 0.4385668,0.235971 0.8874166,0.474114 0.9974441,0.529206 0.1100273,0.05509 0.4426048,0.233009 0.7390606,0.395369 l 0.5390109,0.295201 h 0.4883008 0.488301 v -2.56765 -2.5676492 l 0.1016287,0.019028 c 0.5622776,0.1052762 1.235768,0.1052762 1.7980456,0 l 0.1016287,-0.019028 v 2.5676492 2.56765 h 0.488301 0.4883008 l 0.5390107,-0.295201 c 0.296456,-0.16236 0.629034,-0.340277 0.739061,-0.395369 0.110027,-0.05509 0.558877,-0.293235 0.997444,-0.529206 1.029432,-0.553886 1.583834,-0.849973 2.564169,-1.369433 0.438567,-0.232388 0.849762,-0.455426 0.913767,-0.49564 0.14249,-0.08953 0.222014,-0.234676 0.222228,-0.405619 3.19e-4,-0.255219 -0.05449,-0.302691 -0.85617,-0.741526 -0.403285,-0.220756 -0.930248,-0.503365 -1.17103,-0.62802 C 13.690163,10.056373 13.180584,9.7831808 12.798546,9.573934 12.416508,9.3646874 12.094951,9.1934857 12.083975,9.1934857 c -0.01098,0 -0.192501,-0.094262 -0.403388,-0.2094711 l -0.38343,-0.2094708 0.1689,-0.1543652 c 0.366379,-0.3348495 0.853799,-1.0182301 1.079199,-1.5130745 0.149489,-0.3281896 0.301076,-0.8031022 0.377054,-1.1812866 0.09898,-0.4926651 0.09898,-1.3524549 0,-1.84512 C 12.649392,2.7222336 11.901217,1.5942228 10.772639,0.83967457 10.121434,0.40429007 9.3344618,0.12192245 8.4899026,0.02062268 8.4383065,0.01443404 10.109316,0.00726222 12.203258,0.0046853 L 16.010424,0 v 8.005212 8.005212 H 8.005212 0 Z"
       id="path825"
       inkscape:connector-curvature="0" />
    <path
       style="fill:#fefefe;stroke-width:0.000312908"
       d="M 5.1127038,13.46792 C 4.6483389,13.222473 4.0995441,12.92923 3.8931597,12.816268 3.6867754,12.703306 3.3912705,12.546745 3.2364822,12.468354 3.0816939,12.389964 2.6348752,12.150858 2.2435518,11.937009 L 1.5320546,11.548192 1.9777537,11.312313 c 0.2451345,-0.129733 0.6004874,-0.316852 0.7896731,-0.415819 0.1891857,-0.09897 0.5729609,-0.305071 0.8528337,-0.458007 0.2798728,-0.152936 0.6105569,-0.328763 0.7348534,-0.390725 0.167941,-0.08372 1.442396,-0.7703958 1.6253423,-0.8757338 0.012899,-0.00743 0.023453,1.0567728 0.023453,2.3648888 0,1.308116 -0.010554,2.37814 -0.023453,2.377831 -0.012899,-3.13e-4 -0.4033876,-0.201382 -0.8677524,-0.446828 z m 4.8938112,-1.931003 c 0,-1.308116 0.01055,-2.3723161 0.02345,-2.3648888 0.182946,0.105338 1.457401,0.7920138 1.625342,0.8757338 0.124297,0.06196 0.454981,0.237789 0.734853,0.390725 0.279873,0.152936 0.663649,0.359039 0.852834,0.458007 0.189186,0.09897 0.544539,0.286086 0.789673,0.415819 l 0.445699,0.235879 -0.711497,0.388817 c -0.391323,0.213849 -0.838142,0.452972 -0.99293,0.531384 -0.154788,0.07841 -0.50658,0.265202 -0.781759,0.415087 -0.678017,0.369303 -1.93982,1.03183 -1.965153,1.03183 -0.01128,0 -0.02051,-1.070277 -0.02051,-2.378393 z M 7.5205214,9.9875899 C 7.4689253,9.980049 7.3317266,9.9588433 7.2156354,9.9404664 L 7.0045605,9.9070534 V 8.9404975 7.9739416 H 6.5042347 c -0.47191,0 -0.5003257,0.0034 -0.5003257,0.059826 0,0.045958 -0.1428017,0.1347543 -0.6160358,0.3830619 C 5.0490536,8.5946092 4.7539633,8.7445352 4.7321175,8.7499985 4.6280607,8.7760204 4.015359,8.0701024 3.7255159,7.5902528 3.4232907,7.0899033 3.2101813,6.5334153 3.0881142,5.9258175 c -0.098977,-0.4926651 -0.098977,-1.3524549 0,-1.84512 0.4172377,-2.0768274 1.9811894,-3.62143736 4.0571629,-4.00698703 0.4343275,-0.08066329 1.2855423,-0.08066329 1.7198698,0 1.8354371,0.34087727 3.2921361,1.59783833 3.8826931,3.35030943 0.186664,0.5539222 0.243592,0.922995 0.243592,1.5792376 0,0.4722478 -0.0127,0.6416953 -0.06912,0.92256 -0.122067,0.6075978 -0.335177,1.1640858 -0.637402,1.6644353 -0.289843,0.4798496 -0.902545,1.1857676 -1.006602,1.1597457 -0.02185,-0.00546 -0.316936,-0.1553893 -0.655755,-0.3331694 -0.473234,-0.2483076 -0.616036,-0.3371042 -0.616036,-0.3830619 0,-0.056428 -0.028416,-0.059826 -0.5003257,-0.059826 H 9.0058635 V 8.9399815 9.9060214 L 8.8104238,9.9428767 C 8.6109642,9.9804902 7.6903045,10.012404 7.5205214,9.9875899 Z M 10.781878,2.1039411 c -0.03688,-0.039252 -0.07961,-0.071368 -0.09495,-0.071368 -0.01535,0 -0.105328,-0.06684 -0.199954,-0.1485342 -0.09463,-0.081694 -0.181634,-0.1485561 -0.193352,-0.1485828 -0.01172,-2.67e-5 -0.06954,-0.034428 -0.128495,-0.076447 C 9.9795784,1.5267627 9.3821666,1.2376327 9.2186289,1.2009334 c -0.031027,-0.00696 -0.085681,-0.019104 -0.1214525,-0.026981 -0.035771,-0.00788 -0.08854,-0.021396 -0.1172639,-0.030042 -0.169126,-0.050913 -0.5709733,-0.109127 -0.872079,-0.126334 -0.2491532,-0.014238 -0.8408559,0.055149 -1.077322,0.126334 -0.028724,0.00865 -0.081493,0.022166 -0.1172639,0.030042 -0.035771,0.00788 -0.090425,0.020018 -0.1214525,0.026981 -0.1635377,0.036699 -0.7609495,0.3258293 -0.9464953,0.4580761 -0.058954,0.042019 -0.1167763,0.07642 -0.1284946,0.076447 -0.011718,2.67e-5 -0.098727,0.066889 -0.1933525,0.1485828 -0.094626,0.081694 -0.1830069,0.1485342 -0.1964031,0.1485342 -0.033521,0 -0.2925217,0.2567955 -0.2925217,0.2900313 0,0.014766 -0.06684,0.1042679 -0.1485342,0.1988935 C 4.8042997,2.6161243 4.7374376,2.7031325 4.737411,2.7148507 4.7373841,2.7265687 4.702983,2.7843917 4.660964,2.8433455 4.5287173,3.0288913 4.2395872,3.626303 4.202888,3.7898407 c -0.00696,0.031027 -0.019104,0.085681 -0.026981,0.1214525 -0.00788,0.035771 -0.021396,0.08854 -0.030042,0.1172639 -0.050913,0.169126 -0.109127,0.5709733 -0.1263341,0.872079 -0.014238,0.2491532 0.055149,0.8408559 0.1263341,1.077322 0.00865,0.028724 0.022166,0.081493 0.030042,0.1172639 0.00788,0.035771 0.020018,0.090425 0.026981,0.1214525 0.036699,0.1635377 0.3258293,0.7609495 0.458076,0.9464953 0.042019,0.058954 0.07642,0.1167763 0.076447,0.1284946 2.66e-5,0.011718 0.066889,0.098727 0.1485827,0.1933525 0.081694,0.094626 0.1485342,0.1826326 0.1485342,0.1955713 0,0.012939 0.031098,0.056627 0.069107,0.097086 l 0.069107,0.073561 2.8380916,-2.8379628 2.8380915,-2.8379629 z"
       id="path823"
       inkscape:connector-curvature="0" />
    <path
       style="fill:#323232;stroke-width:0.000312908"
       d="m 5.1036347,7.7776739 c -0.038009,-0.040459 -0.069107,-0.084147 -0.069107,-0.097086 0,-0.012939 -0.06684,-0.1009457 -0.1485342,-0.1955713 C 4.8042998,7.3903911 4.7374376,7.3033826 4.737411,7.2916643 4.7373841,7.279946 4.7029832,7.2221234 4.660964,7.1631697 4.5287173,6.9776239 4.2395872,6.3802121 4.202888,6.2166744 4.195925,6.185647 4.1837836,6.1309933 4.1759073,6.0952219 4.1680309,6.0594508 4.1545118,6.0066821 4.1458649,5.977958 4.0746798,5.7414919 4.0052927,5.1497892 4.0195308,4.900636 4.0367379,4.5995303 4.0949517,4.197683 4.1458649,4.028557 c 0.00865,-0.028724 0.022166,-0.081493 0.030042,-0.1172639 0.00788,-0.035771 0.020018,-0.090425 0.026981,-0.1214525 0.036699,-0.1635377 0.3258293,-0.7609494 0.458076,-0.9464952 0.042019,-0.058954 0.07642,-0.1167766 0.076447,-0.1284948 2.66e-5,-0.011718 0.066889,-0.098727 0.1485827,-0.1933524 0.081694,-0.094626 0.1485342,-0.1841276 0.1485342,-0.1988935 0,-0.033236 0.2590005,-0.2900313 0.2925217,-0.2900313 0.013396,0 0.1017775,-0.06684 0.1964031,-0.1485342 0.094626,-0.081694 0.1816342,-0.1485561 0.1933525,-0.1485828 0.011718,-2.67e-5 0.069541,-0.034428 0.1284946,-0.076447 0.1855458,-0.1322468 0.7829576,-0.4213768 0.9464953,-0.4580761 0.031027,-0.00696 0.085681,-0.019104 0.1214525,-0.026981 0.035771,-0.00788 0.08854,-0.021396 0.1172639,-0.030042 0.2364661,-0.071185 0.8281688,-0.1405722 1.077322,-0.126334 0.3011057,0.017207 0.702953,0.075421 0.872079,0.126334 0.028724,0.00865 0.081493,0.022166 0.1172639,0.030042 0.035771,0.00788 0.090425,0.020018 0.1214525,0.026981 0.1635377,0.036699 0.7609495,0.3258293 0.9464952,0.4580761 0.05895,0.042019 0.116777,0.07642 0.128495,0.076447 0.01172,2.67e-5 0.09873,0.066889 0.193352,0.1485828 0.09463,0.081694 0.184605,0.1485342 0.199954,0.1485342 0.01535,0 0.05808,0.032116 0.09495,0.071368 l 0.06705,0.071368 -2.8380919,2.8379629 -2.8380916,2.8379628 z"
       id="path821"
       inkscape:connector-curvature="0" />
    <path
       style="fill:#000000;stroke-width:0.000312908"
       d="M 5.5348536,14.771496 C 5.2682738,14.624352 4.9375897,14.446858 4.8000002,14.377064 4.6624106,14.30727 4.1910099,14.05713 3.7524431,13.821197 2.7183137,13.264874 2.1645285,12.969132 1.1882737,12.451834 0.74970687,12.219446 0.33851174,11.996408 0.2745067,11.956194 0.13201695,11.866668 0.05249281,11.721518 0.05227871,11.550575 0.05195906,11.295356 0.10677113,11.247884 0.90844903,10.809049 1.3117337,10.588293 1.8386971,10.305684 2.0794789,10.181029 2.3202607,10.056373 2.8298403,9.7831808 3.2118781,9.573934 3.5939158,9.3646874 3.915671,9.1934857 3.9268892,9.1934857 c 0.011218,0 0.2615084,-0.1317855 0.5562003,-0.292857 C 4.7777813,8.7395576 5.2405214,8.4920965 5.5114008,8.3507151 5.8861798,8.1551052 6.003909,8.0793496 6.003909,8.0338 c 0,-0.05647 0.028321,-0.059858 0.5003257,-0.059858 h 0.5003258 v 3.53355 3.533551 l -0.4925082,-10e-4 -0.4925081,-0.001 -0.4846906,-0.267534 z M 6.003909,11.536917 c 0,-1.308116 -0.010554,-2.3723161 -0.023453,-2.3648888 -0.1829463,0.105338 -1.4574013,0.7920138 -1.6253423,0.8757338 -0.1242965,0.06196 -0.4549806,0.237789 -0.7348534,0.390725 -0.2798728,0.152936 -0.663648,0.359039 -0.8528337,0.458007 -0.1891857,0.09897 -0.5445386,0.286086 -0.7896731,0.415819 l -0.4456991,0.235879 0.7114972,0.388817 c 0.3913234,0.213849 0.8381421,0.452955 0.9929304,0.531345 0.1547883,0.07839 0.4502932,0.234952 0.6566775,0.347914 0.6073245,0.332411 2.0618249,1.09787 2.0872965,1.09848 0.012899,3.13e-4 0.023453,-1.069715 0.023453,-2.377831 z m 3.0019545,-0.02943 V 7.9739416 h 0.5003258 c 0.4720051,0 0.5003257,0.00339 0.5003257,0.059858 0,0.04555 0.117729,0.1213052 0.492508,0.3169151 0.27088,0.1413814 0.73362,0.3888425 1.028312,0.5499136 0.294691,0.1610715 0.544982,0.292857 0.5562,0.292857 0.01122,0 0.332973,0.1712017 0.715011,0.3804483 0.382038,0.2092468 0.891617,0.4824394 1.132399,0.6070954 0.240782,0.124655 0.767745,0.407264 1.17103,0.62802 0.801678,0.438835 0.85649,0.486307 0.85617,0.741526 -2.19e-4,0.170943 -0.07974,0.316093 -0.222228,0.405619 -0.064,0.04021 -0.4752,0.263252 -0.913767,0.49564 -0.980335,0.51946 -1.534737,0.815547 -2.564169,1.369433 -0.438567,0.235971 -0.887417,0.474114 -0.997444,0.529206 -0.110027,0.05509 -0.442605,0.233009 -0.739061,0.395369 L 9.9824653,15.041043 H 9.4941645 9.0058635 Z m 1.7638375,2.028162 c 0.397186,-0.208811 0.947303,-0.502289 1.222482,-0.652174 0.275179,-0.149885 0.626971,-0.336674 0.781759,-0.415087 0.154788,-0.07841 0.601607,-0.317535 0.99293,-0.531384 L 14.478369,11.548192 14.03267,11.312313 C 13.787536,11.18258 13.432183,10.995461 13.242997,10.896494 13.053812,10.797526 12.670036,10.591423 12.390163,10.438487 12.110291,10.285551 11.779607,10.109724 11.65531,10.047762 11.487369,9.964042 10.212914,9.2773662 10.029968,9.1720282 c -0.0129,-0.00743 -0.02345,1.0567728 -0.02345,2.3648888 0,1.308116 0.0092,2.378393 0.02051,2.378393 0.01128,0 0.345485,-0.170845 0.742671,-0.379656 z"
       id="path819"
       inkscape:connector-curvature="0" />
  </g>
</svg>
