<?xml version="1.0" encoding="UTF-8" standalone="no"?>
<!-- Created with Inkscape (http://www.inkscape.org/) -->

<svg
   version="1.1"
   id="svg2"
   width="1600"
   height="1600"
   viewBox="0 0 1600 1600"
   sodipodi:docname="node_bundle_join.svg"
   inkscape:version="1.4 (86a8ad7, 2024-10-11)"
   xml:space="preserve"
   xmlns:inkscape="http://www.inkscape.org/namespaces/inkscape"
   xmlns:sodipodi="http://sodipodi.sourceforge.net/DTD/sodipodi-0.dtd"
   xmlns="http://www.w3.org/2000/svg"
   xmlns:svg="http://www.w3.org/2000/svg"
   xmlns:rdf="http://www.w3.org/1999/02/22-rdf-syntax-ns#"
   xmlns:cc="http://creativecommons.org/ns#"
   xmlns:dc="http://purl.org/dc/elements/1.1/"><metadata
     id="metadata8"><rdf:RDF><cc:Work
         rdf:about=""><dc:format>image/svg+xml</dc:format><dc:type
           rdf:resource="http://purl.org/dc/dcmitype/StillImage" /></cc:Work></rdf:RDF></metadata><defs
     id="defs6" /><sodipodi:namedview
     pagecolor="#808080"
     bordercolor="#666666"
     borderopacity="1"
     objecttolerance="10"
     gridtolerance="10"
     guidetolerance="10"
     inkscape:pageopacity="0"
     inkscape:pageshadow="2"
     inkscape:window-width="2560"
     inkscape:window-height="1009"
     id="namedview4"
     showgrid="true"
     inkscape:zoom="0.25"
     inkscape:cx="-326"
     inkscape:cy="1156"
     inkscape:window-x="1912"
     inkscape:window-y="-8"
     inkscape:window-maximized="1"
     inkscape:current-layer="layer1"
     inkscape:showpageshadow="0"
     inkscape:pagecheckerboard="true"
     inkscape:deskcolor="#d1d1d1"><inkscape:grid
       id="grid1"
       units="px"
       originx="0"
       originy="0"
       spacingx="100"
       spacingy="100"
       empcolor="#0099e5"
       empopacity="0.30196078"
       color="#0099e5"
       opacity="0.14901961"
       empspacing="5"
       enabled="true"
       visible="true" /></sodipodi:namedview><g
     id="HAND"
     transform="matrix(100,0,0,100,-11.095019,9.6487559)"
     style="stroke-width:0.0114286"
     inkscape:label="BUNDLE"><g
       id="FILTER"
       style="stroke-width:0.0094242"
       transform="matrix(1.2126866,0,0,1.2126866,-1.6129747,-1.0680793)"><path
         style="fill:none;stroke-width:0.000294506"
         d="M 0,8 V 0 h 8 8 v 8 8 H 8 0 Z m 8.2405906,7.003604 c 0.5809566,-0.290206 1.0869881,-0.560909 1.1245153,-0.601563 0.037527,-0.04065 0.08323,-0.113503 0.1015625,-0.161888 C 9.4892431,14.180572 9.5,13.363558 9.5,11.708547 V 9.2649128 L 11.351743,7.4215191 C 13.109507,5.6716809 13.21762,5.570195 13.481965,5.421875 14.195127,5.02173 14.607868,4.3839225 14.506474,3.838705 14.28942,2.6715552 12.589425,1.8627338 9.7432944,1.5724858 c -0.7655225,-0.078068 -2.7210663,-0.078068 -3.4865888,0 C 3.7553738,1.8275713 2.0633516,2.515469 1.6164538,3.4589966 1.5227666,3.6567969 1.515625,3.6951159 1.515625,4 c 0,0.3048841 0.00714,0.3432031 0.1008288,0.5410034 C 1.7853653,4.8976234 2.2517672,5.317645 2.75,5.5618266 2.8508285,5.6112422 3.4013463,6.1406259 4.6953125,7.4324597 L 6.5,9.2341728 v 2.9433792 c 0,2.008982 0.010581,2.971307 0.033332,3.031351 0.076453,0.201783 0.2606237,0.319095 0.504134,0.321124 0.1286191,0.0011 0.2779166,-0.06425 1.2031246,-0.526423 z"
         id="path829"
         inkscape:connector-curvature="0" /><path
         style="fill:#fefefe;stroke-width:0.000294506"
         d="M 7.078125,5.9804578 C 5.0552119,5.8491719 3.5097806,5.4698384 2.6399834,4.8910953 2.3397571,4.6913316 2.1786632,4.5230278 2.0753937,4.3012362 1.7894461,3.6871081 2.3844033,3.0644578 3.6920991,2.6092787 4.3721709,2.3725612 5.3503175,2.1774349 6.3817056,2.0727406 c 0.7563988,-0.076781 2.48019,-0.076781 3.2365888,0 1.6882146,0.1713676 2.9793806,0.5289194 3.7417226,1.036164 0.300226,0.1997638 0.46132,0.3680676 0.564589,0.5898592 0.191411,0.4110918 -0.001,0.8173596 -0.564922,1.1925528 C 12.60682,5.392255 11.290346,5.7589519 9.65625,5.9228887 9.1948272,5.96918 7.4906888,6.0072331 7.078125,5.9804578 Z M 9.46875,4.92191 C 10.752525,4.7957125 11.800382,4.5502187 12.492188,4.2135744 12.72652,4.0995441 12.8125,4.0422153 12.8125,4 12.8125,3.957785 12.72652,3.900456 12.492188,3.7864256 10.992281,3.0565454 7.9957234,2.8048191 5.5618528,3.2042416 4.6724609,3.3502 4.0301247,3.5322594 3.5078125,3.7864256 3.27348,3.9004559 3.1875,3.9577847 3.1875,4 c 0,0.042215 0.08598,0.099544 0.3203125,0.2135744 C 4.3255628,4.6115056 5.5974278,4.8711106 7.265625,4.980595 7.6348584,5.0048278 8.9933672,4.9686409 9.46875,4.92191 Z"
         id="path827"
         inkscape:connector-curvature="0" /><path
         style="fill:#cbcbcb;stroke-width:0.000294506"
         d="M 7,9.0158141 5.0859375,7.0960231 C 4.0332031,6.0401381 3.1929688,5.1910922 3.21875,5.2092547 c 0.091756,0.06464 0.7847906,0.289805 1.2248084,0.3979365 0.5556535,0.1365482 1.2343203,0.2486241 1.9381472,0.3200682 0.7590366,0.077048 2.4795222,0.076779 3.2432944,-5.063e-4 0.516351,-0.05225 1.535583,-0.2087169 1.671875,-0.2566572 0.03438,-0.012091 -0.693359,0.7357547 -1.6171875,1.6618803 L 8,9.0158406 Z"
         id="path825"
         inkscape:connector-curvature="0"
         sodipodi:nodetypes="cssssssscc" /><path
         style="fill:#989898;stroke-width:0.000294506"
         d="M 8,9.0154081 9.6796875,7.3383563 11.359375,5.6613047 11.72122,5.5660341 C 12.110593,5.4635156 12.564153,5.3110247 12.765625,5.214895 12.856385,5.171591 12.357729,5.6881409 10.945313,7.1005353 L 9,9.0458175 Z"
         id="path823"
         inkscape:connector-curvature="0"
         sodipodi:nodetypes="cccssscc" /><path
         style="fill:#656565;stroke-width:0.000294506"
         d="M 7.265625,4.980595 C 5.5974278,4.8711106 4.3255628,4.6115056 3.5078125,4.2135744 3.27348,4.0995441 3.1875,4.0422153 3.1875,4 3.1875,3.9577847 3.27348,3.9004559 3.5078125,3.7864256 5.0077188,3.0565454 8.0042766,2.8048191 10.438147,3.2042416 11.327539,3.3502 11.969875,3.5322594 12.492188,3.7864256 12.72652,3.9004559 12.8125,3.9577847 12.8125,4 c 0,0.042215 -0.08598,0.099544 -0.320312,0.2135744 C 11.800382,4.5502187 10.752525,4.7957125 9.46875,4.92191 8.9933672,4.9686409 7.6348584,5.0048278 7.265625,4.980595 Z"
         id="path821"
         inkscape:connector-curvature="0" /><path
         style="fill:#323232;stroke-width:0.000294506"
         d="M 6.5,9.2341728 4.6953125,7.4324597 C 3.4013463,6.1406259 2.8508285,5.6112422 2.75,5.5618266 2.2517672,5.317645 1.7853653,4.8976234 1.6164538,4.5410034 1.5227666,4.3432031 1.515625,4.3048841 1.515625,4 c 0,-0.3048841 0.00714,-0.3432031 0.1008288,-0.5410034 0.4468978,-0.9435276 2.13892,-1.6314253 4.6402518,-1.8865108 0.7655225,-0.078068 2.7210663,-0.078068 3.4865888,0 2.4882526,0.2537517 4.1989026,0.9459565 4.6336436,1.8749783 0.198529,0.4242456 0.193183,0.71651 -0.02093,1.1445034 -0.141758,0.2833566 -0.491063,0.6150244 -0.87404,0.8299075 -0.264345,0.14832 -0.372458,0.2498059 -2.130222,1.9996441 L 9.5,9.2649128 Z M 9.00994,9.015625 10.966187,7.078125 C 12.80176,5.2601444 12.93922,5.1311844 13.19452,4.9875838 13.568594,4.7771759 13.786681,4.5757409 13.908654,4.3279784 14.028453,4.0846319 14.032912,3.9368819 13.927412,3.7064391 13.823353,3.479145 13.66359,3.3108956 13.360017,3.1089046 12.597675,2.60166 11.306509,2.2441082 9.6182944,2.0727406 8.8618956,1.99596 7.1381044,1.99596 6.3817056,2.0727406 4.6934909,2.2441082 3.402325,2.60166 2.6399834,3.1089046 1.7901896,3.6743378 1.7892534,4.3279291 2.6374348,4.8881697 2.7766894,4.9801503 2.9539063,5.08642 3.03125,5.1243244 3.1323659,5.1738794 3.7096384,5.7301719 5.0859375,7.1043381 L 7,9.0154344 Z"
         id="path819"
         inkscape:connector-curvature="0"
         sodipodi:nodetypes="csssscsssssscccssssssssssscc" /></g><g
       id="INDEX_OF_NEAREST"
       style="stroke-width:0.00948017"
       transform="matrix(0,1.2055272,-1.2055272,0,17.644217,-2.0824643)"><path
         style="fill:none;stroke-width:0.000296255"
         d="M 0,8 V 0 h 8 8 v 8 8 H 8 0 Z m 10.769219,6.419944 c 0.04746,-0.03544 0.115288,-0.103265 0.150725,-0.150729 l 0.06443,-0.0863 V 8 1.8170832 L 10.919944,1.730785 C 10.884507,1.683321 10.816679,1.6154929 10.769215,1.5800559 10.682953,1.5156519 10.680959,1.515625 6,1.515625 c -4.6809595,0 -4.6829529,2.69e-5 -4.769215,0.064431 C 1.183321,1.615493 1.1154929,1.68332 1.0800559,1.7307827 l -0.064431,0.086296 -0.00892,6.0992732 c -0.00491,3.3546001 -8.312e-4,6.1445621 0.00906,6.1999151 0.022367,0.125225 0.1536763,0.284891 0.2795653,0.33994 0.07825,0.03422 0.9264991,0.04047 4.7414493,0.03492 4.6386145,-0.0067 4.6462905,-0.0069 4.7324445,-0.07118 z M 13.953125,5.9531453 C 14.852733,5.7649184 15.530165,4.9259269 15.530165,4 c 0,-1.0907576 -0.908157,-1.9989148 -1.998915,-1.9989148 -1.090757,0 -1.998915,0.9081572 -1.998915,1.9989148 0,0.7407994 0.438806,1.4538003 1.093723,1.7771537 0.43249,0.2135344 0.870202,0.2715822 1.327067,0.1759916 z"
         id="path859" /><path
         style="fill:#98cbfe;stroke-width:0.000296255"
         d="M 2.5,4 V 3 h 1 1 v 1 1 h -1 -1 z"
         id="path855" /><path
         style="fill:#fe6565;stroke-width:0.000296255"
         d="m 2.5,12 v -1 h 1 1 v 1 1 h -1 -1 z"
         id="path851" /><path
         style="fill:#fefe00;stroke-width:0.000296255"
         d="M 2.5,8 V 7 h 1 1 v 1 1 h -1 -1 z"
         id="path853" /><path
         style="fill:#323232;stroke-width:0.000296255"
         d="M 2.2871032,5.4531179 C 2.1611055,5.3974671 2.0296768,5.237733 2.0066718,5.1122908 c -0.010165,-0.05543 -0.014246,-0.5961564 -0.00907,-1.2016152 0.00902,-1.0552762 0.012084,-1.1044082 0.073933,-1.1872017 0.035486,-0.047502 0.1034073,-0.1154015 0.1509367,-0.1508873 0.08372,-0.062506 0.1233885,-0.06452 1.2709628,-0.06452 1.1475744,0 1.187243,0.00201 1.2709629,0.06452 0.047529,0.035486 0.1154509,0.1034073 0.1509366,0.1509367 0.062506,0.08372 0.06452,0.1233885 0.06452,1.2709628 0,1.1475744 -0.00201,1.187243 -0.06452,1.2709629 -0.035486,0.047529 -0.1033868,0.1154509 -0.1508913,0.1509366 -0.08312,0.06209 -0.1295841,0.06479 -1.2341412,0.071702 -0.9065681,0.00567 -1.1678243,-0.00168 -1.2432002,-0.034969 z M 4.4948135,3.9944861 V 2.993109 H 3.4934364 2.4920593 v 1.0013771 1.0013771 h 1.0013771 1.0013771 z"
         id="path13" /><path
         style="fill:#323232;stroke-width:0.000296255"
         d="M 2.2871032,9.4586263 C 2.1611055,9.4029755 2.0296768,9.2432414 2.0066718,9.1177992 1.9965065,9.0623696 1.9924257,8.5216428 1.9976034,7.916184 2.0066277,6.8609077 2.0096875,6.8117758 2.0715369,6.7289822 2.1070227,6.68148 2.1749442,6.6135807 2.2224736,6.578095 c 0.08372,-0.062506 0.1233885,-0.06452 1.2709628,-0.06452 1.1475744,0 1.187243,0.00201 1.2709629,0.06452 0.047529,0.035486 0.1154509,0.1034072 0.1509366,0.1509367 0.062506,0.08372 0.06452,0.1233885 0.06452,1.2709628 0,1.1475745 -0.00201,1.187243 -0.06452,1.2709629 C 4.8798499,9.3184864 4.8119491,9.3864083 4.7644446,9.421894 4.6813246,9.483984 4.6348605,9.486684 3.5303034,9.493595 2.6237353,9.499265 2.3624791,9.491925 2.2871032,9.4586263 Z M 4.4948135,7.9999945 V 6.9986174 H 3.4934364 2.4920593 v 1.0013771 1.0013771 h 1.0013771 1.0013771 z"
         id="path12" /><path
         style="fill:#323232;stroke-width:0.000296255"
         d="M 2.2871032,13.464135 C 2.1611055,13.408484 2.0296768,13.24875 2.0066718,13.123307 c -0.010165,-0.05543 -0.014247,-0.596156 -0.00907,-1.201614 0.00902,-1.055277 0.012085,-1.104409 0.073934,-1.187202 0.035486,-0.04751 0.1034073,-0.115402 0.1509367,-0.150887 0.08372,-0.06251 0.1233885,-0.06452 1.2709628,-0.06452 1.1475744,0 1.187243,0.002 1.2709629,0.06452 0.047529,0.03549 0.1154509,0.103407 0.1509366,0.150936 0.062506,0.08372 0.06452,0.123389 0.06452,1.270963 0,1.147574 -0.00201,1.187243 -0.06452,1.270963 -0.035486,0.04753 -0.1033868,0.115451 -0.1508913,0.150936 -0.08312,0.0621 -0.1295841,0.06479 -1.2341412,0.0717 -0.9065681,0.0057 -1.1678243,-0.0017 -1.2432002,-0.03497 z M 4.4948135,12.005503 V 11.004126 H 3.4934364 2.4920593 v 1.001377 1.001377 h 1.0013771 1.0013771 z"
         id="path11" /><path
         style="fill:#323232;stroke-width:0.000296255"
         d="m 10.503076,7.9999945 c 5.935171,8.0000055 5.935171,8.0000055 0,0 z"
         id="path10" /><path
         style="fill:#323232;stroke-width:0.000296255"
         d="m 10.988118,7.9999944 c 5.450129,8.0000056 5.450129,8.0000056 0,0 z"
         id="path849" /></g></g><g
     inkscape:groupmode="layer"
     id="layer1"
     inkscape:label="CLOSURE_EVALUATE"><path
       style="fill:#fecb32;stroke-width:0.0357143"
       d="m 554.73665,1483.2895 c -46.03587,-8.3166 -95.75912,-33.4612 -130.58216,-66.034 -34.60387,-32.368 -63.97693,-88.7018 -72.885,-139.7845 -5.9863,-34.3278 -5.9863,-44.0436 0,-78.3714 6.197,-35.5363 19.54441,-68.4931 40.48613,-99.9666 37.16853,-55.8608 96.80119,-94.0658 165.53181,-106.05136 34.32781,-5.9863 44.04356,-5.9863 78.37138,0 35.53628,6.197 68.49312,19.54436 99.96659,40.48616 55.86084,37.1685 94.06575,96.8012 106.05134,165.5318 5.9863,34.3278 5.9863,44.0436 0,78.3714 -6.197,35.5363 -19.5444,68.4931 -40.48612,99.9666 -37.16853,55.8608 -96.80119,94.0657 -165.53181,106.0513 -32.85569,5.73 -48.31397,5.692 -80.92216,-0.2 z m 400,0 c -33.05122,-5.9709 -66.95003,-20.0155 -97.70866,-40.4815 l -25.48368,-16.9563 16.29,-24.7604 c 33.26022,-50.5547 46.77706,-97.5997 46.77706,-162.806 0,-65.2063 -13.51684,-112.2513 -46.77706,-162.806 l -16.29,-24.7604 25.48368,-16.9563 c 31.75307,-21.1278 64.62969,-34.46768 100.25944,-40.68096 34.32781,-5.9863 44.04357,-5.9863 78.37137,0 35.5364,6.197 68.4932,19.54436 99.9667,40.48616 55.8608,37.1685 94.0657,96.8012 106.0513,165.5318 5.986,34.3278 5.986,44.0436 0,78.3714 -6.197,35.5363 -19.5444,68.4931 -40.4861,99.9666 -37.1685,55.8608 -96.8012,94.0657 -165.5319,106.0513 -32.8557,5.73 -48.31396,5.692 -80.92215,-0.2 z"
       id="path821-0"
       inkscape:connector-curvature="0" /><path
       style="fill:#983200;stroke-width:0.0357143"
       d="m 544.41553,1533.662 c -62.94363,-11.4218 -119.6741,-41.9484 -163.8121,-88.1471 -37.60131,-39.3569 -63.45125,-86.5683 -76.91265,-140.4708 -7.4223,-29.7206 -7.4223,-103.797 0,-133.5176 32.94153,-131.9052 142.82168,-224.43224 275.82721,-232.26643 69.30663,-4.08222 135.56194,15.35578 193.13372,56.66163 l 23.82141,17.0911 23.82141,-17.0911 c 57.57178,-41.30585 123.82709,-60.74385 193.13367,-56.66163 133.0057,7.8342 242.8858,100.36123 275.8273,232.26643 7.422,29.7206 7.422,103.797 0,133.5176 -32.9415,131.9052 -142.8216,224.4322 -275.8273,232.2664 -69.30658,4.082 -135.56189,-15.3558 -193.13367,-56.6616 l -23.82141,-17.0911 -23.75387,17.0426 c -66.82104,47.9419 -149.99151,67.2721 -228.30372,53.0616 z m 91.24328,-50.1731 c 68.73062,-11.9856 128.36328,-50.1905 165.53181,-106.0513 20.94172,-31.4735 34.28912,-64.4303 40.48612,-99.9666 5.9863,-34.3278 5.9863,-44.0436 0,-78.3714 -11.98559,-68.7306 -50.1905,-128.3633 -106.05134,-165.5318 -31.47347,-20.9418 -64.43031,-34.28916 -99.96659,-40.48616 -34.32782,-5.9863 -44.04357,-5.9863 -78.37138,0 -68.73062,11.98556 -128.36328,50.19056 -165.53181,106.05136 -20.94172,31.4735 -34.28913,64.4303 -40.48613,99.9666 -5.9863,34.3278 -5.9863,44.0436 0,78.3714 8.9081,51.0827 38.28113,107.4166 72.885,139.7845 34.82304,32.5728 84.54629,57.7174 130.58216,66.034 32.60819,5.891 48.06647,5.929 80.92216,0.2 z m 399.99999,0 c 68.7307,-11.9856 128.3634,-50.1905 165.5319,-106.0513 20.9417,-31.4735 34.2891,-64.4303 40.4861,-99.9666 5.986,-34.3278 5.986,-44.0436 0,-78.3714 -11.9856,-68.7306 -50.1905,-128.3633 -106.0513,-165.5318 -31.4735,-20.9418 -64.4303,-34.28916 -99.9667,-40.48616 -34.3278,-5.9863 -44.04355,-5.9863 -78.37137,0 -35.62975,6.2133 -68.50637,19.55316 -100.25943,40.68096 l -25.48369,16.9563 16.29,24.7604 c 33.26022,50.5547 46.77706,97.5997 46.77706,162.806 0,65.2063 -13.51684,112.2513 -46.77706,162.806 l -16.29,24.7604 25.48369,16.9563 c 30.75862,20.466 64.65743,34.5106 97.70865,40.4815 32.60819,5.891 48.06645,5.929 80.92215,0.2 z"
       id="path819-9"
       inkscape:connector-curvature="0" /><g
       id="g14"
       transform="matrix(1.1157314,0,0,1.1157314,-96.012995,-747.20693)"
       inkscape:label="BUNDLE"
       style="stroke-width:0.896273"><path
         style="fill:#4c7f7f;fill-opacity:1;stroke-width:0.000265526"
         d="m 13.46158,9.4490539 c -0.758176,-0.16472 -1.289703,-0.9288975 -1.16409,-1.6736144 0.135805,-0.805145 0.912271,-1.3785169 1.689312,-1.247452 0.805145,0.1358053 1.378517,0.9122717 1.247452,1.6893126 -0.103175,0.6116953 -0.574893,1.1052053 -1.1787,1.2331547 -0.25473,0.053978 -0.339999,0.053777 -0.593974,-0.0014 z"
         id="path1"
         transform="matrix(0,120.55272,-120.55272,0,1764.4217,-208.24638)" /><path
         style="fill:#323232;stroke-width:0.000265526"
         d="M 13.33502,9.9449485 C 12.603833,9.7879081 11.971349,9.1496289 11.817288,8.4133119 11.519758,6.9913042 12.773571,5.7374913 14.195578,6.035021 14.939513,6.1906762 15.573302,6.8244645 15.728957,7.5684 16.027558,8.9955238 14.762382,10.251509 13.33502,9.9449485 Z M 14.063203,9.4469433 C 14.667842,9.3188177 15.140209,8.8246281 15.243527,8.2120905 15.374772,7.4339795 14.80061,6.6564438 13.994357,6.5204516 13.216246,6.3892061 12.43871,6.9633677 12.302718,7.7696214 c -0.125786,0.7457424 0.406473,1.5109723 1.165693,1.6759191 0.254325,0.055254 0.339712,0.055455 0.594792,0.0014 z"
         id="path14"
         transform="matrix(0,120.55272,-120.55272,0,1764.4217,-208.24638)" /></g></g></svg>
