<?xml version="1.0" encoding="UTF-8" standalone="no"?>
<!-- Created with Inkscape (http://www.inkscape.org/) -->

<svg
   version="1.1"
   id="svg2"
   width="1600"
   height="1600"
   viewBox="0 0 1600 1600"
   sodipodi:docname="node_fieldtogrid.svg"
   inkscape:version="1.4 (86a8ad7, 2024-10-11)"
   inkscape:export-filename="VOLUME_CUBE.png"
   inkscape:export-xdpi="3072"
   inkscape:export-ydpi="3072"
   xml:space="preserve"
   xmlns:inkscape="http://www.inkscape.org/namespaces/inkscape"
   xmlns:sodipodi="http://sodipodi.sourceforge.net/DTD/sodipodi-0.dtd"
   xmlns="http://www.w3.org/2000/svg"
   xmlns:svg="http://www.w3.org/2000/svg"
   xmlns:rdf="http://www.w3.org/1999/02/22-rdf-syntax-ns#"
   xmlns:cc="http://creativecommons.org/ns#"
   xmlns:dc="http://purl.org/dc/elements/1.1/"><metadata
     id="metadata8"><rdf:RDF><cc:Work
         rdf:about=""><dc:format>image/svg+xml</dc:format><dc:type
           rdf:resource="http://purl.org/dc/dcmitype/StillImage" /></cc:Work></rdf:RDF></metadata><defs
     id="defs6" /><sodipodi:namedview
     pagecolor="#808080"
     bordercolor="#666666"
     borderopacity="1"
     objecttolerance="10"
     gridtolerance="10"
     guidetolerance="10"
     inkscape:pageopacity="0"
     inkscape:pageshadow="2"
     inkscape:window-width="2560"
     inkscape:window-height="1009"
     id="namedview4"
     showgrid="true"
     inkscape:zoom="0.32593203"
     inkscape:cx="786.9739"
     inkscape:cy="803.84858"
     inkscape:window-x="1912"
     inkscape:window-y="-8"
     inkscape:window-maximized="1"
     inkscape:current-layer="MESH_CUBE"
     inkscape:showpageshadow="0"
     inkscape:pagecheckerboard="1"
     inkscape:deskcolor="#d1d1d1"><inkscape:grid
       type="xygrid"
       id="grid10683"
       originx="0"
       originy="0"
       spacingy="100"
       spacingx="100"
       units="px" /></sodipodi:namedview><g
     id="MESH_CUBE"
     transform="matrix(100,0,0,100,0,4.9999997e-5)"
     style="display:inline;stroke-width:0.0114286;enable-background:new"
     inkscape:label="VOLUME_CUBE"><path
       inkscape:connector-curvature="0"
       id="path827-666"
       d="M 0,8 V 0 h 8 8 v 8 8 H 8 0 Z m 11.326467,6.00029 c 3.319702,-1.106746 3.322552,-1.107867 3.51104,-1.381855 0.206207,-0.299746 0.193743,-0.0036 0.193743,-4.60281 0,-4.5991825 0.01246,-4.3030644 -0.193743,-4.60281 C 14.649019,3.1388275 14.646169,3.1377059 11.326467,2.0309595 8.4439647,1.0699703 8.2195475,1.0000958 8.015625,1.0000958 c -0.2039225,0 -0.4283397,0.069875 -3.3108416,1.0308637 C 1.3850808,3.1377059 1.3822313,3.1388275 1.1937435,3.412815 0.98753566,3.7125606 1,3.4164425 1,8.015625 c 0,4.599183 -0.0124643,4.303064 0.1937435,4.60281 0.1884878,0.273988 0.1913373,0.275109 3.5110399,1.381855 2.8825019,0.96099 3.1069191,1.030864 3.3108416,1.030864 0.2039225,0 0.4283397,-0.06987 3.310842,-1.030864 z"
       style="fill:#ffffff;fill-opacity:0;stroke-width:0.000357143" /><g
       id="INDEX_OF_NEAREST"
       style="stroke-width:0.0114286"
       transform="translate(-1.0156249,-1.5244696)"><path
         style="fill:none;stroke-width:0.000357143"
         d="M 0,8 V 0 h 8 8 v 8 8 H 8 0 Z m 10.769219,6.419944 c 0.04746,-0.03544 0.115288,-0.103265 0.150725,-0.150729 l 0.06443,-0.0863 V 8 1.8170832 L 10.919944,1.730785 C 10.884507,1.683321 10.816679,1.6154929 10.769215,1.5800559 10.682953,1.5156519 10.680959,1.515625 6,1.515625 c -4.6809595,0 -4.6829529,2.69e-5 -4.769215,0.064431 C 1.183321,1.615493 1.1154929,1.68332 1.0800559,1.7307827 l -0.064431,0.086296 -0.00892,6.0992732 c -0.00491,3.3546001 -8.312e-4,6.1445621 0.00906,6.1999151 0.022367,0.125225 0.1536763,0.284891 0.2795653,0.33994 0.07825,0.03422 0.9264991,0.04047 4.7414493,0.03492 4.6386145,-0.0067 4.6462905,-0.0069 4.7324445,-0.07118 z M 13.953125,5.9531453 C 14.852733,5.7649184 15.530165,4.9259269 15.530165,4 c 0,-1.0907576 -0.908157,-1.9989148 -1.998915,-1.9989148 -1.090757,0 -1.998915,0.9081572 -1.998915,1.9989148 0,0.7407994 0.438806,1.4538003 1.093723,1.7771537 0.43249,0.2135344 0.870202,0.2715822 1.327067,0.1759916 z"
         id="path859" /><path
         style="fill:#fefefe;stroke-width:0.000357143"
         d="M 1.5,8 V 2 H 6 10.5 v 6 6 H 6 1.5 Z m 3.2692603,5.419944 C 4.8166994,13.384507 4.8845072,13.316679 4.9199441,13.269215 4.9823641,13.18561 4.984375,13.145996 4.984375,12 c 0,-1.145996 -0.00201,-1.18561 -0.064431,-1.269215 C 4.8845072,10.683321 4.8166791,10.615493 4.769215,10.580056 4.6856103,10.517636 4.6459962,10.515625 3.5,10.515625 c -1.1459962,0 -1.1856103,0.002 -1.269215,0.06443 -0.047464,0.03544 -0.1152921,0.103243 -0.1507291,0.15068 -0.061764,0.08268 -0.06482,0.131744 -0.073832,1.185569 -0.00517,0.604626 -0.0011,1.144609 0.00906,1.199962 0.022973,0.12527 0.1542213,0.284785 0.2800457,0.340359 0.075272,0.03325 0.3361692,0.04059 1.2414905,0.03492 1.1030382,-0.0069 1.1494385,-0.0096 1.2324441,-0.0716 z M 9.5,11.5 V 11 h -2 -2 v 0.5 0.5 h 2 2 z M 4.7692603,9.4199441 C 4.8166994,9.3845072 4.8845072,9.3166791 4.9199441,9.269215 4.9823641,9.1856103 4.984375,9.1459963 4.984375,8 4.984375,6.8540038 4.982365,6.8143897 4.919944,6.730785 4.8845072,6.6833209 4.8166791,6.6154928 4.769215,6.5800559 4.6856103,6.5176359 4.6459962,6.515625 3.5,6.515625 c -1.1459962,0 -1.1856103,0.00201 -1.269215,0.064431 -0.047464,0.035437 -0.1152921,0.1032429 -0.1507291,0.1506797 -0.061764,0.08268 -0.06482,0.1317441 -0.073832,1.1855691 -0.00517,0.6046262 -0.0011,1.1446094 0.00906,1.1999628 0.022973,0.1252697 0.1542213,0.2847841 0.2800457,0.3403584 0.075272,0.033247 0.3361692,0.040585 1.2414905,0.034921 1.1030382,-0.0069 1.1494385,-0.0096 1.2324441,-0.071602 z M 9.5,7.5 V 7 h -2 -2 V 7.5 8 h 2 2 z M 4.7692603,5.4199441 C 4.8166994,5.3845072 4.8845072,5.3166791 4.9199441,5.269215 4.9823641,5.1856103 4.984375,5.1459962 4.984375,4 4.984375,2.8540038 4.982365,2.8143897 4.919944,2.730785 4.8845072,2.683321 4.8166791,2.6154929 4.769215,2.5800559 4.6856103,2.517636 4.6459962,2.515625 3.5,2.515625 c -1.1459962,0 -1.1856103,0.00201 -1.269215,0.064431 -0.047464,0.035437 -0.1152921,0.1032429 -0.1507291,0.1506798 -0.061764,0.08268 -0.06482,0.1317441 -0.073832,1.185569 -0.00517,0.6046262 -0.0011,1.1446094 0.00906,1.1999628 0.022973,0.1252697 0.1542213,0.2847841 0.2800457,0.3403584 0.075272,0.033247 0.3361692,0.040585 1.2414905,0.034921 1.1030382,-0.0069 1.1494385,-0.0096 1.2324441,-0.071603 z M 9.5,3.5 V 3 h -2 -2 V 3.5 4 h 2 2 z"
         id="path857" /><path
         style="fill:#98cbfe;stroke-width:0.000357143"
         d="M 2.5,4 V 3 h 1 1 v 1 1 h -1 -1 z"
         id="path855" /><path
         style="fill:#fefe00;stroke-width:0.000357143"
         d="M 2.5,8 V 7 h 1 1 v 1 1 h -1 -1 z"
         id="path853"
         sodipodi:nodetypes="ccccccccc" /><path
         style="fill:#fe6565;stroke-width:0.000357143"
         d="m 2.5,12 v -1 h 1 1 v 1 1 h -1 -1 z"
         id="path851" /><path
         style="fill:#323232;stroke-width:0.000357143"
         d="m 1.2953257,14.456207 c -0.125889,-0.05505 -0.2571981,-0.214715 -0.2795653,-0.33994 -0.00989,-0.05535 -0.013962,-2.845315 -0.00906,-6.1999154 l 0.00892,-6.0992732 0.064431,-0.086296 C 1.1154929,1.6833199 1.183321,1.6154929 1.230785,1.5800559 1.3170471,1.5156519 1.3190405,1.515625 6,1.515625 c 4.680959,0 4.682953,2.69e-5 4.769215,0.064431 0.04746,0.035437 0.115292,0.1032651 0.150729,0.1507291 l 0.06443,0.086298 V 8 14.182917 l -0.06443,0.0863 c -0.03544,0.04746 -0.103263,0.115292 -0.150725,0.150729 -0.08615,0.06433 -0.09383,0.06444 -4.732444,0.07118 -3.8149502,0.0055 -4.6631991,-7.03e-4 -4.7414493,-0.03492 z M 10.5,8 V 2 H 6 1.5 v 6 6 H 6 10.5 Z M 2.2953257,13.456626 C 2.1695013,13.401052 2.0382533,13.241537 2.01528,13.116267 2.005129,13.060917 2.001053,12.520931 2.00622,11.916305 c 0.00901,-1.053825 0.012068,-1.10289 0.073832,-1.185569 0.035437,-0.04744 0.1032651,-0.115243 0.1507291,-0.15068 0.083605,-0.06242 0.1232188,-0.06443 1.269215,-0.06443 1.1459962,0 1.1856103,0.002 1.269215,0.06443 0.047464,0.03544 0.1152922,0.103265 0.1507291,0.150729 0.06242,0.08361 0.064431,0.123219 0.064431,1.269215 0,1.145996 -0.00201,1.18561 -0.064431,1.269215 -0.035437,0.04746 -0.1032447,0.115292 -0.1506838,0.150729 -0.083006,0.06201 -0.1294059,0.0647 -1.232444,0.0716 -0.9053214,0.0057 -1.1662183,-0.0017 -1.2414906,-0.03492 z M 4.5,12 v -1 h -1 -1 v 1 1 h 1 1 z m 1,-0.5 V 11 h 2 2 v 0.5 0.5 h -2 -2 z M 2.2953257,9.4566259 C 2.1695013,9.4010516 2.0382533,9.2415372 2.01528,9.1162675 2.0051287,9.0609141 2.0010535,8.5209309 2.006224,7.9163047 2.0152359,6.8624797 2.0182915,6.8134153 2.0800559,6.7307356 2.1154929,6.6832987 2.183321,6.6154928 2.230785,6.5800559 2.3143897,6.5176359 2.3540038,6.515625 3.5,6.515625 c 1.1459962,0 1.1856103,0.00201 1.269215,0.064431 0.047464,0.035437 0.1152922,0.103265 0.1507291,0.1507291 0.06242,0.083605 0.064431,0.1232188 0.064431,1.269215 0,1.1459963 -0.00201,1.1856103 -0.064431,1.269215 -0.035437,0.047464 -0.1032447,0.1152922 -0.1506838,0.1507291 -0.083006,0.062005 -0.1294059,0.064701 -1.232444,0.071602 -0.9053214,0.00566 -1.1662183,-0.00167 -1.2414906,-0.03492 z M 4.5,8 V 7 h -1 -1 v 1 1 h 1 1 z m 1,-0.5 V 7 h 2 2 V 7.5 8 h -2 -2 z M 2.2953257,5.4566259 C 2.1695013,5.4010516 2.0382533,5.2415372 2.01528,5.1162675 2.0051287,5.0609141 2.0010535,4.5209309 2.006224,3.9163047 2.0152359,2.8624798 2.0182915,2.8134153 2.0800559,2.7307357 2.1154929,2.6832988 2.183321,2.6154929 2.230785,2.5800559 2.3143897,2.517636 2.3540038,2.515625 3.5,2.515625 c 1.1459962,0 1.1856103,0.00201 1.269215,0.064431 0.047464,0.035437 0.1152922,0.1032651 0.1507291,0.1507291 0.06242,0.083605 0.064431,0.1232188 0.064431,1.269215 0,1.1459962 -0.00201,1.1856103 -0.064431,1.269215 -0.035437,0.047464 -0.1032447,0.1152922 -0.1506838,0.1507291 -0.083006,0.062005 -0.1294059,0.064701 -1.232444,0.071603 -0.9053214,0.00566 -1.1662183,-0.00168 -1.2414906,-0.034921 z M 4.5,4 V 3 h -1 -1 v 1 1 h 1 1 z m 1,-0.5 V 3 h 2 2 V 3.5 4 h -2 -2 z"
         id="path849"
         sodipodi:nodetypes="cccccsssscccccccccccccccccsccssccsccccccccccccccccccccccccsssssssssscccccccccccccccccccccsssssssssscccccccccccccccccccc" /></g><g
       id="g3"
       transform="matrix(0.7543312,0,0,0.7543312,3.6893148,3.6893143)"
       inkscape:label="Grid"
       style="display:inline;stroke-width:0.0151506;enable-background:new"><path
         id="rect1"
         style="baseline-shift:baseline;display:inline;overflow:visible;vector-effect:none;fill:#323232;stroke-width:0.0151506;stroke-linecap:round;stroke-linejoin:round;paint-order:markers stroke fill;enable-background:accumulate;stop-color:#000000;stop-opacity:1"
         d="M 4.1230891,2.3199999 H 14.516912 c 0.998911,0 1.803088,0.8041776 1.803088,1.8030887 V 14.516911 C 16.32,15.515822 15.515823,16.32 14.516912,16.32 H 4.1230891 C 3.124178,16.32 2.3200004,15.515822 2.3200004,14.516911 V 4.1230886 c 0,-0.9989111 0.8041776,-1.8030887 1.8030887,-1.8030887 z" /><g
         id="rect2-2-5-7"
         transform="matrix(1.0716036,0,0,1.0716036,-0.77860787,-0.66768013)"
         style="stroke-width:0.0141383"><path
           style="fill:#cb6500;stroke-width:0.0141383;stroke-linecap:round;stroke-linejoin:round;paint-order:markers stroke fill"
           d="m 4.953125,3.3203125 c -0.8957377,0 -1.6328125,0.7370748 -1.6328125,1.6328125 V 7.6875 c 0,0.8957377 0.7370748,1.6328125 1.6328125,1.6328125 h 2.8398437 c 0.8957378,0 1.6308594,-0.7370748 1.6308594,-1.6328125 V 4.953125 c 0,-0.8957377 -0.7351216,-1.6328125 -1.6308594,-1.6328125 z m 0,1 h 2.8398437 c 0.3590371,0 0.6308594,0.2737753 0.6308594,0.6328125 V 7.6875 c 0,0.3590372 -0.2718223,0.6328125 -0.6308594,0.6328125 H 4.953125 C 4.5940879,8.3203125 4.3203125,8.0465372 4.3203125,7.6875 V 4.953125 c 0,-0.3590372 0.2737754,-0.6328125 0.6328125,-0.6328125 z"
           id="path10" /><path
           style="fill:#fecb32;stroke-width:0.0141383;stroke-linecap:round;stroke-linejoin:round;paint-order:markers stroke fill"
           d="m 4.9524665,3.8199978 h 2.8396153 c 0.6273874,0 1.1324683,0.5050809 1.1324683,1.1324683 v 2.7350672 c 0,0.6273874 -0.5050809,1.1324683 -1.1324683,1.1324683 H 4.9524665 c -0.6273874,0 -1.1324682,-0.5050809 -1.1324682,-1.1324683 V 4.9524661 c 0,-0.6273874 0.5050808,-1.1324683 1.1324682,-1.1324683 z"
           id="path11" /></g><g
         id="rect2-2-5-7-2"
         transform="matrix(1.0716036,0,0,1.0716036,-0.61860782,-0.66768013)"
         style="stroke-width:0.0141383"><path
           style="fill:#cb6500;stroke-width:0.0141383;stroke-linecap:round;stroke-linejoin:round;paint-order:markers stroke fill"
           d="m 10.900391,3.3203125 c -0.895738,0 -1.6328129,0.7370748 -1.6328129,1.6328125 V 7.6875 c 0,0.8957377 0.7370749,1.6328125 1.6328129,1.6328125 h 2.839843 c 0.895738,0 1.632813,-0.7370748 1.632813,-1.6328125 V 4.953125 c 0,-0.8957377 -0.737075,-1.6328125 -1.632813,-1.6328125 z m 0,1 h 2.839843 c 0.359037,0 0.632813,0.2737753 0.632813,0.6328125 V 7.6875 c 0,0.3590372 -0.273776,0.6328125 -0.632813,0.6328125 h -2.839843 c -0.359037,0 -0.632813,-0.2737753 -0.632813,-0.6328125 V 4.953125 c 0,-0.3590372 0.273776,-0.6328125 0.632813,-0.6328125 z"
           id="path8" /><path
           style="fill:#fecb32;stroke-width:0.0141383;stroke-linecap:round;stroke-linejoin:round;paint-order:markers stroke fill"
           d="m 10.900192,3.8199978 h 2.839616 c 0.627387,0 1.132468,0.5050809 1.132468,1.1324683 v 2.7350672 c 0,0.6273874 -0.505081,1.1324683 -1.132468,1.1324683 h -2.839616 c -0.627387,0 -1.132468,-0.5050809 -1.132468,-1.1324683 V 4.9524661 c 0,-0.6273874 0.505081,-1.1324683 1.132468,-1.1324683 z"
           id="path9" /></g><g
         id="rect2-2-5-7-2-7"
         transform="matrix(1.0716036,0,0,1.0716036,-0.61860782,-0.66768013)"
         style="stroke-width:0.0141383"><path
           style="fill:#cb6500;stroke-width:0.0141383;stroke-linecap:round;stroke-linejoin:round;paint-order:markers stroke fill"
           d="m 10.900391,9.3203125 c -0.895738,0 -1.6328129,0.7370745 -1.6328129,1.6328125 V 13.6875 c 0,0.895738 0.7370749,1.632812 1.6328129,1.632813 h 2.839843 c 0.895738,0 1.632813,-0.737075 1.632813,-1.632813 v -2.734375 c 0,-0.895738 -0.737075,-1.6328125 -1.632813,-1.6328125 z m 0,1.0000005 h 2.839843 c 0.359037,0 0.632813,0.273775 0.632813,0.632812 V 13.6875 c 0,0.359037 -0.273776,0.632813 -0.632813,0.632813 h -2.839843 c -0.359037,0 -0.632813,-0.273776 -0.632813,-0.632813 v -2.734375 c 0,-0.359037 0.273776,-0.632813 0.632813,-0.632812 z"
           id="path6" /><path
           style="fill:#fecb32;stroke-width:0.0141383;stroke-linecap:round;stroke-linejoin:round;paint-order:markers stroke fill"
           d="m 10.900192,9.8199978 h 2.839616 c 0.627387,0 1.132468,0.5050812 1.132468,1.1324682 v 2.735067 c 0,0.627388 -0.505081,1.132469 -1.132468,1.132469 h -2.839616 c -0.627387,0 -1.132468,-0.505081 -1.132468,-1.132469 v -2.735067 c 0,-0.627387 0.505081,-1.1324682 1.132468,-1.1324682 z"
           id="path7" /></g><g
         id="rect2-2-5-7-2-7-9"
         transform="matrix(1.0716036,0,0,1.0716036,-0.64256442,-0.66768013)"
         style="stroke-width:0.0141383"><path
           style="fill:#cb6500;stroke-width:0.0141383;stroke-linecap:round;stroke-linejoin:round;paint-order:markers stroke fill"
           d="m 4.8242187,9.3203125 c -0.8957377,0 -1.6308593,0.7370745 -1.6308593,1.6328125 V 13.6875 c 0,0.895738 0.7351216,1.632812 1.6308593,1.632813 h 2.8398438 c 0.8957377,0 1.6328125,-0.737075 1.6328125,-1.632813 v -2.734375 c 0,-0.895738 -0.7370748,-1.6328125 -1.6328125,-1.6328125 z m 0,1.0000005 h 2.8398438 c 0.3590371,0 0.6328125,0.273775 0.6328125,0.632812 V 13.6875 c 0,0.359037 -0.2737754,0.632813 -0.6328125,0.632813 H 4.8242187 c -0.359037,0 -0.6308593,-0.273776 -0.6308593,-0.632813 v -2.734375 c 0,-0.359037 0.2718223,-0.632813 0.6308593,-0.632812 z"
           id="path4" /><path
           style="fill:#fecb32;stroke-width:0.0141383;stroke-linecap:round;stroke-linejoin:round;paint-order:markers stroke fill"
           d="m 4.8250043,9.8199978 h 2.8396154 c 0.6273874,0 1.1324682,0.5050812 1.1324682,1.1324682 v 2.735067 c 0,0.627388 -0.5050808,1.132469 -1.1324682,1.132469 H 4.8250043 c -0.6273874,0 -1.1324682,-0.505081 -1.1324682,-1.132469 v -2.735067 c 0,-0.627387 0.5050808,-1.1324682 1.1324682,-1.1324682 z"
           id="path5" /></g></g></g></svg>
