<?xml version="1.0" encoding="UTF-8" standalone="no"?>
<!-- Created with Inkscape (http://www.inkscape.org/) -->

<svg
   version="1.1"
   id="svg2"
   width="1600"
   height="1600"
   viewBox="0 0 1600 1600"
   sodipodi:docname="node_gridgradient.svg"
   inkscape:version="1.4 (86a8ad7, 2024-10-11)"
   inkscape:export-filename="VOLUME_CUBE.png"
   inkscape:export-xdpi="3072"
   inkscape:export-ydpi="3072"
   xml:space="preserve"
   xmlns:inkscape="http://www.inkscape.org/namespaces/inkscape"
   xmlns:sodipodi="http://sodipodi.sourceforge.net/DTD/sodipodi-0.dtd"
   xmlns="http://www.w3.org/2000/svg"
   xmlns:svg="http://www.w3.org/2000/svg"
   xmlns:rdf="http://www.w3.org/1999/02/22-rdf-syntax-ns#"
   xmlns:cc="http://creativecommons.org/ns#"
   xmlns:dc="http://purl.org/dc/elements/1.1/"><metadata
     id="metadata8"><rdf:RDF><cc:Work
         rdf:about=""><dc:format>image/svg+xml</dc:format><dc:type
           rdf:resource="http://purl.org/dc/dcmitype/StillImage" /></cc:Work></rdf:RDF></metadata><defs
     id="defs6" /><sodipodi:namedview
     pagecolor="#808080"
     bordercolor="#666666"
     borderopacity="1"
     objecttolerance="10"
     gridtolerance="10"
     guidetolerance="10"
     inkscape:pageopacity="0"
     inkscape:pageshadow="2"
     inkscape:window-width="2560"
     inkscape:window-height="1009"
     id="namedview4"
     showgrid="true"
     inkscape:zoom="0.4609375"
     inkscape:cx="936.1356"
     inkscape:cy="854.77967"
     inkscape:window-x="1912"
     inkscape:window-y="-8"
     inkscape:window-maximized="1"
     inkscape:current-layer="MESH_CUBE"
     inkscape:showpageshadow="0"
     inkscape:pagecheckerboard="1"
     inkscape:deskcolor="#d1d1d1"
     showguides="false"><inkscape:grid
       type="xygrid"
       id="grid10683"
       originx="0"
       originy="0"
       spacingy="100"
       spacingx="100"
       units="px" /></sodipodi:namedview><g
     id="MESH_CUBE"
     transform="matrix(100,0,0,100,0,4.9999997e-5)"
     style="display:inline;stroke-width:0.0114286;enable-background:new"
     inkscape:label="VOLUME_CUBE"><path
       inkscape:connector-curvature="0"
       id="path827-666"
       d="M 0,8 V 0 h 8 8 v 8 8 H 8 0 Z m 11.326467,6.00029 c 3.319702,-1.106746 3.322552,-1.107867 3.51104,-1.381855 0.206207,-0.299746 0.193743,-0.0036 0.193743,-4.60281 0,-4.5991825 0.01246,-4.3030644 -0.193743,-4.60281 C 14.649019,3.1388275 14.646169,3.1377059 11.326467,2.0309595 8.4439647,1.0699703 8.2195475,1.0000958 8.015625,1.0000958 c -0.2039225,0 -0.4283397,0.069875 -3.3108416,1.0308637 C 1.3850808,3.1377059 1.3822313,3.1388275 1.1937435,3.412815 0.98753566,3.7125606 1,3.4164425 1,8.015625 c 0,4.599183 -0.0124643,4.303064 0.1937435,4.60281 0.1884878,0.273988 0.1913373,0.275109 3.5110399,1.381855 2.8825019,0.96099 3.1069191,1.030864 3.3108416,1.030864 0.2039225,0 0.4283397,-0.06987 3.310842,-1.030864 z"
       style="fill:#ffffff;fill-opacity:0;stroke-width:0.000357143" /><g
       id="COLLECTION_INFO"
       style="stroke-width:0.0114286"
       transform="translate(0,0.1249995)"><path
         style="fill:none;stroke-width:0.000357143"
         d="M 0,8 V 0 h 8 8 v 8 8 H 8 0 Z m 11.814426,7.408012 c 0.780104,-0.151849 1.409123,-0.449552 2.065622,-0.977621 0.340774,-0.274108 0.697418,-0.692669 0.958503,-1.124908 0.765895,-1.267979 0.855296,-2.791161 0.24413,-4.1593814 C 14.833595,8.5884722 14.336339,7.9366356 13.880048,7.5696088 12.995896,6.8584222 12.064215,6.5183434 11,6.5183434 c -1.0642147,0 -1.9958956,0.3400788 -2.8800484,1.0512653 -0.3407735,0.2741082 -0.6974175,0.6926694 -0.9585025,1.1249088 -0.765895,1.2679781 -0.8552963,2.7911605 -0.24413,4.1593805 0.2490859,0.55763 0.7463415,1.209466 1.2026325,1.576493 0.7708428,0.620043 1.4297612,0.894831 2.5206734,1.051192 0.201088,0.02882 0.859905,-0.01247 1.173801,-0.07357 z M 7.1478278,14.179688 C 6.5930575,13.494739 6.2596359,12.785727 6.0861034,11.921959 c -0.098912,-0.492344 -0.098912,-1.351574 0,-1.843918 0.3694132,-1.8387773 1.6467179,-3.2810601 3.3982716,-3.8371969 0.540881,-0.1717354 0.8905,-0.2244178 1.492153,-0.2248463 l 0.523402,-3.719e-4 3.2e-5,-0.2550475 3.1e-5,-0.2550478 0.34157,-0.010577 c 0.369076,-0.011429 0.438641,-0.03858 0.578374,-0.2257375 C 12.48358,5.1839816 12.484375,5.1559856 12.484375,3 c 0,-2.15598575 -7.94e-4,-2.18398153 -0.06443,-2.26921503 -0.03544,-0.047464 -0.103265,-0.11529209 -0.150729,-0.15072906 L 12.182917,0.515625 H 6.5 0.81708316 L 0.73078496,0.5800559 C 0.68332097,0.61549288 0.61549287,0.68332097 0.58005591,0.73078497 0.51641991,0.81601847 0.515625,0.84401425 0.515625,3 c 0,2.1559856 7.95e-4,2.1839816 0.0644309,2.269215 0.13973306,0.1871572 0.20929793,0.2143081 0.5783737,0.2257375 L 1.5,5.5055297 v 4.2920759 c 0,2.9642654 0.010312,4.3192914 0.033332,4.3800474 0.044365,0.117091 0.1486159,0.227153 0.2635434,0.278233 0.075755,0.03367 0.6232066,0.0419 2.8520691,0.04289 L 7.4072631,14.5 Z"
         id="path829"
         inkscape:connector-curvature="0" /></g><path
       inkscape:connector-curvature="0"
       id="path827-666-9"
       d="M -0.0120358,8.0275596 V 0.02755962 H 7.9879638 15.987965 V 8.0275596 16.02756 H 7.9879638 -0.0120358 Z M 11.314432,14.02785 c 3.319702,-1.106747 3.322552,-1.107868 3.51104,-1.381856 0.206207,-0.299746 0.193743,-0.0036 0.193743,-4.6028094 0,-4.5991825 0.01246,-4.3030644 -0.193743,-4.60281 C 14.636984,3.1663871 14.634134,3.1652655 11.314432,2.0585191 8.4319288,1.0975299 8.2075108,1.0276554 8.0035888,1.0276554 c -0.203923,0 -0.42834,0.069875 -3.3108416,1.0308637 -3.319702,1.1067464 -3.322552,1.107868 -3.511039,1.3818555 -0.20620801,0.2997456 -0.19374401,0.00363 -0.19374401,4.60281 0,4.5991824 -0.01246,4.3030634 0.19374401,4.6028094 0.188487,0.273988 0.191337,0.275109 3.511039,1.381856 2.8825016,0.96099 3.1069186,1.030864 3.3108416,1.030864 0.203923,0 0.42834,-0.06987 3.3108432,-1.030864 z"
       style="display:inline;fill:#ffffff;fill-opacity:0;stroke-width:0.000357143;enable-background:new" /><g
       id="GRADIENT"
       style="stroke-width:0.0116979"
       transform="matrix(0.6044774,-0.6044774,0.6044774,0.6044774,-6.3056833,7.4828922)"><path
         style="fill:none;stroke-width:0.000365557"
         d="M 0,8 V 0 h 8 8 v 8 8 H 8 0 Z m 2,6.5 V 14 H 3 4 V 14.5 15 H 5 6 V 14.5 14 H 6.5 7 V 13.5 13 H 7.5 8 V 12.5 12 H 8.5 9 V 11.5 11 H 9.5 10 V 10.5 10 H 10.5 11 V 9.5 9 H 11.5 12 V 8.5 8 H 12.5 13 V 7.5 7 H 13.5 14 V 6.5 6 H 14.5 15 V 5 4 H 14.5 14 V 3.5 3 H 13.5 13 V 2.5 2 H 12.5 12 V 1.5 1 H 11 10 V 1.5 2 H 9.5 9 V 2.5 3 H 8.5 8 V 3.5 4 H 7.5 7 V 4.5 5 H 6.5 6 V 5.5 6 H 5.5 5 V 6.5 7 H 4.5 4 V 7.5 8 H 3.5 3 V 8.5 9 H 2.5 2 V 9.5 10 H 1.5 1 v 1 1 H 1.5 2 v 1 1 H 1.5 1 V 14.5 15 H 1.5 2 Z"
         id="path305" /><path
         style="fill:#cbcbcb;stroke-width:0.000365557"
         d="M 10,8.5 V 8 H 9.5 9 V 7.5 7 H 8.5 8 V 6.5 6 H 7.5 7 V 5 4.5 L 7.5,4 8,3.5 9,2.5 V 3 3.5 4 H 9.5 10 v 1 1 h 1 1 V 6.5 7 h 0.5 1 L 13,7.5 12.5,8 12,8.5 11.5,9 H 11 10 Z m 0,-2 V 6 H 9.5 9 V 6.5 7 H 9.5 10 Z"
         id="path301"
         sodipodi:nodetypes="cccccccccccccccccccccccccccccccccccccccccccccc" /><path
         style="fill:#989898;stroke-width:0.000365557"
         d="M 8,10.5 V 10 H 7.5 7 L 6,9 V 8.5 8 H 5.5 5 V 6.75 L 5.75,6 6,5.75 6.3669097,5.1497524 7,5 V 5.5 6 H 7.5 8 v 1 l 1,1 h 1 V 8.5 9 h 0.5 1 L 11,9.5 10.5,10 10,10.5 9.5,11 H 8 Z M 8,9 c -5.3333333,4.666667 -2.6666667,2.333333 0,0 z"
         id="path299"
         sodipodi:nodetypes="ccccccccccccccccccccccccccccccccc" /><path
         style="fill:#656565;stroke-width:0.000365557"
         d="M 6,12.5 V 12 H 5.5 5 V 11.5 11 H 4.5 4 V 10.5 10 H 3.5 3 V 9 8.5 L 4.75,7 5,6.75 V 7.5 8 H 5.5 6 v 1 1 h 1 1 v 0.5 0.5 h 0.5 1 L 9,11.5 7.5,13 H 7 6 Z m 0,-2 V 10 H 5.5 5 V 10.5 11 H 5.5 6 Z"
         id="path297"
         sodipodi:nodetypes="cccccccccccccccccccccccccccccccccccccccccc" /><path
         style="fill:#323232;stroke-width:0.000365557"
         d="M 1.5412365,13.172941 1.1841476,12.815852 0.82837245,12.351049 0.63848788,11.530122 C 0.65427434,10.826414 0.76695543,10 1.5,10 L 2,9.5 2.5,9 3,8.5 v 1 0.5 H 3.5 4 v 1 c -0.076812,1.069356 -0.00369,1 1,1 H 6 V 12.5 13 H 6.5 7 v 0.5 L 6.5,14 H 6 v 0.5 L 5.5,15 3.6093599,15.130091 Z"
         id="path295"
         sodipodi:nodetypes="cccccccccccccccccccccccccc" /><path
         style="fill:#fefefe;stroke-width:0.000365557"
         d="M 1,14 2,13 3,12 4,11 5,10 6,9 7,8 8,7 9,6 10,5 V 4 H 9.5 9 V 3 2.5 L 9.5,2 10,1.5 10.5,1 l 0.806763,-0.37674443 0.899284,0.0772661 1.125173,0.91168963 0.950503,0.9505026 1.048578,1.4502424 v 1 L 15,5.5 14.5,6 14,6.5 13.5,7 H 13 12 V 6.5 6 H 11 L 10,7 9,8 8,9 7,10 6,11 5,12 4,13 3,14 2,15 C 1.4778833,15.26404 1.2357023,15.235702 1,15 0.76429774,14.764298 0.63848788,14.404044 1,14 Z"
         id="path303"
         sodipodi:nodetypes="ccccccccccccccccccccccccccccccccccccccccccac" /><path
         style="stroke-width:0.0116979;stroke-linecap:round;stroke-linejoin:round"
         d="m -6.5429687,7.8925781 c -1.0663462,0 -1.9316407,0.8672476 -1.9316407,1.9335938 v 2.9140621 c 0,1.066347 0.8652945,1.931641 1.9316407,1.931641 H 6.6035156 c 1.0663462,0 1.9335938,-0.865294 1.9335938,-1.931641 V 9.8261719 c 0,-1.0663462 -0.8672476,-1.9335938 -1.9335938,-1.9335938 z m 0,0.5 H 6.6035156 c 0.7979948,0 1.4335938,0.635599 1.4335938,1.4335938 v 2.9140621 c 0,0.797995 -0.635599,1.431641 -1.4335938,1.431641 H -6.5429687 c -0.7979948,0 -1.4316407,-0.633646 -1.4316407,-1.431641 V 9.8261719 c 0,-0.7979948 0.6336459,-1.4335938 1.4316407,-1.4335938 z"
         id="rect4356"
         transform="rotate(-45)" /><path
         style="fill:#fefefe;stroke-width:0.000365557"
         d="m 1,14 1,-1 1,-1 1,-1 1,-1.0000001 1,-1 1,-1 L 8,7 9,6 l 1,-1 1,0.9999999 -1,1 -1,0.9999999 -1,1 -1,1 L 6,11 5,12 4,13 3,14 2,15 C 1.4778833,15.26404 1.2357023,15.235702 1,15 0.7642977,14.764298 0.6384879,14.404044 1,14 Z"
         id="path303-0"
         sodipodi:nodetypes="ccccccccccccccccccccac" /></g><g
       id="SAMPLE_NEAREST-5-1"
       style="display:inline;stroke-width:0.013369;enable-background:new"
       transform="matrix(0,-0.85486013,0.85486013,0,-3.5350886,6.0339715)"><path
         style="fill:#fefe00;stroke-width:0.00041778"
         d="M 2.984375,9.4969731 2.890625,9.4950325 2.695708,9.4526853 2.500791,9.4103378 2.3059599,9.3067322 2.1111289,9.2031263 1.9498351,9.04203 1.7885412,8.8809338 1.6787118,8.6613978 1.5688825,8.4418619 1.5316177,8.2209316 1.494353,8 1.5316177,7.7790697 1.5688825,7.5581394 1.6787118,7.3386034 1.7885412,7.1190675 1.9538043,6.9538044 2.1190674,6.7885412 2.3386035,6.6787119 2.5581395,6.5688825 2.7790698,6.5316178 3,6.4943531 3.2209303,6.5316181 3.4418606,6.5688831 3.6613966,6.6787125 3.8809325,6.7885418 4.0461956,6.953805 4.2114587,7.1190681 4.3212881,7.338604 4.4311175,7.55814 4.4683825,7.7790703 4.5056469,8 4.4683822,8.2209303 4.4311175,8.4418606 4.3212881,8.6613966 4.2114587,8.8809325 4.050165,9.0420288 3.8888712,9.203125 3.6950544,9.30619 3.5012378,9.4092553 3.2896816,9.454085 3.078125,9.4989147 2.984375,9.4969741 Z"
         id="path305-1-3" /><path
         style="fill:#323232;stroke-width:0.00041778"
         d="M 2.984375,9.9969731 2.765625,9.9950325 2.5625,9.9514066 2.359375,9.9077803 2.0948078,9.777155 1.8302406,9.6465297 1.5918561,9.4081453 1.3534716,9.1697606 1.2230479,8.9051934 1.0926243,8.6406262 l -0.04577,-0.21875 -0.04577,-0.21875 v -0.203125 -0.203125 l 0.04577,-0.21875 0.04577,-0.21875 L 1.2230479,7.0948091 1.3534716,6.8302419 1.5918561,6.5918572 1.8302406,6.3534728 2.0948078,6.2230491 2.359375,6.0926256 l 0.21875,-0.04577 0.21875,-0.045769 H 3 3.203125 l 0.21875,0.045769 0.21875,0.04577 0.2645672,0.1304235 0.2645672,0.1304237 0.2383847,0.2383844 0.2383843,0.2383847 0.1304238,0.2645672 0.1304234,0.2645671 0.04577,0.21875 0.045769,0.21875 v 0.203125 0.203125 l -0.045769,0.21875 -0.04577,0.21875 L 4.7769522,8.9051934 4.6465284,9.1697606 4.4081441,9.4081453 4.1697594,9.6465297 3.9051922,9.7769534 3.640625,9.9073769 l -0.21875,0.04577 -0.21875,0.045769 -0.21875,-0.00194 z m 0,-0.5 0.09375,0.00194 0.2115566,-0.04483 0.2115562,-0.04483 L 3.6950544,9.3061891 3.8888713,9.2031241 4.050165,9.0420278 4.2114587,8.8809316 4.3212881,8.6613956 4.4311175,8.4418597 4.4683822,8.2209294 4.5056469,7.9999991 4.4683822,7.7790687 4.4311175,7.5581384 4.3212881,7.3386025 4.2114587,7.1190666 4.0461956,6.9538034 3.8809325,6.7885403 3.6613966,6.6787109 3.4418606,6.5688816 3.2209303,6.5316169 3,6.4943531 2.7790698,6.5316178 2.5581395,6.5688825 2.3386035,6.6787119 2.1190674,6.7885412 1.9538043,6.9538044 1.7885413,7.1190675 1.6787118,7.3386034 1.5688825,7.5581394 1.5316178,7.7790697 1.494353,8 l 0.037265,0.2209303 0.037265,0.2209303 0.1098293,0.219536 0.1098294,0.2195359 0.1612939,0.1610963 0.1612938,0.1610962 0.194831,0.1036059 0.1948311,0.1036057 0.194917,0.042347 0.194917,0.042347 0.09375,0.00194 z"
         id="path297-7-8"
         sodipodi:nodetypes="cccccccccccccccccccccccccccccccccccccccccccccccccccccccccccccccccccccccccccccccccccccccccccccc" /></g><g
       id="g3"
       transform="matrix(0.64095584,0,0,0.64095584,5.5396007,2.4158999)"
       inkscape:label="Grid"
       style="display:inline;stroke-width:0.0178305;enable-background:new"><path
         id="rect1"
         style="baseline-shift:baseline;display:inline;overflow:visible;vector-effect:none;fill:#323232;stroke-width:0.0178305;stroke-linecap:round;stroke-linejoin:round;paint-order:markers stroke fill;enable-background:accumulate;stop-color:#000000;stop-opacity:1"
         d="M 4.1230891,2.3199999 H 14.516912 c 0.998911,0 1.803088,0.8041776 1.803088,1.8030887 V 14.516911 C 16.32,15.515822 15.515823,16.32 14.516912,16.32 H 4.1230891 C 3.124178,16.32 2.3200004,15.515822 2.3200004,14.516911 V 4.1230886 c 0,-0.9989111 0.8041776,-1.8030887 1.8030887,-1.8030887 z" /><g
         id="rect2-2-5-7"
         transform="matrix(1.0716036,0,0,1.0716036,-0.77860787,-0.66768013)"
         style="stroke-width:0.0166389" /><g
         id="rect2-2-5-7-2"
         transform="matrix(1.0716036,0,0,1.0716036,-0.61860782,-0.66768013)"
         style="stroke-width:0.0166389" /><g
         id="rect2-2-5-7-2-7"
         transform="matrix(1.0716036,0,0,1.0716036,-0.61860782,-0.66768013)"
         style="stroke-width:0.0166389" /><g
         id="rect2-2-5-7-2-7-9"
         transform="matrix(1.0716036,0,0,1.0716036,-0.64256442,-0.66768013)"
         style="stroke-width:0.0166389" /><path
         id="path4"
         style="display:inline;fill:#0065fe;fill-opacity:1;stroke-width:0.0166389;stroke-linecap:round;stroke-linejoin:round;paint-order:markers stroke fill;enable-background:new"
         transform="matrix(1.0716036,0,0,1.0716036,-0.64256442,-0.6676801)"
         d="m 4.8242187,9.3203125 c -0.8957377,0 -1.6308593,0.7370745 -1.6308593,1.6328125 V 13.6875 c 0,0.895738 0.7351216,1.632812 1.6308593,1.632813 h 2.8398438 c 0.8957377,0 1.6328125,-0.737075 1.6328125,-1.632813 v -2.734375 c 0,-0.895738 -0.7370748,-1.6328125 -1.6328125,-1.6328125 z m 0,1.0000005 h 2.8398438 c 0.3590371,0 0.6328125,0.273775 0.6328125,0.632812 V 13.6875 c 0,0.359037 -0.2737754,0.632813 -0.6328125,0.632813 H 4.8242187 c -0.359037,0 -0.6308593,-0.273776 -0.6308593,-0.632813 v -2.734375 c 0,-0.359037 0.2718223,-0.632813 0.6308593,-0.632812 z M 10.922747,9.3203125 c -0.895738,0 -1.6328131,0.7370745 -1.6328131,1.6328125 V 13.6875 c 0,0.895738 0.7370751,1.632812 1.6328131,1.632813 h 2.839843 c 0.895738,0 1.632813,-0.737075 1.632813,-1.632813 v -2.734375 c 0,-0.895738 -0.737075,-1.6328125 -1.632813,-1.6328125 z m 0,1.0000005 h 2.839843 c 0.359037,0 0.632813,0.273775 0.632813,0.632812 V 13.6875 c 0,0.359037 -0.273776,0.632813 -0.632813,0.632813 h -2.839843 c -0.359037,0 -0.632813,-0.273776 -0.632813,-0.632813 v -2.734375 c 0,-0.359037 0.273776,-0.632813 0.632813,-0.632812 z m 0,-7.0000005 c -0.895738,0 -1.6328131,0.7370748 -1.6328131,1.6328125 V 7.6875 c 0,0.8957377 0.7370751,1.6328125 1.6328131,1.6328125 h 2.839843 c 0.895738,0 1.632813,-0.7370748 1.632813,-1.6328125 V 4.953125 c 0,-0.8957377 -0.737075,-1.6328125 -1.632813,-1.6328125 z m 0,1 h 2.839843 c 0.359037,0 0.632813,0.2737753 0.632813,0.6328125 V 7.6875 c 0,0.3590372 -0.273776,0.6328125 -0.632813,0.6328125 h -2.839843 c -0.359037,0 -0.632813,-0.2737753 -0.632813,-0.6328125 V 4.953125 c 0,-0.3590372 0.273776,-0.6328125 0.632813,-0.6328125 z m -6.0965751,-1 c -0.8957377,0 -1.6328125,0.7370748 -1.6328125,1.6328125 V 7.6875 c 0,0.8957377 0.7370748,1.6328125 1.6328125,1.6328125 h 2.8398437 c 0.8957378,0 1.6308594,-0.7370748 1.6308594,-1.6328125 V 4.953125 c 0,-0.8957377 -0.7351216,-1.6328125 -1.6308594,-1.6328125 z m 0,1 h 2.8398437 c 0.3590371,0 0.6308594,0.2737753 0.6308594,0.6328125 V 7.6875 c 0,0.3590372 -0.2718223,0.6328125 -0.6308594,0.6328125 H 4.8261719 C 4.4671348,8.3203125 4.1933594,8.0465372 4.1933594,7.6875 V 4.953125 c 0,-0.3590372 0.2737754,-0.6328125 0.6328125,-0.6328125 z" /><path
         id="path5"
         style="display:inline;fill:#98cbfe;fill-opacity:1;stroke-width:0.0166389;stroke-linecap:round;stroke-linejoin:round;paint-order:markers stroke fill;enable-background:new"
         transform="matrix(1.0716036,0,0,1.0716036,-0.64256442,-0.6676801)"
         d="m 4.8250043,9.8199978 h 2.8396154 c 0.6273874,0 1.1324682,0.5050812 1.1324682,1.1324682 v 2.735067 c 0,0.627388 -0.5050808,1.132469 -1.1324682,1.132469 H 4.8250043 c -0.6273874,0 -1.1324682,-0.505081 -1.1324682,-1.132469 v -2.735067 c 0,-0.627387 0.5050808,-1.1324682 1.1324682,-1.1324682 z m 6.0975437,0 h 2.839616 c 0.627387,0 1.132468,0.5050812 1.132468,1.1324682 v 2.735067 c 0,0.627388 -0.505081,1.132469 -1.132468,1.132469 h -2.839616 c -0.627387,0 -1.1324682,-0.505081 -1.1324682,-1.132469 v -2.735067 c 0,-0.627387 0.5050812,-1.1324682 1.1324682,-1.1324682 z m 0,-6 h 2.839616 c 0.627387,0 1.132468,0.5050809 1.132468,1.1324683 v 2.7350672 c 0,0.6273874 -0.505081,1.1324683 -1.132468,1.1324683 h -2.839616 c -0.627387,0 -1.1324682,-0.5050809 -1.1324682,-1.1324683 V 4.9524661 c 0,-0.6273874 0.5050812,-1.1324683 1.1324682,-1.1324683 z m -6.0970346,0 h 2.8396153 c 0.6273874,0 1.1324683,0.5050809 1.1324683,1.1324683 v 2.7350672 c 0,0.6273874 -0.5050809,1.1324683 -1.1324683,1.1324683 H 4.8255134 c -0.6273874,0 -1.1324682,-0.5050809 -1.1324682,-1.1324683 V 4.9524661 c 0,-0.6273874 0.5050808,-1.1324683 1.1324682,-1.1324683 z" /></g></g></svg>
