<?xml version="1.0" encoding="UTF-8" standalone="no"?>
<!-- Created with Inkscape (http://www.inkscape.org/) -->

<svg
   version="1.1"
   id="svg2"
   width="1600"
   height="1600"
   viewBox="0 0 1600 1600"
   sodipodi:docname="node_blur.svg"
   inkscape:version="1.2.2 (732a01da63, 2022-12-09)"
   xmlns:inkscape="http://www.inkscape.org/namespaces/inkscape"
   xmlns:sodipodi="http://sodipodi.sourceforge.net/DTD/sodipodi-0.dtd"
   xmlns="http://www.w3.org/2000/svg"
   xmlns:svg="http://www.w3.org/2000/svg"
   xmlns:rdf="http://www.w3.org/1999/02/22-rdf-syntax-ns#"
   xmlns:cc="http://creativecommons.org/ns#"
   xmlns:dc="http://purl.org/dc/elements/1.1/">
  <metadata
     id="metadata8">
    <rdf:RDF>
      <cc:Work
         rdf:about="">
        <dc:format>image/svg+xml</dc:format>
        <dc:type
           rdf:resource="http://purl.org/dc/dcmitype/StillImage" />
      </cc:Work>
    </rdf:RDF>
  </metadata>
  <defs
     id="defs6" />
  <sodipodi:namedview
     pagecolor="#808080"
     bordercolor="#666666"
     borderopacity="1"
     objecttolerance="10"
     gridtolerance="10"
     guidetolerance="10"
     inkscape:pageopacity="0"
     inkscape:pageshadow="2"
     inkscape:window-width="1993"
     inkscape:window-height="1009"
     id="namedview4"
     showgrid="false"
     inkscape:zoom="0.57176213"
     inkscape:cx="376.90499"
     inkscape:cy="748.56305"
     inkscape:window-x="-8"
     inkscape:window-y="-8"
     inkscape:window-maximized="1"
     inkscape:current-layer="NODE_BLUR"
     inkscape:showpageshadow="0"
     inkscape:pagecheckerboard="true"
     inkscape:deskcolor="#d1d1d1"
     inkscape:lockguides="true" />
  <g
     id="NODE_BLUR"
     transform="matrix(100,0,0,100,0,4.9999997e-5)"
     style="stroke-width:0.0114286">
    <path
       style="fill:none;stroke-width:0.000357143"
       d="M 0,8 V 0 h 8 8 v 8 8 H 8 0 Z m 8.46875,5.123079 c 0.1804687,-0.02021 0.35625,-0.05161 0.390625,-0.06976 0.034375,-0.01816 0.1117188,-0.04323 0.171875,-0.05573 0.2071313,-0.04302 0.4350741,-0.140315 0.765625,-0.326814 0.103125,-0.05818 0.206821,-0.115554 0.230435,-0.127488 0.02361,-0.01193 0.100957,-0.0756 0.171875,-0.141481 0.07092,-0.06588 0.140097,-0.119956 0.153733,-0.12017 0.03408,-5.35e-4 0.334618,-0.303996 0.433675,-0.43789 0.04451,-0.06016 0.114244,-0.146057 0.154975,-0.190891 0.08376,-0.0922 0.0891,-0.1009 0.285203,-0.465359 0.18949,-0.35216 0.350863,-0.847328 0.381909,-1.171875 0.0099,-0.103125 0.02816,-0.2648438 0.04066,-0.359375 0.0125,-0.094531 0.01282,-0.2421875 7e-4,-0.328125 C 11.63792,9.242184 11.61899,9.0734335 11.60797,8.953121 11.596945,8.8328125 11.568141,8.6900622 11.543962,8.6359022 11.519783,8.5817422 11.5,8.5203484 11.5,8.4994712 11.5,8.3961766 11.223207,7.7126428 11.158542,7.65625 11.148687,7.6476562 11.019345,7.4015625 10.871115,7.109375 10.612821,6.6002356 10.460061,6.3060853 10.11647,5.65625 10.030137,5.4929687 9.9038897,5.2539062 9.8359209,5.125 9.7679519,4.9960937 9.6715953,4.8301544 9.6217953,4.7562459 9.5719953,4.6823375 9.53125,4.6140644 9.53125,4.6045278 9.53125,4.5949878 9.491914,4.5288998 9.443836,4.4576569 9.3957588,4.3864144 9.346385,4.3070312 9.3341172,4.28125 9.3218491,4.2554688 9.2840503,4.1921875 9.2501197,4.140625 9.2161894,4.0890625 9.1754559,4.01875 9.1596016,3.984375 9.1437469,3.95 9.06971,3.8499853 8.995075,3.7621203 8.92044,3.6742553 8.803125,3.5345053 8.734375,3.4515647 8.4894678,3.1561072 8.3286553,3.0161318 8.1504588,2.9433096 L 7.9735025,2.8709943 7.7914387,2.9526934 C 7.6148353,3.0319422 7.5052028,3.1306006 7.2322806,3.4558816 7.1646825,3.5364478 7.04831,3.6742553 6.973675,3.7621203 6.89904,3.8499853 6.8250031,3.95 6.8091484,3.984375 6.7932941,4.01875 6.7525606,4.0890625 6.7186303,4.140625 6.6846997,4.1921875 6.6469009,4.2554688 6.6346328,4.28125 6.622365,4.3070312 6.5729912,4.3864144 6.5249138,4.4576569 6.4768363,4.5288997 6.4375,4.6027278 6.4375,4.6217194 c 0,0.018992 -0.013115,0.034531 -0.029144,0.034531 -0.016029,0 -0.038044,0.028042 -0.048922,0.062315 C 6.348556,4.7528384 6.322673,4.7985414 6.301917,4.8201279 6.28116,4.8417137 6.2152844,4.9578125 6.1555263,5.078125 6.0957681,5.1984375 6.03845,5.3039062 6.0281528,5.3125 6.0178556,5.3210937 5.9496809,5.4476562 5.8766537,5.59375 5.6465903,6.0540012 5.5681262,6.2019944 5.5335606,6.2408684 5.5151022,6.2616275 5.5,6.2974869 5.5,6.3205559 5.5,6.3436253 5.4862,6.3763 5.4693334,6.3931666 5.4396378,6.4228622 5.0416316,7.1895587 4.7244203,7.828125 4.6390406,8 4.54472,8.225 4.5148194,8.328125 4.4849184,8.43125 4.4422472,8.5648438 4.4199941,8.625 c -0.022254,0.060156 -0.048983,0.2078125 -0.059399,0.328125 -0.010416,0.1203125 -0.030009,0.2925781 -0.043539,0.3828125 -0.01353,0.090234 -0.01326,0.2378906 6e-4,0.328125 0.01386,0.090234 0.033109,0.2484375 0.042776,0.3515625 0.017231,0.183828 0.04862,0.311279 0.1693185,0.6875 0.059277,0.184768 0.1508325,0.391343 0.1869781,0.421875 0.010174,0.0086 0.057179,0.09601 0.1044559,0.194255 0.120671,0.250768 0.5144619,0.73182 0.7637813,0.93303 0.1155762,0.09328 0.2328184,0.190684 0.2605378,0.216465 0.05651,0.05256 0.1102972,0.08526 0.3668278,0.223009 0.3839981,0.206199 0.5199469,0.263398 0.7275781,0.306121 0.061481,0.01265 0.1317935,0.03581 0.15625,0.05147 0.062399,0.03996 0.8026913,0.136869 0.9350919,0.122416 0.060156,-0.0066 0.2570313,-0.02848 0.4375,-0.04869 z"
       id="path825"
       inkscape:connector-curvature="0" />
    <path
       style="fill:#fefefe;stroke-width:0.000357143"
       d="M 7.671875,11.996393 C 7.56875,11.981413 7.4313559,11.947972 7.366555,11.922079 7.3017541,11.896185 7.2214975,11.875 7.1882072,11.875 7.1155519,11.875 6.5926759,11.606642 6.54343,11.544078 6.5243475,11.519835 6.4980337,11.5 6.4849547,11.5 6.4470381,11.5 5.96875,11.011281 5.96875,10.972538 c 0,-0.01927 -0.011612,-0.03504 -0.025805,-0.03504 -0.014193,0 -0.066927,-0.08434 -0.1171875,-0.187428 -0.050261,-0.103086 -0.1002497,-0.187461 -0.1110869,-0.1875 -0.06326,-2.19e-4 -0.2541115,-0.8100154 -0.2541115,-1.078197 0,-0.3447544 0.1506634,-0.8989184 0.3362243,-1.2366884 C 5.8574597,8.1372403 5.9526147,7.9554688 6.0082394,7.84375 L 6.109375,7.640625 6.1316191,8.1875 c 0.023893,0.5874259 0.063454,0.8180934 0.2331406,1.359375 0.105085,0.3352103 0.465184,1.109375 0.5160203,1.109375 0.014008,0 0.02547,0.01489 0.02547,0.03309 0,0.05105 0.34771,0.490208 0.568095,0.717509 0.2033594,0.209741 0.414815,0.404588 0.5636578,0.519385 0.046683,0.036 0.07598,0.07436 0.065104,0.08524 -0.025347,0.02535 -0.1933475,0.01947 -0.4312319,-0.01508 z"
       id="path823"
       inkscape:connector-curvature="0" />
    <path
       style="fill:#65cbfe;stroke-width:0.000357143"
       d="M 7.5625,12.370208 C 7.4507813,12.354627 7.3150622,12.321207 7.2609022,12.29594 7.2067422,12.270673 7.1347016,12.25 7.1008122,12.25 6.9893066,12.25 6.4337297,11.961435 6.2284059,11.796875 6.1033169,11.69662 5.8060747,11.403444 5.703125,11.27878 5.5220078,11.05946 5.3059153,10.632535 5.2061234,10.296875 5.0422825,9.7457775 5.0425512,9.2107859 5.2069391,8.671875 5.2722459,8.4577809 5.759305,7.4205037 5.8158937,7.375 5.8265807,7.36641 5.8461467,7.324219 5.8593737,7.28125 5.8726007,7.238281 5.8934677,7.196094 5.9057457,7.1875 5.9180227,7.17891 5.9872437,7.0523438 6.0595698,6.90625 6.131895,6.7601562 6.2033147,6.6195312 6.21828,6.59375 6.233245,6.5679688 6.2537172,6.5257812 6.2637731,6.5 6.2738294,6.4742188 6.3184244,6.3898437 6.3628731,6.3125 6.4073219,6.2351562 6.5456397,5.975 6.6702459,5.734375 6.7948522,5.49375 6.9376,5.2335937 6.9874631,5.15625 7.0373266,5.0789062 7.0949547,4.9875 7.1155259,4.953125 7.1360972,4.91875 7.2028941,4.8087578 7.2639634,4.7086978 c 0.061069,-0.10006 0.1110353,-0.1949819 0.1110353,-0.2109375 0,-0.015956 0.013115,-0.02901 0.029144,-0.02901 0.016029,0 0.038298,-0.028842 0.049487,-0.064095 0.011189,-0.035252 0.061355,-0.1060491 0.1114809,-0.1573272 0.050126,-0.051278 0.091138,-0.098633 0.091138,-0.1052334 0,-0.0066 0.047986,-0.065881 0.1066347,-0.131735 0.058649,-0.065854 0.1324772,-0.1515484 0.1640625,-0.1904322 L 7.9843737,3.74923 8.1406238,3.939875 c 0.085937,0.1048544 0.1948371,0.2340281 0.241999,0.2870522 0.07897,0.088786 0.3412019,0.4991619 0.5200297,0.8138131 0.040991,0.072124 0.1113031,0.1873847 0.15625,0.2561347 0.044947,0.06875 0.1785931,0.3148438 0.2969919,0.546875 0.118399,0.2320313 0.2824222,0.5484375 0.3644959,0.703125 0.082074,0.1546875 0.2088116,0.4007813 0.2816397,0.546875 0.07283,0.1460938 0.144352,0.2703125 0.158942,0.2760416 0.01459,0.00573 0.02653,0.036365 0.02653,0.06808 0,0.031715 0.01758,0.076246 0.03906,0.098958 0.07739,0.081812 0.457286,0.8905113 0.533201,1.1350447 0.12536,0.4038019 0.154002,0.7869203 0.09112,1.21875 -0.04644,0.3188807 -0.164718,0.7239147 -0.243056,0.8323067 -0.01697,0.02348 -0.07018,0.120824 -0.11824,0.216317 -0.04806,0.09549 -0.135692,0.226353 -0.194734,0.290801 -0.05904,0.06445 -0.107348,0.124442 -0.107348,0.133319 0,0.02654 -0.2896225,0.324131 -0.3154522,0.324131 -0.013116,0 -0.076597,0.04975 -0.1410687,0.110554 -0.064472,0.0608 -0.18852,0.147669 -0.2756629,0.193032 -0.36682,0.190952 -0.5209928,0.258925 -0.5876965,0.259106 -0.03891,9.4e-5 -0.1088253,0.02006 -0.1553681,0.04434 -0.096697,0.05045 -0.5581882,0.113374 -0.7903766,0.107773 -0.085937,-0.0021 -0.2476563,-0.01652 -0.359375,-0.0321 z m 0.5406069,-0.358731 c 0.010876,-0.01088 -0.018421,-0.04923 -0.065104,-0.08524 C 7.88916,11.811442 7.6777044,11.616595 7.474345,11.406854 7.25396,11.179553 6.90625,10.740392 6.90625,10.689345 c 0,-0.0182 -0.011462,-0.03309 -0.02547,-0.03309 -0.050836,0 -0.4109353,-0.7741647 -0.5160203,-1.109375 C 6.1950731,9.0055934 6.1555122,8.7749259 6.1316191,8.1875 L 6.109375,7.640625 6.0082394,7.84375 C 5.9526147,7.9554687 5.8574597,8.1372403 5.7967837,8.2476866 5.6112228,8.5854566 5.4605594,9.1396206 5.4605594,9.484375 c 0,0.2681816 0.1908518,1.077967 0.2541115,1.078197 0.010837,3.1e-5 0.060826,0.08441 0.1110869,0.1875 0.05026,0.103085 0.1029947,0.187428 0.1171875,0.187428 0.014193,0 0.025805,0.01577 0.025805,0.03504 0,0.03874 0.4782881,0.527462 0.5162047,0.527462 0.013079,0 0.039393,0.01984 0.058475,0.04408 0.049246,0.06256 0.5721219,0.330922 0.6447772,0.330922 0.03329,0 0.1135469,0.02118 0.1783478,0.04708 0.18605,0.07434 0.6903938,0.135555 0.7365519,0.0894 z"
       id="path821"
       inkscape:connector-curvature="0" />
    <path
       style="fill:#0032fe;stroke-width:0.000357143"
       d="m 7.53125,13.130768 c -0.2148438,-0.02912 -0.410635,-0.06575 -0.4350919,-0.08141 -0.024457,-0.01566 -0.094769,-0.03882 -0.15625,-0.05147 C 6.7322769,12.955157 6.5963281,12.897958 6.21233,12.691759 5.9557994,12.554008 5.9020125,12.521309 5.8455022,12.46875 5.8177828,12.442969 5.7005406,12.34556 5.5849644,12.252285 5.335645,12.051075 4.9418541,11.570023 4.8211831,11.319255 4.7739062,11.221008 4.7269012,11.133594 4.7167272,11.125 4.6805816,11.094468 4.5890259,10.887893 4.5297491,10.703125 4.4090506,10.326904 4.3776616,10.199453 4.3604306,10.015625 4.3507641,9.9125 4.331515,9.7542969 4.317655,9.6640625 4.303795,9.5738285 4.303525,9.4261719 4.317055,9.3359375 4.330585,9.2457035 4.350178,9.0734375 4.360594,8.953125 4.3710109,8.8328125 4.3977403,8.6851563 4.4199937,8.625 4.4422469,8.5648438 4.4849181,8.43125 4.5148191,8.328125 4.5447197,8.225 4.6390403,8 4.72442,7.828125 5.0416312,7.1895587 5.4396375,6.4228622 5.4693331,6.3931666 5.4862,6.3763 5.5,6.3436253 5.5,6.3205559 5.5,6.2974869 5.5151022,6.2616275 5.5335606,6.2408684 5.5681262,6.2019944 5.6465903,6.0540012 5.8766537,5.59375 5.9496809,5.4476562 6.0178556,5.3210937 6.0281528,5.3125 6.03845,5.3039062 6.0957681,5.1984375 6.1555263,5.078125 6.2152844,4.9578125 6.28116,4.8417137 6.3019166,4.8201275 6.3226736,4.7985415 6.3485556,4.7528385 6.3594336,4.718565 6.3703116,4.684292 6.3923266,4.65625 6.4083556,4.65625 c 0.016029,0 0.029144,-0.015539 0.029144,-0.034531 0,-0.018992 0.039336,-0.09282 0.087414,-0.1640625 0.048077,-0.071243 0.097451,-0.1506257 0.1097191,-0.1764069 0.012268,-0.025781 0.050067,-0.089062 0.083997,-0.140625 0.03393,-0.051563 0.074664,-0.121875 0.090518,-0.15625 C 6.8250031,3.95 6.89904,3.8499853 6.973675,3.7621203 7.04831,3.6742553 7.1646825,3.5364478 7.2322806,3.4558816 7.5052028,3.1306006 7.6148353,3.0319422 7.7914387,2.9526934 l 0.1820638,-0.081699 0.1769563,0.072315 c 0.1781965,0.072822 0.339009,0.2127976 0.5839162,0.5082551 0.06875,0.082941 0.186065,0.2226906 0.2607,0.3105556 C 9.06971,3.8499853 9.1437469,3.95 9.1596016,3.984375 c 0.015854,0.034375 0.056588,0.1046875 0.090518,0.15625 0.033931,0.051563 0.071729,0.1148438 0.083997,0.140625 0.012268,0.025781 0.061642,0.1051644 0.1097191,0.1764069 0.048078,0.071243 0.087414,0.1373347 0.087414,0.1468709 0,0.00954 0.040745,0.07781 0.090545,0.1517181 0.0498,0.073908 0.1461566,0.2398478 0.2141256,0.3687541 0.067969,0.1289062 0.1942157,0.3679687 0.2805487,0.53125 0.343591,0.6498353 0.496351,0.9439856 0.754645,1.453125 0.14823,0.2921875 0.277572,0.5382812 0.287427,0.546875 C 11.223207,7.7126428 11.5,8.3961766 11.5,8.4994712 c 0,0.020877 0.01978,0.082271 0.04396,0.136431 0.02418,0.05416 0.05298,0.1969103 0.06401,0.3172228 0.01103,0.1203125 0.02996,0.2890625 0.04207,0.375 0.01212,0.085937 0.0118,0.2335938 -7e-4,0.328125 -0.0125,0.094531 -0.0308,0.25625 -0.04066,0.359375 -0.03105,0.324547 -0.19242,0.819715 -0.38191,1.171875 -0.196107,0.364459 -0.20144,0.37316 -0.285203,0.465359 -0.04073,0.04483 -0.110469,0.130735 -0.154974,0.190891 -0.09906,0.133894 -0.399597,0.437354 -0.433676,0.43789 -0.01364,2.18e-4 -0.08282,0.05429 -0.153733,0.12017 -0.07092,0.06588 -0.148261,0.129546 -0.171875,0.141481 -0.02361,0.01193 -0.1273096,0.0693 -0.2304346,0.127488 -0.330551,0.186499 -0.5584938,0.283799 -0.765625,0.326814 -0.060156,0.01249 -0.1375,0.03757 -0.171875,0.05573 -0.05364,0.02833 -0.2182753,0.05188 -0.828125,0.118452 -0.060156,0.0066 -0.2851563,-0.01188 -0.5,-0.041 z m 0.8216266,-0.758391 c 0.1511134,-0.01853 0.3128322,-0.05356 0.359375,-0.07784 0.046543,-0.02428 0.1164584,-0.04423 0.1553681,-0.04434 0.066704,-1.88e-4 0.2208766,-0.06815 0.5876966,-0.259107 0.087143,-0.04536 0.2111909,-0.132228 0.2756628,-0.193032 0.064471,-0.06081 0.1279525,-0.110554 0.1410687,-0.110554 0.02583,0 0.3154522,-0.29759 0.3154522,-0.324131 0,-0.0089 0.04831,-0.06887 0.107349,-0.133319 0.05904,-0.06445 0.146673,-0.195308 0.194734,-0.290801 0.04806,-0.09549 0.10127,-0.192836 0.11824,-0.216317 0.07834,-0.108392 0.196619,-0.513426 0.243057,-0.832307 0.06288,-0.4318297 0.03424,-0.8149481 -0.09112,-1.21875 -0.07591,-0.2445334 -0.455811,-1.0532322 -0.5332,-1.1350447 -0.02149,-0.022712 -0.03906,-0.067243 -0.03906,-0.098958 0,-0.031715 -0.01194,-0.062351 -0.02653,-0.06808 C 10.146383,7.3640625 10.074859,7.2398438 10.002031,7.09375 9.9292031,6.9476562 9.8024653,6.7015625 9.7203916,6.546875 9.6383178,6.3921875 9.4742947,6.0757813 9.3558956,5.84375 9.2374969,5.6117187 9.1038503,5.365625 9.0589038,5.296875 9.0139569,5.228125 8.9436444,5.1128644 8.9026538,5.0407403 8.7238259,4.7260891 8.4615941,4.3157128 8.3826241,4.2269272 8.3354622,4.1739031 8.2265625,4.0447294 8.140625,3.939875 L 7.984375,3.74923 7.9269472,3.8199275 C 7.8953619,3.8588113 7.8215337,3.9445056 7.7628847,4.0103597 7.7042356,4.0762137 7.65625,4.1354944 7.65625,4.1420947 c 0,0.0066 -0.041012,0.053955 -0.091138,0.1052334 -0.050126,0.051278 -0.1002922,0.1220753 -0.111481,0.1573272 -0.011188,0.035252 -0.033457,0.064095 -0.049487,0.064095 -0.016029,0 -0.029144,0.013055 -0.029144,0.02901 0,0.015956 -0.049966,0.1108775 -0.1110353,0.2109375 C 7.2028953,4.8087578 7.1360984,4.91875 7.1155272,4.953125 7.0949559,4.9875 7.0373278,5.0789062 6.9874644,5.15625 6.9376012,5.2335937 6.7948534,5.49375 6.6702472,5.734375 6.5456409,5.975 6.4073231,6.2351562 6.3628744,6.3125 6.3184254,6.389844 6.2738304,6.4742188 6.2637744,6.5 6.2537184,6.525781 6.2332464,6.567969 6.2182814,6.59375 6.2033164,6.619531 6.1318964,6.7601562 6.0595707,6.90625 5.9872447,7.0523438 5.9180242,7.1789062 5.9057467,7.1875 5.8934697,7.19609 5.8726017,7.238281 5.8593747,7.28125 5.8461477,7.324219 5.8265817,7.366406 5.8158947,7.375 5.7593057,7.420504 5.2722469,8.4577809 5.20694,8.671875 c -0.164389,0.5389109 -0.1646578,1.0739025 -8.156e-4,1.625 0.099792,0.33566 0.3158844,0.762585 0.4970016,0.981905 0.1029496,0.124664 0.4001918,0.41784 0.5252809,0.518095 0.2053237,0.16456 0.7609006,0.453125 0.8724062,0.453125 0.033889,0 0.10593,0.02067 0.16009,0.04594 0.2071691,0.09665 0.6655541,0.128735 1.0919744,0.07644 z"
       id="path819"
       inkscape:connector-curvature="0" />
  </g>
</svg>
