<?xml version="1.0" encoding="UTF-8" standalone="no"?>
<!-- Created with Inkscape (http://www.inkscape.org/) -->

<svg
   version="1.1"
   id="svg2"
   width="1600"
   height="1600"
   viewBox="0 0 1600 1600"
   sodipodi:docname="node_sdfgridmean_curvature.svg"
   inkscape:version="1.4 (86a8ad7, 2024-10-11)"
   inkscape:export-filename="VOLUME_CUBE.png"
   inkscape:export-xdpi="3072"
   inkscape:export-ydpi="3072"
   xml:space="preserve"
   xmlns:inkscape="http://www.inkscape.org/namespaces/inkscape"
   xmlns:sodipodi="http://sodipodi.sourceforge.net/DTD/sodipodi-0.dtd"
   xmlns="http://www.w3.org/2000/svg"
   xmlns:svg="http://www.w3.org/2000/svg"
   xmlns:rdf="http://www.w3.org/1999/02/22-rdf-syntax-ns#"
   xmlns:cc="http://creativecommons.org/ns#"
   xmlns:dc="http://purl.org/dc/elements/1.1/"><metadata
     id="metadata8"><rdf:RDF><cc:Work
         rdf:about=""><dc:format>image/svg+xml</dc:format><dc:type
           rdf:resource="http://purl.org/dc/dcmitype/StillImage" /></cc:Work></rdf:RDF></metadata><defs
     id="defs6" /><sodipodi:namedview
     pagecolor="#808080"
     bordercolor="#666666"
     borderopacity="1"
     objecttolerance="10"
     gridtolerance="10"
     guidetolerance="10"
     inkscape:pageopacity="0"
     inkscape:pageshadow="2"
     inkscape:window-width="2560"
     inkscape:window-height="1009"
     id="namedview4"
     showgrid="true"
     inkscape:zoom="0.32593203"
     inkscape:cx="872.88138"
     inkscape:cy="920.43731"
     inkscape:window-x="1912"
     inkscape:window-y="-8"
     inkscape:window-maximized="1"
     inkscape:current-layer="MESH_CUBE"
     inkscape:showpageshadow="0"
     inkscape:pagecheckerboard="1"
     inkscape:deskcolor="#d1d1d1"><inkscape:grid
       type="xygrid"
       id="grid10683"
       originx="0"
       originy="0"
       spacingy="100"
       spacingx="100"
       units="px" /></sodipodi:namedview><g
     id="MESH_CUBE"
     transform="matrix(100,0,0,100,0,4.9999997e-5)"
     style="display:inline;stroke-width:0.0114286;enable-background:new"
     inkscape:label="VOLUME_CUBE"><g
       id="g3"
       transform="translate(-1.3593052,-1.3246788)"
       inkscape:label="Grid"
       style="display:inline;stroke-width:0.0114286;enable-background:new"><path
         id="rect1"
         style="baseline-shift:baseline;display:inline;overflow:visible;vector-effect:none;fill:#323232;stroke-linecap:round;stroke-linejoin:round;paint-order:markers stroke fill;enable-background:accumulate;stop-color:#000000;stop-opacity:1"
         d="M 4.1230891,2.3199999 H 14.516912 c 0.998911,0 1.803088,0.8041776 1.803088,1.8030887 V 14.516911 C 16.32,15.515822 15.515823,16.32 14.516912,16.32 H 4.1230891 C 3.124178,16.32 2.3200004,15.515822 2.3200004,14.516911 V 4.1230886 c 0,-0.9989111 0.8041776,-1.8030887 1.8030887,-1.8030887 z" /><g
         id="rect2-2-5-7"
         transform="matrix(1.0716036,0,0,1.0716036,-0.77860787,-0.66768013)"
         style="stroke-width:0.0106649"><path
           style="fill:#cb6500;stroke-width:0.0106649;stroke-linecap:round;stroke-linejoin:round;paint-order:markers stroke fill"
           d="m 4.953125,3.3203125 c -0.8957377,0 -1.6328125,0.7370748 -1.6328125,1.6328125 V 7.6875 c 0,0.8957377 0.7370748,1.6328125 1.6328125,1.6328125 h 2.8398437 c 0.8957378,0 1.6308594,-0.7370748 1.6308594,-1.6328125 V 4.953125 c 0,-0.8957377 -0.7351216,-1.6328125 -1.6308594,-1.6328125 z m 0,1 h 2.8398437 c 0.3590371,0 0.6308594,0.2737753 0.6308594,0.6328125 V 7.6875 c 0,0.3590372 -0.2718223,0.6328125 -0.6308594,0.6328125 H 4.953125 C 4.5940879,8.3203125 4.3203125,8.0465372 4.3203125,7.6875 V 4.953125 c 0,-0.3590372 0.2737754,-0.6328125 0.6328125,-0.6328125 z"
           id="path10" /><path
           style="fill:#fefe00;fill-opacity:1;stroke-width:0.0106649;stroke-linecap:round;stroke-linejoin:round;paint-order:markers stroke fill"
           d="m 4.9524665,3.8199978 h 2.8396153 c 0.6273874,0 1.1324683,0.5050809 1.1324683,1.1324683 v 2.7350672 c 0,0.6273874 -0.5050809,1.1324683 -1.1324683,1.1324683 H 4.9524665 c -0.6273874,0 -1.1324682,-0.5050809 -1.1324682,-1.1324683 V 4.9524661 c 0,-0.6273874 0.5050808,-1.1324683 1.1324682,-1.1324683 z"
           id="path11" /></g><g
         id="rect2-2-5-7-2"
         transform="matrix(1.0716036,0,0,1.0716036,-0.61860782,-0.66768013)"
         style="stroke-width:0.0106649"><path
           style="fill:#cb6500;stroke-width:0.0106649;stroke-linecap:round;stroke-linejoin:round;paint-order:markers stroke fill"
           d="m 10.900391,3.3203125 c -0.895738,0 -1.6328129,0.7370748 -1.6328129,1.6328125 V 7.6875 c 0,0.8957377 0.7370749,1.6328125 1.6328129,1.6328125 h 2.839843 c 0.895738,0 1.632813,-0.7370748 1.632813,-1.6328125 V 4.953125 c 0,-0.8957377 -0.737075,-1.6328125 -1.632813,-1.6328125 z m 0,1 h 2.839843 c 0.359037,0 0.632813,0.2737753 0.632813,0.6328125 V 7.6875 c 0,0.3590372 -0.273776,0.6328125 -0.632813,0.6328125 h -2.839843 c -0.359037,0 -0.632813,-0.2737753 -0.632813,-0.6328125 V 4.953125 c 0,-0.3590372 0.273776,-0.6328125 0.632813,-0.6328125 z"
           id="path8" /><path
           style="fill:#fecb32;stroke-width:0.0106649;stroke-linecap:round;stroke-linejoin:round;paint-order:markers stroke fill"
           d="m 10.900192,3.8199978 h 2.839616 c 0.627387,0 1.132468,0.5050809 1.132468,1.1324683 v 2.7350672 c 0,0.6273874 -0.505081,1.1324683 -1.132468,1.1324683 h -2.839616 c -0.627387,0 -1.132468,-0.5050809 -1.132468,-1.1324683 V 4.9524661 c 0,-0.6273874 0.505081,-1.1324683 1.132468,-1.1324683 z"
           id="path9" /></g><g
         id="rect2-2-5-7-2-7"
         transform="matrix(1.0716036,0,0,1.0716036,-0.61860782,-0.66768013)"
         style="stroke-width:0.0106649"><path
           style="fill:#cb6500;stroke-width:0.0106649;stroke-linecap:round;stroke-linejoin:round;paint-order:markers stroke fill"
           d="m 10.900391,9.3203125 c -0.895738,0 -1.6328129,0.7370745 -1.6328129,1.6328125 V 13.6875 c 0,0.895738 0.7370749,1.632812 1.6328129,1.632813 h 2.839843 c 0.895738,0 1.632813,-0.737075 1.632813,-1.632813 v -2.734375 c 0,-0.895738 -0.737075,-1.6328125 -1.632813,-1.6328125 z m 0,1.0000005 h 2.839843 c 0.359037,0 0.632813,0.273775 0.632813,0.632812 V 13.6875 c 0,0.359037 -0.273776,0.632813 -0.632813,0.632813 h -2.839843 c -0.359037,0 -0.632813,-0.273776 -0.632813,-0.632813 v -2.734375 c 0,-0.359037 0.273776,-0.632813 0.632813,-0.632812 z"
           id="path6" /><path
           style="fill:#fecb32;stroke-width:0.0106649;stroke-linecap:round;stroke-linejoin:round;paint-order:markers stroke fill"
           d="m 10.900192,9.8199978 h 2.839616 c 0.627387,0 1.132468,0.5050812 1.132468,1.1324682 v 2.735067 c 0,0.627388 -0.505081,1.132469 -1.132468,1.132469 h -2.839616 c -0.627387,0 -1.132468,-0.505081 -1.132468,-1.132469 v -2.735067 c 0,-0.627387 0.505081,-1.1324682 1.132468,-1.1324682 z"
           id="path7" /></g><g
         id="rect2-2-5-7-2-7-9"
         transform="matrix(1.0716036,0,0,1.0716036,-0.64256442,-0.66768013)"
         style="stroke-width:0.0106649"><path
           style="fill:#cb6500;stroke-width:0.0106649;stroke-linecap:round;stroke-linejoin:round;paint-order:markers stroke fill"
           d="m 4.8242187,9.3203125 c -0.8957377,0 -1.6308593,0.7370745 -1.6308593,1.6328125 V 13.6875 c 0,0.895738 0.7351216,1.632812 1.6308593,1.632813 h 2.8398438 c 0.8957377,0 1.6328125,-0.737075 1.6328125,-1.632813 v -2.734375 c 0,-0.895738 -0.7370748,-1.6328125 -1.6328125,-1.6328125 z m 0,1.0000005 h 2.8398438 c 0.3590371,0 0.6328125,0.273775 0.6328125,0.632812 V 13.6875 c 0,0.359037 -0.2737754,0.632813 -0.6328125,0.632813 H 4.8242187 c -0.359037,0 -0.6308593,-0.273776 -0.6308593,-0.632813 v -2.734375 c 0,-0.359037 0.2718223,-0.632813 0.6308593,-0.632812 z"
           id="path4" /><path
           style="fill:#fecb32;stroke-width:0.0106649;stroke-linecap:round;stroke-linejoin:round;paint-order:markers stroke fill"
           d="m 4.8250043,9.8199978 h 2.8396154 c 0.6273874,0 1.1324682,0.5050812 1.1324682,1.1324682 v 2.735067 c 0,0.627388 -0.5050808,1.132469 -1.1324682,1.132469 H 4.8250043 c -0.6273874,0 -1.1324682,-0.505081 -1.1324682,-1.132469 v -2.735067 c 0,-0.627387 0.5050808,-1.1324682 1.1324682,-1.1324682 z"
           id="path5" /></g></g><path
       inkscape:connector-curvature="0"
       id="path827-666"
       d="M 0,8 V 0 h 8 8 v 8 8 H 8 0 Z m 11.326467,6.00029 c 3.319702,-1.106746 3.322552,-1.107867 3.51104,-1.381855 0.206207,-0.299746 0.193743,-0.0036 0.193743,-4.60281 0,-4.5991825 0.01246,-4.3030644 -0.193743,-4.60281 C 14.649019,3.1388275 14.646169,3.1377059 11.326467,2.0309595 8.4439647,1.0699703 8.2195475,1.0000958 8.015625,1.0000958 c -0.2039225,0 -0.4283397,0.069875 -3.3108416,1.0308637 C 1.3850808,3.1377059 1.3822313,3.1388275 1.1937435,3.412815 0.98753566,3.7125606 1,3.4164425 1,8.015625 c 0,4.599183 -0.0124643,4.303064 0.1937435,4.60281 0.1884878,0.273988 0.1913373,0.275109 3.5110399,1.381855 2.8825019,0.96099 3.1069191,1.030864 3.3108416,1.030864 0.2039225,0 0.4283397,-0.06987 3.310842,-1.030864 z"
       style="fill:#ffffff;fill-opacity:0;stroke-width:0.000357143" /><g
       id="POINT_OF_CURVE"
       style="stroke-width:0.0114286"
       transform="rotate(90,7.9623041,7.7050038)"><path
         style="fill:none;stroke-width:0.000357143"
         d="M 8,16 H 0 V 8 0 h 8 8 v 8 8 z m -4.015625,-2.003027 0.21875,0.0019 0.21875,-0.04577 0.21875,-0.04577 0.2645672,-0.130424 0.2645672,-0.130424 0.2383847,-0.238384 0.2383843,-0.238385 0.1304238,-0.264567 0.1304234,-0.264567 0.04577,-0.21875 0.045769,-0.21875 v -0.203125 -0.203125 l -0.045769,-0.21875 -0.04577,-0.21875 L 5.7769522,11.094807 5.6465284,10.83024 5.4081441,10.591855 5.1697594,10.353471 4.9051922,10.223047 4.640625,10.092623 4.421875,10.046854 4.203125,10.001084 H 4 3.796875 l -0.21875,0.04577 -0.21875,0.04577 -0.2645672,0.130424 -0.2645672,0.130424 -0.2383845,0.238384 -0.2383845,0.238385 -0.1304237,0.264567 -0.1304236,0.264567 -0.04577,0.21875 -0.04577,0.21875 V 12 12.203125 l 0.04577,0.21875 0.04577,0.21875 0.1304236,0.264567 0.1304237,0.264567 0.2383845,0.238385 0.2383845,0.238384 0.2645672,0.130626 0.2645672,0.130625 0.203125,0.04363 0.203125,0.04363 0.21875,0.0019 z m 9,-0.125 0.21875,0.0019 0.21875,-0.04577 0.21875,-0.04577 0.264567,-0.130424 0.264567,-0.130424 0.238385,-0.238384 0.238384,-0.238385 0.130424,-0.264567 0.130424,-0.264567 0.04577,-0.21875 0.04577,-0.21875 v -0.203125 -0.203125 l -0.04577,-0.21875 -0.04577,-0.21875 -0.130424,-0.264567 -0.130424,-0.264567 -0.245139,-0.24514 -0.245139,-0.245139 -3.31e-4,-0.08404 -3.31e-4,-0.08404 L 14.094926,9.6539072 14.034264,9.26094 13.966969,8.9351572 13.899674,8.6093741 13.778851,8.1874991 13.658028,7.7656241 13.516019,7.3794831 13.374009,6.9933422 13.214054,6.6491306 13.054099,6.3049187 12.91389,6.0508966 12.773682,5.796875 12.582154,5.5000878 12.390625,5.2033006 12.143159,4.8907128 11.895694,4.578125 11.518159,4.2018794 11.140625,3.8256338 10.903642,3.6393794 10.666658,3.453125 10.583923,3.390625 10.501187,3.328125 10.454311,3.09375 10.407435,2.859375 10.276982,2.5948078 10.146528,2.3302406 9.9081441,2.0918561 9.6697594,1.8534716 9.4051922,1.7230479 9.140625,1.5926243 8.921875,1.5468548 8.703125,1.5010852 H 8.5 8.296875 l -0.21875,0.04577 -0.21875,0.04577 L 7.5948078,1.7230479 7.3302406,1.8534716 7.0918559,2.0918561 6.8534716,2.3302406 6.7230478,2.5948078 6.5926244,2.859375 l -0.04577,0.21875 -0.045769,0.21875 V 3.5 3.703125 l 0.045769,0.21875 0.04577,0.21875 0.1304234,0.2645672 0.1304238,0.2645672 0.2383843,0.2383847 0.2383847,0.2383843 0.2645672,0.1304238 0.2645672,0.1304234 0.21875,0.04577 0.21875,0.045769 0.1849403,5.437e-4 0.18494,5.438e-4 0.1966538,-0.034246 0.1966534,-0.034246 0.1027812,0.071365 0.1027813,0.071365 0.2472481,0.2041729 0.2472478,0.2041731 0.2292707,0.2754662 0.2292704,0.2754663 0.186427,0.2772562 0.186427,0.2772563 0.156209,0.2923544 0.156208,0.2923543 0.140097,0.33439 0.140097,0.33439 0.09431,0.3058035 0.09431,0.3058031 0.07923,0.3355662 0.07923,0.3355663 0.06183,0.3789621 0.06183,0.378962 -0.157516,0.176097 -0.157515,0.176096 -0.123596,0.25 -0.123597,0.25 -0.04577,0.21875 -0.04577,0.21875 v 0.203125 0.203125 l 0.04577,0.21875 0.04577,0.21875 0.130424,0.264567 0.130424,0.264568 0.238384,0.238384 0.238385,0.238385 0.264567,0.130625 0.264567,0.130625 0.203125,0.04363 0.203125,0.04362 0.21875,0.0019 z"
         id="path303" /><path
         style="fill:#fefe00;stroke-width:0.000357143"
         d="m 14.215446,11.556059 -0.09375,-0.0019 -0.194917,-0.04235 -0.194917,-0.04235 -0.194831,-0.103606 -0.194831,-0.103606 -0.161294,-0.161096 -0.161294,-0.161096 -0.109829,-0.219536 -0.10983,-0.219536 -0.03726,-0.22093 -0.03726,-0.220932 0.03726,-0.2209301 0.03726,-0.2209308 0.109828,-0.219536 0.109829,-0.219535 0.165263,-0.165264 0.165264,-0.165263 0.219535,-0.109829 0.219536,-0.109829 0.220931,-0.03726 0.22093,-0.03726 0.22093,0.03726 0.220931,0.03726 0.219536,0.109829 0.219536,0.109829 0.165263,0.165263 0.165263,0.165264 0.109829,0.219535 0.109829,0.219536 0.03726,0.2209308 0.03726,0.2209301 -0.03726,0.22093 -0.03726,0.220931 -0.109829,0.219536 -0.109829,0.219536 -0.161294,0.161096 -0.161294,0.161096 -0.193817,0.103065 -0.193816,0.103065 -0.211556,0.04483 -0.211556,0.04483 -0.09375,-0.0019 z M 9.7154455,3.1810592 9.6216955,3.1791192 9.4267786,3.1367714 9.2318614,3.0944239 9.0370305,2.9908183 8.8421992,2.8872124 8.6809055,2.7261161 8.5196117,2.5650199 8.4097824,2.3454839 8.299953,2.125948 8.2626883,1.9050177 8.2254236,1.6840861 8.2626883,1.4631558 8.299953,1.2422256 8.4097824,1.0226896 8.5196117,0.8031535 8.6848749,0.63789042 8.850138,0.47262732 l 0.2195359,-0.1098294 0.219536,-0.1098293 0.2209303,-0.0372648 0.2209303,-0.0372647 0.22093,0.037265 0.2209305,0.037265 0.219536,0.1098293 0.219535,0.1098294 0.165265,0.1652631 0.165262,0.16526308 0.109829,0.2195361 0.109829,0.219536 0.03726,0.2209302 0.03726,0.2209298 -0.03726,0.2209303 -0.03726,0.2209303 -0.109829,0.219536 -0.109829,0.2195359 -0.161294,0.1610962 -0.161294,0.1610963 -0.193816,0.103065 -0.193816,0.1030653 -0.211556,0.04483 -0.2115575,0.04483 -0.09375,-0.00194 z"
         id="path299" /><path
         style="fill:#fe9832;stroke-width:0.000357143"
         d="m 13.412664,8.2296691 -0.05278,0.02214 L 13.339504,8.1320105 13.319124,8.0122111 13.240787,7.621718 13.162449,7.2312252 13.054151,6.856093 12.945854,6.4809611 12.803635,6.1215861 12.661417,5.7622111 12.487991,5.4214748 12.314565,5.0807386 12.106544,4.7652248 11.898523,4.4497111 11.663314,4.1684611 11.428105,3.8872111 11.259275,3.7299086 11.090446,3.5726061 10.958781,3.4677886 10.827117,3.3629708 l 0.13595,-0.103806 0.135949,-0.1038056 0.142935,-0.1633947 0.142932,-0.1633947 0.100494,-0.1885456 0.100494,-0.1885459 0.05139,-0.1661019 0.05139,-0.1661022 0.343988,0.29399 0.343989,0.29399 0.259052,0.2931035 0.259052,0.2931034 0.191604,0.25567 0.191603,0.2556703 0.195921,0.3145019 0.195921,0.3145019 0.198359,0.3985781 0.198359,0.3985778 0.110177,0.28125 0.110177,0.28125 0.09958,0.296875 0.09958,0.296875 0.107016,0.4158556 0.107016,0.415856 0.07849,0.4560565 0.07849,0.4560566 -0.0083,0.00757 -0.0083,0.00757 -0.21875,-0.046537 -0.21875,-0.046538 -0.28125,0.016323 -0.28125,0.016323 -0.1875,0.060895 -0.1875,0.060895 z"
         id="path297" /><path
         style="fill:#320000;stroke-width:0.000357143"
         d="m 14.215446,12.056059 -0.21875,-0.0019 -0.203125,-0.04363 -0.203125,-0.04363 -0.264567,-0.130625 -0.264567,-0.130625 -0.238385,-0.238385 -0.238384,-0.238384 -0.130424,-0.264568 -0.130424,-0.264567 -0.04577,-0.21875 -0.04577,-0.21875 V 10.05912 9.8559949 l 0.04577,-0.2187498 0.04577,-0.21875 0.123597,-0.25 0.123596,-0.25 0.157515,-0.176096 0.157516,-0.176097 -0.06183,-0.378962 -0.06183,-0.3789623 -0.07923,-0.3355662 -0.07923,-0.3355662 -0.09431,-0.3058032 -0.09431,-0.3058034 -0.140098,-0.33439 -0.140097,-0.33439 L 11.978796,5.5644714 11.822587,5.272117 11.63616,4.9948608 11.449733,4.7176045 11.220463,4.4421383 10.991192,4.166672 10.743944,3.9624989 10.496696,3.7583261 l -0.102781,-0.071365 -0.102782,-0.071365 -0.196653,0.034246 -0.1966545,0.034246 -0.18494,-5.437e-4 -0.18494,-5.438e-4 -0.21875,-0.045769 -0.21875,-0.04577 L 8.8258783,3.4610373 8.5613111,3.3306136 8.3229264,3.0922292 8.0845421,2.8538445 7.9541183,2.5892773 7.8236949,2.3247102 l -0.04577,-0.21875 -0.045769,-0.21875 v -0.203125 -0.203125 l 0.045769,-0.21875 0.04577,-0.21875 0.1304234,-0.26456728 0.1304238,-0.2645672 0.2383843,-0.2383845 0.2383847,-0.2383845 0.2645672,-0.1304236 0.2645672,-0.1304237 0.21875,-0.04577 0.21875,-0.04577 h 0.203125 0.203125 l 0.2187505,0.04577 0.21875,0.04577 0.264567,0.1304237 0.264567,0.1304236 0.238385,0.2383845 0.238384,0.2383845 0.130454,0.2645672 0.130452,0.26456728 0.04688,0.234375 0.04688,0.234375 0.08274,0.0625 0.08273,0.0625 0.236984,0.1862543 0.236983,0.1862544 0.377534,0.3762456 0.377535,0.3762457 0.247465,0.3125878 0.247466,0.3125878 0.191529,0.2967872 0.191528,0.2967872 0.140209,0.2540225 0.140209,0.2540221 0.159955,0.3442119 0.159955,0.3442116 0.142009,0.3861409 0.14201,0.386141 0.120823,0.421875 0.120823,0.421875 0.06729,0.3257831 0.06729,0.3257828 0.06066,0.3929672 0.06066,0.3929668 3.31e-4,0.08404 3.32e-4,0.08404 0.245139,0.245139 0.24514,0.24514 0.130423,0.264567 0.130424,0.264567 0.04577,0.21875 0.04577,0.2187498 v 0.2031251 0.203125 l -0.04577,0.21875 -0.04577,0.21875 -0.130424,0.264567 -0.130423,0.264567 -0.238384,0.238385 -0.238385,0.238385 -0.264567,0.130423 -0.264567,0.130424 -0.21875,0.04577 -0.21875,0.04577 -0.21875,-0.0019 z m 0,-0.5 0.09375,0.0019 0.211557,-0.04483 0.211556,-0.04483 0.193816,-0.103065 0.193816,-0.103065 0.161294,-0.161096 0.161294,-0.161096 0.109829,-0.219536 0.10983,-0.219536 0.03726,-0.220931 0.03726,-0.22093 -0.03726,-0.2209301 -0.03726,-0.2209308 -0.10983,-0.219536 -0.109829,-0.219494 -0.165262,-0.165264 -0.165263,-0.165263 -0.219536,-0.109829 -0.219536,-0.109829 -0.220931,-0.037265 -0.22093,-0.037264 -0.22093,0.03726 -0.220931,0.03726 -0.219536,0.109829 -0.219535,0.109829 -0.165264,0.165263 -0.165263,0.165264 -0.109829,0.219535 -0.109829,0.219536 -0.03726,0.2209308 -0.03726,0.2209301 0.03726,0.22093 0.03726,0.220931 0.109829,0.219536 0.109829,0.219536 0.161294,0.161096 0.161294,0.161096 0.194831,0.103606 0.194831,0.103606 0.194917,0.04235 0.194917,0.04235 0.09375,0.0019 z m -0.802782,-3.3263899 0.05278,-0.02214 0.1875,-0.060895 0.1875,-0.060895 0.28125,-0.016323 0.28125,-0.016323 0.21875,0.046538 0.21875,0.046537 0.0083,-0.00757 0.0083,-0.00757 -0.0785,-0.4560489 -0.07849,-0.4560565 -0.107016,-0.415856 -0.107016,-0.4158556 -0.09958,-0.296875 -0.09958,-0.296875 -0.110177,-0.28125 -0.110177,-0.28125 L 13.868147,4.8323833 13.669788,4.4338052 13.473867,4.1193033 13.277946,3.8048014 13.086343,3.5491311 12.894739,3.2934611 12.635687,3.0003577 12.376635,2.7072542 l -0.343989,-0.29399 -0.343988,-0.29399 -0.05139,0.1661022 -0.05139,0.1661019 -0.100494,0.1885459 -0.100494,0.1885456 -0.142933,0.1633947 -0.142934,0.1633947 -0.13595,0.1038056 -0.13595,0.103806 0.131664,0.1048178 0.131665,0.1048175 0.168829,0.1573025 0.16883,0.1573025 0.235209,0.28125 0.235209,0.28125 0.208021,0.3155137 0.208021,0.3155138 0.173426,0.3407362 0.173426,0.3407363 0.142218,0.359375 0.142219,0.359375 0.108297,0.3751319 0.108298,0.3751322 0.07834,0.3904928 0.07834,0.3904931 0.02038,0.1197994 0.02038,0.1197996 z m -3.6972185,-5.0486099 0.09375,0.00194 0.2115575,-0.04483 0.211556,-0.04483 0.193816,-0.103064 0.193816,-0.103065 0.161294,-0.1610963 0.161294,-0.1610962 0.109829,-0.219536 0.109829,-0.2195359 0.03726,-0.2209303 0.03726,-0.2209303 L 11.199447,1.4631548 11.162187,1.2422247 11.052358,1.0226886 10.942529,0.8031526 10.777267,0.63788952 10.612002,0.47262642 10.392467,0.36279702 10.172931,0.25296762 9.9520005,0.21570292 9.7310705,0.17843912 9.5101402,0.21570392 9.2892099,0.25296862 9.0696739,0.36279792 8.850138,0.47262732 8.6848749,0.63789042 8.5196117,0.8031535 8.4097824,1.0226896 8.299953,1.2422256 8.262688,1.4631558 8.225423,1.6840861 l 0.037265,0.2209303 0.037265,0.2209303 0.1098294,0.219536 0.1098293,0.2195359 0.1612938,0.1610963 0.1612938,0.1610962 0.1948312,0.1036059 0.1948309,0.1036057 0.1949172,0.042347 0.1949169,0.042347 0.09375,0.00194 z"
         id="path295" /></g></g></svg>
