<?xml version="1.0" encoding="UTF-8" standalone="no"?>
<!-- Created with Inkscape (http://www.inkscape.org/) -->

<svg
   version="1.1"
   id="svg2"
   width="1600"
   height="1600"
   viewBox="0 0 1600 1600"
   sodipodi:docname="volume_coefficients.svg"
   inkscape:version="1.4 (86a8ad7, 2024-10-11)"
   xml:space="preserve"
   xmlns:inkscape="http://www.inkscape.org/namespaces/inkscape"
   xmlns:sodipodi="http://sodipodi.sourceforge.net/DTD/sodipodi-0.dtd"
   xmlns="http://www.w3.org/2000/svg"
   xmlns:svg="http://www.w3.org/2000/svg"><defs
     id="defs6" /><sodipodi:namedview
     id="namedview4"
     pagecolor="#808080"
     bordercolor="#000000"
     borderopacity="0.25"
     inkscape:showpageshadow="2"
     inkscape:pageopacity="0"
     inkscape:pagecheckerboard="true"
     inkscape:deskcolor="#d1d1d1"
     showgrid="false"
     inkscape:zoom="0.35355339"
     inkscape:cx="731.14841"
     inkscape:cy="732.56262"
     inkscape:window-width="2560"
     inkscape:window-height="1009"
     inkscape:window-x="-8"
     inkscape:window-y="-8"
     inkscape:window-maximized="1"
     inkscape:current-layer="g8" /><g
     inkscape:groupmode="layer"
     inkscape:label="volume_coefficients"
     id="g8"
     transform="matrix(100,0,0,100,-10000,168400)"
     style="stroke-width:0.01"><g
       id="NODE_VOLUME_INFO"
       transform="translate(99.990162,-1683.9981)"
       style="stroke-width:0.0114286"><circle
         style="fill:#323232;fill-opacity:1;stroke:none;stroke-width:1;stroke-linecap:round;stroke-linejoin:round;stroke-dasharray:none;stroke-opacity:1;paint-order:markers stroke fill"
         id="path13"
         cx="8.0049191"
         cy="7.9931812"
         r="7.9950809" /><path
         style="fill:none;stroke-width:0.000357143"
         d="M 0,8 V 0 h 8 8 v 8 8 H 8 0 Z m 9.234375,7.409887 c 1.307585,-0.224235 2.458183,-0.736795 3.453076,-1.538252 0.385636,-0.310656 1.050687,-0.995119 1.332897,-1.3718 0.733654,-0.979249 1.199262,-2.090798 1.407115,-3.35921 0.0802,-0.4894316 0.0802,-1.7918184 0,-2.28125 C 15.21961,5.5909634 14.754002,4.4794141 14.020348,3.5001647 13.738138,3.1234842 13.073087,2.4390213 12.687451,2.1283649 11.673813,1.3118082 10.494122,0.79433234 9.140625,0.57253706 c -0.4894316,-0.0802023 -1.7918184,-0.0802023 -2.28125,0 C 5.5058784,0.79433234 4.3261869,1.3118082 3.3125488,2.1283649 2.9269135,2.4390213 2.2618616,3.1234842 1.9796525,3.5001647 1.2459985,4.4794141 0.78038959,5.5909634 0.57253706,6.859375 c -0.0802023,0.4894316 -0.0802023,1.7918184 0,2.28125 0.22179528,1.353497 0.73927114,2.533188 1.55582784,3.546826 0.3106564,0.385636 0.9951193,1.050687 1.3717998,1.332897 1.0955928,0.820818 2.3782881,1.314176 3.7967103,1.460315 0.06875,0.0071 0.4484375,0.0085 0.84375,0.0032 0.5478163,-0.0074 0.8079328,-0.02497 1.09375,-0.07398 z"
         id="path823"
         inkscape:connector-curvature="0" /><path
         style="fill:#fefefe;stroke-width:0.000357143"
         d="M 7.296875,15.480663 C 5.8784528,15.334524 4.5957575,14.841166 3.5001647,14.020348 3.1234842,13.738138 2.4390213,13.073087 2.1283649,12.687451 1.3118082,11.673813 0.79433234,10.494122 0.57253706,9.140625 c -0.0802023,-0.4894316 -0.0802023,-1.7918184 0,-2.28125 C 0.78038959,5.5909634 1.2459985,4.4794141 1.9796525,3.5001647 2.2618616,3.1234842 2.9269135,2.4390213 3.3125488,2.1283649 4.3261869,1.3118082 5.5058784,0.79433234 6.859375,0.57253706 c 0.4894316,-0.0802023 1.7918184,-0.0802023 2.28125,0 1.353497,0.22179528 2.533188,0.73927114 3.546826,1.55582784 0.385636,0.3106564 1.050687,0.9951193 1.332897,1.3717998 0.733654,0.9792494 1.199262,2.0907987 1.407115,3.3592103 0.0802,0.4894316 0.0802,1.7918184 0,2.28125 -0.207853,1.268412 -0.673461,2.379961 -1.407115,3.35921 -0.28221,0.376681 -0.947261,1.061144 -1.332897,1.3718 -0.994893,0.801457 -2.145491,1.314017 -3.453076,1.538252 -0.2858172,0.04901 -0.5459337,0.06661 -1.09375,0.07398 -0.3953125,0.0053 -0.775,0.0039 -0.84375,-0.0032 z m 2.1050559,-0.587381 c 0.4594457,-0.09832 0.9515081,-0.253659 1.4039511,-0.443215 0.952432,-0.399034 1.956557,-1.154754 2.632573,-1.981317 0.186702,-0.228279 0.59819,-0.840856 0.764013,-1.137377 0.26302,-0.470323 0.551317,-1.277834 0.694587,-1.945518 0.08371,-0.3901216 0.08615,-0.4293297 0.08615,-1.385855 0,-0.9565253 -0.0024,-0.9957334 -0.08615,-1.385855 C 14.795299,6.1399284 14.641135,5.6501678 14.450067,5.1941184 14.051033,4.2416859 13.295313,3.2375609 12.46875,2.5615446 12.240471,2.3748435 11.627894,1.9633551 11.331373,1.7975314 10.86105,1.5345115 10.053539,1.2462151 9.385855,1.102945 8.9957334,1.0192336 8.9565253,1.0167963 8,1.0167963 c -0.9565253,0 -0.9957334,0.00244 -1.385855,0.086149 C 5.9464609,1.2462151 5.1389503,1.5345115 4.6686266,1.7975314 4.3721062,1.9633551 3.7595288,2.3748435 3.53125,2.5615446 2.8777475,3.0960212 2.2510135,3.857725 1.7975314,4.6686266 1.5345115,5.1389503 1.2462151,5.9464609 1.102945,6.614145 1.0192336,7.0042666 1.0167963,7.0434747 1.0167963,8 c 0,0.9565253 0.00244,0.9957334 0.086149,1.385855 0.1017563,0.4742166 0.2559204,0.963977 0.4469882,1.420027 0.3990339,0.952432 1.1547542,1.956557 1.9813168,2.632573 0.2282788,0.186702 0.8408562,0.59819 1.1373766,0.764013 0.4448196,0.248758 1.2688946,0.548118 1.8469984,0.670955 0.5227366,0.111073 0.6850619,0.122398 1.609375,0.112278 0.8237959,-0.009 0.9196119,-0.01595 1.2769309,-0.09242 z"
         id="path821-6"
         inkscape:connector-curvature="0"
         sodipodi:nodetypes="cscssssssssscssccccsssssscssssscssssscsscscss" /><path
         style="fill:#323232;stroke-width:0.000357143"
         d="M 7.03125,14.967638 C 6.2806306,14.864856 5.2647884,14.535861 4.6686266,14.202468 4.3721062,14.036645 3.7595288,13.625157 3.53125,13.438455 2.8777475,12.903979 2.2510135,12.142275 1.7975314,11.331373 1.5345115,10.86105 1.2462151,10.053539 1.102945,9.385855 1.0192336,8.9957334 1.0167963,8.9565253 1.0167963,8 c 0,-0.9565253 0.00244,-0.9957334 0.086149,-1.385855 C 1.2047013,6.1399284 1.3588654,5.6501678 1.5499332,5.1941184 1.9489671,4.2416859 2.7046874,3.2375609 3.53125,2.5615446 3.7595288,2.3748435 4.3721062,1.9633551 4.6686266,1.7975314 5.1389503,1.5345115 5.9464609,1.2462151 6.614145,1.102945 7.0042666,1.0192336 7.0434747,1.0167963 8,1.0167963 c 0.9565253,0 0.9957334,0.00244 1.385855,0.086149 0.667684,0.1432701 1.475195,0.4315665 1.945518,0.6945864 0.296521,0.1658237 0.909098,0.5773121 1.137377,0.7640132 0.653503,0.5344766 1.280237,1.2961804 1.733718,2.107082 0.26302,0.4703237 0.551317,1.2778343 0.694587,1.9455184 0.08371,0.3901216 0.08615,0.4293297 0.08615,1.385855 0,0.9565253 -0.0024,0.9957334 -0.08615,1.385855 -0.14327,0.6676837 -0.431567,1.4751947 -0.694587,1.9455177 -0.165823,0.296521 -0.577311,0.909098 -0.764013,1.137377 -0.534476,0.653503 -1.29618,1.280237 -2.107082,1.733718 -0.46641,0.260832 -1.27798,0.551405 -1.9294421,0.690814 -0.357319,0.07646 -0.453135,0.0834 -1.2769309,0.09242 -0.4898438,0.0054 -0.9820313,-0.0028 -1.09375,-0.01806 z"
         id="path819-1"
         inkscape:connector-curvature="0"
         sodipodi:nodetypes="cscssscssssscssssscssscccc" /></g><path
       style="stroke-width:0.0003125;fill:none"
       d="M 0,8 V 0 h 8 8 v 8 8 H 8 0 Z m 4.0176981,7.467165 c 0.628476,-0.11129 1.154311,-0.386023 1.6088772,-0.84059 0.3214119,-0.321411 0.5793975,-0.717849 0.6961181,-1.0697 0.011751,-0.03542 0.066294,-0.05863 0.1676738,-0.07134 0.9896244,-0.124089 1.8106491,-0.494639 2.5567547,-1.153932 L 9.22001,12.178831 9.5553175,12.504873 c 0.4842035,0.470822 0.9297325,0.725095 1.5906145,0.907799 0.212272,0.05868 0.325432,0.06765 0.854068,0.06765 0.676873,0 0.837035,-0.02859 1.364175,-0.243501 0.43269,-0.176406 0.709052,-0.367509 1.107093,-0.765549 0.39804,-0.398041 0.589143,-0.674403 0.765549,-1.107093 0.214913,-0.52714 0.243501,-0.687302 0.243501,-1.364175 0,-0.5286362 -0.009,-0.6417956 -0.06765,-0.8540678 C 15.231792,8.4916456 14.975398,8.0397463 14.516927,7.5671634 14.118175,7.1561363 13.74476,6.9036072 13.259337,6.7166931 l -0.06879,-0.026487 0.09005,-0.2664096 C 13.452536,5.9151453 13.48331,5.6989906 13.48331,5 13.48331,4.2832125 13.45076,4.0674456 13.259892,3.5191019 13.026759,2.8493274 12.696931,2.3260978 12.185417,1.8145833 11.548522,1.1776888 10.795504,0.76806825 9.9054109,0.574325 9.5263037,0.49180616 8.4736963,0.49180616 8.0945891,0.574325 7.2044962,0.76806825 6.4514778,1.1776888 5.8145834,1.8145833 5.0648019,2.5643649 4.6148578,3.5057103 4.5137609,4.5360856 l -0.020404,0.2079603 -0.145116,0.05447 C 3.3844625,5.1602759 2.4491819,6.0104291 1.9749841,6.9557628 1.8180231,7.2686713 1.6503806,7.7451753 1.574325,8.0945891 1.494264,8.4624041 1.491579,9.5282956 1.569825,9.8818159 L 1.623207,10.123007 1.3803414,10.366191 C 1.0056261,10.741396 0.80028644,11.071798 0.64656403,11.546875 0.53381916,11.895311 0.5,12.115242 0.5,12.5 c 0,0.846091 0.28371384,1.536865 0.8734246,2.126575 0.4450715,0.445072 0.9749484,0.726029 1.5797004,0.837607 0.2191794,0.04044 0.8431794,0.04219 1.0645731,0.003 z"
       id="path857"
       transform="translate(100,-1684)" /><path
       style="fill:none;stroke-width:0.000357143"
       d="m 102.7814,-1675.2754 v -6.0402 h 6.04019 6.04019 v 6.0402 6.0402 h -6.04019 -6.04019 z m 11.32536,0 v -5.2851 h -5.28517 -5.28516 v 5.2851 5.2852 h 5.28516 5.28517 z"
       id="path825"
       inkscape:connector-curvature="0" /><path
       style="fill:#323232;stroke-width:0.000357143"
       d="m 103.04455,-1676.0296 v -4.9548 h 4.95481 4.9548 v 4.9548 4.9548 h -4.9548 -4.95481 z m 9.34759,0 v -4.3928 h -4.39278 -4.39279 v 4.3928 4.3927 h 4.39279 4.39278 z"
       id="path819"
       inkscape:connector-curvature="0"
       sodipodi:nodetypes="cccccccccccccccccc" /><g
       id="g2"
       transform="matrix(0.03416978,0,0,0.03416978,104.09582,-1679.6616)"
       style="stroke-width:0.00502215"><g
         id="path1-1"
         style="stroke-width:0.00502215"><path
           style="fill:#653200;stroke-width:0.00502215"
           d="M 220.65482,201.00562 H 17.62014 V 43.550157 c 0,-4.454332 -0.721917,-14.194951 -14.54232,-14.542324 C -9.7776,28.684714 -11.36092,39.095825 -11.36092,43.550157 V 222.01032 c 0,4.45434 3.62562,8.07995 8.07995,8.07995 h 223.93579 c 4.45433,0 14.54232,0.89805 14.54232,-14.54233 -0.10359,-13.82477 -10.08799,-14.54232 -14.54232,-14.54232 z"
           id="path11" /><path
           style="fill:#653200;stroke-width:0.00502215"
           d="m 3.484375,12.857422 c -10.8015925,-0.271496 -21.408916,5.686163 -26.041016,12.90039 -4.632099,7.214228 -4.960937,13.651561 -4.960937,17.792969 V 222.00977 c 0,13.22111 11.01523,24.23632 24.236328,24.23632 H 220.6543 c 1.14141,0 8.45108,1.10529 16.77148,-3.5039 8.3204,-4.6092 13.92774,-15.95467 13.92774,-27.19336 v -0.0606 -0.0606 c -0.0809,-10.79929 -5.75206,-21.38042 -13.26172,-26.05273 -7.50967,-4.67231 -14.34282,-4.52539 -17.4375,-4.52539 H 33.775391 V 43.550781 c 0,-3.099967 0.116768,-9.959979 -4.566407,-17.410156 C 24.525809,18.690448 14.179486,13.126241 3.484375,12.857422 Z"
           id="path12" /></g><g
         id="path2-1"
         style="stroke-width:0.00502215"><path
           style="fill:#653200;stroke-width:0.00502215"
           d="M 238.91359,22.966467 227.46547,-10.22353 c -1.45908,-4.38783 -6.17302,-6.750508 -10.55024,-5.512915 l -36.14017,10.3507791 c -4.6017,1.3501011 -7.29538,6.18796602 -5.94854,10.800813 3.92531,7.1336929 13.12378,9.7311849 20.51946,13.2320269 L 129.14625,147.0633 75.497192,50.868566 c -1.346838,-2.475187 -3.816043,-4.050304 -6.50972,-4.38783 -2.805913,-0.337525 -5.49959,0.675051 -7.407612,2.700203 L 5.5738234,108.81043 c -3.2548589,3.48777 -3.1426225,9.00067 0.336711,12.37594 3.4793333,3.26274 8.9789236,3.15023 12.3460206,-0.33753 L 66.069322,69.882496 121.85087,169.67751 c 1.57131,2.81272 4.48947,4.50034 7.63208,4.50034 h 0.11224 c 3.14263,0 6.06078,-1.80013 7.63209,-4.72536 L 211.74814,26.217646 c 0,0 15.38061,8.224684 18.97218,8.224684 0.89789,0 1.90803,-0.112509 2.80592,-0.450034 4.48945,-1.575118 6.95866,-6.525491 5.38735,-11.025829 z"
           id="path9" /><path
           style="fill:#653200;stroke-width:0.00502215"
           d="m 217.23047,-32.128906 c -1.57436,0.125354 -3.15099,0.40465 -4.71094,0.845703 l -0.0254,0.0078 -36.2168,10.373047 -0.0508,0.01367 c -12.97168,3.805785 -20.73113,17.7387175 -16.9082,30.8320314 l 0.49805,1.7050786 0.85546,1.554687 c 3.50126,6.363027 8.02468,10.386943 12.5,13.199219 l -44.5859,86.4883 L 89.607422,43 89.6875,43.146484 C 85.753699,35.917037 78.633834,31.406251 70.996094,30.449219 l -0.03906,-0.0039 -0.04102,-0.0059 c -7.82714,-0.941531 -15.826545,2.069487 -21.095704,7.662109 l -0.0078,0.0098 -56.0332031,59.658203 -0.017578,0.01758 c -9.1750899,9.831639 -8.7647759,25.619999 0.9003906,34.996089 l 0.097656,0.0937 0.099609,0.0937 c 9.8109612,9.20022 25.6675105,8.78677 35.0195305,-0.90039 l 0.08203,-0.084 32.78125,-34.943359 45.005865,80.517579 c 4.38354,7.84346 12.80924,12.77343 21.73437,12.77343 h 0.11328 c 9.31216,0 17.65359,-5.39935 21.86328,-13.23632 l 0.0508,-0.0937 67.35351,-129.460939 c 0.48792,0.204252 0.93778,0.439957 1.42969,0.634765 2.53985,1.005851 3.36366,2.419922 10.42773,2.419922 2.20564,0 4.88288,-0.176854 8.31446,-1.435547 12.61321,-4.528604 19.63156,-18.620398 15.13281,-31.515625 l -11.3711,-32.96875 c -3.67392,-11.048434 -14.54589,-17.684117 -25.5664,-16.80664 z m -2.7207,33.8867185 3.21875,9.3378905 -12.49415,-6.6816405 z m -9.69336,2.7753906 -0.30079,0.5800781 -0.64843,-0.3066406 z"
           id="path10" /></g><path
         fill="#000000"
         d="M 220.65482,201.00562 H 17.62014 V 43.550158 c 0,-4.454332 -0.721917,-14.194951 -14.5423245,-14.542324 C -9.7776018,28.684715 -11.36092,39.095826 -11.36092,43.550158 V 222.01032 c 0,4.45434 3.6256192,8.07995 8.0799515,8.07995 H 220.65482 c 4.45433,0 14.54232,0.89805 14.54232,-14.54233 -0.10359,-13.82477 -10.08799,-14.54232 -14.54232,-14.54232 z"
         id="path1"
         style="fill:#fe9832;fill-opacity:1;stroke-width:0.00502215"
         sodipodi:nodetypes="scsssssscs" /><path
         fill="#000000"
         d="m 238.91359,22.966464 -11.44812,-33.189996 c -1.45908,-4.38783 -6.17302,-6.750508 -10.55024,-5.512915 l -36.14017,10.350779 c -4.6017,1.3501011 -7.29538,6.18796592 -5.94854,10.8008131 3.92531,7.1336929 13.12378,9.7311849 20.51946,13.2320259 L 129.14625,147.0633 75.497192,50.868564 c -1.346838,-2.475187 -3.816043,-4.050305 -6.50972,-4.387831 -2.805913,-0.337525 -5.49959,0.675051 -7.407612,2.700204 L 5.5738234,108.81043 c -3.2548589,3.48777 -3.1426225,9.00067 0.336711,12.37594 3.4793333,3.26274 8.9789236,3.15023 12.3460206,-0.33753 L 66.069322,69.882494 121.85087,169.67751 c 1.57131,2.81272 4.48947,4.50034 7.63208,4.50034 h 0.11224 c 3.14263,0 6.06078,-1.80013 7.63209,-4.72536 L 211.74814,26.217643 c 0,0 15.38061,8.224685 18.97218,8.224685 0.89789,0 1.90803,-0.112509 2.80592,-0.450034 4.48945,-1.575119 6.95866,-6.525491 5.38735,-11.02583 z"
         id="path2"
         style="fill:#fe9832;fill-opacity:1;stroke-width:0.00502215"
         sodipodi:nodetypes="ccccsccccccccccssccscc" /></g></g></svg>
