<?xml version="1.0" encoding="UTF-8" standalone="no"?>
<!-- Created with Inkscape (http://www.inkscape.org/) -->

<svg
   version="1.1"
   id="svg2"
   width="1600"
   height="1600"
   viewBox="0 0 1600 1600"
   sodipodi:docname="node_enable_output.svg"
   inkscape:version="1.4 (86a8ad7, 2024-10-11)"
   xml:space="preserve"
   xmlns:inkscape="http://www.inkscape.org/namespaces/inkscape"
   xmlns:sodipodi="http://sodipodi.sourceforge.net/DTD/sodipodi-0.dtd"
   xmlns="http://www.w3.org/2000/svg"
   xmlns:svg="http://www.w3.org/2000/svg"
   xmlns:rdf="http://www.w3.org/1999/02/22-rdf-syntax-ns#"
   xmlns:cc="http://creativecommons.org/ns#"
   xmlns:dc="http://purl.org/dc/elements/1.1/"><metadata
     id="metadata8"><rdf:RDF><cc:Work
         rdf:about=""><dc:format>image/svg+xml</dc:format><dc:type
           rdf:resource="http://purl.org/dc/dcmitype/StillImage" /></cc:Work></rdf:RDF></metadata><defs
     id="defs6" /><sodipodi:namedview
     pagecolor="#808080"
     bordercolor="#666666"
     borderopacity="1"
     objecttolerance="10"
     gridtolerance="10"
     guidetolerance="10"
     inkscape:pageopacity="0"
     inkscape:pageshadow="2"
     inkscape:window-width="2560"
     inkscape:window-height="1009"
     id="namedview4"
     showgrid="false"
     inkscape:zoom="0.25"
     inkscape:cx="1406"
     inkscape:cy="1048"
     inkscape:window-x="1912"
     inkscape:window-y="-8"
     inkscape:window-maximized="1"
     inkscape:current-layer="GROUPOUTPUT"
     inkscape:showpageshadow="0"
     inkscape:pagecheckerboard="true"
     inkscape:deskcolor="#d1d1d1" /><g
     id="GROUPOUTPUT"
     transform="matrix(100,0,0,100,0,4.9999997e-5)"
     style="stroke-width:0.0114286"><g
       id="SEARCH_MENU"
       transform="matrix(0.9999465,0,0,0.9999465,-7.999997,-6.9549348)"
       style="stroke-width:0.0100006"><path
         style="fill:none;stroke-width:0.000312517"
         d="M 0,8 V 0 L 5.0546875,0.00405423 C 8.0673591,0.00647061 10.014691,0.01898802 9.875,0.03503909 7.9982687,0.25068308 6.3496122,1.4338231 5.5257222,3.15625 4.8191003,4.6335156 4.8327572,6.4440644 5.5616066,7.91357 L 5.7197884,8.2324966 5.3097416,8.6433891 4.8996947,9.0542816 4.7182225,9.0732494 C 4.4896463,9.0971403 4.1814931,9.2121753 3.9469844,9.3611562 3.6986413,9.5189259 0.51892588,12.698641 0.36115619,12.946984 c -0.76622744,1.206108 -0.0383494,2.816145 1.36399881,3.017111 0.1451117,0.02079 -0.055376,0.0292 -0.7642175,0.03205 L 0,16 Z m 2.306095,7.964095 c 0.2522624,-0.03615 0.548418,-0.148042 0.7781708,-0.294001 0.248343,-0.15777 3.4280583,-3.337485 3.585828,-3.585828 0.1489809,-0.234509 0.2640159,-0.542662 0.2879068,-0.771238 l 0.018968,-0.181473 0.4181482,-0.417287 0.4181484,-0.417288 0.085555,0.04801 0.085555,0.04801 0.016327,2.030065 c 0.01103,1.371482 0.02758,2.06048 0.051013,2.123816 0.1041391,0.281466 0.1605997,0.395365 0.2943272,0.59375 0.081101,0.120313 0.1946216,0.262514 0.2522691,0.316003 0.2355287,0.218539 0.601785,0.417971 0.9329387,0.508 0.070768,0.01924 -1.2198281,0.02937 -3.65625,0.0287 -2.3669156,-6.53e-4 -3.692555,-0.01151 -3.568905,-0.02923 z m 12.162655,5.33e-4 c 0.331154,-0.09003 0.69741,-0.289461 0.932939,-0.508 0.220413,-0.204514 0.468173,-0.639296 0.562939,-0.987878 0.021,-0.07724 0.03056,0.1316 0.03255,0.710938 L 16,16 15.179688,15.9972 C 14.60035,15.9952 14.391505,15.98565 14.46875,15.96465 Z M 15.956835,8.5234375 C 15.92294,8.3489372 15.806245,8.0855566 15.678426,7.8950675 L 15.555594,7.71201 15.696623,7.2856925 C 15.845543,6.835525 15.920647,6.5106637 15.964961,6.125 c 0.01862,-0.162045 0.02818,0.1875506 0.03098,1.1328125 0.0022,0.7519531 -0.0012,1.3671875 -0.0077,1.3671875 -0.0064,0 -0.0206,-0.045703 -0.03145,-0.1015625 z m 0.0014,-3.6630972 C 15.901507,4.1897803 15.606378,3.3203613 15.215302,2.671875 14.766885,1.9283041 14.067644,1.2289152 13.328125,0.78429687 12.678353,0.39363678 11.878515,0.12162095 11.125,0.03503909 10.977103,0.01804506 11.833229,0.00661257 13.445313,0.00405423 L 16,0 v 2.546875 c 0,1.4007813 -0.005,2.546875 -0.01104,2.546875 -0.0061,0 -0.01992,-0.1050344 -0.03077,-0.2334097 z"
         id="path853"
         inkscape:connector-curvature="0" /><path
         style="fill:#fefefe;stroke-width:0.000312517"
         d="M 9,11.5 V 9 H 9.5 10 V 8.5 8 h 2 2 V 8.5 9 H 12 10 V 11.5 14 H 9.5 9 Z"
         id="path851"
         inkscape:connector-curvature="0"
         sodipodi:nodetypes="ccccccccccccccccc" /><path
         style="fill:#cbcbcb;stroke-width:0.000312517"
         d="M 9.6876684,14.948294 C 9.4880484,14.877858 9.2976844,14.738275 9.1922734,14.585048 9.0919906,14.439276 9,14.196223 9,14.077033 V 14 H 11.5 14 V 13.5 13 H 12 10 V 12.5 12 h 2 2 V 11.5 11 H 12 10 V 10.5 10 h 2 2 V 8.9957525 7.9915047 l 0.13931,0.019095 c 0.315354,0.043224 0.619321,0.2679372 0.767686,0.5675256 l 0.07738,0.15625 V 11.5 14.265625 l -0.07738,0.15625 c -0.04256,0.08594 -0.133965,0.212836 -0.203125,0.281996 -0.06916,0.06916 -0.196059,0.160566 -0.281996,0.203125 l -0.15625,0.07738 -2.21875,0.0067 c -1.957218,0.0059 -2.2353063,8.97e-4 -2.3592066,-0.04282 z M 9.0105994,8.8606897 C 9.0687656,8.4363209 9.4363209,8.0687656 9.8606897,8.0105994 L 10,7.9915047 V 8.4957525 9 H 9.4957525 8.9915047 Z"
         id="path849"
         inkscape:connector-curvature="0" /><path
         style="fill:#656565;stroke-width:0.000312517"
         d="M 10,13.5 V 13 h 2 2 v 0.5 0.5 h -2 -2 z m 0,-2 V 11 h 2 2 v 0.5 0.5 h -2 -2 z m 0,-2 V 9 h 2 2 V 9.5 10 h -2 -2 z"
         id="path843"
         inkscape:connector-curvature="0" /><path
         id="path839"
         style="fill:#323232;stroke-width:0.000312517"
         d="m 14.691938,7.0693855 c -0.01616,-0.00543 -0.09839,0.002 -0.192569,-0.023068 C 14.356654,7.0083409 13.940242,7.00071 11.999997,7.0005537 10.477015,7.000425 9.6286488,7.011677 9.5468779,7.0330945 9.1884492,7.1269742 8.7532928,7.3720747 8.5433672,7.59832 8.3404425,7.8170207 8.1640632,8.1258823 8.0552161,8.4531314 c -0.01715,0.051562 -0.040111,0.2452863 -0.051018,0.4305113 l -0.0042,0.071332 v 2.8448003 h -0.00432 l 0.00502,0.623276 c 0.01103,1.371482 0.027585,2.060488 0.051018,2.123824 0.1041391,0.281466 0.1606046,0.395358 0.2943321,0.593743 0.081101,0.120313 0.1946121,0.262524 0.2522596,0.316013 0.2355287,0.218539 0.6017869,0.417967 0.9329406,0.507996 v -2e-5 c 0.1561872,0.04248 4.7603106,0.04462 4.9218646,0.0023 0.341242,-0.08938 0.706988,-0.286129 0.948566,-0.510281 0.226245,-0.209925 0.471346,-0.645082 0.565226,-1.003511 0.04526,-0.172787 0.04526,-5.7334659 0,-5.9062531 C 15.906021,8.3144003 15.801801,8.0789542 15.678417,7.8950742 L 15.555598,7.7120175 c 0,0 -0.376409,-0.4789551 -0.86366,-0.642632 z m -4.9575696,0.946242 h 2.2656286 2.265629 l 0.156239,0.077367 c 0.199213,0.098656 0.386468,0.2859106 0.485124,0.4851237 l 0.07739,0.1562583 v 2.7656175 2.765636 l -0.07739,0.156239 c -0.04256,0.08594 -0.133956,0.212847 -0.203116,0.282007 -0.06916,0.06916 -0.196068,0.160556 -0.282008,0.203116 l -0.156239,0.07743 -2.218751,0.0067 c -1.957218,0.0059 -2.2353079,9.05e-4 -2.3592083,-0.04282 C 9.3762967,14.838437 9.150436,14.607544 9.0485895,14.294987 9.0036565,14.157082 8.9992262,13.852515 9.0069662,11.43749 L 9.015619,8.7343769 9.093006,8.5781186 C 9.1916619,8.3789055 9.3789165,8.1916512 9.5781296,8.0929949 Z"
         sodipodi:nodetypes="sccssssccccssscccsccccsccccsccccscccccccccc" /></g><path
       style="fill:#323232;fill-opacity:1;stroke:#323232;stroke-width:0.999998;stroke-linejoin:round;stroke-dasharray:none;stroke-opacity:1"
       d="m 9.999148,14.081401 v -1.50774 H 8.9991469 7.9991472 V 10.573662 8.5736614 h 0.9997001 0.9996991 l 0.00808,-1.4921875 0.0081,-1.4921875 2.492116,2.5001448 2.492116,2.5001448 -2.499914,2.499782 -2.4999285,2.499782 z"
       id="path825-8"
       inkscape:connector-curvature="0" /><path
       style="fill:none;stroke-width:0.000357143"
       d="M -8.5304107e-4,10.573662 V 2.5736613 H 7.999147 h 8 v 8.0000007 7.999999 h -8 -8.00000004107 z M 12.506889,8.0894312 10.014772,5.5892864 10.006672,7.0814739 9.998592,8.5736614 H 8.9988471 7.999147 v 2.0000006 1.999999 H 8.9991471 9.999148 v 1.50774 1.507739 l 2.499928,-2.499782 2.499929,-2.499782 z M 4.8095448,13.48195 c 1.0309645,-0.301481 1.8019332,-1.076914 2.102517,-2.114694 0.062326,-0.215183 0.07146,-0.316623 0.07146,-0.793594 0,-0.476972 -0.00913,-0.578413 -0.07146,-0.793595 C 6.6094977,8.7354498 5.8373587,7.9633108 4.7927417,7.6607466 4.5775589,7.5984208 4.4761179,7.5892864 3.999147,7.5892864 c -0.476971,0 -0.5784119,0.00913 -0.7935948,0.07146 -1.0446168,0.3025642 -1.8167558,1.0747032 -2.11932,2.1193196 -0.062326,0.215183 -0.07146,0.316624 -0.07146,0.793596 0,0.476971 0.00913,0.578411 0.07146,0.793594 0.3205197,1.106608 1.1723594,1.910694 2.2879148,2.159653 0.3123275,0.06971 1.1309772,0.04406 1.4353978,-0.04496 z"
       id="path827"
       inkscape:connector-curvature="0" /><path
       style="fill:#fefefe;stroke-width:0.000357143"
       d="m 9.999148,14.081401 v -1.50774 H 8.9991471 7.999147 V 10.573662 8.5736614 h 0.9997001 0.9996993 l 0.00808,-1.4921875 0.0081,-1.4921875 2.492116,2.5001448 2.492116,2.5001448 -2.499914,2.499782 -2.4999285,2.499782 z"
       id="path825"
       inkscape:connector-curvature="0" /><path
       style="fill:#fefe00;stroke-width:0.000357143"
       d="M 3.5014966,13.041559 C 3.2668598,12.992344 3.0565165,12.914998 2.796022,12.78215 2.4428943,12.602058 1.9720598,12.131681 1.7896837,11.776787 1.5611656,11.332103 1.5147719,11.129065 1.5147719,10.573662 c 0,-0.555404 0.046393,-0.758442 0.2749118,-1.2031256 0.1817509,-0.3536776 0.652661,-0.8245875 1.0063383,-1.0063381 0.444684,-0.2285182 0.6477216,-0.274912 1.203125,-0.274912 0.5554034,0 0.758441,0.046394 1.203125,0.274912 0.3536775,0.1817506 0.8245875,0.6526605 1.0063381,1.0063381 0.2285182,0.4446836 0.2749119,0.6477216 0.2749119,1.2031256 0,0.555403 -0.046393,0.758441 -0.2749119,1.203125 -0.1818869,0.353941 -0.6527809,0.824736 -1.0063381,1.006125 -0.4190266,0.214977 -0.6251851,0.265824 -1.125,0.277463 -0.240625,0.0056 -0.4997242,-0.0029 -0.5757754,-0.01882 z m 0.9195255,-0.514752 c 0.8996077,-0.188227 1.5770397,-1.027219 1.5770397,-1.953145 0,-1.0907581 -0.9081573,-1.9989153 -1.9989148,-1.9989153 -1.0907577,0 -1.9989149,0.9081572 -1.9989149,1.9989153 0,0.740798 0.4388059,1.453799 1.0937227,1.777153 0.4324899,0.213535 0.8702025,0.271583 1.3270673,0.175992 z"
       id="path823"
       inkscape:connector-curvature="0" /><path
       style="fill:#fea900;stroke-width:0.000357143"
       d="M 3.561647,12.525067 C 2.8314661,12.368242 2.199851,11.73084 2.0460018,10.995536 1.7488811,9.5754842 3.0009699,8.3233958 4.4210221,8.620516 c 0.7429124,0.1554414 1.3758291,0.7883579 1.5312702,1.531271 0.2981894,1.425161 -0.9652463,2.67942 -2.3906453,2.37328 z"
       id="path821"
       inkscape:connector-curvature="0" /><path
       style="fill:#323232;stroke-width:0.000357143"
       d="M 3.374147,13.526909 C 2.2585916,13.277951 1.4067519,12.473865 1.0862322,11.367256 c -0.062326,-0.215183 -0.07146,-0.316623 -0.07146,-0.793594 0,-0.476972 0.00913,-0.578413 0.07146,-0.793595 0.3025639,-1.0446172 1.0747029,-1.8167562 2.1193197,-2.1193204 0.2151832,-0.062326 0.3166241,-0.07146 0.7935951,-0.07146 0.4769709,0 0.5784119,0.00913 0.7935947,0.07146 1.044617,0.3025642 1.816756,1.0747032 2.1193201,2.1193203 0.062326,0.215183 0.07146,0.316623 0.07146,0.793595 0,0.476971 -0.00913,0.578412 -0.07146,0.793594 -0.3005838,1.03778 -1.0715525,1.813213 -2.102517,2.114694 -0.3044206,0.08902 -1.1230703,0.114663 -1.4353978,0.04496 z M 4.7335219,12.98068 c 0.4296113,-0.136508 0.6915649,-0.298841 1.0326832,-0.63996 0.3454135,-0.345414 0.5063278,-0.607312 0.6440971,-1.048308 0.063563,-0.203466 0.07322,-0.298258 0.07322,-0.71875 0,-0.555404 -0.046393,-0.758442 -0.2749118,-1.2031256 C 6.0268595,9.0168588 5.5559495,8.5459489 5.202272,8.3641983 4.757588,8.1356801 4.5545504,8.0892863 3.999147,8.0892863 c -0.5554034,0 -0.758441,0.046394 -1.203125,0.274912 C 2.4423447,8.5459489 1.9714346,9.0168588 1.7896837,9.3705364 1.5611656,9.81522 1.5147719,10.018258 1.5147719,10.573662 c 0,0.555403 0.046393,0.758441 0.2749118,1.203125 0.1823761,0.354894 0.6532106,0.825271 1.0063383,1.005363 0.4753194,0.242405 0.7023494,0.291705 1.28125,0.278225 0.3453038,-0.008 0.4835981,-0.02483 0.6562499,-0.07969 z"
       id="path819"
       inkscape:connector-curvature="0" /></g></svg>
