<?xml version="1.0" encoding="UTF-8" standalone="no"?>
<!-- Created with Inkscape (http://www.inkscape.org/) -->

<svg
   version="1.1"
   id="svg2"
   width="1600"
   height="1600"
   viewBox="0 0 1600 1600"
   sodipodi:docname="node_sdfgridmedian.svg"
   inkscape:version="1.4 (86a8ad7, 2024-10-11)"
   inkscape:export-filename="VOLUME_CUBE.png"
   inkscape:export-xdpi="3072"
   inkscape:export-ydpi="3072"
   xml:space="preserve"
   xmlns:inkscape="http://www.inkscape.org/namespaces/inkscape"
   xmlns:sodipodi="http://sodipodi.sourceforge.net/DTD/sodipodi-0.dtd"
   xmlns="http://www.w3.org/2000/svg"
   xmlns:svg="http://www.w3.org/2000/svg"
   xmlns:rdf="http://www.w3.org/1999/02/22-rdf-syntax-ns#"
   xmlns:cc="http://creativecommons.org/ns#"
   xmlns:dc="http://purl.org/dc/elements/1.1/"><metadata
     id="metadata8"><rdf:RDF><cc:Work
         rdf:about=""><dc:format>image/svg+xml</dc:format><dc:type
           rdf:resource="http://purl.org/dc/dcmitype/StillImage" /></cc:Work></rdf:RDF></metadata><defs
     id="defs6" /><sodipodi:namedview
     pagecolor="#808080"
     bordercolor="#666666"
     borderopacity="1"
     objecttolerance="10"
     gridtolerance="10"
     guidetolerance="10"
     inkscape:pageopacity="0"
     inkscape:pageshadow="2"
     inkscape:window-width="2560"
     inkscape:window-height="1009"
     id="namedview4"
     showgrid="true"
     inkscape:zoom="0.32593203"
     inkscape:cx="222.43902"
     inkscape:cy="711.80485"
     inkscape:window-x="1912"
     inkscape:window-y="-8"
     inkscape:window-maximized="1"
     inkscape:current-layer="MESH_CUBE"
     inkscape:showpageshadow="0"
     inkscape:pagecheckerboard="1"
     inkscape:deskcolor="#d1d1d1"><inkscape:grid
       type="xygrid"
       id="grid10683"
       originx="0"
       originy="0"
       spacingy="100"
       spacingx="100"
       units="px" /></sodipodi:namedview><g
     id="MESH_CUBE"
     transform="matrix(100,0,0,100,0,4.9999997e-5)"
     style="display:inline;stroke-width:0.0114286;enable-background:new"
     inkscape:label="VOLUME_CUBE"><g
       id="g3"
       transform="matrix(0.59311047,0,0,0.59311047,2.4722103,-1.4267484)"
       inkscape:label="Grid"
       style="display:inline;stroke-width:0.019269;enable-background:new"><path
         id="rect1"
         style="baseline-shift:baseline;display:inline;overflow:visible;vector-effect:none;fill:#323232;stroke-width:0.019269;stroke-linecap:round;stroke-linejoin:round;paint-order:markers stroke fill;enable-background:accumulate;stop-color:#000000;stop-opacity:1"
         d="M 4.1230891,2.3199999 H 14.516912 c 0.998911,0 1.803088,0.8041776 1.803088,1.8030887 V 14.516911 C 16.32,15.515822 15.515823,16.32 14.516912,16.32 H 4.1230891 C 3.124178,16.32 2.3200004,15.515822 2.3200004,14.516911 V 4.1230886 c 0,-0.9989111 0.8041776,-1.8030887 1.8030887,-1.8030887 z" /><g
         id="rect2-2-5-7"
         transform="matrix(1.0716036,0,0,1.0716036,-0.77860787,-0.66768013)"
         style="stroke-width:0.0179813"><path
           style="fill:#cb6500;stroke-width:0.0179813;stroke-linecap:round;stroke-linejoin:round;paint-order:markers stroke fill"
           d="m 4.953125,3.3203125 c -0.8957377,0 -1.6328125,0.7370748 -1.6328125,1.6328125 V 7.6875 c 0,0.8957377 0.7370748,1.6328125 1.6328125,1.6328125 h 2.8398437 c 0.8957378,0 1.6308594,-0.7370748 1.6308594,-1.6328125 V 4.953125 c 0,-0.8957377 -0.7351216,-1.6328125 -1.6308594,-1.6328125 z m 0,1 h 2.8398437 c 0.3590371,0 0.6308594,0.2737753 0.6308594,0.6328125 V 7.6875 c 0,0.3590372 -0.2718223,0.6328125 -0.6308594,0.6328125 H 4.953125 C 4.5940879,8.3203125 4.3203125,8.0465372 4.3203125,7.6875 V 4.953125 c 0,-0.3590372 0.2737754,-0.6328125 0.6328125,-0.6328125 z"
           id="path10" /><path
           style="fill:#fecb32;stroke-width:0.0179813;stroke-linecap:round;stroke-linejoin:round;paint-order:markers stroke fill"
           d="m 4.9524665,3.8199978 h 2.8396153 c 0.6273874,0 1.1324683,0.5050809 1.1324683,1.1324683 v 2.7350672 c 0,0.6273874 -0.5050809,1.1324683 -1.1324683,1.1324683 H 4.9524665 c -0.6273874,0 -1.1324682,-0.5050809 -1.1324682,-1.1324683 V 4.9524661 c 0,-0.6273874 0.5050808,-1.1324683 1.1324682,-1.1324683 z"
           id="path11" /></g><g
         id="rect2-2-5-7-2"
         transform="matrix(1.0716036,0,0,1.0716036,-0.61860782,-0.66768013)"
         style="stroke-width:0.0179813"><path
           style="fill:#cb6500;stroke-width:0.0179813;stroke-linecap:round;stroke-linejoin:round;paint-order:markers stroke fill"
           d="m 10.900391,3.3203125 c -0.895738,0 -1.6328129,0.7370748 -1.6328129,1.6328125 V 7.6875 c 0,0.8957377 0.7370749,1.6328125 1.6328129,1.6328125 h 2.839843 c 0.895738,0 1.632813,-0.7370748 1.632813,-1.6328125 V 4.953125 c 0,-0.8957377 -0.737075,-1.6328125 -1.632813,-1.6328125 z m 0,1 h 2.839843 c 0.359037,0 0.632813,0.2737753 0.632813,0.6328125 V 7.6875 c 0,0.3590372 -0.273776,0.6328125 -0.632813,0.6328125 h -2.839843 c -0.359037,0 -0.632813,-0.2737753 -0.632813,-0.6328125 V 4.953125 c 0,-0.3590372 0.273776,-0.6328125 0.632813,-0.6328125 z"
           id="path8" /><path
           style="fill:#fecb32;stroke-width:0.0179813;stroke-linecap:round;stroke-linejoin:round;paint-order:markers stroke fill"
           d="m 10.900192,3.8199978 h 2.839616 c 0.627387,0 1.132468,0.5050809 1.132468,1.1324683 v 2.7350672 c 0,0.6273874 -0.505081,1.1324683 -1.132468,1.1324683 h -2.839616 c -0.627387,0 -1.132468,-0.5050809 -1.132468,-1.1324683 V 4.9524661 c 0,-0.6273874 0.505081,-1.1324683 1.132468,-1.1324683 z"
           id="path9" /></g><g
         id="rect2-2-5-7-2-7"
         transform="matrix(1.0716036,0,0,1.0716036,-0.61860782,-0.66768013)"
         style="stroke-width:0.0179813"><path
           style="fill:#cb6500;stroke-width:0.0179813;stroke-linecap:round;stroke-linejoin:round;paint-order:markers stroke fill"
           d="m 10.900391,9.3203125 c -0.895738,0 -1.6328129,0.7370745 -1.6328129,1.6328125 V 13.6875 c 0,0.895738 0.7370749,1.632812 1.6328129,1.632813 h 2.839843 c 0.895738,0 1.632813,-0.737075 1.632813,-1.632813 v -2.734375 c 0,-0.895738 -0.737075,-1.6328125 -1.632813,-1.6328125 z m 0,1.0000005 h 2.839843 c 0.359037,0 0.632813,0.273775 0.632813,0.632812 V 13.6875 c 0,0.359037 -0.273776,0.632813 -0.632813,0.632813 h -2.839843 c -0.359037,0 -0.632813,-0.273776 -0.632813,-0.632813 v -2.734375 c 0,-0.359037 0.273776,-0.632813 0.632813,-0.632812 z"
           id="path6" /><path
           style="fill:#fecb32;stroke-width:0.0179813;stroke-linecap:round;stroke-linejoin:round;paint-order:markers stroke fill"
           d="m 10.900192,9.8199978 h 2.839616 c 0.627387,0 1.132468,0.5050812 1.132468,1.1324682 v 2.735067 c 0,0.627388 -0.505081,1.132469 -1.132468,1.132469 h -2.839616 c -0.627387,0 -1.132468,-0.505081 -1.132468,-1.132469 v -2.735067 c 0,-0.627387 0.505081,-1.1324682 1.132468,-1.1324682 z"
           id="path7" /></g><g
         id="rect2-2-5-7-2-7-9"
         transform="matrix(1.0716036,0,0,1.0716036,-0.64256442,-0.66768013)"
         style="stroke-width:0.0179813"><path
           style="fill:#cb6500;stroke-width:0.0179813;stroke-linecap:round;stroke-linejoin:round;paint-order:markers stroke fill"
           d="m 4.8242187,9.3203125 c -0.8957377,0 -1.6308593,0.7370745 -1.6308593,1.6328125 V 13.6875 c 0,0.895738 0.7351216,1.632812 1.6308593,1.632813 h 2.8398438 c 0.8957377,0 1.6328125,-0.737075 1.6328125,-1.632813 v -2.734375 c 0,-0.895738 -0.7370748,-1.6328125 -1.6328125,-1.6328125 z m 0,1.0000005 h 2.8398438 c 0.3590371,0 0.6328125,0.273775 0.6328125,0.632812 V 13.6875 c 0,0.359037 -0.2737754,0.632813 -0.6328125,0.632813 H 4.8242187 c -0.359037,0 -0.6308593,-0.273776 -0.6308593,-0.632813 v -2.734375 c 0,-0.359037 0.2718223,-0.632813 0.6308593,-0.632812 z"
           id="path4" /><path
           style="fill:#fecb32;stroke-width:0.0179813;stroke-linecap:round;stroke-linejoin:round;paint-order:markers stroke fill"
           d="m 4.8250043,9.8199978 h 2.8396154 c 0.6273874,0 1.1324682,0.5050812 1.1324682,1.1324682 v 2.735067 c 0,0.627388 -0.5050808,1.132469 -1.1324682,1.132469 H 4.8250043 c -0.6273874,0 -1.1324682,-0.505081 -1.1324682,-1.132469 v -2.735067 c 0,-0.627387 0.5050808,-1.1324682 1.1324682,-1.1324682 z"
           id="path5" /></g></g><path
       inkscape:connector-curvature="0"
       id="path827-666"
       d="M 0,8 V 0 h 8 8 v 8 8 H 8 0 Z m 11.326467,6.00029 c 3.319702,-1.106746 3.322552,-1.107867 3.51104,-1.381855 0.206207,-0.299746 0.193743,-0.0036 0.193743,-4.60281 0,-4.5991825 0.01246,-4.3030644 -0.193743,-4.60281 C 14.649019,3.1388275 14.646169,3.1377059 11.326467,2.0309595 8.4439647,1.0699703 8.2195475,1.0000958 8.015625,1.0000958 c -0.2039225,0 -0.4283397,0.069875 -3.3108416,1.0308637 C 1.3850808,3.1377059 1.3822313,3.1388275 1.1937435,3.412815 0.98753566,3.7125606 1,3.4164425 1,8.015625 c 0,4.599183 -0.0124643,4.303064 0.1937435,4.60281 0.1884878,0.273988 0.1913373,0.275109 3.5110399,1.381855 2.8825019,0.96099 3.1069191,1.030864 3.3108416,1.030864 0.2039225,0 0.4283397,-0.06987 3.310842,-1.030864 z"
       style="fill:#ffffff;fill-opacity:0;stroke-width:0.000357143" /><g
       id="g1"
       transform="matrix(0.01,0,0,0.01,0,0.562404)"><g
         id="path825-5"
         style="fill:#000000;stroke-width:0.0114286"
         transform="scale(100)"><path
           style="fill:#000000"
           d="M 4.0625,14.00772 V 13.04669 L 6.0391544,11.07022 8.0158088,9.0937492 9.992279,11.070404 11.96875,13.047058 v 0.960846 0.960846 H 8.015625 4.0625 Z M 1,8.4999998 v -0.5 h 7 7 v 0.5 0.5 H 8 1 Z"
           id="path1" /><path
           style="fill:#000000"
           d="m 0.5,7.5 v 1 1 H 6.9023437 L 5.6855469,10.716797 3.5625,12.839844 v 1.167969 1.460937 H 8.015625 12.46875 V 14.007813 12.839844 L 10.345703,10.716797 9.1289063,9.5 H 15.5 v -1 -1 H 8 Z m 7.515625,2.3007813 1.6230469,1.6230467 1.8300781,1.830078 v 0.753907 0.460937 H 8.015625 4.5625 v -0.460937 -0.753907 l 1.8300781,-1.830078 z"
           id="path2" /></g><path
         style="fill:none;stroke-width:0.0357143"
         d="M 0,800 V 0 h 800 800 v 800 800 H 800 0 Z m 1196.875,600.7904 v -96.0846 L 999.2279,1107.0404 801.58088,909.37494 603.91544,1107.022 406.25,1304.669 v 96.103 96.103 H 801.5625 1196.875 Z M 1500,850 V 800 H 800 100 v 50 50 h 700 700 z M 1003.125,501.5625 C 1003.125,390.70313 1002.7693,300 1002.3347,300 1001.9,300 910.8494,390.70313 800,501.5625 L 598.45566,703.125 H 800.79034 1003.125 Z M 342.1875,695.31453 C 432.14828,676.49184 499.89147,592.59269 499.89147,500 499.89147,390.92425 409.07575,300.10852 300,300.10852 c -109.07576,0 -199.89148,90.81573 -199.89148,199.89148 0,74.07994 43.88058,145.38003 109.37226,177.71537 43.24901,21.35344 87.02025,27.15822 132.70672,17.59916 z M 1500,500 V 300 h -200 -200 v 200 200 h 200 200 z"
         id="path827"
         inkscape:connector-curvature="0" /><path
         style="fill:#fefefe;stroke-width:0.0357143"
         d="m 406.25,1400.772 v -96.103 L 603.91544,1107.022 801.58088,909.37494 999.2279,1107.0404 1196.875,1304.7058 v 96.0846 96.0846 H 801.5625 406.25 Z M 100,850 v -50 h 700 700 v 50 50 H 800 100 Z"
         id="path825"
         inkscape:connector-curvature="0" /></g></g></svg>
