<?xml version="1.0" encoding="UTF-8" standalone="no"?>
<!-- Created with Inkscape (http://www.inkscape.org/) -->

<svg
   version="1.1"
   id="svg2"
   width="1600"
   height="1600"
   viewBox="0 0 1600 1600"
   sodipodi:docname="node_mixrgb.svg"
   inkscape:version="1.2.2 (732a01da63, 2022-12-09)"
   xmlns:inkscape="http://www.inkscape.org/namespaces/inkscape"
   xmlns:sodipodi="http://sodipodi.sourceforge.net/DTD/sodipodi-0.dtd"
   xmlns="http://www.w3.org/2000/svg"
   xmlns:svg="http://www.w3.org/2000/svg"
   xmlns:rdf="http://www.w3.org/1999/02/22-rdf-syntax-ns#"
   xmlns:cc="http://creativecommons.org/ns#"
   xmlns:dc="http://purl.org/dc/elements/1.1/">
  <metadata
     id="metadata8">
    <rdf:RDF>
      <cc:Work
         rdf:about="">
        <dc:format>image/svg+xml</dc:format>
        <dc:type
           rdf:resource="http://purl.org/dc/dcmitype/StillImage" />
      </cc:Work>
    </rdf:RDF>
  </metadata>
  <defs
     id="defs6" />
  <sodipodi:namedview
     pagecolor="#808080"
     bordercolor="#666666"
     borderopacity="1"
     objecttolerance="10"
     gridtolerance="10"
     guidetolerance="10"
     inkscape:pageopacity="0"
     inkscape:pageshadow="2"
     inkscape:window-width="1993"
     inkscape:window-height="1009"
     id="namedview4"
     showgrid="false"
     inkscape:zoom="0.5"
     inkscape:cx="9"
     inkscape:cy="8"
     inkscape:window-x="-8"
     inkscape:window-y="-8"
     inkscape:window-maximized="1"
     inkscape:current-layer="NODE_MIXRGB"
     inkscape:showpageshadow="0"
     inkscape:pagecheckerboard="true"
     inkscape:deskcolor="#d1d1d1" />
  <g
     id="NODE_MIXRGB"
     transform="matrix(100,0,0,100,0,4.9999997e-5)"
     style="stroke-width:0.0114286">
    <path
       style="fill:none;stroke-width:0.000357143"
       d="M 0,8 V 0 h 8 8 v 8 8 H 8 0 Z m 8.5043247,5.801419 c 0.38282,-0.19783 1.1897381,-0.629064 1.5425503,-0.824372 0.1375,-0.07612 0.292188,-0.156171 0.34375,-0.1779 0.05156,-0.02173 0.470704,-0.245583 0.931426,-0.497452 0.460722,-0.25187 0.845903,-0.457945 0.855958,-0.457945 0.01006,0 0.392476,-0.202129 0.849824,-0.449175 0.457348,-0.247046 1.028,-0.552905 1.268115,-0.679687 0.240116,-0.126782 0.477575,-0.265013 0.527687,-0.307179 C 15.049546,10.21762 15.0577,9.8323469 14.839965,9.6361328 14.770052,9.5731297 14.25226,9.2884453 13.015625,8.6331022 11.981958,8.08532 11.874876,8.0254825 11.88858,8.0033084 c 0.0076,-0.012322 0.09557,-0.062704 0.195446,-0.111959 0.09988,-0.049255 0.540193,-0.282275 0.978474,-0.5178219 C 13.500781,7.1379806 14.055833,6.8415613 14.295948,6.7148178 14.536064,6.5880744 14.773523,6.4498753 14.823635,6.4077091 15.049546,6.2176197 15.0577,5.8323469 14.839965,5.6361328 14.768832,5.5720303 14.222331,5.2718781 12.96875,4.6084138 12.650781,4.4401272 12.179688,4.1882356 11.921875,4.048655 11.664063,3.9090744 11.415266,3.7784163 11.368994,3.7583038 11.322721,3.7381912 10.910611,3.5171578 10.453193,3.2671178 9.9957747,3.017078 9.6133878,2.8125 9.6034441,2.8125 9.5935006,2.8125 9.2825563,2.6479928 8.9124566,2.4469286 8.3210394,2.1256289 8.2180141,2.0797995 8.0617306,2.0684949 7.8385566,2.052352 7.8074222,2.0658921 6.7782575,2.6266661 6.3383303,2.8663747 5.9699719,3.0625 5.9596831,3.0625 5.9493944,3.0625 5.5667253,3.2670781 5.1093072,3.5171178 4.6518891,3.7671578 4.2397787,3.9882331 4.1935062,4.0083966 4.1472341,4.02856 3.8210937,4.2015775 3.46875,4.3928794 3.1164062,4.5841816 2.6382812,4.8398994 2.40625,4.9611409 1.5259812,5.4211016 1.26823,5.5637937 1.1937595,5.63238 0.98126394,5.8280853 0.98002934,6.2078141 1.1912851,6.3934491 1.2597283,6.4535919 3.0442328,7.4375 3.0848696,7.4375 c 0.025593,0 1.0730113,0.5713909 1.0635788,0.5802072 C 4.1298722,8.0350694 2.7906949,8.7602597 2.40625,8.9611409 1.5259812,9.4211016 1.26823,9.5637938 1.1937595,9.63238 c -0.21249672,0.1957066 -0.21373103,0.575364 -0.00247,0.761107 0.070609,0.06208 1.4573435,0.827201 1.85559,1.023807 0.103125,0.05091 0.4125,0.214806 0.6875,0.364213 0.275,0.149407 0.7882812,0.42316 1.140625,0.608342 0.3523437,0.185181 0.9090418,0.482595 1.2371071,0.660922 0.3280653,0.178326 0.6053206,0.324229 0.6161234,0.324229 0.010803,0 0.2275419,0.114425 0.4816428,0.254277 0.5916078,0.32561 0.6183822,0.33679 0.8100763,0.33825 0.1342884,10e-4 0.2135812,-0.02617 0.484375,-0.166108 z"
       id="path829"
       inkscape:connector-curvature="0" />
    <path
       style="fill:#fefefe;stroke-width:0.000357143"
       d="M 7.703125,13.308227 C 7.5484375,13.221379 7.1898437,13.030618 6.90625,12.884313 6.6226563,12.738009 6.3765625,12.607514 6.359375,12.594325 6.3421875,12.581135 5.8355116,12.31012 5.2334281,11.992068 4.631345,11.674016 4.012595,11.343916 3.8584281,11.258511 3.7042616,11.173107 3.4375,11.032028 3.265625,10.945002 3.09375,10.857976 2.6331597,10.61187 2.2420911,10.398098 L 1.5310571,10.009423 1.9764661,9.7738375 C 2.221441,9.6442656 2.5625,9.4645944 2.734375,9.3745681 2.90625,9.2845422 3.3022356,9.0719063 3.6143431,8.9020441 3.9264506,8.7321816 4.3061381,8.5312488 4.4580931,8.4555266 L 4.734375,8.3178494 5.125,8.5221394 C 5.3398437,8.6344988 5.7840419,8.8723578 6.1121072,9.0507147 6.4401725,9.2290716 6.7172462,9.375 6.7278266,9.375 c 0.01058,0 0.2554446,0.129525 0.5441428,0.2878334 C 7.7402475,9.919615 7.8171028,9.9519375 7.984375,9.9624462 8.1607453,9.9735266 8.1913516,9.9641306 8.5,9.8041575 8.9126009,9.590305 9.71163,9.1628541 10.070387,8.9640591 10.220818,8.8807016 10.352913,8.8125 10.36393,8.8125 c 0.01102,0 0.229068,-0.1136591 0.484557,-0.2525756 l 0.464527,-0.252576 0.42943,0.2324669 c 0.236187,0.1278566 0.654431,0.3520106 0.929431,0.49812 1.041638,0.5534294 1.57438,0.8385613 1.698544,0.9090875 l 0.128402,0.072934 -0.460348,0.244063 c -0.253191,0.134234 -0.821381,0.439119 -1.262643,0.677522 -0.441262,0.238402 -0.810747,0.433458 -0.821077,0.433458 -0.01033,0 -0.417757,0.217969 -0.905393,0.484375 -0.487637,0.266406 -0.895785,0.484375 -0.906997,0.484375 -0.01121,0 -0.2482211,0.124292 -0.5266867,0.276204 -0.4599785,0.250933 -0.7565135,0.409583 -1.3760841,0.736221 -0.1174431,0.06192 -0.2229119,0.111986 -0.234375,0.111266 -0.011463,-7.19e-4 -0.1474047,-0.07237 -0.3020922,-0.159214 z"
       id="path827"
       inkscape:connector-curvature="0" />
    <path
       style="fill:#0000fe;stroke-width:0.000357143"
       d="M 3.34375,6.9866547 C 3.1632812,6.8950975 2.6816652,6.6377291 2.273492,6.4147253 L 1.531359,6.0092634 1.976617,5.7736184 C 2.2215089,5.6440134 2.5765625,5.4570525 2.765625,5.3581494 2.9546875,5.2592463 3.3382128,5.0532775 3.6179034,4.9004409 3.8975941,4.7476041 4.2280628,4.5718922 4.3522784,4.50997 4.4764941,4.4480475 4.8862925,4.2290822 5.2629416,4.02338 5.6395903,3.8176781 6.0474028,3.5996841 6.1691916,3.5389488 6.29098,3.4782138 6.7070312,3.2560337 7.09375,3.045216 7.4804687,2.8343982 7.8482819,2.6375719 7.9111128,2.6078242 L 8.0253506,2.5537375 8.6298628,2.8818216 C 8.9623444,3.0622678 9.346875,3.2669197 9.484375,3.3366034 9.8391391,3.5163947 9.9994447,3.6066803 9.9997422,3.6268631 9.9999609,3.6410675 3.7540744,7.1258362 3.6906994,7.1468737 3.6803459,7.1503106 3.5242187,7.0782122 3.34375,6.9866547 Z"
       id="path825"
       inkscape:connector-curvature="0" />
    <path
       style="fill:#fe0000;stroke-width:0.000357143"
       d="M 7.703125,9.3081316 C 7.5484375,9.2212316 7.225,9.0482634 6.984375,8.9237581 6.2303347,8.5335991 5.9947259,8.3989925 6.0212212,8.3734944 6.0642228,8.3321116 12.308435,4.875 12.340179,4.875 c 0.01629,0 0.210087,0.096483 0.430658,0.2144069 0.220571,0.1179237 0.64182,0.3427187 0.936109,0.4995443 0.294289,0.156826 0.592852,0.3179582 0.663473,0.3580716 l 0.128402,0.072934 -0.460348,0.2440631 C 13.785282,6.3982544 13.217092,6.7031394 12.77583,6.9415416 12.334568,7.1799437 11.965083,7.375 11.954753,7.375 c -0.01033,0 -0.417757,0.2179687 -0.905393,0.484375 -0.487637,0.2664062 -0.895785,0.484375 -0.906997,0.484375 -0.01121,0 -0.2482211,0.1242916 -0.5266867,0.2762038 C 9.1556978,8.8708869 8.8591628,9.0295366 8.2395922,9.3561753 8.1221491,9.4180913 8.0166803,9.4681609 8.0052172,9.4674406 7.9937541,9.4667219 7.8578125,9.3950316 7.703125,9.3081316 Z"
       id="path823"
       inkscape:connector-curvature="0" />
    <path
       style="fill:#00fe00;stroke-width:0.000357143"
       d="M 5.078125,7.9112653 C 3.5814275,7.1183119 3.6678675,7.1702284 3.75409,7.1160403 3.7948094,7.0904494 5.2238962,6.2947969 6.9298391,5.3479234 l 3.1017139,-1.7215881 0.445161,0.2444191 c 0.244839,0.1344306 0.571723,0.3083162 0.726411,0.3864128 0.154688,0.078096 0.472755,0.2460172 0.706816,0.3731572 L 12.335507,4.8614881 9.1833766,6.6104316 C 7.4497053,7.5723506 6.0136694,8.362855 5.9921859,8.3671088 5.9707025,8.3713622 5.559375,8.1662325 5.078125,7.9112653 Z"
       id="path821"
       inkscape:connector-curvature="0" />
    <path
       style="fill:#323232;stroke-width:0.000357143"
       d="M 7.765625,13.924929 C 7.7140625,13.902173 7.4639744,13.769129 7.2098734,13.629277 6.9557725,13.489425 6.7390331,13.375 6.7282306,13.375 6.7174278,13.375 6.4401725,13.229097 6.1121072,13.050771 5.7840419,12.872444 5.2273437,12.57503 4.875,12.389849 4.5226562,12.204668 4.009375,11.930914 3.734375,11.781507 3.459375,11.6321 3.15,11.468204 3.046875,11.417294 2.6486285,11.220688 1.2618942,10.455569 1.191285,10.393487 0.98002847,10.207744 0.98126278,9.8280866 1.1937594,9.63238 1.26823,9.5637938 1.5259812,9.4211016 2.40625,8.9611409 2.7906949,8.7602597 4.1298722,8.0350694 4.1484484,8.0177072 4.1578809,8.0088909 3.1104631,7.4375 3.0848696,7.4375 3.0442328,7.4375 1.2597283,6.4535919 1.191285,6.3934491 0.98002934,6.2078141 0.98126394,5.8280853 1.1937595,5.63238 1.26823,5.5637938 1.5259812,5.4211016 2.40625,4.9611409 2.6382813,4.8398994 3.1164062,4.5841816 3.46875,4.3928794 3.8210938,4.2015775 4.1472341,4.02856 4.1935063,4.0083966 4.2397787,3.9882331 4.6518891,3.7671578 5.1093072,3.5171178 5.5667253,3.2670781 5.9493944,3.0625 5.9596831,3.0625 5.9699719,3.0625 6.3383303,2.8663747 6.7782575,2.6266661 7.8074222,2.0658921 7.8385566,2.052352 8.0617306,2.0684949 8.2180141,2.0797995 8.3210394,2.1256289 8.9124566,2.4469286 9.2825563,2.6479928 9.5935006,2.8125 9.6034441,2.8125 c 0.00994,0 0.3923306,0.204578 0.8497489,0.4546178 0.457418,0.25004 0.869528,0.4710734 0.915801,0.491186 0.04627,0.020112 0.295069,0.1507706 0.552881,0.2903512 0.257813,0.1395806 0.728906,0.3914722 1.046875,0.5597588 1.253581,0.6634643 1.800082,0.9636165 1.871215,1.027719 0.217735,0.1962141 0.209581,0.5814869 -0.01633,0.7715763 -0.05011,0.042166 -0.287571,0.1803653 -0.527687,0.3071087 -0.240115,0.1267435 -0.795167,0.4231628 -1.233448,0.6587097 -0.438281,0.2355469 -0.878595,0.4685666 -0.978474,0.5178219 -0.09988,0.049255 -0.18783,0.099637 -0.195446,0.111959 -0.0137,0.022174 0.09338,0.082012 1.127045,0.6297938 1.236635,0.6553431 1.754427,0.9400275 1.82434,1.0030306 0.217735,0.1962141 0.209581,0.5814872 -0.01633,0.7715762 -0.05011,0.04217 -0.287571,0.180397 -0.527687,0.307179 -0.240115,0.126782 -0.810767,0.432641 -1.268115,0.679687 -0.457348,0.247046 -0.839769,0.449175 -0.849824,0.449175 -0.01005,0 -0.395236,0.206075 -0.855958,0.457945 -0.460722,0.251869 -0.879864,0.475723 -0.931426,0.497452 -0.05156,0.02173 -0.20625,0.101784 -0.34375,0.1779 -0.3528122,0.195308 -1.1597303,0.626542 -1.5425503,0.824372 -0.2707938,0.139939 -0.3500866,0.167131 -0.484375,0.166108 -0.088316,-6.72e-4 -0.2027622,-0.01984 -0.2543247,-0.0426 z m 0.4739672,-0.568754 c 0.6195706,-0.326638 0.9161056,-0.485288 1.3760841,-0.736221 0.2784656,-0.151912 0.5154747,-0.276204 0.5266867,-0.276204 0.01121,0 0.41936,-0.217969 0.906997,-0.484375 0.487636,-0.266406 0.895063,-0.484375 0.905393,-0.484375 0.01033,0 0.379815,-0.195056 0.821077,-0.433458 0.441262,-0.238403 1.009452,-0.543288 1.262643,-0.677522 L 14.498821,10.019957 14.370419,9.947023 C 14.246255,9.876497 13.713513,9.5913649 12.671875,9.0379355 c -0.275,-0.1461094 -0.693244,-0.3702634 -0.929431,-0.49812 l -0.42943,-0.2324669 -0.464527,0.252576 C 10.592997,8.6988409 10.374947,8.8125 10.36393,8.8125 c -0.01102,0 -0.143112,0.068202 -0.293543,0.1515591 C 9.71163,9.1628541 8.9126009,9.590305 8.5,9.8041575 8.1913516,9.9641309 8.1607453,9.9735266 7.984375,9.9624463 7.8171028,9.9519375 7.7402475,9.919615 7.2719694,9.6628334 6.9832712,9.504525 6.7384069,9.375 6.7278266,9.375 6.7172462,9.375 6.4401725,9.2290716 6.1121072,9.0507147 5.7840419,8.8723578 5.3398437,8.6344988 5.125,8.5221394 L 4.734375,8.3178494 4.4580931,8.4555266 C 4.3061381,8.5312488 3.9264506,8.7321816 3.6143431,8.9020441 3.3022356,9.0719063 2.90625,9.2845422 2.734375,9.3745681 2.5625,9.4645944 2.221441,9.6442656 1.9764661,9.7738375 l -0.445409,0.2355855 0.711034,0.388675 c 0.3910686,0.213772 0.8516589,0.459878 1.0235339,0.546904 0.171875,0.08703 0.4386366,0.228105 0.5928031,0.313509 0.1541669,0.0854 0.7729169,0.415505 1.375,0.733557 0.6020835,0.318052 1.1087594,0.589067 1.1259469,0.602257 0.017188,0.01319 0.2632813,0.143684 0.546875,0.289988 0.2835937,0.146305 0.6421875,0.337066 0.796875,0.423914 0.1546875,0.08685 0.2906291,0.158494 0.3020922,0.159214 0.011463,7.22e-4 0.1169319,-0.04935 0.234375,-0.111266 z m 0,-3.9999997 C 8.8591628,9.0295366 9.1556978,8.8708869 9.6156763,8.6199537 9.8941419,8.4680416 10.131151,8.34375 10.142363,8.34375 c 0.01121,0 0.41936,-0.2179688 0.906997,-0.484375 C 11.536996,7.5929687 11.944423,7.375 11.954753,7.375 c 0.01033,0 0.379815,-0.1950563 0.821077,-0.4334584 0.441262,-0.2384022 1.009452,-0.5432872 1.262643,-0.6775219 L 14.498821,6.0199566 14.382223,5.9537622 C 14.238645,5.8722503 13.459153,5.4548787 12.6875,5.0463375 12.369531,4.8779934 11.961333,4.6592572 11.780393,4.5602569 11.599453,4.4612566 11.346328,4.32786 11.217893,4.26382 11.089458,4.19978 10.680296,3.9813194 10.308643,3.7783519 9.9369906,3.5753844 9.5432406,3.3644834 9.4336431,3.3096825 9.3240456,3.2548819 8.9623444,3.0623758 8.6298628,2.8818913 L 8.0253506,2.5537375 7.9111128,2.6078242 C 7.8482819,2.6375719 7.4804687,2.8343982 7.09375,3.045216 6.7070312,3.2560337 6.29098,3.4782137 6.1691916,3.5389488 6.0474028,3.5996841 5.6395903,3.8176781 5.2629416,4.02338 4.8862925,4.2290822 4.4764941,4.4480475 4.3522784,4.50997 4.2280628,4.5718922 3.8975941,4.7476041 3.6179034,4.9004409 3.3382128,5.0532775 2.9546875,5.2592462 2.765625,5.3581494 2.5765625,5.4570525 2.221441,5.6440494 1.9764661,5.7736981 l -0.445409,0.2357253 0.711034,0.388675 C 2.6331597,6.6118697 3.09375,6.8579762 3.265625,6.9450019 c 0.171875,0.087026 0.4386366,0.228105 0.5928031,0.3135093 0.1541669,0.085404 0.7729169,0.415505 1.375,0.7335569 0.6020835,0.3180519 1.1087594,0.5890672 1.1259469,0.6022566 0.017188,0.013189 0.2632813,0.143684 0.546875,0.2899887 0.2835937,0.1463044 0.6421875,0.3370653 0.796875,0.4239132 0.1546875,0.086848 0.2906291,0.158494 0.3020922,0.159214 0.011463,7.219e-4 0.1169319,-0.049349 0.234375,-0.1112653 z"
       id="path819"
       inkscape:connector-curvature="0" />
  </g>
</svg>
