<?xml version="1.0" encoding="UTF-8" standalone="no"?>
<!-- Created with Inkscape (http://www.inkscape.org/) -->

<svg
   version="1.1"
   id="svg2"
   width="1600"
   height="1600"
   viewBox="0 0 1600 1600"
   sodipodi:docname="node_vertex_color.svg"
   inkscape:version="1.2.2 (732a01da63, 2022-12-09)"
   xmlns:inkscape="http://www.inkscape.org/namespaces/inkscape"
   xmlns:sodipodi="http://sodipodi.sourceforge.net/DTD/sodipodi-0.dtd"
   xmlns="http://www.w3.org/2000/svg"
   xmlns:svg="http://www.w3.org/2000/svg"
   xmlns:rdf="http://www.w3.org/1999/02/22-rdf-syntax-ns#"
   xmlns:cc="http://creativecommons.org/ns#"
   xmlns:dc="http://purl.org/dc/elements/1.1/">
  <metadata
     id="metadata8">
    <rdf:RDF>
      <cc:Work
         rdf:about="">
        <dc:format>image/svg+xml</dc:format>
        <dc:type
           rdf:resource="http://purl.org/dc/dcmitype/StillImage" />
      </cc:Work>
    </rdf:RDF>
  </metadata>
  <defs
     id="defs6" />
  <sodipodi:namedview
     pagecolor="#808080"
     bordercolor="#666666"
     borderopacity="1"
     objecttolerance="10"
     gridtolerance="10"
     guidetolerance="10"
     inkscape:pageopacity="0"
     inkscape:pageshadow="2"
     inkscape:window-width="1993"
     inkscape:window-height="1009"
     id="namedview4"
     showgrid="false"
     inkscape:zoom="0.5"
     inkscape:cx="9"
     inkscape:cy="8"
     inkscape:window-x="-8"
     inkscape:window-y="-8"
     inkscape:window-maximized="1"
     inkscape:current-layer="NODE_VERTEX_COLOR"
     inkscape:showpageshadow="0"
     inkscape:pagecheckerboard="true"
     inkscape:deskcolor="#d1d1d1" />
  <g
     id="NODE_VERTEX_COLOR"
     transform="matrix(100,0,0,100,0,4.9999997e-5)"
     style="stroke-width:0.0114286">
    <path
       style="fill:none;stroke-width:0.000357143"
       d="M 0,8 V 0 h 8 8 v 8 8 H 8 0 Z m 8.421875,6.953145 c 0.7495247,-0.156824 1.3748172,-0.786984 1.5349484,-1.546895 0.061945,-0.293959 0.041887,-0.716384 -0.04748,-1 L 9.8453384,12.203125 10.189202,11.5 c 0.189125,-0.386719 0.371099,-0.752344 0.404386,-0.8125 0.03329,-0.06016 0.462175,-0.9179687 0.953085,-1.90625 0.490911,-0.9882813 0.915642,-1.8390625 0.943848,-1.890625 0.02821,-0.051563 0.26028,-0.5085938 0.515721,-1.015625 L 13.47068,4.953125 13.6256,4.900465 c 0.297505,-0.1011278 0.543636,-0.2565963 0.783602,-0.4949616 0.78641,-0.781165 0.785942,-2.026647 -0.0011,-2.813647 C 13.640321,0.82403288 12.43419,0.80413722 11.632827,1.546076 L 11.412571,1.75 H 8 4.5874291 L 4.3671725,1.546076 C 3.56581,0.80413722 2.3596793,0.82403288 1.5918561,1.5918561 0.80476425,2.3789478 0.80435791,3.6206459 1.5909347,4.4072225 c 0.2442546,0.2442547 0.6236798,0.4719694 0.8604076,0.51638 0.1021507,0.019163 0.1169,0.043265 0.5314168,0.8683666 C 3.2172516,6.2587297 3.4364791,6.6898437 3.4699313,6.75 3.5033834,6.8101563 3.7843,7.3726563 4.0941903,8 c 0.3098903,0.6273438 0.590801,1.1898438 0.6242463,1.25 0.033445,0.060156 0.3741509,0.7421875 0.757124,1.515625 l 0.6963144,1.40625 -0.073174,0.21875 c -0.045078,0.134761 -0.079267,0.326736 -0.089043,0.5 -0.074078,1.312842 1.1191341,2.333075 2.412217,2.06252 z M 6.5544437,7.2528769 C 5.7509309,5.6442634 5.093565,4.3175781 5.0936306,4.3046875 5.0936962,4.2917969 6.4085937,4.28125 8.015625,4.28125 c 1.6070313,0 2.921875,0.00993 2.921875,0.022073 0,0.021648 -1.7019847,3.4657697 -1.8036256,3.6498022 -0.028478,0.051562 -0.29179,0.5731697 -0.5851382,1.1591269 l -0.53336,1.0653769 z"
       id="path833"
       inkscape:connector-curvature="0" />
    <path
       style="fill:#fecbfe;stroke-width:0.000357143"
       d="M 9.3283813,11.509374 C 9.1037381,11.305223 8.7198381,11.108989 8.4265706,11.048403 c -0.11773,-0.02432 -0.2217409,-0.05191 -0.2311356,-0.0613 -0.00939,-0.0094 0.017916,-0.0701 0.06069,-0.134904 0.042774,-0.0648 0.1863272,-0.349854 0.3190063,-0.633448 C 8.7078106,9.9351563 8.8537466,9.6398438 8.8994341,9.5625 8.9451213,9.4851562 9.0933541,9.1899834 9.22884,8.9065603 9.3643259,8.6231372 9.4998094,8.3559497 9.5299144,8.3128103 9.5600191,8.2696709 9.7005506,7.9882812 9.8422063,7.6875 9.9838619,7.3867187 10.129894,7.0914063 10.166723,7.03125 10.203553,6.971094 10.357003,6.6637247 10.507728,6.3482072 10.658452,6.03269 10.80978,5.7352069 10.844011,5.6871331 c 0.03423,-0.048073 0.06224,-0.094435 0.06224,-0.1030256 0,-0.032285 0.532069,-1.1022194 0.575977,-1.1582281 0.04371,-0.055754 0.05362,-0.051654 0.211503,0.087514 0.226766,0.1998847 0.607308,0.3836166 0.923166,0.4457185 l 0.257521,0.050632 -0.09721,0.1748156 c -0.12536,0.2254475 -0.312379,0.5990706 -0.483111,0.9651506 -0.07447,0.1596844 -0.162033,0.3284344 -0.194577,0.375 -0.03255,0.046566 -0.175073,0.3307584 -0.316728,0.6315397 -0.141656,0.3007812 -0.287688,0.5960937 -0.324516,0.65625 -0.03683,0.060156 -0.188809,0.3644431 -0.337735,0.6761934 -0.148925,0.31175 -0.29559,0.6046935 -0.325921,0.6509854 -0.03033,0.046292 -0.166727,0.3184275 -0.303099,0.6047462 -0.136373,0.2863192 -0.272543,0.5558752 -0.3026,0.5990152 -0.03006,0.04314 -0.174702,0.33398 -0.3214336,0.646313 -0.1467316,0.312333 -0.28597,0.595268 -0.3094185,0.628746 -0.040694,0.0581 -0.051143,0.05313 -0.2296896,-0.109125 z"
       id="path831"
       inkscape:connector-curvature="0" />
    <path
       style="fill:#fefe00;stroke-width:0.000357143"
       d="M 4.9118259,3.5859375 C 5.0271528,3.2198125 5.0187206,2.7677377 4.8882187,2.3203125 L 4.8677106,2.25 H 8 11.132289 l -0.02051,0.070312 c -0.130502,0.4474252 -0.138934,0.8995 -0.02361,1.265625 l 0.06153,0.195313 H 8 4.8503037 Z"
       id="path829"
       inkscape:connector-curvature="0" />
    <path
       style="fill:#32cbfe;stroke-width:0.000357143"
       d="M 6.4304534,11.520493 C 6.3854834,11.449065 6.2314391,11.144531 6.0881325,10.84375 5.9448262,10.542969 5.7974113,10.247656 5.7605437,10.1875 5.7236763,10.127344 5.5776119,9.8320313 5.4359562,9.53125 5.2943006,9.2304688 5.1537691,8.9490791 5.1236644,8.9059397 5.0935594,8.8628003 4.9583953,8.5956128 4.8233,8.3121897 4.6882044,8.0287666 4.5474856,7.7476563 4.5105916,7.6875 4.4736978,7.6273437 4.3276119,7.3320312 4.1859562,7.03125 4.0443006,6.7304687 3.9039322,6.4492187 3.8740266,6.40625 3.8441209,6.3632812 3.7093491,6.0960937 3.5745341,5.8125 3.4397188,5.5289063 3.2906119,5.2346069 3.2431856,5.1585009 3.1957594,5.0823953 3.1606303,5.0164531 3.1651209,5.0119625 3.1696116,5.0074716 3.2784372,4.9821159 3.4069553,4.9556162 3.7115628,4.8928081 4.0948241,4.7011472 4.32185,4.4980966 4.4900047,4.3477 4.5060422,4.3400675 4.5442125,4.3922684 c 0.022625,0.030942 0.1512225,0.2893244 0.2857712,0.5741825 0.1345488,0.2848582 0.2699154,0.5550863 0.3008141,0.6005063 0.030899,0.04542 0.1798191,0.3407328 0.3309331,0.65625 0.1511144,0.3155175 0.3113488,0.636949 0.356076,0.7142928 0.044728,0.077344 0.1771684,0.3445312 0.2943134,0.59375 0.1171453,0.2492187 0.2381609,0.4902872 0.2689244,0.5357072 0.030763,0.04542 0.1792531,0.3407328 0.3299778,0.65625 0.1507244,0.3155175 0.3041769,0.6228866 0.341005,0.6830428 0.036828,0.060156 0.1807294,0.35011 0.31978,0.644342 0.1390506,0.294231 0.3021222,0.616842 0.3623809,0.716911 0.060259,0.10007 0.1095616,0.192682 0.1095616,0.205805 0,0.01312 -0.052734,0.03268 -0.1171875,0.04346 -0.3976584,0.0665 -0.7717622,0.239128 -1.0439619,0.481736 l -0.1703837,0.15186 z"
       id="path827"
       inkscape:connector-curvature="0" />
    <path
       style="fill:#0000fe;stroke-width:0.000357143"
       d="m 7,13 v -1 h 1 1 v 1 1 H 8 7 Z"
       id="path825"
       inkscape:connector-curvature="0" />
    <path
       style="fill:#fe0000;stroke-width:0.000357143"
       d="M 12,3 V 2 h 1 1 v 1 1 h -1 -1 z"
       id="path823"
       inkscape:connector-curvature="0" />
    <path
       style="fill:#00fe00;stroke-width:0.000357143"
       d="M 2,3 V 2 H 3 4 V 3 4 H 3 2 Z"
       id="path821"
       inkscape:connector-curvature="0" />
    <path
       style="fill:#323232;stroke-width:0.000357143"
       d="M 7.5625,14.951405 C 7.4507813,14.927411 7.2403197,14.848998 7.0948078,14.777154 6.23507,14.352673 5.7950372,13.298418 6.0987013,12.390625 l 0.073174,-0.21875 -0.6963144,-1.40625 C 5.0925875,9.9921875 4.7518819,9.3101563 4.7184366,9.25 4.6849913,9.1898438 4.4040806,8.6273438 4.0941903,8 3.7843,7.3726563 3.5033834,6.8101563 3.4699313,6.75 3.4364791,6.6898437 3.2172516,6.2587297 2.9827591,5.7919691 2.5682423,4.9668672 2.553493,4.9427659 2.4513423,4.9236025 2.2146145,4.8791919 1.8351893,4.6514772 1.5909347,4.4072225 0.80435791,3.6206459 0.80476425,2.3789478 1.5918561,1.5918561 2.3596793,0.82403288 3.56581,0.80413722 4.3671725,1.546076 L 4.5874291,1.75 H 8 11.412571 L 11.632827,1.546076 C 11.891979,1.3061417 12.254886,1.1144867 12.578125,1.0468547 13.998177,0.74973425 15.250266,2.0018229 14.953145,3.421875 14.813612,4.0887563 14.286539,4.6757984 13.6256,4.9004647 L 13.47068,4.953125 13.006242,5.875 c -0.255441,0.5070312 -0.487515,0.9640625 -0.515721,1.015625 -0.02821,0.051563 -0.452937,0.9023437 -0.943848,1.890625 -0.49091,0.9882813 -0.919799,1.846094 -0.953085,1.90625 -0.03329,0.06016 -0.215261,0.425781 -0.404386,0.8125 l -0.3438636,0.703125 0.064005,0.203125 c 0.035203,0.111719 0.071399,0.329688 0.080437,0.484375 0.076872,1.315752 -1.1290675,2.339603 -2.4272804,2.06078 z M 9,13 V 12 H 8 7 v 1 1 h 1 1 z m 0.8674894,-2.010247 c 0.1467316,-0.312333 0.2913766,-0.603174 0.3214336,-0.646313 0.03006,-0.04314 0.166227,-0.312696 0.3026,-0.599015 0.136372,-0.2863187 0.272767,-0.5584544 0.303099,-0.6047462 0.03033,-0.046292 0.176996,-0.3392354 0.325921,-0.6509854 0.148926,-0.3117503 0.300906,-0.6160371 0.337734,-0.6761934 0.03683,-0.060156 0.182861,-0.3554688 0.324517,-0.65625 0.141655,-0.3007813 0.284183,-0.5849741 0.316728,-0.6315397 0.03254,-0.046566 0.120104,-0.2153156 0.194577,-0.375 0.170732,-0.36608 0.357751,-0.7397031 0.483111,-0.9651506 L 12.87442,5.0097441 12.616899,4.9591121 C 12.301038,4.89701 11.920496,4.7132781 11.69373,4.5133934 11.535846,4.3742259 11.525935,4.370125 11.482227,4.4258794 c -0.04391,0.056009 -0.575977,1.1259428 -0.575977,1.1582281 0,0.00859 -0.02801,0.054952 -0.06224,0.1030256 C 10.80978,5.7352069 10.658452,6.03269 10.507728,6.3482072 10.357003,6.6637247 10.203551,6.9710937 10.166722,7.03125 10.129894,7.0914063 9.9838619,7.3867187 9.8422062,7.6875 9.7005506,7.9882812 9.5600191,8.2696709 9.5299144,8.3128103 9.4998094,8.3559497 9.3643259,8.6231372 9.22884,8.9065603 9.0933541,9.1899834 8.9451212,9.4851562 8.8994341,9.5625 8.8537461,9.639844 8.7078106,9.9351563 8.5751316,10.21875 c -0.1326791,0.283594 -0.2762319,0.568645 -0.3190063,0.633448 -0.042774,0.0648 -0.070085,0.125509 -0.06069,0.134904 0.00939,0.0094 0.1134056,0.03698 0.2311356,0.0613 0.2932675,0.06059 0.6771675,0.25682 0.9018106,0.460971 0.1785472,0.16226 0.1889954,0.167224 0.2296897,0.109125 0.023448,-0.03348 0.1626869,-0.316413 0.3094185,-0.628746 z m -2.8081847,0.24887 c 0.2021334,-0.105825 0.4335965,-0.182785 0.6672578,-0.221859 0.064453,-0.01078 0.1171875,-0.03033 0.1171875,-0.04346 0,-0.01312 -0.049303,-0.105735 -0.1095616,-0.205805 C 7.6739297,10.667434 7.5108581,10.344823 7.3718075,10.050592 7.2327569,9.75636 7.0888559,9.4664063 7.0520275,9.40625 7.0151994,9.3460938 6.8617469,9.0387247 6.7110225,8.7232072 6.5602978,8.40769 6.4118078,8.1123775 6.3810447,8.0669572 6.3502812,8.0215372 6.2292656,7.7804687 6.1121203,7.53125 5.9949753,7.2820312 5.8625344,7.0148437 5.8178069,6.9375 5.7730797,6.8601562 5.6128453,6.5387247 5.4617309,6.2232072 5.3106169,5.90769 5.1616969,5.6123775 5.1307978,5.5669572 5.0998991,5.5215372 4.9645325,5.2513091 4.8299838,4.9664509 4.695435,4.6815928 4.5668378,4.4232106 4.5442125,4.3922684 4.5060422,4.3400675 4.4900047,4.3477 4.32185,4.4980966 4.0948241,4.7011472 3.7115628,4.8928081 3.4069553,4.9556162 c -0.1285181,0.0265 -0.2373437,0.051855 -0.2418344,0.056346 -0.00449,0.00449 0.030639,0.070433 0.078065,0.1465384 0.047426,0.076106 0.1965332,0.3704053 0.3313485,0.6539991 0.134815,0.2835937 0.2695868,0.5507812 0.2994925,0.59375 0.029906,0.042969 0.170274,0.3242187 0.3119297,0.625 0.1416556,0.3007812 0.2877415,0.5960937 0.3246353,0.65625 0.036894,0.060156 0.1776128,0.3412666 0.3127084,0.6246897 0.1350953,0.2834231 0.2702594,0.5506106 0.3003644,0.59375 0.030105,0.043139 0.1706362,0.324529 0.3122919,0.6253103 0.1416556,0.3007812 0.28772,0.5960943 0.3245875,0.6562503 0.036868,0.06016 0.1842825,0.355469 0.3275887,0.65625 0.1433066,0.300781 0.2973509,0.605315 0.3423209,0.676743 l 0.081764,0.129867 0.1703837,-0.15186 c 0.093711,-0.08352 0.2632282,-0.200468 0.3767033,-0.259877 z M 9.1338744,7.953125 C 9.2355153,7.7690925 10.9375,4.3249703 10.9375,4.3033228 c 0,-0.01214 -1.3148437,-0.022073 -2.921875,-0.022073 -1.6070313,0 -2.9219288,0.010547 -2.9219944,0.023437 -6.25e-5,0.012891 0.6573003,1.3395759 1.4608131,2.9481894 l 1.4609325,2.9247518 0.53336,-1.0653768 C 8.8420844,8.5262947 9.1053966,8.0046875 9.1338744,7.953125 Z M 4,3 V 2 H 3 2 V 3 4 H 3 4 Z M 14,3 V 2 h -1 -1 v 1 1 h 1 1 z m -2.911826,0.5859375 c -0.115327,-0.366125 -0.106895,-0.8181998 0.02361,-1.265625 L 11.132289,2.25 H 8 4.8677106 l 0.020508,0.070312 c 0.1305019,0.4474252 0.1389341,0.8995 0.023607,1.265625 L 4.8503037,3.78125 H 8 11.149696 Z"
       id="path819"
       inkscape:connector-curvature="0" />
  </g>
</svg>
