<?xml version="1.0" encoding="UTF-8" standalone="no"?>
<!-- Created with Inkscape (http://www.inkscape.org/) -->

<svg
   version="1.1"
   id="svg2"
   width="1600"
   height="1600"
   viewBox="0 0 1600 1600"
   sodipodi:docname="node_prunegrid.svg"
   inkscape:version="1.4 (86a8ad7, 2024-10-11)"
   inkscape:export-filename="VOLUME_CUBE.png"
   inkscape:export-xdpi="3072"
   inkscape:export-ydpi="3072"
   xml:space="preserve"
   xmlns:inkscape="http://www.inkscape.org/namespaces/inkscape"
   xmlns:sodipodi="http://sodipodi.sourceforge.net/DTD/sodipodi-0.dtd"
   xmlns="http://www.w3.org/2000/svg"
   xmlns:svg="http://www.w3.org/2000/svg"
   xmlns:rdf="http://www.w3.org/1999/02/22-rdf-syntax-ns#"
   xmlns:cc="http://creativecommons.org/ns#"
   xmlns:dc="http://purl.org/dc/elements/1.1/"><metadata
     id="metadata8"><rdf:RDF><cc:Work
         rdf:about=""><dc:format>image/svg+xml</dc:format><dc:type
           rdf:resource="http://purl.org/dc/dcmitype/StillImage" /></cc:Work></rdf:RDF></metadata><defs
     id="defs6" /><sodipodi:namedview
     pagecolor="#808080"
     bordercolor="#666666"
     borderopacity="1"
     objecttolerance="10"
     gridtolerance="10"
     guidetolerance="10"
     inkscape:pageopacity="0"
     inkscape:pageshadow="2"
     inkscape:window-width="2560"
     inkscape:window-height="1009"
     id="namedview4"
     showgrid="true"
     inkscape:zoom="0.32593203"
     inkscape:cx="682.65767"
     inkscape:cy="678.05548"
     inkscape:window-x="1912"
     inkscape:window-y="-8"
     inkscape:window-maximized="1"
     inkscape:current-layer="MESH_CUBE"
     inkscape:showpageshadow="0"
     inkscape:pagecheckerboard="1"
     inkscape:deskcolor="#d1d1d1"><inkscape:grid
       type="xygrid"
       id="grid10683"
       originx="0"
       originy="0"
       spacingy="100"
       spacingx="100"
       units="px" /></sodipodi:namedview><g
     id="MESH_CUBE"
     transform="matrix(100,0,0,100,0,4.9999997e-5)"
     style="display:inline;stroke-width:0.0114286;enable-background:new"
     inkscape:label="VOLUME_CUBE"><g
       id="g3"
       transform="translate(-2.3200004,-2.3200004)"
       inkscape:label="Grid"
       style="display:inline;stroke-width:0.0114286;enable-background:new"><path
         id="rect1"
         style="baseline-shift:baseline;display:inline;overflow:visible;vector-effect:none;fill:#323232;stroke-linecap:round;stroke-linejoin:round;paint-order:markers stroke fill;enable-background:accumulate;stop-color:#000000;stop-opacity:1"
         d="M 4.1230891,2.3199999 H 14.516912 c 0.998911,0 1.803088,0.8041776 1.803088,1.8030887 V 14.516911 C 16.32,15.515822 15.515823,16.32 14.516912,16.32 H 4.1230891 C 3.124178,16.32 2.3200004,15.515822 2.3200004,14.516911 V 4.1230886 c 0,-0.9989111 0.8041776,-1.8030887 1.8030887,-1.8030887 z" /><g
         id="rect2-2-5-7"
         transform="matrix(1.0716036,0,0,1.0716036,-0.77860787,-0.66768013)"
         style="stroke-width:0.0106649"><path
           style="fill:#cb6500;stroke-width:0.0106649;stroke-linecap:round;stroke-linejoin:round;paint-order:markers stroke fill"
           d="m 4.953125,3.3203125 c -0.8957377,0 -1.6328125,0.7370748 -1.6328125,1.6328125 V 7.6875 c 0,0.8957377 0.7370748,1.6328125 1.6328125,1.6328125 h 2.8398437 c 0.8957378,0 1.6308594,-0.7370748 1.6308594,-1.6328125 V 4.953125 c 0,-0.8957377 -0.7351216,-1.6328125 -1.6308594,-1.6328125 z m 0,1 h 2.8398437 c 0.3590371,0 0.6308594,0.2737753 0.6308594,0.6328125 V 7.6875 c 0,0.3590372 -0.2718223,0.6328125 -0.6308594,0.6328125 H 4.953125 C 4.5940879,8.3203125 4.3203125,8.0465372 4.3203125,7.6875 V 4.953125 c 0,-0.3590372 0.2737754,-0.6328125 0.6328125,-0.6328125 z"
           id="path10" /><path
           style="fill:#fecb32;stroke-width:0.0106649;stroke-linecap:round;stroke-linejoin:round;paint-order:markers stroke fill"
           d="m 4.9524665,3.8199978 h 2.8396153 c 0.6273874,0 1.1324683,0.5050809 1.1324683,1.1324683 v 2.7350672 c 0,0.6273874 -0.5050809,1.1324683 -1.1324683,1.1324683 H 4.9524665 c -0.6273874,0 -1.1324682,-0.5050809 -1.1324682,-1.1324683 V 4.9524661 c 0,-0.6273874 0.5050808,-1.1324683 1.1324682,-1.1324683 z"
           id="path11" /></g><g
         id="rect2-2-5-7-2"
         transform="matrix(1.0716036,0,0,1.0716036,-0.61860782,-0.66768013)"
         style="stroke-width:0.0106649"><path
           style="fill:#cb6500;stroke-width:0.0106649;stroke-linecap:round;stroke-linejoin:round;paint-order:markers stroke fill"
           d="m 10.900391,3.3203125 c -0.895738,0 -1.6328129,0.7370748 -1.6328129,1.6328125 V 7.6875 c 0,0.8957377 0.7370749,1.6328125 1.6328129,1.6328125 h 2.839843 c 0.895738,0 1.632813,-0.7370748 1.632813,-1.6328125 V 4.953125 c 0,-0.8957377 -0.737075,-1.6328125 -1.632813,-1.6328125 z m 0,1 h 2.839843 c 0.359037,0 0.632813,0.2737753 0.632813,0.6328125 V 7.6875 c 0,0.3590372 -0.273776,0.6328125 -0.632813,0.6328125 h -2.839843 c -0.359037,0 -0.632813,-0.2737753 -0.632813,-0.6328125 V 4.953125 c 0,-0.3590372 0.273776,-0.6328125 0.632813,-0.6328125 z"
           id="path8" /><path
           style="fill:#fecb32;stroke-width:0.0106649;stroke-linecap:round;stroke-linejoin:round;paint-order:markers stroke fill"
           d="m 10.900192,3.8199978 h 2.839616 c 0.627387,0 1.132468,0.5050809 1.132468,1.1324683 v 2.7350672 c 0,0.6273874 -0.505081,1.1324683 -1.132468,1.1324683 h -2.839616 c -0.627387,0 -1.132468,-0.5050809 -1.132468,-1.1324683 V 4.9524661 c 0,-0.6273874 0.505081,-1.1324683 1.132468,-1.1324683 z"
           id="path9" /></g><g
         id="rect2-2-5-7-2-7-9"
         transform="matrix(1.0716036,0,0,1.0716036,-0.64256442,-0.66768013)"
         style="stroke-width:0.0106649"><path
           style="fill:#cb6500;stroke-width:0.0106649;stroke-linecap:round;stroke-linejoin:round;paint-order:markers stroke fill"
           d="m 4.8242187,9.3203125 c -0.8957377,0 -1.6308593,0.7370745 -1.6308593,1.6328125 V 13.6875 c 0,0.895738 0.7351216,1.632812 1.6308593,1.632813 h 2.8398438 c 0.8957377,0 1.6328125,-0.737075 1.6328125,-1.632813 v -2.734375 c 0,-0.895738 -0.7370748,-1.6328125 -1.6328125,-1.6328125 z m 0,1.0000005 h 2.8398438 c 0.3590371,0 0.6328125,0.273775 0.6328125,0.632812 V 13.6875 c 0,0.359037 -0.2737754,0.632813 -0.6328125,0.632813 H 4.8242187 c -0.359037,0 -0.6308593,-0.273776 -0.6308593,-0.632813 v -2.734375 c 0,-0.359037 0.2718223,-0.632813 0.6308593,-0.632812 z"
           id="path4" /><path
           style="fill:#fecb32;stroke-width:0.0106649;stroke-linecap:round;stroke-linejoin:round;paint-order:markers stroke fill"
           d="m 4.8250043,9.8199978 h 2.8396154 c 0.6273874,0 1.1324682,0.5050812 1.1324682,1.1324682 v 2.735067 c 0,0.627388 -0.5050808,1.132469 -1.1324682,1.132469 H 4.8250043 c -0.6273874,0 -1.1324682,-0.505081 -1.1324682,-1.132469 v -2.735067 c 0,-0.627387 0.5050808,-1.1324682 1.1324682,-1.1324682 z"
           id="path5" /></g></g><path
       inkscape:connector-curvature="0"
       id="path827-666"
       d="M 0,8 V 0 h 8 8 v 8 8 H 8 0 Z m 11.326467,6.00029 c 3.319702,-1.106746 3.322552,-1.107867 3.51104,-1.381855 0.206207,-0.299746 0.193743,-0.0036 0.193743,-4.60281 0,-4.5991825 0.01246,-4.3030644 -0.193743,-4.60281 C 14.649019,3.1388275 14.646169,3.1377059 11.326467,2.0309595 8.4439647,1.0699703 8.2195475,1.0000958 8.015625,1.0000958 c -0.2039225,0 -0.4283397,0.069875 -3.3108416,1.0308637 C 1.3850808,3.1377059 1.3822313,3.1388275 1.1937435,3.412815 0.98753566,3.7125606 1,3.4164425 1,8.015625 c 0,4.599183 -0.0124643,4.303064 0.1937435,4.60281 0.1884878,0.273988 0.1913373,0.275109 3.5110399,1.381855 2.8825019,0.96099 3.1069191,1.030864 3.3108416,1.030864 0.2039225,0 0.4283397,-0.06987 3.310842,-1.030864 z"
       style="fill:#ffffff;fill-opacity:0;stroke-width:0.000357143" /><g
       id="CLEAN_CHANNELS"
       style="stroke-width:0.0145962"
       transform="matrix(0.78298538,0,0,0.78298538,4,4)"><path
         style="fill:none;stroke-width:0.00045613"
         d="M 0,8 V 0 h 8 8 v 8 8 H 8 0 Z m 6.3838162,7.206258 c 0.055307,-0.02406 0.5252772,-0.470543 1.0443772,-0.992188 L 8.3720119,13.265625 8.9249816,12.15625 c 0.3041334,-0.610156 0.5582253,-1.115529 0.564649,-1.123051 0.00642,-0.0075 0.071151,0.0444 0.1438372,0.115372 0.072686,0.07098 0.1717444,0.143928 0.2201291,0.162114 0.1123534,0.04223 0.3048461,0.04237 0.4178061,3.12e-4 0.117148,-0.04362 1.222956,-1.142749 1.278652,-1.270924 0.08084,-0.1860342 0.04468,-0.420968 -0.08631,-0.5608167 l -0.06334,-0.067625 0.0718,-0.09711 c 0.116355,-0.157379 0.114969,-0.423699 -0.0039,-0.7520146 -0.0529,-0.1460938 -0.137934,-0.3921875 -0.188963,-0.546875 -0.09254,-0.2805204 -0.09372,-0.2821925 -0.45507,-0.6444963 -0.237292,-0.2379181 -0.349453,-0.37118 -0.325084,-0.3862409 0.02046,-0.012647 0.474765,-0.1684247 1.009558,-0.3461722 l 0.972351,-0.3231775 1.403195,-1.3999566 c 0.791631,-0.7898044 1.422269,-1.4437837 1.44696,-1.5005153 0.05347,-0.1228581 0.0623,-1.1737125 0.01102,-1.3114694 C 15.298664,1.9865134 14.074648,0.75574153 13.946316,0.69996334 13.82319,0.64644747 12.710698,0.63753203 12.572347,0.68895241 12.459081,0.73104947 9.8264153,3.3552525 9.7522281,3.5000063 9.7213975,3.5601625 9.5587278,4.024225 9.39074,4.5312563 9.2227525,5.0382875 9.0716756,5.4795616 9.0550138,5.5118656 9.0282097,5.5638328 8.9845919,5.5306513 8.6764222,5.2238578 L 8.328125,4.8771097 7.875,4.7017881 C 7.6257812,4.6053616 7.3585937,4.5055172 7.28125,4.4799122 7.0842809,4.4147047 6.8081153,4.4371341 6.684725,4.5283603 L 6.588375,4.599595 6.52075,4.5362541 C 6.3879978,4.4119119 6.1608009,4.37116 5.9785969,4.4390091 5.8614491,4.4826325 4.7556409,5.5817584 4.6999453,5.7099337 4.6480691,5.8293197 4.6433119,6.02397 4.6892781,6.1464031 c 0.018165,0.048385 0.097487,0.1537438 0.1762691,0.2341316 L 5.0087884,6.5266944 3.8247066,7.1202903 2.640625,7.7138862 1.7280306,8.6303806 C 1.2261037,9.1344525 0.80071306,9.5864622 0.78271812,9.6348469 c -0.0418174,0.1124378 -0.0417933,0.2742262 5.625e-5,0.3865561 0.0438219,0.11762 0.98693483,1.066948 1.11536593,1.122716 0.061336,0.02663 0.1186312,0.0839 0.1453036,0.145239 0.055845,0.128421 1.8797881,1.946595 1.9961775,1.989865 0.049003,0.01822 0.1004403,0.06965 0.1186622,0.118654 0.041068,0.110443 1.6698844,1.750406 1.79484,1.807124 0.1223019,0.05551 0.3047394,0.05605 0.4306912,0.0013 z M 13.131953,2.920103 c -0.04842,-0.033915 -0.06945,-0.080556 -0.06945,-0.1540178 0,-0.1685835 0.150117,-0.273207 0.287882,-0.2006382 0.09584,0.050486 0.117323,0.08806 0.11789,0.2062185 5.23e-4,0.1092144 -0.08983,0.1970845 -0.202647,0.1970845 -0.03532,0 -0.09547,-0.021891 -0.133672,-0.048647 z"
         id="path827"
         inkscape:connector-curvature="0" /><path
         style="fill:#98cbfe;stroke-width:0.00045613"
         d="M 7.5938903,8.3907653 5.141055,5.9377806 5.6562503,5.4218747 6.1714459,4.9059684 8.6324628,7.3668372 11.093479,9.8277062 10.586157,10.335728 c -0.279027,0.279412 -0.514546,0.508022 -0.523376,0.508022 -0.0088,0 -1.1198313,-1.1038431 -2.4688907,-2.4529847 z"
         id="path825"
         inkscape:connector-curvature="0" /><path
         style="fill:#cbcbcb;stroke-width:0.00045613"
         d="M 5.4012559,13.976577 C 4.9776578,13.551178 4.6221425,13.172781 4.6112225,13.135695 4.5881216,13.05724 4.3327034,12.8125 4.2739266,12.8125 4.2275797,12.8125 2.5,11.093033 2.5,11.046904 2.5,11.029958 2.8403125,10.675569 3.25625,10.259371 3.9607869,9.5543937 4.0125,9.4950313 4.0125,9.3912547 4.0125,9.2426369 3.9136113,9.14375 3.7649906,9.14375 3.661145,9.14375 3.6012219,9.196089 2.8811592,9.9157194 L 2.1087263,10.687689 1.6794587,10.257598 1.2501913,9.8275078 2.1016581,8.9800003 2.953125,8.1324931 4.1649184,7.5280728 5.3767116,6.9236522 7.2374262,8.7843666 9.0981409,10.645081 8.5045434,11.830353 7.9109459,13.015625 7.0411906,13.882827 6.171435,14.750029 Z"
         id="path823"
         inkscape:connector-curvature="0" /><path
         style="fill:#fecb32;stroke-width:0.00045613"
         d="M 8.9986531,6.9803319 C 7.2146422,5.1938131 6.9671084,4.9347434 7.0625,4.9539478 c 0.060156,0.012111 0.1234375,0.031833 0.140625,0.043828 0.017188,0.011995 0.1367187,0.060738 0.265625,0.1083182 0.1289062,0.04758 0.2625,0.098004 0.296875,0.1120537 C 7.8,5.2321975 7.8773437,5.2612444 7.9375,5.2826966 8.0036328,5.3062803 8.1889563,5.4613438 8.40625,5.6749088 8.6039063,5.8691731 8.8052122,6.0428844 8.8535969,6.0609334 9.1246659,6.1620516 9.4130337,6.0117319 9.5400031,5.703125 9.5682887,5.634375 9.7275856,5.1632813 9.8939959,4.65625 L 10.19656,3.734375 11.480585,2.4453125 12.76461,1.15625 h 0.485199 0.485199 l 0.569996,0.5706211 0.569996,0.570621 v 0.4529527 0.4529527 l -1.335937,1.3325356 c -1.112406,1.1095728 -1.356853,1.3386485 -1.460938,1.3690678 -0.06875,0.020092 -0.174219,0.055609 -0.234375,0.078925 -0.06016,0.023317 -0.41875,0.1436535 -0.796875,0.2674157 -0.768878,0.2516578 -0.777583,0.2552287 -0.901227,0.369664 -0.131814,0.1219966 -0.176898,0.2309 -0.176898,0.4273107 v 0.17642 l 0.393334,0.4005965 c 0.216334,0.2203281 0.389799,0.4053094 0.385478,0.4110694 -0.01173,0.015642 0.125066,0.4360634 0.171187,0.5260975 0.05224,0.1019853 0.154308,0.4373594 0.138051,0.4536172 -0.0069,0.00694 -0.933106,-0.9091634 -2.0581469,-2.035785 z M 13.543207,3.4388947 c 0.117933,-0.044838 0.335745,-0.2536369 0.383445,-0.3675785 0.06406,-0.1530199 0.05432,-0.5188009 -0.01754,-0.6584986 -0.272763,-0.5302794 -1.077544,-0.498177 -1.309537,0.052237 -0.07174,0.1702174 -0.07127,0.4331112 0.0011,0.5974456 0.05466,0.1241528 0.213701,0.2853666 0.352478,0.3572825 0.105808,0.054832 0.465491,0.066481 0.590082,0.019112 z"
         id="path821"
         inkscape:connector-curvature="0" /><path
         style="fill:#323232;stroke-width:0.00045613"
         d="M 5.953125,15.205001 C 5.8281694,15.148283 4.1993528,13.50832 4.158285,13.397877 4.1400631,13.348874 4.0886259,13.29744 4.0396228,13.279223 3.9232334,13.235953 2.0992906,11.417779 2.0434453,11.289358 2.0167729,11.228023 1.9594774,11.170753 1.8981417,11.144119 1.7697106,11.088351 0.82659769,10.139023 0.78277578,10.021403 0.74092488,9.9090731 0.74090075,9.7472847 0.78271953,9.6348469 0.80071447,9.5864622 1.2261051,9.1345669 1.728032,8.630635 L 2.640625,7.7143947 3.59375,7.237065 C 4.1179687,6.9745337 4.6507084,6.7072025 4.7776159,6.6429956 L 5.0083566,6.5262559 4.8653313,6.3803156 C 4.7866675,6.3000481 4.7074434,6.1947878 4.6892781,6.1464031 4.6433119,6.02397 4.6480691,5.8293197 4.6999453,5.7099338 4.7556409,5.5817584 5.8614491,4.4826325 5.9785969,4.4390091 6.1608009,4.37116 6.3879978,4.4119119 6.52075,4.5362541 l 0.067625,0.063341 0.09635,-0.071235 C 6.8081153,4.4371341 7.0842809,4.4147047 7.28125,4.4799122 7.3585938,4.5055172 7.6257813,4.6053616 7.875,4.7017881 L 8.328125,4.8771097 8.6764222,5.2238516 C 8.9845919,5.530645 9.0282097,5.5638266 9.0550138,5.5118594 9.0716756,5.4795553 9.2227525,5.0382813 9.39074,4.53125 9.5587278,4.0242188 9.7213975,3.5601563 9.7522281,3.5 9.8264153,3.3552463 12.459081,0.73104322 12.572347,0.68894616 c 0.138351,-0.0514204 1.250843,-0.0425049 1.373969,0.0110109 0.128332,0.0557782 1.352348,1.28655014 1.395936,1.40363984 0.05128,0.1377568 0.04245,1.1886112 -0.01102,1.3114694 -0.02469,0.056732 -0.655329,0.7107109 -1.44696,1.5005153 l -1.403195,1.3999565 -0.972351,0.3231775 c -0.534793,0.1777475 -0.989094,0.333525 -1.009558,0.3461722 -0.02437,0.015061 0.08779,0.1483228 0.325084,0.386241 0.36135,0.3623037 0.362531,0.3639759 0.45507,0.6444962 0.05103,0.1546875 0.136062,0.4007813 0.188963,0.546875 0.118884,0.3283156 0.12027,0.5946356 0.0039,0.7520147 l -0.0718,0.09711 0.06334,0.067625 c 0.130989,0.1398488 0.167145,0.3747825 0.08631,0.5608163 -0.0557,0.128176 -1.161504,1.227302 -1.278652,1.270925 -0.11296,0.04206 -0.3054527,0.04192 -0.4178061,-3.13e-4 -0.048385,-0.01818 -0.1474428,-0.09114 -0.2201291,-0.162113 -0.072686,-0.07098 -0.1380434,-0.122894 -0.1452375,-0.115372 -0.00719,0.0075 -0.2665575,0.519926 -0.5763631,1.138676 l -0.5632831,1.125 -0.9477294,0.943846 c -0.5212513,0.519116 -0.9873169,0.958569 -1.0357016,0.976563 -0.1196218,0.04449 -0.29872,0.03915 -0.4120281,-0.01228 z M 8.512695,11.822787 9.1008059,10.647877 7.2458141,8.7926884 C 6.2255684,7.7723347 5.3794844,6.9375 5.3656275,6.9375 c -0.013857,0 -0.5623388,0.2684244 -1.2188484,0.5964984 L 2.953125,8.1304969 2.1016581,8.9790022 1.2501913,9.8275078 1.6794588,10.257598 2.1087263,10.687689 2.8811592,9.9157194 C 3.6012219,9.1960891 3.661145,9.14375 3.7649906,9.14375 3.9136112,9.14375 4.0125,9.242637 4.0125,9.3912547 4.0125,9.4950313 3.960787,9.5543937 3.25625,10.259371 2.8403125,10.675569 2.5,11.029958 2.5,11.046904 c 0,0.04613 1.7275797,1.765596 1.7739266,1.765596 0.058777,0 0.314195,0.24474 0.3372959,0.323195 0.01092,0.03709 0.3664359,0.415484 0.7900353,0.840884 l 0.7701806,0.773453 0.8765728,-0.876168 0.8765729,-0.876168 z M 10.586158,10.335728 11.093479,9.8277062 8.6324628,7.3668372 6.1714459,4.9059684 5.6575144,5.4206087 C 5.3748519,5.7036612 5.1539406,5.9463028 5.1666,5.9598122 c 0.1667409,0.1779369 4.884502,4.8839378 4.896143,4.8839378 0.0089,0 0.244387,-0.22861 0.523415,-0.508022 z M 11.014094,8.8220622 C 10.983665,8.7222716 10.940761,8.6054688 10.918749,8.5625 10.872628,8.4724659 10.735827,8.0520441 10.747562,8.0364025 10.751883,8.0306425 10.578418,7.8456612 10.362084,7.6253331 L 9.96875,7.2247366 v -0.17642 c 0,-0.1964107 0.045084,-0.3053141 0.176898,-0.4273107 0.123644,-0.1144353 0.132349,-0.1180062 0.901227,-0.369664 0.378125,-0.1237622 0.736719,-0.2440991 0.796875,-0.2674156 0.06016,-0.023316 0.165625,-0.058833 0.234375,-0.078925 0.104085,-0.030419 0.348532,-0.259495 1.460938,-1.3690678 L 14.875,3.2033975 V 2.7504448 2.2974921 L 14.305004,1.7268711 13.735008,1.15625 H 13.249809 12.76461 L 11.480585,2.4453125 10.19656,3.734375 9.8939959,4.65625 C 9.7275856,5.1632812 9.5682887,5.634375 9.5400031,5.703125 9.4130338,6.0117319 9.1246659,6.1620516 8.8535969,6.0609334 8.8052122,6.0428844 8.6039063,5.8691731 8.40625,5.6749087 8.1889563,5.4613437 8.0036328,5.3062803 7.9375,5.2826966 7.8773438,5.2612444 7.8,5.2321975 7.765625,5.2181478 7.73125,5.2040984 7.5976563,5.1536741 7.46875,5.1060941 7.3398438,5.0585141 7.2203125,5.0097709 7.203125,4.9977759 7.1859375,4.9857809 7.1226563,4.9660584 7.0625,4.9539478 6.9671084,4.9347434 7.2146422,5.1938131 8.9986531,6.9803319 10.123694,8.1069537 11.04986,9.0230572 11.0568,9.0161172 11.0637,9.0091772 11.04452,8.9218522 11.01409,8.8220622 Z M 12.953125,3.4197825 C 12.814349,3.3478666 12.655303,3.1866528 12.600647,3.0625 c -0.07235,-0.1643344 -0.07282,-0.4272282 -0.0011,-0.5974456 0.231993,-0.5504138 1.036774,-0.5825161 1.309537,-0.052237 0.07186,0.1396977 0.0816,0.5054787 0.01754,0.6584986 -0.0477,0.1139416 -0.265511,0.3227404 -0.383445,0.3675785 -0.12459,0.047369 -0.484273,0.035719 -0.590082,-0.019112 z M 13.399297,2.920103 c 0.04737,-0.033177 0.0693,-0.08038 0.06898,-0.1484375 -5.66e-4,-0.1181584 -0.02205,-0.1557326 -0.11789,-0.2062185 -0.137765,-0.072569 -0.287882,0.032055 -0.287882,0.2006382 0,0.1149324 0.08793,0.2026648 0.203125,0.2026648 0.03532,0 0.09547,-0.021891 0.133672,-0.048647 z"
         id="path819"
         inkscape:connector-curvature="0" /></g></g></svg>
