<?xml version="1.0" encoding="UTF-8" standalone="no"?>
<!-- Created with Inkscape (http://www.inkscape.org/) -->

<svg
   version="1.1"
   id="svg2"
   width="1600"
   height="1600"
   viewBox="0 0 1600 1600"
   sodipodi:docname="node_diffuseshader.svg"
   inkscape:version="1.2.2 (732a01da63, 2022-12-09)"
   xmlns:inkscape="http://www.inkscape.org/namespaces/inkscape"
   xmlns:sodipodi="http://sodipodi.sourceforge.net/DTD/sodipodi-0.dtd"
   xmlns="http://www.w3.org/2000/svg"
   xmlns:svg="http://www.w3.org/2000/svg"
   xmlns:rdf="http://www.w3.org/1999/02/22-rdf-syntax-ns#"
   xmlns:cc="http://creativecommons.org/ns#"
   xmlns:dc="http://purl.org/dc/elements/1.1/">
  <metadata
     id="metadata8">
    <rdf:RDF>
      <cc:Work
         rdf:about="">
        <dc:format>image/svg+xml</dc:format>
        <dc:type
           rdf:resource="http://purl.org/dc/dcmitype/StillImage" />
      </cc:Work>
    </rdf:RDF>
  </metadata>
  <defs
     id="defs6" />
  <sodipodi:namedview
     pagecolor="#808080"
     bordercolor="#666666"
     borderopacity="1"
     objecttolerance="10"
     gridtolerance="10"
     guidetolerance="10"
     inkscape:pageopacity="0"
     inkscape:pageshadow="2"
     inkscape:window-width="1993"
     inkscape:window-height="1009"
     id="namedview4"
     showgrid="false"
     inkscape:zoom="0.5"
     inkscape:cx="453"
     inkscape:cy="240"
     inkscape:window-x="-8"
     inkscape:window-y="-8"
     inkscape:window-maximized="1"
     inkscape:current-layer="NODE_DIFFUSESHADER"
     inkscape:showpageshadow="0"
     inkscape:pagecheckerboard="true"
     inkscape:deskcolor="#d1d1d1" />
  <g
     id="NODE_DIFFUSESHADER"
     transform="matrix(100,0,0,100,0,4.9999997e-5)"
     style="stroke-width:0.0114286">
    <path
       style="fill:none;stroke-width:0.000357143"
       d="M 0,8 V 0 h 8 8 v 8 8 H 8 0 Z m 9.234375,7.409887 c 1.307585,-0.224235 2.458183,-0.736795 3.453076,-1.538252 0.385636,-0.310656 1.050687,-0.995119 1.332897,-1.3718 0.733654,-0.979249 1.199262,-2.090798 1.407115,-3.35921 0.0802,-0.4894316 0.0802,-1.7918184 0,-2.28125 C 15.21961,5.5909634 14.754002,4.4794141 14.020348,3.5001647 13.738138,3.1234842 13.073087,2.4390213 12.687451,2.1283649 11.673813,1.3118082 10.494122,0.79433234 9.140625,0.57253706 c -0.4894316,-0.0802023 -1.7918184,-0.0802023 -2.28125,0 C 5.5058784,0.79433234 4.3261869,1.3118082 3.3125488,2.1283649 2.9269135,2.4390213 2.2618616,3.1234842 1.9796525,3.5001647 1.2459985,4.4794141 0.78038959,5.5909634 0.57253706,6.859375 c -0.0802023,0.4894316 -0.0802023,1.7918184 0,2.28125 0.22179528,1.353497 0.73927114,2.533188 1.55582784,3.546826 0.3106564,0.385636 0.9951193,1.050687 1.3717998,1.332897 1.0955928,0.820818 2.3782881,1.314176 3.7967103,1.460315 0.06875,0.0071 0.4484375,0.0085 0.84375,0.0032 0.5478163,-0.0074 0.8079328,-0.02497 1.09375,-0.07398 z"
       id="path827"
       inkscape:connector-curvature="0" />
    <path
       style="fill:#fefefe;stroke-width:0.000357143"
       d="M 4.5625,6.9514053 C 3.8323191,6.7945809 3.2007041,6.1571794 3.0468548,5.421875 2.7497343,4.0018228 4.0018228,2.7497343 5.421875,3.0468548 6.1647875,3.2022959 6.7977041,3.8352125 6.9531453,4.578125 7.2513347,6.0032863 5.9878991,7.2575447 4.5625,6.9514053 Z"
       id="path825"
       inkscape:connector-curvature="0" />
    <path
       style="fill:#cbcbcb;stroke-width:0.000357143"
       d="M 7.421875,14.980816 C 7.0751806,14.944671 6.6021466,14.861504 6.2687884,14.778087 3.8136863,14.163732 1.8362677,12.186314 1.2219136,9.7312116 1.0560565,9.0684081 1.0169904,8.7383737 1.0169904,8 c 0,-0.7383738 0.039066,-1.0684081 0.2049232,-1.7312116 C 1.8362677,3.8136863 3.8136863,1.8362677 6.2687884,1.2219136 6.9315919,1.0560565 7.2616262,1.0169904 8,1.0169904 c 0.7383738,0 1.0684081,0.039066 1.7312116,0.2049232 C 12.186314,1.8362677 14.163732,3.8136863 14.778087,6.2687884 14.943943,6.9315919 14.98301,7.2616263 14.98301,8 c 0,0.7383738 -0.03907,1.0684081 -0.204923,1.7312116 -0.488529,1.9522744 -1.860391,3.6475534 -3.668712,4.5336124 -0.997415,0.488723 -1.8652369,0.698733 -2.96875,0.718428 -0.3265625,0.0058 -0.65,0.0047 -0.71875,-0.0024 z m 1.3254069,-1.025122 c 0.093036,-0.0095 0.1933834,-0.0249 0.2229937,-0.0343 0.02961,-0.0094 0.1081769,-0.02395 0.1745928,-0.03234 0.066416,-0.0084 0.1442425,-0.0226 0.1729475,-0.03159 0.028705,-0.009 0.08144,-0.02278 0.1171875,-0.03065 0.035748,-0.0079 0.093122,-0.02134 0.1274966,-0.02994 0.034375,-0.0086 0.087109,-0.0214 0.1171875,-0.02845 0.030078,-0.0071 0.1214844,-0.04171 0.203125,-0.07701 0.081641,-0.03531 0.1484375,-0.0573 0.1484375,-0.04888 0,0.0084 0.04219,-0.0065 0.09375,-0.03316 0.05156,-0.02666 0.09375,-0.04076 0.09375,-0.03133 0,0.0094 0.03516,-0.0059 0.07813,-0.03404 0.04297,-0.02815 0.07813,-0.04158 0.07813,-0.02984 0,0.01174 0.04084,-0.0077 0.09076,-0.04328 0.04992,-0.03555 0.107513,-0.06463 0.127988,-0.06463 0.02047,0 0.07807,-0.02908 0.127988,-0.06463 0.04992,-0.03554 0.09076,-0.05568 0.09076,-0.04475 0,0.01093 0.03867,-0.0077 0.08594,-0.04131 0.04726,-0.03366 0.09788,-0.06091 0.112471,-0.06057 0.01459,3.44e-4 0.09808,-0.05394 0.185524,-0.120623 0.08744,-0.06668 0.16898,-0.121247 0.18119,-0.121247 0.01221,0 0.08341,-0.04921 0.158226,-0.10935 0.07481,-0.06014 0.146966,-0.105715 0.160338,-0.101271 0.03177,0.01056 1.056876,-1.014542 1.046317,-1.046317 -0.0044,-0.01337 0.04113,-0.08552 0.101271,-0.160338 0.06014,-0.07481 0.10935,-0.146016 0.10935,-0.158226 0,-0.01221 0.05456,-0.09375 0.121248,-0.18119 0.06669,-0.08745 0.120966,-0.170931 0.120622,-0.185524 -3.43e-4,-0.01459 0.02691,-0.06521 0.06057,-0.112472 0.03366,-0.04726 0.05225,-0.08594 0.04131,-0.08594 -0.01093,0 0.0092,-0.04084 0.04475,-0.09076 0.03555,-0.04992 0.06463,-0.107513 0.06463,-0.127988 0,-0.02047 0.02908,-0.07807 0.06463,-0.127988 0.03554,-0.04992 0.05502,-0.09076 0.04328,-0.09076 -0.01174,0 0.0017,-0.03516 0.02984,-0.07813 0.02815,-0.04297 0.04347,-0.07813 0.03404,-0.07813 -0.0094,0 0.0047,-0.04219 0.03133,-0.09375 0.02666,-0.05156 0.04159,-0.09375 0.03316,-0.09375 -0.0084,0 0.01357,-0.066797 0.04888,-0.1484375 0.03531,-0.081641 0.06996,-0.1730469 0.07701,-0.203125 0.0071,-0.030078 0.01985,-0.082812 0.02845,-0.1171875 0.0086,-0.034375 0.02206,-0.091748 0.02994,-0.1274966 0.0079,-0.035748 0.02169,-0.088482 0.03071,-0.1171875 0.009,-0.028705 0.02409,-0.1139778 0.0335,-0.1894953 0.0094,-0.075518 0.02343,-0.1475587 0.03118,-0.1600922 0.07681,-0.1242868 0.07681,-1.81217 0,-1.9364568 -0.0077,-0.012533 -0.02178,-0.084575 -0.03118,-0.1600922 -0.0094,-0.075517 -0.02448,-0.1607903 -0.0335,-0.1894953 -0.009,-0.028705 -0.02284,-0.08144 -0.03071,-0.1171875 -0.0079,-0.035748 -0.02134,-0.093122 -0.02994,-0.1274966 -0.0086,-0.034375 -0.0214,-0.087109 -0.02845,-0.1171875 -0.0071,-0.030078 -0.04171,-0.1214844 -0.07701,-0.203125 -0.03531,-0.081641 -0.0573,-0.1484375 -0.04888,-0.1484375 0.0084,0 -0.0065,-0.042187 -0.03316,-0.09375 -0.02666,-0.051563 -0.04076,-0.09375 -0.03133,-0.09375 0.0094,0 -0.0059,-0.035156 -0.03404,-0.078125 C 13.515847,5.6601562 13.502418,5.625 13.514159,5.625 c 0.01174,0 -0.0077,-0.040843 -0.04328,-0.090762 -0.03555,-0.049919 -0.06463,-0.1075137 -0.06463,-0.1279884 0,-0.020475 -0.02908,-0.07807 -0.06463,-0.1279884 -0.03554,-0.049919 -0.05568,-0.090762 -0.04475,-0.090762 0.01093,0 -0.01266,-0.045703 -0.05244,-0.1015625 -0.03977,-0.055859 -0.06865,-0.1085938 -0.06416,-0.1171875 0.0045,-0.00859 -0.04479,-0.085048 -0.109496,-0.1698994 -0.06471,-0.084851 -0.117651,-0.164264 -0.117651,-0.176474 0,-0.01221 -0.04921,-0.083412 -0.109352,-0.1582257 -0.06014,-0.074814 -0.109362,-0.1441062 -0.109375,-0.1539818 -1.2e-5,-0.00988 -0.07737,-0.1019788 -0.171898,-0.2046732 -0.09453,-0.102694 -0.156302,-0.1649265 -0.137267,-0.1382937 0.07341,0.1027103 0.235607,0.4838069 0.248382,0.5835865 0.0074,0.057616 0.02602,0.1608582 0.04142,0.2294266 0.05689,0.2532103 0.0013,1.026525 -0.09138,1.2701775 -0.01741,0.045801 -0.0248,0.090139 -0.01641,0.098528 0.0084,0.00839 -0.0039,0.052305 -0.02732,0.09759 -0.02342,0.045285 -0.04987,0.1286138 -0.05879,0.1851747 -0.0089,0.056561 -0.03191,0.1217603 -0.05111,0.1448878 -0.01919,0.023128 -0.0414,0.07161 -0.04934,0.1077385 -0.0079,0.036129 -0.02068,0.093866 -0.0283,0.1283059 -0.0076,0.03444 -0.0248,0.080143 -0.03818,0.1015625 -0.01338,0.02142 -0.02692,0.056016 -0.03009,0.07688 -0.0032,0.020864 -0.03616,0.08063 -0.07332,0.1328125 -0.03716,0.052182 -0.05795,0.094877 -0.04621,0.094877 0.01174,0 -0.0017,0.035156 -0.02984,0.078125 -0.02815,0.042969 -0.04316,0.078125 -0.03334,0.078125 0.0098,0 -0.02569,0.063281 -0.07891,0.140625 -0.05321,0.077344 -0.08732,0.140625 -0.0758,0.140625 0.01152,0 0.0067,0.017578 -0.01079,0.039063 -0.01746,0.021484 -0.06137,0.091797 -0.09758,0.15625 -0.03621,0.064453 -0.09563,0.1699219 -0.132053,0.234375 -0.03642,0.064453 -0.106736,0.16843 -0.15625,0.2310594 C 11.540512,8.3796266 11.5,8.4408841 11.5,8.453125 c 0,0.012241 -0.04219,0.075522 -0.09375,0.140625 -0.05156,0.065103 -0.09375,0.12907 -0.09375,0.1421488 0,0.013079 -0.105469,0.1477868 -0.234375,0.2993509 -0.128906,0.1515637 -0.234375,0.2908253 -0.234375,0.3094697 0,0.044294 -1.4547369,1.4990306 -1.4990306,1.4990306 -0.018644,0 -0.157906,0.105469 -0.3094697,0.234375 C 8.8836856,11.207031 8.7489778,11.3125 8.7358988,11.3125 8.72282,11.3125 8.6588528,11.354688 8.59375,11.40625 8.5286472,11.457812 8.4653659,11.5 8.453125,11.5 c -0.012241,0 -0.073498,0.04051 -0.1361281,0.09003 -0.062629,0.04951 -0.1666063,0.119827 -0.2310594,0.15625 -0.064453,0.03642 -0.1699219,0.09585 -0.234375,0.132053 -0.064453,0.03621 -0.1347656,0.08012 -0.15625,0.09758 -0.021484,0.01746 -0.039063,0.02232 -0.039063,0.01079 0,-0.01152 -0.063281,0.02259 -0.140625,0.0758 -0.077344,0.05321 -0.140625,0.08872 -0.140625,0.07891 0,-0.0098 -0.035156,0.0052 -0.078125,0.03334 -0.042969,0.02815 -0.078125,0.04158 -0.078125,0.02984 0,-0.01174 -0.042695,0.0091 -0.094877,0.04621 -0.052182,0.03716 -0.1119481,0.07015 -0.1328125,0.07332 -0.020864,0.0032 -0.055461,0.01671 -0.07688,0.03009 -0.02142,0.01338 -0.067123,0.03057 -0.1015625,0.03818 -0.03444,0.0076 -0.092177,0.02035 -0.1283059,0.0283 -0.036129,0.0079 -0.084611,0.03015 -0.1077385,0.04934 -0.023128,0.01919 -0.088327,0.04219 -0.1448878,0.05111 -0.056561,0.0089 -0.1398894,0.03537 -0.1851747,0.05879 -0.045285,0.02342 -0.0892,0.03571 -0.09759,0.02732 -0.00839,-0.0084 -0.052727,-10e-4 -0.098528,0.01641 -0.2436525,0.09264 -1.0169672,0.148268 -1.2701775,0.09137 -0.068568,-0.01541 -0.1718103,-0.03405 -0.2294266,-0.04142 -0.09978,-0.01277 -0.4808762,-0.174975 -0.5835865,-0.248382 -0.026633,-0.01904 0.0356,0.04274 0.1382937,0.137267 0.1026944,0.09453 0.1947972,0.171886 0.2046732,0.171898 0.00988,1.3e-5 0.079167,0.04923 0.1539818,0.109375 0.074814,0.06014 0.146016,0.109352 0.1582257,0.109352 0.01221,0 0.093746,0.05456 0.1811903,0.121248 0.087445,0.06669 0.1709306,0.120966 0.1855244,0.120622 0.014593,-3.43e-4 0.065206,0.02691 0.1124712,0.06057 0.047266,0.03366 0.085937,0.05225 0.085937,0.04131 0,-0.01093 0.040843,0.0092 0.090762,0.04475 0.049919,0.03555 0.1075137,0.06463 0.1279884,0.06463 0.020475,0 0.07807,0.02908 0.1279884,0.06463 0.049919,0.03554 0.090762,0.05502 0.090762,0.04328 0,-0.01174 0.035156,0.0017 0.078125,0.02984 0.042969,0.02815 0.078125,0.04347 0.078125,0.03404 0,-0.0094 0.042187,0.0047 0.09375,0.03133 0.051563,0.02666 0.09375,0.04159 0.09375,0.03316 0,-0.0084 0.066797,0.01357 0.1484375,0.04888 0.081641,0.03531 0.1730469,0.06996 0.203125,0.07701 0.030078,0.0071 0.082813,0.01985 0.1171875,0.02845 0.034375,0.0086 0.091748,0.02206 0.1274966,0.02994 0.035748,0.0079 0.088482,0.02169 0.1171875,0.03071 0.028705,0.009 0.1139778,0.02409 0.1894953,0.0335 0.075518,0.0094 0.1475587,0.02343 0.1600922,0.03118 0.012533,0.0077 0.1332222,0.02222 0.2681972,0.03217 0.1349753,0.0099 0.2518693,0.02455 0.2597646,0.03245 0.017421,0.01742 0.9509722,-0.007 1.1875485,-0.03112 z M 5.421875,6.9531453 C 5.9893009,6.8344216 6.5219291,6.4225119 6.7769522,5.9051922 7.1715666,5.1047078 7.0294266,4.2131384 6.4081441,3.5918559 c -0.7875394,-0.787539 -2.0287488,-0.787539 -2.8162882,0 -0.787539,0.7875394 -0.787539,2.0287488 0,2.8162882 0.4871003,0.4871003 1.1554503,0.6861428 1.8300191,0.5450012 z"
       id="path823"
       inkscape:connector-curvature="0" />
    <path
       style="fill:#656565;stroke-width:0.000357143"
       d="m 7.5597334,13.986817 c -0.0079,-0.0079 -0.1247893,-0.0225 -0.2597646,-0.03245 -0.134975,-0.0099 -0.2556641,-0.02443 -0.2681972,-0.03217 -0.012533,-0.0077 -0.084575,-0.02178 -0.1600922,-0.03118 -0.075517,-0.0094 -0.1607903,-0.02448 -0.1894953,-0.0335 -0.028705,-0.009 -0.08144,-0.02284 -0.1171875,-0.03071 -0.035748,-0.0079 -0.093122,-0.02134 -0.1274966,-0.02994 -0.034375,-0.0086 -0.087109,-0.0214 -0.1171875,-0.02845 -0.030078,-0.0071 -0.1214844,-0.04171 -0.203125,-0.07701 -0.081641,-0.03531 -0.1484375,-0.0573 -0.1484375,-0.04888 0,0.0084 -0.042187,-0.0065 -0.09375,-0.03316 -0.051563,-0.02666 -0.09375,-0.04076 -0.09375,-0.03133 0,0.0094 -0.035156,-0.0059 -0.078125,-0.03404 C 5.6601562,13.515847 5.625,13.502418 5.625,13.514159 c 0,0.01174 -0.040843,-0.0077 -0.090762,-0.04328 -0.049919,-0.03555 -0.1075137,-0.06463 -0.1279884,-0.06463 -0.020475,0 -0.07807,-0.02908 -0.1279884,-0.06463 -0.049919,-0.03554 -0.090762,-0.05568 -0.090762,-0.04475 0,0.01093 -0.038672,-0.0077 -0.085937,-0.04131 -0.047266,-0.03366 -0.097878,-0.06091 -0.1124712,-0.06057 -0.014594,3.44e-4 -0.09808,-0.05394 -0.1855244,-0.120623 -0.087445,-0.06668 -0.1689803,-0.121247 -0.1811903,-0.121247 -0.01221,0 -0.083412,-0.04921 -0.1582257,-0.109352 -0.074814,-0.06014 -0.1441062,-0.109362 -0.1539818,-0.109375 -0.00988,-1.2e-5 -0.1019788,-0.07737 -0.2046732,-0.171898 -0.102694,-0.09453 -0.1649265,-0.156302 -0.1382937,-0.137267 0.1027103,0.07341 0.4838069,0.235607 0.5835865,0.248382 0.057616,0.0074 0.1608582,0.02602 0.2294266,0.04142 0.2532103,0.05689 1.026525,0.0013 1.2701775,-0.09138 0.045801,-0.01741 0.090139,-0.0248 0.098528,-0.01641 0.00839,0.0084 0.052305,-0.0039 0.09759,-0.02732 0.045285,-0.02342 0.1286138,-0.04987 0.1851747,-0.05879 0.056561,-0.0089 0.1217603,-0.03191 0.1448878,-0.05111 0.023128,-0.01919 0.07161,-0.0414 0.1077385,-0.04934 0.036129,-0.0079 0.093866,-0.02068 0.1283059,-0.0283 0.03444,-0.0076 0.080143,-0.0248 0.1015625,-0.03818 0.02142,-0.01338 0.056016,-0.02692 0.07688,-0.03009 0.020864,-0.0032 0.08063,-0.03616 0.1328125,-0.07332 0.052182,-0.03716 0.094877,-0.05795 0.094877,-0.04621 0,0.01174 0.035156,-0.0017 0.078125,-0.02984 0.042969,-0.02815 0.078125,-0.04316 0.078125,-0.03334 0,0.0098 0.063281,-0.02569 0.140625,-0.07891 0.077344,-0.05321 0.140625,-0.08732 0.140625,-0.0758 0,0.01152 0.017578,0.0067 0.039063,-0.01079 0.021484,-0.01746 0.091797,-0.06137 0.15625,-0.09758 0.064453,-0.03621 0.1699219,-0.09563 0.234375,-0.132053 0.064453,-0.03642 0.16843,-0.106736 0.2310594,-0.15625 C 8.3796266,11.540512 8.4408841,11.5 8.453125,11.5 c 0.012241,0 0.075522,-0.04219 0.140625,-0.09375 0.065103,-0.05156 0.12907,-0.09375 0.1421488,-0.09375 0.013079,0 0.1477868,-0.105469 0.2993509,-0.234375 0.1515637,-0.128906 0.2908253,-0.234375 0.3094697,-0.234375 0.044294,0 1.4990306,-1.4547369 1.4990306,-1.4990306 0,-0.018644 0.105469,-0.157906 0.234375,-0.3094697 C 11.207031,8.8836856 11.3125,8.7489778 11.3125,8.7358988 11.3125,8.72282 11.354688,8.6588528 11.40625,8.59375 11.457812,8.5286472 11.5,8.4653659 11.5,8.453125 c 0,-0.012241 0.04051,-0.073498 0.09003,-0.1361281 0.04951,-0.062629 0.119827,-0.1666063 0.15625,-0.2310594 0.03642,-0.064453 0.09585,-0.1699219 0.132053,-0.234375 0.03621,-0.064453 0.08012,-0.1347656 0.09758,-0.15625 0.01746,-0.021484 0.02232,-0.039063 0.01079,-0.039063 -0.01152,0 0.02259,-0.063281 0.0758,-0.140625 0.05321,-0.077344 0.08872,-0.140625 0.07891,-0.140625 -0.0098,0 0.0052,-0.035156 0.03334,-0.078125 0.02815,-0.042969 0.04158,-0.078125 0.02984,-0.078125 -0.01174,0 0.0091,-0.042695 0.04621,-0.094877 0.03716,-0.052182 0.07015,-0.1119481 0.07332,-0.1328125 0.0032,-0.020864 0.01671,-0.055461 0.03009,-0.07688 0.01338,-0.02142 0.03057,-0.067123 0.03818,-0.1015625 0.0076,-0.03444 0.02035,-0.092177 0.0283,-0.1283059 0.0079,-0.036129 0.03015,-0.084611 0.04934,-0.1077385 0.01919,-0.023128 0.04219,-0.088327 0.05111,-0.1448878 0.0089,-0.056561 0.03537,-0.1398894 0.05879,-0.1851747 0.02342,-0.045285 0.03571,-0.0892 0.02732,-0.09759 -0.0084,-0.00839 -10e-4,-0.052727 0.01641,-0.098528 0.09264,-0.2436525 0.148268,-1.0169672 0.09137,-1.2701775 -0.01541,-0.068568 -0.03405,-0.1718103 -0.04142,-0.2294266 -0.01277,-0.09978 -0.174975,-0.4808762 -0.248382,-0.5835865 -0.01904,-0.026633 0.04274,0.0356 0.137267,0.1382937 0.09453,0.1026944 0.171886,0.1947972 0.171898,0.2046732 1.3e-5,0.00988 0.04923,0.079167 0.109375,0.1539818 0.06014,0.074814 0.109352,0.146016 0.109352,0.1582257 0,0.01221 0.05294,0.091623 0.117651,0.176474 0.06471,0.084851 0.113982,0.1613056 0.109497,0.1698994 -0.0045,0.00859 0.02439,0.061328 0.06416,0.1171875 0.03978,0.055859 0.06337,0.1015625 0.05244,0.1015625 -0.01093,0 0.0092,0.040843 0.04475,0.090762 0.03555,0.049919 0.06463,0.1075137 0.06463,0.1279884 0,0.020475 0.02908,0.07807 0.06463,0.1279884 0.03554,0.049919 0.05502,0.090762 0.04328,0.090762 -0.01174,0 0.0017,0.035156 0.02984,0.078125 0.02815,0.042969 0.04347,0.078125 0.03404,0.078125 -0.0094,0 0.0047,0.042187 0.03133,0.09375 0.02666,0.051563 0.04159,0.09375 0.03316,0.09375 -0.0084,0 0.01357,0.066797 0.04888,0.1484375 0.03531,0.081641 0.06996,0.1730469 0.07701,0.203125 0.0071,0.030078 0.01985,0.082813 0.02845,0.1171875 0.0086,0.034375 0.02206,0.091748 0.02994,0.1274966 0.0079,0.035748 0.02169,0.088482 0.03071,0.1171875 0.009,0.028705 0.02409,0.1139778 0.0335,0.1894953 0.0094,0.075518 0.02343,0.1475587 0.03118,0.1600922 0.07681,0.1242868 0.07681,1.81217 0,1.9364568 -0.0077,0.012533 -0.02178,0.084575 -0.03118,0.1600922 -0.0094,0.075518 -0.02448,0.1607903 -0.0335,0.1894953 -0.009,0.028705 -0.02284,0.08144 -0.03071,0.1171875 -0.0079,0.035748 -0.02134,0.093122 -0.02994,0.1274966 -0.0086,0.034375 -0.0214,0.087109 -0.02845,0.1171875 -0.0071,0.030078 -0.04171,0.1214844 -0.07701,0.203125 -0.03531,0.081641 -0.0573,0.1484379 -0.04888,0.1484379 0.0084,0 -0.0065,0.04219 -0.03316,0.09375 -0.02666,0.05156 -0.04076,0.09375 -0.03133,0.09375 0.0094,0 -0.0059,0.03516 -0.03404,0.07813 -0.02815,0.04297 -0.04158,0.07813 -0.02984,0.07813 0.01174,0 -0.0077,0.04084 -0.04328,0.09076 -0.03555,0.04992 -0.06463,0.107513 -0.06463,0.127988 0,0.02047 -0.02908,0.07807 -0.06463,0.127988 -0.03554,0.04992 -0.05568,0.09076 -0.04475,0.09076 0.01093,0 -0.0077,0.03867 -0.04131,0.08594 -0.03366,0.04726 -0.06091,0.09788 -0.06057,0.112471 3.44e-4,0.01459 -0.05394,0.09808 -0.120623,0.185524 -0.06668,0.08744 -0.121247,0.16898 -0.121247,0.18119 0,0.01221 -0.04921,0.08341 -0.10935,0.158226 -0.06014,0.07481 -0.105715,0.146966 -0.101271,0.160338 0.01056,0.03177 -1.014542,1.056876 -1.046317,1.046317 -0.01337,-0.0044 -0.08552,0.04113 -0.160338,0.101271 -0.07481,0.06014 -0.146016,0.10935 -0.158226,0.10935 -0.01221,0 -0.09375,0.05456 -0.18119,0.121248 -0.08745,0.06669 -0.170931,0.120966 -0.185524,0.120622 -0.01459,-3.43e-4 -0.06521,0.02691 -0.112472,0.06057 -0.04726,0.03366 -0.08594,0.05225 -0.08594,0.04131 0,-0.01093 -0.04084,0.0092 -0.09076,0.04475 -0.04992,0.03555 -0.107513,0.06463 -0.127988,0.06463 -0.02047,0 -0.07807,0.02908 -0.127988,0.06463 -0.04992,0.03554 -0.09076,0.05502 -0.09076,0.04328 0,-0.01174 -0.03516,0.0017 -0.07813,0.02984 -0.04297,0.02815 -0.07813,0.04347 -0.07813,0.03404 0,-0.0094 -0.04219,0.0047 -0.09375,0.03133 -0.05156,0.02666 -0.09375,0.04159 -0.09375,0.03316 0,-0.0084 -0.066797,0.01357 -0.1484375,0.04888 -0.081641,0.03531 -0.1730469,0.06996 -0.203125,0.07701 -0.030078,0.0071 -0.082812,0.01985 -0.1171875,0.02845 -0.034375,0.0086 -0.091748,0.02206 -0.1274966,0.02994 -0.035748,0.0079 -0.088482,0.02166 -0.1171875,0.03065 -0.028705,0.009 -0.1065312,0.0232 -0.1729475,0.03159 -0.066416,0.0084 -0.1449828,0.02294 -0.1745928,0.03234 -0.1326037,0.04209 -1.376199,0.09977 -1.4105422,0.06543 z"
       id="path821"
       inkscape:connector-curvature="0" />
    <path
       style="fill:#323232;stroke-width:0.000357143"
       d="M 7.296875,15.480663 C 5.8784528,15.334524 4.5957575,14.841166 3.5001647,14.020348 3.1234842,13.738138 2.4390213,13.073087 2.1283649,12.687451 1.3118082,11.673813 0.79433234,10.494122 0.57253706,9.140625 c -0.0802023,-0.4894316 -0.0802023,-1.7918184 0,-2.28125 C 0.78038959,5.5909634 1.2459985,4.4794141 1.9796525,3.5001647 2.2618616,3.1234842 2.9269135,2.4390213 3.3125488,2.1283649 4.3261869,1.3118082 5.5058784,0.79433234 6.859375,0.57253706 c 0.4894316,-0.0802023 1.7918184,-0.0802023 2.28125,0 1.353497,0.22179528 2.533188,0.73927114 3.546826,1.55582784 0.385636,0.3106564 1.050687,0.9951193 1.332897,1.3717998 0.733654,0.9792494 1.199262,2.0907987 1.407115,3.3592103 0.0802,0.4894316 0.0802,1.7918184 0,2.28125 -0.207853,1.268412 -0.673461,2.379961 -1.407115,3.35921 -0.28221,0.376681 -0.947261,1.061144 -1.332897,1.3718 -0.994893,0.801457 -2.145491,1.314017 -3.453076,1.538252 -0.2858172,0.04901 -0.5459337,0.06661 -1.09375,0.07398 -0.3953125,0.0053 -0.775,0.0039 -0.84375,-0.0032 z m 1.8125,-0.571614 c 0.7544931,-0.127973 1.314626,-0.308399 2,-0.644225 1.808321,-0.886059 3.180183,-2.581338 3.668712,-4.5336124 C 14.943943,9.0684081 14.98301,8.7383738 14.98301,8 14.98301,7.2616262 14.94394,6.9315919 14.778087,6.2687884 14.163732,3.8136863 12.186314,1.8362677 9.7312116,1.2219136 9.0684081,1.0560565 8.7383737,1.0169904 8,1.0169904 c -0.7383738,0 -1.0684081,0.039066 -1.7312116,0.2049232 C 3.8136863,1.8362677 1.8362677,3.8136863 1.2219136,6.2687884 1.0560565,6.9315919 1.0169904,7.2616262 1.0169904,8 c 0,0.7383738 0.039066,1.0684081 0.2049232,1.7312116 0.6143541,2.4551024 2.5917727,4.4325204 5.0468748,5.0468754 0.3333582,0.08342 0.8063922,0.166584 1.1530866,0.202729 0.3141512,0.03275 1.3246525,-0.01022 1.6875,-0.07177 z"
       id="path819"
       inkscape:connector-curvature="0" />
  </g>
</svg>
