<?xml version="1.0" encoding="UTF-8" standalone="no"?>
<!-- Created with Inkscape (http://www.inkscape.org/) -->

<svg
   version="1.1"
   id="svg2"
   width="1600"
   height="1600"
   viewBox="0 0 1600 1600"
   sodipodi:docname="node_nurbs_weight.svg"
   inkscape:version="1.4.3 (0d15f75, 2025-12-25)"
   xml:space="preserve"
   xmlns:inkscape="http://www.inkscape.org/namespaces/inkscape"
   xmlns:sodipodi="http://sodipodi.sourceforge.net/DTD/sodipodi-0.dtd"
   xmlns="http://www.w3.org/2000/svg"
   xmlns:svg="http://www.w3.org/2000/svg"
   xmlns:rdf="http://www.w3.org/1999/02/22-rdf-syntax-ns#"
   xmlns:cc="http://creativecommons.org/ns#"
   xmlns:dc="http://purl.org/dc/elements/1.1/"><metadata
     id="metadata8"><rdf:RDF><cc:Work
         rdf:about=""><dc:format>image/svg+xml</dc:format><dc:type
           rdf:resource="http://purl.org/dc/dcmitype/StillImage" /></cc:Work></rdf:RDF></metadata><defs
     id="defs6" /><sodipodi:namedview
     pagecolor="#808080"
     bordercolor="#666666"
     borderopacity="1"
     objecttolerance="10"
     gridtolerance="10"
     guidetolerance="10"
     inkscape:pageopacity="0"
     inkscape:pageshadow="2"
     inkscape:window-width="1920"
     inkscape:window-height="1009"
     id="namedview4"
     showgrid="true"
     inkscape:zoom="0.35355339"
     inkscape:cx="735.39105"
     inkscape:cy="749.53319"
     inkscape:window-x="-8"
     inkscape:window-y="-8"
     inkscape:window-maximized="1"
     inkscape:current-layer="HANDLE_ALIGNED"
     inkscape:showpageshadow="0"
     inkscape:pagecheckerboard="true"
     inkscape:deskcolor="#d1d1d1"><inkscape:grid
       id="grid5"
       units="px"
       originx="0"
       originy="0"
       spacingx="100"
       spacingy="100"
       empcolor="#0099e5"
       empopacity="0.30196078"
       color="#0099e5"
       opacity="0.14901961"
       empspacing="5"
       enabled="true"
       visible="true" /></sodipodi:namedview><g
     id="SURFACE_NCIRCLE"
     transform="matrix(100,0,0,100,0,4.9999997e-5)"
     style="stroke-width:0.0114286"><path
       style="fill:none;stroke-width:0.000357143"
       d="m 4,14.890625 c 0,-0.610156 0.00655,-1.109375 0.01455,-1.109375 0.008,0 0.131049,0.07568 0.2734375,0.168176 0.6439822,0.418336 1.5019265,0.760914 2.3103597,0.92253 0.4797315,0.0959 0.8273387,0.127531 1.4016531,0.127531 0.5743144,0 0.9219216,-0.03163 1.4016531,-0.127531 0.8084326,-0.161616 1.6663776,-0.504194 2.3103596,-0.92253 0.142388,-0.0925 0.265435,-0.168176 0.273437,-0.168176 0.008,0 0.01455,0.499219 0.01455,1.109375 V 16 H 8 4 Z M 0,8 V 4 h 1.109375 c 0.6101562,0 1.109375,0.00655 1.109375,0.01455 0,0.008 -0.075679,0.131049 -0.1681756,0.2734375 -0.5264166,0.8103603 -0.9042766,1.8917237 -1.0186343,2.9151378 -0.0404238,0.3617622 -0.0404238,1.2319878 0,1.59375 C 1.1462978,9.8202894 1.5241578,10.901653 2.0505744,11.712013 2.143071,11.854401 2.21875,11.977448 2.21875,11.98545 2.21875,11.993453 1.7195312,12 1.109375,12 H 0 Z m 13.78125,3.98545 c 0,-0.008 0.07568,-0.131049 0.168176,-0.273437 0.418336,-0.643982 0.760914,-1.501927 0.92253,-2.3103599 C 14.96786,8.9219216 14.999487,8.5743144 14.999487,8 c 0,-0.5743144 -0.03163,-0.9219216 -0.127531,-1.4016531 C 14.71034,5.7899137 14.367762,4.9319694 13.949426,4.2879872 13.856929,4.1455988 13.78125,4.0225519 13.78125,4.0145497 13.78125,4.0065475 14.280469,4 14.890625,4 H 16 v 4 4 H 14.890625 C 14.280469,12 13.78125,11.9935 13.78125,11.98545 Z M 4,1.109375 V 0 h 4 4 v 1.109375 c 0,0.6101562 -0.0065,1.109375 -0.01455,1.109375 -0.008,0 -0.131049,-0.075679 -0.273437,-0.1681756 C 11.068031,1.6322384 10.210086,1.28966 9.4016531,1.1280445 8.9219216,1.0321404 8.5743144,1.0005128 8,1.0005128 c -0.5743144,0 -0.9219216,0.031628 -1.4016531,0.1275317 C 5.7899137,1.28966 4.9319694,1.6322384 4.2879872,2.0505744 4.1455988,2.143071 4.0225519,2.21875 4.0145497,2.21875 4.0065475,2.21875 4,1.7195312 4,1.109375 Z"
       id="path829"
       inkscape:connector-curvature="0" /><path
       style="fill:#fefefe;stroke-width:0.000357143"
       d="M 7.3125,14.215301 C 6.9376019,14.172768 6.3399978,14.038619 5.9928197,13.919061 5.3938987,13.712812 4.6069566,13.285042 4.1171875,12.899498 L 4,12.807248 V 12.403624 12 H 3.5963759 3.1927519 l -0.09225,-0.117187 c -0.050737,-0.06445 -0.1945494,-0.271875 -0.3195824,-0.460938 -1.3723919,-2.0751937 -1.3723919,-4.7685562 0,-6.84375 C 2.9059528,4.3890625 3.0497649,4.1816406 3.1005022,4.1171875 L 3.1927519,4 H 3.5963759 4 V 3.5963759 3.1927519 l 0.1171875,-0.09225 c 0.064453,-0.050737 0.271875,-0.1945494 0.4609375,-0.3195824 2.0751938,-1.3723919 4.7685563,-1.3723919 6.84375,0 0.189063,0.125033 0.396484,0.2688451 0.460938,0.3195824 L 12,3.1927519 V 3.5963759 4 h 0.403624 0.403624 l 0.09225,0.1171875 c 0.216336,0.2748181 0.559863,0.8315034 0.727977,1.1796875 0.956084,1.9801525 0.801725,4.2951775 -0.408395,6.125 -0.125033,0.189063 -0.268845,0.396484 -0.319582,0.460938 L 12.807248,12 H 12.403624 12 v 0.403624 0.403624 l -0.117187,0.09225 c -0.489318,0.385189 -1.276714,0.813319 -1.874242,1.019079 -0.8093254,0.278694 -1.8476954,0.392975 -2.696071,0.296724 z m 1.59375,-1.555884 c 0.3280513,-0.06726 0.9506163,-0.274284 1.199277,-0.398802 0.896934,-0.449142 1.706169,-1.258691 2.155949,-2.156785 0.130761,-0.2610962 0.35049,-0.9380728 0.41406,-1.275705 0.08138,-0.4322209 0.08138,-1.2240291 0,-1.65625 C 12.611966,6.8342428 12.392237,6.1572663 12.261476,5.8961703 11.811325,4.9973353 11.002665,4.188675 10.10383,3.7385244 9.8427338,3.6077634 9.1657572,3.3880344 8.828125,3.3244638 c -0.4322209,-0.08138 -1.2240291,-0.08138 -1.65625,0 C 6.8342428,3.3880344 6.1572662,3.6077634 5.8961703,3.7385244 4.9973353,4.188675 4.188675,4.9973353 3.7385244,5.8961703 3.6077634,6.1572662 3.3880344,6.8342428 3.3244638,7.171875 c -0.08138,0.4322209 -0.08138,1.2240291 0,1.65625 0.063571,0.3376322 0.2832996,1.0146088 0.4140606,1.275705 0.4501506,0.898835 1.2588109,1.707495 2.1576459,2.157646 0.3905044,0.19557 1.0539022,0.384505 1.6507047,0.470119 0.2210831,0.03172 1.0733653,-0.01354 1.359375,-0.07218 z"
       id="path827"
       inkscape:connector-curvature="0" /><path
       style="fill:#98cbfe;stroke-width:0.000357143"
       d="m 1,14 v -1 h 1 1 v 1 1 H 2 1 Z m 12,0 v -1 h 1 1 v 1 1 H 14 13 Z M 1,2 V 1 H 2 3 V 2 3 H 2 1 Z M 13,2 V 1 h 1 1 v 1 1 h -1 -1 z"
       id="path825"
       inkscape:connector-curvature="0" /><path
       style="fill:#cbcbcb;stroke-width:0.000357143"
       d="M 7.546875,12.731595 C 6.9500725,12.645981 6.2866747,12.457046 5.8961703,12.261476 4.9973353,11.811325 4.188675,11.002665 3.7385244,10.10383 3.6077634,9.8427338 3.3880344,9.1657572 3.3244638,8.828125 c -0.08138,-0.4322209 -0.08138,-1.2240291 0,-1.65625 C 3.3880344,6.8342428 3.6077634,6.1572662 3.7385244,5.8961703 4.0446772,5.2848622 4.4965166,4.7355278 5.078125,4.26752 5.5338309,3.9008231 5.8553828,3.7268062 6.4586703,3.5203987 7.039095,3.3218134 7.3790237,3.265625 8,3.265625 c 0.6209763,0 0.960905,0.056188 1.5413297,0.2547738 0.6032873,0.2064075 0.9248393,0.3804243 1.3805453,0.7471212 0.581608,0.4680078 1.033448,1.0173422 1.339601,1.6286503 0.130761,0.261096 0.35049,0.9380725 0.41406,1.2757047 0.08138,0.4322209 0.08138,1.2240291 0,1.65625 -0.06357,0.3376322 -0.283299,1.0146088 -0.41406,1.275705 -0.44978,0.898094 -1.259015,1.707643 -2.155949,2.156785 -0.2486608,0.124518 -0.8712258,0.331543 -1.199277,0.398802 -0.2860097,0.05864 -1.1382919,0.103893 -1.359375,0.07218 z"
       id="path823"
       inkscape:connector-curvature="0" /><path
       style="fill:#3232fe;stroke-width:0.000357143"
       d="m 0,14 v -2 h 2 2 v 2 2 H 2 0 Z m 3,0 V 13 H 2 1 v 1 1 h 1 1 z m 9,0 v -2 h 2 2 v 2 2 h -2 -2 z m 3,0 v -1 h -1 -1 v 1 1 h 1 1 z M 0,2 V 0 H 2 4 V 2 4 H 2 0 Z M 3,2 V 1 H 2 1 v 1 1 h 1 1 z m 9,0 V 0 h 2 2 v 2 2 h -2 -2 z m 3,0 V 1 h -1 -1 v 1 1 h 1 1 z"
       id="path821"
       inkscape:connector-curvature="0" /><path
       style="fill:#323232;stroke-width:0.000357143"
       d="M 7.15625,14.964919 C 6.1718731,14.851633 5.0939328,14.468885 4.2735866,13.941363 l -0.2732882,-0.175738 -1.562e-4,-0.479188 -1.563e-4,-0.479189 0.1171875,0.09225 c 0.2748182,0.216336 0.8315035,0.559863 1.1796875,0.727977 1.9801525,0.956084 4.2951775,0.801725 6.1250001,-0.408395 0.189062,-0.125033 0.396484,-0.268845 0.460937,-0.319582 l 0.117188,-0.09225 -1.56e-4,0.479189 -1.57e-4,0.479188 -0.273288,0.175738 c -0.83947,0.53982 -1.9006603,0.911729 -2.9295381,1.026697 -0.3321428,0.03711 -1.3070538,0.03525 -1.640625,-0.0031 z M 2.0586373,11.726413 C 1.6272416,11.055553 1.2905136,10.214356 1.1280445,9.4016531 1.0321404,8.9219216 1.0005128,8.5743144 1.0005128,8 c 0,-0.5743144 0.031628,-0.9219216 0.1275317,-1.4016531 0.1624691,-0.8127032 0.4991971,-1.6539 0.9305928,-2.3247603 L 2.234375,4.0002984 2.7135634,4.0001422 3.1927519,3.9999859 3.1005022,4.1171734 C 2.8841663,4.3919916 2.5406393,4.9486769 2.3725246,5.2968609 1.4164414,7.2770134 1.5707998,9.5920384 2.7809198,11.421861 c 0.125033,0.189062 0.2688451,0.396484 0.3195824,0.460937 L 3.1927519,12 2.7135634,11.999851 2.234375,11.999702 Z m 10.8408607,0.1564 c 0.216336,-0.274819 0.559863,-0.831504 0.727977,-1.179688 C 14.583559,8.7229725 14.4292,6.4079475 13.21908,4.578125 13.094047,4.3890625 12.950235,4.1816406 12.899498,4.1171875 L 12.807248,4 l 0.479189,1.562e-4 0.479188,1.563e-4 0.175738,0.2732881 c 0.431395,0.6708603 0.768123,1.5120572 0.930593,2.3247603 0.0959,0.4797316 0.127531,0.8273388 0.127531,1.4016532 0,0.5743143 -0.03163,0.9219215 -0.127531,1.4016531 -0.16247,0.8127028 -0.499198,1.6538998 -0.930593,2.3247598 l -0.175738,0.273289 -0.479188,1.56e-4 -0.479189,1.56e-4 0.09225,-0.117187 z M 4.0001491,2.7135634 4.0002984,2.234375 4.2735866,2.0586373 C 4.9444469,1.6272416 5.7856437,1.2905136 6.5983469,1.1280445 7.0780784,1.0321404 7.4256856,1.0005128 8,1.0005128 c 0.5743144,0 0.9219216,0.031628 1.4016531,0.1275317 0.8127029,0.1624691 1.6538999,0.4991971 2.3247599,0.9305928 l 0.273289,0.1757377 1.56e-4,0.4791884 1.56e-4,0.4791885 -0.117187,-0.09225 C 11.818373,3.0497649 11.610952,2.9059528 11.421889,2.7809198 9.5920666,1.5707998 7.2770416,1.4164414 5.2968891,2.3725246 4.948705,2.5406393 4.3920197,2.8841663 4.1172016,3.1005022 l -0.1171875,0.09225 1.562e-4,-0.4791885 z"
       id="path819"
       inkscape:connector-curvature="0" /><g
       id="HANDLE_ALIGNED"
       style="stroke-width:0.0114286"
       transform="translate(-10e-8,0.00383216)"><path
         style="fill:#980000;stroke-width:0.000357143"
         d="M 1.578125,9.8618938 C 0.91683259,9.7084209 0.36465622,9.2028244 0.15313575,8.5571119 0.0452823,8.2278656 0.0452823,7.6783844 0.15313575,7.3491381 0.34259578,6.77077 0.83272566,6.2802422 1.4101342,6.0911194 1.740951,5.9827644 2.2896412,5.982545 2.6196117,6.090635 3.19798,6.2800953 3.6885078,6.770225 3.8776306,7.3476334 c 0.1085925,0.3315419 0.1085925,0.87944 0,1.2109819 C 3.6907647,9.1291328 3.2221522,9.6040188 2.6488667,9.8038281 2.3672083,9.9019959 1.8676504,9.9290863 1.578125,9.8618931 Z"
         id="path2" /><path
         style="fill:#980000;stroke-width:0.000357143"
         d="m 9.8651682,2.4781807 c -0.1534729,0.661292 -0.6590694,1.213469 -1.3047819,1.424989 -0.3292463,0.107854 -0.8787275,0.107854 -1.2079738,0 -0.5783681,-0.18946 -1.0688959,-0.67959 -1.2580187,-1.256998 -0.1083551,-0.330817 -0.1085741,-0.879507 -4.844e-4,-1.209478 0.1894603,-0.57836799 0.67959,-1.06889599 1.2569984,-1.25801899 0.3315419,-0.108592 0.87944,-0.108592 1.2109819,0 0.5705175,0.186866 1.0454035,0.655479 1.2452128,1.22876399 0.098168,0.281659 0.1252582,0.781217 0.058066,1.070742 z"
         id="path4"
         inkscape:transform-center-x="5.6568502"
         inkscape:transform-center-y="-597.02452" /><path
         style="fill:#980000;stroke-width:0.000357143"
         d="M 2.3160472,9.374835 C 2.7190903,9.299615 3.1602509,8.9535903 3.3323353,8.5777084 3.5040119,8.2027178 3.5044456,7.70448 3.3334197,7.3309134 3.2217122,7.0869119 2.9152308,6.7737228 2.6700423,6.6530169 2.2742114,6.45815 1.7579546,6.4576975 1.3635305,6.6518731 1.1159421,6.7737603 0.81005538,7.0857759 0.69782716,7.3309147 0.58530837,7.5766881 0.54160969,7.9055134 0.58457681,8.1831044 0.63242572,8.4922347 0.74696853,8.7197119 0.973639,8.9557656 1.3324638,9.3294444 1.7914728,9.4727372 2.3160456,9.3748363 Z"
         id="path819-1" /><path
         style="fill:none;stroke-width:0.000357143"
         d="M 0,8 V 0 h 8 8 v 8 8 H 8 0 Z M 10,9.484375 V 8.96875 h 1.154749 1.154748 l 0.09244,0.1328125 c 0.215514,0.3096238 0.59967,0.5899734 0.978446,0.7140519 0.190161,0.062292 0.29257,0.075011 0.603987,0.075011 0.311417,0 0.413826,-0.012718 0.603987,-0.075011 0.578368,-0.1894603 1.068896,-0.67959 1.258019,-1.2569985 C 15.954731,8.2277991 15.95495,7.6791087 15.84686,7.3491381 15.6574,6.77077 15.16727,6.2802422 14.589862,6.0911194 c -0.331542,-0.1085925 -0.87944,-0.1085925 -1.210982,0 -0.398271,0.1304487 -0.827524,0.4601097 -1.030867,0.7916931 L 12.276153,7 H 11.138077 10.000001 V 6.5 6 h -2.0000004 -2 V 6.515625 7.03125 H 4.876165 3.7523294 L 3.6291325,6.8515625 C 3.3862,6.4972359 3.0213639,6.2222403 2.6196123,6.0906356 2.2896419,5.982545 1.7409517,5.9827644 1.4101348,6.09112 0.83272628,6.2802428 0.34259641,6.7707706 0.15313638,7.3491387 c -0.10785346,0.3292463 -0.10785346,0.8787275 0,1.2079738 0.18946003,0.5783681 0.6795899,1.0688959 1.25699842,1.2580187 0.3315418,0.1085925 0.8794399,0.1085925 1.2109816,0 C 2.9949017,9.6927025 3.4824197,9.3289153 3.6218556,9.0683772 L 3.6584491,9 H 4.8292244 6 V 9.5 10 h 2 2 z"
         id="path829-8"
         inkscape:connector-curvature="0" /><path
         style="fill:#cbfefe;stroke-width:0.000357143"
         d="m 7.9876494,6.0250557 h -0.984375 v -1.128343 c 0,-1.062513 0.00319,-1.127006 0.054687,-1.10542 0.6162106,0.258297 1.2187788,0.266028 1.7268966,0.02215 l 0.1871664,-0.089826 v 1.15072 1.150719 z"
         id="path5"
         inkscape:transform-center-x="2.6515656"
         inkscape:transform-center-y="-313.65545" /><path
         style="fill:#cbfefe;stroke-width:0.000357143"
         d="M 3.6942859,8.9765625 C 3.8047359,8.7607347 3.8897322,8.5386384 3.9245031,8.375 4.0063044,7.9900316 3.9638644,7.5207891 3.8163953,7.1796875 L 3.7522209,7.03125 H 4.8761106 6 V 8.015625 9 H 4.8411459 c -0.63737,0 -1.1534568,-0.010547 -1.14686,-0.023437 z"
         id="path827-2" /><path
         style="fill:#fe9832;stroke-width:0.000357143"
         d="M 7,8 V 7 H 8 9 V 8 9 H 8 7 Z"
         id="path825-4"
         inkscape:connector-curvature="0" /><path
         style="fill:#fea900;stroke-width:0.000357143"
         d="m 9.3752135,2.3688057 c -0.073672,0.377237 -0.4313644,0.82246 -0.7942307,0.988585 -0.3749906,0.171677 -0.8732284,0.172111 -1.246795,0.00109 -0.2451387,-0.112228 -0.5571543,-0.418115 -0.6790415,-0.665704 -0.1941744,-0.394424 -0.1937219,-0.91068 0.00114,-1.306511 0.120706,-0.245189 0.433895,-0.55166999 0.6778966,-0.66337799 0.3735665,-0.171024 0.8718044,-0.17059 1.246795,0.0011 0.2403716,0.110045 0.5556887,0.41854099 0.6730375,0.65847599 0.1462347,0.298996 0.1884044,0.642204 0.1211931,0.986359 z"
         id="path1"
         inkscape:transform-center-x="5.6082069"
         inkscape:transform-center-y="-597.0207" /><path
         style="fill:#fea900;stroke-width:0.000357143"
         d="M 1.6875,9.3719391 C 1.3102628,9.2982669 0.86504022,8.9405747 0.69891456,8.5777084 0.52723825,8.2027178 0.52680431,7.70448 0.69782862,7.3309134 0.81005684,7.0857747 1.1159435,6.7737591 1.363532,6.6518719 1.7579561,6.4576975 2.2742128,6.45815 2.6700438,6.6530156 2.9152323,6.7737216 3.2217137,7.0869106 3.3334212,7.3309122 3.5044455,7.7044787 3.5040118,8.2027166 3.3323368,8.5777072 3.2222912,8.8180788 2.9137959,9.1333959 2.6738608,9.2507447 2.3748647,9.3969794 2.0316563,9.4391491 1.6875015,9.3719378 Z"
         id="path823-5" /></g></g></svg>
