<?xml version="1.0" encoding="UTF-8" standalone="no"?>
<!-- Created with Inkscape (http://www.inkscape.org/) -->

<svg
   version="1.1"
   id="svg2"
   width="1600"
   height="1600"
   viewBox="0 0 1600 1600"
   sodipodi:docname="node_joinframenamed.svg"
   inkscape:version="1.4 (86a8ad7, 2024-10-11)"
   xml:space="preserve"
   xmlns:inkscape="http://www.inkscape.org/namespaces/inkscape"
   xmlns:sodipodi="http://sodipodi.sourceforge.net/DTD/sodipodi-0.dtd"
   xmlns="http://www.w3.org/2000/svg"
   xmlns:svg="http://www.w3.org/2000/svg"
   xmlns:rdf="http://www.w3.org/1999/02/22-rdf-syntax-ns#"
   xmlns:cc="http://creativecommons.org/ns#"
   xmlns:dc="http://purl.org/dc/elements/1.1/"><metadata
     id="metadata8"><rdf:RDF><cc:Work
         rdf:about=""><dc:format>image/svg+xml</dc:format><dc:type
           rdf:resource="http://purl.org/dc/dcmitype/StillImage" /></cc:Work></rdf:RDF></metadata><defs
     id="defs6" /><sodipodi:namedview
     pagecolor="#808080"
     bordercolor="#666666"
     borderopacity="1"
     objecttolerance="10"
     gridtolerance="10"
     guidetolerance="10"
     inkscape:pageopacity="0"
     inkscape:pageshadow="2"
     inkscape:window-width="2560"
     inkscape:window-height="1009"
     id="namedview4"
     showgrid="false"
     inkscape:zoom="0.35355339"
     inkscape:cx="878.22662"
     inkscape:cy="834.386"
     inkscape:window-x="1912"
     inkscape:window-y="-8"
     inkscape:window-maximized="1"
     inkscape:current-layer="NODE_FRAME"
     inkscape:showpageshadow="0"
     inkscape:pagecheckerboard="true"
     inkscape:deskcolor="#d1d1d1" /><g
     id="NODE_FRAME"
     transform="matrix(100,0,0,100,0,4.9999997e-5)"
     style="stroke-width:0.0114286"><path
       style="fill:none;stroke-width:0.000357143"
       d="M 1,8 V 1 H 5.828125 10.65625 V 1.5 2 H 9.328125 8 v 6 6 h 3 3 V 9.609375 5.21875 H 14.5 15 V 10.109375 15 H 8 1 Z M 7,8 V 2 H 4.5 2 v 6 6 H 4.5 7 Z"
       id="path827"
       inkscape:connector-curvature="0" /><path
       style="fill:#98cbfe;stroke-width:0.000357143"
       d="M 3,8.5 V 4 H 4.5 6 V 8.5 13 H 4.5 3 Z m 6,0 V 4 h 2 2 V 8.5 13 H 11 9 Z"
       id="path825"
       inkscape:connector-curvature="0" /><path
       style="fill:#656565;stroke-width:0.000357143"
       d="M 3,3.5 V 3 H 4.5 6 V 3.5 4 H 4.5 3 Z m 6,0 V 3 h 2 2 V 3.5 4 H 11 9 Z"
       id="path823"
       inkscape:connector-curvature="0" /><path
       style="fill:#3e3e3e;stroke-width:0.000357143"
       d="M 13,3.5 V 2 H 13.5 14 V 3.5 5 H 13.5 13 Z m 2,1 V 4 H 15.5 16 V 4.5 5 H 15.5 15 Z m 0,-3 V 1 H 15.5 16 V 1.5 2 H 15.5 15 Z"
       id="path821"
       inkscape:connector-curvature="0" /><path
       style="fill:#323232;stroke-width:0.000357143"
       d="M 0,8 V 0 h 8 8 V 0.5 1 H 8.5 1 v 7 7 h 7 7 V 10 5 H 15.5 16 V 10.5 16 H 8 0 Z M 2,8 V 2 H 4.5 7 v 6 6 H 4.5 2 Z M 6,8 V 3 H 4.5 3 v 5 5 H 4.5 6 Z M 8,8 V 2 H 10.5 13 V 2.5 3 H 11 9 v 5 5 h 2 2 V 9 5 H 13.5 14 V 9.5 14 H 11 8 Z M 15,3 V 2 H 15.5 16 V 3 4 H 15.5 15 Z"
       id="path819"
       inkscape:connector-curvature="0" /><g
       id="STRING_JOIN"
       style="stroke-width:0.0107564"
       transform="matrix(1.0625,0,0,1.0625,-0.59184481,-0.72168232)"><path
         style="fill:none;stroke-width:0.000336134"
         d="M 0,8 V 0 h 8 8 v 8 8 H 8 0 Z m 6.5037191,6.954233 c 0.4673037,-0.08166 0.8679415,-0.250696 1.2587422,-0.531082 L 8,14.252725 8.2382141,14.423636 c 0.5757178,0.413058 1.2382709,0.607438 1.9313369,0.566616 1.330056,-0.07834 2.428857,-1.003612 2.758272,-2.322664 0.07422,-0.297206 0.07422,-1.03797 0,-1.335176 C 12.598408,10.01336 11.499607,9.08809 10.169551,9.0097481 9.476485,8.9689259 8.8139319,9.1633059 8.2382141,9.5763644 L 8,9.7472753 7.7617859,9.5763644 C 7.1860681,9.1633059 6.523515,8.9689259 5.8304488,9.0097481 4.5003934,9.08809 3.4015919,10.01336 3.0721766,11.332412 c -0.074223,0.297206 -0.074223,1.03797 0,1.335176 0.3912512,1.566656 1.8788975,2.557965 3.4315425,2.286645 z M 2.578125,7.6402837 C 2.9116081,7.5699572 3.1685794,7.4284947 3.4129356,7.1807209 L 3.625,6.9656906 V 7.2640953 7.5625 H 4.3300441 5.0350878 L 5.0238547,6.0703125 C 5.0131741,4.6514972 5.0092719,4.5661019 4.9444937,4.3336087 4.7396034,3.5982431 4.26438,3.2422881 3.3313091,3.1252909 2.7354844,3.0505809 1.7221003,3.1356888 1.0859375,3.3138656 L 0.96875,3.3466878 V 3.8771041 4.4075203 L 1.1009632,4.34007 C 1.7728659,3.9972909 2.9629156,3.9267113 3.3830231,4.204725 3.5229547,4.2973275 3.6232844,4.4883222 3.6243137,4.6640625 L 3.625,4.78125 3.0546875,4.7815 C 1.9435165,4.782 1.3772306,4.9107169 0.99117241,5.2505391 0.69817975,5.5084416 0.54600497,6.0049731 0.61441819,6.4798519 0.70310116,7.09543 1.1220427,7.5230922 1.765625,7.6550219 c 0.2028366,0.04158 0.5776689,0.034778 0.8125,-0.014744 z M 2.3603056,6.7020516 C 1.9458397,6.5440578 1.8716519,6.0356875 2.2246054,5.7721697 2.3619068,5.6696594 2.6380652,5.6260106 3.1526366,5.6254881 L 3.6333978,5.625 3.6178331,5.8425403 C 3.5909972,6.217605 3.4116088,6.49327 3.0850686,6.6612353 c -0.1708855,0.0879 -0.5458523,0.1090169 -0.724763,0.040816 z m 7.230536,0.9373303 C 10.315828,7.4684903 10.874181,6.7642356 10.997681,5.8649262 11.124113,4.9442612 10.888294,4.0967306 10.361397,3.578125 10.005439,3.2277684 9.5875369,3.0733693 9.078125,3.1040044 8.6035175,3.1325463 8.2526894,3.29775 7.9155156,3.6514725 L 7.75,3.8251119 V 2.646931 1.46875 H 7.046875 6.34375 V 4.515625 7.5625 H 7.046875 7.75 V 7.2593191 6.9561381 l 0.1640625,0.1716385 c 0.456505,0.4775859 1.0512563,0.6590515 1.6767791,0.5116053 z M 8.375,6.6101012 C 8.2976562,6.5850572 8.1846834,6.5233987 8.1239494,6.4730819 c -0.4982803,-0.4128128 -0.4982803,-1.7519603 0,-2.1649541 0.3135903,-0.2599156 0.8940787,-0.2318334 1.161675,0.056198 0.1929194,0.2076516 0.3070403,0.5891072 0.3070403,1.0262994 0,0.5886466 -0.1831053,1.0084497 -0.5145397,1.1796772 C 8.9172309,6.6534241 8.56957,6.6731028 8.375,6.6101012 Z m 6.671246,1.0002147 c 0.119967,-0.026156 0.292232,-0.069102 0.382812,-0.095435 L 15.59375,7.4670041 V 6.8920319 6.3170597 l -0.179687,0.1084056 c -0.299936,0.1809513 -0.561071,0.2464409 -0.976563,0.2449113 -0.430564,-0.00158 -0.630402,-0.065771 -0.866963,-0.2784604 -0.514955,-0.4629884 -0.514955,-1.539594 0,-2.0025825 0.237226,-0.2132865 0.436451,-0.2770606 0.866963,-0.277524 0.309569,-3.344e-4 0.392377,0.011162 0.5975,0.082942 0.130968,0.045831 0.310265,0.1258646 0.398437,0.1778528 l 0.160313,0.094524 V 3.8910247 3.3149212 l -0.164022,-0.048709 c -0.42013,-0.1247656 -0.661037,-0.1559078 -1.195353,-0.154525 -0.438193,0.00113 -0.579428,0.013333 -0.806292,0.069639 -0.853677,0.2118779 -1.398918,0.7149722 -1.621879,1.4965075 -0.100705,0.3529988 -0.100705,1.0725838 0,1.4255825 0.249198,0.8735032 0.913684,1.409201 1.927297,1.5537554 0.265544,0.03787 1.053076,0.00976 1.312745,-0.046856 z"
         id="path825-8"
         inkscape:connector-curvature="0" /><path
         style="fill:#fecb32;stroke-width:0.000336134"
         d="M 5.5826353,14.450042 C 5.1222766,14.366876 4.6250441,14.11543 4.2768137,13.789702 3.930775,13.466022 3.6370444,12.902684 3.5479637,12.391857 c -0.059863,-0.343278 -0.059863,-0.440436 0,-0.783714 0.06197,-0.355363 0.1954441,-0.684931 0.4048613,-0.999666 0.3716853,-0.558608 0.9680119,-0.9406573 1.6553181,-1.0605132 0.3432781,-0.059863 0.4404356,-0.059863 0.7837138,0 0.3553628,0.06197 0.6849312,0.195444 0.9996659,0.4048612 0.5586084,0.371685 0.9406575,0.968012 1.0605134,1.655318 0.059863,0.343278 0.059863,0.440436 0,0.783714 -0.06197,0.355363 -0.195444,0.684931 -0.4048612,0.999666 -0.3716853,0.558608 -0.9680119,0.940657 -1.6553181,1.060513 -0.3285569,0.0573 -0.4831397,0.05692 -0.8092216,-0.002 z m 4,0 C 9.2521231,14.390333 8.913135,14.249887 8.6055487,14.045227 l -0.2548368,-0.169563 0.1629,-0.247604 C 8.8462141,13.122513 8.9813825,12.652063 8.9813825,12 c 0,-0.652063 -0.1351684,-1.122513 -0.4677706,-1.62806 l -0.1629,-0.247604 0.2548368,-0.1695626 C 8.9230794,9.7434959 9.2518456,9.6100966 9.6081431,9.5479638 c 0.3432781,-0.059863 0.4404359,-0.059863 0.7837139,0 0.355363,0.06197 0.684931,0.195444 0.999666,0.4048612 0.558608,0.371685 0.940657,0.968012 1.060513,1.655318 0.05986,0.343278 0.05986,0.440436 0,0.783714 -0.06197,0.355363 -0.195444,0.684931 -0.404861,0.999666 -0.371685,0.558608 -0.968012,0.940657 -1.655318,1.060513 -0.328557,0.0573 -0.4831398,0.05692 -0.8092217,-0.002 z"
         id="path821-4"
         inkscape:connector-curvature="0" /><path
         style="fill:#983200;stroke-width:0.000336134"
         d="M 5.4794241,14.953767 C 4.8499878,14.839549 4.2826831,14.534283 3.8413031,14.072296 3.46529,13.678727 3.2067906,13.206613 3.0721766,12.667588 c -0.074223,-0.297206 -0.074223,-1.03797 0,-1.335176 C 3.4015919,10.01336 4.5003934,9.08809 5.8304487,9.0097481 6.523515,8.9689259 7.1860681,9.1633059 7.7617859,9.5763644 L 8,9.7472753 8.2382141,9.5763644 C 8.8139319,9.1633059 9.476485,8.9689259 10.169551,9.0097481 c 1.330056,0.078342 2.428857,1.0036119 2.758272,2.3226639 0.07422,0.297206 0.07422,1.03797 0,1.335176 -0.329415,1.319052 -1.428216,2.244322 -2.758272,2.322664 -0.693066,0.04082 -1.3556191,-0.153558 -1.9313369,-0.566616 L 8,14.252725 7.7624613,14.423151 C 7.0942509,14.90257 6.2625462,15.095872 5.4794241,14.953767 Z M 6.3918569,14.452036 C 7.0791631,14.33218 7.6754897,13.950131 8.047175,13.391523 8.2565922,13.076788 8.3900662,12.74722 8.4520362,12.391857 c 0.059863,-0.343278 0.059863,-0.440436 0,-0.783714 C 8.3321803,10.920837 7.9501312,10.32451 7.3915228,9.952825 7.0767881,9.7434078 6.7472197,9.6099338 6.3918569,9.5479638 c -0.3432782,-0.059863 -0.4404357,-0.059863 -0.7837138,0 C 4.9208369,9.6678197 4.3245103,10.049869 3.952825,10.608477 3.7434078,10.923212 3.6099337,11.25278 3.5479637,11.608143 c -0.059863,0.343278 -0.059863,0.440436 0,0.783714 0.089081,0.510827 0.3828113,1.074166 0.72885,1.397845 0.3482304,0.325728 0.8454629,0.577174 1.3058216,0.66034 0.3260819,0.05891 0.4806647,0.05929 0.8092216,0.002 z m 4.0000001,0 c 0.687306,-0.119856 1.283633,-0.501905 1.655318,-1.060513 0.209417,-0.314735 0.342891,-0.644303 0.404861,-0.999666 0.05986,-0.343278 0.05986,-0.440436 0,-0.783714 C 12.33218,10.920837 11.950131,10.32451 11.391523,9.952825 11.076788,9.7434078 10.74722,9.6099338 10.391857,9.5479638 c -0.343278,-0.059863 -0.4404357,-0.059863 -0.7837139,0 -0.3562975,0.062133 -0.6850637,0.1955321 -1.0025943,0.4068096 l -0.2548369,0.1695626 0.1629,0.247604 C 8.8462141,10.877487 8.9813825,11.347937 8.9813825,12 c 0,0.652063 -0.1351684,1.122513 -0.4677706,1.62806 l -0.1629,0.247604 0.2548369,0.169563 c 0.3075862,0.20466 0.6465743,0.345106 0.9770865,0.404815 0.3260819,0.05891 0.4806647,0.05929 0.8092217,0.002 z"
         id="path819-5"
         inkscape:connector-curvature="0" /></g><g
       id="MESH_CUBE"
       style="display:inline;stroke-width:0.0114286;enable-background:new"
       inkscape:label="VOLUME_CUBE"
       transform="translate(17.927075,0.35867684)"><g
         id="NAMED_ATTRIBUTE"
         style="stroke-width:0.0114286"
         transform="translate(-17.643352,0.46492406)"><path
           style="fill:none;stroke-width:0.000357143"
           d="M 0,11.250052 V 6.5001041 l 0.1484375,0.1063475 c 0.27256716,0.19528 0.37208447,0.211285 1.2451762,0.2002553 C 2.148132,6.797175 2.1766418,6.7945219 2.328125,6.7197478 2.5354623,6.6174034 2.7523,6.3965412 2.8434485,6.19486 2.9153493,6.0357678 2.9209664,6.03125 3.046875,6.03125 c 0.1259084,0 0.1315256,0.00452 0.2034266,0.16361 0.091148,0.2016812 0.3079862,0.4225434 0.5153234,0.5248878 l 0.15625,0.077127 H 6.25 c 2.1910775,0 2.3419219,-0.00352 2.5625,-0.059832 C 9.3005387,6.612455 9.6828853,6.4056288 9.9675584,6.1122259 l 0.1394336,-0.143709 0.141816,0.1377053 c 0.30292,0.2941369 0.817699,0.5687525 1.33946,0.7145515 0.214538,0.05995 0.320674,0.067174 1.005482,0.068438 0.853968,0.00157 1.00213,-0.022464 1.559613,-0.2530588 0.330975,-0.1369034 0.5073,-0.2577612 0.624427,-0.4279994 0.176403,-0.2563934 0.196589,-0.3782068 0.185287,-1.1181471 -0.0097,-0.6371 -0.01379,-0.6753888 -0.08746,-0.8243816 C 14.777006,4.0661728 14.58961,3.8789147 14.390625,3.7809894 14.258192,3.7158156 14.189123,3.7040209 13.9375,3.70361 c -0.296587,-4.844e-4 -0.297195,-3.25e-4 -0.626659,0.1652003 -0.351535,0.1766131 -0.612713,0.2350256 -0.741848,0.165915 -0.173683,-0.092952 -0.173683,-0.7264981 0,-0.8194506 0.129135,-0.069111 0.390313,-0.010698 0.741848,0.165915 0.329464,0.1655247 0.330072,0.1656847 0.626659,0.1652003 0.251623,-4.125e-4 0.320692,-0.012206 0.453125,-0.077379 0.198985,-0.097925 0.386381,-0.2851834 0.484994,-0.4846356 0.07366,-0.1489929 0.07773,-0.1872817 0.08746,-0.8243816 0.0113,-0.7399402 -0.0089,-0.8617537 -0.185287,-1.1181471 C 14.660663,0.87160812 14.484338,0.75075022 14.153363,0.61384694 13.59588,0.38325228 13.447718,0.35921194 12.59375,0.36078806 c -0.684808,0.001264 -0.790944,0.008488 -1.005482,0.0684381 -0.543644,0.15191406 -1.039135,0.42175378 -1.371991,0.74717294 L 10.041928,1.3468521 9.7944016,1.0997276 C 9.51161,0.81739541 9.2062956,0.64949294 8.75,0.52537706 8.4908266,0.45487991 8.4502191,0.453125 7.078125,0.453125 H 5.671875 L 5.515625,0.5305044 C 5.1616069,0.70582419 4.9713144,1.0060346 4.9407137,1.4375 L 4.921875,1.703125 4.8017591,1.375 C 4.6033006,0.83286528 4.4164825,0.61144375 4.0535953,0.48825897 c -0.2201694,-0.0747382 -1.7932713,-0.0747382 -2.0134407,0 -0.2200925,0.0747121 -0.4039258,0.21418 -0.5231728,0.39691306 C 1.4490904,0.98920822 1.1639744,1.7155404 0.71749009,2.921875 0.33580747,3.953125 0.01822931,4.8027344 0.01176085,4.8098959 0.00529238,4.8170572 0,3.7377603 0,2.4114583 V 0 h 8 8 v 8 8 H 8 0 Z m 15.269226,4.169892 c 0.04746,-0.03544 0.115281,-0.10325 0.150718,-0.150695 0.06359,-0.08514 0.06464,-0.120868 0.08007,-2.732444 0.01155,-1.953174 0.0062,-2.6707322 -0.02031,-2.73993 -0.04604,-0.1200328 -2.152243,-2.2200869 -2.270801,-2.2641669 -0.138718,-0.051576 -1.281943,-0.042592 -1.405219,0.011043 -0.129099,0.056168 -2.227469,2.1615791 -2.2709759,2.2785963 -0.045901,0.1234553 -0.045306,5.2340866 6.25e-4,5.3553066 0.044306,0.116936 0.1484853,0.227031 0.2635435,0.27851 0.076451,0.03421 0.5820404,0.04068 2.7399074,0.03508 2.618475,-0.0068 2.647059,-0.0075 2.732444,-0.0713 z"
           id="path825-1"
           inkscape:connector-curvature="0" /><path
           style="fill:#fefefe;stroke-width:0.000357143"
           d="M 11.71875,6.8465006 C 11.144103,6.7204375 10.605876,6.4489672 10.248808,6.1050934 L 10.106992,5.9685169 9.9675584,6.1122259 C 9.6828853,6.4056287 9.3005387,6.612455 8.8125,6.7370431 8.5919219,6.7933528 8.4410775,6.796875 6.25,6.796875 H 3.921875 L 3.765625,6.7197478 C 3.5582878,6.6174034 3.34145,6.3965412 3.2503016,6.19486 3.1784006,6.0357678 3.1727834,6.03125 3.046875,6.03125 2.9209664,6.03125 2.9153493,6.03577 2.8434485,6.19486 2.7523,6.3965412 2.5354623,6.6174034 2.328125,6.7197478 2.1766763,6.794505 2.1480202,6.7971766 1.3955607,6.8066912 0.52200462,6.8177369 0.41471491,6.8005741 0.1484375,6.6071934 L 0,6.4993928 V 5.6775456 4.8556987 l 0.71459344,-1.92399 C 1.1770459,1.6865895 1.4640466,0.95705187 1.5279828,0.86412372 1.6433303,0.69647178 1.8297058,0.55969744 2.0401546,0.48825897 c 0.2201694,-0.0747382 1.7932713,-0.0747382 2.0134407,0 C 4.4164825,0.61144375 4.6033006,0.83286528 4.8017591,1.375 L 4.921875,1.703125 4.9407137,1.4375 C 4.9713144,1.0060346 5.1616069,0.70582419 5.515625,0.53050441 L 5.671875,0.453125 h 1.40625 c 1.3720941,0 1.4127016,0.001755 1.671875,0.0722521 0.4562956,0.12411588 0.76161,0.29201835 1.0444016,0.5743505 l 0.2475264,0.2471245 0.174349,-0.170453 c 0.332856,-0.32541915 0.828347,-0.59525887 1.371991,-0.74717294 0.214538,-0.05995 0.320674,-0.0671741 1.005482,-0.0684381 0.853968,-0.001576 1.00213,0.0224642 1.559613,0.25305888 0.330975,0.13690328 0.5073,0.25776118 0.624427,0.42799936 0.176403,0.2563934 0.196589,0.3782069 0.185287,1.1181471 -0.0097,0.6370999 -0.01379,0.6753887 -0.08746,0.8243816 -0.09861,0.1994522 -0.286009,0.3867103 -0.484994,0.4846356 -0.132433,0.065174 -0.201502,0.076968 -0.453125,0.077379 -0.296587,4.844e-4 -0.297195,3.25e-4 -0.626659,-0.1652003 -0.351535,-0.1766131 -0.612713,-0.2350256 -0.741848,-0.165915 -0.173683,0.092952 -0.173683,0.7264981 0,0.8194506 0.129135,0.069111 0.390313,0.010698 0.741848,-0.165915 0.329464,-0.1655247 0.330072,-0.1656847 0.626659,-0.1652003 0.251623,4.125e-4 0.320692,0.012206 0.453125,0.077379 0.198985,0.097925 0.386381,0.2851834 0.484994,0.4846356 0.07366,0.1489928 0.07773,0.1872816 0.08746,0.8243816 0.0113,0.7399403 -0.0089,0.8617537 -0.185287,1.1181471 -0.16057,0.2333813 -0.524843,0.4295754 -1.105915,0.5956366 -0.257517,0.073594 -0.340583,0.081246 -0.984375,0.090679 -0.596759,0.00874 -0.743308,0.00149 -0.96875,-0.047969 z m 1.524755,-0.9898065 c 0.132478,-0.027256 0.349854,-0.092524 0.483058,-0.145041 L 13.96875,5.6161678 V 5.1492297 c 0,-0.256816 -0.01055,-0.4622506 -0.02344,-0.4565213 -0.01289,0.00573 -0.142969,0.07011 -0.289063,0.1430694 -0.374379,0.1869647 -0.595158,0.2358978 -0.997869,0.2211663 -0.272434,-0.00997 -0.360598,-0.026137 -0.503557,-0.09236 C 11.671583,4.7407309 11.4375,4.3035866 11.4375,3.625 c 0,-0.6785867 0.234083,-1.115731 0.717324,-1.3395842 0.142959,-0.066223 0.231123,-0.082394 0.503557,-0.09236 0.402711,-0.014732 0.62349,0.034201 0.997869,0.2211661 0.146094,0.072959 0.276172,0.1373404 0.289063,0.1430696 0.01289,0.00573 0.02344,-0.1997055 0.02344,-0.4565215 V 1.6338321 l -0.24219,-0.095666 C 13.320867,1.3779133 13.029094,1.3340857 12.487963,1.352114 11.9463,1.3701601 11.758438,1.4116916 11.379678,1.5971274 10.896423,1.8337231 10.533063,2.2578616 10.351854,2.796875 c -0.07919,0.235557 -0.08405,0.2833994 -0.08405,0.828125 0,0.5439703 0.0049,0.5928947 0.08374,0.828125 0.246888,0.7370812 0.836805,1.2513462 1.612714,1.4058978 0.298232,0.059404 0.985268,0.058153 1.279245,-0.00233 z M 2.0462603,5.421875 l 0.1326234,-0.375 h 0.8690926 0.8690928 l 0.131699,0.375 0.1316991,0.375 0.5854703,0.00852 c 0.5566703,0.0081 0.5847256,0.00567 0.5703378,-0.04935 C 5.3279525,5.724215 4.9654481,4.7395234 4.5307103,3.5678375 L 3.7402775,1.4375 H 3.046875 2.3534725 L 1.5630398,3.5678375 C 1.1283018,4.7395234 0.76579759,5.724215 0.75747484,5.7560412 c -0.014388,0.05502 0.013672,0.057447 0.57051496,0.04935 L 1.913637,5.796875 Z M 2.4770419,4.1796875 C 2.4852802,4.1582031 2.6152787,3.7820313 2.7659275,3.34375 2.9165763,2.9054687 3.0424064,2.5435434 3.0455499,2.5394714 c 0.00314,-0.00407 0.1268542,0.3474905 0.2749123,0.7812502 0.1480581,0.4337593 0.2786531,0.8132628 0.2902106,0.8433409 0.019553,0.050884 -0.019662,0.054687 -0.5637978,0.054687 -0.4550048,0 -0.5814871,-0.00867 -0.5698331,-0.039062 z M 8.489385,5.7635978 C 8.9629303,5.6657844 9.2958388,5.4394488 9.4418303,5.116055 9.5058978,4.9741353 9.5153984,4.9047675 9.5155038,4.578125 9.5156288,4.2386684 9.5078653,4.1865781 9.4337556,4.0285475 9.3323553,3.8123216 9.1635128,3.6399678 8.9613253,3.5462931 8.8249013,3.4830869 8.8149094,3.4721972 8.8756497,3.4529188 8.9805625,3.4196206 9.1839712,3.2224366 9.2600756,3.0802567 9.3191316,2.969927 9.328125,2.9035642 9.328125,2.578125 9.328125,2.2447511 9.3199462,2.1875152 9.2544438,2.0625 9.1067247,1.7805692 8.8982163,1.6258816 8.5139234,1.5131244 8.3555059,1.4666424 8.1519734,1.4567148 7.1328125,1.4457585 L 5.9375,1.4329085 V 3.6227044 5.8125 h 1.1575675 c 0.9285806,0 1.2044006,-0.00967 1.3943175,-0.048902 z M 7.0625,4.4795987 V 3.8966975 l 0.4577225,0.018546 c 0.3945384,0.015986 0.4770691,0.028508 0.5978753,0.090714 C 8.302515,4.1009175 8.375,4.2366662 8.375,4.4870787 8.375,4.6946634 8.31003,4.8288597 8.1533719,4.9448569 8.0568578,5.01632 7.7562253,5.0600462 7.3515625,5.0614775 L 7.0625,5.0625 Z m 0,-1.8077237 V 2.1785189 l 0.4002984,0.016235 c 0.4321382,0.017527 0.5426188,0.050944 0.6594422,0.1994607 0.050319,0.06397 0.065259,0.1275383 0.065259,0.27766 0,0.1501217 -0.014941,0.2136904 -0.065259,0.27766 -0.1168234,0.1485175 -0.227304,0.1819345 -0.6594422,0.199461 L 7.0625,3.1652313 Z"
           id="path823-5"
           inkscape:connector-curvature="0"
           sodipodi:nodetypes="sscssscssssssscccssssscsscssscsssssccsssssssscscscsssscssscssssssscssssscsssccccccssscccsssccssssssscscsssssssscccscccsssssccccssssscc" /><path
           style="fill:#323232;stroke-width:0.000357143"
           d="M 11.96426,5.8590228 C 11.530946,5.7727119 11.141479,5.5665769 10.846442,5.2673897 10.615225,5.0329203 10.460457,4.7782756 10.351546,4.453125 10.272755,4.2178947 10.267808,4.1689703 10.267808,3.625 c 0,-0.5447256 0.0049,-0.592568 0.08405,-0.828125 0.181209,-0.5390134 0.544569,-0.9631519 1.027824,-1.1997476 0.37876,-0.1854358 0.566622,-0.2269673 1.108285,-0.2450134 0.541131,-0.018028 0.832904,0.025799 1.2386,0.1860522 l 0.242187,0.095666 v 0.4669381 c 0,0.256816 -0.01055,0.4622506 -0.02344,0.4565215 -0.01289,-0.00573 -0.142969,-0.07011 -0.289063,-0.1430696 -0.374379,-0.1869647 -0.595158,-0.2358977 -0.997869,-0.2211661 -0.272434,0.00997 -0.360598,0.026137 -0.503557,0.09236 C 11.671583,2.509269 11.4375,2.9464133 11.4375,3.625 c 0,0.6785866 0.234083,1.1157309 0.717324,1.3395841 0.142959,0.066223 0.231123,0.082394 0.503557,0.09236 0.402711,0.014731 0.62349,-0.034202 0.997869,-0.2211663 0.146094,-0.072959 0.276172,-0.1373403 0.289063,-0.1430694 0.01289,-0.00573 0.02344,0.1997053 0.02344,0.4565213 v 0.4669381 l -0.242187,0.095485 c -0.133204,0.052517 -0.35058,0.117785 -0.483058,0.145041 -0.293977,0.060482 -0.981013,0.061733 -1.279245,0.00233 z M 0.75747484,5.7560412 C 0.76579759,5.724215 1.1283018,4.7395234 1.5630398,3.5678375 L 2.3534725,1.4375 H 3.046875 3.7402775 l 0.7904328,2.1303375 c 0.4347378,1.1716859 0.7972422,2.1563775 0.805565,2.1882037 0.014388,0.055019 -0.013667,0.057447 -0.5703378,0.04935 l -0.5854703,-0.00852 -0.1316991,-0.375 -0.131699,-0.375 H 3.0479763 2.1788837 l -0.1326234,0.375 -0.1326233,0.375 -0.5856472,0.00852 c -0.55684299,0.0081 -0.58490299,0.00567 -0.57051496,-0.04935 z M 3.6106728,4.1640625 C 3.5991153,4.1339844 3.4685203,3.7544809 3.3204622,3.3207216 3.1724041,2.8869619 3.0486935,2.5353994 3.0455499,2.5394714 3.0424064,2.5435434 2.9165763,2.9054687 2.7659275,3.34375 2.6152787,3.7820313 2.4852802,4.1582031 2.4770419,4.1796875 2.4653879,4.2100797 2.5918703,4.21875 3.046875,4.21875 c 0.5441356,0 0.5833503,-0.0038 0.5637978,-0.054687 z M 5.9375,3.6227044 V 1.4329085 l 1.1953125,0.01285 c 1.0191609,0.010956 1.2226934,0.020884 1.3811109,0.067366 0.3842929,0.1127572 0.5928013,0.2674448 0.7405204,0.5493756 0.065502,0.1250152 0.073681,0.1822511 0.073681,0.515625 0,0.3254392 -0.00899,0.391802 -0.068049,0.5021317 -0.076104,0.1421799 -0.2795131,0.3393639 -0.3844259,0.372662 -0.06074,0.019278 -0.050748,0.030168 0.085676,0.093374 0.2021875,0.093675 0.37103,0.2660285 0.4724303,0.4822544 0.07411,0.1580306 0.081858,0.2101209 0.081748,0.5495775 -9.38e-5,0.3266425 -0.00961,0.3960103 -0.073673,0.53793 C 9.3507853,5.3177334 9.1161178,5.5422269 8.8933697,5.6407369 8.5493028,5.7928994 8.3440916,5.8125 7.0950675,5.8125 H 5.9375 Z M 7.8564969,5.032645 C 8.209525,4.9871659 8.375,4.8130537 8.375,4.4870787 8.375,4.2366662 8.302515,4.1009175 8.1180978,4.0059572 7.9972916,3.9437513 7.9147609,3.9312291 7.5202225,3.9152434 L 7.0625,3.8966975 V 4.4795987 5.0625 L 7.3515625,5.06148 C 7.5105469,5.0609156 7.7377672,5.0479412 7.8564969,5.0326456 Z M 7.9600391,3.0826295 C 8.12973,2.994879 8.1875,2.8905564 8.1875,2.671875 8.1875,2.5217533 8.1725594,2.4581846 8.1222406,2.394215 8.0054172,2.2456979 7.8949366,2.212281 7.4627984,2.1947543 L 7.0625,2.1785189 V 2.671875 3.1652313 l 0.4002984,-0.016236 c 0.2795741,-0.011339 0.4295347,-0.031354 0.4972407,-0.066366 z"
           id="path819-2"
           inkscape:connector-curvature="0"
           sodipodi:nodetypes="sssscssscssscssssssscsssssscccssccccccccsssssssssccsssscsssccssccssssccccsssssscccss" /></g><path
         inkscape:connector-curvature="0"
         id="path827-666"
         d="M 0,8 V 0 h 8 8 v 8 8 H 8 0 Z m 11.326467,6.00029 c 3.319702,-1.106746 3.322552,-1.107867 3.51104,-1.381855 0.206207,-0.299746 0.193743,-0.0036 0.193743,-4.60281 0,-4.5991825 0.01246,-4.3030644 -0.193743,-4.60281 C 14.649019,3.1388275 14.646169,3.1377059 11.326467,2.0309595 8.4439647,1.0699703 8.2195475,1.0000958 8.015625,1.0000958 c -0.2039225,0 -0.4283397,0.069875 -3.3108416,1.0308637 C 1.3850808,3.1377059 1.3822313,3.1388275 1.1937435,3.412815 0.98753566,3.7125606 1,3.4164425 1,8.015625 c 0,4.599183 -0.0124643,4.303064 0.1937435,4.60281 0.1884878,0.273988 0.1913373,0.275109 3.5110399,1.381855 2.8825019,0.96099 3.1069191,1.030864 3.3108416,1.030864 0.2039225,0 0.4283397,-0.06987 3.310842,-1.030864 z"
         style="fill:#ffffff;fill-opacity:0;stroke-width:0.000357143" /></g></g></svg>
