<?xml version="1.0" encoding="UTF-8" standalone="no"?>
<!-- Created with Inkscape (http://www.inkscape.org/) -->

<svg
   version="1.1"
   id="svg2"
   width="1600"
   height="1600"
   viewBox="0 0 1600 1600"
   sodipodi:docname="node_sky.svg"
   inkscape:version="1.2.2 (732a01da63, 2022-12-09)"
   xmlns:inkscape="http://www.inkscape.org/namespaces/inkscape"
   xmlns:sodipodi="http://sodipodi.sourceforge.net/DTD/sodipodi-0.dtd"
   xmlns="http://www.w3.org/2000/svg"
   xmlns:svg="http://www.w3.org/2000/svg"
   xmlns:rdf="http://www.w3.org/1999/02/22-rdf-syntax-ns#"
   xmlns:cc="http://creativecommons.org/ns#"
   xmlns:dc="http://purl.org/dc/elements/1.1/">
  <metadata
     id="metadata8">
    <rdf:RDF>
      <cc:Work
         rdf:about="">
        <dc:format>image/svg+xml</dc:format>
        <dc:type
           rdf:resource="http://purl.org/dc/dcmitype/StillImage" />
      </cc:Work>
    </rdf:RDF>
  </metadata>
  <defs
     id="defs6" />
  <sodipodi:namedview
     pagecolor="#808080"
     bordercolor="#666666"
     borderopacity="1"
     objecttolerance="10"
     gridtolerance="10"
     guidetolerance="10"
     inkscape:pageopacity="0"
     inkscape:pageshadow="2"
     inkscape:window-width="1993"
     inkscape:window-height="1009"
     id="namedview4"
     showgrid="false"
     inkscape:zoom="0.5"
     inkscape:cx="299"
     inkscape:cy="106"
     inkscape:window-x="-8"
     inkscape:window-y="-8"
     inkscape:window-maximized="1"
     inkscape:current-layer="NODE_SKY"
     inkscape:showpageshadow="0"
     inkscape:pagecheckerboard="true"
     inkscape:deskcolor="#d1d1d1" />
  <g
     id="NODE_SKY"
     transform="matrix(100,0,0,100,0,4.9999997e-5)"
     style="stroke-width:0.0114286">
    <path
       style="fill:none;stroke-width:0.000357143"
       d="M 0,8 V 0 h 8 8 v 8 8 H 8 0 Z m 13.269218,7.419944 c 0.04746,-0.03544 0.115289,-0.103261 0.150726,-0.150719 0.06438,-0.08622 0.06444,-0.09066 0.08006,-5.7324444 0.01164,-4.2046472 0.0065,-5.6700906 -0.02022,-5.7399056 -0.02105,-0.055047 -0.691906,-0.7475964 -1.625,-1.6775451 -1.355489,-1.35091915 -1.605235,-1.58657599 -1.698528,-1.60270781 -0.06016,-0.010402 -2.18608,-0.0148817 -4.724275,-0.009955 -4.60534394,0.008939 -4.61507859,0.009091 -4.70119406,0.0733887 -0.0474618,0.035437 -0.11528807,0.10326428 -0.15072503,0.15072728 L 0.515625,0.81707959 0.50672091,7.9163522 c -0.004897,3.9045998 -8.2219e-4,7.1445618 0.009056,7.1999148 0.0223485,0.125235 0.1536701,0.284907 0.27954885,0.339901 0.0784903,0.03429 1.17936484,0.04045 6.24144734,0.03492 l 6.1461489,-0.0067 z"
       id="path833"
       inkscape:connector-curvature="0" />
    <path
       style="fill:#fefefe;stroke-width:0.000357143"
       d="M 1,8 V 1 H 5.25 9.5 V 2.75 4.5 H 11.25 13 V 9.75 15 H 7 1 Z M 12,9.7512275 V 5.502455 L 10.617188,5.493415 9.234375,5.484375 9.078125,5.4069956 C 8.8789119,5.3083397 8.6916603,5.1210881 8.5930044,4.921875 L 8.515625,4.765625 8.506585,3.3828125 8.497545,2 H 5.2487725 2 v 6 6 h 5 5 z M 11.507813,4.0078197 10,3.9993997 V 2.4920082 0.98461663 L 11.515625,2.5 c 0.833594,0.8334609 1.515625,1.5189534 1.515625,1.5233166 0,0.00436 -0.0035,0.00456 -0.0078,4.281e-4 -0.0043,-0.00413 -0.686329,-0.011294 -1.515625,-0.015925 z"
       id="path831"
       inkscape:connector-curvature="0" />
    <path
       style="fill:#fefecb;stroke-width:0.000357143"
       d="M 5,9.5 V 9 H 5.5 6 V 9.5 10 H 5.5 5 Z m 4,-1 V 8 H 9.5 10 V 8.5 9 H 9.5 9 Z M 4.6285103,7.4526075 C 3.8325969,7.2291069 3.3460031,6.4168653 3.5466147,5.6466656 3.6929737,5.0847544 4.1499862,4.6461697 4.7105444,4.5296678 4.9064887,4.4889444 5.2581603,4.5060166 5.4410756,4.5651319 l 0.1129506,0.036504 -0.1445028,0.1913697 c -0.5422884,0.7181709 -0.5422884,1.6958184 0,2.4139894 l 0.1445028,0.1913697 -0.1129506,0.03722 C 5.2547187,7.4969928 4.8190737,7.5061197 4.6285103,7.4526075 Z M 10,6.5 V 6 H 10.5 11 V 6.5 7 H 10.5 10 Z M 7,5.5 V 5 H 7.5 8 V 5.5 6 H 7.5 7 Z"
       id="path829"
       inkscape:connector-curvature="0" />
    <path
       style="fill:#989898;stroke-width:0.000357143"
       d="M 2,11.5 V 11 h 5 5 V 11.5 12 H 7 2 Z"
       id="path827"
       inkscape:connector-curvature="0" />
    <path
       style="fill:#3265fe;stroke-width:0.000357143"
       d="M 4.5023497,8.4678978 C 4.2677128,8.4186819 4.0573694,8.3413366 3.796875,8.2084878 3.4437475,8.0283972 2.9729129,7.5580194 2.7905368,7.203125 2.5620187,6.7584409 2.515625,6.5554034 2.515625,6 2.515625,5.4445966 2.562019,5.2415591 2.7905368,4.796875 2.9722876,4.4431975 3.4431975,3.9722875 3.796875,3.7905369 4.2415591,3.5620188 4.4445966,3.515625 5,3.515625 c 0.5554034,0 0.7584409,0.046394 1.203125,0.2749119 0.3393934,0.1744103 0.8233906,0.6524906 0.9950653,0.9829006 L 7.3159081,5 H 7.1579541 7 V 5.5 6 H 7.2546416 7.5092831 L 7.4907656,6.2578125 C 7.4681503,6.5726762 7.3788456,6.8725572 7.2092509,7.203125 7.0277262,7.5569469 6.5569469,8.0277263 6.203125,8.2092509 5.7840984,8.4242284 5.57794,8.4750738 5.078125,8.4867131 4.8375,8.4923169 4.5784009,8.4838506 4.5023497,8.4678978 Z M 5.4410756,7.4355841 5.5540262,7.3983644 5.4095234,7.2069947 C 5.3300472,7.1017412 5.2257978,6.9279603 5.1778584,6.8208144 4.8791903,6.1532837 4.9677559,5.3780531 5.4095234,4.7930053 L 5.5540262,4.6016356 5.4410756,4.5651319 C 5.3789528,4.5450547 5.2296875,4.5204409 5.109375,4.5104347 4.1139844,4.4276488 3.29622,5.3920047 3.5466147,6.3533344 c 0.1391244,0.5341353 0.5476894,0.9492625 1.0818956,1.0992731 0.1905634,0.053512 0.6262084,0.044385 0.8125653,-0.017023 z"
       id="path825"
       inkscape:connector-curvature="0" />
    <path
       style="fill:#656565;stroke-width:0.000357143"
       d="M 9.5,2.75 V 1 H 9.75 10 V 2.5 4 H 11.5 13 V 4.25 4.5 H 11.25 9.5 Z"
       id="path823"
       inkscape:connector-curvature="0" />
    <path
       style="fill:#003298;stroke-width:0.000357143"
       d="M 2,6.5 V 2 H 5.2487725 8.497545 l 0.00904,1.3828125 0.00904,1.3828125 0.077379,0.15625 C 8.69166,5.1210881 8.8789115,5.3083397 9.0781246,5.4069956 l 0.15625,0.077379 1.3828134,0.00904 L 12,5.502455 V 8.2512275 11 H 7 2 Z m 4,3 V 9 H 5.5 5 V 9.5 10 H 5.5 6 Z m 4,-1 V 8 H 9.5 9 V 8.5 9 H 9.5 10 Z M 5.734375,8.4070181 C 6.1639862,8.2705106 6.4259397,8.1081766 6.7670581,7.7670581 7.0134572,7.5206587 7.1085825,7.3993447 7.2092509,7.203125 7.3788456,6.8725572 7.4681503,6.5726762 7.4907656,6.2578125 L 7.5092831,6 H 7.7546416 8 V 5.5 5 H 7.6579541 7.3159081 L 7.1981903,4.7734375 C 7.0265156,4.4430275 6.5425184,3.9649472 6.203125,3.7905369 5.7584409,3.5620188 5.5554034,3.515625 5,3.515625 4.4445966,3.515625 4.2415591,3.562019 3.796875,3.7905369 3.4431975,3.9722875 2.9722876,4.4431975 2.7905368,4.796875 2.5620187,5.2415591 2.515625,5.4445966 2.515625,6 c 0,0.5554034 0.046394,0.7584409 0.2749118,1.203125 0.1823761,0.3548944 0.6532107,0.8252722 1.0063382,1.0053628 0.4753194,0.2424066 0.7023494,0.2917066 1.28125,0.2782253 0.3453037,-0.00804 0.4835981,-0.024836 0.65625,-0.079695 z M 11,6.5 V 6 H 10.5 10 V 6.5 7 h 0.5 0.5 z"
       id="path821"
       inkscape:connector-curvature="0" />
    <path
       style="fill:#323232;stroke-width:0.000357143"
       d="m 0.79532572,15.456168 c -0.12587875,-0.05499 -0.25720035,-0.214666 -0.27954885,-0.3399 -0.009878,-0.05535 -0.0139532,-3.295316 -0.009056,-7.1999158 l 0.008904,-7.09927261 0.0644309,-0.0862964 c 0.035437,-0.047463 0.10326325,-0.11529031 0.15072503,-0.15072728 0.0861155,-0.0642975 0.0958501,-0.0644495 4.7011941,-0.0733887 2.538195,-0.004927 4.6641191,-4.4719e-4 4.7242751,0.009955 0.09329,0.0161318 0.343039,0.25178866 1.698528,1.60270779 0.933094,0.9299487 1.603952,1.6224985 1.625,1.6775451 0.0267,0.069815 0.03186,1.5352584 0.02022,5.7399056 -0.01561,5.6417803 -0.01567,5.6462223 -0.08006,5.7324443 -0.03544,0.04746 -0.103264,0.115282 -0.150726,0.150719 l -0.0863,0.06443 -6.146149,0.0067 c -5.0620825,0.0055 -6.16295714,-6.3e-4 -6.24144742,-0.03492 z M 13.00764,9.4998791 13.015625,3.9997581 11.515505,2.499879 10.015386,1 H 5.5076928 1 v 7 7 H 6.9998272 12.999654 Z M 2,13 v -1 h 5 5 v 1 1 H 7 2 Z"
       id="path819"
       inkscape:connector-curvature="0" />
  </g>
</svg>
