<?xml version="1.0" encoding="UTF-8" standalone="no"?>
<!-- Created with Inkscape (http://www.inkscape.org/) -->

<svg
   version="1.1"
   id="svg2"
   width="1600"
   height="1600"
   viewBox="0 0 1600 1600"
   sodipodi:docname="node_sdfgridfillet.svg"
   inkscape:version="1.4 (86a8ad7, 2024-10-11)"
   inkscape:export-filename="VOLUME_CUBE.png"
   inkscape:export-xdpi="3072"
   inkscape:export-ydpi="3072"
   xml:space="preserve"
   xmlns:inkscape="http://www.inkscape.org/namespaces/inkscape"
   xmlns:sodipodi="http://sodipodi.sourceforge.net/DTD/sodipodi-0.dtd"
   xmlns="http://www.w3.org/2000/svg"
   xmlns:svg="http://www.w3.org/2000/svg"
   xmlns:rdf="http://www.w3.org/1999/02/22-rdf-syntax-ns#"
   xmlns:cc="http://creativecommons.org/ns#"
   xmlns:dc="http://purl.org/dc/elements/1.1/"><metadata
     id="metadata8"><rdf:RDF><cc:Work
         rdf:about=""><dc:format>image/svg+xml</dc:format><dc:type
           rdf:resource="http://purl.org/dc/dcmitype/StillImage" /></cc:Work></rdf:RDF></metadata><defs
     id="defs6" /><sodipodi:namedview
     pagecolor="#808080"
     bordercolor="#666666"
     borderopacity="1"
     objecttolerance="10"
     gridtolerance="10"
     guidetolerance="10"
     inkscape:pageopacity="0"
     inkscape:pageshadow="2"
     inkscape:window-width="2560"
     inkscape:window-height="1009"
     id="namedview4"
     showgrid="true"
     inkscape:zoom="0.4609375"
     inkscape:cx="792.94916"
     inkscape:cy="783.18645"
     inkscape:window-x="1912"
     inkscape:window-y="-8"
     inkscape:window-maximized="1"
     inkscape:current-layer="MESH_CUBE"
     inkscape:showpageshadow="0"
     inkscape:pagecheckerboard="1"
     inkscape:deskcolor="#d1d1d1"><inkscape:grid
       type="xygrid"
       id="grid10683"
       originx="0"
       originy="0"
       spacingy="100"
       spacingx="100"
       units="px" /></sodipodi:namedview><g
     id="MESH_CUBE"
     transform="matrix(100,0,0,100,0,4.9999997e-5)"
     style="display:inline;stroke-width:0.0114286;enable-background:new"
     inkscape:label="VOLUME_CUBE"><g
       id="g3"
       transform="translate(-2.3200004,-2.3200005)"
       inkscape:label="Grid"
       style="display:inline;stroke-width:0.0114286;enable-background:new"><path
         id="rect1"
         style="baseline-shift:baseline;display:inline;overflow:visible;vector-effect:none;fill:#323232;stroke-linecap:round;stroke-linejoin:round;paint-order:markers stroke fill;enable-background:accumulate;stop-color:#000000;stop-opacity:1"
         d="M 4.1230891,2.3199999 H 14.516912 c 0.998911,0 1.803088,0.8041776 1.803088,1.8030887 V 14.516911 C 16.32,15.515822 15.515823,16.32 14.516912,16.32 H 4.1230891 C 3.124178,16.32 2.3200004,15.515822 2.3200004,14.516911 V 4.1230886 c 0,-0.9989111 0.8041776,-1.8030887 1.8030887,-1.8030887 z" /><g
         id="rect2-2-5-7"
         transform="matrix(1.0716036,0,0,1.0716036,-0.77860787,-0.66768013)"
         style="stroke-width:0.0106649"><path
           style="fill:#cb6500;stroke-width:0.0106649;stroke-linecap:round;stroke-linejoin:round;paint-order:markers stroke fill"
           d="m 4.953125,3.3203125 c -0.8957377,0 -1.6328125,0.7370748 -1.6328125,1.6328125 V 7.6875 c 0,0.8957377 0.7370748,1.6328125 1.6328125,1.6328125 h 2.8398437 c 0.8957378,0 1.6308594,-0.7370748 1.6308594,-1.6328125 V 4.953125 c 0,-0.8957377 -0.7351216,-1.6328125 -1.6308594,-1.6328125 z m 0,1 h 2.8398437 c 0.3590371,0 0.6308594,0.2737753 0.6308594,0.6328125 V 7.6875 c 0,0.3590372 -0.2718223,0.6328125 -0.6308594,0.6328125 H 4.953125 C 4.5940879,8.3203125 4.3203125,8.0465372 4.3203125,7.6875 V 4.953125 c 0,-0.3590372 0.2737754,-0.6328125 0.6328125,-0.6328125 z"
           id="path10" /><path
           style="fill:#fecb32;stroke-width:0.0106649;stroke-linecap:round;stroke-linejoin:round;paint-order:markers stroke fill"
           d="m 4.9524665,3.8199978 h 2.8396153 c 0.6273874,0 1.1324683,0.5050809 1.1324683,1.1324683 v 2.7350672 c 0,0.6273874 -0.5050809,1.1324683 -1.1324683,1.1324683 H 4.9524665 c -0.6273874,0 -1.1324682,-0.5050809 -1.1324682,-1.1324683 V 4.9524661 c 0,-0.6273874 0.5050808,-1.1324683 1.1324682,-1.1324683 z"
           id="path11" /></g><g
         id="rect2-2-5-7-2"
         transform="matrix(1.0716036,0,0,1.0716036,-0.61860782,-0.66768013)"
         style="stroke-width:0.0106649"><path
           style="fill:#cb6500;stroke-width:0.0106649;stroke-linecap:round;stroke-linejoin:round;paint-order:markers stroke fill"
           d="m 10.900391,3.3203125 c -0.895738,0 -1.6328129,0.7370748 -1.6328129,1.6328125 V 7.6875 c 0,0.8957377 0.7370749,1.6328125 1.6328129,1.6328125 h 2.839843 c 0.895738,0 1.632813,-0.7370748 1.632813,-1.6328125 V 4.953125 c 0,-0.8957377 -0.737075,-1.6328125 -1.632813,-1.6328125 z m 0,1 h 2.839843 c 0.359037,0 0.632813,0.2737753 0.632813,0.6328125 V 7.6875 c 0,0.3590372 -0.273776,0.6328125 -0.632813,0.6328125 h -2.839843 c -0.359037,0 -0.632813,-0.2737753 -0.632813,-0.6328125 V 4.953125 c 0,-0.3590372 0.273776,-0.6328125 0.632813,-0.6328125 z"
           id="path8" /><path
           style="fill:#fecb32;stroke-width:0.0106649;stroke-linecap:round;stroke-linejoin:round;paint-order:markers stroke fill"
           d="m 10.900192,3.8199978 h 2.839616 c 0.627387,0 1.132468,0.5050809 1.132468,1.1324683 v 2.7350672 c 0,0.6273874 -0.505081,1.1324683 -1.132468,1.1324683 h -2.839616 c -0.627387,0 -1.132468,-0.5050809 -1.132468,-1.1324683 V 4.9524661 c 0,-0.6273874 0.505081,-1.1324683 1.132468,-1.1324683 z"
           id="path9" /></g><g
         id="rect2-2-5-7-2-7"
         transform="matrix(1.0716036,0,0,1.0716036,-0.61860782,-0.66768013)"
         style="stroke-width:0.0106649"><path
           style="fill:#cb6500;stroke-width:0.0106649;stroke-linecap:round;stroke-linejoin:round;paint-order:markers stroke fill"
           d="m 10.900391,9.3203125 c -0.895738,0 -1.6328129,0.7370745 -1.6328129,1.6328125 V 13.6875 c 0,0.895738 0.7370749,1.632812 1.6328129,1.632813 h 2.839843 c 0.895738,0 1.632813,-0.737075 1.632813,-1.632813 v -2.734375 c 0,-0.895738 -0.737075,-1.6328125 -1.632813,-1.6328125 z m 0,1.0000005 h 2.839843 c 0.359037,0 0.632813,0.273775 0.632813,0.632812 V 13.6875 c 0,0.359037 -0.273776,0.632813 -0.632813,0.632813 h -2.839843 c -0.359037,0 -0.632813,-0.273776 -0.632813,-0.632813 v -2.734375 c 0,-0.359037 0.273776,-0.632813 0.632813,-0.632812 z"
           id="path6" /><path
           style="fill:#fecb32;stroke-width:0.0106649;stroke-linecap:round;stroke-linejoin:round;paint-order:markers stroke fill"
           d="m 10.900192,9.8199978 h 2.839616 c 0.627387,0 1.132468,0.5050812 1.132468,1.1324682 v 2.735067 c 0,0.627388 -0.505081,1.132469 -1.132468,1.132469 h -2.839616 c -0.627387,0 -1.132468,-0.505081 -1.132468,-1.132469 v -2.735067 c 0,-0.627387 0.505081,-1.1324682 1.132468,-1.1324682 z"
           id="path7" /></g><g
         id="rect2-2-5-7-2-7-9"
         transform="matrix(1.0716036,0,0,1.0716036,-0.64256442,-0.66768013)"
         style="stroke-width:0.0106649"><path
           style="fill:#cb6500;stroke-width:0.0106649;stroke-linecap:round;stroke-linejoin:round;paint-order:markers stroke fill"
           d="m 4.8242187,9.3203125 c -0.8957377,0 -1.6308593,0.7370745 -1.6308593,1.6328125 V 13.6875 c 0,0.895738 0.7351216,1.632812 1.6308593,1.632813 h 2.8398438 c 0.8957377,0 1.6328125,-0.737075 1.6328125,-1.632813 v -2.734375 c 0,-0.895738 -0.7370748,-1.6328125 -1.6328125,-1.6328125 z m 0,1.0000005 h 2.8398438 c 0.3590371,0 0.6328125,0.273775 0.6328125,0.632812 V 13.6875 c 0,0.359037 -0.2737754,0.632813 -0.6328125,0.632813 H 4.8242187 c -0.359037,0 -0.6308593,-0.273776 -0.6308593,-0.632813 v -2.734375 c 0,-0.359037 0.2718223,-0.632813 0.6308593,-0.632812 z"
           id="path4" /><path
           style="fill:#fecb32;stroke-width:0.0106649;stroke-linecap:round;stroke-linejoin:round;paint-order:markers stroke fill"
           d="m 4.8250043,9.8199978 h 2.8396154 c 0.6273874,0 1.1324682,0.5050812 1.1324682,1.1324682 v 2.735067 c 0,0.627388 -0.5050808,1.132469 -1.1324682,1.132469 H 4.8250043 c -0.6273874,0 -1.1324682,-0.505081 -1.1324682,-1.132469 v -2.735067 c 0,-0.627387 0.5050808,-1.1324682 1.1324682,-1.1324682 z"
           id="path5" /></g></g><path
       inkscape:connector-curvature="0"
       id="path827-666"
       d="M 0,7.9999995 V -4.9999997e-7 h 8 8 V 7.9999995 16 H 8 0 Z M 11.326467,14.00029 c 3.319702,-1.106746 3.322552,-1.107867 3.51104,-1.381855 0.206207,-0.299746 0.193743,-0.0036 0.193743,-4.6028105 0,-4.5991825 0.01246,-4.3030644 -0.193743,-4.60281 C 14.649019,3.138827 14.646169,3.1377054 11.326467,2.030959 8.443965,1.0699695 8.219547,1.0000955 8.015625,1.0000955 c -0.203922,0 -0.42834,0.06987 -3.310842,1.0308635 C 1.385081,3.1377054 1.382231,3.138827 1.193744,3.4128145 0.987536,3.7125601 1,3.4164445 1,8.0156245 1,12.614808 0.98754,12.318689 1.193744,12.618435 c 0.188487,0.273988 0.191337,0.275109 3.511039,1.381855 2.882502,0.96099 3.10692,1.030864 3.310842,1.030864 0.203923,0 0.42834,-0.06987 3.310842,-1.030864 z"
       style="display:inline;fill:#ffffff;fill-opacity:0;stroke-width:0.000357143;enable-background:new" /><path
       style="display:inline;fill:none;stroke-width:0.000357143;enable-background:new"
       d="M 9.191363,17.158682 C 8.845318,15.943766 8.82103,15.844606 8.910491,16.01199 c 0.267309,0.500142 0.814727,0.897951 1.374914,0.999153 0.657438,0.11877 1.245662,-0.04992 1.74024,-0.499055 0.420976,-0.382299 0.682615,-1.029699 0.633319,-1.567086 -0.01,-0.108807 -0.01082,-0.199931 -0.0019,-0.202501 0.009,-0.0026 0.05655,0.07514 0.105746,0.172707 0.242993,0.48184 0.807966,0.89219 1.367567,0.993284 0.88249,0.159428 1.695806,-0.223229 2.126669,-1.000573 0.126039,-0.227395 0.188244,-0.30909 0.248762,-0.326703 0.04438,-0.01292 0.243154,-0.09847 0.441715,-0.190121 2.287506,-1.055857 3.919493,-2.585033 4.797439,-4.4952144 0.6945,-1.5110479 0.780411,-3.1724511 0.237884,-4.6002903 C 21.663753,4.455795 21.19871,3.7866132 20.549232,3.2326645 20.208514,2.9420621 19.433075,2.4880954 18.982583,2.3155008 18.225014,2.0252558 17.247926,1.8894984 16.305392,1.9435303 L 15.948056,1.9640153 15.629325,1.785166 C 15.375795,1.6429022 15.250988,1.5955708 15.019202,1.553787 14.360292,1.4350077 13.772666,1.603384 13.277835,2.0527524 12.856859,2.4350519 12.59522,3.0824513 12.644516,3.6198389 c 0.01,0.1088055 0.01082,0.1999307 0.0019,0.2025007 -0.009,0.00257 -0.05655,-0.075148 -0.105746,-0.1727069 C 12.390309,3.3514745 12.096867,3.059916 11.758235,2.872221 10.784114,2.3322906 9.590996,2.6744455 9.051065,3.6485662 8.625603,4.4161686 8.734328,5.3133105 9.332668,5.9722059 l 0.196723,0.2166323 -0.0067,0.4603499 c -0.0037,0.2531927 -0.0086,0.6583746 -0.01083,0.9004044 -0.0023,0.2420297 -0.0087,0.690066 -0.01427,0.9956363 -0.0056,0.3055703 -0.01174,0.7535251 -0.01364,0.9954553 -0.0087,1.0997349 -0.0123,1.4209949 -0.02196,1.9406209 -0.01094,0.588242 -0.018,1.258398 -0.01798,1.705837 l 1.5e-5,0.270255 -0.178691,0.170436 c -0.264822,0.252591 -0.49039,0.675638 -0.557434,1.045454 -0.02895,0.159679 -0.04631,0.383601 -0.03858,0.497606 0.01221,0.179999 -0.217841,-0.600182 -1.747833,-5.9275432 l 5.928146,-8.340123 7.690034,-2.2053 2.2053,7.6900362 2.205301,7.690038 L 17.2602,16.2833 9.570164,18.488601 Z m 3.225277,-3.063355 c -0.04749,-0.09417 -0.168085,-0.264783 -0.267987,-0.379139 l -0.18164,-0.207919 0.007,-0.431896 c 0.0038,-0.237543 0.0088,-0.644548 0.01105,-0.904456 0.0022,-0.259908 0.0087,-0.722592 0.01441,-1.028186 0.0057,-0.305595 0.01189,-0.753573 0.0138,-0.995502 0.0087,-1.1036447 0.01231,-1.4212289 0.02211,-1.9406628 0.0058,-0.3056191 0.01204,-0.7682417 0.01394,-1.0280503 0.0019,-0.2598086 0.0049,-0.5935563 0.0066,-0.7416621 l 0.0032,-0.2692828 0.15629,-0.1499897 c 0.241513,-0.2317777 0.471012,-0.670758 0.535697,-1.0246697 0.02922,-0.1598391 0.04495,-0.3796392 0.03497,-0.4884446 -0.01,-0.1088055 -0.01082,-0.1999306 -0.0019,-0.2025006 0.009,-0.00257 0.05655,0.075148 0.105746,0.172707 0.150361,0.2981581 0.443803,0.5897163 0.782435,0.7774116 0.899625,0.498639 2.019407,0.2408244 2.604285,-0.5996019 l 0.133849,-0.1923291 0.294196,1.99e-5 c 0.791119,5.39e-5 1.501535,0.1951172 2.000896,0.5493986 0.542549,0.3849208 0.942593,1.0063418 1.051175,1.6328719 0.227796,1.3144109 -0.330968,2.7247244 -1.546525,3.9034106 -0.615304,0.59664 -1.365338,1.099973 -2.288195,1.535563 l -0.347168,0.1639 -0.212694,-0.102869 c -0.405195,-0.195972 -0.959617,-0.241057 -1.402501,-0.114049 -0.711916,0.204158 -1.275727,0.821755 -1.407283,1.541532 -0.02921,0.15984 -0.04495,0.379639 -0.03497,0.488444 0.01,0.108807 0.01082,0.199931 0.0019,0.202501 -0.009,0.0026 -0.05515,-0.07237 -0.102639,-0.166546 z"
       id="path829"
       inkscape:connector-curvature="0"
       sodipodi:nodetypes="sssssssssccssssscssssssssscsssssscssssccccccssscssssssscssssssscssssccsssssss" /><path
       style="display:inline;fill:#fefefe;stroke-width:0.000357143;enable-background:new"
       d="m 8.218647,15.431128 c -0.774207,0.05066 -1.495794,-0.537384 -1.580339,-1.287873 -0.09141,-0.811386 0.49692,-1.576582 1.279984,-1.664797 0.811385,-0.09141 1.576584,0.496917 1.664798,1.279981 0.06944,0.616437 -0.247955,1.220861 -0.793097,1.510299 -0.229979,0.122108 -0.311999,0.145421 -0.571346,0.16239 z m 1.894498,-1.451139 c 0.01295,-0.148261 -0.04997,-0.49956 -0.12736,-0.711128 C 9.911375,13.065459 9.776429,12.825259 9.64363,12.659848 9.61468,12.623782 9.62883,12.605118 9.71734,12.562602 11.85455,11.53606 13.221996,10.14204 13.731646,8.4702798 13.857552,8.0572748 13.904557,7.7870739 13.918574,7.395745 13.934524,6.9505189 13.899284,6.6584558 13.779843,6.2458051 13.379942,4.8643808 12.203364,4.0261904 10.56242,3.9538383 l -0.367954,-0.016224 0.02573,-0.1741289 C 10.272026,3.412735 10.197616,2.9598553 10.03519,2.6374669 9.99349,2.5546909 9.96416,2.4783176 9.97002,2.4677473 c 0.03542,-0.063896 1.00393,-0.00978 1.520208,0.084948 1.079663,0.1980906 2.138441,0.7775499 2.781078,1.5220583 1.293885,1.4989928 1.511372,3.6160692 0.581498,5.6604891 -0.735175,1.6163553 -2.287338,3.1062563 -4.208137,4.0393243 -0.574781,0.279212 -0.536679,0.264486 -0.531521,0.20542 z M 8.345789,4.9916091 C 7.571582,5.0422721 6.849994,4.4542251 6.765449,3.7037359 6.674049,2.89235 7.262369,2.127151 8.045433,2.0389367 8.856818,1.9475317 9.622017,2.5358566 9.710231,3.3189205 9.779681,3.9353568 9.462277,4.5397804 8.917135,4.8292195 8.687155,4.9513258 8.605135,4.9746378 8.34579,4.99161 Z"
       id="path827"
       inkscape:connector-curvature="0"
       sodipodi:nodetypes="cssscccsscsscsccscssssccsssssss" /><g
       id="path825-8-5"
       style="display:inline;stroke-width:0.0114286;enable-background:new"
       transform="rotate(-16.001502,-12.352058,-18.737722)"><path
         style="fill:#323232"
         d="M -3.3536706,8.8434185 C -4.1118465,8.6787 -4.6433736,7.9145271 -4.5177608,7.1698106 -4.3819556,6.364666 -3.6054893,5.7912943 -2.8284483,5.9223593 c 0.805145,0.1358049 1.3785168,0.9122705 1.2474519,1.6893108 -0.1031756,0.611696 -0.5748931,1.1052019 -1.1787007,1.2331494 -0.2547294,0.05398 -0.3399981,0.05378 -0.5939735,-0.0014 z"
         id="path2-7" /><path
         style="fill:#323232"
         d="m -2.7460938,5.4296875 c -1.0667367,-0.1799285 -2.0843079,0.5812804 -2.2656249,1.65625 -0.1734183,1.0281389 0.5284217,2.0235554 1.5527343,2.2460938 0.2764201,0.060057 0.5256225,0.060676 0.8027344,0.00195 0.8072142,-0.1710496 1.4309484,-0.824005 1.5683594,-1.6386719 C -0.90796214,6.6285731 -1.671124,5.611001 -2.7460938,5.4296844 Z m -0.1660156,0.9863281 c 0.5353203,0.090293 0.920092,0.625937 0.8378906,1.1132813 -0.06894,0.4087251 -0.3886614,0.7413264 -0.7890625,0.8261719 -0.2323469,0.049237 -0.1532348,0.050304 -0.3847656,0 C -3.740086,8.2485701 -4.103198,7.7152004 -4.0253906,7.2539062 c 0.090293,-0.5353196 0.625936,-0.920092 1.1132812,-0.8378906 z"
         id="path3-6" /></g><path
       style="display:inline;fill:#fefe00;stroke-width:0.000357143;enable-background:new"
       d="M 3.900771,5.2942593 C 3.126564,5.3449223 2.404976,4.7568753 2.320432,4.0063861 2.229032,3.1950003 2.817351,2.4298012 3.600415,2.3415869 4.411801,2.2501819 5.177,2.8385067 5.265214,3.6215706 c 0.06944,0.6164365 -0.247955,1.22086 -0.793097,1.5102991 -0.22998,0.1221059 -0.312,0.1454181 -0.571346,0.1623896 z"
       id="path1" /><g
       id="path825-8"
       style="display:inline;stroke-width:0.0114286;enable-background:new"
       transform="rotate(-16.001502,10.492013,-15.065681)"><path
         style="fill:#323232"
         d="M -3.3536706,8.8434185 C -4.1118465,8.6787 -4.6433736,7.9145271 -4.5177608,7.1698106 -4.3819556,6.364666 -3.6054893,5.7912943 -2.8284483,5.9223593 c 0.805145,0.1358049 1.3785168,0.9122705 1.2474519,1.6893108 -0.1031756,0.611696 -0.5748931,1.1052019 -1.1787007,1.2331494 -0.2547294,0.05398 -0.3399981,0.05378 -0.5939735,-0.0014 z"
         id="path2" /><path
         style="fill:#323232"
         d="m -2.7460938,5.4296875 c -1.0667367,-0.1799285 -2.0843079,0.5812804 -2.2656249,1.65625 -0.1734183,1.0281389 0.5284217,2.0235554 1.5527343,2.2460938 0.2764201,0.060057 0.5256225,0.060676 0.8027344,0.00195 0.8072142,-0.1710496 1.4309484,-0.824005 1.5683594,-1.6386719 C -0.90796214,6.6285731 -1.671124,5.611001 -2.7460938,5.4296844 Z m -0.1660156,0.9863281 c 0.5353203,0.090293 0.920092,0.625937 0.8378906,1.1132813 -0.06894,0.4087251 -0.3886614,0.7413264 -0.7890625,0.8261719 -0.2323469,0.049237 -0.1532348,0.050304 -0.3847656,0 C -3.740086,8.2485701 -4.103198,7.7152004 -4.0253906,7.2539062 c 0.090293,-0.5353196 0.625936,-0.920092 1.1132812,-0.8378906 z"
         id="path3" /></g><path
       style="display:inline;fill:#fefe00;stroke-width:0.000357143;enable-background:new"
       d="m 3.773631,11.733784 c -0.774206,0.05067 -1.495793,-0.537378 -1.580338,-1.287867 -0.0914,-0.8113849 0.49692,-1.5765837 1.279984,-1.664798 0.811385,-0.091405 1.576584,0.4969186 1.664798,1.279982 0.06944,0.616437 -0.247955,1.220857 -0.793098,1.510294 -0.229979,0.122108 -0.312,0.145421 -0.571346,0.162389 z"
       id="path825" /><path
       style="display:inline;fill:#fe9832;stroke-width:0.000357143;enable-background:new"
       d="M 4.327653,8.407398 C 3.894388,8.2522563 2.972051,8.411808 2.972051,8.411808 l 0.0565,-2.7514448 c 0,0 0.991002,0.1743325 1.467321,0.042223 0.08684,0.2235571 0.02145,0.5284078 0.03327,0.7820346 -0.03356,1.5643601 -0.05151,0.3688746 -0.07118,1.9334637 -0.01703,0.057938 -0.09867,-0.00437 -0.130311,-0.010692 z"
       id="path823"
       inkscape:connector-curvature="0"
       sodipodi:nodetypes="cccccccc" /><path
       style="display:inline;fill:#323232;stroke-width:0.000357143;enable-background:new"
       d="m 6.119274,14.261858 c 0,0 0.0081,-0.09369 -0.0019,-0.202501 -0.01,-0.108805 0.0058,-0.328604 0.03497,-0.488444 0.131556,-0.719774 0.695369,-1.337367 1.407284,-1.541525 0.442884,-0.127008 0.997305,-0.08193 1.402499,0.114044 l 0.212742,0.102869 0.347235,-0.1639 c 1.405059,-0.663183 2.403545,-1.475258 3.151184,-2.562869 0.460113,-0.6693432 0.756195,-1.6253812 0.734121,-2.370438 -0.02137,-0.721136 -0.23148,-1.2649698 -0.67845,-1.7560147 -0.566238,-0.6220754 -1.372022,-0.9318332 -2.4242,-0.931905 l -0.294196,-1.99e-5 -0.133848,0.192329 C 9.291836,5.4939099 8.172053,5.7517245 7.272428,5.2530855 6.933797,5.0653902 6.640354,4.773832 6.489993,4.4756739 6.440793,4.3781149 6.384247,4.3029669 6.384247,4.3029669 L 6.246416,3.8223396 c 0,0 0.0081,-0.093694 -0.0019,-0.2025006 C 6.195216,3.0824513 6.456858,2.4350518 6.877834,2.0527523 7.372664,1.6033842 7.960291,1.4350076 8.619201,1.553787 8.850987,1.595571 8.975796,1.642902 9.229325,1.7851655 L 9.548056,1.964015 9.905392,1.94353 c 0.942534,-0.054032 1.919621,0.081726 2.67719,0.3719711 0.450491,0.1725946 1.225931,0.6265614 1.566648,0.9171638 0.860612,0.7340277 1.440843,1.7391817 1.670866,2.8944995 0.152464,0.765742 0.158547,1.4084529 0.0207,2.1848547 -0.447388,2.5197409 -2.372877,4.7310729 -5.293276,6.0790579 -0.198561,0.09165 -0.397332,0.177206 -0.441715,0.190121 -0.06052,0.01761 -0.122723,0.09931 -0.248762,0.326703 C 9.312273,15.890752 8.123402,16.23477 7.145255,15.692644 6.806655,15.504909 6.513213,15.213351 6.362852,14.915193 6.313653,14.817633 6.257105,14.742486 6.257105,14.742486 Z m 2.670719,1.00688 C 9.335135,14.9793 9.652534,14.374876 9.58309,13.758439 9.49488,12.975375 8.729677,12.387052 7.918292,12.478458 c -0.783064,0.08821 -1.371389,0.853411 -1.279984,1.664797 0.08454,0.750489 0.806132,1.338536 1.580339,1.287873 0.259346,-0.01697 0.341367,-0.04028 0.571346,-0.16239 z m 1.854667,-1.49417 C 12.565459,12.841499 14.117622,11.351599 14.852797,9.7352432 15.893754,7.4465927 15.485943,5.0628299 13.807125,3.6230103 13.421654,3.2924163 12.679629,2.8815259 12.190658,2.7279044 11.76913,2.5954721 11.269852,2.4991262 10.831304,2.4655885 c -0.360622,-0.027578 -0.845482,-0.026363 -0.861291,0.00216 -0.0058,0.010552 0.02348,0.08694 0.06517,0.1697196 0.162424,0.3223889 0.236829,0.7752695 0.185006,1.1260184 l -0.02573,0.174129 0.367954,0.016224 c 1.413109,0.062307 2.454133,0.6730301 3.029116,1.7770503 0.117055,0.224766 0.28194,0.8014004 0.313572,1.0966762 0.152219,1.4207742 -0.518238,2.9592341 -1.816983,4.169328 -0.645748,0.601669 -1.39796,1.098443 -2.370785,1.565709 -0.08851,0.04252 -0.102661,0.06118 -0.07371,0.09725 0.132799,0.165411 0.267748,0.405611 0.342155,0.609013 0.07739,0.211568 0.14031,0.562868 0.12736,0.711128 -0.0052,0.05906 -0.04326,0.07379 0.531516,-0.205418 z M 8.917135,4.8292195 C 9.613492,4.4594942 9.917783,3.582353 9.588427,2.8941801 9.235936,2.1576669 8.331497,1.8205532 7.620692,2.1607412 6.884179,2.5132329 6.547066,3.4176718 6.887254,4.1284764 7.151759,4.6811469 7.743035,5.0310524 8.345789,4.9916091 8.605135,4.9746381 8.687155,4.9513251 8.917135,4.8292195 Z"
       id="path821"
       inkscape:connector-curvature="0"
       sodipodi:nodetypes="csssscssssscsssccsssscsssssccscsccsssssssssssccscsccsssssssssssss" /><path
       style="display:inline;fill:#320000;stroke-width:0.000357143;enable-background:new"
       d="M 4.952538,8.7669588 C 4.80772,8.6350977 4.464771,8.4420439 4.464771,8.4420439 L 4.512561,5.6513365 5.057865,5.3722916 c 0,0 -0.0099,1.363956 -0.105327,3.3946672 z m -2.504949,-0.05368 c -0.01998,-1.4869798 -0.01431,-0.5916933 0.02251,-3.390537 0.159953,0.1082293 0.54105,0.324951 0.54105,0.324951 L 2.970419,8.403241 c 0,0 -0.393824,0.1996751 -0.522832,0.3100378 z"
       id="path819"
       inkscape:connector-curvature="0"
       sodipodi:nodetypes="cccccccccc" /></g></svg>
