<?xml version="1.0" encoding="UTF-8" standalone="no"?>
<!-- Created with Inkscape (http://www.inkscape.org/) -->

<svg
   version="1.1"
   id="svg2"
   width="1600"
   height="1600"
   viewBox="0 0 1600 1600"
   sodipodi:docname="node_sdfgridlaplacian.svg"
   inkscape:version="1.4 (86a8ad7, 2024-10-11)"
   inkscape:export-filename="VOLUME_CUBE.png"
   inkscape:export-xdpi="3072"
   inkscape:export-ydpi="3072"
   xml:space="preserve"
   xmlns:inkscape="http://www.inkscape.org/namespaces/inkscape"
   xmlns:sodipodi="http://sodipodi.sourceforge.net/DTD/sodipodi-0.dtd"
   xmlns="http://www.w3.org/2000/svg"
   xmlns:svg="http://www.w3.org/2000/svg"
   xmlns:rdf="http://www.w3.org/1999/02/22-rdf-syntax-ns#"
   xmlns:cc="http://creativecommons.org/ns#"
   xmlns:dc="http://purl.org/dc/elements/1.1/"><metadata
     id="metadata8"><rdf:RDF><cc:Work
         rdf:about=""><dc:format>image/svg+xml</dc:format><dc:type
           rdf:resource="http://purl.org/dc/dcmitype/StillImage" /></cc:Work></rdf:RDF></metadata><defs
     id="defs6" /><sodipodi:namedview
     pagecolor="#808080"
     bordercolor="#666666"
     borderopacity="1"
     objecttolerance="10"
     gridtolerance="10"
     guidetolerance="10"
     inkscape:pageopacity="0"
     inkscape:pageshadow="2"
     inkscape:window-width="2560"
     inkscape:window-height="1009"
     id="namedview4"
     showgrid="true"
     inkscape:zoom="0.23046875"
     inkscape:cx="1017.4915"
     inkscape:cy="516.33899"
     inkscape:window-x="1912"
     inkscape:window-y="-8"
     inkscape:window-maximized="1"
     inkscape:current-layer="MESH_CUBE"
     inkscape:showpageshadow="0"
     inkscape:pagecheckerboard="1"
     inkscape:deskcolor="#d1d1d1"><inkscape:grid
       type="xygrid"
       id="grid10683"
       originx="0"
       originy="0"
       spacingy="100"
       spacingx="100"
       units="px" /></sodipodi:namedview><g
     id="MESH_CUBE"
     transform="matrix(100,0,0,100,0,4.9999997e-5)"
     style="display:inline;stroke-width:0.0114286;enable-background:new"
     inkscape:label="VOLUME_CUBE"><g
       id="g3"
       transform="translate(-2.3200004,-2.3200004)"
       inkscape:label="Grid"
       style="display:inline;stroke-width:0.0114286;enable-background:new"><path
         id="rect1"
         style="baseline-shift:baseline;display:inline;overflow:visible;vector-effect:none;fill:#323232;stroke-linecap:round;stroke-linejoin:round;paint-order:markers stroke fill;enable-background:accumulate;stop-color:#000000;stop-opacity:1"
         d="M 4.1230891,2.3199999 H 14.516912 c 0.998911,0 1.803088,0.8041776 1.803088,1.8030887 V 14.516911 C 16.32,15.515822 15.515823,16.32 14.516912,16.32 H 4.1230891 C 3.124178,16.32 2.3200004,15.515822 2.3200004,14.516911 V 4.1230886 c 0,-0.9989111 0.8041776,-1.8030887 1.8030887,-1.8030887 z" /><g
         id="rect2-2-5-7"
         transform="matrix(1.0716036,0,0,1.0716036,-0.77860787,-0.66768013)"
         style="stroke-width:0.0106649"><path
           style="fill:#cb6500;stroke-width:0.0106649;stroke-linecap:round;stroke-linejoin:round;paint-order:markers stroke fill"
           d="m 4.953125,3.3203125 c -0.8957377,0 -1.6328125,0.7370748 -1.6328125,1.6328125 V 7.6875 c 0,0.8957377 0.7370748,1.6328125 1.6328125,1.6328125 h 2.8398437 c 0.8957378,0 1.6308594,-0.7370748 1.6308594,-1.6328125 V 4.953125 c 0,-0.8957377 -0.7351216,-1.6328125 -1.6308594,-1.6328125 z m 0,1 h 2.8398437 c 0.3590371,0 0.6308594,0.2737753 0.6308594,0.6328125 V 7.6875 c 0,0.3590372 -0.2718223,0.6328125 -0.6308594,0.6328125 H 4.953125 C 4.5940879,8.3203125 4.3203125,8.0465372 4.3203125,7.6875 V 4.953125 c 0,-0.3590372 0.2737754,-0.6328125 0.6328125,-0.6328125 z"
           id="path10" /><path
           style="fill:#fecb32;stroke-width:0.0106649;stroke-linecap:round;stroke-linejoin:round;paint-order:markers stroke fill"
           d="m 4.9524665,3.8199978 h 2.8396153 c 0.6273874,0 1.1324683,0.5050809 1.1324683,1.1324683 v 2.7350672 c 0,0.6273874 -0.5050809,1.1324683 -1.1324683,1.1324683 H 4.9524665 c -0.6273874,0 -1.1324682,-0.5050809 -1.1324682,-1.1324683 V 4.9524661 c 0,-0.6273874 0.5050808,-1.1324683 1.1324682,-1.1324683 z"
           id="path11" /></g><g
         id="rect2-2-5-7-2"
         transform="matrix(1.0716036,0,0,1.0716036,-0.61860782,-0.66768013)"
         style="stroke-width:0.0106649"><path
           style="fill:#cb6500;stroke-width:0.0106649;stroke-linecap:round;stroke-linejoin:round;paint-order:markers stroke fill"
           d="m 10.900391,3.3203125 c -0.895738,0 -1.6328129,0.7370748 -1.6328129,1.6328125 V 7.6875 c 0,0.8957377 0.7370749,1.6328125 1.6328129,1.6328125 h 2.839843 c 0.895738,0 1.632813,-0.7370748 1.632813,-1.6328125 V 4.953125 c 0,-0.8957377 -0.737075,-1.6328125 -1.632813,-1.6328125 z m 0,1 h 2.839843 c 0.359037,0 0.632813,0.2737753 0.632813,0.6328125 V 7.6875 c 0,0.3590372 -0.273776,0.6328125 -0.632813,0.6328125 h -2.839843 c -0.359037,0 -0.632813,-0.2737753 -0.632813,-0.6328125 V 4.953125 c 0,-0.3590372 0.273776,-0.6328125 0.632813,-0.6328125 z"
           id="path8" /><path
           style="fill:#fecb32;stroke-width:0.0106649;stroke-linecap:round;stroke-linejoin:round;paint-order:markers stroke fill"
           d="m 10.900192,3.8199978 h 2.839616 c 0.627387,0 1.132468,0.5050809 1.132468,1.1324683 v 2.7350672 c 0,0.6273874 -0.505081,1.1324683 -1.132468,1.1324683 h -2.839616 c -0.627387,0 -1.132468,-0.5050809 -1.132468,-1.1324683 V 4.9524661 c 0,-0.6273874 0.505081,-1.1324683 1.132468,-1.1324683 z"
           id="path9" /></g><g
         id="rect2-2-5-7-2-7"
         transform="matrix(1.0716036,0,0,1.0716036,-0.61860782,-0.66768013)"
         style="stroke-width:0.0106649"><path
           style="fill:#cb6500;stroke-width:0.0106649;stroke-linecap:round;stroke-linejoin:round;paint-order:markers stroke fill"
           d="m 10.900391,9.3203125 c -0.895738,0 -1.6328129,0.7370745 -1.6328129,1.6328125 V 13.6875 c 0,0.895738 0.7370749,1.632812 1.6328129,1.632813 h 2.839843 c 0.895738,0 1.632813,-0.737075 1.632813,-1.632813 v -2.734375 c 0,-0.895738 -0.737075,-1.6328125 -1.632813,-1.6328125 z m 0,1.0000005 h 2.839843 c 0.359037,0 0.632813,0.273775 0.632813,0.632812 V 13.6875 c 0,0.359037 -0.273776,0.632813 -0.632813,0.632813 h -2.839843 c -0.359037,0 -0.632813,-0.273776 -0.632813,-0.632813 v -2.734375 c 0,-0.359037 0.273776,-0.632813 0.632813,-0.632812 z"
           id="path6" /><path
           style="fill:#fecb32;stroke-width:0.0106649;stroke-linecap:round;stroke-linejoin:round;paint-order:markers stroke fill"
           d="m 10.900192,9.8199978 h 2.839616 c 0.627387,0 1.132468,0.5050812 1.132468,1.1324682 v 2.735067 c 0,0.627388 -0.505081,1.132469 -1.132468,1.132469 h -2.839616 c -0.627387,0 -1.132468,-0.505081 -1.132468,-1.132469 v -2.735067 c 0,-0.627387 0.505081,-1.1324682 1.132468,-1.1324682 z"
           id="path7" /></g><g
         id="rect2-2-5-7-2-7-9"
         transform="matrix(1.0716036,0,0,1.0716036,-0.64256442,-0.66768013)"
         style="stroke-width:0.0106649"><path
           style="fill:#cb6500;stroke-width:0.0106649;stroke-linecap:round;stroke-linejoin:round;paint-order:markers stroke fill"
           d="m 4.8242187,9.3203125 c -0.8957377,0 -1.6308593,0.7370745 -1.6308593,1.6328125 V 13.6875 c 0,0.895738 0.7351216,1.632812 1.6308593,1.632813 h 2.8398438 c 0.8957377,0 1.6328125,-0.737075 1.6328125,-1.632813 v -2.734375 c 0,-0.895738 -0.7370748,-1.6328125 -1.6328125,-1.6328125 z m 0,1.0000005 h 2.8398438 c 0.3590371,0 0.6328125,0.273775 0.6328125,0.632812 V 13.6875 c 0,0.359037 -0.2737754,0.632813 -0.6328125,0.632813 H 4.8242187 c -0.359037,0 -0.6308593,-0.273776 -0.6308593,-0.632813 v -2.734375 c 0,-0.359037 0.2718223,-0.632813 0.6308593,-0.632812 z"
           id="path4" /><path
           style="fill:#fecb32;stroke-width:0.0106649;stroke-linecap:round;stroke-linejoin:round;paint-order:markers stroke fill"
           d="m 4.8250043,9.8199978 h 2.8396154 c 0.6273874,0 1.1324682,0.5050812 1.1324682,1.1324682 v 2.735067 c 0,0.627388 -0.5050808,1.132469 -1.1324682,1.132469 H 4.8250043 c -0.6273874,0 -1.1324682,-0.505081 -1.1324682,-1.132469 v -2.735067 c 0,-0.627387 0.5050808,-1.1324682 1.1324682,-1.1324682 z"
           id="path5" /></g></g><path
       inkscape:connector-curvature="0"
       id="path827-666"
       d="M 0,8 V 0 h 8 8 v 8 8 H 8 0 Z m 11.326467,6.00029 c 3.319702,-1.106746 3.322552,-1.107867 3.51104,-1.381855 0.206207,-0.299746 0.193743,-0.0036 0.193743,-4.60281 0,-4.5991825 0.01246,-4.3030644 -0.193743,-4.60281 C 14.649019,3.1388275 14.646169,3.1377059 11.326467,2.0309595 8.4439647,1.0699703 8.2195475,1.0000958 8.015625,1.0000958 c -0.2039225,0 -0.4283397,0.069875 -3.3108416,1.0308637 C 1.3850808,3.1377059 1.3822313,3.1388275 1.1937435,3.412815 0.98753566,3.7125606 1,3.4164425 1,8.015625 c 0,4.599183 -0.0124643,4.303064 0.1937435,4.60281 0.1884878,0.273988 0.1913373,0.275109 3.5110399,1.381855 2.8825019,0.96099 3.1069191,1.030864 3.3108416,1.030864 0.2039225,0 0.4283397,-0.06987 3.310842,-1.030864 z"
       style="fill:#ffffff;fill-opacity:0;stroke-width:0.000357143" /><g
       id="SMOOTH_LAPLACIAN"
       style="stroke-width:0.0133276"
       transform="matrix(0.85750457,0,0,0.85750457,2.2799269,3.1374315)"><path
         style="fill:none;stroke-width:0.000416491"
         d="M 0,8 V 0 h 8 8 L 15.9963,3.4609375 C 15.9943,5.3644531 15.98131,6.8545866 15.96749,6.772345 15.928729,6.5416875 15.769842,6.2359887 15.589787,6.0456072 15.308136,5.7478022 14.807055,5.5579334 14.445759,5.6121131 L 14.305693,5.6331172 13.797702,5.1258259 13.289711,4.618535 13.3441,4.47333 C 13.642582,3.6764566 13.082591,2.7573183 12.216499,2.622551 11.782852,2.5550738 11.302722,2.7250302 10.995479,3.0547676 L 10.828125,3.234375 10.625,3.1818569 C 9.9681809,3.0120354 9.4317069,2.875 9.4236997,2.875 9.4186284,2.875 9.4066366,2.8165272 9.3970506,2.7450605 9.3680272,2.5286727 9.1774419,2.1853585 8.9856428,2.0039629 8.43175,1.4801142 7.5995,1.4801142 7.0456072,2.0039629 6.8536569,2.1855014 6.6632178,2.5287117 6.6341384,2.7455131 6.6195728,2.8541075 6.6029809,2.8790223 6.5348872,2.8945519 6.455635,2.9126263 5.9764016,3.035172 5.5028137,3.1584656 5.375455,3.1916219 5.2532041,3.21875 5.2311453,3.21875 5.2090866,3.21875 5.1174637,3.1409556 5.0275391,3.0458737 4.72292,2.7237838 4.2370947,2.5542022 3.8141222,2.6223199 2.9451701,2.7622606 2.3886303,3.6763566 2.6871499,4.47333 L 2.7415388,4.618535 2.2335478,5.1258259 1.7255567,5.6331172 1.5854909,5.6121131 C 1.3882448,5.5825341 1.0889959,5.63796 0.855169,5.7473809 0.30688975,6.0039516 -0.03408296,6.6340444 0.0598199,7.2171278 0.12989829,7.6522747 0.41987228,8.0595312 0.79932584,8.2557331 l 0.200443,0.1036419 1.1557e-4,3.320313 L 1,15 h 7 7 l 5.34e-4,-3.320312 5.35e-4,-3.320313 0.175908,-0.076189 c 0.371933,-0.1610918 0.721771,-0.6125422 0.78981,-1.0192175 0.01434,-0.0857 0.0275,1.8264194 0.02954,4.2907195 L 16,16 H 8 0 Z"
         id="path829"
         inkscape:connector-curvature="0" /><path
         style="fill:#6598cb;stroke-width:0.000416491"
         d="M 2,11.159233 V 8.3184663 L 2.1640625,8.2257372 C 2.5088131,8.0308828 2.7827313,7.6240575 2.8469622,7.2114894 2.8909459,6.9289731 2.842606,6.6639884 2.6934286,6.369865 L 2.5719508,6.130355 2.9969129,5.7094372 3.421875,5.2885194 3.53125,5.3350422 C 3.9850128,5.52805 4.5919575,5.3996184 4.9856428,5.0272872 5.1774419,4.8458916 5.3680272,4.5025772 5.3970506,4.2861894 5.4066366,4.2147228 5.4194831,4.15625 5.4255991,4.15625 c 0.00612,0 0.1484046,-0.036168 0.3161978,-0.080373 C 5.9095897,4.031672 6.2231978,3.9507382 6.4387037,3.8960242 l 0.3918288,-0.09948 0.1658769,0.1796375 C 7.3012078,4.306265 7.7874322,4.4779144 8.2210006,4.4084931 8.5094491,4.3623078 8.8301891,4.194045 9.0275391,3.9853763 9.1174638,3.8902944 9.2080478,3.8125 9.2288372,3.8125 c 0.037766,0 0.7276106,0.1702306 1.0524128,0.2597003 0.09453,0.026039 0.208668,0.055399 0.253637,0.065244 0.06827,0.014946 0.08465,0.039419 0.09925,0.1482922 0.02908,0.2168015 0.219519,0.5600115 0.411469,0.7415503 0.394029,0.3726562 1.000824,0.5007581 1.455538,0.3072828 l 0.10823,-0.046051 0.424962,0.4209178 0.424962,0.4209178 -0.121684,0.23951 c -0.214808,0.4228028 -0.223772,0.8247931 -0.02773,1.2437159 0.109896,0.2348428 0.353823,0.5047819 0.550349,0.6090391 L 14,8.2967678 V 11.148384 14 H 8 2 Z"
         id="path825"
         inkscape:connector-curvature="0"
         sodipodi:nodetypes="ccssscccsssssscsssssscsscccssscccccc" /><path
         style="fill:#fe9832;stroke-width:0.000416491"
         d="M 1.171875,7.6593797 C 0.71078791,7.4454438 0.608538,6.8549422 0.9727465,6.5093962 1.4183936,6.086585 2.1548774,6.4019725 2.1548774,7.015625 c 0,0.4985406 -0.5374265,0.8504937 -0.9830024,0.6437547 z m 13.125,0 C 13.835788,7.4454438 13.733538,6.8549422 14.097747,6.5093962 14.543393,6.086585 15.279878,6.4019725 15.279878,7.015625 c 0,0.4985406 -0.537427,0.8504937 -0.983003,0.6437547 z m -10.5625,-3 C 3.2732878,4.4454438 3.1710381,3.8549422 3.5352466,3.5093963 3.9808934,3.086585 4.7173775,3.4019725 4.7173775,4.015625 c 0,0.4985406 -0.5374266,0.8504937 -0.9830025,0.6437547 z m 8,0 C 11.273288,4.4454438 11.171038,3.8549422 11.535247,3.5093963 11.980893,3.086585 12.717378,3.4019725 12.717378,4.015625 c 0,0.4985406 -0.537427,0.8504937 -0.983003,0.6437547 z m -4,-1 C 7.2732878,3.4454438 7.1710381,2.8549421 7.5352466,2.5093963 7.9808934,2.086585 8.7173775,2.4019724 8.7173775,3.015625 c 0,0.4985406 -0.5374266,0.8504938 -0.9830025,0.6437547 z"
         id="path823"
         inkscape:connector-curvature="0" /><path
         style="fill:#fe1919;stroke-width:0.000416491"
         d="M 1.2098451,8.4050088 C 0.64777812,8.3105097 0.15313305,7.8010544 0.060257,7.2210006 -0.05891261,6.4767316 0.49181113,5.7409572 1.2572607,5.6217878 1.9967347,5.5066622 2.7283685,6.0580094 2.8469622,6.8197606 2.9604081,7.5484466 2.4142179,8.2860566 1.671875,8.4066728 1.4616912,8.4408238 1.4220176,8.4406806 1.2098451,8.4050103 Z M 1.7119412,7.6702912 C 2.1866736,7.4722862 2.3034564,6.8603922 1.9335035,6.5093962 1.5794173,6.1734541 1.0174429,6.285925 0.80937031,6.734375 0.55322966,7.2864241 1.1496064,7.9048341 1.7119412,7.6702912 Z M 14.334845,8.4050088 c -0.562067,-0.094499 -1.056712,-0.6039544 -1.149588,-1.1840082 -0.119169,-0.744269 0.431554,-1.4800434 1.197004,-1.5992128 0.739474,-0.1151256 1.471107,0.4362216 1.589701,1.1979728 0.113446,0.728686 -0.432744,1.466296 -1.175087,1.5869122 -0.210184,0.034151 -0.249857,0.034008 -0.46203,-0.00166 z m 0.502096,-0.7347176 c 0.474732,-0.198005 0.591516,-0.809899 0.221562,-1.160895 C 14.704417,6.1734541 14.142443,6.285925 13.93437,6.734375 13.67823,7.2864241 14.274606,7.9048341 14.836941,7.6702912 Z M 3.772345,5.4050088 C 3.2102781,5.3105097 2.7156331,4.8010544 2.622757,4.2210006 2.5035874,3.4767316 3.0543111,2.7409573 3.8197606,2.6217878 4.5592347,2.5066623 5.2908684,3.0580095 5.4094622,3.8197606 5.5229081,4.5484466 4.9767178,5.2860566 4.234375,5.4066728 4.0241913,5.4408237 3.9845175,5.4406806 3.772345,5.4050103 Z M 4.2744412,4.6702912 C 4.7491734,4.4722862 4.8659566,3.8603922 4.4960034,3.5093963 4.1419172,3.1734541 3.5799428,3.285925 3.3718703,3.734375 3.1157297,4.2864241 3.7121062,4.9048341 4.2744412,4.6702912 Z m 7.4979038,0.7347176 c -0.562067,-0.094499 -1.056712,-0.6039544 -1.149588,-1.1840082 -0.119169,-0.744269 0.431554,-1.4800433 1.197004,-1.5992128 0.739474,-0.1151255 1.471107,0.4362217 1.589701,1.1979728 0.113446,0.728686 -0.432744,1.466296 -1.175087,1.5869122 -0.210184,0.034151 -0.249857,0.034008 -0.46203,-0.00166 z M 12.274441,4.6702912 C 12.749173,4.4722862 12.865957,3.8603922 12.496003,3.5093963 12.141917,3.1734541 11.579943,3.285925 11.37187,3.734375 11.11573,4.2864241 11.712106,4.9048341 12.274441,4.6702912 Z M 7.772345,4.4050088 C 7.2102781,4.3105097 6.7156331,3.8010544 6.6227569,3.2210006 6.5035875,2.4767315 7.0543112,1.7409573 7.8197606,1.6217878 8.5592347,1.5066623 9.2908684,2.0580095 9.4094622,2.8197607 9.5229081,3.5484466 8.9767178,4.2860566 8.234375,4.4066728 8.0241913,4.4408237 7.9845175,4.4406806 7.772345,4.4050103 Z M 8.2744412,3.6702913 C 8.7491734,3.4722863 8.8659566,2.8603922 8.4960034,2.5093963 8.1419172,2.1734541 7.5799428,2.285925 7.3718703,2.734375 7.1157297,3.2864241 7.7121062,3.9048341 8.2744412,3.6702913 Z"
         id="path821"
         inkscape:connector-curvature="0" /><path
         style="fill:#191919;stroke-width:0.000416491"
         d="M 1,11.672648 V 8.3452969 l 0.085937,0.034533 c 0.1299746,0.052229 0.6248161,0.042464 0.78125,-0.015417 L 2,8.3152725 V 11.157636 14 h 6 6 v -2.84375 c 0,-1.5640625 0.0053,-2.84375 0.0117,-2.84375 0.0064,0 0.07323,0.022243 0.148437,0.049428 0.149933,0.054196 0.538081,0.072729 0.72268,0.034505 L 15,8.3721678 V 11.686084 15 H 8 1 Z M 2.4204046,5.9983447 C 2.3046263,5.8796366 1.9163323,5.65625 1.8257706,5.65625 c -0.022458,0 -0.047926,-0.011478 -0.056596,-0.025507 -0.00867,-0.014029 0.2063869,-0.2473322 0.4779046,-0.5184518 l 0.4936686,-0.4929454 0.08012,0.1367147 c 0.092811,0.1583703 0.3419884,0.4009303 0.491058,0.4780172 l 0.1030013,0.053264 -0.417967,0.4188287 C 2.7670784,5.9365269 2.5711051,6.125 2.5614638,6.125 2.5518225,6.125 2.4883459,6.068005 2.4204046,5.9983447 Z M 13.03429,5.7061709 12.616323,5.2873422 12.719324,5.2340781 c 0.14907,-0.077087 0.398247,-0.3196469 0.491058,-0.4780172 l 0.08012,-0.1367146 0.493669,0.4929453 c 0.45621,0.4555418 0.525242,0.5439165 0.424922,0.5439831 -0.09116,6.25e-5 -0.441145,0.1974134 -0.57936,0.3266969 C 13.546221,6.0610872 13.472125,6.125 13.465075,6.125 c -0.0071,0 -0.200903,-0.1884731 -0.430785,-0.4188291 z M 5.4276928,4.0966281 C 5.4560731,3.9881012 5.3796869,3.6224272 5.2874725,3.4253694 L 5.1966769,3.2313437 5.4655259,3.1654178 C 5.6133928,3.1291588 5.8960938,3.0575761 6.09375,3.0063454 c 0.5821572,-0.1508897 0.5145225,-0.1625431 0.5225784,0.09004 0.00484,0.1518767 0.03163,0.2769729 0.088299,0.4123757 0.04474,0.1069004 0.088455,0.2170647 0.097144,0.2448097 0.012988,0.041471 -0.055537,0.068097 -0.3851741,0.1496613 C 6.1960628,3.9578003 5.8890625,4.0365672 5.734375,4.0782694 5.39249,4.1704381 5.4086437,4.1694709 5.4276928,4.0966281 Z m 4.9316822,-0.00301 C 10.239062,4.0611494 9.9283513,3.9815378 9.6689056,3.9167019 L 9.1971863,3.7988178 9.2877272,3.6053363 C 9.3797284,3.4087347 9.4560431,3.0430341 9.4276928,2.9346219 9.4191175,2.9018299 9.4167856,2.875 9.4225106,2.875 c 0.00573,0 0.2329244,0.057447 0.5048869,0.1276611 0.2719625,0.070214 0.5836325,0.1489936 0.6926005,0.175067 0.222135,0.053151 0.216419,0.029867 0.08463,0.344761 -0.05688,0.1359062 -0.08344,0.2603493 -0.0883,0.4137559 -0.0038,0.1206653 -0.01398,0.2187191 -0.02258,0.2178969 -0.0086,-8.219e-4 -0.114062,-0.028059 -0.234375,-0.060526 z"
         id="path819"
         inkscape:connector-curvature="0"
         sodipodi:nodetypes="ccsscccccssssccccccsssscsscsssscsscssssssscsssssssssscsssssscsss" /></g></g></svg>
