<?xml version="1.0" encoding="UTF-8" standalone="no"?>
<!-- Created with Inkscape (http://www.inkscape.org/) -->

<svg
   version="1.1"
   id="svg2"
   width="1600"
   height="1600"
   viewBox="0 0 1600 1600"
   sodipodi:docname="node_vector.svg"
   inkscape:version="1.4.3 (0d15f75, 2025-12-25)"
   xmlns:inkscape="http://www.inkscape.org/namespaces/inkscape"
   xmlns:sodipodi="http://sodipodi.sourceforge.net/DTD/sodipodi-0.dtd"
   xmlns="http://www.w3.org/2000/svg"
   xmlns:svg="http://www.w3.org/2000/svg"
   xmlns:rdf="http://www.w3.org/1999/02/22-rdf-syntax-ns#"
   xmlns:cc="http://creativecommons.org/ns#"
   xmlns:dc="http://purl.org/dc/elements/1.1/">
  <metadata
     id="metadata8">
    <rdf:RDF>
      <cc:Work
         rdf:about="">
        <dc:format>image/svg+xml</dc:format>
        <dc:type
           rdf:resource="http://purl.org/dc/dcmitype/StillImage" />
      </cc:Work>
    </rdf:RDF>
  </metadata>
  <defs
     id="defs6" />
  <sodipodi:namedview
     pagecolor="#808080"
     bordercolor="#666666"
     borderopacity="1"
     objecttolerance="10"
     gridtolerance="10"
     guidetolerance="10"
     inkscape:pageopacity="0"
     inkscape:pageshadow="2"
     inkscape:window-width="1920"
     inkscape:window-height="1009"
     id="namedview4"
     showgrid="true"
     inkscape:zoom="0.25000001"
     inkscape:cx="495.99999"
     inkscape:cy="367.99999"
     inkscape:window-x="-8"
     inkscape:window-y="-8"
     inkscape:window-maximized="1"
     inkscape:current-layer="NODE_VECTOR"
     inkscape:showpageshadow="0"
     inkscape:pagecheckerboard="true"
     inkscape:deskcolor="#d1d1d1">
    <inkscape:grid
       id="grid1"
       units="px"
       originx="0"
       originy="0"
       spacingx="100"
       spacingy="100"
       empcolor="#0099e5"
       empopacity="0.30196078"
       color="#0099e5"
       opacity="0.14901961"
       empspacing="5"
       enabled="true"
       visible="true" />
  </sodipodi:namedview>
  <g
     id="NODE_VECTOR"
     transform="matrix(100,0,0,100,0,4.9999997e-5)"
     style="stroke-width:0.0114286">
    <path
       style="fill:#fefefe;stroke-width:0.000357143"
       d="M 2.0111089,14.523438 C 2.1529443,11.275996 3.4884622,8.2884238 5.8571928,5.9196928 7.7843547,3.9925312 10.254029,2.6739387 12.8125,2.2061613 13.365708,2.1050155 13.969546,2.0367937 14.539063,2.0110937 L 15,1.9902933 V 8.4951466 15 H 8.4951472 1.9902946 Z M 1.0054596,7.6953125 1,1 7.6953125,1.0044 C 11.610298,1.00698 14.247878,1.019727 14.046875,1.035107 9.5602631,1.3784102 5.3638656,4.02154 2.9484308,8.0255422 2.8376683,8.2091503 2.6156347,8.6195313 2.4550228,8.9375 1.6121182,10.606227 1.1523256,12.308953 1.0204717,14.25 1.0152217,14.32734 1.0084627,11.377734 1.0054596,7.6953125 Z"
       id="path821"
       inkscape:connector-curvature="0"
       sodipodi:nodetypes="sssscccccsscccsscs" />
    <path
       style="fill:#323232;stroke-width:0.000357143"
       d="M 0,8 V 0 h 8 8 v 8 8 H 8 0 Z M 15,8.4951466 V 1.9902933 l -0.460937,0.0208 C 12.797398,2.0896883 11.186632,2.4997118 9.596075,3.2693403 8.1417531,3.9730481 6.9810809,4.795805 5.8571928,5.9196928 3.4884622,8.2884238 2.1529443,11.275996 2.0111089,14.523438 L 1.9902946,15 H 8.4951472 15 Z M 1.0646257,13.71875 C 1.3111447,10.935732 2.5517447,8.11599 4.5087609,5.890625 6.9774478,3.0834283 10.462357,1.3093854 14.046875,1.0351115 14.247878,1.0197315 11.610298,1.00698 7.6953125,1.0044045 L 1,1 1.00546,7.6953125 c 0.003,3.6824215 0.00976,6.6320315 0.015012,6.5546875 0.00525,-0.07734 0.025123,-0.316406 0.044154,-0.53125 z"
       id="path819"
       inkscape:connector-curvature="0"
       sodipodi:nodetypes="cccccccccccsssscccccssscccc" />
    <path
       style="font-weight:bold;font-size:768.998px;line-height:2;font-family:Titillium;-inkscape-font-specification:'Titillium Bold';text-align:justify;fill:#6363c7;stroke:#323232;stroke-width:1.89717;stroke-linecap:round;stroke-linejoin:round;stroke-dasharray:none;paint-order:markers stroke fill"
       d="M 6.832737,3.9485835 H 4.6375418 L 7.4496875,9.0276608 4.6375418,13.705007 H 6.6892605 L 8.5401113,10.3333 10.347919,13.705007 h 2.195195 L 9.7309691,8.9272282 12.543114,3.9485835 H 10.491396 L 8.6405453,7.5355016 Z"
       id="text1"
       aria-label="XY"
       sodipodi:nodetypes="ccccccccccccc" />
    <path
       style="font-weight:bold;font-size:768.998px;line-height:2;font-family:Titillium;-inkscape-font-specification:'Titillium Bold';text-align:justify;fill:#6363c7;stroke:none;stroke-width:2.93949;stroke-linecap:round;stroke-linejoin:round;paint-order:markers stroke fill"
       d="M 6.8189003,3.9029019 H 4.6064249 L 7.4407073,9.0219617 4.6064249,13.736126 h 2.0678696 l 1.8654203,-3.398247 1.8220382,3.398247 H 12.57423 L 9.739946,8.9207374 12.57423,3.9029019 H 10.50636 L 8.6409398,7.5180561 Z"
       id="text1-8"
       aria-label="XY"
       sodipodi:nodetypes="ccccccccccccc" />
  </g>
</svg>
