<?xml version="1.0" encoding="UTF-8" standalone="no"?>
<!-- Created with Inkscape (http://www.inkscape.org/) -->

<svg
   version="1.1"
   id="svg2"
   width="1600"
   height="1600"
   viewBox="0 0 1600 1600"
   sodipodi:docname="node_defocus.svg"
   inkscape:version="1.2.2 (732a01da63, 2022-12-09)"
   xmlns:inkscape="http://www.inkscape.org/namespaces/inkscape"
   xmlns:sodipodi="http://sodipodi.sourceforge.net/DTD/sodipodi-0.dtd"
   xmlns="http://www.w3.org/2000/svg"
   xmlns:svg="http://www.w3.org/2000/svg"
   xmlns:rdf="http://www.w3.org/1999/02/22-rdf-syntax-ns#"
   xmlns:cc="http://creativecommons.org/ns#"
   xmlns:dc="http://purl.org/dc/elements/1.1/">
  <metadata
     id="metadata8">
    <rdf:RDF>
      <cc:Work
         rdf:about="">
        <dc:format>image/svg+xml</dc:format>
        <dc:type
           rdf:resource="http://purl.org/dc/dcmitype/StillImage" />
      </cc:Work>
    </rdf:RDF>
  </metadata>
  <defs
     id="defs6" />
  <sodipodi:namedview
     pagecolor="#808080"
     bordercolor="#666666"
     borderopacity="1"
     objecttolerance="10"
     gridtolerance="10"
     guidetolerance="10"
     inkscape:pageopacity="0"
     inkscape:pageshadow="2"
     inkscape:window-width="2560"
     inkscape:window-height="1009"
     id="namedview4"
     showgrid="false"
     inkscape:zoom="0.5"
     inkscape:cx="424"
     inkscape:cy="770"
     inkscape:window-x="-8"
     inkscape:window-y="-8"
     inkscape:window-maximized="1"
     inkscape:current-layer="NODE_DEFOCUS"
     inkscape:showpageshadow="0"
     inkscape:pagecheckerboard="true"
     inkscape:deskcolor="#d1d1d1" />
  <g
     id="NODE_DEFOCUS"
     transform="matrix(100.04899,0,0,100.04899,-0.7838156,-0.92277009)"
     style="stroke-width:0.00999511">
    <path
       style="fill:none;stroke-width:0.000312347"
       d="m 0.00525322,12.320313 c 0.00288927,-2.023829 0.01049336,-3.623438 0.01689797,-3.554688 0.02845776,0.3054784 0.14354358,0.9360628 0.23070538,1.264093 0.59895187,2.254133 2.11079903,4.109787 4.18799713,5.140383 0.839951,0.41674 1.816056,0.703775 2.7466463,0.807684 0.060156,0.0067 -1.5324219,0.01446 -3.5390625,0.01721 L 0,16 Z M 8.765625,15.977849 c 0.9098853,-0.08476 1.932009,-0.380311 2.793521,-0.807748 2.081114,-1.032539 3.588965,-2.885628 4.19058,-5.150059 0.085,-0.3199407 0.199955,-0.9520548 0.228123,-1.254417 0.0064,-0.06875 0.01401,1.530859 0.0169,3.554688 L 16,16 12.320313,15.9947 C 10.296484,15.9918 8.696875,15.98421 8.765625,15.9778 Z M 6.2403953,10.976822 C 6.2329075,10.963788 5.8523181,10.304436 5.3946406,9.5115931 4.9300278,8.7067359 4.5629381,8.0373366 4.5634919,7.9959681 4.5640356,7.9552169 4.942985,7.2679688 5.4055978,6.46875 L 6.2467122,5.015625 H 8 9.7532878 L 10.594402,6.46875 C 11.083258,7.3133056 11.435517,7.9545938 11.435517,8 c 0,0.045406 -0.35226,0.6866981 -0.84111,1.53125 l -0.8411104,1.453125 -1.7496438,0.0081 c -0.9623041,0.0044 -1.75577,-0.0026 -1.7632575,-0.01563 z M 0.00525322,3.6796875 0,0 3.6796875,0.00525322 C 5.7035156,0.00814249 7.303125,0.01574658 7.234375,0.02215119 6.3244897,0.10691425 5.3023656,0.40246178 4.4408537,0.82989862 2.3597395,1.8624381 0.85188947,3.7155272 0.25027441,5.9799578 0.16527231,6.2998987 0.05031866,6.9320128 0.02215119,7.234375 0.01574658,7.303125 0.00814249,5.7035156 0.00525322,3.6796875 Z M 15.968744,7.2265625 C 15.968734,7.0333694 15.848595,6.3524134 15.747102,5.9702822 15.148527,3.7165825 13.63634,1.8604931 11.559146,0.82989862 10.719195,0.41315913 9.7430903,0.12612394 8.8125,0.02221504 8.7523438,0.01549804 10.344922,0.0077518 12.351563,0.00500116 L 16,0 v 3.671875 c 0,2.0195312 -0.007,3.671875 -0.01563,3.671875 -0.0086,0 -0.01563,-0.052734 -0.01563,-0.1171875 z"
       id="path833"
       inkscape:connector-curvature="0" />
    <path
       style="fill:#fe98fe;stroke-width:0.000312347"
       d="M 0.46907894,10.726563 C 0.31892494,10.313224 0.17070645,9.7474147 0.08997013,9.2793534 0.0261698,8.9094769 0.01751851,8.7568544 0.01745098,8 0.01738411,7.2503766 0.02633955,7.0887425 0.08757374,6.734375 0.17351034,6.2370525 0.30163221,5.7477278 0.47051869,5.2718262 0.60461866,4.8939487 1.0105175,4.0305122 1.0532246,4.0322819 c 0.031987,0.00132 2.2312085,3.8114265 2.281476,3.9526062 0.050047,0.1405613 0.5644166,1.0367316 0.6333691,1.1035 0.02967,0.02873 0.1146306,0.1577057 0.1888015,0.2866119 0.074171,0.1289063 0.1465613,0.2390625 0.1608675,0.2447916 0.014306,0.00573 0.026011,0.029167 0.026011,0.052083 0,0.022917 0.011146,0.046354 0.024768,0.052083 0.039498,0.016611 0.1627316,0.23183 0.1627316,0.2841994 0,0.02621 0.021094,0.05575 0.046875,0.06564 0.025781,0.0099 0.046875,0.03982 0.046875,0.06651 0,0.02669 0.098438,0.217653 0.21875,0.424365 C 4.9640625,10.77139 5.0625,10.953902 5.0625,10.970259 5.0625,10.988804 4.2166272,11 2.8154554,11 H 0.56841084 Z"
       id="path831"
       inkscape:connector-curvature="0" />
    <path
       style="fill:#98cbfe;stroke-width:0.000312347"
       d="m 6.9150294,3.9385528 c 0.00884,-0.033796 0.5110762,-0.919106 1.116085,-1.9673556 L 9.1311306,0.06528865 9.2296278,0.08275553 C 10.483777,0.30515857 11.456797,0.68622066 12.443695,1.3414753 13.427652,1.9947772 14.24792,2.8533682 14.8716,3.8828125 L 14.942598,4 H 10.920779 C 6.9373156,4 6.8991137,3.9994156 6.9150294,3.9385528 Z"
       id="path829"
       inkscape:connector-curvature="0" />
    <path
       style="fill:#fecb98;stroke-width:0.000312347"
       d="m 8.03125,15.98972 c 0,-0.04641 2.281531,-3.964712 2.337153,-4.013822 0.07882,-0.06959 0.569097,-0.924012 0.569097,-0.991782 0,-0.0283 0.08437,-0.195817 0.1875,-0.372249 0.103125,-0.176433 0.1875,-0.337061 0.1875,-0.356952 0,-0.01989 0.01406,-0.03617 0.03125,-0.03617 0.01719,0 0.03125,-0.01988 0.03125,-0.04418 0,-0.06904 0.192845,-0.4285828 0.239472,-0.446475 0.02298,-0.00882 0.04178,-0.029183 0.04178,-0.045257 0,-0.016074 0.01516,-0.04621 0.03369,-0.066969 0.01853,-0.020759 0.09635,-0.1467278 0.172939,-0.2799309 0.07659,-0.1332031 0.15637,-0.2421875 0.177292,-0.2421875 0.02092,0 0.539265,0.8683594 1.151872,1.9296884 l 1.113832,1.929687 -0.17395,0.203125 c -1.262635,1.474408 -2.96513,2.439687 -4.850673,2.750228 -0.3879972,0.0639 -1.25,0.121306 -1.25,0.08324 z"
       id="path827"
       inkscape:connector-curvature="0" />
    <path
       style="fill:#cb98fe;stroke-width:0.000312347"
       d="M 2.8079587,4.9765625 1.6941274,3.046875 1.8680771,2.84375 C 3.1307125,1.3693417 4.8332072,0.40406341 6.71875,0.09352193 7.1067472,0.02962031 7.96875,-0.0277836 7.96875,0.01027986 7.96875,0.0566949 5.6872191,3.9749916 5.6315969,4.0241016 5.5527769,4.0936937 5.0625,4.9481141 5.0625,5.0158841 c 0,0.028305 -0.084375,0.1958171 -0.1875,0.3722493 -0.103125,0.1764322 -0.1875,0.3370603 -0.1875,0.3569513 0,0.019891 -0.014062,0.036165 -0.03125,0.036165 -0.017188,0 -0.03125,0.019881 -0.03125,0.04418 0,0.069039 -0.192845,0.4285825 -0.2394719,0.4464747 -0.022978,0.00882 -0.041778,0.029183 -0.041778,0.045257 0,0.016074 -0.01516,0.04621 -0.033688,0.066969 -0.018529,0.02076 -0.096351,0.146729 -0.1729393,0.2799321 C 4.0605347,6.7972656 3.9807534,6.90625 3.9598309,6.90625 c -0.020923,0 -0.539265,-0.8683594 -1.1518722,-1.9296875 z"
       id="path825"
       inkscape:connector-curvature="0" />
    <path
       style="fill:#fe9898;stroke-width:0.000312347"
       d="M 6.53125,15.87608 C 4.6760875,15.529053 2.9391341,14.488798 1.7530837,13.014451 1.5703616,12.787315 1.2932366,12.389267 1.1283996,12.117188 L 1.0574025,12 h 4.0218184 c 3.9834635,0 4.0216653,5.88e-4 4.0057497,0.06145 -0.021997,0.08412 -2.2128115,3.87679 -2.2372781,3.87311 C 6.8369305,15.93296 6.6945313,15.90663 6.53125,15.87608 Z"
       id="path823"
       inkscape:connector-curvature="0" />
    <path
       style="fill:#98fe65;stroke-width:0.000312347"
       d="M 13.8125,10.044017 C 13.202344,8.9865491 12.686103,8.0735416 12.665299,8.0151119 12.615252,7.8745506 12.100883,6.9783803 12.03193,6.9116119 12.00226,6.8828816 11.9173,6.7539062 11.843129,6.625 11.768958,6.4960937 11.696568,6.3859375 11.682261,6.3802084 c -0.01431,-0.00573 -0.02601,-0.029167 -0.02601,-0.052083 0,-0.022917 -0.01115,-0.046354 -0.02477,-0.052083 -0.0395,-0.016611 -0.162732,-0.23183 -0.162732,-0.2841994 0,-0.02621 -0.02109,-0.05575 -0.04687,-0.065643 -0.02578,-0.00989 -0.04687,-0.039823 -0.04687,-0.066512 0,-0.026688 -0.09844,-0.2176528 -0.21875,-0.4243653 C 11.035937,5.2286097 10.9375,5.0460981 10.9375,5.0297406 10.9375,5.0111956 11.783373,5 13.184545,5 h 2.247044 l 0.09933,0.2734375 c 0.150154,0.4133388 0.298372,0.9791478 0.379109,1.4472091 0.0638,0.3698765 0.07245,0.522499 0.07252,1.2793534 6.3e-5,0.7496234 -0.0089,0.9112575 -0.07012,1.265625 -0.08594,0.4973225 -0.214058,0.986647 -0.382945,1.462549 -0.1341,0.377877 -0.539998,1.241314 -0.582706,1.239544 -0.0137,-5.67e-4 -0.524119,-0.866233 -1.134275,-1.923701 z"
       id="path821"
       inkscape:connector-curvature="0" />
    <path
       style="fill:#191919;stroke-width:0.000312347"
       d="m 7.0978406,15.966274 c -0.109469,-0.01419 -0.2037809,-0.03055 -0.2095818,-0.03635 -0.0058,-0.0058 0.4880612,-0.874532 1.0974718,-1.930513 C 8.5951412,12.94343 9.09375,12.06157 9.09375,12.039723 9.09375,12.007798 8.3035813,12 5.0686603,12 H 1.0435705 L 0.86723344,11.648438 c -0.0969853,-0.19336 -0.20472647,-0.41836 -0.23942469,-0.5 L 0.56472109,11 H 2.8136105 C 4.21595,11 5.0625,10.988805 5.0625,10.970259 5.0625,10.953902 4.9640625,10.77139 4.84375,10.564678 4.7234375,10.357966 4.625,10.167001 4.625,10.140313 c 0,-0.02669 -0.021094,-0.05662 -0.046875,-0.06651 -0.025781,-0.0099 -0.046875,-0.03943 -0.046875,-0.06564 0,-0.05237 -0.1232334,-0.2675883 -0.1627316,-0.2841996 -0.013623,-0.00573 -0.024768,-0.029167 -0.024768,-0.052083 0,-0.022917 -0.011705,-0.046354 -0.026011,-0.052083 C 4.3034325,9.6140625 4.2310419,9.5039063 4.1568712,9.375 4.0827003,9.2460938 3.9975419,9.1169341 3.96763,9.0879784 3.9009997,9.0234784 3.34375,8.0539178 3.34375,8.0024878 3.34375,7.9821859 2.8467866,7.1049616 2.2393869,6.0531003 1.6319872,5.0012387 1.1176861,4.1080034 1.0964957,4.0681325 1.062379,4.0039403 1.0724175,3.9713169 1.1841666,3.7832153 1.2535761,3.6663819 1.3963195,3.4548647 1.5013742,3.3131775 1.6751344,3.0788273 1.6958893,3.0608159 1.731215,3.1137197 1.7525728,3.145705 2.2541912,4.0121094 2.8459225,5.0390625 3.4376541,6.0660156 3.9389144,6.90625 3.9598347,6.90625 c 0.020921,0 0.1007,-0.1089844 0.1772881,-0.2421875 0.076588,-0.1332031 0.1544103,-0.2591722 0.1729391,-0.2799309 0.018528,-0.020759 0.033688,-0.050895 0.033688,-0.066969 0,-0.016074 0.0188,-0.03644 0.041778,-0.045257 C 4.432155,6.2540128 4.625,5.8944694 4.625,5.8254303 c 0,-0.024299 0.014062,-0.04418 0.03125,-0.04418 0.017188,0 0.03125,-0.016274 0.03125,-0.036165 0,-0.019891 0.084375,-0.1805191 0.1875,-0.3569513 0.103125,-0.1764321 0.1875,-0.3439443 0.1875,-0.3722493 0,-0.067349 0.4890956,-0.9180944 0.5774556,-1.0044413 0.03753,-0.036675 0.5803778,-0.9557465 1.2063281,-2.0423803 L 7.984375,-0.00663526 8.46875,0.01094303 c 0.2664062,0.0096681 0.5227625,0.02873912 0.5696806,0.04238013 L 9.1237363,0.078125 8.0149931,1.9993397 C 7.4051844,3.0560078 6.90625,3.9384297 6.90625,3.9602772 6.90625,3.9922019 7.6964188,4 10.93134,4 h 4.025089 l 0.176338,0.3515625 c 0.09699,0.1933594 0.204726,0.4183594 0.239424,0.5 L 15.435279,5 h -2.24889 C 11.78405,5 10.9375,5.0111953 10.9375,5.0297406 c 0,0.016357 0.09844,0.1988691 0.21875,0.4055813 0.120313,0.2067125 0.21875,0.3976768 0.21875,0.4243653 0,0.026688 0.02109,0.056619 0.04687,0.066512 0.02578,0.00989 0.04687,0.039433 0.04687,0.065643 0,0.052369 0.123233,0.2675881 0.162732,0.2841994 0.01362,0.00573 0.02477,0.029167 0.02477,0.052083 0,0.022917 0.0117,0.046354 0.02601,0.052083 0.01431,0.00573 0.0867,0.1158853 0.160868,0.2447916 0.07417,0.1289062 0.159329,0.2580659 0.189241,0.2870216 0.06663,0.0645 0.62388,1.0340606 0.62388,1.0854906 0,0.020302 0.496963,0.8975262 1.104363,1.9493875 0.6074,1.0518611 1.121701,1.9450971 1.142891,1.9849681 0.03412,0.06419 0.02408,0.09681 -0.08767,0.284917 -0.06941,0.116833 -0.212152,0.32835 -0.317207,0.470038 -0.17376,0.23435 -0.194515,0.252361 -0.229841,0.199457 C 14.247417,12.854299 13.745801,11.98789 13.15407,10.960937 12.562346,9.9339844 12.061086,9.09375 12.040165,9.09375 c -0.02092,0 -0.1007,0.1089844 -0.177288,0.2421875 -0.07659,0.1332031 -0.15441,0.2591722 -0.172939,0.2799309 -0.01853,0.020759 -0.03369,0.050895 -0.03369,0.066969 0,0.016074 -0.0188,0.03644 -0.04178,0.045257 -0.04663,0.017892 -0.239472,0.3774356 -0.239472,0.4464746 0,0.0243 -0.01406,0.04418 -0.03125,0.04418 -0.01719,0 -0.03125,0.01627 -0.03125,0.03617 0,0.01989 -0.08437,0.180519 -0.1875,0.356952 -0.103125,0.176432 -0.1875,0.343944 -0.1875,0.372249 0,0.06735 -0.489096,0.918094 -0.577456,1.004441 -0.03753,0.03668 -0.5803774,0.954165 -1.2063278,2.038865 L 8.015625,15.999604 7.65625,15.995839 c -0.1976562,-0.0021 -0.4489406,-0.01538 -0.5584094,-0.02956 z M 10.594407,9.53125 C 11.083257,8.6866981 11.435517,8.0454059 11.435517,8 c 0,-0.045406 -0.352259,-0.6866944 -0.841115,-1.53125 L 9.7532878,5.015625 H 8 6.2467122 L 5.4055978,6.46875 C 4.942985,7.2679687 4.5640372,7.9552169 4.5634919,7.9959681 c -5.531e-4,0.041368 0.3665359,0.7107678 0.8311487,1.515625 0.4576775,0.7928429 0.8382669,1.4521949 0.8457547,1.4652289 0.00749,0.01303 0.8009535,0.02006 1.7632575,0.01563 l 1.7496438,-0.0081 z"
       id="path819"
       inkscape:connector-curvature="0" />
  </g>
</svg>
