<?xml version="1.0" encoding="UTF-8" standalone="no"?>
<!-- Created with Inkscape (http://www.inkscape.org/) -->

<svg
   version="1.1"
   id="svg2"
   width="1600"
   height="1600"
   viewBox="0 0 1600 1600"
   sodipodi:docname="node_refractionshader.svg"
   inkscape:version="1.2.2 (732a01da63, 2022-12-09)"
   xmlns:inkscape="http://www.inkscape.org/namespaces/inkscape"
   xmlns:sodipodi="http://sodipodi.sourceforge.net/DTD/sodipodi-0.dtd"
   xmlns="http://www.w3.org/2000/svg"
   xmlns:svg="http://www.w3.org/2000/svg"
   xmlns:rdf="http://www.w3.org/1999/02/22-rdf-syntax-ns#"
   xmlns:cc="http://creativecommons.org/ns#"
   xmlns:dc="http://purl.org/dc/elements/1.1/">
  <metadata
     id="metadata8">
    <rdf:RDF>
      <cc:Work
         rdf:about="">
        <dc:format>image/svg+xml</dc:format>
        <dc:type
           rdf:resource="http://purl.org/dc/dcmitype/StillImage" />
      </cc:Work>
    </rdf:RDF>
  </metadata>
  <defs
     id="defs6" />
  <sodipodi:namedview
     pagecolor="#808080"
     bordercolor="#666666"
     borderopacity="1"
     objecttolerance="10"
     gridtolerance="10"
     guidetolerance="10"
     inkscape:pageopacity="0"
     inkscape:pageshadow="2"
     inkscape:window-width="1993"
     inkscape:window-height="1009"
     id="namedview4"
     showgrid="false"
     inkscape:zoom="0.5"
     inkscape:cx="199"
     inkscape:cy="132"
     inkscape:window-x="-8"
     inkscape:window-y="-8"
     inkscape:window-maximized="1"
     inkscape:current-layer="NODE_REFRACTIONSHADER"
     inkscape:showpageshadow="0"
     inkscape:pagecheckerboard="true"
     inkscape:deskcolor="#d1d1d1" />
  <g
     id="NODE_REFRACTIONSHADER"
     transform="matrix(100,0,0,100,0,4.9999997e-5)"
     style="stroke-width:0.0114286">
    <path
       style="fill:none;stroke-width:0.000357143"
       d="M 0,8 V 0 h 8 8 v 8 8 H 8 0 Z m 8.578125,7.467835 c 1.558565,-0.145598 2.96311,-0.712527 4.15625,-1.677625 1.210097,-0.978813 2.134978,-2.429459 2.515916,-3.9461356 0.323106,-1.2864197 0.323106,-2.4017291 0,-3.6881488 C 14.936989,4.9085387 14.2377,3.6711384 13.319345,2.7390935 12.396375,1.8023651 11.115214,1.068977 9.8440744,0.74970875 c -1.2864197,-0.323106 -2.4017291,-0.323106 -3.6881488,0 C 4.8847859,1.068977 3.603625,1.8023651 2.6806552,2.7390935 1.7623002,3.6711384 1.063011,4.9085387 0.74970875,6.1559256 c -0.323106,1.2864197 -0.323106,2.4017291 0,3.6881488 0.31330225,1.2473866 1.01259145,2.4847876 1.93094645,3.4168326 0.9228139,0.93657 2.2024395,1.669156 3.4752704,1.989595 0.8677932,0.218469 1.6544657,0.289054 2.4221994,0.217333 z"
       id="path827"
       inkscape:connector-curvature="0" />
    <path
       style="fill:#fefefe;stroke-width:0.000357143"
       d="M 7.6209331,14.98658 C 7.6145731,14.98078 7.5096931,14.96783 7.3878597,14.95775 7.2660262,14.94766 7.146495,14.93289 7.1222347,14.92491 7.0979747,14.91691 7.0148437,14.90304 6.9375,14.89403 6.7450044,14.871598 6.3140566,14.786898 6.21875,14.752758 6.1757812,14.737365 5.9789062,14.672865 5.78125,14.609424 5.5835938,14.545983 5.3796875,14.475513 5.328125,14.452824 5.0784944,14.342982 4.6870609,14.147789 4.546875,14.063246 4.4609375,14.011418 4.3695312,13.959328 4.34375,13.947489 4.2924153,13.923915 3.66189,13.476009 3.6058647,13.423317 3.5867466,13.405337 3.4883091,13.320545 3.3871147,13.234892 3.1537722,13.037385 2.9626153,12.846228 2.7651084,12.612885 2.679455,12.511691 2.5946636,12.413253 2.5766829,12.394135 2.5239912,12.33811 2.0760849,11.707585 2.0525113,11.65625 2.0406722,11.630469 1.9885816,11.539063 1.9367544,11.453125 1.8522109,11.312939 1.6570184,10.921506 1.5471757,10.671875 1.5244871,10.620313 1.4540172,10.416406 1.3905761,10.21875 1.3271349,10.021094 1.2626348,9.8242188 1.2472426,9.78125 1.213102,9.6859434 1.1284023,9.2549956 1.1059776,9.0625 1.0969674,8.9851562 1.0830688,8.9020256 1.0750918,8.8777653 c -0.07455,-0.2267256 -0.07455,-1.528805 0,-1.7555306 0.00798,-0.02426 0.021876,-0.107391 0.030886,-0.1847347 C 1.1284023,6.7450044 1.213102,6.3140566 1.2472426,6.21875 1.2626348,6.1757812 1.3271349,5.9789062 1.3905761,5.78125 1.4540173,5.5835937 1.5244871,5.3796875 1.5471757,5.328125 1.6570184,5.0784944 1.8522109,4.6870609 1.9367544,4.546875 1.9885816,4.4609375 2.0406722,4.3695312 2.0525113,4.34375 2.0760849,4.2924153 2.5239912,3.66189 2.5766829,3.6058647 2.5946636,3.5867466 2.679455,3.4883091 2.7651084,3.3871147 2.9626153,3.1537722 3.1537722,2.9626153 3.3871147,2.7651084 3.4883091,2.679455 3.5867466,2.5946636 3.6058647,2.5766829 3.66189,2.5239912 4.2924153,2.0760849 4.34375,2.0525113 4.3695312,2.0406722 4.4609375,1.9885816 4.546875,1.9367544 4.6870609,1.8522109 5.0784944,1.6570184 5.328125,1.5471757 5.3796875,1.5244871 5.5835938,1.4540172 5.78125,1.3905761 5.9789062,1.3271349 6.1757812,1.2626348 6.21875,1.2472426 6.3140566,1.213102 6.7450044,1.1284023 6.9375,1.1059776 c 0.077344,-0.00901 0.1604744,-0.022909 0.1847347,-0.030886 0.2267256,-0.07455 1.528805,-0.07455 1.7555306,0 0.02426,0.00798 0.1073909,0.021876 0.1847347,0.030886 0.1924956,0.022425 0.6234434,0.1071244 0.71875,0.141265 0.042969,0.015392 0.239844,0.079892 0.4375,0.1433335 0.197656,0.063441 0.401563,0.133911 0.453125,0.1565996 0.249631,0.1098427 0.641064,0.3050352 0.78125,0.3895787 0.08594,0.051827 0.177344,0.1039178 0.203125,0.1157569 0.05133,0.023574 0.68186,0.4714799 0.737885,0.5241716 0.01912,0.017981 0.117556,0.1027721 0.21875,0.1884255 0.233343,0.1975069 0.4245,0.3886638 0.622007,0.6220063 0.08565,0.1011944 0.170445,0.1996319 0.188425,0.21875 0.05269,0.056025 0.500598,0.6865506 0.524172,0.7378853 0.01184,0.025781 0.06393,0.1171875 0.115757,0.203125 0.08454,0.1401859 0.279736,0.5316194 0.389578,0.78125 0.02269,0.051563 0.09316,0.2554688 0.1566,0.453125 0.06344,0.1976562 0.127941,0.3945312 0.143334,0.4375 0.03414,0.095307 0.11884,0.5262544 0.141265,0.71875 0.009,0.077344 0.02291,0.1604744 0.03088,0.1847347 0.07455,0.2267256 0.07455,1.528805 0,1.7555306 -0.008,0.02426 -0.02187,0.1073909 -0.03088,0.1847347 -0.02243,0.1924956 -0.107125,0.6234434 -0.141265,0.71875 -0.01539,0.042969 -0.07989,0.239844 -0.143334,0.4375 -0.06344,0.197656 -0.133911,0.401563 -0.1566,0.453125 -0.109842,0.249631 -0.305035,0.641064 -0.389578,0.78125 -0.05183,0.08594 -0.103918,0.177344 -0.115757,0.203125 -0.02357,0.05133 -0.47148,0.68186 -0.524172,0.737885 -0.01798,0.01912 -0.102772,0.117556 -0.188425,0.21875 -0.197507,0.233343 -0.388664,0.4245 -0.622007,0.622007 -0.101194,0.08565 -0.199632,0.170445 -0.21875,0.188425 -0.05602,0.05269 -0.68655,0.500598 -0.737885,0.524172 -0.02578,0.01184 -0.117187,0.06393 -0.203125,0.115757 -0.140186,0.08454 -0.531619,0.279736 -0.78125,0.389578 -0.05156,0.02269 -0.255469,0.09316 -0.453125,0.1566 -0.197656,0.06344 -0.3945312,0.127975 -0.4375,0.143409 -0.042969,0.01543 -0.1976562,0.05062 -0.34375,0.0782 -0.2861387,0.05401 -0.3105962,0.05814 -0.546875,0.0922 -0.085937,0.01239 -0.1914062,0.02808 -0.234375,0.03487 -0.104885,0.01658 -1.02068,0.04177 -1.0353169,0.02848 z M 12.39445,12.876288 c 0.189197,-0.08334 0.373361,-0.264465 0.470244,-0.462488 0.07174,-0.146635 0.08521,-0.214511 0.0847,-0.426892 -0.0011,-0.442305 0.06659,-0.358704 -1.8128,-2.2400127 L 9.4633184,8.0719156 9.5921228,7.8157359 C 10.061245,6.8826991 10.144806,5.7056356 9.8123638,4.7133628 9.414965,3.5272066 8.4727934,2.5850349 7.2866372,2.1876361 6.4939616,1.9220653 5.5060384,1.9220653 4.7133628,2.1876361 3.3276381,2.6518965 2.2979196,3.845615 2.0437135,5.2824719 c -0.068711,0.3883787 -0.068711,1.0466775 0,1.4350562 0.2914744,1.6475097 1.5912487,2.9472841 3.2387584,3.2387585 0.3883787,0.068711 1.0466775,0.068711 1.4350562,0 0.3686722,-0.065225 0.765096,-0.1966782 1.0982078,-0.3641638 L 8.0719156,9.4633184 9.7468953,11.134683 c 0.9212387,0.919251 1.7217577,1.694828 1.7789297,1.723503 0.238538,0.119643 0.620057,0.127594 0.868625,0.0181 z M 3.8483366,6.9048059 C 3.4223244,6.8182237 3.1148477,6.4323812 3.1148477,5.984375 c 0,-0.3634947 0.053224,-0.4452381 0.7383195,-1.1339466 0.69837,-0.7020528 0.79668,-0.7671765 1.1577953,-0.7669628 0.3789622,2.188e-4 0.6864103,0.191991 0.85269,0.5318547 0.1115106,0.2279191 0.1175422,0.5434 0.014819,0.7750922 -0.096624,0.2179362 -1.19842,1.3285778 -1.4253466,1.43679 -0.1824806,0.087018 -0.4129559,0.1165912 -0.6047883,0.077603 z"
       id="path825"
       inkscape:connector-curvature="0" />
    <path
       style="fill:#98cbfe;stroke-width:0.000357143"
       d="M 5.453125,9.4188931 C 3.9721244,9.1567659 2.8320717,8.0068081 2.5785518,6.5193441 2.4916104,6.0092381 2.5349659,5.4819747 2.7073378,4.953125 3.0501085,3.9014794 3.9014794,3.0501085 4.953125,2.7073378 5.4819747,2.5349659 6.0092381,2.4916104 6.5193441,2.5785518 8.0197172,2.8342719 9.1657281,3.9802828 9.4214481,5.4806559 9.5083897,5.9907619 9.4650341,6.5180253 9.2926622,7.046875 8.9498916,8.0985206 8.0985206,8.9498916 7.046875,9.2926622 6.5217503,9.46382 5.9588528,9.5084034 5.453125,9.4188931 Z m -1,-2.5916906 C 4.5672337,6.7727887 4.7711866,6.5900284 5.2093328,6.1495716 5.8961928,5.4590897 5.9475662,5.3798775 5.9477844,5.0109625 5.9480969,4.4819731 5.5459028,4.0837819 5.0109625,4.0834656 4.6498472,4.0832469 4.5515372,4.1483756 3.8531672,4.8504284 3.1680712,5.5391369 3.1148477,5.6208803 3.1148477,5.984375 c 0,0.6986612 0.7069448,1.143885 1.3382773,0.8428275 z"
       id="path823"
       inkscape:connector-curvature="0" />
    <path
       style="fill:#323232;stroke-width:0.000357143"
       d="M 11.7602,12.93768 C 11.68847,12.92263 11.582997,12.88686 11.525825,12.85819 11.468655,12.82952 10.668134,12.053938 9.7468953,11.134687 L 8.0719156,9.4633184 7.8157359,9.5921228 C 6.8826991,10.061245 5.7056356,10.144806 4.7133628,9.8123638 3.3276381,9.3481034 2.2979196,8.154385 2.0437135,6.7175281 c -0.068711,-0.3883787 -0.068711,-1.0466775 0,-1.4350562 0.2542061,-1.4368569 1.2839246,-2.6305754 2.6696493,-3.0948358 0.7926756,-0.2655708 1.7805988,-0.2655708 2.5732744,0 1.3857247,0.4642604 2.4154431,1.6579789 2.6696494,3.0948358 0.068711,0.3883787 0.068711,1.0466775 0,1.4350562 -0.065225,0.3686722 -0.1966782,0.765096 -0.3641638,1.0982078 L 9.4633184,8.0719156 11.136593,9.7468953 c 1.879395,1.8813087 1.811738,1.7977077 1.8128,2.2400127 5.1e-4,0.212381 -0.01296,0.280257 -0.0847,0.426892 -0.09688,0.198023 -0.281047,0.379149 -0.470244,0.462488 -0.157172,0.06923 -0.458027,0.09835 -0.63425,0.06139 z M 6.5193441,9.4214481 c 1.5003731,-0.25572 2.646384,-1.4017309 2.902104,-2.902104 0.060051,-0.3523329 0.060051,-0.6863554 0,-1.0386882 -0.25572,-1.5003731 -1.4017309,-2.646384 -2.902104,-2.9021041 -0.3523329,-0.060051 -0.6863554,-0.060051 -1.0386882,0 -1.5003731,0.2557201 -2.646384,1.401731 -2.9021041,2.9021041 -0.086941,0.510106 -0.043586,1.0373694 0.128786,1.5662191 0.3427425,1.0515591 1.1929009,1.9018119 2.2457872,2.2460363 0.5236128,0.1711868 1.0584497,0.21508 1.5662191,0.1285368 z"
       id="path821"
       inkscape:connector-curvature="0" />
    <path
       style="fill:#0c0f0b;stroke-width:0.000357143"
       d="M 7.375,15.466072 C 5.8664556,15.321754 4.43974,14.739919 3.265625,13.79021 2.0555282,12.811397 1.1306477,11.360751 0.74970875,9.8440744 c -0.323106,-1.2864197 -0.323106,-2.4017291 0,-3.6881488 C 1.063011,4.9085387 1.7623002,3.6711384 2.6806552,2.7390935 3.603625,1.8023651 4.8847859,1.068977 6.1559256,0.74970875 c 1.2864197,-0.323106 2.4017291,-0.323106 3.6881488,0 1.2711396,0.31926825 2.5523006,1.05265635 3.4752706,1.98938475 0.918355,0.9320449 1.617644,2.1694452 1.930946,3.4168321 0.323106,1.2864197 0.323106,2.4017291 0,3.6881488 C 14.936989,11.091461 14.2377,12.328862 13.319345,13.260907 12.396413,14.197596 11.115629,14.930788 9.8440744,15.250343 8.9724562,15.46939 8.1556606,15.540756 7.375,15.466072 Z M 8.9497675,14.92183 C 9.7343097,14.799417 10.437133,14.582106 11.085171,14.26157 12.76676,13.429814 14.04295,11.964199 14.622655,10.199016 14.880559,9.4137084 14.981671,8.7943841 14.981671,8 c 0,-0.7943841 -0.101112,-1.4137084 -0.359016,-2.1990156 C 13.938868,3.7188759 12.281124,2.061132 10.199016,1.3773448 9.4137084,1.1194413 8.7943841,1.0183292 8,1.0183292 c -0.7943841,0 -1.4137084,0.1011121 -2.1990156,0.3590156 C 3.7188759,2.061132 2.061132,3.7188759 1.3773448,5.8009844 1.1194413,6.5862916 1.0183292,7.2056159 1.0183292,8 c 0,0.7943841 0.1011121,1.4137084 0.3590156,2.199016 0.6837872,2.082108 2.3415311,3.739852 4.4236396,4.423639 0.5608519,0.18419 0.9673872,0.268517 1.7302656,0.358905 0.21526,0.02551 1.1150819,-0.01238 1.4185175,-0.05973 z"
       id="path819"
       inkscape:connector-curvature="0" />
  </g>
</svg>
