<?xml version="1.0" encoding="UTF-8" standalone="no"?>
<!-- Created with Inkscape (http://www.inkscape.org/) -->

<svg
   version="1.1"
   id="svg2"
   width="1600"
   height="1600"
   viewBox="0 0 1600 1600"
   sodipodi:docname="node_pointstosdfgrid.svg"
   inkscape:version="1.4 (86a8ad7, 2024-10-11)"
   inkscape:export-filename="VOLUME_CUBE.png"
   inkscape:export-xdpi="3072"
   inkscape:export-ydpi="3072"
   xml:space="preserve"
   xmlns:inkscape="http://www.inkscape.org/namespaces/inkscape"
   xmlns:sodipodi="http://sodipodi.sourceforge.net/DTD/sodipodi-0.dtd"
   xmlns="http://www.w3.org/2000/svg"
   xmlns:svg="http://www.w3.org/2000/svg"
   xmlns:rdf="http://www.w3.org/1999/02/22-rdf-syntax-ns#"
   xmlns:cc="http://creativecommons.org/ns#"
   xmlns:dc="http://purl.org/dc/elements/1.1/"><metadata
     id="metadata8"><rdf:RDF><cc:Work
         rdf:about=""><dc:format>image/svg+xml</dc:format><dc:type
           rdf:resource="http://purl.org/dc/dcmitype/StillImage" /></cc:Work></rdf:RDF></metadata><defs
     id="defs6" /><sodipodi:namedview
     pagecolor="#808080"
     bordercolor="#666666"
     borderopacity="1"
     objecttolerance="10"
     gridtolerance="10"
     guidetolerance="10"
     inkscape:pageopacity="0"
     inkscape:pageshadow="2"
     inkscape:window-width="2560"
     inkscape:window-height="1009"
     id="namedview4"
     showgrid="true"
     inkscape:zoom="0.23046875"
     inkscape:cx="440.40678"
     inkscape:cy="342.77966"
     inkscape:window-x="1912"
     inkscape:window-y="-8"
     inkscape:window-maximized="1"
     inkscape:current-layer="path853-9-4-6-6-4"
     inkscape:showpageshadow="0"
     inkscape:pagecheckerboard="1"
     inkscape:deskcolor="#d1d1d1"><inkscape:grid
       type="xygrid"
       id="grid10683"
       originx="0"
       originy="0"
       spacingy="100"
       spacingx="100"
       units="px" /></sodipodi:namedview><g
     id="MESH_CUBE"
     transform="matrix(100,0,0,100,0,4.9999997e-5)"
     style="display:inline;stroke-width:0.0114286;enable-background:new"
     inkscape:label="VOLUME_CUBE"><g
       id="g3"
       transform="translate(-1.3200004,-1.3200005)"
       inkscape:label="Grid"
       style="display:inline;stroke-width:0.0114286;enable-background:new"><path
         id="rect1"
         style="baseline-shift:baseline;display:inline;overflow:visible;vector-effect:none;fill:#323232;stroke-linecap:round;stroke-linejoin:round;paint-order:markers stroke fill;enable-background:accumulate;stop-color:#000000;stop-opacity:1"
         d="M 4.1230863 2.32 C 3.1241752 2.32 2.3200004 3.1241748 2.3200004 4.1230859 L 2.3200004 14.516914 C 2.3200004 15.515825 3.1241752 16.32 4.1230863 16.32 L 14.516914 16.32 C 15.515825 16.32 16.32 15.515825 16.32 14.516914 L 16.32 4.1230859 C 16.32 3.1241748 15.515825 2.32 14.516914 2.32 L 4.1230863 2.32 z M 4.528477 3.4258398 L 7.5714067 3.4258398 C 8.2437172 3.4258398 8.7849809 3.9670839 8.7849809 4.6393945 L 8.7849809 7.5703125 C 8.7849809 8.2426231 8.2437172 8.7838672 7.5714067 8.7838672 L 4.528477 8.7838672 C 3.8561664 8.7838672 3.3149223 8.2426231 3.3149223 7.5703125 L 3.3149223 4.6393945 C 3.3149223 3.9670839 3.8561664 3.4258398 4.528477 3.4258398 z M 11.062071 3.4258398 L 14.10502 3.4258398 C 14.77733 3.4258398 15.318575 3.9670839 15.318575 4.6393945 L 15.318575 7.5703125 C 15.318575 8.2426231 14.77733 8.7838672 14.10502 8.7838672 L 11.062071 8.7838672 C 10.389761 8.7838672 9.848516 8.2426231 9.848516 7.5703125 L 9.848516 4.6393945 C 9.848516 3.9670839 10.389761 3.4258398 11.062071 3.4258398 z M 4.5279301 9.8554688 L 7.5708793 9.8554688 C 8.2431899 9.8554688 8.784434 10.396713 8.784434 11.069023 L 8.784434 13.999922 C 8.784434 14.672233 8.2431899 15.213496 7.5708793 15.213496 L 4.5279301 15.213496 C 3.8556195 15.213496 3.3143754 14.672233 3.3143754 13.999922 L 3.3143754 11.069023 C 3.3143754 10.396713 3.8556195 9.8554688 4.5279301 9.8554688 z M 11.062071 9.8554688 L 14.10502 9.8554688 C 14.77733 9.8554688 15.318575 10.396713 15.318575 11.069023 L 15.318575 13.999922 C 15.318575 14.672233 14.77733 15.213496 14.10502 15.213496 L 11.062071 15.213496 C 10.389761 15.213496 9.848516 14.672233 9.848516 13.999922 L 9.848516 11.069023 C 9.848516 10.396713 10.389761 9.8554688 11.062071 9.8554688 z " /><path
         id="path10"
         style="fill:#7fb3fe;fill-opacity:1;stroke-width:0.0114285;stroke-linecap:round;stroke-linejoin:round;paint-order:markers stroke fill"
         d="M 4.5291801 2.8903711 C 3.5693044 2.8903711 2.7794535 3.6802219 2.7794535 4.6400977 L 2.7794535 7.5702734 C 2.7794535 8.5301492 3.5693044 9.32 4.5291801 9.32 L 4.5270902 9.32 C 3.5672145 9.32 2.7794535 10.109851 2.7794535 11.069727 L 2.7794535 13.999902 C 2.7794535 14.959778 3.5672145 15.749628 4.5270902 15.749629 L 7.5702738 15.749629 C 8.4939079 15.749629 9.2597472 15.018203 9.3162895 14.107773 C 9.3728324 15.018202 10.138652 15.749628 11.062286 15.749629 L 14.105469 15.749629 C 15.065345 15.749629 15.855196 14.959778 15.855196 13.999902 L 15.855196 11.069727 C 15.855196 10.109851 15.065345 9.32 14.105469 9.32 C 15.065345 9.32 15.855196 8.5301492 15.855196 7.5702734 L 15.855196 4.6400977 C 15.855196 3.6802219 15.065345 2.8903711 14.105469 2.8903711 L 11.062286 2.8903711 C 10.138697 2.8903711 9.3728984 3.6217421 9.3162895 4.5321094 C 9.259827 3.6217421 8.4959526 2.8903711 7.5723637 2.8903711 L 4.5291801 2.8903711 z M 4.528477 3.4258398 L 7.5714067 3.4258398 C 8.2437172 3.4258398 8.7849809 3.9670839 8.7849809 4.6393945 L 8.7849809 7.5703125 C 8.7849809 8.2426231 8.2437172 8.7838672 7.5714067 8.7838672 L 4.528477 8.7838672 C 3.8561664 8.7838672 3.3149223 8.2426231 3.3149223 7.5703125 L 3.3149223 4.6393945 C 3.3149223 3.9670839 3.8561664 3.4258398 4.528477 3.4258398 z M 11.062071 3.4258398 L 14.10502 3.4258398 C 14.77733 3.4258398 15.318575 3.9670839 15.318575 4.6393945 L 15.318575 7.5703125 C 15.318575 8.2426231 14.77733 8.7838672 14.10502 8.7838672 L 11.062071 8.7838672 C 10.389761 8.7838672 9.848516 8.2426231 9.848516 7.5703125 L 9.848516 4.6393945 C 9.848516 3.9670839 10.389761 3.4258398 11.062071 3.4258398 z M 9.3162895 7.6782813 C 9.3729005 8.5886467 10.138698 9.32 11.062286 9.32 C 10.138658 9.32 9.3728421 10.051416 9.3162895 10.961836 C 9.2597375 10.051415 8.4939013 9.32 7.5702738 9.32 L 7.5723637 9.32 C 8.4959512 9.32 9.2598249 8.5886467 9.3162895 7.6782813 z M 4.5279301 9.8554688 L 7.5708793 9.8554688 C 8.2431899 9.8554688 8.784434 10.396713 8.784434 11.069023 L 8.784434 13.999922 C 8.784434 14.672233 8.2431899 15.213496 7.5708793 15.213496 L 4.5279301 15.213496 C 3.8556195 15.213496 3.3143754 14.672233 3.3143754 13.999922 L 3.3143754 11.069023 C 3.3143754 10.396713 3.8556195 9.8554688 4.5279301 9.8554688 z M 11.062071 9.8554688 L 14.10502 9.8554688 C 14.77733 9.8554688 15.318575 10.396713 15.318575 11.069023 L 15.318575 13.999922 C 15.318575 14.672233 14.77733 15.213496 14.10502 15.213496 L 11.062071 15.213496 C 10.389761 15.213496 9.848516 14.672233 9.848516 13.999922 L 9.848516 11.069023 C 9.848516 10.396713 10.389761 9.8554688 11.062071 9.8554688 z " /></g><g
       id="path853-9-4"
       style="display:inline;stroke-width:0.0114286;enable-background:new"
       transform="translate(22.77907,-1.4066185)" /><g
       id="path853-9-4-6"
       style="display:inline;stroke-width:0.0114286;enable-background:new"
       transform="translate(22.778988,5.1461089)" /><g
       id="path853-9-4-6-6"
       style="display:inline;stroke-width:0.0114286;enable-background:new"
       transform="translate(16.177794,5.1461089)" /><g
       id="path853-9-4-6-6-4"
       style="display:inline;stroke-width:0.0114286;enable-background:new"
       transform="translate(16.17787,-1.4010744)"><path
         id="path4-0-1-9"
         style="fill:#fecb32"
         d="m -11.877002,7.9072175 c -0.900443,-0.1956236 -1.531708,-1.1031709 -1.382525,-1.9876072 0.161288,-0.9562015 1.083453,-1.6371461 2.006301,-1.4814915 0.956225,0.1612839 1.6371872,1.0834258 1.4815282,2.0062506 -0.122535,0.7264587 -0.6827682,1.3125581 -1.3998752,1.4645121 -0.302529,0.06411 -0.403798,0.06387 -0.705429,-0.0017 z m -7.6e-5,6.5471835 c -0.900443,-0.195624 -1.531708,-1.103171 -1.382525,-1.987607 0.161288,-0.956202 1.083453,-1.637146 2.006301,-1.481492 0.956225,0.161284 1.6371872,1.083426 1.4815282,2.006251 -0.122535,0.726458 -0.6827682,1.312558 -1.3998752,1.464512 -0.302529,0.06411 -0.403798,0.06387 -0.705429,-0.0017 z m 6.601194,0 c -0.900443,-0.195624 -1.531708,-1.103171 -1.382525,-1.987607 0.161288,-0.956202 1.083453,-1.637146 2.006301,-1.481492 0.956225,0.161284 1.6371872,1.083426 1.4815282,2.006251 -0.122535,0.726458 -0.6827682,1.312558 -1.3998752,1.464512 -0.302529,0.06411 -0.403798,0.06387 -0.705429,-0.0017 z m 8.2e-5,-6.5527276 C -6.176245,7.7060498 -6.80751,6.7985025 -6.658327,5.9140662 c 0.161288,-0.9562015 1.083453,-1.6371461 2.006301,-1.4814915 0.956225,0.1612839 1.6371872,1.0834258 1.4815282,2.0062506 -0.122535,0.7264587 -0.6827682,1.3125581 -1.3998752,1.4645121 -0.302529,0.06411 -0.403798,0.06387 -0.705429,-0.0017 z" /><path
         id="path6-6-8-6"
         style="fill:#cb6500"
         d="m -11.210938,4.1914062 c -1.067692,-0.1800851 -2.110876,0.596383 -2.294921,1.6875 -0.173087,1.0261508 0.542663,2.048905 1.576171,2.2734376 0.30106,0.088189 0.499853,0.061462 0.810547,0.00195 0.818809,-0.1735045 1.4540969,-0.8400221 1.5937504,-1.6679688 0.180092,-1.0676762 -0.5944124,-2.1108832 -1.6855474,-2.2949219 z m -0.08398,0.4941407 c 0.821316,0.1385291 1.4085698,0.9388234 1.277344,1.7167968 -0.105417,0.6249707 -0.589673,1.1313153 -1.205078,1.2617188 -0.291337,0.061738 -0.311158,0.061176 -0.601563,-0.00195 -0.767377,-0.1667147 -1.314732,-0.9584501 -1.189453,-1.7011719 0.138531,-0.821286 0.940747,-1.4066146 1.71875,-1.2753906 z m 0.0839,6.0530431 c -1.067692,-0.180086 -2.110876,0.596382 -2.294921,1.6875 -0.173087,1.02615 0.542663,2.048905 1.576171,2.273437 0.301041,0.08819 0.49987,0.06144 0.810547,0.002 0.818809,-0.173504 1.4540969,-0.840022 1.5937504,-1.667969 0.180092,-1.067676 -0.5944124,-2.110883 -1.6855474,-2.294922 z m -0.08398,0.49414 c 0.821316,0.138529 1.4085698,0.938824 1.277344,1.716797 -0.105417,0.624971 -0.589673,1.131315 -1.205078,1.261719 -0.291337,0.06174 -0.311158,0.06118 -0.601563,-0.0019 -0.767377,-0.166715 -1.314732,-0.95845 -1.189453,-1.701172 0.138531,-0.821286 0.940747,-1.406615 1.71875,-1.275391 z m 6.685174,-0.49414 c -1.067692,-0.180086 -2.110876,0.596382 -2.294921,1.6875 -0.173087,1.02615 0.542663,2.048905 1.576171,2.273437 l 0.302735,0.06445 c 0,0 0.311263,-0.02085 0.507812,-0.06245 0.818809,-0.173504 1.4540969,-0.840022 1.5937504,-1.667969 0.180092,-1.067676 -0.5944124,-2.110883 -1.6855474,-2.294922 z m -0.08398,0.49414 c 0.821316,0.138529 1.4085698,0.938824 1.277344,1.716797 -0.105417,0.624971 -0.589673,1.131315 -1.205078,1.261719 -0.291337,0.06174 -0.311158,0.06118 -0.601563,-0.0019 -0.767377,-0.166715 -1.314732,-0.95845 -1.189453,-1.701172 0.138531,-0.821286 0.940747,-1.406615 1.71875,-1.275391 z m 0.084062,-7.0468679 c -1.067692,-0.1800851 -2.110876,0.596383 -2.294921,1.6875 -0.173087,1.0261508 0.542663,2.048905 1.576171,2.2734376 0.3010598,0.088189 0.4998531,0.061462 0.810547,0.00195 C -3.699132,7.9752452 -3.0638441,7.3087276 -2.9241906,6.4807809 -2.7440986,5.4131047 -3.518603,4.3698977 -4.609738,4.185859 Z m -0.08398,0.4941407 c 0.821316,0.1385291 1.4085698,0.9388234 1.277344,1.7167968 -0.105417,0.6249707 -0.589673,1.1313153 -1.205078,1.2617188 -0.291337,0.061738 -0.311158,0.061176 -0.601563,-0.00195 -0.767377,-0.1667147 -1.314732,-0.9584501 -1.189453,-1.7011719 0.138531,-0.821286 0.940747,-1.4066146 1.71875,-1.2753906 z"
         sodipodi:nodetypes="csccscccsccscccsccccccsccscccscccscccsccsccssccssscsccscc" /></g><path
       inkscape:connector-curvature="0"
       id="path827-666"
       d="M 0,8 V 0 h 8 8 v 8 8 H 8 0 Z m 11.326467,6.00029 c 3.319702,-1.106746 3.322552,-1.107867 3.51104,-1.381855 0.206207,-0.299746 0.193743,-0.0036 0.193743,-4.60281 0,-4.5991825 0.01246,-4.3030644 -0.193743,-4.60281 C 14.649019,3.1388275 14.646169,3.1377059 11.326467,2.0309595 8.4439647,1.0699703 8.2195475,1.0000958 8.015625,1.0000958 c -0.2039225,0 -0.4283397,0.069875 -3.3108416,1.0308637 C 1.3850808,3.1377059 1.3822313,3.1388275 1.1937435,3.412815 0.98753566,3.7125606 1,3.4164425 1,8.015625 c 0,4.599183 -0.0124643,4.303064 0.1937435,4.60281 0.1884878,0.273988 0.1913373,0.275109 3.5110399,1.381855 2.8825019,0.96099 3.1069191,1.030864 3.3108416,1.030864 0.2039225,0 0.4283397,-0.06987 3.310842,-1.030864 z"
       style="fill:#ffffff;fill-opacity:0;stroke-width:0.000357143" /></g></svg>
