<?xml version="1.0" encoding="UTF-8" standalone="no"?>
<!-- Created with Inkscape (http://www.inkscape.org/) -->

<svg
   version="1.1"
   id="svg2"
   width="1600"
   height="1600"
   viewBox="0 0 1600 1600"
   sodipodi:docname="node_joingroup.svg"
   inkscape:version="1.4 (86a8ad7, 2024-10-11)"
   xml:space="preserve"
   xmlns:inkscape="http://www.inkscape.org/namespaces/inkscape"
   xmlns:sodipodi="http://sodipodi.sourceforge.net/DTD/sodipodi-0.dtd"
   xmlns="http://www.w3.org/2000/svg"
   xmlns:svg="http://www.w3.org/2000/svg"
   xmlns:rdf="http://www.w3.org/1999/02/22-rdf-syntax-ns#"
   xmlns:cc="http://creativecommons.org/ns#"
   xmlns:dc="http://purl.org/dc/elements/1.1/"><metadata
     id="metadata8"><rdf:RDF><cc:Work
         rdf:about=""><dc:format>image/svg+xml</dc:format><dc:type
           rdf:resource="http://purl.org/dc/dcmitype/StillImage" /></cc:Work></rdf:RDF></metadata><defs
     id="defs6" /><sodipodi:namedview
     pagecolor="#808080"
     bordercolor="#666666"
     borderopacity="1"
     objecttolerance="10"
     gridtolerance="10"
     guidetolerance="10"
     inkscape:pageopacity="0"
     inkscape:pageshadow="2"
     inkscape:window-width="2560"
     inkscape:window-height="1009"
     id="namedview4"
     showgrid="true"
     inkscape:zoom="0.25"
     inkscape:cx="10"
     inkscape:cy="1480"
     inkscape:window-x="1912"
     inkscape:window-y="-8"
     inkscape:window-maximized="1"
     inkscape:current-layer="NODE_FRAME"
     inkscape:showpageshadow="0"
     inkscape:pagecheckerboard="true"
     inkscape:deskcolor="#d1d1d1"><inkscape:grid
       id="grid2"
       units="px"
       originx="0"
       originy="0"
       spacingx="100"
       spacingy="100"
       empcolor="#0099e5"
       empopacity="0.30196078"
       color="#0099e5"
       opacity="0.14901961"
       empspacing="5"
       enabled="true"
       visible="true" /></sodipodi:namedview><g
     id="NODE_FRAME"
     transform="matrix(100,0,0,100,0,4.9999997e-5)"
     style="stroke-width:0.0114286"><g
       id="NODE_GROUPINSERT"
       style="stroke-width:0.0114286"
       transform="translate(1.0157676,-0.03753008)"><path
         style="fill:none;stroke-width:0.000357143"
         d="M 0,8 V 0 h 8 8 v 8 8 H 8 0 Z m 5.84375,6.909555 c 1.5733419,-0.35868 2.776945,-1.588363 3.0803203,-3.147064 0.029772,-0.152964 0.057594,-0.282534 0.061827,-0.287934 0.00423,-0.0054 0.10406,0.03869 0.2218372,0.09797 0.5857716,0.294847 1.0882405,0.409711 1.7922655,0.409711 0.382431,0 0.584239,-0.01479 0.78125,-0.05726 1.599539,-0.344825 2.798899,-1.544185 3.143724,-3.143725 0.08007,-0.371415 0.08007,-1.191085 0,-1.5625 C 14.58015,5.61921 13.38079,4.41985 11.78125,4.0750253 c -0.371415,-0.080069 -1.191085,-0.080069 -1.5625,0 C 9.8903416,4.1458228 9.4900719,4.2853603 9.207735,4.4274744 9.0899578,4.4867572 8.9901312,4.5308431 8.9858978,4.5254431 8.9816647,4.5200431 8.9538422,4.3904728 8.9240703,4.2375087 8.6166156,2.6578499 7.3878191,1.4213653 5.78125,1.0750252 5.409835,0.9949566 4.590165,0.9949566 4.21875,1.0750252 2.61921,1.41985 1.41985,2.61921 1.0750252,4.21875 c -0.0800686,0.371415 -0.0800686,1.191085 0,1.5625 0.1636423,0.7590881 0.5403158,1.4733659 1.0505776,1.9921875 L 2.3484273,8 2.1256028,8.2265625 C 1.615341,8.7453841 1.2386675,9.4596619 1.0750252,10.21875 c -0.0800686,0.371415 -0.0800686,1.191085 0,1.5625 0.3033266,1.407042 1.2760194,2.521326 2.6124748,2.992763 0.2456016,0.08664 0.6112716,0.172937 0.875,0.206508 0.2464716,0.03137 1.0203631,-0.01149 1.28125,-0.07097 z"
         id="path827-1"
         inkscape:connector-curvature="0" /><path
         style="fill:#fefe7f;stroke-width:0.000357143"
         d="M 4.6875,14.480426 C 3.0973351,14.27939 1.9022179,13.194707 1.5757872,11.65625 c -0.075729,-0.35691 -0.075729,-0.95559 0,-1.3125 C 1.7216792,9.6561659 2.0399361,9.0571184 2.526146,8.5549119 l 0.2342559,-0.2419635 0.096362,0.063488 c 0.052999,0.034918 0.1659527,0.099751 0.2510085,0.1440738 l 0.1546471,0.080586 -0.092147,0.066117 c -0.3294986,0.236419 -0.72805,0.7665052 -0.9163052,1.2187143 -0.3817917,0.9171055 -0.2822611,1.8843905 0.2823783,2.7442895 0.2521822,0.384052 0.4235379,0.558148 0.7916241,0.804282 1.0821556,0.723623 2.261905,0.723623 3.3440606,0 0.1727134,-0.115491 0.3776756,-0.278078 0.4554716,-0.361304 0.1931978,-0.206682 0.4530784,-0.598389 0.5816943,-0.876762 0.193805,-0.419465 0.3099607,-1.036925 0.2642897,-1.404911 l -0.023935,-0.192852 0.2736516,0.270279 0.2736516,0.270279 -0.016511,0.141324 C 8.3159231,12.687861 7.4737378,13.787344 6.1886069,14.27244 5.7724328,14.429533 5.0627337,14.527865 4.6875,14.480426 Z m 6,-3 C 9.097335,11.27939 7.9022178,10.194707 7.5757872,8.65625 c -0.075729,-0.35691 -0.075729,-0.95559 0,-1.3125 0.3003153,-1.4153756 1.3525872,-2.4676475 2.7679628,-2.7679628 0.35691,-0.075729 0.95559,-0.075729 1.3125,0 1.415376,0.3003153 2.467648,1.3525872 2.767963,2.7679628 0.07573,0.35691 0.07573,0.95559 0,1.3125 -0.296478,1.39729 -1.335394,2.451424 -2.713454,2.753199 -0.272453,0.05966 -0.81505,0.0973 -1.023259,0.07098 z m 0.911632,-0.575243 c 0.361045,-0.07674 0.690181,-0.21768 1.031085,-0.441529 0.384052,-0.252182 0.558148,-0.423537 0.804282,-0.7916237 0.723623,-1.0821556 0.723623,-2.261905 0,-3.3440606 -0.246134,-0.3680863 -0.42023,-0.5394419 -0.804282,-0.7916241 -1.038961,-0.6822181 -2.221473,-0.6822181 -3.2604339,0 C 8.9857309,5.7885278 8.811635,5.9598834 8.5655009,6.3279697 7.9724878,7.2148025 7.8646787,8.1789594 8.2539672,9.1140725 8.3824556,9.4227153 8.7279666,9.9416069 8.93219,10.132634 c 0.3592934,0.336077 0.9464484,0.654733 1.401282,0.760493 0.49384,0.11483 0.76975,0.117458 1.26566,0.01206 z M 6.9994406,8.8020291 C 6.9561644,8.7648194 6.8795891,8.7044216 6.8292734,8.6678119 l -0.091482,-0.066563 0.1341329,-0.06843 c 0.073773,-0.037636 0.1376587,-0.063933 0.1419684,-0.058437 0.013042,0.016632 0.080444,0.3792022 0.072045,0.3875428 -0.0043,0.00427 -0.04322,-0.022686 -0.086496,-0.059896 z M 4.6875,8.4804259 C 3.0973351,8.2793897 1.9022179,7.1947069 1.5757872,5.65625 c -0.075729,-0.35691 -0.075729,-0.95559 0,-1.3125 C 1.8761025,2.9283743 2.9283743,1.8761025 4.34375,1.5757872 c 0.35691,-0.075729 0.95559,-0.075729 1.3125,0 1.5534487,0.3296117 2.6361256,1.5348018 2.8240928,3.1436612 L 8.4968541,4.8607716 8.2232025,5.1310509 7.9495509,5.4013303 7.9734859,5.2084778 C 8.0191569,4.8404919 7.9030013,4.2230316 7.7091963,3.8035666 7.5805803,3.5251938 7.3206997,3.1334875 7.1275019,2.9268048 6.94109,2.7273818 6.4196222,2.381168 6.1140725,2.2539673 5.1969675,1.8721756 4.2296816,1.9717062 3.3697831,2.5363456 2.9857308,2.7885278 2.8116351,2.9598835 2.5655009,3.3279697 1.973606,4.2131303 1.8647855,5.1792156 2.2521613,6.1097341 2.3705268,6.3940609 2.6625668,6.8488631 2.8673658,7.06781 3.0583931,7.2720334 3.5772847,7.6175444 3.8859275,7.7460328 4.9203944,8.1766822 6.0238613,7.9897778 6.9662725,7.2242853 7.097355,7.1178109 7.1033619,7.1159988 7.0837306,7.1888488 7.0723513,7.2310756 7.0480253,7.3921875 7.0296734,7.546875 6.9913347,7.8700284 6.9748931,7.8913322 6.6192238,8.0787116 6.3311759,8.2304653 6.0339438,8.3386763 5.7107594,8.4094488 5.4383056,8.4691122 4.8957091,8.5067488 4.6875,8.4804259 Z"
         id="path825-6"
         inkscape:connector-curvature="0" /><path
         style="fill:#fea900;stroke-width:0.000357143"
         d="M 4.734375,13.968215 C 4.4287081,13.9267 4.1352272,13.849816 3.8853694,13.7458 3.6053728,13.629238 3.1497706,13.336155 2.9321901,13.132634 2.7279665,12.941607 2.3824557,12.422715 2.2539673,12.114072 1.8738847,11.201073 1.9720542,10.229152 2.5302124,9.3791234 2.74886,9.0461416 2.8728508,8.9025675 3.0874183,8.7339128 L 3.2529616,8.6037919 3.5141775,8.7086756 c 0.9632237,0.3867541 2.0084212,0.3867541 2.971645,0 L 6.7470384,8.6037919 6.9150206,8.7356353 c 0.1604144,0.1259038 0.1723991,0.14574 0.2660188,0.4402916 0.1315315,0.4138334 0.3061062,0.7652709 0.5735434,1.1546061 l 0.2220975,0.32333 -3.844e-4,0.321506 C 7.9758397,11.355934 7.8947909,11.75674 7.7460334,12.114073 7.617545,12.422715 7.2720341,12.941607 7.0678106,13.132634 6.8488637,13.337433 6.3940616,13.629473 6.1097347,13.747839 5.6853028,13.92453 5.1014909,14.018075 4.734375,13.968215 Z m 0,-6.0000003 C 4.2063481,7.8964994 3.8003538,7.7463822 3.3697831,7.4636544 2.9857308,7.2114722 2.8116351,7.0401166 2.5655009,6.6720303 c -0.7236226,-1.0821556 -0.7236226,-2.261905 0,-3.3440606 0.2461342,-0.3680862 0.4202299,-0.5394419 0.8042822,-0.7916241 1.038961,-0.6822181 2.2214728,-0.6822181 3.2604338,0 0.3840522,0.2521822 0.5581481,0.4235379 0.8042822,0.7916241 0.368039,0.5503909 0.5410722,1.0922528 0.5417962,1.6966612 L 7.9766797,5.3461372 7.7579159,5.6652559 C 7.4836663,6.0653141 7.3392109,6.3519687 7.1980494,6.7762459 7.13709,6.9594669 7.064075,7.1355053 7.0357941,7.1674422 6.9347822,7.2815131 6.3536956,7.6462769 6.1140719,7.7460328 5.68541,7.924485 5.10298,8.0182775 4.734375,7.9682147 Z"
         id="path823-8"
         inkscape:connector-curvature="0" /><path
         style="fill:#00fe00;stroke-width:0.000357143"
         d="M 10.734375,10.968215 C 10.206348,10.896499 9.8003537,10.746382 9.3697831,10.463654 8.9857309,10.211472 8.811635,10.040117 8.5655009,9.6720303 c -0.7236228,-1.0821556 -0.7236228,-2.261905 0,-3.3440606 0.2461341,-0.3680863 0.42023,-0.5394419 0.8042822,-0.7916241 1.0389609,-0.6822181 2.2214729,-0.6822181 3.2604339,0 0.384052,0.2521822 0.558148,0.4235378 0.804282,0.7916241 0.593013,0.8868328 0.700822,1.8509897 0.311534,2.7861028 -0.128489,0.3086428 -0.474,0.8275344 -0.678223,1.0185615 -0.218947,0.204799 -0.673749,0.496839 -0.958076,0.615205 -0.424432,0.176691 -1.008244,0.270236 -1.375359,0.220376 z"
         id="path821-5"
         inkscape:connector-curvature="0" /><path
         style="fill:#191919;stroke-width:0.000357143"
         d="M 4.5625,14.980521 C 2.8128841,14.757808 1.4464813,13.504325 1.0750252,11.78125 c -0.0800686,-0.371415 -0.0800686,-1.191085 0,-1.5625 C 1.2386675,9.4596619 1.615341,8.7453841 2.1256028,8.2265625 L 2.3484273,8 2.1256028,7.7734375 C 1.615341,7.2546159 1.2386675,6.5403381 1.0750252,5.78125 0.9949566,5.409835 0.9949566,4.590165 1.0750252,4.21875 1.41985,2.61921 2.61921,1.41985 4.21875,1.0750252 c 0.371415,-0.0800686 1.191085,-0.0800686 1.5625,0 1.6065691,0.3463401 2.8353656,1.5828247 3.1428203,3.1624835 0.029772,0.1529641 0.057594,0.2825344 0.061827,0.2879344 0.00423,0.0054 0.10406,-0.038686 0.2218372,-0.097969 C 9.4900714,4.28536 9.8903411,4.1458225 10.21875,4.075025 c 0.371415,-0.080069 1.191084,-0.080069 1.5625,0 1.599539,0.3448247 2.798899,1.5441847 3.143724,3.1437247 0.08007,0.371415 0.08007,1.191085 0,1.5625 -0.344825,1.5995403 -1.544185,2.7989003 -3.143724,3.1437253 -0.197011,0.04247 -0.398819,0.05726 -0.78125,0.05726 -0.704025,0 -1.2064939,-0.114865 -1.7922655,-0.409712 -0.1177772,-0.05928 -0.2176038,-0.103369 -0.2218372,-0.09797 -0.00423,0.0054 -0.032056,0.13497 -0.061827,0.287934 -0.3033753,1.558701 -1.5069784,2.788384 -3.0803203,3.147064 -0.2608869,0.05948 -1.0347784,0.10234 -1.28125,0.07097 z m 1.1482594,-0.571072 c 1.2013097,-0.26307 2.1626272,-1.108888 2.5786384,-2.268824 0.077018,-0.214743 0.1583516,-0.581039 0.1908975,-0.859726 L 8.4967591,11.139923 8.2032813,10.848819 C 7.6177394,10.268015 7.2288937,9.5483988 7.0759297,8.7624913 7.0461578,8.6095272 7.0183353,8.4799569 7.0141022,8.4745569 7.0098722,8.4691569 6.9100422,8.5132429 6.792265,8.5725259 6.5099281,8.71464 6.1096584,8.8541775 5.78125,8.924975 c -0.371415,0.080069 -1.191085,0.080069 -1.5625,0 C 3.7598359,8.8260431 3.1908834,8.5969322 2.8567635,8.3765169 L 2.7604019,8.3129484 2.526146,8.5549119 C 2.0399361,9.0571184 1.7216792,9.6561659 1.5757872,10.34375 c -0.075729,0.35691 -0.075729,0.95559 0,1.3125 0.3264307,1.538457 1.5215479,2.62314 3.1117128,2.824176 0.2082091,0.02632 0.7508056,-0.01131 1.0232594,-0.07098 z m 5.9999996,-3 c 1.37806,-0.301775 2.416976,-1.355909 2.713454,-2.753199 0.07573,-0.35691 0.07573,-0.95559 0,-1.3125 -0.300315,-1.4153756 -1.352587,-2.4676475 -2.767963,-2.7679628 -0.35691,-0.075729 -0.95559,-0.075729 -1.3125,0 C 8.9283744,4.8761025 7.8761025,5.9283744 7.5757872,7.34375 c -0.075729,0.35691 -0.075729,0.95559 0,1.3125 0.3264306,1.538457 1.5215478,2.62314 3.1117128,2.824176 0.208209,0.02632 0.750806,-0.01131 1.023259,-0.07098 z M 5.7107594,8.4094487 C 6.1348928,8.3165697 6.5639184,8.1396856 6.8640422,7.9339587 6.9870969,7.8496081 6.9947578,7.8350816 7.0142656,7.6491003 7.1166513,6.6729856 7.51701,5.8319 8.2032813,5.1511806 L 8.4967591,4.8600772 8.4802953,4.7191012 C 8.2924638,3.1107171 7.2095403,1.9053652 5.65625,1.5757872 c -0.35691,-0.075729 -0.95559,-0.075729 -1.3125,0 C 2.9283743,1.8761025 1.8761025,2.9283743 1.5757872,4.34375 c -0.075729,0.35691 -0.075729,0.95559 0,1.3125 0.3264307,1.5384569 1.5215479,2.6231397 3.1117128,2.8241759 0.2082091,0.026323 0.7508056,-0.011314 1.0232594,-0.070977 z"
         id="path819-7"
         inkscape:connector-curvature="0" /></g><g
       id="GROUPINPUT"
       style="stroke-width:0.0114286"
       transform="translate(1.431e-4,-0.0159152)"><path
         style="fill:none;stroke-width:0.000357143"
         d="M 0,8 V 0 h 8 8 v 8 8 H 8 0 Z M 5.5077409,5.5157697 3.015625,3.015625 3.0075124,4.5078125 2.9993997,6 H 1.9996999 1 v 2 2 h 1 1 v 1.507739 1.507739 L 5.4999284,10.515697 7.9998569,8.0159147 Z M 12.810398,10.908288 C 13.841362,10.606808 14.612331,9.8313741 14.912915,8.7935947 14.975241,8.5784119 14.984375,8.4769709 14.984375,8 c 0,-0.4769709 -0.0091,-0.5784119 -0.07146,-0.7935947 C 14.610351,6.1617884 13.838212,5.3896494 12.793595,5.0870853 12.578412,5.0247594 12.476971,5.015625 12,5.015625 c -0.476971,0 -0.578412,0.00913 -0.793595,0.07146 C 10.161788,5.3896494 9.3896494,6.1617884 9.0870853,7.2064053 9.0247594,7.4215881 9.015625,7.5230291 9.015625,8 c 0,0.4769709 0.00913,0.5784119 0.07146,0.7935947 0.3205197,1.1066087 1.17236,1.9106943 2.287915,2.1596533 0.312328,0.0697 1.130977,0.04406 1.435398,-0.04496 z"
         id="path827"
         inkscape:connector-curvature="0" /><g
         id="path825-61"
         transform="translate(-0.500095,-0.01599922)"><path
           style="fill:#333333;stroke-linejoin:round"
           d="M 2.8261719,2.5527344 C 2.6389394,2.6294072 2.5163593,2.8113499 2.515625,3.0136719 L 2.5078125,4.5058594 2.5019531,5.5 H 2 1 C 0.72386906,5.5000276 0.50002761,5.7238691 0.5,6 v 2 2 c 2.761e-5,0.276131 0.22386906,0.499972 0.5,0.5 h 1 0.5 v 1.007813 1.507812 c 1.744e-4,0.445319 0.5385182,0.668294 0.8535156,0.353516 l 2.5,-2.5 2.5,-2.5000004 c 0.1951842,-0.1952649 0.1951842,-0.5117663 0,-0.7070312 l -2.4921875,-2.5 -2.4921875,-2.5 C 3.226715,2.519591 3.0126681,2.4764737 2.8261719,2.5527344 Z"
           id="path2"
           sodipodi:nodetypes="ccccccccccccccccccccc" /><path
           style="fill:#fefefe;stroke-linejoin:round"
           d="M 3.0000026,11.507739 V 9.9999999 h -1 -1 v -2 -2 h 0.9996999 0.9996999 l 0.00811,-1.4921875 0.00811,-1.4921875 2.4921159,2.5001447 2.492116,2.500145 -2.4999285,2.4997824 -2.4999284,2.499781 z"
           id="path1" /></g></g></g></svg>
