<?xml version="1.0" encoding="UTF-8" standalone="no"?>
<!-- Created with Inkscape (http://www.inkscape.org/) -->

<svg
   version="1.1"
   id="svg2"
   width="1600"
   height="1600"
   viewBox="0 0 1600 1600"
   sodipodi:docname="node_framejoin.svg"
   inkscape:version="1.4 (86a8ad7, 2024-10-11)"
   xmlns:inkscape="http://www.inkscape.org/namespaces/inkscape"
   xmlns:sodipodi="http://sodipodi.sourceforge.net/DTD/sodipodi-0.dtd"
   xmlns="http://www.w3.org/2000/svg"
   xmlns:svg="http://www.w3.org/2000/svg"
   xmlns:rdf="http://www.w3.org/1999/02/22-rdf-syntax-ns#"
   xmlns:cc="http://creativecommons.org/ns#"
   xmlns:dc="http://purl.org/dc/elements/1.1/">
  <metadata
     id="metadata8">
    <rdf:RDF>
      <cc:Work
         rdf:about="">
        <dc:format>image/svg+xml</dc:format>
        <dc:type
           rdf:resource="http://purl.org/dc/dcmitype/StillImage" />
      </cc:Work>
    </rdf:RDF>
  </metadata>
  <defs
     id="defs6" />
  <sodipodi:namedview
     pagecolor="#808080"
     bordercolor="#666666"
     borderopacity="1"
     objecttolerance="10"
     gridtolerance="10"
     guidetolerance="10"
     inkscape:pageopacity="0"
     inkscape:pageshadow="2"
     inkscape:window-width="2560"
     inkscape:window-height="1009"
     id="namedview4"
     showgrid="false"
     inkscape:zoom="0.1767767"
     inkscape:cx="1366.1303"
     inkscape:cy="939.03781"
     inkscape:window-x="1912"
     inkscape:window-y="-8"
     inkscape:window-maximized="1"
     inkscape:current-layer="NODE_FRAME"
     inkscape:showpageshadow="0"
     inkscape:pagecheckerboard="true"
     inkscape:deskcolor="#d1d1d1" />
  <g
     id="NODE_FRAME"
     transform="matrix(100,0,0,100,0,4.9999997e-5)"
     style="stroke-width:0.0114286">
    <path
       style="fill:none;stroke-width:0.000357143"
       d="M 1,8 V 1 H 5.828125 10.65625 V 1.5 2 H 9.328125 8 v 6 6 h 3 3 V 9.609375 5.21875 H 14.5 15 V 10.109375 15 H 8 1 Z M 7,8 V 2 H 4.5 2 v 6 6 H 4.5 7 Z"
       id="path827"
       inkscape:connector-curvature="0" />
    <path
       style="fill:#98cbfe;stroke-width:0.000357143"
       d="M 3,8.5 V 4 H 4.5 6 V 8.5 13 H 4.5 3 Z m 6,0 V 4 h 2 2 V 8.5 13 H 11 9 Z"
       id="path825"
       inkscape:connector-curvature="0" />
    <path
       style="fill:#656565;stroke-width:0.000357143"
       d="M 3,3.5 V 3 H 4.5 6 V 3.5 4 H 4.5 3 Z m 6,0 V 3 h 2 2 V 3.5 4 H 11 9 Z"
       id="path823"
       inkscape:connector-curvature="0" />
    <path
       style="fill:#3e3e3e;stroke-width:0.000357143"
       d="M 13,3.5 V 2 H 13.5 14 V 3.5 5 H 13.5 13 Z m 2,1 V 4 H 15.5 16 V 4.5 5 H 15.5 15 Z m 0,-3 V 1 H 15.5 16 V 1.5 2 H 15.5 15 Z"
       id="path821"
       inkscape:connector-curvature="0" />
    <path
       style="fill:#323232;stroke-width:0.000357143"
       d="M 0,8 V 0 h 8 8 V 0.5 1 H 8.5 1 v 7 7 h 7 7 V 10 5 H 15.5 16 V 10.5 16 H 8 0 Z M 2,8 V 2 H 4.5 7 v 6 6 H 4.5 2 Z M 6,8 V 3 H 4.5 3 v 5 5 H 4.5 6 Z M 8,8 V 2 H 10.5 13 V 2.5 3 H 11 9 v 5 5 h 2 2 V 9 5 H 13.5 14 V 9.5 14 H 11 8 Z M 15,3 V 2 H 15.5 16 V 3 4 H 15.5 15 Z"
       id="path819"
       inkscape:connector-curvature="0" />
    <g
       id="STRING_JOIN"
       style="stroke-width:0.00949161"
       transform="matrix(1.2040719,0,0,1.2040719,0.4339716,-2.0026868)">
      <path
         style="fill:none;stroke-width:0.000296612"
         d="M 0,8 V 0 h 8 8 v 8 8 H 8 0 Z m 6.5037191,6.954233 c 0.4673037,-0.08166 0.8679415,-0.250696 1.2587422,-0.531082 L 8,14.252725 8.2382141,14.423636 c 0.5757178,0.413058 1.2382709,0.607438 1.9313369,0.566616 1.330056,-0.07834 2.428857,-1.003612 2.758272,-2.322664 0.07422,-0.297206 0.07422,-1.03797 0,-1.335176 C 12.598408,10.01336 11.499607,9.08809 10.169551,9.0097481 9.476485,8.9689259 8.8139319,9.1633059 8.2382141,9.5763644 L 8,9.7472753 7.7617859,9.5763644 C 7.1860681,9.1633059 6.523515,8.9689259 5.8304488,9.0097481 4.5003934,9.08809 3.4015919,10.01336 3.0721766,11.332412 c -0.074223,0.297206 -0.074223,1.03797 0,1.335176 0.3912512,1.566656 1.8788975,2.557965 3.4315425,2.286645 z M 2.578125,7.6402837 C 2.9116081,7.5699572 3.1685794,7.4284947 3.4129356,7.1807209 L 3.625,6.9656906 V 7.2640953 7.5625 H 4.3300441 5.0350878 L 5.0238547,6.0703125 C 5.0131741,4.6514972 5.0092719,4.5661019 4.9444937,4.3336087 4.7396034,3.5982431 4.26438,3.2422881 3.3313091,3.1252909 2.7354844,3.0505809 1.7221003,3.1356888 1.0859375,3.3138656 L 0.96875,3.3466878 V 3.8771041 4.4075203 L 1.1009632,4.34007 C 1.7728659,3.9972909 2.9629156,3.9267113 3.3830231,4.204725 3.5229547,4.2973275 3.6232844,4.4883222 3.6243137,4.6640625 L 3.625,4.78125 3.0546875,4.7815 C 1.9435165,4.782 1.3772306,4.9107169 0.99117241,5.2505391 0.69817975,5.5084416 0.54600497,6.0049731 0.61441819,6.4798519 0.70310116,7.09543 1.1220427,7.5230922 1.765625,7.6550219 c 0.2028366,0.04158 0.5776689,0.034778 0.8125,-0.014744 z M 2.3603056,6.7020516 C 1.9458397,6.5440578 1.8716519,6.0356875 2.2246054,5.7721697 2.3619068,5.6696594 2.6380652,5.6260106 3.1526366,5.6254881 L 3.6333978,5.625 3.6178331,5.8425403 C 3.5909972,6.217605 3.4116088,6.49327 3.0850686,6.6612353 c -0.1708855,0.0879 -0.5458523,0.1090169 -0.724763,0.040816 z m 7.230536,0.9373303 C 10.315828,7.4684903 10.874181,6.7642356 10.997681,5.8649262 11.124113,4.9442612 10.888294,4.0967306 10.361397,3.578125 10.005439,3.2277684 9.5875369,3.0733693 9.078125,3.1040044 8.6035175,3.1325463 8.2526894,3.29775 7.9155156,3.6514725 L 7.75,3.8251119 V 2.646931 1.46875 H 7.046875 6.34375 V 4.515625 7.5625 H 7.046875 7.75 V 7.2593191 6.9561381 l 0.1640625,0.1716385 c 0.456505,0.4775859 1.0512563,0.6590515 1.6767791,0.5116053 z M 8.375,6.6101012 C 8.2976562,6.5850572 8.1846834,6.5233987 8.1239494,6.4730819 c -0.4982803,-0.4128128 -0.4982803,-1.7519603 0,-2.1649541 0.3135903,-0.2599156 0.8940787,-0.2318334 1.161675,0.056198 0.1929194,0.2076516 0.3070403,0.5891072 0.3070403,1.0262994 0,0.5886466 -0.1831053,1.0084497 -0.5145397,1.1796772 C 8.9172309,6.6534241 8.56957,6.6731028 8.375,6.6101012 Z m 6.671246,1.0002147 c 0.119967,-0.026156 0.292232,-0.069102 0.382812,-0.095435 L 15.59375,7.4670041 V 6.8920319 6.3170597 l -0.179687,0.1084056 c -0.299936,0.1809513 -0.561071,0.2464409 -0.976563,0.2449113 -0.430564,-0.00158 -0.630402,-0.065771 -0.866963,-0.2784604 -0.514955,-0.4629884 -0.514955,-1.539594 0,-2.0025825 0.237226,-0.2132865 0.436451,-0.2770606 0.866963,-0.277524 0.309569,-3.344e-4 0.392377,0.011162 0.5975,0.082942 0.130968,0.045831 0.310265,0.1258646 0.398437,0.1778528 l 0.160313,0.094524 V 3.8910247 3.3149212 l -0.164022,-0.048709 c -0.42013,-0.1247656 -0.661037,-0.1559078 -1.195353,-0.154525 -0.438193,0.00113 -0.579428,0.013333 -0.806292,0.069639 -0.853677,0.2118779 -1.398918,0.7149722 -1.621879,1.4965075 -0.100705,0.3529988 -0.100705,1.0725838 0,1.4255825 0.249198,0.8735032 0.913684,1.409201 1.927297,1.5537554 0.265544,0.03787 1.053076,0.00976 1.312745,-0.046856 z"
         id="path825-8"
         inkscape:connector-curvature="0" />
      <path
         style="fill:#fecb32;stroke-width:0.000296612"
         d="M 5.5826353,14.450042 C 5.1222766,14.366876 4.6250441,14.11543 4.2768137,13.789702 3.930775,13.466022 3.6370444,12.902684 3.5479637,12.391857 c -0.059863,-0.343278 -0.059863,-0.440436 0,-0.783714 0.06197,-0.355363 0.1954441,-0.684931 0.4048613,-0.999666 0.3716853,-0.558608 0.9680119,-0.9406573 1.6553181,-1.0605132 0.3432781,-0.059863 0.4404356,-0.059863 0.7837138,0 0.3553628,0.06197 0.6849312,0.195444 0.9996659,0.4048612 0.5586084,0.371685 0.9406575,0.968012 1.0605134,1.655318 0.059863,0.343278 0.059863,0.440436 0,0.783714 -0.06197,0.355363 -0.195444,0.684931 -0.4048612,0.999666 -0.3716853,0.558608 -0.9680119,0.940657 -1.6553181,1.060513 -0.3285569,0.0573 -0.4831397,0.05692 -0.8092216,-0.002 z m 4,0 C 9.2521231,14.390333 8.913135,14.249887 8.6055487,14.045227 l -0.2548368,-0.169563 0.1629,-0.247604 C 8.8462141,13.122513 8.9813825,12.652063 8.9813825,12 c 0,-0.652063 -0.1351684,-1.122513 -0.4677706,-1.62806 l -0.1629,-0.247604 0.2548368,-0.1695626 C 8.9230794,9.7434959 9.2518456,9.6100966 9.6081431,9.5479638 c 0.3432781,-0.059863 0.4404359,-0.059863 0.7837139,0 0.355363,0.06197 0.684931,0.195444 0.999666,0.4048612 0.558608,0.371685 0.940657,0.968012 1.060513,1.655318 0.05986,0.343278 0.05986,0.440436 0,0.783714 -0.06197,0.355363 -0.195444,0.684931 -0.404861,0.999666 -0.371685,0.558608 -0.968012,0.940657 -1.655318,1.060513 -0.328557,0.0573 -0.4831398,0.05692 -0.8092217,-0.002 z"
         id="path821-4"
         inkscape:connector-curvature="0" />
      <path
         style="fill:#983200;stroke-width:0.000296612"
         d="M 5.4794241,14.953767 C 4.8499878,14.839549 4.2826831,14.534283 3.8413031,14.072296 3.46529,13.678727 3.2067906,13.206613 3.0721766,12.667588 c -0.074223,-0.297206 -0.074223,-1.03797 0,-1.335176 C 3.4015919,10.01336 4.5003934,9.08809 5.8304487,9.0097481 6.523515,8.9689259 7.1860681,9.1633059 7.7617859,9.5763644 L 8,9.7472753 8.2382141,9.5763644 C 8.8139319,9.1633059 9.476485,8.9689259 10.169551,9.0097481 c 1.330056,0.078342 2.428857,1.0036119 2.758272,2.3226639 0.07422,0.297206 0.07422,1.03797 0,1.335176 -0.329415,1.319052 -1.428216,2.244322 -2.758272,2.322664 -0.693066,0.04082 -1.3556191,-0.153558 -1.9313369,-0.566616 L 8,14.252725 7.7624613,14.423151 C 7.0942509,14.90257 6.2625462,15.095872 5.4794241,14.953767 Z M 6.3918569,14.452036 C 7.0791631,14.33218 7.6754897,13.950131 8.047175,13.391523 8.2565922,13.076788 8.3900662,12.74722 8.4520362,12.391857 c 0.059863,-0.343278 0.059863,-0.440436 0,-0.783714 C 8.3321803,10.920837 7.9501312,10.32451 7.3915228,9.952825 7.0767881,9.7434078 6.7472197,9.6099338 6.3918569,9.5479638 c -0.3432782,-0.059863 -0.4404357,-0.059863 -0.7837138,0 C 4.9208369,9.6678197 4.3245103,10.049869 3.952825,10.608477 3.7434078,10.923212 3.6099337,11.25278 3.5479637,11.608143 c -0.059863,0.343278 -0.059863,0.440436 0,0.783714 0.089081,0.510827 0.3828113,1.074166 0.72885,1.397845 0.3482304,0.325728 0.8454629,0.577174 1.3058216,0.66034 0.3260819,0.05891 0.4806647,0.05929 0.8092216,0.002 z m 4.0000001,0 c 0.687306,-0.119856 1.283633,-0.501905 1.655318,-1.060513 0.209417,-0.314735 0.342891,-0.644303 0.404861,-0.999666 0.05986,-0.343278 0.05986,-0.440436 0,-0.783714 C 12.33218,10.920837 11.950131,10.32451 11.391523,9.952825 11.076788,9.7434078 10.74722,9.6099338 10.391857,9.5479638 c -0.343278,-0.059863 -0.4404357,-0.059863 -0.7837139,0 -0.3562975,0.062133 -0.6850637,0.1955321 -1.0025943,0.4068096 l -0.2548369,0.1695626 0.1629,0.247604 C 8.8462141,10.877487 8.9813825,11.347937 8.9813825,12 c 0,0.652063 -0.1351684,1.122513 -0.4677706,1.62806 l -0.1629,0.247604 0.2548369,0.169563 c 0.3075862,0.20466 0.6465743,0.345106 0.9770865,0.404815 0.3260819,0.05891 0.4806647,0.05929 0.8092217,0.002 z"
         id="path819-5"
         inkscape:connector-curvature="0" />
    </g>
    <path
       style="fill:#fefefe;stroke-width:0.000357143"
       d="M 14,3.609375 V 2 H 12.328125 10.65625 V 1.5 1 H 12.828125 15 V 3.109375 5.21875 H 14.5 14 Z"
       id="path829"
       inkscape:connector-curvature="0" />
  </g>
</svg>
