<?xml version="1.0" encoding="UTF-8" standalone="no"?>
<!-- Created with Inkscape (http://www.inkscape.org/) -->

<svg
   version="1.1"
   id="svg2"
   width="1600"
   height="1600"
   viewBox="0 0 1600 1600"
   sodipodi:docname="node_vectormath.svg"
   inkscape:version="1.2.2 (732a01da63, 2022-12-09)"
   xmlns:inkscape="http://www.inkscape.org/namespaces/inkscape"
   xmlns:sodipodi="http://sodipodi.sourceforge.net/DTD/sodipodi-0.dtd"
   xmlns="http://www.w3.org/2000/svg"
   xmlns:svg="http://www.w3.org/2000/svg"
   xmlns:rdf="http://www.w3.org/1999/02/22-rdf-syntax-ns#"
   xmlns:cc="http://creativecommons.org/ns#"
   xmlns:dc="http://purl.org/dc/elements/1.1/">
  <metadata
     id="metadata8">
    <rdf:RDF>
      <cc:Work
         rdf:about="">
        <dc:format>image/svg+xml</dc:format>
        <dc:type
           rdf:resource="http://purl.org/dc/dcmitype/StillImage" />
      </cc:Work>
    </rdf:RDF>
  </metadata>
  <defs
     id="defs6" />
  <sodipodi:namedview
     pagecolor="#808080"
     bordercolor="#666666"
     borderopacity="1"
     objecttolerance="10"
     gridtolerance="10"
     guidetolerance="10"
     inkscape:pageopacity="0"
     inkscape:pageshadow="2"
     inkscape:window-width="1993"
     inkscape:window-height="1009"
     id="namedview4"
     showgrid="false"
     inkscape:zoom="0.5"
     inkscape:cx="9"
     inkscape:cy="8"
     inkscape:window-x="-8"
     inkscape:window-y="-8"
     inkscape:window-maximized="1"
     inkscape:current-layer="NODE_VECTORMATH"
     inkscape:showpageshadow="0"
     inkscape:pagecheckerboard="true"
     inkscape:deskcolor="#d1d1d1" />
  <g
     id="NODE_VECTORMATH"
     transform="matrix(100,0,0,100,0,4.9999997e-5)"
     style="stroke-width:0.0114286">
    <path
       style="fill:none;stroke-width:0.000357143"
       d="M 3,15.5 V 15 h 5 5 V 15.5 16 H 8 3 Z m 11,0 V 15 H 14.5 15 V 14.5 14 H 14.5 14 V 13.5 13 H 13.5 13 V 13.5 14 H 8 3 V 13.5 13 H 2.5 2 V 8 3 H 2.5 3 V 2.5 2 H 2.5 2 V 1.5 1 H 1.5 1 V 1.5 2 H 0.5 0 V 1 0 h 8 8 v 8 8 H 15 14 Z M 12,12.003343 C 12,11.43398 12.020037,11.468855 11.692757,11.468566 11.019781,11.467972 9.9856913,11.183635 9.1393656,10.766479 8.3009247,10.35321 7.5848775,9.8338556 6.8755109,9.1244891 6.1552678,8.4042459 5.6404613,7.6907328 5.2186619,6.828125 4.7934012,5.9584384 4.5335669,4.9801675 4.5318225,4.2421875 L 4.53125,4 H 4.015625 3.5 l 1.562e-4,0.2890625 c 1.876e-4,0.3699403 0.096348,1.0233956 0.2173051,1.4766322 0.3003203,1.1253297 0.8649365,2.23302 1.6575509,3.2518584 0.3481612,0.4475319 1.1728556,1.2699039 1.625,1.6204229 1.4830069,1.149685 3.2289088,1.843092 4.6796878,1.8586 L 12,12.5 Z M 1,14.5 V 14 H 1.5 2 V 14.5 15 H 1.5 1 Z M 0,8 V 3 H 0.5 1 v 5 5 H 0.5 0 Z"
       id="path821"
       inkscape:connector-curvature="0" />
    <path
       style="fill:#fefefe;stroke-width:0.000357143"
       d="M 0,14.5 V 13 H 0.5 1 V 8 3 H 0.5 0 V 2.5 2 H 0.5 1 V 1.5 1 H 1.5 2 V 1.5 2 H 2.5 3 V 2.5 3 H 2.5 2 v 5 5 H 2.5 3 v 0.5 0.5 h 5 5 V 13.5 13 H 13.5 14 V 13.5 14 H 14.5 15 V 14.5 15 H 14.5 14 V 15.5 16 H 13.5 13 V 15.5 15 H 8 3 V 15.5 16 H 1.5 0 Z m 2,0 V 14 H 1.5 1 V 14.5 15 H 1.5 2 Z m 9.09375,-2.046084 C 9.6389109,12.239017 8.2979038,11.644161 7,10.637976 6.5478556,10.287457 5.7231613,9.465085 5.375,9.0175531 4.77208,8.2425506 4.1952037,7.2184881 3.9246294,6.4428759 3.6654963,5.7000609 3.5004294,4.8625222 3.5001441,4.2890625 L 3.5,4 H 4.015625 4.53125 l 5.719e-4,0.2421875 c 0.00174,0.73798 0.2615787,1.7162509 0.6868393,2.5859375 0.4217994,0.8626078 0.936606,1.5761209 1.6568491,2.2963641 0.7093666,0.7093665 1.4254138,1.2287209 2.2638547,1.6419899 0.8463256,0.417156 1.880415,0.701492 2.553391,0.702087 0.32728,2.81e-4 0.307243,-0.03459 0.307243,0.534777 L 12,12.5 11.679688,12.4966 C 11.503516,12.4947 11.239844,12.47552 11.09375,12.45394 Z"
       id="path819"
       inkscape:connector-curvature="0" />
  </g>
</svg>
