<?xml version="1.0" encoding="UTF-8" standalone="no"?>
<!-- Created with Inkscape (http://www.inkscape.org/) -->

<svg
   xmlns:dc="http://purl.org/dc/elements/1.1/"
   xmlns:cc="http://creativecommons.org/ns#"
   xmlns:rdf="http://www.w3.org/1999/02/22-rdf-syntax-ns#"
   xmlns:svg="http://www.w3.org/2000/svg"
   xmlns="http://www.w3.org/2000/svg"
   xmlns:sodipodi="http://sodipodi.sourceforge.net/DTD/sodipodi-0.dtd"
   xmlns:inkscape="http://www.inkscape.org/namespaces/inkscape"
   version="1.1"
   id="svg2"
   width="16"
   height="16"
   viewBox="0 0 16 16"
   sodipodi:docname="NODE_BACKGROUNDSHADER.svg"
   inkscape:version="0.92.4 (5da689c313, 2019-01-14)">
  <metadata
     id="metadata8">
    <rdf:RDF>
      <cc:Work
         rdf:about="">
        <dc:format>image/svg+xml</dc:format>
        <dc:type
           rdf:resource="http://purl.org/dc/dcmitype/StillImage" />
        <dc:title></dc:title>
      </cc:Work>
    </rdf:RDF>
  </metadata>
  <defs
     id="defs6" />
  <sodipodi:namedview
     pagecolor="#ffffff"
     bordercolor="#666666"
     borderopacity="1"
     objecttolerance="10"
     gridtolerance="10"
     guidetolerance="10"
     inkscape:pageopacity="0"
     inkscape:pageshadow="2"
     inkscape:window-width="811"
     inkscape:window-height="590"
     id="namedview4"
     showgrid="false"
     inkscape:zoom="14.75"
     inkscape:cx="8"
     inkscape:cy="8"
     inkscape:window-x="0"
     inkscape:window-y="0"
     inkscape:window-maximized="0"
     inkscape:current-layer="svg2" />
  <g
     id="NODE_BACKGROUNDSHADER">
    <path
       style="fill:#fefefe;stroke-width:0.03125"
       d="m 0,14.49231 v -1.507691 l 1.5,1.499756 C 2.325,15.309241 3,15.987702 3,15.992065 3,15.996429 2.325,16 1.5,16 H 0 Z m 4.7180637,1.437378 C 4.7176856,15.891016 4.6909894,15.803125 4.6587375,15.734375 4.5757544,15.557484 0.49786078,11.489385 0.33694122,11.422959 0.27304012,11.396582 0.171087,11.375 0.11037871,11.375 H 0 V 10.17974 8.9844797 L 3.5,12.484375 C 5.425,14.409318 7,15.98781 7,15.992135 7,15.996461 6.4867187,16 5.859375,16 H 4.71875 l -6.875e-4,-0.07031 z m 4.0006863,0.0068 c 0,-0.181615 -0.1188794,-0.318811 -1.3056441,-1.506808 -0.665324,-0.666016 -1.2014028,-1.210938 -1.1912853,-1.210938 0.010117,0 0.099595,0.02794 0.1988388,0.06208 0.3867328,0.133056 0.8175159,0.194771 1.4739662,0.211168 L 8.5236263,13.50771 9.7694791,14.753855 11.015332,16 H 9.8670409 C 8.7335334,16 8.71875,15.999183 8.71875,15.936496 Z m 3.999314,-0.0068 c -0.0018,-0.184172 -0.139125,-0.341459 -1.369474,-1.568523 l -1.251552,-1.24821 0.334293,-0.162778 c 0.183862,-0.08953 0.47402,-0.256452 0.644797,-0.370942 L 11.38663,12.371072 13.201094,14.185536 15.015558,16 H 13.867154 12.71875 l -6.87e-4,-0.07031 z m 1.459585,-2.736413 -1.806524,-1.806725 0.208137,-0.310463 c 0.114475,-0.170754 0.281386,-0.460894 0.370915,-0.644756 l 0.162778,-0.334293 1.24821,1.251552 c 1.227064,1.230349 1.384351,1.367676 1.568523,1.369474 L 16,12.71875 v 1.140625 C 16,14.486719 15.996439,15 15.992087,15 c -0.0044,0 -0.82085,-0.813026 -1.814438,-1.806725 z m 0.567213,-3.4354625 -1.23922,-1.2421875 -0.01477,-0.625 C 13.475452,7.2378034 13.413992,6.807695 13.28083,6.4206594 13.24668,6.3214154 13.21875,6.2319378 13.21875,6.2218206 c 0,-0.010117 0.544922,0.5259613 1.210938,1.1912853 C 15.617685,8.5998706 15.754881,8.71875 15.936496,8.71875 15.999175,8.71875 16,8.7335741 16,9.859375 16,10.486719 15.996418,11 15.992041,11 15.987663,11 15.426433,10.441016 14.744862,9.7578125 Z M 1.6392417,8.6518272 C 0.90068375,7.9110578 0.47278803,7.50476 0.390625,7.4662344 0.321875,7.4339978 0.20585938,7.4073137 0.1328125,7.4069362 L 0,7.40625 V 6.1954591 4.9846681 l 1.2461449,1.2458528 1.2461449,1.2458528 0.01571,0.6290007 c 0.016399,0.6565693 0.078112,1.0872318 0.2112488,1.4742012 0.03419,0.099374 0.057988,0.1848538 0.052886,0.189956 -0.0051,0.0051 -0.5149042,-0.4978647 -1.1328929,-1.1177044 z M 12.484375,3.5 8.9844797,0 H 10.14849 11.3125 v 0.07912871 c 0,0.04352079 0.02158,0.13141141 0.04796,0.1953125 0.06643,0.16091957 4.134525,4.23881319 4.311416,4.32179629 0.06875,0.032252 0.170703,0.058949 0.226563,0.059326 L 16,4.65625 V 5.828125 C 16,6.4726562 15.996461,7 15.992135,7 15.98781,7 14.409318,5.425 12.484375,3.5 Z M 1.6700838,4.6826616 C 0.43429297,3.4434716 0.31994419,3.3459122 0.1015625,3.3444363 L 0,3.34375 V 2.164096 0.98444206 L 1.8144641,2.7989062 3.6289281,4.6133703 3.420765,4.9238725 C 3.3062753,5.0946491 3.1393512,5.3848081 3.0498223,5.5686712 L 2.8870426,5.9029672 Z M 2.796875,1.8125 0.98457706,0 H 2.1641635 3.34375 l 6.875e-4,0.1015625 c 0.00147,0.21838169 0.099035,0.33273047 1.3382253,1.5685213 L 5.9029684,2.8870426 5.5686725,3.0498223 C 5.3848094,3.1393512 5.0959722,3.3053916 4.9268116,3.4188009 4.7576497,3.5322103 4.6169794,3.625 4.6142094,3.625 4.6114394,3.625 3.7936388,2.809375 2.796875,1.8125 Z M 14.484375,1.5 12.984619,0 H 14.49231 16 V 1.5 C 16,2.325 15.9964,3 15.9921,3 15.9877,3 15.309276,2.325 14.48441,1.5 Z m -4.875,1.2293311 C 9.2675281,2.599388 8.7758341,2.5266398 8.120755,2.5090836 L 7.4758847,2.4918009 6.2302762,1.2459004 4.9846681,0 H 6.1954591 7.40625 v 0.12600371 c 0,0.069302 0.021593,0.17828641 0.047985,0.24218751 0.032525,0.078751 0.4175862,0.48619406 1.1951541,1.26462128 0.6309431,0.6316406 1.1331781,1.1474466 1.1160778,1.1462356 -0.0171,-0.00121 -0.087342,-0.023584 -0.1560919,-0.049717 z"
       id="path825"
       inkscape:connector-curvature="0" />
    <path
       style="fill:#989898;stroke-width:0.03125"
       d="M 7.515625,12.981563 C 6.8336787,12.883965 6.3240031,12.738356 5.828125,12.499461 4.6115975,11.913386 3.6965644,10.872346 3.2604597,9.5782094 3.0739178,9.0246478 3.0170268,8.6558153 3.0170268,8 c 0,-0.4719403 0.012687,-0.6412775 0.069077,-0.9219594 0.4169661,-2.0754753 1.9798995,-3.6190793 4.0545214,-4.0043781 0.4340447,-0.080611 1.2847053,-0.080611 1.71875,0 C 10.693617,3.4143178 12.149368,4.6704606 12.73954,6.4217906 12.926082,6.9753522 12.982973,7.3441847 12.982973,8 c 0,0.4719403 -0.01269,0.6412775 -0.06908,0.9219594 -0.410595,2.0437626 -1.932258,3.5744066 -3.9624751,3.9858616 -0.2996566,0.06073 -1.2026591,0.107108 -1.4357969,0.07374 z"
       id="path823"
       inkscape:connector-curvature="0" />
    <path
       style="fill:#3d7d3d;stroke-width:0.03125"
       d="M 1.5076917,14.492068 0,12.984136 V 12.179568 11.375 h 0.11037871 c 0.0607083,0 0.16266141,0.02158 0.22656251,0.04796 0.16091956,0.06643 4.23881318,4.134525 4.32179628,4.311416 0.032252,0.06875 0.058949,0.156641 0.059326,0.195313 L 4.71875,16 H 3.8670666 3.0153834 Z M 3.5077603,12.492136 0,8.9842713 V 8.1952606 7.40625 l 0.1328125,6.875e-4 c 0.0730469,3.781e-4 0.1890625,0.027063 0.2578125,0.0593 0.0825956,0.03873 0.51348022,0.4492897 1.2701643,1.2102512 0.9293368,0.93459 1.1525119,1.1751963 1.1841495,1.2766379 0.1882089,0.6034624 0.750454,1.4590964 1.3156974,2.0022504 0.564216,0.542166 1.3207325,1.023325 1.8862388,1.199683 0.1016862,0.03171 0.3514472,0.264223 1.3391347,1.246649 1.1939572,1.187597 1.3302578,1.343945 1.332054,1.52798 L 8.71875,16 H 7.8671353 7.0155209 Z m 6.2655306,2.265532 C 9.0901684,14.074385 8.53125,13.504854 8.53125,13.492043 c 0,-0.01281 0.047665,-0.02329 0.1059228,-0.02329 0.1929906,0 0.6228781,-0.09278 1.0440028,-0.22532 l 0.4155514,-0.130786 1.251707,1.248365 c 1.230504,1.227219 1.367832,1.384505 1.36963,1.568679 L 12.71875,16 h -0.851709 -0.851709 z m 3.4194331,-0.580569 -1.822701,-1.8229 0.07788,-0.05103 c 0.129023,-0.08454 0.620955,-0.56493 0.770802,-0.752718 L 12.358916,11.37474 14.179458,13.195082 16,15.015425 V 15.507712 16 h -0.492288 -0.492287 z m 2.541651,-1.51834 C 15.65162,12.619952 15.187473,12.17711 14.361009,11.348434 L 13.112644,10.096727 13.24343,9.6811756 c 0.13254,-0.4211247 0.22532,-0.8510122 0.22532,-1.0440028 0,-0.058257 0.01061,-0.1059228 0.02358,-0.1059228 0.01297,0 0.582503,0.5590494 1.265625,1.2423322 L 16,11.015914 v 0.851418 0.851418 l -0.07031,-6.88e-4 c -0.03867,-3.78e-4 -0.126563,-0.02706 -0.195313,-0.0593 z m 0,-3.9999981 C 15.651496,8.6198966 15.202428,8.1910184 14.401708,7.3860097 13.419282,6.3983222 13.18677,6.1485612 13.155058,6.046875 12.966873,5.4434441 12.404609,4.5877797 11.839364,4.0446244 11.27515,3.5024603 10.518663,3.0213194 9.953125,2.8449388 9.8516834,2.8133012 9.6110772,2.5901261 8.6764872,1.6607893 7.9155256,0.90410522 7.5049656,0.47322059 7.4662359,0.390625 7.4339987,0.321875 7.4073137,0.20585938 7.4069362,0.1328125 L 7.40625,0 H 8.1953647 8.9844791 L 12.49224,3.5078644 16,7.0157287 V 7.8672394 8.71875 L 15.92969,8.7180625 C 15.89102,8.7176844 15.803127,8.6909985 15.734377,8.6587595 Z M 1.242041,6.2264178 0,4.9840856 V 4.1639178 3.34375 l 0.1015625,6.875e-4 c 0.21838419,0.00147 0.33272741,0.099032 1.5686772,1.3383812 L 2.8873545,5.9032806 2.7565693,6.3188284 C 2.6240296,6.7399494 2.53125,7.1698369 2.53125,7.3628272 2.53125,7.4210842 2.520637,7.46875 2.507666,7.46875 2.494695,7.46875 1.9251636,6.9097006 1.242041,6.2264178 Z M 15.671875,4.5962375 C 15.494984,4.5132544 11.426885,0.43536078 11.360459,0.27444121 11.334082,0.21054012 11.3125,0.1226495 11.3125,0.07912871 V 0 h 0.836058 0.836059 L 14.492308,1.5079321 16,3.0158642 V 3.8360572 4.65625 l -0.101562,-6.875e-4 c -0.05586,-3.781e-4 -0.157813,-0.027074 -0.226563,-0.059326 z M 1.8192019,2.8035777 0,0.98417637 V 0.49208819 0 H 0.49228766 0.98457531 L 2.8049179,1.8205421 4.6252603,3.6410841 4.45717,3.7752128 C 4.2811844,3.9156419 3.8921147,4.3081744 3.7320344,4.5068019 L 3.6384037,4.6229791 Z M 4.6650203,1.6484375 C 3.4236566,0.40580309 3.34375,0.31184083 3.34375,0.09475371 V 0 h 0.8204591 0.820459 l 1.242041,1.2423322 c 0.6831225,0.6832827 1.2420409,1.252814 1.2420409,1.265625 0,0.012811 -0.048505,0.023293 -0.1077888,0.023293 -0.1865509,0 -0.7411865,0.1203714 -1.0793134,0.2342411 C 6.1028,2.825721 5.9415878,2.875 5.9233991,2.875 5.90521,2.875 5.3389397,2.3230469 4.6650203,1.6484375 Z"
       id="path821"
       inkscape:connector-curvature="0" />
    <path
       style="fill:#323232;stroke-width:0.03125"
       d="M 7.390625,13.481401 C 6.2868406,13.325339 5.3812141,12.959336 4.6303434,12.365849 3.5359875,11.500873 2.8226281,10.328072 2.573552,8.984375 2.4912947,8.54062 2.4912947,7.45938 2.573552,7.015625 2.8226281,5.6719281 3.5359875,4.4991272 4.6303434,3.6341506 5.2737625,3.1255938 6.1576028,2.7326004 7.015625,2.573552 c 0.443755,-0.082257 1.524995,-0.082257 1.96875,0 0.8580222,0.1590484 1.741863,0.5520418 2.385282,1.0605986 1.094355,0.8649766 1.807715,2.0377775 2.056791,3.3814744 0.08226,0.443755 0.08226,1.524995 0,1.96875 -0.166199,0.8965975 -0.560373,1.762187 -1.116407,2.451584 -0.698178,0.865633 -1.536986,1.449629 -2.5773238,1.794391 -0.5835644,0.193389 -0.8843438,0.240769 -1.6077172,0.253252 -0.3523438,0.0061 -0.6828125,0.0051 -0.734375,-0.0022 z m 1.5607969,-0.57358 C 10.743288,12.544671 12.159308,11.300044 12.73954,9.5782094 12.926082,9.0246478 12.982973,8.6558153 12.982973,8 c 0,-0.4719403 -0.01269,-0.6412775 -0.06908,-0.9219594 -0.416967,-2.0754753 -1.9799,-3.6190793 -4.054522,-4.0043781 -0.4340447,-0.080611 -1.2847053,-0.080611 -1.71875,0 C 5.3063828,3.4143178 3.8506319,4.6704606 3.2604597,6.4217906 3.0739178,6.9753522 3.0170268,7.3441847 3.0170268,8 c 0,0.4719403 0.012687,0.6412775 0.069077,0.9219594 0.2727398,1.3575796 1.0204276,2.4848556 2.1482714,3.2389126 0.6543878,0.437513 1.3483894,0.687183 2.28125,0.820691 0.2331378,0.03337 1.1361403,-0.01301 1.4357969,-0.07374 z"
       id="path819"
       inkscape:connector-curvature="0" />
  </g>
</svg>
