<?xml version="1.0" encoding="UTF-8" standalone="no"?>
<!-- Created with Inkscape (http://www.inkscape.org/) -->

<svg
   version="1.1"
   id="svg2"
   width="1600"
   height="1600"
   viewBox="0 0 1600 1600"
   sodipodi:docname="node_combineyuva.svg"
   inkscape:version="1.2.2 (732a01da63, 2022-12-09)"
   xmlns:inkscape="http://www.inkscape.org/namespaces/inkscape"
   xmlns:sodipodi="http://sodipodi.sourceforge.net/DTD/sodipodi-0.dtd"
   xmlns="http://www.w3.org/2000/svg"
   xmlns:svg="http://www.w3.org/2000/svg"
   xmlns:rdf="http://www.w3.org/1999/02/22-rdf-syntax-ns#"
   xmlns:cc="http://creativecommons.org/ns#"
   xmlns:dc="http://purl.org/dc/elements/1.1/">
  <metadata
     id="metadata8">
    <rdf:RDF>
      <cc:Work
         rdf:about="">
        <dc:format>image/svg+xml</dc:format>
        <dc:type
           rdf:resource="http://purl.org/dc/dcmitype/StillImage" />
      </cc:Work>
    </rdf:RDF>
  </metadata>
  <defs
     id="defs6" />
  <sodipodi:namedview
     pagecolor="#808080"
     bordercolor="#666666"
     borderopacity="1"
     objecttolerance="10"
     gridtolerance="10"
     guidetolerance="10"
     inkscape:pageopacity="0"
     inkscape:pageshadow="2"
     inkscape:window-width="1993"
     inkscape:window-height="1009"
     id="namedview4"
     showgrid="false"
     inkscape:zoom="0.5"
     inkscape:cx="585"
     inkscape:cy="504"
     inkscape:window-x="-8"
     inkscape:window-y="-8"
     inkscape:window-maximized="1"
     inkscape:current-layer="NODE_COMBINEYUVA"
     inkscape:showpageshadow="0"
     inkscape:pagecheckerboard="true"
     inkscape:deskcolor="#d1d1d1" />
  <g
     id="NODE_COMBINEYUVA"
     transform="matrix(100,0,0,100,0,4.9999997e-5)"
     style="stroke-width:0.0114286">
    <path
       style="fill:none;stroke-width:0.000357143"
       d="M 0,11.015625 V 9.03125 H 0.48494847 0.96989691 L 1.524011,8.7463913 C 1.8287737,8.5897187 2.0921875,8.4510687 2.109375,8.43828 2.141321,8.4145097 2.9055934,8.0072466 3.578125,7.6556166 3.784375,7.5477797 4.178125,7.33706 4.453125,7.18735 4.728125,7.0376403 5.1570312,6.8090656 5.40625,6.6794059 6.3855069,6.1699344 6.7637119,5.9487537 6.8360041,5.8432609 6.9777244,5.6364544 6.9867431,5.4243775 6.8619184,5.2338709 6.8361453,5.1945362 6.5814834,5.0407841 6.2905241,4.8888916 6.0018297,4.7381812 5.5672741,4.5060344 5.324845,4.3730097 5.0824159,4.239985 4.7730409,4.0757056 4.637345,4.0079447 4.5016491,3.9401834 4.0008084,3.6716128 3.5243663,3.4111213 3.047924,3.1506297 2.6493518,2.9375 2.6386503,2.9375 2.622274,2.9375 1.9983777,2.6040003 1.1953125,2.1659732 1.0878906,2.1073806 1,2.0390357 1,2.0140956 1,1.9763575 0.916116,1.96875 0.5,1.96875 H 0 V 0.984375 0 h 8 8 V 0.984375 1.96875 h -0.5 c -0.471698,0 -0.5,0.00339 -0.5,0.059819 0,0.04552 -0.117652,0.1212263 -0.492187,0.3167089 -0.270704,0.1412893 -0.733142,0.3885894 -1.027642,0.5495557 -0.2945,0.1609664 -0.544628,0.2926661 -0.555838,0.2926661 -0.01121,0 -0.332757,0.1710903 -0.714546,0.3802006 C 11.827998,3.7768113 11.31875,4.0498259 11.078125,4.1744 10.8375,4.2989741 10.31088,4.5813994 9.9078575,4.8020119 9.1067016,5.2405606 9.0519253,5.2880022 9.0522447,5.543055 c 2.187e-4,0.1708309 0.079686,0.3158866 0.2220834,0.4053544 0.063963,0.040188 0.4748907,0.2630806 0.9131719,0.4953172 0.979697,0.5191221 1.533738,0.8150162 2.5625,1.3685418 0.438281,0.2358172 0.886839,0.473805 0.996795,0.5288613 0.109955,0.055057 0.442316,0.2328569 0.738579,0.3951116 L 15.024034,9.03125 H 15.512017 16 V 9.515625 10 H 13 10 V 11.5 13 H 5 0 Z"
       id="path831"
       inkscape:connector-curvature="0" />
    <path
       style="fill:#fefefe;stroke-width:0.000357143"
       d="M 0,14.5 V 13 h 5 5 V 11.5 10 h 3 3 v 3 3 H 15.5 15 v -1 -1 h -2 -2 v 1 1 H 10.5 10 V 15 14 H 8 6 v 1 1 H 5.5 5 V 15 14 H 3 1 v 1 1 H 0.5 0 Z M 15,12 v -1 h -2 -2 v 1 1 h 2 2 z M 1,5.5452803 C 1,4.2313137 1.0065524,3.15625 1.0145609,3.15625 c 0.00801,0 0.2169063,0.1111169 0.4642174,0.2469266 0.2473112,0.1358097 0.5654821,0.3047234 0.7070465,0.3753637 0.1415644,0.07064 0.4072759,0.2104563 0.59047,0.3107019 C 2.9594889,4.1894881 3.3695312,4.4092434 3.6875,4.5775875 4.4591534,4.9861287 5.2386447,5.4035003 5.3822231,5.4850122 L 5.4988213,5.5512066 5.0384731,5.7952697 C 4.7852816,5.9295044 4.2170922,6.2343894 3.7758297,6.4727916 3.3345675,6.7111937 2.9650088,6.90625 2.9545885,6.90625 c -0.01042,0 -0.4020081,0.2093956 -0.870195,0.4653234 C 1.6162066,7.6275013 1.1806871,7.858815 1.1165723,7.8856038 L 1,7.9343109 Z M 14.109375,7.4591509 C 13.645312,7.2138641 13.096875,6.9208119 12.890625,6.8079238 12.684375,6.6950356 12.389063,6.5385762 12.234375,6.4602366 12.079688,6.3818969 11.63316,6.1429472 11.242091,5.9292372 L 10.531057,5.5406734 10.976466,5.3049481 C 11.221441,5.1752994 11.576563,4.9883025 11.765625,4.8893994 11.954688,4.7904963 12.338213,4.5845275 12.617903,4.4316909 12.897594,4.2788541 13.228063,4.1031422 13.352278,4.04122 13.52011,3.9575547 14.793735,3.2713259 14.976563,3.1660566 14.989453,3.1586341 15,4.2221412 15,5.5294056 15,6.83667 14.989453,7.9059972 14.976563,7.9056884 14.963672,7.9053759 14.573438,7.7044378 14.109375,7.4591509 Z"
       id="path829"
       inkscape:connector-curvature="0" />
    <path
       style="fill:#fdfd00;stroke-width:0.000357143"
       d="m 1,15 v -1 h 2 2 v 1 1 H 3 1 Z"
       id="path827"
       inkscape:connector-curvature="0" />
    <path
       style="fill:#7e7e7e;stroke-width:0.000357143"
       d="m 11,12 v -1 h 2 2 v 1 1 h -2 -2 z"
       id="path825"
       inkscape:connector-curvature="0" />
    <path
       style="fill:#5900c2;stroke-width:0.000357143"
       d="m 11,15 v -1 h 2 2 v 1 1 h -2 -2 z"
       id="path823"
       inkscape:connector-curvature="0" />
    <path
       style="fill:#7e0000;stroke-width:0.000357143"
       d="m 6,15 v -1 h 2 2 v 1 1 H 8 6 Z"
       id="path821"
       inkscape:connector-curvature="0" />
    <path
       style="fill:#000000;stroke-width:0.000357143"
       d="M 0,5.5 V 1.96875 h 0.5 c 0.416116,0 0.5,0.00761 0.5,0.045346 0,0.02494 0.087891,0.093285 0.1953125,0.1518776 C 1.9983777,2.6040003 2.622274,2.9375 2.6386503,2.9375 c 0.010701,0 0.4092737,0.2131297 0.885716,0.4736213 0.4764421,0.2604915 0.9772828,0.5290621 1.1129787,0.5968234 0.1356959,0.067761 0.4450709,0.2320403 0.6875,0.365065 0.2424291,0.1330247 0.6769847,0.3651715 0.9656791,0.5158819 0.2909593,0.1518925 0.5456212,0.3056446 0.5713943,0.3449793 0.1248247,0.1905066 0.115806,0.4025835 -0.025914,0.60939 C 6.7637119,5.9487537 6.3855069,6.1699344 5.40625,6.6794059 5.1570312,6.8090656 4.728125,7.0376403 4.453125,7.18735 4.178125,7.33706 3.784375,7.5477797 3.578125,7.6556166 2.9055934,8.0072466 2.141321,8.4145097 2.109375,8.43828 2.0921875,8.4510688 1.8287737,8.5897188 1.524011,8.7463913 L 0.96989691,9.03125 H 0.48494847 0 Z M 2.0843935,7.3715734 C 2.5525804,7.1156456 2.9441682,6.90625 2.9545885,6.90625 c 0.01042,0 0.379979,-0.1950563 0.8212412,-0.4334584 C 4.2170922,6.2343894 4.7852816,5.9295044 5.0384731,5.7952697 L 5.4988212,5.5512066 5.3822231,5.4850122 C 5.2386447,5.4035003 4.4591534,4.9861287 3.6875,4.5775875 3.3695313,4.4092434 2.9594889,4.1894881 2.7762948,4.0892422 2.5931007,3.9889966 2.3273892,3.8491806 2.1858248,3.7785403 2.0442604,3.7079 1.7260895,3.5389862 1.4787783,3.4031766 1.2314672,3.2673669 1.0225693,3.15625 1.0145609,3.15625 1.0065524,3.15625 1,4.2313137 1,5.5452803 V 7.9343109 L 1.1165723,7.8856038 C 1.1806871,7.858815 1.6162066,7.6275013 2.0843935,7.3715734 Z M 14.53125,8.7618787 C 14.264844,8.6148309 13.934375,8.4374522 13.796875,8.3677034 13.659375,8.2979547 13.188281,8.0479775 12.75,7.8121984 11.716544,7.2562378 11.163119,6.9606881 10.1875,6.4437266 9.7492188,6.21149 9.3382912,5.9885972 9.2743281,5.9484094 9.1319309,5.8589416 9.0524588,5.7138859 9.0522447,5.543055 9.0519259,5.2880022 9.1067016,5.2405606 9.9078575,4.8020119 10.31088,4.5813994 10.8375,4.2989741 11.078125,4.1744 11.31875,4.0498259 11.827998,3.7768112 12.209787,3.5677006 12.591576,3.3585903 12.913122,3.1875 12.924333,3.1875 c 0.01121,0 0.261338,-0.1316997 0.555838,-0.2926661 0.2945,-0.1609663 0.756938,-0.4082664 1.027642,-0.5495557 C 14.882348,2.1497956 15,2.0740894 15,2.0285693 15,1.972136 15.028302,1.96875 15.5,1.96875 H 16 V 5.5 9.03125 L 15.507813,9.0302438 15.015625,9.0292375 14.53125,8.7618781 Z M 15,5.5294056 C 15,4.2221412 14.98945,3.1586341 14.97656,3.1660566 14.793732,3.2713259 13.520107,3.9575547 13.352275,4.04122 13.22806,4.103142 12.897591,4.2788541 12.6179,4.4316909 c -0.27969,0.1528366 -0.663215,0.3588053 -0.852278,0.4577085 -0.189062,0.098903 -0.544184,0.2859 -0.789159,0.4155487 l -0.445409,0.2357253 0.711034,0.3885638 c 0.391069,0.21371 0.837597,0.4526597 0.992284,0.5309994 0.154688,0.07834 0.45,0.234799 0.65625,0.3476871 0.606929,0.3321944 2.060482,1.097155 2.085938,1.0977647 C 14.989453,7.9060009 15,6.83667 15,5.5294056 Z"
       id="path819"
       inkscape:connector-curvature="0" />
  </g>
</svg>
