<?xml version="1.0" encoding="UTF-8" standalone="no"?>
<!-- Created with Inkscape (http://www.inkscape.org/) -->

<svg
   version="1.1"
   id="svg2"
   width="1600"
   height="1600"
   viewBox="0 0 1600 1600"
   sodipodi:docname="node_lensdistort.svg"
   inkscape:version="1.2.2 (732a01da63, 2022-12-09)"
   xmlns:inkscape="http://www.inkscape.org/namespaces/inkscape"
   xmlns:sodipodi="http://sodipodi.sourceforge.net/DTD/sodipodi-0.dtd"
   xmlns="http://www.w3.org/2000/svg"
   xmlns:svg="http://www.w3.org/2000/svg"
   xmlns:rdf="http://www.w3.org/1999/02/22-rdf-syntax-ns#"
   xmlns:cc="http://creativecommons.org/ns#"
   xmlns:dc="http://purl.org/dc/elements/1.1/">
  <metadata
     id="metadata8">
    <rdf:RDF>
      <cc:Work
         rdf:about="">
        <dc:format>image/svg+xml</dc:format>
        <dc:type
           rdf:resource="http://purl.org/dc/dcmitype/StillImage" />
      </cc:Work>
    </rdf:RDF>
  </metadata>
  <defs
     id="defs6" />
  <sodipodi:namedview
     pagecolor="#808080"
     bordercolor="#666666"
     borderopacity="1"
     objecttolerance="10"
     gridtolerance="10"
     guidetolerance="10"
     inkscape:pageopacity="0"
     inkscape:pageshadow="2"
     inkscape:window-width="2560"
     inkscape:window-height="1009"
     id="namedview4"
     showgrid="false"
     inkscape:zoom="0.5"
     inkscape:cx="440"
     inkscape:cy="1074"
     inkscape:window-x="-8"
     inkscape:window-y="-8"
     inkscape:window-maximized="1"
     inkscape:current-layer="NODE_LENSDISTORT"
     inkscape:showpageshadow="0"
     inkscape:pagecheckerboard="true"
     inkscape:deskcolor="#d1d1d1" />
  <g
     id="NODE_LENSDISTORT"
     transform="matrix(100.07907,0,0,100.07907,0,-1.1800254)"
     style="stroke-width:0.00999213">
    <path
       style="fill:none;stroke-width:0.000312253"
       d="M 0.02083333,15.979167 C 0.009375,15.967708 0,12.384583 0,8.0166666 0,1.8814815 0.00853008,0.06646992 0.0375,0.0375 0.09084754,-0.01584755 15.954393,-0.01726146 15.987359,0.0360784 c 0.0134,0.0216807 0.0086,0.02762176 -0.01199,0.01488738 C 15.956511,0.0393107 14.832942,0.47307544 13.478548,1.0148874 L 11.016016,2 H 8.015625 5.0152344 L 2.5500433,1.0138239 C 1.0587272,0.41723725 0.07355285,0.03894715 0.05625,0.05625 0.03894715,0.07355285 0.41723725,1.0587272 1.0138239,2.5500433 L 2,5.0152344 v 3.0003906 3.000391 l -0.9851126,2.462532 c -0.54181196,1.354394 -0.97691955,2.47579 -0.96690575,2.491993 0.02095863,0.03391 0.0036402,0.03941 -0.02714832,0.0086 z M 2.5623043,15.014188 5.0152334,14.03125 h 3.0003916 3.000392 l 2.452929,0.982938 2.452929,0.982938 H 8.015625 0.109375 Z M 15.007813,13.460412 14.03125,11.015448 V 8.0153406 5.0152334 l 0.982938,-2.4529291 0.982938,-2.4529293 0.0014,7.8984375 c 7.9e-4,4.3441405 -0.0021,7.8982405 -0.0064,7.8980005 -0.0043,-2.5e-4 -0.447265,-1.10067 -0.984375,-2.445401 z"
       id="path825"
       inkscape:connector-curvature="0" />
    <path
       style="fill:#fefefe;stroke-width:0.000312253"
       d="m 0.9375,15.078234 c 0,-0.0085 0.3515625,-0.89452 0.78125,-1.968859 L 2.5,11.156032 V 8.015625 4.8752178 L 1.7172932,2.9182325 C 1.2868044,1.8418905 0.94058497,0.95524834 0.94791666,0.94791666 0.95524834,0.94058497 1.8418905,1.2868044 2.9182325,1.7172932 L 4.8752178,2.5 h 3.1404072 3.140407 l 1.956986,-0.7827068 c 1.076341,-0.4304888 1.962984,-0.77670823 1.970315,-0.76937654 0.0073,0.007332 -0.338887,0.89397384 -0.769376,1.97031584 L 13.53125,4.8752178 v 3.1404072 3.140407 l 0.782707,1.956986 c 0.430489,1.076341 0.776708,1.962984 0.769376,1.970315 -0.0073,0.0073 -0.893974,-0.338887 -1.970315,-0.769376 L 11.156032,13.53125 H 8.015625 4.8752178 L 2.921875,14.3125 c -1.0743386,0.429688 -1.96032516,0.78125 -1.96885897,0.78125 -0.008534,0 -0.015516,-0.007 -0.015516,-0.01552 z M 8.9514219,12.907821 C 10.743288,12.544671 12.159308,11.300044 12.73954,9.5782094 12.926082,9.0246478 12.982973,8.6558153 12.982973,8 c 0,-0.4719403 -0.01269,-0.6412775 -0.06908,-0.9219594 -0.416967,-2.0754753 -1.9799,-3.6190793 -4.054522,-4.0043781 -0.4340447,-0.080611 -1.2847053,-0.080611 -1.71875,0 C 5.3063828,3.4143178 3.8506319,4.6704606 3.2604597,6.4217906 3.0739178,6.9753522 3.0170268,7.3441847 3.0170268,8 c 0,0.4719403 0.012687,0.6412775 0.069077,0.9219594 0.2727398,1.3575796 1.0204276,2.4848556 2.1482714,3.2389126 0.6543878,0.437513 1.3483894,0.687183 2.28125,0.820691 0.2331378,0.03337 1.1361403,-0.01301 1.4357969,-0.07374 z M 6.6876684,7.94977 C 5.97962,7.6924953 5.7728872,6.8193719 6.2961294,6.2961294 6.5014528,6.0908059 6.6872622,6.0171641 7,6.0171641 c 0.3127378,0 0.4985472,0.073642 0.7038706,0.2789653 C 7.9091941,6.5014528 7.9828359,6.6872622 7.9828359,7 c 0,0.3127378 -0.073642,0.4985472 -0.2789653,0.7038706 C 7.4471069,7.9606341 7.0091959,8.0665994 6.6876684,7.94977 Z"
       id="path823"
       inkscape:connector-curvature="0" />
    <path
       style="fill:#98cbfe;stroke-width:0.000312253"
       d="M 7.5625,11.980521 C 5.8128841,11.757808 4.4464812,10.504325 4.0750253,8.78125 c -0.080069,-0.371415 -0.080069,-1.191085 0,-1.5625 C 4.41985,5.61921 5.61921,4.41985 7.21875,4.0750253 c 0.371415,-0.080069 1.191085,-0.080069 1.5625,0 1.59954,0.3448247 2.7989,1.5441847 3.143725,3.1437247 0.08007,0.371415 0.08007,1.191085 0,1.5625 -0.340324,1.578663 -1.514948,2.771235 -3.081225,3.128305 -0.2608869,0.05948 -1.0347784,0.10234 -1.28125,0.07097 z M 8.7233256,10.910744 C 9.8243259,10.62147 10.649577,9.7817472 10.927823,8.6675878 c 0.07422,-0.2972056 0.07422,-1.03797 0,-1.3351756 -0.278115,-1.113636 -1.0890596,-1.9398303 -2.2044974,-2.2459528 -0.3439365,-0.094391 -1.1027147,-0.094391 -1.4466512,0 -1.1154378,0.3061225 -1.9263825,1.1323168 -2.2044978,2.2459528 -0.074223,0.2972056 -0.074223,1.03797 0,1.3351756 0.2968793,1.1887713 1.2139043,2.0604802 2.4072475,2.2882912 0.3099237,0.05916 0.9329737,0.03656 1.2439015,-0.04514 z"
       id="path821"
       inkscape:connector-curvature="0" />
    <path
       style="fill:#323232;stroke-width:0.000312253"
       d="M 1.0041117,13.505348 2,11.016289 V 8.015625 5.0149612 L 1.0006493,2.5172479 C 0.45100647,1.1435056 0.00540177,0.01543156 0.01041667,0.01041667 0.01543156,0.00540177 1.1435056,0.45100647 2.5172479,1.0006493 L 5.0149612,2 H 8.015625 11.016289 L 13.505348,1.0041117 C 15.909356,0.04225344 15.994017,0.01101947 15.982962,0.09004922 15.976666,0.1350534 15.534956,1.2615646 15.001383,2.5934074 L 14.03125,5.0149397 v 3.0005378 3.0005385 l 0.986176,2.465191 c 0.596587,1.491316 0.974877,2.47649 0.957574,2.493793 -0.0173,0.0173 -1.002477,-0.360987 -2.493793,-0.957574 L 11.016016,14.03125 H 8.0154775 5.0149397 l -2.4215323,0.970133 c -1.3318428,0.533573 -2.458354,0.975283 -2.50335818,0.981579 -0.07902975,0.01105 -0.04779578,-0.07361 0.91406248,-2.477614 z m 7.0115133,0.0259 h 3.140756 l 1.979261,0.791826 1.97926,0.791826 -0.791826,-1.97926 -0.791826,-1.979261 V 8.015625 4.8748687 L 14.323076,2.8956082 15.114902,0.91634778 13.135642,1.7081739 11.156381,2.5 H 8.015625 4.8748687 L 2.8956082,1.7081739 0.91634778,0.91634778 1.7081739,2.8956082 2.5,4.8748687 V 8.015625 11.156381 L 1.7081739,13.135642 0.91634778,15.114902 2.8956082,14.323076 4.8748687,13.53125 Z m -0.5,-0.549687 c -0.6819463,-0.0976 -1.1916219,-0.243205 -1.6875,-0.4821 C 4.6115975,11.913386 3.6965644,10.872346 3.2604597,9.5782094 3.0739178,9.0246478 3.0170268,8.6558153 3.0170268,8 c 0,-0.4719403 0.012687,-0.6412775 0.069077,-0.9219594 0.4169661,-2.0754753 1.9798995,-3.6190793 4.0545214,-4.0043781 0.4340447,-0.080611 1.2847053,-0.080611 1.71875,0 C 10.693617,3.4143178 12.149368,4.6704606 12.73954,6.4217906 12.926082,6.9753522 12.982973,7.3441847 12.982973,8 c 0,0.4719403 -0.01269,0.6412775 -0.06908,0.9219594 -0.410595,2.0437626 -1.932258,3.5744066 -3.9624751,3.9858616 -0.2996566,0.06073 -1.2026591,0.107108 -1.4357969,0.07374 z M 8.84375,11.909555 c 1.566277,-0.35707 2.740901,-1.549642 3.081225,-3.128305 0.08007,-0.371415 0.08007,-1.191085 0,-1.5625 C 11.58015,5.61921 10.38079,4.41985 8.78125,4.0750253 c -0.371415,-0.080069 -1.191085,-0.080069 -1.5625,0 C 5.61921,4.41985 4.41985,5.61921 4.0750253,7.21875 c -0.080069,0.371415 -0.080069,1.191085 0,1.5625 0.3033266,1.407042 1.2760194,2.521326 2.6124747,2.992763 0.2456016,0.08664 0.6112716,0.172937 0.875,0.206508 0.2464716,0.03137 1.0203631,-0.01149 1.28125,-0.07097 z M 7.4794241,10.955879 C 6.8391219,10.833644 6.2811547,10.532683 5.8413031,10.072296 5.46529,9.6787272 5.2067906,9.2066125 5.0721766,8.6675878 c -0.074223,-0.2972056 -0.074223,-1.03797 0,-1.3351756 0.2781153,-1.113636 1.08906,-1.9398303 2.2044978,-2.2459528 0.3439365,-0.094391 1.1027147,-0.094391 1.4466512,0 1.1154378,0.3061225 1.9263824,1.1323168 2.2044974,2.2459528 0.07422,0.2972056 0.07422,1.03797 0,1.3351756 -0.278246,1.1141594 -1.1034971,1.9538822 -2.2044974,2.2431562 -0.3109278,0.08169 -0.9339778,0.104299 -1.2439015,0.04514 z M 7.421875,7.9037631 C 7.6195566,7.8099553 7.8077534,7.6227156 7.9062262,7.421875 c 0.1099947,-0.22434 0.1099947,-0.61941 0,-0.84375 C 7.808545,6.3788991 7.6211009,6.191455 7.421875,6.0937738 c -0.22434,-0.1099947 -0.61941,-0.1099947 -0.84375,0 C 5.7657991,6.49206 5.8335172,7.6394078 6.6876684,7.94977 c 0.197215,0.071659 0.53022,0.050793 0.7342066,-0.046007 z"
       id="path819"
       inkscape:connector-curvature="0" />
  </g>
</svg>
