<?xml version="1.0" encoding="UTF-8" standalone="no"?>
<!-- Created with Inkscape (http://www.inkscape.org/) -->

<svg
   version="1.1"
   id="svg2"
   width="1600"
   height="1600"
   viewBox="0 0 1600 1600"
   sodipodi:docname="node_samplegrid.svg"
   inkscape:version="1.4 (86a8ad7, 2024-10-11)"
   inkscape:export-filename="VOLUME_CUBE.png"
   inkscape:export-xdpi="3072"
   inkscape:export-ydpi="3072"
   xml:space="preserve"
   xmlns:inkscape="http://www.inkscape.org/namespaces/inkscape"
   xmlns:sodipodi="http://sodipodi.sourceforge.net/DTD/sodipodi-0.dtd"
   xmlns="http://www.w3.org/2000/svg"
   xmlns:svg="http://www.w3.org/2000/svg"
   xmlns:rdf="http://www.w3.org/1999/02/22-rdf-syntax-ns#"
   xmlns:cc="http://creativecommons.org/ns#"
   xmlns:dc="http://purl.org/dc/elements/1.1/"><metadata
     id="metadata8"><rdf:RDF><cc:Work
         rdf:about=""><dc:format>image/svg+xml</dc:format><dc:type
           rdf:resource="http://purl.org/dc/dcmitype/StillImage" /></cc:Work></rdf:RDF></metadata><defs
     id="defs6" /><sodipodi:namedview
     pagecolor="#808080"
     bordercolor="#666666"
     borderopacity="1"
     objecttolerance="10"
     gridtolerance="10"
     guidetolerance="10"
     inkscape:pageopacity="0"
     inkscape:pageshadow="2"
     inkscape:window-width="1920"
     inkscape:window-height="1009"
     id="namedview4"
     showgrid="true"
     inkscape:zoom="0.32593203"
     inkscape:cx="740.95203"
     inkscape:cy="1230.3179"
     inkscape:window-x="-8"
     inkscape:window-y="-8"
     inkscape:window-maximized="1"
     inkscape:current-layer="MESH_CUBE"
     inkscape:showpageshadow="0"
     inkscape:pagecheckerboard="1"
     inkscape:deskcolor="#d1d1d1"><inkscape:grid
       type="xygrid"
       id="grid10683"
       originx="0"
       originy="0"
       spacingy="100"
       spacingx="100"
       units="px" /></sodipodi:namedview><g
     id="MESH_CUBE"
     transform="matrix(100,0,0,100,0,4.9999997e-5)"
     style="display:inline;stroke-width:0.0114286;enable-background:new"
     inkscape:label="VOLUME_CUBE"><g
       id="g3"
       transform="matrix(1.0013818,0,0,1.0013818,-1.3328775,-1.3301024)"
       inkscape:label="Grid"
       style="display:inline;stroke-width:0.0114128;enable-background:new"><path
         id="rect1"
         style="baseline-shift:baseline;display:inline;overflow:visible;vector-effect:none;fill:#323232;stroke-width:0.0114128;stroke-linecap:round;stroke-linejoin:round;paint-order:markers stroke fill;enable-background:accumulate;stop-color:#000000;stop-opacity:1"
         d="M 4.1230891,2.3199999 H 14.516912 c 0.998911,0 1.803088,0.8041776 1.803088,1.8030887 V 14.516911 C 16.32,15.515822 15.515823,16.32 14.516912,16.32 H 4.1230891 C 3.124178,16.32 2.3200004,15.515822 2.3200004,14.516911 V 4.1230886 c 0,-0.9989111 0.8041776,-1.8030887 1.8030887,-1.8030887 z" /><g
         id="rect2-2-5-7"
         transform="matrix(1.0716036,0,0,1.0716036,-0.77860787,-0.66768013)"
         style="stroke-width:0.0106502" /><g
         id="rect2-2-5-7-2"
         transform="matrix(1.0716036,0,0,1.0716036,-0.61860782,-0.66768013)"
         style="stroke-width:0.0106502" /><g
         id="rect2-2-5-7-2-7"
         transform="matrix(1.0716036,0,0,1.0716036,-0.61860782,-0.66768013)"
         style="stroke-width:0.0106502" /><g
         id="rect2-2-5-7-2-7-9"
         transform="matrix(1.0716036,0,0,1.0716036,-0.64256442,-0.66768013)"
         style="stroke-width:0.0106502" /><path
         id="path4"
         style="display:inline;fill:#0065fe;fill-opacity:1;stroke-width:0.0106502;stroke-linecap:round;stroke-linejoin:round;paint-order:markers stroke fill;enable-background:new"
         transform="matrix(1.0716036,0,0,1.0716036,-0.64256442,-0.6676801)"
         d="m 4.8242187,9.3203125 c -0.8957377,0 -1.6308593,0.7370745 -1.6308593,1.6328125 V 13.6875 c 0,0.895738 0.7351216,1.632812 1.6308593,1.632813 h 2.8398438 c 0.8957377,0 1.6328125,-0.737075 1.6328125,-1.632813 v -2.734375 c 0,-0.895738 -0.7370748,-1.6328125 -1.6328125,-1.6328125 z m 0,1.0000005 h 2.8398438 c 0.3590371,0 0.6328125,0.273775 0.6328125,0.632812 V 13.6875 c 0,0.359037 -0.2737754,0.632813 -0.6328125,0.632813 H 4.8242187 c -0.359037,0 -0.6308593,-0.273776 -0.6308593,-0.632813 v -2.734375 c 0,-0.359037 0.2718223,-0.632813 0.6308593,-0.632812 z M 10.922747,9.3203125 c -0.895738,0 -1.6328131,0.7370745 -1.6328131,1.6328125 V 13.6875 c 0,0.895738 0.7370751,1.632812 1.6328131,1.632813 h 2.839843 c 0.895738,0 1.632813,-0.737075 1.632813,-1.632813 v -2.734375 c 0,-0.895738 -0.737075,-1.6328125 -1.632813,-1.6328125 z m 0,1.0000005 h 2.839843 c 0.359037,0 0.632813,0.273775 0.632813,0.632812 V 13.6875 c 0,0.359037 -0.273776,0.632813 -0.632813,0.632813 h -2.839843 c -0.359037,0 -0.632813,-0.273776 -0.632813,-0.632813 v -2.734375 c 0,-0.359037 0.273776,-0.632813 0.632813,-0.632812 z m 0,-7.0000005 c -0.895738,0 -1.6328131,0.7370748 -1.6328131,1.6328125 V 7.6875 c 0,0.8957377 0.7370751,1.6328125 1.6328131,1.6328125 h 2.839843 c 0.895738,0 1.632813,-0.7370748 1.632813,-1.6328125 V 4.953125 c 0,-0.8957377 -0.737075,-1.6328125 -1.632813,-1.6328125 z m 0,1 h 2.839843 c 0.359037,0 0.632813,0.2737753 0.632813,0.6328125 V 7.6875 c 0,0.3590372 -0.273776,0.6328125 -0.632813,0.6328125 h -2.839843 c -0.359037,0 -0.632813,-0.2737753 -0.632813,-0.6328125 V 4.953125 c 0,-0.3590372 0.273776,-0.6328125 0.632813,-0.6328125 z m -6.0965751,-1 c -0.8957377,0 -1.6328125,0.7370748 -1.6328125,1.6328125 V 7.6875 c 0,0.8957377 0.7370748,1.6328125 1.6328125,1.6328125 h 2.8398437 c 0.8957378,0 1.6308594,-0.7370748 1.6308594,-1.6328125 V 4.953125 c 0,-0.8957377 -0.7351216,-1.6328125 -1.6308594,-1.6328125 z m 0,1 h 2.8398437 c 0.3590371,0 0.6308594,0.2737753 0.6308594,0.6328125 V 7.6875 c 0,0.3590372 -0.2718223,0.6328125 -0.6308594,0.6328125 H 4.8261719 C 4.4671348,8.3203125 4.1933594,8.0465372 4.1933594,7.6875 V 4.953125 c 0,-0.3590372 0.2737754,-0.6328125 0.6328125,-0.6328125 z" /><path
         id="path5"
         style="display:inline;fill:#98cbfe;fill-opacity:1;stroke-width:0.0106502;stroke-linecap:round;stroke-linejoin:round;paint-order:markers stroke fill;enable-background:new"
         transform="matrix(1.0716036,0,0,1.0716036,-0.64256442,-0.6676801)"
         d="m 4.8250043,9.8199978 h 2.8396154 c 0.6273874,0 1.1324682,0.5050812 1.1324682,1.1324682 v 2.735067 c 0,0.627388 -0.5050808,1.132469 -1.1324682,1.132469 H 4.8250043 c -0.6273874,0 -1.1324682,-0.505081 -1.1324682,-1.132469 v -2.735067 c 0,-0.627387 0.5050808,-1.1324682 1.1324682,-1.1324682 z m 6.0975437,0 h 2.839616 c 0.627387,0 1.132468,0.5050812 1.132468,1.1324682 v 2.735067 c 0,0.627388 -0.505081,1.132469 -1.132468,1.132469 h -2.839616 c -0.627387,0 -1.1324682,-0.505081 -1.1324682,-1.132469 v -2.735067 c 0,-0.627387 0.5050812,-1.1324682 1.1324682,-1.1324682 z m 0,-6 h 2.839616 c 0.627387,0 1.132468,0.5050809 1.132468,1.1324683 v 2.7350672 c 0,0.6273874 -0.505081,1.1324683 -1.132468,1.1324683 h -2.839616 c -0.627387,0 -1.1324682,-0.5050809 -1.1324682,-1.1324683 V 4.9524661 c 0,-0.6273874 0.5050812,-1.1324683 1.1324682,-1.1324683 z m -6.0970346,0 h 2.8396153 c 0.6273874,0 1.1324683,0.5050809 1.1324683,1.1324683 v 2.7350672 c 0,0.6273874 -0.5050809,1.1324683 -1.1324683,1.1324683 H 4.8255134 c -0.6273874,0 -1.1324682,-0.5050809 -1.1324682,-1.1324683 V 4.9524661 c 0,-0.6273874 0.5050808,-1.1324683 1.1324682,-1.1324683 z" /></g><path
       inkscape:connector-curvature="0"
       id="path827-666"
       d="M 5e-7,7.999999 V -4.9999997e-7 h 8 H 16 V 7.999999 16 h -7.9999995 -8 z M 11.326468,14.00029 c 3.319701,-1.106746 3.322551,-1.107867 3.511039,-1.381855 0.206207,-0.299746 0.193743,-0.0036 0.193743,-4.602811 0,-4.599182 0.01246,-4.303064 -0.193743,-4.60281 C 14.649019,3.138827 14.646169,3.137705 11.326468,2.030959 8.4439655,1.0699698 8.2195475,1.0000953 8.0156255,1.0000953 c -0.203923,0 -0.42834,0.069875 -3.310842,1.0308637 -3.319702,1.106746 -3.322552,1.107868 -3.511039,1.381855 -0.206208,0.299746 -0.193744,0.0036 -0.193744,4.60281 0,4.599184 -0.01246,4.303065 0.193744,4.602811 0.188487,0.273988 0.191337,0.275109 3.511039,1.381855 2.882502,0.96099 3.106919,1.030864 3.310842,1.030864 0.203923,0 0.42834,-0.06987 3.3108425,-1.030864 z"
       style="display:inline;fill:#ffffff;fill-opacity:0;stroke-width:0.000357143;enable-background:new" /><g
       id="SAMPLE_NEAREST"
       style="display:inline;stroke-width:0.0114286;enable-background:new"
       transform="rotate(90,5.4942117,7.1304821)"><path
         style="fill:#fefe00;stroke-width:0.000357143"
         d="M 2.984375,9.4969731 2.890625,9.4950325 2.695708,9.4526853 2.500791,9.4103378 2.3059599,9.3067322 2.1111289,9.2031263 1.9498351,9.04203 1.7885412,8.8809338 1.6787118,8.6613978 1.5688825,8.4418619 1.5316177,8.2209316 1.494353,8 1.5316177,7.7790697 1.5688825,7.5581394 1.6787118,7.3386034 1.7885412,7.1190675 1.9538043,6.9538044 2.1190674,6.7885412 2.3386035,6.6787119 2.5581395,6.5688825 2.7790698,6.5316178 3,6.4943531 3.2209303,6.5316181 3.4418606,6.5688831 3.6613966,6.6787125 3.8809325,6.7885418 4.0461956,6.953805 4.2114587,7.1190681 4.3212881,7.338604 4.4311175,7.55814 4.4683825,7.7790703 4.5056469,8 4.4683822,8.2209303 4.4311175,8.4418606 4.3212881,8.6613966 4.2114587,8.8809325 4.050165,9.0420288 3.8888712,9.203125 3.6950544,9.30619 3.5012378,9.4092553 3.2896816,9.454085 3.078125,9.4989147 2.984375,9.4969741 Z"
         id="path305" /><path
         style="fill:#323232;stroke-width:0.000357143"
         d="M 2.984375,9.9969731 2.765625,9.9950325 2.5625,9.9514066 2.359375,9.9077803 2.0948078,9.777155 1.8302406,9.6465297 1.5918561,9.4081453 1.3534716,9.1697606 1.2230479,8.9051934 1.0926243,8.6406262 l -0.04577,-0.21875 -0.04577,-0.21875 v -0.203125 -0.203125 l 0.04577,-0.21875 0.04577,-0.21875 L 1.2230479,7.0948091 1.3534716,6.8302419 1.5918561,6.5918572 1.8302406,6.3534728 2.0948078,6.2230491 2.359375,6.0926256 l 0.21875,-0.04577 0.21875,-0.045769 H 3 3.203125 l 0.21875,0.045769 0.21875,0.04577 0.2645672,0.1304235 0.2645672,0.1304237 0.2383847,0.2383844 0.2383843,0.2383847 0.1304238,0.2645672 0.1304234,0.2645671 0.04577,0.21875 0.045769,0.21875 v 0.203125 0.203125 l -0.045769,0.21875 -0.04577,0.21875 L 4.7769522,8.9051934 4.6465284,9.1697606 4.4081441,9.4081453 4.1697594,9.6465297 3.9051922,9.7769534 3.640625,9.9073769 l -0.21875,0.04577 -0.21875,0.045769 -0.21875,-0.00194 z m 0,-0.5 0.09375,0.00194 0.2115566,-0.04483 0.2115562,-0.04483 L 3.6950544,9.3061891 3.8888713,9.2031241 4.050165,9.0420278 4.2114587,8.8809316 4.3212881,8.6613956 4.4311175,8.4418597 4.4683822,8.2209294 4.5056469,7.9999991 4.4683822,7.7790687 4.4311175,7.5581384 4.3212881,7.3386025 4.2114587,7.1190666 4.0461956,6.9538034 3.8809325,6.7885403 3.6613966,6.6787109 3.4418606,6.5688816 3.2209303,6.5316169 3,6.4943531 2.7790698,6.5316178 2.5581395,6.5688825 2.3386035,6.6787119 2.1190674,6.7885412 1.9538043,6.9538044 1.7885413,7.1190675 1.6787118,7.3386034 1.5688825,7.5581394 1.5316178,7.7790697 1.494353,8 l 0.037265,0.2209303 0.037265,0.2209303 0.1098293,0.219536 0.1098294,0.2195359 0.1612939,0.1610963 0.1612938,0.1610962 0.194831,0.1036059 0.1948311,0.1036057 0.194917,0.042347 0.194917,0.042347 0.09375,0.00194 z"
         id="path297"
         sodipodi:nodetypes="cccccccccccccccccccccccccccccccccccccccccccccccccccccccccccccccccccccccccccccccccccccccccccccc" /></g><g
       id="SAMPLE_NEAREST-5"
       style="display:inline;stroke-width:0.0114286;enable-background:new"
       transform="rotate(90,8.8464926,10.482763)"><path
         style="fill:#fefe00;stroke-width:0.000357143"
         d="M 2.984375,9.4969731 2.890625,9.4950325 2.695708,9.4526853 2.500791,9.4103378 2.3059599,9.3067322 2.1111289,9.2031263 1.9498351,9.04203 1.7885412,8.8809338 1.6787118,8.6613978 1.5688825,8.4418619 1.5316177,8.2209316 1.494353,8 1.5316177,7.7790697 1.5688825,7.5581394 1.6787118,7.3386034 1.7885412,7.1190675 1.9538043,6.9538044 2.1190674,6.7885412 2.3386035,6.6787119 2.5581395,6.5688825 2.7790698,6.5316178 3,6.4943531 3.2209303,6.5316181 3.4418606,6.5688831 3.6613966,6.6787125 3.8809325,6.7885418 4.0461956,6.953805 4.2114587,7.1190681 4.3212881,7.338604 4.4311175,7.55814 4.4683825,7.7790703 4.5056469,8 4.4683822,8.2209303 4.4311175,8.4418606 4.3212881,8.6613966 4.2114587,8.8809325 4.050165,9.0420288 3.8888712,9.203125 3.6950544,9.30619 3.5012378,9.4092553 3.2896816,9.454085 3.078125,9.4989147 2.984375,9.4969741 Z"
         id="path305-1" /><path
         style="fill:#323232;stroke-width:0.000357143"
         d="M 2.984375,9.9969731 2.765625,9.9950325 2.5625,9.9514066 2.359375,9.9077803 2.0948078,9.777155 1.8302406,9.6465297 1.5918561,9.4081453 1.3534716,9.1697606 1.2230479,8.9051934 1.0926243,8.6406262 l -0.04577,-0.21875 -0.04577,-0.21875 v -0.203125 -0.203125 l 0.04577,-0.21875 0.04577,-0.21875 L 1.2230479,7.0948091 1.3534716,6.8302419 1.5918561,6.5918572 1.8302406,6.3534728 2.0948078,6.2230491 2.359375,6.0926256 l 0.21875,-0.04577 0.21875,-0.045769 H 3 3.203125 l 0.21875,0.045769 0.21875,0.04577 0.2645672,0.1304235 0.2645672,0.1304237 0.2383847,0.2383844 0.2383843,0.2383847 0.1304238,0.2645672 0.1304234,0.2645671 0.04577,0.21875 0.045769,0.21875 v 0.203125 0.203125 l -0.045769,0.21875 -0.04577,0.21875 L 4.7769522,8.9051934 4.6465284,9.1697606 4.4081441,9.4081453 4.1697594,9.6465297 3.9051922,9.7769534 3.640625,9.9073769 l -0.21875,0.04577 -0.21875,0.045769 -0.21875,-0.00194 z m 0,-0.5 0.09375,0.00194 0.2115566,-0.04483 0.2115562,-0.04483 L 3.6950544,9.3061891 3.8888713,9.2031241 4.050165,9.0420278 4.2114587,8.8809316 4.3212881,8.6613956 4.4311175,8.4418597 4.4683822,8.2209294 4.5056469,7.9999991 4.4683822,7.7790687 4.4311175,7.5581384 4.3212881,7.3386025 4.2114587,7.1190666 4.0461956,6.9538034 3.8809325,6.7885403 3.6613966,6.6787109 3.4418606,6.5688816 3.2209303,6.5316169 3,6.4943531 2.7790698,6.5316178 2.5581395,6.5688825 2.3386035,6.6787119 2.1190674,6.7885412 1.9538043,6.9538044 1.7885413,7.1190675 1.6787118,7.3386034 1.5688825,7.5581394 1.5316178,7.7790697 1.494353,8 l 0.037265,0.2209303 0.037265,0.2209303 0.1098293,0.219536 0.1098294,0.2195359 0.1612939,0.1610963 0.1612938,0.1610962 0.194831,0.1036059 0.1948311,0.1036057 0.194917,0.042347 0.194917,0.042347 0.09375,0.00194 z"
         id="path297-7"
         sodipodi:nodetypes="cccccccccccccccccccccccccccccccccccccccccccccccccccccccccccccccccccccccccccccccccccccccccccccc" /></g><g
       id="SAMPLE_NEAREST-5-1"
       style="display:inline;stroke-width:0.0114286;enable-background:new"
       transform="rotate(90,5.5199893,13.812634)"><path
         style="fill:#fefe00;stroke-width:0.000357143"
         d="M 2.984375,9.4969731 2.890625,9.4950325 2.695708,9.4526853 2.500791,9.4103378 2.3059599,9.3067322 2.1111289,9.2031263 1.9498351,9.04203 1.7885412,8.8809338 1.6787118,8.6613978 1.5688825,8.4418619 1.5316177,8.2209316 1.494353,8 1.5316177,7.7790697 1.5688825,7.5581394 1.6787118,7.3386034 1.7885412,7.1190675 1.9538043,6.9538044 2.1190674,6.7885412 2.3386035,6.6787119 2.5581395,6.5688825 2.7790698,6.5316178 3,6.4943531 3.2209303,6.5316181 3.4418606,6.5688831 3.6613966,6.6787125 3.8809325,6.7885418 4.0461956,6.953805 4.2114587,7.1190681 4.3212881,7.338604 4.4311175,7.55814 4.4683825,7.7790703 4.5056469,8 4.4683822,8.2209303 4.4311175,8.4418606 4.3212881,8.6613966 4.2114587,8.8809325 4.050165,9.0420288 3.8888712,9.203125 3.6950544,9.30619 3.5012378,9.4092553 3.2896816,9.454085 3.078125,9.4989147 2.984375,9.4969741 Z"
         id="path305-1-1" /><path
         style="fill:#323232;stroke-width:0.000357143"
         d="M 2.984375,9.9969731 2.765625,9.9950325 2.5625,9.9514066 2.359375,9.9077803 2.0948078,9.777155 1.8302406,9.6465297 1.5918561,9.4081453 1.3534716,9.1697606 1.2230479,8.9051934 1.0926243,8.6406262 l -0.04577,-0.21875 -0.04577,-0.21875 v -0.203125 -0.203125 l 0.04577,-0.21875 0.04577,-0.21875 L 1.2230479,7.0948091 1.3534716,6.8302419 1.5918561,6.5918572 1.8302406,6.3534728 2.0948078,6.2230491 2.359375,6.0926256 l 0.21875,-0.04577 0.21875,-0.045769 H 3 3.203125 l 0.21875,0.045769 0.21875,0.04577 0.2645672,0.1304235 0.2645672,0.1304237 0.2383847,0.2383844 0.2383843,0.2383847 0.1304238,0.2645672 0.1304234,0.2645671 0.04577,0.21875 0.045769,0.21875 v 0.203125 0.203125 l -0.045769,0.21875 -0.04577,0.21875 L 4.7769522,8.9051934 4.6465284,9.1697606 4.4081441,9.4081453 4.1697594,9.6465297 3.9051922,9.7769534 3.640625,9.9073769 l -0.21875,0.04577 -0.21875,0.045769 -0.21875,-0.00194 z m 0,-0.5 0.09375,0.00194 0.2115566,-0.04483 0.2115562,-0.04483 L 3.6950544,9.3061891 3.8888713,9.2031241 4.050165,9.0420278 4.2114587,8.8809316 4.3212881,8.6613956 4.4311175,8.4418597 4.4683822,8.2209294 4.5056469,7.9999991 4.4683822,7.7790687 4.4311175,7.5581384 4.3212881,7.3386025 4.2114587,7.1190666 4.0461956,6.9538034 3.8809325,6.7885403 3.6613966,6.6787109 3.4418606,6.5688816 3.2209303,6.5316169 3,6.4943531 2.7790698,6.5316178 2.5581395,6.5688825 2.3386035,6.6787119 2.1190674,6.7885412 1.9538043,6.9538044 1.7885413,7.1190675 1.6787118,7.3386034 1.5688825,7.5581394 1.5316178,7.7790697 1.494353,8 l 0.037265,0.2209303 0.037265,0.2209303 0.1098293,0.219536 0.1098294,0.2195359 0.1612939,0.1610963 0.1612938,0.1610962 0.194831,0.1036059 0.1948311,0.1036057 0.194917,0.042347 0.194917,0.042347 0.09375,0.00194 z"
         id="path297-7-5"
         sodipodi:nodetypes="cccccccccccccccccccccccccccccccccccccccccccccccccccccccccccccccccccccccccccccccccccccccccccccc" /></g><g
       id="SAMPLE_NEAREST-5-1-2"
       style="display:inline;stroke-width:0.0114286;enable-background:new"
       transform="rotate(90,2.1677082,10.460353)"><path
         style="fill:#fefe00;stroke-width:0.000357143"
         d="M 2.984375,9.4969731 2.890625,9.4950325 2.695708,9.4526853 2.500791,9.4103378 2.3059599,9.3067322 2.1111289,9.2031263 1.9498351,9.04203 1.7885412,8.8809338 1.6787118,8.6613978 1.5688825,8.4418619 1.5316177,8.2209316 1.494353,8 1.5316177,7.7790697 1.5688825,7.5581394 1.6787118,7.3386034 1.7885412,7.1190675 1.9538043,6.9538044 2.1190674,6.7885412 2.3386035,6.6787119 2.5581395,6.5688825 2.7790698,6.5316178 3,6.4943531 3.2209303,6.5316181 3.4418606,6.5688831 3.6613966,6.6787125 3.8809325,6.7885418 4.0461956,6.953805 4.2114587,7.1190681 4.3212881,7.338604 4.4311175,7.55814 4.4683825,7.7790703 4.5056469,8 4.4683822,8.2209303 4.4311175,8.4418606 4.3212881,8.6613966 4.2114587,8.8809325 4.050165,9.0420288 3.8888712,9.203125 3.6950544,9.30619 3.5012378,9.4092553 3.2896816,9.454085 3.078125,9.4989147 2.984375,9.4969741 Z"
         id="path305-1-1-7" /><path
         style="fill:#323232;stroke-width:0.000357143"
         d="M 2.984375,9.9969731 2.765625,9.9950325 2.5625,9.9514066 2.359375,9.9077803 2.0948078,9.777155 1.8302406,9.6465297 1.5918561,9.4081453 1.3534716,9.1697606 1.2230479,8.9051934 1.0926243,8.6406262 l -0.04577,-0.21875 -0.04577,-0.21875 v -0.203125 -0.203125 l 0.04577,-0.21875 0.04577,-0.21875 L 1.2230479,7.0948091 1.3534716,6.8302419 1.5918561,6.5918572 1.8302406,6.3534728 2.0948078,6.2230491 2.359375,6.0926256 l 0.21875,-0.04577 0.21875,-0.045769 H 3 3.203125 l 0.21875,0.045769 0.21875,0.04577 0.2645672,0.1304235 0.2645672,0.1304237 0.2383847,0.2383844 0.2383843,0.2383847 0.1304238,0.2645672 0.1304234,0.2645671 0.04577,0.21875 0.045769,0.21875 v 0.203125 0.203125 l -0.045769,0.21875 -0.04577,0.21875 L 4.7769522,8.9051934 4.6465284,9.1697606 4.4081441,9.4081453 4.1697594,9.6465297 3.9051922,9.7769534 3.640625,9.9073769 l -0.21875,0.04577 -0.21875,0.045769 -0.21875,-0.00194 z m 0,-0.5 0.09375,0.00194 0.2115566,-0.04483 0.2115562,-0.04483 L 3.6950544,9.3061891 3.8888713,9.2031241 4.050165,9.0420278 4.2114587,8.8809316 4.3212881,8.6613956 4.4311175,8.4418597 4.4683822,8.2209294 4.5056469,7.9999991 4.4683822,7.7790687 4.4311175,7.5581384 4.3212881,7.3386025 4.2114587,7.1190666 4.0461956,6.9538034 3.8809325,6.7885403 3.6613966,6.6787109 3.4418606,6.5688816 3.2209303,6.5316169 3,6.4943531 2.7790698,6.5316178 2.5581395,6.5688825 2.3386035,6.6787119 2.1190674,6.7885412 1.9538043,6.9538044 1.7885413,7.1190675 1.6787118,7.3386034 1.5688825,7.5581394 1.5316178,7.7790697 1.494353,8 l 0.037265,0.2209303 0.037265,0.2209303 0.1098293,0.219536 0.1098294,0.2195359 0.1612939,0.1610963 0.1612938,0.1610962 0.194831,0.1036059 0.1948311,0.1036057 0.194917,0.042347 0.194917,0.042347 0.09375,0.00194 z"
         id="path297-7-5-6"
         sodipodi:nodetypes="cccccccccccccccccccccccccccccccccccccccccccccccccccccccccccccccccccccccccccccccccccccccccccccc" /></g></g></svg>
