<?xml version="1.0" encoding="UTF-8" standalone="no"?>
<!-- Created with Inkscape (http://www.inkscape.org/) -->

<svg
   version="1.1"
   id="svg2"
   width="1600"
   height="1600"
   viewBox="0 0 1600 1600"
   sodipodi:docname="node_value.svg"
   inkscape:version="1.2.2 (732a01da63, 2022-12-09)"
   xmlns:inkscape="http://www.inkscape.org/namespaces/inkscape"
   xmlns:sodipodi="http://sodipodi.sourceforge.net/DTD/sodipodi-0.dtd"
   xmlns="http://www.w3.org/2000/svg"
   xmlns:svg="http://www.w3.org/2000/svg"
   xmlns:rdf="http://www.w3.org/1999/02/22-rdf-syntax-ns#"
   xmlns:cc="http://creativecommons.org/ns#"
   xmlns:dc="http://purl.org/dc/elements/1.1/">
  <metadata
     id="metadata8">
    <rdf:RDF>
      <cc:Work
         rdf:about="">
        <dc:format>image/svg+xml</dc:format>
        <dc:type
           rdf:resource="http://purl.org/dc/dcmitype/StillImage" />
      </cc:Work>
    </rdf:RDF>
  </metadata>
  <defs
     id="defs6" />
  <sodipodi:namedview
     pagecolor="#808080"
     bordercolor="#666666"
     borderopacity="1"
     objecttolerance="10"
     gridtolerance="10"
     guidetolerance="10"
     inkscape:pageopacity="0"
     inkscape:pageshadow="2"
     inkscape:window-width="1993"
     inkscape:window-height="1009"
     id="namedview4"
     showgrid="false"
     inkscape:zoom="0.5"
     inkscape:cx="9"
     inkscape:cy="8"
     inkscape:window-x="-8"
     inkscape:window-y="-8"
     inkscape:window-maximized="1"
     inkscape:current-layer="NODE_VALUE"
     inkscape:showpageshadow="0"
     inkscape:pagecheckerboard="true"
     inkscape:deskcolor="#d1d1d1" />
  <g
     id="NODE_VALUE"
     transform="matrix(100,0,0,100,0,4.9999997e-5)"
     style="stroke-width:0.0114286">
    <path
       style="fill:none;stroke-width:0.000357143"
       d="M 0,8 V 0 h 8 8 v 8 8 H 8 0 Z m 4.0950366,5.404454 C 3.056102,11.277094 3.0559007,9.3166341 4.0943956,7.1640625 L 4.3092337,6.71875 3.7249294,6.7187812 3.140625,6.7188125 2.9306978,7.0859678 c -1.2806241,2.2397666 -1.2806254,4.1508462 -4.4e-6,6.3905602 l 0.2099316,0.367156 0.5844747,3.1e-5 0.5844747,3.1e-5 -0.2145378,-0.439295 z m 8.9372414,0.243984 C 13.212438,13.36567 13.602934,12.56475 13.73197,12.213346 14.261484,10.771324 14.201038,9.3871494 13.543233,7.8913841 13.410245,7.5889863 13.084177,6.9792578 12.962093,6.8046875 L 12.901994,6.71875 H 12.32805 11.754105 l 0.213723,0.4453125 c 1.04229,2.1717081 1.04229,4.0626665 0,6.2343755 l -0.213723,0.445312 h 0.576867 0.576866 z M 7.3430644,11.782089 c 0.369154,-0.548351 0.6731684,-0.99435 0.6755872,-0.991108 0.00242,0.0032 0.2958184,0.4348 0.6519993,0.959019 0.356181,0.524219 0.6646394,0.970955 0.6854632,0.992747 0.029004,0.03035 0.2172418,0.03766 0.8046209,0.03125 l 0.76676,-0.0084 L 9.9201381,11.281558 8.9127816,9.7974909 9.4617144,8.9846828 C 9.7636275,8.5376384 10.199137,7.8938969 10.429513,7.5541459 l 0.418866,-0.6177287 -0.791377,0.00835 -0.791377,0.00835 -0.5870453,0.875 C 8.355705,8.309375 8.0739797,8.7293825 8.0525237,8.7614747 8.0176656,8.8136134 7.946085,8.7196434 7.3800531,7.8786622 L 6.7465931,6.9375 H 5.9651906 5.1837878 l 0.3871941,0.5703125 c 0.2129568,0.3136719 0.6481368,0.9570734 0.9670672,1.4297816 l 0.5798731,0.859469 -0.5825541,0.8592809 c -0.320405,0.472604 -0.7760847,1.144047 -1.0126219,1.492094 l -0.4300675,0.632812 0.7895982,-0.0011 0.7895981,-0.0011 z"
       id="path821"
       inkscape:connector-curvature="0" />
    <path
       style="fill:#fefefe;stroke-width:0.000357143"
       d="M 2.9306934,13.47653 C 1.6500724,11.236816 1.6500737,9.3257363 2.9306978,7.0859697 L 3.140625,6.7188144 3.7249294,6.7187831 4.3092337,6.7187519 4.0943956,7.1640644 C 3.0559007,9.3166359 3.056102,11.277096 4.0950362,13.404456 l 0.2145382,0.439294 -0.5844747,-3.2e-5 -0.5844747,-3.2e-5 z m 9.0371346,-0.07809 c 1.04229,-2.171709 1.04229,-4.0626674 0,-6.2343755 L 11.754105,6.71875 h 0.573945 0.573944 l 0.0601,0.085937 c 0.122084,0.1745703 0.448152,0.7842987 0.58114,1.0866966 0.657805,1.4957653 0.718251,2.8799404 0.188737,4.3219614 -0.129036,0.351405 -0.519532,1.152324 -0.699692,1.435093 l -0.12444,0.195312 h -0.576866 -0.576867 z m -6.4450818,-1.25 C 5.7592834,11.800393 6.2149631,11.12895 6.5353681,10.656346 L 7.1179222,9.7970631 6.5380491,8.9375941 C 6.2191187,8.4648859 5.7839387,7.8214844 5.5709819,7.5078125 L 5.1837878,6.9375 h 0.7814028 0.7814025 l 0.63346,0.9411622 C 7.946085,8.7196434 8.0176656,8.8136134 8.0525238,8.7614747 8.0739797,8.7293825 8.355705,8.309375 8.6785797,7.828125 l 0.5870453,-0.875 0.791377,-0.00835 0.791377,-0.00835 -0.418866,0.6177287 C 10.199137,7.8938969 9.7636275,8.5376384 9.4617144,8.9846828 l -0.5489328,0.8128081 1.0073565,1.4840671 1.0073569,1.484067 -0.76676,0.0084 C 9.5733559,12.78041 9.3851181,12.7731 9.3561141,12.742747 9.3352903,12.720955 9.0268319,12.274219 8.6706509,11.75 8.31447,11.225781 8.0210703,10.794223 8.0186516,10.790981 c -0.00242,-0.0032 -0.3064332,0.442757 -0.6755872,0.991108 l -0.6711894,0.997002 -0.7895981,0.0011 -0.7895982,0.0011 z"
       id="path819"
       inkscape:connector-curvature="0" />
  </g>
</svg>
