<?xml version="1.0" encoding="UTF-8" standalone="no"?>
<!-- Created with Inkscape (http://www.inkscape.org/) -->

<svg
   xmlns:dc="http://purl.org/dc/elements/1.1/"
   xmlns:cc="http://creativecommons.org/ns#"
   xmlns:rdf="http://www.w3.org/1999/02/22-rdf-syntax-ns#"
   xmlns:svg="http://www.w3.org/2000/svg"
   xmlns="http://www.w3.org/2000/svg"
   xmlns:sodipodi="http://sodipodi.sourceforge.net/DTD/sodipodi-0.dtd"
   xmlns:inkscape="http://www.inkscape.org/namespaces/inkscape"
   version="1.1"
   id="svg2"
   width="16"
   height="16"
   viewBox="0 0 16 16"
   sodipodi:docname="NODE_TRANSFORM.svg"
   inkscape:version="0.92.4 (5da689c313, 2019-01-14)">
  <metadata
     id="metadata8">
    <rdf:RDF>
      <cc:Work
         rdf:about="">
        <dc:format>image/svg+xml</dc:format>
        <dc:type
           rdf:resource="http://purl.org/dc/dcmitype/StillImage" />
        <dc:title></dc:title>
      </cc:Work>
    </rdf:RDF>
  </metadata>
  <defs
     id="defs6" />
  <sodipodi:namedview
     pagecolor="#ffffff"
     bordercolor="#666666"
     borderopacity="1"
     objecttolerance="10"
     gridtolerance="10"
     guidetolerance="10"
     inkscape:pageopacity="0"
     inkscape:pageshadow="2"
     inkscape:window-width="828"
     inkscape:window-height="480"
     id="namedview4"
     showgrid="false"
     inkscape:zoom="14.75"
     inkscape:cx="8"
     inkscape:cy="8"
     inkscape:window-x="0"
     inkscape:window-y="0"
     inkscape:window-maximized="0"
     inkscape:current-layer="svg2" />
  <g
     id="NODE_TRANSFORM">
    <path
       style="fill:#ffffff;stroke-width:0.03125"
       d="M 5,15.125 V 14.25 h 3 3 V 15.125 16 H 8 5 Z m 0,-3.25 V 11 H 4.125 3.25 V 8 5 H 4.125 5 V 4.125 3.25 h 3 3 V 4.125 5 h 0.875 0.875 v 3 3 H 11.875 11 v 0.875 0.875 H 8 5 Z M 0,8 V 5 H 0.875 1.75 v 3 3 H 0.875 0 Z M 14.25,8 V 5 H 15.125 16 v 3 3 H 15.125 14.25 Z M 5,0.875 V 0 h 3 3 V 0.875 1.75 H 8 5 Z"
       id="path823"
       inkscape:connector-curvature="0" />
    <path
       style="fill:#c9fcfc;stroke-width:0.03125"
       d="M 1,13.5 V 12 H 2.5 4 V 13.5 15 H 2.5 1 Z m 11,0 V 12 H 13.5 15 V 13.5 15 H 13.5 12 Z m -7,0 V 13 h 3 3 V 13.5 14 H 8 5 Z M 2,8 V 5 H 2.5 3 v 3 3 H 2.5 2 Z M 13,8 V 5 h 0.5 0.5 v 3 3 H 13.5 13 Z M 1,2.5 V 1 H 2.5 4 V 2.5 4 H 2.5 1 Z m 11,0 V 1 H 13.5 15 V 2.5 4 H 13.5 12 Z m -7,0 V 2 h 3 3 V 2.5 3 H 8 5 Z"
       id="path821"
       inkscape:connector-curvature="0" />
    <path
       style="fill:#323232;stroke-width:0.03125"
       d="M 0,13.5 V 11 H 0.875 1.75 V 8 5 H 0.875 0 V 2.5 0 H 2.5 5 V 0.875 1.75 h 3 3 V 0.875 0 H 13.5 16 V 2.5 5 H 15.125 14.25 v 3 3 H 15.125 16 V 13.5 16 H 13.5 11 V 15.125 14.25 H 8 5 V 15.125 16 H 2.5 0 Z m 4,0 V 12 H 2.5 1 V 13.5 15 H 2.5 4 Z m 11,0 V 12 H 13.5 12 v 1.5 1.5 h 1.5 1.5 z m -4,0 V 13 H 8 5 v 0.5 0.5 h 3 3 z m 0,-1.625 V 11 h 0.875 0.875 V 8 5 H 11.875 11 V 4.125 3.25 H 8 5 V 4.125 5 H 4.125 3.25 v 3 3 H 4.125 5 v 0.875 0.875 h 3 3 z M 3,8 V 5 H 2.5 2 v 3 3 H 2.5 3 Z M 14,8 V 5 H 13.5 13 v 3 3 H 13.5 14 Z M 4,2.5 V 1 H 2.5 1 V 2.5 4 H 2.5 4 Z m 11,0 V 1 H 13.5 12 V 2.5 4 h 1.5 1.5 z m -4,0 V 2 H 8 5 V 2.5 3 h 3 3 z"
       id="path819"
       inkscape:connector-curvature="0" />
  </g>
</svg>
