<?xml version="1.0" encoding="UTF-8" standalone="no"?>
<!-- Created with Inkscape (http://www.inkscape.org/) -->

<svg
   version="1.1"
   id="svg2"
   width="1600"
   height="1600"
   viewBox="0 0 1600 1600"
   sodipodi:docname="noise.svg"
   inkscape:version="1.2.2 (732a01da63, 2022-12-09)"
   xmlns:inkscape="http://www.inkscape.org/namespaces/inkscape"
   xmlns:sodipodi="http://sodipodi.sourceforge.net/DTD/sodipodi-0.dtd"
   xmlns="http://www.w3.org/2000/svg"
   xmlns:svg="http://www.w3.org/2000/svg"
   xmlns:rdf="http://www.w3.org/1999/02/22-rdf-syntax-ns#"
   xmlns:cc="http://creativecommons.org/ns#"
   xmlns:dc="http://purl.org/dc/elements/1.1/">
  <metadata
     id="metadata8">
    <rdf:RDF>
      <cc:Work
         rdf:about="">
        <dc:format>image/svg+xml</dc:format>
        <dc:type
           rdf:resource="http://purl.org/dc/dcmitype/StillImage" />
      </cc:Work>
    </rdf:RDF>
  </metadata>
  <defs
     id="defs6" />
  <sodipodi:namedview
     pagecolor="#808080"
     bordercolor="#666666"
     borderopacity="1"
     objecttolerance="10"
     gridtolerance="10"
     guidetolerance="10"
     inkscape:pageopacity="0"
     inkscape:pageshadow="2"
     inkscape:window-width="2560"
     inkscape:window-height="1009"
     id="namedview4"
     showgrid="false"
     inkscape:zoom="0.5"
     inkscape:cx="982"
     inkscape:cy="836"
     inkscape:window-x="-8"
     inkscape:window-y="-8"
     inkscape:window-maximized="1"
     inkscape:current-layer="NOISE"
     inkscape:showpageshadow="0"
     inkscape:pagecheckerboard="true"
     inkscape:deskcolor="#d1d1d1" />
  <g
     id="NOISE"
     transform="matrix(99.934892,0,0,99.934892,0,6.685792e-6)"
     style="stroke-width:0.0100065">
    <path
       style="fill:none;stroke-width:0.000312908"
       d="M 0,8.005212 V 0 h 8.005212 8.005212 v 8.005212 8.005212 H 8.005212 0 Z m 8.005212,0 V 2.001303 H 7.5048862 7.0045605 v 6.003909 6.003909 H 7.5048862 8.005212 Z m -4.002606,0 V 3.0019545 H 3.5022803 3.0019545 V 8.005212 13.00847 H 3.5022803 4.002606 Z m 6.003909,0 V 3.0019545 H 9.5061893 9.0058635 V 8.005212 13.00847 h 0.5003258 0.5003257 z m -8.005212,0 V 5.0032575 H 1.5009772 1.0006515 V 8.005212 11.007167 H 1.5009772 2.001303 Z m 12.007818,0 V 5.0032575 H 13.508795 13.00847 v 3.0019545 3.001955 h 0.500325 0.500326 z m -8.005212,0 V 6.003909 H 5.5035832 5.0032575 v 2.001303 2.001303 H 5.5035832 6.003909 Z m 6.003909,0 V 6.003909 h -0.500326 -0.500325 v 2.001303 2.001303 h 0.500325 0.500326 z"
       id="path821"
       inkscape:connector-curvature="0" />
    <path
       style="fill:#cbe5fe;stroke-width:0.000312908"
       d="M 7.0045605,8.005212 V 2.001303 H 7.5048862 8.005212 v 6.003909 6.003909 H 7.5048862 7.0045605 Z m -4.002606,0 V 3.0019545 H 3.5022803 4.002606 V 8.005212 13.00847 H 3.5022803 3.0019545 Z m 6.003909,0 V 3.0019545 H 9.5061893 10.006515 V 8.005212 13.00847 H 9.5061893 9.0058635 Z m -8.005212,0 V 5.0032575 H 1.5009772 2.001303 V 8.005212 11.007167 H 1.5009772 1.0006515 Z m 12.0078185,0 V 5.0032575 h 0.500325 0.500326 V 8.005212 11.007167 H 13.508795 13.00847 Z m -8.0052125,0 V 6.003909 H 5.5035832 6.003909 v 2.001303 2.001303 H 5.5035832 5.0032575 Z m 6.0039095,0 V 6.003909 h 0.500325 0.500326 v 2.001303 2.001303 h -0.500326 -0.500325 z"
       id="path819"
       inkscape:connector-curvature="0" />
  </g>
</svg>
