<?xml version="1.0" encoding="UTF-8" standalone="no"?>
<!-- Created with Inkscape (http://www.inkscape.org/) -->

<svg
   version="1.1"
   id="svg2"
   width="1600"
   height="1600"
   viewBox="0 0 1600 1600"
   sodipodi:docname="normalize_fcurves.svg"
   inkscape:version="1.2.2 (732a01da63, 2022-12-09)"
   xmlns:inkscape="http://www.inkscape.org/namespaces/inkscape"
   xmlns:sodipodi="http://sodipodi.sourceforge.net/DTD/sodipodi-0.dtd"
   xmlns="http://www.w3.org/2000/svg"
   xmlns:svg="http://www.w3.org/2000/svg"
   xmlns:rdf="http://www.w3.org/1999/02/22-rdf-syntax-ns#"
   xmlns:cc="http://creativecommons.org/ns#"
   xmlns:dc="http://purl.org/dc/elements/1.1/">
  <metadata
     id="metadata8">
    <rdf:RDF>
      <cc:Work
         rdf:about="">
        <dc:format>image/svg+xml</dc:format>
        <dc:type
           rdf:resource="http://purl.org/dc/dcmitype/StillImage" />
      </cc:Work>
    </rdf:RDF>
  </metadata>
  <defs
     id="defs6" />
  <sodipodi:namedview
     pagecolor="#808080"
     bordercolor="#666666"
     borderopacity="1"
     objecttolerance="10"
     gridtolerance="10"
     guidetolerance="10"
     inkscape:pageopacity="0"
     inkscape:pageshadow="2"
     inkscape:window-width="1993"
     inkscape:window-height="1009"
     id="namedview4"
     showgrid="false"
     inkscape:zoom="0.5"
     inkscape:cx="9"
     inkscape:cy="8"
     inkscape:window-x="-8"
     inkscape:window-y="-8"
     inkscape:window-maximized="1"
     inkscape:current-layer="NORMALIZE_FCURVES"
     inkscape:showpageshadow="0"
     inkscape:pagecheckerboard="true"
     inkscape:deskcolor="#d1d1d1" />
  <g
     id="NORMALIZE_FCURVES"
     transform="matrix(100,0,0,100,0,4.9999997e-5)"
     style="stroke-width:0.0114286">
    <path
       style="fill:none;stroke-width:0.000357143"
       d="M 0,8 V 0 h 8 8 v 8 8 H 8 0 Z m 5.2692312,7.419944 C 5.4822022,15.260908 5.484375,15.251618 5.484375,14.5 c 0,-0.751607 -0.00217,-0.760884 -0.2151241,-0.919944 -0.08353,-0.06239 -0.1287222,-0.06471 -1.4267943,-0.07321 l -1.3405321,-0.0088 -0.00877,-1.340533 c -0.0085,-1.298042 -0.01082,-1.343234 -0.07321,-1.426764 C 2.2608844,10.517794 2.2516073,10.515625 1.5,10.515625 c -0.75161722,0 -0.76090744,0.0022 -0.91994409,0.215143 -0.0633569,0.08484 -0.0645832,0.121276 -0.0735644,2.185569 -0.005023,1.154608 -9.4813e-4,2.144577 0.009056,2.19993 0.0226369,0.125251 0.15392441,0.284851 0.27977825,0.340113 0.0771085,0.03386 0.50496084,0.04052 2.24146134,0.03492 2.113397,-0.0068 2.1474795,-0.0079 2.2324441,-0.07136 z m 9.9999998,0 c 0.04746,-0.03544 0.115276,-0.103265 0.150713,-0.150729 0.06364,-0.08523 0.06443,-0.113229 0.06443,-2.269215 0,-2.155986 -7.94e-4,-2.183982 -0.06443,-2.269215 -0.150867,-0.202071 -0.189304,-0.213623 -0.773676,-0.232538 -0.295291,-0.0096 -0.512773,-0.0201 -0.483293,-0.02344 0.09221,-0.01042 0.272244,-0.194208 0.307243,-0.313646 0.02191,-0.07478 0.03015,-0.4997312 0.02382,-1.2292331 -0.0093,-1.0693925 -0.0123,-1.1184681 -0.0741,-1.201194 -0.03544,-0.047438 -0.103246,-0.1152441 -0.150688,-0.150681 -0.0832,-0.062145 -0.129918,-0.064745 -1.316862,-0.073278 -1.382504,-0.00994 -1.482389,7.969e-4 -1.861725,0.2001331 C 10.94199,7.785034 10.803523,7.896104 10.633581,8.0735546 10.244903,8.4794141 10.097663,8.8432669 9.9567344,9.7461641 9.9159156,10.00768 9.8744847,10.229682 9.8646653,10.239502 9.8379063,10.26626 9.6131628,9.9005369 9.4390341,9.546875 9.1873647,9.0357256 8.9927472,8.5136772 8.4386178,6.8633222 8.1493419,6.0017762 7.8402066,5.128125 7.7516506,4.921875 7.3580428,4.0051475 7.0242031,3.5030284 6.5101394,3.0545517 6.1882575,2.7737374 5.7097391,2.5580828 5.3075531,2.5125807 5.1225087,2.4916453 5.1200797,2.4901738 5.2089053,2.4528254 5.3296734,2.4020463 5.4617197,2.2411548 5.4851237,2.1162676 5.4954972,2.0609142 5.4995725,1.7459057 5.4941797,1.4162488 5.4834497,0.76031491 5.4766125,0.73490044 5.269215,0.58005591 5.1839816,0.51641991 5.1559856,0.515625 3,0.515625 0.84401425,0.515625 0.81601847,0.51642 0.73078497,0.5800559 0.68332097,0.6154929 0.61549288,0.68332096 0.58005591,0.73078496 0.51641991,0.81601847 0.515625,0.84401425 0.515625,3 c 0,2.1559856 7.95e-4,2.1839816 0.0644309,2.269215 0.15536081,0.2080891 0.17849262,0.2142053 0.8518204,0.2252272 0.3812639,0.00624 0.6584352,-0.00281 0.7292879,-0.023824 C 2.2795194,5.4355222 2.46875,5.2510625 2.46875,5.1707875 2.46875,5.1456044 2.4828125,5.125 2.5,5.125 c 0.017187,0 0.03125,0.020015 0.03125,0.044477 0,0.071443 0.1601459,0.2415897 0.2709747,0.2878969 C 2.880142,5.48993 3.1108774,5.5 3.7789291,5.5 h 0.8746862 l 0.083549,0.1425653 c 0.175106,0.2987963 0.4111107,0.9236616 0.9065382,2.4002272 0.5896159,1.7572834 0.8042025,2.3188675 1.1359478,2.9728325 0.6720688,1.32484 1.4868738,2.100431 2.5172247,2.396077 0.2140081,0.06141 0.3219838,0.07174 0.75,0.07174 0.578305,0 0.810216,-0.04984 1.265625,-0.271997 0.22832,-0.111379 0.316357,-0.18031 0.62686,-0.490821 0.308468,-0.308477 0.382161,-0.402326 0.504497,-0.642494 0.172256,-0.33817 0.309203,-0.756159 0.397264,-1.212524 0.03582,-0.185638 0.06513,-0.343841 0.06513,-0.351562 0,-0.0077 0.221484,-0.01349 0.492188,-0.01282 0.436817,0.0011 0.48164,0.0059 0.398437,0.04289 -0.114927,0.05108 -0.219179,0.161142 -0.263543,0.278233 C 13.511676,10.879502 13.5,11.363559 13.5,12.204195 v 1.293876 l -1.341494,0.0088 c -1.299043,0.0085 -1.344224,0.01082 -1.427757,0.07321 -0.207369,0.154888 -0.214199,0.180279 -0.224929,0.836193 -0.01129,0.690233 -0.0021,0.765043 0.111062,0.899473 0.159229,0.189233 0.07531,0.183144 2.419905,0.175578 2.113397,-0.0068 2.14748,-0.0079 2.232444,-0.07136 z M 2.5019808,2.6953125 2.5,2.5 2.6953125,2.50122 C 2.8845076,2.5024 2.8876887,2.50375 2.796875,2.544111 2.6860826,2.5933559 2.5785212,2.7036437 2.5351079,2.812516 2.5092171,2.8774453 2.5036274,2.857669 2.5019808,2.6953125 Z M 15.269311,5.4199441 c 0.04741,-0.035437 0.115196,-0.103265 0.150633,-0.1507291 0.06364,-0.085233 0.06443,-0.1132294 0.06443,-2.269215 0,-2.15598575 -7.94e-4,-2.18398153 -0.06443,-2.26921503 C 15.384507,0.68332097 15.316679,0.61549288 15.269215,0.58005591 15.183982,0.51641991 15.155986,0.515625 13,0.515625 c -2.155986,0 -2.183982,7.95e-4 -2.269215,0.0644309 -0.212984,0.15901579 -0.21516,0.16831785 -0.21516,0.9199441 0,0.7516073 0.0022,0.7608844 0.215124,0.9199441 0.08353,0.062392 0.128714,0.064709 1.427757,0.073208 L 13.5,2.5019287 V 3.795805 c 0,0.8406359 0.01168,1.3246925 0.03333,1.3818481 0.01833,0.048385 0.06404,0.1214053 0.101562,0.1622688 0.135463,0.1475056 0.209583,0.1599928 0.901973,0.151955 0.597461,-0.00694 0.652748,-0.012365 0.732444,-0.071933 z"
       id="path825"
       inkscape:connector-curvature="0" />
    <path
       style="fill:#fefefe;stroke-width:0.000357143"
       d="M 1,13 V 11 H 1.5 2 V 12.5 14 H 3.5 5 V 14.5 15 H 3 1 Z m 10,1.5 V 14 H 12.5 14 V 12.5 11 h 0.5 0.5 v 2 2 H 13 11 Z M 1,3 V 1 H 3 5 V 1.5 2 H 3.5 2 V 3.5 5 H 1.5 1 Z M 14,3.5 V 2 H 12.5 11 V 1.5 1 h 2 2 V 3 5 H 14.5 14 Z"
       id="path823"
       inkscape:connector-curvature="0" />
    <path
       style="fill:#98fe32;stroke-width:0.000357143"
       d="M 9.734375,12.979803 C 9.1193603,12.880763 8.4897169,12.519916 8.0478228,12.013242 7.6039072,11.50425 7.1781587,10.751905 6.8178081,9.8396675 6.7116856,9.5710156 6.3941463,8.6639844 6.112165,7.8240425 5.4994081,5.9988144 5.2813581,5.4597212 5.0109878,5.1015625 L 4.9343194,5 H 3.9671597 3 V 3.9979713 2.9959422 l 1.1796875,0.011418 C 5.31342,3.0183327 5.3669022,3.0215394 5.5526034,3.0896788 6.1124453,3.2951019 6.5869519,3.7586737 6.9642031,4.46875 7.2472072,5.0014306 7.4359094,5.4917925 7.9698678,7.0820722 8.6371156,9.0693259 8.8451019,9.5961525 9.2014303,10.201606 9.4913078,10.69415 9.8208669,11 10.061714,11 c 0.17758,0 0.252387,-0.210094 0.389861,-1.0949347 0.09116,-0.5867037 0.157687,-0.8439637 0.286662,-1.1084347 0.183657,-0.376599 0.561922,-0.6822569 0.942989,-0.7619837 C 11.783929,8.0131594 12.255728,8 12.923413,8 H 14 v 1 1 h -0.766606 c -0.586501,0 -0.769227,0.0092 -0.777762,0.03906 -0.0061,0.02148 -0.04139,0.232692 -0.07833,0.469352 -0.08701,0.557359 -0.187523,0.905703 -0.367259,1.272835 -0.123148,0.251543 -0.188694,0.340007 -0.429253,0.579342 -0.306491,0.304929 -0.569506,0.46154 -0.940163,0.559812 -0.191584,0.05079 -0.7374884,0.08657 -0.90625,0.0594 z"
       id="path821"
       inkscape:connector-curvature="0" />
    <path
       style="fill:#323232;stroke-width:0.000357143"
       d="M 0.79532572,15.45638 C 0.66947188,15.40112 0.53818434,15.241518 0.51554747,15.116267 c -0.0100042,-0.05535 -0.0140794,-1.045322 -0.009056,-2.19993 0.008981,-2.064293 0.0102076,-2.100726 0.0735644,-2.185569 C 0.73909256,10.517798 0.74838278,10.515625 1.5,10.515625 c 0.7516073,0 0.7608844,0.0022 0.9199441,0.215124 0.06239,0.08353 0.064709,0.128722 0.073206,1.426794 l 0.00877,1.340533 1.3405321,0.0088 c 1.2980721,0.0085 1.3432643,0.01082 1.4267943,0.07321 0.2129547,0.15906 0.2151241,0.168337 0.2151241,0.919944 0,0.751618 -0.00217,0.760908 -0.2151438,0.919944 -0.084965,0.06345 -0.1190471,0.06454 -2.2324441,0.07136 -1.7365005,0.0056 -2.16435291,-0.0011 -2.24146138,-0.03492 z M 5,14.5 V 14 H 3.5 2 V 12.5 11 H 1.5 1 v 2 2 h 2 2 z m 5.795326,0.95638 c -0.125459,-0.05509 -0.256911,-0.214505 -0.28045,-0.340113 -0.01037,-0.05535 -0.01445,-0.370361 -0.0091,-0.700018 0.01073,-0.655914 0.01756,-0.681305 0.224929,-0.836193 0.08353,-0.06239 0.128714,-0.06471 1.427757,-0.07321 L 13.5,13.498071 v -1.293876 c 0,-0.840636 0.01168,-1.324692 0.03333,-1.381848 0.04436,-0.117091 0.148616,-0.227153 0.263543,-0.278233 0.0832,-0.03698 0.03838,-0.04181 -0.398437,-0.04289 -0.270704,-6.72e-4 -0.492188,0.0051 -0.492188,0.01282 0,0.0077 -0.02931,0.165924 -0.06513,0.351562 -0.08806,0.456365 -0.225008,0.874354 -0.397264,1.212524 -0.122336,0.240168 -0.196029,0.334017 -0.504497,0.642494 -0.310503,0.310511 -0.39854,0.379442 -0.62686,0.490821 -0.455409,0.222157 -0.68732,0.271997 -1.265625,0.271997 -0.4280163,0 -0.5359919,-0.01033 -0.75,-0.07174 C 8.2665241,13.116056 7.4517191,12.340465 6.7796503,11.015625 6.447905,10.36166 6.2333184,9.8000759 5.6437025,8.0427925 5.148275,6.5662269 4.9122703,5.9413616 4.7371641,5.6425653 L 4.6536153,5.5 H 3.7789291 C 3.1108774,5.5 2.880142,5.48993 2.8022247,5.4573741 2.6913959,5.4110669 2.53125,5.24092 2.53125,5.1694772 2.53125,5.1450147 2.5171875,5.125 2.5,5.125 c -0.017187,0 -0.03125,0.020604 -0.03125,0.045788 0,0.080275 -0.1892306,0.2647347 -0.3075858,0.2998309 -0.070853,0.02101 -0.348024,0.030065 -0.7292879,0.023824 C 0.75854853,5.4834203 0.73541672,5.4773041 0.58005591,5.269215 0.51641991,5.1839816 0.515625,5.1559856 0.515625,3 0.515625,0.84401425 0.51642,0.81601847 0.5800559,0.73078497 0.6154929,0.68332097 0.68332096,0.61549288 0.73078496,0.58005591 0.81601847,0.51641991 0.84401425,0.515625 3,0.515625 c 2.1559856,0 2.1839816,7.95e-4 2.269215,0.0644309 0.2073975,0.15484453 0.2142347,0.180259 0.2249647,0.8361929 0.00539,0.3296569 0.00132,0.6446654 -0.00906,0.7000188 -0.023404,0.1248872 -0.1554503,0.2857786 -0.2762184,0.3365578 -0.088826,0.037348 -0.086397,0.03882 0.098648,0.059755 0.819976,0.09277 1.5857835,0.7119943 2.1100528,1.7061693 0.3017128,0.5721391 0.4816591,1.0382272 1.0210119,2.6445722 0.5541294,1.650355 0.7487469,2.1724034 1.0004163,2.6835528 0.1741287,0.3536619 0.3988722,0.7193853 0.4256312,0.6926273 0.00982,-0.0098 0.05125,-0.231822 0.092069,-0.4933382 0.1409285,-0.9028972 0.2881685,-1.26675 0.6768525,-1.6726069 0.169942,-0.1774506 0.308409,-0.2885206 0.457082,-0.3666466 0.379336,-0.1993353 0.479221,-0.2100728 1.861725,-0.2001331 1.186944,0.00853 1.233665,0.011133 1.316862,0.073278 0.04744,0.035437 0.115251,0.1032435 0.150688,0.150681 0.0618,0.082726 0.06483,0.1318015 0.0741,1.201194 0.0063,0.7295019 -0.0019,1.1544538 -0.02382,1.2292328 -0.035,0.119438 -0.21503,0.303221 -0.307243,0.313646 -0.02948,0.0033 0.188002,0.01388 0.483293,0.02344 0.584372,0.01892 0.622809,0.03047 0.773676,0.232538 0.06364,0.08523 0.06443,0.113229 0.06443,2.269215 0,2.155986 -7.94e-4,2.183982 -0.06443,2.269215 -0.03544,0.04746 -0.103258,0.115292 -0.150713,0.150729 -0.08496,0.06345 -0.119047,0.06454 -2.232444,0.07136 -1.7365,0.0056 -2.164353,-0.0011 -2.241461,-0.03492 z M 15,13 V 11 H 14.5 14 V 12.5 14 H 12.5 11 v 0.5 0.5 h 2 2 z m -4.359375,-0.0796 c 0.370657,-0.09827 0.633672,-0.254883 0.940163,-0.559812 0.240559,-0.239335 0.306105,-0.327799 0.429253,-0.579342 0.179737,-0.367132 0.280247,-0.715476 0.367259,-1.272835 0.03695,-0.23666 0.0722,-0.447868 0.07833,-0.469352 C 12.464167,10.009177 12.646893,10 13.233394,10 H 14 V 9 8 H 12.923413 C 12.255728,8 11.783929,8.013159 11.681226,8.034647 11.300159,8.114374 10.921894,8.4200317 10.738237,8.7966307 10.609262,9.0611017 10.54273,9.3183617 10.451575,9.9050654 10.314101,10.789906 10.239294,11 10.061714,11 9.8208669,11 9.4913078,10.69415 9.2014303,10.201606 8.8451019,9.5961525 8.6371156,9.0693259 7.9698678,7.0820722 7.4359094,5.4917925 7.2472072,5.0014306 6.9642031,4.46875 6.5869519,3.7586737 6.1124453,3.2951019 5.5526034,3.0896788 5.3669022,3.0215394 5.31342,3.0183327 4.1796875,3.0073598 L 3,2.9959422 V 3.9979713 5 h 0.9671597 0.9671597 l 0.076668,0.1015625 c 0.2703703,0.3581587 0.4884203,0.8972519 1.1011772,2.72248 0.5845078,1.7410825 0.8058663,2.3218405 1.1211972,2.9415825 0.6842512,1.344807 1.4806425,2.049862 2.5010128,2.214178 0.1687616,0.02718 0.7146664,-0.0086 0.9062504,-0.0594 z M 2,3.5 V 2 H 3.5 5 V 1.5 1 H 3 1 V 3 5 H 1.5 2 Z M 2.6346896,2.6600942 C 2.6723291,2.6192222 2.7453125,2.567031 2.796875,2.5441139 2.8876887,2.5037514 2.8845076,2.5024081 2.6953125,2.5012232 L 2.5,2.5 2.50198,2.6953125 C 2.50363,2.857669 2.50922,2.8774453 2.535107,2.812516 2.552237,2.769556 2.597049,2.7009663 2.6346896,2.6600942 Z M 13.796875,5.4567987 C 13.681514,5.4044031 13.577503,5.2942347 13.533332,5.1776531 13.511676,5.1204975 13.5,4.6364409 13.5,3.795805 V 2.5019288 l -1.341494,-0.00878 C 10.859463,2.4846528 10.814282,2.4823361 10.730749,2.4199441 10.517794,2.2608844 10.515625,2.2516073 10.515625,1.5 c 0,-0.75162625 0.0022,-0.76092831 0.21516,-0.91994409 C 10.816018,0.51641991 10.844014,0.515625 13,0.515625 c 2.155986,0 2.183982,7.95e-4 2.269215,0.0644309 0.04746,0.035437 0.115292,0.10326506 0.150729,0.15072906 0.06364,0.0852335 0.06443,0.11322928 0.06443,2.26921504 0,2.1559856 -7.94e-4,2.1839816 -0.06443,2.269215 -0.156823,0.2100472 -0.174217,0.2144331 -0.883077,0.2226619 -0.491886,0.00571 -0.668634,-0.00267 -0.739992,-0.035078 z M 15,3 V 1 H 13 11 V 1.5 2 H 12.5 14 V 3.5 5 h 0.5 0.5 z"
       id="path819"
       inkscape:connector-curvature="0" />
  </g>
</svg>
