<?xml version="1.0" encoding="UTF-8" standalone="no"?>
<!-- Created with Inkscape (http://www.inkscape.org/) -->

<svg
   version="1.1"
   id="svg2"
   width="1600"
   height="1600"
   viewBox="0 0 1600 1600"
   sodipodi:docname="normals_vertex_face.svg"
   inkscape:version="1.2.2 (732a01da63, 2022-12-09)"
   xmlns:inkscape="http://www.inkscape.org/namespaces/inkscape"
   xmlns:sodipodi="http://sodipodi.sourceforge.net/DTD/sodipodi-0.dtd"
   xmlns="http://www.w3.org/2000/svg"
   xmlns:svg="http://www.w3.org/2000/svg"
   xmlns:rdf="http://www.w3.org/1999/02/22-rdf-syntax-ns#"
   xmlns:cc="http://creativecommons.org/ns#"
   xmlns:dc="http://purl.org/dc/elements/1.1/">
  <metadata
     id="metadata8">
    <rdf:RDF>
      <cc:Work
         rdf:about="">
        <dc:format>image/svg+xml</dc:format>
        <dc:type
           rdf:resource="http://purl.org/dc/dcmitype/StillImage" />
      </cc:Work>
    </rdf:RDF>
  </metadata>
  <defs
     id="defs6" />
  <sodipodi:namedview
     pagecolor="#808080"
     bordercolor="#666666"
     borderopacity="1"
     objecttolerance="10"
     gridtolerance="10"
     guidetolerance="10"
     inkscape:pageopacity="0"
     inkscape:pageshadow="2"
     inkscape:window-width="2560"
     inkscape:window-height="1009"
     id="namedview4"
     showgrid="false"
     fit-margin-top="0"
     fit-margin-left="0"
     fit-margin-right="0"
     fit-margin-bottom="0"
     inkscape:zoom="0.5"
     inkscape:cx="766"
     inkscape:cy="1038"
     inkscape:window-x="-8"
     inkscape:window-y="-8"
     inkscape:window-maximized="1"
     inkscape:current-layer="NORMALS_VERTEX_FACE"
     inkscape:showpageshadow="0"
     inkscape:pagecheckerboard="true"
     inkscape:deskcolor="#d1d1d1" />
  <g
     id="NORMALS_VERTEX_FACE"
     transform="matrix(99.999988,0,0,99.999988,0,-53013.324)"
     style="stroke-width:0.01">
    <path
       style="fill:none;stroke-width:0.0003125"
       d="m 0,538.1333 v -8 h 8.0000009 8.0000011 v 8 8 H 8.0000009 0 Z m 9.9419062,6.41747 0.8329558,-0.83252 0.09495,0.0676 c 0.163747,0.1166 0.48642,0.25301 0.711047,0.30059 1.412891,0.29932 2.671612,-0.9594 2.372292,-2.37229 -0.04759,-0.22462 -0.183997,-0.5473 -0.300595,-0.71104 l -0.06761,-0.095 0.832528,-0.83295 c 0.717792,-0.71817 0.832528,-0.84584 0.832528,-0.92638 0,-0.0816 -0.195996,-0.28945 -1.554094,-1.64775 l -1.554094,-1.55433 1.017244,-1.02391 c 0.913536,-0.91953 1.025956,-1.04382 1.102696,-1.21917 0.246128,-0.5624 0.12577,-1.18802 -0.30736,-1.59766 -0.427033,-0.40387 -1.011696,-0.50397 -1.55487,-0.26622 -0.176801,0.0774 -0.298565,0.18746 -1.220311,1.1032 l -1.023913,1.01725 -1.5230807,-1.52285 c -1.3305573,-1.33035 -1.5348887,-1.52284 -1.616499,-1.52284 -0.080542,0 -0.2081982,0.11472 -0.9261611,0.83231 l -0.8327433,0.83232 -0.1057699,-0.0807 c -0.1627562,-0.12414 -0.4928148,-0.2677 -0.7319067,-0.31835 -1.4128909,-0.29932 -2.6716112,0.9594 -2.3722915,2.37229 0.050651,0.23909 0.1942168,0.56915 0.3183567,0.73191 l 0.080675,0.10577 -0.8323146,0.83274 c -0.71863636,0.71901 -0.83231462,0.84554 -0.83231462,0.92642 0,0.0817 0.1614136,0.25506 1.26211162,1.35551 l 1.2621115,1.26182 -0.1060465,0.22331 c -0.3673644,0.77356 -0.2133639,1.66448 0.3924297,2.27028 0.60579,0.60579 1.4967158,0.75979 2.2702697,0.39243 l 0.2232929,-0.10604 1.4181,1.41836 c 1.2391929,1.23941 1.4299162,1.41835 1.5117653,1.41835 0.080866,0 0.207489,-0.11376 0.9266219,-0.83253 z"
       id="path831"
       inkscape:connector-curvature="0" />
    <path
       style="fill:#a9d8fe;stroke-width:0.0003125"
       d="m 7.8593759,538.5867 c -0.2333166,-0.0832 -0.3571091,-0.31976 -0.2940142,-0.56179 0.028647,-0.10989 0.3629436,-0.45608 2.6165543,-2.70969 2.25361,-2.25362 2.599807,-2.58791 2.709696,-2.61656 0.352036,-0.0918 0.667772,0.22521 0.573992,0.57625 -0.02849,0.10666 -0.390334,0.48186 -2.585304,2.68079 -1.4036959,1.40622 -2.5873303,2.57523 -2.6302992,2.59779 -0.1313953,0.069 -0.2596767,0.0799 -0.3906249,0.0332 z"
       id="path829"
       inkscape:connector-curvature="0" />
    <path
       style="fill:#fefe00;stroke-width:0.0003125"
       d="m 11.750001,543.33979 c -0.5104,-0.11368 -0.873539,-0.49393 -0.967727,-1.01335 -0.065,-0.35843 0.07768,-0.80309 0.342727,-1.06814 0.265051,-0.26505 0.709706,-0.40772 1.068142,-0.34273 0.399843,0.0725 0.725174,0.3077 0.897302,0.64868 0.190247,0.37688 0.190247,0.76122 0,1.1381 -0.17042,0.3376 -0.495214,0.57457 -0.886702,0.64694 -0.217781,0.0403 -0.231581,0.04 -0.453742,-0.01 z m -7.0000006,-1.28126 c -0.5104006,-0.11367 -0.8735386,-0.49392 -0.9677269,-1.01334 -0.064997,-0.35843 0.077677,-0.80309 0.3427269,-1.06814 0.2650503,-0.26505 0.7097061,-0.40772 1.068142,-0.34273 0.3998426,0.0725 0.7251739,0.3077 0.8973016,0.64868 0.1902469,0.37688 0.1902469,0.76122 0,1.1381 -0.1704196,0.3376 -0.4952137,0.57457 -0.8867014,0.64694 -0.2177813,0.0403 -0.2315813,0.04 -0.4537422,-0.01 z m -1.0000001,-6.71875 c -0.5104005,-0.11367 -0.8735389,-0.49392 -0.9677269,-1.01334 -0.091381,-0.50393 0.1841107,-1.04907 0.6486766,-1.28358 0.3768774,-0.19025 0.7612235,-0.19025 1.1381009,0 0.3409831,0.17212 0.5761712,0.49746 0.6486766,0.8973 0.064997,0.35843 -0.077677,0.80309 -0.342727,1.06814 -0.1558233,0.15582 -0.4339928,0.29713 -0.6712583,0.34099 -0.2177813,0.0403 -0.2315813,0.04 -0.4537419,-0.01 z"
       id="path827"
       inkscape:connector-curvature="0" />
    <path
       style="fill:#fea900;stroke-width:0.0003125"
       d="m 7.7282281,543.53177 -1.2871728,-1.28909 0.1084292,-0.125 c 0.1539894,-0.17753 0.349982,-0.5872 0.4036615,-0.84375 0.2962843,-1.41606 -0.9579889,-2.67472 -2.36771,-2.37599 -0.2807068,0.0595 -0.5584881,0.18699 -0.7927299,0.36386 l -0.1916695,0.14473 -1.1286915,-1.12901 -1.1286914,-1.12901 0.7156255,-0.71512 0.7156255,-0.71511 0.094931,0.0676 c 0.1637268,0.11659 0.4864094,0.253 0.7110253,0.30058 1.412891,0.29932 2.6716112,-0.9594 2.3722918,-2.37229 -0.047596,-0.22467 -0.1840014,-0.5473 -0.3006499,-0.71112 l -0.067667,-0.095 0.7155022,-0.7155 0.7155019,-0.71551 1.4057114,1.40598 1.4057112,1.40597 -1.5176417,1.52374 c -1.3959207,1.40153 -1.5245173,1.53949 -1.6033704,1.72013 -0.2373959,0.54386 -0.1372972,1.12796 0.266463,1.55487 0.4095299,0.43302 1.0345528,0.55336 1.597655,0.3076 0.1791762,-0.0782 0.3207513,-0.21021 1.7189975,-1.60286 l 1.523741,-1.51764 1.437219,1.43696 1.437219,1.43696 -0.71529,0.71529 -0.715289,0.71529 -0.105845,-0.0807 c -0.162824,-0.12419 -0.492848,-0.26775 -0.731981,-0.31841 -1.412891,-0.29932 -2.6716112,0.9594 -2.372292,2.37229 0.05066,0.23913 0.194222,0.56916 0.318414,0.73198 l 0.08073,0.10585 -0.7152968,0.71529 -0.7152968,0.7153 z"
       id="path825"
       inkscape:connector-curvature="0" />
    <path
       style="fill:#264cfe;stroke-width:0.0003125"
       d="m 7.7410959,539.50706 c -0.4070919,-0.0684 -0.8203127,-0.38072 -1.0083864,-0.76205 -0.1986718,-0.40282 -0.2073507,-0.79723 -0.026674,-1.21219 0.080087,-0.18393 0.2552576,-0.36656 2.7600523,-2.87757 2.4949212,-2.50112 2.6892292,-2.68848 2.8932882,-2.78994 0.559947,-0.27838 1.212876,-0.16574 1.636663,0.28235 0.418634,0.44264 0.510381,1.05113 0.240493,1.59502 -0.101342,0.20422 -0.286577,0.39633 -2.789728,2.89328 -2.5035172,2.49732 -2.6940937,2.68016 -2.8760921,2.75939 -0.1850048,0.0805 -0.4816469,0.14795 -0.6175864,0.14034 -0.034375,-0.002 -0.1297884,-0.0148 -0.21203,-0.0286 z m 0.5089049,-0.95357 c 0.042969,-0.0226 1.2266033,-1.19157 2.6302992,-2.59779 2.19497,-2.19893 2.55681,-2.57413 2.585304,-2.68079 0.09378,-0.35104 -0.221956,-0.66802 -0.573992,-0.57625 -0.109889,0.0286 -0.456086,0.36294 -2.709696,2.61656 -2.2536107,2.25361 -2.5879072,2.5998 -2.6165543,2.70969 -0.1058443,0.40602 0.3086591,0.72604 0.6846391,0.52858 z"
       id="path823"
       inkscape:connector-curvature="0" />
    <path
       style="fill:#191919;stroke-width:0.0003125"
       d="m 7.5012382,543.96266 c -0.7812086,-0.78135 -1.4139635,-1.4249 -1.4061213,-1.43011 0.00784,-0.005 0.089506,-0.0711 0.1814745,-0.14638 l 0.1672155,-0.13691 1.286022,1.28575 1.2860225,1.28574 0.7091835,-0.70919 0.7091841,-0.70918 0.168702,0.15955 0.168702,0.15955 -0.8313366,0.83091 c -0.7176939,0.71733 -0.8441407,0.83091 -0.9250021,0.83091 -0.081851,0 -0.2728267,-0.17919 -1.5140461,-1.42064 z m 5.9223528,-3.22665 -0.154535,-0.16813 0.709162,-0.70967 0.709162,-0.70966 -1.437014,-1.43676 -1.437015,-1.43676 0.163043,-0.16509 0.163043,-0.1651 1.555282,1.55505 c 1.364147,1.36394 1.555283,1.56661 1.555283,1.64914 0,0.0816 -0.111194,0.20455 -0.835938,0.92459 l -0.835937,0.83051 z M 2.038918,538.50035 c -1.09749572,-1.09775 -1.25766792,-1.26991 -1.25766792,-1.35179 0,-0.0811 0.11226837,-0.20603 0.82655292,-0.91994 l 0.8265528,-0.82611 0.168652,0.1595 0.1686521,0.15951 -0.7140031,0.7135 -0.7140031,0.71349 1.1286223,1.12894 1.1286223,1.12894 -0.1363864,0.17364 c -0.075013,0.0955 -0.1434829,0.17468 -0.1521563,0.17596 -0.00867,10e-4 -0.5817202,-0.56377 -1.2734376,-1.25564 z m 6.3825914,-5.61742 -1.4055093,-1.40577 -0.7189372,0.71347 -0.7189372,0.71347 -0.1545516,-0.16813 -0.1545516,-0.16813 0.8262054,-0.82664 c 0.71501,-0.7154 0.8388687,-0.82665 0.9202964,-0.82665 0.082505,0 0.2817262,0.18767 1.6178863,1.52403 l 1.5237954,1.52404 -0.1650937,0.16304 -0.1650938,0.16304 z"
       id="path821"
       inkscape:connector-curvature="0" />
    <path
       style="fill:#000000;stroke-width:0.0003125"
       d="m 11.562501,544.08471 c -0.730181,-0.15683 -1.361796,-0.79423 -1.515645,-1.52953 -0.2971206,-1.42006 0.954968,-2.67214 2.37502,-2.37502 0.742913,0.15544 1.375829,0.78835 1.531271,1.53127 0.298189,1.42516 -0.965247,2.67942 -2.390646,2.37328 z m 0.641242,-0.73542 c 0.391488,-0.0724 0.716282,-0.30934 0.886702,-0.64694 0.190247,-0.37688 0.190247,-0.76122 0,-1.1381 -0.172128,-0.34098 -0.497459,-0.57617 -0.897302,-0.64868 -0.358436,-0.065 -0.803091,0.0777 -1.068142,0.34273 -0.26505,0.26505 -0.407724,0.70971 -0.342727,1.06814 0.09419,0.51942 0.457327,0.89967 0.967727,1.01335 0.222161,0.0495 0.235961,0.0498 0.453742,0.01 z m -7.6412426,-0.54583 c -0.7301808,-0.15683 -1.361796,-0.79423 -1.5156454,-1.52953 -0.2971204,-1.42006 0.9549681,-2.67214 2.3750207,-2.37502 0.8996079,0.18822 1.5770397,1.02721 1.5770397,1.95314 0,1.26838 -1.1876531,2.21961 -2.436415,1.95141 z m 0.6412422,-0.73542 c 0.2372652,-0.0439 0.5154346,-0.18517 0.671258,-0.34099 0.1582875,-0.15829 0.2982956,-0.43683 0.3427269,-0.68186 0.064997,-0.35843 -0.077676,-0.80309 -0.3427269,-1.06814 -0.1582875,-0.15829 -0.4368349,-0.29829 -0.6818582,-0.34273 -0.3584359,-0.065 -0.8030917,0.0777 -1.068142,0.34273 -0.2650503,0.26505 -0.4077238,0.70971 -0.3427269,1.06814 0.094188,0.51942 0.4573263,0.89967 0.9677269,1.01334 0.2221609,0.0495 0.2359609,0.0498 0.4537422,0.01 z m -1.6412423,-5.98333 c -0.7301808,-0.15683 -1.361796,-0.79423 -1.5156453,-1.52953 -0.2971206,-1.42006 0.9549684,-2.67215 2.3750204,-2.37503 0.7429126,0.15545 1.3758292,0.78836 1.5312705,1.53128 0.2981895,1.42516 -0.9652463,2.67942 -2.3906456,2.37328 z m 0.6412419,-0.73542 c 0.2372655,-0.0439 0.515435,-0.18517 0.6712583,-0.34099 0.2650504,-0.26505 0.4077238,-0.70971 0.342727,-1.06814 -0.072505,-0.39984 -0.3076935,-0.72518 -0.6486766,-0.8973 -0.3768774,-0.19025 -0.7612235,-0.19025 -1.1381009,0 -0.4645659,0.23451 -0.7400578,0.77965 -0.6486766,1.28358 0.094188,0.51942 0.4573264,0.89967 0.9677269,1.01334 0.2221606,0.0495 0.2359606,0.0498 0.4537419,0.01 z"
       id="path819"
       inkscape:connector-curvature="0" />
  </g>
</svg>
