<?xml version="1.0" encoding="UTF-8" standalone="no"?>
<!-- Created with Inkscape (http://www.inkscape.org/) -->

<svg
   version="1.1"
   id="svg2"
   width="1600"
   height="1600"
   viewBox="0 0 1600 1600"
   sodipodi:docname="object_hidden.svg"
   inkscape:version="1.2.2 (732a01da63, 2022-12-09)"
   xmlns:inkscape="http://www.inkscape.org/namespaces/inkscape"
   xmlns:sodipodi="http://sodipodi.sourceforge.net/DTD/sodipodi-0.dtd"
   xmlns="http://www.w3.org/2000/svg"
   xmlns:svg="http://www.w3.org/2000/svg"
   xmlns:rdf="http://www.w3.org/1999/02/22-rdf-syntax-ns#"
   xmlns:cc="http://creativecommons.org/ns#"
   xmlns:dc="http://purl.org/dc/elements/1.1/">
  <metadata
     id="metadata8">
    <rdf:RDF>
      <cc:Work
         rdf:about="">
        <dc:format>image/svg+xml</dc:format>
        <dc:type
           rdf:resource="http://purl.org/dc/dcmitype/StillImage" />
      </cc:Work>
    </rdf:RDF>
  </metadata>
  <defs
     id="defs6" />
  <sodipodi:namedview
     pagecolor="#808080"
     bordercolor="#666666"
     borderopacity="1"
     objecttolerance="10"
     gridtolerance="10"
     guidetolerance="10"
     inkscape:pageopacity="0"
     inkscape:pageshadow="2"
     inkscape:window-width="1993"
     inkscape:window-height="1009"
     id="namedview4"
     showgrid="false"
     inkscape:zoom="0.5"
     inkscape:cx="-3"
     inkscape:cy="8"
     inkscape:window-x="-8"
     inkscape:window-y="-8"
     inkscape:window-maximized="1"
     inkscape:current-layer="OBJECT_HIDDEN"
     inkscape:showpageshadow="0"
     inkscape:pagecheckerboard="true"
     inkscape:deskcolor="#d1d1d1" />
  <g
     id="OBJECT_HIDDEN"
     transform="matrix(100,0,0,100,0,4.9999997e-5)"
     style="stroke-width:0.0114286">
    <path
       style="fill:none;stroke-width:0.000357143"
       d="M 0,8 V 0 h 8 8 v 8 8 H 8 0 Z m 4,5.5 V 13 H 3.5 3 V 12.5 12 H 2.5 2 v 1 1 h 1 1 z m 6,0 V 13 H 8 6 v 0.5 0.5 h 2 2 z M 14,13 V 12 H 13.5 13 V 12.5 13 H 12.5 12 v 0.5 0.5 h 1 1 z M 8.6344053,11.235105 c 1.5789377,-0.210155 2.9685437,-1.176318 3.8664067,-2.68823 0.09186,-0.1546875 0.192541,-0.3147872 0.22373,-0.3557769 0.07624,-0.1001978 0.07163,-0.1637228 -0.02587,-0.3561994 C 11.846899,6.1533669 10.328319,5.0187669 8.63183,4.7963766 6.5320356,4.5211178 4.5216672,5.6196294 3.3980216,7.65625 3.2439544,7.9354981 3.2268938,8.0509 3.3143109,8.2224884 3.5558562,8.6966116 3.9751841,9.2841078 4.3536769,9.6786853 5.4984891,10.872148 7.0695875,11.44338 8.6344053,11.235105 Z M 3,8 V 6 H 2.5 2 v 2 2 H 2.5 3 Z M 14,8 V 6 H 13.5 13 v 2 2 H 13.5 14 Z M 3,3.5 V 3 H 3.5 4 V 2.5 2 H 3 2 V 3 4 H 2.5 3 Z M 14,3 V 2 H 13 12 V 2.5 3 H 12.5 13 V 3.5 4 H 13.5 14 Z M 10,2.5 V 2 H 8 6 V 2.5 3 h 2 2 z"
       id="path829"
       inkscape:connector-curvature="0" />
    <path
       style="fill:#fefefe;stroke-width:0.000357143"
       d="M 2,13 V 12 H 2.5 3 V 12.5 13 H 3.5 4 V 13.5 14 H 3 2 Z m 4,0.5 V 13 h 2 2 V 13.5 14 H 8 6 Z m 6,0 V 13 H 12.5 13 V 12.5 12 h 0.5 0.5 v 1 1 H 13 12 Z M 7.359375,10.733904 C 5.9608103,10.507378 4.7709628,9.6725419 3.9667606,8.3535341 3.86473,8.1861888 3.78125,8.0341297 3.78125,8.015625 3.78125,7.9546872 4.1483834,7.3784028 4.3541106,7.1164131 4.5609903,6.8529562 4.9804428,6.4239428 5.203125,6.2480462 5.5046531,6.0098694 5.9486709,5.7433841 6.2606897,5.6133297 6.377855,5.5644934 6.3751403,5.5692525 6.148275,5.8104119 5.8901422,6.0848088 5.7072753,6.4021572 5.5888447,6.78125 5.5252816,6.9847144 5.515625,7.0795069 5.515625,7.5 c 0,0.5554034 0.046394,0.7584409 0.2749119,1.203125 C 5.9722875,9.0568025 6.4431975,9.5277125 6.796875,9.7094631 7.2415591,9.9379813 7.4445966,9.984375 8,9.984375 c 0.5554034,0 0.7584409,-0.046394 1.203125,-0.2749119 C 9.5568025,9.5277125 10.027713,9.0568025 10.209463,8.703125 10.437981,8.2584409 10.484375,8.0554034 10.484375,7.5 c 0,-0.4204931 -0.0097,-0.5152856 -0.07322,-0.71875 C 10.292377,6.4010425 10.109952,6.0849088 9.8496778,5.8082356 L 9.6151513,5.5589325 9.7997631,5.6402016 C 10.663481,6.0204241 11.473102,6.75901 12.033239,7.6777159 12.13527,7.8450612 12.21875,7.9971203 12.21875,8.015625 c 0,0.060938 -0.367133,0.6372222 -0.572861,0.8992119 -0.206879,0.2634569 -0.626332,0.6924703 -0.849014,0.8683669 -0.56515,0.4464112 -1.2281528,0.7586022 -1.9288359,0.9082392 -0.390226,0.08333 -1.1280919,0.104103 -1.5086641,0.04246 z M 2,8 V 6 H 2.5 3 v 2 2 H 2.5 2 Z M 13,8 V 6 h 0.5 0.5 v 2 2 H 13.5 13 Z M 6.0005425,7.3984375 C 6.0016394,7.1933059 6.0959812,6.8525653 6.2230478,6.5948078 6.4044675,6.2267941 6.7267941,5.9044675 7.0948078,5.7230478 7.3525653,5.5959813 7.6933059,5.5016384 7.8984375,5.5005425 L 8,5.5 V 5.9957525 6.4915047 L 7.8606897,6.5105994 C 7.4363209,6.5687656 7.0687656,6.9363209 7.0105994,7.3606897 L 6.9915047,7.5 H 6.4957525 6 L 6.0005437,7.3984375 Z M 2,3 V 2 H 3 4 V 2.5 3 H 3.5 3 V 3.5 4 H 2.5 2 Z M 13,3.5 V 3 H 12.5 12 V 2.5 2 h 1 1 V 3 4 H 13.5 13 Z M 6,2.5 V 2 h 2 2 V 2.5 3 H 8 6 Z"
       id="path827"
       inkscape:connector-curvature="0" />
    <path
       style="fill:#75b6fe;stroke-width:0.000357143"
       d="M 7.5625,9.4514053 C 7.0080494,9.3323231 6.4747506,8.9157769 6.2230478,8.4051922 6.0959813,8.1474347 6.0016384,7.8066941 6.0005425,7.6015625 L 6,7.5 h 0.4957525 0.4957522 l 0.019095,0.1393103 c 0.043277,0.3157419 0.2687437,0.6204219 0.5675256,0.766916 0.1285931,0.06305 0.2032666,0.07661 0.421875,0.07661 0.2186084,0 0.2932819,-0.01356 0.421875,-0.07661 0.1992259,-0.097681 0.38667,-0.2851254 0.4843513,-0.4843513 0.1099946,-0.22434 0.1099946,-0.61941 0,-0.84375 C 8.7597322,6.7793431 8.4550522,6.5538766 8.1393103,6.5105994 L 8,6.4915047 V 5.9957525 5.5 l 0.1015625,5.437e-4 c 0.2051316,0.0011 0.5458722,0.095439 0.8036297,0.2225054 C 9.4225119,5.9780722 9.8344216,6.5107003 9.9531453,7.0781263 10.251335,8.5032875 8.9878991,9.7575459 7.5625,9.4514066 Z"
       id="path825"
       inkscape:connector-curvature="0" />
    <path
       style="fill:#0000cb;stroke-width:0.000357143"
       d="M 7.5023497,9.9678978 C 7.2677128,9.9186819 7.0573694,9.8413366 6.796875,9.7084878 6.4437475,9.5283972 5.9729128,9.0580194 5.7905369,8.703125 5.5620187,8.2584409 5.515625,8.0554034 5.515625,7.5 c 0,-0.4204931 0.00966,-0.5152856 0.07322,-0.71875 C 5.7096622,6.3945159 5.8905816,6.0832059 6.1598066,5.7987881 6.3971281,5.5480744 6.4090062,5.5402656 6.6779109,5.4581875 7.1898169,5.3019378 7.4135928,5.2701025 8,5.2701025 c 0.5864072,0 0.8101831,0.031835 1.3220891,0.188085 0.2689046,0.082078 0.2807828,0.089887 0.5181043,0.3406006 0.2692246,0.2844178 0.4501446,0.5957278 0.5709616,0.9824619 0.06356,0.2034644 0.07322,0.2982569 0.07322,0.71875 0,0.5554034 -0.04639,0.7584409 -0.274912,1.203125 C 10.027576,9.0570675 9.5566822,9.5278619 9.203125,9.7092509 8.7840984,9.9242284 8.57794,9.9750738 8.078125,9.9867131 7.8375,9.9923169 7.5784009,9.9838506 7.5023497,9.9678978 Z M 8.421875,9.4531453 C 9.1647875,9.2977041 9.7977041,8.6647875 9.9531453,7.921875 10.250266,6.5018228 8.9981772,5.2497344 7.578125,5.5468547 7.0106991,5.6655784 6.4780709,6.0774881 6.2230478,6.5948078 c -0.2954,0.5992253 -0.2954,1.2111591 0,1.8103844 0.3931413,0.7974956 1.3092084,1.2340897 2.1988272,1.0479531 z"
       id="path823"
       inkscape:connector-curvature="0" />
    <path
       style="fill:#323232;stroke-width:0.000357143"
       d="M 7.3335641,11.232976 C 6.4651447,11.114664 5.5779959,10.725106 4.859375,10.14653 4.2774012,9.6779713 3.6712878,8.9231888 3.3143109,8.2224884 3.2268938,8.0509 3.2439544,7.9354981 3.3980216,7.65625 4.0441669,6.4851044 5.0236809,5.5791816 6.1335966,5.1262 8.283795,4.2486556 10.679027,4.963105 12.117666,6.9111272 c 0.33541,0.45417 0.663584,1.0209809 0.663584,1.1461197 0,0.032628 -0.02552,0.092861 -0.05671,0.1338512 -0.03119,0.04099 -0.131868,0.2010894 -0.22373,0.3557769 -0.397819,0.6698866 -1.038194,1.3871853 -1.579847,1.769621 -1.0941256,0.772512 -2.3288347,1.087946 -3.5874009,0.91648 z m 1.534475,-0.541533 C 9.5687222,10.541806 10.231725,10.229615 10.796875,9.7832038 11.019557,9.6073072 11.43901,9.1782938 11.645889,8.9148369 11.851617,8.6528472 12.21875,8.0765628 12.21875,8.015625 12.21875,7.99712 12.13527,7.8450612 12.033239,7.6777159 11.587574,6.9467603 11.008209,6.3497219 10.333501,5.9261269 8.7423794,4.9271903 6.7141941,5.0544544 5.203125,6.2480462 4.9804428,6.4239428 4.5609903,6.8529562 4.3541106,7.1164131 4.1483834,7.3784028 3.78125,7.9546872 3.78125,8.015625 c 0,0.060938 0.3671334,0.6372222 0.5728606,0.8992119 0.219761,0.2798609 0.6301916,0.6955272 0.8848603,0.8961481 0.5944891,0.468321 1.353566,0.798714 2.1204041,0.922919 0.3805722,0.06164 1.1184381,0.04087 1.5086641,-0.04246 z"
       id="path821"
       inkscape:connector-curvature="0" />
    <path
       style="fill:#000000;stroke-width:0.000357143"
       d="M 7.6876684,8.44977 C 6.97962,8.1924953 6.7728872,7.3193719 7.2961294,6.7961294 7.5014528,6.5908059 7.6872622,6.5171641 8,6.5171641 c 0.3127378,0 0.4985472,0.073642 0.7038706,0.2789653 C 8.9091941,7.0014528 8.9828359,7.1872622 8.9828359,7.5 c 0,0.3127378 -0.073642,0.4985472 -0.2789653,0.7038706 C 8.4471069,8.4606341 8.0091959,8.5665994 7.6876684,8.44977 Z"
       id="path819"
       inkscape:connector-curvature="0" />
  </g>
</svg>
