<?xml version="1.0" encoding="UTF-8" standalone="no"?>
<!-- Created with Inkscape (http://www.inkscape.org/) -->

<svg
   version="1.1"
   id="svg2"
   width="1600"
   height="1600"
   viewBox="0 0 1600 1600"
   sodipodi:docname="object_datamode.svg"
   inkscape:version="1.2.2 (732a01da63, 2022-12-09)"
   xmlns:inkscape="http://www.inkscape.org/namespaces/inkscape"
   xmlns:sodipodi="http://sodipodi.sourceforge.net/DTD/sodipodi-0.dtd"
   xmlns="http://www.w3.org/2000/svg"
   xmlns:svg="http://www.w3.org/2000/svg"
   xmlns:rdf="http://www.w3.org/1999/02/22-rdf-syntax-ns#"
   xmlns:cc="http://creativecommons.org/ns#"
   xmlns:dc="http://purl.org/dc/elements/1.1/">
  <metadata
     id="metadata8">
    <rdf:RDF>
      <cc:Work
         rdf:about="">
        <dc:format>image/svg+xml</dc:format>
        <dc:type
           rdf:resource="http://purl.org/dc/dcmitype/StillImage" />
      </cc:Work>
    </rdf:RDF>
  </metadata>
  <defs
     id="defs6" />
  <sodipodi:namedview
     pagecolor="#808080"
     bordercolor="#666666"
     borderopacity="1"
     objecttolerance="10"
     gridtolerance="10"
     guidetolerance="10"
     inkscape:pageopacity="0"
     inkscape:pageshadow="2"
     inkscape:window-width="1993"
     inkscape:window-height="1009"
     id="namedview4"
     showgrid="false"
     inkscape:zoom="0.5"
     inkscape:cx="233"
     inkscape:cy="600"
     inkscape:window-x="-8"
     inkscape:window-y="-8"
     inkscape:window-maximized="1"
     inkscape:current-layer="OBJECT_DATAMODE"
     inkscape:showpageshadow="0"
     inkscape:pagecheckerboard="true"
     inkscape:deskcolor="#d1d1d1" />
  <g
     id="OBJECT_DATAMODE"
     transform="matrix(100,0,0,100,0,4.9999997e-5)"
     style="stroke-width:0.0114286">
    <path
       style="fill:none;stroke-width:0.000357143"
       d="M 0,8 V 0 h 8 8 v 8 8 H 8 0 Z m 11.241621,5.003289 c 1.976189,-0.98831 3.084904,-1.559474 3.139203,-1.617187 0.04617,-0.04907 0.09891,-0.128814 0.117188,-0.177199 0.0466,-0.123335 0.04651,-7.2635593 -9.4e-5,-7.3865561 -0.01833,-0.048385 -0.06404,-0.1211741 -0.101562,-0.1617547 -0.03753,-0.04058 -1.457155,-0.7683148 -3.15473,-1.6171874 C 8.5506769,0.69779441 8.13725,0.5 8.015625,0.5 7.894,0.5 7.4805731,0.69779441 4.7896237,2.0434048 3.0920494,2.8922774 1.6724211,3.6200119 1.6348941,3.6605922 c -0.037527,0.040581 -0.08323,0.11337 -0.1015625,0.1617547 -0.046602,0.1229969 -0.046693,7.2632211 -9.37e-5,7.3865561 0.018281,0.04839 0.071015,0.128124 0.1171875,0.177199 0.0543,0.05771 1.1630146,0.628877 3.1392038,1.617187 2.9138002,1.457219 3.0631595,1.527961 3.2259958,1.527961 0.1628363,0 0.3121956,-0.07074 3.225996,-1.527961 z"
       id="path827"
       inkscape:connector-curvature="0" />
    <path
       style="fill:#fecb32;stroke-width:0.000357143"
       d="M 4.9982106,5.5015078 2.0120464,4.0066016 2.1486868,3.9402166 c 0.075152,-0.036512 0.1519584,-0.056918 0.1706803,-0.045347 0.018722,0.011571 0.025845,0.00778 0.015828,-0.00843 C 2.3251793,3.8702338 3.5992038,3.21591 5.1663609,2.4323872 L 8.0157378,1.0078007 10.868958,2.4344786 c 1.581318,0.7906967 2.842007,1.438962 2.828068,1.4542348 -0.01392,0.015256 -0.0086,0.018085 0.01187,0.00634 0.02036,-0.011671 0.09851,0.00865 0.173663,0.045165 l 0.13664,0.066385 -2.99423,1.4966997 C 9.3781456,6.326485 8.0203094,6.9991931 8.0075584,6.9982072 7.9948075,6.9972197 6.6406009,6.3237063 4.9982106,5.5015078 Z"
       id="path825"
       inkscape:connector-curvature="0" />
    <path
       style="fill:#fe9832;stroke-width:0.000357143"
       d="M 4.9921875,12.528233 2,11.031185 V 7.5312175 C 2,4.7511844 2.00804,4.0315944 2.039063,4.0329234 c 0.021484,9.219e-4 1.375,0.672405 3.0078125,1.4921875 l 2.96875,1.4905141 0.00795,3.482676 c 0.00437,1.915472 -0.00266,3.492644 -0.015625,3.504828 -0.012966,0.01218 -1.3700585,-0.65152 -3.0157616,-1.474896 z"
       id="path823"
       inkscape:connector-curvature="0" />
    <path
       style="fill:#986500;stroke-width:0.000357143"
       d="M 8.015625,10.523438 V 7.015625 l 2.96875,-1.4904659 c 1.632813,-0.8197563 2.986328,-1.4912407 3.007813,-1.4921875 0.03103,-0.00137 0.03906,0.7181871 0.03906,3.4982462 v 3.4999682 l -2.999936,1.500032 c -1.649964,0.825018 -3.0034796,1.500032 -3.0078121,1.500033 -0.00433,0 -0.00788,-1.578515 -0.00788,-3.507813 z"
       id="path821"
       inkscape:connector-curvature="0" />
    <path
       style="fill:#320000;stroke-width:0.000357143"
       d="M 4.7896294,13.003289 C 2.8134402,12.014979 1.7047255,11.443815 1.6504256,11.386102 1.6042534,11.337027 1.551519,11.257288 1.5332381,11.208903 1.4866389,11.085568 1.4867294,3.9453437 1.5333318,3.8223469 1.5516642,3.7739622 1.5973673,3.7011728 1.6348943,3.6605922 1.6724211,3.6200119 3.0920494,2.8922774 4.7896237,2.0434048 7.4805731,0.69779441 7.894,0.5 8.015625,0.5 c 0.121625,0 0.5350519,0.19779441 3.226001,1.5434048 1.697575,0.8488726 3.117203,1.5766071 3.15473,1.6171874 0.03753,0.040581 0.08323,0.11337 0.101562,0.1617547 0.0466,0.1229969 0.04669,7.2632211 9.4e-5,7.3865561 -0.01828,0.04839 -0.07101,0.128124 -0.117187,0.177199 -0.0543,0.05771 -1.163015,0.628877 -3.139204,1.617187 -2.9138004,1.457219 -3.0631597,1.527961 -3.225996,1.527961 -0.1628363,0 -0.3121956,-0.07074 -3.2259956,-1.527961 z M 11.031314,12.531218 14.03125,11.031186 V 7.5233297 4.0154737 L 11.023438,2.5116644 8.015625,1.0078552 5.0078125,2.5116646 2,4.0154741 v 3.5078556 3.5078553 l 2.9921875,1.498311 c 1.6457031,0.824071 3.0027634,1.499086 3.0156894,1.500032 0.012926,9.47e-4 1.3734731,-0.673292 3.0234371,-1.49831 z"
       id="path819"
       inkscape:connector-curvature="0" />
  </g>
</svg>
