<?xml version="1.0" encoding="UTF-8" standalone="no"?>
<!-- Created with Inkscape (http://www.inkscape.org/) -->

<svg
   version="1.1"
   id="svg2"
   width="1600"
   height="1600"
   viewBox="0 0 1600 1600"
   sodipodi:docname="onionskin_on.svg"
   inkscape:version="1.2.2 (732a01da63, 2022-12-09)"
   xmlns:inkscape="http://www.inkscape.org/namespaces/inkscape"
   xmlns:sodipodi="http://sodipodi.sourceforge.net/DTD/sodipodi-0.dtd"
   xmlns="http://www.w3.org/2000/svg"
   xmlns:svg="http://www.w3.org/2000/svg"
   xmlns:rdf="http://www.w3.org/1999/02/22-rdf-syntax-ns#"
   xmlns:cc="http://creativecommons.org/ns#"
   xmlns:dc="http://purl.org/dc/elements/1.1/">
  <metadata
     id="metadata8">
    <rdf:RDF>
      <cc:Work
         rdf:about="">
        <dc:format>image/svg+xml</dc:format>
        <dc:type
           rdf:resource="http://purl.org/dc/dcmitype/StillImage" />
      </cc:Work>
    </rdf:RDF>
  </metadata>
  <defs
     id="defs6" />
  <sodipodi:namedview
     pagecolor="#808080"
     bordercolor="#666666"
     borderopacity="1"
     objecttolerance="10"
     gridtolerance="10"
     guidetolerance="10"
     inkscape:pageopacity="0"
     inkscape:pageshadow="2"
     inkscape:window-width="1993"
     inkscape:window-height="1009"
     id="namedview4"
     showgrid="false"
     inkscape:zoom="0.5"
     inkscape:cx="439"
     inkscape:cy="736"
     inkscape:window-x="-8"
     inkscape:window-y="-8"
     inkscape:window-maximized="1"
     inkscape:current-layer="ONIONSKIN_ON"
     inkscape:showpageshadow="0"
     inkscape:pagecheckerboard="true"
     inkscape:deskcolor="#d1d1d1" />
  <g
     id="ONIONSKIN_ON"
     transform="matrix(100,0,0,100,0,4.9999997e-5)"
     style="stroke-width:0.0114286">
    <path
       style="fill:none;stroke-width:0.000357143"
       d="M 0,8 V 0 h 8 8 v 8 8 H 8 0 Z m 10.269231,7.419944 C 10.47238,15.268243 10.482973,15.232253 10.5,14.63589 l 0.01563,-0.547271 0.26599,-0.102755 c 0.335915,-0.129769 0.781632,-0.353133 1.105516,-0.554012 0.397849,-0.246755 0.722595,-0.517316 1.160663,-0.967006 0.60705,-0.623154 0.952922,-1.178168 1.202924,-1.930311 C 14.454134,9.9225509 14.484375,9.7239441 14.484375,9 c 0,-0.7239441 -0.03024,-0.9225509 -0.233657,-1.534535 C 14.000716,6.7133222 13.654844,6.1583081 13.047794,5.5351541 12.506798,4.979805 12.130865,4.6875938 11.556331,4.3758444 11.405997,4.2942712 11.035228,3.9985947 10.417991,3.4680528 L 9.5026022,2.6812374 9.4934887,1.7490988 C 9.484835,0.86399434 9.4811241,0.81260881 9.4199441,0.73072347 9.3845072,0.68329331 9.3166791,0.61549287 9.269215,0.58005591 9.1856103,0.51763597 9.1459963,0.515625 8,0.515625 c -1.1459962,0 -1.1856103,0.002011 -1.269215,0.0644309 -0.047464,0.035437 -0.1152922,0.1032374 -0.1507291,0.15066756 -0.06118,0.0818853 -0.064891,0.13327087 -0.073545,1.01837534 L 6.4973978,2.6812374 5.5820091,3.4680528 C 4.9647716,3.9985947 4.5940031,4.2942712 4.4436694,4.3758444 3.8691353,4.6875937 3.4932025,4.979805 2.9522056,5.5351541 2.3451558,6.1583081 1.9992842,6.7133222 1.7492815,7.465465 1.5458659,8.0774491 1.515625,8.2760559 1.515625,9 c 0,0.7239441 0.030241,0.9225509 0.2336565,1.534535 0.2500027,0.752143 0.5958743,1.307157 1.2029241,1.930311 0.4380688,0.44969 0.7628141,0.720251 1.1606638,0.967006 0.323884,0.200879 0.7696006,0.424243 1.1055156,0.554012 L 5.484375,14.088619 5.5,14.630247 c 0.00937,0.324801 0.030114,0.566648 0.051818,0.604128 0.051965,0.08974 0.1700866,0.194333 0.2606978,0.230848 0.05034,0.02029 0.8410947,0.02929 2.2242713,0.02532 2.1140019,-0.0061 2.1474549,-0.0071 2.2324439,-0.07059 z"
       id="path829"
       inkscape:connector-curvature="0" />
    <path
       style="fill:#fefefe;stroke-width:0.000357143"
       d="m 8,13.002249 v -0.497752 l 0.1796875,-0.01922 c 0.7759388,-0.08299 1.1445072,-0.155818 1.6119369,-0.31852 0.5150956,-0.179292 0.9566606,-0.418041 1.3802506,-0.746283 0.724875,-0.561709 1.151493,-1.271334 1.281381,-2.1314135 0.03737,-0.2474644 0.03737,-0.3306606 0,-0.578125 C 12.396187,8.3330459 12.304481,8.0413028 12.147355,7.73778 11.828795,7.1224125 11.317653,6.606845 10.65625,6.233765 10.192034,5.9719131 10.097131,5.8993206 9.1351578,5.0702688 8.6165259,4.6232987 8.1489478,4.2268044 8.0960953,4.18917 L 8,4.1207441 V 3.4197472 C 8,2.747445 8.002475,2.71875 8.0604656,2.71875 c 0.1913857,0 0.3838663,0.1603562 0.4570857,0.3807993 0.036455,0.1097551 0.089936,0.1842932 0.1925693,0.2683913 0.078154,0.064039 0.5726138,0.4865831 1.098801,0.9389872 0.5261864,0.4524038 1.0269364,0.8586788 1.1127764,0.9028331 1.188751,0.6114663 2.08182,1.6298428 2.405954,2.743536 0.09414,0.323465 0.17198,0.7971978 0.17198,1.0467031 0,0.2495053 -0.07784,0.7232381 -0.17198,1.046703 C 12.856438,11.665748 11.27396,12.959932 9.28125,13.355936 8.9126431,13.429188 8.3339628,13.5 8.1039475,13.5 H 8 Z M 8,10.975158 V 10.47258 l 0.1484375,-0.0197 C 8.9471309,10.346868 9.4441841,10.170559 9.890625,9.8349091 10.203256,9.5998619 10.436545,9.2434859 10.43717,9 10.437914,8.7101781 10.08524,8.2530312 9.6898119,8.03125 9.2639544,7.7924019 8.7973381,7.46756 8.4102044,7.1404325 L 8.0036272,6.796875 l -0.00181,-0.6798853 -0.00181,-0.6798856 0.7109375,0.61374 c 0.6948097,0.5998168 0.9991409,0.8260356 1.4175273,1.0536909 0.680984,0.3705419 1.171986,0.9893322 1.299455,1.6376525 0.04675,0.2377897 0.04675,0.2778353 0,0.515625 -0.099,0.5035034 -0.410107,0.9859335 -0.870665,1.3501145 -0.5929023,0.46883 -1.4249351,0.775377 -2.3033758,0.848636 L 8,11.477736 Z M 8,8.8004756 c 0,-0.5921775 0.015684,-0.7140072 0.078777,-0.61192 0.029048,0.047002 0.7458287,0.523875 0.9837225,0.65447 0.1117188,0.06133 0.203125,0.132285 0.203125,0.1576788 0,0.115735 -0.6465256,0.3666456 -1.0863337,0.4215962 L 8,9.4447016 Z"
       id="path827"
       inkscape:connector-curvature="0" />
    <path
       style="fill:#fedbb2;stroke-width:0.000357143"
       d="M 4.5625,9.7014053 C 3.8323191,9.5445809 3.2007041,8.9071794 3.0468548,8.171875 2.7497343,6.7518228 4.0018228,5.4997344 5.421875,5.7968547 6.1647875,5.9522959 6.7977041,6.5852125 6.9531453,7.328125 7.2513347,8.7532863 5.9878991,10.007545 4.5625,9.7014053 Z"
       id="path825"
       inkscape:connector-curvature="0" />
    <path
       style="fill:#fe8800;stroke-width:0.000357143"
       d="M 7.265625,13.963264 C 6.2970925,13.86575 5.207155,13.499504 4.4074722,13.002855 3.5887728,12.494395 2.86082,11.717288 2.4641087,10.928269 2.3162885,10.634269 2.1504885,10.148609 2.072527,9.78125 1.9939732,9.4111 1.9939732,8.5889 2.072527,8.21875 2.2642878,7.3151625 2.6633212,6.5666503 3.3109366,5.8957244 3.7717669,5.4183066 4.2623331,5.0474344 4.7970519,4.7722088 4.8828919,4.7280259 5.3960938,4.3096866 5.9375,3.8425656 6.4789062,3.375445 6.9394531,2.986237 6.9609375,2.9776592 6.9910269,2.9656458 7,2.7367057 7,1.9810316 V 1 h 1 1 v 0.9810316 c 0,0.7556741 0.00897,0.9846142 0.039063,0.9966276 0.021484,0.00858 0.4820313,0.3977858 1.023438,0.8649064 0.541406,0.467121 1.054608,0.8854603 1.140448,0.9296431 0.979653,0.5042382 1.873046,1.3848341 2.332943,2.2995225 0.147821,0.2939997 0.31362,0.77966 0.391582,1.1470188 0.07855,0.37015 0.07855,1.19235 0,1.5625 -0.191761,0.903588 -0.590795,1.6521 -1.23841,2.323026 -0.181329,0.187855 -0.442739,0.429938 -0.58091,0.537962 -1.283346,1.003329 -3.0934735,1.497125 -4.842529,1.321026 z M 8.54926,13.466782 c 2.089201,-0.203299 3.835304,-1.301075 4.572847,-2.87495 C 13.336184,10.135004 13.499632,9.4458266 13.499632,9 c 0,-0.2495053 -0.07784,-0.7232381 -0.17198,-1.0467031 C 13.003517,6.8396037 12.110449,5.8212272 10.921698,5.2097609 10.835858,5.1656066 10.335108,4.7593316 9.8089216,4.3069278 9.2827344,3.8545237 8.7882741,3.4319794 8.7101206,3.3679406 8.6074869,3.2838425 8.5540059,3.2093044 8.5175512,3.0995493 8.4443319,2.8791062 8.2518513,2.71875 8.0604656,2.71875 8.0009119,2.71875 8,2.8000391 8,8.109375 V 13.5 h 0.1039475 c 0.057171,0 0.2575619,-0.01495 0.4453125,-0.03322 z M 5.421875,9.7031453 C 5.9893009,9.5844216 6.5219291,9.1725119 6.7769522,8.6551922 7.1715666,7.8547078 7.0294266,6.9631384 6.4081441,6.3418559 c -0.7875394,-0.787539 -2.0287488,-0.787539 -2.8162882,0 -0.787539,0.7875394 -0.787539,2.0287488 0,2.8162882 0.4871003,0.4871003 1.1554503,0.6861428 1.8300191,0.5450012 z"
       id="path823"
       inkscape:connector-curvature="0" />
    <path
       style="fill:#4c380c;stroke-width:0.000357143"
       d="m 6,14.356032 c 0,-0.535178 0.0073,-0.641169 0.043193,-0.627394 0.096409,0.03699 0.7719088,0.177147 1.0349322,0.214726 0.1560197,0.02229 0.5664969,0.04018 0.921875,0.04018 0.3553781,0 0.7658553,-0.01789 0.921875,-0.04018 0.2630234,-0.03758 0.9385234,-0.177731 1.0349322,-0.214726 C 9.9927031,13.714863 10,13.820854 10,14.356032 V 15 H 8 6 Z"
       id="path821"
       inkscape:connector-curvature="0" />
    <path
       style="fill:#000000;stroke-width:0.000357143"
       d="M 5.8125159,15.465223 C 5.7219047,15.428708 5.6037831,15.324111 5.5518181,15.234375 5.5301141,15.196895 5.50937,14.955048 5.5,14.630247 L 5.484375,14.088619 5.218385,13.985864 C 4.88247,13.856095 4.4367534,13.632731 4.1128694,13.431852 3.7150197,13.185097 3.3902744,12.914536 2.9522056,12.464846 2.3451558,11.841692 1.9992842,11.286678 1.7492815,10.534535 1.5458659,9.9225509 1.515625,9.7239441 1.515625,9 1.515625,8.2760559 1.545866,8.0774491 1.7492815,7.465465 1.9992842,6.7133222 2.3451558,6.1583081 2.9522056,5.5351541 3.4932025,4.979805 3.8691353,4.6875938 4.4436694,4.3758444 4.5940031,4.2942712 4.9647716,3.9985947 5.5820091,3.4680528 L 6.4973978,2.6812374 6.5065113,1.7490988 C 6.515165,0.86399434 6.5188759,0.81260881 6.5800559,0.73072347 6.6154928,0.68329331 6.6833209,0.61549288 6.730785,0.58005591 6.8143897,0.51763597 6.8540038,0.515625 8,0.515625 c 1.1459963,0 1.1856103,0.002011 1.269215,0.0644309 0.047464,0.035437 0.1152922,0.1032374 0.1507291,0.15066756 0.06118,0.0818853 0.064891,0.13327087 0.073545,1.01837534 l 0.00911,0.9321386 0.9153889,0.7868154 c 0.617237,0.5305419 0.988006,0.8262184 1.13834,0.9077916 0.574534,0.3117493 0.950466,0.6039606 1.491463,1.1593097 0.60705,0.623154 0.952922,1.1781681 1.202924,1.9303109 0.203416,0.6119841 0.233657,0.8105909 0.233657,1.534535 0,0.7239441 -0.03024,0.9225509 -0.233657,1.534535 -0.250002,0.752143 -0.595874,1.307157 -1.202924,1.930311 -0.438068,0.44969 -0.762814,0.720251 -1.160663,0.967006 -0.323884,0.200879 -0.769601,0.424243 -1.105516,0.554012 L 10.515625,14.088619 10.5,14.63589 c -0.01703,0.596363 -0.02762,0.632353 -0.230769,0.784054 -0.08499,0.06347 -0.118442,0.06452 -2.2324438,0.07059 -1.3831766,0.004 -2.173931,-0.005 -2.2242713,-0.02532 z m 4.1946621,-1.109298 0.0084,-0.644075 0.342685,-0.120564 c 0.922953,-0.324714 1.669592,-0.800948 2.330753,-1.486643 0.648008,-0.672053 1.046699,-1.420043 1.23841,-2.323393 0.07855,-0.37015 0.07855,-1.19235 0,-1.5625 C 13.735712,7.3151625 13.336679,6.5666503 12.689063,5.8957244 12.228233,5.4183066 11.737667,5.0474344 11.202948,4.7722087 11.117108,4.7280259 10.603906,4.3096866 10.0625,3.8425656 9.5210938,3.375445 9.0605469,2.986237 9.0390625,2.9776592 9.0089731,2.9656458 9,2.7367057 9,1.9810316 V 1 H 8 7 V 1.9810316 C 7,2.7367057 6.9910269,2.9656458 6.9609375,2.9776592 6.9394531,2.986237 6.4789062,3.375445 5.9375,3.8425656 5.3960938,4.3096866 4.8828919,4.7280259 4.7970519,4.7722087 3.8173994,5.2764469 2.9240049,6.1570428 2.4641087,7.0717312 2.3162885,7.3657309 2.1504885,7.8513912 2.072527,8.21875 c -0.078554,0.37015 -0.078554,1.19235 0,1.5625 0.1917104,0.90335 0.5904022,1.65134 1.2384096,2.323393 0.6611612,0.685695 1.4078,1.161929 2.3307534,1.486643 L 5.984375,13.71185 5.992825,14.355925 6.0012681,15 H 8 9.9987319 Z M 8,11.99042 v -0.512684 l 0.2538791,-0.02117 c 0.8784406,-0.07326 1.7104734,-0.379806 2.3033749,-0.848636 0.460559,-0.364181 0.771669,-0.8466111 0.870665,-1.3501145 0.04675,-0.2377897 0.04675,-0.2778353 0,-0.515625 C 11.300475,8.0939909 10.810487,7.4763606 10.128465,7.1042228 9.7008628,6.8709066 9.4331028,6.6722984 8.734375,6.0701722 L 8.015625,5.4507916 8.0071834,4.78532 l -0.00844,-0.6654716 0.096725,0.068874 c 0.053198,0.037881 0.5210593,0.4345766 1.0396912,0.8815466 0.9619734,0.8290518 1.0568764,0.9016443 1.5210924,1.1634962 0.661403,0.37308 1.172545,0.8886475 1.491105,1.504015 0.157126,0.3035228 0.248832,0.5952659 0.305901,0.9731575 0.03737,0.2474644 0.03737,0.3306606 0,0.578125 -0.174007,1.1522183 -0.880893,2.0354553 -2.127512,2.6582743 -0.5643467,0.281951 -1.2116504,0.444908 -2.1304317,0.536332 L 8,12.503103 Z M 8,9.9604466 V 9.4483138 L 8.2538328,9.4094563 C 8.3934409,9.3880847 8.5938316,9.3433291 8.6991453,9.3099991 8.9517925,9.2300412 9.265625,9.0586903 9.265625,9.0007044 9.265625,8.9753106 9.1742188,8.9043553 9.0625,8.8430256 8.8826563,8.7442981 8.2001459,8.2935194 8.0546875,8.1773941 8.0057056,8.13829 8,8.0648116 8,7.4731175 8,7.1097778 8.0076513,6.8125 8.0170028,6.8125 c 0.00935,0 0.1816172,0.1425513 0.3828125,0.3167806 C 8.7496722,7.4322462 9.2713681,7.7971053 9.6895025,8.03125 10.084983,8.2527091 10.437914,8.7100009 10.43717,9 10.436545,9.2434859 10.203256,9.5998619 9.890625,9.8349091 9.4441841,10.170559 8.9471309,10.346868 8.1484375,10.452878 L 8,10.47258 Z"
       id="path819"
       inkscape:connector-curvature="0" />
  </g>
</svg>
