<?xml version="1.0" encoding="UTF-8" standalone="no"?>
<!-- Created with Inkscape (http://www.inkscape.org/) -->

<svg
   version="1.1"
   id="svg2"
   width="1600"
   height="1600"
   viewBox="0 0 1600 1600"
   sodipodi:docname="orbit_opposite.svg"
   inkscape:version="1.2.2 (732a01da63, 2022-12-09)"
   xmlns:inkscape="http://www.inkscape.org/namespaces/inkscape"
   xmlns:sodipodi="http://sodipodi.sourceforge.net/DTD/sodipodi-0.dtd"
   xmlns="http://www.w3.org/2000/svg"
   xmlns:svg="http://www.w3.org/2000/svg"
   xmlns:rdf="http://www.w3.org/1999/02/22-rdf-syntax-ns#"
   xmlns:cc="http://creativecommons.org/ns#"
   xmlns:dc="http://purl.org/dc/elements/1.1/">
  <metadata
     id="metadata8">
    <rdf:RDF>
      <cc:Work
         rdf:about="">
        <dc:format>image/svg+xml</dc:format>
        <dc:type
           rdf:resource="http://purl.org/dc/dcmitype/StillImage" />
      </cc:Work>
    </rdf:RDF>
  </metadata>
  <defs
     id="defs6" />
  <sodipodi:namedview
     pagecolor="#808080"
     bordercolor="#666666"
     borderopacity="1"
     objecttolerance="10"
     gridtolerance="10"
     guidetolerance="10"
     inkscape:pageopacity="0"
     inkscape:pageshadow="2"
     inkscape:window-width="2560"
     inkscape:window-height="1009"
     id="namedview4"
     showgrid="false"
     inkscape:zoom="0.5"
     inkscape:cx="804"
     inkscape:cy="874"
     inkscape:window-x="-8"
     inkscape:window-y="-8"
     inkscape:window-maximized="1"
     inkscape:current-layer="ORBIT_OPPOSITE"
     inkscape:showpageshadow="0"
     inkscape:pagecheckerboard="true"
     inkscape:deskcolor="#d1d1d1" />
  <g
     id="ORBIT_OPPOSITE"
     transform="matrix(99.998159,0,0,99.998159,0.0294557,0.0294577)"
     style="stroke-width:0.0100002">
    <path
       style="fill:none;stroke-width:0.000312506"
       d="m 0.00149176,14.132813 c 0.00138838,-1.737791 0.00489728,-1.857454 0.05063303,-1.726731 0.10957749,0.313196 0.14555299,0.343843 2.30022481,1.959506 1.1356223,0.851537 2.108026,1.567085 2.1608966,1.590107 0.081486,0.03548 -0.2549381,0.04204 -2.2085587,0.04308 L 0,16 Z M 5.53125,15.944993 c 0.1571375,-0.07699 0.3489756,-0.279646 0.4360175,-0.460618 0.058473,-0.121574 0.078146,-0.222873 0.088647,-0.456458 l 0.013495,-0.300207 0.2231078,0.059 c 0.5460019,0.144378 0.9752794,0.193944 1.6918578,0.195346 0.7557213,0.0015 1.0746541,-0.03576 1.7468366,-0.203965 1.4380993,-0.359864 2.7756313,-1.219198 3.7153743,-2.387043 0.144324,-0.179355 0.338664,-0.377903 0.456957,-0.46685 0.298747,-0.224634 0.932613,-0.866608 1.156873,-1.17167 0.481216,-0.6546 0.793096,-1.3566521 0.917367,-2.065024 0.0075,-0.042969 0.01562,1.584766 0.01796,3.617188 L 16,16 10.710938,15.999288 C 5.6932403,15.998613 5.4274866,15.995828 5.53125,15.944993 Z M 0.00298352,9.96875 c 0,-1.672765 0.00339419,-1.7871738 0.04914127,-1.6564184 0.13401766,0.3830522 0.44805749,0.6325837 0.85970871,0.6831118 l 0.1644183,0.020182 0.037922,0.2266081 c 0.044483,0.2658091 0.142998,0.6613982 0.2339556,0.9394505 0.035499,0.108519 0.059583,0.201278 0.05352,0.20613 -0.00606,0.0049 -0.2643319,0.198615 -0.57392985,0.430586 C 0.24967987,11.251504 0.14464248,11.360995 0.0512297,11.627816 0.00669639,11.75502 0.00298352,11.627343 0.00298352,9.96875 Z M 15.943581,7.6830978 C 15.829682,7.3181522 15.497717,7.0548269 15.088167,7.0045566 L 14.923748,6.984375 14.885826,6.7577669 C 14.841343,6.4919578 14.742828,6.0963687 14.65187,5.8183162 14.61637,5.7097966 14.59229,5.6170378 14.59835,5.6121859 c 0.0061,-0.00485 0.264332,-0.1986153 0.57393,-0.4305856 0.57804,-0.4331041 0.683078,-0.5425956 0.77649,-0.8094166 0.04457,-0.1273012 0.04836,-0.0014 0.04974,1.6512538 8.22e-4,0.9839844 -0.0021,1.7890625 -0.0065,1.7890625 -0.0044,0 -0.02619,-0.058231 -0.0484,-0.1294022 z M 0.00425569,3.6953125 0,0 5.2890625,7.1156531e-4 C 10.30676,0.00138662 10.572513,0.00417238 10.46875,0.05500754 10.311613,0.13199154 10.119774,0.33465313 10.032733,0.515625 9.9742591,0.63719934 9.9545863,0.73849834 9.9440859,0.97208272 L 9.9305906,1.2722904 9.7074828,1.2132943 C 9.1614809,1.0689158 8.7322034,1.0193504 8.015625,1.0179486 7.2599038,1.0164702 6.9409709,1.0537095 6.2687884,1.2219136 4.8306887,1.5817774 3.4931566,2.4411109 2.5534139,3.6089556 2.4090904,3.7883106 2.2147498,3.9868588 2.0964568,4.0758059 1.7977103,4.3004403 1.1638438,4.9424144 0.93958422,5.2474756 0.45836788,5.9020763 0.14648812,6.6041281 0.022217,7.3125 0.01467891,7.3554687 0.00659632,5.7277344 0.00425569,3.6953125 Z M 15.943581,3.5893478 C 15.850499,3.2911016 15.802272,3.2500372 13.64765,1.6344123 12.512028,0.78287541 11.539624,0.06732707 11.486754,0.04430488 11.405268,0.00882256 11.741692,0.00226004 13.695313,0.00122318 L 16,0 v 1.859375 c 0,1.0226562 -0.0036,1.859375 -0.008,1.859375 -0.0044,0 -0.02619,-0.058231 -0.0484,-0.1294022 z"
       id="path829"
       inkscape:connector-curvature="0" />
    <path
       style="fill:#fefefe;stroke-width:0.000312506"
       d="M 2.9974196,13.576563 C 1.5237236,12.471596 1.0137182,12.073 1.0081878,12.021876 1.0019803,11.964493 1.3305578,11.706389 2.9953276,10.460938 4.092345,9.6402344 5.0062387,8.96875 5.0262022,8.96875 c 0.026822,0 0.036298,0.2663313 0.036298,1.0202534 v 1.0202536 l 1.4296875,-0.01822 c 1.5197591,-0.01937 2.0801459,-0.05665 2.9415712,-0.195702 1.8170261,-0.293309 3.2292271,-0.8682095 3.9787171,-1.6197179 0.335089,-0.3359919 0.50158,-0.6447363 0.57076,-1.0584316 L 14.002832,8 h 0.503297 0.503298 l -0.01904,0.2890625 C 14.954921,8.827685 14.720897,9.4469584 14.346085,9.9940247 13.391479,11.387342 11.425103,12.446498 9.0576466,12.842556 8.2975059,12.969722 7.8063587,12.998683 6.3984375,12.999359 L 5.0625,13 v 1.03125 c 0,0.838248 -0.00779,1.03125 -0.041643,1.03125 -0.022904,0 -0.9334506,-0.668672 -2.0234374,-1.485937 z M 1.0096092,7.7109375 C 1.0450792,7.172315 1.279103,6.5530416 1.6539152,6.0059753 2.6085208,4.6126581 4.5748966,3.5535019 6.9423534,3.1574438 7.7024941,3.0302778 8.1936412,3.0013169 9.6015625,3.0006412 L 10.9375,3 V 1.96875 c 0,-0.8382475 0.0078,-1.03125 0.04164,-1.03125 0.0229,0 0.93345,0.6686716 2.023437,1.4859368 1.473696,1.1049676 1.983702,1.5035632 1.989232,1.5546876 0.0062,0.057382 -0.32237,0.3154869 -1.98714,1.5609381 -1.097017,0.8207031 -2.010911,1.4921875 -2.030874,1.4921875 -0.02682,0 -0.0363,-0.2663313 -0.0363,-1.0202534 V 4.9907431 L 9.5078125,5.0089612 C 7.9880534,5.0283272 7.4276666,5.0656097 6.5662412,5.2046631 4.7492147,5.4979719 3.3370138,6.0728725 2.5875239,6.8243809 2.2524346,7.1603728 2.085944,7.4691172 2.0167644,7.8828125 L 1.9971679,8 H 1.4938708 0.99057356 Z"
       id="path827"
       inkscape:connector-curvature="0" />
    <path
       style="fill:#97cafd;stroke-width:0.000312506"
       d="m 8.4375,13.953693 c 0.7408794,-0.08088 0.7111259,-0.07844 0.59375,-0.04865 -0.1446222,0.0367 -0.6850738,0.09589 -0.8347059,0.09142 -0.06513,-0.0019 0.0433,-0.02119 0.2409559,-0.04277 z m 0.7753906,-0.10004 c 0.022559,-0.009 0.049512,-0.0079 0.059896,0.0025 0.010384,0.01038 -0.00807,0.01777 -0.041016,0.01641 -0.036405,-0.0015 -0.043809,-0.0089 -0.01888,-0.01888 z m 0.15625,-0.03125 c 0.022559,-0.009 0.049512,-0.0079 0.059896,0.0025 0.010384,0.01038 -0.00807,0.01777 -0.041016,0.01641 -0.036405,-0.0015 -0.043809,-0.0089 -0.01888,-0.01888 z M 6.0568097,9.3550066 C 6.0470294,8.7355 6.0426841,8.695365 5.9693172,8.546875 5.8708278,8.3475384 5.6834737,8.160255 5.484375,8.062115 5.3498559,7.9958075 5.2846631,7.9850959 5.015625,7.9850959 c -0.2624947,0 -0.3355516,0.011415 -0.4565563,0.071334 -0.079231,0.039234 -0.6293862,0.4349078 -1.2225675,0.8792756 L 2.2579896,9.7436472 2.2238961,9.6296359 C 2.1881903,9.5102334 2.09375,9.0770566 2.09375,9.0326847 c 0,-0.014151 0.05173,-0.035433 0.1149551,-0.047295 C 2.6379628,8.9048606 2.9799403,8.5312059 3.022838,8.0958441 3.0458854,7.8619391 3.1147199,7.736435 3.3352991,7.5261422 4.00883,6.8840206 5.3530553,6.3933475 7.0812316,6.1587916 7.6962112,6.0753234 8.2270444,6.0382587 9.1617619,6.0135206 l 0.7711372,-0.020409 0.010291,0.6518815 c 0.00978,0.6195066 0.014126,0.6596416 0.087493,0.8081316 0.168475,0.3409828 0.478668,0.5451637 0.867755,0.5711894 0.229059,0.015322 0.27819,0.050185 0.182565,0.1295465 -0.0242,0.020083 -0.06556,0.08157 -0.09193,0.1366391 -0.02636,0.055069 -0.119028,0.1880434 -0.205927,0.2954994 -0.0869,0.1074559 -0.158818,0.2058934 -0.159822,0.21875 -10e-4,0.012856 -0.09245,0.1242262 -0.203202,0.2474878 -0.110757,0.1232619 -0.201376,0.2362019 -0.201376,0.2509781 0,0.014777 -0.08086,0.1068606 -0.179687,0.2046313 C 9.8679319,9.6771466 9.84747,9.6878919 9.609375,9.7334897 8.8466131,9.8795675 8.0173697,9.9552728 6.8382381,9.9864794 L 6.0671009,10.006888 Z M 13.389641,7.1171875 c -0.0081,-0.021484 -0.02068,-0.08125 -0.02806,-0.1328125 -0.01651,-0.1153541 -0.04647,-0.2644178 -0.06666,-0.3316019 -0.01044,-0.034764 0.05635,-0.1041503 0.215759,-0.2241312 l 0.230887,-0.1737794 0.03432,0.1147563 c 0.03588,0.1199743 0.130369,0.5531868 0.130369,0.5976965 0,0.014151 -0.05249,0.035575 -0.116634,0.04761 -0.06415,0.012034 -0.172259,0.048756 -0.240245,0.081603 -0.146463,0.070763 -0.141198,0.070083 -0.15973,0.02066 z M 6.5878906,2.1661527 c 0.022559,-0.00903 0.049512,-0.00792 0.059896,0.00247 0.010384,0.010384 -0.00807,0.01777 -0.041016,0.016413 -0.036405,-0.0015 -0.043809,-0.0089 -0.01888,-0.01888 z m 0.15625,-0.03125 c 0.022559,-0.00903 0.049512,-0.00792 0.059896,0.00247 0.010384,0.010384 -0.00807,0.01777 -0.041016,0.016413 -0.036405,-0.0015 -0.043809,-0.0089 -0.01888,-0.01888 z M 6.96875,2.0949609 c 0.1446222,-0.036699 0.6850737,-0.095893 0.8347059,-0.091423 0.06513,0.00195 -0.0433,0.021192 -0.2409559,0.042769 -0.7408794,0.080878 -0.7111259,0.078439 -0.59375,0.048654 z"
       id="path825"
       inkscape:connector-curvature="0" />
    <path
       style="fill:#316597;stroke-width:0.000312506"
       d="m 10.041555,9.5053759 c 0.09746,-0.098485 0.177195,-0.190305 0.177195,-0.204045 0,-0.01374 0.09272,-0.1281684 0.206041,-0.2542859 0.113323,-0.1261175 0.204763,-0.2374869 0.203202,-0.2474878 -0.0016,-0.010001 0.06826,-0.1061019 0.155157,-0.2135578 0.0869,-0.107456 0.179566,-0.2404306 0.205927,-0.2954994 0.02636,-0.055069 0.06773,-0.1165566 0.09193,-0.1366391 0.0242,-0.020082 0.044,-0.052991 0.044,-0.073131 0,-0.02014 0.07867,-0.060842 0.174822,-0.09045 0.2099,-0.064634 0.260635,-0.098641 1.211276,-0.8118919 0.41001,-0.3076244 0.756894,-0.5474362 0.770853,-0.532915 0.02403,0.024993 0.04796,0.1274 0.0792,0.3389022 0.0076,0.051563 0.02046,0.1113797 0.02854,0.1329269 0.0081,0.021547 -0.04499,0.098891 -0.11793,0.171875 -0.165363,0.1654587 -0.272296,0.3886865 -0.294593,0.614979 -0.02305,0.233905 -0.09188,0.3594091 -0.312461,0.5697019 -0.509996,0.4862131 -1.413386,0.8908119 -2.599708,1.1643244 l -0.2006324,0.046257 z"
       id="path823"
       inkscape:connector-curvature="0" />
    <path
       style="fill:#323232;stroke-width:0.000312506"
       d="M 4.5132462,15.956872 C 4.4603756,15.933203 3.4879719,15.217125 2.3523496,14.365588 0.18633113,12.741417 0.15987733,12.718794 0.05075897,12.397345 -0.01449148,12.205126 -0.01492445,11.827393 0.04988688,11.636496 0.15668894,11.321918 0.17491628,11.306368 2.3390488,9.6836556 3.4794319,8.8285719 4.4778694,8.0965891 4.5577988,8.0570269 c 0.122415,-0.060591 0.1945928,-0.071931 0.4578262,-0.071931 0.2690381,0 0.3342309,0.010712 0.46875,0.077019 0.1990988,0.09814 0.3864528,0.2854234 0.4849422,0.48476 0.073367,0.14849 0.077712,0.188625 0.087492,0.8081316 L 6.0671002,10.006888 6.8382374,9.986479 C 7.7729556,9.9617413 8.3037888,9.9246766 8.9187685,9.8412084 10.646945,9.6066525 11.99117,9.1159794 12.664701,8.4738578 12.88528,8.263565 12.954115,8.1380609 12.977162,7.9041559 c 0.03371,-0.3420731 0.253005,-0.6543084 0.569713,-0.8111515 0.153685,-0.076109 0.169076,-0.077379 0.9375,-0.077379 0.768424,0 0.783815,0.00127 0.9375,0.077379 0.199213,0.098656 0.386465,0.2859075 0.485121,0.4851206 0.07277,0.1469419 0.07732,0.1860359 0.07638,0.65625 -8.88e-4,0.4418478 -0.01077,0.5365622 -0.08498,0.8143666 -0.235925,0.8832431 -0.681213,1.6199934 -1.425527,2.3586014 -0.736739,0.731093 -1.615626,1.289979 -2.738494,1.741416 -0.578439,0.232555 -0.951495,0.352212 -1.577424,0.505951 C 9.0892534,13.916957 8.3339678,14 7.0165137,14 H 6.0625 v 0.608283 c 0,0.668451 -0.023111,0.793369 -0.1922734,1.039265 -0.049915,0.07256 -0.1571519,0.178027 -0.2383035,0.234375 l -0.1475481,0.102452 -0.4375,0.0078 c -0.3184341,0.0057 -0.4636616,-0.0039 -0.5336288,-0.03527 z M 5.0625,14.03125 V 13 l 1.3359375,-2.6e-5 c 1.6977622,-3.1e-5 2.3049494,-0.0542 3.3828125,-0.301774 2.330235,-0.535232 4.12687,-1.722971 4.8614,-3.213825 0.208512,-0.4232122 0.322756,-0.8159084 0.347741,-1.1953125 L 15.009427,8 H 14.506819 C 13.943693,8 13.991905,7.9775656 13.953917,8.2572825 13.927524,8.4516159 13.758096,8.7838972 13.571513,9.0072516 12.903907,9.8064222 11.474018,10.441963 9.6144119,10.766059 8.6525894,10.933688 7.6636025,10.998527 6.0546875,10.999438 L 5.0625,11 V 9.984375 c 0,-0.7504075 -0.00948,-1.015625 -0.036298,-1.015625 -0.019964,0 -0.9338572,0.6714844 -2.0308746,1.492188 -1.6647698,1.245451 -1.9933473,1.503555 -1.9871398,1.560938 0.00553,0.05112 0.5155358,0.44972 1.9892318,1.554687 1.089987,0.817265 2.0005338,1.485937 2.0234376,1.485937 0.033849,0 0.041643,-0.193002 0.041643,-1.03125 z M 0.68766837,8.9489169 C 0.37249744,8.8363113 0.1506636,8.6076219 0.04589525,8.2873113 -0.03488268,8.0403469 -0.00602625,7.3697866 0.10339,6.9512584 0.33186084,6.077335 0.78132072,5.3327491 1.5271305,4.5926566 2.2638701,3.8615644 3.1427572,3.3026778 4.265625,2.8512407 4.8440637,2.6186855 5.2171203,2.4990294 5.8430488,2.3452898 6.9107466,2.0830433 7.6660322,2 8.9834863,2 H 9.9375 V 1.3917171 c 0,-0.66845082 0.023111,-0.79336872 0.192273,-1.03926522 0.04992,-0.0725577 0.157152,-0.17802648 0.238304,-0.23437501 0.146663,-0.10183723 0.150099,-0.10251244 0.572772,-0.11254852 0.319039,-0.00757535 0.452241,0.00119152 0.533413,0.03510734 0.0595,0.0248622 1.037431,0.74198884 2.173172,1.59361481 2.166247,1.6243414 2.192688,1.6469529 2.301807,1.9684042 0.06525,0.1922197 0.06568,0.5699522 8.72e-4,0.7608494 -0.106802,0.3145781 -0.12503,0.3301275 -2.289162,1.9528403 -1.140383,0.8550837 -2.138821,1.5870665 -2.21875,1.6266287 -0.122415,0.060591 -0.194593,0.071931 -0.457826,0.071931 -0.269038,0 -0.334231,-0.010712 -0.46875,-0.077019 C 10.316526,7.839745 10.129172,7.6524616 10.030683,7.453125 9.9573156,7.304635 9.9529703,7.2645 9.94319,6.6449934 L 9.9328988,5.9931119 9.1617616,6.0135206 C 8.2270441,6.0382588 7.6962109,6.0753234 7.0812312,6.1587916 5.353055,6.3933475 4.0088297,6.8840206 3.3352988,7.5261422 3.1147196,7.736435 3.0458851,7.8619391 3.0228377,8.0958441 2.989132,8.4379172 2.7698331,8.7501525 2.4531247,8.9069956 2.3018191,8.9819266 2.2736362,8.9846081 1.5624997,8.9917375 0.95389497,8.9978391 0.80406984,8.9905063 0.68766806,8.9489169 Z M 2.0108923,7.9453125 c 0.00831,-0.030078 0.024143,-0.1212459 0.035191,-0.202595 C 2.0724757,7.5483841 2.2419037,7.2161028 2.4284877,6.9927484 3.0960932,6.1935778 4.5259819,5.5580369 6.3855881,5.2339406 7.3474106,5.0663119 8.3363975,5.0014731 9.9453125,5.0005619 L 10.9375,5 v 1.015625 c 0,0.7504075 0.0095,1.015625 0.0363,1.015625 0.01996,0 0.933857,-0.6714844 2.030875,-1.4921875 C 14.669442,4.2936112 14.99802,4.0355069 14.991812,3.9781244 14.986282,3.927 14.476276,3.5284044 13.00258,2.4234368 11.912593,1.6061716 11.002047,0.9375 10.979143,0.9375 c -0.03385,0 -0.04164,0.1930025 -0.04164,1.03125 V 3 l -1.3359375,2.61e-5 C 7.9038003,3.0000593 7.2966131,3.0542252 6.21875,3.3018 3.888515,3.8370322 2.0918796,5.0247706 1.35735,6.515625 1.1488375,6.9388372 1.0345942,7.3315334 1.0096092,7.7109375 L 0.99057356,8 H 1.4931809 C 1.9452673,8 1.9973065,7.9945 2.0108923,7.9453125 Z"
       id="path821"
       inkscape:connector-curvature="0" />
    <path
       style="fill:#000000;stroke-width:0.000312506"
       d="M 7.40625,14.979906 C 7.1519622,14.955445 6.5198028,14.846368 6.296875,14.788486 l -0.21875,-0.0568 -0.00878,-0.362976 -0.00878,-0.362975 1.3212793,-0.01487 c 1.4603469,-0.01643 1.3904632,-0.009 2.4619044,-0.26074 0.8079673,-0.189813 1.2235663,-0.316886 1.8437503,-0.563745 0.719337,-0.286326 1.239329,-0.556406 1.745869,-0.906793 0.109447,-0.07571 0.203649,-0.132994 0.209337,-0.127306 0.02424,0.02424 -0.532322,0.657405 -0.818055,0.930663 -1.028768,0.983853 -2.271049,1.601135 -3.7152763,1.846097 -0.36702,0.06225 -1.3621713,0.103654 -1.703125,0.07086 z M 1.347912,10.181029 C 1.2580456,9.9062966 1.1624548,9.5229606 1.1132441,9.23997 L 1.0715144,9 h 0.5056778 0.5056776 l 0.066469,0.3046875 c 0.036558,0.1675781 0.075437,0.3349322 0.086399,0.3718978 0.017109,0.0577 -0.03464,0.108131 -0.3657166,0.3563987 -0.2121053,0.159054 -0.4018767,0.301678 -0.4217143,0.316944 -0.025299,0.01947 -0.055274,-0.03096 -0.1003949,-0.168899 z M 13.850661,6.6953125 c -0.03656,-0.1675781 -0.07544,-0.3349322 -0.0864,-0.3718978 -0.01711,-0.0577 0.03464,-0.108131 0.365716,-0.3563988 0.212105,-0.1590534 0.401877,-0.3016781 0.421714,-0.3169434 0.0253,-0.019468 0.05527,0.03096 0.100395,0.1688984 0.08987,0.2747325 0.185457,0.6580685 0.234668,0.9410591 L 14.928486,7 H 14.422808 13.91713 Z M 2.490114,3.6812444 C 2.7239248,3.3802553 3.26272,2.8335618 3.5757166,2.5797274 4.3730734,1.9330858 5.30552,1.4629577 6.2687884,1.2219136 6.9409709,1.0537095 7.2599037,1.0164702 8.015625,1.0179486 c 0.7126231,0.00139 1.1331347,0.049629 1.6875,0.1935652 l 0.21875,0.056797 0.00878,0.3629751 0.00878,0.3629752 -1.3212793,0.014867 C 7.1578075,2.0255593 7.2276913,2.0181578 6.15625,2.2698673 5.3482834,2.4596797 4.9326837,2.5867535 4.3125,2.8336122 3.5942578,3.1195022 3.0732256,3.3900056 2.5688153,3.7388778 2.46057,3.813745 2.364715,3.875 2.3558043,3.875 c -0.00891,0 0.051529,-0.08719 0.1343097,-0.1937556 z"
       id="path819"
       inkscape:connector-curvature="0" />
  </g>
</svg>
