<?xml version="1.0" encoding="UTF-8" standalone="no"?>
<!-- Created with Inkscape (http://www.inkscape.org/) -->

<svg
   version="1.1"
   id="svg2"
   width="1600"
   height="1600"
   viewBox="0 0 1600 1600"
   sodipodi:docname="orbit_right.svg"
   inkscape:version="1.2.2 (732a01da63, 2022-12-09)"
   xmlns:inkscape="http://www.inkscape.org/namespaces/inkscape"
   xmlns:sodipodi="http://sodipodi.sourceforge.net/DTD/sodipodi-0.dtd"
   xmlns="http://www.w3.org/2000/svg"
   xmlns:svg="http://www.w3.org/2000/svg"
   xmlns:rdf="http://www.w3.org/1999/02/22-rdf-syntax-ns#"
   xmlns:cc="http://creativecommons.org/ns#"
   xmlns:dc="http://purl.org/dc/elements/1.1/">
  <metadata
     id="metadata8">
    <rdf:RDF>
      <cc:Work
         rdf:about="">
        <dc:format>image/svg+xml</dc:format>
        <dc:type
           rdf:resource="http://purl.org/dc/dcmitype/StillImage" />
      </cc:Work>
    </rdf:RDF>
  </metadata>
  <defs
     id="defs6" />
  <sodipodi:namedview
     pagecolor="#808080"
     bordercolor="#666666"
     borderopacity="1"
     objecttolerance="10"
     gridtolerance="10"
     guidetolerance="10"
     inkscape:pageopacity="0"
     inkscape:pageshadow="2"
     inkscape:window-width="2560"
     inkscape:window-height="1009"
     id="namedview4"
     showgrid="false"
     inkscape:zoom="0.5"
     inkscape:cx="608"
     inkscape:cy="870"
     inkscape:window-x="-8"
     inkscape:window-y="-8"
     inkscape:window-maximized="1"
     inkscape:current-layer="ORBIT_RIGHT"
     inkscape:showpageshadow="0"
     inkscape:pagecheckerboard="true"
     inkscape:deskcolor="#d1d1d1" />
  <g
     id="ORBIT_RIGHT"
     transform="scale(99.986414)"
     style="stroke-width:0.0100014">
    <path
       style="fill:none;stroke-width:0.000312542"
       d="M 0.00425569,12.304688 C 0.00659632,10.272266 0.01467891,8.6445313 0.022217,8.6875 c 0.12427112,0.7083719 0.43615088,1.410424 0.91736722,2.065024 0.22425958,0.305062 0.85812608,0.947036 1.15687258,1.17167 0.118293,0.08895 0.3126336,0.287495 0.4569571,0.46685 0.9397427,1.167845 2.2772748,2.027178 3.7153745,2.387043 0.6721825,0.168204 0.9911153,0.205443 1.7468366,0.203965 0.7165784,-0.0014 1.1458559,-0.05097 1.6918578,-0.195346 l 0.2231078,-0.059 0.013495,0.300207 c 0.0105,0.233585 0.030173,0.334884 0.088647,0.456458 0.08704,0.180972 0.278879,0.383633 0.436017,0.460618 0.103763,0.05083 -0.16199,0.05362 -5.1796959,0.05429 L 0,16 Z M 11.486754,15.955695 c 0.05287,-0.02302 1.025274,-0.73857 2.160896,-1.590107 2.154672,-1.615663 2.190648,-1.64631 2.300225,-1.959506 0.04574,-0.130723 0.04925,-0.01106 0.05063,1.726731 L 16,16 13.695313,15.9988 c -1.953621,-10e-4 -2.290045,-0.0076 -2.208559,-0.04308 z m 4.457668,-4.332402 c -0.07839,-0.251171 -0.194095,-0.371784 -0.772142,-0.804893 -0.309597,-0.231971 -0.567866,-0.425734 -0.57393,-0.430586 -0.0061,-0.0049 0.01815,-0.09761 0.05382,-0.20613 C 14.889212,9.4603453 14.98301,8.8418144 14.98301,8 14.98301,7.2616263 14.94394,6.9315919 14.778087,6.2687884 14.163732,3.8136863 12.186314,1.8362677 9.7312116,1.2219136 9.0684081,1.0560565 8.7383737,1.0169904 8,1.0169904 c -0.7383738,0 -1.0684081,0.039066 -1.7312116,0.2049232 C 4.5214328,1.6591642 2.9686993,2.8097886 2.0135695,4.3751647 1.5833006,5.0803384 1.2448102,5.9771425 1.1140913,6.7582625 L 1.0762518,6.984375 0.9118335,7.0045566 C 0.50018228,7.0550847 0.18614245,7.3046162 0.05212479,7.6876684 0.00693618,7.8168275 0.00286353,7.5132991 0.00149176,3.9140625 L 0,0 h 8 8 v 5.875 c 0,3.23125 -0.0036,5.875 -0.008,5.875 -0.0044,0 -0.02581,-0.05702 -0.04756,-0.126707 z"
       id="path829"
       inkscape:connector-curvature="0" />
    <path
       style="fill:#fefefe;stroke-width:0.000312542"
       d="M 10.9375,14.03125 V 13 L 9.6015625,12.999359 C 8.1936413,12.998684 7.7024941,12.969723 6.9423534,12.842557 4.5748966,12.446498 2.6085208,11.387342 1.6539152,9.9940247 1.279103,9.4469584 1.0450792,8.827685 1.0096092,8.2890625 L 0.99057356,8 H 1.4938708 1.9971679 l 0.019597,0.1171875 c 0.06918,0.4136953 0.2356702,0.7224397 0.5707595,1.0584316 0.7494898,0.7515084 2.1616908,1.3264089 3.9787173,1.6197179 0.8614254,0.139053 1.4218122,0.176336 2.9415713,0.195702 l 1.429687,0.01822 V 9.9890034 c 0,-0.7539221 0.0095,-1.0202534 0.0363,-1.0202534 0.01996,0 0.933857,0.6714844 2.030875,1.492188 1.664769,1.245451 1.993347,1.503555 1.987139,1.560938 -0.0055,0.05112 -0.515536,0.44972 -1.989232,1.554687 -1.089987,0.817265 -2.000533,1.485937 -2.023437,1.485937 -0.03385,0 -0.04164,-0.193002 -0.04164,-1.03125 z"
       id="path827"
       inkscape:connector-curvature="0" />
    <path
       style="fill:#97cafd;stroke-width:0.000312542"
       d="m 7.3353647,13.964055 c -0.1335181,-0.01527 -0.2952369,-0.04105 -0.359375,-0.05727 -0.1276585,-0.03229 -0.1701872,-0.0357 0.5865103,0.04691 0.2204453,0.02407 0.2929303,0.03902 0.1875,0.03868 -0.094531,-3.13e-4 -0.2811172,-0.01305 -0.4146353,-0.02832 z M 6.7441406,13.853653 c 0.022559,-0.009 0.049512,-0.0079 0.059896,0.0025 0.010384,0.01038 -0.00807,0.01777 -0.041016,0.01641 -0.036405,-0.0015 -0.043809,-0.0089 -0.01888,-0.01888 z m -0.15625,-0.03125 c 0.022559,-0.009 0.049512,-0.0079 0.059896,0.0025 0.010384,0.01038 -0.00807,0.01777 -0.041016,0.01641 -0.036405,-0.0015 -0.043809,-0.0089 -0.01888,-0.01888 z M 8.84375,9.9789556 C 6.4034891,9.9267744 4.2389203,9.33534 3.3352991,8.4738578 3.1147199,8.263565 3.0458854,8.1380609 3.022838,7.9041559 2.9799403,7.4687941 2.6379628,7.0951394 2.2087051,7.01461 2.1454798,7.0027487 2.0940543,6.9770312 2.0944263,6.9574597 2.0947983,6.9378881 2.1217709,6.8023438 2.1543655,6.65625 2.4295972,5.4226216 3.1558025,4.23635 4.140625,3.4116531 5.22081,2.507099 6.6062897,2.0005128 8,2.0005128 c 1.7577663,0 3.461758,0.7947816 4.588347,2.1401122 1.263176,1.5084381 1.714498,3.5450441 1.202816,5.4277422 L 13.742856,9.7461097 13.511323,9.5718444 C 13.351435,9.4515028 13.284472,9.3819981 13.294918,9.3472269 c 0.01774,-0.059031 0.04904,-0.2092244 0.06372,-0.3057178 0.0057,-0.037327 0.02057,-0.1145163 0.03309,-0.1715332 C 13.432454,8.6845547 13.446512,8.4613106 13.446512,8 c 0,-0.4613106 -0.01406,-0.6845547 -0.05478,-0.8699759 -0.01252,-0.057017 -0.02742,-0.1342066 -0.03309,-0.1715332 -0.03345,-0.2198681 -0.164378,-0.6965831 -0.222483,-0.8100534 -0.0242,-0.047266 -0.03629,-0.085937 -0.02686,-0.085937 0.0094,0 -0.0059,-0.035156 -0.03404,-0.078125 -0.02815,-0.042969 -0.04139,-0.078125 -0.02942,-0.078125 0.01197,0 -0.01082,-0.052734 -0.05066,-0.1171875 -0.03984,-0.064453 -0.06972,-0.1204478 -0.06641,-0.1244328 0.01241,-0.014937 -0.09288,-0.2446016 -0.132775,-0.2896297 -0.02285,-0.025781 -0.04428,-0.060937 -0.04764,-0.078125 -0.0034,-0.017188 -0.04655,-0.090034 -0.09598,-0.1618806 -0.04943,-0.071847 -0.08988,-0.140711 -0.08988,-0.1530313 0,-0.012321 -0.04922,-0.082466 -0.109375,-0.1558787 -0.06016,-0.073413 -0.109375,-0.1462381 -0.109375,-0.1618338 0,-0.015596 -0.03516,-0.061383 -0.07813,-0.1017506 l -0.07813,-0.073395 -0.005,0.3179475 c -0.0068,0.4333175 -0.02919,0.6796016 -0.07467,0.8228931 -0.02079,0.065489 -0.04583,0.1785838 -0.05773,0.2606791 -0.005,0.034375 -0.01888,0.093017 -0.03088,0.1303159 -0.012,0.037299 -0.02826,0.097065 -0.03613,0.1328125 -0.03198,0.1452447 -0.04266,0.1794863 -0.09287,0.2976632 -0.02881,0.067811 -0.0589,0.1521856 -0.06686,0.1875 -0.008,0.035315 -0.01794,0.078271 -0.02217,0.095458 -0.0042,0.017188 -0.03182,0.076806 -0.06131,0.132485 -0.02949,0.055679 -0.05095,0.1048981 -0.0477,0.109375 0.0033,0.00448 -0.01354,0.043296 -0.03732,0.086265 -0.02378,0.042969 -0.04411,0.085156 -0.04517,0.09375 -0.0011,0.00859 -0.04231,0.1 -0.09166,0.203125 -0.04935,0.103125 -0.08939,0.1945313 -0.08898,0.203125 4.06e-4,0.00859 -0.03619,0.072107 -0.08133,0.1411406 -0.04514,0.069033 -0.0976,0.1534085 -0.116577,0.1875 -0.02862,0.051405 -0.07929,0.0652 -0.296875,0.080823 -0.428595,0.030775 -0.731028,0.2234031 -0.902635,0.5749112 C 9.963668,8.6860599 9.954108,8.7526124 9.944088,9.1562496 L 9.9328253,9.609375 9.7407528,9.8046875 9.5486806,10 9.3759028,9.99332 C 9.280875,9.9896463 9.0414063,9.9831822 8.84375,9.9789556 Z"
       id="path825"
       inkscape:connector-curvature="0" />
    <path
       style="fill:#316597;stroke-width:0.000312542"
       d="M 9.734375,9.8125 C 9.8364241,9.709375 9.9238744,9.625 9.9287094,9.625 c 0.00483,0 0.00879,0.084375 0.00879,0.1875 V 10 H 9.7431656 9.5488316 Z m 2.84375,-0.9395409 c -0.952046,-0.7221247 -1.067002,-0.79825 -1.335952,-0.8846794 -0.05094,-0.01637 -0.05015,-0.025707 0.01147,-0.1357419 0.03639,-0.064989 0.0911,-0.1533191 0.121579,-0.1962878 0.03047,-0.042969 0.0582,-0.092187 0.06162,-0.109375 0.0034,-0.017188 0.04326,-0.1085938 0.08854,-0.203125 0.04528,-0.094531 0.0832,-0.1789063 0.08427,-0.1875 0.0011,-0.00859 0.02139,-0.050781 0.04517,-0.09375 0.02378,-0.042969 0.04057,-0.081788 0.03732,-0.086265 -0.0033,-0.00448 0.01821,-0.053696 0.0477,-0.109375 0.02949,-0.055679 0.05708,-0.1152975 0.06131,-0.132485 0.0042,-0.017188 0.01421,-0.060144 0.02217,-0.095458 0.008,-0.035314 0.03805,-0.1196894 0.06686,-0.1875 0.05021,-0.1181769 0.06089,-0.1524185 0.09287,-0.2976632 0.0079,-0.035748 0.02413,-0.095513 0.03613,-0.1328125 0.012,-0.037299 0.0259,-0.095941 0.03088,-0.1303159 0.0119,-0.082095 0.03695,-0.1951897 0.05773,-0.2606791 0.04548,-0.1432915 0.06783,-0.3895756 0.07467,-0.8228931 l 0.005,-0.3179475 0.07813,0.073395 c 0.04297,0.040367 0.07813,0.086155 0.07813,0.1017506 0,0.015596 0.04922,0.088421 0.109375,0.1618338 0.06016,0.073412 0.109375,0.1435581 0.109375,0.1558787 0,0.01232 0.04528,0.088216 0.100627,0.1686563 0.05534,0.080441 0.09853,0.1532869 0.09598,0.1618806 -0.0026,0.00859 0.01404,0.036719 0.03689,0.0625 0.0399,0.045028 0.145185,0.2746931 0.132775,0.2896297 -0.0033,0.00399 0.02657,0.05998 0.06641,0.1244328 0.03983,0.064453 0.06263,0.1171875 0.05066,0.1171875 -0.01197,0 0.0013,0.035156 0.02942,0.078125 0.02815,0.042969 0.04347,0.078125 0.03404,0.078125 -0.0094,0 0.0027,0.038672 0.02686,0.085937 0.05811,0.1134703 0.189036,0.5901853 0.222483,0.8100534 0.0057,0.037327 0.02057,0.1145163 0.03309,0.1715332 0.04073,0.1854212 0.05478,0.4086653 0.05478,0.8699759 0,0.4613106 -0.01406,0.6845547 -0.05478,0.8699759 -0.01252,0.057017 -0.02742,0.1342066 -0.03309,0.1715332 -0.03535,0.2323825 -0.06606,0.3343106 -0.09984,0.3313528 -0.01343,-0.00118 -0.31973,-0.2261322 -0.680668,-0.4999028 z"
       id="path823"
       inkscape:connector-curvature="0" />
    <path
       style="fill:#323232;stroke-width:0.000312542"
       d="M 10.46875,15.944993 C 10.31298,15.868678 10.120677,15.6665 10.030631,15.484375 9.957015,15.33548 9.9529003,15.296866 9.9432163,14.664063 L 9.9330538,14 H 8.9812631 C 7.6662172,14 6.9101625,13.916813 5.8430488,13.65471 4.0339403,13.21036 2.5823908,12.454515 1.5271305,11.407343 0.78281681,10.668735 0.33752872,9.9319847 0.1016043,9.0487416 0.02739956,8.7709372 0.01751661,8.6762228 0.0166292,8.234375 0.01568482,7.7641609 0.02023462,7.7250669 0.0930044,7.578125 0.19166038,7.3789119 0.37891184,7.1916603 0.578125,7.0930044 c 0.15368488,-0.076109 0.16907556,-0.077379 0.9375,-0.077379 0.7684244,0 0.7838151,0.00127 0.9375,0.077379 0.3167084,0.1568431 0.5360073,0.4690784 0.569713,0.8111515 0.023047,0.233905 0.091882,0.3594091 0.3124611,0.5697019 0.6735309,0.6421216 2.0177562,1.1327947 3.7459325,1.3673506 0.6149796,0.083468 1.1458128,0.1205329 2.0805303,0.145271 l 0.7711372,0.020409 0.010291,-0.651873 c 0.00978,-0.619507 0.014126,-0.659642 0.087493,-0.808132 0.09849,-0.1993366 0.285843,-0.38662 0.484942,-0.48476 0.134519,-0.066308 0.199712,-0.077019 0.46875,-0.077019 0.263233,0 0.335411,0.01134 0.457826,0.071931 0.07993,0.039562 1.078367,0.771545 2.21875,1.6266287 2.164133,1.6227043 2.18236,1.6382543 2.289162,1.9528323 0.06481,0.190897 0.06438,0.56863 -8.72e-4,0.760849 -0.109119,0.321452 -0.13556,0.344063 -2.301806,1.968404 -1.135741,0.851626 -2.111209,1.567725 -2.167706,1.591331 -0.158404,0.06619 -0.868541,0.0577 -1.010979,-0.01209 z m 2.53383,-2.36843 c 1.473696,-1.104967 1.983702,-1.503563 1.989232,-1.554687 0.0062,-0.05738 -0.32237,-0.315487 -1.987139,-1.560938 C 11.907655,9.6402344 10.993761,8.96875 10.973798,8.96875 c -0.02682,0 -0.0363,0.2652175 -0.0363,1.015625 V 11 L 9.9453125,10.999438 C 8.3363975,10.998525 7.3474106,10.933688 6.3855881,10.766059 4.5259819,10.441963 3.0960932,9.8064222 2.4284877,9.0072516 2.2419037,8.7838972 2.0724757,8.4516159 2.0460834,8.2572825 2.0080954,7.9775656 2.0563072,8 1.4931809,8 H 0.99057356 l 0.0190356,0.2890625 c 0.024985,0.3794041 0.1392283,0.7721003 0.3477408,1.1953125 0.9172876,1.861793 3.4377534,3.199589 6.564525,3.484275 0.1890625,0.01721 0.9449219,0.03131 1.6796875,0.03132 L 10.9375,13 v 1.03125 c 0,0.838248 0.0078,1.03125 0.04164,1.03125 0.0229,0 0.93345,-0.668672 2.023437,-1.485937 z"
       id="path821"
       inkscape:connector-curvature="0" />
    <path
       style="fill:#000000;stroke-width:0.000312542"
       d="M 7.421875,14.980816 C 5.7502484,14.806538 4.3258728,14.163245 3.1753491,13.062952 2.8896163,12.789694 2.3330586,12.156525 2.3572938,12.132289 c 0.00569,-0.0057 0.099891,0.0516 0.2093373,0.127306 0.5065398,0.350387 1.026532,0.620467 1.7458689,0.906793 0.6201837,0.246859 1.0357834,0.373932 1.84375,0.563745 1.0714412,0.251709 1.0015575,0.244308 2.4619044,0.260739 l 1.3212793,0.01487 -0.00878,0.362975 -0.00878,0.362976 -0.21875,0.05676 c -0.4786022,0.124185 -0.9585678,0.184024 -1.5625,0.194803 -0.3265625,0.0058 -0.65,0.0047 -0.71875,-0.0024 z m 6.739268,-4.921753 C 13.80172,9.78788 13.746915,9.7351291 13.764108,9.6769134 13.824822,9.4713441 13.937657,8.8815456 13.96661,8.6184191 14.140475,7.0383097 13.63228,5.3872512 12.588347,4.140625 11.461758,2.7952944 9.7577663,2.0005128 8,2.0005128 6.1890025,2.0005128 4.4418584,2.8437693 3.3069119,4.265625 2.7551727,4.9568409 2.3001872,5.9174594 2.1381895,6.7331666 L 2.085197,7 H 1.5783557 1.0715144 L 1.1131624,6.7604994 C 1.5763075,4.0971416 3.6405191,1.8796003 6.2687884,1.2219136 6.9315919,1.0560565 7.2616262,1.0169904 8,1.0169904 c 0.7383738,0 1.0684081,0.039066 1.7312116,0.2049232 C 12.186314,1.8362677 14.163732,3.8136863 14.778087,6.2687884 14.943943,6.9315919 14.98301,7.2616263 14.98301,8 c 0,0.71893 -0.03884,1.0625181 -0.188999,1.671875 -0.06822,0.2768675 -0.196371,0.704256 -0.210621,0.702462 -0.0029,-3.65e-4 -0.192907,-0.142238 -0.422247,-0.315274 z"
       id="path819"
       inkscape:connector-curvature="0" />
  </g>
</svg>
