<?xml version="1.0" encoding="UTF-8" standalone="no"?>
<!-- Created with Inkscape (http://www.inkscape.org/) -->

<svg
   version="1.1"
   id="svg2"
   width="1600"
   height="1600"
   viewBox="0 0 1600 1600"
   sodipodi:docname="orientation_global.svg"
   inkscape:version="1.2.2 (732a01da63, 2022-12-09)"
   xmlns:inkscape="http://www.inkscape.org/namespaces/inkscape"
   xmlns:sodipodi="http://sodipodi.sourceforge.net/DTD/sodipodi-0.dtd"
   xmlns="http://www.w3.org/2000/svg"
   xmlns:svg="http://www.w3.org/2000/svg"
   xmlns:rdf="http://www.w3.org/1999/02/22-rdf-syntax-ns#"
   xmlns:cc="http://creativecommons.org/ns#"
   xmlns:dc="http://purl.org/dc/elements/1.1/">
  <metadata
     id="metadata8">
    <rdf:RDF>
      <cc:Work
         rdf:about="">
        <dc:format>image/svg+xml</dc:format>
        <dc:type
           rdf:resource="http://purl.org/dc/dcmitype/StillImage" />
      </cc:Work>
    </rdf:RDF>
  </metadata>
  <defs
     id="defs6" />
  <sodipodi:namedview
     pagecolor="#808080"
     bordercolor="#666666"
     borderopacity="1"
     objecttolerance="10"
     gridtolerance="10"
     guidetolerance="10"
     inkscape:pageopacity="0"
     inkscape:pageshadow="2"
     inkscape:window-width="1993"
     inkscape:window-height="1009"
     id="namedview4"
     showgrid="false"
     inkscape:zoom="0.5"
     inkscape:cx="179"
     inkscape:cy="18"
     inkscape:window-x="-8"
     inkscape:window-y="-8"
     inkscape:window-maximized="1"
     inkscape:current-layer="ORIENTATION_GLOBAL"
     inkscape:showpageshadow="0"
     inkscape:pagecheckerboard="true"
     inkscape:deskcolor="#d1d1d1" />
  <g
     id="ORIENTATION_GLOBAL"
     transform="matrix(100,0,0,100,0,4.9999997e-5)"
     style="stroke-width:0.0114286">
    <path
       style="fill:none;stroke-width:0.000357143"
       d="M 0,8 V 0 h 8 8 v 8 8 H 8 0 Z m 4.953125,7.410024 c 0.2270984,-0.108918 0.3606322,-0.244162 0.4665478,-0.472524 0.065723,-0.141703 0.079717,-0.218504 0.079717,-0.4375 0,-0.218996 -0.013994,-0.295797 -0.079717,-0.4375 C 5.3137572,13.834138 5.1802234,13.698894 4.953125,13.589976 4.7714609,13.502848 4.7505541,13.500048 4.281425,13.500025 L 3.7972247,13.5 l 1.0413187,-1.041667 1.0413185,-1.041666 0.1606294,0.04167 c 0.2173587,0.05638 0.7155687,0.05289 0.9451306,-0.0066 0.3828328,-0.09924 0.6055956,-0.225902 0.8948962,-0.508814 0.1491288,-0.145836 0.2964672,-0.31218 0.3274188,-0.369654 l 0.056276,-0.104498 h 1.8858821 1.885883 l -0.187913,0.211435 c -0.265061,0.298242 -0.347381,0.488618 -0.347735,0.80419 -2.5e-4,0.211494 0.01357,0.278879 0.08965,0.4375 0.17454,0.363923 0.472619,0.546072 0.894399,0.546545 0.439877,4.94e-4 0.457598,-0.01271 1.725144,-1.285554 1.256734,-1.2619857 1.25862,-1.2645319 1.25862,-1.698491 0,-0.4339591 -0.0019,-0.4365053 -1.25862,-1.6984909 -1.26755,-1.2728635 -1.285271,-1.2860689 -1.725148,-1.2855751 -0.42178,4.75e-4 -0.719859,0.1826222 -0.894399,0.546545 -0.07595,0.1583581 -0.08993,0.2263559 -0.08993,0.4375 0,0.2113878 0.01392,0.2789591 0.09014,0.4375 0.0506,0.1052394 0.160265,0.2555353 0.249975,0.3425753 C 11.928076,8.3497416 12,8.4376322 12,8.4597628 12,8.4921313 11.633832,8.5 10.127549,8.5 H 8.2550975 L 8.1903266,8.3951988 C 8.1060469,8.2588309 7.6220584,7.7944466 7.5356219,7.7670125 L 7.46875,7.7457881 V 5.8728941 C 7.46875,4.5171434 7.4783644,4 7.5035691,4 c 0.019151,0 0.1157409,0.070103 0.214645,0.1557856 0.2703878,0.234241 0.4619878,0.3123538 0.7661609,0.3123538 0.4215556,0 0.7197575,-0.18213 0.8943991,-0.5462644 0.07595,-0.1583581 0.089927,-0.2263559 0.089927,-0.4375 0,-0.4400703 -0.013272,-0.457877 -1.2858347,-1.7251437 C 6.9208803,0.50249747 6.9183341,0.50061056 6.484375,0.50061056 c -0.4339591,0 -0.4365053,0.001887 -1.6984909,1.25862074 C 3.5133216,3.026498 3.5000494,3.0443047 3.5000494,3.484375 c 0,0.2111441 0.013977,0.2791419 0.089927,0.4375 0.1746416,0.3641344 0.4728435,0.5462644 0.8943991,0.5462644 0.3311869,0 0.5202775,-0.086331 0.8046875,-0.3673878 L 5.5,3.8923013 v 1.9263006 1.9263006 l -0.1015625,0.063415 c -0.055859,0.034878 -0.2151672,0.180166 -0.3540172,0.3228613 -0.4042766,0.4154725 -0.5592591,0.83262 -0.5395862,1.45234 L 4.5160681,9.9374122 3.5080341,10.945088 2.5,11.952764 2.4999753,11.59357 C 2.4999526,11.262157 2.4929954,11.219873 2.4100242,11.046875 2.301106,10.819777 2.1658615,10.686243 1.9375,10.580327 c -0.2461545,-0.114168 -0.6288455,-0.114168 -0.875,0 -0.22836147,0.105916 -0.363606,0.23945 -0.47252419,0.466548 l -0.0899265,0.1875 L 0.50033056,13 0.50061181,14.765625 0.5803285,14.9375 c 0.10591547,0.228362 0.23944944,0.363606 0.4665477,0.472524 l 0.1875,0.08993 h 1.7656251 1.765625 l 0.1875,-0.08993 z"
       id="path825"
       inkscape:connector-curvature="0" />
    <path
       style="fill:#fefefe;stroke-width:0.000357143"
       d="M 1.2425319,14.935549 C 1.1711249,14.897849 1.1012508,14.825958 1.0628444,14.750675 1.0022666,14.631933 1,14.568793 1,13 1,11.430554 1.00224,11.368112 1.062921,11.249176 1.10342,11.169796 1.1697921,11.103419 1.249176,11.062921 1.502724,10.93357 1.8198779,11.019442 1.9370794,11.249176 1.9958266,11.364329 2,11.432176 2,12.272058 v 0.899548 l 1.35814,-1.357871 c 0.7469772,-0.746829 1.3632853,-1.351456 1.3695734,-1.343616 0.00629,0.0078 0.041096,0.06367 0.077351,0.12407 0.036255,0.0604 0.1802781,0.221102 0.3200509,0.357122 L 5.3792481,11.198618 3.9788169,12.599309 2.5783854,14 h 1.0245521 c 0.965165,0 1.0317012,0.0036 1.1478869,0.06292 0.3284662,0.167571 0.3284662,0.706587 0,0.874158 -0.1190644,0.06074 -0.1799103,0.06287 -1.757392,0.06154 -1.5651524,-0.0013 -1.6389844,-0.004 -1.7509005,-0.06307 z M 12.242532,11.904299 C 12.10575,11.832083 12,11.648986 12,11.484375 c 0,-0.214169 0.08963,-0.329015 0.975255,-1.249609 l 0.24088,-0.250391 -2.36588,-0.00802 -2.36588,-0.00802 V 9.4841616 8.9999863 l 2.405949,6.8e-6 L 13.296274,9 12.698089,8.3984375 C 12.369087,8.0675781 12.077425,7.7518703 12.049952,7.6968644 c -0.06758,-0.1353047 -0.06283,-0.2991013 0.01297,-0.4476888 0.110977,-0.2175331 0.409378,-0.3113303 0.633943,-0.199269 0.138035,0.068881 2.136879,2.0633422 2.21151,2.2066609 0.03321,0.063768 0.06038,0.1662819 0.06038,0.2278075 0,0.061526 -0.02717,0.1640391 -0.06038,0.2278075 -0.07463,0.1433188 -2.073475,2.1377805 -2.21151,2.2066605 -0.133436,0.06659 -0.311459,0.06089 -0.454332,-0.01454 z M 12,8.4669056 c 0,-0.018202 0.01406,-0.024403 0.03125,-0.013781 0.01719,0.010623 0.03125,0.025515 0.03125,0.033094 C 12.0625,8.4937988 12.048438,8.5 12.03125,8.5 12.014063,8.5 12,8.4851075 12,8.4669056 Z M 5.9999931,5.0940506 6,2.6724761 5.3984375,3.2706612 C 5.0675781,3.5996634 4.7518703,3.891325 4.6968644,3.9187984 4.5615597,3.9863781 4.3977631,3.9816331 4.2491756,3.9058294 4.0316425,3.7948522 3.9378453,3.4964513 4.0499066,3.2718856 4.1187875,3.1338513 6.1132487,1.1350072 6.2565675,1.0603757 c 0.1475034,-0.0768107 0.3081116,-0.0768107 0.455615,0 0.1433187,0.074631 2.13778,2.0734756 2.2066609,2.2115099 C 9.0752569,3.5853316 8.83621,3.96875 8.484375,3.96875 8.2702056,3.96875 8.1553606,3.8791194 7.2347662,2.9934952 L 6.984375,2.7526154 6.9763572,5.1341203 6.9683394,7.515625 H 6.4841628 5.9999862 Z M 7.46875,3.9669056 c 0,-0.018202 0.014062,-0.024403 0.03125,-0.013781 0.017188,0.010623 0.03125,0.025515 0.03125,0.033094 C 7.53125,3.9937988 7.5171875,4 7.5,4 7.4828125,4 7.46875,3.9851075 7.46875,3.9669056 Z"
       id="path823"
       inkscape:connector-curvature="0" />
    <path
       style="fill:#98fe32;stroke-width:0.000357143"
       d="M 6.1285103,10.950608 C 5.3361416,10.737513 4.8459466,9.9170816 5.0478497,9.1419234 5.2569144,8.33927 6.0760953,7.8441694 6.8580766,8.0478497 7.6583753,8.2563013 8.1557937,9.0762359 7.9533853,9.8533344 7.7424103,10.663323 6.91352,11.161723 6.1285103,10.950608 Z"
       id="path821"
       inkscape:connector-curvature="0" />
    <path
       style="fill:#000000;stroke-width:0.000357143"
       d="M 1.046875,15.410024 C 0.81977669,15.301106 0.68624272,15.165862 0.58032725,14.9375 L 0.50061056,14.765625 0.50032931,13 l -2.8125e-4,-1.765625 0.0899265,-0.1875 C 0.698894,10.819777 0.83413853,10.686243 1.0625,10.580327 c 0.2461545,-0.114168 0.6288455,-0.114168 0.875,0 0.2283615,0.105916 0.363606,0.23945 0.4725242,0.466548 0.082971,0.172998 0.089928,0.215282 0.089951,0.546695 L 2.5,11.952764 3.5080341,10.945088 4.5160681,9.9374122 4.5048341,9.5835191 C 4.4853303,8.9691203 4.6473403,8.53754 5.0545688,8.1190737 5.1873547,7.9826241 5.3418981,7.842615 5.3979987,7.8079428 L 5.5,7.7449025 V 5.8186019 3.8923013 L 5.2890625,4.1007516 c -0.28441,0.2810568 -0.4735006,0.3673878 -0.8046875,0.3673878 -0.4215556,0 -0.7197575,-0.18213 -0.8943991,-0.5462644 -0.07595,-0.1583581 -0.089927,-0.2263559 -0.089927,-0.4375 0,-0.4400703 0.013272,-0.457877 1.2858347,-1.7251437 1.2619856,-1.25673383 1.2645318,-1.25862074 1.6984909,-1.25862074 0.4339591,0 0.4365053,0.001887 1.6984909,1.25862074 1.2725625,1.2672667 1.2858347,1.2850734 1.2858347,1.7251437 0,0.2111441 -0.013977,0.2791419 -0.089927,0.4375 -0.1746416,0.3641344 -0.4728435,0.5462644 -0.8943991,0.5462644 -0.3155287,0 -0.5056828,-0.082157 -0.80419,-0.3474547 L 7.46875,3.9327725 v 1.9065078 1.9065078 l 0.066872,0.021224 c 0.086437,0.027434 0.570425,0.4918184 0.6547047,0.6281863 L 8.2550975,8.5 h 1.9106755 1.910676 L 11.867998,8.2890625 C 11.587173,8.0048859 11.500702,7.8156341 11.50033,7.484375 c -2.5e-4,-0.2114944 0.01357,-0.2788794 0.08965,-0.4375 0.17454,-0.3639228 0.472619,-0.5460716 0.894399,-0.546545 0.439877,-4.938e-4 0.457598,0.012712 1.725144,1.2855541 1.256734,1.2619856 1.25862,1.2645318 1.25862,1.6984909 0,0.4339591 -0.0019,0.4365053 -1.25862,1.698491 -1.267546,1.272842 -1.285267,1.286048 -1.725144,1.285554 -0.42178,-4.75e-4 -0.719859,-0.182622 -0.894399,-0.546545 -0.07608,-0.158621 -0.08988,-0.226006 -0.08965,-0.4375 3.53e-4,-0.315572 0.08267,-0.505948 0.347735,-0.80419 L 12.035978,10.46875 H 10.150095 8.2642128 l -0.058062,0.107815 c -0.031934,0.0593 -0.1737937,0.220778 -0.3152434,0.358843 -0.2772594,0.270626 -0.547215,0.424715 -0.9052853,0.51673 -0.2298069,0.05905 -0.7287456,0.06232 -0.9451306,0.0062 L 5.8798619,11.416667 4.8385434,12.458333 3.7972247,13.5 l 0.4842003,2.5e-5 c 0.4691291,2.3e-5 0.4900359,0.0028 0.6717,0.08995 0.2270984,0.108918 0.3606322,0.244162 0.4665478,0.472524 0.065723,0.141703 0.079717,0.218504 0.079717,0.4375 0,0.218996 -0.013994,0.295797 -0.079717,0.4375 -0.1059156,0.228362 -0.2394494,0.363606 -0.4665478,0.472524 l -0.1875,0.08993 H 3 1.234375 Z m 3.7039494,-0.472945 c 0.3284662,-0.167571 0.3284662,-0.706587 0,-0.874158 C 4.6346387,14.003647 4.5681025,14 3.6029375,14 H 2.5783854 L 3.9788169,12.599309 5.3792481,11.198618 5.1251156,10.951311 c -0.1397728,-0.13602 -0.2837959,-0.296725 -0.3200509,-0.357122 -0.036255,-0.0604 -0.071063,-0.116229 -0.077351,-0.12407 -0.00629,-0.0078 -0.6225962,0.596787 -1.3695734,1.343616 L 2,13.171606 V 12.272058 C 2,11.432176 1.9958266,11.364329 1.9370794,11.249176 1.8965808,11.169792 1.8302082,11.103419 1.7508244,11.062921 1.497276,10.93357 1.1801221,11.019442 1.0629206,11.249176 1.002244,11.368112 1,11.430554 1,13 c 0,1.568793 0.00227,1.631933 0.062844,1.750675 0.038406,0.07528 0.1082805,0.147174 0.1796875,0.184874 0.1119161,0.05909 0.1857481,0.06175 1.7509005,0.06307 1.5774817,0.0013 1.6383276,-7.97e-4 1.7573924,-0.06154 z m 7.9460396,-3.018236 c 0.138035,-0.06888 2.136879,-2.0633417 2.21151,-2.2066605 0.03321,-0.063768 0.06038,-0.1662819 0.06038,-0.2278075 0,-0.061526 -0.02717,-0.1640391 -0.06038,-0.2278075 -0.07463,-0.1433188 -2.073475,-2.13778 -2.21151,-2.2066609 -0.224565,-0.1120613 -0.522966,-0.018264 -0.633943,0.199269 -0.0758,0.1485875 -0.08055,0.3123841 -0.01297,0.4476888 0.02747,0.055006 0.319135,0.3707137 0.648137,0.7015731 L 13.296274,9 l -2.40595,-6.9e-6 -2.405949,-6.9e-6 v 0.4841754 0.4841753 l 2.36588,0.00802 2.36588,0.00802 -0.24088,0.2503911 C 12.089631,11.15536 12,11.270206 12,11.484375 c 0,0.35189 0.383369,0.590906 0.696864,0.434468 z M 6.8580766,10.95215 C 7.6583753,10.743699 8.1557938,9.9237641 7.9533853,9.1466656 7.8122331,8.6047459 7.3970516,8.188235 6.8580766,8.0478497 6.0760953,7.8441694 5.2569144,8.33927 5.0478497,9.1419234 4.7693225,10.211262 5.7887378,11.230678 6.8580766,10.95215 Z M 6.9763572,5.1341203 6.984375,2.7526154 7.2347662,2.9934952 C 8.1553606,3.8791194 8.2702056,3.96875 8.484375,3.96875 8.83621,3.96875 9.0752569,3.5853316 8.9188434,3.2718856 8.8499625,3.1338512 6.8555012,1.1350072 6.7121825,1.0603757 c -0.1475034,-0.0768107 -0.3081116,-0.0768107 -0.455615,0 -0.1433188,0.074631 -2.13778,2.0734756 -2.2066609,2.2115099 -0.1120613,0.2245656 -0.018264,0.5229666 0.199269,0.6339438 0.1485875,0.075804 0.3123841,0.080549 0.4476888,0.012969 0.055006,-0.027473 0.3707137,-0.319135 0.7015731,-0.6481372 L 6,2.6724761 l -6.9e-6,2.4215745 -6.9e-6,2.4215744 h 0.4841766 0.4841766 z"
       id="path819"
       inkscape:connector-curvature="0" />
  </g>
</svg>
