<?xml version="1.0" encoding="UTF-8" standalone="no"?>
<!-- Created with Inkscape (http://www.inkscape.org/) -->

<svg
   version="1.1"
   id="svg2"
   width="1600"
   height="1600"
   viewBox="0 0 1600 1600"
   sodipodi:docname="orientation_gimbal.svg"
   inkscape:version="1.2.2 (732a01da63, 2022-12-09)"
   xmlns:inkscape="http://www.inkscape.org/namespaces/inkscape"
   xmlns:sodipodi="http://sodipodi.sourceforge.net/DTD/sodipodi-0.dtd"
   xmlns="http://www.w3.org/2000/svg"
   xmlns:svg="http://www.w3.org/2000/svg"
   xmlns:rdf="http://www.w3.org/1999/02/22-rdf-syntax-ns#"
   xmlns:cc="http://creativecommons.org/ns#"
   xmlns:dc="http://purl.org/dc/elements/1.1/">
  <metadata
     id="metadata8">
    <rdf:RDF>
      <cc:Work
         rdf:about="">
        <dc:format>image/svg+xml</dc:format>
        <dc:type
           rdf:resource="http://purl.org/dc/dcmitype/StillImage" />
      </cc:Work>
    </rdf:RDF>
  </metadata>
  <defs
     id="defs6" />
  <sodipodi:namedview
     pagecolor="#808080"
     bordercolor="#666666"
     borderopacity="1"
     objecttolerance="10"
     gridtolerance="10"
     guidetolerance="10"
     inkscape:pageopacity="0"
     inkscape:pageshadow="2"
     inkscape:window-width="1993"
     inkscape:window-height="1009"
     id="namedview4"
     showgrid="false"
     inkscape:zoom="0.5"
     inkscape:cx="131"
     inkscape:cy="42"
     inkscape:window-x="-8"
     inkscape:window-y="-8"
     inkscape:window-maximized="1"
     inkscape:current-layer="ORIENTATION_GIMBAL"
     inkscape:showpageshadow="0"
     inkscape:pagecheckerboard="true"
     inkscape:deskcolor="#d1d1d1" />
  <g
     id="ORIENTATION_GIMBAL"
     transform="matrix(100,0,0,100,0,4.9999997e-5)"
     style="stroke-width:0.0114286">
    <path
       style="fill:none;stroke-width:0.000357143"
       d="M 0,8 V 0 h 8 8 v 8 8 H 8 0 Z m 12.921875,7.378154 c 0.159798,-0.07717 0.350041,-0.253767 1.287644,-1.195288 1.256734,-1.261986 1.25862,-1.264532 1.25862,-1.698491 0,-0.433959 -0.0019,-0.436505 -1.25862,-1.698491 -1.267267,-1.2725624 -1.285074,-1.2858346 -1.725144,-1.2858346 -0.211144,0 -0.279142,0.013977 -0.4375,0.089927 -0.364134,0.1746416 -0.546264,0.4728436 -0.546264,0.8943986 0,0.331187 0.08633,0.520278 0.367387,0.804688 L 12.076449,11.5 H 9.0148678 5.9532866 l 2.2655443,-2.2658822 2.2655441,-2.2658819 0.01596,0.4299444 c 0.0144,0.3879628 0.02405,0.4452016 0.09877,0.5861947 0.107237,0.2023341 0.249754,0.3362106 0.463393,0.4352978 0.141456,0.065608 0.218886,0.079766 0.4375,0.079997 0.228699,2.5e-4 0.29169,-0.012221 0.453125,-0.089646 0.2271,-0.1089179 0.360634,-0.2441622 0.46655,-0.4725238 l 0.07972,-0.171875 V 6 4.234375 L 12.419673,4.0625 C 12.313757,3.8341384 12.180223,3.6988941 11.953125,3.5899759 l -0.1875,-0.089927 H 10 8.234375 l -0.1875,0.089927 C 7.8197766,3.6988941 7.6862428,3.8341384 7.5803272,4.0625 7.5146044,4.2042034 7.5006106,4.2810037 7.5006106,4.5 c 0,0.2189962 0.013994,0.2957966 0.079717,0.4375 0.099043,0.2135438 0.2328703,0.3560587 0.4352978,0.4635556 0.1432072,0.076049 0.1947463,0.084294 0.6174303,0.098772 L 9.0942353,5.515625 6.7814928,7.8280459 4.46875,10.140467 V 7.0366197 3.9327725 l 0.211435,0.1879122 c 0.2985072,0.2652975 0.4886612,0.3474547 0.80419,0.3474547 0.4215556,0 0.7197575,-0.18213 0.8943991,-0.5462644 0.07595,-0.1583581 0.089926,-0.2263559 0.089926,-0.4375 0,-0.4400703 -0.013272,-0.457877 -1.2858347,-1.7251437 C 3.9208803,0.50249747 3.9183341,0.50061056 3.484375,0.50061056 c -0.4339591,0 -0.4365054,0.001887 -1.698491,1.25862074 C 0.5133215,3.026498 0.50004931,3.0443047 0.50004931,3.484375 c 0,0.2111441 0.0139767,0.2791419 0.0899265,0.4375 0.17464181,0.3641344 0.47284349,0.5462644 0.89439919,0.5462644 0.3311868,0 0.5202773,-0.086331 0.8046875,-0.3673878 L 2.5,3.8923013 v 3.4263006 3.4263011 l -0.1020013,0.06304 C 2.341898,10.842615 2.1873546,10.982624 2.0545689,11.119074 1.6717892,11.512417 1.5,11.940187 1.5,12.5 c 0,0.568965 0.1710784,0.987738 0.5708441,1.397333 C 2.4780465,14.314548 2.9178238,14.5 3.5,14.5 c 0.565605,0 0.9882337,-0.171552 1.3909072,-0.564592 0.1414497,-0.138065 0.283309,-0.299545 0.3152434,-0.358843 l 0.058062,-0.107815 h 3.3858822 3.3858832 l -0.187913,0.211435 c -0.265297,0.298507 -0.347454,0.488661 -0.347454,0.80419 0,0.421556 0.18213,0.719758 0.546264,0.894399 0.158358,0.07595 0.226356,0.08993 0.4375,0.08993 0.211838,0 0.278621,-0.01382 0.4375,-0.09055 z"
       id="path825"
       inkscape:connector-curvature="0" />
    <path
       style="fill:#fefefe;stroke-width:0.000357143"
       d="M 12.242532,14.904299 C 12.10575,14.832083 12,14.648986 12,14.484375 c 0,-0.146464 0.08572,-0.306229 0.271261,-0.505563 0.169742,-0.182364 0.896864,-0.950571 0.933857,-0.986624 0.01323,-0.01289 -1.845092,-0.0232 -4.1295971,-0.0229 L 4.921875,12.969818 4.845207,13.14681 C 4.6879825,13.509773 4.2806616,13.842082 3.8580766,13.952152 2.9405127,14.191145 2,13.456103 2,12.5 2,11.967713 2.3293262,11.424785 2.7997354,11.181555 L 2.9997688,11.078125 2.9998844,6.8753006 3,2.6724761 2.3984375,3.2706612 C 2.0675781,3.5996634 1.7518702,3.891325 1.6968644,3.9187984 1.281806,4.1261047 0.84450412,3.6711169 1.0603757,3.2565675 c 0.074631,-0.1433187 2.0734756,-2.13778 2.2115099,-2.2066609 0.1276163,-0.0636821 0.2973625,-0.0636821 0.4249788,0 0.1380344,0.068881 2.1368784,2.0633422 2.21151,2.2066609 C 6.1296416,3.6814788 5.6815944,4.1295619 5.2565675,3.9084269 5.1927991,3.8752491 5.0678091,3.7803272 4.9788116,3.6974894 4.7964481,3.5277475 4.0282406,2.8006253 3.9921875,2.763632 3.9792969,2.7504052 3.96899,4.6157553 3.9692834,6.9088541 l 5.344e-4,4.1692709 0.1769922,0.07667 c 0.2434503,0.105455 0.5393409,0.389095 0.6704894,0.64273 l 0.1045769,0.202246 4.1871993,1.25e-4 4.1871994,1.25e-4 -0.598185,-0.601563 c -0.329002,-0.330859 -0.620664,-0.646567 -0.648137,-0.701573 -0.06758,-0.135305 -0.06283,-0.299101 0.01297,-0.447689 0.110977,-0.217533 0.409378,-0.3113299 0.633944,-0.199269 0.138034,0.06888 2.136878,2.063343 2.21151,2.206661 0.03321,0.06377 0.06037,0.166282 0.06037,0.227808 0,0.06152 -0.02717,0.164039 -0.06037,0.227807 -0.07463,0.143319 -2.073476,2.13778 -2.21151,2.206661 -0.133436,0.06659 -0.31146,0.06089 -0.454333,-0.01454 z"
       id="path823"
       inkscape:connector-curvature="0" />
    <path
       style="fill:#a9d8fe;stroke-width:0.000357143"
       d="M 5.1792475,11.379066 C 5.1501097,11.329739 5.0008422,11.171536 4.8475419,11.027503 L 4.5688141,10.765625 7.4484062,7.8828125 10.327998,5 H 9.3502541 C 8.4320019,5 8.3650056,4.9961716 8.2491756,4.9370794 7.9207094,4.7695084 7.9207094,4.2304916 8.2491756,4.0629206 8.3681116,4.0022441 8.4305541,4 10,4 c 1.569446,0 1.631888,0.00224 1.750824,0.062921 0.07938,0.040498 0.145757,0.1068713 0.186255,0.186255 C 11.997756,4.3681116 12,4.4305541 12,6 c 0,1.5694459 -0.0022,1.6318884 -0.06292,1.7508244 -0.167571,0.3284662 -0.706587,0.3284662 -0.874158,0 C 11.003959,7.6352512 11,7.5679287 11,6.6809962 V 5.7345025 L 8.1327491,8.6016262 C 6.5557612,10.178544 5.2580119,11.46875 5.2488619,11.46875 c -0.00915,0 -0.040477,-0.04036 -0.069614,-0.08968 z"
       id="path821"
       inkscape:connector-curvature="0" />
    <path
       style="fill:#000000;stroke-width:0.000357143"
       d="m 12.046875,15.378774 c -0.364134,-0.174641 -0.546264,-0.472843 -0.546264,-0.894399 0,-0.315529 0.08216,-0.505683 0.347454,-0.80419 L 12.035978,13.46875 H 8.650095 5.2642128 l -0.058062,0.107815 c -0.031934,0.0593 -0.1737937,0.220778 -0.3152434,0.358843 C 4.4882337,14.328448 4.065605,14.5 3.5,14.5 2.9178238,14.5 2.4780465,14.314548 2.0708441,13.897333 1.6710784,13.487738 1.5,13.068965 1.5,12.5 1.5,11.940187 1.6717892,11.512417 2.0545689,11.119074 2.1873546,10.982624 2.341898,10.842615 2.3979987,10.807943 L 2.5,10.744903 V 7.3186019 3.8923013 L 2.2890625,4.1007516 C 2.0046523,4.3818084 1.8155618,4.4681394 1.484375,4.4681394 c -0.4215557,0 -0.71975738,-0.18213 -0.89439919,-0.5462644 -0.0759498,-0.1583581 -0.0899265,-0.2263559 -0.0899265,-0.4375 0,-0.4400703 0.0132722,-0.457877 1.28583469,-1.7251437 1.2619856,-1.25673383 1.2645319,-1.25862074 1.698491,-1.25862074 0.4339591,0 0.4365053,0.001887 1.6984909,1.25862074 1.2725625,1.2672667 1.2858347,1.2850734 1.2858347,1.7251437 0,0.2111441 -0.013977,0.2791419 -0.089926,0.4375 -0.1746416,0.3641344 -0.4728435,0.5462644 -0.8943991,0.5462644 -0.3155287,0 -0.5056828,-0.082157 -0.80419,-0.3474547 L 4.46875,3.9327725 V 7.0366197 10.140467 L 6.7814928,7.8280459 9.0942353,5.515625 8.6330553,5.4998278 C 8.2103713,5.4853494 8.1588322,5.4771044 8.015625,5.4010556 7.8131975,5.2935587 7.67937,5.1510438 7.5803272,4.9375 7.5146044,4.7957966 7.5006106,4.7189962 7.5006106,4.5 c 0,-0.2189963 0.013994,-0.2957966 0.079717,-0.4375 C 7.6862428,3.8341384 7.8197766,3.6988941 8.046875,3.5899759 l 0.1875,-0.089927 H 10 11.765625 l 0.1875,0.089927 c 0.227098,0.1089182 0.360632,0.2441625 0.466548,0.4725241 l 0.07972,0.171875 V 6 7.765625 L 12.419673,7.9375 C 12.313757,8.1658616 12.180223,8.3011059 11.953125,8.4100241 11.79169,8.4874494 11.728699,8.4999116 11.5,8.49967 11.281386,8.4994513 11.203956,8.4852809 11.0625,8.4196728 10.848861,8.3205856 10.706344,8.1867091 10.599107,7.984375 10.524381,7.8433819 10.514736,7.7861431 10.500335,7.3981803 L 10.484375,6.9682359 8.2188309,9.2341178 5.9532866,11.5 h 3.0615812 3.0615812 l -0.208451,-0.210937 c -0.281056,-0.28441 -0.367387,-0.473501 -0.367387,-0.804688 0,-0.421556 0.18213,-0.7197575 0.546264,-0.8943991 0.158358,-0.07595 0.226356,-0.089927 0.4375,-0.089927 0.44007,0 0.457877,0.013272 1.725144,1.2858351 1.256734,1.261986 1.25862,1.264532 1.25862,1.698491 0,0.433959 -0.0019,0.436505 -1.25862,1.698491 -1.267267,1.272562 -1.285074,1.285835 -1.725144,1.285835 -0.211144,0 -0.279142,-0.01398 -0.4375,-0.08993 z m 0.649989,-0.459931 c 0.138035,-0.06888 2.136879,-2.063342 2.21151,-2.206661 0.03321,-0.06377 0.06038,-0.166281 0.06038,-0.227807 0,-0.06153 -0.02717,-0.164039 -0.06038,-0.227808 -0.07463,-0.143318 -2.073475,-2.137779 -2.21151,-2.20666 -0.224565,-0.1120617 -0.522966,-0.01826 -0.633943,0.199269 -0.0758,0.148587 -0.08055,0.312384 -0.01297,0.447688 0.02747,0.05501 0.319135,0.370714 0.648137,0.701573 L 13.296274,12 9.1090744,11.999884 4.921875,11.999769 4.8172981,11.797523 C 4.6861497,11.543888 4.3902591,11.260248 4.1468087,11.154793 L 3.9698166,11.078125 3.9692834,6.9088541 C 3.9690022,4.6157553 3.9792964,2.7504052 3.9921874,2.763632 4.0282404,2.800625 4.796448,3.5277475 4.9788115,3.6974894 5.0678085,3.7803274 5.192799,3.8752491 5.2565674,3.9084269 5.6815943,4.1295619 6.1296415,3.6814787 5.9083743,3.2565675 5.8337423,3.1132488 3.8348987,1.1187875 3.6968643,1.0499066 3.569248,0.9862245 3.3995018,0.9862245 3.2718855,1.0499066 3.1338512,1.1187875 1.1350072,3.1132488 1.0603757,3.2565675 0.84450412,3.6711169 1.281806,4.1261047 1.6968644,3.9187984 1.7518702,3.891325 2.0675781,3.5996634 2.3984375,3.2706612 L 3,2.6724761 2.9998844,6.8753006 2.9997688,11.078125 2.7997354,11.181555 c -0.2363039,0.122183 -0.5073655,0.39316 -0.6244897,0.624293 -0.299734,0.591497 -0.2038163,1.25049 0.2514889,1.72783 0.5944608,0.62323 1.5697663,0.615435 2.1616373,-0.01728 0.1028984,-0.109999 0.2130484,-0.268508 0.2568353,-0.369592 l 0.076668,-0.176992 4.1536459,-5.35e-4 c 2.2845049,-2.81e-4 4.1428239,0.01001 4.1295969,0.0229 -0.03699,0.03605 -0.764115,0.804261 -0.933857,0.986624 -0.27374,0.294094 -0.331501,0.499349 -0.208417,0.740614 0.111091,0.217756 0.409306,0.311554 0.63402,0.199418 z M 8.1327491,8.6016263 11,5.7345025 v 0.9464937 c 0,0.8869325 0.004,0.954255 0.06292,1.0698282 0.167571,0.3284662 0.706587,0.3284662 0.874158,0 C 11.997756,7.6318884 12,7.5694459 12,6 12,4.4305541 11.997756,4.3681116 11.937079,4.2491756 11.896581,4.1697919 11.830208,4.1034191 11.750824,4.0629206 11.631888,4.0022441 11.569446,4 10,4 8.4305541,4 8.3681116,4.00224 8.2491756,4.062921 c -0.3284662,0.167571 -0.3284662,0.7065878 0,0.8741588 C 8.3650056,4.9961716 8.4320019,5 9.3502541,5 H 10.327998 L 7.4484062,7.8828125 4.5688141,10.765625 4.8475419,11.027503 c 0.1533003,0.144033 0.3025678,0.302236 0.3317056,0.351563 0.029138,0.04933 0.060464,0.08968 0.069614,0.08968 0.00915,0 1.3068993,-1.290206 2.8838872,-2.8671237 z"
       id="path819"
       inkscape:connector-curvature="0" />
  </g>
</svg>
