<?xml version="1.0" encoding="UTF-8" standalone="no"?>
<!-- Created with Inkscape (http://www.inkscape.org/) -->

<svg
   xmlns:dc="http://purl.org/dc/elements/1.1/"
   xmlns:cc="http://creativecommons.org/ns#"
   xmlns:rdf="http://www.w3.org/1999/02/22-rdf-syntax-ns#"
   xmlns:svg="http://www.w3.org/2000/svg"
   xmlns="http://www.w3.org/2000/svg"
   xmlns:sodipodi="http://sodipodi.sourceforge.net/DTD/sodipodi-0.dtd"
   xmlns:inkscape="http://www.inkscape.org/namespaces/inkscape"
   version="1.1"
   id="svg2"
   width="16.000002"
   height="16"
   viewBox="0 0 16.000002 16"
   sodipodi:docname="origin.svg"
   inkscape:version="0.92.4 (5da689c313, 2019-01-14)">
  <metadata
     id="metadata8">
    <rdf:RDF>
      <cc:Work
         rdf:about="">
        <dc:format>image/svg+xml</dc:format>
        <dc:type
           rdf:resource="http://purl.org/dc/dcmitype/StillImage" />
        <dc:title></dc:title>
      </cc:Work>
    </rdf:RDF>
  </metadata>
  <defs
     id="defs6" />
  <sodipodi:namedview
     pagecolor="#ffffff"
     bordercolor="#666666"
     borderopacity="1"
     objecttolerance="10"
     gridtolerance="10"
     guidetolerance="10"
     inkscape:pageopacity="0"
     inkscape:pageshadow="2"
     inkscape:window-width="1243"
     inkscape:window-height="850"
     id="namedview4"
     showgrid="false"
     fit-margin-top="0"
     fit-margin-left="0"
     fit-margin-right="0"
     fit-margin-bottom="0"
     inkscape:zoom="0.34570311"
     inkscape:cx="127.27684"
     inkscape:cy="271.90962"
     inkscape:window-x="0"
     inkscape:window-y="0"
     inkscape:window-maximized="0"
     inkscape:current-layer="svg2" />
  <g
     id="ORIGIN">
    <path
       style="fill:#ffffff;stroke-width:0.03125"
       d="M 0,8 V 0 h 8.0000002 8.0000008 v 8 8 H 8.0000002 0 Z m 4.8073289,4.35212 c 0.011782,-0.0191 0.059953,-0.0443 0.1070468,-0.0562 0.047093,-0.0118 0.085624,-0.0329 0.085624,-0.0469 0,-0.014 0.042188,-0.0347 0.09375,-0.046 0.051563,-0.0113 0.09375,-0.0324 0.09375,-0.0469 0,-0.0145 0.042188,-0.0356 0.09375,-0.0469 0.051563,-0.0113 0.09375,-0.0324 0.09375,-0.0469 0,-0.0145 0.042188,-0.0356 0.09375,-0.0469 0.051563,-0.0113 0.09375,-0.0333 0.09375,-0.0488 0,-0.0155 0.035156,-0.037 0.078125,-0.0478 0.042969,-0.0108 0.078125,-0.031 0.078125,-0.045 0,-0.014 0.042188,-0.0347 0.09375,-0.046 0.051563,-0.0113 0.09375,-0.0324 0.09375,-0.0469 0,-0.0145 0.042188,-0.0356 0.09375,-0.0469 0.051563,-0.0113 0.09375,-0.0329 0.09375,-0.048 0,-0.015 0.049219,-0.0366 0.1093751,-0.0479 0.060156,-0.0113 0.1093749,-0.0319 0.1093749,-0.0458 0,-0.0139 0.042188,-0.0346 0.09375,-0.0459 0.051563,-0.0113 0.09375,-0.0324 0.09375,-0.0469 0,-0.0145 0.042188,-0.0356 0.09375,-0.0469 0.051563,-0.0113 0.09375,-0.0324 0.09375,-0.0469 0,-0.0145 0.042188,-0.0356 0.09375,-0.0469 0.051563,-0.0113 0.09375,-0.0324 0.09375,-0.0469 0,-0.0145 0.042188,-0.0356 0.09375,-0.0469 0.051563,-0.0113 0.09375,-0.0324 0.09375,-0.0469 0,-0.0145 0.042188,-0.0356 0.09375,-0.0469 0.051563,-0.0113 0.09375,-0.0324 0.09375,-0.0469 0,-0.0145 0.042188,-0.0356 0.09375,-0.0469 0.051563,-0.0113 0.09375,-0.0324 0.09375,-0.0469 0,-0.0145 0.042188,-0.0356 0.09375,-0.0469 0.051563,-0.0113 0.09375,-0.0324 0.09375,-0.0469 0,-0.0145 0.042188,-0.0356 0.09375,-0.0469 0.051563,-0.0113 0.09375,-0.0324 0.09375,-0.0469 0,-0.0145 0.042188,-0.0356 0.09375,-0.0469 0.051563,-0.0113 0.09375,-0.0335 0.09375,-0.0494 0,-0.0158 0.021094,-0.0288 0.046875,-0.0288 0.025781,0 0.046875,0.0129 0.046875,0.0288 0,0.0158 0.042188,0.038 0.09375,0.0494 0.051563,0.0113 0.09375,0.0324 0.09375,0.0469 0,0.0145 0.042188,0.0355 0.09375,0.0469 0.051563,0.0113 0.09375,0.0324 0.09375,0.0469 0,0.0145 0.042188,0.0355 0.09375,0.0469 0.051563,0.0113 0.09375,0.0324 0.09375,0.0469 0,0.0145 0.042188,0.0355 0.09375,0.0469 0.051563,0.0113 0.09375,0.0324 0.09375,0.0469 0,0.0145 0.042188,0.0355 0.09375,0.0469 0.051563,0.0113 0.09375,0.0324 0.09375,0.0469 0,0.0145 0.042188,0.0355 0.09375,0.0469 0.051563,0.0113 0.09375,0.0324 0.09375,0.0469 0,0.0145 0.042188,0.0355 0.09375,0.0469 0.051563,0.0113 0.09375,0.0324 0.09375,0.0469 0,0.0145 0.042188,0.0355 0.09375,0.0469 0.051563,0.0113 0.09375,0.0324 0.09375,0.0469 0,0.0145 0.042188,0.0355 0.09375,0.0469 0.051563,0.0113 0.09375,0.0324 0.09375,0.0469 0,0.0145 0.042188,0.0355 0.09375,0.0469 0.051563,0.0113 0.09375,0.0324 0.09375,0.0469 0,0.0145 0.042188,0.0355 0.09375,0.0469 0.05156,0.0113 0.09375,0.0324 0.09375,0.0469 0,0.0145 0.04219,0.0355 0.09375,0.0469 0.05156,0.0113 0.09375,0.0324 0.09375,0.0469 0,0.0145 0.04219,0.0355 0.09375,0.0469 0.05156,0.0113 0.09375,0.0324 0.09375,0.0469 0,0.0145 0.04219,0.0355 0.09375,0.0469 0.05156,0.0113 0.09375,0.0324 0.09375,0.0469 0,0.0145 0.04219,0.0355 0.09375,0.0469 0.05156,0.0113 0.09375,0.0324 0.09375,0.0469 0,0.0145 0.04219,0.0355 0.09375,0.0469 0.05156,0.0113 0.09375,0.032 0.09375,0.046 0,0.014 0.03853,0.035 0.08563,0.0469 0.04709,0.0118 0.09579,0.038 0.108225,0.0581 0.03128,0.0506 0.705924,0.0506 0.737261,0 0.01245,-0.0201 0.06117,-0.0463 0.108265,-0.0581 0.04709,-0.0118 0.08562,-0.0329 0.08562,-0.0469 0,-0.014 0.04219,-0.0347 0.09375,-0.046 0.05156,-0.0113 0.09375,-0.0324 0.09375,-0.0469 0,-0.0145 0.04219,-0.0356 0.09375,-0.0469 0.05156,-0.0113 0.09375,-0.0324 0.09375,-0.0469 0,-0.0145 0.04219,-0.0356 0.09375,-0.0469 0.05156,-0.0113 0.09375,-0.0324 0.09375,-0.0469 0,-0.0145 0.04219,-0.0356 0.09375,-0.0469 0.05156,-0.0113 0.09375,-0.0324 0.09375,-0.0469 0,-0.0145 0.04219,-0.0356 0.09375,-0.0469 0.05156,-0.0113 0.09375,-0.0324 0.09375,-0.0469 0,-0.0145 0.04219,-0.0356 0.09375,-0.0469 0.05156,-0.0113 0.09375,-0.032 0.09375,-0.046 0,-0.014 0.037,-0.0347 0.08221,-0.046 0.11564,-0.029 0.352127,-0.27503 0.375177,-0.39028 0.01055,-0.0527 0.03148,-0.0959 0.04652,-0.0959 0.01509,0 0.02734,-0.47619 0.02734,-1.0625 0,-0.58631 -0.01225,-1.0625 -0.02734,-1.0625 -0.01504,0 -0.03589,-0.0427 -0.04634,-0.095 -0.01929,-0.0965 -0.293293,-0.40504 -0.359645,-0.40504 -0.01948,0 -0.03543,-0.0129 -0.03543,-0.0288 0,-0.0158 -0.04219,-0.038 -0.09375,-0.0494 -0.05156,-0.0113 -0.09375,-0.0324 -0.09375,-0.0469 0,-0.0145 -0.04219,-0.0356 -0.09375,-0.0469 -0.05156,-0.0113 -0.09375,-0.0324 -0.09375,-0.0469 0,-0.0145 -0.04219,-0.0356 -0.09375,-0.0469 -0.05156,-0.0113 -0.09375,-0.0324 -0.09375,-0.0469 0,-0.0145 -0.04219,-0.0356 -0.09375,-0.0469 -0.05156,-0.0113 -0.09375,-0.0324 -0.09375,-0.0469 0,-0.0145 -0.04219,-0.0356 -0.09375,-0.0469 -0.05156,-0.0113 -0.09375,-0.0324 -0.09375,-0.0469 0,-0.0145 -0.04219,-0.0356 -0.09375,-0.0469 -0.05156,-0.0113 -0.09375,-0.0324 -0.09375,-0.0469 0,-0.0145 -0.04219,-0.0356 -0.09375,-0.0469 -0.05156,-0.0113 -0.09375,-0.0324 -0.09375,-0.0469 0,-0.0145 -0.04219,-0.0356 -0.09375,-0.0469 -0.05156,-0.0113 -0.09375,-0.0324 -0.09375,-0.0469 0,-0.0145 -0.04219,-0.0356 -0.09375,-0.0469 -0.05156,-0.0113 -0.09375,-0.0324 -0.09375,-0.0469 0,-0.0145 -0.04219,-0.0356 -0.09375,-0.0469 -0.05156,-0.0113 -0.09375,-0.0324 -0.09375,-0.0469 0,-0.0145 -0.04219,-0.0356 -0.09375,-0.0469 -0.05156,-0.0113 -0.09375,-0.0324 -0.09375,-0.0469 0,-0.0145 -0.04219,-0.0356 -0.09375,-0.0469 -0.05156,-0.0113 -0.09375,-0.0324 -0.09375,-0.0469 0,-0.0145 -0.04219,-0.0356 -0.09375,-0.0469 -0.05156,-0.0113 -0.09375,-0.0324 -0.09375,-0.0469 0,-0.0145 -0.04219,-0.0356 -0.09375,-0.0469 -0.05156,-0.0113 -0.09375,-0.0324 -0.09375,-0.0469 0,-0.0145 -0.04219,-0.0356 -0.09375,-0.0469 -0.05156,-0.0113 -0.09375,-0.0324 -0.09375,-0.0469 0,-0.0145 -0.04219,-0.0356 -0.09375,-0.0469 -0.05156,-0.0113 -0.09375,-0.0324 -0.09375,-0.0469 0,-0.0145 -0.04219,-0.0356 -0.09375,-0.0469 L 10.218743,6.9312 V 4.87119 c 0,-1.15127 -0.01202,-2.06002 -0.02726,-2.06002 -0.01499,0 -0.03625,-0.0562 -0.04724,-0.125 -0.01099,-0.0688 -0.03388,-0.125 -0.05087,-0.125 -0.01699,0 -0.03088,-0.0157 -0.03088,-0.0349 0,-0.0192 -0.0546,-0.0895 -0.1213246,-0.15625 C 9.8744404,2.30332 9.8041277,2.2487 9.7849183,2.2487 c -0.01921,0 -0.034927,-0.013 -0.034927,-0.0288 0,-0.0158 -0.042188,-0.038 -0.09375,-0.0494 -0.051563,-0.0113 -0.09375,-0.0324 -0.09375,-0.0469 0,-0.0145 -0.042188,-0.0356 -0.09375,-0.0469 -0.051563,-0.0113 -0.09375,-0.0324 -0.09375,-0.0469 0,-0.0145 -0.042188,-0.0356 -0.09375,-0.0469 -0.051563,-0.0113 -0.09375,-0.0324 -0.09375,-0.0469 0,-0.0145 -0.042188,-0.0356 -0.09375,-0.0469 -0.051563,-0.0113 -0.09375,-0.0324 -0.09375,-0.0469 0,-0.0145 -0.042188,-0.0356 -0.09375,-0.0469 -0.051563,-0.0113 -0.09375,-0.0324 -0.09375,-0.0469 0,-0.0145 -0.042188,-0.0356 -0.09375,-0.0469 -0.051563,-0.0113 -0.09375,-0.032 -0.09375,-0.046 0,-0.014 -0.038531,-0.0351 -0.085624,-0.0469 C 8.4922743,1.5968 8.4435723,1.5706 8.4311416,1.5505 8.3998606,1.4999 7.7252175,1.4999 7.6938813,1.5505 7.6814283,1.5706 7.6327093,1.5968 7.585616,1.6086 7.538523,1.6204 7.499991,1.6415 7.499991,1.6555 c 0,0.014 -0.042187,0.0346 -0.09375,0.046 -0.051562,0.0113 -0.09375,0.0324 -0.09375,0.0469 0,0.0145 -0.042187,0.0355 -0.09375,0.0469 -0.051562,0.0113 -0.09375,0.0324 -0.09375,0.0469 0,0.0145 -0.042187,0.0355 -0.09375,0.0469 -0.051562,0.0113 -0.09375,0.0324 -0.09375,0.0469 0,0.0145 -0.042187,0.0355 -0.09375,0.0469 -0.051562,0.0113 -0.09375,0.0324 -0.09375,0.0469 0,0.0145 -0.042187,0.0355 -0.09375,0.0469 -0.051562,0.0113 -0.09375,0.0324 -0.09375,0.0469 0,0.0145 -0.042187,0.0355 -0.09375,0.0469 -0.051562,0.0113 -0.09375,0.032 -0.09375,0.046 0,0.014 -0.036996,0.0347 -0.082214,0.046 -0.1156399,0.029 -0.3521271,0.27503 -0.3751772,0.39028 -0.010544,0.0527 -0.031476,0.0959 -0.046515,0.0959 -0.015353,0 -0.027344,0.91709 -0.027344,2.09127 v 2.09126 l -0.09375,0.0206 c -0.051562,0.0113 -0.09375,0.0324 -0.09375,0.0469 0,0.0145 -0.042187,0.0355 -0.09375,0.0469 -0.051562,0.0113 -0.09375,0.0324 -0.09375,0.0469 0,0.0145 -0.042187,0.0355 -0.09375,0.0469 -0.051562,0.0113 -0.09375,0.0324 -0.09375,0.0469 0,0.0145 -0.042187,0.0355 -0.09375,0.0469 -0.051562,0.0113 -0.09375,0.0324 -0.09375,0.0469 0,0.0145 -0.042187,0.0355 -0.09375,0.0469 -0.051562,0.0113 -0.09375,0.0324 -0.09375,0.0469 0,0.0145 -0.042187,0.0355 -0.09375,0.0469 -0.051562,0.0113 -0.09375,0.0324 -0.09375,0.0469 0,0.0145 -0.042187,0.0355 -0.09375,0.0469 -0.051562,0.0113 -0.09375,0.0324 -0.09375,0.0469 0,0.0145 -0.042187,0.0355 -0.09375,0.0469 -0.051562,0.0113 -0.09375,0.0324 -0.09375,0.0469 0,0.0145 -0.042187,0.0355 -0.09375,0.0469 -0.051562,0.0113 -0.09375,0.0324 -0.09375,0.0469 0,0.0145 -0.042187,0.0355 -0.09375,0.0469 -0.051562,0.0113 -0.09375,0.0324 -0.09375,0.0469 0,0.0145 -0.042188,0.0355 -0.09375,0.0469 -0.051563,0.0113 -0.09375,0.0324 -0.09375,0.0469 0,0.0145 -0.042188,0.0355 -0.09375,0.0469 -0.051563,0.0113 -0.09375,0.0324 -0.09375,0.0469 0,0.0145 -0.042188,0.0355 -0.09375,0.0469 -0.051563,0.0113 -0.09375,0.0324 -0.09375,0.0469 0,0.0145 -0.042188,0.0355 -0.09375,0.0469 -0.051563,0.0113 -0.09375,0.0324 -0.09375,0.0469 0,0.0145 -0.042188,0.0355 -0.09375,0.0469 -0.051563,0.0113 -0.09375,0.0324 -0.09375,0.0469 0,0.0145 -0.042188,0.0355 -0.09375,0.0469 -0.051563,0.0113 -0.09375,0.0324 -0.09375,0.0469 0,0.0145 -0.042188,0.0355 -0.09375,0.0469 -0.051563,0.0113 -0.09375,0.0335 -0.09375,0.0494 0,0.0158 -0.015717,0.0288 -0.034927,0.0288 -0.043964,0 -0.2775736,0.23142 -0.2775736,0.27497 0,0.0178 -0.017578,0.0382 -0.039062,0.0453 -0.030344,0.0101 -0.039063,0.28037 -0.039063,1.21093 0,0.93055 0.00872,1.20082 0.039063,1.21094 0.021484,0.007 0.039062,0.0312 0.039062,0.0535 0,0.063 0.2392277,0.29415 0.3273152,0.31625 0.043414,0.0109 0.078935,0.0312 0.078935,0.0452 0,0.014 0.042187,0.0346 0.09375,0.046 0.051562,0.0113 0.09375,0.0324 0.09375,0.0469 0,0.0145 0.042187,0.0355 0.09375,0.0469 0.051562,0.0113 0.09375,0.0324 0.09375,0.0469 0,0.0145 0.042187,0.0355 0.09375,0.0469 0.051562,0.0113 0.09375,0.0324 0.09375,0.0469 0,0.0145 0.042187,0.0355 0.09375,0.0469 0.051562,0.0113 0.09375,0.0324 0.09375,0.0469 0,0.0145 0.042187,0.0355 0.09375,0.0469 0.051562,0.0113 0.09375,0.0324 0.09375,0.0469 0,0.0145 0.042187,0.0355 0.09375,0.0469 0.051562,0.0113 0.09375,0.0324 0.09375,0.0469 0,0.0145 0.042187,0.0355 0.09375,0.0469 0.051562,0.0113 0.09375,0.0326 0.09375,0.0473 0,0.0409 0.1444671,0.0568 0.447641,0.0494 0.1610168,-0.004 0.2846796,-0.0212 0.2971877,-0.0414 z"
       id="path831"
       inkscape:connector-curvature="0" />
    <path
       style="fill:#7ffe7f;stroke-width:0.03125"
       d="m 7.9687502,8.03373 c 0,-0.0158 -0.042187,-0.038 -0.09375,-0.0494 -0.051562,-0.0113 -0.09375,-0.0324 -0.09375,-0.0469 0,-0.0145 -0.042187,-0.0356 -0.09375,-0.0469 -0.051562,-0.0113 -0.09375,-0.0324 -0.09375,-0.0469 0,-0.0145 -0.042187,-0.0356 -0.09375,-0.0469 -0.051562,-0.0113 -0.09375,-0.0324 -0.09375,-0.0469 0,-0.0145 -0.042187,-0.0356 -0.09375,-0.0469 -0.051562,-0.0113 -0.09375,-0.0324 -0.09375,-0.0469 0,-0.0145 -0.042187,-0.0356 -0.09375,-0.0469 -0.051562,-0.0113 -0.09375,-0.0324 -0.09375,-0.0469 0,-0.0145 -0.042187,-0.0356 -0.09375,-0.0469 -0.051562,-0.0113 -0.09375,-0.032 -0.09375,-0.046 0,-0.014 -0.036855,-0.0346 -0.0819,-0.0459 -0.1767208,-0.0444 -0.1681,0.0733 -0.1681,-2.294 V 2.94218 l 0.09375,-0.0206 c 0.051563,-0.0113 0.09375,-0.0324 0.09375,-0.0469 0,-0.0145 0.042188,-0.0356 0.09375,-0.0469 0.051563,-0.0113 0.09375,-0.0324 0.09375,-0.0469 0,-0.0145 0.042188,-0.0356 0.09375,-0.0469 0.051563,-0.0113 0.09375,-0.0324 0.09375,-0.0469 0,-0.0145 0.042188,-0.0356 0.09375,-0.0469 0.051563,-0.0113 0.09375,-0.0324 0.09375,-0.0469 0,-0.0145 0.042188,-0.0356 0.09375,-0.0469 0.051563,-0.0113 0.09375,-0.0324 0.09375,-0.0469 0,-0.0145 0.042188,-0.0356 0.09375,-0.0469 0.051563,-0.0113 0.09375,-0.032 0.09375,-0.046 0,-0.014 0.038531,-0.0351 0.085624,-0.0469 0.047093,-0.0118 0.095365,-0.0373 0.1072697,-0.0565 0.028124,-0.0455 0.2423379,-0.0455 0.2704619,0 0.011905,0.0193 0.060176,0.0447 0.1072697,0.0565 0.047094,0.0118 0.085624,0.0329 0.085624,0.0469 0,0.014 0.042188,0.0346 0.09375,0.046 0.051563,0.0113 0.09375,0.0324 0.09375,0.0469 0,0.0145 0.042188,0.0355 0.09375,0.0469 0.051563,0.0113 0.09375,0.0324 0.09375,0.0469 0,0.0145 0.042188,0.0355 0.09375,0.0469 0.051563,0.0113 0.09375,0.0324 0.09375,0.0469 0,0.0145 0.042188,0.0355 0.09375,0.0469 0.051563,0.0113 0.09375,0.0324 0.09375,0.0469 0,0.0145 0.042188,0.0355 0.09375,0.0469 0.051563,0.0113 0.09375,0.0335 0.09375,0.0494 0,0.0158 0.021094,0.0288 0.046875,0.0288 0.025781,0 0.046875,0.0211 0.046875,0.0469 0,0.0258 0.014063,0.0469 0.03125,0.0469 0.020538,0 0.03125,0.75438 0.03125,2.20064 v 2.20064 l -0.09375,0.0206 c -0.051563,0.0113 -0.09375,0.0324 -0.09375,0.0469 0,0.0145 -0.042188,0.0355 -0.09375,0.0469 -0.051563,0.0113 -0.09375,0.0324 -0.09375,0.0469 0,0.0145 -0.042188,0.0355 -0.09375,0.0469 -0.051563,0.0113 -0.09375,0.0324 -0.09375,0.0469 0,0.0145 -0.042188,0.0355 -0.09375,0.0469 -0.051563,0.0113 -0.09375,0.0324 -0.09375,0.0469 0,0.0145 -0.042188,0.0355 -0.09375,0.0469 -0.051563,0.0113 -0.09375,0.0324 -0.09375,0.0469 0,0.0145 -0.042188,0.0355 -0.09375,0.0469 -0.051563,0.0113 -0.09375,0.0324 -0.09375,0.0469 0,0.0145 -0.042188,0.0355 -0.09375,0.0469 -0.051563,0.0113 -0.09375,0.0335 -0.09375,0.0494 0,0.0158 -0.042188,0.0288 -0.09375,0.0288 -0.051563,0 -0.09375,-0.0129 -0.09375,-0.0288 z"
       id="path829"
       inkscape:connector-curvature="0" />
    <path
       style="fill:#fe7f7f;stroke-width:0.03125"
       d="m 11.585938,11.6353 c -0.03008,-0.008 -0.05469,-0.0268 -0.05469,-0.0414 0,-0.0146 -0.04219,-0.0357 -0.09375,-0.0471 -0.05156,-0.0113 -0.09375,-0.0324 -0.09375,-0.0469 0,-0.0145 -0.04219,-0.0356 -0.09375,-0.0469 -0.05156,-0.0113 -0.09375,-0.0324 -0.09375,-0.0469 0,-0.0145 -0.04219,-0.0356 -0.09375,-0.0469 -0.05156,-0.0113 -0.09375,-0.0324 -0.09375,-0.0469 0,-0.0145 -0.04219,-0.0356 -0.09375,-0.0469 -0.05156,-0.0113 -0.09375,-0.0324 -0.09375,-0.0469 0,-0.0145 -0.04219,-0.0356 -0.09375,-0.0469 -0.05156,-0.0113 -0.09375,-0.0324 -0.09375,-0.0469 0,-0.0145 -0.04219,-0.0356 -0.09375,-0.0469 -0.05156,-0.0113 -0.09375,-0.0324 -0.09375,-0.0469 0,-0.0145 -0.04219,-0.0356 -0.09375,-0.0469 -0.05156,-0.0113 -0.09375,-0.0324 -0.09375,-0.0469 0,-0.0145 -0.04219,-0.0356 -0.09375,-0.0469 -0.05156,-0.0113 -0.09375,-0.0324 -0.09375,-0.0469 0,-0.0145 -0.042187,-0.0356 -0.09375,-0.0469 -0.051563,-0.0113 -0.09375,-0.0324 -0.09375,-0.0469 0,-0.0145 -0.042188,-0.0356 -0.09375,-0.0469 -0.051563,-0.0113 -0.09375,-0.0324 -0.09375,-0.0469 0,-0.0145 -0.042188,-0.0356 -0.09375,-0.0469 -0.051563,-0.0113 -0.09375,-0.0324 -0.09375,-0.0469 0,-0.0145 -0.042188,-0.0356 -0.09375,-0.0469 -0.051563,-0.0113 -0.09375,-0.0324 -0.09375,-0.0469 0,-0.0145 -0.042188,-0.0356 -0.09375,-0.0469 -0.051563,-0.0113 -0.09375,-0.0324 -0.09375,-0.0469 0,-0.0145 -0.042188,-0.0356 -0.09375,-0.0469 -0.051563,-0.0113 -0.09375,-0.0324 -0.09375,-0.0469 0,-0.0145 -0.042188,-0.0356 -0.09375,-0.0469 -0.051563,-0.0113 -0.09375,-0.0324 -0.09375,-0.0469 0,-0.0145 -0.042188,-0.0356 -0.09375,-0.0469 -0.051563,-0.0113 -0.09375,-0.0334 -0.09375,-0.049 0,-0.0156 -0.055382,-0.0373 -0.1230707,-0.0481 C 8.3404883,10.0319 8.2776484,10.0036 8.2685331,9.9798 8.2594131,9.9561 8.2304251,9.9366 8.2041041,9.9366 c -0.026321,0 -0.047856,-0.0141 -0.047856,-0.0312 0,-0.0172 -0.021094,-0.0312 -0.046875,-0.0312 -0.040589,0 -0.046875,-0.12153 -0.046875,-0.90625 0,-0.78472 0.00629,-0.90625 0.046875,-0.90625 0.025781,0 0.046875,-0.0129 0.046875,-0.0288 0,-0.0158 0.042187,-0.038 0.09375,-0.0494 0.051562,-0.0113 0.09375,-0.0324 0.09375,-0.0469 0,-0.0145 0.042187,-0.0356 0.09375,-0.0469 0.051562,-0.0113 0.09375,-0.0324 0.09375,-0.0469 0,-0.0145 0.042187,-0.0356 0.09375,-0.0469 0.051562,-0.0113 0.09375,-0.0324 0.09375,-0.0469 0,-0.0145 0.042187,-0.0356 0.09375,-0.0469 0.051562,-0.0113 0.09375,-0.0324 0.09375,-0.0469 0,-0.0145 0.042187,-0.0356 0.09375,-0.0469 0.051562,-0.0113 0.09375,-0.032 0.09375,-0.046 0,-0.014 0.038531,-0.0351 0.085624,-0.0469 0.047093,-0.0118 0.095799,-0.038 0.1082353,-0.0581 0.03105,-0.0502 0.3439713,-0.0481 0.3608278,0.002 0.00716,0.0215 0.033384,0.0391 0.058272,0.0391 0.024889,0 0.053016,0.0202 0.062506,0.045 0.00949,0.0247 0.058268,0.054 0.1083943,0.065 0.050127,0.011 0.091139,0.0318 0.091139,0.0463 0,0.0145 0.042188,0.0355 0.093751,0.0469 0.05156,0.0113 0.09375,0.0324 0.09375,0.0469 0,0.0145 0.04219,0.0355 0.09375,0.0469 0.05156,0.0113 0.09375,0.0324 0.09375,0.0469 0,0.0145 0.04219,0.0355 0.09375,0.0469 0.05156,0.0113 0.09375,0.0324 0.09375,0.0469 0,0.0145 0.04219,0.0355 0.09375,0.0469 0.05156,0.0113 0.09375,0.0324 0.09375,0.0469 0,0.0145 0.04219,0.0355 0.09375,0.0469 0.05156,0.0113 0.09375,0.0324 0.09375,0.0469 0,0.0145 0.04219,0.0355 0.09375,0.0469 0.05156,0.0113 0.09375,0.0324 0.09375,0.0469 0,0.0145 0.04219,0.0355 0.09375,0.0469 0.05156,0.0113 0.09375,0.0324 0.09375,0.0469 0,0.0145 0.04219,0.0355 0.09375,0.0469 0.05156,0.0113 0.09375,0.0324 0.09375,0.0469 0,0.0145 0.04219,0.0355 0.09375,0.0469 0.05156,0.0113 0.09375,0.0324 0.09375,0.0469 0,0.0145 0.04219,0.0355 0.09375,0.0469 0.05156,0.0113 0.09375,0.0324 0.09375,0.0469 0,0.0145 0.04219,0.0355 0.09375,0.0469 0.05156,0.0113 0.09375,0.0324 0.09375,0.0469 0,0.0145 0.04219,0.0355 0.09375,0.0469 0.05156,0.0113 0.09375,0.0324 0.09375,0.0469 0,0.0145 0.04219,0.0355 0.09375,0.0469 0.05156,0.0113 0.09375,0.0324 0.09375,0.0469 0,0.0145 0.04219,0.0355 0.09375,0.0469 0.05156,0.0113 0.09375,0.0324 0.09375,0.0469 0,0.0145 0.04219,0.0355 0.09375,0.0469 0.05156,0.0113 0.09375,0.0324 0.09375,0.0469 0,0.0145 0.04219,0.0355 0.09375,0.0469 0.05156,0.0113 0.09375,0.032 0.09375,0.046 0,0.014 0.03516,0.0342 0.07813,0.045 l 0.07812,0.0196 v 0.87192 0.87192 l -0.09375,0.0206 c -0.05156,0.0113 -0.09375,0.0324 -0.09375,0.0469 0,0.0145 -0.04219,0.0355 -0.09375,0.0469 -0.05156,0.0113 -0.09375,0.0324 -0.09375,0.0469 0,0.0145 -0.04219,0.0355 -0.09375,0.0469 -0.05156,0.0113 -0.09375,0.0324 -0.09375,0.0469 0,0.0145 -0.04219,0.0355 -0.09375,0.0469 -0.05156,0.0113 -0.09375,0.0324 -0.09375,0.0469 0,0.0145 -0.04219,0.0355 -0.09375,0.0469 -0.05156,0.0113 -0.09375,0.0324 -0.09375,0.0469 0,0.0145 -0.04219,0.0355 -0.09375,0.0469 -0.05156,0.0113 -0.09375,0.032 -0.09375,0.046 0,0.014 -0.03853,0.035 -0.08562,0.0469 -0.04709,0.0118 -0.09294,0.0333 -0.101876,0.0478 -0.02168,0.0351 -0.158284,0.0601 -0.226562,0.0416 z"
       id="path827"
       inkscape:connector-curvature="0" />
    <path
       style="fill:#007ffe;stroke-width:0.03125"
       d="m 4.3671877,11.6353 c -0.030078,-0.008 -0.054687,-0.0268 -0.054687,-0.0414 0,-0.0146 -0.042187,-0.0357 -0.09375,-0.0471 -0.051562,-0.0113 -0.09375,-0.0324 -0.09375,-0.0469 0,-0.0145 -0.042187,-0.0356 -0.09375,-0.0469 -0.051562,-0.0113 -0.09375,-0.0324 -0.09375,-0.0469 0,-0.0145 -0.042188,-0.0356 -0.09375,-0.0469 -0.051563,-0.0113 -0.09375,-0.0324 -0.09375,-0.0469 0,-0.0145 -0.042188,-0.0356 -0.09375,-0.0469 -0.051563,-0.0113 -0.09375,-0.0324 -0.09375,-0.0469 0,-0.0145 -0.042188,-0.0356 -0.09375,-0.0469 -0.051563,-0.0113 -0.09375,-0.0324 -0.09375,-0.0469 0,-0.0145 -0.042187,-0.0356 -0.09375,-0.0469 -0.051563,-0.0113 -0.09375,-0.0324 -0.09375,-0.0469 0,-0.0145 -0.042187,-0.0356 -0.09375,-0.0469 L 3,10.96378 V 10.07564 C 3,9.30702 3.00631,9.1875 3.046875,9.1875 3.072656,9.1875 3.09375,9.1746 3.09375,9.1587 3.09375,9.1429 3.135937,9.1207 3.1875,9.1093 3.239063,9.098 3.28125,9.0769 3.28125,9.0624 3.28125,9.0479 3.323437,9.0268 3.375,9.0155 3.426563,9.0042 3.46875,8.9831 3.46875,8.9686 3.46875,8.9541 3.510937,8.933 3.5625,8.9217 3.614062,8.9104 3.65625,8.8893 3.65625,8.8748 3.65625,8.8603 3.698437,8.8392 3.75,8.8279 3.801562,8.8166 3.84375,8.7955 3.84375,8.781 3.84375,8.7665 3.885937,8.7454 3.9375,8.7341 3.989062,8.7228 4.03125,8.7017 4.03125,8.6872 4.03125,8.6727 4.073438,8.6516 4.125,8.6403 4.176563,8.629 4.21875,8.6079 4.21875,8.5934 4.21875,8.5789 4.260938,8.5578 4.3125,8.5465 4.364063,8.5352 4.40625,8.5141 4.40625,8.4996 4.40625,8.4851 4.448438,8.464 4.5,8.4527 4.551563,8.4414 4.59375,8.4203 4.59375,8.4058 4.59375,8.3913 4.635938,8.3702 4.6875,8.3589 4.739063,8.3476 4.78125,8.3265 4.78125,8.312 4.78125,8.2975 4.823438,8.2764 4.875,8.2651 4.926563,8.2538 4.96875,8.2327 4.96875,8.2182 4.96875,8.2037 5.010938,8.1826 5.0625,8.1713 5.114063,8.16 5.15625,8.1389 5.15625,8.1244 5.15625,8.1099 5.198438,8.0888 5.25,8.0775 5.301563,8.0662 5.34375,8.0451 5.34375,8.0306 5.34375,8.0161 5.385938,7.995 5.4375,7.9837 5.489063,7.9724 5.53125,7.9513 5.53125,7.9368 5.53125,7.9223 5.573438,7.9012 5.625,7.8899 5.676563,7.8786 5.71875,7.8575 5.71875,7.843 5.71875,7.8285 5.760938,7.8074 5.8125,7.7961 5.864063,7.7848 5.90625,7.7637 5.90625,7.7492 5.90625,7.7347 5.948438,7.7136 6,7.7023 6.051563,7.691 6.09375,7.6699 6.09375,7.6554 6.09375,7.6409 6.135938,7.6198 6.1875,7.6085 6.239063,7.5972 6.28125,7.5761 6.28125,7.5616 6.28125,7.5471 6.323438,7.526 6.375,7.5147 6.426563,7.5034 6.46875,7.4812 6.46875,7.4653 c 0,-0.0158 0.028125,-0.0288 0.0625,-0.0288 0.034722,0 0.0625,-0.0208 0.0625,-0.0469 0,-0.0258 0.014063,-0.0469 0.03125,-0.0469 0.017187,0 0.03125,0.0129 0.03125,0.0288 0,0.0158 0.042188,0.038 0.09375,0.0494 0.051563,0.0113 0.09375,0.0324 0.09375,0.0469 0,0.0145 0.042188,0.0355 0.09375,0.0469 0.051563,0.0113 0.09375,0.0324 0.09375,0.0469 0,0.0145 0.042188,0.0355 0.09375,0.0469 0.051563,0.0113 0.09375,0.0324 0.09375,0.0469 0,0.0145 0.042188,0.0355 0.09375,0.0469 0.051563,0.0113 0.09375,0.0324 0.09375,0.0469 0,0.0145 0.042188,0.0355 0.09375,0.0469 0.051563,0.0113 0.09375,0.0324 0.09375,0.0469 0,0.0145 0.042188,0.0355 0.09375,0.0469 0.051563,0.0113 0.09375,0.0324 0.09375,0.0469 0,0.0145 0.042188,0.0355 0.09375,0.0469 0.051563,0.0113 0.09375,0.0335 0.09375,0.0494 0,0.0158 0.021094,0.0288 0.046875,0.0288 0.040589,0 0.046875,0.12153 0.046875,0.90625 0,0.78472 -0.00629,0.90625 -0.046875,0.90625 -0.025781,0 -0.046875,0.0129 -0.046875,0.0288 0,0.0158 -0.042187,0.038 -0.09375,0.0494 -0.051562,0.0113 -0.09375,0.0324 -0.09375,0.0469 0,0.0145 -0.042187,0.0355 -0.09375,0.0469 -0.051562,0.0113 -0.09375,0.0324 -0.09375,0.0469 0,0.0145 -0.042187,0.0355 -0.09375,0.0469 -0.051562,0.0113 -0.09375,0.0324 -0.09375,0.0469 0,0.0145 -0.042187,0.0355 -0.09375,0.0469 -0.051562,0.0113 -0.09375,0.0324 -0.09375,0.0469 0,0.0145 -0.042187,0.0355 -0.09375,0.0469 -0.051562,0.0113 -0.09375,0.0324 -0.09375,0.0469 0,0.0145 -0.042187,0.0355 -0.09375,0.0469 -0.051562,0.0113 -0.09375,0.0324 -0.09375,0.0469 0,0.0145 -0.042187,0.0355 -0.09375,0.0469 -0.051562,0.0113 -0.09375,0.0324 -0.09375,0.0469 0,0.0145 -0.042187,0.0355 -0.09375,0.0469 -0.051562,0.0113 -0.09375,0.0324 -0.09375,0.0469 0,0.0145 -0.042187,0.0355 -0.09375,0.0469 -0.051562,0.0113 -0.09375,0.0324 -0.09375,0.0469 0,0.0145 -0.042187,0.0355 -0.09375,0.0469 -0.051562,0.0113 -0.09375,0.0334 -0.09375,0.049 0,0.0156 -0.05625,0.0374 -0.1249999,0.0484 -0.06875,0.011 -0.1250001,0.0311 -0.1250001,0.0448 0,0.0136 -0.042187,0.034 -0.09375,0.0454 -0.051562,0.0113 -0.09375,0.0324 -0.09375,0.0469 0,0.0145 -0.042187,0.0355 -0.09375,0.0469 -0.051562,0.0113 -0.09375,0.0324 -0.09375,0.0469 0,0.0145 -0.042187,0.0355 -0.09375,0.0469 -0.051562,0.0113 -0.09375,0.0335 -0.09375,0.0494 0,0.0158 -0.021535,0.0288 -0.047856,0.0288 -0.026321,0 -0.055621,0.0202 -0.065111,0.045 -0.00949,0.0247 -0.058268,0.054 -0.1083945,0.065 -0.050126,0.011 -0.091139,0.0318 -0.091139,0.0463 0,0.0145 -0.042187,0.0355 -0.09375,0.0469 -0.051562,0.0113 -0.09375,0.032 -0.09375,0.046 0,0.014 -0.038531,0.035 -0.085624,0.0469 -0.047093,0.0118 -0.092937,0.0333 -0.1018756,0.0478 -0.021681,0.0351 -0.1582847,0.0601 -0.2265625,0.0416 z"
       id="path825"
       inkscape:connector-curvature="0" />
    <path
       style="fill:#003f7f;stroke-width:0.03125"
       d="m 4.1484377,12.38559 c -0.047266,-0.008 -0.085937,-0.0267 -0.085937,-0.0414 0,-0.0147 -0.042187,-0.036 -0.09375,-0.0473 -0.051563,-0.0113 -0.09375,-0.0324 -0.09375,-0.0469 0,-0.0145 -0.042188,-0.0356 -0.09375,-0.0469 -0.051563,-0.0113 -0.09375,-0.0324 -0.09375,-0.0469 0,-0.0145 -0.042188,-0.0356 -0.09375,-0.0469 -0.051563,-0.0113 -0.09375,-0.0324 -0.09375,-0.0469 0,-0.0145 -0.042188,-0.0356 -0.09375,-0.0469 -0.051563,-0.0113 -0.09375,-0.0324 -0.09375,-0.0469 0,-0.0145 -0.042188,-0.0356 -0.09375,-0.0469 -0.051563,-0.0113 -0.09375,-0.0324 -0.09375,-0.0469 0,-0.0145 -0.042188,-0.0356 -0.09375,-0.0469 -0.051563,-0.0113 -0.09375,-0.0324 -0.09375,-0.0469 0,-0.0145 -0.042188,-0.0356 -0.09375,-0.0469 -0.051563,-0.0113 -0.09375,-0.032 -0.09375,-0.046 0,-0.014 -0.035521,-0.0343 -0.078935,-0.0452 -0.088088,-0.0221 -0.3273152,-0.25325 -0.3273152,-0.31625 0,-0.0223 -0.017578,-0.0464 -0.039062,-0.0535 -0.030344,-0.0101 -0.039063,-0.28039 -0.039063,-1.21094 0,-0.93056 0.00872,-1.20082 0.039063,-1.21093 0.021484,-0.007 0.039062,-0.0276 0.039062,-0.0453 0,-0.0435 0.2336093,-0.27497 0.2775736,-0.27497 0.01921,0 0.034927,-0.0129 0.034927,-0.0288 0,-0.0158 0.042187,-0.038 0.09375,-0.0494 0.051562,-0.0113 0.09375,-0.0324 0.09375,-0.0469 0,-0.0145 0.042187,-0.0356 0.09375,-0.0469 0.051562,-0.0113 0.09375,-0.0324 0.09375,-0.0469 0,-0.0145 0.042187,-0.0356 0.09375,-0.0469 0.051562,-0.0113 0.09375,-0.0324 0.09375,-0.0469 0,-0.0145 0.042187,-0.0356 0.09375,-0.0469 0.051562,-0.0113 0.09375,-0.0324 0.09375,-0.0469 0,-0.0145 0.042187,-0.0356 0.09375,-0.0469 0.051562,-0.0113 0.09375,-0.0324 0.09375,-0.0469 0,-0.0145 0.042187,-0.0356 0.09375,-0.0469 0.051562,-0.0113 0.09375,-0.0324 0.09375,-0.0469 0,-0.0145 0.042187,-0.0356 0.09375,-0.0469 0.051562,-0.0113 0.09375,-0.0324 0.09375,-0.0469 0,-0.0145 0.042188,-0.0356 0.09375,-0.0469 0.051563,-0.0113 0.09375,-0.0324 0.09375,-0.0469 0,-0.0145 0.042188,-0.0356 0.09375,-0.0469 0.051563,-0.0113 0.09375,-0.0324 0.09375,-0.0469 0,-0.0145 0.042188,-0.0356 0.09375,-0.0469 0.051563,-0.0113 0.09375,-0.0324 0.09375,-0.0469 0,-0.0145 0.042188,-0.0356 0.09375,-0.0469 0.051563,-0.0113 0.09375,-0.0324 0.09375,-0.0469 0,-0.0145 0.042188,-0.0356 0.09375,-0.0469 0.051563,-0.0113 0.09375,-0.0324 0.09375,-0.0469 0,-0.0145 0.042188,-0.0356 0.09375,-0.0469 0.051563,-0.0113 0.09375,-0.0324 0.09375,-0.0469 0,-0.0145 0.042188,-0.0356 0.09375,-0.0469 0.051563,-0.0113 0.09375,-0.0324 0.09375,-0.0469 0,-0.0145 0.042188,-0.0356 0.09375,-0.0469 0.051563,-0.0113 0.09375,-0.032 0.09375,-0.046 0,-0.014 0.038531,-0.0351 0.085624,-0.0469 0.047093,-0.0118 0.095799,-0.038 0.1082353,-0.0581 0.03083,-0.0499 0.3128306,-0.0478 0.3295779,0.002 0.00716,0.0215 0.033384,0.0391 0.058272,0.0391 0.024889,0 0.053016,0.0202 0.062506,0.045 0.00949,0.0247 0.058268,0.054 0.1083945,0.065 0.050126,0.011 0.091139,0.0327 0.091139,0.0482 0,0.0155 0.035156,0.037 0.078125,0.0478 0.042969,0.0108 0.078125,0.0305 0.078125,0.0438 0,0.0133 0.028125,0.0316 0.0625,0.0406 0.034375,0.009 0.0625,0.0388 0.0625,0.0661 0,0.029 -0.026146,0.0498 -0.0625,0.0498 -0.034375,0 -0.0625,0.0129 -0.0625,0.0288 0,0.0158 -0.042187,0.038 -0.09375,0.0494 -0.051562,0.0113 -0.09375,0.0324 -0.09375,0.0469 0,0.0145 -0.042187,0.0355 -0.09375,0.0469 -0.051562,0.0113 -0.09375,0.0324 -0.09375,0.0469 0,0.0145 -0.042187,0.0355 -0.09375,0.0469 -0.051562,0.0113 -0.09375,0.0324 -0.09375,0.0469 0,0.0145 -0.042187,0.0355 -0.09375,0.0469 -0.051562,0.0113 -0.09375,0.0324 -0.09375,0.0469 0,0.0145 -0.042187,0.0355 -0.09375,0.0469 -0.051562,0.0113 -0.09375,0.0324 -0.09375,0.0469 0,0.0145 -0.042187,0.0355 -0.09375,0.0469 -0.051562,0.0113 -0.09375,0.0324 -0.09375,0.0469 0,0.0145 -0.042187,0.0355 -0.09375,0.0469 -0.051562,0.0113 -0.09375,0.0324 -0.09375,0.0469 0,0.0145 -0.042187,0.0355 -0.09375,0.0469 -0.051562,0.0113 -0.09375,0.0324 -0.09375,0.0469 0,0.0145 -0.042187,0.0355 -0.09375,0.0469 -0.051562,0.0113 -0.09375,0.0324 -0.09375,0.0469 0,0.0145 -0.042187,0.0355 -0.09375,0.0469 -0.051562,0.0113 -0.09375,0.0324 -0.09375,0.0469 0,0.0145 -0.042187,0.0355 -0.09375,0.0469 -0.051562,0.0113 -0.09375,0.0324 -0.09375,0.0469 0,0.0145 -0.042187,0.0355 -0.09375,0.0469 -0.051562,0.0113 -0.09375,0.0324 -0.09375,0.0469 0,0.0145 -0.042187,0.0355 -0.09375,0.0469 -0.051562,0.0113 -0.09375,0.0324 -0.09375,0.0469 0,0.0145 -0.042187,0.0355 -0.09375,0.0469 -0.051563,0.0113 -0.09375,0.0324 -0.09375,0.0469 0,0.0145 -0.042188,0.0355 -0.09375,0.0469 -0.051563,0.0113 -0.09375,0.0324 -0.09375,0.0469 0,0.0145 -0.042188,0.0355 -0.09375,0.0469 -0.051563,0.0113 -0.09375,0.0324 -0.09375,0.0469 0,0.0145 -0.042188,0.0355 -0.09375,0.0469 -0.051563,0.0113 -0.09375,0.0324 -0.09375,0.0469 0,0.0145 -0.042187,0.0355 -0.09375,0.0469 -0.051563,0.0113 -0.09375,0.0335 -0.09375,0.0494 0,0.0158 -0.021094,0.0288 -0.046875,0.0288 C 3.006308,9.1875 3,9.30702 3,10.07564 v 0.88814 l 0.09375,0.0206 c 0.051563,0.0113 0.09375,0.0324 0.09375,0.0469 0,0.0145 0.042187,0.0355 0.09375,0.0469 0.051563,0.0113 0.09375,0.0324 0.09375,0.0469 0,0.0145 0.042187,0.0355 0.09375,0.0469 0.051562,0.0113 0.09375,0.0324 0.09375,0.0469 0,0.0145 0.042187,0.0355 0.09375,0.0469 0.051562,0.0113 0.09375,0.0324 0.09375,0.0469 0,0.0145 0.042187,0.0355 0.09375,0.0469 0.051562,0.0113 0.09375,0.0324 0.09375,0.0469 0,0.0145 0.042187,0.0355 0.09375,0.0469 0.051563,0.0113 0.09375,0.032 0.09375,0.046 0,0.014 0.038531,0.035 0.085624,0.0469 0.047093,0.0118 0.095365,0.0372 0.1072696,0.0565 0.011905,0.0193 0.072759,0.035 0.1352311,0.035 0.062472,0 0.1233263,-0.0158 0.1352309,-0.035 0.011905,-0.0193 0.060176,-0.0447 0.1072697,-0.0565 0.047093,-0.0118 0.085624,-0.0329 0.085624,-0.0469 0,-0.014 0.042188,-0.0347 0.09375,-0.046 0.051563,-0.0113 0.09375,-0.0324 0.09375,-0.0469 0,-0.0145 0.041013,-0.0353 0.091139,-0.0463 0.050127,-0.011 0.098904,-0.0403 0.1083945,-0.065 0.00949,-0.0247 0.03879,-0.045 0.065111,-0.045 0.026321,0 0.047856,-0.0129 0.047856,-0.0288 0,-0.0158 0.042188,-0.038 0.09375,-0.0494 0.051563,-0.0113 0.09375,-0.0324 0.09375,-0.0469 0,-0.0145 0.042188,-0.0356 0.09375,-0.0469 0.051563,-0.0113 0.09375,-0.0324 0.09375,-0.0469 0,-0.0145 0.042188,-0.0356 0.09375,-0.0469 0.051563,-0.0113 0.09375,-0.0317 0.09375,-0.0454 0,-0.0136 0.05625,-0.0338 0.1250001,-0.0448 0.06875,-0.011 0.1249999,-0.0328 0.1249999,-0.0484 0,-0.0156 0.042188,-0.0377 0.09375,-0.049 0.051563,-0.0113 0.09375,-0.0324 0.09375,-0.0469 0,-0.0145 0.042188,-0.0356 0.09375,-0.0469 0.051563,-0.0113 0.09375,-0.0324 0.09375,-0.0469 0,-0.0145 0.042188,-0.0356 0.09375,-0.0469 0.051563,-0.0113 0.09375,-0.0324 0.09375,-0.0469 0,-0.0145 0.042188,-0.0356 0.09375,-0.0469 0.051563,-0.0113 0.09375,-0.0324 0.09375,-0.0469 0,-0.0145 0.042188,-0.0356 0.09375,-0.0469 0.051563,-0.0113 0.09375,-0.0324 0.09375,-0.0469 0,-0.0145 0.042188,-0.0356 0.09375,-0.0469 0.051563,-0.0113 0.09375,-0.0324 0.09375,-0.0469 0,-0.0145 0.042188,-0.0356 0.09375,-0.0469 0.051563,-0.0113 0.09375,-0.0324 0.09375,-0.0469 0,-0.0145 0.042188,-0.0356 0.09375,-0.0469 0.051563,-0.0113 0.09375,-0.0324 0.09375,-0.0469 0,-0.0145 0.042188,-0.0356 0.09375,-0.0469 0.051563,-0.0113 0.09375,-0.0324 0.09375,-0.0469 0,-0.0145 0.042188,-0.0356 0.09375,-0.0469 0.051563,-0.0113 0.09375,-0.0335 0.09375,-0.0494 0,-0.0158 0.021094,-0.0288 0.046875,-0.0288 0.039276,0 0.046875,0.0662 0.046875,0.40848 0,0.43943 -0.011946,0.47605 -0.1681,0.51524 -0.045045,0.0113 -0.0819,0.032 -0.0819,0.0459 0,0.014 -0.042187,0.0346 -0.09375,0.046 -0.051562,0.0113 -0.09375,0.0324 -0.09375,0.0469 0,0.0145 -0.042187,0.0355 -0.09375,0.0469 -0.051562,0.0113 -0.09375,0.0324 -0.09375,0.0469 0,0.0145 -0.042187,0.0355 -0.09375,0.0469 -0.051562,0.0113 -0.09375,0.0324 -0.09375,0.0469 0,0.0145 -0.042187,0.0355 -0.09375,0.0469 -0.051562,0.0113 -0.09375,0.0324 -0.09375,0.0469 0,0.0145 -0.042187,0.0355 -0.09375,0.0469 -0.051562,0.0113 -0.09375,0.0324 -0.09375,0.0469 0,0.0145 -0.042187,0.0355 -0.09375,0.0469 -0.051562,0.0113 -0.09375,0.0324 -0.09375,0.0469 0,0.0145 -0.042187,0.0355 -0.09375,0.0469 -0.051562,0.0113 -0.09375,0.0324 -0.09375,0.0469 0,0.0145 -0.042187,0.0355 -0.09375,0.0469 -0.051562,0.0113 -0.09375,0.032 -0.09375,0.0459 0,0.0139 -0.049219,0.0345 -0.1093749,0.0458 -0.060156,0.0113 -0.1093751,0.0328 -0.1093751,0.0479 0,0.015 -0.042187,0.0366 -0.09375,0.048 -0.051562,0.0113 -0.09375,0.0324 -0.09375,0.0469 0,0.0145 -0.042187,0.0355 -0.09375,0.0469 -0.051562,0.0113 -0.09375,0.032 -0.09375,0.046 0,0.014 -0.035156,0.0342 -0.078125,0.045 -0.042969,0.0108 -0.078125,0.0323 -0.078125,0.0478 0,0.0155 -0.042187,0.0374 -0.09375,0.0488 -0.051562,0.0113 -0.09375,0.0324 -0.09375,0.0469 0,0.0145 -0.042187,0.0355 -0.09375,0.0469 -0.051562,0.0113 -0.09375,0.0324 -0.09375,0.0469 0,0.0145 -0.042187,0.0355 -0.09375,0.0469 -0.051562,0.0113 -0.09375,0.032 -0.09375,0.046 0,0.014 -0.038531,0.035 -0.085624,0.0469 -0.047093,0.0118 -0.095264,0.0371 -0.1070468,0.0562 -0.022191,0.0359 -0.5024887,0.0603 -0.6588912,0.0335 z"
       id="path823"
       inkscape:connector-curvature="0" />
    <path
       style="fill:#007f2a;stroke-width:0.03125"
       d="M 9.4692288,5.21094 C 9.4689143,3.75813 9.4580348,3 9.4375008,3 c -0.017187,0 -0.03125,-0.0211 -0.03125,-0.0469 0,-0.0258 -0.021094,-0.0469 -0.046875,-0.0469 -0.025781,0 -0.046875,-0.0129 -0.046875,-0.0288 0,-0.0158 -0.042187,-0.038 -0.09375,-0.0494 -0.051562,-0.0113 -0.09375,-0.0324 -0.09375,-0.0469 0,-0.0145 -0.042187,-0.0356 -0.09375,-0.0469 -0.051562,-0.0113 -0.09375,-0.0324 -0.09375,-0.0469 0,-0.0145 -0.042187,-0.0356 -0.09375,-0.0469 -0.051562,-0.0113 -0.09375,-0.0324 -0.09375,-0.0469 0,-0.0145 -0.042187,-0.0356 -0.09375,-0.0469 -0.051562,-0.0113 -0.09375,-0.0324 -0.09375,-0.0469 0,-0.0145 -0.042187,-0.0356 -0.09375,-0.0469 -0.051562,-0.0113 -0.09375,-0.032 -0.09375,-0.046 0,-0.014 -0.038531,-0.0351 -0.085624,-0.0469 -0.047093,-0.0118 -0.095365,-0.0373 -0.1072696,-0.0565 -0.028124,-0.0455 -0.2423379,-0.0455 -0.270462,0 -0.011905,0.0193 -0.060176,0.0447 -0.1072697,0.0565 -0.047093,0.0118 -0.085624,0.0329 -0.085624,0.0469 0,0.014 -0.042187,0.0346 -0.09375,0.046 -0.051562,0.0113 -0.09375,0.0324 -0.09375,0.0469 0,0.0145 -0.042187,0.0355 -0.09375,0.0469 -0.051562,0.0113 -0.09375,0.0324 -0.09375,0.0469 0,0.0145 -0.042187,0.0355 -0.09375,0.0469 -0.051562,0.0113 -0.09375,0.0324 -0.09375,0.0469 0,0.0145 -0.042187,0.0355 -0.09375,0.0469 -0.051562,0.0113 -0.09375,0.0324 -0.09375,0.0469 0,0.0145 -0.042187,0.0355 -0.09375,0.0469 -0.051562,0.0113 -0.09375,0.0324 -0.09375,0.0469 0,0.0145 -0.042187,0.0355 -0.09375,0.0469 l -0.09375,0.0206 v 2.19771 c 0,2.18233 -4.383e-4,2.1976 -0.0625,2.18137 -0.034375,-0.009 -0.0625,-0.0272 -0.0625,-0.0406 0,-0.0133 -0.035156,-0.033 -0.078125,-0.0438 -0.042969,-0.0108 -0.078125,-0.0323 -0.078125,-0.0478 0,-0.0155 -0.041013,-0.0372 -0.091139,-0.0482 -0.050126,-0.011 -0.098904,-0.0403 -0.1083945,-0.065 -0.00949,-0.0247 -0.03879,-0.045 -0.065111,-0.045 -0.026321,0 -0.047856,-0.0125 -0.047856,-0.0279 0,-0.0153 -0.035156,-0.0367 -0.078125,-0.0475 L 5.843751,6.93608 V 4.84292 c 0,-1.17525 0.011991,-2.09315 0.027344,-2.09315 0.015039,0 0.035971,-0.0431 0.046515,-0.0959 0.02305,-0.11525 0.2595373,-0.36126 0.3751772,-0.39028 0.045218,-0.0113 0.082214,-0.0321 0.082214,-0.046 0,-0.014 0.042188,-0.0347 0.09375,-0.046 0.051563,-0.0113 0.09375,-0.0324 0.09375,-0.0469 0,-0.0145 0.042188,-0.0356 0.09375,-0.0469 0.051563,-0.0113 0.09375,-0.0324 0.09375,-0.0469 0,-0.0145 0.042188,-0.0356 0.09375,-0.0469 0.051563,-0.0113 0.09375,-0.0324 0.09375,-0.0469 0,-0.0145 0.042188,-0.0356 0.09375,-0.0469 0.051563,-0.0113 0.09375,-0.0324 0.09375,-0.0469 0,-0.0145 0.042188,-0.0356 0.09375,-0.0469 0.051563,-0.0113 0.09375,-0.0324 0.09375,-0.0469 0,-0.0145 0.042188,-0.0356 0.09375,-0.0469 0.051563,-0.0113 0.09375,-0.032 0.09375,-0.046 0,-0.014 0.038531,-0.0351 0.085625,-0.0469 0.047093,-0.0118 0.095813,-0.038 0.1082653,-0.0581 0.031336,-0.0506 0.705979,-0.0506 0.7372603,0 0.012431,0.0201 0.061132,0.0463 0.1082257,0.0581 0.047093,0.0118 0.085624,0.0329 0.085624,0.0469 0,0.014 0.042187,0.0346 0.09375,0.046 0.051562,0.0113 0.09375,0.0324 0.09375,0.0469 0,0.0145 0.042187,0.0355 0.09375,0.0469 0.051562,0.0113 0.09375,0.0324 0.09375,0.0469 0,0.0145 0.042187,0.0355 0.09375,0.0469 0.051562,0.0113 0.09375,0.0324 0.09375,0.0469 0,0.0145 0.042187,0.0355 0.09375,0.0469 0.051562,0.0113 0.09375,0.0324 0.09375,0.0469 0,0.0145 0.042187,0.0355 0.09375,0.0469 0.051562,0.0113 0.09375,0.0324 0.09375,0.0469 0,0.0145 0.042187,0.0355 0.09375,0.0469 0.051562,0.0113 0.09375,0.0335 0.09375,0.0494 0,0.0158 0.015717,0.0288 0.034927,0.0288 0.04545,0 0.2775735,0.23212 0.2775735,0.27757 0,0.0192 0.0139,0.0349 0.03088,0.0349 0.01698,0 0.03988,0.0562 0.05087,0.125 0.01099,0.0688 0.03225,0.125 0.04724,0.125 0.01523,0 0.02726,0.90957 0.02726,2.0619 v 2.06191 l -0.07586,0.019 c -0.04173,0.0105 -0.08347,0.0389 -0.09277,0.0631 -0.0093,0.0242 -0.03844,0.044 -0.064761,0.044 -0.026321,0 -0.047856,0.0138 -0.047856,0.0307 0,0.0168 -0.034139,0.0392 -0.075864,0.0497 -0.041725,0.0105 -0.083471,0.0389 -0.092769,0.0631 -0.0093,0.0242 -0.03844,0.044 -0.064761,0.044 -0.026321,0 -0.047856,0.0131 -0.047856,0.0291 0,0.016 -0.031641,0.039 -0.070312,0.0511 C 9.547271,7.34197 9.505299,7.36747 9.492672,7.38667 9.480044,7.40587 9.469498,6.4266 9.469235,5.21059 Z"
       id="path821"
       inkscape:connector-curvature="0" />
    <path
       style="fill:#7f0000;stroke-width:0.03125"
       d="m 11.367188,12.38559 c -0.04727,-0.008 -0.08594,-0.0267 -0.08594,-0.0414 0,-0.0147 -0.04219,-0.036 -0.09375,-0.0473 -0.05156,-0.0113 -0.09375,-0.0324 -0.09375,-0.0469 0,-0.0145 -0.04219,-0.0356 -0.09375,-0.0469 -0.05156,-0.0113 -0.09375,-0.0324 -0.09375,-0.0469 0,-0.0145 -0.04219,-0.0356 -0.09375,-0.0469 -0.05156,-0.0113 -0.09375,-0.0324 -0.09375,-0.0469 0,-0.0145 -0.04219,-0.0356 -0.09375,-0.0469 -0.05156,-0.0113 -0.09375,-0.0324 -0.09375,-0.0469 0,-0.0145 -0.04219,-0.0356 -0.09375,-0.0469 -0.05156,-0.0113 -0.09375,-0.0324 -0.09375,-0.0469 0,-0.0145 -0.04219,-0.0356 -0.09375,-0.0469 -0.05156,-0.0113 -0.09375,-0.0324 -0.09375,-0.0469 0,-0.0145 -0.04219,-0.0356 -0.09375,-0.0469 -0.05156,-0.0113 -0.09375,-0.0324 -0.09375,-0.0469 0,-0.0145 -0.042187,-0.0356 -0.09375,-0.0469 -0.051562,-0.0113 -0.09375,-0.0324 -0.09375,-0.0469 0,-0.0145 -0.042187,-0.0356 -0.09375,-0.0469 -0.051562,-0.0113 -0.09375,-0.0324 -0.09375,-0.0469 0,-0.0145 -0.042187,-0.0356 -0.09375,-0.0469 -0.051562,-0.0113 -0.09375,-0.0324 -0.09375,-0.0469 0,-0.0145 -0.042187,-0.0356 -0.09375,-0.0469 -0.051562,-0.0113 -0.09375,-0.0324 -0.09375,-0.0469 0,-0.0145 -0.042187,-0.0356 -0.09375,-0.0469 -0.051562,-0.0113 -0.09375,-0.0324 -0.09375,-0.0469 0,-0.0145 -0.042187,-0.0356 -0.09375,-0.0469 -0.051562,-0.0113 -0.09375,-0.0324 -0.09375,-0.0469 0,-0.0145 -0.042187,-0.0356 -0.09375,-0.0469 -0.051562,-0.0113 -0.09375,-0.0324 -0.09375,-0.0469 0,-0.0145 -0.042187,-0.0356 -0.09375,-0.0469 -0.051562,-0.0113 -0.09375,-0.0324 -0.09375,-0.0469 0,-0.0145 -0.042187,-0.0356 -0.09375,-0.0469 -0.051562,-0.0113 -0.09375,-0.032 -0.09375,-0.046 0,-0.014 -0.038531,-0.035 -0.085624,-0.0469 -0.047093,-0.0118 -0.096097,-0.038 -0.1088964,-0.0581 -0.0128,-0.0201 -0.023488,-0.22291 -0.023751,-0.45065 -4.031e-4,-0.34743 0.00706,-0.41406 0.046396,-0.41406 0.025781,0 0.046875,0.0141 0.046875,0.0312 0,0.0172 0.021535,0.0312 0.047856,0.0312 0.026321,0 0.055314,0.0194 0.064429,0.0432 0.00912,0.0237 0.071955,0.0521 0.1396442,0.0629 0.067689,0.0108 0.1230707,0.0325 0.1230707,0.0481 0,0.0156 0.042187,0.0377 0.09375,0.049 0.051562,0.0113 0.09375,0.0324 0.09375,0.0469 0,0.0145 0.042187,0.0355 0.09375,0.0469 0.051562,0.0113 0.09375,0.0324 0.09375,0.0469 0,0.0145 0.042187,0.0355 0.09375,0.0469 0.051562,0.0113 0.09375,0.0324 0.09375,0.0469 0,0.0145 0.042187,0.0355 0.09375,0.0469 0.051562,0.0113 0.09375,0.0324 0.09375,0.0469 0,0.0145 0.042187,0.0355 0.09375,0.0469 0.051562,0.0113 0.09375,0.0324 0.09375,0.0469 0,0.0145 0.042187,0.0355 0.09375,0.0469 0.051562,0.0113 0.09375,0.0324 0.09375,0.0469 0,0.0145 0.042187,0.0355 0.09375,0.0469 0.051562,0.0113 0.09375,0.0324 0.09375,0.0469 0,0.0145 0.042187,0.0355 0.09375,0.0469 0.051562,0.0113 0.09375,0.0324 0.09375,0.0469 0,0.0145 0.04219,0.0355 0.09375,0.0469 0.05156,0.0113 0.09375,0.0324 0.09375,0.0469 0,0.0145 0.04219,0.0355 0.09375,0.0469 0.05156,0.0113 0.09375,0.0324 0.09375,0.0469 0,0.0145 0.04219,0.0355 0.09375,0.0469 0.05156,0.0113 0.09375,0.0324 0.09375,0.0469 0,0.0145 0.04219,0.0355 0.09375,0.0469 0.05156,0.0113 0.09375,0.0324 0.09375,0.0469 0,0.0145 0.04219,0.0355 0.09375,0.0469 0.05156,0.0113 0.09375,0.0324 0.09375,0.0469 0,0.0145 0.04219,0.0355 0.09375,0.0469 0.05156,0.0113 0.09375,0.0324 0.09375,0.0469 0,0.0145 0.04219,0.0355 0.09375,0.0469 0.05156,0.0113 0.09375,0.032 0.09375,0.046 0,0.014 0.03853,0.035 0.08563,0.0469 0.04709,0.0118 0.09536,0.0372 0.107269,0.0565 0.0119,0.0193 0.07276,0.035 0.135231,0.035 0.06247,0 0.123327,-0.0158 0.135231,-0.035 0.01191,-0.0193 0.06018,-0.0447 0.10727,-0.0565 0.04709,-0.0118 0.08562,-0.0329 0.08562,-0.0469 0,-0.014 0.04219,-0.0347 0.09375,-0.046 0.05156,-0.0113 0.09375,-0.0324 0.09375,-0.0469 0,-0.0145 0.04219,-0.0356 0.09375,-0.0469 0.05156,-0.0113 0.09375,-0.0324 0.09375,-0.0469 0,-0.0145 0.04219,-0.0356 0.09375,-0.0469 0.05156,-0.0113 0.09375,-0.0324 0.09375,-0.0469 0,-0.0145 0.04219,-0.0356 0.09375,-0.0469 0.05156,-0.0113 0.09375,-0.0324 0.09375,-0.0469 0,-0.0145 0.04219,-0.0356 0.09375,-0.0469 0.05156,-0.0113 0.09375,-0.0324 0.09375,-0.0469 0,-0.0145 0.04219,-0.0356 0.09375,-0.0469 l 0.09375,-0.0206 V 10.09146 9.21954 l -0.07812,-0.0196 c -0.04297,-0.0108 -0.07813,-0.031 -0.07813,-0.045 0,-0.014 -0.04219,-0.0347 -0.09375,-0.046 -0.05156,-0.0113 -0.09375,-0.0324 -0.09375,-0.0469 0,-0.0145 -0.04219,-0.0356 -0.09375,-0.0469 -0.05156,-0.0113 -0.09375,-0.0324 -0.09375,-0.0469 0,-0.0145 -0.04219,-0.0356 -0.09375,-0.0469 -0.05156,-0.0113 -0.09375,-0.0324 -0.09375,-0.0469 0,-0.0145 -0.04219,-0.0356 -0.09375,-0.0469 -0.05156,-0.0113 -0.09375,-0.0324 -0.09375,-0.0469 0,-0.0145 -0.04219,-0.0356 -0.09375,-0.0469 -0.05156,-0.0113 -0.09375,-0.0324 -0.09375,-0.0469 0,-0.0145 -0.04219,-0.0356 -0.09375,-0.0469 -0.05156,-0.0113 -0.09375,-0.0324 -0.09375,-0.0469 0,-0.0145 -0.04219,-0.0356 -0.09375,-0.0469 -0.05156,-0.0113 -0.09375,-0.0324 -0.09375,-0.0469 0,-0.0145 -0.04219,-0.0356 -0.09375,-0.0469 -0.05156,-0.0113 -0.09375,-0.0324 -0.09375,-0.0469 0,-0.0145 -0.04219,-0.0356 -0.09375,-0.0469 -0.05156,-0.0113 -0.09375,-0.0324 -0.09375,-0.0469 0,-0.0145 -0.04219,-0.0356 -0.09375,-0.0469 -0.05156,-0.0113 -0.09375,-0.0324 -0.09375,-0.0469 0,-0.0145 -0.04219,-0.0356 -0.09375,-0.0469 -0.05156,-0.0113 -0.09375,-0.0324 -0.09375,-0.0469 0,-0.0145 -0.04219,-0.0356 -0.09375,-0.0469 -0.05156,-0.0113 -0.09375,-0.0324 -0.09375,-0.0469 0,-0.0145 -0.04219,-0.0356 -0.09375,-0.0469 -0.05156,-0.0113 -0.09375,-0.0324 -0.09375,-0.0469 0,-0.0145 -0.04219,-0.0356 -0.09375,-0.0469 -0.05156,-0.0113 -0.09375,-0.0324 -0.09375,-0.0469 0,-0.0145 -0.04219,-0.0356 -0.09375,-0.0469 -0.05156,-0.0113 -0.09375,-0.0324 -0.09375,-0.0469 0,-0.0145 -0.04219,-0.0356 -0.09375,-0.0469 -0.05156,-0.0113 -0.093749,-0.0324 -0.093749,-0.0469 0,-0.0145 -0.041013,-0.0353 -0.091139,-0.0463 -0.050127,-0.011 -0.098904,-0.0403 -0.1083943,-0.065 -0.00949,-0.0247 -0.03879,-0.045 -0.065111,-0.045 -0.026321,0 -0.047856,-0.0125 -0.047856,-0.0279 0,-0.0153 -0.035156,-0.0367 -0.078125,-0.0475 -0.042969,-0.0108 -0.078125,-0.0319 -0.078125,-0.0469 0,-0.015 0.035156,-0.0361 0.078125,-0.0469 0.042969,-0.0108 0.078125,-0.0334 0.078125,-0.0503 0,-0.0169 0.021535,-0.0307 0.047856,-0.0307 0.026321,0 0.055463,-0.0198 0.064761,-0.044 0.0093,-0.0242 0.051044,-0.0526 0.092769,-0.0631 0.041725,-0.0105 0.075864,-0.0328 0.075864,-0.0497 0,-0.0169 0.020395,-0.0307 0.045322,-0.0307 0.024928,0 0.059095,-0.0246 0.075927,-0.0547 0.0359,-0.0641 0.303899,-0.0784 0.341142,-0.0181 0.01244,0.0201 0.06114,0.0463 0.108235,0.0581 0.04709,0.0118 0.08562,0.0329 0.08562,0.0469 0,0.014 0.04219,0.0346 0.09375,0.046 0.05156,0.0113 0.09375,0.0324 0.09375,0.0469 0,0.0145 0.04219,0.0355 0.09375,0.0469 0.05156,0.0113 0.09375,0.0324 0.09375,0.0469 0,0.0145 0.04219,0.0355 0.09375,0.0469 0.05156,0.0113 0.09375,0.0324 0.09375,0.0469 0,0.0145 0.04219,0.0355 0.09375,0.0469 0.05156,0.0113 0.09375,0.0324 0.09375,0.0469 0,0.0145 0.04219,0.0355 0.09375,0.0469 0.05156,0.0113 0.09375,0.0324 0.09375,0.0469 0,0.0145 0.04219,0.0355 0.09375,0.0469 0.05156,0.0113 0.09375,0.0324 0.09375,0.0469 0,0.0145 0.04219,0.0355 0.09375,0.0469 0.05156,0.0113 0.09375,0.0324 0.09375,0.0469 0,0.0145 0.04219,0.0355 0.09375,0.0469 0.05156,0.0113 0.09375,0.0324 0.09375,0.0469 0,0.0145 0.04219,0.0355 0.09375,0.0469 0.05156,0.0113 0.09375,0.0324 0.09375,0.0469 0,0.0145 0.04219,0.0355 0.09375,0.0469 0.05156,0.0113 0.09375,0.0324 0.09375,0.0469 0,0.0145 0.04219,0.0355 0.09375,0.0469 0.05156,0.0113 0.09375,0.0324 0.09375,0.0469 0,0.0145 0.04219,0.0355 0.09375,0.0469 0.05156,0.0113 0.09375,0.0324 0.09375,0.0469 0,0.0145 0.04219,0.0355 0.09375,0.0469 0.05156,0.0113 0.09375,0.0324 0.09375,0.0469 0,0.0145 0.04219,0.0355 0.09375,0.0469 0.05156,0.0113 0.09375,0.0324 0.09375,0.0469 0,0.0145 0.04219,0.0355 0.09375,0.0469 0.05156,0.0113 0.09375,0.0335 0.09375,0.0494 0,0.0158 0.01594,0.0288 0.03543,0.0288 0.06635,0 0.340354,0.30859 0.359645,0.40504 0.01045,0.0522 0.0313,0.095 0.04634,0.095 0.01509,0 0.02734,0.47619 0.02734,1.0625 0,0.58631 -0.01225,1.0625 -0.02734,1.0625 -0.01504,0 -0.03597,0.0431 -0.04652,0.0959 -0.02305,0.11525 -0.259537,0.36126 -0.375177,0.39028 -0.04522,0.0113 -0.08221,0.0321 -0.08221,0.046 0,0.014 -0.04219,0.0346 -0.09375,0.046 -0.05156,0.0113 -0.09375,0.0324 -0.09375,0.0469 0,0.0145 -0.04219,0.0355 -0.09375,0.0469 -0.05156,0.0113 -0.09375,0.0324 -0.09375,0.0469 0,0.0145 -0.04219,0.0355 -0.09375,0.0469 -0.05156,0.0113 -0.09375,0.0324 -0.09375,0.0469 0,0.0145 -0.04219,0.0355 -0.09375,0.0469 -0.05156,0.0113 -0.09375,0.0324 -0.09375,0.0469 0,0.0145 -0.04219,0.0355 -0.09375,0.0469 -0.05156,0.0113 -0.09375,0.0324 -0.09375,0.0469 0,0.0145 -0.04219,0.0355 -0.09375,0.0469 -0.05156,0.0113 -0.09375,0.032 -0.09375,0.046 0,0.014 -0.03853,0.035 -0.08562,0.0469 -0.04709,0.0118 -0.09527,0.0371 -0.107047,0.0562 -0.02219,0.0359 -0.502489,0.0603 -0.658891,0.0335 z"
       id="path819"
       inkscape:connector-curvature="0" />
  </g>
</svg>
