<?xml version="1.0" encoding="UTF-8" standalone="no"?>
<!-- Created with Inkscape (http://www.inkscape.org/) -->

<svg
   version="1.1"
   id="svg2"
   width="1600"
   height="1600"
   viewBox="0 0 1600 1600"
   sodipodi:docname="origin.svg"
   inkscape:version="1.2.2 (732a01da63, 2022-12-09)"
   xmlns:inkscape="http://www.inkscape.org/namespaces/inkscape"
   xmlns:sodipodi="http://sodipodi.sourceforge.net/DTD/sodipodi-0.dtd"
   xmlns="http://www.w3.org/2000/svg"
   xmlns:svg="http://www.w3.org/2000/svg"
   xmlns:rdf="http://www.w3.org/1999/02/22-rdf-syntax-ns#"
   xmlns:cc="http://creativecommons.org/ns#"
   xmlns:dc="http://purl.org/dc/elements/1.1/">
  <metadata
     id="metadata8">
    <rdf:RDF>
      <cc:Work
         rdf:about="">
        <dc:format>image/svg+xml</dc:format>
        <dc:type
           rdf:resource="http://purl.org/dc/dcmitype/StillImage" />
      </cc:Work>
    </rdf:RDF>
  </metadata>
  <defs
     id="defs6" />
  <sodipodi:namedview
     pagecolor="#808080"
     bordercolor="#666666"
     borderopacity="1"
     objecttolerance="10"
     gridtolerance="10"
     guidetolerance="10"
     inkscape:pageopacity="0"
     inkscape:pageshadow="2"
     inkscape:window-width="2560"
     inkscape:window-height="1009"
     id="namedview4"
     showgrid="false"
     fit-margin-top="0"
     fit-margin-left="0"
     fit-margin-right="0"
     fit-margin-bottom="0"
     inkscape:zoom="0.5"
     inkscape:cx="1076"
     inkscape:cy="856"
     inkscape:window-x="-8"
     inkscape:window-y="-8"
     inkscape:window-maximized="1"
     inkscape:current-layer="svg2"
     inkscape:showpageshadow="0"
     inkscape:pagecheckerboard="true"
     inkscape:deskcolor="#d1d1d1" />
  <g
     id="ORIGIN"
     transform="matrix(99.999994,0,0,99.999994,-3.9999941e-6,0)"
     style="stroke-width:0.01">
    <path
       style="fill:none;stroke-width:0.0003125"
       d="M 0,8 V 0 h 8.0000002 8.0000008 v 8 8 H 8.0000002 0 Z m 4.8073289,4.35212 c 0.011782,-0.0191 0.059953,-0.0443 0.1070468,-0.0562 0.047093,-0.0118 0.085624,-0.0329 0.085624,-0.0469 0,-0.014 0.042188,-0.0347 0.09375,-0.046 0.051563,-0.0113 0.09375,-0.0324 0.09375,-0.0469 0,-0.0145 0.042188,-0.0356 0.09375,-0.0469 0.051563,-0.0113 0.09375,-0.0324 0.09375,-0.0469 0,-0.0145 0.042188,-0.0356 0.09375,-0.0469 0.051563,-0.0113 0.09375,-0.0333 0.09375,-0.0488 0,-0.0155 0.035156,-0.037 0.078125,-0.0478 0.042969,-0.0108 0.078125,-0.031 0.078125,-0.045 0,-0.014 0.042188,-0.0347 0.09375,-0.046 0.051563,-0.0113 0.09375,-0.0324 0.09375,-0.0469 0,-0.0145 0.042188,-0.0356 0.09375,-0.0469 0.051563,-0.0113 0.09375,-0.0329 0.09375,-0.048 0,-0.015 0.049219,-0.0366 0.1093751,-0.0479 0.060156,-0.0113 0.1093749,-0.0319 0.1093749,-0.0458 0,-0.0139 0.042188,-0.0346 0.09375,-0.0459 0.051563,-0.0113 0.09375,-0.0324 0.09375,-0.0469 0,-0.0145 0.042188,-0.0356 0.09375,-0.0469 0.051563,-0.0113 0.09375,-0.0324 0.09375,-0.0469 0,-0.0145 0.042188,-0.0356 0.09375,-0.0469 0.051563,-0.0113 0.09375,-0.0324 0.09375,-0.0469 0,-0.0145 0.042188,-0.0356 0.09375,-0.0469 0.051563,-0.0113 0.09375,-0.0324 0.09375,-0.0469 0,-0.0145 0.042188,-0.0356 0.09375,-0.0469 0.051563,-0.0113 0.09375,-0.0324 0.09375,-0.0469 0,-0.0145 0.042188,-0.0356 0.09375,-0.0469 0.051563,-0.0113 0.09375,-0.0324 0.09375,-0.0469 0,-0.0145 0.042188,-0.0356 0.09375,-0.0469 0.051563,-0.0113 0.09375,-0.0324 0.09375,-0.0469 0,-0.0145 0.042188,-0.0356 0.09375,-0.0469 0.051563,-0.0113 0.09375,-0.0324 0.09375,-0.0469 0,-0.0145 0.042188,-0.0356 0.09375,-0.0469 0.051563,-0.0113 0.09375,-0.0335 0.09375,-0.0494 0,-0.0158 0.021094,-0.0288 0.046875,-0.0288 0.025781,0 0.046875,0.0129 0.046875,0.0288 0,0.0158 0.042188,0.038 0.09375,0.0494 0.051563,0.0113 0.09375,0.0324 0.09375,0.0469 0,0.0145 0.042188,0.0355 0.09375,0.0469 0.051563,0.0113 0.09375,0.0324 0.09375,0.0469 0,0.0145 0.042188,0.0355 0.09375,0.0469 0.051563,0.0113 0.09375,0.0324 0.09375,0.0469 0,0.0145 0.042188,0.0355 0.09375,0.0469 0.051563,0.0113 0.09375,0.0324 0.09375,0.0469 0,0.0145 0.042188,0.0355 0.09375,0.0469 0.051563,0.0113 0.09375,0.0324 0.09375,0.0469 0,0.0145 0.042188,0.0355 0.09375,0.0469 0.051563,0.0113 0.09375,0.0324 0.09375,0.0469 0,0.0145 0.042188,0.0355 0.09375,0.0469 0.051563,0.0113 0.09375,0.0324 0.09375,0.0469 0,0.0145 0.042188,0.0355 0.09375,0.0469 0.051563,0.0113 0.09375,0.0324 0.09375,0.0469 0,0.0145 0.042188,0.0355 0.09375,0.0469 0.051563,0.0113 0.09375,0.0324 0.09375,0.0469 0,0.0145 0.042188,0.0355 0.09375,0.0469 0.051563,0.0113 0.09375,0.0324 0.09375,0.0469 0,0.0145 0.042188,0.0355 0.09375,0.0469 0.05156,0.0113 0.09375,0.0324 0.09375,0.0469 0,0.0145 0.04219,0.0355 0.09375,0.0469 0.05156,0.0113 0.09375,0.0324 0.09375,0.0469 0,0.0145 0.04219,0.0355 0.09375,0.0469 0.05156,0.0113 0.09375,0.0324 0.09375,0.0469 0,0.0145 0.04219,0.0355 0.09375,0.0469 0.05156,0.0113 0.09375,0.0324 0.09375,0.0469 0,0.0145 0.04219,0.0355 0.09375,0.0469 0.05156,0.0113 0.09375,0.0324 0.09375,0.0469 0,0.0145 0.04219,0.0355 0.09375,0.0469 0.05156,0.0113 0.09375,0.032 0.09375,0.046 0,0.014 0.03853,0.035 0.08563,0.0469 0.04709,0.0118 0.09579,0.038 0.108225,0.0581 0.03128,0.0506 0.705924,0.0506 0.737261,0 0.01245,-0.0201 0.06117,-0.0463 0.108265,-0.0581 0.04709,-0.0118 0.08562,-0.0329 0.08562,-0.0469 0,-0.014 0.04219,-0.0347 0.09375,-0.046 0.05156,-0.0113 0.09375,-0.0324 0.09375,-0.0469 0,-0.0145 0.04219,-0.0356 0.09375,-0.0469 0.05156,-0.0113 0.09375,-0.0324 0.09375,-0.0469 0,-0.0145 0.04219,-0.0356 0.09375,-0.0469 0.05156,-0.0113 0.09375,-0.0324 0.09375,-0.0469 0,-0.0145 0.04219,-0.0356 0.09375,-0.0469 0.05156,-0.0113 0.09375,-0.0324 0.09375,-0.0469 0,-0.0145 0.04219,-0.0356 0.09375,-0.0469 0.05156,-0.0113 0.09375,-0.0324 0.09375,-0.0469 0,-0.0145 0.04219,-0.0356 0.09375,-0.0469 0.05156,-0.0113 0.09375,-0.032 0.09375,-0.046 0,-0.014 0.037,-0.0347 0.08221,-0.046 0.11564,-0.029 0.352127,-0.27503 0.375177,-0.39028 0.01055,-0.0527 0.03148,-0.0959 0.04652,-0.0959 0.01509,0 0.02734,-0.47619 0.02734,-1.0625 0,-0.58631 -0.01225,-1.0625 -0.02734,-1.0625 -0.01504,0 -0.03589,-0.0427 -0.04634,-0.095 -0.01929,-0.0965 -0.293293,-0.40504 -0.359645,-0.40504 -0.01948,0 -0.03543,-0.0129 -0.03543,-0.0288 0,-0.0158 -0.04219,-0.038 -0.09375,-0.0494 -0.05156,-0.0113 -0.09375,-0.0324 -0.09375,-0.0469 0,-0.0145 -0.04219,-0.0356 -0.09375,-0.0469 -0.05156,-0.0113 -0.09375,-0.0324 -0.09375,-0.0469 0,-0.0145 -0.04219,-0.0356 -0.09375,-0.0469 -0.05156,-0.0113 -0.09375,-0.0324 -0.09375,-0.0469 0,-0.0145 -0.04219,-0.0356 -0.09375,-0.0469 -0.05156,-0.0113 -0.09375,-0.0324 -0.09375,-0.0469 0,-0.0145 -0.04219,-0.0356 -0.09375,-0.0469 -0.05156,-0.0113 -0.09375,-0.0324 -0.09375,-0.0469 0,-0.0145 -0.04219,-0.0356 -0.09375,-0.0469 -0.05156,-0.0113 -0.09375,-0.0324 -0.09375,-0.0469 0,-0.0145 -0.04219,-0.0356 -0.09375,-0.0469 -0.05156,-0.0113 -0.09375,-0.0324 -0.09375,-0.0469 0,-0.0145 -0.04219,-0.0356 -0.09375,-0.0469 -0.05156,-0.0113 -0.09375,-0.0324 -0.09375,-0.0469 0,-0.0145 -0.04219,-0.0356 -0.09375,-0.0469 -0.05156,-0.0113 -0.09375,-0.0324 -0.09375,-0.0469 0,-0.0145 -0.04219,-0.0356 -0.09375,-0.0469 -0.05156,-0.0113 -0.09375,-0.0324 -0.09375,-0.0469 0,-0.0145 -0.04219,-0.0356 -0.09375,-0.0469 -0.05156,-0.0113 -0.09375,-0.0324 -0.09375,-0.0469 0,-0.0145 -0.04219,-0.0356 -0.09375,-0.0469 -0.05156,-0.0113 -0.09375,-0.0324 -0.09375,-0.0469 0,-0.0145 -0.04219,-0.0356 -0.09375,-0.0469 -0.05156,-0.0113 -0.09375,-0.0324 -0.09375,-0.0469 0,-0.0145 -0.04219,-0.0356 -0.09375,-0.0469 -0.05156,-0.0113 -0.09375,-0.0324 -0.09375,-0.0469 0,-0.0145 -0.04219,-0.0356 -0.09375,-0.0469 -0.05156,-0.0113 -0.09375,-0.0324 -0.09375,-0.0469 0,-0.0145 -0.04219,-0.0356 -0.09375,-0.0469 -0.05156,-0.0113 -0.09375,-0.0324 -0.09375,-0.0469 0,-0.0145 -0.04219,-0.0356 -0.09375,-0.0469 L 10.218743,6.9312 V 4.87119 c 0,-1.15127 -0.01202,-2.06002 -0.02726,-2.06002 -0.01499,0 -0.03625,-0.0562 -0.04724,-0.125 -0.01099,-0.0688 -0.03388,-0.125 -0.05087,-0.125 -0.01699,0 -0.03088,-0.0157 -0.03088,-0.0349 0,-0.0192 -0.0546,-0.0895 -0.1213246,-0.15625 C 9.8744404,2.30332 9.8041277,2.2487 9.7849183,2.2487 c -0.01921,0 -0.034927,-0.013 -0.034927,-0.0288 0,-0.0158 -0.042188,-0.038 -0.09375,-0.0494 -0.051563,-0.0113 -0.09375,-0.0324 -0.09375,-0.0469 0,-0.0145 -0.042188,-0.0356 -0.09375,-0.0469 -0.051563,-0.0113 -0.09375,-0.0324 -0.09375,-0.0469 0,-0.0145 -0.042188,-0.0356 -0.09375,-0.0469 -0.051563,-0.0113 -0.09375,-0.0324 -0.09375,-0.0469 0,-0.0145 -0.042188,-0.0356 -0.09375,-0.0469 -0.051563,-0.0113 -0.09375,-0.0324 -0.09375,-0.0469 0,-0.0145 -0.042188,-0.0356 -0.09375,-0.0469 -0.051563,-0.0113 -0.09375,-0.0324 -0.09375,-0.0469 0,-0.0145 -0.042188,-0.0356 -0.09375,-0.0469 -0.051563,-0.0113 -0.09375,-0.032 -0.09375,-0.046 0,-0.014 -0.038531,-0.0351 -0.085624,-0.0469 C 8.4922743,1.5968 8.4435723,1.5706 8.4311416,1.5505 8.3998606,1.4999 7.7252175,1.4999 7.6938813,1.5505 7.6814283,1.5706 7.6327093,1.5968 7.585616,1.6086 7.538523,1.6204 7.499991,1.6415 7.499991,1.6555 c 0,0.014 -0.042187,0.0346 -0.09375,0.046 -0.051562,0.0113 -0.09375,0.0324 -0.09375,0.0469 0,0.0145 -0.042187,0.0355 -0.09375,0.0469 -0.051562,0.0113 -0.09375,0.0324 -0.09375,0.0469 0,0.0145 -0.042187,0.0355 -0.09375,0.0469 -0.051562,0.0113 -0.09375,0.0324 -0.09375,0.0469 0,0.0145 -0.042187,0.0355 -0.09375,0.0469 -0.051562,0.0113 -0.09375,0.0324 -0.09375,0.0469 0,0.0145 -0.042187,0.0355 -0.09375,0.0469 -0.051562,0.0113 -0.09375,0.0324 -0.09375,0.0469 0,0.0145 -0.042187,0.0355 -0.09375,0.0469 -0.051562,0.0113 -0.09375,0.032 -0.09375,0.046 0,0.014 -0.036996,0.0347 -0.082214,0.046 -0.1156399,0.029 -0.3521271,0.27503 -0.3751772,0.39028 -0.010544,0.0527 -0.031476,0.0959 -0.046515,0.0959 -0.015353,0 -0.027344,0.91709 -0.027344,2.09127 v 2.09126 l -0.09375,0.0206 c -0.051562,0.0113 -0.09375,0.0324 -0.09375,0.0469 0,0.0145 -0.042187,0.0355 -0.09375,0.0469 -0.051562,0.0113 -0.09375,0.0324 -0.09375,0.0469 0,0.0145 -0.042187,0.0355 -0.09375,0.0469 -0.051562,0.0113 -0.09375,0.0324 -0.09375,0.0469 0,0.0145 -0.042187,0.0355 -0.09375,0.0469 -0.051562,0.0113 -0.09375,0.0324 -0.09375,0.0469 0,0.0145 -0.042187,0.0355 -0.09375,0.0469 -0.051562,0.0113 -0.09375,0.0324 -0.09375,0.0469 0,0.0145 -0.042187,0.0355 -0.09375,0.0469 -0.051562,0.0113 -0.09375,0.0324 -0.09375,0.0469 0,0.0145 -0.042187,0.0355 -0.09375,0.0469 -0.051562,0.0113 -0.09375,0.0324 -0.09375,0.0469 0,0.0145 -0.042187,0.0355 -0.09375,0.0469 -0.051562,0.0113 -0.09375,0.0324 -0.09375,0.0469 0,0.0145 -0.042187,0.0355 -0.09375,0.0469 -0.051562,0.0113 -0.09375,0.0324 -0.09375,0.0469 0,0.0145 -0.042187,0.0355 -0.09375,0.0469 -0.051562,0.0113 -0.09375,0.0324 -0.09375,0.0469 0,0.0145 -0.042188,0.0355 -0.09375,0.0469 -0.051563,0.0113 -0.09375,0.0324 -0.09375,0.0469 0,0.0145 -0.042188,0.0355 -0.09375,0.0469 -0.051563,0.0113 -0.09375,0.0324 -0.09375,0.0469 0,0.0145 -0.042188,0.0355 -0.09375,0.0469 -0.051563,0.0113 -0.09375,0.0324 -0.09375,0.0469 0,0.0145 -0.042188,0.0355 -0.09375,0.0469 -0.051563,0.0113 -0.09375,0.0324 -0.09375,0.0469 0,0.0145 -0.042188,0.0355 -0.09375,0.0469 -0.051563,0.0113 -0.09375,0.0324 -0.09375,0.0469 0,0.0145 -0.042188,0.0355 -0.09375,0.0469 -0.051563,0.0113 -0.09375,0.0324 -0.09375,0.0469 0,0.0145 -0.042188,0.0355 -0.09375,0.0469 -0.051563,0.0113 -0.09375,0.0335 -0.09375,0.0494 0,0.0158 -0.015717,0.0288 -0.034927,0.0288 -0.043964,0 -0.2775736,0.23142 -0.2775736,0.27497 0,0.0178 -0.017578,0.0382 -0.039062,0.0453 -0.030344,0.0101 -0.039063,0.28037 -0.039063,1.21093 0,0.93055 0.00872,1.20082 0.039063,1.21094 0.021484,0.007 0.039062,0.0312 0.039062,0.0535 0,0.063 0.2392277,0.29415 0.3273152,0.31625 0.043414,0.0109 0.078935,0.0312 0.078935,0.0452 0,0.014 0.042187,0.0346 0.09375,0.046 0.051562,0.0113 0.09375,0.0324 0.09375,0.0469 0,0.0145 0.042187,0.0355 0.09375,0.0469 0.051562,0.0113 0.09375,0.0324 0.09375,0.0469 0,0.0145 0.042187,0.0355 0.09375,0.0469 0.051562,0.0113 0.09375,0.0324 0.09375,0.0469 0,0.0145 0.042187,0.0355 0.09375,0.0469 0.051562,0.0113 0.09375,0.0324 0.09375,0.0469 0,0.0145 0.042187,0.0355 0.09375,0.0469 0.051562,0.0113 0.09375,0.0324 0.09375,0.0469 0,0.0145 0.042187,0.0355 0.09375,0.0469 0.051562,0.0113 0.09375,0.0324 0.09375,0.0469 0,0.0145 0.042187,0.0355 0.09375,0.0469 0.051562,0.0113 0.09375,0.0326 0.09375,0.0473 0,0.0409 0.1444671,0.0568 0.447641,0.0494 0.1610168,-0.004 0.2846796,-0.0212 0.2971877,-0.0414 z"
       id="path831"
       inkscape:connector-curvature="0" />
    <path
       style="fill:#7ffe7f;stroke-width:0.0003125"
       d="M 7.9687502,8.03373 C 7.6587902,7.8727325 7.3432579,7.720138 7.0312502,7.56223 6.4477126,7.4600669 6.6228477,6.8012319 6.594543,6.3539458 6.5929139,5.2166922 6.5941204,4.0794352 6.5937502,2.94218 6.871403,2.8601859 7.1182834,2.7017814 7.3712894,2.56863 7.6985818,2.4566955 8.0413267,2.0972546 8.3749995,2.40658 c 0.3128737,0.1562924 0.6274698,0.3100992 0.9375,0.4706 0.3019351,0.2496982 0.07615,0.8052383 0.1531388,1.1719778 0.0054,1.1172915 0.00227,2.2346015 0.00311,3.3519022 C 9.1911027,7.4830191 8.9442401,7.6414766 8.6912102,7.7745725 8.4482731,7.8244065 8.2132237,8.1118902 7.9687502,8.03373 Z"
       id="path829"
       inkscape:connector-curvature="0" />
    <path
       style="fill:#fe7f7f;stroke-width:0.0003125"
       d="M 11.585938,11.6353 C 11.325791,11.463383 11.018233,11.362594 10.753708,11.19385 10.440453,11.062802 10.148776,10.894681 9.843748,10.7495 9.5313773,10.592944 9.2186186,10.437056 8.906248,10.2805 8.64262,10.115506 8.3065654,10.050519 8.0849254,9.8429497 8.0501756,9.2619018 8.0501752,8.6739982 8.0849271,8.0929503 8.3264286,7.9096016 8.6377396,7.8074757 8.9062481,7.6552 9.2299435,7.418622 9.6271208,7.3559785 9.9419746,7.6302375 10.22161,7.796898 10.524315,7.924559 10.812498,8.0768 c 0.312605,0.1561404 0.624898,0.31283 0.9375,0.469 0.312605,0.1561404 0.624898,0.31283 0.9375,0.469 0.20196,0.1272594 0.537878,0.1439113 0.437499,0.4590106 10e-7,0.4964098 0,0.9928194 10e-7,1.4892294 -0.277647,0.08196 -0.52451,0.240417 -0.77754,0.373513 -0.262713,0.06886 -0.476809,0.31906 -0.76152,0.298747 z"
       id="path827"
       inkscape:connector-curvature="0" />
    <path
       style="fill:#007ffe;stroke-width:0.0003125"
       d="M 4.3671877,11.6353 C 4.107044,11.463381 3.7994838,11.362595 3.5349614,11.19385 3.3571107,11.047289 2.9209125,11.079318 3,10.772822 3.0173751,10.245534 2.9547006,9.698943 3.046875,9.1875 3.332304,9.027165 3.6422863,8.8864256 3.9375,8.7341 4.250104,8.5779451 4.5623961,8.421255 4.875,8.2651 5.1876039,8.1089452 5.4998961,7.952255 5.8125,7.7961 6.0650857,7.639893 6.4079968,7.5577499 6.6029299,7.356475 6.8495129,7.4526141 7.1415221,7.6270578 7.40625,7.7492 7.6702207,7.929298 8.1845047,7.9590768 8.0598034,8.4102388 8.006276,8.8905434 8.1792123,9.4901446 7.96875,9.9032 c -0.3099477,0.160981 -0.6255084,0.313581 -0.9375,0.4715 -0.3120735,0.157684 -0.6271833,0.310807 -0.9375,0.4711 -0.3170411,0.102333 -0.6053545,0.27791 -0.8992231,0.4176 -0.2448355,0.14904 -0.5283178,0.362316 -0.8273392,0.3719 z"
       id="path825"
       inkscape:connector-curvature="0" />
    <path
       style="fill:#003f7f;stroke-width:0.0003125"
       d="M 4.1484377,12.38559 C 3.8383097,12.233602 3.5288093,12.075681 3.2187507,11.92169 2.9142539,11.74072 2.4938601,11.654435 2.332276,11.29419 2.1983478,10.811444 2.2963878,10.254758 2.2660595,9.74341 2.2635151,9.2778977 2.1770798,8.709797 2.68379,8.47585 2.996601,8.3431943 3.2887909,8.176354 3.5937511,8.0307 3.9061216,7.8741443 4.2188806,7.7182557 4.5312511,7.5617 4.8437535,7.4056359 5.1555164,7.2485478 5.4687511,7.0936 5.8058165,6.7854089 6.1388285,7.0995817 6.4458007,7.2566625 6.8092457,7.4674027 6.154081,7.5624045 5.9999998,7.7018 5.6873942,7.8579405 5.3751015,8.01463 5.0624998,8.1708 4.7498942,8.3269405 4.4376015,8.48363 4.1249998,8.6398 3.8123942,8.7959404 3.5001013,8.9526299 3.1874998,9.1088 2.8234149,9.302937 3.070759,9.8764556 3,10.234772 c 0,0.243002 0,0.486005 0,0.729008 0.2776466,0.08196 0.5245091,0.240416 0.7775389,0.373513 0.327206,0.112071 0.6700561,0.471204 1.0037104,0.162087 0.3011469,-0.124864 0.5379447,-0.335103 0.8474616,-0.44345 0.2990359,-0.171918 0.6358208,-0.270553 0.9337889,-0.44675 0.3126039,-0.156155 0.6248961,-0.312845 0.9375,-0.469 0.2856278,-0.1466103 0.7089886,-0.4746873 0.5625,0.14268 0.1464693,0.51405 -0.3903644,0.608264 -0.71875,0.79474 -0.3126056,0.156141 -0.6248983,0.31283 -0.9375,0.469 -0.2937871,0.142012 -0.6059935,0.255764 -0.8712889,0.446137 -0.3755247,0.129078 -0.6868164,0.441082 -1.1151654,0.403707 -0.090398,7.5e-4 -0.1819454,0.0028 -0.2713578,-0.01085 z"
       id="path823"
       inkscape:connector-curvature="0" />
    <path
       style="fill:#007f2a;stroke-width:0.0003125"
       d="M 9.4692288,5.21094 C 9.4607041,4.4742408 9.4840614,3.7349798 9.4375008,3 9.2798661,2.779807 8.9419713,2.7382657 8.7224619,2.56885 8.3951693,2.4569157 8.0524245,2.0974746 7.7187515,2.4068 c -0.3132461,0.1549374 -0.625009,0.3120265 -0.9375,0.4681 -0.2835056,0.009 -0.1648891,0.2867776 -0.1875,0.4812423 -0.01047,1.312606 0.026492,2.6273008 -0.026552,3.9382358 C 6.3566138,7.2897353 6.1168196,7.0331346 5.8910063,6.9479354 5.781714,6.8366063 5.8745071,6.5676283 5.843751,6.3950324 5.8498125,5.1800041 5.8255964,3.9637895 5.871095,2.74977 5.9949008,2.3232782 6.4490479,2.2068388 6.7775405,2.00624 7.0926966,1.8707418 7.3901667,1.7110366 7.6938915,1.55159 8.1569201,1.4045567 8.5796467,1.619644 8.9724623,1.81864 c 0.2573636,0.1647585 0.5621055,0.2653221 0.8124662,0.43115 0.4775055,0.2640918 0.4309605,0.8349189 0.4276555,1.307173 0.01024,1.1263386 0.0048,2.2527378 0.0062,3.379107 C 9.982561,7.0254623 9.7978189,7.2016034 9.585943,7.32987 9.3508353,7.3103077 9.5369861,6.5590658 9.4722439,6.2579958 9.4701895,5.909158 9.4693309,5.5586289 9.4692288,5.21094 Z"
       id="path821"
       inkscape:connector-curvature="0" />
    <path
       style="fill:#7f0000;stroke-width:0.0003125"
       d="m 11.367188,12.38559 c -0.31013,-0.151986 -0.61963,-0.309909 -0.92969,-0.4639 -0.312604,-0.156155 -0.6248965,-0.312845 -0.9375,-0.469 -0.3126039,-0.156155 -0.6248961,-0.312845 -0.9375,-0.469 C 8.0388741,10.885655 7.9927208,10.422068 8.0712724,9.9509237 8.229613,9.8261452 8.6159881,10.207426 8.8787082,10.25583 c 0.280199,0.166499 0.5828037,0.294478 0.8712893,0.44675 0.3126055,0.15614 0.6248985,0.31283 0.9374995,0.469 0.299459,0.152235 0.599486,0.293906 0.897801,0.455538 0.359608,-0.0073 0.64853,-0.286927 0.9772,-0.408638 0.159625,-0.169749 0.615094,-0.124762 0.5625,-0.414232 0,-0.528236 0,-1.0564719 0,-1.584708 -0.283189,-0.1035612 -0.538448,-0.2676805 -0.8125,-0.392 -0.312603,-0.1561549 -0.624896,-0.3128451 -0.9375,-0.469 -0.312603,-0.1561549 -0.624896,-0.3128451 -0.9375,-0.469 C 10.169392,7.7433899 9.8666357,7.63588 9.6333001,7.4454025 9.3452748,7.3242779 9.9522473,7.1589092 10.058748,7.00634 c 0.388631,-0.1600599 0.706044,0.2536386 1.069957,0.34275 0.2802,0.1664983 0.582804,0.2944785 0.87129,0.44675 0.312606,0.1561404 0.624899,0.31283 0.9375,0.469 0.341302,0.1708835 0.757029,0.3237318 0.885274,0.737915 0.09972,0.5402962 0.03315,1.126654 0.04756,1.684262 0.08378,0.48303 -0.217447,0.945681 -0.686535,1.069093 -0.2802,0.166498 -0.582804,0.294478 -0.87129,0.44675 -0.280955,0.186122 -0.606016,0.22637 -0.945315,0.18273 z"
       id="path819"
       inkscape:connector-curvature="0" />
  </g>
</svg>
