<?xml version="1.0" encoding="UTF-8" standalone="no"?>
<!-- Created with Inkscape (http://www.inkscape.org/) -->

<svg
   version="1.1"
   id="svg2"
   width="1600"
   height="1600"
   viewBox="0 0 1600 1600"
   sodipodi:docname="ortho.svg"
   inkscape:version="1.2.2 (732a01da63, 2022-12-09)"
   xmlns:inkscape="http://www.inkscape.org/namespaces/inkscape"
   xmlns:sodipodi="http://sodipodi.sourceforge.net/DTD/sodipodi-0.dtd"
   xmlns="http://www.w3.org/2000/svg"
   xmlns:svg="http://www.w3.org/2000/svg"
   xmlns:rdf="http://www.w3.org/1999/02/22-rdf-syntax-ns#"
   xmlns:cc="http://creativecommons.org/ns#"
   xmlns:dc="http://purl.org/dc/elements/1.1/">
  <metadata
     id="metadata8">
    <rdf:RDF>
      <cc:Work
         rdf:about="">
        <dc:format>image/svg+xml</dc:format>
        <dc:type
           rdf:resource="http://purl.org/dc/dcmitype/StillImage" />
      </cc:Work>
    </rdf:RDF>
  </metadata>
  <defs
     id="defs6" />
  <sodipodi:namedview
     pagecolor="#808080"
     bordercolor="#666666"
     borderopacity="1"
     objecttolerance="10"
     gridtolerance="10"
     guidetolerance="10"
     inkscape:pageopacity="0"
     inkscape:pageshadow="2"
     inkscape:window-width="1993"
     inkscape:window-height="1009"
     id="namedview4"
     showgrid="false"
     inkscape:zoom="0.5"
     inkscape:cx="143"
     inkscape:cy="116"
     inkscape:window-x="-8"
     inkscape:window-y="-8"
     inkscape:window-maximized="1"
     inkscape:current-layer="ORTHO"
     inkscape:showpageshadow="0"
     inkscape:pagecheckerboard="true"
     inkscape:deskcolor="#d1d1d1" />
  <g
     id="ORTHO"
     transform="matrix(100,0,0,100,0,4.9999997e-5)"
     style="stroke-width:0.0114286">
    <path
       style="fill:none;stroke-width:0.000357143"
       d="m 0.00248437,15.132813 c 0.0023537,-0.821577 0.00477897,-0.856504 0.04611047,-0.664063 0.11835284,0.551056 0.53263897,1.083476 1.04109776,1.337968 L 1.3509872,15.9375 H 2 2.6490128 l 0.2612946,-0.130782 c 0.4457114,-0.223086 0.8438051,-0.686706 0.9945732,-1.15828 L 3.9423469,14.53125 H 5.5 7.0576531 l 0.037466,0.117188 c 0.1507681,0.471574 0.5488618,0.935194 0.9945731,1.15828 L 8.3509872,15.9375 H 9 9.6490128 l 0.2612947,-0.130782 c 0.3651905,-0.182783 0.6870775,-0.506019 0.8666445,-0.870276 0.2954,-0.599225 0.2954,-1.211159 0,-1.810384 C 10.556083,12.67802 10.092333,12.278279 9.6171875,12.126369 L 9.5,12.088903 V 10.810077 9.53125 h 1.278827 1.278826 l 0.03747,0.1171875 c 0.15191,0.4751455 0.551651,0.9388955 0.999689,1.1597645 0.599225,0.2954 1.211159,0.2954 1.810384,0 0.510585,-0.251703 0.927131,-0.785001 1.046213,-1.339452 0.03837,-0.1786722 0.04392,0.2022263 0.04611,3.164063 L 16,16 H 8 0 Z M 0.00496874,10.53125 c 0,-2.8708581 0.00527376,-3.24107 0.0436261,-3.0625 C 0.07258919,7.5804687 0.15100232,7.7909303 0.22284625,7.9364422 0.4441335,8.3846353 0.90785278,8.7842803 1.3828125,8.9361306 L 1.5,8.9735969 v 1.5576531 1.557653 l -0.1171875,0.03747 C 0.90785278,12.27822 0.4441335,12.677865 0.22284625,13.126058 0.15100232,13.27157 0.07258919,13.482031 0.04859484,13.59375 0.0102425,13.77232 0.00496874,13.402108 0.00496874,10.53125 Z M 15.94596,8.5860844 C 15.925561,8.4787434 15.849843,8.2717975 15.777699,8.1262047 15.555353,7.6774912 15.091782,7.2781028 14.617188,7.1263694 L 14.5,7.0889031 V 5.53125 3.9735969 l 0.117188,-0.037466 c 0.474959,-0.1518503 0.938679,-0.5514953 1.159966,-0.9996884 0.07184,-0.1455119 0.150257,-0.3559734 0.174251,-0.4676922 0.03841,-0.1788342 0.04392,0.1864625 0.04611,3.0546875 0.0014,1.7917969 -0.0013,3.2578125 -0.006,3.2578125 -0.0047,0 -0.02516,-0.087824 -0.04556,-0.1951656 z M 0.00248437,3.3984375 0,0 h 8 8 L 15.9975,0.8984375 C 15.9952,1.7467935 15.9926,1.7855522 15.95139,1.59375 15.832308,1.0392993 15.415762,0.50600072 14.905177,0.25429792 c -0.599225,-0.29539997 -1.211159,-0.29539997 -1.810384,0 C 12.64677,0.47516697 12.247029,0.93891684 12.095119,1.4140625 L 12.057653,1.53125 H 10.5 8.9423469 L 8.9048806,1.4140625 C 8.8171516,1.1396625 8.6381931,0.85564791 8.40583,0.62204828 7.6235772,-0.16436712 6.3788612,-0.16389923 5.5918559,0.62310609 4.8048506,1.4101114 4.8043828,2.6548271 5.5907997,3.43708 c 0.2335994,0.2323632 0.517614,0.4113216 0.792014,0.4990507 l 0.1171875,0.037466 V 5.2524235 6.53125 H 5.2211747 3.9423481 L 3.9048819,6.4140625 C 3.7529722,5.9389169 3.3532312,5.4751669 2.9051935,5.2542978 c -0.5992253,-0.2954 -1.2111592,-0.2954 -1.8103845,0 C 0.58422312,5.5060006 0.16767678,6.0392994 0.04859484,6.59375 0.01023009,6.7723778 0.00466912,6.3870197 0.00248437,3.3984375 Z"
       id="path827"
       inkscape:connector-curvature="0" />
    <path
       style="fill:#fefefe;stroke-width:0.000357143"
       d="m 1,14.03125 v -1 h 1 1 v 1 1 H 2 1 Z m 7,0 v -1 h 1 1 v 1 1 H 9 8 Z M 3.9994575,13.929688 c -0.0011,-0.205132 -0.095439,-0.545873 -0.2225053,-0.80363 -0.1814197,-0.368014 -0.5037463,-0.69034 -0.87176,-0.87176 C 2.6474348,12.127231 2.306694,12.032888 2.1015625,12.031793 L 2,12.03125 v -1.5 -1.5 L 2.1015625,9.0307063 C 2.306694,9.0296094 2.6474348,8.9352675 2.9051922,8.8082009 3.2732059,8.6267813 3.5955325,8.3044547 3.7769522,7.9364409 3.9040188,7.6786834 3.9983616,7.3379428 3.9994575,7.1328113 L 4,7.03125 H 5.5 7 l 5.437e-4,0.1015625 c 0.0011,0.2051316 0.095439,0.5458722 0.2225054,0.8036297 0.1814197,0.3680137 0.5037462,0.6903403 0.87176,0.87176 0.2577575,0.1270665 0.5984981,0.2214094 0.8036297,0.2225053 L 9,9.03125 v 1.5 1.5 l -0.1015625,5.44e-4 c -0.2051316,0.0011 -0.5458722,0.09544 -0.8036297,0.222505 -0.3680137,0.18142 -0.6903403,0.503746 -0.87176,0.87176 -0.1270665,0.257758 -0.2214094,0.598498 -0.2225053,0.80363 L 7,14.03125 H 5.5 4 L 3.9994563,13.929688 Z M 13,9.03125 v -1 h 1 1 v 1 1 h -1 -1 z m -12,-2 v -1 h 1 1 v 1 1 H 2 1 Z m 7,0 v -1 h 1 1 v 1 1 H 9 8 Z m -2,-5 v -1 h 1 1 v 1 1 H 7 6 Z m 7,0 v -1 h 1 1 v 1 1 h -1 -1 z"
       id="path825"
       inkscape:connector-curvature="0" />
    <path
       style="fill:#cbcbcb;stroke-width:0.000357143"
       d="M 9.5,9.0024234 C 9.5,8.9865694 9.552734,8.9567374 9.6171875,8.9361304 9.8915875,8.8484016 10.175602,8.6694431 10.409202,8.43708 11.195617,7.6548272 11.195149,6.4101112 10.408145,5.6231059 9.62114,4.8361006 8.3764241,4.8356328 7.5941713,5.6220497 7.3618081,5.8556491 7.1828497,6.1396637 7.0951206,6.4140637 7.0745141,6.4785169 7.0446822,6.5312512 7.0288278,6.5312512 7.011705,6.53125 7,6.02369 7,5.28125 v -1.25 L 7.1015625,4.0307062 C 7.3066941,4.0296094 7.6474347,3.9352675 7.9051922,3.8082009 8.2732059,3.6267812 8.5955325,3.3044547 8.7769522,2.936441 8.9040187,2.6786835 8.9983616,2.3379428 8.9994575,2.1328112 L 9,2.03125 h 1.5 1.5 l 5.44e-4,0.1015625 c 0.0011,0.2051315 0.09544,0.5458723 0.222505,0.8036297 0.18142,0.3680137 0.503746,0.6903403 0.87176,0.87176 0.257758,0.1270666 0.598498,0.2214094 0.80363,0.2225053 L 14,4.03125 v 1.5 1.5 l -0.101562,5.437e-4 c -0.205132,0.0011 -0.545873,0.095439 -0.80363,0.2225054 -0.368014,0.1814197 -0.69034,0.5037462 -0.87176,0.87176 -0.127067,0.2577575 -0.22141,0.5984981 -0.222505,0.8036297 L 12,9.03125 h -1.25 c -0.74244,0 -1.25,-0.011705 -1.25,-0.028827 z"
       id="path823"
       inkscape:connector-curvature="0" />
    <path
       style="fill:#656565;stroke-width:0.000357143"
       d="M 13.5625,10.982655 C 13.450781,10.958661 13.24032,10.880248 13.094808,10.808404 12.646615,10.587117 12.24697,10.123397 12.095119,9.6484375 L 12.057653,9.53125 H 10.778827 9.5 v -0.25 -0.25 H 10.75 12 l 5.44e-4,-0.1015625 c 0.0011,-0.2051316 0.09544,-0.5458722 0.222505,-0.8036297 0.18142,-0.3680137 0.503746,-0.6903403 0.87176,-0.87176 0.257758,-0.1270665 0.598498,-0.2214094 0.80363,-0.2225053 L 14,7.03125 v -1.5 -1.5 L 13.898438,4.0307062 C 13.693306,4.0296094 13.352565,3.9352675 13.094808,3.8082009 12.726794,3.6267825 12.404468,3.3044559 12.223048,2.9364422 12.095981,2.6786848 12.001638,2.337944 12.000543,2.1328125 L 12,2.03125 H 10.5 9 L 8.9994563,2.1328125 C 8.9983594,2.337944 8.9040175,2.6786848 8.7769509,2.9364422 8.5955313,3.3044559 8.2732047,3.6267825 7.9051909,3.8082022 7.6474334,3.9352688 7.3066928,4.0296116 7.1015613,4.0307075 L 7,4.03125 v 1.25 1.25 H 6.75 6.5 V 5.2524234 3.9735969 L 6.3828125,3.9361306 C 6.1084125,3.8484016 5.8243978,3.6694431 5.5907984,3.43708 4.8043828,2.6548271 4.8048506,1.4101113 5.5918547,0.62310606 6.37886,-0.16389923 7.6235759,-0.16436712 8.4058288,0.62204825 8.6381919,0.85564787 8.8171503,1.1396624 8.9048794,1.4140625 L 8.9423469,1.53125 H 10.5 12.057653 l 0.03747,-0.1171875 c 0.08773,-0.2744 0.266688,-0.55841459 0.499051,-0.79201422 0.782253,-0.7864154 2.026969,-0.78594751 2.813974,0.001058 C 16.195149,1.4101114 16.195617,2.6548271 15.4092,3.43708 15.175601,3.6694432 14.891586,3.8484016 14.617186,3.9361307 L 14.5,3.9735969 V 5.53125 7.0889031 l 0.117188,0.037466 c 0.475145,0.1519097 0.938895,0.5516506 1.159764,0.9996884 0.74997,1.52133 -0.56051,3.2118225 -2.214452,2.8565975 z M 15,9.03125 v -1 h -1 -1 v 1 1 h 1 1 z m -7,-7 v -1 H 7 6 v 1 1 h 1 1 z m 7,0 v -1 h -1 -1 v 1 1 h 1 1 z"
       id="path821"
       inkscape:connector-curvature="0" />
    <path
       style="fill:#323232;stroke-width:0.000357143"
       d="M 1.0896926,15.806718 C 0.72450266,15.623935 0.40261531,15.300699 0.22304792,14.936442 c -0.29539997,-0.599225 -0.29539997,-1.211159 0,-1.810384 C 0.44391697,12.67802 0.90766684,12.278279 1.3828125,12.126369 L 1.5,12.088903 V 10.53125 8.9735969 L 1.3828125,8.9361306 C 1.1084125,8.8484016 0.82439791,8.6694431 0.59079828,8.43708 -0.19561712,7.6548272 -0.19514923,6.4101112 0.59185609,5.6231059 1.3788614,4.8361006 2.6235771,4.8356328 3.40583,5.6220497 c 0.2323632,0.2335994 0.4113216,0.517614 0.4990507,0.792014 l 0.037466,0.1171875 H 5.5 7.0576532 L 7.0951194,6.4140637 C 7.1828485,6.1396637 7.3618069,5.8556491 7.59417,5.6220497 8.3764228,4.8356341 9.6211388,4.8361019 10.408144,5.6231059 11.195149,6.4101112 11.195617,7.6548272 10.4092,8.43708 10.175601,8.6694431 9.8915863,8.8484016 9.6171863,8.9361306 L 9.5,8.9735969 v 1.5576531 1.557653 l 0.1171875,0.03747 c 0.4751455,0.15191 0.9388955,0.551651 1.1597645,0.999689 0.2954,0.599225 0.2954,1.211159 0,1.810384 -0.179567,0.364257 -0.501454,0.687493 -0.8666445,0.870276 L 9.6490128,15.9375 H 9 8.3509872 L 8.0896925,15.806718 C 7.6439813,15.583632 7.2458875,15.120012 7.0951194,14.648438 L 7.0576531,14.53125 H 5.5 3.9423469 l -0.037466,0.117188 c -0.1507681,0.471574 -0.5488618,0.935194 -0.9945732,1.15828 L 2.6490128,15.9375 H 2 1.3509872 Z M 3,14.03125 v -1 H 2 1 v 1 1 h 1 1 z m 7,0 v -1 H 9 8 v 1 1 h 1 1 z M 7.0005425,13.929688 c 0.0011,-0.205132 0.095439,-0.545873 0.2225053,-0.80363 0.1814197,-0.368014 0.5037463,-0.69034 0.87176,-0.87176 0.2577575,-0.127067 0.5984981,-0.22141 0.8036297,-0.222505 L 9,12.03125 v -1.5 -1.5 L 8.8984375,9.0307063 C 8.6933059,9.0296094 8.3525653,8.9352675 8.0948078,8.8082009 7.7267941,8.6267813 7.4044675,8.3044547 7.2230478,7.9364409 7.0959813,7.6786834 7.0016384,7.3379428 7.0005425,7.1328113 L 7,7.03125 H 5.5 4 L 3.9994563,7.1328125 C 3.9983594,7.3379441 3.9040175,7.6786847 3.7769509,7.9364422 3.5955313,8.3044559 3.2732047,8.6267825 2.905191,8.8082022 2.6474335,8.9352687 2.3066928,9.0296116 2.1015613,9.0307075 L 2,9.03125 v 1.5 1.5 l 0.1015625,5.44e-4 c 0.2051315,0.0011 0.5458723,0.09544 0.8036297,0.222505 0.3680137,0.18142 0.6903403,0.503746 0.87176,0.87176 0.1270666,0.257758 0.2214094,0.598498 0.2225053,0.80363 L 4,14.03125 H 5.5 7 l 5.437e-4,-0.101562 z M 3,7.03125 v -1 H 2 1 v 1 1 h 1 1 z m 7,0 v -1 H 9 8 v 1 1 h 1 1 z"
       id="path819"
       inkscape:connector-curvature="0" />
  </g>
</svg>
