<?xml version="1.0" encoding="UTF-8" standalone="no"?>
<!-- Created with Inkscape (http://www.inkscape.org/) -->

<svg
   version="1.1"
   id="svg2"
   width="1600"
   height="1600"
   viewBox="0 0 1600 1600"
   sodipodi:docname="outliner_ob_camera.svg"
   inkscape:version="1.2.2 (732a01da63, 2022-12-09)"
   xmlns:inkscape="http://www.inkscape.org/namespaces/inkscape"
   xmlns:sodipodi="http://sodipodi.sourceforge.net/DTD/sodipodi-0.dtd"
   xmlns="http://www.w3.org/2000/svg"
   xmlns:svg="http://www.w3.org/2000/svg"
   xmlns:rdf="http://www.w3.org/1999/02/22-rdf-syntax-ns#"
   xmlns:cc="http://creativecommons.org/ns#"
   xmlns:dc="http://purl.org/dc/elements/1.1/">
  <metadata
     id="metadata8">
    <rdf:RDF>
      <cc:Work
         rdf:about="">
        <dc:format>image/svg+xml</dc:format>
        <dc:type
           rdf:resource="http://purl.org/dc/dcmitype/StillImage" />
      </cc:Work>
    </rdf:RDF>
  </metadata>
  <defs
     id="defs6" />
  <sodipodi:namedview
     pagecolor="#808080"
     bordercolor="#666666"
     borderopacity="1"
     objecttolerance="10"
     gridtolerance="10"
     guidetolerance="10"
     inkscape:pageopacity="0"
     inkscape:pageshadow="2"
     inkscape:window-width="2560"
     inkscape:window-height="1009"
     id="namedview4"
     showgrid="false"
     inkscape:zoom="0.5"
     inkscape:cx="638"
     inkscape:cy="482"
     inkscape:window-x="-8"
     inkscape:window-y="-8"
     inkscape:window-maximized="1"
     inkscape:current-layer="OUTLINER_OB_CAMERA"
     inkscape:showpageshadow="0"
     inkscape:pagecheckerboard="true"
     inkscape:deskcolor="#d1d1d1" />
  <g
     id="OUTLINER_OB_CAMERA"
     transform="matrix(99.96696,0,0,99.96696,0,0.00758483)"
     style="stroke-width:0.0100033">
    <path
       style="fill:none;stroke-width:0.000312706"
       d="m 0.00318171,11.011398 c 0.00274305,-4.3053171 0.0090075,-4.9593351 0.0454374,-4.7437324 0.23543364,1.3933643 1.15888579,2.634469 2.43656499,3.2747037 0.4229662,0.211945 1.0724045,0.4121461 1.4132051,0.4356459 0.048006,0.00331 -0.1940581,0.014113 -0.5379201,0.024007 -0.5811655,0.01672 -0.636213,0.0234 -0.7815044,0.09483 -0.1989168,0.0978 -0.3864063,0.285067 -0.4852786,0.484717 -0.076007,0.153478 -0.077405,0.170133 -0.077405,0.922175 0,0.752043 0.0014,0.768698 0.077405,0.922176 0.098764,0.199431 0.2861502,0.386728 0.4852786,0.485046 0.1478712,0.07301 0.190318,0.07773 0.7870415,0.0875 l 0.6307407,0.01032 0.010325,0.63074 c 0.00977,0.596724 0.014487,0.639171 0.087498,0.787042 0.098318,0.199128 0.2856148,0.386514 0.4850466,0.485279 l 0.1563009,0.0774 h 2.7665258 2.7665258 l 0.1563,-0.0774 c 0.299686,-0.148413 0.524473,-0.452479 0.567711,-0.767936 l 0.0191,-0.139355 h 0.822351 0.82235 l 1.021817,0.507978 1.021817,0.507977 0.300721,-4.84e-4 c 0.25569,-4.13e-4 0.324125,-0.012 0.457021,-0.0774 0.194879,-0.0959 0.386896,-0.285209 0.475886,-0.469163 l 0.06805,-0.140671 0.0016,0.83621 0.0016,0.836209 H 8.0026055 0 Z M 11.010623,9.4965775 l 0.0086,-0.5066796 0.234451,-0.036843 c 0.956312,-0.1502808 1.861796,-0.6353577 2.549293,-1.3656824 0.797056,-0.8467085 1.210916,-1.9013928 1.210916,-3.0859069 0,-1.2391369 -0.43913,-2.3071526 -1.305221,-3.1744537 C 13.000809,0.61818024 12.215492,0.2084008 11.253664,0.04599673 11.054137,0.01230667 11.390573,0.00593234 13.512212,0.00320487 L 16.005211,0 l -0.0016,4.8531426 -0.0016,4.8531426 -0.06805,-0.1406708 C 15.845014,9.381572 15.652954,9.1922803 15.458161,9.0965867 15.327317,9.0323089 15.255447,9.019702 15.016892,9.0191821 L 14.731923,9.01856 13.741196,9.5109078 12.750468,10.003256 h -0.874216 -0.874215 l 0.0086,-0.5066797 z M 0.00318171,2.4929992 0,0 4.9938134,0.00320487 C 9.1402868,0.00586595 9.9478457,0.01314443 9.7531755,0.04610078 8.8153623,0.20486621 7.9893146,0.63641152 7.2940864,1.3307824 L 6.9450593,1.679379 6.5125819,1.4654096 C 5.824839,1.1251469 5.2858829,1.0005771 4.5014656,1.0005771 c -0.2506554,0 -0.5790351,0.020559 -0.7346142,0.045992 C 2.6562948,1.2281188 1.6288293,1.833924 0.955786,2.7040054 0.6987711,3.0362632 0.59652762,3.203136 0.40991934,3.5949204 0.23896424,3.953841 0.11417834,4.3479184 0.04861911,4.7359169 0.01126419,4.9569942 0.00599441,4.696863 0.00318171,2.4929992 Z"
       id="path827"
       inkscape:connector-curvature="0" />
    <path
       style="fill:#fefefe;stroke-width:0.000312706"
       d="m 15.014891,4.5014656 c 0,-0.1117551 0.0057,-0.1574732 0.01261,-0.1015956 0.0069,0.055878 0.0069,0.1473136 0,0.2031912 -0.0069,0.055878 -0.01261,0.01016 -0.01261,-0.1015956 z"
       id="path825"
       inkscape:connector-curvature="0" />
    <path
       style="fill:#fecb98;stroke-width:0.000312706"
       d="m 13.996745,13.533867 -0.992511,-0.498566 v -1.008268 -1.008268 l 1.015956,-0.507691 1.015955,-0.507691 v 2.016218 c 0,1.10892 -0.01055,2.015457 -0.02344,2.014525 -0.01289,-9.31e-4 -0.470075,-0.226048 -1.015955,-0.500259 z m -3.993488,-1.529959 v -1.000325 h 0.500163 0.500163 v 1.000325 1.000326 H 10.50342 10.003257 Z M 3.0009771,11.503745 v -0.500162 h 1.0003256 1.0003257 v 0.500162 0.500163 H 4.0013027 3.0009771 Z M 3.9387824,8.9567462 C 3.0493929,8.8058595 2.2462597,8.3215865 1.713833,7.6151478 0.90204531,6.5380446 0.77759448,5.127847 1.3873231,3.915346 2.0641327,2.5694488 3.5614758,1.8053437 5.0492267,2.0466499 5.7953797,2.1676724 6.5547444,2.5661376 7.0418127,3.0922295 L 7.2143854,3.2786287 7.3600019,2.9774316 C 7.6111418,2.4579667 7.9421696,2.051293 8.3862479,1.7166699 10.131901,0.40128121 12.64271,0.97643882 13.617562,2.9150205 c 0.515386,1.024891 0.514862,2.1480861 -0.0015,3.1761846 C 12.852825,7.6109436 11.05117,8.3605405 9.4320606,7.8320103 8.8952305,7.656771 8.3190723,7.2955481 7.9630739,6.9110273 L 7.7905011,6.7246282 7.6448847,7.0258253 C 7.3937448,7.54529 7.062717,7.951964 6.6186387,8.286587 5.857192,8.8603541 4.8521198,9.1116957 3.9387836,8.9567462 Z m 0.853667,-0.987942 C 5.6583423,7.8386118 6.3427951,7.354959 6.7132323,6.6115276 7.0815181,5.8724135 7.0815181,5.1311691 6.7132323,4.392055 6.4713729,3.9066663 6.0982242,3.5336242 5.6112019,3.2903388 4.8732982,2.9217289 4.1310738,2.9216239 3.3917293,3.2900262 2.9063407,3.5318855 2.5332986,3.9050342 2.2900131,4.3920565 1.9214033,5.1299602 1.9212982,5.8721847 2.2896989,6.6115292 c 0.3651852,0.7328911 1.0511689,1.2229184 1.8991649,1.3566542 0.2455294,0.038722 0.3494766,0.038829 0.6035856,6.22e-4 z M 4.1298549,6.9528715 C 3.3372281,6.7397074 2.8468736,5.9190087 3.0488424,5.1435981 3.2579751,4.3406832 4.0774228,3.8454214 4.8596588,4.049168 5.6602182,4.2576875 6.1577986,5.0778892 5.9553243,5.8552407 5.7442805,6.665493 4.9151203,7.1640559 4.1298549,6.9528715 Z M 5.0016284,5.5017913 V 5.0016284 H 4.5014656 4.0013027 v 0.5001629 0.5001628 h 0.5001629 0.5001628 z m 5.7927756,1.4666872 c 0.865892,-0.1301924 1.550345,-0.6138452 1.920782,-1.3572766 0.368286,-0.7391141 0.368286,-1.4803585 0,-2.2194726 C 12.473327,2.9063407 12.100178,2.5332986 11.613156,2.2900131 10.875252,1.9214033 10.133028,1.9212982 9.3936834,2.2896989 8.9082948,2.5315584 8.5352527,2.9047068 8.2919672,3.3917293 7.9233575,4.129633 7.9232522,4.8718574 8.2916546,5.6112019 8.6568398,6.344093 9.3428234,6.8341204 10.19082,6.9678561 c 0.245529,0.038722 0.349476,0.038829 0.603585,6.221e-4 z M 10.131809,5.9525459 C 9.3391822,5.7393818 8.8488276,4.918683 9.0507965,4.1432724 9.2599292,3.3403576 10.079377,2.8450958 10.861613,3.0488424 c 0.800559,0.2085194 1.29814,1.0287211 1.095665,1.8060726 -0.211043,0.8102523 -1.040204,1.3088152 -1.825469,1.0976309 z M 11.003583,4.5014656 V 4.0013027 H 10.50342 10.003257 v 0.5001629 0.5001628 h 0.500163 0.500163 z"
       id="path823"
       inkscape:connector-curvature="0" />
    <path
       style="fill:#cb6500;stroke-width:0.000312706"
       d="M 5.0016284,11.503745 V 9.0029312 H 7.5024427 10.003257 V 11.503745 14.00456 H 7.5024427 5.0016284 Z m 6.0019546,0.500163 v -1.000325 h 1.000325 1.000326 v 1.000325 1.000326 H 12.003908 11.003583 Z M 4.1888638,7.9681818 C 3.3408677,7.8344461 2.654884,7.3444187 2.2896989,6.6115276 1.9212982,5.8721831 1.9214033,5.1299587 2.2900131,4.392055 2.5332986,3.9050327 2.9063407,3.531884 3.3917293,3.2900246 4.1310738,2.9216239 4.8732982,2.9217289 5.6112019,3.2903372 6.2210864,3.5949967 6.7045276,4.1725438 6.8866534,4.8140658 7.0648195,5.4416398 7.0092687,6.0174098 6.7132323,6.611526 6.3427951,7.3549575 5.6583423,7.8386102 4.7924494,7.9688026 4.5383404,8.0070094 4.4343931,8.0069022 4.1888638,7.9681805 Z M 4.8596588,6.9544145 C 5.3988093,6.8139835 5.8141261,6.3973369 5.9553243,5.8552407 6.1577986,5.0778892 5.6602182,4.2576875 4.8596588,4.049168 4.0774228,3.8454214 3.2579751,4.3406832 3.0488424,5.1435981 2.7702244,6.2132851 3.7899718,7.2330324 4.8596588,6.9544145 Z m 5.3311592,0.013442 C 9.3428218,6.8341204 8.6568382,6.344093 8.291653,5.6112019 7.9232522,4.8718574 7.9233575,4.129633 8.2919656,3.3917293 8.5352511,2.9047068 8.9082932,2.5315584 9.3936818,2.2896989 10.133026,1.9212982 10.875251,1.9214033 11.613154,2.2900131 c 0.487023,0.2432855 0.860171,0.6163276 1.102031,1.1017162 0.368286,0.739114 0.368286,1.4803585 0,2.2194726 -0.370437,0.7434314 -1.05489,1.2270842 -1.920783,1.3572766 -0.254109,0.038207 -0.358056,0.0381 -0.603586,-6.221e-4 z M 10.861613,5.9540889 C 11.400763,5.8136578 11.81608,5.3970112 11.957278,4.854915 12.159753,4.0775635 11.662172,3.2573618 10.861613,3.0488424 10.079377,2.8450958 9.2599292,3.3403576 9.0507965,4.1432724 8.7721786,5.2129594 9.7919259,6.2327068 10.861613,5.9540889 Z"
       id="path821"
       inkscape:connector-curvature="0" />
    <path
       style="fill:#320000;stroke-width:0.000312706"
       d="m 14.645393,14.978927 c -0.08596,-0.03227 -0.567669,-0.264702 -1.070452,-0.516519 L 12.660789,14.00456 h -0.824354 -0.824354 l -0.0191,0.139355 c -0.04324,0.315457 -0.268025,0.619523 -0.567711,0.767936 l -0.156301,0.0774 H 7.5024427 4.7359169 L 4.579616,14.911851 C 4.3801842,14.813086 4.1928879,14.6257 4.0945694,14.426572 4.021559,14.278701 4.01684,14.236254 4.0070718,13.63953 L 3.9967468,13.00879 3.3660061,12.99847 C 2.7692826,12.98867 2.7268358,12.98398 2.5789646,12.91097 2.3798362,12.81265 2.1924503,12.625355 2.093686,12.425924 2.017679,12.272446 2.016281,12.255791 2.016281,11.503748 c 0,-0.752042 0.0014,-0.768697 0.077405,-0.922175 0.098872,-0.19965 0.2863618,-0.386922 0.4852786,-0.484717 0.1452914,-0.07143 0.2003389,-0.07811 0.7815044,-0.09483 C 3.704331,9.992136 3.9463951,9.98133 3.8983891,9.978019 3.8503833,9.9747051 3.7063377,9.9503562 3.5782875,9.9239067 2.7326855,9.7492429 1.9374745,9.3167184 1.3120065,8.6912503 0.68097806,8.0602221 0.26293985,7.2878043 0.07071239,6.3976861 -0.0076725,6.0347214 -0.0076725,4.9688612 0.07071239,4.6058965 0.26293985,3.7157782 0.68097806,2.9433606 1.3120065,2.3123322 1.9430349,1.6813037 2.7154526,1.2632655 3.6055708,1.0710381 3.9634435,0.9937529 5.0679228,0.9940968 5.4080107,1.0715992 5.8233438,1.1662492 6.1650416,1.2895404 6.5591843,1.4869644 L 6.9444835,1.6799588 7.2937985,1.3310722 C 7.9459314,0.6797389 8.7069198,0.26520446 9.6075249,0.07071229 c 0.3629647,-0.07838488 1.4288251,-0.07838488 1.7917901,0 0.890118,0.19222747 1.662536,0.61026567 2.293564,1.24129411 0.631028,0.6310284 1.049066,1.4034461 1.241294,2.2935643 0.07839,0.3629647 0.07839,1.4288249 0,1.7917896 -0.192228,0.8901183 -0.610266,1.662536 -1.241294,2.2935643 -0.676364,0.6763637 -1.53907,1.1229206 -2.439215,1.2625939 l -0.234451,0.036379 -0.0086,0.5066796 -0.0086,0.5066799 h 0.874215 0.874216 L 13.741172,9.5109087 14.7319,9.0185609 15.016868,9.019183 c 0.238555,5.189e-4 0.310425,0.013127 0.441269,0.077405 0.198778,0.097651 0.388392,0.2868828 0.477463,0.476502 l 0.06959,0.1481452 v 2.2983048 2.298304 l -0.06959,0.148145 c -0.08972,0.191003 -0.280059,0.380095 -0.477463,0.474339 -0.215673,0.102965 -0.593489,0.120909 -0.812765,0.0386 z m 0.390752,-2.959483 v -2.016377 l -1.000136,0.500258 -1.000136,0.500258 H 11.519565 10.003257 V 10.003257 9.0029312 H 7.5024427 5.0016284 v 1.0003258 1.000326 H 4.0013027 3.0009771 v 0.500162 0.500163 h 1.0003256 1.0003257 v 1.000326 1.000326 h 2.5008143 2.5008143 v -0.500163 -0.500163 l 1.477043,0.0013 1.477044,0.0013 1.015955,0.513021 c 0.558776,0.282162 1.026507,0.513693 1.039401,0.514513 0.01289,8.22e-4 0.02344,-0.905877 0.02344,-2.014884 z M 5.0492267,8.9569328 C 6.1897096,8.7719516 7.1439131,8.0620467 7.6448834,7.0258253 L 7.7904999,6.7246282 7.9630726,6.9110273 C 8.319071,7.2955481 8.8952292,7.656771 9.4320593,7.8320103 10.830941,8.2886511 12.403313,7.7927 13.291052,6.6148221 14.454372,5.0712967 14.1516,2.870594 12.616776,1.713833 10.85071,0.38278988 8.3203468,0.99102672 7.3600019,2.9774316 L 7.2143854,3.2786287 7.0418127,3.0922295 C 6.6858143,2.7077089 6.1096561,2.3464858 5.572826,2.1712467 3.9516903,1.6420547 2.1537372,2.391262 1.3873231,3.915346 0.87193764,4.9402372 0.87246099,6.0634323 1.388803,7.0915307 2.0621903,8.4323248 3.5642408,9.1977903 5.0492267,8.9569328 Z M 4.0013027,5.5017913 V 5.0016284 H 4.5014656 5.0016284 V 5.5017913 6.0019541 H 4.5014656 4.0013027 Z M 10.003257,4.5014656 V 4.0013027 h 0.500163 0.500163 V 4.5014656 5.0016284 H 10.50342 10.003257 Z"
       id="path819"
       inkscape:connector-curvature="0" />
  </g>
</svg>
