<?xml version="1.0" encoding="UTF-8" standalone="no"?>
<!-- Created with Inkscape (http://www.inkscape.org/) -->

<svg
   version="1.1"
   id="svg2"
   width="1600"
   height="1600"
   viewBox="0 0 1600 1600"
   sodipodi:docname="outliner_ob_armature.svg"
   inkscape:version="1.2.2 (732a01da63, 2022-12-09)"
   xmlns:inkscape="http://www.inkscape.org/namespaces/inkscape"
   xmlns:sodipodi="http://sodipodi.sourceforge.net/DTD/sodipodi-0.dtd"
   xmlns="http://www.w3.org/2000/svg"
   xmlns:svg="http://www.w3.org/2000/svg"
   xmlns:rdf="http://www.w3.org/1999/02/22-rdf-syntax-ns#"
   xmlns:cc="http://creativecommons.org/ns#"
   xmlns:dc="http://purl.org/dc/elements/1.1/">
  <metadata
     id="metadata8">
    <rdf:RDF>
      <cc:Work
         rdf:about="">
        <dc:format>image/svg+xml</dc:format>
        <dc:type
           rdf:resource="http://purl.org/dc/dcmitype/StillImage" />
      </cc:Work>
    </rdf:RDF>
  </metadata>
  <defs
     id="defs6" />
  <sodipodi:namedview
     pagecolor="#808080"
     bordercolor="#666666"
     borderopacity="1"
     objecttolerance="10"
     gridtolerance="10"
     guidetolerance="10"
     inkscape:pageopacity="0"
     inkscape:pageshadow="2"
     inkscape:window-width="1993"
     inkscape:window-height="1009"
     id="namedview4"
     showgrid="false"
     inkscape:zoom="0.5"
     inkscape:cx="237"
     inkscape:cy="152"
     inkscape:window-x="-8"
     inkscape:window-y="-8"
     inkscape:window-maximized="1"
     inkscape:current-layer="OUTLINER_OB_ARMATURE"
     inkscape:showpageshadow="0"
     inkscape:pagecheckerboard="true"
     inkscape:deskcolor="#d1d1d1" />
  <g
     id="OUTLINER_OB_ARMATURE"
     transform="matrix(100,0,0,100,0,4.9999997e-5)"
     style="stroke-width:0.0114286">
    <path
       style="fill:none;stroke-width:0.000357143"
       d="M 0,8 V 0 h 8 8 v 8 8 H 8 0 Z m 4.5638234,7.412935 C 4.8464059,15.300652 5.0746609,15.089481 5.3725841,14.664707 5.6445128,14.276997 5.8644553,13.95125 6.0625,13.642905 c 0.1012478,-0.157637 0.3382987,-0.516304 0.7086694,-1.072244 0.082888,-0.124418 0.1999244,-0.302506 0.2600806,-0.39575 0.2929503,-0.454083 0.7361012,-1.110694 0.75,-1.111267 0.022214,-9.15e-4 0.4254819,0.748548 0.4533859,0.842606 0.012747,0.04297 0.1065541,0.229682 0.2084594,0.41492 0.101905,0.185237 0.2041506,0.389143 0.2272119,0.453125 0.023062,0.06398 0.1275991,0.276979 0.2323059,0.473328 0.1047066,0.196349 0.1995547,0.385919 0.2107738,0.421267 0.011219,0.03535 0.1092197,0.231239 0.2177793,0.435314 0.1085601,0.204075 0.2131038,0.418683 0.2323191,0.476907 0.1018616,0.308643 0.5218647,0.701298 0.8792337,0.821983 0.271948,0.09184 0.748863,0.09184 1.020812,0 0.397488,-0.134233 0.77408,-0.510825 0.908313,-0.908313 0.04957,-0.14679 0.06566,-0.271875 0.06566,-0.510612 0,-0.389107 -0.0855,-0.665707 -0.371102,-1.200542 -0.10485,-0.19635 -0.199816,-0.38592 -0.211035,-0.421267 -0.01122,-0.03535 -0.109528,-0.231819 -0.218465,-0.436603 -0.108937,-0.204784 -0.206939,-0.401933 -0.217782,-0.438108 -0.01084,-0.03618 -0.106034,-0.227493 -0.211537,-0.425149 -0.105501,-0.197656 -0.214027,-0.41631 -0.241167,-0.485897 -0.02714,-0.06959 -0.148621,-0.30865 -0.269956,-0.53125 C 10.57512,9.8227525 10.465404,9.6054688 10.452641,9.5625 10.439879,9.5195313 10.339845,9.3209366 10.230343,9.1211784 10.120842,8.9214203 10.03125,8.74391 10.03125,8.7267112 10.03125,8.7095125 9.9538691,8.5472453 9.8592919,8.3661175 9.764715,8.1849897 9.6943438,8.0179688 9.7029109,7.9949597 9.7169475,7.9572609 9.6779763,7.8829003 9.4458266,7.5044194 9.3822641,7.4007916 9.3759822,7.35084 9.3755141,6.9453125 L 9.375,6.5 h 2.415807 c 2.371985,0 2.419334,-0.00119 2.610224,-0.065656 0.397488,-0.1342338 0.77408,-0.5108253 0.908313,-0.9083138 0.09184,-0.2719481 0.09184,-0.7488631 0,-1.0208112 C 15.175111,4.1077309 14.798519,3.7311394 14.401031,3.5969056 14.210049,3.53241 14.163335,3.53125 11.756935,3.53125 H 9.3072559 L 9.4837909,3.3361728 C 9.8105294,2.9751149 9.96875,2.544279 9.96875,2.015625 9.96875,1.4288967 9.7986906,1.0129763 9.3928572,0.60714284 8.9870238,0.20130937 8.5711031,0.03125 7.984375,0.03125 7.3976469,0.03125 6.9817263,0.20130937 6.5758928,0.60714284 6.1700594,1.0129763 6,1.4288967 6,2.015625 6,2.544279 6.1582206,2.9751149 6.4849591,3.3361728 L 6.6614941,3.53125 H 4.1336897 c -2.4857761,0 -2.5310364,0.00109 -2.7222205,0.065656 -0.3974884,0.1342338 -0.77407979,0.5108253 -0.90831373,0.9083138 -0.0918384,0.2719481 -0.0918384,0.7488631 0,1.0208112 C 0.63738941,5.9235191 1.0139808,6.3001106 1.4114692,6.4343444 1.6023158,6.4987944 1.6499582,6.5 4.0060678,6.5 H 6.40625 L 6.4060937,7.0859375 6.4059375,7.671875 6.195145,7.9766703 C 6.0792091,8.1443078 5.9552781,8.3271203 5.9197431,8.3829203 5.8842081,8.4387203 5.5806966,8.8921875 5.2452734,9.390625 4.9098503,9.8890625 4.5838666,10.374219 4.520865,10.46875 4.457863,10.56328 4.3207066,10.767188 4.2160719,10.921875 4.1114372,11.076563 3.9848566,11.273438 3.9347816,11.359375 3.8847066,11.445315 3.7521631,11.649219 3.6402406,11.8125 2.5364795,13.422786 2.5,13.49312 2.5,14.010979 c 0,0.243248 0.015846,0.367559 0.065656,0.515052 0.1313046,0.388814 0.4848176,0.750146 0.8801139,0.899579 0.1719506,0.065 0.2389365,0.07263 0.5698556,0.0649 0.2987341,-0.007 0.4102244,-0.02275 0.5481984,-0.07758 z"
       id="path823"
       inkscape:connector-curvature="0" />
    <path
       style="fill:#fe9832;stroke-width:0.000357143"
       d="m 3.6456944,14.951609 c -0.2617788,-0.09601 -0.5055969,-0.343638 -0.5989909,-0.608345 -0.058941,-0.167056 -0.060153,-0.484787 -0.00247,-0.64827 0.041214,-0.116813 0.1737124,-0.327434 0.6089827,-0.968046 0.096201,-0.141586 0.2022515,-0.303305 0.2356675,-0.359375 0.033416,-0.05607 0.1682834,-0.256635 0.2997062,-0.445698 0.1314228,-0.189062 0.2477278,-0.368218 0.2584556,-0.398124 0.010728,-0.02991 0.1044213,-0.177562 0.2082075,-0.328125 C 4.867243,10.888091 4.9900705,10.706345 5.7757274,9.5376763 6.0795446,9.0857419 6.3553574,8.6708981 6.3886415,8.6158013 6.4219256,8.5607044 6.5298862,8.4008906 6.6285543,8.2606594 6.9254984,7.8386297 6.90625,7.9323675 6.90625,6.9083225 V 6.0010409 L 4.2734375,5.9927081 1.640625,5.984375 1.4939103,5.9121087 C 1.3066523,5.8198725 1.1176275,5.6308478 1.0253913,5.4435897 0.92135713,5.23238 0.92135713,4.79887 1.0253913,4.5876603 1.1176275,4.4004022 1.3066523,4.2113775 1.4939103,4.1191412 L 1.640625,4.046875 h 6.3125 6.3125 l 0.146715,0.072266 c 0.187258,0.092236 0.376282,0.281261 0.468519,0.4685191 0.104034,0.2112097 0.104034,0.6447197 0,0.8559294 -0.09224,0.1872581 -0.281261,0.3762828 -0.468519,0.4685191 l -0.146715,0.072266 -2.648437,0.00833 -2.648438,0.00833 v 0.8701216 0.8701215 l 0.078641,0.1158844 c 0.043253,0.063737 0.071883,0.1268194 0.063623,0.1401844 -0.014142,0.022882 0.2276128,0.5235937 0.3545231,0.7342741 0.031973,0.053077 0.076102,0.1526053 0.098065,0.221174 0.021963,0.068568 0.079918,0.189655 0.12879,0.2690813 0.048871,0.079426 0.088857,0.1531912 0.088857,0.1639228 0,0.010731 0.040513,0.08652 0.09003,0.1684187 0.049516,0.081899 0.1078984,0.2051569 0.1297379,0.2739069 0.02184,0.06875 0.05793,0.153125 0.0802,0.1874997 0.0754,0.116383 0.262895,0.467707 0.358559,0.671875 0.05235,0.111719 0.146128,0.301562 0.208405,0.421875 0.113927,0.220095 0.142546,0.277188 0.45428,0.90625 0.09369,0.189062 0.192365,0.385937 0.219277,0.4375 0.02691,0.05156 0.109423,0.220312 0.183357,0.375 0.07393,0.154687 0.167172,0.335063 0.207194,0.400835 0.04002,0.06577 0.115484,0.226261 0.167692,0.356643 0.169306,0.422824 0.0976,0.835712 -0.196161,1.12947 -0.205696,0.205697 -0.370896,0.269302 -0.699448,0.269302 -0.232033,0 -0.307335,-0.01285 -0.430309,-0.0734 -0.194183,-0.09562 -0.405502,-0.309201 -0.491037,-0.49629 C 10.003004,14.283393 9.7858672,13.847187 9.6466022,13.578125 9.6199138,13.526563 9.537475,13.357813 9.463405,13.203125 9.389335,13.048438 9.2915978,12.858594 9.2462113,12.78125 9.2008247,12.703906 9.1457519,12.584523 9.1238272,12.515955 9.1019025,12.447386 9.0439784,12.3263 8.9951069,12.246873 8.9462356,12.167448 8.90625,12.093682 8.90625,12.082951 c 0,-0.01073 -0.040513,-0.08652 -0.09003,-0.168419 -0.049516,-0.0819 -0.1078984,-0.205157 -0.1297381,-0.273907 -0.02184,-0.06875 -0.057931,-0.153125 -0.080202,-0.1875 C 8.5321206,11.338664 8.3440994,10.986927 8.2471284,10.78125 8.0660972,10.39728 7.9997156,10.265364 7.9279616,10.146994 7.8600626,10.034984 7.8533406,10.031496 7.807515,10.084494 7.761983,10.137154 6.8332956,11.521098 6.59375,11.893266 6.533594,11.986726 6.4165575,12.164993 6.3336694,12.289411 5.9632988,12.845351 5.7262478,13.204018 5.625,13.361655 c -0.50457,0.785588 -0.9121219,1.347487 -1.0519128,1.45029 -0.070786,0.05206 -0.1882688,0.115664 -0.2610731,0.141352 -0.1639722,0.05785 -0.5063472,0.05699 -0.6663197,-0.0017 z M 7.5970197,3.4525266 C 7.0683331,3.3041456 6.6394662,2.8489549 6.5293831,2.3193586 6.4803887,2.0836533 6.5085444,1.7160693 6.5926809,1.4929761 6.7357631,1.1135861 7.0751412,0.77374122 7.465025,0.61943287 c 0.2528709,-0.10008153 0.7858291,-0.10008153 1.0387,0 0.3877709,0.15347213 0.7232244,0.48813483 0.8756078,0.87354323 0.1019913,0.257956 0.1019913,0.7873418 0,1.0452978 -0.1530447,0.387081 -0.4928906,0.7251217 -0.8756078,0.870957 -0.2312009,0.0881 -0.6720606,0.109151 -0.9067053,0.043296 z"
       id="path821"
       inkscape:connector-curvature="0" />
    <path
       style="fill:#320000;stroke-width:0.000357143"
       d="M 3.4457694,15.42561 C 3.0504731,15.276177 2.6969601,14.914845 2.5656555,14.526031 2.5158464,14.378538 2.5,14.254227 2.5,14.010979 c 0,-0.492763 0.01491,-0.525043 0.7484197,-1.620354 0.1035916,-0.154687 0.2799209,-0.414844 0.3918434,-0.578125 0.1119225,-0.163281 0.244466,-0.367187 0.294541,-0.453125 0.050075,-0.08594 0.1766556,-0.282812 0.2812903,-0.4375 C 4.3207291,10.767188 4.4578859,10.563281 4.5208875,10.46875 4.5838895,10.37422 4.9098728,9.8890625 5.2452959,9.390625 5.5807191,8.8921875 5.8842303,8.4387203 5.9197656,8.3829203 c 0.035535,-0.0558 0.159466,-0.2386125 0.2754019,-0.40625 L 6.40596,7.671875 6.4061162,7.0859375 6.40625,6.5 H 4.0060678 C 1.6499582,6.5 1.6023158,6.4987937 1.4114692,6.4343444 1.0139808,6.3001106 0.63738941,5.9235191 0.50315547,5.5260306 c -0.0918384,-0.2719481 -0.0918384,-0.7488631 0,-1.0208112 C 0.63738941,4.1077309 1.0139808,3.7311394 1.4114692,3.5969056 1.6026533,3.5323416 1.6479136,3.53125 4.1336897,3.53125 H 6.6614941 L 6.4849591,3.3361728 C 6.1582206,2.9751149 6,2.544279 6,2.015625 6,1.4288967 6.1700594,1.0129763 6.5758928,0.60714284 6.9817263,0.20130937 7.3976469,0.03125 7.984375,0.03125 c 0.5867281,0 1.0026488,0.17005937 1.4084822,0.57589284 C 9.7986906,1.0129763 9.96875,1.4288967 9.96875,2.015625 c 0,0.528654 -0.1582206,0.9594899 -0.4849591,1.3205478 L 9.3072559,3.53125 h 2.4496791 c 2.4064,0 2.453114,0.00116 2.644096,0.065656 0.397488,0.1342338 0.77408,0.5108253 0.908313,0.9083138 0.09184,0.2719481 0.09184,0.7488631 0,1.0208112 -0.134233,0.3974885 -0.510825,0.77408 -0.908313,0.9083138 C 14.210141,6.4988091 14.162792,6.5 11.790807,6.5 H 9.375 l 5.156e-4,0.4453125 c 4.688e-4,0.4055275 0.00675,0.4554791 0.070312,0.5591069 0.2321497,0.3784809 0.271121,0.4528415 0.2570844,0.4905403 -0.00857,0.023009 0.061804,0.19003 0.1563809,0.3711578 0.094577,0.1811278 0.1719591,0.343395 0.1719591,0.3605938 0,0.017199 0.08959,0.194709 0.199092,0.3944671 0.109501,0.1997582 0.209536,0.3983529 0.222299,0.4413216 0.01276,0.042969 0.122479,0.2602525 0.243814,0.482853 0.121335,0.2226 0.242816,0.461663 0.269955,0.53125 0.02714,0.06959 0.135666,0.288241 0.241168,0.485897 0.105502,0.197656 0.200694,0.388973 0.211537,0.425149 0.01084,0.03618 0.108845,0.233324 0.217782,0.438108 0.108937,0.204784 0.207246,0.401256 0.218465,0.436603 0.01122,0.03535 0.106184,0.224918 0.211034,0.421267 0.285601,0.534836 0.371101,0.811435 0.371101,1.200542 0,0.238737 -0.01608,0.363822 -0.06566,0.510612 -0.134233,0.397488 -0.510825,0.77408 -0.908313,0.908313 -0.271948,0.09184 -0.748863,0.09184 -1.020812,0 C 10.08535,15.282409 9.6653469,14.889754 9.5634853,14.581111 9.54427,14.522887 9.4397263,14.308279 9.3311663,14.104204 9.2226066,13.900129 9.1246056,13.704238 9.1133869,13.66889 9.1021678,13.633543 9.0073197,13.443973 8.9026131,13.247623 8.7979063,13.051274 8.6933688,12.838276 8.6703072,12.774295 8.6472459,12.710313 8.5450003,12.506407 8.4430953,12.32117 8.34119,12.135932 8.2473834,11.949219 8.2346359,11.90625 8.2067319,11.812192 7.8034644,11.06273 7.78125,11.063644 c -0.013899,5.72e-4 -0.4570497,0.657184 -0.75,1.111267 -0.060156,0.09324 -0.1771925,0.271332 -0.2600806,0.39575 -0.3703706,0.55594 -0.6074216,0.914607 -0.7086694,1.072244 -0.5591078,0.8705 -0.9417819,1.390888 -1.1417172,1.55259 -0.2806034,0.226943 -0.4573803,0.284561 -0.9051578,0.295018 -0.3309191,0.0077 -0.397905,9.4e-5 -0.5698556,-0.0649 z m 0.8662447,-0.472313 c 0.072804,-0.02569 0.1902875,-0.0893 0.2610731,-0.141352 C 4.7128781,14.709142 5.12043,14.147243 5.625,13.361655 5.7262478,13.204018 5.9632987,12.845351 6.3336694,12.289411 6.4165575,12.164993 6.5335938,11.986728 6.59375,11.893266 c 0.2395456,-0.372168 1.1682328,-1.756113 1.213765,-1.808772 0.045825,-0.053 0.052548,-0.04951 0.1204466,0.0625 0.071754,0.11837 0.1381356,0.250286 0.3191668,0.634256 0.096971,0.205677 0.2849922,0.557414 0.3591513,0.671875 0.022272,0.03438 0.058362,0.11875 0.080202,0.1875 0.02184,0.06875 0.080222,0.192008 0.1297381,0.273907 0.049517,0.0819 0.09003,0.157687 0.09003,0.168419 0,0.01073 0.039986,0.0845 0.088857,0.163922 0.048872,0.07943 0.1067956,0.200513 0.1287203,0.269082 0.021925,0.06857 0.076998,0.187951 0.1223841,0.265295 0.045386,0.07734 0.1431237,0.267187 0.2171937,0.421875 0.07407,0.154687 0.1565088,0.323437 0.1831972,0.375 0.139265,0.269062 0.3564019,0.705267 0.4164269,0.836559 0.08554,0.187089 0.296854,0.400668 0.491037,0.49629 0.213618,0.105192 0.645857,0.105763 0.858274,0.0011 0.336722,-0.165856 0.532791,-0.469052 0.551187,-0.85234 0.0099,-0.20684 -7.38e-4,-0.267368 -0.08354,-0.474165 -0.05221,-0.130382 -0.127669,-0.290872 -0.167692,-0.356643 -0.04002,-0.06577 -0.13326,-0.246148 -0.207194,-0.400835 -0.07393,-0.154688 -0.156445,-0.323438 -0.183357,-0.375 -0.02691,-0.05156 -0.125587,-0.248438 -0.219277,-0.4375 -0.311734,-0.629062 -0.340353,-0.686155 -0.45428,-0.90625 -0.06228,-0.120313 -0.156059,-0.310157 -0.208405,-0.421875 -0.09566,-0.204169 -0.283154,-0.555492 -0.358559,-0.671875 -0.02227,-0.034375 -0.05836,-0.1187503 -0.0802,-0.1875003 C 9.9791784,9.7593747 9.9207963,9.6361166 9.87128,9.5542178 9.8217634,9.4723187 9.78125,9.3965303 9.78125,9.3857991 9.78125,9.3750671 9.741264,9.3013021 9.692393,9.2218762 9.6435216,9.14245 9.5855663,9.0213634 9.5636031,8.952795 9.54164,8.8842262 9.4975106,8.7846981 9.4655378,8.7316209 9.3386275,8.5209406 9.0968728,8.0202284 9.1110147,7.9973469 9.1192747,7.9839819 9.0906441,7.9208991 9.0473913,7.8571625 L 8.96875,7.7412784 V 6.8711569 6.0010353 l 2.648438,-0.00833 2.648437,-0.00833 0.146715,-0.072266 c 0.187258,-0.092236 0.376282,-0.281261 0.468519,-0.4685191 0.104034,-0.2112097 0.104034,-0.6447197 0,-0.8559294 C 14.788623,4.4004022 14.599598,4.2113775 14.41234,4.1191412 L 14.265625,4.046875 h -6.3125 -6.3125 L 1.4939102,4.119141 c -0.1872579,0.092236 -0.3762827,0.281261 -0.468519,0.4685191 -0.10403408,0.2112097 -0.10403408,0.6447197 0,0.8559294 0.092236,0.1872581 0.2812611,0.3762828 0.468519,0.4685191 l 0.1467148,0.072266 2.6328125,0.00833 2.6328125,0.00833 v 0.9072816 c 0,1.024045 0.019248,0.9303072 -0.2776956,1.3523369 C 6.5298863,8.4008906 6.4219256,8.5607044 6.3886416,8.6158012 6.3553575,8.6708981 6.0795447,9.0857419 5.7757247,9.5376762 4.9900678,10.706345 4.8672403,10.888091 4.6552503,11.195626 4.5514641,11.346189 4.4577706,11.493845 4.4470428,11.523751 4.436315,11.553657 4.32001,11.732813 4.1885872,11.921875 4.0571644,12.110938 3.9222966,12.311501 3.8888809,12.367573 3.855465,12.423643 3.7494147,12.585362 3.6532134,12.726948 3.2179431,13.36756 3.085445,13.578181 3.0442308,13.694994 c -0.05768,0.163483 -0.056468,0.481214 0.00247,0.64827 0.093394,0.264707 0.3372121,0.512333 0.5989908,0.608345 0.1599725,0.05867 0.5023475,0.05954 0.6663197,0.0017 z M 8.503725,3.4092309 c 0.3827172,-0.1458353 0.7225631,-0.483876 0.8756078,-0.870957 0.1019913,-0.257956 0.1019913,-0.7873418 0,-1.0452978 C 9.2269494,1.1075677 8.8914959,0.772905 8.503725,0.61943287 c -0.2528709,-0.10008153 -0.7858291,-0.10008153 -1.0387,0 C 7.0751412,0.77374122 6.7357631,1.1135861 6.5926809,1.4929761 6.5085444,1.7160693 6.4803887,2.0836533 6.5293831,2.3193586 c 0.1100831,0.5295963 0.53895,0.984787 1.0676366,1.133168 0.2346447,0.065855 0.6755044,0.044804 0.9067053,-0.043296 z"
       id="path819"
       inkscape:connector-curvature="0" />
  </g>
</svg>
