<?xml version="1.0" encoding="UTF-8" standalone="no"?>
<!-- Created with Inkscape (http://www.inkscape.org/) -->

<svg
   version="1.1"
   id="svg2"
   width="1600"
   height="1600"
   viewBox="0 0 1600 1600"
   sodipodi:docname="outliner_data_surface.svg"
   inkscape:version="1.2.2 (732a01da63, 2022-12-09)"
   xmlns:inkscape="http://www.inkscape.org/namespaces/inkscape"
   xmlns:sodipodi="http://sodipodi.sourceforge.net/DTD/sodipodi-0.dtd"
   xmlns="http://www.w3.org/2000/svg"
   xmlns:svg="http://www.w3.org/2000/svg"
   xmlns:rdf="http://www.w3.org/1999/02/22-rdf-syntax-ns#"
   xmlns:cc="http://creativecommons.org/ns#"
   xmlns:dc="http://purl.org/dc/elements/1.1/">
  <metadata
     id="metadata8">
    <rdf:RDF>
      <cc:Work
         rdf:about="">
        <dc:format>image/svg+xml</dc:format>
        <dc:type
           rdf:resource="http://purl.org/dc/dcmitype/StillImage" />
      </cc:Work>
    </rdf:RDF>
  </metadata>
  <defs
     id="defs6" />
  <sodipodi:namedview
     pagecolor="#808080"
     bordercolor="#666666"
     borderopacity="1"
     objecttolerance="10"
     gridtolerance="10"
     guidetolerance="10"
     inkscape:pageopacity="0"
     inkscape:pageshadow="2"
     inkscape:window-width="1993"
     inkscape:window-height="1009"
     id="namedview4"
     showgrid="false"
     inkscape:zoom="0.5"
     inkscape:cx="181"
     inkscape:cy="76"
     inkscape:window-x="-8"
     inkscape:window-y="-8"
     inkscape:window-maximized="1"
     inkscape:current-layer="OUTLINER_DATA_SURFACE"
     inkscape:showpageshadow="0"
     inkscape:pagecheckerboard="true"
     inkscape:deskcolor="#d1d1d1" />
  <g
     id="OUTLINER_DATA_SURFACE"
     transform="matrix(100,0,0,100,0,4.9999997e-5)"
     style="stroke-width:0.0114286">
    <path
       style="fill:none;stroke-width:0.000357143"
       d="M 0,8 V 0 h 8 8 v 8 8 H 8 0 Z m 8.2512494,7.459289 c 0.093411,-0.0494 0.1588494,-0.115019 0.2086978,-0.209284 0.065548,-0.123952 0.070692,-0.163348 0.052833,-0.404602 -0.010882,-0.147003 -0.00374,-0.499309 0.015869,-0.782903 0.084323,-1.219473 0.2912206,-2.022474 0.6651456,-2.581538 0.2875978,-0.429995 0.6163212,-0.657473 1.4356402,-0.993469 0.263967,-0.10825 0.597847,-0.255655 0.741955,-0.327566 C 12.410982,9.6411653 13.003192,8.7965034 13.28014,7.4375 13.31692,7.2570312 13.35333,7.0787269 13.36105,7.0412678 13.3718,6.9891368 13.41723,6.9609898 13.554733,6.9212775 14.394035,6.6788788 14.998915,5.8741753 14.998915,5 14.998915,3.9092425 14.090758,3.0010852 13,3.0010852 c -0.504556,0 -1.015467,0.2069576 -1.371536,0.5555757 C 11.511077,3.6715913 11.391661,3.8007813 11.363095,3.84375 L 11.311156,3.921875 10.155578,3.5350819 9,3.1482887 8.9994575,2.9725818 C 8.9986072,2.6972254 8.9188831,2.3827181 8.7769522,2.0948078 8.4542134,1.4401257 7.7409122,1.0010852 7,1.0010852 5.9092425,1.0010852 5.0010853,1.9092424 5.0010853,3 c 0,0.7437206 0.4378916,1.4526497 1.0998947,1.780685 C 6.4134,4.9354953 6.3970428,4.8616134 6.2499059,5.4533506 6.1413262,5.8900231 6.0001894,6.2290081 5.8062053,6.5190384 5.5186075,6.9490325 5.1898841,7.1765106 4.370565,7.5125066 4.1065978,7.6207575 3.7727181,7.7681622 3.62861,7.8400731 2.2942044,8.5059484 1.6893716,9.6969981 1.5320062,11.96875 c -0.052487,0.757713 -0.043115,1.113569 0.033495,1.271825 0.075978,0.15695 0.2449617,0.270135 0.4820823,0.322898 0.085548,0.01904 1.44226,0.468538 3.0149162,0.998892 1.5726562,0.530355 2.9028663,0.965317 2.9560225,0.966583 0.053156,0.0013 0.1578831,-0.03008 0.2327269,-0.06966 z"
       id="path827"
       inkscape:connector-curvature="0" />
    <path
       style="fill:#fefefe;stroke-width:0.000357143"
       d="M 5.0093,13.470143 C 3.6480091,13.01268 2.5250044,12.629171 2.5137344,12.617901 c -0.028466,-0.02847 0.040126,-1.001754 0.098352,-1.39557 0.064356,-0.435275 0.2008683,-0.965203 0.3261874,-1.2662329 0.1078215,-0.258999 0.3463043,-0.640289 0.4770184,-0.7626643 l 0.07711,-0.072191 2.4491109,0.8176475 c 1.3470113,0.4497067 2.4602876,0.8280567 2.4739476,0.8407777 0.01366,0.01272 -0.025798,0.09914 -0.087684,0.192043 -0.4257603,0.639147 -0.7222306,1.729807 -0.7845019,2.886038 -0.011156,0.207144 -0.028973,0.391818 -0.039592,0.410385 -0.01245,0.02177 -0.898499,-0.261693 -2.4943828,-0.797991 z M 11.453125,8.5559063 C 11.35,8.5215197 10.28125,8.1654906 9.078125,7.7647303 7.875,7.36397 6.8525981,7.0215203 6.8061209,7.0037313 L 6.7216172,6.9713869 6.86169,6.696875 C 7.0282275,6.3704988 7.1879963,5.8896556 7.28014,5.4375 7.3169172,5.2570312 7.353325,5.0787269 7.3610459,5.0412678 7.3717906,4.9891372 7.417225,4.9609897 7.5547294,4.9212775 7.9367434,4.8109484 8.3971372,4.4964675 8.5911431,4.2133344 l 0.071641,-0.1045528 1.1684909,0.3909218 1.168491,0.3909216 6.59e-4,0.15625 c 0.003,0.6988378 0.457713,1.4152697 1.100555,1.73381 0.31242,0.1548103 0.296063,0.080928 0.148926,0.6726656 -0.139433,0.5607535 -0.432825,1.1761694 -0.557003,1.1683628 -0.02875,-0.00181 -0.136653,-0.031421 -0.239778,-0.065807 z M 12,5 V 4 h 1 1 V 5 6 H 13 12 Z M 6,3 V 2 H 7 8 V 3 4 H 7 6 Z"
       id="path825"
       inkscape:connector-curvature="0" />
    <path
       style="fill:#989898;stroke-width:0.000357143"
       d="M 5.9756237,9.9544863 C 4.6301853,9.5029653 3.5221025,9.1262694 3.5132175,9.1173841 3.4901378,9.0943047 3.7614822,8.9011594 4,8.7708878 4.1117187,8.7098703 4.4,8.5801256 4.640625,8.4825666 5.2099712,8.25173 5.5779991,8.0674822 5.8622609,7.8709722 6.1186109,7.6937575 6.4672431,7.3427238 6.6096606,7.1184238 c 0.051405,-0.080961 0.1022985,-0.1442419 0.113096,-0.140625 0.010797,0.00362 1.0514221,0.3499693 2.3125,0.7696721 1.2610774,0.4197029 2.3842744,0.7947882 2.4959934,0.8335228 l 0.203125,0.070427 -0.205299,0.1977272 C 11.273375,9.0954178 10.98505,9.2605112 10.370565,9.5125066 9.4450709,9.8920444 9.0610694,10.123578 8.6730981,10.535994 8.5462025,10.670885 8.4377653,10.779941 8.4321269,10.778342 8.4264884,10.776742 7.3210619,10.406007 5.9756237,9.9544863 Z"
       id="path823"
       inkscape:connector-curvature="0" />
    <path
       style="fill:#323232;stroke-width:0.000357143"
       d="M 5.0625,14.562365 C 3.4898438,14.032011 2.1331315,13.582509 2.0475838,13.563473 1.8104632,13.51071 1.6414795,13.397525 1.5655015,13.240575 1.488891,13.082319 1.4795191,12.726463 1.5320062,11.96875 1.6893716,9.6969981 2.2942044,8.5059484 3.62861,7.8400731 3.7727181,7.7681622 4.1065978,7.6207575 4.370565,7.5125066 5.1898841,7.1765106 5.5186075,6.9490325 5.8062053,6.5190384 5.8902844,6.39333 6.0052687,6.1795184 6.0617259,6.0439019 6.1574516,5.8139584 6.3431522,5.151245 6.3442284,5.0357287 6.3452878,4.9221553 6.3821528,4.9115641 6.609375,4.9595537 6.7500519,4.9892647 6.9255753,5.0005587 7.1011675,4.9911978 7.3664387,4.9770562 7.3738228,4.9785306 7.3606091,5.0430084 7.3531284,5.07951 7.3169172,5.2570312 7.28014,5.4375 7.0031919,6.7965034 6.4109819,7.6411653 5.37139,8.1599269 5.2272819,8.2318378 4.8934022,8.3792425 4.629435,8.4874934 3.8101159,8.8234894 3.4813925,9.0509675 3.1937947,9.4809616 2.8183304,10.042327 2.6111402,10.849499 2.5286729,12.072142 c -0.019486,0.288898 -0.02623,0.534467 -0.014987,0.545711 0.011243,0.01124 1.1378743,0.395631 2.503624,0.854194 2.3600628,0.792412 2.4838519,0.83043 2.4967119,0.766789 0.00744,-0.03683 0.022231,-0.226464 0.032866,-0.421412 0.023592,-0.432486 0.1127053,-1.055341 0.202001,-1.411872 0.2163997,-0.864026 0.4910706,-1.413347 0.9471962,-1.894321 0.3700216,-0.390179 0.764971,-0.6257423 1.67448,-0.9987244 0.819319,-0.335996 1.148043,-0.5634741 1.43564,-0.9934682 0.08408,-0.1257084 0.199064,-0.33952 0.255521,-0.4751365 0.09573,-0.2299435 0.281426,-0.8926569 0.282502,-1.0081732 0.0011,-0.1135734 0.03793,-0.1241646 0.265147,-0.076175 0.140677,0.029711 0.3162,0.041005 0.491793,0.031644 0.265271,-0.014142 0.272655,-0.012667 0.259441,0.051811 -0.0075,0.036502 -0.04369,0.2140228 -0.08047,0.3944916 -0.276948,1.3590034 -0.869158,2.2036653 -1.90875,2.7224267 -0.144108,0.07191 -0.477988,0.219315 -0.741955,0.327566 -0.8193194,0.335996 -1.1480428,0.563474 -1.4356406,0.993469 -0.373925,0.559064 -0.5808222,1.362065 -0.6651456,2.581538 -0.01961,0.283594 -0.026751,0.6359 -0.015869,0.782903 0.017859,0.241254 0.012715,0.28065 -0.052833,0.404602 -0.082447,0.15591 -0.2831128,0.282714 -0.4414247,0.278943 C 7.9653662,15.527682 6.6351562,15.09272 5.0625,14.562365 Z M 9.8149825,4.4976269 C 9.2061919,4.2925484 8.7031728,4.1198394 8.6971625,4.1138291 c -0.00601,-0.00601 0.038702,-0.1154347 0.099361,-0.2431654 0.060659,-0.1277306 0.1321107,-0.336894 0.1587816,-0.4648078 0.026671,-0.1279134 0.052595,-0.2366731 0.05761,-0.2416878 0.00501,-0.00501 0.5221453,0.1634178 1.1491789,0.3742947 L 11.302156,3.921875 11.195953,4.1456375 C 11.137541,4.2687069 11.067338,4.48316 11.039945,4.6222 11.012555,4.76124 10.974785,4.8739869 10.956005,4.8727484 10.937235,4.8715084 10.42377,4.7027056 9.8149795,4.4976269 Z"
       id="path821"
       inkscape:connector-curvature="0" />
    <path
       style="fill:#000000;stroke-width:0.000357143"
       d="M 12.5625,6.9514053 C 11.832319,6.7945809 11.200704,6.1571794 11.046855,5.421875 c -0.297121,-1.4200522 0.954968,-2.6721407 2.37502,-2.3750202 0.742912,0.1554411 1.375829,0.7883577 1.53127,1.5312702 0.29819,1.4251613 -0.965246,2.6794197 -2.390645,2.3732803 z M 14,5 V 4 h -1 -1 v 1 1 h 1 1 z M 6.5625,4.9514053 C 5.8323191,4.7945809 5.2007041,4.1571794 5.0468547,3.421875 4.8215506,2.3450608 5.5151619,1.2692608 6.578125,1.0468547 7.8218928,0.78661856 8.9989147,1.7362651 8.9989147,3 c 0,1.2683769 -1.1876531,2.2196075 -2.4364147,1.9514053 z M 8,3 V 2 H 7 6 v 1 1 h 1 1 z"
       id="path819"
       inkscape:connector-curvature="0" />
  </g>
</svg>
