<?xml version="1.0" encoding="UTF-8" standalone="no"?>
<!-- Created with Inkscape (http://www.inkscape.org/) -->

<svg
   version="1.1"
   id="svg2"
   width="1600"
   height="1600"
   viewBox="0 0 1600 1600"
   sodipodi:docname="outliner_data_lattice.svg"
   inkscape:version="1.2.2 (732a01da63, 2022-12-09)"
   xmlns:inkscape="http://www.inkscape.org/namespaces/inkscape"
   xmlns:sodipodi="http://sodipodi.sourceforge.net/DTD/sodipodi-0.dtd"
   xmlns="http://www.w3.org/2000/svg"
   xmlns:svg="http://www.w3.org/2000/svg"
   xmlns:rdf="http://www.w3.org/1999/02/22-rdf-syntax-ns#"
   xmlns:cc="http://creativecommons.org/ns#"
   xmlns:dc="http://purl.org/dc/elements/1.1/">
  <metadata
     id="metadata8">
    <rdf:RDF>
      <cc:Work
         rdf:about="">
        <dc:format>image/svg+xml</dc:format>
        <dc:type
           rdf:resource="http://purl.org/dc/dcmitype/StillImage" />
      </cc:Work>
    </rdf:RDF>
  </metadata>
  <defs
     id="defs6" />
  <sodipodi:namedview
     pagecolor="#808080"
     bordercolor="#666666"
     borderopacity="1"
     objecttolerance="10"
     gridtolerance="10"
     guidetolerance="10"
     inkscape:pageopacity="0"
     inkscape:pageshadow="2"
     inkscape:window-width="1993"
     inkscape:window-height="1009"
     id="namedview4"
     showgrid="false"
     inkscape:zoom="0.40429688"
     inkscape:cx="520.657"
     inkscape:cy="541.68116"
     inkscape:window-x="-8"
     inkscape:window-y="-8"
     inkscape:window-maximized="1"
     inkscape:current-layer="OUTLINER_DATA_LATTICE"
     inkscape:showpageshadow="0"
     inkscape:pagecheckerboard="true"
     inkscape:deskcolor="#d1d1d1" />
  <g
     id="OUTLINER_DATA_LATTICE"
     transform="matrix(100,0,0,100,0,4.9999997e-5)"
     style="stroke-width:0.0114286">
    <path
       style="fill:none;stroke-width:0.000357143"
       d="M 0,8 V 0 L 1.3828125,0.00248437 C 2.6460474,0.00475391 2.7480599,0.00874127 2.5625,0.04859484 2.2155718,0.12310621 1.8636233,0.32008884 1.5918561,0.59185606 0.80485078,1.3788613 0.80438288,2.6235771 1.5907983,3.40583 1.8243267,3.6381225 2.1084199,3.8171575 2.3825602,3.9047975 l 0.1169351,0.037383 0.00806,5.6203713 0.00806,5.6203712 0.064431,0.08629 c 0.035437,0.04746 0.1032651,0.115289 0.1507291,0.150726 l 0.086298,0.06443 H 8.5 14.182917 l 0.0863,-0.06443 c 0.04746,-0.03544 0.115292,-0.103264 0.150729,-0.150726 l 0.06443,-0.08629 0.0081,-5.6203712 0.0081,-5.6203713 0.116935,-0.037383 c 0.474685,-0.1517522 0.938476,-0.5515128 1.159714,-0.9996053 0.07184,-0.1455119 0.150257,-0.3559734 0.174251,-0.4676922 0.03784,-0.1762043 0.04396,0.7090725 0.04611,6.6796875 L 16,16 H 8 0 Z m 4.5,3.5 v -2 H 6 7.5 v 2 2 H 6 4.5 Z m 5,0 v -2 h 1.5 1.5 v 2 2 H 11 9.5 Z m -5,-6 v -2 H 6 7.5 v 2 2 H 6 4.5 Z m 5,0 v -2 h 1.5 1.5 v 2 2 H 11 9.5 Z M 15.94596,1.5548345 C 15.925561,1.4474934 15.849843,1.2405475 15.777699,1.0949548 15.524301,0.58357428 14.991481,0.16757594 14.4375,0.04859484 14.245384,0.00733316 14.282221,0.00483409 15.117188,0.00248437 L 16,0 V 0.875 C 16,1.35625 15.9962,1.75 15.9915,1.75 15.9868,1.75 15.96634,1.662176 15.94594,1.5548345 Z M 4.9048806,1.3828125 C 4.7530303,0.90785278 4.3533853,0.4441335 3.9051922,0.22284625 3.7596803,0.15100232 3.5492188,0.07258919 3.4375,0.04859484 3.2607294,0.01062899 3.9175609,0.00496874 8.5,0.00496874 c 4.582439,0 5.239271,0.00566025 5.0625,0.0436261 C 13.450781,0.07258919 13.24032,0.15100232 13.094808,0.22284625 12.646615,0.4441335 12.24697,0.90785278 12.095119,1.3828125 L 12.057653,1.5 H 8.5 4.9423469 Z"
       id="path825"
       inkscape:connector-curvature="0" />
    <path
       style="fill:#fefefe;stroke-width:0.000357143"
       d="M 3,14.5 V 14 H 3.5 4 V 14.5 15 H 3.5 3 Z m 2,0 V 14 H 6 7 V 14.5 15 H 6 5 Z m 3,0 V 14 H 8.5 9 V 14.5 15 H 8.5 8 Z m 2,0 V 14 h 1 1 v 0.5 0.5 h -1 -1 z m 3,0 V 14 H 13.5 14 V 14.5 15 H 13.5 13 Z M 3,11.5 V 10 H 3.5 4 V 11.5 13 H 3.5 3 Z m 5,0 V 10 H 8.5 9 V 11.5 13 H 8.5 8 Z m 5,0 V 10 H 13.5 14 V 11.5 13 H 13.5 13 Z M 3,8.5 V 8 H 3.5 4 V 8.5 9 H 3.5 3 Z m 2,0 V 8 H 6 7 V 8.5 9 H 6 5 Z m 3,0 V 8 H 8.5 9 V 8.5 9 H 8.5 8 Z m 2,0 V 8 h 1 1 V 8.5 9 h -1 -1 z m 3,0 V 8 H 13.5 14 V 8.5 9 H 13.5 13 Z M 3,5.5 V 4 H 3.5 4 V 5.5 7 H 3.5 3 Z m 5,0 V 4 H 8.5 9 V 5.5 7 H 8.5 8 Z m 5,0 V 4 H 13.5 14 V 5.5 7 H 13.5 13 Z M 2,2 V 1 H 3 4 V 2 3 H 3 2 Z M 5,2.5 V 2 H 6 7 V 2.5 3 H 6 5 Z m 3,0 V 2 H 8.5 9 V 2.5 3 H 8.5 8 Z m 2,0 V 2 h 1 1 V 2.5 3 H 11 10 Z M 13,2 V 1 h 1 1 v 1 1 h -1 -1 z"
       id="path823"
       inkscape:connector-curvature="0" />
    <path
       style="fill:#cbcbcb;stroke-width:0.000357143"
       d="M 4,14.5 V 14 H 3.5 3 V 13.5 13 H 3.5 4 V 13.5 14 H 4.5 5 V 14.5 15 H 4.5 4 Z m 3,0 V 14 H 7.5 8 V 13.5 13 H 8.5 9 V 13.5 14 H 9.5 10 V 14.5 15 H 9.5 9 V 14.5 14 H 8.5 8 V 14.5 15 H 7.5 7 Z m 5,0 V 14 H 12.5 13 V 13.5 13 H 13.5 14 V 13.5 14 H 13.5 13 V 14.5 15 H 12.5 12 Z M 3,9.5 V 9 H 3.5 4 V 8.5 8 H 3.5 3 V 7.5 7 H 3.5 4 V 7.5 8 H 4.5 5 V 8.5 9 H 4.5 4 V 9.5 10 H 3.5 3 Z m 5,0 V 9 H 7.5 7 V 8.5 8 H 7.5 8 V 7.5 7 H 8.5 9 V 7.5 8 H 9.5 10 V 8.5 9 H 9.5 9 V 9.5 10 H 8.5 8 Z m 1,-1 V 8 H 8.5 8 V 8.5 9 H 8.5 9 Z m 4,1 V 9 H 12.5 12 V 8.5 8 H 12.5 13 V 7.5 7 H 13.5 14 V 7.5 8 H 13.5 13 V 8.5 9 H 13.5 14 V 9.5 10 H 13.5 13 Z M 3.4309803,3.9523397 C 3.5391134,3.9288591 3.7060472,3.8737272 3.8019444,3.8298241 3.8978413,3.7859206 3.9816347,3.75 3.9881513,3.75 3.9946681,3.75 4,3.80625 4,3.875 V 4 L 3.6171875,3.9975156 3.234375,3.9950312 Z M 8,3.5 V 3 H 7.5 7 V 2.5 2 H 7.5 8 V 2.5 3 H 8.5 9 V 2.5 2 H 9.5 10 V 2.5 3 H 9.5 9 V 3.5 4 H 8.5 8 Z m 5,0.375 c 0,-0.06875 0.0053,-0.125 0.01185,-0.125 0.0065,0 0.09031,0.035921 0.186207,0.079824 0.0959,0.043903 0.262831,0.099035 0.370964,0.1225156 l 0.196605,0.042692 -0.382812,0.00248 L 13,4 Z M 4.75,2.9881513 c 0,-0.00652 0.035921,-0.09031 0.079824,-0.186207 0.043903,-0.095897 0.099035,-0.262831 0.1225156,-0.3709639 L 4.9950312,2.234375 4.9975156,2.6171875 5,3 H 4.875 C 4.80625,3 4.75,2.9946681 4.75,2.9881513 Z m 7.252484,-0.3709638 0.0025,-0.3828125 0.04269,0.1966054 c 0.02348,0.1081329 0.07861,0.2750667 0.122516,0.3709639 0.0439,0.095897 0.07982,0.1796903 0.07982,0.186207 C 12.25,2.9946681 12.19375,3 12.125,3 H 12 Z"
       id="path821"
       inkscape:connector-curvature="0" />
    <path
       style="fill:#323232;stroke-width:0.000357143"
       d="M 2.796875,15.456022 C 2.6818838,15.404747 2.5776676,15.294669 2.5333316,15.177653 2.5101762,15.116539 2.5,13.388033 2.5,9.5160141 V 3.9423469 L 2.3828125,3.9048806 C 2.1084125,3.8171516 1.8243979,3.6381931 1.5907983,3.40583 0.80438288,2.6235771 0.80485078,1.3788613 1.5918561,0.59185606 2.3788613,-0.19514923 3.6235772,-0.19561712 4.40583,0.59079828 4.6381931,0.82439791 4.8171516,1.1084125 4.9048806,1.3828125 L 4.9423469,1.5 H 8.5 12.057653 l 0.03747,-0.1171875 c 0.08773,-0.2744 0.266688,-0.55841459 0.499051,-0.79201422 0.782253,-0.7864154 2.026969,-0.78594751 2.813974,0.001058 0.787005,0.78700532 0.787473,2.03172102 0.0011,2.81397392 -0.233528,0.2322925 -0.517621,0.4113275 -0.791761,0.4989675 l -0.116936,0.037383 -0.0081,5.6203713 -0.0081,5.620371 -0.06443,0.08629 c -0.03544,0.04746 -0.103264,0.115289 -0.150726,0.150726 l -0.08629,0.06443 -5.6461482,0.0067 c -4.6577804,0.0055 -5.6625599,-5.93e-4 -5.7398988,-0.03508 z M 14,9.5069244 V 4.0138487 L 13.737034,3.9779903 C 13.517792,3.9480944 13.337334,3.8918672 13.039063,3.7605153 13.008027,3.7468478 13,4.1806406 13,5.8716566 V 8 H 11 9 V 5.5 3 h 1.628343 C 11.919359,3 12.253123,2.99191 12.239485,2.960937 12.108133,2.6626656 12.051906,2.4822081 12.02201,2.2629663 L 11.986151,2 H 8.5 5.0138487 L 4.9779903,2.2629663 C 4.9480944,2.4822081 4.8918672,2.6626656 4.7605153,2.9609375 4.7468769,2.9919078 5.0806406,3 6.3716566,3 H 8 V 5.5 8 H 6 4 V 5.8716566 C 4,4.1806406 3.9919734,3.7468478 3.9609375,3.7605153 3.6626656,3.8918672 3.4822081,3.9480944 3.2629662,3.9779903 L 3,4.0138487 V 9.5069244 15 H 8.5 14 Z M 4,11.5 V 9 H 6 8 V 11.5 14 H 6 4 Z m 3.5,0 v -2 H 6 4.5 v 2 2 H 6 7.5 Z m 1.5,0 V 9 h 2 2 V 11.5 14 H 11 9 Z m 3.5,0 v -2 H 11 9.5 v 2 2 h 1.5 1.5 z m -5,-6 v -2 H 6 4.5 v 2 2 H 6 7.5 Z m 5,0 v -2 H 11 9.5 v 2 2 H 11 12.5 Z M 4,2 V 1 H 3 2 V 2 3 H 3 4 Z M 15,2 V 1 h -1 -1 v 1 1 h 1 1 z"
       id="path819"
       inkscape:connector-curvature="0" />
  </g>
</svg>
