<?xml version="1.0" encoding="UTF-8" standalone="no"?>
<!-- Created with Inkscape (http://www.inkscape.org/) -->

<svg
   version="1.1"
   id="svg2"
   width="1600"
   height="1600"
   viewBox="0 0 1600 1600"
   sodipodi:docname="outliner_ob_surface.svg"
   inkscape:version="1.2.2 (732a01da63, 2022-12-09)"
   xmlns:inkscape="http://www.inkscape.org/namespaces/inkscape"
   xmlns:sodipodi="http://sodipodi.sourceforge.net/DTD/sodipodi-0.dtd"
   xmlns="http://www.w3.org/2000/svg"
   xmlns:svg="http://www.w3.org/2000/svg"
   xmlns:rdf="http://www.w3.org/1999/02/22-rdf-syntax-ns#"
   xmlns:cc="http://creativecommons.org/ns#"
   xmlns:dc="http://purl.org/dc/elements/1.1/">
  <metadata
     id="metadata8">
    <rdf:RDF>
      <cc:Work
         rdf:about="">
        <dc:format>image/svg+xml</dc:format>
        <dc:type
           rdf:resource="http://purl.org/dc/dcmitype/StillImage" />
      </cc:Work>
    </rdf:RDF>
  </metadata>
  <defs
     id="defs6" />
  <sodipodi:namedview
     pagecolor="#808080"
     bordercolor="#666666"
     borderopacity="1"
     objecttolerance="10"
     gridtolerance="10"
     guidetolerance="10"
     inkscape:pageopacity="0"
     inkscape:pageshadow="2"
     inkscape:window-width="1993"
     inkscape:window-height="1009"
     id="namedview4"
     showgrid="false"
     inkscape:zoom="0.5"
     inkscape:cx="319"
     inkscape:cy="354"
     inkscape:window-x="-8"
     inkscape:window-y="-8"
     inkscape:window-maximized="1"
     inkscape:current-layer="OUTLINER_OB_SURFACE"
     inkscape:showpageshadow="0"
     inkscape:pagecheckerboard="true"
     inkscape:deskcolor="#d1d1d1" />
  <g
     id="OUTLINER_OB_SURFACE"
     transform="matrix(100,0,0,100,0,4.9999997e-5)"
     style="stroke-width:0.0114286">
    <path
       style="fill:none;stroke-width:0.000357143"
       d="M 0,8 V 0 h 8 8 v 8 8 H 8 0 Z m 8.2512494,6.459289 C 8.34466,14.409893 8.4100988,14.34427 8.4599472,14.250005 8.525495,14.126053 8.5306394,14.086657 8.5127803,13.845403 8.5018984,13.6984 8.5090394,13.346094 8.5286491,13.0625 8.6129725,11.843027 8.8198697,11.040026 9.1937947,10.480962 9.4813925,10.050967 9.8101159,9.8234894 10.629435,9.4874934 11.538944,9.1145113 11.933893,8.8789478 12.303915,8.4887688 13.061801,7.689595 13.388277,6.6031619 13.497854,4.515625 13.527763,3.9458363 13.526422,3.9164975 13.464634,3.7886209 13.391307,3.6368641 13.221812,3.5216513 12.998554,3.4718075 12.920416,3.4543622 11.556927,3.003569 9.9685784,2.4700445 8.3802303,1.93652 7.0436397,1.5 6.9983766,1.5 6.8512478,1.5 6.6502262,1.6319983 6.5719606,1.7800007 6.5106634,1.8959152 6.4999594,1.9628176 6.4997256,2.2314776 6.4995694,2.4049462 6.4855422,2.74375 6.4685419,2.984375 6.3858691,4.1545534 6.1723725,4.9715728 5.8062053,5.5190384 5.5186075,5.9490325 5.1898841,6.1765106 4.370565,6.5125066 4.1065978,6.6207575 3.7727181,6.7681622 3.62861,6.8400731 2.2942044,7.5059484 1.6893716,8.6969981 1.5320062,10.96875 c -0.052487,0.757713 -0.043115,1.113569 0.033495,1.271825 0.075978,0.15695 0.2449617,0.270135 0.4820823,0.322898 0.085548,0.01904 1.44226,0.468538 3.0149162,0.998892 1.5726562,0.530355 2.9028663,0.965317 2.9560225,0.966583 0.053156,0.0013 0.1578831,-0.03008 0.2327269,-0.06966 z"
       id="path825"
       inkscape:connector-curvature="0" />
    <path
       style="fill:#fecb98;stroke-width:0.000357143"
       d="M 5.0093,12.470143 C 3.6480091,12.01268 2.5250044,11.629171 2.5137344,11.617901 2.4852681,11.589435 2.5538602,10.616147 2.6120867,10.222331 2.6764431,9.7870563 2.812955,9.2571281 2.9382741,8.9560981 3.0460956,8.6970991 3.2845784,8.3158091 3.4152925,8.1934338 l 0.07711,-0.072191 2.4491109,0.8176475 C 7.2885247,9.3885969 8.401801,9.7669466 8.415461,9.7796678 8.429121,9.7923888 8.389663,9.8788088 8.327777,9.9717113 7.9020167,10.610858 7.6055464,11.701518 7.5432751,12.857749 7.5321191,13.064893 7.5143021,13.249567 7.5036831,13.268134 7.4912331,13.289904 6.6051841,13.006441 5.0093,12.470143 Z M 11.453125,7.5559062 C 11.35,7.5215197 10.28125,7.1654906 9.078125,6.7647303 7.875,6.36397 6.8525981,6.0215203 6.8061209,6.0037313 L 6.7216172,5.9713869 6.86169,5.696875 c 0.3227437,-0.6325063 0.5688566,-1.7440966 0.6144013,-2.775 0.00636,-0.143942 0.019173,-0.186736 0.055159,-0.1842114 0.0424,0.00297 4.9378767,1.6364677 4.9643157,1.656463 0.02155,0.016298 -0.06004,1.0547765 -0.108692,1.3834318 -0.06479,0.4376357 -0.199048,0.9634372 -0.320523,1.2552338 -0.131103,0.3149241 -0.30748,0.5930684 -0.373447,0.5889212 -0.02875,-0.00181 -0.136654,-0.031421 -0.239779,-0.065807 z"
       id="path823"
       inkscape:connector-curvature="0" />
    <path
       style="fill:#fe9832;stroke-width:0.000357143"
       d="M 5.9756237,8.9544863 C 4.6301853,8.5029653 3.5221025,8.1262694 3.5132175,8.1173841 3.4901378,8.0943047 3.7614822,7.9011594 4,7.7708878 4.1117187,7.7098703 4.4,7.5801256 4.640625,7.4825666 5.2099712,7.25173 5.5779991,7.0674822 5.8622609,6.8709722 6.1186109,6.6937575 6.4672431,6.3427237 6.6096606,6.1184238 c 0.051405,-0.080961 0.1022985,-0.1442419 0.113096,-0.140625 0.010797,0.00362 1.0514221,0.3499693 2.3125,0.7696721 1.2610774,0.4197028 2.3842744,0.7947882 2.4959934,0.8335228 l 0.203125,0.070427 -0.205299,0.1977272 C 11.273375,8.0954178 10.98505,8.2605113 10.370565,8.5125066 9.4450709,8.8920444 9.0610694,9.1235778 8.6730981,9.5359941 8.5462025,9.6708847 8.4377653,9.7799413 8.4321269,9.7783419 8.4264884,9.7767419 7.3210619,9.4060072 5.9756237,8.9544863 Z"
       id="path821"
       inkscape:connector-curvature="0" />
    <path
       style="fill:#320000;stroke-width:0.000357143"
       d="M 5.0625,13.562365 C 3.4898438,13.032011 2.1331315,12.582509 2.0475838,12.563473 1.8104632,12.51071 1.6414795,12.397525 1.5655015,12.240575 1.488891,12.082319 1.4795191,11.726463 1.5320062,10.96875 1.6893716,8.6969981 2.2942044,7.5059484 3.62861,6.8400731 3.7727181,6.7681622 4.1065978,6.6207575 4.370565,6.5125066 5.1898841,6.1765106 5.5186075,5.9490325 5.8062053,5.5190384 6.1723725,4.9715728 6.3858691,4.1545534 6.4685419,2.984375 6.4855422,2.74375 6.4995747,2.4049462 6.4997256,2.2314776 6.4999444,1.9628176 6.5106634,1.8959152 6.5719606,1.7800007 6.6502262,1.6319983 6.8512478,1.5 6.9983766,1.5 c 0.045263,0 1.3818537,0.43652 2.9702018,0.9700445 1.5883486,0.5335245 2.9518376,0.9843177 3.0299756,1.001763 0.223258,0.049844 0.392753,0.1650566 0.46608,0.3168134 0.06179,0.1278766 0.06313,0.1572154 0.03322,0.7270041 -0.109577,2.0875369 -0.436053,3.17397 -1.193939,3.9731438 -0.370022,0.390179 -0.764971,0.6257425 -1.67448,0.9987246 -0.8193191,0.335996 -1.1480425,0.5634736 -1.4356403,0.9934686 -0.373925,0.559064 -0.5808222,1.362065 -0.6651456,2.581538 -0.01961,0.283594 -0.026751,0.6359 -0.015869,0.782903 0.017859,0.241254 0.012715,0.28065 -0.052833,0.404602 -0.082447,0.15591 -0.2831128,0.282714 -0.4414247,0.278943 C 7.9653663,14.527683 6.6351563,14.09272 5.0625,13.562365 Z m 2.4807753,-0.704616 c 0.02432,-0.45157 0.1144735,-1.0883 0.2056138,-1.452197 0.2163997,-0.864026 0.4910706,-1.4133467 0.9471962,-1.8943207 0.3700216,-0.3901791 0.764971,-0.6257425 1.6744797,-0.9987247 0.819319,-0.335996 1.148043,-0.5634741 1.43564,-0.9934682 0.374823,-0.5604056 0.581983,-1.368555 0.66517,-2.5948728 0.01946,-0.2868669 0.03035,-0.5253843 0.02419,-0.530039 C 12.469127,4.3741312 7.5736503,2.7406383 7.53125,2.7376636 7.4952644,2.7351389 7.4824506,2.777933 7.4760912,2.921875 7.4597259,3.2923019 7.3735972,3.9834503 7.2961119,4.3661378 7.0071147,5.7934453 6.4294425,6.6319531 5.37139,7.1599269 5.2272819,7.2318378 4.8934022,7.3792425 4.629435,7.4874934 3.8101159,7.8234894 3.4813925,8.0509675 3.1937947,8.4809616 2.8183304,9.0423272 2.6111402,9.8494988 2.5286729,11.072143 c -0.019486,0.288897 -0.026208,0.534488 -0.014938,0.545758 0.01127,0.01127 1.1342747,0.394779 2.4955656,0.852242 1.5958841,0.536298 2.4819334,0.819759 2.4943831,0.797991 0.010619,-0.01857 0.028436,-0.203241 0.039592,-0.410385 z"
       id="path819"
       inkscape:connector-curvature="0" />
  </g>
</svg>
