<?xml version="1.0" encoding="UTF-8" standalone="no"?>
<!-- Created with Inkscape (http://www.inkscape.org/) -->

<svg
   version="1.1"
   id="svg2"
   width="1600"
   height="1600"
   viewBox="0 0 1600 1600"
   sodipodi:docname="output.svg"
   inkscape:version="1.2.2 (732a01da63, 2022-12-09)"
   xmlns:inkscape="http://www.inkscape.org/namespaces/inkscape"
   xmlns:sodipodi="http://sodipodi.sourceforge.net/DTD/sodipodi-0.dtd"
   xmlns="http://www.w3.org/2000/svg"
   xmlns:svg="http://www.w3.org/2000/svg"
   xmlns:rdf="http://www.w3.org/1999/02/22-rdf-syntax-ns#"
   xmlns:cc="http://creativecommons.org/ns#"
   xmlns:dc="http://purl.org/dc/elements/1.1/">
  <metadata
     id="metadata8">
    <rdf:RDF>
      <cc:Work
         rdf:about="">
        <dc:format>image/svg+xml</dc:format>
        <dc:type
           rdf:resource="http://purl.org/dc/dcmitype/StillImage" />
      </cc:Work>
    </rdf:RDF>
  </metadata>
  <defs
     id="defs6" />
  <sodipodi:namedview
     pagecolor="#808080"
     bordercolor="#666666"
     borderopacity="1"
     objecttolerance="10"
     gridtolerance="10"
     guidetolerance="10"
     inkscape:pageopacity="0"
     inkscape:pageshadow="2"
     inkscape:window-width="2560"
     inkscape:window-height="1009"
     id="namedview4"
     showgrid="false"
     inkscape:zoom="0.5"
     inkscape:cx="652"
     inkscape:cy="852"
     inkscape:window-x="-8"
     inkscape:window-y="-8"
     inkscape:window-maximized="1"
     inkscape:current-layer="svg2"
     fit-margin-top="0"
     fit-margin-left="0"
     fit-margin-right="0"
     fit-margin-bottom="0"
     inkscape:showpageshadow="0"
     inkscape:pagecheckerboard="true"
     inkscape:deskcolor="#d1d1d1" />
  <g
     id="OUTPUT"
     transform="matrix(99.999994,0,0,99.999994,-1.999997e-6,4.8e-5)"
     style="stroke-width:0.01">
    <path
       style="fill:none;stroke-width:0.0003125"
       d="M 0,8 V 0 h 8.0000002 8.0000008 v 8 8 H 8.0000002 0 Z m 12,4.75115 v -2.24884 l 1.091508,-0.009 c 1.046293,-0.009 1.095081,-0.0116 1.177757,-0.0734 0.04744,-0.0354 0.115243,-0.10326 0.15068,-0.15072 0.06409,-0.0858 0.06443,-0.10324 0.06443,-3.26922 0,-3.16598 -3.44e-4,-3.18338 -0.06443,-3.26921 -0.03544,-0.0475 -0.103249,-0.1153 -0.150693,-0.15073 -0.08349,-0.0624 -0.128883,-0.0647 -1.412132,-0.0732 l -1.32587,-0.009 V 2.74881 1.99978 H 8.0156252 4.5000002 v 0.74904 0.74903 l -1.3414945,0.009 C 1.8594632,3.51585 1.8142818,3.51765 1.7307492,3.58005 1.6833052,3.61545 1.6154929,3.68331 1.580056,3.73078 1.515968,3.81658 1.515625,3.83401 1.515625,6.99999 c 0,3.16598 3.428e-4,3.18338 0.064431,3.26922 0.035437,0.0475 0.1032429,0.11529 0.1506798,0.15072 0.082676,0.0618 0.1314639,0.0648 1.1777567,0.0734 l 1.0915076,0.009 v 2.24884 2.24885 H 8.0000002 12 Z"
       id="path831"
       inkscape:connector-curvature="0" />
    <path
       style="fill:#fefefe;stroke-width:0.0003125"
       d="m 4.0000001,12.75348 v -2.24652 l 0.1084551,-0.0204 c 0.1361194,-0.0255 0.2932559,-0.15561 0.348919,-0.28883 0.032224,-0.0771 0.042626,-0.29672 0.042626,-0.8999 V 8.49995 h 3.5 H 11.5 v 0.79788 c 0,0.60318 0.0104,0.82277 0.04263,0.8999 0.05566,0.13322 0.2128,0.26329 0.348919,0.28883 L 12,10.50696 V 12.75348 15 H 8.0000002 4.0000001 Z M 11,11.5 V 9 h -2.9999998 -3 v 2.5 2.5 h 3 H 11 Z M 4.5000002,3 V 2 H 8.0156252 11.53125 V 3 4 H 8.0156252 4.5000002 Z"
       id="path829"
       inkscape:connector-curvature="0" />
    <path
       style="fill:#98cbfe;stroke-width:0.0003125"
       d="M 5.0000002,11.5 V 9 h 3 H 11 v 2.5 2.5 h -2.9999998 -3 z"
       id="path827"
       inkscape:connector-curvature="0" />
    <path
       style="fill:#98fe32;stroke-width:0.0003125"
       d="m 10.676945,6.95313 c -0.277736,-0.10539 -0.537826,-0.3826 -0.613902,-0.65432 -0.05611,-0.20041 -0.02942,-0.5336 0.05698,-0.71115 0.09084,-0.18668 0.27979,-0.37599 0.467642,-0.46852 0.211209,-0.10403 0.644719,-0.10403 0.855929,0 0.187258,0.0922 0.376283,0.28126 0.468519,0.46852 0.104034,0.21121 0.104034,0.64472 0,0.85593 -0.09234,0.18747 -0.281471,0.37647 -0.468519,0.4682 -0.183057,0.0898 -0.582284,0.1113 -0.766645,0.0413 z"
       id="path825"
       inkscape:connector-curvature="0" />
    <path
       style="fill:#989898;stroke-width:0.0003125"
       d="M 2.7800009,7.42804 C 2.6869909,7.37884 2.6211457,7.31301 2.5719607,7.22 2.5008457,7.08552 2.4999997,7.07119 2.4999997,6 c 0,-1.07119 8.461e-4,-1.08552 0.071961,-1.22 0.049185,-0.093 0.1150298,-0.15885 0.2080402,-0.20804 l 0.1360795,-0.072 H 8.0156252 13.11517 l 0.13608,0.072 c 0.154321,0.0816 0.28,0.28075 0.28,0.44367 0,0.16291 -0.125679,0.36205 -0.28,0.44366 -0.11768,0.0622 -0.181567,0.072 -0.472491,0.072 H 12.442347 L 12.406337,5.42218 C 12.303429,5.11037 11.885094,4.7182 11.52603,4.59695 c -0.271948,-0.0918 -0.748863,-0.0918 -1.020811,0 C 10.146155,4.7182 9.7278194,5.11037 9.6249121,5.42218 l -0.03601,0.10911 H 6.5600768 3.5312501 v 0.77634 c 0,0.75012 -0.00243,0.78092 -0.071961,0.91241 -0.081607,0.15432 -0.2807478,0.28 -0.4436644,0.28 -0.05475,0 -0.1607806,-0.0324 -0.2356238,-0.072 z"
       id="path823"
       inkscape:connector-curvature="0" />
    <path
       style="fill:#656565;stroke-width:0.0003125"
       d="M 2.0000001,7 V 4 H 8.0000002 14 v 3 3 H 13.000001 12 V 9 8 H 8.0000002 4.0000001 v 1 1 H 3 2.0000001 Z M 3.2512495,7.42804 C 3.3442595,7.37884 3.4101045,7.31301 3.4592895,7.22 3.5288205,7.08851 3.5312505,7.05771 3.5312505,6.30759 V 5.53125 h 3.0304767 3.0304767 l -0.030477,0.0802 c -0.057909,0.15231 -0.036784,0.70153 0.035179,0.91462 0.1342336,0.39749 0.5108251,0.77408 0.9083141,0.90831 0.271948,0.0918 0.748863,0.0918 1.020811,0 0.397488,-0.13423 0.77408,-0.51082 0.908314,-0.90831 0.07196,-0.21309 0.09309,-0.76231 0.03518,-0.91462 l -0.03048,-0.0802 h 0.338062 c 0.292646,0 0.356342,-0.01 0.474141,-0.072 0.154321,-0.0816 0.28,-0.28075 0.28,-0.44366 0,-0.16292 -0.125679,-0.36206 -0.28,-0.44367 l -0.13608,-0.072 H 8.0156252 2.9160804 l -0.1360795,0.072 c -0.09301,0.0492 -0.1588552,0.11503 -0.2080402,0.20804 -0.071115,0.13448 -0.071961,0.14881 -0.071961,1.22 0,1.07119 8.461e-4,1.08552 0.071961,1.22 0.081607,0.15432 0.2807477,0.28 0.4436644,0.28 0.05475,0 0.1607805,-0.0324 0.2356244,-0.072 z"
       id="path821"
       inkscape:connector-curvature="0" />
    <path
       style="fill:#323232;stroke-width:0.0003125"
       d="M 1.7953258,10.45663 C 1.6692834,10.40093 1.5381278,10.24134 1.51565,10.11627 1.5057,10.06087 1.501627,8.62095 1.50659,6.91635 1.51555,3.84189 1.51614,3.81638 1.580052,3.73078 1.615489,3.68328 1.6833009,3.61549 1.7307452,3.58006 c 0.083533,-0.0624 0.128714,-0.0647 1.4277565,-0.0732 l 1.3414945,-0.009 v 0.25097 0.25096 h -1.2500001 -1.25 v 3 3 H 3 4.0000001 v -1 -1 H 8.0000002 12 v 1 1 H 13.000001 14 v -3 -3 H 12.765626 11.53125 V 3.74882 3.49784 l 1.32587,0.009 c 1.283249,0.009 1.328643,0.0109 1.412132,0.0732 0.04744,0.0354 0.115256,0.10326 0.150693,0.15073 0.06409,0.0858 0.06443,0.10323 0.06443,3.26921 0,3.16598 -3.44e-4,3.18338 -0.06443,3.26922 -0.03544,0.0475 -0.103266,0.11529 -0.15073,0.15072 -0.0836,0.0624 -0.123218,0.0644 -1.269214,0.0644 -1.145997,0 -1.185611,-0.002 -1.269216,-0.0644 -0.04746,-0.0354 -0.115292,-0.10323 -0.150729,-0.15065 -0.06075,-0.0813 -0.06496,-0.13436 -0.07368,-0.92776 l -0.0092,-0.84153 H 8.0000002 4.5028695 l -0.00925,0.84153 c -0.00872,0.7934 -0.012932,0.84646 -0.073678,0.92776 -0.035437,0.0474 -0.1032448,0.11522 -0.1506839,0.15065 -0.083006,0.062 -0.1294059,0.0647 -1.2324441,0.0716 -0.9053213,0.006 -1.1662182,-0.002 -1.2414905,-0.0349 z M 10.47702,7.42435 C 10.0837,7.27821 9.7284806,6.91565 9.596906,6.52603 c -0.091838,-0.27195 -0.091838,-0.74886 0,-1.02081 0.1342336,-0.39749 0.510825,-0.77408 0.908314,-0.90831 0.271948,-0.0918 0.748863,-0.0918 1.020811,0 0.397488,0.13423 0.77408,0.51082 0.908314,0.90831 0.09184,0.27195 0.09184,0.74886 0,1.02081 -0.134234,0.39749 -0.510826,0.77408 -0.908314,0.90831 -0.282074,0.0953 -0.77845,0.0905 -1.049011,-0.01 z m 0.96657,-0.51256 c 0.187048,-0.0917 0.376177,-0.28073 0.468519,-0.4682 0.104034,-0.21121 0.104034,-0.64472 0,-0.85593 -0.09224,-0.18726 -0.281261,-0.37628 -0.468519,-0.46852 -0.21121,-0.10403 -0.64472,-0.10403 -0.855929,0 -0.187852,0.0925 -0.376806,0.28184 -0.467642,0.46852 -0.08639,0.17755 -0.113089,0.51074 -0.05698,0.71115 0.07608,0.27172 0.336166,0.54893 0.613902,0.65432 0.184361,0.07 0.583588,0.0484 0.766645,-0.0413 z"
       id="path819"
       inkscape:connector-curvature="0" />
  </g>
</svg>
