<?xml version="1.0" encoding="UTF-8" standalone="no"?>
<!-- Created with Inkscape (http://www.inkscape.org/) -->

<svg
   version="1.1"
   id="svg2"
   width="1600"
   height="1600"
   viewBox="0 0 1600 1600"
   sodipodi:docname="overlap.svg"
   inkscape:version="1.2.2 (732a01da63, 2022-12-09)"
   xmlns:inkscape="http://www.inkscape.org/namespaces/inkscape"
   xmlns:sodipodi="http://sodipodi.sourceforge.net/DTD/sodipodi-0.dtd"
   xmlns="http://www.w3.org/2000/svg"
   xmlns:svg="http://www.w3.org/2000/svg"
   xmlns:rdf="http://www.w3.org/1999/02/22-rdf-syntax-ns#"
   xmlns:cc="http://creativecommons.org/ns#"
   xmlns:dc="http://purl.org/dc/elements/1.1/">
  <metadata
     id="metadata8">
    <rdf:RDF>
      <cc:Work
         rdf:about="">
        <dc:format>image/svg+xml</dc:format>
        <dc:type
           rdf:resource="http://purl.org/dc/dcmitype/StillImage" />
      </cc:Work>
    </rdf:RDF>
  </metadata>
  <defs
     id="defs6" />
  <sodipodi:namedview
     pagecolor="#808080"
     bordercolor="#666666"
     borderopacity="1"
     objecttolerance="10"
     gridtolerance="10"
     guidetolerance="10"
     inkscape:pageopacity="0"
     inkscape:pageshadow="2"
     inkscape:window-width="1993"
     inkscape:window-height="1009"
     id="namedview4"
     showgrid="false"
     inkscape:zoom="0.5"
     inkscape:cx="171"
     inkscape:cy="14"
     inkscape:window-x="-8"
     inkscape:window-y="-8"
     inkscape:window-maximized="1"
     inkscape:current-layer="OVERLAP"
     inkscape:showpageshadow="0"
     inkscape:pagecheckerboard="true"
     inkscape:deskcolor="#d1d1d1" />
  <g
     id="OVERLAP"
     transform="matrix(100,0,0,100,0,4.9999997e-5)"
     style="stroke-width:0.0114286">
    <path
       style="fill:none;stroke-width:0.000357143"
       d="M 0,8 V 0 h 8 8 v 8 8 H 8 0 Z m 15,2 V 5 H 13 11 V 3 1 H 6 1 v 5 5 h 2 2 v 2 2 h 5 5 z"
       id="path829"
       inkscape:connector-curvature="0" />
    <path
       style="fill:#fefefe;stroke-width:0.000357143"
       d="M 5.5,12.75 V 11 H 8.25 11 V 8.25 5.5 h 1.75 1.75 V 10 14.5 H 10 5.5 Z"
       id="path827"
       inkscape:connector-curvature="0" />
    <path
       style="fill:#98cbfe;stroke-width:0.000357143"
       d="M 1.5,6 V 1.5 H 6 10.5 V 3.25 5 H 7.75 5 V 7.75 10.5 H 3.25 1.5 Z"
       id="path825"
       inkscape:connector-curvature="0" />
    <path
       style="fill:#fecb32;stroke-width:0.000357143"
       d="M 5.5,8 V 5.5 H 8 10.5 V 8 10.5 H 8 5.5 Z"
       id="path823"
       inkscape:connector-curvature="0" />
    <path
       style="fill:#989898;stroke-width:0.000357143"
       d="M 5.5,10.75 V 10.5 H 8 10.5 V 8 5.5 H 10.75 11 V 8.25 11 H 8.25 5.5 Z"
       id="path821"
       inkscape:connector-curvature="0" />
    <path
       style="fill:#000000;stroke-width:0.000357143"
       d="M 5,13 V 11 H 3 1 V 6 1 h 5 5 v 2 2 h 2 2 v 5 5 H 10 5 Z m 9.5,-3 V 5.5 H 10 5.5 V 10 14.5 H 10 14.5 Z M 5,7.75 V 5 H 7.75 10.5 V 3.25 1.5 H 6 1.5 V 6 10.5 H 3.25 5 Z"
       id="path819"
       inkscape:connector-curvature="0" />
  </g>
</svg>
