<?xml version="1.0" encoding="UTF-8" standalone="no"?>
<!-- Created with Inkscape (http://www.inkscape.org/) -->

<svg
   version="1.1"
   id="svg2"
   width="1600"
   height="1600"
   viewBox="0 0 1600.0001 1600"
   sodipodi:docname="paint_draw_poly.svg"
   inkscape:version="1.4.3 (0d15f75, 2025-12-25)"
   xml:space="preserve"
   xmlns:inkscape="http://www.inkscape.org/namespaces/inkscape"
   xmlns:sodipodi="http://sodipodi.sourceforge.net/DTD/sodipodi-0.dtd"
   xmlns="http://www.w3.org/2000/svg"
   xmlns:svg="http://www.w3.org/2000/svg"
   xmlns:rdf="http://www.w3.org/1999/02/22-rdf-syntax-ns#"
   xmlns:cc="http://creativecommons.org/ns#"
   xmlns:dc="http://purl.org/dc/elements/1.1/"><metadata
     id="metadata8"><rdf:RDF><cc:Work
         rdf:about=""><dc:format>image/svg+xml</dc:format><dc:type
           rdf:resource="http://purl.org/dc/dcmitype/StillImage" /></cc:Work></rdf:RDF></metadata><defs
     id="defs6" /><sodipodi:namedview
     pagecolor="#808080"
     bordercolor="#666666"
     borderopacity="1"
     objecttolerance="10"
     gridtolerance="10"
     guidetolerance="10"
     inkscape:pageopacity="0"
     inkscape:pageshadow="2"
     inkscape:window-width="2560"
     inkscape:window-height="1009"
     id="namedview4"
     showgrid="false"
     inkscape:zoom="0.45254834"
     inkscape:cx="706.00193"
     inkscape:cy="857.36697"
     inkscape:window-x="1912"
     inkscape:window-y="-8"
     inkscape:window-maximized="1"
     inkscape:current-layer="PAINT_DRAW"
     inkscape:showpageshadow="0"
     inkscape:pagecheckerboard="true"
     inkscape:deskcolor="#d1d1d1"
     inkscape:document-units="cm" /><g
     id="PAINT_DRAW"
     transform="matrix(100,0,0,100,0,4.9999997e-5)"
     style="stroke-width:0.354331"><path
       style="baseline-shift:baseline;display:inline;overflow:visible;opacity:1;vector-effect:none;fill:#cbfefe;stroke-linecap:round;stroke-linejoin:round;paint-order:markers stroke fill;enable-background:accumulate;stop-color:#000000;stop-opacity:1"
       d="m 7.322754,11.376924 -6.0585936,2.34375 a 1,1 0 0 0 -0.57226568,1.294922 1,1 0 0 0 1.29492178,0.572266 l 5.40625,-2.091797 1.7304688,1.974609 a 1.0001,1.0001 0 0 0 1.1308607,0.265625 l 4.499999,-1.84375 A 1,1 0 0 0 15.30127,12.587862 1,1 0 0 0 13.996583,12.040987 L 10.15674,13.615205 8.4360353,11.650362 A 1.0001,1.0001 0 0 0 7.322754,11.376924 Z"
       id="path1"
       inkscape:label="Line Draw" /><g
       id="g4"
       transform="matrix(1.385057,0,0,1.385057,31.307328,1.0815304)"
       inkscape:label="Pen"><path
         style="stroke-width:0.354331;opacity:1;baseline-shift:baseline;display:inline;overflow:visible;vector-effect:none;fill:#1a1a1a;stroke-linecap:round;stroke-linejoin:round;paint-order:markers stroke fill;enable-background:accumulate;stop-color:#000000;stop-opacity:1"
         d="m -19.033203,-9.53125 c -0.137931,0 -0.265628,0.0158 -0.402344,0.070312 -0.06836,0.027256 -0.141,0.063392 -0.222656,0.140625 -0.08166,0.077233 -0.179688,0.2250688 -0.179688,0.4101562 v 1.1933594 c 0,0.1850875 0.09803,0.3329233 0.179688,0.4101563 0.08166,0.077233 0.154298,0.1133688 0.222656,0.140625 0.136716,0.054512 0.264413,0.070312 0.402344,0.070312 h 9.048828 c 0.1379304,0 0.2636746,-0.0158 0.4003906,-0.070312 0.068358,-0.027256 0.1429536,-0.063392 0.2246094,-0.140625 0.081656,-0.077233 0.1796875,-0.2250688 0.1796875,-0.4101563 v -1.1933594 c 0,-0.1850874 -0.098032,-0.3329232 -0.1796875,-0.4101562 -0.081656,-0.077233 -0.1562514,-0.1133688 -0.2246094,-0.140625 -0.136716,-0.054512 -0.2624602,-0.070312 -0.4003906,-0.070312 z m 0.195312,1 h 8.658203 v 0.4355469 h -8.658203 z"
         id="path7"
         transform="rotate(-45)" /><path
         style="stroke-width:0.354331;opacity:1;baseline-shift:baseline;display:inline;overflow:visible;vector-effect:none;fill:#1a1a1a;stroke-linecap:round;stroke-linejoin:round;paint-order:markers stroke fill;enable-background:accumulate;stop-color:#000000;stop-opacity:1"
         d="m -19.033753,-9.031352 h 9.0492244 c 0.1688619,0 0.3048049,0.054204 0.3048049,0.1215339 v 1.1932431 c 0,0.06733 -0.135943,0.121534 -0.3048049,0.121534 h -9.0492244 c -0.168862,0 -0.304805,-0.054204 -0.304805,-0.121534 v -1.1932431 c 0,-0.06733 0.135943,-0.1215339 0.304805,-0.1215339 z"
         id="path8"
         transform="rotate(-45)" /><path
         id="rect1-4"
         style="stroke-width:1;fill:#1a1a1a;stroke:#1a1a1a;stroke-linecap:round;stroke-linejoin:round;paint-order:markers stroke fill"
         transform="rotate(-45)"
         d="m -11.914164,-9.2345953 h 1.933963 c 0.1688618,0 0.3048048,0.054204 0.3048048,0.121534 v 1.193243 c 0,0.06733 -0.135943,0.121534 -0.3048048,0.121534 h -1.933963 c -0.168861,0 -0.304804,-0.054204 -0.304804,-0.121534 v -1.193243 c 0,-0.06733 0.135943,-0.121534 0.304804,-0.121534 z" /><path
         style="stroke-width:0.354331;opacity:1;baseline-shift:baseline;display:inline;overflow:visible;vector-effect:none;fill:#1a1a1a;stroke-linecap:round;stroke-linejoin:round;paint-order:markers stroke fill;enable-background:accumulate;stop-color:#000000;stop-opacity:1"
         d="m -19.673828,6.2949219 c -0.05318,0.012459 -0.0812,0.02903 -0.107422,0.044922 -0.05245,0.031784 -0.09248,0.065942 -0.138672,0.1074219 -0.09239,0.082959 -0.198478,0.193775 -0.304687,0.3125 -0.106209,0.1187251 -0.211612,0.2447616 -0.300782,0.359375 -0.08917,0.1146134 -0.15672,0.2050832 -0.205078,0.3027344 l -0.705078,1.4238281 c -0.0053,0.010726 -0.0099,0.021822 -0.01367,0.033203 l -0.15039,0.4648437 c -0.02496,0.053166 -0.07831,0.1121133 -0.140625,0.1835938 -0.03174,0.036403 -0.06907,0.071767 -0.103516,0.1503906 -0.01722,0.039312 -0.03336,0.095516 -0.02539,0.1640625 0.008,0.068547 0.04642,0.1382216 0.08789,0.1796871 0.04314,0.04314 0.119232,0.08399 0.193359,0.08789 0.07413,0.0039 0.130982,-0.02091 0.167969,-0.04102 0.07398,-0.04022 0.102367,-0.07484 0.134766,-0.1054684 0.0648,-0.061257 0.116767,-0.10198 0.154297,-0.1132812 L -20.644529,9.70312 c 0.01205,-0.00367 0.0238,-0.00824 0.03516,-0.013672 l 1.429688,-0.6738281 c 0.117784,-0.05041 0.205374,-0.1211626 0.320312,-0.2148437 0.114938,-0.093681 0.240682,-0.2078189 0.357422,-0.3203125 0.116739,-0.1124937 0.222231,-0.2228577 0.302734,-0.3203125 0.04025,-0.048728 0.07374,-0.09101 0.103516,-0.1445313 0.01489,-0.02676 0.03215,-0.055717 0.04297,-0.1074219 0.01082,-0.051705 0.01282,-0.1649152 -0.07227,-0.25 l -1.294922,-1.2929687 c -0.08357,-0.083565 -0.200728,-0.082772 -0.253906,-0.070312 z"
         id="path5"
         sodipodi:nodetypes="cccssccccccccsccccccssccscccc" /><path
         style="stroke-width:0.354331;opacity:1;baseline-shift:baseline;display:inline;overflow:visible;vector-effect:none;fill:#1a1a1a;stroke-linecap:round;stroke-linejoin:round;paint-order:markers stroke fill;enable-background:accumulate;stop-color:#000000;stop-opacity:1"
         d="m -21.370245,9.4420557 0.158057,-0.4859979 0.704933,-1.4234986 c 0.111073,-0.2242971 0.83795,-1.0641045 0.910986,-0.9910682 l 1.294379,1.2943784 c 0.07304,0.073037 -0.745339,0.8515687 -0.975443,0.9500496 l -1.439124,0.6775877 -0.485998,0.146339 c -0.21848,0.06579 -0.324552,0.311881 -0.402113,0.23432 -0.07756,-0.07756 0.140354,-0.19419 0.234323,-0.40211 z"
         id="path6" /><path
         style="stroke-width:0.354331;opacity:1;baseline-shift:baseline;display:inline;overflow:visible;vector-effect:none;fill:#1a1a1a;stroke-linecap:round;stroke-linejoin:round;paint-order:markers stroke fill;enable-background:accumulate;stop-color:#000000;stop-opacity:1;fill-opacity:1"
         d="m -14.115234,-10.402344 c -0.170365,0 -0.289063,0.147817 -0.289063,0.292969 l 0,0.1328125 c 0,0.1451523 0.03127,0.4874221 0.201634,0.4875681 l 3.2901,0.00282 c 0.170364,1.46e-4 0.227016,-0.3452361 0.227016,-0.4903884 l 0,-0.1328125 c 0,-0.145152 -0.118698,-0.292969 -0.289062,-0.292969 z"
         id="path9"
         sodipodi:nodetypes="sssssssss"
         transform="rotate(-45)" /><path
         style="stroke-width:0.354331;opacity:1;baseline-shift:baseline;display:inline;overflow:visible;vector-effect:none;fill:#d59715;fill-opacity:1;stroke-linecap:round;stroke-linejoin:round;paint-order:markers stroke fill;enable-background:accumulate;stop-color:#000000;stop-opacity:1"
         d="m -14.114785,-10.151972 h 3.14039 c 0.02171,0 0.03853,0.01937 0.03918,0.04341 l 0.01128,0.419601 c 6.46e-4,0.024039 -0.01747,0.043409 -0.03918,0.043409 h -3.14039 c -0.02171,0 -0.03853,-0.019369 -0.03918,-0.043409 l -0.01128,-0.419601 c -6.46e-4,-0.02404 0.01747,-0.04341 0.03918,-0.04341 z"
         id="path10"
         sodipodi:nodetypes="sssssssss"
         transform="rotate(-45)" /><path
         style="stroke-width:0.354331;opacity:1;baseline-shift:baseline;display:inline;overflow:visible;vector-effect:none;fill:#979797;stroke-linecap:round;stroke-linejoin:round;paint-order:markers stroke fill;enable-background:accumulate;stop-color:#000000;stop-opacity:1;fill-opacity:1"
         d="m -19.291016,5.5605469 -1.130862,0.4843752 c -0.07771,0.016961 -0.147139,0.059887 -0.21055,0.1043684 -0.06564,0.063337 -0.0946,0.1671262 -0.06459,0.2554156 0.02208,0.077409 0.08609,0.1326244 0.154707,0.1673911 0.03484,0.033086 0.08745,0.041621 0.130481,0.063206 0.377403,0.1548175 0.754493,0.3104274 1.132092,0.4647498 0.164181,0.056145 0.366594,-0.075221 0.365273,-0.2531654 -8.3e-5,-0.3505965 0.0015,-0.7012701 -8.1e-4,-1.0518284 -0.0075,-0.1783664 -0.214499,-0.2993101 -0.375744,-0.2345125 z"
         id="path3"
         sodipodi:nodetypes="cccccccccsc"
         transform="rotate(-45,-17.21431,8.4445987)" /><path
         style="stroke-width:0.354331;opacity:1;baseline-shift:baseline;display:inline;overflow:visible;vector-effect:none;fill:#d6d6d6;fill-opacity:1;stroke-linecap:round;stroke-linejoin:round;paint-order:markers stroke fill;enable-background:accumulate;stop-color:#000000"
         d="m -19.291016,5.5605469 -1.130862,0.4843752 c -0.07771,0.016961 -0.147139,0.059887 -0.21055,0.1043684 -0.06564,0.063337 -0.0946,0.1671262 -0.06459,0.2554156 0.336491,-0.3018418 1.340012,-0.5765438 1.781743,-0.6096469 -0.0075,-0.1783664 -0.214499,-0.2993101 -0.375744,-0.2345125 z"
         id="path3-1"
         sodipodi:nodetypes="cccccsc"
         transform="rotate(-45,-17.21431,8.4445987)" /><path
         style="stroke-width:0.354331;fill:#1562d4;stroke:none;fill-opacity:1"
         d="m -15.029018,1.9545245 c -0.144099,0.028306 -0.282232,0.2479739 -0.379296,0.3450384 l -0.894724,0.8947234 -2.856836,2.8568366 -0.81624,0.8162395 c -0.0998,0.099804 -0.294107,0.2227535 -0.338993,0.362861 -0.03466,0.1081937 0.153974,0.2526579 0.226181,0.3248655 l 0.760373,0.7603728 c 0.07093,0.070934 0.187562,0.2315861 0.291341,0.2319018 0.150158,4.65e-4 0.291057,-0.220838 0.382119,-0.3118999 l 0.926117,-0.9261175 c 0.934106,-0.9341058 1.877008,-1.8584612 2.811171,-2.7926249 l 0.831936,-0.8319359 c 0.10978,-0.1097797 0.297369,-0.2312416 0.359063,-0.3781946 0.04931,-0.1174427 -0.116141,-0.2422043 -0.196307,-0.3223849 l -0.778919,-0.7789183 c -0.07019,-0.070181 -0.221969,-0.2713962 -0.32698,-0.2507687 z"
         id="path2" /><path
         style="stroke-width:0.354331;fill:#1597d5;fill-opacity:1;stroke:none"
         d="m -15.038002,1.9403529 c -0.106514,0.065892 -0.271121,0.2590853 -0.368185,0.3561499 l -0.894724,0.8947234 -2.856836,2.8568365 -0.81624,0.8162396 c -0.0998,0.099804 -0.270947,0.245914 -0.346741,0.3551132 -0.05853,0.084325 0.02199,0.1206701 0.04732,0.1460014 l 0.26676,0.2667607 c 0.02489,0.024884 0.05151,0.095535 0.121503,0.062063 0.101267,-0.048426 0.268264,-0.2436301 0.359326,-0.334692 l 0.926117,-0.9261176 c 0.934106,-0.9341057 1.870987,-1.8644814 2.805151,-2.7986452 L -14.962615,2.80285 c 0.10978,-0.1097798 0.275904,-0.2527066 0.36527,-0.3719877 0.07142,-0.095326 1.74e-4,-0.1258891 -0.02795,-0.1540228 l -0.273254,-0.2732547 c -0.02462,-0.024619 -0.06183,-0.1112549 -0.13945,-0.063237 z"
         id="path2-2" /><path
         style="stroke-width:0.354331;opacity:1;fill:#d50000;fill-opacity:1;baseline-shift:baseline;display:inline;overflow:visible;vector-effect:none;stroke-linecap:round;stroke-linejoin:round;paint-order:markers stroke fill;enable-background:accumulate;stop-color:#000000;stop-opacity:1"
         d="m -11.34375,-9.3574219 c -0.170336,0 -0.289063,0.1498006 -0.289063,0.2949219 l 0,1.3339844 c 0,0.1451905 0.118669,0.2929687 0.289063,0.2929687 h 1.515625 c 0.1703592,0 0.2890625,-0.1478197 0.2890625,-0.2929687 l 0,-1.3339844 c 0,-0.145149 -0.1187033,-0.2949219 -0.2890625,-0.2949219 z"
         id="path4"
         sodipodi:nodetypes="sssssssss"
         transform="rotate(-45)" /><path
         id="rect2-2"
         style="stroke-width:0.5;fill:#ec575d;fill-opacity:1;stroke:none;stroke-linecap:round;stroke-linejoin:round;stroke-opacity:1;paint-order:markers stroke fill"
         d="m -14.63774,1.756972 1.424523,-1.41056374 c 0.01535,-0.0153485 0.04139,-0.0140149 0.0584,0.00299 l 0.222036,0.2220361 c 0.017,0.017005 0.01834,0.043051 0.003,0.058399 l -1.424523,1.41056374 c -0.01534,0.015344 -0.04139,0.014015 -0.0584,-0.00299 L -14.63474,1.815371 c -0.017,-0.017005 -0.01834,-0.043048 -0.003,-0.058399 z"
         sodipodi:nodetypes="ccccccccc" /></g></g></svg>
