<?xml version="1.0" encoding="UTF-8" standalone="no"?>
<!-- Created with Inkscape (http://www.inkscape.org/) -->

<svg
   version="1.1"
   id="svg2"
   width="1600"
   height="1600"
   viewBox="0 0 1600 1600"
   sodipodi:docname="paint_average.svg"
   inkscape:version="1.2.2 (732a01da63, 2022-12-09)"
   xmlns:inkscape="http://www.inkscape.org/namespaces/inkscape"
   xmlns:sodipodi="http://sodipodi.sourceforge.net/DTD/sodipodi-0.dtd"
   xmlns="http://www.w3.org/2000/svg"
   xmlns:svg="http://www.w3.org/2000/svg"
   xmlns:rdf="http://www.w3.org/1999/02/22-rdf-syntax-ns#"
   xmlns:cc="http://creativecommons.org/ns#"
   xmlns:dc="http://purl.org/dc/elements/1.1/">
  <metadata
     id="metadata8">
    <rdf:RDF>
      <cc:Work
         rdf:about="">
        <dc:format>image/svg+xml</dc:format>
        <dc:type
           rdf:resource="http://purl.org/dc/dcmitype/StillImage" />
      </cc:Work>
    </rdf:RDF>
  </metadata>
  <defs
     id="defs6" />
  <sodipodi:namedview
     pagecolor="#808080"
     bordercolor="#666666"
     borderopacity="1"
     objecttolerance="10"
     gridtolerance="10"
     guidetolerance="10"
     inkscape:pageopacity="0"
     inkscape:pageshadow="2"
     inkscape:window-width="1993"
     inkscape:window-height="1009"
     id="namedview4"
     showgrid="false"
     inkscape:zoom="0.5"
     inkscape:cx="173"
     inkscape:cy="40"
     inkscape:window-x="-8"
     inkscape:window-y="-8"
     inkscape:window-maximized="1"
     inkscape:current-layer="PAINT_AVERAGE"
     inkscape:showpageshadow="0"
     inkscape:pagecheckerboard="true"
     inkscape:deskcolor="#d1d1d1" />
  <g
     id="PAINT_AVERAGE"
     transform="matrix(100,0,0,100,0,4.9999997e-5)"
     style="stroke-width:0.0114286">
    <path
       style="fill:none;stroke-width:0.000357143"
       d="M 0,8 V 0 h 8 8 v 8 8 H 8 0 Z m 2.421875,6.903763 c 0.1976815,-0.09381 0.3858783,-0.281047 0.4843511,-0.481888 0.1099947,-0.22434 0.1099947,-0.61941 0,-0.84375 -0.097681,-0.199226 -0.2851253,-0.38667 -0.4843511,-0.484351 -0.22434,-0.109995 -0.61941,-0.109995 -0.84375,0 -0.81232581,0.398286 -0.74460781,1.545634 0.1095434,1.855996 0.1972152,0.07166 0.5302201,0.05079 0.7342066,-0.04601 z m 4,0 c 0.1976816,-0.09381 0.3858784,-0.281047 0.4843512,-0.481888 0.1099947,-0.22434 0.1099947,-0.61941 0,-0.84375 -0.097681,-0.199226 -0.2851253,-0.38667 -0.4843512,-0.484351 -0.22434,-0.109995 -0.61941,-0.109995 -0.84375,0 -0.8123259,0.398286 -0.7446078,1.545634 0.1095434,1.855996 0.197215,0.07166 0.53022,0.05079 0.7342066,-0.04601 z m 4,0 c 0.197682,-0.09381 0.385878,-0.281047 0.484351,-0.481888 0.109995,-0.22434 0.109995,-0.61941 0,-0.84375 -0.09768,-0.199226 -0.285125,-0.38667 -0.484351,-0.484351 -0.22434,-0.109995 -0.61941,-0.109995 -0.84375,0 -0.8123259,0.398286 -0.7446078,1.545634 0.1095434,1.855996 0.197215,0.07166 0.5302196,0.05079 0.7342066,-0.04601 z m 4,0 c 0.197682,-0.09381 0.385878,-0.281047 0.484351,-0.481888 0.109995,-0.22434 0.109995,-0.61941 0,-0.84375 -0.09768,-0.199226 -0.285125,-0.38667 -0.484351,-0.484351 -0.22434,-0.109995 -0.61941,-0.109995 -0.84375,0 -0.812326,0.398286 -0.744608,1.545634 0.109543,1.855996 0.197215,0.07166 0.53022,0.05079 0.734207,-0.04601 z M 8.84375,11.909555 c 1.566277,-0.35707 2.740901,-1.549642 3.081225,-3.128305 0.08007,-0.371415 0.08007,-1.191085 0,-1.5625 C 11.58015,5.61921 10.38079,4.41985 8.78125,4.0750253 c -0.371415,-0.080069 -1.191085,-0.080069 -1.5625,0 C 5.61921,4.41985 4.41985,5.61921 4.0750253,7.21875 c -0.080069,0.371415 -0.080069,1.191085 0,1.5625 0.3033266,1.407042 1.2760194,2.521326 2.6124747,2.992763 0.2456016,0.08664 0.6112716,0.172937 0.875,0.206508 0.2464716,0.03137 1.0203631,-0.01149 1.28125,-0.07097 z M 2.421875,10.903763 c 0.1976815,-0.09381 0.3858783,-0.281047 0.4843511,-0.481888 0.1099947,-0.22434 0.1099947,-0.61941 0,-0.84375 C 2.808545,9.3788991 2.6211008,9.191455 2.421875,9.0937738 c -0.22434,-0.1099947 -0.61941,-0.1099947 -0.84375,0 C 0.76579919,9.49206 0.83351719,10.639408 1.6876684,10.94977 1.8848836,11.02143 2.2178885,11.00056 2.421875,10.90376 Z m 12,0 c 0.197682,-0.09381 0.385878,-0.281047 0.484351,-0.481888 0.109995,-0.22434 0.109995,-0.61941 0,-0.84375 -0.09768,-0.1992259 -0.285125,-0.38667 -0.484351,-0.4843512 -0.22434,-0.1099947 -0.61941,-0.1099947 -0.84375,0 -0.812326,0.3982862 -0.744608,1.5456342 0.109543,1.8559962 0.197215,0.07166 0.53022,0.05079 0.734207,-0.04601 z m -12,-3.9999999 C 2.6195565,6.8099553 2.8077533,6.6227156 2.9062261,6.421875 c 0.1099947,-0.22434 0.1099947,-0.61941 0,-0.84375 C 2.808545,5.3788991 2.6211008,5.191455 2.421875,5.0937738 c -0.22434,-0.1099947 -0.61941,-0.1099947 -0.84375,0 C 0.76579919,5.49206 0.83351719,6.6394078 1.6876684,6.94977 1.8848836,7.0214294 2.2178885,7.0005628 2.421875,6.9037631 Z m 12,0 c 0.197682,-0.093808 0.385878,-0.2810475 0.484351,-0.4818881 0.109995,-0.22434 0.109995,-0.61941 0,-0.84375 -0.09768,-0.1992259 -0.285125,-0.38667 -0.484351,-0.4843513 -0.22434,-0.1099946 -0.61941,-0.1099946 -0.84375,0 -0.812326,0.3982863 -0.744608,1.5456341 0.109543,1.8559963 0.197215,0.071659 0.53022,0.050793 0.734207,-0.046007 z m -12,-4.0000001 C 2.6195565,2.809955 2.8077533,2.6227155 2.9062261,2.421875 c 0.1099947,-0.22434 0.1099947,-0.61941 0,-0.84375 C 2.808545,1.3788992 2.6211008,1.191455 2.421875,1.0937739 c -0.22434,-0.10999468 -0.61941,-0.10999468 -0.84375,0 -0.81232581,0.3982862 -0.74460781,1.5456339 0.1095434,1.855996 0.1972152,0.07166 0.5302201,0.050793 0.7342066,-0.046007 z m 4,0 C 6.6195566,2.809955 6.8077534,2.6227155 6.9062262,2.421875 c 0.1099947,-0.22434 0.1099947,-0.61941 0,-0.84375 C 6.808545,1.3788992 6.6211009,1.191455 6.421875,1.0937739 c -0.22434,-0.10999468 -0.61941,-0.10999468 -0.84375,0 -0.8123259,0.3982862 -0.7446078,1.5456339 0.1095434,1.855996 0.197215,0.07166 0.53022,0.050793 0.7342066,-0.046007 z m 4,0 c 0.197682,-0.093808 0.385878,-0.2810475 0.484351,-0.481888 0.109995,-0.22434 0.109995,-0.61941 0,-0.84375 -0.09768,-0.1992258 -0.285125,-0.38667 -0.484351,-0.4843511 -0.22434,-0.10999468 -0.61941,-0.10999468 -0.84375,0 -0.8123259,0.3982862 -0.7446078,1.5456339 0.1095434,1.855996 0.197215,0.07166 0.5302196,0.050793 0.7342066,-0.046007 z m 4,0 c 0.197682,-0.093808 0.385878,-0.2810475 0.484351,-0.481888 0.109995,-0.22434 0.109995,-0.61941 0,-0.84375 -0.09768,-0.1992258 -0.285125,-0.38667 -0.484351,-0.4843511 -0.22434,-0.10999468 -0.61941,-0.10999468 -0.84375,0 -0.812326,0.3982862 -0.744608,1.5456339 0.109543,1.855996 0.197215,0.07166 0.53022,0.050793 0.734207,-0.046007 z"
       id="path821"
       inkscape:connector-curvature="0" />
    <path
       style="fill:#fefefe;stroke-width:0.000357143"
       d="M 1.6876684,14.94977 C 0.97961994,14.692495 0.77288703,13.819372 1.2961294,13.296129 1.5014529,13.090806 1.6872623,13.017164 2,13.017164 c 0.3127377,0 0.4985471,0.07364 0.7038706,0.278965 C 2.9091941,13.501453 2.982836,13.687262 2.982836,14 c 0,0.312738 -0.073642,0.498547 -0.2789654,0.703871 C 2.447107,14.960634 2.009196,15.066599 1.6876684,14.94977 Z m 4,0 C 4.97962,14.692495 4.7728872,13.819372 5.2961294,13.296129 5.5014528,13.090806 5.6872622,13.017164 6,13.017164 c 0.3127378,0 0.4985472,0.07364 0.7038706,0.278965 0.2053235,0.205324 0.2789653,0.391133 0.2789653,0.703871 0,0.312738 -0.073642,0.498547 -0.2789653,0.703871 -0.2567637,0.256763 -0.6946747,0.362728 -1.0162022,0.245899 z m 4,0 C 8.97962,14.692495 8.7728872,13.819372 9.2961294,13.296129 9.5014528,13.090806 9.6872622,13.017164 10,13.017164 c 0.312738,0 0.498547,0.07364 0.703871,0.278965 0.205323,0.205324 0.278965,0.391133 0.278965,0.703871 0,0.312738 -0.07364,0.498547 -0.278965,0.703871 -0.256764,0.256763 -0.694675,0.362728 -1.0162026,0.245899 z m 3.9999996,0 C 12.97962,14.692495 12.772887,13.819372 13.296129,13.296129 13.501453,13.090806 13.687262,13.017164 14,13.017164 c 0.312738,0 0.498547,0.07364 0.703871,0.278965 0.205323,0.205324 0.278965,0.391133 0.278965,0.703871 0,0.312738 -0.07364,0.498547 -0.278965,0.703871 -0.256764,0.256763 -0.694675,0.362728 -1.016203,0.245899 z M 7.5625,11.980521 C 5.8128841,11.757808 4.4464812,10.504325 4.0750253,8.78125 c -0.080069,-0.371415 -0.080069,-1.191085 0,-1.5625 C 4.41985,5.61921 5.61921,4.41985 7.21875,4.0750253 c 0.371415,-0.080069 1.191085,-0.080069 1.5625,0 1.59954,0.3448247 2.7989,1.5441847 3.143725,3.1437247 0.08007,0.371415 0.08007,1.191085 0,1.5625 -0.340324,1.578663 -1.514948,2.771235 -3.081225,3.128305 -0.2608869,0.05948 -1.0347784,0.10234 -1.28125,0.07097 z M 1.6876684,10.94977 C 0.97961994,10.692495 0.77288703,9.8193719 1.2961294,9.2961294 1.5014529,9.0908059 1.6872623,9.0171641 2,9.0171641 c 0.3127377,0 0.4985471,0.073642 0.7038706,0.2789653 C 2.9091941,9.5014528 2.982836,9.6872622 2.982836,10 c 0,0.312738 -0.073642,0.498547 -0.2789654,0.703871 C 2.447107,10.960634 2.009196,11.066599 1.6876684,10.94977 Z m 11.9999996,0 C 12.97962,10.692495 12.772887,9.8193719 13.296129,9.2961294 13.501453,9.0908059 13.687262,9.0171641 14,9.0171641 c 0.312738,0 0.498547,0.073642 0.703871,0.2789653 0.205323,0.2053234 0.278965,0.3911328 0.278965,0.7038706 0,0.312738 -0.07364,0.498547 -0.278965,0.703871 -0.256764,0.256763 -0.694675,0.362728 -1.016203,0.245899 z m -11.9999996,-4 C 0.97961994,6.6924953 0.77288703,5.8193719 1.2961294,5.2961294 1.5014529,5.0908059 1.6872623,5.0171641 2,5.0171641 c 0.3127377,0 0.4985471,0.073642 0.7038706,0.2789653 C 2.9091941,5.5014528 2.982836,5.6872622 2.982836,6 c 0,0.3127378 -0.073642,0.4985472 -0.2789654,0.7038706 C 2.447107,6.9606341 2.009196,7.0665994 1.6876684,6.94977 Z m 11.9999996,0 C 12.97962,6.6924953 12.772887,5.8193719 13.296129,5.2961294 13.501453,5.0908059 13.687262,5.0171641 14,5.0171641 c 0.312738,0 0.498547,0.073642 0.703871,0.2789653 C 14.909194,5.5014528 14.982836,5.6872622 14.982836,6 c 0,0.3127378 -0.07364,0.4985472 -0.278965,0.7038706 C 14.447107,6.9606341 14.009196,7.0665994 13.687668,6.94977 Z M 1.6876684,2.9497699 C 0.97961994,2.6924953 0.77288703,1.8193718 1.2961294,1.2961294 1.5014529,1.0908059 1.6872623,1.017164 2,1.017164 c 0.3127377,0 0.4985471,0.073642 0.7038706,0.2789654 C 2.9091941,1.5014529 2.982836,1.6872623 2.982836,2 c 0,0.3127377 -0.073642,0.4985471 -0.2789654,0.7038706 C 2.447107,2.9606342 2.009196,3.0665993 1.6876684,2.9497699 Z m 4,0 C 4.97962,2.6924953 4.7728872,1.8193718 5.2961294,1.2961294 5.5014528,1.0908059 5.6872622,1.017164 6,1.017164 c 0.3127378,0 0.4985472,0.073642 0.7038706,0.2789654 C 6.9091941,1.5014529 6.9828359,1.6872623 6.9828359,2 c 0,0.3127377 -0.073642,0.4985471 -0.2789653,0.7038706 C 6.4471069,2.9606342 6.0091959,3.0665993 5.6876684,2.9497699 Z m 4,0 C 8.97962,2.6924953 8.7728872,1.8193718 9.2961294,1.2961294 9.5014528,1.0908059 9.6872622,1.017164 10,1.017164 c 0.312738,0 0.498547,0.073642 0.703871,0.2789654 C 10.909194,1.5014529 10.982836,1.6872623 10.982836,2 c 0,0.3127377 -0.07364,0.4985471 -0.278965,0.7038706 -0.256764,0.2567636 -0.694675,0.3627287 -1.0162026,0.2458993 z m 3.9999996,0 C 12.97962,2.6924953 12.772887,1.8193718 13.296129,1.2961294 13.501453,1.0908059 13.687262,1.017164 14,1.017164 c 0.312738,0 0.498547,0.073642 0.703871,0.2789654 C 14.909194,1.5014529 14.982836,1.6872623 14.982836,2 c 0,0.3127377 -0.07364,0.4985471 -0.278965,0.7038706 -0.256764,0.2567636 -0.694675,0.3627287 -1.016203,0.2458993 z"
       id="path819"
       inkscape:connector-curvature="0" />
  </g>
</svg>
