<?xml version="1.0" encoding="UTF-8" standalone="no"?>
<!-- Created with Inkscape (http://www.inkscape.org/) -->

<svg
   version="1.1"
   id="svg2"
   width="1600"
   height="1600"
   viewBox="0 0 1600 1600"
   sodipodi:docname="pan_up.svg"
   inkscape:version="1.2.2 (732a01da63, 2022-12-09)"
   xmlns:inkscape="http://www.inkscape.org/namespaces/inkscape"
   xmlns:sodipodi="http://sodipodi.sourceforge.net/DTD/sodipodi-0.dtd"
   xmlns="http://www.w3.org/2000/svg"
   xmlns:svg="http://www.w3.org/2000/svg"
   xmlns:rdf="http://www.w3.org/1999/02/22-rdf-syntax-ns#"
   xmlns:cc="http://creativecommons.org/ns#"
   xmlns:dc="http://purl.org/dc/elements/1.1/">
  <metadata
     id="metadata8">
    <rdf:RDF>
      <cc:Work
         rdf:about="">
        <dc:format>image/svg+xml</dc:format>
        <dc:type
           rdf:resource="http://purl.org/dc/dcmitype/StillImage" />
      </cc:Work>
    </rdf:RDF>
  </metadata>
  <defs
     id="defs6" />
  <sodipodi:namedview
     pagecolor="#808080"
     bordercolor="#666666"
     borderopacity="1"
     objecttolerance="10"
     gridtolerance="10"
     guidetolerance="10"
     inkscape:pageopacity="0"
     inkscape:pageshadow="2"
     inkscape:window-width="1993"
     inkscape:window-height="1009"
     id="namedview4"
     showgrid="false"
     inkscape:zoom="0.5"
     inkscape:cx="179"
     inkscape:cy="22"
     inkscape:window-x="-8"
     inkscape:window-y="-8"
     inkscape:window-maximized="1"
     inkscape:current-layer="PAN_UP"
     inkscape:showpageshadow="0"
     inkscape:pagecheckerboard="true"
     inkscape:deskcolor="#d1d1d1" />
  <g
     id="PAN_UP"
     transform="matrix(100,0,0,100,0,4.9999997e-5)"
     style="stroke-width:0.0114286">
    <path
       style="fill:none;stroke-width:0.000357143"
       d="M 0,8 V 0 L 3.8828125,0.00149176 C 7.4536303,0.00286366 7.7543391,0.00693216 7.6251684,0.05212479 7.3742422,0.13991578 7.2381341,0.2642991 6.9043653,0.71083441 L 6.5807794,1.1437471 6.2434062,1.227653 C 3.8222163,1.8298119 1.8329784,3.8268309 1.2219136,6.2687884 1.0560565,6.9315919 1.0169904,7.2616262 1.0169904,8 c 0,0.7383738 0.039066,1.0684081 0.2049232,1.7312116 C 1.8362677,12.186314 3.8136863,14.163732 6.2687884,14.778087 6.9315919,14.943943 7.2616263,14.98301 8,14.98301 c 0.7383738,0 1.0684081,-0.03907 1.7312116,-0.204923 C 12.186314,14.163732 14.163732,12.186314 14.778087,9.7312116 14.943943,9.0684081 14.98301,8.7383738 14.98301,8 14.98301,7.2616262 14.94394,6.9315919 14.778087,6.2687884 14.148921,3.754495 12.090947,1.7472466 9.55516,1.1745968 9.4912859,1.1601722 9.3868403,1.0453808 9.14172,0.72020281 8.802665,0.27041031 8.6602063,0.14103481 8.4060816,0.05212479 8.2769053,0.00693012 8.5762041,0.00286372 12.132813,0.00149176 L 16,0 v 8 8 H 8 0 Z"
       id="path827"
       inkscape:connector-curvature="0" />
    <path
       style="fill:#fefefe;stroke-width:0.000357143"
       d="M 7,6.53125 V 5.0625 H 5.984375 C 5.2339675,5.0625 4.96875,5.05302 4.96875,5.026202 4.96875,5.006238 5.6402344,4.0923448 6.4609375,2.9953274 7.7063888,1.3305578 7.9644931,1.0019803 8.0218756,1.0081878 8.073,1.0137182 8.4715956,1.5237236 9.5765631,2.9974196 10.393828,4.0874066 11.0625,4.9979534 11.0625,5.0208572 c 0,0.033849 -0.193002,0.041643 -1.03125,0.041643 H 9 V 6.53125 8 H 8 7 Z"
       id="path825"
       inkscape:connector-curvature="0" />
    <path
       style="fill:#98cbfe;stroke-width:0.000357143"
       d="M 7.34375,13.964919 C 5.8109619,13.788519 4.3899206,13.027586 3.4116531,11.859375 1.44063,9.5056522 1.5509851,6.0890356 3.6704481,3.8470244 4.0839631,3.4095997 4.7151934,2.9414742 5.2642122,2.6650758 L 5.5440497,2.5241944 5.4645256,2.6292847 C 4.7229319,3.6092947 4.1123503,4.4462094 4.0560716,4.5598312 3.9965553,4.6799894 3.9850959,4.75358 3.9850959,5.015625 c 0,0.2690381 0.010712,0.3342309 0.077019,0.46875 0.09814,0.1990987 0.2854234,0.3864528 0.48476,0.4849422 0.1483406,0.073293 0.1889503,0.077719 0.8022537,0.087428 l 0.6460035,0.010227 0.00175,1.0415359 c 0.00148,0.8814778 0.00966,1.0648237 0.053193,1.1930766 0.1084863,0.3195868 0.3368531,0.54597 0.6560834,0.650385 0.1348875,0.04412 0.3147975,0.049637 1.3574807,0.041633 L 9.265625,8.984375 9.421875,8.9069956 C 9.6210881,8.8083397 9.8083397,8.6210881 9.9069956,8.421875 9.9842994,8.2657778 9.9843841,8.2645466 9.9936772,7.1640625 L 10.002979,6.0625 h 0.606794 c 0.666832,0 0.791992,-0.023189 1.037775,-0.1922734 0.07256,-0.049915 0.178027,-0.1571519 0.234375,-0.2383035 0.101837,-0.1466628 0.102513,-0.150099 0.112549,-0.5727725 0.0075,-0.3171622 -0.0013,-0.4524362 -0.03464,-0.5323028 -0.03307,-0.079138 -1.093845,-1.5318936 -1.40866,-1.9291854 -0.05458,-0.068878 0.438874,0.1914875 0.745707,0.3934644 1.677848,1.104466 2.702612,3.0037066 2.702612,5.0088732 0,1.7577663 -0.794781,3.461758 -2.140112,4.588347 -1.251181,1.047747 -2.9288631,1.559182 -4.515625,1.376572 z M 8.625,13.429078 c 0.077344,-0.0078 0.1874291,-0.02454 0.2446341,-0.03716 0.057205,-0.01262 0.1345484,-0.0276 0.171875,-0.03328 0.2198681,-0.03345 0.6965831,-0.164378 0.8100534,-0.222483 0.047266,-0.0242 0.085937,-0.03629 0.085937,-0.02686 0,0.0094 0.035156,-0.0059 0.078126,-0.03404 0.04297,-0.02815 0.07813,-0.04139 0.07813,-0.02942 0,0.01197 0.05273,-0.01082 0.117189,-0.05066 0.06445,-0.03984 0.117186,-0.06836 0.117186,-0.06338 0,0.02181 0.255564,-0.09922 0.307969,-0.145843 0.03188,-0.02837 0.06001,-0.04496 0.0625,-0.03689 0.0025,0.0081 0.07035,-0.03059 0.150788,-0.08594 0.08044,-0.05534 0.156336,-0.100627 0.168656,-0.100627 0.01232,0 0.0801,-0.04704 0.15062,-0.104526 0.07052,-0.05749 0.144667,-0.110223 0.164771,-0.117187 0.140416,-0.04864 0.959505,-0.867425 1.007359,-1.006986 0.007,-0.02031 0.0597,-0.09462 0.117186,-0.165144 0.05749,-0.07052 0.104526,-0.1383 0.104526,-0.15062 0,-0.01232 0.04044,-0.08118 0.08988,-0.153031 0.04943,-0.07185 0.0881,-0.139702 0.08594,-0.150788 -0.0022,-0.01109 0.01927,-0.04624 0.04764,-0.07813 0.04437,-0.04987 0.153695,-0.277376 0.155499,-0.323593 3.35e-4,-0.0086 0.02886,-0.06133 0.06338,-0.117188 0.03452,-0.05586 0.05297,-0.101562 0.041,-0.101562 -0.01197,0 0.0013,-0.03516 0.02942,-0.07813 0.02815,-0.042969 0.04347,-0.078125 0.03404,-0.078125 -0.0094,0 0.0027,-0.038672 0.02686,-0.085937 0.05811,-0.1134703 0.189035,-0.5901853 0.222483,-0.8100534 0.0057,-0.037327 0.02057,-0.1145163 0.03309,-0.1715332 0.07708,-0.3509234 0.07708,-1.3890284 0,-1.7399518 -0.01252,-0.057017 -0.02742,-0.1342066 -0.03309,-0.1715332 -0.03345,-0.2198681 -0.164378,-0.6965831 -0.222483,-0.8100534 -0.0242,-0.047266 -0.03629,-0.085937 -0.02686,-0.085937 0.0094,0 -0.0059,-0.035156 -0.03404,-0.078125 -0.02815,-0.042969 -0.04139,-0.078125 -0.02942,-0.078125 0.01197,0 -0.0065,-0.045703 -0.041,-0.1015625 -0.03452,-0.055859 -0.06441,-0.1118541 -0.06641,-0.1244328 -0.0102,-0.064138 -0.107276,-0.2655503 -0.152472,-0.3163481 -0.02837,-0.031883 -0.0498,-0.067039 -0.04764,-0.078125 0.0022,-0.011086 -0.03651,-0.07894 -0.08594,-0.1507872 -0.04943,-0.071847 -0.08988,-0.140711 -0.08988,-0.1530313 0,-0.012321 -0.04922,-0.082466 -0.109375,-0.1558787 -0.06016,-0.073413 -0.109375,-0.1462382 -0.109375,-0.1618338 0,-0.015596 -0.03516,-0.061383 -0.07813,-0.1017506 l -0.07813,-0.073395 -0.005,0.3179475 c -0.0068,0.4333175 -0.02919,0.6796016 -0.07467,0.8228931 -0.02079,0.065489 -0.04583,0.1785838 -0.05773,0.2606791 -0.005,0.034375 -0.01888,0.093017 -0.03088,0.1303159 -0.012,0.037299 -0.02826,0.097065 -0.03613,0.1328125 -0.03198,0.1452447 -0.04266,0.1794863 -0.09287,0.2976632 -0.02881,0.067811 -0.0589,0.1521856 -0.06686,0.1875 -0.008,0.035315 -0.01794,0.078271 -0.02217,0.095458 -0.0042,0.017188 -0.03182,0.076806 -0.06131,0.132485 -0.02949,0.055679 -0.05095,0.1048981 -0.0477,0.109375 0.0033,0.00448 -0.01354,0.043296 -0.03732,0.086265 -0.02378,0.042969 -0.04411,0.085156 -0.04517,0.09375 -0.0011,0.00859 -0.04057,0.096325 -0.08779,0.1949587 -0.04722,0.098634 -0.08206,0.1830085 -0.07742,0.1875 0.0046,0.00449 -0.0215,0.050354 -0.05809,0.1019163 -0.05989,0.084388 -0.147692,0.2314531 -0.242811,0.4066897 -0.01879,0.034617 -0.06352,0.1049297 -0.09939,0.15625 -0.03587,0.051321 -0.07326,0.114404 -0.08307,0.1401853 -0.0098,0.025781 -0.09222,0.1382812 -0.183129,0.25 -0.09091,0.1117187 -0.163293,0.2101562 -0.160863,0.21875 0.0024,0.00859 -0.0862,0.1164756 -0.196956,0.2397372 -0.110757,0.1232619 -0.201376,0.2355859 -0.201376,0.2496091 0,0.033842 -0.8823031,0.9169034 -0.9161159,0.9169034 -0.014461,0 -0.1319313,0.09492 -0.261046,0.210938 -0.1291147,0.116015 -0.2369962,0.204645 -0.2397372,0.196956 -0.00274,-0.0077 -0.09639,0.0604 -0.2081084,0.151301 -0.1117187,0.09091 -0.2242187,0.173314 -0.25,0.183129 -0.025781,0.0098 -0.088865,0.0472 -0.1401853,0.08307 -0.05132,0.03588 -0.1216328,0.0806 -0.15625,0.09939 -0.166575,0.09042 -0.3202344,0.181452 -0.3910647,0.231685 -0.042969,0.03047 -0.092187,0.0582 -0.109375,0.06162 -0.017188,0.0034 -0.1085938,0.04326 -0.203125,0.08854 -0.094531,0.04528 -0.1789063,0.0832 -0.1875,0.08427 -0.00859,0.0011 -0.050781,0.02139 -0.09375,0.04517 -0.042969,0.02378 -0.081788,0.04057 -0.086265,0.03732 -0.00448,-0.0033 -0.053696,0.01821 -0.109375,0.0477 -0.055679,0.02949 -0.1152975,0.05708 -0.132485,0.06131 -0.017188,0.0042 -0.060144,0.01421 -0.095458,0.02217 -0.035314,0.008 -0.1196894,0.03805 -0.1875,0.06686 -0.1181769,0.05021 -0.1524185,0.06089 -0.2976632,0.09287 -0.035748,0.0079 -0.095513,0.02413 -0.1328125,0.03613 -0.037299,0.012 -0.095941,0.0259 -0.1303159,0.03088 -0.082095,0.0119 -0.1951897,0.03695 -0.2606791,0.05773 -0.1432915,0.04548 -0.3895756,0.06783 -0.8228931,0.07467 l -0.3179475,0.005 0.073395,0.07813 c 0.040367,0.04297 0.086155,0.07813 0.1017506,0.07813 0.015596,0 0.088421,0.04922 0.1618338,0.109375 0.073412,0.06016 0.1435581,0.109375 0.1558787,0.109375 0.01232,0 0.081185,0.04044 0.1530313,0.08988 0.071847,0.04943 0.1446931,0.09262 0.1618806,0.09598 0.017188,0.0034 0.052344,0.02479 0.078125,0.04764 0.042168,0.03736 0.2477394,0.133285 0.3052547,0.142432 0.012579,0.002 0.068573,0.03188 0.1244328,0.06641 0.055859,0.03452 0.1015625,0.05297 0.1015625,0.041 0,-0.01197 0.035156,0.0013 0.078125,0.02942 0.042969,0.02815 0.078125,0.04347 0.078125,0.03404 0,-0.0094 0.038672,0.0027 0.085937,0.02686 0.1134703,0.05811 0.5901853,0.189036 0.8100534,0.222483 0.037327,0.0057 0.1145163,0.02057 0.1715332,0.03309 0.057017,0.01252 0.1722528,0.02724 0.25608,0.0327 0.083827,0.0055 0.1587596,0.01627 0.1665165,0.02403 0.016621,0.01662 0.8684294,0.0012 1.0723794,-0.01938 z"
       id="path823"
       inkscape:connector-curvature="0" />
    <path
       style="fill:#326598;stroke-width:0.000357143"
       d="m 7.5526206,13.448454 c -0.00776,-0.0078 -0.082689,-0.01857 -0.1665165,-0.02403 -0.083827,-0.0055 -0.1990632,-0.02017 -0.25608,-0.0327 -0.057017,-0.01252 -0.1342066,-0.02742 -0.1715332,-0.03309 -0.2198681,-0.03345 -0.6965831,-0.164378 -0.8100534,-0.222483 -0.047266,-0.0242 -0.085937,-0.03629 -0.085937,-0.02686 0,0.0094 -0.035156,-0.0059 -0.078125,-0.03404 -0.042969,-0.02815 -0.078125,-0.04139 -0.078125,-0.02942 0,0.01197 -0.045703,-0.0065 -0.1015625,-0.041 C 5.748829,12.970311 5.6928339,12.940421 5.6802552,12.938421 5.6227394,12.929275 5.4171681,12.833355 5.375,12.79599 5.349219,12.77314 5.314063,12.75171 5.296875,12.74835 5.279687,12.74495 5.206841,12.7018 5.1349944,12.65237 5.0631474,12.60294 4.9942834,12.56249 4.9819631,12.56249 c -0.012321,0 -0.082466,-0.04922 -0.1558787,-0.109375 -0.073413,-0.06016 -0.1462381,-0.109375 -0.1618338,-0.109375 -0.015596,0 -0.061383,-0.03516 -0.1017506,-0.07813 l -0.073395,-0.07813 0.3179475,-0.005 c 0.4333175,-0.0068 0.6796016,-0.02919 0.8228931,-0.07467 0.065489,-0.02079 0.1785838,-0.04583 0.2606791,-0.05773 0.034375,-0.005 0.093017,-0.01888 0.1303159,-0.03088 0.037299,-0.012 0.097065,-0.02826 0.1328125,-0.03613 0.1452447,-0.03198 0.1794863,-0.04266 0.2976632,-0.09287 0.067811,-0.02881 0.1521856,-0.0589 0.1875,-0.06686 0.035315,-0.008 0.078271,-0.01794 0.095458,-0.02217 0.017188,-0.0042 0.076806,-0.03182 0.132485,-0.06131 0.055679,-0.02949 0.1048981,-0.05095 0.109375,-0.0477 0.00448,0.0033 0.043296,-0.01354 0.086265,-0.03732 0.042969,-0.02378 0.085156,-0.04411 0.09375,-0.04517 0.00859,-0.0011 0.092969,-0.03899 0.1875,-0.08427 0.094531,-0.04528 0.1859375,-0.08512 0.203125,-0.08854 0.017188,-0.0034 0.066406,-0.03115 0.109375,-0.06162 0.07083,-0.05023 0.2244897,-0.141268 0.3910647,-0.231685 0.034617,-0.01879 0.1049297,-0.06352 0.15625,-0.09939 0.051321,-0.03588 0.1144041,-0.07326 0.1401853,-0.08307 0.025781,-0.0098 0.1382813,-0.09222 0.25,-0.183129 0.1117188,-0.09091 0.2053675,-0.158991 0.2081084,-0.151301 0.00274,0.0077 0.1106225,-0.08094 0.2397372,-0.196957 0.1291147,-0.116015 0.2465853,-0.210937 0.261046,-0.210937 0.033813,0 0.9161081,-0.8830613 0.9161081,-0.9169037 0,-0.014023 0.09062,-0.1263472 0.201376,-0.2496091 0.110756,-0.1232616 0.199387,-0.2311434 0.196956,-0.2397372 -0.0024,-0.00859 0.06996,-0.1070312 0.160863,-0.21875 0.09091,-0.1117187 0.173314,-0.2242187 0.183129,-0.25 0.0098,-0.025781 0.0472,-0.088865 0.08307,-0.1401853 0.03588,-0.05132 0.0806,-0.1216328 0.09939,-0.15625 0.09512,-0.1752366 0.182923,-0.3223019 0.242811,-0.4066897 0.03659,-0.051563 0.06273,-0.097425 0.05809,-0.1019162 -0.0046,-0.00449 0.0302,-0.088867 0.07742,-0.1875 0.04722,-0.098634 0.08673,-0.186365 0.08779,-0.1949588 0.0011,-0.00859 0.02139,-0.050781 0.04517,-0.09375 0.02378,-0.042969 0.04057,-0.081788 0.03732,-0.086265 -0.0033,-0.00448 0.01821,-0.053696 0.0477,-0.109375 0.02949,-0.055679 0.05708,-0.1152975 0.06131,-0.132485 0.0042,-0.017188 0.01421,-0.060144 0.02217,-0.095458 0.008,-0.035314 0.03805,-0.1196894 0.06686,-0.1875 0.05021,-0.1181769 0.06089,-0.1524185 0.09287,-0.2976632 0.0079,-0.035748 0.02413,-0.095513 0.03613,-0.1328125 0.012,-0.037299 0.0259,-0.095941 0.03088,-0.1303159 0.0119,-0.082095 0.03695,-0.1951897 0.05773,-0.2606791 0.04548,-0.1432915 0.06783,-0.3895756 0.07467,-0.8228931 l 0.005,-0.3179475 0.07813,0.073395 c 0.04297,0.040367 0.07813,0.086155 0.07813,0.1017506 0,0.015596 0.04922,0.088421 0.109375,0.1618338 0.06016,0.073412 0.109375,0.1435581 0.109375,0.1558787 0,0.01232 0.04044,0.081185 0.08988,0.1530313 0.04943,0.071847 0.0881,0.1397012 0.08594,0.1507872 -0.0022,0.011086 0.01927,0.046242 0.04764,0.078125 0.0452,0.050798 0.142272,0.2522103 0.152472,0.3163481 0.002,0.012579 0.03188,0.068573 0.06641,0.1244328 0.03452,0.055859 0.05297,0.1015625 0.041,0.1015625 -0.01197,0 0.0013,0.035156 0.02942,0.078125 0.02815,0.042969 0.04347,0.078125 0.03404,0.078125 -0.0094,0 0.0027,0.038672 0.02686,0.085937 0.05811,0.1134703 0.189036,0.5901853 0.222483,0.8100534 0.0057,0.037327 0.02057,0.1145163 0.03309,0.1715332 0.07708,0.3509234 0.07708,1.3890284 0,1.7399518 -0.01252,0.057017 -0.02742,0.1342066 -0.03309,0.1715332 -0.03345,0.2198681 -0.164378,0.6965831 -0.222483,0.8100534 -0.0242,0.047266 -0.03629,0.085937 -0.02686,0.085937 0.0094,0 -0.0059,0.035156 -0.03404,0.078125 -0.02815,0.04297 -0.04139,0.07813 -0.02942,0.07813 0.01197,0 -0.0065,0.0457 -0.041,0.101563 -0.03452,0.05586 -0.06304,0.108593 -0.06338,0.117187 -0.0018,0.04622 -0.111131,0.273726 -0.155499,0.323593 -0.02837,0.03188 -0.0498,0.06704 -0.04764,0.07813 0.0022,0.01109 -0.03651,0.07894 -0.08594,0.150788 -0.04943,0.07185 -0.08988,0.140711 -0.08988,0.153031 0,0.01232 -0.04704,0.0801 -0.104526,0.15062 -0.05749,0.07052 -0.110223,0.144835 -0.117187,0.165144 -0.04786,0.139561 -0.866944,0.958347 -1.007359,1.006986 -0.0201,0.007 -0.09425,0.0597 -0.164771,0.117187 -0.07052,0.05749 -0.1383,0.104526 -0.15062,0.104526 -0.01232,0 -0.08822,0.04528 -0.168656,0.100627 -0.08044,0.05534 -0.148295,0.09402 -0.150788,0.08594 -0.0025,-0.0081 -0.03062,0.0085 -0.0625,0.03689 -0.05241,0.04663 -0.307968,0.167651 -0.307968,0.145843 0,-0.005 -0.05273,0.02354 -0.117188,0.06338 -0.06445,0.03983 -0.117187,0.06263 -0.117187,0.05066 0,-0.01197 -0.03516,0.0013 -0.07813,0.02942 -0.042969,0.02815 -0.078125,0.04347 -0.078125,0.03404 0,-0.0094 -0.038672,0.0027 -0.085937,0.02686 -0.1134703,0.05811 -0.5901853,0.189036 -0.8100534,0.222483 -0.037327,0.0057 -0.1146704,0.02065 -0.171875,0.03328 -0.057205,0.01263 -0.1672904,0.02935 -0.2446341,0.03716 -0.20395,0.0206 -1.0557588,0.036 -1.0723794,0.01938 z"
       id="path821"
       inkscape:connector-curvature="0" />
    <path
       style="fill:#000000;stroke-width:0.000357143"
       d="M 7.421875,14.980816 C 7.0751806,14.944671 6.6021466,14.861504 6.2687884,14.778087 3.8136863,14.163732 1.8362677,12.186314 1.2219136,9.7312116 1.0560565,9.0684081 1.0169904,8.7383737 1.0169904,8 c 0,-0.7383738 0.039066,-1.0684081 0.2049232,-1.7312116 C 1.7104422,4.3165141 3.0823045,2.6212346 4.890625,1.7351763 5.3840781,1.4933893 5.7953984,1.3390742 6.2434062,1.227653 L 6.5807794,1.1437471 6.9043653,0.71083441 C 7.3422134,0.12505532 7.5377147,0 8.015625,0 8.4945997,0 8.6958534,0.12871344 9.14172,0.72020281 9.3868403,1.0453808 9.4912859,1.1601722 9.55516,1.1745968 12.090947,1.7472466 14.148921,3.754495 14.778087,6.2687884 14.943943,6.9315919 14.98301,7.2616262 14.98301,8 c 0,0.7383738 -0.03907,1.0684081 -0.204923,1.7312116 -0.488529,1.9522744 -1.860391,3.6475534 -3.668712,4.5336124 -0.997415,0.488723 -1.8652369,0.698733 -2.96875,0.718428 -0.3265625,0.0058 -0.65,0.0047 -0.71875,-0.0024 z m 1.1875,-1.012756 c 1.2134053,-0.135588 2.330759,-0.609935 3.25,-1.379713 C 13.204706,11.461758 13.999487,9.7577663 13.999487,8 c 0,-2.0051666 -1.024764,-3.9044072 -2.702612,-5.0088732 -0.306833,-0.2019769 -0.800287,-0.4623423 -0.745707,-0.3934644 0.314815,0.3972918 1.375594,1.850047 1.40866,1.9291854 0.03337,0.079867 0.04218,0.2151406 0.03464,0.5323028 -0.01004,0.4226735 -0.01071,0.4261097 -0.112549,0.5727725 -0.05635,0.081152 -0.161817,0.1883882 -0.234375,0.2383035 C 11.401765,6.0393109 11.276605,6.0625 10.609773,6.0625 h -0.606794 l -0.0093,1.1015625 C 9.9843841,8.2645466 9.9842994,8.2657778 9.9069956,8.421875 9.8083397,8.6210881 9.6210881,8.8083397 9.421875,8.9069956 l -0.15625,0.077379 -1.2019847,0.00923 c -1.0426831,0.008 -1.2225931,0.00249 -1.3574806,-0.041633 C 6.3869294,8.8475541 6.1585625,8.6211709 6.0500762,8.3015841 6.0065397,8.1733313 5.9983653,7.9899853 5.9968834,7.1085075 L 5.9951334,6.0669716 5.34913,6.056745 C 4.7358253,6.0470359 4.6952156,6.0426103 4.546875,5.9693172 4.3475384,5.8708278 4.160255,5.6834737 4.062115,5.484375 3.9958075,5.3498559 3.9850959,5.2846631 3.9850959,5.015625 c 0,-0.262045 0.011459,-0.3356356 0.070976,-0.4557938 0.056279,-0.1136218 0.6668603,-0.9505365 1.408454,-1.9305465 L 5.5440497,2.5241944 5.2642122,2.6650758 C 3.2879438,3.6600094 2.0005128,5.7644759 2.0005128,8 c 0,1.8109975 0.8432565,3.558142 2.2651122,4.693088 1.2045741,0.96151 2.8436166,1.442599 4.34375,1.274972 z M 9,6.53125 V 5.0625 h 1.03125 c 0.838248,0 1.03125,-0.00779 1.03125,-0.041643 0,-0.022904 -0.668672,-0.9334506 -1.4859369,-2.0234376 C 8.4715956,1.5237236 8.073,1.0137182 8.0218756,1.0081878 7.9644931,1.0019803 7.7063888,1.3305578 6.4609375,2.9953276 5.6402344,4.092345 4.96875,5.0062387 4.96875,5.0262022 c 0,0.026819 0.2652175,0.036298 1.015625,0.036298 H 7 V 6.53125 8 h 1 1 z"
       id="path819"
       inkscape:connector-curvature="0" />
  </g>
</svg>
