<?xml version="1.0" encoding="UTF-8" standalone="no"?>
<!-- Created with Inkscape (http://www.inkscape.org/) -->

<svg
   version="1.1"
   id="svg2"
   width="1600"
   height="1600"
   viewBox="0 0 1600 1600"
   sodipodi:docname="parent_bone.svg"
   inkscape:version="1.2.2 (732a01da63, 2022-12-09)"
   xmlns:inkscape="http://www.inkscape.org/namespaces/inkscape"
   xmlns:sodipodi="http://sodipodi.sourceforge.net/DTD/sodipodi-0.dtd"
   xmlns="http://www.w3.org/2000/svg"
   xmlns:svg="http://www.w3.org/2000/svg"
   xmlns:rdf="http://www.w3.org/1999/02/22-rdf-syntax-ns#"
   xmlns:cc="http://creativecommons.org/ns#"
   xmlns:dc="http://purl.org/dc/elements/1.1/">
  <metadata
     id="metadata8">
    <rdf:RDF>
      <cc:Work
         rdf:about="">
        <dc:format>image/svg+xml</dc:format>
        <dc:type
           rdf:resource="http://purl.org/dc/dcmitype/StillImage" />
      </cc:Work>
    </rdf:RDF>
  </metadata>
  <defs
     id="defs6" />
  <sodipodi:namedview
     pagecolor="#808080"
     bordercolor="#666666"
     borderopacity="1"
     objecttolerance="10"
     gridtolerance="10"
     guidetolerance="10"
     inkscape:pageopacity="0"
     inkscape:pageshadow="2"
     inkscape:window-width="1993"
     inkscape:window-height="1009"
     id="namedview4"
     showgrid="false"
     inkscape:zoom="0.5"
     inkscape:cx="167"
     inkscape:cy="210"
     inkscape:window-x="-8"
     inkscape:window-y="-8"
     inkscape:window-maximized="1"
     inkscape:current-layer="PARENT_BONE"
     inkscape:showpageshadow="0"
     inkscape:pagecheckerboard="true"
     inkscape:deskcolor="#d1d1d1" />
  <g
     id="PARENT_BONE"
     transform="matrix(100,0,0,100,0,4.9999997e-5)"
     style="stroke-width:0.0114286">
    <path
       style="fill:none;stroke-width:0.000357143"
       d="M 0,8 V 0 h 8 8 v 8 8 H 8 0 Z m 7.2847972,7.468788 C 7.8562106,15.362833 8.3590619,14.859634 8.4681028,14.284662 8.4856463,14.192156 8.5,13.776037 8.5,13.359953 c 0,-0.689117 0.00502,-0.761056 0.056312,-0.807478 0.050437,-0.04564 0.2425453,-0.05185 1.841481,-0.05953 1.747433,-0.0084 1.786993,-0.0099 1.871444,-0.073 0.212966,-0.159043 0.215138,-0.16833 0.215138,-0.919944 0,-0.641002 -0.004,-0.688213 -0.06443,-0.769215 -0.160302,-0.214708 -0.158077,-0.214219 -1.021973,-0.224537 L 10.61287,10.496849 11.61094,9.4984133 12.609009,8.5 h 0.75373 c 0.414552,0 0.829478,-0.014046 0.922058,-0.031212 0.592792,-0.1099184 1.08986,-0.6253625 1.190862,-1.2348853 C 15.575826,6.6294103 15.23417,5.9766669 14.673769,5.7018691 14.404094,5.5696316 14.209388,5.53125 13.808235,5.53125 H 13.5 V 5.2230153 C 13.5,4.8218622 13.461618,4.6271559 13.329381,4.3574812 13.126273,3.9432794 12.702788,3.6332881 12.233902,3.5555913 11.62941,3.4554238 10.976667,3.7970797 10.701869,4.3574812 10.550348,4.6664828 10.53125,4.8131956 10.53125,5.6682391 V 6.4216975 L 8.4922769,8.4608488 6.4533041,10.5 H 5.9766519 5.5 V 9.25 8 H 6.3590397 C 7.3695447,8 7.4317591,7.986745 7.7097262,7.7122309 8.0195372,7.4062684 8,7.62247 8,4.5 8,1.37753 8.0195372,1.5937317 7.7097262,1.2877692 7.3984475,0.98035709 7.6175406,1 4.5,1 1.3824592,1 1.6015526,0.98035709 1.2902738,1.2877692 0.98046291,1.5937317 1,1.37753 1,4.5 1,7.62247 0.98046291,7.4062684 1.2902738,7.7122309 1.5682408,7.986745 1.6304553,8 2.6409602,8 H 3.5 v 2.031824 c 0,1.955901 0.00242,2.040842 0.064663,2.273121 0.088966,0.331987 0.2223553,0.567486 0.4378613,0.773043 C 4.3220991,13.382812 4.6610178,13.5 5.2230153,13.5 H 5.53125 v 0.308235 c 0,0.401153 0.038382,0.595859 0.1706191,0.865534 0.2856487,0.58253 0.9444481,0.913409 1.5829281,0.795019 z"
       id="path833"
       inkscape:connector-curvature="0" />
    <path
       style="fill:#fefefe;stroke-width:0.000357143"
       d="M 6.8507037,14.966324 C 6.6691194,14.931197 6.4223369,14.792198 6.3056956,14.659351 6.1110275,14.437636 6.0566125,14.257991 6.0341944,13.763019 6.0122653,13.278848 5.9936675,13.224303 5.8016256,13.080923 5.7289112,13.026633 5.6503841,13.014364 5.2634706,12.99684 4.8396628,12.977645 4.7975941,12.969992 4.611025,12.878144 3.8648022,12.51078 3.8694525,11.51828 4.6191266,11.149079 l 0.2075296,-0.102204 0.8913594,-0.01563 c 0.6054981,-0.01061 0.9114031,-0.02751 0.9538594,-0.05269 0.056963,-0.03378 4.321332,-4.2878787 4.333282,-4.322844 0.0028,-0.0083 0.0135,-0.4229025 0.02369,-0.92134 0.01823,-0.8913331 0.01986,-0.9091025 0.09957,-1.0795509 0.114614,-0.2451116 0.252528,-0.3884463 0.48286,-0.5018385 0.280503,-0.1380906 0.528209,-0.1380906 0.808712,0 0.230209,0.1133316 0.36955,0.2580406 0.479298,0.4977628 0.06641,0.1450503 0.08038,0.2332622 0.09778,0.6174825 0.02193,0.4841713 0.04053,0.5387166 0.232568,0.6820966 0.07272,0.054289 0.151242,0.066558 0.538155,0.084083 0.423808,0.019195 0.465877,0.026848 0.652446,0.1186959 0.496439,0.2443963 0.693322,0.7889475 0.458039,1.2668747 -0.113392,0.2303322 -0.256726,0.3682463 -0.501838,0.48286 -0.170695,0.079817 -0.186692,0.081274 -1.063926,0.09691 -0.604501,0.010775 -0.910704,0.027782 -0.953125,0.05294 -0.05696,0.033782 -4.3213322,4.2878799 -4.3332822,4.3228449 -0.00284,0.0083 -0.013496,0.422902 -0.023687,0.92134 -0.018225,0.891333 -0.019864,0.909102 -0.099565,1.079551 -0.1144859,0.244838 -0.2532784,0.389299 -0.4758265,0.495261 -0.2199757,0.104736 -0.3844725,0.131748 -0.5763104,0.09464 z"
       id="path831"
       inkscape:connector-curvature="0" />
    <path
       style="fill:#fefe00;stroke-width:0.000357143"
       d="M 1.6110609,7.9367328 C 1.3977378,7.8534487 1.1415392,7.5947028 1.0620585,7.3822719 1.0018952,7.2214709 1,7.1334488 1,4.5 1,1.37753 0.98046291,1.5937317 1.2902738,1.2877692 1.6015526,0.98035709 1.3824592,1 4.5,1 7.1327209,1 7.2231903,1.0019419 7.3808244,1.0618382 7.7048616,1.1849626 8,1.580574 8,1.8917973 V 2 H 5 2 V 5 8 L 1.8828125,7.9985375 C 1.8183594,7.9977344 1.6960712,7.9699209 1.6110609,7.9367319 Z"
       id="path829"
       inkscape:connector-curvature="0" />
    <path
       style="fill:#fecb32;stroke-width:0.000357143"
       d="M 2,4.5 V 2 H 4.5 7 V 4.5 7 H 4.5 2 Z"
       id="path827"
       inkscape:connector-curvature="0" />
    <path
       style="fill:#32fe00;stroke-width:0.000357143"
       d="M 9.609375,11.5 10.108643,11 H 11.054321 12 V 11.5 12 H 10.555054 9.1101075 Z M 4,9.4702225 V 8 H 4.5 5 v 1.2610053 1.2610057 l -0.2033994,0.0337 c -0.236215,0.03914 -0.5123565,0.157423 -0.6794131,0.291017 L 4,10.940445 Z"
       id="path825"
       inkscape:connector-curvature="0" />
    <path
       style="fill:#986500;stroke-width:0.000357143"
       d="M 2,7.5 V 7 H 4.5 7 V 4.5 2 H 7.5 8 V 4.6090397 C 8,7.6025906 8.0188737,7.3992262 7.7122309,7.7097262 7.4070412,8.0187544 7.6075909,8 4.6082028,8 H 2 Z"
       id="path823"
       inkscape:connector-curvature="0" />
    <path
       style="fill:#009800;stroke-width:0.000357143"
       d="M 8.8586419,12.250752 9.1079088,12 H 10.553954 12 V 11.5 11 h -0.944579 -0.94458 l 0.249267,-0.251218 0.249267,-0.251219 0.786847,0.009 c 0.865935,0.0099 0.863335,0.0094 1.023722,0.224191 0.06048,0.081 0.06443,0.128213 0.06443,0.769215 0,0.751614 -0.0022,0.760901 -0.215138,0.919944 -0.08445,0.06307 -0.12399,0.06461 -1.873069,0.073 l -1.786793,0.0086 z M 3.5039531,10.070313 3.5,8 H 3.75 4 V 9.472775 10.94555 L 3.89172,11.065403 C 3.69835,11.27944 3.58148,11.560555 3.5356516,11.921875 3.5173275,12.066344 3.5065638,11.437608 3.5039531,10.070313 Z M 5,9.265625 V 8 H 5.25 5.5 v 1.2491859 1.2491861 l 0.4765625,0.0095 c 0.3763275,0.0075 0.323745,0.01096 -0.25,0.01644 L 5,10.53125 Z"
       id="path821"
       inkscape:connector-curvature="0" />
    <path
       style="fill:#1a1a1a;stroke-width:0.000357143"
       d="M 6.7221353,15.4662 C 6.31263,15.385778 5.8900766,15.057584 5.7018691,14.673769 5.5696316,14.404094 5.53125,14.209388 5.53125,13.808235 V 13.5 H 5.2230153 C 4.8218622,13.5 4.6271559,13.461618 4.3574812,13.329381 3.9432794,13.126273 3.6332881,12.702788 3.5555913,12.233902 3.4554238,11.62941 3.7970797,10.976667 4.3574812,10.701869 4.6664916,10.550343 4.8131909,10.53125 5.6684166,10.53125 H 6.4220525 L 8.4766513,8.4764744 10.53125,6.4216987 v -0.753459 c 0,-0.8550441 0.0191,-1.0017569 0.170619,-1.3107585 0.274798,-0.5604015 0.927541,-0.9020575 1.532033,-0.80189 0.468886,0.077697 0.892371,0.3876882 1.095479,0.80189 C 13.461618,4.6271559 13.5,4.8218622 13.5,5.2230153 V 5.53125 h 0.308235 c 0.401153,0 0.595859,0.038382 0.865534,0.1706191 0.560401,0.2747978 0.902057,0.9275412 0.80189,1.5320334 -0.101001,0.6095228 -0.59807,1.1249669 -1.190862,1.2348853 C 14.192217,8.4859544 13.777333,8.5 13.362833,8.5 H 12.609198 L 10.554599,10.554776 8.5,12.609551 v 0.753459 c 0,0.414403 -0.014354,0.829146 -0.031897,0.921652 -0.1508969,0.795677 -0.9516119,1.33754 -1.7459677,1.181538 z m 0.7048788,-0.594513 c 0.2225481,-0.105962 0.3613406,-0.250423 0.4758265,-0.495261 0.079701,-0.170448 0.08134,-0.188218 0.099565,-1.079551 0.010191,-0.498437 0.020851,-0.913041 0.023687,-0.92134 0.01195,-0.03496 4.2763194,-4.2890628 4.3332824,-4.3228444 0.04242,-0.025158 0.348624,-0.042166 0.953125,-0.05294 0.877234,-0.015636 0.893231,-0.017093 1.063926,-0.09691 0.245112,-0.1146137 0.388446,-0.2525278 0.501838,-0.48286 0.235283,-0.4779272 0.0384,-1.0224784 -0.458039,-1.2668747 C 14.233656,6.0612581 14.191587,6.053605 13.767779,6.03441 13.380866,6.0168859 13.302339,6.0046169 13.229624,5.9503275 13.037583,5.8069475 13.018985,5.7524022 12.997056,5.2682309 12.979654,4.8840106 12.965686,4.7957988 12.899279,4.6507484 12.789531,4.4110263 12.65019,4.2663172 12.419981,4.1529856 c -0.280503,-0.1380906 -0.528209,-0.1380906 -0.808712,0 -0.230332,0.1133922 -0.368246,0.2567269 -0.48286,0.5018385 -0.0797,0.1704484 -0.08134,0.1882178 -0.09957,1.0795509 -0.01019,0.4984375 -0.02085,0.9130406 -0.02369,0.92134 -0.01195,0.034965 -4.2763192,4.289063 -4.333282,4.322844 -0.042456,0.02518 -0.3483613,0.04208 -0.9538594,0.05269 l -0.8913594,0.01563 -0.2075296,0.102204 c -0.7496741,0.369201 -0.7543244,1.361701 -0.0081,1.729065 0.1865691,0.09185 0.2286378,0.0995 0.6524456,0.118696 0.3869135,0.01752 0.4654406,0.02979 0.538155,0.08408 0.1920419,0.14338 0.2106397,0.197925 0.2325688,0.682096 0.017402,0.38422 0.03137,0.472432 0.097776,0.617483 0.101681,0.2221 0.2340341,0.368911 0.4275191,0.474218 0.3009965,0.163823 0.5489006,0.168672 0.8675244,0.01697 z"
       id="path819"
       inkscape:connector-curvature="0" />
  </g>
</svg>
