<?xml version="1.0" encoding="UTF-8" standalone="no"?>
<!-- Created with Inkscape (http://www.inkscape.org/) -->

<svg
   version="1.1"
   id="svg2"
   width="1600"
   height="1600"
   viewBox="0 0 1600 1600"
   sodipodi:docname="parent_clear.svg"
   inkscape:version="1.2.2 (732a01da63, 2022-12-09)"
   xmlns:inkscape="http://www.inkscape.org/namespaces/inkscape"
   xmlns:sodipodi="http://sodipodi.sourceforge.net/DTD/sodipodi-0.dtd"
   xmlns="http://www.w3.org/2000/svg"
   xmlns:svg="http://www.w3.org/2000/svg"
   xmlns:rdf="http://www.w3.org/1999/02/22-rdf-syntax-ns#"
   xmlns:cc="http://creativecommons.org/ns#"
   xmlns:dc="http://purl.org/dc/elements/1.1/">
  <metadata
     id="metadata8">
    <rdf:RDF>
      <cc:Work
         rdf:about="">
        <dc:format>image/svg+xml</dc:format>
        <dc:type
           rdf:resource="http://purl.org/dc/dcmitype/StillImage" />
      </cc:Work>
    </rdf:RDF>
  </metadata>
  <defs
     id="defs6" />
  <sodipodi:namedview
     pagecolor="#808080"
     bordercolor="#666666"
     borderopacity="1"
     objecttolerance="10"
     gridtolerance="10"
     guidetolerance="10"
     inkscape:pageopacity="0"
     inkscape:pageshadow="2"
     inkscape:window-width="1993"
     inkscape:window-height="1009"
     id="namedview4"
     showgrid="false"
     inkscape:zoom="0.5"
     inkscape:cx="217"
     inkscape:cy="34"
     inkscape:window-x="-8"
     inkscape:window-y="-8"
     inkscape:window-maximized="1"
     inkscape:current-layer="PARENT_CLEAR"
     inkscape:showpageshadow="0"
     inkscape:pagecheckerboard="true"
     inkscape:deskcolor="#d1d1d1" />
  <g
     id="PARENT_CLEAR"
     transform="matrix(100,0,0,100,0,4.9999997e-5)"
     style="stroke-width:0.0114286">
    <path
       style="fill:none;stroke-width:0.000357143"
       d="M 0,8 V 0 h 8 8 v 8 8 H 8 0 Z m 12.227566,7.48759 c 0.05742,-0.02493 0.779974,-0.725373 1.684354,-1.632812 1.402181,-1.406924 1.586269,-1.602791 1.605368,-1.708087 0.04342,-0.239377 -0.02774,-0.425403 -0.216754,-0.566635 -0.0814,-0.06082 -0.134177,-0.06495 -0.94242,-0.07365 l -0.856192,-0.0092 -0.0088,-1.340085 C 13.484653,8.859475 13.482333,8.8142781 13.419944,8.7307491 13.384507,8.6833047 13.316679,8.6154928 13.269215,8.5800559 13.18561,8.5176359 13.145996,8.515625 12,8.515625 c -1.145996,0 -1.18561,0.00201 -1.269215,0.064431 -0.04746,0.035437 -0.115292,0.1032488 -0.150729,0.1506932 -0.06239,0.083529 -0.06471,0.1287262 -0.07321,1.4263268 l -0.0088,1.340065 -0.8405686,0.0092 c -0.792431,0.0087 -0.845506,0.01293 -0.9267953,0.07367 -0.1890122,0.141234 -0.2601716,0.327259 -0.2167522,0.566635 0.019099,0.105297 0.2031737,0.301144 1.6053681,1.708044 0.871087,0.87401 1.625983,1.608225 1.677545,1.631589 0.122299,0.05542 0.304737,0.05595 0.430691,0.0013 z M 7.3822719,7.9379416 C 7.6004266,7.8563194 7.8540825,7.6021034 7.9381619,7.3808244 7.9980575,7.2231919 8,7.1327241 8,4.5008372 8,1.3774148 8.0195428,1.5937374 7.7097262,1.2877692 7.3984475,0.98035709 7.6175406,1 4.5,1 1.3824592,1 1.6015526,0.98035709 1.2902738,1.2877692 0.98046291,1.5937317 1,1.37753 1,4.5 1,7.6225037 0.9804573,7.4062628 1.290307,7.7122634 c 0.3086455,0.3048116 0.082696,0.2846025 3.2007083,0.286275 2.6443213,0.00142 2.7303241,-3.843e-4 2.8912566,-0.060597 z"
       id="path829"
       inkscape:connector-curvature="0" />
    <path
       style="fill:#cbfefe;stroke-width:0.000357143"
       d="M 1.6110609,7.9367328 C 1.3977378,7.8534487 1.1415392,7.5947028 1.0620585,7.3822719 1.0018952,7.2214709 1,7.1334488 1,4.5 1,1.37753 0.98046291,1.5937317 1.2902738,1.2877692 1.6015526,0.98035709 1.3824592,1 4.5,1 7.1327209,1 7.2231903,1.0019419 7.3808244,1.0618382 7.7048616,1.1849626 8,1.580574 8,1.8917973 V 2 H 5 2 V 5 8 L 1.8828125,7.9985375 C 1.8183594,7.9977344 1.6960712,7.9699209 1.6110609,7.9367319 Z"
       id="path827"
       inkscape:connector-curvature="0" />
    <path
       style="fill:#98cbfe;stroke-width:0.000357143"
       d="M 2,4.5 V 2 H 4.5 7 V 4.5 7 H 4.5 2 Z"
       id="path825"
       inkscape:connector-curvature="0" />
    <path
       style="fill:#fe9832;stroke-width:0.000357143"
       d="M 10.500001,13.515626 8.9846166,12 H 9.9923084 11 V 10.5 9 h 1 1 v 1.499573 1.499573 l 1.015764,0.0082 1.015763,0.0082 -1.508071,1.507813 -1.508071,1.507813 z"
       id="path823"
       inkscape:connector-curvature="0" />
    <path
       style="fill:#0032fe;stroke-width:0.000357143"
       d="M 2,7.5 V 7 H 4.5 7 V 4.5 2 H 7.5 8 V 4.6090397 C 8,7.6025906 8.0188737,7.3992262 7.7122309,7.7097262 7.4070412,8.0187544 7.6075909,8 4.6082028,8 H 2 Z"
       id="path821"
       inkscape:connector-curvature="0" />
    <path
       style="fill:#653200;stroke-width:0.000357143"
       d="m 11.796875,15.486324 c -0.05156,-0.02336 -0.806458,-0.757579 -1.677545,-1.631589 -1.4021944,-1.4069 -1.5862688,-1.602747 -1.6053681,-1.708044 -0.043419,-0.239376 0.02774,-0.425401 0.2167522,-0.566635 0.081289,-0.06074 0.1343643,-0.06496 0.9267953,-0.07367 l 0.8405676,-0.0092 0.0088,-1.340065 c 0.0085,-1.2976007 0.01082,-1.3427979 0.07321,-1.4263269 0.03544,-0.047444 0.103265,-0.1152563 0.150729,-0.1506932 C 10.81439,8.5176359 10.854004,8.515625 12,8.515625 c 1.145996,0 1.18561,0.00201 1.269215,0.064431 0.04746,0.035437 0.115292,0.1032488 0.150729,0.1506932 0.06239,0.083529 0.06471,0.1287259 0.07321,1.4263478 l 0.0088,1.340086 0.856192,0.0092 c 0.808243,0.0087 0.86102,0.01283 0.94242,0.07365 0.189014,0.141232 0.260173,0.327258 0.216754,0.566635 -0.0191,0.105296 -0.203187,0.301163 -1.605368,1.708087 -0.90438,0.907439 -1.626932,1.607882 -1.684354,1.632812 -0.125954,0.05469 -0.308392,0.05415 -0.430691,-0.0013 z M 14.015764,12.007386 13,11.999146 V 10.499573 9 H 12 11 V 10.5 12 H 9.9923084 8.9846166 l 1.5153844,1.515626 1.515384,1.515625 1.508071,-1.507813 1.508071,-1.507813 z"
       id="path819"
       inkscape:connector-curvature="0" />
  </g>
</svg>
