<?xml version="1.0" encoding="UTF-8" standalone="no"?>
<!-- Created with Inkscape (http://www.inkscape.org/) -->

<svg
   version="1.1"
   id="svg2"
   width="1600"
   height="1600"
   viewBox="0 0 1600 1600"
   sodipodi:docname="particles.svg"
   inkscape:version="1.2.2 (732a01da63, 2022-12-09)"
   xmlns:inkscape="http://www.inkscape.org/namespaces/inkscape"
   xmlns:sodipodi="http://sodipodi.sourceforge.net/DTD/sodipodi-0.dtd"
   xmlns="http://www.w3.org/2000/svg"
   xmlns:svg="http://www.w3.org/2000/svg"
   xmlns:rdf="http://www.w3.org/1999/02/22-rdf-syntax-ns#"
   xmlns:cc="http://creativecommons.org/ns#"
   xmlns:dc="http://purl.org/dc/elements/1.1/">
  <metadata
     id="metadata8">
    <rdf:RDF>
      <cc:Work
         rdf:about="">
        <dc:format>image/svg+xml</dc:format>
        <dc:type
           rdf:resource="http://purl.org/dc/dcmitype/StillImage" />
      </cc:Work>
    </rdf:RDF>
  </metadata>
  <defs
     id="defs6" />
  <sodipodi:namedview
     pagecolor="#808080"
     bordercolor="#666666"
     borderopacity="1"
     objecttolerance="10"
     gridtolerance="10"
     guidetolerance="10"
     inkscape:pageopacity="0"
     inkscape:pageshadow="2"
     inkscape:window-width="1993"
     inkscape:window-height="1009"
     id="namedview4"
     showgrid="false"
     inkscape:zoom="0.5"
     inkscape:cx="9"
     inkscape:cy="8"
     inkscape:window-x="-8"
     inkscape:window-y="-8"
     inkscape:window-maximized="1"
     inkscape:current-layer="PARTICLES"
     inkscape:showpageshadow="0"
     inkscape:pagecheckerboard="true"
     inkscape:deskcolor="#d1d1d1" />
  <g
     id="PARTICLES"
     transform="matrix(100,0,0,100,0,4.9999997e-5)"
     style="stroke-width:0.0114286">
    <path
       style="fill:none;stroke-width:0.000357143"
       d="M 0,8 V 0 H 2.0756455 4.1512909 L 3.6705319,1.4453125 C 3.4061144,2.2402344 3.1777103,2.9108811 3.1629672,2.9356385 3.1482241,2.960396 2.4762284,3.2006309 1.6696433,3.4694937 0.44618809,3.8773144 0.203125,3.9678309 0.203125,4.015625 c 0,0.047784 0.2421775,0.1380875 1.4596348,0.5442697 C 2.465559,4.8277337 3.1352859,5.0609375 3.1510419,5.078125 3.1667979,5.095313 3.4005866,5.7738281 3.6705725,6.5859375 3.9911372,7.5501866 4.1759137,8.0625 4.203125,8.0625 4.2303387,8.0625 4.4150309,7.5502662 4.7355181,6.5859375 5.0054163,5.7738281 5.2421344,5.0934825 5.2615584,5.0740584 5.2809825,5.0546344 5.9613281,4.8179162 6.7734375,4.5480181 7.7377662,4.2275309 8.25,4.0428387 8.25,4.015625 8.25,3.9884113 7.7377662,3.8037191 6.7734375,3.4832319 5.9613281,3.2133338 5.280995,2.9766155 5.2615859,2.9571914 5.2421769,2.9377674 5.007765,2.2644531 4.7406703,1.4609375 L 4.2550441,0 H 10.127522 16 v 2.96875 c 0,1.6328125 -0.01055,2.96875 -0.02343,2.96875 -0.05065,0 -2.869128,-0.9470869 -2.898441,-0.9739581 -0.01719,-0.015756 -0.250391,-0.6854828 -0.51823,-1.4882822 -0.406183,-1.2174572 -0.496486,-1.4596347 -0.54427,-1.4596347 -0.04779,0 -0.138311,0.2430631 -0.546131,1.4665184 -0.268863,0.806585 -0.509098,1.478591 -0.533856,1.4933466 -0.02476,0.014756 -0.691888,0.2419509 -1.482513,0.5048784 -1.1987366,0.3986478 -1.4375,0.4875588 -1.4375,0.5352982 0,0.047729 0.2426903,0.1382168 1.4596347,0.5442281 0.8027993,0.267839 1.4725263,0.5010428 1.4882823,0.5182303 0.01576,0.017188 0.249545,0.6957031 0.51953,1.5078125 0.320565,0.9642491 0.505342,1.4765625 0.532553,1.4765625 0.02721,0 0.211906,-0.5122337 0.532393,-1.4765625 0.269898,-0.8121094 0.506616,-1.492455 0.52604,-1.5118791 C 13.105005,7.0431125 15.915887,6.09375 15.976566,6.09375 15.989455,6.09375 16,8.3226563 16,11.046875 V 16 H 11.546875 C 9.0976563,16 7.09375,15.9942 7.09375,15.98704 c 0,-0.04047 1.4474919,-3.384046 1.4783638,-3.41489 0.020494,-0.02048 0.8142143,-0.370067 1.7638242,-0.776871 0.999238,-0.428065 1.726562,-0.756527 1.726562,-0.779722 0,-0.0232 -0.732264,-0.353864 -1.738357,-0.784992 C 9.1751128,9.7381841 8.5723075,9.4642441 8.5460256,9.4225116 8.5241569,9.3877866 8.1798788,8.5964844 7.7809631,7.6640625 7.3609481,6.6823225 7.0387872,5.96875 7.01557,5.96875 6.9923553,5.96875 6.6618962,6.7005341 6.2305631,7.7071066 5.7381841,8.8561372 5.4642441,9.4589425 5.4225116,9.4852244 5.3877866,9.5070931 4.5964844,9.8513713 3.6640625,10.250287 2.6845154,10.669364 1.96875,10.992485 1.96875,11.01561 c 0,0.02312 0.7290821,0.352355 1.7265625,0.779667 0.9496094,0.406804 1.74333,0.756396 1.7638237,0.776871 C 5.4900081,12.602992 6.9375,15.94657 6.9375,15.987038 6.9375,15.994167 5.3765625,16 3.46875,16 H 0 Z"
       id="path825"
       inkscape:connector-curvature="0" />
    <path
       style="fill:#fefefe;stroke-width:0.000357143"
       d="M 6.6285103,12.450608 C 5.8361416,12.237513 5.3459466,11.417082 5.5478497,10.641923 5.7569144,9.83927 6.5760953,9.3441694 7.3580766,9.5478497 8.1583753,9.7563013 8.6557937,10.576236 8.4533853,11.353334 8.2424103,12.163323 7.41352,12.661723 6.6285103,12.450608 Z M 11.671875,6.9469106 c -0.226616,-0.076868 -0.546522,-0.4027212 -0.618687,-0.6301865 -0.06702,-0.2112463 -0.06765,-0.4210263 -0.0019,-0.6246891 0.07227,-0.2237759 0.416943,-0.5684469 0.640719,-0.6407184 0.203662,-0.065776 0.413442,-0.065147 0.624689,0.00187 0.246475,0.078196 0.556124,0.3932938 0.63443,0.6455944 0.147098,0.4739513 -0.08045,0.9919922 -0.529279,1.2049806 -0.206044,0.097776 -0.533426,0.11661 -0.75,0.043147 z m -7.8125,-2 C 3.6327591,4.8700422 3.3128528,4.5441894 3.2406881,4.3167241 3.1736694,4.1054778 3.1730406,3.8956978 3.2388163,3.692035 3.3110878,3.4682591 3.6557588,3.123588 3.8795347,3.0513164 c 0.2036628,-0.065776 0.4134428,-0.065147 0.6246891,0.00187 0.2464756,0.078196 0.5561246,0.3932937 0.63443,0.6455943 0.1470981,0.4739513 -0.080448,0.9919922 -0.5292791,1.2049807 -0.2060434,0.097776 -0.5334253,0.11661 -0.75,0.043148 z"
       id="path823"
       inkscape:connector-curvature="0" />
    <path
       style="fill:#fefe00;stroke-width:0.000357143"
       d="M 6.4833294,13.600053 C 6.0616078,12.613042 5.9289803,12.332807 5.8346525,12.229433 5.7272803,12.111763 5.597415,12.04869 4.4596034,11.561599 3.7685403,11.265759 3.2002888,11.021397 3.1968219,11.018572 3.1933553,11.015747 3.7488241,10.774888 4.4311969,10.483329 5.4182081,10.061608 5.6984428,9.9289803 5.8018169,9.8346525 5.9194866,9.7272803 5.9825597,9.597415 6.4696506,8.4596034 6.7654909,7.7685403 7.0098534,7.2002888 7.0126784,7.1968219 c 0.00282,-0.00347 0.2436838,0.5520022 0.5352422,1.234375 0.4217216,0.9870112 0.5543491,1.2672459 0.6486769,1.37062 0.1073722,0.1176697 0.2372375,0.1807428 1.3750491,0.6678341 0.6910634,0.29584 1.2593144,0.540202 1.2627814,0.543027 0.0035,0.0028 -0.552002,0.243684 -1.2343749,0.535243 -0.9870112,0.421721 -1.2672459,0.554349 -1.37062,0.648677 -0.1176697,0.107372 -0.1807428,0.237237 -0.6678337,1.375049 -0.2958403,0.691063 -0.5402028,1.259314 -0.5430278,1.262781 -0.00282,0.0035 -0.2436838,-0.552002 -0.5352422,-1.234375 z M 7.3580766,12.45215 C 7.8970516,12.311765 8.3122331,11.895254 8.4533853,11.353334 8.6557938,10.576236 8.1583753,9.7563013 7.3580766,9.5478497 6.5760953,9.3441694 5.7569144,9.83927 5.5478497,10.641923 5.2693225,11.711262 6.2887378,12.730678 7.3580766,12.45215 Z M 11.729057,7.7036531 C 11.571638,7.2307066 11.44603,6.84375 11.449926,6.84375 c 0.0039,0 0.06918,0.030002 0.145076,0.06667 0.274181,0.1324697 0.698827,0.1024103 0.935612,-0.066228 0.07283,-0.051874 0.05738,0.00772 -0.205407,0.7920443 -0.156293,0.4664763 -0.289966,0.8659547 -0.297051,0.8877294 -0.0071,0.021775 -0.14168,-0.3473656 -0.299099,-0.8203126 z m 1.115022,-1.1730394 c 0.168604,-0.2362609 0.198857,-0.6613359 0.06656,-0.9351659 -0.03655,-0.07565 -0.06304,-0.1402116 -0.05886,-0.1434706 0.0042,-0.00326 0.390729,0.1222287 0.859001,0.2788612 L 14.562184,6.015625 13.675028,6.3125 C 12.856701,6.5863425 12.792233,6.6032644 12.844079,6.5306137 Z M 10.319654,6.3019991 9.4674328,6.0151794 10.289043,5.7419647 C 10.740929,5.5916966 11.119637,5.46875 11.130616,5.46875 c 0.01098,0 -0.0102,0.059766 -0.04706,0.1328125 -0.0527,0.1044247 -0.06712,0.1895884 -0.06748,0.3984375 -3.91e-4,0.2281091 0.0115,0.2887966 0.08419,0.4296875 0.04656,0.090234 0.08171,0.1629531 0.07813,0.1615969 -0.0036,-0.00136 -0.39002,-0.1315344 -0.858742,-0.2892853 z M 3.9165572,5.7036531 C 3.7591384,5.2307066 3.6335297,4.84375 3.6374263,4.84375 c 0.0039,0 0.069181,0.030002 0.1450759,0.06667 0.2741806,0.1324697 0.6988272,0.1024103 0.9356115,-0.066228 0.072835,-0.051874 0.05738,0.00772 -0.2054071,0.7920443 C 4.3564141,6.1027125 4.2227409,6.5021909 4.2156556,6.5239656 4.20857,6.5457406 4.0739759,6.1766 3.9165572,5.7036531 Z M 12.421875,5.0991441 C 12.287518,5.027425 12.228407,5.0157944 12,5.0161359 c -0.208929,3.125e-4 -0.293973,0.014703 -0.398437,0.06742 -0.07305,0.036862 -0.132813,0.057551 -0.132813,0.045975 0,-0.011576 0.123143,-0.3901762 0.27365,-0.8413337 l 0.273649,-0.8202866 0.28618,0.8597947 c 0.157399,0.4728872 0.283866,0.8586809 0.281038,0.8573194 -0.0028,-0.00136 -0.07545,-0.040007 -0.161392,-0.085881 z M 5.0315794,4.5306137 C 5.2001831,4.2943528 5.2304359,3.8692778 5.0981354,3.5954478 5.0615854,3.5197978 5.0350994,3.4552362 5.0392774,3.4519772 5.0434574,3.4487172 5.4300065,3.5742059 5.898279,3.7308384 L 6.7496841,4.015625 5.8625284,4.3125 C 5.0442013,4.5863425 4.9797334,4.6032644 5.0315794,4.5306137 Z M 2.507154,4.3019991 1.6549329,4.0151794 2.4765432,3.7419647 C 2.9284288,3.5916966 3.3071366,3.46875 3.3181156,3.46875 c 0.010979,0 -0.010197,0.059766 -0.04706,0.1328125 C 3.2183591,3.7059872 3.2039363,3.7911509 3.2035791,4 c -3.907e-4,0.2281091 0.011501,0.2887966 0.084194,0.4296875 0.046557,0.090234 0.081713,0.1629531 0.078125,0.1615969 C 3.3623103,4.5899281 2.9758755,4.45975 2.507154,4.3019991 Z M 4.609375,3.0991441 C 4.4750178,3.0274251 4.4159072,3.0157944 4.1875,3.016136 3.9785713,3.0164485 3.8935269,3.0308388 3.7890625,3.0835557 3.7160156,3.1204181 3.65625,3.1411069 3.65625,3.1295309 c 0,-0.011576 0.1231425,-0.3901763 0.2736497,-0.8413338 L 4.2035494,1.4679108 4.4897287,2.3277054 c 0.1573991,0.472887 0.283866,0.8586809 0.2810382,0.8573193 -0.00283,-0.00136 -0.075454,-0.040008 -0.1613919,-0.085881 z"
       id="path821"
       inkscape:connector-curvature="0" />
    <path
       style="fill:#fecb32;stroke-width:0.000357143"
       d="M 6.2170947,14.29301 C 5.7327378,13.162107 5.4646366,12.572562 5.4226897,12.546143 5.3878666,12.524209 4.5964844,12.179879 3.6640625,11.780963 2.6840465,11.361686 1.96875,11.038769 1.96875,11.015625 c 0,-0.02314 0.7152965,-0.346061 1.6953125,-0.765338 C 4.5964844,9.8513713 5.3877866,9.5070931 5.4225116,9.4852244 5.4642441,9.4589425 5.7381841,8.8561372 6.2305631,7.7071066 6.6626522,6.6987703 6.9923378,5.96875 7.015625,5.96875 c 0.023287,0 0.3529728,0.7300203 0.7850619,1.7383566 0.492379,1.1490306 0.766319,1.7518359 0.8080515,1.7781178 0.034725,0.021869 0.8260272,0.3661469 1.7584496,0.7650626 0.980015,0.419277 1.695312,0.742194 1.695312,0.765338 0,0.02314 -0.715297,0.346061 -1.695312,0.765338 -0.9324224,0.398916 -1.7238046,0.743246 -1.7586277,0.76518 -0.041947,0.02642 -0.3100481,0.615964 -0.794405,1.746867 C 7.1708653,15.794998 7.0749656,16 7.015625,16 6.9562844,16 6.8603847,15.794998 6.2170947,14.29301 Z m 1.3445047,-0.721363 c 0.4870909,-1.137812 0.550164,-1.267677 0.6678337,-1.37505 0.1033741,-0.09433 0.3836088,-0.226955 1.37062,-0.648676 0.6823729,-0.291559 1.2378419,-0.532418 1.2343749,-0.535243 -0.0035,-0.0028 -0.571718,-0.247187 -1.2627814,-0.543027 C 8.433835,9.9825597 8.3039697,9.9194866 8.1965975,9.8018169 8.1022697,9.6984428 7.9696422,9.4182081 7.5479206,8.4311969 7.2563622,7.7488241 7.0155031,7.1933553 7.0126784,7.1968219 7.0098534,7.2002887 6.7654909,7.7685403 6.4696506,8.4596034 5.9825597,9.597415 5.9194866,9.7272803 5.8018169,9.8346525 c -0.1033741,0.094328 -0.3836088,0.2269555 -1.37062,0.6486765 -0.6823728,0.291559 -1.2378416,0.532418 -1.234375,0.535243 0.00347,0.0028 0.5717184,0.247187 1.2627815,0.543027 1.1378116,0.487091 1.2676769,0.550164 1.3750491,0.667834 0.094328,0.103374 0.2269553,0.383609 0.6486769,1.37062 0.2915584,0.682373 0.5324175,1.237842 0.5352422,1.234375 0.00283,-0.0035 0.2471875,-0.571718 0.5430278,-1.262781 z M 11.483073,8.5859375 C 11.213087,7.7738281 10.979298,7.0953125 10.963542,7.078125 10.947786,7.0609375 10.278059,6.8277337 9.4752597,6.5598947 8.2578025,6.1537125 8.015625,6.0634091 8.015625,6.015625 8.015625,5.967831 8.2586881,5.8773144 9.4821434,5.4694937 10.288728,5.2006309 10.960734,4.9603959 10.97549,4.9356384 10.990246,4.9108812 11.217441,4.24375 11.480368,3.453125 c 0.398648,-1.1987365 0.487559,-1.4375 0.535299,-1.4375 0.04773,0 0.138216,0.2426902 0.544228,1.4596347 0.267839,0.8027994 0.501043,1.4725631 0.51823,1.488364 0.01719,0.015801 0.681641,0.2447882 1.476563,0.5088604 C 15.824311,5.8942519 16,5.960275 16,6.015625 c 0,0.055352 -0.175637,0.1213362 -1.445312,0.5429813 -0.794922,0.2639846 -1.461205,0.4959015 -1.48063,0.5153706 -0.01942,0.019469 -0.256142,0.6998512 -0.52604,1.5119606 -0.320487,0.9643288 -0.505179,1.4765625 -0.532393,1.4765625 -0.02721,0 -0.211988,-0.5123134 -0.532552,-1.4765625 z M 12.708598,6.7131456 C 12.81467,6.6045178 12.897095,6.5704063 13.693952,6.3053569 L 14.56355,6.0161122 13.69762,5.72726 C 12.922766,5.4687884 12.819222,5.4262328 12.713146,5.3226525 12.604518,5.2165803 12.570406,5.1341553 12.305357,4.3372984 L 12.016112,3.4676997 11.72726,4.33363 C 11.468788,5.1084838 11.426233,5.2120284 11.322653,5.3181044 11.21658,5.4267322 11.134155,5.4608438 10.337298,5.7258931 L 9.4676997,6.0151378 10.33363,6.30399 c 0.774854,0.2584716 0.878398,0.3010272 0.984474,0.4046075 0.108628,0.1060722 0.14274,0.1884972 0.407789,0.9853541 L 12.015138,8.5635503 12.30399,7.69762 C 12.562462,6.9227663 12.605017,6.8192216 12.708598,6.7131456 Z M 3.6705725,6.5859375 C 3.4005866,5.7738281 3.1667978,5.0953125 3.1510419,5.078125 3.1352859,5.0609375 2.465559,4.8277337 1.6627598,4.5598947 0.4453025,4.1537125 0.203125,4.0634091 0.203125,4.015625 0.203125,3.967831 0.44618809,3.8773144 1.6696433,3.4694937 2.4762284,3.2006309 3.1482344,2.960396 3.16299,2.9356385 3.1777456,2.9108811 3.4049409,2.24375 3.6678684,1.453125 c 0.3986478,-1.19873651 0.4875588,-1.4375 0.5352982,-1.4375 0.047729,0 0.1382168,0.24269021 0.5442281,1.4596348 0.267839,0.8027992 0.5010428,1.4725261 0.5182303,1.488282 0.017188,0.015756 0.6957031,0.2495448 1.5078125,0.5195307 C 7.7376866,3.8036372 8.25,3.9884137 8.25,4.015625 8.25,4.0428387 7.7377662,4.2275309 6.7734375,4.5480181 5.9613281,4.8179163 5.2809825,5.0546344 5.2615584,5.0740584 5.2421344,5.0934825 5.0054162,5.7738281 4.7355181,6.5859375 4.4150309,7.5502662 4.2303387,8.0625 4.203125,8.0625 4.1759138,8.0625 3.9911372,7.5501866 3.6705725,6.5859375 Z M 4.8960975,4.7131456 C 5.0021697,4.6045178 5.0845947,4.5704063 5.8814516,4.3053569 L 6.7510503,4.0161122 5.88512,3.72726 C 5.1102662,3.4687884 5.0067216,3.4262328 4.9006456,3.3226525 4.7920178,3.2165803 4.7579062,3.1341553 4.4928569,2.3372985 L 4.2036122,1.4676998 3.91476,2.33363 C 3.6562884,3.1084837 3.6137328,3.2120284 3.5101525,3.3181044 3.4040803,3.4267322 3.3216553,3.4608438 2.5247985,3.7258931 L 1.6551998,4.0151378 2.52113,4.30399 C 3.2959837,4.5624616 3.3995284,4.6050172 3.5056044,4.7085975 3.6142322,4.8146697 3.6483437,4.8970947 3.9133931,5.6939516 L 4.2026378,6.5635503 4.49149,5.69762 C 4.7499616,4.9227662 4.7925172,4.8192216 4.8960975,4.7131456 Z"
       id="path819"
       inkscape:connector-curvature="0" />
  </g>
</svg>
