<?xml version="1.0" encoding="UTF-8" standalone="no"?>
<!-- Created with Inkscape (http://www.inkscape.org/) -->

<svg
   version="1.1"
   id="svg2"
   width="1600"
   height="1600"
   viewBox="0 0 1600 1600"
   sodipodi:docname="particle_tip.svg"
   inkscape:version="1.2.2 (732a01da63, 2022-12-09)"
   xmlns:inkscape="http://www.inkscape.org/namespaces/inkscape"
   xmlns:sodipodi="http://sodipodi.sourceforge.net/DTD/sodipodi-0.dtd"
   xmlns="http://www.w3.org/2000/svg"
   xmlns:svg="http://www.w3.org/2000/svg"
   xmlns:rdf="http://www.w3.org/1999/02/22-rdf-syntax-ns#"
   xmlns:cc="http://creativecommons.org/ns#"
   xmlns:dc="http://purl.org/dc/elements/1.1/">
  <metadata
     id="metadata8">
    <rdf:RDF>
      <cc:Work
         rdf:about="">
        <dc:format>image/svg+xml</dc:format>
        <dc:type
           rdf:resource="http://purl.org/dc/dcmitype/StillImage" />
      </cc:Work>
    </rdf:RDF>
  </metadata>
  <defs
     id="defs6" />
  <sodipodi:namedview
     pagecolor="#808080"
     bordercolor="#666666"
     borderopacity="1"
     objecttolerance="10"
     gridtolerance="10"
     guidetolerance="10"
     inkscape:pageopacity="0"
     inkscape:pageshadow="2"
     inkscape:window-width="1993"
     inkscape:window-height="1009"
     id="namedview4"
     showgrid="false"
     inkscape:zoom="0.5"
     inkscape:cx="137"
     inkscape:cy="42"
     inkscape:window-x="-8"
     inkscape:window-y="-8"
     inkscape:window-maximized="1"
     inkscape:current-layer="PARTICLE_TIP"
     inkscape:showpageshadow="0"
     inkscape:pagecheckerboard="true"
     inkscape:deskcolor="#d1d1d1" />
  <g
     id="PARTICLE_TIP"
     transform="matrix(100,0,0,100,0,4.9999997e-5)"
     style="stroke-width:0.0114286">
    <path
       style="fill:none;stroke-width:0.000357143"
       d="M 0,8 V 0 L 3.3828125,0.00248437 C 6.3580219,0.00466939 6.74115,0.01022535 6.5625,0.04859484 6.0080494,0.16767678 5.4747506,0.58422312 5.2230478,1.0948078 5.1031516,1.3380203 5.0018684,1.6909872 5.0005425,1.8702291 5.00023,1.9105739 4.8545166,2.1636989 4.6767034,2.4327291 4.2825353,3.0291035 4.1266234,3.3014894 3.8075962,3.9511019 2.6167372,6.3759631 2.0020387,9.5237538 2.000297,13.206045 c -2.594e-4,0.547518 0.00772,0.651236 0.062349,0.810003 0.09064,0.26345 0.18807,0.414135 0.3959612,0.612392 0.3143627,0.299793 0.5846894,0.40281 1.0570182,0.40281 0.4932875,0 0.7935416,-0.123818 1.1132778,-0.459093 0.1880222,-0.197159 0.2671094,-0.330958 0.3558175,-0.601971 0.047852,-0.146191 0.052995,-0.23814 0.036153,-0.646305 C 4.987175,12.507214 5.0809741,10.997073 5.2370334,9.84375 5.5514612,7.5200425 6.1996559,5.6239897 7.1876984,4.1378047 7.2856319,3.9904959 7.3067159,3.975995 7.4728569,3.9416791 7.9888344,3.8351056 8.5309319,3.40425 8.7769522,2.9051922 c 0.2954,-0.5992253 0.2954,-1.2111591 0,-1.8103844 C 8.5252494,0.58422312 7.9919506,0.16767678 7.4375,0.04859484 7.2599462,0.01046081 7.7861253,0.00465598 11.617188,0.00248437 L 16,0 15.9975,2.3828125 C 15.9953,4.5021169 15.9902,4.7431619 15.95139,4.5625 15.832308,4.0080494 15.415762,3.4747506 14.905177,3.2230478 c -0.599225,-0.2953999 -1.211159,-0.2953999 -1.810384,0 -0.447309,0.22051 -0.847889,0.6847816 -0.999086,1.1579397 -0.03154,0.098709 -0.07156,0.1343897 -0.277231,0.2471681 C 11.089005,5.0281722 10.560673,5.4372109 9.8260569,6.1707112 9.0051028,6.9904191 8.5899372,7.5544231 8.1114578,8.5 7.3738556,9.9576591 7.0006444,11.601027 7.0001272,13.393545 c -9.38e-5,0.359608 0.011368,0.473831 0.062518,0.622503 0.09064,0.26345 0.18807,0.414135 0.3959613,0.612392 0.3143625,0.299793 0.5846893,0.40281 1.0570181,0.40281 0.4723288,0 0.7426556,-0.103017 1.0570181,-0.40281 0.2079522,-0.198315 0.3053197,-0.348937 0.3960635,-0.612689 0.053552,-0.155652 0.062344,-0.258329 0.059994,-0.700628 -0.01126,-2.119416 0.842945,-4.1417196 2.245979,-5.3172768 0.364076,-0.3050474 0.841283,-0.6259315 1.227554,-0.8254324 0.253339,-0.1308447 0.315088,-0.1492941 0.585203,-0.1748497 0.580334,-0.054905 0.947188,-0.2191404 1.321765,-0.5917341 0.270665,-0.2692331 0.467589,-0.6209213 0.542203,-0.96833 0.03799,-0.1768638 0.04395,0.4927956 0.04611,5.179688 L 16,16 H 8 0 Z"
       id="path827"
       inkscape:connector-curvature="0" />
    <path
       style="fill:#fefefe;stroke-width:0.000357143"
       d="M 3.1260784,14.462426 C 2.892368,14.372706 2.6559235,14.133148 2.5673059,13.896297 2.5085022,13.73913 2.5000375,13.652406 2.500297,13.209765 2.5013393,11.431772 2.71523,9.2760069 3.0342526,7.828125 3.4232978,6.0624462 4.0423238,4.4416647 4.8025159,3.1983219 5.1452731,2.6377207 5.0949447,2.6677887 5.2365394,2.9390204 5.4723519,3.3907316 5.9544212,3.7805909 6.453125,3.9228981 c 0.103125,0.029427 0.1914012,0.056856 0.1961697,0.060952 0.00477,0.0041 -0.075866,0.1498162 -0.1791869,0.3238219 -1.0009725,1.6857587 -1.6297516,3.8967856 -1.8587522,6.536078 -0.075714,0.87262 -0.118165,1.948176 -0.095589,2.421875 0.019327,0.405537 0.015737,0.451128 -0.049139,0.624032 -0.1939584,0.516927 -0.8054431,0.778192 -1.3405492,0.572769 z m 5,0 C 7.8923678,14.372706 7.6559234,14.133148 7.5673059,13.896297 7.4890384,13.687108 7.4798384,13.354325 7.5325925,12.640625 7.6846447,10.583527 8.2846528,8.9017963 9.4001125,7.40625 9.7305616,6.9632025 10.580575,6.1067034 11.0229,5.7710809 c 0.373816,-0.2836403 0.957331,-0.6599153 0.967762,-0.6240537 0.004,0.013666 0.02853,0.1303165 0.05457,0.2592228 0.09907,0.4905125 0.43065,0.9820275 0.84726,1.2559331 l 0.200616,0.1318975 -0.101239,0.061126 C 12.168214,7.352515 11.559844,7.8843794 11.026503,8.5734178 10.071482,9.8072359 9.5187903,11.509636 9.5238272,13.201958 c 0.00192,0.646031 -0.036201,0.783247 -0.2874091,1.034455 -0.2861078,0.286108 -0.7224369,0.374924 -1.1103347,0.226013 z"
       id="path825"
       inkscape:connector-curvature="0" />
    <path
       style="fill:#fecb32;stroke-width:0.000357143"
       d="M 13,5 V 4 h 1 1 V 5 6 H 14 13 Z M 6,2 V 1 H 7 8 V 2 3 H 7 6 Z"
       id="path823"
       inkscape:connector-curvature="0" />
    <path
       style="fill:#983200;stroke-width:0.000357143"
       d="M 13.5625,6.9514053 C 12.832319,6.7945809 12.200704,6.1571794 12.046855,5.421875 c -0.297121,-1.4200522 0.954968,-2.6721407 2.37502,-2.3750202 0.742912,0.1554411 1.375829,0.7883577 1.53127,1.5312702 0.29819,1.4251613 -0.965246,2.6794197 -2.390645,2.3732803 z M 15,5 V 4 h -1 -1 v 1 1 h 1 1 z M 6.5625,3.9514053 C 5.8323191,3.7945809 5.2007041,3.1571794 5.0468547,2.421875 4.7497344,1.0018229 6.0018228,-0.25026576 7.421875,0.04685475 8.1647875,0.20229588 8.7977041,0.83521259 8.9531453,1.578125 9.2513347,3.0032863 7.9878991,4.2575447 6.5625,3.9514053 Z M 8,2 V 1 H 7 6 v 1 1 h 1 1 z"
       id="path821"
       inkscape:connector-curvature="0" />
    <path
       style="fill:#323232;stroke-width:0.000357143"
       d="M 2.9819752,14.957391 C 2.7200362,14.860004 2.601946,14.781381 2.4006638,14.570358 2.2127068,14.373304 2.1497543,14.269234 2.0590662,14.005644 2.0087514,13.859402 2.000044,13.740931 2.000297,13.206045 2.002048,9.5042659 2.6193918,6.3600487 3.823175,3.921875 4.1435628,3.2729538 4.3250344,2.9565495 4.6974825,2.3974812 L 4.984375,1.9668374 5.0081541,2.1787312 c 0.013078,0.1165416 0.043562,0.2799953 0.06774,0.3632305 L 5.119855,2.6932983 4.9566372,2.9482117 C 3.8149256,4.731335 3.045861,7.0573197 2.7197692,9.7134694 2.5879468,10.787215 2.5009043,12.173844 2.500297,13.209765 c -3.65e-4,0.622549 0.043566,0.775674 0.29454,1.026648 0.516508,0.516508 1.4180439,0.329515 1.6717905,-0.346756 0.064876,-0.172904 0.068466,-0.218495 0.049139,-0.624032 C 4.4931906,12.791926 4.5356419,11.71637 4.6113556,10.84375 4.8391891,8.2179091 5.4417869,6.0829966 6.4416275,4.359375 l 0.2175306,-0.375 h 0.3109347 c 0.1710141,0 0.3109847,0.00429 0.3110459,0.00953 6.26e-5,0.00524 -0.053881,0.089615 -0.1198728,0.1875 -0.9486415,1.4071197 -1.612965,3.3619931 -1.9242325,5.662345 -0.1560593,1.153323 -0.2498584,2.663464 -0.2161603,3.480131 0.016842,0.408165 0.011699,0.500114 -0.036153,0.646305 -0.088708,0.271013 -0.1677953,0.404812 -0.3558175,0.601971 -0.3238369,0.339574 -0.6201312,0.459953 -1.1259825,0.457465 -0.2640137,-0.0013 -0.3694969,-0.01592 -0.5209451,-0.07223 z m 5.0000001,0 C 7.7200362,14.860004 7.6019459,14.781381 7.4006637,14.570358 7.0802941,14.234483 6.9999525,13.998433 7.0001272,13.393545 7.0006428,11.601027 7.3738556,9.9576591 8.1114578,8.5 8.5899372,7.5544231 9.0051028,6.9904191 9.8260569,6.1707112 10.563173,5.4347141 11.088438,5.02849 11.825921,4.6240781 c 0.199791,-0.1095587 0.243286,-0.1241453 0.224516,-0.075293 -0.0128,0.033325 -0.03143,0.1759587 -0.0414,0.316965 l -0.01812,0.2563747 -0.268898,0.1646297 c -0.771935,0.47261 -1.7796779,1.3925021 -2.3219095,2.1194959 -1.1154597,1.4955463 -1.7154678,3.1772766 -1.86752,5.2343746 -0.076899,1.040358 -0.034366,1.299178 0.2622444,1.595788 0.398709,0.398709 1.0428672,0.398709 1.4415762,0 0.2512082,-0.251208 0.2893316,-0.388424 0.2874091,-1.034455 -9.594e-4,-0.322584 0.018791,-0.687072 0.050457,-0.931132 0.303839,-2.3418134 1.4053888,-4.1566119 3.2069658,-5.2834594 l 0.315794,-0.1975225 0.178043,0.071723 c 0.09792,0.039448 0.275036,0.088537 0.393582,0.1090875 l 0.215539,0.037364 -0.109028,0.037483 c -0.168667,0.057985 -0.572707,0.2828235 -0.900175,0.500926 -0.76593,0.51013 -1.355808,1.1301356 -1.843699,1.9378644 -0.644992,1.067816 -1.009873,2.461991 -1.0026,3.830832 0.0023,0.442299 -0.0064,0.544976 -0.059994,0.700628 -0.090744,0.263752 -0.1881113,0.414374 -0.3960635,0.612689 -0.3185253,0.303763 -0.5846465,0.403568 -1.0697228,0.401182 -0.2640137,-0.0013 -0.3694969,-0.01592 -0.520945,-0.07223 z"
       id="path819"
       inkscape:connector-curvature="0" />
  </g>
</svg>
