<?xml version="1.0" encoding="UTF-8" standalone="no"?>
<!-- Created with Inkscape (http://www.inkscape.org/) -->

<svg
   version="1.1"
   id="svg2"
   width="1600"
   height="1600"
   viewBox="0 0 1600 1600"
   sodipodi:docname="pasteflipdown.svg"
   inkscape:version="1.2.2 (732a01da63, 2022-12-09)"
   xmlns:inkscape="http://www.inkscape.org/namespaces/inkscape"
   xmlns:sodipodi="http://sodipodi.sourceforge.net/DTD/sodipodi-0.dtd"
   xmlns="http://www.w3.org/2000/svg"
   xmlns:svg="http://www.w3.org/2000/svg"
   xmlns:rdf="http://www.w3.org/1999/02/22-rdf-syntax-ns#"
   xmlns:cc="http://creativecommons.org/ns#"
   xmlns:dc="http://purl.org/dc/elements/1.1/">
  <metadata
     id="metadata8">
    <rdf:RDF>
      <cc:Work
         rdf:about="">
        <dc:format>image/svg+xml</dc:format>
        <dc:type
           rdf:resource="http://purl.org/dc/dcmitype/StillImage" />
      </cc:Work>
    </rdf:RDF>
  </metadata>
  <defs
     id="defs6" />
  <sodipodi:namedview
     pagecolor="#808080"
     bordercolor="#666666"
     borderopacity="1"
     objecttolerance="10"
     gridtolerance="10"
     guidetolerance="10"
     inkscape:pageopacity="0"
     inkscape:pageshadow="2"
     inkscape:window-width="2560"
     inkscape:window-height="1009"
     id="namedview4"
     showgrid="false"
     inkscape:zoom="0.5"
     inkscape:cx="1104"
     inkscape:cy="958"
     inkscape:window-x="-8"
     inkscape:window-y="-8"
     inkscape:window-maximized="1"
     inkscape:current-layer="PASTEFLIPDOWN"
     inkscape:showpageshadow="0"
     inkscape:pagecheckerboard="true"
     inkscape:deskcolor="#d1d1d1" />
  <g
     id="PASTEFLIPDOWN"
     transform="scale(99.997665)"
     style="stroke-width:0.0100002">
    <path
       style="fill:none;stroke-width:0.000312507"
       d="M 0,8 V 0 l 6.9140625,0.00149176 c 6.3274115,0.00136519 6.9021455,0.00566135 6.7736055,0.05063303 -0.307481,0.10757792 -0.531723,0.33441462 -0.636909,0.6442798 -0.07565,0.22287088 -0.07565,2.38431991 0,2.60719071 0.104806,0.308745 0.342806,0.5496231 0.632339,0.639986 C 13.754269,3.9657938 13.8125,3.9911822 13.8125,4 c 0,0.00882 -0.05823,0.034206 -0.129402,0.056419 C 13.393565,4.146782 13.155565,4.38766 13.050759,4.696405 13.009796,4.8170759 13,4.9828319 13,5.55527 V 6.2646056 L 12.648438,5.9151262 C 12.455078,5.7229128 12.257288,5.5508766 12.208903,5.5328234 12.155773,5.513 11.800228,5.5 11.311192,5.5 h -0.80974 l -0.0085,-1.8414797 c -0.0084,-1.804342 -0.0098,-1.8432196 -0.07297,-1.9277565 -0.03544,-0.047452 -0.103249,-0.1152709 -0.150693,-0.1507079 -0.08353,-0.062387 -0.128738,-0.064709 -1.4250173,-0.073202 l -1.338755,-0.00877 -0.010552,-0.340612 C 7.4835259,0.78944791 7.4562647,0.71970866 7.269215,0.58005591 7.1845541,0.51684728 7.1509909,0.515625 5.5,0.515625 c -1.6509909,0 -1.6845541,0.001222 -1.769215,0.0644309 -0.1870497,0.13965275 -0.2143109,0.209392 -0.2257119,0.5774154 l -0.010552,0.340612 -1.338755,0.00877 C 0.85948653,1.5153467 0.81427459,1.5176692 0.73074912,1.5800559 0.68330484,1.6154929 0.61549287,1.683321 0.58005591,1.730785 L 0.515625,1.8170832 v 6.6672918 6.667292 l 0.0644309,0.0863 c 0.035437,0.04746 0.10326506,0.115292 0.15072906,0.150729 0.0858323,0.06408 0.10339587,0.06443 3.25359004,0.06443 3.1501941,0 3.1677578,-3.47e-4 3.25359,-0.06443 0.2124003,-0.15858 0.21516,-0.170178 0.21516,-0.904319 0,-0.734124 -0.00275,-0.745701 -0.2151284,-0.904319 -0.083827,-0.06261 -0.12748,-0.06468 -1.5436669,-0.07316 L 4.2369294,13.498176 4.7352859,12.999088 5.2336425,12.5 h 1.1322144 1.1322144 l 0.00878,1.341494 c 0.0085,1.299043 0.010816,1.344224 0.073208,1.427757 0.035437,0.04744 0.10326,0.115256 0.1507182,0.150693 0.085351,0.06373 0.115169,0.06452 2.7480685,0.07302 l 2.661782,0.0086 0.06904,0.106222 c 0.08344,0.12837 0.287189,0.273336 0.478,0.340095 0.12854,0.04497 -0.446194,0.04927 -6.7736051,0.05063 L 0,16 Z m 15.312332,7.947875 c 0.07725,-0.02703 0.199897,-0.09004 0.272548,-0.140023 0.153678,-0.105733 0.293309,-0.296342 0.362995,-0.49552 l 0.04914,-0.140457 0.0015,0.414062 L 16,16 15.585938,15.9985 15.171875,15.997 15.312332,15.94786 Z m 0.631249,-3.264777 c -0.05478,-0.17553 -0.206842,-0.389661 -0.336194,-0.47343 -0.09529,-0.06171 -0.106613,-0.08397 -0.106613,-0.209668 0,-0.125695 0.01132,-0.147955 0.106613,-0.209668 0.12863,-0.0833 0.2736,-0.28682 0.340488,-0.478 0.04707,-0.134524 0.0492,-0.105807 0.05063,0.679855 8.22e-4,0.451172 -0.0021,0.820313 -0.0065,0.820313 -0.0044,0 -0.02619,-0.05823 -0.0484,-0.129402 z m 0,-4.0000002 C 15.886008,8.4986262 15.738808,8.2980525 15.581638,8.1899169 15.507204,8.1387053 15.388073,8.0786312 15.316902,8.0564188 15.245731,8.0342063 15.1875,8.0088178 15.1875,8 c 0,-0.00882 0.05823,-0.034206 0.129402,-0.056419 0.285357,-0.08906 0.525244,-0.3290512 0.630973,-0.6312496 0.04707,-0.1345238 0.0492,-0.1058063 0.05063,0.6798559 8.22e-4,0.4511719 -0.0021,0.8203125 -0.0065,0.8203125 -0.0044,0 -0.02619,-0.058231 -0.0484,-0.1294022 z m 0,-4 C 15.886008,4.4986262 15.738808,4.2980525 15.581638,4.1899169 15.507204,4.1387053 15.388073,4.0786312 15.316902,4.0564187 15.245731,4.0342063 15.1875,4.0088178 15.1875,4 c 0,-0.00882 0.05823,-0.034206 0.129402,-0.056419 0.285357,-0.08906 0.525244,-0.3290512 0.630973,-0.6312496 0.04707,-0.1345238 0.0492,-0.1058063 0.05063,0.6798559 8.22e-4,0.4511719 -0.0021,0.8203125 -0.0065,0.8203125 -0.0044,0 -0.02619,-0.058231 -0.0484,-0.1294022 z m 0,-3.99999999 C 15.854522,0.39774081 15.61453,0.15785433 15.312332,0.05212479 L 15.171875,0.00298352 15.585938,0.00149176 16,0 v 0.40625 c 0,0.2234375 -0.0036,0.40625 -0.008,0.40625 -0.0044,0 -0.02619,-0.058231 -0.0484,-0.12940219 z"
       id="path849"
       inkscape:connector-curvature="0" />
    <path
       style="fill:#fefefe;stroke-width:0.000312507"
       d="M 8,12.386003 V 9.7720069 L 8.2679719,9.4940284 C 8.6257494,9.1228909 8.6993694,8.9663484 8.7134063,8.546875 8.7221294,8.2861922 8.7127,8.2045694 8.6565369,8.0546222 8.5688588,7.8205328 8.3841631,7.5899712 8.1708766,7.4483569 L 8,7.3349012 V 6.6674506 6 H 9.75 11.5 V 7.75 9.5 H 12.25 13 v 0.827033 c 0,0.68106 0.009,0.853425 0.05076,0.976562 0.104806,0.308745 0.342806,0.549623 0.632339,0.639986 0.07117,0.02221 0.129402,0.0476 0.129402,0.05642 0,0.0088 -0.05823,0.03421 -0.129402,0.05642 -0.289533,0.09036 -0.527533,0.331241 -0.632339,0.639986 C 13.007788,12.822992 13,13.011183 13,13.922967 V 15 H 10.5 8 Z M 12,7.4925537 V 5.9851075 l 0.5,0.4992675 c 0.401523,0.400935 0.5,0.51605 0.5,0.5844791 0,0.1266234 0.08942,0.3666815 0.192273,0.516194 0.105986,0.1540619 0.307633,0.3013591 0.490825,0.3585331 C 13.754269,7.9657937 13.8125,7.9911822 13.8125,8 c 0,0.00882 -0.05823,0.034206 -0.129402,0.056419 C 13.499906,8.1135928 13.298259,8.26089 13.192273,8.4149519 13.091991,8.5607241 13,8.8037772 13,8.9229672 V 9 H 12.5 12 Z"
       id="path847"
       inkscape:connector-curvature="0" />
    <path
       style="fill:#98cbfe;stroke-width:0.000312507"
       d="M 1,11.984375 V 9 H 1.5 2 v 1.967168 1.967167 l 2.5078878,-2.50946 C 6.2550522,8.676615 7.0584087,7.8934553 7.1563253,7.8430209 7.5184878,7.65648 7.98626,7.8243038 8.1600362,8.203125 c 0.075278,0.1641 0.074689,0.4317731 -0.0013,0.59375 C 8.1186406,8.8823303 7.3032469,9.7176903 5.5812944,11.437427 4.1959569,12.820981 3.0625,13.963559 3.0625,13.97649 3.0625,13.98942 3.9414063,14 5.015625,14 H 6.96875 v 0.484375 0.484375 H 3.984375 1 Z"
       id="path845"
       inkscape:connector-curvature="0" />
    <path
       style="fill:#cbcbcb;stroke-width:0.000312507"
       d="M 3,3.5 V 3 H 5.5 8 V 3.5 4 H 5.5 3 Z m 1,-2 V 1 H 5.5 7 V 1.5 2 H 5.5 4 Z"
       id="path843"
       inkscape:connector-curvature="0" />
    <path
       style="fill:#c9cbcc;stroke-width:0.000312507"
       d="m 6.390625,8.53125 c 0.031109,-0.034375 0.063593,-0.0625 0.072187,-0.0625 0.00859,0 -0.00983,0.028125 -0.040937,0.0625 -0.031109,0.034375 -0.063593,0.0625 -0.072187,0.0625 -0.00859,0 0.00983,-0.028125 0.040937,-0.0625 z"
       id="path841"
       inkscape:connector-curvature="0" />
    <path
       style="fill:#a9acc9;stroke-width:0.000312507"
       d="M 8.09375,9.640625 C 8.1520556,9.5804688 8.2067916,9.53125 8.2153853,9.53125 c 0.00859,0 -0.03208,0.049219 -0.090385,0.109375 C 8.0666944,9.7007813 8.0119584,9.75 8.0033647,9.75 c -0.00859,0 0.03208,-0.049219 0.090385,-0.109375 z"
       id="path839"
       inkscape:connector-curvature="0" />
    <path
       style="fill:#fecb32;stroke-width:0.000312507"
       d="m 14,14 v -1 h 0.5 0.5 v 1 1 H 14.5 14 Z M 6.609375,11.125 C 7.0903947,10.64375 7.4875663,10.25 7.4919781,10.25 7.4963903,10.25 7.5,10.64375 7.5,11.125 V 12 H 6.6173969 5.7347934 Z M 2.4931083,10.258619 C 2.4846257,8.8584022 2.4825254,8.8145425 2.4199441,8.7307528 2.2653337,8.5237463 2.2387763,8.5165381 1.5915637,8.5059184 L 1,8.4962119 V 5.2481059 2 H 2.25 3.5 V 2.2472351 2.4944703 L 3.1584297,2.5050476 C 2.7893538,2.5164767 2.719789,2.5436277 2.5800559,2.730785 2.5195796,2.8117864 2.515625,2.8589985 2.515625,3.5 c 0,0.7516262 0.00218,0.7609284 0.21516,0.9199441 0.085593,0.063904 0.1082345,0.064431 2.769215,0.064431 2.6609806,0 2.6836225,-5.281e-4 2.769215,-0.064431 C 8.4821994,4.2609284 8.484375,4.2516262 8.484375,3.5 8.484375,2.8589985 8.480425,2.8117864 8.419944,2.730785 8.2802109,2.5436277 8.2106463,2.5164768 7.8415703,2.5050476 L 7.5,2.4944703 V 2.2472351 2 H 8.75 10 v 1.7488462 1.7488466 l -1.0915078,0.00897 C 7.8621997,5.5152534 7.8134119,5.5182941 7.7307356,5.5800559 7.5185044,5.7386 7.5165506,5.7468622 7.5062069,6.5296003 l -0.00942,0.71269 -0.179786,0.020341 C 7.2181189,7.2738183 7.0465756,7.3256013 6.935794,7.3777045 6.7515356,7.4643655 6.5540534,7.6525545 4.6181062,9.5863282 L 2.5018415,11.700219 Z M 14,10 V 9 h 0.5 0.5 v 1 1 H 14.5 14 Z M 14,6 V 5 H 14.5 15 V 6 7 H 14.5 14 Z M 14,2 V 1 H 14.5 15 V 2 3 H 14.5 14 Z"
       id="path837"
       inkscape:connector-curvature="0" />
    <path
       style="fill:#7ca4cc;stroke-width:0.000312507"
       d="M 7.703125,9.3125 C 7.8225156,9.1921875 7.92723,9.09375 7.9358237,9.09375 c 0.00859,0 -0.082058,0.098437 -0.2014487,0.21875 -0.1193906,0.1203125 -0.224105,0.21875 -0.2326988,0.21875 -0.00859,0 0.082058,-0.098437 0.2014488,-0.21875 z"
       id="path835"
       inkscape:connector-curvature="0" />
    <path
       style="fill:#8c92bb;stroke-width:0.000312507"
       d="M 8.3125,9.421875 C 8.3708056,9.3617188 8.4255416,9.3125 8.4341353,9.3125 c 0.00859,0 -0.03208,0.049219 -0.090385,0.109375 C 8.2854443,9.482031 8.2307087,9.53125 8.222115,9.53125 c -0.00859,0 0.03208,-0.049219 0.090385,-0.109375 z"
       id="path833"
       inkscape:connector-curvature="0" />
    <path
       style="fill:#989898;stroke-width:0.000312507"
       d="M 4,2.5 V 2 H 5.5 7 V 2.5 3 H 5.5 4 Z"
       id="path831"
       inkscape:connector-curvature="0" />
    <path
       style="fill:#8c7686;stroke-width:0.000312507"
       d="m 6.59375,7.6132013 c 0,-0.00649 0.024609,-0.031098 0.054687,-0.054687 0.049564,-0.038871 0.05067,-0.037766 0.011799,0.011799 -0.040824,0.052055 -0.066486,0.068609 -0.066486,0.042888 z"
       id="path829"
       inkscape:connector-curvature="0" />
    <path
       style="fill:#655c8f;stroke-width:0.000312507"
       d="M 6.3125,7.890625 C 6.4578347,7.7445312 6.5837762,7.625 6.59237,7.625 6.6009637,7.625 6.4890847,7.7445312 6.34375,7.890625 6.1984153,8.0367188 6.0724738,8.15625 6.06388,8.15625 c -0.00859,0 0.1032853,-0.1195312 0.24862,-0.265625 z"
       id="path827"
       inkscape:connector-curvature="0" />
    <path
       style="fill:#656565;stroke-width:0.000312507"
       d="M 11.5,7.75 V 6 H 11.75 12 V 7.5 9 H 12.5 13 V 9.25 9.5 H 12.25 11.5 Z"
       id="path825"
       inkscape:connector-curvature="0" />
    <path
       style="fill:#1d327c;stroke-width:0.000312507"
       d="M 7.8424441,9.8984375 C 7.9190694,9.8167969 7.9858662,9.75 7.9908816,9.75 c 0.023465,0 -0.00134,0.028057 -0.1393191,0.1575559 L 7.703125,10.046875 Z"
       id="path823"
       inkscape:connector-curvature="0" />
    <path
       style="fill:#003298;stroke-width:0.000312507"
       d="m 0.79532572,15.425031 c -0.12586203,-0.05513 -0.25716694,-0.214768 -0.27967688,-0.340013 -0.009948,-0.05535 -0.0140236,-1.488287 -0.009056,-3.184297 0.008959,-3.0586738 0.009554,-3.0843541 0.073463,-3.1699444 C 0.73908216,8.5177991 0.74837828,8.515625 1.5,8.515625 c 0.7516092,0 0.7608889,0.00217 0.9199441,0.2151278 0.062576,0.083782 0.064682,0.1276785 0.073158,1.5245352 l 0.00873,1.438268 L 4.631136,9.5770694 C 7.08988,7.1331219 6.9263184,7.265625 7.484375,7.265625 c 0.2866097,0 0.3299519,0.00827 0.5231484,0.099785 C 8.2684128,7.488995 8.5065119,7.721045 8.6190316,7.9613816 8.7384584,8.2164709 8.7553978,8.6793556 8.655325,8.953125 8.5894059,9.1334603 8.5036763,9.2238803 6.4117962,11.3194 l -2.1749909,2.178775 1.4574625,0.0087 c 1.4162491,0.0085 1.4599016,0.01055 1.5437288,0.07316 0.2123743,0.158618 0.2151284,0.170195 0.2151284,0.904319 0,0.734136 -0.00276,0.745729 -0.2151519,0.904319 -0.085662,0.06396 -0.1090734,0.06448 -3.216819,0.07126 -2.5548591,0.0056 -3.1480536,-8.5e-4 -3.22582838,-0.03492 z M 6.96875,14.484375 V 14 H 5.015625 C 3.9414063,14 3.0625,13.988127 3.0625,13.973615 c 0,-0.01451 1.1337028,-1.155773 2.5193397,-2.536135 C 7.3899566,9.6362466 8.1175809,8.8916166 8.1592784,8.7998031 8.3207616,8.4442334 8.1525944,7.9997847 7.7912641,7.8271794 7.6209228,7.7458081 7.3355169,7.7515669 7.15625,7.8399919 7.0540097,7.8904228 6.3310997,8.5960772 4.5078125,10.425212 L 2,12.941068 V 10.970534 9 H 1.5 1 v 2.984375 2.984375 H 3.984375 6.96875 Z"
       id="path821"
       inkscape:connector-curvature="0" />
    <path
       style="fill:#323232;stroke-width:0.000312507"
       d="m 13.687668,15.948933 c -0.192061,-0.06864 -0.395026,-0.213501 -0.478,-0.341153 l -0.06904,-0.106222 -2.661782,-0.0086 c -2.6328999,-0.0085 -2.6627183,-0.0093 -2.7480689,-0.07302 -0.047458,-0.03544 -0.1152813,-0.103249 -0.1507182,-0.150693 -0.062392,-0.08353 -0.064709,-0.128714 -0.073208,-1.427757 L 7.4980712,12.5 H 6.3669562 5.2358412 L 5.484375,12.25 5.7329087,12 H 6.6164544 7.5 V 11.113828 10.227655 L 7.75,10.001918 8,9.7761812 V 12.388091 15 h 2.5 2.5 v -1.077033 c 0,-0.911785 0.0078,-1.099975 0.05076,-1.226562 0.104806,-0.308745 0.342806,-0.549623 0.632339,-0.639986 0.07117,-0.02221 0.129402,-0.0476 0.129402,-0.05642 0,-0.0088 -0.05823,-0.03421 -0.129402,-0.05642 -0.289534,-0.09036 -0.527534,-0.331239 -0.63234,-0.639984 C 13.007529,11.176246 13,10.982878 13,10 13,9.0171219 13.0075,8.8237538 13.05076,8.6964047 13.155566,8.3876597 13.393566,8.1467816 13.683099,8.0564187 13.754269,8.0342063 13.8125,8.0088178 13.8125,8 13.8125,7.99118 13.75427,7.965794 13.683098,7.943581 13.499906,7.8864072 13.298259,7.73911 13.192273,7.5850481 13.089418,7.4355356 13,7.1954775 13,7.0688541 13,7.0004787 12.902681,6.8864662 12.507457,6.4918212 L 12.014914,6 H 10.007457 8 V 6.6752184 C 8,7.3058712 7.9963906,7.3489778 7.9453125,7.3283316 7.9152344,7.3161734 7.8020206,7.2905966 7.6937266,7.2714941 l -0.1968985,-0.034732 0.0094,-0.709926 c 0.010321,-0.7796478 0.012375,-0.788309 0.224509,-0.9467803 0.082676,-0.061762 0.1314641,-0.064802 1.1777566,-0.073397 L 10,5.4976928 V 3.7488463 2 H 8.75 7.5 v 0.2472351 0.2472352 l 0.3415703,0.010577 c 0.369076,0.011429 0.4386406,0.03858 0.5783738,0.2257374 0.060476,0.081001 0.064431,0.1282135 0.064431,0.769215 0,0.7516262 -0.00217,0.7609284 -0.21516,0.9199441 C 8.1836225,4.4838481 8.1609806,4.484375 5.5,4.484375 2.8390195,4.484375 2.8163776,4.4838481 2.730785,4.4199441 2.5178006,4.2609284 2.515625,4.2516262 2.515625,3.5 c 0,-0.6410015 0.00395,-0.6882136 0.064431,-0.769215 C 2.719789,2.5436277 2.7893538,2.5164768 3.1584297,2.5050476 L 3.5,2.4944703 V 2.2472351 2 H 2.25 1 v 3.2465222 3.2465222 l -0.10845509,0.020346 c -0.132665,0.024888 -0.29170669,0.1538097 -0.34780397,0.281935 -0.0350652,0.080089 -0.0406389,-0.4692062 -0.0349205,-3.4414781 0.006769,-3.518087 0.007145,-3.5372337 0.0712354,-3.6230692 0.035437,-0.04746 0.10324893,-0.1152854 0.15069321,-0.1507224 0.0835255,-0.062387 0.12873741,-0.064709 1.42501715,-0.073202 l 1.338755,-0.00877 0.010552,-0.340612 C 3.5164741,0.78944791 3.5437353,0.71970866 3.730785,0.58005591 3.8154459,0.51684728 3.8490091,0.515625 5.5,0.515625 c 1.6509909,0 1.6845541,0.001222 1.769215,0.0644309 0.1870497,0.13965275 0.2143109,0.209392 0.2257119,0.5774154 l 0.010552,0.340612 1.3387551,0.00877 c 1.296279,0.00849 1.341491,0.010815 1.425017,0.073202 0.04744,0.035437 0.115256,0.1032555 0.150693,0.1507078 0.06313,0.084537 0.0646,0.1234145 0.07297,1.9277566 L 10.501452,5.5 h 0.80974 c 0.489036,0 0.844581,0.013 0.897711,0.032823 0.04839,0.018053 0.246175,0.1900894 0.439535,0.3823028 L 13,6.2646056 V 5.55527 C 13,4.9828319 13.0098,4.8170759 13.05076,4.6964047 13.155566,4.3876597 13.393566,4.1467816 13.683099,4.0564188 13.754269,4.0342063 13.8125,4.0088178 13.8125,4 13.8125,3.99118 13.75427,3.965794 13.683098,3.943581 13.390128,3.852146 13.150431,3.6069095 13.048031,3.2938401 13.003911,3.1589526 12.998391,2.9790427 13.006401,1.9363596 l 0.0092,-1.2019848 0.07738,-0.15625 C 13.19166,0.37891184 13.378912,0.19166038 13.578125,0.0930044 13.731553,0.01702246 13.748202,0.015625 14.5,0.015625 c 0.751798,0 0.768447,0.0013975 0.921875,0.0773794 0.199213,0.09865598 0.386465,0.28590744 0.485121,0.4851206 l 0.07738,0.15625 0.0092,1.2019848 c 0.008,1.0426831 0.0025,1.222593 -0.04163,1.3574805 -0.1024,0.3130694 -0.342097,0.5583056 -0.635067,0.6497409 C 15.245731,3.9657938 15.1875,3.9911822 15.1875,4 c 0,0.00882 0.05823,0.034206 0.129402,0.056419 0.289533,0.090363 0.527533,0.331241 0.632339,0.639986 0.07565,0.2228709 0.07565,2.3843197 0,2.6071906 -0.104806,0.308745 -0.342806,0.5496231 -0.632339,0.6399859 C 15.245731,7.9657937 15.1875,7.9911822 15.1875,8 c 0,0.00882 0.05823,0.034206 0.129402,0.056419 0.289533,0.090363 0.527533,0.3312409 0.632339,0.6399859 C 15.992471,8.8237538 16,9.0171219 16,10 c 0,0.982878 -0.0075,1.176246 -0.05076,1.303595 -0.06717,0.197873 -0.210142,0.40144 -0.341854,0.486737 -0.09529,0.06171 -0.106613,0.08397 -0.106613,0.209668 0,0.125695 0.01132,0.147955 0.106613,0.209668 0.134311,0.08698 0.278672,0.294984 0.344582,0.496492 0.04412,0.134887 0.04964,0.314797 0.04163,1.35748 l -0.0092,1.201985 -0.07738,0.15625 c -0.09866,0.199213 -0.285908,0.386465 -0.485121,0.485121 -0.15097,0.07476 -0.180538,0.07763 -0.875,0.08476 -0.594434,0.0061 -0.743044,-0.0013 -0.859207,-0.04282 z M 15,14 V 13 H 14.5 14 v 1 1 h 0.5 0.5 z m 0,-4 V 9 H 14.5 14 v 1 1 H 14.5 15 Z M 15,6 V 5 H 14.5 14 V 6 7 H 14.5 15 Z M 8,3.5 V 3 H 7.5 7 V 2 1 H 5.5 4 V 2 3 H 3.5 3 V 3.5 4 H 5.5 8 Z M 15,2 V 1 H 14.5 14 v 1 1 h 0.5 0.5 z"
       id="path819"
       inkscape:connector-curvature="0" />
  </g>
</svg>
