<?xml version="1.0" encoding="UTF-8" standalone="no"?>
<!-- Created with Inkscape (http://www.inkscape.org/) -->

<svg
   version="1.1"
   id="svg2"
   width="1600"
   height="1600"
   viewBox="0 0 1600 1600"
   sodipodi:docname="pasteflipup.svg"
   inkscape:version="1.2.2 (732a01da63, 2022-12-09)"
   xmlns:inkscape="http://www.inkscape.org/namespaces/inkscape"
   xmlns:sodipodi="http://sodipodi.sourceforge.net/DTD/sodipodi-0.dtd"
   xmlns="http://www.w3.org/2000/svg"
   xmlns:svg="http://www.w3.org/2000/svg"
   xmlns:rdf="http://www.w3.org/1999/02/22-rdf-syntax-ns#"
   xmlns:cc="http://creativecommons.org/ns#"
   xmlns:dc="http://purl.org/dc/elements/1.1/">
  <metadata
     id="metadata8">
    <rdf:RDF>
      <cc:Work
         rdf:about="">
        <dc:format>image/svg+xml</dc:format>
        <dc:type
           rdf:resource="http://purl.org/dc/dcmitype/StillImage" />
      </cc:Work>
    </rdf:RDF>
  </metadata>
  <defs
     id="defs6" />
  <sodipodi:namedview
     pagecolor="#808080"
     bordercolor="#666666"
     borderopacity="1"
     objecttolerance="10"
     gridtolerance="10"
     guidetolerance="10"
     inkscape:pageopacity="0"
     inkscape:pageshadow="2"
     inkscape:window-width="2560"
     inkscape:window-height="1009"
     id="namedview4"
     showgrid="false"
     inkscape:zoom="0.5"
     inkscape:cx="356"
     inkscape:cy="334"
     inkscape:window-x="-8"
     inkscape:window-y="-8"
     inkscape:window-maximized="1"
     inkscape:current-layer="PASTEFLIPUP"
     inkscape:showpageshadow="0"
     inkscape:pagecheckerboard="true"
     inkscape:deskcolor="#d1d1d1" />
  <g
     id="PASTEFLIPUP"
     transform="matrix(100.05893,0,0,100.05893,-0.17214368,-0.20980809)"
     style="stroke-width:0.00999404">
    <path
       style="fill:none;stroke-width:0.000312315"
       d="m 0.00149176,15.585938 0.00149176,-0.414063 0.04914127,0.140457 c 0.10609849,0.303253 0.33229059,0.529445 0.63554358,0.635543 L 0.828125,15.997017 0.4140625,15.998508 0,16 Z M 2.3123316,15.947875 C 2.6198132,15.840297 2.8440549,15.613461 2.949241,15.303595 2.9924766,15.176229 3,14.982733 3,13.998127 3,12.937452 2.9950442,12.828088 2.9398652,12.671094 L 2.8797304,12.5 h 2.3091705 2.3091703 l 0.00878,1.341494 c 0.0085,1.299043 0.010816,1.344224 0.073208,1.427757 0.035437,0.04744 0.103265,0.115256 0.1507291,0.150693 0.086018,0.06422 0.098245,0.06443 3.7692147,0.06443 3.67097,0 3.683197,-2.19e-4 3.769215,-0.06443 0.199588,-0.149014 0.214263,-0.195101 0.225288,-0.707531 0.0094,-0.434685 0.01584,-0.479411 0.08473,-0.58377 0.116523,-0.176536 0.181483,-0.479723 0.160997,-0.751427 -0.01365,-0.181115 -0.04245,-0.282624 -0.130945,-0.461691 l -0.113441,-0.229533 0.0043,-1.897684 c 0.0024,-1.0437255 0.0033,-1.9248442 0.0021,-1.9580417 -0.0013,-0.034302 -0.217227,-0.2771329 -0.500255,-0.5625 L 14.503948,7.765625 14.494162,7.2912306 c -0.01065,-0.5164969 -0.02496,-0.56174 -0.224824,-0.7111747 -0.0766,-0.057275 -0.138865,-0.065488 -0.560569,-0.073946 L 13.234375,6.496595 12.765625,6.0310772 C 12.507813,5.7750425 12.257288,5.5508087 12.208903,5.5327797 12.155856,5.5130134 11.799466,5.5 11.311192,5.5 h -0.80974 l -0.0085,-1.8414797 c -0.0084,-1.804342 -0.0098,-1.8432196 -0.07297,-1.9277565 -0.03544,-0.047452 -0.103249,-0.1152709 -0.150693,-0.1507079 -0.08353,-0.062387 -0.128738,-0.064709 -1.4250173,-0.073202 l -1.338755,-0.00877 -0.010552,-0.340612 C 7.4835259,0.78944791 7.4562647,0.71970866 7.269215,0.58005591 7.1845541,0.51684728 7.1509909,0.515625 5.5,0.515625 3.8490091,0.515625 3.8154459,0.516847 3.730785,0.5800559 3.5436278,0.71978897 3.5164769,0.78935384 3.5050475,1.1584296 L 3.4944703,1.5 H 3.247235 3 V 1.1729671 C 3,0.95335519 2.9833271,0.796818 2.949241,0.69640459 2.8440549,0.38653941 2.6198132,0.15970271 2.3123316,0.05212479 2.1837926,0.00715311 2.7585258,0.00285695 9.0859375,0.00149176 L 16,0 v 8 8 L 9.0859375,15.9985 C 2.7585258,15.9971 2.1837926,15.9928 2.3123316,15.94787 Z M 0.00298352,12 c 0,-0.791798 0.00215567,-0.821964 0.04914127,-0.687668 0.06688768,0.19118 0.21185809,0.394699 0.34048793,0.478 0.0952949,0.06171 0.10661362,0.08397 0.10661362,0.209668 0,0.125695 -0.0113187,0.147955 -0.10661362,0.209668 -0.12862984,0.0833 -0.27360025,0.28682 -0.34048793,0.478 C 0.00513919,12.821964 0.00298352,12.791798 0.00298352,12 Z m 0,-4 c 0,-0.7917978 0.00215567,-0.8219638 0.04914127,-0.6876684 0.06688768,0.19118 0.21185809,0.394699 0.34048793,0.4780003 C 0.48790763,7.852045 0.49922634,7.8743047 0.49922634,8 c 0,0.1256953 -0.0113187,0.147955 -0.10661362,0.2096681 C 0.26398288,8.2929694 0.11901247,8.4964884 0.05212479,8.6876684 0.00513919,8.8219638 0.00298352,8.7917978 0.00298352,8 Z m 0,-4 c 0,-0.7917978 0.00215567,-0.8219637 0.04914127,-0.6876684 0.06688768,0.19118 0.21185809,0.394699 0.34048793,0.4780003 C 0.48790763,3.852045 0.49922634,3.8743047 0.49922634,4 c 0,0.1256953 -0.0113187,0.147955 -0.10661362,0.2096681 C 0.26398288,4.2929694 0.11901247,4.4964884 0.05212479,4.6876684 0.00513919,4.8219637 0.00298352,4.7917978 0.00298352,4 Z M 0.00149176,0.4140625 0,0 0.4140625,0.00149176 0.828125,0.00298352 0.68766837,0.05212479 C 0.38441538,0.15822328 0.15822328,0.38441538 0.05212479,0.68766837 L 0.00298352,0.828125 Z"
       id="path847"
       inkscape:connector-curvature="0" />
    <path
       style="fill:#fefefe;stroke-width:0.000312315"
       d="m 8,14.236269 v -0.763731 l 0.5915638,-0.0097 c 0.6472084,-0.01062 0.6737609,-0.01783 0.8283803,-0.224827 0.062354,-0.08348 0.064935,-0.13315 0.080056,-1.541028 l 0.015625,-1.454769 2.1332399,2.146446 c 2.459493,2.474718 2.263171,2.314471 2.83551,2.314471 0.189063,0 0.382422,-0.01207 0.429688,-0.02683 L 15,14.649474 V 14.824737 15 H 11.5 8 Z M 13.640625,10.84375 12.297147,9.5 H 13.648574 15 v 1.34375 c 0,0.739062 -0.0036,1.34375 -0.0079,1.34375 -0.0044,0 -0.612514,-0.604688 -1.351426,-1.34375 z M 13.507813,9.0078197 12,8.9993997 V 8.7508534 8.5023072 l 1.091182,-0.00897 c 1.063276,-0.00874 1.093524,-0.010699 1.182772,-0.076719 l 0.09159,-0.067753 0.340132,0.34119 c 0.187073,0.1876547 0.333341,0.3378128 0.32504,0.333685 -0.0083,-0.00413 -0.693608,-0.011294 -1.522904,-0.015925 z M 11.390625,8.59375 11.300807,8.5 h 0.0996 c 0.08983,0 0.0996,0.00919 0.0996,0.09375 0,0.051562 -0.0044,0.09375 -0.0098,0.09375 -0.0054,0 -0.0502,-0.042188 -0.0996,-0.09375 z M 8,6.25 V 6 H 9.75 11.5 V 6.25 6.5 H 9.75 8 Z M 12,6.24292 V 5.9858412 L 12.25,6.234375 C 12.3875,6.3710684 12.5,6.4867544 12.5,6.4914544 12.5,6.4961544 12.3875,6.5 12.25,6.5 H 12 Z"
       id="path845"
       inkscape:connector-curvature="0" />
    <path
       style="fill:#c9e1fe;stroke-width:0.000312315"
       d="m 13.639892,13.679688 -0.249267,-0.257813 0.257813,0.249267 c 0.239448,0.231511 0.272059,0.266358 0.249266,0.266358 -0.0047,0 -0.120715,-0.116016 -0.257812,-0.257812 z m 0.810264,-1.28125 -0.05953,-0.07031 0.07031,0.05953 c 0.03867,0.03274 0.07031,0.06438 0.07031,0.07031 0,0.02501 -0.02515,0.0065 -0.08109,-0.05953 z"
       id="path843"
       inkscape:connector-curvature="0" />
    <path
       style="fill:#98cbfe;stroke-width:0.000312315"
       d="M 14.203125,14.158732 C 14.11767,14.118639 13.28231,13.303245 11.562573,11.581293 10.179019,10.195957 9.0364409,9.0625 9.0235103,9.0625 9.0105797,9.0625 9,9.9414063 9,11.015625 V 12.96875 H 8.515625 8.03125 V 9.984375 7 H 11.015625 14 V 7.5 8 h -1.967167 -1.967168 l 2.50946,2.507888 c 1.74826,1.747164 2.53142,2.550521 2.581854,2.648437 0.186541,0.362163 0.01872,0.829935 -0.360104,1.003711 -0.1641,0.07528 -0.431773,0.07469 -0.59375,-0.0013 z"
       id="path841"
       inkscape:connector-curvature="0" />
    <path
       style="fill:#cbcbcb;stroke-width:0.000312315"
       d="M 3,3.5 V 3 H 5.5 8 V 3.5 4 H 5.5 3 Z m 1,-2 V 1 H 5.5 7 V 1.5 2 H 5.5 4 Z"
       id="path839"
       inkscape:connector-curvature="0" />
    <path
       style="fill:#a9acc9;stroke-width:0.000312315"
       d="m 13.202392,13.960938 -0.249267,-0.257813 0.257813,0.249267 c 0.239448,0.231511 0.272059,0.266358 0.249266,0.266358 -0.0047,0 -0.120715,-0.116016 -0.257812,-0.257812 z"
       id="path837"
       inkscape:connector-curvature="0" />
    <path
       style="fill:#fecb32;stroke-width:0.000312315"
       d="M 1,14 V 13 H 1.5 2 v 1 1 H 1.5 1 Z m 1.3123316,-2.052125 c 0.3074816,-0.107578 0.5317233,-0.334414 0.6369094,-0.64428 0.075655,-0.222871 0.075655,-2.3843194 0,-2.6071903 C 2.8444352,8.3876597 2.6064353,8.1467816 2.3169022,8.0564188 2.245731,8.0342063 2.1875,8.0088178 2.1875,8 2.1875,7.99118 2.245731,7.965794 2.3169022,7.943581 2.6098717,7.8521459 2.8495693,7.6069097 2.9519691,7.2938403 2.9960887,7.1589528 3.0016063,6.9790428 2.9936021,5.9363597 2.9848677,4.7985609 2.9809734,4.7277 2.9206748,4.609375 l -0.0637,-0.125 h 2.6629748 c 2.6408406,0 2.6636922,-5.344e-4 2.7492694,-0.064431 C 8.4822,4.2609237 8.484375,4.2516244 8.484375,3.5 8.484375,2.8589985 8.480425,2.8117864 8.419944,2.730785 8.2802109,2.5436277 8.2106463,2.5164768 7.8415703,2.5050476 L 7.5,2.4944703 V 2.2472351 2 H 8.75 10 v 1.7488462 1.7488466 l -1.0915078,0.00897 C 7.8621997,5.5152534 7.8134119,5.5182941 7.7307356,5.5800559 7.6832988,5.6154928 7.6154928,5.6833172 7.5800559,5.7307766 7.5161316,5.8163881 7.51556,5.8413644 7.5073641,8.9085331 L 7.4991031,12 4.8354891,11.998509 C 2.3734127,11.997131 2.1825024,11.9933 2.3123316,11.947877 Z M 1,10 V 9 H 1.5 2 v 1 1 H 1.5 1 Z M 1,6 V 5 H 1.5 2 V 6 7 H 1.5 1 Z M 2.40625,4.0918684 C 2.3460938,4.0601794 2.2722656,4.0335766 2.2421875,4.0327509 2.141538,4.0299884 2.1866386,3.9848638 2.3412265,3.9336594 l 0.1531119,-0.050716 0.010868,0.1366531 c 0.00598,0.075159 0.010767,0.1351309 0.010643,0.1332706 -1.239e-4,-0.00186 -0.049444,-0.02931 -0.1095994,-0.060999 z M 1,2 V 1 H 1.5 2 V 2 3 H 1.5 1 Z M 3,2.25 V 2 H 3.25 3.5 V 2.25 2.5 H 3.25 3 Z"
       id="path835"
       inkscape:connector-curvature="0" />
    <path
       style="fill:#8c92bb;stroke-width:0.000312315"
       d="m 13.560818,14.320313 -0.107693,-0.117188 0.117188,0.107693 c 0.06445,0.05923 0.117187,0.111965 0.117187,0.117187 0,0.02386 -0.02644,0.0014 -0.126682,-0.107692 z"
       id="path833"
       inkscape:connector-curvature="0" />
    <path
       style="fill:#989898;stroke-width:0.000312315"
       d="M 4,2.5 V 2 H 5.5 7 V 2.5 3 H 5.5 4 Z"
       id="path831"
       inkscape:connector-curvature="0" />
    <path
       style="fill:#656faa;stroke-width:0.000312315"
       d="m 14.903885,12.132813 -0.07576,-0.08594 0.08594,0.07576 c 0.08032,0.07081 0.100268,0.09611 0.07576,0.09611 -0.0056,0 -0.04427,-0.03867 -0.08594,-0.08594 z"
       id="path829"
       inkscape:connector-curvature="0" />
    <path
       style="fill:#656565;stroke-width:0.000312315"
       d="M 11.897987,9.1011281 C 11.552332,8.7547041 11.5,8.6889584 11.5,8.6011281 V 8.5 H 11.75 12 V 8.75 9 H 13.5 15 V 9.25 9.5 H 13.647987 12.295973 Z M 11.5,6.25 V 6 H 11.75 12 V 6.25 6.5 H 11.75 11.5 Z"
       id="path827"
       inkscape:connector-curvature="0" />
    <path
       style="fill:#163286;stroke-width:0.000312315"
       d="m 15.402264,12.632813 c -0.03887,-0.04957 -0.03777,-0.05067 0.0118,-0.0118 0.05205,0.04082 0.06861,0.06649 0.04289,0.06649 -0.0065,0 -0.0311,-0.02461 -0.05469,-0.05469 z"
       id="path825"
       inkscape:connector-curvature="0" />
    <path
       style="fill:#0d328f;stroke-width:0.000312315"
       d="m 15.170897,12.398438 -0.186522,-0.195313 0.195313,0.186522 c 0.181428,0.173263 0.209612,0.204103 0.186521,0.204103 -0.0048,0 -0.09272,-0.08789 -0.195312,-0.195312 z"
       id="path823"
       inkscape:connector-curvature="0" />
    <path
       style="fill:#003298;stroke-width:0.000312315"
       d="m 14.016294,14.641844 c -0.17307,-0.07242 -0.34621,-0.23754 -2.35065,-2.241824 l -2.1638187,-2.163651 -0.00873,1.45768 c -0.00848,1.41647 -0.010547,1.46012 -0.073156,1.543948 -0.1586185,0.212374 -0.1701954,0.215128 -0.9043191,0.215128 -0.7341406,0 -0.7457394,-0.0028 -0.9043191,-0.21516 -0.064083,-0.08583 -0.064431,-0.103396 -0.064431,-3.25359 0,-3.1501941 3.469e-4,-3.1677578 0.064431,-3.25359 0.035437,-0.047464 0.103265,-0.1152922 0.1507291,-0.1507291 0.085832,-0.064083 0.1033959,-0.064431 3.2535898,-0.064431 3.150194,0 3.167758,3.469e-4 3.25359,0.064431 0.212984,0.1590157 0.21516,0.1683178 0.21516,0.9199441 0,0.7516094 -0.0022,0.7608888 -0.215128,0.9199441 -0.08378,0.062576 -0.127678,0.064682 -1.524535,0.073158 l -1.438268,0.00873 2.116487,2.1293039 c 2.443947,2.458747 2.311444,2.295185 2.311444,2.853242 0,0.28661 -0.0083,0.329952 -0.09979,0.523148 -0.123557,0.260831 -0.355574,0.49893 -0.595972,0.611597 -0.153008,0.07171 -0.227269,0.08524 -0.507368,0.09245 -0.290712,0.0075 -0.349428,-4.65e-4 -0.514956,-0.06973 z m 0.781274,-0.481565 c 0.156411,-0.07105 0.300697,-0.21294 0.375253,-0.369015 0.08137,-0.170341 0.07561,-0.455747 -0.01281,-0.635014 -0.05043,-0.10224 -0.756085,-0.82515 -2.58522,-2.648437 L 10.058932,8 H 12.029466 14 V 7.5 7 H 11.015625 8.03125 V 9.984375 12.96875 H 8.515625 9 V 11.015625 C 9,9.9414063 9.0118734,9.0625 9.0263853,9.0625 c 0.014512,0 1.1557727,1.133703 2.5361347,2.51934 1.801233,1.808117 2.545863,2.535741 2.637677,2.577438 0.165396,0.07512 0.433231,0.07556 0.597371,10e-4 z"
       id="path821"
       inkscape:connector-curvature="0" />
    <path
       style="fill:#323232;stroke-width:0.000312315"
       d="M 0.68766837,15.948933 C 0.3782965,15.838363 0.15574281,15.612865 0.05075898,15.303595 c -0.07565524,-0.222871 -0.07565524,-2.384319 0,-2.60719 0.06716944,-0.197873 0.2101424,-0.40144 0.34185374,-0.486737 0.0952949,-0.06171 0.10661362,-0.08397 0.10661362,-0.209668 0,-0.125695 -0.0113187,-0.147955 -0.10661362,-0.209668 -0.13171134,-0.0853 -0.2746843,-0.288864 -0.34185374,-0.486737 -0.07565524,-0.222871 -0.07565524,-2.3843194 0,-2.6071903 C 0.11792842,8.4985319 0.26090138,8.2949647 0.39261272,8.2096681 0.48790763,8.147955 0.49922634,8.1256953 0.49922634,8 c 0,-0.1256953 -0.0113187,-0.147955 -0.10661362,-0.2096681 -0.13171134,-0.085297 -0.2746843,-0.2888638 -0.34185374,-0.4867366 -0.07565524,-0.2228709 -0.07565524,-2.3843197 0,-2.6071906 C 0.11792842,4.4985319 0.26090138,4.2949647 0.39261272,4.2096681 0.48790763,4.147955 0.49922634,4.1256953 0.49922634,4 c 0,-0.1256953 -0.0113187,-0.147955 -0.10661362,-0.2096681 C 0.25830239,3.7033522 0.11394081,3.4953484 0.04803086,3.2938403 0.00391136,3.1589528 -0.00160635,2.9790429 0.00639788,1.9363598 L 0.015625,0.734375 0.0930044,0.578125 C 0.19166038,0.37891184 0.37891184,0.19166038 0.578125,0.0930044 0.73155316,0.01702246 0.74820209,0.015625 1.5,0.015625 c 0.7517979,0 0.7684468,0.0013975 0.921875,0.0773794 0.2002221,0.09915562 0.3873559,0.28687957 0.4835956,0.4851206 0.064518,0.13289869 0.07773,0.21346069 0.088405,0.5390625 L 3.0064267,1.5 H 3.2504484 3.4944703 L 3.5050475,1.1584296 C 3.5164769,0.78935384 3.5436278,0.71978897 3.730785,0.58005591 3.8154459,0.51684728 3.8490091,0.515625 5.5,0.515625 c 1.6509909,0 1.6845541,0.001222 1.769215,0.0644309 0.1870497,0.13965275 0.2143109,0.209392 0.2257119,0.5774154 l 0.010552,0.340612 1.3387551,0.00877 c 1.296279,0.00849 1.341491,0.010815 1.425017,0.073202 0.04744,0.035437 0.115256,0.1032555 0.150693,0.1507078 0.06313,0.084537 0.0646,0.1234145 0.07297,1.9277566 L 10.501452,5.5 h 0.812778 c 0.627073,0 0.835753,0.00998 0.913336,0.043662 0.05531,0.024014 0.304283,0.2490144 0.55328,0.5 L 13.233567,6.5 H 12.873863 12.514159 L 12.265625,6.25 12.017091,6 H 10.008546 8 v 0.2475169 0.2475172 l -0.094498,0.020755 c -0.1253697,0.027536 -0.2788344,0.1600881 -0.3316257,0.2864353 -0.063209,0.1512812 -0.063209,6.2130196 0,6.3643006 0.052791,0.126348 0.206256,0.2589 0.3316257,0.286436 L 8,13.473716 V 14.236858 15 h 3.5 3.5 v -0.181712 c 0,-0.174138 0.0042,-0.183752 0.101563,-0.230646 0.05586,-0.02691 0.169431,-0.109 0.252383,-0.182416 l 0.150821,-0.133483 -0.0102,0.455711 c -0.01109,0.495688 -0.02692,0.544338 -0.225356,0.69249 -0.08602,0.06422 -0.09825,0.06443 -3.769215,0.06443 -3.67097,0 -3.6831969,-2.19e-4 -3.769215,-0.06443 -0.047464,-0.03544 -0.1152922,-0.103249 -0.1507291,-0.150693 -0.062392,-0.08353 -0.064709,-0.128714 -0.073208,-1.427757 L 7.4980712,12.5 H 5.1889009 2.8797304 l 0.061499,0.174977 c 0.057769,0.164363 0.060943,0.248239 0.052322,1.382812 l -0.00918,1.207836 -0.077379,0.15625 c -0.098656,0.199213 -0.2859074,0.386465 -0.4851206,0.485121 -0.1509699,0.07476 -0.1805384,0.07763 -0.875,0.08476 -0.59443378,0.0061 -0.74304363,-0.0013 -0.85920663,-0.04282 z M 2,14 V 13 H 1.5 1 v 1 1 H 1.5 2 Z M 7.5073641,8.9085331 c 0.0082,-3.0671687 0.00877,-3.092145 0.072692,-3.1777565 0.035437,-0.047459 0.1032429,-0.1152838 0.1506797,-0.1507207 0.082676,-0.061762 0.1314641,-0.064802 1.1777566,-0.073397 L 10,5.4976928 V 3.7488463 2 H 8.75 7.5 v 0.2472351 0.2472352 l 0.3415703,0.010577 c 0.369076,0.011429 0.4386406,0.03858 0.5783738,0.2257374 0.060476,0.081001 0.064431,0.1282135 0.064431,0.769215 0,0.7516244 -0.00217,0.7609237 -0.2151562,0.9199441 C 8.1836416,4.4838394 8.16079,4.484375 5.5199494,4.484375 H 2.8569746 l 0.0637,0.125 c 0.060299,0.118325 0.064193,0.1891859 0.072927,1.3269847 0.008,1.0426831 0.00249,1.2225931 -0.041633,1.3574806 C 2.8495693,7.6069097 2.6098717,7.8521459 2.3169022,7.9435812 2.245731,7.9657937 2.1875,7.9911822 2.1875,8 c 0,0.00882 0.058231,0.034206 0.1294022,0.056419 0.2895331,0.090363 0.527533,0.3312409 0.6323388,0.6399859 0.075655,0.2228709 0.075655,2.3843191 0,2.6071901 -0.1051861,0.309866 -0.3294278,0.536702 -0.6369094,0.64428 -0.1298292,0.04542 0.061081,0.04925 2.5231575,0.05063 L 7.4991031,12 Z M 2,10 V 9 H 1.5 1 v 1 1 H 1.5 2 Z M 2,6 V 5 H 1.5 1 V 6 7 H 1.5 2 Z M 2.5052069,4.0195969 2.4943384,3.8829437 2.3412265,3.9336594 c -0.1545879,0.051204 -0.1996885,0.096329 -0.099039,0.099092 0.041842,0.00115 0.272482,0.1023816 0.2736627,0.1201166 1.25e-4,0.00186 -0.00467,-0.058112 -0.010643,-0.1332711 z M 8,3.5 V 3 H 7.5 7 V 2 1 H 5.5 4 V 2 3 H 3.5 3 V 3.5 4 H 5.5 8 Z M 2,2 V 1 H 1.5 1 V 2 3 H 1.5 2 Z M 3.5,2.25 V 2 H 3.25 3 V 2.25 2.5 H 3.25 3.5 Z m 11.741642,10.200659 -0.242733,-0.252466 0.0017,-1.605261 0.0017,-1.6052614 -0.313837,-0.3149087 -0.313837,-0.3149085 0.06273,-0.1230343 C 14.477665,8.1555934 14.5,8.0502959 14.5,7.9390956 v -0.172689 l 0.471958,0.468359 c 0.259576,0.2575978 0.488295,0.5105469 0.508264,0.5621094 0.0268,0.069204 0.0321,0.5928572 0.02023,2 l -0.01608,1.90625 z"
       id="path819"
       inkscape:connector-curvature="0" />
  </g>
</svg>
