<?xml version="1.0" encoding="UTF-8" standalone="no"?>
<!-- Created with Inkscape (http://www.inkscape.org/) -->

<svg
   version="1.1"
   id="svg2"
   width="1600"
   height="1600"
   viewBox="0 0 1600 1600"
   sodipodi:docname="persp_ortho.svg"
   inkscape:version="1.2.2 (732a01da63, 2022-12-09)"
   xmlns:inkscape="http://www.inkscape.org/namespaces/inkscape"
   xmlns:sodipodi="http://sodipodi.sourceforge.net/DTD/sodipodi-0.dtd"
   xmlns="http://www.w3.org/2000/svg"
   xmlns:svg="http://www.w3.org/2000/svg"
   xmlns:rdf="http://www.w3.org/1999/02/22-rdf-syntax-ns#"
   xmlns:cc="http://creativecommons.org/ns#"
   xmlns:dc="http://purl.org/dc/elements/1.1/">
  <metadata
     id="metadata8">
    <rdf:RDF>
      <cc:Work
         rdf:about="">
        <dc:format>image/svg+xml</dc:format>
        <dc:type
           rdf:resource="http://purl.org/dc/dcmitype/StillImage" />
      </cc:Work>
    </rdf:RDF>
  </metadata>
  <defs
     id="defs6" />
  <sodipodi:namedview
     pagecolor="#808080"
     bordercolor="#666666"
     borderopacity="1"
     objecttolerance="10"
     gridtolerance="10"
     guidetolerance="10"
     inkscape:pageopacity="0"
     inkscape:pageshadow="2"
     inkscape:window-width="1993"
     inkscape:window-height="1009"
     id="namedview4"
     showgrid="false"
     inkscape:zoom="0.5"
     inkscape:cx="9"
     inkscape:cy="8"
     inkscape:window-x="-8"
     inkscape:window-y="-8"
     inkscape:window-maximized="1"
     inkscape:current-layer="PERSP_ORTHO"
     inkscape:showpageshadow="0"
     inkscape:pagecheckerboard="true"
     inkscape:deskcolor="#d1d1d1" />
  <g
     id="PERSP_ORTHO"
     transform="matrix(100,0,0,100,0,4.9999997e-5)"
     style="stroke-width:0.0114286">
    <path
       style="fill:none;stroke-width:0.000357143"
       d="m 0.00246711,14.289063 c 0.00177409,-1.230332 0.01162995,-1.684603 0.03508648,-1.617188 0.04761001,0.136834 0.19881822,0.282899 0.3351421,0.323743 0.0857346,0.02569 1.02689001,0.03563 3.37186311,0.03563 h 3.2529324 l 0.036887,0.123117 c 0.045168,0.150758 0.1909631,0.29411 0.3511191,0.345236 0.2430553,0.07759 0.5286181,-0.08594 0.6132194,-0.351165 l 0.03738,-0.117188 H 11.76412 c 3.275742,0 3.744558,-0.0058 3.864321,-0.04809 0.145103,-0.0512 0.298738,-0.177152 0.341575,-0.280036 0.01435,-0.03446 0.02691,0.691017 0.028,1.617188 L 16,16 H 8 0 Z M 0.00185345,6.2265625 0,0 h 8 8 l -0.0019,6.1640625 -0.0019,6.1640625 -0.702415,-2.07733 C 14.907507,9.1082634 14.583389,8.1414666 14.573573,8.1023575 c -0.01719,-0.06848 -0.01039,-0.071108 0.184001,-0.071108 0.249013,0 0.385092,-0.043387 0.512645,-0.1634519 0.203244,-0.19131 0.202712,-0.5136378 -0.0012,-0.7054747 C 15.127403,7.0290359 15.003935,7 14.578818,7 H 14.198211 L 13.578893,5.1484375 C 12.899873,3.1183837 12.911437,3.1439844 12.630156,3.0481423 12.508114,3.0065585 12.185563,3 10.262482,3 H 8.0360969 L 7.9987166,2.8828125 C 7.9134391,2.6154668 7.6343947,2.4572255 7.3817253,2.5329271 7.2273984,2.5791645 7.0833516,2.7234977 7.0325334,2.8828125 L 6.9951531,3 H 5.2590147 C 4.0535241,3 3.486665,3.0108491 3.4044031,3.0354954 3.3388719,3.055129 3.2306991,3.1284434 3.1623347,3.1995578 3.044674,3.3219519 3.0132614,3.4053972 2.5080934,4.9375 2.2162379,5.8226562 1.9465543,6.6488281 1.9087964,6.7734375 L 1.8401457,7 H 1.4091111 C 0.93262381,7 0.81290412,7.0263784 0.66728078,7.1634519 0.46959816,7.3495278 0.46305388,7.6496369 0.65220703,7.8547075 0.76951759,7.98189 0.85220422,8.0085934 1.1915346,8.0288828 L 1.4924442,8.046875 0.74807556,10.25 0.00370691,12.453125 Z M 1.2267032,11.960938 c 0.00805,-0.02149 0.3083848,-0.914265 0.667406,-1.9839577 L 2.546875,8.0320856 4.7734375,8.0316678 7,8.03125 V 10.015625 12 H 4.1060316 C 1.8038822,12 1.2150571,11.992 1.2267032,11.96094 Z M 8.03125,10.015625 V 8.03125 h 2.730079 2.73008 l 0.660545,1.9625956 C 14.515254,11.073273 14.8125,11.966242 14.8125,11.978221 14.8125,11.990199 13.286719,12 11.421875,12 H 8.03125 Z m -5.125,-3.0363159 c 0,-0.04637 0.1226657,-0.4322804 0.52733,-1.6589966 L 3.8588106,4.03125 H 5.4294053 7 V 5.515625 7 H 4.953125 C 3.8273437,7 2.90625,6.9906891 2.90625,6.9793091 Z M 8.03125,5.515625 V 4.03125 h 2.059585 2.059586 L 12.646154,5.515625 13.141887,7 H 10.586569 8.03125 Z"
       id="path825"
       inkscape:connector-curvature="0" />
    <path
       style="fill:#fefefe;stroke-width:0.000357143"
       d="M 0.35398434,12.992984 C 0.21192553,12.947294 0.07180424,12.788085 0.03012023,12.625 -0.00537315,12.486136 0.00355393,12.456597 0.74315319,10.265625 L 1.4921295,8.046875 2.0116898,8.038305 C 2.3240154,8.033155 2.53125,8.041545 2.53125,8.059342 c 0,0.016283 -0.2952746,0.9060759 -0.6561657,1.977318 -0.3608911,1.071242 -0.6562036,1.951229 -0.65625,1.955526 C 1.2187879,11.996484 2.5195313,12 4.109375,12 H 7 v 0.515625 0.515625 L 3.7265625,13.02806 C 1.595216,13.025983 0.41853516,13.013745 0.35398434,12.992984 Z M 8.03125,12.515625 V 12 h 3.390625 c 1.864844,0 3.390546,-0.01055 3.390449,-0.02344 -9.3e-5,-0.01289 -0.286567,-0.874219 -0.636601,-1.914063 -0.350034,-1.0398437 -0.646215,-1.9222656 -0.65818,-1.9609375 l -0.02176,-0.070312 0.525544,3.438e-4 0.525543,3.437e-4 0.730394,2.171995 c 0.677203,2.01382 0.729352,2.184551 0.716095,2.344409 -0.01183,0.142621 -0.03224,0.190921 -0.118107,0.279518 -0.207848,0.214444 0.01582,0.20339 -4.115199,0.20339 H 8.03125 Z M 1.8520116,6.9609375 C 1.8602332,6.9394531 1.8917109,6.8375 1.921962,6.734375 1.9522131,6.63125 2.2158635,5.8226562 2.5078519,4.9375 3.0131813,3.405605 3.04469,3.3219353 3.1623347,3.1995578 3.2306991,3.1284434 3.3388719,3.055129 3.4044031,3.0354954 3.4866738,3.0108465 4.0541384,3 5.2614381,3 H 7 V 3.515625 4.03125 H 5.4294053 3.8588106 L 3.4331619,5.3203125 C 3.1990553,6.0292969 2.9825027,6.6972656 2.951934,6.8046875 L 2.8963546,7 H 2.3667089 C 1.9558532,7 1.8404158,6.9912391 1.8520116,6.9609375 Z M 13.130322,6.9453125 C 13.114852,6.9152344 12.888185,6.2472656 12.626619,5.4609375 L 12.151044,4.03125 H 10.091147 8.03125 V 3.515625 3 h 2.228808 c 1.925264,0 2.248051,0.00656 2.370098,0.048142 0.280954,0.095731 0.27017,0.071907 0.943337,2.0839227 C 13.911197,6.1414197 14.1875,6.9746228 14.1875,6.9836275 14.1875,6.9926325 13.955963,7 13.672974,7 13.214499,7 13.155385,6.9940425 13.130322,6.9453125 Z"
       id="path823"
       inkscape:connector-curvature="0" />
    <path
       style="fill:#fe3232;stroke-width:0.000357143"
       d="M 0.859375,7.9936962 C 0.71657766,7.9440116 0.57313509,7.7902237 0.53176291,7.6424569 0.46199638,7.3932753 0.61434291,7.121355 0.87185072,7.0354409 0.948104,7.01 1.8276437,7 3.9890381,7 H 7 V 7.515625 8.03125 L 3.9765625,8.0287813 C 1.9633382,8.02714 0.92180056,8.0154169 0.859375,7.9936962 Z M 8.03125,7.515625 V 7 h 3.464087 c 2.499199,0 3.493675,0.00987 3.570312,0.035441 0.150662,0.050266 0.294162,0.1968832 0.338924,0.3462844 0.07425,0.2478097 -0.08028,0.5277909 -0.338924,0.6140838 -0.07664,0.025569 -1.071113,0.035441 -3.570312,0.035441 H 8.03125 Z"
       id="path821"
       inkscape:connector-curvature="0" />
    <path
       style="fill:#00fe00;stroke-width:0.000357143"
       d="M 7.359375,13.493696 C 7.2225409,13.446086 7.0764759,13.294878 7.0356325,13.158554 6.9848797,12.989157 6.9846941,3.0239524 7.035445,2.8718507 7.0857112,2.7211891 7.2323281,2.5776888 7.3817294,2.5329271 c 0.2478097,-0.074246 0.5277909,0.080281 0.6140837,0.3389236 0.050598,0.1516548 0.050598,10.1358933 0,10.2875483 -0.049238,0.147581 -0.1960081,0.2939 -0.3372547,0.336219 -0.1396718,0.04185 -0.1740222,0.04163 -0.2991793,-0.0019 z"
       id="path819"
       inkscape:connector-curvature="0" />
  </g>
</svg>
