<?xml version="1.0" encoding="UTF-8" standalone="no"?>
<!-- Created with Inkscape (http://www.inkscape.org/) -->

<svg
   version="1.1"
   id="svg2"
   width="1600"
   height="1600"
   viewBox="0 0 1600 1600"
   sodipodi:docname="pivot_to_maskborder.svg"
   inkscape:version="1.2.2 (732a01da63, 2022-12-09)"
   xmlns:inkscape="http://www.inkscape.org/namespaces/inkscape"
   xmlns:sodipodi="http://sodipodi.sourceforge.net/DTD/sodipodi-0.dtd"
   xmlns="http://www.w3.org/2000/svg"
   xmlns:svg="http://www.w3.org/2000/svg"
   xmlns:rdf="http://www.w3.org/1999/02/22-rdf-syntax-ns#"
   xmlns:cc="http://creativecommons.org/ns#"
   xmlns:dc="http://purl.org/dc/elements/1.1/">
  <metadata
     id="metadata8">
    <rdf:RDF>
      <cc:Work
         rdf:about="">
        <dc:format>image/svg+xml</dc:format>
        <dc:type
           rdf:resource="http://purl.org/dc/dcmitype/StillImage" />
      </cc:Work>
    </rdf:RDF>
  </metadata>
  <defs
     id="defs6" />
  <sodipodi:namedview
     pagecolor="#808080"
     bordercolor="#666666"
     borderopacity="1"
     objecttolerance="10"
     gridtolerance="10"
     guidetolerance="10"
     inkscape:pageopacity="0"
     inkscape:pageshadow="2"
     inkscape:window-width="1993"
     inkscape:window-height="1009"
     id="namedview4"
     showgrid="false"
     inkscape:zoom="0.5"
     inkscape:cx="9"
     inkscape:cy="8"
     inkscape:window-x="-8"
     inkscape:window-y="-8"
     inkscape:window-maximized="1"
     inkscape:current-layer="PIVOT_TO_MASKBORDER"
     inkscape:showpageshadow="0"
     inkscape:pagecheckerboard="true"
     inkscape:deskcolor="#d1d1d1" />
  <g
     id="PIVOT_TO_MASKBORDER"
     transform="matrix(100,0,0,100,0,4.9999997e-5)"
     style="stroke-width:0.0114286">
    <path
       style="fill:none;stroke-width:0.000357143"
       d="M 0,8 V 0 h 8 8 v 8 8 H 8 0 Z m 8.359375,6.926265 c 1.0951931,-0.166782 2.196695,-0.563008 2.937379,-1.056615 0.286053,-0.190632 0.920858,-0.792052 1.13088,-1.071407 0.1794,-0.238623 0.352467,-0.58206 0.465246,-0.923243 0.08248,-0.24952 0.08855,-0.304923 0.100188,-0.913792 l 0.01239,-0.648166 0.223836,-0.116285 C 13.556861,10.026581 14.035798,9.5410672 14.209463,9.203125 14.437981,8.7584409 14.484375,8.5554034 14.484375,8 c 0,-0.5554034 -0.04639,-0.7584409 -0.274912,-1.203125 -0.17441,-0.3393934 -0.652491,-0.8233906 -0.9829,-0.9950653 L 13,5.6840919 V 3.7338431 C 13,1.4660672 13.014125,1.5797161 12.694375,1.2747269 12.411504,1.0049132 12.362683,0.99547888 11.305968,1.0064242 L 10.417674,1.015625 10.1854,1.1363105 C 9.2882916,1.602431 9.0688069,1.687717 8.4161003,1.8238143 7.8539947,1.9410202 7.4971597,1.9805034 7,1.9805034 6.5028403,1.9805034 6.1460053,1.9410202 5.5838997,1.8238143 4.9311925,1.6877169 4.7117422,1.6024443 3.8145975,1.1363105 L 3.5823203,1.015625 2.6865136,1.006482 C 1.6135267,0.99553056 1.5596096,1.0069551 1.2747269,1.3056247 0.97295506,1.6220011 0.99789162,1.1184819 1.0073345,6.7048153 L 1.015625,11.609375 1.105274,11.875 c 0.1163736,0.344809 0.2895297,0.687065 0.4670917,0.923243 0.2100226,0.279355 0.8448272,0.880775 1.1308806,1.071407 0.7702028,0.513279 2.0110268,0.947209 3.0467537,1.065483 0.1632812,0.01865 0.3460937,0.03949 0.40625,0.04631 0.2729622,0.03098 1.9059259,-0.0099 2.203125,-0.05518 z M 6.40625,13.981736 C 6.3460937,13.97475 6.1632812,13.953779 6,13.935133 3.9836934,13.704883 2.3789663,12.690496 2.0603705,11.444799 2.002051,11.216772 2,11.052324 2,6.6043762 V 2 h 0.6287855 0.6287854 l 0.2696522,0.1553998 c 0.6806725,0.3922701 1.4882278,0.648144 2.4884019,0.7884503 0.36574,0.051307 1.60301,0.051307 1.96875,0 C 8.9845491,2.8035438 9.7921044,2.5476699 10.472777,2.1553998 L 10.742429,2 H 11.371214 12 v 1.7453584 1.7453585 l -0.257812,0.018518 c -0.314864,0.022615 -0.614745,0.11192 -0.945313,0.2815147 C 10.443318,5.9721381 9.9724238,6.4429325 9.7905369,6.796875 9.5620188,7.2415591 9.515625,7.4445966 9.515625,8 c 0,0.5554034 0.046394,0.7584409 0.2749119,1.203125 0.1818869,0.3539425 0.6527811,0.824737 1.0063381,1.006126 0.330568,0.169595 0.630449,0.258899 0.945313,0.281515 L 12,10.509283 v 0.349735 c 0,0.559575 -0.128162,0.952066 -0.451214,1.38182 -0.632275,0.841112 -1.8833551,1.453704 -3.439411,1.68411 -0.2987325,0.04423 -1.4738291,0.08341 -1.703125,0.05679 z"
       id="path823"
       inkscape:connector-curvature="0" />
    <path
       style="fill:#fefefe;stroke-width:0.000357143"
       d="M 6.15625,14.981448 C 6.0960937,14.974621 5.9132812,14.953779 5.75,14.935133 4.7142731,14.816859 3.4734491,14.382929 2.7032463,13.86965 2.4171929,13.679018 1.7823883,13.077598 1.5723658,12.798243 1.3948037,12.562065 1.2216476,12.219809 1.105274,11.875 L 1.015625,11.609375 1.0073345,6.7048153 C 0.99789162,1.1184819 0.97295506,1.6220011 1.2747269,1.3056247 1.5596096,1.006955 1.6135267,0.99553056 2.6865136,1.006482 l 0.8958067,0.00914 0.2322772,0.1206855 C 4.7117422,1.6024443 4.9311925,1.6877169 5.5838997,1.8238143 6.1460053,1.9410202 6.5028403,1.9805034 7,1.9805034 c 0.4971597,0 0.8539947,-0.039483 1.4161003,-0.1566891 C 9.0688069,1.687717 9.2882916,1.602431 10.1854,1.1363105 l 0.232274,-0.1206855 0.888294,-0.0092 C 12.362683,0.9954797 12.411504,1.004915 12.694375,1.2747277 13.014103,1.5796961 13,1.4662908 13,3.7322281 v 1.9486338 l -0.242065,-0.07687 c -0.133135,-0.042279 -0.358135,-0.085061 -0.5,-0.095073 L 12,5.4907169 V 3.7453584 2 h -0.628786 -0.628785 l -0.269652,0.1553998 c -0.6806726,0.3922701 -1.4882279,0.648144 -2.488402,0.7884503 -0.36574,0.051307 -1.60301,0.051307 -1.96875,0 C 5.0154509,2.8035438 4.2078956,2.5476699 3.5272231,2.1553998 L 3.2575709,2 H 2.6287855 2 V 6.6043762 C 2,11.052324 2.00205,11.216772 2.06037,11.444799 2.3795838,12.692911 3.8890472,13.649671 6,13.9419 c 0.1730034,0.02395 0.5902547,0.0411 1,0.0411 0.7411859,0 1.0402984,-0.02869 1.6713559,-0.160293 1.2522975,-0.261168 2.3300111,-0.85364 2.8774301,-1.581869 C 11.871838,11.811084 12,11.418593 12,10.859018 v -0.349735 l 0.257935,-0.0182 c 0.141865,-0.01001 0.368079,-0.05318 0.502698,-0.09593 l 0.244762,-0.07773 -0.01236,0.645975 c -0.0116,0.606491 -0.01772,0.662211 -0.100159,0.9116 -0.112779,0.341182 -0.285846,0.68462 -0.465246,0.923243 -0.210022,0.279355 -0.844827,0.880774 -1.13088,1.071407 -0.740684,0.493607 -1.8421859,0.889832 -2.937379,1.056615 -0.2971991,0.04526 -1.9301628,0.08616 -2.203125,0.05518 z M 11.5625,9.9514053 C 10.832319,9.7945809 10.200704,9.1571794 10.046855,8.421875 9.7497344,7.0018228 11.001823,5.7497344 12.421875,6.0468547 c 0.742912,0.1554412 1.375829,0.7883578 1.53127,1.5312703 0.29819,1.4251613 -0.965246,2.67942 -2.390645,2.3732803 z"
       id="path821"
       inkscape:connector-curvature="0" />
    <path
       style="fill:#000000;stroke-width:0.000357143"
       d="M 11.50235,10.467898 C 11.267713,10.418682 11.057369,10.341337 10.796875,10.208488 10.443748,10.028397 9.9729128,9.5580194 9.7905369,9.203125 9.5620188,8.7584409 9.515625,8.5554034 9.515625,8 9.515625,7.4445966 9.562019,7.2415591 9.7905369,6.796875 9.9722875,6.4431975 10.443198,5.9722875 10.796875,5.7905369 11.241559,5.5620187 11.444597,5.515625 12,5.515625 c 0.555403,0 0.758441,0.046394 1.203125,0.2749119 0.353678,0.1817506 0.824588,0.6526606 1.006338,1.0063381 0.228518,0.4446841 0.274912,0.6477216 0.274912,1.203125 0,0.5554034 -0.04639,0.7584409 -0.274912,1.203125 -0.181887,0.3539425 -0.652781,0.824737 -1.006338,1.006126 -0.419027,0.214977 -0.625185,0.265823 -1.125,0.277462 -0.240625,0.0056 -0.499724,-0.0029 -0.575775,-0.01882 z M 12.421875,9.9531453 C 13.321483,9.7649184 13.998915,8.9259269 13.998915,8 13.998915,6.9092425 13.090757,6.0010853 12,6.0010853 c -1.090757,0 -1.998915,0.9081572 -1.998915,1.9989147 0,0.7407994 0.438806,1.4538003 1.093723,1.7771538 0.43249,0.2135343 0.870202,0.2715822 1.327067,0.1759915 z"
       id="path819"
       inkscape:connector-curvature="0" />
  </g>
</svg>
