<?xml version="1.0" encoding="UTF-8" standalone="no"?>
<!-- Created with Inkscape (http://www.inkscape.org/) -->

<svg
   version="1.1"
   id="svg2"
   width="1600"
   height="1600"
   viewBox="0 0 1600 1600"
   sodipodi:docname="pivot_individual.svg"
   inkscape:version="1.2.2 (732a01da63, 2022-12-09)"
   xmlns:inkscape="http://www.inkscape.org/namespaces/inkscape"
   xmlns:sodipodi="http://sodipodi.sourceforge.net/DTD/sodipodi-0.dtd"
   xmlns="http://www.w3.org/2000/svg"
   xmlns:svg="http://www.w3.org/2000/svg"
   xmlns:rdf="http://www.w3.org/1999/02/22-rdf-syntax-ns#"
   xmlns:cc="http://creativecommons.org/ns#"
   xmlns:dc="http://purl.org/dc/elements/1.1/">
  <metadata
     id="metadata8">
    <rdf:RDF>
      <cc:Work
         rdf:about="">
        <dc:format>image/svg+xml</dc:format>
        <dc:type
           rdf:resource="http://purl.org/dc/dcmitype/StillImage" />
      </cc:Work>
    </rdf:RDF>
  </metadata>
  <defs
     id="defs6" />
  <sodipodi:namedview
     pagecolor="#808080"
     bordercolor="#666666"
     borderopacity="1"
     objecttolerance="10"
     gridtolerance="10"
     guidetolerance="10"
     inkscape:pageopacity="0"
     inkscape:pageshadow="2"
     inkscape:window-width="1993"
     inkscape:window-height="1009"
     id="namedview4"
     showgrid="false"
     inkscape:zoom="0.5"
     inkscape:cx="133"
     inkscape:cy="12"
     inkscape:window-x="-8"
     inkscape:window-y="-8"
     inkscape:window-maximized="1"
     inkscape:current-layer="PIVOT_INDIVIDUAL"
     inkscape:showpageshadow="0"
     inkscape:pagecheckerboard="true"
     inkscape:deskcolor="#d1d1d1" />
  <g
     id="PIVOT_INDIVIDUAL"
     transform="matrix(100,0,0,100,0,4.9999997e-5)"
     style="stroke-width:0.0114286">
    <path
       style="fill:none;stroke-width:0.000357143"
       d="M 0,8 V 0 L 5.0546875,0.00248437 C 9.3284928,0.00458494 10.079997,0.01136101 9.9192125,0.04634618 9.3333188,0.17383082 8.5092241,0.54179866 8.0751031,0.8697625 7.7719347,1.098796 7.0632372,1.8179892 6.8689778,2.09375 6.6604419,2.3897775 6.3847897,2.9606893 6.2453141,3.3854391 6.0559738,3.9620453 6.0220081,4.2501325 6.0408453,5.1196872 c 0.00881,0.4068284 0.026349,0.7803865 0.038969,0.8301294 0.022161,0.087353 0.019856,0.089658 -0.067497,0.067497 C 5.9625738,6.0046944 5.5890156,5.9871587 5.1821872,5.9783453 4.3126325,5.9595081 4.0245453,5.9934737 3.4479391,6.1828141 3.0231893,6.3222897 2.4522775,6.5979419 2.15625,6.8064778 1.8804892,7.0007372 1.161296,7.7094347 0.9322625,8.0126031 0.56052106,8.5046719 0.18118621,9.4052019 0.0782181,10.04008 c -0.06319785,0.389664 -0.06319785,1.467676 0,1.85734 0.10296811,0.634878 0.48230296,1.535408 0.8540444,2.027477 0.2290335,0.303168 0.9482267,1.011866 1.2239875,1.206125 0.4828883,0.34017 1.3564788,0.695095 1.94633,0.79076 0.3896637,0.0632 1.4676762,0.0632 1.85734,0 0.6348781,-0.102968 1.5354081,-0.482303 2.0274769,-0.854044 0.3031684,-0.229034 1.0118659,-0.948227 1.2061253,-1.223988 0.2085359,-0.296027 0.4841881,-0.866939 0.6236637,-1.291689 0.1893401,-0.576606 0.2233061,-0.864693 0.2044691,-1.734248 -0.0088,-0.406829 -0.026349,-0.780387 -0.038969,-0.8301296 -0.022161,-0.087353 -0.019856,-0.089658 0.067497,-0.067497 0.04974,0.012619 0.423301,0.030155 0.83013,0.038968 0.869555,0.018837 1.157642,-0.015128 1.734248,-0.2044688 0.42475,-0.1394756 0.995662,-0.4151278 1.291689,-0.6236637 0.275761,-0.1942594 0.994954,-0.9029569 1.223988,-1.2061253 0.327963,-0.434121 0.695931,-1.2582157 0.823416,-1.8441094 0.03498,-0.160785 0.04176,0.5907197 0.04386,4.8645248 L 16,16 H 8 0 Z M 15.96875,3.95494 c 0,-0.2968584 -0.473526,-1.4362189 -0.772172,-1.8579393 C 14.99838,1.8171232 14.290786,1.0989629 13.987397,0.8697625 13.553276,0.54179866 12.729181,0.17383082 12.143288,0.04634618 11.978062,0.01039483 12.218472,0.00464295 13.976563,0.00248437 L 16,0 v 2.015625 c 0,1.1085937 -0.007,2.015625 -0.01563,2.015625 -0.0086,0 -0.01563,-0.034339 -0.01563,-0.07631 z"
       id="path825"
       inkscape:connector-curvature="0" />
    <path
       style="fill:#fefefe;stroke-width:0.000357143"
       d="M 4.5625,12.951405 C 3.8323191,12.794581 3.2007041,12.157179 3.0468548,11.421875 2.7497343,10.001823 4.0018228,8.7497344 5.421875,9.0468547 6.3214828,9.2350816 6.9989147,10.074073 6.9989147,11 c 0,1.268377 -1.1876531,2.219608 -2.4364147,1.951405 z m 6,-5.9999997 C 9.8323191,6.7945809 9.2007041,6.1571794 9.0468547,5.421875 8.7497344,4.0018228 10.001823,2.7497343 11.421875,3.0468548 c 0.742912,0.1554411 1.375829,0.7883577 1.53127,1.5312702 0.29819,1.4251613 -0.965246,2.6794197 -2.390645,2.3732803 z"
       id="path823"
       inkscape:connector-curvature="0" />
    <path
       style="fill:#fea900;stroke-width:0.000357143"
       d="M 4.2142562,15.422129 C 3.6629556,15.329318 2.8817231,15.009081 2.4375,14.693815 2.1571833,14.494873 1.5939812,13.941059 1.3696081,13.643723 1.0087377,13.165502 0.67678,12.380116 0.57793894,11.770694 c -0.0609697,-0.375919 -0.0609697,-1.227969 0,-1.603888 C 0.67170538,9.5886731 0.99861762,8.7954428 1.329271,8.34375 1.5370772,8.0598741 2.0623902,7.5298622 2.3562775,7.3075572 2.8332276,6.9467778 3.6191737,6.6143953 4.2293059,6.5154391 c 0.3759191,-0.06097 1.2279691,-0.06097 1.6038882,0 0.5781328,0.093766 1.3713631,0.4206784 1.8230559,0.7513318 0.2838759,0.2078063 0.8138878,0.7331191 1.0361928,1.0270066 0.3607794,0.47695 0.6931619,1.2628963 0.7921181,1.8730285 0.06097,0.375919 0.06097,1.227969 0,1.603888 -0.098956,0.610132 -0.4313387,1.396079 -0.7921181,1.873029 -0.222305,0.293887 -0.7523169,0.8192 -1.0361928,1.027006 -0.4516928,0.330654 -1.2449231,0.657566 -1.8230559,0.751332 -0.3524257,0.05716 -1.2795825,0.0572 -1.6189379,6.2e-5 z M 5.734375,13.407018 C 6.1639862,13.270511 6.4259397,13.108177 6.7670581,12.767058 7.1124716,12.421645 7.2733859,12.159746 7.4111553,11.71875 7.4747184,11.515286 7.484375,11.420493 7.484375,11 7.484375,10.444597 7.437981,10.241559 7.2094631,9.796875 7.0277125,9.4431975 6.5568025,8.9722875 6.203125,8.7905369 5.7584409,8.5620188 5.5554034,8.515625 5,8.515625 4.4445966,8.515625 4.2415591,8.562019 3.796875,8.7905369 3.4431975,8.9722875 2.9722876,9.4431975 2.7905368,9.796875 2.5620187,10.241559 2.515625,10.444597 2.515625,11 c 0,0.555403 0.046394,0.758441 0.2749118,1.203125 0.1823761,0.354894 0.6532107,0.825272 1.0063382,1.005363 0.4753194,0.242406 0.7023494,0.291706 1.28125,0.278225 0.3453037,-0.008 0.4835981,-0.02483 0.65625,-0.07969 z M 10.200663,9.419955 C 9.8389106,9.3591519 9.7990819,9.3389972 9.7559078,9.1948953 9.6948084,8.9909638 9.3480206,8.3111803 9.1941644,8.09375 8.9974988,7.8158206 8.2891203,7.0977284 7.984375,6.8673706 7.7385231,6.6815306 7.0497456,6.3173884 6.8058775,6.2443238 6.7230262,6.2195009 6.6719628,6.1819528 6.6529119,6.1318447 6.5331434,5.81683 6.4907094,4.7046347 6.5779391,4.1668059 6.6717053,3.5886731 6.9986175,2.7954427 7.3292709,2.34375 7.5370772,2.059874 8.06239,1.5298623 8.3562775,1.3075572 8.8332275,0.94677794 9.6191738,0.61439528 10.229306,0.51543894 c 0.375919,-0.0609697 1.227969,-0.0609697 1.603888,0 0.578133,0.0937664 1.371363,0.42067869 1.823056,0.75133206 0.283876,0.2078063 0.813888,0.7331192 1.036193,1.0270065 0.360779,0.4769501 0.693162,1.2628962 0.792118,1.8730284 0.06097,0.3759191 0.06097,1.2279691 0,1.6038882 -0.09896,0.6101321 -0.431339,1.3960784 -0.792118,1.8730284 -0.222305,0.2938875 -0.752317,0.8192003 -1.036193,1.0270066 -0.451693,0.3306534 -1.244923,0.6575656 -1.823056,0.7513318 -0.358202,0.058096 -1.281439,0.056905 -1.632532,-0.00211 z M 11.734375,7.4070181 C 12.163986,7.2705106 12.42594,7.1081766 12.767058,6.7670581 13.112472,6.4216447 13.273386,6.1597462 13.411155,5.71875 13.474718,5.5152856 13.484375,5.4204931 13.484375,5 c 0,-0.5554034 -0.04639,-0.7584409 -0.274912,-1.203125 C 13.027713,3.4431975 12.556803,2.9722876 12.203125,2.7905368 11.758441,2.5620187 11.555403,2.515625 11,2.515625 c -0.555403,0 -0.758441,0.046394 -1.203125,0.2749118 C 9.4431975,2.9722876 8.9722875,3.4431975 8.7905369,3.796875 8.5620188,4.2415591 8.515625,4.4445966 8.515625,5 c 0,0.5554034 0.046394,0.7584409 0.2749119,1.203125 0.1823759,0.3548944 0.6532106,0.8252722 1.0063381,1.0053628 0.475319,0.2424066 0.702349,0.2917066 1.28125,0.2782253 0.345304,-0.00804 0.483598,-0.024836 0.65625,-0.079695 z"
       id="path821"
       inkscape:connector-curvature="0" />
    <path
       style="fill:#000000;stroke-width:0.000357143"
       d="M 4.0862219,15.92166 C 3.5130781,15.82527 2.6196226,15.459552 2.15625,15.131664 1.8793296,14.935713 1.160454,14.226951 0.9322625,13.924897 0.56052106,13.432828 0.18118621,12.532298 0.0782181,11.89742 c -0.06319785,-0.389664 -0.06319785,-1.467676 0,-1.85734 C 0.18118621,9.4052019 0.56052106,8.5046719 0.9322625,8.0126031 1.161296,7.7094347 1.8804892,7.0007372 2.15625,6.8064778 2.4522775,6.5979419 3.0231893,6.3222897 3.4479391,6.1828141 4.0245453,5.9934738 4.3126325,5.9595081 5.1821872,5.9783453 c 0.4068284,0.00881 0.7803865,0.026349 0.8301294,0.038969 0.087353,0.022161 0.089658,0.019856 0.067497,-0.067497 C 6.0671944,5.9000738 6.0496587,5.5265156 6.0408453,5.1196872 6.0281966,4.5358041 6.0352322,4.3142684 6.0742469,4.0679397 6.1779112,3.4134294 6.5532744,2.5142643 6.9322625,2.0126031 7.1614628,1.7092138 7.8796231,1.0016201 8.1595006,0.80342159 8.45018,0.59757378 9.1355938,0.27435404 9.578125,0.13444261 l 0.375,-0.11856063 h 1.078125 1.078125 l 0.375,0.11844779 c 0.492487,0.15555748 1.184453,0.49351173 1.5,0.73259576 0.306735,0.23240807 1.013772,0.94986847 1.212203,1.23007517 0.205848,0.2906794 0.529068,0.976093 0.66898,1.4186243 l 0.11856,0.375 V 4.96875 6.046875 l -0.11856,0.375 c -0.139912,0.4425312 -0.463132,1.127945 -0.66898,1.4186244 -0.198198,0.2798775 -0.905792,0.9980378 -1.209181,1.2272381 -0.501661,0.3789881 -1.400826,0.7543512 -2.055337,0.8580156 -0.246328,0.039015 -0.467864,0.04605 -1.051747,0.033402 -0.406829,-0.00881 -0.780387,-0.026349 -0.83013,-0.038968 -0.087353,-0.022161 -0.089658,-0.019856 -0.067497,0.067497 0.012619,0.049743 0.030155,0.4233009 0.038969,0.8301299 0.01265,0.583883 0.0056,0.805419 -0.033402,1.051747 -0.1036644,0.654511 -0.4790275,1.553676 -0.8580156,2.055337 -0.2290334,0.303168 -0.9482266,1.011866 -1.2239875,1.206125 -0.4828881,0.34017 -1.3564788,0.695095 -1.94633,0.79076 -0.3628397,0.05885 -1.5235088,0.05877 -1.8736981,-1.25e-4 z m 1.7469722,-0.499599 c 0.5781328,-0.09377 1.3713631,-0.420678 1.8230559,-0.751332 0.2838759,-0.207806 0.8138878,-0.733119 1.0361928,-1.027007 0.3607794,-0.47695 0.6931619,-1.262896 0.7921181,-1.873028 0.06097,-0.375919 0.06097,-1.227969 0,-1.603888 C 9.3856047,9.5566737 9.0532222,8.7707275 8.6924428,8.2937775 8.4701378,7.99989 7.9401259,7.4745772 7.65625,7.2667709 7.2045572,6.9361175 6.4113269,6.6092053 5.8331941,6.5154391 c -0.3759191,-0.06097 -1.2279691,-0.06097 -1.6038882,0 C 3.6191738,6.6143953 2.8332276,6.9467778 2.3562775,7.3075572 2.0623902,7.5298622 1.5370773,8.0598741 1.329271,8.34375 0.99861763,8.7954428 0.67170538,9.5886731 0.57793894,10.166806 c -0.0609697,0.375919 -0.0609697,1.227969 0,1.603888 0.0988411,0.609422 0.43079876,1.394808 0.79166916,1.873028 0.2243731,0.297337 0.7875752,0.851151 1.0678919,1.050093 0.4442231,0.315266 1.2254556,0.635503 1.7767563,0.728314 0.3393553,0.05713 1.2665121,0.05709 1.6189378,-6.2e-5 z M 4.5023497,13.467898 C 4.2677128,13.418682 4.0573694,13.341337 3.796875,13.208488 3.4437475,13.028397 2.9729129,12.558019 2.7905368,12.203125 2.5620187,11.758441 2.515625,11.555403 2.515625,11 c 0,-0.555403 0.046394,-0.758441 0.2749118,-1.203125 C 2.9722876,9.4431975 3.4431975,8.9722875 3.796875,8.7905369 4.2415591,8.5620188 4.4445966,8.515625 5,8.515625 c 0.5554034,0 0.7584409,0.046394 1.203125,0.2749119 C 6.5568025,8.9722875 7.0277125,9.4431975 7.2094631,9.796875 7.4379812,10.241559 7.484375,10.444597 7.484375,11 c 0,0.555403 -0.046394,0.758441 -0.2749119,1.203125 -0.1818869,0.353943 -0.6527809,0.824737 -1.0063381,1.006126 -0.4190266,0.214977 -0.625185,0.265823 -1.125,0.277462 -0.240625,0.0056 -0.4997241,-0.0029 -0.5757753,-0.01882 z M 5.421875,12.953145 C 6.3214828,12.764918 6.9989147,11.925927 6.9989147,11 6.9989147,9.9092425 6.0907575,9.0010853 5,9.0010853 3.9092425,9.0010853 3.0010852,9.9092425 3.0010852,11 c 0,0.740799 0.4388057,1.4538 1.0937226,1.777154 0.43249,0.213534 0.8702025,0.271582 1.3270672,0.175991 z m 6.411319,-3.5310841 c 0.578133,-0.093766 1.371363,-0.4206784 1.823056,-0.7513318 0.283876,-0.2078063 0.813888,-0.7331191 1.036193,-1.0270066 0.360779,-0.47695 0.693162,-1.2628963 0.792118,-1.8730284 0.06097,-0.3759191 0.06097,-1.2279691 0,-1.6038882 C 15.385605,3.5566737 15.053222,2.7707276 14.692443,2.2937775 14.470138,1.9998902 13.940126,1.4745772 13.65625,1.266771 13.204557,0.93611762 12.411327,0.60920538 11.833194,0.51543894 c -0.375919,-0.0609697 -1.227969,-0.0609697 -1.603888,0 C 9.6191738,0.61439528 8.8332275,0.94677794 8.3562775,1.3075572 8.06239,1.5298623 7.5370772,2.059874 7.3292709,2.34375 6.9986175,2.7954427 6.6717053,3.5886731 6.5779391,4.1668059 c -0.08723,0.5378288 -0.044796,1.6500241 0.074973,1.9650388 0.019051,0.050108 0.070114,0.087656 0.1529656,0.112479 0.2438681,0.073065 0.9326456,0.4372069 1.1784975,0.6230469 0.3047453,0.2303578 1.0131238,0.94845 1.2097894,1.2263794 0.1538562,0.2174303 0.500644,0.8972138 0.5617434,1.1011453 0.025076,0.083696 0.062091,0.1331235 0.114661,0.1531106 0.30707,0.1167479 1.436612,0.1593685 1.962625,0.074055 z M 10.50235,7.4678978 C 10.267713,7.4186819 10.057369,7.3413366 9.796875,7.2084878 9.4437475,7.0283972 8.9729128,6.5580194 8.7905369,6.203125 8.5620188,5.7584409 8.515625,5.5554034 8.515625,5 8.515625,4.4445966 8.562019,4.2415591 8.7905369,3.796875 8.9722875,3.4431975 9.4431975,2.9722876 9.796875,2.7905368 10.241559,2.5620187 10.444597,2.515625 11,2.515625 c 0.555403,0 0.758441,0.046394 1.203125,0.2749118 0.353678,0.1817508 0.824588,0.6526607 1.006338,1.0063382 0.228518,0.4446841 0.274912,0.6477216 0.274912,1.203125 0,0.5554034 -0.04639,0.7584409 -0.274912,1.203125 -0.181887,0.3539425 -0.652781,0.8247369 -1.006338,1.0061259 -0.419027,0.2149775 -0.625185,0.2658228 -1.125,0.2774622 -0.240625,0.0056 -0.499724,-0.00286 -0.575775,-0.018815 z M 11.421875,6.9531453 C 12.321483,6.7649184 12.998915,5.9259269 12.998915,5 12.998915,3.9092425 12.090757,3.0010852 11,3.0010852 9.9092425,3.0010852 9.0010853,3.9092425 9.0010853,5 c 0,0.7407994 0.4388056,1.4538003 1.0937227,1.7771537 0.43249,0.2135344 0.870202,0.2715822 1.327067,0.1759916 z"
       id="path819"
       inkscape:connector-curvature="0" />
  </g>
</svg>
