<?xml version="1.0" encoding="UTF-8" standalone="no"?>
<!-- Created with Inkscape (http://www.inkscape.org/) -->

<svg
   version="1.1"
   id="svg2"
   width="1600"
   height="1600"
   viewBox="0 0 1600 1600"
   sodipodi:docname="pivot_to_origin.svg"
   inkscape:version="1.2.2 (732a01da63, 2022-12-09)"
   xmlns:inkscape="http://www.inkscape.org/namespaces/inkscape"
   xmlns:sodipodi="http://sodipodi.sourceforge.net/DTD/sodipodi-0.dtd"
   xmlns="http://www.w3.org/2000/svg"
   xmlns:svg="http://www.w3.org/2000/svg"
   xmlns:rdf="http://www.w3.org/1999/02/22-rdf-syntax-ns#"
   xmlns:cc="http://creativecommons.org/ns#"
   xmlns:dc="http://purl.org/dc/elements/1.1/">
  <metadata
     id="metadata8">
    <rdf:RDF>
      <cc:Work
         rdf:about="">
        <dc:format>image/svg+xml</dc:format>
        <dc:type
           rdf:resource="http://purl.org/dc/dcmitype/StillImage" />
      </cc:Work>
    </rdf:RDF>
  </metadata>
  <defs
     id="defs6" />
  <sodipodi:namedview
     pagecolor="#808080"
     bordercolor="#666666"
     borderopacity="1"
     objecttolerance="10"
     gridtolerance="10"
     guidetolerance="10"
     inkscape:pageopacity="0"
     inkscape:pageshadow="2"
     inkscape:window-width="1993"
     inkscape:window-height="1009"
     id="namedview4"
     showgrid="false"
     inkscape:zoom="0.5"
     inkscape:cx="361"
     inkscape:cy="662"
     inkscape:window-x="-8"
     inkscape:window-y="-8"
     inkscape:window-maximized="1"
     inkscape:current-layer="PIVOT_TO_ORIGIN"
     inkscape:showpageshadow="0"
     inkscape:pagecheckerboard="true"
     inkscape:deskcolor="#d1d1d1" />
  <g
     id="PIVOT_TO_ORIGIN"
     transform="matrix(100,0,0,100,0,4.9999997e-5)"
     style="stroke-width:0.0114286">
    <path
       style="fill:none;stroke-width:0.000357143"
       d="M 0,8 V 0 h 8 8 v 8 8 H 8 0 Z m 7.734375,3.407018 C 8.1639863,11.270511 8.4259397,11.108177 8.7670581,10.767058 9.1124716,10.421645 9.2733859,10.159746 9.4111553,9.71875 9.4747184,9.5152856 9.484375,9.4204931 9.484375,9 9.484375,8.4445966 9.4379813,8.2415591 9.2094631,7.796875 9.0277125,7.4431975 8.5568025,6.9722875 8.203125,6.7905369 7.7584409,6.5620187 7.5554034,6.515625 7,6.515625 6.4445966,6.515625 6.2415591,6.562019 5.796875,6.7905369 5.4431975,6.9722875 4.9722875,7.4431975 4.7905369,7.796875 4.5620187,8.2415591 4.515625,8.4445966 4.515625,9 c 0,0.5554034 0.046394,0.7584409 0.2749119,1.203125 0.1823759,0.354894 0.6532106,0.825272 1.0063381,1.005363 0.4753194,0.242406 0.7023494,0.291706 1.28125,0.278225 0.3453037,-0.008 0.4835981,-0.02483 0.65625,-0.07969 z m 4,-3.9999999 C 12.163986,7.2705106 12.42594,7.1081766 12.767058,6.7670581 13.112472,6.4216447 13.273386,6.1597463 13.411155,5.71875 13.474718,5.5152856 13.484375,5.4204931 13.484375,5 c 0,-0.5554034 -0.04639,-0.7584409 -0.274912,-1.203125 C 13.027713,3.4431975 12.556803,2.9722876 12.203125,2.7905368 11.758441,2.5620187 11.555403,2.515625 11,2.515625 c -0.555403,0 -0.758441,0.046394 -1.203125,0.2749118 C 9.4431975,2.9722876 8.9722875,3.4431975 8.7905369,3.796875 8.5620188,4.2415591 8.515625,4.4445966 8.515625,5 c 0,0.5554034 0.046394,0.7584409 0.2749119,1.203125 0.1823759,0.3548944 0.6532106,0.8252722 1.0063381,1.0053628 0.475319,0.2424066 0.702349,0.2917066 1.28125,0.2782253 0.345304,-0.00804 0.483598,-0.024836 0.65625,-0.079695 z"
       id="path825"
       inkscape:connector-curvature="0" />
    <path
       style="fill:#fefefe;stroke-width:0.000357143"
       d="M 6.5625,10.951405 C 5.8323191,10.794581 5.2007041,10.157179 5.0468547,9.421875 4.7497344,8.0018228 6.0018228,6.7497344 7.421875,7.0468547 8.1647875,7.2022959 8.7977041,7.8352125 8.9531453,8.578125 9.2513347,10.003286 7.9878991,11.257545 6.5625,10.951405 Z"
       id="path823"
       inkscape:connector-curvature="0" />
    <path
       style="fill:#fecb32;stroke-width:0.000357143"
       d="M 10.5625,6.9514053 C 9.8323191,6.7945809 9.2007041,6.1571794 9.0468547,5.421875 8.7497344,4.0018228 10.001823,2.7497343 11.421875,3.0468548 c 0.742912,0.1554411 1.375829,0.7883577 1.53127,1.5312702 0.29819,1.4251613 -0.965246,2.6794197 -2.390645,2.3732803 z"
       id="path821"
       inkscape:connector-curvature="0" />
    <path
       style="fill:#000000;stroke-width:0.000357143"
       d="M 6.5023497,11.467898 C 6.2677128,11.418682 6.0573694,11.341337 5.796875,11.208488 5.4437475,11.028397 4.9729128,10.558019 4.7905369,10.203125 4.5620187,9.7584409 4.515625,9.5554034 4.515625,9 4.515625,8.4445966 4.562019,8.2415591 4.7905369,7.796875 4.9722875,7.4431975 5.4431975,6.9722875 5.796875,6.7905369 6.2415591,6.5620187 6.4445966,6.515625 7,6.515625 c 0.5554034,0 0.7584409,0.046394 1.203125,0.2749119 C 8.5568025,6.9722875 9.0277125,7.4431975 9.2094631,7.796875 9.4379813,8.2415591 9.484375,8.4445966 9.484375,9 c 0,0.5554034 -0.046394,0.7584409 -0.2749119,1.203125 -0.1818869,0.353943 -0.6527809,0.824737 -1.0063381,1.006126 -0.4190266,0.214977 -0.625185,0.265823 -1.125,0.277462 -0.240625,0.0056 -0.4997241,-0.0029 -0.5757753,-0.01882 z M 7.421875,10.953145 C 8.1647875,10.797704 8.7977041,10.164787 8.9531453,9.421875 9.2502656,8.0018228 7.9981772,6.7497344 6.578125,7.0468547 6.0106991,7.1655784 5.4780709,7.5774881 5.2230478,8.0948078 c -0.2954,0.5992253 -0.2954,1.2111591 0,1.8103844 0.3931413,0.7974958 1.3092084,1.2340898 2.1988272,1.0479528 z M 10.50235,7.4678978 C 10.267713,7.4186819 10.057369,7.3413366 9.796875,7.2084878 9.4437475,7.0283972 8.9729128,6.5580194 8.7905369,6.203125 8.5620188,5.7584409 8.515625,5.5554034 8.515625,5 8.515625,4.4445966 8.562019,4.2415591 8.7905369,3.796875 8.9722875,3.4431975 9.4431975,2.9722876 9.796875,2.7905368 10.241559,2.5620187 10.444597,2.515625 11,2.515625 c 0.555403,0 0.758441,0.046394 1.203125,0.2749118 0.353678,0.1817508 0.824588,0.6526607 1.006338,1.0063382 0.228518,0.4446841 0.274912,0.6477216 0.274912,1.203125 0,0.5554034 -0.04639,0.7584409 -0.274912,1.203125 -0.181887,0.3539425 -0.652781,0.8247369 -1.006338,1.0061259 -0.419027,0.2149775 -0.625185,0.2658228 -1.125,0.2774622 -0.240625,0.0056 -0.499724,-0.00286 -0.575775,-0.018815 z M 11.421875,6.9531453 C 12.321483,6.7649184 12.998915,5.9259269 12.998915,5 12.998915,3.9092425 12.090757,3.0010852 11,3.0010852 9.9092425,3.0010852 9.0010853,3.9092425 9.0010853,5 c 0,0.7407994 0.4388056,1.4538003 1.0937227,1.7771537 0.43249,0.2135344 0.870202,0.2715822 1.327067,0.1759916 z"
       id="path819"
       inkscape:connector-curvature="0" />
  </g>
</svg>
