<?xml version="1.0" encoding="UTF-8" standalone="no"?>
<!-- Created with Inkscape (http://www.inkscape.org/) -->

<svg
   version="1.1"
   id="svg2"
   width="1600"
   height="1600"
   viewBox="0 0 1600 1600"
   sodipodi:docname="planar.svg"
   inkscape:version="1.2.2 (732a01da63, 2022-12-09)"
   xmlns:inkscape="http://www.inkscape.org/namespaces/inkscape"
   xmlns:sodipodi="http://sodipodi.sourceforge.net/DTD/sodipodi-0.dtd"
   xmlns="http://www.w3.org/2000/svg"
   xmlns:svg="http://www.w3.org/2000/svg"
   xmlns:rdf="http://www.w3.org/1999/02/22-rdf-syntax-ns#"
   xmlns:cc="http://creativecommons.org/ns#"
   xmlns:dc="http://purl.org/dc/elements/1.1/">
  <metadata
     id="metadata8">
    <rdf:RDF>
      <cc:Work
         rdf:about="">
        <dc:format>image/svg+xml</dc:format>
        <dc:type
           rdf:resource="http://purl.org/dc/dcmitype/StillImage" />
      </cc:Work>
    </rdf:RDF>
  </metadata>
  <defs
     id="defs6" />
  <sodipodi:namedview
     pagecolor="#808080"
     bordercolor="#666666"
     borderopacity="1"
     objecttolerance="10"
     gridtolerance="10"
     guidetolerance="10"
     inkscape:pageopacity="0"
     inkscape:pageshadow="2"
     inkscape:window-width="1993"
     inkscape:window-height="1009"
     id="namedview4"
     showgrid="false"
     inkscape:zoom="0.5"
     inkscape:cx="209"
     inkscape:cy="32"
     inkscape:window-x="-8"
     inkscape:window-y="-8"
     inkscape:window-maximized="1"
     inkscape:current-layer="PLANAR"
     inkscape:showpageshadow="0"
     inkscape:pagecheckerboard="true"
     inkscape:deskcolor="#d1d1d1" />
  <g
     id="PLANAR"
     transform="matrix(100,0,0,100,0,4.9999997e-5)"
     style="stroke-width:0.0114286">
    <path
       style="fill:none;stroke-width:0.000357143"
       d="m 0.00248437,14.117188 c 0.00223168,-1.691307 0.0069217,-1.862153 0.04611047,-1.679688 0.11908194,0.554451 0.53562828,1.087749 1.04621296,1.339452 0.5992253,0.2954 1.2111591,0.2954 1.8103844,0 0.3239884,-0.159716 0.6804437,-0.499712 0.8391387,-0.800389 L 3.847415,12.78125 H 8 12.152585 l 0.103084,0.195313 c 0.06067,0.114946 0.200086,0.292965 0.338828,0.432639 0.781165,0.78641 2.026647,0.785942 2.813647,-0.0011 0.271767,-0.271767 0.46875,-0.623716 0.543261,-0.970644 0.03919,-0.182464 0.04388,-0.01162 0.04611,1.679688 L 16,16 H 8 0 Z m 0,-8.2343755 L 0,0 h 8 8 L 15.9975,5.8828125 C 15.9953,10.997614 15.9893,11.739107 15.95139,11.5625 15.832323,11.008049 15.415777,10.474751 14.905192,10.223048 14.66696,10.105607 14.30993,10.001983 14.138563,10.000543 14.069418,9.9999613 14.012873,9.8766825 13.751308,9.15625 13.729467,9.0960938 13.67905,8.9625 13.639269,8.859375 c -0.03978,-0.103125 -0.114387,-0.3 -0.165792,-0.4375 -0.05141,-0.1375 -0.12868,-0.3414062 -0.17172,-0.453125 C 13.258717,7.8570313 13.206522,7.7164063 13.185768,7.65625 13.165014,7.5960937 13.116575,7.4695312 13.078125,7.375 12.992763,7.1651303 12.939793,7.0144984 12.907794,6.890625 12.894475,6.8390625 12.855288,6.7335937 12.820713,6.65625 12.786138,6.5789062 12.740412,6.4664063 12.719099,6.40625 12.697786,6.3460937 12.64528,6.2054687 12.60242,6.09375 12.55956,5.9820313 12.48991,5.7955388 12.447642,5.6793225 L 12.370792,5.46802 12.515098,5.3043225 C 12.699401,5.0952522 12.894478,4.70227 12.953145,4.421875 13.250266,3.0018229 11.998177,1.7497342 10.578125,2.0468548 10.457812,2.072028 10.24032,2.1513149 10.094808,2.2230479 9.758855,2.3886625 9.4108081,2.7244215 9.2490497,3.0389469 L 9.140625,3.2497688 H 8 6.859375 L 6.7509503,3.0389469 C 6.5891919,2.7244215 6.241145,2.3886625 5.9051922,2.2230479 4.3891878,1.4757037 2.7019856,2.7736141 3.0468548,4.421875 3.107363,4.7110669 3.3024147,5.0988116 3.4965688,5.3158647 L 3.6533206,5.4911044 3.5744853,5.7064897 C 3.5311259,5.8249516 3.4630819,6.00625 3.4232763,6.109375 3.3834706,6.2125 3.3334644,6.3460937 3.3121513,6.40625 3.2908383,6.466406 3.2451113,6.5789062 3.2105366,6.65625 3.1759616,6.733594 3.1367756,6.8390625 3.1234556,6.890625 3.0914572,7.0144984 3.0384874,7.1651303 2.953125,7.375 2.9146753,7.4695312 2.866236,7.5960937 2.845482,7.65625 2.824728,7.7164062 2.7725329,7.8570312 2.7294928,7.96875 2.6864527,8.0804688 2.609179,8.284375 2.5577734,8.421875 2.5063678,8.559375 2.431761,8.75625 2.3919806,8.859375 2.3522002,8.9625 2.3022628,9.0960938 2.2810087,9.15625 2.2597545,9.2164063 2.2089264,9.3397647 2.1680574,9.4303797 2.1271883,9.520995 2.09375,9.6121294 2.09375,9.6329009 c 0,0.020771 -0.030713,0.111866 -0.06825,0.2024325 C 1.968369,9.9731713 1.9441845,10.000088 1.8770621,10.000543 1.6916227,10.001799 1.3417367,10.101319 1.0948078,10.223048 0.58422312,10.474751 0.16767678,11.008049 0.04859484,11.5625 0.0106642,11.739107 0.0046444,10.997614 0.00248437,5.8828125 Z"
       id="path825"
       inkscape:connector-curvature="0" />
    <path
       style="fill:#fefefe;stroke-width:0.000357143"
       d="m 1,12 v -1 h 1 1 v 1 1 H 2 1 Z m 12,0 v -1 h 1 1 v 1 1 H 14 13 Z M 4,4 V 3 H 5 6 V 4 5 H 5 4 Z m 6,0 V 3 h 1 1 v 1 1 h -1 -1 z"
       id="path823"
       inkscape:connector-curvature="0" />
    <path
       style="fill:#98cbfe;stroke-width:0.000357143"
       d="M 3.9118259,12.585938 C 4.1965825,11.681929 3.7531575,10.641069 2.9051922,10.223048 2.6392734,10.091958 2.3055435,10.001551 2.0838316,10.000543 1.9746176,10.000046 1.9663709,9.9940591 1.9862281,9.9296875 1.9981574,9.8910156 2.0272301,9.8214016 2.0508339,9.7749894 2.0744378,9.7285772 2.09375,9.6691231 2.09375,9.6428691 2.09375,9.6166151 2.127188,9.520995 2.168057,9.4303797 2.208926,9.3397647 2.259754,9.2164063 2.2810083,9.15625 2.3022623,9.096094 2.3521993,8.9625 2.3919802,8.859375 2.4317602,8.75625 2.5063674,8.559375 2.557773,8.421875 2.609179,8.284375 2.6864527,8.0804688 2.7294928,7.96875 2.7725329,7.8570313 2.824728,7.7164063 2.845482,7.65625 2.866236,7.5960937 2.9146753,7.4695312 2.953125,7.375 3.0384874,7.1651303 3.0914572,7.0144984 3.1234558,6.890625 3.1367758,6.839062 3.1759618,6.7335937 3.2105368,6.65625 3.2451118,6.578906 3.2908388,6.4664063 3.3121515,6.40625 3.3334645,6.346094 3.3830145,6.2125 3.422263,6.109375 3.461511,6.00625 3.517628,5.8585937 3.5469674,5.78125 3.5763074,5.703906 3.6130814,5.6079209 3.6286874,5.5679494 L 3.6570634,5.4952741 3.809075,5.6068606 C 4.6095744,6.1944816 5.7056056,6.1106822 6.4081441,5.4081441 6.9599409,4.8563469 7.1256941,4.1354578 6.8881966,3.3203125 L 6.8677106,3.25 H 8 9.1322894 l -0.020486,0.070312 c -0.2374975,0.8151453 -0.071744,1.5360344 0.4800525,2.0878316 0.7098371,0.7098365 1.8180981,0.7871978 2.6186291,0.1827912 0.09048,-0.068316 0.164576,-0.1202387 0.164651,-0.115385 1.88e-4,0.011382 0.12741,0.3573097 0.227378,0.6181997 0.04281,0.1117187 0.09527,0.2523437 0.116585,0.3125 0.02131,0.060156 0.06704,0.1726562 0.101614,0.25 0.03458,0.077344 0.07376,0.1828125 0.08708,0.234375 0.032,0.1238734 0.08497,0.2745053 0.170331,0.484375 0.03845,0.094531 0.08689,0.2210937 0.107643,0.28125 0.02075,0.060156 0.07295,0.2007813 0.115989,0.3125 0.04304,0.1117188 0.120314,0.315625 0.17172,0.453125 0.0514,0.1375 0.126012,0.334375 0.165792,0.4375 0.03978,0.103125 0.0902,0.2367188 0.112039,0.296875 0.06283,0.1730528 0.18837,0.5022666 0.25246,0.6620431 0.0323,0.08053 0.05873,0.1543582 0.05873,0.1640625 0,0.0097 -0.05977,0.017888 -0.132813,0.018187 -0.234461,9.59e-4 -0.563179,0.08856 -0.834879,0.222505 -0.522793,0.257721 -0.928543,0.786577 -1.051631,1.370702 -0.06135,0.291132 -0.04209,0.715703 0.045,0.992188 l 0.06152,0.195312 H 8 3.8503038 Z"
       id="path821"
       inkscape:connector-curvature="0" />
    <path
       style="fill:#323232;stroke-width:0.000357143"
       d="M 1.5625,13.951405 C 0.83231922,13.794581 0.20070406,13.157179 0.04685475,12.421875 -0.25026576,11.001823 1.0018229,9.7497344 2.421875,10.046855 3.3214828,10.235082 3.9989147,11.074073 3.9989147,12 c 0,1.268377 -1.187653,2.219608 -2.4364147,1.951405 z M 3,12 V 11 H 2 1 v 1 1 h 1 1 z m 10.5625,1.951405 c -0.730181,-0.156824 -1.361796,-0.794226 -1.515645,-1.52953 -0.297121,-1.420052 0.954968,-2.6721406 2.37502,-2.37502 0.742912,0.155441 1.375829,0.788358 1.53127,1.53127 0.29819,1.425161 -0.965246,2.67942 -2.390645,2.37328 z M 15,12 v -1 h -1 -1 v 1 1 h 1 1 z M 4.5625,5.9514053 C 3.8323191,5.7945809 3.2007041,5.1571794 3.0468548,4.421875 2.7497343,3.0018229 4.0018228,1.7497342 5.421875,2.0468548 6.1647875,2.2022959 6.7977041,2.8352126 6.9531453,3.578125 7.2513347,5.0032863 5.9878991,6.2575447 4.5625,5.9514053 Z M 6,4 V 3 H 5 4 v 1 1 h 1 1 z m 4.5625,1.9514053 C 9.8323191,5.7945809 9.2007041,5.1571794 9.0468547,4.421875 8.7497344,3.0018229 10.001823,1.7497342 11.421875,2.0468548 c 0.742912,0.1554411 1.375829,0.7883578 1.53127,1.5312702 0.29819,1.4251613 -0.965246,2.6794197 -2.390645,2.3732803 z M 12,4 V 3 h -1 -1 v 1 1 h 1 1 z"
       id="path819"
       inkscape:connector-curvature="0" />
  </g>
</svg>
