<?xml version="1.0" encoding="UTF-8" standalone="no"?>
<!-- Created with Inkscape (http://www.inkscape.org/) -->

<svg
   version="1.1"
   id="svg2"
   width="1600"
   height="1600"
   viewBox="0 0 1600 1600"
   sodipodi:docname="play.svg"
   inkscape:version="1.2.2 (732a01da63, 2022-12-09)"
   xmlns:inkscape="http://www.inkscape.org/namespaces/inkscape"
   xmlns:sodipodi="http://sodipodi.sourceforge.net/DTD/sodipodi-0.dtd"
   xmlns="http://www.w3.org/2000/svg"
   xmlns:svg="http://www.w3.org/2000/svg"
   xmlns:rdf="http://www.w3.org/1999/02/22-rdf-syntax-ns#"
   xmlns:cc="http://creativecommons.org/ns#"
   xmlns:dc="http://purl.org/dc/elements/1.1/">
  <metadata
     id="metadata8">
    <rdf:RDF>
      <cc:Work
         rdf:about="">
        <dc:format>image/svg+xml</dc:format>
        <dc:type
           rdf:resource="http://purl.org/dc/dcmitype/StillImage" />
      </cc:Work>
    </rdf:RDF>
  </metadata>
  <defs
     id="defs6" />
  <sodipodi:namedview
     pagecolor="#808080"
     bordercolor="#666666"
     borderopacity="1"
     objecttolerance="10"
     gridtolerance="10"
     guidetolerance="10"
     inkscape:pageopacity="0"
     inkscape:pageshadow="2"
     inkscape:window-width="2560"
     inkscape:window-height="1009"
     id="namedview4"
     showgrid="true"
     inkscape:zoom="0.35355339"
     inkscape:cx="722.66313"
     inkscape:cy="882.46926"
     inkscape:window-x="-8"
     inkscape:window-y="-8"
     inkscape:window-maximized="1"
     inkscape:current-layer="PLAY"
     inkscape:showpageshadow="0"
     inkscape:pagecheckerboard="true"
     inkscape:deskcolor="#d1d1d1">
    <inkscape:grid
       type="xygrid"
       id="grid1134"
       spacingx="100"
       spacingy="100" />
  </sodipodi:namedview>
  <g
     id="PLAY"
     transform="matrix(100,0,0,100,0,4.9999997e-5)"
     style="stroke-width:0.0114286">
    <path
       style="fill:none;stroke-width:0.000357143"
       d="M 0,8 V 0 h 8 8 v 8 8 H 8 0 Z m 4.3612812,6.97072 c 0.1514963,-0.05325 8.6279688,-4.745976 9.3334718,-5.1671797 0.150083,-0.089603 0.356399,-0.2103475 0.458479,-0.26832 0.384008,-0.2180825 0.598048,-0.4765334 0.736691,-0.889545 0.06774,-0.2017812 0.07883,-0.2904281 0.07883,-0.6300503 0,-0.3396222 -0.01109,-0.4282691 -0.07883,-0.6300503 C 14.801055,7.1208412 14.618198,6.8317109 14.454083,6.6964337 14.393503,6.6464981 14.220848,6.5372722 14.070406,6.4537091 13.919964,6.3701463 13.705469,6.2422781 13.59375,6.1695581 13.220397,5.9265344 4.5363472,1.1220611 4.3556316,1.0585447 4.1934322,1.0015362 4.1129303,0.99681494 3.4559341,1.0057795 2.7610389,1.0152612 2.7286011,1.0184844 2.578125,1.0930044 2.3789118,1.1916604 2.1916604,1.3789118 2.0930044,1.578125 l -0.077379,0.15625 -0.00847,6.21875 c -0.00767,5.63536 -0.00377,6.23323 0.041633,6.373106 0.1014275,0.31249 0.3281411,0.544177 0.6388779,0.652894 0.1105264,0.03867 0.2854588,0.04946 0.8209247,0.05063 0.5954381,0.0013 0.7019885,-0.0061 0.8526881,-0.05904 z"
       id="path825"
       inkscape:connector-curvature="0" />
    <path
       style="fill:#fefefe;stroke-width:0.000357143"
       d="M 2.0071554,7.953125 V 1.9375 h 0.5076159 0.507616 l 4.4845715,2.4902241 c 2.4665149,1.3696231 4.4929932,2.5025596 4.5032842,2.5176362 0.01029,0.015077 0.198892,0.1284606 0.419112,0.2519638 0.482814,0.2707709 0.524454,0.3270478 0.54188,0.7323634 0.0063,0.1461909 -0.0015,0.2578125 -0.018,0.2578125 -0.016,0 -0.245956,-0.090553 -0.511019,-0.2012287 C 12.060381,7.8268387 11.13595,7.3270534 7.9915304,5.5800497 L 4.0227804,3.3750575 3.5149679,3.3750288 3.0071554,3.375 v 5.296875 5.296875 h -0.5 -0.5 z"
       id="path823"
       inkscape:connector-curvature="0" />
    <path
       style="fill:#cbcbcb;stroke-width:0.000357143"
       d="M 3.0071554,8.6729744 V 3.375 l 0.5078125,2.87e-5 0.5078125,2.88e-5 3.96875,2.2050812 c 3.2075466,1.7821479 4.0635696,2.2445841 4.4631166,2.4110407 0.478272,0.199255 0.493718,0.2085381 0.474484,0.2851715 -0.04003,0.1594888 -0.142686,0.246811 -0.537352,0.4570857 -0.220136,0.1172865 -0.41431,0.2299787 -0.431498,0.2504271 -0.02317,0.027562 -8.4687562,4.7342853 -8.8828131,4.9503883 l -0.070312,0.0367 z"
       id="path821"
       inkscape:connector-curvature="0" />
    <path
       style="fill:#323232;stroke-width:0.000357143"
       d="M 1.6948238,14.916625 C 1.384087,14.807908 1.1573734,14.576221 1.0559459,14.263731 1.0105455,14.123855 1.0066398,13.525985 1.0143129,7.890625 l 0.00847,-6.21875 0.077379,-0.15625 c 0.098654,-0.1992132 0.2859053,-0.3864646 0.4851185,-0.4851206 0.1504761,-0.07452 0.1829139,-0.077743 0.8778091,-0.087225 0.6569962,-0.008965 0.7374981,-0.00424 0.8996975,0.052765 0.1807156,0.063516 8.864766,4.8679897 9.238119,5.1110134 0.111719,0.07272 0.326214,0.2005882 0.476656,0.284151 0.150442,0.083563 0.323097,0.192789 0.383677,0.2427246 0.164115,0.1352772 0.346972,0.4244075 0.43584,0.689141 0.06774,0.2017812 0.07883,0.2904281 0.07883,0.6300503 0,0.3396222 -0.01109,0.4282691 -0.07883,0.6300503 -0.138643,0.4130116 -0.352683,0.6714625 -0.736691,0.889545 -0.10208,0.057972 -0.308396,0.1787166 -0.458479,0.26832 -0.705503,0.421204 -9.1819761,5.113933 -9.3334723,5.16718 -0.1506997,0.05297 -0.25725,0.06034 -0.8526882,0.05904 C 1.9802826,14.96606 1.8053502,14.9553 1.6948238,14.91663 Z m 5.7809329,-3.421674 c 2.449301,-1.36059 4.4673373,-2.4905548 4.4845243,-2.5110332 0.01719,-0.020478 0.211362,-0.1331947 0.431498,-0.2504812 0.223433,-0.1190432 0.425142,-0.2487688 0.4566,-0.293655 0.09589,-0.1368247 0.134666,-0.3088963 0.122573,-0.5439513 C 12.951999,7.5274328 12.901237,7.4619641 12.429355,7.1973241 12.209135,7.0738209 12.020535,6.9604372 12.010244,6.9453603 11.999952,6.9302837 9.9734737,5.7973472 7.5069588,4.4277241 L 3.0223873,1.9375 H 2.5147713 2.0071554 v 6.015625 6.015625 h 0.5076637 0.5076638 z"
       id="path819"
       inkscape:connector-curvature="0" />
  </g>
</svg>
