<?xml version="1.0" encoding="UTF-8" standalone="no"?>
<!-- Created with Inkscape (http://www.inkscape.org/) -->

<svg
   version="1.1"
   id="svg2"
   width="1600"
   height="1600"
   viewBox="0 0 1600 1600"
   sodipodi:docname="point_distribute.svg"
   inkscape:version="1.2.2 (732a01da63, 2022-12-09)"
   xmlns:inkscape="http://www.inkscape.org/namespaces/inkscape"
   xmlns:sodipodi="http://sodipodi.sourceforge.net/DTD/sodipodi-0.dtd"
   xmlns="http://www.w3.org/2000/svg"
   xmlns:svg="http://www.w3.org/2000/svg"
   xmlns:rdf="http://www.w3.org/1999/02/22-rdf-syntax-ns#"
   xmlns:cc="http://creativecommons.org/ns#"
   xmlns:dc="http://purl.org/dc/elements/1.1/">
  <metadata
     id="metadata8">
    <rdf:RDF>
      <cc:Work
         rdf:about="">
        <dc:format>image/svg+xml</dc:format>
        <dc:type
           rdf:resource="http://purl.org/dc/dcmitype/StillImage" />
      </cc:Work>
    </rdf:RDF>
  </metadata>
  <defs
     id="defs6" />
  <sodipodi:namedview
     pagecolor="#808080"
     bordercolor="#666666"
     borderopacity="1"
     objecttolerance="10"
     gridtolerance="10"
     guidetolerance="10"
     inkscape:pageopacity="0"
     inkscape:pageshadow="2"
     inkscape:window-width="1993"
     inkscape:window-height="1009"
     id="namedview4"
     showgrid="false"
     inkscape:zoom="0.5"
     inkscape:cx="253"
     inkscape:cy="78"
     inkscape:window-x="-8"
     inkscape:window-y="-8"
     inkscape:window-maximized="1"
     inkscape:current-layer="POINT_DISTRIBUTE"
     inkscape:showpageshadow="0"
     inkscape:pagecheckerboard="true"
     inkscape:deskcolor="#d1d1d1" />
  <g
     id="POINT_DISTRIBUTE"
     transform="matrix(100,0,0,100,0,4.9999997e-5)"
     style="stroke-width:0.0114286">
    <path
       style="fill:none;stroke-width:0.000357143"
       d="M 0,8 V 0 h 8 8 v 8 8 H 8 0 Z m 8.2275663,7.456342 c 0.057393,-0.02492 0.7737009,-0.719102 1.6687265,-1.617188 1.3880132,-1.392758 1.5706462,-1.587192 1.5897432,-1.692463 0.04342,-0.239372 -0.02774,-0.4254 -0.21675,-0.566635 -0.0813,-0.06075 -0.134358,-0.06496 -0.927757,-0.07368 L 9.5,11.497131 V 11.338972 C 9.5,11.200178 9.4933,11.183706 9.445313,11.204438 8.9723397,11.408762 8.5261784,11.5 8,11.5 7.4738216,11.5 7.0276603,11.408762 6.5546875,11.204438 6.5066966,11.183706 6.5,11.200177 6.5,11.33895 v 0.158136 l -0.8259059,0.0093 c -0.7775847,0.0087 -0.830951,0.01304 -0.9121316,0.0737 -0.1890128,0.141237 -0.2601713,0.327264 -0.2167481,0.566635 0.019096,0.105271 0.2017162,0.299686 1.5897428,1.69242 0.8624922,0.865417 1.6103553,1.592602 1.6619178,1.615965 0.1222994,0.05541 0.3047369,0.05595 0.4306913,0.0013 z M 4.2728025,11.417266 c 0.045491,-0.03396 0.1117047,-0.100555 0.1471416,-0.14798 0.060746,-0.0813 0.06496,-0.134358 0.073678,-0.927757 L 4.5028694,9.5 H 4.6610281 C 4.7998222,9.5 4.8162941,9.4933 4.7955619,9.445313 4.5912384,8.9723397 4.5,8.5261784 4.5,8 4.5,7.4738216 4.5912384,7.0276603 4.7955619,6.5546875 4.8162941,6.5066966 4.7998231,6.5 4.6610503,6.5 H 4.5029137 L 4.4936444,5.6740941 C 4.4849172,4.8965094 4.4806053,4.8431431 4.4199441,4.7619625 4.2787069,4.5729497 4.09268,4.5017912 3.8533088,4.5452144 3.7480384,4.5643109 3.5536044,4.7469444 2.1608457,6.1349572 1.2627599,7.0299828 0.56857597,7.7462903 0.54365822,7.8036837 0.49184491,7.9230263 0.48740531,8.0870372 0.53268941,8.2089031 0.57333447,8.318285 3.6367297,11.395757 3.765625,11.456695 c 0.1284644,0.06073 0.4014444,0.03951 0.5071775,-0.03943 z m 7.9361005,0.0188 c 0.117355,-0.04361 3.190798,-3.1098751 3.247327,-3.2397447 0.0558,-0.1281925 0.05584,-0.2955172 1.25e-4,-0.4238825 -0.02492,-0.057393 -0.719102,-0.773701 -1.617188,-1.6687266 -1.392759,-1.3880128 -1.587193,-1.5706463 -1.692463,-1.5897428 -0.239372,-0.043424 -0.4254,0.027736 -0.566635,0.2167497 -0.06075,0.081296 -0.06496,0.1343584 -0.07368,0.9277565 L 11.497131,6.5 H 11.338972 C 11.200178,6.5 11.183706,6.5067 11.204438,6.554687 11.408762,7.0276603 11.5,7.4738216 11.5,8 11.5,8.5261784 11.408762,8.9723397 11.204438,9.4453125 11.18369,9.4933409 11.200246,9.5 11.340407,9.5 H 11.5 v 0.779216 c 0,0.476101 0.01297,0.813436 0.03333,0.867187 0.09722,0.256597 0.407048,0.389438 0.675571,0.289658 z M 8.7233256,10.910744 C 9.8243259,10.62147 10.649577,9.7817472 10.927823,8.6675878 c 0.07422,-0.2972056 0.07422,-1.03797 0,-1.3351756 -0.278115,-1.113636 -1.0890596,-1.9398303 -2.2044974,-2.2459528 -0.3439365,-0.094391 -1.1027147,-0.094391 -1.4466512,0 -1.1154378,0.3061225 -1.9263825,1.1323168 -2.2044978,2.2459528 -0.074223,0.2972056 -0.074223,1.03797 0,1.3351756 0.2968793,1.1887713 1.2139043,2.0604802 2.4072475,2.2882912 0.3099237,0.05916 0.9329737,0.03656 1.2439015,-0.04514 z M 6.8551369,4.68238 C 7.1926528,4.5593878 7.5654497,4.5 8,4.5 8.5261784,4.5 8.9723397,4.5912384 9.4453125,4.7955619 9.4933034,4.8162941 9.5,4.7998231 9.5,4.6610503 V 4.5029137 l 0.825906,-0.00927 c 0.777585,-0.00873 0.830951,-0.013039 0.912132,-0.0737 C 11.42705,4.2787069 11.498209,4.09268 11.454786,3.8533088 11.435689,3.7480384 11.253056,3.5536044 9.8650428,2.1608457 8.9700172,1.2627599 8.2537097,0.56857597 8.1963163,0.54365822 c -0.1282788,-0.055693 -0.2956038,-0.055693 -0.4238826,0 C 7.7150403,0.56857597 6.9987328,1.2627599 6.1037072,2.1608457 4.7156944,3.5536044 4.5330609,3.7480384 4.5139644,3.8533088 c -0.043424,0.2393721 0.027736,0.4254003 0.2167497,0.5666353 0.081296,0.060746 0.1343584,0.06496 0.9277565,0.073678 L 6.5,4.5028694 v 0.1581587 c 0,0.1387941 0.0067,0.155266 0.054687,0.1345338 C 6.584765,4.7825679 6.7199673,4.7316369 6.8551369,4.68238 Z"
       id="path827"
       inkscape:connector-curvature="0" />
    <path
       style="fill:#fefefe;stroke-width:0.000357143"
       d="M 6.5156256,13.500001 5.0158691,12 H 6.0079347 7 V 11.684157 C 7,11.405411 7.00597,11.370603 7.050796,11.387805 7.1951247,11.44319 7.6757597,11.5 8,11.5 8.3242403,11.5 8.8048753,11.44319 8.9492044,11.387805 8.9940309,11.370604 9,11.405378 9,11.683724 v 0.31541 l 1.00014,0.0082 1.000141,0.0082 -1.4924494,1.492188 -1.4924494,1.492188 z M 2.4921869,9.5078316 0.99999875,8.0153822 2.4999994,6.5156256 4,5.0158691 V 6.0079347 7 H 4.3158434 C 4.5945894,7 4.6293972,7.00597 4.6121947,7.050796 4.5568103,7.1951247 4.5,7.6757597 4.5,8 4.5,8.3242403 4.5568103,8.8048753 4.6121947,8.9492044 4.6293962,8.9940309 4.5946225,9 4.3162762,9 H 4.0008659 l -0.00825,1.00014 -0.00825,1.000141 z M 12,9.9920653 V 9 H 11.684157 C 11.405411,9 11.370603,8.9940338 11.387805,8.9492044 11.44319,8.8048753 11.5,8.3242403 11.5,8 11.5,7.6757597 11.44319,7.1951247 11.387805,7.0507956 11.370604,7.0059691 11.405378,7 11.683724,7 h 0.31541 l 0.0082,-1.0001403 0.0082,-1.0001403 1.492188,1.492449 1.492188,1.4924494 -1.5,1.4997566 L 12,10.984131 Z M 7,4.3158434 V 4 H 5.9923097 4.9846191 L 6.4843756,2.4999994 7.9841322,0.99999875 9.4765819,2.4921869 10.969032,3.984375 9.9845159,3.9926266 9,4.0008778 V 4.3162825 C 9,4.5946231 8.9940309,4.6293962 8.9492044,4.6121947 8.8048753,4.5568103 8.3242403,4.5 8,4.5 7.6757597,4.5 7.1951247,4.5568103 7.0507956,4.6121947 7.0059662,4.6293972 7,4.5945894 7,4.3158434 Z"
       id="path825"
       inkscape:connector-curvature="0" />
    <path
       style="fill:#fecb32;stroke-width:0.000357143"
       d="M 7.5826353,10.450042 C 7.1222766,10.366876 6.6250441,10.11543 6.2768137,9.7897016 5.930775,9.4660225 5.6370444,8.9026838 5.5479637,8.3918569 c -0.059863,-0.3432781 -0.059863,-0.4404357 0,-0.7837138 C 5.6099337,7.2527803 5.7434078,6.9232119 5.952825,6.6084772 6.3245103,6.0498687 6.9208369,5.6678197 7.6081431,5.5479637 c 0.3432781,-0.059863 0.4404356,-0.059863 0.7837138,0 0.3553628,0.06197 0.6849312,0.1954441 0.9996659,0.4048613 0.5586084,0.3716853 0.9406572,0.9680119 1.0605132,1.6553181 0.05986,0.3432781 0.05986,0.4404356 0,0.7837138 -0.06197,0.3553628 -0.195444,0.6849312 -0.404861,0.9996659 -0.3716853,0.5586085 -0.9680119,0.9406572 -1.6553181,1.0605132 -0.3285569,0.0573 -0.4831397,0.05692 -0.8092216,-0.002 z"
       id="path823"
       inkscape:connector-curvature="0" />
    <path
       style="fill:#cb6500;stroke-width:0.000357143"
       d="M 7.4794241,10.955879 C 6.8391219,10.833644 6.2811547,10.532683 5.8413031,10.072296 5.46529,9.6787272 5.2067906,9.2066125 5.0721766,8.6675878 c -0.074223,-0.2972056 -0.074223,-1.03797 0,-1.3351756 0.2781153,-1.113636 1.08906,-1.9398303 2.2044978,-2.2459528 0.3439365,-0.094391 1.1027147,-0.094391 1.4466512,0 1.1154378,0.3061225 1.9263824,1.1323168 2.2044974,2.2459528 0.07422,0.2972056 0.07422,1.03797 0,1.3351756 -0.278246,1.1141594 -1.1034971,1.9538822 -2.2044974,2.2431562 -0.3109278,0.08169 -0.9339778,0.104299 -1.2439015,0.04514 z M 8.3918569,10.452036 C 9.0791631,10.33218 9.6754897,9.9501313 10.047175,9.3915228 c 0.209417,-0.3147347 0.342891,-0.6443031 0.404861,-0.9996659 0.05986,-0.3432781 0.05986,-0.4404357 0,-0.7837138 C 10.33218,6.9208369 9.9501312,6.3245103 9.3915228,5.952825 9.0767881,5.7434078 8.7472197,5.6099337 8.3918569,5.5479637 c -0.3432781,-0.059863 -0.4404357,-0.059863 -0.7837138,0 C 6.9208369,5.6678197 6.3245103,6.0498687 5.952825,6.6084772 5.7434078,6.9232119 5.6099337,7.2527803 5.5479637,7.6081431 c -0.059863,0.3432781 -0.059863,0.4404356 0,0.7837138 0.089081,0.5108269 0.3828113,1.0741656 0.7288501,1.3978447 0.3482303,0.3257284 0.8454628,0.5771744 1.3058215,0.6603404 0.3260819,0.05891 0.4806647,0.05929 0.8092216,0.002 z"
       id="path821"
       inkscape:connector-curvature="0" />
    <path
       style="fill:#323232;stroke-width:0.000357143"
       d="M 7.796875,15.455076 C 7.7453125,15.431713 6.9974494,14.704528 6.1349572,13.839111 4.7469306,12.446377 4.5643109,12.251962 4.5452144,12.146691 c -0.043423,-0.239371 0.027735,-0.425398 0.2167481,-0.566635 0.081181,-0.06066 0.1345469,-0.06497 0.9121316,-0.0737 L 6.5,11.497086 V 11.33895 c 0,-0.138678 0.00673,-0.15526 0.054687,-0.134762 0.030078,0.01286 0.1390625,0.05496 0.2421875,0.09356 l 0.1875,0.07018 0.0089,0.315597 0.0089,0.315597 -0.9856041,0.0083 -0.9856044,0.0083 1.49245,1.492188 1.4924497,1.492188 1.4997566,-1.5 L 11.015381,12 H 10.006597 8.9978134 l 0.00891,-0.316037 0.00891,-0.316038 0.1875,-0.07018 c 0.103125,-0.0386 0.2121094,-0.0807 0.2421875,-0.09356 C 9.4932712,11.183689 9.5,11.200273 9.5,11.338972 v 0.158159 l 0.841529,0.0092 c 0.793399,0.0087 0.846461,0.01293 0.927757,0.07368 0.189013,0.141235 0.260173,0.327263 0.21675,0.566635 -0.0191,0.105271 -0.20173,0.299705 -1.5897432,1.692463 -0.8950256,0.898086 -1.6113331,1.59227 -1.6687265,1.617188 -0.1259544,0.05468 -0.3083919,0.05415 -0.4306913,-0.0013 z M 3.765625,11.456695 C 3.6367297,11.395757 0.57333447,8.318285 0.53268941,8.2089031 0.48740531,8.0870372 0.49184491,7.9230263 0.54365822,7.8036838 0.56857597,7.7462903 1.2627599,7.0299828 2.1608457,6.1349572 3.5536044,4.7469444 3.7480384,4.5643109 3.8533088,4.5452144 4.09268,4.5017913 4.2787069,4.5729497 4.4199441,4.7619625 c 0.060661,0.081181 0.064973,0.1345469 0.0737,0.9121316 L 4.5029137,6.5 h 0.1581366 c 0.1386778,0 0.15526,0.00673 0.1347613,0.054687 -0.012856,0.030079 -0.054957,0.139063 -0.093556,0.242188 l -0.07018,0.1875 -0.3155972,0.0089 -0.3155972,0.0089 L 3.9926278,6.0165725 3.984375,5.0309681 2.4921869,6.5234181 0.99999875,8.0158678 2.4999994,9.5156244 4,11.015381 V 10.006597 8.9978134 l 0.3160375,0.00891 0.3160378,0.00891 0.07018,0.1875 c 0.038599,0.103125 0.0807,0.2121094 0.093556,0.2421875 C 4.8163106,9.4932712 4.7997269,9.5 4.6610281,9.5 H 4.5028694 l -0.00925,0.841529 c -0.00872,0.793399 -0.012932,0.846461 -0.073678,0.927757 -0.035437,0.04743 -0.1016507,0.114016 -0.1471416,0.14798 -0.1057331,0.07894 -0.3787131,0.100163 -0.5071775,0.03943 z m 8.03125,-0.03206 C 11.681948,11.373556 11.577696,11.263494 11.533332,11.146403 11.512966,11.092652 11.5,10.755317 11.5,10.279216 V 9.5 h -0.159593 c -0.140066,0 -0.156734,-0.00669 -0.136219,-0.054687 0.01286,-0.030078 0.05496,-0.1390625 0.09356,-0.2421875 l 0.07018,-0.1875 0.315597,-0.0089 0.315597,-0.0089 0.0083,0.9856041 0.0083,0.9856044 1.492188,-1.49245 1.492188,-1.4924497 -1.5,-1.4997566 L 12,4.9846191 v 1.0087837 1.0087838 l -0.316037,-0.00891 -0.316038,-0.00891 -0.07018,-0.1875 C 11.259145,6.69375 11.217045,6.5847656 11.204188,6.5546875 11.183689,6.5067288 11.200273,6.5 11.338972,6.5 h 0.158159 l 0.0092,-0.8415294 c 0.0087,-0.7933981 0.01293,-0.8464609 0.07368,-0.9277565 0.141235,-0.1890135 0.327263,-0.2601732 0.566635,-0.2167497 0.105271,0.019096 0.299705,0.20173 1.692463,1.5897428 0.898086,0.8950256 1.59227,1.6113331 1.617188,1.6687265 0.05573,0.1283654 0.05569,0.2956901 -1.25e-4,0.4238826 -0.05653,0.1298696 -3.129972,3.1961367 -3.247327,3.2397447 -0.118878,0.04417 -0.298115,0.0392 -0.412028,-0.01143 z M 6.5,4.6610281 V 4.5028694 L 5.6584706,4.4936222 C 4.8650725,4.4849037 4.8120097,4.48069 4.7307141,4.4199441 4.5417006,4.2787091 4.4705409,4.0926809 4.5139644,3.8533088 4.5330609,3.7480384 4.7156944,3.5536044 6.1037072,2.1608457 6.9987328,1.2627599 7.7150403,0.56857597 7.7724337,0.54365822 c 0.1282788,-0.055693 0.2956038,-0.055693 0.4238825,0 0.057393,0.0249178 0.773701,0.71910168 1.6687266,1.61718748 1.3880132,1.3927587 1.5706462,1.5871927 1.5897432,1.6924631 0.04342,0.2393712 -0.02774,0.4253981 -0.216749,0.5666353 -0.08118,0.060661 -0.134546,0.064973 -0.912131,0.0737 L 9.5,4.5029137 V 4.6610503 C 9.5,4.7997281 9.49327,4.8163103 9.445313,4.7958116 9.4152344,4.7829553 9.30625,4.740855 9.203125,4.7022556 l -0.1875,-0.07018 -0.0089,-0.3155972 -0.0089,-0.3155972 0.9856041,-0.00825 L 10.969032,3.984375 9.4765819,2.4921869 7.9841322,0.99999875 6.4843756,2.4999994 4.9846191,4 h 1.0087837 1.0087838 l -0.00891,0.3160375 -0.00891,0.3160378 -0.1875,0.07018 C 6.69375,4.740855 6.5847656,4.7829553 6.5546875,4.7958116 6.5067288,4.8163106 6.5,4.7997269 6.5,4.6610281 Z"
       id="path819"
       inkscape:connector-curvature="0" />
  </g>
</svg>
