<?xml version="1.0" encoding="UTF-8" standalone="no"?>
<!-- Created with Inkscape (http://www.inkscape.org/) -->

<svg
   version="1.1"
   id="svg2"
   width="1600"
   height="1600"
   viewBox="0 0 1600 1600"
   sodipodi:docname="polyline_show.svg"
   inkscape:version="1.2.2 (732a01da63, 2022-12-09)"
   xmlns:inkscape="http://www.inkscape.org/namespaces/inkscape"
   xmlns:sodipodi="http://sodipodi.sourceforge.net/DTD/sodipodi-0.dtd"
   xmlns="http://www.w3.org/2000/svg"
   xmlns:svg="http://www.w3.org/2000/svg">
  <defs
     id="defs6" />
  <sodipodi:namedview
     id="namedview4"
     pagecolor="#808080"
     bordercolor="#000000"
     borderopacity="0.25"
     inkscape:showpageshadow="2"
     inkscape:pageopacity="0"
     inkscape:pagecheckerboard="true"
     inkscape:deskcolor="#d1d1d1"
     showgrid="false"
     inkscape:zoom="0.5"
     inkscape:cx="1139"
     inkscape:cy="820"
     inkscape:window-width="1993"
     inkscape:window-height="1009"
     inkscape:window-x="-8"
     inkscape:window-y="-8"
     inkscape:window-maximized="1"
     inkscape:current-layer="POLYLINE_SHOW" />
  <g
     id="POLYLINE_SHOW"
     transform="matrix(100,0,0,100,0,4.9999997e-5)"
     style="stroke-width:0.0114286">
    <path
       style="fill:none;stroke:none;stroke-width:0.000357143"
       d="M 0.00112737,12.101563 C 0.00222592,8.3027681 0.00369952,8.2071356 0.05878022,8.3600366 c 0.03286859,0.091241 0.92214791,1.455245 2.12483248,3.2591324 2.221466,3.331943 2.1438057,3.227587 2.4975504,3.356094 0.1349963,0.04904 0.4064894,0.05339 3.3344619,0.05339 2.927972,0 3.199466,-0.0043 3.334462,-0.05339 0.353704,-0.128492 0.276502,-0.02478 2.492347,-3.348289 1.134707,-1.7019293 2.08321,-3.1404143 2.107786,-3.1966331 0.03907,-0.089383 0.045,0.3793585 0.04723,3.7337221 L 16,16 H 8 0 Z M 3.3931284,11.605438 1.7759577,9.1796269 2.0989163,9.4434941 C 3.5351544,10.616946 4.9963359,11.420231 6.3465628,11.778641 7.0104725,11.954872 7.2338178,11.982395 8,11.982395 c 0.7661822,0 0.9895275,-0.02752 1.6534372,-0.203754 C 11.0428,11.409843 12.718428,10.471118 14.057324,9.3114828 L 14.317773,9.0859047 12.669361,11.558577 11.020948,14.03125 H 8.0156238 5.0102994 Z M 0.00112737,3.9140625 0,0 h 8 8 L 15.9975,3.8515625 C 15.9953,7.2194741 15.9893,7.6902894 15.95027,7.6009091 15.925643,7.5446903 14.97714,6.1062053 13.842433,4.4042759 11.626589,1.0807643 11.703791,1.1844794 11.350087,1.0559872 c -0.134996,-0.049041 -0.40649,-0.053388 -3.334462,-0.053388 -2.9279725,0 -3.1994656,0.00435 -3.3344619,0.053388 C 4.3274184,1.1844943 4.4050787,1.0801379 2.1836127,4.4120806 0.98092813,6.2159684 0.09164881,7.5799722 0.05878022,7.6712134 0.0037017,7.8241084 0.00222588,7.7279312 0.00112737,3.9140625 Z M 14.015625,6.6520175 C 12.695068,5.5160481 11.024878,4.5853997 9.6534372,4.2213591 8.9895275,4.0451284 8.7661822,4.0176053 8,4.0176053 c -0.7661822,0 -0.9895275,0.027523 -1.6534372,0.2037538 C 5.0177831,4.5740756 3.3796563,5.4734175 2.109375,6.5476012 2.00625,6.6348066 1.9033389,6.7174431 1.8806837,6.7312381 1.8580284,6.7450331 2.5529234,5.6861478 3.4248947,4.37816 L 5.0102969,2 h 3.0053269 3.0053272 l 1.614546,2.421875 c 0.888001,1.3320312 1.611021,2.4210741 1.606712,2.4200953 -0.0043,-9.781e-4 -0.106272,-0.086457 -0.226584,-0.1899528 z"
       id="path861" />
    <path
       style="fill:#fefefe;stroke-width:0.000357143"
       d="M 7.46875,10.965366 C 6.3201153,10.835369 4.8781312,10.215628 3.5676513,9.2887372 3.1895853,9.0213347 2.5354706,8.491105 2.241361,8.2136378 L 1.9983471,7.984375 2.444486,7.6018366 C 3.1671537,6.9821909 3.7743569,6.5384325 4.41692,6.1603347 4.8127578,5.9274153 5.2593703,5.7078662 5.2397028,5.755865 5.2304606,5.7784206 5.1765641,5.9304687 5.1199325,6.09375 L 5.0169659,6.390625 5.0171847,7.03125 c 1.875e-4,0.6192344 0.00316,0.6494944 0.088508,0.90625 0.048564,0.1460938 0.1527487,0.3921875 0.2315203,0.546875 0.1243556,0.2442031 0.1949353,0.3329644 0.5358222,0.6738513 0.3408869,0.3408868 0.4296481,0.4114665 0.6738512,0.5358221 0.1546875,0.078772 0.4007813,0.182956 0.546875,0.2315204 0.2568713,0.085389 0.2867372,0.088299 0.90625,0.088299 0.6195129,0 0.6493788,-0.0029 0.90625,-0.088299 C 9.0523547,9.8770044 9.2984484,9.77282 9.4531359,9.6940484 9.6973391,9.5696928 9.7861003,9.4991131 10.126987,9.1582263 10.467874,8.8173394 10.538454,8.7285781 10.662809,8.484375 10.741581,8.3296875 10.845765,8.0835938 10.89433,7.9375 10.97968,7.6807444 10.98264,7.6504844 10.98284,7.03125 L 10.983056,6.390625 10.880089,6.09375 c -0.05663,-0.1632812 -0.110821,-0.3162087 -0.120421,-0.3398387 -0.02325,-0.057238 0.640651,0.2878468 1.06072,0.5513409 0.657288,0.4122931 1.436441,1.007675 1.938273,1.48111 L 14.001675,8.015625 13.555536,8.3981634 C 12.532635,9.2752413 11.784485,9.7759856 10.741054,10.281923 9.5694109,10.850018 8.4729688,11.079019 7.46875,10.965366 Z M 6.0005425,6.9296875 C 6.0016394,6.7245559 6.0959812,6.3838153 6.2230478,6.1260578 6.4044675,5.7580441 6.7267941,5.4357175 7.0948078,5.2542978 7.3525653,5.1272313 7.6933059,5.0328884 7.8984375,5.0317925 L 8,5.03125 V 5.5270025 6.0227547 L 7.8606897,6.0418494 C 7.4363209,6.1000156 7.0687656,6.4675709 7.0105994,6.8919397 L 6.9915047,7.03125 H 6.4957525 6 l 5.437e-4,-0.1015625 z"
       id="path859" />
    <path
       style="fill:#75b6fe;stroke-width:0.000357143"
       d="M 7.5023497,9.4991478 C 7.2677128,9.4499319 7.0573694,9.3725866 6.796875,9.2397378 6.4437475,9.0596472 5.9729128,8.5892694 5.7905369,8.234375 5.5620187,7.7896909 5.515625,7.5866534 5.515625,7.03125 c 0,-0.4204931 0.00966,-0.5152856 0.07322,-0.71875 C 5.6879522,5.9952597 5.8840909,5.6257428 6.0418384,5.4590794 6.1616966,5.3324469 6.2000044,5.3140469 6.53125,5.2240031 7.1298581,5.0612806 7.4311597,5.0192844 8,5.0192844 c 0.5688403,0 0.8701419,0.041996 1.46875,0.2047187 0.3312456,0.090044 0.3695534,0.1084438 0.4894116,0.2350763 0.1577474,0.1666634 0.3538864,0.5361803 0.4529934,0.8534206 0.06356,0.2034644 0.07322,0.2982569 0.07322,0.71875 0,0.5554034 -0.04639,0.7584409 -0.274912,1.203125 C 10.027576,8.5883175 9.5566822,9.0591119 9.203125,9.2405009 8.7840984,9.4554784 8.57794,9.5063238 8.078125,9.5179631 7.8375,9.5235669 7.5784009,9.5151006 7.5023497,9.4991478 Z M 8.421875,7.9350131 C 8.6195566,7.8412053 8.8077534,7.6539656 8.9062263,7.453125 c 0.1099946,-0.22434 0.1099946,-0.61941 0,-0.84375 C 8.7597322,6.3105931 8.4550522,6.0851266 8.1393103,6.0418494 L 8,6.0227547 V 5.5270025 5.03125 L 7.8984375,5.0317937 C 7.6933059,5.0328906 7.3525653,5.1272325 7.0948078,5.2542991 6.7267941,5.4357188 6.4044675,5.7580453 6.2230478,6.1260591 6.0959813,6.3838166 6.0016384,6.7245572 6.0005425,6.9296888 L 6,7.03125 H 6.5 7 v 0.077033 c 0,0.11919 0.091991,0.3622431 0.1922734,0.5080153 0.2581725,0.3752828 0.8093391,0.518146 1.2296016,0.3187148 z"
       id="path857" />
    <path
       style="fill:#fe9729;stroke-width:0.000357143"
       d="M 4.6811631,14.975263 C 4.3651825,14.860474 4.2885444,14.775655 3.6888488,13.877021 3.3787319,13.412316 3.125,13.02488 3.125,13.016051 c 0,-0.0088 0.2707031,-0.01574 0.6015625,-0.01536 l 0.6015625,6.88e-4 0.3404944,0.514939 0.3404944,0.514938 H 6.0045569 7 v 0.5 0.5 l -1.0859375,-0.0013 C 4.9702566,15.028823 4.80889,15.021664 4.6811631,14.975264 Z M 9,14.53125 v -0.5 h 1.011068 1.011068 l 0.340495,-0.514939 0.340494,-0.514939 0.601563,-6.87e-4 c 0.330859,-3.78e-4 0.601562,0.0065 0.601562,0.01536 0,0.0088 -0.253732,0.396265 -0.563849,0.86097 -0.811397,1.215866 -0.685506,1.151094 -2.240838,1.152929 L 9,15.03125 Z M 1.1015124,9.9991322 0.43739975,9 H 1.0010493 c 0.4771833,0 0.5760493,0.00812 0.6444794,0.052962 0.066118,0.043322 1.3232213,1.877861 1.3232213,1.931028 0,0.0088 -0.2707031,0.01562 -0.6015625,0.01514 L 1.765625,10.998264 Z M 13.0625,10.98399 c 0,-0.0336 1.262885,-1.9077528 1.309903,-1.9439337 0.03473,-0.026724 0.224095,-0.038365 0.63546,-0.039063 L 15.59385,9 l -0.664112,0.9991322 -0.664113,0.9991318 -0.601562,8.69e-4 c -0.33086,4.76e-4 -0.601563,-0.0063 -0.601563,-0.01514 z M 0.51752737,6.9140625 c 0.030781,-0.047266 0.32998569,-0.4972656 0.66489923,-1 L 1.7913604,5 H 2.3975245 C 2.8740472,5 2.9987061,5.0083544 2.980392,5.0390625 2.7482244,5.4283503 1.7577241,6.8585134 1.6783491,6.9190556 1.5733659,6.9991303 1.5662584,7 1.0168937,7 H 0.46156188 Z M 14.338826,6.9295322 C 14.277456,6.8776887 13.233833,5.3458669 13.050858,5.0390625 13.032544,5.0083544 13.157203,5 13.633726,5 h 0.606164 l 0.608933,0.9140625 c 0.334914,0.5027344 0.634119,0.9527344 0.6649,1 L 15.569688,7 14.995782,6.9998437 c -0.549176,-1.562e-4 -0.577486,-0.00318 -0.656956,-0.070311 z M 3.6885641,2.1546554 C 4.4994,0.93963097 4.376855,1.0031394 5.9140625,1.0012997 L 7,1 V 1.5 2 H 6.0049284 5.0098572 L 4.6766966,2.5 4.3435359,3 H 3.7339834 3.1244309 Z M 11.354553,2.5 11.021393,2 H 10.010697 9 V 1.5 1 l 1.101563,0.0013 c 1.555388,0.00184 1.429396,-0.0630045 2.241123,1.1533557 L 12.906819,3 h -0.609552 -0.609553 z"
       id="path855" />
    <path
       style="fill:#0000cb;stroke-width:0.000357143"
       d="M 7.3771466,9.9988966 C 7.12853,9.9471513 6.8333866,9.8385353 6.546875,9.6933481 6.3019362,9.5692278 6.2149375,9.50014 5.8730237,9.1582263 5.5321369,8.8173394 5.4615572,8.7285781 5.3372016,8.484375 5.25843,8.3296875 5.1543584,8.0835938 5.1059316,7.9375 5.0213716,7.6824016 5.0178375,7.6471069 5.0167537,7.046875 5.0155662,6.3893066 5.0237253,6.3355253 5.1935206,5.8817069 5.2548431,5.7178075 5.2657506,5.7074062 5.4801969,5.6083303 5.6028072,5.5516831 5.7978031,5.4697006 5.9135212,5.4261472 l 0.210396,-0.079189 -0.12727,0.1610088 C 5.8363041,5.7108166 5.6831112,6.0135159 5.5888012,6.3138459 5.5252362,6.5162675 5.515625,6.6104959 5.515625,7.03125 c 0,0.5554034 0.046394,0.7584409 0.2749119,1.203125 C 5.9722875,8.5880525 6.4431975,9.0589625 6.796875,9.2407131 7.2415591,9.4692313 7.4445966,9.515625 8,9.515625 c 0.5554034,0 0.7584409,-0.046394 1.203125,-0.2749119 0.3536775,-0.1817506 0.824588,-0.6526606 1.006338,-1.0063381 0.228518,-0.4446841 0.274912,-0.6477216 0.274912,-1.203125 0,-0.4207541 -0.0096,-0.5149825 -0.07318,-0.7174041 -0.09431,-0.30033 -0.247503,-0.6030293 -0.407846,-0.8058787 L 9.8760828,5.3469584 10.086479,5.4261472 c 0.115718,0.043553 0.310714,0.1255359 0.433324,0.1821831 0.214446,0.099076 0.225354,0.1094772 0.286676,0.2733766 0.169796,0.4538184 0.177955,0.5075997 0.176767,1.1651681 -0.0011,0.6002319 -0.0046,0.6355266 -0.08918,0.890625 -0.04843,0.1460938 -0.152498,0.3921875 -0.23127,0.546875 -0.124353,0.2442031 -0.194933,0.3329644 -0.53582,0.6738513 C 9.7860894,9.4991131 9.6973281,9.5696928 9.453125,9.6940484 9.2984375,9.77282 9.0523438,9.8761322 8.90625,9.9236313 8.6626247,10.00284 8.5940375,10.010727 8.078125,10.018856 7.76875,10.02373 7.4533097,10.014749 7.3771466,9.9988966 Z"
       id="path853" />
    <path
       style="fill:#653200;stroke-width:0.000357143"
       d="m 7,14.53125 v -0.5 h 1 1 v 0.5 0.5 H 8 7 Z M 2.4949266,12.085938 c -0.3349135,-0.502735 -0.6341182,-0.952735 -0.6648992,-1 L 1.7740619,11 h 0.6079139 0.6079138 l 0.6089338,0.914063 c 0.3349135,0.502734 0.6341182,0.952734 0.6648991,1 L 4.3196881,13 H 3.7117744 3.1038604 Z m 9.2726014,0.828125 c 0.03078,-0.04727 0.329985,-0.497266 0.664899,-1 L 13.04136,11 h 0.607914 0.607914 l -0.05596,0.08594 c -0.03078,0.04726 -0.329986,0.497265 -0.6649,1 L 12.92739,13 H 12.319476 11.711562 Z M 0.27830121,8.761255 C 0.08461136,8.4742191 0,8.2480963 0,8.0174978 0,7.77986 0.06964701,7.5923034 0.2761164,7.2739278 l 0.1770086,-0.2729472 0.5625,3.688e-4 0.5625,3.687e-4 -0.2000045,0.1781313 C 1.1010313,7.426635 0.9999455,7.6419025 1.0003299,7.9843747 1.0007018,8.3156338 1.0871725,8.5048856 1.3679984,8.7890622 L 1.5764488,8.9999997 H 1.0079267 0.43940462 L 0.27830121,8.7612547 Z M 14.627728,8.8137222 c 0.273658,-0.246045 0.375744,-0.4632009 0.375744,-0.7992725 0,-0.3196285 -0.09413,-0.5233469 -0.371264,-0.8035122 L 14.423551,7 l 0.577287,4.906e-4 0.577287,4.906e-4 0.174521,0.2729472 C 15.988087,7.6421534 16,7.6777612 16,8.0132797 c 0,0.3381322 -0.02904,0.4249 -0.253602,0.757684 L 15.591845,9 15.00686,8.9994031 14.421875,8.9988063 14.627728,8.8137241 Z M 1.8125,4.9840078 c 0,-0.0088 0.2954227,-0.4587956 0.656495,-1 L 3.12549,3 H 3.73467 4.3438503 L 3.6797375,3.9991322 3.015625,4.9982644 2.4140625,4.9991331 C 2.0832031,4.9996094 1.8125,4.9928034 1.8125,4.9840078 Z M 12.351513,3.9991322 11.6874,3 h 0.60918 0.60918 l 0.656495,0.9840078 c 0.361072,0.5412044 0.656495,0.9912044 0.656495,1 0,0.0088 -0.270703,0.015602 -0.601563,0.015124 L 13.015625,4.9982634 12.351512,3.9991312 Z M 7,1.5 V 1 H 8 9 V 1.5 2 H 8 7 Z"
       id="path851" />
    <path
       style="fill:#000000;stroke-width:0.000357143"
       d="M 7.28125,11.967015 C 5.6599987,11.766519 3.7785369,10.843209 2.0361769,9.3930416 1.8864672,9.2684381 1.6321003,9.0411391 1.4709171,8.8879325 1.0926945,8.5284272 1.0000493,8.3506484 1.0000493,7.984375 c 0,-0.2106875 0.014176,-0.2799647 0.090148,-0.4405547 C 1.1696791,7.3758131 1.2401876,7.3010859 1.6860898,6.9122747 2.7487363,5.9856837 3.6582766,5.3661819 4.7241666,4.8429928 5.2894387,4.5655306 5.8294294,4.3586291 6.3465628,4.2213591 7.0104725,4.0451284 7.2338178,4.0176053 8,4.0176053 c 0.7661822,0 0.9895275,0.027523 1.6534372,0.2037538 1.5648288,0.4153743 3.4428808,1.5288475 4.8756458,2.8907084 0.378223,0.3595053 0.470868,0.5372841 0.470868,0.9035575 0,0.2106875 -0.01418,0.2799647 -0.09015,0.4405547 -0.07948,0.1680072 -0.149991,0.2427344 -0.595893,0.6315456 -1.062646,0.9265907 -1.972187,1.5460927 -3.038077,2.0692817 -0.771994,0.378931 -1.5241474,0.634109 -2.260208,0.766805 -0.3331544,0.06006 -1.3859916,0.08629 -1.734375,0.0432 z M 8.4934191,10.966661 C 9.2129731,10.887606 9.9633597,10.659 10.741032,10.281923 11.784463,9.7759856 12.532613,9.2752413 13.555514,8.3981634 L 14.001653,8.015625 13.758639,7.7863622 C 13.624981,7.6602675 13.334123,7.4108047 13.112288,7.2319997 12.311757,6.5867531 11.734203,6.2148391 10.859375,5.7812431 9.9323078,5.3217553 9.2200984,5.1031653 8.3984375,5.0259362 7.4489812,4.9366959 6.3929669,5.1696581 5.2589681,5.7185194 4.2178556,6.2224231 3.4682222,6.7240422 2.444486,7.6018366 L 1.9983471,7.984375 2.241361,8.2136378 C 2.3750187,8.3397325 2.6658769,8.5891953 2.8877125,8.7680003 3.6873919,9.4125606 4.2647647,9.7844716 5.140625,10.2192 c 1.2618659,0.626319 2.3161341,0.861354 3.3527941,0.747461 z M 7.6876684,7.98102 C 6.97962,7.7237453 6.7728872,6.8506219 7.2961294,6.3273794 7.5014528,6.1220559 7.6872622,6.0484141 8,6.0484141 c 0.3127378,0 0.4985472,0.073642 0.7038706,0.2789653 0.2053235,0.2053234 0.2789653,0.3911328 0.2789653,0.7038706 0,0.3127378 -0.073642,0.4985472 -0.2789653,0.7038706 C 8.4471069,7.9918841 8.0091959,8.0978494 7.6876684,7.98102 Z"
       id="path849" />
  </g>
</svg>
