<?xml version="1.0" encoding="UTF-8" standalone="no"?>
<!-- Created with Inkscape (http://www.inkscape.org/) -->

<svg
   version="1.1"
   id="svg2"
   width="1600"
   height="1600"
   viewBox="0 0 1600 1600"
   sodipodi:docname="pose_data.svg"
   inkscape:version="1.2.2 (732a01da63, 2022-12-09)"
   xmlns:inkscape="http://www.inkscape.org/namespaces/inkscape"
   xmlns:sodipodi="http://sodipodi.sourceforge.net/DTD/sodipodi-0.dtd"
   xmlns="http://www.w3.org/2000/svg"
   xmlns:svg="http://www.w3.org/2000/svg"
   xmlns:rdf="http://www.w3.org/1999/02/22-rdf-syntax-ns#"
   xmlns:cc="http://creativecommons.org/ns#"
   xmlns:dc="http://purl.org/dc/elements/1.1/">
  <metadata
     id="metadata8">
    <rdf:RDF>
      <cc:Work
         rdf:about="">
        <dc:format>image/svg+xml</dc:format>
        <dc:type
           rdf:resource="http://purl.org/dc/dcmitype/StillImage" />
      </cc:Work>
    </rdf:RDF>
  </metadata>
  <defs
     id="defs6" />
  <sodipodi:namedview
     pagecolor="#808080"
     bordercolor="#666666"
     borderopacity="1"
     objecttolerance="10"
     gridtolerance="10"
     guidetolerance="10"
     inkscape:pageopacity="0"
     inkscape:pageshadow="2"
     inkscape:window-width="1993"
     inkscape:window-height="1009"
     id="namedview4"
     showgrid="false"
     inkscape:zoom="0.5"
     inkscape:cx="329"
     inkscape:cy="112"
     inkscape:window-x="-8"
     inkscape:window-y="-8"
     inkscape:window-maximized="1"
     inkscape:current-layer="POSE_DATA"
     inkscape:showpageshadow="0"
     inkscape:pagecheckerboard="true"
     inkscape:deskcolor="#d1d1d1" />
  <g
     id="POSE_DATA"
     transform="matrix(100,0,0,100,0,4.9999997e-5)"
     style="stroke-width:0.0114286">
    <path
       style="fill:none;stroke-width:0.000357143"
       d="M 0,8 V 0 L 3.8359375,0.0020566 C 7.2602531,0.00389251 7.6534316,0.00901252 7.5,0.04977041 7.1492178,0.14295289 6.8822297,0.29799063 6.6026669,0.57084413 6.1854516,0.97804647 6,1.4178238 6,2 6,2.5821762 6.1854516,3.0219535 6.6026669,3.4291559 7.0122625,3.8289216 7.4310347,4 8,4 8.5689653,4 8.9877375,3.8289216 9.3973331,3.4291559 9.8145484,3.0219535 10,2.5821762 10,2 10,1.4178238 9.8145484,0.97804647 9.3973331,0.57084413 9.1177703,0.29799063 8.8507822,0.14295289 8.5,0.04977041 8.3465684,0.00901252 8.7397469,0.00389251 12.164063,0.0020566 L 16,0 v 8 8 H 8 0 Z m 5.9910153,7.620885 c 0.2547303,-0.09382 0.5985453,-0.437639 0.6923694,-0.69237 0.065091,-0.17672 0.066634,-0.22214 0.067416,-1.984375 l 8e-4,-1.803515 0.1047938,-0.07813 c 0.057637,-0.04297 0.2070037,-0.1625 0.3319271,-0.265625 0.8887494,-0.733669 0.8589582,-0.713287 0.9593201,-0.656335 0.1246168,0.07072 0.4391543,0.276082 0.7898584,0.51571 0.077344,0.05285 0.2109375,0.140837 0.296875,0.195533 0.085937,0.0547 0.2217122,0.149093 0.3017219,0.20977 0.080009,0.06068 0.2178059,0.15251 0.3062143,0.204072 0.088408,0.05156 0.2327457,0.146364 0.3207497,0.210669 0.279269,0.204065 0.448501,0.248673 0.899042,0.236979 0.428881,-0.01113 0.470949,-0.02485 0.937897,-0.305902 0.111718,-0.06724 0.252343,-0.151729 0.3125,-0.187748 0.06016,-0.03602 0.172656,-0.106762 0.25,-0.157207 0.07734,-0.05044 0.217968,-0.134782 0.3125,-0.187416 0.09453,-0.05263 0.235156,-0.136585 0.3125,-0.186557 0.07734,-0.04997 0.28125,-0.170111 0.453125,-0.266976 0.529415,-0.298367 0.561067,-0.320265 0.754803,-0.5221979 0.251421,-0.2620594 0.323322,-0.451616 0.323322,-0.8523941 0,-0.4224366 -0.0684,-0.5914203 -0.355678,-0.8786972 -0.30226,-0.3022597 -0.467509,-0.3648175 -0.925572,-0.3503887 -0.294958,0.00929 -0.350187,0.020783 -0.546388,0.1136847 -0.120045,0.056842 -0.239576,0.1222315 -0.265625,0.1453103 -0.02605,0.023079 -0.180956,0.1146287 -0.344237,0.203444 -0.163281,0.088815 -0.360156,0.2022681 -0.4375,0.2521175 -0.07734,0.049849 -0.21025,0.127916 -0.295348,0.1734813 -0.0851,0.045566 -0.194082,0.1093009 -0.242188,0.1416347 -0.04811,0.032334 -0.128928,0.086799 -0.179606,0.1210353 l -0.09214,0.062247 -0.138984,-0.116934 C 10.819042,8.8494953 10.684037,8.7546875 10.595472,8.703125 10.506908,8.6515625 10.362281,8.5566406 10.274079,8.4921875 10.185877,8.4277344 10.104729,8.375 10.09375,8.375 10.082771,8.375 10.001104,8.3222656 9.9122678,8.2578125 9.8234319,8.1933594 9.6837828,8.0991128 9.6019366,8.0483759 9.52009,7.9976387 9.4074222,7.920295 9.3515634,7.8765009 l -0.1015615,-0.079626 -1e-6,-0.5264272 -9e-7,-0.5264272 1.040618,0.010802 1.040618,0.010802 0.232819,-0.1152784 C 11.840539,6.5134484 11.959636,6.3963506 12.225506,6 c 0.109528,-0.1632813 0.242858,-0.3601563 0.296289,-0.4375 0.05343,-0.077344 0.287523,-0.4289063 0.520207,-0.78125 0.232683,-0.3523438 0.471582,-0.7109375 0.530887,-0.796875 0.268948,-0.3897303 0.524527,-0.7967828 0.589419,-0.9387513 0.05846,-0.1278944 0.07096,-0.2099283 0.07146,-0.4691194 5.81e-4,-0.3003424 -0.0045,-0.3244789 -0.116101,-0.5502674 C 13.977098,1.74182 13.796142,1.5646567 13.505613,1.4270163 13.314336,1.3363974 13.270598,1.328125 12.982754,1.328125 c -0.300232,0 -0.324648,0.0052 -0.552238,0.1176839 C 12.147673,1.585598 12.005572,1.7326823 11.671918,2.2310135 11.544094,2.4219248 11.331155,2.7398438 11.198719,2.9375 11.066283,3.1351563 10.826879,3.49375 10.66671,3.734375 10.50654,3.975 10.356253,4.1964844 10.332739,4.2265625 10.292701,4.2777762 10.14232,4.2812356 7.965305,4.2810259 L 5.640625,4.2808072 5.484375,4.0887219 C 5.3984375,3.983075 5.2789062,3.8373616 5.21875,3.7649144 5.1585937,3.6924672 4.9898437,3.4888959 4.84375,3.3125338 4.6976562,3.1361716 4.4867187,2.883347 4.375,2.7507011 4.2632812,2.6180551 4.0945312,2.4134529 4,2.2960295 3.5378503,1.721958 3.4148244,1.6014017 3.1652981,1.4780792 2.9353699,1.3644425 2.9117065,1.359375 2.6109957,1.359375 c -0.2878442,0 -0.3315819,0.00827 -0.5228585,0.098891 C 1.7976085,1.5959067 1.6166515,1.77307 1.476085,2.0574869 1.3647074,2.2828442 1.359375,2.3079855 1.359375,2.6077543 c 0,0.2878742 0.00818,0.3310929 0.097856,0.5172457 0.053821,0.1117188 0.1381961,0.2537728 0.1875,0.3156759 0.049304,0.061903 0.1669873,0.2088838 0.2615186,0.3266238 0.094531,0.1177403 0.171875,0.2228884 0.171875,0.2336631 0,0.026626 0.8699474,1.0634119 1.1543969,1.3757869 C 3.3194787,5.4722431 3.5101562,5.6963556 3.65625,5.8747772 4.1071475,6.42545 4.2089866,6.5230134 4.4648622,6.6494387 L 4.7000144,6.765625 5.7406322,6.7548228 6.78125,6.7440206 6.7811875,7.3173228 C 6.781125,7.8890656 6.7809375,7.8907525 6.7059259,7.9375 6.6645625,7.9632812 6.5291075,8.06875 6.4049147,8.171875 6.2807216,8.275 6.1266322,8.4015625 6.0624934,8.453125 5.9983547,8.5046875 5.8434825,8.63125 5.7183331,8.734375 5.2703453,9.1035237 5.2002225,9.15993 4.9843684,9.3247675 4.66222,9.5707772 4.4591266,9.8001834 4.3720537,10.016414 l -0.075179,0.186711 -0.00878,2.269673 c -0.00877,2.266731 -0.00869,2.269911 0.059428,2.453125 0.09538,0.256525 0.4091866,0.577521 0.6681044,0.683411 0.2563666,0.104847 0.7075853,0.11019 0.9753903,0.01155 z"
       id="path823"
       inkscape:connector-curvature="0" />
    <path
       style="fill:#fefefe;stroke-width:0.000357143"
       d="m 5.203125,15.129198 c -0.1594734,-0.07263 -0.3456666,-0.278539 -0.3905838,-0.431943 -0.024598,-0.08401 -0.032049,-0.745608 -0.025274,-2.24413 0.00889,-1.966013 0.013811,-2.13432 0.065787,-2.249573 C 4.9244775,10.045174 4.9949706,9.9698428 5.265625,9.762665 5.4816425,9.59731 5.5529775,9.5398903 5.9995897,9.171875 6.1247391,9.06875 6.2796112,8.9421875 6.34375,8.890625 6.4078887,8.8390625 6.5619175,8.7125 6.6860362,8.609375 6.8101547,8.50625 6.9595491,8.392825 7.0180234,8.3573197 7.0764975,8.3218144 7.1596447,8.2595975 7.202795,8.21906 L 7.28125,8.1453553 V 7.196105 6.2468547 l -1.2310931,0.00531 -1.2310932,0.00531 -0.1649212,-0.089674 C 4.5634359,6.1184784 4.4389122,6.0145141 4.3774231,5.9367678 4.1925925,5.7030681 3.8400237,5.2854497 3.640625,5.0640278 3.5375,4.9495131 3.3617188,4.7455575 3.25,4.6107934 3.1382813,4.4760291 2.9625,4.2655778 2.859375,4.1431241 2.75625,4.02067 2.6520117,3.8856378 2.6277344,3.8430528 2.6034571,3.8004675 2.5303906,3.7023437 2.4653644,3.625 2.4003382,3.5476563 2.2819526,3.4070313 2.2022853,3.3125 1.8234477,2.8629808 1.7642183,2.5703965 1.9800122,2.2145048 2.1841445,1.8778455 2.611842,1.7618875 2.9568481,1.9496633 3.1088704,2.0324043 3.1767122,2.1028717 3.5625,2.5787568 3.657031,2.695365 3.8257813,2.8993001 3.9375,3.0319461 4.1167684,3.244795 4.4472887,3.6423906 4.78125,4.0469256 4.841406,4.1197946 5.003125,4.3145559 5.140625,4.4797294 l 0.25,0.3003156 2.5955972,6.031e-4 2.5955978,6.031e-4 0.136765,-0.1953125 c 0.07522,-0.1074218 0.258323,-0.378125 0.406893,-0.6015625 0.14857,-0.2234375 0.381506,-0.571945 0.517637,-0.7744609 0.13613,-0.2025159 0.305758,-0.4556409 0.376949,-0.5625 0.34738,-0.5214183 0.441775,-0.6337194 0.609321,-0.7249095 0.352822,-0.1920296 0.778122,-0.07937 0.984353,0.2607502 0.165081,0.2722554 0.164414,0.5236865 -0.0021,0.7924158 -0.111246,0.1795263 -0.414329,0.6385969 -0.92755,1.4049263 C 12.45018,4.7298634 12.20834,5.09297 12.146665,5.1875012 11.686033,5.8935294 11.546522,6.071665 11.381522,6.1644791 L 11.216169,6.2574916 9.9830847,6.2521737 8.75,6.2468547 v 0.9369669 c 0,0.9083303 0.0019,0.9375706 0.062262,0.9567281 C 8.846507,8.1514187 8.9414291,8.2126937 9.0232,8.2767181 9.1049712,8.3407419 9.23884,8.43475 9.3206866,8.485625 9.4025328,8.5365 9.5421819,8.6308594 9.6310178,8.6953125 9.7198538,8.7597656 9.8015209,8.8125 9.8125,8.8125 c 0.010979,0 0.092127,0.052734 0.1803294,0.1171875 0.088202,0.064453 0.2328286,0.159375 0.3213936,0.2109375 0.08856,0.051562 0.221872,0.1429688 0.296239,0.203125 0.253659,0.2051875 0.423201,0.2954928 0.479534,0.25542 0.02785,-0.019808 0.09985,-0.064764 0.160004,-0.099901 0.06016,-0.035137 0.172656,-0.1051585 0.25,-0.1556032 0.07734,-0.050445 0.217969,-0.1347818 0.3125,-0.1874159 0.09453,-0.052634 0.235156,-0.1365003 0.3125,-0.1863691 0.07734,-0.049869 0.274219,-0.1633378 0.4375,-0.2521528 0.163281,-0.088815 0.318014,-0.1802081 0.343852,-0.2030953 0.02584,-0.022887 0.124274,-0.077593 0.21875,-0.1215678 0.405767,-0.1888706 0.857441,-0.039819 1.034278,0.34131 0.07675,0.1654219 0.07681,0.4593644 1.25e-4,0.625 -0.09676,0.2089975 -0.187938,0.2801941 -0.80013,0.6248016 -0.171875,0.096751 -0.375781,0.2167955 -0.453125,0.2667665 -0.07734,0.04997 -0.217968,0.133923 -0.3125,0.186557 -0.09453,0.05263 -0.235156,0.136971 -0.3125,0.187416 -0.07734,0.05044 -0.189843,0.121188 -0.25,0.157207 -0.06016,0.03602 -0.200781,0.120451 -0.3125,0.187626 -0.379298,0.22807 -0.433992,0.247574 -0.696316,0.248315 -0.271089,7.65e-4 -0.388574,-0.03712 -0.597987,-0.192835 -0.07645,-0.05684 -0.211589,-0.145542 -0.300313,-0.197104 C 10.035411,10.776562 9.8973566,10.684594 9.8173472,10.62375 9.7373375,10.562906 9.6049103,10.4715 9.5230637,10.420625 9.4412175,10.36975 9.3015684,10.275391 9.2127325,10.210937 9.1238963,10.146484 9.0422291,10.09375 9.03125,10.09375 9.020271,10.09375 8.939123,10.04102 8.8509206,9.9765625 8.7627188,9.9121094 8.6180919,9.8171875 8.5295275,9.765625 8.4409628,9.7140625 8.3056628,9.6189987 8.2288606,9.5543722 L 8.0892203,9.4368694 7.9431134,9.5387472 C 7.7722816,9.6578653 7.3749206,9.9723903 6.9063588,10.359375 6.7814947,10.4625 6.6342363,10.582031 6.5791175,10.625 6.5239988,10.667969 6.4273988,10.748398 6.3644506,10.803733 L 6.25,10.904341 6.2493125,12.772483 c -6.438e-4,1.753236 -0.00425,1.87583 -0.058684,1.993142 -0.071676,0.154479 -0.2313178,0.309343 -0.3849384,0.373416 -0.1573081,0.06561 -0.4472916,0.06087 -0.6025662,-0.0098 z M 7.6285103,3.4506078 C 6.8361416,3.2375131 6.3459466,2.4170817 6.5478497,1.6419236 6.7569144,0.83927009 7.5760953,0.34416953 8.3580766,0.54784975 9.1583753,0.75630109 9.6557937,1.5762358 9.4533853,2.3533344 9.2424103,3.1633228 8.41352,3.6617234 7.6285103,3.4506078 Z"
       id="path821"
       inkscape:connector-curvature="0" />
    <path
       style="fill:#323232;stroke-width:0.000357143"
       d="M 5.015625,15.609334 C 4.7567072,15.503444 4.4429006,15.182448 4.3475206,14.925923 4.2793987,14.742709 4.2793219,14.739529 4.2880928,12.472798 l 0.00878,-2.269673 0.075185,-0.186711 C 4.4591331,9.8001834 4.6622266,9.5707772 4.984375,9.3247675 5.2002291,9.15993 5.2703519,9.1035238 5.7183397,8.734375 5.8434891,8.63125 5.9983613,8.5046875 6.0625,8.453125 6.1266387,8.4015625 6.2807281,8.275 6.4049212,8.171875 6.5291141,8.06875 6.6645691,7.9632812 6.7059325,7.9375 6.7809337,7.8907525 6.7811384,7.8890656 6.7811941,7.3173228 L 6.78125,6.7440206 5.7406322,6.7548228 4.7000144,6.765625 4.4648622,6.6494387 C 4.2089866,6.5230134 4.1071475,6.42545 3.65625,5.8747772 3.5101563,5.6963556 3.3194788,5.4722431 3.2325219,5.3767497 2.9480724,5.0643747 2.078125,4.0275887 2.078125,4.0009628 2.078125,3.9901881 2.0007813,3.88504 1.90625,3.7672997 1.8117187,3.6495597 1.6940354,3.5025788 1.6447314,3.4406759 1.5954275,3.3787728 1.5110525,3.2367188 1.4572314,3.125 1.3675514,2.9388472 1.359375,2.8956285 1.359375,2.6077543 c 0,-0.2997688 0.00533,-0.3249101 0.11671,-0.5502674 C 1.6166515,1.77307 1.7976085,1.5959067 2.0881372,1.4582663 2.2794138,1.3676474 2.3231515,1.359375 2.6109957,1.359375 c 0.3007108,0 0.3243742,0.00507 0.5543024,0.1187042 C 3.4148244,1.6014017 3.5378503,1.721958 4,2.2960245 4.094531,2.4134479 4.2632813,2.6180501 4.375,2.7506961 4.4867187,2.883342 4.6976562,3.1361666 4.84375,3.3125287 4.9898438,3.4888909 5.1585937,3.6924622 5.21875,3.7649094 5.278906,3.8373564 5.3984375,3.98307 5.484375,4.0887169 l 0.15625,0.1920853 2.32468,2.187e-4 c 2.177015,2.188e-4 2.327396,-0.00325 2.367434,-0.054463 C 10.356253,4.1964794 10.50654,3.974995 10.66671,3.73437 10.826879,3.493745 11.066283,3.1351512 11.198719,2.937495 11.331155,2.7398387 11.544094,2.4219198 11.671918,2.2310085 12.005572,1.7326823 12.147673,1.585598 12.430516,1.4458089 12.658106,1.3333281 12.682522,1.328125 12.982754,1.328125 c 0.287844,0 0.331582,0.00827 0.522859,0.098891 0.290529,0.1376404 0.471485,0.3148037 0.612052,0.5992206 0.111591,0.2257885 0.116683,0.249925 0.116101,0.5502674 -5.03e-4,0.2591911 -0.013,0.341225 -0.07146,0.4691194 -0.06489,0.1419685 -0.320471,0.549021 -0.589419,0.9387513 C 13.513577,4.0703117 13.274683,4.4289059 13.042,4.7812497 12.809318,5.1335937 12.575225,5.4851562 12.521795,5.5625 12.468364,5.6398437 12.335034,5.8367187 12.225506,6 11.959636,6.3963506 11.840539,6.5134484 11.564055,6.6503466 L 11.331236,6.765625 10.290618,6.7548228 9.25,6.7440206 l 9e-7,0.5264272 1e-6,0.5264272 0.1015615,0.079626 C 9.4074222,7.920295 9.52009,7.9976387 9.6019366,8.0483759 9.6837828,8.0991128 9.8234319,8.1933594 9.9122678,8.2578125 10.001104,8.3222656 10.082771,8.375 10.09375,8.375 c 0.01098,0 0.09213,0.052734 0.180329,0.1171875 0.0882,0.064453 0.232829,0.159375 0.321394,0.2109375 0.08856,0.051562 0.223569,0.1463703 0.30001,0.2106844 l 0.138983,0.116934 0.09214,-0.062247 c 0.05068,-0.034236 0.131501,-0.088702 0.179606,-0.1210353 0.04811,-0.032334 0.15709,-0.096069 0.242188,-0.1416347 0.0851,-0.045565 0.218004,-0.1236319 0.295348,-0.1734813 0.07734,-0.049849 0.274219,-0.1633025 0.4375,-0.2521175 0.163281,-0.088815 0.318188,-0.180365 0.344237,-0.203444 0.02605,-0.023079 0.14558,-0.088468 0.265625,-0.1453103 0.196201,-0.092902 0.25143,-0.1043935 0.546388,-0.1136847 0.458063,-0.014429 0.623312,0.048129 0.925572,0.3503887 0.287277,0.2872769 0.355678,0.4562606 0.355678,0.8786972 0,0.4007781 -0.0719,0.5903347 -0.323322,0.8523941 -0.193736,0.2019324 -0.225388,0.2238304 -0.754803,0.5221974 -0.171875,0.09686 -0.375781,0.217005 -0.453125,0.266976 -0.07734,0.04997 -0.217969,0.133923 -0.3125,0.186557 -0.09453,0.05263 -0.235156,0.136971 -0.3125,0.187416 -0.07734,0.05044 -0.189844,0.121188 -0.25,0.157207 -0.06016,0.03602 -0.200781,0.120505 -0.3125,0.187748 -0.466947,0.28105 -0.509016,0.294772 -0.937897,0.305902 -0.450541,0.01169 -0.619773,-0.03291 -0.899041,-0.236979 C 10.07505,11.411993 9.9307177,11.317186 9.8423093,11.265624 9.7539028,11.214063 9.6161063,11.12223 9.5360969,11.061553 9.4560872,11.000876 9.3203125,10.906479 9.234375,10.851783 9.1484375,10.797087 9.0148438,10.709097 8.9375,10.65625 8.5867959,10.416622 8.2722584,10.211256 8.1476416,10.14054 8.0472797,10.083588 8.0770709,10.063206 7.1883216,10.796875 7.0633981,10.9 6.9140313,11.019531 6.8563944,11.0625 l -0.1047938,0.07813 -8e-4,1.803515 c -9.468e-4,2.136093 0.017294,2.01391 -0.3564781,2.387682 -0.28961,0.28961 -0.4556287,0.355992 -0.8876819,0.354936 -0.2493228,-6.09e-4 -0.3369934,-0.01443 -0.4910153,-0.07742 z m 0.7900662,-0.470293 c 0.1536207,-0.06407 0.3132629,-0.218937 0.3849385,-0.373416 0.05443,-0.117312 0.05804,-0.239906 0.058684,-1.993142 L 6.25,10.904341 6.3644506,10.803733 C 6.4273987,10.748398 6.5239987,10.667969 6.5791175,10.625 6.6342362,10.582031 6.7814947,10.4625 6.9063587,10.359375 7.3749206,9.9723903 7.7722816,9.6578653 7.9431134,9.5387472 L 8.0892203,9.4368694 8.2288606,9.5543722 c 0.076802,0.064627 0.2121022,0.1596903 0.3006669,0.2112528 0.088564,0.051562 0.2331913,0.1464844 0.3213931,0.2109375 0.088202,0.064455 0.1693503,0.1171875 0.1803294,0.1171875 0.010979,0 0.092646,0.05273 0.1814822,0.117188 0.088836,0.06445 0.228485,0.158812 0.3103312,0.209687 0.081847,0.05088 0.2142738,0.142281 0.2942835,0.203125 0.080009,0.06084 0.2180641,0.152812 0.3067871,0.204375 0.08872,0.05156 0.223864,0.140259 0.300313,0.197104 0.209413,0.155714 0.326898,0.1936 0.597987,0.192835 0.262324,-7.41e-4 0.317017,-0.02024 0.696316,-0.248315 0.111719,-0.06718 0.252344,-0.151607 0.3125,-0.187626 0.06016,-0.03602 0.172656,-0.106762 0.25,-0.157207 0.07734,-0.05044 0.217969,-0.134782 0.3125,-0.187416 0.09453,-0.05263 0.235156,-0.136585 0.3125,-0.186557 0.07734,-0.04997 0.28125,-0.170016 0.453125,-0.2667664 0.612192,-0.3446075 0.703367,-0.4158041 0.800129,-0.6248016 0.07669,-0.1656356 0.07663,-0.4595781 -1.25e-4,-0.625 -0.176836,-0.3811291 -0.62851,-0.5301806 -1.034278,-0.34131 -0.09448,0.043975 -0.192913,0.098681 -0.21875,0.1215678 -0.02584,0.022887 -0.18057,0.11428 -0.343851,0.2030953 -0.163282,0.088815 -0.360157,0.2022841 -0.4375,0.2521528 -0.07734,0.049869 -0.217969,0.133735 -0.3125,0.1863691 -0.09453,0.052634 -0.235157,0.1369713 -0.3125,0.1874159 -0.07734,0.050445 -0.189844,0.1204663 -0.25,0.1556032 -0.06016,0.035137 -0.132158,0.080093 -0.160005,0.099901 C 11.033663,9.6392428 10.86412,9.5489375 10.610461,9.34375 10.536094,9.2835938 10.402787,9.1921875 10.314222,9.140625 10.225658,9.0890625 10.081031,8.9941406 9.9928291,8.9296875 9.9046272,8.8652344 9.8234791,8.8125 9.8125,8.8125 9.8015209,8.8125 9.7198538,8.7597656 9.6310178,8.6953125 9.5421819,8.6308594 9.4025328,8.5365 9.3206866,8.485625 9.23884,8.43475 9.1049712,8.3407419 9.0232,8.2767181 8.9414291,8.2126941 8.8465072,8.1514184 8.8122625,8.1405497 8.7519028,8.1213922 8.75,8.0921519 8.75,7.1838216 V 6.2468547 l 1.233085,0.00532 1.233085,0.00532 0.165352,-0.093012 c 0.165,-0.092814 0.304511,-0.2709497 0.765144,-0.9769778 0.06167,-0.094531 0.303515,-0.4576378 0.537422,-0.8069031 0.513221,-0.7663294 0.816304,-1.2254 0.927547,-1.4049263 0.166517,-0.2687293 0.167184,-0.5201604 0.0021,-0.7924158 -0.206231,-0.3401199 -0.631531,-0.4527799 -0.984353,-0.2607502 -0.167546,0.09119 -0.26194,0.2034912 -0.60932,0.7249095 -0.07119,0.106859 -0.240819,0.359984 -0.37695,0.5625 -0.136128,0.202511 -0.369064,0.5510185 -0.517634,0.774456 -0.14857,0.2234375 -0.331671,0.4941406 -0.406892,0.6015625 L 10.58182,4.78125 7.9862225,4.7806469 5.3906253,4.7800438 l -0.25,-0.3003157 C 5.003125,4.3145559 4.8414063,4.1197941 4.78125,4.0469256 4.4472887,3.6423906 4.1167684,3.244795 3.9375,3.0319461 3.8257813,2.8993001 3.6570313,2.695365 3.5625,2.5787568 3.1767122,2.1028717 3.1088704,2.0324043 2.9568481,1.9496633 2.611842,1.7618875 2.1841445,1.8778455 1.9800122,2.2145048 1.7642183,2.5703965 1.8234477,2.8629808 2.2022853,3.3125 2.2819523,3.407031 2.4003382,3.5476563 2.4653644,3.625 2.5303904,3.702344 2.6034571,3.8004675 2.6277344,3.8430528 2.6520117,3.8856378 2.75625,4.02067 2.859375,4.1431241 2.9625,4.2655778 3.1382813,4.4760291 3.25,4.6107934 c 0.1117188,0.1347641 0.2875,0.3387197 0.390625,0.4532344 0.1993987,0.2214219 0.5519675,0.6390403 0.7367981,0.87274 0.061489,0.077746 0.1860128,0.1817106 0.2767194,0.2310313 l 0.1649212,0.089674 1.2310932,-0.00531 1.2310931,-0.00531 V 7.196105 8.1453553 L 7.202795,8.21906 C 7.1596447,8.2595975 7.0764975,8.3218144 7.0180234,8.3573197 6.9595491,8.392825 6.8101547,8.50625 6.6860362,8.609375 6.5619175,8.7125 6.4078887,8.8390625 6.34375,8.890625 6.2796113,8.9421875 6.1247391,9.06875 5.9995897,9.171875 5.5529775,9.5398903 5.4816425,9.59731 5.265625,9.762665 4.9949706,9.9698428 4.9244775,10.045174 4.8530541,10.203552 c -0.051976,0.115253 -0.056898,0.28356 -0.065787,2.249573 -0.00678,1.498522 6.75e-4,2.160121 0.025274,2.24413 0.044917,0.153404 0.2311103,0.359313 0.3905837,0.431943 0.1552747,0.07072 0.4452581,0.07545 0.6025662,0.0098 z M 7.5,3.9509066 C 7.145155,3.8580425 6.8472981,3.680585 6.5708441,3.3973331 6.1710784,2.9877374 6,2.5689655 6,2 6,1.4310345 6.1710784,1.0122626 6.5708441,0.60266681 6.9780466,0.18545158 7.4178237,0 8,0 8.5821763,0 9.0219534,0.18545158 9.4291559,0.60266681 9.8289216,1.0122626 10,1.4310345 10,2 10,2.5821762 9.8145484,3.0219535 9.3973331,3.4291559 9.1132906,3.7063819 8.8465581,3.8593866 8.4856219,3.9521378 8.2519019,4.0121978 7.7317181,4.0115478 7.5,3.9509066 Z M 8.3580766,3.4521503 C 8.8970516,3.311765 9.3122331,2.8952541 9.4533853,2.3533344 9.6557938,1.5762358 9.1583753,0.75630109 8.3580766,0.54784975 7.5760953,0.34416953 6.7569144,0.83927009 6.5478497,1.6419236 6.2693225,2.7112622 7.2887378,3.7306775 8.3580766,3.4521503 Z"
       id="path819"
       inkscape:connector-curvature="0" />
  </g>
</svg>
