<?xml version="1.0" encoding="UTF-8" standalone="no"?>
<!-- Created with Inkscape (http://www.inkscape.org/) -->

<svg
   version="1.1"
   id="svg2"
   width="1600"
   height="1600"
   viewBox="0 0 1600 1600"
   sodipodi:docname="posterize.svg"
   inkscape:version="1.2.2 (732a01da63, 2022-12-09)"
   xmlns:inkscape="http://www.inkscape.org/namespaces/inkscape"
   xmlns:sodipodi="http://sodipodi.sourceforge.net/DTD/sodipodi-0.dtd"
   xmlns="http://www.w3.org/2000/svg"
   xmlns:svg="http://www.w3.org/2000/svg"
   xmlns:rdf="http://www.w3.org/1999/02/22-rdf-syntax-ns#"
   xmlns:cc="http://creativecommons.org/ns#"
   xmlns:dc="http://purl.org/dc/elements/1.1/">
  <metadata
     id="metadata8">
    <rdf:RDF>
      <cc:Work
         rdf:about="">
        <dc:format>image/svg+xml</dc:format>
        <dc:type
           rdf:resource="http://purl.org/dc/dcmitype/StillImage" />
      </cc:Work>
    </rdf:RDF>
  </metadata>
  <defs
     id="defs6" />
  <sodipodi:namedview
     pagecolor="#808080"
     bordercolor="#666666"
     borderopacity="1"
     objecttolerance="10"
     gridtolerance="10"
     guidetolerance="10"
     inkscape:pageopacity="0"
     inkscape:pageshadow="2"
     inkscape:window-width="1993"
     inkscape:window-height="1009"
     id="namedview4"
     showgrid="false"
     inkscape:zoom="0.5"
     inkscape:cx="297"
     inkscape:cy="70"
     inkscape:window-x="-8"
     inkscape:window-y="-8"
     inkscape:window-maximized="1"
     inkscape:current-layer="POSTERIZE "
     inkscape:showpageshadow="0"
     inkscape:pagecheckerboard="true"
     inkscape:deskcolor="#d1d1d1" />
  <g
     id="POSTERIZE "
     transform="matrix(100,0,0,100,0,4.9999997e-5)"
     style="stroke-width:0.0114286">
    <path
       style="fill:none;stroke-width:0.000357143"
       d="M 0,8 V 0 H 6.9608544 13.921709 L 11.718667,2.2034154 9.515625,4.4068309 9.4992341,4.0393528 C 9.484455,3.7080144 9.4727784,3.6503622 9.3805025,3.453125 9.2394722,3.1516759 8.9425503,2.8534928 8.6440444,2.7135388 8.4279475,2.6122221 8.4107709,2.609375 8.015625,2.609375 c -0.3951459,0 -0.4123225,0.00285 -0.6284194,0.1041638 C 7.08954,2.8530989 6.7922025,3.1513887 6.6499812,3.453125 L 6.546875,3.671875 v 2.375 2.375 l 0.1041637,0.2221694 c 0.13956,0.2976656 0.43785,0.5950031 0.7395863,0.7372244 l 0.21875,0.1031062 h 2.359375 2.359375 l 0.21875,-0.1031062 C 12.848611,9.2390475 13.146901,8.94171 13.286461,8.6440444 13.387778,8.4279475 13.390625,8.4107709 13.390625,8.015625 c 0,-0.3951459 -0.0028,-0.4123225 -0.104164,-0.6284194 C 13.146436,7.0885478 12.848272,6.7917009 12.546875,6.6508859 12.352335,6.5599956 12.289183,6.546855 11.976266,6.5321547 L 11.624407,6.515625 13.812203,4.3282087 16,2.1407924 V 9.0703963 16 H 8 0 Z m 15.269217,7.419944 c 0.04746,-0.03544 0.11529,-0.103264 0.150727,-0.150726 l 0.06443,-0.0863 0.008,-5.9117736 0.008,-5.9117734 -1.39083,1.3904934 c -0.764957,0.7647713 -1.390797,1.3975838 -1.390756,1.40625 3.2e-5,0.00867 0.0809,0.05727 0.179688,0.1080097 0.272223,0.1398194 0.658285,0.539901 0.80055,0.8296219 0.16366,0.3332919 0.206446,0.5243525 0.206446,0.921875 0,0.3975225 -0.04279,0.5885831 -0.206446,0.921875 -0.159713,0.3252538 -0.530058,0.6955988 -0.855312,0.8553119 -0.43528,0.2137401 -0.333702,0.2064462 -2.875,0.2064462 -1.915725,0 -2.3253966,-0.00758 -2.46875,-0.045679 C 6.8290859,9.7752694 6.2559806,9.2021641 6.0776712,8.53125 6.0097841,8.2758153 6.0097841,3.8179347 6.0776712,3.5625 6.2559806,2.891586 6.8290859,2.3184805 7.5,2.1401712 c 0.1011675,-0.026887 0.31329,-0.045679 0.515625,-0.045679 0.3975225,0 0.5885831,0.042787 0.921875,0.2064465 0.2972219,0.145948 0.6869241,0.5259745 0.8409456,0.8200656 L 9.8827334,3.3201328 11.285248,1.9178789 12.687762,0.515625 6.8204434,0.50678212 c -3.2270253,-0.004864 -5.91260756,-7.884e-4 -5.96796099,0.009056 -0.127853,0.0227381 -0.28628075,0.15516988 -0.34030322,0.28446382 -0.034466,0.0824887 -0.0409663,1.08865366 -0.0369551,5.72020896 0.005671,6.5486241 0.0239039,8.6228761 0.076594,8.7138641 0.0520598,0.0899 0.17020647,0.194417 0.26069797,0.230623 0.0514323,0.02058 2.51874174,0.02922 7.22425674,0.02532 l 7.1461472,-0.0059 z"
       id="path847"
       inkscape:connector-curvature="0" />
    <path
       style="fill:#fefefe;stroke-width:0.000357143"
       d="M 1,8 V 1 H 6.6011962 12.202393 L 11.703125,1.5 11.203858,2 H 6.6019287 2 v 6 6 h 6 6 V 9.4293213 4.8586425 l 0.497215,-0.4964869 c 0.436669,-0.436029 0.498506,-0.4873562 0.507813,-0.4215084 0.0058,0.041238 0.007,2.5464622 0.0026,5.5671653 L 14.999654,15 H 7.9998272 1 Z M 7.75,8.9711934 C 7.4878287,8.8897591 7.2530909,8.6907469 7.1205006,8.4375 L 7.046875,8.296875 v -2.25 -2.25 L 7.130113,3.640625 C 7.229959,3.4531981 7.402343,3.2831334 7.5937505,3.183225 7.7109643,3.122043 7.781198,3.109823 8.0156255,3.109823 c 0.2344275,0 0.3046613,0.01222 0.421875,0.073402 0.1914075,0.099908 0.3637913,0.2699731 0.4636375,0.4574 L 8.984375,3.796875 9,4.7110784 9.015625,5.6252819 11.82806,2.8126409 14.640495,0 H 15.320248 16 V 0.71100297 1.4220059 l -2.797018,2.7968094 -2.797018,2.7968097 0.89858,0.015625 c 0.867828,0.01509 0.903394,0.018145 1.039206,0.089251 0.191793,0.1004153 0.364014,0.2705081 0.46335,0.4576244 0.07205,0.1357144 0.08295,0.1932141 0.08295,0.4375 0,0.2442859 -0.0109,0.3017856 -0.08295,0.4375 -0.09934,0.1871163 -0.271557,0.3572091 -0.46335,0.4576244 l -0.140625,0.073626 -2.1875,0.00554 C 8.8125,8.9929644 7.7929687,8.98454 7.75,8.9711934 Z"
       id="path845"
       inkscape:connector-curvature="0" />
    <path
       style="fill:#3298fe;stroke-width:0.000357143"
       d="m 2,12 v -2 h 2 2 v 2 2 H 4 2 Z M 12.451646,9.9519528 C 13.112644,9.77062 13.683508,9.1946806 13.859829,8.53125 c 0.0599,-0.2253772 0.0599,-0.8058728 0,-1.03125 C 13.779232,7.1967437 13.601575,6.8834266 13.37493,6.6448275 13.200428,6.4611228 12.886424,6.2310609 12.736004,6.1767047 c -0.01808,-0.00653 0.0012,-0.048967 0.04288,-0.094293 L 12.854645,6 H 13.427322 14 v 2 2 L 13.148438,9.99721 C 12.372819,9.99466 12.310678,9.99063 12.451646,9.951957 Z M 6.0067619,4.0078125 6,2 h 2 2 V 2.6045316 C 10,3.159295 9.9950997,3.2134978 9.9404778,3.2629303 9.8830559,3.3148959 9.8773063,3.3098284 9.7775566,3.1193361 9.6244709,2.8269882 9.2338912,2.4464785 8.9375,2.3009383 8.8085938,2.23764 8.6257812,2.1652948 8.53125,2.1401712 8.3058728,2.0802725 7.7253772,2.0802725 7.5,2.1401712 6.8717809,2.3071334 6.3448316,2.8030608 6.1049166,3.453125 6.0538381,3.5915253 6.0453241,3.7468178 6.0303872,4.8125 6.0148322,5.9222684 6.0129991,5.8598284 6.0067619,4.0078125 Z"
       id="path843"
       inkscape:connector-curvature="0" />
    <path
       style="fill:#fe0032;stroke-width:0.000357143"
       d="M 2,5.5 V 5 H 3.5 5 V 5.5 6 H 3.5 2 Z"
       id="path841"
       inkscape:connector-curvature="0" />
    <path
       style="fill:#00fe00;stroke-width:0.000357143"
       d="M 6,12 V 10 H 4 2 V 8 6 h 2 2 v 2 2 h 2 2 v 2 2 H 8 6 Z M 13.421875,5.4375 C 13.730892,5.128125 13.987386,4.875 13.991862,4.875 13.996338,4.875 14,5.128125 14,5.4375 V 6 H 13.430013 12.860026 Z M 10,2.59375 V 2 h 0.601254 0.601254 L 10.609375,2.59375 C 10.283152,2.9203125 10.012588,3.1875 10.008121,3.1875 10.003654,3.1875 10,2.9203125 10,2.59375 Z"
       id="path839"
       inkscape:connector-curvature="0" />
    <path
       style="fill:#fe0000;stroke-width:0.000357143"
       d="m 10,12 v -2 h 2 2 v 2 2 H 12 10 Z M 6,8 V 6 H 5.5 5 V 5.5 5 H 3.5 2 V 3.5 2 H 3.9949075 5.989815 l 0.021784,3.1778972 c 0.014333,2.0909075 0.033326,3.2266097 0.055528,3.3203125 0.01856,0.078328 0.090345,0.2619466 0.1595225,0.4080403 0.2290756,0.4837756 0.731364,0.9008997 1.2592041,1.0457028 0.1413653,0.038781 0.083718,0.042701 -0.6655413,0.045253 L 6,10 Z"
       id="path837"
       inkscape:connector-curvature="0" />
    <path
       style="fill:#323232;stroke-width:0.000357143"
       d="m 0.81251603,15.464998 c -0.0904915,-0.03621 -0.20863819,-0.140724 -0.26069797,-0.230623 -0.0526843,-0.09098 -0.0709218,-2.165088 -0.0765953,-8.7110128 -0.003318,-3.8278119 0.005494,-5.64461551 0.027661,-5.70312514 0.0448132,-0.118285 0.14986547,-0.22639259 0.26955,-0.27738953 C 0.85643294,0.50705597 1.8469424,0.5 6.7873256,0.5 H 12.701659 L 12.453125,0.75 12.204591,1 H 6.6022956 1 v 7 7 h 7 7 L 15.0033,9.5078125 C 15.0051,6.4871094 15.0046,3.9804688 15.002,3.9375 14.9985,3.87831 15.05838,3.7989016 15.24893,3.6098678 l 0.251511,-0.2495075 -0.0081,5.911281 -0.0081,5.9112807 -0.06443,0.0863 c -0.03544,0.04746 -0.103264,0.115289 -0.150727,0.150726 l -0.0863,0.06443 -7.1461472,0.0059 c -4.705515,0.0039 -7.17282446,-0.0047 -7.22425677,-0.02532 z M 7.578125,9.4565181 C 7.1876819,9.3312697 6.8254975,9.0128813 6.6500019,8.640625 L 6.546875,8.421875 v -2.375 -2.375 L 6.6510387,3.4497056 C 6.7905987,3.15204 7.0888887,2.8547027 7.390625,2.7124813 7.6030737,2.612345 7.6210772,2.609375 8.015625,2.609375 c 0.3945478,0 0.4125513,0.00297 0.625,0.1031063 C 8.9434672,2.855224 9.2411434,3.1523572 9.3791963,3.4497056 9.4721612,3.6499409 9.4839878,3.708155 9.498985,4.0393528 L 9.515625,4.4068309 11.718667,2.2034154 13.921709,0 h 0.359393 0.359393 L 11.82806,2.8126409 9.015625,5.6252819 9,4.7110784 8.984375,3.796875 8.9011375,3.640625 C 8.8012913,3.4531981 8.6289075,3.2831334 8.4375,3.183225 8.3202863,3.1220431 8.2500525,3.1098232 8.015625,3.1098232 c -0.2344275,0 -0.3046612,0.01222 -0.421875,0.073402 -0.1914075,0.099908 -0.3637913,0.2699731 -0.4636375,0.4574 l -0.083238,0.15625 v 2.25 2.25 L 7.1205006,8.4375 C 7.2208147,8.6290994 7.3908569,8.8013759 7.578125,8.9011375 l 0.15625,0.083237 h 2.234375 2.234375 l 0.140625,-0.073626 c 0.191793,-0.1004153 0.364014,-0.2705081 0.46335,-0.4576244 0.07205,-0.1357144 0.08295,-0.1932141 0.08295,-0.4375 0,-0.2442859 -0.0109,-0.3017856 -0.08295,-0.4375 C 12.707764,7.3910087 12.535543,7.2209159 12.34375,7.1205006 12.207938,7.0493947 12.172372,7.0463403 11.304544,7.03125 L 10.405964,7.015625 13.202982,4.2188153 16,1.4220059 v 0.3593933 0.3593932 l -2.187797,2.1874163 -2.187796,2.1874163 0.351859,0.016778 c 0.312738,0.014913 0.37656,0.028232 0.574028,0.1197888 0.297306,0.1378478 0.594411,0.43544 0.737225,0.7384328 0.100136,0.2124487 0.103106,0.2304522 0.103106,0.625 0,0.3951459 -0.0028,0.4123225 -0.104164,0.6284194 -0.13956,0.2976656 -0.43785,0.5950031 -0.739586,0.7372244 l -0.21875,0.1031062 -2.3125,0.00612 c -1.8097631,0.00479 -2.339675,-0.0026 -2.4375,-0.033976 z"
       id="path835"
       inkscape:connector-curvature="0" />
  </g>
</svg>
