<?xml version="1.0" encoding="UTF-8" standalone="no"?>
<!-- Created with Inkscape (http://www.inkscape.org/) -->

<svg
   version="1.1"
   id="svg2"
   width="1600"
   height="1600"
   viewBox="0 0 1600 1600"
   sodipodi:docname="prev_keyframe.svg"
   inkscape:version="1.2.2 (732a01da63, 2022-12-09)"
   xmlns:inkscape="http://www.inkscape.org/namespaces/inkscape"
   xmlns:sodipodi="http://sodipodi.sourceforge.net/DTD/sodipodi-0.dtd"
   xmlns="http://www.w3.org/2000/svg"
   xmlns:svg="http://www.w3.org/2000/svg"
   xmlns:rdf="http://www.w3.org/1999/02/22-rdf-syntax-ns#"
   xmlns:cc="http://creativecommons.org/ns#"
   xmlns:dc="http://purl.org/dc/elements/1.1/">
  <metadata
     id="metadata8">
    <rdf:RDF>
      <cc:Work
         rdf:about="">
        <dc:format>image/svg+xml</dc:format>
        <dc:type
           rdf:resource="http://purl.org/dc/dcmitype/StillImage" />
      </cc:Work>
    </rdf:RDF>
  </metadata>
  <defs
     id="defs6" />
  <sodipodi:namedview
     pagecolor="#808080"
     bordercolor="#666666"
     borderopacity="1"
     objecttolerance="10"
     gridtolerance="10"
     guidetolerance="10"
     inkscape:pageopacity="0"
     inkscape:pageshadow="2"
     inkscape:window-width="2560"
     inkscape:window-height="1009"
     id="namedview4"
     showgrid="true"
     inkscape:zoom="0.5"
     inkscape:cx="1117"
     inkscape:cy="838"
     inkscape:window-x="-8"
     inkscape:window-y="-8"
     inkscape:window-maximized="1"
     inkscape:current-layer="PREV_KEYFRAME"
     inkscape:showpageshadow="0"
     inkscape:pagecheckerboard="true"
     inkscape:deskcolor="#d1d1d1">
    <inkscape:grid
       type="xygrid"
       id="grid1407"
       spacingx="100"
       spacingy="100" />
  </sodipodi:namedview>
  <g
     id="PREV_KEYFRAME"
     transform="matrix(100,0,0,100,100,4.9999997e-5)"
     style="stroke-width:0.0114286">
    <path
       style="fill:none;stroke-width:0.000357143"
       d="M 0,8 V 0 h 8 8 v 8 8 H 8 0 Z m 7.421875,4.937412 c 0.1986784,-0.09733 0.3861912,-0.284522 0.4851206,-0.484287 0.077152,-0.15579 0.077407,-0.159403 0.086717,-1.226563 0.00514,-0.588671 0.015664,-1.070312 0.023397,-1.070312 0.00773,0 0.9042272,0.62297 1.9922114,1.384377 1.545088,1.081304 2.017123,1.396635 2.156164,1.440369 0.146498,0.04608 0.259634,0.05392 0.639076,0.04431 0.411816,-0.01044 0.477754,-0.01985 0.617314,-0.08806 0.198569,-0.09706 0.386135,-0.284236 0.485121,-0.484115 l 0.07738,-0.15625 v -4.28125 -4.28125 l -0.07738,-0.15625 C 13.808039,3.3783044 13.6205,3.1911203 13.421875,3.0939217 c -0.140258,-0.068636 -0.204327,-0.077629 -0.625982,-0.087867 -0.407569,-0.0099 -0.493116,-0.00319 -0.646436,0.050702 -0.126765,0.044554 -0.733013,0.4515814 -2.145075,1.4401752 C 8.92178,5.2548694 8.0285978,5.875 8.0195328,5.875 8.0104681,5.875 7.9988491,5.3933594 7.9937131,4.8046875 7.9844025,3.7375275 7.9841472,3.7339147 7.9069956,3.578125 7.8080387,3.3783044 7.6205,3.1911203 7.421875,3.0939217 7.2816172,3.0252855 7.2175484,3.0162923 6.7958934,3.0060545 6.3883816,2.9961601 6.3027653,3.0028727 6.1495269,3.0567316 6.0211053,3.1018682 5.2633772,3.6155184 3.3735128,4.9385409 0.61558978,6.8692591 0.64703819,6.8445022 0.52473716,7.1811631 c -0.0764883,0.210551 -0.0805397,1.4231372 -0.005531,1.6553888 0.10970638,0.3396859 0.097231,0.3298184 2.87198614,2.2716551 1.7338237,1.21337 2.645955,1.833201 2.75,1.868741 0.1253212,0.04281 0.250145,0.0516 0.6400575,0.04509 0.4414809,-0.0074 0.4982119,-0.01486 0.640625,-0.08463 z"
       id="path825"
       inkscape:connector-curvature="0" />
    <path
       style="fill:#fefefe;stroke-width:0.000357143"
       d="m 1.250606,7.7507773 0.00903,-0.2649037 2.5,-1.7504284 2.5,-1.7504285 0.2578117,-2.812e-4 0.2578125,-2.813e-4 V 4.384623 4.7847917 L 6.2250861,5.1736855 C 5.9224905,5.387577 4.7946443,6.1145323 3.7187611,6.7891417 L 1.76261,8.0156811 H 1.5020935 1.2415769 Z m 6.0000001,0 0.00903,-0.2649037 2.5,-1.7504284 2.4999999,-1.7504285 0.257813,-2.812e-4 0.257811,-2.813e-4 V 4.4175414 4.8506289 L 12.314323,5.1411892 C 12.060807,5.3009977 11.804409,5.4682177 11.74455,5.5127895 11.684691,5.5573614 10.764238,6.1387511 9.699099,6.8047667 L 7.7624821,8.0156811 H 7.5020296 7.2415768 Z"
       id="path823"
       inkscape:connector-curvature="0" />
    <path
       style="fill:#cbcbcb;stroke-width:0.000357143"
       d="M 3.7506815,10.26101 1.2440102,8.5063392 V 8.2610102 8.0156811 H 1.5033101 1.76261 L 3.7191046,6.7891186 C 4.7951765,6.1145092 5.9054446,5.3999173 6.1863671,5.2011367 6.4672896,5.0023558 6.7147133,4.8292605 6.7361977,4.8164798 c 0.031159,-0.018536 0.039063,0.7074466 0.039063,3.5879819 V 12.015681 H 6.5163064 6.2573524 Z m 6,0 L 7.2440102,8.5063392 V 8.2610102 8.0156811 h 0.2592359 0.259236 L 9.7094086,6.7990255 c 1.0708094,-0.6691606 1.9701694,-1.236805 1.9985764,-1.2614322 0.0408,-0.03537 0.856642,-0.5581931 1.028213,-0.6589181 0.03116,-0.018291 0.03906,0.7016637 0.03906,3.5570365 v 3.5799693 h -0.258954 -0.258954 z"
       id="path821"
       inkscape:connector-curvature="0" />
    <path
       style="fill:#323232;stroke-width:0.000357143"
       d="m 5.9164527,12.961379 c -0.104045,-0.03554 -1.0161763,-0.655371 -2.75,-1.868741 C 0.39169755,9.1508014 0.40417296,9.1606689 0.29446658,8.820983 0.21945774,8.5887314 0.22350908,7.3761452 0.2999974,7.1655942 0.42229843,6.8289333 0.39085002,6.8536902 3.148773,4.922972 5.0386374,3.5999495 5.7963655,3.0862993 5.9247871,3.0411627 c 0.1532384,-0.053859 0.2388547,-0.060571 0.6463665,-0.050677 0.421655,0.010238 0.4857238,0.019231 0.6259816,0.087867 0.198625,0.097199 0.3861637,0.2843827 0.4851206,0.4842033 0.077152,0.1557897 0.077407,0.1594025 0.086717,1.2265625 0.00514,0.5886719 0.016755,1.0703125 0.02582,1.0703125 0.00906,0 0.9022472,-0.6201306 1.9848504,-1.3780684 1.4120608,-0.9885938 2.0183088,-1.3956211 2.1450738,-1.4401752 0.15332,-0.053888 0.238867,-0.060598 0.646436,-0.050702 0.421655,0.010238 0.485724,0.019231 0.625982,0.087867 0.198625,0.097199 0.386164,0.2843827 0.485121,0.4842033 l 0.07738,0.15625 v 4.28125 4.2812503 l -0.07738,0.15625 c -0.09899,0.199879 -0.286552,0.387056 -0.485121,0.484115 -0.13956,0.06822 -0.205498,0.07762 -0.617314,0.08806 -0.379442,0.0096 -0.492578,0.0018 -0.639076,-0.04431 -0.139041,-0.04373 -0.611076,-0.359065 -2.1561638,-1.440369 -1.0879841,-0.761401 -1.9844791,-1.384371 -1.9922113,-1.384371 -0.00773,0 -0.018261,0.481641 -0.023397,1.070313 -0.00931,1.067159 -0.00957,1.070772 -0.086717,1.226562 -0.098929,0.199765 -0.2864422,0.386956 -0.4851206,0.484287 -0.1424131,0.06977 -0.1991441,0.07726 -0.640625,0.08463 -0.3899125,0.0065 -0.5147363,-0.0023 -0.6400575,-0.04509 z M 6.7752602,7.9978383 V 3.9799955 L 6.5018227,3.9900258 6.2283852,4.0000561 3.7361977,5.748477 1.2440102,7.496898 v 0.5047206 0.5047206 l 2.5066713,1.7546708 2.5066709,1.754671 h 0.258954 0.2589538 z m 5.9999998,0 V 3.9799955 l -0.273437,0.01003 -0.273438,0.01003 L 9.7361977,5.748477 7.2440102,7.496898 v 0.5047206 0.5047206 l 2.5066713,1.7546708 2.5066705,1.754671 h 0.258954 0.258954 z"
       id="path819"
       inkscape:connector-curvature="0" />
  </g>
</svg>
