<?xml version="1.0" encoding="UTF-8" standalone="no"?>
<!-- Created with Inkscape (http://www.inkscape.org/) -->

<svg
   version="1.1"
   id="svg2"
   width="1600"
   height="1600"
   viewBox="0 0 1600 1600"
   sodipodi:docname="previousactive.svg"
   inkscape:version="1.2.2 (732a01da63, 2022-12-09)"
   xmlns:inkscape="http://www.inkscape.org/namespaces/inkscape"
   xmlns:sodipodi="http://sodipodi.sourceforge.net/DTD/sodipodi-0.dtd"
   xmlns="http://www.w3.org/2000/svg"
   xmlns:svg="http://www.w3.org/2000/svg"
   xmlns:rdf="http://www.w3.org/1999/02/22-rdf-syntax-ns#"
   xmlns:cc="http://creativecommons.org/ns#"
   xmlns:dc="http://purl.org/dc/elements/1.1/">
  <metadata
     id="metadata8">
    <rdf:RDF>
      <cc:Work
         rdf:about="">
        <dc:format>image/svg+xml</dc:format>
        <dc:type
           rdf:resource="http://purl.org/dc/dcmitype/StillImage" />
      </cc:Work>
    </rdf:RDF>
  </metadata>
  <defs
     id="defs6" />
  <sodipodi:namedview
     pagecolor="#808080"
     bordercolor="#666666"
     borderopacity="1"
     objecttolerance="10"
     gridtolerance="10"
     guidetolerance="10"
     inkscape:pageopacity="0"
     inkscape:pageshadow="2"
     inkscape:window-width="1993"
     inkscape:window-height="1009"
     id="namedview4"
     showgrid="false"
     inkscape:zoom="0.25"
     inkscape:cx="826"
     inkscape:cy="808"
     inkscape:window-x="-8"
     inkscape:window-y="-8"
     inkscape:window-maximized="1"
     inkscape:current-layer="PREVIOUSACTIVE"
     inkscape:showpageshadow="0"
     inkscape:pagecheckerboard="true"
     inkscape:deskcolor="#d1d1d1" />
  <g
     id="PREVIOUSACTIVE"
     transform="matrix(100,0,0,100,0,4.9999997e-5)"
     style="stroke-width:0.0114286">
    <path
       style="fill:none;stroke-width:0.000357143"
       d="M 0,8 V 0 h 8 8 v 8 8 H 8 0 Z m 5.1457794,5.397977 c 0.03721,-0.02123 0.1356475,-0.07374 0.21875,-0.116698 0.083102,-0.04295 0.1623412,-0.09569 0.1760859,-0.117187 0.013745,-0.0215 0.044381,-0.03909 0.06808,-0.03909 0.0237,0 0.061673,-0.01761 0.084385,-0.03914 0.022712,-0.02153 0.09733,-0.06723 0.1658178,-0.101562 0.068488,-0.03433 0.1433207,-0.08 0.1662947,-0.101487 0.022974,-0.02149 0.061162,-0.03906 0.084862,-0.03906 0.023699,0 0.054336,-0.0178 0.06808,-0.03955 0.013745,-0.02175 0.084595,-0.06746 0.1574444,-0.101563 0.07285,-0.03411 0.1326153,-0.07118 0.1328125,-0.08239 1.875e-4,-0.01121 0.03903,-0.03586 0.086296,-0.05478 0.047266,-0.01892 0.128125,-0.06227 0.1796875,-0.09634 0.051563,-0.03407 0.121875,-0.07642 0.15625,-0.09412 0.034375,-0.0177 0.1046875,-0.05994 0.15625,-0.09387 0.051563,-0.03393 0.1148438,-0.07148 0.140625,-0.08345 0.025781,-0.01197 0.1350134,-0.0754 0.2427378,-0.140969 0.1077247,-0.06557 0.2032013,-0.119215 0.2121703,-0.119215 0.00897,0 0.089393,-0.04922 0.17872,-0.109375 0.1653856,-0.111377 0.2413719,-0.13546 0.2413719,-0.0765 0,0.01808 0.042188,0.04758 0.09375,0.06556 0.051562,0.01797 0.093883,0.04185 0.094046,0.05306 1.563e-4,0.01121 0.063444,0.04814 0.140625,0.08207 0.077181,0.03393 0.1403291,0.0726 0.1403291,0.08594 0,0.01333 0.014843,0.02425 0.032984,0.02425 0.018141,0 0.3289556,0.175781 0.6906996,0.390625 0.3617438,0.214844 0.6693341,0.390625 0.6835341,0.390625 0.0142,0 0.044401,0.01761 0.067113,0.03914 0.02271,0.02153 0.09733,0.06723 0.165818,0.101562 0.06849,0.03433 0.143321,0.08 0.166295,0.101487 0.02297,0.02149 0.06116,0.03906 0.08486,0.03906 0.0237,0 0.05434,0.01759 0.06808,0.03909 0.01374,0.0215 0.09298,0.07423 0.176086,0.117187 0.0831,0.04295 0.18154,0.09547 0.21875,0.116698 0.03721,0.02123 0.09578,0.0386 0.130154,0.0386 0.03438,0 0.09294,-0.01737 0.130154,-0.0386 0.03721,-0.02123 0.135648,-0.07374 0.21875,-0.116698 0.0831,-0.04295 0.162342,-0.09569 0.176086,-0.117187 0.01375,-0.0215 0.04438,-0.03909 0.06808,-0.03909 0.0237,0 0.06167,-0.01761 0.08438,-0.03914 0.02271,-0.02153 0.09733,-0.06723 0.165818,-0.101562 0.06849,-0.03433 0.143321,-0.08 0.166295,-0.101488 0.02297,-0.02148 0.06116,-0.03906 0.08486,-0.03906 0.0237,0 0.05434,-0.0178 0.06808,-0.03955 0.01374,-0.02175 0.08459,-0.06746 0.157444,-0.101563 0.07285,-0.03411 0.132615,-0.07118 0.132813,-0.08239 1.87e-4,-0.01121 0.03903,-0.03586 0.0863,-0.05478 0.04726,-0.01892 0.128125,-0.06227 0.179687,-0.09634 0.05156,-0.03407 0.121875,-0.07642 0.15625,-0.09412 0.03438,-0.0177 0.104688,-0.05994 0.15625,-0.09387 0.05156,-0.03393 0.114844,-0.07148 0.140625,-0.08345 0.02578,-0.01197 0.135013,-0.0754 0.242738,-0.140969 0.107724,-0.06557 0.203201,-0.119215 0.21217,-0.119215 0.009,0 0.08939,-0.04922 0.17872,-0.109375 0.08933,-0.06016 0.180179,-0.109375 0.201892,-0.109375 0.02171,0 0.03948,-0.01406 0.03948,-0.03125 0,-0.01719 0.01474,-0.03125 0.03275,-0.03125 0.01801,0 0.109692,-0.04922 0.203732,-0.109375 0.09404,-0.06016 0.18477,-0.109375 0.201624,-0.109375 0.01685,0 0.03064,-0.01406 0.03064,-0.03125 0,-0.01719 0.01616,-0.03125 0.03592,-0.03125 0.065,0 1.080929,-0.621177 1.100855,-0.673103 0.0239,-0.06228 0.02541,-5.2860123 0.0016,-5.3747958 -0.01529,-0.056918 -0.227744,-0.2173003 -0.356052,-0.268789 -0.02716,-0.010897 -0.175605,-0.096126 -0.329888,-0.1893988 -0.154282,-0.093273 -0.301607,-0.1794334 -0.327389,-0.191469 -0.02578,-0.012035 -0.08906,-0.049811 -0.140625,-0.083946 -0.05156,-0.034135 -0.132422,-0.077543 -0.179687,-0.096463 -0.04727,-0.01892 -0.0861,-0.043571 -0.0863,-0.05478 -1.88e-4,-0.011209 -0.05996,-0.048285 -0.132813,-0.082391 -0.07285,-0.034105 -0.143699,-0.079809 -0.157444,-0.1015625 -0.01374,-0.021754 -0.04438,-0.039552 -0.06808,-0.039552 -0.0237,0 -0.06189,-0.017578 -0.08486,-0.039063 -0.02297,-0.021484 -0.09781,-0.067153 -0.166295,-0.1014872 C 13.571661,4.0438669 13.497042,3.9981638 13.47433,3.9766378 13.451618,3.9551122 13.42201,3.9375 13.408535,3.9375 13.39506,3.9375 13.11833,3.7803847 12.79358,3.5883547 12.46883,3.396325 12.160937,3.2181297 12.109375,3.1923653 12.057813,3.1666009 12.008594,3.1372534 12,3.1271488 c -0.0086,-0.010105 -0.07166,-0.046362 -0.140148,-0.080573 -0.06849,-0.03421 -0.143321,-0.079779 -0.166295,-0.1012633 -0.02297,-0.021484 -0.06116,-0.039063 -0.08486,-0.039063 -0.0237,0 -0.05434,-0.017591 -0.06808,-0.039092 -0.01374,-0.021501 -0.09298,-0.074235 -0.176086,-0.1171875 -0.0831,-0.042953 -0.18154,-0.095467 -0.21875,-0.1166975 -0.03721,-0.021231 -0.09386,-0.038809 -0.125899,-0.039063 -0.06135,-4.853e-4 -0.309364,0.1235346 -0.327172,0.1636018 -0.0057,0.012891 -0.02701,0.023437 -0.04729,0.023437 -0.02028,0 -0.109961,0.049219 -0.199288,0.109375 C 10.356801,2.9507813 10.269098,3 10.251233,3 c -0.01787,0 -0.03248,0.014063 -0.03248,0.03125 0,0.017187 -0.01758,0.031638 -0.03906,0.032112 -0.02149,4.74e-4 -0.1375,0.063584 -0.257813,0.1402433 C 9.8015625,3.2802653 9.675,3.35743 9.640625,3.3750825 9.60625,3.392735 9.5359375,3.4348853 9.484375,3.46875 9.4328125,3.5026147 9.3625,3.5448022 9.328125,3.5625 9.29375,3.5801978 9.2234375,3.6223853 9.171875,3.65625 9.1203125,3.6901147 9.05,3.7323022 9.015625,3.75 8.98125,3.7676978 8.9109375,3.8098853 8.859375,3.84375 8.8078125,3.8776147 8.7375,3.9198022 8.703125,3.9375 8.66875,3.9551978 8.5984375,3.9968287 8.546875,4.0300128 8.4953125,4.0631969 8.3898438,4.1227406 8.3125,4.1623319 8.2351562,4.2019234 8.1606294,4.2519078 8.1468847,4.2734081 8.1120784,4.327855 7.9792347,4.3223969 7.9574491,4.265625 7.9475559,4.2398438 7.9189309,4.21875 7.8938378,4.21875 7.8687448,4.21875 7.8294168,4.201172 7.8064428,4.179687 7.7834687,4.1582031 7.7086359,4.1125341 7.6401481,4.0782003 7.5716606,4.0438669 7.4970425,3.9981638 7.4743303,3.9766378 7.4516184,3.9551122 7.4220103,3.9375 7.4085353,3.9375 7.39506,3.9375 7.11833,3.7803847 6.7935797,3.5883547 6.4688297,3.396325 6.1609375,3.2181297 6.109375,3.1923653 6.0578125,3.1666009 6.0085937,3.1372534 6,3.1271488 5.9914062,3.1170442 5.9283394,3.0807863 5.8598519,3.0465758 5.7913641,3.0123654 5.7165312,2.9667969 5.6935572,2.9453125 5.6705828,2.9238281 5.6323953,2.90625 5.6086956,2.90625 c -0.023699,0 -0.054336,-0.017591 -0.06808,-0.039092 C 5.5268706,2.845657 5.4476326,2.792923 5.3645297,2.7499705 5.2814267,2.7070175 5.1829897,2.6545035 5.1457797,2.633273 5.1085697,2.612042 5.0519147,2.594464 5.01988,2.59421 4.958532,2.5937247 4.7105162,2.7177446 4.6927087,2.7578118 c -0.00573,0.012891 -0.027011,0.023437 -0.047292,0.023437 -0.020281,0 -0.1099612,0.049219 -0.1992881,0.109375 C 4.3568012,2.9507813 4.2690984,3 4.2512328,3 4.2333672,3 4.21875,3.0140625 4.21875,3.03125 4.21875,3.048437 4.201172,3.062888 4.179687,3.063362 4.158203,3.063836 4.042187,3.126946 3.9218745,3.2036053 3.8015625,3.2802653 3.675,3.35743 3.640625,3.3750825 3.60625,3.392735 3.5359375,3.4348853 3.484375,3.46875 3.4328125,3.5026147 3.3625,3.5448022 3.328125,3.5625 3.29375,3.5801978 3.2234375,3.6223853 3.171875,3.65625 3.1203125,3.6901147 3.05,3.7323022 3.015625,3.75 2.98125,3.7676978 2.9109375,3.8098853 2.859375,3.84375 2.8078125,3.8776147 2.7375,3.9198022 2.703125,3.9375 2.66875,3.9551978 2.5984375,3.9968287 2.546875,4.0300128 2.4953125,4.0631969 2.3898437,4.1227406 2.3125,4.1623319 2.2351563,4.2019234 2.1606293,4.2519078 2.1468847,4.2734081 2.13314,4.2949087 2.1025038,4.3125 2.0788043,4.3125 c -0.023699,0 -0.061673,0.017612 -0.084385,0.039138 C 1.9717073,4.373164 1.8977823,4.418867 1.8301411,4.4532005 1.7625006,4.4875341 1.6816412,4.5402344 1.650454,4.5703125 1.6192668,4.6003906 1.5726563,4.625 1.546875,4.625 1.5210937,4.625 1.5,4.6390625 1.5,4.65625 1.5,4.673438 1.482234,4.6875 1.46052,4.6875 1.438806,4.6875 1.3479547,4.736719 1.2586278,4.796875 1.1693008,4.857031 1.081598,4.90625 1.0637324,4.90625 c -0.017865,0 -0.032483,0.014062 -0.032483,0.03125 0,0.017188 -0.017578,0.031551 -0.0390625,0.031919 -0.0411173,7.032e-4 -0.41602894,0.2296704 -0.5625,0.3435307 L 0.34375,5.3797537 v 2.6682807 2.6682806 l 0.06837,0.0637 c 0.0376035,0.03503 0.10791603,0.0812 0.15625,0.102596 0.048334,0.02139 0.08788,0.04953 0.08788,0.06252 0,0.01299 0.0156252,0.02362 0.0347226,0.02362 0.0190974,0 0.14917557,0.06888 0.2890625,0.153063 0.4088581,0.246054 0.469622,0.281878 0.5355899,0.315762 0.034375,0.01766 0.1046875,0.05925 0.15625,0.09244 0.051562,0.03318 0.1570312,0.09273 0.234375,0.132319 0.077344,0.03959 0.1518707,0.08958 0.1656153,0.111076 0.013745,0.0215 0.044381,0.03909 0.06808,0.03909 0.023699,0 0.061673,0.01768 0.084385,0.03929 0.022712,0.02161 0.100899,0.06731 0.1737487,0.101563 0.07285,0.03425 0.1326153,0.07282 0.1328125,0.08571 1.968e-4,0.01289 0.015201,0.02344 0.033342,0.02344 0.018141,0 0.3289559,0.175781 0.6906998,0.390625 0.3617438,0.214844 0.6693341,0.390625 0.6835341,0.390625 0.0142,0 0.044401,0.01761 0.067113,0.03914 0.022712,0.02153 0.09733,0.06723 0.1658178,0.101562 0.068488,0.03433 0.1433207,0.08 0.1662947,0.101488 0.022974,0.02148 0.061162,0.03906 0.084862,0.03906 0.023699,0 0.054336,0.01759 0.06808,0.03909 0.013745,0.0215 0.092983,0.07423 0.1760859,0.117187 0.083103,0.04295 0.18154,0.09547 0.21875,0.116698 0.03721,0.02123 0.095779,0.0386 0.1301544,0.0386 0.034375,0 0.092944,-0.01737 0.1301544,-0.0386 z"
       id="path829"
       inkscape:connector-curvature="0" />
    <path
       style="fill:#98cbfe;stroke-width:0.000357143"
       d="M 10.920313,7.7537437 C 10.903984,7.738615 10.785156,7.6718181 10.65625,7.6053062 10.527344,7.5387941 10.410629,7.4667969 10.396885,7.4453125 10.38314,7.4238281 10.345167,7.40625 10.3125,7.40625 10.27983,7.40625 10.24186,7.388672 10.22812,7.367187 10.21438,7.345703 10.09063,7.270234 9.95313,7.1994776 L 9.703125,7.0708316 9.6875,6.1785884 C 9.6789063,5.6878547 9.6648437,5.2804466 9.65625,5.2732369 9.6002475,5.2262541 9.3442737,5.0625 9.3268344,5.0625 9.3083556,5.0625 9.1696113,4.9817166 8.6875,4.6902484 8.6273438,4.6538803 8.5529422,4.6155 8.5221634,4.6049591 c -0.053782,-0.018419 -0.053782,-0.020666 0,-0.057697 0.030779,-0.021193 0.1473679,-0.08783 0.2590866,-0.1480828 0.1117188,-0.060253 0.2523438,-0.139386 0.3125,-0.175851 0.060156,-0.036465 0.1375,-0.080747 0.171875,-0.098403 C 9.3,4.1072684 9.3703125,4.0658912 9.421875,4.0329762 9.5117856,3.9755812 9.6723288,3.8855075 9.9062263,3.7612278 c 0.060143,-0.031956 0.1163937,-0.06542 0.1249997,-0.074364 0.0086,-0.00894 0.05081,-0.033604 0.09377,-0.054802 0.04297,-0.021197 0.148438,-0.080564 0.234375,-0.131925 0.08594,-0.051361 0.184375,-0.1077684 0.21875,-0.1253497 0.03438,-0.017581 0.104688,-0.058922 0.15625,-0.091868 0.237334,-0.1516463 0.337218,-0.1921386 0.425903,-0.1726599 0.04935,0.010838 0.08972,0.029218 0.08972,0.040844 0,0.011626 0.0668,0.053361 0.148438,0.092745 0.08164,0.039384 0.190625,0.098913 0.242187,0.1322853 0.05156,0.033373 0.114844,0.070467 0.140625,0.082432 0.02578,0.011965 0.136921,0.076569 0.246976,0.1435635 0.110056,0.066995 0.229587,0.1346703 0.265625,0.15039 0.03604,0.01572 0.08662,0.041682 0.112399,0.057695 0.02578,0.016012 0.110156,0.059155 0.1875,0.095873 0.07734,0.036717 0.182813,0.093754 0.234375,0.1267475 0.05156,0.032993 0.121875,0.074468 0.15625,0.092166 0.03438,0.017698 0.104688,0.059885 0.15625,0.09375 0.05156,0.033865 0.121875,0.076447 0.15625,0.094628 0.132806,0.07024 0.209734,0.118231 0.243256,0.1517528 0.01918,0.019178 0.06018,0.034869 0.09112,0.034869 0.03094,0 0.05625,0.014794 0.05625,0.032876 0,0.018082 0.04219,0.047582 0.09375,0.065557 0.05156,0.017975 0.09375,0.042217 0.09375,0.053871 0,0.011654 0.06315,0.04895 0.140329,0.08288 0.07718,0.03393 0.140462,0.072238 0.140625,0.085129 1.56e-4,0.012891 0.01787,0.023498 0.03936,0.023571 0.02148,6.25e-5 0.102343,0.043134 0.179687,0.09569 0.07734,0.052556 0.16875,0.1070978 0.203125,0.1212037 0.03438,0.014106 0.178833,0.095622 0.321019,0.1811472 0.189818,0.1141759 0.24795,0.1636128 0.21875,0.1860288 -0.03608,0.027699 -0.410413,0.24122 -0.524144,0.2989756 -0.02578,0.013092 -0.08906,0.051555 -0.140625,0.085473 -0.05156,0.033918 -0.124025,0.075073 -0.161027,0.091456 -0.037,0.016382 -0.0765,0.044716 -0.08778,0.062964 C 14.193039,5.98507 14.156516,6 14.123156,6 c -0.03336,0 -0.06066,0.014794 -0.06066,0.032876 0,0.018082 -0.04219,0.047582 -0.09375,0.065557 -0.05156,0.017975 -0.09375,0.042217 -0.09375,0.053871 0,0.011654 -0.06315,0.04895 -0.140329,0.08288 -0.07718,0.03393 -0.140462,0.072238 -0.140625,0.085129 -1.56e-4,0.012891 -0.01575,0.023437 -0.03464,0.023437 -0.01889,0 -0.170063,0.08003 -0.335938,0.1778441 -0.165874,0.097814 -0.336746,0.19704 -0.379715,0.2205018 -0.04297,0.023462 -0.120313,0.069229 -0.171875,0.101705 -0.05156,0.032476 -0.157031,0.09144 -0.234375,0.1310313 -0.07734,0.039592 -0.147667,0.079029 -0.156274,0.087639 -0.01703,0.017036 -0.192324,0.1143485 -0.30442,0.1689954 -0.03854,0.018788 -0.07018,0.044706 -0.07031,0.057596 -1.25e-4,0.012891 -0.01592,0.023437 -0.03507,0.023437 -0.01915,0 -0.174495,0.084375 -0.345203,0.1875 -0.170708,0.103125 -0.322064,0.1875 -0.336348,0.1875 -0.01428,0 -0.04348,0.021094 -0.06487,0.046875 -0.04283,0.051604 -0.158122,0.062513 -0.204687,0.019369 z"
       id="path827"
       inkscape:connector-curvature="0" />
    <path
       style="fill:#fefe00;stroke-width:0.000357143"
       d="M 4.9203125,7.7537437 C 4.9039844,7.738615 4.7851562,7.6718181 4.65625,7.6053062 4.5273437,7.5387941 4.4106294,7.4667969 4.3968847,7.4453125 4.38314,7.4238281 4.3451669,7.40625 4.3125,7.40625 4.279833,7.40625 4.24186,7.388474 4.228115,7.366747 4.2143706,7.3450212 4.1257812,7.2889112 4.03125,7.2420587 3.9367187,7.1952062 3.7890625,7.1147837 3.703125,7.0633425 3.6171875,7.0119012 3.51875,6.9550022 3.484375,6.9369 3.45,6.9187981 3.309375,6.8408772 3.171875,6.7637422 3.034375,6.6866072 2.8796875,6.6022931 2.828125,6.5763778 2.7765625,6.5504625 2.6921875,6.5017369 2.640625,6.4680984 2.5890625,6.4344603 2.5257813,6.3971447 2.5,6.3851747 2.4742188,6.3732047 2.3500099,6.3027375 2.2239804,6.2285806 2.0979508,6.1544237 1.9829397,6.09375 1.9684,6.09375 1.95386,6.09375 1.923167,6.076172 1.900193,6.054687 1.8772187,6.0332031 1.8023861,5.9876347 1.7338983,5.9534241 1.6654105,5.9192137 1.6023438,5.8840575 1.59375,5.8752991 1.5851562,5.8665409 1.5289062,5.8352287 1.46875,5.8057166 1.4085938,5.7762044 1.2890625,5.7096466 1.203125,5.6578103 1.1171875,5.6059741 1.0143882,5.5492875 0.97468206,5.53184 0.89982866,5.4989481 0.90734341,5.4375 0.98621928,5.4375 1.0109862,5.4375 1.03125,5.424385 1.03125,5.408356 1.03125,5.392327 1.062891,5.369388 1.101562,5.357381 1.1402344,5.3453741 1.2070312,5.3109153 1.25,5.2808062 1.2929687,5.2506969 1.4125,5.1799387 1.515625,5.1235659 1.80337,4.9662709 1.8520761,4.9385928 1.953125,4.8749491 2.0046875,4.8424734 2.1101563,4.7834962 2.1875,4.7438887 2.2648437,4.7042812 2.3328125,4.6613281 2.3385417,4.6484375 2.3442708,4.6355469 2.3631937,4.625 2.3805926,4.625 2.3979916,4.625 2.4495536,4.598786 2.4951759,4.566746 2.5407979,4.5347062 2.6695313,4.4592475 2.78125,4.39906 2.8929688,4.3388725 3.0335938,4.2597931 3.09375,4.2233281 3.1539063,4.1868628 3.23125,4.1425812 3.265625,4.1249247 3.3,4.1072684 3.3703125,4.0658912 3.421875,4.0329762 3.5117856,3.9755812 3.6723288,3.8855075 3.9062263,3.7612278 3.9663697,3.7292713 4.0226197,3.6958075 4.0312262,3.6868641 4.0398331,3.6779203 4.0820312,3.6532597 4.125,3.6320622 4.1679687,3.6108647 4.2734375,3.5514984 4.359375,3.5001372 4.4453125,3.4487759 4.54375,3.3923688 4.578125,3.3747875 4.6125,3.3572066 4.6828125,3.3158659 4.734375,3.2829197 4.9717091,3.1312734 5.0715925,3.0907811 5.1602784,3.1102598 5.2096253,3.1210982 5.25,3.1394778 5.25,3.1511034 c 0,0.011626 0.066797,0.053361 0.1484375,0.092745 0.081641,0.039384 0.190625,0.098913 0.2421875,0.1322853 0.051563,0.033373 0.1148438,0.070467 0.140625,0.082432 0.025781,0.011965 0.1369206,0.076569 0.2469763,0.1435635 0.1100556,0.066995 0.2295868,0.1346703 0.265625,0.15039 0.036038,0.01572 0.086618,0.041682 0.1123987,0.057695 0.025781,0.016012 0.1101562,0.059155 0.1875,0.095873 0.077344,0.036717 0.1828125,0.093754 0.234375,0.1267475 0.051563,0.032993 0.121875,0.074468 0.15625,0.092166 0.034375,0.017698 0.1046875,0.059885 0.15625,0.09375 0.051563,0.033865 0.121875,0.076447 0.15625,0.094628 0.1328062,0.07024 0.2097337,0.118231 0.2432556,0.1517528 C 7.5593087,4.4843087 7.6003125,4.5 7.63125,4.5 c 0.030938,0 0.05625,0.014794 0.05625,0.032876 0,0.018082 0.042187,0.047582 0.09375,0.065557 C 7.832813,4.616408 7.875,4.64065 7.875,4.652304 c 0,0.011654 0.063148,0.04895 0.1403291,0.08288 0.077181,0.03393 0.1404622,0.072238 0.140625,0.085129 1.562e-4,0.012891 0.017874,0.023498 0.039358,0.023571 0.021484,6.25e-5 0.1023437,0.043134 0.1796875,0.09569 0.077344,0.052556 0.16875,0.1070978 0.203125,0.1212037 0.034375,0.014106 0.1788334,0.095622 0.3210188,0.1811472 0.1898181,0.1141759 0.2479506,0.1636128 0.21875,0.1860288 -0.036083,0.027699 -0.4104129,0.24122 -0.5241438,0.2989756 -0.025781,0.013092 -0.089063,0.051555 -0.140625,0.085473 -0.051562,0.033918 -0.1240247,0.075073 -0.1610269,0.091456 -0.037002,0.016382 -0.076504,0.044716 -0.087782,0.062964 C 8.1930388,5.98507 8.1565162,6 8.1231556,6 8.089795,6 8.0625,6.0147941 8.0625,6.0328756 c 0,0.018082 -0.042188,0.047582 -0.09375,0.065557 -0.051563,0.017975 -0.09375,0.042217 -0.09375,0.053871 0,0.011654 -0.063148,0.04895 -0.1403291,0.08288 -0.077181,0.03393 -0.1404622,0.072238 -0.140625,0.085129 -1.562e-4,0.012891 -0.015752,0.023437 -0.034643,0.023437 -0.018891,0 -0.1700628,0.08003 -0.3359375,0.1778441 -0.1658744,0.097814 -0.3367463,0.19704 -0.379715,0.2205018 -0.042969,0.023462 -0.1203125,0.069229 -0.171875,0.101705 -0.051563,0.032476 -0.1570313,0.09144 -0.234375,0.1310313 -0.077344,0.039592 -0.1476669,0.079029 -0.1562738,0.087639 -0.01703,0.017036 -0.1923243,0.1143485 -0.30442,0.1689954 -0.038538,0.018788 -0.070178,0.044706 -0.070312,0.057596 C 5.9063687,7.3019531 5.8905784,7.3125 5.8714244,7.3125 5.8522703,7.3125 5.6969287,7.396875 5.5262209,7.5 5.3555131,7.603125 5.2041566,7.6875 5.1898728,7.6875 c -0.014283,0 -0.043476,0.021094 -0.064873,0.046875 -0.042827,0.051604 -0.1581216,0.062513 -0.2046873,0.019369 z"
       id="path825"
       inkscape:connector-curvature="0" />
    <path
       style="fill:#fecb32;stroke-width:0.000357143"
       d="M 4.6644653,12.848268 C 4.5916403,12.801397 4.5142966,12.741211 4.4925903,12.714521 4.4554856,12.668897 4.1425212,12.46875 4.1082847,12.46875 c -0.00868,0 -0.075263,-0.0378 -0.1479681,-0.08401 C 3.8876116,12.33854 3.7380075,12.253534 3.6278638,12.195844 3.51772,12.138154 3.3889866,12.063457 3.3417897,12.02985 c -0.047197,-0.03361 -0.10122,-0.0611 -0.1200513,-0.0611 -0.018831,0 -0.034238,-0.01091 -0.034238,-0.02425 0,-0.01334 -0.063148,-0.05201 -0.140329,-0.08594 C 2.9699904,11.82463 2.9067092,11.7877 2.9065464,11.77649 2.9063839,11.76528 2.8675784,11.74011 2.8203124,11.72055 2.7113705,11.67547 2.5516612,11.589797 2.5312499,11.565482 c -0.00859,-0.01024 -0.071875,-0.0466 -0.140625,-0.08081 -0.06875,-0.03421 -0.1320312,-0.06965 -0.140625,-0.07876 -0.00859,-0.0091 -0.050781,-0.034 -0.09375,-0.05532 -0.042969,-0.02132 -0.1203125,-0.06617 -0.171875,-0.09967 C 1.9328125,11.217417 1.8273437,11.157394 1.75,11.117536 1.6726562,11.077677 1.5498888,11.006801 1.4771835,10.960033 1.4044782,10.913265 1.3381801,10.875 1.3298544,10.875 c -0.00833,0 -0.1193704,-0.06328 -0.246766,-0.140625 -0.12739568,-0.07734 -0.24524618,-0.140625 -0.26189009,-0.140625 -0.0166439,0 -0.0535348,-0.02572 -0.0819799,-0.05715 C 0.69206584,10.484499 0.6875,10.273448 0.6875,8.1459769 0.6875,6.8625647 0.69587716,5.8125 0.70611587,5.8125 c 0.0207777,0 0.20697063,0.1005866 0.23138413,0.125 0.008594,0.00859 0.0648438,0.039771 0.125,0.069283 0.060156,0.029512 0.1796875,0.095512 0.265625,0.1466678 0.085937,0.051155 0.2195312,0.1254332 0.296875,0.1650625 0.077344,0.039629 0.1476562,0.079098 0.15625,0.087707 0.029267,0.029322 0.2654313,0.1602322 0.3203125,0.177556 0.030078,0.00949 0.054687,0.029685 0.054687,0.044868 0,0.015183 0.027295,0.027605 0.060656,0.027605 0.033361,0 0.069883,0.01493 0.081161,0.033177 0.011278,0.018248 0.050779,0.046726 0.087782,0.063284 0.037002,0.016558 0.1516519,0.079501 0.2547769,0.1398715 0.103125,0.060371 0.2226563,0.1265282 0.265625,0.1470172 0.042969,0.020489 0.085156,0.044704 0.09375,0.053813 0.00859,0.00911 0.071661,0.044551 0.1401481,0.078761 0.068488,0.034211 0.1433207,0.079779 0.1662947,0.1012634 0.022974,0.021484 0.054424,0.039063 0.069889,0.039063 0.015465,0 0.1304759,0.060468 0.2555803,0.1343738 0.1251044,0.073905 0.2485563,0.1443728 0.2743375,0.156594 0.025781,0.012221 0.089062,0.049081 0.140625,0.08191 0.051563,0.032829 0.1710937,0.099329 0.265625,0.1477772 0.094531,0.048448 0.1789062,0.095261 0.1875,0.1040288 0.00859,0.00877 0.085937,0.051778 0.171875,0.095578 l 0.15625,0.079636 0.00801,2.4125508 c 0.0044,1.326903 -0.00263,2.411648 -0.015625,2.410545 -0.012997,-0.0011 -0.083215,-0.04035 -0.15604,-0.08723 z m 0.5306544,-2.323319 0.00801,-2.4125506 0.15625,-0.079636 C 5.4453167,7.9889624 5.5233531,7.9428014 5.5327928,7.930183 5.5477578,7.910179 5.6934456,7.8284724 5.9294484,7.7077252 5.9679864,7.6880082 5.9996264,7.6613282 5.9997604,7.6484382 5.9998812,7.6355469 6.0163422,7.625 6.0363159,7.625 6.0665862,7.625 6.2513,7.5226191 6.6399872,7.2904044 6.6747131,7.2696581 6.73125,7.2378084 6.765625,7.2196278 6.8,7.2014472 6.8703125,7.1594212 6.921875,7.1262372 6.9734375,7.0930531 7.0789062,7.0335094 7.15625,6.9939178 7.233594,6.9543258 7.3045984,6.9115958 7.3140381,6.8989618 7.3290031,6.8789338 7.4745584,6.7972899 7.7106937,6.6764749 c 0.038538,-0.019717 0.070178,-0.046397 0.070312,-0.059287 1.25e-4,-0.012891 0.017822,-0.023464 0.039306,-0.023497 0.021484,-3.12e-5 0.1515625,-0.067597 0.2890625,-0.1501437 0.1375,-0.082546 0.2710938,-0.1600182 0.296875,-0.1721594 0.025781,-0.012142 0.089063,-0.050004 0.140625,-0.084139 0.051562,-0.034135 0.1324219,-0.077543 0.1796875,-0.096463 0.047266,-0.01892 0.086099,-0.043571 0.086296,-0.05478 1.875e-4,-0.011209 0.059963,-0.048292 0.1328125,-0.082407 0.07285,-0.034115 0.1394853,-0.069557 0.1480791,-0.078761 0.00859,-0.0092 0.057813,-0.037091 0.109375,-0.061971 0.051562,-0.02488 0.1042969,-0.050375 0.1171875,-0.056656 0.012891,-0.00628 0.023437,1.0563232 0.023437,2.3613416 0,2.2590046 -0.00274,2.3752406 -0.057148,2.4244796 -0.031432,0.02844 -0.072615,0.05172 -0.091518,0.05172 -0.018904,0 -0.052952,0.01761 -0.075664,0.03914 -0.022712,0.02153 -0.097545,0.06723 -0.1662947,0.101562 -0.06875,0.03433 -0.1362456,0.08 -0.1499903,0.101487 -0.013745,0.02149 -0.044381,0.03906 -0.06808,0.03906 -0.0237,0 -0.061673,0.01768 -0.084385,0.03929 -0.022712,0.02161 -0.1008991,0.06731 -0.1737488,0.101563 -0.07285,0.03425 -0.1326153,0.07282 -0.1328125,0.08571 -1.875e-4,0.01289 -0.015199,0.02344 -0.033338,0.02344 -0.018139,0 -0.3392084,0.182812 -0.7134881,0.40625 -0.3742794,0.223437 -0.6969384,0.40625 -0.71702,0.40625 -0.020082,0 -0.036512,0.01406 -0.036512,0.03125 0,0.01719 -0.015044,0.03125 -0.033432,0.03125 -0.018388,0 -0.094595,0.04208 -0.1693497,0.09351 -0.078693,0.05414 -0.1407112,0.07913 -0.1473034,0.05936 -0.00712,-0.02135 -0.051993,-0.0096 -0.1197131,0.03147 -0.05958,0.03609 -0.1469988,0.08107 -0.1942644,0.09995 -0.047266,0.01888 -0.085937,0.04701 -0.085937,0.06252 0,0.01551 -0.01454,0.02819 -0.03231,0.02819 -0.04905,0 -0.5298113,0.29309 -0.5300131,0.323116 -2.5e-4,0.03522 -0.1318032,0.143289 -0.1760378,0.144594 -0.01938,5.72e-4 -0.052742,0.02213 -0.074139,0.04791 -0.021397,0.02578 -0.05133,0.04687 -0.066519,0.04687 -0.015819,0 -0.024197,-1.030596 -0.019611,-2.412551 z"
       id="path823"
       inkscape:connector-curvature="0" />
    <path
       style="fill:#6598cb;stroke-width:0.000357143"
       d="m 10.664465,12.848268 c -0.07282,-0.04687 -0.150168,-0.107057 -0.171875,-0.133747 -0.0371,-0.04562 -0.350069,-0.245771 -0.384305,-0.245771 -0.0087,0 -0.07526,-0.0378 -0.1479684,-0.08401 C 9.8876116,12.33854 9.7380075,12.253534 9.6278638,12.195844 9.51772,12.138154 9.3889866,12.063457 9.3417897,12.02985 c -0.047197,-0.03361 -0.10122,-0.0611 -0.1200513,-0.0611 -0.018831,0 -0.0344,-0.01055 -0.034597,-0.02344 C 9.1869539,11.93242 9.1271784,11.89396 9.0543289,11.85984 8.9814789,11.82573 8.9148436,11.78922 8.9062498,11.77873 8.8861458,11.75417 8.727712,11.668921 8.6171873,11.623189 c -0.047266,-0.01956 -0.085937,-0.0466 -0.085937,-0.06011 0,-0.0135 -0.02954,-0.03227 -0.065644,-0.04171 -0.07035,-0.0184 -0.054258,-0.08387 0.020614,-0.08387 0.024767,0 0.045031,-0.01406 0.045031,-0.03125 0,-0.01719 0.016163,-0.03125 0.035917,-0.03125 0.064998,0 1.0809294,-0.621177 1.100855,-0.673103 C 9.6787347,10.67398 9.6875,9.9421322 9.6875,9.0755691 9.6875,8.2090063 9.6940981,7.5 9.7021628,7.5 c 0.017753,0 0.2155559,0.1074006 0.3447122,0.1871672 0.05156,0.031845 0.171094,0.097539 0.265625,0.1459878 0.09453,0.048448 0.178906,0.095261 0.1875,0.1040287 0.0086,0.00877 0.08594,0.051778 0.171875,0.095578 l 0.15625,0.079636 0.008,2.4125503 c 0.0044,1.326903 -0.0026,2.411648 -0.01563,2.410545 -0.013,-0.0011 -0.08321,-0.04035 -0.15604,-0.08723 z m 0.530655,-2.323319 0.008,-2.4125506 0.15625,-0.079636 c 0.08594,-0.0438 0.163973,-0.089961 0.173413,-0.1025794 0.01497,-0.020004 0.160653,-0.1017106 0.396656,-0.2224578 0.03854,-0.019717 0.07018,-0.046397 0.07031,-0.059287 1.25e-4,-0.012891 0.01659,-0.023437 0.03656,-0.023437 0.03027,0 0.214984,-0.1023809 0.603671,-0.3345956 0.03473,-0.020746 0.09126,-0.052596 0.125638,-0.070777 0.03438,-0.018181 0.104688,-0.060207 0.15625,-0.093391 0.05156,-0.033184 0.157031,-0.092728 0.234375,-0.1323194 0.07734,-0.039592 0.148348,-0.082322 0.157788,-0.094956 0.01497,-0.020028 0.16052,-0.1016719 0.396656,-0.2224869 0.03854,-0.019717 0.07018,-0.046397 0.07031,-0.059287 1.25e-4,-0.012891 0.01782,-0.023464 0.03931,-0.023497 0.02149,-3.12e-5 0.151563,-0.067597 0.289063,-0.1501437 0.1375,-0.082546 0.271094,-0.1600182 0.296875,-0.1721594 0.02578,-0.012142 0.08906,-0.050004 0.140625,-0.084139 0.05156,-0.034135 0.132422,-0.077543 0.179687,-0.096463 0.04727,-0.01892 0.0861,-0.043571 0.0863,-0.05478 1.88e-4,-0.011209 0.05996,-0.048292 0.132813,-0.082407 0.07285,-0.034115 0.139485,-0.069557 0.148079,-0.078761 0.0086,-0.0092 0.05781,-0.037091 0.109375,-0.061971 0.05156,-0.02488 0.104297,-0.050375 0.117187,-0.056656 0.01289,-0.00628 0.02344,1.0563232 0.02344,2.3613416 0,2.2590042 -0.0027,2.3752402 -0.05715,2.4244792 -0.03143,0.02844 -0.07262,0.05172 -0.09152,0.05172 -0.0189,0 -0.05295,0.01761 -0.07566,0.03914 -0.02271,0.02153 -0.09755,0.06723 -0.166295,0.101562 -0.06875,0.03433 -0.136246,0.08 -0.14999,0.101487 -0.01375,0.02149 -0.04438,0.03906 -0.06808,0.03906 -0.0237,0 -0.06167,0.01768 -0.08438,0.03929 -0.02271,0.02161 -0.100899,0.06731 -0.173749,0.101563 -0.07285,0.03425 -0.132615,0.07282 -0.132813,0.08571 -1.87e-4,0.01289 -0.0152,0.02344 -0.03334,0.02344 -0.01814,0 -0.339208,0.182812 -0.713488,0.40625 -0.374279,0.223437 -0.696938,0.40625 -0.71702,0.40625 -0.02008,0 -0.03651,0.01406 -0.03651,0.03125 0,0.01719 -0.01504,0.03125 -0.03343,0.03125 -0.01839,0 -0.09459,0.04208 -0.16935,0.09351 -0.07869,0.05414 -0.140711,0.07913 -0.147303,0.05936 -0.0071,-0.02135 -0.05199,-0.0096 -0.119713,0.03147 -0.05958,0.03609 -0.146999,0.08107 -0.194264,0.09995 -0.04727,0.01888 -0.08594,0.04701 -0.08594,0.06252 0,0.01551 -0.01454,0.02819 -0.03231,0.02819 -0.04905,0 -0.529812,0.29309 -0.530013,0.323116 -2.5e-4,0.03522 -0.131804,0.143289 -0.176038,0.144594 -0.01938,5.72e-4 -0.05274,0.02213 -0.07414,0.04791 -0.0214,0.02578 -0.05133,0.04687 -0.06652,0.04687 -0.01582,0 -0.0242,-1.030596 -0.01961,-2.412551 z"
       id="path821"
       inkscape:connector-curvature="0" />
    <path
       style="fill:#000000;stroke-width:0.000357143"
       d="M 4.8854706,13.397977 C 3.3935622,12.527901 1.8871318,11.677268 0.41211999,10.780015 c -0.15017077,-0.166211 -0.0296457,-0.450195 -0.06837,-0.664894 0,-1.5784558 0,-3.1569115 0,-4.7353672 C 0.87670774,4.988917 1.4492263,4.7120745 1.9944197,4.3516383 2.9878927,3.7869336 3.9526135,3.1616426 4.9453817,2.6139349 5.5598774,2.7514697 6.090623,3.2382928 6.6730563,3.5172649 7.153275,3.756952 7.6225939,4.136229 8.1056648,4.3031447 9.0474978,3.7287523 9.9913515,3.149278 10.945375,2.6139349 c 0.614495,0.1375346 1.145239,0.6243595 1.727673,0.90333 0.987544,0.5815754 1.987965,1.1357753 2.952477,1.7510694 0.122877,0.6025971 0.02486,1.2725053 0.06056,1.8996935 -0.0027,1.1779073 0.0092,2.356294 -0.01811,3.5338732 -0.652446,0.466815 -1.356718,0.814226 -2.025614,1.235602 -0.841737,0.47591 -1.656692,0.986987 -2.496626,1.460471 C 10.510886,13.36281 9.9827954,12.786289 9.3875311,12.531592 8.9328686,12.260807 8.434042,11.984916 8.0038335,11.725992 7.0424545,12.271773 6.1043896,12.85294 5.1457789,13.397966 l -0.1301544,0.0386 -0.1301544,-0.0386 z m -0.04934,-2.873028 C 4.8334619,9.7207655 4.8307934,8.9165819 4.828125,8.1123984 3.4365329,7.3591768 2.0908531,6.5663437 0.70611587,5.8125 c -0.02257,1.5419938 -0.0370241,3.0861805 0.005129,4.627761 C 1.1044373,10.856792 1.7601185,11.064003 2.25,11.40591 c 0.7459125,0.438287 1.5163336,0.837275 2.2425904,1.308609 0.6022294,0.604636 0.2474935,-0.695739 0.3444849,-1.042293 7.546e-4,-0.382425 3.103e-4,-0.764861 -9.45e-4,-1.147277 z M 5.28125,12.890625 C 5.7222957,12.52441 6.2327026,12.245135 6.7467807,12.027469 7.5761247,11.539909 8.448601,11.041577 9.2866015,10.542027 9.4005407,9.746842 9.318369,8.9239198 9.3437495,8.1175475 9.3391762,7.3305019 9.3497835,6.5426609 9.3203125,5.7562059 7.9336475,6.5156364 6.5835101,7.3425137 5.2031251,8.1123972 c 0.00236,1.6082885 -0.031642,3.2175938 0.011601,4.8251018 l 0.066519,-0.04687 z m 5.55488,-2.365676 c -0.0027,-0.8041835 -0.0053,-1.6083671 -0.008,-2.4125506 C 10.46061,7.9913866 9.8909942,7.4410199 9.6964694,7.6243223 c -0.021009,1.0257071 0.00769,2.0522347 -0.028447,3.0775747 -0.356783,0.321447 -0.929339,0.511006 -1.2394038,0.79861 0.7929759,0.483093 1.6349328,0.89604 2.3918858,1.434988 0.0269,-0.802788 0.01375,-1.60727 0.01563,-2.410546 z m 0.44512,2.365676 c 0.441045,-0.366218 0.951461,-0.645476 1.465531,-0.863155 0.829337,-0.487564 1.701817,-0.985889 2.539812,-1.485443 0.113943,-0.7951841 0.03177,-1.6181073 0.05715,-2.4244795 -0.0046,-0.7870456 0.006,-1.5748867 -0.02344,-2.3613416 -1.386667,0.7594235 -2.736799,1.5863025 -4.117176,2.3561913 0.0024,1.6082886 -0.03163,3.2175928 0.01161,4.8251018 l 0.06652,-0.04687 z M 5.125,7.734375 C 6.2764059,7.0554968 7.459912,6.4072221 8.59375,5.7269294 8.8920752,5.588042 9.4031346,5.3585739 8.7938341,5.1795237 7.8613163,4.6616493 6.9814657,4.0960445 6.0282263,3.6021294 5.4968991,3.1762423 4.8968915,2.9468118 4.359375,3.5001372 3.2484403,4.1328099 2.1308237,4.7677411 1.0312505,5.4083562 0.85808989,5.670073 1.8061888,5.8985266 2.054382,6.1333578 3.0252892,6.6875206 4.0019902,7.2265411 4.965918,7.7761772 5.0209552,7.787044 5.0850141,7.7772392 5.125,7.734375 Z m 6,0 C 12.276403,7.0554947 13.459907,6.4072204 14.593748,5.72693 14.892072,5.5880423 15.403133,5.3585752 14.793833,5.179524 13.861316,4.6616491 12.981465,4.0960447 12.028226,3.6021286 11.496899,3.1762428 10.896893,2.9468114 10.359377,3.500137 9.7338982,3.8609573 9.0959234,4.2060461 8.4818269,4.5830906 c 0.4071743,0.3452493 1.3026734,0.4223791 1.1942737,1.0952855 0.012675,0.4640729 0.018203,0.9283006 0.027024,1.3924555 0.457131,0.2131498 0.855982,0.5268663 1.320921,0.7087596 l 0.05744,-0.014351 0.0435,-0.030864 z"
       id="path819"
       inkscape:connector-curvature="0" />
  </g>
</svg>
