<?xml version="1.0" encoding="UTF-8" standalone="no"?>
<!-- Created with Inkscape (http://www.inkscape.org/) -->

<svg
   version="1.1"
   id="svg2"
   width="1600"
   height="1600"
   viewBox="0 0 1600 1600"
   sodipodi:docname="prop_projected.svg"
   inkscape:version="1.2.2 (732a01da63, 2022-12-09)"
   xmlns:inkscape="http://www.inkscape.org/namespaces/inkscape"
   xmlns:sodipodi="http://sodipodi.sourceforge.net/DTD/sodipodi-0.dtd"
   xmlns="http://www.w3.org/2000/svg"
   xmlns:svg="http://www.w3.org/2000/svg"
   xmlns:rdf="http://www.w3.org/1999/02/22-rdf-syntax-ns#"
   xmlns:cc="http://creativecommons.org/ns#"
   xmlns:dc="http://purl.org/dc/elements/1.1/">
  <metadata
     id="metadata8">
    <rdf:RDF>
      <cc:Work
         rdf:about="">
        <dc:format>image/svg+xml</dc:format>
        <dc:type
           rdf:resource="http://purl.org/dc/dcmitype/StillImage" />
      </cc:Work>
    </rdf:RDF>
  </metadata>
  <defs
     id="defs6" />
  <sodipodi:namedview
     pagecolor="#808080"
     bordercolor="#666666"
     borderopacity="1"
     objecttolerance="10"
     gridtolerance="10"
     guidetolerance="10"
     inkscape:pageopacity="0"
     inkscape:pageshadow="2"
     inkscape:window-width="1993"
     inkscape:window-height="1009"
     id="namedview4"
     showgrid="false"
     inkscape:zoom="0.5"
     inkscape:cx="245"
     inkscape:cy="152"
     inkscape:window-x="-8"
     inkscape:window-y="-8"
     inkscape:window-maximized="1"
     inkscape:current-layer="PROP_PROJECTED"
     inkscape:showpageshadow="0"
     inkscape:pagecheckerboard="true"
     inkscape:deskcolor="#d1d1d1" />
  <g
     id="PROP_PROJECTED"
     transform="matrix(100,0,0,100,0,4.9999997e-5)"
     style="stroke-width:0.0114286">
    <path
       style="fill:none;stroke-width:0.000357143"
       d="M 0,8 V 0 h 8 8 v 8 8 H 8 0 Z m 15,6.5 V 14 l -3.664062,-2.5e-4 C 9.0885484,13.999594 7.5631325,13.987343 7.390625,13.968066 6.6800356,13.888664 6.0407,13.706642 5.4107991,13.404399 2.6903246,12.09904 1.3636138,8.9943944 2.3017053,6.1287797 3.0344203,3.8905341 5.0130828,2.29761 7.390625,2.0319401 7.5631325,2.0126638 9.0885484,2.0004137 11.335938,2.0002564 L 15,2 V 1.4988438 0.99768759 l -3.867187,0.0100808 c -3.8202727,0.00996 -3.8717374,0.01091 -4.242188,0.078434 -0.7864728,0.1433554 -1.3242138,0.3178452 -2,0.6489734 C 3.0823045,2.6212346 1.7104422,4.3165141 1.2219136,6.2687884 1.0560565,6.9315919 1.0169904,7.2616262 1.0169904,8 c 0,0.7383738 0.039066,1.0684081 0.2049232,1.7312116 0.7163418,2.8626684 3.229188,4.9894524 6.1999614,5.2474274 0.06875,0.006 1.8019531,0.01322 3.851563,0.01611 L 15,15 Z m 0,-2.4991 V 11 H 11.5 C 9.575,11 8,10.988281 8,10.973958 c 0,-0.01432 -0.017578,-0.02741 -0.039063,-0.02908 -0.5016088,-0.03899 -0.6123959,-0.05616 -0.7561041,-0.117201 -0.067811,-0.0288 -0.14867,-0.05806 -0.1796875,-0.06503 -0.031018,-0.007 -0.086271,-0.01922 -0.1227862,-0.02724 -0.036514,-0.008 -0.099796,-0.03647 -0.140625,-0.06322 -0.040829,-0.02675 -0.074235,-0.04026 -0.074235,-0.03003 0,0.01024 -0.037053,-0.01053 -0.082339,-0.04615 -0.045286,-0.03562 -0.096139,-0.06477 -0.1130047,-0.06477 -0.016866,0 -0.1201365,-0.07031 -0.22949,-0.15625 -0.1093534,-0.08594 -0.2124731,-0.15625 -0.2291547,-0.15625 -0.016682,0 -0.069617,-0.05273 -0.1176337,-0.117187 C 5.8678606,10.037109 5.7610762,9.9020647 5.6785791,9.8014631 5.2471294,9.2753312 4.9716522,8.3583206 5.0585159,7.7373916 5.2089878,6.6617694 5.7845697,5.8271791 6.6874122,5.3755012 7.0397022,5.1992559 7.2112562,5.1466637 7.7066547,5.0630384 8.0630028,5.0028856 8.2190169,5.0003262 11.539063,5.0001666 L 15,5 V 4 3 H 11.436268 C 9.0959209,3 7.7683641,3.0115699 7.5690809,3.0337033 6.8635053,3.112068 6.3203159,3.2728569 5.7180941,3.5816119 4.7968628,4.0539206 4.0539206,4.7968628 3.5816119,5.7180941 3.2619306,6.3416275 3.1031133,6.8926159 3.0271802,7.6415966 2.9694425,8.2111034 3.065223,8.9438944 3.2823391,9.59375 c 0.1205125,0.3607088 0.4129878,0.944129 0.62022,1.237194 0.2132459,0.30157 0.7213871,0.892146 0.7515678,0.873493 0.013761,-0.0085 0.051509,0.01387 0.083884,0.04972 0.075505,0.08361 0.4356991,0.370841 0.4650482,0.370841 0.012277,0 0.07708,0.04337 0.1440065,0.09638 0.066926,0.05301 0.1216844,0.08721 0.1216844,0.076 0,-0.01121 0.042187,0.0097 0.09375,0.04638 0.051563,0.03672 0.09375,0.05781 0.09375,0.04687 0,-0.01093 0.042695,0.01052 0.094877,0.04768 0.052182,0.03716 0.1133519,0.07027 0.1359322,0.07358 0.02258,0.0033 0.078323,0.03044 0.1238728,0.06029 0.04555,0.02984 0.082818,0.04655 0.082818,0.03712 0,-0.0094 0.042187,0.0047 0.09375,0.03133 0.051563,0.02666 0.09375,0.04159 0.09375,0.03316 0,-0.0084 0.063281,0.01181 0.140625,0.04496 0.077344,0.03315 0.140625,0.05339 0.140625,0.04496 0,-0.0084 0.040405,0.0056 0.089788,0.03111 0.049383,0.02554 0.096652,0.03957 0.105041,0.03118 0.00839,-0.0084 0.052727,-10e-4 0.098528,0.01641 0.045801,0.01741 0.1215797,0.03946 0.1683966,0.04898 0.087645,0.01783 0.1292346,0.02319 0.4757462,0.06123 0.1117188,0.01227 0.2081416,0.0271 0.2142731,0.03296 0.00613,0.0059 1.6479285,0.01191 3.6484381,0.01343 L 15,13.001799 Z M 8.421875,9.9531453 C 9.1647875,9.7977041 9.7977041,9.1647875 9.9531453,8.421875 10.250266,7.0018228 8.9981772,5.7497344 7.578125,6.0468547 7.0106991,6.1655784 6.4780709,6.5774881 6.2230478,7.0948078 c -0.2954,0.5992253 -0.2954,1.2111591 0,1.8103844 0.3931413,0.7974956 1.3092084,1.2340898 2.1988272,1.0479531 z"
       id="path823"
       inkscape:connector-curvature="0" />
    <path
       style="fill:#fefefe;stroke-width:0.000357143"
       d="M 7.421875,14.978639 C 4.4511016,14.720664 1.9382554,12.59388 1.2219136,9.7312116 1.0560565,9.0684081 1.0169904,8.7383737 1.0169904,8 c 0,-0.7383738 0.039066,-1.0684081 0.2049232,-1.7312116 0.4885286,-1.9522743 1.8603909,-3.6475538 3.6687114,-4.5336121 0.6757862,-0.3311282 1.2135272,-0.505618 2,-0.6489734 0.3704506,-0.067524 0.4219153,-0.068476 4.242188,-0.078434 L 15,0.99768759 V 1.4988438 2 l -3.664062,2.563e-4 C 9.0885484,2.0004125 7.5631325,2.0126637 7.390625,2.0319399 5.2802159,2.26776 3.5027213,3.5202898 2.595607,5.4107989 1.8031267,7.0624002 1.8027577,8.9367786 2.5945876,10.587092 c 0.6016763,1.254 1.5635429,2.216239 2.8162113,2.817301 0.629901,0.302242 1.2692366,0.484265 1.979826,0.563667 0.1725075,0.01928 1.6979234,0.03153 3.9453121,0.03168 L 15,14 V 14.5 15 L 11.273438,14.9947 C 9.2238281,14.9918 7.490625,14.98456 7.421875,14.97859 Z m 0.2923981,-1.993047 c -0.00613,-0.0059 -0.1025544,-0.0207 -0.2142731,-0.03296 -0.3465116,-0.03805 -0.3881016,-0.0434 -0.4757463,-0.06123 -0.046817,-0.0095 -0.1225953,-0.03157 -0.1683965,-0.04898 -0.045801,-0.01741 -0.090139,-0.0248 -0.098528,-0.01641 -0.00839,0.0084 -0.055658,-0.0056 -0.105041,-0.03118 -0.049383,-0.02554 -0.089788,-0.03954 -0.089788,-0.03111 0,0.0084 -0.063281,-0.01181 -0.140625,-0.04496 -0.077344,-0.03315 -0.140625,-0.05339 -0.140625,-0.04496 0,0.0084 -0.042187,-0.0065 -0.09375,-0.03316 -0.051563,-0.02666 -0.09375,-0.04076 -0.09375,-0.03133 0,0.0094 -0.037268,-0.0073 -0.082818,-0.03712 -0.04555,-0.02985 -0.1012925,-0.05698 -0.1238728,-0.06029 -0.02258,-0.0033 -0.08375,-0.03643 -0.1359322,-0.07358 -0.052182,-0.03716 -0.094877,-0.05861 -0.094877,-0.04768 0,0.01093 -0.042187,-0.01016 -0.09375,-0.04687 -0.051563,-0.03672 -0.09375,-0.05758 -0.09375,-0.04638 0,0.01121 -0.054758,-0.02299 -0.1216844,-0.076 C 5.2801391,12.168369 5.2153359,12.125 5.2030591,12.125 5.17371,12.125 4.8135159,11.837772 4.7380109,11.754159 4.7056359,11.718307 4.6678878,11.695933 4.6541269,11.704437 4.6239463,11.72309 4.115805,11.132514 3.9025591,10.830944 3.2844456,9.9568153 2.925167,8.6478231 3.0271802,7.6415966 3.1031132,6.8926159 3.2619306,6.3416275 3.5816119,5.7180941 4.0539206,4.7968628 4.7968628,4.0539206 5.7180941,3.5816119 6.3203159,3.2728569 6.8635053,3.112068 7.5690809,3.0337033 7.7683641,3.0115699 9.0959209,3 11.436268,3 H 15 v 1 1 l -3.460937,1.562e-4 C 8.2190169,5.0003125 8.0630028,5.002875 7.7066547,5.0630281 7.2112562,5.1466534 7.0397022,5.1992456 6.6874122,5.3754909 5.7845697,5.8271687 5.2089878,6.6617591 5.0585159,7.7373812 c -0.086864,0.6209291 0.1886135,1.5379397 0.6200632,2.0640716 0.082497,0.1006016 0.1892815,0.2356462 0.2372984,0.3000992 0.048017,0.06445 0.1009519,0.117188 0.1176338,0.117188 0.016681,0 0.1198012,0.07031 0.2291546,0.15625 0.1093535,0.08594 0.2126241,0.15625 0.22949,0.15625 0.016866,0 0.067718,0.02914 0.1130047,0.06477 0.045287,0.03562 0.082339,0.05639 0.082339,0.04616 0,-0.01024 0.033406,0.0033 0.074235,0.03003 0.040829,0.02675 0.1041106,0.0552 0.140625,0.06322 0.036515,0.008 0.091768,0.02027 0.1227862,0.02723 0.031017,0.007 0.1118769,0.03622 0.1796875,0.06503 0.1437082,0.06104 0.2544954,0.07821 0.7561041,0.1172 C 7.9824219,10.946539 8,10.959625 8,10.973948 8,10.988281 9.575,11 11.5,11 H 15 v 1.0009 1.000899 l -3.637289,-0.0028 c -2.0005094,-0.0015 -3.6423063,-0.0076 -3.6484379,-0.01343 z"
       id="path821"
       inkscape:connector-curvature="0" />
    <path
       style="fill:#fefe00;stroke-width:0.000357143"
       d="M 7.5625,9.9514053 C 6.8323191,9.7945809 6.2007041,9.1571794 6.0468547,8.421875 5.7497344,7.0018228 7.0018228,5.7497344 8.421875,6.0468547 9.1647875,6.2022959 9.7977041,6.8352125 9.9531453,7.578125 10.251335,9.0032863 8.9878991,10.257545 7.5625,9.9514053 Z"
       id="path819"
       inkscape:connector-curvature="0" />
  </g>
</svg>
