<?xml version="1.0" encoding="UTF-8" standalone="no"?>
<!-- Created with Inkscape (http://www.inkscape.org/) -->

<svg
   version="1.1"
   id="svg2"
   width="1600"
   height="1600"
   viewBox="0 0 1600 1600"
   sodipodi:docname="propagate_marker.svg"
   inkscape:version="1.2.2 (732a01da63, 2022-12-09)"
   xmlns:inkscape="http://www.inkscape.org/namespaces/inkscape"
   xmlns:sodipodi="http://sodipodi.sourceforge.net/DTD/sodipodi-0.dtd"
   xmlns="http://www.w3.org/2000/svg"
   xmlns:svg="http://www.w3.org/2000/svg"
   xmlns:rdf="http://www.w3.org/1999/02/22-rdf-syntax-ns#"
   xmlns:cc="http://creativecommons.org/ns#"
   xmlns:dc="http://purl.org/dc/elements/1.1/">
  <metadata
     id="metadata8">
    <rdf:RDF>
      <cc:Work
         rdf:about="">
        <dc:format>image/svg+xml</dc:format>
        <dc:type
           rdf:resource="http://purl.org/dc/dcmitype/StillImage" />
      </cc:Work>
    </rdf:RDF>
  </metadata>
  <defs
     id="defs6" />
  <sodipodi:namedview
     pagecolor="#808080"
     bordercolor="#666666"
     borderopacity="1"
     objecttolerance="10"
     gridtolerance="10"
     guidetolerance="10"
     inkscape:pageopacity="0"
     inkscape:pageshadow="2"
     inkscape:window-width="1993"
     inkscape:window-height="1009"
     id="namedview4"
     showgrid="false"
     inkscape:zoom="0.5"
     inkscape:cx="227"
     inkscape:cy="118"
     inkscape:window-x="-8"
     inkscape:window-y="-8"
     inkscape:window-maximized="1"
     inkscape:current-layer="PROPAGATE_MARKER"
     inkscape:showpageshadow="0"
     inkscape:pagecheckerboard="true"
     inkscape:deskcolor="#d1d1d1" />
  <g
     id="PROPAGATE_MARKER"
     transform="matrix(100,0,0,100,0,4.9999997e-5)"
     style="stroke-width:0.0114286">
    <path
       style="fill:none;stroke-width:0.000357143"
       d="M 0,8 V 0 h 8 8 v 8 8 H 8 0 Z m 14.272299,6.898438 c 0.05338,-0.05586 0.114618,-0.161329 0.136077,-0.234375 0.02146,-0.07305 0.05788,-0.132813 0.08095,-0.132813 0.06572,0 0.05872,-0.906401 -0.0086,-1.111621 -0.04585,-0.139813 -0.222218,-0.326062 -1.913965,-2.021191 L 10.70332,9.53125 h 0.395575 0.395575 l 0.01058,0.3415703 c 0.0089,0.2858367 0.02109,0.3556337 0.07501,0.4277567 0.140342,0.18773 0.328659,0.260616 0.560822,0.217062 0.119174,-0.02236 3.12563,-2.0044284 3.255478,-2.1462443 0.179921,-0.1965041 0.179921,-0.5150353 0,-0.7115394 C 15.266512,7.5180394 12.260056,5.5359678 12.140882,5.5136106 11.908719,5.4700566 11.720402,5.5429436 11.58006,5.7306731 11.52614,5.8027961 11.5139,5.8725934 11.50505,6.1584297 L 11.49447,6.5 H 10.00661 C 9.0404369,6.5 8.52943,6.48932 8.5492097,6.46954 8.6318527,6.386897 10.862155,4.6894735 10.879787,4.6958003 c 0.01123,0.00403 0.0959,0.1057619 0.188158,0.2260744 0.09226,0.1203125 0.21667,0.2441381 0.276464,0.2751681 0.140257,0.072786 0.404993,0.057688 0.522143,-0.029777 C 12.046838,5.032663 12.032959,5.0663293 12.611908,3.3593752 13.309506,1.302605 13.300323,1.3371823 13.20778,1.1156958 13.14948,0.9761522 12.962185,0.81996323 12.821516,0.79357351 c -0.108415,-0.0203387 -0.656324,0.009167 -1.540266,0.0829466 -0.197656,0.0164976 -0.736935,0.0516568 -1.198396,0.0781316 C 9.6213919,0.98112641 9.1713919,1.0163565 9.0828537,1.0329406 8.8326506,1.0798066 8.6710047,1.2286133 8.6360037,1.4442992 8.6051517,1.6344194 8.6488007,1.760309 8.8291553,2.0013775 8.9676775,2.1865305 8.9933506,2.238748 8.9614531,2.2704615 8.939685,2.2921035 8.3114428,2.7783034 7.5653591,3.3509056 6.8192753,3.9235075 6.1809837,4.429315 6.1469331,4.4749222 6.0652687,4.5843025 6.0427278,4.8296856 6.1014369,4.9701963 6.1464362,5.0778947 7.2337362,6.5191247 7.4107944,6.7057666 l 0.091442,0.096391 0.00669,1.206006 c 0.00646,1.1638493 0.00895,1.2090221 0.071125,1.2923025 0.1595525,0.2137003 0.1618469,0.2142203 0.9907497,0.22459 L 9.324688,9.5344861 7.4628452,11.400055 C 5.7726091,13.093679 5.5963522,13.279819 5.5505034,13.419629 5.5124291,13.535733 5.5,13.698013 5.5,14.079029 c 0,0.557305 0.022113,0.666084 0.1665709,0.819409 L 5.7622603,15 H 9.96875 14.17524 Z M 4.734375,10.407018 C 5.1639862,10.270511 5.4259397,10.108177 5.7670581,9.7670581 6.1124716,9.4216447 6.2733859,9.1597463 6.4111553,8.71875 6.4747184,8.5152856 6.484375,8.4204931 6.484375,8 6.484375,7.4445966 6.4379812,7.2415591 6.2094631,6.796875 6.0277125,6.4431975 5.5568025,5.9722875 5.203125,5.7905369 4.7584409,5.5620187 4.5554034,5.515625 4,5.515625 3.4445966,5.515625 3.2415591,5.562019 2.796875,5.7905369 2.4431977,5.9722875 1.9722876,6.4431975 1.7905368,6.796875 1.5620187,7.2415591 1.515625,7.4445966 1.515625,8 c 0,0.5554034 0.046394,0.7584409 0.2749118,1.203125 0.1823761,0.3548944 0.6532106,0.825272 1.0063382,1.005363 0.4753194,0.242406 0.7023494,0.291706 1.28125,0.278225 0.3453037,-0.008 0.4835981,-0.02483 0.65625,-0.07969 z"
       id="path827"
       inkscape:connector-curvature="0" />
    <path
       style="fill:#fefefe;stroke-width:0.000357143"
       d="M 12,9.5348441 V 9.03125 H 10 8 V 8.015625 7 h 1.9992259 1.9992261 l 0.0086,-0.5000778 0.0086,-0.5000778 L 13.5,6.9880353 c 0.816406,0.543505 1.49523,0.9980666 1.508497,1.0101369 0.01798,0.01636 -1.887369,1.31001 -2.922559,1.98429 L 12,10.038438 Z M 3.5625,9.9514053 C 2.8323192,9.7945809 2.2007041,9.1571794 2.0468548,8.421875 1.7497342,7.0018228 3.0018229,5.7497344 4.421875,6.0468547 5.1647875,6.2022959 5.7977041,6.8352125 5.9531453,7.578125 6.2513347,9.0032863 4.9878991,10.257545 3.5625,9.9514053 Z M 7.1802016,5.573555 6.5657388,4.77211 6.9964184,4.4407425 C 7.2332922,4.2584903 7.9420878,3.715625 8.57152,3.234375 9.2009522,2.753125 9.7165738,2.3479495 9.7173459,2.3339849 9.7181178,2.3200203 9.5860069,2.136036 9.4237653,1.9251307 9.2615234,1.7142255 9.1455078,1.5405588 9.1659528,1.5392049 c 0.020445,-0.00135 0.1356097,-0.011363 0.2559222,-0.022242 0.1203125,-0.010879 0.33125,-0.025771 0.46875,-0.033094 0.1375,-0.00732 0.334375,-0.019957 0.4375,-0.028076 0.103125,-0.00812 0.328125,-0.023524 0.5,-0.034233 0.171875,-0.010708 0.403906,-0.02654 0.515625,-0.035182 0.111719,-0.00864 0.308594,-0.021072 0.4375,-0.027623 0.128906,-0.00655 0.332812,-0.020449 0.453125,-0.030884 0.36619,-0.03176 0.48772,-0.035241 0.500638,-0.014339 0.01459,0.0236 -0.08129,0.3395502 -0.15373,0.5066312 -0.02791,0.064371 -0.04827,0.1206211 -0.04524,0.125 0.003,0.00438 -0.02785,0.1063992 -0.06862,0.2267117 -0.04077,0.1203125 -0.07121,0.2292969 -0.06765,0.2421875 0.0036,0.012891 -0.0099,0.023437 -0.02998,0.023437 -0.02005,0 -0.02953,0.00693 -0.02106,0.015402 0.0085,0.00847 -0.03869,0.1737058 -0.104807,0.3671875 -0.06612,0.1934818 -0.124173,0.3658475 -0.129016,0.383035 -0.0048,0.017187 -0.04263,0.1296875 -0.08396,0.25 -0.04134,0.1203125 -0.07224,0.2292969 -0.06868,0.2421875 0.0036,0.012891 -0.0046,0.023437 -0.01807,0.023437 -0.01351,0 -0.0264,0.024609 -0.02866,0.054687 -0.0023,0.030078 -0.05482,0.1953125 -0.116794,0.3671875 -0.06198,0.171875 -0.116644,0.3265625 -0.121481,0.34375 -0.0048,0.017188 -0.02676,0.084191 -0.04873,0.1488959 L 11.5886,4.7509172 11.289383,4.3583769 C 11.112018,4.1256931 10.973994,3.9720428 10.950454,3.9810759 10.928612,3.9894575 10.213706,4.5315191 9.3617747,5.1856575 8.5098431,5.8397959 7.8087259,6.375 7.8037362,6.375 c -0.00499,0 -0.28558,-0.3606503 -0.6235346,-0.801445 z"
       id="path825"
       inkscape:connector-curvature="0" />
    <path
       style="fill:#fe9729;stroke-width:0.000357143"
       d="M 6.53125,13.882708 V 13.734166 L 8.2735416,11.992082 10.015833,10.249999 11.757917,11.992291 13.5,13.734582 v 0.148334 0.148334 H 10.015625 6.53125 Z"
       id="path823"
       inkscape:connector-curvature="0" />
    <path
       style="fill:#323232;stroke-width:0.000357143"
       d="M 11.796875,10.487136 C 11.571165,10.386819 11.5,10.228357 11.5,9.8260906 V 9.53125 H 11.102298 10.704595 L 10.48511,9.3161022 C 10.364393,9.1977706 10.223438,9.0863809 10.171875,9.0685691 c -0.06881,-0.023769 0.161702,-0.033041 0.866413,-0.034852 l 0.960164,-0.00247 0.0086,0.5000129 0.0086,0.500013 1.488326,-0.9922005 c 0.818552,-0.5457075 1.488298,-1.00626 1.488298,-1.0234475 0,-0.017188 -0.669746,-0.47774 -1.488325,-1.0234503 L 12.015625,5.9999744 12.007038,6.4999872 11.998452,7 H 9.9992259 8 V 8.015625 9.03125 L 8.9765625,9.03372 C 9.6925953,9.03553 9.9281141,9.044827 9.859375,9.068572 9.807813,9.086384 9.6661253,9.1985001 9.5445147,9.3177195 L 9.3234044,9.5344806 8.5701616,9.5250534 C 7.7419794,9.5146888 7.7395931,9.5141475 7.5800559,9.3004678 7.5178772,9.2171875 7.5153909,9.1720147 7.5089306,8.0081653 L 7.5022366,6.8021594 7.4107944,6.7057681 C 7.2337362,6.5191262 6.1464362,5.0778962 6.1014369,4.9701978 6.0427278,4.8296872 6.0652687,4.5843041 6.1469331,4.4749237 6.1809837,4.4293166 6.8192753,3.9235091 7.5653591,3.3509072 8.3114428,2.778305 8.939685,2.2921051 8.9614531,2.2704629 8.9933506,2.2387494 8.9676775,2.1865318 8.8291553,2.0013788 8.6488003,1.7603103 8.6051516,1.6344208 8.6360037,1.4443006 c 0.035001,-0.215686 0.1966469,-0.3644932 0.44685,-0.4113587 0.088538,-0.016584 0.5385382,-0.0518141 1.0000003,-0.0782888 0.461461,-0.0264763 1.00074,-0.0616356 1.198396,-0.0781332 0.883943,-0.0737793 1.431851,-0.10328535 1.540266,-0.0829466 0.140669,0.0263897 0.327959,0.18257869 0.386264,0.3221223 0.09254,0.2214865 0.101726,0.1869091 -0.595872,2.2436794 -0.578949,1.7069541 -0.56507,1.6732878 -0.745355,1.8078906 -0.117151,0.087466 -0.381887,0.1025635 -0.522144,0.029777 C 11.284615,5.1660131 11.160206,5.0421875 11.067945,4.921875 10.975684,4.8015625 10.891013,4.6998291 10.879787,4.6958006 10.862155,4.6894738 8.6318522,6.3868978 8.5492097,6.4695403 8.52943,6.48932 9.0404369,6.5 10.00661,6.5 h 1.48786 l 0.01058,-0.3415703 c 0.0089,-0.2858363 0.02109,-0.3556335 0.07501,-0.4277566 0.140342,-0.1877297 0.328659,-0.2606165 0.560822,-0.2170625 0.119174,0.022357 3.12563,2.0044288 3.255478,2.1462447 0.08678,0.094774 0.134894,0.2216803 0.134894,0.3557697 0,0.1341488 -0.04815,0.2610828 -0.134894,0.3555884 -0.08441,0.09197 -3.02501,2.0579456 -3.166728,2.1171596 -0.128437,0.05366 -0.310399,0.05314 -0.432753,-0.0012 z M 9.3617747,5.1856575 c 0.8519313,-0.6541384 1.5668373,-1.1962 1.5886793,-1.2045816 0.02354,-0.00903 0.161564,0.1446172 0.338929,0.377301 L 11.5886,4.7509172 11.62853,4.6332709 c 0.02196,-0.064705 0.04389,-0.1317084 0.04873,-0.1488959 0.0048,-0.017188 0.0595,-0.171875 0.121482,-0.34375 0.06198,-0.171875 0.114535,-0.3371094 0.116793,-0.3671875 0.0023,-0.030078 0.01516,-0.054687 0.02866,-0.054687 0.0135,0 0.02164,-0.010547 0.01807,-0.023437 -0.0036,-0.012891 0.02734,-0.121875 0.06868,-0.2421875 0.04134,-0.1203125 0.07912,-0.2328125 0.08396,-0.25 0.0048,-0.017187 0.0629,-0.1895532 0.129016,-0.383035 0.06611,-0.1934817 0.113278,-0.3587161 0.104807,-0.3671875 -0.0085,-0.00847 0.001,-0.015402 0.02106,-0.015402 0.02005,0 0.03354,-0.010547 0.02998,-0.023437 -0.0036,-0.012891 0.02688,-0.121875 0.06765,-0.2421875 0.04077,-0.1203125 0.07165,-0.2223328 0.06862,-0.2267117 -0.003,-0.00438 0.01733,-0.060629 0.04524,-0.125 0.07244,-0.167081 0.168316,-0.4830308 0.15373,-0.5066312 -0.01292,-0.020902 -0.134448,-0.017421 -0.500638,0.014339 -0.120313,0.010435 -0.324219,0.024333 -0.453125,0.030884 -0.128906,0.00655 -0.325781,0.018981 -0.4375,0.027623 -0.111719,0.00864 -0.34375,0.024474 -0.515625,0.035183 -0.171875,0.010709 -0.396875,0.026114 -0.5,0.034233 -0.103125,0.00812 -0.3,0.020754 -0.4375,0.028076 -0.1375,0.00732 -0.3484375,0.022215 -0.46875,0.033094 -0.1203125,0.010879 -0.2354775,0.020888 -0.2559222,0.022242 -0.020445,0.00135 0.095571,0.1750206 0.2578125,0.3859258 C 9.5860069,2.136036 9.7181181,2.3200203 9.7173459,2.3339849 9.7165738,2.3479495 9.2009522,2.753125 8.57152,3.234375 7.9420878,3.715625 7.2332922,4.2584903 6.9964184,4.4407425 L 6.5657387,4.77211 7.1802016,5.573555 C 7.5181562,6.0143497 7.7987469,6.375 7.8037362,6.375 c 0.00499,0 0.7061069,-0.5352041 1.5580385,-1.1893425 z M 3.5023497,10.467898 C 3.2677128,10.418682 3.0573695,10.341337 2.796875,10.208488 2.4437474,10.028397 1.9729129,9.5580194 1.7905368,9.203125 1.5620187,8.7584409 1.515625,8.5554034 1.515625,8 1.515625,7.4445966 1.562019,7.2415591 1.7905368,6.796875 1.9722876,6.4431975 2.4431977,5.9722875 2.796875,5.7905369 3.2415591,5.5620187 3.4445966,5.515625 4,5.515625 c 0.5554034,0 0.7584409,0.046394 1.203125,0.2749119 C 5.5568025,5.9722875 6.0277125,6.4431975 6.2094631,6.796875 6.4379812,7.2415591 6.484375,7.4445966 6.484375,8 c 0,0.5554034 -0.046394,0.7584409 -0.2749119,1.203125 -0.1818869,0.3539425 -0.6527809,0.824737 -1.0063381,1.006126 -0.4190266,0.214977 -0.625185,0.265823 -1.125,0.277462 -0.240625,0.0056 -0.4997241,-0.0029 -0.5757753,-0.01882 z M 4.421875,9.9531453 C 5.3214828,9.7649184 5.9989147,8.9259269 5.9989147,8 5.9989147,6.9092425 5.0907575,6.0010853 4,6.0010853 2.9092424,6.0010853 2.0010852,6.9092425 2.0010852,8 c 0,0.7407994 0.4388058,1.4538003 1.0937226,1.7771538 0.43249,0.2135343 0.8702025,0.2715822 1.3270672,0.1759915 z"
       id="path821"
       inkscape:connector-curvature="0" />
    <path
       style="fill:#000000;stroke-width:0.000357143"
       d="M 5.6665709,14.898438 C 5.5221128,14.745113 5.5,14.636334 5.5,14.079029 5.5,13.698032 5.51243,13.535727 5.5505,13.419629 5.596467,13.279447 5.7876375,13.078654 7.6805887,11.182324 9.4970781,9.3625922 9.7767122,9.0943938 9.8908709,9.0624313 10.169078,8.9845378 10.081128,8.908735 12.351783,11.183445 c 1.891907,1.895287 2.083,2.096003 2.128967,2.236184 0.06729,0.205224 0.07428,1.111621 0.0086,1.111621 -0.02306,0 -0.05949,0.05977 -0.08095,0.132813 -0.02146,0.07305 -0.08269,0.178515 -0.136077,0.234375 L 14.17524,15 H 9.96875 5.7622603 Z M 13.5,13.882916 V 13.734583 L 11.757917,11.992291 10.015833,10.249999 8.2735416,11.992083 6.53125,13.734166 v 0.148542 0.148542 H 10.015625 13.5 Z"
       id="path819"
       inkscape:connector-curvature="0" />
  </g>
</svg>
