<?xml version="1.0" encoding="UTF-8" standalone="no"?>
<!-- Created with Inkscape (http://www.inkscape.org/) -->

<svg
   version="1.1"
   id="svg2"
   width="1600"
   height="1600"
   viewBox="0 0 1600 1600"
   sodipodi:docname="prv_disc.svg"
   inkscape:version="1.2.2 (732a01da63, 2022-12-09)"
   xmlns:inkscape="http://www.inkscape.org/namespaces/inkscape"
   xmlns:sodipodi="http://sodipodi.sourceforge.net/DTD/sodipodi-0.dtd"
   xmlns="http://www.w3.org/2000/svg"
   xmlns:svg="http://www.w3.org/2000/svg"
   xmlns:rdf="http://www.w3.org/1999/02/22-rdf-syntax-ns#"
   xmlns:cc="http://creativecommons.org/ns#"
   xmlns:dc="http://purl.org/dc/elements/1.1/">
  <metadata
     id="metadata8">
    <rdf:RDF>
      <cc:Work
         rdf:about="">
        <dc:format>image/svg+xml</dc:format>
        <dc:type
           rdf:resource="http://purl.org/dc/dcmitype/StillImage" />
      </cc:Work>
    </rdf:RDF>
  </metadata>
  <defs
     id="defs6" />
  <sodipodi:namedview
     pagecolor="#808080"
     bordercolor="#666666"
     borderopacity="1"
     objecttolerance="10"
     gridtolerance="10"
     guidetolerance="10"
     inkscape:pageopacity="0"
     inkscape:pageshadow="2"
     inkscape:window-width="1993"
     inkscape:window-height="1009"
     id="namedview4"
     showgrid="false"
     inkscape:zoom="0.5"
     inkscape:cx="81"
     inkscape:cy="96"
     inkscape:window-x="-8"
     inkscape:window-y="-8"
     inkscape:window-maximized="1"
     inkscape:current-layer="DISC"
     fit-margin-top="0"
     fit-margin-left="0"
     fit-margin-right="0"
     fit-margin-bottom="0"
     inkscape:showpageshadow="0"
     inkscape:pagecheckerboard="true"
     inkscape:deskcolor="#d1d1d1" />
  <g
     id="DISC"
     transform="matrix(100,0,0,100,0,4.9999997e-5)"
     style="stroke-width:0.137143">
    <path
       style="fill:none;stroke-width:0.00428571"
       d="M 0,8 V 0 h 8 8 v 8 8 H 8 0 Z m 9.109375,6.909049 c 0.7544931,-0.127973 1.314626,-0.308399 2,-0.644225 1.808321,-0.886059 3.180183,-2.581338 3.668712,-4.5336124 C 14.943943,9.0684081 14.98301,8.7383738 14.98301,8 14.98301,7.2616262 14.94394,6.9315919 14.778087,6.2687884 14.163732,3.8136863 12.186314,1.8362677 9.7312116,1.2219136 9.0684081,1.0560565 8.7383737,1.0169904 8,1.0169904 c -0.7383738,0 -1.0684081,0.039066 -1.7312116,0.2049232 C 3.8136863,1.8362677 1.8362677,3.8136863 1.2219136,6.2687884 1.0560565,6.9315919 1.0169904,7.2616262 1.0169904,8 c 0,0.7383738 0.039066,1.0684081 0.2049232,1.7312116 0.6143541,2.4551024 2.5917727,4.4325204 5.0468748,5.0468754 0.3333582,0.08342 0.8063922,0.166584 1.1530866,0.202729 0.3141512,0.03275 1.3246525,-0.01022 1.6875,-0.07177 z M 7.5625,9.9514053 C 6.8323191,9.7945809 6.2007041,9.1571794 6.0468547,8.421875 5.7497344,7.0018228 7.0018228,5.7497344 8.421875,6.0468547 9.1647875,6.2022959 9.7977041,6.8352125 9.9531453,7.578125 10.251335,9.0032863 8.9878991,10.257545 7.5625,9.9514053 Z"
       id="path827"
       inkscape:connector-curvature="0" />
    <path
       style="fill:#fefefe;stroke-width:0.00428571"
       d="M 7.34375,13.967136 C 5.2424463,13.705429 3.4927706,12.460617 2.5958122,10.589201 2.1643311,9.6889578 1.9698261,8.7547034 2.0112171,7.78125 2.0218138,7.5320312 2.0393071,7.2700887 2.0500911,7.1991559 L 2.0696981,7.0701866 3.5311151,7.55708 4.992532,8.0439738 5.013208,8.2721363 c 0.1291384,1.4250921 1.2895638,2.5855177 2.7146559,2.7146557 l 0.2281625,0.02068 0.4870954,1.462022 0.4870953,1.462023 -0.113546,0.01767 c -0.2204584,0.03431 -1.241599,0.04676 -1.4729209,0.01795 z M 12.464675,8.44175 11.007476,7.9561138 10.986796,7.7279075 C 10.857653,6.3027697 9.6972491,5.1423481 8.2721363,5.0132078 L 8.0439738,4.9925322 7.55708,3.5311153 7.0701866,2.0696983 7.1991559,2.0500911 c 0.070933,-0.010784 0.3328753,-0.028277 0.5820941,-0.038874 1.8283684,-0.077742 3.625431,0.7183062 4.807097,2.1294079 0.965461,1.1529181 1.464222,2.6121419 1.399238,4.09375 -0.01131,0.2578125 -0.03072,0.5192088 -0.04313,0.5808806 l -0.02257,0.1121303 z"
       id="path825"
       inkscape:connector-curvature="0" />
    <path
       style="fill:#98cbfe;stroke-width:0.00428571"
       d="M 8.9207903,13.898438 C 8.8688903,13.760972 7.96875,11.043071 7.96875,11.023828 c 0,-0.0131 0.066797,-0.02432 0.1484375,-0.02492 0.081641,-6e-4 0.2609375,-0.02142 0.3984375,-0.04626 0.1375,-0.02484 0.2652459,-0.04545 0.2838797,-0.04579 0.018634,-3.38e-4 0.2295712,0.315962 0.46875,0.702891 0.2391787,0.386928 0.6009959,0.971974 0.8040383,1.300102 0.203043,0.328129 0.36226,0.603505 0.353817,0.611949 -0.04422,0.04422 -0.8284153,0.29263 -1.1039944,0.349715 -0.3732947,0.07733 -0.3820703,0.07791 -0.4013253,0.02692 z M 11.623177,12.57005 C 11.579207,12.48855 11.474613,12.309375 11.390751,12.171875 11.306888,12.034375 11.13105,11.746094 11,11.53125 10.512697,10.732365 10.454277,10.63461 10.303927,10.366509 l -0.153723,-0.274117 0.114823,-0.1270951 c 0.394928,-0.4371375 0.676178,-1.1116956 0.724247,-1.7370494 0.01097,-0.1427237 0.02842,-0.2594975 0.03877,-0.2594975 0.03744,0 2.863094,0.9458141 2.882505,0.9648428 0.03359,0.032933 -0.0943,0.5924003 -0.225916,0.9882822 -0.229324,0.689758 -0.593597,1.355509 -1.053781,1.925906 -0.213509,0.264644 -0.834329,0.871117 -0.891303,0.870706 -0.02003,-1.56e-4 -0.0724,-0.06694 -0.116372,-0.148437 z M 3.5,7.5495912 2.078125,7.0728659 2.0889369,6.9661203 C 2.1082402,6.7755409 2.2707691,6.1796137 2.3907827,5.859375 2.7129095,4.9998266 3.2009003,4.2609856 3.8718081,3.6170319 4.3111806,3.1953116 4.2873106,3.2015409 4.4239813,3.4729322 4.5297756,3.6830122 4.8679331,4.2543928 5.5711394,5.4112728 L 5.8686188,5.9006706 5.77532,5.9893978 C 5.6335575,6.1242141 5.358005,6.5537066 5.2491431,6.8095281 5.1197394,7.1136231 5.0350375,7.4554697 5.0107262,7.7717525 4.9985272,7.9304578 4.9773978,8.0302919 4.9563272,8.0287834 4.9373784,8.0274269 4.2820312,7.8117903 3.5,7.5495912 Z M 7.1042334,5.01808 C 7.0696869,4.9651672 6.77644,4.4789062 6.4525741,3.9375 6.1287081,3.3960938 5.7969566,2.8452592 5.7153484,2.7134233 5.5880541,2.5077822 5.5744231,2.4708211 5.6194225,2.4533095 6.1553431,2.2447547 7.0089728,2.0251105 7.0612303,2.0823233 7.0839309,2.1071762 8.03125,4.9291856 8.03125,4.9719559 c 0,0.010353 -0.1160156,0.028053 -0.2578125,0.039334 -0.1417969,0.011281 -0.3362428,0.03907 -0.4321022,0.061753 l -0.1742894,0.041242 z"
       id="path823"
       inkscape:connector-curvature="0" />
    <path
       style="fill:#cbcbcb;stroke-width:0.00428571"
       d="M 7.421875,14.980816 C 7.0751806,14.944671 6.6021466,14.861504 6.2687884,14.778087 3.8136863,14.163732 1.8362677,12.186314 1.2219136,9.7312116 1.0560565,9.0684081 1.0169904,8.7383737 1.0169904,8 c 0,-0.7383738 0.039066,-1.0684081 0.2049232,-1.7312116 C 1.8362677,3.8136863 3.8136863,1.8362677 6.2687884,1.2219136 6.9315919,1.0560565 7.2616262,1.0169904 8,1.0169904 c 0.7383738,0 1.0684081,0.039066 1.7312116,0.2049232 C 12.186314,1.8362677 14.163732,3.8136863 14.778087,6.2687884 14.943943,6.9315919 14.98301,7.2616263 14.98301,8 c 0,0.7383738 -0.03907,1.0684081 -0.204923,1.7312116 -0.488529,1.9522744 -1.860391,3.6475534 -3.668712,4.5336124 -0.997415,0.488723 -1.8652369,0.698733 -2.96875,0.718428 -0.3265625,0.0058 -0.65,0.0047 -0.71875,-0.0024 z m 1.3198169,-1.026814 c 0.5104278,-0.05387 0.8373653,-0.12571 1.2895581,-0.283374 2.156478,-0.751891 3.680351,-2.70807 3.935695,-5.0522089 C 14.178977,6.6719044 13.372044,4.6783719 11.859375,3.4116531 10.782992,2.5102827 9.3954394,2.0013762 8.0111503,2.0002564 7.6044778,1.9999274 6.8965328,2.0746607 6.5596581,2.1534813 4.8502506,2.5534413 3.3812238,3.7424056 2.6091409,5.3508519 1.8044271,7.0272772 1.799511,8.9300644 2.595607,10.589201 c 0.6010621,1.252668 1.5633008,2.214535 2.8173005,2.816211 1.0466187,0.502174 2.1092241,0.677293 3.3287844,0.54859 z M 7.4794241,10.955879 C 6.8391219,10.833644 6.2811547,10.532683 5.8413031,10.072296 5.46529,9.6787272 5.2067906,9.2066125 5.0721766,8.6675878 c -0.074223,-0.2972056 -0.074223,-1.03797 0,-1.3351756 0.2781153,-1.113636 1.08906,-1.9398303 2.2044978,-2.2459528 0.3439365,-0.094391 1.1027147,-0.094391 1.4466512,0 1.1154378,0.3061225 1.9263824,1.1323168 2.2044974,2.2459528 0.07422,0.2972056 0.07422,1.03797 0,1.3351756 -0.278246,1.1141594 -1.1034971,1.9538822 -2.2044974,2.2431562 -0.3109278,0.08169 -0.9339778,0.104299 -1.2439015,0.04514 z M 8.421875,9.9531453 C 9.1647875,9.7977041 9.7977041,9.1647875 9.9531453,8.421875 10.250266,7.0018228 8.9981772,5.7497344 7.578125,6.0468547 7.0106991,6.1655784 6.4780709,6.5774881 6.2230478,7.0948078 c -0.2954,0.5992253 -0.2954,1.2111591 0,1.8103844 0.3931413,0.7974956 1.3092084,1.2340898 2.1988272,1.0479531 z"
       id="path821"
       inkscape:connector-curvature="0" />
    <path
       style="fill:#0065fe;stroke-width:0.00428571"
       d="m 10.335237,13.335938 c -0.0573,-0.09023 -0.222968,-0.357542 -0.3681482,-0.594016 -0.14518,-0.236474 -0.4624144,-0.749755 -0.704965,-1.140625 l -0.4410013,-0.710672 0.081626,-0.02738 c 0.3981729,-0.133557 0.8304607,-0.382344 1.0961022,-0.63082 l 0.1507903,-0.141046 0.154004,0.274623 c 0.150622,0.26859 0.208999,0.366276 0.696355,1.165247 0.13105,0.214844 0.306811,0.503125 0.390579,0.640625 0.08377,0.1375 0.192167,0.322416 0.240886,0.410924 l 0.08858,0.160924 -0.117834,0.09287 C 11.345188,13.03915 10.55404,13.5 10.463323,13.5 c -0.01315,0 -0.07079,-0.07383 -0.128086,-0.164062 z M 5.6941366,5.6171875 C 5.6098506,5.4753906 5.3155622,4.9865097 5.0401628,4.530785 4.5067962,3.6481834 4.2992606,3.2654534 4.3284375,3.2182444 4.3898772,3.1188328 5.4423884,2.5 5.5500281,2.5 c 0.040214,0 0.096499,0.088945 0.7316947,1.15625 0.2301516,0.3867187 0.5215644,0.8702116 0.6475844,1.0744287 0.1260197,0.2042172 0.22512,0.3748644 0.2202225,0.3792163 C 7.1446297,5.114245 7.028125,5.162483 6.890625,5.2170869 6.5919475,5.3356975 6.2515925,5.5422028 6.0374394,5.7347447 5.9516409,5.8118853 5.8737787,5.875 5.8644128,5.875 c -0.00937,0 -0.08599,-0.1160156 -0.1702762,-0.2578125 z"
       id="path819"
       inkscape:connector-curvature="0" />
  </g>
</svg>
