<?xml version="1.0" encoding="UTF-8" standalone="no"?>
<!-- Created with Inkscape (http://www.inkscape.org/) -->

<svg
   version="1.1"
   id="svg2"
   width="1600"
   height="1600"
   viewBox="0 0 1600 1600"
   sodipodi:docname="push_pull.svg"
   inkscape:version="1.2.2 (732a01da63, 2022-12-09)"
   xmlns:inkscape="http://www.inkscape.org/namespaces/inkscape"
   xmlns:sodipodi="http://sodipodi.sourceforge.net/DTD/sodipodi-0.dtd"
   xmlns="http://www.w3.org/2000/svg"
   xmlns:svg="http://www.w3.org/2000/svg"
   xmlns:rdf="http://www.w3.org/1999/02/22-rdf-syntax-ns#"
   xmlns:cc="http://creativecommons.org/ns#"
   xmlns:dc="http://purl.org/dc/elements/1.1/">
  <metadata
     id="metadata8">
    <rdf:RDF>
      <cc:Work
         rdf:about="">
        <dc:format>image/svg+xml</dc:format>
        <dc:type
           rdf:resource="http://purl.org/dc/dcmitype/StillImage" />
      </cc:Work>
    </rdf:RDF>
  </metadata>
  <defs
     id="defs6" />
  <sodipodi:namedview
     pagecolor="#808080"
     bordercolor="#666666"
     borderopacity="1"
     objecttolerance="10"
     gridtolerance="10"
     guidetolerance="10"
     inkscape:pageopacity="0"
     inkscape:pageshadow="2"
     inkscape:window-width="1993"
     inkscape:window-height="1009"
     id="namedview4"
     showgrid="false"
     inkscape:zoom="0.5"
     inkscape:cx="153"
     inkscape:cy="132"
     inkscape:window-x="-8"
     inkscape:window-y="-8"
     inkscape:window-maximized="1"
     inkscape:current-layer="PUSH_PULL"
     inkscape:showpageshadow="0"
     inkscape:pagecheckerboard="true"
     inkscape:deskcolor="#d1d1d1" />
  <g
     id="PUSH_PULL"
     transform="matrix(100,0,0,100,0,4.9999997e-5)"
     style="stroke-width:0.0114286">
    <path
       style="fill:none;stroke-width:0.000357143"
       d="M 0,8 V 0 h 8 8 v 8 8 H 8 0 Z m 15.304052,6.448516 c 0.04549,-0.03396 0.111705,-0.100571 0.147142,-0.148015 0.06046,-0.08094 0.06442,-0.128024 0.0642,-0.763694 L 15.515162,12.859375 15.010207,10.375 C 14.732481,9.0085937 14.489071,7.8484375 14.469294,7.796875 14.365023,7.5250131 14.044535,7.3942047 13.772434,7.5124484 c -0.05531,0.024034 -0.367608,0.3123157 -0.694001,0.640625 -0.326392,0.3283097 -0.607642,0.5964504 -0.625,0.5958685 -0.01736,-5.813e-4 -0.120808,-0.07441 -0.229891,-0.1640625 C 12.114459,8.4952269 11.928932,8.3515625 11.811258,8.265625 11.693585,8.1796875 11.352135,7.9267706 11.052481,7.7035875 L 10.507655,7.2978 10.491826,6.8910875 C 10.473707,6.4255484 10.414842,6.1976062 10.209251,5.796875 10.027862,5.4433178 9.5570675,4.9724237 9.203125,4.7905369 8.7530487,4.5592478 8.5572972,4.5153716 7.984375,4.5173634 7.5381494,4.5189134 7.4591709,4.5274612 7.2500262,4.5968278 L 7.0156775,4.6745541 6.5911641,4.3607147 C 6.3576816,4.1881028 6.1131437,3.9998913 6.0477469,3.9424669 L 5.9288431,3.8380588 6.1971772,3.5674669 C 6.3447606,3.4186413 6.4803022,3.2572878 6.4983806,3.2089031 6.5419709,3.0922378 6.5416641,1.9378819 6.4980119,1.8223469 6.4462956,1.6854683 6.3159775,1.5685263 6.1590162,1.5181465 6.0801509,1.4928332 4.9117188,1.2519518 3.5625,0.98285456 0.97449603,0.46668556 0.89720753,0.45580353 0.72616553,0.58350481 0.52145175,0.73634572 0.51651241,0.75624703 0.50606362,1.4703247 l -0.009561,0.6534325 0.48781003,2.445934 C 1.2526078,5.9149547 1.4928332,7.0801509 1.5181465,7.1590163 1.6136518,7.4565691 1.9187562,7.6065172 2.2089031,7.4984991 2.2572877,7.4804862 2.5737399,7.18969 2.9121303,6.852285 l 0.6152553,-0.6134631 0.1289472,0.08936 c 0.070921,0.049148 0.1883706,0.1416675 0.2609997,0.2055978 0.072629,0.063931 0.2186169,0.1774053 0.3244181,0.2521662 0.5834044,0.4122438 1.3797828,1.0157372 1.3813916,1.0468147 0.00102,0.019737 0.067495,0.1673935 0.147719,0.328125 0.124425,0.2492907 0.192166,0.3383757 0.4609375,0.6061722 0.2464341,0.2455397 0.369541,0.3418757 0.5650763,0.4421928 0.3061516,0.1570682 0.6055234,0.2513475 0.8835219,0.2782422 0.1560225,0.015094 0.2303722,0.038709 0.2883531,0.091586 0.042969,0.039186 0.1652897,0.1323456 0.2718244,0.2070215 0.4079734,0.2859707 1.6234815,1.1948627 1.7202325,1.2862977 l 0.1014321,0.09586 -0.2811196,0.286662 c -0.1546156,0.157664 -0.2826669,0.313166 -0.2845582,0.345559 -0.02254,0.386048 -0.00874,1.32644 0.02059,1.403135 0.051075,0.133554 0.2409791,0.289679 0.3806185,0.312916 0.3327193,0.05537 4.8478713,0.959671 4.9147303,0.984333 0.125358,0.04624 0.398463,0.01716 0.491552,-0.05235 z"
       id="path827"
       inkscape:connector-curvature="0" />
    <path
       style="fill:#cbfefe;stroke-width:0.000357143"
       d="m 12.484375,12.502658 c -1.340625,-0.270149 -2.455162,-0.497306 -2.47675,-0.504794 -0.021933,-0.0076 0.283712,-0.336356 0.692784,-0.74515 l 0.732033,-0.731536 -0.378871,-0.284026 C 10.845192,10.080937 10.597284,9.8993597 10.502664,9.8336463 10.408044,9.7679331 10.280846,9.6694003 10.220002,9.614685 10.159157,9.5599694 9.9680569,9.4129569 9.795335,9.2879903 L 9.481295,9.0607788 9.7826175,8.7562803 C 10.037637,8.4985728 10.10689,8.4055522 10.233286,8.1509397 l 0.149345,-0.3008416 0.466388,0.3483885 c 0.256513,0.1916137 0.553623,0.4094515 0.660246,0.4840847 0.106623,0.074633 0.236047,0.1747893 0.28761,0.22257 0.05156,0.047781 0.232753,0.1886212 0.402646,0.312979 l 0.308896,0.2261053 0.745791,-0.7453062 C 13.664394,8.2890009 14,7.9607841 14,7.9695481 c 0,0.00876 0.225,1.1404363 0.5,2.5148269 0.275,1.374391 0.5,2.502657 0.5,2.507259 0,0.01704 -0.127186,-0.0077 -2.515625,-0.488976 z M 5.1417828,5.8023006 C 4.8848459,5.6102541 4.5966625,5.3993066 4.501375,5.3335287 4.4060875,5.2677509 4.2859375,5.1745294 4.234375,5.1263697 4.1828125,5.07821 3.9933203,4.9313941 3.8132812,4.8001116 L 3.4859375,4.5614169 2.7429687,5.3039016 C 2.3343359,5.7122684 2,6.0392159 2,6.0304519 2,6.0216878 1.7751538,4.8907844 1.5003418,3.5173334 1.2255298,2.1438823 1.0050635,1.0157698 1.0104167,1.0104167 1.0157698,1.0050635 2.1438823,1.2255298 3.5173334,1.5003418 4.8907844,1.7751538 6.0216878,2 6.0304519,2 6.0392159,2 5.71253,2.3340741 5.3044831,2.7423869 L 4.5625794,3.4847738 4.9598325,3.7814494 c 0.2184891,0.1631715 0.4745484,0.3504409 0.5690212,0.4161543 0.094473,0.065713 0.2215504,0.1642457 0.2823947,0.2189607 0.060845,0.054715 0.2442203,0.1958072 0.4075016,0.3135375 L 6.515625,4.9441572 6.2165688,5.2455159 C 5.9660587,5.497955 5.89344,5.594975 5.7692197,5.8431825 c -0.081561,0.1629691 -0.15099,0.2990044 -0.1542859,0.3023006 -0.0033,0.0033 -0.2162141,-0.1511359 -0.473151,-0.3431825 z"
       id="path825"
       inkscape:connector-curvature="0" />
    <path
       style="fill:#fecb32;stroke-width:0.000357143"
       d="M 7.5625,8.9514053 C 6.8323191,8.7945809 6.2007041,8.1571794 6.0468547,7.421875 5.7497344,6.0018228 7.0018228,4.7497344 8.421875,5.0468547 9.1647875,5.2022959 9.7977041,5.8352125 9.9531453,6.578125 10.251335,8.0032863 8.9878991,9.2575447 7.5625,8.9514053 Z"
       id="path823"
       inkscape:connector-curvature="0" />
    <path
       style="fill:#989898;stroke-width:0.000357143"
       d="m 14.994283,14.015117 c -0.01475,-0.01475 -4.75121,-0.970102 -4.924915,-0.993364 l -0.075405,-0.0101 0.00445,-0.496845 c 0.00245,-0.273265 0.00732,-0.499566 0.010831,-0.50289 0.0035,-0.0033 1.134894,0.219728 2.514191,0.49567 l 2.507812,0.501714 v 0.510973 c 0,0.281035 -0.0047,0.510973 -0.01042,0.510973 -0.0057,0 -0.01768,-0.0073 -0.02655,-0.01613 z m -4.26224,-3.014551 C 10.664576,10.947403 10.525,10.8411 10.421875,10.764337 9.1832278,9.8423225 8.7059169,9.4788147 8.6967413,9.4505194 c -0.00604,-0.018621 0.049178,-0.051467 0.1227028,-0.072991 0.073524,-0.021525 0.2511525,-0.1011415 0.394729,-0.1769265 0.1435763,-0.075785 0.27717,-0.1280725 0.296875,-0.1161947 0.1009235,0.060835 0.6420089,0.4664109 0.7233269,0.5421769 0.05156,0.048042 0.171729,0.1411671 0.267038,0.206945 0.09531,0.065778 0.343872,0.2474769 0.552365,0.4037759 l 0.379077,0.28418 -0.289072,0.28787 -0.289072,0.28787 z M 5.0795166,6.7564591 C 4.8568444,6.5896253 4.5966881,6.3993066 4.5013916,6.3335287 4.406095,6.2677509 4.2859375,6.1745294 4.234375,6.1263697 4.1828125,6.07821 3.9933203,5.9313941 3.8132813,5.8001116 L 3.4859375,5.5614169 2.7429687,6.3039016 C 2.3343359,6.7122684 2,7.0392159 2,7.0304519 2,7.0216878 1.775,5.8900156 1.5,4.515625 L 1,2.0167328 1.0030809,1.5474289 1.0061619,1.078125 1.5015562,3.53125 C 1.774023,4.8804688 1.9976366,5.9983275 1.9984752,6.0153809 1.999314,6.0324341 2.3343359,5.7122684 2.7429687,5.3039016 L 3.4859375,4.5614169 3.8132812,4.8001116 C 3.9933203,4.9313941 4.1828125,5.07821 4.234375,5.1263697 4.285938,5.1745297 4.406045,5.2677509 4.5012809,5.3335287 5.0067225,5.68263 5.6267394,6.1691431 5.6127278,6.2056566 5.5606472,6.3413762 5.5217862,6.5500719 5.5043447,6.7877091 L 5.484375,7.0597934 Z M 4.8506512,3.6963363 4.5608553,3.4865094 5.28824,2.7585677 6.015625,2.030626 6.024265,2.5221648 6.032905,3.0137035 5.5866753,3.4599334 5.1404456,3.9061631 Z"
       id="path821"
       inkscape:connector-curvature="0" />
    <path
       style="fill:#323232;stroke-width:0.000357143"
       d="M 14.8125,14.500862 C 14.745641,14.4762 10.230489,13.571897 9.8977694,13.516529 9.75813,13.493292 9.5682256,13.337167 9.5171509,13.203613 c -0.02933,-0.0767 -0.04313,-1.017087 -0.02059,-1.403135 0.00189,-0.03239 0.1299426,-0.187895 0.2845582,-0.345559 L 10.062239,11.168257 9.9608069,11.072398 C 9.8640559,10.980963 8.6485478,10.072071 8.2405744,9.7861006 8.1340397,9.7114247 8.0117188,9.618265 7.96875,9.5790791 7.9107691,9.5262022 7.8364194,9.5025875 7.6803969,9.4874931 7.4023984,9.4605984 7.1030266,9.3663191 6.796875,9.2092509 6.6013397,9.1089338 6.4782328,9.0125978 6.2317987,8.7670581 5.9630272,8.4992616 5.8952862,8.4101766 5.7708612,8.1608859 5.6906375,8.0001544 5.6241641,7.8524981 5.6231422,7.8327609 5.6215328,7.8016834 4.825155,7.19819 4.2417506,6.7859462 4.1359494,6.7111853 3.9899613,6.5977106 3.9173325,6.53378 3.8447034,6.4698497 3.7272537,6.3773306 3.6563328,6.3281822 L 3.5273856,6.2388219 2.9121303,6.852285 C 2.5737399,7.18969 2.2572877,7.4804862 2.2089031,7.4984991 1.9187562,7.6065172 1.6136518,7.4565691 1.5181465,7.1590162 1.4928332,7.0801509 1.2526078,5.9149547 0.98431231,4.5696912 L 0.49650228,2.1237573 0.50606362,1.4703247 C 0.51651241,0.75624703 0.52145175,0.73634572 0.72616553,0.58350481 0.89720753,0.45580353 0.97449603,0.46668556 3.5625,0.98285456 4.9117188,1.2519518 6.0801509,1.4928332 6.1590163,1.5181465 c 0.1569612,0.05038 0.2872793,0.1673218 0.3389956,0.3042004 0.043652,0.115535 0.043959,1.2698909 3.687e-4,1.3865562 -0.018078,0.048385 -0.15362,0.2097381 -0.3012034,0.3585638 L 5.9288431,3.8380588 6.0477469,3.9424669 c 0.065397,0.057424 0.3099347,0.2456359 0.5434172,0.4182478 l 0.4245134,0.3138394 0.2343488,-0.077726 c 0.2091446,-0.069367 0.2881231,-0.077913 0.7343487,-0.079464 0.5729222,-0.00199 0.7686738,0.041884 1.21875,0.2731735 0.3539425,0.1818868 0.824737,0.6527809 1.006126,1.0063381 0.205591,0.4007312 0.264456,0.6286734 0.282575,1.0942125 l 0.01583,0.4067125 0.544826,0.4057875 c 0.299654,0.2231831 0.641104,0.4761 0.758777,0.5620375 0.117674,0.085937 0.303201,0.2296019 0.412284,0.3192544 0.109083,0.089652 0.212534,0.1634806 0.229891,0.1640625 0.01736,5.812e-4 0.298608,-0.2675588 0.625,-0.5958685 0.326393,-0.3283093 0.638694,-0.6165906 0.694001,-0.640625 0.272101,-0.1182437 0.592589,0.012565 0.69686,0.2844266 0.01978,0.051563 0.263187,1.2117187 0.540913,2.5781253 l 0.504955,2.484375 2.19e-4,0.677432 c 2.18e-4,0.63567 -0.0037,0.682749 -0.0642,0.763694 -0.111759,0.149628 -0.218896,0.209124 -0.39521,0.219472 -0.09095,0.0053 -0.200515,-0.0033 -0.243484,-0.01911 z m 0.210857,-1.172041 C 15.013606,13.035119 14.937383,12.616158 14.50596,10.484929 14.227682,9.1102334 14,7.9783122 14,7.9695481 14,7.9607841 13.664394,8.2890009 13.254208,8.6989194 L 12.508417,9.4442256 12.199521,9.2181203 C 12.029628,9.0937625 11.848437,8.9529222 11.796875,8.9051413 11.745313,8.8573606 11.615888,8.7572041 11.509265,8.6825713 11.402643,8.6079381 11.105532,8.3901003 10.849019,8.1984866 L 10.382631,7.8500981 10.23322,8.1516116 c -0.12942,0.261169 -0.191607,0.3435197 -0.4647534,0.6154465 -0.323515,0.32207 -0.620266,0.5128325 -0.9490225,0.6100672 -0.073525,0.021746 -0.1287788,0.054773 -0.1227866,0.073394 0.00599,0.018621 0.3345341,0.2729181 0.7300938,0.5651057 0.3955593,0.292188 0.7737667,0.579186 0.8404617,0.637774 0.06669,0.05859 0.17912,0.143215 0.249833,0.18806 0.07071,0.04485 0.175451,0.120985 0.23275,0.169199 l 0.104181,0.08766 -0.428634,0.429455 -0.4286324,0.429455 v 0.527396 0.527397 l 0.074031,0.0099 c 0.1943,0.02602 4.909789,0.979459 4.926146,0.996032 0.02729,0.02765 0.03961,-0.293253 0.02647,-0.689148 z M 8.421875,8.9531453 C 9.3214828,8.7649184 9.9989147,7.9259269 9.9989147,7 9.9989147,5.9092425 9.0907575,5.0010853 8,5.0010853 c -0.7409122,0 -1.4542134,0.4390403 -1.7769522,1.0937225 -0.2954,0.5992253 -0.2954,1.2111591 0,1.8103844 0.3931413,0.7974956 1.3092084,1.2340897 2.1988272,1.0479531 z M 5.5935447,6.2736638 C 5.7190853,5.8581466 5.88936,5.5776647 6.2177112,5.2455159 L 6.515625,4.9441572 6.2217097,4.7318587 C 6.0600566,4.6150944 5.8631816,4.4635706 5.7842097,4.3951394 5.7052381,4.3267078 5.5703125,4.2242284 5.484375,4.1674072 5.3984375,4.1105859 5.2859375,4.0287637 5.234375,3.9855803 L 5.140625,3.9070644 5.5859375,3.4609537 6.03125,3.0148431 V 2.5074215 C 6.03125,2.2283397 6.027485,2 6.0228837,2 6.0182822,2 4.8900156,1.775 3.515625,1.5 2.1412343,1.225 1.0129679,1 1.0083664,1 1.0037649,1 1,1.2287649 1,1.5083664 V 2.0167328 L 1.5,4.515625 C 1.775,5.8900156 2,7.0216878 2,7.0304519 2,7.0392159 2.3343359,6.7122684 2.7429687,6.3039016 L 3.4859375,5.5614169 3.8132812,5.8001116 C 3.9933203,5.9313941 4.1828125,6.07821 4.234375,6.1263697 c 0.051563,0.04816 0.17172,0.1413812 0.2670166,0.207159 0.095296,0.065778 0.3554528,0.2560966 0.578125,0.4229304 L 5.484375,7.0597934 5.5047,6.7801228 C 5.515879,6.6263041 5.555859,6.3983972 5.5935447,6.2736638 Z"
       id="path819"
       inkscape:connector-curvature="0" />
  </g>
</svg>
