<?xml version="1.0" encoding="UTF-8" standalone="no"?>
<!-- Created with Inkscape (http://www.inkscape.org/) -->

<svg
   version="1.1"
   id="svg2"
   width="1600"
   height="1600"
   viewBox="0 0 1600 1600"
   sodipodi:docname="randomize.svg"
   inkscape:version="1.2.2 (732a01da63, 2022-12-09)"
   xmlns:inkscape="http://www.inkscape.org/namespaces/inkscape"
   xmlns:sodipodi="http://sodipodi.sourceforge.net/DTD/sodipodi-0.dtd"
   xmlns="http://www.w3.org/2000/svg"
   xmlns:svg="http://www.w3.org/2000/svg"
   xmlns:rdf="http://www.w3.org/1999/02/22-rdf-syntax-ns#"
   xmlns:cc="http://creativecommons.org/ns#"
   xmlns:dc="http://purl.org/dc/elements/1.1/">
  <metadata
     id="metadata8">
    <rdf:RDF>
      <cc:Work
         rdf:about="">
        <dc:format>image/svg+xml</dc:format>
        <dc:type
           rdf:resource="http://purl.org/dc/dcmitype/StillImage" />
      </cc:Work>
    </rdf:RDF>
  </metadata>
  <defs
     id="defs6" />
  <sodipodi:namedview
     pagecolor="#808080"
     bordercolor="#666666"
     borderopacity="1"
     objecttolerance="10"
     gridtolerance="10"
     guidetolerance="10"
     inkscape:pageopacity="0"
     inkscape:pageshadow="2"
     inkscape:window-width="2560"
     inkscape:window-height="1009"
     id="namedview4"
     showgrid="false"
     inkscape:zoom="0.5"
     inkscape:cx="564"
     inkscape:cy="348"
     inkscape:window-x="-8"
     inkscape:window-y="-8"
     inkscape:window-maximized="1"
     inkscape:current-layer="RANDOMIZE"
     inkscape:showpageshadow="0"
     inkscape:pagecheckerboard="true"
     inkscape:deskcolor="#d1d1d1" />
  <g
     id="RANDOMIZE"
     transform="matrix(99.934624,0,0,99.934624,0.00406156,0)"
     style="stroke-width:0.0100065">
    <path
       style="fill:none;stroke-width:0.000312908"
       d="m 0,13.90917 v -2.101254 l 0.07967859,0.159894 c 0.09536692,0.191377 0.30820677,0.395615 0.50896497,0.488397 0.14341394,0.06628 0.17491276,0.06757 1.64718714,0.06757 h 1.5009772 l 0.1876222,-0.07417 c 0.174684,-0.06906 0.2873527,-0.173585 1.6338803,-1.515845 L 7.0045683,9.4920882 8.4664539,10.949404 c 1.3616928,1.357436 1.4747442,1.462397 1.6495071,1.531474 0.18286,0.07228 0.215329,0.0744 1.279128,0.08351 l 1.091505,0.0094 -0.425942,0.429865 c -0.519157,0.523939 -0.568407,0.612383 -0.568637,1.021148 -1.25e-4,0.244412 0.01124,0.304639 0.08648,0.457845 0.101283,0.206243 0.311104,0.411303 0.517645,0.505896 0.112405,0.05148 0.207663,0.0671 0.412008,0.06757 0.47824,0.0011 0.399843,0.06063 1.950237,-1.481006 0.754454,-0.750193 1.412304,-1.426547 1.461889,-1.503009 l 0.09015,-0.139021 v 2.038696 2.038695 H 8.005212 0 Z M 0,8.005212 V 4.8346261 L 0.07967859,4.9945202 C 0.17504551,5.1858967 0.38788536,5.3901353 0.58864356,5.482917 0.72899,5.5477789 0.7819412,5.5508578 1.909026,5.5596904 l 1.1741726,0.0092 1.2178595,1.21816 1.2178595,1.21816 -1.2178595,1.21816 L 3.0831986,10.44153 1.909026,10.45073 C 0.7819412,10.45953 0.72899,10.46264 0.58864356,10.5275 0.38788536,10.62028 0.17504551,10.82452 0.07967859,11.015897 L 0,11.175798 Z m 15.962137,3.025407 C 15.95046,10.991922 15.319805,10.337146 14.560681,9.5755613 13.190054,8.200491 13.003998,8.0364824 12.814708,8.0364824 c -0.03102,0 -0.0564,-0.014072 -0.0564,-0.03127 0,-0.017199 0.02463,-0.031579 0.05472,-0.031957 0.191006,-0.0024 0.34868,-0.1399689 1.676487,-1.4627514 0.737182,-0.7343925 1.38096,-1.3978185 1.430619,-1.4742802 l 0.09029,-0.1390211 v 3.1018877 c 0,1.7060382 -0.0061,3.1018886 -0.01353,3.1018886 -0.0074,0 -0.02308,-0.03166 -0.03476,-0.07036 z M 9.7250818,9.2403912 8.4901993,8.005212 9.7250818,6.7700328 10.959964,5.5348536 h 0.764781 0.76478 L 12.077683,5.95077 c -0.460806,0.4653661 -0.53903,0.5946431 -0.563064,0.9305493 -0.02689,0.3758025 0.119488,0.6936332 0.427729,0.9287366 0.07479,0.057045 0.197512,0.1201738 0.272713,0.1402873 0.0752,0.020113 0.136731,0.044804 0.136731,0.054869 0,0.010064 -0.06153,0.034755 -0.136731,0.054869 -0.0752,0.020114 -0.197922,0.083243 -0.272713,0.1402873 -0.308241,0.2351034 -0.454618,0.5529341 -0.427729,0.9287366 0.02403,0.3359062 0.102258,0.4651832 0.563064,0.9305489 l 0.411842,0.415916 h -0.76478 -0.764781 z M 5.5504888,5.0693809 C 4.2110836,3.7336887 4.0991351,3.6298274 3.9244301,3.5607883 L 3.7368079,3.4866451 H 2.2358307 c -1.47227438,0 -1.5037732,0.00129 -1.64718714,0.067572 -0.2007582,0.092782 -0.41359805,0.2970202 -0.50896497,0.4883967 L 0,4.2025077 V 2.1012538 0 h 8.005212 8.005212 V 2.0386955 4.0773909 L 15.92027,3.9383698 C 15.870685,3.8619081 15.212835,3.1855543 14.458381,2.4353612 12.908552,0.8942865 12.986818,0.95374596 12.508144,0.95374596 c -0.22714,0 -0.291456,0.0126001 -0.44221,0.0866335 -0.205933,0.1011309 -0.410931,0.3107031 -0.506347,0.5176452 -0.05321,0.1154131 -0.06741,0.2054892 -0.06741,0.4276431 0,0.4087092 0.0492,0.4970851 0.568479,1.0211483 l 0.425942,0.4298649 -1.091505,0.00935 C 10.331294,3.455151 10.298825,3.457266 10.115965,3.529543 9.9412287,3.5986105 9.8283915,3.7033396 8.4735147,5.0539699 7.6733616,5.8516155 7.0119935,6.5041438 7.0038078,6.5040324 6.9956225,6.5039214 6.3416289,5.858328 5.5504888,5.0693809 Z"
       id="path825"
       inkscape:connector-curvature="0" />
    <path
       style="fill:#fecb32;stroke-width:0.000312908"
       d="m 12.38036,14.54347 c -0.289336,-0.09258 -0.448258,-0.376933 -0.371455,-0.664631 0.03141,-0.117678 0.145717,-0.245622 0.868369,-0.971998 l 0.832193,-0.836482 h -1.580002 c -1.347505,0 -1.604995,-0.0073 -1.749848,-0.04941 -0.165738,-0.04821 -0.253389,-0.132867 -3.6252194,-3.5012356 L 3.2990229,5.067888 2.0794789,5.0590257 c -1.21083532,-0.0088 -1.22037015,-0.00938 -1.33523162,-0.080797 -0.34570824,-0.2149612 -0.34570824,-0.7043617 0,-0.9193229 0.11524616,-0.07166 0.12068135,-0.071969 1.42438222,-0.081053 1.129223,-0.00787 1.3329196,-0.0022 1.485342,0.041342 0.1752041,0.050048 0.2048847,0.078677 3.6323499,3.5035814 l 3.4557026,3.4531208 h 1.483699 1.483698 L 12.892902,10.155049 C 12.184646,9.4430403 12.071583,9.316234 12.04019,9.1986865 11.931977,8.7934971 12.295176,8.430134 12.700967,8.5376102 c 0.120024,0.031789 0.283167,0.1830389 1.42712,1.3230824 0.710382,0.7079554 1.317463,1.3294054 1.349069,1.3810014 0.08379,0.136783 0.104106,0.273696 0.06342,0.427351 -0.0318,0.120076 -0.184321,0.284453 -1.338718,1.442751 -0.716557,0.718979 -1.345697,1.33399 -1.398087,1.366689 -0.113269,0.0707 -0.310801,0.101015 -0.423408,0.06499 z"
       id="path823"
       inkscape:connector-curvature="0" />
    <path
       style="fill:#00fe00;stroke-width:0.000312908"
       d="M 0.85231742,12.004156 C 0.71108244,11.963367 0.54076108,11.782739 0.49968121,11.63018 c -0.0614378,-0.228163 0.0370376,-0.468943 0.24456607,-0.597984 0.11486651,-0.07142 0.12434321,-0.072 1.33523162,-0.08074 l 1.219544,-0.0088 L 4.5889162,9.6538867 5.8788094,8.365117 6.2618804,8.7484178 6.6449514,9.1317189 5.2377852,10.53572 c -1.3487594,1.345726 -1.4142158,1.406064 -1.5770111,1.453683 -0.1436451,0.04202 -0.3655355,0.04925 -1.4384366,0.04686 -0.6977254,-0.0016 -1.31423438,-0.016 -1.37002008,-0.03211 z M 7.7389252,7.2541721 7.3641696,6.8783762 8.786971,5.4588963 c 1.36415,-1.3609657 1.429803,-1.4215274 1.592646,-1.4691552 0.14528,-0.042491 0.398366,-0.049676 1.749848,-0.049676 h 1.580002 L 12.877274,3.1035832 C 12.154622,2.3772068 12.040319,2.2492632 12.008905,2.1315854 11.900731,1.7263736 12.2639,1.3630443 12.669696,1.4705025 c 0.120076,0.031797 0.284453,0.1843214 1.442751,1.3387177 0.71898,0.7165575 1.333097,1.345047 1.364705,1.3966431 0.0838,0.1367825 0.104111,0.2736951 0.06341,0.4273508 -0.03179,0.1200241 -0.183039,0.2831671 -1.323083,1.4271198 -0.707955,0.7103822 -1.335945,1.3219969 -1.395535,1.3591439 -0.149278,0.093057 -0.386498,0.091617 -0.540041,-0.00328 C 12.073079,7.2871367 11.977236,7.0474616 12.04019,6.8117375 12.071583,6.69419 12.184646,6.5673837 12.892902,5.8553748 L 13.709421,5.0345279 H 12.225254 10.741086 L 9.4436485,6.3322478 C 8.730058,7.0459937 8.1388918,7.6299677 8.129946,7.6299677 c -0.00895,0 -0.1849054,-0.1691082 -0.3910208,-0.3757956 z"
       id="path821"
       inkscape:connector-curvature="0" />
    <path
       style="fill:#323232;stroke-width:0.000312908"
       d="m 12.170579,15.014955 c -0.444694,-0.158634 -0.721459,-0.588154 -0.687231,-1.066534 0.0242,-0.338213 0.101346,-0.46447 0.577304,-0.944813 l 0.425942,-0.429865 -1.091505,-0.0094 c -1.063799,-0.0091 -1.096268,-0.01124 -1.279128,-0.08351 C 9.9411981,12.411801 9.8281467,12.30684 8.4664539,10.949404 L 7.0045683,9.4920882 5.5583104,10.933763 c -1.3465276,1.34226 -1.4591963,1.446789 -1.6338803,1.515845 l -0.1876222,0.07417 H 2.2358307 c -1.47227438,0 -1.5037732,-0.0013 -1.64718714,-0.06757 C 0.38788536,12.363425 0.17504551,12.159187 0.07967859,11.96781 0.01008932,11.828163 0,11.767895 0,11.491857 0,11.215819 0.01008932,11.155551 0.07967859,11.015904 0.17504551,10.824527 0.38788536,10.620289 0.58864356,10.527507 0.72899,10.462645 0.7819412,10.459566 1.909026,10.450734 L 3.0831986,10.441532 4.3010581,9.223372 5.5189176,8.005212 4.3010581,6.787052 3.0831986,5.568892 1.909026,5.5596904 C 0.7819412,5.5508578 0.72899,5.5477789 0.58864356,5.482917 0.38788536,5.3901353 0.17504551,5.1858967 0.07967859,4.9945202 0.01008932,4.8548728 0,4.7946051 0,4.5185669 0,4.2425288 0.01008932,4.1822611 0.07967859,4.0426136 0.17504551,3.8512371 0.38788536,3.6469985 0.58864356,3.5542169 0.7320575,3.4879372 0.76355632,3.4866451 2.2358307,3.4866451 h 1.5009772 l 0.1876222,0.07417 c 0.174684,0.069056 0.2873527,0.1735853 1.6338803,1.5158457 l 1.4462579,1.441675 1.4618856,-1.4573154 c 1.3616928,-1.357436 1.4747442,-1.4623977 1.6495071,-1.531474 0.18286,-0.072277 0.215329,-0.074397 1.279128,-0.083512 L 12.486594,3.436681 12.060652,3.0068161 C 11.541372,2.4827529 11.492173,2.394377 11.492173,1.9856678 c 0,-0.2221539 0.0142,-0.31223 0.06741,-0.4276431 C 11.655003,1.3510826 11.859997,1.1415104 12.06593,1.0403795 12.216684,0.966346 12.281,0.953746 12.50814,0.953746 c 0.478674,0 0.400408,-0.0594595 1.950237,1.4816152 0.754454,0.7501931 1.412304,1.4265469 1.461889,1.5030086 0.0877,0.1352418 0.09015,0.1501646 0.09015,0.5489268 0,0.3989507 -0.0024,0.4136208 -0.09029,0.5489267 -0.04966,0.076462 -0.693437,0.7398877 -1.430619,1.4742802 -1.327807,1.3227825 -1.485481,1.4603543 -1.676487,1.4627514 -0.0301,3.778e-4 -0.05472,0.014758 -0.05472,0.031957 0,0.017199 0.02463,0.031579 0.05472,0.031957 0.191006,0.0024 0.34868,0.1399689 1.676487,1.4627514 0.737182,0.7343927 1.38096,1.3978187 1.430619,1.4742807 0.08788,0.135306 0.09029,0.149976 0.09029,0.548926 0,0.398954 -0.0024,0.41362 -0.09029,0.548927 -0.04966,0.07646 -0.700474,0.747001 -1.446254,1.490088 -1.101724,1.097745 -1.385279,1.364045 -1.512315,1.420287 -0.218593,0.09678 -0.570328,0.111239 -0.790985,0.03253 z m 0.633189,-0.53647 c 0.05239,-0.0327 0.68153,-0.64771 1.398087,-1.366689 1.154397,-1.158298 1.306921,-1.322675 1.338718,-1.442751 0.04069,-0.153655 0.02037,-0.290568 -0.06342,-0.427351 -0.03161,-0.0516 -0.638687,-0.673046 -1.349069,-1.3810014 -1.143953,-1.1400435 -1.307096,-1.2912933 -1.42712,-1.3230824 -0.405791,-0.1074762 -0.76899,0.2558869 -0.660777,0.6610763 0.03139,0.1175475 0.144456,0.2443538 0.852712,0.9563625 l 0.816519,0.820847 H 12.225723 10.742024 L 7.2863214,7.5227754 C 3.8588562,4.0978708 3.8291756,4.0692425 3.6539715,4.019194 3.5015491,3.975654 3.2978525,3.969984 2.1686295,3.977852 0.86492863,3.986932 0.85949344,3.987242 0.74424728,4.058905 c -0.34570824,0.2149612 -0.34570824,0.7043617 0,0.9193229 0.11486147,0.071421 0.1243963,0.071998 1.33523162,0.080797 l 1.219544,0.00886 3.4553747,3.4518274 c 3.3718304,3.3683687 3.4594814,3.4530217 3.6252194,3.5012357 0.144853,0.04214 0.402343,0.04941 1.749848,0.04941 h 1.580002 l -0.832193,0.836482 c -0.722652,0.726376 -0.836955,0.85432 -0.868369,0.971998 -0.125741,0.471017 0.38438,0.855853 0.794863,0.599646 z M 3.6607741,11.989408 c 0.1627953,-0.04762 0.2282517,-0.107957 1.5770111,-1.453683 L 6.6449514,9.1317239 6.2618804,8.7484228 5.8788094,8.365122 4.5889162,9.6538917 3.2990229,10.942661 l -1.219544,0.0088 c -1.21088841,0.0087 -1.22036511,0.0093 -1.33523162,0.08074 -0.20752849,0.129041 -0.30600392,0.369821 -0.24456607,0.597984 0.0410799,0.152559 0.21140123,0.333187 0.35263621,0.373976 0.0557857,0.01611 0.67229468,0.03056 1.37002008,0.03211 1.0729011,0.0024 1.2947915,-0.0048 1.4384366,-0.04686 z M 12.077683,10.059654 C 11.616877,9.5942879 11.538653,9.4650109 11.514619,9.1291047 11.48773,8.7533022 11.634107,8.4354715 11.942348,8.2003681 c 0.07479,-0.057045 0.197512,-0.1201738 0.272713,-0.1402873 0.0752,-0.020113 0.136731,-0.044804 0.136731,-0.054869 0,-0.010064 -0.06153,-0.034755 -0.136731,-0.054869 C 12.13986,7.9302297 12.017139,7.8671005 11.942348,7.8100559 11.634107,7.5749525 11.48773,7.2571218 11.514619,6.8813193 11.538653,6.5454131 11.616877,6.4161361 12.077683,5.95077 l 0.411842,-0.4159164 h -0.76478 -0.764781 L 9.7250818,6.7700328 8.4901993,8.005212 9.7250818,9.2403912 10.959964,10.47557 h 0.764781 0.76478 z M 9.4436485,6.3322478 10.741086,5.0345279 h 1.484168 1.484167 L 12.892902,5.8553748 C 12.184646,6.5673837 12.071583,6.69419 12.04019,6.8117375 c -0.06295,0.2357241 0.03289,0.4753992 0.241718,0.6044623 0.153543,0.094895 0.390763,0.096335 0.540041,0.00328 0.05959,-0.037147 0.68758,-0.6487617 1.395535,-1.3591439 1.140044,-1.1439527 1.291293,-1.3070957 1.323083,-1.4271198 0.0407,-0.1536557 0.02038,-0.2905683 -0.06341,-0.4273508 -0.03161,-0.051598 -0.64573,-0.6800876 -1.36471,-1.3966451 C 12.954149,1.6548239 12.789772,1.5022996 12.669696,1.4705025 12.2639,1.3630443 11.900731,1.7263736 12.008905,2.1315854 c 0.03141,0.1176778 0.145717,0.2456214 0.868369,0.9719978 l 0.832193,0.8364821 h -1.580002 c -1.351482,0 -1.604568,0.00718 -1.749848,0.049676 -0.162843,0.047628 -0.228496,0.1081895 -1.592646,1.4691552 L 7.3641696,6.8783762 7.7389252,7.2541721 c 0.2061154,0.2066874 0.3820747,0.3757956 0.3910208,0.3757956 0.00895,0 0.600112,-0.583974 1.3137025,-1.2977199 z"
       id="path819"
       inkscape:connector-curvature="0" />
  </g>
</svg>
