<?xml version="1.0" encoding="UTF-8" standalone="no"?>
<!-- Created with Inkscape (http://www.inkscape.org/) -->

<svg
   version="1.1"
   id="svg2"
   width="1600"
   height="1600"
   viewBox="0 0 1600 1600"
   sodipodi:docname="recalc_normals_inside.svg"
   inkscape:version="1.2.2 (732a01da63, 2022-12-09)"
   xmlns:inkscape="http://www.inkscape.org/namespaces/inkscape"
   xmlns:sodipodi="http://sodipodi.sourceforge.net/DTD/sodipodi-0.dtd"
   xmlns="http://www.w3.org/2000/svg"
   xmlns:svg="http://www.w3.org/2000/svg"
   xmlns:rdf="http://www.w3.org/1999/02/22-rdf-syntax-ns#"
   xmlns:cc="http://creativecommons.org/ns#"
   xmlns:dc="http://purl.org/dc/elements/1.1/">
  <metadata
     id="metadata8">
    <rdf:RDF>
      <cc:Work
         rdf:about="">
        <dc:format>image/svg+xml</dc:format>
        <dc:type
           rdf:resource="http://purl.org/dc/dcmitype/StillImage" />
      </cc:Work>
    </rdf:RDF>
  </metadata>
  <defs
     id="defs6" />
  <sodipodi:namedview
     pagecolor="#808080"
     bordercolor="#666666"
     borderopacity="1"
     objecttolerance="10"
     gridtolerance="10"
     guidetolerance="10"
     inkscape:pageopacity="0"
     inkscape:pageshadow="2"
     inkscape:window-width="1993"
     inkscape:window-height="1009"
     id="namedview4"
     showgrid="false"
     inkscape:zoom="0.5"
     inkscape:cx="483"
     inkscape:cy="564"
     inkscape:window-x="-8"
     inkscape:window-y="-8"
     inkscape:window-maximized="1"
     inkscape:current-layer="RECALC_NORMALS_INSIDE"
     inkscape:showpageshadow="0"
     inkscape:pagecheckerboard="true"
     inkscape:deskcolor="#d1d1d1" />
  <g
     id="RECALC_NORMALS_INSIDE"
     transform="matrix(100,0,0,100,0,4.9999997e-5)"
     style="stroke-width:0.0114286">
    <path
       style="fill:none;stroke-width:0.000357143"
       d="M 0,8 V 0 h 8 8 v 8 8 H 8 0 Z m 12.179628,4.179747 C 14.888255,9.4712247 15.25,9.0984469 15.25,9.0157291 15.25,8.9328566 14.777179,8.4491334 11.179733,4.8516072 7.5828053,1.2546011 7.0985641,0.78125 7.0157291,0.78125 6.9330516,0.78125 6.5597725,1.1434569 3.8516216,3.8515031 1.1440499,6.5589703 0.78125,6.9328269 0.78125,7.0154484 c 0,0.081984 0.19224775,0.2859694 1.5384679,1.6323957 l 1.5384677,1.5387039 -1.0172429,1.023913 c -0.9135352,0.919526 -1.025955,1.043821 -1.1026954,1.219171 -0.2461277,0.562398 -0.1257694,1.18802 0.3073599,1.597655 0.4270333,0.40387 1.0116961,0.503977 1.5548703,0.266227 0.1768013,-0.07739 0.2985659,-0.187467 1.2203506,-1.103246 l 1.0239532,-1.017282 1.5385071,1.538507 C 8.7298747,15.058079 8.9334881,15.25 9.0155263,15.25 c 0.08267,0 0.4560275,-0.362283 3.1641017,-3.070253 z"
       id="path829"
       inkscape:connector-curvature="0" />
    <path
       style="fill:#a9d8fe;stroke-width:0.000357143"
       d="M 2.828125,13.422145 C 2.5945884,13.338847 2.4707998,13.102052 2.5344423,12.86036 2.5624995,12.753809 2.7153617,12.586132 3.5254034,11.773356 l 0.9577866,-0.96102 0.3367006,0.335657 0.3367006,0.335656 -0.9298581,0.932109 C 3.7153113,12.928417 3.2617188,13.36634 3.21875,13.388919 c -0.1313568,0.06903 -0.2596587,0.07994 -0.390625,0.03323 z M 5.1483394,10.820238 4.8125612,10.483416 6.2734681,9.0253812 C 7.5295894,7.7717297 7.7520353,7.5627153 7.8603603,7.5343072 8.2121703,7.4420453 8.5282809,7.7593375 8.4342678,8.1103603 8.4060719,8.2156381 8.1807013,8.4551616 6.9425853,9.6957178 L 5.4841172,11.157061 Z"
       id="path827"
       inkscape:connector-curvature="0" />
    <path
       style="fill:#3298fe;stroke-width:0.000357143"
       d="M 5.8282887,11.500164 5.4853572,11.156166 6.94338,9.6952703 C 8.1970216,8.4391594 8.4060347,8.2167147 8.4344428,8.1083897 8.5267081,7.7565663 8.20937,7.4404263 7.8583897,7.5345119 7.7531406,7.5627256 7.5133209,7.7883444 6.2735063,9.0255478 L 4.8126375,10.483339 4.4998356,10.171711 4.1870338,9.8600831 5.6794544,8.3661666 C 7.042265,7.0019903 7.1908725,6.8627953 7.390625,6.7633794 7.9503194,6.4848216 8.6034344,6.5974456 9.0272872,7.0456072 9.4459778,7.4883109 9.5377109,8.0970038 9.2676647,8.640625 9.1683488,8.8405547 9.0304722,8.9877741 7.66511,10.351769 l -1.4938894,1.492394 z"
       id="path825"
       inkscape:connector-curvature="0" />
    <path
       style="fill:#fea900;stroke-width:0.000357143"
       d="M 7.5940844,13.265959 6.1727366,11.844354 7.6903791,10.320615 C 9.0863003,8.9190847 9.2148969,8.7811231 9.29375,8.6004775 9.5311459,8.0566225 9.4310472,7.4725241 9.0272872,7.0456072 8.6177572,6.6125897 7.9927344,6.4922547 7.4296322,6.7380119 7.2504559,6.8162106 7.1088791,6.9482225 5.7105922,8.3409141 L 4.1868097,9.8585994 2.765269,8.4370588 1.3437283,7.0155178 4.1797325,4.1796422 7.0157366,1.3437664 l 3.8358904,3.8359852 3.83589,3.8359853 -2.836042,2.8359141 -2.8360428,2.835914 z"
       id="path823"
       inkscape:connector-curvature="0" />
    <path
       style="fill:#264cfe;stroke-width:0.000357143"
       d="m 2.7723451,14.405009 c -0.4070918,-0.06844 -0.8203125,-0.38072 -1.0083863,-0.762051 -0.2081391,-0.422015 -0.2083379,-0.83485 -6.03e-4,-1.252333 0.097171,-0.195284 0.2154736,-0.325207 1.1028171,-1.211141 l 0.9939696,-0.992391 0.3114859,0.31266 0.311486,0.312659 -0.9577488,0.960981 c -0.8100083,0.812743 -0.9628662,0.980416 -0.9909233,1.086967 -0.092611,0.351703 0.2250637,0.668177 0.5759179,0.573743 0.1034717,-0.02785 0.283206,-0.192001 1.0850232,-0.99095 l 0.9610085,-0.957571 0.3438556,0.34279 0.3438556,0.342789 -0.992364,0.993943 c -0.887015,0.888426 -1.0155866,1.00547 -1.2111141,1.102523 -0.1996069,0.09908 -0.4989694,0.17481 -0.65625,0.166016 C 2.95,14.431722 2.8545865,14.418836 2.7723451,14.405009 Z"
       id="path821"
       inkscape:connector-curvature="0" />
    <path
       style="fill:#323232;stroke-width:0.000357143"
       d="M 4.8515175,11.179643 C 1.2540705,7.5821166 0.78125,7.0983934 0.78125,7.0155209 0.78125,6.9328031 1.1429946,6.5600253 3.8516216,3.8515031 6.5597725,1.1434569 6.9330516,0.78125 7.0157291,0.78125 c 0.082835,0 0.5670762,0.4733511 4.1640039,4.0703572 C 14.777179,8.4491334 15.25,8.9328566 15.25,9.0157291 c 0,0.082718 -0.361745,0.4554956 -3.070372,3.1640179 C 9.4714775,14.887793 9.0981984,15.25 9.0155209,15.25 8.9326859,15.25 8.4484447,14.776649 4.8515175,11.179643 Z M 10.851627,5.1797516 7.0157366,1.3437664 4.179735,4.1796397 1.3437331,7.0155131 l 3.83589,3.8359849 3.8358903,3.835986 2.8360016,-2.835874 2.836002,-2.8358731 z"
       id="path819"
       inkscape:connector-curvature="0" />
  </g>
</svg>
