<?xml version="1.0" encoding="UTF-8" standalone="no"?>
<!-- Created with Inkscape (http://www.inkscape.org/) -->

<svg
   version="1.1"
   id="svg2"
   width="1600"
   height="1600"
   viewBox="0 0 1600 1600"
   sodipodi:docname="recover_auto.svg"
   inkscape:version="1.2.2 (732a01da63, 2022-12-09)"
   xmlns:inkscape="http://www.inkscape.org/namespaces/inkscape"
   xmlns:sodipodi="http://sodipodi.sourceforge.net/DTD/sodipodi-0.dtd"
   xmlns="http://www.w3.org/2000/svg"
   xmlns:svg="http://www.w3.org/2000/svg"
   xmlns:rdf="http://www.w3.org/1999/02/22-rdf-syntax-ns#"
   xmlns:cc="http://creativecommons.org/ns#"
   xmlns:dc="http://purl.org/dc/elements/1.1/">
  <metadata
     id="metadata8">
    <rdf:RDF>
      <cc:Work
         rdf:about="">
        <dc:format>image/svg+xml</dc:format>
        <dc:type
           rdf:resource="http://purl.org/dc/dcmitype/StillImage" />
      </cc:Work>
    </rdf:RDF>
  </metadata>
  <defs
     id="defs6" />
  <sodipodi:namedview
     pagecolor="#808080"
     bordercolor="#666666"
     borderopacity="1"
     objecttolerance="10"
     gridtolerance="10"
     guidetolerance="10"
     inkscape:pageopacity="0"
     inkscape:pageshadow="2"
     inkscape:window-width="1993"
     inkscape:window-height="1009"
     id="namedview4"
     showgrid="false"
     inkscape:zoom="0.5"
     inkscape:cx="275"
     inkscape:cy="208"
     inkscape:window-x="-8"
     inkscape:window-y="-8"
     inkscape:window-maximized="1"
     inkscape:current-layer="ICON_RECOVER_AUTO"
     inkscape:showpageshadow="0"
     inkscape:pagecheckerboard="true"
     inkscape:deskcolor="#d1d1d1" />
  <g
     id="ICON_RECOVER_AUTO"
     transform="matrix(100,0,0,100,0,4.9999997e-5)"
     style="stroke-width:0.0114286">
    <path
       style="fill:none;stroke-width:0.000357143"
       d="M 0,8 V 0 h 8 8 v 8 8 H 8 0 Z m 6.0648728,6.797743 C 6.4007378,14.750308 6.8631791,14.60966 7.21875,14.4468 7.5909084,14.276342 7.8799303,14.062451 8.2836906,13.658691 8.8417897,13.100592 9.0904019,12.69738 9.2967713,12.015625 9.3592041,11.809375 9.4248975,11.507031 9.4427569,11.34375 9.4824966,10.980426 9.4536828,10.201688 9.391975,9.9712822 L 9.3466213,9.8019394 10.874877,8.2900191 c 0.840541,-0.8315563 1.539504,-1.5147269 1.553252,-1.5181572 0.01375,-0.00343 0.0341,0.085169 0.04522,0.1968881 0.05664,0.5689294 0.270245,0.9823816 0.653194,1.2642928 C 13.393337,8.4294469 13.628309,8.5 14.015625,8.5 14.545863,8.5 14.934259,8.3105788 15.231257,7.9071359 15.44009,7.6234562 15.5,7.4096681 15.5,6.9481316 15.5,6.02185 15.224253,4.9346006 14.752338,4.0001591 14.644308,3.7862466 14.587581,3.6244203 14.549626,3.421875 14.464122,2.9655814 14.332192,2.7286987 13.957628,2.3589307 13.663368,2.0684387 13.619937,2.0376107 13.352263,1.9292432 13.193665,1.8650344 13.019167,1.8125 12.964491,1.8125 12.896231,1.8125 12.776066,1.754886 12.580977,1.6286177 11.764776,1.1003399 10.832425,0.73788384 9.828125,0.55843278 9.4655637,0.49364934 9.3244153,0.48576397 8.515625,0.48510894 7.5613769,0.48433612 7.3744047,0.50100766 6.71875,0.64532887 5.6509591,0.88036856 4.5540003,1.374819 3.7396269,1.9881584 L 3.515625,2.1568638 3.4977941,1.8674944 C 3.48646,1.6835623 3.4559634,1.5176149 3.4140966,1.4120568 3.2670713,1.0413627 2.900705,0.69218494 2.5260308,0.56565547 c -0.2719483,-0.0918384 -0.7488633,-0.0918384 -1.0208116,0 C 1.1077308,0.69988941 0.73113941,1.0764808 0.59690547,1.4739692 0.53253763,1.6645728 0.53125,1.713807 0.53125,3.984375 c 0,2.2705681 0.001287,2.3198022 0.0656555,2.5104056 0.12606484,0.3732985 0.4715123,0.7366394 0.8464013,0.8902431 0.1516674,0.062143 0.236525,0.069401 0.9785682,0.083697 l 0.8125,0.015654 -0.1401123,0.09375 C 2.9203898,7.6944644 2.3354164,8.2799134 2.1861258,8.4870003 1.772645,9.0605559 1.4607605,9.9792803 1.4550228,10.640625 c -0.00352,0.40552 0.00572,0.423245 0.461813,0.886438 0.226209,0.229729 0.4565407,0.437151 0.511848,0.460938 0.1286641,0.05534 0.2959863,0.05514 0.4238824,-4.97e-4 0.055307,-0.02406 0.5434438,-0.488122 1.0847479,-1.03125 L 4.9215028,9.96875 h 0.5479641 0.5479637 l 0.1930013,0.195313 0.1930015,0.195312 -0.028995,0.296875 c -0.015947,0.163281 -0.029376,0.388365 -0.029841,0.500186 L 6.34375,11.359747 5.3562447,12.343936 c -0.5431281,0.541304 -1.0071906,1.029441 -1.03125,1.084748 -0.051832,0.119149 -0.056709,0.31373 -0.010941,0.436469 0.041867,0.112277 0.796024,0.877385 0.9203209,0.933686 0.1236194,0.05599 0.4291269,0.05559 0.8304978,-0.0011 z M 7.5,5.8352925 C 7.5,5.3200434 7.0594897,4.7458072 6.5260306,4.5656556 6.3668569,4.5119016 6.2548234,4.4998963 5.9079947,4.4994281 L 5.484375,4.4988559 5.75,4.3233275 C 6.2736612,3.9772853 6.8660537,3.7337781 7.53833,3.5882216 7.8065234,3.5301544 7.9596925,3.5184741 8.46875,3.5172697 9.0707722,3.5158447 9.3120681,3.5439891 9.7286438,3.6642178 L 9.8479125,3.69864 8.7286438,4.8200094 C 8.1130459,5.4367625 7.5847656,5.9550631 7.5546875,5.9717888 7.5056344,5.9990659 7.5,5.9850025 7.5,5.8352925 Z"
       id="path831"
       inkscape:connector-curvature="0" />
    <path
       style="fill:#fefefe;stroke-width:0.000357143"
       d="m 6.03125,14.135286 c -0.1369922,-0.0465 -0.2963319,-0.161871 -0.2657728,-0.19243 0.00838,-0.0084 7.594e-4,-0.03267 -0.016928,-0.05398 -0.087288,-0.105176 -0.085044,-0.362781 0.0041,-0.470189 0.019941,-0.02403 0.024093,-0.04369 0.00923,-0.04369 -0.014866,0 0.3234697,-0.35071 0.7518578,-0.779355 0.4283882,-0.428646 0.7868766,-0.77722 0.7966407,-0.774611 0.00976,0.0026 0.045878,-0.0099 0.080253,-0.02784 0.058021,-0.03025 0.2461978,-0.03327 0.3624947,-0.0058 0.083831,0.01978 0.2118706,0.115347 0.2667369,0.199084 0.065856,0.100508 0.081263,0.373865 0.028028,0.497251 -0.050262,0.116494 -1.6077225,1.664258 -1.6734432,1.663024 -0.026088,-4.9e-4 -0.082338,0.0075 -0.125,0.0177 -0.042661,0.01023 -0.1408475,-0.0029 -0.2181912,-0.02914 z m -3.4130073,-3.49621 c -0.00882,-0.0088 -0.047499,-0.0221 -0.085953,-0.0295 -0.038454,-0.0074 -0.087354,-0.02794 -0.1086661,-0.04562 -0.021312,-0.01769 -0.045603,-0.0253 -0.05398,-0.01693 -0.031109,0.03111 -0.1461768,-0.129869 -0.1930654,-0.270096 -0.049462,-0.147924 -0.027345,-0.3433383 0.043839,-0.3873323 0.016831,-0.010402 0.024132,-0.029383 0.016223,-0.04218 C 2.2118492,9.8073057 3.7573094,8.2969208 3.878299,8.2430174 3.976061,8.1994624 4.1701706,8.1927284 5.3449859,8.1921354 L 6.6989984,8.1914478 8.7364906,6.1541334 c 1.4363904,-1.436265 2.0500884,-2.0302568 2.0801884,-2.0133928 0.02348,0.013157 0.11521,0.07268 0.203839,0.1322735 l 0.161144,0.1083525 -0.176769,0.1661 c -0.09722,0.091355 -0.853326,0.8387503 -1.6802311,1.6608787 -1.5974963,1.5882688 -1.6043828,1.5963988 -1.5638307,1.8462919 0.00985,0.060705 0.052792,0.1630812 0.095424,0.2275031 L 7.9337687,8.3992706 7.5282394,8.7974481 C 7.3051981,9.0164456 7.114345,9.1872606 7.1041212,9.1770369 7.0938972,9.1668131 7.0563831,9.1740494 7.0207566,9.193115 6.98513,9.2121819 6.8779944,9.2252872 6.7826778,9.2222381 6.6873613,9.2191881 6.5953125,9.2163381 6.578125,9.2159031 6.5609375,9.2154688 6.4554687,9.2158719 6.34375,9.2167969 6.0806594,9.2189781 6.0828606,9.218975 5.625,9.2170781 5.4101562,9.2161875 5.2203125,9.2158937 5.203125,9.216425 5.1859375,9.2169594 4.975,9.2190469 4.734375,9.2210697 l -0.4375,0.00368 -0.6796875,0.6764238 C 3.2433594,10.273202 2.9375,10.566841 2.9375,10.553701 c 0,-0.01314 -0.031641,-0.0041 -0.070312,0.01999 -0.081543,0.05089 -0.2256074,0.08873 -0.2489448,0.06539 z"
       id="path829"
       inkscape:connector-curvature="0" />
    <path
       style="fill:#cbe5fe;stroke-width:0.000357143"
       d="m 5.1062944,13.99691 -0.339961,-0.341019 1.0395619,-1.039909 1.0395619,-1.039909 0.017319,-0.327099 c 0.00953,-0.179905 0.022996,-0.467724 0.029933,-0.639599 0.00694,-0.171875 0.019408,-0.341298 0.027712,-0.376497 0.011632,-0.0493 -0.065389,-0.144172 -0.3354741,-0.4132074 L 6.234375,9.4704597 5.4710581,9.4674691 4.7077412,9.4644784 3.6738303,10.498044 2.6399191,11.531609 2.3043982,11.195045 C 1.9910514,10.880725 1.9688368,10.850251 1.9682635,10.733928 1.9675855,10.596381 1.9844904,10.417383 2.0139666,10.25 c 0.010594,-0.06016 0.02446,-0.145179 0.030815,-0.18894 0.00635,-0.04376 0.033317,-0.1316506 0.059917,-0.1953122 C 2.1312977,9.8020866 2.146386,9.75 2.1382279,9.75 c -0.00816,0 0.00698,-0.042188 0.033647,-0.09375 0.026664,-0.051562 0.040593,-0.09375 0.030953,-0.09375 -0.00964,0 -1.312e-4,-0.031641 0.021132,-0.070312 0.021262,-0.038672 0.041532,-0.087383 0.045044,-0.1082478 0.00351,-0.020864 0.035829,-0.079285 0.071815,-0.1298241 0.035987,-0.050539 0.065431,-0.1053997 0.065431,-0.1219128 0,-0.016513 0.029146,-0.067077 0.064768,-0.1123634 0.035622,-0.045287 0.055407,-0.082339 0.043965,-0.082339 -0.011442,0 0.036756,-0.068748 0.1071069,-0.1527744 C 2.6924405,8.7006997 2.75,8.6194884 2.75,8.6042559 2.75,8.5691575 3.1955631,8.125 3.2307731,8.125 3.2451709,8.125 3.3241356,8.06875 3.40625,8 3.4883644,7.93125 3.5654888,7.875 3.5776378,7.875 c 0.012149,0 0.062932,-0.029083 0.1128506,-0.064628 0.049919,-0.035546 0.090762,-0.055682 0.090762,-0.044747 0,0.010934 0.042695,-0.01052 0.094877,-0.047677 0.052182,-0.037157 0.1119481,-0.070432 0.1328125,-0.073943 0.020864,-0.00351 0.069576,-0.023782 0.1082478,-0.045044 0.038672,-0.021262 0.070312,-0.031924 0.070312,-0.023692 0,0.00823 0.062613,-0.01273 0.13914,-0.046581 C 4.4560272,7.471454 4.5357806,7.467312 5.4644588,7.469601 6.14621,7.471281 6.493926,7.483683 6.5601556,7.508682 l 0.097018,0.03662 0.5545425,-0.5539003 C 7.5167147,6.6867553 7.7801153,6.4375 7.7970506,6.4375 c 0.016936,0 0.6041478,-0.5730469 1.304916,-1.2734375 L 10.376091,3.890625 10.579708,3.9989325 10.783326,4.1072397 8.7412212,6.1493441 6.6991169,8.1914487 5.3450447,8.1921331 c -1.1748694,5.938e-4 -1.3689838,0.00733 -1.466746,0.050882 -0.1209896,0.053904 -1.6664496,1.5642881 -1.6416588,1.6044003 0.00791,0.012797 6.084e-4,0.031778 -0.016223,0.04218 -0.071184,0.043994 -0.093301,0.2394086 -0.043839,0.3873326 0.046889,0.140227 0.1619565,0.301205 0.1930655,0.270096 0.00838,-0.0084 0.032668,-7.6e-4 0.05398,0.01693 0.096886,0.08041 0.3275301,0.08796 0.4398014,0.01439 0.040741,-0.0267 0.074075,-0.03779 0.074075,-0.02464 0,0.01314 0.3058594,-0.280499 0.6796875,-0.6525324 L 4.296875,9.224745 4.734375,9.221065 C 4.975,9.219045 5.1859375,9.216955 5.203125,9.216425 5.220313,9.2158906 5.4101562,9.216175 5.625,9.2170781 c 0.4578606,0.0019 0.4556594,0.0019 0.71875,-2.812e-4 0.1117187,-9.25e-4 0.2171875,-0.00133 0.234375,-8.938e-4 0.017188,4.344e-4 0.1092363,0.00329 0.2045528,0.00633 0.095317,0.00305 0.2024522,-0.010056 0.2380788,-0.029123 0.035626,-0.019067 0.073179,-0.026264 0.083449,-0.015994 0.01027,0.01027 0.2054788,-0.1632406 0.4337966,-0.3855793 L 7.953125,8.3872903 8.0625,8.4435966 c 0.2339203,0.1204225 0.4088047,0.055822 0.7541478,-0.278575 0.1381081,-0.1337307 0.8778938,-0.8653179 1.6439672,-1.6257491 1.075559,-1.0676372 1.402132,-1.3749094 1.433554,-1.3488309 0.0563,0.046728 0.343469,0.638359 0.391968,0.8075518 l 0.03974,0.1386188 -1.785195,1.7676312 -1.7851948,1.7676316 0.077784,0.2314813 c 0.1626503,0.4840387 0.1657678,1.3366087 0.0067,1.8310187 -0.03871,0.120313 -0.072418,0.225781 -0.074907,0.234375 -0.00249,0.0086 -0.01615,0.05781 -0.030359,0.109375 -0.014208,0.05156 -0.04632,0.125391 -0.071359,0.164063 -0.025039,0.03867 -0.035919,0.07031 -0.024179,0.07031 0.011741,0 -0.00774,0.04084 -0.043281,0.09076 -0.035545,0.04992 -0.064688,0.102653 -0.064762,0.117187 -6.25e-5,0.01453 -0.055191,0.09904 -0.1224831,0.187797 -0.067292,0.08875 -0.1149334,0.168786 -0.1058706,0.177849 0.00906,0.0091 -0.1616466,0.194603 -0.379355,0.412312 -0.2177085,0.217708 -0.4032485,0.388418 -0.4123116,0.379355 -0.00906,-0.0091 -0.088232,0.03783 -0.1759303,0.104207 -0.087699,0.06638 -0.1698909,0.114233 -0.1826494,0.106348 -0.012758,-0.0079 -0.032493,7.06e-4 -0.043854,0.01909 -0.035494,0.05743 -0.5833115,0.275302 -0.6324262,0.25152 -0.00448,-0.0022 -0.04796,0.01665 -0.096629,0.04182 -0.048669,0.02517 -0.1575056,0.0539 -0.24186,0.06385 -0.084354,0.01 -0.175159,0.02485 -0.2017887,0.03312 -0.02663,0.0083 -0.1477066,0.02069 -0.26906,0.02762 l -0.2206422,0.0126 z m 1.2681468,0.149813 c 0.065721,0.0012 1.623181,-1.54653 1.6734432,-1.663024 0.053236,-0.123386 0.037828,-0.396743 -0.028028,-0.497251 -0.054866,-0.08374 -0.1829053,-0.179301 -0.2667369,-0.199084 -0.1162969,-0.02744 -0.3044738,-0.02442 -0.3624947,0.0058 -0.034375,0.01792 -0.070489,0.03045 -0.080253,0.02784 -0.00976,-0.0026 -0.3682525,0.345965 -0.7966406,0.774611 C 6.0853431,13.02429 5.7470072,13.375 5.7618734,13.375 c 0.014866,0 0.010714,0.01966 -0.00923,0.04369 -0.089141,0.107408 -0.091386,0.365013 -0.0041,0.470189 0.017688,0.02131 0.025305,0.0456 0.016928,0.05398 -0.00838,0.0084 0.016354,0.04436 0.054958,0.07996 0.093208,0.08596 0.3321431,0.16483 0.4290056,0.14161 0.042662,-0.01023 0.098912,-0.01819 0.125,-0.0177 z"
       id="path827"
       inkscape:connector-curvature="0" />
    <path
       style="fill:#6598fe;stroke-width:0.000357143"
       d="M 8.0300006,8.4280394 C 7.8791538,8.3482697 7.75,8.1481013 7.75,7.9940812 7.75,7.7821769 7.8330712,7.68793 9.3269794,6.2049528 11.027598,4.5167778 11.141039,4.40625 11.173095,4.40625 c 0.05824,0 0.321881,0.2521134 0.502497,0.4805275 l 0.197885,0.2502537 -1.40289,1.3924219 C 9.6989978,7.2952853 8.9547122,8.0312909 8.8166197,8.1650216 8.4589397,8.5114031 8.2927344,8.5669763 8.0300006,8.4280394 Z"
       id="path825"
       inkscape:connector-curvature="0" />
    <path
       style="fill:#00fe00;stroke-width:0.000357143"
       d="m 13.676944,7.9531306 c -0.28463,-0.1080044 -0.543618,-0.3889722 -0.611798,-0.663719 -0.02031,-0.081832 -0.0503,-0.1919725 -0.06666,-0.2447554 -0.01636,-0.052783 -0.02974,-0.1458625 -0.02974,-0.206844 0,-0.3317847 -0.185927,-1.0512506 -0.377085,-1.4591703 C 12.309921,4.7774166 11.767237,4.1410459 11.234375,3.7870359 9.9989506,2.9662749 8.3221716,2.7656728 6.7850122,3.254735 5.9394734,3.5237513 5.15594,4.0200503 4.5170491,4.6912891 L 4.2380872,4.984375 5.2674813,5 c 0.9965456,0.015126 1.0340753,0.017931 1.1761084,0.087891 0.1872581,0.092236 0.3762828,0.281261 0.4685191,0.4685191 0.104034,0.2112097 0.104034,0.6447197 0,0.8559294 -0.092236,0.1872581 -0.281261,0.3762828 -0.4685191,0.4685191 L 6.296875,6.953125 H 4.015625 1.734375 L 1.5876602,6.8808587 C 1.4004023,6.7886225 1.2113775,6.5995978 1.1191412,6.4123397 L 1.046875,6.265625 V 3.984375 1.703125 L 1.119141,1.5564102 C 1.211377,1.3691523 1.4004021,1.1801275 1.58766,1.0878912 c 0.2112099,-0.10403408 0.6447197,-0.10403408 0.8559296,0 0.1872579,0.092236 0.3762827,0.2812611 0.468519,0.468519 0.068992,0.1400673 0.072688,0.1833046 0.081575,0.9542729 l 0.00931,0.8075581 0.2563163,-0.2458146 C 4.6412606,1.7470967 6.3518322,1.0294995 8.2537172,0.97723572 9.4129428,0.94538022 10.328772,1.1133647 11.321288,1.5398997 c 1.312795,0.5641753 2.400297,1.5713492 3.01806,2.7951303 0.519094,1.0283194 0.812624,2.6214462 0.572744,3.1085597 -0.09232,0.1874628 -0.281443,0.3764684 -0.468502,0.4682006 -0.183057,0.089769 -0.582284,0.1112972 -0.766646,0.04134 z"
       id="path823"
       inkscape:connector-curvature="0" />
    <path
       style="fill:#323232;stroke-width:0.000357143"
       d="m 5.234375,14.798839 c -0.1242969,-0.0563 -0.8784538,-0.821409 -0.9203209,-0.933686 -0.045769,-0.122739 -0.040891,-0.31732 0.010941,-0.436469 0.024059,-0.05531 0.4881219,-0.543444 1.03125,-1.084748 L 6.34375,11.359747 6.3445969,11.156436 c 4.656e-4,-0.111821 0.013894,-0.336905 0.029841,-0.500186 L 6.4034334,10.359375 6.2104319,10.164063 6.0174306,9.96875 H 5.4694669 4.9215028 l -0.9841887,0.987505 c -0.5413041,0.543128 -1.0294406,1.007191 -1.0847479,1.03125 -0.1278961,0.05564 -0.2952183,0.05583 -0.4238824,4.97e-4 -0.055307,-0.02379 -0.285639,-0.231209 -0.511848,-0.460937 C 1.4607388,11.06387 1.4515046,11.046145 1.4550228,10.640625 1.4607605,9.9792803 1.772645,9.0605559 2.1861258,8.4870003 2.3314891,8.2853612 2.9167621,7.6994616 3.101833,7.5703125 L 3.2473725,7.46875 3.8502488,7.46997 C 4.4206572,7.47113 4.4472347,7.47379 4.34375,7.519431 4.283594,7.545962 4.2097128,7.572739 4.17957,7.578936 4.149427,7.585136 4.10724,7.601152 4.08582,7.614534 4.0644,7.627916 4.029804,7.641457 4.00894,7.644625 3.988076,7.647795 3.92831,7.680787 3.8761275,7.717944 c -0.052182,0.037159 -0.094877,0.058613 -0.094877,0.047679 0,-0.010934 -0.040843,0.0092 -0.090762,0.044747 C 3.6405697,7.8459175 3.5897869,7.875 3.5776378,7.875 3.5654888,7.875 3.4883644,7.93125 3.40625,8 3.3241356,8.06875 3.2451709,8.125 3.2307731,8.125 3.1955631,8.125 2.75,8.5691575 2.75,8.6042559 2.75,8.6194884 2.6924405,8.7006997 2.6220901,8.7847256 2.5517396,8.8687516 2.5035415,8.9375 2.5149832,8.9375 c 0.011442,0 -0.00834,0.037053 -0.043965,0.082339 -0.035622,0.045286 -0.064768,0.09585 -0.064768,0.1123634 0,0.016513 -0.029444,0.071374 -0.065431,0.1219128 -0.035987,0.050539 -0.068304,0.1089597 -0.071815,0.1298241 -0.00351,0.020864 -0.023782,0.069576 -0.045044,0.1082478 -0.021263,0.038672 -0.030772,0.070312 -0.021132,0.070312 0.00964,0 -0.00429,0.042188 -0.030953,0.09375 C 2.145211,9.7078125 2.1300698,9.75 2.1382279,9.75 c 0.00816,0 -0.00693,0.052087 -0.03353,0.1157478 -0.0266,0.063662 -0.054007,0.1550682 -0.060906,0.2031252 -0.0069,0.04806 -0.020765,0.13308 -0.030815,0.18894 -0.028279,0.157183 -0.045388,0.339363 -0.044714,0.476115 5.734e-4,0.116323 0.022788,0.146797 0.3361347,0.461119 l 0.3355209,0.336564 1.0339112,-1.033565 1.033911,-1.033566 0.7633168,0.00299 0.7633169,0.00299 0.3505728,0.3492109 c 0.2700847,0.2690361 0.3471063,0.3639041 0.3354741,0.4132081 -0.0083,0.0352 -0.020775,0.204622 -0.027712,0.376497 -0.00694,0.171875 -0.020408,0.459694 -0.029933,0.639598 l -0.017319,0.327099 -1.0395619,1.039909 -1.0395619,1.03991 0.339961,0.341018 0.3399609,0.341019 0.2206422,-0.0126 c 0.1213534,-0.0069 0.2424303,-0.01936 0.26906,-0.02762 0.02663,-0.0083 0.1174347,-0.02316 0.2017887,-0.03311 0.084354,-0.01 0.1931913,-0.03869 0.24186,-0.06385 0.048669,-0.02517 0.099183,-0.04588 0.1122538,-0.04603 0.1123272,-0.0013 0.5808284,-0.189107 0.6168012,-0.247312 0.011362,-0.01838 0.031096,-0.02697 0.043854,-0.01909 0.012759,0.0079 0.094951,-0.03997 0.1826494,-0.106348 0.087699,-0.06638 0.1668672,-0.113269 0.1759303,-0.104207 0.00906,0.0091 0.1946031,-0.161646 0.4123116,-0.379355 0.2177084,-0.217708 0.3884181,-0.403248 0.379355,-0.412311 -0.00906,-0.0091 0.038579,-0.08909 0.1058706,-0.177849 0.067292,-0.08875 0.1224091,-0.173263 0.1224831,-0.187797 6.25e-5,-0.01454 0.029217,-0.06727 0.064762,-0.117188 0.035546,-0.04992 0.055022,-0.09076 0.043281,-0.09076 -0.011741,0 -8.594e-4,-0.03164 0.024179,-0.07031 0.025039,-0.03867 0.057151,-0.1125 0.071359,-0.164062 0.014208,-0.05156 0.027869,-0.100782 0.030358,-0.109375 0.00249,-0.0086 0.036197,-0.114063 0.074907,-0.234375 0.159105,-0.494511 0.1559553,-1.347202 -0.00676,-1.8310195 l -0.077853,-0.2314812 1.7670207,-1.75 c 0.971862,-0.9625 1.776992,-1.7539338 1.789178,-1.7587419 0.02287,-0.00902 0.125956,0.4182781 0.125956,0.5221144 0,0.035725 -0.601179,0.653334 -1.54542,1.587655 L 9.346663,9.8020905 9.391997,9.9713599 C 9.453688,10.201703 9.482494,10.980479 9.442759,11.343755 9.4249,11.507036 9.359206,11.80938 9.2967734,12.01563 9.090404,12.697385 8.8417918,13.100596 8.2836927,13.658695 c -0.5398522,0.539853 -0.870519,0.746361 -1.5805656,0.987096 -0.5069397,0.171873 -1.2550825,0.249834 -1.46875,0.153053 z M 6.5549469,7.51328 C 6.5387669,7.4971 6.4768075,7.4805972 6.390625,7.4695128 6.3734375,7.4673034 6.44706,7.4329147 6.5542306,7.3930962 7.0606416,7.2049428 7.4429056,6.7226503 7.4973997,6.203125 l 0.019667,-0.1875 1.171154,-1.1622172 1.1711541,-1.1622175 0.2576222,0.1000509 0.257622,0.100051 -1.2733886,1.2731037 C 8.4008672,5.8646031 7.8136928,6.4375 7.7963987,6.4375 7.779105,6.4375 7.5191628,6.6835937 7.21875,6.984375 6.7245666,7.4791644 6.6111775,7.5695106 6.5549469,7.51328 Z M 14.523014,3.6053356 C 14.32032,3.2239134 13.470192,2.2789688 13.036588,1.953125 12.873102,1.8302683 12.871754,1.8279434 12.958006,1.8175366 c 0.05068,-0.00611 0.213435,0.03978 0.385187,0.1086124 0.279905,0.1121766 0.316039,0.1376604 0.61319,0.4324633 0.228046,0.2262441 0.343486,0.3686058 0.415579,0.512495 0.157876,0.3151024 0.302881,1.0199336 0.151052,0.7342283 z"
       id="path821"
       inkscape:connector-curvature="0" />
    <path
       style="fill:#006500;stroke-width:0.000357143"
       d="M 13.477019,8.4243462 C 13.132506,8.2963447 12.773486,7.9634266 12.642886,7.6508569 12.561255,7.4554866 12.476505,7.0864362 12.45509,6.8330897 12.421898,6.4404112 12.270162,5.8989703 12.094636,5.546875 11.58165,4.5178562 10.699037,3.8725094 9.4145641,3.5872678 8.9651878,3.4874753 7.9992875,3.487845 7.53833,3.5879866 6.8647869,3.7343112 6.2733012,3.9775234 5.75,4.3233278 l -0.265625,0.1755284 0.4236197,5.719e-4 c 0.3468287,4.688e-4 0.4588622,0.012473 0.6180359,0.066228 0.3974885,0.1342338 0.77408,0.5108253 0.9083138,0.9083138 0.091838,0.2719481 0.091838,0.7488631 0,1.0208112 C 7.3001106,6.8922691 6.9235191,7.2688606 6.5260306,7.4030944 6.3354272,7.4674625 6.2861931,7.46875 4.015625,7.46875 1.745057,7.46875 1.6958228,7.4674625 1.5052192,7.4030944 1.1077308,7.2688606 0.73113941,6.8922691 0.59690547,6.4947806 0.53253763,6.3041772 0.53125,6.2549431 0.53125,3.984375 c 0,-2.270568 0.001287,-2.3198022 0.0656555,-2.5104058 0.13423391,-0.3974884 0.5108253,-0.77407979 0.9083137,-0.90831373 0.2719483,-0.0918384 0.7488633,-0.0918384 1.0208116,0 C 2.900705,0.69218494 3.2670713,1.0413627 3.4140966,1.4120568 3.4559634,1.5176149 3.48646,1.6835623 3.4977941,1.8674944 L 3.515625,2.1568638 3.7396269,1.9881584 C 4.6701353,1.2873527 5.858285,0.78883838 7.1468441,0.55858553 7.6113628,0.47558053 8.8153775,0.44217275 9.3504622,0.49744172 10.645118,0.63116694 11.929808,1.1243878 12.927043,1.8705704 c 0.346692,0.2594127 0.999247,0.907303 1.256527,1.2475445 0.526974,0.6969001 0.88735,1.4512042 1.11189,2.3273026 0.211238,0.8241909 0.269323,1.6943641 0.138884,2.0806131 -0.134233,0.3974885 -0.510825,0.77408 -0.908313,0.9083138 -0.282075,0.095258 -0.77845,0.090527 -1.049012,-0.01 z M 14.44359,7.9117903 C 14.630649,7.8200581 14.819776,7.6310525 14.912092,7.4435897 15.151972,6.9564762 14.858442,5.3633494 14.339348,4.33503 13.721585,3.1112489 12.634083,2.104075 11.321288,1.5398997 10.328772,1.1133647 9.4129428,0.94538022 8.2537172,0.97723572 6.3518322,1.0294995 4.6412606,1.7470967 3.2593084,3.0724266 L 3.0029921,3.3182412 2.9936835,2.5106831 C 2.9847968,1.7397148 2.9811007,1.6964775 2.9121088,1.5564103 2.8198725,1.3691523 2.6308477,1.1801275 2.4435898,1.0878912 2.2323799,0.98385712 1.7988701,0.98385712 1.5876603,1.0878912 1.4004023,1.1801275 1.2113775,1.3691523 1.1191412,1.5564103 L 1.046875,1.703125 v 2.28125 2.28125 L 1.119141,6.4123397 C 1.211377,6.5995978 1.4004021,6.7886225 1.58766,6.8808588 l 0.146715,0.072266 h 2.28125 2.28125 L 6.4435897,6.8808587 C 6.6308478,6.7886225 6.8198725,6.5995978 6.9121088,6.4123397 7.0161428,6.20113 7.0161428,5.76762 6.9121088,5.5564103 6.8198725,5.3691522 6.6308478,5.1801275 6.4435897,5.0878912 6.3015566,5.0179309 6.2640269,5.0151262 5.2674813,5 L 4.2380872,4.984375 4.5170491,4.6912891 C 5.6527362,3.4981006 7.1385622,2.9171427 8.828125,3.0056583 c 0.6626753,0.034717 1.298444,0.1968254 1.875,0.4780867 0.831652,0.4057047 1.509312,1.0856462 1.88854,1.8948969 0.191158,0.4079197 0.377085,1.1273856 0.377085,1.4591703 0,0.060981 0.01338,0.1540612 0.02974,0.206844 0.01636,0.052783 0.04635,0.1629229 0.06666,0.2447554 0.06818,0.2747468 0.327168,0.5557146 0.611798,0.663719 0.184362,0.069957 0.583589,0.048429 0.766646,-0.04134 z"
       id="path819"
       inkscape:connector-curvature="0" />
  </g>
</svg>
