<?xml version="1.0" encoding="UTF-8" standalone="no"?>
<!-- Created with Inkscape (http://www.inkscape.org/) -->

<svg
   version="1.1"
   id="svg2"
   width="1600"
   height="1600"
   viewBox="0 0 1600 1600"
   sodipodi:docname="render_result.svg"
   inkscape:version="1.2.2 (732a01da63, 2022-12-09)"
   xmlns:inkscape="http://www.inkscape.org/namespaces/inkscape"
   xmlns:sodipodi="http://sodipodi.sourceforge.net/DTD/sodipodi-0.dtd"
   xmlns="http://www.w3.org/2000/svg"
   xmlns:svg="http://www.w3.org/2000/svg"
   xmlns:rdf="http://www.w3.org/1999/02/22-rdf-syntax-ns#"
   xmlns:cc="http://creativecommons.org/ns#"
   xmlns:dc="http://purl.org/dc/elements/1.1/">
  <metadata
     id="metadata8">
    <rdf:RDF>
      <cc:Work
         rdf:about="">
        <dc:format>image/svg+xml</dc:format>
        <dc:type
           rdf:resource="http://purl.org/dc/dcmitype/StillImage" />
      </cc:Work>
    </rdf:RDF>
  </metadata>
  <defs
     id="defs6" />
  <sodipodi:namedview
     pagecolor="#808080"
     bordercolor="#666666"
     borderopacity="1"
     objecttolerance="10"
     gridtolerance="10"
     guidetolerance="10"
     inkscape:pageopacity="0"
     inkscape:pageshadow="2"
     inkscape:window-width="1993"
     inkscape:window-height="1009"
     id="namedview4"
     showgrid="false"
     inkscape:zoom="0.5"
     inkscape:cx="733"
     inkscape:cy="808"
     inkscape:window-x="-8"
     inkscape:window-y="-8"
     inkscape:window-maximized="1"
     inkscape:current-layer="RENDER_RESULT"
     inkscape:showpageshadow="0"
     inkscape:pagecheckerboard="true"
     inkscape:deskcolor="#d1d1d1" />
  <g
     id="RENDER_RESULT"
     transform="matrix(100,0,0,100,0,4.9999997e-5)"
     style="stroke-width:0.0114286">
    <path
       style="fill:none;stroke-width:0.000357143"
       d="M 15,8 V 0 h 0.5 0.5 v 8 8 H 15.5 15 Z"
       id="path4554"
       inkscape:connector-curvature="0" />
    <path
       style="fill:#fefefe;stroke-width:0.000357143"
       d="M 1,8 V 1 H 7.5 14 v 7 7 H 7.5 1 Z M 13,7.5 V 2 H 7.5 2 V 7.5 13 H 7.5 13 Z M 7.03125,10.806097 C 6.9539062,10.790434 6.8765625,10.773773 6.859375,10.769073 6.521665,10.676726 6.4876031,10.644816 6.3034856,10.248302 6.1043741,9.8194975 6.0467509,9.5452159 6.0477984,9.03125 c 9.25e-4,-0.4536266 0.00878,-0.5365841 0.078434,-0.828125 0.0614,-0.2570013 0.3190528,-0.7637531 0.53052,-1.0434284 0.5846265,-0.7731963 1.7059744,-1.253875 2.640015,-1.1316735 0.3849562,0.050364 0.6563347,0.1293966 0.9844836,0.286706 0.345259,0.1655121 0.454586,0.2510868 0.484123,0.3789443 0.01311,0.056761 0.02808,0.1172641 0.03326,0.1344516 0.04521,0.1500031 0.06818,0.3768428 0.05678,0.5605341 -0.02015,0.324455 -0.0293,0.3935546 -0.07271,0.5488409 -0.02162,0.077344 -0.03836,0.143915 -0.03718,0.1479359 0.0051,0.017582 -0.193064,0.4652635 -0.221568,0.5005016 -0.01738,0.021484 -0.02217,0.039063 -0.01065,0.039063 0.01152,0 -0.02526,0.066797 -0.08173,0.1484375 -0.05648,0.081641 -0.102855,0.1589859 -0.103064,0.1718784 -2.18e-4,0.012892 -0.03905,0.071907 -0.08631,0.1311429 -0.04727,0.059236 -0.08594,0.1236881 -0.08594,0.1432265 0,0.045088 -0.8620558,0.9053152 -0.9072399,0.9053152 -0.01848,0 -0.082066,0.03867 -0.1413018,0.08594 -0.059236,0.04726 -0.1182507,0.08611 -0.1311429,0.08631 -0.012893,2.19e-4 -0.090238,0.04659 -0.1718784,0.103064 -0.081641,0.05648 -0.1484375,0.09326 -0.1484375,0.08173 0,-0.01152 -0.017578,-0.0067 -0.039063,0.01065 -0.035238,0.0285 -0.4829194,0.226689 -0.5005016,0.221568 -0.00402,-0.0012 -0.070592,0.01522 -0.1479359,0.03643 -0.2524497,0.06922 -0.7299528,0.09744 -0.9375,0.05541 z"
       id="path4552"
       inkscape:connector-curvature="0" />
    <path
       style="fill:#fefe00;stroke-width:0.000357143"
       d="M 4,4.5 V 4 H 4.5 5 V 4.5 5 H 4.5 4 Z"
       id="path4550"
       inkscape:connector-curvature="0" />
    <path
       style="fill:#fecb32;stroke-width:0.000357143"
       d="M 4.1285103,5.9506078 C 3.3361416,5.7375131 2.8459467,4.9170816 3.0478497,4.1419234 3.2569144,3.33927 4.0760953,2.8441695 4.8580766,3.0478498 5.6583753,3.2563013 6.1557937,4.0762359 5.9533853,4.8533344 5.7424103,5.6633228 4.91352,6.1617234 4.1285103,5.9506078 Z M 5,4.5 V 4 H 4.5 4 V 4.5 5 H 4.5 5 Z"
       id="path4548"
       inkscape:connector-curvature="0" />
    <path
       style="fill:#3298fe;stroke-width:0.000357143"
       d="M 2,6 V 2 H 7.5 13 v 4 4 h -0.327352 -0.327351 l 0.03082,-0.081061 c 0.01695,-0.044584 0.0517,-0.2098182 0.07723,-0.3671875 C 12.695272,8.0600944 11.933116,6.5643294 10.585929,5.8868716 9.5613712,5.3716537 8.4385419,5.3721769 7.4107781,5.8883497 6.0680697,6.5626981 5.3050647,8.0621688 5.5466578,9.55175 c 0.025523,0.1573694 0.060275,0.3226038 0.077226,0.3671875 L 5.6547031,10 H 3.8273516 2 Z M 4.8580766,5.95215 C 5.3970516,5.811765 5.8122331,5.3952541 5.9533853,4.8533344 6.1557937,4.0762359 5.6583753,3.2563012 4.8580766,3.0478497 4.0760953,2.8441695 3.2569144,3.33927 3.0478498,4.1419234 2.7693224,5.2112622 3.7887378,6.2306775 4.8580766,5.95215 Z"
       id="path4546"
       inkscape:connector-curvature="0" />
    <path
       style="fill:#989898;stroke-width:0.000357143"
       d="m 8.59375,11.950384 c -0.1117187,-0.01972 -0.2523437,-0.0455 -0.3125,-0.0573 C 8.1266009,11.862754 7.6802322,11.677056 7.5107169,11.572528 7.4320894,11.524044 7.3379291,11.467354 7.3014722,11.446551 7.1250734,11.345893 6.5291162,10.741717 6.5679356,10.702898 c 0.00788,-0.0079 0.062616,2.5e-4 0.1216341,0.0181 0.2943444,0.08896 0.4899406,0.117453 0.7134937,0.103954 0.3107007,-0.01876 0.4115532,-0.032 0.5656866,-0.07426 0.077344,-0.02121 0.140625,-0.0362 0.140625,-0.03332 0,0.01281 0.4728409,-0.196391 0.5078125,-0.224679 0.021484,-0.01738 0.039063,-0.02217 0.039063,-0.01065 0,0.01152 0.066797,-0.02526 0.1484375,-0.08173 0.081641,-0.05648 0.1589859,-0.102855 0.1718784,-0.103064 0.012892,-2.18e-4 0.071907,-0.03905 0.1311429,-0.08631 0.059236,-0.04727 0.1228218,-0.08594 0.1413018,-0.08594 0.045184,0 0.9072399,-0.8602269 0.9072399,-0.9053147 0,-0.019538 0.03867,-0.083991 0.08594,-0.1432266 0.04726,-0.059236 0.08611,-0.1182506 0.08631,-0.1311428 2.19e-4,-0.012893 0.04659,-0.090238 0.103064,-0.1718784 C 10.488044,8.6917969 10.524824,8.625 10.5133,8.625 c -0.01152,0 -0.0067,-0.017578 0.01065,-0.039063 0.03197,-0.039518 0.221941,-0.4738034 0.225775,-0.5161266 0.0011,-0.012615 0.01788,-0.079186 0.03718,-0.1479359 0.03915,-0.1393838 0.04864,-0.2132856 0.06851,-0.5332159 0.01465,-0.2358544 -0.01286,-0.4320329 -0.101648,-0.725061 l -0.03092,-0.1020265 0.190776,0.1489015 c 0.262531,0.204906 0.560071,0.5887675 0.745204,0.9614019 0.437057,0.8797062 0.443024,1.7462534 0.01807,2.6250005 -0.353778,0.731571 -0.995424,1.291627 -1.7693345,1.544349 -0.4022422,0.131354 -0.9365237,0.175744 -1.3138175,0.109159 z"
       id="path4544"
       inkscape:connector-curvature="0" />
    <path
       style="fill:#323232;stroke-width:0.000357143"
       d="M 0,8 V 0 H 7.5 15 v 8 8 H 7.5 0 Z M 14,8 V 1 H 7.5 1 v 7 7 H 7.5 14 Z M 8.4375,12.45383 C 7.5484,12.302993 6.7455284,11.818877 6.213275,11.112668 5.0503344,9.5696456 5.3530078,7.3696594 6.8873316,6.213275 8.4303544,5.0503344 10.630341,5.3530078 11.786725,6.8873316 c 0.944076,1.2526265 0.944076,2.9727103 0,4.2253364 -0.77,1.021659 -2.0979878,1.553437 -3.349225,1.341162 z M 9.5013175,11.940681 C 10.195935,11.826672 10.928901,11.388725 11.342952,10.840303 11.693474,10.376028 11.895698,9.8797991 11.971977,9.2967669 12.062869,8.6020384 11.827068,7.8009219 11.342952,7.1596966 10.759461,6.3868478 9.6373925,5.9058059 8.7032331,6.0280231 8.5400113,6.0493778 8.3114956,6.0936397 8.1954206,6.1263831 7.8784625,6.2157928 7.3906309,6.4715756 7.1071822,6.6969741 6.5965053,7.103065 6.1932891,7.7910747 6.0688119,8.46875 c -0.011049,0.060156 -0.020506,0.3132812 -0.021014,0.5625 -7.781e-4,0.3819647 0.010619,0.4945731 0.072573,0.7170522 0.081743,0.2935418 0.253184,0.6834058 0.3674306,0.8355508 0.041084,0.05471 0.074698,0.114998 0.074698,0.133969 0,0.04752 0.6212428,0.668355 0.7230863,0.722617 0.045354,0.02416 0.1467278,0.08361 0.2252756,0.132089 0.1692428,0.104465 0.6156215,0.290203 0.7703881,0.320557 0.5174181,0.10148 0.8198813,0.11328 1.2200675,0.0476 z"
       id="path4542"
       inkscape:connector-curvature="0" />
    <path
       style="fill:#006500;stroke-width:0.000357143"
       d="M 2,11.5 V 10 h 1.8231784 1.8231785 l 0.035535,0.118605 c 0.062415,0.208324 0.3361737,0.734005 0.4915515,0.943895 0.5536716,0.747921 1.3649219,1.243262 2.2789738,1.391517 1.2637103,0.204967 2.5628158,-0.318509 3.3369838,-1.344642 0.185682,-0.246116 0.45913,-0.758544 0.528707,-0.99077 L 12.353643,10 H 12.676822 13 V 11.5 13 H 7.5 2 Z"
       id="path4540"
       inkscape:connector-curvature="0" />
  </g>
</svg>
