<?xml version="1.0" encoding="UTF-8" standalone="no"?>
<!-- Created with Inkscape (http://www.inkscape.org/) -->

<svg
   version="1.1"
   id="svg2"
   width="1600"
   height="1600"
   viewBox="0 0 1600 1600"
   sodipodi:docname="render_ani_view.svg"
   inkscape:version="1.2.2 (732a01da63, 2022-12-09)"
   xmlns:inkscape="http://www.inkscape.org/namespaces/inkscape"
   xmlns:sodipodi="http://sodipodi.sourceforge.net/DTD/sodipodi-0.dtd"
   xmlns="http://www.w3.org/2000/svg"
   xmlns:svg="http://www.w3.org/2000/svg"
   xmlns:rdf="http://www.w3.org/1999/02/22-rdf-syntax-ns#"
   xmlns:cc="http://creativecommons.org/ns#"
   xmlns:dc="http://purl.org/dc/elements/1.1/">
  <metadata
     id="metadata8">
    <rdf:RDF>
      <cc:Work
         rdf:about="">
        <dc:format>image/svg+xml</dc:format>
        <dc:type
           rdf:resource="http://purl.org/dc/dcmitype/StillImage" />
      </cc:Work>
    </rdf:RDF>
  </metadata>
  <defs
     id="defs6" />
  <sodipodi:namedview
     pagecolor="#808080"
     bordercolor="#666666"
     borderopacity="1"
     objecttolerance="10"
     gridtolerance="10"
     guidetolerance="10"
     inkscape:pageopacity="0"
     inkscape:pageshadow="2"
     inkscape:window-width="1993"
     inkscape:window-height="1009"
     id="namedview4"
     showgrid="false"
     inkscape:zoom="0.5"
     inkscape:cx="243"
     inkscape:cy="534"
     inkscape:window-x="-8"
     inkscape:window-y="-8"
     inkscape:window-maximized="1"
     inkscape:current-layer="RENDER_ANI_VIEW"
     inkscape:showpageshadow="0"
     inkscape:pagecheckerboard="true"
     inkscape:deskcolor="#d1d1d1" />
  <g
     id="RENDER_ANI_VIEW"
     transform="matrix(100,0,0,100,0,4.9999997e-5)"
     style="stroke-width:0.0114286">
    <path
       style="fill:none;stroke-width:0.000357143"
       d="M 7,15.53125 V 15.0625 H 8 9 V 15.53125 16 H 8 7 Z m -5.9984424,-3.414062 0.00156,-2.882813 0.061638,0.1269219 C 1.1551012,9.5473353 1.3894923,9.713615 1.6224596,9.75694 L 1.8125,9.7922816 V 12.396141 15 H 1.40625 1 L 1.00156,12.117188 Z M 14.1875,11.0625 V 7.125 H 9.3479975 4.5084953 L 4.4891466,6.9838366 C 4.478505,6.9061966 4.4467141,6.7980337 4.4185006,6.7434747 4.3313578,6.5749591 4.3099591,6.46875 4.3631497,6.46875 c 0.025458,0 0.1784469,-0.05625 0.3399753,-0.125 0.1615284,-0.06875 0.3100272,-0.125 0.3299969,-0.125 0.01997,0 0.1577962,-0.047151 0.3062809,-0.1047806 C 5.4878875,6.05634 5.6867188,5.9839444 5.78125,5.95309 5.8757812,5.9222359 5.9671875,5.8870953 5.984375,5.875 6.0015625,5.8629047 6.0929687,5.8278172 6.1875,5.7970278 6.2820312,5.7662381 6.4789062,5.69579 6.625,5.6404759 6.7710938,5.5851622 6.9328125,5.5298422 6.984375,5.5175428 7.0359375,5.5052434 7.1203125,5.4763237 7.171875,5.4532766 7.4365219,5.3349866 7.5747206,5.28125 7.6142891,5.28125 c 0.044613,0 0.3880759,-0.1328319 0.4868493,-0.1882853 0.029845,-0.016756 0.080057,-0.030465 0.1115819,-0.030465 0.031525,0 0.1889263,-0.05625 0.3497797,-0.125 0.1608534,-0.06875 0.3155875,-0.125 0.3438531,-0.125 0.028266,0 0.1649682,-0.049219 0.3037835,-0.109375 0.1388153,-0.060156 0.2729509,-0.109375 0.2980793,-0.109375 0.025129,0 0.1495754,-0.043324 0.2765485,-0.096276 C 9.9117378,4.4445225 10.128125,4.3624478 10.265625,4.3150862 10.627672,4.1903797 10.789848,4.1312294 11.141215,3.9957344 11.313414,3.9293306 11.470893,3.875 11.491168,3.875 c 0.02027,0 0.167666,-0.050753 0.327535,-0.1127834 0.15987,-0.062031 0.368016,-0.1414122 0.462547,-0.1764029 0.09453,-0.034991 0.230869,-0.089707 0.302973,-0.1215915 0.0721,-0.031885 0.15185,-0.057972 0.177213,-0.057972 0.02536,0 0.162817,-0.049219 0.305453,-0.109375 0.142636,-0.060156 0.283225,-0.109375 0.312419,-0.109375 0.07809,0 0.151942,-0.033505 0.151942,-0.068933 0,-0.017048 -0.02022,-0.075309 -0.04492,-0.1294691 C 13.382133,2.7607072 13.28125,2.4987282 13.28125,2.456541 13.28125,2.431603 13.23203,2.2944965 13.171875,2.1518606 13.111719,2.0092246 13.0625,1.8632674 13.0625,1.8275112 c 0,-0.035756 -0.01127,-0.078371 -0.02505,-0.094699 -0.02475,-0.029334 -0.184427,-0.4344681 -0.2488,-0.63125 L 12.755429,1 H 13.877714 15 V 4 7 H 15.5 16 V 8 9 H 15.5 15 v 3 3 H 14.59375 14.1875 Z M 0,8 V 7 H 0.46875 0.9375 V 8 9 H 0.46875 0 Z M 1.0041138,3.0234375 1,1 H 4 7 V 0.5 0 H 8 9 V 0.5 1 l 1.320313,0.00212 c 0.726171,0.00116 1.292187,0.013103 1.257812,0.026532 -0.03438,0.013429 -0.125781,0.045783 -0.203125,0.071897 -0.317523,0.1072072 -0.56302,0.1966554 -0.852196,0.3105025 -0.167927,0.066112 -0.324342,0.1202033 -0.34759,0.1202033 -0.0386,0 -0.1873202,0.058226 -0.4455618,0.1744365 -0.05416,0.024372 -0.1174413,0.044162 -0.140625,0.043977 C 9.5658434,1.7494792 9.40625,1.8040199 9.234375,1.8708666 9.0625,1.9377133 8.8515625,2.017243 8.765625,2.0475992 8.5504153,2.1236188 7.9792819,2.3297991 7.640625,2.4537263 7.4859375,2.5103323 7.2328125,2.6004329 7.078125,2.6539498 6.9234375,2.7074668 6.76875,2.7641251 6.734375,2.7798573 6.5109928,2.8820912 6.3580194,2.9375 6.2991525,2.9375 c -0.037346,0 -0.081262,0.011271 -0.09759,0.025047 -0.032926,0.027779 -0.4595303,0.1942271 -0.6546875,0.2554396 -0.06875,0.021564 -0.1671875,0.058151 -0.21875,0.081305 -0.051563,0.023154 -0.2203125,0.086308 -0.375,0.1403416 C 4.7984375,3.4936666 4.5453125,3.583625 4.390625,3.6395397 4.2359375,3.6954547 4.0179687,3.7732569 3.90625,3.8124338 3.5663428,3.9316306 3.2048244,4.0734728 3.1734375,4.0999534 3.1571094,4.1137291 3.1154512,4.125 3.0808638,4.125 c -0.034587,0 -0.1829467,0.047109 -0.3296875,0.1046866 -0.48731,0.1912087 -0.5770442,0.2154003 -0.8825634,0.2379306 -0.1667942,0.0123 -0.3214817,0.03696 -0.34375,0.054799 -0.022268,0.017839 -0.075644,0.043022 -0.1186129,0.055961 -0.123201,0.0371 -0.3569623,0.2680665 -0.3786987,0.3741712 -0.010628,0.05188 -0.021175,-0.81622 -0.023437,-1.9291109 z"
       id="path831"
       inkscape:connector-curvature="0" />
    <path
       style="fill:#fefefe;stroke-width:0.000357143"
       d="M 0,12.5 V 9 H 0.5 1 v 3 3 H 4 7 V 15.5 16 H 3.5 0 Z m 9,3 V 15 h 3 3 V 12 9 H 15.5 16 V 12.5 16 H 12.5 9 Z M 4.5,8.4375 V 8 H 4.921875 5.34375 V 8.4375 8.875 H 4.921875 4.5 Z m 2.625,0 V 8 H 8 8.875 V 8.4375 8.875 H 8 7.125 Z m 3.53125,0 V 8 h 0.875 0.875 V 8.4375 8.875 h -0.875 -0.875 z M 0,3.5 V 0 H 3.5 7 V 0.5 1 H 4 1 V 4 7 H 0.5 0 Z M 15,4 V 1 H 12 9 V 0.5 0 H 12.5 16 V 3.5 7 H 15.5 15 Z M 3.875,5.6436272 C 3.875,5.6194969 3.8257813,5.5126772 3.765625,5.40625 3.7054688,5.2998228 3.65625,5.1962675 3.65625,5.1761272 c 0,-0.02014 -0.035156,-0.088356 -0.078125,-0.15159 C 3.5351563,4.9613028 3.5,4.9040394 3.5,4.8972847 3.5,4.8905303 3.5597656,4.8671316 3.6328125,4.8452881 3.7058594,4.8234447 3.8710938,4.7655378 4,4.7166062 4.1289062,4.667675 4.3212097,4.6007244 4.4273406,4.5678275 l 0.1929657,-0.059813 0.076082,0.17568 c 0.041845,0.096624 0.1004804,0.2600553 0.1303007,0.3631803 0.02982,0.103125 0.067363,0.2034994 0.083429,0.2230541 0.020581,0.02505 -0.05046,0.068905 -0.2404525,0.1484375 C 4.5213509,5.4804525 4.3798906,5.53125 4.3553094,5.53125 4.3307284,5.53125 4.2270891,5.566406 4.125,5.609375 3.9113844,5.699285 3.875,5.70427 3.875,5.6436272 Z M 6.5309888,4.5702559 C 6.4967575,4.4928703 6.46875,4.4121831 6.46875,4.3909506 6.46875,4.3697181 6.4265625,4.2500403 6.375,4.125 6.2665841,3.8620884 6.2693475,3.875 6.3214916,3.875 6.3436244,3.875 6.4802031,3.8257813 6.625,3.765625 6.7697969,3.7054688 6.9067994,3.65625 6.9294503,3.65625 c 0.03869,0 0.3078931,-0.10448 0.5283975,-0.2050759 0.05416,-0.024708 0.1197909,-0.044924 0.1458466,-0.044924 0.026056,0 0.1114537,-0.027468 0.1897734,-0.06104 l 0.1423997,-0.061039 0.060104,0.1358757 c 0.033058,0.074732 0.077821,0.19009 0.099474,0.2563522 0.021653,0.066262 0.065089,0.1943043 0.096523,0.2845387 0.044241,0.1269953 0.047906,0.1640625 0.01622,0.1640625 -0.022514,0 -0.15451,0.049219 -0.2933254,0.109375 -0.1388153,0.060156 -0.2730975,0.109375 -0.298405,0.109375 -0.040148,0 -0.2125725,0.065762 -0.4133334,0.1576428 -0.034375,0.015732 -0.1856644,0.06932 -0.3361987,0.1190838 l -0.2736991,0.09048 z M 9.8671131,3.3996612 C 9.8410322,3.3431288 9.80213,3.240625 9.7806638,3.171875 9.7591975,3.103125 9.7153916,2.9782028 9.6833172,2.8942702 9.6512428,2.8103376 9.625,2.7301363 9.625,2.7160451 c 0,-0.033886 0.240475,-0.1398698 0.53125,-0.2341373 0.128906,-0.041791 0.2625,-0.089219 0.296875,-0.105396 0.100881,-0.047476 0.358852,-0.1441067 0.589097,-0.2206642 0.249836,-0.083072 0.237806,-0.09142 0.338328,0.2347774 0.03708,0.1203125 0.09287,0.275 0.123994,0.34375 0.07137,0.1576659 0.0721,0.2031606 0.0033,0.2029873 -0.03008,-7.5e-5 -0.195313,0.054191 -0.367188,0.1205923 -0.171875,0.066402 -0.389844,0.1458904 -0.484375,0.176642 -0.09453,0.030752 -0.185937,0.066424 -0.203125,0.079272 -0.01719,0.012848 -0.129687,0.053884 -0.25,0.091192 -0.120313,0.037307 -0.2344644,0.074482 -0.2536712,0.08261 -0.019207,0.00813 -0.05626,-0.031476 -0.082341,-0.088008 z"
       id="path829"
       inkscape:connector-curvature="0" />
    <path
       style="fill:#98cbfe;stroke-width:0.000357143"
       d="M 1.8125,7.1241647 V 5.3420791 l 0.4602606,0.00865 0.4602606,0.00865 L 3.1790106,6.24782 3.625,7.1362647 V 8.0212575 8.90625 H 2.71875 1.8125 Z"
       id="path827"
       inkscape:connector-curvature="0" />
    <path
       style="fill:#cbcbcb;stroke-width:0.000357143"
       d="M 2.6875,11.98939 V 9.7912803 l 0.8203125,-0.020576 c 0.4511719,-0.011317 2.8347656,-0.020605 5.296875,-0.02064 L 13.28125,9.75 v 2.21875 2.21875 H 7.984375 2.6875 Z"
       id="path825"
       inkscape:connector-curvature="0" />
    <path
       style="fill:#0065fe;stroke-width:0.000357143"
       d="M 1.5495094,9.7462734 C 1.270201,9.6807672 1,9.3677634 1,9.1097156 1,9.0493719 0.9859375,9 0.96875,9 0.94856772,9 0.9375,8.6458334 0.9375,8 0.9375,7.3541666 0.94856772,7 0.96875,7 0.98890803,7 1,6.6578044 1,6.0359131 1,5.4020641 1.0121091,5.03544 1.0353509,4.9656006 1.0715648,4.8567819 1.2995912,4.5939034 1.358069,4.5935575 1.3759748,4.5934638 1.4328125,4.5688422 1.484375,4.53887 1.5658063,4.4915356 1.6684622,4.484375 2.265625,4.484375 h 0.6875 l 0.1824856,0.089531 c 0.1433138,0.070312 0.2154935,0.1340385 0.336256,0.296875 0.084574,0.1140394 0.1627906,0.2414063 0.173815,0.2830375 0.011025,0.041631 0.067131,0.1589978 0.1246815,0.2608147 C 3.8279134,5.5164494 3.875,5.6135278 3.875,5.6303622 3.875,5.6471969 3.93125,5.7572837 4,5.875 c 0.06875,0.1177162 0.125,0.2278031 0.125,0.2446378 0,0.016834 0.045703,0.1128184 0.1015625,0.2132975 C 4.2824219,6.4334147 4.3471984,6.5648437 4.3705103,6.625 4.50709,6.9774437 4.5033553,6.9339459 4.4936744,8.05945 l -0.0093,1.081175 -0.1035681,0.1953125 c -0.056963,0.1074219 -0.1132125,0.1953456 -0.125,0.1953859 -0.011787,3.13e-5 -0.070148,0.041709 -0.1296897,0.092596 -0.061578,0.052629 -0.1734063,0.1064953 -0.25935,0.1249269 C 3.68019,9.78886 1.7218201,9.7866853 1.5495094,9.7462744 Z M 3.625,8.0212575 V 7.1362647 L 3.1790106,6.24782 2.7330212,5.359375 2.2727606,5.3507272 1.8125,5.3420791 V 7.1241647 8.90625 H 2.71875 3.625 Z"
       id="path823"
       inkscape:connector-curvature="0" />
    <path
       style="fill:#656565;stroke-width:0.000357143"
       d="m 4.0062722,9.7055847 c 0.046418,-0.024217 0.1158672,-0.073348 0.15433,-0.1091825 0.038463,-0.035834 0.080441,-0.065152 0.093285,-0.065152 0.043843,0 0.2168059,-0.3804519 0.2357297,-0.5185159 L 4.5084953,8.875 H 4.9261225 5.34375 V 9.3125 9.75 L 4.6328125,9.7498125 C 4.0021097,9.7496563 3.9314,9.7446509 4.0062722,9.7055897 Z M 7.125,9.3125 V 8.875 H 8 8.875 V 9.3125 9.75 H 8 7.125 Z m 3.53125,0 V 8.875 h 0.875 0.875 V 9.3125 9.75 h -0.875 -0.875 z M 4.2109375,6.3041178 C 4.1636719,6.2136519 4.125,6.1281609 4.125,6.1141378 4.125,6.100115 4.0751938,6.0036597 4.0143191,5.8997934 3.9534447,5.7959269 3.9077416,5.7071478 3.9127566,5.7025069 3.9402325,5.6770803 4.3176325,5.53125 4.3559591,5.53125 4.3808971,5.53125 4.5174794,5.482252 4.659475,5.4223659 4.8014706,5.36248 4.9202919,5.3167769 4.9235222,5.3208034 4.9480078,5.3513269 5.0625,5.6411503 5.0625,5.6726094 c 0,0.021816 0.040614,0.1394662 0.090254,0.2614456 L 5.243008,6.1558359 5.1136911,6.1923539 C 5.0425671,6.2124389 4.855013,6.2828439 4.6969051,6.3488108 4.538797,6.4147778 4.3841095,6.4687171 4.3531551,6.4686761 4.3169971,6.4686136 4.2661481,6.4097931 4.2109375,6.3041178 Z M 6.8066616,5.3069381 C 6.7604816,5.1810909 6.7059144,5.021875 6.6854012,4.953125 6.6648881,4.884375 6.6346644,4.8111628 6.6182372,4.7904312 6.5683856,4.7275178 6.6123813,4.6988569 6.8979056,4.6082412 7.0485887,4.5604194 7.1929688,4.5101112 7.21875,4.4964453 7.3298166,4.4375716 7.5741831,4.34375 7.6164584,4.34375 c 0.025308,0 0.1595897,-0.049219 0.298405,-0.109375 C 8.0536788,4.1742187 8.1893966,4.125 8.2164584,4.125 c 0.034244,0 0.078658,0.087889 0.1460791,0.2890625 0.053282,0.1589844 0.1199972,0.3411709 0.1482572,0.4048591 l 0.051382,0.1157968 -0.1444357,0.063891 c -0.07944,0.03514 -0.170964,0.063891 -0.2033875,0.063891 -0.032423,0 -0.08337,0.013709 -0.113215,0.030465 C 8.002365,5.1484181 7.6589016,5.28125 7.6142891,5.28125 c -0.040026,0 -0.18708,0.057385 -0.4477316,0.1747187 -0.054487,0.024528 -0.1388625,0.052513 -0.1875,0.062189 -0.085358,0.016982 -0.091351,0.00964 -0.1723959,-0.2112196 z m 3.3791014,-1.04898 C 10.16841,4.2106125 10.121421,4.0875 10.081343,3.984375 10.041265,3.88125 9.9864409,3.7308719 9.9595119,3.6502009 L 9.91055,3.5035272 10.041213,3.4568097 c 0.07186,-0.025694 0.186912,-0.063477 0.255662,-0.083961 0.06875,-0.020484 0.139063,-0.047391 0.15625,-0.059792 0.01719,-0.012402 0.108594,-0.047708 0.203125,-0.07846 0.09453,-0.030752 0.3125,-0.1102405 0.484375,-0.176642 0.171875,-0.066402 0.341883,-0.1206681 0.377796,-0.1205923 0.06462,1.375e-4 0.137829,0.109382 0.137829,0.2056749 0,0.044342 0.120418,0.3577722 0.194154,0.5053531 0.01931,0.038646 0.02923,0.074845 0.02204,0.080442 C 11.837423,3.7561028 11.530235,3.875 11.494797,3.875 c -0.02227,0 -0.181383,0.054331 -0.353582,0.1207344 -0.1722,0.066404 -0.376371,0.142764 -0.453715,0.1696894 -0.07734,0.026925 -0.214776,0.078129 -0.305406,0.1137859 l -0.16478,0.064831 z"
       id="path821"
       inkscape:connector-curvature="0" />
    <path
       style="fill:#323232;stroke-width:0.000357143"
       d="M 7,15.03125 C 7,15.010668 6.1145834,15 4.40625,15 H 1.8125 V 12.390625 9.78125 H 2.25 2.6875 V 11.984375 14.1875 H 7.984375 13.28125 V 11.96875 9.75 h -0.4375 -0.4375 V 8.875 8 h -0.875 -0.875 V 8.875 9.75 H 9.765625 8.875 V 8.875 8 H 8 7.125 V 8.875 9.75 H 6.234375 5.34375 V 8.875 8 H 4.921875 4.5 V 7.5625 7.125 H 9.34375 14.1875 V 11.0625 15 H 11.59375 C 9.8854166,15 9,15.010668 9,15.03125 9,15.05143 8.6458334,15.0625 8,15.0625 c -0.6458334,0 -1,-0.01107 -1,-0.03125 z M 5.2074628,6.0681169 C 5.1844334,6.0220587 5.1405772,5.9070312 5.1100041,5.8125 5.0477294,5.6199481 4.9840869,5.4514756 4.9030059,5.2645409 4.8729275,5.1951947 4.8384941,5.0967572 4.8264869,5.0457909 4.8144797,4.9948247 4.7636147,4.8528391 4.7134537,4.7302669 L 4.6222522,4.5074091 4.4283134,4.5675247 C 4.3216472,4.6005881 4.1289062,4.667675 4,4.7166062 3.8710937,4.7655378 3.7065659,4.8232112 3.6343828,4.84477 L 3.5031403,4.8839672 3.3687578,4.7460109 C 3.1648362,4.5366662 2.9570531,4.4693581 2.5050317,4.4662203 l -0.3644067,-0.00253 0.125,-0.059151 c 0.06875,-0.032533 0.1484959,-0.05952 0.1772132,-0.059971 0.028717,-4.5e-4 0.1689153,-0.050038 0.3115512,-0.1101944 C 2.8970254,4.1742187 3.0429826,4.125 3.0787388,4.125 c 0.035756,0 0.078371,-0.011271 0.094699,-0.025047 0.031387,-0.026481 0.3929053,-0.1683228 0.7328125,-0.2875197 0.1117188,-0.039177 0.3296875,-0.116979 0.484375,-0.172894 0.1546875,-0.055915 0.4078125,-0.1458731 0.5625,-0.1999072 0.1546875,-0.054034 0.3234375,-0.1171878 0.375,-0.1403416 0.051563,-0.023154 0.15,-0.059741 0.21875,-0.081305 0.1951569,-0.061212 0.6217616,-0.22766 0.6546872,-0.2554388 0.016328,-0.013776 0.060244,-0.025047 0.09759,-0.025047 0.058867,0 0.2118403,-0.055409 0.4352225,-0.1576427 C 6.76875,2.7641251 6.9234375,2.7074668 7.078125,2.6539498 7.2328125,2.6004329 7.4859375,2.5103323 7.640625,2.4537263 7.9792819,2.3297991 8.5504153,2.1236188 8.765625,2.0475992 8.8515625,2.017243 9.0625,1.9377133 9.234375,1.8708666 9.40625,1.8040199 9.5658434,1.7494785 9.5890272,1.7496635 9.6122109,1.7498479 9.6754922,1.7300589 9.7296522,1.7056865 9.9886041,1.589156 10.136677,1.53125 10.175708,1.53125 c 0.02352,0 0.179936,-0.05625 0.34759,-0.1249996 0.167655,-0.06875 0.31889,-0.1248834 0.336077,-0.1247413 0.01719,1.406e-4 0.157813,-0.047636 0.3125,-0.106174 0.460093,-0.1741108 0.491814,-0.17916238 1.061779,-0.1690877 l 0.530529,0.00938 0.02837,0.09375 c 0.04767,0.1575509 0.218302,0.5919115 0.2449,0.6234375 0.01378,0.016328 0.02505,0.058942 0.02505,0.094699 0,0.035756 0.04922,0.1817134 0.109375,0.3243494 0.06016,0.1426359 0.109375,0.2797421 0.109375,0.3046804 0,0.042187 0.100883,0.3041662 0.205076,0.5325568 0.02471,0.05416 0.04492,0.1124211 0.04492,0.1294691 0,0.035428 -0.07385,0.068933 -0.151942,0.068933 -0.02919,0 -0.169783,0.049219 -0.312419,0.109375 -0.142636,0.060156 -0.280708,0.109375 -0.306828,0.109375 -0.02612,0 -0.0918,0.020215 -0.145963,0.044923 -0.203972,0.093051 -0.354166,0.1513838 -0.53515,0.2078441 -0.176212,0.054972 -0.188435,0.055212 -0.218046,0.0043 -0.05096,-0.087631 -0.204652,-0.4767532 -0.204652,-0.5181588 0,-0.020976 -0.0475,-0.1524634 -0.105548,-0.2921947 C 11.49265,2.7132291 11.41545,2.5028222 11.379146,2.3853893 11.280119,2.0650605 11.291645,2.0729131 11.042222,2.1558476 10.811977,2.2324051 10.554006,2.3290361 10.453125,2.3765118 10.41875,2.392689 10.285156,2.4401172 10.15625,2.4819078 9.865475,2.5761753 9.625,2.6821596 9.625,2.7160451 c 0,0.014091 0.026269,0.094292 0.058375,0.1782251 0.032106,0.083933 0.083408,0.2299485 0.1140041,0.3244798 0.030596,0.094531 0.065525,0.1859375 0.077621,0.203125 0.012095,0.017187 0.047213,0.1085937 0.078039,0.203125 0.030826,0.094531 0.1021139,0.2903713 0.1584169,0.4351997 L 10.213825,4.3235244 9.8823228,4.4586372 C 9.6999966,4.5329494 9.5315837,4.59375 9.5080722,4.59375 9.4845612,4.59375 9.3641419,4.637693 9.2404747,4.691402 9.1168072,4.74511 8.9664062,4.799662 8.90625,4.8126282 8.846094,4.8255942 8.7447666,4.8589222 8.6810784,4.8866902 L 8.5652816,4.9371766 8.4990863,4.7889006 C 8.4626788,4.7073491 8.3984453,4.5351562 8.356345,4.40625 8.3142447,4.2773437 8.2606503,4.1296875 8.2372463,4.078125 8.2138422,4.0265625 8.1769972,3.928125 8.1553688,3.859375 8.1039003,3.6957731 8.0479084,3.5429022 7.9869425,3.3995319 L 7.9375756,3.2834388 7.7943222,3.3448444 C 7.7155325,3.3786175 7.62975,3.40625 7.6036944,3.40625 c -0.026056,0 -0.091687,0.020216 -0.1458466,0.044924 C 7.2373434,3.55177 6.9681403,3.65625 6.9294503,3.65625 6.9067994,3.65625 6.7697969,3.7054688 6.625,3.765625 6.4802031,3.8257813 6.3436244,3.875 6.3214916,3.875 c -0.052144,0 -0.054907,-0.012912 0.053508,0.25 0.051563,0.1250403 0.09375,0.2447181 0.09375,0.2659506 0,0.03388 0.07076,0.2160856 0.1576428,0.4059244 0.035747,0.078108 0.2168106,0.6030922 0.2371138,0.6875 0.01289,0.053587 -0.021985,0.076312 -0.2445491,0.1593537 C 6.4761872,5.6969984 6.2820312,5.7658784 6.1875,5.7967953 6.0929687,5.8277125 6.0015625,5.8629047 5.984375,5.875 5.9671875,5.8870953 5.8757812,5.9218563 5.78125,5.9522463 5.6867187,5.9826363 5.5283659,6.0399813 5.4293547,6.0796797 L 5.2493341,6.1518588 Z M 1.03125,4.8924694 c 0,-0.024767 0.012751,-0.052911 0.028336,-0.062543 0.015585,-0.00963 0.020976,0.010632 0.01198,0.045031 -0.019082,0.072968 -0.040316,0.082192 -0.040316,0.017513 z"
       id="path819"
       inkscape:connector-curvature="0" />
  </g>
</svg>
