<?xml version="1.0" encoding="UTF-8" standalone="no"?>
<!-- Created with Inkscape (http://www.inkscape.org/) -->

<svg
   version="1.1"
   id="svg2"
   width="1600"
   height="1600"
   viewBox="0 0 1600 1600"
   sodipodi:docname="rightarrow.svg"
   inkscape:version="1.2.2 (732a01da63, 2022-12-09)"
   inkscape:export-filename="RIGHTARROW.png"
   inkscape:export-xdpi="96"
   inkscape:export-ydpi="96"
   xmlns:inkscape="http://www.inkscape.org/namespaces/inkscape"
   xmlns:sodipodi="http://sodipodi.sourceforge.net/DTD/sodipodi-0.dtd"
   xmlns="http://www.w3.org/2000/svg"
   xmlns:svg="http://www.w3.org/2000/svg"
   xmlns:rdf="http://www.w3.org/1999/02/22-rdf-syntax-ns#"
   xmlns:cc="http://creativecommons.org/ns#"
   xmlns:dc="http://purl.org/dc/elements/1.1/">
  <metadata
     id="metadata8">
    <rdf:RDF>
      <cc:Work
         rdf:about="">
        <dc:format>image/svg+xml</dc:format>
        <dc:type
           rdf:resource="http://purl.org/dc/dcmitype/StillImage" />
      </cc:Work>
    </rdf:RDF>
  </metadata>
  <defs
     id="defs6" />
  <sodipodi:namedview
     pagecolor="#808080"
     bordercolor="#666666"
     borderopacity="1"
     objecttolerance="10"
     gridtolerance="10"
     guidetolerance="10"
     inkscape:pageopacity="0"
     inkscape:pageshadow="2"
     inkscape:window-width="1993"
     inkscape:window-height="1009"
     id="namedview4"
     showgrid="false"
     inkscape:zoom="0.35355339"
     inkscape:cx="352.13918"
     inkscape:cy="718.42049"
     inkscape:window-x="-8"
     inkscape:window-y="-8"
     inkscape:window-maximized="1"
     inkscape:current-layer="svg2"
     inkscape:showpageshadow="0"
     inkscape:pagecheckerboard="false"
     inkscape:deskcolor="#d1d1d1" />
  <g
     id="RIGHTARROW-9"
     transform="matrix(100,0,0,100,0,4.9999997e-5)"
     style="stroke-width:0.0114286">
    <path
       style="fill:none;stroke-width:0.000357143"
       d="M 0,8 V 0 h 8 8 v 8 8 H 8 0 Z m 6.453125,5.866627 C 6.5710884,13.805394 7.2385231,13.155181 9.1769606,11.213073 12.108718,8.2757634 11.952379,8.4593837 11.95257,7.953125 11.952664,7.7193047 11.940374,7.6481603 11.879726,7.53125 11.772413,7.3243847 6.79134,2.3386759 6.578125,2.2247146 6.4419981,2.1519561 6.3856534,2.1412005 6.140625,2.1412005 c -0.2442859,0 -0.3017856,0.010902 -0.4375,0.08295 -0.1872747,0.09942 -0.3573909,0.2717492 -0.4574,0.4633497 -0.061203,0.1172532 -0.073391,0.1873686 -0.073338,0.421875 6.25e-5,0.2449506 0.010841,0.3014163 0.083572,0.4375 0.060919,0.1139841 0.6631318,0.7352709 2.2262768,2.2967916 l 2.1427679,2.1405415 -2.215886,2.2188337 c -1.5214172,1.52344 -2.2387503,2.262906 -2.2888406,2.359458 -0.060618,0.116847 -0.072954,0.188182 -0.072954,0.421875 0,0.319317 0.056667,0.467645 0.2606775,0.682335 0.2091741,0.220125 0.4273081,0.304163 0.7544994,0.290681 0.1781853,-0.0073 0.271835,-0.0291 0.390625,-0.09076 z"
       id="path821-4"
       inkscape:connector-curvature="0" />
    <path
       inkscape:connector-curvature="0"
       id="path821-0882-4-4-9"
       d="m 4.2411616,12.940017 c -0.040913,-3.4752257 -0.08294,-5.5844384 0,-9.764024 C 4.3116076,3.1758977 11.80653,8.0124501 11.80653,8.0580047 9.1749706,9.8153493 7.125782,11.127116 4.2411616,12.940017 Z"
       style="display:inline;fill:#fefefe;fill-opacity:1;stroke:#323232;stroke-width:0.571429;stroke-linejoin:round;stroke-dasharray:none;stroke-opacity:1;enable-background:new"
       sodipodi:nodetypes="cccc"
       inkscape:label="ARROW" />
    <path
       style="stroke-width:0.0114286;color:#000000;fill:#323232;stroke-linejoin:round;-inkscape-stroke:none"
       d="M 4.2402344,2.890625 A 0.28574287,0.28574287 0 0 0 3.9550781,3.1699219 c -0.083016,4.1834019 -0.040902,6.2991575 0,9.7734371 a 0.28574287,0.28574287 0 0 0 0.4375,0.238282 C 7.2781539,11.368139 9.3309277,10.05384 11.964844,8.2949219 a 0.28574287,0.28574287 0 0 0 0.126953,-0.2363281 c 0,-1.78e-4 -0.05251,-0.1656921 -0.05273,-0.1660157 -2.28e-4,-3.236e-4 -0.02259,-0.028243 -0.0293,-0.035156 -0.01341,-0.013826 -0.01941,-0.018434 -0.02539,-0.023437 -0.01196,-0.010008 -0.0198,-0.016412 -0.0293,-0.023437 -0.019,-0.014051 -0.04156,-0.030923 -0.07031,-0.050781 -0.0575,-0.039716 -0.138969,-0.093351 -0.242188,-0.1621094 C 11.436139,7.4601401 11.143267,7.2672713 10.791016,7.0371094 10.086512,6.5767855 9.1466871,5.9670052 8.2050781,5.359375 7.2634691,4.7517448 6.3207289,4.1460104 5.6074219,3.6914063 5.2507684,3.4641042 4.9513142,3.2737994 4.7382812,3.140625 4.6317648,3.0740378 4.5456901,3.023296 4.484375,2.9863281 c -0.030658,-0.018484 -0.053298,-0.03314 -0.074219,-0.044922 -0.010461,-0.00589 -0.020618,-0.011316 -0.033203,-0.017578 -0.00629,-0.00313 -0.012354,-0.00646 -0.025391,-0.011719 -0.00652,-0.00263 -0.015244,-0.00565 -0.029297,-0.00977 -0.014053,-0.00411 -0.081756,-0.011719 -0.082031,-0.011719 z m 0.2871093,0.7949219 c 0.2043366,0.1281998 0.4535102,0.2856302 0.7714844,0.4882812 0.7118025,0.4536453 1.6547777,1.0588266 2.5957031,1.6660156 0.9409255,0.6071891 1.8809899,1.2164433 2.5839848,1.6757813 0.337789,0.2207125 0.612059,0.4005237 0.814453,0.5351563 -2.3066948,1.5356312 -4.2674552,2.7906097 -6.7656253,4.3632817 -0.036391,-2.9871531 -0.0629,-5.1758295 0,-8.7285161 z"
       id="path3070" />
  </g>
</svg>
