<?xml version="1.0" encoding="UTF-8" standalone="no"?>
<!-- Created with Inkscape (http://www.inkscape.org/) -->

<svg
   version="1.1"
   id="svg2"
   width="1600"
   height="1600"
   viewBox="0 0 1600 1600"
   sodipodi:docname="rigid_remove.svg"
   inkscape:version="1.2.2 (732a01da63, 2022-12-09)"
   xmlns:inkscape="http://www.inkscape.org/namespaces/inkscape"
   xmlns:sodipodi="http://sodipodi.sourceforge.net/DTD/sodipodi-0.dtd"
   xmlns="http://www.w3.org/2000/svg"
   xmlns:svg="http://www.w3.org/2000/svg"
   xmlns:rdf="http://www.w3.org/1999/02/22-rdf-syntax-ns#"
   xmlns:cc="http://creativecommons.org/ns#"
   xmlns:dc="http://purl.org/dc/elements/1.1/">
  <metadata
     id="metadata8">
    <rdf:RDF>
      <cc:Work
         rdf:about="">
        <dc:format>image/svg+xml</dc:format>
        <dc:type
           rdf:resource="http://purl.org/dc/dcmitype/StillImage" />
      </cc:Work>
    </rdf:RDF>
  </metadata>
  <defs
     id="defs6" />
  <sodipodi:namedview
     pagecolor="#808080"
     bordercolor="#666666"
     borderopacity="1"
     objecttolerance="10"
     gridtolerance="10"
     guidetolerance="10"
     inkscape:pageopacity="0"
     inkscape:pageshadow="2"
     inkscape:window-width="1993"
     inkscape:window-height="1009"
     id="namedview4"
     showgrid="false"
     inkscape:zoom="0.5"
     inkscape:cx="9"
     inkscape:cy="8"
     inkscape:window-x="-8"
     inkscape:window-y="-8"
     inkscape:window-maximized="1"
     inkscape:current-layer="RIGID_REMOVE"
     inkscape:showpageshadow="0"
     inkscape:pagecheckerboard="true"
     inkscape:deskcolor="#d1d1d1" />
  <g
     id="RIGID_REMOVE"
     transform="matrix(100,0,0,100,0,4.9999997e-5)"
     style="stroke-width:0.0114286">
    <path
       style="fill:none;stroke-width:0.000357143"
       d="M 0,8 V 0 h 8 8 v 8 8 H 8 0 Z m 9.5662834,6.199342 1.4337156,-1.433461 1.414063,1.412491 c 0.777735,0.77687 1.45365,1.427203 1.502035,1.445185 0.112949,0.04198 0.33625,0.04194 0.449056,-6.3e-5 0.117164,-0.04363 1.191733,-1.111541 1.247405,-1.239672 0.05165,-0.118864 0.05694,-0.344095 0.011,-0.467719 -0.01798,-0.04838 -0.668315,-0.7243 -1.445185,-1.502035 l -1.412491,-1.414063 1.430197,-1.4304509 1.430197,-1.4304503 0.019,-0.1604397 c 0.039,-0.3292978 0.02923,-0.3453522 -0.593138,-0.9743235 -0.31227,-0.315585 -0.613016,-0.5933193 -0.668323,-0.6171875 -0.119075,-0.051388 -0.344372,-0.056544 -0.467719,-0.010704 -0.04839,0.017981 -0.7243,0.668314 -1.502034,1.4451837 L 11,9.2341175 9.5859375,7.8216272 C 8.8082031,7.0447575 8.1322878,6.394425 8.0839031,6.3764434 7.9708409,6.3344256 7.7475406,6.3345131 7.6348469,6.3766309 7.5864622,6.3947094 7.4223169,6.5318187 7.2700791,6.6813184 l -0.2767957,0.2718182 0.016532,-0.5625 c 0.00909,-0.309375 0.039233,-0.6880282 0.06698,-0.8414513 L 7.1272431,5.2702341 7.3526841,5.0324978 C 7.6198072,4.7508066 7.7835506,4.4825894 7.8971547,4.1406366 7.9692991,3.9234797 7.98021,3.8393194 7.98021,3.5000116 7.98021,3.1607038 7.969299,3.0765436 7.897155,2.8593866 7.7827481,2.5150073 7.6194875,2.2488578 7.3453847,1.9598734 6.9481734,1.5410972 6.4729406,1.2689259 5.8453303,1.1007755 5.5789553,1.0294078 5.4880925,1.0208128 5,1.0208128 c -0.4880925,0 -0.5789553,0.00859 -0.8453303,0.079963 C 3.5270594,1.2689259 3.0518265,1.5410972 2.6546154,1.9598734 2.3805125,2.2488578 2.2172518,2.5150073 2.1028453,2.859375 2.0307011,3.076532 2.0197899,3.1606922 2.0197899,3.5 c 0,0.3393078 0.010911,0.4234681 0.083055,0.640625 0.1136276,0.3420234 0.2773569,0.61018 0.5446811,0.8920816 l 0.2256514,0.2379562 0.053916,0.2943559 c 0.068599,0.3745172 0.076763,1.3850391 0.014496,1.7943563 -0.042083,0.2766372 -0.045158,0.2832975 -0.1875,0.4060928 -0.9308046,0.8029866 -1.4350837,1.651225 -1.6660448,2.8024232 -0.10188766,0.507846 -0.10188766,1.356372 0,1.864218 0.1832804,0.913539 0.5774536,1.707129 1.1504771,2.316256 L 2.4752428,15 h 2.2395925 2.2395928 l 0.2805985,0.284515 c 0.154329,0.156483 0.3227859,0.304471 0.3743484,0.328862 0.062817,0.02971 0.1645991,0.04024 0.3084716,0.03189 l 0.2147215,-0.01246 z M 8.9856163,11.074988 C 8.9748278,10.990776 8.9586706,10.872656 8.9497113,10.8125 l -0.016289,-0.109375 0.1500106,0.148383 0.1500106,0.148382 -0.1141056,0.114106 -0.1141056,0.114106 z"
       id="path847"
       inkscape:connector-curvature="0" />
    <path
       style="fill:#fefefe;stroke-width:0.000357143"
       d="M 2.5269233,14.304688 C 1.4341397,12.994111 1.2050068,11.156329 1.940855,9.6040731 2.1940417,9.0699809 2.5621828,8.6060944 3.0838443,8.1638163 L 3.2770638,8 h 0.9333659 0.9333662 l 0.065717,0.1352647 c 0.040142,0.082625 0.1724922,0.2316003 0.3400912,0.3828125 0.430845,0.388719 0.5647375,0.5344525 0.762061,0.8294544 0.9069131,1.3558494 0.8828222,3.0770354 -0.061511,4.3946554 L 6.0653809,14 H 6.2045656 6.34375 v 0.141629 c 0,0.07789 0.020376,0.190395 0.04528,0.25 L 6.4343109,14.5 H 4.5620447 2.6897785 Z M 7.8858337,12.296875 C 7.9984681,11.886969 8.0085034,11.319998 7.91186,10.826481 7.7947269,10.228333 7.6310534,9.8250228 7.3116647,9.3475316 7.1144944,9.0527588 6.9802087,8.9065497 6.5513416,8.5196975 6.3261187,8.3165394 6.15625,8.1003497 6.15625,8.01687 6.15625,8.0075916 6.1987856,8 6.2507734,8 c 0.074496,0 0.1013291,0.018208 0.1266441,0.085937 0.017667,0.047266 0.4447256,0.5007812 0.9490206,1.0078125 0.8987472,0.9036238 0.9179572,0.9255875 0.9702978,1.1093755 0.1009857,0.354597 0.1713778,0.781954 0.1904513,1.15625 l 0.019109,0.375 -0.3188185,0.3125 c -0.17535,0.171875 -0.31109,0.284375 -0.301644,0.25 z M 3.5,6.5 V 6 H 4.25 5 V 6.5 7 H 4.25 3.5 Z M 6,6.5 V 6 H 6.25 6.5 V 6.5 7 H 6.25 6 Z M 3.1192216,4.7890625 C 2.4424192,4.1001422 2.3310597,3.3166241 2.8067963,2.5908591 3.4467047,1.6146406 4.9330391,1.2330207 6.1317781,1.7371623 6.5778047,1.9247431 6.9559062,2.2288474 7.1932038,2.5908591 7.6689403,3.3166241 7.5575809,4.1001422 6.8807784,4.7890625 L 6.6735512,5 H 6.4149006 C 6.2579341,5 6.15625,4.98732 6.15625,4.9677462 c 0,-0.0983 0.1209028,-0.2881671 0.3070791,-0.4822396 C 7.04219,3.882095 7.1185112,3.3979328 6.7255953,2.8217638 6.3549856,2.2783051 5.4417978,1.9321368 4.671875,2.0432461 l -0.1875,0.027059 0.1875,0.052498 C 5.0896641,2.2397799 5.5261672,2.5293242 5.7255953,2.8217638 6.1220188,3.4030756 6.04461,3.8730888 5.4487031,4.5030047 5.2974122,4.6629303 5.21145,4.7827391 5.1852484,4.8701922 L 5.1463569,5 H 4.2364028 3.3264488 Z"
       id="path845"
       inkscape:connector-curvature="0" />
    <path
       style="fill:#989898;stroke-width:0.000357143"
       d="M 6.2501541,13.742188 C 7.1944869,12.424567 7.2185778,10.703381 6.3116647,9.3475316 6.1144944,9.0527588 5.9802087,8.9065497 5.5513416,8.5196975 5.3261187,8.3165394 5.15625,8.1003497 5.15625,8.01687 5.15625,8.0075916 5.3784478,8 5.6500228,8 h 0.4937731 l 0.065717,0.1352647 c 0.040142,0.082625 0.1724922,0.2316003 0.3400912,0.3828125 0.430845,0.388719 0.5647375,0.5344525 0.762061,0.8294544 0.3191822,0.4771825 0.4827431,0.8800574 0.6004312,1.4789494 0.0817,0.415756 0.086905,0.917084 0.013316,1.282585 l -0.050272,0.24969 -0.7329612,0.734685 C 6.7390503,13.497517 6.3948356,13.866797 6.3772575,13.914063 6.3489181,13.990263 6.3294391,14 6.2053391,14 H 6.0653809 Z M 5,6.5 V 6 H 5.5 6 V 6.5 7 H 5.5 5 Z M 5.15625,4.9677462 c 0,-0.0983 0.1209028,-0.2881671 0.3070791,-0.4822396 C 6.04219,3.882095 6.1185112,3.3979328 5.7255953,2.8217638 5.5261672,2.5293242 5.0896641,2.2397799 4.671875,2.1228029 l -0.1875,-0.052498 0.1875,-0.027059 C 5.4417978,1.9321368 6.3549856,2.2783051 6.7255953,2.8217638 7.1220187,3.4030756 7.04461,3.8730888 6.4487031,4.5030047 6.2974122,4.6629303 6.21145,4.7827391 6.1852484,4.8701922 L 6.1463569,5 H 5.6513034 C 5.3318306,5 5.15625,4.9885606 5.15625,4.9677462 Z"
       id="path843"
       inkscape:connector-curvature="0" />
    <path
       style="fill:#fe0032;stroke-width:0.000357143"
       d="m 3.3440641,7.8659431 c 0.032615,-0.073731 0.07523,-0.2670906 0.094701,-0.4296875 0.019471,-0.1625969 0.041482,-0.3272712 0.048913,-0.3659431 L 3.5011906,7 h 1.4972988 c 1.68757,0 1.5220981,-0.027659 1.5373325,0.2569731 0.00614,0.1147491 -0.00693,0.1634335 -0.058754,0.21875 C 6.3864544,7.5724506 6.34375,7.6959941 6.34375,7.8614094 V 8 H 4.8142572 3.2847644 Z M 3.4865688,5.9296875 C 3.4785269,5.8910156 3.4627241,5.7611566 3.4514516,5.6411122 3.4401794,5.5210675 3.406795,5.3277081 3.3772644,5.2114247 L 3.3235725,5 H 5 6.6764275 L 6.6227356,5.2114247 C 6.593205,5.3277081 6.5598206,5.5210675 6.5485484,5.6411122 6.5372759,5.7611566 6.5214731,5.8910156 6.5134312,5.9296875 L 6.4988094,6 H 5 3.5011906 Z"
       id="path841"
       inkscape:connector-curvature="0" />
    <path
       style="fill:#fe0000;stroke-width:0.000357143"
       d="M 7.3358194,14.663871 6.8133353,14.140625 8.3597309,12.59375 C 9.2102484,11.742969 9.9061266,11.025781 9.9061266,11 c 0,-0.02578 -0.6958782,-0.742969 -1.5463957,-1.59375 L 6.8133353,7.859375 7.3358194,7.3361291 7.8583031,6.8128828 9.3983191,8.3517541 C 10.389858,9.3425559 10.960297,9.890625 11,9.890625 c 0.0397,0 0.610142,-0.5480691 1.601681,-1.5388709 L 14.141697,6.8128828 14.664181,7.3361291 15.186665,7.859375 13.640269,9.40625 C 12.789752,10.257031 12.093873,10.974219 12.093873,11 c 0,0.02578 0.695879,0.742969 1.546396,1.59375 l 1.546396,1.546875 -0.522484,0.523246 -0.522484,0.523246 -1.540016,-1.538871 C 11.610142,12.657444 11.039703,12.109375 11,12.109375 c -0.0397,0 -0.610142,0.548069 -1.6016809,1.538871 l -1.540016,1.538871 z"
       id="path839"
       inkscape:connector-curvature="0" />
    <path
       style="fill:#323232;stroke-width:0.000357143"
       d="M 2.2385226,14.748365 C 1.6654991,14.139238 1.2713259,13.345648 1.0880455,12.432109 c -0.10188766,-0.507846 -0.10188766,-1.356372 0,-1.864218 C 1.3190066,9.4166928 1.8232857,8.5684544 2.7540903,7.7654678 2.8964321,7.6426725 2.8995072,7.6360122 2.9415903,7.359375 3.003857,6.9500578 2.9956933,5.9395359 2.9270941,5.5650188 L 2.8731778,5.2706628 2.6475264,5.0327066 C 2.3802022,4.750805 2.2164729,4.4826484 2.1028453,4.140625 2.0307011,3.9234681 2.0197899,3.8393078 2.0197899,3.5 c 0,-0.3393078 0.010911,-0.423468 0.083055,-0.640625 C 2.2172518,2.5150073 2.3805125,2.2488578 2.6546154,1.9598734 3.0518265,1.5410972 3.5270594,1.2689259 4.1546697,1.1007755 4.4210447,1.0294078 4.5119075,1.0208128 5,1.0208128 c 0.4880925,0 0.5789553,0.00859 0.8453303,0.079963 0.6276103,0.1681504 1.1028431,0.4403217 1.5000544,0.8590979 0.2741028,0.2889844 0.4373634,0.5551339 0.55177,0.8995016 C 7.9692991,3.076532 7.98021,3.1606922 7.98021,3.5 c 0,0.3393078 -0.010911,0.4234681 -0.083055,0.640625 -0.1136041,0.3419528 -0.2773475,0.61017 -0.5444706,0.8918612 l -0.225441,0.2377363 -0.050562,0.2789512 c -0.027809,0.1534232 -0.0584,0.5343997 -0.06798,0.8466147 l -0.017418,0.5676632 -0.213505,0.211869 C 6.66035,7.2918484 6.5553247,7.3782412 6.5443878,7.3673044 6.5334509,7.3563675 6.5169978,7.0823016 6.5078253,6.7582687 6.4903313,6.1402653 6.5265944,5.6258631 6.6152469,5.2344612 6.6608794,5.0329937 6.6813669,4.9985884 6.8757697,4.7969612 7.5598953,4.0874128 7.6704681,3.3189544 7.1932038,2.5908591 6.5532953,1.6146406 5.0669609,1.2330207 3.8682219,1.7371623 3.4221953,1.9247431 3.0440939,2.2288474 2.8067963,2.5908591 2.329532,3.3189544 2.4401048,4.0874128 3.1242303,4.7969612 c 0.1944028,0.2016272 0.2148903,0.2360325 0.2605228,0.4375 0.168966,0.7459866 0.1382503,2.2949357 -0.052836,2.664456 C 3.3043534,7.9522187 3.1937869,8.070485 3.0862133,8.1617309 2.0436103,9.0460859 1.5183434,10.164471 1.5183434,11.5 c 0,1.048061 0.3458909,2.009924 1.0085799,2.804688 L 2.6897785,14.5 H 4.572185 6.4545912 L 6.703125,14.75 6.9516587,15 H 4.7134506 2.4752428 Z M 8.4906838,11.369841 C 8.4699956,10.987401 8.37873,10.459483 8.2832884,10.17018 L 8.22375,9.9897075 l 0.3567813,0.3567815 0.3567812,0.356781 0.033053,0.263606 0.033054,0.263606 -0.2467872,0.246787 -0.2467869,0.246787 z"
       id="path837"
       inkscape:connector-curvature="0" />
    <path
       style="fill:#650000;stroke-width:0.000357143"
       d="M 7.609375,15.611292 C 7.4842141,15.554536 6.41817,14.477013 6.3765119,14.365153 c -0.04201,-0.112806 -0.042044,-0.336107 -6.25e-5,-0.449056 0.017981,-0.04839 0.668314,-0.7243 1.4451837,-1.502034 L 9.2341175,11 7.8216272,9.5859375 C 7.0447575,8.8082031 6.394425,8.1322878 6.3764434,8.0839031 6.3305003,7.9602787 6.3357966,7.7350475 6.3874422,7.6161837 6.4431144,7.4880525 7.5176825,6.4201456 7.6348469,6.3765119 c 0.1128059,-0.04201 0.3361068,-0.042044 0.4490562,-6.25e-5 0.048385,0.017981 0.7243,0.668314 1.5020344,1.4451837 L 11,9.2341234 12.414063,7.8216331 c 0.777734,-0.7768697 1.453649,-1.4272022 1.502034,-1.4451837 0.112949,-0.041976 0.33625,-0.041942 0.449056,6.25e-5 0.117165,0.043634 1.191733,1.1115406 1.247405,1.2396718 0.05165,0.1188638 0.05694,0.344095 0.011,0.4677194 -0.01798,0.048385 -0.668314,0.7243 -1.445184,1.5020344 L 12.765883,11 l 1.41249,1.414063 c 0.77687,0.777734 1.427202,1.453649 1.445184,1.502034 0.04594,0.123624 0.04065,0.348856 -0.011,0.467719 -0.05567,0.128132 -1.13024,1.196038 -1.247405,1.239672 -0.112806,0.04201 -0.336107,0.04204 -0.449056,6.3e-5 -0.04839,-0.01798 -0.7243,-0.668314 -1.502034,-1.445184 L 11,12.765883 9.5859375,14.178373 c -0.7777344,0.776869 -1.4536497,1.427202 -1.5020344,1.445184 -0.1213125,0.04508 -0.361764,0.03887 -0.4745281,-0.01226 z M 11,12.09375 c 0.02565,0 0.742893,0.696145 1.593864,1.546989 l 1.547222,1.54699 0.523099,-0.523779 0.523098,-0.523778 -1.546766,-1.54653 C 12.789795,11.74305 12.09375,11.026017 12.09375,11.000234 c 0,-0.02578 0.696145,-0.743126 1.546989,-1.5940984 L 15.187729,7.8589141 14.66395,7.3358153 14.140172,6.8127166 12.593642,8.3594831 C 11.74305,9.210205 11.026017,9.90625 11.000234,9.90625 c -0.02578,0 -0.743126,-0.6961453 -1.5940984,-1.5469894 L 7.8589141,6.8122712 7.3358153,7.3360497 6.8127166,7.8598281 8.3594831,9.4063581 C 9.210205,10.25695 9.90625,10.974088 9.90625,11 c 0,0.02591 -0.696045,0.74305 -1.5467669,1.593642 l -1.5467665,1.54653 0.5230987,0.523778 0.5230988,0.523779 1.5472215,-1.54699 C 10.257108,12.789895 10.974346,12.09375 11,12.09375 Z"
       id="path835"
       inkscape:connector-curvature="0" />
  </g>
</svg>
