<?xml version="1.0" encoding="UTF-8" standalone="no"?>
<!-- Created with Inkscape (http://www.inkscape.org/) -->

<svg
   version="1.1"
   id="svg2"
   width="1600"
   height="1600"
   viewBox="0 0 1600 1600"
   sodipodi:docname="rigid_add_passive.svg"
   inkscape:version="1.2.2 (732a01da63, 2022-12-09)"
   xmlns:inkscape="http://www.inkscape.org/namespaces/inkscape"
   xmlns:sodipodi="http://sodipodi.sourceforge.net/DTD/sodipodi-0.dtd"
   xmlns="http://www.w3.org/2000/svg"
   xmlns:svg="http://www.w3.org/2000/svg"
   xmlns:rdf="http://www.w3.org/1999/02/22-rdf-syntax-ns#"
   xmlns:cc="http://creativecommons.org/ns#"
   xmlns:dc="http://purl.org/dc/elements/1.1/">
  <metadata
     id="metadata8">
    <rdf:RDF>
      <cc:Work
         rdf:about="">
        <dc:format>image/svg+xml</dc:format>
        <dc:type
           rdf:resource="http://purl.org/dc/dcmitype/StillImage" />
      </cc:Work>
    </rdf:RDF>
  </metadata>
  <defs
     id="defs6" />
  <sodipodi:namedview
     pagecolor="#808080"
     bordercolor="#666666"
     borderopacity="1"
     objecttolerance="10"
     gridtolerance="10"
     guidetolerance="10"
     inkscape:pageopacity="0"
     inkscape:pageshadow="2"
     inkscape:window-width="1993"
     inkscape:window-height="1009"
     id="namedview4"
     showgrid="false"
     inkscape:zoom="0.5"
     inkscape:cx="377"
     inkscape:cy="406"
     inkscape:window-x="-8"
     inkscape:window-y="-8"
     inkscape:window-maximized="1"
     inkscape:current-layer="RIGID_ADD_PASSIVE"
     inkscape:showpageshadow="0"
     inkscape:pagecheckerboard="true"
     inkscape:deskcolor="#d1d1d1" />
  <g
     id="RIGID_ADD_PASSIVE"
     transform="matrix(100,0,0,100,0,4.9999997e-5)"
     style="stroke-width:0.0114286">
    <path
       style="fill:none;stroke-width:0.000357143"
       d="M 0,8 V 0 h 8 8 v 8 8 H 8 0 Z m 12.174908,7.45364 c 1.225085,-0.198698 2.336663,-1.013737 2.89315,-2.121336 0.302926,-0.602926 0.431691,-1.149465 0.431691,-1.832304 0,-0.682839 -0.128765,-1.229378 -0.431691,-1.8323041 C 14.602166,8.7404125 13.750395,8.0144137 12.741587,7.6847506 11.979463,7.4357 11.020538,7.4357 10.258413,7.6847506 9.6215206,7.8928775 9.07196,8.2400131 8.5983241,8.7333637 8.4551072,8.8825416 8.3345875,9.0000466 8.3305028,8.9944856 8.3264178,8.9889247 8.2468681,8.8719181 8.1537253,8.7344706 7.9936447,8.4982453 7.5651506,8.0408706 7.2459097,7.7654678 7.1035678,7.6426725 7.1004928,7.6360122 7.0584097,7.359375 6.9961428,6.9500578 7.0043066,5.9395359 7.0729059,5.5650187 L 7.1268222,5.2706628 7.3524738,5.0327066 C 7.6197978,4.750805 7.7835272,4.4826484 7.8971547,4.140625 7.9692991,3.9234681 7.98021,3.8393078 7.98021,3.5 7.98021,3.1606922 7.9692991,3.076532 7.8971547,2.859375 7.7827481,2.5150073 7.6194875,2.2488578 7.3453847,1.9598734 6.9481734,1.5410972 6.4729406,1.2689259 5.8453303,1.1007755 5.5789553,1.0294078 5.4880925,1.0208128 5,1.0208128 c -0.4880925,0 -0.5789553,0.00859 -0.8453303,0.079963 C 3.5270594,1.2689259 3.0518265,1.5410972 2.6546154,1.9598734 2.3805125,2.2488578 2.2172518,2.5150073 2.1028453,2.859375 2.0307011,3.076532 2.0197899,3.1606922 2.0197899,3.5 c 0,0.3393078 0.010911,0.4234681 0.083055,0.640625 0.1136276,0.3420234 0.2773569,0.61018 0.5446811,0.8920816 l 0.2256514,0.2379562 0.053916,0.2943559 c 0.068599,0.3745172 0.076763,1.3850391 0.014496,1.7943563 -0.042083,0.2766372 -0.045158,0.2832975 -0.1875,0.4060928 -0.9308046,0.8029866 -1.4350837,1.651225 -1.6660448,2.8024232 -0.10188766,0.507846 -0.10188766,1.356372 0,1.864218 0.1832804,0.913539 0.5774536,1.707129 1.1504771,2.316256 L 2.4752428,15 H 5 7.5247572 l 0.2298091,-0.244311 c 0.1263946,-0.134371 0.3060165,-0.355856 0.399159,-0.492188 0.093143,-0.136332 0.1726925,-0.252426 0.1767775,-0.257987 0.00408,-0.0056 0.1246044,0.111944 0.2678213,0.261122 0.1432168,0.149178 0.3730418,0.35619 0.5107225,0.460026 0.4497981,0.33923 1.1337904,0.631398 1.7026454,0.727287 0.327768,0.05525 1.021634,0.05509 1.363216,-3.13e-4 z"
       id="path827"
       inkscape:connector-curvature="0" />
    <path
       style="fill:#fefefe;stroke-width:0.000357143"
       d="M 10.9375,14.95383 C 10.0484,14.802993 9.2455284,14.318877 8.713275,13.612668 7.5503344,12.069646 7.8530078,9.8696594 9.3873316,8.713275 10.930354,7.5503344 13.130341,7.8530078 14.286725,9.3873316 c 0.944076,1.2526264 0.944076,2.9727104 0,4.2253364 -0.77,1.021659 -2.097988,1.553437 -3.349225,1.341162 z M 12,13 v -1 h 1 1 V 11.5 11 H 13 12 V 10 9 H 11.5 11 v 1 1 H 10 9 v 0.5 0.5 h 1 1 v 1 1 H 11.5 12 Z M 2.5270896,14.304888 C 1.4341295,12.994096 1.2049564,11.156435 1.940855,9.6040731 2.1940417,9.0699809 2.5621828,8.6060944 3.0838443,8.1638163 L 3.2770638,8 h 0.9333659 0.9333662 l 0.065717,0.1352647 c 0.040142,0.082625 0.1724922,0.2316003 0.3400912,0.3828125 0.430845,0.388719 0.5647375,0.5344525 0.762061,0.8294544 0.90715,1.3562034 0.8828531,3.0769904 -0.062062,4.3954254 l -0.1853247,0.258583 0.5063988,-0.0086 0.5063987,-0.0086 0.1791538,-0.25 c 0.098534,-0.1375 0.244565,-0.381458 0.3245122,-0.54213 l 0.1453587,-0.29213 0.13695,0.288189 C 7.9383725,13.346809 8,13.488629 8,13.503461 c 0,0.05773 -0.2756044,0.484564 -0.4690994,0.7265 l -0.2034747,0.254414 -2.3186572,0.008 -2.3186575,0.008 z M 7.6105956,9.8640584 C 7.4625459,9.5520731 7.1672172,9.1124019 6.9758144,8.9190259 6.8923047,8.8346553 6.7012919,8.6549575 6.5513416,8.5196975 6.3261187,8.3165394 6.15625,8.1003497 6.15625,8.01687 6.15625,8.0075916 6.2837544,8 6.4395931,8 H 6.7229362 L 6.9138228,8.1640625 C 7.29956,8.495595 7.4161691,8.6130975 7.5951091,8.8505691 7.7766184,9.0914503 8,9.4485337 8,9.4978022 8,9.5119394 7.9379678,9.6540428 7.8621506,9.8135881 L 7.7243016,10.103671 Z M 3.5,6.5 V 6 H 4.25 5 V 6.5 7 H 4.25 3.5 Z M 6,6.5 V 6 H 6.25 6.5 V 6.5 7 H 6.25 6 Z M 3.1192216,4.7890625 C 2.4424192,4.1001422 2.3310597,3.3166241 2.8067963,2.5908591 3.4467047,1.6146406 4.9330391,1.2330207 6.1317781,1.7371623 6.5778047,1.9247431 6.9559062,2.2288474 7.1932038,2.5908591 7.6689403,3.3166241 7.5575809,4.1001422 6.8807784,4.7890625 L 6.6735512,5 H 6.4149006 C 6.2579341,5 6.15625,4.98732 6.15625,4.9677462 c 0,-0.0983 0.1209028,-0.2881671 0.3070791,-0.4822396 C 7.04219,3.882095 7.1185112,3.3979328 6.7255953,2.8217638 6.3549856,2.2783051 5.4417978,1.9321368 4.671875,2.0432461 l -0.1875,0.027059 0.1875,0.052498 C 5.0896641,2.2397799 5.5261672,2.5293242 5.7255953,2.8217638 6.1220188,3.4030756 6.04461,3.8730888 5.4487031,4.5030047 5.2974122,4.6629303 5.21145,4.7827391 5.1852484,4.8701922 L 5.1463569,5 H 4.2364028 3.3264488 Z"
       id="path825"
       inkscape:connector-curvature="0" />
    <path
       style="fill:#989898;stroke-width:0.000357143"
       d="M 6.2496028,13.742957 C 7.1945178,12.424523 7.2188147,10.703735 6.3116647,9.3475316 6.1144944,9.0527588 5.9802087,8.9065497 5.5513416,8.5196975 5.3261187,8.3165394 5.15625,8.1003497 5.15625,8.01687 5.15625,8.0075916 5.3784478,8 5.6500228,8 h 0.4937731 l 0.065717,0.1352647 C 6.249655,8.2178897 6.3820047,8.366865 6.5496037,8.5180772 6.70051,8.6542284 6.8923047,8.8346553 6.9758144,8.9190259 7.1672416,9.1124262 7.4625509,9.5520841 7.6106472,9.8641666 l 0.1137572,0.2397204 -0.07892,0.283994 C 7.5362762,10.78087 7.5,11.058173 7.5,11.5 c 0,0.44253 0.036276,0.719149 0.1461544,1.114479 l 0.079589,0.286354 -0.1451804,0.291771 c -0.079849,0.160474 -0.2257997,0.404271 -0.324334,0.541771 l -0.1791538,0.25 -0.5063987,0.0086 -0.5063988,0.0086 z M 5,6.5 V 6 H 5.5 6 V 6.5 7 H 5.5 5 Z M 5.15625,4.9677462 c 0,-0.0983 0.1209028,-0.2881671 0.3070791,-0.4822396 C 6.04219,3.882095 6.1185112,3.3979328 5.7255953,2.8217638 5.5261672,2.5293242 5.0896641,2.2397799 4.671875,2.1228029 l -0.1875,-0.052498 0.1875,-0.027059 C 5.4417978,1.9321368 6.3549856,2.2783051 6.7255953,2.8217638 7.1220187,3.4030756 7.04461,3.8730888 6.4487031,4.5030047 6.2974122,4.6629303 6.21145,4.7827391 6.1852484,4.8701922 L 6.1463569,5 H 5.6513034 C 5.3318306,5 5.15625,4.9885606 5.15625,4.9677462 Z"
       id="path823"
       inkscape:connector-curvature="0" />
    <path
       style="fill:#fe0032;stroke-width:0.000357143"
       d="m 3.3440641,7.8659431 c 0.032615,-0.073731 0.07523,-0.2670906 0.094701,-0.4296875 0.019471,-0.1625969 0.041482,-0.3272712 0.048913,-0.3659431 L 3.5011906,7 H 5 6.4988094 l 0.013512,0.070312 c 0.00743,0.038672 0.029443,0.2033462 0.048914,0.3659431 0.019471,0.1625969 0.062086,0.3559563 0.094701,0.4296875 L 6.7152356,8 H 5 3.2847644 Z M 3.4865688,5.9296875 C 3.4785269,5.8910156 3.4627241,5.7611566 3.4514516,5.6411122 3.4401794,5.5210675 3.406795,5.3277081 3.3772644,5.2114247 L 3.3235725,5 H 5 6.6764275 L 6.6227356,5.2114247 C 6.593205,5.3277081 6.5598206,5.5210675 6.5485484,5.6411122 6.5372759,5.7611566 6.5214731,5.8910156 6.5134312,5.9296875 L 6.4988094,6 H 5 3.5011906 Z"
       id="path821"
       inkscape:connector-curvature="0" />
    <path
       style="fill:#323232;stroke-width:0.000357143"
       d="M 10.811692,15.453949 C 10.242837,15.35806 9.5588447,15.065892 9.1090466,14.726662 8.9713659,14.622826 8.7415409,14.415814 8.5983241,14.266636 8.4551072,14.117458 8.3345875,13.999953 8.3305028,14.005514 c -0.00408,0.0056 -0.083635,0.121655 -0.1767775,0.257987 -0.093142,0.136332 -0.2727644,0.357817 -0.3991591,0.492188 L 7.5247572,15 H 5 2.4752428 L 2.2385226,14.748365 C 1.6654991,14.139238 1.2713259,13.345648 1.0880455,12.432109 c -0.10188766,-0.507846 -0.10188766,-1.356372 0,-1.864218 C 1.3190066,9.4166928 1.8232857,8.5684544 2.7540903,7.7654678 2.8964321,7.6426725 2.8995072,7.6360122 2.9415903,7.359375 3.003857,6.9500578 2.9956933,5.9395359 2.9270941,5.5650188 L 2.8731778,5.2706628 2.6475264,5.0327066 C 2.3802022,4.750805 2.2164729,4.4826484 2.1028453,4.140625 2.0307011,3.9234681 2.0197899,3.8393078 2.0197899,3.5 c 0,-0.3393078 0.010911,-0.423468 0.083055,-0.640625 C 2.2172518,2.5150073 2.3805125,2.2488578 2.6546154,1.9598734 3.0518265,1.5410972 3.5270594,1.2689259 4.1546697,1.1007755 4.4210447,1.0294078 4.5119075,1.0208128 5,1.0208128 c 0.4880925,0 0.5789553,0.00859 0.8453303,0.079963 0.6276103,0.1681504 1.1028431,0.4403217 1.5000544,0.8590979 0.2741028,0.2889844 0.4373634,0.5551339 0.55177,0.8995016 C 7.9692991,3.076532 7.98021,3.1606922 7.98021,3.5 7.98021,3.8393078 7.969299,3.9234681 7.897155,4.140625 7.7835275,4.4826484 7.6197981,4.750805 7.352474,5.0327066 L 7.1268222,5.2706628 7.0729059,5.5650187 c -0.068599,0.3745172 -0.076763,1.3850391 -0.014496,1.7943563 0.042083,0.2766372 0.045158,0.2832975 0.1875,0.4060928 0.3192409,0.2754028 0.747735,0.7327775 0.9078156,0.9690028 0.093143,0.1374475 0.1726925,0.2544541 0.1767775,0.260015 0.00408,0.00556 0.1246044,-0.111944 0.2678213,-0.2611219 C 9.07196,8.2400131 9.6215206,7.8928775 10.258413,7.6847506 c 0.762125,-0.2490506 1.72105,-0.2490506 2.483174,0 1.008808,0.3296631 1.860579,1.0556619 2.326471,1.9829453 0.302926,0.6029261 0.431691,1.1494651 0.431691,1.8323041 0,0.682839 -0.128765,1.229378 -0.431691,1.832304 -0.187311,0.372813 -0.375181,0.634064 -0.690235,0.959841 -0.592169,0.61232 -1.380872,1.028167 -2.202915,1.161495 -0.341582,0.0554 -1.035448,0.05556 -1.363216,3.13e-4 z m 1.235891,-0.499932 c 1.499042,-0.243138 2.663296,-1.407392 2.906434,-2.906434 C 15.195244,10.560316 14.431388,9.0634606 13.085929,8.3868716 11.34667,7.5122531 9.2523972,8.1928947 8.3868716,9.9140712 c -0.5152179,1.0245578 -0.5146947,2.1473868 0.00148,3.1751508 0.6731678,1.340357 2.1747294,2.105574 3.6592314,1.864795 z M 11,13 V 12 H 10 9 V 11.5 11 h 1 1 V 10 9 h 0.5 0.5 v 1 1 h 1 1 v 0.5 0.5 h -1 -1 v 1 1 H 11.5 11 Z M 7.46727,14.311287 C 7.6395312,14.104294 7.8240487,13.83838 7.9373641,13.633819 l 0.073013,-0.131805 -0.14293,-0.305695 C 7.6064781,12.638168 7.5002378,12.147392 7.5002378,11.5 c 0,-0.647392 0.1062403,-1.138168 0.3672091,-1.6963194 L 8.0103769,9.4979859 7.937645,9.3661806 C 7.7039825,8.9427344 7.366515,8.5457434 6.9137866,8.1617309 6.8062131,8.070485 6.6956466,7.9522187 6.6680831,7.8989172 6.4769966,7.5293969 6.4462809,5.9804478 6.6152469,5.2344612 6.6608794,5.0329937 6.6813669,4.9985884 6.8757697,4.7969612 7.5598953,4.0874128 7.6704681,3.3189544 7.1932038,2.5908591 6.5532953,1.6146406 5.0669609,1.2330207 3.8682219,1.7371623 3.4221953,1.9247431 3.0440939,2.2288474 2.8067963,2.5908591 2.329532,3.3189544 2.4401048,4.0874128 3.1242303,4.7969612 c 0.1944028,0.2016272 0.2148903,0.2360325 0.2605228,0.4375 0.168966,0.7459866 0.1382503,2.2949357 -0.052836,2.664456 C 3.3043534,7.9522187 3.1937869,8.070485 3.0862133,8.1617309 2.0436103,9.0460859 1.5183434,10.164471 1.5183434,11.5 c 0,1.048061 0.3458909,2.009924 1.0085799,2.804688 L 2.6897785,14.5 H 5 7.3102216 Z"
       id="path819"
       inkscape:connector-curvature="0" />
  </g>
</svg>
