<?xml version="1.0" encoding="UTF-8" standalone="no"?>
<!-- Created with Inkscape (http://www.inkscape.org/) -->

<svg
   version="1.1"
   id="svg2"
   width="1600"
   height="1600"
   viewBox="0 0 1600 1600"
   sodipodi:docname="ripple_delete.svg"
   inkscape:version="1.4.3 (0d15f75, 2025-12-25)"
   xml:space="preserve"
   xmlns:inkscape="http://www.inkscape.org/namespaces/inkscape"
   xmlns:sodipodi="http://sodipodi.sourceforge.net/DTD/sodipodi-0.dtd"
   xmlns="http://www.w3.org/2000/svg"
   xmlns:svg="http://www.w3.org/2000/svg"
   xmlns:rdf="http://www.w3.org/1999/02/22-rdf-syntax-ns#"
   xmlns:cc="http://creativecommons.org/ns#"
   xmlns:dc="http://purl.org/dc/elements/1.1/"><metadata
     id="metadata8"><rdf:RDF><cc:Work
         rdf:about=""><dc:format>image/svg+xml</dc:format><dc:type
           rdf:resource="http://purl.org/dc/dcmitype/StillImage" /></cc:Work></rdf:RDF></metadata><defs
     id="defs6" /><sodipodi:namedview
     pagecolor="#808080"
     bordercolor="#666666"
     borderopacity="1"
     objecttolerance="10"
     gridtolerance="10"
     guidetolerance="10"
     inkscape:pageopacity="0"
     inkscape:pageshadow="2"
     inkscape:window-width="2560"
     inkscape:window-height="1009"
     id="namedview4"
     showgrid="true"
     inkscape:zoom="0.3535534"
     inkscape:cx="974.39312"
     inkscape:cy="995.60632"
     inkscape:window-x="1912"
     inkscape:window-y="-8"
     inkscape:window-maximized="1"
     inkscape:current-layer="DELETE_DUPLICATE"
     inkscape:showpageshadow="0"
     inkscape:pagecheckerboard="true"
     inkscape:deskcolor="#d1d1d1"><inkscape:grid
       id="grid1"
       units="px"
       originx="0"
       originy="0"
       spacingx="100"
       spacingy="100"
       empcolor="#0099e5"
       empopacity="0.30196078"
       color="#0099e5"
       opacity="0.14901961"
       empspacing="5"
       enabled="true"
       visible="true" /></sodipodi:namedview><g
     id="DELETE_DUPLICATE"
     transform="matrix(100,0,0,100,0,4.9999997e-5)"
     style="stroke-width:0.0114286"><path
       style="fill:none;stroke-width:0.000357143"
       d="M 0,8 V 0 h 8 8 v 8 8 H 8 0 Z m 6.4177509,7.117188 C 5.9491647,14.637526 5.8918666,14.531123 5.8918666,14.140625 c 0,-0.453298 -0.030922,-0.412551 1.4169784,-1.867187 L 8.5763859,11 7.308845,9.7265625 C 5.8609441,8.2719259 5.8918666,8.3126728 5.8918666,7.859375 c 0,-0.4255772 0.032784,-0.4771028 0.7772196,-1.2215387 0.744436,-0.744436 0.7959616,-0.7772197 1.2215388,-0.7772197 0.4533025,0 0.4125328,-0.03094 1.8673628,1.4171534 l 1.2736132,1.2677156 1.257637,-1.2535544 c 0.6917,-0.689455 1.2912,-1.2707443 1.332222,-1.2917543 0.07233,-0.037043 0.03875,-0.074137 -1.109375,-1.2254316 C 11.851592,4.1124262 11.283665,3.5681669 11.227566,3.5437566 11.156862,3.5129909 10.99463,3.5 10.681125,3.5 H 10.235243 L 8.7504341,2.0177823 C 7.48609,0.755645 7.249385,0.53273737 7.15625,0.51652344 7.0960937,0.50605078 5.8701666,0.50156437 4.4319675,0.50655362 1.8467929,0.51552184 1.816079,0.51635762 1.7307734,0.58005591 1.6833158,0.61549288 1.6154929,0.68332097 1.5800559,0.73078497 L 1.515625,0.81708316 V 6.5 12.182917 l 0.064431,0.0863 c 0.035437,0.04746 0.1032555,0.115292 0.1507078,0.150729 0.084537,0.06313 0.1234145,0.0646 1.9277566,0.07297 L 5.5,12.501452 v 1.294115 c 0,0.840805 0.011676,1.32493 0.033332,1.382086 0.018332,0.04839 0.064036,0.121405 0.1015625,0.162269 0.12353,0.134512 0.2259628,0.157551 0.7062803,0.158855 L 6.7917241,15.5 Z M 12.054628,14.476622 11.03125,13.453244 10.007872,14.476622 8.9844944,15.5 H 11.03125 13.078006 Z M 11.03125,12.09375 c 0.04027,0 0.605547,0.539294 1.603232,1.529555 l 1.541023,1.529556 0.504303,-0.504303 0.504303,-0.504303 -1.529556,-1.541023 C 12.664294,11.605547 12.125,11.040275 12.125,11 c 0,-0.04027 0.539294,-0.605547 1.529555,-1.6032319 L 15.184111,7.8557453 14.679808,7.3514422 14.175505,6.8471394 12.634482,8.3766947 C 11.636797,9.3669559 11.071525,9.90625 11.03125,9.90625 c -0.04027,0 -0.605547,-0.5392941 -1.6032319,-1.5295553 L 7.8869953,6.8471394 7.3826922,7.3514422 6.8783894,7.8557453 8.4079447,9.3967681 C 9.3982059,10.394453 9.9375,10.959725 9.9375,11 c 0,0.04027 -0.5392941,0.605547 -1.5295553,1.603232 l -1.5295553,1.541023 0.5043028,0.504303 0.5043031,0.504303 1.5410228,-1.529556 C 10.425703,12.633044 10.990975,12.09375 11.03125,12.09375 Z M 14.5,10.992308 V 9.9846153 l -0.507569,0.5075697 -0.507569,0.507569 0.49939,0.500123 C 14.258917,11.774945 14.487323,12 14.491821,12 14.49632,12 14.5,11.546538 14.5,10.992308 Z"
       id="path831"
       inkscape:connector-curvature="0" /><g
       id="DELETE"
       style="stroke-width:0.0114286"
       transform="translate(1.5022053,0.50910759)"><path
         style="fill:none;stroke-width:0.000357143"
         d="M 0,8 V 0 h 8 8 v 8 8 H 8 0 Z m 3.3397331,6.407012 c 0.4097453,-0.07771 0.323856,-0.0027 2.5824519,-2.255436 l 2.09406,-2.088633 2.06219,2.063477 c 2.272652,2.274071 2.205016,2.216106 2.66982,2.288051 0.473817,0.07334 0.895932,-0.05891 1.238759,-0.388112 0.355409,-0.341281 0.503791,-0.784945 0.427457,-1.278104 -0.07195,-0.464804 -0.01398,-0.397168 -2.288053,-2.669822 L 10.062939,8.0162413 12.167202,5.9065581 C 14.489059,3.57872 14.378194,3.7088822 14.447953,3.2288141 14.515506,2.7639232 14.383313,2.3521722 14.057609,2.0129856 13.718311,1.6596416 13.286466,1.5132862 12.792952,1.584384 12.317592,1.652867 12.395538,1.586304 10.094058,3.8892069 L 8.0162406,5.9683106 5.9065578,3.8640481 C 3.5856909,1.5491442 3.7114341,1.6566822 3.2402241,1.5837458 2.7593913,1.5093198 2.3115453,1.6610929 1.9736406,2.0129856 1.6479369,2.3521722 1.5157437,2.7639232 1.5832972,3.2288141 1.6530562,3.7088822 1.5421913,3.57872 3.8640484,5.9065581 l 2.1042628,2.1096832 -2.063479,2.0621917 c -2.2856558,2.28423 -2.2207506,2.208152 -2.2891982,2.683269 -0.068525,0.475653 0.061044,0.883513 0.3892566,1.225312 0.3569771,0.371755 0.8203852,0.517563 1.3348425,0.419998 z"
         id="path823"
         inkscape:connector-curvature="0" /><path
         style="fill:#fe0000;stroke-width:0.000357143"
         d="M 2.8483364,13.904806 C 2.4203534,13.817823 2.1149835,13.432753 2.1147155,12.979713 2.1144749,12.572677 2.0304718,12.670589 4.4832978,10.218938 L 6.6872909,8.0160003 4.4542741,5.7814378 C 1.9795047,3.3049553 2.0835977,3.4263981 2.0835977,3.015625 c 0,-0.373893 0.1935458,-0.6825731 0.5317228,-0.8480277 0.1391699,-0.06809 0.2160085,-0.084264 0.4003045,-0.084264 0.4127428,0 0.3086869,-0.089212 2.7810625,2.3843395 L 8.0152503,6.6872903 10.249813,4.4542738 c 2.479836,-2.4781208 2.354145,-2.370562 2.770475,-2.3708083 0.526859,-3.125e-4 0.927365,0.402264 0.927365,0.9321595 0,0.4107731 0.104092,0.2893303 -2.370677,2.7658128 L 9.3439591,8.0160003 11.547952,10.218938 c 2.452826,2.451651 2.368823,2.353739 2.368582,2.760775 -2.18e-4,0.378962 -0.191991,0.68641 -0.531854,0.85269 -0.13917,0.06809 -0.216009,0.08426 -0.400305,0.08426 -0.412585,0 -0.310216,0.08768 -2.765436,-2.368714 L 8.0160022,9.3439613 5.7970637,11.561351 C 4.0484234,13.30877 3.54832,13.7916 3.4375,13.839415 c -0.1748672,0.07545 -0.4108225,0.101637 -0.5891636,0.06539 z"
         id="path821"
         inkscape:connector-curvature="0" /><path
         style="fill:#650000;stroke-width:0.000357143"
         d="m 2.71875,14.403189 c -0.3772372,-0.07367 -0.8224598,-0.431364 -0.9885854,-0.794231 -0.1783464,-0.389559 -0.1723123,-0.896596 0.01517,-1.274691 0.084206,-0.169819 0.3498749,-0.44734 2.159498,-2.255834 L 5.9683112,8.0162413 3.8640484,5.9065581 C 1.5421913,3.57872 1.6530562,3.7088822 1.5832972,3.2288141 1.5157437,2.7639232 1.6479369,2.3521722 1.9736406,2.0129856 2.3115453,1.6610929 2.7593913,1.5093198 3.2402241,1.5837458 c 0.47121,0.072936 0.3454668,-0.034602 2.6663337,2.2803023 L 8.0162406,5.9683106 10.094058,3.8892069 c 2.30148,-2.3029052 2.223534,-2.2363404 2.698894,-2.3048229 0.493514,-0.071098 0.925359,0.075258 1.264657,0.4286016 0.325704,0.3391866 0.457897,0.7509376 0.390344,1.2158285 -0.06976,0.4800681 0.04111,0.3499059 -2.280751,2.677744 l -2.104263,2.1096832 2.063479,2.0621917 c 2.274073,2.272654 2.216108,2.205018 2.288053,2.669822 0.07633,0.493159 -0.07205,0.936823 -0.427457,1.278104 -0.342827,0.329201 -0.764942,0.461452 -1.238759,0.388112 -0.464804,-0.07195 -0.397168,-0.01398 -2.66982,-2.288051 l -2.06219,-2.063477 -2.09406,2.088633 C 4.0958738,13.973154 3.8071797,14.248923 3.6643109,14.308366 3.3668934,14.432111 3.0365012,14.465244 2.71875,14.403189 Z M 3.4375,13.839415 C 3.54832,13.7916 4.0484234,13.30877 5.7970637,11.561351 L 8.0160022,9.3439613 10.218939,11.547953 c 2.45522,2.456397 2.352851,2.368714 2.765436,2.368714 0.184296,0 0.261135,-0.01618 0.400305,-0.08427 0.339863,-0.166279 0.53163,-0.473727 0.531854,-0.85269 2.5e-4,-0.407035 0.08424,-0.309123 -2.368582,-2.760774 L 9.3439591,8.0160003 11.576976,5.7814378 c 2.474769,-2.4764825 2.370677,-2.3550397 2.370677,-2.7658128 0,-0.373893 -0.193546,-0.6825731 -0.531723,-0.8480277 -0.138307,-0.067667 -0.216235,-0.084238 -0.395642,-0.084132 -0.41633,2.469e-4 -0.290639,-0.1073125 -2.770475,2.3708082 L 8.0152503,6.6872903 5.7966875,4.4676728 C 3.3243119,1.9941212 3.4283678,2.0833333 3.015625,2.0833333 c -0.184296,0 -0.2611346,0.016174 -0.4003045,0.084264 -0.338177,0.1654546 -0.5317228,0.4741347 -0.5317228,0.8480277 0,0.4107731 -0.104093,0.2893303 2.3706764,2.7658128 L 6.6872909,8.0160003 4.4832978,10.218938 c -2.452826,2.451651 -2.3688231,2.353739 -2.3685823,2.760775 4.102e-4,0.693556 0.6816682,1.136319 1.3227845,0.859702 z"
         id="path819"
         inkscape:connector-curvature="0" /></g><g
       id="DOPESHEET_ACTIVE-6"
       transform="matrix(0,-0.99959272,-0.99959272,0,10.313325,-0.0032616)"
       style="display:inline;stroke-width:0.0100041"
       inkscape:label="ACTION_REPLACED_NEW"><rect
         style="vector-effect:non-scaling-stroke;fill:none;fill-opacity:1;stroke:none;stroke-width:1;stroke-linejoin:bevel;stroke-dasharray:none;stroke-dashoffset:83.9528;stroke-opacity:1;-inkscape-stroke:hairline"
         id="rect1"
         width="1600"
         height="1600"
         x="0"
         y="0"
         ry="3.0198066e-12"
         transform="matrix(0.01000407,0,0,0.01000407,-16.009778,-0.0040203)"
         rx="3.0198066e-12" /><g
         id="DOPESHEET_ACTIVE-6-5"
         transform="translate(6.5738939e-7,0.0153143)"
         style="display:inline;stroke-width:0.0100041"
         inkscape:label="ACTION_REPLACED"><g
           fill="#ffffff"
           id="g3"
           inkscape:label="DOWNLOAD"
           transform="matrix(0.01353134,0,0,0.01353134,13.134319,-12.435022)"
           style="stroke-width:0.00739629"><g
             id="path1-4"
             style="opacity:1;stroke-width:0.00739629"
             inkscape:label="Download"
             transform="translate(-2450.0049,104.63549)"><path
               style="baseline-shift:baseline;display:inline;overflow:visible;vector-effect:none;fill:#1a1a1a;stroke-width:0.00739629;enable-background:accumulate;stop-color:#000000;stop-opacity:1"
               d="m 849.23242,812.92227 c -28.83019,0.2961 -58.31336,9.51072 -82.97461,31.07618 C 741.59656,865.56391 725,901.39507 725,936.9086 v 0.004 212.4918 c -23.63853,-17.9622 -53.61707,-28.0339 -81.30273,-26.6191 -33.66641,1.7203 -61.97671,16.6077 -82.79688,37.4277 -20.82017,20.82 -35.70699,49.1286 -37.42773,82.7949 -1.72075,33.6664 13.34225,70.8822 39.21289,95.7383 l -1.07032,-1.0488 194.20118,194.2011 c 28.94753,32.2692 77.70613,47.4171 112.33398,41.295 36.44431,-6.4433 58.58864,-22.9299 76.29297,-41.5801 l -1.36328,1.3965 195.31442,-195.3125 -1.0722,1.0488 c 25.8706,-24.8561 40.9336,-62.07 39.2129,-95.7363 -1.7208,-33.6664 -16.6076,-61.9769 -37.4278,-82.7969 -20.8202,-20.82 -49.1304,-35.7074 -82.7969,-37.4277 -27.6893,-1.415 -57.67052,8.6601 -81.3105,26.6269 V 936.91642 c 0,-35.42542 -16.25961,-71.80984 -41.4707,-93.68555 -25.21109,-21.87571 -55.46669,-30.60469 -84.29688,-30.3086 z"
               id="path5-4"
               sodipodi:nodetypes="sssccssscccsccccssscsss" /><path
               style="baseline-shift:baseline;display:inline;overflow:visible;opacity:1;vector-effect:none;fill:#fefefe;fill-opacity:1;stroke-width:0.00739629;enable-background:accumulate;stop-color:#000000;stop-opacity:1"
               d="M 800,936.91584 V 1328.6088 L 685.352,1213.9603 c -47.126,-49.0506 -119.754,23.5768 -70.704,70.7032 l 195.704,195.7031 c 27.88799,35.4789 64.85585,15.243 79.696,-0.39 l 195.313,-195.3125 c 49.05,-47.1264 -23.578,-119.7538 -70.704,-70.7032 L 900,1328.6088 V 936.91584 c 0,-66.3576 -99.993,-64.3036 -100,0 z"
               id="path3-1"
               sodipodi:nodetypes="cccccccccsc" /></g></g></g></g></g></svg>
