<?xml version="1.0" encoding="UTF-8" standalone="no"?>
<!-- Created with Inkscape (http://www.inkscape.org/) -->

<svg
   version="1.1"
   id="svg2"
   width="1600"
   height="1600"
   viewBox="0 0 1600 1600"
   sodipodi:docname="rna.svg"
   inkscape:version="1.2.2 (732a01da63, 2022-12-09)"
   xmlns:inkscape="http://www.inkscape.org/namespaces/inkscape"
   xmlns:sodipodi="http://sodipodi.sourceforge.net/DTD/sodipodi-0.dtd"
   xmlns="http://www.w3.org/2000/svg"
   xmlns:svg="http://www.w3.org/2000/svg"
   xmlns:rdf="http://www.w3.org/1999/02/22-rdf-syntax-ns#"
   xmlns:cc="http://creativecommons.org/ns#"
   xmlns:dc="http://purl.org/dc/elements/1.1/">
  <metadata
     id="metadata8">
    <rdf:RDF>
      <cc:Work
         rdf:about="">
        <dc:format>image/svg+xml</dc:format>
        <dc:type
           rdf:resource="http://purl.org/dc/dcmitype/StillImage" />
      </cc:Work>
    </rdf:RDF>
  </metadata>
  <defs
     id="defs6" />
  <sodipodi:namedview
     pagecolor="#808080"
     bordercolor="#666666"
     borderopacity="1"
     objecttolerance="10"
     gridtolerance="10"
     guidetolerance="10"
     inkscape:pageopacity="0"
     inkscape:pageshadow="2"
     inkscape:window-width="2560"
     inkscape:window-height="1009"
     id="namedview4"
     showgrid="false"
     inkscape:zoom="0.5"
     inkscape:cx="366"
     inkscape:cy="1050"
     inkscape:window-x="-8"
     inkscape:window-y="-8"
     inkscape:window-maximized="1"
     inkscape:current-layer="RNA"
     inkscape:showpageshadow="0"
     inkscape:pagecheckerboard="true"
     inkscape:deskcolor="#d1d1d1" />
  <g
     id="RNA"
     transform="scale(99.99993)"
     style="stroke-width:0.01">
    <path
       style="fill:none;stroke-width:0.0003125"
       d="M 0,8 V 0 h 1.8703682 1.8703684 l 0.018764,0.2421875 c 0.044912,0.57966575 0.318146,1.1209616 0.7958035,1.5765412 l 0.186735,0.1781037 -1.0038322,0.0094 C 2.7419308,2.0155543 2.7331989,2.0162074 2.578125,2.0930044 2.3789118,2.1916604 2.1916604,2.3789118 2.0930044,2.578125 2.0170225,2.7315532 2.015625,2.7482021 2.015625,3.5 c 0,0.7517978 0.0014,0.7684469 0.077379,0.921875 0.098656,0.1992131 0.2859074,0.3864647 0.4851206,0.4851206 l 0.15625,0.077379 1.625,0.00983 1.625,0.00983 L 5.5780125,5.153005 C 3.98515,5.7369397 3.1714934,6.3721822 2.8583109,7.2763459 2.7373397,7.6255919 2.7159659,8.1632763 2.8083878,8.5322172 2.9345303,9.0357675 3.2026128,9.4530669 3.6363531,9.8210353 l 0.2050282,0.1739378 -0.5535032,0.010862 c -0.5128153,0.01006 -0.564989,0.01651 -0.7097531,0.08771 -0.1988682,0.0978 -0.3862887,0.285016 -0.4851206,0.484584 -0.075982,0.153428 -0.077379,0.170077 -0.077379,0.921875 0,0.751798 0.0014,0.768447 0.077379,0.921875 0.098656,0.199213 0.2859074,0.386465 0.4851206,0.485121 l 0.15625,0.07738 1.921875,0.0089 1.921875,0.0089 -0.3766416,0.164595 C 5.7488209,13.364628 5.3482116,13.578296 5.03125,13.790963 4.7409416,13.985748 4.2384944,14.489906 4.0982934,14.727097 3.8907222,15.078264 3.7517266,15.527713 3.7505425,15.851563 L 3.75,16 H 1.875 0 Z m 6.515625,7.856759 c 0.1203125,-0.07805 0.3084219,-0.184784 0.4180209,-0.237192 l 0.199271,-0.09529 0.113229,0.124967 c 0.1399991,0.154512 0.2592644,0.235238 0.4413541,0.298734 0.1349997,0.04708 0.1099991,0.04907 -0.625,0.04986 l -0.765625,8.22e-4 0.21875,-0.141904 z m 6.796707,0.09112 c 0.311795,-0.109087 0.53684,-0.339752 0.640412,-0.656405 0.0432,-0.132072 0.05,-0.27218 0.0416,-0.857481 -0.0096,-0.671188 -0.01318,-0.705963 -0.08738,-0.855864 -0.09861,-0.199194 -0.285858,-0.386455 -0.485091,-0.485121 -0.156121,-0.07732 -0.157159,-0.07739 -1.26058,-0.08669 -0.96113,-0.0081 -1.102021,-0.01533 -1.086528,-0.0557 0.132338,-0.344868 0.15958,-0.508322 0.158432,-0.950608 -0.0011,-0.407053 -0.0097,-0.478544 -0.08514,-0.703125 C 11.025555,10.932107 10.863982,10.680679 10.546875,10.361348 9.9596094,9.7699631 9.3952444,9.4843409 7.609375,8.8746925 7.0421875,8.6810697 6.4375,8.4671572 6.265625,8.3993316 5.9149847,8.2609609 5.4375,8.0314234 5.4375,8.0012334 c 0,-0.05444 0.7179088,-0.3708903 1.3050719,-0.5752684 l 0.3103065,-0.1080106 0.056381,0.1277903 c 0.074073,0.16789 0.274364,0.3649281 0.4688656,0.4612509 l 0.15625,0.077379 H 10.5 13.265625 l 0.15625,-0.077379 C 13.621088,7.8083397 13.80834,7.6210881 13.906996,7.421875 13.982978,7.2684469 13.984375,7.2517978 13.984375,6.5 c 0,-0.7517978 -0.0014,-0.7684469 -0.07738,-0.921875 -0.09866,-0.1992131 -0.285907,-0.3864647 -0.48512,-0.4851206 -0.156189,-0.077349 -0.156686,-0.077383 -1.267026,-0.086638 l -1.110777,-0.00926 0.09242,-0.2719912 C 11.211735,4.5036844 11.2314,4.3863222 11.242283,4.09375 11.270291,3.3407797 11.059522,2.8166865 10.5,2.2480126 10.011334,1.7513536 9.3921306,1.3939047 8.1790484,0.90819206 7.1323659,0.48910503 6.7517675,0.30947343 6.390625,0.06410717 L 6.296875,4.1182531e-4 11.148438,2.0591281e-4 16,0 v 8 8 l -1.414062,-0.0015 c -1.325697,-0.0014 -1.405286,-0.0046 -1.273606,-0.05063 z"
       id="path831"
       inkscape:connector-curvature="0" />
    <path
       style="fill:#fefefe;stroke-width:0.0003125"
       d="M 4.2634497,15.809766 C 4.3571656,14.981425 4.9193641,14.35765 6.078125,13.796334 6.3015625,13.688099 6.7356612,13.498867 7.0427887,13.375821 8.3153375,12.86599 8.7674744,12.636478 9.0521997,12.355814 9.4091406,12.003964 9.273585,11.757556 8.515625,11.380452 8.1513909,11.199236 7.6970022,11.027874 6.46875,10.60852 5.1050016,10.142906 4.5310422,9.8767578 4.0353088,9.4801219 2.9146061,8.5834491 3.0091658,7.1819109 4.2456328,6.3627559 4.7770697,6.0106809 5.2384284,5.8116825 6.609375,5.3432 8.13339,4.8224109 8.6035203,4.6257756 8.9704275,4.3556741 9.3086591,4.1066822 9.3300581,3.9149175 9.0499072,3.6434309 8.7554616,3.3580919 8.3099381,3.1318469 7.0427887,2.6241792 6.7356612,2.5011323 6.3015625,2.3119013 6.078125,2.2036658 4.9193641,1.6423496 4.3571656,1.0185751 4.2634497,0.19023362 L 4.2419272,0 h 0.7515534 0.7515535 l 0.021863,0.09954348 c 0.01314,0.05982642 0.085934,0.16269158 0.1824447,0.25781249 0.2831325,0.27905562 0.7373094,0.50943084 2.0078691,1.01846483 1.129805,0.4526424 1.7725309,0.8153164 2.1797061,1.2299528 0.74617,0.7598452 0.814036,1.7805714 0.169063,2.542757 C 9.8415413,5.6973731 9.1763416,6.0474331 7.53125,6.6087256 6.3057781,7.0268472 5.84888,7.1990762 5.4868531,7.3793666 4.9849491,7.6293162 4.75,7.8314997 4.75,8.0134591 c 0,0.1848784 0.4111587,0.4802837 1.0449097,0.7507362 0.3571019,0.1523925 0.5594209,0.2251394 1.8457153,0.6636544 1.6921709,0.5768833 2.412555,0.9959143 2.834872,1.6489773 0.261758,0.404778 0.337667,0.995618 0.188867,1.470048 -0.261035,0.832274 -0.9837568,1.386847 -2.7071528,2.077304 -1.2705596,0.509034 -1.7247365,0.739409 -2.007869,1.018465 -0.096511,0.09512 -0.1693047,0.197986 -0.1824447,0.257813 L 5.7450341,16 H 4.9934806 4.2419272 Z"
       id="path829"
       inkscape:connector-curvature="0" />
    <path
       style="fill:#fecbcb;stroke-width:0.0003125"
       d="M 8.7985166,14.833696 C 9.3744572,14.58123 10.129811,14.149874 10.202815,14.031751 10.215628,14.01102 10.704458,14 11.611219,14 H 13 v 0.5 0.5 l -2.289062,-6e-4 -2.289063,-6e-4 0.3766416,-0.165102 z M 8.4292838,6.8449159 C 9.0007981,6.6346312 9.5037716,6.4027403 9.86167,6.1845287 L 10.164324,6 H 11.582162 13 V 6.5 7 L 10.507812,6.99856 8.015625,6.99712 8.4292837,6.8449169 Z"
       id="path827"
       inkscape:connector-curvature="0" />
    <path
       style="fill:#98cbfe;stroke-width:0.0003125"
       d="M 3,11.5 V 11 h 1.5131416 1.5131412 l 0.7134213,0.24653 c 0.3923815,0.135591 0.8364678,0.293399 0.9868584,0.350684 L 8,11.701368 V 11.850684 12 H 5.5 3 Z m 0,-8 V 3 h 1.7984494 1.798449 L 7.0718869,3.1920897 C 7.3331303,3.2977391 7.6488281,3.4305328 7.7734375,3.4871869 L 8,3.5901941 V 3.7950972 4 H 5.5 3 Z"
       id="path825"
       inkscape:connector-curvature="0" />
    <path
       style="fill:#fe0000;stroke-width:0.0003125"
       d="M 7.6876684,15.948223 C 7.5064641,15.884377 7.3035597,15.744104 7.2174169,15.623128 7.180025,15.570616 7.1544816,15.522998 7.1606534,15.51731 7.1772794,15.501987 7.7190288,15.27406 8.0865656,15.127756 L 8.4075063,15 H 10.703753 13 V 14.5 14 h -1.37268 -1.37268 l 0.188395,-0.179687 c 0.217923,-0.207851 0.442506,-0.496219 0.536556,-0.688945 l 0.06552,-0.134256 1.110259,0.0093 c 1.109792,0.0093 1.110325,0.0093 1.266509,0.08664 0.199213,0.09866 0.386465,0.285908 0.485121,0.485121 0.07598,0.153428 0.07738,0.170077 0.07738,0.921875 0,0.751798 -0.0014,0.768447 -0.07738,0.921875 -0.09866,0.199213 -0.285908,0.386465 -0.485121,0.485121 l -0.15625,0.07738 -2.71875,0.0067 c -2.4117887,0.0059 -2.7346084,0.0011 -2.8592066,-0.04282 z m 0,-7.9999999 C 7.4143816,7.8519319 7.1506084,7.607515 7.081475,7.3865131 7.0570956,7.3085791 7.0285731,7.322935 7.5768237,7.1371928 L 7.9817725,7 H 10.490886 13 V 6.5 6 h -1.424608 -1.424607 l 0.191392,-0.1599234 c 0.220249,-0.1840363 0.493724,-0.4966047 0.613881,-0.7016378 l 0.08284,-0.1413519 1.113365,0.00927 c 1.113087,0.00927 1.113403,0.00929 1.269614,0.086648 0.199213,0.098656 0.386465,0.2859075 0.485121,0.4851206 0.07598,0.1534281 0.07738,0.1700772 0.07738,0.921875 0,0.7517978 -0.0014,0.7684469 -0.07738,0.921875 -0.09866,0.1992131 -0.285908,0.3864647 -0.485121,0.4851206 l -0.15625,0.077379 -2.71875,0.00667 c -2.4117887,0.00592 -2.7346084,0.00108 -2.8592066,-0.042821 z"
       id="path823"
       inkscape:connector-curvature="0" />
    <path
       style="fill:#0032cb;stroke-width:0.0003125"
       d="M 2.6876684,12.947875 C 2.3758727,12.838788 2.1508274,12.608123 2.0472556,12.29147 2.0040572,12.159398 1.9972593,12.01929 2.005652,11.433989 c 0.00962,-0.671188 0.013175,-0.705963 0.087382,-0.855864 0.098785,-0.199549 0.2862036,-0.386772 0.4850912,-0.484584 0.1447542,-0.07119 0.1969522,-0.07764 0.7094722,-0.0877 l 0.5532222,-0.010858 0.1342778,0.092114 c 0.3394325,0.232847 0.921185,0.508729 1.6030278,0.760197 l 0.40625,0.149827 -1.4921875,0.0014 L 3,11 V 11.5 12 H 5.5 8 v -0.140625 c 0,-0.07734 0.00834,-0.140625 0.01854,-0.140625 0.028612,0 0.5229441,0.251905 0.5702197,0.290576 0.034355,0.0281 0.031546,0.042 -0.015625,0.07729 -0.2352735,0.176051 -0.7590838,0.425387 -1.5970835,0.760219 L 6.5927266,13 4.7104259,12.998509 c -1.6287295,-0.0013 -1.9012223,-0.0081 -2.0227575,-0.05063 z m 0,-7.9999997 C 2.3758727,4.8387878 2.1508274,4.6081228 2.0472556,4.29147 2.0040572,4.1593984 1.9972593,4.0192903 2.005652,3.4339894 2.0152762,2.7628011 2.0188267,2.7280264 2.0930338,2.578125 2.1916429,2.3789308 2.3788923,2.19167 2.578125,2.0930044 2.7332837,2.0161655 2.7414425,2.0155591 3.7462578,2.006189 4.7054156,1.997249 4.7615922,1.999859 4.8243828,2.056407 5.0398237,2.2504211 5.6271794,2.5819475 6.2014834,2.8336962 L 6.578125,2.9987988 4.7890625,2.9993994 3,3 V 3.5 4 H 5.5 8 V 3.796875 C 8,3.6851563 8.0106653,3.59375 8.0237006,3.59375 c 0.046232,0 0.5734316,0.328625 0.5761797,0.3591563 0.0085,0.09448 -0.674105,0.3915978 -1.7657369,0.768569 L 6.0275925,5 4.4278588,4.9985094 c -1.3717337,-0.00128 -1.6197522,-0.0085 -1.7401904,-0.050633 z"
       id="path821"
       inkscape:connector-curvature="0" />
    <path
       style="fill:#323232;stroke-width:0.0003125"
       d="m 3.7505425,15.851563 c 0.00118,-0.32385 0.1401797,-0.773299 0.3477509,-1.124466 C 4.2551337,14.461756 4.7479562,13.978474 5.09375,13.750913 5.4651378,13.506508 6.0998406,13.196925 6.8240387,12.906946 7.1311662,12.783968 7.5549353,12.608122 7.7657475,12.516178 8.1599187,12.344263 8.6118231,12.089438 8.6062047,12.042251 8.6014509,12.002326 8.3010234,11.839915 7.9665059,11.696429 7.8032322,11.626396 7.29749,11.4409 6.8426347,11.284217 5.4421444,10.801792 5.2162794,10.718434 4.8125,10.534976 3.6417069,10.003023 3.0215974,9.3833319 2.8083878,8.5322172 2.7159659,8.1632763 2.7373397,7.6255919 2.8583109,7.2763459 3.1186874,6.5246347 3.7494525,5.9424837 4.8304837,5.4561728 5.2377237,5.2729725 5.4924234,5.1791541 6.78125,4.7376097 7.9177437,4.3482534 8.6115331,4.0486572 8.598425,3.9529063 8.5849803,3.8546956 7.9133503,3.5292294 6.8240388,3.0930543 6.0998406,2.8030754 5.4651378,2.4934923 5.09375,2.2490876 4.7479562,2.0215258 4.2551337,1.5382443 4.0982934,1.2729029 3.8907222,0.92173556 3.7517266,0.47228712 3.7505425,0.1484375 L 3.75,0 h 0.2459634 0.2459638 l 0.021522,0.19023362 C 4.3571656,1.0185751 4.9193641,1.6423496 6.078125,2.2036658 6.3015625,2.3119013 6.7356612,2.5011323 7.0427887,2.6241792 8.3099381,3.1318469 8.7554616,3.3580919 9.0499072,3.6434309 9.3300581,3.9149175 9.3086591,4.1066822 8.9704275,4.3556741 8.6035203,4.6257756 8.13339,4.8224109 6.609375,5.3432 5.5612341,5.7013728 5.0215488,5.914415 4.65625,6.1142016 3.7553203,6.6069312 3.3169909,7.1606969 3.2602678,7.8778228 3.2130403,8.4749003 3.4871131,9.0415112 4.0353088,9.4801219 4.5310422,9.8767578 5.1050016,10.142906 6.46875,10.60852 c 1.2282522,0.419354 1.6826409,0.590716 2.046875,0.771932 0.75796,0.377104 0.8935156,0.623512 0.5365747,0.975362 C 8.7674744,12.636478 8.3153375,12.86599 7.0427888,13.375821 6.7356613,13.498867 6.3015625,13.688099 6.078125,13.796334 4.9193641,14.35765 4.3571656,14.981425 4.2634497,15.809766 L 4.2419272,16 H 3.9959634 3.75 l 5.437e-4,-0.148437 z m 2.0141278,0.0625 c 0.087348,-0.35002 0.60126,-0.652357 2.1925409,-1.289884 1.4429179,-0.578087 2.1648828,-1.052891 2.5203538,-1.657521 0.350001,-0.595327 0.349179,-1.346669 -0.0021,-1.889831 C 10.05318,10.423764 9.3327959,10.004733 7.640625,9.4278497 6.3543306,8.9893347 6.1520116,8.9165878 5.7949097,8.7641953 5.1611587,8.4937428 4.75,8.1983375 4.75,8.0134591 4.75,7.8314997 4.9849491,7.6293163 5.4868531,7.3793666 5.84888,7.1990763 6.3057781,7.0268472 7.53125,6.6087256 9.1763416,6.0474331 9.8415413,5.6973731 10.30598,5.1485306 10.822056,4.5386669 10.887439,3.7318428 10.47739,3.033342 10.122667,2.4290875 9.40026,1.9539604 7.9572112,1.3758208 6.3659303,0.73829372 5.8520181,0.43595644 5.7646703,0.0859375 L 5.7432244,0 6.0200497,2.0591281e-4 C 6.2468866,3.7464219e-4 6.3138041,0.01191374 6.390625,0.06410717 6.7517675,0.30947343 7.1323659,0.48910503 8.1790484,0.90819206 9.3921306,1.3939047 10.011334,1.7513536 10.5,2.2480126 11.060168,2.8173432 11.27111,3.3424356 11.241476,4.09375 11.216222,4.7340137 11.027388,5.1542219 10.546875,5.6394266 9.9772559,6.2146078 9.3852097,6.5189725 7.75,7.0772703 7.2601562,7.2445141 6.6695313,7.4518497 6.4375,7.5380156 c -0.4180778,0.1552553 -1,0.4247403 -1,0.4630941 0,0.030296 0.4768612,0.2596053 0.828125,0.3982219 0.171875,0.067826 0.7765625,0.2817381 1.34375,0.4753609 1.7858694,0.6096484 2.3502344,0.8952706 2.9375,1.4866555 0.480125,0.483492 0.669335,0.904324 0.694601,1.544902 0.02963,0.751314 -0.181308,1.276407 -0.741476,1.845738 -0.488666,0.496658 -1.1078694,0.854107 -2.3209516,1.33982 -1.0466825,0.419087 -1.4272809,0.598719 -1.7884234,0.844085 -0.076821,0.05219 -0.1437384,0.06373 -0.3705753,0.0639 l -0.2768253,2.19e-4 0.021446,-0.08594 z"
       id="path819"
       inkscape:connector-curvature="0" />
  </g>
</svg>
