<?xml version="1.0" encoding="UTF-8" standalone="no"?>
<!-- Created with Inkscape (http://www.inkscape.org/) -->

<svg
   xmlns:dc="http://purl.org/dc/elements/1.1/"
   xmlns:cc="http://creativecommons.org/ns#"
   xmlns:rdf="http://www.w3.org/1999/02/22-rdf-syntax-ns#"
   xmlns:svg="http://www.w3.org/2000/svg"
   xmlns="http://www.w3.org/2000/svg"
   xmlns:sodipodi="http://sodipodi.sourceforge.net/DTD/sodipodi-0.dtd"
   xmlns:inkscape="http://www.inkscape.org/namespaces/inkscape"
   version="1.1"
   id="svg2"
   width="16"
   height="16"
   viewBox="0 0 16 16"
   sodipodi:docname="RNA_ADD.svg"
   inkscape:version="0.92.4 (5da689c313, 2019-01-14)">
  <metadata
     id="metadata8">
    <rdf:RDF>
      <cc:Work
         rdf:about="">
        <dc:format>image/svg+xml</dc:format>
        <dc:type
           rdf:resource="http://purl.org/dc/dcmitype/StillImage" />
        <dc:title></dc:title>
      </cc:Work>
    </rdf:RDF>
  </metadata>
  <defs
     id="defs6" />
  <sodipodi:namedview
     pagecolor="#ffffff"
     bordercolor="#666666"
     borderopacity="1"
     objecttolerance="10"
     gridtolerance="10"
     guidetolerance="10"
     inkscape:pageopacity="0"
     inkscape:pageshadow="2"
     inkscape:window-width="828"
     inkscape:window-height="618"
     id="namedview4"
     showgrid="false"
     inkscape:zoom="14.75"
     inkscape:cx="8"
     inkscape:cy="8"
     inkscape:window-x="0"
     inkscape:window-y="0"
     inkscape:window-maximized="0"
     inkscape:current-layer="svg2" />
  <g
     id="RNA_ADD">
    <path
       style="fill:#ffffff;stroke-width:0.03125"
       d="M 0,8 V 0 h 8 8 v 8 8 H 8 0 Z m 3.2781631,7.360971 C 3.4287847,15.283082 3.5562091,15.110163 3.5800272,14.951333 3.6144409,14.721847 3.5567256,14.590934 3.308605,14.335681 2.8733602,13.887925 2.6305999,13.412788 2.6015785,12.95187 2.57171,12.477498 2.6977728,12.152808 3.059213,11.773176 3.4397441,11.373492 3.8682425,11.086996 4.8297094,10.589417 5.1869219,10.404553 5.4036356,10.272512 5.4655253,10.202023 5.7889463,9.8336672 5.4648034,9.2348209 4.9720609,9.2903603 4.8101412,9.3086109 3.9976994,9.7128409 3.4135222,10.06581 c -1.0317241,0.623385 -1.5969729,1.247373 -1.8511938,2.043565 -0.096154,0.301145 -0.1222552,0.961567 -0.05152,1.303604 0.1202068,0.581259 0.4119338,1.120257 0.8640652,1.596456 0.1632114,0.1719 0.3389927,0.330956 0.390625,0.353457 0.1261681,0.05498 0.4046402,0.05394 0.5126649,-0.0019 z m 9.0277699,-0.01461 c 0.146363,-0.0756 0.526618,-0.449472 0.730925,-0.718661 0.185164,-0.243967 0.406144,-0.687809 0.483667,-0.971454 0.08561,-0.313244 0.07835,-0.940248 -0.01464,-1.263493 -0.217648,-0.756567 -0.812404,-1.494559 -1.802756,-2.236916 -0.841032,-0.6304285 -1.547762,-1.0471735 -4,-2.3587204 C 5.9111662,6.838715 5.2747872,6.4745325 4.53125,5.9819412 3.1106246,5.0407812 2.4317565,4.13142 2.6264448,3.4304059 2.6740215,3.2590966 2.926738,2.901806 3.2513788,2.546875 3.657355,2.1030191 3.7259553,1.9221433 3.596465,1.6369972 3.5096897,1.4459117 3.3456306,1.3343474 3.1297572,1.3196244 2.888043,1.303139 2.7678723,1.3771974 2.4060554,1.765625 1.8721535,2.3387941 1.6230816,2.7341316 1.5151767,3.1796656 1.443246,3.4766641 1.4647676,4.0761625 1.5578877,4.3694062 1.9112027,5.4820291 2.9646621,6.45246 5.21875,7.7417381 5.5195312,7.9137769 6.3773437,8.3815747 7.125,8.7812888 c 3.032651,1.6213242 3.906742,2.1766722 4.663154,2.9627062 0.298282,0.309962 0.459095,0.539921 0.581537,0.831584 0.107499,0.256067 0.111664,0.637453 0.0098,0.897728 -0.10837,0.276906 -0.303104,0.551867 -0.586168,0.827655 -0.282347,0.27509 -0.324576,0.348169 -0.324576,0.561692 0,0.225742 0.145734,0.446642 0.34375,0.521048 0.109577,0.04118 0.381223,0.02062 0.493433,-0.03734 z M 6.3024475,13.294002 c 0.048498,-0.03596 0.1184234,-0.109794 0.1553903,-0.164085 l 0.067213,-0.09871 0.061822,0.104781 c 0.036217,0.06138 0.1192444,0.132578 0.2004659,0.171896 0.1376072,0.06662 0.1543538,0.06712 2.2391563,0.06712 2.310302,0 2.222186,0.0072 2.399517,-0.194816 0.218094,-0.248394 0.139036,-0.645379 -0.156447,-0.785595 -0.09568,-0.0454 -0.334424,-0.05084 -2.2331909,-0.05084 -1.4261744,0 -2.155015,0.01094 -2.2140272,0.03324 -0.105846,0.03999 -0.2598469,0.181183 -0.2598469,0.238234 0,0.06924 -0.046212,0.04579 -0.1046291,-0.0531 -0.030582,-0.05177 -0.1103981,-0.122085 -0.1773678,-0.15625 -0.1150009,-0.05867 -0.1857906,-0.06212 -1.2746368,-0.06212 -1.1441288,0 -1.1536572,5.34e-4 -1.2561841,0.07031 -0.1614019,0.109849 -0.2273678,0.220922 -0.2404997,0.404954 -0.015788,0.221256 0.077318,0.387739 0.2721963,0.486713 0.1397662,0.07098 0.1464512,0.07131 1.2866937,0.0625 1.1068441,-0.0086 1.1492253,-0.0111 1.234375,-0.07423 z M 11.728284,7.5432075 C 13.007098,7.3006206 14.091547,6.2808372 14.428808,5.003715 14.542644,4.5726484 14.563979,3.831985 14.474823,3.40625 14.179638,1.9966916 13.133015,0.94021916 11.749757,0.65553912 11.290202,0.56096097 10.564795,0.57906972 10.121285,0.69619159 8.8298422,1.0372348 7.8312662,2.1080796 7.5740728,3.4277503 7.5019253,3.7979416 7.50319,4.4281016 7.5767884,4.78125 c 0.2579763,1.2378403 1.1049153,2.2133353 2.2884613,2.6358247 0.2132493,0.076123 0.5961513,0.1589547 0.8691243,0.188014 0.201456,0.021446 0.727199,-0.011287 0.993909,-0.061881 z M 10.53125,5.59375 v -1 h -1 -1 V 4.109375 3.625 h 1 1 V 2.609375 1.59375 H 11.015625 11.5 V 2.609375 3.625 h 1 1 V 4.109375 4.59375 h -1 -1 v 1 1 H 11.015625 10.53125 Z M 6.1973812,4.3297247 C 6.42322,4.2491803 6.5384616,4.0835734 6.5384616,3.8395775 c 0,-0.1797041 -0.077854,-0.3266109 -0.2259947,-0.4264431 l -0.1060291,-0.071453 -1.2105731,0.00885 -1.2105731,0.00885 -0.09962,0.09375 C 3.49497,3.6325973 3.4526413,3.8511942 3.5640344,4.0813014 c 0.06882,0.1421634 0.1751494,0.228505 0.3259366,0.2646672 0.051922,0.012452 0.5654974,0.023462 1.1412787,0.024468 0.8075719,0.00141 1.0741356,-0.0079 1.1661312,-0.040705 z"
       id="path821"
       inkscape:connector-curvature="0" />
    <path
       style="fill:#fefefe;stroke-width:0.03125"
       d="M 2.7654982,15.362892 C 2.7138659,15.340391 2.5380846,15.181335 2.3748732,15.009435 1.9227418,14.533236 1.6310148,13.994238 1.510808,13.412979 1.4400732,13.070942 1.4661741,12.41052 1.5623284,12.109375 1.8165493,11.313183 2.3817981,10.689195 3.4135222,10.06581 3.9976994,9.7128409 4.8101412,9.3086109 4.9720609,9.2903603 c 0.4927425,-0.055539 0.8168854,0.5433069 0.4934644,0.9116627 -0.06189,0.07049 -0.2786034,0.20253 -0.6358159,0.387394 -0.9614669,0.497579 -1.3899653,0.784075 -1.7704964,1.183759 -0.3614402,0.379632 -0.487503,0.704322 -0.4576345,1.178694 0.029021,0.460918 0.2717817,0.936055 0.7070265,1.383811 0.2481206,0.255253 0.3058359,0.386166 0.2714222,0.615652 -0.023818,0.15883 -0.1512425,0.331749 -0.3018641,0.409638 -0.1080247,0.05586 -0.3864968,0.05691 -0.5126649,0.0019 z m 9.0470018,0.02081 c -0.198016,-0.07441 -0.34375,-0.295306 -0.34375,-0.521048 0,-0.213523 0.04223,-0.286602 0.324576,-0.561692 0.283064,-0.275788 0.477798,-0.550749 0.586168,-0.827655 0.101861,-0.260275 0.0977,-0.641661 -0.0098,-0.897728 -0.122445,-0.291663 -0.283258,-0.521622 -0.58154,-0.831584 C 11.031742,10.957961 10.157651,10.402613 7.125,8.7812888 6.3773437,8.3815747 5.5195312,7.9137769 5.21875,7.7417381 2.9646621,6.45246 1.9112027,5.4820291 1.5578877,4.3694062 1.4647676,4.0761625 1.443246,3.4766641 1.5151767,3.1796656 1.6230816,2.7341316 1.8721535,2.3387941 2.4060554,1.765625 2.7678723,1.3771974 2.888043,1.303139 3.1297572,1.3196244 3.3456306,1.3343474 3.5096897,1.4459117 3.596465,1.6369972 3.7259553,1.9221433 3.657355,2.1030191 3.2513788,2.546875 2.926738,2.901806 2.6740215,3.2590966 2.6264448,3.4304059 2.4317565,4.13142 3.1106246,5.0407812 4.53125,5.9819412 5.2747872,6.4745325 5.9111662,6.838715 7.703125,7.7971206 c 2.452237,1.3115469 3.158968,1.7282919 4,2.3587204 0.990352,0.742357 1.585108,1.480349 1.802756,2.236916 0.09299,0.323245 0.100257,0.950249 0.01464,1.263493 -0.07752,0.283645 -0.298503,0.727487 -0.483667,0.971454 -0.204307,0.269189 -0.584562,0.643064 -0.730925,0.718661 -0.11221,0.05796 -0.383856,0.07851 -0.493433,0.03734 z M 3.7813788,13.30573 C 3.5865006,13.20676 3.4933944,13.040273 3.5091825,12.819017 c 0.013132,-0.184032 0.079098,-0.295105 0.2404997,-0.404954 0.1025269,-0.06978 0.1120553,-0.07031 1.2561841,-0.07031 1.0888462,0 1.1596359,0.0035 1.2746368,0.06212 0.06697,0.03417 0.1467853,0.104478 0.1773678,0.15625 0.058417,0.09889 0.1046291,0.122346 0.1046291,0.0531 0,-0.05705 0.1540009,-0.198243 0.2598469,-0.238234 0.059012,-0.0223 0.7878528,-0.03324 2.2140272,-0.03324 1.8987669,0 2.1375089,0.0054 2.2331909,0.05084 0.295483,0.140216 0.374541,0.537201 0.156447,0.785595 -0.177331,0.20197 -0.08921,0.194816 -2.399517,0.194816 -2.0848025,0 -2.1015491,-5.03e-4 -2.2391563,-0.06712 -0.081222,-0.03932 -0.164249,-0.110513 -0.2004659,-0.171896 l -0.061822,-0.104781 -0.067213,0.09871 c -0.036967,0.05429 -0.1068925,0.128129 -0.1553903,0.164085 -0.08515,0.06313 -0.1275309,0.06568 -1.234375,0.07423 -1.1402425,0.0088 -1.1469275,0.0085 -1.2866937,-0.0625 z M 10.734375,7.6050887 C 9.1272388,7.4340019 7.9011206,6.3374806 7.5767891,4.78125 7.50319,4.4281016 7.5019253,3.7979416 7.5740734,3.4277503 7.8312669,2.1080796 8.8298428,1.0372348 10.121286,0.69619159 c 0.44351,-0.11712187 1.168917,-0.13523062 1.628471,-0.0406525 1.383259,0.28468004 2.429881,1.34115251 2.725066,2.75071091 0.08916,0.425735 0.06782,1.1663984 -0.04601,1.597465 -0.337262,1.2771222 -1.421711,2.2969056 -2.700525,2.5394925 -0.26671,0.050594 -0.792452,0.083327 -0.993908,0.061881 z M 11.5,5.59375 v -1 h 1 1 V 4.109375 3.625 h -1 -1 V 2.609375 1.59375 H 11.015625 10.53125 V 2.609375 3.625 h -1 -1 V 4.109375 4.59375 h 1 1 v 1 1 H 11.015625 11.5 Z M 3.8899713,4.3459622 C 3.7391841,4.3098 3.6328547,4.2234584 3.5640347,4.081295 3.4526416,3.8511878 3.4949703,3.6325909 3.6856719,3.453125 l 0.09962,-0.09375 1.2105731,-0.00885 1.2105731,-0.00885 0.1060291,0.071453 C 6.5859191,3.5974137 6.6203731,4.0123153 6.3802681,4.2296075 6.2348066,4.3612481 6.1285075,4.3723447 5.03125,4.3704297 4.4554687,4.3694234 3.9418934,4.3584144 3.8899713,4.3459622 Z"
       id="path819"
       inkscape:connector-curvature="0" />
  </g>
</svg>
