<?xml version="1.0" encoding="UTF-8" standalone="no"?>
<!-- Created with Inkscape (http://www.inkscape.org/) -->

<svg
   version="1.1"
   id="svg2"
   width="1600"
   height="1600"
   viewBox="0 0 1600 1600"
   sodipodi:docname="roll_y_pos.svg"
   inkscape:version="1.2.2 (732a01da63, 2022-12-09)"
   xmlns:inkscape="http://www.inkscape.org/namespaces/inkscape"
   xmlns:sodipodi="http://sodipodi.sourceforge.net/DTD/sodipodi-0.dtd"
   xmlns="http://www.w3.org/2000/svg"
   xmlns:svg="http://www.w3.org/2000/svg"
   xmlns:rdf="http://www.w3.org/1999/02/22-rdf-syntax-ns#"
   xmlns:cc="http://creativecommons.org/ns#"
   xmlns:dc="http://purl.org/dc/elements/1.1/">
  <metadata
     id="metadata8">
    <rdf:RDF>
      <cc:Work
         rdf:about="">
        <dc:format>image/svg+xml</dc:format>
        <dc:type
           rdf:resource="http://purl.org/dc/dcmitype/StillImage" />
      </cc:Work>
    </rdf:RDF>
  </metadata>
  <defs
     id="defs6" />
  <sodipodi:namedview
     pagecolor="#808080"
     bordercolor="#666666"
     borderopacity="1"
     objecttolerance="10"
     gridtolerance="10"
     guidetolerance="10"
     inkscape:pageopacity="0"
     inkscape:pageshadow="2"
     inkscape:window-width="1993"
     inkscape:window-height="1009"
     id="namedview4"
     showgrid="false"
     inkscape:zoom="0.5"
     inkscape:cx="9"
     inkscape:cy="8"
     inkscape:window-x="-8"
     inkscape:window-y="-8"
     inkscape:window-maximized="1"
     inkscape:current-layer="ROLL_Y_POS"
     inkscape:showpageshadow="0"
     inkscape:pagecheckerboard="true"
     inkscape:deskcolor="#d1d1d1" />
  <g
     id="ROLL_Y_POS"
     transform="matrix(100,0,0,100,0,4.9999997e-5)"
     style="stroke-width:0.0114286">
    <path
       style="fill:none;stroke-width:0.000357143"
       d="M 0,8 V 0 h 8 8 v 8 8 H 8 0 Z m 4.71875,5.64268 V 12.410359 L 5.5049319,11.212992 C 5.9373319,10.55444 6.4360472,9.7941406 6.6131878,9.5234375 L 6.9352622,9.03125 H 6.1142109 5.2931597 L 4.6387675,10.062155 C 4.2788516,10.629153 3.9773438,11.093203 3.96875,11.093378 3.9601562,11.093554 3.6578125,10.629658 3.296875,10.0625 L 2.640625,9.0313028 1.8214314,9.0312763 1.0022378,9.03125 1.324312,9.5234375 C 1.5014529,9.7941406 2.0001681,10.55444 2.4325681,11.212992 L 3.21875,12.410359 V 13.64268 14.875 h 0.75 0.75 z m 4.4099675,0.265835 c 1.0169185,-0.200538 1.9660265,-0.659468 2.7900285,-1.349084 0.984794,-0.824186 1.721409,-2.0962 1.994863,-3.444806 0.0621,-0.3062572 0.07077,-0.4427678 0.07077,-1.114625 0,-0.6718572 -0.0087,-0.8083678 -0.07077,-1.114625 C 13.80249,6.337365 13.617186,5.8046066 13.360035,5.29382 12.522084,3.6293734 11.029435,2.4953773 9.140625,2.0882474 8.8443647,2.0243889 8.7302809,2.0202533 6.9453125,2.0086654 L 5.0625,1.9964423 V 1.4789531 0.96146394 L 4.992188,0.97610834 C 4.9414634,0.986673 2.0652947,2.0804851 1.0234375,2.485431 0.89966716,2.5335377 0.98565872,2.5931906 1.3984375,2.7455711 3.4592622,3.50634 4.989895,4.0625 5.0228172,4.0625 5.0533381,4.0625 5.0625,3.9398453 5.0625,3.53125 V 3 h 1.3860869 c 1.4756806,0 2.0036472,0.026985 2.5045381,0.1280088 1.988104,0.4009775 3.489203,1.9051109 3.926553,3.9344912 0.102616,0.4761584 0.102616,1.3988416 0,1.875 -0.271023,1.257592 -0.916057,2.282866 -1.907262,3.031568 -0.750204,0.566662 -1.7384944,0.933949 -2.6649251,0.99039 L 8,12.978191 v 0.515395 0.515395 l 0.3984375,-0.01751 c 0.2191406,-0.0096 0.5477666,-0.04696 0.73028,-0.08295 z"
       id="path821"
       inkscape:connector-curvature="0" />
    <path
       style="fill:#fefdfe;stroke-width:0.000357143"
       d="M 3.21875,13.64268 V 12.410359 L 2.4325681,11.212992 C 2.0001681,10.55444 1.5014529,9.7941406 1.324312,9.5234375 L 1.0022378,9.03125 l 0.8191936,2.63e-5 0.8191936,2.65e-5 0.65625,1.0311972 c 0.3609375,0.567158 0.6632812,1.031054 0.671875,1.030878 0.00859,-1.87e-4 0.3101016,-0.464225 0.6700175,-1.031223 L 5.2931597,9.03125 H 6.1142109 6.9352622 L 6.6131878,9.5234375 C 6.4360472,9.7941406 5.9373319,10.55444 5.5049319,11.212992 L 4.71875,12.410359 V 13.64268 14.875 h -0.75 -0.75 z M 8,13.493586 v -0.515395 l 0.3074909,-0.01873 c 0.9264307,-0.05644 1.9147221,-0.423728 2.6649251,-0.99039 0.991205,-0.748702 1.636239,-1.773976 1.907262,-3.031568 0.102616,-0.4761584 0.102616,-1.3988416 0,-1.875 C 12.442328,5.0331197 10.941229,3.5289863 8.953125,3.1280087 8.4522341,3.0269847 7.9242675,3 6.4485869,3 H 5.0625 V 3.53125 C 5.0625,3.9398453 5.05334,4.0625 5.022817,4.0625 4.989895,4.0625 3.459262,3.50634 1.3984373,2.7455711 0.98565872,2.5931906 0.89966716,2.5335377 1.0234375,2.485431 2.0652947,2.0804851 4.9414634,0.986673 4.9921875,0.97610837 L 5.0625,0.96146394 V 1.4789531 1.9964423 l 1.8828125,0.012223 c 1.7849684,0.011588 1.8990522,0.015724 2.1953125,0.079582 1.051964,0.2267492 1.963231,0.670332 2.778121,1.352322 0.984794,0.8241859 1.721409,2.0961997 1.994863,3.4448056 0.0621,0.3062572 0.07077,0.4427678 0.07077,1.114625 0,0.6718572 -0.0087,0.8083678 -0.07077,1.114625 -0.111119,0.54801 -0.296423,1.0807681 -0.553574,1.5915551 -0.610203,1.212064 -1.542141,2.125166 -2.76804,2.712092 -0.7282903,0.348685 -1.4649034,0.541169 -2.1935575,0.573196 L 8,14.008981 Z"
       id="path819"
       inkscape:connector-curvature="0" />
  </g>
</svg>
