<?xml version="1.0" encoding="UTF-8" standalone="no"?>
<!-- Created with Inkscape (http://www.inkscape.org/) -->

<svg
   version="1.1"
   id="svg2"
   width="1600"
   height="1600"
   viewBox="0 0 1600 1600"
   sodipodi:docname="roll_z_pos.svg"
   inkscape:version="1.2.2 (732a01da63, 2022-12-09)"
   xmlns:inkscape="http://www.inkscape.org/namespaces/inkscape"
   xmlns:sodipodi="http://sodipodi.sourceforge.net/DTD/sodipodi-0.dtd"
   xmlns="http://www.w3.org/2000/svg"
   xmlns:svg="http://www.w3.org/2000/svg"
   xmlns:rdf="http://www.w3.org/1999/02/22-rdf-syntax-ns#"
   xmlns:cc="http://creativecommons.org/ns#"
   xmlns:dc="http://purl.org/dc/elements/1.1/">
  <metadata
     id="metadata8">
    <rdf:RDF>
      <cc:Work
         rdf:about="">
        <dc:format>image/svg+xml</dc:format>
        <dc:type
           rdf:resource="http://purl.org/dc/dcmitype/StillImage" />
      </cc:Work>
    </rdf:RDF>
  </metadata>
  <defs
     id="defs6" />
  <sodipodi:namedview
     pagecolor="#808080"
     bordercolor="#666666"
     borderopacity="1"
     objecttolerance="10"
     gridtolerance="10"
     guidetolerance="10"
     inkscape:pageopacity="0"
     inkscape:pageshadow="2"
     inkscape:window-width="2560"
     inkscape:window-height="1009"
     id="namedview4"
     showgrid="false"
     inkscape:zoom="0.5"
     inkscape:cx="748"
     inkscape:cy="678"
     inkscape:window-x="-8"
     inkscape:window-y="-8"
     inkscape:window-maximized="1"
     inkscape:current-layer="ROLL_Z_POS"
     inkscape:showpageshadow="0"
     inkscape:pagecheckerboard="true"
     inkscape:deskcolor="#d1d1d1" />
  <g
     id="ROLL_Z_POS"
     transform="matrix(100,0,0,100,0,4.9999997e-5)"
     style="stroke-width:0.0114286">
    <path
       style="fill:none;stroke-width:0.000357143"
       d="M 0,8 V 0 h 8 8 v 8 8 H 8 0 Z m 6.5625,6.406531 V 13.844313 L 4.9559884,13.836219 3.3494772,13.828125 4.9076562,11.9375 6.4658356,10.046875 6.4672928,9.5859375 6.46875,9.125 H 4.015625 1.5625 v 0.5622028 0.5622022 l 1.5147422,0.0081 1.5147422,0.0081 -1.5603223,1.890625 -1.5603222,1.890625 -0.0013,0.460938 -0.00129,0.460937 H 4.015625 6.5625 Z m 2.5662175,-0.498016 c 1.0169185,-0.200538 1.9660265,-0.659468 2.7900285,-1.349084 0.984794,-0.824186 1.721409,-2.0962 1.994863,-3.444806 0.0621,-0.3062572 0.07077,-0.4427678 0.07077,-1.114625 0,-0.6718572 -0.0087,-0.8083678 -0.07077,-1.114625 C 13.80249,6.337365 13.617186,5.8046066 13.360035,5.29382 12.522084,3.6293734 11.029435,2.4953773 9.140625,2.0882474 8.8443647,2.0243889 8.7302809,2.0202533 6.9453125,2.0086654 L 5.0625,1.9964423 V 1.4789531 0.96146394 L 4.992188,0.97610834 C 4.9414634,0.986673 2.0652947,2.0804851 1.0234375,2.485431 0.89966716,2.5335377 0.98565872,2.5931906 1.3984375,2.7455711 3.4592622,3.50634 4.989895,4.0625 5.0228172,4.0625 5.0533381,4.0625 5.0625,3.9398453 5.0625,3.53125 V 3 h 1.3860869 c 1.4756806,0 2.0036472,0.026985 2.5045381,0.1280088 1.988104,0.4009775 3.489203,1.9051109 3.926553,3.9344912 0.102616,0.4761584 0.102616,1.3988416 0,1.875 -0.271023,1.257592 -0.916057,2.282866 -1.907262,3.031568 -0.750204,0.566662 -1.7384944,0.933949 -2.6649251,0.99039 L 8,12.978191 v 0.515395 0.515395 l 0.3984375,-0.01751 c 0.2191406,-0.0096 0.5477666,-0.04696 0.73028,-0.08295 z"
       id="path821"
       inkscape:connector-curvature="0" />
    <path
       style="fill:#fefdfe;stroke-width:0.000407951"
       d="m 0.9589764,15.511468 0.001485,-0.526512 1.7822906,-2.159589 1.7822964,-2.159588 -1.730232,-0.0093 -1.730232,-0.0093 V 10.00507 9.3628871 H 3.866695 6.6688058 l -0.00167,0.5265113 -0.00167,0.5265106 -1.7798487,2.159589 -1.7798482,2.159588 1.8350562,0.0093 1.8350567,0.0093 v 0.6422 0.642201 H 3.8666886 0.9574909 l 0.00148,-0.526511 z M 8.417894,14.352955 v -0.588716 l 0.3512351,-0.0214 c 1.0582262,-0.06447 2.1871129,-0.484008 3.0440419,-1.131284 1.132215,-0.855214 1.869013,-2.026345 2.178592,-3.4628435 0.117214,-0.5438975 0.117214,-1.5978432 0,-2.1417407 C 13.492195,4.688889 11.777547,2.970775 9.5066123,2.5127537 8.9344637,2.3973578 8.3313876,2.3665343 6.6457742,2.3665343 H 5.0625003 v 0.6068265 c 0,0.4667227 -0.010463,0.6068265 -0.045328,0.6068265 -0.037606,0 -1.785989,-0.6352803 -4.1399901,-1.5042774 C 0.40568063,1.9018514 0.30745576,1.8337122 0.4488339,1.7787617 1.6389074,1.3162076 4.9242448,0.06678788 4.982185,0.05472038 L 5.0625,0.03799238 V 0.62910042 1.2202085 l 2.1506648,0.013962 c 2.0389011,0.013237 2.1692146,0.017961 2.5076215,0.090904 1.2016177,0.2590069 2.2425227,0.7656945 3.1733407,1.5447056 1.124893,0.941436 1.9663,2.3944086 2.278656,3.9348695 0.07093,0.3498258 0.08084,0.5057567 0.08084,1.2731934 0,0.7674367 -0.0099,0.9233676 -0.08084,1.2731934 -0.126927,0.6259711 -0.338593,1.2345206 -0.632327,1.8179726 -0.697011,1.384494 -1.761528,2.427496 -3.161826,3.097919 -0.831898,0.398289 -1.6733027,0.618156 -2.5056161,0.65474 l -0.4551199,0.02 z"
       id="path819"
       inkscape:connector-curvature="0" />
  </g>
</svg>
