<?xml version="1.0" encoding="UTF-8" standalone="no"?>
<!-- Created with Inkscape (http://www.inkscape.org/) -->

<svg
   version="1.1"
   id="svg2"
   width="1600"
   height="1600"
   viewBox="0 0 1600 1600"
   sodipodi:docname="rotatecenter.svg"
   inkscape:version="1.2.2 (732a01da63, 2022-12-09)"
   xmlns:inkscape="http://www.inkscape.org/namespaces/inkscape"
   xmlns:sodipodi="http://sodipodi.sourceforge.net/DTD/sodipodi-0.dtd"
   xmlns="http://www.w3.org/2000/svg"
   xmlns:svg="http://www.w3.org/2000/svg"
   xmlns:rdf="http://www.w3.org/1999/02/22-rdf-syntax-ns#"
   xmlns:cc="http://creativecommons.org/ns#"
   xmlns:dc="http://purl.org/dc/elements/1.1/">
  <metadata
     id="metadata8">
    <rdf:RDF>
      <cc:Work
         rdf:about="">
        <dc:format>image/svg+xml</dc:format>
        <dc:type
           rdf:resource="http://purl.org/dc/dcmitype/StillImage" />
      </cc:Work>
    </rdf:RDF>
  </metadata>
  <defs
     id="defs6" />
  <sodipodi:namedview
     pagecolor="#808080"
     bordercolor="#666666"
     borderopacity="1"
     objecttolerance="10"
     gridtolerance="10"
     guidetolerance="10"
     inkscape:pageopacity="0"
     inkscape:pageshadow="2"
     inkscape:window-width="1993"
     inkscape:window-height="1009"
     id="namedview4"
     showgrid="false"
     inkscape:zoom="0.5"
     inkscape:cx="9"
     inkscape:cy="8"
     inkscape:window-x="-8"
     inkscape:window-y="-8"
     inkscape:window-maximized="1"
     inkscape:current-layer="ROTATECENTER"
     inkscape:showpageshadow="0"
     inkscape:pagecheckerboard="true"
     inkscape:deskcolor="#d1d1d1" />
  <g
     id="ROTATECENTER"
     transform="matrix(100,0,0,100,0,4.9999997e-5)"
     style="stroke-width:0.0114286">
    <path
       style="fill:none;stroke-width:0.000357143"
       d="M 0.00500116,10.789063 C 0.0077518,7.9230469 0.01526717,5.6273437 0.021702,5.6875 0.09344107,6.3581559 0.43027028,7.2352153 0.85552228,7.8586591 1.106574,8.2267153 1.7732847,8.8934259 2.141341,9.1444778 2.6456319,9.4884553 3.2817928,9.7646212 3.90625,9.9106481 c 0.3328747,0.077841 1.3743659,0.1141999 1.7920609,0.06256 0.3681735,-0.045517 0.3739982,-0.039693 0.328481,0.3284809 -0.051639,0.417695 -0.015281,1.459186 0.06256,1.792061 0.1460269,0.624457 0.4221928,1.260618 0.7661703,1.764909 0.2510519,0.368056 0.9177625,1.034767 1.2858187,1.285819 0.6234438,0.425252 1.5005032,0.762081 2.1711591,0.83382 0.06016,0.0064 -2.2355469,0.01395 -5.1015625,0.0167 L 0,16 Z M 11.6875,15.978298 c 0.670656,-0.07174 1.547715,-0.408568 2.171159,-0.83382 0.368056,-0.251052 1.034767,-0.917763 1.285819,-1.285819 0.425252,-0.623444 0.762081,-1.500503 0.83382,-2.171159 0.0064,-0.06016 0.01395,0.885547 0.0167,2.101563 L 16,16 13.789063,15.995 C 12.573047,15.9922 11.627344,15.98473 11.6875,15.9783 Z m 4.280574,-5.689235 C 15.966283,9.9790575 15.724198,9.1966688 15.478235,8.7059719 15.246144,8.24295 14.986593,7.8942744 14.546159,7.4538409 13.951934,6.8596162 13.430385,6.5266478 12.684653,6.2654137 12.121023,6.0679716 11.895654,6.0291069 11.203125,6.0099266 10.82713,5.9995128 10.467991,6.0062322 10.301689,6.0267919 9.9335156,6.0723091 9.9276909,6.0664844 9.9732081,5.6983109 10.024847,5.2806159 9.9884894,4.2391247 9.9106481,3.90625 9.7646212,3.2817928 9.4884553,2.6456319 9.1444778,2.141341 8.8934259,1.7732847 8.2267153,1.106574 7.8586591,0.85552228 7.2352153,0.43027028 6.3581559,0.09344107 5.6875,0.021702 5.6273437,0.01526717 7.9230469,0.0077518 10.789063,0.00500116 L 16,0 v 5.203125 c 0,2.8617188 -0.007,5.203125 -0.01563,5.203125 -0.0086,0 -0.01593,-0.05273 -0.0163,-0.117187 z M 0.00500116,2.2109375 0,0 2.2109375,0.00500116 C 3.4269531,0.0077518 4.3726563,0.01526717 4.3125,0.021702 3.6418441,0.09344107 2.7647847,0.43027028 2.141341,0.85552228 1.7732847,1.106574 1.106574,1.7732847 0.85552228,2.141341 0.43027028,2.7647847 0.09344107,3.6418441 0.021702,4.3125 0.01526717,4.3726563 0.0077518,3.4269531 0.00500116,2.2109375 Z"
       id="path827"
       inkscape:connector-curvature="0" />
    <path
       style="fill:#fefefe;stroke-width:0.000357143"
       d="M 10.5625,14.980521 C 8.8128841,14.757808 7.4464812,13.504325 7.0750253,11.78125 6.9787653,11.334728 6.9983381,10.459418 7.1136331,10.054688 7.1281794,10.003624 7.2243319,10 8.5646059,10 H 10 V 8.5646059 c 0,-1.340274 0.0036,-1.4364265 0.05469,-1.4509728 0.40473,-0.115295 1.28004,-0.1348678 1.726562,-0.038608 1.59954,0.3448247 2.7989,1.5441847 3.143725,3.1437249 0.08007,0.371415 0.08007,1.191085 0,1.5625 -0.340324,1.578663 -1.514948,2.771235 -3.081225,3.128305 -0.260887,0.05948 -1.034778,0.10234 -1.28125,0.07097 z m -6,-6.0000001 C 2.8128841,8.7578084 1.4464813,7.5043247 1.0750252,5.78125 0.9949566,5.409835 0.9949566,4.590165 1.0750252,4.21875 1.41985,2.61921 2.61921,1.41985 4.21875,1.0750252 c 0.371415,-0.0800686 1.191085,-0.0800686 1.5625,0 C 7.38079,1.41985 8.58015,2.61921 8.9249747,4.21875 9.0212347,4.6652719 9.0016619,5.5405816 8.8863669,5.9453125 8.8718206,5.9963759 8.7756681,6 7.4353941,6 H 6 v 1.4369047 1.4369047 l -0.070312,0.015967 c -0.038672,0.00878 -0.1335943,0.030412 -0.210938,0.048065 -0.1524819,0.034804 -0.9785738,0.065296 -1.15625,0.04268 z"
       id="path825"
       inkscape:connector-curvature="0" />
    <path
       style="fill:#cbfefe;stroke-width:0.000357143"
       d="M 7,8 V 7 H 8 9 V 8 9 H 8 7 Z"
       id="path823"
       inkscape:connector-curvature="0" />
    <path
       style="fill:#0065cb;stroke-width:0.000357143"
       d="M 6,8 V 6 h 2 2 v 2 2 H 8 6 Z M 9,8 V 7 H 8 7 v 1 1 h 1 1 z"
       id="path821"
       inkscape:connector-curvature="0" />
    <path
       style="fill:#323232;stroke-width:0.000357143"
       d="M 10.3125,15.980219 C 9.8361359,15.920897 9.1810713,15.716386 8.7082113,15.47936 8.2429297,15.246132 7.8948769,14.987195 7.4538409,14.546159 6.8497087,13.942027 6.5206244,13.421656 6.2543584,12.649456 6.0424594,12.034926 6.0168962,11.861218 6.0162219,11.03125 6.0158937,10.627344 6.0270334,10.230078 6.0409772,10.148438 L 6.0663297,10 h 0.5314409 c 0.491236,0 0.5302625,0.0041 0.5158625,0.05469 -0.115295,0.40473 -0.1348678,1.28004 -0.038608,1.726562 0.3448247,1.59954 1.5441847,2.7989 3.1437249,3.143725 0.197011,0.04247 0.398818,0.05726 0.78125,0.05726 0.382432,0 0.584239,-0.01479 0.78125,-0.05726 1.59954,-0.344825 2.7989,-1.544185 3.143725,-3.143725 0.08007,-0.371415 0.08007,-1.191085 0,-1.5625 C 14.58015,8.61921 13.38079,7.41985 11.78125,7.0750253 11.334728,6.9787653 10.459418,6.9983381 10.054688,7.1136331 10.004137,7.1280331 10,7.0890066 10,6.5977706 V 6.0663297 l 0.148438,-0.025352 c 0.08164,-0.013944 0.478906,-0.025084 0.882812,-0.024755 0.829968,6.75e-4 1.003676,0.026238 1.618206,0.2381365 0.7722,0.266266 1.292571,0.5953503 1.896703,1.1994825 0.604132,0.6041322 0.933217,1.1245029 1.199483,1.8967029 0.215056,0.6236878 0.238417,0.7853034 0.238417,1.6494564 0,0.864153 -0.02336,1.025768 -0.238417,1.649456 -0.266266,0.7722 -0.595351,1.292571 -1.199483,1.896703 -0.594225,0.594225 -1.115774,0.927193 -1.861506,1.188427 -0.596184,0.208847 -0.778349,0.237948 -1.559653,0.249162 -0.386719,0.0055 -0.752344,0.004 -0.8125,-0.0035 z m -6,-6.0000002 C 3.8361359,9.9208972 3.1810713,9.7163859 2.7082113,9.4793597 2.2429298,9.2461322 1.8948769,8.987195 1.453841,8.5461591 0.84970875,7.9420269 0.52062428,7.4216562 0.25435843,6.6494562 0.03930172,6.0257684 0.01594134,5.8641528 0.01594134,5 c 0,-0.8641528 0.02336038,-1.0257684 0.23841709,-1.6494562 C 0.52062428,2.5783438 0.84970875,2.0579732 1.453841,1.453841 2.0579732,0.84970875 2.5783438,0.52062428 3.3505438,0.25435843 3.9742316,0.03930172 4.1358472,0.01594134 5,0.01594134 c 0.8641528,0 1.0257684,0.02336038 1.6494562,0.23841709 0.7722,0.26626585 1.2925707,0.59535032 1.8967029,1.19948257 0.6041321,0.6041322 0.9332165,1.1245028 1.1994825,1.8967028 0.211899,0.6145306 0.2374622,0.7882378 0.2381365,1.6182062 3.281e-4,0.4039063 -0.010812,0.8011719 -0.024755,0.8828125 L 9.9336703,6 H 9.4022294 C 8.9109934,6 8.8719669,5.9958628 8.8863669,5.9453125 9.0016619,5.5405816 9.0212347,4.6652719 8.9249747,4.21875 8.58015,2.61921 7.38079,1.41985 5.78125,1.0750252 5.409835,0.9949566 4.590165,0.9949566 4.21875,1.0750252 2.61921,1.41985 1.41985,2.61921 1.0750252,4.21875 c -0.0800686,0.371415 -0.0800686,1.191085 0,1.5625 C 1.41985,7.38079 2.61921,8.58015 4.21875,8.9249747 4.6652719,9.0212347 5.5405816,9.0016619 5.9453125,8.8863669 5.9958578,8.8719681 6,8.9109113 6,9.4005013 V 9.9302141 L 5.914063,9.9512001 C 5.8131838,9.9758353 4.4723838,10.000129 4.3125,9.9802188 Z"
       id="path819"
       inkscape:connector-curvature="0" />
  </g>
</svg>
