<?xml version="1.0" encoding="UTF-8" standalone="no"?>
<!-- Created with Inkscape (http://www.inkscape.org/) -->

<svg
   version="1.1"
   id="svg2"
   width="1600"
   height="1600"
   viewBox="0 0 1600 1600"
   sodipodi:docname="rotatecollection.svg"
   inkscape:version="1.2.2 (732a01da63, 2022-12-09)"
   xmlns:inkscape="http://www.inkscape.org/namespaces/inkscape"
   xmlns:sodipodi="http://sodipodi.sourceforge.net/DTD/sodipodi-0.dtd"
   xmlns="http://www.w3.org/2000/svg"
   xmlns:svg="http://www.w3.org/2000/svg"
   xmlns:rdf="http://www.w3.org/1999/02/22-rdf-syntax-ns#"
   xmlns:cc="http://creativecommons.org/ns#"
   xmlns:dc="http://purl.org/dc/elements/1.1/">
  <metadata
     id="metadata8">
    <rdf:RDF>
      <cc:Work
         rdf:about="">
        <dc:format>image/svg+xml</dc:format>
        <dc:type
           rdf:resource="http://purl.org/dc/dcmitype/StillImage" />
      </cc:Work>
    </rdf:RDF>
  </metadata>
  <defs
     id="defs6" />
  <sodipodi:namedview
     pagecolor="#808080"
     bordercolor="#666666"
     borderopacity="1"
     objecttolerance="10"
     gridtolerance="10"
     guidetolerance="10"
     inkscape:pageopacity="0"
     inkscape:pageshadow="2"
     inkscape:window-width="1993"
     inkscape:window-height="1009"
     id="namedview4"
     showgrid="false"
     inkscape:zoom="0.5"
     inkscape:cx="9"
     inkscape:cy="8"
     inkscape:window-x="-8"
     inkscape:window-y="-8"
     inkscape:window-maximized="1"
     inkscape:current-layer="ROTATECOLLECTION"
     inkscape:showpageshadow="0"
     inkscape:pagecheckerboard="true"
     inkscape:deskcolor="#d1d1d1" />
  <g
     id="ROTATECOLLECTION"
     transform="matrix(100,0,0,100,0,4.9999997e-5)"
     style="stroke-width:0.0114286">
    <path
       style="fill:none;stroke-width:0.000357143"
       d="M 0.00500116,10.789063 C 0.0077518,7.9230469 0.01526717,5.6273437 0.021702,5.6875 0.06916568,6.1312162 0.28211781,6.8159437 0.52064031,7.2917887 0.75386781,7.7570703 1.0128051,8.1051231 1.453841,8.5461591 2.0579732,9.1502913 2.5783438,9.4793756 3.3505438,9.7456416 3.979665,9.9625719 4.1338969,9.9845553 5.015625,9.9829741 5.4973178,9.9821116 5.8504703,9.9678059 5.9366528,9.9456681 6.0135303,9.9259206 6.0795366,9.91287 6.0833334,9.9166666 c 0.0038,0.0038 -0.00925,0.069803 -0.029001,0.1466804 -0.022138,0.08618 -0.036442,0.439335 -0.037306,0.921028 -0.00158,0.881728 0.020402,1.03596 0.2373325,1.665081 0.266266,0.7722 0.5953503,1.292571 1.1994825,1.896703 0.441036,0.441036 0.7890888,0.699973 1.2543704,0.933201 0.4758449,0.238522 1.1605725,0.451474 1.6042892,0.498938 0.06016,0.0064 -2.2355474,0.01395 -5.101563,0.0167 L 0,16 Z M 11.6875,15.978298 c 0.670656,-0.07174 1.547715,-0.408568 2.171159,-0.83382 0.368056,-0.251052 1.034767,-0.917763 1.285819,-1.285819 0.425252,-0.623444 0.762081,-1.500503 0.83382,-2.171159 0.0064,-0.06016 0.01395,0.885547 0.0167,2.101563 L 16,16 13.789063,15.995 C 12.573047,15.9922 11.627344,15.98473 11.6875,15.9783 Z m 4.280574,-5.689235 C 15.966283,9.9790575 15.724198,9.1966688 15.478235,8.7059719 15.246144,8.24295 14.986593,7.8942744 14.546159,7.4538409 13.942027,6.8497087 13.421656,6.5206244 12.649456,6.2543584 12.020335,6.0374281 11.866103,6.0154447 10.984375,6.0170259 c -0.481693,8.657e-4 -0.834845,0.015168 -0.921028,0.037306 -0.076877,0.019747 -0.1428836,0.032798 -0.1466804,0.029001 -0.0038,-0.0038 0.00925,-0.069803 0.029002,-0.1466806 C 9.9678059,5.8504703 9.98211,5.4973178 9.9829741,5.015625 9.9845553,4.1338969 9.9625719,3.979665 9.7456416,3.3505437 9.4793756,2.5783438 9.1502913,2.0579732 8.5461591,1.453841 8.1051231,1.0128051 7.7570703,0.75386781 7.2917887,0.52064031 6.8159437,0.28211781 6.1312162,0.06916568 5.6875,0.021702 5.6273437,0.01526717 7.9230469,0.0077518 10.789063,0.00500116 L 16,0 v 5.203125 c 0,2.8617188 -0.007,5.203125 -0.01563,5.203125 -0.0086,0 -0.01593,-0.05273 -0.0163,-0.117187 z M 0.00500116,2.2109375 0,0 2.2109375,0.00500116 C 3.4269531,0.0077518 4.3726563,0.01526717 4.3125,0.021702 3.6418441,0.09344107 2.7647847,0.43027028 2.141341,0.85552228 1.7732847,1.106574 1.106574,1.7732847 0.85552228,2.141341 0.43027028,2.7647847 0.09344107,3.6418441 0.021702,4.3125 0.01526717,4.3726563 0.0077518,3.4269531 0.00500116,2.2109375 Z"
       id="path827"
       inkscape:connector-curvature="0" />
    <path
       style="fill:#fefefe;stroke-width:0.000357143"
       d="M 10.5625,14.980521 C 8.8128841,14.757808 7.4464812,13.504325 7.0750253,11.78125 c -0.080069,-0.371415 -0.080069,-1.191085 0,-1.5625 C 7.41985,8.61921 8.61921,7.41985 10.21875,7.0750253 c 0.371415,-0.080069 1.191085,-0.080069 1.5625,0 1.59954,0.3448247 2.7989,1.5441847 3.143725,3.1437247 0.08007,0.371415 0.08007,1.191085 0,1.5625 -0.340324,1.578663 -1.514948,2.771235 -3.081225,3.128305 -0.260887,0.05948 -1.034778,0.10234 -1.28125,0.07097 z M 13,11 V 9 H 11 9 v 2 2 h 2 2 z M 4.5625,8.9804478 C 2.8144733,8.7591075 1.4464463,7.5041625 1.0750252,5.78125 0.9949566,5.409835 0.9949566,4.590165 1.0750252,4.21875 1.41985,2.61921 2.61921,1.41985 4.21875,1.0750252 c 0.371415,-0.0800686 1.191085,-0.0800686 1.5625,0 1.5995603,0.3448291 2.7974134,1.5425957 3.1439522,3.1437248 0.043769,0.2022284 0.057035,0.3924184 0.055584,0.796875 -0.00203,0.5664953 -0.034273,0.77977 -0.1883257,1.2458053 C 8.7257913,6.4631175 8.69414,6.5164019 8.616115,6.5583053 7.8431066,6.9734506 6.9734506,7.8431066 6.5583053,8.616115 6.5164019,8.69414 6.4631175,8.7257913 6.2614303,8.7924609 6.1262375,8.8371503 5.9101563,8.8961794 5.78125,8.9236366 5.5529494,8.9722647 4.7817722,9.0082125 4.5625,8.9804478 Z M 7,5 V 3 H 5 3 v 2 2 h 2 2 z"
       id="path825"
       inkscape:connector-curvature="0" />
    <path
       style="fill:#cbfefe;stroke-width:0.000357143"
       d="m 10,11 v -1 h 1 1 v 1 1 H 11 10 Z M 4,5 V 4 H 5 6 V 5 6 H 5 4 Z"
       id="path823"
       inkscape:connector-curvature="0" />
    <path
       style="fill:#0065cb;stroke-width:0.000357143"
       d="M 9,11 V 9 h 2 2 v 2 2 H 11 9 Z m 3,0 v -1 h -1 -1 v 1 1 h 1 1 z M 3,5 V 3 H 5 7 V 5 7 H 5 3 Z M 6,5 V 4 H 5 4 v 1 1 h 1 1 z"
       id="path821"
       inkscape:connector-curvature="0" />
    <path
       style="fill:#323232;stroke-width:0.000357143"
       d="M 10.3125,15.980219 C 9.8361359,15.920897 9.1810713,15.716386 8.7082113,15.47936 8.2429297,15.246132 7.8948769,14.987195 7.4538409,14.546159 6.8497087,13.942027 6.5206244,13.421656 6.2543584,12.649456 6.0374281,12.020335 6.0154447,11.866103 6.0170259,10.984375 c 8.657e-4,-0.481693 0.015168,-0.834845 0.037306,-0.921028 0.019747,-0.076877 0.032798,-0.1428836 0.029001,-0.1466804 -0.0038,-0.0038 -0.069803,0.00925 -0.1466806,0.029002 C 5.8504703,9.9678059 5.4973178,9.98211 5.015625,9.9829741 4.1338969,9.9845553 3.979665,9.9625719 3.3505438,9.7456416 2.5783438,9.4793756 2.0579732,9.1502913 1.453841,8.5461591 0.84970875,7.9420269 0.52062428,7.4216562 0.25435843,6.6494562 0.03930172,6.0257684 0.01594134,5.8641528 0.01594134,5 c 0,-0.8641528 0.02336038,-1.0257684 0.23841709,-1.6494562 C 0.52062428,2.5783438 0.84970875,2.0579732 1.453841,1.453841 2.0579732,0.84970875 2.5783438,0.52062428 3.3505438,0.25435843 3.9742316,0.03930172 4.1358472,0.01594134 5,0.01594134 c 0.8641528,0 1.0257684,0.02336038 1.6494562,0.23841709 0.7722,0.26626585 1.2925707,0.59535032 1.8967029,1.19948257 0.6041321,0.6041322 0.9332165,1.1245028 1.1994825,1.8967028 0.2169303,0.6291212 0.2389137,0.7833531 0.2373325,1.6650812 -8.625e-4,0.4816928 -0.015168,0.8348453 -0.037306,0.9210278 -0.019748,0.076878 -0.032798,0.1428838 -0.029002,0.1466806 0.0038,0.0038 0.069803,-0.00925 0.1466809,-0.029001 0.08618,-0.022138 0.439335,-0.036442 0.921028,-0.037306 0.881728,-0.00158 1.035959,0.020402 1.665081,0.2373325 0.7722,0.266266 1.292571,0.5953503 1.896703,1.1994825 0.604132,0.6041322 0.933217,1.1245029 1.199483,1.8967029 0.215056,0.6236878 0.238417,0.7853027 0.238417,1.6494557 0,0.864153 -0.02336,1.025768 -0.238417,1.649456 -0.266266,0.7722 -0.595351,1.292572 -1.199483,1.896704 -0.594225,0.594225 -1.115774,0.927193 -1.861506,1.188426 -0.596184,0.208847 -0.778349,0.237948 -1.559653,0.249162 -0.386719,0.0055 -0.752344,0.004 -0.8125,-0.0035 z m 1.53125,-1.070664 c 1.566277,-0.35707 2.740901,-1.549642 3.081225,-3.128305 0.08007,-0.371415 0.08007,-1.191085 0,-1.5625 C 14.58015,8.61921 13.38079,7.41985 11.78125,7.0750253 c -0.371415,-0.080069 -1.191085,-0.080069 -1.5625,0 C 8.61921,7.41985 7.41985,8.61921 7.0750253,10.21875 c -0.080069,0.371415 -0.080069,1.191085 0,1.5625 0.3033266,1.407042 1.2760194,2.521326 2.6124747,2.992763 0.2456016,0.08664 0.611272,0.172937 0.875,0.206508 0.246472,0.03137 1.020363,-0.01149 1.28125,-0.07097 z M 5.78125,8.9236366 C 5.9101562,8.8961794 6.1262375,8.8371503 6.2614303,8.7924609 6.4631175,8.7257913 6.5164019,8.69414 6.5583053,8.616115 6.9734506,7.8431066 7.8431066,6.9734506 8.616115,6.5583053 8.69414,6.5164019 8.7257913,6.4631175 8.7924609,6.2614303 8.9465138,5.795395 8.9787538,5.5821203 8.9807866,5.015625 8.9822366,4.6111684 8.9689713,4.4209784 8.9252022,4.21875 8.5786634,2.6176209 7.3808103,1.4198543 5.78125,1.0750252 5.409835,0.9949566 4.590165,0.9949566 4.21875,1.0750252 2.61921,1.41985 1.41985,2.61921 1.0750252,4.21875 c -0.0800686,0.371415 -0.0800686,1.191085 0,1.5625 0.3033266,1.4070425 1.2760194,2.5213263 2.6124748,2.9927625 0.2458222,0.086714 0.6122609,0.1731666 0.875,0.2064353 0.2192722,0.027765 0.9904494,-0.00818 1.21875,-0.056811 z"
       id="path819"
       inkscape:connector-curvature="0" />
  </g>
</svg>
