<?xml version="1.0" encoding="UTF-8" standalone="no"?>
<!-- Created with Inkscape (http://www.inkscape.org/) -->

<svg
   version="1.1"
   id="svg2"
   width="1600"
   height="1600"
   viewBox="0 0 1600 1600"
   sodipodi:docname="rotate_colors.svg"
   inkscape:version="1.2.2 (732a01da63, 2022-12-09)"
   xmlns:inkscape="http://www.inkscape.org/namespaces/inkscape"
   xmlns:sodipodi="http://sodipodi.sourceforge.net/DTD/sodipodi-0.dtd"
   xmlns="http://www.w3.org/2000/svg"
   xmlns:svg="http://www.w3.org/2000/svg"
   xmlns:rdf="http://www.w3.org/1999/02/22-rdf-syntax-ns#"
   xmlns:cc="http://creativecommons.org/ns#"
   xmlns:dc="http://purl.org/dc/elements/1.1/">
  <metadata
     id="metadata8">
    <rdf:RDF>
      <cc:Work
         rdf:about="">
        <dc:format>image/svg+xml</dc:format>
        <dc:type
           rdf:resource="http://purl.org/dc/dcmitype/StillImage" />
      </cc:Work>
    </rdf:RDF>
  </metadata>
  <defs
     id="defs6" />
  <sodipodi:namedview
     pagecolor="#808080"
     bordercolor="#666666"
     borderopacity="1"
     objecttolerance="10"
     gridtolerance="10"
     guidetolerance="10"
     inkscape:pageopacity="0"
     inkscape:pageshadow="2"
     inkscape:window-width="1993"
     inkscape:window-height="1009"
     id="namedview4"
     showgrid="false"
     inkscape:zoom="0.5"
     inkscape:cx="9"
     inkscape:cy="8"
     inkscape:window-x="-8"
     inkscape:window-y="-8"
     inkscape:window-maximized="1"
     inkscape:current-layer="ROTATE_COLORS"
     inkscape:showpageshadow="0"
     inkscape:pagecheckerboard="true"
     inkscape:deskcolor="#d1d1d1" />
  <g
     id="ROTATE_COLORS"
     transform="matrix(100,0,0,100,0,4.9999997e-5)"
     style="stroke-width:0.0114286">
    <path
       style="fill:none;stroke-width:0.000357143"
       d="M 0,12.328125 C 0,10.308594 0.01121513,8.65625 0.0249225,8.65625 c 0.01370738,0 0.04142173,0.1476478 0.06158744,0.3281059 0.11283858,1.0097666 0.54337818,2.2350361 1.11455176,3.1718941 0.6242314,1.023886 1.6188026,2.018457 2.6426883,2.642688 0.9368581,0.571174 2.1621275,1.001714 3.1718941,1.114552 C 7.1961022,15.93366 7.34375,15.96137 7.34375,15.97508 7.34375,15.988785 5.6914062,16 3.671875,16 H 0 Z m 8.65625,3.646952 c 0,-0.01371 0.1476478,-0.04142 0.3281059,-0.06159 1.0097666,-0.112838 2.2350361,-0.543378 3.1718941,-1.114552 1.023886,-0.624231 2.018457,-1.618802 2.642688,-2.642688 C 15.370112,11.219392 15.800652,9.9941225 15.91349,8.9843559 15.933656,8.8038978 15.96137,8.65625 15.975077,8.65625 15.988785,8.65625 16,10.308594 16,12.328125 V 16 H 12.328125 C 10.308594,16 8.65625,15.988785 8.65625,15.975077 Z M 7.484375,14.99987 C 5.8064031,14.87848 4.2133925,14.152241 3.0305758,12.969424 1.9315268,11.870375 1.2488832,10.463591 1.0285883,8.84375 1.0087199,8.6976563 0.99246394,8.3179688 0.99246394,8 c 0,-0.847595 0.0940152,-1.4395297 0.35487896,-2.234375 C 2.0312643,3.6817341 3.6817341,2.0312643 5.765625,1.3473429 6.5604703,1.0864791 7.152405,0.99246394 8,0.99246394 c 0.847595,0 1.4395297,0.0940152 2.234375,0.35487896 2.083891,0.6839214 3.734361,2.3343912 4.418282,4.4182821 0.260864,0.7948453 0.354879,1.38678 0.354879,2.234375 0,0.847595 -0.09402,1.4395297 -0.354879,2.234375 -0.993844,3.028217 -3.956565,4.997842 -7.168282,4.765495 z M 8.9514219,12.907821 C 10.743288,12.544671 12.159308,11.300044 12.73954,9.5782094 12.926082,9.0246478 12.982973,8.6558153 12.982973,8 c 0,-0.4719403 -0.01269,-0.6412775 -0.06908,-0.9219594 -0.416967,-2.0754753 -1.9799,-3.6190793 -4.054522,-4.0043781 -0.4340447,-0.080611 -1.2847053,-0.080611 -1.71875,0 C 5.3063828,3.4143178 3.8506319,4.6704606 3.2604597,6.4217906 3.0739178,6.9753522 3.0170268,7.3441847 3.0170268,8 c 0,0.4719403 0.012687,0.6412775 0.069077,0.9219594 0.2727398,1.3575796 1.0204276,2.4848556 2.1482714,3.2389126 0.6543878,0.437513 1.3483894,0.687183 2.28125,0.820691 0.2331378,0.03337 1.1361403,-0.01301 1.4357969,-0.07374 z M 0,3.671875 V 0 H 3.671875 C 5.6914062,0 7.34375,0.01121513 7.34375,0.0249225 7.34375,0.03862988 7.1961022,0.06634423 7.0156441,0.08650994 6.0058775,0.19934852 4.7806081,0.62988812 3.84375,1.2010617 2.8198643,1.8252931 1.8252931,2.8198643 1.2010617,3.84375 0.62988812,4.7806081 0.19934852,6.0058775 0.08650994,7.0156441 0.06634423,7.1961022 0.03862988,7.34375 0.0249225,7.34375 0.01121513,7.34375 0,5.6914062 0,3.671875 Z M 15.91349,7.0156441 C 15.800652,6.0058775 15.370112,4.7806081 14.798938,3.84375 14.174707,2.8198643 13.180136,1.8252931 12.15625,1.2010617 11.219392,0.62988812 9.9941225,0.19934852 8.9843559,0.08650994 8.8038978,0.06634423 8.65625,0.03862988 8.65625,0.0249225 8.65625,0.01121513 10.308594,0 12.328125,0 H 16 v 3.671875 c 0,2.0195312 -0.01121,3.671875 -0.02492,3.671875 -0.01371,0 -0.04142,-0.1476478 -0.06159,-0.3281059 z"
       id="path823"
       inkscape:connector-curvature="0" />
    <path
       style="fill:#fefefe;stroke-width:0.000357143"
       d="m 7.34375,15.975077 c 0,-0.01371 -0.1476478,-0.04142 -0.3281059,-0.06159 C 6.0058775,15.800652 4.7806081,15.370112 3.84375,14.798938 2.8198643,14.174707 1.8252931,13.180136 1.2010617,12.15625 0.62988812,11.219392 0.19934852,9.9941225 0.08650994,8.9843559 0.06634423,8.8038978 0.03862988,8.65625 0.0249225,8.65625 0.01121513,8.65625 0,8.3609375 0,8 0,7.6390625 0.01121513,7.34375 0.0249225,7.34375 0.03862988,7.34375 0.06634423,7.1961022 0.08650994,7.0156441 0.19934852,6.0058775 0.62988812,4.7806081 1.2010617,3.84375 1.8252931,2.8198643 2.8198643,1.8252931 3.84375,1.2010617 4.7806081,0.62988812 6.0058775,0.19934852 7.0156441,0.08650994 7.1961022,0.06634423 7.34375,0.03862988 7.34375,0.0249225 7.34375,0.01121513 7.6390625,0 8,0 c 0.3609375,0 0.65625,0.01121513 0.65625,0.0249225 0,0.01370738 0.1476478,0.04142173 0.3281059,0.06158744 1.0097666,0.11283858 2.2350361,0.54337818 3.1718941,1.11455176 1.023886,0.6242314 2.018457,1.6188026 2.642688,2.6426883 0.571174,0.9368581 1.001714,2.1621275 1.114552,3.1718941 C 15.93366,7.1961022 15.96137,7.34375 15.97508,7.34375 15.988785,7.34375 16,7.6390625 16,8 c 0,0.3609375 -0.01121,0.65625 -0.02492,0.65625 -0.01371,0 -0.04142,0.1476478 -0.06159,0.3281059 -0.112838,1.0097666 -0.543378,2.2350361 -1.114552,3.1718941 -0.624231,1.023886 -1.618802,2.018457 -2.642688,2.642688 C 11.219392,15.370112 9.9941225,15.800652 8.9843559,15.91349 8.8038978,15.933656 8.65625,15.96137 8.65625,15.975077 8.65625,15.988785 8.3609375,16 8,16 7.6390625,16 7.34375,15.988785 7.34375,15.975077 Z m 1.515625,-1.009346 c 1.0201984,-0.124236 2.112725,-0.516934 2.953125,-1.061473 1.753201,-1.13599 2.868079,-2.922 3.158912,-5.060508 0.04657,-0.3424359 0.04657,-1.3450641 0,-1.6875 C 14.78662,5.7974631 14.28591,4.6063725 13.47381,3.59375 12.337213,2.176505 10.72771,1.2848029 8.84375,1.0285883 8.5013141,0.9820178 7.4986859,0.9820178 7.15625,1.0285883 5.7974631,1.2133805 4.6063725,1.7140903 3.59375,2.5261897 2.176505,3.6627869 1.2848029,5.2722897 1.0285883,7.15625 1.0087199,7.3023438 0.99246394,7.6820312 0.99246394,8 c 0,0.847595 0.0940152,1.4395297 0.35487896,2.234375 1.0346954,3.15269 4.184524,5.136569 7.5120321,4.731356 z M 7.515625,12.981563 C 6.8336787,12.883965 6.3240031,12.738356 5.828125,12.499461 4.6115975,11.913386 3.6965644,10.872346 3.2604597,9.5782094 3.0739178,9.0246478 3.0170268,8.6558153 3.0170268,8 c 0,-0.4719403 0.012687,-0.6412775 0.069077,-0.9219594 0.4169661,-2.0754753 1.9798995,-3.6190793 4.0545214,-4.0043781 0.4340447,-0.080611 1.2847053,-0.080611 1.71875,0 C 10.693617,3.4143178 12.149368,4.6704606 12.73954,6.4217906 12.926082,6.9753522 12.982973,7.3441847 12.982973,8 c 0,0.4719403 -0.01269,0.6412775 -0.06908,0.9219594 -0.410595,2.0437626 -1.932258,3.5744066 -3.9624751,3.9858616 -0.2996566,0.06073 -1.2026591,0.107108 -1.4357969,0.07374 z m 1.3144259,-0.577634 c 0.758565,-0.145145 1.3971521,-0.448408 2.0499971,-0.973538 0.340774,-0.274108 0.697418,-0.692669 0.958503,-1.124908 0.765895,-1.2679786 0.855296,-2.7911611 0.24413,-4.1593814 C 11.833595,5.5884722 11.336339,4.9366356 10.880048,4.5696088 10.086033,3.9309259 9.2632263,3.5996709 8.2578125,3.5139188 L 8,3.4919297 V 8 12.50807 l 0.2578125,-0.02199 c 0.1417969,-0.01209 0.3993041,-0.04906 0.5722384,-0.08215 z"
       id="path821"
       inkscape:connector-curvature="0" />
    <path
       style="fill:#000000;stroke-width:0.000357143"
       d="M 8,8 V 3.4919297 l 0.2578125,0.021989 c 0.7583834,0.064683 1.4391269,0.2799529 2.0476705,0.6475304 0.636555,0.3844975 1.14857,0.8965131 1.533068,1.5330684 0.765895,1.2679781 0.855296,2.7911606 0.24413,4.1593809 -0.249086,0.5576296 -0.746342,1.2094656 -1.202633,1.5764926 -0.794015,0.638683 -1.6168217,0.969938 -2.6222355,1.05569 L 8,12.50807 Z"
       id="path819"
       inkscape:connector-curvature="0" />
  </g>
</svg>
