<?xml version="1.0" encoding="UTF-8" standalone="no"?>
<!-- Created with Inkscape (http://www.inkscape.org/) -->

<svg
   version="1.1"
   id="svg2"
   width="1600"
   height="1600"
   viewBox="0 0 1600 1600"
   sodipodi:docname="rotateccw.svg"
   inkscape:version="1.2.2 (732a01da63, 2022-12-09)"
   xmlns:inkscape="http://www.inkscape.org/namespaces/inkscape"
   xmlns:sodipodi="http://sodipodi.sourceforge.net/DTD/sodipodi-0.dtd"
   xmlns="http://www.w3.org/2000/svg"
   xmlns:svg="http://www.w3.org/2000/svg"
   xmlns:rdf="http://www.w3.org/1999/02/22-rdf-syntax-ns#"
   xmlns:cc="http://creativecommons.org/ns#"
   xmlns:dc="http://purl.org/dc/elements/1.1/">
  <metadata
     id="metadata8">
    <rdf:RDF>
      <cc:Work
         rdf:about="">
        <dc:format>image/svg+xml</dc:format>
        <dc:type
           rdf:resource="http://purl.org/dc/dcmitype/StillImage" />
      </cc:Work>
    </rdf:RDF>
  </metadata>
  <defs
     id="defs6" />
  <sodipodi:namedview
     pagecolor="#808080"
     bordercolor="#666666"
     borderopacity="1"
     objecttolerance="10"
     gridtolerance="10"
     guidetolerance="10"
     inkscape:pageopacity="0"
     inkscape:pageshadow="2"
     inkscape:window-width="1993"
     inkscape:window-height="1009"
     id="namedview4"
     showgrid="false"
     inkscape:zoom="0.5"
     inkscape:cx="9"
     inkscape:cy="8"
     inkscape:window-x="-8"
     inkscape:window-y="-8"
     inkscape:window-maximized="1"
     inkscape:current-layer="ROTATECCW"
     inkscape:showpageshadow="0"
     inkscape:pagecheckerboard="true"
     inkscape:deskcolor="#d1d1d1" />
  <g
     id="ROTATECCW"
     transform="matrix(100,0,0,100,0,4.9999997e-5)"
     style="stroke-width:0.0114286">
    <path
       style="fill:none;stroke-width:0.000357143"
       d="M 0,8 V 0 h 8 8 v 8 8 H 8 0 Z M 15.03125,8 V 0.96875 H 8 0.96875 V 8 15.03125 H 8 15.03125 Z"
       id="path825"
       inkscape:connector-curvature="0" />
    <path
       style="fill:#fecb32;stroke-width:0.000357143"
       d="M 2,8.53125 C 2,5.5234375 2.010562,3.0625 2.0234711,3.0625 2.0541181,3.0625 12.9375,13.945949 12.9375,13.976596 12.9375,13.989468 10.476563,14 7.46875,14 H 2 Z m 7,3.972244 V 12.006988 L 8.2265625,11.99148 C 7.5395928,11.977707 7.4159481,11.967104 7.120585,11.896641 5.5981819,11.533449 4.4665506,10.401818 4.1033594,8.879415 4.0328962,8.5840519 4.0222934,8.4604072 4.0085197,7.7734375 L 3.9930119,7 H 3.4965059 3 l 4.947e-4,0.5078125 c 6.472e-4,0.6644541 0.044705,1.1744847 0.1367385,1.5829478 0.212154,0.9415777 0.6497387,1.7307147 1.3455153,2.4264917 0.6983462,0.698346 1.4844109,1.133248 2.4357028,1.34759 0.4190909,0.09443 0.7738756,0.125131 1.5112363,0.130785 L 9,13 Z M 8.4765291,7.5234041 C 5.4644381,4.5112766 3,2.0362765 3,2.0234042 3,2.0105319 5.475,2 8.5,2 H 14 V 7.5 C 14,10.525 13.989438,13 13.976529,13 13.96362,13 11.48862,10.535532 8.4765291,7.5234041 Z M 12.999505,8.4921875 C 12.998349,7.3047978 12.843166,6.5279556 12.451038,5.7465747 12.106058,5.0591444 11.439671,4.3053706 10.8003,3.8793694 9.8267075,3.2306816 8.9697031,3.0019185 7.5078125,3.0004946 L 7,3 v 0.4965059 0.496506 l 0.7734375,0.015508 c 0.6869697,0.013774 0.8106144,0.024376 1.1059775,0.09484 1.522403,0.3631912 2.654034,1.4948225 3.017226,3.0172256 0.07046,0.2953631 0.08107,0.4190078 0.09484,1.1059775 L 12.006988,9 H 12.503494 13 l -4.94e-4,-0.5078125 z"
       id="path823"
       inkscape:connector-curvature="0" />
    <path
       style="fill:#fe0000;stroke-width:0.000357143"
       d="M 13.671875,14.627496 C 13.500049,14.546901 1.4135686,2.4578557 1.336757,2.2897604 1.0833835,1.7352749 1.7040249,1.1146335 2.2585104,1.368007 2.4266057,1.4448186 14.515651,13.531299 14.596246,13.703125 c 0.263442,0.56165 -0.362721,1.187813 -0.924371,0.924371 z"
       id="path821"
       inkscape:connector-curvature="0" />
    <path
       style="fill:#000000;stroke-width:0.000357143"
       d="M 0.96875,8 V 0.96875 H 8 15.03125 V 8 15.03125 H 8 0.96875 Z m 13.243191,6.639041 C 14.575106,14.48757 14.7566,14.045825 14.59647,13.703125 14.564346,13.634375 14.416998,13.458904 14.269031,13.31319 L 14,13.048255 V 7.5241275 2 H 8.4759109 2.9518219 L 2.6712235,1.7153591 C 2.3582217,1.3978481 2.2145595,1.3138726 1.984375,1.3138726 c -0.4987225,0 -0.8511258,0.5384806 -0.6433161,0.9830024 0.03214,0.06875 0.1935499,0.258316 0.3586887,0.4212578 L 2,3.0143906 V 8.5071953 14 h 5.4928391 5.4928389 l 0.280599,0.284641 c 0.154329,0.156552 0.336848,0.310931 0.405598,0.343064 0.152842,0.07143 0.384324,0.07629 0.540066,0.01134 z M 7.5590763,12.966388 C 6.7255075,12.897366 5.8947597,12.593755 5.140625,12.082522 4.7739294,11.833937 4.1660631,11.226071 3.9174781,10.859375 3.2414353,9.8621238 3.0019352,8.9867538 3.0004946,7.5078125 L 3,7 h 0.4965059 0.496506 l 0.015508,0.7734375 c 0.013774,0.6869697 0.024376,0.8106144 0.09484,1.1059775 0.3631912,1.522403 1.4948225,2.654034 3.0172256,3.017226 0.2953631,0.07046 0.4190078,0.08107 1.1059775,0.09484 L 9,12.006988 V 12.503494 13 L 8.4296875,12.9956 C 8.1160156,12.9932 7.7242406,12.98004 7.5590763,12.96636 Z M 11.99148,8.2265625 C 11.977707,7.5395928 11.967104,7.4159481 11.896641,7.120585 11.533449,5.5981819 10.401818,4.4665506 8.879415,4.1033594 8.5840519,4.0328962 8.4604072,4.0222934 7.7734375,4.0085197 L 7,3.9930119 V 3.4965059 3 l 0.5078125,4.947e-4 c 1.4789413,0.00144 2.3543113,0.2409407 3.3515625,0.9169835 0.366696,0.248585 0.974562,0.8564512 1.223147,1.2231469 0.676043,0.9972512 0.915543,1.8726212 0.916983,3.3515625 L 13,9 h -0.496506 -0.496506 z"
       id="path819"
       inkscape:connector-curvature="0" />
  </g>
</svg>
