<?xml version="1.0" encoding="UTF-8" standalone="no"?>
<!-- Created with Inkscape (http://www.inkscape.org/) -->

<svg
   version="1.1"
   id="svg2"
   width="1600"
   height="1600"
   viewBox="0 0 1600 1600"
   sodipodi:docname="rotate_uvs.svg"
   inkscape:version="1.2.2 (732a01da63, 2022-12-09)"
   xmlns:inkscape="http://www.inkscape.org/namespaces/inkscape"
   xmlns:sodipodi="http://sodipodi.sourceforge.net/DTD/sodipodi-0.dtd"
   xmlns="http://www.w3.org/2000/svg"
   xmlns:svg="http://www.w3.org/2000/svg"
   xmlns:rdf="http://www.w3.org/1999/02/22-rdf-syntax-ns#"
   xmlns:cc="http://creativecommons.org/ns#"
   xmlns:dc="http://purl.org/dc/elements/1.1/">
  <metadata
     id="metadata8">
    <rdf:RDF>
      <cc:Work
         rdf:about="">
        <dc:format>image/svg+xml</dc:format>
        <dc:type
           rdf:resource="http://purl.org/dc/dcmitype/StillImage" />
      </cc:Work>
    </rdf:RDF>
  </metadata>
  <defs
     id="defs6" />
  <sodipodi:namedview
     pagecolor="#808080"
     bordercolor="#666666"
     borderopacity="1"
     objecttolerance="10"
     gridtolerance="10"
     guidetolerance="10"
     inkscape:pageopacity="0"
     inkscape:pageshadow="2"
     inkscape:window-width="2560"
     inkscape:window-height="1009"
     id="namedview4"
     showgrid="false"
     inkscape:zoom="0.5"
     inkscape:cx="770"
     inkscape:cy="348"
     inkscape:window-x="-8"
     inkscape:window-y="-8"
     inkscape:window-maximized="1"
     inkscape:current-layer="ROTATE_UVS"
     inkscape:showpageshadow="0"
     inkscape:pagecheckerboard="true"
     inkscape:deskcolor="#d1d1d1" />
  <g
     id="ROTATE_UVS"
     transform="matrix(99.93715,0,0,99.93715,0.5027718,0.5028118)"
     style="stroke-width:0.0100063">
    <path
       style="fill:#fefefe;stroke-width:0.000312697"
       d="M 0,14 V 12 H 0.53141053 1.0628211 L 0.92382622,11.742188 C 0.52698556,11.006114 0.22341806,10.070102 0.07302862,9.1188609 0.03024337,8.8482362 0.01995751,8.4142903 0.00854618,6.3984375 L -0.00503088,4 H 0.52585906 1.056749 L 1.3199123,3.6015625 C 1.6676363,3.0750977 1.9094791,2.7779751 2.3437271,2.3437271 2.7779751,1.9094791 3.0750977,1.6676363 3.6015625,1.3199123 L 4,1.056749 V 0.52585906 -0.00503088 l 2.3984375,0.01357706 c 2.0158528,0.01141133 2.4497987,0.02169719 2.7204234,0.06448244 0.9512411,0.15038944 1.8872531,0.45395694 2.6233271,0.8507976 L 12,1.0628211 V 0.53141053 0 h 2 2 v 2 2 h -0.531411 -0.53141 l 0.138995,0.2578125 c 0.39684,0.7360737 0.700408,1.6720859 0.850797,2.6233266 0.04279,0.2706246 0.05307,0.7045706 0.06448,2.7204234 L 16.005031,12 h -0.53089 -0.53089 l -0.263163,0.398438 c -0.347724,0.526464 -0.589567,0.823587 -1.023815,1.257835 -0.434248,0.434248 -0.731371,0.676091 -1.257835,1.023814 L 12,14.943251 v 0.53089 0.53089 L 9.6015625,15.991454 C 7.5857097,15.980043 7.1517638,15.969757 6.8811391,15.926971 5.9298984,15.776582 4.9938863,15.473014 4.2578125,15.076174 L 4,14.937179 V 15.468589 16 H 2 0 Z m 8.828125,0.933792 c 0.7502494,-0.088 1.559547,-0.328294 2.25,-0.668055 2.133033,-1.049634 3.549015,-3.049429 3.861238,-5.453237 0.04956,-0.3815666 0.04956,-1.2434334 0,-1.625 C 14.835228,6.3857653 14.604911,5.611135 14.265737,4.921875 13.216103,2.788842 11.216308,1.3728604 8.8125,1.0606376 c -0.3815666,-0.04956 -1.2434334,-0.04956 -1.625,0 C 6.3857653,1.1647722 5.611135,1.3950888 4.921875,1.7342634 2.788842,2.7838971 1.3728604,4.7836919 1.0606376,7.1875 c -0.04956,0.3815666 -0.04956,1.2434334 0,1.625 0.1041346,0.8017347 0.3344512,1.576365 0.6736258,2.265625 1.1226609,2.281437 3.3312228,3.736866 5.9219866,3.902553 0.2450119,0.01567 0.8423022,-0.0082 1.171875,-0.04689 z M 7.3311456,13.933162 C 5.9479966,13.755681 4.7264569,13.159813 3.7738178,12.197896 2.3470264,10.757208 1.7592992,8.7909466 2.159421,6.796875 2.3851722,5.6718075 2.9672268,4.6006425 3.8021041,3.7738178 5.4214884,2.1700532 7.7311953,1.6280504 9.88727,2.3458545 c 0.881695,0.2935356 1.635598,0.7594462 2.310626,1.4279633 2.128409,2.1078806 2.361748,5.4519091 0.546748,7.8355572 -0.988639,1.298383 -2.44202,2.119369 -4.1188243,2.326642 -0.3095909,0.03827 -0.9858078,0.03678 -1.2946741,-0.0029 z M 8,12.484375 V 12 h 1.4564406 1.4564404 l 0.129497,-0.100329 c 0.20665,-0.160105 0.637648,-0.585938 0.804365,-0.794727 L 12,10.913013 V 9.4565066 8 h 0.48841 0.48841 L 12.954547,7.7421875 C 12.919373,7.3350397 12.819706,6.8336353 12.700895,6.4661147 12.587431,6.1151369 12.301198,5.5207153 12.119918,5.2595994 L 12.015625,5.109375 12.0075,6.5546875 11.999376,8 H 9.9996878 8 V 6.0003122 4.0006241 L 9.4453125,3.9924997 10.890625,3.984375 10.740401,3.8800819 C 10.479285,3.6988022 9.8848631,3.4125691 9.5338853,3.2991053 9.1663647,3.1802938 8.6649603,3.0806267 8.2578125,3.0454525 L 8,3.0231797 V 3.5115897 4 H 6.5435594 5.0871191 L 4.9576219,4.1003294 C 4.7509722,4.2604341 4.3199741,4.6862675 4.1532566,4.8950559 L 4,5.0869872 V 6.5434934 8 h -0.4884103 -0.48841 l 0.022273,0.2578125 C 3.0806267,8.6649603 3.180294,9.1663647 3.2991055,9.5338853 3.4125693,9.8848631 3.6988024,10.479285 3.8800821,10.740401 L 3.984375,10.890625 3.9924997,9.4453125 4.0006241,8 H 6.0003122 8 v 1.9996878 1.9996882 l -1.4453125,0.0081 -1.4453125,0.0081 0.1502244,0.104293 c 0.2613397,0.181435 0.8556568,0.467552 1.207369,0.581253 0.4110178,0.132873 1.0279219,0.248559 1.4002191,0.262578 L 8,12.96875 Z"
       id="path823"
       inkscape:connector-curvature="0" />
    <path
       style="fill:#4c4c4c;stroke-width:0.000312697"
       d="m 4,15.468589 v -0.53141 l 0.2582206,0.139617 c 0.9122513,0.493246 2.164651,0.845212 3.2105294,0.902267 0.094531,0.0052 -0.6472656,0.01198 -1.6484375,0.01516 L 4,16 Z m 8,0.003 v -0.528375 l 0.398438,-0.263163 c 0.526464,-0.347724 0.823587,-0.589567 1.257835,-1.023815 0.434248,-0.434248 0.676091,-0.731371 1.023814,-1.257835 l 0.263164,-0.398438 H 15.471626 16 v 2 2 H 14 12 Z M 7.625,12.946915 C 7.3053009,12.912327 6.7663753,12.797962 6.4669684,12.701171 6.1152562,12.58747 5.5209391,12.301353 5.2595994,12.119918 L 5.109375,12.015625 6.5546875,12.0075 8,11.999376 V 9.9996878 8 H 6.0003122 4.0006241 L 3.9924997,9.4453125 3.984375,10.890625 3.8800819,10.740401 C 3.6988022,10.479285 3.4125691,9.8848631 3.2991053,9.5338853 3.1802938,9.1663647 3.0806267,8.6649603 3.0454525,8.2578125 L 3.0231797,8 H 3.5115897 4 V 6.5434934 5.0869872 L 4.1532566,4.8950559 C 4.3199741,4.6862675 4.7509722,4.2604341 4.9576219,4.1003294 L 5.0871191,4 H 6.5435594 8 v -0.4884103 -0.48841 l 0.2578125,0.022273 C 8.6649603,3.0806267 9.1663647,3.180294 9.5338853,3.2991055 9.8848631,3.4125693 10.479285,3.6988024 10.740401,3.8800821 L 10.890625,3.984375 9.4453125,3.9924997 8,4.0006241 V 6.0003122 8 h 1.9996878 1.9996882 l 0.0081,-1.4453125 0.0081,-1.4453125 0.104293,0.1502244 c 0.18128,0.2611159 0.467513,0.8555375 0.580977,1.2065153 0.118811,0.3675206 0.218478,0.868925 0.253653,1.2760728 L 12.97682,8 H 12.48841 12 v 1.4565066 1.4565064 l -0.153257,0.191931 c -0.166717,0.208789 -0.597715,0.634622 -0.804365,0.794727 L 10.912881,12 H 9.4564406 8 v 0.484375 0.484375 l -0.1328125,-0.005 C 7.7941406,12.960999 7.6851563,12.953423 7.625,12.946915 Z M 0.0057807,10.179688 C 0.00896008,9.1785156 0.01578063,8.4367188 0.02093748,8.53125 c 0.0570545,1.0458784 0.40902077,2.298278 0.90226627,3.210529 L 1.0628211,12 H 0.53141053 0 Z M 15.968177,7.4140625 c -0.0023,-0.8355941 -0.40044,-2.2444819 -0.892003,-3.15625 L 14.937179,4 H 15.468589 16 v 1.8125 c 0,0.996875 -0.007,1.8125 -0.01563,1.8125 -0.0086,0 -0.01588,-0.094922 -0.0162,-0.2109375 z M 0,2 V 0 H 2 4 V 0.5283745 1.056749 L 3.6015625,1.3199123 C 3.0750977,1.6676363 2.7779751,1.9094791 2.3437271,2.3437271 1.9094791,2.7779751 1.6676363,3.0750977 1.3199123,3.6015625 L 1.056749,4 H 0.5283745 0 Z M 11.765625,0.93640272 C 10.914134,0.45587688 9.5795113,0.07812197 8.53125,0.02093748 8.4367188,0.01578063 9.1785156,0.00896008 10.179688,0.0057807 L 12,0 V 0.53125 C 12,0.8234375 11.9965,1.061904 11.9922,1.0611755 11.9879,1.060447 11.88595,1.0042995 11.765637,0.93640272 Z"
       id="path821"
       inkscape:connector-curvature="0" />
    <path
       style="fill:#000000;stroke-width:0.000312697"
       d="M 7.65625,14.980678 C 6.6857728,14.918613 5.7530244,14.674733 4.921875,14.265737 2.788842,13.216103 1.3728604,11.216308 1.0606376,8.8125 c -0.04956,-0.3815666 -0.04956,-1.2434334 0,-1.625 C 1.1647722,6.3857653 1.3950888,5.611135 1.7342634,4.921875 2.7838971,2.788842 4.7836919,1.3728604 7.1875,1.0606376 c 0.3815666,-0.04956 1.2434334,-0.04956 1.625,0 0.8017347,0.1041346 1.576365,0.3344512 2.265625,0.6736258 2.133033,1.0496337 3.549015,3.0494285 3.861238,5.4532366 0.04956,0.3815666 0.04956,1.2434334 0,1.625 -0.239711,1.845537 -1.149714,3.495691 -2.54929,4.622753 -1.000557,0.805737 -2.293714,1.349779 -3.561948,1.498539 -0.3295728,0.03866 -0.9268631,0.06256 -1.171875,0.04689 z M 8.6258197,13.936017 C 10.044264,13.760681 11.259468,13.174025 12.226182,12.197896 13.19312,11.221541 13.762086,10.032893 13.936017,8.6258197 14.084886,7.4214956 13.763764,6.0018441 13.091125,4.890625 12.749211,4.3257719 12.157393,3.6726381 11.609375,3.2553563 c -2.1351106,-1.6257547 -5.0836394,-1.6257547 -7.21875,0 -2.2491756,1.7126081 -2.9936841,4.7955218 -1.7676025,7.3194137 0.3091512,0.636388 0.6507947,1.118255 1.1507953,1.623126 0.9526391,0.961917 2.1741788,1.557785 3.5573278,1.735266 0.3088663,0.03963 0.9850831,0.04112 1.2946741,0.0029 z"
       id="path819"
       inkscape:connector-curvature="0" />
  </g>
</svg>
