<?xml version="1.0" encoding="UTF-8" standalone="no"?>
<!-- Created with Inkscape (http://www.inkscape.org/) -->

<svg
   version="1.1"
   id="svg2"
   width="1600"
   height="1600"
   viewBox="0 0 1600 1600"
   sodipodi:docname="sample_nearest_surface.svg"
   inkscape:version="1.2.2 (732a01da63, 2022-12-09)"
   xmlns:inkscape="http://www.inkscape.org/namespaces/inkscape"
   xmlns:sodipodi="http://sodipodi.sourceforge.net/DTD/sodipodi-0.dtd"
   xmlns="http://www.w3.org/2000/svg"
   xmlns:svg="http://www.w3.org/2000/svg">
  <defs
     id="defs6" />
  <sodipodi:namedview
     id="namedview4"
     pagecolor="#808080"
     bordercolor="#000000"
     borderopacity="0.25"
     inkscape:showpageshadow="2"
     inkscape:pageopacity="0"
     inkscape:pagecheckerboard="true"
     inkscape:deskcolor="#d1d1d1"
     showgrid="false"
     inkscape:zoom="0.5"
     inkscape:cx="633"
     inkscape:cy="414"
     inkscape:window-width="1993"
     inkscape:window-height="1009"
     inkscape:window-x="-8"
     inkscape:window-y="-8"
     inkscape:window-maximized="1"
     inkscape:current-layer="svg2" />
  <g
     id="SAMPLE_NEAREST_SURFACE"
     style="stroke-width:0.0114286"
     transform="matrix(100,0,0,100,0,4.9999997e-5)">
    <path
       style="fill:none;stroke-width:0.000357143"
       d="M 8,16 H 0 V 8 0 h 8 8 v 8 8 z M 8.03125,13.052624 8.078125,13.04084 11.5625,10.551608 15.046875,8.0623763 V 8.015625 7.9688737 L 11.5625,5.4779241 8.078125,2.9869746 h -0.0625 -0.0625 L 4.46875,5.4779241 0.984375,7.9688737 v 0.046775 0.046775 l 3.5,2.5009923 3.5,2.500992 z"
       id="path301" />
    <path
       style="fill:#fefe00;stroke-width:0.000357143"
       d="M 7.984375,8.4969731 7.890625,8.4950325 7.6957081,8.4526853 7.5007909,8.4103378 7.30596,8.3067322 7.1111288,8.2031263 6.949835,8.04203 6.7885412,7.8809338 6.6787119,7.6613978 6.5688825,7.4418619 6.5316178,7.2209316 6.4943531,7 6.5316178,6.7790697 6.5688825,6.5581394 6.6787119,6.3386034 6.7885412,6.1190675 6.9538044,5.9538044 7.1190675,5.7885412 7.3386034,5.6787119 7.5581394,5.5688825 7.7790697,5.5316178 8,5.4943531 8.2209303,5.5316181 8.4418606,5.5688831 8.6613966,5.6787125 8.8809325,5.7885418 9.0461956,5.953805 9.2114587,6.1190681 9.3212881,6.338604 9.4311175,6.55814 9.4683825,6.7790703 9.5056469,7 9.4683822,7.2209303 9.4311175,7.4418606 9.3212881,7.6613966 9.2114587,7.8809325 9.050165,8.0420288 8.8888712,8.203125 8.6950544,8.30619 8.5012378,8.4092553 8.2896816,8.454085 8.078125,8.4989147 7.984375,8.4969741 Z"
       id="path299" />
    <path
       style="fill:#fecb32;stroke-width:0.000357143"
       d="m 8.03125,13.052624 -0.046875,0.01178 -3.5,-2.500992 -3.5,-2.5009923 V 8.0156487 7.9688737 L 4.46875,5.4779241 7.953125,2.9869746 h 0.0625 0.0625 l 3.484375,2.4909495 3.484375,2.4909496 v 0.046751 0.046751 L 11.5625,10.551608 8.078125,13.04084 Z m -0.046875,-4.0556509 0.21875,0.00194 0.21875,-0.045769 0.21875,-0.04577 L 8.9051922,8.7769513 9.1697594,8.6465275 9.4081441,8.4081431 9.6465284,8.1697584 9.7769522,7.9051912 9.9073756,7.6406241 l 0.04577,-0.21875 0.045769,-0.21875 v -0.203125 -0.203125 l -0.045769,-0.21875 -0.04577,-0.21875 L 9.7769522,6.0948069 9.6465284,5.8302397 9.4081441,5.591855 9.1697594,5.3534706 8.9051922,5.2230469 8.640625,5.0926234 8.421875,5.0468537 8.203125,5.0010844 H 8 7.796875 l -0.21875,0.045769 -0.21875,0.04577 L 7.0948078,5.2230469 6.8302406,5.3534706 6.5918559,5.591855 6.3534716,5.8302397 6.2230478,6.0948069 6.0926244,6.3593741 l -0.04577,0.21875 -0.045769,0.21875 v 0.203125 0.203125 l 0.045769,0.21875 0.04577,0.21875 0.1304234,0.2645671 0.1304238,0.2645672 0.2383843,0.2383847 0.2383847,0.2383844 0.2645672,0.1306253 0.2645672,0.1306253 0.203125,0.043626 0.203125,0.043626 0.21875,0.00194 z"
       id="path297" />
    <path
       style="fill:#323232;stroke-width:0.000357143"
       d="M 7.984375,8.9969731 7.765625,8.9950325 7.5625,8.9514066 7.359375,8.9077803 7.0948078,8.777155 6.8302406,8.6465297 6.5918559,8.4081453 6.3534716,8.1697606 6.2230478,7.9051934 6.0926244,7.6406263 l -0.04577,-0.21875 -0.045769,-0.21875 v -0.203125 -0.203125 l 0.045769,-0.21875 0.04577,-0.21875 L 6.2230478,6.0948091 6.3534716,5.8302419 6.5918559,5.5918572 6.8302406,5.3534728 7.0948078,5.2230491 7.359375,5.0926256 l 0.21875,-0.04577 0.21875,-0.045769 H 8 8.203125 l 0.21875,0.045769 0.21875,0.04577 0.2645672,0.1304235 0.2645672,0.1304237 0.2383847,0.2383844 0.2383843,0.2383847 0.1304238,0.2645672 0.1304234,0.2645672 0.04577,0.21875 0.045769,0.21875 v 0.203125 0.203125 l -0.045769,0.21875 -0.04577,0.21875 L 9.7769522,7.9051934 9.6465284,8.1697606 9.4081441,8.4081453 9.1697594,8.6465297 8.9051922,8.7769534 8.640625,8.9073769 l -0.21875,0.04577 -0.21875,0.045769 -0.21875,-0.00194 z m 0,-0.5 0.09375,0.00194 0.2115566,-0.04483 0.2115562,-0.04483 L 8.6950544,8.3061891 8.8888712,8.2031241 9.050165,8.0420278 9.2114588,7.8809316 9.3212881,7.6613956 9.4311175,7.4418597 9.4683822,7.2209294 9.5056469,6.9999991 9.4683822,6.7790687 9.4311175,6.5581384 9.3212881,6.3386025 9.2114588,6.1190666 9.0461956,5.9538034 8.8809325,5.7885403 8.6613966,5.6787109 8.4418606,5.5688816 8.2209303,5.5316169 8,5.4943531 7.7790697,5.5316178 7.5581394,5.5688825 7.3386034,5.6787119 7.1190675,5.7885412 6.9538044,5.9538044 6.7885412,6.1190675 6.6787119,6.3386034 6.5688825,6.5581394 6.5316178,6.7790697 6.4943531,7 6.5316178,7.2209303 6.5688825,7.4418606 6.6787119,7.6613966 6.7885412,7.8809325 6.949835,8.0420288 7.1111288,8.203125 7.30596,8.3067309 l 0.1948309,0.1036057 0.1949172,0.042347 0.1949169,0.042347 0.09375,0.00194 z"
       id="path295" />
  </g>
</svg>
