<?xml version="1.0" encoding="UTF-8" standalone="no"?>
<!-- Created with Inkscape (http://www.inkscape.org/) -->

<svg
   xmlns:dc="http://purl.org/dc/elements/1.1/"
   xmlns:cc="http://creativecommons.org/ns#"
   xmlns:rdf="http://www.w3.org/1999/02/22-rdf-syntax-ns#"
   xmlns:svg="http://www.w3.org/2000/svg"
   xmlns="http://www.w3.org/2000/svg"
   xmlns:sodipodi="http://sodipodi.sourceforge.net/DTD/sodipodi-0.dtd"
   xmlns:inkscape="http://www.inkscape.org/namespaces/inkscape"
   version="1.1"
   id="svg2"
   width="16"
   height="16"
   viewBox="0 0 16 16"
   sodipodi:docname="SAVE_ALL.svg"
   inkscape:version="0.92.4 (5da689c313, 2019-01-14)">
  <metadata
     id="metadata8">
    <rdf:RDF>
      <cc:Work
         rdf:about="">
        <dc:format>image/svg+xml</dc:format>
        <dc:type
           rdf:resource="http://purl.org/dc/dcmitype/StillImage" />
        <dc:title></dc:title>
      </cc:Work>
    </rdf:RDF>
  </metadata>
  <defs
     id="defs6" />
  <sodipodi:namedview
     pagecolor="#ffffff"
     bordercolor="#666666"
     borderopacity="1"
     objecttolerance="10"
     gridtolerance="10"
     guidetolerance="10"
     inkscape:pageopacity="0"
     inkscape:pageshadow="2"
     inkscape:window-width="828"
     inkscape:window-height="577"
     id="namedview4"
     showgrid="false"
     inkscape:zoom="14.75"
     inkscape:cx="8"
     inkscape:cy="8"
     inkscape:window-x="0"
     inkscape:window-y="0"
     inkscape:window-maximized="0"
     inkscape:current-layer="svg2" />
  <g
     id="SAVE_ALL">
    <path
       style="fill:#ffffff;stroke-width:0.03125"
       d="M 0,14.507936 V 13.015872 L 1.484375,14.5 C 2.3007813,15.316271 2.96875,15.987699 2.96875,15.992064 2.96875,15.996429 2.3007813,16 1.484375,16 H 0 Z M 12,14 v -2 h 2 2 v 2 2 H 14 12 Z M 0,2 V 0 H 2 4 V 2 4 H 2 0 Z"
       id="path827"
       inkscape:connector-curvature="0" />
    <path
       style="fill:#fefefe;stroke-width:0.03125"
       d="M 1.5,8.125 V 4.75 H 2.75 4 V 6.8826678 9.0153356 L 5.2420409,10.257668 6.4840819,11.5 H 3.9920409 1.5 Z m 4,-4 V 0.75 H 10 14.5 V 4.125 7.5 H 10 5.5 Z"
       id="path825"
       inkscape:connector-curvature="0" />
    <path
       style="fill:#cbcbcb;stroke-width:0.03125"
       d="M 3,14 V 12 H 5 7 V 10 8 h 3 3 v 2 2 H 11 9 v 2 2 H 6 3 Z m 2,0 V 13 H 4.5 4 v 1 1 H 4.5 5 Z M 9,10 V 9 H 8.5 8 v 1 1 H 8.5 9 Z"
       id="path823"
       inkscape:connector-curvature="0" />
    <path
       style="fill:#0065cb;stroke-width:0.03125"
       d="M 1.4921875,14.507819 0,13.015383 V 9.6326916 6.25 H 0.75 1.5 V 8.875 11.5 h 2.4920409 2.492041 L 5.2420409,10.257668 4,9.0153356 V 6.8826678 4.75 H 2 0 V 4.375 4 H 2 4 V 3.125 2.25 H 4.75 5.5 V 4.875 7.5 H 10 14.5 V 4.125 0.75 H 9.25 4 V 0.375 0 h 6 6 v 6 6 H 14.5 13 V 10 8 H 10 7 v 2 2 H 5.0002297 3.0004593 l -0.00804,2.000127 -0.00804,2.000127 z M 9,14 v -2 h 1.5 1.5 v 2 2 H 10.5 9 Z"
       id="path821"
       inkscape:connector-curvature="0" />
    <path
       style="fill:#323232;stroke-width:0.03125"
       d="M 4,14 V 13 H 4.5 5 v 1 1 H 4.5 4 Z M 8,10 V 9 H 8.5 9 v 1 1 H 8.5 8 Z M 0,5.5 V 4.75 H 0.75 1.5 V 5.5 6.25 H 0.75 0 Z m 4,-4 V 0.75 H 4.75 5.5 V 1.5 2.25 H 4.75 4 Z"
       id="path819"
       inkscape:connector-curvature="0" />
  </g>
</svg>
