<?xml version="1.0" encoding="UTF-8" standalone="no"?>
<!-- Created with Inkscape (http://www.inkscape.org/) -->

<svg
   version="1.1"
   id="svg2"
   width="1600"
   height="1600"
   viewBox="0 0 1600 1600"
   sodipodi:docname="save_svg.svg"
   inkscape:version="1.2.2 (732a01da63, 2022-12-09)"
   xmlns:inkscape="http://www.inkscape.org/namespaces/inkscape"
   xmlns:sodipodi="http://sodipodi.sourceforge.net/DTD/sodipodi-0.dtd"
   xmlns="http://www.w3.org/2000/svg"
   xmlns:svg="http://www.w3.org/2000/svg"
   xmlns:rdf="http://www.w3.org/1999/02/22-rdf-syntax-ns#"
   xmlns:cc="http://creativecommons.org/ns#"
   xmlns:dc="http://purl.org/dc/elements/1.1/">
  <metadata
     id="metadata8">
    <rdf:RDF>
      <cc:Work
         rdf:about="">
        <dc:format>image/svg+xml</dc:format>
        <dc:type
           rdf:resource="http://purl.org/dc/dcmitype/StillImage" />
      </cc:Work>
    </rdf:RDF>
  </metadata>
  <defs
     id="defs6" />
  <sodipodi:namedview
     pagecolor="#808080"
     bordercolor="#666666"
     borderopacity="1"
     objecttolerance="10"
     gridtolerance="10"
     guidetolerance="10"
     inkscape:pageopacity="0"
     inkscape:pageshadow="2"
     inkscape:window-width="2560"
     inkscape:window-height="1009"
     id="namedview4"
     showgrid="false"
     inkscape:zoom="0.5"
     inkscape:cx="360"
     inkscape:cy="834"
     inkscape:window-x="-8"
     inkscape:window-y="-8"
     inkscape:window-maximized="1"
     inkscape:current-layer="svg2"
     inkscape:showpageshadow="0"
     inkscape:pagecheckerboard="true"
     inkscape:deskcolor="#d1d1d1" />
  <g
     id="SAVE_SVG"
     transform="matrix(100,0,0,100,0,-0.0178225)"
     style="stroke-width:0.01">
    <path
       style="fill:none;stroke-width:0.0003125"
       d="M 0,14.007905 V 12.01581 L 1.984375,14 C 3.0757813,15.091305 3.96875,15.987747 3.96875,15.992095 3.96875,15.996443 3.0757813,16 1.984375,16 H 0 Z"
       id="path829"
       inkscape:connector-curvature="0" />
    <path
       style="fill:#fefefe;stroke-width:0.0003125"
       d="M 2,9.265625 C 2,8.8617188 2.00352,8.5315266 2.00781,8.5318647 c 0.0043,3.375e-4 0.1203125,0.020942 0.2578125,0.045785 0.3535475,0.063879 1.3490825,0.06293 1.6614109,-0.00158 0.8485947,-0.1752819 1.4932497,-0.668794 1.744951,-1.3358378 l 0.05675,-0.1503959 0.1631791,0.436259 c 0.182814,0.4887544 0.298439,0.6798738 0.4917856,0.8128847 0.27344,0.188111 0.3637275,0.2026691 1.2569231,0.2026691 0.8931956,0 0.9834831,-0.014558 1.2569231,-0.2026691 C 9.091955,8.205235 9.2026231,8.0205256 9.3958894,7.5072247 9.4912206,7.2540319 9.5790488,7.0209556 9.5910628,6.9892778 c 0.017434,-0.045969 0.060724,0.00135 0.2144419,0.234375 0.4520543,0.6852947 1.0886493,1.1149641 1.9662123,1.3270928 0.325383,0.078653 0.362084,0.081007 1.009533,0.064737 0.486642,-0.012228 0.747261,-0.033109 0.945313,-0.075739 L 14,8.4808875 V 9.2404431 9.9999988 H 8 2 V 9.2656238 Z M 7.5179416,3.1275228 C 7.3820197,2.7474968 7.2533744,2.5483206 7.0562569,2.4127151 6.8083472,2.2421672 6.7084791,2.2253552 5.8744097,2.2137603 5.1335341,2.2034608 5.1050237,2.2053317 4.9715894,2.2730044 4.8380956,2.340707 4.8279566,2.3413686 4.6460969,2.294244 3.8695397,2.0930179 2.7441233,2.0669081 2.0859375,2.2348481 L 2,2.2567755 V 1.6283877 1 h 6 6 v 0.6286447 0.6286448 l -0.07031,-0.018873 c -0.300899,-0.080764 -0.792437,-0.1188382 -1.364277,-0.1056772 -0.535306,0.01232 -0.651502,0.02451 -0.924198,0.096959 -0.171553,0.045577 -0.449965,0.1503427 -0.618694,0.2328132 L 10.715739,2.6124582 10.596795,2.4993095 C 10.531376,2.4370777 10.409006,2.352009 10.324863,2.3102679 10.177861,2.2373445 10.14273,2.2339884 9.4270137,2.224495 8.5893678,2.2133843 8.475475,2.2319383 8.2135187,2.4221833 8.0133391,2.567563 7.9035762,2.7399626 7.7660509,3.125 7.7015922,3.3054688 7.6465875,3.4558831 7.6438181,3.4592544 7.6410494,3.4626256 7.5844041,3.3133466 7.5179416,3.1275228 Z"
       id="path827"
       inkscape:connector-curvature="0" />
    <path
       style="fill:#fee532;stroke-width:0.0003125"
       d="M 4,13.5 V 11 h 4 4 V 13.5 16 H 8 4 Z m 3,0 V 12 H 6 5 V 13.5 15 H 6 7 Z M 2.3155799,8.5896728 C 1.9550327,8.52982 1.2409778,8.3413128 1.0719986,8.2613728 0.85513394,8.1587794 0.66476825,7.9737575 0.56193275,7.765625 0.48855956,7.6171225 0.48422116,7.5770278 0.47443481,6.9569906 0.46287144,6.2243644 0.48454003,6.1015066 0.67129678,5.8408116 L 0.77414278,5.6972481 0.67021153,5.4832256 C 0.49848175,5.1295881 0.46130553,4.9172478 0.47518972,4.3693147 0.48601356,3.9421569 0.49697159,3.8625269 0.57698087,3.6296178 0.67687087,3.3388353 0.84641909,3.0537761 1.0420856,2.847643 1.3299129,2.5444192 1.8472104,2.2782845 2.3502451,2.1746322 2.8549801,2.0706296 4.0167156,2.131155 4.6460969,2.294244 4.8279566,2.341369 4.8380956,2.340707 4.9715894,2.273004 5.1050237,2.205331 5.1335341,2.20346 5.8744097,2.21376 c 0.835125,0.01161 0.9337684,0.028291 1.1835828,0.2001489 0.1935088,0.1331232 0.314125,0.3206188 0.4590278,0.71355 L 7.6434159,3.4702041 7.7629766,3.1336925 C 7.9023534,2.7414068 8.011665,2.5687789 8.2135188,2.4221833 8.475475,2.2319383 8.5893678,2.2133842 9.4270138,2.224495 c 0.7157162,0.00949 0.7508472,0.012849 0.8978492,0.085773 0.08414,0.041741 0.206513,0.1268098 0.271932,0.1890416 l 0.118944,0.1131487 0.30678,-0.1499463 c 0.168729,-0.08247 0.447141,-0.1882085 0.618694,-0.2349734 0.299902,-0.081753 0.341391,-0.085023 1.077537,-0.084925 0.674776,9.06e-5 0.803427,0.00835 1.084193,0.069606 0.334347,0.072946 0.751429,0.2052449 0.962682,0.3053644 0.168289,0.079757 0.359682,0.2765982 0.453871,0.4667915 0.07492,0.1512847 0.07755,0.178915 0.08282,0.8694691 0.0052,0.6780462 0.009,0.7204265 0.07813,0.859375 0.07264,0.1460778 0.07268,0.1468668 0.07268,1.4742809 v 1.328125 l -0.07738,0.15625 C 15.2162,7.9940416 14.946415,8.1780584 14.345961,8.3742775 13.798973,8.553025 13.511824,8.5973059 12.78125,8.6155703 12.13394,8.6317528 12.09703,8.6293828 11.771718,8.5507469 10.894154,8.3386181 10.257559,7.9089487 9.8055047,7.2236541 9.6517866,6.9906244 9.6084966,6.9433103 9.5910628,6.9892791 9.5790488,7.0209569 9.4912206,7.2540331 9.3958894,7.5072259 9.2026231,8.0205269 9.091955,8.2052362 8.8975481,8.3389766 c -0.27344,0.1881109 -0.3637275,0.202669 -1.2569231,0.202669 -0.8931956,0 -0.9834831,-0.014558 -1.2569231,-0.202669 C 6.1903553,8.2059656 6.0747303,8.0148463 5.8919163,7.5260919 L 5.7287372,7.0898328 5.6719869,7.2402287 C 5.4202856,7.9072725 4.7756306,8.4007847 3.9270359,8.5760666 3.6624953,8.6307091 2.6160058,8.639545 2.3155799,8.5896728 Z M 3.921875,7.5322087 C 4.4158119,7.3731778 4.6761353,7.1112575 4.7989978,6.6497066 4.8637566,6.4064306 4.8558919,6.0146447 4.7814091,5.7734972 4.6342441,5.2970319 4.2979497,5.1045297 3.15625,4.8432197 2.6018673,4.7163338 2.46875,4.6219725 2.46875,4.35588 c 0,-0.3174613 0.2255192,-0.44963 0.7672034,-0.44963 0.3634107,0 0.7528475,0.06751 1.0816444,0.1875059 0.1412756,0.051559 0.2612047,0.093744 0.2665084,0.093744 0.0053,0 0.00964,-0.1948409 0.00964,-0.4329797 V 3.3215409 L 4.3515625,3.2698519 C 3.6736938,3.1251772 2.9554226,3.0862367 2.546875,3.1720125 2.2370829,3.2370541 1.9063942,3.4078688 1.7530833,3.5820391 1.5458442,3.817475 1.4859113,4.0122747 1.4850812,4.453125 c -6.175e-4,0.3279675 0.00853,0.3954347 0.072967,0.53793 0.095291,0.2107366 0.328236,0.4271425 0.5852112,0.5436606 0.111553,0.050581 0.4634208,0.1619213 0.7819284,0.2474238 C 3.5757431,5.9567791 3.58686,5.9612756 3.6997544,6.0954431 3.8647606,6.2915422 3.7829162,6.6160328 3.5311437,6.7639353 3.4333669,6.8213741 3.3725769,6.8278416 2.953125,6.8254297 2.5303794,6.8229984 2.458672,6.814305 2.2224814,6.7368434 2.0784399,6.6896034 1.8551999,6.6029256 1.7263925,6.5442263 1.5975851,6.4855269 1.4869217,6.4375 1.4804736,6.4375 c -0.00645,0 -0.011724,0.2035134 -0.011724,0.4522522 v 0.4522519 l 0.1640625,0.047308 c 0.1765014,0.050894 0.7916255,0.1907962 0.9453125,0.2149993 0.051563,0.00812 0.3257813,0.011066 0.609375,0.00655 0.4344819,-0.00692 0.5500494,-0.019301 0.734375,-0.078648 z m 9.266445,0.060574 c 0.340373,-0.041411 0.732257,-0.1375219 1.038243,-0.2546325 L 14.46875,7.2454572 V 6.1852284 5.125 h -0.875 -0.875 V 5.5 5.875 h 0.34375 0.34375 v 0.4525297 0.4525297 l -0.08594,0.024033 c -0.04727,0.013218 -0.282813,0.024033 -0.523438,0.024033 -0.409222,0 -0.44905,-0.00541 -0.61619,-0.083752 -0.343371,-0.1609397 -0.598448,-0.4717562 -0.70064,-0.8537484 -0.04942,-0.1847175 -0.05562,-0.7182609 -0.01113,-0.9566722 0.07441,-0.3987116 0.350738,-0.7591103 0.71177,-0.9283259 0.170473,-0.079901 0.201681,-0.083752 0.67869,-0.083752 0.554433,0 0.73163,0.037366 1.199713,0.2529837 0.12703,0.058515 0.236015,0.1063913 0.242188,0.1063913 0.0062,0 0.01122,-0.1943966 0.01122,-0.4319922 V 3.4172656 L 14.054688,3.3334662 C 13.648677,3.2014969 13.36485,3.1552681 12.84375,3.1362334 c -0.414446,-0.015139 -0.529491,-0.00837 -0.796875,0.046858 -0.807364,0.1667737 -1.387443,0.6654425 -1.628056,1.3995687 -0.08525,0.260096 -0.09069,0.307681 -0.09069,0.7923394 0,0.4840053 0.0055,0.5324997 0.09019,0.7908044 0.235868,0.7196209 0.744876,1.1791997 1.531159,1.3824709 0.321869,0.08321 0.784204,0.09982 1.238841,0.044507 z M 7.9759566,7.5423437 8.3053859,7.5221875 8.5102106,6.9720312 C 8.9732897,5.7282081 9.87081,3.3243128 9.8913956,3.2727016 9.912135,3.2207044 9.8792859,3.2178069 9.3599966,3.2258266 l -0.5535047,0.00855 -0.201646,0.5625 C 8.0262872,5.4107894 7.6775616,6.3621522 7.6558928,6.3857269 7.6267697,6.4174116 7.6243541,6.4111419 6.9835028,4.640625 L 6.4745003,3.234375 5.9325628,3.2168825 c -0.2980659,-0.00962 -0.5460816,-0.014852 -0.5511459,-0.011625 -0.00506,0.00323 0.3377384,0.9392237 0.761784,2.0799925 0.4240453,1.1407691 0.7844363,2.1122047 0.8008685,2.1587462 0.02817,0.079787 0.042672,0.085234 0.2538412,0.095353 0.1231803,0.0059 0.2745113,0.013527 0.3362906,0.016941 0.061779,0.00342 0.2605694,-0.00286 0.4417554,-0.013947 z"
       id="path825"
       inkscape:connector-curvature="0" />
    <path
       style="fill:#0065cb;stroke-width:0.0003125"
       d="M 1.9921875,14.007817 0,12.015443 V 7.5077216 3 H 0.4524435 0.904887 L 0.78576472,3.1843053 c -0.0655173,0.1013678 -0.15947,0.3017584 -0.20878385,0.4453125 -0.0800093,0.2329091 -0.0909673,0.3125391 -0.10179115,0.7396969 -0.0138842,0.5479331 0.023292,0.7602734 0.19502181,1.1139109 l 0.10393125,0.2140225 -0.102846,0.1435635 C 0.48454003,6.1015066 0.46287144,6.2243644 0.47443481,6.9569906 0.48422116,7.5770278 0.48855956,7.6171225 0.56193275,7.765625 0.73370891,8.1132891 1.0049893,8.2853128 1.6157087,8.4338438 L 1.984375,8.5235059 1.9927531,9.2617528 2.0011312,10 H 8.0005656 14 V 9.2415113 8.4830225 L 14.320313,8.3811566 C 14.939061,8.1843822 15.21316,8.0001791 15.375746,7.671875 l 0.07738,-0.15625 V 6.1875 c 0,-1.3274141 -3.1e-5,-1.3282031 -0.07268,-1.4742809 -0.0691,-0.1389485 -0.07295,-0.1813288 -0.07813,-0.859375 C 15.297048,3.16329 15.294416,3.1356597 15.219496,2.984375 15.122081,2.787668 14.932051,2.5960102 14.75,2.510858 14.637127,2.4580626 14.336757,2.3536636 14.039063,2.2637586 14.009505,2.2548322 14,2.0996403 14,1.6259808 V 1 H 7 0 V 0.5 0 h 8 8 v 8 8 H 14 12 V 13.5 11 H 8.0001859 4.0003719 l -0.008,2.500095 -0.008,2.500095 z"
       id="path823"
       inkscape:connector-curvature="0" />
    <path
       style="fill:#323232;stroke-width:0.0003125"
       d="M 5,13.5 V 12 H 6 7 V 13.5 15 H 6 5 Z M 0,2 V 1 H 1 2 V 1.6329716 2.2659432 L 1.8127495,2.3385512 C 1.5710821,2.4322598 1.2096458,2.6717235 1.032556,2.8554555 L 0.893237,3 H 0.4466185 0 Z"
       id="path821"
       inkscape:connector-curvature="0" />
    <path
       style="fill:#000000;stroke-width:0.0003125"
       d="M 2.578125,7.6043109 C 2.424438,7.5801078 1.8093139,7.4402056 1.6328125,7.3893116 L 1.46875,7.3420041 V 6.8897522 C 1.46875,6.6410134 1.47403,6.4375 1.480474,6.4375 c 0.00645,0 0.1171115,0.048027 0.2459189,0.1067263 0.1288074,0.058699 0.3520474,0.1453771 0.4960889,0.1926171 0.2361906,0.077462 0.307898,0.086156 0.7306436,0.088586 0.4194519,0.00241 0.4802419,-0.00406 0.5780188,-0.061494 C 3.7829163,6.6160328 3.8647606,6.2915422 3.6997544,6.0954431 3.58686,5.9612756 3.5757431,5.9567791 2.9251882,5.7821394 2.6066806,5.6966369 2.2548128,5.5852962 2.1432598,5.5347156 1.8862846,5.4181975 1.6533392,5.2017916 1.5580486,4.991055 1.4936151,4.8485597 1.4844636,4.7810925 1.4850812,4.453125 1.4859115,4.0122747 1.5458442,3.817475 1.7530833,3.5820391 1.9063942,3.4078688 2.2370829,3.2370541 2.546875,3.1720125 2.9554226,3.0862367 3.6736938,3.1251772 4.3515625,3.2698519 L 4.59375,3.3215409 V 3.7545203 C 4.59375,3.9926591 4.58941,4.1875 4.58411,4.1875 4.57881,4.1875 4.4588772,4.145315 4.3176016,4.093756 3.9888009,3.97376 3.5993641,3.90625 3.2359534,3.90625 2.6942692,3.90625 2.46875,4.0384187 2.46875,4.35588 c 0,0.2660925 0.1331173,0.3604538 0.6875,0.4873397 1.1416997,0.26131 1.4779941,0.4538122 1.6251591,0.9302775 0.074483,0.2411475 0.082348,0.6329334 0.017589,0.8762094 C 4.6761353,7.1112575 4.4158119,7.3731778 3.921875,7.5322087 3.7375494,7.5915556 3.6219819,7.6039322 3.1875,7.6108569 c -0.2835938,0.00452 -0.5578125,0.00157 -0.609375,-0.00655 z m 9.371354,-0.056036 C 11.163196,7.3450041 10.654188,6.8854253 10.41832,6.1658044 10.333656,5.9074997 10.328125,5.8590053 10.328125,5.375 c 0,-0.4846584 0.0054,-0.5322434 0.09069,-0.7923394 0.240613,-0.7341262 0.820692,-1.232795 1.628056,-1.3995687 0.267384,-0.055232 0.382429,-0.061997 0.796875,-0.046858 0.5211,0.019035 0.804927,0.065263 1.210938,0.1972328 l 0.257812,0.083799 v 0.4319922 c 0,0.2375956 -0.0051,0.4319922 -0.01122,0.4319922 -0.0062,0 -0.115158,-0.047876 -0.242188,-0.1063913 -0.468083,-0.2156181 -0.64528,-0.2529837 -1.199713,-0.2529837 -0.477009,0 -0.508217,0.00385 -0.67869,0.083752 -0.361032,0.1692156 -0.637358,0.5296144 -0.71177,0.9283259 -0.0445,0.2384113 -0.03829,0.7719547 0.01113,0.9566722 0.102192,0.3819922 0.357269,0.6928087 0.700643,0.8537481 0.16714,0.078339 0.206968,0.083752 0.61619,0.083752 0.240625,0 0.476172,-0.010815 0.523438,-0.024033 l 0.08594,-0.024033 V 6.3275297 5.875 H 13.0625 12.71875 V 5.5 5.125 h 0.875 0.875 v 1.0602284 1.0602288 l -0.242187,0.092693 C 13.494357,7.6183897 12.55573,7.7050044 11.949479,7.5482749 Z M 7.1979106,7.5393491 C 6.9867413,7.52923 6.9722394,7.5237825 6.9440694,7.4439959 6.9276372,7.3974544 6.5672463,6.4260188 6.1432009,5.2852497 5.7191553,4.1444809 5.3763525,3.2084844 5.3814169,3.2052572 c 0.00506,-0.00323 0.25308,0.002 0.5511459,0.011625 l 0.5419375,0.017492 0.5090025,1.40625 c 0.6408513,1.7705169 0.6432669,1.7767866 0.67239,1.7451019 0.021669,-0.023575 0.3703944,-0.9749375 0.9489531,-2.5888519 l 0.201646,-0.5625 0.5535047,-0.00855 c 0.5192893,-0.00802 0.5521384,-0.00512 0.531399,0.046875 -0.020586,0.051614 -0.9181059,2.4555089 -1.381185,3.699332 L 8.3053859,7.5221875 7.9759566,7.5423437 c -0.181186,0.011086 -0.379976,0.017362 -0.4417553,0.013947 -0.061779,-0.00341 -0.2131104,-0.011039 -0.3362907,-0.016942 z"
       id="path819"
       inkscape:connector-curvature="0" />
  </g>
</svg>
