<?xml version="1.0" encoding="UTF-8" standalone="no"?>
<!-- Created with Inkscape (http://www.inkscape.org/) -->

<svg
   version="1.1"
   id="svg2"
   width="1600"
   height="1600"
   viewBox="0 0 1600 1600"
   sodipodi:docname="save_usd.svg"
   inkscape:version="1.2.2 (732a01da63, 2022-12-09)"
   xmlns:inkscape="http://www.inkscape.org/namespaces/inkscape"
   xmlns:sodipodi="http://sodipodi.sourceforge.net/DTD/sodipodi-0.dtd"
   xmlns="http://www.w3.org/2000/svg"
   xmlns:svg="http://www.w3.org/2000/svg"
   xmlns:rdf="http://www.w3.org/1999/02/22-rdf-syntax-ns#"
   xmlns:cc="http://creativecommons.org/ns#"
   xmlns:dc="http://purl.org/dc/elements/1.1/">
  <metadata
     id="metadata8">
    <rdf:RDF>
      <cc:Work
         rdf:about="">
        <dc:format>image/svg+xml</dc:format>
        <dc:type
           rdf:resource="http://purl.org/dc/dcmitype/StillImage" />
      </cc:Work>
    </rdf:RDF>
  </metadata>
  <defs
     id="defs6" />
  <sodipodi:namedview
     pagecolor="#808080"
     bordercolor="#666666"
     borderopacity="1"
     objecttolerance="10"
     gridtolerance="10"
     guidetolerance="10"
     inkscape:pageopacity="0"
     inkscape:pageshadow="2"
     inkscape:window-width="2560"
     inkscape:window-height="1009"
     id="namedview4"
     showgrid="false"
     inkscape:zoom="0.5"
     inkscape:cx="648"
     inkscape:cy="1368"
     inkscape:window-x="-8"
     inkscape:window-y="-8"
     inkscape:window-maximized="1"
     inkscape:current-layer="svg2"
     inkscape:showpageshadow="0"
     inkscape:pagecheckerboard="true"
     inkscape:deskcolor="#d1d1d1" />
  <g
     id="SAVE_USD"
     transform="matrix(100,0,0,100,0,-0.0178225)"
     style="stroke-width:0.01">
    <path
       style="fill:none;stroke-width:0.0003125"
       d="M 0,14.007905 V 12.01581 L 1.984375,14 C 3.0757813,15.091305 3.96875,15.987747 3.96875,15.992095 3.96875,15.996443 3.0757813,16 1.984375,16 H 0 Z"
       id="path4532"
       inkscape:connector-curvature="0" />
    <path
       style="fill:#fefefe;stroke-width:0.0003125"
       d="M 1.9996057,9.0546875 1.9992113,8.109375 1.8342648,7.9647434 C 1.6363008,7.7911609 1.3661645,7.4096878 1.2651292,7.1610384 1.0870447,6.72277 1.078125,6.6055322 1.078125,4.703125 v -1.75 L 1.155504,2.796875 C 1.2968377,2.5114846 1.5837214,2.2898887 1.8850449,2.23336 L 2,2.2117943 V 1.6058972 1 h 6 6 v 0.88388 0.88388 l 0.174626,0.1708075 c 0.364651,0.3566769 0.634776,0.8369622 0.786694,1.3987509 0.07784,0.287865 0.08201,0.3414894 0.0819,1.0533066 -9.4e-5,0.6753112 -0.0069,0.7746112 -0.06853,0.9971384 -0.155028,0.5600028 -0.384544,0.9825397 -0.732503,1.3485282 L 14,7.9910278 V 8.9955141 10 H 8 2 Z M 4.5625,7.5043041 C 4.9219831,7.3900447 5.2140603,7.1585278 5.3481359,6.8815647 5.5019425,6.5638425 5.50815,6.4900447 5.5228256,4.8046875 L 5.5366353,3.21875 H 5.0985297 4.6604238 l -0.00998,1.5546875 C 4.641355,6.1887897 4.6354328,6.3392897 4.5843638,6.4526984 4.4685075,6.7099797 4.2695078,6.8379025 3.9425375,6.8652838 3.506875,6.9017669 3.1897488,6.7582816 3.0329563,6.4537394 L 2.953125,6.2986809 2.9436846,4.7587156 2.9342442,3.21875 H 2.4983721 2.0625 l 2.563e-4,1.3671875 C 2.0630947,6.3904809 2.0946863,6.6603228 2.34684,7.0124512 2.5514993,7.2982547 2.9046728,7.4976837 3.3245998,7.56457 3.6176042,7.61124 4.3361108,7.57626 4.5625,7.5043041 Z m 4.078125,0.00969 C 8.9055934,7.4424144 9.1663672,7.2955409 9.3152366,7.1340366 9.7714519,6.6391016 9.7613381,5.8064638 9.2938778,5.3755734 9.0580328,5.1581794 8.7868206,5.0454962 8.0601359,4.8629787 7.3633972,4.6879828 7.15625,4.5641425 7.15625,4.3226022 c 0,-0.3030841 0.5129022,-0.4933484 1.0306241,-0.3823169 0.2450447,0.052553 0.4155806,0.2325038 0.4820834,0.5086984 l 0.021576,0.089609 0.3969206,-0.022562 C 9.3057606,4.5036219 9.4903509,4.4877906 9.497655,4.4808503 9.526,4.4539169 9.4369031,4.0824384 9.3638016,3.9227638 9.1461503,3.4473506 8.7061494,3.2002741 8.015625,3.1657134 7.2231587,3.1260506 6.677005,3.3681347 6.4308359,3.8681753 6.3376769,4.0574084 6.328125,4.1030884 6.328125,4.359375 c 0,0.2556375 0.00968,0.3022234 0.1015603,0.4888628 0.2027063,0.4117544 0.5145978,0.5985869 1.3696438,0.8204578 0.6102081,0.1583394 0.7451343,0.2086278 0.863215,0.3217291 0.2274568,0.217865 0.098219,0.6128859 -0.2510654,0.7673928 -0.074468,0.032941 -0.2361865,0.067497 -0.359375,0.076792 C 7.5076053,6.8756916 7.1633453,6.6684144 7.0133375,6.2091734 6.98418,6.1199094 6.9578753,6.0437025 6.9548828,6.039825 6.9448818,6.026867 6.1792481,6.122835 6.1629994,6.139084 c -0.00881,0.00881 0.00746,0.1111509 0.036157,0.2274293 0.16387,0.6640463 0.5701759,1.0595588 1.21502,1.1827428 0.2877634,0.054971 0.9644365,0.035515 1.2264481,-0.035264 z m 4.139208,-0.05476 C 13.40178,7.2742472 13.799373,6.8362128 13.99088,6.125 14.074113,5.8158931 14.065334,4.9165634 13.975891,4.5895109 13.78955,3.9081441 13.354545,3.4320388 12.777757,3.2781747 12.690683,3.2549466 12.232815,3.2364363 11.523438,3.2274663 L 10.40625,3.2133394 v 2.1614018 2.1614016 l 1.101563,-0.013106 c 0.896957,-0.010672 1.133223,-0.022523 1.27202,-0.063805 z M 11.28125,5.3744378 V 3.9297469 l 0.554688,0.01492 c 0.583702,0.0157 0.723109,0.043172 0.926575,0.1825887 0.13775,0.094388 0.283484,0.3166544 0.346847,0.5289941 0.07055,0.2364256 0.09614,0.8635837 0.04852,1.1892466 -0.07183,0.491214 -0.202806,0.7202418 -0.493558,0.8630156 -0.175364,0.086112 -0.19527,0.088646 -0.781509,0.09949 l -0.601563,0.011127 z"
       id="path4530"
       inkscape:connector-curvature="0" />
    <path
       style="fill:#fefe00;stroke-width:0.0003125"
       d="M 4,13.5 V 11 h 4 4 V 13.5 16 H 8 4 Z m 3,0 V 12 H 6 5 v 1.5 1.5 h 1 1 z"
       id="path4528"
       inkscape:connector-curvature="0" />
    <path
       style="fill:#0065cb;stroke-width:0.0003125"
       d="M 1.9921875,14.007817 0,12.015443 V 7.5077216 3 l 0.5390625,2.16e-5 0.5390625,2.15e-5 v 1.726541 c 0,1.8765931 0.00925,1.9969956 0.1870042,2.4344543 0.1010353,0.2486494 0.3711716,0.6301225 0.5691356,0.803705 L 1.9992113,8.109375 1.9996057,9.0546875 2,10 h 6 6 V 8.9955141 7.9910278 l 0.242188,-0.2547362 c 0.347959,-0.3659885 0.577475,-0.7885254 0.732503,-1.3485282 0.0616,-0.2225271 0.06843,-0.3218272 0.06853,-0.9971384 1.25e-4,-0.7118172 -0.0041,-0.7654416 -0.0819,-1.0533066 C 14.809403,3.7755297 14.539278,3.2952444 14.174626,2.9385675 L 14,2.76776 V 1.88388 1 H 7 0 V 0.5 0 h 8 8 v 8 8 H 14 12 V 13.5 11 H 8.0001859 4.0003719 l -0.008,2.500095 -0.008,2.500095 z"
       id="path4526"
       inkscape:connector-curvature="0" />
    <path
       style="fill:#323232;stroke-width:0.0003125"
       d="M 5,13.5 V 12 H 6 7 V 13.5 15 H 6 5 Z M 0,2 V 1 H 1 2 V 1.609375 C 2,2.1237479 1.99286,2.21875 1.954217,2.21875 1.863136,2.21875 1.6064923,2.322251 1.4774518,2.4110233 1.3314811,2.5114427 1.1874228,2.7032694 1.1231471,2.8828125 L 1.0811945,3 H 0.54059725 0 Z"
       id="path4524"
       inkscape:connector-curvature="0" />
    <path
       style="fill:#282828;stroke-width:0.0003125"
       d="M 3.3246,7.56457 C 2.9046729,7.4976837 2.5514995,7.2982547 2.3468402,7.0124512 2.0946865,6.6603228 2.0630948,6.3904809 2.0627564,4.5859375 L 2.0625,3.21875 h 0.4358721 0.4358721 l 0.00944,1.5399656 0.00944,1.5399653 0.079831,0.1550585 C 3.1897488,6.7582816 3.506875,6.9017669 3.9425375,6.8652837 4.2695078,6.8379025 4.4685075,6.7099797 4.5843638,6.4526984 4.6354328,6.3392897 4.641355,6.1887897 4.6504422,4.7734375 L 4.6604238,3.21875 h 0.4381059 0.4381056 l -0.01381,1.5859375 C 5.50815,6.4900447 5.5019425,6.5638425 5.3481359,6.8815647 5.2140603,7.1585278 4.9219831,7.3900447 4.5625,7.5043041 4.3361109,7.5762603 3.6176044,7.61124 3.3246,7.56457 Z M 7.4141769,7.5492562 C 6.7693328,7.4260722 6.3630269,7.0305597 6.1991569,6.3665134 6.1704625,6.250235 6.1541916,6.1478919 6.1629994,6.1390841 6.1792481,6.1228353 6.9448819,6.0268669 6.9548828,6.039825 c 0.00299,0.00388 0.029297,0.080084 0.058455,0.1693484 0.1500078,0.459241 0.4942678,0.6665182 1.0387663,0.6254363 0.1231884,-0.00929 0.2849071,-0.043851 0.359375,-0.076792 0.349284,-0.1545071 0.4785218,-0.549528 0.251065,-0.767393 C 8.5444634,5.8773234 8.4095372,5.827035 7.7993291,5.6686956 6.9442831,5.4468247 6.6323916,5.2599922 6.4296853,4.8482378 6.3378031,4.6615984 6.328125,4.6150125 6.328125,4.359375 c 0,-0.2562866 0.00955,-0.3019666 0.1027109,-0.4911997 C 6.677005,3.3681347 7.2231588,3.1260506 8.015625,3.1657134 8.7061494,3.2002741 9.1461503,3.4473506 9.3638016,3.9227638 9.4369031,4.0824384 9.526,4.4539169 9.497655,4.4808503 c -0.0073,0.00694 -0.1918944,0.022772 -0.4102006,0.03518 L 8.6905338,4.5385925 8.6689575,4.4489837 C 8.6024547,4.1727891 8.4319188,3.9928378 8.1868741,3.9402853 7.6691522,3.8292538 7.15625,4.0195181 7.15625,4.3226022 c 0,0.2415403 0.2071472,0.3653806 0.9038859,0.5403765 0.7266847,0.1825175 0.9978969,0.2952007 1.2337419,0.5125947 0.4674603,0.4308903 0.4775741,1.2635282 0.021359,1.7584632 C 9.1663672,7.2955409 8.9055934,7.4424144 8.640625,7.5139919 8.3786134,7.5847709 7.7019403,7.6042275 7.4141769,7.5492562 Z M 10.40625,5.3747412 V 3.2133394 l 1.117188,0.014127 c 0.709377,0.00897 1.167245,0.02748 1.254319,0.050709 0.576788,0.153864 1.011793,0.6299694 1.198134,1.3113362 0.08944,0.3270525 0.09822,1.2263822 0.01499,1.5354891 -0.147416,0.5474675 -0.473766,1.0044869 -0.849306,1.1893647 -0.381167,0.1876478 -0.434016,0.1943981 -1.633761,0.2086722 l -1.101563,0.013106 z m 2.258072,1.333771 C 12.955074,6.5657384 13.086055,6.3367106 13.15788,5.8454966 13.205498,5.5198337 13.179911,4.8926756 13.10936,4.65625 13.045997,4.4439103 12.900263,4.2216441 12.762513,4.1272559 12.559047,3.9878387 12.41964,3.9603675 11.835937,3.9446672 L 11.28125,3.9297472 V 5.3744381 6.819129 l 0.601563,-0.011127 c 0.586239,-0.010844 0.606145,-0.013377 0.781509,-0.09949 z"
       id="path4522"
       inkscape:connector-curvature="0" />
  </g>
</svg>
