<?xml version="1.0" encoding="UTF-8" standalone="no"?>
<!-- Created with Inkscape (http://www.inkscape.org/) -->

<svg
   version="1.1"
   id="svg2"
   width="1600"
   height="1600"
   viewBox="0 0 1600 1600"
   sodipodi:docname="save_stl.svg"
   inkscape:version="1.2.2 (732a01da63, 2022-12-09)"
   xmlns:inkscape="http://www.inkscape.org/namespaces/inkscape"
   xmlns:sodipodi="http://sodipodi.sourceforge.net/DTD/sodipodi-0.dtd"
   xmlns="http://www.w3.org/2000/svg"
   xmlns:svg="http://www.w3.org/2000/svg"
   xmlns:rdf="http://www.w3.org/1999/02/22-rdf-syntax-ns#"
   xmlns:cc="http://creativecommons.org/ns#"
   xmlns:dc="http://purl.org/dc/elements/1.1/">
  <metadata
     id="metadata8">
    <rdf:RDF>
      <cc:Work
         rdf:about="">
        <dc:format>image/svg+xml</dc:format>
        <dc:type
           rdf:resource="http://purl.org/dc/dcmitype/StillImage" />
      </cc:Work>
    </rdf:RDF>
  </metadata>
  <defs
     id="defs6" />
  <sodipodi:namedview
     pagecolor="#808080"
     bordercolor="#666666"
     borderopacity="1"
     objecttolerance="10"
     gridtolerance="10"
     guidetolerance="10"
     inkscape:pageopacity="0"
     inkscape:pageshadow="2"
     inkscape:window-width="2560"
     inkscape:window-height="1009"
     id="namedview4"
     showgrid="false"
     inkscape:zoom="0.5"
     inkscape:cx="568"
     inkscape:cy="1108"
     inkscape:window-x="-8"
     inkscape:window-y="-8"
     inkscape:window-maximized="1"
     inkscape:current-layer="svg2"
     inkscape:showpageshadow="0"
     inkscape:pagecheckerboard="true"
     inkscape:deskcolor="#d1d1d1" />
  <g
     id="SAVE_STL"
     transform="matrix(100,0,0,100,0,-0.0178225)"
     style="stroke-width:0.01">
    <path
       style="fill:none;stroke-width:0.0003125"
       d="M 0,14.007905 V 12.01581 L 1.984375,14 C 3.0757813,15.091305 3.96875,15.987747 3.96875,15.992095 3.96875,15.996443 3.0757813,16 1.984375,16 H 0 Z"
       id="path827"
       inkscape:connector-curvature="0" />
    <path
       style="fill:#fefefe;stroke-width:0.0003125"
       d="M 2,9.1135278 V 8.2270553 L 1.8771961,8.1457875 C 1.7251362,8.0451591 1.5846357,7.8450447 1.5136326,7.6279653 1.4674562,7.4867891 1.4621341,7.3805691 1.4769316,6.8954847 1.4962452,6.2623569 1.528971,6.1158522 1.7067095,5.8668287 L 1.8129118,5.7180322 1.7363787,5.6012037 C 1.6942855,5.5369478 1.6203725,5.371875 1.5721275,5.234375 1.4896525,4.9993181 1.4844084,4.953555 1.4843922,4.46875 1.484376,3.98258 1.4896221,3.9371144 1.5762269,3.6728513 1.6353372,3.4924844 1.7272374,3.3041938 1.8340394,3.1446303 L 2,2.896683 V 1.9483415 1 h 6 6 v 2.3550031 2.3550028 l 0.166157,0.017149 c 0.335495,0.034626 0.648155,0.2563612 0.803339,0.56972 0.07526,0.1519694 0.07738,0.1750847 0.07738,0.84375 0,0.6686653 -0.0021,0.6917806 -0.07738,0.84375 -0.155184,0.3133588 -0.467844,0.5350938 -0.803339,0.56972 L 14,8.5712441 V 9.2856219 10 H 8 2 Z M 4.8540325,7.54916 C 5.5285884,7.36529 5.84375,6.9372225 5.84375,6.2048784 5.84375,5.8882262 5.7538462,5.6111709 5.5910959,5.4262769 5.4023094,5.2118037 5.1223816,5.0914953 4.35464,4.8948678 3.9947688,4.8027006 3.6689303,4.7077912 3.6305541,4.6839581 3.5921781,4.660125 3.532245,4.581805 3.4973694,4.5099141 3.3804634,4.2689291 3.5038131,4.03976 3.7981,3.9511928 c 0.3302984,-0.099405 1.0060144,-0.040381 1.4808681,0.129355 0.1645363,0.058813 0.3026725,0.1069378 0.3069694,0.1069428 0.0043,5.3e-6 0.00781,-0.1944565 0.00781,-0.4321372 V 3.3232066 L 5.1640625,3.2370406 C 4.3518612,3.0741687 3.5670687,3.0964888 3.1488119,3.2943559 2.916403,3.4043028 2.6534271,3.6878597 2.5605952,3.9286069 2.4569386,4.1974269 2.4425904,4.5905041 2.5264157,4.8649725 2.6740751,5.3484522 2.9481003,5.5196453 4.046875,5.8148556 4.4984925,5.9361928 4.5582147,5.9603659 4.6640625,6.0646694 4.7724344,6.17146 4.78125,6.1936297 4.78125,6.359375 c 0,0.1657462 -0.0089,0.1881281 -0.1183203,0.2975484 C 4.4991931,6.8206597 4.3508897,6.8547541 3.890625,6.8344731 3.4799687,6.8163781 3.2260063,6.7566481 2.786932,6.5748928 2.6421372,6.5149547 2.5183493,6.4712341 2.5118478,6.4777356 c -0.0065,0.0065 -0.020901,0.201155 -0.031999,0.4325635 L 2.45967,7.3310419 2.8157725,7.4307131 C 3.4125206,7.5977394 3.6169441,7.6249462 4.171875,7.6111987 4.4950722,7.6031922 4.7362869,7.5812547 4.8540325,7.54916 Z M 8.90625,5.796875 V 4.03125 H 9.640625 10.375 V 3.609375 3.1875 H 8.34375 6.3125 V 3.609375 4.03125 H 7.046875 7.78125 V 5.796875 7.5625 h 0.5625 0.5625 z m 5.15625,1.34375 V 6.71875 H 13.078125 12.09375 V 4.953125 3.1875 h -0.5625 -0.5625 V 5.375 7.5625 h 1.546875 1.546875 z"
       id="path825"
       inkscape:connector-curvature="0" />
    <path
       style="fill:#0065cb;stroke-width:0.0003125"
       d="M 1.9921875,14.007817 0,12.015443 V 7.5077216 3 h 0.953125 c 0.5242187,0 0.953125,0.00656 0.953125,0.014571 0,0.00801 -0.054334,0.098636 -0.1207427,0.2013831 C 1.7190988,3.3187003 1.6241769,3.5265969 1.5745698,3.6779456 1.4899017,3.9362634 1.4843761,3.98472 1.4843922,4.46875 c 1.62e-5,0.484805 0.00526,0.5305681 0.087735,0.765625 0.048245,0.1375 0.122158,0.3025728 0.1642512,0.3668287 L 1.8129117,5.7180322 1.7067095,5.8668287 C 1.528971,6.1158522 1.4962452,6.2623569 1.4769316,6.8954847 c -0.014797,0.4850844 -0.00948,0.5913044 0.036701,0.7324806 0.071003,0.2170794 0.2115036,0.4171938 0.3635635,0.5178222 L 2,8.2270553 V 9.1135278 10 h 6 6 V 9.2856219 8.5712441 l 0.166157,-0.017149 c 0.335495,-0.034626 0.648155,-0.2563612 0.803339,-0.56972 0.07526,-0.1519694 0.07738,-0.1750847 0.07738,-0.84375 0,-0.6686653 -0.0021,-0.6917806 -0.07738,-0.84375 C 14.814312,5.9835162 14.501652,5.7617812 14.166157,5.727155 L 14,5.7100059 V 3.3550031 1 H 7 0 V 0.5 0 h 8 8 v 8 8 H 14 12 V 13.5 11 H 8.0001859 4.0003719 l -0.008,2.500095 -0.008,2.500095 z"
       id="path823"
       inkscape:connector-curvature="0" />
    <path
       style="fill:#980000;stroke-width:0.0003125"
       d="M 4,13.5 V 11 h 4 4 V 13.5 16 H 8 4 Z m 3,0 V 12 H 6 5 v 1.5 1.5 h 1 1 z"
       id="path821"
       inkscape:connector-curvature="0" />
    <path
       style="fill:#323232;stroke-width:0.0003125"
       d="M 5,13.5 V 12 H 6 7 V 13.5 15 H 6 5 Z M 3.421875,7.5769847 C 3.284375,7.5513544 3.0116289,7.4855319 2.8157725,7.4307131 L 2.45967,7.3310419 2.4798485,6.9102991 c 0.011098,-0.2314085 0.025498,-0.4260622 0.031999,-0.4325635 0.0065,-0.0065 0.1302894,0.037219 0.2750842,0.097157 C 3.2260063,6.7566481 3.4799688,6.8163781 3.890625,6.8344731 4.3508897,6.8547541 4.4991931,6.8206597 4.6629297,6.6569234 4.7723497,6.5475031 4.78125,6.5251212 4.78125,6.359375 4.78125,6.1936297 4.7724344,6.17146 4.6640625,6.0646694 4.5582147,5.9603659 4.4984925,5.9361928 4.046875,5.8148556 2.9481003,5.5196453 2.6740751,5.3484522 2.5264157,4.8649725 2.4425904,4.5905041 2.4569386,4.1974269 2.5605953,3.9286069 2.6534271,3.6878597 2.916403,3.4043028 3.1488119,3.2943559 3.5670687,3.0964888 4.3518612,3.0741687 5.1640625,3.2370406 L 5.59375,3.3232066 v 0.4321468 c 0,0.2376807 -0.00352,0.4321425 -0.00781,0.4321372 -0.0043,-5e-6 -0.1424331,-0.048129 -0.3069694,-0.1069428 C 4.9390609,3.9590484 4.6187187,3.90625 4.2214553,3.90625 c -0.4604556,0 -0.688784,0.1063647 -0.7548269,0.3516287 -0.027471,0.1020219 -0.022581,0.1421204 0.030741,0.2520354 0.034876,0.071891 0.094809,0.1502109 0.1331847,0.174044 0.038376,0.023833 0.3642147,0.1187425 0.7240859,0.2109097 0.7677416,0.1966275 1.0476694,0.316936 1.2364559,0.5314091 C 5.7538462,5.6111709 5.84375,5.8882262 5.84375,6.2048784 5.84375,6.9372225 5.5285884,7.36529 4.8540325,7.54916 4.5897972,7.6211847 3.7468553,7.6375619 3.421875,7.5769847 Z M 7.78125,5.796875 V 4.03125 H 7.046875 6.3125 V 3.609375 3.1875 H 8.34375 10.375 V 3.609375 4.03125 H 9.640625 8.90625 V 5.796875 7.5625 H 8.34375 7.78125 Z M 10.96875,5.375 V 3.1875 h 0.5625 0.5625 V 4.953125 6.71875 H 13.078125 14.0625 V 7.140625 7.5625 H 12.515625 10.96875 Z M 0,2 V 1 h 1 1 v 0.9625 c 0,0.7069444 -0.00996,0.9724567 -0.0375,1 C 1.9349567,2.9900433 1.6694444,3 0.9625,3 H 0 Z"
       id="path819"
       inkscape:connector-curvature="0" />
  </g>
</svg>
