<?xml version="1.0" encoding="UTF-8" standalone="no"?>
<!-- Created with Inkscape (http://www.inkscape.org/) -->

<svg
   version="1.1"
   id="svg2"
   width="1600"
   height="1600"
   viewBox="0 0 1600 1600"
   sodipodi:docname="save_x3d.svg"
   inkscape:version="1.2.2 (732a01da63, 2022-12-09)"
   xmlns:inkscape="http://www.inkscape.org/namespaces/inkscape"
   xmlns:sodipodi="http://sodipodi.sourceforge.net/DTD/sodipodi-0.dtd"
   xmlns="http://www.w3.org/2000/svg"
   xmlns:svg="http://www.w3.org/2000/svg"
   xmlns:rdf="http://www.w3.org/1999/02/22-rdf-syntax-ns#"
   xmlns:cc="http://creativecommons.org/ns#"
   xmlns:dc="http://purl.org/dc/elements/1.1/">
  <metadata
     id="metadata8">
    <rdf:RDF>
      <cc:Work
         rdf:about="">
        <dc:format>image/svg+xml</dc:format>
        <dc:type
           rdf:resource="http://purl.org/dc/dcmitype/StillImage" />
      </cc:Work>
    </rdf:RDF>
  </metadata>
  <defs
     id="defs6" />
  <sodipodi:namedview
     pagecolor="#808080"
     bordercolor="#666666"
     borderopacity="1"
     objecttolerance="10"
     gridtolerance="10"
     guidetolerance="10"
     inkscape:pageopacity="0"
     inkscape:pageshadow="2"
     inkscape:window-width="2560"
     inkscape:window-height="1009"
     id="namedview4"
     showgrid="false"
     inkscape:zoom="0.5"
     inkscape:cx="572"
     inkscape:cy="1026"
     inkscape:window-x="-8"
     inkscape:window-y="-8"
     inkscape:window-maximized="1"
     inkscape:current-layer="svg2"
     inkscape:showpageshadow="0"
     inkscape:pagecheckerboard="true"
     inkscape:deskcolor="#d1d1d1" />
  <g
     id="SAVE_X3D"
     transform="matrix(100,0,0,100,0,-0.0178225)"
     style="stroke-width:0.01">
    <path
       style="fill:none;stroke-width:0.0003125"
       d="M 0,14.007905 V 12.01581 L 1.984375,14 C 3.0757813,15.091305 3.96875,15.987747 3.96875,15.992095 3.96875,15.996443 3.0757813,16 1.984375,16 H 0 Z"
       id="path827"
       inkscape:connector-curvature="0" />
    <path
       style="fill:#fefefe;stroke-width:0.0003125"
       d="M 1.9927431,9.2468488 1.984375,8.4936975 1.8298109,8.4350431 C 1.6170231,8.3542944 1.3609465,8.0964597 1.2808085,7.8822719 1.198366,7.6619244 1.1962842,7.2773812 1.2764148,7.0706478 1.3081304,6.9888228 1.4839116,6.6902466 1.6670398,6.4071453 L 2,5.8924159 V 5.222045 4.5516744 L 1.734841,4.1404622 C 1.4182637,3.6495094 1.375,3.5383603 1.375,3.2159934 1.375,2.8697568 1.4519084,2.6803854 1.6814382,2.461451 1.7804331,2.3670259 1.8926073,2.2798734 1.9307144,2.2677787 1.999209,2.2460393 2,2.2386774 2,1.6228941 V 1 h 6 6 v 1.0829878 1.0829878 l 0.07403,0.097053 c 0.223143,0.2925556 0.46308,0.924986 0.518444,1.366526 0.04222,0.3366934 0.04177,1.1744818 -7.91e-4,1.4804803 C 14.533763,6.5264502 14.2961,7.1319855 14.074555,7.427603 L 14,7.52708 V 8.76354 10 H 8.0005556 2.0011112 Z M 8.2020325,7.5145966 C 8.6143944,7.40719 8.9360013,7.1403894 9.1216231,6.7517163 9.2278694,6.5292469 9.234375,6.4975944 9.234375,6.203125 9.234375,5.9303056 9.2238544,5.8681841 9.15152,5.7138944 9.0466672,5.4902422 8.8577147,5.3059659 8.6412378,5.2162412 L 8.4723825,5.1462547 8.6346288,5.0332975 C 9.1391463,4.6820484 9.2003106,4.06162 8.7777469,3.5815622 8.2627281,2.99647 7.1131213,3.0852742 6.7295553,3.73978 6.6181438,3.9298894 6.5192353,4.2545109 6.5642469,4.2823297 c 0.019063,0.011781 0.1565456,0.038273 0.3055184,0.058871 0.1489728,0.020598 0.3000053,0.044558 0.3356275,0.053246 0.053953,0.013158 0.071399,-0.00634 0.104481,-0.1167538 C 7.3673263,4.0859331 7.4257872,4.0112453 7.574955,3.9390347 7.9100756,3.7768053 8.25,3.9701113 8.25,4.3229147 c 0,0.2715756 -0.1976997,0.4752325 -0.4955791,0.5105119 -0.131174,0.015536 -0.1642834,0.031589 -0.1754047,0.085049 -0.024665,0.1185666 -0.079309,0.5916478 -0.069475,0.6014819 0.00528,0.00528 0.064545,-0.00557 0.1317032,-0.024117 C 7.9150903,5.4202275 8.1620937,5.5210655 8.289395,5.7604434 8.38836,5.9465387 8.388712,6.3653227 8.2900575,6.5507559 8.0287681,7.0418856 7.4513897,6.9606497 7.2911637,6.4102144 7.2357856,6.2199694 7.2320456,6.2155144 7.1406247,6.2309 7.0890617,6.23958 6.9097653,6.263224 6.7421872,6.283448 6.5583391,6.305635 6.4376469,6.33418 6.4378706,6.355421 6.4387675,6.440502 6.5285956,6.7164154 6.6032037,6.8632532 6.8755475,7.3992557 7.5655872,7.6803695 8.2020325,7.5145966 Z M 3.7011003,6.78125 C 3.9546456,6.3859375 4.1735253,6.0625 4.1875,6.0625 c 0.013975,0 0.2328544,0.3234375 0.4863997,0.71875 L 5.1348912,7.5 H 5.6455706 C 5.9264444,7.5 6.15625,7.49416 6.15625,7.487031 6.15625,7.479901 5.8320834,6.971627 5.4358803,6.3575395 5.0211719,5.7147706 4.7227762,5.2220819 4.7326347,5.1963919 4.7420528,5.1718481 5.0310631,4.7158422 5.3748794,4.1830456 5.7186956,3.6502487 6,3.2082888 6,3.2009122 6,3.1935353 5.7700209,3.1875 5.4889356,3.1875 H 4.9778712 L 4.5904981,3.7960475 C 4.3774428,4.1307488 4.1960937,4.404595 4.1875,4.404595 4.17891,4.404595 3.9975572,4.1307487 3.7845019,3.7960475 L 3.3971287,3.1875 H 2.8860643 C 2.6049789,3.1875 2.375,3.19322 2.375,3.2002109 c 0,0.00699 0.2882812,0.45984 0.640625,1.0063307 0.3523438,0.5464906 0.640625,1.0038781 0.640625,1.0164165 0,0.012539 -0.3234375,0.5239263 -0.71875,1.1364169 C 2.5421875,6.9718656 2.21875,7.4790706 2.21875,7.4864972 2.21875,7.4939238 2.4485558,7.5 2.7294294,7.5 H 3.2401088 Z M 12.1875,7.4559466 C 13.158799,7.2824159 13.679004,6.4497509 13.614465,5.171875 13.569205,4.2757278 13.239678,3.6653088 12.644808,3.3756703 12.302376,3.2089428 12.107565,3.1875 10.935239,3.1875 H 9.96875 V 5.34375 7.5 L 10.960938,7.49891 C 11.64831,7.4981537 12.025128,7.484956 12.1875,7.4559466 Z M 10.84375,5.3431878 V 3.8984969 l 0.554688,0.01492 c 0.583702,0.0157 0.723109,0.043172 0.926575,0.1825887 0.13775,0.094388 0.283484,0.3166544 0.346847,0.5289941 0.07055,0.2364256 0.09614,0.8635837 0.04852,1.1892466 -0.07183,0.491214 -0.202806,0.7202418 -0.493558,0.8630156 -0.175364,0.086112 -0.19527,0.088646 -0.781509,0.09949 l -0.601563,0.011127 z"
       id="path825"
       inkscape:connector-curvature="0" />
    <path
       style="fill:#0098fe;stroke-width:0.0003125"
       d="M 4,13.5 V 11 h 4 4 V 13.5 16 H 8 4 Z m 3,0 V 12 H 6 5 v 1.5 1.5 h 1 1 z"
       id="path823"
       inkscape:connector-curvature="0" />
    <path
       style="fill:#0065cb;stroke-width:0.0003125"
       d="M 1.9921875,14.007817 0,12.015443 V 7.5077216 3 H 0.6875 1.375 v 0.2304459 c 0,0.3063813 0.046608,0.4242491 0.359841,0.9100163 L 2,4.5516744 V 5.222045 5.8924159 L 1.6670398,6.4071453 C 1.4839116,6.6902466 1.3081304,6.9888228 1.2764148,7.0706478 1.1962842,7.2773813 1.198366,7.6619244 1.2808085,7.8822719 1.3609465,8.0964597 1.6170231,8.3542944 1.8298109,8.4350431 L 1.984375,8.4936975 1.9927431,9.2468488 2.0011112,10 H 8.0005556 14 V 8.76354 7.52708 l 0.07455,-0.099477 c 0.221545,-0.2956175 0.459211,-0.9011528 0.517129,-1.3175681 0.04256,-0.3059985 0.04301,-1.1437869 7.9e-4,-1.4804803 -0.05536,-0.44154 -0.295301,-1.0739703 -0.518444,-1.366526 L 14,3.1659756 V 2.0829878 1 H 7 0 V 0.5 0 h 8 8 v 8 8 H 14 12 V 13.5 11 H 8.0001859 4.0003719 l -0.008,2.500095 -0.008,2.500095 z"
       id="path821"
       inkscape:connector-curvature="0" />
    <path
       style="fill:#323232;stroke-width:0.0003125"
       d="M 5,13.5 V 12 H 6 7 V 13.5 15 H 6 5 Z M 7.453125,7.5184053 C 6.972465,7.3991109 6.6116675,7.0388891 6.4800422,6.546875 6.4570519,6.4609375 6.438075,6.3747831 6.4378709,6.3554209 6.4376522,6.3341791 6.5583394,6.3056341 6.7421875,6.2834475 6.9097656,6.2632241 7.0890625,6.2395778 7.140625,6.2309 7.2320459,6.2155144 7.2357859,6.2199694 7.2911641,6.4102144 7.45139,6.9606497 8.0287684,7.0418856 8.2900578,6.5507566 8.3887116,6.3653234 8.3883603,5.9465394 8.2893953,5.7604441 8.1620941,5.5210663 7.9150906,5.4202288 7.6412447,5.4958413 c -0.067158,0.018543 -0.1264241,0.029396 -0.1317031,0.024116 -0.00983,-0.00983 0.04481,-0.4829153 0.069475,-0.6014819 0.011121,-0.05346 0.044231,-0.069514 0.1754047,-0.085049 C 8.0523003,4.7981472 8.25,4.5944903 8.25,4.3229147 8.25,3.9701113 7.9100756,3.7768053 7.574955,3.9390347 7.4257872,4.0112453 7.3673263,4.0859331 7.3098738,4.2776928 7.2767922,4.3881087 7.2593456,4.4076047 7.2053928,4.3944466 7.1697706,4.3857587 7.0187381,4.3617978 6.8697653,4.3412003 6.7207925,4.3206025 6.5833094,4.2941109 6.5642469,4.2823297 6.5192353,4.2545109 6.6181438,3.9298894 6.7295553,3.73978 6.9499941,3.3636297 7.4207325,3.15594 7.9603541,3.1967512 8.5346209,3.2401831 9.0071203,3.6652956 9.0533538,4.1801341 9.0834872,4.5156884 8.9305703,4.8272606 8.6346288,5.0332975 l -0.1622463,0.1129572 0.1688553,0.069986 c 0.2164769,0.089725 0.4054294,0.274001 0.5102822,0.4976532 0.072334,0.1542897 0.082855,0.2164112 0.082855,0.4892306 0,0.2944694 -0.00651,0.3261219 -0.1127519,0.5485913 C 8.8252844,7.3722184 8.1375031,7.68826 7.453125,7.5184053 Z M 2.21875,7.4864972 c 0,-0.00743 0.3234375,-0.5146316 0.71875,-1.1271222 C 3.3328125,5.7468844 3.65625,5.2354966 3.65625,5.2229581 3.65625,5.2104197 3.3679688,4.7530322 3.015625,4.2065416 2.6632812,3.6600509 2.375,3.2072022 2.375,3.2002109 2.375,3.19322 2.6049789,3.1875 2.8860643,3.1875 H 3.3971287 L 3.7845019,3.7960475 C 3.9975572,4.1307488 4.1789062,4.404595 4.1875,4.404595 c 0.00859,0 0.1899428,-0.2738462 0.4029981,-0.6085475 L 4.9778712,3.1875 H 5.4889356 C 5.7700209,3.1875 6,3.1935353 6,3.2009122 6,3.2082888 5.7186956,3.6502488 5.3748794,4.1830456 5.0310631,4.7158422 4.7420528,5.1718481 4.7326347,5.1963919 4.7227762,5.2220819 5.0211719,5.7147706 5.4358803,6.3575397 5.8320834,6.9716272 6.15625,7.4798984 6.15625,7.4870312 6.15625,7.4941641 5.9264444,7.5 5.6455706,7.5 H 5.1348913 L 4.6738997,6.78125 C 4.4203544,6.3859375 4.2014747,6.0625 4.1875,6.0625 4.173525,6.0625 3.9546456,6.3859375 3.7011003,6.78125 L 3.2401088,7.5 H 2.7294294 C 2.4485558,7.5 2.21875,7.4939238 2.21875,7.4864972 Z M 9.96875,5.34375 V 3.1875 h 0.966489 c 1.172326,0 1.367137,0.021443 1.709569,0.1881703 0.59487,0.2896385 0.924397,0.9000575 0.969657,1.7962047 0.06454,1.2778759 -0.455666,2.1105409 -1.426965,2.2840716 -0.162372,0.029009 -0.53919,0.042208 -1.226562,0.042963 L 9.96875,7.5 Z m 2.258072,1.3335122 C 12.517574,6.5344884 12.648555,6.3054606 12.72038,5.8142466 12.767998,5.4885837 12.742411,4.8614256 12.67186,4.625 12.608497,4.4126603 12.462763,4.1903941 12.325013,4.0960059 12.121547,3.9565888 11.98214,3.9291175 11.398437,3.9134172 L 10.84375,3.8984972 V 5.3431881 6.787879 l 0.601563,-0.011127 c 0.586239,-0.010844 0.606145,-0.013377 0.781509,-0.09949 z M 0,2 V 1 H 1 2 V 1.6212087 2.2424175 L 1.908136,2.2804685 C 1.7533087,2.3446003 1.4854749,2.6522687 1.424399,2.8361509 L 1.3699771,3 H 0.68498853 0 Z"
       id="path819"
       inkscape:connector-curvature="0" />
  </g>
</svg>
