<?xml version="1.0" encoding="UTF-8" standalone="no"?>
<!-- Created with Inkscape (http://www.inkscape.org/) -->

<svg
   version="1.1"
   id="svg2"
   width="1600"
   height="1600"
   viewBox="0 0 1600 1600"
   sodipodi:docname="scale_instance.svg"
   inkscape:version="1.2.2 (732a01da63, 2022-12-09)"
   xmlns:inkscape="http://www.inkscape.org/namespaces/inkscape"
   xmlns:sodipodi="http://sodipodi.sourceforge.net/DTD/sodipodi-0.dtd"
   xmlns="http://www.w3.org/2000/svg"
   xmlns:svg="http://www.w3.org/2000/svg"
   xmlns:rdf="http://www.w3.org/1999/02/22-rdf-syntax-ns#"
   xmlns:cc="http://creativecommons.org/ns#"
   xmlns:dc="http://purl.org/dc/elements/1.1/">
  <metadata
     id="metadata8">
    <rdf:RDF>
      <cc:Work
         rdf:about="">
        <dc:format>image/svg+xml</dc:format>
        <dc:type
           rdf:resource="http://purl.org/dc/dcmitype/StillImage" />
      </cc:Work>
    </rdf:RDF>
  </metadata>
  <defs
     id="defs6" />
  <sodipodi:namedview
     pagecolor="#808080"
     bordercolor="#666666"
     borderopacity="1"
     objecttolerance="10"
     gridtolerance="10"
     guidetolerance="10"
     inkscape:pageopacity="0"
     inkscape:pageshadow="2"
     inkscape:window-width="1993"
     inkscape:window-height="1009"
     id="namedview4"
     showgrid="false"
     inkscape:zoom="0.5"
     inkscape:cx="139"
     inkscape:cy="82"
     inkscape:window-x="-8"
     inkscape:window-y="-8"
     inkscape:window-maximized="1"
     inkscape:current-layer="SCALE_INSTANCE"
     inkscape:showpageshadow="0"
     inkscape:pagecheckerboard="true"
     inkscape:deskcolor="#d1d1d1" />
  <g
     id="SCALE_INSTANCE"
     transform="matrix(100,0,0,100,0,4.9999997e-5)"
     style="stroke-width:0.0114286">
    <path
       style="fill:none;stroke-width:0.000357143"
       d="M 0,8 V 0 h 8 8 v 8 8 H 8 0 Z m 9,4 V 9 h 3 3 V 8.5 8 H 11.5 8 V 11.5 15 H 8.5 9 Z m 2,1 v -2 h 2 2 V 10.5 10 H 12.5 10 v 2.5 2.5 h 0.5 0.5 z m 2,1 v -1 h 1 1 V 12.5 12 H 13.5 12 v 1.5 1.5 h 0.5 0.5 z m -9.4375,0.0225 c 1.3320312,-0.267506 2.47491,-0.495197 2.5397306,-0.505979 0.1396394,-0.02323 0.329541,-0.179348 0.3806185,-0.312909 0.02933,-0.0767 0.04313,-1.017087 0.02059,-1.403135 -0.00189,-0.03239 -0.1299425,-0.187895 -0.2845581,-0.345559 L 5.9377612,11.168257 6.0391931,11.07277 c 0.055788,-0.05252 0.2942085,-0.237418 0.5298247,-0.41089 l 0.4283925,-0.315404 0.00911,-1.3060504 0.00911,-1.3060506 0.077379,-0.15625 C 7.1916603,7.3789119 7.3789119,7.1916603 7.578125,7.0930044 l 0.15625,-0.077379 1.8742844,-0.00877 1.8742846,-0.00877 0.07884,-0.071142 c 0.04336,-0.039128 0.135091,-0.1069334 0.203841,-0.1506781 0.06875,-0.043744 0.201138,-0.1445838 0.294196,-0.2240872 0.09306,-0.079503 0.223959,-0.1825028 0.290892,-0.2288875 L 12.47241,6.2389638 12.853844,6.6194819 13.235278,7 h 0.644598 C 14.522559,7 14.524524,6.9997813 14.5412,6.929688 14.5504,6.891016 14.770679,5.7938658 15.030712,4.4915761 L 15.503498,2.123777 15.493898,1.4703348 C 15.483488,0.75624594 15.478549,0.736346 15.273834,0.58350481 15.102793,0.45580353 15.025504,0.46668556 12.4375,0.98285456 11.088281,1.2519518 9.9198491,1.4928332 9.8409838,1.5181465 9.6840225,1.5685262 9.5537044,1.6854683 9.5019881,1.8223469 c -0.043652,0.115535 -0.043959,1.2698909 -3.687e-4,1.3865562 0.018078,0.048385 0.15377,0.2098888 0.3015368,0.3588985 L 10.071823,3.8387281 9.981224,3.9195871 C 9.886855,4.0038109 8.5424,5.0105703 8.2149859,5.2421875 8.1117272,5.3152344 8.0149834,5.375 8,5.375 7.9850166,5.375 7.8882728,5.3152344 7.7850141,5.2421875 7.4576,5.0105703 6.113145,4.0038109 6.0187759,3.9195872 L 5.9281766,3.8387281 6.1968437,3.5678016 C 6.3446106,3.4187919 6.4803022,3.2572878 6.4983806,3.2089031 6.5419709,3.0922378 6.5416641,1.9378819 6.4980119,1.8223469 6.4462956,1.6854683 6.3159775,1.5685262 6.1590163,1.5181465 6.0801509,1.4928332 4.9117188,1.2519518 3.5625,0.98285456 0.97449603,0.46668556 0.89720753,0.45580353 0.72616553,0.58350481 0.52145175,0.73634572 0.51651241,0.75624703 0.50606362,1.4703247 l -0.009561,0.6534325 0.48781003,2.445934 C 1.2526081,5.9149547 1.49337,7.0817662 1.519339,7.1626053 c 0.028852,0.089815 0.08964,0.1842288 0.1562924,0.2427506 l 0.1090761,0.09577 -0.099728,0.083915 c -0.05485,0.046154 -0.1199902,0.13241 -0.1447552,0.1916812 -0.024765,0.059271 -0.271932,1.2271153 -0.5492596,2.5952099 l -0.50423222,2.487443 -0.0106719,0.59375 c -0.0123178,0.685323 -0.003182,0.759847 0.10957122,0.893847 C 0.69621612,14.478394 0.82905381,14.533921 1,14.520179 1.077344,14.513979 2.2304688,14.290006 3.5625,14.0225 Z M 2.8889482,8.1246853 2.2622714,7.4997925 2.8819963,6.8827087 C 3.222845,6.5433128 3.5129203,6.2617628 3.5266084,6.2570425 c 0.027621,-0.00953 0.2809582,0.17328 0.4265166,0.3077694 0.051563,0.047641 0.1717294,0.140439 0.2670375,0.2062168 0.2856591,0.1971504 0.9510578,0.700455 0.9605753,0.7265744 C 5.1885337,7.5189991 4.7556175,7.8538672 4.1676425,8.28125 4.0612362,8.3585938 3.885065,8.4952269 3.7761506,8.5848794 3.6672366,8.6745319 3.5640625,8.748265 3.546875,8.7487306 3.5296875,8.7491963 3.2336203,8.4683759 2.8889482,8.1246853 Z"
       id="path827"
       inkscape:connector-curvature="0" />
    <path
       style="fill:#fefefe;stroke-width:0.000357143"
       d="M 8,11.5 V 8 H 11.5 15 V 8.5 9 H 12 9 v 3 3 H 8.5 8 Z m 2,1 V 10 h 2.5 2.5 v 0.5 0.5 h -2 -2 v 2 2 H 10.5 10 Z m 2,1 V 12 h 1.5 1.5 v 0.5 0.5 h -1 -1 v 1 1 H 12.5 12 Z"
       id="path825"
       inkscape:connector-curvature="0" />
    <path
       style="fill:#cbfefe;stroke-width:0.000357143"
       d="M 1,12.991634 C 1,12.987032 1.225,11.858766 1.5,10.484375 1.775,9.1099844 2,7.9783122 2,7.9695481 2,7.9607841 2.3356063,8.2890009 2.7457917,8.6989194 L 3.4915834,9.4442256 3.8004791,9.2181203 C 3.9703719,9.0937625 4.1515625,8.9529222 4.203125,8.9051413 4.2546875,8.8573606 4.3839734,8.7572041 4.4904272,8.6825713 4.7408512,8.5070034 6.4854475,7.2023956 6.65625,7.0629706 6.7335331,6.999885 6.7337016,6.9986944 6.671875,6.952495 6.6375,6.9268084 6.5179687,6.8365891 6.40625,6.7520078 5.8157837,6.30497 4.6904769,5.4670212 4.5216772,5.3486787 4.4152234,5.2740459 4.2859375,5.1737931 4.234375,5.1258947 4.1828125,5.0779962 3.9933203,4.9313941 3.8132813,4.8001116 L 3.4859375,4.5614169 2.7429687,5.3039016 C 2.3343359,5.7122684 2,6.0392159 2,6.0304519 2,6.0216878 1.7751538,4.8907844 1.5003418,3.5173334 1.2255298,2.1438823 1.0050635,1.0157698 1.0104167,1.0104167 1.0157698,1.0050635 2.1438823,1.2255298 3.5173334,1.5003418 4.8907844,1.7751538 6.0216878,2 6.0304519,2 6.0392159,2 5.71253,2.3340741 5.3044831,2.7423869 L 4.5625794,3.4847738 4.9598325,3.7814494 c 0.2184891,0.1631715 0.4751116,0.350494 0.5702725,0.4162718 0.095161,0.065778 0.2152075,0.1589472 0.26677,0.2070429 0.089099,0.083109 1.3022144,0.9890943 1.7112956,1.2780396 C 7.614015,5.7575647 7.7629253,5.8735803 7.8390822,5.9406162 7.9152391,6.0076522 7.9876522,6.0625 8,6.0625 8.012348,6.0625 8.084761,6.007652 8.1609178,5.9406162 8.2370747,5.8735803 8.385985,5.7575647 8.4918294,5.6828037 8.9009106,5.3938584 10.114026,4.4878728 10.203125,4.4047641 c 0.05156,-0.048096 0.171609,-0.141265 0.26677,-0.2070429 0.09516,-0.065778 0.351783,-0.2531003 0.570272,-0.4162718 L 11.437421,3.4847737 10.695517,2.7423869 C 10.28747,2.3340741 9.9607841,2 9.9695481,2 9.9783122,2 11.109216,1.7751538 12.482667,1.5003418 13.856118,1.2255298 14.98423,1.0050635 14.989583,1.0104167 14.994937,1.0157698 14.77447,2.1438823 14.499658,3.5173334 14.224846,4.8907844 14,6.0216878 14,6.0304519 14,6.0392159 13.665664,5.7122684 13.257031,5.3039016 L 12.514063,4.5614169 12.186719,4.8001116 C 12.00668,4.9313941 11.817188,5.0779962 11.765625,5.1258947 11.714063,5.1737931 11.58471,5.2740459 11.478176,5.3486787 11.10556,5.6097147 9.8585322,6.5398209 9.765625,6.6259991 9.7140625,6.6738269 9.5781534,6.7766278 9.463605,6.8544453 L 9.2553353,6.9959316 8.494855,7.0057784 C 7.7584397,7.0153134 7.7294306,7.0180737 7.578125,7.0930044 7.3781531,7.1920362 7.1909875,7.379645 7.0941506,7.578125 7.0263041,7.7171859 7.0160725,7.7882984 7.0011462,8.2245441 L 6.984375,8.7147134 6.421875,9.1267653 C 6.1125,9.3533941 5.8171875,9.5782184 5.765625,9.626375 5.7140625,9.6745316 5.5938956,9.7677509 5.4985875,9.8335288 5.4032794,9.8993066 5.1548081,10.080937 4.9464291,10.237152 l -0.378871,0.284026 0.7306681,0.730172 c 0.4018675,0.401595 0.72628,0.734561 0.7209166,0.739924 C 6.0113825,11.999034 1.0391548,13 1.0083664,13 1.0037649,13 1,12.996235 1,12.991634 Z"
       id="path823"
       inkscape:connector-curvature="0" />
    <path
       style="fill:#989898;stroke-width:0.000357143"
       d="M 0.96875,13.518651 V 13.009304 L 3.4765625,12.50759 c 1.3792969,-0.275942 2.5106825,-0.498994 2.5141903,-0.49567 0.00351,0.0033 0.00838,0.229446 0.010827,0.502493 l 0.00445,0.496448 -0.073328,0.01066 C 5.7552284,13.047338 1.1318523,13.97461 1.0546875,13.999869 L 0.96875,14.027999 Z M 4.8521697,10.805717 4.5676003,10.521148 4.94645,10.237136 C 5.1548175,10.08093 5.4032794,9.8993066 5.4985875,9.8335287 5.5938956,9.7677509 5.7140625,9.6746037 5.765625,9.6265353 5.8476578,9.5500609 6.8569109,8.8000566 6.9609375,8.7382647 6.9915194,8.7200988 7,8.8224453 7,9.2096888 V 9.7043159 L 6.3984375,10.151023 c -0.6103319,0.453218 -0.9343353,0.696464 -1.0987081,0.824854 -0.049993,0.03905 -0.1071172,0.08076 -0.1269432,0.0927 -0.021401,0.01289 -0.1516709,-0.09392 -0.3206165,-0.262864 z M 5.4349069,7.0226637 C 5.0811369,6.76098 4.7506681,6.5146369 4.7005319,6.4752344 4.6503956,6.4358322 4.5299113,6.3444259 4.4327891,6.2721094 4.3356669,6.1997931 4.08298,6.0102169 3.8712625,5.8508291 L 3.4863216,5.5610328 2.7431608,6.3037097 C 2.3344223,6.7121822 2,7.0392159 2,7.0304519 2,7.0216878 1.775,5.8900156 1.5,4.515625 L 1,2.0167328 1.0030809,1.5474289 1.0061619,1.078125 1.5015562,3.53125 C 1.774023,4.8804688 1.9976366,5.9983275 1.9984752,6.0153809 1.999314,6.0324341 2.3343359,5.7122684 2.7429687,5.3039016 L 3.4859375,4.5614169 3.8132812,4.8001116 c 0.1800391,0.1312825 0.3695313,0.2778846 0.4210938,0.3257831 0.051563,0.047898 0.1809147,0.1481512 0.2874494,0.222784 0.3698331,0.2590869 1.6194603,1.1926247 1.7377681,1.2982057 0.065432,0.058393 0.1963575,0.155675 0.2909453,0.2161822 0.094588,0.060507 0.1665275,0.1263628 0.1598663,0.1463462 -0.00666,0.019984 -0.1024304,0.097651 -0.2128203,0.1725941 C 6.3871941,7.2569503 6.2540181,7.3591572 6.2016372,7.4091337 6.1492566,7.45911 6.1000378,7.4996519 6.0922622,7.4992262 6.0844869,7.4988012 5.7886769,7.2843475 5.4349069,7.0226637 Z M 9.328125,6.9515044 C 9.3625,6.9263625 9.4820313,6.8365891 9.59375,6.7520078 10.184216,6.30497 11.309523,5.4670212 11.478323,5.3486787 c 0.106454,-0.074633 0.23574,-0.1748856 0.287302,-0.222784 0.05156,-0.047898 0.241055,-0.1945006 0.421094,-0.3257831 l 0.327344,-0.2386947 0.742968,0.7424847 c 0.408633,0.4083668 0.743655,0.7285325 0.744494,0.7114793 8.37e-4,-0.017053 0.224452,-1.1349121 0.496919,-2.4841309 l 0.495394,-2.453125 0.0031,0.4692274 L 15,2.0165798 14.504459,4.4934141 c -0.272547,1.3622587 -0.505108,2.4864022 -0.516803,2.4980962 -0.01169,0.011694 -0.348038,-0.3052922 -0.74743,-0.7044137 L 12.514057,5.5614209 12.186716,5.8001138 C 12.006678,5.931395 11.817188,6.07821 11.765625,6.1263697 c -0.05156,0.04816 -0.171881,0.1413812 -0.267374,0.2071591 -0.09549,0.065778 -0.336977,0.2426431 -0.536631,0.3930337 L 10.598613,7 9.9321188,6.9986094 C 9.3393534,6.9973719 9.2725388,6.9921609 9.328125,6.9515056 Z M 4.8506512,3.6963363 4.5608553,3.4865094 5.28824,2.7585677 6.015625,2.030626 6.0242659,2.5221648 6.0329066,3.0137035 5.5866769,3.4599334 5.1404472,3.9061631 Z M 10.411171,3.4580544 9.9670959,3.0131861 l 0.00864,-0.49128 0.00864,-0.4912801 0.7277831,0.7283406 0.727784,0.7283406 -0.257196,0.1860337 c -0.141459,0.1023188 -0.273015,0.1958322 -0.292349,0.2078079 -0.02076,0.012858 -0.216989,-0.1603879 -0.479227,-0.4230944 z"
       id="path821"
       inkscape:connector-curvature="0" />
    <path
       style="fill:#323232;stroke-width:0.000357143"
       d="m 0.76407572,14.488634 c -0.12616738,-0.05673 -0.25711031,-0.216175 -0.28013797,-0.341117 -0.010202,-0.05535 -0.0137468,-0.367829 -0.007877,-0.694392 l 0.0106719,-0.59375 0.50423222,-2.487443 C 1.2682922,9.0038378 1.5154591,7.8359937 1.5402242,7.7767225 1.5649893,7.7174512 1.6301291,7.631195 1.6849794,7.5850412 l 0.099728,-0.083915 -0.1090761,-0.09577 C 1.6089783,7.3468341 1.548191,7.2524203 1.5193387,7.1626053 1.4933697,7.0817662 1.2526078,5.9149547 0.98431231,4.5696912 L 0.49650228,2.1237573 0.50606362,1.4703247 C 0.51651241,0.75624703 0.52145175,0.73634572 0.72616553,0.58350481 0.89720753,0.45580353 0.97449603,0.46668556 3.5625,0.98285456 4.9117188,1.2519518 6.0801509,1.4928332 6.1590163,1.5181465 c 0.1569612,0.05038 0.2872793,0.1673218 0.3389956,0.3042004 0.043652,0.115535 0.043959,1.2698909 3.687e-4,1.3865562 -0.018078,0.048385 -0.15377,0.2098888 -0.3015369,0.3588985 l -0.2686671,0.2709265 0.090599,0.080859 C 6.113145,4.0038109 7.4576,5.0105703 7.7850141,5.2421875 7.8882728,5.3152344 7.9850166,5.375 8,5.375 8.0149834,5.375 8.1117272,5.3152344 8.2149859,5.2421875 8.5424,5.0105703 9.886855,4.0038109 9.9812241,3.9195872 L 10.071823,3.8387281 9.8031563,3.5678016 C 9.6553894,3.4187919 9.5196978,3.2572878 9.5016194,3.2089031 9.4580291,3.0922378 9.4583359,1.9378819 9.5019881,1.8223469 9.5537044,1.6854683 9.6840225,1.5685262 9.8409838,1.5181465 9.9198491,1.4928332 11.088281,1.2519518 12.4375,0.98285456 c 2.588004,-0.516169 2.665293,-0.52705103 2.836334,-0.39934975 0.204715,0.15284119 0.209654,0.17274113 0.220103,0.88682949 l 0.0096,0.6534422 -0.472786,2.3677991 C 14.770679,5.7938653 14.550399,6.8910156 14.5412,6.9296875 14.525496,6.995705 14.50842,7 14.261642,7 14.00491,7 13.999201,6.99837 14.015678,6.929688 14.024978,6.891016 14.250223,5.7697889 14.516273,4.4380724 L 15,2.0167685 V 1.5083842 C 15,1.2287729 14.996235,1 14.991634,1 14.987032,1 13.858766,1.225 12.484375,1.5 11.109984,1.775 9.9817178,2 9.9771163,2 9.972515,2 9.96875,2.2283397 9.96875,2.5074215 v 0.5074216 l 0.445313,0.4461106 0.445312,0.4461107 -0.09375,0.078516 c -0.05156,0.043184 -0.166777,0.1266881 -0.256032,0.185566 -0.08926,0.058877 -0.215818,0.1548262 -0.28125,0.2132193 C 10.11416,4.4862653 8.8909113,5.4009213 8.4918294,5.6828038 8.385985,5.7575647 8.2370747,5.8735803 8.1609178,5.9406163 8.0847609,6.0076522 8.0123478,6.0625 8,6.0625 7.9876522,6.0625 7.9152391,6.0076522 7.8390822,5.9406162 7.7629253,5.8735803 7.614015,5.7575647 7.5081706,5.6828037 7.1090887,5.4009212 5.8858403,4.4862653 5.7716575,4.3843656 5.7062253,4.3259725 5.5796628,4.2300237 5.4904075,4.1711462 5.4011522,4.1122684 5.2859375,4.0287637 5.234375,3.9855803 L 5.140625,3.9070644 5.5859375,3.4609537 6.03125,3.0148431 V 2.5074215 C 6.03125,2.2283397 6.027485,2 6.0228837,2 6.0182822,2 4.8900156,1.775 3.515625,1.5 2.1412343,1.225 1.0129679,1 1.0083664,1 1.0037649,1 1,1.2287649 1,1.5083664 V 2.0167328 L 1.5,4.515625 C 1.775,5.8900156 2,7.0216878 2,7.0304519 2,7.0392159 2.3343359,6.7122684 2.7429687,6.3039016 L 3.4859375,5.5614169 3.8132812,5.8001116 c 0.1800391,0.1312825 0.3695313,0.2778846 0.4210938,0.3257831 0.051563,0.047898 0.1808506,0.1481512 0.2873072,0.222784 0.3765137,0.263961 1.5253187,1.1241985 1.5341309,1.1487738 0.00795,0.022168 -1.0597534,0.8304694 -1.5654487,1.1851187 C 4.3839453,8.7572041 4.2546875,8.8573606 4.203125,8.9051412 4.1515625,8.9529222 3.9703719,9.0937625 3.8004791,9.2181203 L 3.4915834,9.4442256 2.7457917,8.6989194 C 2.3356063,8.2890009 2,7.9607841 2,7.9695481 2,7.9783122 1.7720743,9.1102334 1.4934985,10.484929 l -0.50650153,2.499446 -0.0105388,0.522305 -0.0105388,0.522306 0.0873528,-0.02862 c 0.077742,-0.02547 4.6994775,-0.952678 4.87806,-0.978627 0.071852,-0.01044 0.071957,-0.01123 0.071957,-0.53748 V 11.95723 L 5.5746566,11.527775 5.1460234,11.09832 5.2502041,11.010658 c 0.057299,-0.04821 0.1637828,-0.125461 0.23663,-0.171659 0.072847,-0.0462 0.18647,-0.13219 0.2524953,-0.191092 C 5.8447237,10.553882 6.8577344,9.7995672 6.9609375,9.7382647 6.9911378,9.7203256 7,9.7864691 7,10.029808 v 0.314748 L 6.5703125,10.66092 c -0.2363281,0.174 -0.4753319,0.359333 -0.5311194,0.41185 l -0.1014319,0.09549 0.2811194,0.286662 c 0.1546156,0.157664 0.2826669,0.313166 0.2845581,0.345559 0.02254,0.386048 0.00874,1.32644 -0.02059,1.403135 C 6.4317716,13.337174 6.24187,13.493294 6.1022306,13.516522 6.03741,13.527304 4.8945312,13.754995 3.5625,14.022501 2.2304687,14.290006 1.0773437,14.513962 1,14.520179 c -0.0773438,0.0062 -0.18350966,-0.008 -0.23592428,-0.03155 z M 3.7761506,8.5848794 C 3.885065,8.4952269 4.0612363,8.3585938 4.1676425,8.28125 4.7556175,7.8538672 5.1885338,7.5189991 5.1807378,7.4976031 5.1712203,7.4714837 4.5058216,6.9681791 4.2201625,6.7710287 4.1248544,6.7052509 4.0046875,6.6124531 3.953125,6.5648119 3.8075666,6.4303225 3.5542291,6.2475172 3.5266084,6.2570425 3.5129203,6.2617628 3.222845,6.5433128 2.8819963,6.8827087 L 2.2622714,7.4997925 2.8889482,8.1246853 C 3.2336203,8.4683759 3.5296875,8.7491966 3.546875,8.7487306 3.5640625,8.748265 3.6672366,8.6745319 3.7761506,8.5848794 Z M 10.642188,6.9717712 c 0.05068,-0.048192 0.673124,-0.5122731 0.856032,-0.6382425 0.09551,-0.065778 0.215843,-0.1589993 0.267405,-0.207159 0.05156,-0.04816 0.241052,-0.1949738 0.421088,-0.3262538 l 0.327338,-0.2386906 0.712085,0.711475 0.712084,0.7114747 -0.350386,0.00889 -0.350387,0.00889 -0.382519,-0.3816003 -0.382518,-0.3816004 -0.121697,0.084336 c -0.06693,0.046385 -0.197835,0.1495481 -0.290892,0.2292519 -0.09306,0.079704 -0.240118,0.190465 -0.326801,0.2461362 -0.08668,0.055671 -0.176295,0.1237413 -0.199138,0.1512663 C 11.499392,6.9915116 11.417731,7 11.052424,7 10.789455,7 10.624442,6.9886453 10.642188,6.9717712 Z"
       id="path819"
       inkscape:connector-curvature="0" />
  </g>
</svg>
