<?xml version="1.0" encoding="UTF-8" standalone="no"?>
<!-- Created with Inkscape (http://www.inkscape.org/) -->

<svg
   version="1.1"
   id="svg2"
   width="1600"
   height="1600"
   viewBox="0 0 1600 1600"
   sodipodi:docname="screen_back.svg"
   inkscape:version="1.2.2 (732a01da63, 2022-12-09)"
   xmlns:inkscape="http://www.inkscape.org/namespaces/inkscape"
   xmlns:sodipodi="http://sodipodi.sourceforge.net/DTD/sodipodi-0.dtd"
   xmlns="http://www.w3.org/2000/svg"
   xmlns:svg="http://www.w3.org/2000/svg"
   xmlns:rdf="http://www.w3.org/1999/02/22-rdf-syntax-ns#"
   xmlns:cc="http://creativecommons.org/ns#"
   xmlns:dc="http://purl.org/dc/elements/1.1/">
  <metadata
     id="metadata8">
    <rdf:RDF>
      <cc:Work
         rdf:about="">
        <dc:format>image/svg+xml</dc:format>
        <dc:type
           rdf:resource="http://purl.org/dc/dcmitype/StillImage" />
      </cc:Work>
    </rdf:RDF>
  </metadata>
  <defs
     id="defs6" />
  <sodipodi:namedview
     pagecolor="#808080"
     bordercolor="#666666"
     borderopacity="1"
     objecttolerance="10"
     gridtolerance="10"
     guidetolerance="10"
     inkscape:pageopacity="0"
     inkscape:pageshadow="2"
     inkscape:window-width="1993"
     inkscape:window-height="1009"
     id="namedview4"
     showgrid="false"
     fit-margin-top="0"
     fit-margin-left="0"
     fit-margin-right="0"
     fit-margin-bottom="0"
     inkscape:zoom="0.5"
     inkscape:cx="57"
     inkscape:cy="22"
     inkscape:window-x="-8"
     inkscape:window-y="-8"
     inkscape:window-maximized="1"
     inkscape:current-layer="g817"
     inkscape:showpageshadow="0"
     inkscape:pagecheckerboard="true"
     inkscape:deskcolor="#d1d1d1" />
  <g
     id="g817"
     transform="matrix(2.0507812,0,0,2.0507812,100,100)"
     style="stroke-width:0.0114286">
    <path
       style="fill:none;stroke-width:0.0152381"
       d="M 0,341.33334 V 0 H 341.33334 682.66669 V 341.33334 682.66669 H 341.33334 0 Z m 640.00002,0 V 128 H 426.66668 213.33334 v 28.51134 28.51135 l -8.33333,0.58149 c -16.75428,1.16911 -15.10552,-0.21392 -93.91471,78.77814 -82.48422,82.67561 -77.751966,76.57196 -77.751966,100.28436 0,23.68475 -4.558962,17.78155 76.418286,98.95079 78.31868,78.50438 75.78417,76.41414 93.91505,77.45331 l 9.66667,0.55404 v 6.52093 6.52094 h 213.33334 213.33334 z"
       id="path825"
       inkscape:connector-curvature="0" />
    <path
       style="fill:#fefefe;stroke-width:0.0152381"
       d="m 213.33334,548.00002 v -6.66667 h 4.61665 c 8.75515,0 19.48339,-5.2228 28.51729,-13.88299 4.657,-4.46436 9.32241,-9.76701 10.36757,-11.78368 l 1.90031,-3.66666 h 169.29909 169.2991 V 341.33334 170.66667 H 426.66668 256.00001 v 17.5363 17.53629 l -7.67187,-7.31772 c -8.64432,-8.24528 -19.39153,-13.0882 -29.04481,-13.0882 h -5.94999 V 156.66667 128 H 426.66668 640.00002 V 341.33334 554.66669 H 426.66668 213.33334 Z m -16.66667,-30.56007 c -7.5031,-3.5192 -137.128673,-133.55583 -139.953291,-140.39711 -2.62463,-6.35691 -2.624648,-18.39535 -3.6e-5,-24.75232 2.825375,-6.84323 135.113397,-139.54286 142.619997,-143.06374 6.59981,-3.09557 18.90337,-3.33128 25.70949,-0.49253 6.55448,2.7338 13.36588,9.3413 16.42404,15.93242 3.05859,6.59206 3.29119,18.9174 0.48518,25.7095 -1.36428,3.30229 -15.0487,17.97675 -40.99152,43.95717 l -38.94358,39 136.65821,0.0293 c 130.2828,0.0279 136.907,0.14473 141.99152,2.50385 11.36504,5.27317 18.02027,16.04655 17.97072,29.09071 -0.0349,9.18668 -3.15721,16.64828 -9.47457,22.64192 -9.38647,8.90543 -0.3304,8.40085 -150.77789,8.40085 H 162.01755 l 37.60983,37.66667 c 24.9782,25.01595 38.29769,39.33159 39.65789,42.62384 2.80612,6.79198 2.57358,19.11735 -0.48506,25.7095 -3.05816,6.59112 -9.86956,13.19862 -16.42404,15.93242 -6.80607,2.83872 -19.10967,2.60304 -25.7095,-0.49249 z m 38,-79.43994 -20.6344,-20.66666 h 20.98387 20.98387 v 20.66666 c 0,11.36667 -0.15725,20.66667 -0.34947,20.66667 -0.1922,0 -9.63494,-9.3 -20.98387,-20.66667 z m 0,-146.66667 c 11.34893,-11.36666 20.79167,-20.66666 20.98387,-20.66666 0.19222,0 0.34947,9.3 0.34947,20.66666 v 20.66667 h -20.98387 -20.98387 z"
       id="path823"
       inkscape:connector-curvature="0" />
    <path
       style="fill:#98cbfe;stroke-width:0.0152381"
       d="m 260.72582,506.49904 c 1.19535,-3.38798 1.9287,-10.43 1.9092,-18.33333 -0.026,-10.55409 -0.61673,-14.25269 -3.32714,-20.83236 -3.02578,-7.3452 -3.29603,-9.71887 -3.3017,-29 l -0.006,-21 H 347.95 c 108.33706,0 100.70827,0.99056 116.87443,-15.17559 12.25715,-12.25715 15.17559,-19.46712 15.17559,-37.49108 0,-18.02396 -2.91844,-25.23394 -15.17559,-37.49108 C 448.65827,311.00945 456.28706,312.00001 347.95,312.00001 h -91.94999 v -20.16972 c 0,-20.06109 0.0233,-20.21711 4.33333,-28.97196 4.16168,-8.45357 4.33334,-9.43825 4.33334,-24.85832 0,-15.42007 -0.17166,-16.40475 -4.33334,-24.85832 -4.19538,-8.52204 -4.33333,-9.33823 -4.33333,-25.63863 V 170.66667 H 426.66668 597.33335 V 341.33334 512.00002 H 428.05916 258.78497 Z"
       id="path821"
       inkscape:connector-curvature="0" />
    <path
       style="fill:#323232;stroke-width:0.0152381"
       d="m 188.69707,537.9941 c -7.36565,-3.02771 -13.29885,-8.60451 -78.29328,-73.59026 -57.675799,-57.66811 -70.864761,-71.52136 -73.332142,-77.02573 -2.350159,-5.24286 -3.111871,-9.77487 -3.48105,-20.71143 -0.857225,-25.39451 -6.033705,-18.56213 77.494702,-102.28436 59.42469,-59.56259 73.30185,-72.81541 78.8492,-75.30174 5.26547,-2.36 9.78228,-3.12035 20.73217,-3.48997 19.53162,-0.65932 26.57368,2.00092 39.49109,14.91832 12.25714,12.25714 15.17558,19.46712 15.17558,37.49108 0,21.09461 -1.50016,23.78337 -28.45493,51 l -22.77871,23 h 112.90014 c 132.37604,0 121.44546,-1.20355 137.82459,15.17559 12.25715,12.25714 15.17559,19.46712 15.17559,37.49108 0,18.02396 -2.91844,25.23393 -15.17559,37.49108 -16.37912,16.37911 -5.44897,15.17559 -137.82174,15.17559 H 214.10541 l 21.44076,21.66667 c 25.46391,25.7322 27.12051,28.76598 27.12051,49.66666 0,18.02396 -2.91844,25.23394 -15.17559,37.49108 -12.3567,12.3567 -19.44016,15.18899 -37.87443,15.14394 -10.6536,-0.026 -14.36321,-0.61256 -20.91959,-3.3076 z m 33.6791,-20.06166 c 6.55448,-2.7338 13.36588,-9.3413 16.42404,-15.93242 3.05864,-6.59215 3.29118,-18.91752 0.48506,-25.7095 -1.3602,-3.29225 -14.67969,-17.60789 -39.65789,-42.62384 l -37.60983,-37.66667 h 136.36739 c 150.44749,0 141.39142,0.50458 150.77789,-8.4009 6.31736,-5.99364 9.43968,-13.45524 9.47457,-22.64192 0.0496,-13.04416 -6.60568,-23.81754 -17.97072,-29.09071 -5.08452,-2.35912 -11.70872,-2.47594 -141.99152,-2.50386 l -136.65821,-0.0293 38.94358,-39 c 25.94282,-25.98042 39.62724,-40.65488 40.99152,-43.95717 2.80601,-6.7921 2.57341,-19.11744 -0.48518,-25.7095 -3.05816,-6.59112 -9.86956,-13.19862 -16.42404,-15.93242 -6.80612,-2.83875 -19.10968,-2.60304 -25.70949,0.49253 -7.5066,3.52088 -139.794622,136.22051 -142.619997,143.06374 -2.624612,6.35697 -2.624594,18.39541 3.6e-5,24.75232 2.824618,6.84128 132.450191,136.87791 139.953291,140.39711 6.59983,3.09553 18.90343,3.33121 25.7095,0.49249 z"
       id="path819"
       inkscape:connector-curvature="0" />
  </g>
</svg>
