<?xml version="1.0" encoding="UTF-8" standalone="no"?>
<!-- Created with Inkscape (http://www.inkscape.org/) -->

<svg
   version="1.1"
   id="svg2"
   width="1600"
   height="1600"
   viewBox="0 0 1600 1600"
   sodipodi:docname="script.svg"
   inkscape:version="1.2.2 (732a01da63, 2022-12-09)"
   xmlns:inkscape="http://www.inkscape.org/namespaces/inkscape"
   xmlns:sodipodi="http://sodipodi.sourceforge.net/DTD/sodipodi-0.dtd"
   xmlns="http://www.w3.org/2000/svg"
   xmlns:svg="http://www.w3.org/2000/svg"
   xmlns:rdf="http://www.w3.org/1999/02/22-rdf-syntax-ns#"
   xmlns:cc="http://creativecommons.org/ns#"
   xmlns:dc="http://purl.org/dc/elements/1.1/">
  <metadata
     id="metadata8">
    <rdf:RDF>
      <cc:Work
         rdf:about="">
        <dc:format>image/svg+xml</dc:format>
        <dc:type
           rdf:resource="http://purl.org/dc/dcmitype/StillImage" />
      </cc:Work>
    </rdf:RDF>
  </metadata>
  <defs
     id="defs6" />
  <sodipodi:namedview
     pagecolor="#808080"
     bordercolor="#666666"
     borderopacity="1"
     objecttolerance="10"
     gridtolerance="10"
     guidetolerance="10"
     inkscape:pageopacity="0"
     inkscape:pageshadow="2"
     inkscape:window-width="1993"
     inkscape:window-height="1009"
     id="namedview4"
     showgrid="false"
     inkscape:zoom="0.5"
     inkscape:cx="9"
     inkscape:cy="8"
     inkscape:window-x="-8"
     inkscape:window-y="-8"
     inkscape:window-maximized="1"
     inkscape:current-layer="SCRIPT"
     inkscape:showpageshadow="0"
     inkscape:pagecheckerboard="true"
     inkscape:deskcolor="#d1d1d1" />
  <g
     id="SCRIPT"
     transform="matrix(100,0,0,100,0,4.9999997e-5)"
     style="stroke-width:0.0114286">
    <path
       style="fill:none;stroke-width:0.000357143"
       d="M 0,8 V 0 h 8 8 v 8 8 H 15.5 15 V 12.753478 9.5069556 l 0.110043,-0.020644 c 0.145901,-0.027371 0.318603,-0.1832779 0.360175,-0.3251472 0.02191,-0.074779 0.03015,-0.4997316 0.02382,-1.2292335 -0.0093,-1.0693925 -0.0123,-1.1184681 -0.0741,-1.201194 C 15.384507,6.6832994 15.316713,6.6154928 15.269289,6.5800559 15.18788,6.5192228 15.130555,6.5147525 14.242739,6.5 L 13.302413,6.484375 13.202888,6.1875 C 13.148148,6.0242187 13.042482,5.7596262 12.968073,5.5995169 L 12.832784,5.3084087 13.461769,4.6776419 C 13.80771,4.33072 14.10549,4.0072878 14.123502,3.9589031 c 0.04536,-0.1218572 0.04092,-0.28587 -0.01098,-0.4052194 -0.05592,-0.1285943 -1.567878,-1.6336756 -1.68487,-1.6772031 -0.1124,-0.041819 -0.274189,-0.041812 -0.386556,1.77e-5 -0.04839,0.018012 -0.371817,0.3157914 -0.718739,0.6617329 L 10.691591,3.1672156 10.400483,3.0319268 C 10.240374,2.957518 9.9757813,2.8518515 9.8125,2.7971123 L 9.515625,2.6975866 9.5,1.7572608 C 9.4852475,0.869445 9.4807772,0.81212012 9.4199441,0.73071094 9.3845072,0.68328766 9.3166791,0.61549288 9.269215,0.58005591 9.1856103,0.51763597 9.1459963,0.515625 8,0.515625 6.8540038,0.515625 6.8143897,0.517636 6.730785,0.5800559 6.6833209,0.61549288 6.6154928,0.68328766 6.5800559,0.73071094 6.5192228,0.81212013 6.5147525,0.869445 6.5,1.7572608 L 6.484375,2.6975866 6.1875,2.7971123 C 6.0242187,2.8518515 5.7596262,2.957518 5.5995169,3.0319268 L 5.3084087,3.1672156 4.6776419,2.5382312 C 4.33072,2.1922897 4.0072878,1.8945099 3.9589031,1.8764983 3.8370459,1.8311358 3.6730331,1.8355792 3.5536837,1.8874765 3.4250894,1.9433938 1.9200081,3.4553553 1.8764806,3.5723469 c -0.041819,0.1124003 -0.041812,0.274189 1.77e-5,0.3865562 0.018012,0.048385 0.3157914,0.3718169 0.6617329,0.7187388 L 3.1672156,5.3084087 3.0319268,5.5995169 C 2.957518,5.7596262 2.8518515,6.0242187 2.7971123,6.1875 L 2.6975866,6.484375 1.7572608,6.5 C 0.869445,6.5147525 0.81212012,6.5192228 0.73071094,6.5800559 0.68328766,6.6154928 0.61549287,6.6833209 0.58005591,6.730785 0.51763597,6.8143897 0.515625,6.8540038 0.515625,8 c 0,1.1459963 0.002011,1.1856103 0.0644309,1.269215 0.035437,0.047464 0.10323175,0.1152922 0.15065503,0.1507291 C 0.81212013,9.4807772 0.869445,9.4852475 1.7572608,9.5 L 2.6975866,9.515625 2.7971123,9.8125 c 0.054739,0.1632812 0.1604057,0.427874 0.2348145,0.587983 l 0.1352888,0.291108 -0.6289844,0.630767 c -0.3459415,0.346922 -0.6437213,0.670354 -0.6617329,0.718739 -0.045362,0.121857 -0.040919,0.28587 0.010978,0.405219 0.055917,0.128595 1.5678788,1.633676 1.6848704,1.677203 0.1124003,0.04182 0.274189,0.04181 0.3865562,-1.7e-5 0.048385,-0.01801 0.3718169,-0.315792 0.7187388,-0.661733 l 0.6307668,-0.628985 0.2911082,0.135289 c 0.1601093,0.07441 0.4247018,0.180075 0.5879831,0.234815 L 6.484375,13.302413 6.5,14.237144 c 0.010961,0.655723 0.027074,0.954713 0.053983,1.001673 0.062699,0.109421 0.2215506,0.226029 0.3375619,0.247792 L 7,15.506956 V 15.753478 16 H 3.5 0 Z m 6.6382166,2.066191 C 6.1983634,9.7764188 5.8867362,9.3931619 5.6885669,8.8982572 5.5945963,8.6635769 5.5,8.2129578 5.5,8 5.5,7.7854456 5.5948887,7.3356925 5.6905691,7.0967425 5.8097034,6.7992187 6.073265,6.4006947 6.2768137,6.2102984 6.6348253,5.8754209 7.1229656,5.6325716 7.6081431,5.5479637 c 0.3432781,-0.059863 0.4404356,-0.059863 0.7837138,0 0.4859072,0.084735 0.9732953,0.327436 1.3327394,0.6636538 C 9.8832584,6.3600275 10.25,6.8814444 10.25,6.9586134 10.25,6.9924316 9.9528372,7 8.625,7 H 7 V 8.625 C 7,9.9528372 6.99243,10.25 6.958613,10.25 6.93585,10.25 6.7916718,10.16729 6.6382166,10.066191 Z"
       id="path827"
       inkscape:connector-curvature="0" />
    <path
       style="fill:#fefefe;stroke-width:0.000357143"
       d="m 7.5,11.5 v -4 h 3.5 3.5 v 4 4 H 11 7.5 Z m 5.5,2 V 13 H 11 9 v 0.5 0.5 h 2 2 z m 0,-2 V 11 H 11 9 v 0.5 0.5 h 2 2 z m 0,-2 V 9 H 11 9 V 9.5 10 h 2 2 z m -9.5861772,3.085719 -0.3511787,-0.352177 0.5270943,-0.52641 0.5270941,-0.526411 0.3513362,0.351336 0.351336,0.351337 -0.5272516,0.527251 -0.5272515,0.527252 z M 6.640625,12.26906 C 6.2374656,12.135073 6.0264978,12.039076 5.6945175,11.838551 5.0579622,11.454053 4.5459466,10.942038 4.1614491,10.305483 3.3955541,9.0375044 3.3061528,7.5143219 3.9173191,6.1461016 4.166405,5.5884722 4.6636606,4.9366356 5.1199516,4.5696088 6.0041044,3.8584222 6.9357853,3.5183434 8,3.5183434 c 1.0642147,0 1.9958956,0.3400788 2.880048,1.0512654 0.464106,0.3733128 0.949126,1.0125765 1.210859,1.595929 C 12.168545,6.3385797 12.375,6.9339119 12.375,6.9847487 12.375,6.9931369 12.149559,7 11.874019,7 11.424813,7 11.371117,6.9943481 11.354441,6.9453125 11.147307,6.3362231 10.929661,5.9871262 10.471268,5.5287325 10.073227,5.1306922 9.7968647,4.9395888 9.3641747,4.7631828 8.837035,4.54827 8.6768728,4.5196816 8,4.5196816 7.3231272,4.5196816 7.162965,4.54827 6.6358253,4.7631828 6.2031353,4.9395888 5.9267731,5.1306922 5.5287325,5.5287325 5.1306922,5.9267731 4.9395888,6.2031353 4.7631828,6.6358253 4.54827,7.162965 4.5196816,7.3231272 4.5196816,8 c 0,0.6768728 0.028588,0.837035 0.2435012,1.3641747 0.176406,0.43269 0.3675094,0.7090523 0.7655497,1.1070933 0.4583937,0.458393 0.8074906,0.676039 1.41658,0.883173 C 6.9943481,11.371117 7,11.424813 7,11.874019 7,12.149559 6.9894531,12.374531 6.9765625,12.373958 6.9636719,12.373386 6.8125,12.326181 6.640625,12.26906 Z M 1.5,8 V 7.5 H 2.2578125 3.015625 V 8 8.5 H 2.2578125 1.5 Z M 3.5855053,4.28864 3.0623252,3.76478 3.4143919,3.4137119 3.7664584,3.0626441 4.2928684,3.5897384 4.8192788,4.1168325 4.471445,4.4646663 C 4.2801362,4.6559747 4.1202528,4.8125 4.1161484,4.8125 c -0.0041,0 -0.242894,-0.2357372 -0.5306431,-0.52386 z m 7.9345267,0.1731853 -0.339343,-0.34496 0.526426,-0.5271106 0.526427,-0.5271106 0.352066,0.3510678 0.352067,0.3510681 -0.52318,0.52386 c -0.287749,0.2881228 -0.530367,0.5225744 -0.53915,0.5210028 -0.0088,-0.00157 -0.168674,-0.1580894 -0.355313,-0.3478175 z M 7.5,2.2578125 V 1.5 H 8 8.5 V 2.2578125 3.015625 H 8 7.5 Z"
       id="path825"
       inkscape:connector-curvature="0" />
    <path
       style="fill:#cbcbcb;stroke-width:0.000357143"
       d="M 3.0546017,12.945398 2.3439033,12.2347 3.0828718,11.49525 3.8218403,10.7558 3.6784659,10.510713 C 3.4465584,10.114285 3.2088238,9.5182194 3.1320203,9.140625 L 3.1065949,9.015625 2.0532975,9.0073969 1,8.9991688 V 8 7.0008312 l 1.0532975,-0.00823 1.0532974,-0.00823 0.025425,-0.125 C 3.2088238,6.4817806 3.4465584,5.885715 3.6784659,5.4892875 L 3.8218403,5.2442 3.0828718,4.50475 2.3439033,3.7653 3.0546017,3.0546017 3.7653,2.3439033 4.50475,3.0828718 5.2442,3.8218403 5.4892875,3.6784659 C 5.885715,3.4465584 6.4817806,3.2088238 6.859375,3.1320203 l 0.125,-0.025425 L 6.992605,2.0532979 7.0008312,1 H 8 8.9991688 l 0.00823,1.0532975 0.00823,1.0532974 0.125,0.025425 C 9.5182232,3.2088229 10.114289,3.446558 10.510717,3.6784655 L 10.7558,3.8218403 11.49525,3.0828718 12.2347,2.3439033 12.945398,3.0546017 13.656097,3.7653 12.917128,4.50475 12.17816,5.2442 12.321534,5.4892875 c 0.232084,0.3967288 0.460028,0.9686772 0.549149,1.3779 L 12.899607,7 H 12.641485 12.383363 L 12.284718,6.6888231 C 11.837528,5.2781509 10.805127,4.2222972 9.4069884,3.7457213 8.3578531,3.3881078 7.1937031,3.4493691 6.1461016,3.9173191 5.8533653,4.0480809 5.4478709,4.30584 5.1199516,4.5696087 4.7791781,4.8437169 4.4225341,5.2622781 4.1614491,5.6945175 3.3955541,6.9624956 3.3061528,8.4856781 3.9173191,9.8538984 4.166405,10.411528 4.6636606,11.063364 5.1199516,11.430391 c 0.5207046,0.41884 0.9743012,0.665845 1.5688715,0.854327 L 7,12.383363 v 0.258122 0.258122 l -0.1328125,-0.02892 c -0.4092228,-0.08912 -0.9811713,-0.317065 -1.3779,-0.549149 L 5.2442,12.17816 4.50475,12.917128 3.7653,13.656097 Z m 1.413567,-1.41334 -0.3513362,-0.351337 -0.5270941,0.526411 -0.5270943,0.52641 0.3511787,0.352177 0.3511788,0.352178 0.5272515,-0.527252 0.5272516,-0.527251 z M 3.015625,8 V 7.5 H 2.2578125 1.5 V 8 8.5 H 2.2578125 3.015625 Z M 4.471445,4.4646663 4.8192788,4.1168325 4.2928684,3.5897384 3.7664584,3.0626441 3.4143919,3.4137119 3.0623252,3.76478 3.5855053,4.28864 c 0.2877491,0.2881228 0.5265384,0.52386 0.5306431,0.52386 0.0041,0 0.1639878,-0.1565253 0.3552966,-0.3478337 z m 7.94305,-0.1760263 0.52318,-0.52386 -0.352067,-0.3510681 -0.352066,-0.3510678 -0.526427,0.5271106 -0.526426,0.5271106 0.339343,0.34496 c 0.186639,0.1897281 0.346529,0.346246 0.355313,0.3478175 0.0088,0.00157 0.251401,-0.23288 0.53915,-0.5210028 z M 8.5,2.2578125 V 1.5 H 8 7.5 V 2.2578125 3.015625 H 8 8.5 Z M 6.828125,11.314053 C 6.2864812,11.118607 5.9074659,10.870293 5.4830728,10.432837 5.0246025,9.9602538 4.7682084,9.5083544 4.5873281,8.8540678 4.5286444,8.6417956 4.5196816,8.5286363 4.5196816,8 4.5196816,7.3231272 4.54827,7.162965 4.7631828,6.6358253 4.9395888,6.2031353 5.1306922,5.9267731 5.5287325,5.5287325 5.9267731,5.1306922 6.2031353,4.9395888 6.6358253,4.7631828 7.162965,4.54827 7.3231272,4.5196816 8,4.5196816 c 0.5286363,0 0.6417956,0.00896 0.8540678,0.067646 0.6542866,0.1808803 1.106186,0.4372744 1.5787692,0.8957447 0.441352,0.4281722 0.695878,0.818705 0.881718,1.3528647 L 11.371634,7 H 11.099338 10.827043 L 10.750917,6.8083425 C 10.490523,6.1527663 9.8207559,5.5006303 9.1207128,5.2210513 8.70876,5.0565278 8.49888,5.0186175 8,5.0186175 c -0.3236566,0 -0.5144022,0.015303 -0.6675878,0.053559 C 6.2187291,5.3503037 5.3912169,6.162639 5.0867269,7.2766743 4.9991529,7.5970818 4.9911819,8.3458318 5.0719209,8.6675877 5.1506399,8.9812987 5.2964059,9.327283 5.4620587,9.5936068 5.757554,10.068681 6.3303137,10.561044 6.8083428,10.750917 L 7,10.827043 v 0.273979 c 0,0.150688 -0.00352,0.272951 -0.00781,0.271695 -0.0043,-0.0013 -0.078125,-0.02765 -0.1640625,-0.05866 z"
       id="path823"
       inkscape:connector-curvature="0" />
    <path
       style="fill:#323232;stroke-width:0.000357143"
       d="M 7,11.5 V 7 h 4 4 V 11.5 16 H 11 7 Z m 7.5,0 v -4 H 11 7.5 v 4 4 H 11 14.5 Z M 9,13.5 V 13 h 2 2 V 13.5 14 H 11 9 Z m 0,-2 V 11 h 2 2 V 11.5 12 H 11 9 Z m 0,-2 V 9 h 2 2 V 9.5 10 H 11 9 Z"
       id="path821"
       inkscape:connector-curvature="0" />
    <path
       style="fill:#000000;stroke-width:0.000357143"
       d="M 6.8125159,15.464892 C 6.7220806,15.428831 6.6039225,15.324352 6.5518181,15.234375 6.5276369,15.192618 6.5104394,14.861653 6.5,14.237144 L 6.484375,13.302413 6.1875,13.202888 C 6.0242187,13.148148 5.7596262,13.042482 5.5995169,12.968073 L 5.3084087,12.832784 4.6776419,13.461769 C 4.33072,13.80771 4.0072878,14.10549 3.9589031,14.123502 c -0.1123672,0.04183 -0.2741559,0.04184 -0.3865562,1.7e-5 -0.1169916,-0.04353 -1.6289531,-1.548608 -1.6848704,-1.677203 -0.051897,-0.119349 -0.056341,-0.283362 -0.010978,-0.405219 0.018012,-0.04839 0.3157914,-0.371817 0.6617329,-0.718739 L 3.1672156,10.691591 3.0319268,10.400483 C 2.957518,10.240374 2.8518515,9.9757813 2.7971123,9.8125 L 2.6975866,9.515625 1.7572608,9.5 C 0.869445,9.4852475 0.81212012,9.4807772 0.73071094,9.4199441 0.68328766,9.3845072 0.61549288,9.3166791 0.58005591,9.269215 0.51763597,9.1856103 0.515625,9.1459963 0.515625,8 0.515625,6.8540038 0.517636,6.8143897 0.5800559,6.730785 0.61549288,6.6833209 0.68328766,6.6154928 0.73071094,6.5800559 0.81212013,6.5192228 0.869445,6.5147525 1.7572608,6.5 L 2.6975866,6.484375 2.7971123,6.1875 C 2.8518515,6.0242187 2.957518,5.7596262 3.0319268,5.5995169 L 3.1672156,5.3084087 2.5382312,4.6776419 C 2.1922897,4.33072 1.8945099,4.0072878 1.8764983,3.9589031 1.8346686,3.8465359 1.8346612,3.6847472 1.8764806,3.5723469 1.9200081,3.4553553 3.4250894,1.9433938 3.5536837,1.8874765 3.6730331,1.8355792 3.8370459,1.8311358 3.9589031,1.8764983 4.0072878,1.8945099 4.33072,2.1922897 4.6776419,2.5382312 L 5.3084087,3.1672156 5.5995169,3.0319268 C 5.7596262,2.957518 6.0242187,2.8518515 6.1875,2.7971123 L 6.484375,2.6975866 6.5,1.7572608 C 6.5147525,0.869445 6.5192228,0.81212012 6.5800559,0.73071094 6.6154928,0.68328766 6.6833209,0.61549287 6.730785,0.58005591 6.8143897,0.51763597 6.8540038,0.515625 8,0.515625 c 1.1459963,0 1.1856103,0.002011 1.269215,0.0644309 0.047464,0.035437 0.1152922,0.10323175 0.1507291,0.15065503 C 9.4807772,0.81212013 9.4852475,0.869445 9.5,1.7572608 L 9.515625,2.6975866 9.8125,2.7971123 c 0.1632812,0.054739 0.427874,0.1604057 0.587983,0.2348145 l 0.291108,0.1352888 0.630767,-0.6289844 c 0.346922,-0.3459415 0.670354,-0.6437213 0.718739,-0.6617329 0.121857,-0.045362 0.28587,-0.040919 0.405219,0.010978 0.128595,0.055917 1.633676,1.5678788 1.677203,1.6848704 0.04182,0.1124003 0.04181,0.274189 -1.7e-5,0.3865562 -0.01801,0.048385 -0.315792,0.3718169 -0.661733,0.7187388 l -0.628985,0.6307668 0.135289,0.2911082 c 0.07441,0.1601093 0.180075,0.4247018 0.234815,0.5879831 L 13.302413,6.484375 14.242739,6.5 c 0.887816,0.014753 0.945141,0.019223 1.02655,0.080056 0.04742,0.035437 0.115218,0.103265 0.150655,0.1507291 0.06242,0.083605 0.06443,0.1232188 0.06443,1.269215 0,1.1459963 -0.002,1.1856103 -0.06443,1.269215 -0.08975,0.1202094 -0.199135,0.1953497 -0.318382,0.2187053 L 15,9.5078125 V 8.2543219 7.0008313 l -1.053297,-0.00823 -1.053298,-0.00823 -0.02543,-0.125 C 12.791176,6.4817806 12.553442,5.885715 12.321534,5.4892875 L 12.17816,5.2442 12.917128,4.50475 13.656097,3.7653 12.945398,3.0546017 12.2347,2.3439033 11.49525,3.0828718 10.7558,3.8218403 10.510713,3.6784659 C 10.114285,3.4465584 9.5182194,3.2088238 9.140625,3.1320203 L 9.015625,3.1065949 9.0073969,2.0532975 8.9991688,1 H 8 7.0008312 l -0.00823,1.0532975 -0.00823,1.0532974 -0.125,0.025425 C 6.4817806,3.2088238 5.885715,3.4465584 5.4892875,3.6784659 L 5.2442,3.8218403 4.50475,3.0828718 3.7653,2.3439033 3.0546017,3.0546017 2.3439033,3.7653 3.0828718,4.50475 3.8218403,5.2442 3.6784659,5.4892875 C 3.4465584,5.885715 3.2088238,6.4817806 3.1320203,6.859375 l -0.025425,0.125 L 2.0532979,6.992605 1,7.0008312 V 8 8.9991688 l 1.0532975,0.00823 1.0532974,0.00823 0.025425,0.125 C 3.2088229,9.5182232 3.446558,10.114289 3.6784655,10.510717 L 3.8218403,10.7558 3.0828718,11.49525 2.3439033,12.2347 3.0546017,12.945398 3.7653,13.656097 4.50475,12.917128 5.2442,12.17816 5.4892875,12.321534 c 0.3964219,0.231904 0.9924628,0.46963 1.3700875,0.546449 l 0.125,0.02543 0.00816,1.303294 c 0.00901,1.439106 0.021841,1.348678 -0.1800144,1.268187 z M 6.6839731,10.69251 C 5.8739391,10.289342 5.2970269,9.5646747 5.0719206,8.6675878 4.9911822,8.3458319 4.9991528,7.5970819 5.0867269,7.2766744 5.3912169,6.1626391 6.2187291,5.3503038 7.3324122,5.0721766 c 0.2972056,-0.074223 1.03797,-0.074223 1.3351756,0 C 9.4137463,5.2585194 10.080591,5.7190622 10.483778,6.3264903 10.63498,6.5542875 10.8125,6.9032266 10.8125,6.9726384 10.8125,6.9876872 10.685938,7 10.53125,7 10.31866,7 10.25,6.9898966 10.25,6.9586134 10.25,6.8814444 9.8832584,6.3600275 9.7245962,6.2116175 9.3651522,5.8753997 8.8777641,5.6326988 8.3918569,5.5479637 c -0.3432782,-0.059863 -0.4404357,-0.059863 -0.7837138,0 C 6.9208369,5.6678197 6.3245103,6.0498687 5.952825,6.6084772 5.7434078,6.9232119 5.6099337,7.2527803 5.5479637,7.6081431 c -0.059863,0.3432781 -0.059863,0.4404356 0,0.7837138 0.084735,0.4859072 0.327436,0.9732953 0.6636538,1.3327394 C 6.3600275,9.8832584 6.8814444,10.25 6.9586134,10.25 6.9898966,10.25 7,10.31866 7,10.53125 7,10.735838 6.989352,10.812284 6.960937,10.811709 6.939453,10.811275 6.8148186,10.757639 6.6839731,10.69251 Z"
       id="path819"
       inkscape:connector-curvature="0" />
  </g>
</svg>
