<?xml version="1.0" encoding="UTF-8" standalone="no"?>
<!-- Created with Inkscape (http://www.inkscape.org/) -->

<svg
   version="1.1"
   id="svg2"
   width="1600"
   height="1600"
   viewBox="0 0 1600 1600"
   sodipodi:docname="seamsfromisland.svg"
   inkscape:version="1.2.2 (732a01da63, 2022-12-09)"
   xmlns:inkscape="http://www.inkscape.org/namespaces/inkscape"
   xmlns:sodipodi="http://sodipodi.sourceforge.net/DTD/sodipodi-0.dtd"
   xmlns="http://www.w3.org/2000/svg"
   xmlns:svg="http://www.w3.org/2000/svg"
   xmlns:rdf="http://www.w3.org/1999/02/22-rdf-syntax-ns#"
   xmlns:cc="http://creativecommons.org/ns#"
   xmlns:dc="http://purl.org/dc/elements/1.1/">
  <metadata
     id="metadata8">
    <rdf:RDF>
      <cc:Work
         rdf:about="">
        <dc:format>image/svg+xml</dc:format>
        <dc:type
           rdf:resource="http://purl.org/dc/dcmitype/StillImage" />
      </cc:Work>
    </rdf:RDF>
  </metadata>
  <defs
     id="defs6" />
  <sodipodi:namedview
     pagecolor="#808080"
     bordercolor="#666666"
     borderopacity="1"
     objecttolerance="10"
     gridtolerance="10"
     guidetolerance="10"
     inkscape:pageopacity="0"
     inkscape:pageshadow="2"
     inkscape:window-width="1993"
     inkscape:window-height="1009"
     id="namedview4"
     showgrid="false"
     inkscape:zoom="0.5"
     inkscape:cx="9"
     inkscape:cy="8"
     inkscape:window-x="-8"
     inkscape:window-y="-8"
     inkscape:window-maximized="1"
     inkscape:current-layer="SEAMSFROMISLAND"
     inkscape:showpageshadow="0"
     inkscape:pagecheckerboard="true"
     inkscape:deskcolor="#d1d1d1" />
  <g
     id="SEAMSFROMISLAND"
     transform="matrix(100,0,0,100,0,4.9999997e-5)"
     style="stroke-width:0.0114286">
    <path
       style="fill:none;stroke-width:0.000357143"
       d="M 0,8 V 0 h 8 8 v 8 8 l -2.460937,-10e-4 -2.460938,-0.001 0.185041,-0.06363 c 0.412704,-0.141929 0.481182,-0.22529 1.088335,-1.324896 0.08541,-0.154688 0.231108,-0.411328 0.323771,-0.570313 0.391173,-0.671146 0.509594,-0.877254 0.605978,-1.054687 0.05602,-0.103125 0.177374,-0.317578 0.269677,-0.476562 0.0923,-0.158985 0.243344,-0.419141 0.335646,-0.578125 0.0923,-0.158985 0.213658,-0.373438 0.269677,-0.476563 0.05602,-0.103125 0.177374,-0.317578 0.269677,-0.476562 0.0923,-0.158985 0.243344,-0.419141 0.335646,-0.578125 C 14.853876,10.239453 14.975231,10.025 15.03125,9.921875 15.135568,9.7298378 15.337744,9.3788903 15.638841,8.8671875 15.881,8.4556459 15.942973,8.2974991 15.960294,8.046875 15.983732,7.7077391 15.93594,7.6020119 15.140989,6.234375 15.051076,6.0796875 14.921465,5.8546875 14.852966,5.734375 14.784467,5.6140625 14.650965,5.3820312 14.556295,5.21875 14.461625,5.0554687 14.33074,4.8234375 14.26544,4.703125 14.200139,4.5828125 14.080602,4.371875 13.9998,4.234375 13.704203,3.7313538 13.504894,3.3832816 13.328777,3.0625 13.229695,2.8820312 13.124575,2.6992188 13.095177,2.65625 13.065778,2.6132813 12.97395,2.4515625 12.891113,2.296875 12.808276,2.1421875 12.674162,1.903125 12.593081,1.765625 12.512001,1.628125 12.362967,1.3710189 12.261894,1.1942781 11.880024,0.52652269 11.768732,0.36401553 11.612583,0.24616498 11.31022,0.01796133 11.505901,0.02911317 7.9683284,0.03847872 L 4.796875,0.046875 4.6100566,0.13845543 C 4.2812187,0.29965516 4.179245,0.43250219 3.6488881,1.390625 3.5632628,1.5453125 3.4152634,1.8054687 3.3200009,1.96875 2.9577333,2.5896821 2.8173673,2.8340819 2.71875,3.015625 2.6627308,3.11875 2.5392493,3.3367188 2.4443467,3.5 2.0277688,4.2167281 1.9397491,4.3701516 1.84375,4.546875 1.7877308,4.65 1.6663763,4.8644531 1.5740734,5.0234375 1.4817705,5.1824219 1.3307295,5.4425781 1.2384266,5.6015625 1.1461237,5.7605469 1.0247692,5.975 0.96875,6.078125 0.86443212,6.2701622 0.66225628,6.6211097 0.36115947,7.1328125 0.11899956,7.5443541 0.05702712,7.7025009 0.0397064,7.953125 c -0.02343781,0.3391359 0.02435401,0.4448631 0.81930435,1.8125 0.0899134,0.1546875 0.21952385,0.379687 0.28802325,0.5 0.068499,0.120313 0.2020014,0.352344 0.2966711,0.515625 0.09467,0.163281 0.2255545,0.395312 0.290855,0.515625 0.065301,0.120313 0.1848383,0.33125 0.2656395,0.46875 0.2955977,0.503021 0.4949061,0.851093 0.6710235,1.171875 0.099082,0.180469 0.2042022,0.363281 0.2336003,0.40625 0.029398,0.04297 0.1212269,0.204688 0.204064,0.359375 0.082837,0.154688 0.2167701,0.39375 0.2976289,0.53125 0.2398293,0.407828 0.4850928,0.832 0.5875806,1.016193 0.2197022,0.394852 0.4078665,0.571257 0.7349297,0.689001 0.1600865,0.05763 0.1387222,0.05819 -2.2837141,0.0593 L 0,16 Z"
       id="path823"
       inkscape:connector-curvature="0" />
    <path
       style="fill:#fecb98;stroke-width:0.000357143"
       d="M 5.0173203,14.955888 C 4.9934975,14.937181 4.9114775,14.809375 4.8350534,14.671875 4.6855925,14.402968 4.4872728,14.057233 4.3241762,13.78125 4.2683116,13.686719 4.1422512,13.461719 4.0440425,13.28125 3.9458334,13.100781 3.8412125,12.917969 3.8115516,12.875 3.7818903,12.832031 3.676555,12.649219 3.5774731,12.46875 3.4013556,12.147968 3.2020475,11.799896 2.9064496,11.296875 2.8256484,11.159375 2.7061107,10.948438 2.6408101,10.828125 2.5755096,10.707812 2.4446248,10.475781 2.3499551,10.3125 2.2552854,10.149219 2.1217834,9.9171875 2.053284,9.796875 1.9847846,9.6765625 1.8551179,9.4515625 1.7651358,9.296875 1.6751537,9.1421875 1.4738252,8.7913391 1.3177391,8.5172116 L 1.0339461,8.0187981 1.1185355,7.8705475 C 1.1650597,7.78901 1.2723835,7.5984522 1.3570328,7.4470859 1.4416821,7.29572 1.5551552,7.1015625 1.6091953,7.015625 1.6632354,6.9296875 1.7882034,6.7117187 1.886902,6.53125 1.9856006,6.3507812 2.1120616,6.1257812 2.1679264,6.03125 2.3467903,5.7285866 2.5357379,5.3982659 2.6952507,5.109375 2.7806622,4.9546875 2.9263594,4.6980469 3.0190222,4.5390625 3.4101947,3.8679163 3.5286156,3.6618075 3.625,3.484375 3.7213844,3.3069425 3.8398053,3.1008338 4.2309778,2.4296875 4.3236406,2.2707031 4.4695016,2.0140625 4.5551131,1.859375 4.8261997,1.3695627 4.9970206,1.083655 5.0312047,1.0625281 5.0494197,1.0512706 6.4012084,1.0431433 8.0351803,1.0444675 l 2.9708577,0.00241 0.148915,0.265625 c 0.166381,0.296778 0.368009,0.6475867 0.520871,0.90625 0.05586,0.094531 0.181925,0.3195312 0.280134,0.5 0.09821,0.1804688 0.20283,0.3632813 0.23249,0.40625 0.02966,0.042969 0.134997,0.2257812 0.234079,0.40625 0.176117,0.3207816 0.375425,0.6688537 0.671023,1.171875 0.0808,0.1375 0.200339,0.3484375 0.26564,0.46875 0.0653,0.1203125 0.196185,0.3523437 0.290855,0.515625 0.09467,0.1632812 0.228172,0.3953125 0.296671,0.515625 0.0685,0.1203125 0.198166,0.3453125 0.288148,0.5 0.08998,0.1546875 0.291311,0.5055359 0.447397,0.7796634 l 0.283793,0.4984135 -0.08459,0.1482506 C 14.83494,8.21099 14.727617,8.4015478 14.642967,8.5529141 14.558318,8.70428 14.444845,8.8984375 14.390805,8.984375 c -0.05404,0.085937 -0.179008,0.3039063 -0.277707,0.484375 -0.0987,0.1804687 -0.22516,0.4054688 -0.281024,0.5 -0.178864,0.302663 -0.367812,0.632984 -0.527325,0.921875 -0.08541,0.154688 -0.231108,0.411328 -0.323771,0.570313 -0.391173,0.671146 -0.509594,0.877255 -0.605978,1.054687 -0.09638,0.177433 -0.214805,0.383541 -0.605978,1.054688 -0.09266,0.158984 -0.238524,0.415625 -0.324135,0.570312 -0.08561,0.154688 -0.220461,0.39293 -0.299665,0.529427 -0.0792,0.136497 -0.148967,0.26306 -0.155031,0.28125 -0.01577,0.04732 -5.9126797,0.05185 -5.9728707,0.0046 z"
       id="path821"
       inkscape:connector-curvature="0" />
    <path
       style="fill:#fe0000;stroke-width:0.000357143"
       d="M 4.7290266,15.939569 C 4.4019634,15.821825 4.2137991,15.64542 3.9940969,15.250568 3.8916091,15.066375 3.6463456,14.642203 3.4065162,14.234375 3.3256575,14.096875 3.1917244,13.857813 3.1088874,13.703125 3.0260503,13.548438 2.9342215,13.386719 2.9048234,13.34375 2.8754252,13.300781 2.7703052,13.117969 2.6712231,12.9375 2.4951057,12.616718 2.2957973,12.268646 2.0001996,11.765625 1.9193984,11.628125 1.7998607,11.417188 1.7345601,11.296875 1.6692596,11.176562 1.5383748,10.944531 1.4437051,10.78125 1.3490354,10.617969 1.2155334,10.385938 1.147034,10.265625 1.0785346,10.145312 0.94892416,9.9203125 0.85901075,9.765625 0.06406041,8.3979881 0.01626859,8.2922609 0.0397064,7.953125 0.05710795,7.7013312 0.11892095,7.5443969 0.36588619,7.125 0.65779469,6.6292806 0.86163866,6.2753047 0.96875,6.078125 1.0247692,5.975 1.1461237,5.7605469 1.2384266,5.6015625 1.3307295,5.4425781 1.4817705,5.1824219 1.5740734,5.0234375 1.6663763,4.8644531 1.7877308,4.65 1.84375,4.546875 1.8997692,4.44375 2.0232507,4.2257812 2.1181533,4.0625 2.5347312,3.3457719 2.6227509,3.1923484 2.71875,3.015625 2.8173673,2.8340819 2.9577333,2.5896821 3.3200009,1.96875 3.4152634,1.8054687 3.5632628,1.5453125 3.6488881,1.390625 4.179245,0.43250219 4.2812187,0.29965516 4.6100566,0.13845543 L 4.796875,0.046875 7.9683284,0.03847872 c 3.5375726,-0.0093656 3.3418916,-0.02051739 3.6442546,0.20768626 0.156149,0.11785055 0.267441,0.28035771 0.649311,0.94811312 0.101073,0.1767408 0.250107,0.4338469 0.331187,0.5713469 0.08108,0.1375 0.215195,0.3765625 0.298031,0.53125 0.08284,0.1546875 0.174666,0.3164063 0.204065,0.359375 0.0294,0.042969 0.134518,0.2257812 0.2336,0.40625 0.176117,0.3207816 0.375425,0.6688538 0.671023,1.171875 0.0808,0.1375 0.200339,0.3484375 0.26564,0.46875 0.0653,0.1203125 0.196185,0.3523437 0.290855,0.515625 0.09467,0.1632812 0.228172,0.3953125 0.296671,0.515625 0.0685,0.1203125 0.19811,0.3453125 0.288023,0.5 0.794951,1.3676369 0.842743,1.4733641 0.819305,1.8125 -0.01732,0.2506241 -0.07929,0.4087709 -0.321453,0.8203125 -0.301097,0.5117028 -0.503273,0.8626503 -0.607591,1.0546875 -0.05602,0.103125 -0.179501,0.321094 -0.274403,0.484375 -0.416578,0.716728 -0.504598,0.870152 -0.600597,1.046875 -0.05602,0.103125 -0.177374,0.317578 -0.269677,0.476563 -0.0923,0.158984 -0.243344,0.41914 -0.335646,0.578125 -0.0923,0.158984 -0.213658,0.373437 -0.269677,0.476562 -0.09862,0.181543 -0.238983,0.425943 -0.601251,1.046875 -0.09526,0.163281 -0.243087,0.423438 -0.328498,0.578125 -0.60936,1.103603 -0.676576,1.184978 -1.095294,1.326034 -0.188764,0.06359 -0.23957,0.06457 -3.2786586,0.06346 -2.9301356,-0.0011 -3.0951312,-0.0041 -3.2485218,-0.0593 z m 6.2611644,-0.988267 c 0.0061,-0.01819 0.07583,-0.144753 0.155031,-0.28125 0.0792,-0.136497 0.214053,-0.374739 0.299665,-0.529427 0.08561,-0.154687 0.231472,-0.411328 0.324135,-0.570312 0.391173,-0.671147 0.509594,-0.877255 0.605978,-1.054688 0.09638,-0.177432 0.214805,-0.383541 0.605978,-1.054687 0.09266,-0.158985 0.23836,-0.415625 0.323771,-0.570313 0.159513,-0.288891 0.348461,-0.619212 0.527325,-0.921875 0.05586,-0.094531 0.182325,-0.3195313 0.281024,-0.5 0.0987,-0.1804687 0.223667,-0.3984375 0.277707,-0.484375 C 14.444845,8.898438 14.558318,8.70428 14.642967,8.5529141 14.727617,8.4015478 14.83494,8.21099 14.881464,8.1294525 L 14.966054,7.9812019 14.682261,7.4827884 C 14.526175,7.2086609 14.324846,6.8578125 14.234864,6.703125 14.144882,6.5484375 14.015215,6.3234375 13.946716,6.203125 13.878217,6.0828125 13.744715,5.8507812 13.650045,5.6875 13.555375,5.5242187 13.42449,5.2921875 13.35919,5.171875 13.293889,5.0515625 13.174352,4.840625 13.09355,4.703125 12.797952,4.2001037 12.598644,3.8520316 12.422527,3.53125 12.323445,3.3507812 12.21811,3.1679688 12.188448,3.125 12.158788,3.0820313 12.054167,2.8992188 11.955958,2.71875 11.857749,2.5382812 11.731688,2.3132813 11.675824,2.21875 11.522962,1.9600867 11.321334,1.609278 11.154953,1.3125 L 11.006038,1.046875 8.0351803,1.0444675 C 6.4012084,1.0431434 5.0494197,1.0512706 5.0312047,1.0625281 4.9970206,1.083655 4.8261997,1.3695627 4.5551131,1.859375 4.4695016,2.0140625 4.3236406,2.2707032 4.2309778,2.4296875 3.8398053,3.1008338 3.7213844,3.3069425 3.625,3.484375 3.5286156,3.6618075 3.4101947,3.8679163 3.0190222,4.5390625 2.9263594,4.6980469 2.7806622,4.9546875 2.6952507,5.109375 2.5357379,5.3982659 2.3467903,5.7285866 2.1679264,6.03125 2.1120616,6.1257812 1.9856006,6.3507812 1.886902,6.53125 1.7882034,6.7117187 1.6632354,6.9296875 1.6091953,7.015625 1.5551552,7.1015625 1.4416821,7.29572 1.3570328,7.4470859 1.2723835,7.5984522 1.1650597,7.78901 1.1185355,7.8705475 l -0.084589,0.1482506 0.283793,0.4984135 c 0.1560861,0.2741275 0.3574146,0.6249759 0.4473967,0.7796634 0.089982,0.1546875 0.2196488,0.3796875 0.2881482,0.5 0.068499,0.1203125 0.2020014,0.352344 0.2966711,0.515625 0.09467,0.163281 0.2255545,0.395312 0.290855,0.515625 0.065301,0.120313 0.1848383,0.33125 0.2656395,0.46875 0.2955979,0.503021 0.494906,0.851093 0.6710235,1.171875 0.099082,0.180469 0.2044172,0.363281 0.2340785,0.40625 0.029661,0.04297 0.1342818,0.225781 0.2324909,0.40625 0.098209,0.180469 0.2242691,0.405469 0.2801337,0.5 0.1630966,0.275983 0.3614163,0.621718 0.5108772,0.890625 0.076424,0.1375 0.1584441,0.265306 0.1822669,0.284013 0.060191,0.04727 5.9570963,0.04274 5.9728703,-0.0046 z"
       id="path819"
       inkscape:connector-curvature="0" />
  </g>
</svg>
