<?xml version="1.0" encoding="UTF-8" standalone="no"?>
<!-- Created with Inkscape (http://www.inkscape.org/) -->

<svg
   version="1.1"
   id="svg2"
   width="1600"
   height="1600"
   viewBox="0 0 1600 1600"
   sodipodi:docname="select_edgering.svg"
   inkscape:version="1.2.2 (732a01da63, 2022-12-09)"
   xmlns:inkscape="http://www.inkscape.org/namespaces/inkscape"
   xmlns:sodipodi="http://sodipodi.sourceforge.net/DTD/sodipodi-0.dtd"
   xmlns="http://www.w3.org/2000/svg"
   xmlns:svg="http://www.w3.org/2000/svg"
   xmlns:rdf="http://www.w3.org/1999/02/22-rdf-syntax-ns#"
   xmlns:cc="http://creativecommons.org/ns#"
   xmlns:dc="http://purl.org/dc/elements/1.1/">
  <metadata
     id="metadata8">
    <rdf:RDF>
      <cc:Work
         rdf:about="">
        <dc:format>image/svg+xml</dc:format>
        <dc:type
           rdf:resource="http://purl.org/dc/dcmitype/StillImage" />
      </cc:Work>
    </rdf:RDF>
  </metadata>
  <defs
     id="defs6" />
  <sodipodi:namedview
     pagecolor="#808080"
     bordercolor="#666666"
     borderopacity="1"
     objecttolerance="10"
     gridtolerance="10"
     guidetolerance="10"
     inkscape:pageopacity="0"
     inkscape:pageshadow="2"
     inkscape:window-width="1993"
     inkscape:window-height="1009"
     id="namedview4"
     showgrid="false"
     inkscape:zoom="0.5"
     inkscape:cx="335"
     inkscape:cy="142"
     inkscape:window-x="-8"
     inkscape:window-y="-8"
     inkscape:window-maximized="1"
     inkscape:current-layer="SELECT_EDGERING"
     inkscape:showpageshadow="0"
     inkscape:pagecheckerboard="true"
     inkscape:deskcolor="#d1d1d1" />
  <g
     id="SELECT_EDGERING"
     transform="matrix(100,0,0,100,0,4.9999997e-5)"
     style="stroke-width:0.0114286">
    <path
       style="fill:none;stroke-width:0.000357143"
       d="M 0,8 V 0 H 0.75 1.5 V 1.0476541 2.0953082 L 1.3174865,2.2742166 c -0.1326032,0.129984 -0.2009684,0.2283665 -0.25,0.3597682 L 1,2.8148445 v 3.7007805 3.70078 l 0.067487,0.18086 c 0.049032,0.131402 0.1173968,0.229784 0.25,0.359768 L 1.5,10.935942 V 13.467971 16 H 0.75 0 Z m 14.5,5.471643 v -2.528356 l 0.198047,-0.198206 c 0.145443,-0.14556 0.215997,-0.246245 0.265625,-0.379066 l 0.06758,-0.18086 V 6.5 c 0,-3.6287856 -9.72e-4,-3.6877533 -0.06354,-3.8549869 -0.06832,-0.1825999 -0.2531,-0.4157195 -0.385816,-0.4867471 L 14.5,2.1144388 V 1.0572194 0 H 15.25 16 v 8 8 H 15.25 14.5 Z"
       id="path827"
       inkscape:connector-curvature="0" />
    <path
       style="fill:#98cbfe;stroke-width:0.000357143"
       d="m 2,13.59375 c 0,-1.323438 0.010547,-2.406512 0.023437,-2.406833 0.012891,-3.22e-4 1.2503906,0.613871 2.75,1.36487 L 7.5,13.91724 V 14.95862 16 H 4.75 2 Z m 6,1.421875 V 14.03125 h 0.088858 c 0.048872,0 0.1719188,-0.02848 0.2734375,-0.06329 0.1015188,-0.03481 1.4006956,-0.67114 2.8870595,-1.414063 1.486364,-0.742922 2.713317,-1.355456 2.726563,-1.361185 C 13.989163,11.186979 14,12.266276 14,13.591146 V 16 H 11 8 Z M 5.0078125,10.355876 3.03125,9.3703741 V 7.0263328 c 0,-1.2892225 0.011337,-2.3393537 0.025194,-2.3336244 0.013857,0.00573 0.9068257,0.4522388 1.9843751,0.9922435 L 7,6.6667787 V 9.0052644 C 7,10.291432 6.99648,11.343216 6.99219,11.342564 6.98789,11.341911 6.0949244,10.897902 5.007815,10.355876 Z M 9.03125,9.0081559 V 6.6673534 L 10.992188,5.6873203 C 12.070703,5.1483019 12.963672,4.702005 12.976563,4.6955494 12.989453,4.6890934 13,5.7369266 13,7.0240669 V 9.3643225 L 11.043248,10.346224 C 9.9670353,10.886269 9.0740666,11.332812 9.0588734,11.338542 9.0430288,11.344517 9.03125,10.350843 9.03125,9.0081559 Z M 8,2.421875 V 0 h 3 3 V 1 2 H 13.91018 C 13.86078,2 13.758825,2.021464 13.683618,2.047697 13.608408,2.07393 12.309026,2.7137741 10.796098,3.4695719 9.2831691,4.22537 8.0351222,4.84375 8.0226594,4.84375 8.0101969,4.84375 8,3.7539063 8,2.421875 Z M 5,3.3531475 C 3.6507813,2.6744675 2.4708454,2.0923675 2.3779203,2.0595919 2.2849952,2.0268164 2.1619483,2 2.1044828,2 H 2 V 1 0 H 4.75 7.5 V 2.296875 C 7.5,3.5601563 7.4894531,4.5922562 7.4765625,4.5904303 7.4636719,4.5886053 6.3492188,4.0318272 5,3.3531475 Z"
       id="path825"
       inkscape:connector-curvature="0" />
    <path
       style="fill:#fecb32;stroke-width:0.000357143"
       d="M 7.2166672,13.193888 C 6.8482816,13.008339 6.51875,12.839944 6.484375,12.819677 6.45,12.799409 6.3726563,12.762185 6.3125,12.736956 6.2523437,12.711727 6.1539063,12.662678 6.09375,12.627959 6.0335937,12.593239 5.9351563,12.54402 5.875,12.518584 5.8148437,12.493147 5.7164063,12.443928 5.65625,12.409209 5.5960937,12.374489 5.4976563,12.32527 5.4375,12.299834 5.3773437,12.274397 5.2789063,12.225178 5.21875,12.190459 5.1585937,12.155739 5.0601563,12.10652 5,12.081084 4.9398437,12.055647 4.8414063,12.006428 4.78125,11.971709 4.7210937,11.936989 4.6226563,11.88777 4.5625,11.862334 4.5023437,11.836897 4.4039063,11.787678 4.34375,11.752959 4.2835937,11.718239 4.1851563,11.66902 4.125,11.643584 4.0648437,11.618147 3.9664063,11.568928 3.90625,11.534209 3.8460938,11.499489 3.7476563,11.45027 3.6875,11.424834 3.6273438,11.399397 3.5289063,11.350178 3.46875,11.315459 3.4085938,11.280739 3.3101563,11.23152 3.25,11.206084 3.1898438,11.180647 3.0914063,11.131428 3.03125,11.096709 2.9710938,11.061989 2.8726563,11.01277 2.8125,10.987334 2.7523438,10.961897 2.6539063,10.91356 2.59375,10.879917 2.5335938,10.846274 2.34375,10.751428 2.171875,10.669146 1.7405953,10.462681 1.6375614,10.389431 1.5636438,10.236738 1.5007496,10.106816 1.5,10.062933 1.5,6.5106737 V 2.9160802 L 1.5719606,2.7800007 C 1.665271,2.603548 1.8661042,2.4889173 2.046875,2.5089312 2.1761567,2.5232445 2.3112393,2.5755962 2.5,2.6845412 c 0.060156,0.03472 0.1585938,0.083938 0.21875,0.109375 0.060156,0.025437 0.1585938,0.074655 0.21875,0.109375 0.060156,0.03472 0.1585938,0.083938 0.21875,0.109375 0.060156,0.025437 0.1585938,0.073732 0.21875,0.1073235 0.060156,0.033591 0.4960938,0.2524128 0.96875,0.4862697 0.4726562,0.2338568 0.9085937,0.4527487 0.96875,0.4864262 0.060156,0.033678 0.1585937,0.082044 0.21875,0.1074806 0.060156,0.025437 0.1585937,0.074655 0.21875,0.109375 0.060156,0.03472 0.1585937,0.083939 0.21875,0.109375 0.060156,0.025437 0.1585937,0.074655 0.21875,0.109375 0.060156,0.03472 0.1585937,0.083939 0.21875,0.109375 0.060156,0.025437 0.1585937,0.074655 0.21875,0.109375 0.060156,0.03472 0.1585937,0.083939 0.21875,0.109375 0.060156,0.025437 0.1585937,0.074655 0.21875,0.109375 0.060156,0.03472 0.1585937,0.083939 0.21875,0.109375 0.060156,0.025437 0.1585937,0.073514 0.21875,0.10684 0.060156,0.033325 0.1965509,0.1039622 0.3030994,0.1569707 0.2183187,0.108615 0.271139,0.1027818 0.5406506,-0.059707 0.077344,-0.04663 0.1750103,-0.095205 0.2170366,-0.1079431 0.042026,-0.012738 0.1404637,-0.061957 0.21875,-0.109375 0.078286,-0.047418 0.1767237,-0.096637 0.21875,-0.109375 0.042026,-0.012738 0.1404637,-0.061957 0.21875,-0.109375 0.078286,-0.047418 0.1767237,-0.096637 0.21875,-0.109375 0.042026,-0.012738 0.1404637,-0.061957 0.21875,-0.109375 0.078286,-0.047418 0.1767237,-0.096637 0.21875,-0.109375 0.042026,-0.012738 0.1404634,-0.061957 0.2187504,-0.109375 0.07829,-0.047418 0.177494,-0.096872 0.220463,-0.1098988 0.04297,-0.013026 0.127344,-0.054232 0.1875,-0.091568 0.06016,-0.037336 0.390625,-0.2054925 0.734375,-0.3736815 0.34375,-0.1681888 0.674219,-0.3332685 0.734375,-0.3668438 0.06016,-0.033575 0.158594,-0.081857 0.21875,-0.1072941 0.06016,-0.025437 0.158594,-0.074655 0.21875,-0.109375 0.06016,-0.03472 0.158594,-0.083938 0.21875,-0.109375 0.06016,-0.025437 0.158594,-0.074655 0.21875,-0.109375 0.06016,-0.03472 0.158594,-0.083938 0.21875,-0.109375 0.06016,-0.025437 0.158594,-0.074655 0.21875,-0.109375 0.06016,-0.03472 0.158594,-0.084598 0.21875,-0.1108418 0.06016,-0.026243 0.183526,-0.083495 0.274155,-0.1272255 0.278288,-0.1342805 0.564856,-0.042604 0.692767,0.2216242 0.06497,0.1342167 0.06509,0.1418644 0.0569,3.7461366 l -0.0082,3.6116449 -0.09375,0.132799 c -0.08952,0.126804 -0.346694,0.296164 -0.640625,0.421875 -0.06016,0.02573 -0.158594,0.07519 -0.21875,0.109905 -0.06016,0.03472 -0.158594,0.08377 -0.21875,0.108997 -0.06016,0.02523 -0.1375,0.06242 -0.171875,0.08264 -0.131636,0.07745 -1.771324,0.896747 -1.835392,0.917082 -0.03709,0.01177 -0.131483,0.0602 -0.20977,0.107616 -0.07829,0.04742 -0.176723,0.09664 -0.21875,0.109375 -0.04203,0.01274 -0.140463,0.06196 -0.21875,0.109375 -0.07829,0.04742 -0.176723,0.09664 -0.21875,0.109375 -0.04203,0.01274 -0.140463,0.06196 -0.21875,0.109375 -0.07829,0.04742 -0.176723,0.09664 -0.21875,0.109375 -0.042026,0.01274 -0.1404633,0.06196 -0.2187496,0.109375 -0.078286,0.04742 -0.1767237,0.09664 -0.21875,0.109375 -0.042026,0.01274 -0.1404637,0.06196 -0.21875,0.109375 -0.078286,0.04742 -0.1767237,0.09664 -0.21875,0.109375 -0.042026,0.01274 -0.1404637,0.06196 -0.21875,0.109375 -0.078286,0.04742 -0.1774946,0.09687 -0.2204634,0.109899 -0.042969,0.01303 -0.1328822,0.05824 -0.1998078,0.100473 -0.1472069,0.0929 -0.4352947,0.19533 -0.5493547,0.19533 -0.045721,0 -0.3845347,-0.151813 -0.7529203,-0.337362 z M 8.90625,11.99534 C 8.966406,11.96156 9.0648438,11.9131 9.125,11.887666 c 0.060156,-0.02544 0.1585938,-0.07465 0.21875,-0.109375 0.060156,-0.03472 0.1585938,-0.08394 0.21875,-0.109375 0.060156,-0.02544 0.1585938,-0.07465 0.21875,-0.109375 0.060156,-0.03472 0.1585938,-0.08394 0.21875,-0.109375 0.06016,-0.02544 0.158594,-0.07465 0.21875,-0.109375 0.06016,-0.03472 0.158594,-0.08394 0.21875,-0.109375 0.06016,-0.02544 0.158594,-0.07465 0.21875,-0.109375 0.06016,-0.03472 0.158594,-0.08394 0.21875,-0.109375 0.06016,-0.02544 0.158594,-0.07465 0.21875,-0.109375 0.06016,-0.03472 0.158594,-0.08394 0.21875,-0.109375 0.06016,-0.02544 0.158594,-0.07465 0.21875,-0.109375 0.06016,-0.03472 0.158594,-0.08394 0.21875,-0.109375 0.06016,-0.02544 0.158594,-0.07465 0.21875,-0.109375 0.06016,-0.03472 0.158594,-0.08385 0.21875,-0.10919 0.06016,-0.02534 0.151563,-0.06997 0.203125,-0.09918 0.05156,-0.02921 0.31875,-0.166366 0.59375,-0.304778 l 0.5,-0.2516584 0.008,-2.928616 c 0.0044,-1.6107384 0.0011,-2.9286156 -0.0073,-2.9286156 -0.0084,0 -0.08232,0.040615 -0.164223,0.090256 -0.0819,0.049641 -0.183292,0.1006784 -0.225319,0.1134165 -0.04203,0.012738 -0.140463,0.061957 -0.21875,0.109375 -0.07829,0.047418 -0.176723,0.096637 -0.21875,0.109375 -0.04203,0.012738 -0.140463,0.061957 -0.21875,0.109375 -0.07829,0.047418 -0.176723,0.096637 -0.21875,0.109375 -0.04203,0.012738 -0.140463,0.061957 -0.21875,0.109375 -0.07829,0.047418 -0.176723,0.096637 -0.21875,0.109375 -0.04203,0.012738 -0.140463,0.061957 -0.21875,0.109375 -0.07829,0.047418 -0.177494,0.096872 -0.220463,0.1098988 -0.04297,0.013026 -0.127344,0.054193 -0.1875,0.091481 -0.06016,0.037289 -0.489062,0.2546969 -0.953125,0.4831294 C 9.7390625,5.72599 9.3101563,5.9403272 9.25,5.9738625 9.1898438,6.0073978 9.0914063,6.0556472 9.03125,6.0810838 8.9710938,6.1065203 8.8726563,6.1559537 8.8125,6.1909359 8.7523438,6.2259184 8.6644531,6.2706641 8.6171875,6.2903712 L 8.53125,6.3262025 v 2.9267281 2.9267284 l 0.1328125,-0.06145 c 0.073047,-0.0338 0.1820313,-0.08909 0.2421875,-0.122873 z M 7.5,9.2414813 V 6.3267128 L 7.3984375,6.2743194 C 7.3425781,6.2455031 7.2476563,6.2009244 7.1875,6.1752556 7.1273437,6.1495872 7.0289063,6.1001784 6.96875,6.0654588 6.9085937,6.0307391 6.8101563,5.9815203 6.75,5.9560838 6.6898437,5.9306472 6.5914063,5.8823516 6.53125,5.8487603 6.4710937,5.8151688 6.0351562,5.5963475 5.5625,5.3624906 5.0898437,5.1286338 4.6539063,4.9097419 4.59375,4.8760644 4.5335937,4.8423866 4.4351563,4.7940203 4.375,4.7685838 4.3148437,4.7431472 4.2164063,4.6939284 4.15625,4.6592088 4.0960937,4.6244891 3.9976563,4.5752703 3.9375,4.5498338 3.8773438,4.5243972 3.7789063,4.4751784 3.71875,4.4404588 3.6585938,4.4057391 3.5601563,4.3565203 3.5,4.3310838 3.4398438,4.3056472 3.3414063,4.2571941 3.28125,4.2234097 3.2210938,4.1896253 3.115625,4.1351341 3.046875,4.1023175 2.978125,4.0695012 2.865625,4.0132587 2.796875,3.9773341 2.728125,3.9414094 2.6402344,3.9027403 2.6015625,3.8914025 L 2.53125,3.8707881 v 2.9079641 2.9079637 l 0.1171875,0.073952 c 0.064453,0.040673 0.1523438,0.08461 0.1953125,0.097636 0.042969,0.013026 0.1421773,0.062481 0.2204635,0.1098988 0.078286,0.047418 0.1767237,0.096637 0.2187499,0.1093743 0.042026,0.01274 0.1404638,0.06196 0.21875,0.109375 0.078286,0.04742 0.1767238,0.09664 0.21875,0.109375 0.042026,0.01274 0.1404638,0.06196 0.21875,0.109375 0.078286,0.04742 0.1767238,0.09664 0.21875,0.109375 0.042026,0.01274 0.1404638,0.06196 0.21875,0.109375 0.078286,0.04742 0.1767238,0.09664 0.21875,0.109375 0.042026,0.01274 0.1404638,0.06196 0.21875,0.109375 0.078286,0.04742 0.1767238,0.09664 0.21875,0.109375 0.042026,0.01274 0.1404638,0.06196 0.21875,0.109375 0.078286,0.04742 0.1726825,0.09585 0.2097694,0.107616 0.060572,0.01923 1.6368234,0.808612 1.8666422,0.934815 0.051563,0.02831 0.1113281,0.05157 0.1328125,0.05167 C 7.4919097,12.156214 7.5,11.552566 7.5,9.2414813 Z"
       id="path823"
       inkscape:connector-curvature="0" />
    <path
       style="fill:#cb6500;stroke-width:0.000357143"
       d="M 7.71875,14.010911 C 7.6929688,14.002439 6.2726562,13.297153 4.5625,12.443611 1.7416069,11.035698 1.4383495,10.877078 1.2938684,10.733952 1.1853502,10.626451 1.1131686,10.518876 1.0673059,10.396297 L 1,10.216405 V 6.515625 2.8148445 L 1.0673059,2.6349533 C 1.2546306,2.1342834 1.8494363,1.8731678 2.3779203,2.0596027 2.4708454,2.0923841 3.7699163,2.7322279 5.2647444,3.4814778 6.7595728,4.2307275 7.9967225,4.84375 8.0139666,4.84375 c 0.017244,0 1.2692025,-0.61838 2.7821304,-1.3741781 1.512928,-0.7557978 2.812312,-1.3956416 2.88752,-1.4218749 0.498399,-0.1738475 1.098556,0.1014307 1.280327,0.5872563 l 0.06731,0.1798912 V 6.5 10.185155 l -0.06758,0.18086 c -0.04925,0.131818 -0.119161,0.232113 -0.257812,0.369874 -0.185096,0.183908 -0.270852,0.229265 -3.17461,1.679121 -1.6414062,0.819559 -3.0674359,1.518488 -3.1689547,1.553174 -0.1734919,0.05928 -0.5226444,0.08246 -0.6435453,0.04273 z M 8.2249875,13.47198 c 0.09475,-0.0326 0.2270291,-0.09383 0.2939547,-0.13606 0.066926,-0.04223 0.156839,-0.08745 0.1998078,-0.100473 0.042969,-0.01303 0.1421772,-0.06248 0.2204634,-0.109899 0.078286,-0.04742 0.1767238,-0.09664 0.21875,-0.109375 0.042026,-0.01274 0.1404638,-0.06196 0.21875,-0.109375 0.078286,-0.04742 0.1767238,-0.09664 0.21875,-0.109375 0.042026,-0.01274 0.1404638,-0.06196 0.21875,-0.109375 0.078286,-0.04742 0.1767238,-0.09664 0.2187496,-0.109375 0.04203,-0.01274 0.140464,-0.06196 0.21875,-0.109375 0.07829,-0.04742 0.176724,-0.09664 0.21875,-0.109375 0.04203,-0.01274 0.140464,-0.06196 0.21875,-0.109375 0.07829,-0.04742 0.176724,-0.09664 0.21875,-0.109375 0.04203,-0.01274 0.140464,-0.06196 0.21875,-0.109375 0.07829,-0.04742 0.172683,-0.09585 0.20977,-0.107616 0.06407,-0.02033 1.703756,-0.839629 1.835392,-0.917082 0.03438,-0.02022 0.111719,-0.05741 0.171875,-0.08264 0.06016,-0.02523 0.158594,-0.07428 0.21875,-0.108997 0.06016,-0.03472 0.158594,-0.08418 0.21875,-0.109905 0.293931,-0.125711 0.551107,-0.295071 0.640625,-0.421875 l 0.09375,-0.132799 0.0082,-3.6116453 c 0.0082,-3.6042722 0.0081,-3.6119199 -0.0569,-3.7461366 -0.127914,-0.264232 -0.414482,-0.3559087 -0.69277,-0.2216282 -0.09063,0.043731 -0.213999,0.1009823 -0.274155,0.1272255 -0.06016,0.026243 -0.158594,0.076122 -0.21875,0.1108418 -0.06016,0.03472 -0.158594,0.083938 -0.21875,0.109375 -0.06016,0.025437 -0.158594,0.074655 -0.21875,0.109375 -0.06016,0.03472 -0.158594,0.083938 -0.21875,0.1093751 -0.06016,0.025437 -0.158594,0.074655 -0.21875,0.109375 -0.06016,0.03472 -0.158594,0.083938 -0.21875,0.109375 -0.06016,0.025437 -0.158594,0.073719 -0.21875,0.107294 -0.06016,0.033575 -0.390625,0.198655 -0.734375,0.3668438 -0.34375,0.168189 -0.674219,0.3363456 -0.734375,0.3736815 -0.06016,0.037336 -0.144531,0.078542 -0.1875,0.091568 -0.04297,0.013026 -0.142177,0.062481 -0.220463,0.1098988 -0.07829,0.047418 -0.1767242,0.096637 -0.2187504,0.109375 -0.042026,0.012738 -0.1404638,0.061957 -0.21875,0.109375 -0.078286,0.047418 -0.1767238,0.096637 -0.21875,0.109375 -0.042026,0.012738 -0.1404638,0.061957 -0.21875,0.109375 -0.078286,0.047418 -0.1767238,0.096637 -0.21875,0.109375 -0.042026,0.012738 -0.1404638,0.061957 -0.21875,0.109375 -0.078286,0.047418 -0.1767238,0.096637 -0.21875,0.109375 C 8.5187603,5.1840653 8.4210938,5.23264 8.34375,5.2792703 8.0742384,5.4417588 8.0214181,5.4475919 7.8030994,5.3389769 7.6965509,5.2859684 7.5601563,5.2153316 7.5,5.1820063 7.4398437,5.1486806 7.3414063,5.1006028 7.28125,5.0751663 7.2210937,5.0497297 7.1226563,5.0005109 7.0625,4.9657913 7.0023437,4.9310716 6.9039063,4.8818528 6.84375,4.8564163 6.7835937,4.8309797 6.6851563,4.7817609 6.625,4.7470413 6.5648437,4.7123216 6.4664063,4.6631028 6.40625,4.6376663 6.3460937,4.6122297 6.2476563,4.5630109 6.1875,4.5282913 6.1273437,4.4935716 6.0289063,4.4443528 5.96875,4.4189163 5.9085937,4.3934797 5.8101563,4.3442609 5.75,4.3095413 5.6898437,4.2748216 5.5914063,4.2256028 5.53125,4.2001663 5.4710937,4.1747297 5.3726563,4.1263634 5.3125,4.0926856 5.2523437,4.0590081 4.8164062,3.8401163 4.34375,3.6062594 3.8710938,3.3724025 3.4351563,3.1535813 3.375,3.1199898 3.3148438,3.0863983 3.2164063,3.0381027 3.15625,3.0126662 3.0960938,2.9872297 2.9976563,2.938011 2.9375,2.9032912 2.8773438,2.8685715 2.7789063,2.8193527 2.71875,2.7939162 2.6585938,2.7684797 2.5601563,2.719261 2.5,2.6845412 2.3112393,2.5755962 2.1761567,2.5232445 2.046875,2.5089312 1.8661042,2.4889173 1.665271,2.603548 1.5719606,2.7800007 L 1.5,2.9160802 v 3.5945935 c 0,3.5522593 7.497e-4,3.5961423 0.063644,3.7260643 0.073918,0.152693 0.1769515,0.225943 0.6082312,0.432408 0.171875,0.08228 0.3617188,0.177128 0.421875,0.210771 0.060156,0.03364 0.1585938,0.08198 0.21875,0.107417 0.060156,0.02544 0.1585938,0.07465 0.21875,0.109375 0.060156,0.03472 0.1585938,0.08394 0.21875,0.109375 0.060156,0.02544 0.1585938,0.07465 0.21875,0.109375 0.060156,0.03472 0.1585938,0.08394 0.21875,0.109375 0.060156,0.02544 0.1585938,0.07465 0.21875,0.109375 0.060156,0.03472 0.1585937,0.08394 0.21875,0.109375 0.060156,0.02544 0.1585937,0.07465 0.21875,0.109375 0.060156,0.03472 0.1585937,0.08394 0.21875,0.109375 0.060156,0.02544 0.1585937,0.07465 0.21875,0.109375 0.060156,0.03472 0.1585937,0.08394 0.21875,0.109375 0.060156,0.02544 0.1585937,0.07465 0.21875,0.109375 0.060156,0.03472 0.1585937,0.08394 0.21875,0.109375 0.060156,0.02544 0.1585937,0.07465 0.21875,0.109375 0.060156,0.03472 0.1585937,0.08394 0.21875,0.109375 0.060156,0.02544 0.1585937,0.07465 0.21875,0.109375 0.060156,0.03472 0.1585937,0.08377 0.21875,0.108997 0.060156,0.02523 0.1375,0.06245 0.171875,0.08272 0.2844472,0.16771 1.4196106,0.711573 1.4852125,0.711573 0.04572,0 0.1606503,-0.02667 0.2554,-0.05927 z M 8.53125,9.2529306 V 6.3262025 L 8.617187,6.2903715 C 8.6644531,6.2706641 8.7523438,6.2259184 8.8125,6.1909359 8.8726563,6.1559537 8.9710938,6.1065203 9.03125,6.0810837 9.0914063,6.0556472 9.1898438,6.0073978 9.25,5.9738625 9.3101563,5.9403272 9.7390625,5.72599 10.203125,5.4975575 10.667188,5.269125 11.096094,5.0517169 11.15625,5.0144281 c 0.06016,-0.037288 0.144531,-0.078455 0.1875,-0.091481 0.04297,-0.013026 0.142177,-0.062481 0.220463,-0.1098988 0.07829,-0.047418 0.176724,-0.096637 0.21875,-0.109375 0.04203,-0.012738 0.140464,-0.061957 0.21875,-0.109375 0.07829,-0.047418 0.176724,-0.096637 0.21875,-0.109375 0.04203,-0.012738 0.140464,-0.061957 0.21875,-0.109375 0.07829,-0.047418 0.176724,-0.096637 0.21875,-0.109375 0.04203,-0.012738 0.140464,-0.061957 0.21875,-0.109375 0.07829,-0.047418 0.176724,-0.096637 0.21875,-0.109375 0.04203,-0.012738 0.14342,-0.063776 0.225319,-0.1134166 0.0819,-0.049641 0.155799,-0.090256 0.164223,-0.090256 0.0084,0 0.01173,1.3178772 0.0073,2.9286156 l -0.008,2.928616 -0.5,0.2516584 c -0.275,0.1384123 -0.542188,0.2755623 -0.59375,0.3047783 -0.05156,0.02922 -0.142969,0.07385 -0.203125,0.09918 -0.06016,0.02534 -0.158594,0.07447 -0.21875,0.10919 -0.06016,0.03472 -0.158594,0.08394 -0.21875,0.109375 -0.06016,0.02544 -0.158594,0.07466 -0.21875,0.109375 -0.06016,0.03472 -0.158594,0.08394 -0.21875,0.109375 -0.06016,0.02544 -0.158594,0.07466 -0.21875,0.109375 -0.06016,0.03472 -0.158594,0.08394 -0.21875,0.109375 -0.06016,0.02544 -0.158594,0.07466 -0.21875,0.109375 -0.06016,0.03472 -0.158594,0.08394 -0.21875,0.109375 -0.06016,0.02544 -0.158594,0.07466 -0.21875,0.109375 -0.06016,0.03472 -0.158594,0.08394 -0.21875,0.109375 -0.060156,0.02544 -0.1585937,0.07466 -0.21875,0.109375 -0.060156,0.03472 -0.1585937,0.08394 -0.21875,0.109375 -0.060156,0.02544 -0.1585937,0.07466 -0.21875,0.109375 -0.060156,0.03472 -0.1585937,0.08394 -0.21875,0.109375 -0.060156,0.02544 -0.1585937,0.07389 -0.21875,0.107674 -0.060156,0.03378 -0.1691406,0.08908 -0.2421875,0.122872 L 8.53125,12.179659 Z M 11.043248,10.346224 13,9.3643225 V 7.0240669 C 13,5.7369266 12.98945,4.6890934 12.97656,4.6955494 12.96367,4.7020094 12.0707,5.1483019 10.992185,5.6873203 L 9.03125,6.6673534 v 2.3408025 c 0,1.3426871 0.011779,2.3363611 0.027623,2.3303861 0.015193,-0.0057 0.9081619,-0.452273 1.984375,-0.992318 z m -3.715123,1.758159 c -0.2298188,-0.126203 -1.80607,-0.91559 -1.8666422,-0.934815 -0.037087,-0.01177 -0.1314831,-0.0602 -0.2097694,-0.107616 -0.078286,-0.04742 -0.1767237,-0.09664 -0.21875,-0.109375 -0.042026,-0.01274 -0.1404637,-0.06196 -0.21875,-0.109375 -0.078286,-0.04742 -0.1767237,-0.09664 -0.21875,-0.109375 -0.042026,-0.01274 -0.1404637,-0.06196 -0.21875,-0.109375 -0.078286,-0.04742 -0.1767237,-0.09664 -0.21875,-0.109375 -0.042026,-0.01274 -0.1404637,-0.06196 -0.21875,-0.109375 -0.078286,-0.04742 -0.1767237,-0.09664 -0.21875,-0.109375 -0.042026,-0.01274 -0.1404637,-0.06196 -0.21875,-0.109375 -0.078286,-0.04742 -0.1767237,-0.09664 -0.21875,-0.109375 C 3.2409372,10.064839 3.1424997,10.01562 3.0642135,9.9682022 2.9859273,9.9207841 2.8867188,9.8713297 2.84375,9.8583034 2.8007813,9.8452772 2.7128906,9.8013409 2.6484375,9.7606675 L 2.53125,9.6867159 V 6.7787522 3.8707881 l 0.070312,0.020614 c 0.038672,0.011338 0.1265625,0.050007 0.1953125,0.085932 0.06875,0.035925 0.18125,0.092167 0.25,0.1249834 0.06875,0.032817 0.1742188,0.087308 0.234375,0.1210922 0.060156,0.033784 0.1585938,0.082237 0.21875,0.1076741 0.060156,0.025436 0.1585938,0.074655 0.21875,0.109375 0.060156,0.03472 0.1585938,0.083938 0.21875,0.109375 0.060156,0.025436 0.1585937,0.074655 0.21875,0.109375 0.060156,0.03472 0.1585937,0.083938 0.21875,0.109375 0.060156,0.025436 0.1585937,0.073803 0.21875,0.1074806 0.060156,0.033678 0.4960937,0.2525694 0.96875,0.4864262 0.4726562,0.2338569 0.9085937,0.4526782 0.96875,0.4862697 0.060156,0.033591 0.1585937,0.081887 0.21875,0.1073235 0.060156,0.025436 0.1585937,0.074655 0.21875,0.109375 0.060156,0.03472 0.1585937,0.084128 0.21875,0.1097968 0.060156,0.025669 0.1550781,0.070247 0.2109375,0.099064 L 7.5,6.3267128 v 2.9147685 c 0,2.3110847 -0.00809,2.9147287 -0.039063,2.9145757 -0.021484,-9.3e-5 -0.08125,-0.02336 -0.1328125,-0.05167 z M 7,9.0052644 V 6.6667787 L 5.0408194,5.6849519 C 3.96327,5.1449472 3.0703012,4.6984375 3.0564443,4.6927084 3.0425874,4.6869791 3.03125,5.7371103 3.03125,7.0263328 v 2.3440413 l 1.9765625,0.9855019 c 1.0871094,0.542026 1.9800781,0.986035 1.984375,0.986688 C 6.9964844,11.343217 7,10.291432 7,9.0052644 Z"
       id="path821"
       inkscape:connector-curvature="0" />
    <path
       style="fill:#0000fe;stroke-width:0.000357143"
       d="M 1.5,13.457197 V 10.914395 L 1.75,11.042596 2,11.170797 V 13.585398 16 H 1.75 1.5 Z m 6,1.511553 c 0,-0.567187 0.00526,-1.03125 0.011696,-1.03125 0.00643,0 0.071482,0.02109 0.1445541,0.04687 0.073072,0.02578 0.1803087,0.04687 0.2383041,0.04687 H 8 V 15.015625 16 H 7.75 7.5 Z M 14,13.595279 v -2.40472 l 0.195313,-0.109045 c 0.107421,-0.05997 0.219921,-0.118417 0.25,-0.129873 0.0518,-0.01973 0.05469,0.112766 0.05469,2.513766 V 16 H 14.25 14 Z M 7.7438044,4.7237872 7.515625,4.6038244 7.5076109,2.3019122 7.4995969,0 H 7.7497984 8 V 2.421875 C 8,3.7539063 7.9937,4.84375 7.985992,4.84375 c -0.0077,0 -0.1166891,-0.053983 -0.2421876,-0.1199628 z M 1.5,1.0594977 V 0 H 1.75 2 V 1 2 H 1.906585 c -0.051378,0 -0.1638781,0.026774 -0.25,0.059498 L 1.5,2.1189954 Z M 14.34375,2.046875 C 14.28359,2.023709 14.181641,2.003685 14.117188,2.002377 L 14,2 V 1 0 h 0.25 0.25 v 1.046875 c 0,0.5757812 -0.01055,1.0458052 -0.02344,1.0444976 -0.01289,-0.00131 -0.07266,-0.021332 -0.132813,-0.044498 z"
       id="path819"
       inkscape:connector-curvature="0" />
  </g>
</svg>
