<?xml version="1.0" encoding="UTF-8" standalone="no"?>
<!-- Created with Inkscape (http://www.inkscape.org/) -->

<svg
   version="1.1"
   id="svg2"
   width="1600"
   height="1600"
   viewBox="0 0 1600 1600"
   sodipodi:docname="select_loose.svg"
   inkscape:version="1.2.2 (732a01da63, 2022-12-09)"
   xmlns:inkscape="http://www.inkscape.org/namespaces/inkscape"
   xmlns:sodipodi="http://sodipodi.sourceforge.net/DTD/sodipodi-0.dtd"
   xmlns="http://www.w3.org/2000/svg"
   xmlns:svg="http://www.w3.org/2000/svg"
   xmlns:rdf="http://www.w3.org/1999/02/22-rdf-syntax-ns#"
   xmlns:cc="http://creativecommons.org/ns#"
   xmlns:dc="http://purl.org/dc/elements/1.1/">
  <metadata
     id="metadata8">
    <rdf:RDF>
      <cc:Work
         rdf:about="">
        <dc:format>image/svg+xml</dc:format>
        <dc:type
           rdf:resource="http://purl.org/dc/dcmitype/StillImage" />
      </cc:Work>
    </rdf:RDF>
  </metadata>
  <defs
     id="defs6" />
  <sodipodi:namedview
     pagecolor="#808080"
     bordercolor="#666666"
     borderopacity="1"
     objecttolerance="10"
     gridtolerance="10"
     guidetolerance="10"
     inkscape:pageopacity="0"
     inkscape:pageshadow="2"
     inkscape:window-width="2560"
     inkscape:window-height="1009"
     id="namedview4"
     showgrid="false"
     inkscape:zoom="0.5"
     inkscape:cx="620"
     inkscape:cy="1150"
     inkscape:window-x="-8"
     inkscape:window-y="-8"
     inkscape:window-maximized="1"
     inkscape:current-layer="SELECT_LOOSE"
     inkscape:showpageshadow="0"
     inkscape:pagecheckerboard="true"
     inkscape:deskcolor="#d1d1d1" />
  <g
     id="SELECT_LOOSE"
     transform="scale(99.999998)"
     style="stroke-width:0.01">
    <path
       style="fill:none;stroke-width:0.0003125"
       d="M 0,8 V 0 h 8 8 V 1.84375 C 16,2.8578125 15.9913,3.6875 15.98056,3.6875 15.96987,3.6875 15.087449,3.2514138 14.019623,2.7184196 12.951801,2.1854254 12.048863,1.7494879 12.013098,1.7496696 11.902028,1.7502339 5.8854969,4.7736725 5.8136281,4.8650387 5.7524691,4.94279 5.75,4.9869934 5.75,6.0042144 5.75,6.5862716 5.7410872,7.0625 5.7301941,7.0625 5.7193006,7.0625 4.6681287,6.5420062 3.3942566,5.9058475 2.1203842,5.2696887 1.0454027,4.7493762 1.0054087,4.7495975 0.96541466,4.7498162 0.89158653,4.7911056 0.84134616,4.8413462 L 0.75,4.9326922 v 3.5653628 3.565363 l 0.1015625,0.109969 c 0.0792259,0.08578 0.7604541,0.439631 3.0974859,1.608916 1.6477578,0.824421 3.0304803,1.498947 3.0727163,1.498947 0.04321,0 0.1167406,-0.03995 0.168139,-0.09135 l 0.091346,-0.09135 v -1.064904 c 0,-0.585697 0.00884,-1.064904 0.019649,-1.064904 0.010807,0 1.0598679,0.520312 2.3312463,1.15625 1.271378,0.635938 2.341833,1.156399 2.378789,1.15658 0.03695,1.88e-4 0.940867,-0.435755 2.008693,-0.96875 1.067826,-0.532994 1.950248,-0.96908 1.960937,-0.96908 0.01069,0 0.01944,0.597656 0.01944,1.328125 V 16 H 8 0 Z M 9.5,13.459256 7.296875,12.356965 7.28125,10.132464 7.265625,7.9079634 7.1951372,7.8374869 C 7.1563691,7.798725 6.9384003,7.6742234 6.7107622,7.5608169 L 6.296875,7.3546234 6.2886003,6.4089284 c -0.0065,-0.742715 6.25e-5,-0.9429162 0.030566,-0.9327481 0.021362,0.00712 1.25136,0.6165653 2.7333285,1.3543209 l 2.6944872,1.3413738 0.0015,3.195313 c 8.28e-4,1.757421 -0.009,3.195098 -0.02193,3.194835 -0.01289,-2.5e-4 -1.014844,-0.496507 -2.2265626,-1.102767 z"
       id="path827"
       inkscape:connector-curvature="0" />
    <path
       style="fill:#98cbfe;stroke-width:0.0003125"
       d="M 9.328125,6.3735416 C 7.8671875,5.6386275 6.6597831,5.0319347 6.6450041,5.0253353 6.6302253,5.0187356 7.8328166,4.4066731 9.3174297,3.6651962 l 2.6992963,-1.34814 1.983824,0.9917925 1.983825,0.9917922 V 5.015625 5.7306091 L 14,6.7237894 C 12.908594,7.2700384 12.008594,7.715345 12,7.7133591 11.9914,7.7113791 10.789062,7.1084553 9.328125,6.3735416 Z"
       id="path825"
       inkscape:connector-curvature="0" />
    <path
       style="fill:#fecb32;stroke-width:0.0003125"
       d="M 4,13.208023 1.296875,11.854743 1.2889151,8.6617463 C 1.2845372,6.9055984 1.2915686,5.4692134 1.3045401,5.46978 1.3175118,5.4703463 2.5445313,6.0789944 4.03125,6.8223309 l 2.703125,1.3515213 0.00796,3.1943238 C 6.746715,13.125054 6.739685,14.562231 6.72671,14.561901 6.7137381,14.561572 5.4867187,13.952327 4,13.208023 Z"
       id="path823"
       inkscape:connector-curvature="0" />
    <path
       style="fill:#3265fe;stroke-width:0.0003125"
       d="m 12.282787,11.367188 0.0015,-3.195313 1.818776,-0.9038834 c 1.000327,-0.497136 1.836421,-0.9096582 1.857986,-0.916716 0.03131,-0.010247 0.03761,0.6311341 0.03125,3.1832166 l -0.008,3.1960498 -1.828125,0.915135 c -1.005469,0.503324 -1.838672,0.915515 -1.851562,0.915979 -0.01289,4.66e-4 -0.02275,-1.437047 -0.0219,-3.194468 z"
       id="path821"
       inkscape:connector-curvature="0" />
    <path
       style="fill:#323232;stroke-width:0.0003125"
       d="M 3.9490484,13.782303 C 1.6120166,12.613018 0.93078844,12.25917 0.8515625,12.173387 L 0.75,12.063418 V 8.498055 4.9326922 l 0.0913462,-0.091346 c 0.0502404,-0.050241 0.1240685,-0.091528 0.1640625,-0.091749 0.039994,-2.188e-4 1.1149755,0.5200912 2.3888479,1.15625 C 4.6681287,6.5420062 5.7193006,7.0625 5.7301941,7.0625 5.7410872,7.0625 5.75,6.5862716 5.75,6.0042144 5.75,4.9869934 5.75247,4.94279 5.813628,4.8650387 c 0.071906,-0.091414 6.088494,-3.1148369 6.19947,-3.1153243 0.03577,-1.562e-4 0.947196,0.439296 2.025402,0.9765625 l 1.960376,0.9768481 5.62e-4,0.3027056 5.63e-4,0.3027056 L 14.008384,3.3127856 12.016768,2.3170354 9.3207144,3.6635559 c -1.4828297,0.7405863 -2.6913944,1.35118 -2.6856997,1.356875 0.0057,0.00569 1.2187731,0.6141991 2.695729,1.3522313 L 12.016118,7.7145394 14.008059,6.7186266 16,5.7227137 15.99945,6.0254194 15.9989,6.328125 14.141592,7.25 l -1.857309,0.921875 -0.0015,3.195313 c -8.34e-4,1.757421 0.0073,3.195312 0.01808,3.195312 0.01078,0 0.847495,-0.413959 1.859375,-0.919909 L 16,12.722682 l -5.62e-4,0.302721 -5.63e-4,0.302722 -1.960375,0.976848 c -1.078207,0.537267 -1.990612,0.97672 -2.027567,0.976563 -0.03695,-1.58e-4 -1.10741,-0.520598 -2.378788,-1.156536 -1.2713784,-0.635938 -2.3204394,-1.15625 -2.3312463,-1.15625 -0.010807,0 -0.019649,0.479207 -0.019649,1.064904 v 1.064904 l -0.091346,0.09135 c -0.051398,0.0514 -0.1249293,0.09135 -0.168139,0.09135 -0.042236,0 -1.4249585,-0.674526 -3.0727163,-1.498947 z M 6.742335,11.368176 6.734375,8.1738522 4.03125,6.8223309 C 2.5445313,6.0789944 1.3175118,5.4703463 1.3045401,5.46978 1.2915685,5.4692144 1.2845372,6.9055984 1.2889151,8.6617463 L 1.296875,11.854743 4,13.208023 c 1.4867187,0.744304 2.7137381,1.353549 2.72671,1.353878 0.012972,3.28e-4 0.020003,-1.436847 0.015625,-3.193725 z m 5.006156,-9.87e-4 -0.0015,-3.1953128 L 9.0524944,6.8305025 C 7.5705259,6.0927469 6.3405281,5.4833025 6.3191659,5.4761816 6.2886616,5.4660134 6.2821009,5.6662147 6.2886,6.4089297 l 0.00827,0.945695 0.4138872,0.2061934 c 0.2276381,0.1134066 0.4456069,0.2379081 0.484375,0.27667 l 0.070488,0.070477 0.015625,2.2244999 0.015625,2.224501 2.203125,1.102291 c 1.2117188,0.60626 2.2136728,1.102506 2.2265628,1.102768 0.01289,2.5e-4 0.02276,-1.437414 0.02193,-3.194836 z"
       id="path819"
       inkscape:connector-curvature="0" />
  </g>
</svg>
