<?xml version="1.0" encoding="UTF-8" standalone="no"?>
<!-- Created with Inkscape (http://www.inkscape.org/) -->

<svg
   version="1.1"
   id="svg2"
   width="1600"
   height="1600"
   viewBox="0 0 1600 1600"
   sodipodi:docname="select_interior.svg"
   inkscape:version="1.2.2 (732a01da63, 2022-12-09)"
   xmlns:inkscape="http://www.inkscape.org/namespaces/inkscape"
   xmlns:sodipodi="http://sodipodi.sourceforge.net/DTD/sodipodi-0.dtd"
   xmlns="http://www.w3.org/2000/svg"
   xmlns:svg="http://www.w3.org/2000/svg"
   xmlns:rdf="http://www.w3.org/1999/02/22-rdf-syntax-ns#"
   xmlns:cc="http://creativecommons.org/ns#"
   xmlns:dc="http://purl.org/dc/elements/1.1/">
  <metadata
     id="metadata8">
    <rdf:RDF>
      <cc:Work
         rdf:about="">
        <dc:format>image/svg+xml</dc:format>
        <dc:type
           rdf:resource="http://purl.org/dc/dcmitype/StillImage" />
      </cc:Work>
    </rdf:RDF>
  </metadata>
  <defs
     id="defs6" />
  <sodipodi:namedview
     pagecolor="#808080"
     bordercolor="#666666"
     borderopacity="1"
     objecttolerance="10"
     gridtolerance="10"
     guidetolerance="10"
     inkscape:pageopacity="0"
     inkscape:pageshadow="2"
     inkscape:window-width="2560"
     inkscape:window-height="1009"
     id="namedview4"
     showgrid="false"
     inkscape:zoom="0.5"
     inkscape:cx="1088"
     inkscape:cy="456"
     inkscape:window-x="-8"
     inkscape:window-y="-8"
     inkscape:window-maximized="1"
     inkscape:current-layer="SLEECT_INTERIOR"
     inkscape:showpageshadow="0"
     inkscape:pagecheckerboard="true"
     inkscape:deskcolor="#d1d1d1" />
  <g
     id="SLEECT_INTERIOR"
     transform="matrix(99.999975,0,0,99.999975,0,3.7499999e-4)"
     style="stroke-width:0.01">
    <path
       style="fill:none;stroke-width:0.0003125"
       d="M 0,8 V 0 h 8 8 V 1.84375 C 16,2.8578125 15.9913,3.6875 15.98056,3.6875 15.96987,3.6875 15.087449,3.2514138 14.019623,2.7184196 12.951801,2.1854254 12.049113,1.7494879 12.013654,1.7496696 11.978195,1.7498513 10.59787,2.425 8.9462644,3.25 L 5.9433453,4.75 H 3.4380188 0.93269231 L 0.84134616,4.8413462 0.75,4.9326922 V 8.5007213 12.06875 L 0.85625,12.175 0.9625,12.28125 h 2.4934928 2.4934925 l 2.9964422,1.5 c 1.6480435,0.825 3.0269875,1.500149 3.0643205,1.50033 0.03733,1.88e-4 0.941553,-0.435755 2.009379,-0.96875 1.067826,-0.532994 1.950248,-0.96908 1.960937,-0.96908 0.01069,0 0.01944,0.597656 0.01944,1.328125 V 16 H 8 0 Z"
       id="path829"
       inkscape:connector-curvature="0" />
    <path
       style="fill:#98cbfe;stroke-width:0.0003125"
       d="M 9.328125,6.3735416 C 7.8671875,5.6386275 6.6597831,5.0319347 6.6450041,5.0253353 6.6302253,5.0187356 7.8328166,4.4066731 9.3174297,3.6651962 l 2.6992963,-1.34814 1.983824,0.9917925 1.983825,0.9917922 V 5.015625 5.7306091 L 14,6.7237894 C 12.908594,7.2700384 12.008594,7.715345 12,7.7133591 11.9914,7.7113791 10.789062,7.1084553 9.328125,6.3735416 Z"
       id="path827"
       inkscape:connector-curvature="0" />
    <path
       style="fill:#fecb32;stroke-width:0.0003125"
       d="M 1.28125,8.515625 V 5.28125 H 3.515625 5.75 V 8.515625 11.75 H 3.515625 1.28125 Z"
       id="path825"
       inkscape:connector-curvature="0" />
    <path
       style="fill:#6598cb;stroke-width:0.0003125"
       d="M 9,13.208346 6.296875,11.854751 6.2889147,8.6590972 c -0.00628,-2.5217691 1.562e-4,-3.1929459 0.030566,-3.1828119 0.021189,0.00706 1.2510456,0.6164603 2.7330141,1.354216 l 2.6944872,1.3413737 0.0015,3.195313 c 8.28e-4,1.757421 -0.009,3.195186 -0.02193,3.195032 -0.01289,-1.56e-4 -1.239844,-0.609397 -2.7265626,-1.353874 z"
       id="path823"
       inkscape:connector-curvature="0" />
    <path
       style="fill:#3265fe;stroke-width:0.0003125"
       d="m 12.282787,11.367188 0.0015,-3.195313 1.818776,-0.9038834 c 1.000327,-0.497136 1.836421,-0.9096582 1.857986,-0.916716 0.03131,-0.010247 0.03761,0.6311341 0.03125,3.1832166 l -0.008,3.1960498 -1.828125,0.915135 c -1.005469,0.503324 -1.838672,0.915515 -1.851562,0.915979 -0.01289,4.66e-4 -0.02275,-1.437047 -0.0219,-3.194468 z"
       id="path821"
       inkscape:connector-curvature="0" />
    <path
       style="fill:#323232;stroke-width:0.0003125"
       d="M 8.9375,13.779363 5.953125,12.28203 3.4578125,12.28164 0.9625,12.28125 0.85625,12.175 0.75,12.06875 V 8.5007213 4.9326922 L 0.84134616,4.8413462 0.93269231,4.75 H 3.4380188 5.9433453 L 8.9462644,3.25 C 10.59787,2.425 11.978195,1.7498715 12.013654,1.7497144 c 0.03546,-1.562e-4 0.94664,0.439296 2.024846,0.9765625 l 1.960376,0.9768481 5.62e-4,0.3027056 5.63e-4,0.3027056 L 14.008384,3.3127856 12.016768,2.3170354 9.3207144,3.6635559 c -1.4828297,0.7405863 -2.6913944,1.35118 -2.6856997,1.356875 0.0057,0.00569 1.2187731,0.6141991 2.695729,1.3522313 L 12.016118,7.7145394 14.008059,6.7186266 16,5.7227137 15.99945,6.0254194 15.9989,6.328125 14.141592,7.25 l -1.857309,0.921875 -0.0015,3.195313 c -8.34e-4,1.757421 0.0073,3.195312 0.01808,3.195312 0.01078,0 0.847495,-0.413959 1.859375,-0.919909 L 16,12.722682 l -5.62e-4,0.302721 -5.63e-4,0.302722 -1.960375,0.976848 C 12.937381,14.853657 12.043882,15.280698 12,15.279258 11.957031,15.277849 10.578906,14.602895 8.9375,13.779363 Z M 11.748491,11.367188 11.746982,8.171875 9.0524944,6.8305012 C 7.5705259,6.0927456 6.3406697,5.4833484 6.3194803,5.4762853 6.2890784,5.4661512 6.2826328,6.1373281 6.2889144,8.6590972 L 6.296875,11.854751 9,13.208346 c 1.486719,0.744477 2.713672,1.353721 2.726563,1.353874 0.01289,1.57e-4 0.02276,-1.437611 0.02193,-3.195032 z M 5.75,8.515625 V 5.28125 H 3.515625 1.28125 V 8.515625 11.75 H 3.515625 5.75 Z"
       id="path819"
       inkscape:connector-curvature="0" />
  </g>
</svg>
