<?xml version="1.0" encoding="UTF-8" standalone="no"?>
<!-- Created with Inkscape (http://www.inkscape.org/) -->

<svg
   version="1.1"
   id="svg2"
   width="1600"
   height="1600"
   viewBox="0 0 1600 1600"
   sodipodi:docname="selectiontogrid.svg"
   inkscape:version="1.2.2 (732a01da63, 2022-12-09)"
   xmlns:inkscape="http://www.inkscape.org/namespaces/inkscape"
   xmlns:sodipodi="http://sodipodi.sourceforge.net/DTD/sodipodi-0.dtd"
   xmlns="http://www.w3.org/2000/svg"
   xmlns:svg="http://www.w3.org/2000/svg"
   xmlns:rdf="http://www.w3.org/1999/02/22-rdf-syntax-ns#"
   xmlns:cc="http://creativecommons.org/ns#"
   xmlns:dc="http://purl.org/dc/elements/1.1/">
  <metadata
     id="metadata8">
    <rdf:RDF>
      <cc:Work
         rdf:about="">
        <dc:format>image/svg+xml</dc:format>
        <dc:type
           rdf:resource="http://purl.org/dc/dcmitype/StillImage" />
      </cc:Work>
    </rdf:RDF>
  </metadata>
  <defs
     id="defs6" />
  <sodipodi:namedview
     pagecolor="#808080"
     bordercolor="#666666"
     borderopacity="1"
     objecttolerance="10"
     gridtolerance="10"
     guidetolerance="10"
     inkscape:pageopacity="0"
     inkscape:pageshadow="2"
     inkscape:window-width="2560"
     inkscape:window-height="1009"
     id="namedview4"
     showgrid="false"
     inkscape:zoom="0.5"
     inkscape:cx="506"
     inkscape:cy="880"
     inkscape:window-x="-8"
     inkscape:window-y="-8"
     inkscape:window-maximized="1"
     inkscape:current-layer="SELECTIONTOGRID"
     inkscape:showpageshadow="0"
     inkscape:pagecheckerboard="true"
     inkscape:deskcolor="#d1d1d1" />
  <g
     id="SELECTIONTOGRID"
     transform="scale(99.999883)"
     style="stroke-width:0.01">
    <path
       style="fill:none;stroke-width:0.000312501"
       d="M 0,8 V 0 h 8 8 L 15.9972,4.6328125 C 15.9948,8.6745384 15.9889,9.2351897 15.95122,9.0270797 15.885997,8.6667459 15.684819,8.0870706 15.491627,7.7028112 15.235691,7.1937556 14.989407,6.8716134 14.464569,6.35941 L 14,5.9060256 V 3.4530128 1 H 7.5 1 V 7.5 14 H 3.5 6 v 0.608203 c 0,0.530245 0.00795,0.629463 0.062058,0.774069 0.079481,0.212431 0.3356794,0.471177 0.5490025,0.554461 0.1542438,0.06022 0.1475519,0.06035 -3.2282484,0.0618 L 0,16 Z m 9.3889391,7.936733 C 9.6022622,15.853449 9.8584609,15.594703 9.9379416,15.382272 9.9920456,15.237666 10,15.138448 10,14.608203 V 14 h 1 1 v 0.608203 c 0,0.530245 0.008,0.629463 0.06206,0.774069 0.07948,0.212431 0.33568,0.471177 0.549003,0.554461 l 0.154564,0.06034 H 11 9.234375 Z m 6.0022339,-3.35e-4 c 0.203455,-0.0783 0.464772,-0.340528 0.54556,-0.547458 l 0.06034,-0.154564 0.0015,0.382812 L 16,16 15.617188,15.9984 15.234375,15.9968 15.391173,15.93645 Z"
       id="path825"
       inkscape:connector-curvature="0" />
    <path
       style="fill:#fefefe;stroke-width:0.000312501"
       d="M 6.6110609,15.936733 C 6.3977378,15.853449 6.1415391,15.594703 6.0620584,15.382272 6.0017006,15.220951 6.0000509,15.135293 6.0018628,12.25664 6.0028878,10.628769 6.0147206,9.2300781 6.0281587,9.1484375 6.0415969,9.0667969 6.0407584,9 6.0262962,9 6.0118331,9 6,8.325 6,7.5 V 6 H 6.9541287 7.9082572 L 8.1494412,5.8317222 C 8.6385356,5.4904734 9.4452284,5.1540991 10.02708,5.048785 10.227393,5.012528 10.244339,5.005159 10.132812,5.002804 L 10,5 V 3.5 2 H 11.5 13 V 3.5 5 l -0.632812,0.0028 -0.632813,0.0028 0.238545,0.043177 c 0.603742,0.1092763 1.42381,0.4579753 1.93333,0.8220669 0.330618,0.2362525 0.998483,0.9058878 1.235248,1.2385231 0.361601,0.5080194 0.704649,1.3290553 0.811627,1.9425128 C 15.992561,9.2780241 16,9.7885356 16,12.268544 c 0,3.385817 0.02104,3.136241 -0.290274,3.443685 -0.29075,0.287138 -0.294494,0.287769 -1.708889,0.287769 -1.420727,0 -1.42754,-0.0012 -1.713068,-0.290274 C 12.003763,15.422148 12,15.401215 12,14.10904 V 13 h -1 -1 v 1.10904 c 0,1.292175 -0.00376,1.313108 -0.2877691,1.600686 -0.2860772,0.289676 -0.2910996,0.290518 -1.7212156,0.288812 -1.1345691,-0.0014 -1.2368459,-0.0059 -1.3799544,-0.0618 z M 9.0068197,12.304688 9.015625,9.609375 9.0993566,9.3801588 C 9.2183028,9.0545409 9.3599528,8.8302109 9.5950819,8.5950819 9.8319822,8.3581816 10.057859,8.2161919 10.380159,8.1015703 10.580601,8.0302856 10.658412,8.0200525 11,8.0200525 c 0.341588,0 0.419399,0.010233 0.619841,0.081518 0.3223,0.1146216 0.548177,0.2566113 0.785077,0.4935116 0.235129,0.235129 0.376779,0.459459 0.495725,0.7850769 l 0.08373,0.2292162 0.0088,2.6953128 L 13.001986,15 h 1.000109 1.000109 l -0.0099,-2.820312 -0.0099,-2.820313 -0.08264,-0.3125 C 14.502955,7.5462697 13.405116,6.4620812 11.90625,6.0905794 11.64557,6.0259684 11.53508,6.0169972 11,6.0169972 c -0.53508,0 -0.64557,0.00897 -0.90625,0.073582 C 8.5948844,6.4620812 7.4970453,7.5462697 7.1002325,9.046875 l -0.082636,0.3125 -0.0099,2.820313 L 6.9977959,15 H 7.9979053 8.9980144 Z M 11.960285,9.8755313 C 11.920929,9.5821122 11.682073,9.2671816 11.38981,9.1233625 11.266794,9.0628278 11.185492,9.046875 11,9.046875 c -0.185492,0 -0.266794,0.015953 -0.38981,0.076488 -0.292263,0.1438191 -0.531119,0.4587497 -0.570475,0.7521688 L 10.023021,10 H 11 11.976979 Z M 2,11.5 V 10 H 3.5 5 V 11.5 13 H 3.5 2 Z m 0,-4 V 6 H 3.5 5 V 7.5 9 H 3.5 2 Z m 0,-4 V 2 H 3.5 5 V 3.5 5 H 3.5 2 Z m 4,0 V 2 H 7.5 9 V 3.5 5 H 7.5 6 Z"
       id="path823"
       inkscape:connector-curvature="0" />
    <path
       style="fill:#98cbfe;stroke-width:0.000312501"
       d="M 7,13.5 V 12 H 8 9 V 13.5 15 H 8 7 Z m 6,0 V 12 h 1 1 v 1.5 1.5 h -1 -1 z"
       id="path821"
       inkscape:connector-curvature="0" />
    <path
       style="fill:#323232;stroke-width:0.000312501"
       d="M 1,7.5 V 1 H 7.5 14 V 3.4677034 5.9354069 L 13.804688,5.7995037 C 13.358806,5.4892491 12.530168,5.1496456 11.97292,5.048785 L 11.734375,5.005608 12.367188,5.002808 13,5 V 3.5 2 H 11.5 10 V 3.5 5 l 0.132813,0.0028 C 10.244339,5.00515 10.227393,5.01252 10.02708,5.048781 9.4452284,5.1540978 8.6385356,5.4904722 8.1494413,5.8317209 L 7.9082572,6 H 6.9541287 6 V 7.5 C 6,8.325 6.011833,9 6.026296,9 6.040759,9 6.041597,9.066797 6.028156,9.1484375 6.014718,9.2300785 6.002885,10.355078 6.00186,11.648438 L 6,14 H 3.5 1 Z m 4,4 V 10 H 3.5 2 V 11.5 13 H 3.5 5 Z m 0,-4 V 6 H 3.5 2 V 7.5 9 H 3.5 5 Z m 0,-4 V 2 H 3.5 2 V 3.5 5 H 3.5 5 Z m 4,0 V 2 H 7.5 6 V 3.5 5 H 7.5 9 Z m 1,10 V 13 h 1 1 V 13.5 14 H 11 10 Z M 7.0078391,10.679688 C 7.0197606,9.3767666 7.0209931,9.3552588 7.1013941,9.046875 7.4909962,7.5525297 8.5946994,6.4621269 10.09375,6.0905794 10.35443,6.0259684 10.46492,6.0169972 11,6.0169972 c 0.53508,0 0.64557,0.00897 0.90625,0.073582 1.499051,0.3715475 2.602754,1.4619503 2.992356,2.9562956 0.0804,0.3083838 0.08163,0.3298916 0.09356,1.6328132 L 15.004242,12 h -1.000114 -1.000113 l -0.01088,-1.195312 -0.01088,-1.195313 -0.08268,-0.2292162 C 12.782721,9.0561478 12.640895,8.8310584 12.404918,8.5950819 12.168018,8.3581816 11.942141,8.2161919 11.619841,8.1015703 11.419399,8.0302856 11.341588,8.0200525 11,8.0200525 c -0.341588,0 -0.419399,0.010233 -0.619841,0.081518 C 10.057859,8.2161919 9.8319822,8.3581816 9.5950819,8.5950819 9.3591053,8.8310584 9.2172788,9.0561478 9.1004131,9.3801588 L 9.0177384,9.609375 9.0068619,10.804688 8.995985,12 H 7.9958719 6.9957584 Z M 10.039715,9.8755313 C 10.079071,9.5821122 10.317927,9.2671816 10.61019,9.1233625 10.733206,9.0628278 10.814508,9.046875 11,9.046875 c 0.185492,0 0.266794,0.015953 0.38981,0.076488 0.292263,0.1438191 0.531119,0.4587497 0.570475,0.7521688 L 11.976979,10 H 11 10.023021 Z"
       id="path819"
       inkscape:connector-curvature="0" />
  </g>
</svg>
