<?xml version="1.0" encoding="UTF-8" standalone="no"?>
<!-- Created with Inkscape (http://www.inkscape.org/) -->

<svg
   version="1.1"
   id="svg2"
   width="1600"
   height="1600"
   viewBox="0 0 1600 1600"
   sodipodi:docname="select_shortestpathpick.svg"
   inkscape:version="1.4 (86a8ad7, 2024-10-11)"
   xmlns:inkscape="http://www.inkscape.org/namespaces/inkscape"
   xmlns:sodipodi="http://sodipodi.sourceforge.net/DTD/sodipodi-0.dtd"
   xmlns="http://www.w3.org/2000/svg"
   xmlns:svg="http://www.w3.org/2000/svg"
   xmlns:rdf="http://www.w3.org/1999/02/22-rdf-syntax-ns#"
   xmlns:cc="http://creativecommons.org/ns#"
   xmlns:dc="http://purl.org/dc/elements/1.1/">
  <metadata
     id="metadata8">
    <rdf:RDF>
      <cc:Work
         rdf:about="">
        <dc:format>image/svg+xml</dc:format>
        <dc:type
           rdf:resource="http://purl.org/dc/dcmitype/StillImage" />
      </cc:Work>
    </rdf:RDF>
  </metadata>
  <defs
     id="defs6" />
  <sodipodi:namedview
     pagecolor="#808080"
     bordercolor="#666666"
     borderopacity="1"
     objecttolerance="10"
     gridtolerance="10"
     guidetolerance="10"
     inkscape:pageopacity="0"
     inkscape:pageshadow="2"
     inkscape:window-width="2560"
     inkscape:window-height="1009"
     id="namedview4"
     showgrid="false"
     inkscape:zoom="0.25"
     inkscape:cx="170"
     inkscape:cy="1028"
     inkscape:window-x="1912"
     inkscape:window-y="-8"
     inkscape:window-maximized="1"
     inkscape:current-layer="svg2"
     inkscape:showpageshadow="0"
     inkscape:pagecheckerboard="true"
     inkscape:deskcolor="#d1d1d1" />
  <g
     id="SELECT_SHORTESTPATH"
     transform="matrix(100,0,0,100,0,4.9999997e-5)"
     style="stroke-width:0.0114286"
     inkscape:label="SELECT_SHORTESTPATHPICK">
    <path
       style="fill:#fecb32;stroke-width:0.000357143"
       d="m 0,11.01665 v -0.9854 H 2.0151073 4.0302147 L 4.038545,7.3828125 4.046875,4.734375 4.1191412,4.5876603 C 4.2113775,4.4004022 4.4004022,4.2113775 4.5876603,4.1191412 L 4.734375,4.046875 10.367188,4.0388106 16,4.0307459 V 5.0153731 6 H 11 6 v 2.5898209 c 0,2.8337931 0.0072,2.7177671 -0.1847197,2.9787311 -0.1102175,0.149872 -0.2915956,0.287571 -0.4759,0.361294 -0.1251141,0.05005 -0.3489759,0.05523 -2.7378178,0.06335 L 0,12.00205 Z"
       id="path823"
       inkscape:connector-curvature="0" />
    <path
       style="fill:#6598cb;stroke-width:0.000357143"
       d="M 0,14 V 12 H 2.5 5 v 2 2 H 2.5 0 Z m 5.5,-0.0741 v -2.074097 l 0.1092981,-0.07434 C 5.8110916,11.640213 6,11.30773 6,11.089821 V 11 H 8.25 10.5 V 13.5 16 H 8 5.5 Z M 11,13.5 V 11 H 13.5 16 V 13.5 16 H 13.5 11 Z M 6,8.25 V 6 H 8.25 10.5 V 8.25 10.5 H 8.25 6 Z m 5,0 V 6 H 13.5 16 V 8.25 10.5 H 13.5 11 Z M 0,7.765625 V 5.5 H 2.015625 4.03125 V 7.765625 10.03125 H 2.015625 0 Z M 0,2.5 V 0 H 2.5 5 v 2.0115609 2.011561 L 4.862205,4.0386531 C 4.4627112,4.0836819 4.0836819,4.4627112 4.0386531,4.862205 L 4.0231219,5 H 2.0115609 0 Z M 5.5,2.015625 V 0 H 8 10.5 V 2.015625 4.03125 H 8 5.5 Z m 5.5,0 V 0 H 13.5 16 V 2.015625 4.03125 H 13.5 11 Z"
       id="path821"
       inkscape:connector-curvature="0" />
    <path
       style="fill:#323232;stroke-width:0.000357143"
       d="m 5,14.000595 v -1.999404 l 0.085937,-0.01764 c 0.1098419,-0.02255 0.3139444,-0.07682 0.3704403,-0.0985 C 5.4934362,11.870832 5.5,12.179153 5.5,13.934157 V 16 H 5.25 5 Z M 10.5,13.5 V 11 H 8.25 6 V 10.75 10.5 H 8.25 10.5 V 8.25 6 H 10.75 11 V 8.25 10.5 H 13.5 16 V 10.75 11 H 13.5 11 V 13.5 16 H 10.75 10.5 Z M 0,5.25 V 5 H 2.015625 4.03125 V 5.25 5.5 H 2.015625 0 Z M 5,2.015625 V 0 H 5.25 5.5 V 2.015625 4.03125 H 5.25 5 Z m 5.5,0 V 0 H 10.75 11 V 2.015625 4.03125 H 10.75 10.5 Z"
       id="path819"
       inkscape:connector-curvature="0" />
    <g
       id="SELECT_ROOT"
       transform="translate(0.052094)"
       style="stroke-width:0.00999994"
       inkscape:label="SELECT">
      <path
         style="fill:none;stroke-width:0.0003125"
         d="M 0,8 V 0 H 1.5 3 V 5.5 11 H 2.5 2 V 13.5 16 H 1 0 Z m 7,5.5 V 11 H 6.5 6 V 5.5 0 h 4.999759 4.999759 l -6e-6,7.95114 c -5e-6,7.169584 -0.0048,7.955943 -0.04887,8 C 15.90679,15.994996 15.445947,16 11.450893,16 H 7 Z m 5.731956,2.33115 c 0.05772,-0.02412 0.485987,-0.270544 0.9517,-0.547613 0.639025,-0.380179 0.858355,-0.5262 0.894048,-0.595223 0.107989,-0.208827 0.08817,-0.263129 -0.593329,-1.625814 -0.352344,-0.704524 -0.640625,-1.295082 -0.640625,-1.312351 0,-0.02044 0.388108,-0.0314 1.112366,-0.0314 1.218871,0 1.22559,-9.5e-4 1.336523,-0.188745 0.05964,-0.100968 0.06548,-0.32833 0.01094,-0.42634 C 15.782705,11.06615 14.278161,9.4318425 12.460148,7.4718709 8.8398978,3.5689331 9.0543606,3.7788975 8.7905972,3.8792869 8.7238725,3.9046822 8.6421919,3.9696159 8.6020594,4.0291687 L 8.53125,4.1342428 v 5.1077444 c 0,4.6722458 0.00436,5.1151218 0.051111,5.1942678 0.1030975,0.174531 0.3794844,0.252112 0.5403641,0.151679 0.036174,-0.02258 0.4466537,-0.438325 0.9121759,-0.923871 0.465522,-0.485547 0.855532,-0.88262 0.866689,-0.882384 0.01116,2.5e-4 0.322629,0.654787 0.69216,1.454556 0.369531,0.79977 0.701678,1.482333 0.738103,1.516806 0.05652,0.0535 0.184253,0.109771 0.270713,0.119273 0.01344,0.0015 0.07167,-0.01705 0.12939,-0.04116 z M 8.6477866,0.04361979 C 8.6374025,0.03323568 8.6104491,0.03212548 8.5878906,0.0411527 c -0.024929,0.0099758 -0.017524,0.01738071 0.01888,0.0188802 0.032942,0.0013569 0.0514,-0.006029 0.041016,-0.01641311 z m 0.25,0 C 8.8874025,0.03323568 8.8604491,0.03212548 8.8378906,0.0411527 c -0.024929,0.0099758 -0.017524,0.01738071 0.01888,0.0188802 0.032942,0.0013569 0.0514,-0.006029 0.041016,-0.01641311 z m 0.25,0 C 9.1374025,0.03323568 9.1104491,0.03212548 9.0878906,0.0411527 c -0.024929,0.0099758 -0.017524,0.01738071 0.01888,0.0188802 0.032942,0.0013569 0.0514,-0.006029 0.041016,-0.01641311 z"
         id="path853"
         inkscape:connector-curvature="0" />
      <path
         style="fill:#fefefe;stroke-width:0.0003125"
         d="m 12.755798,14.79119 c -0.01646,-0.03125 -0.334946,-0.717752 -0.707745,-1.525565 -0.756429,-1.639098 -0.756977,-1.63997 -1.031248,-1.641507 l -0.15743,-8.83e-4 -0.756957,0.77432 -0.7569558,0.77432 -8.563e-4,-3.9211647 -8.559e-4,-3.921165 0.073581,0.077415 c 0.040469,0.042578 0.965079,1.0399525 2.054687,2.2163875 1.089609,1.176435 2.210158,2.3858102 2.490109,2.6875002 l 0.509001,0.548527 -0.962126,0.01563 c -0.645338,0.01048 -0.982706,0.02754 -1.024627,0.05182 -0.128527,0.07443 -0.210353,0.19419 -0.225698,0.330338 -0.01438,0.127556 0.02973,0.226164 0.706744,1.579937 0.397143,0.79414 0.722079,1.449173 0.722079,1.455628 0,0.0065 -0.172266,0.114363 -0.382812,0.239795 -0.210547,0.125433 -0.413446,0.247731 -0.450887,0.271774 -0.06032,0.03874 -0.07148,0.03725 -0.098,-0.0131 z"
         id="path851"
         inkscape:connector-curvature="0" />
      <path
         style="fill:#cfcecd;stroke-width:0.0003125"
         d="m 8.5878906,0.04115269 c 0.022559,-0.0090272 0.049512,-0.007917 0.059896,0.0024671 0.010384,0.01038412 -0.00807,0.01777001 -0.041016,0.0164131 -0.036405,-0.0014995 -0.043809,-0.0089044 -0.01888,-0.0188802 z m 0.25,0 c 0.022559,-0.0090272 0.049512,-0.007917 0.059896,0.0024671 0.010384,0.01038412 -0.00807,0.01777001 -0.041016,0.0164131 -0.036405,-0.0014995 -0.043809,-0.0089044 -0.01888,-0.0188802 z m 0.25,0 c 0.022559,-0.0090272 0.049512,-0.007917 0.059896,0.0024671 0.010384,0.01038412 -0.00807,0.01777001 -0.041016,0.0164131 -0.036405,-0.0014995 -0.043809,-0.0089044 -0.01888,-0.0188802 z"
         id="path849"
         inkscape:connector-curvature="0" />
      <path
         style="fill:#000000;stroke-width:0.0003125"
         d="m 15.924116,15.976563 c 0.01556,-0.01289 0.03878,-0.0375 0.0516,-0.05469 0.01331,-0.01783 0.02353,-0.0078 0.0238,0.02344 2.81e-4,0.0304 -0.02265,0.05469 -0.05161,0.05469 -0.02865,0 -0.03936,-0.01055 -0.0238,-0.02344 z M 12.48197,15.825567 c -0.06743,-0.02308 -0.144802,-0.06921 -0.171944,-0.102512 -0.02714,-0.0333 -0.34988,-0.708827 -0.717196,-1.501174 -0.367316,-0.792347 -0.682609,-1.439322 -0.700651,-1.437721 -0.01804,0.0016 -0.412492,0.401008 -0.876554,0.887572 -0.4640625,0.486565 -0.8760522,0.900099 -0.9155328,0.918965 -0.039481,0.01887 -0.1275778,0.0343 -0.1957716,0.0343 -0.097603,0 -0.1488284,-0.02276 -0.2407172,-0.106972 L 8.546875,14.411057 8.5387853,9.2799778 c -0.00805,-5.1044381 -0.00776,-5.1316106 0.05518,-5.2334515 0.034798,-0.056305 0.1136338,-0.1262719 0.17519,-0.1554822 0.1618025,-0.07678 0.3032944,-0.040666 0.4660722,0.1189609 0.073259,0.071841 0.9469585,1.0095262 1.9415535,2.083745 0.994595,1.0742187 2.426934,2.6194622 3.182975,3.4338747 0.75604,0.8144123 1.400964,1.5216123 1.433163,1.5715563 0.04484,0.06955 0.05493,0.128471 0.04309,0.251687 -0.01298,0.135057 -0.03359,0.177494 -0.128397,0.264381 l -0.112939,0.103501 h -1.125459 c -0.733028,0 -1.125459,0.01095 -1.125459,0.0314 0,0.01727 0.288281,0.607827 0.640625,1.312351 0.710864,1.421398 0.72359,1.459106 0.558603,1.655183 -0.08428,0.100165 -1.701012,1.081767 -1.853942,1.125627 -0.0519,0.01489 -0.131736,0.008 -0.207066,-0.01774 z m 0.787983,-1.265671 c 0.229651,-0.138184 0.417547,-0.257178 0.417547,-0.264429 0,-0.0073 -0.323438,-0.660828 -0.71875,-1.452392 -0.490704,-0.982574 -0.718713,-1.471053 -0.718633,-1.539578 1.56e-4,-0.122628 0.09231,-0.280697 0.207869,-0.356487 0.07675,-0.05034 0.189824,-0.05806 1.053821,-0.07201 l 0.967851,-0.01563 -2.44674,-2.640625 C 10.687211,6.7664062 9.5316319,5.5220819 9.4649641,5.4535847 L 9.34375,5.3290441 V 9.2600238 13.191003 L 9.7877316,12.728314 C 10.8454,11.62608 10.846603,11.624987 11.001635,11.625117 c 0.26758,2.19e-4 0.289565,0.02939 0.721277,0.956747 0.215077,0.462006 0.537673,1.159523 0.716881,1.550037 0.232854,0.507416 0.338214,0.705633 0.369222,0.694632 0.02386,-0.0085 0.231286,-0.128453 0.460938,-0.266637 z m 2.706678,-6.575521 c 3.47e-4,-0.06875 0.0067,-0.093195 0.01422,-0.054323 0.0075,0.038872 0.0072,0.095122 -6.31e-4,0.125 -0.0078,0.029878 -0.01394,-0.00193 -0.01359,-0.070677 z"
         id="path837"
         inkscape:connector-curvature="0" />
    </g>
  </g>
</svg>
