<?xml version="1.0" encoding="UTF-8" standalone="no"?>
<!-- Created with Inkscape (http://www.inkscape.org/) -->

<svg
   version="1.1"
   id="svg2"
   width="1600"
   height="1600"
   viewBox="0 0 1600 1600"
   sodipodi:docname="select_sideofactive.svg"
   inkscape:version="1.2.2 (732a01da63, 2022-12-09)"
   xmlns:inkscape="http://www.inkscape.org/namespaces/inkscape"
   xmlns:sodipodi="http://sodipodi.sourceforge.net/DTD/sodipodi-0.dtd"
   xmlns="http://www.w3.org/2000/svg"
   xmlns:svg="http://www.w3.org/2000/svg"
   xmlns:rdf="http://www.w3.org/1999/02/22-rdf-syntax-ns#"
   xmlns:cc="http://creativecommons.org/ns#"
   xmlns:dc="http://purl.org/dc/elements/1.1/">
  <metadata
     id="metadata8">
    <rdf:RDF>
      <cc:Work
         rdf:about="">
        <dc:format>image/svg+xml</dc:format>
        <dc:type
           rdf:resource="http://purl.org/dc/dcmitype/StillImage" />
      </cc:Work>
    </rdf:RDF>
  </metadata>
  <defs
     id="defs6" />
  <sodipodi:namedview
     pagecolor="#808080"
     bordercolor="#666666"
     borderopacity="1"
     objecttolerance="10"
     gridtolerance="10"
     guidetolerance="10"
     inkscape:pageopacity="0"
     inkscape:pageshadow="2"
     inkscape:window-width="1993"
     inkscape:window-height="1009"
     id="namedview4"
     showgrid="false"
     inkscape:zoom="0.5"
     inkscape:cx="181"
     inkscape:cy="24"
     inkscape:window-x="-8"
     inkscape:window-y="-8"
     inkscape:window-maximized="1"
     inkscape:current-layer="SELECT_SIDEOFACTIVE"
     inkscape:showpageshadow="0"
     inkscape:pagecheckerboard="true"
     inkscape:deskcolor="#d1d1d1" />
  <g
     id="SELECT_SIDEOFACTIVE"
     transform="matrix(100,0,0,100,0,4.9999997e-5)"
     style="stroke-width:0.0114286">
    <path
       style="fill:none;stroke-width:0.000357143"
       d="M 0,8 V 0 h 8 8 v 8 8 H 8 0 Z m 10.064473,6.287423 c 2.761275,-1.384294 3.885118,-1.955683 3.949657,-2.008102 0.03044,-0.02472 0.09596,-0.08254 0.145604,-0.12848 L 14.25,12.067308 V 8.5066181 c 0,-3.52876 -5.69e-4,-3.5614112 -0.06332,-3.641189 C 14.146949,4.8149203 13.748193,4.5959169 13.116367,4.2775953 9.4413347,2.4260718 8.0728281,1.75 8,1.75 7.9271719,1.75 6.5586653,2.4260718 2.8836335,4.2775953 2.2518074,4.5959169 1.8530511,4.8149203 1.813321,4.8654291 1.7505678,4.9452069 1.75,4.9778581 1.75,8.5066181 v 3.5606899 l 0.090266,0.08353 c 0.049646,0.04594 0.1151682,0.10376 0.1456043,0.12848 C 2.1394078,12.404024 7.9037041,15.28125 8,15.28125 c 0.045317,0 0.9698403,-0.445061 2.064473,-0.993827 z"
       id="path831"
       inkscape:connector-curvature="0" />
    <path
       style="fill:#98cbfe;stroke-width:0.000357143"
       d="M 8.9389166,7.0842184 C 8.71362,6.3209728 7.8983959,5.8508137 7.1419234,6.0478497 6.7854947,6.1406878 6.4134047,6.4092875 6.2163297,6.7160066 L 6.167895,6.7913878 4.39662,5.9059381 C 3.4224187,5.4189409 2.6300804,5.0157528 2.6358684,5.009965 2.6667625,4.9790709 7.9687384,2.34375 8,2.34375 c 0.031149,0 5.333179,2.6352625 5.36396,2.6660431 0.0078,0.00778 -2.693797,1.366846 -4.2423409,2.1341625 l -0.1440063,0.071356 z"
       id="path829"
       inkscape:connector-curvature="0" />
    <path
       style="fill:#fefe00;stroke-width:0.000357143"
       d="M 7,7.5 V 7 H 7.5 8 V 7.5 8 H 7.5 7 Z"
       id="path827"
       inkscape:connector-curvature="0" />
    <path
       style="fill:#fecb32;stroke-width:0.000357143"
       d="M 8.28125,11.683204 V 8.8054559 L 8.4995191,8.6033722 C 8.6711947,8.4444269 8.7419375,8.3501191 8.8309181,8.1615819 8.8931397,8.0297431 8.9543419,7.9012769 8.9669228,7.8761009 8.9795041,7.8509253 9.67764,7.4837537 10.518336,7.0601637 12.619774,6.0013419 13.685859,5.46875 13.703856,5.46875 c 0.0084,0 0.01161,1.4368634 0.0072,3.1930297 l -0.008,3.1930293 -2.640625,1.324203 c -1.4523438,0.72831 -2.6722656,1.337193 -2.7109375,1.353071 l -0.070312,0.02887 z"
       id="path825"
       inkscape:connector-curvature="0" />
    <path
       style="fill:#6598cb;stroke-width:0.000357143"
       d="M 5,13.208346 2.296875,11.854751 2.2889151,8.6617506 c -0.00438,-1.7561503 0.00265,-3.1922222 0.015625,-3.1912709 0.023423,0.00172 0.728112,0.3544215 2.6784952,1.3406131 L 6,7.3253109 V 7.49984 C 6,8.316005 6.6940397,9 7.5221906,9 H 7.71875 v 2.78125 c 0,1.529688 -0.00352,2.781124 -0.00781,2.78097 C 7.7066406,14.562064 6.4867187,13.952823 5,13.208346 Z"
       id="path823"
       inkscape:connector-curvature="0" />
    <path
       style="fill:#fe0032;stroke-width:0.000357143"
       d="M 7.1285103,8.9506078 C 6.3361416,8.7375131 5.8459466,7.9170816 6.0478497,7.1419234 6.2569144,6.33927 7.0760953,5.8441694 7.8580766,6.0478497 8.6583753,6.2563012 9.1557937,7.0762359 8.9533853,7.8533344 8.7424103,8.6633228 7.91352,9.1617234 7.1285103,8.9506078 Z M 8,7.5 V 7 H 7.5 7 V 7.5 8 H 7.5 8 Z"
       id="path821"
       inkscape:connector-curvature="0" />
    <path
       style="fill:#323232;stroke-width:0.000357143"
       d="M 5.9355272,14.287423 C 3.1742516,12.903129 2.0504094,12.33174 1.9858702,12.279321 1.9554341,12.254601 1.8899121,12.196785 1.8402659,12.150841 L 1.75,12.067308 V 8.5066181 c 0,-3.52876 5.678e-4,-3.5614112 0.063321,-3.641189 C 1.8530511,4.8149203 2.2518074,4.5959169 2.8836335,4.2775953 6.5586653,2.4260718 7.9271719,1.75 8,1.75 c 0.072828,0 1.4413347,0.6760718 5.116367,2.5275953 0.631826,0.3183216 1.030582,0.537325 1.070312,0.5878338 0.06275,0.079778 0.06332,0.112429 0.06332,3.641189 v 3.5606899 l -0.09027,0.08353 c -0.04965,0.04594 -0.115168,0.10376 -0.145604,0.12848 C 13.860592,12.404024 8.0962959,15.28125 8,15.28125 c -0.045318,0 -0.9698403,-0.445061 -2.0644728,-0.993827 z M 7.8361037,8.95726 C 7.9004657,8.946576 8.0268803,8.903284 8.1170259,8.861055 l 0.163901,-0.07678 0.00797,2.888485 0.00797,2.888484 L 11,13.207998 l 2.703125,-1.353247 0.008,-3.1930004 c 0.0044,-1.7561503 -0.0027,-3.1922222 -0.01563,-3.1912709 -0.01297,9.5e-4 -0.391895,0.1872794 -0.842052,0.4140625 C 12.403252,6.1113253 11.34847,6.6425016 10.50945,7.0649337 L 8.9839572,7.8329925 8.98948,7.5214616 8.9950025,7.2099303 11.17517,6.1200047 C 12.374263,5.5205453 13.359829,5.0255878 13.365318,5.0200987 13.379888,5.0055294 8.0437772,2.34375 8,2.34375 c -0.043594,0 -5.3799195,2.6617472 -5.3654114,2.6762553 0.00544,0.00544 0.8039545,0.4074575 1.774482,0.8933781 L 6.1736662,6.796875 6.1034181,6.96875 c -0.038636,0.094531 -0.07068,0.2026856 -0.071208,0.2403431 -5.281e-4,0.037658 -0.013813,0.076412 -0.029521,0.08612 C 5.9869806,7.3049213 5.5223753,7.0842669 4.9702325,6.8048697 3.1097572,5.8634256 2.3282478,5.4722181 2.3045401,5.4704797 2.2915685,5.4695297 2.2845372,6.9056003 2.2889151,8.6617506 L 2.296875,11.854751 5,13.207998 l 2.703125,1.353246 0.00798,-2.792279 0.00798,-2.7922803 z"
       id="path819"
       inkscape:connector-curvature="0" />
  </g>
</svg>
