<?xml version="1.0" encoding="UTF-8" standalone="no"?>
<!-- Created with Inkscape (http://www.inkscape.org/) -->

<svg
   version="1.1"
   id="svg2"
   width="1600"
   height="1600"
   viewBox="0 0 1600 1600"
   sodipodi:docname="self_object.svg"
   inkscape:version="1.2.2 (732a01da63, 2022-12-09)"
   xmlns:inkscape="http://www.inkscape.org/namespaces/inkscape"
   xmlns:sodipodi="http://sodipodi.sourceforge.net/DTD/sodipodi-0.dtd"
   xmlns="http://www.w3.org/2000/svg"
   xmlns:svg="http://www.w3.org/2000/svg">
  <defs
     id="defs6" />
  <sodipodi:namedview
     id="namedview4"
     pagecolor="#808080"
     bordercolor="#000000"
     borderopacity="0.25"
     inkscape:showpageshadow="2"
     inkscape:pageopacity="0"
     inkscape:pagecheckerboard="true"
     inkscape:deskcolor="#d1d1d1"
     showgrid="false"
     inkscape:zoom="0.5"
     inkscape:cx="901"
     inkscape:cy="450"
     inkscape:window-width="1993"
     inkscape:window-height="1009"
     inkscape:window-x="-8"
     inkscape:window-y="-8"
     inkscape:window-maximized="1"
     inkscape:current-layer="svg2" />
  <g
     id="SELF_OBJECT"
     style="stroke-width:0.0114286"
     transform="matrix(100,0,0,100,0,4.9999997e-5)">
    <path
       style="fill:none;stroke-width:0.000357143"
       d="M 1.9140625,15.998508 0,16 V 8 0 L 0.8828125,0.0014617 1.765625,0.0029234 1.6110609,0.06326715 1.4564969,0.1236109 1.290307,0.28773643 1.1241171,0.45186197 1.0620585,0.61772825 1,0.78359453 V 3.5008372 6.2180797 L 1.061838,6.3808244 1.123676,6.5435694 1.2877692,6.7097262 1.451862,6.8758828 1.6177282,6.9379416 1.7835945,7 H 4.5 7.2164053 L 7.3822719,6.9379416 7.5481381,6.8758828 7.7122309,6.7097262 7.8763237,6.5435694 7.9381619,6.3808244 8,6.2180797 V 5.6090397 5 h 1 1 V 4.7483547 4.4967094 l 0.976563,0.012186 0.976562,0.012186 0.240158,0.049002 0.240158,0.049002 0.212783,0.10452 0.212782,0.1045197 0.17206,0.1720594 0.172059,0.1720593 0.10452,0.2127825 0.10452,0.2127826 0.04283,0.2401581 0.04283,0.2401581 v 1.9375 1.9375 l -0.0422,0.2365449 -0.0422,0.236546 -0.08209,0.173517 -0.08209,0.173517 -0.114872,0.150443 -0.114871,0.150442 -0.01235,-0.03707 L 12.994792,11 h -0.995093 -0.995092 l -0.01035,-0.632812 -0.01035,-0.632813 -0.07715,-0.15625 -0.07715,-0.15625 -0.125745,-0.1257456 -0.125746,-0.1257457 -0.15625,-0.077379 -0.15625,-0.077379 H 7 3.734375 l -0.15625,0.077379 -0.15625,0.077379 -0.1257456,0.1257457 -0.1257456,0.1257456 -0.077379,0.15625 -0.077379,0.15625 -0.00866,2.703125 -0.00866,2.703125 0.050297,0.154356 0.050297,0.154355 0.092069,0.133818 0.092069,0.133817 0.1320915,0.09088 0.1320916,0.09088 0.1404565,0.04914 0.1404566,0.04914 -1.9140625,0.0015 z m 11.1718755,0 -2.914063,-0.0015 0.140457,-0.04914 0.140456,-0.04914 0.132092,-0.09088 0.132091,-0.09088 0.09076,-0.131923 0.09075,-0.131923 0.05076,-0.14953 L 11,15.154066 V 14.577033 14 h 1 1 v -0.313481 -0.313481 l 0.05469,-0.0186 0.05469,-0.0186 0.260107,-0.103617 0.260107,-0.103617 0.239893,-0.147725 0.239893,-0.147724 0.361893,-0.361892 0.361892,-0.361893 0.147724,-0.239893 0.147725,-0.239893 0.108823,-0.266921 0.108822,-0.266921 0.06906,-0.258811 0.06906,-0.258811 V 8.01562 5.45312 L 15.415315,5.1943141 15.346254,4.9355031 15.237432,4.6685822 15.128609,4.4016612 14.980884,4.1617681 14.83316,3.921875 14.471268,3.5599825 14.109375,3.19809 13.869482,3.0503655 13.629589,2.902641 13.362668,2.7938184 13.095747,2.6849959 12.852561,2.6249525 12.609375,2.5649091 12.305919,2.5324545 12.002463,2.5 H 11.001232 10 V 2.25 2 H 9 8 V 1.3917973 0.78359453 L 7.9379416,0.61772825 7.8758828,0.45186197 7.7096931,0.28773643 7.5435031,0.1236109 7.3889391,0.06326715 7.234375,0.0029234 11.617188,0.0014617 16,0 v 8 8 l -2.914062,-0.0015 z"
       id="path331" />
    <path
       style="fill:#98cbfe;stroke-width:0.000357143"
       d="M 13.027362,12.8125 H 13 l 8.41e-4,-0.554687 8.4e-4,-0.554688 0.127814,-0.07813 0.127813,-0.07813 0.195518,-0.210471 0.195517,-0.210471 0.112067,-0.227029 0.112068,-0.227029 0.05595,-0.203125 0.05595,-0.203125 v -2.25 -2.25 L 13.928427,5.5625 13.872478,5.359375 13.757549,5.125 13.642619,4.890625 13.391622,4.6396278 13.140625,4.3886309 12.90625,4.2737016 12.671875,4.1587725 12.484375,4.1147081 12.296875,4.0706441 12.107494,4.0353222 11.918113,4 H 10.959056 10 V 3.5 3 h 0.938732 0.938731 l 0.303456,0.033123 0.303456,0.033123 0.198838,0.04537 0.198838,0.04537 0.238662,0.095316 0.238662,0.095315 0.234232,0.1456918 0.234232,0.1456919 0.244457,0.2335528 0.244457,0.2335525 0.171904,0.2583569 0.171905,0.2583566 0.106425,0.2589031 0.106425,0.2589028 0.05548,0.234375 0.05548,0.234375 v 2.421875 2.4218746 l -0.05505,0.214463 -0.05506,0.214463 -0.09531,0.238662 -0.09532,0.238662 -0.145691,0.234232 -0.145692,0.234232 -0.233553,0.244457 -0.233553,0.244457 -0.251634,0.167025 -0.251635,0.167024 -0.183576,0.08085 -0.183576,0.08085 z"
       id="path329" />
    <path
       style="fill:#cbcbcb;stroke-width:0.000357143"
       d="M 7,15 H 4 V 12.5 10 h 3 3 V 12.5 15 Z M 7,14 H 9 V 13.5 13 H 7 5 v 0.5 0.5 z"
       id="path327" />
    <path
       style="fill:#fefe00;stroke-width:0.000357143"
       d="M 1.8828125,6.9985384 1.765625,6.9970759 1.6110609,6.9367322 1.4564969,6.8763884 1.290307,6.7122628 1.1241171,6.5481375 1.0620585,6.3822719 1,6.2164053 V 3.5 0.78359453 L 1.0620585,0.61772825 1.1241171,0.45186197 1.2902738,0.28776918 1.4564306,0.1236764 1.6191755,0.0618382 1.7819204,0 H 4.5 7.2180797 L 7.3808244,0.0618382 7.5435694,0.1236764 7.7097262,0.28776918 7.8758828,0.45186197 7.9379416,0.61772825 8,0.78359453 V 0.89179728 1 H 5 2 V 4 7 L 1.8828125,6.99854 Z"
       id="path325" />
    <path
       style="fill:#fecb32;stroke-width:0.000357143"
       d="M 4.5,6 H 2 V 3.5 1 H 4.5 7 V 3.5 6 Z"
       id="path323" />
    <path
       style="fill:#fe9832;stroke-width:0.000357143"
       d="M 11.5,13 H 11 V 12.5 12 H 11.5 12 V 12.5 13 Z M 8.5,4 H 8 V 3.5 3 H 8.5 9 V 3.5 4 Z"
       id="path321" />
    <path
       style="fill:#3265fe;stroke-width:0.000357143"
       d="M 13.164063,13.314555 13,13.371634 v -0.272296 -0.272295 l 0.191658,-0.07613 0.191657,-0.07613 0.269516,-0.177555 0.269515,-0.177554 0.234952,-0.245922 0.234952,-0.245921 0.145692,-0.234232 0.145691,-0.234232 0.09532,-0.238662 0.09531,-0.238662 0.05506,-0.214463 0.05505,-0.214463 V 8.03125 5.609375 L 14.928893,5.375 14.873412,5.140625 14.766987,4.8817222 14.660562,4.6228191 14.488657,4.3644625 14.316753,4.1061056 14.072296,3.8725531 13.827839,3.6390003 13.593607,3.4933084 13.359375,3.3476166 13.120713,3.2523013 12.882051,3.1569856 12.683213,3.1116158 12.484375,3.0662458 12.180919,3.0331229 11.877463,3 H 10.938732 10 V 2.75 2.5 h 1.001232 1.001231 l 0.303456,0.032455 0.303456,0.032455 0.243186,0.060043 0.243186,0.060043 0.266921,0.1088225 0.266921,0.1088226 0.239893,0.1477245 0.239893,0.1477245 0.361893,0.3618925 0.361892,0.3618925 0.147724,0.2398931 0.147725,0.2398931 0.108823,0.266921 0.108822,0.2669209 0.06906,0.258811 0.06906,0.2588109 v 2.5625 2.5624999 l -0.06906,0.258811 -0.06906,0.258811 -0.108822,0.266921 -0.108823,0.266921 -0.14894,0.239893 -0.148939,0.239893 -0.313803,0.323462 -0.313802,0.323461 -0.252605,0.168143 -0.252606,0.168142 -0.184894,0.08245 -0.184895,0.08245 z M 13.028444,11.6875 H 13 v -0.297794 -0.297795 l 0.122654,-0.155169 0.122654,-0.155169 0.08406,-0.177679 0.08405,-0.177678 0.0422,-0.236546 0.0422,-0.236545 v -1.9375 -1.9375 L 13.454992,5.8379669 13.412165,5.5978087 13.307645,5.3850262 13.203125,5.1722437 13.031066,5.0001844 12.859006,4.828125 12.646224,4.7236053 12.433441,4.6190853 12.193283,4.5700831 11.953125,4.5210809 10.976562,4.5088953 10,4.4967094 V 4.2483547 4 h 0.959056 0.959057 l 0.189381,0.035322 0.189381,0.035322 0.1875,0.044064 0.1875,0.044064 0.234375,0.1149291 0.234375,0.1149293 0.250997,0.2509969 0.250997,0.2509972 0.114929,0.234375 0.114929,0.234375 0.05595,0.203125 0.05595,0.203125 v 2.25 2.2499995 l -0.05595,0.203125 -0.05595,0.203125 -0.108408,0.219624 -0.108409,0.219624 -0.146124,0.167042 -0.146124,0.167042 -0.153262,0.121146 -0.153263,0.121147 z"
       id="path319" />
    <path
       style="fill:#986500;stroke-width:0.000357143"
       d="M 4.6082028,7 H 2 V 6.5 6 H 4.5 7 V 5.5 5 H 7.5 8 v 0.6090397 0.60904 L 7.9381619,6.3808244 7.8763237,6.5435694 7.7122309,6.7097263 7.5481381,6.8758828 7.3822719,6.9379416 7.2164053,7 Z M 7.5,2 H 7 V 1.5 1 H 7.5 8 V 1.5 2 Z"
       id="path317" />
    <path
       style="fill:#653200;stroke-width:0.000357143"
       d="M 11.5,14 H 10 V 12.5 11 h 1.5 1.5 v 1.5 1.5 z m 0,-1 H 12 V 12.5 12 H 11.5 11 V 12.5 13 Z M 8.5,5 H 7 V 3.5 2 H 8.5 10 V 3.5 5 Z m 0,-1 H 9 V 3.5 3 H 8.5 8 V 3.5 4 Z"
       id="path315" />
    <path
       style="fill:#323232;stroke-width:0.000357143"
       d="m 7.046875,15.990993 -3.21875,0.0066 L 3.6876684,15.948173 3.5472119,15.898734 3.4151203,15.807853 3.2830288,15.716971 3.19096,15.583154 3.098891,15.449336 3.0485943,15.294981 2.9982976,15.140625 3.0069613,12.4375 3.015625,9.734375 3.0930044,9.578125 3.1703838,9.421875 3.2961294,9.2961294 3.421875,9.1703837 3.578125,9.0930044 3.734375,9.015625 H 7 10.265625 l 0.15625,0.077379 0.15625,0.077379 0.125746,0.1257457 0.125745,0.1257456 0.07715,0.15625 0.07715,0.15625 0.01035,0.6328127 L 11.004607,11 H 10.502303 10 V 10.5 10 H 7 4 v 2.5 2.5 h 3 3 V 14.5 14 h 0.502303 0.502304 l -0.01035,0.632813 -0.01035,0.632812 -0.07715,0.15625 -0.07715,0.15625 -0.125745,0.125746 -0.125746,0.125745 -0.15625,0.07738 -0.15625,0.07738 z M 7,14 H 5 V 13.5 13 h 2 2 v 0.5 0.5 z"
       id="path313" />
  </g>
</svg>
