<?xml version="1.0" encoding="UTF-8" standalone="no"?>
<!-- Created with Inkscape (http://www.inkscape.org/) -->

<svg
   version="1.1"
   id="svg2"
   width="1600"
   height="1600"
   viewBox="0 0 1600 1600"
   sodipodi:docname="separate_gp_layer.svg"
   inkscape:version="1.2.2 (732a01da63, 2022-12-09)"
   xmlns:inkscape="http://www.inkscape.org/namespaces/inkscape"
   xmlns:sodipodi="http://sodipodi.sourceforge.net/DTD/sodipodi-0.dtd"
   xmlns="http://www.w3.org/2000/svg"
   xmlns:svg="http://www.w3.org/2000/svg"
   xmlns:rdf="http://www.w3.org/1999/02/22-rdf-syntax-ns#"
   xmlns:cc="http://creativecommons.org/ns#"
   xmlns:dc="http://purl.org/dc/elements/1.1/">
  <metadata
     id="metadata8">
    <rdf:RDF>
      <cc:Work
         rdf:about="">
        <dc:format>image/svg+xml</dc:format>
        <dc:type
           rdf:resource="http://purl.org/dc/dcmitype/StillImage" />
      </cc:Work>
    </rdf:RDF>
  </metadata>
  <defs
     id="defs6" />
  <sodipodi:namedview
     pagecolor="#808080"
     bordercolor="#666666"
     borderopacity="1"
     objecttolerance="10"
     gridtolerance="10"
     guidetolerance="10"
     inkscape:pageopacity="0"
     inkscape:pageshadow="2"
     inkscape:window-width="1993"
     inkscape:window-height="1009"
     id="namedview4"
     showgrid="false"
     inkscape:zoom="0.5"
     inkscape:cx="249"
     inkscape:cy="46"
     inkscape:window-x="-8"
     inkscape:window-y="-8"
     inkscape:window-maximized="1"
     inkscape:current-layer="SEPARATE_GP_LAYER"
     inkscape:showpageshadow="0"
     inkscape:pagecheckerboard="true"
     inkscape:deskcolor="#d1d1d1" />
  <g
     id="SEPARATE_GP_LAYER"
     transform="matrix(100,0,0,100,0,4.9999997e-5)"
     style="stroke-width:0.0114286">
    <path
       style="fill:none;stroke-width:0.000357143"
       d="M 0,8 V 0 h 8 8 v 8 8 H 8 0 Z m 4.3040525,7.448516 c 0.045491,-0.03396 0.1117047,-0.100555 0.1471416,-0.14798 0.060741,-0.08129 0.06496,-0.134364 0.073673,-0.926795 l 0.00924,-0.840569 1.3400647,-0.0088 c 1.2976006,-0.0085 1.3427978,-0.01082 1.4263268,-0.07321 0.047444,-0.03544 0.1152563,-0.103265 0.1506932,-0.150729 0.062455,-0.08365 0.064431,-0.123063 0.064431,-1.28484 0,-1.161777 -0.00197,-1.201189 -0.064431,-1.28484 -0.035437,-0.04746 -0.1032488,-0.115292 -0.1506932,-0.150729 -0.083529,-0.06239 -0.1287262,-0.06471 -1.4263268,-0.07321 l -1.3400647,-0.0088 -0.00924,-0.8405686 C 4.5161544,8.8650784 4.5119353,8.8120034 4.4511941,8.7307141 4.30996,8.5417019 4.1239353,8.4705425 3.8845588,8.5139619 3.7792631,8.5330609 3.5833962,8.7171494 2.1764722,10.11933 c -0.907439,0.90438 -1.60788189,1.626933 -1.63281248,1.684354 -0.0518145,0.119341 -0.0562549,0.283352 -0.0109707,0.405219 0.0406427,0.109377 3.13528018,3.218098 3.26418608,3.279041 0.1284641,0.06073 0.4014441,0.03951 0.5071774,-0.03943 z m 7.8736005,0.05005 c 0.117362,-0.04361 3.22204,-3.141108 3.278576,-3.270995 0.0558,-0.128193 0.05584,-0.295518 1.25e-4,-0.423882 -0.02493,-0.05742 -0.725373,-0.779974 -1.632812,-1.684354 -1.406925,-1.4021806 -1.602791,-1.5862691 -1.708087,-1.6053681 -0.239377,-0.043419 -0.425401,0.02774 -0.566635,0.2167522 -0.06074,0.081289 -0.06496,0.1343643 -0.07367,0.9267953 l -0.0092,0.8405676 -1.340064,0.0088 c -1.2976009,0.0085 -1.3427981,0.01082 -1.4263272,0.07321 -0.047444,0.03544 -0.1152562,0.103265 -0.1506931,0.150729 -0.062455,0.08365 -0.064431,0.123062 -0.064431,1.28484 0,1.161777 0.00197,1.201189 0.064431,1.28484 0.035437,0.04746 0.1032487,0.115292 0.1506931,0.150729 0.083532,0.06239 0.1287141,0.06471 1.4277562,0.07321 l 1.341481,0.0088 v 0.793876 c 0,0.486485 0.01291,0.827939 0.03333,0.881848 0.09722,0.256597 0.407047,0.389438 0.675571,0.289658 z M 9.2324156,14.554699 10.417956,14.046875 9.5605406,14.03125 C 8.7266584,14.01605 8.6988366,14.0135 8.546875,13.93825 8.3512944,13.841389 8.1519831,13.64466 8.0768063,13.474268 8.045135,13.402483 8.0105722,13.34375 8,13.34375 c -0.010572,0 -0.045135,0.05873 -0.076806,0.130518 -0.075177,0.170392 -0.2744881,0.367121 -0.4700687,0.463978 -0.1516856,0.07512 -0.1808406,0.07784 -0.9980403,0.093 l -0.84179,0.01563 1.169915,0.50476 C 7.4266631,14.829253 7.9742187,15.057773 8,15.059458 c 0.025781,0.0017 0.5803681,-0.225456 1.2324156,-0.504759 z M 8.0768063,10.556983 C 8.1519831,10.38659 8.3512944,10.189861 8.546875,10.093004 8.7001009,10.017122 8.72127,10.015323 9.640625,10 c 0.93106,-0.015518 0.938788,-0.016196 1.125,-0.098682 l 0.1875,-0.083056 0.01653,-0.5419435 c 0.01503,-0.4927375 0.02347,-0.5561303 0.093,-0.6981934 0.09742,-0.1990431 0.284809,-0.3865394 0.484218,-0.4845 0.130791,-0.064252 0.202077,-0.076758 0.4375,-0.076758 0.380092,0 0.500559,0.061756 0.924613,0.4739915 0.181974,0.1769032 0.343693,0.321695 0.359375,0.32176 0.07705,3.194e-4 1.794137,-0.762514 1.794137,-0.7970647 0,-0.022694 -0.703317,-0.3413284 -1.640552,-0.743244 L 11.781395,6.56879 10.070385,7.30694 8.359375,8.0450897 H 8.015625 7.671875 L 5.9608647,7.30694 4.2498547,6.56879 2.6093023,7.2723094 C 1.6720668,7.674225 0.96875,7.9928591 0.96875,8.0155534 c 0,0.022264 0.3918917,0.2079094 0.8915776,0.4223554 L 2.7519052,8.8205397 3.0868901,8.4948778 C 3.5153941,8.0783 3.6347541,8.0168666 4.015625,8.0168666 c 0.2354231,0 0.3067094,0.012507 0.4375,0.076758 0.1992131,0.097865 0.3866212,0.2852669 0.484515,0.4845 0.070707,0.1439019 0.077638,0.1984944 0.087704,0.6907978 L 5.036275,9.8034709 5.2447,9.8939228 5.453125,9.984375 6.375,10 c 0.9026825,0.0153 0.9251281,0.01724 1.078125,0.093 0.1955806,0.09686 0.3948919,0.293586 0.4700687,0.463979 C 7.954865,10.628767 7.9894278,10.6875 8,10.6875 c 0.010572,0 0.045135,-0.05873 0.076806,-0.130517 z M 11.554688,5.5591141 C 13.605726,4.6800391 15.0625,4.0390228 15.0625,4.0155912 c 0,-0.023424 -1.431474,-0.6538309 -3.445312,-1.517282 C 9.7222656,1.6858447 8.13512,1.0069626 8.0901975,0.98968228 8.0182559,0.96200866 7.5889525,1.1380947 4.488635,2.4669241 2.4327582,3.348095 0.96875,3.9922381 0.96875,4.0156237 c 0,0.037934 6.92803,3.0371222 7.03125,3.0438735 0.025781,0.00169 1.6253906,-0.6734863 3.554688,-1.5003831 z"
       id="path825"
       inkscape:connector-curvature="0" />
    <path
       style="fill:#fefefe;stroke-width:0.000357143"
       d="M 2.5078119,13.523457 0.99999878,12.015385 2.5156244,10.500001 4.03125,8.9846166 V 9.9923084 11 h 1.5 1.5 v 1.015625 1.015625 H 5.5316828 4.0321159 l -0.00825,1.000139 -0.00825,1.000139 z M 11.96875,14.038942 V 13.03125 h -1.5 -1.5 V 12.015625 11 h 1.499567 1.499567 l 0.0082,-1.0001391 0.0082,-1.000139 1.507813,1.5080711 1.507813,1.508072 -1.515625,1.515384 -1.515626,1.515384 z M 4.4609375,5.5560472 C 2.4232726,4.6805844 0.96875,4.0389866 0.96875,4.0156237 0.96875,3.9922381 2.4327582,3.348095 4.488635,2.4669241 7.5889525,1.1380947 8.0182559,0.96200866 8.0901975,0.98968228 8.13512,1.0069626 9.7222656,1.6858447 11.617188,2.4983092 13.631026,3.3617603 15.0625,3.9921675 15.0625,4.0155912 15.0625,4.0575022 8.0844294,7.0650194 8,7.0594972 7.9742188,7.0578097 6.3816406,6.3812584 4.4609375,5.5560472 Z"
       id="path823"
       inkscape:connector-curvature="0" />
    <path
       style="fill:#cbcbcb;stroke-width:0.000357143"
       d="m 6.7832097,14.551635 -1.169915,-0.50476 0.84179,-0.01563 c 0.8171997,-0.01517 0.8463547,-0.01788 0.9980403,-0.093 C 7.6487056,13.841389 7.8480169,13.64466 7.9231937,13.474268 7.954865,13.402483 7.9894278,13.34375 8,13.34375 c 0.010572,0 0.045135,0.05873 0.076806,0.130518 0.075177,0.170392 0.2744881,0.367121 0.4700687,0.463978 0.1519616,0.07526 0.1797834,0.07781 1.0136656,0.093 L 10.417956,14.046876 9.2324153,14.5547 C 8.5803681,14.834002 8.0257813,15.061143 8,15.059458 7.9742188,15.057774 7.4266631,14.829253 6.7832097,14.551635 Z m 1.139984,-3.994652 C 7.8480169,10.38659 7.6487056,10.189861 7.453125,10.093004 7.3001281,10.017236 7.2776825,10.0153 6.375,10 L 5.453125,9.984375 5.2447,9.8939228 5.036275,9.8034709 5.0253444,9.2689228 C 5.0152778,8.7766194 5.0083469,8.7220269 4.93764,8.578125 4.8397462,8.3788919 4.6523381,8.1914897 4.453125,8.093625 4.3223344,8.0293734 4.2510481,8.0168666 4.015625,8.0168666 c -0.3808709,0 -0.5002309,0.061433 -0.9287349,0.4780112 L 2.7519052,8.8205397 1.8603276,8.4379088 C 1.3606417,8.2234628 0.96875,8.0378172 0.96875,8.0155534 c 0,-0.022694 0.7033168,-0.3413284 1.6405523,-0.743244 L 4.2498547,6.56879 5.9608647,7.30694 7.671875,8.0450897 h 0.34375 0.34375 l 1.71101,-0.7381497 1.71101,-0.73815 1.640553,0.7035194 c 0.937235,0.4019156 1.640552,0.7205497 1.640552,0.743244 0,0.034551 -1.717085,0.7973841 -1.794137,0.7970647 -0.01568,-6.25e-5 -0.1774,-0.1448568 -0.359375,-0.32176 -0.424054,-0.4122353 -0.544521,-0.4739915 -0.924613,-0.4739915 -0.235423,0 -0.306709,0.012507 -0.4375,0.076758 -0.199409,0.097961 -0.386796,0.2854569 -0.484218,0.4845 -0.06953,0.1420631 -0.07798,0.2054559 -0.093,0.6981934 l -0.01653,0.5419435 -0.1875,0.083056 c -0.186212,0.082486 -0.19394,0.083164 -1.125,0.098682 -0.919355,0.01532 -0.9405241,0.017121 -1.09375,0.093 C 8.3512944,10.189861 8.1519831,10.38659 8.0768063,10.556983 8.045135,10.628767 8.0105722,10.6875 8,10.6875 c -0.010572,0 -0.045135,-0.05873 -0.076806,-0.130517 z"
       id="path821"
       inkscape:connector-curvature="0" />
    <path
       style="fill:#323232;stroke-width:0.000357143"
       d="M 3.796875,15.487944 C 3.6679691,15.427001 0.57333169,12.31828 0.53268897,12.208903 0.48740484,12.087036 0.49184519,11.923025 0.54365972,11.803684 0.56859031,11.746263 1.2690332,11.02371 2.1764722,10.11933 3.5833962,8.7171494 3.7792631,8.5330609 3.8845588,8.5139619 c 0.2393765,-0.043419 0.4254012,0.02774 0.5666353,0.2167522 0.060741,0.081289 0.06496,0.1343643 0.073673,0.9267953 l 0.00924,0.8405686 1.3400647,0.0088 c 1.2976006,0.0085 1.3427978,0.01082 1.4263268,0.07321 0.047444,0.03544 0.1152563,0.103265 0.1506932,0.150729 0.062455,0.08365 0.064431,0.123063 0.064431,1.28484 0,1.161777 -0.00197,1.201189 -0.064431,1.28484 -0.035437,0.04746 -0.1032488,0.115292 -0.1506932,0.150729 -0.083529,0.06239 -0.1287262,0.06471 -1.4263268,0.07321 l -1.3400647,0.0088 -0.00924,0.840569 c -0.00871,0.792431 -0.012932,0.845506 -0.073673,0.926795 -0.035437,0.04743 -0.1016507,0.114016 -0.1471416,0.14798 -0.1057334,0.07894 -0.3787134,0.100163 -0.5071775,0.03943 z M 5.5316828,13.03125 H 7.03125 V 12.015625 11 h -1.5 -1.5 V 9.9923084 8.9846166 l -1.5156256,1.5153844 -1.51562562,1.515384 1.50781312,1.508072 1.5078131,1.508071 0.00825,-1.000139 0.00825,-1.000139 z m 6.2339422,2.455886 c -0.114927,-0.05108 -0.219179,-0.161142 -0.263543,-0.278233 -0.02043,-0.05391 -0.03333,-0.395363 -0.03333,-0.881848 v -0.793876 l -1.341494,-0.0088 c -1.2990429,-0.0085 -1.3442244,-0.01082 -1.4277569,-0.07321 -0.047444,-0.03544 -0.1152563,-0.103265 -0.1506932,-0.150729 -0.062455,-0.08365 -0.064431,-0.123063 -0.064431,-1.28484 0,-1.161777 0.00197,-1.201189 0.064431,-1.28484 0.035437,-0.04746 0.1032488,-0.115292 0.1506932,-0.150729 0.083529,-0.06239 0.1287262,-0.06471 1.4263269,-0.07321 l 1.340065,-0.0088 0.0092,-0.8405686 c 0.0087,-0.792431 0.01293,-0.845506 0.07367,-0.9267953 0.141234,-0.1890122 0.327259,-0.2601716 0.566635,-0.2167522 0.105296,0.019099 0.301163,0.2031875 1.708087,1.6053681 0.907439,0.90438 1.607882,1.626933 1.632812,1.684354 0.05573,0.128364 0.05569,0.295689 -1.25e-4,0.423882 -0.05654,0.129887 -3.161213,3.227385 -3.278576,3.270995 -0.118879,0.04417 -0.298116,0.0392 -0.412028,-0.01143 z M 13.492188,10.507793 11.984375,8.9997219 11.97613,9.9998609 11.967884,11 H 10.468317 8.96875 v 1.015625 1.015625 h 1.5 1.5 v 1.007692 1.007691 l 1.515626,-1.515384 1.515625,-1.515384 z"
       id="path819"
       inkscape:connector-curvature="0" />
  </g>
</svg>
