<?xml version="1.0" encoding="UTF-8" standalone="no"?>
<!-- Created with Inkscape (http://www.inkscape.org/) -->

<svg
   version="1.1"
   id="svg2"
   width="1600"
   height="1600"
   viewBox="0 0 1600 1600"
   sodipodi:docname="separate.svg"
   inkscape:version="1.2.2 (732a01da63, 2022-12-09)"
   xmlns:inkscape="http://www.inkscape.org/namespaces/inkscape"
   xmlns:sodipodi="http://sodipodi.sourceforge.net/DTD/sodipodi-0.dtd"
   xmlns="http://www.w3.org/2000/svg"
   xmlns:svg="http://www.w3.org/2000/svg"
   xmlns:rdf="http://www.w3.org/1999/02/22-rdf-syntax-ns#"
   xmlns:cc="http://creativecommons.org/ns#"
   xmlns:dc="http://purl.org/dc/elements/1.1/">
  <metadata
     id="metadata8">
    <rdf:RDF>
      <cc:Work
         rdf:about="">
        <dc:format>image/svg+xml</dc:format>
        <dc:type
           rdf:resource="http://purl.org/dc/dcmitype/StillImage" />
      </cc:Work>
    </rdf:RDF>
  </metadata>
  <defs
     id="defs6" />
  <sodipodi:namedview
     pagecolor="#808080"
     bordercolor="#666666"
     borderopacity="1"
     objecttolerance="10"
     gridtolerance="10"
     guidetolerance="10"
     inkscape:pageopacity="0"
     inkscape:pageshadow="2"
     inkscape:window-width="1993"
     inkscape:window-height="1009"
     id="namedview4"
     showgrid="false"
     inkscape:zoom="0.5"
     inkscape:cx="273"
     inkscape:cy="102"
     inkscape:window-x="-8"
     inkscape:window-y="-8"
     inkscape:window-maximized="1"
     inkscape:current-layer="SEPARATE"
     inkscape:showpageshadow="0"
     inkscape:pagecheckerboard="true"
     inkscape:deskcolor="#d1d1d1" />
  <g
     id="SEPARATE"
     transform="matrix(100,0,0,100,0,4.9999997e-5)"
     style="stroke-width:0.0114286">
    <path
       style="fill:none;stroke-width:0.000357143"
       d="M 0,8 V 0 h 8 8 v 8 8 H 8 0 Z m 4.3040525,3.448516 c 0.045491,-0.03396 0.1117047,-0.100555 0.1471416,-0.14798 0.060741,-0.08129 0.06496,-0.134364 0.073673,-0.926795 l 0.00924,-0.8405685 1.3400647,-0.00877 c 1.2976006,-0.0085 1.3427978,-0.010815 1.4263268,-0.073205 0.047444,-0.035437 0.1152563,-0.103265 0.1506932,-0.1507291 0.062455,-0.083651 0.064431,-0.1230625 0.064431,-1.28484 0,-1.1617775 -0.00197,-1.2011891 -0.064431,-1.28484 C 7.4157572,6.6833209 7.3479453,6.6154928 7.3005009,6.5800559 7.2169719,6.5176666 7.1717747,6.5153469 5.8741741,6.5068513 L 4.5341094,6.4980775 4.5248672,5.6575094 C 4.5161544,4.8650784 4.5119353,4.8120034 4.4511941,4.7307141 4.30996,4.5417019 4.1239353,4.4705425 3.8845588,4.5139619 3.7792631,4.5330609 3.5833962,4.7171494 2.1764722,6.11933 1.2690332,7.0237097 0.56859031,7.7462625 0.54365972,7.8036838 0.49184519,7.923025 0.48740484,8.0870356 0.53268897,8.2089031 0.57333169,8.31828 3.6679691,11.427001 3.796875,11.487944 c 0.1284641,0.06073 0.4014441,0.03951 0.5071775,-0.03943 z m 7.8736005,0.05005 c 0.117362,-0.04361 3.22204,-3.1411082 3.278576,-3.2709947 0.0558,-0.1281932 0.05584,-0.2955182 1.25e-4,-0.4238826 C 15.431423,7.7462625 14.730981,7.0237097 13.823542,6.11933 12.416617,4.7171494 12.220751,4.5330609 12.115455,4.5139619 c -0.239377,-0.043419 -0.425401,0.02774 -0.566635,0.2167522 -0.06074,0.081289 -0.06496,0.1343643 -0.07367,0.9267953 l -0.0092,0.8405681 -1.340064,0.00877 c -1.2976009,0.0085 -1.3427981,0.010815 -1.4263272,0.073205 -0.047444,0.035437 -0.1152562,0.103265 -0.1506931,0.1507291 -0.062455,0.083651 -0.064431,0.1230625 -0.064431,1.28484 0,1.1617775 0.00197,1.2011891 0.064431,1.28484 0.035437,0.047464 0.1032487,0.1152922 0.1506931,0.1507291 0.083532,0.062392 0.1287141,0.064709 1.4277562,0.073208 l 1.341481,0.00878 v 0.7938763 c 0,0.486485 0.01291,0.827939 0.03333,0.881848 0.09722,0.256597 0.407047,0.389438 0.675571,0.289658 z"
       id="path823"
       inkscape:connector-curvature="0" />
    <path
       style="fill:#fefefe;stroke-width:0.000357143"
       d="M 2.5078119,9.5234566 0.99999878,8.0153847 2.5156244,6.5000006 4.03125,4.9846166 V 5.9923084 7 h 1.5 1.5 V 8.015625 9.03125 H 5.5316828 4.0321159 l -0.00825,1.000139 -0.00825,1.000139 z M 11.96875,10.038942 V 9.03125 h -1.5 -1.5 V 8.015625 7 h 1.499567 1.499567 l 0.0082,-1.0001391 0.0082,-1.000139 1.507813,1.5080715 1.507813,1.5080719 -1.515625,1.5153841 -1.515626,1.5153836 z"
       id="path821"
       inkscape:connector-curvature="0" />
    <path
       style="fill:#323232;stroke-width:0.000357143"
       d="M 3.796875,11.487944 C 3.6679691,11.427001 0.57333169,8.31828 0.53268897,8.2089031 0.48740484,8.0870356 0.49184519,7.923025 0.54365972,7.8036838 0.56859031,7.7462625 1.2690332,7.0237097 2.1764722,6.11933 3.5833962,4.7171494 3.7792631,4.5330609 3.8845588,4.5139619 c 0.2393765,-0.043419 0.4254012,0.02774 0.5666353,0.2167522 0.060741,0.081289 0.06496,0.1343643 0.073673,0.9267953 l 0.00924,0.8405681 1.3400647,0.00877 c 1.2976006,0.0085 1.3427978,0.010815 1.4263268,0.073205 0.047444,0.035437 0.1152563,0.103265 0.1506932,0.1507291 0.062455,0.083651 0.064431,0.1230625 0.064431,1.28484 0,1.1617775 -0.00197,1.2011891 -0.064431,1.28484 -0.035437,0.047464 -0.1032488,0.1152922 -0.1506932,0.1507291 -0.083529,0.062389 -0.1287262,0.064709 -1.4263268,0.073205 l -1.3400647,0.00877 -0.00924,0.8405683 c -0.00871,0.792431 -0.012932,0.845506 -0.073673,0.926795 -0.035437,0.04743 -0.1016507,0.114016 -0.1471416,0.14798 -0.1057334,0.07894 -0.3787134,0.100163 -0.5071775,0.03943 z M 5.5316828,9.03125 H 7.03125 V 8.015625 7 h -1.5 -1.5 V 5.9923084 4.9846166 L 2.5156244,6.5000006 0.99999878,8.0153847 2.5078119,9.5234566 4.015625,11.031528 4.023875,10.031389 4.032125,9.03125 Z m 6.2339422,2.455886 c -0.114927,-0.05108 -0.219179,-0.161142 -0.263543,-0.278233 -0.02043,-0.05391 -0.03333,-0.395363 -0.03333,-0.881848 V 9.5331787 l -1.341494,-0.00878 C 8.8282131,9.5159028 8.7830316,9.5135859 8.6994991,9.4511941 8.6520547,9.4157572 8.5842428,9.3479291 8.5488059,9.300465 8.4863513,9.2168141 8.484375,9.1774025 8.484375,8.015625 c 0,-1.1617775 0.00197,-1.2011891 0.064431,-1.28484 0.035437,-0.047464 0.1032488,-0.1152922 0.1506932,-0.1507291 0.083529,-0.062389 0.1287262,-0.064709 1.4263268,-0.073205 l 1.340065,-0.00877 0.0092,-0.8405681 c 0.0087,-0.792431 0.01293,-0.845506 0.07367,-0.9267953 0.141234,-0.1890122 0.327259,-0.2601716 0.566635,-0.2167522 0.105296,0.019099 0.301163,0.2031875 1.708087,1.6053681 0.907439,0.9043797 1.607882,1.6269325 1.632812,1.6843538 0.05573,0.1283643 0.05569,0.2956893 -1.25e-4,0.4238825 -0.05654,0.1298865 -3.161213,3.2273843 -3.278576,3.2709943 -0.118879,0.04417 -0.298116,0.0392 -0.412028,-0.01143 z M 13.492188,6.5077934 11.984375,4.9997219 11.97613,5.9998609 11.967884,7 H 10.468317 8.96875 V 8.015625 9.03125 h 1.5 1.5 v 1.007692 1.007691 l 1.515626,-1.5153836 1.515625,-1.5153841 z"
       id="path819"
       inkscape:connector-curvature="0" />
  </g>
</svg>
