<?xml version="1.0" encoding="UTF-8" standalone="no"?>
<!-- Created with Inkscape (http://www.inkscape.org/) -->

<svg
   version="1.1"
   id="svg2"
   width="1600"
   height="1600"
   viewBox="0 0 1600 1600"
   sodipodi:docname="separate_gp_points.svg"
   inkscape:version="1.2.2 (732a01da63, 2022-12-09)"
   xmlns:inkscape="http://www.inkscape.org/namespaces/inkscape"
   xmlns:sodipodi="http://sodipodi.sourceforge.net/DTD/sodipodi-0.dtd"
   xmlns="http://www.w3.org/2000/svg"
   xmlns:svg="http://www.w3.org/2000/svg"
   xmlns:rdf="http://www.w3.org/1999/02/22-rdf-syntax-ns#"
   xmlns:cc="http://creativecommons.org/ns#"
   xmlns:dc="http://purl.org/dc/elements/1.1/">
  <metadata
     id="metadata8">
    <rdf:RDF>
      <cc:Work
         rdf:about="">
        <dc:format>image/svg+xml</dc:format>
        <dc:type
           rdf:resource="http://purl.org/dc/dcmitype/StillImage" />
      </cc:Work>
    </rdf:RDF>
  </metadata>
  <defs
     id="defs6" />
  <sodipodi:namedview
     pagecolor="#808080"
     bordercolor="#666666"
     borderopacity="1"
     objecttolerance="10"
     gridtolerance="10"
     guidetolerance="10"
     inkscape:pageopacity="0"
     inkscape:pageshadow="2"
     inkscape:window-width="1993"
     inkscape:window-height="1009"
     id="namedview4"
     showgrid="false"
     inkscape:zoom="0.5"
     inkscape:cx="223"
     inkscape:cy="104"
     inkscape:window-x="-8"
     inkscape:window-y="-8"
     inkscape:window-maximized="1"
     inkscape:current-layer="SEPARATE_GP_POINTS"
     inkscape:showpageshadow="0"
     inkscape:pagecheckerboard="true"
     inkscape:deskcolor="#d1d1d1" />
  <g
     id="SEPARATE_GP_POINTS"
     transform="matrix(100,0,0,100,0,4.9999997e-5)"
     style="stroke-width:0.0114286">
    <path
       style="fill:none;stroke-width:0.000357143"
       d="M 0,8 V 0 h 8 8 v 8 8 H 8 0 Z m 4.3040525,7.448516 c 0.045491,-0.03396 0.1117047,-0.100555 0.1471416,-0.14798 0.060741,-0.08129 0.06496,-0.134364 0.073673,-0.926795 l 0.00924,-0.840569 1.3400647,-0.0088 c 1.2976006,-0.0085 1.3427978,-0.01082 1.4263268,-0.07321 0.047444,-0.03544 0.1152563,-0.103265 0.1506932,-0.150729 0.062455,-0.08365 0.064431,-0.123063 0.064431,-1.28484 0,-1.161777 -0.00197,-1.201189 -0.064431,-1.28484 -0.035437,-0.04746 -0.1032488,-0.115292 -0.1506932,-0.150729 -0.083529,-0.06239 -0.1287262,-0.06471 -1.4263268,-0.07321 l -1.3400647,-0.0088 -0.00924,-0.8405686 C 4.5161544,8.8650784 4.5119353,8.8120034 4.4511941,8.7307141 4.30996,8.5417019 4.1239353,8.4705425 3.8845588,8.5139619 3.7792631,8.5330609 3.5833962,8.7171494 2.1764722,10.11933 c -0.907439,0.90438 -1.60788189,1.626933 -1.63281248,1.684354 -0.0518145,0.119341 -0.0562549,0.283352 -0.0109707,0.405219 0.0406427,0.109377 3.13528018,3.218098 3.26418608,3.279041 0.1284641,0.06073 0.4014441,0.03951 0.5071774,-0.03943 z m 7.8736005,0.05005 c 0.117362,-0.04361 3.22204,-3.141108 3.278576,-3.270995 0.0558,-0.128193 0.05584,-0.295518 1.25e-4,-0.423882 -0.02493,-0.05742 -0.725373,-0.779974 -1.632812,-1.684354 -1.406925,-1.4021806 -1.602791,-1.5862691 -1.708087,-1.6053681 -0.239377,-0.043419 -0.425401,0.02774 -0.566635,0.2167522 -0.06074,0.081289 -0.06496,0.1343643 -0.07367,0.9267953 l -0.0092,0.8405676 -1.340064,0.0088 c -1.2976009,0.0085 -1.3427981,0.01082 -1.4263272,0.07321 -0.047444,0.03544 -0.1152562,0.103265 -0.1506931,0.150729 -0.062455,0.08365 -0.064431,0.123062 -0.064431,1.28484 0,1.161777 0.00197,1.201189 0.064431,1.28484 0.035437,0.04746 0.1032487,0.115292 0.1506931,0.150729 0.083532,0.06239 0.1287141,0.06471 1.4277562,0.07321 l 1.341481,0.0088 v 0.793876 c 0,0.486485 0.01291,0.827939 0.03333,0.881848 0.09722,0.256597 0.407047,0.389438 0.675571,0.289658 z m -4.224528,-1.27991 c 0.1546875,-0.01696 0.478125,-0.06205 0.71875,-0.100198 l 0.4375,-0.06937 -0.2044487,-0.02133 C 8.5381966,13.989486 8.2062284,13.767609 8.0768063,13.474268 8.045135,13.402483 8.0105722,13.34375 8,13.34375 c -0.010572,0 -0.045135,0.05873 -0.076806,0.130518 -0.075543,0.171222 -0.27535,0.367875 -0.4700687,0.462648 -0.1375056,0.06693 -0.2124834,0.07808 -0.625,0.093 L 6.359375,14.046875 6.5,14.101646 c 0.3467856,0.135066 0.3944622,0.143969 0.78125,0.145896 0.2148437,0.0011 0.5171875,-0.01193 0.671875,-0.02889 z M 8.0768063,10.556983 C 8.1519831,10.38659 8.3512944,10.189861 8.546875,10.093004 l 0.15625,-0.07738 1.1328125,-0.0093 1.1328125,-0.00927 V 9.5624044 9.1277191 L 10.715178,9.0476156 C 10.400935,8.9483466 10.021914,8.8818994 9.59375,8.8510156 L 9.265625,8.8273478 9.65625,8.7719547 c 0.2148438,-0.030466 0.620334,-0.092774 0.90109,-0.1384619 l 0.510466,-0.083068 0.09199,-0.1336978 C 11.414467,8.0465694 11.99524,7.8910975 12.396917,8.0855503 L 12.528209,8.1491093 12.75835,8.049063 C 13.491419,7.7303853 14.043246,7.1556525 14.202238,6.5452406 14.261922,6.3160991 14.265637,5.6172656 14.208459,5.375 14.139719,5.0837456 14.001385,4.7602181 13.837486,4.5073894 13.638203,4.19998 13.15238,3.7200228 12.809693,3.4920069 12.013314,2.9621141 10.72073,2.5101398 9.2050075,2.2315656 8.2261359,2.0516592 6.7555653,1.8836717 5.671875,1.8279659 5.4828125,1.8182473 5.2542969,1.8027486 5.1640625,1.7935243 L 5,1.7767527 V 1.3883764 1 H 3 1 V 3 5 H 3 5 V 4.671875 4.34375 l 0.1171875,1.25e-4 c 0.1909919,2.187e-4 0.9476509,0.059183 1.6171875,0.1260484 2.2390313,0.2236066 3.929284,0.6549338 4.680611,1.1944228 l 0.149362,0.1072485 -0.227487,0.065975 C 10.718206,6.01699 10.271593,6.0978878 8.546875,6.3429381 6.6689841,6.6097512 5.9639809,6.7569409 5.296875,7.0214691 4.8410903,7.2022016 4.6079359,7.3541553 4.28125,7.6833828 l -0.296875,0.2991844 0.1637653,0.024041 c 0.3424366,0.050269 0.6381578,0.2642388 0.7898734,0.571515 0.072998,0.1478456 0.077703,0.1902106 0.087479,0.7876166 l 0.010331,0.6313662 1.130526,0.00926 1.1305256,0.0093 0.15625,0.07738 c 0.1955806,0.09686 0.3948919,0.293586 0.4700687,0.463979 C 7.954865,10.628767 7.9894278,10.6875 8,10.6875 c 0.010572,0 0.045135,-0.05873 0.076806,-0.130517 z"
       id="path829"
       inkscape:connector-curvature="0" />
    <path
       style="fill:#fefefe;stroke-width:0.000357143"
       d="M 2.5078119,13.523457 0.99999878,12.015385 2.5156244,10.500001 4.03125,8.9846166 V 9.9923084 11 h 1.5 1.5 v 1.015625 1.015625 H 5.5316828 4.0321159 l -0.00825,1.000139 -0.00825,1.000139 z M 11.96875,14.038942 V 13.03125 h -1.5 -1.5 V 12.015625 11 h 1.499567 1.499567 l 0.0082,-1.0001391 0.0082,-1.000139 1.507813,1.5080711 1.507813,1.508072 -1.515625,1.515384 -1.515626,1.515384 z"
       id="path827"
       inkscape:connector-curvature="0" />
    <path
       style="fill:#98cbfe;stroke-width:0.000357143"
       d="m 7.8345737,13.62212 c 0.0519,-0.07576 0.1042694,-0.169386 0.116376,-0.208057 0.029484,-0.09418 0.067263,-0.08864 0.10664,0.01563 0.017849,0.04726 0.062793,0.13164 0.099876,0.1875 l 0.067422,0.101562 -0.073381,2.81e-4 c -0.04036,1.57e-4 -0.1494121,0.0094 -0.2423387,0.02056 l -0.168958,0.02028 0.094364,-0.137745 z m 0.08862,-3.065137 C 7.8480169,10.38659 7.6487056,10.189861 7.453125,10.093004 l -0.15625,-0.07738 -1.1305256,-0.0093 -1.130526,-0.00926 -0.010331,-0.6313662 C 5.0157728,8.7717713 5.0106797,8.7253134 4.9395,8.5813872 4.8617216,8.4241172 4.6886922,8.2236791 4.578125,8.1627688 4.4944081,8.1166497 4.5318894,8.0576378 4.7648031,7.8688559 5.0988762,7.5980822 5.5634109,7.3988091 6.28125,7.2183406 6.7732556,7.0946478 7.3231125,7.0018959 8.859375,6.7834541 10.692511,6.5227991 11.366589,6.3819609 11.867028,6.1550509 12.108033,6.0457738 12.1875,5.9825697 12.1875,5.9001616 c 0,-0.18929 -0.335715,-0.5514572 -0.718304,-0.774901 C 10.643833,4.6432222 9.0706838,4.243335 7.171875,4.0329016 c -0.5033406,-0.055782 -1.5849209,-0.145475 -2,-0.165855 L 5.015625,3.859375 5.0073003,3.0623 4.9989756,2.2652251 5.3979253,2.286575 c 1.9746375,0.1056735 3.8144197,0.3730149 5.1345797,0.7461131 2.150869,0.6078694 3.248745,1.6008263 3.248745,2.9382766 0,0.5172919 -0.135047,0.8228144 -0.527233,1.1927828 -0.437903,0.4130959 -1.222636,0.7114441 -2.479252,0.9425894 -0.235598,0.043336 -0.9809106,0.1569728 -1.65625,0.252525 C 7.7560194,8.5516381 7.1147197,8.6575175 6.7367922,8.7520875 6.3990119,8.8366113 6.0218738,8.9614903 5.9535825,9.0114263 c -0.049241,0.036006 -0.034848,0.046267 0.1282894,0.091463 0.4137493,0.1146234 0.7196843,0.1386993 2.2775031,0.1792325 1.4270669,0.037131 1.928727,0.098973 2.421875,0.2985587 l 0.171875,0.06956 0.0093,0.1734188 0.0093,0.1734187 -1.1343286,0.00927 -1.1343284,0.0093 -0.15625,0.07738 C 8.3512944,10.189861 8.1519831,10.38659 8.0768063,10.556983 8.045135,10.628767 8.0105722,10.6875 8,10.6875 c -0.010572,0 -0.045135,-0.05873 -0.076806,-0.130517 z"
       id="path825"
       inkscape:connector-curvature="0" />
    <path
       style="fill:#febe00;stroke-width:0.000357143"
       d="M 1.5,3 V 1.5 H 3 4.5 V 3 4.5 H 3 1.5 Z"
       id="path823"
       inkscape:connector-curvature="0" />
    <path
       style="fill:#323232;stroke-width:0.000357143"
       d="M 3.796875,15.487944 C 3.6679691,15.427001 0.57333169,12.31828 0.53268897,12.208903 0.48740484,12.087036 0.49184519,11.923025 0.54365972,11.803684 0.56859031,11.746263 1.2690332,11.02371 2.1764722,10.11933 3.5833962,8.7171494 3.7792631,8.5330609 3.8845588,8.5139619 c 0.2393765,-0.043419 0.4254012,0.02774 0.5666353,0.2167522 0.060741,0.081289 0.06496,0.1343643 0.073673,0.9267953 l 0.00924,0.8405686 1.3400647,0.0088 c 1.2976006,0.0085 1.3427978,0.01082 1.4263268,0.07321 0.047444,0.03544 0.1152563,0.103265 0.1506932,0.150729 0.062455,0.08365 0.064431,0.123063 0.064431,1.28484 0,1.161777 -0.00197,1.201189 -0.064431,1.28484 -0.035437,0.04746 -0.1032488,0.115292 -0.1506932,0.150729 -0.083529,0.06239 -0.1287262,0.06471 -1.4263268,0.07321 l -1.3400647,0.0088 -0.00924,0.840569 c -0.00871,0.792431 -0.012932,0.845506 -0.073673,0.926795 -0.035437,0.04743 -0.1016507,0.114016 -0.1471416,0.14798 -0.1057334,0.07894 -0.3787134,0.100163 -0.5071775,0.03943 z M 5.5316828,13.03125 H 7.03125 V 12.015625 11 h -1.5 -1.5 V 9.9923084 8.9846166 l -1.5156256,1.5153844 -1.51562562,1.515384 1.50781312,1.508072 1.5078131,1.508071 0.00825,-1.000139 0.00825,-1.000139 z m 6.2339422,2.455886 c -0.114927,-0.05108 -0.219179,-0.161142 -0.263543,-0.278233 -0.02043,-0.05391 -0.03333,-0.395363 -0.03333,-0.881848 v -0.793876 l -1.341494,-0.0088 c -1.2990429,-0.0085 -1.3442244,-0.01082 -1.4277569,-0.07321 -0.047444,-0.03544 -0.1152563,-0.103265 -0.1506932,-0.150729 -0.062455,-0.08365 -0.064431,-0.123063 -0.064431,-1.28484 0,-1.161777 0.00197,-1.201189 0.064431,-1.28484 0.035437,-0.04746 0.1032488,-0.115292 0.1506932,-0.150729 0.083529,-0.06239 0.1287262,-0.06471 1.4263269,-0.07321 l 1.340065,-0.0088 0.0092,-0.8405686 c 0.0087,-0.792431 0.01293,-0.845506 0.07367,-0.9267953 0.141234,-0.1890122 0.327259,-0.2601716 0.566635,-0.2167522 0.105296,0.019099 0.301163,0.2031875 1.708087,1.6053681 0.907439,0.90438 1.607882,1.626933 1.632812,1.684354 0.05573,0.128364 0.05569,0.295689 -1.25e-4,0.423882 -0.05654,0.129887 -3.161213,3.227385 -3.278576,3.270995 -0.118879,0.04417 -0.298116,0.0392 -0.412028,-0.01143 z M 13.492188,10.507793 11.984375,8.9997219 11.97613,9.9998609 11.967884,11 H 10.468317 8.96875 v 1.015625 1.015625 h 1.5 1.5 v 1.007692 1.007691 l 1.515626,-1.515384 1.515625,-1.515384 z"
       id="path821"
       inkscape:connector-curvature="0" />
    <path
       style="fill:#000000;stroke-width:0.000357143"
       d="m 6.6474212,14.158693 c -0.1337621,-0.04829 -0.2521215,-0.09673 -0.2630209,-0.107626 -0.010899,-0.0109 0.1648478,-0.01982 0.3905494,-0.01982 0.4515565,0 0.6155228,-0.03692 0.8352253,-0.188061 0.097951,-0.06738 0.1782231,-0.09145 0.3626028,-0.108732 0.2344856,-0.02197 0.2383,-0.02114 0.389825,0.08529 0.2000997,0.140552 0.3206513,0.186136 0.5544478,0.209655 l 0.1923244,0.01935 -0.4375,0.06954 c -0.6443097,0.102407 -0.9548463,0.131372 -1.390625,0.129707 -0.3474313,-0.0013 -0.4175175,-0.0112 -0.6338288,-0.0893 z M 10.78125,9.5823638 C 10.298544,9.3822759 9.7911616,9.319375 8.359375,9.2821213 6.8015562,9.2415881 6.4956212,9.2175122 6.0818719,9.1028888 5.9187347,9.0576938 5.9043412,9.0474322 5.9535825,9.0114263 6.0218737,8.9614903 6.3990119,8.8366113 6.7367922,8.7520875 7.1147197,8.6575175 7.7560194,8.5516381 9.118515,8.3588619 9.7938544,8.2633097 10.539167,8.1496734 10.774765,8.1063369 12.031381,7.8751916 12.816114,7.5768434 13.254017,7.1637475 13.646203,6.7937791 13.78125,6.4882566 13.78125,5.9709647 13.78125,4.6335144 12.683374,3.6405575 10.532505,3.0326881 9.212345,2.6595899 7.3725628,2.3922485 5.3979253,2.286575 l -0.3989497,-0.02135 0.00832,0.7970749 0.00832,0.797075 0.15625,0.00767 c 0.4150791,0.02038 1.4966594,0.1100725 2,0.165855 1.8988088,0.2104334 3.4719584,0.6103206 4.2973214,1.092359 0.382589,0.2234438 0.718304,0.585611 0.718304,0.774901 0,0.082408 -0.07947,0.1456122 -0.320472,0.2548893 C 11.36658,6.3819592 10.692502,6.5227974 8.8593656,6.7834524 7.3231125,7.0018959 6.7732556,7.0946478 6.28125,7.2183406 5.8702959,7.3216566 5.4307741,7.4712972 5.203125,7.5854013 4.9945209,7.6899594 4.6816512,7.913915 4.5869394,8.0264738 4.5129569,8.1143972 4.5068206,8.1159728 4.4050525,8.0731825 4.3471259,8.0488263 4.2287762,8.0184744 4.1420531,8.0057341 L 3.984375,7.9825694 4.28125,7.683385 C 4.6079359,7.3541575 4.8410903,7.2022038 5.296875,7.0214713 5.9639809,6.7569431 6.6689841,6.6097534 8.546875,6.3429403 10.271593,6.09789 10.718206,6.0169922 11.336861,5.8375719 L 11.564348,5.7715969 11.414986,5.6643484 C 10.663659,5.1248594 8.9734063,4.6935322 6.734375,4.4699256 6.0648384,4.4030606 5.3081794,4.3440844 5.1171875,4.3438772 L 5,4.34375 V 4.671875 5 H 3 1 V 3 1 h 2 2 v 0.3883764 0.3883763 l 0.1640625,0.016772 c 0.090234,0.00922 0.31875,0.024723 0.5078125,0.034442 1.0836903,0.055706 2.5542609,0.2236933 3.5331325,0.4035997 1.5157225,0.2785742 2.8083065,0.7305485 3.6046855,1.2604413 0.342687,0.2280159 0.82851,0.7079731 1.027793,1.0153825 0.298147,0.4599159 0.41132,0.8573653 0.412026,1.4469825 8.16e-4,0.6817519 -0.137696,1.0288987 -0.592375,1.484635 -0.282649,0.2833062 -0.524021,0.4471387 -0.898787,0.6100559 L 12.528209,8.1491091 12.396917,8.0855503 C 11.99524,7.8910975 11.414467,8.0465694 11.159792,8.4167266 l -0.09199,0.1336978 -0.510466,0.083068 C 10.276584,8.6791806 9.8710938,8.7414884 9.65625,8.7719547 l -0.390625,0.055393 0.328125,0.023668 c 0.428164,0.030884 0.807185,0.097331 1.121428,0.1966 l 0.253572,0.080103 v 0.2642656 c 0,0.1453459 -0.0035,0.2636709 -0.0078,0.2629444 -0.0043,-7.282e-4 -0.08516,-0.033381 -0.179688,-0.072565 z M 4.5,3 V 1.5 H 3 1.5 V 3 4.5 H 3 4.5 Z"
       id="path819"
       inkscape:connector-curvature="0" />
  </g>
</svg>
