<?xml version="1.0" encoding="UTF-8" standalone="no"?>
<svg
   height="1600"
   viewBox="0 0 1600 1600"
   width="1600"
   version="1.1"
   id="svg1"
   sodipodi:docname="seq_strip_modifier.svg"
   xml:space="preserve"
   inkscape:version="1.4 (86a8ad7, 2024-10-11)"
   xmlns:inkscape="http://www.inkscape.org/namespaces/inkscape"
   xmlns:sodipodi="http://sodipodi.sourceforge.net/DTD/sodipodi-0.dtd"
   xmlns="http://www.w3.org/2000/svg"
   xmlns:svg="http://www.w3.org/2000/svg"><sodipodi:namedview
     id="namedview1"
     pagecolor="#505050"
     bordercolor="#eeeeee"
     borderopacity="1"
     inkscape:showpageshadow="0"
     inkscape:pageopacity="0"
     inkscape:pagecheckerboard="0"
     inkscape:deskcolor="#d1d1d1"
     inkscape:zoom="0.1767767"
     inkscape:cx="704.27835"
     inkscape:cy="1431.1841"
     inkscape:window-width="2560"
     inkscape:window-height="1009"
     inkscape:window-x="1912"
     inkscape:window-y="-8"
     inkscape:window-maximized="1"
     inkscape:current-layer="svg1"
     showgrid="true"><inkscape:grid
       id="grid8"
       units="px"
       originx="0"
       originy="0"
       spacingx="100"
       spacingy="100"
       empcolor="#0099e5"
       empopacity="0.30196078"
       color="#0099e5"
       opacity="0.14901961"
       empspacing="5"
       enabled="true"
       visible="true" /></sodipodi:namedview><defs
     id="defs1" /><g
     id="SEQ_SEQUENCER"
     transform="matrix(100,0,0,100,0.00413247,1.4336534e-5)"
     style="display:none;stroke-width:0.0114286"><path
       style="fill:none;stroke-width:0.000357143"
       d="m 0.00149176,14.085938 c 0.00138761,-1.780421 0.00492287,-1.904256 0.05063303,-1.773606 0.10757792,0.307481 0.33441462,0.531723 0.6442798,0.636909 C 0.83041019,12.99473 1.1653888,13 3.9229672,13 H 7 v 1.077033 c 0,0.911785 0.00779,1.099975 0.050759,1.226562 0.1051859,0.309866 0.3294278,0.536702 0.6369093,0.64428 0.1291591,0.04519 -0.1743693,0.04926 -3.7736059,0.05063 L 0,16 Z M 14.312332,15.947875 c 0.310931,-0.108785 0.536854,-0.339793 0.639637,-0.654035 0.04412,-0.134887 0.04964,-0.314797 0.04163,-1.35748 l -0.0092,-1.201985 -0.07738,-0.15625 c -0.09873,-0.199367 -0.286058,-0.386602 -0.485121,-0.484889 -0.147846,-0.073 -0.190211,-0.0777 -0.787617,-0.08748 l -0.631366,-0.01033 -0.0093,-1.130526 -0.0093,-1.130526 -0.07738,-0.15625 C 12.80834,9.3789119 12.621088,9.1916603 12.421875,9.0930044 L 12.265625,9.015625 6.5625,9.0071434 C 1.3994982,8.9994653 0.84475653,9.0034081 0.70501941,9.0487766 0.39250775,9.1502394 0.16083876,9.3769397 0.05212479,9.6876684 0.00703789,9.8165366 0.00286045,9.4226931 0.00149176,4.9140625 L 0,0 0.9140625,0.00149176 C 1.7850006,0.00291314 1.8214984,0.00530195 1.6876684,0.05212479 1.3767371,0.16090967 1.1508142,0.39191778 1.0480309,0.70615962 1.0039113,0.84104725 0.99839366,1.0209571 1.0063979,2.0636402 l 0.00923,1.2019848 0.077379,0.15625 c 0.098656,0.1992131 0.2859074,0.3864647 0.4851206,0.4851206 l 0.15625,0.077379 1.1313632,0.00926 1.1313631,0.00926 0.00926,1.1313632 0.00926,1.1313631 0.077379,0.15625 c 0.098656,0.1992131 0.2859075,0.3864647 0.4851206,0.4851206 l 0.15625,0.077379 5.203125,0.0085 c 4.7049646,0.00768 5.2179026,0.0037 5.3574806,-0.041633 0.312536,-0.1015038 0.544183,-0.3281888 0.652894,-0.6389081 0.04509,-0.1288682 0.04927,0.2649753 0.05063,4.7736066 L 16,16 15.085938,15.9985 C 14.214999,15.9971 14.178502,15.9947 14.312332,15.94787 Z M 15.943581,3.6830978 C 15.853218,3.3935647 15.61234,3.1555647 15.303595,3.050759 15.170365,3.0055328 14.873163,3 12.577033,3 H 10 V 1.9229671 C 10,1.0111825 9.9922122,0.822992 9.9492409,0.69640459 9.844055,0.38653941 9.6198131,0.15970271 9.3123316,0.05212479 9.1829634,0.00686301 9.4414003,0.00286575 12.585938,0.00149176 L 16,0 v 1.90625 c 0,1.0484375 -0.0036,1.90625 -0.008,1.90625 -0.0044,0 -0.02619,-0.058231 -0.0484,-0.1294022 z"
       id="path825"
       inkscape:connector-curvature="0" /><path
       style="fill:#fefefe;stroke-width:0.000357143"
       d="M 1,11 V 10 H 6.5 12 V 10.5 11 H 7 2 V 11.5 12 H 1.5 1 Z"
       id="path2" /><path
       style="fill:#fefefe;stroke-width:0.000357143"
       d="m 8,14 v -1 h 3 3 V 13.5 14 H 11.5 9 V 14.5 15 H 8.5 8 Z"
       id="path823" /><path
       style="fill:#cbcbcb;stroke-width:0.000357143"
       d="M 2,11.5 V 11 h 5 5 V 11.5 12 H 7 2 Z"
       id="path5" /><path
       style="fill:#cbcbcb;stroke-width:0.000357143"
       d="M 9,14.5 V 14 H 11.5 14 V 14.5 15 H 11.5 9 Z"
       id="path821" /><path
       style="fill:#323232;stroke-width:0.000357143"
       d="M 7.6876684,15.948173 C 7.3796587,15.839757 7.1558881,15.613293 7.0507591,15.303595 7.00779,15.177014 7,14.988863 7,14.077618 V 13.00117 L 3.8671875,12.99277 0.734375,12.98437 0.578125,12.90699 C 0.37891184,12.80834 0.19166038,12.621088 0.0930044,12.421875 L 0.015625,12.265625 V 11 9.734375 L 0.0930044,9.578125 C 0.19166038,9.3789119 0.37891184,9.1916603 0.578125,9.0930044 L 0.734375,9.015625 H 6.5 12.265625 l 0.15625,0.077379 c 0.199213,0.098656 0.386465,0.2859075 0.485121,0.4851206 l 0.07738,0.15625 0.0093,1.1305264 0.0093,1.130526 0.631366,0.01033 c 0.597406,0.0098 0.639771,0.01448 0.787617,0.08748 0.199063,0.09829 0.386388,0.285522 0.485121,0.484889 l 0.07738,0.15625 V 14 15.265625 l -0.07738,0.15625 c -0.09866,0.199213 -0.285908,0.386465 -0.485121,0.485121 l -0.15625,0.07738 -3.21875,0.0066 c -2.8663966,0.0059 -3.2341256,0.0012 -3.3592066,-0.04282 z M 14,14 V 13 H 11 8 v 1 1 h 3 3 z M 12,11 V 10 H 6.5 1 v 1 1 H 6.5 12 Z"
       id="path819" /></g><g
     id="g7"
     style="display:none;stroke-width:0.0114286"
     transform="matrix(100,0,0,100,0.00413247,1.4336534e-5)"><path
       style="fill:#fefefe;stroke-width:0.000357143"
       d="M 2,2 V 1 H 5.5 9 V 1.5 2 H 6 3 V 2.5 3 H 2.5 2 Z"
       id="path4" /><path
       style="fill:#fefefe;stroke-width:0.000357143"
       d="M 5,5 V 4 h 5 5 V 4.5 5 H 10.5 6 V 5.5 6 H 5.5 5 Z"
       id="path3" /><path
       style="fill:#cbcbcb;stroke-width:0.000357143"
       d="M 3,2.5 V 2 H 6 9 V 2.5 3 H 6 3 Z"
       id="path7" /><path
       style="fill:#cbcbcb;stroke-width:0.000357143"
       d="M 6,5.5 V 5 H 10.5 15 V 5.5 6 H 10.5 6 Z"
       id="path6" /><path
       style="fill:#323232;stroke-width:0.000357143"
       d="M 4.6876684,6.9480637 C 4.3798525,6.8399556 4.1559091,6.6133541 4.0507591,6.3035953 4.0077931,6.1770234 4,5.9889297 4,5.0784881 V 4.0029103 L 2.8671875,3.9936425 1.734375,3.984375 1.578125,3.9069956 C 1.3789118,3.8083397 1.1916604,3.6210881 1.0930044,3.421875 L 1.015625,3.265625 V 2 0.734375 L 1.093004,0.578125 C 1.1916604,0.37891184 1.3789118,0.19166038 1.578125,0.0930044 L 1.734375,0.015625 H 5.5 9.265625 l 0.15625,0.0773794 C 9.6210881,0.19166038 9.8083397,0.37891184 9.9069956,0.578125 l 0.077379,0.15625 0.00926,1.1321256 0.00927,1.1321256 2.63136,0.0085 2.63136,0.0085 0.15625,0.077379 c 0.199213,0.098656 0.386465,0.2859075 0.485121,0.4851206 l 0.07738,0.15625 V 5 6.265625 l -0.07738,0.15625 c -0.09866,0.1992131 -0.285908,0.3864647 -0.485121,0.4851206 l -0.15625,0.077379 -5.21875,0.00651 c -4.6850011,0.00584 -5.233128,0.00146 -5.3592066,-0.042821 z M 15,5 V 4 H 10 5 v 1 1 h 5 5 z M 9,2 V 1 H 5.5 2 V 2 3 H 5.5 9 Z"
       id="path1" /></g><g
     id="g8"
     transform="matrix(98.98039,0,0,98.98039,-1871.9239,1315.9278)"
     style="stroke-width:0.010103"
     inkscape:label="Strip"><path
       id="rect7"
       style="fill:#f9f9f9;stroke-width:1.0103;stroke-linecap:round;stroke-linejoin:round;paint-order:markers stroke fill"
       d="M 19.458068,-13.160016 H 34.78168 c 0.187359,0 0.338193,0 0.338193,0 v 11.749998 c 0,0 -0.150834,0 -0.338193,0 H 19.458068 c -0.187359,0 -0.338193,0 -0.338193,0 v -11.749998 c 0,0 0.150834,0 0.338193,0 z" /><path
       style="fill:#323232;stroke-width:0.000315719"
       d="m 19.119873,-7.170018 v 5.76 h 8 8 l -0.0028,-5.792815 -0.9972,0.0044 v 2.788415 h -7 -7 v -2.76 z m 3,4.26 v 0.5 h -1 -1 v -0.5 -0.5 h 1 1 z m 4,0 v 0.5 h -1 -1 v -0.5 -0.5 h 1 1 z m 4,0 v 0.5 h -1 -1 v -0.5 -0.5 h 1 1 z m 4,0 v 0.5 h -1 -1 v -0.5 -0.5 h 1 1 z"
       id="path821-2-6"
       inkscape:connector-curvature="0"
       sodipodi:nodetypes="ccccccccccccccccccccccccccccccccccccccccccccccc" /><path
       style="fill:#323232;stroke-width:0.000315719"
       d="m 19.119873,-7.0000178 v -6.1600002 h 8 8 l -0.0028,6.1928155 -0.9972,-0.00445 v -3.1883615 h -7 -7 v 3.1600004 z m 3,-4.6600002 v -0.5 h -1 -1 v 0.5 0.5 h 1 1 z m 4,0 v -0.5 h -1 -1 v 0.5 0.5 h 1 1 z m 4,0 v -0.5 h -1 -1 v 0.5 0.5 h 1 1 z m 4,0 v -0.5 h -1 -1 v 0.5 0.5 h 1 1 z"
       id="path821-2"
       inkscape:connector-curvature="0"
       sodipodi:nodetypes="ccccccccccccccccccccccccccccccccccccccccccccccc" /></g><path
     style="fill:none;stroke-width:0.0357143"
     d="M 8.3332365,813.34412 V 13.344132 H 808.33323 1608.3333 V 813.34412 1613.3441 H 808.33323 8.3332365 Z M 1347.7606,1559.9706 c 29.7096,-4.132 66.65,-17.2917 92.6368,-33.0005 25.032,-15.1316 66.4303,-56.5299 81.5619,-81.5619 47.1492,-77.9981 47.2222,-181.959 0.18,-261.0032 -8.984,-15.0971 -75.3118,-83.337 -293.8394,-302.31088 l -282.2331,-282.8125 3.3444,-23.4375 c 1.9436,-13.62081 2.6611,-46.34313 1.713,-78.125 -1.3204,-44.26409 -3.1363,-60.68606 -9.52757,-86.15972 -13.646,-54.38884 -34.9058,-102.56275 -65.3986,-148.19046 -20.1827,-30.20046 -84.5642,-94.58186 -114.7646,-114.76466 -68.3937,-45.70712 -143.1405,-71.275008 -218.9719,-74.901438 -58.4354,-2.79452 -57.9729,-2.96493 -97.7574,36.018148 -18.6975,18.32085 -35.9362,37.83579 -38.3081,43.36652 -5.5368,12.90993 -5.51,32.70529 0.062,45.51323 2.406,5.53073 48.8122,54.34438 103.125,108.47478 l 98.7502,98.41888 v 103.92488 103.92484 h -103.9248 -103.9249 l -98.4189,-98.75053 c -54.1304,-54.31281 -102.944,-100.71906 -108.4748,-103.125 -12.8079,-5.57166 -32.6033,-5.5985 -45.5132,-0.0616 -5.5307,2.372 -25.0457,19.61068 -43.3665,38.30818 -38.983098,39.7845 -38.812698,39.322 -36.018198,97.75741 3.6264,75.83131 29.1943,150.57819 74.901498,218.97184 20.1828,30.20044 84.5642,94.58188 114.7646,114.76466 45.6277,30.49275 93.8016,51.75264 148.1905,65.39864 25.4736,6.3913 41.8956,8.2072 86.1597,9.5276 31.7819,0.948 64.5042,0.231 78.125,-1.713 l 23.4375,-3.3444 282.8125,282.23598 c 218.97397,218.5276 287.21387,284.8553 302.31097,293.8395 50.2761,29.9192 108.1288,41.1956 168.3664,32.8174 z m -57.616,-201.7076 c -33.0871,-16.8608 -37.2627,-59.0336 -8.051,-81.3145 28.4321,-21.6862 70.464,-3.426 75.312,32.7185 4.666,34.7884 -36.2894,64.3788 -67.261,48.596 z"
     id="path827"
     inkscape:connector-curvature="0" /><path
     style="fill:#fefefe;stroke-width:0.0357143"
     d="m 1298.912,1491.7613 c -37.0697,-8.0642 -73.0968,-30.9215 -93.9619,-59.6146 -6.962,-9.5744 -13.7228,-17.8797 -15.0238,-18.4561 -3.8474,-1.7053 -15.4194,-41.0409 -17.662,-60.0367 l -2.0744,-17.5724 h 28.1346 28.1345 l 2.1389,15.8988 c 4.0755,30.2919 27.945,61.6113 59.9014,78.5965 20.2961,10.7876 64.8693,10.7876 85.1655,0 31.9564,-16.9852 55.826,-48.3046 59.9013,-78.5965 l 2.1389,-15.8988 h 28.0193 c 31.6468,0 30.1073,2.0318 23.1895,-30.6059 -7.9934,-37.7141 -31.9005,-76.2986 -58.8309,-94.9506 -7.9427,-5.5009 -31.0784,-27.323 -51.4129,-48.4935 C 1356.3356,1140.861 1226.3728,1009.8214 1087.864,870.83245 947.70426,730.18692 834.47431,613.9469 832.52218,608.70276 c -5.01865,-13.48174 -4.34269,-31.96833 2.12619,-58.14893 3.90847,-15.81813 5.64897,-37.15118 5.68345,-69.66033 0.0418,-39.93019 -1.299,-52.27472 -9.06998,-83.47867 C 797.71721,262.71869 694.8394,159.34758 561.10516,125.96275 c -31.27491,-7.80733 -41.06701,-8.70296 -91.90547,-8.40595 l -56.90096,0.33204 28.45048,-28.862937 28.45048,-28.863297 35.14471,1.883725 c 69.57802,3.729383 146.64308,30.396511 209.50641,72.496379 33.92208,22.71781 85.67608,74.47177 108.39395,108.3939 26.15281,39.05125 49.26194,90.08423 61.08995,134.90755 9.81214,37.18411 10.41943,43.01683 10.55514,101.37576 0.11246,48.31056 -1.14841,67.07178 -5.73562,85.35145 l -5.87968,23.42982 312.14735,311.6717 c 248.0816,247.70361 314.4093,315.71341 323.169,331.36441 13.8371,24.7226 23.5396,55.3493 26.4098,83.3639 l 2.2212,21.6803 h -26.9368 -26.9367 l -3.9909,23.6633 c -11.0508,65.5172 -61.5754,118.376 -126.2478,132.0804 -27.2078,5.7655 -36.4422,5.7559 -63.1971,-0.065 z M 314.2939,685.8015 c -14.83056,-6.23307 -32.73619,-22.48422 -111.29164,-101.00798 -52.9367,-52.91539 -93.61749,-96.18573 -93.61749,-99.57668 0,-5.26473 -3.26935,-5.99691 -26.776921,-5.99691 -14.727309,0 -26.776924,-1.16286 -26.776924,-2.58418 0,-1.42132 12.815007,-15.3327 28.477902,-30.91413 l 28.477793,-28.32997 107.91711,107.74124 c 59.35437,59.25767 112.15718,109.3179 117.33959,111.24493 12.95254,4.81631 249.58407,4.75644 262.31274,-0.0663 12.54136,-4.75183 24.32983,-15.9179 29.8009,-28.22752 4.01954,-9.04375 4.47592,-5.83277 4.59395,32.31974 l 0.13068,42.36109 -15.65829,5.33536 c -13.33791,4.54469 -35.77943,5.32003 -151.45682,5.23242 -132.61239,-0.10044 -136.21335,-0.27741 -153.47268,-7.53095 z"
     id="path825-4"
     inkscape:connector-curvature="0" /><path
     style="fill:#cbe5fe;stroke-width:0.0357143"
     d="M 902.64387,1129.9032 C 736.46531,963.5286 611.95658,841.42778 605.70214,838.70425 c -14.24758,-6.20413 -32.37031,-5.91979 -60.14784,0.94371 -15.8182,3.90845 -37.15126,5.64895 -69.66038,5.68339 -39.93017,0.0422 -52.27466,-1.29898 -83.47867,-9.06998 C 257.49693,802.66145 152.22999,697.67318 121.48248,566.04572 c -9.38671,-40.18403 -13.51699,-70.09021 -9.67986,-70.09021 1.45667,0 44.05875,41.4451 94.67132,92.10021 80.68894,80.75672 94.20261,92.91799 109.7208,98.73991 16.58038,6.22044 26.24771,6.6397 153.0946,6.6397 157.16834,0 156.78168,0.0633 188.05584,-30.82228 31.09786,-30.71153 31.09058,-30.66754 31.09058,-188.41379 0,-126.75747 -0.41955,-136.42534 -6.63972,-153.00498 -5.82195,-15.51817 -17.98316,-29.03188 -98.7399,-109.72076 -50.65509,-50.61258 -92.1002,-93.21464 -92.1002,-94.6713 0,-3.83713 29.90619,0.29348 70.0902,9.67987 131.62744,30.74749 236.6157,136.01438 270.2157,270.93272 7.77098,31.20395 9.11218,43.54848 9.06998,83.47867 -0.0343,32.50915 -1.77498,53.8422 -5.68334,69.66033 -6.4722,26.19406 -7.14816,44.74317 -2.11324,57.98616 1.93629,5.09287 132.36826,138.59522 289.84916,296.67193 157.4807,158.0767 285.6625,288.0781 284.8486,288.892 -0.814,0.8141 -8.8675,-1.8572 -17.8959,-5.937 -25.0625,-11.3236 -80.0396,-12.7207 -109.8745,-2.7923 -44.104,14.6769 -84.3712,54.8651 -98.9906,98.7965 -10.6904,32.1255 -10.3091,79.2079 0.8889,109.6483 4.5714,12.4261 8.1189,22.593 7.8822,22.593 -0.2357,0 -129.2057,-128.9291 -286.59988,-286.5091 z m 231.29563,45.0678 c 16.461,-5.4924 31.8415,-21.4722 36.426,-37.8467 8.2987,-29.6414 12.1748,-24.9532 -175.23556,-211.96811 C 858.32784,788.64279 821.4181,753.56863 811.15472,750.33074 c -37.34771,-11.78245 -76.55886,26.91191 -65.88901,65.02073 3.48914,12.46219 25.29541,35.49696 175.24126,185.11433 107.62453,107.3887 174.98723,172.1615 181.29763,174.327 13.479,4.626 18.7185,4.6549 32.1349,0.1821 z"
     id="path823-5"
     inkscape:connector-curvature="0" /><path
     style="fill:#6598fe;stroke-width:0.0357143"
     d="m 1302.6316,1546.7439 c -26.3133,-3.9159 -55.4584,-14.482 -80.3308,-29.1218 -15.331,-9.0237 -93.3784,-84.986 -329.85723,-321.0447 L 582.66926,887.35331 559.40557,893.1934 c -18.09198,4.5418 -37.02884,5.80805 -85.18521,5.69608 -58.35891,-0.13556 -64.19167,-0.74299 -101.37572,-10.55516 C 328.02125,876.50631 276.98829,853.39713 237.93704,827.24431 204.01496,804.52646 152.26094,752.77249 129.54308,718.85038 88.490097,657.55027 61.470038,580.62422 56.9924,512.29871 l -2.167752,-33.07878 h 26.847829 26.847943 l 2.34618,26.8963 c 7.50858,86.07659 47.65565,173.37666 107.04183,232.76279 45.20534,45.20537 109.85127,81.28061 174.50682,97.38235 31.20401,7.77098 43.5485,9.11218 83.47867,9.06998 32.50912,-0.0345 53.84218,-1.77499 69.66038,-5.68334 26.16866,-6.46599 44.65823,-7.14462 58.14888,-2.13434 5.30055,1.96853 135.71306,129.72021 298.11125,292.02863 158.77877,158.6909 288.68877,287.1576 288.68877,285.4811 0,-1.6762 6.0055,5.3393 13.3464,15.5902 32.9823,46.0594 95.5055,72.0857 150.7756,62.7633 65.6444,-11.0723 118.4846,-61.5415 132.2005,-126.2682 6.9983,-33.0257 8.3783,-31.0272 -21.4238,-31.0272 h -26.3417 l -1.6633,-14.759 c -3.542,-31.4254 -27.8688,-64.3508 -58.8029,-79.5878 -22.6222,-11.1428 -69.0544,-11.1428 -91.6767,0 -30.9341,15.237 -55.2607,48.1624 -58.8029,79.5878 l -1.6635,14.759 h -26.3417 -26.3417 v -16.0857 c 0,-53.968 48.3371,-115.5338 105.695,-134.6213 18.5518,-6.1737 27.7201,-7.1354 58.1242,-6.0943 34.3299,1.1748 37.387,1.8892 62.4148,14.5863 47.7722,24.2355 79.6649,67.0279 88.3555,118.5516 l 3.9914,23.6634 h 26.5898 26.5898 l -2.0769,17.5724 c -9.4244,79.7587 -52.7612,142.7795 -120.0851,174.6288 -35.6802,16.8795 -82.8752,24.0959 -120.7349,18.4612 z m -200.827,-371.9511 c -6.3104,-2.1655 -73.6731,-66.9383 -181.29763,-174.327 C 770.56112,850.84844 748.75495,827.81366 745.26571,815.35147 c -10.66985,-38.10882 28.5413,-76.80318 65.88901,-65.02073 10.26338,3.23786 47.17312,38.31205 183.97522,174.82545 187.41036,187.01491 183.53476,182.32671 175.23556,211.96811 -4.5842,16.3745 -19.965,32.3547 -36.426,37.8467 -13.4164,4.4761 -18.6559,4.4472 -32.1349,-0.182 z M 634.8819,516.25611 c 0,-105.84067 -1.23955,-167.1245 -3.50369,-173.21323 C 629.45123,337.8605 579.3787,285.0454 520.10595,225.67594 L 412.3374,117.73147 h 38.49493 38.49482 l 92.87951,92.92382 c 80.7952,80.83395 93.74773,95.20938 99.55425,110.49073 6.26912,16.49917 6.67485,25.80174 6.67485,153.05324 0,157.2339 0.0589,156.87626 -30.77558,188.09822 -9.64087,9.76216 -18.70999,17.74939 -20.1536,17.74939 -1.4436,0 -2.62468,-73.70586 -2.62468,-163.79076 z"
     id="path821-5"
     inkscape:connector-curvature="0" /><path
     style="fill:#323232;stroke-width:0.0357143"
     d="m 1288.2749,1600.0074 c -27.1481,-3.891 -68.8081,-19.1566 -95.2966,-34.9198 -16.1702,-9.6228 -89.2603,-80.6649 -323.79831,-314.7247 l -302.91395,-302.29658 -25.10336,3.5821 c -14.58893,2.08175 -49.63704,2.85025 -83.67789,1.83476 -47.41026,-1.41426 -64.99948,-3.35922 -92.28367,-10.2048 C 306.94642,928.66247 255.34847,905.89158 206.47768,873.23149 174.13073,851.61418 105.1733,782.65671 83.555966,750.30972 34.60004,677.05485 7.2148506,596.99519 3.330697,515.77401 0.33757245,453.1852 0.15506093,453.68058 41.908959,411.06832 c 19.622987,-20.02647 40.525054,-38.49043 46.44886,-41.03102 13.827491,-5.93032 35.029901,-5.90157 48.748131,0.066 5.92393,2.57695 58.20705,52.28161 116.18487,110.45481 L 358.70503,586.32763 H 470.0166 581.32806 V 475.01613 363.70458 L 475.55867,258.29039 c -58.17318,-57.97782 -107.8779,-110.261 -110.45481,-116.18484 -5.96772,-13.71829 -5.99643,-34.92064 -0.0664,-48.748169 2.5406,-5.923838 21.00457,-26.82584 41.03103,-46.448881 C 448.68074,5.1546236 448.18538,5.3371458 510.77419,8.3302918 591.99535,12.214477 672.05502,39.599653 745.30984,88.555497 777.6569,110.17283 846.61433,179.13026 868.23166,211.47728 c 32.66014,48.87079 55.43102,100.46875 70.04694,158.72339 6.84554,27.28425 8.79051,44.87344 10.20476,92.28369 1.01538,34.04083 0.24742,69.08896 -1.83475,83.67789 l -3.58212,25.10337 302.29661,302.91394 c 234.0598,234.53794 305.102,307.62804 314.7247,323.79824 50.3824,84.6624 50.3043,196.0126 -0.1928,279.5545 -16.2072,26.8112 -60.5479,71.152 -87.3591,87.3591 -53.2198,32.1709 -118.2864,44.5713 -184.2579,35.116 z m 71.6448,-53.3232 c 78.9243,-10.9774 142.7925,-61.8481 170.684,-135.9488 4.7319,-12.5707 9.9063,-36.6019 12.0328,-55.8851 4.8488,-43.963 -0.9854,-75.3599 -21.4788,-115.5036 -14.1828,-27.7872 -18.0354,-31.7943 -326.6176,-339.73214 L 882.27467,588.0012 l 5.87956,-23.42981 c 4.58721,-18.27968 5.84797,-37.04089 5.73572,-85.35146 -0.13559,-58.35893 -0.743,-64.19165 -10.55524,-101.37576 C 871.5067,333.02085 848.39757,281.98787 822.24476,242.93663 799.52689,209.01449 747.77289,157.26053 713.85081,134.54272 650.98748,92.442853 573.92242,65.775671 504.3444,62.046352 l -35.14471,-1.883734 -28.37957,28.787399 -28.37948,28.787413 109.30373,109.61504 c 91.78241,92.04374 109.63801,111.49295 111.38848,121.32996 1.14658,6.44318 1.63263,66.95962 1.08007,134.48091 -0.96505,117.94797 -1.27545,123.12857 -7.90562,132.00426 -3.79558,5.08097 -11.05823,12.34372 -16.13932,16.13928 -8.87568,6.63018 -14.05627,6.94047 -132.00423,7.90561 -67.52123,0.55254 -128.03772,0.0665 -134.48089,-1.08004 -9.83699,-1.75048 -29.28625,-19.6061 -121.32999,-111.38846 l -109.61499,-109.30381 -28.787437,28.37953 -28.787442,28.37955 1.883811,35.14472 c 3.729275,69.57796 30.396414,146.64311 72.496268,209.5064 22.71786,33.92211 74.47188,85.67608 108.39396,108.39393 39.05125,26.15282 90.08421,49.262 134.9076,61.09001 37.18405,9.81217 43.01681,10.41947 101.37572,10.55516 48.15637,0.11247 67.09323,-1.15429 85.18521,-5.69608 l 23.26369,-5.84006 309.77431,309.22406 c 236.47883,236.0587 314.52623,312.0212 329.85723,321.0447 25.0515,14.7451 54.2195,25.2734 80.3308,28.9957 28.4826,4.0604 28.5722,4.0604 57.2881,0.067 z m -59.3558,-111.2598 c -28.2397,-10.5651 -49.4733,-29.4137 -63.9439,-56.7603 -10.8749,-20.5511 -10.8164,-64.554 0.1178,-86.7474 9.9107,-20.1204 30.1868,-40.3587 50.182,-50.088 19.0174,-9.2531 54.7038,-12.1127 76.17,-6.102 31.2764,8.7572 62.9364,40.4069 71.6885,71.6662 3.2572,11.6327 3.3139,19.8191 0.2571,37.3496 -6.7371,38.6883 -25.511,65.8717 -57.5283,83.2977 -20.8804,11.3645 -57.0338,14.8343 -76.945,7.385 z m 61.8234,-56.9015 c 31.9985,-24.4065 26.8667,-70.1226 -9.8261,-87.5346 -33.4662,-15.8807 -75.6549,15.3786 -70.6922,52.3788 5.1787,38.6124 50.2094,58.2735 80.5184,35.1558 z"
     id="path819-1"
     inkscape:connector-curvature="0" /><g
     id="SEQ_SNAP_STRIP"
     transform="matrix(99.999883,0,0,99.999883,-3093.3932,200.00095)"
     style="stroke-width:0.01"><path
       style="fill:none;stroke-width:0.000312501"
       d="m 0,15 v -1 h 3 3 v 0.608203 c 0,0.530245 0.00795,0.629463 0.062058,0.774069 0.079481,0.212431 0.3356794,0.471177 0.5490025,0.554461 0.1542438,0.06022 0.1475519,0.06035 -3.2282484,0.0618 L 0,16 Z m 9.3889391,0.936733 C 9.6022622,15.853449 9.8584609,15.594703 9.9379416,15.382272 9.9920456,15.237666 10,15.138448 10,14.608203 V 14 h 1 1 v 0.608203 c 0,0.530245 0.008,0.629463 0.06206,0.774069 0.07948,0.212431 0.33568,0.471177 0.549003,0.554461 l 0.154564,0.06034 H 11 9.234375 Z m 6.0022339,-3.35e-4 c 0.203455,-0.0783 0.464772,-0.340528 0.54556,-0.547458 l 0.06034,-0.154564 0.0015,0.382812 L 16,16 15.617188,15.9984 15.234375,15.9968 15.391173,15.93645 Z M 0,1 V 0 h 8 8 V 1 2 H 8 0 Z"
       id="path827-2"
       inkscape:connector-curvature="0" /></g></svg>
