<?xml version="1.0" encoding="UTF-8" standalone="no"?>
<!-- Created with Inkscape (http://www.inkscape.org/) -->

<svg
   version="1.1"
   id="svg2"
   width="1600"
   height="1600"
   viewBox="0 0 1600 1600"
   sodipodi:docname="seq_move_extend.svg"
   inkscape:version="1.2.2 (732a01da63, 2022-12-09)"
   xmlns:inkscape="http://www.inkscape.org/namespaces/inkscape"
   xmlns:sodipodi="http://sodipodi.sourceforge.net/DTD/sodipodi-0.dtd"
   xmlns="http://www.w3.org/2000/svg"
   xmlns:svg="http://www.w3.org/2000/svg"
   xmlns:rdf="http://www.w3.org/1999/02/22-rdf-syntax-ns#"
   xmlns:cc="http://creativecommons.org/ns#"
   xmlns:dc="http://purl.org/dc/elements/1.1/">
  <metadata
     id="metadata8">
    <rdf:RDF>
      <cc:Work
         rdf:about="">
        <dc:format>image/svg+xml</dc:format>
        <dc:type
           rdf:resource="http://purl.org/dc/dcmitype/StillImage" />
      </cc:Work>
    </rdf:RDF>
  </metadata>
  <defs
     id="defs6" />
  <sodipodi:namedview
     pagecolor="#808080"
     bordercolor="#666666"
     borderopacity="1"
     objecttolerance="10"
     gridtolerance="10"
     guidetolerance="10"
     inkscape:pageopacity="0"
     inkscape:pageshadow="2"
     inkscape:window-width="1993"
     inkscape:window-height="1009"
     id="namedview4"
     showgrid="false"
     inkscape:zoom="0.5"
     inkscape:cx="177"
     inkscape:cy="58"
     inkscape:window-x="-8"
     inkscape:window-y="-8"
     inkscape:window-maximized="1"
     inkscape:current-layer="SEQ_MOVE_EXTEND"
     inkscape:showpageshadow="0"
     inkscape:pagecheckerboard="true"
     inkscape:deskcolor="#d1d1d1" />
  <g
     id="SEQ_MOVE_EXTEND"
     transform="matrix(100,0,0,100,0,4.9999997e-5)"
     style="stroke-width:0.0114286">
    <path
       style="fill:none;stroke-width:0.000357143"
       d="M 0,8 V 0 H 0.5 1 V 0.24652216 0.49304431 L 0.89154491,0.51339062 C 0.75542566,0.53892675 0.59828897,0.66900397 0.54262581,0.80222469 0.51149059,0.87674175 0.5,1.071186 0.5,1.5235409 V 2.1428392 L 0.75,3.390625 1,4.6384109 V 10.319205 16 H 0.5 0 Z m 6,5.5 V 11 H 5 4 V 8.8125 C 4,7.609375 4.00352,6.6252494 4.00781,6.6255541 c 0.036781,0.00261 1.8149241,1.3169956 1.9453125,1.4379568 0.051563,0.047834 0.1809147,0.148035 0.2874494,0.2226679 0.3727447,0.2611265 1.6196581,1.1911559 1.7125506,1.2773321 0.051562,0.047834 0.1809147,0.148035 0.2874494,0.2226679 0.4058065,0.2842882 1.6232812,1.1945942 1.7202325,1.2862192 l 0.1014326,0.09586 -0.2811201,0.286662 c -0.1546156,0.157664 -0.2826669,0.313166 -0.2845582,0.345559 -0.02254,0.386048 -0.00874,1.32644 0.02059,1.403135 0.051077,0.133561 0.2409791,0.289681 0.3806185,0.312909 0.064821,0.01078 1.2076998,0.239271 2.5397308,0.507751 1.345338,0.271164 2.500747,0.48886 2.599314,0.48975 0.191973,0.0017 0.292162,-0.04989 0.41438,-0.213522 0.06046,-0.08094 0.06442,-0.128024 0.0642,-0.763694 l -2.31e-4,-0.677432 -0.505179,-2.487443 C 14.732134,9.0038378 14.484441,7.8366503 14.459554,7.7781816 c -0.111843,-0.26276 -0.419851,-0.3818769 -0.68712,-0.2657332 -0.05531,0.024034 -0.367608,0.3123157 -0.694001,0.640625 -0.326392,0.3283097 -0.607642,0.5964504 -0.625,0.5958685 -0.01736,-5.813e-4 -0.120808,-0.07441 -0.229891,-0.1640625 C 12.114459,8.4952269 11.928968,8.3515625 11.811339,8.265625 11.033965,7.6976906 10.157447,7.0413262 10.078125,6.9677391 10.026563,6.9199047 9.8972103,6.8197041 9.7906756,6.7450712 9.4179309,6.4839447 8.1710175,5.5539153 8.078125,5.4677391 8.0265625,5.4199047 7.8972766,5.3197041 7.7908228,5.2450712 7.4832881,5.0294641 6.1186234,4.0087003 6.0187759,3.9195872 L 5.9281766,3.8387281 6.1968437,3.5678016 C 6.3446106,3.4187919 6.4803022,3.2572878 6.4983806,3.2089031 6.5419709,3.0922378 6.5416641,1.9378819 6.4980119,1.8223469 6.4500416,1.6953829 6.3193184,1.5696927 6.1901578,1.5263459 6.1285397,1.5056666 5.6140625,1.3957019 5.046875,1.2819799 L 4.015625,1.0752126 4.0070747,0.53760631 3.9985241,0 H 9.9992622 16 v 8 8 H 11 6 Z"
       id="path829"
       inkscape:connector-curvature="0" />
    <path
       style="fill:#cbfefe;stroke-width:0.000357143"
       d="m 12.484375,12.502658 c -1.340625,-0.270149 -2.455162,-0.497306 -2.47675,-0.504794 -0.021933,-0.0076 0.283712,-0.336356 0.692784,-0.74515 l 0.732033,-0.731536 -0.378871,-0.284026 C 10.845192,10.080937 10.596721,9.8993066 10.501412,9.8335288 10.406104,9.7677509 10.285937,9.6745816 10.234375,9.6264859 10.142057,9.540375 8.8997069,8.6134044 8.5218244,8.3486788 8.4152897,8.2740459 8.2859375,8.1738453 8.234375,8.1260109 8.1414825,8.0398347 6.8945691,7.1098053 6.5218244,6.8486788 6.4152897,6.7740459 6.2859375,6.6738453 6.234375,6.6260109 6.1414825,6.5398347 4.8945691,5.6098053 4.5218244,5.3486788 4.4152897,5.2740459 4.2859375,5.1737931 4.234375,5.1258947 4.1828125,5.0779963 3.9933203,4.9313941 3.8132812,4.8001116 L 3.4859375,4.5614169 2.7429687,5.3039016 C 2.3343359,5.7122684 2,6.0392159 2,6.0304519 2,6.0216878 1.7751538,4.8907844 1.5003418,3.5173334 1.2255298,2.1438823 1.0050635,1.0157698 1.0104167,1.0104167 1.0157698,1.0050635 2.1438823,1.2255298 3.5173334,1.5003418 4.8907844,1.7751538 6.0216878,2 6.0304519,2 6.0392159,2 5.71253,2.3340741 5.3044831,2.7423869 L 4.5625794,3.4847738 4.9598325,3.7814494 c 0.2184891,0.1631715 0.4751116,0.350494 0.5702725,0.4162718 0.095161,0.065778 0.2152075,0.1589472 0.26677,0.2070429 0.092318,0.086111 1.3346681,1.0130815 1.7125506,1.2778072 0.1065347,0.074633 0.2358869,0.1748334 0.2874494,0.2226678 0.092892,0.086176 1.3398059,1.0162056 1.7125506,1.2773322 0.1065347,0.074633 0.2358869,0.1748334 0.2874494,0.2226678 0.092892,0.086176 1.339806,1.0162056 1.712551,1.2773322 0.106534,0.074633 0.235887,0.1747893 0.287449,0.22257 0.05156,0.047781 0.232753,0.1886212 0.402646,0.312979 l 0.308896,0.2261053 0.745791,-0.7453062 C 13.664394,8.2890009 14,7.9607841 14,7.9695481 c 0,0.00876 0.225,1.1404363 0.5,2.5148269 0.275,1.374391 0.5,2.502657 0.5,2.507259 0,0.01704 -0.127186,-0.0077 -2.515625,-0.488976 z"
       id="path827"
       inkscape:connector-curvature="0" />
    <path
       style="fill:#989898;stroke-width:0.000357143"
       d="m 14.994283,14.015117 c -0.01475,-0.01475 -4.75121,-0.970102 -4.924915,-0.993364 l -0.075405,-0.0101 0.00445,-0.496845 c 0.00245,-0.273265 0.00732,-0.499566 0.010831,-0.50289 0.0035,-0.0033 1.134894,0.219728 2.514191,0.49567 l 2.507812,0.501714 v 0.510973 c 0,0.281035 -0.0047,0.510973 -0.01042,0.510973 -0.0057,0 -0.01768,-0.0073 -0.02655,-0.01613 z m -4.26224,-3.013911 C 10.41072,10.749688 8.7642194,9.5187209 8.5216772,9.3486788 8.4152234,9.2740459 8.2859375,9.1738453 8.234375,9.1260109 8.1414825,9.0398347 6.8945691,8.1098053 6.5218244,7.8486788 6.4152897,7.7740459 6.2859375,7.6738453 6.234375,7.6260109 6.1414825,7.5398347 4.8945691,6.6098053 4.5218244,6.3486788 4.4152897,6.2740459 4.2859375,6.1737931 4.234375,6.1258947 4.1828125,6.0779963 3.9933203,5.9313941 3.8132813,5.8001116 L 3.4859375,5.5614169 2.7429687,6.3039016 C 2.3343359,6.7122684 2,7.0392159 2,7.0304519 2,7.0216878 1.775,5.8900156 1.5,4.515625 L 1,2.0167328 1.0030809,1.5474289 1.0061619,1.078125 1.5015562,3.53125 C 1.774023,4.8804688 1.9976366,5.9983275 1.9984752,6.0153809 1.999314,6.0324341 2.3343359,5.7122684 2.7429687,5.3039016 L 3.4859375,4.5614169 3.8132812,4.8001116 c 0.1800391,0.1312825 0.3695313,0.2778846 0.4210938,0.3257831 0.051563,0.047898 0.1809147,0.1481512 0.2874494,0.222784 0.3727447,0.2611266 1.6196581,1.191156 1.7125506,1.2773322 0.051563,0.047834 0.1809147,0.148035 0.2874494,0.2226678 0.3727447,0.2611266 1.6196581,1.191156 1.7125506,1.2773322 0.051562,0.047834 0.1809147,0.148035 0.2874494,0.2226679 0.3778825,0.2647256 1.6202326,1.1916962 1.7125506,1.2778071 0.05156,0.048096 0.171729,0.141265 0.267038,0.2070428 0.09531,0.065778 0.343872,0.2474773 0.552365,0.4037763 l 0.379077,0.28418 -0.289072,0.28787 -0.289072,0.28787 z M 4.8506512,3.6963363 4.5608553,3.4865094 5.28824,2.7585677 6.015625,2.030626 6.024265,2.5221648 6.032905,3.0137035 5.5866753,3.4599334 5.1404456,3.9061631 Z"
       id="path825"
       inkscape:connector-curvature="0" />
    <path
       style="fill:#00fd00;stroke-width:0.000357143"
       d="M 2,11.769619 V 7.5392381 l 0.1313125,-0.020998 c 0.1146604,-0.018335 0.1780665,-0.067176 0.5,-0.385144 L 3,6.7689497 V 9.384475 12 h 1 1 v 2 2 H 3.5 2 Z M 2.4765625,0.77123175 2,0.67439956 V 0.33719978 0 H 2.5 3 V 0.4375 C 3,0.678125 2.989453,0.87343937 2.976563,0.87153197 2.963672,0.86962397 2.7386724,0.82448947 2.4765625,0.77123175 Z"
       id="path823"
       inkscape:connector-curvature="0" />
    <path
       style="fill:#323232;stroke-width:0.000357143"
       d="M 14.8125,14.500862 C 14.745641,14.4762 10.230489,13.571897 9.8977694,13.516529 9.75813,13.493292 9.5682256,13.337167 9.5171509,13.203613 c -0.02933,-0.0767 -0.04313,-1.017087 -0.02059,-1.403135 0.00189,-0.03239 0.1299426,-0.187895 0.2845582,-0.345559 L 10.062239,11.168257 9.9608069,11.072398 C 9.8638556,10.980773 8.6463809,10.070467 8.2405744,9.7861788 8.1340397,9.7115459 8.0046875,9.6113453 7.953125,9.5635109 7.8602325,9.4773347 6.6133191,8.5473053 6.2405744,8.2861788 6.1340397,8.2115459 6.0046875,8.1113453 5.953125,8.0635109 5.8635481,7.9804103 4.6452778,7.0709131 4.2418294,6.7859462 4.135985,6.7111853 3.9899613,6.5977106 3.9173325,6.53378 3.8447034,6.4698497 3.7272538,6.3773306 3.6563328,6.3281822 L 3.5273856,6.2388219 2.9121303,6.852285 C 2.5737399,7.18969 2.2572877,7.4804862 2.2089031,7.4984991 1.9187562,7.6065172 1.6136518,7.4565691 1.5181465,7.1590162 1.4928332,7.0801509 1.2526078,5.9149547 0.98431231,4.5696912 L 0.49650228,2.1237573 0.50606362,1.4703247 C 0.51651241,0.75624703 0.52145175,0.73634572 0.72616553,0.58350481 0.89720753,0.45580353 0.97449603,0.46668556 3.5625,0.98285456 4.9117188,1.2519518 6.0801509,1.4928332 6.1590163,1.5181465 c 0.1569612,0.05038 0.2872793,0.1673218 0.3389956,0.3042004 0.043652,0.115535 0.043959,1.2698909 3.687e-4,1.3865562 -0.018078,0.048385 -0.15377,0.2098888 -0.3015369,0.3588985 l -0.2686671,0.2709265 0.090599,0.080859 c 0.099848,0.089113 1.4645122,1.1098769 1.7720469,1.3254841 0.1064538,0.074633 0.2357397,0.1748334 0.2873022,0.2226678 0.092892,0.086176 1.3398059,1.0162056 1.7125506,1.2773322 0.1065347,0.074633 0.2358877,0.1748334 0.2874497,0.2226678 0.07932,0.073587 0.95584,0.7299515 1.733214,1.2978859 0.117629,0.085937 0.30312,0.2296019 0.412203,0.3192544 0.109083,0.089652 0.212534,0.1634806 0.229891,0.1640625 0.01736,5.812e-4 0.298608,-0.2675588 0.625,-0.5958685 0.326393,-0.3283093 0.638694,-0.6165906 0.694001,-0.640625 0.272101,-0.1182437 0.592589,0.012565 0.69686,0.2844266 0.01978,0.051563 0.263187,1.2117187 0.540913,2.5781251 l 0.504955,2.484375 2.19e-4,0.677432 c 2.18e-4,0.63567 -0.0037,0.682749 -0.0642,0.763694 -0.111759,0.149628 -0.218896,0.209124 -0.39521,0.219472 -0.09095,0.0053 -0.200515,-0.0033 -0.243484,-0.01911 z m 0.210857,-1.172041 C 15.013606,13.035119 14.937383,12.616158 14.50596,10.484929 14.227682,9.1102334 14,7.9783122 14,7.9695481 14,7.9607841 13.664394,8.2890009 13.254208,8.6989194 L 12.508417,9.4442256 12.199521,9.2181203 C 12.029628,9.0937625 11.848437,8.9529222 11.796875,8.9051413 11.745313,8.8573606 11.61596,8.7572041 11.509426,8.6825713 11.136681,8.4214447 9.8897675,7.4914153 9.796875,7.4052391 9.7453125,7.3574047 9.6159603,7.2572041 9.5094256,7.1825713 9.1366809,6.9214447 7.8897675,5.9914153 7.796875,5.9052391 7.7453125,5.8574047 7.6159603,5.7572041 7.5094256,5.6825713 7.1395925,5.4234844 5.8899653,4.4899466 5.7716575,4.3843656 5.7062253,4.3259725 5.5796628,4.2300238 5.4904075,4.1711463 5.4011522,4.1122684 5.2859375,4.0287638 5.234375,3.9855803 L 5.140625,3.9070644 5.5859375,3.4609538 6.03125,3.0148431 V 2.5074215 C 6.03125,2.2283397 6.027485,2 6.0228837,2 6.0182822,2 4.8900156,1.775 3.515625,1.5 2.1412343,1.225 1.0129679,1 1.0083664,1 1.0037649,1 1,1.2287649 1,1.5083664 V 2.0167328 L 1.5,4.515625 C 1.775,5.8900156 2,7.0216878 2,7.0304519 2,7.0392159 2.3343359,6.7122684 2.7429687,6.3039016 L 3.4859375,5.5614169 3.8132812,5.8001116 c 0.1800391,0.1312825 0.3695313,0.2778846 0.4210938,0.3257831 0.051563,0.047898 0.1809147,0.1481512 0.2874494,0.222784 0.3727447,0.2611266 1.6196581,1.191156 1.7125506,1.2773322 0.051563,0.047834 0.1809147,0.148035 0.2874494,0.2226678 0.3727447,0.2611266 1.6196581,1.191156 1.7125506,1.2773322 0.051562,0.047834 0.1809147,0.148035 0.2874494,0.2226679 0.3715968,0.2603221 1.6197276,1.1928632 1.7388466,1.2991792 0.06602,0.05893 0.179648,0.144942 0.252495,0.191141 0.07285,0.0462 0.179331,0.123445 0.23663,0.171659 l 0.104181,0.08766 -0.428634,0.429455 -0.4286324,0.429455 v 0.527396 0.527397 l 0.074031,0.0099 c 0.1943,0.02602 4.909789,0.979459 4.926146,0.996032 0.02729,0.02765 0.03961,-0.293253 0.02647,-0.689148 z"
       id="path821"
       inkscape:connector-curvature="0" />
    <path
       style="fill:#007e00;stroke-width:0.000357143"
       d="m 1.0030976,10.351563 0.0031,-5.648438 0.2412731,1.1875 C 1.3801709,6.54375 1.5061981,7.1301566 1.5275311,7.1937506 1.5762151,7.3388791 1.745974,7.4905497 1.8899593,7.5175616 L 2,7.5382056 V 11.769103 16 H 1.5 1 L 1.0031,10.351563 Z M 5,14 V 12 H 4 3 V 9.3821225 6.764245 L 3.2634866,6.5021272 C 3.5627203,6.2044481 3.5107725,6.2077912 3.8359375,6.4652847 L 4,6.5952034 V 8.7976016 11 H 5 6 V 13.5 16 H 5.5 5 Z M 3.609375,0.99694709 C 3.4546875,0.96433147 3.2542969,0.92255362 3.1640625,0.90410741 L 3,0.87056888 V 0.43528444 0 H 3.5 4 V 0.53125 C 4,1.0175598 3.99537,1.0622356 3.945313,1.0593741 3.915235,1.0576541 3.764063,1.0295631 3.609375,0.99694709 Z m -2.09375,-0.420524 C 1.3265625,0.53599597 1.1332031,0.50226241 1.0859375,0.50145962 L 1,0.5 V 0.25 0 H 1.5 2 V 0.328125 C 2,0.71363425 2.046304,0.68989794 1.515625,0.57642309 Z"
       id="path819"
       inkscape:connector-curvature="0" />
  </g>
</svg>
