<?xml version="1.0" encoding="UTF-8" standalone="no"?>
<!-- Created with Inkscape (http://www.inkscape.org/) -->

<svg
   version="1.1"
   id="svg2"
   width="1600"
   height="1600"
   viewBox="0 0 1600 1600"
   sodipodi:docname="seq_snap_strip.svg"
   inkscape:version="1.2.2 (732a01da63, 2022-12-09)"
   xmlns:inkscape="http://www.inkscape.org/namespaces/inkscape"
   xmlns:sodipodi="http://sodipodi.sourceforge.net/DTD/sodipodi-0.dtd"
   xmlns="http://www.w3.org/2000/svg"
   xmlns:svg="http://www.w3.org/2000/svg"
   xmlns:rdf="http://www.w3.org/1999/02/22-rdf-syntax-ns#"
   xmlns:cc="http://creativecommons.org/ns#"
   xmlns:dc="http://purl.org/dc/elements/1.1/">
  <metadata
     id="metadata8">
    <rdf:RDF>
      <cc:Work
         rdf:about="">
        <dc:format>image/svg+xml</dc:format>
        <dc:type
           rdf:resource="http://purl.org/dc/dcmitype/StillImage" />
      </cc:Work>
    </rdf:RDF>
  </metadata>
  <defs
     id="defs6" />
  <sodipodi:namedview
     pagecolor="#808080"
     bordercolor="#666666"
     borderopacity="1"
     objecttolerance="10"
     gridtolerance="10"
     guidetolerance="10"
     inkscape:pageopacity="0"
     inkscape:pageshadow="2"
     inkscape:window-width="2560"
     inkscape:window-height="1009"
     id="namedview4"
     showgrid="false"
     inkscape:zoom="0.5"
     inkscape:cx="540"
     inkscape:cy="874"
     inkscape:window-x="-8"
     inkscape:window-y="-8"
     inkscape:window-maximized="1"
     inkscape:current-layer="SEQ_SNAP_STRIP"
     inkscape:showpageshadow="0"
     inkscape:pagecheckerboard="true"
     inkscape:deskcolor="#d1d1d1" />
  <g
     id="SEQ_SNAP_STRIP"
     transform="scale(99.999883)"
     style="stroke-width:0.01">
    <path
       style="fill:none;stroke-width:0.000312501"
       d="m 0,15 v -1 h 3 3 v 0.608203 c 0,0.530245 0.00795,0.629463 0.062058,0.774069 0.079481,0.212431 0.3356794,0.471177 0.5490025,0.554461 0.1542438,0.06022 0.1475519,0.06035 -3.2282484,0.0618 L 0,16 Z m 9.3889391,0.936733 C 9.6022622,15.853449 9.8584609,15.594703 9.9379416,15.382272 9.9920456,15.237666 10,15.138448 10,14.608203 V 14 h 1 1 v 0.608203 c 0,0.530245 0.008,0.629463 0.06206,0.774069 0.07948,0.212431 0.33568,0.471177 0.549003,0.554461 l 0.154564,0.06034 H 11 9.234375 Z m 6.0022339,-3.35e-4 c 0.203455,-0.0783 0.464772,-0.340528 0.54556,-0.547458 l 0.06034,-0.154564 0.0015,0.382812 L 16,16 15.617188,15.9984 15.234375,15.9968 15.391173,15.93645 Z M 0,1 V 0 h 8 8 V 1 2 H 8 0 Z"
       id="path827"
       inkscape:connector-curvature="0" />
    <path
       style="fill:#fefefe;stroke-width:0.000312501"
       d="M 6.6110609,15.936733 C 6.3977378,15.853449 6.1415391,15.594703 6.0620584,15.382272 6.0044319,15.228251 6,15.137262 6,14.108203 V 13 H 5.5 5 V 12.5 12 H 5.5 6 V 11.5 11 H 3.5 1 V 8 5 h 7 7 v 0.9541287 0.9541285 l 0.168278,0.241184 C 15.400285,7.481965 15.641255,7.9760856 15.785223,8.4145175 16.005541,9.0854625 16,8.9860269 16,12.268546 c 0,3.385817 0.02104,3.136241 -0.290274,3.443685 C 15.418976,15.999369 15.415232,16 14.000837,16 12.58011,16 12.573297,15.998847 12.287769,15.709726 11.985541,15.403697 12,15.534365 12,13.10904 V 11 H 11 10 V 11.5 12 H 10.5 11 V 12.5 13 H 10.5 10 v 1.10904 c 0,1.292175 -0.00376,1.313108 -0.2877691,1.600686 -0.2860772,0.289676 -0.2910996,0.290518 -1.7212156,0.288812 -1.1345691,-0.0014 -1.2368459,-0.0059 -1.3799544,-0.0618 z M 9.0068197,12.304688 9.015625,9.609375 9.0993566,9.3801588 C 9.2183028,9.0545409 9.3599528,8.8302109 9.5950819,8.5950819 9.8319822,8.3581816 10.057859,8.2161919 10.380159,8.1015703 10.580601,8.0302856 10.658412,8.0200525 11,8.0200525 c 0.341588,0 0.419399,0.010233 0.619841,0.081518 0.3223,0.1146216 0.548177,0.2566113 0.785077,0.4935116 0.235129,0.235129 0.376779,0.459459 0.495725,0.7850769 l 0.08373,0.2292162 0.0088,2.6953128 L 13.001986,15 h 1.000109 1.000109 l -0.0099,-2.820312 -0.0099,-2.820313 -0.08264,-0.3125 C 14.502955,7.5462697 13.405116,6.4620812 11.90625,6.0905794 11.64557,6.0259684 11.53508,6.0169972 11,6.0169972 c -0.53508,0 -0.64557,0.00897 -0.90625,0.073582 C 8.5948844,6.4620812 7.4970453,7.5462697 7.1002325,9.046875 l -0.082636,0.3125 -0.0099,2.820313 L 6.9977959,15 H 7.9979053 8.9980144 Z M 1,12.5 V 12 H 2 3 V 12.5 13 H 2 1 Z m 0,-9 V 3 H 2 3 V 3.5 4 H 2 1 Z m 4,0 V 3 H 6 7 V 3.5 4 H 6 5 Z m 4,0 V 3 h 1 1 V 3.5 4 H 10 9 Z m 4,0 V 3 h 1 1 V 3.5 4 h -1 -1 z"
       id="path825"
       inkscape:connector-curvature="0" />
    <path
       style="fill:#65cbfe;stroke-width:0.000312501"
       d="M 7,13.5 V 12 H 8 9 V 13.5 15 H 8 7 Z m 6,0 V 12 h 1 1 v 1.5 1.5 h -1 -1 z"
       id="path823"
       inkscape:connector-curvature="0" />
    <path
       style="fill:#323232;stroke-width:0.000312501"
       d="M 0,8 V 2 h 8 8 L 15.9972,5.6328125 C 15.9947,8.8236313 15.9891,9.2366019 15.95122,9.0270797 15.845902,8.4452284 15.509528,7.6385356 15.168279,7.1494413 L 15,6.9082572 V 5.9541287 5 H 8 1 v 3 3 H 3.5 6 V 11.5 12 H 5.5 5 V 12.5 13 H 5.5 6 V 13.5 14 H 3 0 Z m 3,4.5 V 12 H 2 1 v 0.5 0.5 h 1 1 z m 0,-9 V 3 H 2 1 V 3.5 4 h 1 1 z m 4,0 V 3 H 6 5 V 3.5 4 h 1 1 z m 4,0 V 3 H 10 9 V 3.5 4 h 1 1 z m 4,0 V 3 H 14 13 V 3.5 4 h 1 1 z m -5,10 V 13 H 10.5 11 V 12.5 12 H 10.5 10 V 11.5 11 h 1 1 v 1.5 1.5 h -1 -1 z"
       id="path821"
       inkscape:connector-curvature="0" />
    <path
       style="fill:#000000;stroke-width:0.000312501"
       d="M 7.0078391,10.679688 C 7.0197606,9.3767666 7.0209931,9.3552588 7.1013941,9.046875 7.4909962,7.5525297 8.5946994,6.4621269 10.09375,6.0905794 10.35443,6.0259684 10.46492,6.0169972 11,6.0169972 c 0.53508,0 0.64557,0.00897 0.90625,0.073582 1.499051,0.3715475 2.602754,1.4619503 2.992356,2.9562956 0.0804,0.3083838 0.08163,0.3298916 0.09356,1.6328132 L 15.004242,12 h -1.000114 -1.000113 l -0.01088,-1.195312 -0.01088,-1.195313 -0.08268,-0.2292162 C 12.782721,9.0561478 12.640895,8.8310584 12.404918,8.5950819 12.168018,8.3581816 11.942141,8.2161919 11.619841,8.1015703 11.419399,8.0302856 11.341588,8.0200525 11,8.0200525 c -0.341588,0 -0.419399,0.010233 -0.619841,0.081518 C 10.057859,8.2161919 9.8319822,8.3581816 9.5950819,8.5950819 9.3591053,8.8310584 9.2172788,9.0561478 9.1004131,9.3801588 L 9.0177384,9.609375 9.0068619,10.804688 8.995985,12 H 7.9958719 6.9957584 Z"
       id="path819"
       inkscape:connector-curvature="0" />
  </g>
</svg>
