<?xml version="1.0" encoding="UTF-8" standalone="no"?>
<!-- Created with Inkscape (http://www.inkscape.org/) -->

<svg
   version="1.1"
   id="svg2"
   width="1600"
   height="1600"
   viewBox="0 0 1600 1600"
   sodipodi:docname="seq_multiply.svg"
   inkscape:version="1.2.2 (732a01da63, 2022-12-09)"
   xmlns:inkscape="http://www.inkscape.org/namespaces/inkscape"
   xmlns:sodipodi="http://sodipodi.sourceforge.net/DTD/sodipodi-0.dtd"
   xmlns="http://www.w3.org/2000/svg"
   xmlns:svg="http://www.w3.org/2000/svg"
   xmlns:rdf="http://www.w3.org/1999/02/22-rdf-syntax-ns#"
   xmlns:cc="http://creativecommons.org/ns#"
   xmlns:dc="http://purl.org/dc/elements/1.1/">
  <metadata
     id="metadata8">
    <rdf:RDF>
      <cc:Work
         rdf:about="">
        <dc:format>image/svg+xml</dc:format>
        <dc:type
           rdf:resource="http://purl.org/dc/dcmitype/StillImage" />
      </cc:Work>
    </rdf:RDF>
  </metadata>
  <defs
     id="defs6" />
  <sodipodi:namedview
     pagecolor="#808080"
     bordercolor="#666666"
     borderopacity="1"
     objecttolerance="10"
     gridtolerance="10"
     guidetolerance="10"
     inkscape:pageopacity="0"
     inkscape:pageshadow="2"
     inkscape:window-width="1993"
     inkscape:window-height="1009"
     id="namedview4"
     showgrid="false"
     inkscape:zoom="0.5"
     inkscape:cx="615"
     inkscape:cy="440"
     inkscape:window-x="-8"
     inkscape:window-y="-8"
     inkscape:window-maximized="1"
     inkscape:current-layer="svg2"
     inkscape:showpageshadow="0"
     inkscape:pagecheckerboard="true"
     inkscape:deskcolor="#d1d1d1" />
  <g
     id="SEQ_MULTIPLY"
     transform="matrix(100,0,0,100,0,4.9999997e-5)"
     style="stroke-width:0.0114286">
    <path
       style="fill:#fefefe;stroke-width:0.000357143"
       d="m 0,14 v -2 h 1.4382735 1.4382734 l 0.027956,0.07031 c 0.033446,0.08412 0.9624511,1.006975 1.0408092,1.03392 C 3.9963316,13.121777 4,13.219535 4,14.561519 V 16 H 2 0 Z m 8,1.265625 V 14.53125 l 0.2421875,-0.0058 c 0.1332031,-0.0032 0.284375,-0.01019 0.3359375,-0.01552 0.051562,-0.0053 0.1574397,-0.01497 0.2352825,-0.02143 0.077843,-0.0065 0.1903431,-0.02282 0.25,-0.03637 C 9.1230645,14.43858 9.1929688,14.4251 9.21875,14.42219 9.278303,14.41549 9.4262053,14.382 9.7784278,14.2956 9.8885944,14.26858 10.018673,14.22581 10.06749,14.20057 c 0.04882,-0.02524 0.08876,-0.03689 0.08876,-0.02588 0,0.01101 0.03516,-0.003 0.07813,-0.03117 0.04297,-0.02815 0.07813,-0.04347 0.07813,-0.03404 0,0.0094 0.04204,-0.0046 0.09342,-0.03116 0.05138,-0.02657 0.09708,-0.04565 0.101562,-0.0424 0.0045,0.0033 0.0433,-0.01354 0.08626,-0.03732 0.04297,-0.02378 0.08516,-0.04474 0.09375,-0.04657 0.03874,-0.0083 0.21362,-0.09685 0.320313,-0.162225 0.06445,-0.0395 0.117187,-0.06365 0.117187,-0.05367 0,0.01 0.04084,-0.01094 0.09076,-0.04648 0.04992,-0.03555 0.101375,-0.06463 0.114347,-0.06463 0.01297,0 0.09809,-0.05625 0.189148,-0.125 0.09106,-0.06875 0.175263,-0.125 0.187121,-0.125 0.01186,0 0.08277,-0.05016 0.157591,-0.111467 L 12,13.152066 V 14.576033 16 H 10 8 Z M 7.6113109,13.507144 c -0.0047,-0.0047 -0.077364,-0.01495 -0.1614865,-0.02278 -0.3936969,-0.03665 -0.4768266,-0.04902 -0.6373244,-0.09484 -0.094531,-0.02699 -0.2140625,-0.05675 -0.265625,-0.06614 -0.051563,-0.0094 -0.1183594,-0.03024 -0.1484375,-0.04633 -0.030078,-0.01609 -0.054687,-0.02137 -0.054687,-0.01173 0,0.0096 -0.042187,-0.0043 -0.09375,-0.03095 -0.051563,-0.02666 -0.09375,-0.03947 -0.09375,-0.02846 0,0.01101 -0.035156,-0.003 -0.078125,-0.03117 C 6.0351562,13.146594 6,13.131276 6,13.140707 6,13.150107 5.954297,13.133507 5.8984375,13.103677 5.8425781,13.073876 5.7898437,13.047998 5.78125,13.046168 5.6873012,13.026166 5.1288625,12.7217 4.9853437,12.612233 4.9246547,12.565943 4.875,12.537126 4.875,12.548195 c 0,0.03508 -0.3162288,-0.23938 -0.6673772,-0.579232 C 3.8923275,11.663811 3.4531878,11.175158 3.4530766,11.129342 3.4530497,11.11836 3.4178934,11.060213 3.3749516,11.000125 3.2636528,10.844388 2.9717015,10.302681 2.953832,10.21875 2.9520023,10.210156 2.9261242,10.157422 2.8963251,10.101563 2.8665261,10.045703 2.8498616,10 2.8592929,10 2.8687243,10 2.8534056,9.9648438 2.8252513,9.921875 2.7970971,9.8789063 2.7830716,9.84375 2.7940834,9.84375 2.8050953,9.84375 2.7922891,9.8015625 2.765625,9.75 2.738961,9.6984375 2.7250321,9.65625 2.734672,9.65625 c 0.00964,0 0.00436,-0.024609 -0.011726,-0.054687 C 2.7068562,9.5714844 2.6860081,9.5046875 2.6766165,9.453125 2.6672248,9.4015625 2.637461,9.2820313 2.6104746,9.1875 2.5834881,9.0929688 2.5549328,8.9523438 2.5470182,8.875 2.5391037,8.7976563 2.5239003,8.6570313 2.5132329,8.5625 2.4885211,8.3435109 2.4880994,7.6597028 2.5125438,7.4453125 c 0.010288,-0.090234 0.025492,-0.2308594 0.033785,-0.3125 0.00829,-0.081641 0.037159,-0.2257812 0.064145,-0.3203125 0.026986,-0.094531 0.05675,-0.2140625 0.066142,-0.265625 0.00939,-0.051563 0.03024,-0.1183594 0.046329,-0.1484375 0.016089,-0.030078 0.021366,-0.054687 0.011726,-0.054687 -0.00964,0 0.00429,-0.042187 0.030953,-0.09375 0.026664,-0.051563 0.03947,-0.09375 0.028458,-0.09375 -0.011012,0 0.00301,-0.035156 0.031168,-0.078125 C 2.8534055,6.0351563 2.8687242,6 2.8592929,6 2.8498615,6 2.866526,5.9542969 2.8963251,5.8984375 2.9261242,5.8425781 2.9520023,5.7898438 2.9538319,5.78125 2.9717014,5.6973191 3.2636528,5.1556119 3.3749515,4.999875 3.4178934,4.9397875 3.4530497,4.88164 3.4530765,4.8706584 3.4532015,4.8248416 3.8923275,4.3361888 4.2076228,4.0310369 4.5587713,3.691185 4.875,3.4167231 4.875,3.4518053 c 0,0.011069 0.049655,-0.017748 0.1103437,-0.064038 C 5.1288625,3.2783003 5.6873012,2.9738343 5.78125,2.953832 5.7898437,2.9520023 5.8425781,2.9261242 5.8984375,2.8963251 5.9542969,2.8665261 6,2.8498616 6,2.8592929 c 0,0.00943 0.035156,-0.00589 0.078125,-0.034042 0.042969,-0.028154 0.078125,-0.04218 0.078125,-0.031168 0,0.011012 0.042187,-0.00179 0.09375,-0.028458 0.051563,-0.026664 0.09375,-0.040593 0.09375,-0.030953 0,0.00964 0.024609,0.00436 0.054687,-0.011726 0.030078,-0.016089 0.096875,-0.036938 0.1484375,-0.046329 0.051563,-0.00939 0.1710937,-0.039156 0.265625,-0.066142 0.094531,-0.026987 0.2351562,-0.055542 0.3125,-0.063456 0.077344,-0.00791 0.2179687,-0.023118 0.3125,-0.033785 0.2189891,-0.024712 0.9027972,-0.025134 1.1171875,-6.891e-4 0.090234,0.010288 0.2308594,0.025492 0.3125,0.033785 0.081641,0.00829 0.2257813,0.037159 0.3203125,0.064145 0.094531,0.026986 0.2140625,0.05675 0.265625,0.066142 0.051562,0.00939 0.1183594,0.03024 0.1484375,0.046329 0.030078,0.016089 0.054687,0.021366 0.054687,0.011726 0,-0.00964 0.042188,0.00429 0.09375,0.030953 0.051562,0.026664 0.09375,0.03947 0.09375,0.028458 0,-0.011012 0.035156,0.00301 0.078125,0.031168 C 9.9648438,2.8534055 10,2.8687242 10,2.8592929 c 0,-0.00943 0.0457,0.00723 0.101563,0.037032 0.05586,0.029799 0.108593,0.055677 0.117187,0.057507 0.08393,0.01787 0.625638,0.3098209 0.781375,0.4211196 0.06009,0.042942 0.118235,0.078098 0.129217,0.078125 0.04582,1.25e-4 0.534469,0.439251 0.839621,0.7545463 C 12.308815,4.5587713 12.583277,4.875 12.548195,4.875 c -0.01107,0 0.01775,0.049655 0.06404,0.1103437 0.109467,0.1435188 0.413933,0.7019575 0.433935,0.7959063 0.0018,0.00859 0.02771,0.061328 0.05751,0.1171875 C 13.133474,5.9542969 13.150138,6 13.140707,6 c -0.0094,0 0.0059,0.035156 0.03404,0.078125 0.02815,0.042969 0.04218,0.078125 0.03117,0.078125 -0.01101,0 0.0018,0.042187 0.02846,0.09375 0.02666,0.051563 0.04059,0.09375 0.03095,0.09375 -0.0096,0 -0.0044,0.024609 0.01173,0.054687 0.01609,0.030078 0.03694,0.096875 0.04633,0.1484375 0.0094,0.051563 0.03916,0.1710937 0.06614,0.265625 0.02699,0.094531 0.05585,0.2386719 0.06415,0.3203125 0.0083,0.081641 0.0235,0.2222656 0.03378,0.3125 0.02414,0.2117319 0.02414,0.8976431 0,1.109375 -0.01029,0.090234 -0.02549,0.2308594 -0.03378,0.3125 -0.0083,0.081641 -0.03716,0.2257813 -0.06415,0.3203125 -0.02699,0.094531 -0.05675,0.2140625 -0.06614,0.265625 -0.0094,0.051562 -0.03024,0.1183594 -0.04633,0.1484375 -0.01609,0.030078 -0.02137,0.054687 -0.01173,0.054687 0.0096,0 -0.0043,0.042188 -0.03095,0.09375 -0.02666,0.051562 -0.03947,0.09375 -0.02846,0.09375 0.01101,0 -0.003,0.035156 -0.03117,0.078125 C 13.146594,9.9648438 13.131276,10 13.140707,10 c 0.0094,0 -0.0072,0.0457 -0.03703,0.101563 -0.0298,0.05586 -0.05568,0.108593 -0.05751,0.117187 -0.01787,0.08393 -0.309821,0.625638 -0.42112,0.781375 -0.04294,0.06009 -0.0781,0.118235 -0.07813,0.129217 -1.25e-4,0.04582 -0.43925,0.534469 -0.754546,0.839621 -0.351148,0.339852 -0.667377,0.614314 -0.667377,0.579232 0,-0.01107 -0.04965,0.01775 -0.110344,0.06404 -0.143518,0.109467 -0.701957,0.413933 -0.795906,0.433935 -0.0086,0.0018 -0.06133,0.02771 -0.117187,0.05751 C 10.045703,13.133474 10,13.150138 10,13.140707 c 0,-0.0094 -0.035156,0.0059 -0.078125,0.03404 -0.042969,0.02815 -0.078125,0.04218 -0.078125,0.03117 0,-0.01101 -0.042188,0.0018 -0.09375,0.02846 -0.051562,0.02666 -0.09375,0.04059 -0.09375,0.03095 0,-0.0096 -0.024609,-0.0044 -0.054687,0.01173 -0.030078,0.01609 -0.096875,0.03694 -0.1484375,0.04633 -0.051562,0.0094 -0.1710938,0.03916 -0.265625,0.06614 -0.094531,0.02699 -0.2351562,0.05554 -0.3125,0.06346 -0.077344,0.0079 -0.2179688,0.02298 -0.3125,0.03349 -0.1759447,0.01955 -0.9357988,0.03607 -0.9511891,0.02068 z M 11.413437,4.3336728 C 11.349328,4.2672294 11.26875,4.1999553 11.234375,4.1841747 11.2,4.1683941 11.080469,4.0785887 10.96875,3.9846072 10.857031,3.8906253 10.749769,3.8134544 10.730389,3.8131156 c -0.01938,-3.375e-4 -0.05174,-0.020497 -0.0719,-0.044797 -0.03497,-0.042133 -0.330361,-0.194774 -0.330361,-0.1707103 0,0.00634 -0.04219,-0.018382 -0.09375,-0.054933 C 10.144873,3.4792294 9.6383275,3.2572866 9.5234375,3.2311778 9.4372978,3.2116025 9.372765,3.1948338 9.171875,3.1398244 9.06875,3.1115857 8.9287231,3.0816624 8.8607041,3.0733281 8.792685,3.0649937 8.7229947,3.0494983 8.7058362,3.0388938 8.6551394,3.0075615 7.5620197,3.0039214 7.375,3.0344621 7.2804687,3.0498993 7.1609375,3.068428 7.109375,3.075637 7.0578125,3.082846 6.93125,3.1117895 6.828125,3.1399556 6.6264312,3.1950438 6.5620025,3.2117616 6.4765625,3.2311778 6.3616725,3.2572866 5.8551266,3.4792294 5.765625,3.542675 5.7140625,3.5792263 5.6683316,3.6056119 5.6640009,3.6013097 5.64793,3.5853453 5.3768647,3.7257244 5.3415144,3.7683188 c -0.020167,0.0243 -0.052524,0.044458 -0.071903,0.044797 C 5.2502312,3.8134531 5.1429687,3.8906853 5.03125,3.98474 4.9195312,4.0787947 4.8070312,4.1648094 4.78125,4.1758838 4.7112953,4.2059331 4.2179616,4.6934556 4.1844791,4.765625 4.1685312,4.8 4.0785887,4.9195313 3.9846072,5.03125 3.8906253,5.1429688 3.8134544,5.2502313 3.8131156,5.2696113 c -3.375e-4,0.01938 -0.020497,0.051736 -0.044797,0.071903 -0.040436,0.033559 -0.157985,0.2561112 -0.1744915,0.3303606 -0.00382,0.017188 -0.031846,0.066406 -0.062279,0.109375 -0.054956,0.077596 -0.2765796,0.59062 -0.3003709,0.6953125 -0.019575,0.08614 -0.036344,0.1506725 -0.091353,0.3515625 -0.028239,0.103125 -0.058162,0.2431519 -0.066496,0.3111709 -0.00833,0.068019 -0.02383,0.1377094 -0.034434,0.1548679 -0.031332,0.050697 -0.034972,1.1438165 -0.00443,1.3308362 0.015437,0.094531 0.033966,0.2140625 0.041175,0.265625 0.00721,0.051562 0.036153,0.178125 0.064319,0.28125 0.055088,0.2016938 0.071806,0.2661225 0.091222,0.3515625 0.026109,0.11489 0.2480516,0.6214356 0.3114972,0.7109376 0.036551,0.05156 0.064577,0.100781 0.062278,0.109375 -0.00833,0.03116 0.1203069,0.279 0.1633657,0.314736 0.0243,0.02017 0.044458,0.05252 0.044797,0.0719 3.375e-4,0.01938 0.07757,0.126642 0.1716244,0.238361 0.094055,0.111719 0.1801463,0.224219 0.1913147,0.25 0.011169,0.02578 0.07777,0.106926 0.1480037,0.180321 l 0.127695,0.133448 3.5391216,-3.5390182 3.5391215,-3.5390187 z m 1.850096,7.5302962 c 0.06131,-0.07482 0.111467,-0.145733 0.111467,-0.157591 0,-0.01186 0.05625,-0.09606 0.125,-0.187121 0.06875,-0.09106 0.125,-0.176175 0.125,-0.189148 0,-0.01297 0.02908,-0.06443 0.06463,-0.114347 0.03554,-0.04992 0.05646,-0.09076 0.04648,-0.09076 -0.01,0 0.01417,-0.05273 0.05367,-0.117187 0.06538,-0.106693 0.153951,-0.281576 0.162224,-0.320313 0.0018,-0.0086 0.02279,-0.05078 0.04657,-0.09375 0.02378,-0.04297 0.04057,-0.08179 0.03732,-0.08626 -0.0033,-0.0045 0.01583,-0.05018 0.0424,-0.101562 0.02657,-0.05138 0.04059,-0.09342 0.03116,-0.09342 -0.0094,0 0.0059,-0.03516 0.03404,-0.07813 0.02815,-0.04297 0.04218,-0.07813 0.03117,-0.07813 -0.01101,0 6.34e-4,-0.03994 0.02588,-0.08876 0.02524,-0.04882 0.06801,-0.1788956 0.09503,-0.2890622 0.0864,-0.3522225 0.119855,-0.5001247 0.12659,-0.5596778 0.0029,-0.025781 0.01639,-0.095685 0.02994,-0.1553425 0.01355,-0.059657 0.02992,-0.1721569 0.03637,-0.25 0.0065,-0.077843 0.01609,-0.18372 0.02143,-0.2352825 0.0053,-0.051562 0.01231,-0.2027344 0.01552,-0.3359375 L 14.53125,8 H 15.265625 16 v 2 2 H 14.576033 13.152066 Z M 0,6 V 4 H 1.4239672 2.8479343 L 2.7364672,4.1360309 C 2.6751602,4.2108481 2.625,4.2817641 2.625,4.2936219 c 0,0.011858 -0.05625,0.096063 -0.125,0.1871212 -0.06875,0.091058 -0.125,0.176175 -0.125,0.1891475 0,0.012973 -0.029083,0.064429 -0.064628,0.1143478 C 2.2748267,4.8341572 2.2539093,4.875 2.2638891,4.875 c 0.00998,0 -0.01417,0.052734 -0.053667,0.1171875 -0.06538,0.1066922 -0.1539513,0.2815759 -0.162225,0.3203125 -0.00184,0.00859 -0.022793,0.050781 -0.046573,0.09375 -0.02378,0.042969 -0.040575,0.081788 -0.037322,0.086265 0.00325,0.00448 -0.015826,0.05018 -0.042397,0.1015625 -0.02657,0.051382 -0.040593,0.093422 -0.031162,0.093422 0.00943,0 -0.00589,0.035156 -0.034042,0.078125 -0.028154,0.042969 -0.04218,0.078125 -0.031168,0.078125 0.011012,0 -6.331e-4,0.039942 -0.025878,0.08876 -0.025245,0.048818 -0.06801,0.1788959 -0.095035,0.2890625 -0.086402,0.3522225 -0.1198549,0.5001247 -0.1265896,0.5596778 -0.00292,0.025781 -0.016389,0.095685 -0.029941,0.1553425 -0.013552,0.059657 -0.029919,0.1721569 -0.036372,0.25 -0.00645,0.077843 -0.016094,0.18372 -0.021426,0.2352825 -0.00533,0.051563 -0.012315,0.2027344 -0.015518,0.3359375 L 1.46875,8 H 0.734375 0 Z M 13.104233,3.9453125 C 13.077288,3.8669544 12.154432,2.9379493 12.070313,2.9045033 L 12,2.8765469 V 1.4382735 0 h 2 2 V 2 4 H 14.561519 C 13.219535,4 13.121777,3.99633 13.104233,3.9453125 Z M 4,1.4239672 V 0 H 6 8 V 0.734375 1.46875 L 7.7578125,1.47457 C 7.6246094,1.47777 7.4734375,1.484757 7.421875,1.490088 7.370312,1.495418 7.2644353,1.505061 7.1865925,1.511514 c -0.077843,0.00645 -0.1903431,0.02282 -0.25,0.036372 C 6.8769355,1.561438 6.8070312,1.574911 6.78125,1.577827 6.721697,1.584557 6.5737947,1.618015 6.2215722,1.7044166 c -0.1101666,0.027025 -0.2402447,0.06979 -0.2890625,0.095035 -0.048818,0.025245 -0.08876,0.03689 -0.08876,0.025878 0,-0.011012 -0.035156,0.00301 -0.078125,0.031168 -0.042969,0.028154 -0.078125,0.043473 -0.078125,0.034042 0,-0.00943 -0.04204,0.00459 -0.093422,0.031163 -0.051382,0.026571 -0.097086,0.04565 -0.1015625,0.042397 -0.00448,-0.00325 -0.043296,0.013542 -0.086265,0.037322 -0.042969,0.02378 -0.085156,0.044738 -0.09375,0.046573 -0.038737,0.00827 -0.2136203,0.096845 -0.3203125,0.162225 C 4.9277344,2.2497189 4.875,2.2738688 4.875,2.2638891 c 0,-0.00998 -0.040843,0.010938 -0.090762,0.046483 C 4.7343197,2.3459174 4.6828631,2.375 4.6698906,2.375 4.6569181,2.375 4.5718016,2.43125 4.4807431,2.5 4.3896844,2.56875 4.3054797,2.625 4.2936219,2.625 c -0.011858,0 -0.082774,0.05016 -0.157591,0.1114672 L 4,2.8479343 Z"
       id="path825"
       inkscape:connector-curvature="0" />
    <path
       style="fill:#656565;stroke-width:0.000357143"
       d="m 4,14.576033 v -1.423967 l 0.1360309,0.111467 c 0.074817,0.06131 0.1457332,0.111467 0.157591,0.111467 0.011858,0 0.096063,0.05625 0.1871212,0.125 0.091058,0.06875 0.176175,0.125 0.1891475,0.125 0.012973,0 0.064429,0.02908 0.1143478,0.06463 0.049919,0.03554 0.090762,0.05646 0.090762,0.04648 0,-0.01 0.052734,0.01417 0.1171875,0.05367 0.1066922,0.06538 0.2815759,0.153951 0.3203125,0.162224 0.00859,0.0018 0.050781,0.02279 0.09375,0.04657 0.042969,0.02378 0.081788,0.04057 0.086265,0.03732 0.00448,-0.0033 0.05018,0.01583 0.1015625,0.0424 0.051382,0.02657 0.093422,0.04059 0.093422,0.03116 0,-0.0094 0.035156,0.0059 0.078125,0.03404 0.042969,0.02815 0.078125,0.04218 0.078125,0.03117 0,-0.01101 0.039942,6.34e-4 0.08876,0.02588 0.048818,0.02524 0.1788959,0.06801 0.2890625,0.09503 0.3522225,0.0864 0.5001247,0.119855 0.5596778,0.12659 0.025781,0.0029 0.095685,0.01639 0.1553425,0.02994 0.059657,0.01355 0.1721569,0.02992 0.25,0.03637 0.077843,0.0065 0.18372,0.01609 0.2352825,0.02143 0.051563,0.0053 0.2027344,0.01231 0.3359375,0.01552 L 8,14.53125 V 15.265625 16 H 6 4 Z m 8,-0.01431 v -1.438274 l 0.07031,-0.02796 c 0.08412,-0.03345 1.006975,-0.962451 1.03392,-1.040809 C 13.121777,12.003668 13.219535,12 14.561519,12 H 16 v 2 2 H 14 12 Z M 0,10 V 8 H 0.734375 1.46875 l 0.00582,0.2421875 c 0.0032,0.1332031 0.010187,0.284375 0.015518,0.3359375 0.00533,0.051562 0.014973,0.1574397 0.021426,0.2352825 0.00645,0.077843 0.02282,0.1903431 0.036372,0.25 0.013552,0.059657 0.027025,0.1295613 0.029941,0.1553425 0.00673,0.059553 0.040188,0.2074553 0.1265896,0.5596778 0.027025,0.1101666 0.06979,0.2402452 0.095035,0.2890622 0.025245,0.04882 0.03689,0.08876 0.025878,0.08876 -0.011012,0 0.00301,0.03516 0.031168,0.07813 0.028154,0.04297 0.043473,0.07813 0.034042,0.07813 -0.00943,0 0.00459,0.04204 0.031163,0.09342 0.026571,0.05138 0.04565,0.09708 0.042397,0.101562 -0.00325,0.0045 0.013542,0.0433 0.037322,0.08626 0.02378,0.04297 0.044738,0.08516 0.046573,0.09375 0.00827,0.03874 0.096845,0.21362 0.162225,0.320313 0.039496,0.06445 0.063646,0.117187 0.053667,0.117187 -0.00998,0 0.010938,0.04084 0.046483,0.09076 0.035545,0.04992 0.064628,0.101375 0.064628,0.114347 0,0.01297 0.05625,0.09809 0.125,0.189148 0.06875,0.09106 0.125,0.175263 0.125,0.187121 0,0.01186 0.05016,0.08277 0.1114672,0.157591 L 2.8479343,12 H 1.4239672 0 Z M 14.525425,7.7578125 c -0.0032,-0.1332031 -0.01019,-0.284375 -0.01552,-0.3359375 -0.0053,-0.051563 -0.01497,-0.1574397 -0.02143,-0.2352825 -0.0065,-0.077843 -0.02282,-0.1903431 -0.03637,-0.25 -0.01355,-0.059657 -0.02703,-0.1295613 -0.02994,-0.1553425 -0.0067,-0.059553 -0.04019,-0.2074553 -0.12659,-0.5596778 -0.02702,-0.1101666 -0.06979,-0.2402447 -0.09503,-0.2890625 -0.02524,-0.048818 -0.03689,-0.08876 -0.02588,-0.08876 0.01101,0 -0.003,-0.035156 -0.03117,-0.078125 -0.02815,-0.042969 -0.04347,-0.078125 -0.03404,-0.078125 0.0094,0 -0.0046,-0.04204 -0.03116,-0.093422 C 14.051723,5.542695 14.028882,5.4899606 14.027535,5.47689 14.026188,5.4638194 14.009394,5.425 13.990213,5.390625 13.971033,5.35625 13.953838,5.3210937 13.952003,5.3125 13.943729,5.2737634 13.855158,5.0988797 13.789778,4.9921875 13.750281,4.9277344 13.726131,4.875 13.736111,4.875 c 0.01,0 -0.01094,-0.040843 -0.04648,-0.090762 C 13.654082,4.7343197 13.625,4.6828631 13.625,4.6698906 c 0,-0.012972 -0.05625,-0.098089 -0.125,-0.1891475 -0.06875,-0.091059 -0.125,-0.1752634 -0.125,-0.1871212 0,-0.011858 -0.05016,-0.082774 -0.111467,-0.157591 L 13.152066,4 H 14.576033 16 V 6 8 H 15.265625 14.53125 Z M 0,2 V 0 H 2 4 V 1.4384808 C 4,2.7804652 3.9963316,2.878223 3.9453125,2.8957668 3.8669544,2.9227115 2.9379493,3.8455681 2.9045033,3.9296875 L 2.8765469,4 H 1.4382735 0 Z M 11.859375,2.7336666 C 11.790625,2.6744113 11.723225,2.6257206 11.709597,2.6254649 11.695968,2.6252092 11.610316,2.56875 11.519257,2.5 11.428198,2.43125 11.343082,2.375 11.330109,2.375 c -0.01297,0 -0.06443,-0.029083 -0.114347,-0.064628 -0.04992,-0.035545 -0.09076,-0.056463 -0.09076,-0.046483 0,0.00998 -0.05273,-0.01417 -0.117187,-0.053667 -0.106693,-0.06538 -0.281576,-0.1539513 -0.320313,-0.162225 -0.0086,-0.00184 -0.04375,-0.01903 -0.07813,-0.038211 -0.03438,-0.019181 -0.07319,-0.035975 -0.08626,-0.037322 -0.01307,-0.00135 -0.06581,-0.024188 -0.117187,-0.050759 -0.05138,-0.026571 -0.09342,-0.040594 -0.09342,-0.031163 0,0.00943 -0.03516,-0.00589 -0.07813,-0.034042 -0.04297,-0.028154 -0.07813,-0.04218 -0.07813,-0.031168 0,0.011012 -0.03994,-6.331e-4 -0.08876,-0.025878 C 10.018673,1.7742109 9.8885944,1.7314453 9.7784278,1.7044208 9.4262053,1.6180188 9.2783031,1.5845659 9.21875,1.5778312 9.1929688,1.5749156 9.1230647,1.5614424 9.0634075,1.5478906 9.0037506,1.5343388 8.8912506,1.5179715 8.8134075,1.5115188 8.7355647,1.5050662 8.6296875,1.4954245 8.578125,1.490093 8.5265625,1.4847614 8.3753906,1.4777781 8.2421875,1.4745746 L 8,1.46875 V 0.734375 0 h 2 2 v 1.421875 c 0,0.7820313 -0.0035,1.421347 -0.0078,1.4207017 -0.0043,-6.454e-4 -0.06406,-0.049655 -0.132813,-0.1089101 z"
       id="path823"
       inkscape:connector-curvature="0" />
    <path
       style="fill:#323232;stroke-width:0.000357143"
       d="m 4.3240584,11.399071 c -0.070233,-0.07339 -0.136835,-0.15454 -0.1480037,-0.180321 -0.011169,-0.02578 -0.09726,-0.138281 -0.1913147,-0.25 -0.094055,-0.111719 -0.1712856,-0.218981 -0.1716244,-0.238361 -3.375e-4,-0.01938 -0.020497,-0.05174 -0.044797,-0.0719 -0.043059,-0.03574 -0.1717,-0.283573 -0.1633657,-0.314736 0.0023,-0.0086 -0.025727,-0.05781 -0.062278,-0.109375 C 3.4792294,10.144873 3.2572866,9.6383275 3.2311778,9.5234375 3.2117616,9.4379975 3.1950438,9.3735687 3.1399556,9.171875 3.1117895,9.06875 3.082846,8.9421875 3.075637,8.890625 3.068428,8.8390625 3.0498993,8.7195312 3.0344621,8.625 3.0039214,8.4379803 3.0075615,7.3448606 3.0388938,7.2941637 3.0494983,7.2770053 3.0649937,7.207315 3.0733281,7.1392959 3.0816624,7.0712769 3.1115857,6.93125 3.1398244,6.828125 3.1948337,6.627235 3.2116025,6.5627022 3.2311778,6.4765625 3.2549691,6.37187 3.4765928,5.8588456 3.5315487,5.78125 3.5619807,5.738281 3.5900057,5.689063 3.5938277,5.671875 3.6103337,5.597626 3.727883,5.3750734 3.7683192,5.3415144 c 0.0243,-0.020167 0.044459,-0.052524 0.044797,-0.071903 C 3.8134531,5.2502312 3.8906253,5.1429687 3.9846072,5.03125 4.0785887,4.9195312 4.1685312,4.8 4.1844791,4.765625 4.2179616,4.6934556 4.7112953,4.2059331 4.78125,4.1758837 4.8070312,4.1648094 4.9195312,4.0787947 5.03125,3.98474 5.1429687,3.8906853 5.2502312,3.8134544 5.2696112,3.8131156 c 0.01938,-3.375e-4 0.051736,-0.020497 0.071903,-0.044797 0.03535,-0.042594 0.3064156,-0.1829734 0.3224865,-0.167009 0.00433,0.0043 0.050062,-0.022083 0.1016241,-0.058635 0.089502,-0.063446 0.5960475,-0.2853884 0.7109375,-0.3114972 0.08544,-0.019416 0.1498687,-0.036134 0.3515625,-0.091222 0.103125,-0.028166 0.2296875,-0.05711 0.28125,-0.064319 0.051563,-0.00721 0.1710937,-0.025738 0.265625,-0.041175 0.1870197,-0.030541 1.2801394,-0.026901 1.3308362,0.00443 0.017158,0.010605 0.086849,0.0261 0.1548679,0.034434 0.068019,0.00833 0.2080459,0.038258 0.3111709,0.066496 0.20089,0.055009 0.2654228,0.071778 0.3515625,0.091353 0.11489,0.026109 0.6214357,0.2480516 0.7109377,0.3114972 0.05156,0.036551 0.09375,0.061271 0.09375,0.054933 0,-0.024064 0.295393,0.1285775 0.330361,0.1707103 0.02017,0.0243 0.05252,0.044459 0.0719,0.044797 0.01938,3.375e-4 0.126642,0.07751 0.238361,0.1714916 0.111719,0.093981 0.23125,0.1837869 0.265625,0.1995675 0.03438,0.015781 0.114953,0.083055 0.179062,0.1494981 l 0.116565,0.12081 -3.5391215,3.5390187 -3.5391216,3.5390182 z"
       id="path821"
       inkscape:connector-curvature="0" />
    <path
       style="fill:#000000;stroke-width:0.000357143"
       d="m 7.3305569,14.50764 c -0.00939,-0.0094 -0.077464,-0.02018 -0.1512825,-0.02398 -0.073818,-0.0038 -0.183025,-0.018 -0.2426819,-0.03155 C 6.8769355,14.43856 6.8070313,14.42508 6.78125,14.42217 6.721697,14.41547 6.5737947,14.38198 6.2215722,14.29558 6.1114056,14.26856 5.9813275,14.22579 5.9325097,14.20055 c -0.048818,-0.02524 -0.08876,-0.03689 -0.08876,-0.02588 0,0.01101 -0.035156,-0.003 -0.078125,-0.03117 -0.042969,-0.02815 -0.078125,-0.04347 -0.078125,-0.03404 0,0.0094 -0.04204,-0.0046 -0.093422,-0.03116 C 5.542695,14.051723 5.4899606,14.028882 5.47689,14.027535 5.4638194,14.026188 5.425,14.009394 5.390625,13.990213 5.35625,13.971033 5.3210937,13.953838 5.3125,13.952003 5.2737634,13.943729 5.0988797,13.855158 4.9921875,13.789778 4.9277344,13.750281 4.875,13.726131 4.875,13.736111 c 0,0.01 -0.040843,-0.01094 -0.090762,-0.04648 C 4.7343197,13.654082 4.6828631,13.625 4.6698906,13.625 4.6569181,13.625 4.5718016,13.56875 4.4807431,13.5 4.3896844,13.43125 4.30379,13.375 4.2898666,13.375 c -0.013923,0 -0.097655,-0.06328 -0.1860707,-0.140625 -0.088415,-0.07734 -0.1727137,-0.140625 -0.1873293,-0.140625 -0.034235,0 -1.0102166,-0.976679 -1.0102166,-1.010938 0,-0.01422 -0.063281,-0.09819 -0.140625,-0.186608 C 2.6882813,11.807788 2.625,11.724057 2.625,11.710133 2.625,11.69621 2.56875,11.610316 2.5,11.519257 2.43125,11.428198 2.375,11.343082 2.375,11.330109 c 0,-0.01297 -0.029083,-0.06443 -0.064628,-0.114347 -0.035545,-0.04992 -0.056463,-0.09076 -0.046483,-0.09076 0.00998,0 -0.01417,-0.05273 -0.053667,-0.117187 -0.06538,-0.106693 -0.1539513,-0.281576 -0.162225,-0.320313 -0.00184,-0.0086 -0.022793,-0.05078 -0.046573,-0.09375 -0.02378,-0.04297 -0.040575,-0.08179 -0.037322,-0.08626 0.00325,-0.0045 -0.015826,-0.05018 -0.042397,-0.101562 -0.026571,-0.05138 -0.040594,-0.09342 -0.031163,-0.09342 0.00943,0 -0.00589,-0.03516 -0.034042,-0.07813 -0.028154,-0.04297 -0.04218,-0.07813 -0.031168,-0.07813 0.011012,0 -6.331e-4,-0.03994 -0.025878,-0.08876 C 1.7742109,10.018673 1.7314453,9.8885944 1.7044208,9.7784278 1.6180188,9.4262053 1.5845659,9.2783031 1.5778312,9.21875 1.5749156,9.1929688 1.5614424,9.1230647 1.5478906,9.0634075 1.5031587,8.8664916 1.493594,8.6791644 1.493594,8 c 0,-0.6791644 0.00956,-0.8664916 0.054297,-1.0634075 C 1.561443,6.8769355 1.574916,6.8070312 1.577832,6.78125 1.584562,6.721697 1.61802,6.5737947 1.7044216,6.2215722 c 0.027025,-0.1101666 0.06979,-0.2402447 0.095035,-0.2890625 0.025245,-0.048818 0.03689,-0.08876 0.025878,-0.08876 -0.011012,0 0.00301,-0.035156 0.031168,-0.078125 0.028154,-0.042969 0.043473,-0.078125 0.034042,-0.078125 -0.00943,0 0.00459,-0.04204 0.031163,-0.093422 0.026571,-0.051382 0.04565,-0.097086 0.042397,-0.1015625 -0.00325,-0.00448 0.013542,-0.043296 0.037322,-0.086265 0.02378,-0.042969 0.044738,-0.085156 0.046573,-0.09375 0.00827,-0.038737 0.096845,-0.2136203 0.162225,-0.3203125 C 2.2497189,4.9277344 2.2738688,4.875 2.2638891,4.875 c -0.00998,0 0.010938,-0.040843 0.046483,-0.090762 C 2.3459174,4.7343197 2.375,4.6828631 2.375,4.6698906 2.375,4.6569181 2.43125,4.5718016 2.5,4.4807431 2.56875,4.3896844 2.625,4.30379 2.625,4.2898666 2.625,4.2759436 2.688281,4.1922116 2.765625,4.1037959 2.842969,4.0153809 2.90625,3.9310822 2.90625,3.9164666 c 0,-0.034235 0.9766788,-1.0102166 1.0109381,-1.0102166 0.014219,0 0.098193,-0.063281 0.1866078,-0.140625 C 4.1922116,2.6882813 4.2759434,2.625 4.2898666,2.625 4.30379,2.625 4.3896844,2.56875 4.4807431,2.5 4.5718016,2.43125 4.6569181,2.375 4.6698906,2.375 4.6828636,2.375 4.7343196,2.345917 4.7842384,2.310372 4.8341572,2.2748267 4.875,2.2539093 4.875,2.2638891 c 0,0.00998 0.052734,-0.01417 0.1171875,-0.053667 C 5.0988797,2.1448426 5.2737634,2.0562713 5.3125,2.0479976 5.3210937,2.046162 5.35625,2.0289672 5.390625,2.0097868 5.425,1.9906063 5.4638194,1.9738115 5.47689,1.9724648 5.4899606,1.9711183 5.542695,1.9482766 5.5940775,1.9217057 5.64546,1.8951348 5.6875,1.8811116 5.6875,1.8905429 c 0,0.00943 0.035156,-0.00589 0.078125,-0.034042 0.042969,-0.028154 0.078125,-0.04218 0.078125,-0.031168 0,0.011012 0.039942,-6.331e-4 0.08876,-0.025878 0.048818,-0.025245 0.1788959,-0.06801 0.2890625,-0.095035 C 6.5737947,1.6180188 6.7216969,1.5845659 6.78125,1.5778312 6.8070312,1.5749156 6.8769353,1.5614424 6.9365925,1.5478906 7.1335084,1.5031587 7.3208356,1.493594 8,1.493594 c 0.6791644,0 0.8664916,0.00956 1.0634075,0.054297 0.059657,0.013552 0.1295613,0.027025 0.1553425,0.029941 0.059553,0.00673 0.2074553,0.040188 0.5596778,0.1265896 0.1101666,0.027025 0.2402452,0.06979 0.2890622,0.095035 0.04882,0.025245 0.08876,0.03689 0.08876,0.025878 0,-0.011012 0.03516,0.00301 0.07813,0.031168 0.04297,0.028154 0.07813,0.043473 0.07813,0.034042 0,-0.00943 0.04204,0.00459 0.09342,0.031163 0.05138,0.026571 0.09708,0.04565 0.101562,0.042397 0.0045,-0.00325 0.0433,0.013542 0.08626,0.037322 0.04297,0.02378 0.08516,0.044738 0.09375,0.046573 0.03874,0.00827 0.21362,0.096845 0.320313,0.162225 0.06445,0.039496 0.117187,0.063646 0.117187,0.053667 0,-0.00998 0.04084,0.010938 0.09076,0.046483 0.04992,0.035545 0.101375,0.064628 0.114347,0.064628 0.01297,0 0.09809,0.05625 0.189148,0.125 0.09106,0.06875 0.176953,0.125 0.190876,0.125 0.01392,0 0.09765,0.063281 0.186071,0.140625 0.08842,0.077344 0.172714,0.140625 0.187329,0.140625 0.03424,0 1.010217,0.9766788 1.010217,1.0109381 0,0.014219 0.06328,0.098193 0.140625,0.1866078 0.07734,0.088416 0.140625,0.1721475 0.140625,0.1860707 0,0.013923 0.05625,0.099818 0.125,0.1908765 0.06875,0.091058 0.125,0.176175 0.125,0.1891475 0,0.012973 0.02908,0.064429 0.06463,0.1143478 0.03554,0.049919 0.05646,0.090762 0.04648,0.090762 -0.01,0 0.01417,0.052734 0.05367,0.1171875 0.06538,0.1066922 0.153951,0.2815759 0.162224,0.3203125 0.0018,0.00859 0.01903,0.04375 0.03821,0.078125 0.01918,0.034375 0.03597,0.073194 0.03732,0.086265 0.0013,0.013071 0.02419,0.065805 0.05076,0.1171875 0.02657,0.051382 0.04059,0.093422 0.03116,0.093422 -0.0094,0 0.0059,0.035156 0.03404,0.078125 0.02815,0.042969 0.04218,0.078125 0.03117,0.078125 -0.01101,0 6.34e-4,0.039942 0.02588,0.08876 0.02524,0.048818 0.06801,0.1788959 0.09503,0.2890625 0.0864,0.3522225 0.119855,0.5001247 0.12659,0.5596778 0.0029,0.025781 0.01639,0.095685 0.02994,0.1553425 0.04473,0.1969159 0.0543,0.3842431 0.0543,1.0634075 0,0.6791644 -0.0096,0.8664916 -0.0543,1.0634075 -0.01355,0.059657 -0.02703,0.1295613 -0.02994,0.1553425 -0.0067,0.059553 -0.04019,0.2074553 -0.12659,0.5596778 -0.02702,0.1101666 -0.06979,0.2402454 -0.09503,0.2890624 -0.02524,0.04882 -0.03689,0.08876 -0.02588,0.08876 0.01101,0 -0.003,0.03516 -0.03117,0.07813 -0.02815,0.04297 -0.04347,0.07813 -0.03404,0.07813 0.0094,0 -0.0046,0.04204 -0.03116,0.09342 -0.02657,0.05138 -0.04565,0.09708 -0.0424,0.101562 0.0033,0.0045 -0.01354,0.0433 -0.03732,0.08626 -0.02378,0.04297 -0.04474,0.08516 -0.04657,0.09375 -0.0083,0.03874 -0.09685,0.21362 -0.162225,0.320313 -0.0395,0.06445 -0.06365,0.117187 -0.05367,0.117187 0.01,0 -0.01094,0.04084 -0.04648,0.09076 -0.03555,0.04992 -0.06463,0.101375 -0.06463,0.114347 0,0.01297 -0.05625,0.09809 -0.125,0.189148 -0.06875,0.09106 -0.125,0.176953 -0.125,0.190876 0,0.01392 -0.06328,0.09765 -0.140625,0.186071 -0.07734,0.08842 -0.140625,0.172714 -0.140625,0.187329 0,0.03424 -0.976679,1.010217 -1.010938,1.010217 -0.01422,0 -0.09819,0.06328 -0.186608,0.140625 -0.08842,0.07734 -0.172147,0.140625 -0.186071,0.140625 -0.01392,0 -0.09982,0.05625 -0.190876,0.125 -0.09106,0.06875 -0.176175,0.125 -0.189148,0.125 -0.01297,0 -0.06443,0.02908 -0.114347,0.06463 -0.04992,0.03554 -0.09076,0.05646 -0.09076,0.04648 0,-0.01 -0.05273,0.01417 -0.117187,0.05367 -0.106693,0.06538 -0.281576,0.153951 -0.320313,0.162224 -0.0086,0.0018 -0.05078,0.02279 -0.09375,0.04657 -0.04297,0.02378 -0.08179,0.04057 -0.08626,0.03732 -0.0045,-0.0033 -0.05018,0.01583 -0.101562,0.0424 -0.05138,0.02657 -0.09342,0.04059 -0.09342,0.03116 0,-0.0094 -0.03516,0.0059 -0.07813,0.03404 -0.04297,0.02815 -0.07813,0.04218 -0.07813,0.03117 0,-0.01101 -0.03994,6.34e-4 -0.08876,0.02588 -0.04882,0.02524 -0.1788956,0.06801 -0.2890622,0.09503 -0.3522225,0.0864 -0.5001247,0.119855 -0.5596778,0.12659 -0.025781,0.0029 -0.095685,0.01639 -0.1553425,0.02994 -0.059657,0.01355 -0.1721569,0.03116 -0.25,0.03912 -0.2153847,0.02204 -1.4634119,0.03585 -1.4828506,0.01641 z M 8.5625,13.486469 c 0.094531,-0.0105 0.2351562,-0.02557 0.3125,-0.03349 0.077344,-0.0079 0.2179688,-0.03647 0.3125,-0.06346 0.094531,-0.02699 0.2140625,-0.05675 0.265625,-0.06614 0.051562,-0.0094 0.1183594,-0.03024 0.1484375,-0.04633 0.030078,-0.01609 0.054687,-0.02137 0.054687,-0.01173 0,0.0096 0.042188,-0.0043 0.09375,-0.03095 0.051562,-0.02666 0.09375,-0.03947 0.09375,-0.02846 0,0.01101 0.035156,-0.003 0.078125,-0.03117 C 9.9648438,13.146594 10,13.131276 10,13.140707 c 0,0.0094 0.0457,-0.0072 0.101563,-0.03703 0.05586,-0.0298 0.108593,-0.05568 0.117187,-0.05751 0.09395,-0.02 0.652388,-0.324468 0.795906,-0.433935 0.06069,-0.04629 0.110344,-0.07511 0.110344,-0.06404 0,0.03508 0.316229,-0.23938 0.667377,-0.579232 0.315296,-0.305152 0.754435,-0.793805 0.754546,-0.839621 2.7e-5,-0.01098 0.03518,-0.06913 0.07813,-0.129217 0.111299,-0.155737 0.40325,-0.697444 0.42112,-0.781375 0.0018,-0.0086 0.02771,-0.06133 0.05751,-0.117187 C 13.133474,10.045703 13.150138,10 13.140707,10 c -0.0094,0 0.0059,-0.035156 0.03404,-0.078125 0.02815,-0.042969 0.04218,-0.078125 0.03117,-0.078125 -0.01101,0 0.0018,-0.042188 0.02846,-0.09375 0.02666,-0.051562 0.04059,-0.09375 0.03095,-0.09375 -0.0096,0 -0.0044,-0.024609 0.01173,-0.054687 0.01609,-0.030078 0.03694,-0.096875 0.04633,-0.1484375 0.0094,-0.051562 0.03916,-0.1710938 0.06614,-0.265625 0.02699,-0.094531 0.05585,-0.2386719 0.06415,-0.3203125 0.0083,-0.081641 0.0235,-0.2222656 0.03378,-0.3125 0.02414,-0.2117319 0.02414,-0.8976431 0,-1.109375 -0.01029,-0.090234 -0.02549,-0.2308594 -0.03378,-0.3125 -0.0083,-0.081641 -0.03716,-0.2257813 -0.06415,-0.3203125 -0.02699,-0.094531 -0.05675,-0.2140625 -0.06614,-0.265625 -0.0094,-0.051563 -0.03024,-0.1183594 -0.04633,-0.1484375 -0.01609,-0.030078 -0.02137,-0.054687 -0.01173,-0.054687 0.0096,0 -0.0043,-0.042187 -0.03095,-0.09375 -0.02666,-0.051563 -0.03947,-0.09375 -0.02846,-0.09375 0.01101,0 -0.003,-0.035156 -0.03117,-0.078125 C 13.146594,6.0351562 13.131276,6 13.140707,6 13.150107,6 13.133507,5.954297 13.103677,5.8984375 13.073876,5.8425781 13.047998,5.7898437 13.046168,5.78125 13.026166,5.6873012 12.7217,5.1288625 12.612233,4.9853437 12.565943,4.9246547 12.537126,4.875 12.548195,4.875 c 0.03508,0 -0.23938,-0.3162287 -0.579232,-0.6673772 C 11.663811,3.8923275 11.175158,3.4531878 11.129342,3.4530766 11.11836,3.4530497 11.060213,3.4178934 11.000125,3.3749516 10.844388,3.2636528 10.302681,2.9717015 10.21875,2.953832 10.210156,2.9520023 10.157422,2.9261242 10.101563,2.8963251 10.045703,2.8665261 10,2.8498616 10,2.8592929 10,2.8687243 9.9648438,2.8534056 9.921875,2.8252513 9.8789063,2.7970971 9.84375,2.7830716 9.84375,2.7940834 9.84375,2.8050953 9.8015625,2.7922891 9.75,2.765625 9.6984375,2.738961 9.65625,2.7250321 9.65625,2.734672 c 0,0.00964 -0.024609,0.00436 -0.054687,-0.011726 C 9.5714844,2.7068562 9.5046875,2.6860081 9.453125,2.6766165 9.4015625,2.6672248 9.2820312,2.637461 9.1875,2.6104746 9.0929688,2.5834881 8.9488281,2.5546227 8.8671875,2.5463292 8.7855469,2.5380356 8.6449219,2.5228322 8.5546875,2.5125438 8.3402972,2.4880994 7.6564891,2.4885211 7.4375,2.5132329 7.342969,2.5238999 7.2023437,2.5391039 7.125,2.5470179 c -0.077344,0.00791 -0.2179688,0.03647 -0.3125,0.063456 -0.094531,0.026986 -0.2140625,0.05675 -0.265625,0.066142 -0.051563,0.00939 -0.1183594,0.03024 -0.1484375,0.046329 -0.030078,0.016089 -0.054687,0.021366 -0.054687,0.011726 0,-0.00964 -0.042187,0.00429 -0.09375,0.030953 -0.051563,0.026664 -0.09375,0.03947 -0.09375,0.028459 0,-0.011012 -0.035156,0.00301 -0.078125,0.031168 C 6.0351562,2.8534056 6,2.8687243 6,2.8592929 6,2.8498616 5.9542969,2.8665261 5.8984375,2.8963252 5.8425781,2.9261243 5.7898437,2.9520023 5.78125,2.953832 5.6873012,2.9738344 5.1288625,3.2783003 4.9853437,3.3877672 4.9246547,3.4340572 4.875,3.4628744 4.875,3.4518053 4.875,3.4167232 4.5587713,3.691185 4.2076228,4.0310369 3.8923275,4.3361888 3.4531878,4.8248416 3.4530766,4.8706585 3.4530497,4.88164 3.4178934,4.9397875 3.3749516,4.999875 3.2636528,5.1556119 2.9717015,5.6973191 2.953832,5.78125 2.9520023,5.7898438 2.9261242,5.8425782 2.8963251,5.8984375 2.8665261,5.9542969 2.8498616,6 2.8592929,6 c 0.00943,0 -0.00589,0.035156 -0.034042,0.078125 -0.028154,0.042969 -0.04218,0.078125 -0.031168,0.078125 0.011012,0 -0.00179,0.042187 -0.028458,0.09375 -0.026664,0.051563 -0.040593,0.09375 -0.030953,0.09375 0.00964,0 0.00436,0.024609 -0.011726,0.054687 -0.016089,0.030078 -0.036938,0.096875 -0.046329,0.1484375 -0.00939,0.051563 -0.039156,0.1710938 -0.066142,0.265625 -0.026987,0.094531 -0.055852,0.2386719 -0.064145,0.3203125 -0.00829,0.081641 -0.023497,0.2222657 -0.033785,0.3125 -0.024444,0.2143903 -0.024023,0.8981985 6.891e-4,1.1171875 0.010667,0.094531 0.025871,0.2351563 0.033785,0.3125 0.00791,0.077344 0.03647,0.2179688 0.063456,0.3125 0.026986,0.094531 0.05675,0.2140625 0.066142,0.265625 0.00939,0.051562 0.03024,0.1183594 0.046329,0.1484375 0.016089,0.030078 0.021366,0.054687 0.011726,0.054687 -0.00964,0 0.00429,0.042188 0.030953,0.09375 0.026664,0.051562 0.03947,0.09375 0.028459,0.09375 -0.011012,0 0.00301,0.035156 0.031168,0.078125 C 2.8534056,9.9648438 2.8687243,10 2.8592929,10 c -0.00943,0 0.00723,0.0457 0.037032,0.101563 0.029799,0.05586 0.055677,0.108593 0.057507,0.117187 0.01787,0.08393 0.3098208,0.625638 0.4211196,0.781375 0.042942,0.06009 0.078098,0.118235 0.078125,0.129217 1.25e-4,0.04582 0.4392509,0.534469 0.7545462,0.839621 C 4.5587713,12.308815 4.875,12.583277 4.875,12.548195 c 0,-0.01107 0.049655,0.01775 0.1103437,0.06404 0.1435188,0.109467 0.7019575,0.413933 0.7959063,0.433935 0.00859,0.0018 0.061328,0.02771 0.1171875,0.05751 C 5.9542969,13.133474 6,13.150138 6,13.140707 c 0,-0.0094 0.035156,0.0059 0.078125,0.03404 0.042969,0.02815 0.078125,0.04218 0.078125,0.03117 0,-0.01101 0.042187,0.0018 0.09375,0.02846 0.051563,0.02666 0.09375,0.04059 0.09375,0.03095 0,-0.0096 0.024609,-0.0044 0.054687,0.01173 0.030078,0.01609 0.096875,0.03694 0.1484375,0.04633 0.051563,0.0094 0.1710937,0.03916 0.265625,0.06614 0.1604978,0.04582 0.2436275,0.05819 0.6373244,0.09484 0.084122,0.0078 0.1567912,0.01808 0.1614865,0.02278 0.01539,0.01539 0.7752444,-0.0011 0.9511891,-0.02068 z"
       id="path819"
       inkscape:connector-curvature="0" />
  </g>
</svg>
