<?xml version="1.0" encoding="UTF-8" standalone="no"?>
<!-- Created with Inkscape (http://www.inkscape.org/) -->

<svg
   version="1.1"
   id="svg2"
   width="1600"
   height="1600"
   viewBox="0 0 1600 1600"
   sodipodi:docname="seq_clear_offset.svg"
   inkscape:version="1.2.2 (732a01da63, 2022-12-09)"
   xmlns:inkscape="http://www.inkscape.org/namespaces/inkscape"
   xmlns:sodipodi="http://sodipodi.sourceforge.net/DTD/sodipodi-0.dtd"
   xmlns="http://www.w3.org/2000/svg"
   xmlns:svg="http://www.w3.org/2000/svg"
   xmlns:rdf="http://www.w3.org/1999/02/22-rdf-syntax-ns#"
   xmlns:cc="http://creativecommons.org/ns#"
   xmlns:dc="http://purl.org/dc/elements/1.1/">
  <metadata
     id="metadata8">
    <rdf:RDF>
      <cc:Work
         rdf:about="">
        <dc:format>image/svg+xml</dc:format>
        <dc:type
           rdf:resource="http://purl.org/dc/dcmitype/StillImage" />
      </cc:Work>
    </rdf:RDF>
  </metadata>
  <defs
     id="defs6" />
  <sodipodi:namedview
     pagecolor="#808080"
     bordercolor="#666666"
     borderopacity="1"
     objecttolerance="10"
     gridtolerance="10"
     guidetolerance="10"
     inkscape:pageopacity="0"
     inkscape:pageshadow="2"
     inkscape:window-width="1993"
     inkscape:window-height="1009"
     id="namedview4"
     showgrid="false"
     inkscape:zoom="0.5"
     inkscape:cx="1079"
     inkscape:cy="756"
     inkscape:window-x="-8"
     inkscape:window-y="-8"
     inkscape:window-maximized="1"
     inkscape:current-layer="SEQ_CLEAR_OFFSET"
     inkscape:showpageshadow="0"
     inkscape:pagecheckerboard="true"
     inkscape:deskcolor="#d1d1d1" />
  <g
     id="SEQ_CLEAR_OFFSET"
     transform="matrix(100,0,0,100,0,4.9999997e-5)"
     style="stroke-width:0.0114286">
    <path
       style="fill:none;stroke-width:0.000357143"
       d="M 0,15 V 14 H 4 8 V 8 2 H 4 0 V 1 0 h 8 8 v 8 8 H 8 0 Z m 12.227566,0.48759 c 0.05742,-0.02493 0.779974,-0.725373 1.684354,-1.632812 1.402181,-1.406924 1.586269,-1.602791 1.605368,-1.708087 0.04342,-0.239377 -0.02774,-0.425403 -0.216754,-0.566635 -0.0814,-0.06082 -0.134177,-0.06495 -0.94242,-0.07365 l -0.856192,-0.0092 -0.0088,-1.340085 C 13.484653,8.859475 13.482333,8.8142781 13.419944,8.7307491 13.384507,8.6833047 13.316679,8.6154928 13.269215,8.5800559 13.18561,8.5176359 13.145996,8.515625 12,8.515625 c -1.145996,0 -1.18561,0.00201 -1.269215,0.064431 -0.04746,0.035437 -0.115292,0.1032488 -0.150729,0.1506932 -0.06239,0.083529 -0.06471,0.1287262 -0.07321,1.4263268 l -0.0088,1.340065 -0.8405686,0.0092 c -0.792431,0.0087 -0.845506,0.01293 -0.9267953,0.07367 -0.1890122,0.141234 -0.2601716,0.327259 -0.2167522,0.566635 0.019099,0.105297 0.2031737,0.301144 1.6053681,1.708044 0.871087,0.87401 1.625983,1.608225 1.677545,1.631589 0.122299,0.05542 0.304737,0.05595 0.430691,0.0013 z"
       id="path827"
       inkscape:connector-curvature="0" />
    <path
       style="fill:#fefefe;stroke-width:0.000357143"
       d="M 1,12.5 V 12 H 2 3 V 12.5 13 H 2 1 Z m 4,0 V 12 H 6 7 V 12.5 13 H 6 5 Z M 0,8 V 5 H 3.5 7 v 3 3 H 3.5 0 Z M 1,3.5 V 3 H 2 3 V 3.5 4 H 2 1 Z m 4,0 V 3 H 6 7 V 3.5 4 H 6 5 Z"
       id="path825"
       inkscape:connector-curvature="0" />
    <path
       style="fill:#fe9832;stroke-width:0.000357143"
       d="M 10.500001,13.515626 8.9846166,12 H 9.9923084 11 V 10.5 9 h 1 1 v 1.499573 1.499573 l 1.015764,0.0082 1.015763,0.0082 -1.508071,1.507813 -1.508071,1.507813 z"
       id="path823"
       inkscape:connector-curvature="0" />
    <path
       style="fill:#653200;stroke-width:0.000357143"
       d="m 11.796875,15.486324 c -0.05156,-0.02336 -0.806458,-0.757579 -1.677545,-1.631589 -1.4021944,-1.4069 -1.5862688,-1.602747 -1.6053681,-1.708044 -0.043419,-0.239376 0.02774,-0.425401 0.2167522,-0.566635 0.081289,-0.06074 0.1343643,-0.06496 0.9267953,-0.07367 l 0.8405676,-0.0092 0.0088,-1.340065 c 0.0085,-1.2976007 0.01082,-1.3427979 0.07321,-1.4263269 0.03544,-0.047444 0.103265,-0.1152563 0.150729,-0.1506932 C 10.81439,8.5176359 10.854004,8.515625 12,8.515625 c 1.145996,0 1.18561,0.00201 1.269215,0.064431 0.04746,0.035437 0.115292,0.1032488 0.150729,0.1506932 0.06239,0.083529 0.06471,0.1287259 0.07321,1.4263478 l 0.0088,1.340086 0.856192,0.0092 c 0.808243,0.0087 0.86102,0.01283 0.94242,0.07365 0.189014,0.141232 0.260173,0.327258 0.216754,0.566635 -0.0191,0.105296 -0.203187,0.301163 -1.605368,1.708087 -0.90438,0.907439 -1.626932,1.607882 -1.684354,1.632812 -0.125954,0.05469 -0.308392,0.05415 -0.430691,-0.0013 z M 14.015764,12.007386 13,11.999146 V 10.499573 9 H 12 11 V 10.5 12 H 9.9923084 8.9846166 l 1.5153844,1.515626 1.515384,1.515625 1.508071,-1.507813 1.508071,-1.507813 z"
       id="path821"
       inkscape:connector-curvature="0" />
    <path
       style="fill:#323232;stroke-width:0.000357143"
       d="M 0,12.5 V 11 H 3.5 7 V 8 5 H 3.5 0 V 3.5 2 h 4 4 v 6 6 H 4 0 Z m 3,0 V 12 H 2 1 v 0.5 0.5 h 1 1 z m 4,0 V 12 H 6 5 V 12.5 13 H 6 7 Z M 3,3.5 V 3 H 2 1 V 3.5 4 h 1 1 z m 4,0 V 3 H 6 5 V 3.5 4 h 1 1 z"
       id="path819"
       inkscape:connector-curvature="0" />
  </g>
</svg>
