<?xml version="1.0" encoding="UTF-8" standalone="no"?>
<!-- Created with Inkscape (http://www.inkscape.org/) -->

<svg
   version="1.1"
   id="svg2"
   width="1600"
   height="1600"
   viewBox="0 0 1600 1600"
   sodipodi:docname="seq_slip_contents.svg"
   inkscape:version="1.2.2 (732a01da63, 2022-12-09)"
   xmlns:inkscape="http://www.inkscape.org/namespaces/inkscape"
   xmlns:sodipodi="http://sodipodi.sourceforge.net/DTD/sodipodi-0.dtd"
   xmlns="http://www.w3.org/2000/svg"
   xmlns:svg="http://www.w3.org/2000/svg"
   xmlns:rdf="http://www.w3.org/1999/02/22-rdf-syntax-ns#"
   xmlns:cc="http://creativecommons.org/ns#"
   xmlns:dc="http://purl.org/dc/elements/1.1/">
  <metadata
     id="metadata8">
    <rdf:RDF>
      <cc:Work
         rdf:about="">
        <dc:format>image/svg+xml</dc:format>
        <dc:type
           rdf:resource="http://purl.org/dc/dcmitype/StillImage" />
      </cc:Work>
    </rdf:RDF>
  </metadata>
  <defs
     id="defs6" />
  <sodipodi:namedview
     pagecolor="#808080"
     bordercolor="#666666"
     borderopacity="1"
     objecttolerance="10"
     gridtolerance="10"
     guidetolerance="10"
     inkscape:pageopacity="0"
     inkscape:pageshadow="2"
     inkscape:window-width="1993"
     inkscape:window-height="1009"
     id="namedview4"
     showgrid="false"
     inkscape:zoom="0.5"
     inkscape:cx="157"
     inkscape:cy="-16"
     inkscape:window-x="-8"
     inkscape:window-y="-8"
     inkscape:window-maximized="1"
     inkscape:current-layer="SEQ_SLIP_CONTENTS"
     inkscape:showpageshadow="0"
     inkscape:pagecheckerboard="true"
     inkscape:deskcolor="#d1d1d1" />
  <g
     id="SEQ_SLIP_CONTENTS"
     transform="matrix(100,0,0,100,0,4.9999997e-5)"
     style="stroke-width:0.0114286">
    <path
       style="fill:none;stroke-width:0.000357143"
       d="m 0,15 v -1 h 6.1807947 6.1807943 l 1.248893,0.254034 c 0.686891,0.139718 1.300719,0.26064 1.364061,0.268714 0.252516,0.03219 0.505557,-0.152916 0.544837,-0.398563 L 15.539238,14 H 15.769619 16 v 1 1 H 8 0 Z M 0,1 V 0 h 8 8 V 1 2 H 11.269103 6.5382056 L 6.5175616,1.8899568 C 6.4880694,1.7327512 6.3374781,1.5755152 6.1626053,1.5193387 6.0817662,1.4933697 4.9117188,1.2519518 3.5625,0.98285456 0.97449603,0.46668556 0.89720753,0.45580353 0.72616553,0.58350481 0.5243105,0.73421134 0.51650141,0.76346016 0.50591841,1.4084363 L 0.49621184,2 H 0.24810592 0 Z"
       id="path827"
       inkscape:connector-curvature="0" />
    <path
       style="fill:#fefefe;stroke-width:0.000357143"
       d="M 1,12.5 V 12 H 2 3 V 12.5 13 H 2 1 Z m 4,0 V 12 H 6 7 V 12.5 13 H 6 5 Z m 4,0 V 12 h 0.2304688 0.2304687 l 0.019531,0.09766 c 0.02504,0.1252 0.0247,0.632539 -5.25e-4,0.785157 L 9.4605741,13 H 9.2302878 9.0000016 V 12.5 Z M 1,7.9973959 C 1,5.6526625 1.00833,4.9975691 1.03803,5.0074684 c 0.022804,0.0076 0.1206428,0.4246475 0.2443735,1.0416666 0.1134888,0.5659447 0.2232627,1.0794047 0.243942,1.1410228 0.089851,0.2677294 0.406913,0.4109603 0.6825572,0.3083413 C 2.2572877,7.4804862 2.5737399,7.18969 2.9121303,6.852285 l 0.6152553,-0.6134631 0.1289472,0.08936 c 0.070921,0.049148 0.1883706,0.1416675 0.2609997,0.2055978 0.072629,0.063931 0.2186525,0.1774053 0.3244969,0.2521662 0.4034484,0.2849669 1.6217187,1.1944641 1.7112956,1.2775647 0.051563,0.047834 0.1809147,0.148035 0.2874494,0.2226678 0.3778825,0.2647257 1.6202328,1.1916963 1.7125506,1.2778072 0.051562,0.048096 0.1718122,0.141265 0.2672213,0.2070428 0.095409,0.065778 0.3907215,0.2820806 0.65625,0.4806716 0.2655284,0.198592 0.601739,0.448201 0.7471353,0.554688 L 9.8880878,11 H 5.4440441 1 Z M 14.752228,9.1171875 C 14.625137,8.4769531 14.501856,7.8972753 14.47827,7.8290147 14.374684,7.5292194 14.059321,7.3877797 13.772434,7.5124484 c -0.05531,0.024034 -0.367608,0.3123157 -0.694001,0.640625 -0.326392,0.3283097 -0.607642,0.5964504 -0.625,0.5958685 -0.01736,-5.813e-4 -0.120808,-0.07441 -0.229891,-0.1640625 C 12.114459,8.4952269 11.928968,8.3515625 11.811339,8.265625 11.033965,7.6976906 10.157447,7.0413262 10.078125,6.9677391 10.026563,6.9199047 9.8972766,6.8197041 9.7908228,6.7450712 9.5506128,6.5766641 7.9067037,5.3477587 7.5825581,5.0942816 L 7.4619912,5 H 11.230996 15 v 2.640625 c 0,1.4523438 -0.0038,2.640625 -0.0083,2.640625 -0.0046,0 -0.112332,-0.5238281 -0.239424,-1.1640625 z M 6.0195175,3.9190144 5.9296597,3.8400041 6.2135844,3.5504816 C 6.4538784,3.3054497 6.5007153,3.2409081 6.5183734,3.1304794 L 6.5392381,3 H 6.7696191 7 V 3.5 4 L 6.5546875,3.9990125 c -0.4311334,-9.562e-4 -0.4481738,-0.0035 -0.53517,-0.079998 z M 9,3.5 V 3 h 1 1 V 3.5 4 H 10 9 Z m 4,0 V 3 h 1 1 V 3.5 4 h -1 -1 z"
       id="path825"
       inkscape:connector-curvature="0" />
    <path
       style="fill:#cbfefe;stroke-width:0.000357143"
       d="m 12.484375,12.502658 c -1.340625,-0.270149 -2.455162,-0.497306 -2.47675,-0.504794 -0.021933,-0.0076 0.283712,-0.336356 0.692784,-0.74515 l 0.732033,-0.731536 -0.378871,-0.284026 C 10.845192,10.080937 10.596721,9.8993066 10.501412,9.8335288 10.406104,9.7677509 10.285937,9.6745816 10.234375,9.6264859 10.142057,9.540375 8.8997069,8.6134044 8.5218244,8.3486788 8.4152897,8.2740459 8.2859375,8.1738453 8.234375,8.1260109 8.1414825,8.0398347 6.8945691,7.1098053 6.5218244,6.8486788 6.4152897,6.7740459 6.2859375,6.6738453 6.234375,6.6260109 6.1414825,6.5398347 4.8945691,5.6098053 4.5218244,5.3486788 4.4152897,5.2740459 4.2859375,5.1737931 4.234375,5.1258947 4.1828125,5.0779963 3.9933203,4.9313941 3.8132812,4.8001116 L 3.4859375,4.5614169 2.7429687,5.3039016 C 2.3343359,5.7122684 2,6.0392159 2,6.0304519 2,6.0216878 1.7751538,4.8907844 1.5003418,3.5173334 1.2255298,2.1438823 1.0050635,1.0157698 1.0104167,1.0104167 1.0157698,1.0050635 2.1438823,1.2255298 3.5173334,1.5003418 4.8907844,1.7751538 6.0216878,2 6.0304519,2 6.0392159,2 5.71253,2.3340741 5.3044831,2.7423869 L 4.5625794,3.4847738 4.9598325,3.7814494 c 0.2184891,0.1631715 0.4751116,0.350494 0.5702725,0.4162718 0.095161,0.065778 0.2152075,0.1589472 0.26677,0.2070429 0.092318,0.086111 1.3346681,1.0130815 1.7125506,1.2778072 0.1065347,0.074633 0.2358869,0.1748334 0.2874494,0.2226678 0.092892,0.086176 1.3398059,1.0162056 1.7125506,1.2773322 0.1065347,0.074633 0.2358869,0.1748334 0.2874494,0.2226678 0.092892,0.086176 1.339806,1.0162056 1.712551,1.2773322 0.106534,0.074633 0.235887,0.1747893 0.287449,0.22257 0.05156,0.047781 0.232753,0.1886212 0.402646,0.312979 l 0.308896,0.2261053 0.745791,-0.7453062 C 13.664394,8.2890009 14,7.9607841 14,7.9695481 c 0,0.00876 0.225,1.1404363 0.5,2.5148269 0.275,1.374391 0.5,2.502657 0.5,2.507259 0,0.01704 -0.127186,-0.0077 -2.515625,-0.488976 z"
       id="path823"
       inkscape:connector-curvature="0" />
    <path
       style="fill:#989898;stroke-width:0.000357143"
       d="m 14.994283,14.015117 c -0.01475,-0.01475 -4.75121,-0.970102 -4.924915,-0.993364 l -0.075405,-0.0101 0.00445,-0.496845 c 0.00245,-0.273265 0.00732,-0.499566 0.010831,-0.50289 0.0035,-0.0033 1.134894,0.219728 2.514191,0.49567 l 2.507812,0.501714 v 0.510973 c 0,0.281035 -0.0047,0.510973 -0.01042,0.510973 -0.0057,0 -0.01768,-0.0073 -0.02655,-0.01613 z m -4.26224,-3.013911 C 10.41072,10.749688 8.7642194,9.5187209 8.5216772,9.3486788 8.4152234,9.2740459 8.2859375,9.1738453 8.234375,9.1260109 8.1414825,9.0398347 6.8945691,8.1098053 6.5218244,7.8486788 6.4152897,7.7740459 6.2859375,7.6738453 6.234375,7.6260109 6.1414825,7.5398347 4.8945691,6.6098053 4.5218244,6.3486788 4.4152897,6.2740459 4.2859375,6.1737931 4.234375,6.1258947 4.1828125,6.0779963 3.9933203,5.9313941 3.8132813,5.8001116 L 3.4859375,5.5614169 2.7429687,6.3039016 C 2.3343359,6.7122684 2,7.0392159 2,7.0304519 2,7.0216878 1.775,5.8900156 1.5,4.515625 L 1,2.0167328 1.0030809,1.5474289 1.0061619,1.078125 1.5015562,3.53125 C 1.774023,4.8804688 1.9976366,5.9983275 1.9984752,6.0153809 1.999314,6.0324341 2.3343359,5.7122684 2.7429687,5.3039016 L 3.4859375,4.5614169 3.8132812,4.8001116 c 0.1800391,0.1312825 0.3695313,0.2778846 0.4210938,0.3257831 0.051563,0.047898 0.1809147,0.1481512 0.2874494,0.222784 0.3727447,0.2611266 1.6196581,1.191156 1.7125506,1.2773322 0.051563,0.047834 0.1809147,0.148035 0.2874494,0.2226678 0.3727447,0.2611266 1.6196581,1.191156 1.7125506,1.2773322 0.051562,0.047834 0.1809147,0.148035 0.2874494,0.2226679 0.3778825,0.2647256 1.6202326,1.1916962 1.7125506,1.2778071 0.05156,0.048096 0.171729,0.141265 0.267038,0.2070428 0.09531,0.065778 0.343872,0.2474773 0.552365,0.4037763 l 0.379077,0.28418 -0.289072,0.28787 -0.289072,0.28787 z M 4.8506512,3.6963363 4.5608553,3.4865094 5.28824,2.7585677 6.015625,2.030626 6.024265,2.5221648 6.032905,3.0137035 5.5866753,3.4599334 5.1404456,3.9061631 Z"
       id="path821"
       inkscape:connector-curvature="0" />
    <path
       style="fill:#323232;stroke-width:0.000357143"
       d="m 14.869417,14.51525 c -0.0088,-0.0088 -0.576662,-0.128332 -1.261914,-0.265625 L 12.361589,14 H 6.1807947 0 V 8 2 h 0.24810592 0.24810592 l 0.009707,-0.5915637 C 0.51650141,0.76346016 0.5243105,0.73421134 0.72616553,0.58350481 0.89720753,0.45580353 0.97449603,0.46668556 3.5625,0.98285456 4.9117188,1.2519518 6.0817662,1.4933697 6.1626053,1.5193387 6.3374781,1.5755152 6.4880694,1.7327512 6.5175616,1.8899568 L 6.5382056,2 H 11.269103 16 v 6 6 h -0.230381 -0.230381 l -0.0196,0.122582 c -0.02355,0.147298 -0.150864,0.307652 -0.290612,0.366042 -0.09962,0.04162 -0.327723,0.05851 -0.359608,0.02663 z m 0.15394,-1.186429 C 15.013606,13.035119 14.937383,12.616158 14.50596,10.484929 14.227682,9.1102334 14,7.9783122 14,7.9695481 14,7.9607841 13.664394,8.2890009 13.254208,8.6989194 L 12.508417,9.4442256 12.199521,9.2181203 C 12.029628,9.0937625 11.848437,8.9529222 11.796875,8.9051413 11.745313,8.8573606 11.61596,8.7572041 11.509426,8.6825713 11.136681,8.4214447 9.8897675,7.4914153 9.796875,7.4052391 9.7453125,7.3574047 9.6159603,7.2572041 9.5094256,7.1825713 9.1366809,6.9214447 7.8897675,5.9914153 7.796875,5.9052391 7.7453125,5.8574047 7.6159603,5.7572041 7.5094256,5.6825713 7.1395925,5.4234844 5.8899653,4.4899466 5.7716575,4.3843656 5.7062253,4.3259725 5.5796628,4.2300238 5.4904075,4.1711463 5.4011522,4.1122684 5.2859375,4.0287638 5.234375,3.9855803 L 5.140625,3.9070644 5.5859375,3.4609538 6.03125,3.0148431 V 2.5074215 C 6.03125,2.2283397 6.027485,2 6.0228837,2 6.0182822,2 4.8900156,1.775 3.515625,1.5 2.1412343,1.225 1.0129679,1 1.0083664,1 1.0037649,1 1,1.2287649 1,1.5083664 V 2.0167328 L 1.5,4.515625 C 1.775,5.8900156 2,7.0216878 2,7.0304519 2,7.0392159 2.3343359,6.7122684 2.7429687,6.3039016 L 3.4859375,5.5614169 3.8132812,5.8001116 c 0.1800391,0.1312825 0.3695313,0.2778846 0.4210938,0.3257831 0.051563,0.047898 0.1809147,0.1481512 0.2874494,0.222784 0.3727447,0.2611266 1.6196581,1.191156 1.7125506,1.2773322 0.051563,0.047834 0.1809147,0.148035 0.2874494,0.2226678 0.3727447,0.2611266 1.6196581,1.191156 1.7125506,1.2773322 0.051562,0.047834 0.1809147,0.148035 0.2874494,0.2226679 0.3715968,0.2603221 1.6197276,1.1928632 1.7388466,1.2991792 0.06602,0.05893 0.179648,0.144942 0.252495,0.191141 0.07285,0.0462 0.179331,0.123445 0.23663,0.171659 l 0.104181,0.08766 -0.428634,0.429455 -0.4286324,0.429455 v 0.527396 0.527397 l 0.074031,0.0099 c 0.1943,0.02602 4.909789,0.979459 4.926146,0.996032 0.02729,0.02765 0.03961,-0.293253 0.02647,-0.689148 z M 3,12.5 V 12 H 2 1 v 0.5 0.5 h 1 1 z m 4,0 V 12 H 6 5 v 0.5 0.5 h 1 1 z m 2.4799422,0.382813 c 0.025226,-0.152618 0.025567,-0.659957 5.25e-4,-0.785157 L 9.4609375,12 H 9.2304688 9 V 12.5 13 H 9.2302863 9.4605725 Z M 9.6237316,10.806388 C 9.4783353,10.699901 9.1421247,10.450292 8.8765963,10.2517 8.6110678,10.053109 8.3157553,9.8368066 8.2203463,9.7710288 8.1249372,9.7052509 8.0046875,9.6120816 7.953125,9.5639859 7.8608072,9.477875 6.6184569,8.5509044 6.2405744,8.2861788 6.1340397,8.2115459 6.0046875,8.1113453 5.953125,8.0635109 5.8635481,7.9804103 4.6452778,7.0709131 4.2418294,6.7859463 4.135985,6.7111853 3.9899613,6.5977106 3.9173325,6.53378 3.8447034,6.4698497 3.7272538,6.3773306 3.6563328,6.3281822 L 3.5273856,6.2388219 2.9121303,6.852285 C 2.5737399,7.18969 2.2572877,7.4804862 2.2089031,7.4984991 1.9332589,7.6011181 1.6161971,7.4578872 1.5263459,7.1901578 1.5056666,7.1285397 1.3958927,6.6150797 1.2824039,6.049135 1.1586732,5.4321159 1.0608347,5.01507 1.0380304,5.0074684 1.0083325,4.9975691 1,5.6526625 1,7.9973959 V 11 H 5.4440441 9.8880878 Z M 15,7.640625 V 5 H 11.230996 7.4619913 l 0.1205668,0.094282 c 0.3241456,0.2534771 1.9680547,1.4823825 2.2082647,1.6507897 0.1064538,0.074633 0.2357402,0.1748334 0.2873022,0.2226678 0.07932,0.073587 0.95584,0.7299515 1.733214,1.2978859 0.117629,0.085937 0.30312,0.2296019 0.412203,0.3192544 0.109083,0.089652 0.212534,0.1634806 0.229891,0.1640625 0.01736,5.812e-4 0.298608,-0.2675588 0.625,-0.5958685 0.326393,-0.3283093 0.638694,-0.6165906 0.694001,-0.640625 0.286887,-0.1246687 0.60225,0.016771 0.705836,0.3165663 0.02359,0.068261 0.146867,0.6479384 0.273958,1.2881728 0.127092,0.6402344 0.234832,1.1640621 0.239424,1.1640621 0.0046,0 0.0083,-1.1882808 0.0083,-2.6406246 z M 7,3.5 V 3 H 6.7696191 6.5392381 l -0.020865,0.1304794 c -0.017658,0.1104287 -0.064495,0.1749703 -0.304789,0.4200022 l -0.2839247,0.2895225 0.089858,0.07901 c 0.086996,0.076495 0.1040366,0.079042 0.53517,0.079998 L 7,4 Z m 4,0 V 3 H 10 9 V 3.5 4 h 1 1 z m 4,0 V 3 H 14 13 V 3.5 4 h 1 1 z"
       id="path819"
       inkscape:connector-curvature="0" />
  </g>
</svg>
