<?xml version="1.0" encoding="UTF-8" standalone="no"?>
<!-- Created with Inkscape (http://www.inkscape.org/) -->

<svg
   xmlns:dc="http://purl.org/dc/elements/1.1/"
   xmlns:cc="http://creativecommons.org/ns#"
   xmlns:rdf="http://www.w3.org/1999/02/22-rdf-syntax-ns#"
   xmlns:svg="http://www.w3.org/2000/svg"
   xmlns="http://www.w3.org/2000/svg"
   xmlns:sodipodi="http://sodipodi.sourceforge.net/DTD/sodipodi-0.dtd"
   xmlns:inkscape="http://www.inkscape.org/namespaces/inkscape"
   version="1.1"
   id="svg2"
   width="16"
   height="16"
   viewBox="0 0 16 16"
   sodipodi:docname="SET_ID.svg"
   inkscape:version="0.92.4 (5da689c313, 2019-01-14)">
  <metadata
     id="metadata8">
    <rdf:RDF>
      <cc:Work
         rdf:about="">
        <dc:format>image/svg+xml</dc:format>
        <dc:type
           rdf:resource="http://purl.org/dc/dcmitype/StillImage" />
        <dc:title></dc:title>
      </cc:Work>
    </rdf:RDF>
  </metadata>
  <defs
     id="defs6" />
  <sodipodi:namedview
     pagecolor="#ffffff"
     bordercolor="#666666"
     borderopacity="1"
     objecttolerance="10"
     gridtolerance="10"
     guidetolerance="10"
     inkscape:pageopacity="0"
     inkscape:pageshadow="2"
     inkscape:window-width="811"
     inkscape:window-height="480"
     id="namedview4"
     showgrid="false"
     inkscape:zoom="14.75"
     inkscape:cx="8"
     inkscape:cy="8"
     inkscape:window-x="0"
     inkscape:window-y="0"
     inkscape:window-maximized="0"
     inkscape:current-layer="svg2" />
  <g
     id="SET_ID">
    <path
       style="fill:#ffffff;stroke-width:0.03125"
       d="M 0,8 V 0 h 8.0002081 8.0002089 l -9e-4,8 -9e-4,8 H 7.9993081 0 Z m 8.1593994,7.090015 c 0.077264,-0.02545 0.669955,-0.597672 2.1739016,-2.098838 1.820714,-1.817348 2.072118,-2.07972 2.104872,-2.196705 0.09961,-0.355761 -0.266495,-0.717015 -0.615176,-0.607029 -0.09625,0.03036 -0.48326,0.40054 -1.9637204,1.87831 L 8.0154281,13.906252 6.1745166,12.065142 C 4.5587084,10.44916 4.3173584,10.219483 4.2007375,10.186832 c -0.3557653,-0.09961 -0.7069172,0.25313 -0.6070563,0.609798 0.031957,0.114137 0.2985425,0.392205 2.1042682,2.194903 1.3129272,1.310726 2.1018965,2.075948 2.1614256,2.09637 0.1255941,0.04309 0.1745634,0.04343 0.3000244,0.0021 z M 5.40625,5.484375 V 1.90625 h -0.75 -0.75 V 5.484375 9.0625 h 0.75 0.75 z m 5.225248,3.4773834 C 10.998374,8.8619997 11.389999,8.6752253 11.632778,8.4842266 12.096498,8.1194097 12.523595,7.3589291 12.668171,6.640625 12.825474,5.8590912 12.792999,4.7643578 12.590813,4.0328841 12.51013,3.7409856 12.300538,3.2897409 12.126829,3.0339441 11.806933,2.5628756 11.34056,2.2114007 10.8125,2.0434194 10.4388,1.9245417 10.125078,1.9066237 8.4140625,1.9064342 L 6.75,1.90625 V 5.4862322 9.0662147 L 8.5390625,9.0552322 10.328125,9.0442497 Z M 8.21875,5.4893878 V 3.125 l 0.2265625,0.00171 c 0.6817253,0.00514 1.518545,0.059308 1.6796875,0.1087262 0.478915,0.1468722 0.762816,0.4281638 0.945126,0.9364407 0.129051,0.3597912 0.162261,0.6326318 0.161659,1.328125 -6.35e-4,0.7320668 -0.04715,1.0659281 -0.205997,1.4783759 -0.172027,0.4466853 -0.499851,0.7090587 -1.005832,0.8050159 -0.084712,0.016065 -0.5246379,0.038474 -0.9776138,0.049797 L 8.21875,7.8537756 Z"
       id="path823"
       inkscape:connector-curvature="0" />
    <path
       style="fill:#fefefe;stroke-width:0.03125"
       d="M 7.859375,15.087903 C 7.7998459,15.067481 7.0108766,14.302259 5.6979494,12.991533 3.8922238,11.188835 3.6256378,10.910767 3.5936813,10.79663 c -0.099861,-0.356668 0.2512909,-0.709407 0.6070562,-0.609798 0.1166209,0.03265 0.3579709,0.262328 1.9737791,1.87831 l 1.8409115,1.84111 1.8438485,-1.840499 c 1.4804604,-1.47777 1.8674734,-1.84795 1.9637204,-1.87831 0.348681,-0.109986 0.714783,0.251268 0.615176,0.607029 -0.03275,0.116985 -0.284158,0.379357 -2.104872,2.196705 -2.2629535,2.25877 -2.1876416,2.194941 -2.473926,2.096726 z M 3.90625,5.484375 V 1.90625 h 0.75 0.75 V 5.484375 9.0625 h -0.75 -0.75 z M 6.75,5.4862313 V 1.90625 l 1.6640625,1.844e-4 C 10.125078,1.906625 10.4388,1.9245418 10.8125,2.0434196 c 0.52806,0.1679812 0.994433,0.5194562 1.314329,0.9905246 0.173709,0.2557969 0.383301,0.7070416 0.463984,0.99894 0.202186,0.7314738 0.234661,1.8262072 0.07736,2.607741 C 12.523597,7.3589292 12.0965,8.1194098 11.63278,8.4842267 11.390001,8.6752255 10.998376,8.8619998 10.6315,8.9617586 L 10.328125,9.0442498 8.5390625,9.0552323 6.75,9.0662148 V 5.4862323 Z m 3.269956,2.2971596 C 10.525937,7.6874337 10.853761,7.4250603 11.025788,6.978375 11.184631,6.5659272 11.231151,6.2320659 11.231785,5.4999991 11.232388,4.8045059 11.199177,4.5316653 11.070126,4.1718741 10.887816,3.6635981 10.603915,3.3823066 10.125,3.2354344 9.9638575,3.1860159 9.1270378,3.1318484 8.4453125,3.1267081 L 8.21875,3.125 v 2.3643878 2.3643878 l 0.8235922,-0.020587 c 0.4529759,-0.011323 0.8929022,-0.033731 0.9776138,-0.049798 z"
       id="path821"
       inkscape:connector-curvature="0" />
    <path
       style="fill:#000000;stroke-width:0.03125"
       d="m 15.976631,12.984375 c 3.47e-4,-0.06875 0.0067,-0.09319 0.01422,-0.05432 0.0075,0.03887 0.0072,0.09512 -6.31e-4,0.125 -0.0078,0.02988 -0.01394,-0.0019 -0.01359,-0.07068 z"
       id="path819"
       inkscape:connector-curvature="0" />
  </g>
</svg>
