<?xml version="1.0" encoding="UTF-8" standalone="no"?>
<!-- Created with Inkscape (http://www.inkscape.org/) -->

<svg
   version="1.1"
   id="svg2"
   width="1600"
   height="1600"
   viewBox="0 0 1600 1600"
   sodipodi:docname="set_shade_smooth.svg"
   inkscape:version="1.2.2 (732a01da63, 2022-12-09)"
   xmlns:inkscape="http://www.inkscape.org/namespaces/inkscape"
   xmlns:sodipodi="http://sodipodi.sourceforge.net/DTD/sodipodi-0.dtd"
   xmlns="http://www.w3.org/2000/svg"
   xmlns:svg="http://www.w3.org/2000/svg"
   xmlns:rdf="http://www.w3.org/1999/02/22-rdf-syntax-ns#"
   xmlns:cc="http://creativecommons.org/ns#"
   xmlns:dc="http://purl.org/dc/elements/1.1/">
  <metadata
     id="metadata8">
    <rdf:RDF>
      <cc:Work
         rdf:about="">
        <dc:format>image/svg+xml</dc:format>
        <dc:type
           rdf:resource="http://purl.org/dc/dcmitype/StillImage" />
      </cc:Work>
    </rdf:RDF>
  </metadata>
  <defs
     id="defs6" />
  <sodipodi:namedview
     pagecolor="#808080"
     bordercolor="#666666"
     borderopacity="1"
     objecttolerance="10"
     gridtolerance="10"
     guidetolerance="10"
     inkscape:pageopacity="0"
     inkscape:pageshadow="2"
     inkscape:window-width="2560"
     inkscape:window-height="1009"
     id="namedview4"
     showgrid="false"
     inkscape:zoom="0.5"
     inkscape:cx="662"
     inkscape:cy="1264"
     inkscape:window-x="-8"
     inkscape:window-y="-8"
     inkscape:window-maximized="1"
     inkscape:current-layer="SET_SHADE_SMOOTH"
     inkscape:showpageshadow="0"
     inkscape:pagecheckerboard="true"
     inkscape:deskcolor="#d1d1d1" />
  <g
     id="SET_SHADE_SMOOTH"
     transform="matrix(99.997394,0,0,99.997394,0,0.03910091)"
     style="stroke-width:0.0100003">
    <path
       style="fill:none;stroke-width:0.000312508"
       d="M 0,8 V 0 h 8.0002081 8.0002089 l -9e-4,8 -9e-4,8 H 7.9993081 0 Z m 8.1593994,7.090015 c 0.077264,-0.02545 0.669955,-0.597672 2.1739016,-2.098838 1.820714,-1.817348 2.072118,-2.07972 2.104872,-2.196705 0.09961,-0.355761 -0.266495,-0.717015 -0.615176,-0.607029 -0.09625,0.03036 -0.48326,0.40054 -1.9637204,1.87831 L 8.0154281,13.906252 6.1745166,12.065142 C 4.5587084,10.44916 4.3173584,10.219483 4.2007375,10.186832 c -0.3557653,-0.09961 -0.7069172,0.25313 -0.6070563,0.609798 0.031957,0.114137 0.2985425,0.392205 2.1042682,2.194903 1.3129272,1.310726 2.1018965,2.075948 2.1614256,2.09637 0.1255941,0.04309 0.1745634,0.04343 0.3000244,0.0021 z M 14.437973,8.8515625 c 0.19981,-0.2267794 0.48754,-0.6723631 0.638511,-0.98881 C 15.658271,6.6432837 15.64657,5.2959381 15.043615,4.078125 14.801365,3.5888425 14.514186,3.2016853 14.04687,2.734375 13.240347,1.9278614 12.330379,1.38529 11.109375,0.98288366 10.077242,0.64272341 9.1606475,0.50053456 8,0.50053456 c -1.1606475,0 -2.0772419,0.14218885 -3.109375,0.4823491 C 3.6696213,1.38529 2.7596535,1.9278614 1.95313,2.734375 1.4858139,3.2016853 1.1986347,3.5888425 0.95638478,4.078125 0.45194053,5.0969725 0.35807259,6.2266959 0.69088206,7.273515 0.86698741,7.8274369 1.2147729,8.4574378 1.5620269,8.8515625 L 1.6928117,9 H 8 14.307188 Z"
       id="path829"
       inkscape:connector-curvature="0" />
    <path
       style="fill:#fefefe;stroke-width:0.000312508"
       d="M 7.859375,15.087903 C 7.7998459,15.067481 7.0108766,14.302259 5.6979494,12.991533 3.8922238,11.188835 3.6256378,10.910767 3.5936813,10.79663 c -0.099861,-0.356668 0.2512909,-0.709407 0.6070562,-0.609798 0.1166209,0.03265 0.3579709,0.262328 1.9737791,1.87831 l 1.8409115,1.84111 1.8438485,-1.840499 c 1.4804604,-1.47777 1.8674734,-1.84795 1.9637204,-1.87831 0.348681,-0.109986 0.714783,0.251268 0.615176,0.607029 -0.03275,0.116985 -0.284158,0.379357 -2.104872,2.196705 -2.2629535,2.25877 -2.1876416,2.194941 -2.473926,2.096726 z m -2.375,-9.1062789 C 5.4328125,5.9743187 5.2783888,5.9531262 5.1412112,5.9345294 4.1196025,5.7960328 3.2646587,5.32448 3.0623102,4.7878903 c -0.078828,-0.2090359 -0.078828,-0.3667447 0,-0.5757806 C 3.2640441,3.67715 4.0549281,3.2382125 5.140625,3.0586538 c 0.3287588,-0.054372 1.3899912,-0.054372 1.71875,0 C 7.9450719,3.2382125 8.7359559,3.67715 8.9376897,4.2121097 8.9719603,4.3029887 9,4.4325394 9,4.5 9,5.1361487 8.1854516,5.7025369 6.953125,5.9232744 c -0.2682413,0.048048 -1.26263,0.087553 -1.46875,0.05835 z"
       id="path827"
       inkscape:connector-curvature="0" />
    <path
       style="fill:#98cbfe;stroke-width:0.000312508"
       d="M 2.1662642,8.7630984 C 0.56415906,6.9823775 0.62115131,4.78453 2.3132648,3.0941733 c 2.7874114,-2.7845177 8.5860592,-2.7845177 11.3734702,0 1.692114,1.6903567 1.749106,3.8882042 0.147001,5.6689251 L 13.620597,9 H 12.804108 11.98762 L 12.298497,8.7892053 C 12.712953,8.5081778 13.25214,7.9741097 13.48581,7.6131641 13.847895,7.0538578 13.981356,6.6209697 13.983154,6 c 0.0016,-0.5361538 -0.02292,-0.6107197 -0.121122,-0.3690944 -0.323062,0.7948785 -1.420471,1.551206 -2.842047,1.9587225 -1.9022528,0.54531 -4.1377172,0.54531 -6.0399697,0 C 3.5584387,7.1821116 2.4610301,6.4257841 2.1379675,5.6309056 2.0397635,5.3892803 2.0152942,5.4638463 2.0168464,6 2.0186442,6.6209697 2.1521049,7.0538578 2.5141901,7.6131641 2.74786,7.9741097 3.2870469,8.5081778 3.7015025,8.7892053 L 4.0123803,9 H 3.1958919 2.3794034 Z M 6.953125,5.9232744 C 7.9942228,5.7367903 8.7409619,5.3095753 8.9376897,4.7878903 8.9719603,4.6970112 9,4.5674606 9,4.5 9,3.8487628 8.1414797,3.2706956 6.859375,3.0586538 c -0.3287588,-0.054372 -1.3899912,-0.054372 -1.71875,0 C 4.0549281,3.2382125 3.2640441,3.67715 3.0623102,4.2121097 c -0.078828,0.2090359 -0.078828,0.3667447 0,0.5757806 0.2023486,0.5365897 1.0572923,1.0081425 2.078901,1.1466391 0.1371775,0.018597 0.2916013,0.039789 0.3431638,0.047095 0.20612,0.029203 1.2005087,-0.010302 1.46875,-0.05835 z"
       id="path825"
       inkscape:connector-curvature="0" />
    <path
       style="fill:#3200fe;stroke-width:0.000312508"
       d="M 1.5620269,8.8515625 C 1.3622169,8.6247831 1.0744871,8.1791994 0.92351575,7.8627525 0.34172859,6.6432837 0.35343013,5.2959381 0.95638478,4.078125 1.1986347,3.5888425 1.4858139,3.2016853 1.95313,2.734375 2.7596535,1.9278614 3.6696213,1.38529 4.890625,0.98288366 5.9227581,0.64272341 6.8393525,0.50053456 8,0.50053456 c 1.1606475,0 2.077242,0.14218885 3.109375,0.4823491 1.221004,0.40240634 2.130972,0.94497774 2.937495,1.75149134 0.467316,0.4673103 0.754495,0.8544675 0.996745,1.34375 0.504444,1.0188475 0.598313,2.1485709 0.265503,3.19539 -0.176105,0.5539219 -0.523891,1.1839228 -0.871145,1.5780475 L 14.307188,9 H 13.965305 13.623421 L 13.874024,8.7160472 C 14.329762,8.1996587 14.650782,7.6538475 14.825028,7.0991131 15.547011,4.8005887 13.925928,2.4522618 10.9375,1.4675743 9.0449091,0.84396541 6.9550909,0.84396541 5.0625,1.4675743 2.8450288,2.1982313 1.3304174,3.6986244 1.0471452,5.445235 0.86378266,6.5758187 1.2377486,7.7096131 2.1259763,8.7160472 L 2.3765787,9 H 2.0346952 1.6928117 Z"
       id="path823"
       inkscape:connector-curvature="0" />
    <path
       style="fill:#326598;stroke-width:0.000312508"
       d="M 3.7015025,8.7892053 C 3.2870469,8.5081778 2.74786,7.9741097 2.5141901,7.6131641 2.1521049,7.0538578 2.0186441,6.6209697 2.0168464,6 2.0152942,5.4638462 2.0397635,5.3892803 2.1379675,5.6309056 c 0.3230626,0.7948785 1.4204712,1.551206 2.8420478,1.9587225 1.9022525,0.54531 4.1377169,0.54531 6.0399697,0 C 12.441561,7.1821116 13.53897,6.4257841 13.862033,5.6309056 13.960237,5.3892803 13.984706,5.4638463 13.983154,6 c -0.0014,0.4682687 -0.04488,0.6879906 -0.217396,1.0975391 -0.247585,0.58775 -0.835363,1.2648268 -1.468883,1.692044 l -0.3125,0.210736 L 7.9983775,9.0001628 4.0123803,9.0000066 3.7015025,8.7892119 Z"
       id="path821"
       inkscape:connector-curvature="0" />
    <path
       style="fill:#0c0c01;stroke-width:0.000312508"
       d="m 15.976631,12.984375 c 3.47e-4,-0.06875 0.0067,-0.09319 0.01422,-0.05432 0.0075,0.03887 0.0072,0.09512 -6.31e-4,0.125 -0.0078,0.02988 -0.01394,-0.0019 -0.01359,-0.07068 z"
       id="path819"
       inkscape:connector-curvature="0" />
  </g>
</svg>
