<?xml version="1.0" encoding="UTF-8" standalone="no"?>
<!-- Created with Inkscape (http://www.inkscape.org/) -->

<svg
   version="1.1"
   id="svg2"
   width="1600"
   height="1600"
   viewBox="0 0 1600 1600"
   sodipodi:docname="set_uppercase.svg"
   inkscape:version="1.2.2 (732a01da63, 2022-12-09)"
   xmlns:inkscape="http://www.inkscape.org/namespaces/inkscape"
   xmlns:sodipodi="http://sodipodi.sourceforge.net/DTD/sodipodi-0.dtd"
   xmlns="http://www.w3.org/2000/svg"
   xmlns:svg="http://www.w3.org/2000/svg"
   xmlns:rdf="http://www.w3.org/1999/02/22-rdf-syntax-ns#"
   xmlns:cc="http://creativecommons.org/ns#"
   xmlns:dc="http://purl.org/dc/elements/1.1/">
  <metadata
     id="metadata8">
    <rdf:RDF>
      <cc:Work
         rdf:about="">
        <dc:format>image/svg+xml</dc:format>
        <dc:type
           rdf:resource="http://purl.org/dc/dcmitype/StillImage" />
      </cc:Work>
    </rdf:RDF>
  </metadata>
  <defs
     id="defs6" />
  <sodipodi:namedview
     pagecolor="#808080"
     bordercolor="#666666"
     borderopacity="1"
     objecttolerance="10"
     gridtolerance="10"
     guidetolerance="10"
     inkscape:pageopacity="0"
     inkscape:pageshadow="2"
     inkscape:window-width="2560"
     inkscape:window-height="1009"
     id="namedview4"
     showgrid="false"
     inkscape:zoom="0.28588106"
     inkscape:cx="577.1631"
     inkscape:cy="829.01609"
     inkscape:window-x="-8"
     inkscape:window-y="-8"
     inkscape:window-maximized="1"
     inkscape:current-layer="svg2"
     inkscape:showpageshadow="0"
     inkscape:pagecheckerboard="true"
     inkscape:deskcolor="#d1d1d1" />
  <g
     id="UPPERCASE"
     transform="scale(100)"
     style="stroke-width:0.01">
    <path
       style="fill:none;stroke-width:0.0003125"
       d="M 0,8 V 0 h 8 8 v 8 8 H 8 0 Z m 12.118755,6.773438 c 0.181898,-0.09056 0.388792,-0.292135 0.477496,-0.465214 0.08554,-0.166895 0.115495,-0.52265 0.06193,-0.735374 -0.02879,-0.114336 -0.09247,-0.209734 -0.277231,-0.415327 C 12.014439,12.749688 9.6256094,10.347664 8.9294991,9.6870075 8.2534713,9.04541 8.2299197,9.0310625 7.8533494,9.0314244 7.5524766,9.0317056 7.4467378,9.0784009 7.15625,9.3392213 6.7570381,9.6976613 4.3858547,12.054868 3.7252475,12.75 c -0.3663353,0.385481 -0.6007628,0.658195 -0.6380433,0.74225 -0.079683,0.179656 -0.079679,0.507142 9.6e-6,0.716864 0.1110725,0.292319 0.3689665,0.540677 0.6238228,0.600756 0.064399,0.01518 1.9507043,0.02901 4.1917906,0.03074 l 4.0747018,0.0031 z m 1.99062,-8.8674133 c 0.255524,-0.044011 0.446389,-0.089197 0.506261,-0.1198528 0.03093,-0.015837 0.126552,-0.055518 0.212489,-0.088179 l 0.15625,-0.059383 0.0086,-0.4586318 0.0086,-0.4586319 -0.243015,0.1199015 C 14.291315,5.0718225 13.982423,5.1416791 13.542452,5.1162922 13.180316,5.0953969 12.937451,4.9913931 12.707012,4.7585275 12.260808,4.3076238 12.146149,3.3967425 12.452218,2.734375 c 0.241979,-0.52367 0.694524,-0.7653671 1.356394,-0.7244271 0.335214,0.020735 0.607771,0.09956 0.964825,0.2790325 L 15,2.4028617 V 1.9503203 1.4977789 L 14.851562,1.4338899 C 14.387888,1.2343194 14.204973,1.2031003 13.5,1.2032103 c -0.427098,6.56e-5 -0.591363,0.012263 -0.75,0.055684 -0.224152,0.061354 -0.71875,0.294046 -0.71875,0.3381478 0,0.015377 -0.01811,0.027958 -0.04025,0.027958 -0.06229,0 -0.553501,0.5145375 -0.553501,0.5797898 0,0.013565 -0.02013,0.046904 -0.04473,0.074087 -0.0627,0.069278 -0.233691,0.5058956 -0.260812,0.6659568 -0.02757,0.1626977 -0.02734,1.091169 3.12e-4,1.2426665 0.03179,0.1742062 0.164657,0.50073 0.286316,0.7036291 0.309671,0.5164572 0.780269,0.8324231 1.503291,1.0093272 0.155493,0.038045 0.976592,0.041895 1.1875,0.00557 z M 2.0004471,5.8484637 2.2352691,5.84375 2.375,5.4375 2.5147309,5.03125 h 0.9420722 0.9420722 l 0.1293872,0.3671875 c 0.071163,0.2019531 0.1340906,0.3882813 0.1398397,0.4140625 0.00891,0.039954 0.095,0.045656 0.5830803,0.038616 C 5.5661281,5.846576 5.8280828,5.838585 5.8333041,5.833363 5.8421619,5.8245047 5.4042278,4.6048253 5.2928384,4.328125 5.2094894,4.1210794 5.2044122,4.1074059 4.8925197,3.25 4.7268369,2.7945313 4.5796528,2.39375 4.5654437,2.359375 4.5203975,2.2503964 4.4146169,1.9640238 4.2913084,1.6172266 L 4.171875,1.2813282 3.453125,1.2815001 2.734375,1.281672 2.5209416,1.8673995 C 2.4035532,2.1895476 2.2436813,2.6289063 2.1656707,2.84375 2.0876601,3.0585938 2.0061755,3.2765625 1.9845937,3.328125 1.963012,3.3796875 1.8583353,3.6609375 1.7519789,3.953125 1.3995017,4.9214672 1.1800579,5.5144572 1.1390615,5.609375 1.116791,5.6609375 1.0898172,5.7382812 1.0791198,5.78125 l -0.01945,0.078125 0.3529776,-0.0031 C 1.606785,5.854575 1.8712948,5.851055 2.000447,5.848465 Z M 3.1186829,3.2826841 C 3.2854384,2.7850353 3.4298997,2.3772228 3.4397075,2.3764341 3.4495156,2.3756453 3.5175519,2.5402344 3.5908994,2.7421875 3.6642469,2.9441406 3.732125,3.1304687 3.74174,3.15625 3.79605,3.3018747 4.0651778,4.086735 4.0766022,4.1328125 4.0891825,4.1835516 4.0441441,4.1875 3.4528262,4.1875 H 2.8154908 Z M 8.8125,5.8292369 c 0.1632813,-0.00732 0.3320313,-0.02087 0.375,-0.030118 0.042969,-0.00925 0.1203125,-0.025838 0.171875,-0.036867 C 9.5385119,5.7239381 9.8619647,5.5367562 9.9910747,5.3966881 10.155521,5.218285 10.23876,5.0352869 10.271619,4.7799234 10.349437,4.1751447 10.125078,3.6823 9.6716638,3.4620141 9.5638372,3.4096281 9.5407191,3.3856194 9.5672825,3.3536125 9.5860488,3.3310006 9.6177878,3.3125 9.6378138,3.3125 c 0.044109,0 0.2969409,-0.2604615 0.3791822,-0.390625 0.04593,-0.072693 0.06196,-0.1686712 0.07137,-0.4273175 0.01123,-0.3085975 0.0059,-0.3471958 -0.071,-0.515625 C 9.8745416,1.6661535 9.6411353,1.4795924 9.2418028,1.3590247 9.0488756,1.3007756 8.7844569,1.2870747 7.4765625,1.2675588 L 6.5,1.252987 V 3.5621891 5.8713912 L 7.5078125,5.8569659 C 8.0621094,5.8490319 8.6492187,5.8365537 8.8125,5.8292369 Z M 7.6875,4.4534356 V 3.8190072 l 0.4609375,0.016266 C 8.7020994,3.8548112 8.875325,3.9014832 9.0078859,4.066832 9.1829953,4.2852529 9.1505769,4.7453514 8.9489009,4.9039898 8.81148,5.012085 8.5959122,5.0566075 8.1328125,5.0725419 L 7.6875,5.0878641 Z m 0,-1.9075735 V 2.0371413 l 0.3828125,0.01462 c 0.5013103,0.019146 0.6585184,0.054683 0.7563747,0.1709783 0.1303937,0.1549643 0.1449819,0.4383882 0.03148,0.6116133 C 8.7668342,2.9737458 8.589685,3.022775 8.1171872,3.0394333 L 7.6875,3.0545828 Z"
       id="path823"
       inkscape:connector-curvature="0" />
    <path
       style="fill:#fefefe;stroke-width:0.0003125"
       d="M 3.7110366,14.80987 C 3.4561803,14.749791 3.1982862,14.501433 3.0872138,14.209114 3.0075255,13.999392 3.0075212,13.671906 3.0872042,13.49225 3.1244847,13.408195 3.3589122,13.135481 3.7252475,12.75 4.3858547,12.054868 6.7570381,9.6976613 7.15625,9.3392213 7.4467378,9.0784009 7.5524766,9.0317131 7.8533494,9.0314244 8.2299197,9.0310619 8.2534713,9.04541 8.9294991,9.6870075 c 0.6961103,0.6606565 3.0849399,3.0626805 3.4514519,3.4705155 0.184763,0.205593 0.248441,0.300991 0.277231,0.415327 0.05356,0.212724 0.0236,0.568479 -0.06193,0.735374 -0.0887,0.173079 -0.295599,0.374652 -0.477496,0.465214 l -0.141226,0.07031 -4.0747018,-0.0031 c -2.2410873,-0.0018 -4.1273929,-0.0156 -4.1917916,-0.03078 z M 11.639121,13.773438 C 11.395134,13.502093 7.8876541,10 7.8598791,10 7.8423103,10 6.9561459,10.871875 5.890625,11.9375 L 3.9533141,13.875 H 7.8418787 11.730443 Z M 12.921875,5.9004563 C 12.198854,5.7235522 11.728255,5.4075863 11.418585,4.8911291 11.296926,4.68823 11.164059,4.3617062 11.132268,4.1875 c -0.02764,-0.1514975 -0.02788,-1.0799688 -3.12e-4,-1.2426665 0.02712,-0.1600612 0.198116,-0.5966787 0.260812,-0.6659568 0.0246,-0.027183 0.04473,-0.060522 0.04473,-0.074087 0,-0.065252 0.491208,-0.5797898 0.553501,-0.5797898 0.02214,0 0.04025,-0.012581 0.04025,-0.027958 0,-0.044102 0.494598,-0.2767934 0.71875,-0.3381478 0.158637,-0.043422 0.322902,-0.055617 0.75,-0.055684 0.704973,-1.094e-4 0.887888,0.031109 1.351563,0.2306796 L 15,1.4977789 V 1.9503203 2.4028617 L 14.773438,2.2889804 C 14.416383,2.1095074 14.143826,2.0306826 13.808612,2.0099479 13.146743,1.9690079 12.694197,2.210705 12.452218,2.734375 c -0.306069,0.6623675 -0.19141,1.5732488 0.254794,2.0241525 0.230439,0.2328656 0.473304,0.3368694 0.83544,0.3577647 0.439971,0.025387 0.748863,-0.04447 1.216189,-0.2750438 l 0.243015,-0.1199015 -0.0086,0.4586318 -0.0086,0.4586319 -0.15625,0.059383 c -0.08594,0.032661 -0.181557,0.072341 -0.212489,0.088179 -0.05987,0.030656 -0.250737,0.075842 -0.506261,0.1198528 -0.210908,0.036327 -1.032007,0.032477 -1.1875,-0.00557 z M 1.0791198,5.78125 C 1.0898172,5.7382812 1.116791,5.6609375 1.1390615,5.609375 1.1800579,5.5144572 1.3995017,4.9214672 1.7519789,3.953125 1.8583353,3.6609375 1.963012,3.3796875 1.9845937,3.328125 2.0061755,3.2765625 2.0876601,3.0585938 2.1656707,2.84375 2.2436813,2.6289063 2.4035532,2.1895476 2.5209416,1.8673974 L 2.734375,1.2816699 3.453125,1.281498 4.171875,1.2813262 4.2913084,1.6172245 c 0.1233085,0.3467973 0.2290891,0.6331698 0.2741353,0.7421484 0.014209,0.034375 0.1613932,0.4351563 0.327076,0.890625 0.3118925,0.8574059 0.3169697,0.8710794 0.4003187,1.078125 0.1113894,0.2767003 0.5493235,1.4963797 0.5404657,1.5052375 -0.00522,0.00522 -0.267176,0.01321 -0.5821216,0.017753 C 4.7631022,5.8581535 4.6770112,5.852451 4.6681022,5.8124979 4.6623531,5.7867167 4.5994253,5.6003885 4.5282625,5.3984354 L 4.3988753,5.03125 H 3.4568031 2.5147309 L 2.375,5.4375 2.2352691,5.84375 2.0004471,5.84846 C 1.8712949,5.85105 1.6067851,5.85457 1.4126475,5.85627 L 1.0596699,5.85937 Z M 4.0766022,4.1328125 C 4.0651778,4.086735 3.79605,3.3018747 3.74174,3.15625 3.732125,3.1304688 3.6642469,2.9441406 3.5908994,2.7421875 3.5175519,2.5402344 3.4495156,2.3756453 3.4397075,2.3764341 3.4298997,2.3772228 3.2854384,2.7850353 3.1186829,3.2826841 L 2.8154908,4.1875 h 0.6373355 c 0.5913178,0 0.6363562,-0.00395 0.6237759,-0.054687 z M 6.5,3.5621891 V 1.252987 l 0.9765625,0.014572 c 1.3078944,0.019516 1.5723131,0.033217 1.7652403,0.091466 0.3993325,0.1205677 0.6327388,0.3071288 0.7755652,0.6199078 0.07691,0.1684292 0.08223,0.2070275 0.071,0.515625 -0.0094,0.2586463 -0.02544,0.3546243 -0.07137,0.4273175 C 9.9347547,3.0520385 9.6819228,3.3125 9.6378137,3.3125 c -0.020026,0 -0.051765,0.018501 -0.070531,0.041113 C 9.5407197,3.38562 9.5638327,3.409629 9.6716639,3.4620146 10.125078,3.6823 10.349437,4.1751447 10.271619,4.7799234 10.23876,5.0352869 10.155521,5.218285 9.9910747,5.3966881 9.8619647,5.5367562 9.5385119,5.7239381 9.359375,5.7622525 9.3078125,5.7732809 9.2304687,5.7898709 9.1875,5.7991191 9.0657478,5.8253234 8.6015256,5.8413106 7.5078125,5.8569659 L 6.5,5.8713912 Z M 8.7247944,5.0110606 C 8.8054625,4.9856731 8.9063103,4.9374912 8.9489006,4.9039897 9.1505769,4.7453513 9.1829953,4.2852528 9.0078859,4.0668319 8.875325,3.9014828 8.7020994,3.8548113 8.1484375,3.8352731 L 7.6875,3.8190072 v 0.6344284 0.6344285 l 0.4453125,-0.015322 c 0.2626131,-0.00904 0.5054869,-0.03426 0.5919819,-0.061481 z M 8.6770519,2.9681905 C 8.7486491,2.9373386 8.8301513,2.8771119 8.8581675,2.8343534 8.9716691,2.6611283 8.9570809,2.3777044 8.8266872,2.2227401 8.7288309,2.1064448 8.5716228,2.0709079 8.0703125,2.0517618 L 7.6875,2.0371413 v 0.5087208 0.5087207 l 0.4296875,-0.015149 c 0.3176381,-0.011199 0.4636338,-0.029777 0.5598644,-0.071243 z"
       id="path821"
       inkscape:connector-curvature="0" />
    <path
       style="fill:#98cbfe;stroke-width:0.0003125"
       d="M 5.890625,11.9375 C 6.9561459,10.871875 7.8423103,10 7.8598791,10 c 0.027775,0 3.5352549,3.502093 3.7792419,3.773438 L 11.730443,13.875 H 7.8418788 3.9533141 Z"
       id="path819"
       inkscape:connector-curvature="0" />
  </g>
</svg>
