<?xml version="1.0" encoding="UTF-8" standalone="no"?>
<!-- Created with Inkscape (http://www.inkscape.org/) -->

<svg
   version="1.1"
   id="svg2"
   width="1600"
   height="1600"
   viewBox="0 0 1600 1600"
   sodipodi:docname="set_frames.svg"
   inkscape:version="1.2.2 (732a01da63, 2022-12-09)"
   xmlns:inkscape="http://www.inkscape.org/namespaces/inkscape"
   xmlns:sodipodi="http://sodipodi.sourceforge.net/DTD/sodipodi-0.dtd"
   xmlns="http://www.w3.org/2000/svg"
   xmlns:svg="http://www.w3.org/2000/svg"
   xmlns:rdf="http://www.w3.org/1999/02/22-rdf-syntax-ns#"
   xmlns:cc="http://creativecommons.org/ns#"
   xmlns:dc="http://purl.org/dc/elements/1.1/">
  <metadata
     id="metadata8">
    <rdf:RDF>
      <cc:Work
         rdf:about="">
        <dc:format>image/svg+xml</dc:format>
        <dc:type
           rdf:resource="http://purl.org/dc/dcmitype/StillImage" />
      </cc:Work>
    </rdf:RDF>
  </metadata>
  <defs
     id="defs6" />
  <sodipodi:namedview
     pagecolor="#808080"
     bordercolor="#666666"
     borderopacity="1"
     objecttolerance="10"
     gridtolerance="10"
     guidetolerance="10"
     inkscape:pageopacity="0"
     inkscape:pageshadow="2"
     inkscape:window-width="1993"
     inkscape:window-height="1009"
     id="namedview4"
     showgrid="false"
     inkscape:zoom="0.5"
     inkscape:cx="351"
     inkscape:cy="56"
     inkscape:window-x="-8"
     inkscape:window-y="-8"
     inkscape:window-maximized="1"
     inkscape:current-layer="SET_FRAMES"
     inkscape:showpageshadow="0"
     inkscape:pagecheckerboard="true"
     inkscape:deskcolor="#d1d1d1" />
  <g
     id="SET_FRAMES"
     transform="matrix(100,0,0,100,0,4.9999997e-5)"
     style="stroke-width:0.0114286">
    <path
       style="fill:none;stroke-width:0.000357143"
       d="M 0,8 V 0 h 8 8 v 8 8 H 8 0 Z m 2.2693105,7.419944 c 0.047411,-0.03544 0.1151966,-0.103261 0.1506336,-0.15072 0.063872,-0.08554 0.064503,-0.111949 0.072715,-3.04416 l 0.00828,-2.9578715 2.1167156,2.1143215 c 1.8861594,1.884026 2.12967,2.116664 2.2356493,2.135834 0.2395276,0.04333 0.4255091,-0.02786 0.5666354,-0.216883 l 0.064431,-0.0863 V 8.015625 2.8170832 L 7.4199441,2.730785 C 7.2788178,2.5417617 7.0928362,2.4705761 6.8533087,2.5139019 6.7473294,2.5330715 6.5038184,2.7657103 4.6176572,4.6497384 L 2.5009391,6.7640622 2.492657,3.7905634 C 2.484446,0.84256584 2.4838224,0.81632487 2.4199441,0.73077584 2.2609171,0.51779903 2.2516214,0.515625 1.5,0.515625 0.74837469,0.515625 0.73907387,0.5178 0.58005591,0.73078319 L 0.515625,0.81707959 0.50672091,7.9163522 c -0.004897,3.9045998 -8.2219e-4,7.1445618 0.009056,7.1999148 0.009878,0.05535 0.0553752,0.145109 0.10110482,0.199455 0.14527975,0.172655 0.20679547,0.184434 0.91998467,0.176155 0.5974616,-0.0069 0.6527482,-0.01237 0.7324441,-0.07193 z m 13.0000005,0 c 0.04741,-0.03544 0.115196,-0.103265 0.150633,-0.150729 l 0.06443,-0.0863 V 8 0.81708316 l -0.06443,-0.0862982 C 15.260928,0.51780059 15.251626,0.515625 14.5,0.515625 c -0.751622,0 -0.760917,0.002174 -0.919944,0.21515084 -0.06388,0.085549 -0.0645,0.11179 -0.07271,3.05978756 l -0.0083,2.9734988 -2.116718,-2.1143238 C 9.4961816,2.7657103 9.2526706,2.5330715 9.1466913,2.5139019 8.9071638,2.4705761 8.7211822,2.5417617 8.5800559,2.730785 l -0.064431,0.086298 v 5.1985418 5.1985422 l 0.064431,0.0863 c 0.1411263,0.189023 0.3271078,0.260209 0.5666354,0.216883 0.1059796,-0.01917 0.3495346,-0.251853 2.2361217,-2.136306 L 13.5,9.2662491 v 2.9117159 c 0,1.986555 0.01059,2.939668 0.03333,2.999688 0.01833,0.04839 0.06404,0.121405 0.101562,0.162269 0.135463,0.147506 0.209583,0.159993 0.901973,0.151955 0.597461,-0.0069 0.652748,-0.01237 0.732444,-0.07193 z"
       id="path823"
       inkscape:connector-curvature="0" />
    <path
       style="fill:#fefefe;stroke-width:0.000357143"
       d="M 1,8 V 1 H 1.5 2 v 3.4921144 3.492114 L 4.5,5.484375 7,2.9845215 V 8.015625 13.046728 L 4.5,10.546875 2,8.0470216 V 11.523511 15 H 1.5 1 Z m 13,3.523511 V 8.0470216 L 11.5,10.546875 9,13.046728 V 8.015625 2.9845215 L 11.5,5.484375 14,7.9842284 V 4.4921144 1 h 0.5 0.5 v 7 7 H 14.5 14 Z"
       id="path821"
       inkscape:connector-curvature="0" />
    <path
       style="fill:#323232;stroke-width:0.000357143"
       d="M 0.79532572,15.456957 C 0.66903516,15.400738 0.53805594,15.241113 0.51577687,15.116268 0.50589884,15.060914 0.50182366,11.820952 0.50672091,7.9163522 L 0.515625,0.81707959 0.58005591,0.73078319 C 0.73907387,0.51780028 0.74837469,0.515625 1.5,0.515625 c 0.7516214,0 0.7609171,0.002174 0.9199441,0.21515084 0.063878,0.085549 0.064502,0.11179 0.072713,3.05978756 l 0.00828,2.9734988 2.1167181,-2.1143238 C 6.5038184,2.7657103 6.7473294,2.5330715 6.8533087,2.5139019 7.0928363,2.4705761 7.2788178,2.5417617 7.4199441,2.730785 l 0.064431,0.086298 v 5.1985418 5.1985422 l -0.064431,0.0863 C 7.2788178,13.489488 7.0928362,13.560674 6.8533087,13.517348 6.7473294,13.498178 6.5038187,13.26554 4.6176594,11.381514 L 2.5009438,9.2671925 2.4926594,12.225064 c -0.00821,2.932211 -0.00884,2.95862 -0.072715,3.04416 -0.156834,0.21004 -0.1742225,0.214424 -0.8830777,0.222653 -0.4900321,0.0057 -0.66927712,-0.0028 -0.74154098,-0.03492 z M 2,11.523511 V 8.0470216 L 4.5,10.546875 7,13.046728 V 8.015625 2.9845215 L 4.5,5.484375 2,7.9842284 V 4.4921144 1 H 1.5 1 v 7 7 H 1.5 2 Z m 11.796875,3.933288 C 13.681514,15.404403 13.577503,15.294235 13.533332,15.177653 13.510591,15.117633 13.5,14.16452 13.5,12.177965 V 9.2662491 l -2.117187,2.1147929 c -1.8865871,1.884453 -2.1301421,2.117136 -2.2361217,2.136306 -0.2395275,0.04333 -0.4255091,-0.02786 -0.5666354,-0.216883 l -0.064431,-0.0863 V 8.015625 2.8170832 L 8.5800559,2.730785 C 8.7211822,2.5417617 8.9071637,2.4705761 9.1466913,2.5139019 c 0.1059793,0.01917 0.3494903,0.2518084 2.2356517,2.1358365 l 2.116718,2.1143238 0.0083,-2.9734988 c 0.0082,-2.94799756 0.0088,-2.97423852 0.07271,-3.05978756 C 13.739083,0.51779903 13.748378,0.515625 14.5,0.515625 c 0.751626,0 0.760928,0.002176 0.919944,0.21515997 l 0.06443,0.0862982 V 8 15.182917 l -0.06443,0.0863 c -0.156823,0.210047 -0.174217,0.214433 -0.883077,0.222662 -0.491886,0.0057 -0.668634,-0.0027 -0.739992,-0.03508 z M 15,8 V 1 H 14.5 14 v 3.4921144 3.492114 L 11.5,5.484375 9,2.9845215 V 8.015625 13.046728 L 11.5,10.546875 14,8.0470216 V 11.523511 15 h 0.5 0.5 z"
       id="path819"
       inkscape:connector-curvature="0" />
  </g>
</svg>
