<?xml version="1.0" encoding="UTF-8" standalone="no"?>
<!-- Created with Inkscape (http://www.inkscape.org/) -->

<svg
   version="1.1"
   id="svg2"
   width="1600"
   height="1600"
   viewBox="0 0 1600 1600"
   sodipodi:docname="set_position.svg"
   inkscape:version="1.2.2 (732a01da63, 2022-12-09)"
   xmlns:inkscape="http://www.inkscape.org/namespaces/inkscape"
   xmlns:sodipodi="http://sodipodi.sourceforge.net/DTD/sodipodi-0.dtd"
   xmlns="http://www.w3.org/2000/svg"
   xmlns:svg="http://www.w3.org/2000/svg"
   xmlns:rdf="http://www.w3.org/1999/02/22-rdf-syntax-ns#"
   xmlns:cc="http://creativecommons.org/ns#"
   xmlns:dc="http://purl.org/dc/elements/1.1/">
  <metadata
     id="metadata8">
    <rdf:RDF>
      <cc:Work
         rdf:about="">
        <dc:format>image/svg+xml</dc:format>
        <dc:type
           rdf:resource="http://purl.org/dc/dcmitype/StillImage" />
      </cc:Work>
    </rdf:RDF>
  </metadata>
  <defs
     id="defs6" />
  <sodipodi:namedview
     pagecolor="#808080"
     bordercolor="#666666"
     borderopacity="1"
     objecttolerance="10"
     gridtolerance="10"
     guidetolerance="10"
     inkscape:pageopacity="0"
     inkscape:pageshadow="2"
     inkscape:window-width="1993"
     inkscape:window-height="1009"
     id="namedview4"
     showgrid="false"
     inkscape:zoom="0.23046875"
     inkscape:cx="1290.8475"
     inkscape:cy="963.25423"
     inkscape:window-x="-8"
     inkscape:window-y="-8"
     inkscape:window-maximized="1"
     inkscape:current-layer="SET_POSITION"
     inkscape:showpageshadow="0"
     inkscape:pagecheckerboard="true"
     inkscape:deskcolor="#d1d1d1" />
  <g
     id="SET_POSITION"
     transform="matrix(100,0,0,100,0,4.9999997e-5)"
     style="stroke-width:0.0114286">
    <path
       style="fill:none;stroke-width:0.000357143"
       d="M 0,8 V 0 h 8 8 v 8 8 H 8 0 Z m 8.1593994,6.090015 c 0.077264,-0.02545 0.669955,-0.597672 2.1739016,-2.098838 1.820714,-1.817348 2.072118,-2.0797204 2.104872,-2.1967051 0.09961,-0.3557613 -0.266495,-0.7170153 -0.615176,-0.6070291 -0.09625,0.03036 -0.48326,0.40054 -1.9637204,1.8783102 L 8.0154281,12.906252 6.1745166,11.065142 C 4.5587084,9.4491597 4.3173584,9.2194834 4.2007375,9.1868316 3.8449722,9.0872234 3.4938203,9.4399616 3.5936812,9.79663 c 0.031957,0.1141369 0.2985425,0.392205 2.1042682,2.194903 1.3129272,1.310726 2.1018965,2.075948 2.1614256,2.09637 0.1255941,0.04309 0.1745634,0.04343 0.3000244,0.0021 z m 0.00213,-3.657788 C 8.3402038,10.378694 10.990879,7.7036575 11.269428,7.2957625 11.596637,6.8166128 11.806092,6.3327072 11.924974,5.78125 c 0.08007,-0.371415 0.08007,-1.191085 0,-1.5625 C 11.58015,2.61921 10.38079,1.41985 8.78125,1.0750252 8.409835,0.9949566 7.590165,0.9949566 7.21875,1.0750252 5.61921,1.41985 4.41985,2.61921 4.0750253,4.21875 c -0.080069,0.371415 -0.080069,1.191085 0,1.5625 0.1716606,0.7962831 0.5526788,1.4978653 1.1142472,2.0517025 0.1541547,0.1520325 0.7946575,0.7915509 1.4233394,1.4211525 1.2599775,1.26182 1.2626837,1.263879 1.5489175,1.178122 z M 7.5625,6.9514053 C 6.8323191,6.7945809 6.2007041,6.1571794 6.0468547,5.421875 5.7497344,4.0018228 7.0018228,2.7497343 8.421875,3.0468548 9.1647875,3.2022959 9.7977041,3.8352125 9.9531453,4.578125 10.251335,6.0032863 8.9878991,7.2575447 7.5625,6.9514053 Z"
       id="path821"
       inkscape:connector-curvature="0" />
    <path
       style="fill:#fefefe;stroke-width:0.000357143"
       d="M 7.859375,14.087903 C 7.7998459,14.067481 7.0108766,13.302259 5.6979494,11.991533 3.8922238,10.188835 3.6256378,9.9107669 3.5936813,9.79663 3.4938203,9.4399616 3.8449722,9.0872234 4.2007375,9.1868316 4.3173584,9.2194834 4.5587084,9.4491597 6.1745166,11.065142 l 1.8409115,1.84111 1.8438485,-1.840499 C 11.339737,9.5879828 11.72675,9.2178028 11.822997,9.1874428 c 0.348681,-0.1099862 0.714783,0.2512678 0.615176,0.6070291 -0.03275,0.1169847 -0.284158,0.3793571 -2.104872,2.1967051 -2.2629535,2.25877 -2.1876416,2.194941 -2.473926,2.096726 z M 7.854395,10.430602 C 7.7876066,10.409111 7.3859081,10.028532 6.6126119,9.254105 5.98393,8.6245034 5.3434272,7.984985 5.1892725,7.8329525 4.6277041,7.2791153 4.2466859,6.5775331 4.0750253,5.78125 c -0.080069,-0.371415 -0.080069,-1.191085 0,-1.5625 C 4.41985,2.61921 5.61921,1.41985 7.21875,1.0750252 c 0.371415,-0.0800686 1.191085,-0.0800686 1.5625,0 1.59954,0.3448248 2.7989,1.5441848 3.143725,3.1437248 0.08007,0.371415 0.08007,1.191085 0,1.5625 -0.071,0.3293478 -0.210209,0.7282297 -0.354452,1.015625 C 11.309909,7.3161362 11.136489,7.5170113 9.6807791,8.9858013 8.1257009,10.554852 8.1589075,10.528584 7.8543975,10.430602 Z M 8.421875,6.9531453 C 9.3214828,6.7649184 9.9989147,5.9259269 9.9989147,5 9.9989147,3.9092425 9.0907575,3.0010852 8,3.0010852 c -0.9259269,0 -1.7649184,0.677432 -1.9531453,1.5770398 -0.2595097,1.2402959 0.675549,2.4076459 1.9375203,2.4188481 0.1203125,0.00107 0.3171875,-0.018655 0.4375,-0.043828 z"
       id="path819"
       inkscape:connector-curvature="0" />
  </g>
</svg>
