<?xml version="1.0" encoding="UTF-8" standalone="no"?>
<!-- Created with Inkscape (http://www.inkscape.org/) -->

<svg
   version="1.1"
   id="svg2"
   width="1600"
   height="1600"
   viewBox="0 0 1600 1600"
   sodipodi:docname="set_selection.svg"
   inkscape:version="1.2.2 (732a01da63, 2022-12-09)"
   inkscape:export-filename="SET_SELECTION.png"
   inkscape:export-xdpi="3072"
   inkscape:export-ydpi="3072"
   xmlns:inkscape="http://www.inkscape.org/namespaces/inkscape"
   xmlns:sodipodi="http://sodipodi.sourceforge.net/DTD/sodipodi-0.dtd"
   xmlns="http://www.w3.org/2000/svg"
   xmlns:svg="http://www.w3.org/2000/svg"
   xmlns:rdf="http://www.w3.org/1999/02/22-rdf-syntax-ns#"
   xmlns:cc="http://creativecommons.org/ns#"
   xmlns:dc="http://purl.org/dc/elements/1.1/">
  <metadata
     id="metadata8">
    <rdf:RDF>
      <cc:Work
         rdf:about="">
        <dc:format>image/svg+xml</dc:format>
        <dc:type
           rdf:resource="http://purl.org/dc/dcmitype/StillImage" />
      </cc:Work>
    </rdf:RDF>
  </metadata>
  <defs
     id="defs6" />
  <sodipodi:namedview
     pagecolor="#808080"
     bordercolor="#666666"
     borderopacity="1"
     objecttolerance="10"
     gridtolerance="10"
     guidetolerance="10"
     inkscape:pageopacity="0.44705882"
     inkscape:pageshadow="2"
     inkscape:window-width="1993"
     inkscape:window-height="1009"
     id="namedview4"
     showgrid="false"
     inkscape:zoom="0.5"
     inkscape:cx="773"
     inkscape:cy="622"
     inkscape:window-x="-8"
     inkscape:window-y="-8"
     inkscape:window-maximized="1"
     inkscape:current-layer="svg2"
     inkscape:showpageshadow="true"
     inkscape:pagecheckerboard="true"
     inkscape:deskcolor="#707070" />
  <g
     id="SET_SELECTION"
     inkscape:label="SET_SELECTION"
     transform="matrix(100,0,0,100,0,4.9999997e-5)"
     style="stroke-width:0.0114286">
    <path
       style="fill:#fefefe;stroke-width:0.000357143"
       d="M 7.859375,15.087903 C 7.7998459,15.067481 7.0108766,14.302259 5.6979494,12.991533 3.8922238,11.188835 3.6256378,10.910767 3.5936813,10.79663 c -0.099861,-0.356668 0.2512909,-0.709407 0.6070562,-0.609798 0.1166209,0.03265 0.3579709,0.262328 1.9737791,1.87831 l 1.8409115,1.84111 1.8438485,-1.840499 c 1.4804604,-1.47777 1.8674734,-1.84795 1.9637204,-1.87831 0.348681,-0.109986 0.714783,0.251268 0.615176,0.607029 -0.03275,0.116985 -0.284158,0.379357 -2.104872,2.196705 -2.2629535,2.25877 -2.1876416,2.194941 -2.473926,2.096726 z"
       id="path821"
       inkscape:connector-curvature="0"
       sodipodi:nodetypes="ssscscsscss" />
    <path
       style="fill:#000000;stroke-width:0.000357143"
       d="m 15.976631,12.984375 c 3.47e-4,-0.06875 0.0067,-0.09319 0.01422,-0.05432 0.0075,0.03887 0.0072,0.09512 -6.31e-4,0.125 -0.0078,0.02988 -0.01394,-0.0019 -0.01359,-0.07068 z"
       id="path819"
       inkscape:connector-curvature="0" />
    <path
       inkscape:connector-curvature="0"
       id="path845-0"
       d="M 8.9034817,10.662261 C 8.8653298,10.591332 8.6481563,10.13013 8.4208739,9.6373676 7.9105717,8.5309991 7.7306856,8.1705949 7.6470074,8.0869172 c -0.0479,-0.0479 -0.095546,-0.065176 -0.1815622,-0.06583 L 7.3488259,8.0202182 6.6930901,8.6862671 C 6.3324353,9.0525756 6.0239496,9.3522976 6.0075662,9.3522976 c -0.02146,0 -0.029788,-0.9526411 -0.029788,-3.4072575 0,-2.9823333 0.00499,-3.4072577 0.039979,-3.4072577 0.044739,0 4.4210878,4.7025399 4.4348858,4.7654389 0.0072,0.03277 -0.03458,0.040398 -0.23077,0.042145 -0.7197021,0.00643 -1.4373723,0.043717 -1.4902513,0.077487 -0.078517,0.050146 -0.1746441,0.1974482 -0.1746441,0.2676181 0,0.077999 0.2519969,0.6187045 0.7846358,1.6835792 0.2403995,0.480617 0.4370896,0.8976054 0.4370896,0.9266414 0,0.03877 -0.0966,0.110916 -0.3637394,0.271659 -0.2000568,0.120377 -0.3813739,0.218867 -0.402927,0.218867 -0.021553,0 -0.070403,-0.05803 -0.1085544,-0.128959 z"
       style="display:inline;fill:#fefefe;stroke-width:0.000357143;enable-background:new"
       sodipodi:nodetypes="csscccssscccssssscc" />
    <path
       inkscape:connector-curvature="0"
       id="path839-38"
       d="m 11.712537,11.763511 c 0.01678,-0.05035 0.07523,-0.0587 0.07523,-0.01075 0,0.02364 -0.01935,0.04299 -0.04299,0.04299 -0.02364,0 -0.03815,-0.01451 -0.03224,-0.03224 z"
       style="display:inline;fill:#006532;stroke-width:0.000357143;enable-background:new" />
    <path
       inkscape:connector-curvature="0"
       id="path837-41"
       d="M 8.7096871,11.648298 C 8.6518218,11.627105 8.5939873,11.599275 8.5811656,11.586453 8.5683439,11.573632 8.3335104,11.087082 8.0593129,10.505232 7.7851154,9.9233816 7.5130842,9.3514976 7.454799,9.2343816 L 7.3488259,9.0214416 6.5750662,9.8119416 5.8013065,10.602442 5.6513829,10.60181 C 5.5245054,10.601271 5.4858652,10.58832 5.4000134,10.51755 l -0.101446,-0.08362 0.00703,-4.5041197 0.00702,-4.504119 0.085713,-0.085711 c 0.066598,-0.066597 0.1150362,-0.08838 0.2171957,-0.097679 0.1632493,-0.014859 0.1993895,0.010624 0.5674467,0.400121 0.3575436,0.3783703 4.2155302,4.5403154 4.8193122,5.1990102 0.694382,0.7575344 0.649732,0.6986387 0.649732,0.8570378 0,0.07488 -0.01707,0.1691711 -0.03795,0.2095278 -0.08522,0.1647907 -0.0525,0.159532 -1.114496,0.1791204 -0.5367821,0.0099 -0.9798721,0.021902 -0.9846421,0.026672 -0.0048,0.00478 0.22412,0.4839155 0.5086471,1.0647671 0.284526,0.58085 0.536589,1.1220504 0.560139,1.2026674 0.06713,0.229811 0.03376,0.274721 -0.41614,0.559925 -0.5793651,0.367277 -1.1894251,0.717651 -1.2751829,0.732371 -0.042625,0.0073 -0.1248446,-0.004 -0.1827101,-0.02523 z M 9.414963,10.572353 c 0.2671409,-0.160742 0.36374,-0.232888 0.36374,-0.271659 0,-0.02903 -0.196691,-0.4460244 -0.4370902,-0.9266424 C 9.1012135,8.8934353 8.8253938,8.3292329 8.7286801,8.1202689 8.5280339,7.6867437 8.5236847,7.6296673 8.6797693,7.4783835 l 0.095078,-0.092153 0.6037383,-0.019365 c 0.3320563,-0.010651 0.7115354,-0.02033 0.8432874,-0.021494 0.194971,-0.00174 0.237914,-0.00949 0.23077,-0.041684 C 10.447778,7.2819283 10.168977,6.9676391 9.833002,6.6052629 6.9160022,3.4590422 6.0518266,2.5377824 6.0175547,2.5377824 c -0.034724,0 -0.039776,0.4327541 -0.039776,3.4072577 0,2.4546164 0.00833,3.4072575 0.029788,3.4072575 0.016383,0 0.3248692,-0.299722 0.685524,-0.6660488 l 0.6557358,-0.6660489 0.1166193,8.688e-4 c 0.086016,6.542e-4 0.1336619,0.017932 0.1815622,0.065828 0.083678,0.083681 0.2635642,0.4440818 0.7738664,1.5504499 0.4789551,1.0384054 0.5381029,1.1538524 0.5911623,1.1538524 0.021553,0 0.2028702,-0.09849 0.402927,-0.218867 z"
       style="display:inline;fill:#323232;stroke-width:0.000357143;enable-background:new"
       sodipodi:nodetypes="csssccccccccssssssccsssccccsssscscsssssscccsscc" />
    <rect
       style="fill:none;stroke:none;stroke-width:0.194286"
       id="rect11248"
       width="16"
       height="16"
       x="0"
       y="0" />
  </g>
</svg>
