<?xml version="1.0" encoding="UTF-8" standalone="no"?>
<!-- Created with Inkscape (http://www.inkscape.org/) -->

<svg
   version="1.1"
   id="svg2"
   width="1600"
   height="1600"
   viewBox="0 0 1600 1600"
   sodipodi:docname="setup.svg"
   inkscape:version="1.2.2 (732a01da63, 2022-12-09)"
   xmlns:inkscape="http://www.inkscape.org/namespaces/inkscape"
   xmlns:sodipodi="http://sodipodi.sourceforge.net/DTD/sodipodi-0.dtd"
   xmlns="http://www.w3.org/2000/svg"
   xmlns:svg="http://www.w3.org/2000/svg"
   xmlns:rdf="http://www.w3.org/1999/02/22-rdf-syntax-ns#"
   xmlns:cc="http://creativecommons.org/ns#"
   xmlns:dc="http://purl.org/dc/elements/1.1/">
  <metadata
     id="metadata8">
    <rdf:RDF>
      <cc:Work
         rdf:about="">
        <dc:format>image/svg+xml</dc:format>
        <dc:type
           rdf:resource="http://purl.org/dc/dcmitype/StillImage" />
      </cc:Work>
    </rdf:RDF>
  </metadata>
  <defs
     id="defs6" />
  <sodipodi:namedview
     pagecolor="#808080"
     bordercolor="#666666"
     borderopacity="1"
     objecttolerance="10"
     gridtolerance="10"
     guidetolerance="10"
     inkscape:pageopacity="0"
     inkscape:pageshadow="2"
     inkscape:window-width="1993"
     inkscape:window-height="1009"
     id="namedview4"
     showgrid="false"
     inkscape:zoom="0.5"
     inkscape:cx="9"
     inkscape:cy="8"
     inkscape:window-x="-8"
     inkscape:window-y="-8"
     inkscape:window-maximized="1"
     inkscape:current-layer="SETUP"
     inkscape:showpageshadow="0"
     inkscape:pagecheckerboard="true"
     inkscape:deskcolor="#d1d1d1" />
  <g
     id="SETUP"
     transform="matrix(100,0,0,100,0,4.9999997e-5)"
     style="stroke-width:0.0114286">
    <path
       style="fill:none;stroke-width:0.000357143"
       d="M 0,8 V 0 h 8 8 v 8 8 H 8 0 Z m 8.5467684,7.449159 c 0.235321,-0.07724 0.2669594,-0.09895 0.5351794,-0.367188 l 0.2850728,-0.285096 0.2701369,-0.8125 0.2701369,-0.8125 0.2076026,-0.08013 0.207602,-0.08013 0.721563,0.36138 0.721563,0.36138 0.40432,0.01041 c 0.383528,0.0099 0.415669,0.0059 0.625,-0.07806 0.322189,-0.129164 0.65576,-0.453551 0.833396,-0.810451 l 0.130779,-0.262758 -0.02114,-0.398323 -0.02114,-0.398324 -0.255554,-0.515625 c -0.140555,-0.283594 -0.278419,-0.550781 -0.306364,-0.59375 -0.02794,-0.04297 -0.07399,-0.137558 -0.102313,-0.210199 -0.05063,-0.129831 -0.04996,-0.135913 0.03928,-0.35803 l 0.09078,-0.2259557 0.802849,-0.2692928 0.802849,-0.2692928 0.273222,-0.2789275 c 0.253101,-0.2583859 0.279305,-0.2973459 0.35582,-0.5290338 0.115035,-0.3483287 0.115208,-0.712824 5.06e-4,-1.0622868 -0.07723,-0.2352794 -0.09899,-0.2670157 -0.367187,-0.53533 L 14.765625,6.6639281 13.980053,6.4039053 13.194482,6.1438828 l -0.09134,-0.2333697 -0.09134,-0.2333697 0.36129,-0.721384 0.361291,-0.7213844 0.01041,-0.40432 c 0.0099,-0.3835275 0.0059,-0.4156691 -0.07806,-0.625 C 13.537567,2.8828656 13.21318,2.5492951 12.85628,2.3716593 l -0.262758,-0.1307794 -0.398323,0.021144 -0.398324,0.021144 -0.515625,0.2555545 c -0.283594,0.140555 -0.550781,0.2784186 -0.59375,0.3063635 -0.04297,0.027945 -0.137558,0.073986 -0.210199,0.1023132 -0.129831,0.050629 -0.135913,0.049962 -0.35803,-0.039279 L 9.8933153,2.8173373 9.6240225,2.0144882 9.3547297,1.2116391 9.0758022,0.93841678 C 8.8174163,0.6853155 8.7784563,0.65911172 8.5467684,0.58259722 8.1984397,0.46756225 7.8339444,0.46738869 7.4844816,0.58209128 7.2492022,0.65931597 7.2174659,0.68108434 6.9491516,0.94927878 L 6.6639281,1.234375 6.4039569,2.0197916 6.1439856,2.8052081 5.8955584,2.902882 5.6471316,3.0005558 5.0188781,2.6825566 C 4.6733391,2.507657 4.3386847,2.3377052 4.2752019,2.3048859 4.1745362,2.2528437 4.1046156,2.2465315 3.7283269,2.2555153 3.3045819,2.2656322 3.2926884,2.2678573 3.0625,2.3800849 2.7584586,2.5283192 2.484362,2.8046811 2.3391878,3.109375 2.2406838,3.3161169 2.2343794,3.3500825 2.2243418,3.7281203 2.2128372,4.1614116 2.2072624,4.1400462 2.4665197,4.65625 2.4967325,4.7164063 2.6220941,4.9657394 2.7451011,5.2103234 2.868108,5.4549075 2.9686849,5.6728762 2.9686053,5.6946984 2.9684115,5.7477191 2.8272731,6.0920981 2.792838,6.1235709 2.7778709,6.1372506 2.4140625,6.2644947 1.984375,6.4063359 L 1.203125,6.6642287 0.91802887,6.9493019 c -0.2682419,0.2682203 -0.28994912,0.2998587 -0.36718749,0.5351797 -0.11445813,0.3487178 -0.11445813,0.713569 0,1.0622868 0.0772384,0.235321 0.0989455,0.2669594 0.36718749,0.5351794 l 0.28509613,0.2850728 0.8125,0.2701897 0.8125,0.2701897 0.086321,0.222523 0.086322,0.222523 -0.3181054,0.628464 c -0.174958,0.345656 -0.3449575,0.680405 -0.3777768,0.743888 -0.052042,0.100666 -0.058354,0.170586 -0.049371,0.546875 0.010117,0.423745 0.012342,0.435639 0.1245696,0.665827 0.1482343,0.304041 0.4245962,0.578138 0.7292901,0.723312 0.2067419,0.0985 0.2407075,0.104809 0.6187453,0.114846 0.4332913,0.0115 0.4119259,0.01708 0.9281297,-0.242178 0.060156,-0.03021 0.3094894,-0.155574 0.5540734,-0.278581 0.2445841,-0.123007 0.4625528,-0.223584 0.484375,-0.223504 0.053021,1.87e-4 0.3973997,0.141332 0.4288725,0.175767 0.01368,0.01497 0.1411516,0.378776 0.2832707,0.808463 l 0.2583984,0.78125 0.2698922,0.275566 c 0.2477931,0.253002 0.290284,0.282925 0.5189422,0.365439 0.3471718,0.125281 0.733224,0.129266 1.092694,0.01128 z M 7.5826353,10.450042 C 7.1222766,10.366876 6.6250441,10.11543 6.2768137,9.7897016 5.930775,9.4660225 5.6370444,8.9026838 5.5479637,8.3918569 c -0.059863,-0.3432781 -0.059863,-0.4404357 0,-0.7837138 C 5.6099337,7.2527803 5.7434078,6.9232119 5.952825,6.6084772 6.3245103,6.0498687 6.9208369,5.6678197 7.6081431,5.5479637 c 0.3432781,-0.059863 0.4404356,-0.059863 0.7837138,0 0.3553628,0.06197 0.6849312,0.1954441 0.9996659,0.4048613 0.5586084,0.3716853 0.9406572,0.9680119 1.0605132,1.6553181 0.05986,0.3432781 0.05986,0.4404356 0,0.7837138 -0.06197,0.3553628 -0.195444,0.6849312 -0.404861,0.9996659 -0.3716853,0.5586085 -0.9680119,0.9406572 -1.6553181,1.0605132 -0.3285569,0.0573 -0.4831397,0.05692 -0.8092216,-0.002 z"
       id="path823"
       inkscape:connector-curvature="0" />
    <path
       style="fill:#cbe5fe;stroke-width:0.000357143"
       d="M 7.6564719,14.96579 C 7.5354281,14.922849 7.4319175,14.852546 7.3053909,14.72734 L 7.1259631,14.549785 6.8400375,13.688955 C 6.6827788,13.215498 6.5421037,12.812823 6.5274272,12.79412 6.5127503,12.775417 6.4408097,12.742582 6.3675587,12.721151 6.2943075,12.699721 6.1047953,12.62582 5.94642,12.556927 l -0.2879547,-0.12526 -0.1026703,0.07311 c -0.056468,0.04021 -0.1064847,0.06904 -0.1111472,0.06407 -0.013145,-0.01402 -0.8547703,0.402836 -0.9602728,0.475616 -0.051563,0.03557 -0.1007813,0.06246 -0.109375,0.05976 -0.00859,-0.0027 -0.092969,0.03233 -0.1875,0.07784 -0.1375047,0.06621 -0.2218684,0.08368 -0.421875,0.08738 -0.1679306,0.0031 -0.2730819,-0.0098 -0.3203125,-0.03938 -0.038672,-0.0242 -0.070312,-0.03569 -0.070312,-0.02553 0,0.01016 -0.042187,-0.01157 -0.09375,-0.04828 -0.051563,-0.03672 -0.09375,-0.05591 -0.09375,-0.04266 0,0.01325 -0.057311,-0.03149 -0.1273569,-0.09943 C 2.957261,12.914373 2.854681,12.754955 2.829843,12.656258 2.827683,12.647658 2.807978,12.608318 2.786059,12.568828 2.726273,12.46111 2.743742,11.974765 2.81098,11.875005 c 0.047523,-0.07051 0.7004805,-1.368852 0.7072255,-1.40625 0.00155,-0.0086 0.013667,-0.04027 0.026927,-0.07038 0.015996,-0.03633 -0.018194,-0.152006 -0.101605,-0.34375 C 3.3743844,9.8956709 3.3004716,9.7063353 3.2792769,9.6338706 L 3.2407409,9.5021159 2.3454777,9.2037009 1.4502144,8.9052859 1.2729479,8.7260803 C 0.86413578,8.3127966 0.864136,7.7184531 1.2729484,7.3051691 L 1.4502154,7.1259631 2.3110452,6.8400375 C 2.7845016,6.6827788 3.1871772,6.5421037 3.2058797,6.5274272 3.2245825,6.5127503 3.2574184,6.4408097 3.2788488,6.3675587 3.3002791,6.2943075 3.37418,6.1047953 3.4430731,5.94642 L 3.5683331,5.6584653 3.5063516,5.57142 C 3.4722619,5.5235453 3.4434306,5.4735291 3.4422822,5.4602728 3.4388666,5.4208394 3.0247689,4.5847728 2.9666663,4.5 2.9372159,4.4570312 2.9119109,4.4111687 2.9104331,4.3980837 2.9089553,4.3849984 2.8689189,4.2935922 2.8214634,4.1949587 2.7515067,4.0495575 2.7343057,3.9683212 2.7305563,3.765625 2.7274497,3.5976944 2.7403775,3.4925431 2.7699363,3.4453125 2.7941388,3.4066406 2.8056278,3.375 2.7954675,3.375 c -0.01016,0 0.011567,-0.042187 0.048283,-0.09375 0.036716,-0.051563 0.055913,-0.09375 0.042661,-0.09375 -0.013252,0 0.031493,-0.057311 0.099435,-0.1273569 0.099791,-0.1028826 0.259208,-0.2054626 0.3579046,-0.2303006 0.00859,-0.00216 0.047936,-0.021865 0.087427,-0.043784 C 3.5388947,2.7262726 4.02524,2.7437412 4.125,2.8109795 4.1955087,2.8585025 5.4938525,3.51146 5.53125,3.518205 5.53984,3.519755 5.571517,3.531872 5.601634,3.545132 5.637918,3.561107 5.7538965,3.527087 5.945384,3.4443001 6.1043291,3.3755831 6.304885,3.2966944 6.3910641,3.2689925 L 6.5477528,3.2186253 6.8365609,2.3503393 7.1253691,1.4820533 7.3048719,1.3044924 C 7.7196928,0.89415944 8.3213153,0.89508484 8.7286181,1.3066824 L 8.9067375,1.48668 9.1974816,2.3582812 9.4882253,3.2298824 9.689425,3.2978162 c 0.11066,0.037363 0.3088866,0.1177187 0.440503,0.1785678 0.173016,0.079988 0.248759,0.1011787 0.273438,0.0765 0.01877,-0.018774 0.03413,-0.023333 0.03413,-0.010131 0,0.013202 0.03867,-0.00353 0.08594,-0.03719 0.04726,-0.033656 0.09623,-0.06335 0.108807,-0.065986 0.0631,-0.013222 0.267607,-0.1095303 0.336505,-0.1584672 0.04297,-0.03052 0.08516,-0.055736 0.09375,-0.056036 0.03311,-0.00116 0.208337,-0.08543 0.320313,-0.1540473 C 11.447266,3.0315311 11.5,3.0073811 11.5,3.0173609 c 0,0.00998 0.0457,-0.014399 0.101563,-0.054174 0.05586,-0.039775 0.105225,-0.068573 0.109702,-0.063995 0.0045,0.00458 0.0537,-0.015803 0.109375,-0.045291 0.127489,-0.06752 0.141515,-0.069932 0.44846,-0.077135 0.214732,-0.00504 0.267813,0.00426 0.347278,0.060845 0.05159,0.036736 0.10224,0.058355 0.112555,0.04804 0.02299,-0.022986 0.431616,0.381042 0.421615,0.4168667 -0.0039,0.014084 0.01684,0.070612 0.04615,0.1256182 0.07952,0.1492025 0.07417,0.5841296 -0.0089,0.7203018 -0.03406,0.055859 -0.05414,0.1015625 -0.04463,0.1015625 0.0095,0 -0.01275,0.042188 -0.04946,0.09375 -0.03672,0.051563 -0.05859,0.09375 -0.04861,0.09375 0.01,0 -0.01736,0.05625 -0.06076,0.125 -0.0434,0.06875 -0.07074,0.125 -0.06076,0.125 0.01,0 -0.01189,0.042188 -0.04861,0.09375 -0.03672,0.051563 -0.05859,0.09375 -0.04861,0.09375 0.01,0 -0.01417,0.052734 -0.05367,0.1171875 -0.06538,0.1066922 -0.153952,0.281576 -0.162225,0.3203125 -0.0018,0.00859 -0.02343,0.050781 -0.048,0.09375 -0.02456,0.042969 -0.04566,0.085156 -0.04687,0.09375 -0.0012,0.00859 -0.02036,0.04833 -0.04254,0.088303 -0.03567,0.064291 -0.02602,0.10576 0.08362,0.359375 0.06816,0.1576838 0.146601,0.3572075 0.174303,0.4433866 l 0.05037,0.1566887 0.868286,0.2888082 0.868286,0.2888081 0.177561,0.1795028 c 0.410333,0.4148209 0.409407,1.0164435 -0.0022,1.4237463 l -0.179998,0.1781193 -0.871601,0.2907441 -0.871601,0.2907437 -0.06793,0.2011997 c -0.03736,0.11066 -0.117719,0.3088866 -0.178568,0.4405034 -0.07999,0.173016 -0.101178,0.248759 -0.0765,0.273438 0.01877,0.01877 0.02333,0.03413 0.01013,0.03413 -0.0132,0 0.0035,0.03867 0.03719,0.08594 0.03366,0.04727 0.06335,0.09623 0.06599,0.108808 0.01322,0.0631 0.10953,0.267607 0.158467,0.336505 0.03052,0.04297 0.05574,0.08516 0.05604,0.09375 0.0012,0.03311 0.08543,0.208337 0.154047,0.320312 0.0395,0.06445 0.06365,0.117188 0.05367,0.117188 -0.01,0 0.0094,0.03867 0.04305,0.08594 0.03366,0.04727 0.06245,0.09663 0.064,0.109703 0.0015,0.01307 0.02693,0.06932 0.05642,0.125 0.06752,0.127489 0.06993,0.141515 0.07714,0.44846 0.005,0.214732 -0.0043,0.267813 -0.06085,0.347277 -0.03674,0.05159 -0.05835,0.102241 -0.04804,0.112555 0.02299,0.02299 -0.381041,0.431617 -0.416866,0.421616 -0.01408,-0.0039 -0.07061,0.01684 -0.125618,0.04615 -0.149203,0.07952 -0.58413,0.07417 -0.720302,-0.0089 -0.05586,-0.03406 -0.101563,-0.05414 -0.101563,-0.04463 0,0.0095 -0.04219,-0.01275 -0.09375,-0.04946 -0.05156,-0.03672 -0.09375,-0.05859 -0.09375,-0.04861 0,0.01 -0.05625,-0.01736 -0.125,-0.06076 -0.06875,-0.0434 -0.125,-0.07074 -0.125,-0.06076 0,0.01 -0.04219,-0.01189 -0.09375,-0.04861 -0.05156,-0.03672 -0.09375,-0.05859 -0.09375,-0.04861 0,0.01 -0.05273,-0.01417 -0.117187,-0.05367 -0.106692,-0.06538 -0.281576,-0.153951 -0.320313,-0.162225 -0.0086,-0.0018 -0.05078,-0.02343 -0.09375,-0.048 -0.04297,-0.02456 -0.08516,-0.04566 -0.09375,-0.04687 -0.0086,-0.0012 -0.04833,-0.02036 -0.0883,-0.04254 -0.06432,-0.03569 -0.105634,-0.02598 -0.359375,0.08439 -0.1576839,0.06859 -0.3459873,0.14205 -0.418452,0.163245 l -0.1317547,0.03854 -0.298415,0.895263 -0.298415,0.895264 -0.1792056,0.177266 C 8.4323844,15.01757 8.0457169,15.103874 7.6564712,14.96579 Z M 8.7233256,10.910744 C 9.8243259,10.62147 10.649577,9.7817472 10.927823,8.6675878 c 0.07422,-0.2972056 0.07422,-1.03797 0,-1.3351756 -0.278115,-1.113636 -1.0890596,-1.9398303 -2.2044974,-2.2459528 -0.3439365,-0.094391 -1.1027147,-0.094391 -1.4466512,0 -1.1154378,0.3061225 -1.9263825,1.1323168 -2.2044978,2.2459528 -0.074223,0.2972056 -0.074223,1.03797 0,1.3351756 0.2968793,1.1887713 1.2139043,2.0604802 2.4072475,2.2882912 0.3099237,0.05916 0.9329737,0.03656 1.2439015,-0.04514 z"
       id="path821"
       inkscape:connector-curvature="0" />
    <path
       style="fill:#000000;stroke-width:0.000357143"
       d="M 7.4540744,15.43788 C 7.2254163,15.355366 7.1829253,15.325443 6.9351322,15.072441 L 6.66524,14.796875 6.4068416,14.015625 C 6.2647225,13.585938 6.1372506,13.222129 6.1235709,13.207162 6.0920981,13.172727 5.7477191,13.031588 5.6946984,13.031395 5.6728763,13.031301 5.4549075,13.131892 5.2103234,13.254899 4.0451006,13.840916 4.1955175,13.788068 3.7281203,13.775658 3.3500825,13.765621 3.3161169,13.759316 3.109375,13.660812 2.8046811,13.515638 2.5283192,13.241541 2.3800849,12.9375 2.2678573,12.707312 2.2656322,12.695418 2.2555153,12.271673 c -0.00898,-0.376289 -0.00267,-0.446209 0.049371,-0.546875 0.032819,-0.06348 0.2028188,-0.398232 0.3777768,-0.743888 L 3.0007681,10.352446 2.9144465,10.129923 2.828125,9.9074 2.015625,9.6372103 1.203125,9.3670206 0.91802887,9.0819478 C 0.64978684,8.8137278 0.62807978,8.7820894 0.55084138,8.5467684 c -0.11445813,-0.3487178 -0.11445813,-0.713569 0,-1.0622868 0.0772384,-0.235321 0.0989456,-0.2669594 0.36718749,-0.5351797 L 1.203125,6.6642288 1.984375,6.4063359 C 2.4140625,6.2644947 2.7778709,6.1372506 2.792838,6.1235709 2.8272731,6.0920981 2.9684119,5.7477191 2.9686053,5.6946984 2.9686834,5.6728763 2.868108,5.4549075 2.7451011,5.2103234 2.159084,4.0451006 2.2119316,4.1955175 2.2243418,3.7281203 2.2343794,3.3500825 2.2406838,3.3161169 2.3391878,3.109375 2.484362,2.8046811 2.7584586,2.5283192 3.0625,2.3800849 3.2926884,2.2678573 3.3045819,2.2656322 3.7283269,2.2555153 c 0.3762887,-0.00898 0.4462093,-0.00267 0.546875,0.049371 0.063483,0.032819 0.3981372,0.2027711 0.7436762,0.3776707 L 5.6471316,3.0005558 5.8955584,2.902882 6.1439856,2.8052081 6.4039569,2.0197916 6.6639281,1.234375 6.9491516,0.94927888 c 0.2683143,-0.26819444 0.3000506,-0.28996282 0.53533,-0.3671875 0.3494628,-0.11470269 0.7139581,-0.11452913 1.0622868,5.0593e-4 0.2316879,0.0765145 0.2706479,0.10271828 0.5290338,0.35581957 l 0.2789275,0.27322232 0.2692928,0.8028491 0.2692928,0.8028491 0.2259557,0.090783 c 0.222117,0.089241 0.228199,0.089908 0.35803,0.039279 0.07264,-0.028327 0.16723,-0.074368 0.210199,-0.1023132 0.04297,-0.027945 0.310156,-0.1658085 0.59375,-0.3063635 l 0.515625,-0.2555545 0.398324,-0.021144 0.398323,-0.021144 0.262758,0.1307793 c 0.3569,0.1776359 0.681287,0.5112064 0.810451,0.8333958 0.08392,0.2093309 0.08793,0.2414725 0.07806,0.625 l -0.01041,0.4043199 -0.361291,0.7213844 -0.36129,0.721384 0.09134,0.2333697 0.09134,0.2333697 0.785571,0.2600225 0.785572,0.2600228 0.285096,0.2852235 c 0.268195,0.2683143 0.289963,0.3000506 0.367188,0.53533 0.114702,0.3494628 0.114529,0.7139581 -5.07e-4,1.0622868 -0.07651,0.2316879 -0.102718,0.2706478 -0.355819,0.5290338 L 14.788359,9.3547299 13.98551,9.6240227 13.18266,9.8933155 13.09188,10.119271 c -0.08924,0.222117 -0.08991,0.228199 -0.03928,0.35803 0.02833,0.07264 0.07437,0.16723 0.102313,0.210199 0.02795,0.04297 0.165808,0.310156 0.306363,0.59375 l 0.255555,0.515625 0.02114,0.398324 0.02114,0.398323 -0.13078,0.262758 c -0.177635,0.3569 -0.511206,0.681287 -0.833395,0.810451 -0.209331,0.08392 -0.241473,0.08793 -0.625,0.07806 l -0.40432,-0.01041 -0.721563,-0.36138 -0.721563,-0.36138 -0.207602,0.08013 -0.2076026,0.08013 -0.2701369,0.8125 -0.2701369,0.8125 -0.2850728,0.285096 c -0.26822,0.268242 -0.2998584,0.289949 -0.5351794,0.367188 -0.35947,0.117987 -0.7455221,0.114002 -1.092694,-0.01128 z m 0.9082209,-0.470096 c 0.1372066,-0.04718 0.2305735,-0.108962 0.363785,-0.240732 l 0.1792056,-0.177266 0.298415,-0.895264 0.298415,-0.895263 0.1317547,-0.03854 c 0.072465,-0.02119 0.2607682,-0.09465 0.4184524,-0.163245 0.253741,-0.110373 0.295051,-0.120074 0.359375,-0.08439 0.03997,0.02218 0.07971,0.04132 0.0883,0.04254 0.0086,0.0012 0.05078,0.02231 0.09375,0.04687 0.04297,0.02456 0.08516,0.04616 0.09375,0.048 0.03874,0.0083 0.21362,0.09685 0.320313,0.162225 0.06445,0.0395 0.117187,0.06365 0.117187,0.05367 0,-0.01 0.04219,0.01189 0.09375,0.04861 0.05156,0.03672 0.09375,0.05859 0.09375,0.04861 0,-0.01 0.05625,0.01736 0.125,0.06076 0.06875,0.0434 0.125,0.07074 0.125,0.06076 0,-0.01 0.04219,0.01189 0.09375,0.04861 0.05156,0.03672 0.09375,0.05897 0.09375,0.04946 0,-0.0095 0.0457,0.01057 0.101563,0.04463 0.136172,0.08303 0.571099,0.08838 0.720301,0.0089 0.05501,-0.02932 0.111534,-0.05008 0.125619,-0.04615 0.03582,0.01 0.439852,-0.39863 0.416866,-0.421616 -0.01031,-0.01031 0.0113,-0.06096 0.04804,-0.112555 0.05658,-0.07946 0.06588,-0.132545 0.06085,-0.347277 -0.0072,-0.306945 -0.0096,-0.320971 -0.07714,-0.44846 -0.02949,-0.05568 -0.05488,-0.111929 -0.05642,-0.125 -0.0015,-0.01307 -0.03034,-0.06244 -0.064,-0.109703 -0.03366,-0.04726 -0.05303,-0.08594 -0.04305,-0.08594 0.01,0 -0.01417,-0.05273 -0.05367,-0.117188 -0.06862,-0.111975 -0.152892,-0.287207 -0.154048,-0.320312 -3.12e-4,-0.0086 -0.02552,-0.05078 -0.05603,-0.09375 -0.04894,-0.0689 -0.145245,-0.273408 -0.158467,-0.336505 -0.0026,-0.01258 -0.03233,-0.06154 -0.06599,-0.108808 -0.03366,-0.04726 -0.05039,-0.08594 -0.03719,-0.08594 0.0132,0 0.0086,-0.01536 -0.01013,-0.03413 -0.02468,-0.02468 -0.0035,-0.100422 0.0765,-0.273438 0.06085,-0.1316164 0.141204,-0.329843 0.178568,-0.440503 L 12.7701,9.4882543 13.641701,9.1975106 14.513302,8.9067665 14.6933,8.7286471 C 15.104897,8.3213443 15.105823,7.7197218 14.6955,7.3049009 L 14.517947,7.1253691 13.649661,6.8365609 12.781375,6.5477528 12.731008,6.3910641 C 12.703306,6.304885 12.62487,6.1053612 12.556706,5.9476775 12.447071,5.6940625 12.437423,5.6525934 12.473091,5.5883025 12.495267,5.54833 12.514408,5.5085937 12.515626,5.5 c 0.0012,-0.00859 0.02231,-0.050781 0.04687,-0.09375 0.02456,-0.042969 0.04616,-0.085156 0.048,-0.09375 0.0083,-0.038737 0.09685,-0.2136203 0.162225,-0.3203125 0.0395,-0.064453 0.06365,-0.1171875 0.05367,-0.1171875 -0.01,0 0.0119,-0.042187 0.04861,-0.09375 0.03672,-0.051563 0.05859,-0.09375 0.04861,-0.09375 -0.01,0 0.01736,-0.05625 0.06076,-0.125 0.0434,-0.06875 0.07074,-0.125 0.06076,-0.125 -0.01,0 0.0119,-0.042187 0.04861,-0.09375 0.03672,-0.051563 0.05897,-0.09375 0.04946,-0.09375 -0.0095,0 0.01057,-0.045703 0.04463,-0.1015625 0.08303,-0.1361722 0.08837,-0.5710994 0.0089,-0.7203019 -0.02931,-0.055006 -0.05008,-0.111534 -0.04615,-0.1256181 0.01,-0.035825 -0.39863,-0.4398524 -0.421616,-0.4168667 -0.01031,0.010314 -0.06096,-0.011304 -0.112555,-0.04804 -0.07946,-0.056584 -0.132546,-0.065884 -0.347277,-0.060845 -0.306945,0.0072 -0.320971,0.00962 -0.44846,0.077136 -0.05568,0.029488 -0.104898,0.04987 -0.109375,0.045291 -0.0045,-0.00458 -0.05384,0.024219 -0.109703,0.063995 -0.05586,0.039775 -0.101562,0.064154 -0.101562,0.054174 0,-0.00998 -0.05273,0.01417 -0.117188,0.053667 -0.111975,0.068618 -0.287208,0.1528917 -0.320312,0.1540473 -0.0086,3.125e-4 -0.05078,0.025516 -0.09375,0.056036 -0.0689,0.048937 -0.273409,0.145245 -0.336505,0.1584672 -0.01258,0.00264 -0.06154,0.032329 -0.108808,0.065986 -0.04727,0.033656 -0.08594,0.050392 -0.08594,0.03719 0,-0.013202 -0.01536,-0.00864 -0.03413,0.010131 -0.02468,0.024679 -0.100423,0.00349 -0.273438,-0.0765 C 9.9983122,3.415535 9.8000856,3.3351797 9.6894256,3.2978162 L 9.4882259,3.2298825 9.1974822,2.3582813 8.9067381,1.48668 8.7286188,1.3066825 C 8.3213153,0.89508484 7.7196928,0.89415944 7.3048719,1.3044924 L 7.1253691,1.4820533 6.8365609,2.3503393 6.5477528,3.2186253 6.3910641,3.2689925 C 6.304885,3.2966944 6.1043291,3.3755831 5.9453844,3.4443006 5.7538969,3.5270878 5.6379181,3.5611075 5.6016344,3.5451325 5.5715166,3.5318722 5.5398437,3.5197547 5.53125,3.518205 5.4938525,3.51146 4.1955087,2.8585025 4.125,2.8109795 4.02524,2.7437412 3.5388947,2.7262726 3.4311766,2.7860587 3.3916856,2.8079771 3.3523438,2.8276798 3.34375,2.8298425 3.2450534,2.8546805 3.0856361,2.9572605 2.9858454,3.0601431 2.9179041,3.1301894 2.8731585,3.1875 2.8864108,3.1875 c 0.013252,0 -0.00595,0.042187 -0.042661,0.09375 -0.036716,0.051563 -0.058443,0.09375 -0.048283,0.09375 0.01016,0 -0.00133,0.031641 -0.025531,0.070312 -0.029559,0.047231 -0.042486,0.1523819 -0.03938,0.3203125 0.00375,0.2026962 0.020951,0.2839325 0.090907,0.4293337 0.047456,0.098634 0.087492,0.1900397 0.08897,0.203125 0.00148,0.013085 0.026783,0.058948 0.056233,0.1019163 0.058103,0.084773 0.4722003,0.9208394 0.4756159,0.9602728 0.00115,0.013256 0.02998,0.063273 0.064069,0.1111472 l 0.061981,0.087045 -0.12526,0.2879547 C 3.37418,6.1047953 3.3002791,6.2943075 3.2788488,6.3675587 3.2574184,6.4408097 3.2245825,6.5127503 3.2058797,6.5274272 3.1871772,6.5421037 2.7845016,6.6827787 2.3110452,6.8400375 l -0.8608298,0.2859256 -0.177267,0.179206 c -0.4088124,0.413284 -0.40881262,1.0076275 -5e-7,1.4209112 l 0.1772665,0.1792056 0.8952633,0.298415 0.8952632,0.298415 0.038536,0.1317547 c 0.021195,0.072465 0.095107,0.2618003 0.1642506,0.4207454 0.083411,0.191744 0.1176013,0.307417 0.101605,0.34375 -0.01326,0.03012 -0.025378,0.06179 -0.026927,0.07038 -0.00675,0.0374 -0.6597025,1.335741 -0.7072255,1.40625 -0.067238,0.09976 -0.084707,0.586105 -0.024921,0.693823 0.021918,0.03949 0.041621,0.07883 0.043784,0.08743 0.024838,0.0987 0.127418,0.258114 0.2303006,0.357905 0.070046,0.06794 0.1273569,0.112687 0.1273569,0.09943 0,-0.01325 0.042187,0.0059 0.09375,0.04266 0.051563,0.03672 0.09375,0.05844 0.09375,0.04828 0,-0.01016 0.031641,0.0013 0.070312,0.02553 0.047231,0.02956 0.1523819,0.04249 0.3203125,0.03938 0.2000066,-0.0037 0.2843703,-0.02117 0.421875,-0.08738 0.094531,-0.04551 0.1789063,-0.08054 0.1875,-0.07784 0.00859,0.0027 0.057812,-0.02419 0.109375,-0.05976 0.1055025,-0.07278 0.9471278,-0.489631 0.9602728,-0.475616 0.00466,0.005 0.054679,-0.02386 0.1111472,-0.06407 l 0.1026703,-0.07311 0.2879547,0.12526 c 0.1583753,0.06889 0.3478875,0.142794 0.4211388,0.164224 0.073251,0.02143 0.1451915,0.05427 0.1598684,0.07297 0.014677,0.0187 0.1553516,0.421378 0.3126103,0.894835 l 0.2859256,0.86083 0.1794278,0.177555 c 0.2935532,0.29049 0.6653544,0.375074 1.0569044,0.240444 z M 7.4794241,10.955879 C 6.8391219,10.833644 6.2811547,10.532683 5.8413031,10.072296 5.46529,9.6787272 5.2067906,9.2066125 5.0721766,8.6675878 c -0.074223,-0.2972056 -0.074223,-1.03797 0,-1.3351756 0.2781153,-1.113636 1.08906,-1.9398303 2.2044978,-2.2459528 0.3439365,-0.094391 1.1027147,-0.094391 1.4466512,0 1.1154378,0.3061225 1.9263824,1.1323168 2.2044974,2.2459528 0.07422,0.2972056 0.07422,1.03797 0,1.3351756 -0.278246,1.1141594 -1.1034971,1.9538822 -2.2044974,2.2431562 -0.3109278,0.08169 -0.9339778,0.104299 -1.2439015,0.04514 z M 8.3918569,10.452036 C 9.0791631,10.33218 9.6754897,9.9501313 10.047175,9.3915228 c 0.209417,-0.3147347 0.342891,-0.6443031 0.404861,-0.9996659 0.05986,-0.3432781 0.05986,-0.4404357 0,-0.7837138 C 10.33218,6.9208369 9.9501312,6.3245103 9.3915228,5.952825 9.0767881,5.7434078 8.7472197,5.6099337 8.3918569,5.5479637 c -0.3432781,-0.059863 -0.4404357,-0.059863 -0.7837138,0 C 6.9208369,5.6678197 6.3245103,6.0498687 5.952825,6.6084772 5.7434078,6.9232119 5.6099337,7.2527803 5.5479637,7.6081431 c -0.059863,0.3432781 -0.059863,0.4404356 0,0.7837138 0.089081,0.5108269 0.3828113,1.0741656 0.7288501,1.3978447 0.3482303,0.3257284 0.8454628,0.5771744 1.3058215,0.6603404 0.3260819,0.05891 0.4806647,0.05929 0.8092216,0.002 z"
       id="path819"
       inkscape:connector-curvature="0" />
  </g>
</svg>
