<?xml version="1.0" encoding="UTF-8" standalone="no"?>
<!-- Created with Inkscape (http://www.inkscape.org/) -->

<svg
   version="1.1"
   id="svg2"
   width="1600"
   height="1600"
   viewBox="0 0 1600 1600"
   sodipodi:docname="shading_vert_sharp.svg"
   inkscape:version="1.2.2 (732a01da63, 2022-12-09)"
   xmlns:inkscape="http://www.inkscape.org/namespaces/inkscape"
   xmlns:sodipodi="http://sodipodi.sourceforge.net/DTD/sodipodi-0.dtd"
   xmlns="http://www.w3.org/2000/svg"
   xmlns:svg="http://www.w3.org/2000/svg"
   xmlns:rdf="http://www.w3.org/1999/02/22-rdf-syntax-ns#"
   xmlns:cc="http://creativecommons.org/ns#"
   xmlns:dc="http://purl.org/dc/elements/1.1/">
  <metadata
     id="metadata8">
    <rdf:RDF>
      <cc:Work
         rdf:about="">
        <dc:format>image/svg+xml</dc:format>
        <dc:type
           rdf:resource="http://purl.org/dc/dcmitype/StillImage" />
      </cc:Work>
    </rdf:RDF>
  </metadata>
  <defs
     id="defs6" />
  <sodipodi:namedview
     pagecolor="#808080"
     bordercolor="#666666"
     borderopacity="1"
     objecttolerance="10"
     gridtolerance="10"
     guidetolerance="10"
     inkscape:pageopacity="0"
     inkscape:pageshadow="2"
     inkscape:window-width="1993"
     inkscape:window-height="1009"
     id="namedview4"
     showgrid="false"
     inkscape:zoom="0.5"
     inkscape:cx="9"
     inkscape:cy="8"
     inkscape:window-x="-8"
     inkscape:window-y="-8"
     inkscape:window-maximized="1"
     inkscape:current-layer="SHADING_VERT_SHARP"
     inkscape:showpageshadow="0"
     inkscape:pagecheckerboard="true"
     inkscape:deskcolor="#d1d1d1" />
  <g
     id="SHADING_VERT_SHARP"
     transform="matrix(100,0,0,100,0,4.9999997e-5)"
     style="stroke-width:0.0114286">
    <path
       style="fill:none;stroke-width:0.000357143"
       d="M 0,8 V 0 h 8 8 v 8 8 l -2.148437,-0.0021 c -1.907706,-0.0018 -2.130106,-0.007 -1.98483,-0.04612 0.531494,-0.143138 0.946825,-0.561657 1.085417,-1.093749 0.06156,-0.236333 0.06069,-0.474766 -0.0026,-0.727318 l -0.0505,-0.201359 1.299052,-1.300637 c 0.714478,-0.715351 1.313765,-1.340225 1.331749,-1.38861 0.04545,-0.122273 0.04546,-6.3267518 8e-6,-6.4490558 C 15.4862,4.673735 12.388702,1.5690576 12.258815,1.5125211 c -0.150324,-0.065433 -8.3360575,-0.065433 -8.4863822,0 C 3.6425472,1.5690573 0.545049,4.6737347 0.50143897,4.7910969 0.47948769,4.8501719 0.46875,5.9103622 0.46875,8.0186631 c 0,2.6227419 0.007204,3.1561489 0.0437608,3.2401529 0.0245442,0.0564 0.6064331,0.661801 1.3251,1.378641 l 1.2813391,1.278083 -0.046081,0.128168 c -0.066426,0.184755 -0.086778,0.536074 -0.043201,0.745748 0.115049,0.553568 0.5520372,1.013827 1.1035993,1.162369 0.1452756,0.03913 -0.077124,0.04429 -1.9848296,0.04612 L 0,16 Z m 4.8714897,7.950608 C 5.4308944,15.800165 5.8692438,15.324926 5.9754706,14.75372 L 6.0110316,14.5625 H 8 9.9889684 l 0.035561,0.19122 c 0.106227,0.571206 0.544577,1.046445 1.103981,1.196888 0.149912,0.04032 -0.192971,0.04528 -3.128504,0.04528 -2.9355394,0 -3.2784222,-0.005 -3.1285163,-0.04528 z"
       id="path833"
       inkscape:connector-curvature="0" />
    <path
       style="fill:#cbe4fe;stroke-width:0.000357143"
       d="m 5.78125,7.7198934 c 0,-0.016559 -0.083935,-0.119834 -0.1865231,-0.2295003 C 5.1169559,6.9796541 4.3966837,6.8572769 3.7929628,7.1842659 L 3.6310475,7.2719631 2.3936567,6.0342825 1.1562659,4.7966016 2.5704478,3.3826756 3.9846297,1.96875 h 4.0312516 4.0312517 l 1.413943,1.4141994 1.413943,1.4141993 -1.243086,1.242795 -1.243086,1.2427947 -0.171863,-0.093085 C 11.6029,6.8570516 10.886486,6.9759747 10.405273,7.4903931 10.302685,7.6000594 10.21875,7.7033347 10.21875,7.7198934 10.21875,7.7389197 9.4021606,7.75 8,7.75 6.5978394,7.75 5.78125,7.7389197 5.78125,7.7198934 Z"
       id="path831"
       inkscape:connector-curvature="0" />
    <path
       style="fill:#98cbfe;stroke-width:0.000357143"
       d="M 2.1795373,12.257664 0.96875,11.046578 V 8.18751 5.3284419 L 2.1203607,6.4797369 3.2719716,7.6310322 3.18427,7.7929553 C 2.8572768,8.3966841 2.9796513,9.1169531 3.4903931,9.5947269 3.6000594,9.6973147 3.7033347,9.78125 3.7198934,9.78125 3.7388372,9.78125 3.75,10.418514 3.75,11.5 c 0,0.945313 -0.012082,1.71875 -0.02685,1.71875 -0.014768,0 -0.090754,0.05625 -0.1688578,0.125 -0.078104,0.06875 -0.1469485,0.125 -0.1529875,0.125 -0.00604,0 -0.5558342,-0.544989 -1.2217674,-1.211086 z"
       id="path829"
       inkscape:connector-curvature="0" />
    <path
       style="fill:#fefe00;stroke-width:0.000357143"
       d="M 4,14.5 V 14 H 4.5 5 V 14.5 15 H 4.5 4 Z m 7,0 V 14 H 11.5 12 V 14.5 15 H 11.5 11 Z M 4,8.5 V 8 H 4.5 5 V 8.5 9 H 4.5 4 Z m 7,0 V 8 H 11.5 12 V 8.5 9 H 11.5 11 Z"
       id="path827"
       inkscape:connector-curvature="0" />
    <path
       style="fill:#6598cb;stroke-width:0.000357143"
       d="M 5.8477875,13.8582 C 5.6082337,13.346285 5.0554453,13 4.4778094,13 H 4.28125 V 11.5 10 H 4.4778094 C 5.3166472,10 6,9.3166472 6,8.4778094 V 8.28125 h 2 2 v 0.1965594 c 0,0.8560784 0.730384,1.5642046 1.564728,1.5170443 L 11.750114,9.984375 V 11.5 13.015625 l -0.185386,-0.01048 c -0.574241,-0.03246 -1.165125,0.324392 -1.412516,0.853054 l -0.0956,0.2043 H 8 5.9433909 Z"
       id="path825"
       inkscape:connector-curvature="0" />
    <path
       style="fill:#3200fe;stroke-width:0.000357143"
       d="m 5.9907631,14.366803 c -0.010051,-0.107634 -0.027651,-0.220134 -0.039112,-0.25 C 5.9319909,14.065569 6.0477753,14.0625 8,14.0625 c 1.9522247,0 2.068009,0.0031 2.048349,0.0543 -0.01146,0.02987 -0.02906,0.142366 -0.03911,0.25 L 9.990962,14.5625 H 8 6.0090378 Z M 12.84436,13.845222 c -0.02227,-0.05377 -0.08224,-0.155394 -0.133262,-0.225826 l -0.09277,-0.128059 1.222084,-1.222378 1.222084,-1.222377 V 8.1875097 5.3284375 L 13.898438,6.4869325 12.734375,7.6454272 12.564029,7.4619556 12.393683,7.2784844 13.634333,6.0375428 14.874984,4.7966016 13.460802,3.3826756 12.04662,1.96875 H 8.0153688 3.9841175 L 2.5701732,3.3829503 1.156229,4.7971506 2.3902376,6.0308625 3.6242459,7.2645747 3.445505,7.4452003 3.2667641,7.6258263 2.117757,6.4771341 0.96875,5.3284419 v 2.8593669 2.8593672 l 1.2167571,1.216457 1.216757,1.216457 -0.077626,0.09225 c -0.042694,0.05074 -0.106434,0.148721 -0.1416437,0.217738 L 3.1189766,13.915567 1.837624,12.637471 C 1.1189493,11.920623 0.53705494,11.315217 0.51251075,11.258816 0.44725488,11.108863 0.44726447,4.9223534 0.51252081,4.7724337 0.56905731,4.6425472 3.6737347,1.545049 3.7910969,1.501439 3.8506922,1.4792942 5.2143487,1.46875 8.0186631,1.46875 c 3.4804649,0 4.1556059,0.00697 4.2401529,0.043771 0.129887,0.056536 3.227385,3.1612139 3.270995,3.2785761 0.02195,0.059075 0.03269,1.1192653 0.03269,3.2275662 0,2.6227637 -0.0072,3.1561477 -0.04376,3.2401527 -0.02456,0.05644 -0.611941,0.667311 -1.338821,1.392366 l -1.295061,1.291807 z m -0.734985,-0.706679 c -0.08594,-0.0414 -0.201953,-0.08405 -0.257812,-0.09476 L 11.75,13.024294 V 11.5 9.9757056 l 0.101563,-0.019387 c 0.05586,-0.010663 0.17539,-0.053768 0.265625,-0.09579 l 0.164062,-0.076403 v 1.7173124 c 0,0.944521 -0.0035,1.716203 -0.0078,1.714847 -0.0043,-0.0014 -0.07813,-0.03634 -0.164063,-0.07774 z M 3.75,11.5 c 0,-0.928125 0.00352,-1.687435 0.00781,-1.6873553 0.0043,9.37e-5 0.092188,0.034902 0.1953125,0.077383 0.103125,0.042481 0.2191406,0.077572 0.2578125,0.07798 L 4.28125,9.96875 V 11.5 13.03125 l -0.070312,7.41e-4 C 4.1722656,13.0324 4.05625,13.06749 3.953125,13.109971 3.85,13.152452 3.7621094,13.187274 3.7578125,13.187354 3.7535156,13.187435 3.75,12.428125 3.75,11.5 Z M 5.9680081,8.2109375 C 5.9676019,8.1722656 5.9325091,8.05625 5.8900281,7.953125 5.8475469,7.85 5.8127244,7.7621094 5.8126447,7.7578125 5.812565,7.7535156 6.796875,7.75 8,7.75 c 1.203125,0 2.187435,0.00352 2.187355,0.00781 -9.3e-5,0.0043 -0.0349,0.092187 -0.07738,0.1953125 -0.04248,0.103125 -0.07757,0.2191406 -0.07798,0.2578125 L 10.03125,8.28125 H 8 5.96875 L 5.9680094,8.210938 Z"
       id="path823"
       inkscape:connector-curvature="0" />
    <path
       style="fill:#fe0032;stroke-width:0.000357143"
       d="M 4.1285103,15.950608 C 3.3361416,15.737513 2.8459467,14.917082 3.0478497,14.141923 3.2569144,13.33927 4.0760953,12.844169 4.8580766,13.04785 c 0.8002987,0.208451 1.2977171,1.028386 1.0953087,1.805484 -0.210975,0.809989 -1.0398653,1.308389 -1.824875,1.097274 z M 5,14.5 V 14 H 4.5 4 V 14.5 15 H 4.5 5 Z m 6.12851,1.450608 c -0.792368,-0.213095 -1.2825634,-1.033526 -1.08066,-1.808685 0.209064,-0.802653 1.028245,-1.297754 1.810227,-1.094073 0.800298,0.208451 1.297717,1.028386 1.095308,1.805484 -0.210975,0.809989 -1.039865,1.308389 -1.824875,1.097274 z M 12,14.5 V 14 H 11.5 11 V 14.5 15 H 11.5 12 Z M 4.1285103,9.9506078 C 3.3361416,9.7375131 2.8459467,8.9170816 3.0478497,8.1419234 3.2569144,7.33927 4.0760953,6.8441694 4.8580766,7.0478497 5.6583753,7.2563012 6.1557937,8.0762359 5.9533853,8.8533344 5.7424103,9.6633228 4.91352,10.161723 4.1285103,9.9506078 Z M 5,8.5 V 8 H 4.5 4 V 8.5 9 H 4.5 5 Z m 6.12851,1.4506078 C 10.336142,9.7375131 9.8459466,8.9170816 10.04785,8.1419234 10.256914,7.33927 11.076095,6.8441694 11.858077,7.0478497 12.658375,7.2563012 13.155794,8.0762359 12.953385,8.8533344 12.74241,9.6633228 11.91352,10.161723 11.12851,9.9506078 Z M 12,8.5 V 8 H 11.5 11 V 8.5 9 h 0.5 0.5 z"
       id="path821"
       inkscape:connector-curvature="0" />
    <path
       style="fill:#326598;stroke-width:0.000357143"
       d="M 12.445313,13.34692 12.28125,13.198161 V 11.501808 9.8054559 l 0.213233,-0.1974215 c 0.521289,-0.4826338 0.64841,-1.1743706 0.330943,-1.8008603 L 12.744082,7.6466484 13.903291,6.4874391 15.0625,5.32823 v 2.8594706 2.8594714 l -1.226562,1.224254 -1.226563,1.224254 z"
       id="path819"
       inkscape:connector-curvature="0" />
  </g>
</svg>
