<?xml version="1.0" encoding="UTF-8" standalone="no"?>
<!-- Created with Inkscape (http://www.inkscape.org/) -->

<svg
   version="1.1"
   id="svg2"
   width="1600"
   height="1600"
   viewBox="0 0 1600 1600"
   sodipodi:docname="shader_active.svg"
   inkscape:version="1.2.2 (732a01da63, 2022-12-09)"
   xmlns:inkscape="http://www.inkscape.org/namespaces/inkscape"
   xmlns:sodipodi="http://sodipodi.sourceforge.net/DTD/sodipodi-0.dtd"
   xmlns="http://www.w3.org/2000/svg"
   xmlns:svg="http://www.w3.org/2000/svg"
   xmlns:rdf="http://www.w3.org/1999/02/22-rdf-syntax-ns#"
   xmlns:cc="http://creativecommons.org/ns#"
   xmlns:dc="http://purl.org/dc/elements/1.1/">
  <metadata
     id="metadata8">
    <rdf:RDF>
      <cc:Work
         rdf:about="">
        <dc:format>image/svg+xml</dc:format>
        <dc:type
           rdf:resource="http://purl.org/dc/dcmitype/StillImage" />
      </cc:Work>
    </rdf:RDF>
  </metadata>
  <defs
     id="defs6" />
  <sodipodi:namedview
     pagecolor="#808080"
     bordercolor="#666666"
     borderopacity="1"
     objecttolerance="10"
     gridtolerance="10"
     guidetolerance="10"
     inkscape:pageopacity="0"
     inkscape:pageshadow="2"
     inkscape:window-width="1993"
     inkscape:window-height="1009"
     id="namedview4"
     showgrid="false"
     inkscape:zoom="0.5"
     inkscape:cx="495"
     inkscape:cy="520"
     inkscape:window-x="-8"
     inkscape:window-y="-8"
     inkscape:window-maximized="1"
     inkscape:current-layer="svg2"
     inkscape:showpageshadow="0"
     inkscape:pagecheckerboard="true"
     inkscape:deskcolor="#d1d1d1" />
  <g
     id="SHADER_ACTIVE"
     transform="matrix(100,0,0,100,0,4.9999997e-5)"
     style="stroke-width:0.0114286">
    <path
       style="fill:#fefefe;stroke-width:0.000357143"
       d="M 7.21875,13.967877 C 4.9336097,13.652292 3.057418,12.116904 2.313675,9.9537925 2.2428862,9.7479097 2.1473163,9.4033784 2.1012975,9.1881675 2.0229872,8.8219434 2.0176268,8.7458225 2.0176268,8 c 0,-0.7458225 0.00536,-0.8219434 0.083671,-1.1881675 C 2.4496504,5.1827328 3.3496763,3.8584241 4.71875,2.9604812 5.3322828,2.5580796 6.0462603,2.2650009 6.8118325,2.1012975 7.1780566,2.0229872 7.2541775,2.0176268 8,2.0176268 c 0.7458225,0 0.8219434,0.00536 1.1881675,0.083671 1.4618115,0.3125815 2.7349905,1.1086941 3.5920405,2.2460856 0.558058,0.7405982 0.920774,1.5397932 1.118495,2.4644494 0.07831,0.3662241 0.08367,0.442345 0.08367,1.1881675 0,0.7458225 -0.0054,0.8219434 -0.08367,1.1881675 -0.312582,1.4618112 -1.108695,2.7349902 -2.246086,3.5920402 -0.736815,0.555207 -1.543631,0.922404 -2.448472,1.114345 -0.3252131,0.06899 -0.4710244,0.08122 -1.079145,0.09057 -0.3867188,0.0059 -0.7945313,-0.0018 -0.90625,-0.01725 z M 8.9514219,12.907821 C 10.743288,12.544671 12.159308,11.300044 12.73954,9.5782094 12.926082,9.0246478 12.982973,8.6558153 12.982973,8 c 0,-0.4719403 -0.01269,-0.6412775 -0.06908,-0.9219594 -0.416967,-2.0754753 -1.9799,-3.6190793 -4.054522,-4.0043781 -0.4340447,-0.080611 -1.2847053,-0.080611 -1.71875,0 C 5.3063828,3.4143178 3.8506319,4.6704606 3.2604597,6.4217906 3.0739178,6.9753522 3.0170268,7.3441847 3.0170268,8 c 0,0.4719403 0.012687,0.6412775 0.069077,0.9219594 0.2727398,1.3575796 1.0204276,2.4848556 2.1482714,3.2389126 0.6543878,0.437513 1.3483894,0.687183 2.28125,0.820691 0.2331378,0.03337 1.1361403,-0.01301 1.4357969,-0.07374 z"
       id="path829"
       inkscape:connector-curvature="0" />
    <path
       style="fill:#feedcb;stroke-width:0.000357143"
       d="M 3.0110548,7.6879516 C 3.1165817,6.0776866 3.9971606,4.603925 5.359375,3.7577369 6.0554844,3.3253238 6.8682231,3.0647748 7.6886712,3.0110076 L 8,2.990605 V 5.4953025 8 H 5.4953025 2.990605 Z"
       id="path827"
       inkscape:connector-curvature="0" />
    <path
       style="fill:#fecb65;stroke-width:0.000357143"
       d="M 8,10.504698 V 8 h 2.504697 2.504698 l -0.0204,0.3113288 C 12.824197,10.825993 10.8263,12.824177 8.3120484,12.988945 L 8,13.009395 Z"
       id="path825"
       inkscape:connector-curvature="0" />
    <path
       style="fill:#557fc1;stroke-width:0.000357143"
       d="M 0,8 V 0 h 8 8 v 8 8 H 8 0 Z m 9.4019309,6.893282 c 0.4594457,-0.09832 0.9515081,-0.253659 1.4039511,-0.443215 0.952432,-0.399034 1.956557,-1.154754 2.632573,-1.981317 0.186702,-0.228279 0.59819,-0.840856 0.764013,-1.137377 0.26302,-0.470323 0.551317,-1.277834 0.694587,-1.945518 0.08371,-0.3901216 0.08615,-0.4293297 0.08615,-1.385855 0,-0.9565253 -0.0024,-0.9957334 -0.08615,-1.385855 C 14.795299,6.1399284 14.641135,5.6501678 14.450067,5.1941184 14.051033,4.2416859 13.295313,3.2375609 12.46875,2.5615446 12.240471,2.3748435 11.627894,1.9633551 11.331373,1.7975314 10.86105,1.5345115 10.053539,1.2462151 9.385855,1.102945 8.9957334,1.0192336 8.9565253,1.0167963 8,1.0167963 c -0.9565253,0 -0.9957334,0.00244 -1.385855,0.086149 C 5.9464609,1.2462151 5.1389503,1.5345115 4.6686266,1.7975314 4.3721062,1.9633551 3.7595288,2.3748435 3.53125,2.5615446 2.8777475,3.0960212 2.2510135,3.857725 1.7975314,4.6686266 1.5345115,5.1389503 1.2462151,5.9464609 1.102945,6.614145 1.0192336,7.0042666 1.0167963,7.0434747 1.0167963,8 c 0,0.9565253 0.00244,0.9957334 0.086149,1.385855 0.1017563,0.4742166 0.2559204,0.963977 0.4469882,1.420027 0.3990339,0.952432 1.1547542,1.956557 1.9813168,2.632573 0.2282788,0.186702 0.8408562,0.59819 1.1373766,0.764013 0.4448196,0.248758 1.2688946,0.548118 1.8469984,0.670955 0.5227366,0.111073 0.6850619,0.122398 1.609375,0.112278 0.8237959,-0.009 0.9196119,-0.01595 1.2769309,-0.09242 z"
       id="path823"
       inkscape:connector-curvature="0" />
    <path
       style="fill:#983232;stroke-width:0.000357143"
       d="M 7.515625,12.979391 C 5.9168972,12.787633 4.5711641,11.9501 3.7577369,10.640625 3.3253238,9.9445156 3.0647748,9.1317769 3.0110076,8.3113288 L 2.990605,8 H 5.4953025 8 V 5.4953025 2.990605 l 0.3120484,0.02045 c 1.610265,0.1055269 3.0840266,0.9861058 3.9302146,2.3483202 0.432413,0.6961094 0.692962,1.5088481 0.746729,2.3292963 L 13.009395,8 H 10.504698 8 V 10.5 13 L 7.8046875,12.9953 C 7.6972656,12.9927 7.5671875,12.9856 7.515625,12.97937 Z"
       id="path821"
       inkscape:connector-curvature="0" />
    <path
       style="fill:#000000;stroke-width:0.000357143"
       d="M 7.03125,14.967638 C 6.2806306,14.864856 5.2647884,14.535861 4.6686266,14.202468 4.3721062,14.036645 3.7595288,13.625157 3.53125,13.438455 2.8777475,12.903979 2.2510135,12.142275 1.7975314,11.331373 1.5345115,10.86105 1.2462151,10.053539 1.102945,9.385855 1.0192336,8.9957334 1.0167963,8.9565253 1.0167963,8 c 0,-0.9565253 0.00244,-0.9957334 0.086149,-1.385855 C 1.2047013,6.1399284 1.3588654,5.6501678 1.5499332,5.1941184 1.9489671,4.2416859 2.7046874,3.2375609 3.53125,2.5615446 3.7595288,2.3748435 4.3721062,1.9633551 4.6686266,1.7975314 5.1389503,1.5345115 5.9464609,1.2462151 6.614145,1.102945 7.0042666,1.0192336 7.0434747,1.0167963 8,1.0167963 c 0.9565253,0 0.9957334,0.00244 1.385855,0.086149 0.667684,0.1432701 1.475195,0.4315665 1.945518,0.6945864 0.296521,0.1658237 0.909098,0.5773121 1.137377,0.7640132 0.653503,0.5344766 1.280237,1.2961804 1.733718,2.107082 0.26302,0.4703237 0.551317,1.2778343 0.694587,1.9455184 0.08371,0.3901216 0.08615,0.4293297 0.08615,1.385855 0,0.9565253 -0.0024,0.9957334 -0.08615,1.385855 -0.14327,0.6676837 -0.431567,1.4751947 -0.694587,1.9455177 -0.165823,0.296521 -0.577311,0.909098 -0.764013,1.137377 -0.534476,0.653503 -1.29618,1.280237 -2.107082,1.733718 -0.46641,0.260832 -1.27798,0.551405 -1.9294421,0.690814 -0.357319,0.07646 -0.453135,0.0834 -1.2769309,0.09242 -0.4898438,0.0054 -0.9820313,-0.0028 -1.09375,-0.01806 z M 9.204145,13.894553 C 10.811831,13.55352 12.144956,12.64517 13.039519,11.28125 13.44192,10.667717 13.734999,9.9537397 13.898702,9.1881675 13.977013,8.8219434 13.982373,8.7458225 13.982373,8 c 0,-0.7458225 -0.0054,-0.8219434 -0.08367,-1.1881675 C 13.55035,5.1827328 12.650324,3.8584241 11.28125,2.9604812 10.667717,2.5580796 9.9537397,2.2650009 9.1881675,2.1012975 8.8219434,2.0229872 8.7458225,2.0176268 8,2.0176268 c -0.7458225,0 -0.8219434,0.00536 -1.1881675,0.083671 C 5.3500209,2.413879 4.0768419,3.2099916 3.2197916,4.3473831 2.661734,5.0879813 2.2990181,5.8871763 2.1012975,6.8118325 2.0229872,7.1780566 2.0176268,7.2541775 2.0176268,8 c 0,0.7458225 0.00536,0.8219434 0.083671,1.1881675 0.2174081,1.0167255 0.6533482,1.9166655 1.3090987,2.7024575 0.8188522,0.981238 2.0377729,1.714253 3.2986491,1.983687 0.5073209,0.108409 0.6821284,0.122089 1.4159547,0.11081 0.6081206,-0.0093 0.7539319,-0.02158 1.079145,-0.09057 z"
       id="path819"
       inkscape:connector-curvature="0" />
  </g>
</svg>
