<?xml version="1.0" encoding="UTF-8" standalone="no"?>
<!-- Created with Inkscape (http://www.inkscape.org/) -->

<svg
   version="1.1"
   id="svg2"
   width="1600"
   height="1600"
   viewBox="0 0 1600 1600"
   sodipodi:docname="shading_edge_smooth.svg"
   inkscape:version="1.2.2 (732a01da63, 2022-12-09)"
   xmlns:inkscape="http://www.inkscape.org/namespaces/inkscape"
   xmlns:sodipodi="http://sodipodi.sourceforge.net/DTD/sodipodi-0.dtd"
   xmlns="http://www.w3.org/2000/svg"
   xmlns:svg="http://www.w3.org/2000/svg"
   xmlns:rdf="http://www.w3.org/1999/02/22-rdf-syntax-ns#"
   xmlns:cc="http://creativecommons.org/ns#"
   xmlns:dc="http://purl.org/dc/elements/1.1/">
  <metadata
     id="metadata8">
    <rdf:RDF>
      <cc:Work
         rdf:about="">
        <dc:format>image/svg+xml</dc:format>
        <dc:type
           rdf:resource="http://purl.org/dc/dcmitype/StillImage" />
      </cc:Work>
    </rdf:RDF>
  </metadata>
  <defs
     id="defs6" />
  <sodipodi:namedview
     pagecolor="#808080"
     bordercolor="#666666"
     borderopacity="1"
     objecttolerance="10"
     gridtolerance="10"
     guidetolerance="10"
     inkscape:pageopacity="0"
     inkscape:pageshadow="2"
     inkscape:window-width="1993"
     inkscape:window-height="1009"
     id="namedview4"
     showgrid="false"
     inkscape:zoom="0.5"
     inkscape:cx="9"
     inkscape:cy="8"
     inkscape:window-x="-8"
     inkscape:window-y="-8"
     inkscape:window-maximized="1"
     inkscape:current-layer="SHADING_EDGE_SMOOTH"
     inkscape:showpageshadow="0"
     inkscape:pagecheckerboard="true"
     inkscape:deskcolor="#d1d1d1" />
  <g
     id="SHADING_EDGE_SMOOTH"
     transform="matrix(100,0,0,100,0,4.9999997e-5)"
     style="stroke-width:0.0114286">
    <path
       style="fill:none;stroke-width:0.000357143"
       d="M 0,8 V 0 h 8 8 v 8 8 H 8 0 Z m 8.90625,5.467823 c 1.679343,-0.147865 3.227786,-0.696299 4.417343,-1.564555 0.408604,-0.298238 1.070923,-0.961096 1.33968,-1.340768 C 15.630052,9.1967341 15.770105,7.5454481 15.043615,6.078125 14.950008,5.8890625 14.778854,5.6009491 14.663273,5.4378728 14.392621,5.0560044 13.762342,4.4230228 13.34375,4.1126922 L 13.015625,3.8694309 12.999243,3.3019028 C 12.984212,2.7811696 12.976543,2.7214917 12.906238,2.578125 12.808786,2.3793979 12.62159,2.1919087 12.421875,2.0930044 L 12.265625,2.015625 H 8 3.734375 L 3.578125,2.093004 C 3.3784103,2.1919087 3.1912138,2.3793979 3.0937616,2.578125 3.0234571,2.7214917 3.0157886,2.7811696 3.0007572,3.3019028 L 2.984375,3.8694309 2.65625,4.1126922 C 2.2376578,4.4230228 1.6073786,5.0560044 1.3367274,5.4378728 0.94222681,5.9944828 0.64865091,6.6943672 0.54714522,7.320235 c -0.0600342,0.3701612 -0.0600342,0.9893688 0,1.35953 0.1014669,0.6256288 0.39475331,1.324961 0.78958218,1.882735 0.2687569,0.379672 0.9310762,1.04253 1.3396792,1.340768 1.1704875,0.854337 2.7453743,1.417626 4.3697103,1.562913 0.41468,0.03709 1.447179,0.038 1.8601331,0.0016 z"
       id="path831"
       inkscape:connector-curvature="0" />
    <path
       style="fill:#fefefe;stroke-width:0.000357143"
       d="M 5.484375,7.9816241 C 5.4328125,7.9743187 5.2783888,7.9531262 5.1412112,7.9345294 4.1196025,7.7960328 3.2646587,7.32448 3.0623102,6.7878903 c -0.078828,-0.2090359 -0.078828,-0.3667447 0,-0.5757806 C 3.2640441,5.67715 4.0549281,5.2382125 5.140625,5.0586538 c 0.3287588,-0.054372 1.3899912,-0.054372 1.71875,0 C 7.9450719,5.2382125 8.7359559,5.67715 8.9376897,6.2121097 8.9719603,6.3029887 9,6.4325394 9,6.5 9,7.1361487 8.1854516,7.7025369 6.953125,7.9232744 c -0.2682413,0.048048 -1.26263,0.087553 -1.46875,0.05835 z"
       id="path829"
       inkscape:connector-curvature="0" />
    <path
       style="fill:#98cbfe;stroke-width:0.000357143"
       d="M 7.1711169,12.966181 C 3.9364809,12.676862 1.4219065,10.865483 1.0471452,8.554765 0.82045762,7.1570462 1.4829658,5.6891012 2.8125,4.6432009 l 0.265625,-0.2089584 0.0625,0.087566 C 3.2537447,4.680296 3.4259631,4.8313804 3.5813872,4.908482 3.7301294,4.982268 3.7599591,4.984845 4.65625,5.001316 5.1632812,5.010636 5.5202016,5.021181 5.4494059,5.024753 4.8518956,5.0549087 4.0470241,5.3080391 3.5966666,5.6074359 3.2224713,5.8562006 3,6.1889991 3,6.5 c 0,0.6512372 0.8585203,1.2293044 2.140625,1.4413463 0.3287588,0.054372 1.3899912,0.054372 1.71875,0 1.0856969,-0.1795588 1.8765809,-0.6184963 2.0783147,-1.153456 0.078828,-0.2090359 0.078828,-0.3667447 0,-0.5757806 C 8.7410309,5.6906075 7.9813159,5.2560931 6.9568441,5.0791769 6.8042022,5.0528172 6.6213897,5.0279462 6.5505941,5.0239081 6.4797984,5.01987 7.7367188,5.0093231 9.34375,5.0004706 l 2.921875,-0.016096 0.152988,-0.075893 c 0.155424,-0.077102 0.327642,-0.228186 0.440762,-0.3866735 l 0.0625,-0.087566 0.265625,0.2089584 c 0.962943,0.7575153 1.596984,1.7638882 1.765355,2.8020341 0.271185,1.6720813 -0.70642,3.3730834 -2.551132,4.4388904 -1.453259,0.83964 -3.4115768,1.244758 -5.2306061,1.082056 z M 8.75,11.967566 c 1.749723,-0.156873 3.231924,-0.76709 4.207781,-1.732327 0.383091,-0.3789221 0.6418,-0.7432059 0.807977,-1.1376999 C 13.938276,8.6879906 13.981798,8.4682688 13.983154,8 c 0.0016,-0.5361538 -0.02292,-0.6107197 -0.121121,-0.3690944 -0.323063,0.7948785 -1.420472,1.551206 -2.842048,1.9587225 -1.9022528,0.5453099 -4.1377172,0.5453099 -6.0399697,0 C 3.5584387,9.1821116 2.4610301,8.4257841 2.1379675,7.6309056 2.0397635,7.3892803 2.0152942,7.4638463 2.0168464,8 c 0.00136,0.4682688 0.044877,0.6879906 0.2173958,1.0975391 0.1661772,0.394494 0.4248857,0.7587778 0.807977,1.1376999 0.8361214,0.827023 2.0382192,1.392876 3.4819758,1.63904 0.7088984,0.120869 1.5329478,0.155406 2.225805,0.09329 z"
       id="path827"
       inkscape:connector-curvature="0" />
    <path
       style="fill:#fefe00;stroke-width:0.000357143"
       d="M 4,3.5 V 3 h 4 4 V 3.5 4 H 8 4 Z"
       id="path825"
       inkscape:connector-curvature="0" />
    <path
       style="fill:#3200fe;stroke-width:0.000357143"
       d="M 7.0461169,13.466181 C 5.4217809,13.320894 3.8468941,12.757605 2.6764066,11.903268 2.2678036,11.60503 1.6054843,10.942172 1.3367274,10.5625 0.94189853,10.004726 0.64861212,9.3053938 0.54714522,8.679765 0.487111,8.3096037 0.487111,7.6903962 0.54714522,7.320235 0.64865091,6.6943672 0.94222681,5.9944828 1.3367274,5.4378728 1.6071494,5.0563278 2.2373113,4.4233472 2.65625,4.1124478 L 2.984375,3.8689422 3.004903,4.0717141 C 3.016193,4.1832384 3.042829,4.3069947 3.064094,4.3467275 3.099161,4.4122505 3.092998,4.4263705 2.997825,4.4985472 2.4367581,4.9240497 2.0152798,5.3587441 1.6849562,5.8525831 0.58834766,7.4920309 0.82837506,9.4224784 2.3132648,10.905827 c 2.342168,2.339736 6.9574365,2.787288 10.0884582,0.978298 1.843474,-1.065092 2.822296,-2.7669694 2.55154,-4.4363631 -0.181188,-1.1171522 -0.831491,-2.1001338 -1.951088,-2.9492147 -0.09517,-0.072177 -0.101335,-0.086297 -0.06627,-0.1518197 0.02126,-0.039733 0.0479,-0.1634891 0.05919,-0.2750134 l 0.02053,-0.2027719 0.328125,0.2435056 c 0.418939,0.3108994 1.049101,0.94388 1.319522,1.325425 0.9666,1.3637981 1.106806,3.016735 0.380343,4.4840022 -0.24225,0.489283 -0.529429,0.87644 -0.996745,1.34375 -0.806523,0.806513 -1.716491,1.349085 -2.937495,1.751491 -0.753045,0.248182 -1.3953619,0.379584 -2.203125,0.450707 -0.4129541,0.03636 -1.4454531,0.03545 -1.8601331,-0.0016 z"
       id="path823"
       inkscape:connector-curvature="0" />
    <path
       style="fill:#fe0032;stroke-width:0.000357143"
       d="M 3.6876684,4.9481063 C 3.3754606,4.8383612 3.1507853,4.6079944 3.0472556,4.29147 3.0040572,4.1593984 2.9972593,4.0192903 3.005652,3.4339894 3.0152762,2.7628011 3.0188267,2.7280264 3.0930338,2.578125 3.1916428,2.3789308 3.3788922,2.19167 3.578125,2.0930044 L 3.734375,2.015625 H 8 12.265625 l 0.15625,0.077379 c 0.199213,0.098656 0.386465,0.2859074 0.485121,0.4851206 0.07598,0.1534282 0.07738,0.1700771 0.07738,0.921875 0,0.7517978 -0.0014,0.7684469 -0.07738,0.921875 -0.09866,0.1992131 -0.285908,0.3864647 -0.485121,0.4851206 l -0.15625,0.077379 -4.21875,0.00655 c -3.7756719,0.00586 -4.2335016,0.00137 -4.3592066,-0.042821 z M 12,3.5 V 3 H 8 4 V 3.5 4 h 4 4 z"
       id="path821"
       inkscape:connector-curvature="0" />
    <path
       style="fill:#326598;stroke-width:0.000357143"
       d="M 7.1875,11.96413 C 5.4982394,11.80837 4.0015653,11.184146 3.0422193,10.235239 2.6591279,9.8563169 2.4004194,9.4920331 2.2342422,9.0975391 2.0617236,8.6879906 2.018202,8.4682688 2.0168464,8 2.0152942,7.4638462 2.0397635,7.3892803 2.1379675,7.6309056 c 0.3230626,0.7948785 1.4204712,1.551206 2.8420478,1.9587225 1.9022525,0.5453099 4.1377169,0.5453099 6.0399697,0 C 12.441561,9.1821116 13.53897,8.4257841 13.862033,7.6309056 13.960237,7.3892803 13.984706,7.4638463 13.983154,8 c -0.0014,0.4682688 -0.04488,0.6879906 -0.217396,1.0975391 -0.166177,0.394494 -0.424886,0.7587778 -0.807977,1.1376999 -0.975857,0.965237 -2.458058,1.575454 -4.207781,1.732327 -0.4173703,0.03742 -1.136555,0.03584 -1.5625,-0.0034 z"
       id="path819"
       inkscape:connector-curvature="0" />
  </g>
</svg>
