<?xml version="1.0" encoding="UTF-8" standalone="no"?>
<!-- Created with Inkscape (http://www.inkscape.org/) -->

<svg
   version="1.1"
   id="svg2"
   width="1600"
   height="1600"
   viewBox="0 0 1600 1600"
   sodipodi:docname="sharpcurve.svg"
   inkscape:version="1.2.2 (732a01da63, 2022-12-09)"
   xmlns:inkscape="http://www.inkscape.org/namespaces/inkscape"
   xmlns:sodipodi="http://sodipodi.sourceforge.net/DTD/sodipodi-0.dtd"
   xmlns="http://www.w3.org/2000/svg"
   xmlns:svg="http://www.w3.org/2000/svg"
   xmlns:rdf="http://www.w3.org/1999/02/22-rdf-syntax-ns#"
   xmlns:cc="http://creativecommons.org/ns#"
   xmlns:dc="http://purl.org/dc/elements/1.1/">
  <metadata
     id="metadata8">
    <rdf:RDF>
      <cc:Work
         rdf:about="">
        <dc:format>image/svg+xml</dc:format>
        <dc:type
           rdf:resource="http://purl.org/dc/dcmitype/StillImage" />
      </cc:Work>
    </rdf:RDF>
  </metadata>
  <defs
     id="defs6" />
  <sodipodi:namedview
     pagecolor="#808080"
     bordercolor="#666666"
     borderopacity="1"
     objecttolerance="10"
     gridtolerance="10"
     guidetolerance="10"
     inkscape:pageopacity="0"
     inkscape:pageshadow="2"
     inkscape:window-width="1993"
     inkscape:window-height="1009"
     id="namedview4"
     showgrid="false"
     fit-margin-top="0"
     fit-margin-left="0"
     fit-margin-right="0"
     fit-margin-bottom="0"
     inkscape:zoom="0.5"
     inkscape:cx="-17"
     inkscape:cy="84"
     inkscape:window-x="-8"
     inkscape:window-y="-8"
     inkscape:window-maximized="1"
     inkscape:current-layer="SHARPCURVE"
     inkscape:showpageshadow="0"
     inkscape:pagecheckerboard="true"
     inkscape:deskcolor="#d1d1d1" />
  <g
     id="SHARPCURVE"
     transform="matrix(100,0,0,100,0,4.9999997e-5)"
     style="stroke-width:0.0114286">
    <path
       style="fill:none;stroke-width:0.000357143"
       d="M 0,8 V 0 h 8 8 v 8 8 H 8 0 Z m 2.921875,4.202745 C 3.9911031,12.04232 5.0692766,11.571827 5.9940953,10.862091 6.637235,10.368523 7.3173247,9.6483432 7.7587646,8.9933956 7.8828503,8.8092943 7.9914062,8.6586662 8,8.6586662 c 0.00859,0 0.1171497,0.1506281 0.2412354,0.3347294 0.4414399,0.6549476 1.1215296,1.3751274 1.7646686,1.8686954 0.945787,0.725828 2.111871,1.221644 3.193236,1.357757 0.163778,0.02061 0.4848,0.03176 0.713382,0.02476 0.37232,-0.0114 0.43513,-0.0217 0.603103,-0.0989 0.249437,-0.114645 0.517054,-0.380888 0.630203,-0.626964 0.07738,-0.168292 0.08768,-0.227213 0.08793,-0.503115 2.93e-4,-0.276831 -0.0097,-0.333901 -0.087,-0.5 C 15.048423,10.304392 14.794228,10.026011 14.61499,9.9332637 14.400562,9.8223076 14.050216,9.7191903 13.886906,9.7189678 13.308215,9.7181797 12.515444,9.4439247 11.859375,9.0175541 10.383367,8.0583162 9.3702484,6.2126935 9.293781,4.34375 9.2681906,3.718295 9.1641682,3.4216237 8.8697193,3.1343271 8.7780925,3.0449258 8.61875,2.9325012 8.515625,2.8844945 c -0.1658953,-0.077227 -0.2235081,-0.087285 -0.5,-0.087285 -0.2764544,0 -0.3341275,0.010065 -0.5,0.087257 C 7.2217756,3.021216 6.995374,3.2664459 6.8479312,3.6076885 6.7310297,3.8782466 6.7249203,3.9090822 6.7082935,4.3125 6.6514428,5.6918472 6.1119372,7.0426381 5.1887394,8.1170938 4.6718193,8.7187063 3.8364947,9.2840766 3.0999538,9.5308403 2.7880082,9.6353516 2.3482028,9.71875 2.1090021,9.71875 c -0.1614773,0 -0.4546498,0.091199 -0.6976802,0.2170332 -0.1748094,0.090511 -0.4295593,0.3708968 -0.52682734,0.5798418 -0.0772273,0.165896 -0.0872847,0.223508 -0.0872847,0.5 0,0.276492 0.0100574,0.334104 0.0872847,0.5 0.15289484,0.32844 0.50141884,0.623875 0.82631554,0.700448 0.190112,0.04481 0.8737465,0.03728 1.2110649,-0.01333 z M 2.4146572,11.728344 c 0.030405,-0.0079 0.072593,-0.0074 0.09375,0.0012 0.021157,0.0086 -0.00372,0.01504 -0.055282,0.01441 -0.051563,-6.83e-4 -0.068873,-0.0076 -0.038468,-0.01556 z m 11.0937498,0 c 0.03041,-0.0079 0.07259,-0.0074 0.09375,0.0012 0.02116,0.0086 -0.0037,0.01504 -0.05528,0.01441 -0.05156,-6.83e-4 -0.06887,-0.0076 -0.03847,-0.01556 z M 2.7128906,11.697402 c 0.022559,-0.009 0.049512,-0.0079 0.059896,0.0025 0.010384,0.01038 -0.00807,0.01777 -0.041016,0.01641 -0.036404,-0.0015 -0.043809,-0.0089 -0.01888,-0.01888 z m 10.5312504,0 c 0.02256,-0.009 0.04951,-0.0079 0.05989,0.0025 0.01038,0.01038 -0.0081,0.01777 -0.04101,0.01641 -0.03641,-0.0015 -0.04381,-0.0089 -0.01888,-0.01888 z M 5.8125,10.331951 c 0,-0.0065 0.024609,-0.0311 0.054687,-0.05469 0.049564,-0.03887 0.05067,-0.03777 0.011799,0.0118 -0.040824,0.05205 -0.066486,0.06861 -0.066486,0.04289 z M 2.1488019,10.227898 c 0.038872,-0.0075 0.095122,-0.0072 0.125,5.86e-4 0.029878,0.0078 -0.00193,0.01394 -0.070677,0.01359 -0.06875,-3.9e-4 -0.093195,-0.0067 -0.054323,-0.01422 z m 11.5937501,0 c 0.03887,-0.0075 0.09512,-0.0072 0.125,5.86e-4 0.02988,0.0078 -0.0019,0.01394 -0.07068,0.01359 -0.06875,-3.9e-4 -0.09319,-0.0067 -0.05432,-0.01422 z m -11.2171614,-0.0305 c 0.022559,-0.009 0.049512,-0.0079 0.059896,0.0025 0.010384,0.01038 -0.00807,0.01777 -0.041016,0.01641 -0.036404,-0.0015 -0.043809,-0.0089 -0.01888,-0.01888 z M 6.0625,10.109375 c 0.040367,-0.04297 0.080426,-0.07813 0.08902,-0.07813 0.00859,0 -0.017402,0.03516 -0.05777,0.07813 -0.040367,0.04297 -0.080426,0.07813 -0.08902,0.07813 -0.00859,0 0.017402,-0.03516 0.05777,-0.07813 z m 3.8413848,-0.0078 -0.07576,-0.08594 0.085937,0.07576 c 0.080321,0.07081 0.1002682,0.09611 0.07576,0.09611 -0.0056,0 -0.04427,-0.03867 -0.085937,-0.08594 z m 3.3402562,0.06459 c 0.02256,-0.009 0.04951,-0.0079 0.05989,0.0025 0.01038,0.01038 -0.0081,0.01777 -0.04101,0.01641 -0.03641,-0.0015 -0.04381,-0.0089 -0.01888,-0.01888 z M 6.6875,9.484375 C 6.727867,9.441406 6.767926,9.40625 6.77652,9.40625 6.78511,9.40625 6.759118,9.441406 6.71875,9.484375 6.678383,9.527344 6.638324,9.5625 6.62973,9.5625 6.62114,9.5625 6.647132,9.527344 6.6875,9.484375 Z m 2.5913847,-0.00781 -0.07576,-0.085937 0.085937,0.07576 c 0.080322,0.070809 0.1002685,0.096115 0.07576,0.096115 -0.0056,0 -0.044269,-0.038672 -0.085937,-0.085937 z M 6.890625,9.25 C 6.921734,9.215625 6.954218,9.1875 6.962812,9.1875 6.971402,9.1875 6.952982,9.215625 6.921875,9.25 6.890766,9.284375 6.858282,9.3125 6.849688,9.3125 6.841098,9.3125 6.859518,9.284375 6.890625,9.25 Z M 9.075156,9.24219 9.015625,9.171878 9.085937,9.231409 c 0.066076,0.055944 0.084539,0.081094 0.059531,0.081094 -0.00593,0 -0.037571,-0.031641 -0.070312,-0.070313 z M 4.875,9.1444513 c 0,-0.00649 0.024609,-0.031099 0.054687,-0.054687 0.049564,-0.038871 0.05067,-0.037766 0.011799,0.011799 C 4.9006622,9.1536172 4.875,9.1701713 4.875,9.1444513 Z m 6.152264,-0.074139 c -0.03887,-0.049564 -0.03777,-0.05067 0.0118,-0.011799 0.05205,0.040824 0.06861,0.066486 0.04289,0.066486 -0.0065,0 -0.0311,-0.024609 -0.05469,-0.054687 z M 5.328125,8.71875 c 0.1366935,-0.1375 0.255565,-0.25 0.2641588,-0.25 0.00859,0 -0.096215,0.1125 -0.2329088,0.25 -0.1366935,0.1375 -0.255565,0.25 -0.2641588,0.25 -0.00859,0 0.096215,-0.1125 0.2329088,-0.25 z m 5.311767,-0.00781 -0.249267,-0.2578125 0.257813,0.2492669 c 0.239448,0.2315115 0.272058,0.2663581 0.249266,0.2663581 -0.0047,0 -0.120716,-0.1160156 -0.257812,-0.2578125 z M 5.703125,8.3125 C 5.7342341,8.278125 5.7667182,8.25 5.7753119,8.25 c 0.00859,0 -0.00983,0.028125 -0.040937,0.0625 -0.031109,0.034375 -0.063593,0.0625 -0.072187,0.0625 -0.00859,0 0.00983,-0.028125 0.040937,-0.0625 z m 4.559531,-0.00781 -0.05953,-0.070312 0.07031,0.059531 c 0.06608,0.055944 0.08454,0.081094 0.05953,0.081094 -0.0059,0 -0.03757,-0.031641 -0.07031,-0.070312 z M 7.1274672,5.2005209 c 0.0015,-0.036405 0.0089,-0.043809 0.01888,-0.01888 0.00903,0.022558 0.00792,0.049512 -0.00247,0.059896 -0.010384,0.010384 -0.01777,-0.00807 -0.016413,-0.041016 z m 1.71875,0 c 0.0015,-0.036405 0.0089,-0.043809 0.01888,-0.01888 0.00903,0.022558 0.00792,0.049512 -0.00247,0.059896 -0.010384,0.010384 -0.01777,-0.00807 -0.016413,-0.041016 z M 7.1924341,4.75 c 0,-0.042969 0.00709,-0.060547 0.015762,-0.039063 0.00867,0.021484 0.00867,0.056641 0,0.078125 C 7.1995261,4.810546 7.1924341,4.792972 7.1924341,4.75 Z m 1.59375,0 c 0,-0.042969 0.00709,-0.060547 0.015762,-0.039063 0.00867,0.021484 0.00867,0.056641 0,0.078125 C 8.7932761,4.810546 8.7861841,4.792972 8.7861841,4.75 Z M 7.2284334,4.265625 c 1.855e-4,-0.103125 0.00601,-0.141545 0.012964,-0.085378 0.00696,0.056167 0.00681,0.1405422 -3.223e-4,0.1875 -0.00713,0.046958 -0.012821,0.001 -0.012646,-0.1021222 z m 1.53125,0 c 1.855e-4,-0.103125 0.00601,-0.141545 0.012965,-0.085378 0.00695,0.056167 0.00681,0.1405422 -3.223e-4,0.1875 -0.00713,0.046958 -0.012821,0.001 -0.012646,-0.1021222 z"
       id="path823"
       inkscape:connector-curvature="0" />
    <path
       style="fill:#f0f7fe;stroke-width:0.000357143"
       d="M 1.859375,11.720779 C 1.2881562,11.581717 1.1025583,10.863058 1.5389181,10.479928 1.7061144,10.333128 1.9196685,10.269178 2.4084753,10.219533 3.8573057,10.072387 5.3208266,9.0744313 6.226224,7.61626 6.8245,6.6527178 7.166624,5.5624469 7.2335162,4.40625 7.2601315,3.9462229 7.32606,3.7141644 7.4799281,3.5389182 7.7470084,3.2347303 8.208444,3.2154075 8.5106744,3.495755 8.6806481,3.6534219 8.7219919,3.7838231 8.7536675,4.2621719 8.8548187,5.7897047 9.26581,6.9705875 10.072994,8.0529338 c 0.911606,1.2223641 2.208756,2.0235242 3.505131,2.1648772 0.584159,0.0637 0.798481,0.131474 0.95737,0.302764 0.13817,0.148955 0.194077,0.291563 0.194077,0.49505 0,0.283938 -0.139217,0.509799 -0.401447,0.6513 -0.110222,0.05947 -0.171182,0.06707 -0.515625,0.06422 C 12.270633,11.718382 10.545772,10.868246 9.3490859,9.53125 8.8679213,8.9936697 8.3902516,8.2942854 8.1058375,7.7109375 8.0576534,7.6121094 8.0100266,7.53125 8,7.53125 7.989973,7.53125 7.942347,7.612109 7.8941625,7.7109375 7.8459785,7.8097655 7.7102872,8.0537378 7.5926269,8.2530975 6.4439609,10.19936 4.5572521,11.496782 2.5559191,11.71666 2.2183686,11.75375 2.0000921,11.75504 1.859375,11.72076 Z"
       id="path821"
       inkscape:connector-curvature="0" />
    <path
       style="fill:#000000;stroke-width:0.000357143"
       d="M 1.7108101,12.216073 C 1.3859134,12.1395 1.0373894,11.844065 0.88449456,11.515625 c -0.0772273,-0.165896 -0.0872847,-0.223508 -0.0872847,-0.5 0,-0.276492 0.0100574,-0.334104 0.0872847,-0.5 C 0.9817626,10.30668 1.2365125,10.026294 1.4113219,9.9357832 1.6543523,9.8099492 1.9475248,9.71875 2.1090021,9.71875 2.3482028,9.71875 2.7880082,9.635352 3.0999538,9.5308403 3.8364947,9.2840766 4.6718193,8.7187063 5.1887394,8.1170938 6.1119372,7.0426381 6.6514428,5.6918472 6.7082935,4.3125 6.7249203,3.9090822 6.7310297,3.8782466 6.8479312,3.6076885 6.995374,3.2664459 7.2217756,3.021216 7.515625,2.884467 c 0.1658725,-0.077192 0.2235456,-0.087257 0.5,-0.087257 0.2764919,0 0.3341047,0.010057 0.5,0.087285 0.103125,0.048007 0.2624675,0.1604313 0.3540943,0.2498326 0.2944489,0.2872966 0.3984713,0.5839679 0.4240617,1.2094229 0.055135,1.3475453 0.599553,2.7006378 1.518209,3.7733438 0.513884,0.6000565 1.350921,1.1667833 2.088056,1.4137465 0.309426,0.1036672 0.750793,0.187806 0.98686,0.1881275 0.16331,2.148e-4 0.513657,0.1033398 0.728084,0.2142959 0.179238,0.092747 0.433433,0.3711288 0.531765,0.5823618 0.07732,0.166099 0.08725,0.223169 0.087,0.5 -2.93e-4,0.275902 -0.01055,0.334823 -0.08793,0.503115 -0.113149,0.246076 -0.380766,0.512319 -0.630203,0.626963 -0.167973,0.0772 -0.230783,0.0875 -0.603103,0.0989 -0.228582,0.007 -0.549604,-0.0041 -0.713382,-0.02476 C 12.117775,12.083735 10.951691,11.587919 10.005904,10.862091 9.362765,10.368523 8.6826753,9.6483432 8.2412354,8.9933956 8.1171497,8.8092943 8.0085937,8.6586662 8,8.6586662 c -0.00859,0 -0.1171497,0.1506281 -0.2412354,0.3347294 C 7.3173247,9.6483432 6.637235,10.368523 5.9940953,10.862091 5.0692766,11.571827 3.9911031,12.04232 2.921875,12.202745 c -0.3373184,0.05061 -1.0209529,0.05813 -1.2110649,0.01333 z M 2.765625,11.704063 C 3.1182608,11.65352 3.5592935,11.544169 3.9063984,11.421219 4.5297247,11.200427 5.3627594,10.719493 5.9005013,10.26997 6.1986729,10.020714 6.771675,9.4338019 7.0092287,9.1343278 7.2584784,8.8201084 7.6426966,8.2249547 7.828125,7.8658568 7.9140625,7.6994318 7.9914062,7.5632981 8,7.5633378 c 0.00859,3.12e-5 0.085937,0.1353844 0.171875,0.3007666 0.1852281,0.3564612 0.5034028,0.8538196 0.7731396,1.2085419 0.2493463,0.3279068 0.8740977,0.9709507 1.1956104,1.2306167 0.57839,0.467129 1.356621,0.909483 1.985507,1.128579 0.860114,0.299653 1.864703,0.40529 2.202549,0.231607 0.461767,-0.237388 0.546155,-0.847678 0.163651,-1.183521 -0.05781,-0.05075 -0.146524,-0.107411 -0.197153,-0.125907 -0.23026,-0.08412 -0.453329,-0.135271 -0.589892,-0.135271 -0.192356,0 -0.708888,-0.10567 -1.00902,-0.206421 C 11.983568,9.773084 11.356857,9.3792247 10.738688,8.78208 10.088169,8.153685 9.5943935,7.4114172 9.2406416,6.5301419 8.9758588,5.8705094 8.7831635,4.9624775 8.7801521,4.3601947 8.7789053,4.1109878 8.721475,3.8104443 8.6486203,3.671875 8.4215763,3.2400391 7.8040325,3.1697838 7.4799281,3.5389182 7.4291747,3.5967231 7.3726763,3.6854422 7.354376,3.7360716 7.2458443,4.0363331 7.2184565,4.1634175 7.2185953,4.3661131 7.2189172,4.8359047 7.0707778,5.6314675 6.8736206,6.21875 6.4152631,7.5840854 5.4727975,8.8077481 4.328125,9.5237291 3.7362831,9.8939199 2.9566898,10.168889 2.390625,10.207101 c -0.226808,0.01531 -0.39277,0.05265 -0.6545534,0.147275 -0.2529339,0.09142 -0.4341379,0.367323 -0.4342939,0.661249 -1.855e-4,0.343331 0.2211622,0.623249 0.5575973,0.705154 0.1572013,0.03827 0.5765953,0.03053 0.90625,-0.01672 z"
       id="path819"
       inkscape:connector-curvature="0" />
  </g>
</svg>
