<?xml version="1.0" encoding="UTF-8" standalone="no"?>
<!-- Created with Inkscape (http://www.inkscape.org/) -->

<svg
   version="1.1"
   id="svg2"
   width="1600"
   height="1600"
   viewBox="0 0 1600 1600"
   sodipodi:docname="similar.svg"
   inkscape:version="1.2.2 (732a01da63, 2022-12-09)"
   xmlns:inkscape="http://www.inkscape.org/namespaces/inkscape"
   xmlns:sodipodi="http://sodipodi.sourceforge.net/DTD/sodipodi-0.dtd"
   xmlns="http://www.w3.org/2000/svg"
   xmlns:svg="http://www.w3.org/2000/svg">
  <defs
     id="defs6" />
  <sodipodi:namedview
     id="namedview4"
     pagecolor="#808080"
     bordercolor="#000000"
     borderopacity="0.25"
     inkscape:showpageshadow="2"
     inkscape:pageopacity="0"
     inkscape:pagecheckerboard="true"
     inkscape:deskcolor="#d1d1d1"
     showgrid="false"
     inkscape:zoom="0.5"
     inkscape:cx="593"
     inkscape:cy="618"
     inkscape:window-width="1993"
     inkscape:window-height="1009"
     inkscape:window-x="-8"
     inkscape:window-y="-8"
     inkscape:window-maximized="1"
     inkscape:current-layer="svg2" />
  <g
     id="SIMILAR"
     style="stroke-width:0.0114286"
     transform="matrix(100,0,0,100,0,4.9999997e-5)">
    <path
       style="fill:none;stroke-width:0.000357143"
       d="M 8,16 H 0 V 8 0 h 8 8 v 8 8 z m -3.03125,-2.502904 0.453125,0.0027 0.28125,-0.04859 0.28125,-0.04859 0.3741166,-0.12443 0.3741162,-0.12443 0.2821338,-0.148649 0.2821334,-0.148648 0.2666306,-0.175724 0.2666307,-0.175724 0.2226703,-0.214434 0.22267,-0.214434 0.088824,-0.04481 0.088824,-0.04481 0.34375,-0.330043 0.34375,-0.330041 0.2168609,-0.161043 0.2168613,-0.161042 0.2328241,-0.133212 0.2328251,-0.133212 0.249629,-0.08834 0.24963,-0.08834 0.230373,-0.02468 L 11,10.511903 l 0.230373,0.02468 0.230372,0.02468 0.24963,0.08834 0.249629,0.08834 0.232825,0.133212 0.232824,0.133212 0.21649,0.161878 0.21649,0.161879 0.213338,0.201012 0.213337,0.201012 0.724534,-0.726021 0.724533,-0.72602 -0.203125,-0.186662 -0.203125,-0.1866609 -0.25,-0.2045472 -0.25,-0.2045475 L 13.574028,9.3255597 13.319931,9.15543 13.026269,9.0008322 12.732608,8.8462347 12.358492,8.7213391 11.984375,8.5964447 11.706844,8.5482225 11.429313,8.5 l -0.425594,9.38e-5 -0.425594,9.37e-5 -0.28125,0.048588 -0.28125,0.048588 L 9.646255,8.7202067 9.276885,8.8430498 9.00563,8.983481 8.734375,9.123912 8.461195,9.3041376 8.1880147,9.4843629 l -0.3039747,0.25 -0.303975,0.25 L 7.21972,10.328565 6.859375,10.672767 6.6425141,10.834193 6.4256528,10.99562 6.1928288,11.128832 5.9600044,11.262044 5.7103747,11.350381 5.460745,11.438717 5.2303725,11.4634 5,11.488083 4.7696275,11.4634 4.539255,11.438717 4.2896253,11.350381 4.0399956,11.262044 3.8071713,11.128832 3.5743472,10.99562 3.3578569,10.833742 3.1413666,10.671875 2.9280291,10.470863 2.7146918,10.269851 l -0.7245334,0.726021 -0.7245334,0.72602 0.203125,0.186661 0.203125,0.186662 0.25,0.204547 0.25,0.204547 0.2540972,0.17013 0.2540971,0.17013 0.2936615,0.154598 0.2936614,0.154597 0.3748312,0.125323 0.3748316,0.125324 0.249285,0.04499 0.249285,0.04499 0.453125,0.0027 z m 0,-6.0000001 0.453125,0.0027 0.28125,-0.048588 0.28125,-0.048588 0.3741166,-0.12443 L 6.7326078,7.1537628 7.0147416,7.0051144 7.296875,6.8564662 7.5635056,6.6807419 7.8301363,6.5050178 8.0528066,6.2905837 8.2754766,6.07615 8.3643006,6.0313428 8.453125,5.9865356 8.796875,5.6564934 9.140625,5.3264516 9.3574859,5.1654091 9.5743472,5.0043666 9.8071713,4.8711547 10.039996,4.7379428 10.289625,4.6496059 10.539255,4.5612691 10.769628,4.5365862 11,4.5119034 l 0.230373,0.024683 0.230372,0.024683 0.24963,0.088337 0.249629,0.088337 0.232825,0.1332119 0.232824,0.1332119 0.21649,0.1618784 0.21649,0.1618787 0.213338,0.2010119 0.213337,0.2010119 0.724534,-0.7260206 0.724533,-0.7260203 -0.203125,-0.1866613 -0.203125,-0.1866612 -0.25,-0.2045472 -0.25,-0.2045475 L 13.574028,3.3255597 13.319931,3.15543 13.026269,3.0008322 12.732608,2.8462347 12.358492,2.7213403 11.984375,2.5964448 11.706844,2.5482224 11.429313,2.5 l -0.425594,1e-4 -0.425594,10e-5 -0.28125,0.048588 -0.28125,0.048588 L 9.646255,2.7202191 9.276885,2.8430623 9.00563,2.9834934 8.734375,3.1239245 8.461195,3.30415 8.1880147,3.4843753 l -0.3039747,0.25 -0.303975,0.25 L 7.21972,4.3285775 6.859375,4.6727794 6.6425141,4.8342059 6.4256528,4.9956325 6.1928288,5.1288444 5.9600044,5.2620563 5.7103747,5.3503931 5.460745,5.43873 5.2303725,5.4634128 5,5.4880956 4.7696275,5.4634128 4.539255,5.43873 4.2896253,5.3503931 4.0399956,5.2620563 3.8071713,5.1288444 3.5743472,4.9956325 3.3578569,4.8337541 3.1413666,4.671875 2.9280291,4.4708631 2.7146918,4.2698513 1.9901584,4.9958719 1.265625,5.7218922 1.46875,5.9085534 l 0.203125,0.1866613 0.25,0.2045472 0.25,0.2045475 0.2540972,0.1701297 0.2540971,0.1701297 0.2936615,0.1545978 0.2936614,0.1545975 0.3748312,0.1253234 0.3748316,0.1253234 0.249285,0.04499 0.249285,0.04499 0.453125,0.0027 z"
       id="path174" />
    <path
       style="fill:#fefecb;stroke-width:0.000357143"
       d="M 4.96875,13.497096 4.515625,13.494393 4.26634,13.449403 4.017055,13.404412 3.6422234,13.279089 3.2673922,13.153765 2.9737307,12.999168 2.6800693,12.84457 2.4259722,12.67444 2.171875,12.504311 l -0.25,-0.204548 -0.25,-0.204547 -0.203125,-0.186661 -0.203125,-0.186662 0.7245334,-0.72602 0.7245334,-0.72602 0.2133373,0.201011 0.2133375,0.201012 0.2164903,0.161879 0.2164903,0.161878 0.232824,0.133212 0.2328244,0.133212 0.2496297,0.08834 0.2496297,0.08834 0.2303725,0.02468 L 5,11.488097 5.2303725,11.463414 5.460745,11.438731 5.7103747,11.350394 5.9600044,11.262057 6.1928287,11.128845 6.4256528,10.995633 6.6425141,10.834207 6.859375,10.67278 7.21972,10.328578 7.580065,9.9843763 l 0.303975,-0.25 0.3039747,-0.25 L 8.461195,9.3041509 8.734375,9.1239253 9.00563,8.9834944 9.276885,8.8430631 9.646255,8.72022 l 0.36937,-0.1228431 0.28125,-0.048588 0.28125,-0.048588 0.425594,-9.37e-5 0.425594,-9.38e-5 0.277531,0.048222 0.277531,0.048222 0.374117,0.1248957 0.374116,0.1248956 0.293661,0.1545975 0.293662,0.1545978 0.254097,0.1701297 0.254097,0.1701297 0.25,0.2045475 0.25,0.2045472 0.203125,0.1866609 0.203125,0.186661 -0.724533,0.726021 -0.724534,0.72602 -0.213337,-0.201012 -0.213338,-0.201012 -0.21649,-0.161878 -0.21649,-0.161879 -0.232824,-0.133212 -0.232825,-0.133211 -0.249629,-0.08834 -0.24963,-0.08834 -0.230373,-0.02468 L 11,10.511918 l -0.230373,0.02468 -0.230372,0.02468 -0.24963,0.08834 -0.249629,0.08834 -0.2328248,0.133211 -0.232824,0.133212 -0.2168613,0.161043 -0.2168609,0.161042 -0.34375,0.330042 -0.34375,0.330042 -0.088824,0.04481 -0.088824,0.04481 -0.22267,0.214433 -0.2226704,0.214435 -0.2666306,0.175724 -0.2666306,0.175724 -0.2821334,0.148648 -0.2821338,0.148649 -0.3741162,0.12443 -0.3741166,0.12443 -0.28125,0.04859 -0.28125,0.04859 -0.453125,-0.0027 z m 0,-6.0000001 -0.453125,-0.0027 L 4.26634,7.4494025 4.017055,7.4044122 3.6422234,7.2790887 3.2673922,7.1537653 2.9737307,6.9991678 2.6800693,6.84457 2.4259722,6.6744403 2.171875,6.5043106 1.921875,6.2997631 1.671875,6.0952159 1.46875,5.9085547 1.265625,5.7218934 1.9901584,4.9958731 2.7146918,4.2698525 2.9280291,4.4708644 3.1413666,4.6718762 3.3578569,4.833755 3.5743472,4.9956334 3.8071712,5.1288453 4.0399956,5.2620572 4.2896253,5.3503941 4.539255,5.4387309 4.7696275,5.4634137 5,5.4880966 5.2303725,5.4634137 5.460745,5.4387309 5.7103747,5.3503941 5.9600044,5.2620572 6.1928287,5.1288453 6.4256528,4.9956334 6.6425141,4.8342069 6.859375,4.6727803 7.21972,4.3285784 7.580065,3.9843762 l 0.303975,-0.25 0.3039747,-0.25 L 8.461195,3.3041509 8.734375,3.1239254 9.00563,2.9834943 9.276885,2.8430632 l 0.36937,-0.1228444 0.36937,-0.1228433 0.28125,-0.048588 0.28125,-0.048588 0.425594,-10e-5 0.425594,-1e-4 0.277531,0.048222 0.277531,0.048222 0.374117,0.1248955 0.374116,0.1248956 0.293661,0.1545976 0.293662,0.1545977 0.254097,0.1701297 0.254097,0.1701297 0.25,0.2045475 0.25,0.2045472 0.203125,0.1866612 0.203125,0.1866613 L 14.009842,5.0041278 13.285308,5.7301484 13.071971,5.5291366 12.858633,5.3281247 12.642143,5.1662459 12.425653,5.0043675 12.192829,4.8711556 11.960004,4.7379438 11.710375,4.6496069 11.460745,4.56127 11.230372,4.5365872 11,4.5119044 10.769627,4.5365872 10.539255,4.56127 10.289625,4.6496069 10.039996,4.7379438 9.8071712,4.8711556 9.5743472,5.0043675 9.3574859,5.16541 9.140625,5.3264525 8.796875,5.6564944 8.453125,5.9865366 8.3643006,6.0313438 8.2754766,6.0761509 8.0528066,6.2905847 7.8301362,6.5050188 7.5635056,6.6807428 7.296875,6.8564672 7.0147416,7.0051153 6.7326078,7.1537638 6.3584916,7.2781941 5.984375,7.4026241 5.703125,7.4512122 5.421875,7.4998 Z"
       id="path172" />
  </g>
</svg>
