<?xml version="1.0" encoding="UTF-8" standalone="no"?>
<!-- Created with Inkscape (http://www.inkscape.org/) -->

<svg
   version="1.1"
   id="svg2"
   width="1600"
   height="1600"
   viewBox="0 0 1600 1600"
   sodipodi:docname="simplify_sample.svg"
   inkscape:version="1.2.2 (732a01da63, 2022-12-09)"
   xmlns:inkscape="http://www.inkscape.org/namespaces/inkscape"
   xmlns:sodipodi="http://sodipodi.sourceforge.net/DTD/sodipodi-0.dtd"
   xmlns="http://www.w3.org/2000/svg"
   xmlns:svg="http://www.w3.org/2000/svg"
   xmlns:rdf="http://www.w3.org/1999/02/22-rdf-syntax-ns#"
   xmlns:cc="http://creativecommons.org/ns#"
   xmlns:dc="http://purl.org/dc/elements/1.1/">
  <metadata
     id="metadata8">
    <rdf:RDF>
      <cc:Work
         rdf:about="">
        <dc:format>image/svg+xml</dc:format>
        <dc:type
           rdf:resource="http://purl.org/dc/dcmitype/StillImage" />
      </cc:Work>
    </rdf:RDF>
  </metadata>
  <defs
     id="defs6" />
  <sodipodi:namedview
     pagecolor="#808080"
     bordercolor="#666666"
     borderopacity="1"
     objecttolerance="10"
     gridtolerance="10"
     guidetolerance="10"
     inkscape:pageopacity="0"
     inkscape:pageshadow="2"
     inkscape:window-width="1993"
     inkscape:window-height="1009"
     id="namedview4"
     showgrid="false"
     inkscape:zoom="0.5"
     inkscape:cx="9"
     inkscape:cy="8"
     inkscape:window-x="-8"
     inkscape:window-y="-8"
     inkscape:window-maximized="1"
     inkscape:current-layer="SIMPLIFY_SAMPLE"
     inkscape:showpageshadow="0"
     inkscape:pagecheckerboard="true"
     inkscape:deskcolor="#d1d1d1" />
  <g
     id="SIMPLIFY_SAMPLE"
     transform="matrix(100,0,0,100,0,4.9999997e-5)"
     style="stroke-width:0.0114286">
    <path
       style="fill:none;stroke-width:0.000357143"
       d="M 0,8 V 0 h 8 8 v 8 8 H 8 0 Z m 3.4964363,6.952035 c 0.3216081,-0.07581 0.6747328,-0.278063 0.9304618,-0.532921 0.1784597,-0.177852 0.2522816,-0.282417 0.3645557,-0.516375 0.1678521,-0.349772 0.2087087,-0.52888 0.2080581,-0.91209 -5.563e-4,-0.328314 -0.045645,-0.550291 -0.1663097,-0.818774 l -0.084268,-0.1875 3.6177203,-3.6177203 3.6177205,-3.6177203 0.1875,0.084268 C 12.442582,4.9548659 12.663057,4.99902 13,4.99905 13.377219,4.9990813 13.630523,4.9389316 13.949561,4.7735591 14.322232,4.5803862 14.608213,4.2845788 14.791454,3.9027388 14.95816,3.5553553 15,3.3742406 15,3 15,2.6257595 14.95816,2.4446448 14.791454,2.0972612 14.67918,1.8633028 14.605358,1.7587381 14.426898,1.5808862 14.035209,1.190531 13.573223,1.0013678 13.009351,1.0004619 c -0.383243,-6.1562e-4 -0.562343,0.040244 -0.91209,0.2080842 -0.410659,0.1970711 -0.691644,0.4780562 -0.888715,0.8887151 -0.167852,0.349772 -0.208708,0.5288796 -0.208058,0.9120895 5.56e-4,0.328314 0.04564,0.5502909 0.16631,0.8187743 l 0.08427,0.1875 L 7.6333453,7.6335081 4.015625,11.251391 3.8125,11.159767 C 3.5483569,11.04062 3.3417831,11 3,11 2.6257595,11 2.4446448,11.04184 2.0972612,11.208546 1.6866023,11.405617 1.4056172,11.686602 1.2085461,12.097261 1.0418402,12.444645 1,12.625759 1,13 c 0,0.374241 0.04184,0.555355 0.2085461,0.902739 0.190091,0.396113 0.4750486,0.686608 0.8612359,0.877972 0.1481028,0.07339 0.3441612,0.151554 0.4356854,0.173703 0.2305123,0.05578 0.7495123,0.05454 0.9909689,-0.0024 z M 2.6988972,13.936522 C 2.5301654,13.884511 2.3009831,13.709272 2.1957373,13.551792 2.0623799,13.352248 2.0212831,13.187637 2.0384717,12.921875 2.0620116,12.55791 2.2401903,12.290993 2.5694436,12.126463 2.732169,12.045149 2.7950188,12.03125 3,12.03125 c 0.2049813,0 0.2678309,0.0139 0.4305563,0.09521 0.2051946,0.102537 0.3403084,0.235481 0.4519781,0.444718 0.095432,0.178813 0.1024428,0.666222 0.012011,0.835069 -0.1059659,0.197853 -0.2597993,0.359762 -0.4296518,0.452208 -0.1385753,0.07542 -0.2101669,0.0925 -0.417632,0.09964 -0.1377129,0.0047 -0.2944771,-0.005 -0.3483649,-0.02158 z M 12.698897,3.9365219 c -0.168732,-0.052011 -0.397914,-0.22725 -0.50316,-0.38473 C 12.06238,3.3522481 12.021283,3.1876375 12.038472,2.921875 12.062012,2.5579103 12.24019,2.2909933 12.569444,2.1264635 12.732169,2.0451486 12.795019,2.03125 13,2.03125 c 0.204981,0 0.267831,0.013899 0.430556,0.095213 0.205195,0.1025369 0.340309,0.2354805 0.451978,0.4447179 0.09543,0.1788129 0.102443,0.6662211 0.01201,0.8350686 C 13.788578,3.6041023 13.634745,3.7660117 13.464892,3.858457 13.326317,3.933879 13.254725,3.950961 13.04726,3.958103 12.909547,3.962843 12.752783,3.953133 12.698895,3.936521 Z M 8.4964363,14.952035 C 8.8180444,14.876224 9.1711691,14.673972 9.4268981,14.419114 9.6053578,14.241262 9.6791797,14.136697 9.7914538,13.902739 9.9581597,13.555355 10,13.374241 10,13 10,12.662084 9.9588328,12.454755 9.8388931,12.188626 l -0.091037,-0.201999 1.1193849,-1.119386 1.119386,-1.1193851 0.201999,0.091037 c 0.268299,0.1209178 0.474108,0.1612021 0.820725,0.160645 0.563872,-9.062e-4 1.025858,-0.190069 1.417547,-0.5804244 C 14.605358,9.2412617 14.67918,9.136697 14.791454,8.9027385 14.95816,8.5553553 15,8.3742406 15,8 15,7.6257594 14.95816,7.4446447 14.791454,7.0972612 14.67918,6.8633028 14.605358,6.7587381 14.426898,6.5808862 14.035209,6.1905309 13.573223,6.0013678 13.009351,6.0004619 12.626108,5.9998462 12.447008,6.0407059 12.097261,6.2085463 11.686602,6.4056172 11.405617,6.6866022 11.208546,7.0972613 11.04184,7.4446447 11,7.6257594 11,8 c 0,0.3379162 0.04117,0.545245 0.161107,0.8113741 l 0.09104,0.201999 -1.121272,1.1212719 -1.1212723,1.121273 -0.1604513,-0.08131 C 8.6209272,11.058962 8.3413937,11.000995 8.0093506,11.000462 7.6261078,10.999846 7.4470081,11.040706 7.0972612,11.208546 6.6866022,11.405617 6.4056172,11.686602 6.2085462,12.097261 6.0418403,12.444645 6,12.625759 6,13 c 0,0.374241 0.04184,0.555355 0.2085463,0.902739 0.1900909,0.396113 0.4750484,0.686608 0.8612359,0.877972 0.1481025,0.07339 0.3441609,0.151554 0.4356853,0.173703 0.2305122,0.05578 0.7495122,0.05454 0.9909688,-0.0024 z M 7.6988972,13.936522 C 7.5301653,13.884511 7.3009831,13.709272 7.1957372,13.551792 7.06238,13.352248 7.0212831,13.187638 7.0384716,12.921875 7.0620116,12.55791 7.2401903,12.290993 7.5694437,12.126463 7.7321691,12.045149 7.7950187,12.03125 8,12.03125 c 0.2049813,0 0.2678309,0.0139 0.4305563,0.09521 0.2051946,0.102537 0.3403084,0.235481 0.4519781,0.444718 0.095432,0.178813 0.1024428,0.666222 0.012011,0.835069 -0.1059659,0.197853 -0.2597993,0.359762 -0.4296518,0.452208 -0.1385753,0.07542 -0.2101669,0.0925 -0.4176319,0.09964 -0.1377131,0.0047 -0.2944772,-0.005 -0.348365,-0.02158 z M 12.698897,8.9365219 c -0.168732,-0.052011 -0.397914,-0.22725 -0.50316,-0.38473 C 12.06238,8.3522481 12.021283,8.1876375 12.038472,7.921875 12.062012,7.5579103 12.24019,7.2909934 12.569444,7.1264634 12.732169,7.0451487 12.795019,7.03125 13,7.03125 c 0.204981,0 0.267831,0.013899 0.430556,0.095213 0.205195,0.1025369 0.340309,0.2354807 0.451978,0.4447179 0.09543,0.1788131 0.102443,0.6662212 0.01201,0.8350687 -0.105966,0.1978528 -0.259799,0.3597622 -0.429652,0.4522075 -0.138575,0.075422 -0.210167,0.092504 -0.417632,0.099646 -0.137713,0.00474 -0.294477,-0.00497 -0.348365,-0.021581 z M 2.7737231,9.1876688 C 2.8297396,9.153515 2.9035152,9.0797397 2.9376688,9.0237231 2.997887,8.9249575 2.9997699,8.8625272 2.9998832,6.9609375 L 3,5 3.1484375,4.9995375 C 3.5696553,4.9982281 4.0768687,4.7679506 4.4268981,4.4191131 4.7645387,4.0826234 5,3.5567188 5,3.1390869 V 3 l 1.9609375,-1.156e-4 c 1.9015897,-1.125e-4 1.96402,-0.002 2.0627856,-0.062214 0.1524903,-0.092974 0.2260432,-0.235389 0.2260432,-0.4376688 0,-0.2022799 -0.073553,-0.3446944 -0.2260432,-0.4376688 C 8.9247925,2.0020137 8.8622688,2.0002315 6.8411319,2.000118 L 4.7603887,2 4.6404225,1.8258144 C 4.3947225,1.4690689 3.9234366,1.1486199 3.4964363,1.0479653 3.2622669,0.99276578 2.7916394,0.98571625 2.5562257,1.0338819 2.4651453,1.0525169 2.2586113,1.1311158 2.0972612,1.2085461 1.6866023,1.4056172 1.4056172,1.6866023 1.2085461,2.0972612 1.0418402,2.4446448 1,2.6257595 1,3 1,3.3721306 1.041934,3.5557944 1.2033469,3.890625 1.3567349,4.2088091 1.5671646,4.4622834 1.8258144,4.6404225 L 2,4.7603887 2.0001156,6.8411319 c 1.125e-4,2.0211369 0.0019,2.0836606 0.062214,2.1825912 0.092974,0.1524903 0.235389,0.2260432 0.4376688,0.2260432 0.116501,0 0.204688,-0.020006 0.2737231,-0.062097 z M 2.6988972,3.9365219 C 2.5301654,3.8845113 2.3009831,3.7092719 2.1957373,3.5517919 2.0623799,3.3522481 2.0212831,3.1876375 2.0384717,2.921875 2.0620116,2.5579103 2.2401903,2.2909933 2.5694436,2.1264635 2.732169,2.0451486 2.7950188,2.03125 3,2.03125 c 0.2049813,0 0.2678309,0.013899 0.4305563,0.095213 C 3.6357509,2.2290004 3.7708647,2.361944 3.8825344,2.5711814 3.9779663,2.7499943 3.9849772,3.2374025 3.8945459,3.40625 3.78858,3.6041028 3.6347466,3.7660122 3.4648941,3.8584575 3.3263188,3.9338797 3.2547272,3.9509613 3.0472621,3.9581034 2.9095492,3.9628444 2.752785,3.9531325 2.6988972,3.9365219 Z"
       id="path823"
       inkscape:connector-curvature="0" />
    <path
       style="fill:#cbe5fe;stroke-width:0.000357143"
       d="M 2.5054674,14.954414 C 2.4139432,14.932265 2.2178848,14.854099 2.069782,14.780711 1.6835947,14.589348 1.3986371,14.298853 1.2085461,13.902739 1.0418402,13.555355 1,13.374241 1,13 1,12.625759 1.0418402,12.444645 1.2085461,12.097261 1.4056172,11.686602 1.6866023,11.405617 2.0972612,11.208546 2.4446448,11.04184 2.6257595,11 3,11 c 0.3417831,0 0.5483569,0.04062 0.8125,0.159767 l 0.203125,0.09162 3.6177203,-3.6178829 3.6177207,-3.6178831 -0.08427,-0.1875 c -0.120665,-0.2684834 -0.165752,-0.4904603 -0.16631,-0.8187743 -6.5e-4,-0.3832099 0.04021,-0.5623175 0.208058,-0.9120895 0.197071,-0.4106589 0.478056,-0.691644 0.888715,-0.8887151 0.349747,-0.1678401 0.528847,-0.20869988 0.91209,-0.2080842 0.563872,9.059e-4 1.025858,0.1900691 1.417547,0.5804244 0.17846,0.1778518 0.252282,0.2824165 0.364556,0.5163749 C 14.95816,2.4446448 15,2.6257595 15,3 15,3.3742406 14.95816,3.5553553 14.791454,3.9027388 14.608213,4.2845788 14.322232,4.5803862 13.949561,4.7735591 13.630523,4.9389316 13.377219,4.9990834 13,4.99905 12.663057,4.99902 12.442582,4.9548659 12.171875,4.8332022 l -0.1875,-0.084268 -3.6177203,3.6177203 -3.6177203,3.6177205 0.084268,0.1875 c 0.1206644,0.268483 0.1657522,0.49046 0.1663097,0.818774 6.5e-4,0.38321 -0.040206,0.562318 -0.2080581,0.91209 -0.1122741,0.233958 -0.186096,0.338523 -0.3645557,0.516375 -0.255729,0.254858 -0.6088537,0.45711 -0.9304618,0.532921 -0.2414566,0.05692 -0.7604565,0.05816 -0.9909689,0.0024 z M 3.4648941,13.858458 C 3.6347466,13.766012 3.78858,13.604103 3.8945459,13.40625 3.9849772,13.237403 3.9779663,12.749994 3.8825344,12.571181 3.7708647,12.361944 3.6357509,12.229 3.4305563,12.126463 3.2678309,12.045149 3.2049813,12.03125 3,12.03125 c -0.2049812,0 -0.267831,0.0139 -0.4305564,0.09521 -0.3292533,0.16453 -0.507432,0.431447 -0.5309719,0.795412 -0.017189,0.265762 0.023908,0.430373 0.1572656,0.629917 0.1052458,0.15748 0.3344281,0.332719 0.5031599,0.38473 0.053888,0.01661 0.210652,0.02632 0.3483649,0.02158 0.2074651,-0.0071 0.2790567,-0.02422 0.417632,-0.09964 z M 13.464894,3.8584575 C 13.634747,3.7660122 13.78858,3.6041028 13.894546,3.40625 13.984977,3.2374025 13.977966,2.7499943 13.882534,2.5711814 13.770865,2.361944 13.635751,2.2290004 13.430556,2.1264635 13.267831,2.0451486 13.204981,2.03125 13,2.03125 c -0.204981,0 -0.267831,0.013899 -0.430556,0.095213 -0.329254,0.1645298 -0.507432,0.4314468 -0.530972,0.7954115 -0.01719,0.2657625 0.02391,0.4303731 0.157265,0.6299169 0.105246,0.15748 0.334428,0.3327194 0.50316,0.38473 0.05389,0.016611 0.210652,0.026323 0.348365,0.021582 0.207465,-0.00714 0.279057,-0.024224 0.417632,-0.099646 z M 7.5054675,14.954414 C 7.4139431,14.932265 7.2178847,14.854099 7.0697822,14.780711 6.6835947,14.589348 6.3986372,14.298853 6.2085462,13.902739 6.0418403,13.555355 6,13.374241 6,13 c 0,-0.374241 0.04184,-0.555355 0.2085463,-0.902739 0.1970709,-0.410659 0.4780559,-0.691644 0.888715,-0.888715 0.3497468,-0.16784 0.5288465,-0.2087 0.9120893,-0.208084 0.3320432,5.34e-4 0.6115766,0.0585 0.8397978,0.174149 l 0.1604513,0.08131 1.1212723,-1.121273 1.121272,-1.1212719 -0.09104,-0.201999 C 11.041167,8.545245 11,8.3379162 11,8 c 0,-0.3742406 0.04184,-0.5553553 0.208546,-0.9027388 0.197071,-0.410659 0.478056,-0.691644 0.888715,-0.888715 0.349747,-0.1678403 0.528847,-0.2087 0.91209,-0.2080843 0.563872,9.062e-4 1.025858,0.190069 1.417547,0.5804243 0.17846,0.1778519 0.252282,0.2824166 0.364556,0.516375 C 14.95816,7.4446447 15,7.6257594 15,8 c 0,0.3742406 -0.04184,0.5553553 -0.208546,0.9027387 -0.112274,0.2339585 -0.186096,0.3385232 -0.364556,0.516375 -0.391689,0.3903554 -0.853675,0.5795185 -1.417547,0.5804244 -0.346617,5.559e-4 -0.552426,-0.039727 -0.820725,-0.160645 l -0.201999,-0.091037 -1.119386,1.1193849 -1.1193851,1.119386 0.091037,0.201999 C 9.9588328,12.454755 10,12.662084 10,13 c 0,0.374241 -0.04184,0.555355 -0.2085462,0.902739 -0.1122741,0.233958 -0.186096,0.338523 -0.3645557,0.516375 -0.255729,0.254858 -0.6088537,0.45711 -0.9304618,0.532921 -0.2414566,0.05692 -0.7604566,0.05816 -0.9909688,0.0024 z M 8.4648941,13.858458 C 8.6347466,13.766012 8.78858,13.604103 8.8945459,13.40625 8.9849772,13.237403 8.9779663,12.749994 8.8825344,12.571181 8.7708647,12.361944 8.6357509,12.229 8.4305563,12.126463 8.2678309,12.045149 8.2049813,12.03125 8,12.03125 c -0.2049813,0 -0.2678309,0.0139 -0.4305563,0.09521 -0.3292534,0.16453 -0.5074321,0.431447 -0.5309721,0.795412 -0.017189,0.265762 0.023908,0.430373 0.1572656,0.629917 0.1052459,0.15748 0.3344281,0.332719 0.50316,0.38473 0.053888,0.01661 0.2106519,0.02632 0.348365,0.02158 0.207465,-0.0071 0.2790565,-0.02422 0.4176319,-0.09964 z M 13.464894,8.8584575 C 13.634747,8.7660122 13.78858,8.6041028 13.894546,8.40625 13.984977,8.2374025 13.977966,7.7499944 13.882534,7.5711813 13.770865,7.3619441 13.635751,7.2290003 13.430556,7.1264634 13.267831,7.0451487 13.204981,7.03125 13,7.03125 c -0.204981,0 -0.267831,0.013899 -0.430556,0.095213 -0.329254,0.16453 -0.507432,0.4314469 -0.530972,0.7954116 -0.01719,0.2657625 0.02391,0.4303731 0.157265,0.6299169 0.105246,0.15748 0.334428,0.3327193 0.50316,0.38473 0.05389,0.016611 0.210652,0.026322 0.348365,0.021581 0.207465,-0.00714 0.279057,-0.024224 0.417632,-0.099646 z"
       id="path821"
       inkscape:connector-curvature="0" />
    <path
       style="fill:#6598fe;stroke-width:0.000357143"
       d="M 2.2262769,9.1876688 C 2.1702604,9.153515 2.0964848,9.0797397 2.0623312,9.0237231 2.0020125,8.9247925 2.0002303,8.8622688 2.0001168,6.8411319 L 2,4.7603887 1.8258144,4.6404225 C 1.5671646,4.4622834 1.3567349,4.2088091 1.2033469,3.890625 1.041934,3.5557944 1,3.3721306 1,3 1,2.6257595 1.0418402,2.4446448 1.2085461,2.0972612 1.4056172,1.6866023 1.6866023,1.4056172 2.0972612,1.2085461 2.2586113,1.1311158 2.4651453,1.0525169 2.5562257,1.0338819 2.7916394,0.98571625 3.2622669,0.99276578 3.4964363,1.0479653 3.9234366,1.1486199 4.3947225,1.4690689 4.6404225,1.8258144 L 4.7603887,2 6.8411319,2.0001156 c 2.0211369,1.125e-4 2.0836606,0.0019 2.1825912,0.062214 0.1524903,0.092974 0.2260432,0.235389 0.2260432,0.4376688 0,0.2022799 -0.073553,0.3446944 -0.2260432,0.4376688 -0.098766,0.060218 -0.1611959,0.062101 -2.0627856,0.062214 L 5,3 V 3.1390869 C 5,3.3719316 4.9390128,3.5952541 4.7914537,3.9027387 4.6791797,4.1366972 4.6053578,4.2412619 4.4268981,4.4191137 4.0768687,4.7679512 3.5696553,4.9982272 3.1484375,4.9995381 L 3,5 2.9998844,6.9609375 c -1.125e-4,1.9015897 -0.002,1.96402 -0.062214,2.0627856 -0.092974,0.1524903 -0.235389,0.2260432 -0.4376688,0.2260432 -0.116501,0 -0.204688,-0.020006 -0.2737231,-0.062097 z M 3.4648941,3.8584575 C 3.6347466,3.7660122 3.78858,3.6041028 3.8945459,3.40625 3.9849772,3.2374025 3.9779663,2.7499943 3.8825344,2.5711814 3.7708647,2.361944 3.6357509,2.2290004 3.4305563,2.1264635 3.2678309,2.0451486 3.2049813,2.03125 3,2.03125 c -0.2049812,0 -0.267831,0.013899 -0.4305564,0.095213 -0.3292533,0.1645298 -0.507432,0.4314468 -0.5309719,0.7954115 -0.017189,0.2657625 0.023908,0.4303731 0.1572656,0.6299169 0.1052458,0.15748 0.3344281,0.3327194 0.5031599,0.38473 0.053888,0.016611 0.210652,0.026323 0.3483649,0.021582 0.2074651,-0.00714 0.2790567,-0.024224 0.417632,-0.099646 z"
       id="path819"
       inkscape:connector-curvature="0" />
  </g>
</svg>
