<?xml version="1.0" encoding="UTF-8" standalone="no"?>
<!-- Created with Inkscape (http://www.inkscape.org/) -->

<svg
   version="1.1"
   id="svg2"
   width="1600"
   height="1600"
   viewBox="0 0 1600 1600"
   sodipodi:docname="smooth_tilt.svg"
   inkscape:version="1.2.2 (732a01da63, 2022-12-09)"
   xmlns:inkscape="http://www.inkscape.org/namespaces/inkscape"
   xmlns:sodipodi="http://sodipodi.sourceforge.net/DTD/sodipodi-0.dtd"
   xmlns="http://www.w3.org/2000/svg"
   xmlns:svg="http://www.w3.org/2000/svg"
   xmlns:rdf="http://www.w3.org/1999/02/22-rdf-syntax-ns#"
   xmlns:cc="http://creativecommons.org/ns#"
   xmlns:dc="http://purl.org/dc/elements/1.1/">
  <metadata
     id="metadata8">
    <rdf:RDF>
      <cc:Work
         rdf:about="">
        <dc:format>image/svg+xml</dc:format>
        <dc:type
           rdf:resource="http://purl.org/dc/dcmitype/StillImage" />
      </cc:Work>
    </rdf:RDF>
  </metadata>
  <defs
     id="defs6" />
  <sodipodi:namedview
     pagecolor="#808080"
     bordercolor="#666666"
     borderopacity="1"
     objecttolerance="10"
     gridtolerance="10"
     guidetolerance="10"
     inkscape:pageopacity="0"
     inkscape:pageshadow="2"
     inkscape:window-width="1993"
     inkscape:window-height="1009"
     id="namedview4"
     showgrid="false"
     inkscape:zoom="0.5"
     inkscape:cx="9"
     inkscape:cy="8"
     inkscape:window-x="-8"
     inkscape:window-y="-8"
     inkscape:window-maximized="1"
     inkscape:current-layer="SMOOTH_TILT"
     inkscape:showpageshadow="0"
     inkscape:pagecheckerboard="true"
     inkscape:deskcolor="#d1d1d1" />
  <g
     id="SMOOTH_TILT"
     transform="matrix(100,0,0,100,0,4.9999997e-5)"
     style="stroke-width:0.0114286">
    <path
       style="fill:none;stroke-width:0.000357143"
       d="M 0,8 V 0 h 8 8 v 8 8 H 8 0 Z m 12.693269,7.234314 c 0.9424,-0.193489 1.756399,-0.79519 2.219405,-1.640564 0.113736,-0.207664 0.268157,-0.639989 0.32164,-0.900481 0.108457,-0.528247 0.03781,-1.481456 -0.143231,-1.932448 l -0.06465,-0.161054 0.08011,-0.323321 C 15.150603,10.098619 15.200793,9.8265625 15.21807,9.671875 15.25964,9.2997456 15.25883,7.6409791 15.21687,7.2565809 15.095313,6.14202 14.678678,5.1470803 13.962692,4.26149 L 13.757228,4.0073547 14.100627,3.66774 C 14.289496,3.4809516 14.463652,3.2828734 14.487639,3.2275663 14.54158,3.1031938 14.55002,1.9599937 14.498013,1.8223469 14.446297,1.6854683 14.315979,1.5685263 14.159018,1.5181465 14.080151,1.4928332 12.911719,1.2519518 11.5625,0.98285456 8.9744959,0.46668556 8.8972075,0.45580353 8.7261656,0.58350481 8.5209366,0.73673028 8.5164441,0.75507037 8.5068578,1.4787609 L 8.4980906,2.140625 8.7490453,3.3895178 C 8.8870703,4.0764091 9,4.6479622 9,4.6596362 9,4.6713103 8.8910156,4.6443866 8.7578125,4.5998053 8.5385472,4.5264203 8.4683016,4.5186006 8.015625,4.5171869 7.577625,4.5158181 7.4871216,4.5245797 7.2857575,4.5878409 7.1593303,4.6275597 7.0504584,4.654625 7.04382,4.6479866 7.0371813,4.6413481 7.1445669,4.0744759 7.2824544,3.3882706 L 7.5331594,2.140625 7.5243922,1.4787609 C 7.5148059,0.75507037 7.5103134,0.73673028 7.3050844,0.58350481 7.1340425,0.45580353 7.0567541,0.46668556 4.46875,0.98285456 3.1195313,1.2519518 1.9510989,1.4928332 1.8722338,1.5181465 1.7152726,1.5685262 1.5849544,1.6854683 1.5332381,1.8223469 c -0.043614,0.115435 -0.043959,1.2698495 -4.144e-4,1.3865562 0.018053,0.048385 0.188113,0.2441931 0.3779111,0.4351303 L 2.2558224,3.9911919 2.0438338,4.2534084 C 1.4581196,4.9779 1.0512805,5.8168891 0.87583453,6.6620725 0.76523075,7.1948888 0.74239475,7.5932838 0.75858925,8.7075231 c 0.0170872,1.1756613 0.0384996,1.3402719 0.26075095,2.0045569 0.7401783,2.212311 3.0751658,3.747978 6.0900349,4.005272 0.7578222,0.06467 1.7065237,0.03366 2.4621178,-0.08048 l 0.3371178,-0.05093 0.2566323,0.170014 c 0.305892,0.202646 0.725246,0.384193 1.069132,0.462847 0.327294,0.07486 1.128357,0.08338 1.458894,0.01551 z M 7.359375,11.21725 C 5.2477647,10.999903 3.7004122,10.039528 3.3609847,8.7356219 3.2971847,8.4905353 3.2997925,8.3723166 3.3755506,8.0753113 3.5039606,7.5718875 3.8329581,7.0237469 4.3220591,6.4983403 L 4.5347431,6.2698687 5.0151575,6.7495331 C 5.4826634,7.2163094 5.4961516,7.2334656 5.5171397,7.3880362 5.5502944,7.6322084 5.6495613,7.9279262 5.7907491,8.203125 5.9721381,8.5566822 6.4429325,9.0275762 6.796875,9.2094631 7.2415591,9.4379813 7.4445966,9.484375 8,9.484375 c 0.4204931,0 0.5152856,-0.00966 0.71875,-0.07322 C 9.0756334,9.2996631 9.4114013,9.1108694 9.656675,8.8837831 9.8900303,8.6677322 9.8940153,8.6755297 9.7240534,9.015625 c -0.051537,0.103125 -0.1736575,0.35625 -0.27138,0.5625 -0.097722,0.20625 -0.23252,0.489091 -0.2995503,0.628535 -0.06703,0.139444 -0.1218731,0.263077 -0.1218731,0.274741 0,0.01166 -0.042454,0.11201 -0.094343,0.222992 -0.051889,0.110984 -0.1029072,0.264271 -0.1133747,0.340639 -0.011271,0.08223 -0.038566,0.146347 -0.066936,0.157233 -0.087214,0.03347 -1.1109866,0.04445 -1.3972216,0.01498 z M 10.5,7.3066741 c 0,-0.026962 0.02109,-0.066528 0.04687,-0.087924 0.05964,-0.049495 0.05903,-0.00308 -9.94e-4,0.076285 C 10.509152,7.3435962 10.5,7.3459178 10.5,7.3066741 Z"
       id="path833"
       inkscape:connector-curvature="0" />
    <path
       style="fill:#fefefe;stroke-width:0.000357143"
       d="m 11.797917,13.733333 c -0.08548,-0.08548 -0.110417,-0.135815 -0.110417,-0.222874 0,-0.153229 0.09813,-0.300018 0.248843,-0.372231 0.06899,-0.03306 0.125601,-0.06894 0.125799,-0.07975 1.87e-4,-0.01081 0.04255,-0.03712 0.09411,-0.05848 0.05156,-0.02136 0.09375,-0.05119 0.09375,-0.06629 0,-0.0151 0.01789,-0.02746 0.03975,-0.02746 0.02187,0 0.08866,-0.03973 0.148438,-0.08829 0.05978,-0.04856 0.132289,-0.09695 0.161141,-0.107539 0.04721,-0.01732 0.305086,-0.371744 0.308186,-0.423566 7e-4,-0.01168 0.04289,-0.06991 0.09375,-0.129423 0.05086,-0.05951 0.09248,-0.126303 0.09248,-0.148437 0,-0.02213 0.01312,-0.04024 0.02914,-0.04024 0.01603,0 0.03754,-0.02646 0.0478,-0.05879 0.05455,-0.171885 0.264337,-0.276943 0.44789,-0.224301 0.126854,0.03638 0.190589,0.100037 0.226889,0.226607 0.03112,0.108523 -0.01328,0.337732 -0.06543,0.337732 -0.01652,0 -0.03005,0.01539 -0.03005,0.03421 0,0.01881 -0.06328,0.128523 -0.140625,0.243802 -0.07734,0.115279 -0.140625,0.22645 -0.140625,0.247045 0,0.0206 -0.01441,0.03745 -0.03202,0.03745 -0.01761,0 -0.04505,0.03425 -0.06096,0.07612 -0.02724,0.07165 -0.08933,0.153455 -0.235208,0.3099 -0.03441,0.03691 -0.116818,0.09523 -0.18312,0.129603 -0.0663,0.03438 -0.127539,0.08008 -0.136084,0.101563 -0.0085,0.02148 -0.02887,0.03906 -0.04516,0.03906 -0.01629,0 -0.109709,0.05364 -0.207594,0.119209 -0.437009,0.292715 -0.593771,0.322285 -0.770681,0.145374 z"
       id="path831"
       inkscape:connector-curvature="0" />
    <path
       style="fill:#cbfefe;stroke-width:0.000357143"
       d="M 7.171875,13.214098 C 4.3585128,12.968225 2.1794767,11.555272 1.5042382,9.5390322 1.1151807,8.3773191 1.1843483,6.9558534 1.6853285,5.8174416 1.9647736,5.1824394 2.3814956,4.5973834 3.0325671,3.9259888 L 3.464965,3.4800938 2.7336603,2.7492858 C 2.3314427,2.3473413 2.0067439,2.0140895 2.0121073,2.008726 2.0280143,1.992819 7.0102134,0.99979672 7.0208331,1.0104166 7.0261862,1.0157697 6.839455,1.9752503 6.6058747,3.1425956 L 6.1811831,5.2650422 6.0764013,5.3810228 c -0.05763,0.06379 -0.1435144,0.1764206 -0.1908541,0.2502916 -0.04734,0.073871 -0.090695,0.1406919 -0.096344,0.1484912 -0.00565,0.0078 -0.2956712,-0.270964 -0.6444928,-0.619474 L 4.5104897,4.5266769 4.4069016,4.6461509 C 4.3499278,4.7118616 4.1731769,4.9021322 4.0141213,5.0689741 3.1617988,5.9630219 2.8147604,6.7135931 2.760058,7.78125 c -0.064264,1.25427 0.4344423,2.2169509 1.5374767,2.96788 0.9635387,0.655963 2.4963141,1.041926 3.9446528,0.993289 l 0.4765625,-0.016 6.25e-5,0.378979 c 6.25e-5,0.354788 0.04885,0.650161 0.1715013,1.038194 0.019692,0.0623 0.00675,0.06645 -0.2677354,0.08594 -0.3730462,0.02648 -1.0540446,0.01924 -1.4507012,-0.01543 z m 7.30181,-3.7821661 c -0.01811,-0.046032 -0.123119,-0.2710316 -0.233348,-0.5 C 14.130107,8.7029631 14.004189,8.4382812 13.960519,8.34375 13.73625,7.8582859 13.63909,7.6496291 13.53125,7.421875 c -0.06511,-0.1375 -0.170223,-0.3625 -0.233595,-0.5 C 13.086954,6.4647103 13.04932,6.3918566 12.933788,6.2174909 12.870694,6.1222675 12.795683,6.0249456 12.767096,6.0012206 12.738509,5.9774956 12.615405,5.8254172 12.493531,5.6632684 12.371657,5.5011197 12.135325,5.225785 11.968347,5.0514137 11.80137,4.8770425 11.628394,4.6921875 11.583957,4.640625 l -0.0808,-0.09375 -0.63911,0.6372466 -0.63911,0.6372465 -0.05045,-0.097552 C 10.146749,5.6701625 10.063745,5.5521516 9.9900403,5.4615697 L 9.8560316,5.296875 9.4284059,3.1584641 C 9.1932119,1.982338 9.0051384,1.0156949 9.010465,1.0103684 9.015795,1.0050384 10.143883,1.2255298 11.517333,1.5003418 12.890784,1.7751538 14.021688,2 14.030452,2 c 0.0088,0 -0.320419,0.3365732 -0.731519,0.7479404 l -0.747453,0.7479405 0.42513,0.4392694 c 1.115769,1.1528769 1.596458,2.11367 1.74442,3.4867247 0.06598,0.6123109 -0.0043,1.4159753 -0.170821,1.953125 -0.04349,0.1402763 -0.04368,0.1404175 -0.07652,0.056932 z"
       id="path829"
       inkscape:connector-curvature="0" />
    <path
       style="fill:#7fdffe;stroke-width:0.000357143"
       d="m 11.489399,14.234961 c -0.100361,-0.02194 -0.212861,-0.05397 -0.25,-0.07118 -0.03714,-0.01721 -0.130805,-0.05759 -0.208149,-0.08973 -0.169966,-0.07062 -0.46875,-0.26011 -0.46875,-0.297283 0,-0.01472 -0.01359,-0.02677 -0.03021,-0.02677 -0.07116,0 -0.367335,-0.347274 -0.519639,-0.609299 C 9.7508494,12.690293 9.6438125,11.988335 9.765625,11.520666 9.7914062,11.421685 9.8125,11.309359 9.8125,11.271054 c 0,-0.03831 0.019054,-0.09739 0.042343,-0.131288 0.023289,-0.0339 0.071166,-0.138985 0.1063944,-0.233516 0.035228,-0.09453 0.099599,-0.242187 0.1430466,-0.328125 0.04345,-0.08594 0.15869,-0.325 0.256093,-0.53125 0.225064,-0.4765656 0.420047,-0.8836566 0.770838,-1.609375 0.153697,-0.3179687 0.343441,-0.7117188 0.421653,-0.875 0.344881,-0.7200006 0.405208,-0.828125 0.462043,-0.828125 0.0563,0 0.103954,0.080636 0.323168,0.546875 0.05253,0.1117187 0.16541,0.3507812 0.25085,0.53125 0.08544,0.1804687 0.200676,0.4265625 0.256079,0.546875 0.253701,0.5509353 0.327154,0.7088703 0.472349,1.015625 0.08542,0.1804687 0.196616,0.4160156 0.247101,0.5234375 0.05049,0.1074215 0.133098,0.2832035 0.183584,0.3906255 0.05049,0.107421 0.165385,0.349176 0.255333,0.537232 0.809594,1.692626 -0.235531,3.470728 -2.028856,3.451753 -0.166454,-0.0018 -0.384758,-0.02115 -0.48512,-0.04309 z m 0.767451,-0.459502 c 0.07358,-0.03756 0.213863,-0.121935 0.311748,-0.1875 0.09788,-0.06556 0.191302,-0.119209 0.207594,-0.119209 0.01629,0 0.03661,-0.01758 0.04516,-0.03906 0.0085,-0.02149 0.06978,-0.06719 0.136084,-0.101563 0.0663,-0.03438 0.148706,-0.0927 0.18312,-0.129603 0.145879,-0.156445 0.207965,-0.238248 0.235208,-0.3099 0.01592,-0.04187 0.04335,-0.07612 0.06096,-0.07612 0.01761,0 0.03202,-0.01685 0.03202,-0.03745 0,-0.0206 0.06328,-0.131766 0.140625,-0.247045 0.07734,-0.115279 0.140625,-0.22499 0.140625,-0.243802 0,-0.01881 0.01352,-0.03421 0.03005,-0.03421 0.05215,0 0.09655,-0.229209 0.06543,-0.337732 -0.0363,-0.12657 -0.100035,-0.190226 -0.226889,-0.226607 -0.183553,-0.05264 -0.393336,0.05242 -0.44789,0.224301 -0.01026,0.03233 -0.03177,0.05879 -0.0478,0.05879 -0.01603,0 -0.02914,0.01811 -0.02914,0.04024 0,0.02213 -0.04162,0.08893 -0.09248,0.148437 -0.05086,0.05951 -0.09305,0.117748 -0.09375,0.129423 -0.0031,0.05182 -0.260978,0.406245 -0.308186,0.423566 -0.02885,0.01059 -0.101366,0.05898 -0.161141,0.107539 -0.05978,0.04856 -0.126573,0.08829 -0.148438,0.08829 -0.02187,0 -0.03975,0.01236 -0.03975,0.02746 0,0.0151 -0.04219,0.04493 -0.09375,0.06629 -0.05156,0.02136 -0.09391,0.04767 -0.09411,0.05848 -1.88e-4,0.0108 -0.05681,0.04669 -0.125799,0.07975 -0.150711,0.07221 -0.248843,0.219002 -0.248843,0.372231 0,0.08706 0.02494,0.137396 0.110417,0.222874 0.132893,0.132894 0.258537,0.144427 0.458933,0.04213 z"
       id="path827"
       inkscape:connector-curvature="0" />
    <path
       style="fill:#fecb32;stroke-width:0.000357143"
       d="M 7.5625,8.9514053 C 6.8323191,8.7945809 6.2007041,8.1571794 6.0468547,7.421875 5.7497344,6.0018228 7.0018228,4.7497344 8.421875,5.0468547 9.1647875,5.2022959 9.7977041,5.8352125 9.9531453,6.578125 10.251335,8.0032863 8.9878991,9.2575447 7.5625,8.9514053 Z"
       id="path825"
       inkscape:connector-curvature="0" />
    <path
       style="fill:#989898;stroke-width:0.000357143"
       d="M 7.171875,14.216285 C 4.3234269,13.947409 2.179999,12.556833 1.5043667,10.539416 1.3383031,10.043555 1.2806296,9.69608 1.2644167,9.09375 c -0.0081,-0.3007812 -0.00813,-0.5328125 -7.19e-5,-0.515625 0.00806,0.017188 0.043545,0.1753769 0.078862,0.3515322 0.1226609,0.6118119 0.3506016,1.1679538 0.6777916,1.6537128 1.1683762,1.734616 3.5706169,2.744713 6.3149375,2.655313 0.4283469,-0.01395 0.6015625,-0.0097 0.6015625,0.01476 0,0.06043 0.155955,0.348007 0.333884,0.615681 0.094964,0.142862 0.1676725,0.264194 0.161576,0.269627 -0.080042,0.07133 -1.7281069,0.127845 -2.261085,0.07753 z M 14.657999,9.84375 c -0.003,-0.025781 -0.03657,-0.1101562 -0.07462,-0.1875 l -0.06918,-0.140625 0.08407,-0.34375 c 0.04624,-0.1890625 0.09875,-0.4070312 0.116686,-0.484375 0.02521,-0.1086891 0.02927,-0.01643 0.01789,0.40625 -0.0125,0.4641034 -0.05667,0.906692 -0.07485,0.75 z M 2.7643885,8.3015459 C 2.728638,8.2135197 2.7709228,7.4555116 2.8280156,7.1609503 2.9703581,6.4265566 3.3356416,5.7818428 4.0132922,5.0689741 4.1718919,4.9021322 4.3497984,4.7124134 4.40864,4.6473772 L 4.515625,4.5291291 5.1498397,5.1646847 5.7840547,5.8002403 5.7068375,5.9669056 C 5.6643681,6.0585713 5.6051291,6.2240494 5.575195,6.3346347 L 5.5207697,6.5356984 5.0155984,6.0312234 4.5104272,5.5267481 4.4068703,5.6461866 C 4.3499137,5.7118778 4.1731769,5.9021322 4.0141212,6.0689741 3.35118,6.7643697 2.9920756,7.3855366 2.8435728,8.09375 2.804512,8.2800322 2.7808594,8.3421013 2.7643885,8.3015459 Z M 10.428303,6.3519962 c -0.02998,-0.116254 -0.08788,-0.2833259 -0.128666,-0.3712706 l -0.07415,-0.1598994 0.638839,-0.6369756 0.638839,-0.6369756 0.07962,0.09375 C 11.626575,4.692188 11.778209,4.8539062 11.919747,5 c 0.281354,0.2904084 0.519511,0.5723228 0.677598,0.8020944 L 12.699127,5.950035 12.60674,5.8842494 C 12.435021,5.761975 12.209323,5.7094022 11.928601,5.7262878 c -0.25638,0.015421 -0.256839,0.015311 -0.340646,-0.081985 L 11.504035,5.546875 10.993426,6.0551213 10.482817,6.5633675 Z M 9.7154228,5.1658472 9.6027209,5.046875 9.3013513,3.53125 8.9999812,2.015625 l 0.00309,-0.46875 0.00309,-0.46875 0.4176335,2.0625 C 9.6535003,4.275 9.8384406,5.2215062 9.8347806,5.2439722 9.8309819,5.2672869 9.7797516,5.2337541 9.7154234,5.1658472 Z M 6.1890234,5.2339153 C 6.1898609,5.2169806 6.3783172,4.275 6.6078144,3.140625 l 0.4172675,-2.0625 0.00313,0.46875 0.00313,0.46875 -0.2992022,1.5 -0.2992025,1.5 -0.1227207,0.1245403 c -0.067496,0.068498 -0.1220353,0.110685 -0.1211975,0.09375 z M 12.796739,3.7498628 12.547692,3.4993472 13.289471,2.7575683 14.03125,2.0157895 v 0.500284 0.5002841 L 13.538517,3.5083681 13.045785,4.0003784 Z M 2.4761844,3.4918209 2,3.014892 V 2.5155079 2.0161237 L 2.7341546,2.7497797 3.4683091,3.4834356 3.2270753,3.7260928 C 3.0943965,3.8595544 2.9783099,3.96875 2.969105,3.96875 c -0.0092,0 -0.2310192,-0.2146181 -0.4929206,-0.4769291 z"
       id="path823"
       inkscape:connector-curvature="0" />
    <path
       style="fill:#0062fe;stroke-width:0.000357143"
       d="M 11.234375,15.2188 C 10.722655,15.101758 10.090735,14.766792 9.7102456,14.410894 9.4287619,14.147603 9.0686572,13.60588 8.9281663,13.234375 8.7685719,12.812353 8.7192078,12.524785 8.7189559,12.015625 c -2.812e-4,-0.546171 0.077139,-1.00513 0.2224666,-1.319009 0.049405,-0.106705 0.089828,-0.203552 0.089828,-0.215215 0,-0.01166 0.054843,-0.135297 0.1218731,-0.274741 C 9.2687009,9.9662213 9.4355816,9.6160503 9.7877516,8.875 9.8735156,8.6945313 10.053192,8.321875 10.187032,8.046875 c 0.133841,-0.275 0.316564,-0.6546875 0.406053,-0.84375 0.309118,-0.6530716 0.441088,-0.9067975 0.547232,-1.0521062 0.422253,-0.5780557 1.327952,-0.5780557 1.750755,0 0.10782,0.1474112 0.196578,0.3157262 0.406497,0.7708562 0.06342,0.1375 0.168576,0.3625 0.233681,0.5 0.108387,0.2289109 0.215124,0.4581572 0.429223,0.921875 0.04364,0.094531 0.160254,0.340625 0.259131,0.546875 0.09888,0.20625 0.225364,0.4734375 0.281082,0.59375 0.25759,0.556221 0.327369,0.706221 0.450651,0.96875 0.182889,0.389459 0.196254,0.428317 0.267198,0.776877 0.07852,0.385776 0.08643,1.119169 0.01578,1.463267 -0.193589,0.942888 -0.793595,1.754544 -1.640564,2.219265 -0.207252,0.113717 -0.639628,0.268223 -0.900481,0.32178 -0.330537,0.06786 -1.1316,0.05935 -1.458894,-0.01551 z m 1.255769,-0.982542 c 1.074739,-0.227036 1.794662,-1.130468 1.789874,-2.246114 -0.0018,-0.415009 -0.08408,-0.761267 -0.276643,-1.163849 -0.08995,-0.188056 -0.204848,-0.429811 -0.255333,-0.537232 C 13.697556,10.181641 13.614944,10.005859 13.564458,9.8984375 13.513973,9.7910156 13.402777,9.5554687 13.317357,9.375 13.172162,9.0682453 13.098709,8.9103103 12.845008,8.359375 12.789605,8.2390625 12.67437,7.9929687 12.588929,7.8125 12.503489,7.6320312 12.390606,7.3929687 12.338079,7.28125 12.118865,6.8150106 12.071214,6.734375 12.014911,6.734375 c -0.05683,0 -0.117162,0.1081244 -0.462043,0.828125 -0.07821,0.1632812 -0.267956,0.5570313 -0.421653,0.875 -0.350791,0.7257184 -0.545774,1.1328094 -0.770838,1.609375 -0.0974,0.20625 -0.212645,0.445313 -0.256093,0.53125 -0.04345,0.08594 -0.1078187,0.233594 -0.1430468,0.328125 -0.035228,0.09453 -0.083106,0.199613 -0.1063944,0.233516 -0.023288,0.0339 -0.042343,0.09298 -0.042343,0.131288 0,0.03831 -0.021094,0.150631 -0.046875,0.249612 -0.1218125,0.467669 -0.014776,1.169627 0.2470282,1.620035 0.152304,0.262025 0.448476,0.609299 0.519639,0.609299 0.01661,0 0.03021,0.01205 0.03021,0.02677 0,0.03717 0.298784,0.226664 0.46875,0.297283 0.07734,0.03214 0.171011,0.07251 0.208149,0.08973 0.242767,0.112522 0.885014,0.149739 1.250745,0.07248 z"
       id="path821"
       inkscape:connector-curvature="0" />
    <path
       style="fill:#323232;stroke-width:0.000357143"
       d="M 7.046875,14.714098 C 5.7945094,14.604648 4.4655778,14.202088 3.5286256,13.648351 2.2799091,12.910362 1.4169872,11.900603 1.0193401,10.71208 0.79708878,10.047795 0.77567637,9.8831844 0.75858916,8.7075231 0.74239466,7.5932837 0.76523066,7.1948887 0.87583444,6.6620725 1.0512804,5.8168891 1.4581195,4.9779 2.0438337,4.2534084 L 2.2558223,3.9911919 1.9107347,3.6440334 C 1.7209366,3.4530963 1.5508766,3.2572878 1.5328236,3.2089031 1.4892786,3.0921964 1.4896237,1.9377819 1.5332381,1.8223469 1.5849544,1.6854683 1.7152726,1.5685262 1.8722338,1.5181465 1.9510989,1.4928332 3.1195313,1.2519518 4.46875,0.98285456 7.0567541,0.46668556 7.1340425,0.45580353 7.3050844,0.58350481 7.5103134,0.73673028 7.5148059,0.75507037 7.5243922,1.4787609 l 0.00877,0.6618641 -0.250705,1.2476456 C 7.1445669,4.0744759 7.0371813,4.6413481 7.04382,4.6479866 c 0.00664,0.00664 0.1155103,-0.020427 0.2419375,-0.060146 0.2013641,-0.063261 0.2918675,-0.072022 0.7298675,-0.070654 0.4526766,0.00141 0.5229222,0.00923 0.7421875,0.082618 C 8.8910156,4.6443866 9,4.6713103 9,4.6596362 9,4.6479622 8.8870703,4.0764091 8.7490453,3.3895178 L 8.4980906,2.140625 8.5068578,1.4787609 C 8.5164441,0.75507037 8.5209366,0.73673028 8.7261656,0.58350481 8.8972075,0.45580353 8.9744959,0.46668556 11.5625,0.98285456 c 1.349219,0.26909724 2.517651,0.50997864 2.596516,0.53529194 0.156962,0.05038 0.28728,0.1673218 0.338996,0.3042004 0.05201,0.1376468 0.04357,1.2808469 -0.01037,1.4052193 C 14.463652,3.2828732 14.2895,3.4809516 14.10063,3.66774 L 13.757227,4.0073547 13.962691,4.26149 c 0.578855,0.7159762 0.986807,1.5591466 1.161475,2.4005825 0.110603,0.5328162 0.133439,0.9312112 0.117245,2.0454506 -0.01354,0.9318178 -0.02344,1.0948947 -0.08289,1.3663789 -0.03713,0.169553 -0.08578,0.352366 -0.10811,0.40625 l -0.04059,0.09797 -0.103018,-0.21875 C 14.673722,9.8644675 14.680255,9.8922569 14.715925,9.5474703 c 0.04187,-0.4047209 0.042,-1.7539425 2.19e-4,-2.1568453 -0.12507,-1.2056994 -0.570642,-2.1720169 -1.45943,-3.1650806 L 13.051435,3.9961806 13.541349,3.5055475 14.03125,3.0149143 V 2.5074571 C 14.03125,2.2283557 14.027485,2 14.022884,2 14.018282,2 12.890016,1.775 11.515625,1.5 10.141234,1.225 9.0129678,1 9.0083663,1 c -0.0046,0 -0.00837,0.2285156 -0.00838,0.5078125 l -5e-6,0.5078125 0.3022953,1.515625 0.3022953,1.515625 0.2430612,0.258275 c 0.2756809,0.2929363 0.4815329,0.6617628 0.5776979,1.0350641 l 0.05749,0.2231534 0.510205,-0.5082463 0.510205,-0.5082462 0.07651,0.08768 c 0.09727,0.111465 0.09605,0.1335681 -0.0094,0.1714231 -0.155488,0.055803 -0.345538,0.2197694 -0.467903,0.403685 -0.116198,0.1746475 -0.41491,0.7597422 -0.41491,0.8126953 0,0.014246 -0.0403,0.074809 -0.08956,0.1345841 C 10.548675,7.2167178 10.497915,7.3148438 10.485135,7.375 10.472356,7.4351563 10.330264,7.7533753 10.169377,8.0821534 9.8907525,8.6515288 9.8664109,8.6896 9.6570788,8.8834097 9.4113863,9.1108831 9.075865,9.2995909 8.71875,9.4111553 8.5152856,9.4747184 8.4204931,9.484375 8,9.484375 7.4445966,9.484375 7.2415591,9.4379813 6.796875,9.2094631 6.4429325,9.0275762 5.9721381,8.5566822 5.7907491,8.203125 5.6495612,7.9279262 5.5502944,7.6322084 5.5171397,7.3880362 5.4961516,7.2334656 5.4826634,7.2163094 5.0151575,6.7495331 L 4.5347431,6.2698688 4.3220591,6.4983403 c -0.489101,0.5254066 -0.8180985,1.0735472 -0.9465085,1.576971 -0.075758,0.2970053 -0.078366,0.415224 -0.014566,0.6603106 0.2453525,0.9425184 1.1344515,1.7282801 2.4428822,2.1589521 0.7809897,0.257064 1.8368106,0.394217 2.5969168,0.337344 l 0.3851588,-0.02882 -0.01991,0.09376 c -0.010951,0.05157 -0.027856,0.165844 -0.037567,0.253943 l -0.017657,0.16018 -0.1600913,0.01924 C 8.302565,11.760037 7.6782269,11.753273 7.28125,11.716466 5.615885,11.562057 4.1796341,10.912452 3.4334775,9.9761484 3.1170092,9.5790334 2.8987939,9.1129369 2.8139254,8.6528181 2.7817992,8.4786441 2.7838151,8.4036272 2.8267837,8.1743184 2.965466,7.4342181 3.3317303,6.7847716 4.0141213,6.0689741 4.1731769,5.9021322 4.3499138,5.7118778 4.4068703,5.6461866 L 4.5104272,5.5267481 5.0155984,6.0312234 5.5207697,6.5356984 5.5784309,6.3225369 C 5.6817162,5.9407138 5.88149,5.5917356 6.1708378,5.2876806 L 6.4313994,5.013875 6.7313728,3.51475 7.0313463,2.015625 7.0312838,1.5078125 C 7.0312716,1.2285156 7.027485,1 7.0228837,1 7.0182822,1 5.8900156,1.225 4.515625,1.5 3.1412344,1.775 2.0129679,2 2.0083664,2 2.0037649,2 2,2.2286858 2,2.5081906 V 3.0163813 L 2.4821007,3.4977291 2.9642013,3.9790772 2.7294984,4.2428731 C 1.9856317,5.0789472 1.5497127,5.9085441 1.3628446,6.84375 1.2716247,7.3002719 1.2474275,7.7284206 1.2595264,8.671875 c 0.013239,1.0323347 0.044171,1.2683491 0.2447118,1.867157 0.614698,1.835468 2.4702812,3.177793 4.9527259,3.582792 0.8440493,0.137702 1.9341387,0.160297 2.7149109,0.05627 l 0.28125,-0.03747 0.2204719,0.223777 0.2204722,0.223777 -0.3298472,0.04981 c -0.7310035,0.110384 -1.766831,0.141702 -2.5173469,0.07611 z m 1.375,-5.7609527 C 9.3214828,8.7649184 9.9989147,7.9259269 9.9989147,7 9.9989147,5.9092425 9.0907575,5.0010853 8,5.0010853 c -0.7409122,0 -1.4542134,0.4390403 -1.7769522,1.0937225 -0.2954,0.5992253 -0.2954,1.2111591 0,1.8103844 0.3931413,0.7974956 1.3092084,1.2340897 2.1988272,1.0479531 z"
       id="path819"
       inkscape:connector-curvature="0" />
  </g>
</svg>
