<?xml version="1.0" encoding="UTF-8" standalone="no"?>
<!-- Created with Inkscape (http://www.inkscape.org/) -->

<svg
   version="1.1"
   id="svg2"
   width="1600"
   height="1600"
   viewBox="0 0 1600 1600"
   sodipodi:docname="smooth_weight.svg"
   inkscape:version="1.2.2 (732a01da63, 2022-12-09)"
   xmlns:inkscape="http://www.inkscape.org/namespaces/inkscape"
   xmlns:sodipodi="http://sodipodi.sourceforge.net/DTD/sodipodi-0.dtd"
   xmlns="http://www.w3.org/2000/svg"
   xmlns:svg="http://www.w3.org/2000/svg"
   xmlns:rdf="http://www.w3.org/1999/02/22-rdf-syntax-ns#"
   xmlns:cc="http://creativecommons.org/ns#"
   xmlns:dc="http://purl.org/dc/elements/1.1/">
  <metadata
     id="metadata8">
    <rdf:RDF>
      <cc:Work
         rdf:about="">
        <dc:format>image/svg+xml</dc:format>
        <dc:type
           rdf:resource="http://purl.org/dc/dcmitype/StillImage" />
      </cc:Work>
    </rdf:RDF>
  </metadata>
  <defs
     id="defs6" />
  <sodipodi:namedview
     pagecolor="#808080"
     bordercolor="#666666"
     borderopacity="1"
     objecttolerance="10"
     gridtolerance="10"
     guidetolerance="10"
     inkscape:pageopacity="0"
     inkscape:pageshadow="2"
     inkscape:window-width="1993"
     inkscape:window-height="1009"
     id="namedview4"
     showgrid="false"
     inkscape:zoom="0.5"
     inkscape:cx="9"
     inkscape:cy="8"
     inkscape:window-x="-8"
     inkscape:window-y="-8"
     inkscape:window-maximized="1"
     inkscape:current-layer="SMOOTH_WEIGHT"
     inkscape:showpageshadow="0"
     inkscape:pagecheckerboard="true"
     inkscape:deskcolor="#d1d1d1" />
  <g
     id="SMOOTH_WEIGHT"
     transform="matrix(100,0,0,100,0,4.9999997e-5)"
     style="stroke-width:0.0114286">
    <path
       style="fill:none;stroke-width:0.000357143"
       d="M 0,8 V 0 h 8 8 v 8 8 H 8 0 Z m 12.693269,7.234314 c 0.9424,-0.193489 1.756399,-0.79519 2.219405,-1.640564 0.113736,-0.207664 0.268157,-0.639989 0.32164,-0.900481 0.07065,-0.344098 0.06274,-1.077491 -0.01578,-1.463267 -0.07094,-0.34856 -0.08431,-0.387418 -0.267197,-0.776877 C 14.828054,10.190596 14.758275,10.040596 14.500685,9.484375 14.444965,9.3640625 14.31848,9.096875 14.219603,8.890625 14.120727,8.684375 14.004118,8.4382812 13.960473,8.34375 13.746374,7.8800322 13.639637,7.6507859 13.53125,7.421875 c -0.06511,-0.1375 -0.170262,-0.3625 -0.233681,-0.5 -0.209919,-0.45513 -0.298677,-0.623445 -0.406497,-0.7708562 -0.422822,-0.5780822 -1.327786,-0.5780822 -1.75099,0 -0.11099,0.1516084 -0.452582,0.8179803 -0.452582,0.8828893 0,0.026143 -0.04279,0.031223 -0.144987,0.017214 C 10.462771,7.0401928 9.9740988,7.0306869 9.4565759,7.0299987 8.5795806,7.0288331 8.5219972,7.0253891 8.609375,6.9793353 8.8415394,6.8569691 9.1558084,6.6341794 9.323875,6.4728162 9.6712728,6.1392744 10.001133,5.5509559 10.168721,4.9660034 10.24804,4.6891487 10.238642,3.8563341 10.152447,3.5238091 9.7998744,2.1636383 8.5818075,1.2169072 7.1875,1.2193312 6.6608191,1.2202468 6.1963725,1.3341955 5.7100938,1.5818023 5.2480706,1.8170586 4.7081913,2.3767141 4.4475206,2.890625 4.0190056,3.7354391 4.0219744,4.8171347 4.4551106,5.65625 4.7489009,6.2254097 5.1813575,6.6741028 5.7039322,6.9519587 L 5.8530588,7.03125 H 4.8949484 c -1.0149912,0 -1.2129021,0.021466 -1.6762809,0.1818112 C 2.8179209,7.3517337 2.4072974,7.6265759 2.0598684,7.9886784 1.7085036,8.3548831 1.5097769,8.6908394 1.3507352,9.1875 1.2244151,9.5819766 1.2138303,9.7603834 1.224331,11.318052 c 0.00983,1.458675 0.011426,1.491776 0.075915,1.578125 l 0.065871,0.0882 3.7361324,0.0079 3.7361325,0.0079 0.086254,0.226437 c 0.1449375,0.380494 0.5023604,0.919263 0.7856094,1.184205 0.3804897,0.355898 1.0124097,0.690864 1.5241297,0.807906 0.327294,0.07486 1.128357,0.08338 1.458894,0.01551 z"
       id="path829"
       inkscape:connector-curvature="0" />
    <path
       style="fill:#fefefe;stroke-width:0.000357143"
       d="m 11.797917,13.733333 c -0.08548,-0.08548 -0.110417,-0.135815 -0.110417,-0.222874 0,-0.153229 0.09813,-0.300018 0.248843,-0.372231 0.06899,-0.03306 0.125601,-0.06894 0.125799,-0.07975 1.87e-4,-0.01081 0.04255,-0.03712 0.09411,-0.05848 0.05156,-0.02136 0.09375,-0.05119 0.09375,-0.06629 0,-0.0151 0.01789,-0.02746 0.03975,-0.02746 0.02187,0 0.08866,-0.03973 0.148438,-0.08829 0.05978,-0.04856 0.132289,-0.09695 0.161141,-0.107539 0.04721,-0.01732 0.305086,-0.371744 0.308186,-0.423566 7e-4,-0.01168 0.04289,-0.06991 0.09375,-0.129423 0.05086,-0.05951 0.09248,-0.126303 0.09248,-0.148437 0,-0.02213 0.01312,-0.04024 0.02914,-0.04024 0.01603,0 0.03754,-0.02646 0.0478,-0.05879 0.05455,-0.171885 0.264337,-0.276943 0.44789,-0.224301 0.126854,0.03638 0.190589,0.100037 0.226889,0.226607 0.03112,0.108523 -0.01328,0.337732 -0.06543,0.337732 -0.01652,0 -0.03005,0.01539 -0.03005,0.03421 0,0.01881 -0.06328,0.128523 -0.140625,0.243802 -0.07734,0.115279 -0.140625,0.22645 -0.140625,0.247045 0,0.0206 -0.01441,0.03745 -0.03202,0.03745 -0.01761,0 -0.04505,0.03425 -0.06096,0.07612 -0.02724,0.07165 -0.08933,0.153455 -0.235208,0.3099 -0.03441,0.03691 -0.116818,0.09523 -0.18312,0.129603 -0.0663,0.03438 -0.127539,0.08008 -0.136084,0.101563 -0.0085,0.02148 -0.02887,0.03906 -0.04516,0.03906 -0.01629,0 -0.109709,0.05364 -0.207594,0.119209 -0.437009,0.292715 -0.593771,0.322285 -0.770681,0.145374 z"
       id="path827"
       inkscape:connector-curvature="0" />
    <path
       style="fill:#7fdffe;stroke-width:0.000357143"
       d="m 11.489399,14.234961 c -0.100361,-0.02194 -0.212861,-0.05397 -0.25,-0.07118 -0.03714,-0.01721 -0.130805,-0.05759 -0.208149,-0.08973 -0.169966,-0.07062 -0.46875,-0.26011 -0.46875,-0.297283 0,-0.01472 -0.01359,-0.02677 -0.03021,-0.02677 -0.07116,0 -0.367335,-0.347274 -0.519639,-0.609299 C 9.7508494,12.690293 9.6438125,11.988335 9.765625,11.520666 9.7914062,11.421685 9.8125,11.309359 9.8125,11.271054 c 0,-0.03831 0.019054,-0.09739 0.042343,-0.131288 0.023289,-0.0339 0.071166,-0.138985 0.1063944,-0.233516 0.035228,-0.09453 0.099599,-0.242187 0.1430466,-0.328125 0.04345,-0.08594 0.15869,-0.325 0.256093,-0.53125 0.225064,-0.4765656 0.420047,-0.8836566 0.770838,-1.609375 0.153697,-0.3179687 0.343441,-0.7117188 0.421653,-0.875 0.344881,-0.7200006 0.405208,-0.828125 0.462043,-0.828125 0.0563,0 0.103954,0.080636 0.323168,0.546875 0.05253,0.1117187 0.16541,0.3507812 0.25085,0.53125 0.08544,0.1804687 0.200676,0.4265625 0.256079,0.546875 0.253701,0.5509353 0.327154,0.7088703 0.472349,1.015625 0.08542,0.1804687 0.196616,0.4160156 0.247101,0.5234375 0.05049,0.1074215 0.133098,0.2832035 0.183584,0.3906255 0.05049,0.107421 0.165385,0.349176 0.255333,0.537232 0.809594,1.692626 -0.235531,3.470728 -2.028856,3.451753 -0.166454,-0.0018 -0.384758,-0.02115 -0.48512,-0.04309 z m 0.767451,-0.459502 c 0.07358,-0.03756 0.213863,-0.121935 0.311748,-0.1875 0.09788,-0.06556 0.191302,-0.119209 0.207594,-0.119209 0.01629,0 0.03661,-0.01758 0.04516,-0.03906 0.0085,-0.02149 0.06978,-0.06719 0.136084,-0.101563 0.0663,-0.03438 0.148706,-0.0927 0.18312,-0.129603 0.145879,-0.156445 0.207965,-0.238248 0.235208,-0.3099 0.01592,-0.04187 0.04335,-0.07612 0.06096,-0.07612 0.01761,0 0.03202,-0.01685 0.03202,-0.03745 0,-0.0206 0.06328,-0.131766 0.140625,-0.247045 0.07734,-0.115279 0.140625,-0.22499 0.140625,-0.243802 0,-0.01881 0.01352,-0.03421 0.03005,-0.03421 0.05215,0 0.09655,-0.229209 0.06543,-0.337732 -0.0363,-0.12657 -0.100035,-0.190226 -0.226889,-0.226607 -0.183553,-0.05264 -0.393336,0.05242 -0.44789,0.224301 -0.01026,0.03233 -0.03177,0.05879 -0.0478,0.05879 -0.01603,0 -0.02914,0.01811 -0.02914,0.04024 0,0.02213 -0.04162,0.08893 -0.09248,0.148437 -0.05086,0.05951 -0.09305,0.117748 -0.09375,0.129423 -0.0031,0.05182 -0.260978,0.406245 -0.308186,0.423566 -0.02885,0.01059 -0.101366,0.05898 -0.161141,0.107539 -0.05978,0.04856 -0.126573,0.08829 -0.148438,0.08829 -0.02187,0 -0.03975,0.01236 -0.03975,0.02746 0,0.0151 -0.04219,0.04493 -0.09375,0.06629 -0.05156,0.02136 -0.09391,0.04767 -0.09411,0.05848 -1.88e-4,0.0108 -0.05681,0.04669 -0.125799,0.07975 -0.150711,0.07221 -0.248843,0.219002 -0.248843,0.372231 0,0.08706 0.02494,0.137396 0.110417,0.222874 0.132893,0.132894 0.258537,0.144427 0.458933,0.04213 z"
       id="path825"
       inkscape:connector-curvature="0" />
    <path
       style="fill:#fe9832;stroke-width:0.000357143"
       d="M 1.7187553,11.257813 C 1.7187617,9.6416984 1.7307996,9.5388394 1.9848231,8.984375 2.032069,8.88125 2.0795526,8.7898437 2.0903423,8.78125 2.101132,8.7726563 2.1508982,8.7023438 2.2009337,8.625 2.3310928,8.4238034 2.5753965,8.1760597 2.7782524,8.0395519 2.8744323,7.9748297 2.9601562,7.9148437 2.96875,7.90625 2.9875348,7.8874653 3.2924797,7.740815 3.4166228,7.6908647 3.4652966,7.6712803 3.6303822,7.6273553 3.7834794,7.5932534 4.0510044,7.5336631 4.1846237,7.53125 7.216575,7.53125 c 2.1403359,0 3.161163,0.010399 3.174724,0.03234 0.01099,0.017787 -0.08529,0.2463028 -0.213957,0.5078125 C 10.048673,8.3329125 9.8732919,8.6945312 9.7876069,8.875 9.4857228,9.5108266 9.2737044,9.9558128 9.1531231,10.20666 9.0860928,10.346104 9.03125,10.469737 9.03125,10.481401 c 0,0.01166 -0.040509,0.10851 -0.090021,0.215215 -0.049511,0.106705 -0.1210841,0.349248 -0.1590503,0.538984 -0.058519,0.292446 -0.067414,0.424497 -0.058417,0.867217 L 8.734375,12.62506 6.6796875,12.62503 4.625,12.625 V 11.689725 10.75445 l -0.1052525,-0.1116 c -0.08411,-0.08918 -0.1286506,-0.1116 -0.2217384,-0.1116 -0.1567938,0 -0.2884797,0.09856 -0.3280535,0.245523 -0.017384,0.06456 -0.031154,0.454086 -0.0306,0.865616 5.532e-4,0.41153 3.625e-4,0.80097 -4.25e-4,0.865424 L 3.9375,12.625 H 2.828125 1.71875 Z M 6.828125,6.7944597 C 6.6409287,6.76838 6.3888559,6.7076841 6.3125,6.6703037 5.9312931,6.4836831 5.8072053,6.4154203 5.671875,6.3178859 5.4809719,6.1802991 5.2862741,5.9899962 5.1867891,5.84375 5.1458675,5.7835937 5.1026475,5.7273437 5.090745,5.71875 5.0239934,5.6705556 4.7797953,5.1315069 4.71559,4.890625 4.6138634,4.5089722 4.6127387,4.0341953 4.712665,3.6565003 4.7786597,3.4070619 4.9559822,2.9969934 5.0078112,2.9739583 c 0.012891,-0.00573 0.023437,-0.023911 0.023437,-0.040403 0,-0.048762 0.2551322,-0.3735096 0.395481,-0.5033923 C 5.5868856,2.2819512 5.8012275,2.125 5.8434794,2.125 5.8608156,2.125 5.875,2.1135727 5.875,2.0996059 5.875,2.0856389 5.948828,2.0413579 6.0390625,2.0012029 6.7642791,1.6784788 7.3069319,1.6370934 7.96875,1.854036 c 0.2441716,0.080039 0.6556547,0.2940912 0.6560525,0.3412765 9.37e-5,0.012891 0.014099,0.023437 0.03109,0.023437 0.034693,0 0.1042985,0.053111 0.304211,0.2321253 0.1464815,0.1311685 0.4351053,0.5462771 0.5230368,0.7522497 0.02935,0.06875 0.067319,0.1511403 0.084376,0.1830897 C 9.6585803,3.5567876 9.717306,3.9049651 9.7180141,4.2785029 9.7187894,4.6862981 9.6920513,4.8248247 9.5365397,5.21875 9.4582659,5.417025 9.2023278,5.8490316 9.1508366,5.8697916 9.1366266,5.8755209 9.125,5.8915269 9.125,5.9053603 9.125,5.9395944 8.8476603,6.21875 8.8136491,6.21875 c -0.014955,0 -0.031878,0.011719 -0.037608,0.026042 -0.014494,0.036236 -0.4057186,0.286458 -0.4478798,0.286458 -0.018926,0 -0.050834,0.016423 -0.070907,0.036496 C 8.2171923,6.607808 8.0689458,6.665854 7.8281255,6.7357726 7.6734796,6.7806716 7.0090474,6.8196646 6.828125,6.7944597 Z"
       id="path823"
       inkscape:connector-curvature="0" />
    <path
       style="fill:#0062fe;stroke-width:0.000357143"
       d="M 11.234375,15.2188 C 10.722655,15.101758 10.090735,14.766792 9.7102456,14.410894 9.4287619,14.147603 9.0686572,13.60588 8.9281663,13.234375 8.7685719,12.812353 8.7192078,12.524785 8.7189559,12.015625 c -2.812e-4,-0.546171 0.077139,-1.00513 0.2224666,-1.319009 0.049405,-0.106705 0.089828,-0.203552 0.089828,-0.215215 0,-0.01166 0.054843,-0.135297 0.1218731,-0.274741 C 9.2687009,9.9662213 9.4355816,9.6160503 9.7877516,8.875 9.8735156,8.6945313 10.053192,8.321875 10.187032,8.046875 c 0.133841,-0.275 0.316564,-0.6546875 0.406053,-0.84375 0.309118,-0.6530716 0.441088,-0.9067975 0.547232,-1.0521062 0.422253,-0.5780557 1.327952,-0.5780557 1.750755,0 0.10782,0.1474112 0.196578,0.3157262 0.406497,0.7708562 0.06342,0.1375 0.168576,0.3625 0.233681,0.5 0.108387,0.2289109 0.215124,0.4581572 0.429223,0.921875 0.04364,0.094531 0.160254,0.340625 0.259131,0.546875 0.09888,0.20625 0.225364,0.4734375 0.281082,0.59375 0.25759,0.556221 0.327369,0.706221 0.450651,0.96875 0.182889,0.389459 0.196254,0.428317 0.267198,0.776877 0.07852,0.385776 0.08643,1.119169 0.01578,1.463267 -0.193589,0.942888 -0.793595,1.754544 -1.640564,2.219265 -0.207252,0.113717 -0.639628,0.268223 -0.900481,0.32178 -0.330537,0.06786 -1.1316,0.05935 -1.458894,-0.01551 z m 1.255769,-0.982542 c 1.074739,-0.227036 1.794662,-1.130468 1.789874,-2.246114 -0.0018,-0.415009 -0.08408,-0.761267 -0.276643,-1.163849 -0.08995,-0.188056 -0.204848,-0.429811 -0.255333,-0.537232 C 13.697556,10.181641 13.614944,10.005859 13.564458,9.8984375 13.513973,9.7910156 13.402777,9.5554687 13.317357,9.375 13.172162,9.0682453 13.098709,8.9103103 12.845008,8.359375 12.789605,8.2390625 12.67437,7.9929687 12.588929,7.8125 12.503489,7.6320312 12.390606,7.3929687 12.338079,7.28125 12.118865,6.8150106 12.071214,6.734375 12.014911,6.734375 c -0.05683,0 -0.117162,0.1081244 -0.462043,0.828125 -0.07821,0.1632812 -0.267956,0.5570313 -0.421653,0.875 -0.350791,0.7257184 -0.545774,1.1328094 -0.770838,1.609375 -0.0974,0.20625 -0.212645,0.445313 -0.256093,0.53125 -0.04345,0.08594 -0.1078187,0.233594 -0.1430468,0.328125 -0.035228,0.09453 -0.083106,0.199613 -0.1063944,0.233516 -0.023288,0.0339 -0.042343,0.09298 -0.042343,0.131288 0,0.03831 -0.021094,0.150631 -0.046875,0.249612 -0.1218125,0.467669 -0.014776,1.169627 0.2470282,1.620035 0.152304,0.262025 0.448476,0.609299 0.519639,0.609299 0.01661,0 0.03021,0.01205 0.03021,0.02677 0,0.03717 0.298784,0.226664 0.46875,0.297283 0.07734,0.03214 0.171011,0.07251 0.208149,0.08973 0.242767,0.112522 0.885014,0.149739 1.250745,0.07248 z"
       id="path821"
       inkscape:connector-curvature="0" />
    <path
       style="fill:#323232;stroke-width:0.000357143"
       d="M 1.3351435,12.945255 C 1.2252255,12.823798 1.2187499,12.728929 1.2187553,11.240153 1.2187617,9.4902881 1.2310982,9.3888838 1.521726,8.7497791 1.8172104,8.0999944 2.5356136,7.4494222 3.2186675,7.2130612 3.6820463,7.0527156 3.8799572,7.03125 4.8949484,7.03125 H 5.8530587 L 5.7039322,6.9519587 C 4.2868972,6.1985137 3.7121022,4.3404972 4.4475206,2.890625 4.7081913,2.3767141 5.2480706,1.8170586 5.7100938,1.5818023 6.6235219,1.1166965 7.6016216,1.0939611 8.5118,1.516678 c 0.7764016,0.3605866 1.4169794,1.1442548 1.640648,2.0071311 0.08619,0.332525 0.09559,1.1653396 0.01627,1.4421943 -0.167588,0.5849525 -0.4974482,1.173271 -0.844846,1.5068128 -0.1680666,0.1613632 -0.4823356,0.3841529 -0.7145,0.5065191 -0.087413,0.046073 -0.027213,0.049747 0.890625,0.054361 0.541406,0.00272 1.021103,0.013832 1.065993,0.024689 l 0.08162,0.01974 L 10.539551,7.3125 10.43149,7.546875 7.2548078,7.5381541 C 3.8771913,7.5288816 3.902835,7.52795 3.46875,7.6756966 3.3309756,7.72259 2.9996194,7.8753806 2.96875,7.90625 2.9601562,7.9148437 2.8744323,7.9748297 2.7782524,8.0395519 2.5753965,8.1760597 2.3310927,8.4238034 2.2009337,8.625 2.1508982,8.7023438 2.101132,8.7726563 2.0903423,8.78125 2.0795523,8.78984 2.0320693,8.88125 1.9848231,8.984375 1.7307996,9.5388394 1.7187617,9.6416984 1.7187553,11.257813 L 1.71875,12.625 H 2.828125 3.9375 l 0.00143,-0.117187 c 7.874e-4,-0.06445 9.781e-4,-0.453894 4.25e-4,-0.865424 -5.532e-4,-0.41153 0.013216,-0.801057 0.0306,-0.865616 0.039574,-0.146966 0.1712597,-0.245523 0.3280535,-0.245523 0.093088,0 0.1376281,0.02242 0.2217384,0.1116 l 0.1052525,0.1116 V 11.689725 12.625 H 6.686295 8.7475904 l 0.034315,0.132813 c 0.018873,0.07305 0.041456,0.157421 0.050185,0.1875 C 8.8471434,12.997179 8.6554778,13 5.1163247,13 1.600586,13 1.3818203,12.996833 1.3351435,12.945255 Z M 7.828125,6.7357728 C 8.0689453,6.6658544 8.2171919,6.6078081 8.2572538,6.5677462 8.2773269,6.5476731 8.309235,6.53125 8.3281613,6.53125 c 0.042161,0 0.4333859,-0.2502222 0.4478803,-0.2864584 0.00573,-0.014323 0.022653,-0.026042 0.037608,-0.026042 0.034011,0 0.3113509,-0.2791556 0.3113509,-0.3133897 0,-0.013833 0.011627,-0.029839 0.025837,-0.035569 C 9.2023278,5.8490316 9.4582659,5.417025 9.5365397,5.21875 9.6920512,4.8248247 9.7187878,4.6862981 9.7180144,4.2785034 9.717305,3.9049656 9.6585809,3.5567881 9.5675166,3.3862147 9.5504597,3.3542653 9.5124906,3.271875 9.4831406,3.203125 9.3952091,2.9971524 9.1065853,2.5820438 8.9601038,2.4508753 8.7601913,2.2718614 8.6905863,2.21875 8.6558928,2.21875 c -0.016991,0 -0.030982,-0.010547 -0.03109,-0.023437 C 8.6244047,2.1481272 8.2129216,1.9340749 7.96875,1.854036 7.3069319,1.6370934 6.7642791,1.6784788 6.0390625,2.0012033 5.9488281,2.0413579 5.875,2.0856391 5.875,2.0996059 5.875,2.1135727 5.8608156,2.125 5.8434794,2.125 5.8012275,2.125 5.5868856,2.2819512 5.4267309,2.4301627 5.2863822,2.5600454 5.03125,2.8847932 5.03125,2.933555 5.03125,2.950048 5.020703,2.968229 5.007813,2.973958 4.955984,2.996993 4.7786614,3.4070616 4.7126667,3.6565 c -0.099927,0.377695 -0.098803,0.8524719 0.00293,1.2341247 0.064205,0.2408819 0.3084035,0.7799306 0.3751551,0.828125 0.011902,0.00859 0.055122,0.064844 0.096044,0.125 0.099485,0.1462462 0.2941828,0.3365491 0.485086,0.4741359 0.1353303,0.097534 0.2594181,0.1657972 0.640625,0.3524178 0.076356,0.03738 0.3284287,0.098076 0.515625,0.124156 0.1809218,0.025205 0.845354,-0.013788 1,-0.058687 z"
       id="path819"
       inkscape:connector-curvature="0" />
  </g>
</svg>
