<?xml version="1.0" encoding="UTF-8" standalone="no"?>
<!-- Created with Inkscape (http://www.inkscape.org/) -->

<svg
   version="1.1"
   id="svg2"
   width="1600"
   height="1600"
   viewBox="0 0 1600 1600"
   sodipodi:docname="smoothcurve.svg"
   inkscape:version="1.2.2 (732a01da63, 2022-12-09)"
   xmlns:inkscape="http://www.inkscape.org/namespaces/inkscape"
   xmlns:sodipodi="http://sodipodi.sourceforge.net/DTD/sodipodi-0.dtd"
   xmlns="http://www.w3.org/2000/svg"
   xmlns:svg="http://www.w3.org/2000/svg"
   xmlns:rdf="http://www.w3.org/1999/02/22-rdf-syntax-ns#"
   xmlns:cc="http://creativecommons.org/ns#"
   xmlns:dc="http://purl.org/dc/elements/1.1/">
  <metadata
     id="metadata8">
    <rdf:RDF>
      <cc:Work
         rdf:about="">
        <dc:format>image/svg+xml</dc:format>
        <dc:type
           rdf:resource="http://purl.org/dc/dcmitype/StillImage" />
      </cc:Work>
    </rdf:RDF>
  </metadata>
  <defs
     id="defs6" />
  <sodipodi:namedview
     pagecolor="#808080"
     bordercolor="#666666"
     borderopacity="1"
     objecttolerance="10"
     gridtolerance="10"
     guidetolerance="10"
     inkscape:pageopacity="0"
     inkscape:pageshadow="2"
     inkscape:window-width="1993"
     inkscape:window-height="1009"
     id="namedview4"
     showgrid="false"
     fit-margin-top="0"
     fit-margin-left="0"
     fit-margin-right="0"
     fit-margin-bottom="0"
     inkscape:zoom="0.5"
     inkscape:cx="19"
     inkscape:cy="86"
     inkscape:window-x="-8"
     inkscape:window-y="-8"
     inkscape:window-maximized="1"
     inkscape:current-layer="SMOOTHCURVE"
     inkscape:showpageshadow="0"
     inkscape:pagecheckerboard="true"
     inkscape:deskcolor="#d1d1d1" />
  <g
     id="SMOOTHCURVE"
     transform="matrix(100,0,0,100,0,4.9999997e-5)"
     style="stroke-width:0.0114286">
    <path
       style="fill:none;stroke-width:0.000357143"
       d="M 0,8 V 0 h 8 8 v 8 8 H 8 0 Z m 2.7051981,4.216479 C 3.3924531,12.092234 3.9448963,11.806861 4.448031,11.31619 5.2607666,10.523588 5.6224794,9.7252222 6.2194938,7.40625 6.56436,6.0666928 6.7316834,5.5416119 6.9573034,5.0909138 7.1449016,4.7161675 7.3603878,4.4627097 7.578125,4.360695 7.6471975,4.3283331 7.8021081,4.2957731 7.9243557,4.2879225 8.5226722,4.249499 8.9737072,4.5976469 9.3984713,5.4257731 9.69488,6.0036557 9.8507461,6.4278856 10.331598,7.9655193 c 0.659381,2.1085267 1.006788,2.8150817 1.725612,3.5095557 0.300883,0.290691 0.384849,0.352588 0.666942,0.491654 0.399265,0.19683 0.729494,0.283271 1.082165,0.283271 0.294205,0 0.622285,-0.08023 0.838502,-0.205059 0.184987,-0.106795 0.402875,-0.362843 0.484959,-0.56989 0.101158,-0.255159 0.09965,-0.667202 -0.0034,-0.928176 C 15.029805,10.302292 14.739347,10.00464 14.515625,9.9209941 14.429688,9.8888633 14.324219,9.8373662 14.28125,9.8065557 14.238281,9.7757461 14.135483,9.7380115 14.052811,9.7227025 13.875602,9.6898875 13.795885,9.6216594 13.620834,9.352981 13.428404,9.0576278 13.215823,8.5404859 12.955477,7.734375 12.319098,5.7639537 12.205701,5.4251797 12.066363,5.078125 11.333457,3.2526375 10.408973,2.2664644 9.046875,1.8571527 8.7939856,1.7811592 8.7036185,1.771132 8.1507115,1.7577144 7.5019497,1.7419706 7.2855869,1.7633136 6.890625,1.8820149 6.3734453,2.0374474 5.9799834,2.2728296 5.5590572,2.6786036 4.7444584,3.4638791 4.37804,4.2707 3.7809909,6.59375 3.2731771,8.5695959 2.9859186,9.2635359 2.5549396,9.5555641 2.3809936,9.6734287 2.3399587,9.6870697 2.0664405,9.7179531 c -0.1416049,0.015989 -0.2620698,0.048879 -0.3125,0.08532 -0.045136,0.032615 -0.152378,0.08559 -0.2383155,0.1177207 -0.2237214,0.083646 -0.5141798,0.3812982 -0.61075497,0.6258812 -0.10304703,0.260974 -0.1045555,0.673017 -0.003398,0.928176 0.19263177,0.485894 0.66853307,0.767927 1.30372617,0.772623 0.1730153,0.0013 0.3980153,-0.01276 0.5,-0.0312 z M 2.3359375,11.729304 c 0.021484,-0.0087 0.056641,-0.0087 0.078125,0 0.021484,0.0087 0.00391,0.01576 -0.039063,0.01576 -0.042969,0 -0.060547,-0.0071 -0.039063,-0.01576 z M 13.681641,11.72862 c 0.02256,-0.009 0.04951,-0.0079 0.05989,0.0025 0.01038,0.01039 -0.0081,0.01777 -0.04101,0.01641 -0.03641,-0.0015 -0.04381,-0.0089 -0.01888,-0.01888 z m -1.338958,-0.689557 -0.170808,-0.179688 0.179688,0.170808 c 0.09883,0.09394 0.179687,0.174803 0.179687,0.179687 0,0.02319 -0.02988,-0.0039 -0.188567,-0.170807 z M 3.8125,11.175701 c 0,-0.0065 0.024609,-0.0311 0.054687,-0.05469 0.049564,-0.03887 0.05067,-0.03777 0.011799,0.0118 -0.040824,0.05206 -0.066486,0.06861 -0.066486,0.04289 z M 4.109375,10.90625 C 4.1940203,10.820313 4.2703068,10.75 4.2789006,10.75 c 0.00859,0 -0.05363,0.07031 -0.1382756,0.15625 -0.084645,0.08594 -0.1609318,0.15625 -0.1695256,0.15625 -0.00859,0 0.05363,-0.07031 0.1382756,-0.15625 z m 7.980389,-0.148437 c -0.03887,-0.04957 -0.03777,-0.05067 0.0118,-0.0118 0.05206,0.04082 0.06861,0.06649 0.04289,0.06649 -0.0065,0 -0.0311,-0.02461 -0.05469,-0.05469 z M 4.34375,10.644451 c 0,-0.0065 0.024609,-0.0311 0.054687,-0.05469 0.049564,-0.03887 0.05067,-0.03777 0.011799,0.0118 -0.040824,0.05206 -0.066486,0.06861 -0.066486,0.04289 z M 2.1334072,10.228344 c 0.030405,-0.0079 0.072593,-0.0074 0.09375,0.0012 0.021157,0.0086 -0.00372,0.01504 -0.055282,0.01441 -0.051563,-6.83e-4 -0.068873,-0.0076 -0.038468,-0.01556 z m 11.7357338,2.93e-4 c 0.02256,-0.009 0.04951,-0.0079 0.05989,0.0025 0.01038,0.01038 -0.0081,0.01777 -0.04101,0.01641 -0.03641,-0.0015 -0.04381,-0.0089 -0.01888,-0.01888 z M 2.875,9.9882012 c 0,-0.00649 0.024609,-0.031099 0.054687,-0.054687 0.049564,-0.038871 0.05067,-0.037766 0.011799,0.011799 C 2.9006621,9.9973672 2.875,10.013921 2.875,9.9882012 Z M 13.277264,9.8203125 c -0.03887,-0.049565 -0.03777,-0.05067 0.0118,-0.011799 0.03008,0.023589 0.05469,0.048198 0.05469,0.054687 0,0.02572 -0.02566,0.00917 -0.06649,-0.042889 z M 3.15625,9.7069513 c 0,-0.00649 0.024609,-0.031099 0.054687,-0.054687 0.049564,-0.038871 0.05067,-0.037766 0.011799,0.011799 C 3.181912,9.7161183 3.15625,9.7326723 3.15625,9.7069523 Z M 9.4647638,4.5390625 c -0.038871,-0.049564 -0.037766,-0.05067 0.011799,-0.011799 0.052055,0.040824 0.068609,0.066486 0.042889,0.066486 -0.00649,0 -0.031099,-0.024609 -0.054687,-0.054687 z M 9.2332003,4.2734375 9.078125,4.109375 9.2421875,4.2644503 c 0.090234,0.085291 0.1640625,0.1591194 0.1640625,0.1640625 0,0.023319 -0.028951,-0.00263 -0.1730497,-0.1550753 z M 6.75,4.3632013 c 0,-0.00649 0.024609,-0.031098 0.054687,-0.054687 0.049564,-0.038871 0.05067,-0.037766 0.011799,0.011799 C 6.7756622,4.3723672 6.75,4.3889213 6.75,4.3632013 Z m 0.28125,-0.28125 c 0,-0.00649 0.024609,-0.031098 0.054687,-0.054687 0.049564,-0.038871 0.05067,-0.037766 0.011799,0.011799 C 7.056912,4.0911183 7.03125,4.1076723 7.03125,4.0819513 Z M 7.7896572,3.759594 c 0.030405,-0.00792 0.072593,-0.0074 0.09375,0.00116 0.021157,0.00856 -0.00372,0.015043 -0.055282,0.014406 -0.051563,-6.347e-4 -0.068873,-0.00764 -0.038468,-0.015564 z m 0.34375,0 c 0.030405,-0.00792 0.072593,-0.0074 0.09375,0.00116 0.021157,0.00856 -0.00372,0.015043 -0.055282,0.014406 C 8.1203132,3.7745252 8.1030022,3.76752 8.1334072,3.759596 Z M 10.652264,3.6015625 c -0.03887,-0.049564 -0.03777,-0.05067 0.0118,-0.011799 0.03008,0.023589 0.05469,0.048198 0.05469,0.054687 0,0.02572 -0.02566,0.00917 -0.06649,-0.042889 z m -0.139608,-0.171875 -0.05953,-0.070312 0.07031,0.059531 C 10.589514,3.4748503 10.607977,3.5 10.582969,3.5 c -0.0059,0 -0.03757,-0.031641 -0.07031,-0.070312 z M 5.5625,3.4257013 c 0,-0.00649 0.024609,-0.031099 0.054687,-0.054687 0.049564,-0.038871 0.05067,-0.037766 0.011799,0.011799 C 5.5881622,3.4348672 5.5625,3.4514213 5.5625,3.4257013 Z M 5.859375,3.09375 C 5.9440203,3.0078125 6.0203068,2.9375 6.0289006,2.9375 c 0.00859,0 -0.05363,0.070312 -0.1382756,0.15625 C 5.8059797,3.1796875 5.7296932,3.25 5.7210994,3.25 c -0.00859,0 0.05363,-0.070312 0.1382756,-0.15625 z m 4.199139,-0.1171875 c -0.03887,-0.049564 -0.03777,-0.05067 0.0118,-0.011799 0.05206,0.040824 0.06861,0.066486 0.04289,0.066486 -0.0065,0 -0.0311,-0.024609 -0.05469,-0.054687 z M 6.09375,2.8944514 c 0,-0.00649 0.024609,-0.031099 0.054687,-0.054687 0.049564,-0.038871 0.05067,-0.037766 0.011799,0.011799 C 6.119412,2.9036184 6.09375,2.9201724 6.09375,2.8944524 Z M 8.5878906,2.2911527 c 0.022558,-0.00903 0.049512,-0.00792 0.059896,0.00247 0.010384,0.010384 -0.00807,0.01777 -0.041016,0.016413 -0.036405,-0.0015 -0.043809,-0.0089 -0.01888,-0.01888 z M 7.5859375,2.2605537 c 0.021484,-0.00867 0.056641,-0.00867 0.078125,0 0.021484,0.00867 0.00391,0.015762 -0.039063,0.015762 -0.042969,0 -0.060547,-0.00709 -0.039062,-0.015762 z m 0.75,0 c 0.021484,-0.00867 0.056641,-0.00867 0.078125,0 0.021484,0.00867 0.00391,0.015762 -0.039063,0.015762 -0.042969,0 -0.060547,-0.00709 -0.039063,-0.015762 z"
       id="path823"
       inkscape:connector-curvature="0" />
    <path
       style="fill:#f0f7fe;stroke-width:0.000357143"
       d="M 1.8515805,11.687792 C 1.5504171,11.580375 1.4150809,11.437556 1.3430902,11.151188 1.2600668,10.820935 1.4809653,10.458952 1.8268942,10.358389 1.9221024,10.330711 2,10.295 2,10.279032 c 0,-0.01597 0.045703,-0.02924 0.1015625,-0.02949 0.1507598,-6.84e-4 0.4760608,-0.08379 0.6245902,-0.159564 C 2.9196271,9.9912705 3.20342,9.7049725 3.3654037,9.4450803 3.6698612,8.9565979 3.8740881,8.3671659 4.2634963,6.8530375 4.6528818,5.3389979 4.8049544,4.8635597 5.0936928,4.2575231 5.4934193,3.4185313 6.0073659,2.8608326 6.6737519,2.5429542 7.1096331,2.3350306 7.4222894,2.2694434 7.984375,2.2680189 c 0.2710541,-6.835e-4 0.5478284,0.015878 0.65625,0.039276 1.1482783,0.2478055 1.97129,0.9690533 2.626891,2.3020804 0.333451,0.6780034 0.452535,1.0097359 1.155451,3.21875 0.243699,0.7658591 0.398825,1.1670528 0.6102,1.578125 0.253978,0.4939268 0.547887,0.7880207 0.829767,0.8302917 0.07539,0.01131 0.137066,0.03135 0.137066,0.04455 0,0.01319 0.0668,0.04078 0.148438,0.06131 0.295813,0.07437 0.467919,0.245648 0.540257,0.537665 0.02977,0.120193 0.02714,0.176459 -0.01503,0.321543 -0.07378,0.25379 -0.230398,0.400418 -0.519743,0.486589 -0.264939,0.0789 -0.470311,0.06663 -0.841418,-0.05027 C 12.948708,11.523332 12.70749,11.365806 12.359375,11.015493 11.763046,10.415399 11.445592,9.7419144 10.828575,7.7678766 10.350415,6.2380828 10.119131,5.6146013 9.8365947,5.09375 9.3493416,4.1955057 8.8398075,3.8019372 8.109375,3.7596307 7.6167497,3.7310979 7.2807528,3.8455688 6.960494,4.1510437 6.4894078,4.6003841 6.2249903,5.24759 5.7365037,7.1469625 5.3471182,8.6610021 5.1950456,9.1364403 4.9063072,9.7424769 4.6147359,10.35446 4.2337146,10.848742 3.8002646,11.177295 3.2452081,11.598026 2.2966223,11.846527 1.8515805,11.687792 Z"
       id="path821"
       inkscape:connector-curvature="0" />
    <path
       style="fill:#000000;stroke-width:0.000357143"
       d="M 1.6779227,12.171007 C 1.4001959,12.073939 1.2829223,11.998926 1.1124149,11.80928 0.908752,11.582758 0.83083447,11.363142 0.83083447,11.015625 c 0,-0.222262 0.0155278,-0.320575 0.0740356,-0.46875 C 1.0014452,10.302292 1.2919036,10.00464 1.515625,9.9209941 1.601562,9.8888631 1.7088045,9.8358891 1.7539405,9.8032734 c 0.05043,-0.036441 0.1708951,-0.069332 0.3125,-0.08532 C 2.3399587,9.6870697 2.3809936,9.6734287 2.5549396,9.5555641 2.9859186,9.2635359 3.2731771,8.5695959 3.7809909,6.59375 4.37804,4.2707 4.7444584,3.4638791 5.5590572,2.6786036 5.9799834,2.2728296 6.3734453,2.0374474 6.890625,1.8820149 7.2855869,1.7633136 7.5019497,1.7419706 8.1507115,1.7577144 c 0.552907,0.013418 0.6432741,0.023445 0.8961635,0.099438 0.40343,0.1212312 0.7324375,0.2711169 1.02558,0.4672232 0.826977,0.5532305 1.463217,1.4319291 1.993908,2.7537491 0.139338,0.3470547 0.252735,0.6858287 0.889114,2.65625 0.260346,0.8061109 0.472927,1.3232528 0.665357,1.618606 0.175051,0.2686784 0.254768,0.3369065 0.431977,0.3697215 0.08267,0.015309 0.18547,0.053044 0.228439,0.083853 0.04297,0.03081 0.148438,0.082308 0.234375,0.1144384 0.223722,0.083646 0.51418,0.3812974 0.610755,0.6258814 0.103047,0.260973 0.104556,0.673016 0.0034,0.928176 -0.08208,0.207046 -0.299972,0.463094 -0.484959,0.569889 -0.216219,0.124828 -0.544299,0.20506 -0.838504,0.20506 -0.352671,0 -0.6829,-0.08644 -1.082165,-0.283271 C 12.442059,11.827663 12.358093,11.765766 12.05721,11.475075 11.338386,10.780601 10.990979,10.074046 10.331598,7.9655193 9.8507461,6.4278856 9.69488,6.0036557 9.3984713,5.4257731 8.9737072,4.5976469 8.5226722,4.249499 7.9243557,4.2879225 7.8021081,4.295773 7.6471975,4.3283331 7.578125,4.360695 7.3603878,4.4627097 7.1449016,4.7161675 6.9573034,5.0909138 6.7316834,5.5416119 6.56436,6.0666928 6.2194938,7.40625 5.6224794,9.7252222 5.2607666,10.523588 4.448031,11.31619 3.8102818,11.938141 3.0499449,12.25392 2.2051981,12.247674 1.9586746,12.245857 1.8446125,12.229267 1.6779227,12.171007 Z M 2.828125,11.657418 C 3.3708778,11.516106 3.9284369,11.164211 4.2972769,10.730181 4.8552062,10.073643 5.1950997,9.2769109 5.6286437,7.609375 6.1330612,5.6692396 6.2163019,5.4022953 6.4861697,4.859375 6.69574,4.4377606 6.9024331,4.174456 7.1575719,4.004081 7.4219975,3.8275041 7.631855,3.7711544 8.015625,3.7736807 c 0.6744875,0.00444 1.1566369,0.3023784 1.6093906,0.9945018 0.3982424,0.6087915 0.5950314,1.116645 1.3128514,3.3880675 0.105916,0.3351563 0.261931,0.7953057 0.346697,1.0225544 0.565422,1.5158206 1.231664,2.2839086 2.186182,2.5203796 0.266473,0.06602 0.437934,0.06385 0.675891,-0.0085 0.324454,-0.09867 0.466209,-0.239894 0.541523,-0.539482 0.08376,-0.333174 -0.137651,-0.692171 -0.490078,-0.794624 -0.09866,-0.02868 -0.196706,-0.06947 -0.217883,-0.09065 -0.02118,-0.02118 -0.09328,-0.04726 -0.160239,-0.05797 C 13.545516,10.164055 13.260663,9.844126 12.980953,9.2656221 12.76,8.8086432 12.614756,8.4097057 12.281239,7.34375 11.505464,4.8642794 11.126989,4.05379 10.382559,3.2777906 9.92846,2.8044349 9.4712578,2.5221956 8.8853869,2.353559 8.4900057,2.2397528 7.7705766,2.2173646 7.3434365,2.3055744 6.7598294,2.4260966 6.2546229,2.7019549 5.8390847,3.1269969 5.212885,3.7675185 4.8337406,4.6107678 4.3716825,6.390625 3.8815722,8.2785394 3.7876135,8.5828685 3.5322932,9.109375 c -0.3404754,0.7021084 -0.7178409,1.028094 -1.279277,1.1051 -0.1272473,0.01745 -0.2405472,0.0466 -0.2517776,0.06477 -0.01123,0.01817 -0.094222,0.05495 -0.1844258,0.08174 -0.3367553,0.100006 -0.5555028,0.464891 -0.4737226,0.790199 0.071961,0.286249 0.2070567,0.42888 0.5084903,0.536855 0.2095584,0.07506 0.6200547,0.06219 0.9765445,-0.03063 z"
       id="path819"
       inkscape:connector-curvature="0" />
  </g>
</svg>
