<?xml version="1.0" encoding="UTF-8" standalone="no"?>
<!-- Created with Inkscape (http://www.inkscape.org/) -->

<svg
   version="1.1"
   id="svg2"
   width="1600"
   height="1600"
   viewBox="0 0 1600 1600"
   sodipodi:docname="snap_midpoint.svg"
   inkscape:version="1.2.2 (732a01da63, 2022-12-09)"
   xmlns:inkscape="http://www.inkscape.org/namespaces/inkscape"
   xmlns:sodipodi="http://sodipodi.sourceforge.net/DTD/sodipodi-0.dtd"
   xmlns="http://www.w3.org/2000/svg"
   xmlns:svg="http://www.w3.org/2000/svg"
   xmlns:rdf="http://www.w3.org/1999/02/22-rdf-syntax-ns#"
   xmlns:cc="http://creativecommons.org/ns#"
   xmlns:dc="http://purl.org/dc/elements/1.1/">
  <metadata
     id="metadata8">
    <rdf:RDF>
      <cc:Work
         rdf:about="">
        <dc:format>image/svg+xml</dc:format>
        <dc:type
           rdf:resource="http://purl.org/dc/dcmitype/StillImage" />
      </cc:Work>
    </rdf:RDF>
  </metadata>
  <defs
     id="defs6" />
  <sodipodi:namedview
     pagecolor="#808080"
     bordercolor="#666666"
     borderopacity="1"
     objecttolerance="10"
     gridtolerance="10"
     guidetolerance="10"
     inkscape:pageopacity="0"
     inkscape:pageshadow="2"
     inkscape:window-width="1993"
     inkscape:window-height="1009"
     id="namedview4"
     showgrid="false"
     inkscape:zoom="0.5"
     inkscape:cx="549"
     inkscape:cy="462"
     inkscape:window-x="-8"
     inkscape:window-y="-8"
     inkscape:window-maximized="1"
     inkscape:current-layer="SNAP_MIDPOINT"
     inkscape:showpageshadow="0"
     inkscape:pagecheckerboard="true"
     inkscape:deskcolor="#d1d1d1" />
  <g
     id="SNAP_MIDPOINT"
     transform="matrix(100,0,0,100,0,4.9999997e-5)"
     style="stroke-width:0.0114286">
    <path
       style="fill:none;stroke-width:0.000357143"
       d="M 0.00248437,12.117188 C 0.00466183,8.7140478 0.0103582,8.2594684 0.04859484,8.4375 0.16767678,8.9919506 0.58422312,9.5252494 1.0948078,9.7769522 1.351872,9.9036769 1.6932042,9.9983528 1.8969991,9.9994575 L 1.9971231,10 l 0.00925,1.148438 0.00925,1.148437 0.077379,0.15625 c 0.096576,0.195013 0.2876188,0.388805 0.4703106,0.477079 0.076896,0.03715 1.3984037,0.521158 2.936685,1.075563 l 2.796875,1.008009 0.296875,-4.57e-4 0.296875,-4.56e-4 2.8437503,-1.02444 c 1.977525,-0.712388 2.893006,-1.05665 3.005453,-1.130184 0.182796,-0.11954 0.322241,-0.30342 0.396913,-0.523395 0.04584,-0.135051 0.05076,-0.55323 0.05076,-4.319219 0,-3.7659888 -0.0049,-4.1841681 -0.05076,-4.3192203 C 15.062069,3.4764294 14.922624,3.2925491 14.739828,3.1730097 14.627381,3.0994752 13.7119,2.7552134 11.734375,2.042825 L 8.890625,1.0183854 8.59375,1.0179298 8.296875,1.0174742 5.5,2.0254832 C 3.9617188,2.5798881 2.6402105,3.0638915 2.563315,3.1010462 2.3806232,3.18932 2.1895801,3.3831125 2.0930044,3.578125 L 2.015625,3.734375 2.0063574,4.8671875 1.9970898,6 1.8969824,6.0005437 C 1.693203,6.0016469 1.351864,6.0963281 1.0948078,6.2230491 0.58422312,6.4747506 0.16767678,7.0080494 0.04859484,7.5625 0.0103582,7.7405316 0.00466183,7.2859522 0.00248437,3.8828125 L 0,0 h 8 8 v 8 8 H 8 0 Z"
       id="path827"
       inkscape:connector-curvature="0" />
    <path
       style="fill:#fefefe;stroke-width:0.000357143"
       d="M 1,8 V 7 H 2 3 V 8 9 H 2 1 Z M 8.2457853,5.9043419 C 7.0393463,5.4861091 3.0570669,4.0392397 3.0524466,4.0174619 3.0493822,4.0030178 4.2942716,3.54326 5.8188675,2.9957777 L 8.59086,2.0003556 11.353265,2.9923653 c 1.519323,0.5456053 2.76802,1.0040197 2.774883,1.0186984 0.0069,0.014679 -1.119554,0.433151 -2.503148,0.9299375 -1.383594,0.4967866 -2.6300216,0.9444719 -2.7698397,0.9948557 l -0.2542147,0.091607 z"
       id="path825"
       inkscape:connector-curvature="0" />
    <path
       style="fill:#cbcbcb;stroke-width:0.000357143"
       d="M 6.25,13.192244 C 5.0210938,12.74972 3.7871094,12.305804 3.5078125,12.205766 L 3,12.023878 3.0008058,10.879127 3.0016116,9.734375 3.1594231,9.6272994 C 3.6561722,9.2902528 3.9989147,8.6258688 3.9989147,8 c 0,-0.6258688 -0.3427425,-1.2902528 -0.8394916,-1.6272994 L 3.0016116,6.265625 3.0008058,5.1352075 3,4.0047903 3.0859375,4.046145 C 3.2271322,4.1140906 8.5000197,6 8.5487969,6 c 0.03887,0 0.044953,0.5412794 0.044953,4 0,3.789293 -0.00288,3.999917 -0.054687,3.998417 C 8.5089844,13.997545 7.4789062,13.634769 6.25,13.192244 Z"
       id="path823"
       inkscape:connector-curvature="0" />
    <path
       style="fill:#989898;stroke-width:0.000357143"
       d="M 8.59375,10.028143 8.609375,6.02434 11.34375,5.0439472 c 1.503906,-0.5392159 2.758984,-0.9948116 2.789063,-1.0124347 0.05196,-0.030448 0.05469,0.1675781 0.05469,3.9788194 v 4.0108611 l -2.773437,0.994659 c -1.5253911,0.547063 -2.7875005,0.999482 -2.804688,1.005376 -0.02078,0.0071 -0.026015,-1.330737 -0.015625,-3.993085 z"
       id="path821"
       inkscape:connector-curvature="0" />
    <path
       style="fill:#323232;stroke-width:0.000357143"
       d="M 7.90625,14.864827 C 6.5454241,14.386798 2.6849158,12.988938 2.563315,12.930193 2.3806309,12.841937 2.189584,12.648145 2.0930044,12.453125 L 2.015625,12.296875 2.0063741,11.148438 1.9971231,10 1.8969991,9.9994575 C 1.6932042,9.9983528 1.351872,9.9036769 1.0948078,9.7769522 0.44012566,9.4542134 0.00108523,8.7409122 0.00108523,8 c 0,-0.7409122 0.43904043,-1.4542134 1.09372257,-1.7769522 C 1.351864,6.0963269 1.693203,6.0016472 1.8969824,6.0005425 L 1.9970898,6 2.0063574,4.8671875 2.015625,3.734375 2.0930044,3.578125 C 2.1895801,3.3831125 2.3806232,3.18932 2.563315,3.1010462 2.6402105,3.0638915 3.9617188,2.5798881 5.5,2.0254832 l 2.796875,-1.008009 0.296875,4.557e-4 0.296875,4.556e-4 2.84375,1.0244395 c 1.977525,0.7123885 2.893006,1.0566503 3.005453,1.1301848 0.182796,0.1195393 0.322241,0.3034196 0.396913,0.523395 0.04584,0.1350521 0.05076,0.5532314 0.05076,4.3192202 0,3.765989 -0.0049,4.184168 -0.05076,4.31922 -0.07467,0.219976 -0.214117,0.403856 -0.396913,0.523395 -0.112775,0.07375 -1.022152,0.415045 -3.005453,1.127967 -3.3929853,1.219651 -3.0689906,1.145288 -3.828125,0.87862 z M 11.414063,13.015852 14.1875,12.021193 V 8.0156069 4.0100206 L 11.389201,3.0052328 8.5909025,2.000445 5.9282637,2.9571779 C 4.4638125,3.4833809 3.2058594,3.9346028 3.1328125,3.9598931 L 3,4.005875 3.0008056,5.13575 3.0016116,6.265625 3.1594231,6.3727006 C 3.6561722,6.7097472 3.9989147,7.3741313 3.9989147,8 c 0,0.6258688 -0.3427425,1.2902528 -0.8394916,1.6272994 L 3.0016116,9.734375 3.0008058,10.878988 3,12.023602 3.4453125,12.183369 c 0.2449219,0.08787 1.5,0.539138 2.7890625,1.002813 1.2890625,0.463674 2.3578125,0.838834 2.375,0.833687 0.017188,-0.0051 1.2792969,-0.456954 2.804688,-1.004017 z M 3,8 V 7 H 2 1 v 1 1 h 1 1 z"
       id="path819"
       inkscape:connector-curvature="0" />
  </g>
</svg>
