<?xml version="1.0" encoding="UTF-8" standalone="no"?>
<!-- Created with Inkscape (http://www.inkscape.org/) -->

<svg
   version="1.1"
   id="svg2"
   width="1600"
   height="1600"
   viewBox="0 0 1600 1600"
   sodipodi:docname="snaptopixel_off.svg"
   inkscape:version="1.2.2 (732a01da63, 2022-12-09)"
   xmlns:inkscape="http://www.inkscape.org/namespaces/inkscape"
   xmlns:sodipodi="http://sodipodi.sourceforge.net/DTD/sodipodi-0.dtd"
   xmlns="http://www.w3.org/2000/svg"
   xmlns:svg="http://www.w3.org/2000/svg"
   xmlns:rdf="http://www.w3.org/1999/02/22-rdf-syntax-ns#"
   xmlns:cc="http://creativecommons.org/ns#"
   xmlns:dc="http://purl.org/dc/elements/1.1/">
  <metadata
     id="metadata8">
    <rdf:RDF>
      <cc:Work
         rdf:about="">
        <dc:format>image/svg+xml</dc:format>
        <dc:type
           rdf:resource="http://purl.org/dc/dcmitype/StillImage" />
      </cc:Work>
    </rdf:RDF>
  </metadata>
  <defs
     id="defs6" />
  <sodipodi:namedview
     pagecolor="#808080"
     bordercolor="#666666"
     borderopacity="1"
     objecttolerance="10"
     gridtolerance="10"
     guidetolerance="10"
     inkscape:pageopacity="0"
     inkscape:pageshadow="2"
     inkscape:window-width="2560"
     inkscape:window-height="1009"
     id="namedview4"
     showgrid="false"
     inkscape:zoom="0.5"
     inkscape:cx="966"
     inkscape:cy="1386"
     inkscape:window-x="-8"
     inkscape:window-y="-8"
     inkscape:window-maximized="1"
     inkscape:current-layer="SNAPTOPIXEL_OFF"
     inkscape:showpageshadow="0"
     inkscape:pagecheckerboard="true"
     inkscape:deskcolor="#d1d1d1" />
  <g
     id="SNAPTOPIXEL_OFF"
     transform="scale(99.999883)"
     style="stroke-width:0.01">
    <path
       style="fill:none;stroke-width:0.000312501"
       d="M 0,8 V 0 h 8 8 L 15.9972,4.6328125 C 15.9948,8.6745384 15.9889,9.2351897 15.95122,9.0270797 15.845902,8.4452284 15.509528,7.6385356 15.168279,7.1494412 L 15,6.9082572 V 3.9541288 1 H 8 1 v 7 7 H 3.5 6 v 0.108203 c 0,0.306092 0.2940231,0.704754 0.6110609,0.82853 0.1542438,0.06022 0.1475519,0.06035 -3.2282484,0.0618 L 0,16 Z m 9.3889391,7.936733 C 9.7059769,15.812957 10,15.414295 10,15.108203 V 15 h 1 1 v 0.108203 c 0,0.306092 0.294023,0.704754 0.611061,0.82853 l 0.154564,0.06034 H 11 9.234375 Z m 6.0022339,-3.35e-4 c 0.203455,-0.0783 0.464772,-0.340528 0.54556,-0.547458 l 0.06034,-0.154564 0.0015,0.382812 L 16,16 15.617188,15.9984 15.234375,15.9968 15.391173,15.93645 Z"
       id="path851"
       inkscape:connector-curvature="0" />
    <path
       style="fill:#fefefe;stroke-width:0.000312501"
       d="M 6.6110609,15.936733 C 6.3977378,15.853449 6.1415391,15.594703 6.0620584,15.382272 6.0028741,15.224087 6,15.135761 6,13.475024 V 11.733642 L 6.5,11.234375 7,10.735107 V 12.867554 15 h 0.9990072 0.9990072 l 0.00881,-2.695312 0.00881,-2.695313 0.083732,-0.2292162 C 9.2183028,9.0545409 9.3599528,8.8302109 9.5950819,8.5950819 9.8319822,8.3581816 10.057859,8.2161919 10.380159,8.1015703 10.580601,8.0302856 10.658412,8.0200525 11,8.0200525 c 0.341588,0 0.419399,0.010233 0.619841,0.081518 0.3223,0.1146216 0.548177,0.2566113 0.785077,0.4935116 0.235129,0.235129 0.376779,0.459459 0.495725,0.7850769 l 0.08373,0.2292162 0.0088,2.6953128 L 13.001986,15 h 1.000109 1.000109 l -0.0099,-2.820312 -0.0099,-2.820313 -0.08264,-0.3125 C 14.55392,7.7390028 13.676441,6.7442975 12.4375,6.2556625 12.308594,6.2048222 12.087153,6.1371844 11.945411,6.1053566 l -0.257714,-0.057869 0.42672,-0.4275385 0.42672,-0.4275387 0.221619,0.079651 c 0.341388,0.1226957 0.849808,0.38893 1.143494,0.5987913 0.330618,0.2362525 0.998483,0.9058878 1.235248,1.2385231 0.361601,0.5080194 0.704649,1.3290553 0.811627,1.9425128 C 15.992561,9.2780263 16,9.7885378 16,12.268546 c 0,3.385817 0.02104,3.136241 -0.290274,3.443685 C 15.418976,15.999369 15.415232,16 14.000837,16 12.58011,16 12.573297,15.998847 12.287769,15.709726 11.981389,15.399492 12,15.597726 12,12.644555 12,11.034372 11.988128,10.00843 11.968284,9.903795 11.902252,9.5556094 11.692132,9.2721316 11.38981,9.1233625 c -0.21986,-0.1081903 -0.55976,-0.1081903 -0.77962,0 C 10.307868,9.2721316 10.097747,9.5556094 10.031716,9.903795 10.011872,10.00843 10,11.034372 10,12.644555 c 0,2.953171 0.01861,2.754938 -0.2877691,3.065171 -0.2860772,0.289676 -0.2910997,0.290518 -1.7212156,0.288812 -1.1345691,-0.0014 -1.2368459,-0.0059 -1.3799544,-0.0618 z M 6.5433584,7.6328125 C 6.7515188,7.2195653 7.0184737,6.8699412 7.4600184,6.4322866 7.9096084,5.9866572 8.2291625,5.7453497 8.640625,5.5407659 L 8.921875,5.4009253 7.6720216,6.6535875 C 6.9846022,7.3425519 6.4184453,7.90625 6.4138953,7.90625 c -0.00455,0 0.053708,-0.1230469 0.1294631,-0.2734375 z"
       id="path849"
       inkscape:connector-curvature="0" />
    <path
       style="fill:#6598cb;stroke-width:0.000312501"
       d="M 7,13.5 V 12 H 8 9 V 13.5 15 H 8 7 Z m 6,0 V 12 h 1 1 v 1.5 1.5 h -1 -1 z"
       id="path847"
       inkscape:connector-curvature="0" />
    <path
       style="fill:#989898;stroke-width:0.000312501"
       d="m 10,12.535515 c 0,-1.536422 0.01194,-2.527461 0.03172,-2.63172 0.06603,-0.3481856 0.276152,-0.6316634 0.578474,-0.7804325 0.21986,-0.1081903 0.55976,-0.1081903 0.77962,0 0.302322,0.1487691 0.512443,0.4322469 0.578474,0.7804325 C 11.988057,10.008054 12,10.999093 12,12.535515 V 15 H 11 10 Z M 1,4.5001744 V 1 H 4.5 8 V 3.4530128 5.9060256 L 7.5379037,6.3569978 C 7.0253109,6.8572509 6.7885547,7.1625131 6.5317506,7.6542825 L 6.359375,7.984375 3.6796875,7.9923619 1,8.0003491 Z"
       id="path845"
       inkscape:connector-curvature="0" />
    <path
       style="fill:#656565;stroke-width:0.000312501"
       d="M 1,11.5 V 8 h 2.6635409 2.6635407 l -2.1598988,2.164063 c -2.0476855,2.051632 -2.1636708,2.173803 -2.2324987,2.351562 -0.103068,0.266189 -0.1024427,0.67442 0.00144,0.9375 0.1016308,0.257387 0.384618,0.540374 0.6420049,0.642005 0.2634892,0.10404 0.6715463,0.104537 0.9375,0.0011 0.1737157,-0.06754 0.2719297,-0.156966 1.3359375,-1.216436 L 6,11.736294 v 1.631853 1.631854 H 3.5 1 Z M 14.609375,6.5071653 C 14.403125,6.2925256 14.114844,6.0270834 13.96875,5.9172937 13.684017,5.7033162 13.112299,5.39626 12.78125,5.2795156 12.669531,5.2401181 12.571997,5.2030288 12.564508,5.1970953 12.557018,5.1911616 12.88909,4.8455597 13.302446,4.4290909 13.980418,3.7460134 14.06117,3.6535169 14.127209,3.484375 14.230951,3.2186672 14.23059,2.8107939 14.126381,2.546875 14.024749,2.2894881 13.741762,2.0065009 13.484375,1.90487 13.221176,1.8009443 12.812996,1.8003566 12.546875,1.9035203 12.370401,1.9719319 12.258307,2.0768859 10.640625,3.6883526 8.9485325,5.3739439 8.9177553,5.4025398 8.65625,5.5320886 8.5101563,5.6044629 8.3027344,5.724817 8.1953125,5.7995426 L 8,5.9354069 V 3.4677034 1 h 3.5 3.5 v 2.953125 c 0,1.6242187 -0.0035,2.9511378 -0.0078,2.9487094 -0.0043,-0.00243 -0.176563,-0.1800297 -0.382813,-0.3946691 z"
       id="path843"
       inkscape:connector-curvature="0" />
    <path
       style="fill:#fe0000;stroke-width:0.000312501"
       d="M 2.8346027,13.638496 C 2.5102681,13.535817 2.294638,13.165854 2.3743402,12.848812 c 0.020144,-0.08013 0.06304,-0.187875 0.095326,-0.239437 0.032286,-0.05156 2.3339594,-2.367376 5.1148301,-5.1462516 l 5.0561287,-5.0525018 0.182438,-0.052078 c 0.150958,-0.043092 0.207578,-0.04585 0.328125,-0.015989 0.291048,0.072098 0.463324,0.244545 0.536972,0.5375067 0.03046,0.1211654 0.02786,0.1763937 -0.01545,0.328125 L 13.620629,3.390625 8.5525022,8.4616388 C 5.1242656,11.891828 3.4439288,13.552217 3.359375,13.593116 3.18207,13.67888 3.0093443,13.693817 2.8346027,13.638496 Z"
       id="path841"
       inkscape:connector-curvature="0" />
    <path
       style="fill:#7f0000;stroke-width:0.000312501"
       d="M 2.6823866,14.129393 C 2.4437626,14.050575 2.3106485,13.963756 2.1436649,13.77803 1.940002,13.551508 1.8620845,13.331892 1.8620845,12.984375 c 0,-0.219137 0.015972,-0.322658 0.072322,-0.46875 0.06961,-0.180468 0.266462,-0.38164 5.2486452,-5.3638231 4.9821833,-4.9821832 5.1833553,-5.1790355 5.3638233,-5.2486452 0.266412,-0.1027599 0.674805,-0.1020135 0.9375,0.00171 0.257387,0.1016309 0.540374,0.3846181 0.642005,0.642005 0.103727,0.2626951 0.104473,0.6710884 0.0017,0.9375 -0.0696,0.1804712 -0.26645,0.3816431 -5.2486328,5.3638265 -5.0202616,5.0202628 -5.181975,5.1784338 -5.3638222,5.2463398 -0.2590369,0.09673 -0.6024221,0.111094 -0.8332384,0.03486 z M 3.359375,13.593116 c 0.084554,-0.0409 1.7648906,-1.701288 5.1931272,-5.1314772 L 13.620629,3.390625 13.672707,3.2081866 C 13.716019,3.0564553 13.71862,3.001227 13.68816,2.8800616 13.614512,2.5870999 13.442236,2.4146527 13.151188,2.3425549 13.030641,2.3126931 12.974021,2.3154521 12.823063,2.3585436 L 12.640625,2.4106216 7.5844966,7.4631234 C 4.8036259,10.241999 2.5019524,12.557813 2.4696665,12.609375 c -0.1746874,0.278986 -0.1368393,0.629702 0.092729,0.859271 0.2144201,0.21442 0.5142216,0.261242 0.7969795,0.12447 z"
       id="path839"
       inkscape:connector-curvature="0" />
    <path
       style="fill:#000000;stroke-width:0.000312501"
       d="m 7,11.367109 v -0.63289 l 2.3425216,-2.3423659 2.3425214,-2.3423653 0.196541,0.040334 c 0.652548,0.1339162 1.346249,0.5027719 1.867163,0.99281 0.557837,0.5247734 0.948596,1.1922856 1.149859,1.9642431 0.0804,0.3083838 0.08163,0.3298916 0.09356,1.6328131 L 15.004242,12 h -1.000114 -1.000113 l -0.01088,-1.195312 -0.01088,-1.195313 -0.08268,-0.2292162 C 12.782721,9.0561478 12.640895,8.8310584 12.404918,8.5950819 12.168018,8.3581816 11.942141,8.2161919 11.619841,8.1015703 11.419399,8.0302856 11.341588,8.0200525 11,8.0200525 c -0.341588,0 -0.419399,0.010233 -0.619841,0.081518 C 10.057859,8.2161919 9.8319822,8.3581816 9.5950819,8.5950819 9.3591053,8.8310584 9.2172788,9.0561478 9.1004131,9.3801588 L 9.0177384,9.609375 9.0068619,10.804688 8.995985,12 H 7.9979925 7 Z"
       id="path837"
       inkscape:connector-curvature="0" />
  </g>
</svg>
