<?xml version="1.0" encoding="UTF-8" standalone="no"?>
<!-- Created with Inkscape (http://www.inkscape.org/) -->

<svg
   version="1.1"
   id="svg2"
   width="1600"
   height="1600"
   viewBox="0 0 1600 1600"
   sodipodi:docname="snap_peel_object.svg"
   inkscape:version="1.2.2 (732a01da63, 2022-12-09)"
   xmlns:inkscape="http://www.inkscape.org/namespaces/inkscape"
   xmlns:sodipodi="http://sodipodi.sourceforge.net/DTD/sodipodi-0.dtd"
   xmlns="http://www.w3.org/2000/svg"
   xmlns:svg="http://www.w3.org/2000/svg"
   xmlns:rdf="http://www.w3.org/1999/02/22-rdf-syntax-ns#"
   xmlns:cc="http://creativecommons.org/ns#"
   xmlns:dc="http://purl.org/dc/elements/1.1/">
  <metadata
     id="metadata8">
    <rdf:RDF>
      <cc:Work
         rdf:about="">
        <dc:format>image/svg+xml</dc:format>
        <dc:type
           rdf:resource="http://purl.org/dc/dcmitype/StillImage" />
      </cc:Work>
    </rdf:RDF>
  </metadata>
  <defs
     id="defs6" />
  <sodipodi:namedview
     pagecolor="#808080"
     bordercolor="#666666"
     borderopacity="1"
     objecttolerance="10"
     gridtolerance="10"
     guidetolerance="10"
     inkscape:pageopacity="0"
     inkscape:pageshadow="2"
     inkscape:window-width="1993"
     inkscape:window-height="1009"
     id="namedview4"
     showgrid="false"
     inkscape:zoom="0.5"
     inkscape:cx="9"
     inkscape:cy="8"
     inkscape:window-x="-8"
     inkscape:window-y="-8"
     inkscape:window-maximized="1"
     inkscape:current-layer="SNAP_PEEL_OBJECT"
     inkscape:showpageshadow="0"
     inkscape:pagecheckerboard="true"
     inkscape:deskcolor="#d1d1d1" />
  <g
     id="SNAP_PEEL_OBJECT"
     transform="matrix(100,0,0,100,0,4.9999997e-5)"
     style="stroke-width:0.0114286">
    <path
       style="fill:none;stroke-width:0.000357143"
       d="M 0,8 V 0 h 8 8 v 8 8 H 8 0 Z m 5.2692312,7.419944 C 5.4822022,15.260908 5.484375,15.251618 5.484375,14.5 c 0,-0.751607 -0.00217,-0.760884 -0.2151241,-0.919944 -0.08353,-0.06239 -0.1287222,-0.06471 -1.4267943,-0.07321 l -1.3405321,-0.0088 -0.00877,-1.340533 c -0.0085,-1.298042 -0.01082,-1.343234 -0.07321,-1.426764 C 2.2608844,10.517794 2.2516073,10.515625 1.5,10.515625 c -0.75161722,0 -0.76090744,0.0022 -0.91994409,0.215143 -0.0633569,0.08484 -0.0645832,0.121276 -0.0735644,2.185569 -0.005023,1.154608 -9.4813e-4,2.144577 0.009056,2.19993 0.0226369,0.125251 0.15392441,0.284851 0.27977825,0.340113 0.0771085,0.03386 0.50496084,0.04052 2.24146134,0.03492 2.113397,-0.0068 2.1474795,-0.0079 2.2324441,-0.07136 z m 9.9999998,0 c 0.04746,-0.03544 0.115276,-0.103265 0.150713,-0.150729 0.06364,-0.08523 0.06443,-0.113229 0.06443,-2.269215 0,-2.155986 -7.94e-4,-2.183982 -0.06443,-2.269215 -0.159016,-0.212984 -0.168318,-0.21516 -0.919944,-0.21516 -0.751607,0 -0.760884,0.0022 -0.919944,0.215124 -0.06239,0.08353 -0.06471,0.128722 -0.07321,1.426794 l -0.0088,1.340533 -1.340533,0.0088 c -1.298072,0.0085 -1.343264,0.01082 -1.426794,0.07321 -0.207369,0.154888 -0.214199,0.180279 -0.224929,0.836193 -0.01129,0.690233 -0.0021,0.765043 0.111062,0.899473 0.159229,0.189233 0.07531,0.183144 2.419905,0.175578 2.113397,-0.0068 2.14748,-0.0079 2.232444,-0.07136 z m -3.000011,-3 c 0.04746,-0.03544 0.115287,-0.103265 0.150724,-0.150729 0.06432,-0.08616 0.06443,-0.09325 0.06443,-4.269215 0,-4.1759647 -9.4e-5,-4.1830603 -0.06443,-4.269215 C 12.384507,3.6833209 12.316679,3.6154928 12.269215,3.5800559 12.18306,3.5157322 12.175965,3.515625 8,3.515625 c -4.1759647,0 -4.1830603,9.38e-5 -4.269215,0.064431 C 3.6833209,3.6154928 3.6154928,3.6833209 3.5800559,3.730785 3.5176359,3.8143897 3.515625,3.8540038 3.515625,5 c 0,1.1459962 0.00201,1.1856103 0.064431,1.269215 0.035437,0.047464 0.1032607,0.1152922 0.1507191,0.1507291 0.085473,0.063822 0.11313,0.064509 2.9277566,0.072729 L 9.5,6.5009709 V 8 9.4990291 l -2.8414684,0.0083 C 3.843905,9.5155491 3.8162484,9.5162391 3.730775,9.5800581 3.683317,9.6154951 3.6154928,9.683301 3.5800559,9.7307378 c -0.061764,0.08268 -0.06482,0.1317441 -0.073832,1.1855692 -0.00517,0.604626 -0.00109,1.144609 0.00906,1.199963 0.02301,0.125468 0.1544291,0.285003 0.2800456,0.339958 0.078132,0.03418 0.8422057,0.04047 4.2414503,0.03492 4.1335932,-0.0068 4.1464122,-0.007 4.2324442,-0.0712 z M 2.2693105,5.4199441 c 0.047411,-0.035437 0.1151966,-0.1032488 0.1506336,-0.1506932 0.06239,-0.08353 0.064709,-0.1287221 0.073206,-1.4267943 l 0.00877,-1.3405321 1.3405321,-0.00877 c 1.2980766,-0.0085 1.3432687,-0.01082 1.4267987,-0.07321 C 5.4822056,2.2608844 5.484375,2.2516073 5.484375,1.5 5.484375,0.74837375 5.482195,0.73907169 5.269215,0.58005591 5.1839816,0.51641991 5.1559856,0.515625 3,0.515625 c -2.15598575,0 -2.18398153,7.95e-4 -2.26921503,0.0644309 -0.047464,0.035437 -0.11529209,0.1032574 -0.15072906,0.15071203 -0.0633569,0.0848428 -0.0645832,0.12127625 -0.0735644,2.18556907 -0.005023,1.1546083 -9.4812e-4,2.1445771 0.009056,2.1999305 0.0100042,0.055353 0.0556046,0.1451081 0.10133422,0.1994547 0.14527975,0.172655 0.20679547,0.184434 0.91998467,0.1761547 0.5974616,-0.00694 0.6527482,-0.012365 0.7324441,-0.071933 z m 13.0000005,0 c 0.04741,-0.035437 0.115196,-0.103265 0.150633,-0.1507291 0.06364,-0.085233 0.06443,-0.1132294 0.06443,-2.269215 0,-2.15598575 -7.94e-4,-2.18398153 -0.06443,-2.26921503 C 15.384507,0.68332097 15.316679,0.61549288 15.269215,0.58005591 15.183982,0.51641991 15.155986,0.515625 13,0.515625 c -2.155986,0 -2.183982,7.95e-4 -2.269215,0.0644309 -0.212984,0.15901579 -0.21516,0.16831785 -0.21516,0.9199441 0,0.7516073 0.0022,0.7608844 0.215124,0.9199441 0.08353,0.062392 0.128714,0.064709 1.427757,0.073208 L 13.5,2.5019287 V 3.795805 c 0,0.8406359 0.01168,1.3246925 0.03333,1.3818481 0.01833,0.048385 0.06404,0.1214053 0.101562,0.1622688 0.135463,0.1475056 0.209583,0.1599928 0.901973,0.151955 0.597461,-0.00694 0.652748,-0.012365 0.732444,-0.071933 z"
       id="path827"
       inkscape:connector-curvature="0" />
    <path
       style="fill:#fefefe;stroke-width:0.000357143"
       d="m 4,11 v -1 h 3 3 V 8 6 H 7 4 V 5 4 h 4 4 v 4 4 H 8 4 Z"
       id="path825"
       inkscape:connector-curvature="0" />
    <path
       style="fill:#98cbfe;stroke-width:0.000357143"
       d="M 1,13 V 11 H 1.5 2 V 12.5 14 H 3.5 5 V 14.5 15 H 3 1 Z m 10,1.5 V 14 H 12.5 14 V 12.5 11 h 0.5 0.5 v 2 2 H 13 11 Z M 1,3 V 1 H 3 5 V 1.5 2 H 3.5 2 V 3.5 5 H 1.5 1 Z M 14,3.5 V 2 H 12.5 11 V 1.5 1 h 2 2 V 3 5 H 14.5 14 Z"
       id="path823"
       inkscape:connector-curvature="0" />
    <path
       style="fill:#003265;stroke-width:0.000357143"
       d="M 0.79532572,15.45638 C 0.66947188,15.40112 0.53818434,15.241518 0.51554747,15.116267 c -0.0100042,-0.05535 -0.0140794,-1.045322 -0.009056,-2.19993 0.008981,-2.064293 0.0102076,-2.100726 0.0735644,-2.185569 C 0.73909256,10.517798 0.74838278,10.515625 1.5,10.515625 c 0.7516073,0 0.7608844,0.0022 0.9199441,0.215124 0.06239,0.08353 0.064709,0.128722 0.073206,1.426794 l 0.00877,1.340533 1.3405321,0.0088 c 1.2980721,0.0085 1.3432643,0.01082 1.4267943,0.07321 0.2129547,0.15906 0.2151241,0.168337 0.2151241,0.919944 0,0.751618 -0.00217,0.760908 -0.2151438,0.919944 -0.084965,0.06345 -0.1190471,0.06454 -2.2324441,0.07136 -1.7365005,0.0056 -2.16435291,-0.0011 -2.24146138,-0.03492 z M 5,14.5 V 14 H 3.5 2 V 12.5 11 H 1.5 1 v 2 2 h 2 2 z m 5.795326,0.95638 c -0.125459,-0.05509 -0.256911,-0.214505 -0.28045,-0.340113 -0.01037,-0.05535 -0.01445,-0.370361 -0.0091,-0.700018 0.01073,-0.655914 0.01756,-0.681305 0.224929,-0.836193 0.08353,-0.06239 0.128722,-0.06471 1.426794,-0.07321 l 1.340533,-0.0088 0.0088,-1.340533 c 0.0085,-1.298072 0.01082,-1.343264 0.07321,-1.426794 0.15906,-0.212955 0.168337,-0.215124 0.919944,-0.215124 0.751626,0 0.760928,0.0022 0.919944,0.21516 0.06364,0.08523 0.06443,0.113229 0.06443,2.269215 0,2.155986 -7.94e-4,2.183982 -0.06443,2.269215 -0.03544,0.04746 -0.103258,0.115292 -0.150713,0.150729 -0.08496,0.06345 -0.119047,0.06454 -2.232444,0.07136 -1.7365,0.0056 -2.164353,-0.0011 -2.241461,-0.03492 z M 15,13 V 11 H 14.5 14 V 12.5 14 H 12.5 11 v 0.5 0.5 h 2 2 z M 0.79532572,5.4569566 C 0.66917056,5.4007987 0.53813278,5.2412325 0.51554747,5.1162675 0.50554325,5.0609141 0.50146806,4.0709453 0.5064915,2.916337 0.51547275,0.85204419 0.51669906,0.81561075 0.58005591,0.73076794 0.61549288,0.68331331 0.68332097,0.61549288 0.73078497,0.58005591 0.81601847,0.51641991 0.84401425,0.515625 3,0.515625 c 2.1559856,0 2.1839816,7.95e-4 2.269215,0.0644309 0.2129844,0.15901579 0.21516,0.16831785 0.21516,0.9199441 0,0.7516073 -0.00217,0.7608844 -0.2151241,0.9199441 -0.08353,0.06239 -0.1287222,0.064709 -1.4267943,0.073206 l -1.3405321,0.00877 -0.00877,1.3405321 c -0.0085,1.2980721 -0.010816,1.3432643 -0.073206,1.4267943 -0.1568664,0.2100182 -0.174237,0.2143975 -0.8830777,0.222626 -0.4900321,0.00569 -0.66927712,-0.00275 -0.74154068,-0.03492 z M 2,3.5 V 2 H 3.5 5 V 1.5 1 H 3 1 V 3 5 H 1.5 2 Z M 13.796875,5.4567987 C 13.681514,5.4044031 13.577503,5.2942347 13.533332,5.1776531 13.511676,5.1204975 13.5,4.6364409 13.5,3.795805 V 2.5019288 l -1.341494,-0.00878 C 10.859463,2.4846528 10.814282,2.4823361 10.730749,2.4199441 10.517794,2.2608844 10.515625,2.2516073 10.515625,1.5 c 0,-0.75162625 0.0022,-0.76092831 0.21516,-0.91994409 C 10.816018,0.51641991 10.844014,0.515625 13,0.515625 c 2.155986,0 2.183982,7.95e-4 2.269215,0.0644309 0.04746,0.035437 0.115292,0.10326506 0.150729,0.15072906 0.06364,0.0852335 0.06443,0.11322928 0.06443,2.26921504 0,2.1559856 -7.94e-4,2.1839816 -0.06443,2.269215 -0.156823,0.2100472 -0.174217,0.2144331 -0.883077,0.2226619 -0.491886,0.00571 -0.668634,-0.00267 -0.739992,-0.035078 z M 15,3 V 1 H 13 11 V 1.5 2 H 12.5 14 V 3.5 5 h 0.5 0.5 z"
       id="path821"
       inkscape:connector-curvature="0" />
    <path
       style="fill:#323232;stroke-width:0.000357143"
       d="M 3.7953256,12.456226 C 3.6697091,12.401271 3.5382897,12.241736 3.51528,12.116267 3.505129,12.060917 3.501053,11.520931 3.50622,10.916305 3.51523,9.8624797 3.518288,9.8134153 3.580052,9.7307356 3.615489,9.6832986 3.6833127,9.6154928 3.7307711,9.5800559 c 0.085473,-0.063822 0.11313,-0.064509 2.9277566,-0.072729 L 9.5,9.4990291 V 8 6.5009709 l -2.8414684,-0.0083 C 3.843905,6.4844534 3.8162484,6.4837662 3.730775,6.4199441 3.6833166,6.3845072 3.6154928,6.3166791 3.5800559,6.269215 3.5176359,6.1856103 3.515625,6.1459962 3.515625,5 c 0,-1.1459962 0.00201,-1.1856103 0.064431,-1.269215 C 3.6154928,3.6833209 3.6833209,3.6154928 3.730785,3.5800559 3.8169397,3.5157322 3.8240353,3.515625 8,3.515625 c 4.175965,0 4.18306,9.38e-5 4.269215,0.064431 0.04746,0.035437 0.115292,0.103265 0.150729,0.1507291 0.06432,0.086155 0.06443,0.09325 0.06443,4.269215 0,4.1759649 -9.4e-5,4.1830599 -0.06443,4.2692149 -0.03544,0.04746 -0.103263,0.115292 -0.150724,0.150729 -0.08603,0.06424 -0.09885,0.06445 -4.2324441,0.0712 -3.3992446,0.0056 -4.1633184,-7.4e-4 -4.2414503,-0.03492 z M 12,8 V 4 H 8 4 v 1 1 h 3 3 v 2 2 H 7 4 v 1 1 h 4 4 z"
       id="path819"
       inkscape:connector-curvature="0" />
  </g>
</svg>
