<?xml version="1.0" encoding="UTF-8" standalone="no"?>
<!-- Created with Inkscape (http://www.inkscape.org/) -->

<svg
   version="1.1"
   id="svg2"
   width="1600"
   height="1600"
   viewBox="0 0 1600 1600"
   sodipodi:docname="snap_increment.svg"
   inkscape:version="1.2.2 (732a01da63, 2022-12-09)"
   xmlns:inkscape="http://www.inkscape.org/namespaces/inkscape"
   xmlns:sodipodi="http://sodipodi.sourceforge.net/DTD/sodipodi-0.dtd"
   xmlns="http://www.w3.org/2000/svg"
   xmlns:svg="http://www.w3.org/2000/svg"
   xmlns:rdf="http://www.w3.org/1999/02/22-rdf-syntax-ns#"
   xmlns:cc="http://creativecommons.org/ns#"
   xmlns:dc="http://purl.org/dc/elements/1.1/">
  <metadata
     id="metadata8">
    <rdf:RDF>
      <cc:Work
         rdf:about="">
        <dc:format>image/svg+xml</dc:format>
        <dc:type
           rdf:resource="http://purl.org/dc/dcmitype/StillImage" />
      </cc:Work>
    </rdf:RDF>
  </metadata>
  <defs
     id="defs6" />
  <sodipodi:namedview
     pagecolor="#808080"
     bordercolor="#666666"
     borderopacity="1"
     objecttolerance="10"
     gridtolerance="10"
     guidetolerance="10"
     inkscape:pageopacity="0"
     inkscape:pageshadow="2"
     inkscape:window-width="1993"
     inkscape:window-height="1009"
     id="namedview4"
     showgrid="false"
     inkscape:zoom="0.5"
     inkscape:cx="517"
     inkscape:cy="76"
     inkscape:window-x="-8"
     inkscape:window-y="-8"
     inkscape:window-maximized="1"
     inkscape:current-layer="SNAP_INCREMENT"
     inkscape:showpageshadow="0"
     inkscape:pagecheckerboard="true"
     inkscape:deskcolor="#d1d1d1" />
  <g
     id="SNAP_INCREMENT"
     transform="matrix(100,0,0,100,0,4.9999997e-5)"
     style="stroke-width:0.0114286">
    <path
       style="fill:none;stroke-width:0.000357143"
       d="M 0,8 V 0 h 8 8 v 8 8 H 8 0 Z m 8.734375,4.77053 c 0.3437034,-0.133783 0.6857006,-0.397887 0.8970475,-0.692737 0.098429,-0.137317 0.2181094,-0.348106 0.2659569,-0.468418 L 9.984375,11.390625 9.9933688,9.9453125 10.002363,8.5 h 0.247384 0.247384 l 0.0092,0.8415294 c 0.0087,0.7933986 0.01293,0.8464606 0.07368,0.9277566 0.159103,0.212926 0.168355,0.215089 0.919944,0.215089 0.751589,0 0.760841,-0.0022 0.919944,-0.215089 0.06075,-0.0813 0.06496,-0.134358 0.07368,-0.9277566 L 12.502869,8.5 h 0.49784 0.497839 l 0.0085,1.84148 c 0.0084,1.804342 0.0098,1.843219 0.07297,1.927756 0.159042,0.212967 0.168329,0.215139 0.919944,0.215139 0.751626,0 0.760928,-0.0022 0.919944,-0.21516 0.0644,-0.08626 0.06443,-0.08826 0.06443,-4.769215 0,-4.6809595 -2.7e-5,-4.6829529 -0.06443,-4.769215 C 15.260928,2.5178006 15.251626,2.515625 14.5,2.515625 c -0.751615,0 -0.760902,0.00217 -0.919944,0.2151388 -0.06313,0.084537 -0.0646,0.1234145 -0.07297,1.9277565 L 13.498548,6.5 h -0.497839 -0.49784 l -0.0092,-0.8415294 C 12.484904,4.8650725 12.48069,4.8120097 12.419944,4.7307141 12.260841,4.5177884 12.251589,4.515625 11.5,4.515625 c -0.751589,0 -0.760841,0.00216 -0.919944,0.2150891 -0.06075,0.081296 -0.06496,0.1343584 -0.07368,0.9277565 L 10.497131,6.5 H 10.249714 10.002298 L 9.9933363,5.0078125 9.984375,3.515625 9.8973794,3.296875 C 9.8495319,3.1765625 9.7298512,2.9657743 9.6314225,2.8284569 9.4139213,2.5250217 9.071215,2.2641195 8.71875,2.1336392 8.5010819,2.0530598 8.4509613,2.046875 8.015625,2.046875 7.5802887,2.046875 7.5301681,2.053055 7.3125,2.133639 6.960035,2.2641195 6.6173288,2.5250217 6.3998275,2.8284569 6.3013987,2.9657743 6.1817181,3.1765625 6.1338706,3.296875 L 6.046875,3.515625 6.0379138,5.0078125 6.0289522,6.5 H 5.7659109 5.5028694 L 5.4936222,5.6584706 C 5.4849038,4.8650725 5.48069,4.8120097 5.4199441,4.7307141 5.2608413,4.5177884 5.2515887,4.515625 4.5,4.515625 c -0.7515887,0 -0.7608412,0.00216 -0.9199441,0.2150891 -0.060746,0.081296 -0.06496,0.1343584 -0.073678,0.9277565 L 3.4971306,6.5 H 2.9992912 2.5014518 L 2.4929134,4.6585203 C 2.4845472,2.8541783 2.4830756,2.8153007 2.4199441,2.7307638 2.2609023,2.5177969 2.251615,2.515625 1.5,2.515625 c -0.75162625,0 -0.76092831,0.00218 -0.91994409,0.21516 C 0.51565194,2.8170471 0.515625,2.8190405 0.515625,7.5 c 0,4.680959 2.694e-5,4.682953 0.0644309,4.769215 0.15901578,0.212984 0.16831784,0.21516 0.9199441,0.21516 0.751615,0 0.7609023,-0.0022 0.9199441,-0.215139 0.063131,-0.08454 0.064603,-0.123414 0.072969,-1.927756 L 2.5014518,8.5 h 0.4978394 0.4978394 l 0.00925,0.8415294 c 0.00872,0.7933986 0.012932,0.8464606 0.073678,0.9277566 0.1591029,0.212926 0.1683554,0.215089 0.9199441,0.215089 0.7515887,0 0.7608413,-0.0022 0.9199441,-0.215089 0.060746,-0.0813 0.06496,-0.134358 0.073678,-0.9277566 L 5.5028694,8.5 H 5.7670597 6.03125 l 4.188e-4,1.3984375 4.187e-4,1.3984375 0.087623,0.251696 c 0.2027144,0.582298 0.6515894,1.03196 1.2368425,1.239011 0.2414837,0.08543 0.2731481,0.08896 0.7059488,0.07877 0.404229,-0.0095 0.47673,-0.01986 0.671875,-0.09582 z"
       id="path827"
       inkscape:connector-curvature="0" />
    <path
       style="fill:#98cbfe;stroke-width:0.000357143"
       d="M 7.6769444,11.828131 C 7.4013175,11.723543 7.1380641,11.444484 7.0655575,11.180037 7.0384347,11.081113 7.0313391,10.106783 7.0379612,7.390625 l 0.00891,-3.65625 0.072266,-0.1467147 c 0.092236,-0.1872581 0.281261,-0.3762828 0.4685191,-0.468519 0.2112097,-0.1040342 0.6447197,-0.1040342 0.8559294,0 0.1872581,0.092236 0.3762828,0.2812609 0.4685191,0.468519 l 0.07227,0.1467147 v 3.71875 3.71875 L 8.912109,11.31859 c -0.092343,0.187473 -0.2814713,0.376474 -0.4685191,0.4682 -0.1830569,0.08977 -0.5822838,0.111297 -0.7666453,0.04134 z"
       id="path825"
       inkscape:connector-curvature="0" />
    <path
       style="fill:#cbcbcb;stroke-width:0.000357143"
       d="M 1,7.5 V 3 H 1.5 2 V 5 7 H 3 4 V 6 5 H 4.5 5 V 6 7 H 6.015625 7.03125 V 7.5 8 H 6.015625 5 v 1 1 H 4.5 4 V 9 8 H 3 2 v 2 2 H 1.5 1 Z M 14,10 V 8 h -1 -1 v 1 1 H 11.5 11 V 9 8 H 10 9 V 7.5 7 h 1 1 V 6 5 h 0.5 0.5 v 1 1 h 1 1 V 5 3 H 14.5 15 V 7.5 12 H 14.5 14 Z"
       id="path823"
       inkscape:connector-curvature="0" />
    <path
       style="fill:#0065cb;stroke-width:0.000357143"
       d="M 7.3565512,12.787582 C 6.7712981,12.580531 6.3224231,12.130869 6.1197087,11.548571 L 6.0320862,11.296875 6.0316681,9.8984375 6.03125,8.5 h 0.4990356 0.4990357 l 0.00878,1.3359375 c 0.0087,1.3243645 0.0094,1.3372085 0.081043,1.4826525 0.092236,0.187258 0.281261,0.376282 0.4685191,0.468519 0.1203925,0.0593 0.1971741,0.07227 0.4279647,0.07227 0.2307906,0 0.3075722,-0.01296 0.4279647,-0.07227 0.1872581,-0.09224 0.3762828,-0.281261 0.4685191,-0.468519 0.07164,-0.145444 0.072342,-0.158288 0.081043,-1.4826525 L 9.0019288,8.5 h 0.5002168 0.5002174 l -0.00899,1.4453125 -0.00899,1.4453125 -0.086996,0.21875 c -0.047847,0.120313 -0.1675282,0.331101 -0.2659569,0.468418 -0.2113469,0.29485 -0.5533441,0.558954 -0.8970475,0.692737 -0.195145,0.07596 -0.2676459,0.0863 -0.671875,0.09582 -0.4328006,0.0102 -0.464465,0.0067 -0.7059488,-0.07877 z M 6.0379138,5.0078125 6.046875,3.515625 6.1338706,3.296875 C 6.1817181,3.1765625 6.3013987,2.9657743 6.3998275,2.8284569 6.6173288,2.5250217 6.960035,2.2641195 7.3125,2.1336392 7.5301681,2.0530598 7.5802887,2.046875 8.015625,2.046875 c 0.4353363,0 0.4854569,0.00618 0.703125,0.086764 0.352465,0.1304803 0.6951713,0.3913825 0.9126725,0.6948177 0.098429,0.1373174 0.2181094,0.3481056 0.2659569,0.4684181 l 0.086996,0.21875 0.00896,1.4921875 L 10.002298,6.5 H 9.5020844 9.0018713 L 8.9931231,5.1171875 C 8.9844344,3.7437747 8.9838838,3.7333778 8.9121088,3.5876603 8.8198725,3.4004022 8.6308478,3.2113775 8.4435897,3.1191412 8.3231972,3.0598404 8.2464156,3.046875 8.015625,3.046875 7.6870728,3.046875 7.5218725,3.11048 7.3161766,3.3161766 7.2475536,3.3847996 7.1588878,3.5069672 7.1191412,3.5876603 7.0473662,3.7333778 7.0468152,3.7437747 7.0381272,5.1171875 L 7.0293787,6.5 H 6.5291656 6.0289522 Z"
       id="path821"
       inkscape:connector-curvature="0" />
    <path
       style="fill:#323232;stroke-width:0.000357143"
       d="m 0.79532572,12.456957 c -0.12625853,-0.0562 -0.25725169,-0.215816 -0.2796031,-0.34069 -0.009908,-0.05535 -0.013983,-2.1703157 -0.009056,-4.699917 0.008939,-4.589562 0.009094,-4.5994572 0.0733892,-4.6855691 C 0.73907666,2.5177999 0.74837591,2.515625 1.5,2.515625 c 0.751615,0 0.7609023,0.00217 0.9199441,0.2151388 0.063131,0.084537 0.064603,0.1234145 0.072969,1.9277565 L 2.5014518,6.5 h 0.4978394 0.4978394 l 0.00925,-0.8415294 C 3.5150963,4.8650725 3.51931,4.8120097 3.5800559,4.7307141 3.7391588,4.5177884 3.7484113,4.515625 4.5,4.515625 c 0.7515887,0 0.7608413,0.00216 0.9199441,0.2150891 0.060746,0.081296 0.06496,0.1343584 0.073678,0.9277565 L 5.5028694,6.5 H 6.2670597 7.03125 V 6.75 7 H 6.015625 5 V 6 5 H 4.5 4 V 6 7 H 3 2 V 5 3 H 1.5 1 V 7.5 12 H 1.5 2 V 10 8 h 1 1 v 1 1 H 4.5 5 V 9 8 H 6.015625 7.03125 V 8.25 8.5 H 6.2670597 5.5028694 l -0.00925,0.8415294 C 5.4849038,10.134928 5.48069,10.18799 5.4199441,10.269286 5.2608413,10.482212 5.2515887,10.484375 4.5,10.484375 c -0.7515887,0 -0.7608412,-0.0022 -0.9199441,-0.215089 -0.060746,-0.0813 -0.06496,-0.134358 -0.073678,-0.9277566 L 3.4971306,8.5 H 2.9992912 2.5014518 l -0.00854,1.84148 c -0.00837,1.804342 -0.00984,1.843219 -0.072969,1.927756 -0.1568486,0.21003 -0.1742291,0.214412 -0.8830777,0.222641 -0.4900321,0.0057 -0.66927712,-0.0028 -0.74154068,-0.03492 z M 13.796875,12.456799 C 13.681514,12.404403 13.577503,12.294235 13.533332,12.177653 13.511131,12.119059 13.5,11.490311 13.5,10.294841 V 8.5 h -0.498565 -0.498566 l -0.0092,0.8415294 c -0.0087,0.7933986 -0.01293,0.8464606 -0.07368,0.9277566 -0.159103,0.212926 -0.168355,0.215089 -0.919944,0.215089 -0.751589,0 -0.760841,-0.0022 -0.919944,-0.215089 -0.06075,-0.0813 -0.06496,-0.134358 -0.07368,-0.9277566 L 10.497131,8.5 H 9.7485653 9 V 8.25 8 h 1 1 v 1 1 H 11.5 12 V 9 8 h 1 1 v 2 2 H 14.5 15 V 7.5 3 H 14.5 14 V 5 7 H 13 12 V 6 5 H 11.5 11 V 6 7 H 10 9 V 6.75 6.5 h 0.7485653 0.7485657 l 0.0092,-0.8415294 c 0.0087,-0.7933981 0.01293,-0.8464609 0.07368,-0.9277565 C 10.739159,4.5177884 10.748411,4.515625 11.5,4.515625 c 0.751589,0 0.760841,0.00216 0.919944,0.2150891 0.06075,0.081296 0.06496,0.1343584 0.07368,0.9277565 L 12.502869,6.5 h 0.49784 0.497839 l 0.0085,-1.8414797 c 0.0084,-1.804342 0.0098,-1.8432196 0.07297,-1.9277565 C 13.739098,2.5177969 13.748385,2.515625 14.5,2.515625 c 0.751626,0 0.760928,0.00218 0.919944,0.21516 0.0644,0.086262 0.06443,0.088255 0.06443,4.769215 0,4.680959 -2.7e-5,4.682953 -0.06443,4.769215 -0.156823,0.210047 -0.174217,0.214433 -0.883077,0.222662 -0.491886,0.0057 -0.668634,-0.0027 -0.739992,-0.03508 z"
       id="path819"
       inkscape:connector-curvature="0" />
  </g>
</svg>
