<?xml version="1.0" encoding="UTF-8" standalone="no"?>
<!-- Created with Inkscape (http://www.inkscape.org/) -->

<svg
   version="1.1"
   id="svg2"
   width="1600"
   height="1600"
   viewBox="0 0 1600 1600"
   sodipodi:docname="snap_normal.svg"
   inkscape:version="1.2.2 (732a01da63, 2022-12-09)"
   xmlns:inkscape="http://www.inkscape.org/namespaces/inkscape"
   xmlns:sodipodi="http://sodipodi.sourceforge.net/DTD/sodipodi-0.dtd"
   xmlns="http://www.w3.org/2000/svg"
   xmlns:svg="http://www.w3.org/2000/svg"
   xmlns:rdf="http://www.w3.org/1999/02/22-rdf-syntax-ns#"
   xmlns:cc="http://creativecommons.org/ns#"
   xmlns:dc="http://purl.org/dc/elements/1.1/">
  <metadata
     id="metadata8">
    <rdf:RDF>
      <cc:Work
         rdf:about="">
        <dc:format>image/svg+xml</dc:format>
        <dc:type
           rdf:resource="http://purl.org/dc/dcmitype/StillImage" />
      </cc:Work>
    </rdf:RDF>
  </metadata>
  <defs
     id="defs6" />
  <sodipodi:namedview
     pagecolor="#808080"
     bordercolor="#666666"
     borderopacity="1"
     objecttolerance="10"
     gridtolerance="10"
     guidetolerance="10"
     inkscape:pageopacity="0"
     inkscape:pageshadow="2"
     inkscape:window-width="1993"
     inkscape:window-height="1009"
     id="namedview4"
     showgrid="false"
     inkscape:zoom="0.5"
     inkscape:cx="195"
     inkscape:cy="192"
     inkscape:window-x="-8"
     inkscape:window-y="-8"
     inkscape:window-maximized="1"
     inkscape:current-layer="SNAP_NORMAL"
     inkscape:showpageshadow="0"
     inkscape:pagecheckerboard="true"
     inkscape:deskcolor="#d1d1d1" />
  <g
     id="SNAP_NORMAL"
     transform="matrix(100,0,0,100,0,4.9999997e-5)"
     style="stroke-width:0.0114286">
    <path
       style="fill:none;stroke-width:0.000357143"
       d="M 0,8 V 0 h 8 8 v 8 8 H 8 0 Z m 8.204145,6.894553 c 1.6076856,-0.341033 2.940811,-1.249383 3.835374,-2.613303 0.402597,-0.613832 0.695865,-1.328433 0.858987,-2.093082 0.07753,-0.3634314 0.08356,-0.4469211 0.08467,-1.172543 0.0011,-0.6896053 -0.007,-0.8219006 -0.0691,-1.1277872 C 12.875416,7.6972425 12.823726,7.4746566 12.79921,7.3932028 12.75739,7.2542562 12.75922,7.2329466 12.8287,7.0483559 12.967578,6.6793894 13.00911,6.3800741 12.991049,5.8783244 12.981249,5.6071584 12.954729,5.3521587 12.925609,5.2501278 L 12.876603,5.0783806 14.026537,3.9220028 C 15.067201,2.8755082 15.184584,2.747071 15.261838,2.570368 15.507831,2.007714 15.387481,1.38231 14.954393,0.97271291 14.527402,0.56888272 13.942944,0.46877872 13.399523,0.70639978 c -0.178201,0.0779216 -0.304001,0.192883 -1.35776,1.24078532 L 10.880402,3.102092 10.627066,3.051046 C 10.110213,2.9469023 9.4145,2.997082 8.9497094,3.1720287 8.7671453,3.2407456 8.7455828,3.2425541 8.6067972,3.2007856 8.5253434,3.1762716 8.3027575,3.1245819 8.1121622,3.0859198 7.8062756,3.0238709 7.6739803,3.0157655 6.984375,3.0168226 6.2587531,3.0179349 6.1752634,3.0239638 5.8118325,3.1014942 4.3513619,3.4130547 3.0769208,4.2098869 2.2197915,5.3473831 1.661734,6.0879813 1.2990181,6.8871763 1.1012975,7.8118325 1.0229872,8.1780566 1.0176268,8.2541775 1.0176268,9 c 0,0.7458225 0.00536,0.8219434 0.083671,1.188168 0.2174081,1.016725 0.6533482,1.916665 1.3090987,2.702457 0.8188522,0.981238 2.0377729,1.714253 3.2986491,1.983687 0.5073209,0.108409 0.6821284,0.122089 1.4159547,0.11081 0.6081206,-0.0093 0.7539319,-0.02158 1.079145,-0.09057 z"
       id="path829"
       inkscape:connector-curvature="0" />
    <path
       style="fill:#fefefe;stroke-width:0.000357143"
       d="M 6.515625,13.981563 C 5.8336787,13.883965 5.3240031,13.738356 4.828125,13.499461 3.6115975,12.913386 2.6965644,11.872346 2.2604598,10.578209 2.0739178,10.024648 2.0170268,9.6558153 2.0170268,9 c 0,-0.4719403 0.012687,-0.6412775 0.069077,-0.9219594 C 2.4966834,6.0343531 4.0213875,4.5008044 6.0485781,4.0925803 6.4008031,4.0216509 7.1906719,3.9828681 7.491525,4.0217309 L 7.6861747,4.046875 7.5423809,4.25 C 7.3595356,4.5082897 7.1802316,4.8844866 7.0878297,5.2036922 7.0246431,5.4219722 7.015625,5.5214269 7.015625,6 c 0,0.4769709 0.00913,0.5784119 0.07146,0.7935947 0.3025641,1.0446169 1.0747031,1.8167559 2.11932,2.11932 0.2151828,0.062326 0.3166238,0.07146 0.7935947,0.07146 0.4785733,0 0.5780283,-0.00902 0.7963083,-0.072205 C 11.115513,8.8197684 11.49171,8.6404644 11.75,8.4576191 l 0.203125,-0.1437938 0.02514,0.1946497 c 0.03886,0.3008531 9.4e-5,1.0907219 -0.07085,1.4429469 C 11.546307,11.744664 10.284521,13.175339 8.5607969,13.745987 8.0707028,13.908236 7.6998909,13.96942 7.125,13.982895 c -0.2835937,0.0066 -0.5578125,0.006 -0.609375,-0.0013 z M 9.5625,7.9514053 C 8.8323191,7.7945809 8.2007041,7.1571794 8.0468547,6.421875 7.8215506,5.3450609 8.5151619,4.2692609 9.578125,4.0468547 10.042872,3.9496147 10.048141,3.9337294 9.3993131,4.5859375 8.7560166,5.2325853 8.6533125,5.3852969 8.5905378,5.7885106 8.4510147,6.6846953 9.2840547,7.5177353 10.180239,7.3782122 10.585628,7.3150991 10.73477,7.2141681 11.398438,6.5538025 L 12,5.9552331 l -5.44e-4,0.123946 c -9.9e-4,0.2260903 -0.09041,0.5580637 -0.222505,0.8260131 -0.394478,0.8002075 -1.321238,1.2380528 -2.2144522,1.0462131 z"
       id="path827"
       inkscape:connector-curvature="0" />
    <path
       style="fill:#a9d8fe;stroke-width:0.000357143"
       d="M 9.859375,6.453395 C 9.6260469,6.3701709 9.5022547,6.1336219 9.5653784,5.8916103 9.5939297,5.7821481 9.8715175,5.4923469 11.681932,3.6819322 13.492347,1.8715175 13.782148,1.5939296 13.89161,1.5653785 c 0.35203,-0.09182 0.667829,0.2252313 0.573955,0.5762318 -0.0284,0.1061824 -0.328248,0.4197651 -2.085304,2.1808091 C 11.251586,5.4536559 10.292969,6.3976656 10.25,6.4202181 10.118567,6.4892016 9.990305,6.5000953 9.859375,6.453395 Z"
       id="path825"
       inkscape:connector-curvature="0" />
    <path
       style="fill:#264cfe;stroke-width:0.000357143"
       d="M 9.741095,7.3737588 C 9.3340031,7.3053153 8.9207825,6.9930387 8.7327088,6.6117075 8.5246328,6.1898203 8.5243916,5.7770519 8.7319775,5.359375 8.8328741,5.1563641 8.9976347,4.9841716 11.021911,2.9661527 13.053532,0.94081119 13.216595,0.78581119 13.399523,0.70610094 13.961514,0.461215 14.587143,0.58201188 14.996038,1.0143572 15.414655,1.4569832 15.506406,2.06541 15.236567,2.609375 15.135778,2.8125544 14.972796,2.9829033 12.94684,5.0025972 10.921327,7.0218494 10.751712,7.1831309 10.570712,7.2619831 10.385739,7.3425659 10.089141,7.4099984 9.9531253,7.4023934 9.9187503,7.4004716 9.8233369,7.3875856 9.7410953,7.3737588 Z M 10.25,6.4202181 C 10.29297,6.3976661 11.251586,5.4536559 12.380261,4.3224194 14.137317,2.5613754 14.437167,2.2477927 14.465565,2.1416102 14.559439,1.7906097 14.24364,1.4735584 13.89161,1.5653785 13.782148,1.5939296 13.492347,1.8715175 11.681932,3.6819322 9.8715175,5.4923469 9.5939297,5.7821481 9.5653784,5.8916103 9.4594859,6.2975934 9.8739369,6.6175981 10.25,6.4202181 Z"
       id="path823"
       inkscape:connector-curvature="0" />
    <path
       style="fill:#0000fe;stroke-width:0.000357143"
       d="M 9.375,8.9532484 C 8.2594447,8.7042891 7.407605,7.9002034 7.0870853,6.7935947 7.0247594,6.5784119 7.015625,6.4769709 7.015625,6 c 0,-0.4769709 0.00913,-0.5784119 0.07146,-0.7935947 0.3026006,-1.0447425 1.0768516,-1.8188294 2.11932,-2.1188701 0.2115538,-0.060889 0.3202141,-0.071074 0.7623447,-0.07146 0.3295453,-2.875e-4 0.5870473,0.015387 0.7135333,0.043434 l 0.197909,0.043883 -0.447504,0.4483039 C 10.056058,3.9289994 9.9702716,4.0000859 9.8910291,4.0005425 9.6927659,4.0016862 9.3489422,4.0977672 9.0948078,4.2230478 8.4401256,4.5457866 8.0010853,5.2590878 8.0010853,6 c 0,1.0907575 0.9081572,1.9989147 1.9989147,1.9989147 0.740912,0 1.454213,-0.4390403 1.776952,-1.0937225 0.132403,-0.2685831 0.221521,-0.6000075 0.222506,-0.8274859 5.15e-4,-0.1193382 0.02156,-0.1463963 0.434075,-0.5581219 0.238443,-0.2379869 0.441308,-0.4201238 0.45081,-0.4047485 0.0095,0.015375 0.0411,0.1455032 0.07021,0.2891728 0.07342,0.3623482 0.04981,1.0751194 -0.04659,1.4063891 -0.297541,1.0224691 -1.073328,1.7983788 -2.09756,2.0978906 -0.304421,0.089021 -1.1230705,0.1146625 -1.435398,0.04496 z"
       id="path821"
       inkscape:connector-curvature="0" />
    <path
       style="fill:#323232;stroke-width:0.000357143"
       d="M 6.21875,14.967877 C 3.9336097,14.652292 2.057418,13.116904 1.313675,10.953793 1.2428862,10.74791 1.1473163,10.403378 1.1012975,10.188168 1.0229872,9.8219434 1.0176268,9.7458225 1.0176268,9 c 0,-0.7458225 0.00536,-0.8219434 0.083671,-1.1881675 C 1.4496504,6.1827328 2.3496762,4.8584241 3.71875,3.9604813 4.3329066,3.5576706 5.0481828,3.2641991 5.8118325,3.1017081 6.1733919,3.0247747 6.2613022,3.0183408 6.96875,3.0170365 7.7485003,3.015599 7.874135,3.0278017 8.4453125,3.1604534 8.7176413,3.2236997 8.7737319,3.2595878 8.6577753,3.2963909 8.5329528,3.3360078 8.1056228,3.6384122 7.9127622,3.8236069 L 7.7133159,4.0151247 7.0519706,4.0172091 C 6.3099878,4.0195497 5.9987419,4.0660341 5.4206003,4.2608597 3.6705356,4.8506078 2.414216,6.3069309 2.0736625,8.140625 1.9875186,8.6044625 1.9936017,9.4586703 2.0863479,9.9219594 2.5015083,11.995782 4.0660247,13.541043 6.140625,13.926337 6.3691103,13.968772 6.6001509,13.984375 7,13.984375 c 0.6263303,0 0.9646197,-0.05027 1.515625,-0.225219 1.524538,-0.484057 2.708746,-1.65219 3.223514,-3.179756 0.194826,-0.578142 0.241312,-0.8893878 0.243651,-1.6313706 l 0.0021,-0.6613453 0.191518,-0.1994463 c 0.185195,-0.1928606 0.487599,-0.6201906 0.527216,-0.7450131 0.0368,-0.1159566 0.07269,-0.059866 0.135938,0.2124628 0.132651,0.5711775 0.144854,0.6968122 0.143417,1.4765625 -0.0013,0.7074478 -0.0077,0.7953581 -0.08467,1.156917 -0.310453,1.459016 -1.108064,2.734826 -2.245675,3.592041 -0.7368147,0.555207 -1.5436313,0.922404 -2.4484719,1.114345 -0.3252132,0.06899 -0.4710244,0.08122 -1.079145,0.09057 -0.3867188,0.0059 -0.7945313,-0.0018 -0.90625,-0.01725 z"
       id="path819"
       inkscape:connector-curvature="0" />
  </g>
</svg>
