<?xml version="1.0" encoding="UTF-8" standalone="no"?>
<!-- Created with Inkscape (http://www.inkscape.org/) -->

<svg
   version="1.1"
   id="svg2"
   width="1600"
   height="1600"
   viewBox="0 0 1600 1600"
   sodipodi:docname="snap_nearestmarker.svg"
   inkscape:version="1.2.2 (732a01da63, 2022-12-09)"
   xmlns:inkscape="http://www.inkscape.org/namespaces/inkscape"
   xmlns:sodipodi="http://sodipodi.sourceforge.net/DTD/sodipodi-0.dtd"
   xmlns="http://www.w3.org/2000/svg"
   xmlns:svg="http://www.w3.org/2000/svg"
   xmlns:rdf="http://www.w3.org/1999/02/22-rdf-syntax-ns#"
   xmlns:cc="http://creativecommons.org/ns#"
   xmlns:dc="http://purl.org/dc/elements/1.1/">
  <metadata
     id="metadata8">
    <rdf:RDF>
      <cc:Work
         rdf:about="">
        <dc:format>image/svg+xml</dc:format>
        <dc:type
           rdf:resource="http://purl.org/dc/dcmitype/StillImage" />
      </cc:Work>
    </rdf:RDF>
  </metadata>
  <defs
     id="defs6" />
  <sodipodi:namedview
     pagecolor="#808080"
     bordercolor="#666666"
     borderopacity="1"
     objecttolerance="10"
     gridtolerance="10"
     guidetolerance="10"
     inkscape:pageopacity="0"
     inkscape:pageshadow="2"
     inkscape:window-width="2560"
     inkscape:window-height="1009"
     id="namedview4"
     showgrid="false"
     fit-margin-top="0"
     fit-margin-left="0"
     fit-margin-right="0"
     fit-margin-bottom="0"
     inkscape:zoom="0.5"
     inkscape:cx="806"
     inkscape:cy="414"
     inkscape:window-x="-8"
     inkscape:window-y="-8"
     inkscape:window-maximized="1"
     inkscape:current-layer="SNAP_NEARESTMARKER"
     inkscape:showpageshadow="0"
     inkscape:pagecheckerboard="true"
     inkscape:deskcolor="#d1d1d1" />
  <g
     id="SNAP_NEARESTMARKER"
     transform="matrix(99.999957,0,0,99.999957,6.2470154e-4,0)"
     style="stroke-width:0.01">
    <path
       style="fill:none;stroke-width:0.000312497"
       d="M 0,8.0000002 V 0 H 7.99985 15.9997 L 15.9969,4.6328126 C 15.9945,8.6745387 15.9886,9.2351899 15.95092,9.0270799 15.843306,8.4325313 15.493779,7.6047077 15.141215,7.1093752 14.904454,6.7767398 14.236602,6.1071047 13.905989,5.8708521 13.376766,5.4926745 12.566313,5.1537701 11.927513,5.0435208 11.485213,4.9671848 10.173619,4.995604 9.8307545,5.0889523 9.6948046,5.1259662 9.57176,5.1562502 9.5573221,5.1562502 c -0.014438,0 -0.026251,-0.1310887 -0.026251,-0.2913082 0,-0.5369477 0.1698917,-0.3279384 -2.180548,-2.6826179 C 5.5340681,0.36259214 5.2544393,0.09439362 5.1402828,0.06243115 4.8620807,-0.01546204 4.9500296,-0.09126502 2.6794173,2.1834454 0.78754514,4.078732 0.59645588,4.2794482 0.55048962,4.4196295 c -0.0611783,0.1865726 -0.0716436,1.0806687 -0.0148672,1.270175 0.0423177,0.1412468 0.18863355,0.2880164 0.33621193,0.3372548 0.0766067,0.025559 1.06103745,0.035441 3.53073275,0.035441 H 7.8270764 L 7.4316963,6.4609378 C 7.2142374,6.6800784 6.9562417,6.9718753 6.858373,7.1093752 6.4967788,7.6173947 6.1537376,8.4384307 6.0467615,9.051888 c -0.039435,0.2261386 -0.046874,0.73665 -0.046874,3.216659 0,2.864353 0.00176,2.952558 0.062057,3.113725 0.079479,0.212431 0.3356731,0.471177 0.5489921,0.554461 0.1542409,0.06022 0.1475492,0.06035 -3.2281879,0.06181 L 0,16.000001 Z m 9.3887632,7.9367328 c 0.213319,-0.08328 0.469513,-0.34203 0.548992,-0.554461 0.060065,-0.16054 0.062057,-0.248482 0.062057,-2.738553 0,-1.609617 0.011872,-2.635292 0.031715,-2.7399238 0.06603,-0.3481856 0.276147,-0.6316633 0.578463,-0.7804324 0.219856,-0.1081903 0.559749,-0.1081903 0.779605,0 0.302317,0.1487691 0.512434,0.4322468 0.578464,0.7804324 0.01984,0.1046318 0.03172,1.1303068 0.03172,2.7399238 0,2.490071 0.002,2.578013 0.06206,2.738553 0.07948,0.212431 0.335673,0.471177 0.548993,0.554461 l 0.154561,0.06034 H 10.999794 9.2342019 Z m 6.0021218,-3.35e-4 c 0.203451,-0.0783 0.464763,-0.340528 0.545549,-0.547458 l 0.06034,-0.154564 0.0015,0.382812 0.0015,0.382812 -0.382805,-0.0016 -0.382805,-0.0016 0.156795,-0.06035 z"
       id="path827"
       inkscape:connector-curvature="0" />
    <path
       style="fill:#fefefe;stroke-width:0.000312497"
       d="m 6.610937,15.936733 c -0.213319,-0.08328 -0.469513,-0.34203 -0.5489921,-0.554461 -0.0603,-0.161167 -0.062057,-0.249372 -0.062057,-3.113725 0,-3.2824342 -0.00553,-3.1831054 0.2147238,-3.8538782 C 6.3637749,7.9604065 6.6198937,7.4447749 6.8707232,7.0937503 7.1069711,6.7631318 7.7765939,6.0952669 8.109223,5.8585017 8.617233,5.4969007 9.4382534,5.153853 10.051699,5.0468749 c 0.36887,-0.064326 1.52732,-0.064326 1.896189,0 0.622585,0.1085719 1.435904,0.4508196 1.958101,0.8239772 0.330613,0.2362526 0.998465,0.9058877 1.235226,1.2385231 0.361594,0.5080195 0.704635,1.3290555 0.811611,1.9425128 0.03943,0.2261386 0.04687,0.73665 0.04687,3.216659 0,3.385817 0.02104,3.13624 -0.290268,3.443684 -0.290745,0.287139 -0.294489,0.28777 -1.708857,0.28777 -1.420701,0 -1.427513,-0.0012 -1.713036,-0.290274 -0.306374,-0.310234 -0.287764,-0.112 -0.287764,-3.065172 0,-1.610183 -0.01187,-2.636125 -0.03172,-2.7407598 -0.06603,-0.3481856 -0.276147,-0.6316633 -0.578464,-0.7804324 -0.219856,-0.1081903 -0.559749,-0.1081903 -0.779605,0 -0.302316,0.1487691 -0.512433,0.4322468 -0.578463,0.7804324 -0.01984,0.1046348 -0.031715,1.1305768 -0.031715,2.7407598 0,2.953172 0.01861,2.754938 -0.2877638,3.065172 -0.2860718,0.289675 -0.2910941,0.290518 -1.7211832,0.288812 -1.1345478,-0.0014 -1.2368229,-0.0059 -1.3799286,-0.06181 z M 9.006651,12.304688 9.015461,9.6093752 9.099191,9.3801591 C 9.2181301,9.0545412 9.3597774,8.8302113 9.594902,8.5950823 9.8317979,8.3581819 10.05767,8.2161921 10.379964,8.1015705 c 0.200438,-0.071285 0.278248,-0.081518 0.61983,-0.081518 0.341582,0 0.419391,0.010233 0.619829,0.081518 0.322294,0.1146216 0.548167,0.2566114 0.785063,0.4935118 0.235124,0.235129 0.376772,0.4594589 0.495716,0.7850768 l 0.08373,0.2292161 0.0088,2.6953128 L 13.001742,15 h 1.00009 1.000091 l -0.0099,-2.820312 -0.0099,-2.8203126 -0.08263,-0.3125002 c -0.39681,-1.5006054 -1.494629,-2.5847936 -2.993466,-2.9562956 -0.260675,-0.064611 -0.371163,-0.073582 -0.906233,-0.073582 -0.53507,0 -0.645558,0.00897 -0.906233,0.073582 C 8.5947233,6.4620816 7.4969047,7.5462698 7.1000994,9.0468752 L 7.0174647,9.3593754 7.0075649,12.179688 6.9976649,15 h 1.0000905 1.0000903 z"
       id="path825"
       inkscape:connector-curvature="0" />
    <path
       style="fill:#65cbfe;stroke-width:0.000312497"
       d="M 6.9998689,13.5 V 12 H 7.99985 8.9998313 V 13.5 15 H 7.99985 6.9998689 Z m 5.9998871,0 V 12 h 0.999982 0.999981 v 1.5 1.5 h -0.999981 -0.999982 z"
       id="path823"
       inkscape:connector-curvature="0" />
    <path
       style="fill:#fe9729;stroke-width:0.000312497"
       d="M 1.5312213,4.8827079 V 4.7341657 L 3.2734802,2.9920826 5.0157394,1.2499991 6.7577899,2.9922909 8.4998407,4.7345827 V 4.8829165 5.0312501 H 5.0155311 1.5312213 Z"
       id="path821"
       inkscape:connector-curvature="0" />
    <path
       style="fill:#000000;stroke-width:0.000312497"
       d="M 7.0077077,10.679688 C 7.0196292,9.376767 7.0208615,9.3552591 7.1012609,9.0468752 7.4908559,7.55253 8.5945384,6.462127 10.093561,6.0905796 c 0.260675,-0.064611 0.371163,-0.073582 0.906233,-0.073582 0.53507,0 0.645558,0.00897 0.906233,0.073582 1.499022,0.3715474 2.602705,1.4619504 2.9923,2.9562956 0.0804,0.3083839 0.08163,0.3298918 0.09355,1.6328128 L 15.003961,12 h -1.000095 -1.000095 l -0.01088,-1.195312 -0.01088,-1.1953128 -0.08267,-0.2292161 C 12.782482,9.056148 12.640658,8.8310588 12.404686,8.5950823 12.16779,8.3581819 11.941917,8.2161921 11.619623,8.1015705 c -0.200438,-0.071285 -0.278247,-0.081518 -0.619829,-0.081518 -0.341582,0 -0.419392,0.010233 -0.61983,0.081518 C 10.05767,8.2161921 9.8317979,8.3581819 9.594902,8.5950823 9.3589299,8.8310588 9.2171059,9.056148 9.1002427,9.3801591 L 9.0175694,9.6093752 9.0066932,10.804688 8.9958165,12 H 7.995722 6.9956273 Z M 0.8593589,6.0249464 C 0.72252755,5.9773364 0.57646529,5.8261284 0.53562244,5.6898045 0.47884606,5.5002982 0.48931132,4.6062021 0.55048962,4.4196295 0.59645588,4.2794482 0.78754514,4.078732 2.6794173,2.1834454 4.9500296,-0.09126502 4.8620807,-0.01546204 5.1402828,0.06243115 5.2544393,0.09439362 5.5340681,0.36259214 7.3505234,2.1823241 9.7048049,4.5408523 9.5310714,4.3263616 9.5310714,4.8744162 V 5.175198 L 9.3140864,5.245084 C 8.9885805,5.349922 8.3932066,5.6551545 8.0935984,5.8707959 L 7.8279783,6.0619744 4.3905427,6.0597713 C 2.0890356,6.0582961 0.92212728,6.0467878 0.8593589,6.0249473 Z M 8.4998407,4.8829165 V 4.7345827 L 6.7577899,2.9922909 5.0157394,1.2499991 3.2734802,2.9920826 1.5312213,4.7341657 v 0.1485422 0.1485422 h 3.4843098 3.4843096 z"
       id="path819"
       inkscape:connector-curvature="0" />
  </g>
</svg>
