<?xml version="1.0" encoding="UTF-8" standalone="no"?>
<!-- Created with Inkscape (http://www.inkscape.org/) -->

<svg
   version="1.1"
   id="svg2"
   width="1600"
   height="1600"
   viewBox="0 0 1600 1600"
   sodipodi:docname="snap_face_nearest.svg"
   inkscape:version="1.2.2 (732a01da63, 2022-12-09)"
   xmlns:inkscape="http://www.inkscape.org/namespaces/inkscape"
   xmlns:sodipodi="http://sodipodi.sourceforge.net/DTD/sodipodi-0.dtd"
   xmlns="http://www.w3.org/2000/svg"
   xmlns:svg="http://www.w3.org/2000/svg">
  <defs
     id="defs6" />
  <sodipodi:namedview
     id="namedview4"
     pagecolor="#808080"
     bordercolor="#000000"
     borderopacity="0.25"
     inkscape:showpageshadow="2"
     inkscape:pageopacity="0"
     inkscape:pagecheckerboard="true"
     inkscape:deskcolor="#d1d1d1"
     showgrid="false"
     inkscape:zoom="0.5"
     inkscape:cx="201"
     inkscape:cy="110"
     inkscape:window-width="1993"
     inkscape:window-height="1009"
     inkscape:window-x="-8"
     inkscape:window-y="-8"
     inkscape:window-maximized="1"
     inkscape:current-layer="SNAP_FACE_NEAREST" />
  <g
     inkscape:groupmode="layer"
     inkscape:label="Image"
     id="g8"
     transform="matrix(100,0,0,100,0,4.9999997e-5)"
     style="stroke-width:0.0114286">
    <g
       id="SNAP_FACE_NEAREST"
       style="stroke-width:0.0114286">
      <path
         style="fill:none;stroke-width:0.000357143"
         d="M 0,8 V 0 h 8 8 v 1.265625 c 0,0.6960937 -0.0108,1.265625 -0.02401,1.265625 -0.01321,0 -0.951877,-0.3398448 -2.085938,-0.7552106 L 11.828125,1.0208287 11.53125,1.0182269 11.234375,1.015625 8.5,2.0110845 C 6.9960937,2.5585872 5.678705,3.0475142 5.5724694,3.097589 5.3382531,3.2079881 5.1521616,3.4081563 5.0635422,3.6450131 5.0022187,3.8089144 4.9999131,3.8838209 4.9975156,5.7902347 4.9952887,7.5607912 4.9905075,7.7445625 4.9514053,7.5625 4.7945809,6.8323191 4.1571794,6.2007041 3.421875,6.0468547 2.1781071,5.7866184 1.0010852,6.736265 1.0010852,8 c 0,1.263735 1.1770219,2.213382 2.4207898,1.9531453 C 4.1571794,9.7992959 4.7945809,9.1676809 4.9514053,8.4375 c 0.039672,-0.1847153 0.043851,-0.067992 0.04611,1.2878903 0.00235,1.4130947 0.00576,1.4997797 0.065234,1.6587297 0.085053,0.227325 0.2395681,0.398539 0.5087091,0.563688 0.1239787,0.07607 0.9496347,0.53159 1.8347909,1.012255 0.8851563,0.480665 2.0453125,1.110976 2.578125,1.400692 0.5328127,0.289716 1.0460937,0.558763 1.1406247,0.597883 0.235103,0.09729 0.5461,0.0973 0.78125,2.5e-5 0.120624,-0.0499 3.733876,-2.001643 4.070313,-2.198629 C 15.989453,12.752487 16,13.478391 16,14.373156 V 16 H 8 0 Z"
         id="path856" />
      <path
         style="fill:#fefefe;stroke-width:0.000357143"
         d="m 11.151434,14.395781 c -0.143445,-0.07451 -0.341668,-0.179977 -0.440496,-0.234375 -0.09883,-0.0544 -0.260547,-0.142995 -0.359375,-0.196883 C 9.9844769,13.764365 9.8237538,13.676657 9.65625,13.585082 9.5617188,13.533402 9.371875,13.432033 9.234375,13.359818 9.096875,13.287604 8.9,13.182232 8.796875,13.125658 8.6023784,13.018958 8.4293978,12.92444 8.109375,12.75 8.00625,12.693788 7.8515625,12.609413 7.765625,12.5625 7.6796875,12.515587 7.5285156,12.433114 7.4296875,12.379227 7.3308594,12.325339 7.1691406,12.237161 7.0703125,12.183273 6.6718509,11.966008 6.5547912,11.90201 6.3828125,11.80741 6.2839844,11.753048 6.1609375,11.687351 6.109375,11.661418 5.8153325,11.513527 5.6268169,11.367236 5.5645622,11.238635 5.5004597,11.106217 5.5,11.079667 5.5,7.5106737 V 3.9160803 L 5.571961,3.7800006 C 5.66591,3.6023409 5.8657198,3.4890812 6.0503332,3.5088416 c 0.070652,0.00756 0.2112769,0.052119 0.3125,0.099014 0.1012231,0.046896 0.2473234,0.1136607 0.3246672,0.148366 0.077344,0.034706 0.2671875,0.1231937 0.421875,0.1966406 0.1546875,0.073447 0.3164062,0.1442587 0.359375,0.1573594 0.042969,0.013101 0.1695313,0.069476 0.28125,0.1252781 0.1117187,0.055802 0.2734375,0.1326278 0.359375,0.1707231 0.085937,0.038096 0.2265625,0.1010816 0.3125,0.1399688 0.085937,0.038887 0.2265625,0.1021944 0.3125,0.1406822 0.085937,0.038488 0.2265625,0.1023593 0.3125,0.1419368 0.085937,0.039578 0.2265625,0.1030341 0.3125,0.1410144 0.085937,0.03798 0.2845134,0.1306194 0.4412797,0.2058647 0.1567666,0.075246 0.2968659,0.13681 0.3113329,0.13681 0.01447,0 0.139329,0.054674 0.27747,0.1214972 0.252907,0.1223387 0.541624,0.2553209 0.793912,0.3656737 0.450917,0.1972347 0.645417,0.3148747 0.737717,0.446195 l 0.09454,0.134506 0.0082,3.8667174 0.0082,3.866718 -0.07232,0.136761 c -0.08233,0.155681 -0.280926,0.280682 -0.445943,0.280682 -0.05874,0 -0.211287,-0.05705 -0.362273,-0.135469 z M 11,9.984375 C 11,7.5615916 10.99126,6.8125 10.962991,6.8125 10.942641,6.8125 10.861777,6.782859 10.783304,6.746631 10.623745,6.6729694 10.405772,6.5741287 10.171875,6.4693759 10.085938,6.4308881 9.9453125,6.3670166 9.859375,6.3274391 9.7734375,6.2878612 9.6328125,6.224405 9.546875,6.1864247 9.4609375,6.1484447 9.2623616,6.0558053 9.1055953,5.98056 8.9488288,5.9053144 8.8087288,5.84375 8.7942619,5.84375 8.779795,5.84375 8.6479022,5.7858309 8.5011669,5.7150406 8.2134534,5.5762381 8.0119378,5.4827828 7.765625,5.3739247 7.6796875,5.3359447 7.4811116,5.2433053 7.3243453,5.16806 7.1675788,5.0928144 7.0269538,5.0310444 7.0118453,5.0307931 6.9967366,5.0305431 6.8859375,4.9822797 6.765625,4.9235434 L 6.546875,4.8167503 6.538905,7.7582147 c -0.00439,1.6178056 0.00265,2.9514593 0.015625,2.9636753 0.012979,0.01222 0.1044572,0.06573 0.2032853,0.118911 0.1670241,0.08988 0.2480813,0.133946 0.6875,0.373722 0.090234,0.04924 0.2484375,0.135515 0.3515625,0.191727 0.103125,0.05621 0.2578125,0.140587 0.34375,0.1875 0.085937,0.04691 0.240625,0.131288 0.34375,0.1875 0.103125,0.05621 0.2578125,0.140587 0.34375,0.1875 0.085937,0.04691 0.2371094,0.129386 0.3359375,0.183273 0.098828,0.05389 0.2570313,0.140164 0.3515625,0.191727 0.094531,0.05156 0.2492188,0.135938 0.34375,0.1875 0.094531,0.05156 0.2492192,0.135938 0.3437502,0.1875 0.362834,0.197909 0.535643,0.292901 0.65625,0.360735 0.06875,0.03867 0.128516,0.07176 0.132813,0.07353 C 10.996484,13.154797 11,11.728906 11,9.984375 Z M 8.7578125,11.336716 7.03125,10.395128 V 8.0100638 c 0,-2.4453335 8.5e-4,-2.4634154 0.1109375,-2.3561322 0.016328,0.015912 0.1492188,0.080759 0.2953125,0.1441043 0.3231531,0.1401166 0.6857278,0.3072641 0.875,0.4033766 0.077344,0.039275 0.17477,0.08208 0.2165031,0.095121 0.041733,0.013041 0.2456391,0.1044625 0.453125,0.2031582 0.2074857,0.098696 0.4124032,0.1900806 0.4553719,0.2030775 0.042969,0.012996 0.092187,0.0345 0.109375,0.047784 0.017188,0.013285 0.228125,0.1116257 0.46875,0.218535 0.240625,0.1069097 0.44813,0.20409 0.461123,0.2159563 0.01299,0.011867 0.02002,1.1627044 0.01563,2.5574178 l -0.008,2.5358427 z M 2,8 V 7 H 3 4 V 8 9 H 3 2 Z M 12.377342,5.9881644 C 12.255751,5.7914262 12.039112,5.6270028 11.670936,5.4520203 11.473314,5.3580966 11.304503,5.28125 11.2958,5.28125 11.27704,5.28125 10.794534,5.0569587 10.59375,4.9549047 10.51641,4.9155927 10.41898,4.8727577 10.377247,4.8597167 10.335514,4.8466753 10.128088,4.7533728 9.9163016,4.6523778 9.7045147,4.5513825 9.5206909,4.4686634 9.5078047,4.4685575 9.4949184,4.4684638 9.4421875,4.4461116 9.390625,4.4189131 9.3390625,4.3917147 9.0929688,4.2780978 8.84375,4.1664313 8.5945313,4.0547647 8.2289063,3.8893359 8.03125,3.7988113 7.8335938,3.7082866 7.6116428,3.6087066 7.5380259,3.5775222 7.4644091,3.5463375 7.4151903,3.5106091 7.4286509,3.498125 7.4421116,3.4856413 8.3672419,3.1433925 9.4844959,2.7375723 l 2.0313711,-0.7378549 1.937379,0.7045152 c 1.065558,0.3874834 2.074488,0.754734 2.242067,0.8161124 L 16,3.6319419 v 0.4303012 0.430301 L 14.239241,5.2931469 C 13.270824,5.7334787 12.470408,6.09375 12.46054,6.09375 c -0.0099,0 -0.04731,-0.047513 -0.0832,-0.1055856 z"
         id="path854" />
      <path
         style="fill:#989898;stroke-width:0.000357143"
         d="m 12.53125,9.9112784 c 0,-2.9398584 -0.0075,-3.5808687 -0.04295,-3.6814156 L 12.445342,6.1081178 14.19563,5.3118716 C 15.158288,4.8739359 15.958086,4.5109375 15.972959,4.5052084 15.988083,4.4993825 16,6.0573112 16,8.0402891 v 3.5454979 l -1.664062,0.906138 c -0.915235,0.498376 -1.695704,0.922537 -1.734375,0.942581 l -0.07031,0.03644 z"
         id="path852" />
      <path
         style="fill:#323232;stroke-width:0.000357143"
         d="M 11.125,14.958638 C 11.030469,14.919518 10.517188,14.650471 9.984375,14.360755 9.4515625,14.071039 8.2914063,13.440728 7.40625,12.960063 6.5210938,12.479397 5.6954378,12.023883 5.5714591,11.947808 5.3023181,11.782659 5.1478031,11.611445 5.06275,11.38412 5.0032794,11.22517 4.9998703,11.138485 4.9975156,9.7253903 4.9952566,8.3695084 4.9910775,8.2527847 4.9514053,8.4375 4.7945809,9.1676809 4.1571794,9.7992959 3.421875,9.9531453 2.1781071,10.213382 1.0010852,9.263735 1.0010852,8 c 0,-1.263735 1.1770219,-2.2133816 2.4207898,-1.9531453 0.7353044,0.1538494 1.3727059,0.7854644 1.5295303,1.5156453 0.039102,0.1820625 0.043883,-0.00171 0.04611,-1.7722653 0.0024,-1.9064138 0.0047,-1.9813203 0.066027,-2.1452216 C 5.1521616,3.4081562 5.3382531,3.2079881 5.5724694,3.097589 5.678705,3.0475142 6.9960937,2.5585872 8.5,2.0110845 L 11.234375,1.015625 h 0.28125 0.28125 l 2.101381,0.765625 2.10138,0.765625 1.88e-4,0.5390625 c 9.4e-5,0.2964844 -0.0036,0.5390625 -0.0082,0.5390625 -0.0046,0 -1.013513,-0.36569 -2.242058,-0.8126444 L 11.515884,1.9997112 9.4845044,2.7375691 C 8.3672456,3.1433909 7.4421116,3.4856413 7.4286509,3.498125 c -0.013461,0.012484 0.035758,0.048212 0.109375,0.079397 0.073617,0.031184 0.2955678,0.1307644 0.4932241,0.2212891 0.1976563,0.090525 0.5703125,0.2586674 0.828125,0.3736512 0.2578125,0.1149834 0.4828125,0.2199344 0.5,0.2332247 0.017188,0.01329 0.066406,0.034797 0.109375,0.047794 0.042969,0.012997 0.2478863,0.1043816 0.4553719,0.2030775 0.2074861,0.098696 0.4113921,0.1901169 0.4531251,0.2031582 0.04173,0.013041 0.139159,0.055876 0.216503,0.095188 0.200784,0.102054 0.68329,0.3263453 0.70205,0.3263453 0.0087,0 0.178116,0.077133 0.376474,0.1714059 0.419856,0.1995444 0.62824,0.3749432 0.757033,0.6372022 l 0.08632,0.1757669 0.01563,3.6012275 0.01563,3.6012275 1.71875,-0.936858 1.71875,-0.936858 0.0085,0.567717 c 0.0047,0.312244 -0.0023,0.577799 -0.01563,0.590122 -0.05328,0.0494 -3.91106,2.140279 -4.071039,2.20646 -0.23515,0.09728 -0.546147,0.09727 -0.78125,-2.5e-5 z m 0.626249,-0.499349 c 0.09323,-0.0493 0.158852,-0.115024 0.208401,-0.208721 l 0.07232,-0.136761 -0.0082,-3.866718 -0.0082,-3.8667171 -0.09454,-0.134506 C 11.828787,6.1145456 11.634287,5.9969056 11.18337,5.7996709 10.931082,5.6893181 10.642365,5.5563359 10.389458,5.4339972 10.251317,5.3671737 10.126455,5.3125 10.111988,5.3125 10.097521,5.3125 9.9574213,5.2509356 9.8006547,5.17569 9.6438884,5.1004447 9.4453125,5.0078053 9.359375,4.9698253 9.2734375,4.931845 9.1328125,4.8683887 9.046875,4.8288109 8.9609375,4.7892334 8.8203125,4.7253619 8.734375,4.6868741 8.6484375,4.6483863 8.5078125,4.5850794 8.421875,4.5461919 8.3359375,4.5073047 8.1953125,4.4443187 8.109375,4.4062231 8.0234375,4.3681278 7.8617187,4.2913022 7.75,4.2355 7.6382813,4.1796978 7.5117187,4.1233228 7.46875,4.1102219 7.4257812,4.0971212 7.2640625,4.0263094 7.109375,3.9528625 6.9546875,3.8794156 6.7648437,3.7909275 6.6875,3.7562219 6.6101562,3.7215166 6.4640559,3.6547519 6.3628328,3.6078559 6.2616097,3.5609603 6.1209847,3.5164037 6.0503328,3.5088416 5.8657194,3.4890812 5.6659094,3.6023409 5.5719606,3.7800006 L 5.5,3.9160803 v 3.5945935 c 0,3.5689932 4.594e-4,3.5955432 0.064562,3.7279612 0.062255,0.128601 0.2507703,0.274892 0.5448128,0.422782 0.051563,0.02593 0.1746094,0.09163 0.2734375,0.145993 0.1719787,0.0946 0.2890384,0.158597 0.6875,0.375863 0.098828,0.05389 0.2605469,0.142066 0.359375,0.195954 0.098828,0.05389 0.25,0.13636 0.3359375,0.183273 0.085937,0.04691 0.240625,0.131288 0.34375,0.1875 0.3200228,0.17444 0.4930034,0.268958 0.6875,0.375658 0.103125,0.05657 0.3,0.161946 0.4375,0.23416 0.1375,0.07221 0.3273438,0.173584 0.421875,0.225264 0.1675038,0.09158 0.3282269,0.179283 0.6953132,0.379441 0.09883,0.05389 0.260546,0.142485 0.359375,0.196883 0.72567,0.399433 0.805209,0.422208 1.040311,0.297883 z M 10.859375,13.079485 C 10.738768,13.011655 10.565959,12.916659 10.203125,12.71875 10.108595,12.66719 9.9539062,12.582812 9.859375,12.53125 9.764844,12.47969 9.6101562,12.395312 9.515625,12.34375 9.421094,12.29219 9.2628906,12.205911 9.1640625,12.152023 9.0652345,12.098133 8.9140625,12.015663 8.828125,11.96875 8.7421875,11.921837 8.5875,11.837462 8.484375,11.78125 8.38125,11.725038 8.2265625,11.640663 8.140625,11.59375 8.0546875,11.546837 7.9,11.462462 7.796875,11.40625 7.69375,11.350038 7.5355469,11.263761 7.4453125,11.214523 7.0058937,10.974747 6.9248366,10.930685 6.7578125,10.840801 6.6589844,10.787616 6.5675059,10.734107 6.5545272,10.72189 6.5415481,10.709674 6.5345169,9.3760203 6.5389022,7.7582147 l 0.00797,-2.9414644 0.21875,0.1067931 c 0.1203125,0.058736 0.2311116,0.1069985 0.2462203,0.1072497 0.015109,2.5e-4 0.1557335,0.062021 0.3125,0.1372669 0.1567663,0.075245 0.3553422,0.1678847 0.4412797,0.2058647 0.2463128,0.1088581 0.4478284,0.2023134 0.7355419,0.3411159 0.1467353,0.07079 0.2786281,0.1287094 0.293095,0.1287094 0.014467,0 0.1545668,0.061564 0.3113334,0.13681 0.1567663,0.075245 0.3553422,0.1678847 0.4412797,0.2058647 0.085937,0.03798 0.2265625,0.1014365 0.3125,0.1410144 0.085937,0.039578 0.2265618,0.103449 0.3124998,0.1419368 0.233897,0.1047528 0.45187,0.2035935 0.611429,0.2772553 0.07847,0.036228 0.159333,0.065869 0.179687,0.065869 0.02827,0 0.03701,0.7490916 0.03701,3.171875 0,1.7445308 -0.0035,3.1704218 -0.0078,3.1686448 -0.0043,-0.0018 -0.06406,-0.03487 -0.132812,-0.07353 z M 10.476748,7.1850447 C 10.463755,7.1731784 10.25625,7.0759981 10.015625,6.9690884 9.775,6.8621791 9.5640625,6.7638381 9.546875,6.7505534 9.5296875,6.7372687 9.4804688,6.7157656 9.4375,6.7027691 9.3945313,6.6897722 9.1896138,6.5983875 8.9821281,6.4996916 8.7746422,6.4009959 8.5707359,6.3095747 8.5290031,6.2965334 8.48727,6.2834922 8.3898437,6.2406878 8.3125,6.2014125 8.1232278,6.1053 7.7606531,5.9381525 7.4375,5.7980359 7.2914062,5.7346909 7.1585156,5.6698441 7.1421875,5.6539316 7.0321012,5.5466484 7.03125,5.5647303 7.03125,8.0100638 v 2.3850642 l 1.7265625,0.941588 1.7265625,0.941589 0.008,-2.5358425 c 0.0044,-1.3947134 -0.0026,-2.5455512 -0.01563,-2.5574178 z M 4,8 V 7 H 3 2 v 1 1 h 1 1 z"
         id="path850" />
    </g>
  </g>
</svg>
