<?xml version="1.0" encoding="UTF-8" standalone="no"?>
<!-- Created with Inkscape (http://www.inkscape.org/) -->

<svg
   version="1.1"
   id="svg2"
   width="1600"
   height="1600"
   viewBox="0 0 1600 1600"
   sodipodi:docname="snap_nearestsecond.svg"
   inkscape:version="1.2.2 (732a01da63, 2022-12-09)"
   xmlns:inkscape="http://www.inkscape.org/namespaces/inkscape"
   xmlns:sodipodi="http://sodipodi.sourceforge.net/DTD/sodipodi-0.dtd"
   xmlns="http://www.w3.org/2000/svg"
   xmlns:svg="http://www.w3.org/2000/svg"
   xmlns:rdf="http://www.w3.org/1999/02/22-rdf-syntax-ns#"
   xmlns:cc="http://creativecommons.org/ns#"
   xmlns:dc="http://purl.org/dc/elements/1.1/">
  <metadata
     id="metadata8">
    <rdf:RDF>
      <cc:Work
         rdf:about="">
        <dc:format>image/svg+xml</dc:format>
        <dc:type
           rdf:resource="http://purl.org/dc/dcmitype/StillImage" />
      </cc:Work>
    </rdf:RDF>
  </metadata>
  <defs
     id="defs6" />
  <sodipodi:namedview
     pagecolor="#808080"
     bordercolor="#666666"
     borderopacity="1"
     objecttolerance="10"
     gridtolerance="10"
     guidetolerance="10"
     inkscape:pageopacity="0"
     inkscape:pageshadow="2"
     inkscape:window-width="2560"
     inkscape:window-height="1009"
     id="namedview4"
     showgrid="false"
     fit-margin-top="0"
     fit-margin-left="0"
     fit-margin-right="0"
     fit-margin-bottom="0"
     inkscape:zoom="0.5"
     inkscape:cx="546"
     inkscape:cy="1222"
     inkscape:window-x="-8"
     inkscape:window-y="-8"
     inkscape:window-maximized="1"
     inkscape:current-layer="SNAP_NEARESTSECOND"
     inkscape:showpageshadow="0"
     inkscape:pagecheckerboard="true"
     inkscape:deskcolor="#d1d1d1" />
  <g
     id="SNAP_NEARESTSECOND"
     transform="matrix(100.02477,0,0,100.02477,1.520179e-5,-0.39636414)"
     style="stroke-width:0.00999756">
    <path
       style="fill:none;stroke-width:0.00031242"
       d="M 0.00396258,11.554688 C 0.00621958,9.0227372 0.01913059,7.196805 0.03395873,7.3125002 0.31367008,9.4949276 1.6955241,11.413591 3.6718061,12.363544 c 0.7041435,0.338466 1.2957906,0.507067 2.1796469,0.62113 l 0.1484346,0.01916 v 1.106288 c 0,1.027149 0.00444,1.118153 0.062057,1.272154 0.079479,0.212431 0.3356731,0.471177 0.5489921,0.554461 0.1542409,0.06022 0.1475492,0.06035 -3.2281879,0.06181 L 0,16.000001 Z m 9.38480062,4.382045 c 0.213319,-0.08328 0.469513,-0.34203 0.548992,-0.554461 0.05895,-0.15756 0.062057,-0.246184 0.062057,-1.769778 v -1.603913 l 0.3359318,-0.244269 c 0.423086,-0.307643 1.137614,-1.021663 1.429661,-1.428642 l 0.218745,-0.304832 0.01563,2.633019 c 0.01546,2.60586 0.01631,2.634469 0.08221,2.773644 0.08959,0.189192 0.339918,0.425471 0.528987,0.49929 l 0.154411,0.06029 H 10.999794 9.2342019 Z m 6.0021218,-3.35e-4 c 0.203451,-0.0783 0.464763,-0.340528 0.545549,-0.547458 l 0.06034,-0.154564 0.0015,0.382812 L 15.999774,16 15.616969,15.9984 15.234164,15.9968 15.390959,15.93645 Z M 15.957031,9.0796191 C 15.897055,8.5693024 15.492626,7.5991739 15.127648,7.0901224 14.864816,6.7235391 14.151289,6.0293159 13.796617,5.7951009 13.641932,5.6929516 13.379983,5.5460939 13.214507,5.4687502 L 12.913642,5.3281252 12.859552,5.0781251 C 12.774827,4.6865273 12.573837,4.1128746 12.377796,3.7031252 12.052486,3.0231863 11.700552,2.5178405 11.172867,1.9729529 10.615787,1.3977121 10.077726,1.0067907 9.3591997,0.65525712 8.7031429,0.33428625 8.0070707,0.12300007 7.312363,0.03395937 7.1966699,0.01913095 9.0225678,0.00621969 11.554471,0.00396266 L 15.9997,0 v 4.6250002 c 0,2.5437501 -0.0051,4.6250001 -0.01132,4.6250001 -0.0062,0 -0.02033,-0.076671 -0.03135,-0.1703812 z M 0.00396258,2.9453126 0,0 2.9452573,0.00396266 C 4.6769577,0.00629255 5.8068213,0.01865232 5.6873933,0.03395937 5.0255139,0.11879251 4.3141499,0.32958886 3.7030557,0.62197209 3.0231295,0.94728846 2.5177932,1.2992287 1.9729158,1.8269236 1.3976859,2.3840138 1.0067718,2.9220855 0.65524482,3.6406252 0.33427997,4.2966942 0.12299776,4.9927795 0.03395873,5.6875001 0.01865197,5.8069303 0.00629243,4.6770455 0.00396258,2.9453126 Z"
       id="path825"
       inkscape:connector-curvature="0" />
    <path
       style="fill:#fefefe;stroke-width:0.00031242"
       d="m 6.610937,15.936733 c -0.213319,-0.08328 -0.469513,-0.34203 -0.5489921,-0.554461 -0.058993,-0.157675 -0.062064,-0.246444 -0.0622,-1.797506 l -1.406e-4,-1.631641 -0.4139128,-0.0679 C 3.3408756,11.516947 1.5513844,9.7503588 1.1176645,7.4743793 c -0.099715,-0.5232638 -0.099715,-1.4254943 0,-1.9487583 0.4290662,-2.2515588 2.1563362,-3.9788613 4.4078528,-4.4079355 0.5232541,-0.099717 1.4254678,-0.099717 1.9487217,0 1.4493496,0.2762043 2.713084,1.0998754 3.550494,2.3141247 0.219166,0.3177918 0.534081,0.9522668 0.648602,1.3067709 l 0.09207,0.2850047 0.162565,0.019555 c 0.476349,0.057299 1.415685,0.4388194 1.908168,0.7750216 0.325811,0.22242 1.053475,0.9396319 1.290497,1.2719604 0.253218,0.3550371 0.508916,0.8694865 0.658341,1.3245464 0.220258,0.6707728 0.214724,0.571444 0.214724,3.8538778 0,3.385817 0.02104,3.13624 -0.290268,3.443684 -0.290745,0.287139 -0.294489,0.28777 -1.708857,0.28777 -1.419652,0 -1.428109,-0.0014 -1.710965,-0.288621 -0.295494,-0.300026 -0.272068,-0.04697 -0.290054,-3.133254 -0.0175,-3.0032759 -0.0042,-2.8134877 -0.218995,-3.1256804 -0.08355,-0.1214432 -0.376594,-0.358695 -0.44304,-0.358695 -0.01236,0 -0.07986,0.09825 -0.149987,0.2183323 C 10.98104,9.6656552 10.696191,10.02416 10.336622,10.38302 l -0.3368094,0.336145 v 2.249458 c 0,2.584839 0.015872,2.433642 -0.2877638,2.741104 -0.2860718,0.289675 -0.2910941,0.290518 -1.7211832,0.288812 -1.1345478,-0.0014 -1.2368229,-0.0059 -1.3799286,-0.06181 z M 9.006651,12.304688 9.015461,9.6093752 9.099191,9.3801591 C 9.2181301,9.0545412 9.3597774,8.8302113 9.594902,8.5950823 9.8317979,8.3581819 10.05767,8.2161921 10.379964,8.1015705 c 0.200438,-0.071285 0.278248,-0.081518 0.61983,-0.081518 0.341582,0 0.419391,0.010233 0.619829,0.081518 0.322294,0.1146216 0.548167,0.2566114 0.785063,0.4935118 0.235124,0.235129 0.376772,0.4594589 0.495716,0.7850768 l 0.08373,0.2292161 0.0088,2.6953128 L 13.001742,15 h 1.00009 1.000091 l -0.0099,-2.820312 -0.0099,-2.8203126 -0.08263,-0.3125002 c -0.39681,-1.5006054 -1.494629,-2.5847936 -2.993466,-2.9562956 -0.260675,-0.064611 -0.371163,-0.073582 -0.906233,-0.073582 -0.53507,0 -0.645558,0.00897 -0.906233,0.073582 C 8.5947233,6.4620816 7.4969047,7.5462698 7.1000994,9.0468752 L 7.0174647,9.3593754 7.0075649,12.179688 6.9976649,15 H 7.9977554 8.9978457 Z M 4.9999063,6.5000002 v -0.5 H 3.4999344 1.9999625 v 0.5 0.5000001 H 3.4999344 4.9999063 Z M 6.9623696,6.9625003 C 6.9909012,6.933968 6.9998689,6.3361116 6.9998689,4.4625002 V 2.0000001 H 6.4998781 5.9998876 v 2.5000001 2.5000001 h 0.4624912 c 0.3180498,0 0.4742028,-0.011712 0.4999908,-0.0375 z"
       id="path823"
       inkscape:connector-curvature="0" />
    <path
       style="fill:#65cbfe;stroke-width:0.00031242"
       d="M 6.9998689,13.5 V 12 H 7.99985 8.9998313 V 13.5 15 H 7.99985 6.9998689 Z m 5.9998871,0 V 12 h 0.999982 0.999981 v 1.5 1.5 h -0.999981 -0.999982 z"
       id="path821"
       inkscape:connector-curvature="0" />
    <path
       style="fill:#000000;stroke-width:0.00031242"
       d="M 5.6873933,12.966041 C 4.9926858,12.877001 4.2966136,12.665714 3.6405568,12.344743 2.3017451,11.68974 1.2668821,10.644841 0.62196042,9.2968753 0.19010836,8.3942513 0,7.5393584 0,6.5000002 0,5.4298765 0.19393973,4.583557 0.65524482,3.6406252 1.3102363,2.3017883 2.3551149,1.2669058 3.7030557,0.62197209 4.6056628,0.19011193 5.4605394,0 6.4998781,0 7.5699819,0 8.4162855,0.19394337 9.3591997,0.65525712 11.099782,1.5068244 12.366338,3.0753452 12.82616,4.9487913 c 0.04582,0.1866792 0.07854,0.3441872 0.07271,0.3500185 -0.0058,0.00583 -0.164809,-0.038645 -0.353285,-0.098837 C 12.357109,5.1397818 12.104154,5.0745348 11.983464,5.05498 L 11.764021,5.0194261 11.69167,4.7831505 C 11.600204,4.4844483 11.302806,3.8588808 11.109433,3.558432 10.279934,2.2696163 8.9507414,1.3854996 7.421736,1.1055485 c -0.4381226,-0.080217 -1.4055932,-0.080217 -1.8437155,0 C 4.0490151,1.3854996 2.7198225,2.2696163 1.8903234,3.558432 1.5351909,4.1102114 1.2309149,4.893274 1.1055278,5.5781252 c -0.080216,0.4381306 -0.080216,1.4056193 0,1.8437501 0.2799458,1.5290342 1.1640459,2.8582517 2.4528373,3.6877667 0.3455364,0.2224 0.9437533,0.497159 1.3477929,0.619038 0.3387131,0.102173 0.86021,0.20882 1.0211129,0.20882 h 0.072617 v 0.53125 c 0,0.486629 -0.00459,0.530918 -0.054686,0.527288 -0.030078,-0.0022 -0.1460912,-0.01568 -0.2578079,-0.03 z M 7.0077077,10.679688 C 7.0196292,9.376767 7.0208615,9.3552591 7.1012609,9.0468752 7.4908559,7.55253 8.5945384,6.462127 10.093561,6.0905796 c 0.260675,-0.064611 0.371163,-0.073582 0.906233,-0.073582 0.53507,0 0.645558,0.00897 0.906233,0.073582 1.499022,0.3715474 2.602705,1.4619504 2.9923,2.9562956 0.0804,0.3083839 0.08163,0.3298918 0.09355,1.6328128 L 15.003961,12 h -1.000095 -1.000095 l -0.01088,-1.195312 -0.01088,-1.1953128 -0.08267,-0.2292161 C 12.782482,9.056148 12.640658,8.8310588 12.404686,8.5950823 12.16779,8.3581819 11.941917,8.2161921 11.619623,8.1015705 c -0.200438,-0.071285 -0.278247,-0.081518 -0.619829,-0.081518 -0.341582,0 -0.419392,0.010233 -0.61983,0.081518 C 10.05767,8.2161921 9.8317979,8.3581819 9.594902,8.5950823 9.3589299,8.8310588 9.2171059,9.056148 9.1002427,9.3801591 L 9.0175694,9.6093752 9.0066932,10.804688 8.9958165,12 H 7.995722 6.9956273 Z m 2.9921049,0.676856 v -0.647449 l 0.2498804,-0.232148 c 0.302978,-0.281478 0.687438,-0.7534461 0.908695,-1.1155269 0.08996,-0.1472185 0.172125,-0.2676699 0.182587,-0.2676699 0.01046,0 0.09188,0.049067 0.180931,0.1090383 0.237042,0.1596366 0.388749,0.3963272 0.444485,0.6934781 0.02403,0.1281054 0.01964,0.1371864 -0.225829,0.4678034 -0.412252,0.555245 -0.981646,1.107428 -1.561065,1.513878 L 9.9998126,12.003992 Z M 1.9999625,6.5000002 v -0.5 h 1.4999719 1.4999719 v 0.5 0.5000001 H 3.4999344 1.9999625 Z m 3.9999251,-2 V 2.0000001 h 0.4999905 0.4999908 v 2.4625001 c 0,1.8736114 -0.00897,2.4714678 -0.037499,2.5000001 -0.025788,0.025788 -0.181941,0.0375 -0.4999908,0.0375 H 5.9998876 Z"
       id="path819"
       inkscape:connector-curvature="0" />
  </g>
</svg>
