<?xml version="1.0" encoding="UTF-8" standalone="no"?>
<!-- Created with Inkscape (http://www.inkscape.org/) -->

<svg
   version="1.1"
   id="svg2"
   width="1600"
   height="1600"
   viewBox="0 0 1600 1600"
   sodipodi:docname="snap_grid.svg"
   inkscape:version="1.2.2 (732a01da63, 2022-12-09)"
   xmlns:inkscape="http://www.inkscape.org/namespaces/inkscape"
   xmlns:sodipodi="http://sodipodi.sourceforge.net/DTD/sodipodi-0.dtd"
   xmlns="http://www.w3.org/2000/svg"
   xmlns:svg="http://www.w3.org/2000/svg"
   xmlns:rdf="http://www.w3.org/1999/02/22-rdf-syntax-ns#"
   xmlns:cc="http://creativecommons.org/ns#"
   xmlns:dc="http://purl.org/dc/elements/1.1/">
  <metadata
     id="metadata8">
    <rdf:RDF>
      <cc:Work
         rdf:about="">
        <dc:format>image/svg+xml</dc:format>
        <dc:type
           rdf:resource="http://purl.org/dc/dcmitype/StillImage" />
      </cc:Work>
    </rdf:RDF>
  </metadata>
  <defs
     id="defs6" />
  <sodipodi:namedview
     pagecolor="#808080"
     bordercolor="#666666"
     borderopacity="1"
     objecttolerance="10"
     gridtolerance="10"
     guidetolerance="10"
     inkscape:pageopacity="0"
     inkscape:pageshadow="2"
     inkscape:window-width="1993"
     inkscape:window-height="1009"
     id="namedview4"
     showgrid="false"
     inkscape:zoom="0.57176213"
     inkscape:cx="737.19468"
     inkscape:cy="606.89574"
     inkscape:window-x="-8"
     inkscape:window-y="-8"
     inkscape:window-maximized="1"
     inkscape:current-layer="SNAP_GRID"
     inkscape:showpageshadow="0"
     inkscape:pagecheckerboard="true"
     inkscape:deskcolor="#d1d1d1"
     inkscape:lockguides="true" />
  <g
     id="SNAP_GRID"
     transform="matrix(100,0,0,100,0,4.9999997e-5)"
     style="stroke-width:0.0114286">
    <path
       style="fill:none;stroke-width:0.000357143"
       d="m 0,14 v -2 h 0.24652216 0.24652215 l 0.0203463,0.108455 c 0.0255361,0.136119 0.15561335,0.293256 0.28883407,0.348919 C 0.88283053,12.491053 1.1766483,12.5 2.2021213,12.5 H 3.5 v 1.297879 c 0,1.025473 0.00895,1.31929 0.042626,1.399896 0.055663,0.133221 0.2127997,0.263298 0.3489191,0.288834 L 4,15.506956 V 15.753478 16 H 2 0 Z m 5,1.753478 v -0.246522 l 0.108455,-0.02035 C 5.2445744,15.461073 5.4017109,15.330996 5.4573741,15.197775 5.4910534,15.117169 5.5,14.823352 5.5,13.797879 V 12.5 H 8 10.5 v 1.297879 c 0,1.025473 0.0089,1.31929 0.04263,1.399896 0.05566,0.133221 0.2128,0.263298 0.348919,0.288834 L 11,15.506956 V 15.753478 16 H 8 5 Z m 7,0 v -0.246522 l 0.108455,-0.02035 c 0.136119,-0.02554 0.293256,-0.155613 0.348919,-0.288834 0.03368,-0.0806 0.04263,-0.37442 0.04263,-1.399893 V 12.5 h 1.297879 c 1.025473,0 1.31929,-0.0089 1.399896,-0.04263 0.133221,-0.05566 0.263298,-0.2128 0.288834,-0.348919 L 15.506956,12 H 15.753478 16 v 2 2 H 14 12 Z M 0.00282049,7.9921875 0.00564098,4.984375 0.07681601,5.328125 C 0.11596227,5.5171875 0.18603397,5.784375 0.23253089,5.921875 0.70629644,7.3228875 1.8600579,8.4306322 3.2516544,8.8205841 L 3.5,8.890175 V 9.6950875 10.5 H 2.2021213 c -1.025473,0 -1.31929077,0.0089 -1.39989661,0.04263 -0.13322072,0.05566 -0.26329794,0.2128 -0.28883406,0.348919 L 0.49304431,11 H 0.24652216 0 Z M 15.486609,10.891545 C 15.461073,10.755426 15.330996,10.598289 15.197775,10.542626 15.117169,10.508947 14.823352,10.5 13.797879,10.5 H 12.5 V 8 5.5 h 1.297879 c 1.025473,0 1.31929,-0.00895 1.399896,-0.042626 0.133221,-0.055663 0.263298,-0.2127997 0.288834,-0.3489191 L 15.506956,5 H 15.753478 16 v 3 3 H 15.753478 15.506956 Z M 5.5,9.6875 C 5.5,9.0092091 5.50728,8.875 5.544057,8.875 5.568288,8.875 5.7177923,8.832623 5.8762876,8.780829 7.3029797,8.3146078 8.4254178,7.1585506 8.8205841,5.7483456 L 8.890175,5.5 H 9.6950875 10.5 V 8 10.5 H 8 5.5 Z M 0.00282049,2.0078125 0,0 2.0078125,0.00282049 4.015625,0.00564098 3.671875,0.07681601 C 2.7243216,0.27301131 1.9858262,0.66628991 1.326058,1.326058 0.66628991,1.9858262 0.27301131,2.7243216 0.07681601,3.671875 L 0.00564098,4.015625 Z M 15.486609,3.891545 C 15.461073,3.7554256 15.330996,3.5982891 15.197775,3.5426259 15.117169,3.5089466 14.823352,3.5 13.797879,3.5 H 12.5 V 2.2021213 C 12.5,1.1766483 12.4911,0.88283053 12.45737,0.80222469 12.40171,0.66900397 12.24457,0.53892675 12.108451,0.51339063 L 12,0.49304431 V 0.24652216 0 h 2 2 V 2 4 H 15.753478 15.506956 Z M 8.8205841,3.2516544 C 8.4306322,1.8600579 7.3228875,0.70629644 5.921875,0.23253089 5.784375,0.18603397 5.5171875,0.11596227 5.328125,0.07681601 L 4.984375,0.00564098 7.9921875,0.00282049 11,0 v 0.24652216 0.24652215 l -0.108455,0.0203463 C 10.755426,0.53892675 10.598289,0.66900397 10.542626,0.80222469 10.508947,0.88283053 10.5,1.1766483 10.5,2.2021213 V 3.5 H 9.6950875 8.890175 Z"
       id="path827"
       inkscape:connector-curvature="0" />
    <path
       style="fill:#fefefe;stroke-width:0.000357143"
       d="M 4,14 V 12 H 2 0 V 11.5 11 H 2 4 V 9.9921875 8.984375 H 4.5 5 V 9.9921875 11 h 3 3 V 8 5 H 9.9921875 8.984375 V 4.5 4 H 9.9921875 11 V 2 0 h 0.5 0.5 v 2 2 h 2 2 V 4.5 5 h -2 -2 v 3 3 h 2 2 v 0.5 0.5 h -2 -2 v 2 2 H 11.5 11 V 14 12 H 8 5 v 2 2 H 4.5 4 Z M 4.25,7.9820541 C 4.2070312,7.9746284 4.0664062,7.9529581 3.9375,7.9338975 2.2930875,7.6907503 1.0189279,6.1916153 1.0189279,4.5 1.0189279,2.5858986 2.5858986,1.0189279 4.5,1.0189279 c 1.9141012,0 3.4810722,1.5669707 3.4810722,3.4810721 0,1.6675737 -1.1971975,3.1084491 -2.8446575,3.4236603 C 4.8918494,7.9704534 4.3785422,8.0042681 4.25,7.9820541 Z M 4.8580766,5.9521503 C 5.3970516,5.811765 5.8122331,5.3952541 5.9533853,4.8533344 6.1557937,4.0762359 5.6583753,3.2563012 4.8580766,3.0478497 4.0760953,2.8441695 3.2569144,3.33927 3.0478498,4.1419234 2.7693224,5.2112622 3.7887378,6.2306775 4.8580766,5.9521503 Z M 4,4.5 V 4 H 4.5 5 V 4.5 5 H 4.5 4 Z M 0.00493421,4.9375 c 0,-0.042969 0.00709293,-0.060547 0.01576206,-0.039063 0.0086691,0.021484 0.0086691,0.056641 0,0.078125 C 0.01202717,4.998046 0.00493421,4.980472 0.00493421,4.9375 Z m 0,-0.875 c 0,-0.042969 0.00709293,-0.060547 0.01576206,-0.039063 0.0086691,0.021484 0.0086691,0.056641 0,0.078125 C 0.01202714,4.1230469 0.00493421,4.1054687 0.00493421,4.0625 Z M 4.0234375,0.01055373 c 0.021484,-0.00866914 0.056641,-0.00866914 0.078125,0 0.021484,0.0086691 0.00391,0.01576206 -0.039063,0.01576206 -0.042969,0 -0.060547,-0.0070929 -0.039062,-0.01576206 z m 0.875,0 c 0.021484,-0.00866914 0.056641,-0.00866914 0.078125,0 0.021484,0.0086691 0.00391,0.01576206 -0.039063,0.01576206 -0.042969,0 -0.060547,-0.0070929 -0.039062,-0.01576206 z"
       id="path825"
       inkscape:connector-curvature="0" />
    <path
       style="fill:#0065cb;stroke-width:0.000357143"
       d="M 4.1285103,5.9506078 C 3.3361416,5.7375131 2.8459467,4.9170816 3.0478497,4.1419234 3.2569144,3.33927 4.0760953,2.8441695 4.8580766,3.0478498 5.6583753,3.2563013 6.1557937,4.0762359 5.9533853,4.8533344 5.7424103,5.6633228 4.91352,6.1617234 4.1285103,5.9506078 Z M 5,4.5 V 4 H 4.5 4 V 4.5 5 H 4.5 5 Z"
       id="path823"
       inkscape:connector-curvature="0" />
    <path
       style="fill:#003265;stroke-width:0.000357143"
       d="M 3.921875,8.9668856 C 1.9967844,8.7077062 0.45784663,7.2500928 0.07250617,5.3209344 c -0.07606072,-0.3807881 -0.07606072,-1.2610807 0,-1.6418688 C 0.25574701,2.7616935 0.67227416,1.9798419 1.326058,1.326058 1.9798419,0.67227416 2.7616935,0.25574701 3.6790656,0.07250617 c 0.3807881,-0.07606072 1.2610806,-0.07606072 1.6418688,0 C 6.9598394,0.39986984 8.2671684,1.5518495 8.779705,3.1202724 8.9407669,3.6131406 8.9822359,3.8956456 8.9822359,4.5 c 0,0.6043544 -0.041469,0.8868594 -0.2025309,1.3797275 C 8.5521141,6.5761828 8.1994222,7.1484619 7.6739419,7.6739419 7.0237984,8.3240856 6.2317937,8.7475028 5.3380031,8.9227684 5.0288378,8.9833934 4.2294612,9.0082969 3.921875,8.9668856 Z M 5.1364147,7.9236603 C 6.7838747,7.6084491 7.9810722,6.1675737 7.9810722,4.5 7.9810722,2.5858986 6.4141012,1.0189279 4.5,1.0189279 2.5858986,1.0189279 1.0189279,2.5858986 1.0189279,4.5 c 0,1.6916153 1.2741596,3.1907503 2.9185721,3.4338975 0.1289062,0.019061 0.2695312,0.040731 0.3125,0.048157 0.1285422,0.022214 0.6418494,-0.011601 0.8864147,-0.058394 z"
       id="path821"
       inkscape:connector-curvature="0" />
    <path
       style="fill:#323232;stroke-width:0.000357143"
       d="M 3.796875,15.455886 C 3.6819475,15.404806 3.5776962,15.294744 3.5333316,15.177653 3.5116759,15.120498 3.5,14.636441 3.5,13.795805 v -1.293876 l -1.3414943,-0.0088 C 0.85946309,12.484653 0.81428169,12.482336 0.73074912,12.419944 0.61055881,12.330172 0.53543075,12.220786 0.51207959,12.101563 L 0.4921875,12 H 2.2460938 4 v 1.75 c 0,1.646299 -0.00324,1.749928 -0.054687,1.748777 -0.030078,-6.72e-4 -0.096875,-0.01997 -0.1484375,-0.04289 z M 5,13.753906 V 12 h 3 3 v 1.753906 1.753907 l -0.101562,-0.01989 c -0.119224,-0.02335 -0.22861,-0.09848 -0.318382,-0.218669 -0.06239,-0.08353 -0.06471,-0.128714 -0.07321,-1.427757 L 10.498071,12.5 H 8 5.5019287 l -0.00878,1.341494 c -0.0085,1.299043 -0.010816,1.344224 -0.073208,1.427757 -0.089772,0.12019 -0.1991585,0.195318 -0.3183816,0.218669 L 5,15.507813 Z m 7,0 V 12 h 1.753906 1.753907 l -0.01989,0.101563 c -0.02335,0.119223 -0.09848,0.228609 -0.218669,0.318381 -0.08353,0.06239 -0.128722,0.06471 -1.426794,0.07321 l -1.340533,0.0088 -0.0088,1.340533 c -0.0085,1.298072 -0.01082,1.343264 -0.07321,1.426794 -0.08977,0.12019 -0.199158,0.195318 -0.318381,0.218669 L 12,15.507813 Z M 0.51207959,10.898438 c 0.0233512,-0.119224 0.0984792,-0.22861 0.21866953,-0.318382 0.0835326,-0.06239 0.12871397,-0.06471 1.42775658,-0.07321 L 3.5,10.498071 V 9.7021606 C 3.5,9.1635969 3.5106841,8.90625 3.5330428,8.90625 c 0.018174,0 0.1306738,0.016123 0.25,0.03583 L 4,8.9779094 V 9.9889547 11 H 2.2460938 0.4921875 Z M 5,9.9889547 V 8.9779094 l 0.2169572,-0.03583 c 0.1193262,-0.019706 0.2318262,-0.03583 0.25,-0.03583 C 5.4893172,8.90625 5.5,9.1638834 5.5,9.703125 V 10.5 H 8 10.5 V 8 5.5 H 9.703125 C 9.1638834,5.5 8.90625,5.4893172 8.90625,5.4669572 c 0,-0.018174 0.016123,-0.1306738 0.03583,-0.25 L 8.9779094,5 H 9.9889547 11 v 3 3 H 8 5 Z M 12,8 V 5 h 1.753906 1.753907 l -0.01989,0.1015625 c -0.02335,0.1192231 -0.09848,0.2286094 -0.218669,0.3183816 -0.08353,0.062392 -0.128714,0.064709 -1.427757,0.073208 L 12.5,5.5019287 V 8 10.498071 l 1.341494,0.0088 c 1.299043,0.0085 1.344224,0.01082 1.427757,0.07321 0.12019,0.08977 0.195318,0.199158 0.218669,0.318382 L 15.507813,11 H 13.753906 12 Z M 8.9420797,3.7830428 C 8.9223734,3.6637166 8.90625,3.5512166 8.90625,3.5330428 8.90625,3.5106841 9.1635969,3.5 9.7021606,3.5 h 0.7959104 l 0.0088,-1.3414943 c 0.0085,-1.29904261 0.01082,-1.34422401 0.07321,-1.42775658 0.08977,-0.12019031 0.199158,-0.19531837 0.318382,-0.21866953 L 11,0.4921875 V 2.2460938 4 H 9.9889547 8.9779094 Z M 12,2.2460938 V 0.4921875 l 0.101563,0.0198921 c 0.119223,0.0233512 0.228609,0.0984792 0.318381,0.21866953 0.06239,0.0835301 0.06471,0.12872219 0.07321,1.42679437 l 0.0088,1.3405321 1.340533,0.00877 c 1.298072,0.0085 1.343264,0.010815 1.426794,0.073206 0.12019,0.089772 0.195318,0.1991585 0.218669,0.3183816 L 15.507813,4 H 13.753906 12 Z"
       id="path819"
       inkscape:connector-curvature="0" />
  </g>
</svg>
