<?xml version="1.0" encoding="UTF-8" standalone="no"?>
<!-- Created with Inkscape (http://www.inkscape.org/) -->

<svg
   version="1.1"
   id="svg2"
   width="1600"
   height="1600"
   viewBox="0 0 1600 1600"
   sodipodi:docname="snap_face.svg"
   inkscape:version="1.2.2 (732a01da63, 2022-12-09)"
   xmlns:inkscape="http://www.inkscape.org/namespaces/inkscape"
   xmlns:sodipodi="http://sodipodi.sourceforge.net/DTD/sodipodi-0.dtd"
   xmlns="http://www.w3.org/2000/svg"
   xmlns:svg="http://www.w3.org/2000/svg"
   xmlns:rdf="http://www.w3.org/1999/02/22-rdf-syntax-ns#"
   xmlns:cc="http://creativecommons.org/ns#"
   xmlns:dc="http://purl.org/dc/elements/1.1/">
  <metadata
     id="metadata8">
    <rdf:RDF>
      <cc:Work
         rdf:about="">
        <dc:format>image/svg+xml</dc:format>
        <dc:type
           rdf:resource="http://purl.org/dc/dcmitype/StillImage" />
      </cc:Work>
    </rdf:RDF>
  </metadata>
  <defs
     id="defs6" />
  <sodipodi:namedview
     pagecolor="#808080"
     bordercolor="#666666"
     borderopacity="1"
     objecttolerance="10"
     gridtolerance="10"
     guidetolerance="10"
     inkscape:pageopacity="0"
     inkscape:pageshadow="2"
     inkscape:window-width="1993"
     inkscape:window-height="1009"
     id="namedview4"
     showgrid="false"
     inkscape:zoom="0.5"
     inkscape:cx="227"
     inkscape:cy="82"
     inkscape:window-x="-8"
     inkscape:window-y="-8"
     inkscape:window-maximized="1"
     inkscape:current-layer="SNAP_FACE"
     inkscape:showpageshadow="0"
     inkscape:pagecheckerboard="true"
     inkscape:deskcolor="#d1d1d1" />
  <g
     id="SNAP_FACE"
     transform="matrix(100,0,0,100,0,4.9999997e-5)"
     style="stroke-width:0.0114286">
    <path
       style="fill:none;stroke-width:0.000357143"
       d="M 0,8 V 0 h 8 8 v 8 8 H 8 0 Z m 8.8732344,6.972296 c 0.085335,-0.03242 1.4037776,-0.739066 2.9298706,-1.570313 2.971922,-1.618775 2.972697,-1.619256 3.135393,-1.948858 l 0.07713,-0.15625 v -3.78125 -3.78125 l -0.07738,-0.15625 C 14.835979,3.3716219 14.644814,3.1847606 14.435555,3.0867519 14.342093,3.0429783 13.035156,2.5590673 11.53125,2.0113942 L 8.796875,1.015625 H 8.515625 8.234375 L 5.5,2.0110845 C 3.9960938,2.5585872 2.6787049,3.0475142 2.5724693,3.097589 2.3382532,3.2079881 2.1521617,3.4081563 2.0635421,3.6450131 2.0009664,3.8122616 2,3.8711291 2,7.515625 c 0,3.629179 0.00121,3.704025 0.06275,3.868495 0.085053,0.227325 0.2395683,0.398539 0.5087091,0.563688 0.1239787,0.07607 0.9496347,0.53159 1.8347909,1.012255 0.8851562,0.480665 2.0453125,1.110976 2.578125,1.400692 0.5328125,0.289716 1.0460938,0.558763 1.140625,0.597883 0.2202881,0.09116 0.5294066,0.09681 0.7482344,0.01366 z"
       id="path827"
       inkscape:connector-curvature="0" />
    <path
       style="fill:#fefefe;stroke-width:0.000357143"
       d="M 8.1514344,14.395781 C 8.0079891,14.321273 7.8097656,14.215804 7.7109375,14.161406 7.6121094,14.107008 7.4503906,14.018411 7.3515625,13.964523 6.9844769,13.764365 6.8237537,13.676657 6.65625,13.585082 6.5617187,13.533402 6.371875,13.432033 6.234375,13.359818 6.096875,13.287604 5.9,13.182232 5.796875,13.125658 5.6023784,13.018958 5.4293978,12.92444 5.109375,12.75 5.00625,12.693788 4.8515625,12.609413 4.765625,12.5625 4.6796875,12.515587 4.5285156,12.433114 4.4296875,12.379227 4.3308594,12.325339 4.1691406,12.237161 4.0703125,12.183273 3.6718509,11.966008 3.5547912,11.90201 3.3828125,11.80741 3.2839844,11.753048 3.1609375,11.687351 3.109375,11.661418 2.8153325,11.513527 2.6268168,11.367236 2.564562,11.238635 2.5004598,11.106217 2.5,11.079667 2.5,7.5106737 V 3.9160803 L 2.571961,3.7800006 C 2.66591,3.6023409 2.8657197,3.4890812 3.0503332,3.5088416 c 0.070652,0.00756 0.2112769,0.052119 0.3125,0.099014 0.1012231,0.046896 0.2473235,0.1136607 0.3246672,0.148366 0.077344,0.034706 0.2671875,0.1231937 0.421875,0.1966406 0.1546875,0.073447 0.3164062,0.1442587 0.359375,0.1573594 0.042969,0.013101 0.1695313,0.069476 0.28125,0.1252781 0.1117187,0.055802 0.2734375,0.1326278 0.359375,0.1707231 0.085937,0.038096 0.2265625,0.1010816 0.3125,0.1399688 0.085937,0.038887 0.2265625,0.1021944 0.3125,0.1406822 0.085937,0.038488 0.2265625,0.1023593 0.3125,0.1419368 0.085937,0.039578 0.2265625,0.1030341 0.3125,0.1410144 0.085937,0.03798 0.2845134,0.1306194 0.4412797,0.2058647 0.1567665,0.075246 0.2968665,0.13681 0.3113334,0.13681 0.014467,0 0.1393285,0.054674 0.27747,0.1214972 0.2529072,0.1223387 0.5416235,0.2553209 0.7939119,0.3656737 0.4509169,0.1972347 0.6454169,0.3148747 0.7377166,0.446195 l 0.094538,0.134506 0.00817,3.8667174 0.00817,3.866718 -0.072321,0.136761 c -0.082326,0.155681 -0.2809259,0.280682 -0.4459428,0.280682 -0.058738,0 -0.2112872,-0.05705 -0.3622725,-0.135469 z M 8,9.984375 C 8,7.5615916 7.9912597,6.8125 7.9629912,6.8125 7.9426366,6.8125 7.8617772,6.7828591 7.7833037,6.7466312 7.6237447,6.6729694 7.4057725,6.5741287 7.171875,6.4693759 7.0859375,6.4308881 6.9453125,6.3670166 6.859375,6.3274391 6.7734375,6.2878612 6.6328125,6.224405 6.546875,6.1864247 6.4609375,6.1484447 6.2623616,6.0558053 6.1055953,5.98056 5.9488287,5.9053144 5.8087287,5.84375 5.7942619,5.84375 5.779795,5.84375 5.6479022,5.7858309 5.5011669,5.7150406 5.2134534,5.5762381 5.0119378,5.4827828 4.765625,5.3739247 4.6796875,5.3359447 4.4811116,5.2433053 4.3243453,5.16806 4.1675788,5.0928144 4.0269538,5.0310444 4.0118453,5.0307931 3.9967366,5.0305431 3.8859375,4.9822797 3.765625,4.9235434 L 3.546875,4.8167503 3.538905,7.7582147 c -0.00439,1.6178056 0.00265,2.9514593 0.015625,2.9636753 0.012979,0.01222 0.1044572,0.06573 0.2032853,0.118911 0.1670241,0.08988 0.2480812,0.133946 0.6875,0.373722 0.090234,0.04924 0.2484375,0.135515 0.3515625,0.191727 0.103125,0.05621 0.2578125,0.140587 0.34375,0.1875 0.085937,0.04691 0.240625,0.131288 0.34375,0.1875 0.103125,0.05621 0.2578125,0.140587 0.34375,0.1875 0.085937,0.04691 0.2371094,0.129386 0.3359375,0.183273 0.098828,0.05389 0.2570312,0.140164 0.3515625,0.191727 0.094531,0.05156 0.2492187,0.135938 0.34375,0.1875 0.094531,0.05156 0.2492187,0.135938 0.34375,0.1875 0.3628341,0.197909 0.5356428,0.292901 0.65625,0.360735 0.06875,0.03867 0.1285156,0.07176 0.1328125,0.07353 C 7.9964844,13.154797 8,11.728906 8,9.984375 Z M 5.7578125,11.336716 4.03125,10.395128 V 8.0100638 c 0,-2.4453335 8.5e-4,-2.4634154 0.1109375,-2.3561322 0.016328,0.015912 0.1492188,0.080759 0.2953125,0.1441043 0.3231531,0.1401166 0.6857278,0.3072641 0.875,0.4033766 0.077344,0.039275 0.17477,0.08208 0.2165031,0.095121 0.041733,0.013041 0.2456391,0.1044625 0.453125,0.2031582 0.2074857,0.098696 0.4124031,0.1900806 0.4553719,0.2030775 0.042969,0.012996 0.092187,0.0345 0.109375,0.047784 0.017188,0.013285 0.228125,0.1116257 0.46875,0.218535 0.240625,0.1069097 0.4481303,0.20409 0.4611225,0.2159563 0.012993,0.011867 0.020024,1.1627044 0.015625,2.5574178 l -0.008,2.5358427 z"
       id="path825"
       inkscape:connector-curvature="0" />
    <path
       style="fill:#cbcbcb;stroke-width:0.000357143"
       d="M 9.3773419,5.9881644 C 9.2557509,5.7914262 9.0391122,5.6270028 8.6709363,5.4520203 8.4733141,5.3580966 8.3045025,5.28125 8.2957997,5.28125 8.27704,5.28125 7.7945341,5.0569587 7.59375,4.9549047 7.5164062,4.9155925 7.41898,4.8727578 7.3772469,4.8597166 7.3355141,4.8466753 7.1280884,4.7533728 6.9163016,4.6523778 6.7045147,4.5513825 6.5206909,4.4686634 6.5078047,4.4685575 6.4949184,4.4684638 6.4421875,4.4461116 6.390625,4.4189131 6.3390625,4.3917147 6.0929687,4.2780978 5.84375,4.1664313 5.5945312,4.0547647 5.2289062,3.8893359 5.03125,3.7988113 4.8335938,3.7082866 4.6116428,3.6087066 4.5380259,3.5775222 4.4644091,3.5463375 4.4151903,3.5106091 4.4286509,3.498125 4.4421116,3.4856413 5.3672094,3.1434041 6.4844241,2.7375984 L 8.5157228,1.9997697 11.250049,2.9943118 c 1.503879,0.5469982 2.734326,1.0072041 2.734326,1.0226798 0,0.024296 -4.4644906,2.0745596 -4.5208888,2.076164 -0.011489,3.282e-4 -0.050254,-0.046919 -0.086144,-0.1049912 z"
       id="path823"
       inkscape:connector-curvature="0" />
    <path
       style="fill:#989898;stroke-width:0.000357143"
       d="m 9.53125,9.9112784 c 0,-2.939325 -0.00748,-3.5808806 -0.042941,-3.6813778 L 9.4453681,6.1081931 11.542997,5.1563528 c 1.153695,-0.5235122 2.185519,-0.9954934 2.292941,-1.0488475 l 0.195312,-0.097007 v 3.5063282 3.5063285 l -2.179687,1.18746 c -1.198829,0.653104 -2.2113286,1.203857 -2.2500005,1.223898 l -0.070312,0.03644 z"
       id="path821"
       inkscape:connector-curvature="0" />
    <path
       style="fill:#323232;stroke-width:0.000357143"
       d="M 8.125,14.958638 C 8.0304688,14.919518 7.5171875,14.650471 6.984375,14.360755 6.4515625,14.071039 5.2914062,13.440728 4.40625,12.960063 3.5210938,12.479397 2.6954378,12.023883 2.5714591,11.947808 2.3023183,11.782659 2.1478031,11.611445 2.06275,11.38412 2.0012141,11.21965 2,11.144804 2,7.515625 2,3.8711291 2.0009664,3.8122616 2.0635421,3.6450131 2.1521617,3.4081563 2.3382532,3.2079881 2.5724693,3.097589 2.6787049,3.0475142 3.9960938,2.5585872 5.5,2.0110845 L 8.234375,1.015625 h 0.28125 0.28125 l 2.734375,0.9957692 c 1.503906,0.5476731 2.810843,1.0315841 2.904305,1.0753577 0.209259,0.098009 0.400424,0.28487 0.502691,0.4913731 l 0.07738,0.15625 v 3.78125 3.78125 l -0.07713,0.15625 c -0.162696,0.329602 -0.16347,0.330083 -3.135393,1.948858 -1.526093,0.831247 -2.8445353,1.537888 -2.9298706,1.570313 -0.2188278,0.08315 -0.5279463,0.07751 -0.7482344,-0.01366 z m 0.6262494,-0.499349 c 0.09323,-0.0493 0.1588519,-0.115024 0.2084003,-0.208721 l 0.072321,-0.136761 -0.00817,-3.866718 -0.00817,-3.8667171 -0.094538,-0.134506 C 8.8287869,6.1145456 8.6342869,5.9969056 8.18337,5.7996709 7.9310816,5.6893181 7.6423653,5.5563359 7.3894581,5.4339972 7.2513166,5.3671737 7.126455,5.3125 7.1119881,5.3125 7.0975212,5.3125 6.9574212,5.2509356 6.8006547,5.17569 6.6438884,5.1004447 6.4453125,5.0078053 6.359375,4.9698253 6.2734375,4.931845 6.1328125,4.8683887 6.046875,4.8288109 5.9609375,4.7892334 5.8203125,4.7253619 5.734375,4.6868741 5.6484375,4.6483863 5.5078125,4.5850794 5.421875,4.5461919 5.3359375,4.5073047 5.1953125,4.4443187 5.109375,4.4062231 5.0234375,4.3681278 4.8617187,4.2913022 4.75,4.2355 4.6382813,4.1796978 4.5117187,4.1233228 4.46875,4.1102219 4.4257812,4.0971212 4.2640625,4.0263094 4.109375,3.9528625 3.9546875,3.8794156 3.7648437,3.7909275 3.6875,3.7562219 3.6101563,3.7215166 3.4640559,3.6547519 3.3628328,3.6078559 3.2616097,3.5609603 3.1209847,3.5164037 3.0503328,3.5088416 2.8657192,3.4890812 2.6659093,3.6023409 2.5719606,3.7800006 L 2.5,3.9160803 v 3.5945934 c 0,3.5689933 4.597e-4,3.5955433 0.064562,3.7279613 0.062255,0.128601 0.2507705,0.274892 0.544813,0.422782 0.051563,0.02593 0.1746094,0.09163 0.2734375,0.145993 0.1719788,0.0946 0.2890384,0.158597 0.6875,0.375863 0.098828,0.05389 0.2605469,0.142066 0.359375,0.195954 0.098828,0.05389 0.25,0.13636 0.3359375,0.183273 0.085937,0.04691 0.240625,0.131288 0.34375,0.1875 0.3200228,0.17444 0.4930034,0.268958 0.6875,0.375658 0.103125,0.05657 0.3,0.161946 0.4375,0.23416 0.1375,0.07221 0.3273437,0.173584 0.421875,0.225264 0.1675037,0.09158 0.3282269,0.179283 0.6953125,0.379441 0.098828,0.05389 0.2605469,0.142485 0.359375,0.196883 0.7256706,0.399433 0.8052097,0.422208 1.0403119,0.297883 z M 7.859375,13.079485 C 7.7387678,13.011651 7.5659591,12.916659 7.203125,12.71875 7.1085937,12.667188 6.9539062,12.582812 6.859375,12.53125 6.7648437,12.479688 6.6101562,12.395312 6.515625,12.34375 6.4210937,12.292188 6.2628906,12.205911 6.1640625,12.152023 6.0652344,12.098136 5.9140625,12.015663 5.828125,11.96875 5.7421875,11.921837 5.5875,11.837462 5.484375,11.78125 5.38125,11.725038 5.2265625,11.640663 5.140625,11.59375 5.0546875,11.546837 4.9,11.462462 4.796875,11.40625 4.69375,11.350038 4.5355469,11.263761 4.4453125,11.214523 4.0058937,10.974747 3.9248366,10.930685 3.7578125,10.840801 3.6589844,10.787616 3.5675059,10.734107 3.5545272,10.72189 3.5415481,10.709674 3.5345169,9.3760203 3.5389022,7.7582147 l 0.00797,-2.9414644 0.21875,0.1067931 c 0.1203125,0.058736 0.2311116,0.1069985 0.2462203,0.1072497 0.015109,2.5e-4 0.1557335,0.062021 0.3125,0.1372669 0.1567663,0.075245 0.3553422,0.1678847 0.4412797,0.2058647 0.2463128,0.1088581 0.4478284,0.2023134 0.7355419,0.3411159 0.1467353,0.07079 0.2786281,0.1287094 0.293095,0.1287094 0.014467,0 0.1545669,0.061564 0.3113334,0.13681 0.1567663,0.075245 0.3553422,0.1678847 0.4412797,0.2058647 0.085937,0.03798 0.2265625,0.1014365 0.3125,0.1410144 0.085937,0.039578 0.2265625,0.103449 0.3125,0.1419368 C 7.4057725,6.5741287 7.6237447,6.6729694 7.7833037,6.7466312 7.8617772,6.7828591 7.9426366,6.8125 7.9629912,6.8125 7.9912597,6.8125 8,7.5615916 8,9.984375 8,11.728906 7.99648,13.154797 7.99219,13.15302 7.98789,13.15122 7.928127,13.11815 7.8593775,13.07949 Z M 7.4767475,7.1850447 C 7.4637553,7.1731784 7.25625,7.0759981 7.015625,6.9690884 6.775,6.8621791 6.5640625,6.7638381 6.546875,6.7505534 6.5296875,6.7372687 6.4804687,6.7157656 6.4375,6.7027691 6.3945312,6.6897722 6.1896138,6.5983875 5.9821281,6.4996916 5.7746422,6.4009959 5.5707359,6.3095747 5.5290031,6.2965334 5.48727,6.2834922 5.3898437,6.2406878 5.3125,6.2014125 5.1232278,6.1053 4.7606531,5.9381525 4.4375,5.7980359 4.2914062,5.7346909 4.1585156,5.6698441 4.1421875,5.6539316 4.0321012,5.5466484 4.03125,5.5647303 4.03125,8.0100638 v 2.3850642 l 1.7265625,0.941588 1.7265625,0.941589 0.008,-2.5358425 C 7.496775,8.3477491 7.489745,7.1969113 7.47675,7.1850447 Z m 4.3748155,5.0255703 2.179687,-1.18746 V 7.5150484 4.0069419 L 13.726563,3.8953291 C 13.558984,3.8339419 12.317999,3.382325 10.968818,2.8917361 L 8.5157603,1.999756 6.4844428,2.7375916 C 5.3672181,3.1434013 4.4421116,3.4856413 4.4286509,3.498125 c -0.013461,0.012484 0.035758,0.048212 0.109375,0.079397 0.073617,0.031184 0.2955679,0.1307644 0.4932241,0.2212891 0.1976563,0.090525 0.5703125,0.2586674 0.828125,0.3736512 0.2578125,0.1149834 0.4828125,0.2199344 0.5,0.2332247 0.017188,0.01329 0.066406,0.034797 0.109375,0.047794 0.042969,0.012997 0.2478863,0.1043816 0.4553719,0.2030775 0.2074859,0.098696 0.4113922,0.1901169 0.453125,0.2031582 0.041733,0.013041 0.1391594,0.055876 0.2165031,0.095188 0.2124106,0.1079637 0.6837691,0.3263453 0.7043888,0.3263453 0.00999,0 0.1912353,0.083891 0.4027687,0.1864253 0.3178016,0.1540438 0.4120788,0.2164841 0.5427681,0.3594794 0.094857,0.1037878 0.184061,0.2422756 0.2228682,0.3459969 0.064052,0.171194 0.064706,0.2089703 0.064706,3.7353703 v 3.5624271 l 0.070312,-0.03644 c 0.038672,-0.02004 1.0511712,-0.570794 2.2500002,-1.223898 z"
       id="path819"
       inkscape:connector-curvature="0" />
  </g>
</svg>
