<?xml version="1.0" encoding="UTF-8" standalone="no"?>
<!-- Created with Inkscape (http://www.inkscape.org/) -->

<svg
   version="1.1"
   id="svg2"
   width="1600"
   height="1600"
   viewBox="0 0 1600 1600"
   sodipodi:docname="solidify.svg"
   inkscape:version="1.2.2 (732a01da63, 2022-12-09)"
   xmlns:inkscape="http://www.inkscape.org/namespaces/inkscape"
   xmlns:sodipodi="http://sodipodi.sourceforge.net/DTD/sodipodi-0.dtd"
   xmlns="http://www.w3.org/2000/svg"
   xmlns:svg="http://www.w3.org/2000/svg"
   xmlns:rdf="http://www.w3.org/1999/02/22-rdf-syntax-ns#"
   xmlns:cc="http://creativecommons.org/ns#"
   xmlns:dc="http://purl.org/dc/elements/1.1/">
  <metadata
     id="metadata8">
    <rdf:RDF>
      <cc:Work
         rdf:about="">
        <dc:format>image/svg+xml</dc:format>
        <dc:type
           rdf:resource="http://purl.org/dc/dcmitype/StillImage" />
      </cc:Work>
    </rdf:RDF>
  </metadata>
  <defs
     id="defs6" />
  <sodipodi:namedview
     pagecolor="#808080"
     bordercolor="#666666"
     borderopacity="1"
     objecttolerance="10"
     gridtolerance="10"
     guidetolerance="10"
     inkscape:pageopacity="0"
     inkscape:pageshadow="2"
     inkscape:window-width="1993"
     inkscape:window-height="1009"
     id="namedview4"
     showgrid="false"
     inkscape:zoom="0.5"
     inkscape:cx="9"
     inkscape:cy="8"
     inkscape:window-x="-8"
     inkscape:window-y="-8"
     inkscape:window-maximized="1"
     inkscape:current-layer="SOLIDIFY"
     inkscape:showpageshadow="0"
     inkscape:pagecheckerboard="true"
     inkscape:deskcolor="#d1d1d1" />
  <g
     id="SOLIDIFY"
     transform="matrix(100,0,0,100,0,4.9999997e-5)"
     style="stroke-width:0.0114286">
    <path
       style="fill:none;stroke-width:0.000357143"
       d="M 0,8 V 0 h 8 8 v 8 8 H 8 0 Z m 8.8445697,6.999198 c 1.2938703,-0.15661 2.5524423,-0.683771 3.5713393,-1.495878 1.419208,-1.131175 2.36214,-2.831675 2.583289,-4.6587503 0.04132,-0.3414038 0.04132,-1.3477356 0,-1.6891394 C 14.778049,5.3283553 13.835117,3.6278547 12.415909,2.4966804 11.397012,1.6845727 10.13844,1.1574117 8.8445697,1.000802 8.5031659,0.9594785 7.4968341,0.9594785 7.1554303,1.000802 5.3283553,1.2219507 3.6278547,2.1648829 2.4966804,3.5840912 1.6845727,4.6029881 1.1574117,5.86156 1.000802,7.1554303 c -0.0413235,0.3414038 -0.0413235,1.3477356 0,1.6891394 0.213347,1.7626193 1.1039358,3.4210933 2.436698,4.5376723 1.0407612,0.871943 2.3509975,1.447734 3.671875,1.613628 0.3116591,0.03914 1.421715,0.04127 1.7351947,0.0033 z"
       id="path825"
       inkscape:connector-curvature="0" />
    <path
       style="fill:#febf00;stroke-width:0.000357143"
       d="M 7.15625,13.907391 C 6.4610016,13.799657 5.9933084,13.654416 5.390625,13.359083 4.6437213,12.993076 4.0065731,12.505218 3.4935672,11.906523 2.232967,10.435362 1.7538144,8.5032656 2.1876444,6.640625 2.334783,6.0088884 2.6611894,5.2546134 3.0260819,4.703125 4.3939903,2.6357057 6.9405197,1.6242658 9.359375,2.1876444 c 0.6320491,0.1472114 1.386704,0.4738459 1.9375,0.8386014 2.068475,1.3698126 3.078956,3.9138598 2.515481,6.3331292 -0.147139,0.6317366 -0.473545,1.386012 -0.838438,1.9375 C 11.870313,12.964833 9.96563,13.978718 7.9598631,13.965914 7.7039363,13.96428 7.3632869,13.939473 7.15625,13.907391 Z M 7,12.365856 V 11.825463 L 6.8614328,11.788402 C 6.3777741,11.659043 5.6021922,11.194934 5.2036291,10.796371 4.8050659,10.397808 4.3409572,9.6222259 4.2115981,9.1385672 L 4.1745372,9 H 3.6341437 C 3.3369272,9 3.09375,9.0082038 3.09375,9.0182309 c 0,0.010027 0.027727,0.126826 0.061615,0.2595535 0.3496166,1.3693136 1.3905125,2.6311926 2.6663253,3.2323886 0.4028528,0.189835 0.953245,0.379825 1.1392469,0.393256 C 6.9907903,12.905585 7,12.778843 7,12.365856 Z m 2.2777844,0.478779 C 10.126368,12.627972 10.872848,12.194055 11.533452,11.533452 12.082304,10.9846 12.436888,10.438695 12.701964,9.7344522 12.770749,9.5517078 12.90625,9.0766441 12.90625,9.0182309 12.90625,9.0082038 12.663073,9 12.365856,9 h -0.540393 l -0.03706,0.1385672 c -0.129359,0.4836587 -0.593468,1.2592408 -0.992031,1.6578038 -0.398563,0.398563 -1.1741451,0.862672 -1.6578038,0.992031 L 9,11.825463 v 0.540393 c 0,0.297217 0.0082,0.540394 0.018231,0.540394 0.010027,0 0.126826,-0.02773 0.2595535,-0.06161 z M 4.2115981,6.8614328 C 4.3409572,6.3777741 4.8050659,5.6021922 5.2036291,5.2036291 5.6021922,4.8050659 6.3777741,4.3409572 6.8614328,4.2115981 L 7,4.1745372 V 3.6341437 C 7,3.3369272 6.9917962,3.09375 6.9817691,3.09375 6.9233559,3.09375 6.4482922,3.2292513 6.2655478,3.2980359 5.561305,3.5631122 5.0154,3.9176962 4.4665481,4.4665481 3.9176962,5.0154 3.5631122,5.561305 3.2980359,6.2655478 3.2292513,6.4482922 3.09375,6.9233559 3.09375,6.9817691 3.09375,6.9917962 3.3369272,7 3.6341437,7 H 4.1745372 Z M 12.90625,6.9817691 c 0,-0.058413 -0.135501,-0.5334769 -0.204286,-0.7162213 C 12.436888,5.561305 12.082304,5.0154 11.533452,4.4665481 10.9846,3.9176963 10.438695,3.5631122 9.7344522,3.2980359 9.5517078,3.2292513 9.0766441,3.09375 9.0182309,3.09375 9.0082038,3.09375 9,3.3369272 9,3.6341437 v 0.5403935 l 0.1385672,0.037061 c 0.4836587,0.1293591 1.2592408,0.5934678 1.6578038,0.992031 0.398563,0.3985631 0.862672,1.174145 0.992031,1.6578037 L 11.825463,7 h 0.540393 c 0.297217,0 0.540394,-0.0082 0.540394,-0.018231 z"
       id="path823"
       inkscape:connector-curvature="0" />
    <path
       style="fill:#fe0000;stroke-width:0.000357143"
       d="M 6.7079303,12.843615 C 5.8564247,12.616778 5.11858,12.185483 4.4665481,11.533452 3.9176963,10.9846 3.5631122,10.438695 3.2980359,9.7344522 3.2292513,9.5517078 3.09375,9.0766441 3.09375,9.0182309 3.09375,9.0082038 3.3369272,9 3.6341437,9 h 0.5403935 l 0.037061,0.1385672 c 0.1293591,0.4836587 0.5934678,1.2592408 0.992031,1.6578038 0.3985631,0.398563 1.174145,0.862672 1.6578037,0.992031 L 7,11.825463 v 0.540393 c 0,0.412986 -0.00921,0.539729 -0.039063,0.537573 -0.021484,-0.0015 -0.1353378,-0.02847 -0.2530072,-0.05981 z M 9,12.365856 v -0.540393 l 0.1385672,-0.03706 c 0.4836587,-0.129359 1.2592408,-0.593468 1.6578038,-0.992031 0.398563,-0.398563 0.862672,-1.1741451 0.992031,-1.6578038 L 11.825463,9 h 0.540393 c 0.297217,0 0.540394,0.0082 0.540394,0.018231 0,0.058413 -0.135501,0.5334769 -0.204286,0.7162213 C 12.436888,10.438695 12.082304,10.9846 11.533452,11.533452 10.9846,12.082304 10.438695,12.436888 9.7344522,12.701964 9.5517078,12.770749 9.0766441,12.90625 9.0182309,12.90625 9.0082038,12.90625 9,12.663073 9,12.365856 Z M 3.09375,6.9817691 c 0,-0.058413 0.1355013,-0.5334769 0.2042859,-0.7162213 C 3.5631122,5.561305 3.9176962,5.0154 4.4665481,4.4665481 5.0154,3.9176962 5.561305,3.5631122 6.2655478,3.2980359 6.4482922,3.2292513 6.9233559,3.09375 6.9817691,3.09375 6.9917962,3.09375 7,3.3369272 7,3.6341437 V 4.1745372 L 6.8614328,4.2115981 C 6.3777741,4.3409572 5.6021922,4.8050659 5.2036291,5.2036291 4.8050659,5.6021922 4.3409572,6.3777741 4.2115981,6.8614328 L 4.1745372,7 H 3.6341437 C 3.3369272,7 3.09375,6.9917962 3.09375,6.9817691 Z M 11.788402,6.8614328 C 11.659043,6.3777741 11.194934,5.6021922 10.796371,5.2036291 10.397808,4.8050659 9.6222259,4.3409572 9.1385672,4.2115981 L 9,4.1745372 V 3.6341437 C 9,3.3369272 9.0082038,3.09375 9.0182309,3.09375 c 0.058413,0 0.5334769,0.1355013 0.7162213,0.2042859 C 10.438695,3.5631122 10.9846,3.9176962 11.533452,4.4665481 12.082304,5.0154 12.436888,5.561305 12.701964,6.2655478 12.770749,6.4482922 12.90625,6.9233559 12.90625,6.9817691 12.90625,6.9917962 12.663073,7 12.365856,7 h -0.540393 z"
       id="path821"
       inkscape:connector-curvature="0" />
    <path
       style="fill:#000000;stroke-width:0.000357143"
       d="M 7.109375,14.99587 C 5.7884975,14.829976 4.4782612,14.254185 3.4375,13.382242 2.1047378,12.265663 1.214149,10.607189 1.000802,8.8445697 0.9594785,8.5031659 0.9594785,7.4968341 1.000802,7.1554303 1.1574117,5.86156 1.6845727,4.6029881 2.4966804,3.5840913 3.6278547,2.1648829 5.3283553,1.2219507 7.1554303,1.000802 c 0.3414038,-0.0413235 1.3477356,-0.0413235 1.6891394,0 1.2938703,0.1566097 2.5524423,0.6837707 3.5713393,1.4958784 1.419208,1.1311743 2.36214,2.8316749 2.583289,4.6587499 0.04132,0.3414038 0.04132,1.3477356 0,1.6891394 -0.221149,1.8270753 -1.164081,3.5275753 -2.583289,4.6587503 -1.018897,0.812107 -2.277469,1.339268 -3.5713393,1.495878 -0.3134797,0.03794 -1.4235356,0.03581 -1.7351947,-0.0033 z M 8.7567381,13.919667 C 9.6851097,13.790447 10.549951,13.468392 11.296875,12.973754 13.36535,11.603942 14.375831,9.0598944 13.812356,6.640625 13.665217,6.0088884 13.338811,5.2546134 12.973918,4.703125 11.60601,2.6357057 9.0594803,1.6242658 6.640625,2.1876444 6.0085759,2.3348558 5.2539213,2.6614903 4.703125,3.0262458 2.6346496,4.3960584 1.6241694,6.9401056 2.1876444,9.359375 c 0.1471386,0.6317366 0.473545,1.386012 0.8384375,1.9375 0.415119,0.627399 1.0482593,1.260478 1.6770431,1.676879 0.5305509,0.351349 1.2938856,0.686153 1.890625,0.829242 0.6720769,0.161155 1.516255,0.206689 2.1629881,0.116671 z"
       id="path819"
       inkscape:connector-curvature="0" />
  </g>
</svg>
