<?xml version="1.0" encoding="UTF-8" standalone="no"?>
<!-- Created with Inkscape (http://www.inkscape.org/) -->

<svg
   version="1.1"
   id="svg2"
   width="1600"
   height="1600"
   viewBox="0 0 1600 1600"
   sodipodi:docname="sortsize.svg"
   inkscape:version="1.2.2 (732a01da63, 2022-12-09)"
   xmlns:inkscape="http://www.inkscape.org/namespaces/inkscape"
   xmlns:sodipodi="http://sodipodi.sourceforge.net/DTD/sodipodi-0.dtd"
   xmlns="http://www.w3.org/2000/svg"
   xmlns:svg="http://www.w3.org/2000/svg"
   xmlns:rdf="http://www.w3.org/1999/02/22-rdf-syntax-ns#"
   xmlns:cc="http://creativecommons.org/ns#"
   xmlns:dc="http://purl.org/dc/elements/1.1/">
  <metadata
     id="metadata8">
    <rdf:RDF>
      <cc:Work
         rdf:about="">
        <dc:format>image/svg+xml</dc:format>
        <dc:type
           rdf:resource="http://purl.org/dc/dcmitype/StillImage" />
      </cc:Work>
    </rdf:RDF>
  </metadata>
  <defs
     id="defs6" />
  <sodipodi:namedview
     pagecolor="#808080"
     bordercolor="#666666"
     borderopacity="1"
     objecttolerance="10"
     gridtolerance="10"
     guidetolerance="10"
     inkscape:pageopacity="0"
     inkscape:pageshadow="2"
     inkscape:window-width="1993"
     inkscape:window-height="1009"
     id="namedview4"
     showgrid="false"
     inkscape:zoom="0.5"
     inkscape:cx="377"
     inkscape:cy="312"
     inkscape:window-x="-8"
     inkscape:window-y="-8"
     inkscape:window-maximized="1"
     inkscape:current-layer="SORTSIZE"
     inkscape:showpageshadow="0"
     inkscape:pagecheckerboard="true"
     inkscape:deskcolor="#d1d1d1" />
  <g
     id="SORTSIZE"
     transform="matrix(100,0,0,100,0,4.9999997e-5)"
     style="stroke-width:0.0114286">
    <path
       style="fill:none;stroke-width:0.000357143"
       d="M 0,8 V 0 h 8 8 v 8 8 H 8 0 Z m 9.4947806,6.434344 c 0.3974885,-0.134233 0.7740804,-0.510825 0.9083134,-0.908313 0.09184,-0.271948 0.09184,-0.748863 0,-1.020812 C 10.268861,12.107731 9.8922691,11.731139 9.4947806,11.596906 9.3095878,11.534365 9.2386725,11.53125 8,11.53125 c -1.2386725,0 -1.3095878,0.0031 -1.4947806,0.06566 -0.3974885,0.134233 -0.77408,0.510825 -0.9083138,0.908313 -0.091838,0.271948 -0.091838,0.748863 0,1.020812 0.1315747,0.389615 0.4867941,0.75218 0.8801138,0.898315 0.1920372,0.07135 0.2138653,0.07242 1.5091003,0.07403 1.2551159,0.0016 1.3229915,-0.0013 1.5086609,-0.06403 z M 11.526031,9.4343444 c 0.397488,-0.1342338 0.77408,-0.5108253 0.908313,-0.9083138 0.09184,-0.2719481 0.09184,-0.7488631 0,-1.0208112 C 12.300111,7.1077309 11.923519,6.7311394 11.526031,6.5969056 11.333338,6.5318322 11.302213,6.53125 8.015625,6.53125 c -3.2865884,0 -3.3177131,5.812e-4 -3.5104056,0.065656 -0.3974885,0.1342338 -0.77408,0.5108253 -0.9083138,0.9083138 -0.091838,0.2719481 -0.091838,0.7488631 0,1.0208112 0.1315747,0.389615 0.4867941,0.7521803 0.8801138,0.8983156 l 0.1948556,0.072397 3.3298697,0.00163 c 3.3028543,0.00162 3.3314473,0.0011 3.5242863,-0.064027 z m 3,-5 c 0.397488,-0.1342338 0.77408,-0.5108253 0.908313,-0.9083138 0.09184,-0.2719481 0.09184,-0.7488631 0,-1.0208114 C 15.300111,2.1077308 14.923519,1.7311394 14.526031,1.5969055 L 14.331614,1.53125 H 8.015625 1.6996357 L 1.5052192,1.5969055 C 1.1077308,1.7311394 0.73113941,2.1077308 0.59690547,2.5052192 c -0.0918384,0.2719483 -0.0918384,0.7488633 0,1.0208114 0.131575,0.389615 0.48679413,0.7521803 0.88011393,0.8983156 L 1.671875,4.4967434 8.0017447,4.4983719 14.331614,4.5 Z"
       id="path823"
       inkscape:connector-curvature="0" />
    <path
       style="fill:#fefefe;stroke-width:0.000357143"
       d="M 6.6769444,13.952142 C 6.4011003,13.849746 6.1392819,13.571113 6.0630428,13.298813 6.0069297,13.098398 6.0336237,12.765214 6.1200184,12.58766 6.210855,12.400978 6.3998084,12.21167 6.5876603,12.119141 6.7336659,12.047224 6.7404909,12.046875 8,12.046875 c 1.2595091,0 1.2663341,3.5e-4 1.4123397,0.07227 0.1872581,0.09224 0.3762828,0.281261 0.4685191,0.468519 0.104034,0.21121 0.104034,0.64472 0,0.85593 -0.092236,0.187258 -0.281261,0.376283 -0.4685191,0.468519 -0.1450994,0.07147 -0.1603038,0.07233 -1.3810897,0.07841 -1.0027328,0.005 -1.2568813,-0.0022 -1.3543056,-0.03838 z m -2,-5.0003092 C 4.4016834,8.8503625 4.1393328,8.5712953 4.0630428,8.2988134 4.0069297,8.0983978 4.0336237,7.7652141 4.1200184,7.5876603 4.210855,7.4009778 4.3998084,7.21167 4.5876603,7.1191412 L 4.734375,7.046875 h 3.28125 3.28125 l 0.146715,0.072266 c 0.187258,0.092236 0.376282,0.281261 0.468519,0.4685191 0.104034,0.2112097 0.104034,0.6447197 0,0.8559294 -0.09224,0.1872581 -0.281261,0.3762828 -0.468519,0.4685191 l -0.146715,0.072266 -3.25,0.00583 C 5.3118656,8.9951184 4.7778709,8.9890372 4.6769444,8.9518328 Z M 1.6769445,3.9517291 C 1.401878,3.8505684 1.1393501,3.5713566 1.0630427,3.2988134 1.0069298,3.0983978 1.0336236,2.7652141 1.1200185,2.5876603 1.2108551,2.4009779 1.3998084,2.21167 1.5876603,2.1191413 L 1.734375,2.046875 h 6.28125 6.28125 l 0.146715,0.072266 c 0.187258,0.092236 0.376282,0.281261 0.468519,0.468519 0.104034,0.2112098 0.104034,0.6447197 0,0.8559294 -0.09224,0.1872581 -0.281261,0.3762828 -0.468519,0.4685191 l -0.146715,0.072266 -6.25,0.00573 c -5.3139577,0.00487 -6.2679616,-8.75e-4 -6.3699305,-0.038375 z"
       id="path821"
       inkscape:connector-curvature="0" />
    <path
       style="fill:#323232;stroke-width:0.000357143"
       d="m 6.4770194,14.424346 c -0.3933197,-0.146135 -0.7485391,-0.5087 -0.8801138,-0.898315 -0.091838,-0.271949 -0.091838,-0.748864 0,-1.020812 0.1342338,-0.397488 0.5108253,-0.77408 0.9083138,-0.908313 C 6.6904122,11.534365 6.7613275,11.53125 8,11.53125 c 1.4844594,0 1.5171944,0.0047 1.8758859,0.268743 0.4034431,0.296998 0.5928641,0.685395 0.5928641,1.215632 0,0.530238 -0.189421,0.918634 -0.5928641,1.215632 -0.3596834,0.264784 -0.3893268,0.268974 -1.8897662,0.267115 -1.295235,-0.0016 -1.3170631,-0.0027 -1.5091003,-0.07403 z m 2.9353203,-0.512237 c 0.1872581,-0.09224 0.3762828,-0.281261 0.4685191,-0.468519 0.059301,-0.120393 0.072266,-0.197174 0.072266,-0.427965 0,-0.230791 -0.012965,-0.307572 -0.072266,-0.427965 C 9.7886225,12.400402 9.5995978,12.211378 9.4123397,12.119141 9.2663341,12.047224 9.2595091,12.046875 8,12.046875 c -1.2595091,0 -1.2663341,3.5e-4 -1.4123397,0.07227 -0.1878519,0.09253 -0.3768053,0.281837 -0.4676419,0.468519 -0.086395,0.177554 -0.1130887,0.510738 -0.056976,0.711153 0.076239,0.2723 0.3380575,0.550933 0.6139016,0.653329 0.097424,0.03617 0.3515728,0.04337 1.3543056,0.03838 1.2207859,-0.0061 1.2359903,-0.0069 1.3810897,-0.07841 z M 4.4770194,9.4243462 C 4.0836997,9.2782109 3.7284803,8.9156456 3.5969056,8.5260306 c -0.091838,-0.2719481 -0.091838,-0.7488631 0,-1.0208112 C 3.7311394,7.1077309 4.1077309,6.7311394 4.5052194,6.5969056 4.6979119,6.5318322 4.7290366,6.53125 8.015625,6.53125 c 3.286588,0 3.317713,5.812e-4 3.510406,0.065656 0.397488,0.1342338 0.77408,0.5108253 0.908313,0.9083138 0.09184,0.2719481 0.09184,0.7488631 0,1.0208112 -0.134233,0.3974885 -0.510825,0.77408 -0.908313,0.9083138 -0.192839,0.065123 -0.221432,0.065642 -3.5242863,0.064027 L 4.671875,9.4967434 Z M 11.44359,8.9121088 c 0.187258,-0.092236 0.376283,-0.281261 0.468519,-0.4685191 0.104034,-0.2112097 0.104034,-0.6447197 0,-0.8559294 C 11.819873,7.4004022 11.630848,7.2113775 11.44359,7.1191412 L 11.296875,7.046875 H 8.015625 4.734375 L 4.5876603,7.1191412 C 4.3998084,7.21167 4.210855,7.4009778 4.1200184,7.5876603 4.0336237,7.7652141 4.0069297,8.0983978 4.0630428,8.2988134 c 0.07629,0.2724819 0.3386406,0.5515491 0.6139016,0.6530194 0.1009265,0.037205 0.6349212,0.043286 3.3699306,0.038376 l 3.25,-0.00583 z M 1.4770194,4.4243462 C 1.0836996,4.2782109 0.72848047,3.9156456 0.59690547,3.5260306 c -0.0918384,-0.2719481 -0.0918384,-0.7488631 0,-1.0208114 C 0.73113941,2.1077308 1.1077308,1.7311394 1.5052192,1.5969055 L 1.6996357,1.53125 h 6.3159893 6.315989 l 0.194417,0.065656 c 0.397488,0.1342339 0.77408,0.5108253 0.908313,0.9083137 0.09184,0.2719483 0.09184,0.7488633 0,1.0208114 -0.134233,0.3974885 -0.510825,0.77408 -0.908313,0.9083138 L 14.331614,4.5 8.0017447,4.4983719 1.671875,4.4967434 Z M 14.44359,3.9121088 c 0.187258,-0.092236 0.376283,-0.281261 0.468519,-0.4685191 0.104034,-0.2112097 0.104034,-0.6447196 0,-0.8559294 -0.09224,-0.187258 -0.281261,-0.3762828 -0.468519,-0.468519 L 14.296875,2.046875 H 8.015625 1.734375 L 1.5876602,2.1191413 C 1.3998084,2.21167 1.2108551,2.4009779 1.1200185,2.5876603 1.0336236,2.7652141 1.0069298,3.0983978 1.0630427,3.2988134 1.1393501,3.5713566 1.401878,3.8505684 1.6769445,3.9517291 1.7789134,3.98923 2.7329173,3.9949775 8.046875,3.9901053 l 6.25,-0.00573 z"
       id="path819"
       inkscape:connector-curvature="0" />
  </g>
</svg>
