<?xml version="1.0" encoding="UTF-8" standalone="no"?>
<!-- Created with Inkscape (http://www.inkscape.org/) -->

<svg
   version="1.1"
   id="svg2"
   width="1600"
   height="1600"
   viewBox="0 0 1600 1600"
   sodipodi:docname="sort_desc.svg"
   inkscape:version="1.2.2 (732a01da63, 2022-12-09)"
   xmlns:inkscape="http://www.inkscape.org/namespaces/inkscape"
   xmlns:sodipodi="http://sodipodi.sourceforge.net/DTD/sodipodi-0.dtd"
   xmlns="http://www.w3.org/2000/svg"
   xmlns:svg="http://www.w3.org/2000/svg"
   xmlns:rdf="http://www.w3.org/1999/02/22-rdf-syntax-ns#"
   xmlns:cc="http://creativecommons.org/ns#"
   xmlns:dc="http://purl.org/dc/elements/1.1/">
  <metadata
     id="metadata8">
    <rdf:RDF>
      <cc:Work
         rdf:about="">
        <dc:format>image/svg+xml</dc:format>
        <dc:type
           rdf:resource="http://purl.org/dc/dcmitype/StillImage" />
      </cc:Work>
    </rdf:RDF>
  </metadata>
  <defs
     id="defs6" />
  <sodipodi:namedview
     pagecolor="#808080"
     bordercolor="#666666"
     borderopacity="1"
     objecttolerance="10"
     gridtolerance="10"
     guidetolerance="10"
     inkscape:pageopacity="0"
     inkscape:pageshadow="2"
     inkscape:window-width="1993"
     inkscape:window-height="1009"
     id="namedview4"
     showgrid="false"
     inkscape:zoom="0.5"
     inkscape:cx="-3"
     inkscape:cy="8"
     inkscape:window-x="-8"
     inkscape:window-y="-8"
     inkscape:window-maximized="1"
     inkscape:current-layer="SORT_DESC"
     inkscape:showpageshadow="0"
     inkscape:pagecheckerboard="true"
     inkscape:deskcolor="#d1d1d1" />
  <g
     id="SORT_DESC"
     transform="matrix(100,0,0,100,0,4.9999997e-5)"
     style="stroke-width:0.0114286">
    <path
       style="fill:none;stroke-width:0.000357143"
       d="M 0,8 V 0 h 8 8 v 8 8 H 8 0 Z m 8.640625,6.908136 C 8.8649469,14.819468 9.2477503,14.46877 9.3590113,14.25 9.5397656,13.894587 9.53125,14.105316 9.53125,9.9878303 V 6.2057544 l 0.820313,0.8148172 C 11.350352,8.0126703 11.301957,7.984375 12,7.984375 c 0.585419,0 0.722197,-0.048107 1.057809,-0.3720516 C 13.42939,7.2536606 13.546567,6.9516175 13.524151,6.4102478 13.498395,5.7882191 13.697975,6.0328566 11.082559,3.4174409 8.4599475,0.79482956 8.7137069,1.0006862 8.0726794,0.97574269 7.6993263,0.96121487 7.5450772,0.99252303 7.25,1.1427234 7.1509866,1.1931232 6.45192,1.8738128 4.8875294,3.4430897 2.9380504,5.3986578 2.6564864,5.6929444 2.5906545,5.84375 2.522422,6.0000547 2.515625,6.0580897 2.515625,6.484375 c 0,0.6202778 0.04271,0.7364959 0.4031071,1.0968928 C 3.2769544,7.9394903 3.3973503,7.984375 4,7.984375 c 0.7005044,0 0.6481816,0.030796 1.6637,-0.9792025 L 6.4992753,6.17414 l 0.00817,3.889493 0.00817,3.889492 0.073342,0.181782 c 0.047283,0.117195 0.1405781,0.253659 0.2625815,0.384081 0.2347341,0.250931 0.3269597,0.317255 0.5676753,0.408242 0.1697172,0.06415 0.2354878,0.07097 0.6120266,0.06345 0.3576487,-0.0071 0.45042,-0.01971 0.609375,-0.08254 z"
       id="path823"
       inkscape:connector-curvature="0" />
    <path
       style="fill:#fefefe;stroke-width:0.000357143"
       d="M 7.5939062,14.445502 C 7.3978725,14.376332 7.1205347,14.093311 7.0523719,13.892871 7.004355,13.751672 7,13.373598 7,9.3461459 V 4.9534256 L 5.7887687,6.1643581 C 4.4214012,7.5313884 4.4633156,7.5 4.0052316,7.5 3.6621516,7.5 3.4928472,7.4349787 3.2789344,7.2210656 3.0602811,7.0024125 2.9998849,6.8398259 3.0003053,6.4709956 3.0005522,6.2535991 3.0146591,6.1736831 3.0751672,6.046875 3.1346837,5.922145 3.5837825,5.4579275 5.3014244,3.7456719 7.3655862,1.6879828 7.4607531,1.5979097 7.640625,1.5316762 7.8755413,1.445174 8.2213138,1.454784 8.4375,1.5538236 8.5447684,1.6029656 9.094625,2.136075 10.75559,3.8013109 l 2.177465,2.1830641 0.05291,0.1851575 c 0.109054,0.3816659 0.01064,0.7818347 -0.260051,1.0574072 C 12.534046,7.4222637 12.328641,7.5 12.004395,7.5 11.540329,7.5 11.60071,7.544813 10.242615,6.1924522 l -1.2105097,-1.2053994 -0.00824,4.3892863 -0.00824,4.3892859 -0.071769,0.15625 c -0.1009228,0.219722 -0.3273815,0.440132 -0.5301625,0.516002 -0.2059018,0.07704 -0.6123509,0.08082 -0.8197872,0.0076 z"
       id="path821"
       inkscape:connector-curvature="0" />
    <path
       style="fill:#000000;stroke-width:0.000357143"
       d="M 7.4192234,14.92723 C 7.1785078,14.836243 7.0862822,14.769919 6.8515481,14.518988 6.7295447,14.388566 6.63625,14.252103 6.5889666,14.134907 L 6.515625,13.953125 6.50745,10.063633 6.4992753,6.17414 5.6637,7.0051725 C 4.6481816,8.0151706 4.7005044,7.984375 4,7.984375 3.3973503,7.984375 3.2769544,7.9394903 2.9187321,7.5812678 2.558335,7.2208709 2.515625,7.1046528 2.515625,6.484375 c 0,-0.4262853 0.0068,-0.4843203 0.075029,-0.640625 C 2.6564864,5.6929444 2.9380504,5.3986578 4.8875294,3.4430897 6.45192,1.8738128 7.1509866,1.1931232 7.25,1.1427234 7.5450772,0.99252303 7.6993263,0.96121488 8.0726794,0.97574269 8.7137069,1.0006862 8.4599475,0.79482956 11.082559,3.4174409 c 2.615416,2.6154157 2.415836,2.3707782 2.441592,2.9928069 0.02242,0.5413697 -0.09476,0.8434128 -0.466342,1.2020756 C 12.722197,7.9362678 12.585419,7.984375 12,7.984375 c -0.698043,0 -0.649648,0.028295 -1.648437,-0.9638034 L 9.53125,6.2057544 v 3.7820759 c 0,3.3871217 -0.00526,3.7998007 -0.05036,3.9518107 C 9.396638,14.223606 9.2979244,14.380556 9.0578088,14.612323 8.7338625,14.925008 8.5857409,14.9796 8.03125,14.990677 7.6547112,14.9982 7.5889406,14.99138 7.4192234,14.92723 Z m 0.99447,-0.489353 c 0.202781,-0.07587 0.4292397,-0.29628 0.5301625,-0.516002 l 0.071769,-0.15625 0.00824,-4.3892859 0.00824,-4.3892863 1.2105101,1.2053994 C 11.60071,7.5448128 11.540329,7.5 12.004395,7.5 c 0.324246,0 0.529651,-0.077736 0.721514,-0.2730603 0.27069,-0.2755725 0.369105,-0.6757413 0.260051,-1.0574072 L 12.933055,5.984375 10.75559,3.8013109 C 9.094625,2.136075 8.5447684,1.6029656 8.4375,1.5538236 8.2213138,1.454784 7.8755413,1.445174 7.640625,1.5316762 7.4607531,1.5979097 7.3655862,1.6879828 5.3014244,3.7456719 3.5837825,5.4579275 3.1346837,5.922145 3.0751672,6.046875 3.0146591,6.1736831 3.000553,6.2535991 3.0003053,6.4709956 2.999885,6.8398259 3.0602811,7.0024125 3.2789344,7.2210656 3.4928472,7.4349787 3.6621516,7.5 4.0052316,7.5 4.4633156,7.5 4.4214013,7.531388 5.7887688,6.1643581 L 7,4.9534256 v 4.3927203 c 0,4.0274521 0.00436,4.4055261 0.052372,4.5467251 0.068163,0.20044 0.3455006,0.483461 0.5415344,0.552631 0.2074362,0.07319 0.6138853,0.06941 0.8197871,-0.0076 z"
       id="path819"
       inkscape:connector-curvature="0" />
  </g>
</svg>
