<?xml version="1.0" encoding="UTF-8" standalone="no"?>
<!-- Created with Inkscape (http://www.inkscape.org/) -->

<svg
   version="1.1"
   id="svg2"
   width="1600"
   height="1600"
   viewBox="0 0 1600 1600"
   sodipodi:docname="sortalpha.svg"
   inkscape:version="1.2.2 (732a01da63, 2022-12-09)"
   xmlns:inkscape="http://www.inkscape.org/namespaces/inkscape"
   xmlns:sodipodi="http://sodipodi.sourceforge.net/DTD/sodipodi-0.dtd"
   xmlns="http://www.w3.org/2000/svg"
   xmlns:svg="http://www.w3.org/2000/svg"
   xmlns:rdf="http://www.w3.org/1999/02/22-rdf-syntax-ns#"
   xmlns:cc="http://creativecommons.org/ns#"
   xmlns:dc="http://purl.org/dc/elements/1.1/">
  <metadata
     id="metadata8">
    <rdf:RDF>
      <cc:Work
         rdf:about="">
        <dc:format>image/svg+xml</dc:format>
        <dc:type
           rdf:resource="http://purl.org/dc/dcmitype/StillImage" />
      </cc:Work>
    </rdf:RDF>
  </metadata>
  <defs
     id="defs6" />
  <sodipodi:namedview
     pagecolor="#808080"
     bordercolor="#666666"
     borderopacity="1"
     objecttolerance="10"
     gridtolerance="10"
     guidetolerance="10"
     inkscape:pageopacity="0"
     inkscape:pageshadow="2"
     inkscape:window-width="2560"
     inkscape:window-height="1009"
     id="namedview4"
     showgrid="false"
     inkscape:zoom="0.5"
     inkscape:cx="682"
     inkscape:cy="450"
     inkscape:window-x="-8"
     inkscape:window-y="-8"
     inkscape:window-maximized="1"
     inkscape:current-layer="SORTALPHA"
     inkscape:showpageshadow="0"
     inkscape:pagecheckerboard="true"
     inkscape:deskcolor="#d1d1d1" />
  <g
     id="SORTALPHA"
     transform="matrix(100.04818,0,0,100.04818,0.00944571,0)"
     style="stroke-width:0.00999525">
    <path
       style="fill:none;stroke-width:0.00031235"
       d="M 0.00283952,12.039063 C 0.00539318,8.47688 0.01034951,8.0954281 0.05207202,8.25 c 0.02551614,0.094531 0.09980551,0.2860459 0.1650875,0.4255884 0.5223237,1.1164844 1.58611328,1.8191476 3.00127738,1.9824296 0.4040594,0.04662 1.56164,0.01984 1.9221881,-0.04448 0.5144456,-0.09176 1.0883009,-0.271346 1.4406659,-0.450844 l 0.1218341,-0.06206 0.1331122,0.118257 c 0.22625,0.201001 0.3857525,0.259517 0.7488806,0.274741 l 0.3194931,0.01339 -0.8921897,0.914615 c -0.490704,0.503039 -0.9252515,0.963271 -0.9656609,1.022739 -0.16871,0.248279 -0.1752962,0.314025 -0.1653315,1.650414 l 0.0092,1.233329 0.077379,0.15625 c 0.090229,0.182197 0.2825578,0.384344 0.4382456,0.460618 0.1040466,0.05097 -0.049338,0.05362 -3.1484375,0.05429 L 0,16 Z M 15.625,15.944993 c 0.06016,-0.02947 0.169141,-0.113157 0.242188,-0.185967 L 16,15.626645 V 15.813323 16 l -0.242187,-7.13e-4 -0.242188,-7.12e-4 0.109375,-0.05358 z m 0.234375,-3.737715 c -0.06875,-0.07182 -0.195312,-0.165419 -0.28125,-0.207994 -0.155824,-0.0772 -0.159413,-0.07745 -1.317091,-0.09303 l -1.160841,-0.01563 1.318214,-1.34375 c 0.981893,-1.0009153 1.337859,-1.3836144 1.395215,-1.5 l 0.077,-0.15625 V 7.6875 6.484375 l -0.07738,-0.15625 C 15.71459,6.1289119 15.527338,5.9416603 15.328125,5.8430044 L 15.171875,5.765625 13.150752,5.7569397 11.129628,5.7482544 11.117716,4.5694397 11.105803,3.390625 11.010077,3.03125 C 10.74198,2.0247614 10.346056,1.3769849 9.7083197,0.90143028 8.9791806,0.35771713 8.1952872,0.11792579 6.8719928,0.03380414 6.6536837,0.01992628 8.5625563,0.00716209 11.242188,0.00458167 L 16,0 v 6.171875 c 0,3.3945313 -0.0035,6.17055 -0.0078,6.168931 -0.0043,-0.0016 -0.06406,-0.06171 -0.132813,-0.133528 z M 0.00222633,3.2421875 0,0 2.3671875,0.0054596 C 3.6691406,0.00846238 4.6710937,0.01566785 4.59375,0.02147175 3.8811088,0.07494857 3.1489822,0.21506158 2.65625,0.39226684 1.9115826,0.66007762 1.192905,1.2135818 0.79533622,1.8254875 0.45128225,2.3550274 0.16640812,3.2143191 0.19471648,3.6371913 0.22832911,4.1392991 0.54359369,4.4833716 1.0697252,4.5921559 L 1.2488253,4.6291872 1.0228502,4.8091147 C 0.57950169,5.1621203 0.23516146,5.6937206 0.05916417,6.296875 0.00616292,6.4785137 0.00438306,6.3830253 0.00222633,3.2421875 Z M 1.28125,1.0625 c 0,-0.017187 -0.014063,-0.03125 -0.03125,-0.03125 -0.017187,0 -0.03125,0.014063 -0.03125,0.03125 0,0.017187 0.014063,0.03125 0.03125,0.03125 0.017187,0 0.03125,-0.014063 0.03125,-0.03125 z"
       id="path825"
       inkscape:connector-curvature="0" />
    <path
       style="fill:#fefefe;stroke-width:0.00031235"
       d="M 6.875,14.038478 V 13.014455 L 8.8828125,10.968165 10.890625,8.921875 9.0390625,8.9138147 7.1875,8.9057544 V 7.8278772 6.75 h 3.859375 3.859375 l -0.0017,0.9296875 -0.0017,0.9296875 -2.104303,2.140625 -2.104303,2.140625 2.231043,0.008 2.231043,0.008 V 13.984582 15.0625 H 11.015624 6.8749994 V 14.038477 Z M 3.078125,10.64327 C 1.7259173,10.443513 0.71994303,9.7515903 0.21734502,8.6755884 0.01815717,8.2491513 0,8.1326672 0,7.28125 0,6.4494478 0.01454355,6.3490044 0.19795039,5.91413 0.37903203,5.4847687 0.67907734,5.0828356 1.0228502,4.8091147 L 1.2488253,4.6291872 1.0697252,4.5921559 C 0.54359369,4.4833716 0.22832911,4.1392991 0.19471648,3.6371913 0.16640812,3.2143191 0.45128225,2.3550274 0.79533622,1.8254875 1.192905,1.2135818 1.9115826,0.66007762 2.65625,0.39226684 3.0130691,0.2639411 3.5759669,0.1350437 4.0539547,0.07220775 4.4066044,0.02584866 4.6989384,0.01588441 5.671875,0.01706069 6.8525941,0.01848818 7.25903,0.04205919 7.875,0.14482963 8.4955994,0.24837244 9.061035,0.462254 9.5180088,0.76631375 10.279808,1.2731972 10.719624,1.9408316 11.010077,3.03125 l 0.09573,0.359375 0.01192,1.1796875 L 11.129639,5.75 H 10.62732 10.125 V 4.7853434 C 10.125,3.6999869 10.100746,3.4820447 9.9196872,2.9404472 9.7368225,2.3934477 9.5081719,2.0376792 9.1638066,1.7643373 8.4510509,1.1985835 7.6104266,1.0197919 5.65625,1.0183185 4.8608397,1.0177188 4.5525391,1.0294176 4.234375,1.0722731 3.27928,1.2009206 2.7430396,1.3899651 2.2241721,1.7809435 1.8290605,2.078669 1.5932235,2.38679 1.4106957,2.84375 1.3176392,3.0767178 1.1780545,3.5634713 1.1984538,3.5838703 1.2237257,3.6091425 4.2023791,3.9035694 4.2205241,3.8825888 4.2315666,3.8698213 4.2647778,3.7969047 4.2943275,3.7205522 4.4455444,3.3298241 4.70986,3.103595 5.1584812,2.980919 5.4524275,2.900539 6.2330437,2.899627 6.4619075,2.9793962 6.7613181,3.0837541 6.8983887,3.2546876 6.9685222,3.6111695 7.039075,3.9697823 7.0445784,3.9627476 6.5625,4.1301467 6.0464572,4.3093398 5.2775303,4.4992282 4.0625,4.7475279 3.0323103,4.9580545 2.7096446,5.0442104 2.3164972,5.2137329 1.6680699,5.4933304 1.2758178,5.8874101 1.0777083,6.4582938 0.78733966,7.295036 0.95687934,8.2020385 1.5166736,8.8066682 2.109182,9.446632 2.9720263,9.7263457 4.203125,9.677552 4.9250247,9.6489401 5.5120209,9.5289467 5.9897625,9.3123282 c 0.1135103,-0.051468 0.2157934,-0.093578 0.2272959,-0.093578 0.011502,0 0.046827,0.058733 0.078498,0.1305175 0.075191,0.1704244 0.2745221,0.3671509 0.4700687,0.4639266 0.15046,0.074462 0.1852,0.077909 0.9375,0.093004 l 0.78125,0.015677 -0.28125,0.2919277 -0.28125,0.291929 -0.328125,-0.0126 c -0.3725576,-0.0143 -0.5284464,-0.07074 -0.7575129,-0.27424 L 6.703125,10.100635 6.5812909,10.162698 c -0.3513168,0.178964 -0.9222215,0.357824 -1.4406659,0.45135 -0.35716,0.06443 -1.6957816,0.0834 -2.0625,0.02922 z M 4.8042022,7.8722484 C 4.2916312,7.7514881 4.00801,7.2769425 4.1714847,6.8136062 4.3096675,6.4219544 4.6211681,6.2509366 5.765625,5.9384028 6.0921875,5.8492234 6.5035156,5.729635 6.6796875,5.6726506 L 7,5.5690425 v 0.098495 C 7,5.7556716 6.9863878,5.7702809 6.8705978,5.8064187 6.6874056,5.8635928 6.4857591,6.01089 6.3797734,6.1649519 6.2153475,6.4039634 6.1875,6.5426584 6.1875,7.1225759 V 7.6492175 L 5.9921875,7.7307328 C 5.6088691,7.8907141 5.1264834,7.9481769 4.8042022,7.8722484 Z"
       id="path823"
       inkscape:connector-curvature="0" />
    <path
       style="fill:#fcfcfc;stroke-width:0.00031235"
       d="m 1.21875,1.0625 c 0,-0.017187 0.014063,-0.03125 0.03125,-0.03125 0.017187,0 0.03125,0.014063 0.03125,0.03125 0,0.017187 -0.014063,0.03125 -0.03125,0.03125 -0.017187,0 -0.03125,-0.014063 -0.03125,-0.03125 z"
       id="path821"
       inkscape:connector-curvature="0" />
    <path
       style="fill:#323232;stroke-width:0.00031235"
       d="M 6.40625,15.944993 C 6.2505622,15.868719 6.0582334,15.666572 5.9680044,15.484375 l -0.077379,-0.15625 -0.0092,-1.233329 c -0.010099,-1.354806 -0.0047,-1.404654 0.180868,-1.671027 0.048621,-0.06979 0.6134803,-0.661269 1.2552419,-1.314394 L 8.484375,9.921875 7.703125,9.9061984 C 6.950825,9.8911028 6.916085,9.8876563 6.765625,9.8131941 6.5700784,9.7164184 6.3707472,9.5196919 6.2955562,9.3492675 6.263885,9.2774828 6.2285609,9.21875 6.2170584,9.21875 6.2055564,9.21875 6.1032728,9.26086 5.9897625,9.312328 5.1804444,9.6792906 3.8264688,9.7927847 2.8758434,9.5733463 1.5422804,9.2655119 0.76295525,8.1616691 0.97078141,6.875 1.0980628,6.0869903 1.5311262,5.5523794 2.3164972,5.2137328 2.7096446,5.0442103 3.0323103,4.9580544 4.0625,4.7475278 5.2775303,4.4992281 6.0464572,4.3093397 6.5625,4.1301466 7.0445784,3.9627475 7.039075,3.9697822 6.9685222,3.6111694 6.8983887,3.2546875 6.7613181,3.083754 6.4619075,2.9793961 6.2330437,2.899627 5.4524275,2.900539 5.1584812,2.9809189 4.70986,3.1035949 4.4455444,3.329824 4.2943275,3.7205521 4.2647778,3.7969046 4.2315666,3.8698212 4.2205241,3.8825887 4.2023791,3.9035693 1.2237257,3.6091424 1.1984538,3.5838702 1.1780545,3.5634713 1.3176392,3.0767178 1.4106957,2.84375 1.5932235,2.38679 1.8290605,2.078669 2.2241721,1.7809435 2.7430396,1.3899651 3.27928,1.2009206 4.234375,1.0722731 4.5525391,1.0294176 4.8608397,1.0177188 5.65625,1.0183185 7.6104266,1.019792 8.4510509,1.1985835 9.1638066,1.7643373 9.5081719,2.0376792 9.7368225,2.3934477 9.9196872,2.9404472 10.100721,3.4819709 10.125,3.70005 10.125,4.7846278 v 0.963941 l 2.523438,0.00853 2.523437,0.00853 0.15625,0.077379 c 0.199213,0.098656 0.386465,0.2859075 0.485121,0.4851206 l 0.07738,0.15625 V 7.6875 8.890625 l -0.077,0.15625 c -0.05736,0.1163856 -0.413322,0.4990847 -1.395215,1.5 l -1.318214,1.34375 1.160841,0.01563 c 1.157532,0.01558 1.161286,0.01585 1.317091,0.093 0.08594,0.04256 0.216016,0.137111 0.289063,0.210116 L 16,12.342105 v 1.64227 1.64227 l -0.132812,0.13264 c -0.263982,0.263639 0.198077,0.240803 -4.856286,0.240003 -4.1817429,-6.61e-4 -4.5029058,-0.0044 -4.604652,-0.05429 z m 8.75,-1.960411 v -1.077918 l -2.231043,-0.008 -2.231044,-0.008 L 12.798466,10.75 14.902769,8.609375 14.90451,7.6796875 14.90625,6.75 H 11.046875 7.1875 v 1.0778772 1.0778772 l 1.8515625,0.00806 1.8515625,0.00806 L 8.8828125,10.968164 6.875,13.014455 v 1.024022 1.024023 h 4.140625 4.140625 z M 5.59375,7.8587872 C 5.7054687,7.8331909 5.8847656,7.7755662 5.9921875,7.7307328 L 6.1875,7.6492175 V 7.1225759 c 0,-0.5799175 0.027848,-0.7186125 0.1922734,-0.957624 C 6.4857591,6.01089 6.6874056,5.8635928 6.8705978,5.8064188 6.9863878,5.7702809 7,5.7556716 7,5.6675375 V 5.5690425 L 6.6796875,5.6726506 C 6.5035156,5.729635 6.0921875,5.8492234 5.765625,5.9384028 5.1019409,6.1196447 4.8619028,6.2033475 4.5895672,6.3485006 3.8776734,6.7279363 4.0125903,7.6857469 4.8042022,7.8722484 4.9902181,7.9160731 5.3721381,7.9095619 5.59375,7.8587872 Z"
       id="path819"
       inkscape:connector-curvature="0" />
  </g>
</svg>
