<?xml version="1.0" encoding="UTF-8" standalone="no"?>
<!-- Created with Inkscape (http://www.inkscape.org/) -->

<svg
   version="1.1"
   id="svg2"
   width="1600"
   height="1600"
   viewBox="0 0 1600 1600"
   sodipodi:docname="sortbyext.svg"
   inkscape:version="1.2.2 (732a01da63, 2022-12-09)"
   xmlns:inkscape="http://www.inkscape.org/namespaces/inkscape"
   xmlns:sodipodi="http://sodipodi.sourceforge.net/DTD/sodipodi-0.dtd"
   xmlns="http://www.w3.org/2000/svg"
   xmlns:svg="http://www.w3.org/2000/svg"
   xmlns:rdf="http://www.w3.org/1999/02/22-rdf-syntax-ns#"
   xmlns:cc="http://creativecommons.org/ns#"
   xmlns:dc="http://purl.org/dc/elements/1.1/">
  <metadata
     id="metadata8">
    <rdf:RDF>
      <cc:Work
         rdf:about="">
        <dc:format>image/svg+xml</dc:format>
        <dc:type
           rdf:resource="http://purl.org/dc/dcmitype/StillImage" />
      </cc:Work>
    </rdf:RDF>
  </metadata>
  <defs
     id="defs6" />
  <sodipodi:namedview
     pagecolor="#808080"
     bordercolor="#666666"
     borderopacity="1"
     objecttolerance="10"
     gridtolerance="10"
     guidetolerance="10"
     inkscape:pageopacity="0"
     inkscape:pageshadow="2"
     inkscape:window-width="1993"
     inkscape:window-height="1009"
     id="namedview4"
     showgrid="false"
     inkscape:zoom="0.5"
     inkscape:cx="9"
     inkscape:cy="8"
     inkscape:window-x="-8"
     inkscape:window-y="-8"
     inkscape:window-maximized="1"
     inkscape:current-layer="SORTBYEXT"
     inkscape:showpageshadow="0"
     inkscape:pagecheckerboard="true"
     inkscape:deskcolor="#d1d1d1" />
  <g
     id="SORTBYEXT"
     transform="matrix(100,0,0,100,0,4.9999997e-5)"
     style="stroke-width:0.0114286">
    <path
       style="fill:none;stroke-width:0.000357143"
       d="M 0,8 V 0 h 8 8 v 8 8 H 8 0 Z m 15.26922,7.419944 c 0.04746,-0.03544 0.115287,-0.103257 0.150724,-0.150712 0.06413,-0.08588 0.0645,-0.105721 0.08006,-4.232444 0.0086,-2.2803899 0.0044,-4.1813193 -0.0093,-4.224288 C 15.456939,6.70632 12.355232,3.5993403 12.227566,3.5437709 12.146128,3.5083228 11.852084,3.5 10.681125,3.5 H 9.2352428 L 7.7504341,2.0177823 C 6.48609,0.755645 6.249385,0.53273737 6.15625,0.51652344 6.0960937,0.50605078 4.8701666,0.50156437 3.4319675,0.50655362 0.84679287,0.51552184 0.81607897,0.51635762 0.73077344,0.58005591 0.68331578,0.61549288 0.61549287,0.68332097 0.58005591,0.73078497 L 0.515625,0.81708316 V 6.5 12.182917 l 0.0644309,0.0863 c 0.035437,0.04746 0.10326062,0.115292 0.15071918,0.150729 0.0854732,0.06382 0.11313003,0.06451 2.92775652,0.07273 L 6.5,12.500971 v 1.294355 c 0,0.840975 0.011675,1.32517 0.033332,1.382327 0.044326,0.11699 0.1485303,0.227074 0.2635434,0.278415 0.077055,0.0344 0.8320987,0.04064 4.2399006,0.03508 4.133593,-0.0068 4.146412,-0.007 4.232444,-0.0712 z"
       id="path827"
       inkscape:connector-curvature="0" />
    <path
       style="fill:#fefefe;stroke-width:0.000357143"
       d="M 7,13.75 V 12.5 H 7.5 8 V 12.75 13 h 1 1 V 12.5 12 H 9.75 9.5 V 11.5 11 H 11.75 14 V 10.5 10 H 11.75 9.5 V 9.5 9 H 11.75 14 V 8.5 8 H 11.75 9.5 V 7.5 7 H 10.25 11 V 6.5 6 H 10.25 9.5 l 3.438e-4,-0.8828125 c 1.875e-4,-0.4855469 0.00906,-0.9355469 0.019714,-1 L 9.5394272,4 H 10.519713 11.5 V 5.75 7.5 H 13.25 15 V 11.25 15 H 11 6.9999997 V 13.75 Z M 14,13.5 V 13 h -1 -1 v 0.5 0.5 h 1 1 z M 1,6.5 V 1 H 3.25 5.5 V 2.75 4.5 H 7.25 9 V 8.25 12 H 5 1 Z M 4,10 V 9 h 1 1 v 1 1 H 7 8 V 10 9 H 7 6 V 8 7 H 7 8 V 6 5 H 7 6 V 6 7 H 5 4 V 6 5 H 4.5 5 V 4 3 H 4.5 4 V 2.5 2 H 3 2 V 2.5 3 H 3 4 V 4 5 H 3 2 V 6 7 H 3 4 V 8 9 H 3 2 v 1 1 H 3 4 Z M 13.507813,7.0078197 12,6.9993997 V 5.4920081 3.9846166 L 13.515625,5.5 c 0.833594,0.8334609 1.515625,1.5189534 1.515625,1.5233166 0,0.00436 -0.0035,0.00456 -0.0078,4.281e-4 -0.0043,-0.00413 -0.686329,-0.011294 -1.515625,-0.015925 z m -6.0000005,-3 L 6,3.9993997 V 2.4920082 0.98461662 L 7.515625,2.5 c 0.8335938,0.8334609 1.515625,1.5189534 1.515625,1.5233166 0,0.00436 -0.00352,0.00456 -0.00781,4.281e-4 -0.0043,-0.00413 -0.6863281,-0.011294 -1.515625,-0.015925 z"
       id="path825"
       inkscape:connector-curvature="0" />
    <path
       style="fill:#656565;stroke-width:0.000357143"
       d="M 11.5,5.75 V 4 H 11.75 12 V 5.5 7 H 13.5 15 V 7.25 7.5 H 13.25 11.5 Z m -6,-3 V 1 H 5.75 6 V 2.5 4 H 7.5 9 V 4.25 4.5 H 7.25 5.5 Z"
       id="path823"
       inkscape:connector-curvature="0" />
    <path
       style="fill:#fe0000;stroke-width:0.000357143"
       d="M 2,10 V 9 H 3 4 V 8 7 H 3 2 V 6 5 H 3 4 V 4 3 H 3 2 V 2.5 2 H 3 4 V 2.5 3 H 4.5 5 V 4 5 H 4.5 4 V 6 7 H 5 6 V 6 5 H 7 8 V 6 7 H 7 6 v 1 1 h 1 1 v 1 1 H 7 6 V 10 9 H 5 4 v 1 1 H 3 2 Z"
       id="path821"
       inkscape:connector-curvature="0" />
    <path
       style="fill:#323232;stroke-width:0.000357143"
       d="M 6.796875,15.456068 C 6.6818619,15.404727 6.5776578,15.294643 6.5333316,15.177653 6.5116753,15.120496 6.5,14.636301 6.5,13.795326 v -1.294355 l -2.8414684,-0.0083 c -2.81462648,-0.0082 -2.84228332,-0.0089 -2.92775651,-0.07273 -0.0474586,-0.03544 -0.11528222,-0.103265 -0.15071918,-0.150729 L 0.515625,12.182917 V 6.5 0.81708316 L 0.5800559,0.73078496 C 0.6154929,0.68332096 0.68331577,0.61549286 0.73077343,0.5800559 0.81607893,0.5163576 0.84679286,0.5155218 3.4319675,0.5065536 4.8701666,0.5015646 6.0960937,0.50605076 6.15625,0.5165236 6.249385,0.53273737 6.48609,0.755645 7.7504341,2.0177823 L 9.2352428,3.5 h 1.4458822 c 1.170959,0 1.465003,0.00832 1.546441,0.043771 0.127666,0.055569 3.229373,3.1625491 3.263182,3.2687291 0.01368,0.042969 0.01785,1.9438981 0.0093,4.2242869 -0.01555,4.126724 -0.01593,4.146568 -0.08006,4.232445 -0.03544,0.04745 -0.103263,0.115275 -0.150724,0.150712 -0.08603,0.06424 -0.09885,0.06445 -4.232444,0.0712 -3.4078023,0.0056 -4.162846,-6.81e-4 -4.239901,-0.03508 z m 8.210702,-4.45619 0.008,-4.0001224 L 13.515505,5.4998778 12.015386,4 H 10.777407 9.5394275 l -0.01937,0.1171875 c -0.010653,0.064453 -0.019525,0.5144531 -0.019714,1 L 9.5,6 H 10.25 11 V 6.5 7 H 10.25 9.5 V 7.5 8 H 11.75 14 V 8.5 9 H 11.75 9.5 V 9.5 10 H 11.75 14 V 10.5 11 H 11.75 9.5 V 11.5 12 H 9.75 10 V 12.5 13 H 9 8 V 12.75 12.5 H 7.5 7 V 13.75 15 h 3.999765 3.999764 z M 12,13.5 V 13 h 1 1 V 13.5 14 H 13 12 Z M 9.0075772,7.9998778 9.015625,3.9997556 7.5155053,2.4998778 6.0153859,1 H 3.5076928 1 V 6.5 12 h 3.9997647 3.9997647 z"
       id="path819"
       inkscape:connector-curvature="0" />
  </g>
</svg>
