<?xml version="1.0" encoding="UTF-8" standalone="no"?>
<!-- Created with Inkscape (http://www.inkscape.org/) -->

<svg
   version="1.1"
   id="svg2"
   width="1600"
   height="1600"
   viewBox="0 0 1600 1600"
   sodipodi:docname="space2.svg"
   inkscape:version="1.2.2 (732a01da63, 2022-12-09)"
   xmlns:inkscape="http://www.inkscape.org/namespaces/inkscape"
   xmlns:sodipodi="http://sodipodi.sourceforge.net/DTD/sodipodi-0.dtd"
   xmlns="http://www.w3.org/2000/svg"
   xmlns:svg="http://www.w3.org/2000/svg"
   xmlns:rdf="http://www.w3.org/1999/02/22-rdf-syntax-ns#"
   xmlns:cc="http://creativecommons.org/ns#"
   xmlns:dc="http://purl.org/dc/elements/1.1/">
  <metadata
     id="metadata8">
    <rdf:RDF>
      <cc:Work
         rdf:about="">
        <dc:format>image/svg+xml</dc:format>
        <dc:type
           rdf:resource="http://purl.org/dc/dcmitype/StillImage" />
      </cc:Work>
    </rdf:RDF>
  </metadata>
  <defs
     id="defs6" />
  <sodipodi:namedview
     pagecolor="#808080"
     bordercolor="#666666"
     borderopacity="1"
     objecttolerance="10"
     gridtolerance="10"
     guidetolerance="10"
     inkscape:pageopacity="0"
     inkscape:pageshadow="2"
     inkscape:window-width="1993"
     inkscape:window-height="1009"
     id="namedview4"
     showgrid="false"
     inkscape:zoom="0.5"
     inkscape:cx="9"
     inkscape:cy="8"
     inkscape:window-x="-8"
     inkscape:window-y="-8"
     inkscape:window-maximized="1"
     inkscape:current-layer="SPACE2"
     inkscape:showpageshadow="0"
     inkscape:pagecheckerboard="true"
     inkscape:deskcolor="#d1d1d1" />
  <g
     id="SPACE2"
     transform="matrix(100,0,0,100,0,4.9999997e-5)"
     style="stroke-width:0.0114286">
    <path
       style="fill:none;stroke-width:0.000357143"
       d="M 0,8 V 0 h 8 8 v 8 8 H 8 0 Z m 8.2360834,5.208657 c 0.035314,-0.0084 0.1196894,-0.03982 0.1875,-0.06989 0.06781,-0.03007 0.1312291,-0.05337 0.1409304,-0.05178 0.023566,0.0039 4.5376712,-4.5114566 4.5344602,-4.5356829 -0.0014,-0.010408 0.01947,-0.071537 0.04634,-0.1358428 0.120118,-0.2874834 0.120118,-0.5434472 0,-0.8309306 -0.02687,-0.064305 -0.04772,-0.1254347 -0.04634,-0.1358428 0.0032,-0.024226 -4.510894,-4.5395484 -4.5344602,-4.5356826 -0.0097,0.00159 -0.073513,-0.021873 -0.1418035,-0.052142 -0.2911415,-0.1290486 -0.5542791,-0.1290486 -0.8454206,0 -0.068291,0.03027 -0.1321022,0.053734 -0.1418035,0.052142 -0.023566,-0.00387 -4.5376714,4.5114563 -4.5344599,4.5356826 0.00138,0.010408 -0.019475,0.071537 -0.046343,0.1358428 -0.1201182,0.2874834 -0.1201182,0.5434472 0,0.8309306 0.026869,0.064305 0.047723,0.1254347 0.046343,0.1358428 -0.00321,0.024226 4.5108937,4.5395489 4.5344599,4.5356829 0.0097,-0.0016 0.073513,0.02187 0.1418035,0.05214 0.06829,0.03027 0.15938,0.06142 0.2024209,0.06923 0.043041,0.0078 0.085604,0.02172 0.094585,0.03093 0.016419,0.01683 0.2421504,-0.0023 0.3617875,-0.03064 z"
       id="path825"
       inkscape:connector-curvature="0" />
    <path
       style="fill:#fefefe;stroke-width:0.000357143"
       d="M 4.1091234,8.3434975 3.7661875,7.999495 5.8830213,5.8826612 7.9998553,3.7658275 8.35136,4.1173322 8.7028647,4.4688369 6.5937066,6.5781684 C 5.4336697,7.7383009 4.4772384,8.6875 4.4683037,8.6875 c -0.00893,0 -0.1705656,-0.1548012 -0.3591803,-0.3440025 z"
       id="path823"
       inkscape:connector-curvature="0" />
    <path
       style="fill:#fe9832;stroke-width:0.000357143"
       d="M 6.2264672,10.460843 4.4687666,8.7029359 6.5860403,6.5858341 8.7033144,4.4687319 10.468749,6.2343744 12.234184,8.0000169 10.124992,10.109383 c -1.1600567,1.160152 -2.1163104,2.109367 -2.1250089,2.109367 -0.0087,0 -0.8067806,-0.791058 -1.7735159,-1.757907 z"
       id="path821"
       inkscape:connector-curvature="0" />
    <path
       style="fill:#323232;stroke-width:0.000357143"
       d="m 7.8742959,13.239292 c -0.00898,-0.0092 -0.051544,-0.02313 -0.094585,-0.03093 C 7.7366699,13.200562 7.6455803,13.169402 7.57729,13.139132 7.508999,13.108862 7.4451878,13.085402 7.4354865,13.086992 7.41192,13.090857 2.8978148,8.5755344 2.9010263,8.5513081 2.902406,8.5409 2.8815514,8.4797706 2.8546828,8.4154653 2.7345646,8.1279819 2.7345646,7.8720181 2.8546828,7.5845347 2.8815514,7.5202294 2.902406,7.4591 2.9010263,7.4486919 2.8978148,7.4244656 7.41192,2.9091435 7.4354862,2.9130093 c 0.0097,0.00159 0.073513,-0.021873 0.1418035,-0.052142 0.2911416,-0.1290486 0.5542791,-0.1290486 0.8454206,0 0.068291,0.03027 0.1321022,0.053734 0.1418035,0.052142 0.023566,-0.00387 4.5376712,4.5114563 4.5344602,4.5356826 -0.0014,0.010408 0.01947,0.071537 0.04634,0.1358428 0.120118,0.2874834 0.120118,0.5434472 0,0.8309306 -0.02687,0.064305 -0.04772,0.1254347 -0.04634,0.1358428 0.0032,0.024226 -4.510894,4.5395489 -4.5344602,4.5356829 -0.0097,-0.0016 -0.07312,0.02171 -0.1409304,0.05178 -0.1786759,0.07923 -0.5107771,0.140008 -0.5492875,0.100524 z M 10.125029,10.109346 12.234259,7.9999419 10.11713,5.8828122 8,3.7656828 5.8828703,5.8828122 3.7657406,7.9999419 5.8749709,10.109346 C 7.0350478,11.269518 7.9913106,12.21875 8,12.21875 c 0.00869,0 0.9649522,-0.949232 2.125029,-2.109404 z"
       id="path819"
       inkscape:connector-curvature="0" />
  </g>
</svg>
