<?xml version="1.0" encoding="UTF-8" standalone="no"?>
<!-- Created with Inkscape (http://www.inkscape.org/) -->

<svg
   version="1.1"
   id="svg2"
   width="1600"
   height="1600"
   viewBox="0 0 1600 1600"
   sodipodi:docname="space_loops_evenly.svg"
   inkscape:version="1.4.3 (0d15f75, 2025-12-25)"
   xml:space="preserve"
   xmlns:inkscape="http://www.inkscape.org/namespaces/inkscape"
   xmlns:sodipodi="http://sodipodi.sourceforge.net/DTD/sodipodi-0.dtd"
   xmlns="http://www.w3.org/2000/svg"
   xmlns:svg="http://www.w3.org/2000/svg"
   xmlns:rdf="http://www.w3.org/1999/02/22-rdf-syntax-ns#"
   xmlns:cc="http://creativecommons.org/ns#"
   xmlns:dc="http://purl.org/dc/elements/1.1/"><metadata
     id="metadata8"><rdf:RDF><cc:Work
         rdf:about=""><dc:format>image/svg+xml</dc:format><dc:type
           rdf:resource="http://purl.org/dc/dcmitype/StillImage" /></cc:Work></rdf:RDF></metadata><defs
     id="defs6" /><sodipodi:namedview
     pagecolor="#808080"
     bordercolor="#666666"
     borderopacity="1"
     objecttolerance="10"
     gridtolerance="10"
     guidetolerance="10"
     inkscape:pageopacity="0"
     inkscape:pageshadow="2"
     inkscape:window-width="2560"
     inkscape:window-height="1009"
     id="namedview4"
     showgrid="true"
     inkscape:zoom="0.5"
     inkscape:cx="1367"
     inkscape:cy="552"
     inkscape:window-x="1912"
     inkscape:window-y="-8"
     inkscape:window-maximized="1"
     inkscape:current-layer="LOOP_CUT_AND_SLIDE"
     fit-margin-top="0"
     fit-margin-left="0"
     fit-margin-right="0"
     fit-margin-bottom="0"
     inkscape:showpageshadow="0"
     inkscape:pagecheckerboard="true"
     inkscape:deskcolor="#d1d1d1"><inkscape:grid
       id="grid1"
       units="px"
       originx="0"
       originy="0"
       spacingx="100"
       spacingy="100"
       empcolor="#0099e5"
       empopacity="0.30196078"
       color="#0099e5"
       opacity="0.14901961"
       empspacing="5"
       enabled="true"
       visible="true" /></sodipodi:namedview><g
     id="LOOP_CUT_AND_SLIDE"
     transform="matrix(99.999994,0,0,99.999994,-3.9999941e-6,0)"
     style="stroke-width:0.01"><path
       style="fill:#98cbfe;stroke-width:0.000327924"
       d="M 7.9341189,6.5397467 C 7.898047,6.5188989 7.7578593,6.4385085 7.6225902,6.3611011 7.4873212,6.2836933 7.3176202,6.1838893 7.2454766,6.139314 7.1733332,6.0947383 7.0847936,6.0434162 7.0487218,6.0252636 7.01265,6.0071118 6.9241103,5.9564781 6.8519669,5.9127442 6.7798234,5.869011 6.6912838,5.817968 6.6552119,5.7993162 6.6191402,5.7806649 6.5306005,5.7281622 6.458457,5.6826462 6.3863137,5.6371292 6.2830174,5.5774131 6.2289097,5.5499431 6.1748022,5.5224735 6.0825733,5.4709195 6.0239566,5.435379 5.786311,5.2912891 5.6934738,5.2365615 5.4582862,5.1019157 5.3230171,5.024474 5.18782,4.9462978 5.1578484,4.9281906 5.1278764,4.9100836 4.9900762,4.8288639 4.8516251,4.7477025 4.7131744,4.666541 4.5753741,4.5853214 4.5454022,4.5672142 4.5154305,4.5491071 4.3802333,4.470959 4.2449643,4.3935517 4.1096952,4.3161443 3.9399941,4.2163402 3.8678506,4.1717647 3.7957071,4.1271894 3.7071675,4.0754578 3.6710956,4.0568062 3.635024,4.0381543 3.5464844,3.9871116 3.4743408,3.9433782 3.4021974,3.8996445 3.3136576,3.8490109 3.2775858,3.8308588 3.2415143,3.8127065 3.1529743,3.7603782 3.0808309,3.714574 3.0086875,3.6687694 2.9089458,3.6135804 2.859183,3.5919308 2.80942,3.5702817 2.7736165,3.5378339 2.7796195,3.519825 2.7890996,3.4913849 2.9422033,3.3932927 3.0972273,3.3163368 3.1626349,3.2838675 3.6905338,2.9849211 3.753077,2.9449326 3.7801305,2.927635 3.9129404,2.8503392 4.0482093,2.7731641 4.1834785,2.6959891 4.3236662,2.6147365 4.3597379,2.5926032 4.3958089,2.5704702 4.4695928,2.5293962 4.5237003,2.5013292 4.5778083,2.4732612 4.6700368,2.4212192 4.7286533,2.3856781 4.7872693,2.3501371 4.883188,2.2919791 4.9418045,2.2564397 5.0004205,2.2208987 5.0926498,2.1688557 5.1467575,2.1407886 5.2008645,2.1127206 5.2746482,2.0716476 5.31072,2.0495146 5.3467918,2.0273808 5.4919704,1.9429244 5.6333396,1.8618342 5.7747081,1.7807439 5.914896,1.6995826 5.9448679,1.6814756 5.9748397,1.6633687 6.1174152,1.5822654 6.2617021,1.5012464 6.4059891,1.4202277 6.5535554,1.3358296 6.5896269,1.3136963 6.6256983,1.2915632 6.6994818,1.2505162 6.7535894,1.2224816 6.8076974,1.1944471 6.9109933,1.134771 6.9831368,1.0898672 7.0552795,1.0449643 7.1438201,0.9939793 7.1798916,0.9765667 7.215963,0.95915443 7.3045031,0.90791865 7.3766466,0.86270921 7.4487904,0.81749977 7.5373298,0.76587593 7.5734015,0.74798783 7.6094729,0.73010077 7.7127696,0.67225965 7.802949,0.61945201 l 0.1639623,-0.0960128 0.1803588,0.10042391 c 0.099197,0.055233 0.2172502,0.12105961 0.26234,0.14628046 0.04509,0.02522 0.1410077,0.0822386 0.2131509,0.12670718 0.072144,0.0444674 0.1606834,0.0950973 0.196755,0.11250934 0.036071,0.017412 0.1246115,0.068397 0.1967549,0.1133003 0.072144,0.044903 0.17544,0.1045792 0.2295476,0.1326143 0.054108,0.028034 0.1278906,0.069082 0.1639622,0.091215 0.036071,0.022133 0.183638,0.1065311 0.3279251,0.1875501 0.1442868,0.081019 0.2868622,0.1621224 0.3168342,0.1802293 0.02997,0.018107 0.17016,0.099268 0.311529,0.1803588 0.141368,0.08109 0.286547,0.1655459 0.322619,0.1876794 0.03608,0.022133 0.109854,0.063207 0.163962,0.091273 0.0541,0.028068 0.146336,0.08011 0.204953,0.1156508 0.05861,0.035541 0.154536,0.093698 0.213152,0.1292384 0.05861,0.035541 0.150845,0.087584 0.204952,0.1156511 0.0541,0.028068 0.127891,0.069141 0.163962,0.091274 0.03608,0.022133 0.181251,0.1065894 0.322621,0.1876796 0.141368,0.08109 0.281556,0.1622518 0.311527,0.1803586 0.02997,0.018107 0.172547,0.09921 0.316835,0.1802293 0.144286,0.081019 0.291854,0.1654167 0.327926,0.1875499 0.03606,0.022134 0.112533,0.062548 0.169917,0.089812 0.147492,0.070072 0.153307,0.097776 0.03364,0.1601772 -0.05784,0.030161 -0.164196,0.091873 -0.23634,0.1371411 -0.07214,0.045266 -0.160684,0.096549 -0.196756,0.1139616 -0.03608,0.017412 -0.124612,0.068648 -0.196754,0.1138574 -0.07214,0.045209 -0.160684,0.096858 -0.196755,0.1147737 -0.03608,0.017917 -0.124612,0.069628 -0.196755,0.1149168 -0.07214,0.045288 -0.168062,0.1000441 -0.213152,0.1216813 -0.04509,0.021637 -0.104116,0.05697 -0.131169,0.078518 -0.02705,0.021549 -0.127011,0.08141 -0.222127,0.1330276 -0.09512,0.051617 -0.227925,0.1265 -0.295132,0.1664074 -0.06721,0.039907 -0.173843,0.1030021 -0.236968,0.1402099 -0.06313,0.037208 -0.166421,0.098929 -0.229548,0.1371589 -0.06313,0.038229 -0.195934,0.1137012 -0.295133,0.1677163 -0.09919,0.054014 -0.202493,0.1145871 -0.229546,0.1346039 -0.02705,0.020016 -0.08441,0.056228 -0.127466,0.080469 C 9.90196,5.4875885 9.7945103,5.5493004 9.7049194,5.6031949 9.6508111,5.6357439 9.5696503,5.6828908 9.5245608,5.7079662 9.4794709,5.7330408 9.389264,5.784093 9.3241007,5.8214144 9.2589368,5.8587367 9.1703973,5.9091058 9.1273459,5.933347 9.0842935,5.9575886 9.0269354,5.9942162 8.9998811,6.0147423 8.9728281,6.0352684 8.8728703,6.0942954 8.7777546,6.1459122 8.6826387,6.1975289 8.5498292,6.2724126 8.4826223,6.3123196 8.415415,6.3522262 8.3060912,6.4147313 8.2396806,6.4512193 c -0.06641,0.036487 -0.1299972,0.081309 -0.1413035,0.099601 -0.025671,0.041537 -0.079498,0.03791 -0.164252,-0.011074 z"
       id="path827"
       inkscape:connector-curvature="0" /><path
       style="fill:#6598cb;stroke-width:0.000327924"
       d="M 7.6061941,14.666789 C 5.9112265,13.661537 4.1943034,12.693643 2.5062735,11.67664 l 0.0171,-3.4925609 c 1.7434017,0.9442394 3.4750311,1.9103769 5.2304019,2.8323939 -0.00207,1.043831 0.0058,2.68772 -0.00819,3.731498 -0.047624,-0.02504 -0.093023,-0.05398 -0.1393913,-0.08118 z M 8.2456476,13.158403 V 11.038932 C 9.8468622,10.21526 11.427417,9.3428237 12.996778,8.4659965 c 0.756835,-0.6069657 0.471228,1.1837992 0.531498,1.6152445 -0.02956,0.521354 0.06425,1.092253 -0.08186,1.58152 -0.486106,0.473599 -1.174458,0.654768 -1.72233,1.046231 -1.153728,0.666397 -2.3146929,1.320174 -3.4784486,1.96887 3.1e-6,-0.506486 8e-7,-1.012977 7.2e-6,-1.519459 z m 0,-4.7112509 V 7.0589527 C 9.992833,6.029943 11.744485,5.0085169 13.500644,3.9948971 c 0.03198,0.9938368 0.04364,1.9892359 -0.0064,2.9826939 -1.761024,0.9313599 -3.5018452,1.9001376 -5.2486264,2.8577594 2.01e-5,-0.4627227 -4.01e-5,-0.9255256 3e-5,-1.3881983 z M 5.4090975,8.5149663 C 4.4318244,7.9859238 3.4652222,7.4367077 2.4741698,6.933484 V 3.9661379 c 1.7517234,1.0062608 3.4887736,2.0378019 5.2400126,3.0448995 0.083459,0.870087 0.021226,1.7445298 0.035282,2.6166075 C 7.2702044,9.7570678 6.6133075,9.0603042 6.056861,8.8699911 5.8409341,8.75166 5.6250143,8.6333159 5.4090975,8.5149663 Z"
       id="path825"
       inkscape:connector-curvature="0"
       sodipodi:nodetypes="ccccccccccccccccccccccccccccc" /><path
       style="fill:#333333;stroke-width:0.000327924;fill-opacity:1"
       d="M 7.7865527,15.365377 C 5.9145386,14.275218 4.0375996,13.192404 2.1746824,12.086883 1.8924361,11.95252 2.0599694,11.606993 2.0150744,11.362525 2.0173919,10.414637 2.0081099,8.8665645 2.0264964,7.9188375 2.3160243,8.03361 2.596104,8.1646161 2.4926375,8.5190949 l 0.015027,3.1585261 c 1.7361725,1.044115 3.5009716,2.043239 5.2461072,3.073714 l -1.475e-4,-3.733598 c 0.1861626,0.05134 0.5902056,-0.105858 0.4920402,0.217611 v 3.442539 c 1.7355955,-0.957855 3.4463446,-1.963994 5.1791946,-2.923525 0.207454,-0.532717 0.05927,-1.155871 0.109395,-1.72427 0.0024,-0.4181473 0.0049,-1.4362942 0.0074,-1.8544411 0.173961,-0.045737 0.554811,-0.4375988 0.475491,-0.059604 v 3.8345721 c -0.704127,0.526732 -1.527128,0.87918 -2.270361,1.350313 -1.147171,0.640876 -2.2884124,1.294143 -3.4283009,1.947864 -0.1484967,0.139915 -0.337174,0.266528 -0.5318819,0.116581 z M 7.8767321,9.8610968 C 7.6301687,9.7673625 7.8071289,9.418294 7.7537604,9.2080862 7.7451588,8.4869512 7.7772386,7.7635718 7.7278881,7.0442621 6.2711911,6.1425758 4.7469378,5.3051328 3.2683929,4.4219864 3.0107846,4.3739115 2.3562821,3.6379317 2.4741698,4.240581 V 6.9396176 C 2.2880092,6.9046086 1.8839588,7.0972427 1.9821384,6.7651638 l 1.44e-4,-3.3505216 C 2.6403415,2.9081411 3.4195706,2.5786586 4.1189093,2.1306821 5.3469978,1.4398949 6.559561,0.71993404 7.7903012,0.03410119 8.4464315,-0.06632217 9.0043379,0.63859672 9.6229328,0.8716665 11.03156,1.6857494 12.450946,2.4822951 13.852273,3.308195 c 0.288898,0.1320711 0.120072,0.4811096 0.16485,0.7273318 V 6.9447981 C 13.83093,6.9016851 13.426869,7.0764401 13.525236,6.7487673 13.519236,5.8308655 13.542416,4.9119248 13.500646,3.9948979 11.745102,5.0078973 9.9923595,6.0298495 8.2456527,7.0589505 V 9.8288503 C 8.1251412,9.8945133 8.0041464,9.9765382 7.8767321,9.8610968 Z M 8.0983709,6.5508205 C 9.7823046,5.5399391 11.494813,4.5680089 13.1881,3.5697034 12.741687,3.1781482 12.021054,2.8898685 11.475707,2.5341211 10.308698,1.859633 9.138876,1.1892934 7.9669113,0.52343851 6.2401923,1.5252125 4.4912994,2.4969445 2.7796195,3.5198247 c 1.6912974,1.0292142 3.4371922,2.015872 5.1544989,3.0199219 0.032123,0.022888 0.1303862,0.070115 0.1642525,0.011074 z"
       id="path819"
       inkscape:connector-curvature="0"
       sodipodi:nodetypes="ccccccccccccccccccccccccccccccccccccccccccccc" /><g
       id="rect1"
       style="opacity:1"
       transform="matrix(1.0668958,0,0,1.0668958,-0.55950339,-0.87513216)"><path
         style="baseline-shift:baseline;display:inline;overflow:visible;vector-effect:none;fill:#653200;stroke-linecap:round;stroke-linejoin:round;paint-order:markers stroke fill;enable-background:accumulate;stop-color:#000000;stop-opacity:1"
         d="m 1.9824219,2.4394531 c -0.2761309,2.76e-5 -0.4999724,0.2238691 -0.5,0.5 v 1.140625 c 2.76e-5,0.2761309 0.2238691,0.4999724 0.5,0.5 L 8.022461,7.5800783 14.0625,4.5800781 c 0.276131,-2.76e-5 0.499972,-0.2238691 0.5,-0.5 v -1.140625 c -2.8e-5,-0.2761309 -0.223869,-0.4999724 -0.5,-0.5 L 8.022461,5.4394533 Z"
         id="path1"
         sodipodi:nodetypes="ccccccccccc" /><path
         style="baseline-shift:baseline;display:inline;overflow:visible;vector-effect:none;fill:#fe9832;stroke-linecap:round;stroke-linejoin:round;paint-order:markers stroke fill;enable-background:accumulate;stop-color:#000000;stop-opacity:1"
         d="M 1.9821298,2.9400001 8.0226154,5.9400003 14.063101,2.9400001 V 4.08 L 8.0226154,7.0800002 1.9821298,4.08 Z"
         id="path2"
         sodipodi:nodetypes="ccccccc" /></g><g
       id="rect1-0"
       style="stroke-width:0.01"
       transform="matrix(1.0668958,0,0,1.0668958,-0.55950339,7.9466836)"><path
         style="baseline-shift:baseline;display:inline;overflow:visible;vector-effect:none;fill:#653200;stroke-linecap:round;stroke-linejoin:round;paint-order:markers stroke fill;enable-background:accumulate;stop-color:#000000;stop-opacity:1"
         d="m 1.9824219,2.4394531 c -0.2761309,2.76e-5 -0.4999724,0.2238691 -0.5,0.5 v 1.140625 c 2.76e-5,0.2761309 0.2238691,0.4999724 0.5,0.5 L 8.022461,7.5800783 14.0625,4.5800781 c 0.276131,-2.76e-5 0.499972,-0.2238691 0.5,-0.5 v -1.140625 c -2.8e-5,-0.2761309 -0.223869,-0.4999724 -0.5,-0.5 L 8.022461,5.4394533 Z"
         id="path1-6"
         sodipodi:nodetypes="ccccccccccc" /><path
         style="baseline-shift:baseline;display:inline;overflow:visible;vector-effect:none;fill:#fe9832;stroke-linecap:round;stroke-linejoin:round;paint-order:markers stroke fill;enable-background:accumulate;stop-color:#000000;stop-opacity:1"
         d="M 1.9821298,2.9400001 8.0226154,5.9400003 14.063101,2.9400001 V 4.08 L 8.0226154,7.0800002 1.9821298,4.08 Z"
         id="path2-1"
         sodipodi:nodetypes="ccccccc" /></g><g
       id="rect1-0-8"
       style="stroke-width:0.01"
       transform="matrix(1.0668958,0,0,1.0668958,-0.55912937,3.6266834)"><path
         style="baseline-shift:baseline;display:inline;overflow:visible;vector-effect:none;fill:#000000;fill-opacity:1;stroke-linecap:round;stroke-linejoin:round;paint-order:markers stroke fill;enable-background:accumulate;stop-color:#000000;stop-opacity:1"
         d="m 1.9824219,2.4394531 c -0.2761309,2.76e-5 -0.4999724,0.2238691 -0.5,0.5 v 1.140625 c 2.76e-5,0.2761309 0.2238691,0.4999724 0.5,0.5 L 8.022461,7.5800783 14.0625,4.5800781 c 0.276131,-2.76e-5 0.499972,-0.2238691 0.5,-0.5 v -1.140625 c -2.8e-5,-0.2761309 -0.223869,-0.4999724 -0.5,-0.5 L 8.022461,5.4394533 Z"
         id="path1-6-9"
         sodipodi:nodetypes="ccccccccccc" /><path
         style="baseline-shift:baseline;display:inline;overflow:visible;vector-effect:none;fill:#fea900;fill-opacity:1;stroke-linecap:round;stroke-linejoin:round;paint-order:markers stroke fill;enable-background:accumulate;stop-color:#000000;stop-opacity:1"
         d="M 1.9821298,2.9400001 8.0226154,5.9400003 14.063101,2.9400001 V 4.08 L 8.0226154,7.0800002 1.9821298,4.08 Z"
         id="path2-1-3"
         sodipodi:nodetypes="ccccccc" /></g></g></svg>
