<?xml version="1.0" encoding="UTF-8" standalone="no"?>
<!-- Created with Inkscape (http://www.inkscape.org/) -->

<svg
   version="1.1"
   id="svg2"
   width="1600"
   height="1600"
   viewBox="0 0 1600 1600"
   sodipodi:docname="split_string.svg"
   inkscape:version="1.4.3 (0d15f75, 2025-12-25)"
   xmlns:inkscape="http://www.inkscape.org/namespaces/inkscape"
   xmlns:sodipodi="http://sodipodi.sourceforge.net/DTD/sodipodi-0.dtd"
   xmlns="http://www.w3.org/2000/svg"
   xmlns:svg="http://www.w3.org/2000/svg"
   xmlns:rdf="http://www.w3.org/1999/02/22-rdf-syntax-ns#"
   xmlns:cc="http://creativecommons.org/ns#"
   xmlns:dc="http://purl.org/dc/elements/1.1/">
  <metadata
     id="metadata8">
    <rdf:RDF>
      <cc:Work
         rdf:about="">
        <dc:format>image/svg+xml</dc:format>
        <dc:type
           rdf:resource="http://purl.org/dc/dcmitype/StillImage" />
      </cc:Work>
    </rdf:RDF>
  </metadata>
  <defs
     id="defs6">
    <rect
       x="-400"
       y="176"
       width="1176"
       height="978"
       id="rect2" />
    <rect
       x="-408"
       y="14"
       width="754"
       height="1392"
       id="rect1" />
  </defs>
  <sodipodi:namedview
     pagecolor="#808080"
     bordercolor="#666666"
     borderopacity="1"
     objecttolerance="10"
     gridtolerance="10"
     guidetolerance="10"
     inkscape:pageopacity="0"
     inkscape:pageshadow="2"
     inkscape:window-width="1920"
     inkscape:window-height="1009"
     id="namedview4"
     showgrid="false"
     inkscape:zoom="0.125"
     inkscape:cx="1696"
     inkscape:cy="1128"
     inkscape:window-x="-8"
     inkscape:window-y="-8"
     inkscape:window-maximized="1"
     inkscape:current-layer="STRING"
     inkscape:showpageshadow="0"
     inkscape:pagecheckerboard="true"
     inkscape:deskcolor="#d1d1d1" />
  <g
     id="STRING"
     transform="matrix(100,0,0,100,0,4.9999997e-5)"
     style="stroke-width:0.0114286">
    <g
       id="path819-9"
       inkscape:label="path819"
       style="opacity:1">
      <path
         style="baseline-shift:baseline;display:inline;overflow:visible;vector-effect:none;fill:#fefcfe;enable-background:accumulate;stop-color:#000000;stop-opacity:1"
         d="M 4.489527,10.697533 C 4.0633903,10.610179 3.7247944,10.358982 3.5661798,10.012522 3.345839,9.5312339 3.4533762,8.8637494 3.8004806,8.5582159 4.1439645,8.2558691 4.6478007,8.1413468 5.6364323,8.1409023 L 6.1438511,8.1406743 6.1432394,8.0364102 C 6.1423248,7.8800504 6.0530582,7.7101185 5.9285582,7.6277282 5.5547799,7.3803735 4.4959683,7.4431698 3.8981626,7.7481474 L 3.7805309,7.8081588 V 7.336237 6.8643149 L 3.884795,6.8351118 C 4.079863,6.7804776 4.5720752,6.6960022 4.8608729,6.667594 6.0523256,6.5503948 6.8650742,6.8009484 7.180149,7.3825793 c 0.042388,0.078247 0.1043447,0.2401661 0.1376829,0.3598194 0.057635,0.2068539 0.061106,0.2828319 0.07061,1.545181 l 0.01,1.3276303 H 6.7711434 6.1438511 V 10.349713 10.084216 L 5.955173,10.275533 c -0.2174086,0.220449 -0.4460413,0.346311 -0.742748,0.408882 -0.2089342,0.04406 -0.5424302,0.05011 -0.722898,0.01312 z M 5.663463,9.8133353 C 5.9539926,9.6638937 6.1135982,9.4186289 6.1374746,9.0849261 L 6.1513231,8.891376 5.72358,8.8918098 c -0.5988098,6.089e-4 -0.8007541,0.054853 -0.9504035,0.2552922 -0.067212,0.090024 -0.091359,0.2920176 -0.049919,0.4175829 0.040082,0.1214513 0.1535194,0.2308925 0.2953692,0.2849655 0.1591804,0.060679 0.4927961,0.041885 0.6448361,-0.036312 z m 5.109716,0.8848257 C 10.470923,10.6379 10.203887,10.483663 9.9599177,10.228428 l -0.1459694,-0.15271 v 0.269745 0.269747 H 9.1883636 8.5627789 V 7.9043423 5.193475 H 9.1883636 9.8139483 V 6.2417268 7.2899786 L 9.9612113,7.1354881 C 10.261201,6.8207738 10.573342,6.6737888 10.995608,6.6483944 c 1.135171,-0.068267 1.902933,1.0360126 1.707869,2.456449 -0.10988,0.8001344 -0.606659,1.4267236 -1.251694,1.5787696 -0.1893,0.04462 -0.494893,0.05117 -0.678604,0.01455 z m 0.222429,-0.9657302 c 0.06117,-0.031602 0.144247,-0.09301 0.184617,-0.1364633 0.365004,-0.3928771 0.365004,-1.4333624 0,-1.8262395 -0.238085,-0.2562672 -0.754558,-0.2812525 -1.033566,-0.050001 -0.4433305,0.3674491 -0.4433305,1.5589162 0,1.9262043 0.05403,0.044768 0.15455,0.099626 0.223365,0.1219089 0.173113,0.056053 0.482434,0.038545 0.625584,-0.035409 z"
         id="path1" />
      <path
         style="baseline-shift:baseline;display:inline;overflow:visible;vector-effect:none;fill:#333333;enable-background:accumulate;stop-color:#000000;stop-opacity:1"
         d="m 8.0859375,4.7167969 v 3.1875 3.1875001 H 9.1875 10.291016 v -0.148438 c 0.135413,0.06356 0.241741,0.193363 0.388672,0.222657 0.293694,0.05854 0.590276,0.04896 0.880859,-0.01953 0.876297,-0.206558 1.483589,-1.017938 1.615234,-1.9765621 C 13.287035,8.359781 13.130856,7.6087112 12.740234,7.046875 12.349612,6.4850388 11.694413,6.1300707 10.966797,6.1738281 10.707412,6.1894271 10.518768,6.3829919 10.291016,6.4902344 V 6.2421875 4.7167969 H 9.1875 Z M 4.8144531,6.1933594 C 4.4865793,6.2256114 4.0285151,6.3005883 3.7558594,6.3769531 L 3.3046875,6.5039062 v 0.8320313 1.1992188 c -0.3306193,0.4938392 -0.4299138,1.1121498 -0.171875,1.6757817 0.2291351,0.500497 0.7082377,0.839666 1.2617187,0.953125 0.3035413,0.06222 0.6155654,0.04969 0.9160157,-0.01367 0.1361303,-0.02871 0.2324032,-0.141042 0.3574218,-0.197266 v 0.138672 H 6.7714844 7.8789062 L 7.8652344,9.2832031 C 7.8604796,8.651664 7.8577762,8.3191162 7.8476562,8.0976563 7.8375363,7.8761963 7.8095445,7.730804 7.7773437,7.6152344 7.7328737,7.4556281 7.6804894,7.3055521 7.5996094,7.15625 7.3740193,6.7398087 6.9674676,6.455715 6.4902344,6.3085937 6.0130011,6.1614725 5.4535876,6.1304899 4.8144531,6.1933594 Z m 5.8417969,1.84375 c 0.09383,0.00454 0.168375,0.048668 0.175781,0.056641 0.0398,0.042836 0.146485,0.3123605 0.146485,0.5898438 0,0.2774832 -0.106688,0.5450549 -0.146485,0.5878906 0.02911,-0.03133 -0.06082,0.040277 -0.05469,0.037109 0.0391,-0.020198 -0.03703,0.01153 -0.109375,0.015625 -0.07235,0.00409 -0.156755,-0.011826 -0.150391,-0.00977 0.01982,0.00642 -0.08866,-0.053595 -0.06641,-0.035156 -0.02683,-0.022226 -0.160156,-0.2962979 -0.160156,-0.5957031 0,-0.2994053 0.133224,-0.5753342 0.160156,-0.5976563 0.02185,-0.018106 0.111246,-0.053368 0.205078,-0.048828 z M 5.4472656,9.3867188 c -0.00175,9.083e-4 -1.738e-4,0.00299 -0.00195,0.00391 0.036179,-0.018607 -0.051584,0.013223 -0.1289063,0.017578 -0.067959,0.00383 -0.1219535,-0.00985 -0.1132812,-0.00391 0.030198,-0.00811 0.1664771,-0.010874 0.2441406,-0.017578 z"
         id="path2"
         sodipodi:nodetypes="ccccccccssscccccsccccscccccccsscssccscccccscccsccccs" />
    </g>
    <g
       id="text2-4"
       style="opacity:1">
      <path
         style="font-weight:bold;font-size:192px;-inkscape-font-specification:'sans-serif Bold';baseline-shift:baseline;white-space:pre;display:inline;overflow:visible;vector-effect:none;fill:#ffffff;enable-background:accumulate;stop-color:#000000;stop-opacity:1"
         d="M 3.5050613,13.456318 Q 2.7668929,13.452105 2.3587292,13.275823 1.9592498,13.09959 1.8029317,12.72594 1.6466138,12.352289 1.6466138,11.755876 V 9.8423833 q 0,-0.583988 -0.2778988,-0.8340791 Q 1.0908163,8.758213 0.56107189,8.7551906 V 7.3014331 Q 1.0908163,7.3044556 1.368715,7.0575355 1.6466138,6.8106155 1.6466138,6.2266275 v -1.925918 q 0,-0.5964134 0.1563179,-0.9682799 Q 1.9592498,2.9605632 2.3587292,2.7888886 2.7668929,2.6172635 3.5050613,2.6214751 V 3.9882557 Q 3.1663723,3.9987486 2.9666326,4.1591376 2.7668929,4.3195266 2.7668929,4.8413882 v 1.8140906 q 0,1.1307002 -0.9900142,1.3362813 v 0.074551 q 0.9900142,0.2168786 0.9900142,1.3475788 v 1.8140911 q 0,0.521862 0.1997397,0.68453 0.1997397,0.162668 0.5384287,0.177026 z m 9.0667637,-1.315051 q 0.338689,-0.0105 0.538429,-0.170881 0.199739,-0.160389 0.199739,-0.682251 V 9.4740443 q 0,-1.1307003 0.990015,-1.3362814 V 8.0632113 Q 13.309993,7.8463329 13.309993,6.7156326 V 4.9015421 q 0,-0.5218617 -0.199739,-0.6845299 Q 12.910514,4.054344 12.571825,4.0399863 V 2.6732058 q 0.746853,0.00426 1.146333,0.1804943 0.399479,0.1762331 0.555797,0.5498833 0.156318,0.3736503 0.156318,0.9700635 V 6.299565 q 0,0.5839881 0.277899,0.8340792 0.277898,0.2500911 0.807643,0.2531136 v 1.4537574 q -0.529745,-0.00302 -0.807643,0.2438976 -0.277899,0.2469199 -0.277899,0.8309083 v 1.9134919 q 0,0.596414 -0.156318,0.968281 -0.156318,0.371866 -0.555797,0.543541 -0.39948,0.171674 -1.146333,0.167413 z"
         id="path3" />
      <path
         style="font-weight:bold;font-size:192px;-inkscape-font-specification:'sans-serif Bold';baseline-shift:baseline;white-space:pre;display:inline;overflow:visible;vector-effect:none;fill:#333333;enable-background:accumulate;stop-color:#000000;stop-opacity:1"
         d="M 3.5078125,2.1445313 C 2.9782887,2.1415101 2.5417917,2.1948877 2.1738281,2.3496094 h -0.00195 l -0.00195,0.00195 C 1.809693,2.5063693 1.5135134,2.791049 1.3632812,3.1484375 1.2238199,3.4802037 1.1699219,3.8615612 1.1699219,4.3007812 v 1.9257813 c 0,0.313776 -0.071294,0.4338317 -0.1171875,0.4746094 -0.0722112,0.064161 -0.20959096,0.1246369 -0.48828128,0.1230468 l -0.48046875,-0.00195 v 2.40625 l 0.47460938,0.00391 c 0.27869031,0.00159 0.41806949,0.064158 0.49218745,0.1308594 0.048244,0.043417 0.1191407,0.1647396 0.1191407,0.4785156 v 1.9140623 c 0,0.43922 0.054326,0.821962 0.1933593,1.154297 0.1496738,0.357768 0.443675,0.64238 0.8027344,0.800782 l 0.00195,0.002 h 0.00195 c 0.3667868,0.158411 0.8025077,0.215727 1.3320312,0.21875 l 0.4785157,0.0039 v -2.302734 l -0.4550782,-0.01953 c -0.1537047,-0.0065 -0.2215408,-0.04077 -0.2578125,-0.07031 0.060217,0.04904 -0.023437,-0.02731 -0.023437,-0.314453 V 9.4140625 C 3.2441348,8.9676581 3.142603,8.5575107 2.902338,8.2304688 2.8267682,8.1275974 2.6786265,8.1129485 2.5800781,8.0332031 2.6787008,7.9543929 2.8266414,7.9400706 2.9023438,7.8378906 3.1438499,7.5119154 3.2441406,7.1026544 3.2441406,6.65625 V 4.8417969 c 0,-0.2871423 0.084965,-0.3615209 0.021484,-0.3105469 C 3.3002606,4.503438 3.3659168,4.469603 3.5195309,4.464844 L 3.9804688,4.4492187 V 2.1484375 Z m 8.5878905,0.048828 v 2.3027343 l 0.455078,0.019531 c 0.153705,0.00652 0.221541,0.040773 0.257813,0.070312 -0.06022,-0.049041 0.02539,0.029264 0.02539,0.3164062 v 1.8125 c 0,0.4464045 0.09958,0.858505 0.339844,1.1855469 0.07524,0.1024183 0.222287,0.1177696 0.320313,0.1972657 -0.09788,0.078461 -0.245086,0.091821 -0.320313,0.1933593 C 12.932322,8.61699 12.833984,9.028204 12.833984,9.4746085 v 1.8144535 c 0,0.287142 -0.08496,0.361521 -0.02148,0.310546 -0.03464,0.02781 -0.10224,0.06164 -0.255859,0.06641 l -0.460938,0.01367 v 2.302734 l 0.472656,0.002 c 0.534879,0.0031 0.971335,-0.04951 1.337891,-0.207031 0.360228,-0.154807 0.656409,-0.437534 0.806641,-0.794922 0.139461,-0.331767 0.193359,-0.715077 0.193359,-1.154297 V 9.9160156 c 0,-0.3137762 0.07325,-0.4338318 0.119141,-0.4746093 0.07221,-0.064161 0.209589,-0.1265888 0.488281,-0.125 l 0.478516,0.00391 v -2.40625 l -0.47461,-0.00391 C 15.238887,6.9085662 15.101461,6.8459978 15.027344,6.7792969 14.979099,6.73588 14.90625,6.6126041 14.90625,6.2988281 V 4.3730469 c 0,-0.43922 -0.05433,-0.8200086 -0.193359,-1.1523438 C 14.563217,2.8629352 14.269216,2.5763704 13.910156,2.4179688 13.544847,2.2568094 13.109098,2.2003165 12.574219,2.1972656 Z"
         id="path4"
         sodipodi:nodetypes="ccccssssccccssssccccccccssccssscccccccccssscsssccccccssssccccssscscc" />
    </g>
    <path
       style="fill:none;stroke-width:0.000340206"
       d="M 0.38122142,8 V 0.37939826 H 8.0018232 15.622425 V 8 15.620602 H 8.0018232 0.38122142 Z m 2.45585798,2.515069 c 0.3176677,-0.067 0.5624522,-0.201745 0.7952199,-0.437768 L 3.8343066,9.8724682 v 0.2842528 0.284253 h 0.6716075 0.6716072 l -0.0107,-1.4214208 C 5.1566468,7.6680249 5.1529297,7.5866794 5.0912236,7.3652122 4.8960502,6.6647211 4.4433641,6.3256472 3.5545439,6.2141986 2.9869761,6.1430317 2.0216515,6.2241033 1.4156586,6.3938302 L 1.3040287,6.4250958 V 6.9303572 7.4356185 L 1.4299717,7.371367 C 2.0700095,7.0448442 3.2036214,6.9776118 3.6038054,7.2424407 3.7371008,7.3306516 3.8326723,7.5125884 3.8336528,7.6799943 L 3.8343066,7.7916242 3.291041,7.7918623 C 2.2325671,7.7923386 1.6931372,7.9149511 1.3253877,8.2386573 1.0462901,8.4843289 0.90133222,8.9573125 0.96650096,9.4096702 1.0509782,9.9960547 1.4500515,10.403435 2.063112,10.529108 c 0.1932172,0.03961 0.5502731,0.03313 0.7739674,-0.01404 z M 2.62959,9.6213322 C 2.2347801,9.4708312 2.1641106,8.9865702 2.5003254,8.7355497 2.6311153,8.6379009 2.894177,8.5963222 3.3843449,8.5958245 L 3.8423061,8.5953595 3.8274796,8.802583 C 3.8019164,9.1598603 3.6310354,9.422452 3.3199813,9.5824516 3.1572,9.6661829 2.8000159,9.6862984 2.62959,9.6213322 Z M 9.5172194,10.51421 C 10.207824,10.351422 10.739697,9.6805671 10.85734,8.8239074 10.977776,7.9469046 10.75314,7.139568 10.251231,6.6455571 9.9121547,6.3118161 9.5140715,6.1647394 9.0288183,6.1939216 8.576719,6.2211098 8.2425288,6.3784788 7.9213454,6.7154261 L 7.7636794,6.8808307 V 5.7585247 4.6362188 H 7.0938999 6.4241205 V 7.5385964 10.440974 H 7.0938999 7.7636794 V 10.152171 9.8633687 l 0.1562818,0.1634993 c 0.4348554,0.454936 1.0014007,0.627795 1.5972582,0.487342 z M 8.3590389,9.5337426 C 8.2853631,9.5098862 8.177748,9.4511519 8.1198943,9.4032213 c -0.4746495,-0.3932352 -0.4746495,-1.668874 0,-2.0622816 0.2987183,-0.2475892 0.8516772,-0.2208388 1.1065828,0.053533 0.1837702,0.1978038 0.292479,0.5611689 0.292479,0.9776274 0,0.5607301 -0.1744216,0.9606242 -0.4901378,1.1237313 -0.1532637,0.07918 -0.4844369,0.097925 -0.6697794,0.037911 z m 6.3548631,0.9527794 c 0.114278,-0.02492 0.278373,-0.06582 0.364658,-0.0909 l 0.156881,-0.04561 V 9.8023027 9.2545984 l -0.171165,0.1032645 c -0.285712,0.1723697 -0.534462,0.2347535 -0.93025,0.2332965 -0.283475,-0.00104 -0.371513,-0.01282 -0.512058,-0.068495 -0.430179,-0.1704083 -0.678661,-0.5916716 -0.678661,-1.150565 0,-0.5588934 0.248482,-0.9801568 0.678661,-1.150565 0.141242,-0.055951 0.227179,-0.067297 0.512058,-0.067602 0.294888,-3.185e-4 0.373769,0.010633 0.569164,0.079008 0.124757,0.043658 0.295551,0.1198956 0.379541,0.1694182 l 0.15271,0.090041 V 6.9436176 6.3948358 L 15.079198,6.3484368 C 14.678993,6.2295882 14.44951,6.1999229 13.940534,6.2012401 c -0.417412,0.00108 -0.551948,0.0127 -0.768053,0.066336 -0.813192,0.2018295 -1.332575,0.6810647 -1.544962,1.425536 -0.09593,0.3362578 -0.09593,1.0217166 0,1.3579745 0.23738,0.8320774 0.870353,1.3423704 1.835895,1.4800694 0.252951,0.03607 1.003134,0.0093 1.250488,-0.04464 z"
       id="path821"
       inkscape:connector-curvature="0" />
    <path
       style="display:inline;fill:#fefcfe;stroke-width:0.000317757"
       d="M 4.4895273,10.697533 C 4.0633905,10.610179 3.7247947,10.358982 3.5661801,10.012522 3.3458393,9.5312341 3.4533765,8.8637496 3.8004809,8.5582161 4.1439648,8.2558693 4.647801,8.141347 5.6364326,8.1409024 L 6.1438514,8.1406745 6.1432397,8.0364104 C 6.1423251,7.8800506 6.0530585,7.7101187 5.9285584,7.6277284 5.5547802,7.3803737 4.4959686,7.44317 3.8981628,7.7481476 L 3.7805311,7.808159 V 7.3362372 6.8643151 L 3.8847953,6.835112 C 4.0798633,6.780478 4.5720755,6.6960024 4.8608732,6.6675942 6.0523259,6.5503949 6.8650745,6.8009486 7.1801493,7.3825795 c 0.042388,0.078247 0.1043447,0.2401661 0.1376828,0.3598194 0.057635,0.2068539 0.061106,0.2828319 0.07061,1.545181 l 0.01,1.3276301 H 6.7711437 6.1438514 v -0.265497 -0.265497 l -0.1886781,0.191317 c -0.2174086,0.220449 -0.4460413,0.346311 -0.742748,0.408882 -0.2089342,0.04406 -0.5424302,0.05011 -0.722898,0.01312 z M 5.6634633,9.8133355 C 5.9539929,9.6638939 6.1135985,9.4186291 6.1374749,9.0849263 L 6.1513234,8.8913762 5.7235803,8.89181 c -0.5988098,6.089e-4 -0.8007541,0.054853 -0.9504035,0.2552922 -0.067212,0.090024 -0.091359,0.2920176 -0.049919,0.4175829 0.040082,0.1214512 0.1535194,0.2308925 0.2953692,0.2849654 0.1591804,0.060679 0.4927961,0.041885 0.6448361,-0.036312 z M 10.773179,10.698161 C 10.470923,10.6379 10.203887,10.483663 9.9599177,10.228428 l -0.1459691,-0.15271 v 0.269745 0.269747 H 9.1883639 8.5627792 V 7.9043425 5.1934752 H 9.1883639 9.8139486 V 6.2417269 7.2899788 L 9.9612113,7.1354883 C 10.261201,6.820774 10.573342,6.673789 10.995608,6.6483945 c 1.135171,-0.068267 1.902933,1.0360127 1.707869,2.4564491 -0.10988,0.8001344 -0.606659,1.4267234 -1.251694,1.5787694 -0.1893,0.04462 -0.494893,0.05117 -0.678604,0.01455 z m 0.222429,-0.96573 c 0.06117,-0.031602 0.144247,-0.09301 0.184617,-0.1364633 0.365004,-0.3928771 0.365004,-1.4333624 0,-1.8262395 -0.238085,-0.2562672 -0.754558,-0.2812525 -1.033566,-0.050001 -0.4433302,0.3674491 -0.4433302,1.5589162 0,1.9262043 0.05403,0.044768 0.15455,0.099626 0.223365,0.1219089 0.173113,0.056053 0.482434,0.038545 0.625584,-0.035409 z"
       id="path819"
       inkscape:connector-curvature="0"
       sodipodi:nodetypes="csssccsscccssssscccccscccsscssssscscccccccccccsssscsssssss"
       inkscape:label="path819" />
    <path
       d="m -341.184,219.03204 q -17.664,-0.192 -27.84,-7.68 -10.176,-7.488 -10.176,-22.848 v -28.224 q 0,-9.792 -6.144,-13.824 -5.952,-4.224 -17.28,-4.224 v -14.016 q 11.328,-0.192 17.28,-4.224 6.144,-4.032 6.144,-13.632 V 81.944035 q 0,-15.36 10.56,-22.848 10.56,-7.488 27.456,-7.488 v 13.824 q -9.984,0.192 -15.744,4.416 -5.568,4.224 -5.568,13.632 v 27.648005 q 0,19.776 -20.928,23.424 v 1.152 q 20.928,3.648 20.928,23.424 v 28.224 q 0,9.408 5.568,13.44 5.568,4.224 15.744,4.416 z m 162.04797,-13.824 q 9.984,-0.384 15.552,-4.608 5.76,-4.032 5.76,-13.44 v -27.84 q 0,-19.776 20.928,-23.424 v -1.152 q -20.928,-3.648 -20.928,-23.424 V 83.288035 q 0,-9.408 -5.568,-13.44 -5.568,-4.224 -15.744,-4.416 v -13.824 q 17.664,0.192 27.84,7.68 10.176,7.488 10.176,22.848 v 28.032005 q 0,9.792 5.952,14.016 6.144,4.032 17.472,4.032 v 14.016 q -11.328,0.192 -17.472,4.224 -5.952,4.032 -5.952,13.632 v 28.608 q 0,15.168 -10.56,22.656 -10.56,7.68 -27.456,7.68 z"
       id="text1"
       style="font-size:192px;-inkscape-font-specification:sans-serif;white-space:pre;display:none;fill:#ffffff"
       transform="matrix(0.05468243,0,0,0.06805635,22.290224,-0.99618681)"
       aria-label="{   }" />
    <path
       style="font-weight:bold;font-size:192px;-inkscape-font-specification:'sans-serif Bold';white-space:pre;fill:#ffffff;stroke-width:0.00061832"
       d="M 3.5050613,13.456317 Q 2.7668928,13.452106 2.3587291,13.275823 1.9592497,13.09959 1.8029317,12.72594 1.6466136,12.352289 1.6466136,11.755876 V 9.8423833 q 0,-0.583988 -0.2778987,-0.8340791 Q 1.0908162,8.758213 0.56107179,8.7551906 V 7.3014331 Q 1.0908162,7.3044555 1.3687149,7.0575356 1.6466136,6.8106156 1.6466136,6.2266275 V 4.3007094 q 0,-0.5964133 0.1563181,-0.9682797 Q 1.9592497,2.9605632 2.3587291,2.7888886 2.7668928,2.6172635 3.5050613,2.6214751 V 3.9882557 Q 3.1663722,3.9987485 2.9666325,4.1591375 2.7668928,4.3195265 2.7668928,4.8413882 v 1.8140905 q 0,1.1307003 -0.9900142,1.3362815 v 0.074552 q 0.9900142,0.2168783 0.9900142,1.3475786 v 1.8140902 q 0,0.521862 0.1997397,0.68453 0.1997397,0.162668 0.5384288,0.177026 z m 9.0667637,-1.31505 q 0.338689,-0.01049 0.538429,-0.170881 0.19974,-0.160389 0.19974,-0.682251 V 9.4740443 q 0,-1.1307002 0.990014,-1.3362814 V 8.0632112 Q 13.309994,7.846333 13.309994,6.7156327 V 4.9015421 q 0,-0.5218616 -0.19974,-0.6845299 Q 12.910514,4.054344 12.571825,4.0399863 V 2.6732058 q 0.746853,0.00426 1.146332,0.1804943 0.39948,0.1762331 0.555798,0.5498833 0.156318,0.3736502 0.156318,0.9700636 v 1.925918 q 0,0.5839881 0.277899,0.8340792 0.277898,0.2500911 0.807643,0.2531136 v 1.4537575 q -0.529745,-0.00302 -0.807643,0.2438975 -0.277899,0.24692 -0.277899,0.830908 v 1.9134932 q 0,0.596413 -0.156318,0.968279 -0.156318,0.371867 -0.555798,0.543542 -0.399479,0.171674 -1.146332,0.167413 z"
       id="text2"
       aria-label="{    }" />
  </g>
</svg>
