<?xml version="1.0" encoding="UTF-8" standalone="no"?>
<!-- Created with Inkscape (http://www.inkscape.org/) -->

<svg
   version="1.1"
   id="svg2"
   width="1600"
   height="1600"
   viewBox="0 0 1600 1600"
   sodipodi:docname="split_string.svg"
   inkscape:version="1.4.3 (0d15f75, 2025-12-25)"
   xml:space="preserve"
   xmlns:inkscape="http://www.inkscape.org/namespaces/inkscape"
   xmlns:sodipodi="http://sodipodi.sourceforge.net/DTD/sodipodi-0.dtd"
   xmlns="http://www.w3.org/2000/svg"
   xmlns:svg="http://www.w3.org/2000/svg"
   xmlns:rdf="http://www.w3.org/1999/02/22-rdf-syntax-ns#"
   xmlns:cc="http://creativecommons.org/ns#"
   xmlns:dc="http://purl.org/dc/elements/1.1/"><metadata
     id="metadata8"><rdf:RDF><cc:Work
         rdf:about=""><dc:format>image/svg+xml</dc:format><dc:type
           rdf:resource="http://purl.org/dc/dcmitype/StillImage" /></cc:Work></rdf:RDF></metadata><defs
     id="defs6"><rect
       x="-400"
       y="176"
       width="1176"
       height="978"
       id="rect2" /><rect
       x="-408"
       y="14"
       width="754"
       height="1392"
       id="rect1" /></defs><sodipodi:namedview
     pagecolor="#808080"
     bordercolor="#666666"
     borderopacity="1"
     objecttolerance="10"
     gridtolerance="10"
     guidetolerance="10"
     inkscape:pageopacity="0"
     inkscape:pageshadow="2"
     inkscape:window-width="1920"
     inkscape:window-height="1009"
     id="namedview4"
     showgrid="true"
     inkscape:zoom="0.1767767"
     inkscape:cx="311.12698"
     inkscape:cy="186.67619"
     inkscape:window-x="-8"
     inkscape:window-y="-8"
     inkscape:window-maximized="1"
     inkscape:current-layer="path821-5-1"
     inkscape:showpageshadow="0"
     inkscape:pagecheckerboard="true"
     inkscape:deskcolor="#d1d1d1"><inkscape:grid
       id="grid6"
       units="px"
       originx="0"
       originy="0"
       spacingx="100"
       spacingy="100"
       empcolor="#0099e5"
       empopacity="0.30196078"
       color="#0099e5"
       opacity="0.14901961"
       empspacing="5"
       enabled="true"
       visible="true" /></sodipodi:namedview><g
     id="STRING"
     transform="matrix(100,0,0,100,0,4.9999997e-5)"
     style="stroke-width:0.0114286"><g
       id="path819-9"
       inkscape:label="path819"
       style="opacity:1"><path
         style="baseline-shift:baseline;display:inline;overflow:visible;vector-effect:none;fill:#333333;enable-background:accumulate;stop-color:#000000;stop-opacity:1"
         d="M 2.4906098,6.1045662 C 2.162736,6.1368182 1.7046718,6.2117951 1.4320161,6.2881599 L 0.9808442,6.415113 v 0.8320313 1.1992188 c -0.3306193,0.4938392 -0.4299138,1.1121498 -0.171875,1.6757819 0.2291351,0.500497 0.7082377,0.839666 1.2617187,0.953125 0.3035413,0.06222 0.6155654,0.04969 0.9160157,-0.01367 0.1361303,-0.02871 0.2324032,-0.141042 0.3574218,-0.197266 v 0.138672 H 4.4476411 5.5550629 L 5.5413911,9.1944099 C 5.5366363,8.5628708 5.5339329,8.230323 5.5238129,8.0088631 5.513693,7.7874031 5.4857012,7.6420108 5.4535004,7.5264412 5.4090304,7.3668349 5.3566461,7.2167589 5.2757661,7.0674568 5.050176,6.6510155 4.6436243,6.3669218 4.1663911,6.2198005 3.6891578,6.0726793 3.1297443,6.0416967 2.4906098,6.1045662 Z m 0.6328125,3.1933594 c -0.00175,9.083e-4 -1.738e-4,0.00299 -0.00195,0.00391 0.036179,-0.018607 -0.051584,0.013223 -0.1289063,0.017578 -0.067959,0.00383 -0.1219535,-0.00985 -0.1132812,-0.00391 0.030198,-0.00811 0.1664771,-0.010874 0.2441406,-0.017578 z"
         id="path6" /><path
         style="baseline-shift:baseline;display:inline;overflow:visible;vector-effect:none;fill:#333333;enable-background:accumulate;stop-color:#000000;stop-opacity:1"
         d="m 10.429688,4.679687 v 3.1875 3.1875 h 1.101562 1.103516 v -0.148438 c 0.135413,0.06356 0.241741,0.193363 0.388672,0.222657 0.293694,0.05854 0.590276,0.04896 0.880859,-0.01953 0.876297,-0.206558 1.483589,-1.017938 1.615234,-1.976562 C 15.630785,8.3226711 15.474606,7.5716013 15.083984,7.0097651 14.693362,6.4479289 14.038163,6.0929608 13.310547,6.1367182 13.051162,6.1523172 12.862518,6.345882 12.634766,6.4531245 V 6.2050776 4.679687 H 11.53125 Z M 13,7.9999995 c 0.09383,0.00454 0.168375,0.048668 0.175781,0.056641 0.0398,0.042836 0.146485,0.3123605 0.146485,0.5898438 0,0.2774832 -0.106688,0.5450549 -0.146485,0.5878906 0.02911,-0.03133 -0.06082,0.040277 -0.05469,0.037109 0.0391,-0.020198 -0.03703,0.01153 -0.109375,0.015625 -0.07235,0.00409 -0.156755,-0.011826 -0.150391,-0.00977 0.01982,0.00642 -0.08866,-0.053595 -0.06641,-0.035156 -0.02683,-0.022226 -0.160156,-0.2962979 -0.160156,-0.5957031 0,-0.2994053 0.133224,-0.5753342 0.160156,-0.5976563 0.02185,-0.018106 0.111246,-0.053368 0.205078,-0.048828 z"
         id="path2" /><g
         id="SPLITBYEDGES"
         style="stroke-width:0.0114286"
         transform="translate(-1.72,0.7799995)"><path
           style="fill:#fe0000;stroke-width:0.000357143"
           d="M 9.494375,14.910837 C 9.339896,14.839161 9.185032,14.679519 9.120959,14.525898 9.077662,14.42209 9.0725,13.650568 9.0725,7.2827073 c 0,-7.87321399 -0.01671,-7.23960785 0.196896,-7.46475351 0.350996,-0.36995295 0.96289,-0.25317007 1.160895,0.22156228 0.04331,0.10382597 0.04839,0.87496932 0.04777,7.24999993 -6.63e-4,6.882693 -0.0027,7.138216 -0.05868,7.258816 -0.163761,0.352946 -0.587609,0.51905 -0.925006,0.362505 z"
           id="path821-5"
           inkscape:connector-curvature="0" /></g><g
         id="SPLITBYEDGES-7"
         style="stroke-width:1;stroke:#333333;stroke-dasharray:none"
         transform="translate(-1.7733275,0.65069519)"><g
           id="path821-5-1"
           style="opacity:1"><path
             style="baseline-shift:baseline;display:inline;overflow:visible;fill:#000000;stroke:none;stroke-width:1;enable-background:accumulate;stop-color:#000000;stop-opacity:1;stroke-dasharray:none;fill-opacity:1"
             d="m 9.9748104,-0.5726428 c -0.3709035,-0.0703284 -0.7733686,0.0296812 -1.0583081,0.33001006 0.012115,-0.0127696 0.011151,-0.0174579 -0.055002,0.0474152 -0.066153,0.0648731 -0.1435975,0.19249727 -0.174488,0.29587108 -0.061781,0.20674762 -0.064669,0.39301608 -0.075864,0.81743869 -0.02239,0.84884527 -0.018966,2.59956577 -0.018966,6.42191987 0,3.0919319 0.00106,4.8235409 0.00758,5.7998309 0.00326,0.488147 0.00842,0.787127 0.015173,0.978651 0.00675,0.191524 -0.028857,0.222663 0.062588,0.44191 0.1232122,0.295414 0.3177085,0.49447 0.6050184,0.627778 0.5874064,0.272544 1.2746753,-0.0097 1.5438413,-0.589845 C 10.988962,14.247901 10.928156,14.027585 10.9288,7.3457019 10.929101,4.2502895 10.9276,2.5153541 10.9212,1.5382836 10.918,1.0497483 10.9128,0.75313464 10.90602,0.56152965 10.89932,0.36992465 10.93676,0.33880604 10.84533,0.11961963 10.686235,-0.26182287 10.345691,-0.50231443 9.974786,-0.57264284 Z"
             id="path8"
             sodipodi:nodetypes="scssssscscccsccss" /><path
             style="baseline-shift:baseline;display:inline;overflow:visible;vector-effect:none;fill:#fe0000;stroke:none;stroke-width:0.971064;enable-background:accumulate;stop-color:#000000;stop-opacity:1"
             d="m 9.4876093,14.746933 c -0.150009,-0.0696 -0.3003919,-0.224624 -0.3626108,-0.3738 -0.042044,-0.100805 -0.047057,-0.850002 -0.047057,-7.0336024 0,-7.64539521 -0.016227,-7.03012306 0.1911986,-7.24875392 0.3408396,-0.35924801 0.9350289,-0.24584435 1.1273039,0.21515117 0.04206,0.10082167 0.04699,0.84965135 0.04639,7.04021445 -6.44e-4,6.6835357 -0.0026,6.9316647 -0.05698,7.0487757 -0.159023,0.342733 -0.5706068,0.50403 -0.8982409,0.352015 z"
             id="path7" /></g></g></g><path
       style="fill:none;stroke-width:0.000340206"
       d="M 0.38122142,8 V 0.37939826 H 8.0018232 15.622425 V 8 15.620602 H 8.0018232 0.38122142 Z m 2.45585798,2.515069 c 0.3176677,-0.067 0.5624522,-0.201745 0.7952199,-0.437768 L 3.8343066,9.8724682 v 0.2842528 0.284253 h 0.6716075 0.6716072 l -0.0107,-1.4214208 C 5.1566468,7.6680249 5.1529297,7.5866794 5.0912236,7.3652122 4.8960502,6.6647211 4.4433641,6.3256472 3.5545439,6.2141986 2.9869761,6.1430317 2.0216515,6.2241033 1.4156586,6.3938302 L 1.3040287,6.4250958 V 6.9303572 7.4356185 L 1.4299717,7.371367 C 2.0700095,7.0448442 3.2036214,6.9776118 3.6038054,7.2424407 3.7371008,7.3306516 3.8326723,7.5125884 3.8336528,7.6799943 L 3.8343066,7.7916242 3.291041,7.7918623 C 2.2325671,7.7923386 1.6931372,7.9149511 1.3253877,8.2386573 1.0462901,8.4843289 0.90133222,8.9573125 0.96650096,9.4096702 1.0509782,9.9960547 1.4500515,10.403435 2.063112,10.529108 c 0.1932172,0.03961 0.5502731,0.03313 0.7739674,-0.01404 z M 2.62959,9.6213322 C 2.2347801,9.4708312 2.1641106,8.9865702 2.5003254,8.7355497 2.6311153,8.6379009 2.894177,8.5963222 3.3843449,8.5958245 L 3.8423061,8.5953595 3.8274796,8.802583 C 3.8019164,9.1598603 3.6310354,9.422452 3.3199813,9.5824516 3.1572,9.6661829 2.8000159,9.6862984 2.62959,9.6213322 Z M 9.5172194,10.51421 C 10.207824,10.351422 10.739697,9.6805671 10.85734,8.8239074 10.977776,7.9469046 10.75314,7.139568 10.251231,6.6455571 9.9121547,6.3118161 9.5140715,6.1647394 9.0288183,6.1939216 8.576719,6.2211098 8.2425288,6.3784788 7.9213454,6.7154261 L 7.7636794,6.8808307 V 5.7585247 4.6362188 H 7.0938999 6.4241205 V 7.5385964 10.440974 H 7.0938999 7.7636794 V 10.152171 9.8633687 l 0.1562818,0.1634993 c 0.4348554,0.454936 1.0014007,0.627795 1.5972582,0.487342 z M 8.3590389,9.5337426 C 8.2853631,9.5098862 8.177748,9.4511519 8.1198943,9.4032213 c -0.4746495,-0.3932352 -0.4746495,-1.668874 0,-2.0622816 0.2987183,-0.2475892 0.8516772,-0.2208388 1.1065828,0.053533 0.1837702,0.1978038 0.292479,0.5611689 0.292479,0.9776274 0,0.5607301 -0.1744216,0.9606242 -0.4901378,1.1237313 -0.1532637,0.07918 -0.4844369,0.097925 -0.6697794,0.037911 z m 6.3548631,0.9527794 c 0.114278,-0.02492 0.278373,-0.06582 0.364658,-0.0909 l 0.156881,-0.04561 V 9.8023027 9.2545984 l -0.171165,0.1032645 c -0.285712,0.1723697 -0.534462,0.2347535 -0.93025,0.2332965 -0.283475,-0.00104 -0.371513,-0.01282 -0.512058,-0.068495 -0.430179,-0.1704083 -0.678661,-0.5916716 -0.678661,-1.150565 0,-0.5588934 0.248482,-0.9801568 0.678661,-1.150565 0.141242,-0.055951 0.227179,-0.067297 0.512058,-0.067602 0.294888,-3.185e-4 0.373769,0.010633 0.569164,0.079008 0.124757,0.043658 0.295551,0.1198956 0.379541,0.1694182 l 0.15271,0.090041 V 6.9436176 6.3948358 L 15.079198,6.3484368 C 14.678993,6.2295882 14.44951,6.1999229 13.940534,6.2012401 c -0.417412,0.00108 -0.551948,0.0127 -0.768053,0.066336 -0.813192,0.2018295 -1.332575,0.6810647 -1.544962,1.425536 -0.09593,0.3362578 -0.09593,1.0217166 0,1.3579745 0.23738,0.8320774 0.870353,1.3423704 1.835895,1.4800694 0.252951,0.03607 1.003134,0.0093 1.250488,-0.04464 z"
       id="path821"
       inkscape:connector-curvature="0" /><path
       id="path5"
       style="display:inline;fill:#fefcfe;stroke-width:0.000317757"
       d="m 13.339358,9.6953211 c 0.06117,-0.031602 0.144247,-0.09301 0.184617,-0.1364633 0.365004,-0.3928771 0.365004,-1.4333624 0,-1.8262395 -0.238085,-0.2562672 -0.754558,-0.2812525 -1.033566,-0.050001 -0.44333,0.3674491 -0.44333,1.5589162 0,1.9262043 0.05403,0.044768 0.15455,0.099626 0.223365,0.1219089 0.173113,0.056053 0.482434,0.038545 0.625584,-0.035409 z m -0.222429,0.9657299 c -0.302256,-0.06026 -0.569292,-0.214498 -0.813261,-0.469733 l -0.145969,-0.15271 V 10.308353 10.5781 H 11.532114 10.906529 V 7.8672326 5.1563653 h 0.625585 0.625585 V 6.204617 7.2528689 l 0.147262,-0.1544905 c 0.29999,-0.3147143 0.612131,-0.4616993 1.034397,-0.4870938 1.135171,-0.068267 1.902933,1.0360127 1.707869,2.4564491 -0.10988,0.8001344 -0.606659,1.4267233 -1.251694,1.5787693 -0.1893,0.04462 -0.494893,0.05117 -0.678604,0.01455 z" /><path
       id="path819"
       style="display:inline;fill:#fefcfe;stroke-width:0.000317757"
       d="M 3.33962,9.7245422 C 3.6301496,9.5751007 3.7897552,9.3298359 3.8136316,8.9961331 L 3.8274796,8.802583 3.3997365,8.8030168 C 2.8009267,8.8036257 2.5989824,8.8578698 2.449333,9.058309 2.382121,9.148333 2.357974,9.3503266 2.399414,9.4758919 c 0.040082,0.1214512 0.1535194,0.2308923 0.2953692,0.2849653 0.1591804,0.06068 0.4927961,0.04189 0.6448361,-0.03631 z M 2.165684,10.60874 C 1.7395472,10.521386 1.4009514,10.270189 1.2423368,9.9237292 1.021996,9.4424409 1.1295332,8.7749564 1.4766376,8.4694229 1.8201215,8.1670761 2.3239577,8.0525538 3.3125893,8.0521092 L 3.8200081,8.0518813 3.8193964,7.9476172 C 3.8184818,7.7912574 3.7292152,7.6213255 3.6047151,7.5389352 3.2309369,7.2915805 2.1721253,7.3543768 1.5743195,7.6593544 L 1.4566878,7.7193658 V 7.247444 6.7755219 L 1.560952,6.7463188 C 1.75602,6.6916848 2.2482322,6.6072092 2.5370299,6.578801 3.7284826,6.4616017 4.5412312,6.7121554 4.856306,7.2937863 c 0.042388,0.078247 0.1043447,0.2401661 0.1376828,0.3598194 0.057635,0.2068539 0.061106,0.2828319 0.07061,1.545181 l 0.01,1.3276303 H 4.4473004 3.8200081 V 10.26092 9.9954232 L 3.63133,10.18674 c -0.2174086,0.220449 -0.4460413,0.346311 -0.742748,0.408882 -0.2089342,0.04406 -0.5424302,0.05011 -0.722898,0.01312 z" /></g></svg>
