<?xml version="1.0" encoding="UTF-8" standalone="no"?>
<!-- Created with Inkscape (http://www.inkscape.org/) -->

<svg
   version="1.1"
   id="svg2"
   width="1600"
   height="1600"
   viewBox="0 0 1600 1600"
   sodipodi:docname="spline_length.svg"
   inkscape:version="1.2.2 (732a01da63, 2022-12-09)"
   xmlns:inkscape="http://www.inkscape.org/namespaces/inkscape"
   xmlns:sodipodi="http://sodipodi.sourceforge.net/DTD/sodipodi-0.dtd"
   xmlns="http://www.w3.org/2000/svg"
   xmlns:svg="http://www.w3.org/2000/svg"
   xmlns:rdf="http://www.w3.org/1999/02/22-rdf-syntax-ns#"
   xmlns:cc="http://creativecommons.org/ns#"
   xmlns:dc="http://purl.org/dc/elements/1.1/">
  <metadata
     id="metadata8">
    <rdf:RDF>
      <cc:Work
         rdf:about="">
        <dc:format>image/svg+xml</dc:format>
        <dc:type
           rdf:resource="http://purl.org/dc/dcmitype/StillImage" />
      </cc:Work>
    </rdf:RDF>
  </metadata>
  <defs
     id="defs6" />
  <sodipodi:namedview
     pagecolor="#808080"
     bordercolor="#666666"
     borderopacity="1"
     objecttolerance="10"
     gridtolerance="10"
     guidetolerance="10"
     inkscape:pageopacity="0"
     inkscape:pageshadow="2"
     inkscape:window-width="1993"
     inkscape:window-height="1009"
     id="namedview4"
     showgrid="false"
     inkscape:zoom="0.5"
     inkscape:cx="603"
     inkscape:cy="360"
     inkscape:window-x="-8"
     inkscape:window-y="-8"
     inkscape:window-maximized="1"
     inkscape:current-layer="SPLINE_LENGTH"
     inkscape:showpageshadow="0"
     inkscape:pagecheckerboard="true"
     inkscape:deskcolor="#d1d1d1" />
  <g
     id="SPLINE_LENGTH"
     transform="matrix(100,0,0,100,0,4.9999997e-5)"
     style="stroke-width:0.0114286">
    <path
       style="fill:none;stroke-width:0.000357143"
       d="M 0,8 V 0 h 8 8 v 8 8 H 8 0 Z m 2,6 v -1 h 6 6 v 1 1 H 14.5 15 V 12.5 10 H 14.5 14 v 1 1 H 8 2 V 11 10 H 1.5 1 V 12.5 15 H 1.5 2 Z M 7.99322,10.546875 C 8.1527722,10.30625 8.6370113,9.51875 9.0693072,8.796875 9.5016031,8.075 9.9808941,7.2875 10.134399,7.046875 11.335182,5.1645969 12.354444,4.2448253 13.58122,3.9365 13.772527,3.888419 14.010611,3.859553 14.34375,3.844049 14.987419,3.814093 15.113354,3.767764 15.440559,3.4405593 15.755574,3.1255449 15.82592,2.9567016 15.82592,2.5156249 c 0,-0.4410767 -0.07035,-0.60992 -0.385361,-0.9249344 C 15.132983,1.2831143 14.968162,1.2141433 14.493834,1.1945251 13.432388,1.1506235 12.200202,1.4791128 11.23151,2.0642305 10.759009,2.3496344 10.341289,2.6843408 9.8332803,3.1845897 8.8261538,4.1763312 8.3177753,4.8834481 6.8480525,7.3368187 6.3875797,8.1054747 5.8914419,8.9171875 5.7455241,9.140625 5.3734425,9.7103775 4.8564675,10.388081 4.5412062,10.719366 l -0.2675709,0.281171 1.714745,-0.0081 1.7147447,-0.0081 z"
       id="path827"
       inkscape:connector-curvature="0" />
    <path
       style="fill:#fefefe;stroke-width:0.000357143"
       d="M 2,12.5 V 12 h 6 6 V 12.5 13 H 8 2 Z"
       id="path825"
       inkscape:connector-curvature="0" />
    <path
       style="fill:#00fe00;stroke-width:0.000357143"
       d="m 5.34375,10.972576 c 0,-0.01508 0.022907,-0.04643 0.050904,-0.06967 C 5.4859412,10.827145 6.1424925,9.9320953 6.4237369,9.5 6.5747625,9.2679688 7.0765556,8.44676 7.5388328,7.6750916 8.9471375,5.3242428 9.4823594,4.575495 10.379197,3.7015697 c 0.908546,-0.8853339 1.818147,-1.3961501 2.917678,-1.6385174 0.353619,-0.077947 1.078242,-0.142538 1.271148,-0.113306 0.253998,0.03849 0.46306,0.2323626 0.507813,0.4709182 0.06724,0.3584163 -0.295495,0.7226474 -0.652903,0.6555971 C 14.270875,3.0477354 13.693548,3.1181934 13.34747,3.2075131 11.983031,3.5596622 10.824438,4.5772831 9.5455,6.546875 9.4115734,6.753125 8.9269681,7.5476562 8.4685994,8.3125 7.6647,9.6539034 7.1974,10.393609 6.8941906,10.804688 L 6.7501294,11 H 6.0469397 C 5.6601853,11 5.34375,10.987659 5.34375,10.972576 Z"
       id="path823"
       inkscape:connector-curvature="0" />
    <path
       style="fill:#fe0000;stroke-width:0.000357143"
       d="M 1,12.5 V 10 H 1.5 2 V 12.5 15 H 1.5 1 Z m 13,0 V 10 H 14.5 15 V 12.5 15 H 14.5 14 Z"
       id="path821"
       inkscape:connector-curvature="0" />
    <path
       style="fill:#323232;stroke-width:0.000357143"
       d="M 4.5414619,10.719098 C 4.8564922,10.388054 5.3735428,9.7102238 5.7455241,9.140625 5.8914419,8.9171875 6.3875797,8.1054747 6.8480525,7.3368187 8.3177753,4.8834481 8.8261538,4.1763313 9.8332803,3.1845897 10.341289,2.6843408 10.759009,2.3496344 11.23151,2.0642305 c 0.968692,-0.5851177 2.200878,-0.913607 3.262324,-0.8697054 0.474328,0.019618 0.639149,0.088589 0.946725,0.3961655 0.315015,0.3150144 0.385361,0.4838577 0.385361,0.9249344 0,0.4410767 -0.07035,0.60992 -0.385361,0.9249344 -0.327205,0.327205 -0.45314,0.3735337 -1.096809,0.4034897 -0.333139,0.015504 -0.571223,0.04437 -0.76253,0.092451 C 12.354444,4.2448253 11.335182,5.1645969 10.134399,7.046875 9.9808941,7.2875 9.5016031,8.075 9.0693072,8.796875 8.6370113,9.51875 8.1527722,10.30625 7.99322,10.546875 l -0.290095,0.4375 -0.4761028,0.0086 -0.4761031,0.0086 0.1974837,-0.274249 C 7.2802134,10.266583 7.6760459,9.6372425 8.5065813,8.25 8.9439094,7.5195312 9.4113613,6.753125 9.5453631,6.546875 10.654528,4.8396956 11.664549,3.8584691 12.793856,3.3909909 c 0.48642,-0.201354 1.347087,-0.3676308 1.629077,-0.3147293 0.357408,0.06705 0.720142,-0.2971808 0.652903,-0.6555971 C 15.031083,2.1821089 14.822021,1.9882359 14.568023,1.9497463 14.375117,1.9205142 13.650494,1.9851048 13.296875,2.0630523 12.197344,2.3054196 11.287743,2.8162358 10.379197,3.7015697 9.4823594,4.575495 8.9471375,5.3242428 7.5388328,7.6750916 7.0765556,8.44676 6.5747625,9.2679688 6.4237369,9.5 6.1877628,9.8625434 5.5683494,10.710014 5.3787825,10.929688 5.3203709,10.997376 5.2986278,11 4.7961269,11 h -0.52198 z"
       id="path819"
       inkscape:connector-curvature="0" />
  </g>
</svg>
