<?xml version="1.0" encoding="UTF-8" standalone="no"?>
<!-- Created with Inkscape (http://www.inkscape.org/) -->

<svg
   version="1.1"
   id="svg2"
   width="1600"
   height="1600"
   viewBox="0 0 1600 1600"
   sodipodi:docname="sticky_uvs_loc.svg"
   inkscape:version="1.2.2 (732a01da63, 2022-12-09)"
   xmlns:inkscape="http://www.inkscape.org/namespaces/inkscape"
   xmlns:sodipodi="http://sodipodi.sourceforge.net/DTD/sodipodi-0.dtd"
   xmlns="http://www.w3.org/2000/svg"
   xmlns:svg="http://www.w3.org/2000/svg"
   xmlns:rdf="http://www.w3.org/1999/02/22-rdf-syntax-ns#"
   xmlns:cc="http://creativecommons.org/ns#"
   xmlns:dc="http://purl.org/dc/elements/1.1/">
  <metadata
     id="metadata8">
    <rdf:RDF>
      <cc:Work
         rdf:about="">
        <dc:format>image/svg+xml</dc:format>
        <dc:type
           rdf:resource="http://purl.org/dc/dcmitype/StillImage" />
      </cc:Work>
    </rdf:RDF>
  </metadata>
  <defs
     id="defs6" />
  <sodipodi:namedview
     pagecolor="#808080"
     bordercolor="#666666"
     borderopacity="1"
     objecttolerance="10"
     gridtolerance="10"
     guidetolerance="10"
     inkscape:pageopacity="0"
     inkscape:pageshadow="2"
     inkscape:window-width="1993"
     inkscape:window-height="1009"
     id="namedview4"
     showgrid="false"
     inkscape:zoom="0.5"
     inkscape:cx="527"
     inkscape:cy="674"
     inkscape:window-x="-8"
     inkscape:window-y="-8"
     inkscape:window-maximized="1"
     inkscape:current-layer="STICKY_UVS_LOC"
     inkscape:showpageshadow="0"
     inkscape:pagecheckerboard="true"
     inkscape:deskcolor="#d1d1d1" />
  <g
     id="STICKY_UVS_LOC"
     transform="matrix(100,0,0,100,0,4.9999997e-5)"
     style="stroke-width:0.0114286">
    <path
       style="fill:none;stroke-width:0.000357143"
       d="M 0,8 V 0 h 8 8 v 8 8 H 8 0 Z M 15,8 V 1 H 8 1 v 7 7 h 7 7 z M 2,8 V 2 h 6 6 v 6 6 H 8 2 Z m 9,2 V 8 H 10.5 10 V 6 4 H 8 6 V 5.5 7 H 5 4 v 2 2 H 5.5 7 v 0.5 0.5 h 2 2 z"
       id="path823"
       inkscape:connector-curvature="0" />
    <path
       style="fill:#fefefe;stroke-width:0.000357143"
       d="M 1,14.5 V 14 H 1.5 2 V 14.5 15 H 1.5 1 Z m 2,0 V 14 H 3.5 4 V 14.5 15 H 3.5 3 Z m 2,0 V 14 H 5.5 6 V 14.5 15 H 5.5 5 Z m 2,0 V 14 H 7.5 8 V 14.5 15 H 7.5 7 Z m 2,0 V 14 H 9.5 10 V 14.5 15 H 9.5 9 Z m 2,0 V 14 H 11.5 12 V 14.5 15 H 11.5 11 Z m 2,0 V 14 H 13.5 14 V 13.5 13 H 14.5 15 V 13.5 14 H 14.5 14 V 14.5 15 H 13.5 13 Z M 1,12.5 V 12 H 1.5 2 V 12.5 13 H 1.5 1 Z m 13,-1 V 11 H 14.5 15 V 11.5 12 H 14.5 14 Z M 1,10.5 V 10 H 1.5 2 V 10.5 11 H 1.5 1 Z M 8,10 V 9 h 1 1 v 1 1 H 9 8 Z M 5,9 V 8 h 1 1 v 1 1 H 6 5 Z m 9,0.5 V 9 H 14.5 15 V 9.5 10 H 14.5 14 Z M 1,8.5 V 8 H 1.5 2 V 8.5 9 H 1.5 1 Z m 13,-1 V 7 H 14.5 15 V 7.5 8 H 14.5 14 Z M 1,6.5 V 6 H 1.5 2 V 6.5 7 H 1.5 1 Z M 7,6 V 5 H 8 9 V 6 7 H 8 7 Z M 14,5.5 V 5 H 14.5 15 V 5.5 6 H 14.5 14 Z M 1,4.5 V 4 H 1.5 2 V 4.5 5 H 1.5 1 Z m 13,-1 V 3 H 14.5 15 V 3.5 4 H 14.5 14 Z M 1,2.5 V 2 H 1.5 2 V 1.5 1 H 2.5 3 V 1.5 2 H 2.5 2 V 2.5 3 H 1.5 1 Z m 3,-1 V 1 H 4.5 5 V 1.5 2 H 4.5 4 Z m 2,0 V 1 H 6.5 7 V 1.5 2 H 6.5 6 Z m 2,0 V 1 H 8.5 9 V 1.5 2 H 8.5 8 Z m 2,0 V 1 H 10.5 11 V 1.5 2 H 10.5 10 Z m 2,0 V 1 H 12.5 13 V 1.5 2 H 12.5 12 Z m 2,0 V 1 H 14.5 15 V 1.5 2 H 14.5 14 Z"
       id="path821"
       inkscape:connector-curvature="0" />
    <path
       style="fill:#323232;stroke-width:0.000357143"
       d="M 2,14.5 V 14 H 1.5 1 V 13.5 13 H 1.5 2 V 13.5 14 H 2.5 3 V 14.5 15 H 2.5 2 Z m 2,0 V 14 H 4.5 5 V 14.5 15 H 4.5 4 Z m 2,0 V 14 H 6.5 7 V 14.5 15 H 6.5 6 Z m 2,0 V 14 H 8.5 9 V 14.5 15 H 8.5 8 Z m 2,0 V 14 H 10.5 11 V 14.5 15 H 10.5 10 Z m 2,0 V 14 H 12.5 13 V 14.5 15 H 12.5 12 Z m 2,0 V 14 H 14.5 15 V 14.5 15 H 14.5 14 Z m 0,-2 V 12 H 14.5 15 V 12.5 13 H 14.5 14 Z M 1,11.5 V 11 H 1.5 2 V 11.5 12 H 1.5 1 Z m 6,0 V 11 H 5.5 4 V 9 7 H 5 6 V 5.5 4 h 2 2 v 2 2 h 0.5 0.5 v 2 2 H 9 7 Z M 10,10 V 9 H 9 8 v 1 1 h 1 1 z M 7,9 V 8 H 6 5 v 1 1 H 6 7 Z M 9,6 V 5 H 8 7 v 1 1 h 1 1 z m 5,4.5 V 10 H 14.5 15 V 10.5 11 H 14.5 14 Z M 1,9.5 V 9 H 1.5 2 V 9.5 10 H 1.5 1 Z m 13,-1 V 8 H 14.5 15 V 8.5 9 H 14.5 14 Z M 1,7.5 V 7 H 1.5 2 V 7.5 8 H 1.5 1 Z m 13,-1 V 6 H 14.5 15 V 6.5 7 H 14.5 14 Z M 1,5.5 V 5 H 1.5 2 V 5.5 6 H 1.5 1 Z m 13,-1 V 4 H 14.5 15 V 4.5 5 H 14.5 14 Z M 1,3.5 V 3 H 1.5 2 V 3.5 4 H 1.5 1 Z m 13,-1 V 2 H 13.5 13 V 1.5 1 H 13.5 14 V 1.5 2 H 14.5 15 V 2.5 3 H 14.5 14 Z M 1,1.5 V 1 H 1.5 2 V 1.5 2 H 1.5 1 Z m 2,0 V 1 H 3.5 4 V 1.5 2 H 3.5 3 Z m 2,0 V 1 H 5.5 6 V 1.5 2 H 5.5 5 Z m 2,0 V 1 H 7.5 8 V 1.5 2 H 7.5 7 Z m 2,0 V 1 H 9.5 10 V 1.5 2 H 9.5 9 Z m 2,0 V 1 H 11.5 12 V 1.5 2 H 11.5 11 Z"
       id="path819"
       inkscape:connector-curvature="0" />
  </g>
</svg>
