<?xml version="1.0" encoding="UTF-8" standalone="no"?>
<!-- Created with Inkscape (http://www.inkscape.org/) -->

<svg
   xmlns:dc="http://purl.org/dc/elements/1.1/"
   xmlns:cc="http://creativecommons.org/ns#"
   xmlns:rdf="http://www.w3.org/1999/02/22-rdf-syntax-ns#"
   xmlns:svg="http://www.w3.org/2000/svg"
   xmlns="http://www.w3.org/2000/svg"
   xmlns:sodipodi="http://sodipodi.sourceforge.net/DTD/sodipodi-0.dtd"
   xmlns:inkscape="http://www.inkscape.org/namespaces/inkscape"
   version="1.1"
   id="svg2"
   width="16"
   height="16"
   viewBox="0 0 16 16"
   sodipodi:docname="STITCH.svg"
   inkscape:version="0.92.4 (5da689c313, 2019-01-14)">
  <metadata
     id="metadata8">
    <rdf:RDF>
      <cc:Work
         rdf:about="">
        <dc:format>image/svg+xml</dc:format>
        <dc:type
           rdf:resource="http://purl.org/dc/dcmitype/StillImage" />
        <dc:title></dc:title>
      </cc:Work>
    </rdf:RDF>
  </metadata>
  <defs
     id="defs6" />
  <sodipodi:namedview
     pagecolor="#ffffff"
     bordercolor="#666666"
     borderopacity="1"
     objecttolerance="10"
     gridtolerance="10"
     guidetolerance="10"
     inkscape:pageopacity="0"
     inkscape:pageshadow="2"
     inkscape:window-width="828"
     inkscape:window-height="550"
     id="namedview4"
     showgrid="false"
     inkscape:zoom="14.75"
     inkscape:cx="8"
     inkscape:cy="8"
     inkscape:window-x="0"
     inkscape:window-y="0"
     inkscape:window-maximized="0"
     inkscape:current-layer="svg2" />
  <g
     id="STITCH">
    <path
       style="fill:#ffffff;stroke-width:0.03125"
       d="M 0,15.5 V 15 h 8 8 V 15.5 16 H 8 0 Z M 0,0.5 V 0 h 8 8 V 0.5 1 H 8 0 Z"
       id="path827"
       inkscape:connector-curvature="0" />
    <path
       style="fill:#fefefe;stroke-width:0.03125"
       d="M 5,12 V 11 H 5.5 6 v 1 1 H 5.5 5 Z m 4,0 V 11 H 9.5 10 v 1 1 H 9.5 9 Z M 5,8 V 7 H 5.5 6 V 8 9 H 5.5 5 Z M 9,8 V 7 H 9.5 10 V 8 9 H 9.5 9 Z M 5,4 V 3 H 5.5 6 V 4 5 H 5.5 5 Z M 9,4 V 3 H 9.5 10 V 4 5 H 9.5 9 Z"
       id="path825"
       inkscape:connector-curvature="0" />
    <path
       style="fill:#6598cb;stroke-width:0.03125"
       d="M 0,8 V 2 H 3.5 7 v 6 6 H 3.5 0 Z m 6,4 V 11 H 5.5 5 v 1 1 H 5.5 6 Z M 6,8 V 7 H 5.5 5 V 8 9 H 5.5 6 Z M 6,4 V 3 H 5.5 5 V 4 5 H 5.5 6 Z M 8,8 V 2 h 4 4 v 6 6 H 12 8 Z m 2,4 V 11 H 9.5 9 v 1 1 H 9.5 10 Z M 10,8 V 7 H 9.5 9 V 8 9 H 9.5 10 Z M 10,4 V 3 H 9.5 9 V 4 5 H 9.5 10 Z"
       id="path823"
       inkscape:connector-curvature="0" />
    <path
       style="fill:#00fe00;stroke-width:0.03125"
       d="M 7,8 V 1 H 7.5 8 v 7 7 H 7.5 7 Z"
       id="path821"
       inkscape:connector-curvature="0" />
    <path
       style="fill:#323232;stroke-width:0.03125"
       d="M 0,14.5 V 14 H 3.5 7 V 14.5 15 H 3.5 0 Z m 8,0 V 14 h 4 4 V 14.5 15 H 12 8 Z M 0,1.5 V 1 H 3.5 7 V 1.5 2 H 3.5 0 Z m 8,0 V 1 h 4 4 V 1.5 2 H 12 8 Z"
       id="path819"
       inkscape:connector-curvature="0" />
  </g>
</svg>
