<?xml version="1.0" encoding="UTF-8" standalone="no"?>
<!-- Created with Inkscape (http://www.inkscape.org/) -->

<svg
   version="1.1"
   id="svg2"
   width="1600"
   height="1600"
   viewBox="0 0 1600 1600"
   sodipodi:docname="strands.svg"
   inkscape:version="1.2.2 (732a01da63, 2022-12-09)"
   xmlns:inkscape="http://www.inkscape.org/namespaces/inkscape"
   xmlns:sodipodi="http://sodipodi.sourceforge.net/DTD/sodipodi-0.dtd"
   xmlns="http://www.w3.org/2000/svg"
   xmlns:svg="http://www.w3.org/2000/svg"
   xmlns:rdf="http://www.w3.org/1999/02/22-rdf-syntax-ns#"
   xmlns:cc="http://creativecommons.org/ns#"
   xmlns:dc="http://purl.org/dc/elements/1.1/">
  <metadata
     id="metadata8">
    <rdf:RDF>
      <cc:Work
         rdf:about="">
        <dc:format>image/svg+xml</dc:format>
        <dc:type
           rdf:resource="http://purl.org/dc/dcmitype/StillImage" />
      </cc:Work>
    </rdf:RDF>
  </metadata>
  <defs
     id="defs6" />
  <sodipodi:namedview
     pagecolor="#808080"
     bordercolor="#666666"
     borderopacity="1"
     objecttolerance="10"
     gridtolerance="10"
     guidetolerance="10"
     inkscape:pageopacity="0"
     inkscape:pageshadow="2"
     inkscape:window-width="1993"
     inkscape:window-height="1009"
     id="namedview4"
     showgrid="false"
     inkscape:zoom="0.5"
     inkscape:cx="387"
     inkscape:cy="398"
     inkscape:window-x="-8"
     inkscape:window-y="-8"
     inkscape:window-maximized="1"
     inkscape:current-layer="STRANDS"
     inkscape:showpageshadow="0"
     inkscape:pagecheckerboard="true"
     inkscape:deskcolor="#d1d1d1" />
  <g
     id="STRANDS"
     transform="matrix(100,0,0,100,0,4.9999997e-5)"
     style="stroke-width:0.0114286">
    <path
       style="fill:none;stroke-width:0.000357143"
       d="M 0,8 V 0 h 8 8 v 8 8 H 8 0 Z m 2.4883245,6.896542 c 0.1870577,-0.09479 0.36978,-0.288652 0.4585127,-0.486467 0.058501,-0.130417 0.067181,-0.232488 0.089351,-1.0507 C 3.1633509,8.6662863 4.0723272,5.0503075 5.6952922,2.78125 5.9666509,2.4018653 6.0129887,2.2856368 6.0129887,1.984375 c 0,-0.1878597 -0.016457,-0.2863185 -0.06621,-0.3961147 C 5.8534634,1.3823267 5.6483816,1.1722864 5.4420687,1.0713469 5.2942434,0.99902269 5.2252025,0.98510106 5.0127103,0.98476978 4.7848341,0.98441447 4.7379241,0.99531722 4.5438137,1.09375 4.3483847,1.1928514 4.3052987,1.2336675 4.0851106,1.5282888 3.016855,2.9576614 2.149515,4.996585 1.6273185,7.3060119 1.2120397,9.1425931 0.97279987,11.559773 1.0049913,13.59375 c 0.012068,0.762504 0.031384,0.840098 0.2748994,1.104281 0.2945918,0.319594 0.8042643,0.403319 1.2084338,0.198511 z m 3.9665658,0.02584 c 0.1984597,-0.0971 0.3710006,-0.280523 0.4672753,-0.496755 0.068071,-0.152886 0.072033,-0.205851 0.08911,-1.19125 0.00983,-0.567187 0.033177,-1.164844 0.051884,-1.328125 C 7.2927684,9.9020991 8.2481497,8.1937753 10.278116,6.157565 10.959015,5.4745716 11.015861,5.3840834 11.01523,4.9842284 11.014899,4.7750806 11.00071,4.7052106 10.928653,4.5579313 10.827714,4.3516184 10.617673,4.1465366 10.41174,4.0532209 10.302354,4.0036547 10.202782,3.9869013 10.015625,3.9865734 9.6262228,3.9858922 9.4969478,4.0602453 8.9468559,4.6012884 6.6323653,6.8777056 5.4091653,9.0272972 5.08073,11.395428 c -0.07498,0.540631 -0.1206419,1.493415 -0.1054022,2.199321 0.013044,0.604194 0.018454,0.651677 0.092734,0.813926 0.1968169,0.429905 0.5422275,0.638583 1.0068109,0.608262 0.145591,-0.0095 0.2688682,-0.04018 0.3800172,-0.09456 z m 3.9999997,0 c 0.197279,-0.09652 0.369645,-0.279017 0.469176,-0.496755 0.05614,-0.122813 0.07774,-0.239894 0.09294,-0.50375 0.03977,-0.690319 0.16466,-1.194301 0.423555,-1.709217 0.524106,-1.042395 1.513876,-1.870105 2.590687,-2.166501 0.163281,-0.04494 0.353125,-0.1052576 0.421875,-0.1340307 C 14.62665,9.8395033 14.833791,9.6415104 14.93202,9.4543817 15.004426,9.3164466 15.014757,9.259985 15.015162,9 15.01555,8.752315 15.003656,8.6788259 14.94339,8.5564747 14.727619,8.1184203 14.289222,7.9140972 13.776867,8.0127938 12.702346,8.2197816 11.560197,8.8672566 10.702589,9.7555769 9.6285209,10.868109 9.0589722,12.191881 9.0094672,13.690811 c -0.017797,0.538868 -0.01657,0.553682 0.059653,0.720176 0.1957116,0.42749 0.5421413,0.636208 1.0057528,0.60595 0.145591,-0.0095 0.268868,-0.04018 0.380017,-0.09456 z"
       id="path821"
       inkscape:connector-curvature="0" />
    <path
       style="fill:#fefefe;stroke-width:0.000357143"
       d="M 1.859375,14.997049 C 1.5304098,14.954831 1.2291656,14.727678 1.0831528,14.41174 1.0218887,14.279178 1.0146387,14.203303 1.0049913,13.59375 0.97279987,11.559773 1.2120397,9.1425931 1.6273185,7.3060119 2.149515,4.996585 3.016855,2.9576614 4.0851106,1.5282888 4.3052988,1.2336675 4.3483847,1.1928514 4.5438137,1.09375 4.7379241,0.99531722 4.7848341,0.9844145 5.0127103,0.98476978 c 0.2124922,3.3125e-4 0.2815331,0.0142529 0.4293585,0.0865771 0.2063128,0.1009395 0.4113946,0.3109798 0.5047103,0.5169134 0.049753,0.1097962 0.06621,0.208255 0.06621,0.3961147 0,0.3012618 -0.046338,0.4174903 -0.3176966,0.796875 -1.622965,2.2690575 -2.5319413,5.8850362 -2.6591043,10.578125 -0.02217,0.818212 -0.03085,0.920283 -0.089351,1.0507 -0.1861789,0.415055 -0.6166319,0.647398 -1.0874622,0.586974 z m 3.85783,-0.0064 C 5.4244541,14.90763 5.2073987,14.713027 5.0680622,14.408675 4.9937819,14.246426 4.9883719,14.198943 4.9753278,13.594749 4.9600881,12.888843 5.00575,11.936059 5.08073,11.395428 5.4091653,9.0272972 6.6323653,6.8777056 8.9468559,4.6012884 9.4969478,4.0602453 9.6262228,3.9858912 10.015625,3.9865734 c 0.187157,3.282e-4 0.286729,0.017081 0.396115,0.066648 0.205933,0.093316 0.415974,0.2983975 0.516913,0.5047103 0.07206,0.1472794 0.08625,0.2171494 0.08658,0.4262972 6.32e-4,0.399855 -0.05621,0.4903432 -0.737114,1.1733366 -2.0299663,2.0362103 -2.9853476,3.7445341 -3.214956,5.7486845 -0.018707,0.163281 -0.042054,0.760938 -0.051884,1.328125 -0.017078,0.985399 -0.021039,1.038364 -0.08911,1.19125 -0.1577909,0.354397 -0.4611556,0.56611 -0.8472925,0.591312 -0.1260931,0.0082 -0.2744809,-0.0027 -0.3576681,-0.02626 z m 4,0 C 9.4252347,14.907852 9.2073828,14.712992 9.0691203,14.410987 8.9928969,14.244493 8.99167,14.229679 9.0094672,13.690811 9.0589722,12.191881 9.6285209,10.868109 10.702589,9.7555769 11.560197,8.8672566 12.702346,8.2197816 13.776867,8.0127937 14.289222,7.9140977 14.727619,8.1184203 14.94339,8.5564747 15.00366,8.6788259 15.01555,8.752315 15.01516,9 c -4.06e-4,0.259985 -0.01074,0.3164466 -0.08314,0.4543797 -0.09823,0.1871287 -0.30537,0.3851219 -0.478897,0.4577465 -0.06875,0.028773 -0.258594,0.089087 -0.421875,0.1340308 -1.076811,0.296396 -2.066581,1.124106 -2.590687,2.1665 -0.258895,0.514917 -0.383785,1.018899 -0.423555,1.709218 -0.02261,0.392387 -0.08871,0.578106 -0.28184,0.791882 -0.230528,0.255167 -0.671627,0.375159 -1.017963,0.276916 z"
       id="path819"
       inkscape:connector-curvature="0" />
  </g>
</svg>
