<?xml version="1.0" encoding="UTF-8" standalone="no"?>
<!-- Created with Inkscape (http://www.inkscape.org/) -->

<svg
   version="1.1"
   id="svg2"
   width="1600"
   height="1600"
   viewBox="0 0 1600 1600"
   sodipodi:docname="straighten.svg"
   inkscape:version="1.2.2 (732a01da63, 2022-12-09)"
   xmlns:inkscape="http://www.inkscape.org/namespaces/inkscape"
   xmlns:sodipodi="http://sodipodi.sourceforge.net/DTD/sodipodi-0.dtd"
   xmlns="http://www.w3.org/2000/svg"
   xmlns:svg="http://www.w3.org/2000/svg"
   xmlns:rdf="http://www.w3.org/1999/02/22-rdf-syntax-ns#"
   xmlns:cc="http://creativecommons.org/ns#"
   xmlns:dc="http://purl.org/dc/elements/1.1/">
  <metadata
     id="metadata8">
    <rdf:RDF>
      <cc:Work
         rdf:about="">
        <dc:format>image/svg+xml</dc:format>
        <dc:type
           rdf:resource="http://purl.org/dc/dcmitype/StillImage" />
      </cc:Work>
    </rdf:RDF>
  </metadata>
  <defs
     id="defs6" />
  <sodipodi:namedview
     pagecolor="#808080"
     bordercolor="#666666"
     borderopacity="1"
     objecttolerance="10"
     gridtolerance="10"
     guidetolerance="10"
     inkscape:pageopacity="0"
     inkscape:pageshadow="2"
     inkscape:window-width="1993"
     inkscape:window-height="1009"
     id="namedview4"
     showgrid="false"
     inkscape:zoom="0.5"
     inkscape:cx="277"
     inkscape:cy="352"
     inkscape:window-x="-8"
     inkscape:window-y="-8"
     inkscape:window-maximized="1"
     inkscape:current-layer="STRAIGHTEN"
     inkscape:showpageshadow="0"
     inkscape:pagecheckerboard="true"
     inkscape:deskcolor="#d1d1d1" />
  <g
     id="STRAIGHTEN"
     transform="matrix(100,0,0,100,0,4.9999997e-5)"
     style="stroke-width:0.0114286">
    <path
       style="fill:none;stroke-width:0.000357143"
       d="M 0,14 V 12 H 0.5 1 V 8 4 H 0.5 0 V 2 0 H 2 4 V 0.5 1 h 4 4 V 0.5 0 h 2 2 V 2 4 H 15.5 15 v 4 4 h 0.5 0.5 v 2 2 H 14 12 V 15.5 15 H 8 4 V 15.5 16 H 2 0 Z m 8.2588163,0.549999 c 0.1290984,-0.05617 2.2274687,-2.161579 2.2709757,-2.278596 0.04217,-0.113432 0.04191,-0.336727 -5.31e-4,-0.449056 -0.04725,-0.125069 -0.180645,-0.258241 -0.326137,-0.325601 -0.110428,-0.05113 -0.2115246,-0.05795 -0.8671877,-0.05856 L 8.59375,11.4375 V 10.020338 8.6031766 L 8.8984375,8.583 C 9.0660156,8.5719028 9.7058594,8.5627506 10.320313,8.5626616 L 11.4375,8.5625 v 0.7792156 c 0,0.4745753 0.013,0.8136094 0.03324,0.8671874 0.04523,0.119716 0.180087,0.258538 0.301696,0.310571 0.119357,0.05107 0.344739,0.05604 0.467719,0.01032 C 12.357188,10.486284 14.493816,8.3567013 14.55,8.2275673 14.6017,8.1087319 14.60702,7.8835098 14.56104,7.7598479 14.51753,7.6428307 12.419163,5.5374194 12.290064,5.4812516 12.170726,5.4293306 11.94535,5.4242646 11.822345,5.4707396 c -0.125069,0.047254 -0.258241,0.180645 -0.325601,0.3261369 -0.05113,0.1104275 -0.05795,0.2115244 -0.05856,0.8671875 L 11.4375,7.40625 H 10.020338 8.6031766 L 8.583,7.1015625 C 8.5719028,6.9339844 8.5627506,6.2941406 8.5626616,5.6796875 L 8.5625,4.5625 h 0.7792156 c 0.4745753,0 0.8136094,-0.012995 0.8671874,-0.033238 0.119716,-0.045232 0.258538,-0.1800869 0.310571,-0.3016956 0.05107,-0.1193575 0.05604,-0.3447391 0.01032,-0.4677194 -0.04351,-0.1170328 -2.1730927,-2.2536611 -2.3022267,-2.3098453 -0.128841,-0.056057 -0.35754,-0.056057 -0.4863826,-9e-7 -0.1290984,0.056168 -2.2274687,2.161579 -2.2709756,2.2785962 -0.042174,0.1134325 -0.041911,0.3367275 5.313e-4,0.4490562 0.047254,0.1250691 0.180645,0.2582407 0.3261369,0.3256013 0.1104275,0.051126 0.2115243,0.057953 0.8671875,0.058559 L 7.40625,4.5625 V 5.984375 7.40625 H 5.984375 4.5625 V 6.6396212 C 4.5625,5.8054425 4.551975,5.7424925 4.3866613,5.5879256 4.3372787,5.5417534 4.2572878,5.4890191 4.2089031,5.4707381 4.096575,5.4282975 3.8732803,5.4280338 3.7598469,5.4702069 3.6428141,5.5137188 1.5061858,7.6432994 1.4500016,7.7724334 1.3982982,7.8912687 1.3929804,8.1164909 1.438958,8.2401528 1.4824651,8.35717 3.5808353,10.462581 3.7099338,10.518749 c 0.1193387,0.05192 0.3447146,0.05699 0.4677193,0.01051 0.1250691,-0.04725 0.2582407,-0.180645 0.3256013,-0.326137 0.051126,-0.110428 0.057953,-0.2115247 0.058559,-0.8671878 L 4.5625,8.59375 H 5.984375 7.40625 V 10.015625 11.4375 H 6.6396212 c -0.8341787,0 -0.8971287,0.01052 -1.0516956,0.175839 -0.046172,0.04938 -0.098907,0.129373 -0.1171875,0.177758 -0.042441,0.112328 -0.042704,0.335623 -5.312e-4,0.449056 0.041381,0.111301 2.1690969,2.251217 2.2954178,2.308579 0.1226687,0.0557 0.3666312,0.05633 0.4931912,0.0013 z"
       id="path821"
       inkscape:connector-curvature="0" />
    <path
       style="fill:#fefefe;stroke-width:0.000357143"
       d="M 4,15.5 V 15 h 4 4 V 15.5 16 H 8 4 Z M 7.765625,14.548732 C 7.6393041,14.49137 5.5115881,12.351454 5.4702072,12.240153 5.4280337,12.12672 5.4282975,11.903425 5.4707384,11.791097 5.4890194,11.742712 5.5417537,11.662721 5.5879259,11.613339 5.7424925,11.448025 5.8054425,11.4375 6.6396212,11.4375 H 7.40625 V 10.015625 8.59375 H 5.984375 4.5625 l -6.875e-4,0.7421875 c -6.062e-4,0.6556631 -0.00743,0.7567605 -0.058559,0.8671875 -0.067361,0.145492 -0.2005322,0.278883 -0.3256012,0.326137 -0.1230047,0.04647 -0.3483806,0.04141 -0.4677194,-0.01051 C 3.5808341,10.462582 1.4824639,8.3571703 1.4389568,8.2401531 1.3929791,8.1164912 1.398297,7.8912691 1.4500003,7.7724337 1.5061846,7.6432997 3.6428128,5.5137191 3.7598456,5.4702072 3.8732791,5.4280337 4.0965737,5.4282975 4.2089019,5.4707384 4.2572866,5.4890194 4.3372775,5.5417537 4.38666,5.5879259 4.551975,5.7424925 4.5625,5.8054425 4.5625,6.6396212 V 7.40625 H 5.984375 7.40625 V 5.984375 4.5625 L 6.6640625,4.5618125 C 6.0083994,4.5612063 5.9073025,4.5543794 5.796875,4.5032531 5.6513831,4.4358925 5.5179925,4.3027209 5.4707381,4.1776519 5.4282972,4.0653231 5.4280338,3.8420281 5.4702069,3.7285956 5.5137138,3.6115784 7.6120841,1.5061671 7.7411825,1.4499994 c 0.1288425,-0.056056 0.3575416,-0.056056 0.4863825,9e-7 0.1291341,0.056184 2.258715,2.1928125 2.302227,2.3098453 0.04572,0.1229803 0.04075,0.3483619 -0.01032,0.4677194 -0.05203,0.1216087 -0.190854,0.2564641 -0.31057,0.3016956 C 10.155325,4.5495053 9.8162909,4.5625 9.3417156,4.5625 H 8.5625 l 1.563e-4,1.1171875 c 9.37e-5,0.6144531 0.00924,1.2542969 0.020338,1.421875 L 8.6031712,7.40625 h 1.4171618 1.417162 l 6.87e-4,-0.7421875 c 6.06e-4,-0.6556631 0.0074,-0.75676 0.05856,-0.8671875 0.06736,-0.1454919 0.200532,-0.2788825 0.325601,-0.3261369 0.123004,-0.046474 0.34838,-0.041409 0.467719,0.010512 0.129099,0.056168 2.227469,2.1615791 2.270976,2.2785963 0.04598,0.1236619 0.04066,0.348884 -0.01104,0.4677194 -0.05618,0.129134 -2.192812,2.2587152 -2.309845,2.3022272 -0.12298,0.04572 -0.348362,0.04075 -0.467719,-0.01032 C 11.650825,10.467443 11.51597,10.328618 11.470738,10.208902 11.450495,10.155325 11.4375,9.8162909 11.4375,9.3417156 V 8.5625 l -1.117187,1.563e-4 C 9.7058594,8.56275 9.0660156,8.5718975 8.8984375,8.5829947 L 8.59375,8.6031712 v 1.4171618 1.417162 l 0.7421875,6.87e-4 c 0.6556631,6.06e-4 0.7567605,0.0074 0.8671875,0.05856 0.145492,0.06736 0.278883,0.200532 0.326137,0.325601 0.04244,0.112329 0.0427,0.335624 5.31e-4,0.449056 -0.04351,0.117017 -2.1418771,2.222428 -2.2709755,2.278596 -0.12656,0.05506 -0.3705225,0.05444 -0.4931913,-0.0013 z M 0,8 V 4 H 0.5 1 v 4 4 H 0.5 0 Z M 15,8 V 4 h 0.5 0.5 v 4 4 H 15.5 15 Z M 4,0.5 V 0 h 4 4 V 0.5 1 H 8 4 Z"
       id="path819"
       inkscape:connector-curvature="0" />
  </g>
</svg>
