<?xml version="1.0" encoding="UTF-8" standalone="no"?>
<!-- Created with Inkscape (http://www.inkscape.org/) -->

<svg
   version="1.1"
   id="svg2"
   width="1600"
   height="1600"
   viewBox="0 0 1600 1600"
   sodipodi:docname="straighten_x.svg"
   inkscape:version="1.2.2 (732a01da63, 2022-12-09)"
   xmlns:inkscape="http://www.inkscape.org/namespaces/inkscape"
   xmlns:sodipodi="http://sodipodi.sourceforge.net/DTD/sodipodi-0.dtd"
   xmlns="http://www.w3.org/2000/svg"
   xmlns:svg="http://www.w3.org/2000/svg"
   xmlns:rdf="http://www.w3.org/1999/02/22-rdf-syntax-ns#"
   xmlns:cc="http://creativecommons.org/ns#"
   xmlns:dc="http://purl.org/dc/elements/1.1/">
  <metadata
     id="metadata8">
    <rdf:RDF>
      <cc:Work
         rdf:about="">
        <dc:format>image/svg+xml</dc:format>
        <dc:type
           rdf:resource="http://purl.org/dc/dcmitype/StillImage" />
      </cc:Work>
    </rdf:RDF>
  </metadata>
  <defs
     id="defs6" />
  <sodipodi:namedview
     pagecolor="#808080"
     bordercolor="#666666"
     borderopacity="1"
     objecttolerance="10"
     gridtolerance="10"
     guidetolerance="10"
     inkscape:pageopacity="0"
     inkscape:pageshadow="2"
     inkscape:window-width="1993"
     inkscape:window-height="1009"
     id="namedview4"
     showgrid="false"
     inkscape:zoom="0.5"
     inkscape:cx="9"
     inkscape:cy="8"
     inkscape:window-x="-8"
     inkscape:window-y="-8"
     inkscape:window-maximized="1"
     inkscape:current-layer="STRAIGHTEN_X"
     inkscape:showpageshadow="0"
     inkscape:pagecheckerboard="true"
     inkscape:deskcolor="#d1d1d1" />
  <g
     id="STRAIGHTEN_X"
     transform="matrix(100,0,0,100,0,4.9999997e-5)"
     style="stroke-width:0.0114286">
    <path
       style="fill:none;stroke-width:0.000357143"
       d="M 0,14 V 12 H 0.5 1 V 8 4 H 0.5 0 V 2 0 h 8 8 V 2 4 H 15.5 15 v 4 4 h 0.5 0.5 v 2 2 H 8 0 Z m 4.1776531,-3.470738 c 0.1250691,-0.04725 0.2582406,-0.180645 0.3256013,-0.326137 0.051126,-0.110427 0.057953,-0.2115244 0.058559,-0.8671875 L 4.5625,8.59375 H 8 11.4375 v 0.7666288 c 0,0.8341792 0.01052,0.8971292 0.175839,1.0516952 0.04938,0.04617 0.129373,0.09891 0.177758,0.117188 0.123005,0.04648 0.348381,0.04141 0.467719,-0.01051 0.129134,-0.05618 2.258715,-2.1928121 2.302227,-2.3098449 0.04197,-0.1128784 0.04197,-0.3361797 -10e-7,-0.4490562 -0.04351,-0.1170172 -2.141877,-2.2224285 -2.270976,-2.2785963 -0.119338,-0.051921 -0.344714,-0.056987 -0.467719,-0.010512 -0.125069,0.047254 -0.258241,0.180645 -0.325601,0.3261369 -0.05113,0.1104275 -0.05795,0.2115244 -0.05856,0.8671875 L 11.4375,7.40625 H 9.8332734 c -0.8823246,0 -2.4291997,0.00934 -3.4375,0.020746 L 4.5625,7.4477409 V 6.663405 C 4.5625,6.1852116 4.5495266,5.8447316 4.5292619,5.7910969 4.4840303,5.6713812 4.349175,5.5325591 4.2275663,5.4805263 4.0980894,5.4251269 3.8693975,5.4254678 3.7411838,5.4812513 3.6120497,5.5374356 1.4824689,7.6740637 1.4389572,7.7910966 c -0.041967,0.1128784 -0.041967,0.3361797 8e-7,0.4490562 0.041385,0.11131 2.1378645,2.2199772 2.264167,2.2773302 0.1132309,0.05142 0.3538125,0.05739 0.4745281,0.01178 z"
       id="path821"
       inkscape:connector-curvature="0" />
    <path
       style="fill:#fefefe;stroke-width:0.000357143"
       d="M 0,8 V 4 H 0.5 1 v 4 4 H 0.5 0 Z M 15,8 V 4 h 0.5 0.5 v 4 4 H 15.5 15 Z M 3.703125,10.517483 C 3.5768225,10.46013 1.4803432,8.3514631 1.438958,8.2401531 1.3969904,8.1272766 1.3969899,7.9039753 1.4389572,7.7910969 1.4824689,7.6740641 3.6120497,5.5374359 3.7411837,5.4812516 3.8693975,5.4254678 4.0980894,5.4251269 4.2275662,5.4805266 4.349175,5.5325594 4.4840303,5.6713816 4.5292619,5.7910972 4.5495266,5.8447319 4.5625,6.1852119 4.5625,6.6634053 V 7.4477412 L 6.3957734,7.4269959 C 7.4040737,7.4155853 8.9509488,7.40625 9.8332734,7.40625 H 11.4375 l 6.88e-4,-0.7421875 c 6.06e-4,-0.6556631 0.0074,-0.75676 0.05856,-0.8671875 0.06736,-0.1454919 0.200532,-0.2788825 0.325601,-0.3261369 0.123005,-0.046474 0.348381,-0.041409 0.467719,0.010512 0.129099,0.056168 2.227469,2.1615791 2.270976,2.2785963 0.04197,0.1128765 0.04197,0.3361778 10e-7,0.4490562 -0.04351,0.1170328 -2.173092,2.2536614 -2.302227,2.3098454 -0.119338,0.05192 -0.344714,0.05699 -0.467719,0.01051 -0.04838,-0.01828 -0.128376,-0.07101 -0.177758,-0.117189 C 11.448025,10.257507 11.4375,10.194558 11.4375,9.3603788 V 8.59375 H 8 4.5625 l -6.875e-4,0.7421875 c -6.062e-4,0.6556631 -0.00743,0.7567605 -0.058559,0.8671875 -0.067361,0.145492 -0.2005322,0.278883 -0.3256012,0.326137 -0.1207156,0.04561 -0.3612972,0.03964 -0.4745281,-0.01178 z"
       id="path819"
       inkscape:connector-curvature="0" />
  </g>
</svg>
