<?xml version="1.0" encoding="UTF-8" standalone="no"?>
<!-- Created with Inkscape (http://www.inkscape.org/) -->

<svg
   version="1.1"
   id="svg2"
   width="1600"
   height="1600"
   viewBox="0 0 1600 1600"
   sodipodi:docname="string_to_image.svg"
   inkscape:version="1.4.3 (0d15f75, 2025-12-25)"
   xml:space="preserve"
   xmlns:inkscape="http://www.inkscape.org/namespaces/inkscape"
   xmlns:sodipodi="http://sodipodi.sourceforge.net/DTD/sodipodi-0.dtd"
   xmlns="http://www.w3.org/2000/svg"
   xmlns:svg="http://www.w3.org/2000/svg"
   xmlns:rdf="http://www.w3.org/1999/02/22-rdf-syntax-ns#"
   xmlns:cc="http://creativecommons.org/ns#"
   xmlns:dc="http://purl.org/dc/elements/1.1/"><metadata
     id="metadata8"><rdf:RDF><cc:Work
         rdf:about=""><dc:format>image/svg+xml</dc:format><dc:type
           rdf:resource="http://purl.org/dc/dcmitype/StillImage" /></cc:Work></rdf:RDF></metadata><defs
     id="defs6" /><sodipodi:namedview
     pagecolor="#808080"
     bordercolor="#666666"
     borderopacity="1"
     objecttolerance="10"
     gridtolerance="10"
     guidetolerance="10"
     inkscape:pageopacity="0"
     inkscape:pageshadow="2"
     inkscape:window-width="2560"
     inkscape:window-height="1009"
     id="namedview4"
     showgrid="false"
     inkscape:zoom="0.35355339"
     inkscape:cx="960.25101"
     inkscape:cy="780.64589"
     inkscape:window-x="1912"
     inkscape:window-y="-8"
     inkscape:window-maximized="1"
     inkscape:current-layer="STRING_LENGTH"
     inkscape:showpageshadow="0"
     inkscape:pagecheckerboard="true"
     inkscape:deskcolor="#d1d1d1" /><g
     id="STRING_LENGTH"
     transform="matrix(100,0,0,100,0,4.9999997e-5)"
     style="stroke-width:0.0114286"><g
       id="IMAGE_REFERENCE"
       style="stroke-width:0.0114286"
       transform="translate(0.502689,2.4915645)"><path
         style="fill:#333333;fill-opacity:1;stroke-width:0.000386741"
         d="M 2.5028097,6.601243 V 0.50230477 H 9.0000601 15.497311 V 6.9995552 13.496805 H 9.3974702 L 2.507131,13.508435 C 2.497151,11.206065 2.502811,8.9036328 2.502811,6.6012421 Z"
         id="path833-3"
         inkscape:connector-curvature="0"
         sodipodi:nodetypes="ccccccccc" /><path
         style="fill:#fefefe;stroke-width:0.000357143"
         d="M 3,6.6321716 V 1 h 6 6 v 6 6 H 9.3669953 L 3.0039906,13.01074 C 2.9947662,10.884577 3,8.7583546 3,6.6321716 Z M 14,7 V 2 H 9 4 v 1.490625 c 0,0.8310334 0.011859,1.4774884 0.026801,1.4609375 0.014741,-0.016328 0.2208075,-0.2731184 0.4579263,-0.5706453 0.3464084,-0.4346591 0.4385497,-0.5329097 0.4689097,-0.5 0.020782,0.022527 0.3129265,0.5008306 0.6492106,1.0628975 l 0.6114256,1.02194 -0.6106047,0.39057 L 4.9930637,6.746895 4.4965319,6.4982634 4,6.2496319 V 9.1248159 12 h 5 5 z"
         id="path833"
         inkscape:connector-curvature="0"
         sodipodi:nodetypes="cccccccccccccssssscccccccccc" /><path
         style="fill:#75b6fe;stroke-width:0.000357143"
         d="m 13.366977,11.820313 c -0.05762,-0.09883 -0.833683,-1.45586 -1.72458,-3.0156255 C 10.7515,7.2449219 10.005251,5.96875 9.9840669,5.96875 9.9628825,5.96875 9.6040634,6.5670437 9.1866916,7.2982916 8.7693194,8.0295397 8.4179006,8.6166491 8.4057606,8.6029791 8.3936203,8.5893094 7.6273206,7.3160156 6.7028722,5.7734375 5.7784237,4.2308594 5.0055816,2.96875 4.985445,2.96875 4.9653087,2.96875 4.7411481,3.2289063 4.4873106,3.546875 4.2334731,3.8648438 4.0199856,4.125 4.0128941,4.125 4.0058022,4.125 4,3.646875 4,3.0625 V 2 h 5 5 v 5 5 H 13.735872 13.471744 Z M 12.477548,5.4350687 C 12.725341,5.3522731 12.926424,5.2238216 13.099484,5.0377778 13.385043,4.730795 13.5,4.4329303 13.5,4 13.5,3.5670697 13.385043,3.269205 13.099484,2.9622222 12.807863,2.6487223 12.454098,2.5 12,2.5 11.545902,2.5 11.192137,2.6487223 10.900516,2.9622222 10.614957,3.269205 10.5,3.5670697 10.5,4 c 0,0.6710934 0.373877,1.2059491 0.99667,1.4258009 0.27892,0.098462 0.701975,0.1024591 0.980878,0.00927 z"
         id="path831"
         inkscape:connector-curvature="0" /><path
         style="fill:#fdfe00;stroke-width:0.000357143"
         d="M 11.687668,4.94977 C 10.97962,4.6924953 10.772887,3.8193719 11.296129,3.2961294 11.501453,3.0908059 11.687262,3.017164 12,3.017164 c 0.312738,0 0.498547,0.073642 0.703871,0.2789654 C 12.909194,3.5014528 12.982836,3.6872622 12.982836,4 c 0,0.3127378 -0.07364,0.4985472 -0.278965,0.7038706 -0.256764,0.2567635 -0.694675,0.3627288 -1.016203,0.2458994 z"
         id="path829"
         inkscape:connector-curvature="0" /><path
         style="fill:#fec100;stroke-width:0.000357143"
         d="M 11.49667,5.4258009 C 10.873877,5.2059491 10.5,4.6710934 10.5,4 10.5,3.5670697 10.614957,3.269205 10.900516,2.9622222 11.192137,2.6487223 11.545902,2.5 12,2.5 c 0.454098,0 0.807863,0.1487223 1.099484,0.4622222 C 13.385043,3.269205 13.5,3.5670697 13.5,4 c 0,0.4329303 -0.114957,0.730795 -0.400516,1.0377778 -0.29386,0.3159066 -0.645491,0.4626103 -1.106311,0.4615631 -0.222725,-5.062e-4 -0.337968,-0.017576 -0.496503,-0.07354 z m 0.925205,-0.5220378 c 0.197682,-0.093808 0.385878,-0.2810475 0.484351,-0.4818881 0.109995,-0.22434 0.109995,-0.61941 0,-0.84375 -0.09768,-0.1992259 -0.285125,-0.38667 -0.484351,-0.4843511 -0.22434,-0.1099947 -0.61941,-0.1099947 -0.84375,0 -0.812326,0.3982861 -0.744608,1.5456339 0.109543,1.8559961 0.197215,0.071659 0.53022,0.050793 0.734207,-0.046007 z"
         id="path827"
         inkscape:connector-curvature="0" /><path
         style="fill:#7f7f7f;stroke-width:0.000357143"
         d="M 4,9.3907841 V 6.7808587 l 0.4683594,0.2345707 c 0.4802981,0.24055 0.5484712,0.2608559 0.6665075,0.1985268 0.053987,-0.028508 0.9463784,-0.5936559 1.258789,-0.7971859 0.063163,-0.04115 0.095652,0.00752 0.8993066,1.3472866 L 8.1267384,9.1540356 7.3176047,10.569205 6.5084709,11.984375 5.2542356,11.992542 4,12.000709 Z"
         id="path825-1"
         inkscape:connector-curvature="0" /><path
         style="fill:#3c983c;stroke-width:0.000357143"
         d="M 8.5126172,9.5234375 C 9.2906488,8.1613281 9.9400797,7.0240447 9.9557975,6.9961409 9.9777384,6.9571891 10.319502,7.5323322 11.427432,9.4727034 L 12.870488,12 H 9.9842513 7.098015 Z"
         id="path823"
         inkscape:connector-curvature="0" /><path
         style="fill:#1e4c1e;stroke-width:0.000357143"
         d="m 6.5369412,11.930872 c 0.025125,-0.03932 0.8028182,-1.397478 1.7282072,-3.0181211 1.0704694,-1.8747231 1.6978316,-2.943305 1.7246007,-2.9375 0.023141,0.00502 0.8134369,1.3591241 1.7562129,3.0091241 l 1.714139,3 -0.26664,0.0091 c -0.146652,0.005 -0.282571,0.003 -0.302042,-0.0045 -0.01947,-0.0075 -0.681486,-1.144603 -1.471143,-2.5269574 l -1.435741,-2.5133719 -1.4385884,2.51785 -1.4385882,2.5178503 -0.3080493,0.009 -0.3080491,0.009 z"
         id="path821-2"
         inkscape:connector-curvature="0" /><path
         style="fill:#000000;stroke-width:0.000357143"
         d="M 7.2841391,7.7494972 C 6.4888416,6.4232341 6.4569666,6.3755237 6.39372,6.4167281 6.0813112,6.6202584 5.1888603,7.185445 5.1348669,7.2139563 5.0168306,7.2762853 4.9486575,7.2559794 4.4683594,7.0154294 L 4,6.7808587 V 6.5152453 6.2496319 L 4.4965319,6.4982634 4.9930637,6.746895 5.6036684,6.3563247 6.2142731,5.9657547 5.6028475,4.9438147 C 5.2665634,4.3817478 4.9742725,3.9032978 4.9533122,3.8805925 4.9225275,3.8472447 4.8287512,3.947645 4.4654137,4.4029534 L 4.015625,4.9665969 4.0069106,4.5621531 3.9981959,4.1577091 4.4738731,3.5632297 C 4.7354956,3.2362659 4.9658644,2.96875 4.9858034,2.96875 c 0.030709,0 3.3542825,5.4976534 3.4076513,5.6367303 C 8.4105581,8.6500516 8.166405,9.125 8.1263891,9.125 c -0.00958,0 -0.3885966,-0.6189762 -0.84225,-1.3755028 z"
         id="path819"
         inkscape:connector-curvature="0" /></g><path
       id="path821-4-6"
       style="fill:#333333;stroke:#333333;stroke-width:1;stroke-dasharray:none;stroke-opacity:1"
       d="M 8.741497,7.6721998 C 8.401777,7.6044698 8.101644,7.4311148 7.827434,7.1442448 l -0.164062,-0.17164 v 0.303181 0.303182 H 6.960247 6.257122 V 4.5320925 1.4852173 h 0.703125 0.703125 v 1.1781809 1.1781813 l 0.165515,-0.17364 c 0.337174,-0.353722 0.688002,-0.518927 1.16261,-0.547469 1.275875,-0.07673 2.138798,1.164425 1.919557,2.760923 -0.1235,0.8993103 -0.681853,1.6035643 -1.406841,1.7744563 -0.212764,0.05015 -0.556236,0.05752 -0.762716,0.01635 z m 0.25,-1.08543 c 0.331434,-0.171228 0.514539,-0.5910303 0.514539,-1.1796773 0,-0.437192 -0.114121,-0.818648 -0.30704,-1.026299 -0.267596,-0.288032 -0.848085,-0.316115 -1.161675,-0.0562 -0.49828,0.412994 -0.49828,1.752141 0,2.1649543 0.06073,0.05032 0.173707,0.111975 0.251051,0.13702 0.19457,0.063 0.542231,0.04332 0.703125,-0.0398 z m 4.655377,1.086869 c -1.013613,-0.144555 -1.678099,-0.680253 -1.927297,-1.5537563 -0.100705,-0.352998 -0.100705,-1.072583 0,-1.425582 0.222961,-0.781536 0.768202,-1.28463 1.621879,-1.496508 0.226864,-0.05631 0.368099,-0.06851 0.806292,-0.06964 0.534316,-0.0014 0.775223,0.02976 1.195353,0.154525 l 0.164022,0.04871 v 0.576104 0.576103 l -0.160313,-0.09452 c -0.08817,-0.05199 -0.267469,-0.132021 -0.398437,-0.177851 -0.205123,-0.07178 -0.287931,-0.08327 -0.5975,-0.08294 -0.299062,3.22e-4 -0.389278,0.01223 -0.537551,0.07097 -0.451596,0.178891 -0.712449,0.621129 -0.712449,1.207846 0,0.586718 0.260853,1.0289553 0.712449,1.2078473 0.147542,0.05845 0.239963,0.07081 0.537551,0.07191 0.415492,0.0015 0.676627,-0.06396 0.976563,-0.244911 l 0.179687,-0.108419 v 0.574973 0.574972 l -0.164692,0.04788 c -0.484374,0.140812 -1.2534,0.205348 -1.695557,0.142291 z M 1.6789966,7.6714948 C 1.2000409,7.5733148 0.8194767,7.2909808 0.6412021,6.9015768 0.3935503,6.3606348 0.5144166,5.6104165 0.90454401,5.2670125 1.2906022,4.9271905 1.8568881,4.7984735 2.9680591,4.7979735 l 0.5703125,-2.56e-4 -6.88e-4,-0.117187 C 3.5366555,4.5047895 3.4363245,4.3137955 3.296393,4.2211915 2.8762854,3.9431775 1.6862358,4.0137585 1.0143331,4.3565375 l -0.132212,0.06745 v -0.530417 -0.530416 l 0.11718751,-0.03282 c 0.21924629,-0.06141 0.77246749,-0.156352 1.09706109,-0.188281 1.3391314,-0.131726 2.2526189,0.149883 2.6067467,0.803606 0.047641,0.08795 0.1172781,0.269935 0.1547485,0.404419 0.064778,0.232493 0.06868,0.317888 0.079361,1.736704 l 0.011233,1.4921873 H 4.2434152 3.5383711 v -0.298406 -0.298403 l -0.2120644,0.21503 c -0.2443562,0.247774 -0.5013275,0.389236 -0.8348106,0.459562 -0.2348311,0.04952 -0.6096634,0.05632 -0.8125,0.01474 z M 2.9984402,6.6777018 C 3.3249804,6.5097378 3.5043688,6.2340725 3.5312047,5.8590065 l 0.015565,-0.217539 -0.4807612,4.88e-4 c -0.6730312,6.84e-4 -0.9000063,0.06165 -1.0682045,0.286935 -0.075543,0.101182 -0.1026829,0.328213 -0.056106,0.4693413 0.045051,0.136505 0.1725479,0.259512 0.3319797,0.320287 0.1789107,0.0682 0.5538775,0.04708 0.724763,-0.04082 z" /><path
       style="fill:none;stroke-width:0.000357143"
       d="M 0,8 V 0 h 8 8 v 8 8 H 8 0 Z m 2,6 v -1 h 6 6 v 1 1 H 14.5 15 V 12.5 10 H 14.5 14 v 1 1 H 8 2 V 11 10 H 1.5 1 V 12.5 15 H 1.5 2 Z M 2.578125,7.6402837 C 2.9116081,7.5699572 3.1685794,7.4284947 3.4129356,7.1807209 L 3.625,6.9656906 V 7.2640953 7.5625 H 4.3300441 5.0350878 L 5.0238547,6.0703125 C 5.0131741,4.6514972 5.0092719,4.5661019 4.9444937,4.3336087 4.7396034,3.5982431 4.26438,3.2422881 3.3313091,3.1252909 2.7354844,3.0505809 1.7221003,3.1356888 1.0859375,3.3138656 L 0.96875,3.3466878 V 3.8771041 4.4075203 L 1.1009632,4.34007 C 1.7728659,3.9972909 2.9629156,3.9267113 3.3830231,4.204725 3.5229547,4.2973275 3.6232844,4.4883222 3.6243137,4.6640625 L 3.625,4.78125 3.0546875,4.7815 C 1.9435165,4.782 1.3772306,4.9107169 0.99117241,5.2505391 0.69817975,5.5084416 0.54600497,6.0049731 0.61441819,6.4798519 0.70310116,7.09543 1.1220427,7.5230922 1.765625,7.6550219 c 0.2028366,0.04158 0.5776689,0.034778 0.8125,-0.014744 z M 2.3603056,6.7020516 C 1.9458397,6.5440578 1.8716519,6.0356875 2.2246054,5.7721697 2.3619068,5.6696594 2.6380652,5.6260106 3.1526366,5.6254881 L 3.6333978,5.625 3.6178331,5.8425403 C 3.5909972,6.217605 3.4116088,6.49327 3.0850686,6.6612353 c -0.1708855,0.0879 -0.5458523,0.1090169 -0.724763,0.040816 z m 7.230536,0.9373303 C 10.315828,7.4684903 10.874181,6.7642356 10.997681,5.8649262 11.124113,4.9442612 10.888294,4.0967306 10.361397,3.578125 10.005439,3.2277684 9.5875369,3.0733693 9.078125,3.1040044 8.6035175,3.1325463 8.2526894,3.29775 7.9155156,3.6514725 L 7.75,3.8251119 V 2.646931 1.46875 H 7.046875 6.34375 V 4.515625 7.5625 H 7.046875 7.75 V 7.2593191 6.9561381 l 0.1640625,0.1716385 c 0.456505,0.4775859 1.0512563,0.6590515 1.6767791,0.5116053 z M 8.375,6.6101012 C 8.2976562,6.5850572 8.1846834,6.5233987 8.1239494,6.4730819 c -0.4982803,-0.4128128 -0.4982803,-1.7519603 0,-2.1649541 0.3135903,-0.2599156 0.8940787,-0.2318334 1.161675,0.056198 0.1929194,0.2076516 0.3070403,0.5891072 0.3070403,1.0262994 0,0.5886466 -0.1831053,1.0084497 -0.5145397,1.1796772 C 8.9172309,6.6534241 8.56957,6.6731028 8.375,6.6101012 Z m 6.671246,1.0002147 c 0.119967,-0.026156 0.292232,-0.069102 0.382812,-0.095435 L 15.59375,7.4670041 V 6.8920319 6.3170597 l -0.179687,0.1084056 c -0.299936,0.1809513 -0.561071,0.2464409 -0.976563,0.2449113 -0.430564,-0.00158 -0.630402,-0.065771 -0.866963,-0.2784604 -0.514955,-0.4629884 -0.514955,-1.539594 0,-2.0025825 0.237226,-0.2132865 0.436451,-0.2770606 0.866963,-0.277524 0.309569,-3.344e-4 0.392377,0.011162 0.5975,0.082942 0.130968,0.045831 0.310265,0.1258646 0.398437,0.1778528 l 0.160313,0.094524 V 3.8910247 3.3149212 l -0.164022,-0.048709 c -0.42013,-0.1247656 -0.661037,-0.1559078 -1.195353,-0.154525 -0.438193,0.00113 -0.579428,0.013333 -0.806292,0.069639 -0.853677,0.2118779 -1.398918,0.7149722 -1.621879,1.4965075 -0.100705,0.3529988 -0.100705,1.0725838 0,1.4255825 0.249198,0.8735032 0.913684,1.409201 1.927297,1.5537554 0.265544,0.03787 1.053076,0.00976 1.312745,-0.046856 z"
       id="path825"
       inkscape:connector-curvature="0" /><path
       style="fill:#fefcfe;stroke-width:0.000357143"
       d="M 1.6692684,7.6750281 C 1.1903127,7.5768456 0.80974847,7.2945131 0.63147394,6.9051103 0.38382207,6.3641672 0.50468838,5.6139491 0.89481582,5.2705453 1.280874,4.9307231 1.8471599,4.8020059 2.9583309,4.8015062 L 3.5286434,4.80125 3.5279559,4.6840625 C 3.5269278,4.5083222 3.4265968,4.3173275 3.2866653,4.224725 2.8665577,3.9467113 1.6765081,4.0172909 1.0046054,4.36007 l -0.13221199,0.06745 V 3.8971041 3.3666878 l 0.1171875,-0.032822 C 1.2088272,3.2724591 1.7620484,3.1775131 2.086642,3.1455838 3.4257734,3.0138577 4.3392609,3.2954672 4.6933887,3.9491903 c 0.047641,0.087946 0.1172781,0.2699344 0.1547485,0.4044185 0.064778,0.2324931 0.06868,0.3178884 0.079361,1.7367037 L 4.9387312,7.5825 H 4.2336875 3.5286434 V 7.2840953 6.9856906 L 3.316579,7.2007209 C 3.0722228,7.4484947 2.8152515,7.5899572 2.4817684,7.6602838 2.2469373,7.7098059 1.872105,7.7166081 1.6692684,7.6750281 Z M 2.988712,6.6812353 C 3.3152522,6.51327 3.4946406,6.237605 3.5214765,5.8625403 L 3.5370412,5.645 3.05628,5.6454875 c -0.6730312,6.844e-4 -0.9000063,0.061652 -1.0682045,0.2869353 -0.075543,0.1011819 -0.1026829,0.3282128 -0.056106,0.4693416 0.045051,0.136505 0.1725479,0.2595115 0.3319797,0.3202865 0.1789107,0.068201 0.5538775,0.047084 0.7247628,-0.040816 z M 8.7317684,7.6757316 C 8.392049,7.6080034 8.0919153,7.4346484 7.8177059,7.1477766 L 7.6536434,6.9761381 V 7.2793191 7.5825 H 6.9505184 6.2473934 V 4.535625 1.48875 h 0.703125 0.703125 V 2.666931 3.8451119 L 7.819159,3.6714725 C 8.1563328,3.31775 8.5071609,3.1525463 8.9817684,3.1240044 c 1.2758736,-0.076729 2.1387966,1.1644247 1.9195556,2.7609218 -0.1235,0.8993094 -0.681853,1.6035641 -1.406839,1.7744557 -0.2127638,0.050152 -0.556236,0.057515 -0.7627166,0.01635 z m 0.25,-1.0854294 C 9.3132028,6.4190747 9.4963081,5.9992716 9.4963081,5.410625 9.4963081,4.9734328 9.3821872,4.5919772 9.1892678,4.3843256 8.9216715,4.0962944 8.3411831,4.0682122 8.0275928,4.3281278 c -0.4982803,0.4129938 -0.4982803,1.7521413 0,2.1649541 0.060734,0.050317 0.1737068,0.1119753 0.2510506,0.1370194 0.19457,0.063001 0.5422309,0.043323 0.703125,-0.039799 z M 13.637144,7.6771716 C 12.623531,7.5326172 11.959045,6.9969194 11.709847,6.1234162 c -0.100705,-0.3529987 -0.100705,-1.0725837 0,-1.4255825 0.222961,-0.7815353 0.768202,-1.2846296 1.621879,-1.4965075 0.226864,-0.056306 0.368099,-0.068505 0.806292,-0.069639 0.534316,-0.00138 0.775223,0.029759 1.195353,0.154525 l 0.164022,0.048709 V 3.9110247 4.4871284 L 15.33708,4.3926044 c -0.08817,-0.051988 -0.267469,-0.1320219 -0.398437,-0.1778528 -0.205123,-0.07178 -0.287931,-0.083275 -0.5975,-0.082942 -0.430512,4.625e-4 -0.629737,0.064237 -0.866963,0.277524 -0.514955,0.4629885 -0.514955,1.5395941 0,2.0025825 0.236561,0.2126891 0.436399,0.276875 0.866963,0.2784604 0.415492,0.00153 0.676627,-0.06396 0.976563,-0.2449113 l 0.179687,-0.1084055 v 0.5749722 0.5749722 l -0.164692,0.047877 c -0.484374,0.1408113 -1.2534,0.2053479 -1.695557,0.1422905 z"
       id="path821"
       inkscape:connector-curvature="0" /></g></svg>
