<?xml version="1.0" encoding="UTF-8" standalone="no"?>
<!-- Created with Inkscape (http://www.inkscape.org/) -->

<svg
   version="1.1"
   id="svg2"
   width="1600"
   height="1600"
   viewBox="0 0 1600 1600"
   sodipodi:docname="stroke.svg"
   inkscape:version="1.2.2 (732a01da63, 2022-12-09)"
   xmlns:inkscape="http://www.inkscape.org/namespaces/inkscape"
   xmlns:sodipodi="http://sodipodi.sourceforge.net/DTD/sodipodi-0.dtd"
   xmlns="http://www.w3.org/2000/svg"
   xmlns:svg="http://www.w3.org/2000/svg"
   xmlns:rdf="http://www.w3.org/1999/02/22-rdf-syntax-ns#"
   xmlns:cc="http://creativecommons.org/ns#"
   xmlns:dc="http://purl.org/dc/elements/1.1/">
  <metadata
     id="metadata8">
    <rdf:RDF>
      <cc:Work
         rdf:about="">
        <dc:format>image/svg+xml</dc:format>
        <dc:type
           rdf:resource="http://purl.org/dc/dcmitype/StillImage" />
      </cc:Work>
    </rdf:RDF>
  </metadata>
  <defs
     id="defs6" />
  <sodipodi:namedview
     pagecolor="#808080"
     bordercolor="#666666"
     borderopacity="1"
     objecttolerance="10"
     gridtolerance="10"
     guidetolerance="10"
     inkscape:pageopacity="0"
     inkscape:pageshadow="2"
     inkscape:window-width="1993"
     inkscape:window-height="1009"
     id="namedview4"
     showgrid="false"
     inkscape:zoom="0.5"
     inkscape:cx="7"
     inkscape:cy="8"
     inkscape:window-x="-8"
     inkscape:window-y="-8"
     inkscape:window-maximized="1"
     inkscape:current-layer="STROKE"
     inkscape:showpageshadow="0"
     inkscape:pagecheckerboard="true"
     inkscape:deskcolor="#d1d1d1" />
  <g
     id="STROKE"
     transform="matrix(100,0,0,100,0,4.9999997e-5)"
     style="stroke-width:0.0114286">
    <path
       style="fill:none;stroke-width:0.000357143"
       d="M 0,8 V 0 h 8 8 v 8 8 H 8 0 Z m 2.71875,6.922177 C 3.7551863,14.739526 4.4506959,14.286824 4.7836909,13.578125 4.9384859,13.248681 5,12.934553 5,12.47352 5,11.85535 4.9103312,11.49241 4.5469537,10.639785 4.1524294,9.7140763 4.0674103,9.3936275 4.041425,8.734375 3.9953797,7.5661866 4.4436153,6.6171047 5.3695947,5.9221459 6.1982378,5.3002391 7.3093734,4.96875 8.5653322,4.96875 c 1.7086898,0 3.2428518,0.5575069 4.2839288,1.5567581 0.400503,0.3844125 0.650265,0.7178516 0.858682,1.1463669 0.223115,0.4587344 0.296908,0.7508391 0.299992,1.1875 0.0041,0.5739416 -0.173572,1.0343878 -0.560072,1.451845 -0.85679,0.925411 -2.133984,0.993935 -3.354113,0.179953 C 9.7678334,10.273746 9.2125663,9.7064303 8.9721378,9.345225 8.5067728,8.6460875 8.1734778,7.7751763 8.0626684,6.96875 8.0162259,6.6307603 7.9776062,6.5026278 7.8945884,6.4110934 7.7911728,6.2970684 7.6738887,6.25 7.4931809,6.25 7.1979516,6.25 7,6.4544734 7,6.75943 7,7.1693919 7.2482784,8.1805234 7.4967897,8.7826403 8.6677109,11.619661 11.494645,12.90016 13.598753,11.54661 13.898574,11.353739 14.385514,10.859812 14.571893,10.559506 15.149041,9.6295731 15.204756,8.4942147 14.727536,7.3878297 14.488068,6.8326469 14.187791,6.3991353 13.693431,5.8948862 12.702001,4.8836222 11.307463,4.2273262 9.65625,3.9949113 9.4676841,3.96837 9.0629497,3.9535709 8.546875,3.9543475 7.8400728,3.95541 7.6815259,3.9649497 7.328125,4.0276716 5.1835094,4.4082978 3.6859844,5.5948709 3.1685788,7.3235131 2.9199661,8.1541225 2.9539016,9.2987244 3.2536678,10.193467 c 0.051544,0.15385 0.199881,0.528336 0.3296366,0.832192 0.3239544,0.758622 0.3933612,1.037649 0.3783959,1.521216 -0.010019,0.323738 -0.022805,0.399335 -0.093534,0.553016 -0.2481563,0.539201 -0.863827,0.804258 -2.0220679,0.870537 -0.4644275,0.02657 -0.5258516,0.03682 -0.6286502,0.104849 -0.28978909,0.191773 -0.29088828,0.649249 -0.00204,0.851037 0.112383,0.07851 0.1143624,0.0787 0.6595963,0.06346 0.3007812,-0.0084 0.6804687,-0.03883 0.84375,-0.0676 z M 8.7286169,2.9639058 C 8.7661588,2.944054 8.9006016,2.8312281 9.0273788,2.7131816 9.1979331,2.5543726 9.3401644,2.4582408 9.5742538,2.3435577 10.147851,2.0625458 10.559998,2.0013399 11.884364,2.0004946 12.710742,1.9999671 12.753782,1.9930887 12.895467,1.8389067 13.113081,1.602098 13.035523,1.1957206 12.743739,1.0439058 12.619708,0.97937203 10.662584,0.98129156 10.265625,1.0463364 9.4730169,1.1762114 8.8114169,1.4824825 8.3246528,1.9448607 8.072575,2.1843098 8,2.3084093 8,2.5 8,2.7956953 8.2017237,3 8.4936838,3 8.585355,3 8.691075,2.9837576 8.7286169,2.9639058 Z"
       id="path821"
       inkscape:connector-curvature="0" />
    <path
       style="fill:#ffffff;fill-opacity:1;stroke-width:0.000357143"
       d="m 1.2154037,14.926314 c -0.28884348,-0.201788 -0.28774429,-0.659264 0.00204,-0.851037 0.1027986,-0.06803 0.1642227,-0.07827 0.6286502,-0.104849 1.1582409,-0.06628 1.7739116,-0.331336 2.0220679,-0.870537 0.070728,-0.153681 0.083515,-0.229278 0.093534,-0.553016 0.01497,-0.483567 -0.054437,-0.762594 -0.3783915,-1.521216 C 3.4535487,10.721803 3.3052121,10.347317 3.2536677,10.193467 2.9539016,9.2987244 2.9199661,8.1541225 3.1685788,7.3235131 3.6859844,5.5948709 5.1835094,4.4082978 7.328125,4.0276716 c 0.3534009,-0.062722 0.5119478,-0.07226 1.21875,-0.073324 0.857165,-0.00129 1.1154803,0.021949 1.78125,0.1602481 2.003385,0.4161582 3.716988,1.6911069 4.399411,3.2732341 0.47722,1.106385 0.421505,2.2417434 -0.155643,3.1716762 -0.186379,0.300306 -0.673319,0.794233 -0.97314,0.987104 -1.384255,0.890476 -3.186255,0.66203 -4.5788339,-0.580476 C 8.0039812,10.05968 7.3224456,8.7682816 7.0612131,7.2547072 6.9865659,6.8222028 6.9843066,6.6518922 7.0513412,6.5106269 7.1953609,6.2071278 7.6598725,6.1522987 7.8945884,6.4110934 c 0.083018,0.091534 0.1216375,0.2196669 0.16808,0.5576566 0.1108094,0.8064263 0.4441044,1.6773375 0.9094694,2.376475 0.2404285,0.3612053 0.7956956,0.928521 1.1216122,1.145948 1.030483,0.687464 2.077905,0.75216 2.936483,0.181378 0.433296,-0.288054 0.795158,-0.7832344 0.925375,-1.266301 0.07756,-0.2877069 0.07053,-0.8114869 -0.01529,-1.140625 C 13.852187,7.9276263 13.582109,7.3829181 13.350515,7.0760772 12.920182,6.5059241 12.23038,5.9536253 11.517008,5.6080569 10.210654,4.9752387 8.4932741,4.7934175 7.078125,5.1381066 6.0089684,5.3985222 5.0962431,5.9787959 4.5951575,6.7166772 4.1794325,7.3288597 4.0103147,7.9450934 4.041425,8.734375 4.0674103,9.3936275 4.1524294,9.7140763 4.5469537,10.639785 4.9103313,11.49241 5,11.85535 5,12.47352 5,12.934553 4.9384859,13.248681 4.7836909,13.578125 4.5164287,14.146928 4.0545197,14.526191 3.3419416,14.761913 2.8833916,14.913601 2.5066233,14.972126 1.875,14.989778 1.3297661,15.005016 1.3277867,15.004826 1.2154037,14.926314 Z M 8.2148453,2.9237833 C 8.0137894,2.7871623 7.9405691,2.4940618 8.0499256,2.2636104 8.0773844,2.2057449 8.2010119,2.0623074 8.3246528,1.9448606 8.8114169,1.4824824 9.4730169,1.1762113 10.265625,1.0463363 c 0.396959,-0.0650447 2.354083,-0.0669643 2.478114,-0.00243 0.367741,0.1913352 0.367741,0.7208531 0,0.9121884 -0.06576,0.034216 -0.255424,0.044015 -0.859375,0.0444 C 10.559998,2.00134 10.147851,2.0625457 9.5742538,2.3435578 9.3401644,2.4582406 9.1979331,2.5543725 9.0273788,2.7131815 8.7430559,2.9779242 8.7019788,3 8.4936838,3 8.3685019,3 8.2990856,2.981026 8.2148453,2.9237833 Z"
       id="path819"
       inkscape:connector-curvature="0" />
  </g>
</svg>
