<?xml version="1.0" encoding="UTF-8" standalone="no"?>
<!-- Created with Inkscape (http://www.inkscape.org/) -->

<svg
   version="1.1"
   id="svg2"
   width="1600"
   height="1600"
   viewBox="0 0 1600 1600"
   sodipodi:docname="subdivedgeloop.svg"
   inkscape:version="1.2.2 (732a01da63, 2022-12-09)"
   xmlns:inkscape="http://www.inkscape.org/namespaces/inkscape"
   xmlns:sodipodi="http://sodipodi.sourceforge.net/DTD/sodipodi-0.dtd"
   xmlns="http://www.w3.org/2000/svg"
   xmlns:svg="http://www.w3.org/2000/svg"
   xmlns:rdf="http://www.w3.org/1999/02/22-rdf-syntax-ns#"
   xmlns:cc="http://creativecommons.org/ns#"
   xmlns:dc="http://purl.org/dc/elements/1.1/">
  <metadata
     id="metadata8">
    <rdf:RDF>
      <cc:Work
         rdf:about="">
        <dc:format>image/svg+xml</dc:format>
        <dc:type
           rdf:resource="http://purl.org/dc/dcmitype/StillImage" />
      </cc:Work>
    </rdf:RDF>
  </metadata>
  <defs
     id="defs6" />
  <sodipodi:namedview
     pagecolor="#808080"
     bordercolor="#666666"
     borderopacity="1"
     objecttolerance="10"
     gridtolerance="10"
     guidetolerance="10"
     inkscape:pageopacity="0"
     inkscape:pageshadow="2"
     inkscape:window-width="1993"
     inkscape:window-height="1009"
     id="namedview4"
     showgrid="false"
     inkscape:zoom="0.5"
     inkscape:cx="73"
     inkscape:cy="42"
     inkscape:window-x="-8"
     inkscape:window-y="-8"
     inkscape:window-maximized="1"
     inkscape:current-layer="SUBDIVEDGELOOP"
     inkscape:showpageshadow="0"
     inkscape:pagecheckerboard="true"
     inkscape:deskcolor="#d1d1d1" />
  <g
     id="SUBDIVEDGELOOP"
     transform="matrix(100,0,0,100,0,4.9999997e-5)"
     style="stroke-width:0.0114286">
    <path
       style="fill:none;stroke-width:0.000357143"
       d="M 0,8 V 0 h 8 8 v 8 8 H 8 0 Z m 8.1809325,6.686698 c 0.063768,-0.03482 0.1651613,-0.09311 0.2253175,-0.129541 0.060156,-0.03643 0.1867188,-0.108353 0.28125,-0.159827 0.094531,-0.05147 0.1929688,-0.109318 0.21875,-0.128542 0.025781,-0.01922 0.103125,-0.06226 0.171875,-0.09563 0.06875,-0.03338 0.1460938,-0.07699 0.171875,-0.09691 0.025781,-0.01993 0.1242188,-0.07803 0.21875,-0.129113 0.2428194,-0.131222 0.3213794,-0.176511 0.375,-0.216184 0.025781,-0.01908 0.13125,-0.081 0.234375,-0.137606 0.28813,-0.158162 0.334287,-0.184489 0.46875,-0.26737 0.06875,-0.04238 0.153125,-0.09062 0.1875,-0.107217 0.03438,-0.01659 0.11875,-0.06518 0.1875,-0.107971 0.06875,-0.04279 0.167188,-0.09966 0.21875,-0.126376 0.05156,-0.02672 0.121875,-0.06583 0.15625,-0.08693 0.03438,-0.02109 0.175,-0.10152 0.3125,-0.178728 0.1375,-0.07721 0.273369,-0.154496 0.301931,-0.171752 0.02856,-0.01726 0.162156,-0.0946 0.296875,-0.171875 0.134719,-0.07728 0.273069,-0.157759 0.307444,-0.178851 0.03438,-0.02109 0.104688,-0.06023 0.15625,-0.08698 0.05156,-0.02675 0.139453,-0.07634 0.195313,-0.110211 0.05586,-0.03387 0.147265,-0.08929 0.203125,-0.12316 0.05586,-0.03387 0.14375,-0.083 0.195312,-0.109175 0.05156,-0.02618 0.15,-0.08314 0.21875,-0.126582 0.06875,-0.04344 0.146094,-0.08778 0.171875,-0.09853 0.02578,-0.01075 0.08555,-0.05527 0.132813,-0.09893 l 0.08594,-0.0794 V 10.062613 8.7619203 l 0.17568,-0.1516709 c 0.20239,-0.174731 0.291408,-0.3441816 0.292384,-0.5565656 0.0012,-0.2542516 -0.156735,-0.5172144 -0.381172,-0.6347841 l -0.08498,-0.044518 -0.0088,-1.356575 -0.0088,-1.356575 -0.07652,-0.081422 C 13.740773,4.5350266 13.67046,4.4802428 13.626607,4.4580672 13.513544,4.4008928 13.398404,4.3338806 13.34375,4.2934425 13.317969,4.2743672 13.219531,4.2169625 13.125,4.1658772 12.882181,4.0346553 12.803621,3.9893663 12.75,3.9496925 12.724219,3.9306172 12.625781,3.8728944 12.53125,3.82142 12.436719,3.7699456 12.310156,3.6980234 12.25,3.6615928 12.04428,3.5370081 11.921795,3.4650697 11.734375,3.3587531 11.53221,3.2440725 11.39122,3.161605 11.21875,3.0571573 11.158594,3.0207267 11.032031,2.9488043 10.9375,2.8973299 10.842969,2.8458555 10.744531,2.788133 10.71875,2.7690576 10.665129,2.7293839 10.586569,2.6840946 10.34375,2.5528729 10.249219,2.5017874 10.150781,2.444383 10.125,2.4253076 10.099219,2.4062322 10.044558,2.3717245 10.003531,2.3486239 9.9625044,2.3255233 9.8781294,2.2775229 9.8160309,2.2419564 9.7539328,2.2063899 9.6679688,2.1577394 9.625,2.1338443 9.5820313,2.1099491 9.5046875,2.06502 9.453125,2.0340018 9.3446206,1.9687294 9.1440616,1.8528035 9.03125,1.7901525 8.9882813,1.7662893 8.896875,1.7120934 8.828125,1.6697171 8.759375,1.6273407 8.675,1.5790931 8.640625,1.5625 8.60625,1.5459069 8.521875,1.497266 8.453125,1.454409 8.2126659,1.304513 8.0955938,1.25 8.014135,1.25 7.9421716,1.25 7.78022,1.330931 7.4266047,1.5436027 7.3724409,1.5761778 7.2507812,1.6449457 7.15625,1.6964201 7.0617187,1.7478945 6.9632812,1.805617 6.9375,1.8246924 6.9117187,1.8437678 6.8570578,1.8782755 6.8160309,1.9013761 6.5959091,2.0253187 6.5067278,2.0768294 6.421875,2.1290387 6.3703125,2.1607647 6.3,2.2007167 6.265625,2.2178208 6.23125,2.2349249 6.146875,2.2844084 6.078125,2.3277842 6.009375,2.37116 5.9109375,2.4281787 5.859375,2.4544926 5.8078125,2.4808064 5.7023437,2.5431945 5.625,2.5931328 5.5476562,2.6430711 5.3929687,2.7296906 5.28125,2.7856205 5.1695312,2.8415504 5.0289062,2.9232131 4.96875,2.9670931 4.8523081,3.0520298 4.8022375,3.0819329 4.53125,3.2283772 4.436719,3.2794622 4.3382812,3.3368672 4.3125,3.3559425 4.286719,3.3750175 4.232058,3.4095255 4.1910309,3.4326265 4.1500039,3.4557265 4.0656294,3.5037275 4.0035309,3.539294 3.9414328,3.57486 3.8554687,3.6234844 3.8125,3.6473475 3.7695312,3.6712106 3.678125,3.7254066 3.609375,3.7677828 3.540625,3.8101594 3.45625,3.8593737 3.421875,3.8771481 3.3875,3.8949225 3.303125,3.9433731 3.234375,3.9848156 2.9704505,4.1439103 2.8850664,4.1943066 2.7158254,4.29088 2.6196854,4.34574 2.4931232,4.4168397 2.4345754,4.44888 2.3760274,4.48092 2.2894531,4.543317 2.2421875,4.5875391 L 2.15625,4.6679431 V 6.0309663 7.3939897 L 2.043059,7.5016822 C 1.7440658,7.7861519 1.7369886,8.2408913 2.0273094,8.5136591 L 2.125,8.6054431 V 9.96875 11.332057 l 0.085937,0.0798 c 0.047266,0.04389 0.1818839,0.134414 0.2991518,0.201159 0.1172678,0.06674 0.236799,0.135903 0.265625,0.153684 0.028826,0.01778 0.1086607,0.06401 0.1774107,0.10273 0.06875,0.03872 0.18125,0.104308 0.25,0.14575 0.06875,0.04144 0.153125,0.08989 0.1875,0.107668 0.034375,0.01777 0.11875,0.06733 0.1875,0.110119 0.06875,0.04279 0.1671875,0.09919 0.21875,0.125341 0.051563,0.02615 0.15,0.08303 0.21875,0.126404 0.06875,0.04338 0.153125,0.09341 0.1875,0.111182 0.034375,0.01778 0.11875,0.06642 0.1875,0.108093 0.06875,0.04168 0.153125,0.08993 0.1875,0.107227 0.034375,0.0173 0.11875,0.06621 0.1875,0.108685 0.06875,0.04248 0.2281934,0.137644 0.3543191,0.211478 0.1261253,0.07383 0.2526878,0.148362 0.28125,0.165617 0.028562,0.01726 0.1573996,0.09173 0.2863059,0.165494 0.1289062,0.07377 0.290625,0.168876 0.359375,0.211355 0.06875,0.04248 0.153125,0.09139 0.1875,0.108685 0.034375,0.0173 0.11875,0.06555 0.1875,0.107227 0.06875,0.04168 0.153125,0.09032 0.1875,0.108093 0.034375,0.01777 0.11875,0.06763 0.1875,0.110786 0.06875,0.04316 0.1601562,0.09534 0.203125,0.115958 0.042969,0.02062 0.099219,0.05429 0.125,0.07483 0.025781,0.02053 0.1171875,0.07522 0.203125,0.121534 0.085937,0.04631 0.2476563,0.139013 0.359375,0.20601 0.2305066,0.138232 0.3280322,0.150038 0.4934325,0.05973 z"
       id="path825"
       inkscape:connector-curvature="0" />
    <path
       style="fill:#fecb32;stroke-width:0.000357143"
       d="M 7.7015625,14.065788 C 7.6852344,14.050408 7.5977137,13.997674 7.5070719,13.9486 7.4164303,13.899526 7.2898678,13.828259 7.2258219,13.790229 7.1617762,13.752199 7.0601562,13.692073 7,13.656614 6.9398437,13.621156 6.8414062,13.562338 6.78125,13.525907 6.7210937,13.489477 6.5945312,13.417554 6.5,13.36608 6.4054687,13.314606 6.3070312,13.256883 6.28125,13.237808 6.255469,13.218728 6.200808,13.184228 6.1597809,13.161128 6.1187539,13.138028 6.0343794,13.090028 5.9722809,13.05446 5.9101828,13.01889 5.8242187,12.970266 5.78125,12.946403 5.7382812,12.922539 5.646875,12.868289 5.578125,12.825846 5.509375,12.783402 5.4355469,12.740438 5.4140625,12.73037 5.3838931,12.716231 5.375,12.46026 5.375,11.606032 5.375,10.997714 5.3871659,10.5 5.4020356,10.5 c 0.01487,0 0.060573,0.02623 0.1015625,0.05828 0.04099,0.03205 0.1448394,0.09579 0.2307769,0.141634 0.085937,0.04584 0.2195312,0.124234 0.296875,0.174199 0.077344,0.04997 0.309375,0.184208 0.515625,0.298318 0.20625,0.11411 0.4664063,0.261801 0.578125,0.328201 0.1117187,0.0664 0.2980469,0.170942 0.4140625,0.232315 L 7.75,11.844536 v 1.124607 c 0,0.618534 -0.00422,1.124607 -0.00938,1.124607 -0.00516,0 -0.022734,-0.01258 -0.039063,-0.02796 z m 0.5178062,-1.087908 6.188e-4,-1.118505 0.2728191,-0.133236 c 0.2977231,-0.145398 0.5408906,-0.275736 0.9354278,-0.50139 0.1409975,-0.08064 0.4292787,-0.241967 0.6406246,-0.358499 0.211347,-0.116531 0.415907,-0.234262 0.454579,-0.261624 l 0.07031,-0.04975 v 1.092545 1.092546 l -0.07031,0.03546 c -0.14106,0.07114 -0.397327,0.215948 -0.436431,0.246606 -0.02207,0.01731 -0.1174754,0.07363 -0.2120067,0.125174 -0.094531,0.05154 -0.2210937,0.123942 -0.28125,0.160892 -0.060156,0.03695 -0.1515625,0.08863 -0.203125,0.114836 -0.051562,0.02621 -0.1394531,0.07536 -0.1953125,0.109232 -0.055859,0.03387 -0.1472656,0.08929 -0.203125,0.12316 -0.055859,0.03387 -0.14375,0.08302 -0.1953125,0.109232 -0.051562,0.02621 -0.1429687,0.07705 -0.203125,0.112977 -0.060156,0.03593 -0.1691406,0.09987 -0.2421875,0.142085 l -0.1328125,0.07676 6.188e-4,-1.118505 z M 4.8653806,12.414123 c -0.013884,-0.02145 -0.098259,-0.07508 -0.1875,-0.119185 C 4.58864,12.250837 4.4523437,12.174339 4.375,12.124942 4.2241609,12.028606 4.1800278,12.003023 3.890625,11.844163 3.7875,11.787556 3.6820313,11.725633 3.65625,11.706557 3.6304688,11.687482 3.5758078,11.652974 3.5347809,11.629874 3.3146591,11.505931 3.2254778,11.454421 3.140625,11.402211 3.0890625,11.370485 3.01875,11.330556 2.984375,11.313479 2.95,11.296402 2.8515625,11.241347 2.765625,11.191133 l -0.15625,-0.0913 -0.00821,-1.1164948 -0.00821,-1.1164946 0.070712,0.050378 C 2.7025548,8.9449328 2.875,9.0464581 3.046875,9.1428363 3.21875,9.2392147 3.4507813,9.3722356 3.5625,9.4384384 c 0.1117188,0.066203 0.2804687,0.1642182 0.375,0.2178116 0.094531,0.053593 0.2632813,0.1517403 0.375,0.2181037 0.1117187,0.066364 0.2854844,0.1667293 0.3861459,0.2230343 0.1006613,0.05631 0.1887382,0.117272 0.195726,0.135483 0.024589,0.06408 -0.00406,2.219767 -0.028991,2.181252 z m 6.1971454,-1.046935 2.6e-5,-1.070313 0.344678,-0.1875 C 11.596803,10.00625 11.867495,9.8557647 12.008767,9.7749631 12.150039,9.6941619 12.35,9.5847075 12.453125,9.5317313 12.55625,9.4787553 12.732031,9.3804619 12.84375,9.3133019 c 0.111719,-0.06716 0.283984,-0.1653297 0.382813,-0.2181553 l 0.179687,-0.096046 v 1.0623144 1.062315 l -0.129413,0.07095 c -0.07118,0.03902 -0.196029,0.106478 -0.277449,0.149904 -0.08142,0.04343 -0.167325,0.09414 -0.1909,0.112687 -0.02358,0.01855 -0.127238,0.0801 -0.230363,0.136774 -0.29051,0.159654 -0.334861,0.184963 -0.46875,0.26749 -0.06875,0.04238 -0.153125,0.09062 -0.1875,0.107217 -0.03438,0.01659 -0.11875,0.06484 -0.1875,0.107217 -0.06875,0.04238 -0.160156,0.09671 -0.203125,0.120747 -0.355526,0.198864 -0.4339,0.240786 -0.45015,0.240786 -0.01023,0 -0.01859,-0.481641 -0.01857,-1.070312 z M 7.6839019,10.192709 C 7.6429122,10.161198 7.4476562,10.047559 7.25,9.9401772 7.0523438,9.8327953 6.8301503,9.7074044 6.7562369,9.6615313 6.4523247,9.4729122 6.1373406,9.2895853 5.65625,9.0213178 L 5.421875,8.890625 5.4136413,7.8515625 C 5.4091128,7.2800781 5.4122006,6.8125 5.4205031,6.8125 c 0.0083,0 0.062816,0.026802 0.12114,0.059561 0.058324,0.032759 0.1396113,0.078462 0.1806378,0.1015625 0.041027,0.023101 0.095688,0.057608 0.1214691,0.076684 0.025781,0.019075 0.1242187,0.07648 0.21875,0.1275653 0.2428194,0.1312219 0.3213794,0.1765109 0.375,0.2161847 0.025781,0.019075 0.1242187,0.07648 0.21875,0.1275653 0.2428194,0.1312219 0.3213794,0.1765109 0.375,0.2161847 0.025781,0.019075 0.13125,0.080905 0.234375,0.1373981 C 7.46163,7.98258 7.5124472,8.0115741 7.67949,8.1113369 l 0.1013647,0.060538 1.875e-4,1.0390625 C 7.7811359,9.7824219 7.776105,10.25 7.7698291,10.25 c -0.00628,0 -0.044948,-0.02578 -0.085937,-0.05729 z M 8.25,9.1749619 V 8.0999234 L 8.3671875,8.0285816 C 8.4316406,7.9893437 8.540625,7.9293922 8.609375,7.8953566 8.678125,7.8613206 8.7554688,7.8166625 8.78125,7.7961166 8.8070313,7.7755703 8.9054688,7.7166444 9,7.66517 9.0945312,7.6136956 9.2210938,7.5421662 9.28125,7.5062159 9.3414063,7.4702656 9.4257813,7.4213009 9.46875,7.3974056 9.5117188,7.3735106 9.603125,7.3212406 9.671875,7.28125 9.740625,7.2412594 9.8320313,7.1888325 9.875,7.1647456 9.9179688,7.1406587 10.005483,7.0902216 10.069477,7.0526631 10.13347,7.0151047 10.27058,6.9383722 10.374164,6.8821462 L 10.5625,6.7799175 v 1.09389 1.0938897 l -0.148437,0.08102 c -0.08164,0.044561 -0.2638,0.1467509 -0.404797,0.2270887 C 9.7592281,9.4182731 9.1972241,9.7326256 8.7419491,9.98467 8.6174709,10.053582 8.4664063,10.14142 8.40625,10.179866 8.3460938,10.218311 8.2863281,10.249819 8.2734375,10.249883 8.2605469,10.249946 8.25,9.7662328 8.25,9.1749619 Z M 11.03125,7.5955956 V 6.5029941 L 11.220424,6.3921219 C 11.32447,6.3311425 11.418285,6.28125 11.428901,6.28125 c 0.01062,0 0.0415,-0.019123 0.06864,-0.042495 0.02713,-0.023372 0.12668,-0.084611 0.221211,-0.136085 0.09453,-0.051474 0.221094,-0.1238219 0.28125,-0.1607722 0.06016,-0.03695 0.151563,-0.088601 0.203125,-0.1147787 0.05156,-0.026178 0.15,-0.082607 0.21875,-0.1253982 0.06875,-0.042791 0.153125,-0.091955 0.1875,-0.1092534 0.03438,-0.017298 0.11875,-0.065603 0.1875,-0.1073438 0.06875,-0.041741 0.146094,-0.086286 0.171875,-0.098989 0.02578,-0.012704 0.126585,-0.069624 0.224008,-0.126491 0.09742,-0.056866 0.185314,-0.1033934 0.195313,-0.1033934 0.01,0 0.01818,0.4978297 0.01818,1.1062881 v 1.1062885 l -0.117187,0.070814 C 13.224609,7.4785878 13.066406,7.5648375 12.9375,7.6313066 12.808594,7.6977756 12.611719,7.8070925 12.5,7.8742331 12.388281,7.9413737 12.213448,8.0428412 12.111482,8.0997159 12.009516,8.1565909 11.837954,8.2523438 11.730233,8.3125 11.622512,8.372656 11.421173,8.4817975 11.282813,8.5550363 L 11.03125,8.6881975 Z M 4.8589428,8.5618006 C 4.8480825,8.5442284 4.7593622,8.4871906 4.6617859,8.4350497 4.4311056,8.3117828 4.2300219,8.1965231 4.09375,8.1094562 4.0335937,8.0710212 3.8603353,7.9709044 3.7087313,7.8869747 3.5571272,7.8030447 3.3461897,7.6818262 3.2399813,7.6176003 3.1337728,7.5533741 2.9520268,7.4549366 2.8361013,7.3988503 L 2.6253276,7.296875 2.6251638,6.2404206 2.625,5.1839666 2.7265625,5.240075 c 0.055859,0.03086 0.1226563,0.071871 0.1484375,0.091137 0.025781,0.019266 0.1242187,0.076826 0.21875,0.1279109 0.2428194,0.1312219 0.3213794,0.1765109 0.375,0.2161847 0.025781,0.019075 0.1242187,0.07648 0.21875,0.1275653 0.2428194,0.1312219 0.3213794,0.1765109 0.375,0.2161847 0.025781,0.019075 0.13125,0.080998 0.234375,0.1376059 0.2719941,0.1493041 0.3281116,0.1813972 0.484375,0.2770119 l 0.140625,0.086046 0.00823,1.0370147 c 0.00765,0.9636666 -0.00308,1.1152297 -0.071166,1.005065 z M 7.8590991,7.6558034 C 7.8483247,7.6383703 7.7877291,7.5956447 7.7244422,7.5608578 7.5468591,7.4632456 7.2462219,7.2919806 7.125,7.2193719 7.0648437,7.1833397 6.93125,7.1059959 6.828125,7.0474969 6.725,6.9889975 6.5914063,6.9116537 6.53125,6.8756219 6.4710937,6.8395897 6.3375,6.7622459 6.234375,6.7037469 6.13125,6.6452475 5.9922337,6.5649262 5.92545,6.525255 5.8586662,6.4855834 5.7774328,6.4375794 5.7449312,6.4185788 5.6835816,6.3827141 5.7023316,6.3502128 5.8125,6.3014575 5.8382812,6.2900478 5.9015625,6.2547009 5.953125,6.2229087 6.0379491,6.1706084 6.1261703,6.1196253 6.3472809,5.9951262 6.3883078,5.9720256 6.4429687,5.9375178 6.46875,5.9184425 6.4945312,5.8993672 6.6,5.8374444 6.703125,5.7808366 6.9916684,5.6224484 7.0364291,5.5965241 7.1875,5.5002984 7.2648437,5.4510341 7.3914062,5.3789834 7.46875,5.3401863 7.6033247,5.2726806 7.6639759,5.23572 7.8765141,5.0916953 l 0.095264,-0.064555 0.1312988,0.06647 c 0.072214,0.036558 0.1875484,0.1010075 0.2562984,0.1432203 0.06875,0.042213 0.153125,0.090904 0.1875,0.1082022 0.034375,0.017298 0.11875,0.06555 0.1875,0.1072269 0.06875,0.041676 0.153125,0.090318 0.1875,0.1080925 0.034375,0.017774 0.11875,0.067328 0.1875,0.110119 0.06875,0.042791 0.1671875,0.099194 0.21875,0.125341 0.051562,0.026146 0.15,0.083028 0.21875,0.126404 0.06875,0.043376 0.153125,0.093018 0.1875,0.1103166 0.034375,0.017298 0.11875,0.06512 0.1875,0.1062703 0.06875,0.04115 0.1709297,0.098777 0.2270667,0.1280581 0.05614,0.029281 0.108458,0.063581 0.11627,0.076222 0.0078,0.01264 -0.0574,0.063665 -0.144911,0.1133875 C 10.032787,6.5061928 9.8866278,6.5890625 9.7955025,6.640625 9.7043772,6.6921875 9.5200569,6.7976562 9.3859019,6.875 9.2517469,6.9523437 9.1276153,7.0209756 9.1100544,7.0275153 9.0924931,7.034055 9.0570313,7.0566931 9.03125,7.0778228 9.0054688,7.0989522 8.9070312,7.1583556 8.8125,7.20983 8.7179688,7.2613044 8.5914063,7.3331737 8.53125,7.3695397 8.4710938,7.4059053 8.3796875,7.4570775 8.328125,7.483255 8.276563,7.509433 8.178125,7.565487 8.109375,7.60782 7.9752441,7.690412 7.8905262,7.706654 7.8590991,7.6558034 Z M 5.0445841,6.0122741 C 4.9599066,5.9695728 4.8273437,5.8939912 4.75,5.8443153 4.6726562,5.7946394 4.5390625,5.71736 4.453125,5.6725831 4.3671875,5.6278062 4.2335937,5.5504625 4.15625,5.5007081 4.0789062,5.4509537 3.9453125,5.37361 3.859375,5.3288331 3.7734375,5.2840562 3.6398437,5.2067125 3.5625,5.1569581 3.4851562,5.1072037 3.3515625,5.0296091 3.265625,4.9845256 3.1796875,4.9394422 3.0567342,4.8707906 2.9923953,4.8319666 L 2.8754157,4.7613775 2.9767703,4.7085806 C 3.0325154,4.6795422 3.134375,4.6204891 3.203125,4.5773512 3.271875,4.5342137 3.35625,4.4853431 3.390625,4.46875 3.425,4.4521569 3.509375,4.4035159 3.578125,4.3606591 c 0.06875,-0.042857 0.18125,-0.1094113 0.25,-0.1478985 0.06875,-0.038487 0.153125,-0.087664 0.1875,-0.1092828 C 4.05,4.0818597 4.1203125,4.0421766 4.171875,4.0152931 4.2234375,3.9884097 4.3289062,3.9253969 4.40625,3.8752644 4.4835937,3.8251322 4.6101562,3.7515372 4.6875,3.7117197 4.8344037,3.6360925 4.9565694,3.5628062 5.1016153,3.4632956 c 0.085222,-0.058468 0.087198,-0.05832 0.2212125,0.016499 0.255535,0.1426637 0.286665,0.1609178 0.3334222,0.1955131 0.025781,0.019075 0.1242187,0.07648 0.21875,0.1275653 0.2428194,0.1312219 0.3213794,0.1765109 0.375,0.2161847 0.025781,0.019075 0.1242187,0.07648 0.21875,0.1275653 0.2428194,0.1312219 0.3213794,0.1765109 0.375,0.2161847 C 6.8695312,4.3818828 6.9679687,4.4396056 7.0625,4.49108 7.5001194,4.7293734 7.5287469,4.7566047 7.4009775,4.8130497 7.3609087,4.8307512 7.271875,4.8793328 7.203125,4.9210094 7.134375,4.9626856 7.05,5.0113275 7.015625,5.0291019 6.98125,5.0468762 6.896875,5.0969084 6.828125,5.1402841 6.759375,5.18366 6.6609375,5.2405672 6.609375,5.266745 6.5578125,5.2929225 6.4699219,5.3420516 6.4140625,5.3759203 6.1909162,5.5112191 6.09982,5.5650091 5.8756794,5.6938212 5.7471466,5.7676884 5.6276153,5.8334756 5.6100544,5.8400153 c -0.017561,0.00654 -0.053023,0.02877 -0.078804,0.0494 -0.025781,0.02063 -0.1111872,0.074182 -0.1897909,0.1190038 l -0.142916,0.081494 z m 5.6585409,0.00666 C 10.66875,5.9987381 10.584375,5.9507 10.515625,5.9121806 10.446875,5.8736609 10.341406,5.8123381 10.28125,5.7759072 10.221094,5.7394766 10.094531,5.6675544 10,5.61608 9.9054688,5.5646056 9.8070313,5.5068828 9.78125,5.4878075 9.7276294,5.4481337 9.6490694,5.4028447 9.40625,5.2716228 9.3117188,5.2205375 9.2132813,5.1631328 9.1875,5.1440575 9.1349056,5.1051431 9.0619447,5.0629594 8.8125,4.9272431 8.7179688,4.8758112 8.608625,4.8090691 8.5695141,4.7789272 l -0.071111,-0.054803 0.086736,-0.044457 C 8.6328437,4.6552156 8.7226828,4.60611 8.7847809,4.5705437 8.8468794,4.5349772 8.9312544,4.4869766 8.9722809,4.4638762 9.0133078,4.4407756 9.0679687,4.4062678 9.09375,4.3871925 9.1195312,4.3681172 9.2179687,4.3103944 9.3125,4.25892 9.4070312,4.2074456 9.5335937,4.1355234 9.59375,4.0990928 9.6539062,4.0626619 9.7523437,4.0038437 9.8125,3.9683856 c 0.060156,-0.035458 0.1617762,-0.095585 0.225822,-0.133615 0.06405,-0.03803 0.190608,-0.1093909 0.28125,-0.15858 0.09064,-0.049189 0.185897,-0.1061353 0.211678,-0.1265478 0.02578,-0.020412 0.09866,-0.063715 0.16196,-0.096227 0.125797,-0.064616 0.135847,-0.062156 0.384915,0.094196 0.06875,0.043158 0.153125,0.093012 0.1875,0.1107862 0.03438,0.017774 0.11875,0.066416 0.1875,0.1080925 0.06875,0.041677 0.153125,0.089929 0.1875,0.1072269 0.03438,0.017298 0.11875,0.066207 0.1875,0.1086856 0.06875,0.042479 0.230469,0.1375881 0.359375,0.2113547 0.128906,0.073766 0.257744,0.1482384 0.286306,0.1654938 0.180745,0.1091943 0.550457,0.3164812 0.600588,0.3367321 0.07293,0.029462 0.07722,0.025271 -0.152519,0.1491622 -0.103125,0.055612 -0.208594,0.1168422 -0.234375,0.1360657 -0.02578,0.019223 -0.103125,0.062259 -0.171875,0.095635 -0.06875,0.033376 -0.146094,0.076987 -0.171875,0.096913 -0.02578,0.019927 -0.124219,0.078028 -0.21875,0.1291131 -0.242819,0.1312219 -0.321379,0.1765109 -0.375,0.2161847 -0.02578,0.019075 -0.124219,0.076798 -0.21875,0.1282725 -0.09453,0.051474 -0.221094,0.1236369 -0.28125,0.1603612 -0.06016,0.036724 -0.130469,0.076212 -0.15625,0.08775 -0.02578,0.011538 -0.08203,0.044971 -0.125,0.074294 -0.111569,0.076138 -0.193827,0.091373 -0.265625,0.049196 z m -2.875,-1.6613579 C 7.7421875,4.31402 7.6085937,4.2377412 7.53125,4.1880653 7.4539062,4.1383894 7.3203125,4.06111 7.234375,4.0163331 7.1484375,3.9715562 7.0148437,3.8942125 6.9375,3.8444581 6.8601562,3.7947038 6.7265625,3.71736 6.640625,3.6725831 6.5546875,3.6278063 6.4210937,3.5505709 6.34375,3.5009488 6.2664062,3.4513266 6.139985,3.3787063 6.0628134,3.3395703 5.8767522,3.2452131 5.7217097,3.1456513 5.7200728,3.1194763 5.7193447,3.1078445 5.7574219,3.0785012 5.8046875,3.0542688 5.9009919,3.0048951 6.0929644,2.8952599 6.234375,2.808875 6.285938,2.777376 6.384375,2.720089 6.453125,2.6815694 6.521875,2.6430494 6.60625,2.5938464 6.640625,2.5722279 6.675,2.5506097 6.7453125,2.5109265 6.796875,2.4840431 6.8484375,2.4571597 6.9539062,2.3940825 7.03125,2.3438717 7.1085937,2.2936608 7.2421875,2.2159437 7.328125,2.1711668 7.4140625,2.12639 7.5476562,2.0493157 7.625,1.9998906 7.9177703,1.8128012 8.0308331,1.7653607 8.0878075,1.8056996 8.1168572,1.8262673 8.1898438,1.8718928 8.25,1.9070897 c 0.060156,0.035197 0.1617763,0.09511 0.2258219,0.1331397 0.064046,0.03803 0.1906084,0.109391 0.28125,0.1585799 0.090642,0.049189 0.1858968,0.1062353 0.2116781,0.1267699 0.025781,0.020535 0.082031,0.054674 0.125,0.075865 0.042969,0.021192 0.10625,0.056037 0.140625,0.077435 0.034375,0.021397 0.11875,0.070585 0.1875,0.1093046 0.06875,0.03872 0.18125,0.1043077 0.25,0.1457504 0.06875,0.041443 0.153125,0.089893 0.1875,0.1076677 0.034375,0.017774 0.11875,0.067567 0.1875,0.1106501 0.06875,0.043083 0.156641,0.092197 0.195313,0.1091419 0.03867,0.016945 0.07031,0.036715 0.07031,0.043932 0,0.00722 -0.07383,0.051327 -0.164062,0.09802 -0.09023,0.046693 -0.1851567,0.1016981 -0.210938,0.1222328 -0.025781,0.020534 -0.082031,0.054206 -0.125,0.074825 -0.042969,0.020619 -0.134375,0.0728 -0.203125,0.1159578 -0.06875,0.043158 -0.153125,0.093012 -0.1875,0.1107862 -0.034375,0.017774 -0.11875,0.066416 -0.1875,0.1080925 -0.06875,0.041677 -0.153125,0.089929 -0.1875,0.1072269 -0.034375,0.017298 -0.11875,0.066207 -0.1875,0.1086856 -0.1664372,0.1028366 -0.5841691,0.3425085 -0.6243206,0.358201 -0.017561,0.00686 -0.065467,0.038504 -0.1064563,0.070312 -0.095578,0.07417 -0.1130718,0.072883 -0.3004731,-0.022093 z"
       id="path823"
       inkscape:connector-curvature="0" />
    <path
       style="fill:#fe0000;stroke-width:0.000357143"
       d="M 7.578125,11.751285 C 7.440625,11.680641 7.2367187,11.56818 7.125,11.501373 7.0132813,11.434566 6.753125,11.286543 6.546875,11.172432 6.340625,11.058322 6.1085937,10.924063 6.03125,10.874079 5.9539062,10.824095 5.8132812,10.739742 5.71875,10.686628 5.6242187,10.633514 5.4554687,10.535891 5.34375,10.469688 5.2320313,10.403486 5,10.269634 4.828125,10.17224 4.65625,10.074846 4.4242187,9.9408297 4.3125,9.8744263 4.2007813,9.8080228 4.0320312,9.7098434 3.9375,9.65625 3.8429687,9.6026566 3.6742188,9.5046413 3.5625,9.4384384 3.4507813,9.3722356 3.21875,9.2383838 3.046875,9.1409897 2.875,9.0435956 2.6429688,8.9096178 2.53125,8.8432606 2.4195313,8.7769038 2.2789063,8.69485 2.21875,8.6609194 1.7647024,8.4048159 1.6762831,7.8499659 2.0352465,7.5093962 2.2678536,7.2887084 2.5543894,7.2532 2.859375,7.4072675 2.9625,7.4593625 3.1337728,7.5542731 3.2399813,7.6181803 3.3461897,7.6820873 3.5571272,7.8028128 3.7087313,7.8864591 3.8603353,7.9701051 4.0202184,8.0633569 4.0640269,8.093685 4.1078359,8.124013 4.2133044,8.1865 4.2984019,8.2325453 4.3834997,8.2785903 4.5445312,8.37082 4.65625,8.4375 c 0.1117187,0.06668 0.2734375,0.1588425 0.359375,0.2048056 0.085937,0.045963 0.1773438,0.1016528 0.203125,0.1237547 0.025781,0.022102 0.1804687,0.113241 0.34375,0.202531 0.1632812,0.08929 0.3882813,0.2164284 0.5,0.2825306 0.1117187,0.066102 0.2804687,0.1636422 0.375,0.2167559 C 6.532031,9.5209918 6.6726562,9.6054856 6.75,9.6556425 6.827344,9.7057995 7.0631969,9.84247 7.2741178,9.9593556 7.4850391,10.076241 7.7383284,10.216593 7.8369831,10.271248 L 8.0163553,10.370621 8.23474,10.261002 C 8.3548519,10.200711 8.5687484,10.085681 8.7100659,10.005379 8.8513834,9.9250769 9.1438344,9.7609375 9.3599569,9.640625 9.5760794,9.5203125 9.8643606,9.3585938 10.000582,9.28125 c 0.136221,-0.077344 0.424502,-0.2390625 0.640625,-0.359375 0.216122,-0.1203125 0.508311,-0.2847306 0.649309,-0.3653737 0.140997,-0.080643 0.342093,-0.1931429 0.446879,-0.25 C 12.045338,8.1394116 12.283222,8.0045225 12.5,7.8740772 c 0.111719,-0.067226 0.315625,-0.181035 0.453125,-0.2529081 0.1375,-0.071873 0.312745,-0.1636953 0.389434,-0.2040488 0.44481,-0.2340594 1.002873,0.1210038 1.000505,0.6365635 -0.0015,0.3156212 -0.219391,0.5735187 -0.671189,0.794239 -0.1375,0.067174 -0.341406,0.1772594 -0.453125,0.2446344 -0.225035,0.1357134 -0.465327,0.2734141 -0.765533,0.4386928 -0.109265,0.060156 -0.308673,0.1699331 -0.443128,0.2439484 -0.134455,0.074015 -0.427277,0.2383276 -0.650714,0.3651376 -0.223438,0.12681 -0.511719,0.288529 -0.640625,0.359375 -0.128906,0.07085 -0.417188,0.232565 -0.640625,0.359375 -0.2234375,0.12681 -0.5159378,0.291252 -0.6500006,0.365427 -0.1340628,0.07417 -0.3379691,0.187539 -0.453125,0.251921 -0.5310444,0.296901 -0.7195907,0.375315 -0.9366144,0.389527 -0.1976359,0.01294 -0.2252703,0.0061 -0.46026,-0.114676 z"
       id="path821"
       inkscape:connector-curvature="0" />
    <path
       style="fill:#191919;stroke-width:0.000357143"
       d="M 7.6875,14.626965 C 7.5757813,14.559968 7.4140625,14.467264 7.328125,14.420955 7.2421875,14.374646 7.1507812,14.319955 7.125,14.299421 7.0992188,14.278886 7.0429687,14.245215 7,14.224596 6.9570312,14.203977 6.865625,14.151796 6.796875,14.108638 6.728125,14.06548 6.64375,14.015626 6.609375,13.997852 6.575,13.980078 6.490625,13.931436 6.421875,13.889759 6.353125,13.848083 6.26875,13.799831 6.234375,13.782533 6.2,13.765234 6.115625,13.716326 6.046875,13.673847 5.978125,13.631368 5.8164062,13.536259 5.6875,13.462492 5.5585937,13.388726 5.4297559,13.314254 5.4011941,13.296998 5.3726319,13.279743 5.2460694,13.205215 5.1199441,13.131381 4.9938184,13.057547 4.834375,12.962382 4.765625,12.919903 c -0.06875,-0.04248 -0.153125,-0.09139 -0.1875,-0.108685 -0.034375,-0.0173 -0.11875,-0.06555 -0.1875,-0.107227 -0.06875,-0.04168 -0.153125,-0.09032 -0.1875,-0.108093 -0.034375,-0.01777 -0.11875,-0.06781 -0.1875,-0.111182 -0.06875,-0.04338 -0.1671875,-0.100258 -0.21875,-0.126404 -0.051563,-0.02615 -0.15,-0.08255 -0.21875,-0.125341 -0.06875,-0.04279 -0.153125,-0.09234 -0.1875,-0.110119 -0.034375,-0.01778 -0.11875,-0.06622 -0.1875,-0.107668 -0.06875,-0.04144 -0.18125,-0.10703 -0.25,-0.14575 -0.06875,-0.03872 -0.1485848,-0.08495 -0.1774107,-0.10273 C 2.7468883,11.748923 2.6273571,11.679765 2.5100893,11.61302 2.3928214,11.546275 2.2582031,11.455753 2.2109375,11.411861 L 2.125,11.332057 V 9.9785284 C 2.125,9.2340878 2.1371001,8.625 2.1518892,8.625 c 0.014789,0 0.078458,0.034996 0.1414873,0.077768 0.063029,0.042772 0.1562203,0.099292 0.2070918,0.1255988 l 0.092493,0.04783 0.00821,1.1118191 0.00821,1.1118191 0.15625,0.0913 c 0.085937,0.05021 0.184375,0.105269 0.21875,0.122346 0.034375,0.01708 0.1046875,0.05701 0.15625,0.08873 0.084853,0.05221 0.1740341,0.10372 0.3941559,0.227663 0.041027,0.0231 0.095688,0.05761 0.1214691,0.07668 0.025781,0.01908 0.13125,0.081 0.234375,0.137605 0.2885434,0.158389 0.3333041,0.184313 0.484375,0.280539 0.077344,0.04926 0.2039062,0.12087 0.28125,0.159124 0.077344,0.03825 0.1652344,0.09066 0.1953125,0.116457 0.051938,0.04455 0.054687,-0.0092 0.054687,-1.069656 v -1.11656 l 0.1328125,0.07915 c 0.073047,0.04353 0.1785156,0.103443 0.234375,0.13313 L 5.375,10.480326 v 1.115868 c 0,0.862099 0.00888,1.120033 0.039063,1.134176 0.021484,0.01007 0.095313,0.05303 0.1640625,0.09548 0.06875,0.04244 0.1601562,0.09669 0.203125,0.120557 0.042969,0.02386 0.1289328,0.07249 0.1910309,0.108053 0.062098,0.03557 0.1464735,0.08357 0.1875,0.106668 0.041027,0.0231 0.095688,0.05761 0.1214691,0.07668 0.025781,0.01908 0.1242187,0.0768 0.21875,0.128272 0.094531,0.05147 0.2210937,0.123397 0.28125,0.159827 0.060156,0.03643 0.1585937,0.09525 0.21875,0.130707 0.060156,0.03546 0.165625,0.09843 0.234375,0.139937 0.06875,0.04151 0.1460938,0.08583 0.171875,0.0985 0.025781,0.01267 0.1136719,0.06219 0.1953125,0.110055 L 7.75,14.092128 V 12.975752 11.859375 H 7.984375 8.21875 v 1.118505 1.118505 l 0.1328125,-0.07676 c 0.073047,-0.04222 0.1820313,-0.106156 0.2421875,-0.142085 0.060156,-0.03593 0.1515625,-0.08677 0.203125,-0.112977 0.051562,-0.02621 0.1394531,-0.07536 0.1953125,-0.109232 0.055859,-0.03387 0.1472656,-0.08929 0.203125,-0.12316 0.055859,-0.03387 0.14375,-0.08302 0.1953125,-0.109232 0.051562,-0.02621 0.1429688,-0.07789 0.203125,-0.114836 0.060156,-0.03695 0.1867188,-0.109352 0.28125,-0.160892 0.094531,-0.05154 0.189935,-0.107869 0.212007,-0.125174 0.0391,-0.03066 0.295371,-0.175462 0.436431,-0.246606 l 0.07031,-0.03546 V 11.651684 10.5634 l 0.185223,-0.0935 c 0.101874,-0.05143 0.19411,-0.107877 0.20497,-0.12545 0.06666,-0.107853 0.07856,0.04826 0.07856,1.030551 0,0.584375 0.0084,1.0625 0.0186,1.0625 0.01625,0 0.09462,-0.04192 0.45015,-0.240786 0.04297,-0.02403 0.134375,-0.07837 0.203125,-0.120747 0.06875,-0.04238 0.153125,-0.09062 0.1875,-0.107217 0.03438,-0.01659 0.11875,-0.06484 0.1875,-0.107217 0.133889,-0.08253 0.17824,-0.107836 0.46875,-0.26749 0.103125,-0.05667 0.206788,-0.118222 0.230363,-0.136774 0.02357,-0.01855 0.10948,-0.06926 0.1909,-0.112687 0.08142,-0.04343 0.206272,-0.110884 0.277449,-0.149904 L 13.40625,11.12373 V 10.044292 8.9648547 l 0.226563,-0.1049485 0.226562,-0.1049487 0.0082,1.2998245 0.0082,1.299825 -0.07066,0.07601 c -0.03886,0.04181 -0.09878,0.08834 -0.13316,0.103406 -0.03438,0.01507 -0.11875,0.06288 -0.1875,0.106259 -0.06875,0.04338 -0.167188,0.100283 -0.21875,0.126461 -0.05156,0.02618 -0.139453,0.07531 -0.195312,0.109175 -0.05586,0.03387 -0.147266,0.08929 -0.203125,0.12316 -0.05586,0.03387 -0.143751,0.08346 -0.195313,0.110211 -0.05156,0.02675 -0.121875,0.06589 -0.15625,0.08698 -0.03438,0.02109 -0.172725,0.101575 -0.307444,0.178851 -0.134719,0.07728 -0.268313,0.15462 -0.296875,0.171875 -0.02856,0.01726 -0.164431,0.09454 -0.301931,0.171752 -0.1375,0.07721 -0.278125,0.157636 -0.3125,0.178728 -0.03438,0.02109 -0.104688,0.06021 -0.15625,0.08693 -0.05156,0.02671 -0.15,0.08358 -0.21875,0.126376 -0.06875,0.04279 -0.153125,0.09138 -0.1875,0.107971 -0.03438,0.01659 -0.11875,0.06484 -0.1875,0.107217 -0.134463,0.08288 -0.18062,0.109208 -0.46875,0.26737 -0.103125,0.05661 -0.2085937,0.11853 -0.234375,0.137605 -0.053621,0.03967 -0.1321806,0.08496 -0.375,0.216185 -0.094531,0.05109 -0.1929687,0.109186 -0.21875,0.129113 -0.025781,0.01993 -0.103125,0.06354 -0.171875,0.09691 -0.06875,0.03337 -0.1460937,0.07641 -0.171875,0.09563 -0.025781,0.01922 -0.1242188,0.07707 -0.21875,0.128542 -0.094531,0.05147 -0.2210937,0.123397 -0.28125,0.159827 -0.3862584,0.233919 -0.4368894,0.238836 -0.71875,0.06981 z M 7.8984375,10.310372 7.78125,10.248507 7.7810625,9.2101909 7.780875,8.171875 7.6795103,8.1113369 C 7.5124675,8.0115741 7.4616503,7.98258 7.2656453,7.8752056 7.1625203,7.8187122 7.0570516,7.7568828 7.0312703,7.7378075 6.9776497,7.6981337 6.8990897,7.6528447 6.6562703,7.5216228 6.5617391,7.4705375 6.4633016,7.4131328 6.4375203,7.3940575 6.3838997,7.3543837 6.3053397,7.3090947 6.0625203,7.1778728 5.9679891,7.1267875 5.8695516,7.0693828 5.8437703,7.0503075 5.8179891,7.0312322 5.7633281,6.9967244 5.7223012,6.9736237 5.6812747,6.9505234 5.5999875,6.9048203 5.5416634,6.8720612 5.4833187,6.8393025 5.4289953,6.8125 5.4209244,6.8125 5.4128534,6.8125 5.40625,7.2778569 5.40625,7.8466266 V 8.8807531 L 5.3046875,8.8160969 C 5.2488281,8.7805362 5.1435431,8.7202788 5.0707209,8.6821919 L 4.9383169,8.6129428 4.9300959,7.5663322 4.921875,6.5197216 4.78125,6.4336756 C 4.6249872,6.3380612 4.5688709,6.3059684 4.296875,6.1566634 4.19375,6.1000556 4.0882812,6.0381328 4.0625,6.0190575 4.0088794,5.9793837 3.9303194,5.9340947 3.6875,5.8028728 3.5929687,5.7517875 3.4945313,5.6943828 3.46875,5.6753075 3.4151294,5.6356337 3.3365694,5.5903447 3.09375,5.4591228 2.9992187,5.4080375 2.9007813,5.3504775 2.875,5.3312119 2.8492188,5.3119462 2.7824219,5.2709347 2.7265625,5.240075 L 2.625,5.1839666 V 6.2482331 7.3125 H 2.4989963 c -0.069302,0 -0.1747708,0.020376 -0.234375,0.04528 L 2.15625,7.4030609 V 6.0355019 4.6679431 L 2.242187,4.5875391 C 2.2894531,4.5433169 2.3760277,4.4809203 2.4345754,4.44888 2.4931232,4.4168397 2.6196857,4.3457397 2.7158254,4.29088 2.8850664,4.1943066 2.9704505,4.1439103 3.234375,3.9848156 3.303125,3.9433731 3.3875,3.8949225 3.421875,3.8771481 3.45625,3.8593737 3.540625,3.8101594 3.609375,3.7677828 3.678125,3.7254066 3.7695313,3.6712106 3.8125,3.6473475 3.8554688,3.6234844 3.9414328,3.57486 4.0035309,3.5392937 4.0656294,3.5037272 4.1500044,3.4557266 4.1910309,3.4326262 4.2320578,3.4095256 4.2867187,3.3750178 4.3125,3.3559425 4.3382812,3.3368672 4.4367187,3.2794625 4.53125,3.2283772 4.8022375,3.0819329 4.8523081,3.0520298 4.96875,2.9670931 5.0289063,2.9232131 5.1695313,2.8415504 5.28125,2.7856205 5.3929687,2.7296906 5.5476562,2.6430711 5.625,2.5931328 5.7023437,2.5431945 5.8078125,2.4808064 5.859375,2.4544926 5.9109375,2.4281787 6.009375,2.37116 6.078125,2.3277842 6.146875,2.2844084 6.23125,2.2349249 6.265625,2.2178208 6.3,2.2007167 6.3703125,2.1607647 6.421875,2.1290387 6.5067278,2.0768294 6.5959091,2.0253187 6.8160309,1.9013761 6.8570578,1.8782755 6.9117187,1.8437678 6.9375,1.8246924 6.9632812,1.805617 7.0617187,1.7478945 7.15625,1.6964201 7.2507812,1.6449457 7.3724409,1.5761778 7.4266047,1.5436027 7.78022,1.330931 7.9421716,1.25 8.014135,1.25 c 0.077278,0 0.1898188,0.050751 0.40774,0.183875 0.1010472,0.061728 0.2960022,0.1748178 0.421875,0.2447225 0.042969,0.023863 0.134375,0.078059 0.203125,0.1204354 0.06875,0.042376 0.153125,0.090624 0.1875,0.1072171 0.034375,0.016593 0.11875,0.064841 0.1875,0.1072171 0.06875,0.042376 0.1601563,0.096572 0.203125,0.1204354 0.042969,0.023863 0.1289328,0.072487 0.1910309,0.1080539 0.062099,0.035567 0.1464735,0.083567 0.1875001,0.1066675 0.04103,0.023101 0.09569,0.057608 0.121469,0.076684 0.02578,0.019075 0.124219,0.07648 0.21875,0.1275653 0.242819,0.1312217 0.321379,0.176511 0.375,0.2161847 0.02578,0.019075 0.124219,0.076798 0.21875,0.1282723 0.09453,0.051474 0.221094,0.1233968 0.28125,0.1598274 0.17247,0.1044477 0.31346,0.1869152 0.515625,0.3015958 0.18742,0.1063166 0.309905,0.178255 0.515625,0.3028397 0.06016,0.036431 0.186719,0.1083528 0.28125,0.1598272 0.09453,0.051474 0.192969,0.1091972 0.21875,0.1282725 0.05362,0.039674 0.132181,0.084963 0.375,0.2161847 0.09453,0.051085 0.192969,0.10849 0.21875,0.1275653 0.05465,0.040438 0.169794,0.1074503 0.282857,0.1646247 0.04385,0.022176 0.114166,0.076959 0.15625,0.1217419 l 0.07652,0.081422 0.0087,1.3490715 0.0088,1.3490719 H 13.641563 13.40625 V 6.2578125 c 0,-0.6058594 -0.0082,-1.1015625 -0.01818,-1.1015625 -0.01,0 -0.09789,0.046527 -0.195313,0.1033934 -0.09742,0.056867 -0.198227,0.1137875 -0.224008,0.126491 -0.02578,0.012704 -0.103125,0.057249 -0.171875,0.098989 -0.06875,0.041741 -0.153125,0.090045 -0.1875,0.1073437 -0.03438,0.017298 -0.11875,0.066463 -0.1875,0.1092534 -0.06875,0.042791 -0.167188,0.09922 -0.21875,0.1253982 -0.05156,0.026178 -0.142969,0.077828 -0.203125,0.1147787 -0.06016,0.03695 -0.186719,0.1092978 -0.28125,0.1607722 -0.09453,0.051474 -0.194076,0.1127128 -0.221211,0.136085 -0.02713,0.023372 -0.05802,0.042495 -0.06864,0.042495 -0.01062,0 -0.104254,0.049789 -0.208083,0.1106416 l -0.188781,0.1106412 -0.0082,1.1091269 -0.0082,1.1091269 L 10.789063,8.8437125 10.5625,8.9666384 V 7.8732781 6.7799175 L 10.374164,6.8821463 C 10.27058,6.9383722 10.13347,7.0151047 10.069477,7.0526631 10.005483,7.0902216 9.9179688,7.1406587 9.875,7.1647456 9.7503303,7.2346316 9.5547344,7.3478772 9.453125,7.4090019 9.3459538,7.4734722 9.2779091,7.5118628 9.015625,7.6558366 8.9125,7.7124444 8.8070313,7.7755703 8.78125,7.7961166 8.755469,7.8166626 8.678125,7.8613206 8.609375,7.8953566 8.540625,7.9293926 8.4316406,7.9893436 8.3671875,8.0285816 L 8.25,8.0999234 v 1.0719516 1.071952 l -0.1111612,0.06559 c -0.061139,0.03607 -0.1138732,0.06497 -0.1171875,0.06421 -0.00331,-7.6e-4 -0.058761,-0.02922 -0.1232138,-0.06325 z M 8.109375,7.60782 C 8.178125,7.5654869 8.2765625,7.5094328 8.328125,7.483255 8.3796875,7.4570775 8.4710938,7.4059053 8.53125,7.3695397 8.5914063,7.3331737 8.7179688,7.2613044 8.8125,7.20983 8.9070312,7.1583556 9.0054688,7.0989522 9.03125,7.0778228 9.0570313,7.0566931 9.0924931,7.034055 9.1100544,7.0275153 9.1276153,7.0209756 9.2517469,6.9523438 9.3859019,6.875 9.5200569,6.7976562 9.7043772,6.6921875 9.7955025,6.640625 9.8866278,6.5890625 10.032787,6.5061928 10.120301,6.45647 c 0.08751,-0.049723 0.152724,-0.1007472 0.144911,-0.1133875 -0.0078,-0.012641 -0.06013,-0.04694 -0.11627,-0.076222 C 10.092805,6.2375794 9.990625,6.1799531 9.921875,6.1388028 9.853125,6.0976525 9.76875,6.0498309 9.734375,6.0325325 9.7,6.0152341 9.615625,5.9655916 9.546875,5.9222159 9.478125,5.87884 9.3796875,5.8219581 9.328125,5.7958119 9.2765625,5.7696653 9.178125,5.7132622 9.109375,5.6704709 9.040625,5.62768 8.95625,5.5781263 8.921875,5.5603519 8.8875,5.5425775 8.803125,5.4939356 8.734375,5.4522594 8.665625,5.4105828 8.58125,5.3623309 8.546875,5.3450325 8.5125,5.3277341 8.428125,5.2790431 8.359375,5.2368303 8.290625,5.1946175 8.1752906,5.1301684 8.1030766,5.09361 L 7.9717778,5.02714 7.8765138,5.091695 C 7.6639759,5.23572 7.6033247,5.2726806 7.46875,5.3401863 7.3914062,5.3789834 7.2648437,5.4510341 7.1875,5.5002984 7.0364291,5.5965241 6.9916684,5.6224484 6.703125,5.7808366 6.6,5.8374444 6.4945312,5.8993672 6.46875,5.9184425 6.4429688,5.9375178 6.3883078,5.9720256 6.3472809,5.9951262 6.1261703,6.1196253 6.0379491,6.1706084 5.953125,6.2229087 5.9015625,6.2547009 5.8382812,6.2900478 5.8125,6.3014575 5.7023316,6.3502125 5.6835816,6.3827145 5.744931,6.4185788 c 0.032502,0.019001 0.113735,0.067005 0.1805188,0.1066762 0.066784,0.039671 0.2058,0.1199925 0.308925,0.1784919 0.103125,0.058499 0.2367187,0.1358428 0.296875,0.171875 0.060156,0.036032 0.19375,0.1133756 0.296875,0.171875 0.103125,0.058499 0.2367187,0.1358428 0.296875,0.171875 0.1212219,0.072609 0.4218591,0.2438737 0.5994422,0.3414859 0.063287,0.034787 0.1238825,0.077513 0.1346569,0.094946 0.031427,0.05085 0.116145,0.034608 0.2502761,-0.047984 z M 5.53125,5.8894153 c 0.025781,-0.02063 0.061243,-0.04286 0.078804,-0.0494 C 5.627615,5.8334753 5.7471462,5.7676883 5.875679,5.6938212 6.09982,5.5650091 6.1909162,5.5112191 6.4140625,5.3759203 6.4699219,5.3420516 6.5578125,5.2929225 6.609375,5.266745 6.6609375,5.2405672 6.759375,5.18366 6.828125,5.1402841 6.896875,5.0969084 6.98125,5.0468762 7.015625,5.0291019 7.05,5.0113275 7.134375,4.9626856 7.203125,4.9210094 7.271875,4.8793328 7.3609087,4.8307512 7.4009775,4.8130497 7.5287469,4.7566047 7.5001194,4.7293734 7.0625,4.49108 6.9679687,4.4396056 6.8695312,4.3818828 6.84375,4.3628075 6.7901294,4.3231337 6.7115694,4.2778447 6.46875,4.1466228 6.3742187,4.0955375 6.2757812,4.0381328 6.25,4.0190575 6.1963794,3.9793837 6.1178194,3.9340947 5.875,3.8028728 5.7804687,3.7517875 5.6820312,3.6943828 5.65625,3.6753075 5.6094928,3.6407122 5.5783628,3.6224581 5.3228278,3.4797944 5.1888137,3.4049753 5.1868375,3.4048278 5.1016153,3.4632956 4.9565694,3.5628062 4.8344037,3.6360925 4.6875,3.7117197 4.6101562,3.7515372 4.4835937,3.8251322 4.40625,3.8752644 4.3289062,3.9253969 4.2234375,3.9884097 4.171875,4.0152931 4.1203125,4.0421766 4.05,4.0818597 4.015625,4.1034778 c -0.034375,0.021618 -0.11875,0.070796 -0.1875,0.1092828 -0.06875,0.038487 -0.18125,0.1050413 -0.25,0.1478985 C 3.509375,4.4035161 3.425,4.4521571 3.390625,4.46875 3.35625,4.485343 3.271875,4.534214 3.203125,4.5773512 3.134375,4.6204892 3.0325154,4.6795422 2.9767703,4.7085806 l -0.1013546,0.052797 0.1169796,0.070589 c 0.064339,0.038824 0.1872922,0.1074756 0.2732297,0.152559 0.085937,0.045084 0.2195313,0.1226781 0.296875,0.1724325 0.077344,0.049754 0.2109375,0.1270981 0.296875,0.171875 0.085937,0.044777 0.2195312,0.1221206 0.296875,0.171875 0.077344,0.049754 0.2109375,0.1270981 0.296875,0.171875 0.085937,0.044777 0.2195312,0.1220563 0.296875,0.1717322 0.077344,0.049676 0.2099066,0.1252575 0.2945841,0.1679588 l 0.153959,0.077639 0.142916,-0.081494 C 5.4200628,5.9635975 5.5054688,5.9100456 5.53125,5.8894153 Z m 5.4375,0.08032 c 0.04297,-0.029323 0.09922,-0.062755 0.125,-0.074294 0.02578,-0.011538 0.09609,-0.051026 0.15625,-0.08775 0.06016,-0.036724 0.186719,-0.1088869 0.28125,-0.1603613 0.09453,-0.051474 0.192969,-0.1091972 0.21875,-0.1282725 0.05362,-0.039674 0.132181,-0.084963 0.375,-0.2161847 0.09453,-0.051085 0.192969,-0.1091862 0.21875,-0.1291131 0.02578,-0.019927 0.103125,-0.063538 0.171875,-0.096913 0.06875,-0.033376 0.146094,-0.076411 0.171875,-0.095635 0.02578,-0.019223 0.13125,-0.080453 0.234375,-0.1360657 0.229737,-0.1238912 0.225451,-0.1197 0.152519,-0.1491621 -0.05013,-0.020251 -0.419843,-0.227538 -0.600588,-0.3367323 -0.02856,-0.017255 -0.1574,-0.091728 -0.286306,-0.1654938 -0.128906,-0.073767 -0.290625,-0.1688759 -0.359375,-0.2113547 -0.06875,-0.042479 -0.153125,-0.091387 -0.1875,-0.1086856 -0.03438,-0.017298 -0.11875,-0.06555 -0.1875,-0.1072269 -0.06875,-0.041676 -0.153125,-0.090318 -0.1875,-0.1080925 -0.03438,-0.017774 -0.11875,-0.067628 -0.1875,-0.1107862 -0.249068,-0.1563525 -0.259118,-0.1588122 -0.384915,-0.094196 -0.0633,0.032513 -0.136179,0.075815 -0.16196,0.096227 -0.02578,0.020412 -0.121036,0.077359 -0.211678,0.1265478 -0.09064,0.049189 -0.217204,0.12055 -0.28125,0.15858 C 9.9742762,3.8728006 9.8726562,3.9329275 9.8125,3.9683856 9.7523438,4.0038438 9.6539063,4.0626619 9.59375,4.0990928 9.5335938,4.1355234 9.4070312,4.2074456 9.3125,4.25892 9.2179688,4.3103944 9.1195313,4.3681172 9.09375,4.3871925 9.067969,4.4062675 9.013308,4.4407755 8.9722809,4.4638765 8.9312549,4.4869765 8.8468794,4.5349775 8.7847809,4.570544 8.7226829,4.60611 8.6328438,4.655216 8.5851391,4.6796674 l -0.086736,0.044457 0.071111,0.054803 c 0.039111,0.030142 0.1484547,0.096884 0.2429859,0.1483159 0.2494447,0.1357163 0.3224056,0.1779 0.375,0.2168144 0.025781,0.019075 0.1242188,0.07648 0.21875,0.1275653 0.2428194,0.1312219 0.3213794,0.176511 0.375,0.2161847 0.025781,0.019075 0.1242188,0.076798 0.21875,0.1282725 0.09453,0.051474 0.221094,0.1233966 0.28125,0.1598272 0.06016,0.036431 0.165625,0.097754 0.234375,0.1362734 0.06875,0.038519 0.153125,0.086557 0.1875,0.106751 0.0718,0.042177 0.154056,0.026942 0.265625,-0.049196 z M 8.1285981,4.3796666 c 0.04099,-0.031809 0.088895,-0.063449 0.1064563,-0.070312 0.040152,-0.015693 0.4578834,-0.2553644 0.6243206,-0.358201 0.06875,-0.042479 0.153125,-0.091387 0.1875,-0.1086856 0.034375,-0.017298 0.11875,-0.06555 0.1875,-0.1072269 0.06875,-0.041676 0.153125,-0.090318 0.1875,-0.1080925 0.034375,-0.017774 0.11875,-0.067628 0.1875,-0.1107862 0.06875,-0.043158 0.1601563,-0.095339 0.203125,-0.1159578 0.042969,-0.020619 0.099219,-0.05429 0.125,-0.074825 0.025781,-0.020535 0.120703,-0.075539 0.210938,-0.1222328 0.09023,-0.046693 0.164062,-0.090802 0.164062,-0.09802 0,-0.00722 -0.03164,-0.026987 -0.07031,-0.043932 C 10.203516,3.0444489 10.115625,2.9953351 10.046875,2.952252 9.978125,2.9091689 9.89375,2.8593764 9.859375,2.8416019 9.825,2.8238274 9.740625,2.775377 9.671875,2.7339343 9.603125,2.6924915 9.490625,2.6269038 9.421875,2.5881838 9.353125,2.5494638 9.26875,2.5002768 9.234375,2.4788792 9.2,2.4574817 9.1367188,2.4226362 9.09375,2.4014448 9.0507813,2.3802533 8.9945313,2.3461138 8.96875,2.3255792 8.9429688,2.3050446 8.8477138,2.2479981 8.7570719,2.1988093 8.6664303,2.1496204 8.5398678,2.0782595 8.4758219,2.0402294 8.4117762,2.0021994 8.3101562,1.9422865 8.25,1.9070897 8.1898438,1.8718928 8.1168572,1.8262673 8.0878075,1.8056996 8.0308331,1.7653607 7.9177703,1.8128012 7.625,1.9998906 7.5476562,2.0493157 7.4140625,2.12639 7.328125,2.1711668 7.2421875,2.2159437 7.1085937,2.2936608 7.03125,2.3438717 6.9539062,2.3940825 6.8484375,2.4571597 6.796875,2.4840431 6.7453125,2.5109265 6.675,2.5506097 6.640625,2.5722279 6.60625,2.5938462 6.521875,2.6430498 6.453125,2.6815694 6.384375,2.720089 6.2859375,2.7773765 6.234375,2.808875 6.0929644,2.8952599 5.9009919,3.0048951 5.8046875,3.0542688 c -0.047266,0.024232 -0.085342,0.053576 -0.084615,0.065208 0.00164,0.026175 0.1566794,0.1257368 0.3427406,0.220094 0.077172,0.039136 0.2035928,0.1117563 0.2809366,0.1613785 0.077344,0.049622 0.2109375,0.1268575 0.296875,0.1716343 0.085937,0.044777 0.2195312,0.1221207 0.296875,0.171875 0.077344,0.049754 0.2109375,0.1270982 0.296875,0.171875 0.085937,0.044777 0.2195312,0.1220563 0.296875,0.1717322 0.1754178,0.1126663 0.4416937,0.248576 0.4879731,0.249066 0.019167,1.875e-4 0.068385,-0.025656 0.1093753,-0.057465 z"
       id="path819"
       inkscape:connector-curvature="0" />
  </g>
</svg>
