<?xml version="1.0" encoding="UTF-8" standalone="no"?>
<!-- Created with Inkscape (http://www.inkscape.org/) -->

<svg
   version="1.1"
   id="svg2"
   width="1600"
   height="1600"
   viewBox="0 0 1600 1600"
   sodipodi:docname="subdivide_edges.svg"
   inkscape:version="1.2.2 (732a01da63, 2022-12-09)"
   xmlns:inkscape="http://www.inkscape.org/namespaces/inkscape"
   xmlns:sodipodi="http://sodipodi.sourceforge.net/DTD/sodipodi-0.dtd"
   xmlns="http://www.w3.org/2000/svg"
   xmlns:svg="http://www.w3.org/2000/svg"
   xmlns:rdf="http://www.w3.org/1999/02/22-rdf-syntax-ns#"
   xmlns:cc="http://creativecommons.org/ns#"
   xmlns:dc="http://purl.org/dc/elements/1.1/">
  <metadata
     id="metadata8">
    <rdf:RDF>
      <cc:Work
         rdf:about="">
        <dc:format>image/svg+xml</dc:format>
        <dc:type
           rdf:resource="http://purl.org/dc/dcmitype/StillImage" />
      </cc:Work>
    </rdf:RDF>
  </metadata>
  <defs
     id="defs6" />
  <sodipodi:namedview
     pagecolor="#808080"
     bordercolor="#666666"
     borderopacity="1"
     objecttolerance="10"
     gridtolerance="10"
     guidetolerance="10"
     inkscape:pageopacity="0"
     inkscape:pageshadow="2"
     inkscape:window-width="1993"
     inkscape:window-height="1009"
     id="namedview4"
     showgrid="false"
     inkscape:zoom="0.5"
     inkscape:cx="201"
     inkscape:cy="24"
     inkscape:window-x="-8"
     inkscape:window-y="-8"
     inkscape:window-maximized="1"
     inkscape:current-layer="SUBDIVIDE_EDGES"
     inkscape:showpageshadow="0"
     inkscape:pagecheckerboard="true"
     inkscape:deskcolor="#d1d1d1" />
  <g
     id="SUBDIVIDE_EDGES"
     transform="matrix(100,0,0,100,0,4.9999997e-5)"
     style="stroke-width:0.0114286">
    <path
       style="fill:none;stroke-width:0.000357143"
       d="M 0,8 V 0 h 8 8 v 8 8 H 8 0 Z m 11.120328,5.764269 c 2.053633,-1.026967 3.054096,-1.543141 3.097221,-1.597965 0.06326,-0.08042 0.0637,-0.105861 0.0637,-3.650679 0,-3.5581378 -2.09e-4,-3.5699616 -0.06444,-3.6516141 C 14.144062,4.7715216 8.1246353,1.7496538 8.0135891,1.7498727 7.9018972,1.750093 1.887246,4.7714487 1.8145684,4.8638431 1.7501664,4.9457172 1.75,4.95513 1.75,8.515625 v 3.569696 l 0.065373,0.08311 c 0.044145,0.05612 0.5794181,0.339937 1.6484375,0.874043 0.8706856,0.435014 1.6252522,0.814224 1.6768147,0.84269 0.3801909,0.209888 2.8262578,1.395725 2.8793422,1.395886 0.036763,1.25e-4 1.4319256,-0.68244 3.1003606,-1.516779 z"
       id="path823"
       inkscape:connector-curvature="0" />
    <path
       style="fill:#fecb32;stroke-width:0.000357143"
       d="M 6.4765625,13.948158 5.25,13.33679 v -1.450392 -1.450391 l 0.1089222,0.05543 C 5.4188294,10.52193 5.9808778,10.8 6.6079187,11.109375 l 1.1400744,0.5625 10e-4,1.445313 c 5.532e-4,0.794921 -0.00954,1.444643 -0.022434,1.443825 -0.012891,-8.19e-4 -0.5753906,-0.276603 -1.25,-0.612855 z M 8.2887503,13.117188 8.296875,11.671875 9.5,11.071638 c 0.661719,-0.33013 1.213812,-0.600833 1.226875,-0.601562 0.01306,-7.28e-4 0.02009,0.647209 0.01563,1.439863 l -0.0081,1.441189 -1.203125,0.605489 c -0.6617187,0.333019 -1.2138122,0.605578 -1.2268747,0.605686 -0.013062,9.4e-5 -0.020093,-0.650194 -0.015625,-1.445115 z m 3.0000047,-1.487161 0.0081,-1.458152 L 12.5,9.571805 c 0.661719,-0.3300384 1.213812,-0.6007416 1.226875,-0.6015625 0.01306,-8.219e-4 0.02009,0.6474256 0.01563,1.4405475 l -0.0081,1.442041 -1.22687,0.617674 -1.226869,0.617674 z M 3.5,12.459612 2.296875,11.859375 2.2887504,10.414063 c -0.00447,-0.7949224 -5.926e-4,-1.445313 0.00861,-1.445313 0.00921,0 0.5577837,0.269 1.219062,0.5977781 L 4.71875,10.164306 v 1.449097 c 0,0.797003 -0.00352,1.4485 -0.00781,1.447771 C 4.7066406,13.060446 4.1617188,12.789742 3.5,12.459612 Z M 6.4765625,10.448158 5.25,9.83679 V 8.40277 c 0,-0.7887109 0.00685,-1.43402 0.015216,-1.43402 0.00837,0 0.3353216,0.1563081 0.7265625,0.3473516 0.3912406,0.1910434 0.9463956,0.4617465 1.2336772,0.6015625 L 7.747786,8.171875 7.748896,9.6171875 c 6.093e-4,0.7949215 -0.00944,1.4446435 -0.02233,1.4438255 -0.012891,-8.19e-4 -0.5753907,-0.276603 -1.25,-0.612855 z M 8.2887488,9.6198963 8.296875,8.171875 9.5,7.5723575 c 0.661719,-0.3297347 1.213672,-0.6004378 1.226563,-0.6015625 0.01289,-0.00113 0.02292,0.6483456 0.02229,1.4432675 l -0.0011,1.4453125 -1.2019851,0.59375 c -0.6610915,0.326563 -1.2161853,0.598485 -1.2335415,0.604271 -0.021017,0.007 -0.028842,-0.473102 -0.02343,-1.4374997 z M 3.6780916,9.0480106 C 3.1143232,8.7664397 2.5695243,8.4822462 2.4674274,8.4164694 L 2.2817967,8.296875 2.2815233,6.8828125 C 2.281373,6.1050781 2.2886416,5.46875 2.2976757,5.46875 c 0.00903,0 0.5574716,0.269 1.2187499,0.5977781 L 4.71875,6.6643062 v 1.4490969 c 0,0.7970032 -0.00352,1.4485247 -0.00781,1.4478257 -0.0043,-7e-4 -0.4690775,-0.2316475 -1.0328459,-0.5132182 z M 11.28875,8.1171875 11.296875,6.671875 12.5,6.071805 C 13.161719,5.7417666 13.713672,5.4710634 13.726563,5.4702425 13.739453,5.4694206 13.75,6.1075406 13.75,6.8882847 V 8.3078191 L 13.523438,8.4441728 C 13.321067,8.5659666 11.336956,9.5625 11.296833,9.5625 c -0.0089,0 -0.01255,-0.6503906 -0.0081,-1.4453125 z M 6.8046875,7.1157981 C 6.1558594,6.7896459 5.6256116,6.5141497 5.6263591,6.5035844 5.6271059,6.4930194 6.1614781,6.2205225 6.8138516,5.8980356 L 7.9999853,5.3116966 9.2039059,5.9102684 C 9.8660622,6.2394828 10.403141,6.5135256 10.397414,6.5192522 10.378255,6.5384119 8.0027394,7.7188206 7.9934925,7.7137763 7.9884778,7.7110419 7.4535156,7.4419506 6.8046875,7.1157981 Z M 9.8056366,5.6095331 8.5960441,5.0079637 9.7745847,4.4209606 C 10.422782,4.0981091 10.967188,3.8341328 10.984375,3.8343472 c 0.04939,6.156e-4 2.421875,1.1582125 2.421875,1.1816959 0,0.00725 -2.236249,1.1279094 -2.343948,1.174636 C 11.03353,6.2031622 10.54496,5.9772225 9.8056366,5.6095331 Z M 3.8009953,5.6093456 C 3.1673241,5.2930612 2.6428779,5.0282947 2.6355594,5.0209759 2.620178,5.0055947 4.9686156,3.8346056 5.015625,3.8342166 5.0328125,3.8340603 5.5772159,4.0981078 6.2254103,4.4209584 L 7.4039459,5.0079587 6.2181116,5.5977294 C 5.5659028,5.9221031 5.0144681,6.186805 4.9927013,6.1859553 4.9709344,6.1851053 4.4346666,5.9256319 3.8009953,5.6093466 Z M 6.8023769,4.1107922 C 6.1694653,3.7952319 5.6450156,3.5304325 5.6369334,3.52235 5.6205566,3.5059734 7.9662175,2.3341606 8.015625,2.3340363 8.0328125,2.3339926 8.5777203,2.5983589 9.2265309,2.921516 L 10.406187,3.5090744 9.2194403,4.0982872 C 8.5667297,4.4223544 8.0147906,4.6868344 7.9929094,4.6860206 7.9710278,4.6852081 7.4352884,4.4263547 6.8023769,4.1107931 Z"
       id="path821"
       inkscape:connector-curvature="0" />
    <path
       style="fill:#323232;stroke-width:0.000357143"
       d="M 6.59375,14.608881 C 5.8460937,14.239301 5.1921875,13.913627 5.140625,13.885162 5.0890625,13.856696 4.3344959,13.477486 3.4638103,13.042472 2.3947909,12.508366 1.8595181,12.224551 1.8153728,12.168429 L 1.75,12.085321 V 8.515625 C 1.75,4.95513 1.7501656,4.9457172 1.8145684,4.8638431 1.887246,4.7714487 7.9018972,1.750093 8.0135891,1.7498727 8.1246353,1.749654 14.144062,4.7715216 14.216813,4.8640109 c 0.06423,0.081652 0.06444,0.093476 0.06444,3.6516141 0,3.544818 -4.44e-4,3.570261 -0.0637,3.650679 -0.07315,0.093 -6.0863577,3.11508 -6.1975818,3.114744 C 7.9832041,15.280936 7.3414063,14.978461 6.59375,14.608881 Z m 1.1552466,-1.491693 -0.001,-1.445313 -1.1400743,-0.5625 C 5.9808781,10.8 5.4188297,10.52193 5.3589225,10.491441 L 5.25,10.436007 v 1.450391 1.450392 l 1.2265625,0.611368 c 0.6746094,0.336252 1.2371094,0.612037 1.25,0.612855 0.012891,8.19e-4 0.022986,-0.648904 0.022434,-1.443825 z m 1.7822534,0.839429 1.203125,-0.605489 0.0081,-1.441189 c 0.0045,-0.792654 -0.0026,-1.440592 -0.01563,-1.439863 -0.01306,7.28e-4 -0.565156,0.271432 -1.226875,0.601562 l -1.203125,0.600237 -0.00812,1.445313 c -0.00447,0.794921 0.00256,1.445223 0.015625,1.445115 0.013063,-9.4e-5 0.565156,-0.272667 1.2268747,-0.605686 z M 13.7425,10.41079 C 13.747,9.6176681 13.7399,8.9694216 13.72687,8.9702425 13.713812,8.9710644 13.161719,9.2417666 12.5,9.571805 l -1.203125,0.60007 -0.0081,1.458152 -0.0081,1.458152 1.226869,-0.617674 1.22687,-0.617674 z M 4.71875,11.613403 V 10.164306 L 3.5164256,9.5665281 C 2.8551473,9.23775 2.3065694,8.96875 2.2973636,8.96875 c -0.00921,0 -0.013082,0.6503906 -0.00861,1.445313 L 2.296875,11.859375 3.5,12.459612 c 0.6617188,0.33013 1.2066406,0.600833 1.2109375,0.601562 0.0043,7.29e-4 0.00781,-0.650768 0.00781,-1.447771 z M 7.7488928,9.6171875 7.7477866,8.171875 7.2254562,7.9176641 C 6.9381747,7.7778481 6.3830197,7.507145 5.9917791,7.3161016 5.6005372,7.1250581 5.2735841,6.96875 5.2652156,6.96875 5.2568469,6.96875 5.25,7.6140591 5.25,8.40277 v 1.43402 l 1.2265625,0.611368 c 0.6746094,0.336252 1.2371094,0.612037 1.25,0.612855 0.012891,8.19e-4 0.022939,-0.648904 0.02233,-1.4438255 z m 1.7968275,0.8359375 1.2019847,-0.59375 0.0011,-1.4453125 c 6.31e-4,-0.7949219 -0.0094,-1.4443922 -0.02229,-1.4432675 -0.01289,0.00113 -0.564844,0.2718278 -1.2265626,0.6015625 L 8.296875,8.171875 8.2887488,9.6198963 c -0.00541,0.9643977 0.00241,1.4445067 0.02343,1.4374997 0.017356,-0.0058 0.57245,-0.277708 1.2335415,-0.604271 z M 4.71875,8.1134031 V 6.6643062 L 3.5164256,6.0665281 C 2.8551473,5.73775 2.3067098,5.46875 2.2976757,5.46875 c -0.00903,0 -0.016303,0.6363281 -0.016152,1.4140625 l 2.719e-4,1.4140625 0.1856307,0.1195944 c 0.1363935,0.087873 2.190917,1.1362009 2.2435101,1.1447594 0.0043,7e-4 0.00781,-0.6508225 0.00781,-1.4478257 z m 7.586208,0.95811 c 0.545554,-0.2700428 1.09387,-0.5523459 1.21848,-0.6273403 L 13.75,8.3078191 V 6.8882847 C 13.75,6.1075406 13.73945,5.4694216 13.72656,5.4702425 13.713672,5.4710644 13.161719,5.7417666 12.5,6.071805 l -1.203125,0.60007 -0.0081,1.4453125 c -0.0045,0.7949219 -8.31e-4,1.4453125 0.0081,1.4453125 0.0089,0 0.46257,-0.2209441 1.008125,-0.4909869 z M 9.1948062,7.1242072 C 9.8505141,6.7972087 10.391688,6.5249791 10.397414,6.5192522 10.403141,6.5135256 9.8660622,6.2394828 9.2039059,5.9102684 L 7.9999853,5.3116966 6.8138516,5.8980356 C 6.1614781,6.2205225 5.6271062,6.4930194 5.6263591,6.5035844 c -7.469e-4,0.010565 0.5295003,0.2860615 1.1783284,0.6122137 0.6488281,0.3261525 1.1837903,0.5952425 1.188805,0.5979781 0.00501,0.00273 0.5456059,-0.2625706 1.2013137,-0.589569 z M 12.257813,5.5971003 c 0.63164,-0.3152353 1.148437,-0.5767109 1.148437,-0.5810572 0,-0.023483 -2.372484,-1.1810803 -2.421875,-1.1816959 -0.01719,-2.188e-4 -0.561593,0.2637619 -1.2097903,0.5866134 L 8.5960441,5.0079637 9.8056366,5.6095331 c 0.7393234,0.3676894 1.2278934,0.5936291 1.2566654,0.581146 0.02589,-0.011233 0.56387,-0.2783432 1.195511,-0.5935788 z M 6.2181116,5.5977284 7.4039459,5.0079578 6.2254103,4.4209575 C 5.5772159,4.0981078 5.0328125,3.8340741 5.015625,3.8342166 4.9686156,3.8346072 2.620178,5.0055947 2.6355594,5.0209759 c 0.032019,0.032019 2.3215665,1.163591 2.3571418,1.1649794 0.021767,8.5e-4 0.5732016,-0.2638522 1.2254104,-0.5882269 z M 9.2194403,4.0982863 10.406187,3.5090734 9.2265309,2.9215151 C 8.5777203,2.5983589 8.0328125,2.3339931 8.015625,2.3340363 7.9662175,2.3341613 5.6205566,3.5059734 5.6369334,3.52235 5.67004,3.5554569 7.9562262,4.6846566 7.9929094,4.6860206 8.0147906,4.6868331 8.5667297,4.4223544 9.2194403,4.0982872 Z"
       id="path819"
       inkscape:connector-curvature="0" />
  </g>
</svg>
