<?xml version="1.0" encoding="UTF-8" standalone="no"?>
<!-- Created with Inkscape (http://www.inkscape.org/) -->

<svg
   version="1.1"
   id="svg2"
   width="1600"
   height="1600"
   viewBox="0 0 1600 1600"
   sodipodi:docname="super_two.svg"
   inkscape:version="1.2.2 (732a01da63, 2022-12-09)"
   xmlns:inkscape="http://www.inkscape.org/namespaces/inkscape"
   xmlns:sodipodi="http://sodipodi.sourceforge.net/DTD/sodipodi-0.dtd"
   xmlns="http://www.w3.org/2000/svg"
   xmlns:svg="http://www.w3.org/2000/svg"
   xmlns:rdf="http://www.w3.org/1999/02/22-rdf-syntax-ns#"
   xmlns:cc="http://creativecommons.org/ns#"
   xmlns:dc="http://purl.org/dc/elements/1.1/">
  <metadata
     id="metadata8">
    <rdf:RDF>
      <cc:Work
         rdf:about="">
        <dc:format>image/svg+xml</dc:format>
        <dc:type
           rdf:resource="http://purl.org/dc/dcmitype/StillImage" />
      </cc:Work>
    </rdf:RDF>
  </metadata>
  <defs
     id="defs6" />
  <sodipodi:namedview
     pagecolor="#808080"
     bordercolor="#666666"
     borderopacity="1"
     objecttolerance="10"
     gridtolerance="10"
     guidetolerance="10"
     inkscape:pageopacity="0"
     inkscape:pageshadow="2"
     inkscape:window-width="1993"
     inkscape:window-height="1009"
     id="namedview4"
     showgrid="false"
     inkscape:zoom="0.5"
     inkscape:cx="9"
     inkscape:cy="8"
     inkscape:window-x="-8"
     inkscape:window-y="-8"
     inkscape:window-maximized="1"
     inkscape:current-layer="SUPER_TWO"
     inkscape:showpageshadow="0"
     inkscape:pagecheckerboard="true"
     inkscape:deskcolor="#d1d1d1" />
  <g
     id="SUPER_TWO"
     transform="matrix(100,0,0,100,0,4.9999997e-5)"
     style="stroke-width:0.0114286">
    <path
       style="fill:none;stroke-width:0.000357143"
       d="M 0,8 V 0 h 8 8 v 8 8 H 8 0 Z M 13.46875,8.578125 V 7.84375 h -1.705729 c -1.004359,0 -1.701446,-0.011626 -1.695313,-0.028275 0.0057,-0.015551 0.333855,-0.3129778 0.729167,-0.6609475 1.652156,-1.4542931 2.069376,-1.879581 2.323936,-2.3688785 0.189116,-0.363505 0.254293,-0.6374915 0.253646,-1.0662706 -0.0011,-0.703519 -0.151874,-1.0951416 -0.590932,-1.534492 C 12.56164,1.9628534 12.46434,1.8914248 12.21867,1.7702247 11.655969,1.4926188 10.995976,1.393413 10.028264,1.440977 9.4916184,1.4673537 9.0392422,1.5446091 8.359375,1.7259846 l -0.5,0.1333904 -0.00832,0.8359375 C 7.846475,3.1550781 7.847265,3.53125 7.852805,3.53125 c 0.00554,0 0.1639731,-0.08444 0.3520728,-0.1876444 C 8.6172731,3.1173357 9.0858763,2.9292904 9.4587559,2.8404368 9.6841913,2.7867178 9.8054981,2.7770236 10.125,2.7871941 c 0.417464,0.013289 0.591017,0.065524 0.835782,0.2515481 0.368495,0.28006 0.532998,0.8113187 0.395079,1.2758984 C 11.250496,4.6695644 11.13495,4.8421053 10.738483,5.2365541 10.444144,5.529395 8.7982047,7.0129191 7.9595937,7.7412328 L 7.84375,7.8418406 V 8.5771703 9.3125 h 2.8125 2.8125 z"
       id="path821"
       inkscape:connector-curvature="0" />
    <path
       style="fill:#fefefe;stroke-width:0.000357143"
       d="M 7.84375,8.5771703 V 7.8418406 L 7.9595941,7.7412328 C 8.798205,7.0129191 10.444144,5.529395 10.738484,5.2365541 11.134951,4.8421053 11.250496,4.6695644 11.355861,4.3146406 11.49378,3.8500609 11.329277,3.3188022 10.960783,3.0387422 10.716018,2.8527178 10.542464,2.8004829 10.125,2.7871941 9.8054984,2.7770236 9.6841916,2.7867178 9.4587563,2.8404368 9.0858766,2.9292904 8.6172734,3.1173357 8.2048753,3.3436056 8.0167756,3.44681 7.8583428,3.53125 7.8528025,3.53125 c -0.00554,0 -0.00633,-0.3761719 -0.00175,-0.8359375 l 0.00832,-0.8359375 0.5,-0.1333904 C 9.0392422,1.5446091 9.4916184,1.4673537 10.028264,1.440977 c 0.967712,-0.047564 1.627705,0.051642 2.190406,0.3292478 0.24567,0.1212 0.34297,0.1926286 0.564855,0.4146613 0.439058,0.4393504 0.589872,0.830973 0.590933,1.534492 6.46e-4,0.4287791 -0.06453,0.7027656 -0.253647,1.0662706 -0.25456,0.4892975 -0.67178,0.9145854 -2.323936,2.3688785 -0.395312,0.3479697 -0.723437,0.6453962 -0.729167,0.6609475 -0.0061,0.016649 0.690954,0.028275 1.695313,0.028275 H 13.46875 V 8.578125 9.3125 h -2.8125 -2.8125 z"
       id="path819"
       inkscape:connector-curvature="0" />
  </g>
</svg>
