<?xml version="1.0" encoding="UTF-8" standalone="no"?>
<!-- Created with Inkscape (http://www.inkscape.org/) -->

<svg
   version="1.1"
   id="svg2"
   width="1600"
   height="1600"
   viewBox="0 0 1600 1600"
   sodipodi:docname="surface_ntorus.svg"
   inkscape:version="1.2.2 (732a01da63, 2022-12-09)"
   xmlns:inkscape="http://www.inkscape.org/namespaces/inkscape"
   xmlns:sodipodi="http://sodipodi.sourceforge.net/DTD/sodipodi-0.dtd"
   xmlns="http://www.w3.org/2000/svg"
   xmlns:svg="http://www.w3.org/2000/svg"
   xmlns:rdf="http://www.w3.org/1999/02/22-rdf-syntax-ns#"
   xmlns:cc="http://creativecommons.org/ns#"
   xmlns:dc="http://purl.org/dc/elements/1.1/">
  <metadata
     id="metadata8">
    <rdf:RDF>
      <cc:Work
         rdf:about="">
        <dc:format>image/svg+xml</dc:format>
        <dc:type
           rdf:resource="http://purl.org/dc/dcmitype/StillImage" />
      </cc:Work>
    </rdf:RDF>
  </metadata>
  <defs
     id="defs6" />
  <sodipodi:namedview
     pagecolor="#808080"
     bordercolor="#666666"
     borderopacity="1"
     objecttolerance="10"
     gridtolerance="10"
     guidetolerance="10"
     inkscape:pageopacity="0"
     inkscape:pageshadow="2"
     inkscape:window-width="1993"
     inkscape:window-height="1009"
     id="namedview4"
     showgrid="false"
     inkscape:zoom="0.5"
     inkscape:cx="9"
     inkscape:cy="8"
     inkscape:window-x="-8"
     inkscape:window-y="-8"
     inkscape:window-maximized="1"
     inkscape:current-layer="SURFACE_NTORUS"
     inkscape:showpageshadow="0"
     inkscape:pagecheckerboard="true"
     inkscape:deskcolor="#d1d1d1" />
  <g
     id="SURFACE_NTORUS"
     transform="matrix(100,0,0,100,0,4.9999997e-5)"
     style="stroke-width:0.0114286">
    <path
       style="fill:none;stroke-width:0.000357143"
       d="M 4,14.612789 V 13.225578 L 4.3046875,13.34493 C 5.4366487,13.788343 6.6285838,13.999465 8,13.999465 c 1.3714162,0 2.563351,-0.211122 3.695313,-0.654535 L 12,13.225578 V 14.612789 16 H 8 4 Z M 0.00318067,10.257813 C 0.0060519,8.6851247 0.01047112,8.5399478 0.04860328,8.765625 0.2232041,9.7989631 0.74831341,10.774979 1.5826687,11.616979 L 1.9622124,12 H 0.98110619 0 Z M 14.417331,11.616979 c 0.834356,-0.842 1.359465,-1.8180159 1.534066,-2.851354 0.03813,-0.2256772 0.04255,-0.0805 0.04542,1.492188 L 16,12 H 15.018894 14.037788 Z M 7.5,7.9813256 C 6.7450491,7.9148131 6.1464809,7.808425 5.6875,7.6591762 5.3290647,7.5426222 5.2765994,7.5135475 5.34375,7.46868 5.4389159,7.4050937 5.9954578,7.2421303 6.359375,7.1712903 6.9719062,7.052055 7.3237909,7.0194984 8,7.0194984 c 0.8817825,0 1.6545519,0.1073775 2.3125,0.3213253 0.358435,0.1165541 0.410901,0.1456288 0.34375,0.1904963 C 10.486163,7.6449653 9.6912597,7.8407606 9.0667897,7.922825 8.7062334,7.9702072 7.7704078,8.0051491 7.5,7.9813256 Z M 0.00318067,5.7421875 0,4 H 0.98110619 1.9622124 L 1.5826687,4.3830212 C 0.74831341,5.2250209 0.2232041,6.2010369 0.04860328,7.234375 0.01047112,7.4600522 0.0060519,7.3148753 0.00318067,5.7421875 Z M 15.956124,7.2857962 C 15.94474,7.1851716 15.900282,6.9715237 15.857329,6.8110231 15.618745,5.9195125 15.140027,5.1123378 14.417331,4.3830213 L 14.037788,4 H 15.018894 16 v 1.734375 c 0,0.9539062 -0.0052,1.734375 -0.01159,1.734375 -0.0064,0 -0.0209,-0.082329 -0.03229,-0.1829538 z M 4,1.3872111 V 0 h 4 4 V 1.3872111 2.7744223 L 11.695313,2.6550698 C 10.563351,2.211657 9.3714162,2.0005346 8,2.0005346 c -1.3714163,0 -2.5633513,0.2111224 -3.6953125,0.6545352 L 4,2.7744222 Z"
       id="path829"
       inkscape:connector-curvature="0" />
    <path
       style="fill:#fefefe;stroke-width:0.000357143"
       d="M 7.1711169,12.966181 C 6.7640403,12.92977 6.3011131,12.856967 5.8816716,12.763393 5.1314116,12.596015 4,12.170093 4,12.055032 4,12.013602 3.9745003,12 3.8968328,12 3.6667563,12 2.8081085,11.404613 2.296875,10.890588 0.57473316,9.1590422 0.57473316,6.8409578 2.296875,5.1094122 2.8081085,4.5953872 3.6667563,4 3.8968328,4 3.9745003,4 4,3.9863978 4,3.9449678 4,3.8299075 5.1314116,3.4039847 5.8816716,3.2366075 c 1.4095318,-0.314456 2.827125,-0.314456 4.2366564,0 C 10.868588,3.4039847 12,3.8299075 12,3.9449678 12,3.9863978 12.0255,4 12.103167,4 c 0.06886,0 0.199125,0.056703 0.391758,0.1705331 0.908543,0.5368741 1.650249,1.2931091 2.076008,2.1166732 0.790719,1.5295206 0.463613,3.2646909 -0.867808,4.6033817 C 13.191892,11.404613 12.333244,12 12.103167,12 12.0255,12 12,12.013602 12,12.055032 c 0,0.115061 -1.131412,0.540983 -1.881672,0.708361 -0.9459105,0.211025 -2.025003,0.285274 -2.9472111,0.202788 z M 9.046875,11.920868 c 2.162388,-0.286944 3.889336,-1.281639 4.609926,-2.655243 l 0.131149,-0.25 -0.802932,-0.00835 -0.802931,-0.00835 -0.233204,0.1453501 C 11.486609,9.4324059 10.798988,9.6777566 10.044398,9.8238241 9.3329959,9.9615319 9.04212,9.984375 8,9.984375 6.95788,9.984375 6.6670041,9.9615319 5.9556016,9.8238241 5.2010116,9.6777566 4.5133906,9.4324059 4.0511175,9.1442838 l -0.2332044,-0.1453501 -0.8029316,0.00835 -0.8029316,0.00835 0.1311494,0.25 C 2.7575167,10.055415 3.4680153,10.694418 4.5060006,11.210799 5.3228078,11.617147 6.3224334,11.87428 7.5,11.980945 c 0.2698991,0.02445 1.1747719,-0.01069 1.546875,-0.06007 z M 9.2635853,8.9236281 C 10.393135,8.7681159 11.236758,8.4735041 11.677577,8.0806084 11.870924,7.9082806 11.999621,7.6758138 11.999008,7.5 11.998602,7.3833234 11.904092,7.1464425 11.821563,7.0552494 11.774783,7.0035581 11.777734,7 11.867385,7 h 0.09582 L 11.920716,6.8203125 C 11.593928,5.4383837 10.412363,4.3901162 8.8241875,4.0731156 c -0.3858231,-0.07701 -1.2625519,-0.07701 -1.648375,0 C 5.5876366,4.3901162 4.4060722,5.4383837 4.0792841,6.8203125 L 4.0367931,7 h 0.095822 c 0.089651,0 0.092602,0.00356 0.045822,0.055249 C 4.0959078,7.1464425 4.0013981,7.3833234 4.0009916,7.5 4.0003791,7.6758137 4.1290756,7.9082806 4.3224231,8.0806084 4.8430741,8.5446572 5.8728291,8.8548428 7.3125,8.9812872 7.6130628,9.0076853 8.9372891,8.9685513 9.2635853,8.9236281 Z"
       id="path827"
       inkscape:connector-curvature="0" />
    <path
       style="fill:#98cbfe;stroke-width:0.000357143"
       d="m 1,14 v -1 h 1 1 v 1 1 H 2 1 Z m 12,0 v -1 h 1 1 v 1 1 H 14 13 Z M 1,2 V 1 H 2 3 V 2 3 H 2 1 Z M 13,2 V 1 h 1 1 v 1 1 h -1 -1 z"
       id="path825"
       inkscape:connector-curvature="0" />
    <path
       style="fill:#989898;stroke-width:0.000357143"
       d="M 7.5,11.980936 C 7.4226562,11.97393 7.1835937,11.946418 6.96875,11.919799 4.8281272,11.654577 3.0660085,10.64346 2.3431993,9.265625 l -0.1311494,-0.25 0.8029316,-0.00835 0.8029316,-0.00835 0.2332044,0.1453501 C 4.5133906,9.4324059 5.2010116,9.6777566 5.9556016,9.8238241 6.6670041,9.9615319 6.95788,9.984375 8,9.984375 c 1.04212,0 1.3329959,-0.022843 2.044398,-0.1605509 0.75459,-0.1460675 1.442211,-0.3914182 1.904485,-0.6795403 l 0.233204,-0.1453501 0.802931,0.00835 0.802932,0.00835 -0.131149,0.25 c -0.229045,0.4366109 -0.540839,0.8175733 -0.953676,1.1652413 -0.932075,0.78494 -2.182218,1.294401 -3.65625,1.490002 C 8.6747719,11.970246 7.7698991,12.005383 7.5,11.980936 Z M 4.0792841,6.8203125 C 4.4060722,5.4383837 5.5876366,4.3901162 7.1758125,4.0731156 c 0.3858231,-0.07701 1.2625519,-0.07701 1.648375,0 1.5881755,0.3170006 2.7697405,1.3652681 3.0965285,2.7471969 L 11.963207,7 h -0.09142 C 11.810702,7 11.726075,6.9558956 11.616746,6.8670809 11.152486,6.4899356 10.251941,6.1972544 9.125,6.0572531 c -0.4308872,-0.05353 -1.8191128,-0.05353 -2.25,0 C 5.7480594,6.1972544 4.8475137,6.4899356 4.3832541,6.8670809 4.2739247,6.9558956 4.1892984,7 4.1282131,7 h -0.09142 z"
       id="path823"
       inkscape:connector-curvature="0" />
    <path
       style="fill:#3232fe;stroke-width:0.000357143"
       d="m 0,14 v -2 h 2 2 v 2 2 H 2 0 Z m 3,0 V 13 H 2 1 v 1 1 h 1 1 z m 9,0 v -2 h 2 2 v 2 2 h -2 -2 z m 3,0 v -1 h -1 -1 v 1 1 h 1 1 z M 0,2 V 0 H 2 4 V 2 4 H 2 0 Z M 3,2 V 1 H 2 1 v 1 1 h 1 1 z m 9,0 V 0 h 2 2 v 2 2 h -2 -2 z m 3,0 V 1 h -1 -1 v 1 1 h 1 1 z"
       id="path821"
       inkscape:connector-curvature="0" />
    <path
       style="fill:#323232;stroke-width:0.000357143"
       d="M 6.9836169,13.968201 C 6.0662478,13.879577 5.1010472,13.655615 4.3125,13.348405 L 4.015625,13.232745 4.007095,12.678873 C 4.002405,12.374243 4.0075753,12.125 4.018592,12.125 c 0.011017,0 0.1484509,0.05805 0.3054084,0.128995 1.0281159,0.464723 2.4125134,0.74547 3.6760025,0.74547 1.2634891,0 2.6478871,-0.280747 3.6760021,-0.74547 C 11.83296,12.183048 11.970069,12.125 11.98069,12.125 11.99131,12.125 12,12.371593 12,12.672986 v 0.547985 l -0.148437,0.06364 c -0.619581,0.265646 -1.586278,0.519986 -2.429688,0.639257 -0.4044687,0.0572 -2.0040303,0.08628 -2.4382581,0.04433 z M 1.5826687,11.616979 C 0.73661256,10.763171 0.21683032,9.7884253 0.04601982,8.7353069 c -0.05875667,-0.3622594 -0.05875667,-1.1083544 0,-1.4706138 C 0.21683032,6.2115747 0.73661256,5.2368287 1.5826687,4.3830212 L 1.9622124,4 H 2.877939 3.7936656 L 3.505075,4.1705331 C 2.153937,4.9689447 1.254387,6.1674159 1.0471452,7.445235 0.78123778,9.0847772 1.7328927,10.782253 3.505075,11.829467 L 3.7936656,12 H 2.877939 1.9622124 Z m 10.9122563,0.212488 c 1.351138,-0.798412 2.250688,-1.9968829 2.45793,-3.274702 0.265907,-1.6395422 -0.685748,-3.3370178 -2.45793,-4.3842319 L 12.206334,4 h 0.915727 0.915727 l 0.379543,0.3830212 c 0.846057,0.8538075 1.365839,1.8285535 1.536649,2.8816719 0.05876,0.3622594 0.05876,1.1083544 0,1.4706138 -0.17081,1.0531184 -0.690592,2.0278641 -1.536649,2.8816721 L 14.037788,12 H 13.122061 12.206334 Z M 7.3125,8.9812872 C 5.8728291,8.8548428 4.8430741,8.5446572 4.3224231,8.0806084 4.1293444,7.9085203 4.0006106,7.6762609 4.0006106,7.5 c 0,-0.1762609 0.1287338,-0.4085203 0.3218125,-0.5806084 C 4.7769722,6.5142584 5.6966228,6.2036444 6.875,6.0572531 c 0.4308872,-0.05353 1.8191128,-0.05353 2.25,0 1.481536,0.1840535 2.547572,0.6315347 2.800991,1.1757497 0.09271,0.1990988 0.09271,0.3348956 0,0.5339944 C 11.679592,8.2961384 10.685965,8.7278003 9.2635853,8.9236281 8.9372891,8.9685512 7.6130628,9.0076853 7.3125,8.9812872 Z M 9.0667897,7.922825 C 9.6912597,7.8407606 10.486163,7.6449653 10.65625,7.53132 10.723401,7.4864525 10.670935,7.4573778 10.3125,7.3408237 9.6545519,7.1268759 8.8817825,7.0194984 8,7.0194984 c -0.6762091,0 -1.0280938,0.032557 -1.640625,0.1517919 C 5.9954578,7.2421303 5.4389159,7.4050937 5.34375,7.46868 5.2765994,7.5135475 5.3290647,7.5426222 5.6875,7.6591762 6.1464809,7.808425 6.7450491,7.9148131 7.5,7.9813256 7.7704078,8.0051491 8.7062334,7.9702072 9.0667897,7.922825 Z M 4.0070916,3.3211275 4.015625,2.7672548 4.3125,2.6515953 C 5.1548772,2.3234135 6.1009484,2.1111215 7.09375,2.0275015 c 0.5297334,-0.044617 1.8572356,-0.01655 2.328125,0.049224 0.836539,0.1168475 1.808552,0.3723482 2.429688,0.6386609 L 12,2.7790289 V 3.3270144 C 12,3.6284066 11.99131,3.875 11.98069,3.875 11.970069,3.875 11.83296,3.8169525 11.676002,3.7460053 10.647887,3.2812819 9.2634891,3.0005346 8,3.0005346 c -1.2634891,0 -2.6478866,0.2807473 -3.6760025,0.7454707 C 4.16704,3.8169525 4.0296062,3.875 4.0185891,3.875 c -0.011017,0 -0.016191,-0.2492428 -0.011497,-0.5538725 z"
       id="path819"
       inkscape:connector-curvature="0" />
  </g>
</svg>
