<?xml version="1.0" encoding="UTF-8" standalone="no"?>
<!-- Created with Inkscape (http://www.inkscape.org/) -->

<svg
   version="1.1"
   id="svg2"
   width="1600"
   height="1600"
   viewBox="0 0 1600 1600"
   sodipodi:docname="surface_ncylinder.svg"
   inkscape:version="1.2.2 (732a01da63, 2022-12-09)"
   xmlns:inkscape="http://www.inkscape.org/namespaces/inkscape"
   xmlns:sodipodi="http://sodipodi.sourceforge.net/DTD/sodipodi-0.dtd"
   xmlns="http://www.w3.org/2000/svg"
   xmlns:svg="http://www.w3.org/2000/svg"
   xmlns:rdf="http://www.w3.org/1999/02/22-rdf-syntax-ns#"
   xmlns:cc="http://creativecommons.org/ns#"
   xmlns:dc="http://purl.org/dc/elements/1.1/">
  <metadata
     id="metadata8">
    <rdf:RDF>
      <cc:Work
         rdf:about="">
        <dc:format>image/svg+xml</dc:format>
        <dc:type
           rdf:resource="http://purl.org/dc/dcmitype/StillImage" />
      </cc:Work>
    </rdf:RDF>
  </metadata>
  <defs
     id="defs6" />
  <sodipodi:namedview
     pagecolor="#808080"
     bordercolor="#666666"
     borderopacity="1"
     objecttolerance="10"
     gridtolerance="10"
     guidetolerance="10"
     inkscape:pageopacity="0"
     inkscape:pageshadow="2"
     inkscape:window-width="1993"
     inkscape:window-height="1009"
     id="namedview4"
     showgrid="false"
     inkscape:zoom="0.5"
     inkscape:cx="9"
     inkscape:cy="8"
     inkscape:window-x="-8"
     inkscape:window-y="-8"
     inkscape:window-maximized="1"
     inkscape:current-layer="SURFACE_NCYLINDER"
     inkscape:showpageshadow="0"
     inkscape:pagecheckerboard="true"
     inkscape:deskcolor="#d1d1d1" />
  <g
     id="SURFACE_NCYLINDER"
     transform="matrix(100,0,0,100,0,4.9999997e-5)"
     style="stroke-width:0.0114286">
    <path
       style="fill:none;stroke-width:0.000357143"
       d="m 4,15.671875 c 0,-0.180469 0.00519,-0.328125 0.011533,-0.328125 0.00634,0 0.2207963,0.06934 0.4765625,0.154093 0.7244503,0.240055 1.5305694,0.398422 2.3712797,0.465851 0.2560325,0.02053 -0.064933,0.02868 -1.2578125,0.03194 L 4,16 Z m 5.140625,0.291819 c 0.8407103,-0.06743 1.646829,-0.225796 2.37128,-0.465851 0.255766,-0.08475 0.470219,-0.154093 0.476562,-0.154093 0.0063,0 0.01153,0.147656 0.01153,0.328125 V 16 L 10.398435,15.9956 C 9.2055551,15.9923 8.8845895,15.9842 9.140622,15.96366 Z M 0,8 V 4 h 1 1 v 4 4 H 1 0 Z M 14,8 V 4 h 1 1 v 4 4 H 15 14 Z M 4,0.828125 V 0 h 4 4 v 0.828125 c 0,0.4554688 -0.0052,0.828125 -0.01153,0.828125 -0.0063,0 -0.220796,-0.069342 -0.476562,-0.1540931 C 10.465939,1.1555637 9.3779819,1 8,1 6.6220181,1 5.5340612,1.1555637 4.4880953,1.5021569 4.2323291,1.5869081 4.0178759,1.65625 4.0115328,1.65625 4.0051897,1.65625 4,1.2835938 4,0.828125 Z"
       id="path831"
       inkscape:connector-curvature="0" />
    <path
       style="fill:#fefefe;stroke-width:0.000357143"
       d="M 5.578125,13.704484 C 4.9350072,13.535976 4.3755003,13.287961 4.1279109,13.061642 L 4,12.94472 3.9997188,9.0739225 3.9994375,5.203125 3.777625,5.066275 C 3.3567228,4.8065772 3.0634661,4.4468494 3.0124133,4.1275825 L 2.992012,4 H 3.4960059 4 V 3.3940275 2.7880548 L 4.2890625,2.6625596 C 4.9264044,2.3858604 5.7329519,2.1848645 6.65625,2.072644 c 0.6331675,-0.076957 2.0543325,-0.076957 2.6875,0 0.923298,0.1122205 1.729846,0.3132164 2.367188,0.5899156 L 12,2.7880548 V 3.3940275 4 h 0.503994 0.503994 l -0.0204,0.1275825 C 12.875886,4.82612 11.816367,5.4679009 10.260528,5.7794403 9.44696,5.9423484 8.9906237,5.9828713 7.984375,5.9815634 7.1358784,5.9804603 6.7353462,5.9533484 6.1244722,5.8556659 L 6,5.8357619 V 9.8085059 13.78125 L 5.929688,13.77975 C 5.891016,13.778906 5.732813,13.74505 5.5781255,13.70452 Z M 9.1875,4.9214025 C 10.35094,4.7853572 11.41321,4.4532078 11.84257,4.0912181 L 11.950764,4 11.84257,3.9087819 C 11.409547,3.5437031 10.363328,3.2183053 9.15625,3.0732754 c -0.6134856,-0.07371 -1.6990144,-0.07371 -2.3125,0 C 5.6366725,3.2183053 4.5904534,3.5437031 4.1574303,3.9087819 L 4.0492359,4 4.1574303,4.0912181 c 0.50999,0.4299688 1.7442566,0.7662756 3.2644447,0.88948 0.3030372,0.02456 1.3488687,-0.010563 1.765625,-0.059296 z"
       id="path829"
       inkscape:connector-curvature="0" />
    <path
       style="fill:#98cbfe;stroke-width:0.000357143"
       d="m 1,14 v -1 h 1 1 v 1 1 H 2 1 Z m 12,0 v -1 h 1 1 v 1 1 H 14 13 Z M 1,2 V 1 H 2 3 V 2 3 H 2 1 Z M 13,2 V 1 h 1 1 v 1 1 h -1 -1 z"
       id="path827"
       inkscape:connector-curvature="0" />
    <path
       style="fill:#cbcbcb;stroke-width:0.000357143"
       d="M 7.234375,14.980539 C 6.0319144,14.88431 5.0597972,14.672052 4.2890625,14.33744 L 4,14.211945 V 13.578333 12.94472 l 0.1279109,0.116922 c 0.1721982,0.157405 0.5365497,0.34634 0.9345891,0.484632 0.3290112,0.114309 0.7804178,0.234347 0.8828125,0.234757 C 5.9971103,13.78125 6,13.571322 6,9.8085059 v -3.972744 l 0.1244722,0.019904 C 6.7453128,5.9549422 7.1317137,5.9807028 8,5.9807028 c 0.8682863,0 1.2546872,-0.025761 1.8755278,-0.1250369 L 10,5.8357619 v 3.972744 c 0,3.7628161 0.0029,3.9727321 0.05469,3.9725251 0.102394,-4.09e-4 0.553801,-0.120448 0.882812,-0.234757 0.398039,-0.138292 0.762391,-0.327227 0.934589,-0.484632 L 12,12.94472 v 0.633613 0.633612 l -0.289062,0.125495 c -0.631064,0.273974 -1.449541,0.479003 -2.335938,0.585153 -0.40237,0.04818 -1.7923994,0.08581 -2.140625,0.05795 z M 3.002686,8.0703125 C 3.0041632,5.9089844 3.0161048,4.1757812 3.0292227,4.21875 3.1201836,4.5167006 3.3994406,4.8329325 3.7776525,5.066275 L 3.999465,5.203125 3.9997463,8.6015625 4,12 H 3.5 3 L 3.00269,8.0703125 Z m 8.997582,0.53125 2.81e-4,-3.3984375 0.221812,-0.13685 c 0.378212,-0.2333425 0.657469,-0.5495744 0.74843,-0.847525 0.01312,-0.042969 0.02506,1.6902344 0.02654,3.8515625 L 13,12 H 12.5 12 l 2.81e-4,-3.3984375 z"
       id="path825"
       inkscape:connector-curvature="0" />
    <path
       style="fill:#989898;stroke-width:0.000357143"
       d="M 10.007693,9.8069431 10.015625,5.8326362 10.375,5.7577375 C 10.797129,5.6697603 11.417755,5.4734022 11.744889,5.3243228 11.872304,5.2662578 11.981828,5.21875 11.988276,5.21875 11.994724,5.21875 12,6.9570934 12,9.081735 v 3.862985 l -0.127911,0.116922 c -0.172198,0.157405 -0.53655,0.34634 -0.934589,0.484632 -0.329172,0.114365 -0.780431,0.234348 -0.882932,0.234757 -0.052,2.19e-4 -0.0544,-0.203487 -0.04687,-3.9740879 z"
       id="path823"
       inkscape:connector-curvature="0" />
    <path
       style="fill:#3232fe;stroke-width:0.000357143"
       d="m 0,14 v -2 h 2 2 v 2 2 H 2 0 Z m 3,0 V 13 H 2 1 v 1 1 h 1 1 z m 9,0 v -2 h 2 2 v 2 2 h -2 -2 z m 3,0 v -1 h -1 -1 v 1 1 h 1 1 z M 0,2 V 0 H 2 4 V 2 4 H 2 0 Z M 3,2 V 1 H 2 1 v 1 1 h 1 1 z m 9,0 V 0 h 2 2 v 2 2 h -2 -2 z m 3,0 V 1 h -1 -1 v 1 1 h 1 1 z"
       id="path821"
       inkscape:connector-curvature="0" />
    <path
       style="fill:#323232;stroke-width:0.000357143"
       d="M 6.859375,15.963694 C 6.0152862,15.895994 5.2150537,15.738345 4.4765625,15.49427 L 4,15.336764 v -0.559007 c 0,-0.307454 0.00528,-0.559007 0.011724,-0.559007 0.00645,0 0.1159725,0.04751 0.2433875,0.105573 0.3619132,0.164929 0.9770413,0.353532 1.484361,0.455117 C 6.5437053,14.940479 7.0108787,14.98243 8,14.98243 c 0.9891213,0 1.4562947,-0.04195 2.260528,-0.20299 0.50732,-0.101585 1.122448,-0.290188 1.484361,-0.455117 0.127415,-0.05806 0.236939,-0.105573 0.243387,-0.105573 0.0064,0 0.01172,0.251553 0.01172,0.559007 v 0.559007 l -0.476562,0.157506 c -0.765876,0.253125 -1.5360067,0.401257 -2.4593721,0.47305 -0.4901412,0.03811 -1.7093303,0.0361 -2.2046909,-0.0036 z M 2,8 V 4 H 2.5 3 v 4 4 H 2.5 2 Z M 13,8 V 4 h 0.5 0.5 v 4 4 H 13.5 13 Z M 7.421875,4.9806981 C 5.9016869,4.8574937 4.6674203,4.5211869 4.1574303,4.0912181 L 4.0492359,4 4.1574303,3.9087819 C 4.5904534,3.5437031 5.6366725,3.2183053 6.84375,3.0732754 c 0.6134856,-0.07371 1.6990144,-0.07371 2.3125,0 1.207078,0.1450299 2.253297,0.4704277 2.68632,0.8355065 L 11.950764,4 11.84257,4.0912181 C 11.41321,4.4532078 10.35094,4.7853572 9.1875,4.9214025 8.7707437,4.9701353 7.7249122,5.0052578 7.421875,4.9806981 Z M 4,2.2222429 V 1.6632359 L 4.4765625,1.5057299 C 5.5380478,1.1549044 6.6172722,1 8,1 9.3827278,1 10.461952,1.1549044 11.523438,1.5057299 L 12,1.6632359 v 0.559007 C 12,2.5296968 11.9947,2.78125 11.98828,2.78125 c -0.0064,0 -0.115972,-0.047508 -0.243387,-0.1055727 C 11.163657,2.4108014 10.261197,2.1841533 9.34375,2.072644 8.7105825,1.995687 7.2894175,1.995687 6.65625,2.072644 5.7388034,2.1841533 4.8363431,2.4108014 4.2551113,2.6756773 4.1276962,2.7337423 4.0181716,2.78125 4.0117237,2.78125 4.0052756,2.78125 4,2.5296968 4,2.2222429 Z"
       id="path819"
       inkscape:connector-curvature="0" />
  </g>
</svg>
