<?xml version="1.0" encoding="UTF-8" standalone="no"?>
<!-- Created with Inkscape (http://www.inkscape.org/) -->

<svg
   version="1.1"
   id="svg2"
   width="1600"
   height="1600"
   viewBox="0 0 1600 1600"
   sodipodi:docname="system.svg"
   inkscape:version="1.2.2 (732a01da63, 2022-12-09)"
   xmlns:inkscape="http://www.inkscape.org/namespaces/inkscape"
   xmlns:sodipodi="http://sodipodi.sourceforge.net/DTD/sodipodi-0.dtd"
   xmlns="http://www.w3.org/2000/svg"
   xmlns:svg="http://www.w3.org/2000/svg"
   xmlns:rdf="http://www.w3.org/1999/02/22-rdf-syntax-ns#"
   xmlns:cc="http://creativecommons.org/ns#"
   xmlns:dc="http://purl.org/dc/elements/1.1/">
  <metadata
     id="metadata8">
    <rdf:RDF>
      <cc:Work
         rdf:about="">
        <dc:format>image/svg+xml</dc:format>
        <dc:type
           rdf:resource="http://purl.org/dc/dcmitype/StillImage" />
      </cc:Work>
    </rdf:RDF>
  </metadata>
  <defs
     id="defs6" />
  <sodipodi:namedview
     pagecolor="#808080"
     bordercolor="#666666"
     borderopacity="1"
     objecttolerance="10"
     gridtolerance="10"
     guidetolerance="10"
     inkscape:pageopacity="0"
     inkscape:pageshadow="2"
     inkscape:window-width="2560"
     inkscape:window-height="1009"
     id="namedview4"
     showgrid="false"
     inkscape:zoom="0.5"
     inkscape:cx="824"
     inkscape:cy="922"
     inkscape:window-x="-8"
     inkscape:window-y="-8"
     inkscape:window-maximized="1"
     inkscape:current-layer="svg2"
     inkscape:showpageshadow="0"
     inkscape:pagecheckerboard="true"
     inkscape:deskcolor="#d1d1d1" />
  <g
     id="SYSTEM"
     transform="matrix(99.999994,0,0,99.999994,-1.999997e-6,-66666.665)"
     style="stroke-width:0.01">
    <path
       style="fill:none;stroke-width:0.0003125"
       d="m 0,681.16669 v -1.5 H 0.50000002 1 v -1 -1 H 2.0000001 3 v 1 1 h 5.0000002 5.0000008 v -1 -1 H 14 15 v 1 1 h 0.500001 0.5 v 1.5 1.5 H 8.0000002 0 Z m 1,-5 v -0.5 H 2.0000001 3 v 0.5 0.5 H 2.0000001 1 Z m 12.000001,0 v -0.5 H 14 15 v 0.5 0.5 H 14 13.000001 Z M 1,674.16669 v -0.5 H 2.0000001 3 v 0.5 0.5 H 2.0000001 1 Z m 12.000001,0 v -0.5 H 14 15 v 0.5 0.5 H 14 13.000001 Z M 1,672.16669 v -0.5 H 2.0000001 3 v 0.5 0.5 H 2.0000001 1 Z m 12.000001,0 v -0.5 H 14 15 v 0.5 0.5 H 14 13.000001 Z M 1,670.16669 v -0.5 H 0.50000002 0 v -1.5 -1.5 h 8.0000002 8.0000008 v 1.5 1.5 h -0.5 H 15 v 0.5 0.5 h -1 -0.999999 v -0.5 -0.5 H 8.0000002 3 v 0.5 0.5 H 2.0000001 1 Z"
       id="path827"
       inkscape:connector-curvature="0" />
    <path
       style="fill:#fefefe;stroke-width:0.0003125"
       d="m 4.7800008,678.09473 c -0.09301,-0.0492 -0.1588549,-0.11503 -0.2080399,-0.20804 l -0.071961,-0.13608 v -3.08392 -3.08392 l 0.071961,-0.13608 c 0.049185,-0.093 0.1150296,-0.15885 0.2080399,-0.20804 l 0.1360797,-0.072 H 8.0000002 11.08392 l 0.13608,0.072 c 0.152574,0.0807 0.28,0.28034 0.28,0.43871 0,0.22147 -0.186272,0.44905 -0.414062,0.50591 L 11,672.20472 v -0.26902 -0.26901 h -2.9999998 -3 v 3 3 H 5.269013 5.5380258 l -0.021449,0.0859 c -0.038417,0.15392 -0.1412572,0.28333 -0.2776215,0.34934 -0.1727076,0.0836 -0.2906763,0.0817 -0.4589547,-0.007 z M 1,677.16669 v -0.5 H 2.0000001 3 v 0.5 0.5 H 2.0000001 1 Z m 12.000001,0 v -0.5 H 14 15 v 0.5 0.5 h -1 -0.999999 z m -7.2200001,-0.13446 c -0.09301,-0.0492 -0.1588552,-0.11503 -0.2080402,-0.20804 l -0.071961,-0.13608 v -2.05267 -2.05267 l 0.071961,-0.13608 c 0.049185,-0.093 0.1150298,-0.15885 0.2080402,-0.20804 l 0.1360797,-0.072 H 7.9687502 10.02142 l 0.13608,0.072 c 0.154321,0.0816 0.28,0.28075 0.28,0.44367 0,0.16291 -0.125679,0.36205 -0.28,0.44366 l -0.13608,0.072 H 8.2763353 6.5312503 v 1.74509 1.74508 l -0.071961,0.13608 c -0.081607,0.15432 -0.280748,0.28 -0.4436644,0.28 -0.05475,0 -0.1607808,-0.0324 -0.235624,-0.072 z M 1,675.16669 v -0.5 H 2.0000001 3 v 0.5 0.5 H 2.0000001 1 Z m 12.000001,0 v -0.5 H 14 15 v 0.5 0.5 H 14 13.000001 Z M 1,673.16669 v -0.5 H 2.0000001 3 v 0.5 0.5 H 2.0000001 1 Z m 12.000001,0 v -0.5 H 14 15 v 0.5 0.5 H 14 13.000001 Z M 1,671.16669 v -0.5 H 2.0000001 3 v 0.5 0.5 H 2.0000001 1 Z m 12.000001,0 v -0.5 H 14 15 v 0.5 0.5 h -1 -0.999999 z"
       id="path825"
       inkscape:connector-curvature="0" />
    <path
       style="fill:#6598cb;stroke-width:0.0003125"
       d="m 4.5317768,678.01825 5.25e-4,-0.17968 0.063854,0.0997 c 0.07209,0.11254 0.2849062,0.22844 0.4194698,0.22844 0.2166741,0 0.4446352,-0.18842 0.5009518,-0.41406 l 0.021449,-0.0859 H 8.2690132 11 v -2.73099 -2.73098 l 0.08594,-0.0214 c 0.22779,-0.0569 0.414062,-0.28444 0.414062,-0.50591 0,-0.15837 -0.127426,-0.35803 -0.28,-0.43871 l -0.13608,-0.072 H 8.0049516 c -3.0450331,0 -3.0804345,7.1e-4 -3.2119552,0.0644 -0.073143,0.0354 -0.1617204,0.10923 -0.1968396,0.16406 l -0.063854,0.0997 -5.274e-4,-0.17969 -5.273e-4,-0.17969 h 3.500002 3.4999999 v 3.53125 3.53125 H 8.0312503 4.5312502 l 5.273e-4,-0.17969 z m 0.9682233,-1.09085 v -0.23929 l 0.071961,0.13608 c 0.081607,0.15432 0.280748,0.28 0.4436646,0.28 0.1629164,0 0.3620574,-0.12568 0.4436644,-0.28 l 0.071961,-0.13608 v -1.74508 -1.74509 h 1.745085 1.7450849 l 0.13608,-0.072 c 0.154321,-0.0816 0.28,-0.28075 0.28,-0.44366 0,-0.16292 -0.125679,-0.36206 -0.28,-0.44367 l -0.13608,-0.072 H 10.26071 10.5 v 2.5 2.5 H 8.0000002 5.5000001 Z m 0,-4.55267 v -0.20804 h 0.2080401 0.2080404 l -0.1360797,0.072 c -0.09301,0.0492 -0.1588552,0.11503 -0.2080402,0.20804 l -0.071961,0.13608 z"
       id="path823"
       inkscape:connector-curvature="0" />
    <path
       style="fill:#324c65;stroke-width:0.0003125"
       d="m 0,674.66669 v -5 H 0.50000002 1 v 5 5 H 0.50000002 0 Z m 3,0 v -5 h 5.0000002 5.0000008 v 5 5 H 8.0000002 3 Z m 9.03125,0 v -4.03125 H 8.0312503 4.0312502 v 4.03125 4.03125 H 8.0312503 12.03125 Z m 2.96875,0 v -5 h 0.500001 0.5 v 5 5 h -0.5 H 15 Z"
       id="path821"
       inkscape:connector-curvature="0" />
    <path
       style="fill:#000000;stroke-width:0.0003125"
       d="m 4.0312502,674.66669 v -4.03125 H 8.0312503 12.03125 v 4.03125 4.03125 H 8.0312503 4.0312502 Z m 7.4999998,0 v -3.53125 H 8.0359995 4.540748 l -0.020374,0.33299 c -0.026537,0.4337 -0.026537,5.96282 0,6.39652 l 0.020374,0.33299 H 8.0359995 11.53125 Z m -6.5312498,0 v -3 h 3 H 11 v 3 3 h -2.9999998 -3 z m 5.4999998,0 v -2.5 H 8.0000002 5.5000001 v 2.5 2.5 H 8.0000002 10.5 Z"
       id="path819"
       inkscape:connector-curvature="0" />
  </g>
</svg>
