<?xml version="1.0" encoding="UTF-8" standalone="no"?>
<!-- Created with Inkscape (http://www.inkscape.org/) -->

<svg
   version="1.1"
   id="svg2"
   width="1600"
   height="1600"
   viewBox="0 0 1600 1600"
   sodipodi:docname="text.svg"
   inkscape:version="1.2.2 (732a01da63, 2022-12-09)"
   xmlns:inkscape="http://www.inkscape.org/namespaces/inkscape"
   xmlns:sodipodi="http://sodipodi.sourceforge.net/DTD/sodipodi-0.dtd"
   xmlns="http://www.w3.org/2000/svg"
   xmlns:svg="http://www.w3.org/2000/svg"
   xmlns:rdf="http://www.w3.org/1999/02/22-rdf-syntax-ns#"
   xmlns:cc="http://creativecommons.org/ns#"
   xmlns:dc="http://purl.org/dc/elements/1.1/">
  <metadata
     id="metadata8">
    <rdf:RDF>
      <cc:Work
         rdf:about="">
        <dc:format>image/svg+xml</dc:format>
        <dc:type
           rdf:resource="http://purl.org/dc/dcmitype/StillImage" />
      </cc:Work>
    </rdf:RDF>
  </metadata>
  <defs
     id="defs6" />
  <sodipodi:namedview
     pagecolor="#808080"
     bordercolor="#666666"
     borderopacity="1"
     objecttolerance="10"
     gridtolerance="10"
     guidetolerance="10"
     inkscape:pageopacity="0"
     inkscape:pageshadow="2"
     inkscape:window-width="1993"
     inkscape:window-height="1009"
     id="namedview4"
     showgrid="false"
     inkscape:zoom="0.5"
     inkscape:cx="421"
     inkscape:cy="488"
     inkscape:window-x="-8"
     inkscape:window-y="-8"
     inkscape:window-maximized="1"
     inkscape:current-layer="TEXT"
     inkscape:showpageshadow="0"
     inkscape:pagecheckerboard="true"
     inkscape:deskcolor="#d1d1d1" />
  <g
     id="TEXT"
     transform="matrix(100,0,0,100,0,4.9999997e-5)"
     style="stroke-width:0.0114286">
    <path
       style="fill:none;stroke-width:0.000357143"
       d="M 0,8 V 0 h 8 8 v 8 8 H 8 0 Z m 13.994486,1.9609375 -0.01123,-5.0390625 -0.0668,-0.125 C 13.879714,4.728125 13.619809,4.4376837 13.338889,4.1514503 10.896015,1.6623717 10.344903,1.1119162 10.243433,1.0596829 10.130872,1.0017407 9.9943797,1 5.563745,1 H 1 v 7 7 h 6.5028575 6.5028575 z"
       id="path827"
       inkscape:connector-curvature="0" />
    <path
       style="fill:#fefefe;stroke-width:0.000357143"
       d="M 2,8 V 2 H 5.5 9 v 1.8235038 1.8235034 l 0.071237,0.1057081 c 0.03918,0.058139 0.1270709,0.1373313 0.1953125,0.1759822 L 9.390625,5.9989719 11.195313,5.9994875 13,6 v 4 4 H 7.5 2 Z m 9,4.5 V 12 H 10.5 10 v 0.5 0.5 h 0.5 0.5 z m 0,-2 V 10 H 7 3 v 0.5 0.5 h 4 4 z m 0,-2 V 8 H 7 3 V 8.5 9 h 4 4 z M 8,6.5 V 6 H 5.5 3 V 6.5 7 H 5.5 8 Z m 0,-2 V 4 H 5.5 3 V 4.5 5 H 5.5 8 Z M 10,3.6121288 V 2.2242576 l 1.009128,1.0206837 c 0.55502,0.5613759 1.163223,1.1799125 1.351562,1.3745256 0.188339,0.1946131 0.348294,0.3598475 0.355456,0.3671875 C 12.723307,4.9939944 12.115104,5 11.364583,5 H 10 Z"
       id="path825"
       inkscape:connector-curvature="0" />
    <path
       style="fill:#909090;stroke-width:0.000357143"
       d="M 9.2665491,5.9286975 C 9.1983075,5.8900466 9.1104169,5.8108547 9.0712366,5.7527153 L 9,5.6470072 V 3.8235038 2 H 9.5 10 V 3.5 5 H 11.5 13 V 5.5 6 L 11.195313,5.9994875 9.390625,5.9989719 Z"
       id="path823"
       inkscape:connector-curvature="0" />
    <path
       style="fill:#464646;stroke-width:0.000357143"
       d="M 1,8 V 1 h 4.563745 c 4.4306347,0 4.567127,0.00174 4.679688,0.059683 0.10147,0.052233 0.652582,0.6026888 3.095456,3.0917674 0.28092,0.2862334 0.540825,0.5766747 0.577566,0.6454247 l 0.0668,0.125 0.01123,5.0390625 L 14.005715,15 H 7.5028575 1 Z M 13,9.5 V 5 H 12.8653 C 12.734388,5 12.72058,4.9896731 12.374353,4.6328125 12.178418,4.4308594 11.564033,3.8063172 11.009053,3.2449413 10.061604,2.2865713 10,2.2174121 10,2.1121288 V 2 H 6 2 v 6 6 H 7.5 13 Z"
       id="path821"
       inkscape:connector-curvature="0" />
    <path
       style="fill:#000000;stroke-width:0.000357143"
       d="M 10,12.5 V 12 H 10.5 11 V 12.5 13 H 10.5 10 Z m -7,-2 V 10 h 4 4 V 10.5 11 H 7 3 Z m 0,-2 V 8 h 4 4 V 8.5 9 H 7 3 Z m 0,-2 V 6 H 5.5 8 V 6.5 7 H 5.5 3 Z m 0,-2 V 4 H 5.5 8 V 4.5 5 H 5.5 3 Z"
       id="path819"
       inkscape:connector-curvature="0" />
  </g>
</svg>
