<?xml version="1.0" encoding="UTF-8" standalone="no"?>
<!-- Created with Inkscape (http://www.inkscape.org/) -->

<svg
   version="1.1"
   id="svg2"
   width="1600"
   height="1600"
   viewBox="0 0 1600 1600"
   sodipodi:docname="tilt.svg"
   inkscape:version="1.2.2 (732a01da63, 2022-12-09)"
   xmlns:inkscape="http://www.inkscape.org/namespaces/inkscape"
   xmlns:sodipodi="http://sodipodi.sourceforge.net/DTD/sodipodi-0.dtd"
   xmlns="http://www.w3.org/2000/svg"
   xmlns:svg="http://www.w3.org/2000/svg"
   xmlns:rdf="http://www.w3.org/1999/02/22-rdf-syntax-ns#"
   xmlns:cc="http://creativecommons.org/ns#"
   xmlns:dc="http://purl.org/dc/elements/1.1/">
  <metadata
     id="metadata8">
    <rdf:RDF>
      <cc:Work
         rdf:about="">
        <dc:format>image/svg+xml</dc:format>
        <dc:type
           rdf:resource="http://purl.org/dc/dcmitype/StillImage" />
      </cc:Work>
    </rdf:RDF>
  </metadata>
  <defs
     id="defs6" />
  <sodipodi:namedview
     pagecolor="#808080"
     bordercolor="#666666"
     borderopacity="1"
     objecttolerance="10"
     gridtolerance="10"
     guidetolerance="10"
     inkscape:pageopacity="0"
     inkscape:pageshadow="2"
     inkscape:window-width="1993"
     inkscape:window-height="1009"
     id="namedview4"
     showgrid="false"
     inkscape:zoom="0.5"
     inkscape:cx="9"
     inkscape:cy="8"
     inkscape:window-x="-8"
     inkscape:window-y="-8"
     inkscape:window-maximized="1"
     inkscape:current-layer="TILT"
     inkscape:showpageshadow="0"
     inkscape:pagecheckerboard="true"
     inkscape:deskcolor="#d1d1d1" />
  <g
     id="TILT"
     transform="matrix(100,0,0,100,0,4.9999997e-5)"
     style="stroke-width:0.0114286">
    <path
       style="fill:none;stroke-width:0.000357143"
       d="M 0,8 V 0 h 8 8 v 8 8 H 8 0 Z m 8.890625,6.717352 c 3.014869,-0.257294 5.349857,-1.792961 6.090035,-4.005272 0.222251,-0.664285 0.243664,-0.8288956 0.260751,-2.0045569 0.01619,-1.1142394 -0.0066,-1.5126344 -0.117245,-2.0454506 C 14.949498,5.8206366 14.541546,4.9774662 13.962691,4.26149 L 13.757227,4.0073547 14.100625,3.66774 c 0.18887,-0.1867884 0.363025,-0.3848666 0.387012,-0.4401737 0.05394,-0.1243725 0.06238,-1.2675726 0.01037,-1.4052194 C 14.446296,1.6854683 14.315978,1.5685263 14.159016,1.5181465 14.080151,1.4928332 12.911719,1.2519518 11.5625,0.98285456 8.9744959,0.46668556 8.8972075,0.45580353 8.7261656,0.58350481 8.5209366,0.73673028 8.5164441,0.75507037 8.5068578,1.4787609 L 8.4980906,2.140625 8.7490453,3.3895178 C 8.8870703,4.0764091 9,4.6479622 9,4.6596362 9,4.6713103 8.8910156,4.6443866 8.7578125,4.5998053 8.5385472,4.5264203 8.4683016,4.5186006 8.015625,4.5171869 7.577625,4.5158181 7.4871216,4.5245797 7.2857575,4.5878409 7.1593303,4.6275597 7.0504584,4.654625 7.04382,4.6479866 7.0371813,4.6413481 7.1445669,4.0744759 7.2824544,3.3882706 L 7.5331594,2.140625 7.5243922,1.4787609 C 7.5148059,0.75507037 7.5103134,0.73673028 7.3050844,0.58350481 7.1340425,0.45580353 7.0567541,0.46668556 4.46875,0.98285456 3.1195313,1.2519518 1.9510989,1.4928332 1.8722338,1.5181465 1.7152726,1.5685262 1.5849544,1.6854683 1.5332381,1.8223469 c -0.043614,0.115435 -0.043959,1.2698495 -4.144e-4,1.3865562 0.018053,0.048385 0.188113,0.2441931 0.3779111,0.4351303 L 2.2558224,3.9911919 2.0438338,4.2534084 C 1.4581196,4.9779 1.0512805,5.8168891 0.87583453,6.6620725 0.76523075,7.1948888 0.74239475,7.5932838 0.75858925,8.7075231 c 0.0170872,1.1756613 0.0384996,1.3402719 0.26075095,2.0045569 0.3976471,1.188523 1.260569,2.198282 2.5092855,2.936271 0.9369522,0.553737 2.2658838,0.956297 3.5182494,1.065747 0.4465494,0.03903 1.4047712,0.04072 1.84375,0.0033 z M 7.359375,11.214927 C 5.2797219,11.018044 3.7001713,10.038603 3.3609847,8.7356219 3.2971847,8.4905353 3.2997925,8.3723166 3.3755506,8.0753113 3.5039606,7.5718875 3.8329581,7.0237469 4.3220591,6.4983403 L 4.5347431,6.2698687 5.0151575,6.7495331 C 5.4826634,7.2163094 5.4961516,7.2334656 5.5171397,7.3880362 5.5502944,7.6322084 5.6495613,7.9279262 5.7907491,8.203125 5.9721381,8.5566822 6.4429325,9.0275762 6.796875,9.2094631 7.2415591,9.4379813 7.4445966,9.484375 8,9.484375 c 0.4204931,0 0.5152856,-0.00966 0.71875,-0.07322 C 9.1599588,9.2733197 9.4216484,9.1124934 9.7667991,8.7670581 10.175675,8.3578441 10.376828,7.9835131 10.469679,7.4590444 L 10.503922,7.265625 10.991746,6.7754766 11.47957,6.2853284 11.685098,6.50607 c 0.481585,0.5172347 0.811665,1.0686519 0.939351,1.5692412 0.07576,0.2970054 0.07837,0.4152241 0.01457,0.6603107 -0.343289,1.3187401 -1.916353,2.2834551 -4.045265,2.4808441 -0.4079675,0.03783 -0.8240478,0.03731 -1.234375,-0.0015 z"
       id="path827"
       inkscape:connector-curvature="0" />
    <path
       style="fill:#cbfefe;stroke-width:0.000357143"
       d="M 7.171875,13.214098 C 4.3585128,12.968225 2.1794767,11.555272 1.5042382,9.5390322 1.1151807,8.3773191 1.1843483,6.9558534 1.6853285,5.8174416 1.9647736,5.1824394 2.3814956,4.5973834 3.0325671,3.9259888 L 3.464965,3.4800938 2.7336603,2.7492858 C 2.3314427,2.3473413 2.0067439,2.0140895 2.0121073,2.008726 2.0280143,1.992819 7.0102134,0.99979672 7.0208331,1.0104166 7.0261862,1.0157697 6.839455,1.9752503 6.6058747,3.1425956 L 6.1811831,5.2650422 6.0764013,5.3810228 c -0.05763,0.06379 -0.1435144,0.1764206 -0.1908541,0.2502916 -0.04734,0.073871 -0.090695,0.1406919 -0.096344,0.1484912 -0.00565,0.0078 -0.2956712,-0.270964 -0.6444928,-0.619474 L 4.5104897,4.5266769 4.4069016,4.6461509 C 4.3499278,4.7118616 4.1731769,4.9021322 4.0141213,5.0689741 3.1617988,5.9630219 2.8147604,6.7135931 2.760058,7.78125 c -0.064264,1.25427 0.4344423,2.2169509 1.5374767,2.96788 0.7325465,0.498707 1.8553081,0.862712 2.9837153,0.967336 1.777925,0.164846 3.620194,-0.302128 4.75,-1.204017 0.226208,-0.180575 0.559514,-0.5446152 0.713773,-0.7795909 C 13.115806,9.1680622 13.278189,8.5277384 13.239942,7.78125 13.184865,6.7062741 12.836269,5.9577616 11.968856,5.0519431 11.801599,4.8772806 11.628394,4.6921875 11.583957,4.640625 l -0.0808,-0.09375 -0.63911,0.6372466 -0.63911,0.6372465 -0.05045,-0.097552 C 10.146749,5.6701625 10.063745,5.5521516 9.9900403,5.4615697 L 9.8560316,5.296875 9.4284059,3.1584641 C 9.1932119,1.982338 9.0051384,1.0156949 9.010465,1.0103684 9.015795,1.0050384 10.143883,1.2255298 11.517333,1.5003418 12.890784,1.7751538 14.021688,2 14.030452,2 c 0.0088,0 -0.320419,0.3365732 -0.731519,0.7479404 l -0.747453,0.7479405 0.42513,0.4392694 c 0.809118,0.8360272 1.287468,1.5879497 1.535422,2.4135413 0.383673,1.2774881 0.290808,2.681984 -0.247622,3.7450584 -0.890738,1.75867 -2.903687,2.902132 -5.498785,3.123602 -0.43624,0.03723 -1.1471319,0.03578 -1.59375,-0.0033 z"
       id="path825"
       inkscape:connector-curvature="0" />
    <path
       style="fill:#fecb32;stroke-width:0.000357143"
       d="M 7.5625,8.9514053 C 6.8323191,8.7945809 6.2007041,8.1571794 6.0468547,7.421875 5.7497344,6.0018228 7.0018228,4.7497344 8.421875,5.0468547 9.1647875,5.2022959 9.7977041,5.8352125 9.9531453,6.578125 10.251335,8.0032863 8.9878991,9.2575447 7.5625,8.9514053 Z"
       id="path823"
       inkscape:connector-curvature="0" />
    <path
       style="fill:#989898;stroke-width:0.000357143"
       d="M 7.171875,14.214098 C 4.3587516,13.968245 2.1794684,12.555248 1.5043667,10.539416 1.3383031,10.043555 1.2806296,9.69608 1.2644167,9.09375 c -0.0081,-0.3007812 -0.00813,-0.5328125 -7.19e-5,-0.515625 0.00806,0.017188 0.043545,0.1753769 0.078862,0.3515322 0.3564685,1.7780038 1.6546988,3.1267028 3.6924556,3.8359998 1.8360647,0.639092 4.0926072,0.639092 5.9286726,0 2.037757,-0.709297 3.335987,-2.057996 3.692455,-3.8359998 0.03532,-0.1761553 0.07081,-0.3343447 0.07886,-0.3515322 0.0081,-0.017188 0.008,0.2148438 -6.3e-5,0.515625 -0.01621,0.60233 -0.07389,0.949805 -0.23995,1.445666 -0.616123,1.839725 -2.481976,3.185698 -4.9682913,3.583984 -0.7653894,0.122609 -1.6156966,0.15535 -2.3554672,0.0907 z M 2.7643885,8.3015459 C 2.728638,8.2135197 2.7709228,7.4555116 2.8280156,7.1609503 2.9703581,6.4265566 3.3356416,5.7818428 4.0132922,5.0689741 4.1718919,4.9021322 4.3497984,4.7124134 4.40864,4.6473772 L 4.515625,4.5291291 5.1498397,5.1646847 5.7840547,5.8002403 5.7068375,5.9669056 C 5.6643681,6.0585713 5.6051291,6.2240494 5.575195,6.3346347 L 5.5207697,6.5356984 5.0155984,6.0312234 4.5104272,5.5267481 4.4068703,5.6461866 C 4.3499137,5.7118778 4.1731769,5.9021322 4.0141212,6.0689741 3.35118,6.7643697 2.9920756,7.3855366 2.8435728,8.09375 2.804512,8.2800322 2.7808594,8.3421013 2.7643885,8.3015459 Z M 13.173981,8.1790925 C 13.162204,8.0891853 13.110749,7.8904069 13.059638,7.7373622 12.864018,7.1516103 12.534849,6.642995 11.968856,6.0519431 11.801599,5.8772806 11.628409,5.6921875 11.583989,5.640625 l -0.08076,-0.09375 -0.510205,0.5082462 -0.510205,0.5082463 -0.05451,-0.2113713 c -0.02998,-0.116254 -0.08788,-0.2833259 -0.128666,-0.3712706 l -0.07415,-0.1598994 0.638839,-0.6369756 0.638839,-0.6369756 0.0808,0.09375 c 0.04444,0.051563 0.217642,0.2366556 0.384899,0.4113181 0.691007,0.7216013 1.058468,1.3655747 1.203434,2.1090072 0.06214,0.3186925 0.100598,1.1337156 0.05483,1.1620044 -0.01907,0.011786 -0.04026,-0.045595 -0.05314,-0.1438622 z M 9.7154228,5.1658472 9.6027209,5.046875 9.3013513,3.53125 8.9999812,2.015625 l 0.00309,-0.46875 0.00309,-0.46875 0.4176335,2.0625 C 9.6535003,4.275 9.8384406,5.2215062 9.8347806,5.2439722 9.8309819,5.2672869 9.7797516,5.2337541 9.7154234,5.1658472 Z M 6.1890234,5.2339153 C 6.1898609,5.2169806 6.3783172,4.275 6.6078144,3.140625 l 0.4172675,-2.0625 0.00313,0.46875 0.00313,0.46875 -0.2992022,1.5 -0.2992025,1.5 -0.1227207,0.1245403 c -0.067496,0.068498 -0.1220353,0.110685 -0.1211975,0.09375 z M 12.796739,3.7498628 12.547692,3.4993472 13.289471,2.7575683 14.03125,2.0157895 v 0.500284 0.5002841 L 13.538517,3.5083681 13.045785,4.0003784 Z M 2.4761844,3.4918209 2,3.014892 V 2.5155079 2.0161237 L 2.7341546,2.7497797 3.4683091,3.4834356 3.2270753,3.7260928 C 3.0943965,3.8595544 2.9783099,3.96875 2.969105,3.96875 c -0.0092,0 -0.2310192,-0.2146181 -0.4929206,-0.4769291 z"
       id="path821"
       inkscape:connector-curvature="0" />
    <path
       style="fill:#323232;stroke-width:0.000357143"
       d="M 7.046875,14.714098 C 5.7945094,14.604648 4.4655778,14.202088 3.5286256,13.648351 2.2799091,12.910362 1.4169872,11.900603 1.0193401,10.71208 0.79708878,10.047795 0.77567637,9.8831844 0.75858916,8.7075231 0.74239466,7.5932837 0.76523066,7.1948887 0.87583444,6.6620725 1.0512804,5.8168891 1.4581195,4.9779 2.0438337,4.2534084 L 2.2558223,3.9911919 1.9107347,3.6440334 C 1.7209366,3.4530963 1.5508766,3.2572878 1.5328236,3.2089031 1.4892786,3.0921964 1.4896237,1.9377819 1.5332381,1.8223469 1.5849544,1.6854683 1.7152726,1.5685262 1.8722338,1.5181465 1.9510989,1.4928332 3.1195313,1.2519518 4.46875,0.98285456 7.0567541,0.46668556 7.1340425,0.45580353 7.3050844,0.58350481 7.5103134,0.73673028 7.5148059,0.75507037 7.5243922,1.4787609 l 0.00877,0.6618641 -0.250705,1.2476456 C 7.1445669,4.0744759 7.0371813,4.6413481 7.04382,4.6479866 c 0.00664,0.00664 0.1155103,-0.020427 0.2419375,-0.060146 0.2013641,-0.063261 0.2918675,-0.072022 0.7298675,-0.070654 0.4526766,0.00141 0.5229222,0.00923 0.7421875,0.082618 C 8.8910156,4.6443866 9,4.6713103 9,4.6596362 9,4.6479622 8.8870703,4.0764091 8.7490453,3.3895178 L 8.4980906,2.140625 8.5068578,1.4787609 C 8.5164441,0.75507037 8.5209366,0.73673028 8.7261656,0.58350481 8.8972075,0.45580353 8.9744959,0.46668556 11.5625,0.98285456 c 1.349219,0.26909724 2.517651,0.50997864 2.596516,0.53529194 0.156962,0.05038 0.28728,0.1673218 0.338996,0.3042004 0.05201,0.1376468 0.04357,1.2808469 -0.01037,1.4052193 C 14.463652,3.2828732 14.2895,3.4809516 14.10063,3.66774 L 13.757227,4.0073547 13.962691,4.26149 c 0.578855,0.7159762 0.986807,1.5591466 1.161475,2.4005825 0.110603,0.5328162 0.133439,0.9312112 0.117245,2.0454506 -0.01709,1.1756613 -0.0385,1.3402719 -0.260751,2.0045569 -0.740178,2.212311 -3.075166,3.747977 -6.090035,4.005272 -0.4389787,0.03746 -1.3972006,0.03577 -1.84375,-0.0033 z m 1.71875,-0.496746 c 2.873406,-0.245222 5.047858,-1.641057 5.730137,-3.67832 C 14.696303,9.9402241 14.727235,9.7042097 14.740473,8.671875 14.755842,7.4734259 14.710092,7.0081594 14.512032,6.3486916 14.298275,5.6369625 13.866829,4.9072559 13.256701,4.2255444 L 13.051421,3.9961806 13.541336,3.5055475 14.03125,3.0149143 V 2.5074571 C 14.03125,2.2283557 14.027485,2 14.022884,2 14.018282,2 12.890016,1.775 11.515625,1.5 10.141234,1.225 9.0129678,1 9.0083663,1 c -0.0046,0 -0.00837,0.2285156 -0.00838,0.5078125 l -5e-6,0.5078125 0.3022953,1.515625 0.3022953,1.515625 0.2430612,0.258275 c 0.2756809,0.2929363 0.4815329,0.6617628 0.5776979,1.0350641 l 0.05749,0.2231534 0.510205,-0.5082463 0.510205,-0.5082462 0.08076,0.09375 c 0.04442,0.051563 0.21761,0.2366556 0.384867,0.4113181 0.696729,0.7275772 1.064413,1.375526 1.20436,2.1223753 0.05941,0.3170641 0.03475,0.5188972 -0.113622,0.9298519 -0.372496,1.0317237 -1.300025,1.8159667 -2.690152,2.2745727 -1.4900779,0.49158 -3.2488061,0.49158 -4.7388842,0 C 4.2404312,10.920137 3.3129022,10.135894 2.9404061,9.1041703 2.792034,8.6932156 2.7673712,8.4913825 2.8267837,8.1743184 2.965466,7.4342181 3.3317303,6.7847716 4.0141212,6.0689741 4.1731769,5.9021322 4.3499137,5.7118778 4.4068703,5.6461866 L 4.5104272,5.5267481 5.0155984,6.0312234 5.5207697,6.5356984 5.5784309,6.3225369 C 5.6817162,5.9407138 5.88149,5.5917356 6.1708378,5.2876806 L 6.4313994,5.013875 6.7313728,3.51475 7.0313462,2.015625 7.0312837,1.5078125 C 7.0312716,1.2285156 7.027485,1 7.0228837,1 7.0182822,1 5.8900156,1.225 4.515625,1.5 3.1412344,1.775 2.0129679,2 2.0083664,2 2.0037649,2 2,2.2286858 2,2.5081906 V 3.0163813 L 2.4821007,3.4977291 2.9642013,3.9790772 2.7294984,4.2428731 C 1.9856317,5.0789472 1.5497127,5.9085441 1.3628446,6.84375 1.2716247,7.3002719 1.2474275,7.7284206 1.2595264,8.671875 c 0.013239,1.0323347 0.044171,1.2683491 0.2447118,1.867157 0.7428037,2.217988 3.2781955,3.678685 6.4332618,3.70635 0.2492188,0.0022 0.621875,-0.01043 0.828125,-0.02803 z M 8.59375,11.216466 c 1.893926,-0.175601 3.350597,-0.950718 3.888326,-2.0690369 0.122135,-0.2540057 0.205424,-0.54248 0.205424,-0.711496 0,-0.1992615 -0.121439,-0.5983444 -0.280046,-0.9203081 C 12.241177,7.1780887 12.010073,6.8551016 11.685098,6.50607 L 11.47957,6.2853284 10.991746,6.7754766 10.503922,7.265625 10.469679,7.4590444 C 10.376828,7.9835131 10.175675,8.3578441 9.7667991,8.7670581 9.4216484,9.1124934 9.1599588,9.2733197 8.71875,9.4111553 8.5152856,9.4747184 8.4204931,9.484375 8,9.484375 7.4445966,9.484375 7.2415591,9.4379813 6.796875,9.2094631 6.4429325,9.0275763 5.9721381,8.5566822 5.7907491,8.203125 5.6495612,7.9279262 5.5502944,7.6322084 5.5171397,7.3880362 5.4961516,7.2334656 5.4826634,7.2163094 5.0151575,6.7495331 L 4.5347431,6.2698688 4.3220591,6.4983403 C 3.8329581,7.0237469 3.5039606,7.5718875 3.3755506,8.0753113 3.2997925,8.3723166 3.2971847,8.4905353 3.3609847,8.7356219 3.6064109,9.6784244 4.4953859,10.463885 5.8048112,10.894885 6.6763303,11.181747 7.69784,11.299533 8.59375,11.216466 Z M 8.421875,8.9531453 C 9.3214828,8.7649184 9.9989147,7.9259269 9.9989147,7 9.9989147,5.9092425 9.0907575,5.0010853 8,5.0010853 c -0.7409122,0 -1.4542134,0.4390403 -1.7769522,1.0937225 -0.2954,0.5992253 -0.2954,1.2111591 0,1.8103844 0.3931413,0.7974956 1.3092084,1.2340897 2.1988272,1.0479531 z"
       id="path819"
       inkscape:connector-curvature="0" />
  </g>
</svg>
