<?xml version="1.0" encoding="UTF-8" standalone="no"?>
<!-- Created with Inkscape (http://www.inkscape.org/) -->

<svg
   version="1.1"
   id="svg2"
   width="1600"
   height="1600"
   viewBox="0 0 1600 1600"
   sodipodi:docname="tocircle.svg"
   inkscape:version="1.4.3 (0d15f75, 2025-12-25)"
   xmlns:inkscape="http://www.inkscape.org/namespaces/inkscape"
   xmlns:sodipodi="http://sodipodi.sourceforge.net/DTD/sodipodi-0.dtd"
   xmlns="http://www.w3.org/2000/svg"
   xmlns:svg="http://www.w3.org/2000/svg"
   xmlns:rdf="http://www.w3.org/1999/02/22-rdf-syntax-ns#"
   xmlns:cc="http://creativecommons.org/ns#"
   xmlns:dc="http://purl.org/dc/elements/1.1/">
  <metadata
     id="metadata8">
    <rdf:RDF>
      <cc:Work
         rdf:about="">
        <dc:format>image/svg+xml</dc:format>
        <dc:type
           rdf:resource="http://purl.org/dc/dcmitype/StillImage" />
      </cc:Work>
    </rdf:RDF>
  </metadata>
  <defs
     id="defs6" />
  <sodipodi:namedview
     pagecolor="#808080"
     bordercolor="#666666"
     borderopacity="1"
     objecttolerance="10"
     gridtolerance="10"
     guidetolerance="10"
     inkscape:pageopacity="0"
     inkscape:pageshadow="2"
     inkscape:window-width="2560"
     inkscape:window-height="1009"
     id="namedview4"
     showgrid="false"
     inkscape:zoom="0.25"
     inkscape:cx="798"
     inkscape:cy="1156"
     inkscape:window-x="1912"
     inkscape:window-y="-8"
     inkscape:window-maximized="1"
     inkscape:current-layer="TOSPHERE"
     inkscape:showpageshadow="0"
     inkscape:pagecheckerboard="true"
     inkscape:deskcolor="#d1d1d1" />
  <g
     id="TOSPHERE"
     transform="matrix(100,0,0,100,0,4.9999997e-5)"
     style="stroke-width:0.0114286">
    <path
       style="fill:none;stroke-width:0.000357143"
       d="M 4.1806406e-4,12.210938 8.3612844e-4,8.421875 0.09018535,8.6785575 c 0.04914207,0.1411756 0.13402322,0.3263013 0.18862478,0.4113903 0.15523184,0.2419078 0.55719337,0.6069981 0.79132637,0.7187397 0.1685352,0.080434 0.2063371,0.1127431 0.2216822,0.1894684 0.030038,0.1501901 0.2354949,0.6811661 0.3937012,1.0174691 0.625057,1.328698 1.7434167,2.488482 3.0710142,3.184764 0.3390096,0.1778 0.937664,0.425431 1.1904943,0.492444 0.1423432,0.03773 0.1551238,0.05021 0.2457038,0.240005 0.1102903,0.231093 0.4770519,0.634172 0.71732,0.788352 0.085089,0.0546 0.2702147,0.139483 0.4113903,0.188625 L 7.578125,15.999164 3.7890625,15.999582 0,16 Z M 8.6785575,15.909815 c 0.1411756,-0.04914 0.3263013,-0.134023 0.4113903,-0.188625 0.2402681,-0.15418 0.6070297,-0.557259 0.71732,-0.788352 0.09058,-0.189793 0.1033606,-0.202277 0.2457042,-0.240005 0.25283,-0.06701 0.851484,-0.314644 1.190494,-0.492444 1.327597,-0.696282 2.445957,-1.856066 3.071014,-3.184764 0.158207,-0.336303 0.363663,-0.867279 0.393701,-1.0174691 0.01534,-0.076725 0.05315,-0.109034 0.221682,-0.1894684 0.234134,-0.1117416 0.636095,-0.4768319 0.791327,-0.7187397 0.0546,-0.085089 0.139483,-0.2702147 0.188625,-0.4113903 l 0.08935,-0.2566825 4.18e-4,3.789063 L 16,16 12.210938,15.999581 8.421875,15.999163 8.6785575,15.909813 Z M 4.1806406e-4,3.7890625 0,0 3.7890625,4.1806406e-4 7.578125,8.3612844e-4 7.3214425,0.09018535 C 7.1802669,0.13932742 6.9951412,0.22420857 6.9100522,0.27881013 6.6681444,0.43404197 6.3030541,0.8360035 6.1913125,1.0701365 6.1108781,1.2386717 6.0785694,1.2764736 6.0018441,1.2918187 5.8516541,1.3218567 5.3206778,1.5273136 4.984375,1.6855199 3.6556772,2.3105769 2.4958933,3.4289366 1.7996105,4.7565341 1.6218107,5.0955437 1.3741796,5.6941981 1.3071673,5.9470284 1.2694394,6.0893716 1.2569553,6.1021522 1.0671617,6.1927322 0.83606934,6.3030225 0.43298984,6.6697841 0.27881013,6.9100522 0.22420857,6.9951412 0.13932742,7.1802669 0.09018535,7.3214425 L 8.3612844e-4,7.578125 Z M 15.9098,7.3258144 C 15.868784,7.1962541 15.783167,7.0101784 15.719539,6.9123125 15.55243,6.6552794 15.170603,6.3062072 14.932003,6.1923338 14.743127,6.1021916 14.730536,6.0892769 14.692833,5.9470284 14.62582,5.6941981 14.378189,5.0955437 14.200389,4.7565341 13.504107,3.4289366 12.344323,2.3105769 11.015625,1.6855199 10.679322,1.5273136 10.148346,1.3218567 9.9981559,1.2918187 9.9214306,1.2764736 9.8891219,1.2386717 9.8086875,1.0701365 9.6969459,0.8360035 9.3318556,0.43404197 9.0899478,0.27881013 9.0048588,0.22420857 8.8197331,0.13932742 8.6785575,0.09018535 L 8.421875,8.3612844e-4 12.210938,4.1806406e-4 16,0 v 3.78125 c 0,2.0796875 -0.0035,3.7809978 -0.0078,3.7806894 -0.0043,-3.125e-4 -0.04137,-0.1065647 -0.08239,-0.236125 z"
       id="path829"
       inkscape:connector-curvature="0" />
    <circle
       style="fill:#ffffff;stroke:none;stroke-width:1.31003;stroke-linecap:round;stroke-linejoin:round;paint-order:markers stroke fill"
       id="path1"
       cx="7.9997535"
       cy="7.9597535"
       r="6.0785294" />
    <path
       style="fill:#3298fe;stroke-width:0.000357143"
       d="M 5.703125,14.612678 C 5.0875784,14.387357 4.6388962,14.165566 4.1562988,13.848056 3.1681213,13.197915 2.2777439,12.202932 1.7530197,11.162427 1.5466019,10.75311 1.2486401,9.9596931 1.2869536,9.9213797 c 0.00928,-0.00928 0.057501,2.78e-5 0.1071499,0.020691 0.049649,0.020663 0.2851488,0.045666 0.5233322,0.055562 l 0.4330606,0.017993 0.070462,0.1875 c 0.331233,0.881416 1.0125149,1.811388 1.7977918,2.454045 0.4251388,0.347926 1.783618,1.425392 1.783618,1.425392 0.0099,0.238184 0.034505,0.472648 0.054687,0.521033 0.020182,0.04838 0.036695,0.09409 0.036695,0.101562 0,0.03361 -0.1306444,0.0027 -0.3906251,-0.09248 z m 4.203125,0.09639 c 0,-0.0096 0.016513,-0.05709 0.036695,-0.105469 0.020183,-0.04839 0.044792,-0.282849 0.054687,-0.521033 l 0.017993,-0.43306 0.1875,-0.07046 c 0.881416,-0.331233 1.811388,-1.012515 2.454045,-1.797792 0.347926,-0.425139 0.742273,-1.100211 0.921872,-1.578125 l 0.07046,-0.1875 0.43306,-0.017993 c 0.238184,-0.0099 0.473683,-0.034898 0.523333,-0.055562 0.04965,-0.020663 0.09787,-0.029974 0.10715,-0.020691 0.04591,0.045906 -0.290319,0.906993 -0.530031,1.357438 -0.696599,1.308982 -1.853095,2.41738 -3.167391,3.035662 C 10.52729,14.544207 9.90625,14.7651 9.90625,14.709066 Z M 1.291878,6.0015478 C 1.3218633,5.8516209 1.5274418,5.320405 1.6855199,4.984375 2.3038019,3.6700791 3.4122003,2.513583 4.7211822,1.8169842 5.1716272,1.5772716 6.0327147,1.2410479 6.0786203,1.2869536 c 0.00928,0.00928 -2.78e-5,0.057501 -0.020691,0.1071499 -0.020663,0.049649 -0.045666,0.2851488 -0.055562,0.5233322 l -0.017993,0.4330606 -0.1875,0.070462 C 5.3189612,2.6005564 4.6438888,2.9949044 4.21875,3.3428303 3.4334731,3.9854869 2.7521912,4.9154587 2.4209582,5.796875 l -0.070462,0.1875 -0.4330606,0.017993 C 1.6792523,6.0122631 1.4447877,6.0368725 1.3964031,6.057055 1.2748523,6.1077566 1.271041,6.1057325 1.291878,6.0015478 Z m 13.301872,0.053683 c -0.04297,-0.019006 -0.273002,-0.042724 -0.511186,-0.052707 l -0.43306,-0.018149 -0.07046,-0.1875 C 13.247809,4.9154587 12.566527,3.9854869 11.78125,3.3428303 11.356111,2.9949044 10.681039,2.6005564 10.203125,2.4209582 L 10.015625,2.3504962 9.997632,1.9174356 C 9.987732,1.6792522 9.962734,1.4437527 9.94207,1.3941034 9.921407,1.3444544 9.912096,1.2962364 9.921379,1.2869535 c 0.045906,-0.045906 0.906993,0.290318 1.357438,0.5300306 1.308982,0.6965988 2.41738,1.8530949 3.035662,3.1673908 0.158078,0.33603 0.363657,0.8672459 0.393642,1.0171728 0.01994,0.099681 0.0052,0.1065853 -0.114371,0.053683 z"
       id="path823"
       inkscape:connector-curvature="0"
       sodipodi:nodetypes="cssssscssccscccccsssccscssccsssssscssscssscscsssccsssscc" />
    <path
       style="fill:#fe9832;stroke-width:0.000357143"
       d="M 7.4966697,15.425801 C 6.8738772,15.205949 6.5,14.671093 6.5,14 6.5,13.56707 6.6149569,13.269205 6.9005159,12.962222 7.1921375,12.648722 7.5459019,12.5 8,12.5 c 0.4540981,0 0.8078625,0.148722 1.0994841,0.462222 C 9.3850431,13.269205 9.5,13.56707 9.5,14 c 0,0.43293 -0.1149569,0.730795 -0.4005159,1.037778 -0.29386,0.315906 -0.6454913,0.46261 -1.1063107,0.461563 -0.2227256,-5.06e-4 -0.3379684,-0.01758 -0.4965037,-0.07354 z m -6,-6.0000001 C 0.87387719,9.2059491 0.5,8.6710934 0.5,8 0.5,7.5670697 0.61495672,7.269205 0.90051594,6.9622222 1.1921374,6.6487222 1.5459018,6.5 2,6.5 c 0.5518773,0 1.0235507,0.2601756 1.303025,0.71875 0.2643772,0.4338019 0.2643772,1.1286981 0,1.5625 C 3.2020597,8.9469188 2.9798188,9.1739619 2.8172379,9.2775341 2.4515687,9.5104841 1.9090931,9.5713906 1.4966697,9.4258009 Z m 12.0000003,0 C 12.873877,9.2059491 12.5,8.6710934 12.5,8 12.5,7.5670697 12.614957,7.269205 12.900516,6.9622222 13.192137,6.6487222 13.545902,6.5 14,6.5 c 0.454098,0 0.807863,0.1487222 1.099484,0.4622222 C 15.385043,7.269205 15.5,7.5670697 15.5,8 c 0,0.4329303 -0.114957,0.730795 -0.400516,1.0377778 -0.29386,0.3159066 -0.645491,0.4626103 -1.106311,0.4615631 -0.222725,-5.062e-4 -0.337968,-0.017576 -0.496503,-0.07354 z m -6.0000003,-6 C 6.8738772,3.2059491 6.5,2.6710934 6.5,2 6.5,1.5670697 6.6149569,1.2692051 6.9005159,0.96222219 7.1921375,0.64872228 7.5459019,0.5 8,0.5 8.4540981,0.5 8.8078625,0.64872228 9.0994841,0.96222219 9.3850431,1.2692051 9.5,1.5670697 9.5,2 9.5,2.4329303 9.3850431,2.7307949 9.0994841,3.0377778 8.8056241,3.3536844 8.4539928,3.5003881 7.9931734,3.4993409 7.7704478,3.4988347 7.655205,3.4817653 7.4966697,3.4258009 Z"
       id="path821"
       inkscape:connector-curvature="0" />
    <path
       style="fill:#653200;stroke-width:0.000357143"
       d="M 7.3214425,15.909815 C 6.9890872,15.794124 6.8112997,15.677541 6.5421297,15.398785 6.2850597,15.132559 6.1894469,14.977736 6.0801675,14.65074 6.0103397,14.441795 6,14.357864 6,14 6,13.642136 6.01034,13.558205 6.080167,13.34926 6.1894464,13.022264 6.2850592,12.867441 6.5421292,12.601215 6.8112992,12.322459 6.9890867,12.205876 7.321442,12.090185 7.5547453,12.008974 7.6165509,12.000836 8,12.000836 c 0.3834491,0 0.4452547,0.0081 0.6785575,0.08935 0.3323553,0.115691 0.5101428,0.232274 0.7793128,0.51103 0.25707,0.266226 0.3526828,0.421049 0.4619622,0.748045 C 9.9896603,13.558205 10,13.642136 10,14 c 0,0.357864 -0.01034,0.441795 -0.080167,0.65074 -0.1092794,0.326996 -0.2048922,0.481819 -0.4619622,0.748045 -0.26917,0.278756 -0.4469575,0.395339 -0.7793128,0.51103 -0.2333033,0.08121 -0.2951089,0.08935 -0.678558,0.08935 -0.3834491,0 -0.4452547,-0.0081 -0.6785575,-0.08935 z M 8.4775484,15.435069 C 8.7253406,15.352273 8.9264241,15.223822 9.0994841,15.037778 9.3850431,14.730795 9.5,14.43293 9.5,14 9.5,13.56707 9.3850431,13.269205 9.0994841,12.962222 8.8078625,12.648722 8.4540981,12.5 8,12.5 7.5459019,12.5 7.1921375,12.648722 6.9005159,12.962222 6.6149569,13.269205 6.5,13.56707 6.5,14 c 0,0.671093 0.3738772,1.205949 0.9966697,1.425801 0.2789206,0.09846 0.7019753,0.102459 0.9808787,0.0093 z M 1.3214424,9.9098147 C 0.98908709,9.7941244 0.81129969,9.6775413 0.54212981,9.398785 0.28505963,9.1325594 0.18944691,8.9777359 0.08016759,8.65074 0.01033978,8.441795 0,8.3578644 0,8 0,7.6421356 0.01033978,7.558205 0.08016759,7.34926 0.18944691,7.0222641 0.28505963,6.8674406 0.54212981,6.601215 0.81129969,6.3224587 0.98908709,6.2058756 1.3214424,6.0901853 1.5547454,6.0089744 1.6165509,6.0008362 2,6.0008362 c 0.3834491,0 0.4452546,0.00814 0.6785576,0.089349 C 3.0109129,6.2058756 3.1887003,6.3224587 3.4578703,6.601215 3.7149403,6.8674406 3.8105531,7.0222641 3.9198325,7.34926 3.9896603,7.558205 4,7.6421356 4,8 4,8.3578644 3.9896603,8.441795 3.9198325,8.65074 3.8105531,8.9777359 3.7149403,9.1325594 3.4578703,9.398785 3.1887003,9.6775413 3.0109129,9.7941244 2.6785576,9.9098147 2.4452546,9.9910256 2.3834491,9.9991638 2,9.9991638 c -0.3834491,0 -0.4452546,-0.00814 -0.6785576,-0.089349 z M 2.4775483,9.4350687 C 2.8132126,9.3229122 3.1219379,9.0783863 3.303025,8.78125 c 0.2643772,-0.4338019 0.2643772,-1.1286981 0,-1.5625 C 3.2020597,7.0530812 2.9798188,6.8260381 2.8172379,6.7224659 2.3439746,6.4209731 1.6560254,6.4209731 1.1827621,6.7224659 0.74331247,7.0024178 0.5,7.4576859 0.5,8 c 0,0.6710934 0.37387719,1.2059491 0.9966697,1.4258009 0.2789205,0.098462 0.7019752,0.1024591 0.9808786,0.00927 z M 13.321443,9.9098147 C 12.989087,9.7941244 12.8113,9.6775413 12.54213,9.398785 12.28506,9.1325594 12.189447,8.9777359 12.080168,8.65074 12.01034,8.441795 12,8.3578644 12,8 12,7.6421356 12.01034,7.558205 12.080168,7.34926 12.189447,7.0222641 12.28506,6.8674406 12.54213,6.601215 12.8113,6.3224587 12.989087,6.2058756 13.321443,6.0901853 13.554745,6.0089744 13.616551,6.0008362 14,6.0008362 c 0.383449,0 0.445255,0.00814 0.678558,0.089349 0.332355,0.1156903 0.510142,0.2322734 0.779312,0.5110297 0.25707,0.2662256 0.352683,0.4210491 0.461963,0.748045 C 15.98966,7.558205 16,7.6421356 16,8 16,8.3578644 15.98966,8.441795 15.919833,8.65074 15.810553,8.9777359 15.71494,9.1325594 15.45787,9.398785 15.1887,9.6775413 15.010913,9.7941244 14.678558,9.9098147 14.445255,9.9910256 14.383449,9.9991638 14,9.9991638 c -0.383449,0 -0.445255,-0.00814 -0.678557,-0.089349 z M 14.477548,9.4350688 C 14.725341,9.3522731 14.926424,9.2238216 15.099484,9.0377778 15.385043,8.730795 15.5,8.4329303 15.5,8 15.5,7.5670697 15.385043,7.269205 15.099484,6.9622222 14.807863,6.6487222 14.454098,6.5 14,6.5 13.545902,6.5 13.192137,6.6487222 12.900516,6.9622222 12.614957,7.269205 12.5,7.5670697 12.5,8 c 0,0.6710934 0.373877,1.2059491 0.99667,1.4258009 0.27892,0.098462 0.701975,0.1024591 0.980878,0.00927 z M 7.3214425,3.9098147 C 6.9890872,3.7941244 6.8112997,3.6775413 6.5421297,3.398785 6.2850597,3.1325594 6.1894469,2.9777358 6.0801675,2.6507401 6.0103397,2.4417948 6,2.3578643 6,2 6,1.6421357 6.0103397,1.5582052 6.0801675,1.3492599 6.1894469,1.0222642 6.2850597,0.86744069 6.5421297,0.601215 6.8112997,0.32245869 6.9890872,0.20587563 7.3214425,0.09018535 7.5547453,0.00897438 7.6165509,8.3612844e-4 8,8.3612844e-4 c 0.3834491,0 0.4452547,0.008138252 0.6785575,0.0893492216 C 9.0109128,0.20587563 9.1887003,0.32245869 9.4578703,0.601215 9.7149403,0.86744069 9.8105531,1.0222642 9.9198325,1.3492599 9.9896603,1.5582052 10,1.6421357 10,2 10,2.3578643 9.9896603,2.4417948 9.9198325,2.6507401 9.8105531,2.9777358 9.7149403,3.1325594 9.4578703,3.398785 9.1887003,3.6775413 9.0109128,3.7941244 8.6785575,3.9098147 8.4452547,3.9910256 8.3834491,3.9991638 8,3.9991638 c -0.3834491,0 -0.4452547,-0.00814 -0.6785575,-0.089349 z M 8.4775484,3.4350688 C 8.7253406,3.3522731 8.9264241,3.2238216 9.0994841,3.0377778 9.3850431,2.7307949 9.5,2.4329303 9.5,2 9.5,1.5670697 9.3850431,1.2692051 9.0994841,0.96222219 8.8078625,0.64872228 8.4540981,0.5 8,0.5 7.5459019,0.5 7.1921375,0.64872228 6.9005159,0.96222219 6.6149569,1.2692051 6.5,1.5670697 6.5,2 c 0,0.6710934 0.3738772,1.2059491 0.9966697,1.4258009 0.2789206,0.098462 0.7019753,0.1024591 0.9808787,0.00927 z"
       id="path819"
       inkscape:connector-curvature="0" />
  </g>
</svg>
