<?xml version="1.0" encoding="UTF-8" standalone="no"?>
<!-- Created with Inkscape (http://www.inkscape.org/) -->

<svg
   version="1.1"
   id="svg2"
   width="1600"
   height="1600"
   viewBox="0 0 1600 1600"
   sodipodi:docname="toggle_node_preview.svg"
   inkscape:version="1.2.2 (732a01da63, 2022-12-09)"
   xmlns:inkscape="http://www.inkscape.org/namespaces/inkscape"
   xmlns:sodipodi="http://sodipodi.sourceforge.net/DTD/sodipodi-0.dtd"
   xmlns="http://www.w3.org/2000/svg"
   xmlns:svg="http://www.w3.org/2000/svg"
   xmlns:rdf="http://www.w3.org/1999/02/22-rdf-syntax-ns#"
   xmlns:cc="http://creativecommons.org/ns#"
   xmlns:dc="http://purl.org/dc/elements/1.1/">
  <metadata
     id="metadata8">
    <rdf:RDF>
      <cc:Work
         rdf:about="">
        <dc:format>image/svg+xml</dc:format>
        <dc:type
           rdf:resource="http://purl.org/dc/dcmitype/StillImage" />
      </cc:Work>
    </rdf:RDF>
  </metadata>
  <defs
     id="defs6" />
  <sodipodi:namedview
     pagecolor="#808080"
     bordercolor="#666666"
     borderopacity="1"
     objecttolerance="10"
     gridtolerance="10"
     guidetolerance="10"
     inkscape:pageopacity="0"
     inkscape:pageshadow="2"
     inkscape:window-width="1993"
     inkscape:window-height="1009"
     id="namedview4"
     showgrid="false"
     inkscape:zoom="0.5"
     inkscape:cx="9"
     inkscape:cy="8"
     inkscape:window-x="-8"
     inkscape:window-y="-8"
     inkscape:window-maximized="1"
     inkscape:current-layer="TOGGLE_NODE_PREVIEW"
     inkscape:showpageshadow="0"
     inkscape:pagecheckerboard="true"
     inkscape:deskcolor="#d1d1d1" />
  <g
     id="TOGGLE_NODE_PREVIEW"
     transform="matrix(100,0,0,100,0,4.9999997e-5)"
     style="stroke-width:0.0114286">
    <path
       style="fill:none;stroke-width:0.000357143"
       d="M 0,8 V 0 h 8 8 v 8 8 H 8 0 Z m 13.630732,7.47128 c 0.913377,-0.233602 1.606946,-0.927171 1.840548,-1.840548 0.08311,-0.324959 0.08311,-0.936504 0,-1.261464 -0.233602,-0.913377 -0.927171,-1.606946 -1.840548,-1.840548 -0.196825,-0.05034 -0.346589,-0.05997 -0.932606,-0.05997 H 12 V 5.734375 1 H 6.5 1 v 7 7 h 2.7030528 2.7030525 l 0.1526563,0.109673 c 0.1971434,0.141633 0.5194171,0.28703 0.7983175,0.360169 0.2074203,0.05439 0.4003637,0.05807 3.1301099,0.05969 2.769025,0.0016 2.920351,-0.0012 3.143543,-0.05825 z"
       id="path841"
       inkscape:connector-curvature="0" />
    <path
       style="fill:#fefefe;stroke-width:0.000357143"
       d="m 9.82725,14.740108 c 0.765705,-0.805099 0.908543,-2.034371 0.350701,-3.018137 C 10.105859,11.594836 9.9480438,11.3869 9.82725,11.259892 l -0.2196247,-0.230924 1.8758747,0.009 1.875875,0.009 0.229206,0.08372 c 0.325606,0.118939 0.549958,0.260603 0.785087,0.495732 0.235789,0.235789 0.377593,0.460736 0.494909,0.785087 0.07161,0.197985 0.0829,0.278157 0.0829,0.588581 0,0.310424 -0.01129,0.390596 -0.0829,0.588581 -0.117316,0.324351 -0.25912,0.549298 -0.494909,0.785087 -0.235129,0.235129 -0.459481,0.376793 -0.785087,0.495732 l -0.229206,0.08372 -1.875875,0.009 -1.8758747,0.009 z M 7,4.5 V 4 h 2 2 V 4.5 5 H 9 7 Z"
       id="path839"
       inkscape:connector-curvature="0" />
    <path
       style="fill:#e5e5e5;stroke-width:0.000357143"
       d="M 1.5,9 V 3.5 h 5 5 V 6.984375 10.46875 H 11.25 11 V 7.234375 4 H 6.5 2 v 5 5 h 1.8260191 c 1.7429009,0 1.8268465,0.0026 1.8441937,0.05726 0.01,0.03149 0.067193,0.138666 0.1271056,0.23816 0.059913,0.0995 0.1089316,0.186227 0.1089316,0.192738 0,0.0065 -0.9914063,0.01184 -2.203125,0.01184 H 1.5 Z"
       id="path837"
       inkscape:connector-curvature="0" />
    <path
       style="fill:#97e5fe;stroke-width:0.000357143"
       d="M 2,6.5 V 4 H 4.5 7 v 1 1 h 2 2 V 7.5 9 H 10.5 10 V 8.5 8 H 9.5 9 V 8.5 9 H 6.5 4 V 8 7 H 3.5 3 V 8 9 H 2.5 2 Z"
       id="path835"
       inkscape:connector-curvature="0" />
    <path
       style="fill:#b2b2b2;stroke-width:0.000357143"
       d="M 7,5.5 V 5 h 2 2 V 5.5 6 H 9 7 Z"
       id="path833"
       inkscape:connector-curvature="0" />
    <path
       style="fill:#4c91fe;stroke-width:0.000357143"
       d="M 7.625,14.91828 C 7.1970156,14.825162 6.7250119,14.5313 6.4769466,14.20352 6.2158,13.858455 6.03125,13.360113 6.03125,13 c 0,-0.526013 0.3445944,-1.209394 0.7705106,-1.528034 C 7.1462375,11.214252 7.6437922,11.03125 8,11.03125 c 0.3562078,0 0.8537625,0.183002 1.1982394,0.440716 C 9.6241556,11.790606 9.96875,12.473987 9.96875,13 c 0,0.356208 -0.1830019,0.853763 -0.4407156,1.198239 -0.2519688,0.336799 -0.7284944,0.629087 -1.178515,0.72287 -0.2736563,0.05703 -0.452611,0.05633 -0.7245194,-0.0028 z"
       id="path831"
       inkscape:connector-curvature="0" />
    <path
       style="fill:#7f7f7f;stroke-width:0.000357143"
       d="M 1.5,2.25 V 1.5 h 5 5 V 2.25 3 h -5 -5 z"
       id="path829"
       inkscape:connector-curvature="0" />
    <path
       style="fill:#b28e00;stroke-width:0.000357143"
       d="M 2,10 V 9 H 2.5 3 V 9.5 10 H 3.5 4 V 9.5 9 H 6.5 9 V 9.5 10 H 9.5 10 V 9.5 9 H 10.5 11 V 9.734375 10.46875 H 9.3018738 c -1.5719538,0 -1.7155482,0.0045 -1.932606,0.05997 -0.2888925,0.07389 -0.6084953,0.216477 -0.8105062,0.361608 L 6.4061053,11 H 4.2030528 2 Z"
       id="path827"
       inkscape:connector-curvature="0" />
    <path
       style="fill:#8d7100;stroke-width:0.000357143"
       d="M 2,12.5 V 11 h 2.1926269 2.1926269 l -0.2043719,0.211693 c -0.254916,0.264047 -0.4332085,0.537392 -0.5520035,0.846293 -0.1387846,0.36088 -0.1691103,0.569556 -0.15359,1.056885 0.01132,0.35543 0.027601,0.472163 0.091851,0.658567 L 5.6452316,14 H 3.8226159 2 Z m 1,-3 V 9 H 3.5 4 V 9.5 10 H 3.5 3 Z m 6,0 V 9 H 9.5 10 V 9.5 10 H 9.5 9 Z"
       id="path825"
       inkscape:connector-curvature="0" />
    <path
       style="fill:#407f0a;stroke-width:0.000357143"
       d="M 3,8 V 7 H 3.5 4 V 8 9 H 3.5 3 Z M 9,8.5 V 8 H 9.5 10 V 8.5 9 H 9.5 9 Z"
       id="path823"
       inkscape:connector-curvature="0" />
    <path
       style="fill:#191919;stroke-width:0.000357143"
       d="M 1,8 V 1 H 6.5 12 V 5.734375 10.46875 H 11.75 11.5 V 6.984375 3.5 h -5 -5 V 9 14.5 L 3.7109375,14.5017 5.921875,14.5034 6.1515225,14.751686 6.38117,15 H 3.690585 1 Z M 11.5,2.25 V 1.5 h -5 -5 V 2.25 3 h 5 5 z"
       id="path821"
       inkscape:connector-curvature="0" />
    <path
       style="fill:#000000;stroke-width:0.000357143"
       d="M 7.3570791,15.469842 C 6.4508163,15.232184 5.7607841,14.538095 5.52872,13.630732 5.445609,13.305773 5.445609,12.694228 5.52872,12.369268 5.7623222,11.455891 6.4558909,10.762322 7.3692678,10.52872 7.5921687,10.471712 7.74677,10.46875 10.5,10.46875 c 2.75323,0 2.907831,0.003 3.130732,0.05997 0.913377,0.233602 1.606946,0.927171 1.840548,1.840548 0.08311,0.32496 0.08311,0.936505 0,1.261464 -0.233602,0.913377 -0.927171,1.606946 -1.840548,1.840548 -0.223192,0.05708 -0.374518,0.05989 -3.143543,0.05825 -2.7297462,-0.0016 -2.9226896,-0.0053 -3.1301099,-0.05969 z M 8.3584784,14.921518 C 8.6264453,14.864755 8.9534228,14.71111 9.2075141,14.522561 9.6274163,14.210972 9.9676647,13.529463 9.9676647,13 c 0,-0.368957 -0.1748584,-0.843328 -0.4451035,-1.207514 C 9.2109719,11.372584 8.5294634,11.032335 8,11.032335 c -0.5294634,0 -1.2109719,0.340249 -1.5225613,0.760151 C 6.2071937,12.156672 6.0323353,12.631043 6.0323353,13 c 0,0.543608 0.3512947,1.230854 0.7887219,1.542996 0.511459,0.364969 1.0155253,0.489073 1.5374212,0.378522 z M 13.588581,14.8694 c 0.325606,-0.118939 0.549958,-0.260603 0.785087,-0.495732 0.235789,-0.235789 0.377593,-0.460736 0.494909,-0.785087 0.07161,-0.197985 0.0829,-0.278157 0.0829,-0.588581 0,-0.310424 -0.01129,-0.390596 -0.0829,-0.588581 -0.117316,-0.324351 -0.25912,-0.549298 -0.494909,-0.785087 -0.235129,-0.235129 -0.459481,-0.376793 -0.785087,-0.495732 l -0.229206,-0.08372 -1.875875,-0.009 -1.8758747,-0.009 0.2196247,0.230924 c 0.917675,0.964889 0.917675,2.515327 0,3.480216 l -0.2196247,0.230925 1.8758747,-0.009 1.875875,-0.009 z"
       id="path819"
       inkscape:connector-curvature="0" />
  </g>
</svg>
