<?xml version="1.0" encoding="UTF-8" standalone="no"?>
<!-- Created with Inkscape (http://www.inkscape.org/) -->

<svg
   version="1.1"
   id="svg2"
   width="1600"
   height="1600"
   viewBox="0 0 1600 1600"
   sodipodi:docname="toggle_cyclic.svg"
   inkscape:version="1.2.2 (732a01da63, 2022-12-09)"
   xmlns:inkscape="http://www.inkscape.org/namespaces/inkscape"
   xmlns:sodipodi="http://sodipodi.sourceforge.net/DTD/sodipodi-0.dtd"
   xmlns="http://www.w3.org/2000/svg"
   xmlns:svg="http://www.w3.org/2000/svg"
   xmlns:rdf="http://www.w3.org/1999/02/22-rdf-syntax-ns#"
   xmlns:cc="http://creativecommons.org/ns#"
   xmlns:dc="http://purl.org/dc/elements/1.1/">
  <metadata
     id="metadata8">
    <rdf:RDF>
      <cc:Work
         rdf:about="">
        <dc:format>image/svg+xml</dc:format>
        <dc:type
           rdf:resource="http://purl.org/dc/dcmitype/StillImage" />
      </cc:Work>
    </rdf:RDF>
  </metadata>
  <defs
     id="defs6" />
  <sodipodi:namedview
     pagecolor="#808080"
     bordercolor="#666666"
     borderopacity="1"
     objecttolerance="10"
     gridtolerance="10"
     guidetolerance="10"
     inkscape:pageopacity="0"
     inkscape:pageshadow="2"
     inkscape:window-width="1993"
     inkscape:window-height="1009"
     id="namedview4"
     showgrid="false"
     inkscape:zoom="0.5"
     inkscape:cx="9"
     inkscape:cy="8"
     inkscape:window-x="-8"
     inkscape:window-y="-8"
     inkscape:window-maximized="1"
     inkscape:current-layer="TOGGLE_CYCLIC"
     inkscape:showpageshadow="0"
     inkscape:pagecheckerboard="true"
     inkscape:deskcolor="#d1d1d1" />
  <g
     id="TOGGLE_CYCLIC"
     transform="matrix(100,0,0,100,0,4.9999997e-5)"
     style="stroke-width:0.0114286">
    <path
       style="fill:none;stroke-width:0.000357143"
       d="M 0.00425822,12.242188 C 0.00670231,10.085321 0.01934255,8.5975397 0.03392799,8.75 0.12688784,9.7217025 0.398291,10.660214 0.84658725,11.560175 1.6382797,13.149508 2.8504925,14.36172 4.4398253,15.153413 5.3397859,15.601709 6.2782975,15.873112 7.25,15.966072 c 0.1524603,0.01459 -1.3353206,0.02723 -3.4921875,0.02967 L 0,16 Z M 8.75,15.966072 c 0.8682194,-0.08306 1.801468,-0.334137 2.55732,-0.688011 l 0.322944,-0.151196 0.209652,0.105579 c 0.410238,0.206593 0.61901,0.251931 1.160084,0.251931 0.555403,0 0.758441,-0.04639 1.203125,-0.274912 0.353678,-0.18175 0.824588,-0.65266 1.006338,-1.006338 0.228518,-0.444684 0.274912,-0.647722 0.274912,-1.203125 0,-0.541074 -0.04534,-0.749846 -0.251931,-1.160084 l -0.105579,-0.209652 0.151196,-0.322944 c 0.353874,-0.755852 0.604951,-1.6891006 0.688011,-2.55732 0.01459,-0.1524603 0.02723,1.335321 0.02967,3.492188 L 16,16 12.242188,15.995742 C 10.085321,15.993298 8.5975397,15.980658 8.75,15.966072 Z M 7.6875,13.965403 C 6.343825,13.840244 5.2289437,13.396334 4.2172612,12.583664 3.5776647,12.069884 3.0767504,11.432731 2.6631321,10.606842 2.367181,10.015903 2.1887553,9.4266822 2.0771925,8.671875 1.9275166,7.6592044 2.1488263,6.4201003 2.6625955,5.3942278 3.2877903,4.1458653 4.1455194,3.2879691 5.3931584,2.6631321 5.9840969,2.367181 6.5733178,2.1887553 7.328125,2.0771925 8.2156137,1.9460189 9.3078934,2.1027619 10.253983,2.4970554 l 0.238358,0.099338 0.01544,0.4596156 c 0.01758,0.523109 0.06829,0.7286722 0.282964,1.1471156 0.181525,0.3538219 0.652304,0.8246012 1.006126,1.0061259 0.418443,0.2146782 0.624007,0.2653854 1.147116,0.2829638 l 0.459615,0.015445 0.09934,0.2383578 C 13.786727,6.4269394 13.973615,7.3219244 13.973615,8 c 0,0.6780756 -0.186888,1.5730606 -0.47067,2.253983 l -0.09934,0.238358 -0.459615,0.01544 c -0.523109,0.01758 -0.728673,0.06829 -1.147116,0.282964 -0.353822,0.181525 -0.824601,0.652304 -1.006126,1.006126 -0.214678,0.418443 -0.265385,0.624007 -0.282964,1.147116 l -0.01544,0.459615 -0.238358,0.09934 C 9.7637819,13.707242 9.2618206,13.839083 8.671875,13.91849 8.1828756,13.98431 7.9894481,13.99353 7.6875,13.9654 Z M 8.734375,10.407018 C 9.1639863,10.270511 9.4259397,10.108177 9.7670581,9.7670581 10.112472,9.4216447 10.273386,9.1597463 10.411155,8.71875 10.474718,8.5152856 10.484375,8.4204931 10.484375,8 c 0,-0.5554034 -0.04639,-0.7584409 -0.274912,-1.203125 C 10.027713,6.4431975 9.5568025,5.9722875 9.203125,5.7905369 8.7584409,5.5620187 8.5554034,5.515625 8,5.515625 7.4445966,5.515625 7.2415591,5.562019 6.796875,5.7905369 6.4431975,5.9722875 5.9722875,6.4431975 5.7905369,6.796875 5.5620187,7.2415591 5.515625,7.4445966 5.515625,8 c 0,0.5554034 0.046394,0.7584409 0.2749119,1.203125 0.1823759,0.3548944 0.6532106,0.825272 1.0063381,1.005363 0.4753194,0.242406 0.7023494,0.291706 1.28125,0.278225 0.3453037,-0.008 0.4835981,-0.02483 0.65625,-0.07969 z M 0.00425822,3.7578125 0,0 3.7578125,0.00425822 C 5.9146794,0.00670231 7.4024603,0.01934255 7.25,0.03392799 5.7142247,0.18085102 4.1843625,0.80445922 2.9808663,1.7741286 2.0838683,2.4968491 1.3707947,3.3874719 0.84658725,4.4398253 0.398291,5.3397859 0.12688784,6.2782975 0.03392799,7.25 0.01934255,7.4024603 0.00670231,5.9146794 0.00425822,3.7578125 Z M 15.958158,7.2265625 C 15.901444,6.4492834 15.634059,5.4530687 15.278061,4.6926803 L 15.126865,4.3697359 15.232444,4.1600844 C 15.439037,3.7498459 15.484375,3.5410737 15.484375,3 c 0,-0.5554034 -0.04639,-0.758441 -0.274912,-1.203125 C 15.027713,1.4431977 14.556803,0.97228759 14.203125,0.79053681 13.758441,0.56201872 13.555403,0.515625 13,0.515625 c -0.541074,0 -0.749846,0.0453382 -1.160084,0.251931 L 11.630264,0.87313472 11.30732,0.72193897 C 10.551468,0.36806534 9.6182194,0.11698793 8.75,0.03392799 8.5975397,0.01934255 10.085321,0.00670231 12.242188,0.00425822 L 16,0 v 3.75 c 0,2.0625 -0.0049,3.75 -0.01095,3.75 -0.006,0 -0.01992,-0.1230469 -0.0309,-0.2734375 z"
       id="path829"
       inkscape:connector-curvature="0" />
    <path
       style="fill:#fe9832;stroke-width:0.000357143"
       d="M 7.375,15.466072 C 5.8664556,15.321754 4.43974,14.739919 3.265625,13.79021 2.0555282,12.811397 1.1306477,11.360751 0.74970875,9.8440744 c -0.323106,-1.2864197 -0.323106,-2.4017291 0,-3.6881488 C 1.063011,4.9085387 1.7623002,3.6711384 2.6806552,2.7390935 3.603625,1.8023651 4.8847859,1.068977 6.1559256,0.74970875 7.4434141,0.42633434 8.5575028,0.42654706 9.8468528,0.75041344 10.292274,0.862297 11.104333,1.1564157 11.181853,1.233936 c 0.0072,0.0072 -0.05211,0.087589 -0.13179,0.1786409 -0.07969,0.091051 -0.202901,0.278048 -0.273813,0.415548 -0.07091,0.1375 -0.131165,0.2530731 -0.133898,0.2568292 -0.0027,0.00376 -0.151895,-0.050897 -0.331473,-0.1214503 C 9.6199619,1.6920509 8.7127384,1.5200119 7.984375,1.5223232 6.5573444,1.5268514 5.0818609,2.0575769 3.9375,2.9779679 2.4403688,4.1820862 1.5233218,6.0897497 1.5233218,8 c 0,1.3869072 0.5089796,2.853213 1.3771963,3.967528 0.8903294,1.142696 2.1827422,1.978567 3.5765875,2.313167 1.1180003,0.268382 1.98874,0.264402 3.1010194,-0.01417 0.2234375,-0.05596 0.553177,-0.159473 0.732754,-0.230027 0.179578,-0.07055 0.32874,-0.125206 0.331473,-0.12145 0.0027,0.0038 0.06299,0.119329 0.133898,0.256829 0.07091,0.1375 0.194127,0.324497 0.273813,0.415548 0.07968,0.09105 0.138991,0.17144 0.13179,0.178641 -0.0072,0.0072 -0.09677,0.05036 -0.199035,0.0959 C 9.8961603,15.345887 8.5226866,15.575868 7.375,15.466072 Z"
       id="path827"
       inkscape:connector-curvature="0" />
    <path
       style="fill:#00fe00;stroke-width:0.000357143"
       d="m 12.5625,14.951405 c -0.730181,-0.156824 -1.361796,-0.794226 -1.515645,-1.52953 -0.297121,-1.420052 0.954968,-2.672141 2.37502,-2.37502 0.742912,0.155441 1.375829,0.788358 1.53127,1.53127 0.29819,1.425161 -0.965246,2.67942 -2.390645,2.37328 z m 2.0161,-3.906266 c -0.08568,-0.07676 -0.268489,-0.197668 -0.40625,-0.268689 -0.137761,-0.07102 -0.253548,-0.131365 -0.257304,-0.134098 -0.0038,-0.0027 0.0509,-0.151895 0.12145,-0.331473 C 14.303911,9.6302391 14.478691,8.7168531 14.478691,8 c 0,-0.7168531 -0.17478,-1.6302391 -0.442195,-2.3108791 -0.07055,-0.1795775 -0.125206,-0.3287403 -0.12145,-0.3314731 0.0038,-0.00273 0.119329,-0.062987 0.256829,-0.1338981 0.1375,-0.070911 0.324497,-0.1941269 0.415548,-0.2738125 0.09105,-0.079686 0.17144,-0.1389909 0.178641,-0.13179 0.07752,0.07752 0.371639,0.8895784 0.483523,1.335 0.324029,1.2900006 0.324113,2.4033466 2.81e-4,3.6926175 -0.124705,0.4964793 -0.438335,1.3444113 -0.495759,1.3403353 -0.01085,-7.72e-4 -0.08983,-0.0642 -0.175504,-0.140961 z M 7.5625,9.9514053 C 6.8323191,9.7945809 6.2007041,9.1571794 6.0468547,8.421875 5.7497344,7.0018228 7.0018228,5.7497344 8.421875,6.0468547 9.1647875,6.2022959 9.7977041,6.8352125 9.9531453,7.578125 10.251335,9.0032863 8.9878991,10.257545 7.5625,9.9514053 Z m 5,-5 C 11.832319,4.7945809 11.200704,4.1571794 11.046855,3.421875 10.786618,2.1781071 11.736265,1.0010852 13,1.0010852 c 1.090758,0 1.998915,0.9081572 1.998915,1.9989148 0,1.2683769 -1.187653,2.2196075 -2.436415,1.9514053 z"
       id="path825"
       inkscape:connector-curvature="0" />
    <path
       style="fill:#980000;stroke-width:0.000357143"
       d="M 7.25,15.966072 C 5.7142247,15.819149 4.1843625,15.195541 2.9808663,14.225872 1.1102107,12.718665 5.2235313e-5,10.399935 5.2235313e-5,8 5.2235313e-5,6.1962016 0.63824412,4.3906587 1.7741286,2.9808663 3.281335,1.1102107 5.6000653,5.2235313e-5 8,5.2235313e-5 c 1.1302966,0 2.320458,0.259853184687 3.308168,0.722286734687 L 11.63196,0.87393469 11.480043,0.9949345 c -0.08356,0.0665499 -0.177507,0.1498386 -0.208782,0.1850859 l -0.05686,0.064086 -0.208761,-0.094824 C 9.9757569,0.68148869 8.6251156,0.43826569 7.5390625,0.52502331 5.9172044,0.65458287 4.49526,1.2151722 3.265625,2.2097895 2.0555282,3.1886028 1.1306477,4.6392491 0.74970875,6.1559256 c -0.323106,1.2864197 -0.323106,2.4017291 0,3.6881488 C 1.1306477,11.360751 2.0555282,12.811397 3.265625,13.79021 c 1.229635,0.994618 2.6515794,1.555207 4.2734375,1.684767 1.0860531,0.08676 2.4366944,-0.156466 3.4665735,-0.624259 l 0.208761,-0.09483 0.05686,0.06409 c 0.03127,0.03525 0.125227,0.118536 0.208782,0.185086 l 0.151917,0.120999 -0.323792,0.151596 C 10.100641,15.84301 8.6088597,16.09607 7.25,15.966072 Z M 7.5625,14.467935 C 6.1548144,14.323393 4.9659344,13.849185 3.9375,13.022032 2.4403688,11.817914 1.5233218,9.9102503 1.5233218,8 c 0,-1.3869072 0.5089796,-2.8532128 1.3771963,-3.9675278 C 3.7908475,2.8897763 5.0832603,2.053905 6.4771056,1.7193052 7.5952181,1.4508964 8.4664409,1.4549023 9.578125,1.7335637 c 0.2234375,0.056008 0.555811,0.1603992 0.738608,0.2319801 l 0.332359,0.130147 -0.05892,0.1893138 c -0.03241,0.1041226 -0.05892,0.223503 -0.05892,0.2652897 v 0.075976 L 10.414063,2.5669488 C 10.028265,2.3716541 9.3232825,2.1734725 8.671875,2.0771925 7.6592044,1.9275166 6.4201003,2.1488263 5.3942278,2.6625955 4.1458653,3.2877903 3.2879691,4.1455194 2.6631321,5.3931584 2.367181,5.9840969 2.1887553,6.5733178 2.0771925,7.328125 1.9274497,8.3412484 2.148801,9.5798541 2.6631321,10.606842 3.2879691,11.854481 4.1458653,12.71221 5.3942278,13.337405 6.1718963,13.72687 7.1825063,13.973615 8,13.973615 c 0.7199184,0 1.8429909,-0.251482 2.414063,-0.540564 l 0.117187,-0.05932 v 0.07598 c 0,0.04179 0.02651,0.161167 0.05892,0.265289 l 0.05892,0.189314 -0.332359,0.130147 C 9.4887253,14.358693 8.3081534,14.544499 7.5625,14.467935 Z"
       id="path823"
       inkscape:connector-curvature="0" />
    <path
       style="fill:#323232;stroke-width:0.000357143"
       d="M 12.50235,15.467898 C 12.267713,15.418682 12.057369,15.341337 11.796875,15.208488 11.443748,15.028397 10.972913,14.558019 10.790537,14.203125 10.562019,13.758441 10.515625,13.555403 10.515625,13 c 0,-0.555403 0.04639,-0.758441 0.274912,-1.203125 0.181751,-0.353677 0.652661,-0.824587 1.006338,-1.006338 0.444684,-0.228518 0.647722,-0.274912 1.203125,-0.274912 0.555403,0 0.758441,0.04639 1.203125,0.274912 0.353678,0.181751 0.824588,0.652661 1.006338,1.006338 0.228518,0.444684 0.274912,0.647722 0.274912,1.203125 0,0.555403 -0.04639,0.758441 -0.274912,1.203125 -0.181887,0.353943 -0.652781,0.824737 -1.006338,1.006126 -0.419027,0.214977 -0.625185,0.265823 -1.125,0.277462 -0.240625,0.0056 -0.499724,-0.0029 -0.575775,-0.01882 z m 0.919525,-0.514753 c 0.567426,-0.118723 1.100054,-0.530633 1.355077,-1.047953 0.394615,-0.800484 0.252475,-1.692054 -0.368808,-2.313336 -0.787539,-0.787539 -2.028749,-0.787539 -2.816288,0 -0.787539,0.787539 -0.787539,2.028749 0,2.816288 0.4871,0.4871 1.15545,0.686143 1.830019,0.545001 z M 7.5023497,10.467898 C 7.2677128,10.418682 7.0573694,10.341337 6.796875,10.208488 6.4437475,10.028397 5.9729128,9.5580194 5.7905369,9.203125 5.5620187,8.7584409 5.515625,8.5554034 5.515625,8 5.515625,7.4445966 5.562019,7.2415591 5.7905369,6.796875 5.9722875,6.4431975 6.4431975,5.9722875 6.796875,5.7905369 7.2415591,5.5620187 7.4445966,5.515625 8,5.515625 c 0.5554034,0 0.7584409,0.046394 1.203125,0.2749119 0.3536775,0.1817506 0.824588,0.6526606 1.006338,1.0063381 0.228518,0.4446841 0.274912,0.6477216 0.274912,1.203125 0,0.5554034 -0.04639,0.7584409 -0.274912,1.203125 -0.181887,0.3539425 -0.6527808,0.824737 -1.006338,1.006126 -0.4190266,0.214977 -0.625185,0.265823 -1.125,0.277462 -0.240625,0.0056 -0.4997241,-0.0029 -0.5757753,-0.01882 z M 8.421875,9.9531453 C 9.1647875,9.7977041 9.7977041,9.1647875 9.9531453,8.421875 10.250266,7.0018228 8.9981772,5.7497344 7.578125,6.0468547 7.0106991,6.1655784 6.4780709,6.5774881 6.2230478,7.0948078 c -0.2954,0.5992253 -0.2954,1.2111591 0,1.8103844 0.3931413,0.7974956 1.3092084,1.2340898 2.1988272,1.0479531 z M 12.50235,5.4678978 C 12.267713,5.4186819 12.057369,5.3413366 11.796875,5.2084878 11.443748,5.0283972 10.972913,4.5580194 10.790537,4.203125 10.562019,3.7584409 10.515625,3.5554034 10.515625,3 c 0,-0.5554034 0.04639,-0.758441 0.274912,-1.203125 C 10.972288,1.4431977 11.443198,0.97228759 11.796875,0.79053681 12.241559,0.56201872 12.444597,0.515625 13,0.515625 c 0.555403,0 0.758441,0.0463937 1.203125,0.27491181 0.353678,0.18175078 0.824588,0.65266089 1.006338,1.00633819 0.228518,0.444684 0.274912,0.6477216 0.274912,1.203125 0,0.5554034 -0.04639,0.7584409 -0.274912,1.203125 -0.181887,0.3539425 -0.652781,0.8247369 -1.006338,1.0061259 -0.419027,0.2149775 -0.625185,0.2658228 -1.125,0.2774622 -0.240625,0.0056 -0.499724,-0.00286 -0.575775,-0.018815 z M 13.421875,4.9531453 C 14.321483,4.7649184 14.998915,3.9259269 14.998915,3 14.998915,1.9092424 14.090758,1.0010852 13,1.0010852 c -1.090757,0 -1.998915,0.9081572 -1.998915,1.9989148 0,0.7407994 0.438806,1.4538003 1.093723,1.7771537 0.43249,0.2135344 0.870202,0.2715822 1.327067,0.1759916 z"
       id="path821"
       inkscape:connector-curvature="0" />
    <path
       style="fill:#006500;stroke-width:0.000357143"
       d="m 15.039576,11.522039 c -0.03839,-0.05639 -0.117768,-0.149026 -0.176396,-0.205851 l -0.106595,-0.103316 0.09448,-0.207999 C 15.186927,10.265456 15.400339,9.3952934 15.474979,8.4609375 15.561739,7.3748844 15.318513,6.0242431 14.85072,4.9943641 l -0.09483,-0.208761 0.06409,-0.056864 c 0.03525,-0.031275 0.118536,-0.1252269 0.185086,-0.2087816 L 15.126065,4.36804 15.277661,4.6918325 c 0.956299,2.0425544 0.956927,4.5722991 0.0016,6.6128545 -0.08247,0.176172 -0.154449,0.320217 -0.159941,0.3201 -0.0055,-1.25e-4 -0.0414,-0.04636 -0.07979,-0.102748 z M 13.71875,10.592453 c -0.09453,-0.03156 -0.210833,-0.05824 -0.258448,-0.05929 l -0.08657,-0.0019 0.05932,-0.117187 C 13.722133,9.8429909 13.973615,8.7199184 13.973615,8 c 0,-0.7199184 -0.251482,-1.8429909 -0.540564,-2.4140625 L 13.37373,5.46875 h 0.07598 c 0.04179,0 0.161167,-0.026514 0.265289,-0.058921 L 13.904313,5.350908 14.03446,5.6832668 C 14.304418,6.3726731 14.478691,7.2815231 14.478691,8 c 0,0.7199341 -0.174269,1.6273122 -0.445634,2.320313 -0.07235,0.184765 -0.133996,0.334495 -0.136989,0.332731 -0.003,-0.0018 -0.08279,-0.02903 -0.177318,-0.06059 z"
       id="path819"
       inkscape:connector-curvature="0" />
  </g>
</svg>
