<?xml version="1.0" encoding="UTF-8" standalone="no"?>
<!-- Created with Inkscape (http://www.inkscape.org/) -->

<svg
   version="1.1"
   id="svg2"
   width="1600"
   height="1600"
   viewBox="0 0 1600 1600"
   sodipodi:docname="togglecaps_start.svg"
   inkscape:version="1.2.2 (732a01da63, 2022-12-09)"
   xmlns:inkscape="http://www.inkscape.org/namespaces/inkscape"
   xmlns:sodipodi="http://sodipodi.sourceforge.net/DTD/sodipodi-0.dtd"
   xmlns="http://www.w3.org/2000/svg"
   xmlns:svg="http://www.w3.org/2000/svg"
   xmlns:rdf="http://www.w3.org/1999/02/22-rdf-syntax-ns#"
   xmlns:cc="http://creativecommons.org/ns#"
   xmlns:dc="http://purl.org/dc/elements/1.1/">
  <metadata
     id="metadata8">
    <rdf:RDF>
      <cc:Work
         rdf:about="">
        <dc:format>image/svg+xml</dc:format>
        <dc:type
           rdf:resource="http://purl.org/dc/dcmitype/StillImage" />
      </cc:Work>
    </rdf:RDF>
  </metadata>
  <defs
     id="defs6" />
  <sodipodi:namedview
     pagecolor="#808080"
     bordercolor="#666666"
     borderopacity="1"
     objecttolerance="10"
     gridtolerance="10"
     guidetolerance="10"
     inkscape:pageopacity="0"
     inkscape:pageshadow="2"
     inkscape:window-width="1993"
     inkscape:window-height="1009"
     id="namedview4"
     showgrid="false"
     inkscape:zoom="0.5"
     inkscape:cx="9"
     inkscape:cy="8"
     inkscape:window-x="-8"
     inkscape:window-y="-8"
     inkscape:window-maximized="1"
     inkscape:current-layer="TOGGLECAPS_START"
     inkscape:showpageshadow="0"
     inkscape:pagecheckerboard="true"
     inkscape:deskcolor="#d1d1d1" />
  <g
     id="TOGGLECAPS_START"
     transform="matrix(100,0,0,100,0,4.9999997e-5)"
     style="stroke-width:0.0114286">
    <path
       style="fill:none;stroke-width:0.000357143"
       d="M 0,8 V 0 L 3.8671875,0.0043483 C 6.2868106,0.00706895 7.6115512,0.01873225 7.40625,0.03550696 6.5262756,0.10740768 5.5368428,0.36703869 4.6785431,0.75126791 L 4.3317384,0.90651956 4.1814206,0.82792066 C 4.0987459,0.78469122 3.9238725,0.71431806 3.7928128,0.67153584 3.5761584,0.60081275 3.5053453,0.59375 3.0129108,0.59375 2.4778888,0.59375 2.467743,0.595021 2.1789952,0.6982235 1.5469168,0.92413706 1.0232795,1.4130723 0.77901128,2.0054289 0.62632234,2.3757034 0.59375,2.5505674 0.59375,3 c 0,0.4494325 0.0325723,0.6242966 0.18526128,0.9945709 C 1.0232795,4.5869278 1.5469168,5.0758628 2.1789952,5.3017766 2.467743,5.4049791 2.4778888,5.40625 3.0129107,5.40625 3.5026959,5.40625 3.576915,5.39894 3.7885384,5.329859 4.2146537,5.1907612 4.3967178,5.0768416 4.7364087,4.7367653 5.0660531,4.4067469 5.1858462,4.2248038 5.3346659,3.828125 5.4066059,3.6363694 5.4184244,3.5506613 5.4304381,3.1335828 L 5.4441428,2.6577905 5.6205087,2.5760898 C 6.1233725,2.3431405 6.9551822,2.1301784 7.6484375,2.0568944 8.3590766,1.9817726 9.4229066,2.1764364 10.289063,2.5400863 l 0.304687,0.127921 v 0.3724231 c 0,0.4060993 0.03625,0.5927746 0.185261,0.9541405 0.244269,0.5923569 0.767906,1.0812919 1.399984,1.3072057 0.277708,0.099256 0.313794,0.1044734 0.722651,0.1044734 h 0.430347 l 0.127921,0.3046875 c 0.245882,0.5856522 0.409745,1.2427109 0.483192,1.9375 0.07512,0.7106391 -0.119542,1.7744691 -0.483192,2.6406255 l -0.127921,0.304687 h -0.445972 c -0.426574,0 -0.458685,0.0045 -0.738276,0.104473 -0.632078,0.225914 -1.155715,0.714849 -1.399984,1.307206 -0.149363,0.362209 -0.185261,0.547789 -0.185261,0.957728 v 0.376011 l -0.179687,0.08322 c -0.5063577,0.234517 -1.3361546,0.447237 -2.0312505,0.520716 -0.27167,0.02872 -0.431455,0.02872 -0.703125,0 C 6.9551822,13.869822 6.1233725,13.65686 5.6205087,13.42391 l -0.1763659,-0.0817 -0.013705,-0.475792 c -0.012024,-0.417464 -0.0238,-0.502728 -0.096052,-0.6955 C 5.1665831,11.723217 4.9294369,11.385454 4.5843909,11.102716 4.3220291,10.887731 4.1230078,10.779322 3.7928128,10.671536 3.5761584,10.600813 3.5053453,10.59375 3.0129108,10.59375 c -0.535022,0 -0.5451678,0.0013 -0.8339156,0.104473 C 1.5469168,10.924137 1.0232795,11.413072 0.77901128,12.005429 0.62632234,12.375703 0.59375,12.550568 0.59375,13 c 0,0.449433 0.0325723,0.624297 0.18526128,0.994571 0.24426822,0.592357 0.76790552,1.081292 1.39998392,1.307206 0.2887478,0.103202 0.2988936,0.104473 0.8339155,0.104473 0.4924346,0 0.5632477,-0.0071 0.7799021,-0.07779 0.1310597,-0.04278 0.3059331,-0.113155 0.3886078,-0.156385 l 0.1503178,-0.0786 0.3468047,0.155252 c 0.8582997,0.384229 1.8477325,0.64386 2.7277069,0.715761 0.2053012,0.01678 -1.1194394,0.02844 -3.5390625,0.03116 L 0,16 Z m 8.7885384,2.329859 C 9.2146538,10.190761 9.3967178,10.076842 9.7364087,9.7367653 10.064628,9.4081741 10.182402,9.2298503 10.336521,8.828125 c 0.08032,-0.2093563 0.08395,-0.2442475 0.08464,-0.8125 7.9e-4,-0.6549756 -0.01487,-0.7361675 -0.2215,-1.1482434 C 10.053469,6.5758347 9.8426094,6.3142494 9.5810444,6.0999481 9.3219309,5.8876553 9.1220128,5.7789975 8.7928128,5.6715359 8.5761584,5.6008128 8.5053453,5.59375 8.0129106,5.59375 7.4778887,5.59375 7.4677431,5.59502 7.1789953,5.6982234 6.5469169,5.9241372 6.0232797,6.4130722 5.7790112,7.0054291 5.6263225,7.3757034 5.59375,7.5505675 5.59375,8 c 0,0.4494325 0.032572,0.6242966 0.1852612,0.9945709 0.2423775,0.5877716 0.7649369,1.0782901 1.3910063,1.3057171 0.2790019,0.10135 0.2910941,0.102864 0.8338063,0.104402 0.5018653,0.0014 0.5714496,-0.0052 0.7847146,-0.07483 z M 8.59375,15.964493 c 0.8823253,-0.07209 1.860309,-0.32902 2.733681,-0.71817 l 0.357469,-0.159277 0.102862,0.06282 c 0.05657,0.03455 0.22703,0.106373 0.378791,0.159602 0.267539,0.09384 0.292354,0.09678 0.816323,0.09678 0.488496,0 0.562871,-0.0073 0.774412,-0.07639 0.426116,-0.139098 0.60818,-0.253017 0.947871,-0.593094 0.328219,-0.328591 0.445993,-0.506915 0.600112,-0.90864 0.08032,-0.209356 0.08395,-0.244247 0.08464,-0.8125 7.81e-4,-0.647975 -0.01448,-0.729644 -0.211229,-1.130608 l -0.09476,-0.193108 0.16084,-0.360973 c 0.390768,-0.877005 0.647525,-1.8534679 0.719731,-2.737186 0.01678,-0.2053012 0.02844,1.1194394 0.03116,3.539063 L 16,16 12.132813,15.995652 C 9.7131894,15.992931 8.3884488,15.981268 8.59375,15.964493 Z M 15.958476,7.3984375 C 15.908419,6.5875275 15.636623,5.5450231 15.250235,4.6819012 L 15.096487,4.3384547 15.20091,4.1301647 C 15.404985,3.7231003 15.421875,3.6367134 15.421875,3 c 0,-0.6373997 -0.01678,-0.7229146 -0.222216,-1.1326186 C 15.053469,1.5758347 14.842609,1.3142494 14.581044,1.0999481 14.321931,0.88765519 14.122013,0.77899763 13.792813,0.67153584 13.576449,0.60090772 13.50507,0.59375 13.01711,0.59375 c -0.491908,0 -0.55706,0.00666 -0.769449,0.0786531 -0.12762,0.0432592 -0.305307,0.11558919 -0.39486,0.16073335 L 11.689977,0.91521672 11.32997,0.75480794 C 10.453966,0.36448606 9.4770847,0.10768225 8.59375,0.03550696 8.3884488,0.01873225 9.7131894,0.00706895 12.132813,0.0043483 L 16,0 v 3.859375 c 0,2.1226563 -0.0049,3.859375 -0.01088,3.859375 -0.006,0 -0.01977,-0.1441406 -0.03065,-0.3203125 z"
       id="path827"
       inkscape:connector-curvature="0" />
    <path
       style="fill:#fe9832;stroke-width:0.000357143"
       d="m 7.53125,15.464493 c -0.5914325,-0.04832 -1.3418053,-0.204688 -1.9132794,-0.39869 -0.2329694,-0.07909 -0.796825,-0.305851 -0.832759,-0.334907 -0.00641,-0.0052 0.047691,-0.07684 0.1202359,-0.159226 0.1457969,-0.165578 0.3156147,-0.440332 0.3768866,-0.609776 l 0.039735,-0.109886 0.1905281,0.08594 C 6.1626178,14.231153 7.2760316,14.46875 8,14.46875 c 0.7265806,0 1.8374606,-0.237604 2.492523,-0.533122 l 0.195649,-0.08826 0.04654,0.111384 c 0.0256,0.06126 0.04654,0.122126 0.04654,0.135256 0,0.04029 0.254511,0.415553 0.354513,0.522714 0.05189,0.0556 0.08827,0.10616 0.08085,0.112351 -0.03587,0.02993 -0.592996,0.254719 -0.834585,0.336733 -0.6003521,0.203806 -1.3197187,0.349367 -1.9881296,0.40229 -0.2216366,0.01755 -0.4325741,0.02995 -0.46875,0.02756 -0.036176,-0.0024 -0.2134306,-0.01641 -0.3938994,-0.03116 z m 4.798156,-0.641806 c -0.119608,-0.04408 -0.272791,-0.117142 -0.340406,-0.162356 -0.06761,-0.04521 -0.150519,-0.0983 -0.184232,-0.117964 -0.0824,-0.04807 -0.336018,-0.298623 -0.336018,-0.331956 0,-0.01462 -0.0413,-0.07849 -0.09178,-0.141931 C 11.186361,13.828896 11.063242,13.409588 11.063242,13 c 0,-0.409588 0.123119,-0.828896 0.313732,-1.06848 0.05048,-0.06345 0.09178,-0.127314 0.09178,-0.141931 0,-0.03333 0.253618,-0.283884 0.336018,-0.331956 0.03371,-0.01967 0.116485,-0.07267 0.18394,-0.11778 0.06745,-0.04511 0.22499,-0.11894 0.35008,-0.164062 0.202409,-0.07301 0.273088,-0.08204 0.642288,-0.08204 0.33173,0 0.453325,0.01263 0.606865,0.06303 0.719797,0.236297 1.212109,0.820045 1.31285,1.556683 0.05472,0.400098 -0.01937,0.838529 -0.206696,1.22325 -0.120844,0.248179 -0.529645,0.649803 -0.789706,0.775842 -0.343895,0.16667 -0.473153,0.193145 -0.935639,0.191645 -0.37346,-0.0012 -0.446832,-0.01057 -0.639344,-0.08152 z m 2.171937,-3.761558 c -0.108019,-0.08669 -0.299203,-0.206405 -0.424852,-0.266031 l -0.228453,-0.10841 0.08793,-0.194907 C 14.231146,9.8374497 14.46875,8.7262031 14.46875,8 c 0,-0.7231066 -0.237595,-1.8373544 -0.530038,-2.4857216 l -0.08518,-0.1888468 0.268546,-0.1302075 c 0.1477,-0.071614 0.343043,-0.1957304 0.434094,-0.2758138 0.09105,-0.080083 0.169734,-0.140415 0.174851,-0.1340706 0.0051,0.00634 0.06171,0.1349347 0.125761,0.2857559 0.451244,1.0625335 0.688101,2.3525231 0.61094,3.3273419 -0.05232,0.6609706 -0.198769,1.3853722 -0.399594,1.9765625 -0.109909,0.323548 -0.326916,0.843565 -0.352072,0.843672 -0.01007,3.1e-5 -0.106696,-0.07085 -0.214715,-0.157543 z M 12.360656,4.8226866 C 12.241048,4.7786044 12.087865,4.7055447 12.02025,4.6603313 11.952635,4.6151178 11.869731,4.5620338 11.836018,4.5423666 11.753618,4.494295 11.5,4.2437441 11.5,4.2104109 11.5,4.1957944 11.458701,4.1319253 11.408224,4.06848 11.217611,3.8288963 11.094492,3.4095878 11.094492,3 c 0,-0.4095877 0.123119,-0.8288961 0.313732,-1.0684801 C 11.458701,1.8680747 11.5,1.8042057 11.5,1.7895889 c 0,-0.033333 0.253618,-0.2838838 0.336018,-0.3319554 0.03371,-0.019667 0.116485,-0.072668 0.18394,-0.11778 0.06745,-0.045112 0.22499,-0.11894 0.35008,-0.1640625 0.202409,-0.073013 0.273088,-0.082041 0.642288,-0.082041 0.33173,0 0.453325,0.01263 0.606865,0.063035 0.719797,0.2362971 1.212109,0.8200449 1.31285,1.5566829 0.05472,0.4000985 -0.01937,0.838529 -0.206696,1.2232508 C 14.604501,4.1848969 14.1957,4.5865212 13.935639,4.7125603 13.591744,4.8792297 13.462486,4.9057053 13,4.9042047 12.62654,4.9029922 12.553168,4.8936378 12.360656,4.8226866 Z M 5.3125,2.1190934 c 0,-0.069749 -0.20009,-0.4251097 -0.3582041,-0.636173 L 4.7893338,1.2627158 5.0743544,1.1424087 C 5.8659953,0.80825722 6.7201437,0.60204369 7.6015625,0.53227522 8.5671703,0.45584278 9.9692619,0.71352803 10.930301,1.1440519 c 0.09849,0.044122 0.212977,0.093553 0.254414,0.1098475 l 0.07534,0.029626 -0.09294,0.1004246 c -0.135287,0.1461885 -0.311976,0.4230178 -0.373254,0.5847996 -0.02929,0.077344 -0.06267,0.1514425 -0.07417,0.1646639 -0.0115,0.013221 -0.111334,-0.016763 -0.221863,-0.066633 C 9.8375322,1.768859 8.7292713,1.53125 8,1.53125 7.2735903,1.53125 6.1625444,1.7688542 5.5078125,2.06422 5.4003906,2.1126807 5.3125,2.1373737 5.3125,2.1190934 Z"
       id="path825"
       inkscape:connector-curvature="0" />
    <path
       style="fill:#fe0032;stroke-width:0.000357143"
       d="M 2.3606557,14.822687 C 2.2410477,14.778604 2.087865,14.705545 2.0202499,14.660331 1.9526348,14.615118 1.8697307,14.562034 1.8360185,14.542367 1.7536175,14.494295 1.5,14.243744 1.5,14.210411 1.5,14.195794 1.4587007,14.131925 1.4082237,14.06848 1.217611,13.828896 1.0944918,13.409588 1.0944918,13 c 0,-0.409588 0.1231192,-0.828896 0.3137319,-1.06848 C 1.4587007,11.868075 1.5,11.804206 1.5,11.789589 c 0,-0.03333 0.2536175,-0.283884 0.3360185,-0.331956 0.033712,-0.01967 0.1164847,-0.07267 0.1839388,-0.11778 0.067454,-0.04511 0.2249906,-0.11894 0.3500808,-0.164062 0.2024092,-0.07301 0.2730877,-0.08204 0.6422882,-0.08204 0.3317296,0 0.4533243,0.01263 0.6068646,0.06303 0.7197969,0.236297 1.2121088,0.820045 1.3128503,1.556683 0.054717,0.400098 -0.019366,0.838529 -0.2066959,1.22325 C 4.6045012,14.184897 4.1957,14.586521 3.9356387,14.71256 3.5917438,14.87923 3.4624856,14.905705 3,14.904205 2.6265396,14.902992 2.5531681,14.893638 2.3606557,14.822687 Z"
       id="path823"
       inkscape:connector-curvature="0" />
    <path
       style="fill:#00fe00;stroke-width:0.000357143"
       d="M 7.3606556,9.8226866 C 7.2410478,9.7786044 7.087865,9.7055447 7.02025,9.6603312 6.9526347,9.6151178 6.8697306,9.5620338 6.8360184,9.5423666 6.7536175,9.494295 6.5,9.2437441 6.5,9.2104109 6.5,9.1957944 6.4587006,9.1319253 6.4082238,9.06848 6.2176109,8.8288963 6.0944919,8.4095878 6.0944919,8 c 0,-0.4095878 0.123119,-0.8288962 0.3137319,-1.06848 C 6.4587006,6.8680747 6.5,6.8042056 6.5,6.7895891 6.5,6.7562559 6.7536175,6.505705 6.8360184,6.4576334 6.8697306,6.4379663 6.9525031,6.3849653 7.0199575,6.3398534 7.0874116,6.2947416 7.2449478,6.2209134 7.3700381,6.1757909 7.5724472,6.1027778 7.6431259,6.09375 8.0123263,6.09375 c 0.3317296,0 0.4533243,0.01263 0.6068646,0.063035 C 9.3389878,6.3930822 9.8312997,6.97683 9.9320413,7.7134678 9.9867583,8.1135666 9.9126753,8.5519969 9.7253453,8.9367187 9.6045013,9.1848969 9.1957,9.5865213 8.9356388,9.7125603 8.5917438,9.8792297 8.4624856,9.9057053 8,9.9042047 7.6265397,9.9029922 7.5531681,9.8936378 7.3606556,9.8226866 Z m -4.9999999,-5 C 2.2410477,4.7786044 2.087865,4.7055447 2.0202499,4.6603312 1.9526348,4.6151178 1.8697307,4.5620337 1.8360185,4.5423666 1.7536175,4.494295 1.5,4.2437441 1.5,4.2104109 1.5,4.1957944 1.4587007,4.1319253 1.4082237,4.06848 1.217611,3.8288963 1.0944918,3.4095878 1.0944918,3 1.0944918,2.5904123 1.217611,2.1711039 1.4082237,1.9315199 1.4587007,1.8680747 1.5,1.8042057 1.5,1.7895889 1.5,1.7562559 1.7536175,1.5057051 1.8360185,1.4576335 1.8697307,1.4379663 1.9525032,1.3849653 2.0199573,1.3398535 2.0874116,1.2947417 2.2449479,1.2209135 2.3700381,1.175791 2.5724473,1.1027779 2.6431258,1.09375 3.0123263,1.09375 c 0.3317296,0 0.4533243,0.01263 0.6068646,0.063035 0.7197969,0.2362971 1.2121088,0.8200449 1.3128503,1.5566829 0.054717,0.4000985 -0.019366,0.838529 -0.2066959,1.2232508 C 4.6045012,4.1848969 4.1957,4.5865212 3.9356387,4.7125603 3.5917438,4.8792297 3.4624856,4.9057053 3,4.9042047 2.6265396,4.9029922 2.5531681,4.8936378 2.3606557,4.8226866 Z"
       id="path821"
       inkscape:connector-curvature="0" />
    <path
       style="fill:#191a18;stroke-width:0.000357143"
       d="M 7.40625,15.964493 C 6.5262756,15.892592 5.5368428,15.632961 4.6785431,15.248732 L 4.3317384,15.09348 4.1814206,15.17208 c -0.082675,0.04323 -0.2575481,0.113603 -0.3886078,0.156385 -0.2166544,0.07072 -0.2874675,0.07779 -0.779902,0.07779 -0.535022,0 -0.5451678,-0.0013 -0.8339156,-0.104473 C 1.5469168,15.075863 1.0232795,14.586928 0.77901128,13.994571 0.62632234,13.624297 0.59375,13.449433 0.59375,13 c 0,-0.449432 0.0325723,-0.624297 0.18526128,-0.994571 C 1.0232795,11.413072 1.5469168,10.924137 2.1789952,10.698223 2.467743,10.595021 2.4778888,10.59375 3.0129108,10.59375 c 0.4924345,0 0.5632476,0.0071 0.779902,0.07779 0.7344819,0.239759 1.2616256,0.752476 1.5415725,1.499382 0.072253,0.192772 0.084028,0.278036 0.096053,0.695499 l 0.013705,0.475792 0.1763659,0.0817 c 0.5028638,0.23295 1.3346735,0.445912 2.0279288,0.519196 0.27167,0.02872 0.431455,0.02872 0.703125,0 0.6950959,-0.07348 1.5248928,-0.286199 2.031251,-0.520716 l 0.179687,-0.08322 v -0.37601 c 0,-0.40994 0.0359,-0.59552 0.185261,-0.957729 0.244269,-0.592357 0.767906,-1.081292 1.399984,-1.307206 0.279591,-0.09993 0.311702,-0.104473 0.738276,-0.104473 h 0.445972 l 0.127921,-0.304687 C 13.705796,9.7034103 13.869659,9.0463516 13.943106,8.3515625 14.018228,7.6409234 13.823564,6.5770934 13.459914,5.7109375 L 13.331993,5.40625 h -0.430347 c -0.408857,0 -0.444943,-0.00522 -0.722651,-0.1044734 C 11.546917,5.0758628 11.02328,4.5869278 10.779011,3.9945709 10.629996,3.633205 10.59375,3.4465297 10.59375,3.0404304 V 2.6680073 L 10.289063,2.5400863 C 9.8827163,2.3694845 9.5424825,2.2655379 9.0834969,2.1717676 8.4702225,2.0464763 8.0586494,2.0135308 7.6484375,2.0568944 6.9551822,2.1301784 6.1233725,2.3431405 5.6205087,2.5760898 L 5.4441428,2.6577905 5.4304381,3.1335828 C 5.4184244,3.5506613 5.4066059,3.6363694 5.3346659,3.828125 5.1858463,4.2248038 5.0660531,4.4067469 4.7364088,4.7367653 4.3967178,5.0768416 4.2146538,5.1907613 3.7885384,5.3298594 3.576915,5.3989403 3.5026959,5.40625 3.0129108,5.40625 2.4778888,5.40625 2.467743,5.4049791 2.1789952,5.3017766 1.5469168,5.0758628 1.0232795,4.5869278 0.77901128,3.9945709 0.62632234,3.6242966 0.59375,3.4494325 0.59375,3 0.59375,2.5505674 0.62632234,2.3757034 0.77901128,2.0054289 1.0232795,1.4130723 1.5469168,0.92413706 2.1789952,0.6982235 2.467743,0.59502106 2.4778888,0.59375 3.0129108,0.59375 c 0.4924345,0 0.5632476,0.007063 0.779902,0.0777858 0.1310597,0.0427822 0.3059331,0.11315538 0.3886078,0.15638482 L 4.3317384,0.90651956 4.6785431,0.75126791 C 5.9072525,0.20121993 7.2863675,-0.06122948 8.4716353,0.0294319 9.4778828,0.10639997 10.399847,0.34037209 11.32997,0.75480794 l 0.360007,0.16040878 0.162824,-0.0820803 c 0.08955,-0.0451442 0.26724,-0.11747416 0.39486,-0.16073335 C 12.46005,0.60040981 12.525202,0.59375 13.01711,0.59375 c 0.48796,0 0.559339,0.007158 0.775703,0.0777858 0.3292,0.10746178 0.529118,0.21611935 0.788231,0.4284123 0.261565,0.2143013 0.472425,0.4758866 0.618615,0.7674333 0.205438,0.409704 0.222216,0.4952189 0.222216,1.1326186 0,0.6367134 -0.01689,0.7231003 -0.220965,1.1301647 l -0.104423,0.20829 0.153748,0.3434465 c 0.548465,1.2251729 0.810891,2.6058188 0.720333,3.7897341 -0.077,1.0066366 -0.310919,1.9281627 -0.725806,2.8593007 l -0.16084,0.360973 0.09476,0.193108 c 0.196752,0.400964 0.21201,0.482633 0.211229,1.130608 -6.85e-4,0.568252 -0.0043,0.603144 -0.08464,0.8125 -0.154119,0.401725 -0.271893,0.580049 -0.600112,0.90864 -0.339691,0.340077 -0.521755,0.453996 -0.947871,0.593094 -0.211541,0.06905 -0.285916,0.07639 -0.774412,0.07639 -0.523969,0 -0.548784,-0.0029 -0.816323,-0.09678 -0.15176,-0.05323 -0.322216,-0.12505 -0.378791,-0.159602 l -0.102862,-0.06282 -0.357469,0.159277 c -0.905568,0.403495 -1.8481407,0.645729 -2.8085316,0.72177 -0.4517175,0.03577 -0.6382428,0.03516 -1.1126494,-0.0036 z m 0.9876494,-0.4964 c 0.6684109,-0.05292 1.3877775,-0.198484 1.9881296,-0.40229 0.241589,-0.08201 0.798715,-0.3068 0.834585,-0.336733 0.0074,-0.0062 -0.02896,-0.05675 -0.08085,-0.112351 -0.100002,-0.107161 -0.354513,-0.482426 -0.354513,-0.522714 0,-0.01313 -0.02094,-0.074 -0.04654,-0.135256 l -0.04654,-0.111384 -0.195649,0.08826 C 9.8374606,14.231146 8.7265806,14.46875 8,14.46875 c -0.7239684,0 -1.8373822,-0.237597 -2.4874028,-0.530801 l -0.1905281,-0.08594 -0.039735,0.109886 c -0.061272,0.169444 -0.2310897,0.444198 -0.3768866,0.609776 -0.072544,0.08239 -0.1266506,0.154039 -0.1202359,0.159226 0.00641,0.0052 0.1350628,0.06184 0.285884,0.125889 0.8689447,0.369029 1.7476491,0.565723 2.8540538,0.638867 0.036176,0.0024 0.2471134,-0.01001 0.46875,-0.02756 z M 3.5762637,14.85874 C 3.9085859,14.757932 4.1333656,14.62053 4.3913303,14.360513 4.7441056,14.00493 4.8952556,13.678033 4.9363647,13.181751 4.9708544,12.765383 4.9192872,12.470379 4.7514359,12.12382 4.5308262,11.668332 4.1271156,11.323528 3.6191909,11.156785 3.4656506,11.10638 3.3440559,11.09375 3.0123263,11.09375 c -0.3692005,0 -0.439879,0.009 -0.6422882,0.08204 -0.1250902,0.04512 -0.2826265,0.118951 -0.3500808,0.164062 -0.067454,0.04511 -0.1502266,0.09811 -0.1839388,0.11778 C 1.7536175,11.505705 1.5,11.756256 1.5,11.789589 1.5,11.804209 1.458701,11.868079 1.408224,11.93152 1.217611,12.171104 1.0944918,12.590412 1.0944918,13 c 0,0.409588 0.1231192,0.828896 0.3137319,1.06848 C 1.4587007,14.131925 1.5,14.195794 1.5,14.210411 c 0,0.03333 0.2536175,0.283884 0.3360185,0.331956 0.033712,0.01967 0.1166163,0.07275 0.1842314,0.117964 0.067615,0.04521 0.2207978,0.118273 0.3404059,0.162356 0.1925123,0.07095 0.2658838,0.08031 0.6393442,0.08152 0.2888562,9.37e-4 0.4705544,-0.0134 0.5762637,-0.04547 z m 9.9687503,0 c 0.332322,-0.100808 0.557102,-0.23821 0.815066,-0.498227 0.352776,-0.355583 0.503926,-0.68248 0.545035,-1.178762 0.03449,-0.416368 -0.01708,-0.711372 -0.184929,-1.057931 -0.22061,-0.455488 -0.62432,-0.800292 -1.132245,-0.967035 -0.15354,-0.0504 -0.275135,-0.06303 -0.606865,-0.06303 -0.3692,0 -0.439879,0.009 -0.642288,0.08204 -0.12509,0.04512 -0.282626,0.118951 -0.350081,0.164062 -0.06745,0.04511 -0.150226,0.09811 -0.183939,0.11778 -0.0824,0.04807 -0.336018,0.298623 -0.336018,0.331956 0,0.01462 -0.0413,0.07849 -0.09178,0.141931 -0.190613,0.239584 -0.313732,0.658892 -0.313732,1.06848 0,0.409588 0.123119,0.828896 0.313732,1.06848 0.05048,0.06345 0.09178,0.127314 0.09178,0.141931 0,0.03333 0.253618,0.283884 0.336018,0.331956 0.03371,0.01967 0.116617,0.07275 0.184232,0.117964 0.06761,0.04521 0.220798,0.118273 0.340406,0.162356 0.192512,0.07095 0.265884,0.08031 0.639344,0.08152 0.288856,9.37e-4 0.470554,-0.0134 0.576264,-0.04547 z m 1.311123,-3.929131 c 0.3362,-0.797925 0.541721,-1.6485109 0.611588,-2.5311715 0.07716,-0.9748188 -0.159696,-2.2648084 -0.61094,-3.3273419 -0.06405,-0.1508212 -0.120645,-0.2794115 -0.125761,-0.2857559 -0.0051,-0.00634 -0.0838,0.053987 -0.174851,0.1340706 -0.09105,0.080083 -0.286394,0.2041997 -0.434094,0.2758138 l -0.268546,0.1302075 0.08518,0.1888468 C 14.231155,6.1626456 14.46875,7.2768934 14.46875,8 c 0,0.7262031 -0.237604,1.8374497 -0.532786,2.491781 l -0.08793,0.194907 0.228453,0.10841 c 0.125649,0.05963 0.316833,0.17934 0.424852,0.266031 0.10802,0.08669 0.204642,0.157586 0.214716,0.157543 0.01007,-3.1e-5 0.07311,-0.130121 0.140078,-0.289063 z M 3.5762637,4.8587403 C 3.9085859,4.7579322 4.1333656,4.6205303 4.3913303,4.3605125 4.7441056,4.0049297 4.8952556,3.6780334 4.9363647,3.1817513 4.9708544,2.7653832 4.9192872,2.4703795 4.7514359,2.12382 4.5308262,1.6683316 4.1271156,1.3235278 3.6191909,1.1567847 3.4656506,1.10638 3.3440559,1.09375 3.0123263,1.09375 2.6431258,1.09375 2.5724473,1.10278 2.3700381,1.175791 2.2449479,1.2209135 2.0874116,1.2947417 2.0199573,1.3398535 1.9525032,1.3849653 1.8697307,1.4379663 1.8360185,1.4576335 1.7536175,1.5057051 1.5,1.7562559 1.5,1.7895889 1.5,1.8042059 1.458701,1.8680749 1.408224,1.9315199 1.217611,2.1711039 1.0944918,2.5904123 1.0944918,3 c 0,0.4095878 0.1231192,0.8288963 0.3137319,1.06848 C 1.4587007,4.1319253 1.5,4.1957944 1.5,4.2104109 c 0,0.033333 0.2536175,0.2838841 0.3360185,0.3319557 0.033712,0.019667 0.1166163,0.072751 0.1842314,0.1179646 0.067615,0.045214 0.2207978,0.1182732 0.3404059,0.1623554 C 2.5531681,4.8936378 2.6265396,4.9029928 3,4.9042047 3.2888562,4.9051422 3.4705544,4.8908069 3.5762637,4.8587403 Z m 10.0000003,0 C 13.908586,4.7579322 14.133366,4.6205303 14.39133,4.3605125 14.744106,4.0049297 14.895256,3.6780334 14.936365,3.1817513 14.970854,2.7653832 14.919287,2.4703795 14.751436,2.12382 14.530826,1.6683316 14.127116,1.3235278 13.619191,1.1567847 13.465651,1.10638 13.344056,1.09375 13.012326,1.09375 c -0.3692,0 -0.439879,0.00903 -0.642288,0.082041 -0.12509,0.045122 -0.282626,0.1189507 -0.350081,0.1640625 -0.06745,0.045112 -0.150226,0.098113 -0.183939,0.11778 C 11.753618,1.5057051 11.5,1.7562559 11.5,1.7895889 c 0,0.014617 -0.0413,0.078486 -0.09178,0.141931 C 11.217611,2.1711039 11.094492,2.5904123 11.094492,3 c 0,0.4095878 0.123119,0.8288963 0.313732,1.06848 0.05048,0.063445 0.09178,0.1273144 0.09178,0.1419309 0,0.033333 0.253618,0.2838841 0.336018,0.3319557 0.03371,0.019667 0.116617,0.072751 0.184232,0.1179646 0.06761,0.045214 0.220798,0.1182732 0.340406,0.1623554 0.192512,0.070951 0.265884,0.080306 0.639344,0.081518 0.288856,9.375e-4 0.470554,-0.013398 0.576264,-0.045464 z M 6.051645,1.8638516 C 6.668415,1.6651905 7.4530281,1.53125 8,1.53125 c 0.7292713,0 1.8375322,0.237609 2.497836,0.5355312 0.110529,0.049869 0.210367,0.079854 0.221863,0.066633 0.0115,-0.013221 0.04487,-0.08732 0.07417,-0.1646639 0.06128,-0.1617818 0.237967,-0.4386111 0.373254,-0.5847996 l 0.09294,-0.1004246 -0.07534,-0.029626 C 11.143278,1.2376049 11.028792,1.1881735 10.930301,1.1440519 9.9692619,0.71352803 8.5671703,0.45584278 7.6015625,0.53227522 6.7201437,0.60204369 5.8659953,0.80825722 5.0743544,1.1424087 L 4.7893338,1.2627158 4.9542959,1.4829204 C 5.11241,1.6939837 5.3125,2.0493448 5.3125,2.1190934 c 0,0.01828 0.087891,-0.00641 0.1953125,-0.054873 C 5.6152344,2.0157593 5.8599591,1.9255935 6.051645,1.8638516 Z M 7.1700175,10.300288 C 6.5439481,10.072861 6.0213887,9.5823425 5.7790112,8.9945709 5.6263225,8.6242966 5.59375,8.4494325 5.59375,8 5.59375,7.5505675 5.6263225,7.3757034 5.7790112,7.0054291 6.0232797,6.4130722 6.5469169,5.9241372 7.1789953,5.6982234 7.4677431,5.5950209 7.4778887,5.59375 8.0129106,5.59375 c 0.4924347,0 0.5632478,0.00706 0.7799022,0.077786 0.3292,0.1074616 0.5291181,0.2161194 0.7882316,0.4284122 0.261565,0.2143013 0.4724246,0.4758866 0.6186146,0.7674335 0.206628,0.4120759 0.22229,0.4932678 0.2215,1.1482434 -6.85e-4,0.5682525 -0.0043,0.6031437 -0.08464,0.8125 -0.154119,0.4017253 -0.271893,0.5800491 -0.6001122,0.9086403 -0.339691,0.3400766 -0.521755,0.4539956 -0.9478704,0.5930936 -0.213265,0.06962 -0.2828493,0.07625 -0.7847146,0.07483 -0.5427122,-0.0015 -0.5548044,-0.003 -0.8338063,-0.104402 z M 8.5762638,9.8587403 C 8.9085859,9.7579322 9.1333656,9.6205303 9.3913303,9.3605125 9.7441056,9.0049297 9.8952556,8.6780334 9.9363647,8.1817513 9.9708544,7.7653831 9.9192872,7.4703794 9.7514359,7.12382 9.5308263,6.6683316 9.1271156,6.3235278 8.6191909,6.1567847 8.4656506,6.10638 8.3440559,6.09375 8.0123262,6.09375 7.6431259,6.09375 7.5724472,6.10278 7.3700381,6.175791 7.2449478,6.2209134 7.0874116,6.2947416 7.0199575,6.3398534 6.9525031,6.3849653 6.8697306,6.4379663 6.8360184,6.4576334 6.7536175,6.505705 6.5,6.7562559 6.5,6.7895891 6.5,6.8042056 6.4587006,6.8680747 6.4082238,6.93152 6.2176109,7.1711038 6.0944919,7.5904122 6.0944919,8 c 0,0.4095878 0.123119,0.8288963 0.3137319,1.06848 C 6.4587006,9.1319253 6.5,9.1957944 6.5,9.2104109 6.5,9.2437441 6.7536175,9.494295 6.8360184,9.5423666 6.8697306,9.5620338 6.9526347,9.6151178 7.02025,9.6603313 7.087865,9.7055447 7.2410478,9.7786044 7.3606556,9.8226866 7.5531681,9.8936378 7.6265397,9.9029928 8,9.9042047 8.2888563,9.9051422 8.4705544,9.8908069 8.5762638,9.8587403 Z"
       id="path819"
       inkscape:connector-curvature="0" />
  </g>
</svg>
