<?xml version="1.0" encoding="UTF-8" standalone="no"?>
<!-- Created with Inkscape (http://www.inkscape.org/) -->

<svg
   version="1.1"
   id="svg2"
   width="1600"
   height="1600"
   viewBox="0 0 1600 1600"
   sodipodi:docname="tracker_data.svg"
   inkscape:version="1.2.2 (732a01da63, 2022-12-09)"
   xmlns:inkscape="http://www.inkscape.org/namespaces/inkscape"
   xmlns:sodipodi="http://sodipodi.sourceforge.net/DTD/sodipodi-0.dtd"
   xmlns="http://www.w3.org/2000/svg"
   xmlns:svg="http://www.w3.org/2000/svg"
   xmlns:rdf="http://www.w3.org/1999/02/22-rdf-syntax-ns#"
   xmlns:cc="http://creativecommons.org/ns#"
   xmlns:dc="http://purl.org/dc/elements/1.1/">
  <metadata
     id="metadata8">
    <rdf:RDF>
      <cc:Work
         rdf:about="">
        <dc:format>image/svg+xml</dc:format>
        <dc:type
           rdf:resource="http://purl.org/dc/dcmitype/StillImage" />
      </cc:Work>
    </rdf:RDF>
  </metadata>
  <defs
     id="defs6" />
  <sodipodi:namedview
     pagecolor="#808080"
     bordercolor="#666666"
     borderopacity="1"
     objecttolerance="10"
     gridtolerance="10"
     guidetolerance="10"
     inkscape:pageopacity="0"
     inkscape:pageshadow="2"
     inkscape:window-width="1993"
     inkscape:window-height="1009"
     id="namedview4"
     showgrid="false"
     inkscape:zoom="0.5"
     inkscape:cx="-3"
     inkscape:cy="8"
     inkscape:window-x="-8"
     inkscape:window-y="-8"
     inkscape:window-maximized="1"
     inkscape:current-layer="TRACKER_DATA"
     inkscape:showpageshadow="0"
     inkscape:pagecheckerboard="true"
     inkscape:deskcolor="#d1d1d1" />
  <g
     id="TRACKER_DATA"
     transform="matrix(100,0,0,100,0,4.9999997e-5)"
     style="stroke-width:0.0114286">
    <path
       style="fill:none;stroke-width:0.000357143"
       d="M 0,8 V 0 h 8 8 v 8 8 H 8 0 Z m 4,6.504878 v -0.495122 l -0.5234375,-0.01895 c -0.908765,-0.0329 -1.217104,-0.200173 -1.3916556,-0.754974 L 2.015625,13.015625 V 8 2.984375 L 2.0849069,2.7641669 C 2.2596035,2.2089048 2.5698023,2.0405329 3.4765625,2.0087944 L 4,1.9904729 V 1.4921282 0.99378344 L 3.3359375,1.0070577 C 2.7210566,1.0193487 2.6533596,1.026463 2.421875,1.1031163 1.7394947,1.3290782 1.306006,1.7731571 1.0888082,2.46875 L 1.015625,2.703125 v 5.3125 5.3125 l 0.08483,0.25 c 0.1584333,0.466916 0.4052135,0.80629 0.7577737,1.042097 0.4493653,0.300553 0.7517579,0.373884 1.5558341,0.377294 L 4,15 Z m 9.578125,0.392006 c 0.662479,-0.219372 1.093103,-0.649229 1.321112,-1.318759 l 0.08514,-0.25 v -5.3125 -5.3125 L 14.911125,2.4698513 C 14.754762,1.9718992 14.512331,1.6276238 14.145075,1.3819881 13.692095,1.0790167 13.371268,1.0013047 12.570313,1.0005426 L 12,1 v 0.4952365 0.4952364 l 0.523438,0.019375 c 0.709649,0.026268 0.905474,0.083344 1.15635,0.3370341 0.164944,0.1667948 0.253806,0.394849 0.29102,0.7468677 0.01544,0.1460938 0.02808,2.3539062 0.02808,4.90625 0,2.5523443 -0.01264,4.7601563 -0.02808,4.9062503 -0.03721,0.352019 -0.126076,0.580073 -0.29102,0.746868 -0.250349,0.253157 -0.443577,0.30941 -1.15635,0.33664 L 12,14.009756 v 0.49823 0.498231 l 0.664063,-0.01328 c 0.61488,-0.01229 0.682577,-0.0194 0.914062,-0.09606 z M 9,13 v -1 l 0.8359375,-1.25e-4 c 0.7790125,-9.4e-5 0.8428735,-0.0043 0.9377855,-0.06221 0.05602,-0.03415 0.129792,-0.107929 0.163946,-0.163946 0.05787,-0.09491 0.06211,-0.158773 0.06221,-0.937786 L 11,10 h 1 1 V 9.5 9 H 12 11 L 10.999875,8.1640625 C 10.999781,7.3850497 10.99553,7.3211894 10.937661,7.2262769 10.903507,7.1702603 10.829732,7.096485 10.773715,7.0623312 10.678803,7.0044622 10.614942,7.0002256 9.8359294,7.0001169 L 9,7 V 6 5 H 8.5 8 V 6 7 L 7.1640625,7.000125 C 6.3850497,7.0002187 6.3211894,7.004475 6.2262769,7.062339 6.1702599,7.096493 6.096485,7.170268 6.0623312,7.2262846 6.0044622,7.3211976 6.0002252,7.3850574 6.0001172,8.1640702 L 6,9 H 5 4 V 9.5 10 h 1 1 l 1.25e-4,0.835938 c 9.37e-5,0.779012 0.00435,0.842873 0.062214,0.937785 0.034154,0.05602 0.107929,0.129792 0.1639456,0.163946 0.094913,0.05787 0.1587728,0.06211 0.9377856,0.06221 L 8,12 v 1 1 H 8.5 9 Z M 7,9.5 V 8 H 8.5 10 V 9.5 11 H 8.5 7 Z"
       id="path823"
       inkscape:connector-curvature="0" />
    <path
       style="fill:#fefefe;stroke-width:0.000357143"
       d="M 2.640625,14.953685 C 2.3448332,14.888459 2.1089901,14.787941 1.8582284,14.620222 1.5056682,14.384415 1.258888,14.045041 1.1004547,13.578125 l -0.08483,-0.25 v -5.3125 -5.3125 L 1.0888082,2.46875 C 1.306006,1.7731571 1.7394947,1.3290782 2.421875,1.1031163 2.6533596,1.026463 2.7210566,1.0193487 3.3359375,1.0070577 L 4,0.99378344 V 1.4921282 1.9904729 L 3.4765625,2.0087944 C 2.5698023,2.0405329 2.2596035,2.2089048 2.0849069,2.7641669 L 2.015625,2.984375 V 8 13.015625 l 0.069282,0.220208 c 0.1745516,0.554801 0.4828906,0.722075 1.3916556,0.754974 L 4,14.009756 V 14.504878 15 L 3.4140625,14.9975 C 3.0526879,14.995984 2.7562649,14.979185 2.640625,14.953685 Z M 12,14.507986 v -0.49823 l 0.523438,-0.02 c 0.712773,-0.02723 0.906001,-0.08348 1.15635,-0.33664 0.164944,-0.166795 0.253806,-0.394849 0.29102,-0.746868 0.01544,-0.146094 0.02808,-2.353906 0.02808,-4.90625 0,-2.5523437 -0.01264,-4.7601562 -0.02808,-4.90625 -0.03721,-0.3520187 -0.126076,-0.5800729 -0.29102,-0.7468677 -0.250876,-0.25369 -0.446701,-0.3107661 -1.15635,-0.3370341 L 12,1.9904729 V 1.4952365 1 l 0.570313,5.425e-4 c 0.800955,7.622e-4 1.121782,0.078474 1.574762,0.3814454 0.367256,0.2456358 0.609687,0.5899112 0.76605,1.0878633 l 0.07325,0.2332738 v 5.3125 5.3125 l -0.08514,0.25 c -0.228009,0.66953 -0.658633,1.099387 -1.321112,1.318759 -0.231485,0.07665 -0.299182,0.08377 -0.914062,0.09606 L 12,15.006217 Z"
       id="path821"
       inkscape:connector-curvature="0" />
    <path
       style="fill:#fefe00;stroke-width:0.000357143"
       d="M 8,13 V 12 L 7.1640625,11.999875 C 6.3850497,11.999781 6.3211894,11.99553 6.2262769,11.937661 6.1702603,11.903507 6.096485,11.829732 6.0623312,11.773715 6.0044622,11.678803 6.0002256,11.614942 6.0001169,10.835929 L 6,10 H 5 4 V 9.5 9 H 5 6 L 6.000125,8.1640625 C 6.0002187,7.3850497 6.004475,7.3211894 6.062339,7.2262769 6.096493,7.1702599 6.170268,7.096485 6.2262846,7.0623312 6.3211976,7.0044622 6.3850574,7.0002252 7.1640702,7.0001172 L 8,7 V 6 5 H 8.5 9 v 1 1 l 0.8359375,1.25e-4 c 0.7790125,9.37e-5 0.8428735,0.00435 0.9377855,0.062214 0.05602,0.034154 0.129792,0.107929 0.163946,0.1639456 0.05787,0.094913 0.06211,0.1587728 0.06221,0.9377856 L 11,9 h 1 1 V 9.5 10 h -1 -1 l -1.25e-4,0.835938 c -9.4e-5,0.779012 -0.0043,0.842873 -0.06221,0.937785 -0.03415,0.05602 -0.107929,0.129792 -0.163946,0.163946 -0.09491,0.05787 -0.158773,0.06211 -0.9377856,0.06221 L 9,12 v 1 1 H 8.5 8 Z M 10,9.5 V 8 H 8.5 7 V 9.5 11 H 8.5 10 Z"
       id="path819"
       inkscape:connector-curvature="0" />
  </g>
</svg>
