<?xml version="1.0" encoding="UTF-8" standalone="no"?>
<!-- Created with Inkscape (http://www.inkscape.org/) -->

<svg
   version="1.1"
   id="svg2"
   width="1600"
   height="1600"
   viewBox="0 0 1600 1600"
   sodipodi:docname="translate_instance.svg"
   inkscape:version="1.2.2 (732a01da63, 2022-12-09)"
   xmlns:inkscape="http://www.inkscape.org/namespaces/inkscape"
   xmlns:sodipodi="http://sodipodi.sourceforge.net/DTD/sodipodi-0.dtd"
   xmlns="http://www.w3.org/2000/svg"
   xmlns:svg="http://www.w3.org/2000/svg"
   xmlns:rdf="http://www.w3.org/1999/02/22-rdf-syntax-ns#"
   xmlns:cc="http://creativecommons.org/ns#"
   xmlns:dc="http://purl.org/dc/elements/1.1/">
  <metadata
     id="metadata8">
    <rdf:RDF>
      <cc:Work
         rdf:about="">
        <dc:format>image/svg+xml</dc:format>
        <dc:type
           rdf:resource="http://purl.org/dc/dcmitype/StillImage" />
      </cc:Work>
    </rdf:RDF>
  </metadata>
  <defs
     id="defs6" />
  <sodipodi:namedview
     pagecolor="#808080"
     bordercolor="#666666"
     borderopacity="1"
     objecttolerance="10"
     gridtolerance="10"
     guidetolerance="10"
     inkscape:pageopacity="0"
     inkscape:pageshadow="2"
     inkscape:window-width="1993"
     inkscape:window-height="1009"
     id="namedview4"
     showgrid="false"
     inkscape:zoom="0.5"
     inkscape:cx="9"
     inkscape:cy="8"
     inkscape:window-x="-8"
     inkscape:window-y="-8"
     inkscape:window-maximized="1"
     inkscape:current-layer="TRANSLATE_INSTANCE"
     inkscape:showpageshadow="0"
     inkscape:pagecheckerboard="true"
     inkscape:deskcolor="#d1d1d1" />
  <g
     id="TRANSLATE_INSTANCE"
     transform="matrix(100,0,0,100,0,4.9999997e-5)"
     style="stroke-width:0.0114286">
    <path
       style="fill:none;stroke-width:0.000357143"
       d="M 0,8 V 0 h 8 8 v 8 8 H 8 0 Z m 9,4 V 9 h 3 3 V 8.5 8 H 11.5 8 V 11.5 15 H 8.5 9 Z m 2,1 v -2 h 2 2 V 10.5 10 H 12.5 10 v 2.5 2.5 h 0.5 0.5 z m 2,1 v -1 h 1 1 V 12.5 12 H 13.5 12 V 13.5 15 H 12.5 13 Z M 7.0938325,7.578125 C 7.1911725,7.3794431 7.3783634,7.1919319 7.578125,7.0930044 7.7341709,7.0157259 7.7359263,7.0156047 8.921875,7 L 10.109375,6.984375 9.90625,6.8377247 C 9.7945313,6.7570669 9.6609375,6.6571653 9.609375,6.6157209 9.5578125,6.5742766 9.2132813,6.3185556 8.84375,6.0474519 8.4742188,5.7763484 8.1296875,5.5154381 8.078125,5.4676519 8.0265625,5.4198653 7.8972766,5.3197041 7.7908228,5.2450713 7.4832881,5.0294641 6.1186234,4.0087003 6.0187759,3.9195872 L 5.9281766,3.8387281 6.1968437,3.5678016 C 6.3446106,3.4187919 6.4803022,3.2572878 6.4983806,3.2089031 6.5419709,3.0922378 6.5416641,1.9378819 6.4980119,1.8223469 6.4462956,1.6854683 6.3159775,1.5685263 6.1590163,1.5181465 6.0801509,1.4928332 4.9117188,1.2519518 3.5625,0.98285456 0.97449603,0.46668556 0.89720753,0.45580353 0.72616553,0.58350481 0.52145175,0.73634572 0.51651241,0.75624703 0.50606362,1.4703247 l -0.009561,0.6534325 0.48781003,2.445934 C 1.2526078,5.9149547 1.4928332,7.0801509 1.5181465,7.1590163 1.6136518,7.4565691 1.9187562,7.6065172 2.2089031,7.4984991 2.2572877,7.4804862 2.5737399,7.18969 2.9121303,6.852285 l 0.6152553,-0.6134631 0.1289472,0.08936 c 0.070921,0.049148 0.1883706,0.1416675 0.2609997,0.2055978 0.072629,0.063931 0.2186525,0.1774053 0.3244969,0.2521662 0.3990818,0.2818826 1.6223303,1.1965385 1.7365131,1.2984382 0.065432,0.058393 0.1919947,0.1548009 0.28125,0.2142394 0.089255,0.059438 0.288845,0.2057662 0.4435325,0.3251731 L 6.984375,8.8408994 7.000828,8.2876369 C 7.015851,7.7824719 7.023936,7.7207916 7.0938325,7.578125 Z"
       id="path827"
       inkscape:connector-curvature="0" />
    <path
       style="fill:#fefefe;stroke-width:0.000357143"
       d="M 8,11.5 V 8 H 11.5 15 V 8.5 9 H 12 9 v 3 3 H 8.5 8 Z m 2,1 V 10 h 2.5 2.5 v 0.5 0.5 h -2 -2 v 2 2 H 10.5 10 Z m 2,1 V 12 h 1.5 1.5 v 0.5 0.5 h -1 -1 v 1 1 H 12.5 12 Z"
       id="path825"
       inkscape:connector-curvature="0" />
    <path
       style="fill:#cbfefe;stroke-width:0.000357143"
       d="M 6.9375,7.1544675 C 6.8085937,7.0521603 6.6300978,6.9199891 6.5408425,6.8607541 6.4515872,6.8015187 6.3250247,6.7052775 6.2595925,6.6468844 6.1412847,6.5413034 4.8916575,5.6077656 4.5218244,5.3486787 4.4152897,5.2740459 4.2859375,5.1737931 4.234375,5.1258947 4.1828125,5.0779962 3.9933203,4.9313941 3.8132813,4.8001116 L 3.4859375,4.5614169 2.7429687,5.3039016 C 2.3343359,5.7122684 2,6.0392159 2,6.0304519 2,6.0216878 1.7751538,4.8907844 1.5003418,3.5173334 1.2255298,2.1438823 1.0050635,1.0157698 1.0104167,1.0104167 1.0157698,1.0050635 2.1438823,1.2255298 3.5173334,1.5003418 4.8907844,1.7751538 6.0216878,2 6.0304519,2 6.0392159,2 5.71253,2.3340741 5.3044831,2.7423869 L 4.5625794,3.4847738 4.9598325,3.7814494 c 0.2184891,0.1631715 0.4751116,0.350494 0.5702725,0.4162718 0.095161,0.065778 0.2152075,0.1589472 0.26677,0.2070429 0.08999,0.083939 1.3111422,0.9956953 1.7125506,1.2786512 0.1065347,0.075097 0.2430969,0.1805659 0.3034716,0.234375 C 7.8732719,5.9715994 8.2199678,6.2335937 8.5833325,6.5 l 0.6606628,0.484375 -0.75481,0.016782 C 7.6591988,7.0196109 7.6368141,7.0242216 7.3631791,7.2330919 7.2834456,7.2939537 7.2077841,7.3430144 7.1950422,7.3421153 7.1823003,7.3412153 7.0664063,7.256775 6.9375,7.1544675 Z"
       id="path823"
       inkscape:connector-curvature="0" />
    <path
       style="fill:#989898;stroke-width:0.000357143"
       d="M 6.796875,8.0513263 C 6.2877084,7.6579428 4.7829031,6.5318197 4.5216772,6.3486788 4.4152234,6.2740459 4.2859375,6.1737931 4.234375,6.1258947 4.1828125,6.0779963 3.9933203,5.9313941 3.8132813,5.8001116 L 3.4859375,5.5614169 2.7429687,6.3039016 C 2.3343359,6.7122684 2,7.0392159 2,7.0304519 2,7.0216878 1.775,5.8900156 1.5,4.515625 L 1,2.0167328 1.0030809,1.5474289 1.0061619,1.078125 1.5015562,3.53125 C 1.774023,4.8804688 1.9976366,5.9983275 1.9984752,6.0153809 1.999314,6.0324341 2.3343359,5.7122684 2.7429687,5.3039016 L 3.4859375,4.5614169 3.8132812,4.8001116 c 0.1800391,0.1312825 0.3695313,0.2778846 0.4210938,0.3257831 0.051563,0.047898 0.1809147,0.1481512 0.2874494,0.222784 0.3778825,0.2647257 1.6202328,1.1916963 1.7125506,1.2778072 0.051563,0.048096 0.1724163,0.141265 0.2685637,0.2070428 0.096148,0.065778 0.2930226,0.2098526 0.4375,0.3201657 0.1444775,0.1103128 0.267736,0.204425 0.2739079,0.2091381 0.00617,0.00471 -0.015607,0.048051 -0.048399,0.096306 C 7.0612842,7.6131607 7.024347,7.7286863 7.0041176,7.9652826 L 6.984375,8.1961891 Z M 4.8506512,3.6963363 4.5608553,3.4865094 5.28824,2.7585677 6.015625,2.030626 6.024265,2.5221648 6.032905,3.0137035 5.5866753,3.4599334 5.1404456,3.9061631 Z"
       id="path821"
       inkscape:connector-curvature="0" />
    <path
       style="fill:#323232;stroke-width:0.000357143"
       d="M 6.703125,8.6246231 C 6.5484375,8.5047622 6.3488478,8.3580622 6.2595925,8.2986237 6.1703372,8.2391853 6.0437747,8.1427775 5.9783425,8.0843844 5.8641597,7.9824847 4.6409112,7.0678287 4.2418294,6.7859462 4.135985,6.7111853 3.9899613,6.5977106 3.9173325,6.53378 3.8447034,6.4698497 3.7272538,6.3773306 3.6563328,6.3281822 L 3.5273856,6.2388219 2.9121303,6.852285 C 2.5737399,7.18969 2.2572877,7.4804862 2.2089031,7.4984991 1.9187562,7.6065172 1.6136518,7.4565691 1.5181465,7.1590162 1.4928332,7.0801509 1.2526078,5.9149547 0.98431231,4.5696912 L 0.49650228,2.1237573 0.50606362,1.4703247 C 0.51651241,0.75624703 0.52145175,0.73634572 0.72616553,0.58350481 0.89720753,0.45580353 0.97449603,0.46668556 3.5625,0.98285456 4.9117188,1.2519518 6.0801509,1.4928332 6.1590163,1.5181465 c 0.1569612,0.05038 0.2872793,0.1673218 0.3389956,0.3042004 0.043652,0.115535 0.043959,1.2698909 3.687e-4,1.3865562 -0.018078,0.048385 -0.15377,0.2098888 -0.3015369,0.3588985 l -0.2686671,0.2709265 0.090599,0.080859 C 6.1186236,4.0087001 7.4832878,5.029464 7.7908225,5.2450712 7.8972763,5.3197042 8.0265622,5.4199046 8.0781247,5.467739 8.1706287,5.553555 9.4068331,6.4758008 9.7984172,6.7511293 10.164583,7.0085853 10.168487,7 9.6852366,7 H 9.26333 L 8.5769775,6.4961059 C 8.1994838,6.2189641 7.8484375,5.9530744 7.796875,5.9052394 7.7453125,5.8574047 7.6159603,5.7572041 7.5094256,5.6825712 7.1395925,5.4234844 5.8899653,4.4899466 5.7716575,4.3843656 5.7062253,4.3259725 5.5796628,4.2300237 5.4904075,4.1711462 5.4011522,4.1122684 5.2859375,4.0287637 5.234375,3.9855803 L 5.140625,3.9070644 5.5859375,3.4609537 6.03125,3.0148431 V 2.5074215 C 6.03125,2.2283397 6.027485,2 6.0228837,2 6.0182822,2 4.8900156,1.775 3.515625,1.5 2.1412343,1.225 1.0129679,1 1.0083664,1 1.0037649,1 1,1.2287649 1,1.5083664 V 2.0167328 L 1.5,4.515625 C 1.775,5.8900156 2,7.0216878 2,7.0304519 2,7.0392159 2.3343359,6.7122684 2.7429687,6.3039016 L 3.4859375,5.5614169 3.8132812,5.8001116 C 3.9933203,5.9313941 4.1828125,6.0779962 4.234375,6.1258947 4.2859375,6.1737931 4.4152234,6.2740459 4.5216772,6.3486787 4.6973931,6.47187 5.90797,7.3737587 6.40625,7.7526994 6.5179687,7.8376609 6.6971356,7.9737641 6.8043987,8.05515 l 0.1950238,0.147975 2.812e-4,0.3203125 C 6.99986,8.6996094 6.9964769,8.8434806 6.99218,8.8431513 6.9878831,8.8428231 6.857805,8.7444844 6.7031175,8.6246231 Z"
       id="path819"
       inkscape:connector-curvature="0" />
  </g>
</svg>
