<?xml version="1.0" encoding="UTF-8" standalone="no"?>
<!-- Created with Inkscape (http://www.inkscape.org/) -->

<svg
   version="1.1"
   id="svg2"
   width="1600"
   height="1600"
   viewBox="0 0 1600 1600"
   sodipodi:docname="tria_right_bar.svg"
   inkscape:version="1.2.2 (732a01da63, 2022-12-09)"
   xmlns:inkscape="http://www.inkscape.org/namespaces/inkscape"
   xmlns:sodipodi="http://sodipodi.sourceforge.net/DTD/sodipodi-0.dtd"
   xmlns="http://www.w3.org/2000/svg"
   xmlns:svg="http://www.w3.org/2000/svg"
   xmlns:rdf="http://www.w3.org/1999/02/22-rdf-syntax-ns#"
   xmlns:cc="http://creativecommons.org/ns#"
   xmlns:dc="http://purl.org/dc/elements/1.1/">
  <metadata
     id="metadata8">
    <rdf:RDF>
      <cc:Work
         rdf:about="">
        <dc:format>image/svg+xml</dc:format>
        <dc:type
           rdf:resource="http://purl.org/dc/dcmitype/StillImage" />
      </cc:Work>
    </rdf:RDF>
  </metadata>
  <defs
     id="defs6" />
  <sodipodi:namedview
     pagecolor="#808080"
     bordercolor="#666666"
     borderopacity="1"
     objecttolerance="10"
     gridtolerance="10"
     guidetolerance="10"
     inkscape:pageopacity="0"
     inkscape:pageshadow="2"
     inkscape:window-width="1993"
     inkscape:window-height="1009"
     id="namedview4"
     showgrid="false"
     inkscape:zoom="0.5"
     inkscape:cx="9"
     inkscape:cy="8"
     inkscape:window-x="-8"
     inkscape:window-y="-8"
     inkscape:window-maximized="1"
     inkscape:current-layer="TRIA_RIGHT_BAR"
     inkscape:showpageshadow="0"
     inkscape:pagecheckerboard="true"
     inkscape:deskcolor="#d1d1d1" />
  <g
     id="TRIA_RIGHT_BAR"
     transform="matrix(100,0,0,100,0,4.9999997e-5)"
     style="stroke-width:0.0114286">
    <path
       style="fill:none;stroke-width:0.000357143"
       d="M 0,8 V 0 h 8 8 v 8 8 H 8 0 Z m 6.3348453,5.949241 C 6.632995,13.848032 6.7204891,13.755096 7.8693834,12.319262 L 8.984375,10.925798 9,12.095711 c 0.015589,1.167204 0.015804,1.170276 0.093004,1.326164 0.098656,0.199213 0.2859075,0.386465 0.4851206,0.485121 l 0.15625,0.07738 H 11 12.265625 l 0.15625,-0.07738 c 0.08594,-0.04256 0.212836,-0.133965 0.281996,-0.203125 0.06916,-0.06916 0.160566,-0.196058 0.203125,-0.281996 l 0.07738,-0.15625 V 8 2.734375 l -0.07738,-0.15625 C 12.80834,2.3789118 12.621088,2.1916604 12.421875,2.0930044 L 12.265625,2.015625 H 11 9.734375 L 9.578125,2.093004 C 9.3789119,2.1916604 9.1916603,2.3789118 9.0930044,2.578125 9.0158756,2.7338686 9.0155744,2.7381158 9,3.888665 L 8.984375,5.042955 7.8693834,3.6494897 C 7.1343128,2.7308321 6.7083894,2.2243771 6.6193834,2.1631462 6.3524797,1.9795315 6.2695978,1.9675084 5.4620584,1.9952611 4.7859847,2.0184958 4.7232931,2.0255928 4.578125,2.0953267 4.3803812,2.1903159 4.1924203,2.3773771 4.0930044,2.578125 l -0.077379,0.15625 -0.0085,5.203125 c -0.00768,4.704965 -0.0037,5.217903 0.041633,5.357481 0.1015038,0.312536 0.3281888,0.544183 0.6389081,0.652894 0.2077694,0.07269 1.4340641,0.07371 1.6471769,0.0014 z"
       id="path825"
       inkscape:connector-curvature="0" />
    <path
       style="fill:#fefefe;stroke-width:0.000357143"
       d="M 5,8 V 3 H 5.5 6 v 5 5 H 5.5 5 Z m 5,0 V 3 h 0.5 0.5 v 5 5 H 10.5 10 Z"
       id="path823"
       inkscape:connector-curvature="0" />
    <path
       style="fill:#cbcbcb;stroke-width:0.000357143"
       d="M 6,8.0074706 V 3.0015482 L 5.4921875,2.9921314 4.984375,2.9827147 5.5016169,2.9757323 6.0188591,2.96875 8.0010544,5.4453125 c 1.134279,1.4171725 1.9822172,2.5032978 1.9822465,2.5390625 2.94e-5,0.035824 -0.8317462,1.1028581 -1.9488031,2.5 C 6.9626278,11.825 6.0663737,12.942467 6.0428216,12.967634 6.0065472,13.006397 6,12.248015 6,8.0074706 Z M 11,8 V 3 h 0.5 0.5 v 5 5 H 11.5 11 Z"
       id="path821"
       inkscape:connector-curvature="0" />
    <path
       style="fill:#000000;stroke-width:0.000357143"
       d="M 4.6876684,13.947875 C 4.3769491,13.839164 4.1502641,13.607517 4.0487603,13.294981 4.0034291,13.155403 3.9994431,12.642465 4.0071272,7.9375 l 0.0085,-5.203125 0.077379,-0.15625 C 4.1924203,2.3773771 4.3803812,2.1903159 4.578125,2.0953267 4.7232931,2.0255928 4.7859847,2.0184958 5.4620584,1.9952611 c 0.8075394,-0.027753 0.8904213,-0.01573 1.157325,0.1678851 0.089006,0.061231 0.5149294,0.5676859 1.25,1.4863435 L 8.984375,5.042955 9,3.888665 C 9.0155744,2.7381158 9.0158756,2.7338686 9.0930044,2.578125 9.1916603,2.3789118 9.3789119,2.1916604 9.578125,2.0930044 L 9.734375,2.015625 H 11 12.265625 l 0.15625,0.077379 c 0.199213,0.098656 0.386465,0.2859074 0.485121,0.4851206 l 0.07738,0.15625 V 8 13.265625 l -0.07738,0.15625 c -0.04256,0.08594 -0.133965,0.212836 -0.203125,0.281996 -0.06916,0.06916 -0.196058,0.160566 -0.281996,0.203125 l -0.15625,0.07738 H 11 9.734375 l -0.15625,-0.07738 C 9.3789119,13.80834 9.1916603,13.621088 9.0930044,13.421875 9.0158044,13.265987 9.0155887,13.262915 9,12.095711 L 8.984375,10.925798 7.8693834,12.319262 c -1.1488943,1.435834 -1.2363884,1.52877 -1.5345381,1.629979 -0.2131128,0.07234 -1.4394075,0.07133 -1.6471769,-0.0014 z M 8.0094947,10.511651 10,8.0233019 V 10.511651 13 h 1 1 V 8 3 h -1 -1 v 2.4727241 2.472724 L 8.0094947,5.4570991 6.0189894,2.96875 H 5.5094947 5 V 7.984375 13 h 0.5094947 0.5094947 z"
       id="path819"
       inkscape:connector-curvature="0" />
  </g>
</svg>
