<?xml version="1.0" encoding="UTF-8" standalone="no"?>
<!-- Created with Inkscape (http://www.inkscape.org/) -->

<svg
   version="1.1"
   id="svg2"
   width="1600"
   height="1600"
   viewBox="0 0 1600 1600"
   sodipodi:docname="trim_string.svg"
   inkscape:version="1.4.3 (0d15f75, 2025-12-25)"
   xmlns:inkscape="http://www.inkscape.org/namespaces/inkscape"
   xmlns:sodipodi="http://sodipodi.sourceforge.net/DTD/sodipodi-0.dtd"
   xmlns="http://www.w3.org/2000/svg"
   xmlns:svg="http://www.w3.org/2000/svg"
   xmlns:rdf="http://www.w3.org/1999/02/22-rdf-syntax-ns#"
   xmlns:cc="http://creativecommons.org/ns#"
   xmlns:dc="http://purl.org/dc/elements/1.1/">
  <metadata
     id="metadata8">
    <rdf:RDF>
      <cc:Work
         rdf:about="">
        <dc:format>image/svg+xml</dc:format>
        <dc:type
           rdf:resource="http://purl.org/dc/dcmitype/StillImage" />
      </cc:Work>
    </rdf:RDF>
  </metadata>
  <defs
     id="defs6">
    <linearGradient
       id="swatch30">
      <stop
         style="stop-color:#000000;stop-opacity:1;"
         offset="0"
         id="stop30" />
    </linearGradient>
    <linearGradient
       id="swatch9"
       inkscape:swatch="solid">
      <stop
         style="stop-color:#000000;stop-opacity:1;"
         offset="0"
         id="stop9" />
    </linearGradient>
    <linearGradient
       id="swatch8"
       inkscape:swatch="solid">
      <stop
         style="stop-color:#000000;stop-opacity:1;"
         offset="0"
         id="stop8" />
    </linearGradient>
  </defs>
  <sodipodi:namedview
     pagecolor="#808080"
     bordercolor="#666666"
     borderopacity="1"
     objecttolerance="10"
     gridtolerance="10"
     guidetolerance="10"
     inkscape:pageopacity="0"
     inkscape:pageshadow="2"
     inkscape:window-width="1920"
     inkscape:window-height="1017"
     id="namedview4"
     showgrid="false"
     inkscape:zoom="0.35355339"
     inkscape:cx="684.47937"
     inkscape:cy="821.65808"
     inkscape:window-x="-8"
     inkscape:window-y="-8"
     inkscape:window-maximized="1"
     inkscape:current-layer="TRIM_STRING"
     inkscape:showpageshadow="0"
     inkscape:pagecheckerboard="true"
     inkscape:deskcolor="#d1d1d1"
     showguides="true">
    <sodipodi:guide
       position="79.195959,918.34906"
       orientation="1,0"
       id="guide1"
       inkscape:locked="false" />
    <sodipodi:guide
       position="627.91082,785.41299"
       orientation="1,0"
       id="guide2"
       inkscape:locked="false" />
    <sodipodi:guide
       position="1510.3801,1444.4365"
       orientation="0,-1"
       id="guide3"
       inkscape:locked="false" />
    <sodipodi:guide
       position="1923.3304,165.98745"
       orientation="0,-1"
       id="guide4"
       inkscape:locked="false" />
  </sodipodi:namedview>
  <g
     id="TRIM_STRING"
     transform="matrix(100,0,0,100,0,4.9999997e-5)"
     style="stroke-width:0.0114286">
    <path
       id="path32"
       style="fill:#575454;stroke:#848484;stroke-width:0.3;stroke-dasharray:none;stroke-dashoffset:0.40000001;stroke-opacity:1;fill-opacity:1;stroke-linecap:round;paint-order:normal;stroke-linejoin:round"
       d="M 2.7423437 9.6680268 C 2.5974836 9.6714068 2.446089 9.6807202 2.288457 9.6960542 C 1.9827883 9.7257892 1.4618347 9.8141983 1.2553711 9.8713862 L 1.1450195 9.9019722 L 1.1450195 10.395898 L 1.1450195 10.889863 L 1.2695117 10.82705 C 1.9022406 10.507838 3.0229212 10.442115 3.4185352 10.701015 C 3.5503083 10.787245 3.6447936 10.965111 3.6457617 11.128769 L 3.6464063 11.23789 L 3.1093359 11.238144 C 2.0629496 11.23861 1.5296825 11.358463 1.1661328 11.674921 C 0.79875084 11.994715 0.68493156 12.693358 0.91814453 13.197109 C 1.086025 13.55974 1.4443986 13.82267 1.8954297 13.914101 C 2.0864403 13.952821 2.4394265 13.946491 2.6605664 13.900371 C 2.9746065 13.834881 3.2165897 13.703121 3.4466992 13.472382 L 3.6464063 13.272148 L 3.6464063 13.550039 L 3.6464063 13.827929 L 4.3103516 13.827929 L 4.9742773 13.827929 L 4.9636914 12.43832 C 4.9536328 11.117053 4.949966 11.037543 4.8889648 10.821035 C 4.853679 10.695797 4.7881056 10.526317 4.7432422 10.444414 C 4.4514463 9.9117327 3.7563654 9.6443669 2.7423437 9.6680268 z M 12.798594 9.6680659 C 12.653734 9.6714459 12.502377 9.6807788 12.344746 9.6961128 C 12.039077 9.7258468 11.518105 9.8142569 11.311641 9.8714448 L 11.20127 9.9020112 L 11.20127 10.395957 L 11.20127 10.889921 L 11.325781 10.827089 C 11.95851 10.507877 13.079171 10.442175 13.474785 10.701074 C 13.606558 10.787304 13.701071 10.965149 13.702012 11.128808 L 13.702656 11.237949 L 13.165605 11.238183 C 12.119219 11.238649 11.585933 11.358522 11.222383 11.67498 C 10.855002 11.994774 10.741202 12.693415 10.974414 13.197167 C 11.142295 13.559797 11.500668 13.82273 11.951699 13.91416 L 11.951699 13.91414 C 12.142709 13.95286 12.495676 13.946549 12.716816 13.900429 C 13.030856 13.834939 13.27284 13.703199 13.502949 13.47246 L 13.702656 13.272187 L 13.702656 13.550097 L 13.702656 13.827968 L 14.366602 13.827968 L 15.030527 13.827968 L 15.019961 12.438378 C 15.009901 11.11711 15.006215 11.037582 14.945215 10.821074 C 14.909925 10.695836 14.844374 10.526375 14.799512 10.444472 C 14.50771 9.9117914 13.812616 9.6444059 12.798594 9.6680659 z M 3.6543164 12.023632 L 3.6396484 12.22621 C 3.6143773 12.575489 3.445451 12.832215 3.1379492 12.988632 C 2.9770267 13.070489 2.6239289 13.090153 2.4554492 13.02664 C 2.3053127 12.970048 2.1852564 12.855478 2.142832 12.728359 C 2.0989706 12.596934 2.1245059 12.385514 2.1956445 12.291289 C 2.3540362 12.081493 2.5677904 12.024719 3.201582 12.024082 L 3.6543164 12.023632 z M 13.710566 12.023671 L 13.695918 12.226269 C 13.670638 12.575547 13.501701 12.832274 13.194199 12.988691 L 13.194199 12.988671 C 13.033277 13.070531 12.680179 13.090195 12.511699 13.026679 C 12.361562 12.970089 12.241487 12.855537 12.199063 12.728417 C 12.155203 12.596992 12.180755 12.385572 12.251895 12.291347 C 12.410286 12.08155 12.62404 12.024777 13.257832 12.02414 L 13.710566 12.023671 z " />
    <path
       style="fill:#cbfecb;stroke:none;stroke-width:0.100001;stroke-dasharray:0.399999, 0.100001;stroke-dashoffset:0;stroke-opacity:1"
       d="m 5.9321015,8.1531466 v 2.8373834 2.837403 h 0.662117 0.6621362 v -0.282341 -0.28234 l 0.1544888,0.159839 c 0.2582218,0.267147 0.5408743,0.428581 0.8607866,0.491654 0.1944426,0.03834 0.5178885,0.03148 0.7182477,-0.01523 C 9.6725941,13.74038 10.198386,13.084547 10.314686,12.247067 10.521144,10.760334 9.7085359,9.6045049 8.5070499,9.6759595 8.0601129,9.7025392 7.7297372,9.8563813 7.4122224,10.185785 L 7.2563547,10.3475 V 9.2503232 8.1531466 H 6.5942185 Z m 2.2396193,2.4789724 c 0.2050737,0.0098 0.4047267,0.08339 0.5307239,0.217509 0.1816722,0.193375 0.2891376,0.548604 0.2891376,0.955738 0,0.548176 -0.172422,0.93912 -0.4845324,1.098575 -0.1515134,0.07741 -0.4789101,0.09574 -0.6621361,0.03707 -0.072835,-0.02332 -0.1792264,-0.08074 -0.2364157,-0.127595 -0.4692288,-0.384431 -0.4692288,-1.631515 0,-2.016115 0.1476539,-0.121022 0.358149,-0.174991 0.5632227,-0.165181 z"
       id="path821" />
    <g
       id="g1"
       transform="matrix(0.96040879,0,0,0.94993926,0.030426,0.9590851)"
       style="stroke:#000000;stroke-opacity:1;stroke-width:0.10469454;stroke-dasharray:0.41877805,0.10469454;stroke-dashoffset:0" />
    <path
       id="path30"
       style="fill:#cbfecb;stroke:none;stroke-width:0.100001;stroke-dasharray:0.399999, 0.100001;stroke-dashoffset:0;stroke-opacity:1"
       d="m 5.9321015,1.6760485 v 2.8373834 2.837403 h 0.662117 0.6621362 v -0.282341 -0.28234 l 0.1544888,0.159839 c 0.2582218,0.267147 0.5408743,0.428581 0.8607866,0.491654 0.1944426,0.03834 0.5178885,0.03148 0.7182477,-0.01523 C 9.6725941,7.2632819 10.198386,6.6074489 10.314686,5.7699689 10.521144,4.2832359 9.7085359,3.1274068 8.5070499,3.1988614 8.0601129,3.2254411 7.7297372,3.3792832 7.4122224,3.7086869 L 7.2563547,3.8704019 V 2.7732251 1.6760485 H 6.5942185 Z M 2.7423383,3.1909346 c -0.1448602,0.00338 -0.29624,0.012697 -0.453872,0.028031 -0.3056687,0.029735 -0.826622,0.1181406 -1.0330856,0.1753285 l -0.1103656,0.030577 v 0.4939328 0.493953 l 0.1244988,-0.0628 c 0.6327289,-0.319212 1.7534032,-0.384944 2.1490172,-0.126044 0.1317731,0.08623 0.2262552,0.264103 0.2272233,0.427761 l 6.512e-4,0.109118 -0.5370628,2.5e-4 c -1.0463863,4.66e-4 -1.5796547,0.120321 -1.9432044,0.436779 -0.36738197,0.319794 -0.48121486,1.01843 -0.24800189,1.522181 0.16788049,0.362631 0.52626849,0.625564 0.97729959,0.716995 0.1910106,0.03872 0.5439887,0.03239 0.7651286,-0.01373 0.3140401,-0.06549 0.5560277,-0.197234 0.7861372,-0.427973 l 0.1997037,-0.200238 v 0.277879 0.277899 h 0.6639363 0.6639363 l -0.01059,-1.389608 C 4.9536296,4.6399589 4.949963,4.5604519 4.8889618,4.3439439 4.853676,4.2187059 4.7881073,4.0492269 4.7432439,3.9673239 4.451448,3.434643 3.7563599,3.1672747 2.7423383,3.1909346 Z m 10.0562537,3.82e-5 c -0.14486,0.00338 -0.296221,0.012716 -0.453852,0.02805 -0.305669,0.029734 -0.826641,0.1181406 -1.033105,0.1753285 l -0.110366,0.030559 v 0.4939526 0.493952 l 0.124518,-0.06282 c 0.632729,-0.319212 1.753384,-0.384924 2.148998,-0.126025 0.131773,0.08623 0.226282,0.264084 0.227223,0.427743 l 6.51e-4,0.109137 -0.537062,2.3e-4 c -1.046386,4.66e-4 -1.579655,0.120341 -1.943205,0.436799 -0.367381,0.319794 -0.481195,1.018429 -0.247983,1.522181 0.167881,0.36263 0.52625,0.625565 0.977281,0.716995 v -1.9e-5 c 0.19101,0.03872 0.543989,0.03241 0.765129,-0.01371 0.31404,-0.06549 0.556027,-0.197234 0.786136,-0.427973 l 0.199704,-0.200258 v 0.277899 0.27788 h 0.663937 0.663936 l -0.01057,-1.389589 c -0.01006,-1.321268 -0.01374,-1.400795 -0.07474,-1.617303 -0.03529,-0.125238 -0.100856,-0.294698 -0.145718,-0.376601 C 14.507702,3.4347001 13.812614,3.1673128 12.798592,3.1909728 Z M 8.1717208,4.1550209 c 0.2050737,0.0098 0.4047267,0.08339 0.5307239,0.217509 0.1816722,0.193375 0.2891376,0.548604 0.2891376,0.955738 0,0.548176 -0.172422,0.93912 -0.4845324,1.098575 -0.1515134,0.07741 -0.4789101,0.09574 -0.6621361,0.03707 -0.072835,-0.02332 -0.1792264,-0.08074 -0.2364157,-0.127595 -0.4692288,-0.384431 -0.4692288,-1.631515 0,-2.016115 0.1476539,-0.121022 0.358149,-0.174991 0.5632227,-0.165181 z m -4.517406,1.391522 -0.01467,0.202574 C 3.6143737,6.0983959 3.4454554,6.3551119 3.1379536,6.5115289 2.9770311,6.5933859 2.6239208,6.6130469 2.4554411,6.5495339 2.3053046,6.4929419 2.1852492,6.3783819 2.1428248,6.2512629 2.0989634,6.1198379 2.1245041,5.9084209 2.1956427,5.8141959 2.3540344,5.6043999 2.567781,5.5476179 3.2015726,5.5469809 Z m 10.0562532,3.8e-5 -0.01465,0.202594 c -0.02528,0.349278 -0.194209,0.605995 -0.501711,0.762412 v -1.9e-5 c -0.160922,0.08186 -0.514033,0.101536 -0.682513,0.03802 -0.150137,-0.05659 -0.270211,-0.171151 -0.312635,-0.298271 -0.04386,-0.131425 -0.0183,-0.342841 0.05284,-0.437066 0.158391,-0.209797 0.372138,-0.266577 1.00593,-0.267214 z"
       sodipodi:nodetypes="ccccccccccssccccccsscccccscccsssccccccccscsssccccsscccssccscccccccscsssssscssccssssccccccssccc" />
  </g>
</svg>
