<?xml version="1.0" encoding="UTF-8" standalone="no"?>
<!-- Created with Inkscape (http://www.inkscape.org/) -->

<svg
   version="1.1"
   id="svg2"
   width="1600"
   height="1600"
   viewBox="0 0 1600 1600"
   sodipodi:docname="trim_string.svg"
   inkscape:version="1.4.3 (0d15f75, 2025-12-25)"
   xml:space="preserve"
   xmlns:inkscape="http://www.inkscape.org/namespaces/inkscape"
   xmlns:sodipodi="http://sodipodi.sourceforge.net/DTD/sodipodi-0.dtd"
   xmlns="http://www.w3.org/2000/svg"
   xmlns:svg="http://www.w3.org/2000/svg"
   xmlns:rdf="http://www.w3.org/1999/02/22-rdf-syntax-ns#"
   xmlns:cc="http://creativecommons.org/ns#"
   xmlns:dc="http://purl.org/dc/elements/1.1/"><metadata
     id="metadata8"><rdf:RDF><cc:Work
         rdf:about=""><dc:format>image/svg+xml</dc:format><dc:type
           rdf:resource="http://purl.org/dc/dcmitype/StillImage" /></cc:Work></rdf:RDF></metadata><defs
     id="defs6"><linearGradient
       id="swatch30"><stop
         style="stop-color:#000000;stop-opacity:1;"
         offset="0"
         id="stop30" /></linearGradient><linearGradient
       id="swatch9"
       inkscape:swatch="solid"><stop
         style="stop-color:#000000;stop-opacity:1;"
         offset="0"
         id="stop9" /></linearGradient><linearGradient
       id="swatch8"
       inkscape:swatch="solid"><stop
         style="stop-color:#000000;stop-opacity:1;"
         offset="0"
         id="stop8" /></linearGradient></defs><sodipodi:namedview
     pagecolor="#808080"
     bordercolor="#666666"
     borderopacity="1"
     objecttolerance="10"
     gridtolerance="10"
     guidetolerance="10"
     inkscape:pageopacity="0"
     inkscape:pageshadow="2"
     inkscape:window-width="1920"
     inkscape:window-height="1009"
     id="namedview4"
     showgrid="false"
     inkscape:zoom="0.26125"
     inkscape:cx="604.78469"
     inkscape:cy="646.88995"
     inkscape:window-x="-8"
     inkscape:window-y="-8"
     inkscape:window-maximized="1"
     inkscape:current-layer="TRIM_STRING"
     inkscape:showpageshadow="0"
     inkscape:pagecheckerboard="true"
     inkscape:deskcolor="#d1d1d1"
     showguides="true"><sodipodi:guide
       position="79.195959,918.34906"
       orientation="1,0"
       id="guide1"
       inkscape:locked="false" /><sodipodi:guide
       position="627.91082,785.41299"
       orientation="1,0"
       id="guide2"
       inkscape:locked="false" /><sodipodi:guide
       position="1510.3801,1444.4365"
       orientation="0,-1"
       id="guide3"
       inkscape:locked="false" /><sodipodi:guide
       position="1923.3304,165.98745"
       orientation="0,-1"
       id="guide4"
       inkscape:locked="false" /></sodipodi:namedview><g
     id="TRIM_STRING"
     transform="matrix(100,0,0,100,0,4.9999997e-5)"
     style="stroke-width:0.0114286"><path
       id="path32-7"
       style="fill:none;fill-opacity:1;stroke:#333333;stroke-width:1;stroke-linecap:round;stroke-linejoin:round;stroke-dasharray:none;stroke-dashoffset:0.4;stroke-opacity:1;paint-order:normal"
       d="m 2.7423435,9.6680257 c -0.1448601,0.00338 -0.2962547,0.012693 -0.4538867,0.028027 -0.3056687,0.029735 -0.8266223,0.1181441 -1.0330859,0.175332 l -0.1103516,0.030586 v 0.4939263 0.493965 l 0.1244922,-0.06281 C 1.9022404,10.50784 3.022921,10.442117 3.418535,10.701017 c 0.1317731,0.08623 0.2262584,0.264096 0.2272265,0.427754 l 6.446e-4,0.10912 -0.5370704,2.54e-4 c -1.0463863,4.63e-4 -1.5796534,0.120316 -1.9432031,0.436774 -0.367382,0.319794 -0.4812012,1.018437 -0.2479883,1.522188 0.1678805,0.362631 0.5262541,0.625561 0.9772852,0.716992 0.1910106,0.03872 0.5439968,0.03239 0.7651367,-0.01373 0.3140401,-0.06549 0.5560233,-0.19725 0.7861328,-0.427989 l 0.1997071,-0.200234 v 0.277891 0.27789 H 4.3103514 4.9742771 L 4.9636912,12.438319 C 4.9536326,11.117052 4.9499658,11.037542 4.8889646,10.821034 4.8536788,10.695796 4.7881054,10.526316 4.743242,10.444413 4.4514461,9.9117316 3.7563652,9.6443658 2.7423435,9.6680257 Z m 10.0562505,3.91e-5 c -0.14486,0.00338 -0.296217,0.012713 -0.453848,0.028047 -0.305669,0.029734 -0.826641,0.1181441 -1.033105,0.175332 l -0.110371,0.030566 v 0.4939462 0.493964 l 0.124511,-0.06283 c 0.632729,-0.319212 1.75339,-0.384914 2.149004,-0.126015 0.131773,0.08623 0.226286,0.264075 0.227227,0.427734 l 6.44e-4,0.109141 -0.537051,2.34e-4 c -1.046386,4.66e-4 -1.579672,0.120339 -1.943222,0.436797 -0.367381,0.319794 -0.481181,1.018435 -0.247969,1.522187 0.167881,0.36263 0.526254,0.625563 0.977285,0.716993 v -2e-5 c 0.19101,0.03872 0.543977,0.03241 0.765117,-0.01371 0.31404,-0.06549 0.556024,-0.19723 0.786133,-0.427969 l 0.199707,-0.200273 v 0.27791 0.277871 h 0.663946 0.663925 l -0.01057,-1.38959 c -0.01006,-1.321268 -0.01375,-1.400796 -0.07475,-1.617304 -0.03529,-0.125238 -0.100841,-0.294699 -0.145703,-0.376602 C 14.50771,9.9117903 13.812616,9.6444048 12.798594,9.6680648 Z m -9.1442778,2.3555662 -0.014668,0.202578 c -0.025271,0.349279 -0.1941974,0.606005 -0.5016992,0.762422 -0.1609225,0.08186 -0.5140203,0.101521 -0.6825,0.03801 -0.1501365,-0.05659 -0.2701928,-0.171162 -0.3126172,-0.298281 -0.043861,-0.131425 -0.018326,-0.342845 0.052813,-0.43707 0.1583917,-0.209796 0.3721459,-0.26657 1.0059375,-0.267207 z m 10.0562498,3.9e-5 -0.01465,0.202598 c -0.02528,0.349278 -0.194217,0.606005 -0.501719,0.762422 v -2e-5 c -0.160922,0.08186 -0.51402,0.101524 -0.6825,0.03801 -0.150137,-0.05659 -0.270212,-0.171142 -0.312636,-0.298262 -0.04386,-0.131425 -0.01831,-0.342845 0.05283,-0.43707 0.158391,-0.209797 0.372145,-0.26657 1.005937,-0.267207 z" /><path
       style="fill:#cbfecb;stroke:#333333;stroke-width:1;stroke-dasharray:none;stroke-dashoffset:0;stroke-opacity:1"
       d="m 5.932101,8.1531466 v 2.8373834 2.837403 h 0.662117 0.6621362 v -0.282341 -0.28234 l 0.1544888,0.159839 c 0.2582218,0.267147 0.5408743,0.428581 0.8607866,0.491654 0.1944426,0.03834 0.5178885,0.03148 0.7182477,-0.01523 C 9.672594,13.74038 10.198386,13.084547 10.314686,12.247067 10.521144,10.760334 9.708535,9.6045049 8.5070494,9.6759595 8.0601124,9.7025392 7.7297367,9.8563813 7.4122219,10.185785 L 7.2563542,10.3475 V 9.2503232 8.1531466 H 6.594218 Z m 2.2396193,2.4789724 c 0.2050737,0.0098 0.4047267,0.08339 0.5307239,0.217509 0.1816722,0.193375 0.2891376,0.548604 0.2891376,0.955738 0,0.548176 -0.172422,0.93912 -0.4845324,1.098575 -0.1515134,0.07741 -0.4789101,0.09574 -0.6621361,0.03707 -0.072835,-0.02332 -0.1792264,-0.08074 -0.2364157,-0.127595 -0.4692288,-0.384431 -0.4692288,-1.631515 0,-2.016115 0.1476539,-0.121022 0.358149,-0.174991 0.5632227,-0.165181 z"
       id="path821-5" /><g
       id="path30-4"
       style="opacity:1"><path
         style="baseline-shift:baseline;display:inline;overflow:visible;vector-effect:none;fill:#cbfecb;enable-background:accumulate;stop-color:#000000;stop-opacity:1"
         d="m 5.9321013,1.6760485 v 2.8373834 2.837403 h 0.662117 0.6621362 v -0.282341 -0.28234 l 0.1544888,0.159839 c 0.2582218,0.267147 0.5408743,0.428581 0.8607866,0.491654 0.1944426,0.03834 0.5178885,0.03148 0.7182477,-0.01523 C 9.6725939,7.2632819 10.198386,6.6074489 10.314686,5.7699689 10.521144,4.2832359 9.7085357,3.1274068 8.5070497,3.1988614 8.0601127,3.2254411 7.729737,3.3792832 7.4122222,3.7086869 L 7.2563545,3.8704019 V 2.7732251 1.6760485 H 6.5942183 Z M 2.7423381,3.1909346 c -0.1448602,0.00338 -0.29624,0.012697 -0.453872,0.028031 -0.3056687,0.029735 -0.826622,0.1181406 -1.0330856,0.1753285 l -0.1103656,0.030577 v 0.4939328 0.493953 l 0.1244988,-0.0628 c 0.6327289,-0.319212 1.7534032,-0.384944 2.1490172,-0.126044 0.1317731,0.08623 0.2262552,0.264103 0.2272233,0.427761 l 6.512e-4,0.109118 -0.5370628,2.5e-4 c -1.0463863,4.66e-4 -1.5796547,0.120321 -1.9432044,0.436779 -0.36738195,0.319794 -0.48121484,1.01843 -0.24800187,1.522181 0.16788047,0.362631 0.52626847,0.625564 0.97729957,0.716995 0.1910106,0.03872 0.5439887,0.03239 0.7651286,-0.01373 0.3140401,-0.06549 0.5560277,-0.197234 0.7861372,-0.427973 l 0.1997037,-0.200238 v 0.277879 0.277899 H 4.3103417 4.974278 L 4.963688,5.9612259 C 4.9536294,4.6399589 4.9499628,4.5604519 4.8889616,4.3439439 4.8536758,4.2187059 4.7881071,4.0492269 4.7432437,3.9673239 4.4514478,3.434643 3.7563597,3.1672747 2.7423381,3.1909346 Z m 10.0562539,3.82e-5 c -0.14486,0.00338 -0.296221,0.012716 -0.453852,0.02805 -0.305669,0.029734 -0.826641,0.1181406 -1.033105,0.1753285 l -0.110366,0.030559 v 0.4939526 0.493952 l 0.124518,-0.06282 c 0.632729,-0.319212 1.753384,-0.384924 2.148998,-0.126025 0.131773,0.08623 0.226282,0.264084 0.227223,0.427743 l 6.51e-4,0.109137 -0.537062,2.3e-4 c -1.046386,4.66e-4 -1.579655,0.120341 -1.943205,0.436799 -0.367381,0.319794 -0.481195,1.018429 -0.247983,1.522181 0.167881,0.36263 0.52625,0.625565 0.977281,0.716995 v -1.9e-5 c 0.19101,0.03872 0.543989,0.03241 0.765129,-0.01371 0.31404,-0.06549 0.556027,-0.197234 0.786136,-0.427973 l 0.199704,-0.200258 v 0.277899 0.27788 h 0.663937 0.663936 l -0.01057,-1.389589 c -0.01006,-1.321268 -0.01374,-1.400795 -0.07474,-1.617303 -0.03529,-0.125238 -0.100856,-0.294698 -0.145718,-0.376601 C 14.507702,3.4347001 13.812614,3.1673128 12.798592,3.1909728 Z M 8.1717206,4.1550209 c 0.2050737,0.0098 0.4047267,0.08339 0.5307239,0.217509 0.1816722,0.193375 0.2891376,0.548604 0.2891376,0.955738 0,0.548176 -0.172422,0.93912 -0.4845324,1.098575 -0.1515134,0.07741 -0.4789101,0.09574 -0.6621361,0.03707 -0.072835,-0.02332 -0.1792264,-0.08074 -0.2364157,-0.127595 -0.4692288,-0.384431 -0.4692288,-1.631515 0,-2.016115 0.1476539,-0.121022 0.358149,-0.174991 0.5632227,-0.165181 z m -4.517406,1.391522 -0.01467,0.202574 C 3.6143735,6.0983959 3.4454552,6.3551119 3.1379534,6.5115289 2.9770309,6.5933859 2.6239206,6.6130469 2.4554409,6.5495339 2.3053044,6.4929419 2.185249,6.3783819 2.1428246,6.2512629 2.0989632,6.1198379 2.1245039,5.9084209 2.1956425,5.8141959 2.3540342,5.6043999 2.5677808,5.5476179 3.2015724,5.5469809 Z m 10.0562534,3.8e-5 -0.01465,0.202594 c -0.02528,0.349278 -0.194209,0.605995 -0.501711,0.762412 v -1.9e-5 c -0.160922,0.08186 -0.514033,0.101536 -0.682513,0.03802 -0.150137,-0.05659 -0.270211,-0.171151 -0.312635,-0.298271 -0.04386,-0.131425 -0.0183,-0.342841 0.05284,-0.437066 0.158391,-0.209797 0.372138,-0.266577 1.00593,-0.267214 z"
         id="path7" /><path
         style="baseline-shift:baseline;display:inline;overflow:visible;vector-effect:none;fill:#333333;enable-background:accumulate;stop-color:#000000;stop-opacity:1"
         d="M 5.4316406,1.1757812 V 4.5136719 4.6210937 C 5.4175518,4.4544113 5.3988944,4.3076557 5.3710937,4.2089844 5.3238927,4.0414563 5.2675101,3.8833266 5.1816406,3.7265625 4.7629772,2.9622818 3.837636,2.665573 2.7304688,2.6914063 2.572308,2.6950966 2.4091435,2.7042721 2.2402344,2.7207031 1.8940002,2.7543843 1.4083237,2.8325502 1.1210937,2.9121094 L 0.64453125,3.0449219 V 3.9179688 5.1738281 C 0.29673032,5.6909966 0.19159653,6.3394606 0.46484375,6.9296875 0.7079865,7.4548891 1.2134598,7.8094671 1.796875,7.9277344 2.1158321,7.9923906 2.4454312,7.978073 2.7617188,7.9121094 2.9079736,7.8816093 3.0123818,7.7634084 3.1464844,7.703125 V 7.8515625 H 4.3105469 5.4316406 5.4785156 6.59375 7.7558594 V 7.6914062 c 0.145633,0.068477 0.2617818,0.2051497 0.4199219,0.2363282 0.3088015,0.060889 0.6220407,0.053689 0.9277343,-0.017578 0.6492025,-0.1513232 1.0803104,-0.6688067 1.3750004,-1.28125 0.02868,0.099916 -0.0014,0.2049024 0.04297,0.3007813 0.243138,0.5251864 0.746659,0.8797799 1.330079,0.9980469 l 0.599609,0.1210937 c 0,0 0.500903,-0.1647064 0.751953,-0.1972665 h 1.164063 1.167968 l -0.01563,-1.8945313 c -0.005,-0.6610217 -0.0069,-1.0101109 -0.01758,-1.2421875 -0.01073,-0.2320765 -0.04205,-0.3847505 -0.07617,-0.5058593 -0.0472,-0.1675198 -0.101648,-0.3256853 -0.1875,-0.4824219 -0.418667,-0.7642716 -1.343998,-1.0609897 -2.451172,-1.0351562 -0.158205,0.00369 -0.321369,0.01287 -0.490234,0.029297 -0.346235,0.03368 -0.831905,0.1118456 -1.119141,0.1914063 l -0.476562,0.1328125 v 0.8730469 1.2558593 c -0.0081,0.012095 -0.01371,0.02483 -0.02148,0.037109 C 10.65142,4.6335843 10.644757,4.0358657 10.347656,3.6132813 9.9339466,3.0248363 9.2434603,2.6536099 8.4765625,2.6992188 8.1998259,2.7156765 7.9983944,2.9208956 7.7558594,3.0351563 V 2.7734375 1.1757812 H 6.59375 Z m 1,1.0000001 H 6.59375 6.7558594 V 2.7734375 5.109375 L 6.8945312,4.9648437 C 6.8772092,5.0961658 6.7558594,5.196982 6.7558594,5.328125 c 0,0.131994 0.1230491,0.2330821 0.140625,0.3652344 L 6.7558594,5.5488281 V 6.8515625 H 6.59375 6.4316406 V 4.5136719 Z M 8.5371094,3.6972656 C 8.9716976,3.6714199 9.2879454,3.8442108 9.5292969,4.1875 9.7706483,4.5307892 9.9088206,5.063813 9.8203125,5.7011719 9.7273618,6.3705131 9.3191642,6.8324715 8.8769531,6.9355469 c -0.084058,0.019596 -0.33254,0.019486 -0.4492187,0.00977 0.099145,-0.016243 0.1932659,-0.014341 0.3066406,-0.072266 0.5405263,-0.2761511 0.7578125,-0.8919 0.7578125,-1.5449219 0,-0.4951193 -0.1022558,-0.9544621 -0.4257812,-1.2988281 C 8.8852878,3.8365035 8.6487226,3.7992222 8.4199219,3.7519531 c 0.045583,-0.00622 0.064072,-0.051529 0.1171875,-0.054687 z M 3.8222656,4.046875 c 0.1140361,0.075418 0.4311233,0.066509 0.4824219,0.1601562 0.00386,0.00704 0.080145,0.1904896 0.1035156,0.2734375 0.026877,0.095394 0.028233,0.089122 0.037109,0.28125 0.00888,0.1921281 0.012552,0.5428777 0.017578,1.203125 l 0.00781,0.8867188 H 4.3105469 4.1464844 V 5.6757812 L 4.1914062,5.046875 H 4.1484375 L 4.1464844,4.6484375 C 4.1449919,4.3961304 3.9754891,4.2244506 3.8222656,4.046875 Z m 10.0546874,0 c 0.114701,0.075608 0.432887,0.066165 0.484375,0.1601562 0.0039,0.00707 0.08014,0.1904813 0.103516,0.2734375 0.02688,0.095399 0.02823,0.089119 0.03711,0.28125 0.0089,0.192131 0.01255,0.5428788 0.01758,1.203125 l 0.0078,0.8867188 H 14.367188 14.203125 V 5.6757812 l 0.04492,-0.6289062 h -0.04492 l -0.002,-0.3984375 C 14.199719,4.3958045 14.030484,4.2245294 13.876953,4.046875 Z M 8.1484375,4.6542969 c 0.1013219,0.00484 0.1814371,0.052014 0.1894531,0.060547 0.039819,0.042384 0.1542969,0.2941326 0.1542969,0.6132813 0,0.4433301 -0.1291961,0.611538 -0.2128906,0.6542969 0.039941,-0.020406 -0.04167,0.011288 -0.1191406,0.015625 -0.077471,0.00434 -0.1672707,-0.011418 -0.1621094,-0.00977 0.019499,0.00624 -0.095324,-0.057954 -0.072266,-0.039063 C 7.8961923,5.924977 7.7558594,5.6401621 7.7558594,5.328125 c 0,-0.3120371 0.1402243,-0.5967524 0.1699218,-0.6210938 0.023833,-0.019534 0.1213163,-0.057582 0.2226563,-0.052734 z M 1.796875,5.515625 C 1.671564,5.6824144 1.6458979,5.8183642 1.6289062,5.9589844 c -0.017057,0.1411621 -0.017582,0.2814451 0.039063,0.4511718 0.090598,0.2714634 0.3045259,0.4202247 0.5351563,0.53125 -0.08035,-5.996e-4 -0.1856332,0.010593 -0.2089844,0.00586 C 1.6754936,6.8826709 1.4637119,6.709826 1.3710937,6.5097656 1.2379833,6.2222408 1.360192,5.6908166 1.4941406,5.5742187 1.5368869,5.5370095 1.7403868,5.546758 1.796875,5.515625 Z m 10.056641,0 c -0.125301,0.1667717 -0.150968,0.3027395 -0.167969,0.4433594 -0.01707,0.1411619 -0.01759,0.281426 0.03906,0.4511718 0.09061,0.2715009 0.304526,0.4202344 0.535157,0.53125 -0.08035,-6.022e-4 -0.185622,0.010595 -0.208985,0.00586 -0.318642,-0.064593 -0.530422,-0.2374264 -0.623047,-0.4375 -0.133114,-0.287536 -0.01089,-0.8189545 0.123047,-0.9355469 0.04275,-0.037211 0.246246,-0.027459 0.302735,-0.058594 z M 2.8984375,6.0683594 c 0.011555,-0.00835 -0.052257,0.013419 -0.1269531,0.017578 -0.051708,0.00288 -0.061929,9.357e-4 -0.087891,-0.00195 0.032638,-0.00722 0.1477101,-0.00967 0.2148437,-0.015625 z m 10.0527345,0 c 0.0082,-0.00701 -0.04961,0.013487 -0.123047,0.017578 -0.05171,0.00288 -0.06194,9.344e-4 -0.08789,-0.00195 0.03205,-0.00709 0.14564,-0.00973 0.210938,-0.015625 z"
         id="path8"
         sodipodi:nodetypes="cccscssccccssccccccccccccccccccccccsscccccsscccccccccccsccccccccsscccscccccsccccccccccccscccccccccccssccccssccssccsscscsccssssssccsssccs" /></g><path
       style="fill:#cbfecb;stroke:none;stroke-width:0.100001;stroke-dasharray:0.399999, 0.100001;stroke-dashoffset:0;stroke-opacity:1"
       d="m 5.9321015,8.1531466 v 2.8373834 2.837403 h 0.662117 0.6621362 v -0.282341 -0.28234 l 0.1544888,0.159839 c 0.2582218,0.267147 0.5408743,0.428581 0.8607866,0.491654 0.1944426,0.03834 0.5178885,0.03148 0.7182477,-0.01523 C 9.6725941,13.74038 10.198386,13.084547 10.314686,12.247067 10.521144,10.760334 9.7085359,9.6045049 8.5070499,9.6759595 8.0601129,9.7025392 7.7297372,9.8563813 7.4122224,10.185785 L 7.2563547,10.3475 V 9.2503232 8.1531466 H 6.5942185 Z m 2.2396193,2.4789724 c 0.2050737,0.0098 0.4047267,0.08339 0.5307239,0.217509 0.1816722,0.193375 0.2891376,0.548604 0.2891376,0.955738 0,0.548176 -0.172422,0.93912 -0.4845324,1.098575 -0.1515134,0.07741 -0.4789101,0.09574 -0.6621361,0.03707 -0.072835,-0.02332 -0.1792264,-0.08074 -0.2364157,-0.127595 -0.4692288,-0.384431 -0.4692288,-1.631515 0,-2.016115 0.1476539,-0.121022 0.358149,-0.174991 0.5632227,-0.165181 z"
       id="path821" /><g
       id="g1"
       transform="matrix(0.96040879,0,0,0.94993926,0.030426,0.9590851)"
       style="stroke:#000000;stroke-opacity:1;stroke-width:0.10469454;stroke-dasharray:0.41877805,0.10469454;stroke-dashoffset:0" /><path
       style="fill:#cbfecb;stroke:none;stroke-width:1;stroke-dasharray:none;stroke-dashoffset:0;stroke-opacity:1"
       d="m 12.798592,3.1909728 c -0.14486,0.00338 -0.296221,0.012716 -0.453852,0.02805 -0.305669,0.029734 -0.826641,0.1181406 -1.033105,0.1753285 l -0.110366,0.030559 v 0.4939526 0.493952 l 0.124518,-0.06282 c 0.632729,-0.319212 1.753384,-0.384924 2.148998,-0.126025 0.131773,0.08623 0.226282,0.264084 0.227223,0.427743 l 6.51e-4,0.109137 -0.537062,2.3e-4 c -1.046386,4.66e-4 -1.579655,0.120341 -1.943205,0.436799 -0.367381,0.319794 -0.481195,1.018429 -0.247983,1.522181 0.167881,0.36263 0.52625,0.625565 0.977281,0.716995 v -1.9e-5 c 0.19101,0.03872 0.543989,0.03241 0.765129,-0.01371 0.31404,-0.06549 0.556027,-0.197234 0.786136,-0.427973 l 0.199704,-0.200258 v 0.277899 0.27788 h 0.663937 0.663936 l -0.01057,-1.389589 c -0.01006,-1.321268 -0.01374,-1.400795 -0.07474,-1.617303 -0.03529,-0.125238 -0.100856,-0.294698 -0.145718,-0.376601 -0.291802,-0.5326808 -0.98689,-0.8000681 -2.000912,-0.7764081 z m 0.911976,2.3556081 -0.01465,0.202594 c -0.02528,0.349278 -0.194209,0.605995 -0.501711,0.762412 v -1.9e-5 c -0.160922,0.08186 -0.514033,0.101536 -0.682513,0.03802 -0.150137,-0.05659 -0.270211,-0.171151 -0.312635,-0.298271 -0.04386,-0.131425 -0.0183,-0.342841 0.05284,-0.437066 0.158391,-0.209797 0.372138,-0.266577 1.00593,-0.267214 z"
       id="path6" /><path
       style="fill:#cbfecb;stroke:none;stroke-width:1;stroke-dasharray:none;stroke-dashoffset:0;stroke-opacity:1"
       d="m 2.7423383,3.1909346 c -0.1448602,0.00338 -0.29624,0.012697 -0.453872,0.028031 -0.3056687,0.029735 -0.826622,0.1181406 -1.0330856,0.1753285 l -0.1103656,0.030577 v 0.4939328 0.493953 l 0.1244988,-0.0628 c 0.6327289,-0.319212 1.7534032,-0.384944 2.1490172,-0.126044 0.1317731,0.08623 0.2262552,0.264103 0.2272233,0.427761 l 6.512e-4,0.109118 -0.5370628,2.5e-4 c -1.0463863,4.66e-4 -1.5796547,0.120321 -1.9432044,0.436779 -0.36738197,0.319794 -0.48121486,1.01843 -0.24800189,1.522181 0.16788049,0.362631 0.52626849,0.625564 0.97729959,0.716995 0.1910106,0.03872 0.5439887,0.03239 0.7651286,-0.01373 0.3140401,-0.06549 0.5560277,-0.197234 0.7861372,-0.427973 l 0.1997037,-0.200238 v 0.277879 0.277899 h 0.6639363 0.6639363 l -0.01059,-1.389608 C 4.9536296,4.6399589 4.949963,4.5604519 4.8889618,4.3439439 4.853676,4.2187059 4.7881073,4.0492269 4.7432439,3.9673239 4.451448,3.434643 3.7563599,3.1672747 2.7423383,3.1909346 Z m 0.9119765,2.3556083 -0.01467,0.202574 C 3.6143737,6.0983959 3.4454554,6.3551119 3.1379536,6.5115289 2.9770311,6.5933859 2.6239208,6.6130469 2.4554411,6.5495339 2.3053046,6.4929419 2.1852492,6.3783819 2.1428248,6.2512629 2.0989634,6.1198379 2.1245041,5.9084209 2.1956427,5.8141959 2.3540344,5.6043999 2.567781,5.5476179 3.2015726,5.5469809 Z"
       id="path5" /><path
       style="fill:#f9f9f9;stroke:none;stroke-width:1;stroke-dasharray:none;stroke-dashoffset:0;stroke-opacity:1"
       d="m 12.798592,9.6691507 c -0.14486,0.00338 -0.296221,0.012716 -0.453852,0.02805 -0.305669,0.029734 -0.826641,0.1181406 -1.033105,0.1753285 l -0.110366,0.030559 v 0.4939528 0.493952 l 0.124518,-0.06282 c 0.632729,-0.319212 1.753384,-0.384924 2.148998,-0.126025 0.131773,0.08623 0.226282,0.264084 0.227223,0.427743 l 6.51e-4,0.109137 -0.537062,2.3e-4 c -1.046386,4.66e-4 -1.579655,0.120341 -1.943205,0.436799 -0.367381,0.319794 -0.481195,1.018429 -0.247983,1.522181 0.167881,0.36263 0.52625,0.625565 0.977281,0.716995 v -1.9e-5 c 0.19101,0.03872 0.543989,0.03241 0.765129,-0.01371 0.31404,-0.06549 0.556027,-0.197234 0.786136,-0.427973 l 0.199704,-0.200258 v 0.277899 0.27788 h 0.663937 0.663936 l -0.01057,-1.389589 c -0.01006,-1.321268 -0.01374,-1.400795 -0.07474,-1.617303 -0.03529,-0.125238 -0.100856,-0.294698 -0.145718,-0.376601 -0.291802,-0.532681 -0.98689,-0.8000683 -2.000912,-0.7764083 z m 0.911976,2.3556083 -0.01465,0.202594 c -0.02528,0.349278 -0.194209,0.605995 -0.501711,0.762412 v -1.9e-5 c -0.160922,0.08186 -0.514033,0.101536 -0.682513,0.03802 -0.150137,-0.05659 -0.270211,-0.171151 -0.312635,-0.298271 -0.04386,-0.131425 -0.0183,-0.342841 0.05284,-0.437066 0.158391,-0.209797 0.372138,-0.266577 1.00593,-0.267214 z"
       id="path6-5" /><path
       style="fill:#f9f9f9;stroke:none;stroke-width:1;stroke-dasharray:none;stroke-dashoffset:0;stroke-opacity:1"
       d="m 2.7423383,9.6691125 c -0.1448602,0.00338 -0.29624,0.012697 -0.453872,0.028031 C 1.9827976,9.7268785 1.4618443,9.8152841 1.2553807,9.872472 L 1.1450151,9.903049 v 0.493933 0.493953 l 0.1244988,-0.0628 c 0.6327289,-0.319212 1.7534032,-0.384944 2.1490172,-0.126044 0.1317731,0.08623 0.2262552,0.264103 0.2272233,0.427761 l 6.512e-4,0.109118 -0.5370628,2.5e-4 c -1.0463863,4.66e-4 -1.5796547,0.120321 -1.9432044,0.436779 -0.36738199,0.319794 -0.48121489,1.01843 -0.24800189,1.522181 0.16788049,0.362631 0.52626849,0.625564 0.97729959,0.716995 0.1910106,0.03872 0.5439887,0.03239 0.7651286,-0.01373 0.3140401,-0.06549 0.5560277,-0.197234 0.7861372,-0.427973 l 0.1997037,-0.200238 v 0.277879 0.277899 h 0.6639363 0.6639363 l -0.01059,-1.389608 C 4.9536296,11.118137 4.949963,11.03863 4.8889618,10.822122 4.853676,10.696884 4.7881073,10.527405 4.7432439,10.445502 4.451448,9.9128209 3.7563599,9.6454526 2.7423383,9.6691125 Z m 0.9119765,2.3556085 -0.01467,0.202574 C 3.6143737,12.576574 3.4454554,12.83329 3.1379536,12.989707 2.9770311,13.071564 2.6239208,13.091225 2.4554411,13.027712 2.3053046,12.97112 2.1852492,12.85656 2.1428248,12.729441 2.0989638,12.598016 2.1245038,12.386599 2.1956428,12.292374 2.3540345,12.082578 2.5677811,12.025796 3.2015727,12.025159 Z"
       id="path5-7" /><path
       style="fill:#fecbcb;stroke:none;stroke-width:1;stroke-dasharray:none;stroke-dashoffset:0;stroke-opacity:1;fill-opacity:1"
       d="m 5.9321015,1.6760485 v 2.8373834 2.837403 h 0.662117 0.6621362 v -0.282341 -0.28234 l 0.1544888,0.159839 c 0.2582218,0.267147 0.5408743,0.428581 0.8607866,0.491654 0.1944426,0.03834 0.5178885,0.03148 0.7182477,-0.01523 C 9.6725941,7.2632819 10.198386,6.6074489 10.314686,5.7699689 10.521144,4.2832359 9.7085359,3.1274068 8.5070499,3.1988614 8.0601129,3.2254411 7.7297372,3.3792832 7.4122224,3.7086869 L 7.2563547,3.8704019 V 2.7732251 1.6760485 H 6.5942185 Z m 2.2396193,2.4789724 c 0.2050737,0.0098 0.4047267,0.08339 0.5307239,0.217509 0.1816722,0.193375 0.2891376,0.548604 0.2891376,0.955738 0,0.548176 -0.172422,0.93912 -0.4845324,1.098575 -0.1515134,0.07741 -0.4789101,0.09574 -0.6621361,0.03707 -0.072835,-0.02332 -0.1792264,-0.08074 -0.2364157,-0.127595 -0.4692288,-0.384431 -0.4692288,-1.631515 0,-2.016115 0.1476539,-0.121022 0.358149,-0.174991 0.5632227,-0.165181 z"
       id="path30" /></g></svg>
