<?xml version="1.0" encoding="UTF-8" standalone="no"?>
<!-- Created with Inkscape (http://www.inkscape.org/) -->

<svg
   version="1.1"
   id="svg2"
   width="1600"
   height="1600"
   viewBox="0 0 1600 1600"
   sodipodi:docname="tristoquads.svg"
   inkscape:version="1.2.2 (732a01da63, 2022-12-09)"
   xmlns:inkscape="http://www.inkscape.org/namespaces/inkscape"
   xmlns:sodipodi="http://sodipodi.sourceforge.net/DTD/sodipodi-0.dtd"
   xmlns="http://www.w3.org/2000/svg"
   xmlns:svg="http://www.w3.org/2000/svg"
   xmlns:rdf="http://www.w3.org/1999/02/22-rdf-syntax-ns#"
   xmlns:cc="http://creativecommons.org/ns#"
   xmlns:dc="http://purl.org/dc/elements/1.1/">
  <metadata
     id="metadata8">
    <rdf:RDF>
      <cc:Work
         rdf:about="">
        <dc:format>image/svg+xml</dc:format>
        <dc:type
           rdf:resource="http://purl.org/dc/dcmitype/StillImage" />
      </cc:Work>
    </rdf:RDF>
  </metadata>
  <defs
     id="defs6" />
  <sodipodi:namedview
     pagecolor="#808080"
     bordercolor="#666666"
     borderopacity="1"
     objecttolerance="10"
     gridtolerance="10"
     guidetolerance="10"
     inkscape:pageopacity="0"
     inkscape:pageshadow="2"
     inkscape:window-width="1993"
     inkscape:window-height="1009"
     id="namedview4"
     showgrid="false"
     inkscape:zoom="0.5"
     inkscape:cx="9"
     inkscape:cy="8"
     inkscape:window-x="-8"
     inkscape:window-y="-8"
     inkscape:window-maximized="1"
     inkscape:current-layer="TRISTOQUADS"
     inkscape:showpageshadow="0"
     inkscape:pagecheckerboard="true"
     inkscape:deskcolor="#d1d1d1" />
  <g
     id="TRISTOQUADS"
     transform="matrix(100,0,0,100,0,4.9999997e-5)"
     style="stroke-width:0.0114286">
    <path
       style="fill:none;stroke-width:0.000357143"
       d="M 0,8 V 0 h 8 8 v 8 8 H 8 0 Z m 11.11716,5.765208 c 2.079198,-1.038528 3.055507,-1.541845 3.09965,-1.597964 0.03627,-0.04612 0.06444,-0.128179 0.06444,-0.187753 0,-0.06314 0.03467,-0.158218 0.08594,-0.235691 0.06579,-0.09942 0.08594,-0.167556 0.08594,-0.290675 0,-0.123119 -0.02014,-0.191254 -0.08594,-0.290675 L 14.28125,11.03259 V 7.4705194 c 0,-3.4692956 0.0015,-3.5628991 0.05946,-3.5938903 0.07767,-0.041569 0.190544,-0.2768585 0.190544,-0.3972053 0,-0.1583747 -0.127427,-0.35803 -0.280001,-0.4387132 C 14.119481,2.9710299 14.089897,2.96875 13.31749,2.96875 H 12.519811 L 10.303307,1.859375 C 9.0842287,1.2492187 8.0567244,0.7498255 8.0199634,0.74961225 7.9832022,0.74939975 6.9530191,1.2486177 5.7306672,1.8589872 L 3.5082097,2.96875 H 2.7277699 c -0.7544111,0 -0.7849781,0.0024 -0.9165192,0.071961 -0.09301,0.049185 -0.1588551,0.1150297 -0.2080401,0.20804 -0.1025742,0.1939703 -0.093227,0.348254 0.037414,0.6175521 L 1.75,4.0917634 v 3.9967791 c 0,3.9865975 1.625e-4,3.9969875 0.064292,4.0785135 0.073102,0.09293 6.0897759,3.114194 6.2017469,3.114194 0.036251,0 1.4317556,-0.682219 3.1011211,-1.516042 z"
       id="path827"
       inkscape:connector-curvature="0" />
    <path
       style="fill:#98cbfe;stroke-width:0.000357143"
       d="M 5.2090531,5.3160106 C 3.3045613,4.3581922 2.9873574,4.1889734 2.9325468,4.1015625 L 2.8688624,4 H 8.1598222 13.450782 L 11.123828,5.1640625 C 9.8440041,5.8042969 8.7731034,6.3379088 8.7440494,6.3498669 8.7072278,6.3650216 8.6314869,6.3235397 8.4940494,6.2129459 8.2500947,6.01664 8.1163434,5.9574903 7.9629331,5.9780669 7.7776331,6.0029209 7.6351091,6.1097281 7.5554037,6.2834691 7.5165391,6.3681859 7.4705959,6.4355641 7.4533078,6.4331981 7.4360197,6.4308325 6.426105,5.9280975 5.2090531,5.3160106 Z M 4.7554622,2.9528713 c 0.00873,-0.00873 0.7462915,-0.3805115 1.6390184,-0.8261737 l 1.62314,-0.8102949 1.6212978,0.8104483 c 0.8917136,0.4457465 1.6283736,0.8175247 1.6370226,0.8261736 0.0086,0.00865 -1.4584932,0.015725 -3.260316,0.015725 -1.8018228,0 -3.2688963,-0.00715 -3.2601628,-0.015878 z"
       id="path825"
       inkscape:connector-curvature="0" />
    <path
       style="fill:#6598cb;stroke-width:0.000357143"
       d="m 8.5166434,14.351563 c -0.01176,-0.04727 -0.066019,-0.15625 -0.120575,-0.242188 l -0.099193,-0.15625 -0.00824,-3.292197 -0.00824,-3.2921964 0.1019857,0.086018 c 0.1501253,0.1266209 1.4736375,1.2273975 2.2113609,1.8392078 1.379155,1.1437646 1.547242,1.2850036 1.557731,1.3089236 0.006,0.01362 0.181752,0.166512 0.390625,0.33977 0.208873,0.173257 0.549943,0.456224 0.757933,0.628815 l 0.378164,0.313802 -2.554365,1.276116 C 9.7189378,13.863248 8.5623978,14.4375 8.5537497,14.4375 c -0.00865,0 -0.025346,-0.03867 -0.037106,-0.08594 z M 4.8125,13.115403 2.296875,11.857392 2.2889222,8.4691806 c -0.00464,-1.97731 0.00361,-3.3757903 0.019822,-3.3583834 0.027654,0.029697 0.1439197,0.2414222 0.3939116,0.7173278 0.072228,0.1375 0.173808,0.3273437 0.2257324,0.421875 0.051924,0.094531 0.1384976,0.2527344 0.1923848,0.3515625 0.053887,0.098828 0.1382623,0.2535156 0.1874998,0.34375 C 3.3575109,7.0355469 3.4435313,7.19375 3.4994294,7.296875 3.5553275,7.4 3.6256313,7.5195312 3.6556603,7.5625 c 0.030029,0.042969 0.1038175,0.1695312 0.163975,0.28125 0.1132641,0.2103431 0.1835638,0.3395506 0.5908416,1.0859375 0.1139743,0.2088725 0.2502631,0.458735 0.375,0.6875 0.053887,0.098828 0.13636,0.25 0.1832731,0.3359375 0.046913,0.085938 0.1274841,0.233594 0.1790466,0.328125 0.051562,0.09453 0.1398381,0.25625 0.1961681,0.359375 0.05633,0.103125 0.1615025,0.3 0.2337169,0.4375 0.072214,0.1375 0.1756847,0.330859 0.2299337,0.429688 0.106186,0.193443 0.2037453,0.372093 0.5631578,1.03125 0.053888,0.09883 0.1401644,0.257031 0.1917269,0.351562 0.051563,0.09453 0.1359375,0.249219 0.1875,0.34375 0.1584819,0.29055 0.26834,0.491841 0.375215,0.6875 0.2130125,0.389967 0.2442603,0.453103 0.2238728,0.452332 C 7.3375581,14.37377 6.1960937,13.807308 4.8125,13.115403 Z M 7.7000959,12.82079 C 7.6812425,12.790449 7.6163553,12.674219 7.5559022,12.5625 7.4533559,12.372992 7.3872347,12.251499 7.1604769,11.835938 7.1112391,11.745703 7.0249619,11.5875 6.96875,11.484375 6.9125381,11.38125 6.8243591,11.219531 6.7727966,11.125 6.7212336,11.03047 6.6368591,10.875781 6.5852966,10.78125 6.5337336,10.68672 6.4493591,10.532031 6.3977966,10.4375 6.3462336,10.34297 6.2618591,10.188281 6.2102966,10.09375 6.1587341,9.9992188 6.0743591,9.8445312 6.0227966,9.75 5.9712341,9.6554688 5.8887609,9.5042969 5.8395231,9.4140625 5.7902856,9.3238281 5.7097144,9.1761719 5.6604769,9.0859375 5.6112391,8.9957031 5.5268641,8.8410156 5.4729769,8.7421875 5.4190894,8.6433594 5.3309106,8.4816406 5.2770231,8.3828125 5.2231359,8.2839844 5.1387609,8.1292969 5.0895231,8.0390625 4.8699056,7.6365859 4.7981478,7.5047066 4.7111928,7.34375 4.6601231,7.2492187 4.6072741,7.1578125 4.59375,7.140625 4.5802259,7.1234375 4.5273769,7.0320312 4.4763072,6.9375 4.3878825,6.7738234 4.2826862,6.5804766 4.09375,6.234375 4.0468369,6.1484375 3.9643641,5.9972656 3.9104769,5.8984375 3.8565894,5.7996094 3.7703125,5.6414062 3.71875,5.546875 3.6671875,5.4523437 3.5835019,5.2986138 3.5327822,5.2052525 l -0.092218,-0.1697472 0.18006,0.08381 c 0.5506575,0.2563066 4.10697,2.0549109 4.1174356,2.0823922 0.00684,0.017967 0.00881,1.3020234 0.00438,2.8534575 -0.00589,2.062306 -0.01728,2.805957 -0.042342,2.765625 z M 13.390625,10.308913 C 13.201563,10.152725 12.969531,9.9524166 12.875,9.8637825 12.780469,9.7751484 12.541406,9.5684425 12.34375,9.4044363 11.673867,8.8485972 10.671829,8.0181031 9.9139728,7.390625 9.4987981,7.046875 9.1593613,6.7585937 9.1596681,6.75 9.1599806,6.7414062 10.192926,6.2202075 11.455113,5.5917809 L 13.75,4.4491866 v 3.0722818 c 0,1.6897547 -0.0035,3.0720886 -0.0078,3.0718516 -0.0043,-2.5e-4 -0.1625,-0.12822 -0.351563,-0.284407 z"
       id="path823"
       inkscape:connector-curvature="0" />
    <path
       style="fill:#00fe00;stroke-width:0.000357143"
       d="M 7.7876162,14.902244 C 7.6529747,14.835598 7.5489487,14.721834 7.4626647,14.546875 7.4372359,14.495313 7.3719522,14.372266 7.3175903,14.273438 7.2229903,14.101459 7.1589925,13.984399 6.9417269,13.585938 6.8878394,13.487109 6.8015625,13.328906 6.75,13.234375 6.6984375,13.139844 6.6121606,12.981641 6.5582731,12.882813 6.5043859,12.783984 6.4219131,12.632813 6.375,12.546875 6.3280869,12.460938 6.2456141,12.309766 6.1917269,12.210938 5.9874722,11.836339 5.9116287,11.69752 5.8118419,11.515625 c -0.056574,-0.103125 -0.161946,-0.3 -0.2341603,-0.4375 -0.072214,-0.1375 -0.1773872,-0.334375 -0.2337169,-0.4375 C 5.1524103,10.28994 5.0183194,10.044217 4.7854769,9.6171875 4.7315894,9.5183594 4.6453125,9.3601562 4.59375,9.265625 4.5421875,9.1710938 4.4559106,9.0128906 4.4020231,8.9140625 4.3481359,8.8152344 4.2656631,8.6640625 4.21875,8.578125 4.0054406,8.1873756 3.9215219,8.0329638 3.8196353,7.84375 3.7594778,7.7320313 3.6856891,7.6054687 3.6556603,7.5625 3.6256313,7.5195312 3.5572294,7.4035156 3.5036559,7.3046875 3.3537347,7.0281237 3.0815164,6.5290725 2.9326152,6.2578125 2.8783661,6.1589844 2.7748959,5.965625 2.7026815,5.828125 2.6304671,5.690625 2.5290985,5.5007812 2.477418,5.40625 2.4257375,5.3117187 2.3412659,5.1570312 2.2897034,5.0625 2.2381409,4.9679687 2.1537659,4.8132812 2.1022034,4.71875 2.0506409,4.6242187 1.9620438,4.4625 1.9053208,4.359375 1.6035839,3.8108034 1.53125,3.6480188 1.53125,3.5175431 c 0,-0.194914 0.1139972,-0.3890478 0.2800007,-0.4768325 L 1.9473302,2.96875 H 8.03125 14.11517 l 0.136079,0.071961 c 0.154321,0.081607 0.280001,0.2807478 0.280001,0.4436644 0,0.1629166 -0.12568,0.3620575 -0.280001,0.4436644 L 14.11517,4 H 8.4954659 2.8757622 l 0.089142,0.1640625 c 0.049028,0.090234 0.1332318,0.2449219 0.1871188,0.34375 0.053888,0.098828 0.1420663,0.2605469 0.1959538,0.359375 0.053887,0.098828 0.1382622,0.2535156 0.1875,0.34375 0.049238,0.090234 0.1298087,0.2378906 0.1790462,0.328125 0.049238,0.090234 0.135515,0.2484375 0.1917269,0.3515625 0.056212,0.103125 0.1424891,0.2613281 0.1917269,0.3515625 0.2337503,0.4283769 0.2836765,0.5201275 0.3741034,0.6875 0.053394,0.098828 0.1081456,0.19375 0.1216697,0.2109375 0.013524,0.017188 0.066373,0.1085937 0.1174428,0.203125 0.088425,0.1636766 0.193621,0.3570234 0.3825572,0.703125 0.09371,0.1716628 0.2200756,0.4033106 0.3707731,0.6796875 0.053888,0.098828 0.1382625,0.2535156 0.1875,0.34375 0.049238,0.090234 0.131711,0.2414063 0.1832735,0.3359375 0.051562,0.094531 0.1359375,0.2492188 0.1875,0.34375 0.051562,0.094531 0.1397415,0.25625 0.1959534,0.359375 0.056212,0.103125 0.1424891,0.261328 0.1917269,0.351563 0.049238,0.09023 0.1336125,0.244921 0.1875,0.34375 0.053887,0.09883 0.13636,0.25 0.1832731,0.335937 0.046913,0.08594 0.1312881,0.240625 0.1875,0.34375 0.056212,0.103125 0.1405869,0.257813 0.1875,0.34375 0.046913,0.08594 0.1293859,0.237109 0.1832731,0.335938 0.053888,0.09883 0.1401644,0.257031 0.1917269,0.351562 0.051563,0.09453 0.1340356,0.245703 0.1832731,0.335938 0.049238,0.09023 0.1336128,0.244921 0.1875,0.34375 0.1368525,0.250984 0.2597016,0.4761 0.3794419,0.695312 0.2281984,0.417769 0.249785,0.466358 0.249785,0.562239 0,0.163156 -0.1255891,0.36227 -0.2800006,0.443925 -0.1691806,0.08947 -0.291016,0.0909 -0.4636332,0.0055 z m 5.9611788,-2.988753 c -0.05949,-0.03039 -0.27692,-0.196422 -0.48317,-0.368952 -0.20625,-0.172531 -0.533515,-0.444783 -0.727257,-0.605005 -0.19374,-0.160223 -0.36249,-0.307374 -0.375,-0.327003 -0.01251,-0.01963 -0.226649,-0.2048 -0.475868,-0.411489 C 11.438281,9.9943522 10.946094,9.5862056 10.59375,9.2940494 10.241406,9.0018931 9.5804688,8.4534447 9.125,8.075275 8.6695313,7.697105 8.1458331,7.2629831 7.9612259,7.1105591 7.4990869,6.7289859 7.4156684,6.5443034 7.5719606,6.2487506 c 0.049185,-0.09301 0.1150297,-0.158855 0.20804,-0.20804 0.2666891,-0.1410284 0.4019316,-0.090362 0.9301097,0.3484488 1.1830128,0.9828478 2.7141507,2.2533894 3.6336397,3.0152018 0.197656,0.1637616 0.408594,0.3454282 0.46875,0.4037038 0.10247,0.099266 0.281806,0.250871 1.168673,0.987953 0.487113,0.404845 0.574433,0.592405 0.415616,0.892731 -0.04918,0.09301 -0.115029,0.158855 -0.20804,0.20804 -0.163061,0.08623 -0.294116,0.0912 -0.439954,0.0167 z"
       id="path821"
       inkscape:connector-curvature="0" />
    <path
       style="fill:#323232;stroke-width:0.000357143"
       d="M 4.9060787,13.757813 C 2.8106575,12.708998 1.8448459,12.210035 1.8060282,12.15625 1.7522829,12.081781 1.7500182,11.891037 1.7576347,8.0803347 L 1.765625,4.0825441 1.8516,4.2522097 c 0.1268807,0.2503897 0.3005069,0.5649734 0.3609806,0.6540403 0.048856,0.071957 0.054278,0.349465 0.068669,3.5146869 l 0.015625,3.4365611 2.546435,1.27226 2.5464347,1.272259 0.093859,0.179215 c 0.104359,0.199264 0.275264,0.343375 0.444975,0.375212 0.2429593,0.04558 0.5112225,-0.128561 0.5770187,-0.374566 l 0.034765,-0.12998 2.55776,-1.277826 2.55776,-1.277825 0.120997,0.03625 c 0.168669,0.05053 0.254283,0.04549 0.388388,-0.02288 l 0.115983,-0.05913 v 0.117416 c 0,0.07128 -0.02532,0.14961 -0.06444,0.19934 -0.07332,0.09321 -6.0886699,3.114006 -6.2009621,3.114006 -0.036356,0 -1.4357525,-0.685547 -3.1097694,-1.523437 z m 3.3088257,0.01563 C 8.1943925,13.734766 8.1395497,13.632813 8.0930316,13.546875 8.0465138,13.460938 7.9628653,13.30625 7.9071462,13.203125 7.8514272,13.1 7.7933487,13.00021 7.7780831,12.98137 7.7624866,12.962122 7.7468328,11.6827 7.7423509,10.06089 L 7.734375,7.1746644 5.5800988,6.0951447 3.4258222,5.015625 3.3218913,4.828125 C 3.2647294,4.725 3.2046834,4.6096681 3.1884563,4.5718319 3.1722291,4.5339956 3.1221728,4.4447763 3.0772203,4.3735669 c -0.044953,-0.07121 -0.075903,-0.1353003 -0.06878,-0.1424241 0.00712,-0.00712 1.0203562,0.4899081 2.2516277,1.104515 1.8009831,0.8989869 2.2387985,1.1292853 2.2393038,1.1779134 0.0016,0.1542535 0.1326162,0.3251832 0.4540415,0.5923754 L 8.28125,7.3784681 v 3.2326409 c 0,1.777953 -0.00654,3.232641 -0.014526,3.232641 -0.00799,0 -0.031308,-0.03164 -0.05182,-0.07031 z M 14.009086,10.819903 13.752546,10.60938 13.751246,7.5292694 13.75,4.4491541 11.450101,5.5992744 9.1502013,6.7493947 8.9657272,6.6044638 C 8.7755663,6.4550647 8.7007619,6.38102 8.7221094,6.3633194 8.7288553,6.3577259 9.7880928,5.8272063 11.07597,5.1843872 L 13.417565,4.015625 13.79472,3.9977194 c 0.207435,-0.00985 0.401764,-0.028931 0.431843,-0.042406 0.05191,-0.023254 0.05469,0.1560575 0.05469,3.5257182 0,1.9526203 -0.0035,3.5500314 -0.0078,3.5498034 -0.0043,-2.19e-4 -0.123256,-0.09515 -0.264352,-0.210937 z M 5.73241,1.8585889 C 6.9516416,1.248865 7.98003,0.75 8.0177172,0.75 8.0554042,0.75 9.07582,1.2457031 10.285307,1.8515625 L 12.484375,2.953125 11.90469,2.961605 11.325005,2.970085 9.6713122,2.1431444 8.0176191,1.3162056 6.3630803,2.1424778 4.7085416,2.96875 4.1120831,2.9679639 3.515625,2.9671778 Z"
       id="path819"
       inkscape:connector-curvature="0" />
  </g>
</svg>
