<?xml version="1.0" encoding="UTF-8" standalone="no"?>
<!-- Created with Inkscape (http://www.inkscape.org/) -->

<svg
   version="1.1"
   id="svg2"
   width="1600"
   height="1600"
   viewBox="0 0 1600 1600"
   sodipodi:docname="uncomment.svg"
   inkscape:version="1.2.2 (732a01da63, 2022-12-09)"
   xmlns:inkscape="http://www.inkscape.org/namespaces/inkscape"
   xmlns:sodipodi="http://sodipodi.sourceforge.net/DTD/sodipodi-0.dtd"
   xmlns="http://www.w3.org/2000/svg"
   xmlns:svg="http://www.w3.org/2000/svg"
   xmlns:rdf="http://www.w3.org/1999/02/22-rdf-syntax-ns#"
   xmlns:cc="http://creativecommons.org/ns#"
   xmlns:dc="http://purl.org/dc/elements/1.1/">
  <metadata
     id="metadata8">
    <rdf:RDF>
      <cc:Work
         rdf:about="">
        <dc:format>image/svg+xml</dc:format>
        <dc:type
           rdf:resource="http://purl.org/dc/dcmitype/StillImage" />
      </cc:Work>
    </rdf:RDF>
  </metadata>
  <defs
     id="defs6" />
  <sodipodi:namedview
     pagecolor="#808080"
     bordercolor="#666666"
     borderopacity="1"
     objecttolerance="10"
     gridtolerance="10"
     guidetolerance="10"
     inkscape:pageopacity="0"
     inkscape:pageshadow="2"
     inkscape:window-width="2560"
     inkscape:window-height="1009"
     id="namedview4"
     showgrid="false"
     inkscape:zoom="0.5"
     inkscape:cx="1172"
     inkscape:cy="514"
     inkscape:window-x="-8"
     inkscape:window-y="-8"
     inkscape:window-maximized="1"
     inkscape:current-layer="UNCOMMENT"
     inkscape:showpageshadow="0"
     inkscape:pagecheckerboard="true"
     inkscape:deskcolor="#d1d1d1" />
  <g
     id="UNCOMMENT"
     transform="matrix(99.974768,0,0,99.974768,0.40371861,0)"
     style="stroke-width:0.0100026">
    <path
       style="fill:none;stroke-width:0.000312579"
       d="M 0.00149176,11.085938 C 0.00286045,6.5773069 0.00703789,6.1834634 0.05212479,6.3123316 0.15970271,6.6198131 0.38653941,6.844055 0.69640459,6.9492409 0.82698191,6.9935666 1.055818,7 2.5018728,7 4.0559931,7 4.1683316,6.9963 4.3289056,6.939865 c 0.1688513,-0.059347 0.1733375,-0.059347 0.3421888,0 C 4.8289147,6.9953347 4.9385869,7 6.0847309,7 H 7.3272731 L 4.6672141,9.6640625 C 2.1333632,12.201727 2.0037135,12.337021 1.9346197,12.515625 c -0.1029965,0.266241 -0.1023431,0.67451 0.0015,0.9375 0.1016309,0.257387 0.3846181,0.540374 0.642005,0.642005 0.2632265,0.103937 0.6713953,0.104516 0.9375,0.0013 0.1763359,-0.06838 0.2855712,-0.170513 1.8345869,-1.715367 l 1.6470868,-1.642662 0.00916,1.263598 0.00916,1.263597 0.077379,0.15625 c 0.1483647,0.299588 0.4523315,0.524301 0.7676853,0.567525 L 8,14.008497 v 0.572785 c 0,0.446416 0.011198,0.605775 0.050759,0.722315 0.1051859,0.309865 0.3294278,0.536702 0.6369093,0.64428 0.1289972,0.04513 -0.2196718,0.04926 -4.2736059,0.05063 L 0,16 Z M 11.312332,15.947875 c 0.302198,-0.105729 0.54219,-0.345616 0.631249,-0.630973 0.02221,-0.07117 0.0476,-0.129402 0.05642,-0.129402 0.0088,0 0.03421,0.05823 0.05642,0.129402 0.08906,0.285357 0.329051,0.525244 0.631249,0.630973 0.134296,0.04699 0.10413,0.04914 -0.687668,0.04914 -0.791798,0 -0.821964,-0.0022 -0.687668,-0.04914 z m 4,0 c 0.07725,-0.02703 0.199897,-0.09004 0.272548,-0.140022 0.153678,-0.105734 0.293309,-0.296343 0.362995,-0.495521 l 0.04914,-0.140457 0.0015,0.414063 L 16,16 15.585938,15.9985 15.171875,15.997 15.312332,15.94786 Z M 15.943581,9.6830978 C 15.853218,9.3935647 15.61234,9.1555647 15.303595,9.0507591 15.173018,9.0064334 14.944182,9 13.498127,9 c -1.55412,0 -1.666459,0.0037 -1.827033,0.060135 -0.168851,0.059347 -0.173337,0.059347 -0.342188,0 C 11.17137,9.0047653 11.061823,9 9.9465191,9 H 8.7352269 L 11.395286,6.3359375 C 13.929137,3.7982731 14.058787,3.6629791 14.12788,3.484375 14.230877,3.2181344 14.230223,2.8098654 14.12638,2.546875 14.024749,2.2894881 13.741762,2.0065009 13.484375,1.90487 13.22116,1.8009379 12.812986,1.8003553 12.546875,1.9035319 12.370428,1.9719441 12.260439,2.0749056 10.68101,3.6501896 L 9.0026444,5.32415 8.9935097,4.0292625 8.984375,2.734375 8.9069956,2.578125 C 8.7586309,2.2785365 8.4546641,2.0538234 8.1393103,2.0105994 L 8,1.9915047 V 1.4187195 C 8,0.97230347 7.9888016,0.81294462 7.9492409,0.69640459 7.844055,0.38653941 7.6198131,0.15970271 7.3123316,0.05212479 7.1833344,0.00699279 7.5320034,0.00286182 11.585938,0.00149176 L 16,0 v 4.90625 c 0,2.6984375 -0.0036,4.90625 -0.008,4.90625 -0.0044,0 -0.02619,-0.058231 -0.0484,-0.1294022 z M 0.00149176,0.4140625 0,0 0.4140625,0.00149176 0.828125,0.00298352 0.68766837,0.05212479 C 0.38441538,0.15822328 0.15822328,0.38441538 0.05212479,0.68766837 L 0.00298352,0.828125 Z M 3.9435812,0.68309781 C 3.8545216,0.39774081 3.61453,0.15785433 3.3123316,0.05212479 3.1780363,0.00513919 3.2082022,0.00298352 4,0.00298352 c 0.7917978,0 0.8219637,0.00215567 0.6876684,0.04914127 C 4.38547,0.15785433 4.1454784,0.39774081 4.0564187,0.68309781 4.0342063,0.754269 4.0088178,0.8125 4,0.8125 3.99118,0.8125 3.965794,0.754269 3.9435812,0.68309781 Z"
       id="path827"
       inkscape:connector-curvature="0" />
    <path
       style="fill:#fefefe;stroke-width:0.000312579"
       d="M 9,14.5 V 14 H 9.5 10 V 13.5 13 H 9 8 V 11.5 10 H 9.5 11 V 12.5 15 H 10 9 Z m 4,0 V 14 H 13.5 14 V 13.5 13 H 13 12 V 11.5 10 H 13.5 15 V 12.5 15 H 14 13 Z M 1,3.5 V 1 H 2 3 V 1.5 2 H 2.5 2 V 2.5 3 H 3 4 V 4.5 6 H 2.5 1 Z m 4,0 V 1 H 6 7 V 1.5 2 H 6.5 6 V 2.5 3 H 7 8 V 4.5 6 H 6.5 5 Z"
       id="path825"
       inkscape:connector-curvature="0" />
    <path
       style="fill:#fe0000;stroke-width:0.000312579"
       d="M 2.8346027,13.638496 C 2.5102681,13.535817 2.294638,13.165854 2.3743402,12.848812 c 0.020144,-0.08013 0.06304,-0.187875 0.095326,-0.239437 0.032286,-0.05156 2.3339594,-2.367376 5.1148301,-5.1462516 l 5.0561287,-5.0525018 0.182438,-0.052078 c 0.150958,-0.043092 0.207578,-0.04585 0.328125,-0.015989 0.291048,0.072098 0.463324,0.244545 0.536972,0.5375067 0.03046,0.1211654 0.02786,0.1763937 -0.01545,0.328125 L 13.620629,3.390625 8.5525022,8.4616388 C 5.1242656,11.891828 3.4439288,13.552217 3.359375,13.593116 3.18207,13.67888 3.0093443,13.693817 2.8346027,13.638496 Z"
       id="path823"
       inkscape:connector-curvature="0" />
    <path
       style="fill:#7f0000;stroke-width:0.000312579"
       d="M 2.6823866,14.129393 C 2.4437626,14.050575 2.3106485,13.963756 2.1436649,13.77803 1.940002,13.551508 1.8620845,13.331892 1.8620845,12.984375 c 0,-0.219137 0.015972,-0.322658 0.072322,-0.46875 0.06961,-0.180468 0.266462,-0.38164 5.2486452,-5.3638231 4.9821833,-4.9821832 5.1833553,-5.1790355 5.3638233,-5.2486452 0.266412,-0.1027599 0.674805,-0.1020135 0.9375,0.00171 0.257387,0.1016309 0.540374,0.3846181 0.642005,0.642005 0.103727,0.2626951 0.104473,0.6710884 0.0017,0.9375 -0.0696,0.1804712 -0.26645,0.3816431 -5.2486328,5.3638265 -5.0202616,5.0202628 -5.181975,5.1784338 -5.3638222,5.2463398 -0.2590369,0.09673 -0.6024221,0.111094 -0.8332384,0.03486 z M 3.359375,13.593116 c 0.084554,-0.0409 1.7648906,-1.701288 5.1931272,-5.1314772 L 13.620629,3.390625 13.672707,3.2081866 C 13.716019,3.0564553 13.71862,3.001227 13.68816,2.8800616 13.614512,2.5870999 13.442236,2.4146527 13.151188,2.3425549 13.030641,2.3126931 12.974021,2.3154521 12.823063,2.3585436 L 12.640625,2.4106216 7.5844966,7.4631234 C 4.8036259,10.241999 2.5019524,12.557813 2.4696665,12.609375 c -0.1746874,0.278986 -0.1368393,0.629702 0.092729,0.859271 0.2144201,0.21442 0.5142216,0.261242 0.7969795,0.12447 z"
       id="path821"
       inkscape:connector-curvature="0" />
    <path
       style="fill:#000000;stroke-width:0.000312579"
       d="M 8.6876684,15.947875 C 8.3801869,15.840297 8.155945,15.613461 8.0507591,15.303595 8.0111984,15.187055 8,15.027697 8,14.581281 V 14.008495 L 7.8606897,13.989401 C 7.5453359,13.946177 7.2413691,13.721463 7.0930044,13.421875 L 7.015625,13.265625 7.0064603,12.001558 6.9972959,10.737492 7.8656262,9.8687459 8.7339566,9 h 1.2119275 c 1.1159299,0 1.2254799,0.00476 1.3830219,0.060135 0.16917,0.059458 0.173051,0.059447 0.345074,-0.00102 0.165822,-0.058282 0.254115,-0.060735 1.882813,-0.052322 l 1.708832,0.00883 0.15625,0.077379 c 0.199213,0.098656 0.386465,0.2859075 0.485121,0.4851206 l 0.07738,0.15625 V 12.5 15.265625 l -0.07738,0.15625 c -0.09866,0.199213 -0.285908,0.386465 -0.485121,0.485121 l -0.15625,0.07738 -1.201985,0.0092 c -1.042683,0.008 -1.222593,0.0025 -1.35748,-0.04163 -0.31307,-0.1024 -0.558306,-0.342097 -0.649741,-0.635067 C 12.034206,15.245731 12.008818,15.1875 12,15.1875 c -0.0088,0 -0.03421,0.05823 -0.05642,0.129402 -0.09036,0.289533 -0.331241,0.527533 -0.639986,0.632339 -0.218633,0.07422 -2.4031547,0.07308 -2.6159266,-0.0014 z M 11,12.5 V 10 H 9.5 8 v 1.5 1.5 h 1 1 V 13.5 14 H 9.5 9 v 0.5 0.5 h 1 1 z m 4,0 V 10 H 13.5 12 v 1.5 1.5 h 1 1 V 13.5 14 H 13.5 13 v 0.5 0.5 h 1 1 z M 0.68766837,6.9478753 C 0.37704522,6.8391981 0.15051685,6.6077709 0.04859426,6.2949806 0.00365819,6.1570762 -7.7906594e-4,5.852525 0.00696128,3.4375 L 0.015625,0.734375 0.0930044,0.578125 C 0.19166038,0.37891184 0.37891184,0.19166038 0.578125,0.0930044 L 0.734375,0.015625 1.9363598,0.00639788 C 2.9790429,-0.00160635 3.1589528,0.00391136 3.2938403,0.04803086 3.6069097,0.15043066 3.8521459,0.39012834 3.9435812,0.68309781 3.9657938,0.754269 3.9911822,0.8125 4,0.8125 4.00882,0.8125 4.034206,0.754269 4.056419,0.68309781 4.1478541,0.39012834 4.3930903,0.15043066 4.7061597,0.04803086 4.8410472,0.00391136 5.0209572,-0.00160635 6.0636403,0.00639788 L 7.265625,0.015625 7.421875,0.0930044 c 0.1993669,0.09873212 0.3866022,0.2860571 0.4848887,0.4851206 0.072964,0.14777825 0.077706,0.19034703 0.08745,0.7851244 l 0.010303,0.6288744 0.1370521,0.018785 c 0.3130788,0.042912 0.6174932,0.268497 0.7654272,0.5672161 l 0.077379,0.15625 0.00914,1.2953375 0.00914,1.2953378 L 8.1656031,6.162525 7.3285591,7 H 6.0853738 C 4.9385953,7 4.8289206,6.99534 4.6710944,6.939865 4.5022431,6.880518 4.4977569,6.880518 4.3289056,6.939865 4.1680625,6.996397 4.0580625,6.99991 2.4929682,6.998508 1.0620163,6.997228 0.80839247,6.990108 0.68766837,6.9478753 Z M 4,4.5 V 3 H 3 2 V 2.5 2 H 2.5 3 V 1.5 1 H 2 1 V 3.5 6 H 2.5 4 Z m 4,0 V 3 H 7 6 V 2.5 2 H 6.5 7 V 1.5 1 H 6 5 V 3.5 6 H 6.5 8 Z"
       id="path819"
       inkscape:connector-curvature="0" />
  </g>
</svg>
