<?xml version="1.0" encoding="UTF-8" standalone="no"?>
<!-- Created with Inkscape (http://www.inkscape.org/) -->

<svg
   version="1.1"
   id="svg2"
   width="1600"
   height="1600"
   viewBox="0 0 1600 1600"
   sodipodi:docname="underlined.svg"
   inkscape:version="1.2.2 (732a01da63, 2022-12-09)"
   xmlns:inkscape="http://www.inkscape.org/namespaces/inkscape"
   xmlns:sodipodi="http://sodipodi.sourceforge.net/DTD/sodipodi-0.dtd"
   xmlns="http://www.w3.org/2000/svg"
   xmlns:svg="http://www.w3.org/2000/svg"
   xmlns:rdf="http://www.w3.org/1999/02/22-rdf-syntax-ns#"
   xmlns:cc="http://creativecommons.org/ns#"
   xmlns:dc="http://purl.org/dc/elements/1.1/">
  <metadata
     id="metadata8">
    <rdf:RDF>
      <cc:Work
         rdf:about="">
        <dc:format>image/svg+xml</dc:format>
        <dc:type
           rdf:resource="http://purl.org/dc/dcmitype/StillImage" />
      </cc:Work>
    </rdf:RDF>
  </metadata>
  <defs
     id="defs6" />
  <sodipodi:namedview
     pagecolor="#808080"
     bordercolor="#666666"
     borderopacity="1"
     objecttolerance="10"
     gridtolerance="10"
     guidetolerance="10"
     inkscape:pageopacity="0"
     inkscape:pageshadow="2"
     inkscape:window-width="1993"
     inkscape:window-height="1009"
     id="namedview4"
     showgrid="false"
     inkscape:zoom="0.5"
     inkscape:cx="9"
     inkscape:cy="8"
     inkscape:window-x="-8"
     inkscape:window-y="-8"
     inkscape:window-maximized="1"
     inkscape:current-layer="UNDERLINED"
     inkscape:showpageshadow="0"
     inkscape:pagecheckerboard="true"
     inkscape:deskcolor="#d1d1d1" />
  <g
     id="UNDERLINED"
     transform="matrix(100,0,0,100,0,4.9999997e-5)"
     style="stroke-width:0.0114286">
    <path
       style="fill:none;stroke-width:0.000357143"
       d="M 0,8 V 0 h 8 8 v 8 8 H 8 0 Z m 14.96875,6 V 13.03125 H 8 1.03125 v 0.947917 c 0,0.521354 0.00937,0.957291 0.020833,0.96875 0.011458,0.01146 3.1473958,0.02083 6.9687501,0.02083 H 14.96875 Z M 7.140625,12.373842 c 0.8711881,-0.0988 1.5507256,-0.464777 2.0866006,-1.123778 0.1242447,-0.152792 0.2413719,-0.278593 0.2602825,-0.279558 0.040181,-0.0021 0.074992,0.412786 0.074992,0.89367 V 12.1875 h 0.6892429 0.689244 L 10.929236,9.2421875 C 10.916198,5.97429 10.928986,6.1862084 10.701716,5.46875 10.300118,4.2009091 9.3670219,3.481 7.9046563,3.3107428 7.4907725,3.2625559 6.4646381,3.2889831 6.078125,3.3577837 5.4542097,3.4688425 4.3814197,3.7678234 4.2881262,3.8566472 c -0.029831,0.028402 -0.03991,0.1916584 -0.03965,0.6422134 1.875e-4,0.3322722 0.0046,0.6083791 0.00979,0.613571 0.00519,0.00519 0.152845,-0.052347 0.3281178,-0.1278635 C 5.018445,4.7984128 5.5055744,4.6443962 5.9375,4.5573825 c 0.3112816,-0.062709 0.45138,-0.072351 1.046875,-0.072048 0.6102569,3.125e-4 0.7190994,0.00831 0.96875,0.071201 0.8127372,0.2047413 1.3338025,0.6856706 1.5163925,1.3995897 0.03529,0.1379844 0.061732,0.3446625 0.061732,0.4825159 v 0.2411436 l -1.242187,0.021091 C 6.5275247,6.730785 6.1244709,6.7729716 5.4632381,6.9966459 4.4335022,7.3449737 3.8007194,8.0535078 3.6412588,9.0367366 3.4564919,10.176004 3.7763353,11.188331 4.5081331,11.780457 c 0.3641338,0.294634 0.9313428,0.53675 1.4137419,0.603463 0.1940906,0.02684 0.9481819,0.02061 1.21875,-0.01008 z M 6.3148706,11.172992 C 5.6742281,11.051863 5.2034469,10.622283 5.0478644,10.016872 4.9876981,9.7827488 4.9864147,9.2882037 5.0453988,9.0665925 5.1502019,8.6728322 5.39722,8.33559 5.6903788,8.1860312 6.2592716,7.8958037 6.87945,7.8131822 8.4921875,7.8127672 L 9.53125,7.8125 9.5302844,8.1640625 C 9.5273644,9.2266963 9.2229663,10.020368 8.5955216,10.601286 8.3530094,10.825815 7.9310694,11.058046 7.6093744,11.14405 7.3492012,11.21361 6.6163362,11.22999 6.31487,11.17299 Z"
       id="path821"
       inkscape:connector-curvature="0" />
    <path
       style="fill:#fefefe;stroke-width:0.000357143"
       d="M 1.0520833,14.947917 C 1.040625,14.936458 1.03125,14.500521 1.03125,13.979167 V 13.03125 H 8 14.96875 V 14 14.96875 H 8.0208334 c -3.8213543,0 -6.9572917,-0.0094 -6.9687501,-0.02083 z M 5.921875,12.38392 C 5.7708222,12.363031 5.4666175,12.282575 5.28125,12.21449 4.2117363,11.821655 3.5936438,10.901709 3.5939163,9.703125 3.5941038,8.8114491 3.8198834,8.1801166 4.3159312,7.6840687 4.7267825,7.2732175 5.2641616,7.008145 6.0168091,6.8450775 6.4409669,6.7531803 6.8911453,6.7246112 8.2890625,6.7008759 L 9.53125,6.6797847 V 6.4386412 C 9.53125,5.9265275 9.3433784,5.4679503 8.985325,5.1060881 8.7255481,4.8435481 8.3960322,4.6681109 7.953125,4.5565356 7.7034744,4.493645 7.5946319,4.4856453 6.984375,4.4853347 6.38888,4.4850222 6.2487816,4.4946734 5.9375,4.5573825 5.5055744,4.6443962 5.018445,4.7984128 4.5863828,4.9845681 4.41111,5.060085 4.2634569,5.1176237 4.258265,5.1124316 4.253075,5.1072416 4.248665,4.8311328 4.248475,4.4988606 4.248225,4.0483056 4.258295,3.8850488 4.288125,3.8566472 4.38142,3.7678232 5.4542097,3.4688425 6.078125,3.3577838 6.4646381,3.2889831 7.4907725,3.2625559 7.9046563,3.3107428 9.3670219,3.481 10.300118,4.2009091 10.701716,5.46875 c 0.227259,0.7174584 0.214482,0.50554 0.22752,3.7734375 L 10.940987,12.1875 H 10.251743 9.5625 v -0.323324 c 0,-0.480884 -0.034811,-0.895722 -0.074992,-0.89367 -0.018911,9.65e-4 -0.1360378,0.126766 -0.2602825,0.279558 -0.535875,0.659001 -1.2154125,1.024979 -2.0866006,1.123778 -0.2705681,0.03068 -1.0246594,0.03692 -1.21875,0.01008 z m 1.6875,-1.23987 C 7.93107,11.058046 8.35301,10.825815 8.5955222,10.601286 9.2229669,10.020368 9.5273688,9.2266963 9.530285,8.1640625 L 9.53125,7.8125 8.4921875,7.8127812 C 6.87945,7.8131969 6.2592716,7.8958178 5.6903787,8.1860453 5.39722,8.3356041 5.1502019,8.6728462 5.0453987,9.0666066 c -0.058984,0.2216112 -0.057701,0.7161562 0.00247,0.9502794 0.1555825,0.605412 0.6263637,1.034991 1.2670062,1.15612 0.3014663,0.057 1.0343313,0.04061 1.2945044,-0.02894 z"
       id="path819"
       inkscape:connector-curvature="0" />
  </g>
</svg>
