<?xml version="1.0" encoding="UTF-8" standalone="no"?>
<!-- Created with Inkscape (http://www.inkscape.org/) -->

<svg
   version="1.1"
   id="svg2"
   width="1600"
   height="1600"
   viewBox="0 0 1600 1600"
   sodipodi:docname="uv_sync_select.svg"
   inkscape:version="1.2.2 (732a01da63, 2022-12-09)"
   xmlns:inkscape="http://www.inkscape.org/namespaces/inkscape"
   xmlns:sodipodi="http://sodipodi.sourceforge.net/DTD/sodipodi-0.dtd"
   xmlns="http://www.w3.org/2000/svg"
   xmlns:svg="http://www.w3.org/2000/svg"
   xmlns:rdf="http://www.w3.org/1999/02/22-rdf-syntax-ns#"
   xmlns:cc="http://creativecommons.org/ns#"
   xmlns:dc="http://purl.org/dc/elements/1.1/">
  <metadata
     id="metadata8">
    <rdf:RDF>
      <cc:Work
         rdf:about="">
        <dc:format>image/svg+xml</dc:format>
        <dc:type
           rdf:resource="http://purl.org/dc/dcmitype/StillImage" />
      </cc:Work>
    </rdf:RDF>
  </metadata>
  <defs
     id="defs6" />
  <sodipodi:namedview
     pagecolor="#808080"
     bordercolor="#666666"
     borderopacity="1"
     objecttolerance="10"
     gridtolerance="10"
     guidetolerance="10"
     inkscape:pageopacity="0"
     inkscape:pageshadow="2"
     inkscape:window-width="2560"
     inkscape:window-height="1009"
     id="namedview4"
     showgrid="false"
     inkscape:zoom="0.5"
     inkscape:cx="928"
     inkscape:cy="1254"
     inkscape:window-x="-8"
     inkscape:window-y="-8"
     inkscape:window-maximized="1"
     inkscape:current-layer="UV_SYNC_SELECT"
     inkscape:showpageshadow="0"
     inkscape:pagecheckerboard="true"
     inkscape:deskcolor="#d1d1d1" />
  <g
     id="UV_SYNC_SELECT"
     transform="matrix(99.937738,0,0,99.937738,0.00295813,-0.04536058)"
     style="stroke-width:0.0100062">
    <path
       style="fill:none;stroke-width:0.000312899"
       d="m 0,14.009121 v -2.001303 h 2.001303 2.001303 v -0.109446 c 0,-0.0602 0.010554,-0.109492 0.023453,-0.109548 0.012899,-6.2e-5 0.5159609,0.221574 1.1179153,0.492509 l 1.0944626,0.492609 h 0.2501629 0.2501628 l 0.8912053,-0.396415 0.8912052,-0.396414 0.015635,1.209444 c 0.016961,1.312016 0.013788,1.289405 0.1960426,1.397066 0.1074559,0.06347 0.302128,0.0683 0.3958174,0.0098 0.036198,-0.0226 0.4469448,-0.43861 0.9127709,-0.924473 0.465825,-0.485864 0.85609,-0.883195 0.867254,-0.882958 0.01116,2.5e-4 0.322838,0.655212 0.69261,1.455503 0.369772,0.800291 0.701986,1.483159 0.738254,1.517484 0.104948,0.09933 0.271273,0.132545 0.398176,0.07952 0.05914,-0.02471 0.488821,-0.271772 0.954838,-0.549022 0.639441,-0.380426 0.858914,-0.526543 0.89463,-0.595611 0.10806,-0.208963 0.08823,-0.2633 -0.593715,-1.626873 -0.352573,-0.704983 -0.641043,-1.295925 -0.641043,-1.313206 0,-0.02046 0.388361,-0.03142 1.113091,-0.03142 1.219665,0 1.226388,-9.51e-4 1.337394,-0.188868 0.06936,-0.117414 0.06514,-0.335971 -0.0087,-0.452175 -0.0328,-0.0516 -0.947401,-1.049582 -2.032456,-2.217747 L 11.788925,6.7436584 V 4.8217112 c 0,-1.368132 -0.01046,-1.9568506 -0.03629,-2.0430758 C 11.706527,2.6247415 11.539705,2.4290362 11.371968,2.3320599 11.300317,2.2906355 10.221499,1.8087803 8.9745931,1.2612705 L 6.7074921,0.26579805 H 6.4573292 6.2071663 l -1.06183,0.48033158 C 4.5613298,1.010312 4.0653037,1.2334462 4.0430561,1.2419833 4.0140159,1.2531271 4.002606,1.2212795 4.002606,1.1290785 V 1.0006515 H 2.001303 0 V 0.50032575 0 h 8.0049706 8.0049704 l -5e-6,7.9563202 c -6e-6,7.1742558 -0.0048,7.9611258 -0.0489,8.0052118 -0.04409,0.04409 -0.830929,0.04889 -8.0049652,0.04889 H 0 Z M 8.6534206,0.04364821 c -0.010391,-0.01039088 -0.037362,-0.0115018 -0.059935,-0.0024687 -0.024945,0.0099823 -0.017536,0.01739203 0.018893,0.0188925 0.032964,0.0013578 0.051433,-0.0060329 0.041042,-0.0164238 z m 0.2501629,0 c -0.010391,-0.01039088 -0.037362,-0.0115018 -0.059935,-0.0024687 -0.024945,0.0099823 -0.017536,0.01739203 0.018893,0.0188925 0.032964,0.0013578 0.051433,-0.0060329 0.041042,-0.0164238 z m 0.2501628,0 c -0.010391,-0.01039088 -0.037362,-0.0115018 -0.059935,-0.0024687 -0.024945,0.0099823 -0.017536,0.01739203 0.018893,0.0188925 0.032964,0.0013578 0.051433,-0.0060329 0.041042,-0.0164238 z M 0,6.5042347 V 5.0032575 H 0.62540719 1.2508144 V 6.5042347 8.005212 H 0.62540719 0 Z"
       id="path851"
       inkscape:connector-curvature="0" />
    <path
       style="fill:#fefefe;stroke-width:0.000312899"
       d="m 12.669027,14.598925 c -0.06649,-0.143806 -0.384138,-0.831368 -0.705884,-1.527915 -0.655603,-1.419315 -0.667624,-1.437739 -0.93916,-1.439399 l -0.157533,-9.63e-4 -0.757581,0.774904 -0.7575812,0.774904 -7.252e-4,-3.9237188 -7.251e-4,-3.9237197 0.073629,0.077465 c 0.040496,0.042606 0.9657075,1.0406301 2.0560255,2.2178315 1.090319,1.1772015 2.211598,2.387365 2.491731,2.689251 l 0.509333,0.548885 -0.962753,0.01563 c -0.645758,0.01049 -0.983346,0.02756 -1.025294,0.05185 -0.128611,0.07448 -0.21049,0.194316 -0.225846,0.330553 -0.01439,0.127639 0.02975,0.226312 0.707205,1.580967 0.397402,0.794657 0.722549,1.450116 0.722549,1.456576 0,0.0065 -0.172377,0.114437 -0.383061,0.239951 -0.210685,0.125514 -0.414647,0.248502 -0.45325,0.273307 -0.06854,0.04404 -0.07303,0.03895 -0.191079,-0.216366 z M 5.2534204,4.4734679 4.0182412,3.9221145 4.0099605,3.0143273 4.0016795,2.1065399 5.2296793,1.5537008 6.4576791,1.0008618 8.7225456,1.9935905 C 9.9682223,2.5395914 10.986516,3.000391 10.985421,3.0175897 10.984326,3.0347884 10.563453,3.2360113 10.050148,3.4647514 9.2351562,3.8279304 9.1024076,3.8782003 9.0027931,3.8613706 8.8500017,3.8355566 8.6791886,3.9101077 8.602611,4.0360293 8.5497228,4.1229972 8.4166048,4.1915847 7.562187,4.5720974 7.0233099,4.8120846 6.5613032,5.0121239 6.5355051,5.0166293 6.5097071,5.0211348 5.9327689,4.7767119 5.2534204,4.4734679 Z"
       id="path849"
       inkscape:connector-curvature="0" />
    <path
       style="fill:#cfcecd;stroke-width:0.000312899"
       d="M 8.5934856,0.0411795 C 8.6160586,0.0321464 8.6430296,0.0332573 8.6534206,0.0436482 8.6638116,0.05403908 8.6453406,0.06142979 8.6123786,0.060072 8.5759506,0.0585715 8.5685406,0.0511618 8.5934856,0.0411795 Z m 0.2501629,0 C 8.8662215,0.0321464 8.8931925,0.0332573 8.9035835,0.0436482 8.9139745,0.05403908 8.8955035,0.06142979 8.8625415,0.060072 8.8261135,0.0585715 8.8187035,0.0511618 8.8436485,0.0411795 Z m 0.2501629,0 C 9.1163844,0.0321464 9.1433554,0.0332573 9.1537464,0.0436482 9.1641374,0.05403908 9.1456664,0.06142979 9.1127044,0.060072 9.0762764,0.0585715 9.0688664,0.0511618 9.0938114,0.0411795 Z"
       id="path847"
       inkscape:connector-curvature="0" />
    <path
       style="fill:#cbcbcb;stroke-width:0.000312899"
       d="M 5.2303231,11.479062 4.0033174,10.928991 4.0029615,9.4671013 4.002606,8.005212 H 3.0019545 2.001303 V 6.5042347 5.0032575 H 3.0019545 4.002606 V 4.4590357 3.9148142 l 1.2492906,0.5561689 c 0.6871098,0.3058929 1.2586066,0.5472748 1.2699928,0.536404 0.011386,-0.010871 0.010697,1.5562613 -0.00153,3.4825155 -0.012229,1.9262544 -0.031413,3.5105944 -0.042631,3.5207554 -0.011218,0.01016 -0.5725496,-0.229056 -1.2474031,-0.531596 z"
       id="path845"
       inkscape:connector-curvature="0" />
    <path
       style="fill:#fecb98;stroke-width:0.000312899"
       d="M 1.0006515,10.006515 V 9.0058635 H 2.001303 3.0019545 v 1.0006515 1.000652 H 2.001303 1.0006515 Z m 0,-7.0045605 V 2.001303 H 2.001303 3.0019545 V 3.0019545 4.002606 H 2.001303 1.0006515 Z"
       id="path843"
       inkscape:connector-curvature="0" />
    <path
       style="fill:#656565;stroke-width:0.000312899"
       d="m 6.5198699,8.5303123 0.03127,-3.5088236 0.9681672,-0.4312654 c 0.5324923,-0.237196 0.9793283,-0.4312655 0.9929693,-0.4312655 0.013641,0 0.021223,1.5711651 0.016849,3.4914779 l -0.00795,3.4914783 -1.0162867,0.44857 c -0.5589576,0.246714 -1.0162866,0.448589 -1.0162866,0.448611 0,2.2e-5 0.014072,-1.57893 0.03127,-3.5087827 z M 10.100925,4.924662 C 9.5979543,4.3826722 9.1661823,3.927893 9.1414315,3.9140418 9.1109669,3.8969932 9.3772706,3.7647171 9.9658047,3.5045658 10.443961,3.2932051 10.880912,3.0941264 10.936808,3.0621687 l 0.101629,-0.058105 V 4.457081 c 0,0.7991593 -0.0052,1.4530169 -0.01151,1.4530169 -0.0063,0 -0.423031,-0.4434462 -0.926002,-0.9854359 z"
       id="path841"
       inkscape:connector-curvature="0" />
    <path
       style="fill:#653200;stroke-width:0.000312899"
       d="M 0,10.006515 V 8.005212 h 2.001303 2.001303 v 2.001303 2.001303 H 2.001303 0 Z m 3.0019545,0 V 9.0058635 H 2.001303 1.0006515 v 1.0006515 1.000652 H 2.001303 3.0019545 Z M 0,3.0019545 v -2.001303 h 2.001303 2.001303 v 2.001303 2.001303 H 2.001303 0 Z m 3.0019545,0 V 2.001303 H 2.001303 1.0006515 V 3.0019545 4.002606 H 2.001303 3.0019545 Z"
       id="path839"
       inkscape:connector-curvature="0" />
    <path
       style="fill:#313131;stroke-width:0.000312899"
       d="M 6.2035984,12.749698 C 6.1500398,12.728634 5.6332558,12.500326 5.0551894,12.242346 L 4.0041598,11.77329 4.0033843,11.356851 c -7.348e-4,-0.393421 0.00247,-0.415409 0.057969,-0.397795 0.03231,0.01025 0.5913103,0.257522 1.2422232,0.549482 l 1.183478,0.530836 0.579275,-0.255633 C 7.3849306,11.643143 7.846519,11.439617 8.0920811,11.331462 l 0.4464766,-0.196646 -0.00869,0.423214 -0.00869,0.423216 -0.8912052,0.394875 c -0.8317143,0.368516 -0.905817,0.395442 -1.1100978,0.403374 -0.1203996,0.0047 -0.2627091,-0.0087 -0.3162715,-0.0298 z M 1.2508144,6.5042347 V 5.0032575 H 1.6260587 2.001303 V 6.5042347 8.005212 H 1.6260587 1.2508144 Z M 11.405864,6.333396 11.038437,5.9365936 V 4.4734607 3.0103279 L 10.827362,2.9164719 C 10.711271,2.8648511 9.6804621,2.4126852 8.5366761,1.9116588 L 6.4570653,1.0007017 5.2426293,1.5479079 C 4.5746894,1.8488713 4.0224361,2.0951141 4.0153996,2.0951141 c -0.00704,0 -0.012794,-0.1873402 -0.012794,-0.4163115 V 1.262491 L 5.1048862,0.76414455 6.2071663,0.26579805 h 0.2501629 0.2501629 l 2.267101,0.99547245 c 1.2469059,0.5475098 2.3257239,1.029365 2.3973749,1.0707894 0.173962,0.1005751 0.338847,0.2986552 0.383019,0.4601287 0.02579,0.09427 0.03349,0.6713611 0.02715,2.0347998 l -0.0088,1.9032097 z"
       id="path837"
       inkscape:connector-curvature="0" />
    <path
       style="fill:#000000;stroke-width:0.000312899"
       d="m 15.93449,15.986971 c 0.01557,-0.0129 0.0388,-0.03752 0.05164,-0.05472 0.01332,-0.01784 0.02354,-0.0078 0.02382,0.02345 2.82e-4,0.03042 -0.02267,0.05472 -0.05164,0.05472 -0.02867,0 -0.03938,-0.01055 -0.02382,-0.02345 z m -3.444388,-0.151094 c -0.06747,-0.0231 -0.144896,-0.06926 -0.172056,-0.102578 -0.02716,-0.03332 -0.350108,-0.709289 -0.717663,-1.502153 -0.367556,-0.792863 -0.683054,-1.440259 -0.701108,-1.438657 -0.01805,0.0016 -0.41276,0.401269 -0.877125,0.88815 -0.4643647,0.486882 -0.8766228,0.900685 -0.9161291,0.919564 -0.039506,0.01888 -0.1276609,0.03432 -0.1958991,0.03432 -0.097667,0 -0.1489254,-0.02278 -0.240874,-0.107041 l -0.1168045,-0.107041 -0.0081,-5.1344223 c -0.00805,-5.1077636 -0.00777,-5.1349539 0.055216,-5.2368611 0.034821,-0.056341 0.1137078,-0.1263542 0.1753041,-0.1555835 0.1619079,-0.07683 0.303492,-0.040692 0.4663759,0.1190384 0.073307,0.071888 0.9475757,1.010184 1.9428187,2.0851026 0.995243,1.0749186 2.428515,2.6211687 3.185048,3.4361118 0.756533,0.8149431 1.401877,1.5226041 1.434097,1.5725801 0.04487,0.06959 0.05496,0.128555 0.04311,0.251851 -0.01299,0.135145 -0.03361,0.17761 -0.128482,0.264553 l -0.113012,0.103569 h -1.126192 c -0.733506,0 -1.126193,0.01095 -1.126193,0.03142 0,0.01728 0.28847,0.608223 0.641043,1.313206 0.711327,1.422324 0.724062,1.460057 0.558967,1.656261 -0.08434,0.100231 -1.702121,1.082472 -1.85515,1.126361 -0.05194,0.0149 -0.131822,0.0081 -0.207201,-0.01775 z m 0.788496,-1.266495 c 0.229801,-0.138274 0.417819,-0.257345 0.417819,-0.264602 0,-0.0073 -0.323648,-0.661258 -0.719218,-1.453338 -0.491024,-0.983214 -0.719181,-1.472011 -0.719101,-1.540581 1.56e-4,-0.122707 0.09237,-0.280879 0.208005,-0.356719 0.07679,-0.05037 0.189947,-0.0581 1.054507,-0.07206 L 14.489092,10.86645 12.040758,8.2241045 C 10.694174,6.7708146 9.5378417,5.5256795 9.4711305,5.4571377 L 9.3498375,5.3325159 v 3.9335408 3.9335403 l 0.4442708,-0.46299 c 1.0583577,-1.102952 1.0595617,-1.104047 1.2146947,-1.103916 0.267754,2.19e-4 0.289753,0.02941 0.721746,0.95737 0.215217,0.462307 0.538024,1.160278 0.717348,1.551047 0.233006,0.507747 0.338434,0.706093 0.369463,0.695085 0.02388,-0.0085 0.231437,-0.128537 0.461238,-0.266811 z m 2.708441,-6.5798052 c 3.48e-4,-0.068795 0.0068,-0.093256 0.01423,-0.054359 0.0075,0.038898 0.0072,0.095184 -6.32e-4,0.1250814 -0.0078,0.029897 -0.01395,-0.00193 -0.0136,-0.070723 z"
       id="path835"
       inkscape:connector-curvature="0" />
  </g>
</svg>
