<?xml version="1.0" encoding="UTF-8" standalone="no"?>
<!-- Created with Inkscape (http://www.inkscape.org/) -->

<svg
   version="1.1"
   id="svg2"
   width="1600"
   height="1600"
   viewBox="0 0 1600 1600"
   sodipodi:docname="view.svg"
   inkscape:version="1.2.2 (732a01da63, 2022-12-09)"
   xmlns:inkscape="http://www.inkscape.org/namespaces/inkscape"
   xmlns:sodipodi="http://sodipodi.sourceforge.net/DTD/sodipodi-0.dtd"
   xmlns="http://www.w3.org/2000/svg"
   xmlns:svg="http://www.w3.org/2000/svg"
   xmlns:rdf="http://www.w3.org/1999/02/22-rdf-syntax-ns#"
   xmlns:cc="http://creativecommons.org/ns#"
   xmlns:dc="http://purl.org/dc/elements/1.1/">
  <metadata
     id="metadata8">
    <rdf:RDF>
      <cc:Work
         rdf:about="">
        <dc:format>image/svg+xml</dc:format>
        <dc:type
           rdf:resource="http://purl.org/dc/dcmitype/StillImage" />
      </cc:Work>
    </rdf:RDF>
  </metadata>
  <defs
     id="defs6" />
  <sodipodi:namedview
     pagecolor="#808080"
     bordercolor="#666666"
     borderopacity="1"
     objecttolerance="10"
     gridtolerance="10"
     guidetolerance="10"
     inkscape:pageopacity="0"
     inkscape:pageshadow="2"
     inkscape:window-width="2560"
     inkscape:window-height="1009"
     id="namedview4"
     showgrid="false"
     inkscape:zoom="0.5"
     inkscape:cx="496"
     inkscape:cy="1098"
     inkscape:window-x="-8"
     inkscape:window-y="-8"
     inkscape:window-maximized="1"
     inkscape:current-layer="VIEW"
     inkscape:showpageshadow="0"
     inkscape:pagecheckerboard="true"
     inkscape:deskcolor="#d1d1d1" />
  <g
     id="VIEW"
     transform="matrix(99.999998,0,0,99.999998,0,200.0531)"
     style="stroke-width:0.01">
    <path
       style="fill:none;stroke-width:0.0003125"
       d="M 0,5.9994468 V -2.000531 H 8.0000002 16 v 7.9999778 7.9999782 h -1.248846 -1.248846 l -0.0089,-1.091505 c -0.0086,-1.04629 -0.01164,-1.095078 -0.0734,-1.177753 -0.03544,-0.04744 -0.10325,-0.115243 -0.150708,-0.15068 -0.08454,-0.06313 -0.123414,-0.06461 -1.927757,-0.07297 l -1.8414793,-0.0086 v -0.297152 c 0,-0.180275 -0.016765,-0.337278 -0.042626,-0.399169 -0.046243,-0.110679 -0.2117213,-0.26647 -0.2957094,-0.278405 -0.028759,-0.0041 1.3142627,-0.01464 2.9844927,-0.02344 3.005845,-0.01584 3.037661,-0.01666 3.123069,-0.08044 0.04745,-0.03544 0.115281,-0.103261 0.150718,-0.150729 l 0.06443,-0.0863 v -5.6828561 -5.682901 l -0.06443,-0.086298 c -0.03549,-0.047464 -0.103318,-0.1152918 -0.150781,-0.1507287 l -0.0863,-0.064431 H 8.0000002 0.81708317 l -0.0862981,0.064431 c -0.047464,0.035437 -0.11529214,0.1032648 -0.15072912,0.1507286 l -0.0644309,0.086298 v 5.6829011 5.6829011 l 0.0644309,0.0863 c 0.035437,0.04747 0.10325998,0.115293 0.1507177,0.150729 0.0854077,0.06377 0.11722391,0.0646 3.12306925,0.08044 1.67023,0.0088 3.0132519,0.01935 2.9844926,0.02344 -0.083989,0.01193 -0.2494669,0.167729 -0.2957094,0.278404 -0.02586,0.06189 -0.042626,0.218894 -0.042626,0.39917 v 0.297152 l -1.8414797,0.0086 c -1.804342,0.0083 -1.8432196,0.0098 -1.9277566,0.07297 -0.047452,0.03544 -0.1152708,0.103238 -0.1507078,0.15068 -0.061762,0.08268 -0.064803,0.131463 -0.073397,1.177753 l -0.00897,1.091504 H 1.2488464 0 Z"
       id="path827"
       inkscape:connector-curvature="0" />
    <path
       style="fill:#fefefe;stroke-width:0.0003125"
       d="M 1,4.4994509 V -1.0005338 H 8.0000002 15.000001 V 4.4994509 9.9994351 H 8.0000002 1 Z m 13,0 V -5.3661381e-4 H 8.0000002 2 V 4.4994509 8.9994384 H 8.0000002 14 Z"
       id="path825"
       inkscape:connector-curvature="0" />
    <path
       style="fill:#75b6fe;stroke-width:0.0003125"
       d="M 2,4.4994509 V -5.3661381e-4 H 8.0000002 14 V 4.4994509 8.9994384 H 8.0000002 2 Z"
       id="path823"
       inkscape:connector-curvature="0" />
    <path
       style="fill:#b8b8b8;stroke-width:0.0003125"
       d="M 3,12.999428 V 11.99943 h 2.0000001 2 v -0.499999 -0.499998 h 1.0000001 1 v 0.499998 0.499999 H 11 13 v 0.999998 0.999997 H 8.0000002 3 Z"
       id="path821"
       inkscape:connector-curvature="0" />
    <path
       style="fill:#000000;stroke-width:0.0003125"
       d="m 2.5066589,12.90792 c 0.00859,-1.04629 0.011635,-1.095078 0.073397,-1.177753 0.035437,-0.04744 0.1032556,-0.115243 0.1507078,-0.15068 0.084537,-0.06313 0.1234146,-0.06461 1.9277566,-0.07297 L 6.5,11.497917 v -0.297152 c 0,-0.180275 0.016765,-0.337278 0.042626,-0.399169 0.046243,-0.110679 0.2117213,-0.26647 0.2957094,-0.278405 0.028759,-0.0041 -1.3142626,-0.01464 -2.9844926,-0.02344 -3.00584538,-0.01584 -3.03766157,-0.01666 -3.12306929,-0.08044 -0.0474577,-0.03544 -0.11528072,-0.103261 -0.1507177,-0.150729 l -0.0644309,-0.0863 v -5.6828561 -5.682901 l 0.0644309,-0.086298 c 0.035437,-0.047464 0.10326507,-0.1152918 0.15072907,-0.1507287 l 0.0862981,-0.064431 H 8.0000002 15.182917 l 0.0863,0.064431 c 0.04747,0.035437 0.115293,0.1032647 0.15073,0.1507286 l 0.06442,0.086298 v 5.6829011 5.6829011 l -0.06442,0.0863 c -0.03544,0.04747 -0.103261,0.115293 -0.150718,0.150729 -0.08541,0.06377 -0.117224,0.0646 -3.123069,0.08044 -1.67023,0.0088 -3.0132522,0.01935 -2.9844928,0.02344 0.083989,0.01193 0.2494668,0.167729 0.2957094,0.278404 0.025861,0.06189 0.042626,0.218894 0.042626,0.39917 v 0.297152 l 1.8414794,0.0086 c 1.804343,0.0083 1.84322,0.0098 1.927757,0.07297 0.04745,0.03544 0.115271,0.103238 0.150708,0.15068 0.06176,0.08268 0.0648,0.131463 0.0734,1.177753 l 0.0089,1.091504 H 13.251104 12.999951 V 12.999428 11.99943 H 11 9.0000002 v -0.499999 -0.499998 h -1 -1.0000001 v 0.499998 0.499999 h -2 H 3 v 0.999998 0.999997 H 2.7488464 2.4976927 Z M 15.000001,4.4994509 V -1.0005338 H 8.0000002 1 v 5.4999847 5.4999842 h 7.0000002 7.0000008 z"
       id="path819"
       inkscape:connector-curvature="0" />
  </g>
</svg>
