<?xml version="1.0" encoding="UTF-8" standalone="no"?>
<!-- Created with Inkscape (http://www.inkscape.org/) -->

<svg
   version="1.1"
   id="svg2"
   width="1600"
   height="1600"
   viewBox="0 0 1600 1600"
   sodipodi:docname="view_active_bottom.svg"
   inkscape:version="1.2.2 (732a01da63, 2022-12-09)"
   xmlns:inkscape="http://www.inkscape.org/namespaces/inkscape"
   xmlns:sodipodi="http://sodipodi.sourceforge.net/DTD/sodipodi-0.dtd"
   xmlns="http://www.w3.org/2000/svg"
   xmlns:svg="http://www.w3.org/2000/svg"
   xmlns:rdf="http://www.w3.org/1999/02/22-rdf-syntax-ns#"
   xmlns:cc="http://creativecommons.org/ns#"
   xmlns:dc="http://purl.org/dc/elements/1.1/">
  <metadata
     id="metadata8">
    <rdf:RDF>
      <cc:Work
         rdf:about="">
        <dc:format>image/svg+xml</dc:format>
        <dc:type
           rdf:resource="http://purl.org/dc/dcmitype/StillImage" />
      </cc:Work>
    </rdf:RDF>
  </metadata>
  <defs
     id="defs6" />
  <sodipodi:namedview
     pagecolor="#808080"
     bordercolor="#666666"
     borderopacity="1"
     objecttolerance="10"
     gridtolerance="10"
     guidetolerance="10"
     inkscape:pageopacity="0"
     inkscape:pageshadow="2"
     inkscape:window-width="1993"
     inkscape:window-height="1009"
     id="namedview4"
     showgrid="false"
     inkscape:zoom="0.5"
     inkscape:cx="705"
     inkscape:cy="834"
     inkscape:window-x="-8"
     inkscape:window-y="-8"
     inkscape:window-maximized="1"
     inkscape:current-layer="svg2"
     inkscape:showpageshadow="0"
     inkscape:pagecheckerboard="true"
     inkscape:deskcolor="#d1d1d1" />
  <g
     id="VIEW_ACTIVE_BOTTOM"
     transform="matrix(100,0,0,100,0,4.9999997e-5)"
     style="stroke-width:0.0114286">
    <path
       style="fill:#fefe00;stroke-width:0.000357143"
       d="M 8.674145,15.26609 C 7.5728484,14.635778 7.3676406,14.506803 7.1970422,14.337721 6.85353,13.997263 6.875,14.185407 6.875,11.515625 6.875,8.8344166 6.8513706,9.03395 7.2103581,8.6837728 7.3991922,8.4995731 7.6061462,8.3723969 9.1401944,7.4978597 10.08527,6.9590866 10.936051,6.48637 11.030819,6.4473778 c 0.246793,-0.1015419 0.722819,-0.1015419 0.969612,0 0.09477,0.038992 0.945549,0.5117181 1.890625,1.0505022 1.474829,0.8407947 1.745995,1.0065369 1.913632,1.1696484 L 16,8.8575694 v 2.6580556 2.658056 l -0.195312,0.190033 c -0.163662,0.159238 -0.401033,0.307221 -1.464758,0.91316 L 13.070484,16 l -1.558679,-9.51e-4 -1.55868,-9.51e-4 z m 4.637983,-0.598976 c 0.954111,-0.544025 1.759356,-1.010267 1.789435,-1.036093 0.05106,-0.04384 0.05469,-0.184177 0.05469,-2.115396 0,-1.9312194 -0.0036,-2.0715534 -0.05469,-2.1153956 C 15.071484,9.3744031 14.263249,8.9064531 13.305484,8.3603409 12.023777,7.6295184 11.544692,7.3711181 11.490597,7.3814591 11.414938,7.3959222 8.0276009,9.3163588 7.9296875,9.4003022 7.8786266,9.4440775 7.875,9.5844263 7.875,11.516642 c 0,1.859879 0.00507,2.073662 0.050058,2.111 0.1193485,0.09905 3.53411,2.028455 3.590195,2.028527 0.03417,3.2e-5 0.842764,-0.44503 1.796875,-0.989055 z M 9.9191441,10.427121 8.3233262,9.5153034 9.7451325,8.7029641 C 10.527126,8.2561775 11.245542,7.8460047 11.341613,7.7914687 l 0.174675,-0.099157 1.595818,0.9118172 1.595818,0.9118172 -1.421806,0.8123399 c -0.781994,0.446787 -1.50041,0.856959 -1.596481,0.911495 l -0.174675,0.09916 z"
       id="path825"
       inkscape:connector-curvature="0" />
    <path
       style="fill:#fecb32;stroke-width:0.000357143"
       d="M 9.7581462,14.335861 8.1569172,13.421875 8.1565837,11.599176 8.15625,9.7764769 8.3701656,9.8960509 C 8.4878191,9.9618166 9.2119009,10.374219 9.9792359,10.8125 l 1.3951551,0.796875 3.13e-4,1.820313 c 1.56e-4,1.001171 -0.0032,1.820278 -0.0075,1.820235 -0.0043,-3.1e-5 -0.728366,-0.41137 -1.6090416,-0.914062 z m 1.8984078,-0.903787 3.13e-4,-1.822699 1.395155,-0.796875 c 0.767335,-0.438281 1.491417,-0.8506834 1.60907,-0.9164491 l 0.213916,-0.119574 -3.12e-4,1.8226991 -3.13e-4,1.822699 -1.395155,0.796875 c -0.767335,0.438281 -1.491417,0.850683 -1.609071,0.916449 l -0.213915,0.119574 z"
       id="path823"
       inkscape:connector-curvature="0" />
    <path
       style="fill:#00fe00;stroke-width:0.000357143"
       d="M 0,8 V 0 h 8 8 V 4.4270019 8.8540038 L 15.78879,8.6535644 C 15.659237,8.5306181 15.466138,8.3927163 15.289333,8.296875 L 15.001085,8.140625 15.000542,7.0703125 15,6 H 14.5 14 V 4 2 H 8 2 v 6 6 H 4.4679475 6.935895 l 0.045337,0.08594 c 0.024936,0.04726 0.1342812,0.171838 0.24299,0.276829 0.1648047,0.159167 0.4053897,0.309116 1.4476525,0.902278 0.6875,0.391262 1.2558594,0.716689 1.2630209,0.723171 C 9.9420572,15.994697 7.7096353,16 4.9739584,16 H 0 Z m 13.096354,7.988216 c 0.0072,-0.0065 0.575521,-0.331908 1.263021,-0.723171 1.046517,-0.595582 1.281794,-0.742314 1.445313,-0.901376 L 16,14.173681 V 15.08684 16 h -1.458333 c -0.802084,0 -1.452474,-0.0053 -1.445313,-0.01178 z M 3,8 V 3 h 5 5 v 1.984375 c 0,1.0914063 -0.0089,1.984375 -0.01972,1.984375 -0.01085,0 -0.196774,-0.1012734 -0.413173,-0.2250522 -0.584624,-0.3344006 -0.678582,-0.3672144 -1.051482,-0.3672144 -0.253367,0 -0.345105,0.013415 -0.484806,0.070894 C 10.936051,6.48637 10.08527,6.9590866 9.1401944,7.4978597 7.6061462,8.3723969 7.3991922,8.4995731 7.2103581,8.6837728 6.8560312,9.0294038 6.875,8.8921397 6.875,11.110547 V 13 H 4.9375 3 Z"
       id="path821"
       inkscape:connector-curvature="0" />
    <path
       style="fill:#323232;stroke-width:0.000357143"
       d="M 9.7141206,14.662638 C 8.7576684,14.116239 7.9525903,13.650491 7.9250581,13.627642 7.8800694,13.590304 7.875,13.376521 7.875,11.516642 c 0,-1.9322157 0.00363,-2.0725645 0.054687,-2.1163398 0.097913,-0.083944 3.485251,-2.00438 3.56091,-2.0188431 0.0541,-0.010341 0.53318,0.2480593 1.814887,0.9788818 0.957765,0.5461122 1.766,1.0140622 1.796079,1.0398885 0.05106,0.043842 0.05469,0.1841762 0.05469,2.1153956 0,1.931219 -0.0036,2.071553 -0.05469,2.115396 -0.114035,0.09791 -3.527083,2.025225 -3.58631,2.025148 -0.03417,-3.1e-5 -0.84468,-0.447133 -1.8011324,-0.993531 z M 11.374696,13.429688 11.374391,11.609375 9.9792359,10.8125 C 9.2119009,10.374219 8.4878191,9.9618166 8.3701656,9.8960509 L 8.15625,9.7764769 l 3.344e-4,1.8226991 3.343e-4,1.822699 1.6012291,0.913986 c 0.8806752,0.502692 1.6047442,0.91402 1.6090412,0.914062 0.0043,3.2e-5 0.0077,-0.819064 0.0075,-1.820235 z m 2.10454,0.789062 1.395155,-0.796875 3.13e-4,-1.822699 3.12e-4,-1.8226991 -0.213915,0.119574 c -0.11767,0.065766 -0.841752,0.4781681 -1.609087,0.9164491 l -1.395155,0.796875 -3.13e-4,1.822699 -3.12e-4,1.822699 0.213915,-0.119574 c 0.11767,-0.06577 0.841752,-0.478168 1.609087,-0.916449 z M 13.286118,10.328286 14.707924,9.5159466 13.112106,8.6041294 11.516288,7.6923122 11.341613,7.7914687 c -0.09607,0.054536 -0.814487,0.4647088 -1.5964805,0.9114954 l -1.4218063,0.8123393 1.5958179,0.9118176 1.5958179,0.911817 0.174675,-0.09916 c 0.09607,-0.05454 0.814487,-0.464708 1.596481,-0.911495 z M 2,8 V 2 h 6 6 v 2 2 h 0.5 0.5 v 1.0643444 c 0,0.5853893 -0.01055,1.0586422 -0.02344,1.0516731 -0.01289,-0.00697 -0.462891,-0.2627613 -1,-0.5684266 L 13,6.991835 V 4.9959175 3 H 8 3 v 5 5 h 1.9351947 1.9351944 l 0.011312,0.445313 c 0.00622,0.244921 0.022826,0.469921 0.036899,0.5 C 6.9428537,13.997151 6.8153822,14 4.4720934,14 H 2 Z"
       id="path819"
       inkscape:connector-curvature="0" />
  </g>
</svg>
