<?xml version="1.0" encoding="UTF-8" standalone="no"?>
<!-- Created with Inkscape (http://www.inkscape.org/) -->

<svg
   version="1.1"
   id="svg2"
   width="1600"
   height="1600"
   viewBox="0 0 1600 1600"
   sodipodi:docname="view_left.svg"
   inkscape:version="1.2.2 (732a01da63, 2022-12-09)"
   xmlns:inkscape="http://www.inkscape.org/namespaces/inkscape"
   xmlns:sodipodi="http://sodipodi.sourceforge.net/DTD/sodipodi-0.dtd"
   xmlns="http://www.w3.org/2000/svg"
   xmlns:svg="http://www.w3.org/2000/svg"
   xmlns:rdf="http://www.w3.org/1999/02/22-rdf-syntax-ns#"
   xmlns:cc="http://creativecommons.org/ns#"
   xmlns:dc="http://purl.org/dc/elements/1.1/">
  <metadata
     id="metadata8">
    <rdf:RDF>
      <cc:Work
         rdf:about="">
        <dc:format>image/svg+xml</dc:format>
        <dc:type
           rdf:resource="http://purl.org/dc/dcmitype/StillImage" />
      </cc:Work>
    </rdf:RDF>
  </metadata>
  <defs
     id="defs6" />
  <sodipodi:namedview
     pagecolor="#808080"
     bordercolor="#666666"
     borderopacity="1"
     objecttolerance="10"
     gridtolerance="10"
     guidetolerance="10"
     inkscape:pageopacity="0"
     inkscape:pageshadow="2"
     inkscape:window-width="1993"
     inkscape:window-height="1009"
     id="namedview4"
     showgrid="false"
     inkscape:zoom="0.5"
     inkscape:cx="9"
     inkscape:cy="8"
     inkscape:window-x="-8"
     inkscape:window-y="-8"
     inkscape:window-maximized="1"
     inkscape:current-layer="VIEW_LEFT"
     inkscape:showpageshadow="0"
     inkscape:pagecheckerboard="true"
     inkscape:deskcolor="#d1d1d1" />
  <g
     id="VIEW_LEFT"
     transform="matrix(100,0,0,100,0,4.9999997e-5)"
     style="stroke-width:0.0114286">
    <path
       style="fill:none;stroke-width:0.000357143"
       d="M 0,8 V 0 H 0.5 1 V 4 8 H 1.5 2 V 11.5 15 H 1.5 1 V 15.5 16 H 0.5 0 Z m 15,7.5 V 15 H 14.5 14 V 11.5 8 H 14.5 15 V 4 0 h 0.5 0.5 v 8 8 H 15.5 15 Z"
       id="path827"
       inkscape:connector-curvature="0" />
    <path
       style="fill:#98cbfe;stroke-width:0.000357143"
       d="M 5,12.5 V 12 H 6 7 V 12.5 13 H 6 5 Z m 3,0 V 12 h 1 1 V 12.5 13 H 9 8 Z m -3,-2 V 10 H 6 7 V 10.5 11 H 6 5 Z m 3,0 V 10 h 1 1 V 10.5 11 H 9 8 Z"
       id="path825"
       inkscape:connector-curvature="0" />
    <path
       style="fill:#cbcbcb;stroke-width:0.000357143"
       d="M 2,11.5 V 8 h 6 6 V 11.5 15 H 8 2 Z m 9,0 V 9 H 7.5 4 V 11.5 14 H 7.5 11 Z"
       id="path823"
       inkscape:connector-curvature="0" />
    <path
       style="fill:#00fe00;stroke-width:0.000357143"
       d="M 1,15.5 V 15 h 7 7 V 15.5 16 H 8 1 Z"
       id="path821"
       inkscape:connector-curvature="0" />
    <path
       style="fill:#983200;stroke-width:0.000357143"
       d="M 4,11.5 V 9 H 7.5 11 V 11.5 14 H 7.5 4 Z m 3,1 V 12 H 6 5 v 0.5 0.5 h 1 1 z m 3,0 V 12 H 9 8 v 0.5 0.5 h 1 1 z m -3,-2 V 10 H 6 5 v 0.5 0.5 h 1 1 z m 3,0 V 10 H 9 8 v 0.5 0.5 h 1 1 z M 1,4 V 0 h 7 7 V 4 8 H 8 1 Z"
       id="path819"
       inkscape:connector-curvature="0" />
  </g>
</svg>
