<?xml version="1.0" encoding="UTF-8" standalone="no"?>
<!-- Created with Inkscape (http://www.inkscape.org/) -->

<svg
   version="1.1"
   id="svg2"
   width="1600"
   height="1600"
   viewBox="0 0 1600 1600"
   sodipodi:docname="view_fit.svg"
   inkscape:version="1.2.2 (732a01da63, 2022-12-09)"
   xmlns:inkscape="http://www.inkscape.org/namespaces/inkscape"
   xmlns:sodipodi="http://sodipodi.sourceforge.net/DTD/sodipodi-0.dtd"
   xmlns="http://www.w3.org/2000/svg"
   xmlns:svg="http://www.w3.org/2000/svg"
   xmlns:rdf="http://www.w3.org/1999/02/22-rdf-syntax-ns#"
   xmlns:cc="http://creativecommons.org/ns#"
   xmlns:dc="http://purl.org/dc/elements/1.1/">
  <metadata
     id="metadata8">
    <rdf:RDF>
      <cc:Work
         rdf:about="">
        <dc:format>image/svg+xml</dc:format>
        <dc:type
           rdf:resource="http://purl.org/dc/dcmitype/StillImage" />
      </cc:Work>
    </rdf:RDF>
  </metadata>
  <defs
     id="defs6" />
  <sodipodi:namedview
     pagecolor="#808080"
     bordercolor="#666666"
     borderopacity="1"
     objecttolerance="10"
     gridtolerance="10"
     guidetolerance="10"
     inkscape:pageopacity="0"
     inkscape:pageshadow="2"
     inkscape:window-width="1993"
     inkscape:window-height="1009"
     id="namedview4"
     showgrid="false"
     inkscape:zoom="0.5"
     inkscape:cx="611"
     inkscape:cy="730"
     inkscape:window-x="-8"
     inkscape:window-y="-8"
     inkscape:window-maximized="1"
     inkscape:current-layer="VIEW_FIT"
     inkscape:showpageshadow="0"
     inkscape:pagecheckerboard="true"
     inkscape:deskcolor="#d1d1d1" />
  <g
     id="VIEW_FIT"
     transform="matrix(100,0,0,100,0,4.9999997e-5)"
     style="stroke-width:0.0114286">
    <path
       style="fill:none;stroke-width:0.000357143"
       d="M 0,8 V 0 h 8 8 v 8 8 H 8 0 Z m 7.2692231,7.419944 C 7.4822009,15.260918 7.484375,15.251622 7.484375,14.5 c 0,-0.751619 -0.00217,-0.760911 -0.2151459,-0.919944 -0.085107,-0.06355 -0.1182419,-0.06455 -2.4277566,-0.07282 L 2.5,13.498836 V 12.092164 C 2.5,10.961002 2.4915,10.665797 2.456603,10.584934 2.4327346,10.529627 2.1550002,10.228881 1.8394155,9.9166112 1.3535318,9.4358313 1.2474039,9.3454803 1.1466912,9.3268684 0.90798184,9.2827544 0.72136931,9.3540241 0.58005591,9.5432741 c -0.0637385,0.08536 -0.0645283,0.1152262 -0.0734949,2.7793189 -0.004985,1.481168 -9.1e-4,2.738321 0.009056,2.793674 0.0225526,0.125264 0.15386591,0.284887 0.27970869,0.340013 0.077782,0.03407 0.673604,0.04049 3.2414534,0.03492 3.1235281,-0.0068 3.1467746,-0.0073 3.232444,-0.07126 z m 7.9999999,0 c 0.04746,-0.03544 0.115284,-0.103265 0.150721,-0.150729 0.06394,-0.08564 0.06443,-0.107454 0.06443,-2.84734 0,-2.7398859 -4.94e-4,-2.7617031 -0.06443,-2.84734 C 15.278644,9.3852788 15.092025,9.3140028 14.853309,9.3581184 14.752596,9.3767303 14.646468,9.4670813 14.160585,9.9478613 13.845,10.260131 13.567265,10.560877 13.543397,10.616184 13.508524,10.696992 13.5,10.989959 13.5,12.107789 v 1.391047 l -2.341472,0.0084 c -2.3095152,0.0083 -2.3426505,0.0093 -2.4277571,0.07282 -0.2073865,0.154861 -0.2142209,0.180266 -0.2249506,0.836193 -0.011291,0.690233 -0.00205,0.765043 0.1110613,0.899473 0.1615387,0.191978 -0.014801,0.18293 3.4198974,0.175478 3.123528,-0.0068 3.146775,-0.0073 3.232444,-0.07126 z m -3.001352,-3.751906 c 0.139154,-0.04582 0.308261,-0.204774 1.753769,-1.648438 1.684715,-1.6825666 1.726988,-1.7316187 1.726988,-2.003975 0,-0.2718637 -0.04364,-0.3226281 -1.711368,-1.9908819 -1.091594,-1.0919359 -1.620259,-1.5996122 -1.700319,-1.6328125 -0.133344,-0.055297 -0.478614,-0.063876 -0.608344,-0.015115 -0.118771,0.044641 -0.350684,0.27172 -0.404041,0.3956184 -0.03322,0.077136 -0.04331,0.2898013 -0.04331,0.9130235 v 0.8124647 l -1.232124,0.00885 C 8.8606487,6.5153116 8.8139456,6.5179075 8.7307441,6.5800559 8.6833025,6.6154928 8.6154928,6.6833209 8.5800559,6.730785 8.5176359,6.8143897 8.515625,6.8540038 8.515625,8 c 0,1.1459963 0.00201,1.1856103 0.064431,1.269215 0.035437,0.047464 0.1032466,0.1152922 0.1506882,0.1507291 0.083187,0.062138 0.1299434,0.064746 1.3137158,0.07327 l 1.227458,0.00884 0.01686,0.8355199 c 0.0188,0.931689 0.02703,0.97327 0.231366,1.169289 0.209912,0.201369 0.461182,0.255531 0.747725,0.161175 z M 4.3213163,11.644194 C 4.4452147,11.590837 4.6722934,11.358924 4.7169347,11.240153 4.7371322,11.186417 4.75,10.831103 4.75,10.327141 V 9.5021013 l 1.2165003,-0.00886 c 1.17268,-0.00854 1.2196072,-0.011184 1.3027566,-0.073294 C 7.3166978,9.3845072 7.3845072,9.3166791 7.4199441,9.269215 7.4823641,9.1856103 7.484375,9.1459963 7.484375,8 7.484375,6.8540038 7.482365,6.8143897 7.419944,6.730785 7.3845072,6.6833209 7.3166978,6.6154928 7.2692569,6.5800559 7.1861225,6.5179572 7.1391409,6.5153047 5.9712912,6.5067747 L 4.7595825,6.4979244 4.7418769,5.6606959 C 4.728435,5.0250731 4.7131069,4.7976909 4.6782228,4.7164216 4.5766272,4.4797347 4.2671597,4.2803409 4.0038834,4.2819362 3.7438981,4.2835112 3.6811916,4.33783 2.0095107,6.0095106 0.32484459,7.6941769 0.28262263,7.7432256 0.28262263,8.015625 c 0,0.2718709 0.0436249,0.3226194 1.71136767,1.990815 1.0016894,1.001962 1.6243491,1.601855 1.6935097,1.631589 0.1383184,0.05947 0.5018328,0.063 0.6338163,0.0062 z M 1.2089031,6.6859881 C 1.3260675,6.6423544 2.4006358,5.5744475 2.4563079,5.4463162 2.4916178,5.3650494 2.5,5.0728922 2.5,3.9234606 V 2.5011637 l 2.3414725,-0.00839 c 2.3095147,-0.00828 2.34265,-0.00927 2.4277566,-0.072825 C 7.4822019,2.2609112 7.484375,2.2516188 7.484375,1.5 7.484375,0.74837375 7.482195,0.73907169 7.269215,0.58005591 7.1833762,0.51596794 7.1659753,0.515625 4,0.515625 c -3.16597525,0 -3.18337619,3.4281e-4 -3.26921503,0.0644309 -0.047464,0.035437 -0.11529209,0.10326018 -0.15072906,0.15071825 -0.0637463,0.0853705 -0.0645272,0.11506787 -0.0734934,2.79494395 -0.004984,1.4897613 -9.0906e-4,2.753946 0.009056,2.8092994 0.0225717,0.1253794 0.15398587,0.2850156 0.27970725,0.3397762 0.11599109,0.050523 0.29496574,0.055367 0.41357734,0.011194 z M 15.241553,6.5735156 c 0.04549,-0.033964 0.111704,-0.1005681 0.147141,-0.14801 0.06112,-0.081823 0.06564,-0.143575 0.08797,-1.201194 0.01294,-0.613215 0.01998,-1.8557138 0.01563,-2.761108 -0.0077,-1.60755101 -0.0094,-1.64819538 -0.07234,-1.7324441 C 15.384507,0.6833095 15.316679,0.61549287 15.269215,0.58005591 15.183376,0.51596794 15.165975,0.515625 12,0.515625 c -3.1659753,0 -3.1833762,3.4294e-4 -3.269215,0.0644309 C 8.5178006,0.73907169 8.515625,0.74837375 8.515625,1.5 c 0,0.7516188 0.00217,0.7609112 0.2151459,0.9199441 0.085107,0.063551 0.1182419,0.064545 2.4277571,0.072825 L 13.5,2.5011637 v 1.4036338 c 0,0.9022575 0.0117,1.4350572 0.03276,1.4916056 0.04107,0.1102697 1.074554,1.1566663 1.20161,1.2166238 0.128508,0.060642 0.401519,0.039374 0.507178,-0.039511 z"
       id="path823"
       inkscape:connector-curvature="0" />
    <path
       style="fill:#fefefe;stroke-width:0.000357143"
       d="M 1,12.398804 V 9.7976075 L 1.5,10.296875 2,10.796143 V 12.398071 14 H 4.5 7 V 14.5 15 H 4 1 Z M 9,14.5 V 14 H 11.5 14 V 12.413696 10.827393 L 14.5,10.328125 15,9.8288575 V 12.414429 15 H 12 9 Z m 2.950875,-3.313668 c -0.145358,-0.05377 -0.147682,-0.07023 -0.163345,-1.15657 L 11.772683,9 H 10.386342 9 V 8 7 h 1.390625 1.390625 V 5.9898222 4.9796447 l 0.07233,-0.067947 c 0.04493,-0.042207 0.112501,-0.067947 0.178378,-0.067947 0.09832,0 0.216963,0.1110866 1.627073,1.5234375 0.836561,0.8378906 1.536945,1.5545009 1.556409,1.5924675 0.03152,0.061473 0.01518,0.092263 -0.14918,0.28125 -0.311806,0.3585197 -2.921581,2.9366853 -2.989298,2.9530923 -0.03502,0.0085 -0.09175,0.005 -0.126084,-0.0077 z M 2.5227936,9.8203125 C 1.7673564,9.0683594 1.0662807,8.3576259 0.96484756,8.240905 0.80000606,8.0512191 0.78424466,8.0213553 0.81640894,7.959655 0.86049566,7.8750841 3.496055,5.2206028 3.7870709,4.9676656 4.007905,4.7757266 4.0691466,4.7614866 4.1742587,4.8776341 c 0.047261,0.052222 0.055084,0.1759253 0.068973,1.0906346 L 4.2588984,7 H 5.6294491 7 V 8 9 H 5.625 4.25 v 1.025803 1.025802 l -0.072327,0.06795 c -0.044496,0.0418 -0.1125431,0.06795 -0.1768422,0.06795 -0.095998,0 -0.2164484,-0.111417 -1.4780376,-1.3671875 z M 1,3.6168213 V 1 H 4 7 V 1.5 2 H 4.5 2 V 3.6175538 5.2351075 L 1.5,5.734375 1,6.2336425 Z M 14.476563,5.6798012 14,5.2023919 V 3.6011959 2 H 11.5 9 V 1.5 1 h 3 3 l -0.0042,1.7109375 c -0.0023,0.9410156 -0.01288,2.1013881 -0.02344,2.5786053 l -0.0192,0.8676681 z"
       id="path821"
       inkscape:connector-curvature="0" />
    <path
       style="fill:#323232;stroke-width:0.000357143"
       d="M 0.79532572,15.45628 C 0.66948294,15.40115 0.53816966,15.241531 0.51561703,15.116267 c -0.009966,-0.05535 -0.0140411,-1.312506 -0.009056,-2.793674 0.008967,-2.6640927 0.009756,-2.6939589 0.0734949,-2.7793189 C 0.72136931,9.3540241 0.90798184,9.2827544 1.1466912,9.3268684 1.2474039,9.3454803 1.3535318,9.4358313 1.8394155,9.9166113 2.1550002,10.228881 2.4327346,10.529627 2.456603,10.584934 2.4915003,10.665797 2.5,10.961002 2.5,12.092164 v 1.406672 l 2.3414725,0.0084 c 2.3095147,0.0083 2.34265,0.0093 2.4277566,0.07282 0.2129728,0.159033 0.2151459,0.168325 0.2151459,0.919944 0,0.751622 -0.00218,0.760918 -0.2151519,0.919944 -0.085669,0.06397 -0.1089159,0.06448 -3.232444,0.07126 -2.5678494,0.0056 -3.16367135,-8.47e-4 -3.24145338,-0.03492 z M 7,14.5 V 14 H 4.5 2 V 12.398071 10.796143 L 1.5,10.296875 1,9.7976075 V 12.398804 15 h 3 3 z m 1.7953256,0.95628 C 8.6699184,15.40134 8.5384247,15.241924 8.5148763,15.116267 c -0.010374,-0.05535 -0.014449,-0.370361 -0.00906,-0.700018 0.01073,-0.655927 0.017564,-0.681332 0.2249506,-0.836193 0.085107,-0.06355 0.1182419,-0.06455 2.4277571,-0.07282 L 13.5,13.498836 v -1.391047 c 0,-1.11783 0.0085,-1.410797 0.0434,-1.491605 0.02387,-0.05531 0.301603,-0.356053 0.617188,-0.6683228 0.485883,-0.4807799 0.592011,-0.5711309 0.692724,-0.5897428 0.238716,-0.044116 0.425335,0.02716 0.566635,0.2164166 0.06394,0.085637 0.06443,0.1074541 0.06443,2.84734 0,2.739886 -4.94e-4,2.761703 -0.06443,2.84734 -0.03544,0.04746 -0.103261,0.115292 -0.150721,0.150729 -0.08567,0.06397 -0.108916,0.06448 -3.232444,0.07126 -2.5678493,0.0056 -3.1636712,-8.47e-4 -3.2414534,-0.03492 z M 15,12.414429 V 9.8288575 L 14.5,10.328125 14,10.827393 V 12.413696 14 H 11.5 9 v 0.5 0.5 h 3 3 z m -3.23403,-0.745705 c -0.153273,-0.0561 -0.351138,-0.241144 -0.413661,-0.386865 -0.03585,-0.08356 -0.05057,-0.302379 -0.06353,-0.944285 L 11.271918,9.5020538 10.04446,9.4932144 C 8.8606875,9.4846897 8.8139313,9.4820819 8.7307441,9.4199441 8.6833025,9.3845072 8.6154928,9.3166791 8.5800559,9.269215 8.5176359,9.1856103 8.515625,9.1459963 8.515625,8 c 0,-1.1459962 0.00201,-1.1856103 0.064431,-1.269215 0.035437,-0.047464 0.1032466,-0.1152922 0.1506882,-0.1507291 0.083201,-0.062148 0.1299046,-0.064744 1.3183818,-0.073282 l 1.232124,-0.00885 V 5.6854572 c 0,-0.6232222 0.01009,-0.8358872 0.04331,-0.9130235 0.05336,-0.1238984 0.28527,-0.3509771 0.404041,-0.3956184 0.12973,-0.048761 0.475,-0.040182 0.608344,0.015115 0.08006,0.0332 0.608725,0.5408766 1.700319,1.6328125 1.66773,1.6682538 1.711368,1.7190182 1.711368,1.9908819 0,0.2723563 -0.04227,0.3214084 -1.726988,2.0039753 -1.445508,1.443664 -1.614615,1.602615 -1.753769,1.648438 -0.186228,0.06132 -0.335663,0.06153 -0.501901,6.87e-4 z M 13.511157,9.8158484 C 14.264949,9.0663506 14.964744,8.3576259 15.066258,8.240905 15.230621,8.0519175 15.246952,8.0211281 15.215437,7.959655 15.195973,7.9216884 14.495589,7.2050781 13.659028,6.3671875 12.248918,4.9548366 12.130274,4.84375 12.031955,4.84375 c -0.06588,0 -0.133451,0.02574 -0.178378,0.067947 l -0.07233,0.067947 V 5.9898222 7 H 10.390625 9 v 1 1 h 1.386342 1.386341 l 0.01485,1.029762 c 0.01566,1.086341 0.01799,1.102799 0.163345,1.15657 0.03433,0.0127 0.09107,0.01615 0.126084,0.0077 0.03502,-0.0085 0.680405,-0.628651 1.434198,-1.3781486 z M 3.6875,11.638029 C 3.6183394,11.608295 2.9956797,11.008402 1.9939903,10.00644 0.32624753,8.3382444 0.28262263,8.2874959 0.28262263,8.015625 c 0,-0.2723994 0.042222,-0.3214481 1.72688807,-2.0061144 C 3.6811916,4.33783 3.7438981,4.2835119 4.0038834,4.2819362 c 0.2632763,-0.0016 0.5727438,0.1977985 0.6743394,0.4344854 0.034884,0.081269 0.050212,0.3086515 0.063654,0.9442743 l 0.017706,0.8372285 1.2117087,0.00885 c 1.1678497,0.00853 1.2148313,0.011182 1.2979657,0.073281 0.047441,0.035437 0.1152503,0.103265 0.1506872,0.1507291 0.06242,0.083605 0.064431,0.1232187 0.064431,1.269215 0,1.1459963 -0.00201,1.1856103 -0.064431,1.269215 -0.035437,0.047464 -0.1032463,0.1152922 -0.1506872,0.1507291 -0.083149,0.06211 -0.1300766,0.06475 -1.3027566,0.073294 L 4.75,9.5021013 v 0.8250397 c 0,0.503962 -0.012868,0.859276 -0.033065,0.913012 -0.044641,0.118771 -0.27172,0.350684 -0.3956184,0.404041 -0.1319835,0.05684 -0.4954979,0.0533 -0.6338163,-0.0062 z M 4.1776734,11.119553 4.25,11.051605 V 10.025803 9 H 5.625 7 V 8 7 H 5.6294491 4.2588984 L 4.2432319,5.9682687 C 4.2293425,5.0535594 4.2215194,4.9298562 4.1742587,4.8776341 4.0691466,4.7614866 4.007905,4.7757266 3.7870709,4.9676656 3.496055,5.2206028 0.86049566,7.8750841 0.81640894,7.959655 0.78424464,8.021355 0.80000604,8.051219 0.96484756,8.240905 1.0662807,8.3576259 1.7673564,9.0683594 2.5227936,9.8203125 3.7843828,11.076083 3.9048331,11.1875 4.0008312,11.1875 c 0.064299,0 0.132346,-0.02614 0.1768422,-0.06795 z M 0.79532572,6.6747937 C 0.66960434,6.6200331 0.53819019,6.4603969 0.51561847,6.3350175 0.50565331,6.2796641 0.50157812,5.0154794 0.5065625,3.5257181 0.51552872,0.84584203 0.51630959,0.81614466 0.58005591,0.73077416 0.61549288,0.68331609 0.68332097,0.61549288 0.73078497,0.58005591 0.81662381,0.51596794 0.83402475,0.515625 4,0.515625 c 3.1659753,0 3.1833762,3.4281e-4 3.269215,0.0644309 0.2129844,0.15901579 0.21516,0.16831785 0.21516,0.9199441 0,0.7516188 -0.00217,0.7609112 -0.2151459,0.9199441 -0.085107,0.063551 -0.1182419,0.064545 -2.4277566,0.072825 L 2.5,2.5011637 V 3.9234606 C 2.5,5.0728922 2.49162,5.3650494 2.456308,5.4463163 2.4006358,5.5744475 1.3260675,6.6423544 1.2089031,6.6859881 1.0902915,6.7301606 0.91131681,6.7253166 0.79532572,6.6747937 Z M 2,3.6175538 V 2 H 4.5 7 V 1.5 1 H 4 1 V 3.6168213 6.2336425 L 1.5,5.734375 2,5.2351075 Z M 14.734375,6.6130269 C 14.607319,6.5530694 13.573835,5.5066728 13.532765,5.3964031 13.511704,5.3398547 13.5,4.807055 13.5,3.9047975 V 2.5011637 l -2.341472,-0.00839 C 8.8490128,2.4844896 8.8158775,2.4834956 8.7307709,2.4199441 8.5177981,2.2609112 8.515625,2.2516188 8.515625,1.5 8.515625,0.74837375 8.5178,0.73907169 8.730785,0.58005591 8.8166238,0.51596794 8.8340247,0.515625 12,0.515625 c 3.165975,0 3.183376,3.4281e-4 3.269215,0.0644309 0.04746,0.035437 0.115292,0.10325359 0.150729,0.15070359 0.06292,0.0842487 0.06462,0.12489309 0.07234,1.73244411 0.0044,0.9053942 -0.0027,2.147893 -0.01563,2.761108 -0.02232,1.057619 -0.02685,1.1193712 -0.08797,1.201194 -0.03544,0.047442 -0.101651,0.1140463 -0.147142,0.14801 -0.105658,0.078885 -0.378669,0.1001538 -0.507177,0.039511 z M 14.995763,2.7109375 15,1 H 12 9 V 1.5 2 h 2.5 2.5 v 1.6011959 1.601196 l 0.476563,0.4774093 0.476562,0.4774097 0.0192,-0.8676681 c 0.01056,-0.4772172 0.02111,-1.6375897 0.02344,-2.5786053 z"
       id="path819"
       inkscape:connector-curvature="0" />
  </g>
</svg>
