<?xml version="1.0" encoding="UTF-8" standalone="no"?>
<!-- Created with Inkscape (http://www.inkscape.org/) -->

<svg
   version="1.1"
   id="svg2"
   width="1600"
   height="1600"
   viewBox="0 0 1600 1600"
   sodipodi:docname="viewcameracenter.svg"
   inkscape:version="1.2.2 (732a01da63, 2022-12-09)"
   xmlns:inkscape="http://www.inkscape.org/namespaces/inkscape"
   xmlns:sodipodi="http://sodipodi.sourceforge.net/DTD/sodipodi-0.dtd"
   xmlns="http://www.w3.org/2000/svg"
   xmlns:svg="http://www.w3.org/2000/svg"
   xmlns:rdf="http://www.w3.org/1999/02/22-rdf-syntax-ns#"
   xmlns:cc="http://creativecommons.org/ns#"
   xmlns:dc="http://purl.org/dc/elements/1.1/">
  <metadata
     id="metadata8">
    <rdf:RDF>
      <cc:Work
         rdf:about="">
        <dc:format>image/svg+xml</dc:format>
        <dc:type
           rdf:resource="http://purl.org/dc/dcmitype/StillImage" />
      </cc:Work>
    </rdf:RDF>
  </metadata>
  <defs
     id="defs6" />
  <sodipodi:namedview
     pagecolor="#808080"
     bordercolor="#666666"
     borderopacity="1"
     objecttolerance="10"
     gridtolerance="10"
     guidetolerance="10"
     inkscape:pageopacity="0"
     inkscape:pageshadow="2"
     inkscape:window-width="1993"
     inkscape:window-height="1009"
     id="namedview4"
     showgrid="false"
     inkscape:zoom="0.5"
     inkscape:cx="9"
     inkscape:cy="8"
     inkscape:window-x="-8"
     inkscape:window-y="-8"
     inkscape:window-maximized="1"
     inkscape:current-layer="VIEWCAMERACENTER"
     inkscape:showpageshadow="0"
     inkscape:pagecheckerboard="true"
     inkscape:deskcolor="#d1d1d1" />
  <g
     id="VIEWCAMERACENTER"
     transform="matrix(100,0,0,100,0,4.9999997e-5)"
     style="stroke-width:0.0114286">
    <path
       style="fill:none;stroke-width:0.000357143"
       d="M 7,15.5 V 15 H 4 1 V 12 9 H 0.5 0 V 8 7 H 0.5 1 V 4 1 H 4 7 V 0.5 0 H 8 9 V 0.5 1 h 3 3 V 4 7 H 15.5 16 V 8 9 H 15.5 15 v 3 3 H 12 9 V 15.5 16 H 8 7 Z m 6.401627,-3.078502 c 0.0748,-0.04276 0.14796,-0.07775 0.162575,-0.07775 0.04275,0 0.327091,-0.296547 0.404612,-0.421979 0.0391,-0.06327 0.09727,-0.214738 0.129265,-0.336601 0.05476,-0.208561 0.05817,-0.395067 0.05817,-3.1769059 0,-2.8305944 -0.0026,-2.964281 -0.06059,-3.1672091 -0.03332,-0.1165271 -0.0907,-0.2605955 -0.12751,-0.3201505 C 13.894695,4.8020519 13.602435,4.5 13.56089,4.5 13.54655,4.5 13.48128,4.468359 13.415849,4.429688 13.298808,4.360518 13.277206,4.359221 12.085938,4.349875 L 10.875,4.340375 V 3.6712478 c 0,-0.7601443 -0.01744,-0.8356 -0.219351,-0.9490805 C 10.539511,2.6568943 10.517491,2.6562513 8.4019953,2.6563663 6.3253512,2.6564788 6.2627775,2.6582163 6.1637769,2.7185803 5.9514953,2.84801 5.9377472,2.9054848 5.9376169,3.6640616 L 5.9375,4.34375 H 5.53125 5.125 V 4.0760706 C 5.125,3.7932694 5.1038969,3.7244472 4.97471,3.5859375 L 4.8945569,3.5 H 4.3097784 3.725 L 3.6125,3.6125 3.5,3.725 v 0.30568 0.3056797 l -0.3998517,0.012458 c -0.3431177,0.010691 -0.4165318,0.0223 -0.5174112,0.08182 C 2.5180793,4.4687872 2.4534469,4.5 2.4391096,4.5 2.3979618,4.5 2.1056237,4.8015359 2.033267,4.9186116 1.8723941,5.1789091 1.8757014,5.1075837 1.8753382,8.3245219 c -3.587e-4,3.1778911 0.00462,3.2981241 0.1461497,3.5264201 0.039744,0.06411 0.072262,0.125271 0.072262,0.135912 0,0.05344 0.3487089,0.350435 0.4995425,0.425463 l 0.1723325,0.08572 5.25,6.04e-4 5.2500001,6.03e-4 0.136002,-0.07775 z"
       id="path829"
       inkscape:connector-curvature="0" />
    <path
       style="fill:#fefefe;stroke-width:0.000357143"
       d="M 0,12.5 V 9 H 0.5 1 v 3 3 H 4 7 V 15.5 16 H 3.5 0 Z m 9,3 V 15 h 3 3 V 12 9 H 15.5 16 V 12.5 16 H 12.5 9 Z M 6.9286634,8.7803481 C 6.8636472,8.7639597 6.7933347,8.7365766 6.7724134,8.7194966 6.7514925,8.7024166 6.6886372,8.6517947 6.6327353,8.6070034 6.4937444,8.4956366 6.34375,8.1805788 6.34375,8 6.34375,7.8194212 6.4937444,7.5043634 6.6327353,7.3929966 6.6886372,7.3482053 6.7513891,7.29768 6.7721837,7.2807178 6.8417216,7.2239975 7.13347,7.1798903 7.3054294,7.2001009 7.7882434,7.2568463 8.1018272,7.7483619 7.9629763,8.2307494 7.9096597,8.4159778 7.7600094,8.6131953 7.6029125,8.70526 7.4487375,8.7956125 7.1300303,8.8311056 6.9286634,8.7803481 Z M 0,3.5 V 0 H 3.5 7 V 0.5 1 H 4 1 V 4 7 H 0.5 0 Z M 15,4 V 1 H 12 9 V 0.5 0 H 12.5 16 V 3.5 7 H 15.5 15 Z M 2.28125,5.8761569 c 0,-0.54267 0.045757,-0.7118681 0.2427594,-0.8976653 C 2.7714379,4.7451366 2.2443702,4.765625 8,4.765625 c 5.762685,0 5.227868,-0.021143 5.479991,0.2166391 0.196438,0.1852653 0.26854,0.4388809 0.26935,0.9474234 L 13.75,6.34375 h -1.8125 c -0.996875,0 -1.8125,-0.01143 -1.8125,-0.0254 0,-0.01397 -0.09307,-0.1159231 -0.2068294,-0.2265625 C 9.6236775,5.8053628 9.5965994,5.78125 9.569445,5.78125 9.556077,5.78125 9.521059,5.753125 9.491626,5.71875 9.462193,5.684375 9.41688,5.65625 9.390931,5.65625 9.364981,5.65625 9.343661,5.645703 9.343553,5.632813 9.3433025,5.6041353 9.1652294,5.5002672 9.114655,5.499305 9.0945634,5.4989228 9.0429688,5.4711106 9,5.4375 8.9570313,5.4038894 8.8999069,5.3760772 8.8730572,5.375695 8.8462075,5.3753137 8.7647797,5.3462722 8.6921069,5.3111606 8.5026891,5.2196438 7.9442856,5.125 7.59375,5.125 7.2482494,5.125 6.7025166,5.2165456 6.4619062,5.3148647 6.0916609,5.4661559 5.65625,5.7037219 5.65625,5.7544419 c 0,0.014744 -0.017578,0.026868 -0.039063,0.026941 C 5.5686622,5.7815387 5.0625,6.2640887 5.0625,6.310185 5.0625,6.3336022 4.6420684,6.34375 3.671875,6.34375 H 2.28125 Z"
       id="path827"
       inkscape:connector-curvature="0" />
    <path
       style="fill:#98cbfe;stroke-width:0.000357143"
       d="m 7.21875,9.9902569 c -0.2797141,-0.075439 -0.4375,-0.14053 -0.4375,-0.1804816 0,-0.013168 -0.020609,-0.028489 -0.045798,-0.034047 C 6.6125062,9.748605 6.21875,9.3463184 6.21875,9.2478331 c 0,-0.015996 -0.010865,-0.029083 -0.024144,-0.029083 -0.090443,0 -0.2748403,-0.6807606 -0.2449137,-0.9041784 0.035037,-0.2615682 0.1175644,-0.5062841 0.25519,-0.7567075 0.073043,-0.1329097 0.3192837,-0.3922413 0.4449153,-0.4685688 0.063705,-0.038704 0.1237309,-0.081729 0.1333909,-0.095611 0.00966,-0.013882 0.1362229,-0.067081 0.28125,-0.1182207 0.2071238,-0.073035 0.3173572,-0.093113 0.5138925,-0.093597 0.2537507,-6.25e-4 0.3141932,0.011103 0.5935438,0.1151728 0.4230072,0.1575878 0.7734978,0.5080784 0.9310856,0.9310856 0.1040697,0.2793506 0.1157981,0.3397931 0.1151728,0.5935437 -4.843e-4,0.1965354 -0.020561,0.3067688 -0.093597,0.5138925 -0.051139,0.1450272 -0.1043385,0.2715897 -0.1182207,0.28125 -0.013882,0.00966 -0.056907,0.069686 -0.095611,0.133391 C 8.8343772,9.4758338 8.5750456,9.7220744 8.4421359,9.7951175 7.9841072,10.046837 7.6350075,10.102521 7.21875,9.9902569 Z M 7.6029125,8.70526 C 7.9114341,8.5244544 8.0652559,8.1245844 7.9629763,7.7692506 7.874045,7.4602916 7.6155531,7.2365497 7.3054294,7.2001009 7.13347,7.1798903 6.8417216,7.2239975 6.7721838,7.2807178 6.7513891,7.29768 6.6886372,7.3482053 6.6327353,7.3929966 6.4937444,7.5043634 6.34375,7.8194213 6.34375,8 c 0,0.1805788 0.1499944,0.4956366 0.2889853,0.6070034 0.055902,0.044791 0.1187572,0.095413 0.1396781,0.1124932 0.1421263,0.1160312 0.6222588,0.1078006 0.8304991,-0.014237 z"
       id="path825"
       inkscape:connector-curvature="0" />
    <path
       style="fill:#cbcbcb;stroke-width:0.000357143"
       d="M 2.8762148,12.071061 C 2.7856688,12.053829 2.5714611,11.910011 2.4887817,11.810941 2.417633,11.725687 2.3548114,11.579079 2.3166502,11.409237 l -0.028757,-0.127987 1.8482408,3.97e-4 1.8482406,3.97e-4 0.1875,0.09592 c 0.8140744,0.41644 2.0305859,0.409675 2.875,-0.01599 l 0.15625,-0.07876 2.2701164,-9.79e-4 2.270116,-9.78e-4 -0.02642,0.117559 c -0.06529,0.290599 -0.211546,0.497446 -0.439685,0.621851 -0.101005,0.05508 -0.317623,0.05762 -5.2147574,0.06125 -2.8101563,0.0021 -5.1439846,-0.0028 -5.1862852,-0.01085 z M 3.90625,4.125 V 3.90625 H 4.3125 4.71875 V 4.125 4.34375 H 4.3125 3.90625 Z M 6.34375,3.703125 V 3.0625 h 2.0625 2.0625 V 3.703125 4.34375 h -2.0625 -2.0625 z"
       id="path823"
       inkscape:connector-curvature="0" />
    <path
       style="fill:#656565;stroke-width:0.000357143"
       d="M 7.0758678,11.233415 C 6.9371263,11.211746 6.7472825,11.162863 6.6539928,11.124786 6.4303506,11.033503 6.0821981,10.869641 6.0625,10.846391 6.0539062,10.836248 5.9837728,10.785801 5.9066478,10.734287 5.7264119,10.613902 5.3860981,10.273588 5.2657128,10.093352 5.2141988,10.016227 5.1637519,9.9460937 5.1536087,9.9375 5.1304494,9.9178781 4.9664653,9.5696275 4.876565,9.3491462 4.7981178,9.1567547 4.7182487,8.6696094 4.7198584,8.3933478 4.7210741,8.1847391 4.7882097,7.7260781 4.8391856,7.578125 4.94557,7.2693525 5.0963616,6.9574525 5.2168897,6.796875 5.2684928,6.728125 5.3357247,6.6369516 5.3662941,6.5942675 5.4561159,6.4688491 5.7096044,6.21875 5.7469003,6.21875 c 0.018892,0 0.03435,-0.012771 0.03435,-0.028381 0,-0.015609 0.063256,-0.068344 0.1405691,-0.1171875 0.077313,-0.048844 0.1405943,-0.099354 0.140625,-0.1122444 3.09e-5,-0.012891 0.021429,-0.023437 0.047552,-0.023437 0.026123,0 0.1031872,-0.035156 0.1712541,-0.078125 0.068067,-0.042969 0.1377237,-0.078125 0.1547931,-0.078125 0.017069,0 0.091177,-0.026932 0.1646835,-0.059849 C 6.79884,5.6326837 7.1663072,5.5570222 7.484375,5.5394572 c 0.2651962,-0.014645 0.3713809,-0.00153 0.9221713,0.113915 0.1660268,0.034799 0.7560362,0.334929 0.8990268,0.4573234 0.06943,0.05943 0.1333972,0.1080544 0.1421485,0.1080544 0.020201,0 0.3335284,0.3141144 0.3335284,0.3343656 0,0.00829 0.048624,0.071881 0.1080544,0.1413113 0.1223946,0.1429906 0.4225246,0.733 0.4573236,0.8990269 0.115443,0.5507903 0.12856,0.656975 0.113915,0.9221712 -0.01756,0.3180678 -0.09323,0.685535 -0.181944,0.8836484 -0.03292,0.073507 -0.05985,0.1476144 -0.05985,0.1646835 0,0.017069 -0.03516,0.086726 -0.07813,0.1547931 -0.04297,0.068067 -0.07813,0.1451313 -0.07813,0.1712541 0,0.026123 -0.01055,0.047521 -0.02344,0.047552 -0.01289,3.07e-5 -0.063401,0.063312 -0.1122449,0.1406249 -0.048844,0.07731 -0.1015784,0.140569 -0.1171875,0.140569 -0.015609,0 -0.028381,0.01461 -0.028381,0.03247 0,0.03576 -0.2545819,0.294579 -0.3762156,0.382482 -0.0423,0.03057 -0.1331594,0.0978 -0.2019094,0.149404 -0.1214209,0.09114 -0.3550431,0.213131 -0.578125,0.301888 -0.4624797,0.184003 -0.9947644,0.235 -1.5491322,0.148417 z M 8.0676759,10.393992 C 8.3281653,10.32949 8.4310025,10.291151 8.6125128,10.190873 8.7524759,10.113548 8.9325841,9.9737144 9.05191,9.8497303 9.2139462,9.6813688 9.5,9.2335175 9.5,9.1481922 9.5,9.1165422 9.523792,9.0456416 9.55287,8.9906356 9.59186,8.9168816 9.609244,8.785855 9.619085,8.4915534 9.63065,8.1456884 9.623295,8.0623597 9.563892,7.8665534 9.4887572,7.6188759 9.3588897,7.3431256 9.2734375,7.2498241 9.2433594,7.2169831 9.21875,7.1779987 9.21875,7.1631922 9.21875,7.1483852 9.187109,7.1063012 9.148438,7.0696712 9.0599512,6.9858572 9.0141428,6.9400487 8.9303287,6.8515625 8.8936991,6.8128906 8.8516144,6.78125 8.8368078,6.78125 8.8220008,6.78125 8.7830168,6.756641 8.7501758,6.726563 8.5753944,6.566485 8.0485162,6.3793703 7.6961478,6.3522369 7.4616541,6.33418 7.1463584,6.3815819 6.9937394,6.4578372 6.9473272,6.4810266 6.8834581,6.5 6.8518078,6.5 6.7664825,6.5 6.3186312,6.7860537 6.1502697,6.94809 6.0262856,7.0674159 5.8864519,7.2475241 5.8091269,7.3874872 5.7088487,7.5689975 5.6705103,7.6718347 5.6060078,7.9323241 5.4991962,8.3636769 5.5057719,8.5207087 5.6539872,9.078125 5.7118294,9.29566 5.9357728,9.6561675 6.1398025,9.8601975 6.3504287,10.070823 6.7057603,10.288928 6.9375,10.349828 c 0.060156,0.01581 0.1796875,0.04748 0.265625,0.07038 0.2448522,0.06524 0.5301475,0.05659 0.8645509,-0.02621 z"
       id="path821"
       inkscape:connector-curvature="0" />
    <path
       style="fill:#323232;stroke-width:0.000357143"
       d="M 2.5932925,12.412317 C 2.4424589,12.337289 2.09375,12.040292 2.09375,11.986854 c 0,-0.01064 -0.032518,-0.0718 -0.072262,-0.135912 C 1.8799625,11.622646 1.8749795,11.502413 1.8753382,8.3245219 1.8757014,5.1075837 1.8723941,5.1789091 2.033267,4.9186116 2.1056237,4.8015359 2.3979618,4.5 2.4391096,4.5 2.4534466,4.5 2.5180796,4.468787 2.5827371,4.430638 2.6836165,4.371118 2.7570306,4.359509 3.1001483,4.348818 L 3.5,4.3363597 V 4.03068 3.725 L 3.6125,3.6125 3.725,3.5 H 4.3097784 4.8945569 L 4.97471,3.5859375 C 5.1038969,3.7244472 5.125,3.7932694 5.125,4.0760706 V 4.34375 H 5.53125 5.9375 L 5.937625,3.6640625 C 5.93775,2.9054857 5.9515034,2.8480109 6.163785,2.7185812 6.2627856,2.6582197 6.3253594,2.6564804 8.4020034,2.6563668 10.517499,2.6562512 10.539519,2.656894 10.655658,2.7221673 10.857561,2.8356478 10.875,2.9111035 10.875,3.6712478 V 4.340375 l 1.210938,0.0095 c 1.191268,0.00935 1.21287,0.010642 1.329911,0.079813 C 13.481284,4.4683594 13.546553,4.5 13.56089,4.5 c 0.04154,0 0.333805,0.3020519 0.407259,0.4209025 0.03681,0.059555 0.09419,0.2036234 0.127511,0.3201525 0.05803,0.2029281 0.06059,0.3366147 0.06059,3.1672091 0,2.7818389 -0.0034,2.9683449 -0.05817,3.1769059 -0.03199,0.121863 -0.09016,0.273333 -0.129265,0.336601 -0.07752,0.125432 -0.361863,0.421979 -0.404612,0.421979 -0.01461,0 -0.08777,0.03499 -0.162575,0.07775 l -0.136002,0.07775 -5.25,-6.03e-4 -5.25,-6.03e-4 -0.1723325,-0.08572 z M 13.277257,12.02066 c 0.228139,-0.124405 0.374392,-0.331252 0.439686,-0.621851 l 0.02641,-0.117559 -2.270116,9.78e-4 -2.270116,9.78e-4 -0.15625,0.07877 c -0.8444141,0.425663 -2.0609256,0.432429 -2.875,0.01599 l -0.1875,-0.09592 -1.8482406,-3.96e-4 -1.8482408,-3.97e-4 0.028757,0.127987 c 0.038161,0.169842 0.1009828,0.31645 0.1721315,0.401704 0.082679,0.09907 0.2968871,0.242888 0.3874331,0.26012 0.042301,0.008 2.3761289,0.01293 5.1862852,0.01085 4.8971336,-0.0036 5.1137526,-0.0062 5.2147566,-0.06125 z M 8.0625,11.236074 c 0.1460938,-0.02363 0.3078125,-0.05749 0.359375,-0.07526 0.3087725,-0.106384 0.6206725,-0.257176 0.78125,-0.377704 0.06875,-0.0516 0.1596091,-0.118835 0.2019094,-0.149404 0.1216337,-0.0879 0.3762156,-0.346725 0.3762156,-0.382482 0,-0.01786 0.012771,-0.03247 0.028381,-0.03247 0.015609,0 0.068343,-0.06326 0.1171875,-0.140569 0.048844,-0.07731 0.099355,-0.1405944 0.1122445,-0.1406251 0.01289,-3.09e-5 0.02344,-0.021429 0.02344,-0.047552 0,-0.026123 0.03516,-0.1031872 0.07813,-0.1712541 0.04297,-0.068067 0.07813,-0.1377237 0.07813,-0.1547931 0,-0.017069 0.02693,-0.091177 0.05985,-0.1646835 0.0887,-0.1981172 0.164365,-0.5655844 0.18193,-0.8836522 0.01464,-0.2651962 0.0015,-0.3713809 -0.113915,-0.9221712 C 10.311829,7.4274269 10.011699,6.8374175 9.8893044,6.6944269 9.8298744,6.6249966 9.78125,6.5614066 9.78125,6.5531156 9.78125,6.5328644 9.4679222,6.21875 9.4477216,6.21875 9.4389716,6.21875 9.3750036,6.170126 9.3055731,6.1106956 9.1625825,5.9883012 8.5725731,5.6881709 8.4065463,5.6533722 7.8557559,5.5379287 7.7495712,5.5248119 7.484375,5.5394572 7.1663072,5.5570222 6.79884,5.6326837 6.6007266,5.7214009 6.52722,5.7543178 6.4531122,5.78125 6.4360431,5.78125 6.4189737,5.78125 6.3493169,5.8164062 6.28125,5.859375 6.2131831,5.9023437 6.1361187,5.9375 6.1099959,5.9375 c -0.026123,0 -0.047521,0.010547 -0.047552,0.023437 -3.07e-5,0.012891 -0.063312,0.063401 -0.140625,0.1122444 -0.077313,0.048844 -0.1405689,0.1015789 -0.1405689,0.117188 0,0.015609 -0.015457,0.028381 -0.03435,0.028381 -0.037296,0 -0.2907844,0.2500991 -0.3806062,0.3755175 C 5.3357247,6.6369516 5.2684928,6.728125 5.2168897,6.796875 5.0963616,6.9574525 4.94557,7.2693525 4.8391856,7.578125 4.7882097,7.7260781 4.7210738,8.1847391 4.7198584,8.3933478 c -0.00161,0.2762616 0.078259,0.7634069 0.1567066,0.9557984 0.0899,0.2204813 0.2538844,0.5687319 0.2770438,0.5883538 0.010143,0.00859 0.06059,0.078727 0.112104,0.155852 0.1203853,0.180236 0.4606991,0.52055 0.640935,0.640935 0.077125,0.05151 0.1472585,0.101961 0.1558522,0.112104 0.019698,0.02325 0.3678506,0.187112 0.5914928,0.278395 0.3443388,0.140546 0.9377128,0.187429 1.4085072,0.111288 z M 7.203125,10.420205 C 7.1171875,10.397307 6.9976563,10.365637 6.9375,10.349828 6.7057603,10.288928 6.3504287,10.070823 6.1398025,9.8601975 5.9357728,9.6561675 5.7118294,9.29566 5.6539872,9.078125 5.5057719,8.5207087 5.4991963,8.3636769 5.6060078,7.9323241 5.6705103,7.6718347 5.7088488,7.5689975 5.8091269,7.3874872 5.8864519,7.2475241 6.0262856,7.0674159 6.1502697,6.94809 6.3186312,6.7860537 6.7664825,6.5 6.8518078,6.5 c 0.03165,0 0.095519,-0.018973 0.1419316,-0.042163 0.152619,-0.076255 0.4679147,-0.1236572 0.7024084,-0.1056003 0.3523684,0.027133 0.8792466,0.2142481 1.0540281,0.3743256 0.032841,0.030078 0.071825,0.054687 0.086632,0.054687 0.014807,0 0.056891,0.031641 0.093521,0.070312 0.083814,0.088486 0.1296225,0.1342947 0.2181088,0.2181087 0.038672,0.03663 0.070312,0.078714 0.070312,0.093521 0,0.014806 0.024609,0.053791 0.054687,0.086632 0.085452,0.093301 0.2153197,0.3690518 0.2904547,0.6167293 0.0594,0.1958063 0.066758,0.279135 0.055193,0.625 -0.00984,0.2943027 -0.027224,0.425329 -0.066214,0.4990833 C 9.5237916,9.0456416 9.5,9.1165419 9.5,9.1481922 9.5,9.2335175 9.2139463,9.6813687 9.05191,9.8497303 8.9325841,9.9737144 8.7524759,10.113548 8.6125128,10.190873 8.4310025,10.291151 8.3281653,10.32949 8.0676759,10.393992 c -0.3344034,0.0828 -0.6196987,0.09145 -0.8645509,0.02621 z M 8.0003134,9.9827875 c 0.1667907,-0.04957 0.2713504,-0.093983 0.4418225,-0.18767 0.1329097,-0.073043 0.3922413,-0.3192838 0.4685688,-0.4449153 0.038704,-0.063705 0.081729,-0.1237309 0.095611,-0.133391 0.013882,-0.00966 0.067081,-0.1362228 0.1182207,-0.28125 C 9.1975719,8.7284375 9.2176491,8.6182041 9.2181334,8.4216687 9.2187584,8.1679181 9.2070303,8.1074756 9.1029606,7.828125 8.9453728,7.4051178 8.5948822,7.0546272 8.171875,6.8970394 7.8925244,6.7929697 7.8320819,6.7812412 7.5783312,6.7818666 7.3817959,6.7823509 7.2715625,6.8024281 7.0644387,6.8754634 6.9194116,6.9266028 6.7928491,6.9798019 6.7831887,6.9936841 6.7735287,7.0075662 6.7135028,7.0505912 6.6497978,7.0892953 6.3025,7.3002962 6.0191222,7.7962447 5.9496925,8.3145716 5.9197659,8.5379894 6.1041628,9.21875 6.1946062,9.21875 c 0.013279,0 0.024144,0.013087 0.024144,0.029083 0,0.098485 0.3937562,0.5007719 0.5167019,0.5278956 0.025189,0.00556 0.045798,0.020878 0.045798,0.034047 0,0.039952 0.1577859,0.1050428 0.4375,0.1804816 0.2951644,0.079605 0.4950066,0.077696 0.7815633,-0.00747 z M 5.0625,6.310185 c 0,-0.046096 0.5061622,-0.5286378 0.5546875,-0.5288025 0.021484,-6.25e-5 0.039063,-0.012196 0.039063,-0.026941 0,-0.05072 0.4354109,-0.288286 0.8056562,-0.4395772 C 6.7025166,5.2165456 7.2482494,5.125 7.59375,5.125 c 0.3505356,0 0.9089391,0.094644 1.0983569,0.1861606 0.072673,0.035112 0.1541006,0.064152 0.1809503,0.064534 C 8.8999069,5.3760763 8.9570313,5.4038894 9,5.4375 c 0.042969,0.033611 0.094563,0.061423 0.114655,0.061805 0.050574,9.625e-4 0.2286556,0.1048303 0.2288975,0.1335075 9.38e-5,0.012891 0.021429,0.023437 0.047378,0.023437 0.025949,0 0.071262,0.028125 0.100695,0.0625 0.029433,0.034375 0.064451,0.0625 0.077819,0.0625 0.027154,0 0.054232,0.024113 0.3487256,0.3105372 0.1137569,0.1106399 0.2068299,0.212593 0.2068299,0.226563 0,0.01397 0.815625,0.0254 1.8125,0.0254 H 13.75 L 13.749341,5.9296875 C 13.748531,5.421145 13.676429,5.1675294 13.479991,4.9822641 13.227868,4.7444822 13.762685,4.765625 8,4.765625 2.2443702,4.765625 2.7714379,4.7451366 2.5240094,4.9784916 2.327007,5.1642887 2.28125,5.3334869 2.28125,5.8761569 V 6.34375 H 3.671875 C 4.6420684,6.34375 5.0625,6.333602 5.0625,6.310185 Z M 4.71875,4.125 V 3.90625 H 4.3125 3.90625 V 4.125 4.34375 H 4.3125 4.71875 Z m 5.75,-0.421875 V 3.0625 H 8.40625 6.34375 V 3.703125 4.34375 h 2.0625 2.0625 z"
       id="path819"
       inkscape:connector-curvature="0" />
  </g>
</svg>
