<?xml version="1.0" encoding="UTF-8" standalone="no"?>
<!-- Created with Inkscape (http://www.inkscape.org/) -->

<svg
   version="1.1"
   id="svg2"
   width="1600"
   height="1600"
   viewBox="0 0 1600 1600"
   sodipodi:docname="view_fill.svg"
   inkscape:version="1.2.2 (732a01da63, 2022-12-09)"
   xmlns:inkscape="http://www.inkscape.org/namespaces/inkscape"
   xmlns:sodipodi="http://sodipodi.sourceforge.net/DTD/sodipodi-0.dtd"
   xmlns="http://www.w3.org/2000/svg"
   xmlns:svg="http://www.w3.org/2000/svg"
   xmlns:rdf="http://www.w3.org/1999/02/22-rdf-syntax-ns#"
   xmlns:cc="http://creativecommons.org/ns#"
   xmlns:dc="http://purl.org/dc/elements/1.1/">
  <metadata
     id="metadata8">
    <rdf:RDF>
      <cc:Work
         rdf:about="">
        <dc:format>image/svg+xml</dc:format>
        <dc:type
           rdf:resource="http://purl.org/dc/dcmitype/StillImage" />
      </cc:Work>
    </rdf:RDF>
  </metadata>
  <defs
     id="defs6" />
  <sodipodi:namedview
     pagecolor="#808080"
     bordercolor="#666666"
     borderopacity="1"
     objecttolerance="10"
     gridtolerance="10"
     guidetolerance="10"
     inkscape:pageopacity="0"
     inkscape:pageshadow="2"
     inkscape:window-width="1993"
     inkscape:window-height="1009"
     id="namedview4"
     showgrid="false"
     inkscape:zoom="0.5"
     inkscape:cx="197"
     inkscape:cy="186"
     inkscape:window-x="-8"
     inkscape:window-y="-8"
     inkscape:window-maximized="1"
     inkscape:current-layer="VIEW_FILL"
     inkscape:showpageshadow="0"
     inkscape:pagecheckerboard="true"
     inkscape:deskcolor="#d1d1d1" />
  <g
     id="VIEW_FILL"
     transform="matrix(100,0,0,100,0,4.9999997e-5)"
     style="stroke-width:0.0114286">
    <path
       style="fill:none;stroke-width:0.000357143"
       d="M 0,8 V 0 h 8 8 v 8 8 H 8 0 Z m 7.2692231,7.419944 C 7.4822009,15.260918 7.484375,15.251622 7.484375,14.5 c 0,-0.751619 -0.00217,-0.760911 -0.2151459,-0.919944 -0.085106,-0.06355 -0.1182472,-0.06455 -2.4271754,-0.07282 l -2.3408909,-0.0084 -0.00839,-2.340891 C 2.4844896,8.8490181 2.4834952,8.8158772 2.4199441,8.7307709 2.2609112,8.5177981 2.2516188,8.515625 1.5,8.515625 c -0.75162178,0 -0.76091794,0.00217 -0.91994409,0.2151516 -0.0639149,0.085598 -0.0645033,0.1111125 -0.0734619,3.1855694 -0.004967,1.704603 -8.9188e-4,3.144568 0.009056,3.199922 0.0225086,0.125245 0.15381368,0.284878 0.27967578,0.340012 0.077782,0.03407 0.67360401,0.04049 3.24145341,0.03492 3.1235281,-0.0068 3.1467746,-0.0073 3.232444,-0.07126 z m 7.9999999,0 c 0.04746,-0.03544 0.115284,-0.103265 0.150721,-0.150729 0.06409,-0.08584 0.06443,-0.10324 0.06443,-3.269215 0,-3.1659753 -3.44e-4,-3.1833762 -0.06443,-3.269215 C 15.260928,8.5178006 15.251626,8.515625 14.5,8.515625 c -0.751619,0 -0.760911,0.00217 -0.919944,0.2151459 -0.06355,0.085106 -0.06455,0.1182472 -0.07282,2.4271751 l -0.0084,2.340891 -2.340891,0.0084 c -2.3089279,0.0083 -2.3420688,0.0093 -2.4271751,0.07282 -0.2073865,0.154861 -0.2142209,0.180267 -0.2249506,0.836193 -0.011291,0.690233 -0.00205,0.765043 0.1110613,0.899473 0.1615387,0.191978 -0.014801,0.18293 3.4198974,0.175478 3.123528,-0.0068 3.146775,-0.0073 3.232444,-0.07126 z M 13,8 V 3 H 8 3 v 5 5 h 5 5 z M 2.2693105,7.4199441 c 0.047411,-0.035437 0.1151966,-0.1032588 0.1506336,-0.150715 0.063551,-0.085106 0.064545,-0.1182472 0.072825,-2.4271754 L 2.5011591,2.5011628 4.84205,2.4927728 C 7.1509819,2.4844896 7.1841228,2.4834953 7.2692291,2.4199441 7.4822019,2.2609112 7.484375,2.2516188 7.484375,1.5 7.484375,0.74837375 7.482195,0.73907169 7.269215,0.58005591 7.1833762,0.51596794 7.1659753,0.515625 4,0.515625 c -3.16597525,0 -3.18337619,3.4281e-4 -3.26921503,0.0644309 -0.047464,0.035437 -0.11529209,0.10326125 -0.15072906,0.15072059 -0.0639149,0.0855986 -0.0645033,0.11111269 -0.0734619,3.18556911 -0.004967,1.7046038 -8.9187e-4,3.1445685 0.009056,3.1999219 0.009948,0.055353 0.0555021,0.1451081 0.10123175,0.1994547 0.14527975,0.172655 0.20679547,0.184434 0.91998474,0.1761547 0.5974616,-0.00694 0.6527482,-0.012365 0.732444,-0.071933 z m 13.0000005,0 c 0.04741,-0.035437 0.115196,-0.103265 0.150633,-0.1507291 0.06409,-0.085839 0.06443,-0.1032397 0.06443,-3.269215 0,-3.16597525 -3.44e-4,-3.18337619 -0.06443,-3.26921503 C 15.384507,0.68332097 15.316679,0.61549288 15.269215,0.58005591 15.183376,0.51596794 15.165975,0.515625 12,0.515625 c -3.1659753,0 -3.1833762,3.4294e-4 -3.269215,0.0644309 C 8.5178006,0.73907169 8.515625,0.74837375 8.515625,1.5 c 0,0.7516188 0.00217,0.7609112 0.2151459,0.9199441 0.085107,0.063551 0.1182419,0.064545 2.4277571,0.072825 L 13.5,2.5011637 v 2.2942588 c 0,1.5492084 0.01082,2.3228272 0.03333,2.3822306 0.01833,0.048385 0.06404,0.1214053 0.101562,0.1622688 0.135463,0.1475056 0.209583,0.1599928 0.901973,0.151955 0.597461,-0.00694 0.652748,-0.012365 0.732444,-0.071933 z"
       id="path823"
       inkscape:connector-curvature="0" />
    <path
       style="fill:#fefefe;stroke-width:0.000357143"
       d="M 1,12 V 9 H 1.5 2 v 2.5 2.5 h 1.5875 c 1.1930556,0 1.5968175,0.0093 1.625,0.0375 0.029167,0.02917 0.0375,0.02917 0.0375,0 C 5.25,14.009226 5.4652778,14 6.125,14 H 7 V 14.5 15 H 4 1 Z m 8,2.5 V 14 H 11.5 14 V 11.5 9 h 0.5 0.5 v 3 3 H 12 9 Z M 3,8 V 3 h 5 5 v 5 5 H 8 3 Z M 1,4 V 1 H 4 7 V 1.5 2 H 4.5 2 V 4.5 7 H 1.5 1 Z M 14,4.5 V 2 H 11.5 9 V 1.5 1 h 3 3 V 4 7 H 14.5 14 Z"
       id="path821"
       inkscape:connector-curvature="0" />
    <path
       style="fill:#323232;stroke-width:0.000357143"
       d="M 0.79532572,15.45628 C 0.66946362,15.401146 0.5381585,15.241513 0.51564994,15.116267 0.50570213,15.060914 0.50162694,13.620949 0.506594,11.916346 0.51555266,8.8418891 0.51614103,8.816375 0.58005591,8.7307766 0.73908206,8.5177991 0.74837822,8.515625 1.5,8.515625 c 0.7516188,0 0.7609112,0.00217 0.9199441,0.2151459 0.063551,0.085106 0.064545,0.1182472 0.072825,2.4271751 l 0.00839,2.340891 2.3408909,0.0084 c 2.3089282,0.0083 2.3420691,0.0093 2.4271754,0.07282 0.2129728,0.159033 0.2151459,0.168325 0.2151459,0.919944 0,0.751622 -0.00218,0.760918 -0.2151519,0.919944 -0.085669,0.06397 -0.1089159,0.06448 -3.232444,0.07126 -2.5678494,0.0056 -3.16367135,-8.47e-4 -3.24145338,-0.03492 z M 7,14.5 V 14 H 6.125 c -0.6597222,0 -0.875,0.0092 -0.875,0.0375 0,0.02917 -0.00833,0.02917 -0.0375,0 C 5.1843175,14.009318 4.7805556,14 3.5875,14 H 2 V 11.5 9 H 1.5 1 v 3 3 h 3 3 z m 1.7953256,0.95628 C 8.6699184,15.40134 8.5384247,15.241924 8.5148763,15.116267 c -0.010374,-0.05535 -0.014449,-0.370361 -0.00906,-0.700018 0.01073,-0.655927 0.017564,-0.681332 0.2249506,-0.836193 0.085106,-0.06355 0.1182472,-0.06455 2.4271751,-0.07282 l 2.340891,-0.0084 0.0084,-2.340891 c 0.0083,-2.3089279 0.0093,-2.3420688 0.07282,-2.4271751 C 13.739089,8.5177981 13.748381,8.515625 14.5,8.515625 c 0.751626,0 0.760928,0.00217 0.919944,0.21516 0.06409,0.085839 0.06443,0.1032397 0.06443,3.269215 0,3.165975 -3.44e-4,3.183376 -0.06443,3.269215 -0.03544,0.04746 -0.103261,0.115292 -0.150721,0.150729 -0.08567,0.06397 -0.108916,0.06448 -3.232444,0.07126 -2.5678493,0.0056 -3.1636712,-8.47e-4 -3.2414534,-0.03492 z M 15,12 V 9 H 14.5 14 V 11.5 14 H 11.5 9 v 0.5 0.5 h 3 3 z M 0.79532572,7.4569566 C 0.66911006,7.4007716 0.53809838,7.2411791 0.51564994,7.1162675 0.50570213,7.0609141 0.50162694,5.6209494 0.506594,3.9163456 0.51555266,0.84188919 0.51614103,0.81637509 0.58005591,0.7307765 0.61549288,0.68331716 0.68332097,0.61549288 0.73078497,0.58005591 0.81662381,0.51596794 0.83402475,0.515625 4,0.515625 c 3.1659753,0 3.1833762,3.4281e-4 3.269215,0.0644309 0.2129844,0.15901579 0.21516,0.16831785 0.21516,0.9199441 0,0.7516188 -0.00217,0.7609112 -0.2151459,0.9199441 -0.085106,0.063551 -0.1182472,0.064545 -2.4271754,0.072825 L 2.5011628,2.5011591 2.4927728,4.84205 C 2.4844896,7.1509819 2.4834953,7.1841228 2.4199441,7.2692291 2.2631043,7.479265 2.245719,7.4836481 1.5368664,7.4918769 1.0468343,7.4975656 0.86758928,7.4891237 0.79532572,7.4569566 Z M 2,4.5 V 2 H 4.5 7 V 1.5 1 H 4 1 V 4 7 H 1.5 2 Z M 13.796875,7.4567987 C 13.681514,7.4044031 13.577503,7.2942347 13.533332,7.1776531 13.510824,7.1182497 13.5,6.3446309 13.5,4.7954225 V 2.5011637 l -2.341472,-0.00839 C 8.8490128,2.4844896 8.8158775,2.4834956 8.7307709,2.4199441 8.5177981,2.2609112 8.515625,2.2516188 8.515625,1.5 8.515625,0.74837375 8.5178,0.73907169 8.730785,0.58005591 8.8166238,0.51596794 8.8340247,0.515625 12,0.515625 c 3.165975,0 3.183376,3.4281e-4 3.269215,0.0644309 0.04746,0.035437 0.115292,0.10326506 0.150729,0.15072906 0.06409,0.0858388 0.06443,0.10323978 0.06443,3.26921504 0,3.1659753 -3.44e-4,3.1833762 -0.06443,3.269215 -0.156823,0.2100472 -0.174217,0.2144331 -0.883077,0.2226619 -0.491886,0.00571 -0.668634,-0.00267 -0.739992,-0.035078 z M 15,4 V 1 H 12 9 V 1.5 2 H 11.5 14 V 4.5 7 h 0.5 0.5 z"
       id="path819"
       inkscape:connector-curvature="0" />
  </g>
</svg>
