<?xml version="1.0" encoding="UTF-8" standalone="no"?>
<!-- Created with Inkscape (http://www.inkscape.org/) -->

<svg
   version="1.1"
   id="svg2"
   width="1600"
   height="1600"
   viewBox="0 0 1600 1600"
   sodipodi:docname="view_remove_local.svg"
   inkscape:version="1.2.2 (732a01da63, 2022-12-09)"
   xmlns:inkscape="http://www.inkscape.org/namespaces/inkscape"
   xmlns:sodipodi="http://sodipodi.sourceforge.net/DTD/sodipodi-0.dtd"
   xmlns="http://www.w3.org/2000/svg"
   xmlns:svg="http://www.w3.org/2000/svg"
   xmlns:rdf="http://www.w3.org/1999/02/22-rdf-syntax-ns#"
   xmlns:cc="http://creativecommons.org/ns#"
   xmlns:dc="http://purl.org/dc/elements/1.1/">
  <metadata
     id="metadata8">
    <rdf:RDF>
      <cc:Work
         rdf:about="">
        <dc:format>image/svg+xml</dc:format>
        <dc:type
           rdf:resource="http://purl.org/dc/dcmitype/StillImage" />
      </cc:Work>
    </rdf:RDF>
  </metadata>
  <defs
     id="defs6" />
  <sodipodi:namedview
     pagecolor="#808080"
     bordercolor="#666666"
     borderopacity="1"
     objecttolerance="10"
     gridtolerance="10"
     guidetolerance="10"
     inkscape:pageopacity="0"
     inkscape:pageshadow="2"
     inkscape:window-width="1993"
     inkscape:window-height="1009"
     id="namedview4"
     showgrid="false"
     inkscape:zoom="0.5"
     inkscape:cx="5"
     inkscape:cy="8"
     inkscape:window-x="-8"
     inkscape:window-y="-8"
     inkscape:window-maximized="1"
     inkscape:current-layer="VIEW_REMOVE_LOCAL"
     inkscape:showpageshadow="0"
     inkscape:pagecheckerboard="true"
     inkscape:deskcolor="#d1d1d1" />
  <g
     id="VIEW_REMOVE_LOCAL"
     transform="matrix(100,0,0,100,0,4.9999997e-5)"
     style="stroke-width:0.0114286">
    <path
       style="fill:none;stroke-width:0.000357143"
       d="M 6,15.5 V 15 H 3.5 1 V 12.5 10 H 0.5 0 V 8 6 H 0.5 1 V 3.5 1 H 3.5 6 V 0.5 0 h 2 2 V 0.5 1 H 12.5 15 V 3.5 6 h 0.5 0.5 v 2 2 H 15.5 15 V 12.5 15 H 12.5 10 V 15.5 16 H 8 6 Z M 3.515625,14.093227 c 0.1640241,-0.0624 0.2503475,-0.133343 0.6894578,-0.566652 0.2760769,-0.272428 0.5096059,-0.495325 0.5189531,-0.495325 0.00935,0 0.1355344,0.06821 0.280415,0.151578 0.5395247,0.310457 1.0948532,0.524457 1.7611741,0.678682 0.3359341,0.07775 0.4486441,0.0882 1.0819184,0.100299 0.7723022,0.01475 1.0961088,-0.01799 1.6573228,-0.16757 1.0863058,-0.289535 1.9785308,-0.8102 2.7634548,-1.612636 0.676125,-0.691209 1.106734,-1.392184 1.403897,-2.2853586 C 13.928183,9.1268988 14.007278,8.5040081 13.964591,7.59375 13.92438,6.7363037 13.642885,5.8039572 13.182828,5.0044509 13.09946,4.8595703 13.03125,4.7333612 13.03125,4.7239862 c 0,-0.00937 0.229944,-0.2499349 0.510988,-0.5345781 0.609034,-0.6168353 0.658178,-0.7044772 0.658178,-1.1737831 0,-0.3859889 -0.08135,-0.5895235 -0.338306,-0.8464847 -0.256962,-0.2569613 -0.460496,-0.3383058 -0.846485,-0.3383058 -0.469628,0 -0.556695,0.048894 -1.176059,0.6604291 L 11.319757,3.0045028 11.027066,2.83554 C 10.332313,2.4344775 9.5726403,2.1713171 8.7903216,2.0607029 8.3764213,2.0021804 7.2156566,2.0390763 6.828125,2.1230728 6.1314228,2.2740814 5.3191503,2.6038193 4.7665519,2.9599578 4.0924134,3.3944263 3.3955178,4.0913609 2.9600593,4.7665519 2.5970639,5.3293866 2.2651139,6.1534984 2.1233699,6.84375 c -0.1289291,0.6278469 -0.1286898,1.6881134 5.219e-4,2.3125 0.1360969,0.6576569 0.4331561,1.41803 0.7730575,1.978771 l 0.110259,0.181896 -0.4989296,0.505604 c -0.4316512,0.437426 -0.5088585,0.530887 -0.5725619,0.693104 -0.1026031,0.261272 -0.1039334,0.673569 -0.003,0.928176 0.077653,0.195872 0.2895603,0.452157 0.4619624,0.558708 0.3160294,0.195317 0.7530125,0.230682 1.1209406,0.09072 z"
       id="path827"
       inkscape:connector-curvature="0" />
    <path
       style="fill:#fefefe;stroke-width:0.000357143"
       d="M 0,13 V 10 H 0.5 1 V 12.5 15 H 3.5 6 V 15.5 16 H 3 0 Z m 10,2.5 V 15 H 12.5 15 V 12.5 10 h 0.5 0.5 v 3 3 H 13 10 Z M 7.21875,13.946402 C 7.0093153,13.922762 6.3887375,13.774082 6.109375,13.680615 5.7479684,13.559698 5.3467978,13.378724 4.9952528,13.178018 l -0.2787859,-0.159165 0.366319,-0.367276 0.3663188,-0.367276 0.2767959,0.14296 c 0.1522378,0.07863 0.2836435,0.136112 0.2920125,0.127742 0.00837,-0.0084 -0.041456,-0.132409 -0.1107231,-0.275644 -0.069267,-0.143235 -0.12594,-0.275454 -0.12594,-0.293819 0,-0.03801 0.7422175,-0.786852 0.7584769,-0.765245 0.00583,0.0077 0.051753,0.118582 0.1020575,0.246306 0.1918687,0.487162 0.6144684,1.120926 0.8697262,1.30431 0.3518791,0.2528 0.57325,0.262343 0.9106528,0.03926 C 8.8021503,12.558924 9.2451962,11.852463 9.4985869,11.09375 9.7052575,10.474927 9.8921697,9.5686144 9.952945,8.890625 9.9637297,8.7703125 9.9798466,8.6332031 9.98876,8.5859375 L 10.004966,8.5 H 9.6198875 9.2348091 l 0.8435329,-0.8441794 0.843533,-0.8441793 0.02164,0.1176168 c 0.0119,0.064689 0.02245,0.2043575 0.02344,0.3103735 0.003,0.3191287 -0.09313,0.2916184 1.018805,0.2916184 h 0.979067 L 12.949096,7.4140625 C 12.873001,6.8469794 12.696183,6.26345 12.453255,5.7777038 l -0.165874,-0.3316713 0.365736,-0.3647828 0.365736,-0.3647828 0.159165,0.2787859 c 0.608458,1.0657394 0.850953,2.1226806 0.786175,3.4266222 -0.05472,1.1015672 -0.51666,2.323009 -1.223202,3.234375 -0.224865,0.290052 -0.745483,0.814147 -1.037866,1.044797 -0.803023,0.633474 -1.7687491,1.054646 -2.796875,1.219771 -0.2772422,0.04453 -1.3725578,0.06113 -1.6875,0.02558 z m 3.038409,-1.512501 c 1.081186,-0.54361 1.922701,-1.460982 2.363658,-2.5767269 0.131702,-0.3332438 0.268962,-0.8454735 0.311454,-1.1622935 l 0.02625,-0.1957447 -0.987075,0.00824 -0.987074,0.00824 -0.0081,0.171875 c -0.01741,0.3691263 -0.108216,1.0679513 -0.19491,1.5000001 -0.154234,0.76863 -0.342793,1.351684 -0.645421,1.995749 -0.09195,0.195697 -0.167187,0.361087 -0.167187,0.367532 0,0.02428 0.039414,0.0083 0.288409,-0.11688 z M 2.8976424,11.136162 C 2.557042,10.574275 2.2601003,9.8144456 2.1238919,9.15625 1.9946801,8.5318634 1.9944408,7.4715969 2.1233699,6.84375 2.2651139,6.1534984 2.5970639,5.3293866 2.9600593,4.7665519 3.3955178,4.0913609 4.0924134,3.3944263 4.7665519,2.9599578 5.3192666,2.6037443 6.1318887,2.2738928 6.828125,2.1231443 7.2241384,2.0373998 8.3528125,2.0025095 8.7955722,2.0623253 9.5764812,2.1678243 10.443217,2.4764637 11.129757,2.8935145 L 11.319198,3.0085943 10.956871,3.3709219 10.594543,3.7332494 10.293655,3.5837831 C 10.128166,3.5015769 9.9872144,3.4398691 9.9804288,3.4466544 9.9736434,3.45344 10.033236,3.5965128 10.112857,3.7645941 L 10.257622,4.0701966 9.8669088,4.46091 9.4761953,4.8516231 9.4382234,4.7304991 C 9.3046538,4.304435 8.7309706,3.3640741 8.5442594,3.2651453 8.5113228,3.2476941 8.4221206,3.1914441 8.3460322,3.1401453 8.2270803,3.0599484 8.1786994,3.046875 8.0008641,3.046875 7.8080794,3.046875 7.7796009,3.0564214 7.5813594,3.1875 7.1655509,3.4624347 6.7404103,4.1680956 6.4573309,5.0531956 6.2459841,5.71401 6.1380562,6.2872906 6.0158078,7.3984375 L 6.0011956,7.53125 H 6.3988222 6.7964488 L 5.9373403,8.390785 C 5.4648303,8.8635291 5.0744047,9.2388387 5.0697272,9.2248066 5.0650497,9.2107744 5.0509631,9.0454678 5.0384238,8.8574591 L 5.015625,8.515625 4.0285506,8.5073806 3.0414761,8.4991359 3.0681768,8.6943756 c 0.06997,0.5116328 0.2089423,0.9549203 0.4710673,1.5025904 l 0.1914912,0.400092 -0.3610706,0.36107 -0.3610705,0.36107 z M 5.0122816,7.4818191 C 5.0227144,7.4546322 5.0312672,7.3597103 5.0312878,7.2708816 5.0313503,7.0018741 5.1225184,6.2926191 5.2187478,5.8125 5.3727997,5.0438866 5.5629706,4.4552078 5.8639372,3.8153013 5.9561759,3.6191856 6.0259794,3.4530625 6.0190556,3.4461391 6.0005663,3.4276494 5.5190881,3.6744772 5.2838856,3.8230213 4.3879769,4.3888387 3.6288494,5.3653675 3.2872866,6.3914131 3.2001228,6.6532509 3.0877727,7.1393053 3.0509043,7.4140625 L 3.0351794,7.53125 h 0.9790668 c 0.8639532,0 0.9812972,-0.00581 0.9980354,-0.049431 z M 0,3 V 0 H 3 6 V 0.5 1 H 3.5 1 V 3.5 6 H 0.5 0 Z M 15,3.5 V 1 H 12.5 10 V 0.5 0 h 3 3 V 3 6 H 15.5 15 Z"
       id="path825"
       inkscape:connector-curvature="0" />
    <path
       style="fill:#98cbfe;stroke-width:0.000357143"
       d="M 7.76305,12.92608 C 7.3723253,12.748988 6.9327931,12.17626 6.6390925,11.461519 L 6.5329131,11.203125 7.8835094,9.8515625 9.2341056,8.5 h 0.38543 0.3854304 L 9.98876,8.5859375 C 9.97985,8.6332035 9.96373,8.7703125 9.952945,8.890625 9.862107,9.9039797 9.5834172,11.007131 9.2345259,11.734375 8.8795603,12.474281 8.4262728,12.937424 8.0352644,12.959713 7.9303872,12.965713 7.8204853,12.952113 7.76305,12.926083 Z M 5.734375,12.434705 c -0.1203125,-0.06606 -0.2328125,-0.125909 -0.25,-0.132995 -0.017188,-0.0071 0.038077,-0.08444 0.12281,-0.171891 l 0.1540603,-0.159008 0.1350022,0.284091 c 0.074252,0.156251 0.1350025,0.289381 0.1350025,0.295845 0,0.03148 -0.097896,-0.0068 -0.296875,-0.116042 z m 4.234375,0.116076 c 0,-0.0064 0.075234,-0.171835 0.167187,-0.367532 0.302628,-0.644065 0.491187,-1.227119 0.645421,-1.995749 0.08669,-0.4320487 0.1775,-1.1308737 0.19491,-1.5 l 0.0081,-0.171875 0.987074,-0.00824 0.987075,-0.00824 -0.02625,0.1957447 c -0.04249,0.31682 -0.179752,0.8290497 -0.311454,1.1622935 C 12.179856,10.972928 11.338341,11.8903 10.257155,12.43391 10.00816,12.559102 9.968746,12.575075 9.968746,12.55079 Z M 3.5392691,10.197018 C 3.2771184,9.6492947 3.1381491,9.2060244 3.0681768,8.6943756 l -0.026701,-0.1952397 0.9870745,0.00824 0.9870744,0.00824 0.024683,0.3736647 L 5.0649907,9.262945 4.3978881,9.9300575 3.7307847,10.597161 Z M 3.0509043,7.4140625 C 3.2789856,5.7143162 4.2618175,4.3107434 5.7467684,3.5641247 5.8896028,3.4923091 6.0121322,3.4392153 6.0190556,3.4461391 6.0259794,3.4530625 5.9561759,3.6191856 5.8639372,3.8153013 5.5629706,4.4552078 5.3727997,5.0438866 5.2187478,5.8125 5.1225184,6.2926191 5.0313509,7.0018741 5.0312878,7.2708816 5.0312253,7.55343 5.1178603,7.53125 4.0142462,7.53125 H 3.0351794 Z M 6.0158078,7.3984375 C 6.1380562,6.2872906 6.2459841,5.71401 6.4573309,5.0531956 6.7404103,4.1680956 7.1655509,3.4624347 7.5813594,3.1875 7.7796009,3.0564214 7.8080794,3.046875 8.0008641,3.046875 c 0.1778353,0 0.2262162,0.013073 0.3451681,0.09327 0.076088,0.051299 0.1652906,0.1075488 0.1982272,0.125 0.1867144,0.098931 0.7603937,1.0392888 0.8939684,1.4653672 L 9.4762041,4.85165 8.1366759,6.19145 6.7971475,7.53125 H 6.3991716 6.0011956 Z m 4.9711222,0.0625 C 10.97913,7.4222655 10.96471,7.2569509 10.95499,7.0935716 L 10.93731,6.7965181 11.608113,6.1262594 c 0.368941,-0.3686422 0.677285,-0.663776 0.685208,-0.6558525 0.05247,0.05247 0.341961,0.6881322 0.419441,0.9210062 0.08713,0.2618803 0.199486,0.7480585 0.236332,1.0226494 L 12.964821,7.53125 H 11.983006 11.001191 Z M 10.112577,3.7640034 C 10.03311,3.5962472 9.9738016,3.4532816 9.9807806,3.4463028 c 0.00698,-0.00698 0.1479864,0.055232 0.3133484,0.1382459 l 0.30066,0.150935 -0.168863,0.166766 -0.168864,0.1667656 z"
       id="path823"
       inkscape:connector-curvature="0" />
    <path
       style="fill:#fe0000;stroke-width:0.000357143"
       d="M 2.8346027,13.638496 C 2.5102681,13.535817 2.294638,13.165854 2.3743402,12.848812 c 0.020144,-0.08013 0.06304,-0.187875 0.095326,-0.239437 0.032286,-0.05156 2.3339594,-2.367376 5.1148301,-5.1462516 l 5.0561287,-5.0525018 0.182438,-0.052078 c 0.150958,-0.043092 0.207578,-0.04585 0.328125,-0.015989 0.291048,0.072098 0.463324,0.244545 0.536972,0.5375067 0.03046,0.1211654 0.02786,0.1763937 -0.01545,0.328125 L 13.620629,3.390625 8.5525022,8.4616388 C 5.1242656,11.891828 3.4439288,13.552217 3.359375,13.593116 3.18207,13.67888 3.0093443,13.693817 2.8346027,13.638496 Z"
       id="path821"
       inkscape:connector-curvature="0" />
    <path
       style="fill:#7f0000;stroke-width:0.000357143"
       d="M 2.6823866,14.129393 C 2.4437626,14.050575 2.3106485,13.963756 2.1436649,13.77803 1.940002,13.551508 1.8620845,13.331892 1.8620845,12.984375 c 0,-0.219137 0.015972,-0.322658 0.072322,-0.46875 0.06961,-0.180468 0.266462,-0.38164 5.2486452,-5.3638231 4.9821833,-4.9821832 5.1833553,-5.1790355 5.3638233,-5.2486452 0.266412,-0.1027599 0.674805,-0.1020135 0.9375,0.00171 0.257387,0.1016309 0.540374,0.3846181 0.642005,0.642005 0.103727,0.2626951 0.104473,0.6710884 0.0017,0.9375 -0.0696,0.1804712 -0.26645,0.3816431 -5.2486328,5.3638265 -5.0202616,5.0202628 -5.181975,5.1784338 -5.3638222,5.2463398 -0.2590369,0.09673 -0.6024221,0.111094 -0.8332384,0.03486 z M 3.359375,13.593116 c 0.084554,-0.0409 1.7648906,-1.701288 5.1931272,-5.1314772 L 13.620629,3.390625 13.672707,3.2081866 C 13.716019,3.0564553 13.71862,3.001227 13.68816,2.8800616 13.614512,2.5870999 13.442236,2.4146527 13.151188,2.3425549 13.030641,2.3126931 12.974021,2.3154521 12.823063,2.3585436 L 12.640625,2.4106216 7.5844966,7.4631234 C 4.8036259,10.241999 2.5019524,12.557813 2.4696665,12.609375 c -0.1746874,0.278986 -0.1368393,0.629702 0.092729,0.859271 0.2144201,0.21442 0.5142216,0.261242 0.7969795,0.12447 z"
       id="path819"
       inkscape:connector-curvature="0" />
  </g>
</svg>
