<?xml version="1.0" encoding="UTF-8" standalone="no"?>
<!-- Created with Inkscape (http://www.inkscape.org/) -->

<svg
   version="1.1"
   id="svg2"
   width="1600"
   height="1600"
   viewBox="0 0 1600 1600"
   sodipodi:docname="view_active_top.svg"
   inkscape:version="1.2.2 (732a01da63, 2022-12-09)"
   xmlns:inkscape="http://www.inkscape.org/namespaces/inkscape"
   xmlns:sodipodi="http://sodipodi.sourceforge.net/DTD/sodipodi-0.dtd"
   xmlns="http://www.w3.org/2000/svg"
   xmlns:svg="http://www.w3.org/2000/svg"
   xmlns:rdf="http://www.w3.org/1999/02/22-rdf-syntax-ns#"
   xmlns:cc="http://creativecommons.org/ns#"
   xmlns:dc="http://purl.org/dc/elements/1.1/">
  <metadata
     id="metadata8">
    <rdf:RDF>
      <cc:Work
         rdf:about="">
        <dc:format>image/svg+xml</dc:format>
        <dc:type
           rdf:resource="http://purl.org/dc/dcmitype/StillImage" />
      </cc:Work>
    </rdf:RDF>
  </metadata>
  <defs
     id="defs6" />
  <sodipodi:namedview
     pagecolor="#808080"
     bordercolor="#666666"
     borderopacity="1"
     objecttolerance="10"
     gridtolerance="10"
     guidetolerance="10"
     inkscape:pageopacity="0"
     inkscape:pageshadow="2"
     inkscape:window-width="1993"
     inkscape:window-height="1009"
     id="namedview4"
     showgrid="false"
     inkscape:zoom="0.5"
     inkscape:cx="481"
     inkscape:cy="366"
     inkscape:window-x="-8"
     inkscape:window-y="-8"
     inkscape:window-maximized="1"
     inkscape:current-layer="svg2"
     inkscape:showpageshadow="0"
     inkscape:pagecheckerboard="true"
     inkscape:deskcolor="#d1d1d1" />
  <g
     id="VIEW_ACTIVE_TOP"
     transform="matrix(100,0,0,100,0,4.9999997e-5)"
     style="stroke-width:0.0114286">
    <path
       style="fill:#fefe00;stroke-width:0.000357143"
       d="M 8.674145,15.26609 C 7.5728484,14.635778 7.3676406,14.506803 7.1970422,14.337721 6.85353,13.997263 6.875,14.185407 6.875,11.515625 6.875,8.8344166 6.8513706,9.03395 7.2103581,8.6837728 7.3991922,8.4995731 7.6061462,8.3723969 9.1401944,7.4978597 10.08527,6.9590866 10.936051,6.48637 11.030819,6.4473778 c 0.246793,-0.1015419 0.722819,-0.1015419 0.969612,0 0.09477,0.038992 0.945549,0.5117181 1.890625,1.0505022 1.474829,0.8407947 1.745995,1.0065369 1.913632,1.1696484 L 16,8.8575694 v 2.6580556 2.658056 l -0.195312,0.190033 c -0.163662,0.159238 -0.401033,0.307221 -1.464758,0.91316 L 13.070484,16 l -1.558679,-9.51e-4 -1.55868,-9.51e-4 z m 4.637983,-0.598976 c 0.954111,-0.544025 1.759356,-1.010267 1.789435,-1.036093 0.05106,-0.04384 0.05469,-0.184177 0.05469,-2.115396 0,-1.9312194 -0.0036,-2.0715534 -0.05469,-2.1153956 C 15.071484,9.3744031 14.263249,8.9064531 13.305484,8.3603409 12.023777,7.6295184 11.544692,7.3711181 11.490597,7.3814591 11.414938,7.3959222 8.0276009,9.3163588 7.9296875,9.4003022 7.8786266,9.4440775 7.875,9.5844263 7.875,11.516642 c 0,1.859879 0.00507,2.073662 0.050058,2.111 0.1193485,0.09905 3.53411,2.028455 3.590195,2.028527 0.03417,3.2e-5 0.842764,-0.44503 1.796875,-0.989055 z M 9.9191441,10.427121 8.3233262,9.5153034 9.7451325,8.7029641 C 10.527126,8.2561775 11.245542,7.8460047 11.341613,7.7914687 l 0.174675,-0.099157 1.595818,0.9118172 1.595818,0.9118172 -1.421806,0.8123399 c -0.781994,0.446787 -1.50041,0.856959 -1.596481,0.911495 l -0.174675,0.09916 z"
       id="path829"
       inkscape:connector-curvature="0" />
    <path
       style="fill:#fecb32;stroke-width:0.000357143"
       d="M 9.7581462,14.335861 8.1569172,13.421875 8.1565837,11.599176 8.15625,9.7764769 8.3701656,9.8960509 C 8.4878191,9.9618166 9.2119009,10.374219 9.9792359,10.8125 l 1.3951551,0.796875 3.13e-4,1.820313 c 1.56e-4,1.001171 -0.0032,1.820278 -0.0075,1.820235 -0.0043,-3.1e-5 -0.728366,-0.41137 -1.6090416,-0.914062 z m 1.8984078,-0.903787 3.13e-4,-1.822699 1.395155,-0.796875 c 0.767335,-0.438281 1.491417,-0.8506834 1.60907,-0.9164491 l 0.213916,-0.119574 -3.12e-4,1.8226991 -3.13e-4,1.822699 -1.395155,0.796875 c -0.767335,0.438281 -1.491417,0.850683 -1.609071,0.916449 l -0.213915,0.119574 z"
       id="path827"
       inkscape:connector-curvature="0" />
    <path
       style="fill:#cb6500;stroke-width:0.000357143"
       d="M 1,8 V 1 H 4.5 8 V 4.5757766 8.1515531 L 7.7109375,8.3145497 C 7.3358069,8.5260784 7.0229816,8.8255788 6.9369206,9.0555966 6.8772578,9.2150597 6.875,9.3047647 6.875,11.515625 c 0,2.21086 0.00226,2.300565 0.061921,2.460028 0.086061,0.230018 0.3988863,0.529519 0.7740169,0.741047 C 7.9189512,14.833995 8,14.896563 8,14.939848 8,14.998859 7.9336166,15 4.5,15 H 1 Z"
       id="path825"
       inkscape:connector-curvature="0" />
    <path
       style="fill:#00fe00;stroke-width:0.000357143"
       d="M 0,8 V 0 h 8 8 V 4.4270019 8.8540038 L 15.78879,8.6535644 C 15.659237,8.5306181 15.466138,8.3927163 15.289333,8.296875 L 15.001085,8.140625 15.000542,4.5703125 15,1 H 8 1 v 7 7 h 3.6059812 3.605981 l 0.8549565,0.488307 c 0.470226,0.268569 0.8608157,0.493569 0.8679772,0.5 C 9.9420572,15.994738 7.7096353,16 4.9739584,16 H 0 Z m 13.096354,7.988307 c 0.0072,-0.0064 0.397751,-0.231431 0.867977,-0.5 C 14.52553,15.167779 14.850334,15 14.909644,15 c 0.06501,0 0.09051,-0.01534 0.0909,-0.05469 3.62e-4,-0.0366 0.09586,-0.106358 0.28879,-0.210938 0.176805,-0.09584 0.369904,-0.233743 0.499457,-0.356689 L 16,14.177246 V 15.088623 16 h -1.458333 c -0.802084,0 -1.452474,-0.0053 -1.445313,-0.01169 z"
       id="path823"
       inkscape:connector-curvature="0" />
    <path
       style="fill:#983200;stroke-width:0.000357143"
       d="M 8,14.93678 C 8,14.87561 8.00279,14.87531 8.085937,14.92728 8.133203,14.95685 8.177734,14.9853 8.184895,14.9905 8.1920572,14.995744 8.1533853,15 8.0989584,15 8.0204575,15 8,14.986931 8,14.93678 Z m 6.846354,0.05183 c 0.0072,-0.0063 0.04466,-0.02785 0.08333,-0.04797 C 14.987957,14.910317 15,14.912268 15,14.952026 15,14.983165 14.970756,15 14.916667,15 c -0.04583,0 -0.07747,-0.0051 -0.07031,-0.01139 z M 8,4.5757178 V 1 H 11.5 15 V 4.5651897 8.1303791 L 14.789063,8.012425 C 14.673047,7.94755 14.451563,7.8213597 14.296875,7.7320016 L 14.015625,7.5695325 14.00664,7.2847663 13.997655,7 H 13.50876 13.019865 L 12.573612,6.7474456 C 12.328172,6.6085409 12.056364,6.4679159 11.969594,6.4349456 11.76595,6.3575672 11.296333,6.3523581 11.082819,6.42511 11.001934,6.4526703 10.27521,6.8523684 9.4678775,7.3133278 L 8,8.1514356 Z"
       id="path821"
       inkscape:connector-curvature="0" />
    <path
       style="fill:#323232;stroke-width:0.000357143"
       d="M 9.7141206,14.662638 C 8.7576684,14.116239 7.9525903,13.650491 7.9250581,13.627642 7.8800694,13.590304 7.875,13.376521 7.875,11.516642 c 0,-1.9322157 0.00363,-2.0725645 0.054687,-2.1163398 0.097913,-0.083944 3.485251,-2.00438 3.56091,-2.0188431 0.0541,-0.010341 0.53318,0.2480593 1.814887,0.9788818 0.957765,0.5461122 1.766,1.0140622 1.796079,1.0398885 0.05106,0.043842 0.05469,0.1841762 0.05469,2.1153956 0,1.931219 -0.0036,2.071553 -0.05469,2.115396 -0.114035,0.09791 -3.527083,2.025225 -3.58631,2.025148 -0.03417,-3.1e-5 -0.84468,-0.447133 -1.8011324,-0.993531 z M 11.374696,13.429688 11.374391,11.609375 9.9792359,10.8125 C 9.2119009,10.374219 8.4878191,9.9618166 8.3701656,9.8960509 L 8.15625,9.7764769 l 3.344e-4,1.8226991 3.343e-4,1.822699 1.6012291,0.913986 c 0.8806752,0.502692 1.6047442,0.91402 1.6090412,0.914062 0.0043,3.2e-5 0.0077,-0.819064 0.0075,-1.820235 z m 2.10454,0.789062 1.395155,-0.796875 3.13e-4,-1.822699 3.12e-4,-1.8226991 -0.213915,0.119574 c -0.11767,0.065766 -0.841752,0.4781681 -1.609087,0.9164491 l -1.395155,0.796875 -3.13e-4,1.822699 -3.12e-4,1.822699 0.213915,-0.119574 c 0.11767,-0.06577 0.841752,-0.478168 1.609087,-0.916449 z M 13.286118,10.328286 14.707924,9.5159466 13.112106,8.6041294 11.516288,7.6923122 11.341613,7.7914687 c -0.09607,0.054536 -0.814487,0.4647088 -1.5964805,0.9114954 l -1.4218063,0.8123393 1.5958179,0.9118176 1.5958179,0.911817 0.174675,-0.09916 c 0.09607,-0.05454 0.814487,-0.464708 1.596481,-0.911495 z M 13.5,7.2795269 13.015625,7.0001806 13.507813,7.0000869 14,7 V 7.28125 C 14,7.4359375 13.9965,7.5616841 13.9922,7.5606866 13.987891,7.5596897 13.766406,7.4331675 13.5,7.2795269 Z"
       id="path819"
       inkscape:connector-curvature="0" />
  </g>
</svg>
