<?xml version="1.0" encoding="UTF-8" standalone="no"?>
<!-- Created with Inkscape (http://www.inkscape.org/) -->

<svg
   xmlns:dc="http://purl.org/dc/elements/1.1/"
   xmlns:cc="http://creativecommons.org/ns#"
   xmlns:rdf="http://www.w3.org/1999/02/22-rdf-syntax-ns#"
   xmlns:svg="http://www.w3.org/2000/svg"
   xmlns="http://www.w3.org/2000/svg"
   xmlns:sodipodi="http://sodipodi.sourceforge.net/DTD/sodipodi-0.dtd"
   xmlns:inkscape="http://www.inkscape.org/namespaces/inkscape"
   version="1.1"
   id="svg2"
   width="16"
   height="16"
   viewBox="0 0 16 16"
   sodipodi:docname="VIEW_ORTHO.svg"
   inkscape:version="0.92.4 (5da689c313, 2019-01-14)">
  <metadata
     id="metadata8">
    <rdf:RDF>
      <cc:Work
         rdf:about="">
        <dc:format>image/svg+xml</dc:format>
        <dc:type
           rdf:resource="http://purl.org/dc/dcmitype/StillImage" />
        <dc:title></dc:title>
      </cc:Work>
    </rdf:RDF>
  </metadata>
  <defs
     id="defs6" />
  <sodipodi:namedview
     pagecolor="#ffffff"
     bordercolor="#666666"
     borderopacity="1"
     objecttolerance="10"
     gridtolerance="10"
     guidetolerance="10"
     inkscape:pageopacity="0"
     inkscape:pageshadow="2"
     inkscape:window-width="1288"
     inkscape:window-height="767"
     id="namedview4"
     showgrid="false"
     inkscape:zoom="14.75"
     inkscape:cx="3.3898305"
     inkscape:cy="8.3389831"
     inkscape:window-x="0"
     inkscape:window-y="0"
     inkscape:window-maximized="0"
     inkscape:current-layer="svg2" />
  <g
     id="VIEW_ORTHO">
    <path
       style="fill:#ffffff;stroke-width:0.03125"
       d="m 1,13 v -2 h 2 2 v 2 2 H 3 1 Z m 5,0 v -2 h 2 2 v 2 2 H 8 6 Z m 5,0 v -2 h 2 2 v 2 2 H 13 11 Z M 1,8 V 6 h 2 2 v 2 2 H 3 1 Z M 6,8 V 6 h 2 2 v 2 2 H 8 6 Z m 5,0 V 6 h 2 2 v 2 2 H 13 11 Z M 1,3 V 1 H 3 5 V 3 5 H 3 1 Z M 6,3 V 1 h 2 2 V 3 5 H 8 6 Z m 5,0 V 1 h 2 2 v 2 2 h -2 -2 z"
       id="path821"
       inkscape:connector-curvature="0" />
    <path
       style="fill:#fefefe;stroke-width:0.03125"
       d="M 0,8 V 0 h 8 8 v 8 8 H 8 0 Z m 5,5 V 11 H 3 1 v 2 2 h 2 2 z m 5,0 V 11 H 8 6 v 2 2 h 2 2 z m 5,0 v -2 h -2 -2 v 2 2 h 2 2 z M 5,8 V 6 H 3 1 v 2 2 h 2 2 z m 5,0 V 6 H 8 6 v 2 2 h 2 2 z m 5,0 V 6 h -2 -2 v 2 2 h 2 2 z M 5,3 V 1 H 3 1 v 2 2 h 2 2 z m 5,0 V 1 H 8 6 v 2 2 h 2 2 z m 5,0 V 1 h -2 -2 v 2 2 h 2 2 z"
       id="path819"
       inkscape:connector-curvature="0" />
  </g>
</svg>
