<?xml version="1.0" encoding="UTF-8" standalone="no"?>
<!-- Created with Inkscape (http://www.inkscape.org/) -->

<svg
   version="1.1"
   id="svg2"
   width="1600"
   height="1600"
   viewBox="0 0 1600 1600"
   sodipodi:docname="visual_loc_scale.svg"
   inkscape:version="1.2.2 (732a01da63, 2022-12-09)"
   xmlns:inkscape="http://www.inkscape.org/namespaces/inkscape"
   xmlns:sodipodi="http://sodipodi.sourceforge.net/DTD/sodipodi-0.dtd"
   xmlns="http://www.w3.org/2000/svg"
   xmlns:svg="http://www.w3.org/2000/svg"
   xmlns:rdf="http://www.w3.org/1999/02/22-rdf-syntax-ns#"
   xmlns:cc="http://creativecommons.org/ns#"
   xmlns:dc="http://purl.org/dc/elements/1.1/">
  <metadata
     id="metadata8">
    <rdf:RDF>
      <cc:Work
         rdf:about="">
        <dc:format>image/svg+xml</dc:format>
        <dc:type
           rdf:resource="http://purl.org/dc/dcmitype/StillImage" />
      </cc:Work>
    </rdf:RDF>
  </metadata>
  <defs
     id="defs6" />
  <sodipodi:namedview
     pagecolor="#808080"
     bordercolor="#666666"
     borderopacity="1"
     objecttolerance="10"
     gridtolerance="10"
     guidetolerance="10"
     inkscape:pageopacity="0"
     inkscape:pageshadow="2"
     inkscape:window-width="1993"
     inkscape:window-height="1009"
     id="namedview4"
     showgrid="false"
     inkscape:zoom="0.5"
     inkscape:cx="9"
     inkscape:cy="8"
     inkscape:window-x="-8"
     inkscape:window-y="-8"
     inkscape:window-maximized="1"
     inkscape:current-layer="VISUAL_LOC_SCALE"
     inkscape:showpageshadow="0"
     inkscape:pagecheckerboard="true"
     inkscape:deskcolor="#d1d1d1" />
  <g
     id="VISUAL_LOC_SCALE"
     transform="matrix(100,0,0,100,0,4.9999997e-5)"
     style="stroke-width:0.0114286">
    <path
       style="fill:none;stroke-width:0.000357143"
       d="M 0,8 V 0 h 8 8 l -0.0012,6.0234375 c -10e-4,5.0463855 -0.008,6.0082305 -0.04289,5.9296875 -0.107796,-0.242538 -0.405355,-0.36075 -0.664789,-0.264103 -0.04838,0.01802 -0.316376,0.260332 -0.595536,0.53846 L 14.18802,12.73317 12.883085,11.432948 c -1.233481,-1.229023 -1.315204,-1.304005 -1.492437,-1.369319 -0.14673,-0.05407 -0.238463,-0.066804 -0.421875,-0.05855 l -0.234375,0.01055 0.25,-0.1841666 c 0.53459,-0.3938146 1.127458,-1.0670818 1.516437,-1.7220834 0.09186,-0.1546875 0.192541,-0.3147872 0.22373,-0.3557769 0.07624,-0.1001978 0.07163,-0.1637228 -0.02587,-0.3561994 C 12.448313,6.9031516 12.033741,6.3188316 11.649387,5.9184797 11.510438,5.7737475 11.406118,5.6449903 11.417565,5.6323525 11.429012,5.619715 11.78573,5.2611969 12.210273,4.8356459 l 0.771897,-0.7737287 0.766728,0.7625306 c 0.493996,0.4912928 0.816748,0.7878559 0.907352,0.8337278 0.335124,0.1696703 0.760643,0.04571 0.957488,-0.2789303 0.163867,-0.2702531 0.164246,-0.5183437 0.0012,-0.7924159 C 15.499516,4.3927809 11.484249,0.39629878 11.328125,0.32006131 11.061322,0.18977785 10.844812,0.20018458 10.588501,0.35561191 10.264901,0.55184397 10.141159,0.97787962 10.310574,1.3125 c 0.04587,0.090607 0.342486,0.4134064 0.833917,0.9075411 l 0.762718,0.7669161 -0.891922,0.889334 C 10.52473,4.3654247 10.118407,4.7697784 10.112348,4.7748553 10.106289,4.7799319 9.98361,4.7354966 9.8397281,4.6761103 9.0786928,4.3619972 8.1936413,4.2484331 7.3655947,4.358645 5.7234031,4.5772187 4.282225,5.6161212 3.3980216,7.21875 3.2213328,7.539 3.2190619,7.6100162 3.3763153,7.8975503 3.7640991,8.606605 4.2746269,9.2280066 4.890625,9.7407294 c 0.1511619,0.125819 0.1542147,0.1315672 0.09375,0.1765181 -0.034375,0.025555 -0.0625,0.062385 -0.0625,0.081843 0,0.019457 -0.4283944,0.4637075 -0.9519872,0.9872205 L 3.0179005,11.938153 2.2511377,11.175588 C 1.7571152,10.684269 1.4343542,10.387697 1.34375,10.341824 1.0091296,10.172409 0.58309397,10.296151 0.38686191,10.619751 c -0.15542733,0.256311 -0.16583406,0.472821 -0.0355506,0.739624 0.0762375,0.156124 4.07271959,4.171391 4.26676809,4.286823 0.2740722,0.163036 0.5221628,0.162657 0.7924159,-0.0012 C 5.7351359,15.448144 5.8590959,15.022625 5.6894256,14.687501 5.6435525,14.596895 5.3469534,14.274108 4.8555597,13.78001 L 4.0928909,13.013145 5.2790081,11.82749 c 0.6523644,-0.652111 1.2016063,-1.190818 1.2205378,-1.197129 0.018931,-0.0063 0.1463591,0.01873 0.2831728,0.05565 0.7651075,0.206448 1.6933388,0.201765 2.4798738,-0.01251 0.2806091,-0.07645 0.7298934,-0.244526 0.9293885,-0.347689 l 0.09654,-0.04992 -0.08406,0.110212 c -0.2076613,0.272258 -0.2623351,0.672586 -0.138098,1.01117 0.06194,0.1688 0.153059,0.267868 1.366585,1.485795 l 1.300222,1.304935 -0.505688,0.507565 c -0.278128,0.27916 -0.520435,0.547151 -0.53846,0.595536 -0.09665,0.259434 0.02157,0.556993 0.264103,0.664789 0.07854,0.03491 -0.883302,0.04187 -5.9296875,0.04289 L 0,16 Z m 15.687484,7.964892 c 0.108872,-0.04341 0.21916,-0.150974 0.268402,-0.261767 0.04036,-0.09081 0.04171,-0.08763 0.04289,0.101563 L 16,16 15.804688,15.998 c -0.162357,-0.0016 -0.182133,-0.0072 -0.117204,-0.03313 z"
       id="path837"
       inkscape:connector-curvature="0" />
    <path
       style="fill:#fefefe;stroke-width:0.000357143"
       d="M 7.359375,10.296404 C 5.9608103,10.069878 4.7709628,9.2350419 3.9667606,7.9160341 3.86473,7.7486888 3.78125,7.5966297 3.78125,7.578125 3.78125,7.5171872 4.1483834,6.9409028 4.3541106,6.6789131 4.5609903,6.4154562 4.9804428,5.9864428 5.203125,5.8105462 5.5046531,5.5723694 5.9486709,5.3058841 6.2606897,5.1758297 6.377855,5.1269934 6.3751403,5.1317525 6.148275,5.3729119 5.8901422,5.6473088 5.7072753,5.9646572 5.5888447,6.34375 5.5252816,6.5472144 5.515625,6.6420069 5.515625,7.0625 c 0,0.5554034 0.046394,0.7584409 0.2749119,1.203125 C 5.9722875,8.6193025 6.4431975,9.0902125 6.796875,9.2719631 7.2415591,9.5004813 7.4445966,9.546875 8,9.546875 c 0.5554034,0 0.7584409,-0.046394 1.203125,-0.2749119 0.3536775,-0.1817506 0.824588,-0.6526606 1.006338,-1.0063381 0.228518,-0.4446841 0.274912,-0.6477216 0.274912,-1.203125 0,-0.4204931 -0.0097,-0.5152856 -0.07322,-0.71875 C 10.292377,5.9635425 10.109952,5.6474088 9.8496778,5.3707356 L 9.6151513,5.1214325 9.7997631,5.2027016 C 10.663481,5.5829241 11.473102,6.32151 12.033239,7.2402159 12.13527,7.4075612 12.21875,7.5596203 12.21875,7.578125 c 0,0.060938 -0.367133,0.6372222 -0.572861,0.8992119 -0.206879,0.2634569 -0.626332,0.6924703 -0.849014,0.8683669 -0.56515,0.4464112 -1.2281528,0.7586022 -1.9288359,0.9082392 -0.390226,0.08333 -1.1280919,0.104103 -1.5086641,0.04246 z M 6.0005425,6.9609375 C 6.0016394,6.7558059 6.0959812,6.4150653 6.2230478,6.1573078 6.4044675,5.7892941 6.7267941,5.4669675 7.0948078,5.2855478 7.3525653,5.1584813 7.6933059,5.0641384 7.8984375,5.0630425 L 8,5.0625 V 5.5582525 6.0540047 L 7.8606897,6.0730994 C 7.4363209,6.1312656 7.0687656,6.4988209 7.0105994,6.9231897 L 6.9915047,7.0625 H 6.4957525 6 l 5.437e-4,-0.1015625 z"
       id="path835"
       inkscape:connector-curvature="0" />
    <path
       style="fill:#cbfefe;stroke-width:0.000357143"
       d="M 3.5474344,12.46931 3.0174335,11.93862 3.9696544,10.986544 c 0.5237212,-0.523641 0.9522206,-0.965861 0.9522206,-0.982709 0,-0.016848 0.027396,-0.056642 0.06088,-0.088432 0.059488,-0.056479 0.065402,-0.054767 0.2588053,0.074924 0.3072244,0.206016 0.5789253,0.350132 0.9293359,0.492939 l 0.3217913,0.131142 -1.193356,1.192796 C 4.6429853,12.463242 4.0995537,13 4.0917053,13 4.0838569,13 3.838935,12.76119 3.5474344,12.46931 Z M 11.125,5.4358684 c -0.222811,-0.1801115 -0.84797,-0.584805 -0.977966,-0.6330809 -0.02071,-0.00769 0.366984,-0.4195838 0.861548,-0.9153156 l 0.899208,-0.9013301 0.537563,0.5375629 0.537564,0.5375631 -0.796146,0.794661 -0.796146,0.7946606 z"
       id="path833"
       inkscape:connector-curvature="0" />
    <path
       style="fill:#cafdfd;stroke-width:0.000357143"
       d="m 12.676683,14.960938 c 0.294463,-0.296485 0.550953,-0.569779 0.569978,-0.607321 0.01902,-0.03754 0.03459,-0.128734 0.03459,-0.202648 V 14.01658 l -1.34239,-1.344228 C 10.584693,11.31633 10.5,11.218242 10.5,11.005919 c 0,-0.15402 0.129154,-0.354189 0.280001,-0.433958 0.159206,-0.08419 0.27145,-0.09036 0.43194,-0.02373 0.07918,0.03287 0.544307,0.475774 1.460411,1.390625 l 1.344228,1.342389 h 0.134389 c 0.07391,0 0.165106,-0.01557 0.202648,-0.03459 0.03754,-0.01902 0.310836,-0.275515 0.607321,-0.569978 L 15.5,12.141295 V 13.820648 15.5 h -1.679352 -1.679353 z"
       id="path831"
       inkscape:connector-curvature="0" />
    <path
       style="fill:#75b6fe;stroke-width:0.000357143"
       d="M 7.5625,9.0139053 C 7.0080494,8.8948231 6.4747506,8.4782769 6.2230478,7.9676922 6.0959813,7.7099347 6.0016384,7.3691941 6.0005425,7.1640625 L 6,7.0625 h 0.4957525 0.4957522 l 0.019095,0.1393103 c 0.043277,0.3157419 0.2687437,0.6204219 0.5675256,0.766916 0.1285931,0.06305 0.2032666,0.07661 0.421875,0.07661 0.2186084,0 0.2932819,-0.01356 0.421875,-0.07661 0.1992259,-0.097681 0.38667,-0.2851254 0.4843513,-0.4843513 0.1099946,-0.22434 0.1099946,-0.61941 0,-0.84375 C 8.7597322,6.3418431 8.4550522,6.1163766 8.1393103,6.0730994 L 8,6.0540047 V 5.5582525 5.0625 l 0.1015625,5.437e-4 c 0.2051316,0.0011 0.5458722,0.095439 0.8036297,0.2225054 C 9.4225119,5.5405722 9.8344216,6.0732003 9.9531453,6.6406263 10.251335,8.0657875 8.9878991,9.3200459 7.5625,9.0139066 Z"
       id="path829"
       inkscape:connector-curvature="0" />
    <path
       style="fill:#3298fe;stroke-width:0.000357143"
       d="m 11.953125,15.956277 c -0.242845,-0.108945 -0.360719,-0.405827 -0.264103,-0.66518 0.01802,-0.04839 0.260332,-0.316376 0.53846,-0.595537 L 12.73317,14.187995 11.432948,12.88306 c -1.213526,-1.217926 -1.304646,-1.316994 -1.366585,-1.485795 -0.1374777,-0.374668 -0.05642,-0.816117 0.195771,-1.066229 0.07094,-0.07035 0.218733,-0.173614 0.328435,-0.229473 0.249629,-0.1271086 0.523634,-0.1390642 0.806696,-0.0352 0.168799,0.06194 0.267856,0.153045 1.485371,1.366162 l 1.304512,1.299799 0.523613,-0.519809 c 0.441219,-0.438013 0.542329,-0.523276 0.642548,-0.541842 0.238623,-0.04421 0.425315,0.02708 0.566635,0.216362 0.06338,0.08489 0.06443,0.116507 0.06443,1.94109 0,1.824583 -0.001,1.856198 -0.06443,1.94109 -0.03544,0.04746 -0.103255,0.115292 -0.150707,0.150729 -0.08456,0.06315 -0.122404,0.06457 -1.904319,0.07141 -1.467858,0.0056 -1.836101,-0.0011 -1.911793,-0.03508 z M 15.5,13.820648 v -1.679353 l -0.539062,0.535388 c -0.296485,0.294463 -0.569779,0.550953 -0.607321,0.569978 -0.03754,0.01902 -0.128734,0.03459 -0.202648,0.03459 H 14.01658 l -1.344228,-1.342389 c -0.916104,-0.914851 -1.38123,-1.357752 -1.460411,-1.390625 -0.16049,-0.06663 -0.272734,-0.06047 -0.43194,0.02373 C 10.629154,10.65173 10.5,10.851899 10.5,11.005919 c 0,0.212323 0.08469,0.310411 1.438861,1.666433 l 1.342389,1.344228 v 0.134389 c 0,0.07391 -0.01557,0.165106 -0.03459,0.202648 -0.01902,0.03754 -0.275515,0.310836 -0.569978,0.607321 L 12.141295,15.5 H 13.820648 15.5 Z"
       id="path827"
       inkscape:connector-curvature="0" />
    <path
       style="fill:#fe0000;stroke-width:0.000357143"
       d="M 4.8541244,15.752435 C 4.7996741,15.738826 4.6942053,15.69146 4.6197494,15.647177 4.4125312,15.523933 0.42854334,11.51651 0.34148888,11.34375 0.17259883,11.008588 0.29637086,10.58296 0.61975116,10.386862 0.87606187,10.231435 1.0925722,10.221028 1.359375,10.351311 c 0.156124,0.07624 4.1713909,4.07272 4.2868234,4.266768 0.1630357,0.274073 0.1626566,0.522163 -0.00121,0.792416 -0.157541,0.25982 -0.5098932,0.412164 -0.790864,0.34194 z M 14.822874,5.7211853 C 14.768424,5.7075762 14.662955,5.66021 14.588499,5.6159272 14.381281,5.4926831 10.397293,1.4852597 10.310239,1.3125 c -0.16889,-0.3351625 -0.04512,-0.76078966 0.278262,-0.95688809 0.256311,-0.15542733 0.472821,-0.16583406 0.739624,-0.0355506 0.156124,0.0762375 4.171391,4.07271959 4.286823,4.26676809 0.163036,0.2740722 0.162657,0.5221628 -0.0012,0.7924159 -0.157541,0.2598197 -0.509893,0.4121638 -0.790863,0.34194 z"
       id="path825"
       inkscape:connector-curvature="0" />
    <path
       style="fill:#0000cb;stroke-width:0.000357143"
       d="M 7.5023497,9.5303978 C 7.2677128,9.4811819 7.0573694,9.4038366 6.796875,9.2709878 6.4437475,9.0908972 5.9729128,8.6205194 5.7905369,8.265625 5.5620187,7.8209409 5.515625,7.6179034 5.515625,7.0625 c 0,-0.4204931 0.00966,-0.5152856 0.07322,-0.71875 C 5.7096622,5.9570159 5.8905816,5.6457059 6.1598066,5.3612881 6.3971281,5.1105744 6.4090062,5.1027656 6.6779109,5.0206875 7.1898169,4.8644378 7.4135928,4.8326025 8,4.8326025 c 0.5864072,0 0.8101831,0.031835 1.3220891,0.188085 0.2689046,0.082078 0.2807828,0.089887 0.5181043,0.3406006 0.2692246,0.2844178 0.4501446,0.5957278 0.5709616,0.9824619 0.06356,0.2034644 0.07322,0.2982569 0.07322,0.71875 0,0.5554034 -0.04639,0.7584409 -0.274912,1.203125 C 10.027576,8.6195675 9.5566822,9.0903619 9.203125,9.2717509 8.7840984,9.4867284 8.57794,9.5375738 8.078125,9.5492131 7.8375,9.5548169 7.5784009,9.5463506 7.5023497,9.5303978 Z M 8.421875,9.0156453 C 9.3214828,8.8274184 9.9989147,7.9884269 9.9989147,7.0625 9.9989147,5.9717425 9.0907575,5.0635853 8,5.0635853 c -0.7409122,0 -1.4542134,0.4390403 -1.7769522,1.0937225 -0.2954,0.5992253 -0.2954,1.2111591 0,1.8103844 0.3931413,0.7974956 1.3092084,1.2340897 2.1988272,1.0479531 z"
       id="path823"
       inkscape:connector-curvature="0" />
    <path
       style="fill:#323232;stroke-width:0.000357143"
       d="M 7.3335641,10.795476 C 6.4651447,10.677164 5.5779959,10.287606 4.859375,9.70903 4.2774012,9.2404713 3.6712878,8.4856888 3.3143109,7.7849884 3.2268938,7.6134 3.2439544,7.4979981 3.3980216,7.21875 4.0441669,6.0476044 5.0236809,5.1416816 6.1335966,4.6887 8.283795,3.8111556 10.679027,4.525605 12.117666,6.4736272 c 0.33541,0.45417 0.663584,1.0209809 0.663584,1.1461197 0,0.032628 -0.02552,0.092861 -0.05671,0.1338512 -0.03119,0.04099 -0.131868,0.2010894 -0.22373,0.3557769 C 12.102993,8.7792616 11.462618,9.4965603 10.920965,9.8789963 9.8268394,10.651508 8.5921303,10.966942 7.3335641,10.795476 Z m 1.534475,-0.541533 C 9.5687222,10.104306 10.231725,9.792115 10.796875,9.3457038 11.019557,9.1698072 11.43901,8.7407938 11.645889,8.4773369 11.851617,8.2153472 12.21875,7.6390628 12.21875,7.578125 12.21875,7.55962 12.13527,7.4075612 12.033239,7.2402159 11.587574,6.5092603 11.008209,5.9122219 10.333501,5.4886269 8.7423794,4.4896903 6.7141941,4.6169544 5.203125,5.8105462 4.9804428,5.9864428 4.5609903,6.4154562 4.3541106,6.6789131 4.1483834,6.9409028 3.78125,7.5171872 3.78125,7.578125 c 0,0.060938 0.3671334,0.6372222 0.5728606,0.8992119 0.219761,0.2798609 0.6301916,0.6955272 0.8848603,0.8961481 0.5944891,0.4683209 1.353566,0.798714 2.1204041,0.922919 0.3805722,0.06164 1.1184381,0.04087 1.5086641,-0.04246 z"
       id="path821"
       inkscape:connector-curvature="0" />
    <path
       style="fill:#000000;stroke-width:0.000357143"
       d="M 7.6876684,8.01227 C 6.97962,7.7549953 6.7728872,6.8818719 7.2961294,6.3586294 7.5014528,6.1533059 7.6872622,6.0796641 8,6.0796641 c 0.3127378,0 0.4985472,0.073642 0.7038706,0.2789653 0.2053235,0.2053234 0.2789653,0.3911328 0.2789653,0.7038706 0,0.3127378 -0.073642,0.4985472 -0.2789653,0.7038706 C 8.4471069,8.0231341 8.0091959,8.1290994 7.6876684,8.01227 Z"
       id="path819"
       inkscape:connector-curvature="0" />
  </g>
</svg>
