<?xml version="1.0" encoding="UTF-8" standalone="no"?>
<!-- Created with Inkscape (http://www.inkscape.org/) -->

<svg
   version="1.1"
   id="svg2"
   width="1600"
   height="1600"
   viewBox="0 0 1600 1600"
   sodipodi:docname="volume_to_mesh.svg"
   inkscape:version="1.2.2 (732a01da63, 2022-12-09)"
   xmlns:inkscape="http://www.inkscape.org/namespaces/inkscape"
   xmlns:sodipodi="http://sodipodi.sourceforge.net/DTD/sodipodi-0.dtd"
   xmlns="http://www.w3.org/2000/svg"
   xmlns:svg="http://www.w3.org/2000/svg"
   xmlns:rdf="http://www.w3.org/1999/02/22-rdf-syntax-ns#"
   xmlns:cc="http://creativecommons.org/ns#"
   xmlns:dc="http://purl.org/dc/elements/1.1/">
  <metadata
     id="metadata8">
    <rdf:RDF>
      <cc:Work
         rdf:about="">
        <dc:format>image/svg+xml</dc:format>
        <dc:type
           rdf:resource="http://purl.org/dc/dcmitype/StillImage" />
      </cc:Work>
    </rdf:RDF>
  </metadata>
  <defs
     id="defs6" />
  <sodipodi:namedview
     pagecolor="#808080"
     bordercolor="#666666"
     borderopacity="1"
     objecttolerance="10"
     gridtolerance="10"
     guidetolerance="10"
     inkscape:pageopacity="0"
     inkscape:pageshadow="2"
     inkscape:window-width="1993"
     inkscape:window-height="1009"
     id="namedview4"
     showgrid="false"
     inkscape:zoom="0.5"
     inkscape:cx="9"
     inkscape:cy="8"
     inkscape:window-x="-8"
     inkscape:window-y="-8"
     inkscape:window-maximized="1"
     inkscape:current-layer="VOLUME_TO_MESH"
     inkscape:showpageshadow="0"
     inkscape:pagecheckerboard="true"
     inkscape:deskcolor="#d1d1d1" />
  <g
     id="VOLUME_TO_MESH"
     transform="matrix(100,0,0,100,0,4.9999997e-5)"
     style="stroke-width:0.0114286">
    <path
       style="fill:none;stroke-width:0.000357143"
       d="M 0,8 V 0 h 8 8 v 8 8 H 8 0 Z m 8.8007803,7.646175 c 0.2865753,-0.09948 0.3320216,-0.124296 0.5649088,-0.308431 0.2259984,-0.178688 0.4717668,-0.475957 0.5766572,-0.697494 0.065805,-0.138986 0.085624,-0.156796 0.1829147,-0.164374 0.163956,-0.01277 0.584123,-0.128772 0.779686,-0.215259 0.234314,-0.103625 0.450007,-0.241316 0.66627,-0.425325 l 0.180591,-0.153657 0.21836,0.20599 c 0.281095,0.26517 0.41655,0.348951 0.779832,0.482336 0.284739,0.104546 0.314759,0.109088 0.734375,0.111089 0.490015,0.0023 0.670861,-0.04022 1.09375,-0.257365 0.301382,-0.154755 0.740805,-0.594178 0.89556,-0.89556 0.217148,-0.422889 0.259703,-0.603735 0.257365,-1.09375 -0.002,-0.419616 -0.0065,-0.449636 -0.111089,-0.734375 -0.138006,-0.375868 -0.222249,-0.507758 -0.527243,-0.825447 -0.18946,-0.197346 -0.306187,-0.28779 -0.5076,-0.393303 l -0.261561,-0.137023 0.07831,-0.2674258 C 14.470665,9.6418347 14.48013,9.5505822 14.479842,9.125 14.47956,8.7175166 14.468313,8.6009391 14.408959,8.390625 14.085842,7.2457019 13.099834,6.3926109 11.962155,6.2736569 11.043155,6.1775678 10.23564,6.4587691 9.5972044,7.0972044 9.1407259,7.5536828 8.8109872,8.2074459 8.7954678,8.6867831 l -0.00757,0.2336581 -0.1911787,0.085368 C 7.8400119,9.3437091 7.246235,10.019722 6.9960925,10.828125 c -0.096737,0.31263 -0.1362488,0.803692 -0.094329,1.172339 l 0.036287,0.319109 -0.187661,0.20061 c -0.5910937,0.631881 -0.6655553,1.630012 -0.1765006,2.365929 0.1319481,0.198552 0.4261213,0.481672 0.6136119,0.590556 0.1706181,0.09909 0.4707481,0.214442 0.640625,0.246229 0.2414766,0.04518 0.733225,0.0064 0.9726553,-0.07672 z M 6.0538959,15.007813 C 5.9264903,14.764897 5.8253291,14.469414 5.7795297,14.206414 L 5.7435841,14 H 4.2391656 2.7347471 L 3.71875,13.015625 4.7027528,12.03125 l 0.8439363,-3.1e-5 0.8439359,-3.1e-5 v -0.367156 c 0,-0.201937 0.010278,-0.433954 0.02284,-0.515594 L 6.4363044,11 H 5.7337772 5.03125 V 8.515625 6.03125 H 7.515625 C 9.9523581,6.03125 10,6.0324094 10,6.09179 10,6.148698 10.01172,6.147021 10.195313,6.063857 10.439523,5.9532334 10.855871,5.8125 10.938931,5.8125 c 0.0358,0 0.07462,-0.030115 0.09064,-0.070312 0.01542,-0.038672 0.465067,-0.506165 0.999227,-1.0388734 L 13,3.7347531 v 1.1452653 1.1452654 l 0.179688,0.1011556 c 0.2958,0.1665215 0.545798,0.3420715 0.703125,0.4937384 L 14.03125,6.7632756 V 4.6274509 c 0,-1.5086386 -0.01046,-2.1707487 -0.03563,-2.2547552 C 13.953299,2.2314492 13.80698,2.0846794 13.659399,2.0354409 13.509068,1.9852848 4.5421012,1.9848773 4.3747434,2.035019 4.2810819,2.0630807 3.94119,2.387475 2.6639242,3.6678316 1.5146317,4.8199054 1.060226,5.2952579 1.0349939,5.3718507 0.9847092,5.5244923 0.9853257,14.490645 1.0356324,14.658554 c 0.040844,0.136324 0.1869086,0.287532 0.3237425,0.335142 0.1091073,0.03796 4.7142909,0.05181 4.6945209,0.01412 z M 2.03125,9.6638766 V 6.03125 H 3.015625 4 V 8.6798734 11.328497 L 3.015625,12.3125 2.03125,13.296503 Z M 3.359375,4.375 C 3.7028028,4.03125 3.9874366,3.75 3.9918944,3.75 3.9963525,3.75 4,4.03125 4,4.375 V 5 H 3.3674806 2.734961 Z M 5.03125,4.015625 V 3.03125 H 8.6638766 12.296503 L 11.3125,4.015625 10.328497,5 H 7.6798734 5.03125 Z"
       id="path827"
       inkscape:connector-curvature="0" />
    <path
       style="fill:#fefefe;stroke-width:0.000357143"
       d="m 7.9688753,15.228547 c -0.060087,-0.0082 -0.1233684,-0.02588 -0.140625,-0.03929 -0.017256,-0.01341 -0.073563,-0.03432 -0.1251253,-0.04646 C 7.4893337,15.092463 7.1860247,14.865552 7.0380778,14.645263 6.7305247,14.187325 6.6817412,13.744903 6.8842291,13.25 6.9659937,13.050158 7.0184228,12.978225 7.2400616,12.761793 7.4585466,12.548441 7.5,12.492048 7.5,12.408176 7.5,12.353294 7.4866022,12.283357 7.4702272,12.25276 7.4079231,12.136344 7.3740622,11.677839 7.4076537,11.40547 7.5218875,10.479241 8.1000744,9.7466256 8.984375,9.4076203 9.4543872,9.2274366 10.035384,9.2236094 10.53125,9.3974303 10.896525,9.5254738 11.081744,9.6370975 11.388507,9.9140625 11.666861,10.165378 11.75,10.116488 11.75,9.701485 V 9.4154697 L 11.569694,9.2738131 C 11.040498,8.8580538 10.334075,8.6519944 9.5927706,8.6971566 l -0.304249,0.018536 0.023544,-0.1000337 c 0.227121,-0.965008 1.0628414,-1.7177117 2.0394974,-1.8369039 1.149067,-0.1402338 2.22917,0.6011603 2.560266,1.7573941 0.04967,0.1734565 0.06571,0.3172062 0.06571,0.5888509 0,0.4020378 -0.06046,0.6726575 -0.226359,1.013196 -0.145254,0.298161 -0.127335,0.365537 0.108192,0.406808 0.06875,0.01205 0.255446,0.08584 0.41488,0.163994 0.238224,0.11677 0.324539,0.180105 0.484375,0.355414 0.218469,0.239619 0.299303,0.381401 0.417597,0.732463 0.07105,0.210867 0.07114,0.694941 1.56e-4,0.90625 -0.165017,0.49129 -0.479944,0.881621 -0.863895,1.070738 -0.339872,0.167405 -0.488919,0.205014 -0.8125,0.205014 -0.333989,0 -0.475694,-0.03668 -0.870965,-0.225446 -0.145365,-0.06943 -0.531085,-0.454785 -0.644648,-0.644056 -0.142996,-0.238326 -0.187419,-0.229382 -0.509885,0.102653 -0.473801,0.487863 -0.937738,0.715155 -1.5789072,0.773537 -0.2308056,0.02102 -0.2485009,0.02799 -0.3045706,0.119937 -0.032741,0.05369 -0.059581,0.116591 -0.059645,0.139775 C 9.530795,14.451424 9.1091978,14.944511 8.8125,15.086041 8.5646622,15.204264 8.2189456,15.262663 7.9688753,15.228547 Z"
       id="path825"
       inkscape:connector-curvature="0" />
    <path
       style="fill:#fecb32;stroke-width:0.000357143"
       d="M 1.359375,14.993696 C 1.2225411,14.946086 1.0764761,14.794878 1.0356325,14.658554 0.98532244,14.490634 0.98473156,5.5425878 1.0350193,5.3747419 1.0630725,5.2811087 1.3847722,4.9438697 2.6522068,3.6794381 4.0819784,2.2530546 4.2492091,2.0961539 4.3883794,2.0505095 4.5273137,2.0049425 4.9832509,2 9.0477788,2 c 3.2754942,0 4.5343932,0.00967 4.6116202,0.035441 0.147581,0.049238 0.2939,0.1960083 0.336219,0.3372548 0.02517,0.084007 0.03563,0.7461166 0.03563,2.2547552 V 6.7632756 L 13.882813,6.6201778 C 13.725486,6.4685109 13.475488,6.2929609 13.179688,6.1264394 L 13,6.0252838 V 4.8800184 3.7347531 l -0.9712,0.968561 c -0.53416,0.5327084 -0.983812,1.0002015 -0.999227,1.0388734 -0.01602,0.040197 -0.05484,0.070312 -0.09064,0.070312 -0.08306,0 -0.499408,0.1407334 -0.743618,0.2513569 C 10.01172,6.1470212 10,6.1486975 10,6.09179 10,6.0322197 9.9361716,6.03125 6.015625,6.03125 H 2.03125 V 10.015625 14 h 1.8561672 1.8561669 l 0.035946,0.206414 c 0.045799,0.263 0.1469606,0.558483 0.2743662,0.801399 0.01977,0.03769 -4.5854137,0.02385 -4.6945209,-0.01412 z M 11.3125,4.015625 12.296503,3.03125 H 8.4996278 4.7027528 L 3.71875,4.015625 2.7347471,5 h 3.7968751 3.7968748 z"
       id="path823"
       inkscape:connector-curvature="0" />
    <path
       style="fill:#cb9800;stroke-width:0.000357143"
       d="M 2.03125,13.648252 V 13.296503 L 3.015625,12.3125 4,11.328497 V 8.6798734 6.03125 H 4.515625 5.03125 V 8.515625 11 h 0.7025272 0.7025272 l -0.02284,0.148438 c -0.012562,0.08164 -0.02284,0.313657 -0.02284,0.515594 v 0.367156 l -0.8439359,3.1e-5 -0.8439363,3.1e-5 L 3.71875,13.015625 2.7347471,14 H 2.3829985 2.03125 Z M 4,4.3666778 V 3.7333556 L 4.3520516,3.3823028 4.7041028,3.03125 H 4.8676766 5.03125 V 4.015625 5 H 4.515625 4 Z"
       id="path821"
       inkscape:connector-curvature="0" />
    <path
       style="fill:#323232;stroke-width:0.000357143"
       d="M 7.828125,15.722897 C 7.2036594,15.60605 6.6343678,15.137113 6.3915666,14.539576 6.1130791,13.854214 6.2562616,13.048407 6.7503887,12.520183 l 0.187661,-0.20061 -0.036287,-0.319109 c -0.041919,-0.368647 -0.00241,-0.859709 0.09433,-1.172339 C 7.246235,10.019722 7.8400119,9.3437091 8.5967241,9.0058094 l 0.1911787,-0.085368 0.00757,-0.2336581 C 8.8109872,8.2074459 9.1407259,7.5536828 9.5972044,7.0972044 10.23564,6.4587691 11.043155,6.1775678 11.962155,6.2736569 c 1.137679,0.118954 2.123687,0.972045 2.446804,2.1169681 0.05935,0.2103141 0.07061,0.3268916 0.07088,0.734375 2.81e-4,0.4255822 -0.0092,0.5168347 -0.07798,0.7518012 l -0.07831,0.2674258 0.261561,0.137023 c 0.201413,0.105513 0.31814,0.195957 0.5076,0.393303 0.304994,0.317689 0.389237,0.449579 0.527243,0.825447 0.104547,0.284739 0.109088,0.314759 0.111089,0.734375 0.0023,0.490015 -0.04022,0.670861 -0.257365,1.09375 -0.154755,0.301382 -0.594178,0.740805 -0.89556,0.89556 -0.422889,0.217148 -0.603735,0.259702 -1.09375,0.257365 -0.419616,-0.002 -0.449636,-0.0065 -0.734375,-0.111089 -0.363282,-0.133385 -0.498737,-0.217166 -0.779832,-0.482336 l -0.21836,-0.20599 -0.180591,0.153657 c -0.216263,0.184009 -0.431956,0.3217 -0.66627,0.425325 -0.195563,0.08649 -0.61573,0.202489 -0.779686,0.215259 -0.09729,0.0076 -0.11711,0.02539 -0.1829147,0.164374 -0.1048904,0.221537 -0.3506588,0.518806 -0.5766572,0.697494 -0.2328872,0.184135 -0.2783335,0.208948 -0.5649088,0.308431 -0.2394303,0.08312 -0.7311787,0.121906 -0.9726553,0.07672 z M 8.59375,15.170535 c 0.2056075,-0.06905 0.2798684,-0.108594 0.4471219,-0.238088 0.231665,-0.179365 0.4900909,-0.541413 0.490495,-0.68717 6.25e-5,-0.02318 0.026905,-0.08608 0.059645,-0.139775 0.05607,-0.09195 0.073765,-0.09892 0.3045706,-0.119937 0.6411695,-0.05838 1.1051065,-0.285674 1.5789075,-0.773537 0.322466,-0.332036 0.366889,-0.340979 0.509885,-0.102653 0.113563,0.189271 0.499283,0.57463 0.64466,0.644056 0.39527,0.188766 0.536975,0.225446 0.870965,0.225446 0.32358,0 0.472627,-0.03761 0.8125,-0.205014 0.38395,-0.189117 0.698878,-0.579448 0.863895,-1.070738 0.07098,-0.211309 0.07089,-0.695383 -1.57e-4,-0.90625 -0.118293,-0.351062 -0.199127,-0.492844 -0.417596,-0.732463 -0.159836,-0.175309 -0.246152,-0.238644 -0.484375,-0.355414 -0.159434,-0.07815 -0.34613,-0.151947 -0.41488,-0.163994 -0.235528,-0.04127 -0.253446,-0.108647 -0.108192,-0.406808 0.165899,-0.3405385 0.226358,-0.6111582 0.226358,-1.013196 0,-0.5351625 -0.147224,-0.9809966 -0.462402,-1.4002753 C 12.639253,6.5595225 10.983018,6.4359756 9.9595022,7.4594906 9.6626466,7.7563466 9.4067828,8.2132663 9.3120769,8.6156588 L 9.2885331,8.7156925 9.5927822,8.6971566 C 10.334087,8.6519944 11.04051,8.8580538 11.569705,9.2738131 l 0.180307,0.1416566 V 9.701485 c 0,0.415003 -0.08314,0.463893 -0.361494,0.2125775 C 11.081744,9.6370975 10.896525,9.5254738 10.53125,9.3974303 9.4310703,9.0117731 8.1666316,9.5354594 7.6578413,10.587496 c -0.1723557,0.356383 -0.2073819,0.4709 -0.2501875,0.817974 -0.033592,0.272369 2.812e-4,0.730874 0.062573,0.84729 0.016375,0.0306 0.029773,0.100534 0.029773,0.155416 0,0.08387 -0.041453,0.140265 -0.2599384,0.353617 -0.2216388,0.216432 -0.2740678,0.288365 -0.3558325,0.488207 -0.2024878,0.494903 -0.1537044,0.937325 0.1538487,1.395263 0.1479469,0.220289 0.451256,0.4472 0.6650472,0.497533 0.051563,0.01214 0.1078691,0.03305 0.1251253,0.04646 0.089221,0.06935 0.5357731,0.05843 0.7654997,-0.01872 z"
       id="path819"
       inkscape:connector-curvature="0" />
  </g>
</svg>
