<?xml version="1.0" encoding="UTF-8" standalone="no"?>
<!-- Created with Inkscape (http://www.inkscape.org/) -->

<svg
   version="1.1"
   id="svg2"
   width="1600"
   height="1600"
   viewBox="0 0 1600 1600"
   sodipodi:docname="volume_distribute.svg"
   inkscape:version="1.2.2 (732a01da63, 2022-12-09)"
   xmlns:inkscape="http://www.inkscape.org/namespaces/inkscape"
   xmlns:sodipodi="http://sodipodi.sourceforge.net/DTD/sodipodi-0.dtd"
   xmlns="http://www.w3.org/2000/svg"
   xmlns:svg="http://www.w3.org/2000/svg">
  <defs
     id="defs6" />
  <sodipodi:namedview
     id="namedview4"
     pagecolor="#808080"
     bordercolor="#000000"
     borderopacity="0.25"
     inkscape:showpageshadow="2"
     inkscape:pageopacity="0"
     inkscape:pagecheckerboard="true"
     inkscape:deskcolor="#d1d1d1"
     showgrid="false"
     inkscape:zoom="0.5"
     inkscape:cx="691"
     inkscape:cy="586"
     inkscape:window-width="1993"
     inkscape:window-height="1009"
     inkscape:window-x="-8"
     inkscape:window-y="-8"
     inkscape:window-maximized="1"
     inkscape:current-layer="svg2" />
  <g
     id="VOLUME_DISTRIBUTE"
     style="stroke-width:0.0114286"
     transform="matrix(100,0,0,100,0,4.9999997e-5)">
    <path
       style="fill:none;stroke-width:0.000357143"
       d="M 0,8 V 0 h 8 8 v 8 8 H 8 0 Z m 8.2275663,7.456275 c 0.055307,-0.02405 0.4431809,-0.387871 0.8619409,-0.808494 l 0.7613825,-0.764769 -0.2436991,-0.02284 c -0.4784378,-0.04483 -1.0018668,-0.260494 -1.43725,-0.592169 -0.025488,-0.01942 -0.1132218,0.0173 -0.26798,0.112163 -0.3427875,0.210111 -0.5722943,0.306605 -0.9614918,0.404251 -0.1524335,0.03824 -0.1822004,0.06065 -0.3052207,0.229714 l -0.1363147,0.187336 0.6020957,0.60552 c 0.3311528,0.333036 0.6442834,0.624654 0.6958459,0.648041 0.1223144,0.05548 0.3047516,0.056 0.4306913,0.0012 z M 5.2835806,14.586123 c 0.2660988,-0.09589 0.6117669,-0.326954 0.7967735,-0.532615 0.080588,-0.08959 0.2098743,-0.271867 0.2873028,-0.40507 0.1304075,-0.224346 0.1483394,-0.242188 0.2434118,-0.242188 0.3745604,0 1.0953222,-0.32241 1.4597057,-0.652952 l 0.086399,-0.07838 0.163601,0.155577 c 0.2713294,0.258023 0.5561619,0.42392 0.9136006,0.532117 0.2748388,0.08319 1.045328,0.08278 1.328125,-7.09e-4 0.111719,-0.03298 0.216484,-0.07166 0.232813,-0.08594 0.01633,-0.01428 0.04759,-0.02597 0.06947,-0.02597 0.08899,0 0.51047,-0.295824 0.702097,-0.492781 0.199027,-0.204565 0.46437,-0.588593 0.46437,-0.67208 0,-0.02276 0.01168,-0.05475 0.02597,-0.07108 0.01428,-0.01633 0.05295,-0.121094 0.08594,-0.232813 0.08358,-0.28311 0.08391,-1.053476 5.69e-4,-1.328125 C 12.026291,10.066151 11.824999,9.7389603 11.525869,9.4488334 11.323979,9.2530206 10.953013,9 10.867812,9 c -0.0407,0 -0.03835,-0.031652 0.01681,-0.2265625 0.05279,-0.1865372 0.06444,-0.3204153 0.06595,-0.7578125 0.002,-0.5903203 -0.02877,-0.7631038 -0.21451,-1.2035166 C 10.351922,5.9012794 9.4501703,5.2072347 8.5,5.0910956 8.1950241,5.0538184 7.5634141,5.0710369 7.328125,5.1230425 6.4192844,5.3239222 5.5906019,6.0620016 5.2558469,6.96875 5.1893394,7.1488981 5.1634425,7.2664769 5.1062675,7.6478841 c -0.011526,0.076889 -0.03535,0.1067378 -0.099767,0.125 C 4.8530106,7.8163978 4.5464762,7.9996006 4.2994756,8.1954428 3.8100275,8.5835178 3.4100187,9.2112178 3.2789453,9.796875 3.2355391,9.9908225 3.2122759,10.71152 3.2421278,10.9375 l 0.026832,0.203125 -0.1579176,0.175315 c -0.2107888,0.23401 -0.2672881,0.318809 -0.368559,0.553168 -0.1424608,0.329679 -0.187493,0.811031 -0.1166898,1.247306 0.105273,0.648671 0.6919586,1.298832 1.3429561,1.488254 0.2608775,0.07591 0.2983106,0.0794 0.71875,0.067 0.3119331,-0.0092 0.4320144,-0.02643 0.5960806,-0.08555 z M 15.456236,8.1963163 c 0.05579,-0.1281969 0.05583,-0.2955219 9.3e-5,-0.4238826 -0.02492,-0.057393 -0.719102,-0.7737009 -1.617187,-1.6687265 -1.392759,-1.3880128 -1.587193,-1.5706463 -1.692463,-1.5897428 -0.239372,-0.043424 -0.425401,0.027736 -0.566636,0.2167497 -0.06075,0.081296 -0.06496,0.1343584 -0.07368,0.9277565 L 11.497131,6.5 h -0.158159 c -0.138794,0 -0.155266,0.0067 -0.134534,0.054687 0.101604,0.2351941 0.210312,0.5896372 0.24915,0.8123553 0.05541,0.3177219 0.06025,0.8810922 0.01046,1.2158725 -0.03553,0.2389091 -0.03508,0.2422766 0.03906,0.2897713 0.257073,0.1646778 0.702009,0.6800468 0.852567,0.9875272 0.12919,0.2638397 0.261047,0.7024747 0.285148,0.9485707 l 0.02259,0.23066 1.374528,-1.3712851 c 0.77447,-0.7726392 1.393636,-1.4151836 1.418295,-1.4718426 z M 2.8419794,9.90625 C 2.9669235,9.0915434 3.5570919,8.1900381 4.2698191,7.7251691 L 4.5234925,7.5597134 4.5439153,7.3814191 C 4.5610372,7.2319434 4.7065319,6.75247 4.7947847,6.5546875 4.8162444,6.5065941 4.8001191,6.5 4.6610503,6.5 H 4.5029137 L 4.4936444,5.6740941 C 4.4849172,4.8965094 4.4806053,4.8431431 4.4199441,4.7619625 4.2787069,4.5729497 4.09268,4.5017912 3.8533087,4.5452144 3.7480384,4.5643109 3.5536044,4.7469444 2.1608457,6.1349572 1.2627599,7.0299828 0.56857597,7.7462903 0.54365822,7.8036837 0.49183856,7.9230409 0.48740572,8.0870559 0.53270634,8.2089031 0.55069481,8.2572878 1.0604604,8.7927484 1.6655188,9.3988159 L 2.765625,10.500757 2.788226,10.305066 c 0.012431,-0.10763 0.03662,-0.287097 0.053753,-0.398816 z M 6.8551369,4.68238 C 7.1926528,4.5593878 7.5654497,4.5 8,4.5 8.5261784,4.5 8.9723397,4.5912384 9.4453125,4.7955619 9.4933034,4.8162941 9.5,4.7998231 9.5,4.6610503 V 4.5029137 l 0.825906,-0.00927 c 0.777585,-0.00873 0.830951,-0.013039 0.912132,-0.0737 C 11.42705,4.2787069 11.498209,4.09268 11.454786,3.8533088 11.435689,3.7480384 11.253056,3.5536044 9.8650428,2.1608457 8.9700172,1.2627599 8.2537097,0.56857597 8.1963163,0.54365822 c -0.1282788,-0.055693 -0.2956038,-0.055693 -0.4238826,0 C 7.7150403,0.56857597 6.9987328,1.2627599 6.1037072,2.1608457 4.7156944,3.5536044 4.5330609,3.7480384 4.5139644,3.8533088 c -0.043424,0.2393721 0.027736,0.4254003 0.2167497,0.5666353 0.081296,0.060746 0.1343584,0.06496 0.9277565,0.073678 L 6.5,4.5028694 v 0.1581587 c 0,0.1387941 0.0067,0.155266 0.054687,0.1345338 C 6.584765,4.7825679 6.7199673,4.7316369 6.8551369,4.68238 Z"
       id="path855" />
    <path
       style="fill:#fefefe;stroke-width:0.000357143"
       d="m 7.4242472,14.408625 -0.5907763,-0.591391 0.1848272,-0.05143 c 0.3558838,-0.09903 0.5639597,-0.189857 0.8836625,-0.385709 0.1547519,-0.0948 0.2424928,-0.131501 0.26798,-0.112085 0.290925,0.221627 0.5055388,0.331439 0.9945291,0.508876 0.04377,0.01588 -0.0687,0.143643 -0.5471756,0.621562 l -0.6022707,0.60157 z M 12.546045,10.357809 C 12.424321,9.9732603 12.260502,9.6504116 12.073883,9.4272897 12.016147,9.3582597 12,9.3019169 12,9.1694772 V 9 H 11.84308 C 11.725049,9 11.654672,8.979162 11.559106,8.91592 11.441032,8.837782 11.43335,8.823979 11.450415,8.7206075 c 0.0101,-0.061177 0.02696,-0.3221697 0.03746,-0.5799822 0.01794,-0.4403169 -0.02323,-0.8895775 -0.09979,-1.0890941 C 11.370521,7.0057541 11.403532,7 11.683724,7 h 0.31541 l 0.0082,-1.0001403 0.0082,-1.0001403 1.492202,1.4924634 1.492202,1.4924631 -1.217348,1.2170485 C 12.780977,10.203152 12.561916,10.407949 12.546045,10.357809 Z M 1.9140991,8.9298594 1.0000733,8.0153075 2.5000366,6.5155884 4,5.0158691 V 6.0079347 7 h 0.3146059 c 0.3093875,0 0.314246,0.00113 0.2929063,0.068369 -0.011935,0.037603 -0.037869,0.1643347 -0.057632,0.2816253 L 4.5139475,7.5632506 4.2491612,7.7400241 C 3.9001259,7.9730425 3.615185,8.2617616 3.3784672,8.6222631 3.1605122,8.95419 3.0275351,9.2253441 2.9344287,9.5277025 2.8994259,9.6413725 2.8611882,9.7591331 2.8494561,9.7893931 2.8324428,9.8332747 2.6431091,9.6592888 1.9140991,8.9298594 Z M 7,4.3158434 V 4 H 5.9923097 4.9846191 L 6.4843756,2.4999994 7.9841322,0.99999875 9.4765819,2.4921869 10.969032,3.984375 9.9845159,3.9926266 9,4.0008778 V 4.3162825 C 9,4.5946231 8.9940309,4.6293962 8.9492044,4.6121947 8.8048753,4.5568103 8.3242403,4.5 8,4.5 7.6757597,4.5 7.1951247,4.5568103 7.0507956,4.6121947 7.0059662,4.6293972 7,4.5945894 7,4.3158434 Z"
       id="path853" />
    <path
       style="fill:#fecb32;stroke-width:0.000357143"
       d="m 4.3751253,14.103547 c -0.060087,-0.0082 -0.1233684,-0.02588 -0.140625,-0.03929 -0.017256,-0.01341 -0.073563,-0.03432 -0.1251253,-0.04646 C 3.8955838,13.967463 3.5922747,13.740552 3.4443278,13.520263 3.1367747,13.062325 3.0879912,12.619903 3.2904791,12.125 3.3722438,11.925158 3.4246728,11.853225 3.6463116,11.636793 3.8647966,11.423441 3.90625,11.367048 3.90625,11.283176 3.90625,11.228296 3.892852,11.158357 3.876477,11.12776 3.8141731,11.011344 3.7803122,10.552839 3.8139037,10.28047 3.9281375,9.3542412 4.5063244,8.6216256 5.390625,8.2826203 5.8606372,8.1024366 6.4416341,8.0986094 6.9375,8.2724303 7.3027747,8.4004738 7.4879937,8.5120975 7.7947566,8.7890625 8.0731109,9.0403784 8.15625,8.9914884 8.15625,8.576485 V 8.2904697 L 7.9759437,8.1488131 C 7.4467484,7.7330537 6.7403253,7.5269944 5.9990206,7.5721566 l -0.304249,0.018536 0.023544,-0.1000337 C 5.9454366,6.5256509 6.7811566,5.7729472 7.7578125,5.653755 8.9068797,5.5135212 9.9869825,6.2549153 10.318079,7.4111491 10.36775,7.5846056 10.383792,7.7283553 10.383792,8 c 0,0.4020378 -0.06046,0.6726575 -0.226359,1.0131956 -0.145254,0.2981616 -0.127335,0.3655378 0.108192,0.4068085 0.06875,0.012047 0.255446,0.085844 0.41488,0.163994 0.238224,0.11677 0.324539,0.1801047 0.484375,0.3554141 0.218469,0.2396188 0.299303,0.3814008 0.417597,0.7324628 0.07105,0.210867 0.07114,0.694941 1.56e-4,0.90625 -0.165017,0.49129 -0.479944,0.881621 -0.863895,1.070738 -0.339872,0.167405 -0.488919,0.205014 -0.8124996,0.205014 -0.3339897,0 -0.4756947,-0.03668 -0.870965,-0.225446 C 8.8899075,12.559005 8.5041875,12.173646 8.390625,11.984375 8.2476294,11.746049 8.2032056,11.754993 7.88074,12.087028 c -0.4738009,0.487863 -0.9377378,0.715155 -1.5789072,0.773537 -0.2308056,0.02102 -0.2485009,0.02799 -0.3045706,0.119937 -0.032741,0.05369 -0.059581,0.116591 -0.059645,0.139775 -5.719e-4,0.206147 -0.4221691,0.699234 -0.7188669,0.840764 -0.2478378,0.118223 -0.5935544,0.176622 -0.843625,0.142506 z"
       id="path851" />
    <path
       style="fill:#323232;stroke-width:0.000357143"
       d="M 7.796875,15.455032 C 7.7453125,15.431645 7.4321819,15.140027 7.1010291,14.806991 L 6.4989334,14.201471 6.64045,14.006986 C 6.7182844,13.900018 6.7924913,13.8125 6.8053544,13.8125 c 0.012863,0 0.2903009,0.267191 0.6165284,0.593758 l 0.5931406,0.593757 0.5948397,-0.594252 0.5948394,-0.594253 0.3211647,0.03768 0.3211647,0.03768 -0.7594535,0.762839 c -0.4176993,0.419562 -0.804705,0.782516 -0.8600122,0.806564 -0.1259396,0.05476 -0.3083768,0.05423 -0.4306912,-0.0012 z M 4.21875,14.668933 C 3.4306497,14.525143 2.7461492,13.858019 2.6257939,13.116414 2.5549907,12.680139 2.6000229,12.198787 2.7424837,11.869108 2.8437546,11.634749 2.9002539,11.54995 3.1110427,11.31594 L 3.2689603,11.140625 3.2421278,10.9375 C 3.2122759,10.71152 3.2355391,9.9908225 3.2789453,9.796875 3.4100188,9.2112178 3.8100275,8.5835178 4.2994756,8.1954428 4.5464763,7.9996006 4.8530106,7.8163978 5.0065003,7.7728841 c 0.064418,-0.018262 0.088241,-0.048111 0.099767,-0.125 C 5.1634425,7.2664769 5.1893394,7.1488981 5.2558469,6.96875 5.5508666,6.1696325 6.2036619,5.5170362 7,5.2251291 7.2894897,5.1190131 7.4055394,5.0979903 7.828125,5.0751112 c 0.9611656,-0.052038 1.6651472,0.2089732 2.31886,0.85975 0.345461,0.3439094 0.612837,0.8208697 0.749021,1.3361485 0.08428,0.3188987 0.0777,1.1876644 -0.01138,1.5024278 C 10.829461,8.9683475 10.827112,9 10.867812,9 c 0.0852,0 0.456167,0.2530206 0.658056,0.4488334 0.29913,0.2901269 0.500422,0.6173176 0.617855,1.0042916 0.08335,0.274649 0.08302,1.045015 -5.69e-4,1.328125 -0.03298,0.111719 -0.07166,0.216484 -0.08594,0.232813 -0.01428,0.01633 -0.02597,0.04831 -0.02597,0.07108 0,0.08349 -0.265343,0.467515 -0.46437,0.672078 -0.191621,0.196956 -0.6131,0.492779 -0.702091,0.492779 -0.02188,0 -0.05314,0.01168 -0.06947,0.02597 -0.01633,0.01428 -0.121094,0.05295 -0.232813,0.08594 -0.282797,0.08349 -1.0532862,0.0839 -1.328125,7.09e-4 C 8.8769363,13.254418 8.5921038,13.08852 8.3207744,12.830498 l -0.163601,-0.155577 -0.086399,0.07838 C 7.7063909,13.08384 6.9856291,13.40625 6.6110687,13.40625 c -0.095072,0 -0.1130043,0.01784 -0.2434118,0.242188 -0.1847013,0.317748 -0.3832622,0.534337 -0.6562238,0.715801 -0.3448128,0.229231 -0.5596922,0.293748 -1.0239331,0.307434 -0.2148437,0.0063 -0.4257812,0.0051 -0.46875,-0.0027 z M 5,14.045535 c 0.2056075,-0.06905 0.2798684,-0.108594 0.4471219,-0.238088 0.231665,-0.179365 0.4900909,-0.541413 0.490495,-0.68717 6.25e-5,-0.02318 0.026905,-0.08608 0.059645,-0.139775 0.05607,-0.09195 0.073765,-0.09892 0.3045706,-0.119937 0.6411694,-0.05838 1.1051063,-0.285674 1.5789072,-0.773537 0.3224656,-0.332036 0.3668894,-0.340979 0.509885,-0.102653 0.1135625,0.189271 0.4992825,0.57463 0.64466,0.644056 0.3952703,0.188766 0.5369753,0.225446 0.870965,0.225446 0.3235803,0 0.4726273,-0.03761 0.8125003,-0.205014 0.38395,-0.189117 0.698878,-0.579448 0.863895,-1.070738 0.07098,-0.211309 0.07089,-0.695383 -1.57e-4,-0.90625 C 11.464195,10.320813 11.383361,10.179031 11.164892,9.9394122 11.005056,9.7641028 10.91874,9.7007681 10.680517,9.5839981 10.521083,9.5058481 10.334387,9.4320509 10.265637,9.4200041 10.030109,9.3787334 10.012191,9.3113572 10.157445,9.0131956 10.323344,8.6726575 10.383803,8.4020378 10.383803,8 10.383803,7.4648375 10.236579,7.0190034 9.9214013,6.5997247 9.0455031,5.4345225 7.3892675,5.3109756 6.3657522,6.3344906 6.0688966,6.6313466 5.8130328,7.0882662 5.7183269,7.4906587 L 5.6947831,7.5906925 5.9990322,7.5721566 C 6.7403369,7.5269944 7.44676,7.7330537 7.9759553,8.1488131 L 8.1562616,8.2904697 V 8.576485 c 0,0.4150034 -0.083139,0.4638934 -0.3614935,0.2125775 C 7.4879937,8.5120975 7.3027747,8.4004738 6.9375,8.2724303 5.8373203,7.8867731 4.5728816,8.4104594 4.0640913,9.4624956 3.8917356,9.8188788 3.8567094,9.9333959 3.8139038,10.28047 c -0.033592,0.272369 2.812e-4,0.730874 0.062573,0.84729 0.016375,0.0306 0.029773,0.100534 0.029773,0.155416 0,0.08387 -0.041453,0.140265 -0.2599384,0.353617 -0.2216388,0.216432 -0.2740678,0.288365 -0.3558325,0.488207 -0.2024879,0.494903 -0.1537044,0.937325 0.1538487,1.395263 0.1479469,0.220289 0.451256,0.4472 0.6650472,0.497533 0.051563,0.01214 0.1078691,0.03305 0.1251253,0.04646 0.089221,0.06935 0.5357731,0.05843 0.7654997,-0.01872 z m 7.640754,-3.231746 c -0.01246,-0.124111 -0.03352,-0.263063 -0.04678,-0.308785 -0.02256,-0.07773 0.05476,-0.162262 1.190942,-1.3020134 L 14.999976,7.9841066 13.499988,6.4843628 12,4.9846191 v 1.0087837 1.0087838 l -0.316037,-0.00891 -0.316038,-0.00891 -0.07018,-0.1875 C 11.259145,6.69375 11.217045,6.5847656 11.204188,6.5546875 11.183689,6.5067288 11.200273,6.5 11.338972,6.5 h 0.158159 l 0.0092,-0.8415294 c 0.0087,-0.7933981 0.01293,-0.8464609 0.07368,-0.9277565 0.141235,-0.1890135 0.327263,-0.2601732 0.566635,-0.2167497 0.105271,0.019096 0.299705,0.20173 1.692463,1.5897428 0.898086,0.8950256 1.59227,1.6113331 1.617188,1.6687265 0.05573,0.1283607 0.05569,0.2956857 -9.4e-5,0.4238826 -0.02466,0.056659 -0.643825,0.6992034 -1.418292,1.4718431 l -1.374527,1.3712846 -0.02266,-0.225655 z M 1.6655188,9.3988547 C 1.0604604,8.7927659 0.55069481,8.2572878 0.53270634,8.2089031 0.48740572,8.0870559 0.49183856,7.9230409 0.54365822,7.8036838 0.56857597,7.7462903 1.2627599,7.0299828 2.1608457,6.1349572 3.5536044,4.7469444 3.7480384,4.5643109 3.8533088,4.5452144 4.09268,4.5017913 4.2787069,4.5729497 4.4199441,4.7619625 c 0.060661,0.081181 0.064973,0.1345469 0.0737,0.9121316 L 4.5029137,6.5 h 0.1581366 c 0.1386778,0 0.15526,0.00673 0.1347613,0.054687 -0.012856,0.030079 -0.054957,0.139063 -0.093556,0.242188 l -0.07018,0.1875 L 4.3160378,6.993285 4,7.0021866 V 6.0090278 5.0158691 L 2.500035,6.51559 1.0000701,8.0153109 1.9213198,8.9373428 2.8425695,9.859375 2.8040973,10.180105 2.765625,10.500834 Z M 11.828125,9.15625 11.674224,9 H 11.837112 12 v 0.15625 c 0,0.085937 -0.004,0.15625 -0.009,0.15625 -0.0049,0 -0.07824,-0.070312 -0.162888,-0.15625 z M 6.5,4.6610281 V 4.5028694 L 5.6584706,4.4936222 C 4.8650725,4.4849037 4.8120097,4.48069 4.7307141,4.4199441 4.5417006,4.2787091 4.4705409,4.0926809 4.5139644,3.8533088 4.5330609,3.7480384 4.7156944,3.5536044 6.1037072,2.1608457 6.9987328,1.2627599 7.7150403,0.56857597 7.7724337,0.54365822 c 0.1282788,-0.055693 0.2956038,-0.055693 0.4238825,0 0.057393,0.0249178 0.773701,0.71910168 1.6687266,1.61718748 1.3880132,1.3927587 1.5706462,1.5871927 1.5897432,1.6924631 0.04342,0.2393712 -0.02774,0.4253981 -0.216749,0.5666353 -0.08118,0.060661 -0.134546,0.064973 -0.912131,0.0737 L 9.5,4.5029137 V 4.6610503 C 9.5,4.7997281 9.49327,4.8163103 9.445313,4.7958116 9.4152344,4.7829553 9.30625,4.740855 9.203125,4.7022556 l -0.1875,-0.07018 -0.0089,-0.3155972 -0.0089,-0.3155972 0.9856041,-0.00825 L 10.969032,3.984375 9.4765819,2.4921869 7.9841322,0.99999875 6.4843756,2.4999994 4.9846191,4 h 1.0087837 1.0087838 l -0.00891,0.3160375 -0.00891,0.3160378 -0.1875,0.07018 C 6.69375,4.740855 6.5847656,4.7829553 6.5546875,4.7958116 6.5067288,4.8163106 6.5,4.7997269 6.5,4.6610281 Z"
       id="path849" />
  </g>
</svg>
