<?xml version="1.0" encoding="UTF-8" standalone="no"?>
<!-- Created with Inkscape (http://www.inkscape.org/) -->

<svg
   version="1.1"
   id="svg2"
   width="1600"
   height="1600"
   viewBox="0 0 1600 1600"
   sodipodi:docname="vpaint_hlt.svg"
   inkscape:version="1.2.2 (732a01da63, 2022-12-09)"
   xmlns:inkscape="http://www.inkscape.org/namespaces/inkscape"
   xmlns:sodipodi="http://sodipodi.sourceforge.net/DTD/sodipodi-0.dtd"
   xmlns="http://www.w3.org/2000/svg"
   xmlns:svg="http://www.w3.org/2000/svg"
   xmlns:rdf="http://www.w3.org/1999/02/22-rdf-syntax-ns#"
   xmlns:cc="http://creativecommons.org/ns#"
   xmlns:dc="http://purl.org/dc/elements/1.1/">
  <metadata
     id="metadata8">
    <rdf:RDF>
      <cc:Work
         rdf:about="">
        <dc:format>image/svg+xml</dc:format>
        <dc:type
           rdf:resource="http://purl.org/dc/dcmitype/StillImage" />
      </cc:Work>
    </rdf:RDF>
  </metadata>
  <defs
     id="defs6" />
  <sodipodi:namedview
     pagecolor="#808080"
     bordercolor="#666666"
     borderopacity="1"
     objecttolerance="10"
     gridtolerance="10"
     guidetolerance="10"
     inkscape:pageopacity="0"
     inkscape:pageshadow="2"
     inkscape:window-width="1993"
     inkscape:window-height="1009"
     id="namedview4"
     showgrid="false"
     inkscape:zoom="0.5"
     inkscape:cx="9"
     inkscape:cy="8"
     inkscape:window-x="-8"
     inkscape:window-y="-8"
     inkscape:window-maximized="1"
     inkscape:current-layer="VPAINT_HLT"
     inkscape:showpageshadow="0"
     inkscape:pagecheckerboard="true"
     inkscape:deskcolor="#d1d1d1" />
  <g
     id="VPAINT_HLT"
     transform="matrix(100,0,0,100,0,4.9999997e-5)"
     style="stroke-width:0.0114286">
    <path
       style="fill:none;stroke-width:0.000357143"
       d="M 0.00149176,9.5859375 C 0.00285762,3.7132203 0.00713103,3.1837294 0.05212479,3.3123316 0.15970271,3.6198131 0.38653941,3.844055 0.69640459,3.9492409 0.796818,3.9833272 0.95335519,4 1.1729671,4 H 1.5 v 4 4 h 1 1 L 3.5003875,7.9296875 3.500775,3.859375 3.6095897,3.7888891 C 3.6694375,3.7501216 3.7501228,3.6694363 3.7888903,3.6095884 L 3.859375,3.5007738 7.9296875,3.5003869 12,3.5 v -1 -1 H 8 4 V 1.1729671 C 4,0.95335519 3.9833272,0.796818 3.9492409,0.69640459 3.844055,0.38653941 3.6198131,0.15970271 3.3123316,0.05212479 3.1837294,0.00713103 3.7132203,0.00285762 9.5859375,0.00149176 L 16,0 v 0.890625 c 0,0.8744839 -0.0012,0.890625 -0.0635,0.890625 -0.193052,0 -0.262253,0.073084 -3.156381,3.3335194 C 11.196072,6.8993025 9.7994825,8.4654406 9.6765812,8.5950759 9.5536803,8.7247116 9.2492547,9.0770862 9.00008,9.3781306 L 8.547035,9.9254841 8.2934094,9.9121722 C 7.7927494,9.8858944 7.2220478,10.071683 6.8379875,10.385976 6.58798,10.590568 6.2815537,11.013857 6.0654594,11.453125 5.9639966,11.659375 5.7538456,12.088281 5.5984572,12.40625 5.2913466,13.034685 5.0270484,13.423216 4.7396303,13.668765 4.2473441,14.089338 3.6724234,14.278166 2.7242017,14.330716 l -0.3851733,0.02135 0.017959,0.144281 c 0.00988,0.07935 0.039881,0.361894 0.066674,0.627865 0.026793,0.265971 0.051414,0.485941 0.054714,0.488821 0.0033,0.0029 0.3997492,0.02264 0.8809992,0.04391 1.0900234,0.04818 2.6332075,0.02556 3.140625,-0.04604 1.2284125,-0.173327 2.0401431,-0.501752 2.6216431,-1.060713 0.4067397,-0.390975 0.674166,-0.887328 0.7633838,-1.416871 l 0.040889,-0.242693 0.2059275,-0.01788 c 0.11326,-0.0098 0.238914,-0.03954 0.27923,-0.06601 0.04032,-0.02647 0.424864,-0.41683 0.854552,-0.867467 0.540894,-0.567265 0.819707,-0.836857 0.90625,-0.876277 0.108648,-0.04949 0.945386,-0.81456 3.460937,-3.1645091 L 16,7.5554609 V 11.77773 16 H 8 0 Z m 0,-9.171875 L 0,0 0.4140625,0.00149176 0.828125,0.00298352 0.68766837,0.05212479 C 0.38441538,0.15822328 0.15822328,0.38441538 0.05212479,0.68766837 L 0.00298352,0.828125 Z"
       id="path857"
       inkscape:connector-curvature="0" />
    <path
       style="fill:#fefefe;stroke-width:0.000357143"
       d="M 2,8 V 4 H 2.5 3 v 4 4 H 2.5 2 Z M 1,2 V 1 H 2 3 V 2 3 H 2 1 Z M 4,2.5 V 2 h 4 4 V 2.5 3 H 8 4 Z"
       id="path855"
       inkscape:connector-curvature="0" />
    <path
       style="fill:#cbfefe;stroke-width:0.000357143"
       d="M 9.15614,10.960938 C 9.0295731,10.784766 8.9250863,10.616925 8.9239469,10.587958 8.9228063,10.55899 9.1597622,10.248521 9.4505134,9.8980259 L 9.9791519,9.2607622 10.187981,9.4819437 c 0.114855,0.1216497 0.254161,0.27342 0.309569,0.3372675 l 0.100741,0.1160863 -0.571161,0.6729765 c -0.3141387,0.370137 -0.5868453,0.672976 -0.606015,0.672976 -0.01917,0 -0.1384084,-0.144141 -0.264975,-0.320312 z"
       id="path853"
       inkscape:connector-curvature="0" />
    <path
       style="fill:#f0e6d9;stroke-width:0.000357143"
       d="M 6.1862506,14.240539 C 6.0929397,14.191195 6.0267834,14.1249 5.9757566,14.029602 5.8657353,13.824126 5.8912634,13.689251 6.1053841,13.344736 6.2021103,13.189106 6.28125,13.053617 6.28125,13.04365 c 0,-0.01 0.1125,-0.199213 0.25,-0.420547 0.1375,-0.221333 0.25,-0.411266 0.25,-0.422073 0,-0.01081 0.074356,-0.141319 0.1652347,-0.290027 0.090879,-0.148708 0.2265912,-0.393587 0.3015828,-0.544176 0.09809,-0.196973 0.1653575,-0.291728 0.2397338,-0.337694 0.220475,-0.136262 0.4659571,-0.105825 0.6465909,0.08017 0.055353,0.057 0.1964781,0.243509 0.3136112,0.414475 0.2510182,0.366382 0.2833557,0.491154 0.1815878,0.700641 -0.090834,0.186981 -1.8525059,1.973149 -2.0116859,2.039659 -0.1599666,0.06684 -0.2723419,0.06071 -0.4316547,-0.02354 z"
       id="path851"
       inkscape:connector-curvature="0" />
    <path
       style="fill:#fecb98;stroke-width:0.000357143"
       d="M 10.752187,9.1305494 C 10.516935,8.9083291 10.401264,8.7777809 10.413353,8.7481359 10.437107,8.6898825 15.92657,2.6442684 15.968358,2.6303391 15.989218,2.6233857 16,2.9216066 16,3.5055338 v 0.8857418 l -2.405461,2.5309247 c -1.323003,1.3920085 -2.423394,2.5342606 -2.445312,2.5383381 -0.02192,0.00408 -0.200587,-0.1444178 -0.39704,-0.329989 z"
       id="path849"
       inkscape:connector-curvature="0" />
    <path
       style="fill:#6598cb;stroke-width:0.000357143"
       d="M 9.4227259,11.476563 C 9.0646756,10.982422 8.7666409,10.557031 8.7604272,10.53125 8.7520831,10.496631 9.62335,9.4072 9.8452713,9.1747619 9.8729528,9.1457688 9.96875,9.2047094 9.96875,9.2507341 c 0,0.013382 -0.2392584,0.3104884 -0.5316853,0.6602362 -0.2945475,0.3522837 -0.5267053,0.6569377 -0.5205197,0.6830627 0.018112,0.07649 0.4665178,0.687217 0.50457,0.687217 0.01917,0 0.2936103,-0.304882 0.609868,-0.677517 l 0.575014,-0.6775164 0.173564,0.1900114 c 0.09546,0.104506 0.303391,0.330095 0.462069,0.501309 l 0.288506,0.311298 -0.692321,0.723083 C 10.457039,12.049613 10.129347,12.375 10.109611,12.375 c -0.01974,0 -0.3288347,-0.404297 -0.6868851,-0.898437 z"
       id="path847"
       inkscape:connector-curvature="0" />
    <path
       style="fill:#cb9800;stroke-width:0.000357143"
       d="m 3.3979753,15.156064 c -0.2365825,-0.01187 -0.4369125,-0.02834 -0.4451781,-0.0366 -0.00827,-0.0083 -0.024031,-0.08071 -0.035035,-0.160996 L 2.8977547,14.8125 h 0.1706159 c 0.4011969,0 1.0481125,-0.16589 1.4630872,-0.375182 0.3975413,-0.2005 0.8285513,-0.607889 1.14279,-1.080161 0.093698,-0.140819 0.2836672,-0.49324 0.4221544,-0.783158 0.4762365,-0.996985 0.5922172,-1.215736 0.7711156,-1.454403 0.2877991,-0.383949 0.5778509,-0.573508 1.0160422,-0.664019 0.3581469,-0.07398 0.36644,-0.07224 0.36644,0.07668 0,0.0693 0.018981,0.171255 0.042179,0.226562 0.023198,0.05531 0.2903859,0.443101 0.59375,0.861763 0.6282171,0.866981 0.6025468,0.797668 0.5042262,1.36148 -0.2251541,1.291128 -1.3231012,1.98215 -3.452655,2.173018 -0.3905644,0.035 -1.8498791,0.03557 -2.5395247,9.87e-4 z m 3.21993,-0.891989 c 0.15918,-0.06651 1.9208516,-1.852678 2.0116859,-2.039659 0.1017679,-0.209487 0.06943,-0.334259 -0.1815878,-0.700641 C 8.3308703,11.352809 8.1897453,11.166295 8.1343922,11.1093 7.9537584,10.923308 7.7082762,10.892871 7.4878012,11.02913 7.4134252,11.0751 7.3461572,11.169851 7.2480675,11.366824 7.1730755,11.517413 7.0373634,11.762292 6.9464847,11.911 6.8556057,12.059708 6.78125,12.19022 6.78125,12.201027 c 0,0.01081 -0.1125,0.20074 -0.25,0.422073 -0.1375,0.221334 -0.25,0.41058 -0.25,0.420547 0,0.01 -0.07914,0.145456 -0.1758659,0.301086 -0.2141207,0.344515 -0.2396488,0.47939 -0.1296275,0.684866 0.051027,0.0953 0.1171831,0.161593 0.210494,0.210937 0.1593128,0.08425 0.2716881,0.09037 0.4316547,0.02354 z"
       id="path845"
       inkscape:connector-curvature="0" />
    <path
       style="fill:#fe0000;stroke-width:0.000357143"
       d="M 11.092499,9.7029556 C 10.637718,9.2118884 10.265625,8.7894581 10.265625,8.7642219 c 0,-0.025236 1.286719,-1.4951213 2.859375,-3.2664119 l 2.859375,-3.2205278 0.0094,0.1583253 c 0.0081,0.1359427 -0.0016,0.1682527 -0.06878,0.2285465 -0.163299,0.1465899 -5.518648,6.0719241 -5.51872,6.1060951 -8.8e-5,0.040932 0.695429,0.6985009 0.73881,0.6985009 0.02234,0 3.68971,-3.8345069 4.642429,-4.8540038 l 0.209441,-0.2241212 0.0015,1.23451 0.0015,1.2345097 -1.999735,1.8592403 c -1.099853,1.0225819 -2.017995,1.863218 -2.040313,1.86808 -0.02232,0.0049 -0.412673,-0.392942 -0.867454,-0.8840094 z"
       id="path843"
       inkscape:connector-curvature="0" />
    <path
       style="fill:#003265;stroke-width:0.000357143"
       d="m 9.859375,12.830708 c -0.051562,-0.02302 -0.1309216,-0.08223 -0.1763534,-0.13159 -0.142455,-0.154768 -1.3467128,-1.83467 -1.3909291,-1.940302 -0.054427,-0.130025 -0.053804,-0.358699 0.00132,-0.486382 0.040891,-0.09471 1.2802109,-1.5987084 1.4163897,-1.7188877 0.062909,-0.055519 0.063184,-0.05465 0.04943,0.15625 -0.010914,0.1673487 -0.00125,0.2360634 0.045829,0.3257981 l 0.05966,0.1137194 -0.5567991,0.6675306 c -0.3062343,0.3671416 -0.5570477,0.6816526 -0.557358,0.6989126 -9.063e-4,0.05044 1.3074179,1.84272 1.3522899,1.852504 0.02241,0.0049 0.138599,-0.09355 0.25819,-0.21875 0.119591,-0.1252 0.431365,-0.449871 0.692832,-0.721491 l 0.475393,-0.493856 0.09198,0.06801 c 0.0556,0.0411 0.161575,0.07576 0.267904,0.0876 l 0.175922,0.0196 -0.814342,0.848698 c -0.534831,0.557396 -0.84793,0.860407 -0.912202,0.882813 -0.131897,0.04598 -0.3644115,0.04104 -0.479159,-0.01018 z"
       id="path841"
       inkscape:connector-curvature="0" />
    <path
       style="fill:#323232;stroke-width:0.000357143"
       d="M 1.5,8.0032134 V 4.0064266 L 1.1171875,3.9938759 C 0.79158569,3.9832006 0.71102369,3.9699888 0.578125,3.9054706 0.37988397,3.8092309 0.19216002,3.6220972 0.0930044,3.421875 L 0.015625,3.265625 V 2 0.734375 L 0.0930044,0.578125 C 0.19166038,0.37891184 0.37891184,0.19166038 0.578125,0.0930044 L 0.734375,0.015625 H 2 3.265625 l 0.15625,0.0773794 c 0.2002222,0.09915562 0.3873559,0.28687957 0.4835956,0.4851206 0.064518,0.13289869 0.07773,0.21346069 0.088405,0.5390625 L 4.0064266,1.5 H 8.0032134 12 V 1.75 2 H 8 4 V 2.5 3 h 4 4 V 3.25 3.5 L 7.9296875,3.5003875 3.859375,3.500775 3.7888891,3.6095897 C 3.7501216,3.6694375 3.6694363,3.7501228 3.6095884,3.7888903 L 3.5007738,3.859375 3.5003869,7.9296875 3.5,12 H 3.25 3 V 8 4 H 2.5 2 v 4 4 H 1.75 1.5 Z M 3,2 V 1 H 2 1 v 1 1 h 1 1 z"
       id="path839"
       inkscape:connector-curvature="0" />
    <path
       style="fill:#320000;stroke-width:0.000357143"
       d="m 3.09375,15.650152 c -0.3351562,-0.01693 -0.6120746,-0.03338 -0.6153742,-0.03657 -0.0033,-0.0032 -0.027921,-0.223404 -0.054714,-0.489375 -0.026793,-0.265971 -0.056796,-0.548511 -0.066674,-0.627865 l -0.017959,-0.144281 0.3851733,-0.02135 C 3.6724234,14.278166 4.2473441,14.089338 4.7396303,13.668765 5.0270484,13.423216 5.2913466,13.034685 5.5984572,12.40625 5.7538456,12.088281 5.9639966,11.659375 6.0654594,11.453125 6.2815538,11.013857 6.58798,10.590568 6.8379875,10.385976 7.1960437,10.092963 7.7319397,9.90625 8.2148766,9.90625 c 0.3219247,0 0.3363822,0.011938 0.2064637,0.170487 -0.059908,0.07311 -0.1243434,0.177159 -0.1431894,0.23122 -0.02258,0.06477 -0.054986,0.09829 -0.095025,0.09829 -0.1480787,0 -0.553424,0.106278 -0.7123109,0.186762 -0.4973422,0.251931 -0.6615081,0.488549 -1.3744128,1.98099 -0.1384872,0.289918 -0.3284566,0.642339 -0.4221544,0.783158 -0.3142387,0.472272 -0.7452487,0.879661 -1.14279,1.080161 C 4.1164831,14.64661 3.4695675,14.8125 3.0683706,14.8125 H 2.8977547 l 0.020007,0.145968 c 0.011004,0.08028 0.025973,0.151933 0.033264,0.159225 0.060921,0.06092 2.397526,0.09017 2.9864741,0.03738 1.8224491,-0.163343 2.8781772,-0.689704 3.3010116,-1.645808 0.098736,-0.22326 0.1632153,-0.504049 0.1918265,-0.835351 l 0.022787,-0.263857 0.140625,0.176616 c 0.1093128,0.137291 0.270675,0.269329 0.3336578,0.273022 0.00304,1.88e-4 -0.01475,0.117207 -0.039541,0.260062 -0.095412,0.549806 -0.3557985,1.035911 -0.7662238,1.430428 C 8.5405397,15.108769 7.7366906,15.434273 6.5,15.611776 c -0.4397584,0.06312 -2.4646628,0.08593 -3.40625,0.03838 z m 8.607374,-4.600548 C 11.590597,11.001469 9.8480666,9.1393813 9.7904719,9.0078591 9.7391713,8.8907091 9.7406622,8.6446222 9.7934125,8.5224337 9.8172897,8.4671266 11.147038,6.9477587 12.748408,5.1460612 15.674042,1.8544399 15.743388,1.78125 15.936496,1.78125 c 0.05845,0 0.06344,0.019295 0.0627,0.2421875 l -8e-4,0.2421875 L 13.12391,5.5 c -1.58097,1.7789063 -2.870845,3.2516341 -2.866388,3.2727284 0.01174,0.055581 1.653598,1.8210466 1.693399,1.8208886 0.0184,-6.3e-5 0.906969,-0.8121826 1.974601,-1.8046876 1.067631,-0.992505 1.971147,-1.8313431 2.007812,-1.8640853 L 16,6.8653131 v 0.3461635 0.3461631 l -1.858764,1.7289925 c -1.022321,0.9509458 -1.897711,1.7459368 -1.945313,1.7666458 -0.115153,0.0501 -0.375772,0.04816 -0.494799,-0.0037 z"
       id="path837"
       inkscape:connector-curvature="0" />
  </g>
</svg>
