<?xml version="1.0" encoding="UTF-8" standalone="no"?>
<!-- Created with Inkscape (http://www.inkscape.org/) -->

<svg
   version="1.1"
   id="svg2"
   width="1600"
   height="1600"
   viewBox="0 0 1600 1600"
   sodipodi:docname="weight_smooth.svg"
   inkscape:version="1.2.2 (732a01da63, 2022-12-09)"
   xmlns:inkscape="http://www.inkscape.org/namespaces/inkscape"
   xmlns:sodipodi="http://sodipodi.sourceforge.net/DTD/sodipodi-0.dtd"
   xmlns="http://www.w3.org/2000/svg"
   xmlns:svg="http://www.w3.org/2000/svg"
   xmlns:rdf="http://www.w3.org/1999/02/22-rdf-syntax-ns#"
   xmlns:cc="http://creativecommons.org/ns#"
   xmlns:dc="http://purl.org/dc/elements/1.1/">
  <metadata
     id="metadata8">
    <rdf:RDF>
      <cc:Work
         rdf:about="">
        <dc:format>image/svg+xml</dc:format>
        <dc:type
           rdf:resource="http://purl.org/dc/dcmitype/StillImage" />
      </cc:Work>
    </rdf:RDF>
  </metadata>
  <defs
     id="defs6" />
  <sodipodi:namedview
     pagecolor="#808080"
     bordercolor="#666666"
     borderopacity="1"
     objecttolerance="10"
     gridtolerance="10"
     guidetolerance="10"
     inkscape:pageopacity="0"
     inkscape:pageshadow="2"
     inkscape:window-width="2560"
     inkscape:window-height="1009"
     id="namedview4"
     showgrid="false"
     inkscape:zoom="0.5"
     inkscape:cx="726"
     inkscape:cy="1052"
     inkscape:window-x="-8"
     inkscape:window-y="-8"
     inkscape:window-maximized="1"
     inkscape:current-layer="WEIGHT_SMOOTH"
     inkscape:showpageshadow="0"
     inkscape:pagecheckerboard="true"
     inkscape:deskcolor="#d1d1d1" />
  <g
     id="WEIGHT_SMOOTH"
     transform="matrix(100,0,0,100,5.7016916e-6,7.3701691e-5)"
     style="stroke-width:0.01">
    <path
       style="fill:none;stroke-width:0.0003125"
       d="M 0.00254767,5.6484375 0,0 H 1.40625 C 2.1796875,0 2.8125,0.00612625 2.8125,0.01361389 2.8125,0.02110149 2.728389,0.1441484 2.6255876,0.28705139 2.3998442,0.60085309 2.0490904,1.2763139 1.8911377,1.7014111 1.7387244,2.1116 1.6045943,2.6315074 1.5474438,3.0336172 c -0.061615,0.4335212 -0.061615,1.4992444 0,1.9327656 0.1457417,1.0254363 0.613787,2.1535119 1.2214779,2.9439875 L 2.904221,8.0863659 2.663048,8.1718613 C 1.5274836,8.5744163 0.64817294,9.4370603 0.20578504,10.582548 0.14692079,10.734967 0.07768478,10.958044 0.05192723,11.078274 0.00965143,11.275608 0.00484748,10.74736 0.00254767,5.6484375 Z M 15.957432,11.136693 c -0.0109,-0.07951 -0.06375,-0.272866 -0.117455,-0.429688 -0.429131,-1.2531425 -1.40565,-2.1940003 -2.693532,-2.5951672 -0.04949,-0.015416 -0.03913,-0.040479 0.08163,-0.1975594 0.610849,-0.7945675 1.078429,-1.9202462 1.224485,-2.9478956 0.06161,-0.4335212 0.06161,-1.4992444 0,-1.9327656 C 14.395406,2.6315074 14.261276,2.1116 14.108862,1.7014111 13.95091,1.2763139 13.600156,0.60085309 13.374413,0.28705139 13.271611,0.1441484 13.1875,0.02110153 13.1875,0.01361389 13.1875,0.00612625 13.820313,0 14.59375,0 H 16 v 5.640625 c 0,3.1023437 -0.0051,5.640625 -0.01138,5.640625 -0.0063,0 -0.02029,-0.06505 -0.03119,-0.144557 z"
       id="path829"
       inkscape:connector-curvature="0" />
    <path
       style="fill:#fe9832;stroke-width:0.0003125"
       d="M 3.3211803,7.75 C 2.4812036,6.7080475 2.0005128,5.3431387 2.0005128,4 c 0,-1.3447216 0.4732374,-2.6880163 1.3234184,-3.75655215 L 3.515625,0.0025207 l 1.875,2.7613e-4 1.875,2.7614e-4 -0.28125,0.07332215 C 5.4375316,0.47965869 4.2155106,1.8241296 4.0022631,3.3573228 c -0.043048,0.3095013 -0.043048,0.9758531 0,1.2853544 0.1996881,1.4357059 1.3021697,2.7366706 2.7120766,3.2003406 0.1539528,0.05063 0.2498847,0.096514 0.2231603,0.1067378 -0.025781,0.00986 -0.8074878,0.021687 -1.7371259,0.026276 L 3.5101234,7.984375 Z M 10.75,7.9768572 C 9.8476563,7.9724091 9.0882813,7.9604566 9.0625,7.9502962 9.0352625,7.9395622 9.1287522,7.8946194 9.2856603,7.8430178 10.296403,7.5106191 11.16648,6.7441575 11.642052,5.7672428 11.928892,5.1780184 12.03125,4.7132384 12.03125,4 12.03125,3.2867616 11.928892,2.8219816 11.642052,2.232757 11.121781,1.1640218 10.160641,0.37490184 9.015625,0.07639512 l -0.28125,-0.07332215 1.875,-2.7614e-4 1.875,-2.7613e-4 0.191694,0.24092715 C 13.52625,1.3119837 13.999487,2.6552784 13.999487,4 c 0,1.3447216 -0.473237,2.6880163 -1.323418,3.7565522 -0.105432,0.13251 -0.212788,0.2381069 -0.238569,0.2346597 -0.02578,-0.00345 -0.785156,-0.00991 -1.6875,-0.014355 z"
       id="path827"
       inkscape:connector-curvature="0" />
    <path
       style="fill:#0098fe;stroke-width:0.0003125"
       d="m 0.54510962,15.428543 c -0.008616,-0.02245 -0.0117442,-0.93314 -0.00695,-2.023747 l 0.008716,-1.982921 0.10502369,-0.3125 C 1.0852487,9.8199334 1.8712245,9.0472419 3.1622678,8.6414347 l 0.3653928,-0.1148522 4.4627322,0.01428 c 3.0221122,0.00967 4.5173112,0.025203 4.6318052,0.048118 0.578427,0.1157628 1.285366,0.4773938 1.743171,0.8917097 0.424562,0.3842303 0.828147,1.0838398 1.020665,1.7693098 l 0.08338,0.296875 -0.0081,1.953125 -0.0081,1.953125 H 14 12.546875 l -0.01901,-1.25 c -0.0114,-0.749753 -0.03203,-1.281265 -0.05154,-1.328125 -0.0179,-0.04297 -0.07706,-0.120313 -0.131483,-0.171875 -0.09154,-0.08673 -0.116183,-0.09375 -0.329218,-0.09375 -0.213035,0 -0.237677,0.007 -0.329218,0.09375 -0.05442,0.05156 -0.113456,0.128906 -0.13119,0.171875 -0.0191,0.04628 -0.04011,0.587563 -0.05154,1.328125 l -0.0193,1.25 h -3.46875 -3.46875 l -0.019007,-1.25 C 4.516469,13.453372 4.495842,12.92186 4.476326,12.875 4.458431,12.83203 4.399264,12.754687 4.3448435,12.703125 c -0.091541,-0.08673 -0.1161828,-0.09375 -0.3292181,-0.09375 -0.2130353,0 -0.2376772,0.007 -0.3292181,0.09375 -0.054421,0.05156 -0.1134563,0.128906 -0.1311897,0.171875 -0.019102,0.04628 -0.040109,0.587563 -0.051543,1.328125 l -0.0193,1.25 -1.4617995,0.0081 c -1.18007194,0.0066 -1.46481878,2.5e-4 -1.47746588,-0.0327 z"
       id="path825"
       inkscape:connector-curvature="0" />
    <path
       style="fill:#00fe00;stroke-width:0.0003125"
       d="M 7.34375,7.4200866 C 7.2320313,7.3960544 7.1125,7.3639647 7.078125,7.3487759 7.04375,7.3335875 6.959375,7.3033444 6.890625,7.2815691 6.4713859,7.1487837 5.9138516,6.7966978 5.5599412,6.441235 5.0681675,5.9473037 4.7080759,5.2836506 4.5765609,4.6288519 4.5023266,4.2592466 4.5267228,3.4890119 4.6232037,3.15625 4.7069281,2.8674865 4.9447884,2.3624731 5.1409112,2.0570787 5.3559303,1.7222603 5.8281688,1.2731063 6.1918709,1.0574931 6.50398,0.87246562 6.9064884,0.6875 6.9970222,0.6875 c 0.029138,0 0.066337,-0.0125609 0.082665,-0.0279131 C 7.1413834,0.6015785 7.4691781,0.55522031 7.921875,0.54048087 8.2931169,0.52839359 8.4393791,0.5362875 8.625,0.57842931 8.7539063,0.60769506 8.9226562,0.64176725 9,0.65414525 c 0.2757956,0.044138 0.7889466,0.30235538 1.156539,0.58197015 0.607988,0.4624749 1.137715,1.3149268 1.294337,2.0828796 0.06551,0.32121 0.06551,1.0408 0,1.36201 -0.08404,0.4120934 -0.298664,0.9000744 -0.58698,1.33462 -0.17435,0.2627781 -0.618111,0.6986878 -0.8897247,0.8739834 -0.2990044,0.1929732 -0.831511,0.4427688 -0.9897963,0.4643078 -0.06875,0.00936 -0.2234375,0.038776 -0.34375,0.065379 -0.2772478,0.061304 -1.0134775,0.061753 -1.296875,7.914e-4 z"
       id="path823"
       inkscape:connector-curvature="0" />
    <path
       style="fill:#323232;stroke-width:0.0003125"
       d="M 0,13.670557 C 0,11.089674 -0.00217592,11.122292 0.20600828,10.582399 0.64748678,9.4374931 1.5274202,8.5744406 2.6640625,8.1715009 2.7972656,8.1242806 2.90625,8.0792888 2.90625,8.0715197 2.90625,8.0637497 2.858644,7.9987767 2.8004592,7.9271344 2.4547419,7.5014553 2.0250601,6.6790619 1.8174147,6.0456272 1.5957386,5.3693906 1.5005128,4.7547006 1.5005128,4 c 0,-0.7534022 0.094867,-1.3668866 0.3163276,-2.0456271 C 1.9737325,1.4735248 2.3396874,0.72899025 2.6161766,0.328125 L 2.8317175,0.015625 3.1658588,0.00675526 C 3.3496366,0.0018769 3.5,0.00600856 3.5,0.01593671 3.5,0.02586487 3.4272047,0.1212625 3.3382328,0.22793145 2.9343903,0.71209975 2.5117386,1.4871846 2.3017053,2.1287795 1.6720884,4.0520881 2.058735,6.1839947 3.3211803,7.75 L 3.5101234,7.984375 5.2003741,7.976035 C 6.1300122,7.9714428 6.9117188,7.9596187 6.9375,7.9497556 6.9642244,7.9395319 6.8682925,7.8936475 6.7143397,7.8430178 5.6739128,7.5008572 4.8079534,6.7256512 4.3247028,5.7038175 4.0693853,5.1639484 3.96875,4.6822441 3.96875,4 3.96875,3.2867616 4.0711081,2.8219816 4.3579484,2.232757 4.8501328,1.2217166 5.7697109,0.43884019 6.859375,0.10318488 7.1377897,0.0174233 7.1492887,0.01654987 8,0.01654987 c 0.8507113,0 0.8622103,8.7343e-4 1.140625,0.08663501 0.6255222,0.19268314 1.262109,0.57529643 1.721502,1.03468852 0.601808,0.6018083 1.025899,1.4306568 1.13561,2.2194494 0.04305,0.3095013 0.04305,0.9758531 0,1.2853544 -0.198789,1.4292387 -1.308521,2.738759 -2.7120767,3.2003406 -0.1539528,0.05063 -0.2498847,0.096514 -0.2231603,0.1067378 0.025781,0.00986 0.8074878,0.021687 1.737126,0.026276 L 12.489877,7.984375 12.67882,7.75 C 13.941265,6.1839947 14.327912,4.0520881 13.698295,2.1287795 13.488261,1.4871846 13.06561,0.71209975 12.661767,0.22793145 12.572795,0.1212625 12.5,0.02586487 12.5,0.01593671 12.5,0.00600856 12.650363,0.0018769 12.834141,0.00675526 l 0.334142,0.00886974 0.21554,0.3125 c 0.27649,0.40086525 0.642444,1.1453998 0.799337,1.6262479 0.349658,1.0716439 0.415211,2.2523068 0.188118,3.3881293 -0.174057,0.870554 -0.674041,1.9719597 -1.175233,2.5888981 -0.06011,0.073989 -0.100925,0.142886 -0.09071,0.153105 0.01022,0.010219 0.09968,0.045394 0.198808,0.078166 0.336981,0.1114104 0.816557,0.3673588 1.128201,0.6021166 0.634597,0.4780356 1.103979,1.1087303 1.376416,1.8494501 C 16.001386,11.13795 16,11.115807 16,13.670557 V 16 H 8 0 Z m 3.5036747,0.532568 c 0.011434,-0.740562 0.03244,-1.28184 0.051543,-1.328125 0.017733,-0.04297 0.076769,-0.120313 0.1311897,-0.171875 0.091541,-0.08673 0.1161828,-0.09375 0.3292181,-0.09375 0.2130353,0 0.2376772,0.007 0.3292181,0.09375 0.054421,0.05156 0.1135878,0.128906 0.1314825,0.171875 0.019515,0.04686 0.040142,0.578372 0.051543,1.328125 l 0.019007,1.25 h 3.46875 3.4687499 l 0.0193,-1.25 c 0.01143,-0.740562 0.03244,-1.28184 0.05154,-1.328125 0.01773,-0.04297 0.07677,-0.120313 0.13119,-0.171875 0.09154,-0.08673 0.116183,-0.09375 0.329218,-0.09375 0.213035,0 0.237677,0.007 0.329218,0.09375 0.05442,0.05156 0.113588,0.128906 0.131483,0.171875 0.01952,0.04686 0.04014,0.578372 0.05154,1.328125 l 0.01901,1.25 H 14 15.453125 L 15.461269,13.5 15.469414,11.546875 15.386034,11.25 C 15.193516,10.56453 14.789931,9.8649206 14.365369,9.4806903 13.907564,9.0663744 13.200625,8.7047434 12.622198,8.5889806 12.507704,8.5660663 11.012505,8.5505331 7.9903928,8.5408628 L 3.5276606,8.5265825 3.1622678,8.6414347 C 1.8712245,9.0472419 1.0852487,9.8199334 0.65189869,11.109375 l -0.10502369,0.3125 -0.008716,1.982921 c -0.004794,1.090607 -0.001666,2.001293 0.00695,2.023747 0.0126471,0.03296 0.29739394,0.03926 1.4774659,0.0327 l 1.4617995,-0.0081 z M 8.640625,7.4192953 c 0.1203125,-0.026603 0.275,-0.056024 0.34375,-0.065379 C 9.1426603,7.3323772 9.6751669,7.0825816 9.9741713,6.8896084 10.245785,6.7143128 10.689546,6.2784031 10.863896,6.015625 c 0.288316,-0.4345456 0.502935,-0.9225266 0.58698,-1.33462 0.06551,-0.32121 0.06551,-1.0408 0,-1.36201 C 11.294254,2.5510422 10.764527,1.6985903 10.156539,1.2361154 9.7889466,0.95650063 9.2757956,0.69828325 9,0.65414525 8.9226562,0.64176725 8.7539063,0.60769506 8.625,0.57842931 8.2482634,0.49289822 7.1983262,0.54803947 7.0796875,0.65958694 7.0633594,0.67493912 7.02616,0.6875 6.9970222,0.6875 6.9064884,0.6875 6.50398,0.87246562 6.1918709,1.0574931 5.8281687,1.2731063 5.3559303,1.7222603 5.1409112,2.0570787 4.9447884,2.3624731 4.7069281,2.8674865 4.6232037,3.15625 4.5267228,3.4890119 4.5023266,4.2592466 4.5765609,4.6288519 4.7080759,5.2836506 5.0681675,5.9473038 5.5599412,6.441235 5.9138516,6.7966978 6.4713859,7.1487838 6.890625,7.2815691 c 0.06875,0.021775 0.153125,0.052018 0.1875,0.067207 0.2699209,0.119265 1.1603113,0.1594504 1.5625,0.070519 z"
       id="path821"
       inkscape:connector-curvature="0" />
    <path
       style="fill:#191919;stroke-width:0.0003125"
       d="m 2.8397639,8.0078125 c -0.038871,-0.049564 -0.037766,-0.05067 0.011799,-0.011799 0.030078,0.023589 0.054687,0.048198 0.054687,0.054687 0,0.02572 -0.025662,0.00917 -0.066486,-0.042889 z M 13.09375,8.0507013 c 0,-0.00649 0.02461,-0.031099 0.05469,-0.054688 0.04956,-0.038871 0.05067,-0.037766 0.0118,0.011799 -0.04082,0.052055 -0.06649,0.068609 -0.06649,0.042889 z M 1.5962171,5.2942709 c 0.0015,-0.036405 0.0089,-0.043809 0.01888,-0.01888 0.00903,0.022559 0.00792,0.049512 -0.00247,0.059896 -0.010384,0.010384 -0.01777,-0.00807 -0.016413,-0.041016 z m 12.7812499,0 c 0.0015,-0.036405 0.0089,-0.043809 0.01888,-0.01888 0.009,0.022559 0.0079,0.049512 -0.0025,0.059896 -0.01038,0.010384 -0.01777,-0.00807 -0.01641,-0.041016 z M 1.5649671,5.1380209 c 0.0015,-0.036405 0.0089,-0.043809 0.01888,-0.01888 0.00903,0.022559 0.00792,0.049512 -0.00247,0.059896 -0.010384,0.010384 -0.01777,-0.00807 -0.016413,-0.041016 z m 12.8437499,0 c 0.0015,-0.036405 0.0089,-0.043809 0.01888,-0.01888 0.009,0.022559 0.0079,0.049512 -0.0025,0.059896 -0.01038,0.010384 -0.01777,-0.00807 -0.01641,-0.041016 z M 1.5337171,4.9192709 c 0.0015,-0.036405 0.0089,-0.043809 0.01888,-0.01888 0.00903,0.022559 0.00792,0.049512 -0.00247,0.059896 -0.010384,0.010384 -0.01777,-0.00807 -0.016413,-0.041016 z m 12.9062499,0 c 0.0015,-0.036405 0.0089,-0.043809 0.01888,-0.01888 0.009,0.022559 0.0079,0.049512 -0.0025,0.059896 -0.01038,0.010384 -0.01777,-0.00807 -0.01641,-0.041016 z M 1.5060922,4.640625 c 6.368e-4,-0.051563 0.00764,-0.068873 0.015564,-0.038468 0.00792,0.030405 0.0074,0.072593 -0.00116,0.09375 -0.00856,0.021157 -0.015043,-0.00372 -0.014406,-0.055282 z m 12.9687498,0 c 6.38e-4,-0.051563 0.0076,-0.068873 0.01556,-0.038468 0.0079,0.030405 0.0074,0.072593 -0.0012,0.09375 -0.0086,0.021157 -0.01504,-0.00372 -0.01441,-0.055282 z M 1.5060922,3.359375 c 6.368e-4,-0.051563 0.00764,-0.068873 0.015564,-0.038468 0.00792,0.030405 0.0074,0.072593 -0.00116,0.09375 -0.00856,0.021157 -0.015043,-0.00372 -0.014406,-0.055282 z m 12.9687498,0 c 6.38e-4,-0.051563 0.0076,-0.068873 0.01556,-0.038468 0.0079,0.030405 0.0074,0.072593 -0.0012,0.09375 -0.0086,0.021157 -0.01504,-0.00372 -0.01441,-0.055282 z M 1.5337171,3.0755208 c 0.0015,-0.036404 0.0089,-0.043809 0.01888,-0.01888 0.00903,0.022559 0.00792,0.049512 -0.00247,0.059896 -0.010384,0.010384 -0.01777,-0.00807 -0.016413,-0.041016 z m 12.9062499,0 c 0.0015,-0.036404 0.0089,-0.043809 0.01888,-0.01888 0.009,0.022559 0.0079,0.049512 -0.0025,0.059896 -0.01038,0.010384 -0.01777,-0.00807 -0.01641,-0.041016 z M 1.5649671,2.8567708 c 0.0015,-0.036404 0.0089,-0.043809 0.01888,-0.01888 0.00903,0.022559 0.00792,0.049512 -0.00247,0.059896 -0.010384,0.010384 -0.01777,-0.00807 -0.016413,-0.041016 z m 12.8437499,0 c 0.0015,-0.036404 0.0089,-0.043809 0.01888,-0.01888 0.009,0.022559 0.0079,0.049512 -0.0025,0.059896 -0.01038,0.010384 -0.01777,-0.00807 -0.01641,-0.041016 z M 1.5962171,2.7005208 c 0.0015,-0.036404 0.0089,-0.043809 0.01888,-0.01888 0.00903,0.022559 0.00792,0.049512 -0.00247,0.059896 -0.010384,0.010384 -0.01777,-0.00807 -0.016413,-0.041016 z m 12.7812499,0 c 0.0015,-0.036404 0.0089,-0.043809 0.01888,-0.01888 0.009,0.022559 0.0079,0.049512 -0.0025,0.059896 -0.01038,0.010384 -0.01777,-0.00807 -0.01641,-0.041016 z"
       id="path819"
       inkscape:connector-curvature="0" />
  </g>
</svg>
