<?xml version="1.0" encoding="UTF-8" standalone="no"?>
<!-- Created with Inkscape (http://www.inkscape.org/) -->

<svg
   version="1.1"
   id="svg2"
   width="1600"
   height="1600"
   viewBox="0 0 1600 1600"
   sodipodi:docname="weight_mirror.svg"
   inkscape:version="1.2.2 (732a01da63, 2022-12-09)"
   xmlns:inkscape="http://www.inkscape.org/namespaces/inkscape"
   xmlns:sodipodi="http://sodipodi.sourceforge.net/DTD/sodipodi-0.dtd"
   xmlns="http://www.w3.org/2000/svg"
   xmlns:svg="http://www.w3.org/2000/svg"
   xmlns:rdf="http://www.w3.org/1999/02/22-rdf-syntax-ns#"
   xmlns:cc="http://creativecommons.org/ns#"
   xmlns:dc="http://purl.org/dc/elements/1.1/">
  <metadata
     id="metadata8">
    <rdf:RDF>
      <cc:Work
         rdf:about="">
        <dc:format>image/svg+xml</dc:format>
        <dc:type
           rdf:resource="http://purl.org/dc/dcmitype/StillImage" />
      </cc:Work>
    </rdf:RDF>
  </metadata>
  <defs
     id="defs6" />
  <sodipodi:namedview
     pagecolor="#808080"
     bordercolor="#666666"
     borderopacity="1"
     objecttolerance="10"
     gridtolerance="10"
     guidetolerance="10"
     inkscape:pageopacity="0"
     inkscape:pageshadow="2"
     inkscape:window-width="2560"
     inkscape:window-height="1009"
     id="namedview4"
     showgrid="false"
     inkscape:zoom="0.5"
     inkscape:cx="372"
     inkscape:cy="1204"
     inkscape:window-x="-8"
     inkscape:window-y="-8"
     inkscape:window-maximized="1"
     inkscape:current-layer="WEIGHT_MIRROR"
     inkscape:showpageshadow="0"
     inkscape:pagecheckerboard="true"
     inkscape:deskcolor="#d1d1d1" />
  <g
     id="WEIGHT_MIRROR"
     transform="matrix(100.02454,0,0,100.02454,-0.23887638,-0.1536857)"
     style="stroke-width:0.00999758">
    <path
       style="fill:none;stroke-width:0.000312423"
       d="M 0.00254767,5.6484375 0,0 3.6328125,0.00153648 7.265625,0.00307297 6.984375,0.07639512 C 5.4375316,0.47965869 4.2155106,1.8241296 4.0022631,3.3573228 c -0.043048,0.3095013 -0.043048,0.9758531 0,1.2853544 0.14927,1.0732122 0.8445122,2.1441981 1.7895016,2.7566387 0.2748947,0.1781569 0.7328787,0.3943372 0.9805444,0.4628419 0.1068015,0.029542 0.1868309,0.06561 0.1778434,0.080152 -0.00899,0.014542 -0.7362144,0.026803 -1.6160594,0.027247 C 4.4542481,7.97 3.6007812,7.9834313 3.4375,7.9994041 2.6824486,8.0732663 1.8603553,8.4596347 1.2424182,9.0310513 0.67828772,9.5527122 0.20403857,10.368253 0.05192723,11.078274 0.00965143,11.275608 0.00484748,10.74736 0.00254767,5.6484375 Z M 15.957432,11.136693 c -0.0109,-0.07951 -0.06375,-0.272866 -0.117455,-0.429688 C 15.392056,9.3989909 14.36561,8.4458481 13.000741,8.0705331 L 12.703125,7.9886941 10.90625,7.9774556 C 9.9179688,7.9712744 9.0882813,7.9584784 9.0625,7.94902 9.0365009,7.9394819 9.1358863,7.8922734 9.2856603,7.8430178 10.296403,7.5106191 11.16648,6.7441575 11.642052,5.7672428 11.928892,5.1780184 12.03125,4.7132384 12.03125,4 12.03125,3.2867616 11.928892,2.8219816 11.642052,2.232757 11.121781,1.1640218 10.160641,0.37490184 9.015625,0.07639512 L 8.734375,0.00307297 12.367188,0.00153648 16,0 v 5.640625 c 0,3.1023437 -0.0051,5.640625 -0.01138,5.640625 -0.0063,0 -0.02029,-0.06505 -0.03119,-0.144557 z"
       id="path825"
       inkscape:connector-curvature="0" />
    <path
       style="fill:#fe9832;stroke-width:0.000312423"
       d="M 8,11.996343 V 8.5234116 l 2.226563,0.017988 c 1.290175,0.010423 2.297666,0.031326 2.395635,0.049703 0.562256,0.1054709 1.283394,0.4734875 1.743171,0.8895881 C 14.789931,9.864921 15.193516,10.56453 15.386034,11.25 l 0.08338,0.296875 -0.0081,1.953125 -0.0081,1.953125 H 14 12.546875 l -0.01901,-1.25 c -0.0114,-0.749753 -0.03203,-1.281265 -0.05154,-1.328125 -0.0179,-0.04297 -0.07706,-0.120313 -0.131483,-0.171875 -0.09154,-0.08673 -0.116183,-0.09375 -0.329218,-0.09375 -0.213035,0 -0.237677,0.007 -0.329218,0.09375 -0.05442,0.05156 -0.113456,0.128906 -0.13119,0.171875 -0.0191,0.04628 -0.04011,0.587563 -0.05154,1.328125 l -0.0193,1.25 L 9.7421875,15.4612 8,15.469275 Z M 8,4 V 0.53125 l 0.2109375,5.425e-4 c 0.1160156,3e-4 0.309375,0.0228985 0.4296875,0.0502223 C 8.7609375,0.6093387 8.9226562,0.6418096 9,0.6541726 c 0.2757169,0.0440715 0.7889019,0.30229388 1.156539,0.5819427 0.607988,0.4624748 1.137715,1.3149268 1.294337,2.0828796 0.06551,0.32121 0.06551,1.0408 0,1.36201 -0.08404,0.4120934 -0.298664,0.9000743 -0.58698,1.33462 -0.17435,0.2627781 -0.618111,0.6986878 -0.8897247,0.8739834 -0.2990044,0.1929731 -0.831511,0.4427688 -0.9897963,0.4643078 -0.06875,0.00936 -0.2234375,0.038776 -0.34375,0.065379 -0.1203125,0.026603 -0.3136719,0.048614 -0.4296875,0.048912 L 8,7.46875 Z"
       id="path823"
       inkscape:connector-curvature="0" />
    <path
       style="fill:#0098fe;stroke-width:0.000312423"
       d="m 0.54510962,15.428543 c -0.008616,-0.02245 -0.0117442,-0.93314 -0.00695,-2.023747 l 0.008716,-1.982921 0.10502369,-0.3125 C 1.0841237,9.8232809 1.8694295,9.0493403 3.1535984,8.6438806 L 3.5103216,8.53125 H 5.5051609 7.5 v 3.469056 3.469056 l -1.4765625,-0.0081 -1.4765625,-0.0081 -0.019007,-1.25 C 4.516468,13.453409 4.495841,12.921897 4.476325,12.875037 4.45843,12.832067 4.399263,12.754724 4.3448425,12.703162 c -0.091541,-0.08673 -0.1161828,-0.09375 -0.3292181,-0.09375 -0.2130353,0 -0.2376772,0.007 -0.3292181,0.09375 -0.054421,0.05156 -0.1134563,0.128906 -0.1311897,0.171875 -0.019102,0.04628 -0.040108,0.587563 -0.051543,1.328125 l -0.0193,1.25 -1.4617995,0.0081 c -1.18007194,0.0066 -1.46481878,2.5e-4 -1.47746588,-0.0327 z M 7.25,7.4023353 C 7.1898437,7.386095 7.1125,7.3611866 7.078125,7.3469837 7.04375,7.3327809 6.959375,7.3033444 6.890625,7.2815691 6.4713859,7.1487837 5.9138516,6.7966978 5.5599412,6.441235 5.0681675,5.9473037 4.7080759,5.2836506 4.5765609,4.6288519 4.5023266,4.2592466 4.5267228,3.4890119 4.6232037,3.15625 4.7069281,2.8674865 4.9447884,2.3624731 5.1409112,2.0570787 5.3559303,1.7222603 5.8281688,1.2731063 6.1918709,1.0574931 6.50398,0.87246562 6.9064884,0.6875 6.9970222,0.6875 c 0.029138,0 0.066337,-0.0125609 0.082665,-0.0279131 C 7.1063444,0.63452344 7.3961094,0.5625 7.4702881,0.5625 7.4888906,0.5625 7.5,1.8478045 7.5,4 V 7.4375 L 7.429688,7.43468 C 7.3910156,7.4331312 7.3101563,7.4185753 7.25,7.402335 Z"
       id="path821"
       inkscape:connector-curvature="0" />
    <path
       style="fill:#323232;stroke-width:0.000312423"
       d="M 0,13.670557 C 0,11.089674 -0.00217592,11.122292 0.20600828,10.582399 0.67243378,9.3727969 1.652626,8.4594219 2.859375,8.1099053 3.2810138,7.9877841 3.5868894,7.9704369 5.3340931,7.9695562 6.2139381,7.9691125 6.941165,7.9568519 6.9501525,7.9423097 6.95914,7.9277675 6.8791106,7.8916994 6.7723091,7.8621578 6.5246434,7.7936531 6.0666594,7.5774728 5.7917647,7.3993159 4.8467753,6.7868753 4.1515331,5.7158894 4.0022631,4.6426772 c -0.043048,-0.3095013 -0.043048,-0.9758531 0,-1.2853544 C 4.1119741,2.5685302 4.5360653,1.7396817 5.1378734,1.1378734 5.5972656,0.67848131 6.2338528,0.29586802 6.859375,0.10318488 7.1377897,0.0174233 7.1492887,0.01654987 8,0.01654987 c 0.8507113,0 0.8622103,8.7343e-4 1.140625,0.08663501 0.6255222,0.19268314 1.262109,0.57529643 1.721502,1.03468852 0.601808,0.6018083 1.025899,1.4306568 1.13561,2.2194494 0.04305,0.3095013 0.04305,0.9758531 0,1.2853544 C 11.798948,6.0719159 10.689216,7.3814362 9.2856603,7.8430178 9.1358863,7.8922734 9.0365009,7.9394819 9.0625,7.94902 9.088281,7.95848 9.9179688,7.971274 10.90625,7.977456 l 1.796875,0.011239 0.297616,0.081839 c 1.329346,0.365546 2.345437,1.2859922 2.808023,2.543704 C 16.001386,11.13795 16,11.115807 16,13.670557 V 16 H 8 0 Z m 3.5036747,0.532568 c 0.011434,-0.740562 0.03244,-1.28184 0.051543,-1.328125 0.017733,-0.04297 0.076769,-0.120313 0.1311897,-0.171875 0.091541,-0.08673 0.1161828,-0.09375 0.3292181,-0.09375 0.2130353,0 0.2376772,0.007 0.3292181,0.09375 0.054421,0.05156 0.1135878,0.128906 0.1314825,0.171875 0.019515,0.04686 0.040142,0.578372 0.051543,1.328125 l 0.019007,1.25 1.4765625,0.0081 L 7.5,15.469362 V 12.000306 8.53125 H 5.5051609 3.5103216 L 3.1535984,8.6438806 C 1.8694295,9.0493403 1.0841237,9.8232809 0.65189869,11.109375 l -0.10502369,0.3125 -0.008716,1.982921 c -0.004794,1.090607 -0.001666,2.001293 0.00695,2.023747 0.0126471,0.03296 0.29739394,0.03926 1.4774659,0.0327 l 1.4617995,-0.0081 z m 8.0000003,0 c 0.01143,-0.740562 0.03244,-1.28184 0.05154,-1.328125 0.01773,-0.04297 0.07677,-0.120313 0.13119,-0.171875 0.09154,-0.08673 0.116183,-0.09375 0.329218,-0.09375 0.213035,0 0.237677,0.007 0.329218,0.09375 0.05442,0.05156 0.113588,0.128906 0.131483,0.171875 0.01952,0.04686 0.04014,0.578372 0.05154,1.328125 l 0.01901,1.25 H 14 15.453125 L 15.461269,13.5 15.469414,11.546875 15.386034,11.25 C 15.193516,10.56453 14.789931,9.8649206 14.365369,9.4806903 13.905592,9.0645897 13.184454,8.6965731 12.622198,8.5911022 c -0.09797,-0.018377 -1.10546,-0.03928 -2.395635,-0.049703 L 8,8.5234116 v 3.4729314 3.472932 l 1.7421875,-0.0081 1.7421875,-0.0081 z M 8.640625,7.4192953 c 0.1203125,-0.026603 0.275,-0.056024 0.34375,-0.065379 C 9.1426603,7.3323772 9.6751669,7.0825816 9.9741713,6.8896084 10.245785,6.7143128 10.689546,6.2784031 10.863896,6.015625 c 0.288316,-0.4345456 0.502935,-0.9225266 0.58698,-1.33462 0.06551,-0.32121 0.06551,-1.0408 0,-1.36201 C 11.294254,2.5510422 10.764527,1.6985903 10.156539,1.2361154 9.7889019,0.95646659 9.2757169,0.69824425 9,0.65417272 8.9226562,0.64180981 8.7609375,0.60933884 8.640625,0.58201497 8.5203125,0.55469113 8.3269531,0.53209106 8.2109375,0.53179262 L 8,0.53125 V 4 7.46875 L 8.2109375,7.4682062 C 8.3269531,7.4678937 8.5203125,7.4458972 8.640625,7.4192941 Z M 7.5,4 C 7.5,1.8478045 7.488891,0.5625 7.470288,0.5625 7.396109,0.5625 7.1063443,0.6345234 7.0796874,0.6595869 7.0633594,0.67493912 7.02616,0.6875 6.9970222,0.6875 6.9064884,0.6875 6.50398,0.87246562 6.1918709,1.0574931 5.8281687,1.2731063 5.3559303,1.7222603 5.1409112,2.0570787 4.9447884,2.3624731 4.7069281,2.8674865 4.6232037,3.15625 4.5267228,3.4890119 4.5023266,4.2592466 4.5765609,4.6288519 4.7080759,5.2836506 5.0681675,5.9473038 5.5599412,6.441235 5.9138516,6.7966978 6.4713859,7.1487838 6.890625,7.2815691 c 0.06875,0.021775 0.153125,0.051212 0.1875,0.065415 0.098419,0.040664 0.2745997,0.084613 0.3515625,0.087698 L 7.5,7.4375 Z"
       id="path819"
       inkscape:connector-curvature="0" />
  </g>
</svg>
