<?xml version="1.0" encoding="UTF-8" standalone="no"?>
<!-- Created with Inkscape (http://www.inkscape.org/) -->

<svg
   version="1.1"
   id="svg2"
   width="1600"
   height="1600"
   viewBox="0 0 1600 1600"
   sodipodi:docname="weight_invert.svg"
   inkscape:version="1.2.2 (732a01da63, 2022-12-09)"
   xmlns:inkscape="http://www.inkscape.org/namespaces/inkscape"
   xmlns:sodipodi="http://sodipodi.sourceforge.net/DTD/sodipodi-0.dtd"
   xmlns="http://www.w3.org/2000/svg"
   xmlns:svg="http://www.w3.org/2000/svg"
   xmlns:rdf="http://www.w3.org/1999/02/22-rdf-syntax-ns#"
   xmlns:cc="http://creativecommons.org/ns#"
   xmlns:dc="http://purl.org/dc/elements/1.1/">
  <metadata
     id="metadata8">
    <rdf:RDF>
      <cc:Work
         rdf:about="">
        <dc:format>image/svg+xml</dc:format>
        <dc:type
           rdf:resource="http://purl.org/dc/dcmitype/StillImage" />
      </cc:Work>
    </rdf:RDF>
  </metadata>
  <defs
     id="defs6" />
  <sodipodi:namedview
     pagecolor="#808080"
     bordercolor="#666666"
     borderopacity="1"
     objecttolerance="10"
     gridtolerance="10"
     guidetolerance="10"
     inkscape:pageopacity="0"
     inkscape:pageshadow="2"
     inkscape:window-width="2560"
     inkscape:window-height="1009"
     id="namedview4"
     showgrid="false"
     inkscape:zoom="0.5"
     inkscape:cx="734"
     inkscape:cy="1118"
     inkscape:window-x="-8"
     inkscape:window-y="-8"
     inkscape:window-maximized="1"
     inkscape:current-layer="WEIGHT_INVERT"
     inkscape:showpageshadow="0"
     inkscape:pagecheckerboard="true"
     inkscape:deskcolor="#d1d1d1" />
  <g
     id="WEIGHT_INVERT"
     transform="matrix(100.00746,0,0,100.00746,-0.11942979,8.2115857e-6)"
     style="stroke-width:0.00999924">
    <path
       style="fill:none;stroke-width:0.000312477"
       d="M 0.00254767,10.351563 C 0.004814,5.3268753 0.01011863,4.7265312 0.05058438,4.9150812 0.11277813,5.2048734 0.25806786,5.5899484 0.42098866,5.8967984 0.95621469,6.9048597 1.8576635,7.6155481 2.999259,7.9294669 l 0.297616,0.081839 1.796875,0.011238 c 0.9882812,0.00618 1.8179688,0.018977 1.84375,0.028436 0.025999,0.00954 -0.073386,0.056747 -0.2231603,0.1060022 C 5.7035969,8.4893809 4.83352,9.2558425 4.3579484,10.232757 4.0711081,10.821982 3.96875,11.286762 3.96875,12 c 0,0.713238 0.1023581,1.178018 0.3891984,1.767243 0.5202707,1.068735 1.4814107,1.857855 2.6264266,2.156362 l 0.28125,0.07332 -3.6328125,0.0015 L 0,16 Z M 9.015625,15.923605 c 1.546843,-0.403264 2.768864,-1.747735 2.982112,-3.280928 0.04305,-0.309501 0.04305,-0.975853 0,-1.285354 C 11.848467,10.284111 11.153225,9.2131247 10.208235,8.6006841 9.9333406,8.4225272 9.4753566,8.2063469 9.2276909,8.1378422 9.1208894,8.1083006 9.04086,8.0722325 9.0498475,8.0576903 9.058835,8.0431481 9.7860619,8.0308872 10.665907,8.0304437 11.545752,8.03 12.399219,8.0165687 12.5625,8.0005959 c 0.755052,-0.073862 1.577145,-0.4602306 2.195082,-1.0316472 0.56413,-0.5216609 1.03838,-1.3372015 1.190491,-2.0472231 0.04227,-0.1973337 0.04708,0.3309144 0.04938,5.4298374 L 16,16 12.367188,15.9985 8.734375,15.997 9.015625,15.92368 Z"
       id="path823"
       inkscape:connector-curvature="0" />
    <path
       style="fill:#0098fe;stroke-width:0.000312477"
       d="M 7.359375,15.421342 C 7.25625,15.395994 7.1015625,15.3635 7.015625,15.349133 6.72107,15.299887 6.2177194,15.04857 5.8434609,14.763885 5.2354734,14.30141 4.7057456,13.448958 4.5491244,12.681005 c -0.065509,-0.32121 -0.065509,-1.0408 0,-1.36201 0.084045,-0.412093 0.2986637,-0.900074 0.5869793,-1.33462 C 5.3104538,9.7215969 5.7542147,9.2856872 6.0258288,9.1103916 6.3248331,8.9174184 6.8573397,8.6676228 7.015625,8.6460838 c 0.06875,-0.00936 0.2234375,-0.038776 0.34375,-0.065379 0.4148613,-0.091733 1.4388241,-0.040584 1.5609375,0.077972 0.016328,0.015853 0.054876,0.028823 0.085662,0.028823 0.086773,0 0.4788531,0.1818484 0.8050866,0.3734034 0.3389959,0.1990485 0.8204549,0.6486732 1.0223169,0.9547218 0.295327,0.447751 0.504033,0.927206 0.59006,1.355523 0.07423,0.369605 0.04984,1.13984 -0.04664,1.472602 -0.08372,0.288763 -0.321584,0.793777 -0.517707,1.099171 -0.215021,0.334819 -0.68726,0.783973 -1.0509619,0.999586 C 9.49602,15.127534 9.0935116,15.3125 9.0029778,15.3125 c -0.029138,0 -0.066337,0.01256 -0.082665,0.02791 C 8.8074541,15.446523 7.69623,15.504136 7.3593753,15.42134 Z M 3.8125,7.4350241 C 3.3210184,7.4109019 3.1347634,7.37319 2.75,7.2198962 2.4200475,7.0884394 1.9147319,6.7706891 1.634631,6.5185347 1.2115788,6.1376916 0.80665016,5.4360606 0.61396562,4.75 L 0.53058638,4.453125 0.53873069,2.5 0.546875,0.546875 H 2 3.453125 l 0.019007,1.25 c 0.0114,0.7497532 0.032027,1.2812654 0.051543,1.328125 0.017895,0.042969 0.077062,0.1203125 0.1314825,0.171875 0.091541,0.086733 0.1161828,0.09375 0.3292181,0.09375 0.2130353,0 0.2376772,-0.00702 0.3292181,-0.09375 C 4.3680137,3.2453125 4.4270494,3.1679688 4.4447828,3.125 4.463885,3.0787149 4.4848913,2.5374367 4.4963253,1.796875 l 0.0193,-1.25 h 3.46875 3.4687497 l 0.01901,1.25 c 0.0114,0.7497532 0.03203,1.2812654 0.05154,1.328125 0.0179,0.042969 0.07706,0.1203125 0.131483,0.171875 0.09154,0.086733 0.116183,0.09375 0.329218,0.09375 0.213035,0 0.237677,-0.00702 0.329218,-0.09375 0.05442,-0.051563 0.113456,-0.1289062 0.13119,-0.171875 0.0191,-0.046285 0.04011,-0.5875633 0.05154,-1.328125 l 0.0193,-1.25 h 1.46875 1.46875 V 2.5625 4.578125 L 15.3481,4.890625 C 14.915875,6.1767191 14.13057,6.9506597 12.846401,7.3561194 L 12.489678,7.46875 8.3932766,7.4637737 C 6.1402556,7.4610369 4.0789062,7.4480994 3.8125,7.4350241 Z"
       id="path821"
       inkscape:connector-curvature="0" />
    <path
       style="fill:#323232;stroke-width:0.000312477"
       d="M 6.984375,15.924771 C 5.8327019,15.619753 4.8779737,14.835474 4.3579484,13.767243 4.0711081,13.178018 3.96875,12.713238 3.96875,12 c 0,-0.713238 0.1023581,-1.178018 0.3891984,-1.767243 C 4.83352,9.2558425 5.7035969,8.4893809 6.7143397,8.1569822 6.8641138,8.1077266 6.9634991,8.0605181 6.9375,8.05098 6.9117188,8.0415216 6.0820313,8.0287256 5.09375,8.0225444 L 3.296875,8.0113059 2.999259,7.9294669 C 1.6699129,7.56392 0.65382247,6.6434737 0.19123587,5.3857622 -0.0013855,4.8620503 0,4.8841934 0,2.3294424 V 0 h 8 8 v 2.3294424 c 0,2.5808832 0.0022,2.5482654 -0.206008,3.0881585 -0.466426,1.2096022 -1.446618,2.1229772 -2.653367,2.4724938 -0.421639,0.1221212 -0.727514,0.1394684 -2.474718,0.1403491 -0.8798451,4.437e-4 -1.607072,0.012704 -1.6160595,0.027247 -0.00899,0.014542 0.071042,0.05061 0.1778434,0.080152 0.2476657,0.068505 0.7056497,0.284685 0.9805441,0.4628419 0.94499,0.6124406 1.640232,1.6834273 1.789502,2.7566393 0.04305,0.309501 0.04305,0.975853 0,1.285354 -0.109711,0.788793 -0.533802,1.617641 -1.13561,2.21945 -0.460558,0.460557 -1.1010914,0.84508 -1.721502,1.033444 -0.2700547,0.08199 -0.31297,0.08576 -1.078125,0.09454 -0.7559763,0.0087 -0.81131,0.0053 -1.078125,-0.06534 z M 8.71875,15.406528 c 0.094531,-0.02101 0.1852344,-0.05076 0.2015625,-0.06611 0.016328,-0.01535 0.053527,-0.02791 0.082665,-0.02791 0.090534,0 0.4930422,-0.184966 0.8051513,-0.369993 0.3637022,-0.215613 0.8359412,-0.664767 1.0509602,-0.999586 0.196123,-0.305394 0.433983,-0.810408 0.517707,-1.099171 0.09648,-0.332762 0.120877,-1.102997 0.04664,-1.472602 -0.08603,-0.428317 -0.294733,-0.907772 -0.59006,-1.355523 C 10.631517,9.7095766 10.150058,9.2599519 9.8110616,9.0609034 9.4848281,8.8693484 9.0927484,8.6875 9.005975,8.6875 8.975189,8.6875 8.936641,8.67453 8.920313,8.658677 8.7981991,8.5401209 7.7742362,8.4889716 7.359375,8.5807047 7.2390625,8.6073077 7.084375,8.6367287 7.015625,8.6460837 6.8573397,8.6676227 6.3248331,8.9174183 6.0258287,9.1103915 5.7542147,9.2856871 5.3104537,9.7215968 5.1361037,9.9843749 4.8477881,10.418921 4.6331694,10.906902 4.5491244,11.318995 c -0.065509,0.32121 -0.065509,1.0408 0,1.36201 0.1566212,0.767953 0.686349,1.620405 1.2943365,2.08288 0.3742585,0.284685 0.8776091,0.536002 1.1721641,0.585248 0.085937,0.01437 0.240625,0.04686 0.34375,0.07221 0.2241816,0.0551 1.0871256,0.0457 1.359375,-0.01481 z M 12.846402,7.3561194 C 14.130571,6.9506597 14.915876,6.1767191 15.348101,4.890625 l 0.105024,-0.3125 V 2.5625 0.546875 h -1.46875 -1.46875 l -0.0193,1.25 c -0.01143,0.7405617 -0.03244,1.2818399 -0.05154,1.328125 -0.01773,0.042969 -0.07677,0.1203125 -0.13119,0.171875 -0.09154,0.086733 -0.116183,0.09375 -0.329218,0.09375 -0.213035,0 -0.237677,-0.00702 -0.329218,-0.09375 C 11.600739,3.245312 11.541571,3.1679688 11.523676,3.125 11.504156,3.07814 11.483536,2.5466282 11.472136,1.796875 l -0.01901,-1.25 h -3.46875 -3.46875 l -0.0193,1.25 C 4.4848912,2.5374367 4.463885,3.0787149 4.4447828,3.125 4.4270498,3.167969 4.3680138,3.2453125 4.3135931,3.296875 4.2220521,3.383608 4.1974103,3.390625 3.984375,3.390625 3.7713397,3.390625 3.7466978,3.383605 3.6551569,3.296875 3.6007362,3.2453125 3.5415691,3.1679688 3.5236744,3.125 3.5041594,3.0781404 3.4835322,2.5466282 3.4721319,1.796875 l -0.019007,-1.25 H 2 0.546875 L 0.53873069,2.5 0.53058638,4.453125 0.61396562,4.75 C 0.75962978,5.2686428 0.97890209,5.7127078 1.3038693,6.1471766 1.6995132,6.6761372 2.3770869,7.1235922 3.125,7.3498119 3.4458497,7.4468584 3.9799744,7.4584125 8.3932766,7.4637738 l 4.0964014,0.00498 z"
       id="path819"
       inkscape:connector-curvature="0" />
  </g>
</svg>
