<?xml version="1.0" encoding="UTF-8" standalone="no"?>
<!-- Created with Inkscape (http://www.inkscape.org/) -->

<svg
   version="1.1"
   id="svg2"
   width="1600"
   height="1600"
   viewBox="0 0 1600 1600"
   sodipodi:docname="weld.svg"
   inkscape:version="1.2.2 (732a01da63, 2022-12-09)"
   xmlns:inkscape="http://www.inkscape.org/namespaces/inkscape"
   xmlns:sodipodi="http://sodipodi.sourceforge.net/DTD/sodipodi-0.dtd"
   xmlns="http://www.w3.org/2000/svg"
   xmlns:svg="http://www.w3.org/2000/svg"
   xmlns:rdf="http://www.w3.org/1999/02/22-rdf-syntax-ns#"
   xmlns:cc="http://creativecommons.org/ns#"
   xmlns:dc="http://purl.org/dc/elements/1.1/">
  <metadata
     id="metadata8">
    <rdf:RDF>
      <cc:Work
         rdf:about="">
        <dc:format>image/svg+xml</dc:format>
        <dc:type
           rdf:resource="http://purl.org/dc/dcmitype/StillImage" />
      </cc:Work>
    </rdf:RDF>
  </metadata>
  <defs
     id="defs6" />
  <sodipodi:namedview
     pagecolor="#808080"
     bordercolor="#666666"
     borderopacity="1"
     objecttolerance="10"
     gridtolerance="10"
     guidetolerance="10"
     inkscape:pageopacity="0"
     inkscape:pageshadow="2"
     inkscape:window-width="1993"
     inkscape:window-height="1009"
     id="namedview4"
     showgrid="false"
     inkscape:zoom="0.5"
     inkscape:cx="9"
     inkscape:cy="8"
     inkscape:window-x="-8"
     inkscape:window-y="-8"
     inkscape:window-maximized="1"
     inkscape:current-layer="WELD"
     inkscape:showpageshadow="0"
     inkscape:pagecheckerboard="true"
     inkscape:deskcolor="#d1d1d1" />
  <g
     id="WELD"
     transform="matrix(100,0,0,100,0,4.9999997e-5)"
     style="stroke-width:0.0114286">
    <path
       style="fill:none;stroke-width:0.000357143"
       d="M 0,12.296875 V 8.59375 H 0.921875 1.84375 v 0.7635906 c 0,0.8095024 0.010208,0.8793544 0.1504256,1.0293204 0.1524108,0.163008 0.4330936,0.224604 0.6522275,0.143132 0.1170329,-0.04351 2.253661,-2.1730927 2.3098453,-2.3022267 0.056057,-0.128841 0.056057,-0.35754 1e-6,-0.4863826 C 4.9000816,7.6120853 2.7946704,5.513715 2.6776531,5.4702081 2.5642206,5.4280337 2.3409257,5.4282972 2.2285969,5.4707394 2.1035278,5.5179937 1.9703563,5.6513844 1.9029957,5.7968763 1.8518695,5.9073038 1.8450426,6.0084006 1.8444363,6.6640638 L 1.84375,7.40625 H 0.921875 0 V 3.703125 0 h 8 8 V 3.703125 7.40625 H 15.078125 14.15625 V 6.6396212 c 0,-0.8341787 -0.01052,-0.8971287 -0.175839,-1.0516956 -0.04938,-0.046172 -0.129373,-0.098907 -0.177758,-0.1171875 -0.123005,-0.046475 -0.348381,-0.041409 -0.467719,0.010514 -0.129134,0.056184 -2.258715,2.1928125 -2.302227,2.3098453 -0.04197,0.1128784 -0.04197,0.3361797 10e-7,0.4490562 0.04351,0.1170172 2.141877,2.2224294 2.270976,2.2785954 0.119339,0.05192 0.344714,0.05699 0.467719,0.01051 0.125069,-0.04725 0.258241,-0.180645 0.325601,-0.326137 0.05113,-0.110426 0.05795,-0.2115239 0.05856,-0.867187 L 14.15625,8.59375 H 15.078125 16 V 12.296875 16 H 8 0 Z M 8.5942109,10.42665 C 9.2457353,10.248865 9.74307,9.89352 10.095099,9.3542656 10.372886,8.9287388 10.483,8.5443019 10.483,8 10.483,7.2970881 10.247067,6.7171756 9.7649456,6.2350544 9.2828244,5.7529331 8.7029119,5.5170003 8,5.5170003 c -0.5443019,0 -0.9287388,0.1101138 -1.3542656,0.3879006 -0.6781532,0.4427032 -1.0837063,1.1411069 -1.1360366,1.9563697 -0.080321,1.2513316 0.7947709,2.3534064 2.0684272,2.6049404 0.2105916,0.04159 0.8032581,0.01851 1.0160859,-0.03956 z"
       id="path825"
       inkscape:connector-curvature="0" />
    <path
       style="fill:#fefefe;stroke-width:0.000357143"
       d="M 2.171875,10.518208 C 2.0554152,10.466225 1.9209045,10.325138 1.8769881,10.208903 1.856811,10.1555 1.84375,9.8208763 1.84375,9.3573406 V 8.59375 H 0.921875 0 V 8 7.40625 H 0.921875 1.84375 l 6.862e-4,-0.7421875 c 6.063e-4,-0.6556631 0.00743,-0.75676 0.058559,-0.8671875 0.06736,-0.1454919 0.2005321,-0.2788825 0.3256011,-0.3261369 0.1230046,-0.046474 0.3483807,-0.041409 0.4677194,0.010512 0.1290986,0.056168 2.2274687,2.1615791 2.2709756,2.2785963 0.041968,0.1128765 0.041968,0.3361778 1e-6,0.4490562 -0.043512,0.1170328 -2.1730927,2.2536614 -2.3022266,2.3098454 -0.1259098,0.05478 -0.3698492,0.05451 -0.4931907,-5.4e-4 z m 11.125,-7.25e-4 C 13.170573,10.46013 11.074093,8.3514628 11.032708,8.2401528 10.99074,8.1272763 10.99074,7.903975 11.032707,7.7910966 c 0.04351,-0.1170328 2.173093,-2.253661 2.302227,-2.3098453 0.219602,-0.095546 0.511855,-0.038006 0.67089,0.1320871 0.140218,0.1499666 0.150426,0.2198185 0.150426,1.0293207 V 7.4062497 H 15.078125 16 v 0.59375 0.59375 H 15.078125 14.15625 l -6.87e-4,0.7421875 c -6.07e-4,0.6556631 -0.0074,0.7567598 -0.05856,0.8671878 -0.06736,0.145492 -0.200532,0.278882 -0.325601,0.326137 -0.120716,0.04561 -0.361297,0.03964 -0.474528,-0.01178 z"
       id="path823"
       inkscape:connector-curvature="0" />
    <path
       style="fill:#fe9832;stroke-width:0.000357143"
       d="M 7.6285103,9.4506078 C 6.8361416,9.2375131 6.3459466,8.4170816 6.5478497,7.6419234 6.7569144,6.83927 7.5760953,6.3441694 8.3580766,6.5478497 9.1583753,6.7563012 9.6557937,7.5762359 9.4533853,8.3533344 9.2424103,9.1633228 8.41352,9.6617234 7.6285103,9.4506078 Z"
       id="path821"
       inkscape:connector-curvature="0" />
    <path
       style="fill:#323232;stroke-width:0.000357143"
       d="M 7.578125,10.466211 C 6.4878512,10.250893 5.7133381,9.4555903 5.5282091,8.3612706 5.4046128,7.6306784 5.6860731,6.7840356 6.2350544,6.2350544 6.7171756,5.7529331 7.2970881,5.5170003 8,5.5170003 c 0.7029119,0 1.2828244,0.2359328 1.7649456,0.7180541 C 10.247067,6.7171756 10.483,7.2970881 10.483,8 c 0,0.5443019 -0.110114,0.9287387 -0.387901,1.3542656 C 9.74307,9.89352 9.2457353,10.248865 8.5942109,10.42665 8.3813831,10.484725 7.7887166,10.507801 7.578125,10.466211 Z M 8.3580766,9.4521503 C 8.8970516,9.311765 9.3122331,8.8952541 9.4533853,8.3533344 9.6557938,7.5762359 9.1583753,6.7563012 8.3580766,6.5478497 7.5760953,6.3441694 6.7569144,6.83927 6.5478497,7.6419234 6.2693225,8.7112622 7.2887378,9.7306775 8.3580766,9.4521503 Z"
       id="path819"
       inkscape:connector-curvature="0" />
  </g>
</svg>
