<?xml version="1.0" encoding="UTF-8" standalone="no"?>
<!-- Created with Inkscape (http://www.inkscape.org/) -->

<svg
   version="1.1"
   id="svg2"
   width="1600"
   height="1600"
   viewBox="0 0 1600 1600"
   sodipodi:docname="white_balance.svg"
   inkscape:version="1.2.2 (732a01da63, 2022-12-09)"
   xmlns:inkscape="http://www.inkscape.org/namespaces/inkscape"
   xmlns:sodipodi="http://sodipodi.sourceforge.net/DTD/sodipodi-0.dtd"
   xmlns="http://www.w3.org/2000/svg"
   xmlns:svg="http://www.w3.org/2000/svg"
   xmlns:rdf="http://www.w3.org/1999/02/22-rdf-syntax-ns#"
   xmlns:cc="http://creativecommons.org/ns#"
   xmlns:dc="http://purl.org/dc/elements/1.1/">
  <metadata
     id="metadata8">
    <rdf:RDF>
      <cc:Work
         rdf:about="">
        <dc:format>image/svg+xml</dc:format>
        <dc:type
           rdf:resource="http://purl.org/dc/dcmitype/StillImage" />
      </cc:Work>
    </rdf:RDF>
  </metadata>
  <defs
     id="defs6" />
  <sodipodi:namedview
     pagecolor="#808080"
     bordercolor="#666666"
     borderopacity="1"
     objecttolerance="10"
     gridtolerance="10"
     guidetolerance="10"
     inkscape:pageopacity="0"
     inkscape:pageshadow="2"
     inkscape:window-width="1993"
     inkscape:window-height="1009"
     id="namedview4"
     showgrid="false"
     inkscape:zoom="0.5"
     inkscape:cx="9"
     inkscape:cy="8"
     inkscape:window-x="-8"
     inkscape:window-y="-8"
     inkscape:window-maximized="1"
     inkscape:current-layer="WHITE_BALANCE"
     inkscape:showpageshadow="0"
     inkscape:pagecheckerboard="true"
     inkscape:deskcolor="#d1d1d1" />
  <g
     id="WHITE_BALANCE"
     transform="matrix(100,0,0,100,0,4.9999997e-5)"
     style="stroke-width:0.0114286">
    <path
       style="fill:none;stroke-width:0.000357143"
       d="m 0.0014617,15.117188 0.0014617,-0.882813 0.06034375,0.154564 c 0.08328405,0.213323 0.34203001,0.469522 0.5544611,0.549003 C 0.77925541,14.998377 0.86773681,15 4,15 7.1521644,15 7.2197806,14.998738 7.3853862,14.936776 7.5986866,14.85697 7.8820272,14.572475 7.9396044,14.3803 7.9610756,14.308635 7.9882537,14.25 8,14.25 c 0.011746,0 0.038924,0.05864 0.060396,0.1303 0.057577,0.192175 0.3409178,0.47667 0.5542182,0.556476 C 8.7802194,14.998737 8.8478356,15 12,15 c 3.132263,0 3.220745,-0.0016 3.382272,-0.06206 0.212431,-0.07948 0.471177,-0.33568 0.554461,-0.549003 l 0.06034,-0.154564 0.0015,0.882813 L 16,16 H 8 0 Z M 7.96875,12.49768 c 0,-0.01846 -0.076397,-0.113385 -0.1697709,-0.210937 C 7.6341594,12.114548 7.5379816,12.063803 4.5013616,10.546875 L 1.373515,8.984375 1.0787617,8.9735928 C 0.68962866,8.9593584 0.51410441,9.0163966 0.28543687,9.2313909 0.1922884,9.3189697 0.09026775,9.446875 0.05872432,9.515625 0.00279295,9.6375294 0.00135563,9.5212494 6.863125e-4,4.8203125 L 0,0 h 8 8 l -6.87e-4,4.8203125 c -6.69e-4,4.7009369 -0.0021,4.8172169 -0.05804,4.6953125 C 15.909731,9.446875 15.80771,9.3189697 15.714562,9.2313909 15.485894,9.0163966 15.31037,8.9593584 14.921237,8.9735928 l -0.294753,0.010782 -3.127847,1.5625002 C 8.4620184,12.063803 8.3658406,12.114548 8.2010209,12.286743 8.1076469,12.384295 8.03125,12.479217 8.03125,12.49768 c 0,0.01846 -0.014062,0.03357 -0.03125,0.03357 -0.017188,0 -0.03125,-0.01511 -0.03125,-0.03357 z M 12,5 V 1 H 8 4 v 4 4 h 4 4 z"
       id="path823"
       inkscape:connector-curvature="0" />
    <path
       style="fill:#fefefe;stroke-width:0.000357143"
       d="M 1,11.984375 C 1,10.875781 1.00701,9.96875 1.015582,9.96875 c 0.00857,0 1.3585699,0.67145 2.9999999,1.492111 L 7,12.952973 V 13.476486 14 H 4 1 Z m 8,1.492111 v -0.523513 l 2.984418,-1.492112 c 1.64143,-0.820661 2.994946,-1.4921132 3.007813,-1.4921157 0.01287,-2.5e-6 0.01968,0.9070287 0.01513,2.0156247 L 14.999098,14 H 11.999549 9 Z M 5,5 V 2 h 3 3 V 5 8 H 8 5 Z"
       id="path821"
       inkscape:connector-curvature="0" />
    <path
       style="fill:#323232;stroke-width:0.000357143"
       d="M 0.61106094,14.936733 C 0.39773778,14.853449 0.14153919,14.594703 0.06205853,14.382272 0.00219802,14.22228 2.430819e-5,14.135372 6.863125e-4,11.928515 0.00146942,9.3179631 -0.01967712,9.5182606 0.28543687,9.2313909 0.51410441,9.0163966 0.68962866,8.9593584 1.0787617,8.9735928 l 0.2947533,0.010782 3.1278466,1.5625002 c 3.0030743,1.500171 3.1344115,1.569358 3.2924256,1.734424 0.090518,0.09456 0.1739465,0.192996 0.1853959,0.21875 0.018494,0.0416 0.02314,0.0416 0.041634,0 0.011449,-0.02575 0.094878,-0.124191 0.1853959,-0.21875 0.1580141,-0.165066 0.2893513,-0.234253 3.292425,-1.734424 l 3.127847,-1.5625002 0.294753,-0.010782 c 0.389133,-0.014234 0.564658,0.042804 0.793325,0.2577981 0.30512,0.2868754 0.283968,0.08646 0.284751,2.6979611 7.87e-4,2.629594 0.01701,2.472452 -0.287083,2.780374 C 15.403311,15.022532 15.691463,15 12,15 8.8478356,15 8.7802194,14.998737 8.6146138,14.936776 8.4013134,14.85697 8.1179728,14.572475 8.0603956,14.3803 8.0389244,14.308635 8.0117463,14.25 8,14.25 c -0.011746,0 -0.038924,0.05864 -0.060396,0.1303 -0.057577,0.192175 -0.3409178,0.47667 -0.5542182,0.556476 -0.1657143,0.062 -0.2313281,0.0632 -3.3943709,0.06176 -3.11089164,-0.0014 -3.23087721,-0.0036 -3.37995436,-0.0618 z M 7,13.476486 V 12.952973 L 4.0155816,11.460861 C 2.3741516,10.6402 1.0241516,9.96875 1.0155817,9.96875 1.0070117,9.96875 1,10.875781 1,11.984375 V 14 h 3 3 z m 8.007362,-1.492116 c 0.0045,-1.108596 -0.0023,-2.0156272 -0.01513,-2.0156247 -0.01287,2.5e-6 -1.366383,0.6714547 -3.007813,1.4921157 L 9,12.952973 V 13.476486 14 h 2.999549 2.999549 z M 4,5 V 1 h 4 4 V 5 9 H 8 4 Z m 7,0 V 2 H 8 5 v 3 3 h 3 3 z"
       id="path819"
       inkscape:connector-curvature="0" />
  </g>
</svg>
