<?xml version="1.0" encoding="UTF-8" standalone="no"?>
<!-- Created with Inkscape (http://www.inkscape.org/) -->

<svg
   xmlns:dc="http://purl.org/dc/elements/1.1/"
   xmlns:cc="http://creativecommons.org/ns#"
   xmlns:rdf="http://www.w3.org/1999/02/22-rdf-syntax-ns#"
   xmlns:svg="http://www.w3.org/2000/svg"
   xmlns="http://www.w3.org/2000/svg"
   xmlns:sodipodi="http://sodipodi.sourceforge.net/DTD/sodipodi-0.dtd"
   xmlns:inkscape="http://www.inkscape.org/namespaces/inkscape"
   version="1.1"
   id="svg2"
   width="16"
   height="16"
   viewBox="0 0 16 16"
   sodipodi:docname="WINDOW.svg"
   inkscape:version="0.92.4 (5da689c313, 2019-01-14)">
  <metadata
     id="metadata8">
    <rdf:RDF>
      <cc:Work
         rdf:about="">
        <dc:format>image/svg+xml</dc:format>
        <dc:type
           rdf:resource="http://purl.org/dc/dcmitype/StillImage" />
        <dc:title></dc:title>
      </cc:Work>
    </rdf:RDF>
  </metadata>
  <defs
     id="defs6" />
  <sodipodi:namedview
     pagecolor="#ffffff"
     bordercolor="#666666"
     borderopacity="1"
     objecttolerance="10"
     gridtolerance="10"
     guidetolerance="10"
     inkscape:pageopacity="0"
     inkscape:pageshadow="2"
     inkscape:window-width="1147"
     inkscape:window-height="838"
     id="namedview4"
     showgrid="false"
     inkscape:zoom="14.75"
     inkscape:cx="-1.0169492"
     inkscape:cy="8"
     inkscape:window-x="88"
     inkscape:window-y="100"
     inkscape:window-maximized="0"
     inkscape:current-layer="svg2" />
  <g
     id="WINDOW">
    <path
       style="fill:#ffffff;stroke-width:0.03125"
       d="M 0,8 V 0 h 8 8 v 8 8 H 8 0 Z M 15,9.5 V 4 H 14 13 V 2.5 1 H 7 1 V 6.5 12 h 1 1 v 1.5 1.5 h 6 6 z"
       id="path829"
       inkscape:connector-curvature="0" />
    <path
       style="fill:#fefefe;stroke-width:0.03125"
       d="M 4,11 V 8 h 5 5 v 3 3 H 9 4 Z M 2,8 V 5 H 2.5 3 v 3 3 H 2.5 2 Z"
       id="path827"
       inkscape:connector-curvature="0" />
    <path
       style="fill:#98cbfe;stroke-width:0.03125"
       d="M 4,6.5 V 5 h 5 5 V 6.5 8 H 9 4 Z m 9,0 V 6 H 12 11 V 6.5 7 h 1 1 z"
       id="path825"
       inkscape:connector-curvature="0" />
    <path
       style="fill:#989898;stroke-width:0.03125"
       d="M 2,3.5 V 2 h 5 5 V 3 4 H 11.5 11 V 3.5 3 H 10 9 V 3.5 4 H 6 3 V 4.5 5 H 2.5 2 Z"
       id="path823"
       inkscape:connector-curvature="0" />
    <path
       style="fill:#656565;stroke-width:0.03125"
       d="M 1,6.5 V 1 h 6 6 V 2.5 4 H 12.5 12 V 3 2 H 7 2 V 6.5 11 H 2.5 3 V 11.5 12 H 2 1 Z m 8,-3 V 3 h 1 1 V 3.5 4 H 10 9 Z"
       id="path821"
       inkscape:connector-curvature="0" />
    <path
       style="fill:#323232;stroke-width:0.03125"
       d="M 3,9.5 V 4 h 6 6 V 9.5 15 H 9 3 Z m 11,0 V 5 H 9 4 V 9.5 14 h 5 5 z m -3,-3 V 6 h 1 1 V 6.5 7 h -1 -1 z"
       id="path819"
       inkscape:connector-curvature="0" />
  </g>
</svg>
