<?xml version="1.0" encoding="UTF-8" standalone="no"?>
<!-- Created with Inkscape (http://www.inkscape.org/) -->

<svg
   version="1.1"
   id="svg2"
   width="1600"
   height="1600"
   viewBox="0 0 1600 1600"
   sodipodi:docname="wood_tex.svg"
   inkscape:version="1.2.2 (732a01da63, 2022-12-09)"
   xmlns:inkscape="http://www.inkscape.org/namespaces/inkscape"
   xmlns:sodipodi="http://sodipodi.sourceforge.net/DTD/sodipodi-0.dtd"
   xmlns="http://www.w3.org/2000/svg"
   xmlns:svg="http://www.w3.org/2000/svg"
   xmlns:rdf="http://www.w3.org/1999/02/22-rdf-syntax-ns#"
   xmlns:cc="http://creativecommons.org/ns#"
   xmlns:dc="http://purl.org/dc/elements/1.1/">
  <metadata
     id="metadata8">
    <rdf:RDF>
      <cc:Work
         rdf:about="">
        <dc:format>image/svg+xml</dc:format>
        <dc:type
           rdf:resource="http://purl.org/dc/dcmitype/StillImage" />
      </cc:Work>
    </rdf:RDF>
  </metadata>
  <defs
     id="defs6" />
  <sodipodi:namedview
     pagecolor="#808080"
     bordercolor="#666666"
     borderopacity="1"
     objecttolerance="10"
     gridtolerance="10"
     guidetolerance="10"
     inkscape:pageopacity="0"
     inkscape:pageshadow="2"
     inkscape:window-width="1993"
     inkscape:window-height="1009"
     id="namedview4"
     showgrid="false"
     inkscape:zoom="0.5"
     inkscape:cx="9"
     inkscape:cy="8"
     inkscape:window-x="-8"
     inkscape:window-y="-8"
     inkscape:window-maximized="1"
     inkscape:current-layer="WOOD_TEX"
     inkscape:showpageshadow="0"
     inkscape:pagecheckerboard="true"
     inkscape:deskcolor="#d1d1d1" />
  <g
     id="WOOD_TEX"
     transform="matrix(100,0,0,100,0,4.9999997e-5)"
     style="stroke-width:0.0114286">
    <path
       style="fill:none;stroke-width:0.000357143"
       d="M 0,8 V 0 h 8 8 v 8 8 H 8 0 Z m 13.269218,7.419944 c 0.04746,-0.03544 0.115289,-0.103261 0.150726,-0.150719 0.06438,-0.08622 0.06444,-0.09066 0.08006,-5.7324444 0.01164,-4.2046472 0.0065,-5.6700906 -0.02022,-5.7399056 -0.02105,-0.055047 -0.691906,-0.7475964 -1.625,-1.6775451 -1.355489,-1.35091915 -1.605235,-1.58657599 -1.698528,-1.60270781 -0.06016,-0.010402 -2.18608,-0.0148817 -4.724275,-0.009955 -4.60534394,0.008939 -4.61507859,0.009091 -4.70119406,0.0733887 -0.0474618,0.035437 -0.11528807,0.10326428 -0.15072503,0.15072728 L 0.515625,0.81707959 0.50672091,7.9163522 c -0.004897,3.9045998 -8.2219e-4,7.1445618 0.009056,7.1999148 0.0223485,0.125235 0.1536701,0.284907 0.27954885,0.339901 0.0784903,0.03429 1.17936484,0.04045 6.24144734,0.03492 l 6.1461489,-0.0067 z"
       id="path829"
       inkscape:connector-curvature="0" />
    <path
       style="fill:#fefefe;stroke-width:0.000357143"
       d="M 1,8 V 1 H 5.25 9.5 V 2.75 4.5 H 11.25 13 V 9.75 15 H 7 1 Z M 12,9.5 V 5 H 10.5 9 V 3.5 2 H 5.5 2 v 6 6 h 5 5 z M 11.507813,4.0078197 10,3.9993997 V 2.4920082 0.98461663 L 11.515625,2.5 c 0.833594,0.8334609 1.515625,1.5189534 1.515625,1.5233166 0,0.00436 -0.0035,0.00456 -0.0078,4.281e-4 -0.0043,-0.00413 -0.686329,-0.011294 -1.515625,-0.015925 z"
       id="path827"
       inkscape:connector-curvature="0" />
    <path
       style="fill:#cb9832;stroke-width:0.000357143"
       d="M 2,8 V 2 h 0.2635191 c 0.2456322,0 0.2650301,0.00476 0.2857781,0.070132 0.012242,0.038572 0.1343973,0.3022442 0.2714553,0.5859375 0.4597053,0.9515333 0.6479963,1.349577 0.64819,1.370262 9.38e-5,0.011299 0.018273,0.0557 0.040372,0.098669 0.051462,0.1000631 0.1583672,0.4030841 0.222195,0.6298097 0.076901,0.2731622 0.065789,0.6628975 -0.024364,0.8545653 -0.081817,0.1739422 -0.2523334,0.3429069 -0.44152,0.4375 C 3.196875,6.08125 3.1359375,6.1199219 3.1302084,6.1328125 3.1244792,6.1457031 3.0928385,6.15625 3.0598958,6.15625 3.0269531,6.15625 3,6.1686725 3,6.1838553 3,6.1990383 2.975391,6.2192283 2.945313,6.2287233 2.8293823,6.2653183 2.6355116,6.3958961 2.519347,6.5156252 c -0.3284836,0.3385631 -0.3611201,0.812095 -0.1033822,1.5 0.064365,0.1717897 0.1652376,0.3934456 0.4124233,0.90625 0.4911318,1.0188878 0.6403733,1.3343758 0.6405549,1.3540958 9.38e-5,0.0115 0.018273,0.05606 0.040372,0.09903 0.051462,0.100063 0.1583672,0.403084 0.222195,0.62981 0.076901,0.273162 0.065789,0.662897 -0.024364,0.854565 -0.081817,0.173942 -0.2523334,0.342907 -0.44152,0.4375 -0.06875,0.03438 -0.1296875,0.07305 -0.1354166,0.08594 -0.00573,0.01289 -0.03737,0.02344 -0.070313,0.02344 -0.032943,0 -0.059896,0.01242 -0.059896,0.0276 0,0.01518 -0.024609,0.03537 -0.054687,0.04487 C 2.7118729,12.55241 2.4341161,12.810307 2.324034,13.055578 2.2090825,13.3117 2.2215756,13.383939 2.3984375,13.485808 2.5512741,13.573839 3.09375,13.965267 3.09375,13.987517 3.09375,13.994383 2.8476563,14 2.546875,14 H 2 Z m 1.2506863,5.960938 c 0.00278,-0.158192 0.2449093,-0.474714 0.4606156,-0.602134 0.055659,-0.03288 0.1011981,-0.07081 0.1011981,-0.08429 0,-0.01348 0.013956,-0.02451 0.031012,-0.02451 0.038418,0 0.1437172,-0.08621 0.40044,-0.327839 0.343053,-0.32289 0.537298,-0.752301 0.537298,-1.18779 0,-0.347374 -0.086057,-0.584654 -0.3966819,-1.09375 -0.020974,-0.03438 -0.05301,-0.09062 -0.07119,-0.125 -0.018181,-0.03438 -0.060183,-0.104688 -0.09334,-0.15625 C 4.1868819,10.307813 4.1401691,10.230469 4.1162322,10.1875 4.092295,10.144531 4.0424194,10.056447 4.0053972,9.9917572 3.5336569,9.1674706 3.2477119,8.3915972 3.2467047,7.933145 3.2458922,7.5632956 3.397605,7.2941091 3.7113019,7.1088037 3.7669609,7.0759253 3.8125,7.0379941 3.8125,7.0245122 3.8125,7.0110306 3.8264556,7 3.8435122,7 3.8819303,7 3.9872294,6.9137922 4.2439522,6.6721609 4.587005,6.349275 4.78125,5.9198644 4.78125,5.484375 4.78125,5.1370012 4.6951931,4.8997212 4.3845681,4.390625 4.3635941,4.35625 4.3315584,4.3 4.3133778,4.265625 4.2951972,4.23125 4.2531944,4.1609375 4.2200381,4.109375 4.1868819,4.0578125 4.1401691,3.9804688 4.1162322,3.9375 4.092295,3.8945313 4.0424194,3.8064469 4.0053972,3.7417572 3.74902,3.2937816 3.4212344,2.5690053 3.3420997,2.2751213 3.3235178,2.206113 3.2705841,2.1164245 3.2244697,2.0758134 L 3.140625,2.0019751 4.6953125,2.0009876 C 5.5503906,2.0004444 6.25,2.0067668 6.25,2.0150373 6.25,2.0441572 5.6696963,2.463001 5.4921875,2.5620011 5.3933594,2.6171194 5.3125,2.6721831 5.3125,2.684365 c 0,0.012182 0.03999,0.085206 0.088867,0.1622767 0.1050362,0.1656252 0.2982453,0.3379027 0.472699,0.4214883 0.06887,0.032997 0.1253788,0.070542 0.125576,0.083432 1.875e-4,0.012891 0.027311,0.023437 0.060254,0.023437 0.032942,0 0.064583,0.010547 0.070312,0.023437 C 6.1359375,3.4113282 6.196875,3.45 6.265625,3.484375 6.4467162,3.5749207 6.62058,3.7439991 6.7064056,3.9130238 6.8371097,4.1704322 6.8046334,4.6136091 6.6164462,5.140625 6.5796225,5.24375 6.5314131,5.3632813 6.5093144,5.40625 6.4872156,5.4492188 6.4690484,5.4937819 6.4689425,5.5052791 6.468755,5.5267588 6.2301344,6.0306403 5.7907222,6.9375 5.3145287,7.9202694 5.2487872,8.11225 5.2476119,8.5235085 c -6.406e-4,0.2240893 0.011802,0.2841568 0.094951,0.4583787 0.1053235,0.2206856 0.3137163,0.4318131 0.5272594,0.5341788 0.071203,0.034133 0.1296222,0.072606 0.1298194,0.085496 1.875e-4,0.012891 0.027311,0.023437 0.060254,0.023437 0.032942,0 0.064583,0.010547 0.070312,0.023437 0.00573,0.012891 0.066667,0.051562 0.1354166,0.085937 0.1810913,0.090546 0.354955,0.2596241 0.4407806,0.428649 0.1307041,0.257408 0.098228,0.700585 -0.089959,1.227601 -0.036824,0.103125 -0.085033,0.222656 -0.1071319,0.265625 -0.022099,0.04297 -0.040266,0.08753 -0.040372,0.09903 -2.187e-4,0.02241 -0.2815178,0.615727 -0.6642481,1.400971 -0.1298472,0.266406 -0.272426,0.565234 -0.3168416,0.664063 L 5.4070972,14 H 4.3285488 C 3.4861769,14 3.2501503,13.9914 3.2506863,13.96094 Z m 3.0000759,-0.04687 C 6.2518622,13.789993 6.37686,13.374214 6.5149938,13.03515 6.6738194,12.645297 7.1142866,11.780886 7.3301322,11.435453 7.4457272,11.250458 7.6611841,10.807677 7.7230766,10.62792 7.8356325,10.301021 7.7901616,9.8496025 7.6094834,9.5002097 7.4969437,9.2825819 7.2044884,8.9977044 6.8576709,8.7678769 6.3616819,8.4391972 6.2457891,8.2647278 6.2467047,7.848105 6.2473297,7.5633316 6.3240716,7.2568997 6.5084853,6.8027991 6.6735753,6.3962809 7.1085538,5.5400609 7.3301322,5.1854531 7.4457272,5.0004581 7.6611841,4.5576769 7.7230766,4.3779203 7.8356325,4.0510213 7.7901616,3.5996025 7.6094834,3.2502097 7.4972303,3.0331363 7.2052106,2.7483755 6.8576709,2.5170853 6.5564569,2.3166252 6.4460822,2.2209346 6.3596744,2.0853406 l -0.055145,-0.086534 0.7128509,0.00841 0.712851,0.00841 0.1895718,0.2524145 C 8.1263297,2.5430292 8.1713613,2.60845 8.2192888,2.703125 c 0.017402,0.034375 0.05887,0.1046875 0.092151,0.15625 0.1032047,0.1598915 0.2838113,0.5515253 0.3674885,0.796875 0.057343,0.1681363 0.084046,0.3234447 0.094481,0.5495338 0.013585,0.2943125 0.0089,0.3271031 -0.070879,0.495735 C 8.6453525,4.8223841 8.5176597,4.9854969 8.316365,5.1948013 8.1509578,5.36679 7.9817384,5.5550375 7.9403216,5.6131291 7.8989047,5.6712206 7.8532016,5.71875 7.8387591,5.71875 c -0.014442,0 -0.026259,0.014666 -0.026259,0.032591 0,0.017925 -0.054749,0.1058157 -0.1216637,0.1953125 -0.2582725,0.3454322 -0.443421,0.8599285 -0.4438563,1.2334013 -4.531e-4,0.3901406 0.054629,0.5077275 0.5434334,1.1600709 0.31134,0.4155047 0.3596354,0.4847628 0.4274588,0.6129994 0.018181,0.034375 0.060286,0.1046875 0.093568,0.15625 0.1032047,0.1598916 0.2838113,0.5515253 0.3674885,0.796875 0.057343,0.1681359 0.084046,0.3234449 0.094481,0.5495339 0.013585,0.294312 0.0089,0.327103 -0.070879,0.495735 -0.057178,0.120865 -0.1848712,0.283978 -0.3861659,0.493282 -0.1654072,0.171989 -0.3346266,0.360237 -0.3760434,0.418328 -0.041417,0.05809 -0.08712,0.105621 -0.1015625,0.105621 -0.014442,0 -0.026259,0.01467 -0.026259,0.03259 0,0.01792 -0.054749,0.105816 -0.1216637,0.195312 -0.1991638,0.266376 -0.43942,0.845239 -0.4404332,1.06116 -4.687e-4,0.09997 0.00917,0.101871 0.1909803,0.03759 0.1543154,-0.05456 0.5953329,-0.06554 0.7205341,-0.01794 0.077413,0.02943 0.081014,0.02565 0.095223,-0.1 0.019117,-0.169038 0.15187,-0.442998 0.2866375,-0.591526 0.058482,-0.06445 0.1153316,-0.117188 0.1263329,-0.117188 0.011001,0 0.050181,-0.02812 0.087065,-0.06248 0.036885,-0.03436 0.1066093,-0.07998 0.1549434,-0.101378 C 8.9604541,12.283498 9,12.255363 9,12.242372 c 0,-0.01299 0.028125,-0.02362 0.0625,-0.02362 0.034375,0 0.062661,-0.01055 0.062858,-0.02344 1.875e-4,-0.01289 0.056706,-0.05044 0.125576,-0.08343 0.190529,-0.09129 0.3681087,-0.258453 0.45344,-0.426846 C 9.8368603,11.423586 9.8064628,10.991689 9.617672,10.453125 9.5815216,10.35 9.5419778,10.251562 9.5297969,10.234375 9.5176156,10.217187 9.4971956,10.167969 9.4844188,10.125 9.4587481,10.038669 9.2047925,9.5061275 8.7243994,8.53125 8.5507738,8.1789062 8.3723694,7.778125 8.327945,7.640625 8.1839856,7.1950491 8.2315681,6.739745 8.4520475,6.453125 8.5649341,6.3063741 8.6460575,6.21875 8.6690347,6.21875 c 0.011593,0 0.051257,-0.028116 0.088142,-0.062479 C 8.7940616,6.1219075 8.8637859,6.0762872 8.91212,6.0548925 8.9604541,6.0334978 9,6.0053634 9,5.9923716 9,5.9793797 9.028125,5.96875 9.0625,5.96875 9.096875,5.96875 9.125161,5.958203 9.125358,5.945313 9.1255455,5.932422 9.182064,5.894878 9.250934,5.861881 9.5601178,5.7137412 9.78125,5.4134244 9.78125,5.1416637 V 5 h 0.463803 0.463804 l 0.0362,0.1208131 c 0.05329,0.1778578 0.04505,0.5916063 -0.01537,0.7720575 -0.05885,0.1757622 -0.228672,0.4470903 -0.350301,0.559681 -0.166457,0.1540881 -0.271302,0.23574 -0.324697,0.2528675 C 10.024609,6.7150675 10,6.7360766 10,6.7521059 10,6.768135 9.9789062,6.78125 9.953125,6.78125 9.927344,6.78125 9.906089,6.791797 9.905892,6.804687 9.9057045,6.817578 9.848678,6.855369 9.7791876,6.888669 9.6052278,6.9720291 9.3931125,7.1764544 9.3135956,7.3373806 9.2046772,7.55781 9.2311541,8.0382063 9.3742288,8.4375 c 0.1658806,0.4629413 0.6552202,1.4984669 0.9377212,1.984375 0.325487,0.559847 0.4693,0.962023 0.4693,1.312407 0,0.458659 -0.159912,0.769596 -0.578125,1.124121 -0.05156,0.04371 -0.118359,0.08737 -0.148437,0.09702 -0.03008,0.0096 -0.05469,0.03066 -0.05469,0.04669 0,0.01603 -0.021094,0.02914 -0.046875,0.02914 -0.025781,0 -0.047036,0.01055 -0.047233,0.02344 -1.875e-4,0.01289 -0.057214,0.05068 -0.1267044,0.08398 -0.3684256,0.176547 -0.6366438,0.628297 -0.4774688,0.804183 0.050038,0.05529 0.0013,0.05715 -1.5,0.05715 H 6.25 l 7.625e-4,-0.08594 z m 4.2989448,-0.03125 c 0.04861,-0.06445 0.104185,-0.13125 0.123508,-0.148438 0.07286,-0.0648 0.537995,-0.695331 0.650084,-0.881236 0.162358,-0.269277 0.314168,-0.608037 0.39511,-0.881678 0.0546,-0.184581 0.06611,-0.289378 0.05662,-0.515625 -0.01595,-0.380273 -0.09096,-0.535398 -0.429783,-0.888829 C 11.091157,10.301969 10.640741,9.6756078 10.510543,9.40625 10.253127,8.873705 10.175759,8.3786816 10.300148,8.0600828 10.361119,7.9039187 10.528269,7.63785 10.634996,7.5270737 10.760821,7.396475 11.202866,6.8029397 11.318467,6.609375 11.630948,6.0861491 11.78125,5.6488141 11.78125,5.2628069 V 5 H 11.890625 12 V 9.5 14 H 11.230666 10.461332 Z M 8.796875,2.4351193 C 8.69375,2.2279596 8.6046875,2.0453105 8.5989584,2.0292326 8.5931722,2.0129945 8.6799928,2 8.7942709,2 H 9 V 2.40625 C 9,2.6296875 8.9964844,2.8123365 8.9921875,2.8121367 8.9878906,2.8119367 8.9,2.642279 8.796875,2.4351193 Z"
       id="path825"
       inkscape:connector-curvature="0" />
    <path
       style="fill:#656565;stroke-width:0.000357143"
       d="M 9.5,2.75 V 1 H 9.75 10 V 2.5 4 H 11.5 13 V 4.25 4.5 H 11.25 9.5 Z"
       id="path823"
       inkscape:connector-curvature="0" />
    <path
       style="fill:#983200;stroke-width:0.000357143"
       d="M 2.890625,13.825203 C 2.7703125,13.731073 2.5769531,13.596698 2.4609375,13.526592 2.2156711,13.378383 2.2013177,13.329 2.324034,13.055578 2.4341161,12.810307 2.7118729,12.55241 2.9453125,12.478723 2.9753906,12.469229 3,12.449038 3,12.433855 c 0,-0.01518 0.026953,-0.0276 0.059896,-0.0276 0.032943,0 0.064583,-0.01055 0.070313,-0.02344 0.00573,-0.01289 0.066667,-0.05156 0.1354166,-0.08594 C 3.81185,12.023763 3.919674,11.515314 3.6168572,10.640625 3.5811552,10.5375 3.5419782,10.439063 3.5297972,10.421875 3.5176162,10.404685 3.4971502,10.356465 3.4843162,10.314712 3.4623869,10.243366 3.3352697,9.9734378 2.8283876,8.921875 2.5812019,8.4090706 2.4803289,8.1874147 2.4159643,8.015625 2.2236717,7.5023941 2.1924114,7.0989847 2.3224715,6.8091116 2.4340291,6.5604759 2.7105089,6.3028409 2.9453125,6.2287231 2.9753906,6.2192287 3,6.1990381 3,6.1838553 3,6.1686725 3.0269531,6.15625 3.0598958,6.15625 c 0.032943,0 0.064583,-0.010547 0.070313,-0.023437 C 3.1359375,6.1199219 3.196875,6.08125 3.265625,6.046875 3.8119438,5.7737156 3.9211731,5.2568353 3.6156313,4.390625 3.5792556,4.2875 3.5314131,4.1679687 3.5093144,4.125 3.4872156,4.0820312 3.4690484,4.0376303 3.4689425,4.0263312 3.468755,4.0056462 3.2804578,3.6076025 2.8207525,2.6560692 2.4688308,1.9276346 2.4673898,1.999808 2.8338316,2.0009875 3.111078,2.00188 3.1487,2.0090864 3.2244697,2.0758134 c 0.046114,0.040611 0.099048,0.1302996 0.11763,0.1993079 0.079135,0.293884 0.4069203,1.0186603 0.6632975,1.4666359 0.037022,0.06469 0.086898,0.1527741 0.110835,0.1957428 0.023937,0.042969 0.07065,0.1203125 0.1038059,0.171875 0.033156,0.051563 0.075159,0.121875 0.09334,0.15625 0.018181,0.034375 0.050216,0.090625 0.07119,0.125 0.310625,0.5090962 0.3966819,0.7463762 0.3966819,1.09375 0,0.4354894 -0.194245,0.8649 -0.5372978,1.1877859 C 3.9872294,6.9137922 3.8819303,7 3.8435122,7 3.8264556,7 3.8125,7.0110306 3.8125,7.0245122 c 0,0.013482 -0.045539,0.051413 -0.1011981,0.084291 -0.537615,0.3175769 -0.6048805,0.868156 -0.2227578,1.8233079 0.1017884,0.2544303 0.3658087,0.7957209 0.5168531,1.0596456 0.037022,0.06469 0.086898,0.1527743 0.110835,0.1957433 0.023937,0.04297 0.07065,0.120312 0.1038059,0.171875 0.033156,0.05156 0.075159,0.121874 0.09334,0.15625 0.018181,0.03438 0.050216,0.09062 0.07119,0.125 0.310625,0.509095 0.3966819,0.746375 0.3966819,1.09375 0,0.435489 -0.194245,0.8649 -0.5372978,1.187786 C 3.9872294,13.163792 3.8819303,13.25 3.8435122,13.25 c -0.017057,0 -0.031012,0.01103 -0.031012,0.02451 0,0.01348 -0.045703,0.05129 -0.1015625,0.08403 -0.1720759,0.100836 -0.3611244,0.319127 -0.4200437,0.485018 -0.072155,0.203156 -0.1199457,0.200965 -0.4002688,-0.01835 z m 2.5252612,0.15136 c 0.00733,-0.01289 0.03845,-0.07969 0.069159,-0.148438 0.030709,-0.06875 0.1682638,-0.357031 0.3056769,-0.640625 0.4653812,-0.960454 0.6701825,-1.394793 0.693594,-1.470962 0.012833,-0.04175 0.033299,-0.08997 0.045481,-0.107163 0.034211,-0.04827 0.1481409,-0.384817 0.2025275,-0.598261 0.026909,-0.105606 0.048926,-0.306464 0.048926,-0.446351 0,-0.206461 -0.014089,-0.282088 -0.074844,-0.401739 C 6.62058,9.9939991 6.4467162,9.8249206 6.265625,9.734375 6.196875,9.7 6.1359375,9.6613281 6.1302084,9.6484375 6.1244791,9.6355469 6.0928384,9.625 6.0598959,9.625 6.0269531,9.625 5.9998387,9.6144531 5.9996416,9.6015625 5.9994541,9.5886719 5.9410256,9.5501984 5.8698222,9.5160659 5.6562791,9.4137003 5.4478862,9.2025728 5.3425628,8.9818872 5.2594144,8.8076653 5.2469716,8.7475978 5.2476119,8.5235084 5.2487869,8.11225 5.3145287,7.9202694 5.7907222,6.9375 6.2301344,6.0306403 6.4687447,5.5267587 6.4689425,5.5052791 6.4690362,5.4937819 6.4872156,5.4492187 6.5093144,5.40625 6.6614091,5.1105166 6.78125,4.6295019 6.78125,4.3147628 6.78125,4.1083016 6.7671606,4.0326747 6.7064056,3.9130237 6.62058,3.7439991 6.4467163,3.5749206 6.265625,3.484375 6.196875,3.45 6.1359375,3.4113281 6.1302084,3.3984375 6.1244791,3.3855469 6.0928384,3.375 6.0598959,3.375 6.0269531,3.375 5.9998388,3.3644531 5.9996416,3.3515625 5.9994541,3.3386719 5.9429353,3.3011272 5.8740656,3.26813 5.6996119,3.1845444 5.5064028,3.0122669 5.4013666,2.8466417 5.35249,2.7695713 5.3125,2.6964147 5.3125,2.6840714 5.3125,2.6717282 5.4013166,2.61196 5.5098703,2.5512533 5.6184241,2.4905467 5.8393413,2.3398938 6.0007978,2.2164692 L 6.294355,1.9920609 6.34249,2.0658802 C 6.4336888,2.2057416 6.5788953,2.3331394 6.8576709,2.5178769 7.2044884,2.7477043 7.4969438,3.032582 7.6094834,3.2502097 7.7901616,3.5996025 7.8356325,4.0510212 7.7230766,4.3779203 7.6611841,4.5576769 7.4457272,5.0004581 7.3301322,5.1854531 7.1085538,5.5400609 6.6735753,6.3962809 6.5084853,6.8027991 6.3240716,7.2568997 6.2473303,7.5633316 6.2467047,7.848105 6.2457891,8.2647278 6.3616819,8.4391972 6.8576709,8.7678769 7.2044884,8.9977044 7.4969438,9.2825819 7.6094834,9.5002097 7.7901616,9.8496025 7.8356325,10.301021 7.7230766,10.62792 7.6611841,10.807677 7.4457272,11.250458 7.3301322,11.435453 7.1142866,11.780886 6.6738194,12.645297 6.5149938,13.03515 6.37686,13.374214 6.2518622,13.789993 6.2507622,13.914063 L 6.25,14 H 5.8262806 C 5.593235,14 5.4085575,13.989453 5.4158862,13.976563 Z m 3.8858322,-0.03371 c -0.159175,-0.175886 0.1090432,-0.627636 0.4774688,-0.804183 0.06949,-0.0333 0.1265072,-0.07109 0.1267044,-0.08398 1.875e-4,-0.01289 0.021452,-0.02344 0.047233,-0.02344 0.025781,0 0.046875,-0.01312 0.046875,-0.02914 0,-0.01603 0.02461,-0.03704 0.05469,-0.04669 0.0534,-0.01713 0.15824,-0.09878 0.324697,-0.252867 0.04538,-0.04201 0.131161,-0.150471 0.190623,-0.241028 0.351666,-0.535562 0.278031,-1.117562 -0.258057,-2.039649 C 10.029449,9.9359669 9.5401094,8.9004412 9.3742287,8.4375 9.2311541,8.0382062 9.2046772,7.55781 9.3135956,7.3373806 9.3931125,7.1764544 9.6052278,6.9720291 9.7791872,6.8886691 9.8486772,6.8553697 9.9056944,6.8175781 9.9058916,6.8046875 9.9060791,6.7917969 9.9273437,6.78125 9.953125,6.78125 9.9789062,6.78125 10,6.768135 10,6.7521059 c 0,-0.016029 0.02461,-0.037038 0.05469,-0.046687 0.0534,-0.017127 0.15824,-0.098779 0.324697,-0.2528675 0.125771,-0.116425 0.293045,-0.3866385 0.353547,-0.5711182 0.0414,-0.126235 0.05083,-0.2336178 0.03977,-0.453125 -0.008,-0.1582259 -0.02501,-0.319324 -0.03786,-0.3579959 L 10.711461,5 h 0.534894 0.534895 v 0.2628069 c 0,0.3860072 -0.150302,0.8233422 -0.462783,1.3465681 -0.115601,0.1935647 -0.557646,0.7871 -0.683471,0.9176987 -0.106727,0.1107763 -0.273877,0.376845 -0.334848,0.5330091 -0.124389,0.3185988 -0.04702,0.8136222 0.210394,1.3461672 0.130199,0.2693578 0.580615,0.895719 0.834699,1.160757 0.338824,0.353431 0.413833,0.508556 0.429783,0.888829 0.0095,0.226247 -0.002,0.331044 -0.05662,0.515625 -0.08094,0.273641 -0.232752,0.612401 -0.39511,0.881678 -0.112089,0.185905 -0.577225,0.816431 -0.650084,0.881236 -0.01932,0.01719 -0.0749,0.08398 -0.123508,0.148438 L 10.461332,14 H 9.9073844 C 9.4104162,14 9.3481169,13.9941 9.3017184,13.94285 Z m -2.0513153,-0.68504 c 0.00101,-0.215921 0.2412694,-0.794784 0.4404331,-1.06116 0.066915,-0.0895 0.1216638,-0.177387 0.1216638,-0.195312 0,-0.01792 0.011817,-0.03259 0.026259,-0.03259 0.014443,0 0.060146,-0.04753 0.1015625,-0.105621 C 7.9817385,11.80504 8.1509578,11.61679 8.316365,11.444801 8.5176597,11.235497 8.6453525,11.072384 8.7025309,10.951519 8.7823066,10.782887 8.786995,10.750096 8.77341,10.455784 8.7629744,10.229695 8.7362722,10.074386 8.6789288,9.90625 8.5952516,9.6609003 8.414645,9.2692666 8.3114403,9.109375 8.2781584,9.0578125 8.2360528,8.9875 8.2178722,8.953125 8.1500488,8.8248884 8.1017534,8.7556303 7.7904134,8.3401256 7.3016087,7.6877822 7.2465253,7.5701953 7.24698,7.1800547 7.2474144,6.8065819 7.4325637,6.2920856 7.6908362,5.9466534 7.7577512,5.8571566 7.8125,5.7692659 7.8125,5.7513409 c 0,-0.017925 0.011817,-0.032591 0.026259,-0.032591 0.014443,0 0.060146,-0.047529 0.1015625,-0.1056209 C 7.9817384,5.5550375 8.1509578,5.36679 8.316365,5.1948013 8.5176597,4.9854969 8.6453525,4.8223841 8.7025309,4.7015188 8.7823066,4.5328869 8.786995,4.5000963 8.77341,4.2057838 8.7629744,3.9796947 8.7362722,3.8243863 8.6789287,3.65625 8.5952516,3.4109003 8.414645,3.0192665 8.3114403,2.859375 8.2781584,2.8078125 8.2360528,2.7375 8.2178722,2.703125 8.1519838,2.5785474 8.1060222,2.5110114 7.9147544,2.2577258 L 7.7201334,2 H 8.1500825 8.5800319 L 8.7900159,2.4184709 9,2.8369417 V 3.9184709 5 H 9.390625 9.78125 V 5.1416637 C 9.78125,5.4134244 9.5601178,5.7137412 9.2509344,5.86188 9.1820644,5.894877 9.1255556,5.932422 9.1253584,5.945312 9.1251613,5.9582031 9.096875,5.96875 9.0625,5.96875 9.028125,5.96875 9,5.9793797 9,5.9923716 9,6.0053636 8.960454,6.0334976 8.91212,6.0548926 8.863786,6.0762876 8.7940616,6.1219076 8.7571766,6.156271 8.7202916,6.190635 8.6806276,6.21875 8.6690346,6.21875 c -0.022977,0 -0.1041006,0.087624 -0.2169872,0.234375 -0.2204794,0.28662 -0.2680619,0.7419241 -0.1241025,1.1875 0.044424,0.1375 0.2228287,0.5382813 0.3964544,0.890625 0.4803931,0.9748775 0.7343487,1.507419 0.7600194,1.59375 0.012777,0.04297 0.033197,0.09219 0.045378,0.109375 0.034211,0.04827 0.1481409,0.384817 0.2025275,0.598261 0.026909,0.105606 0.048926,0.306464 0.048926,0.446351 0,0.208248 -0.013932,0.281833 -0.076876,0.406047 -0.085331,0.168393 -0.262911,0.335558 -0.45344,0.426846 -0.06887,0.033 -0.1253788,0.07054 -0.125576,0.08343 -1.971e-4,0.01289 -0.028483,0.02344 -0.062858,0.02344 -0.034375,0 -0.0625,0.01063 -0.0625,0.02362 0,0.01299 -0.039546,0.04113 -0.08788,0.06252 -0.048334,0.02139 -0.1180584,0.06701 -0.1549434,0.101378 -0.036885,0.03436 -0.076064,0.06248 -0.087065,0.06248 -0.011001,0 -0.067851,0.05273 -0.1263329,0.117188 -0.1347675,0.148528 -0.2675209,0.422488 -0.2866375,0.591526 -0.01421,0.125651 -0.01781,0.129433 -0.095223,0.1 -0.1252012,-0.0476 -0.5662187,-0.03662 -0.7205341,0.01794 -0.1818071,0.06428 -0.1914493,0.06238 -0.1909803,-0.03759 z"
       id="path821"
       inkscape:connector-curvature="0" />
    <path
       style="fill:#323232;stroke-width:0.000357143"
       d="m 0.79532572,15.456168 c -0.12587875,-0.05499 -0.25720035,-0.214666 -0.27954885,-0.3399 -0.009878,-0.05535 -0.0139532,-3.295316 -0.009056,-7.1999158 l 0.008904,-7.09927261 0.0644309,-0.0862964 c 0.035437,-0.047463 0.10326325,-0.11529031 0.15072503,-0.15072728 0.0861155,-0.0642975 0.0958501,-0.0644495 4.7011941,-0.0733887 2.538195,-0.004927 4.6641191,-4.4719e-4 4.7242751,0.009955 0.09329,0.0161318 0.343039,0.25178866 1.698528,1.60270779 0.933094,0.9299487 1.603952,1.6224985 1.625,1.6775451 0.0267,0.069815 0.03186,1.5352584 0.02022,5.7399056 -0.01561,5.6417803 -0.01567,5.6462223 -0.08006,5.7324443 -0.03544,0.04746 -0.103264,0.115282 -0.150726,0.150719 l -0.0863,0.06443 -6.146149,0.0067 c -5.0620825,0.0055 -6.16295714,-6.3e-4 -6.24144742,-0.03492 z M 13.00764,9.4998791 13.015625,3.9997581 11.515505,2.499879 10.015386,1 H 5.5076928 1 v 7 7 h 5.9998272 5.9998268 z"
       id="path819"
       inkscape:connector-curvature="0" />
  </g>
</svg>
