<?xml version="1.0" encoding="UTF-8" standalone="no"?>
<!-- Created with Inkscape (http://www.inkscape.org/) -->

<svg
   version="1.1"
   id="svg2"
   width="1600"
   height="1600"
   viewBox="0 0 1600 1600"
   sodipodi:docname="wpaint_hlt.svg"
   inkscape:version="1.2.2 (732a01da63, 2022-12-09)"
   xmlns:inkscape="http://www.inkscape.org/namespaces/inkscape"
   xmlns:sodipodi="http://sodipodi.sourceforge.net/DTD/sodipodi-0.dtd"
   xmlns="http://www.w3.org/2000/svg"
   xmlns:svg="http://www.w3.org/2000/svg"
   xmlns:rdf="http://www.w3.org/1999/02/22-rdf-syntax-ns#"
   xmlns:cc="http://creativecommons.org/ns#"
   xmlns:dc="http://purl.org/dc/elements/1.1/">
  <metadata
     id="metadata8">
    <rdf:RDF>
      <cc:Work
         rdf:about="">
        <dc:format>image/svg+xml</dc:format>
        <dc:type
           rdf:resource="http://purl.org/dc/dcmitype/StillImage" />
      </cc:Work>
    </rdf:RDF>
  </metadata>
  <defs
     id="defs6" />
  <sodipodi:namedview
     pagecolor="#808080"
     bordercolor="#666666"
     borderopacity="1"
     objecttolerance="10"
     gridtolerance="10"
     guidetolerance="10"
     inkscape:pageopacity="0"
     inkscape:pageshadow="2"
     inkscape:window-width="1993"
     inkscape:window-height="1009"
     id="namedview4"
     showgrid="false"
     inkscape:zoom="0.5"
     inkscape:cx="9"
     inkscape:cy="8"
     inkscape:window-x="-8"
     inkscape:window-y="-8"
     inkscape:window-maximized="1"
     inkscape:current-layer="WPAINT_HLT"
     inkscape:showpageshadow="0"
     inkscape:pagecheckerboard="true"
     inkscape:deskcolor="#d1d1d1" />
  <g
     id="WPAINT_HLT"
     transform="matrix(100,0,0,100,0,4.9999997e-5)"
     style="stroke-width:0.0114286">
    <path
       style="fill:none;stroke-width:0.000357143"
       d="M 0,8 V 0 h 8 8 v 0.890625 c 0,0.8744839 -0.0012,0.890625 -0.0635,0.890625 -0.193052,0 -0.262253,0.073084 -3.156381,3.3335194 C 11.196072,6.8993025 9.7994825,8.4654406 9.6765812,8.5950759 9.5536803,8.7247116 9.2492547,9.0770862 9.00008,9.3781306 L 8.547035,9.9254841 8.2934094,9.9121722 C 7.7927494,9.8858944 7.2220478,10.071683 6.8379875,10.385976 6.58798,10.590568 6.2815537,11.013857 6.0654594,11.453125 5.9639966,11.659375 5.7538456,12.088281 5.5984572,12.40625 5.2913466,13.034685 5.0270484,13.423216 4.7396303,13.668765 4.2473441,14.089338 3.6724234,14.278166 2.7242017,14.330716 l -0.3851733,0.02135 0.017959,0.144281 c 0.00988,0.07935 0.039881,0.361894 0.066674,0.627865 0.026793,0.265971 0.051414,0.485941 0.054714,0.488821 0.0033,0.0029 0.3997492,0.02264 0.8809992,0.04391 1.0900234,0.04818 2.6332075,0.02556 3.140625,-0.04604 1.2284125,-0.173327 2.0401431,-0.501752 2.6216431,-1.060713 0.4067397,-0.390975 0.674166,-0.887328 0.7633838,-1.416871 l 0.040889,-0.242693 0.2059275,-0.01788 c 0.11326,-0.0098 0.238914,-0.03954 0.27923,-0.06601 0.04032,-0.02647 0.424864,-0.41683 0.854552,-0.867467 0.540894,-0.567265 0.819707,-0.836857 0.90625,-0.876277 0.108648,-0.04949 0.945386,-0.81456 3.460937,-3.1645091 L 16,7.5554609 V 11.77773 16 H 8 0 Z m 4.8549869,2.467708 C 5.09387,10.37833 5.2896019,10.194775 5.4129141,9.9444884 L 5.515625,9.7360169 5.5250584,9.0453881 C 5.5337581,8.4084678 5.5294241,8.3412138 5.4693234,8.1805813 5.4334809,8.0847834 5.3638462,7.9522281 5.3145797,7.8860141 L 5.2250041,7.765625 6.4908238,6.4965363 7.7566437,5.2274475 7.9084034,5.3295741 c 0.2804822,0.1887506 0.3826132,0.2062 1.1446969,0.1955734 L 9.7360256,5.515625 9.9444928,5.4129141 C 10.194775,5.2896013 10.378332,5.0938666 10.467708,4.8549869 10.524501,4.7031931 10.53125,4.6123856 10.53125,4 10.53125,3.1784697 10.50249,3.0609147 10.236413,2.794837 9.9776541,2.5360779 9.8417437,2.5 9.1257219,2.5 H 8.5350381 L 8.5248594,1.9140625 C 8.5126088,1.2088627 8.4699922,1.059666 8.2051631,0.79483697 7.9390853,0.52875919 7.8215303,0.5 7,0.5 6.1784697,0.5 6.0609147,0.52875919 5.7948369,0.79483697 5.5305587,1.0591152 5.5,1.1814333 5.5,1.9749882 5.5,2.5091341 5.51013,2.6672684 5.553076,2.8035066 L 5.6061509,2.9718815 4.2942159,4.2838166 2.982281,5.5957516 2.8465865,5.5478759 C 2.7402373,5.5103537 2.5599377,5.5 2.0128683,5.5 1.1769342,5.5 1.0618059,5.5278678 0.79483697,5.7948369 0.52875919,6.0609147 0.5,6.1784697 0.5,7 0.5,7.8215303 0.52875919,7.9390853 0.79483697,8.2051631 1.059666,8.4699922 1.2088627,8.5126088 1.9140625,8.5248594 L 2.5,8.5350381 v 0.5906838 c 0,0.7160959 0.036065,0.8519187 0.2949469,1.1108011 0.2655363,0.265536 0.3701056,0.291161 1.1960684,0.293099 0.6238447,0.0015 0.7113391,-0.0048 0.8639716,-0.06191 z"
       id="path839"
       inkscape:connector-curvature="0" />
    <path
       style="fill:#fefefe;stroke-width:0.000357143"
       d="M 3.2800006,9.9592894 C 3.1869903,9.9101044 3.1211456,9.8442597 3.0719606,9.7512494 3.003109,9.6210491 3,9.5852691 3,8.92309 V 8.2310103 L 2.8984375,8.1327988 2.796875,8.0345869 2.1240052,8.0251059 C 1.4751012,8.0159628 1.4456808,8.012815 1.2979943,7.9367331 1.1860921,7.8790859 1.1253497,7.8209597 1.0724266,7.7208806 1.0041617,7.5917897 1,7.5503669 1,7 1,6.4507209 1.004269,6.4080075 1.0719606,6.2800006 1.1211456,6.1869903 1.1869904,6.1211456 1.2800007,6.0719606 1.4081482,6.0041944 1.4504615,6 2.0059188,6 2.6627643,6 2.7230436,6.0130941 2.9309712,6.2009444 L 3.0563447,6.3142116 3.1208592,6.2117934 C 3.2056953,6.0771141 6.2284644,3.0625 6.2786719,3.0625 6.2999559,3.0625 6.2678189,3.004611 6.2072559,2.9338566 6.0276991,2.7240843 6,2.5950144 6,1.9680983 6,1.4521189 6.0046981,1.4071963 6.0719606,1.2800007 6.1211456,1.1869904 6.1869903,1.1211456 6.2800006,1.0719606 6.4080075,1.004269 6.4507209,1 7,1 7.5503669,1 7.5917897,1.00416 7.7208806,1.072427 7.8209597,1.12535 7.8790859,1.1860925 7.9367331,1.2979947 c 0.076082,0.1476865 0.07923,0.1771069 0.088373,0.8260109 L 8.0345869,2.796875 8.1327988,2.8984375 8.2310103,3 H 8.92309 c 0.6621791,0 0.6979591,0.00311 0.8281594,0.071961 0.09301,0.049185 0.158855,0.1150297 0.20804,0.20804 C 10.026981,3.4080075 10.03125,3.4507209 10.03125,4 c 0,0.5507678 -0.0041,0.5917144 -0.0726,0.7212084 C 9.904347,4.8238962 9.8443784,4.8802666 9.7207066,4.9448734 9.558155,5.0297914 9.5460566,5.0312384 9.0042441,5.0305634 8.3533153,5.0297544 8.3015369,5.0140419 7.9953187,4.7244231 7.8861747,4.6211956 7.7828125,4.5347962 7.765625,4.5324244 7.7484375,4.5300525 7.0064925,5.2559191 6.1168581,6.1454609 L 4.4993413,7.7628094 4.6481081,7.9171825 c 0.081822,0.084905 0.1746213,0.1817056 0.206221,0.2151119 0.148699,0.1572 0.1755097,0.2898509 0.1762347,0.8719497 6.75e-4,0.5418125 -7.719e-4,0.5539109 -0.08569,0.7164625 C 4.8802666,9.8443784 4.8238963,9.9043475 4.7212084,9.95865 4.5917144,10.027128 4.5507678,10.03125 4,10.03125 c -0.5492791,0 -0.5919925,-0.0043 -0.7199994,-0.071961 z"
       id="path837"
       inkscape:connector-curvature="0" />
    <path
       style="fill:#cbfefe;stroke-width:0.000357143"
       d="M 9.15614,10.960938 C 9.0295731,10.784766 8.9250863,10.616925 8.9239469,10.587958 8.9228063,10.55899 9.1597622,10.248521 9.4505134,9.8980259 L 9.9791519,9.2607622 10.187981,9.4819437 c 0.114855,0.1216497 0.254161,0.27342 0.309569,0.3372675 l 0.100741,0.1160863 -0.571161,0.6729765 c -0.3141387,0.370137 -0.5868453,0.672976 -0.606015,0.672976 -0.01917,0 -0.1384084,-0.144141 -0.264975,-0.320312 z"
       id="path835"
       inkscape:connector-curvature="0" />
    <path
       style="fill:#f0e6d9;stroke-width:0.000357143"
       d="M 6.1862506,14.240539 C 6.0929397,14.191195 6.0267834,14.1249 5.9757566,14.029602 5.8657353,13.824126 5.8912634,13.689251 6.1053841,13.344736 6.2021103,13.189106 6.28125,13.053617 6.28125,13.04365 c 0,-0.01 0.1125,-0.199213 0.25,-0.420547 0.1375,-0.221333 0.25,-0.411266 0.25,-0.422073 0,-0.01081 0.074356,-0.141319 0.1652347,-0.290027 0.090879,-0.148708 0.2265912,-0.393587 0.3015828,-0.544176 0.09809,-0.196973 0.1653575,-0.291728 0.2397338,-0.337694 0.220475,-0.136262 0.4659571,-0.105825 0.6465909,0.08017 0.055353,0.057 0.1964781,0.243509 0.3136112,0.414475 0.2510182,0.366382 0.2833557,0.491154 0.1815878,0.700641 -0.090834,0.186981 -1.8525059,1.973149 -2.0116859,2.039659 -0.1599666,0.06684 -0.2723419,0.06071 -0.4316547,-0.02354 z"
       id="path833"
       inkscape:connector-curvature="0" />
    <path
       style="fill:#fecb98;stroke-width:0.000357143"
       d="M 10.752187,9.1305494 C 10.516935,8.9083291 10.401264,8.7777809 10.413353,8.7481359 10.437107,8.6898825 15.92657,2.6442684 15.968358,2.6303391 15.989218,2.6233857 16,2.9216066 16,3.5055338 v 0.8857418 l -2.405461,2.5309247 c -1.323003,1.3920085 -2.423394,2.5342606 -2.445312,2.5383381 -0.02192,0.00408 -0.200587,-0.1444178 -0.39704,-0.329989 z"
       id="path831"
       inkscape:connector-curvature="0" />
    <path
       style="fill:#6598cb;stroke-width:0.000357143"
       d="M 9.4227259,11.476563 C 9.0646756,10.982422 8.7666409,10.557031 8.7604272,10.53125 8.7520831,10.496631 9.62335,9.4072 9.8452713,9.1747619 9.8729528,9.1457688 9.96875,9.2047094 9.96875,9.2507341 c 0,0.013382 -0.2392584,0.3104884 -0.5316853,0.6602362 -0.2945475,0.3522837 -0.5267053,0.6569377 -0.5205197,0.6830627 0.018112,0.07649 0.4665178,0.687217 0.50457,0.687217 0.01917,0 0.2936103,-0.304882 0.609868,-0.677517 l 0.575014,-0.6775164 0.173564,0.1900114 c 0.09546,0.104506 0.303391,0.330095 0.462069,0.501309 l 0.288506,0.311298 -0.692321,0.723083 C 10.457039,12.049613 10.129347,12.375 10.109611,12.375 c -0.01974,0 -0.3288347,-0.404297 -0.6868851,-0.898437 z"
       id="path829"
       inkscape:connector-curvature="0" />
    <path
       style="fill:#cb9800;stroke-width:0.000357143"
       d="m 3.3979753,15.156064 c -0.2365825,-0.01187 -0.4369125,-0.02834 -0.4451781,-0.0366 -0.00827,-0.0083 -0.024031,-0.08071 -0.035035,-0.160996 L 2.8977547,14.8125 h 0.1706159 c 0.4011969,0 1.0481125,-0.16589 1.4630872,-0.375182 0.3975413,-0.2005 0.8285513,-0.607889 1.14279,-1.080161 0.093698,-0.140819 0.2836672,-0.49324 0.4221544,-0.783158 0.4762365,-0.996985 0.5922172,-1.215736 0.7711156,-1.454403 0.2877991,-0.383949 0.5778509,-0.573508 1.0160422,-0.664019 0.3581469,-0.07398 0.36644,-0.07224 0.36644,0.07668 0,0.0693 0.018981,0.171255 0.042179,0.226562 0.023198,0.05531 0.2903859,0.443101 0.59375,0.861763 0.6282171,0.866981 0.6025468,0.797668 0.5042262,1.36148 -0.2251541,1.291128 -1.3231012,1.98215 -3.452655,2.173018 -0.3905644,0.035 -1.8498791,0.03557 -2.5395247,9.87e-4 z m 3.21993,-0.891989 c 0.15918,-0.06651 1.9208516,-1.852678 2.0116859,-2.039659 0.1017679,-0.209487 0.06943,-0.334259 -0.1815878,-0.700641 C 8.3308703,11.352809 8.1897453,11.166295 8.1343922,11.1093 7.9537584,10.923308 7.7082762,10.892871 7.4878012,11.02913 7.4134252,11.0751 7.3461572,11.169851 7.2480675,11.366824 7.1730755,11.517413 7.0373634,11.762292 6.9464847,11.911 6.8556057,12.059708 6.78125,12.19022 6.78125,12.201027 c 0,0.01081 -0.1125,0.20074 -0.25,0.422073 -0.1375,0.221334 -0.25,0.41058 -0.25,0.420547 0,0.01 -0.07914,0.145456 -0.1758659,0.301086 -0.2141207,0.344515 -0.2396488,0.47939 -0.1296275,0.684866 0.051027,0.0953 0.1171831,0.161593 0.210494,0.210937 0.1593128,0.08425 0.2716881,0.09037 0.4316547,0.02354 z"
       id="path827"
       inkscape:connector-curvature="0" />
    <path
       style="fill:#fe0000;stroke-width:0.000357143"
       d="M 11.092499,9.7029556 C 10.637718,9.2118884 10.265625,8.7894581 10.265625,8.7642219 c 0,-0.025236 1.286719,-1.4951213 2.859375,-3.2664119 l 2.859375,-3.2205278 0.0094,0.1583253 c 0.0081,0.1359427 -0.0016,0.1682527 -0.06878,0.2285465 -0.163299,0.1465899 -5.518648,6.0719241 -5.51872,6.1060951 -8.8e-5,0.040932 0.695429,0.6985009 0.73881,0.6985009 0.02234,0 3.68971,-3.8345069 4.642429,-4.8540038 l 0.209441,-0.2241212 0.0015,1.23451 0.0015,1.2345097 -1.999735,1.8592403 c -1.099853,1.0225819 -2.017995,1.863218 -2.040313,1.86808 -0.02232,0.0049 -0.412673,-0.392942 -0.867454,-0.8840094 z"
       id="path825"
       inkscape:connector-curvature="0" />
    <path
       style="fill:#003265;stroke-width:0.000357143"
       d="m 9.859375,12.830708 c -0.051562,-0.02302 -0.1309216,-0.08223 -0.1763534,-0.13159 -0.142455,-0.154768 -1.3467128,-1.83467 -1.3909291,-1.940302 -0.054427,-0.130025 -0.053804,-0.358699 0.00132,-0.486382 0.040891,-0.09471 1.2802109,-1.5987084 1.4163897,-1.7188877 0.062909,-0.055519 0.063184,-0.05465 0.04943,0.15625 -0.010914,0.1673487 -0.00125,0.2360634 0.045829,0.3257981 l 0.05966,0.1137194 -0.5567991,0.6675306 c -0.3062343,0.3671416 -0.5570477,0.6816526 -0.557358,0.6989126 -9.063e-4,0.05044 1.3074179,1.84272 1.3522899,1.852504 0.02241,0.0049 0.138599,-0.09355 0.25819,-0.21875 0.119591,-0.1252 0.431365,-0.449871 0.692832,-0.721491 l 0.475393,-0.493856 0.09198,0.06801 c 0.0556,0.0411 0.161575,0.07576 0.267904,0.0876 l 0.175922,0.0196 -0.814342,0.848698 c -0.534831,0.557396 -0.84793,0.860407 -0.912202,0.882813 -0.131897,0.04598 -0.3644115,0.04104 -0.479159,-0.01018 z"
       id="path823"
       inkscape:connector-curvature="0" />
    <path
       style="fill:#323232;stroke-width:0.000357143"
       d="M 3.1260784,10.462426 C 2.892368,10.372706 2.6559235,10.133148 2.5673059,9.8962969 2.5071166,9.7354263 2.5,9.6539491 2.5,9.1257219 V 8.5350381 L 1.9140625,8.5248594 C 1.2088627,8.5126088 1.059666,8.4699922 0.79483697,8.2051631 0.52875919,7.9390853 0.5,7.8215303 0.5,7 0.5,6.1784697 0.52875919,6.0609147 0.79483697,5.7948369 1.0618059,5.5278678 1.1769342,5.5 2.0128683,5.5 c 0.5470694,0 0.727369,0.010354 0.8337182,0.047876 L 2.982281,5.5957516 4.2942159,4.2838166 5.6061509,2.9718815 5.5530756,2.8035066 C 5.5101303,2.6672684 5.5,2.5091341 5.5,1.9749882 5.5,1.1814333 5.5305587,1.0591152 5.7948369,0.79483697 6.0609147,0.52875919 6.1784697,0.5 7,0.5 7.8215303,0.5 7.9390853,0.52875919 8.2051631,0.79483697 8.4699922,1.059666 8.5126088,1.2088627 8.5248594,1.9140625 L 8.5350381,2.5 H 9.1257219 C 9.8417437,2.5 9.9776541,2.536078 10.236413,2.794837 10.502491,3.0609147 10.53125,3.1784697 10.53125,4 c 0,0.6123856 -0.0067,0.7031931 -0.06354,0.8549869 -0.08938,0.2388797 -0.272933,0.4346143 -0.5232152,0.5579272 L 9.7360256,5.515625 9.0531003,5.5251475 C 8.2910166,5.5357741 8.1888856,5.5183247 7.9084034,5.3295741 L 7.7566437,5.2274475 6.4908237,6.4965362 5.2250041,7.765625 5.3145797,7.8860141 c 0.049266,0.066214 0.1189012,0.1987693 0.1547437,0.2945672 0.060101,0.1606325 0.064435,0.2278865 0.055735,0.8648068 L 5.515625,9.7360169 5.4129141,9.9444884 C 5.2896019,10.194775 5.09387,10.37833 4.8549869,10.467708 c -0.1526325,0.05711 -0.2401269,0.06338 -0.8639716,0.06191 -0.6275256,-0.0015 -0.7105312,-0.0079 -0.8649369,-0.0672 z M 4.7212084,9.95865 C 4.8238962,9.9043475 4.8802666,9.8443784 4.9448734,9.7207066 5.0297912,9.558155 5.0312384,9.5460566 5.0305637,9.0042441 5.0298387,8.4221453 5.0030281,8.2894944 4.8543291,8.1322944 4.8227294,8.0988881 4.72993,8.0020878 4.6481081,7.9171825 L 4.4993412,7.7628094 6.1168581,6.1454609 C 7.0064925,5.2559191 7.7484375,4.5300528 7.765625,4.5324244 c 0.017188,0.00237 0.1205497,0.088771 0.2296937,0.1919987 0.3062182,0.2896188 0.3579966,0.30533 1.0089254,0.3061406 0.5418125,6.75e-4 0.5539109,-7.718e-4 0.7164625,-0.08569 C 9.8443784,4.8802666 9.9043475,4.8238962 9.95865,4.7212084 10.027128,4.5917144 10.03125,4.5507678 10.03125,4 10.03125,3.4507209 10.02695,3.4080075 9.959289,3.2800006 9.910104,3.1869906 9.8442593,3.1211456 9.751249,3.0719606 9.6210491,3.003109 9.5852691,3 8.92309,3 H 8.2310103 L 8.1327988,2.8984375 8.0345869,2.796875 8.0251059,2.1240052 C 8.0159628,1.4751012 8.012815,1.4456808 7.9367331,1.2979943 7.8790859,1.1860921 7.8209597,1.1253497 7.7208806,1.0724266 7.5917897,1.0041617 7.5503669,1 7,1 6.4507209,1 6.4080075,1.004269 6.2800006,1.0719606 6.1869903,1.1211456 6.1211456,1.1869904 6.0719606,1.2800007 6.0046981,1.4071962 6,1.4521189 6,1.9680983 c 0,0.6269161 0.027699,0.755986 0.2072563,0.9657583 0.060563,0.070754 0.0927,0.1286434 0.071416,0.1286434 -0.050207,0 -3.0729766,3.0146141 -3.1578127,3.1492934 L 3.0563447,6.3142116 2.9309712,6.2009444 C 2.7230436,6.0130941 2.6627643,6 2.0059188,6 1.4504615,6 1.4081482,6.0041944 1.2800007,6.0719606 1.1869904,6.1211456 1.1211456,6.1869903 1.0719606,6.2800006 1.004269,6.4080075 1,6.4507209 1,7 1,7.5503669 1.00416,7.5917897 1.072427,7.7208806 1.12535,7.8209597 1.1860925,7.8790859 1.2979947,7.9367331 c 0.1476865,0.076082 0.1771069,0.07923 0.8260109,0.088373 L 2.796875,8.0345869 2.8984375,8.1327988 3,8.2310103 V 8.92309 c 0,0.6621791 0.00311,0.6979591 0.071961,0.8281594 0.049185,0.09301 0.1150297,0.158855 0.20804,0.20804 C 3.4080075,10.026981 3.4507209,10.03125 4,10.03125 c 0.5507678,0 0.5917144,-0.0041 0.7212084,-0.0726 z"
       id="path821"
       inkscape:connector-curvature="0" />
    <path
       style="fill:#320000;stroke-width:0.000357143"
       d="m 3.09375,15.650152 c -0.3351562,-0.01693 -0.6120746,-0.03338 -0.6153742,-0.03657 -0.0033,-0.0032 -0.027921,-0.223404 -0.054714,-0.489375 -0.026793,-0.265971 -0.056796,-0.548511 -0.066674,-0.627865 l -0.017959,-0.144281 0.3851733,-0.02135 C 3.6724234,14.278166 4.2473441,14.089338 4.7396303,13.668765 5.0270484,13.423216 5.2913466,13.034685 5.5984572,12.40625 5.7538456,12.088281 5.9639966,11.659375 6.0654594,11.453125 6.2815538,11.013857 6.58798,10.590568 6.8379875,10.385976 7.1960437,10.092963 7.7319397,9.90625 8.2148766,9.90625 c 0.3219247,0 0.3363822,0.011938 0.2064637,0.170487 -0.059908,0.07311 -0.1243434,0.177159 -0.1431894,0.23122 -0.02258,0.06477 -0.054986,0.09829 -0.095025,0.09829 -0.1480787,0 -0.553424,0.106278 -0.7123109,0.186762 -0.4973422,0.251931 -0.6615081,0.488549 -1.3744128,1.98099 -0.1384872,0.289918 -0.3284566,0.642339 -0.4221544,0.783158 -0.3142387,0.472272 -0.7452487,0.879661 -1.14279,1.080161 C 4.1164831,14.64661 3.4695675,14.8125 3.0683706,14.8125 H 2.8977547 l 0.020007,0.145968 c 0.011004,0.08028 0.025973,0.151933 0.033264,0.159225 0.060921,0.06092 2.397526,0.09017 2.9864741,0.03738 1.8224491,-0.163343 2.8781772,-0.689704 3.3010116,-1.645808 0.098736,-0.22326 0.1632153,-0.504049 0.1918265,-0.835351 l 0.022787,-0.263857 0.140625,0.176616 c 0.1093128,0.137291 0.270675,0.269329 0.3336578,0.273022 0.00304,1.88e-4 -0.01475,0.117207 -0.039541,0.260062 -0.095412,0.549806 -0.3557985,1.035911 -0.7662238,1.430428 C 8.5405397,15.108769 7.7366906,15.434273 6.5,15.611776 c -0.4397584,0.06312 -2.4646628,0.08593 -3.40625,0.03838 z m 8.607374,-4.600548 C 11.590597,11.001469 9.8480666,9.1393813 9.7904719,9.0078591 9.7391713,8.8907091 9.7406622,8.6446222 9.7934125,8.5224337 9.8172897,8.4671266 11.147038,6.9477587 12.748408,5.1460612 15.674042,1.8544399 15.743388,1.78125 15.936496,1.78125 c 0.05845,0 0.06344,0.019295 0.0627,0.2421875 l -8e-4,0.2421875 L 13.12391,5.5 c -1.58097,1.7789063 -2.870845,3.2516341 -2.866388,3.2727284 0.01174,0.055581 1.653598,1.8210466 1.693399,1.8208886 0.0184,-6.3e-5 0.906969,-0.8121826 1.974601,-1.8046876 1.067631,-0.992505 1.971147,-1.8313431 2.007812,-1.8640853 L 16,6.8653131 v 0.3461635 0.3461631 l -1.858764,1.7289925 c -1.022321,0.9509458 -1.897711,1.7459368 -1.945313,1.7666458 -0.115153,0.0501 -0.375772,0.04816 -0.494799,-0.0037 z"
       id="path819"
       inkscape:connector-curvature="0" />
  </g>
</svg>
