<?xml version="1.0" encoding="UTF-8" standalone="no"?>
<!-- Created with Inkscape (http://www.inkscape.org/) -->

<svg
   version="1.1"
   id="svg2"
   width="1600"
   height="1600"
   viewBox="0 0 1600 1600"
   sodipodi:docname="x.svg"
   inkscape:version="1.2.2 (732a01da63, 2022-12-09)"
   xmlns:inkscape="http://www.inkscape.org/namespaces/inkscape"
   xmlns:sodipodi="http://sodipodi.sourceforge.net/DTD/sodipodi-0.dtd"
   xmlns="http://www.w3.org/2000/svg"
   xmlns:svg="http://www.w3.org/2000/svg"
   xmlns:rdf="http://www.w3.org/1999/02/22-rdf-syntax-ns#"
   xmlns:cc="http://creativecommons.org/ns#"
   xmlns:dc="http://purl.org/dc/elements/1.1/">
  <metadata
     id="metadata8">
    <rdf:RDF>
      <cc:Work
         rdf:about="">
        <dc:format>image/svg+xml</dc:format>
        <dc:type
           rdf:resource="http://purl.org/dc/dcmitype/StillImage" />
      </cc:Work>
    </rdf:RDF>
  </metadata>
  <defs
     id="defs6" />
  <sodipodi:namedview
     pagecolor="#808080"
     bordercolor="#666666"
     borderopacity="1"
     objecttolerance="10"
     gridtolerance="10"
     guidetolerance="10"
     inkscape:pageopacity="0"
     inkscape:pageshadow="2"
     inkscape:window-width="1993"
     inkscape:window-height="1009"
     id="namedview4"
     showgrid="false"
     inkscape:zoom="0.5"
     inkscape:cx="9"
     inkscape:cy="8"
     inkscape:window-x="-8"
     inkscape:window-y="-8"
     inkscape:window-maximized="1"
     inkscape:current-layer="X"
     inkscape:showpageshadow="0"
     inkscape:pagecheckerboard="true"
     inkscape:deskcolor="#d1d1d1" />
  <g
     id="X"
     transform="matrix(100,0,0,100,0,4.9999997e-5)"
     style="stroke-width:0.0114286">
    <path
       style="fill:none;stroke-width:0.000357143"
       d="M 0,8 V 0 h 8 8 v 8 8 H 8 0 Z m 4.6776531,5.404812 c 0.048446,-0.018 0.8145722,-0.758591 1.7051594,-1.648325 L 8,10.14085 9.6171875,11.756488 c 0.8905875,0.889733 1.6567135,1.630323 1.7051595,1.648324 0.122859,0.04565 0.317412,0.04073 0.436469,-0.01104 0.12857,-0.0559 1.602419,-1.536621 1.645952,-1.653622 0.0419,-0.112611 0.04192,-0.305106 3.1e-5,-0.417806 -0.018,-0.04845 -0.758591,-0.814572 -1.648325,-1.7051595 L 10.14085,8 11.756488,6.3828125 c 0.889733,-0.8905872 1.630323,-1.6567131 1.648324,-1.7051594 0.04188,-0.1127003 0.04186,-0.3051947 -3.1e-5,-0.4178062 C 13.361235,4.1428462 11.887386,2.662129 11.758816,2.6062247 11.639759,2.5544567 11.445206,2.5495371 11.322347,2.5951878 11.273901,2.613189 10.507775,3.3537794 9.6171875,4.2435125 L 8,5.8591497 6.3828125,4.2435125 C 5.4922253,3.3537794 4.7260994,2.613189 4.6776531,2.5951878 4.5649528,2.5533117 4.3724584,2.5533322 4.2598469,2.5952315 4.1428462,2.6387647 2.662129,4.1126133 2.6062247,4.241183 2.5544567,4.3602399 2.5495371,4.5547937 2.5951878,4.6776524 2.613189,4.7260987 3.3537794,5.4922246 4.2435125,6.3828118 L 5.8591497,8 4.2435125,9.6171875 C 3.3537794,10.507775 2.613189,11.273901 2.5951878,11.322347 c -0.041876,0.1127 -0.041856,0.305195 4.37e-5,0.417806 0.041508,0.11156 1.5133584,1.595274 1.6391428,1.652356 0.1129969,0.05128 0.3227178,0.0571 0.4432781,0.0123 z"
       id="path823"
       inkscape:connector-curvature="0" />
    <path
       style="fill:#fefefe;stroke-width:0.000357143"
       d="M 3.7499216,12.234297 3.0472392,11.531093 4.8125784,9.7655466 6.5779175,8 4.8124909,6.2343659 3.0470646,4.4687322 3.7578984,3.7578984 4.4687322,3.0470646 6.2343659,4.8124909 8,6.5779175 9.7656341,4.8124909 11.531268,3.0470646 12.242102,3.7578984 12.952935,4.4687322 11.187509,6.2343659 9.4220825,8 11.187509,9.7656341 12.952935,11.531268 12.242102,12.242102 11.531268,12.952935 9.7656341,11.187509 8,9.4220825 6.2420847,11.179791 C 5.2752312,12.146531 4.4770672,12.9375 4.4683869,12.9375 c -0.00868,0 -0.33199,-0.316442 -0.7184653,-0.703203 z"
       id="path821"
       inkscape:connector-curvature="0" />
    <path
       style="fill:#323232;stroke-width:0.000357143"
       d="m 4.234375,13.392509 c -0.1257844,-0.05708 -1.5976342,-1.540796 -1.6391427,-1.652356 -0.0419,-0.112611 -0.041921,-0.305106 -4.38e-5,-0.417806 0.018001,-0.04845 0.7585916,-0.814572 1.6483247,-1.7051595 L 5.8591497,8 4.2435125,6.3828125 C 3.3537794,5.4922253 2.613189,4.7260994 2.5951878,4.6776531 2.5495371,4.5547944 2.5544567,4.3602406 2.6062247,4.2411837 2.662129,4.1126141 4.1428462,2.6387654 4.2598469,2.5952323 c 0.1126115,-0.0419 0.3051059,-0.041921 0.4178062,-4.38e-5 0.048446,0.018001 0.8145722,0.7585916 1.7051594,1.6483247 L 8,5.8591497 9.6171875,4.2435125 C 10.507775,3.3537794 11.273901,2.613189 11.322347,2.5951878 c 0.122859,-0.045651 0.317412,-0.040731 0.436469,0.011037 0.12857,0.055904 1.602419,1.5366215 1.645952,1.6536222 0.0419,0.1126115 0.04192,0.3051059 3.1e-5,0.4178062 -0.018,0.048446 -0.758591,0.8145722 -1.648325,1.7051594 L 10.14085,8 11.756488,9.6171875 c 0.889733,0.8905875 1.630323,1.6567135 1.648324,1.7051595 0.04188,0.1127 0.04186,0.305195 -3.1e-5,0.417806 -0.04353,0.117001 -1.517382,1.597718 -1.645952,1.653622 -0.119056,0.05177 -0.31361,0.05669 -0.436469,0.01104 -0.04845,-0.018 -0.814572,-0.758591 -1.7051594,-1.648324 L 8,10.14085 6.3828125,11.756488 c -0.8905872,0.889733 -1.6567131,1.630323 -1.7051594,1.648324 -0.1205603,0.0448 -0.3302812,0.03898 -0.4432781,-0.0123 z M 6.2420847,11.179791 8,9.4220825 9.7656341,11.187509 11.531268,12.952935 12.242102,12.242102 12.952935,11.531268 11.187509,9.7656341 9.4220825,8 11.187509,6.2343659 12.952935,4.4687322 12.242102,3.7578984 11.531268,3.0470646 9.7656341,4.8124909 8,6.5779175 6.2343659,4.8124909 4.4687322,3.0470646 3.7578984,3.7578984 3.0470646,4.4687322 4.8124909,6.2343659 6.5779175,8 4.8125784,9.7655466 3.0472392,11.531093 3.7499216,12.234297 c 0.3864753,0.386761 0.7097846,0.703203 0.7184653,0.703203 0.00868,0 0.8068443,-0.790969 1.7736978,-1.757709 z"
       id="path819"
       inkscape:connector-curvature="0" />
  </g>
</svg>
