<?xml version="1.0" encoding="UTF-8" standalone="no"?>
<!-- Created with Inkscape (http://www.inkscape.org/) -->

<svg
   version="1.1"
   id="svg2"
   width="1600"
   height="1600"
   viewBox="0 0 1600 1600"
   sodipodi:docname="x_icon.svg"
   inkscape:version="1.2.2 (732a01da63, 2022-12-09)"
   xmlns:inkscape="http://www.inkscape.org/namespaces/inkscape"
   xmlns:sodipodi="http://sodipodi.sourceforge.net/DTD/sodipodi-0.dtd"
   xmlns="http://www.w3.org/2000/svg"
   xmlns:svg="http://www.w3.org/2000/svg"
   xmlns:rdf="http://www.w3.org/1999/02/22-rdf-syntax-ns#"
   xmlns:cc="http://creativecommons.org/ns#"
   xmlns:dc="http://purl.org/dc/elements/1.1/">
  <metadata
     id="metadata8">
    <rdf:RDF>
      <cc:Work
         rdf:about="">
        <dc:format>image/svg+xml</dc:format>
        <dc:type
           rdf:resource="http://purl.org/dc/dcmitype/StillImage" />
      </cc:Work>
    </rdf:RDF>
  </metadata>
  <defs
     id="defs6" />
  <sodipodi:namedview
     pagecolor="#808080"
     bordercolor="#666666"
     borderopacity="1"
     objecttolerance="10"
     gridtolerance="10"
     guidetolerance="10"
     inkscape:pageopacity="0"
     inkscape:pageshadow="2"
     inkscape:window-width="1993"
     inkscape:window-height="1009"
     id="namedview4"
     showgrid="false"
     inkscape:zoom="0.5"
     inkscape:cx="9"
     inkscape:cy="8"
     inkscape:window-x="-8"
     inkscape:window-y="-8"
     inkscape:window-maximized="1"
     inkscape:current-layer="X_ICON"
     inkscape:showpageshadow="0"
     inkscape:pagecheckerboard="true"
     inkscape:deskcolor="#d1d1d1" />
  <g
     id="X_ICON"
     transform="matrix(100,0,0,100,0,4.9999997e-5)"
     style="stroke-width:0.0114286">
    <path
       style="fill:none;stroke-width:0.000357143"
       d="M 0,8 V 0 h 8 8 v 8 8 H 8 0 Z m 5.6986534,6.207007 c 0.056593,-0.02365 0.1440319,-0.09345 0.1943088,-0.155116 0.050277,-0.06167 0.5414128,-0.801086 1.0914128,-1.64315 0.55,-0.842064 1.0090466,-1.531637 1.0201034,-1.532383 0.011057,-7.47e-4 0.4805641,0.705283 1.0433494,1.568955 0.5627853,0.863671 1.0594052,1.609298 1.1035992,1.656947 0.04419,0.04765 0.130155,0.101149 0.191025,0.118889 0.07149,0.02083 0.654774,0.02889 1.647473,0.02274 1.495761,-0.0093 1.539104,-0.01123 1.623069,-0.07395 0.170367,-0.12724 0.215131,-0.220088 0.215131,-0.446217 v -0.20919 l -1.888021,-2.85642 C 10.901693,9.0870853 10.052147,7.7865488 10.052225,7.7680356 10.052287,7.7495222 10.809042,6.58125 11.733868,5.171875 12.658694,3.7625 13.435902,2.5605577 13.460996,2.500892 c 0.09343,-0.2221474 0.01445,-0.4855773 -0.19175,-0.6395861 -0.08383,-0.062609 -0.127964,-0.064701 -1.560569,-0.073963 -0.972321,-0.00629 -1.512875,0.00172 -1.587589,0.023523 -0.06545,0.019098 -0.1644133,0.089096 -0.2343746,0.1657817 C 9.820115,2.0496479 9.3789063,2.69577 8.90625,3.412475 8.4335938,4.1291803 8.0398437,4.7161919 8.03125,4.7169453 8.0226563,4.7176984 7.6152784,4.1125787 7.1259659,3.3722334 6.6366531,2.6318884 6.1839766,1.9788745 6.1200178,1.9210916 6.0560591,1.8633086 5.9571869,1.8075535 5.9003019,1.7971914 5.8434172,1.7868293 5.1334391,1.782519 4.3225731,1.7876131 c -1.432825,0.009 -1.476729,0.011075 -1.5605692,0.073693 C 2.5685518,2.0057908 2.4830024,2.2541356 2.5552699,2.4614424 2.5726808,2.5113872 3.3556944,3.728905 4.2953,5.1670375 L 6.0036737,7.7818241 4.1270506,10.607065 c -1.0321426,1.553883 -1.8907818,2.862482 -1.9080868,2.907998 -0.1004873,0.264301 0.021778,0.58254 0.2654112,0.690823 0.1395799,0.06204 3.0660438,0.06306 3.2142784,0.0011 z"
       id="path823"
       inkscape:connector-curvature="0" />
    <path
       style="fill:#98cbfe;stroke-width:0.000357143"
       d="m 2.6875,13.732337 c 0,-0.0097 0.8861781,-1.352129 1.9692844,-2.983142 L 6.6260691,7.7837172 5.0579847,5.3840462 C 4.1955384,4.0642269 3.3869937,2.8260258 3.2612187,2.6324879 l -0.2286815,-0.3518871 1.3800156,0.00814 1.3800153,0.00814 1.1038716,1.671875 c 0.6071294,0.9195313 1.1143484,1.6749387 1.1271534,1.6786837 0.012805,0.00374 0.5252588,-0.7521146 1.1387863,-1.6796874 L 10.277883,2.28125 h 1.362903 c 1.082174,0 1.358003,0.00805 1.339118,0.039063 C 12.966822,2.3417969 12.162387,3.56875 11.19227,5.046875 10.222153,6.525 9.4281203,7.7488462 9.4277525,7.7665337 c -3.687e-4,0.017687 0.8805805,1.3655832 1.9576645,2.9953243 1.077083,1.629741 1.958333,2.968785 1.958333,2.975654 0,0.0069 -0.636328,0.01194 -1.414062,0.01127 l -1.414063,-0.0012 -0.8275087,-1.272219 C 9.2329863,11.775623 8.6689959,10.910471 8.4348044,10.552784 L 8.0090013,9.9024422 6.7466881,11.82613 5.484375,13.749817 4.0859375,13.749911 C 3.3167969,13.749959 2.6875,13.742052 2.6875,13.732337 Z"
       id="path821"
       inkscape:connector-curvature="0" />
    <path
       style="fill:#323232;stroke-width:0.000357143"
       d="M 2.484375,14.205886 C 2.2407423,14.097603 2.1184765,13.779364 2.2189638,13.515063 2.2362688,13.469547 3.094908,12.160948 4.1270506,10.607065 L 6.0036737,7.7818241 4.2953,5.1670375 C 3.3556944,3.728905 2.5726808,2.5113872 2.5552699,2.4614424 2.4830024,2.2541356 2.5685518,2.0057908 2.7620039,1.8613059 c 0.08384,-0.062618 0.1277442,-0.064692 1.5605692,-0.073693 0.810866,-0.00509 1.5208441,-7.838e-4 1.5777288,0.00958 0.056885,0.010362 0.1557572,0.066117 0.2197159,0.1239002 0.063959,0.057783 0.5166353,0.7107968 1.0059481,1.4511418 C 7.6152784,4.1125787 8.0226563,4.7176991 8.03125,4.7169453 8.0398437,4.7161922 8.4335938,4.1291803 8.90625,3.412475 9.3789063,2.69577 9.820115,2.0496479 9.8867134,1.9766481 9.9566747,1.8999629 10.055635,1.8299644 10.121088,1.8108664 c 0.07471,-0.0218 0.615268,-0.02981 1.587589,-0.023523 1.432605,0.00926 1.476742,0.011354 1.560569,0.073963 0.206204,0.1540088 0.285181,0.4174387 0.19175,0.6395861 -0.02509,0.059666 -0.802302,1.261608 -1.727128,2.670983 -0.924826,1.409375 -1.681565,2.5776472 -1.681643,2.5961606 -6.3e-5,0.018513 0.849468,1.3190497 1.887879,2.8900819 l 1.888021,2.85642 v 0.20919 c 0,0.226129 -0.04476,0.318977 -0.215131,0.446217 -0.08397,0.06271 -0.127308,0.06469 -1.623069,0.07395 -0.992699,0.0061 -1.575983,-0.0019 -1.647473,-0.02274 -0.06087,-0.01774 -0.146831,-0.07124 -0.191025,-0.118889 C 10.107237,14.054616 9.6106131,13.30899 9.0478278,12.445319 8.4850425,11.581647 8.0155353,10.875617 8.0044784,10.876364 7.9934214,10.87711 7.534375,11.566683 6.984375,12.408746 c -0.55,0.842065 -1.0411356,1.581482 -1.0914128,1.643151 -0.1638791,0.201008 -0.1384631,0.198238 -1.8060209,0.196885 -1.1875398,-9.63e-4 -1.5287787,-0.0101 -1.6025663,-0.04289 z M 6.7466881,11.82613 8.0090013,9.9024422 8.4348044,10.552784 c 0.2341915,0.357687 0.7981819,1.222839 1.2533119,1.92256 l 0.8275087,1.272219 1.414063,0.0012 c 0.777734,6.68e-4 1.414062,-0.0044 1.414062,-0.01127 0,-0.0069 -0.88125,-1.345913 -1.958333,-2.975654 C 10.308333,9.1321169 9.4273844,7.7842209 9.4277525,7.7665337 9.4281213,7.7488462 10.222153,6.525 11.19227,5.046875 12.162387,3.56875 12.966822,2.3417969 12.979904,2.3203125 12.998789,2.289296 12.72296,2.28125 11.640786,2.28125 H 10.277883 L 9.1623794,3.9677462 C 8.5488519,4.8953191 8.0363981,5.6511784 8.0235931,5.6474337 8.0107881,5.6436887 7.5035691,4.8882813 6.8964397,3.96875 L 5.7925681,2.296875 4.4125528,2.2887379 3.0325372,2.2806008 3.2612187,2.6324879 c 0.125775,0.1935379 0.9343197,1.431739 1.796766,2.7515584 L 6.6260691,7.7837172 4.6567844,10.749195 C 3.5736781,12.380208 2.6875,13.722622 2.6875,13.732337 c 0,0.0097 0.6292969,0.01762 1.3984375,0.01757 l 1.3984375,-9.3e-5 1.2623131,-1.923688 z"
       id="path819"
       inkscape:connector-curvature="0" />
  </g>
</svg>
