<?xml version="1.0" encoding="UTF-8" standalone="no"?>
<!-- Created with Inkscape (http://www.inkscape.org/) -->

<svg
   version="1.1"
   id="svg2"
   width="1600"
   height="1600"
   viewBox="0 0 1600 1600"
   sodipodi:docname="yen.svg"
   inkscape:version="1.2.2 (732a01da63, 2022-12-09)"
   xmlns:inkscape="http://www.inkscape.org/namespaces/inkscape"
   xmlns:sodipodi="http://sodipodi.sourceforge.net/DTD/sodipodi-0.dtd"
   xmlns="http://www.w3.org/2000/svg"
   xmlns:svg="http://www.w3.org/2000/svg"
   xmlns:rdf="http://www.w3.org/1999/02/22-rdf-syntax-ns#"
   xmlns:cc="http://creativecommons.org/ns#"
   xmlns:dc="http://purl.org/dc/elements/1.1/">
  <metadata
     id="metadata8">
    <rdf:RDF>
      <cc:Work
         rdf:about="">
        <dc:format>image/svg+xml</dc:format>
        <dc:type
           rdf:resource="http://purl.org/dc/dcmitype/StillImage" />
      </cc:Work>
    </rdf:RDF>
  </metadata>
  <defs
     id="defs6" />
  <sodipodi:namedview
     pagecolor="#808080"
     bordercolor="#666666"
     borderopacity="1"
     objecttolerance="10"
     gridtolerance="10"
     guidetolerance="10"
     inkscape:pageopacity="0"
     inkscape:pageshadow="2"
     inkscape:window-width="1993"
     inkscape:window-height="1009"
     id="namedview4"
     showgrid="false"
     inkscape:zoom="0.5"
     inkscape:cx="293"
     inkscape:cy="512"
     inkscape:window-x="-8"
     inkscape:window-y="-8"
     inkscape:window-maximized="1"
     inkscape:current-layer="YEN"
     inkscape:showpageshadow="0"
     inkscape:pagecheckerboard="true"
     inkscape:deskcolor="#d1d1d1" />
  <g
     id="YEN"
     transform="matrix(100,0,0,100,0,4.9999997e-5)"
     style="stroke-width:0.0114286">
    <path
       style="fill:none;stroke-width:0.000357143"
       d="M 0,8 V 0 h 8 8 v 8 8 H 8 0 Z m 8.875,5.4375 V 11.90625 H 10.8125 12.75 V 11.25 10.59375 H 10.8125 8.875 V 9.921875 9.25 H 10.8125 12.75 V 8.53125 7.8125 H 11.152907 C 9.6447153,7.8125 9.5569797,7.80946 9.5767691,7.757813 9.5882947,7.7277344 10.309528,6.4445312 11.179511,4.90625 12.049493,3.3679688 12.851725,1.9476563 12.962248,1.75 13.072771,1.5523437 13.198245,1.3306599 13.241079,1.2573691 l 0.07788,-0.1332558 -0.990608,0.00826 -0.990608,0.00826 L 10.541487,2.625 C 10.103547,3.4414063 9.6134441,4.3554687 9.45237,4.65625 8.3801428,6.6584681 8.0421256,7.2660881 7.9956525,7.2748456 7.9589522,7.2817616 7.8917084,7.1887975 7.7584663,6.9469366 7.6561862,6.7612778 7.3008225,6.1242187 6.9687691,5.53125 6.42831,4.5661184 6.123475,4.0205412 4.8404987,1.7221892 L 4.4848119,1.0850035 3.5783434,1.1076181 c -0.4985576,0.012438 -0.9110577,0.027198 -0.9166669,0.032801 -0.00561,0.0056 0.3053676,0.5634096 0.6910594,1.2395712 C 3.7384281,3.0561518 4.4862812,4.36875 5.0146322,5.296875 5.5429831,6.225 6.0037088,7.0335937 6.0384669,7.09375 6.073225,7.1539063 6.1772269,7.3337006 6.2695819,7.4932931 6.3619369,7.6528856 6.4375,7.789995 6.4375,7.7979806 6.4375,7.8059662 5.7132812,7.8125 4.828125,7.8125 H 3.21875 V 8.53125 9.25 H 5.171875 7.125 V 9.921875 10.59375 H 5.171875 3.21875 V 11.25 11.90625 H 5.171875 7.125 v 1.53125 1.53125 H 8 8.875 Z"
       id="path821"
       inkscape:connector-curvature="0" />
    <path
       style="fill:#fefefe;stroke-width:0.000357143"
       d="M 7.125,13.4375 V 11.90625 H 5.171875 3.21875 V 11.25 10.59375 H 5.171875 7.125 V 9.921875 9.25 H 5.171875 3.21875 V 8.53125 7.8125 H 4.828125 C 5.7132812,7.8125 6.4375,7.80597 6.4375,7.797981 6.4375,7.789991 6.361937,7.652886 6.2695819,7.4932935 6.1772269,7.3337006 6.073225,7.1539063 6.0384669,7.09375 6.0037088,7.0335937 5.5429831,6.225 5.0146322,5.296875 4.4862812,4.36875 3.7384281,3.0561518 3.3527359,2.3799902 2.9670441,1.7038286 2.6560673,1.1460215 2.6616765,1.140419 2.6672865,1.134819 3.0797858,1.120056 3.5783434,1.107618 L 4.4848119,1.0850035 4.8404987,1.7221892 C 6.123475,4.0205412 6.42831,4.5661184 6.9687691,5.53125 7.3008225,6.1242187 7.6561862,6.7612778 7.7584662,6.9469366 7.8917084,7.1887975 7.9589522,7.2817616 7.9956525,7.2748456 8.0421256,7.2660881 8.3801428,6.6584681 9.45237,4.65625 9.6134441,4.3554687 10.103547,3.4414062 10.541487,2.625 l 0.796255,-1.484375 0.990608,-0.00826 0.990608,-0.00826 -0.07788,0.1332558 C 13.198245,1.3306599 13.072771,1.5523437 12.962248,1.75 12.851725,1.9476563 12.049493,3.3679688 11.179511,4.90625 10.309528,6.4445312 9.5882947,7.7277344 9.5767691,7.7578125 9.5569797,7.8094559 9.6447153,7.8125 11.152907,7.8125 H 12.75 V 8.53125 9.25 H 10.8125 8.875 V 9.921875 10.59375 H 10.8125 12.75 V 11.25 11.90625 H 10.8125 8.875 v 1.53125 1.53125 H 8 7.125 Z"
       id="path819"
       inkscape:connector-curvature="0" />
  </g>
</svg>
