<?xml version="1.0" encoding="UTF-8" standalone="no"?>
<!-- Created with Inkscape (http://www.inkscape.org/) -->

<svg
   version="1.1"
   id="svg2"
   width="1600"
   height="1600"
   viewBox="0 0 1600 1600"
   sodipodi:docname="zoom_in.svg"
   inkscape:version="1.2.2 (732a01da63, 2022-12-09)"
   xmlns:inkscape="http://www.inkscape.org/namespaces/inkscape"
   xmlns:sodipodi="http://sodipodi.sourceforge.net/DTD/sodipodi-0.dtd"
   xmlns="http://www.w3.org/2000/svg"
   xmlns:svg="http://www.w3.org/2000/svg"
   xmlns:rdf="http://www.w3.org/1999/02/22-rdf-syntax-ns#"
   xmlns:cc="http://creativecommons.org/ns#"
   xmlns:dc="http://purl.org/dc/elements/1.1/">
  <metadata
     id="metadata8">
    <rdf:RDF>
      <cc:Work
         rdf:about="">
        <dc:format>image/svg+xml</dc:format>
        <dc:type
           rdf:resource="http://purl.org/dc/dcmitype/StillImage" />
      </cc:Work>
    </rdf:RDF>
  </metadata>
  <defs
     id="defs6" />
  <sodipodi:namedview
     pagecolor="#808080"
     bordercolor="#666666"
     borderopacity="1"
     objecttolerance="10"
     gridtolerance="10"
     guidetolerance="10"
     inkscape:pageopacity="0"
     inkscape:pageshadow="2"
     inkscape:window-width="1993"
     inkscape:window-height="1009"
     id="namedview4"
     showgrid="false"
     inkscape:zoom="0.5"
     inkscape:cx="9"
     inkscape:cy="8"
     inkscape:window-x="-8"
     inkscape:window-y="-8"
     inkscape:window-maximized="1"
     inkscape:current-layer="ZOOM_IN"
     inkscape:showpageshadow="0"
     inkscape:pagecheckerboard="true"
     inkscape:deskcolor="#d1d1d1" />
  <g
     id="ZOOM_IN"
     transform="matrix(100,0,0,100,0,4.9999997e-5)"
     style="stroke-width:0.0114286">
    <path
       style="fill:none;stroke-width:0.000357143"
       d="M 0,8 V 0 L 5.0546875,0.00405423 C 8.0673591,0.00647061 10.014691,0.01898802 9.875,0.03503909 7.9982687,0.25068308 6.3496122,1.4338231 5.5257222,3.15625 4.8191003,4.6335156 4.8327572,6.4440644 5.5616066,7.91357 L 5.7197884,8.2324966 5.3097416,8.6433891 4.8996947,9.0542816 4.7182225,9.0732494 C 4.4896463,9.0971403 4.1814931,9.2121753 3.9469844,9.3611562 3.6986413,9.5189259 0.51892588,12.698641 0.36115619,12.946984 c -0.76622744,1.206108 -0.0383494,2.816145 1.36399881,3.017111 0.1451117,0.02079 -0.055376,0.0292 -0.7642175,0.03205 L 0,16 Z m 2.306095,7.964095 c 0.2522624,-0.03615 0.548418,-0.148042 0.7781708,-0.294001 0.248343,-0.15777 3.4280583,-3.337485 3.585828,-3.585828 0.1489809,-0.234509 0.2640159,-0.542662 0.2879068,-0.771238 l 0.018968,-0.181473 0.4148832,-0.414029 0.4148834,-0.414029 0.3052141,0.148478 c 2.1150187,1.028896 4.6599557,0.580161 6.3129567,-1.1131287 0.86932,-0.8905075 1.400452,-1.9988954 1.540055,-3.2138463 0.01605,-0.1396913 0.02857,1.8076409 0.03098,4.820313 L 16,16 9.0546875,15.996143 C 4.7858287,15.993772 2.1851833,15.981422 2.306095,15.964095 Z M 15.958191,4.8603403 C 15.901507,4.1897803 15.606378,3.3203613 15.215302,2.671875 14.766885,1.9283041 14.067644,1.2289152 13.328125,0.78429687 12.678353,0.39363678 11.878515,0.12162095 11.125,0.03503909 10.977103,0.01804506 11.833229,0.00661257 13.445313,0.00405423 L 16,0 v 2.546875 c 0,1.4007813 -0.005,2.546875 -0.01104,2.546875 -0.0061,0 -0.01992,-0.1050344 -0.03077,-0.2334097 z"
       id="path851"
       inkscape:connector-curvature="0" />
    <path
       style="fill:#fefefe;stroke-width:0.000357143"
       d="M 10.171875,9.9801881 C 9.3460541,9.8909359 8.58413,9.6180094 7.9461878,9.1829312 7.6337203,8.9698278 7.0301722,8.3662797 6.8170687,8.0538122 5.8883803,6.6921037 5.7623309,4.9752281 6.4845225,3.5243128 6.7262319,3.0387074 6.9362156,2.7497475 7.3429816,2.3429816 7.7497475,1.9362157 8.0387075,1.726232 8.5243128,1.4845223 c 1.2493991,-0.62188699 2.7019752,-0.62188699 3.9513742,0 0.485606,0.2417097 0.774566,0.4516934 1.181331,0.8584593 0.406766,0.4067659 0.61675,0.6957258 0.858459,1.1813312 0.621888,1.2493991 0.621888,2.7019753 0,3.9513744 -0.09173,0.184284 -0.241372,0.4444403 -0.332546,0.578125 -0.213103,0.3124675 -0.816651,0.9160156 -1.129119,1.129119 -0.524351,0.3576091 -1.199625,0.6323666 -1.813025,0.7376891 -0.292551,0.050232 -0.861782,0.081954 -1.068912,0.059568 z M 10.934541,8.9360478 C 12.064411,8.7870562 13.057522,8.0885953 13.57624,7.078125 13.92167,6.4052219 14.04555,5.65104 13.923598,4.9634081 13.724983,3.8435134 13.059307,2.9274437 12.078125,2.42376 11.405222,2.0783296 10.65104,1.9544495 9.9634081,2.0764019 8.4536072,2.3441671 7.3441672,3.4536072 7.0764019,4.9634081 6.9544497,5.65104 7.07833,6.4052219 7.42376,7.078125 c 0.5466538,1.0648891 1.5726666,1.7525963 2.810615,1.8838763 0.267286,0.028345 0.296657,0.027256 0.700166,-0.025953 z"
       id="path849"
       inkscape:connector-curvature="0" />
    <path
       style="fill:#98cbfe;stroke-width:0.000357143"
       d="M 10.234375,8.9620013 C 8.5966297,8.7883244 7.3615059,7.6441594 7.0764019,6.0365919 6.8244884,4.6161706 7.5969791,3.1038867 8.921875,2.42376 9.5947781,2.0783296 10.34896,1.9544495 11.036592,2.0764019 c 1.509801,0.2677652 2.619241,1.3772053 2.887006,2.8870062 0.121952,0.6876319 -0.0019,1.4418138 -0.347358,2.1147169 -0.518718,1.0104703 -1.511829,1.7089312 -2.641699,1.8579228 -0.403509,0.053209 -0.43288,0.054298 -0.700166,0.025953 z M 11,7 V 6 h 1 1 V 5.5 5 H 12 11 V 4 3 H 10.5 10 V 4 5 H 9 8 V 5.5 6 h 1 1 v 1 1 h 0.5 0.5 z"
       id="path847"
       inkscape:connector-curvature="0" />
    <path
       style="fill:#fecb98;stroke-width:0.000357143"
       d="M 1.359375,14.493696 C 1.2165777,14.444012 1.0731351,14.290224 1.0317629,14.142457 0.95365375,13.863478 0.89601078,13.931602 2.9178249,11.913454 4.4015475,10.432422 4.7892437,10.061555 4.8854972,10.031193 5.2341859,9.9212041 5.6002797,10.282461 5.5006687,10.638236 5.4679853,10.75497 5.2389712,10.995134 3.6145466,12.616188 1.5881168,14.638413 1.6432877,14.592481 1.359375,14.493696 Z"
       id="path845"
       inkscape:connector-curvature="0" />
    <path
       style="fill:#986532;stroke-width:0.000357143"
       d="M 1.75,14.972613 C 1.4827636,14.88475 1.2482393,14.686302 1.1283133,14.446558 c -0.089595,-0.179111 -0.083088,-0.193927 0.035749,-0.08139 0.055859,0.05289 0.1561,0.11359 0.2227571,0.134876 0.2667764,0.08519 0.2060821,0.136482 2.227727,-1.882474 1.6238815,-1.621721 1.8534496,-1.862634 1.8861221,-1.979329 0.047148,-0.168394 9.438e-4,-0.330079 -0.1355059,-0.474173 -0.1125315,-0.118838 -0.097716,-0.125345 0.081395,-0.03575 0.1805369,0.09031 0.3553059,0.263355 0.4542922,0.449812 0.072048,0.135714 0.08295,0.193214 0.08295,0.4375 0,0.245008 -0.01076,0.301385 -0.083498,0.4375 C 5.7850116,11.668866 2.6404581,14.806721 2.4375,14.90855 2.2858529,14.984634 1.8968229,15.020885 1.75,14.972613 Z m -0.6875,-1.23177 c 0,-0.133015 0.2623983,-0.419771 1.7450651,-1.907057 1.176634,-1.1803 1.6553971,-1.640507 1.7658546,-1.697413 0.08335,-0.04294 0.1566144,-0.07301 0.16281,-0.06681 0.0062,0.0062 -0.8178584,0.8403 -1.8312322,1.853565 C 1.8916239,12.936392 1.0625,13.754364 1.0625,13.740843 Z"
       id="path843"
       inkscape:connector-curvature="0" />
    <path
       style="fill:#323232;stroke-width:0.000357143"
       d="M 6.9722422,10.813548 C 6.8488369,9.8512838 6.1799662,9.1824131 5.2177016,9.0590078 L 4.93168,9.0223269 5.3257291,8.6274012 5.7197781,8.2324756 5.5616012,7.9135597 C 4.9309069,6.6419537 4.82985,5.1551631 5.2807287,3.78125 5.5502828,2.959868 5.9559831,2.2953543 6.5750941,1.6611537 8.0513278,0.14893957 10.208985,-0.37881831 12.21875,0.28072881 13.87337,0.8237275 15.176273,2.1266304 15.719271,3.78125 16.378818,5.7910147 15.85106,7.9486722 14.338846,9.4249059 13.704646,10.044017 13.040132,10.449717 12.21875,10.719271 10.855052,11.166798 9.3846247,11.071095 8.11196,10.45198 L 7.8067569,10.303507 7.40784,10.701538 7.0089231,11.09957 Z M 11.240787,9.9206203 c 0.6134,-0.1053225 1.288674,-0.38008 1.813025,-0.737689 C 13.36628,8.9698278 13.969828,8.3662797 14.182931,8.0538122 15.11162,6.6921037 15.237669,4.9752281 14.515477,3.5243128 14.273768,3.0387074 14.063784,2.7497475 13.657018,2.3429816 13.250253,1.9362157 12.961292,1.726232 12.475687,1.4845223 11.226288,0.86263531 9.7737119,0.86263531 8.5243128,1.4845223 8.0387075,1.726232 7.7497475,1.9362157 7.3429816,2.3429816 6.9362156,2.7497475 6.7262319,3.0387074 6.4845225,3.5243128 c -0.6218872,1.2493991 -0.6218872,2.7019753 0,3.9513744 0.091727,0.184284 0.2413728,0.4444403 0.3325463,0.578125 0.2131034,0.3124675 0.8166515,0.9160156 1.129119,1.129119 0.6379422,0.4350782 1.3998663,0.7080047 2.2256872,0.7972569 0.20713,0.022386 0.776361,-0.00934 1.068912,-0.059568 z"
       id="path841"
       inkscape:connector-curvature="0" />
    <path
       style="fill:#320000;stroke-width:0.000357143"
       d="M 1.725155,15.965272 C 0.31858906,15.755286 -0.40529872,14.153451 0.36115619,12.946984 0.51892587,12.698641 3.6986413,9.5189259 3.9469844,9.3611563 4.7322881,8.8622613 5.7555875,8.9713613 6.4077381,9.6235119 7.0599591,10.275733 7.1690672,11.299903 6.6698906,12.084266 6.5397116,12.288818 3.5080106,15.349949 3.2107288,15.577007 2.789387,15.89882 2.2406663,16.042232 1.725155,15.965272 Z M 2.4375,14.90855 c 0.2029581,-0.101829 3.3475116,-3.239684 3.4628012,-3.455425 0.072738,-0.136115 0.083498,-0.192492 0.083498,-0.4375 0,-0.244286 -0.010902,-0.301786 -0.08295,-0.4375 C 5.7513237,10.296468 5.5039891,10.112344 5.1694866,10.033677 4.9860294,9.9905319 4.7956772,10.024854 4.5625,10.143122 c -0.1875634,0.09513 -3.3421923,3.254353 -3.4300101,3.435003 -0.1089042,0.224027 -0.14059652,0.413694 -0.098813,0.591362 0.093998,0.399688 0.3449183,0.681015 0.7163232,0.803126 0.1468229,0.04827 0.5358529,0.01202 0.6875,-0.06406 z"
       id="path839"
       inkscape:connector-curvature="0" />
    <path
       style="fill:#000000;stroke-width:0.000357143"
       d="M 10,7 V 6 H 9 8 V 5.5 5 h 1 1 V 4 3 h 0.5 0.5 v 1 1 h 1 1 V 5.5 6 H 12 11 V 7 8 H 10.5 10 Z"
       id="path837"
       inkscape:connector-curvature="0" />
  </g>
</svg>
