<?xml version="1.0" encoding="UTF-8" standalone="no"?>
<!-- Created with Inkscape (http://www.inkscape.org/) -->

<svg
   version="1.1"
   id="svg2"
   width="1600"
   height="1600"
   viewBox="0 0 1600 1600"
   sodipodi:docname="zoom_reset.svg"
   inkscape:version="1.4 (e7c3feb100, 2024-10-09)"
   xmlns:inkscape="http://www.inkscape.org/namespaces/inkscape"
   xmlns:sodipodi="http://sodipodi.sourceforge.net/DTD/sodipodi-0.dtd"
   xmlns="http://www.w3.org/2000/svg"
   xmlns:svg="http://www.w3.org/2000/svg"
   xmlns:rdf="http://www.w3.org/1999/02/22-rdf-syntax-ns#"
   xmlns:cc="http://creativecommons.org/ns#"
   xmlns:dc="http://purl.org/dc/elements/1.1/">
  <metadata
     id="metadata8">
    <rdf:RDF>
      <cc:Work
         rdf:about="">
        <dc:format>image/svg+xml</dc:format>
        <dc:type
           rdf:resource="http://purl.org/dc/dcmitype/StillImage" />
      </cc:Work>
    </rdf:RDF>
  </metadata>
  <defs
     id="defs6">
    <inkscape:path-effect
       effect="offset"
       id="path-effect10"
       is_visible="true"
       lpeversion="1.3"
       linejoin_type="miter"
       unit="mm"
       offset="-38.8"
       miter_limit="4"
       attempt_force_join="false"
       update_on_knot_move="true" />
    <inkscape:path-effect
       effect="offset"
       id="path-effect8"
       is_visible="true"
       lpeversion="1.3"
       linejoin_type="miter"
       unit="mm"
       offset="-20"
       miter_limit="4"
       attempt_force_join="false"
       update_on_knot_move="true" />
    <inkscape:path-effect
       effect="fillet_chamfer"
       id="path-effect7"
       is_visible="true"
       lpeversion="1"
       nodesatellites_param="F,0,0,1,0,0,0,1 @ F,0,0,1,0,0,0,1 @ F,0,0,1,0,0,0,1 @ F,0,0,1,0,0,0,1 @ F,0,0,1,0,0,0,1 @ F,0,0,1,0,0,0,1 @ F,0,0,1,0,0,0,1"
       radius="0"
       unit="px"
       method="auto"
       mode="F"
       chamfer_steps="1"
       flexible="false"
       use_knot_distance="true"
       apply_no_radius="true"
       apply_with_radius="true"
       only_selected="false"
       hide_knots="false" />
    <inkscape:path-effect
       effect="offset"
       id="path-effect3"
       is_visible="true"
       lpeversion="1.3"
       linejoin_type="miter"
       unit="mm"
       offset="-40.3"
       miter_limit="0"
       attempt_force_join="false"
       update_on_knot_move="true" />
    <inkscape:path-effect
       effect="offset"
       id="path-effect1"
       is_visible="true"
       lpeversion="1.3"
       linejoin_type="miter"
       unit="mm"
       offset="-20"
       miter_limit="0"
       attempt_force_join="false"
       update_on_knot_move="true" />
    <inkscape:path-effect
       effect="simplify"
       id="path-effect69"
       is_visible="true"
       lpeversion="1.3"
       threshold="5"
       steps="1"
       smooth_angles="360"
       helper_size="10"
       simplify_individual_paths="false"
       simplify_just_coalesce="false" />
    <inkscape:path-effect
       effect="sketch"
       id="path-effect68"
       is_visible="true"
       lpeversion="1"
       nbiter_approxstrokes="1.197541"
       parallel_offset="5;1"
       strokelength="100"
       strokelength_rdm="0.3;1"
       strokeoverlap="0.3"
       strokeoverlap_rdm="0.3;1"
       ends_tolerance="0.1;1"
       tremble_size="5;1"
       tremble_frequency="1"
       nbtangents="5"
       tgt_places_rdmness="1;1"
       tgtlength="100"
       tgtlength_rdm="0.3;1"
       tgtscale="10" />
    <inkscape:path-effect
       effect="offset"
       id="path-effect67"
       is_visible="true"
       lpeversion="1.3"
       linejoin_type="bevel"
       unit="mm"
       offset="8"
       miter_limit="4"
       attempt_force_join="false"
       update_on_knot_move="true" />
    <linearGradient
       id="swatch14"
       inkscape:swatch="solid"
       gradientTransform="matrix(0.68635334,0,0,0.68635334,500.91731,0.91729458)">
      <stop
         style="stop-color:#323232;stop-opacity:1;"
         offset="0"
         id="stop14" />
    </linearGradient>
    <linearGradient
       id="swatch13"
       inkscape:swatch="solid">
      <stop
         style="stop-color:#fefefe;stop-opacity:1;"
         offset="0"
         id="stop13" />
    </linearGradient>
    <linearGradient
       id="swatch12"
       inkscape:swatch="solid"
       gradientTransform="translate(-197.56588,160.21111)">
      <stop
         style="stop-color:#cbcbcb;stop-opacity:1;"
         offset="0"
         id="stop12" />
    </linearGradient>
    <linearGradient
       id="swatch11"
       inkscape:swatch="solid">
      <stop
         style="stop-color:#000000;stop-opacity:1;"
         offset="0"
         id="stop11" />
    </linearGradient>
    <linearGradient
       id="swatch10"
       inkscape:swatch="solid">
      <stop
         style="stop-color:#fecb98;stop-opacity:1;"
         offset="0"
         id="stop10" />
    </linearGradient>
    <linearGradient
       id="swatch9"
       inkscape:swatch="solid">
      <stop
         style="stop-color:#320000;stop-opacity:1;"
         offset="0"
         id="stop9" />
    </linearGradient>
    <linearGradient
       id="swatch8"
       inkscape:swatch="solid"
       gradientTransform="matrix(75.904671,0,0,75.904671,36.527272,340.37395)">
      <stop
         style="stop-color:#986532;stop-opacity:1;"
         offset="0"
         id="stop8" />
    </linearGradient>
  </defs>
  <sodipodi:namedview
     pagecolor="#808080"
     bordercolor="#666666"
     borderopacity="1"
     objecttolerance="10"
     gridtolerance="10"
     guidetolerance="10"
     inkscape:pageopacity="0"
     inkscape:pageshadow="2"
     inkscape:window-width="1993"
     inkscape:window-height="1009"
     id="namedview4"
     showgrid="true"
     inkscape:zoom="0.5"
     inkscape:cx="954"
     inkscape:cy="1042"
     inkscape:window-x="-8"
     inkscape:window-y="-8"
     inkscape:window-maximized="1"
     inkscape:current-layer="g42"
     inkscape:showpageshadow="0"
     inkscape:pagecheckerboard="true"
     inkscape:deskcolor="#d1d1d1">
    <inkscape:grid
       id="grid1"
       units="px"
       originx="0"
       originy="0"
       spacingx="100"
       spacingy="100"
       empcolor="#0099e5"
       empopacity="0.30196078"
       color="#0099e5"
       opacity="0.14901961"
       empspacing="5"
       enabled="true"
       visible="true" />
  </sodipodi:namedview>
  <g
     id="g42"
     inkscape:label="ZOOM_RESET"
     transform="translate(1.7969056)">
    <g
       id="FILE_REFRESH"
       transform="matrix(101.89232,0,0,117.02346,231.14157,-385.11318)"
       style="display:none;stroke-width:0.0114286"
       inkscape:label="REFRESH">
      <path
         style="display:inline;opacity:1;fill:#fefefe;fill-opacity:1;stroke:none;stroke-width:0.000163476;stroke-dasharray:none"
         d="M 5.0823808,10.735 C 4.9567973,10.688951 4.8343769,10.559542 4.8007341,10.437274 4.788379,10.392373 4.7849764,10.10246 4.7880238,9.3542977 l 0.00416,-1.0216604 0.033284,-0.067557 C 4.8679479,8.1788542 4.9550082,8.0918144 5.041255,8.0493428 L 5.108828,8.0160668 H 6.1595194 7.210211 l 0.067574,0.033276 c 0.1330209,0.065505 0.2376286,0.2070549 0.2528601,0.3421563 l 0.00715,0.06345 H 6.3844873 5.2311727 v 1.1511668 1.1511671 l -0.046777,-9.99e-4 c -0.025727,-5.53e-4 -0.071634,-0.01013 -0.1020146,-0.02127 z M 7.9370632,10.25892 C 7.9172732,10.25602 7.8427892,10.2466 7.7715433,10.2379 7.5855755,10.215182 7.2359757,10.123155 7.0364444,10.044396 6.5766681,9.8629135 6.1391002,9.5845476 5.7960993,9.255331 L 5.6917498,9.1551744 V 9.0352952 8.9154155 h 0.31365 0.3136501 l 0.064167,0.066065 c 0.035292,0.036336 0.1289358,0.1184343 0.2080974,0.1824405 0.3720493,0.300822 0.7689203,0.4970388 1.1910376,0.5888596 0.2104761,0.045785 0.6417434,0.045646 0.8504766,-2.749e-4 0.4124393,-0.090732 0.8369104,-0.3033606 1.2019163,-0.6020694 0.066078,-0.054077 0.1276085,-0.102202 0.1367339,-0.1069456 0.00913,-0.00474 0.036021,-0.019667 0.059771,-0.033162 0.115834,-0.065823 0.143831,-0.07333 0.273467,-0.07333 0.14786,0 0.224112,0.028107 0.314598,0.1159645 0.08191,0.079536 0.08615,0.095455 0.04113,0.1548996 -0.06191,0.081752 -0.336703,0.3025238 -0.568084,0.4564062 -0.5105213,0.339525 -1.0150854,0.528927 -1.5682131,0.58867 -0.1297967,0.01402 -0.504956,0.01784 -0.5870834,0.006 z M 8.4582597,7.4642032 C 8.4717217,7.3241347 8.5750905,7.1811851 8.7114823,7.1140197 l 0.067574,-0.033276 0.7592329,-0.00396 0.7592318,-0.00396 V 6.9533007 6.8337895 L 10.193171,6.7336334 C 9.7534351,6.3115685 9.1650524,5.978348 8.5968809,5.8296014 8.3255423,5.7585655 8.1661389,5.7349224 7.8937556,5.7253132 7.188796,5.7004434 6.54486,5.8937355 5.8969132,6.3247113 5.6671226,6.4775543 5.3792424,6.7092693 5.3279037,6.7827076 c -0.01758,0.025147 -0.036212,0.045832 -0.041404,0.045969 -0.020663,5.442e-4 -0.055327,-0.1395123 -0.055327,-0.2235441 0,-0.1782124 0.05669,-0.2684705 0.2920103,-0.4649228 0.4963644,-0.4143793 1.0891614,-0.7094544 1.64928,-0.8209582 0.3296854,-0.065631 0.7837427,-0.075249 1.0956398,-0.023208 0.5273143,0.087983 1.0770863,0.320727 1.5256617,0.6458813 0.1251623,0.090726 0.3609035,0.2878012 0.4317915,0.360971 l 0.06477,0.066854 0.0072,-0.407151 c 0.0069,-0.3888227 0.0087,-0.4101922 0.04048,-0.4747083 0.06719,-0.136359 0.210168,-0.239703 0.350269,-0.2531619 l 0.06983,-0.00671 V 6.3810179 7.5340154 H 9.6048239 8.4515499 Z"
         id="path823"
         inkscape:connector-curvature="0" />
      <path
         style="display:inline;fill:#cbcbcb;fill-opacity:1;stroke:none;stroke-width:0.000164472"
         d="M 5.2311727,9.6079463 V 8.4549487 h 1.1532739 1.1532741 l -0.00671,0.069812 C 7.5175489,8.6648294 7.4141801,8.807779 7.2777884,8.8749444 l -0.067574,0.033276 -0.7592326,0.00396 -0.7592326,0.00396 v 0.1195115 0.1195108 l 0.1043495,0.1001566 c 0.4397362,0.4220648 1.0281191,0.7552847 1.5962905,0.9040317 0.2713385,0.07103 0.4307421,0.09468 0.7031253,0.104287 0.7049595,0.02488 1.3488957,-0.168421 1.9968435,-0.5993967 0.22979,-0.1528432 0.517671,-0.3845582 0.569009,-0.4579962 0.01758,-0.025146 0.03621,-0.045834 0.04141,-0.045968 0.02066,-5.453e-4 0.05532,0.1395108 0.05532,0.2235426 0,0.1829633 -0.05335,0.2645682 -0.310081,0.4743393 -0.5574568,0.455487 -1.1392983,0.730839 -1.7627174,0.834196 -0.1953681,0.03239 -0.5498136,0.04328 -0.7554337,0.02322 C 7.1647618,10.640921 6.4192471,10.291201 5.7966152,9.7148782 l -0.103594,-0.09589 -0.00423,0.4072648 c -0.00407,0.392137 -0.00547,0.409773 -0.037519,0.474822 -0.067181,0.136358 -0.2101654,0.239702 -0.3502674,0.253161 l -0.06983,0.0067 z M 8.7526045,7.9579547 C 8.5950837,7.8997827 8.4552124,7.7198452 8.4552124,7.5753749 V 7.5340154 H 9.6066552 10.758098 V 6.3809772 5.2279392 l 0.06346,0.00715 c 0.135134,0.015229 0.276717,0.1198106 0.342238,0.2527995 l 0.03329,0.067557 v 1.0504396 1.0504396 l -0.03329,0.067557 c -0.04248,0.086226 -0.129542,0.1732657 -0.215789,0.2157375 l -0.06757,0.033276 -1.0362987,0.00273 C 8.9803463,7.9778985 8.7986469,7.9749561 8.7526045,7.9579529 Z M 9.6060537,7.0074834 C 9.5707615,6.9711475 9.4771179,6.8890491 9.3979562,6.8250426 9.0259071,6.5242205 8.6290359,6.3280041 8.2069186,6.2361833 7.9964426,6.1903995 7.5651752,6.1905386 7.356442,6.2364581 6.9440029,6.3271902 6.5195316,6.5398183 6.1545256,6.8385276 6.0884476,6.8926033 6.0269172,6.9407294 6.0177918,6.9454732 c -0.00913,0.00474 -0.036022,0.019667 -0.059771,0.033161 -0.1158346,0.065823 -0.1438323,0.07333 -0.2734675,0.07333 -0.1478615,0 -0.2241132,-0.028107 -0.3145982,-0.1159641 C 5.2880399,6.8564646 5.2838129,6.8405443 5.328829,6.7811005 5.3907391,6.6993487 5.6655318,6.4785766 5.8969125,6.3246943 6.5449534,5.8937076 7.1888124,5.700444 7.8937549,5.7253133 c 0.2723833,0.00961 0.4317867,0.033252 0.7031253,0.1042882 0.5681715,0.1487466 1.1565542,0.4819671 1.5962908,0.904032 l 0.10435,0.1001561 V 6.9536694 7.073549 H 9.983871 9.6702208 Z"
         id="path821"
         inkscape:connector-curvature="0" />
      <path
         style="display:inline;fill:#000000;fill-opacity:1;stroke:none;stroke-width:0.000164472"
         d="M 4.9902999,10.952679 C 4.8091458,10.88539 4.64554,10.71844 4.5849395,10.539036 c -0.029647,-0.08777 -0.03024,-0.110439 -0.03024,-1.1559592 0,-1.0455209 5.927e-4,-1.0681915 0.030239,-1.1559581 0.061825,-0.1830301 0.2352746,-0.356438 0.4183485,-0.4182482 0.087787,-0.02964 0.1104639,-0.030233 1.1562354,-0.030233 1.0457718,0 1.0684478,5.941e-4 1.1562353,0.030233 0.1830741,0.06181 0.3565236,0.2352181 0.4183486,0.4182482 0.042298,0.1252231 0.042298,0.3448265 0,0.4700496 -0.061825,0.1830302 -0.2352745,0.356438 -0.4183486,0.4182478 -0.064326,0.02172 -0.126252,0.030335 -0.2198845,0.030603 l -0.1303408,3.685e-4 0.079161,0.051124 c 0.1141287,0.073704 0.4058677,0.2126276 0.5382426,0.2563032 0.2280777,0.075253 0.3859446,0.1003151 0.6275948,0.099635 0.2401104,-6.906e-4 0.3933124,-0.025238 0.6155332,-0.098683 0.2627122,-0.086828 0.624226,-0.2954031 0.8813423,-0.508491 0.1281123,-0.106174 0.2421672,-0.1732514 0.3728747,-0.219292 0.112138,-0.0395 0.338278,-0.038111 0.459518,0.00282 0.183074,0.06181 0.356523,0.2352178 0.418348,0.4182483 0.02285,0.067663 0.03024,0.125182 0.03024,0.2355659 0,0.3105876 -0.0944,0.4436575 -0.568525,0.801393 -0.5628585,0.42469 -1.2220986,0.695407 -1.8474312,0.758651 -0.191607,0.01938 -0.5541361,0.01933 -0.7330871,-1.02e-4 C 7.2435999,10.87888 6.6091694,10.630738 6.0870747,10.258196 L 5.9220384,10.140432 v 0.15454 c 0,0.119017 -0.00695,0.175119 -0.03024,0.244064 -0.061825,0.183029 -0.2352745,0.356437 -0.4183484,0.418246 -0.1299171,0.04386 -0.3585362,0.04169 -0.4831507,-0.0046 z M 5.43548,10.716665 c 0.08615,-0.04224 0.1732584,-0.129265 0.2157892,-0.215591 0.03205,-0.06505 0.033441,-0.08267 0.03752,-0.475205 l 0.00423,-0.4076474 0.098649,0.093039 c 0.5974293,0.5634494 1.3554953,0.9218284 2.1238001,1.0040354 0.192356,0.02058 0.577285,0.0092 0.7700273,-0.02271 0.60348,-0.09999 1.1772881,-0.365091 1.7127704,-0.7912943 0.306514,-0.2439618 0.35263,-0.3117333 0.35263,-0.5182199 0,-0.1512872 -0.02929,-0.2273563 -0.124034,-0.3220725 -0.09474,-0.094716 -0.170827,-0.1240046 -0.322151,-0.1240046 -0.129634,0 -0.157632,0.00751 -0.273467,0.07333 -0.02374,0.013497 -0.050645,0.02842 -0.059771,0.033162 -0.00913,0.00474 -0.070656,0.05287 -0.1367339,0.1069456 C 9.4697365,9.4491427 9.0452654,9.6617711 8.6328261,9.7525028 8.4240928,9.7984201 7.9928256,9.7985619 7.7823495,9.7527777 7.2938334,9.6465154 6.7989064,9.377886 6.413601,9.0098682 l -0.091358,-0.087258 0.4439864,-0.0072 c 0.4274211,-0.00693 0.4465076,-0.00843 0.5115598,-0.040471 0.086246,-0.042471 0.1733072,-0.1295114 0.2157891,-0.2157374 0.047915,-0.097255 0.047915,-0.296872 0,-0.3941269 C 7.4510956,8.178854 7.3640352,8.0918143 7.2777884,8.0493426 L 7.210215,8.0160664 H 6.1595234 5.108832 L 5.041259,8.0493424 C 4.9550118,8.0918141 4.8679513,8.1788538 4.8254694,8.2650799 l -0.033284,0.067557 -0.00416,1.0216605 c -0.00305,0.7481626 3.552e-4,1.0380756 0.01271,1.0829766 0.033529,0.121853 0.1547357,0.250281 0.2816467,0.298426 0.084912,0.03221 0.2687875,0.0223 0.3530992,-0.01903 z M 8.6605236,8.1754898 C 8.4793696,8.1081993 8.3157637,7.94125 8.2551633,7.7618454 c -0.042298,-0.1252231 -0.042298,-0.3448265 0,-0.4700496 0.061825,-0.1830301 0.2352745,-0.3564381 0.4183486,-0.4182483 0.064326,-0.021718 0.126252,-0.030335 0.2198845,-0.030601 L 9.0237372,6.8425783 8.9445761,6.7914543 C 8.8304485,6.7177497 8.5387095,6.5788272 8.4063345,6.5351511 8.1782568,6.4598986 8.02039,6.4348363 7.7787399,6.4355164 7.5386293,6.4361927 7.3854274,6.4607537 7.1632065,6.5341986 6.9004945,6.621026 6.5389806,6.8296017 6.2818642,7.0426897 6.0629209,7.2241417 5.90508,7.2893925 5.6850949,7.2893925 c -0.1793861,0 -0.2870344,-0.0324 -0.411151,-0.1237473 C 5.0881272,7.0288875 5.0008842,6.8500439 5.0008842,6.6058873 c 0,-0.2723162 0.071871,-0.3983497 0.3689796,-0.6470478 0.6247301,-0.5229373 1.3416263,-0.8421101 2.0549093,-0.9148762 0.2432596,-0.024816 0.7158922,-0.010892 0.9296881,0.02739 0.5646514,0.1011054 1.1414892,0.3512897 1.6012252,0.6944785 l 0.1115456,0.083268 v -0.154824 c 0,-0.1193048 0.0069,-0.175362 0.03024,-0.2443464 0.06182,-0.1830302 0.235274,-0.3564379 0.418348,-0.4182481 0.125254,-0.042288 0.344909,-0.042288 0.470162,0 0.183074,0.061811 0.356524,0.2352179 0.418349,0.4182481 0.02964,0.087766 0.03024,0.1104373 0.03024,1.1559583 0,1.0455209 -5.99e-4,1.0681916 -0.03024,1.1559581 -0.06182,0.1830301 -0.235275,0.3564381 -0.418349,0.4182483 -0.08789,0.029674 -0.109342,0.030219 -1.1626277,0.029482 L 8.7502697,8.2088264 8.6605236,8.17549 Z M 10.948012,7.9396215 c 0.08624,-0.042472 0.173307,-0.1295113 0.215789,-0.2157375 l 0.03329,-0.067557 V 6.6058873 5.5554477 l -0.03329,-0.067557 c -0.04248,-0.086226 -0.129542,-0.1732656 -0.215789,-0.2157374 -0.09728,-0.047904 -0.296943,-0.047904 -0.394221,0 -0.08625,0.042471 -0.173308,0.1295114 -0.21579,0.2157374 -0.03179,0.064516 -0.03361,0.085885 -0.04048,0.4747083 l -0.0072,0.407151 -0.06477,-0.066854 C 10.154668,6.2297261 9.9189269,6.0326503 9.7937646,5.9419249 9.3451892,5.6167706 8.7954172,5.3840271 8.2681029,5.2960436 7.9562058,5.2440029 7.5021485,5.2536209 7.1724631,5.319252 6.6141615,5.4303942 6.0215082,5.724892 5.5262299,6.1372888 5.2777662,6.344174 5.2232686,6.4363237 5.2335634,6.632157 c 0.00647,0.1231404 0.0453,0.2122838 0.12884,0.295803 0.094739,0.094716 0.1708264,0.1240044 0.32215,0.1240044 0.1296352,0 0.1576329,-0.00751 0.2734675,-0.07333 0.023749,-0.013495 0.050645,-0.028418 0.059771,-0.033161 0.00913,-0.00474 0.070656,-0.05287 0.1367338,-0.1069456 C 6.5195316,6.5398182 6.9440029,6.3271901 7.356442,6.236458 7.5651752,6.1905388 7.9964426,6.1903996 8.2069186,6.2361831 8.6954389,6.3424482 9.1903662,6.6110778 9.5756712,6.9790956 l 0.091357,0.087258 -0.4439866,0.0072 c -0.4274209,0.00693 -0.4465073,0.00843 -0.5115595,0.040471 -0.08652,0.042606 -0.1735479,0.1297765 -0.2153852,0.2157375 -0.039791,0.081758 -0.052086,0.2351775 -0.026241,0.3274623 0.03513,0.1254442 0.1558917,0.253887 0.282749,0.3007352 0.046042,0.017003 0.2277418,0.019945 1.0915358,0.017671 l 1.0362993,-0.00273 0.06757,-0.033276 z"
         id="path70"
         inkscape:connector-curvature="0" />
      <path
         style="display:inline;fill:#323232;fill-opacity:1;stroke:none;stroke-width:0.000164472"
         d="M 4.9902999,10.952679 C 4.8091458,10.88539 4.64554,10.71844 4.5849395,10.539036 c -0.029647,-0.08777 -0.03024,-0.110439 -0.03024,-1.1559592 0,-1.0455209 5.927e-4,-1.0681915 0.030239,-1.1559581 0.061825,-0.1830301 0.2352746,-0.356438 0.4183485,-0.4182482 0.087787,-0.02964 0.1104639,-0.030233 1.1562354,-0.030233 1.0457718,0 1.0684478,5.941e-4 1.1562353,0.030233 0.1830741,0.06181 0.3565236,0.2352181 0.4183486,0.4182482 0.042298,0.1252231 0.042298,0.3448265 0,0.4700496 -0.061825,0.1830302 -0.2352745,0.356438 -0.4183486,0.4182478 -0.064326,0.02172 -0.126252,0.030335 -0.2198845,0.030603 l -0.1303408,3.685e-4 0.079161,0.051124 c 0.1141287,0.073704 0.4058677,0.2126276 0.5382426,0.2563032 0.2280777,0.075253 0.3859446,0.1003151 0.6275948,0.099635 0.2401104,-6.906e-4 0.3933124,-0.025238 0.6155332,-0.098683 0.2627122,-0.086828 0.624226,-0.2954031 0.8813423,-0.508491 0.1281123,-0.106174 0.2421672,-0.1732514 0.3728747,-0.219292 0.112138,-0.0395 0.338278,-0.038111 0.459518,0.00282 0.183074,0.06181 0.356523,0.2352178 0.418348,0.4182483 0.02285,0.067663 0.03024,0.125182 0.03024,0.2355659 0,0.3105876 -0.0944,0.4436575 -0.568525,0.801393 -0.5628585,0.42469 -1.2220986,0.695407 -1.8474312,0.758651 -0.191607,0.01938 -0.5541361,0.01933 -0.7330871,-1.02e-4 C 7.2435999,10.87888 6.6091694,10.630738 6.0870747,10.258196 L 5.9220384,10.140432 v 0.15454 c 0,0.119017 -0.00695,0.175119 -0.03024,0.244064 -0.061825,0.183029 -0.2352745,0.356437 -0.4183484,0.418246 -0.1299171,0.04386 -0.3585362,0.04169 -0.4831507,-0.0046 z M 5.43548,10.716665 c 0.08615,-0.04224 0.1732584,-0.129265 0.2157892,-0.215591 0.03205,-0.06505 0.033441,-0.08267 0.03752,-0.475205 l 0.00423,-0.4076474 0.098649,0.093039 c 0.5974293,0.5634494 1.3554953,0.9218284 2.1238001,1.0040354 0.192356,0.02058 0.577285,0.0092 0.7700273,-0.02271 0.60348,-0.09999 1.1772881,-0.365091 1.7127704,-0.7912943 0.306514,-0.2439618 0.35263,-0.3117333 0.35263,-0.5182199 0,-0.1512872 -0.02929,-0.2273563 -0.124034,-0.3220725 -0.09474,-0.094716 -0.170827,-0.1240046 -0.322151,-0.1240046 -0.129634,0 -0.157632,0.00751 -0.273467,0.07333 -0.02374,0.013497 -0.050645,0.02842 -0.059771,0.033162 -0.00913,0.00474 -0.070656,0.05287 -0.1367339,0.1069456 C 9.4697365,9.4491427 9.0452654,9.6617711 8.6328261,9.7525028 8.4240928,9.7984201 7.9928256,9.7985619 7.7823495,9.7527777 7.2938334,9.6465154 6.7989064,9.377886 6.413601,9.0098682 l -0.091358,-0.087258 0.4439864,-0.0072 c 0.4274211,-0.00693 0.4465076,-0.00843 0.5115598,-0.040471 0.086246,-0.042471 0.1733072,-0.1295114 0.2157891,-0.2157374 0.047915,-0.097255 0.047915,-0.296872 0,-0.3941269 C 7.4510956,8.178854 7.3640352,8.0918143 7.2777884,8.0493426 L 7.210215,8.0160664 H 6.1595234 5.108832 L 5.041259,8.0493424 C 4.9550118,8.0918141 4.8679513,8.1788538 4.8254694,8.2650799 l -0.033284,0.067557 -0.00416,1.0216605 c -0.00305,0.7481626 3.552e-4,1.0380756 0.01271,1.0829766 0.033529,0.121853 0.1547357,0.250281 0.2816467,0.298426 0.084912,0.03221 0.2687875,0.0223 0.3530992,-0.01903 z M 8.6605236,8.1754898 C 8.4793696,8.1081993 8.3157637,7.94125 8.2551633,7.7618454 c -0.042298,-0.1252231 -0.042298,-0.3448265 0,-0.4700496 0.061825,-0.1830301 0.2352745,-0.3564381 0.4183486,-0.4182483 0.064326,-0.021718 0.126252,-0.030335 0.2198845,-0.030601 L 9.0237372,6.8425783 8.9445761,6.7914543 C 8.8304485,6.7177497 8.5387095,6.5788272 8.4063345,6.5351511 8.1782568,6.4598986 8.02039,6.4348363 7.7787399,6.4355164 7.5386293,6.4361927 7.3854274,6.4607537 7.1632065,6.5341986 6.9004945,6.621026 6.5389806,6.8296017 6.2818642,7.0426897 6.0629209,7.2241417 5.90508,7.2893925 5.6850949,7.2893925 c -0.1793861,0 -0.2870344,-0.0324 -0.411151,-0.1237473 C 5.0881272,7.0288875 5.0008842,6.8500439 5.0008842,6.6058873 c 0,-0.2723162 0.071871,-0.3983497 0.3689796,-0.6470478 0.6247301,-0.5229373 1.3416263,-0.8421101 2.0549093,-0.9148762 0.2432596,-0.024816 0.7158922,-0.010892 0.9296881,0.02739 0.5646514,0.1011054 1.1414892,0.3512897 1.6012252,0.6944785 l 0.1115456,0.083268 v -0.154824 c 0,-0.1193048 0.0069,-0.175362 0.03024,-0.2443464 0.06182,-0.1830302 0.235274,-0.3564379 0.418348,-0.4182481 0.125254,-0.042288 0.344909,-0.042288 0.470162,0 0.183074,0.061811 0.356524,0.2352179 0.418349,0.4182481 0.02964,0.087766 0.03024,0.1104373 0.03024,1.1559583 0,1.0455209 -5.99e-4,1.0681916 -0.03024,1.1559581 -0.06182,0.1830301 -0.235275,0.3564381 -0.418349,0.4182483 -0.08789,0.029674 -0.109342,0.030219 -1.1626277,0.029482 L 8.7502697,8.2088264 8.6605236,8.17549 Z M 10.948012,7.9396215 c 0.08624,-0.042472 0.173307,-0.1295113 0.215789,-0.2157375 l 0.03329,-0.067557 V 6.6058873 5.5554477 l -0.03329,-0.067557 c -0.04248,-0.086226 -0.129542,-0.1732656 -0.215789,-0.2157374 -0.09728,-0.047904 -0.296943,-0.047904 -0.394221,0 -0.08625,0.042471 -0.173308,0.1295114 -0.21579,0.2157374 -0.03179,0.064516 -0.03361,0.085885 -0.04048,0.4747083 l -0.0072,0.407151 -0.06477,-0.066854 C 10.154668,6.2297261 9.9189269,6.0326503 9.7937646,5.9419249 9.3451892,5.6167706 8.7954172,5.3840271 8.2681029,5.2960436 7.9562058,5.2440029 7.5021485,5.2536209 7.1724631,5.319252 6.6141615,5.4303942 6.0215082,5.724892 5.5262299,6.1372888 5.2777662,6.344174 5.2232686,6.4363237 5.2335634,6.632157 c 0.00647,0.1231404 0.0453,0.2122838 0.12884,0.295803 0.094739,0.094716 0.1708264,0.1240044 0.32215,0.1240044 0.1296352,0 0.1576329,-0.00751 0.2734675,-0.07333 0.023749,-0.013495 0.050645,-0.028418 0.059771,-0.033161 0.00913,-0.00474 0.070656,-0.05287 0.1367338,-0.1069456 C 6.5195316,6.5398182 6.9440029,6.3271901 7.356442,6.236458 7.5651752,6.1905388 7.9964426,6.1903996 8.2069186,6.2361831 8.6954389,6.3424482 9.1903662,6.6110778 9.5756712,6.9790956 l 0.091357,0.087258 -0.4439866,0.0072 c -0.4274209,0.00693 -0.4465073,0.00843 -0.5115595,0.040471 -0.08652,0.042606 -0.1735479,0.1297765 -0.2153852,0.2157375 -0.039791,0.081758 -0.052086,0.2351775 -0.026241,0.3274623 0.03513,0.1254442 0.1558917,0.253887 0.282749,0.3007352 0.046042,0.017003 0.2277418,0.019945 1.0915358,0.017671 l 1.0362993,-0.00273 0.06757,-0.033276 z"
         id="path819"
         inkscape:connector-curvature="0" />
    </g>
    <g
       id="g19"
       transform="matrix(232.56248,0,0,267.09831,-1060.9491,-1335.4823)"
       style="display:inline;stroke-width:0.0114286"
       inkscape:label="REFRESH">
      <path
         style="display:inline;opacity:1;fill:#fefefe;fill-opacity:1;stroke:none;stroke-width:0.000163476;stroke-dasharray:none"
         d="M 5.0823808,10.735 C 4.9567973,10.688951 4.8343769,10.559542 4.8007341,10.437274 4.788379,10.392373 4.7849764,10.10246 4.7880238,9.3542977 l 0.00416,-1.0216604 0.033284,-0.067557 C 4.8679479,8.1788542 4.9550082,8.0918144 5.041255,8.0493428 L 5.108828,8.0160668 H 6.1595194 7.210211 l 0.067574,0.033276 c 0.1330209,0.065505 0.2376286,0.2070549 0.2528601,0.3421563 l 0.00715,0.06345 H 6.3844873 5.2311727 v 1.1511668 1.1511671 l -0.046777,-9.99e-4 c -0.025727,-5.53e-4 -0.071634,-0.01013 -0.1020146,-0.02127 z M 7.9370632,10.25892 C 7.9172732,10.25602 7.8427892,10.2466 7.7715433,10.2379 7.5855755,10.215182 7.2359757,10.123155 7.0364444,10.044396 6.5766681,9.8629135 6.1391002,9.5845476 5.7960993,9.255331 L 5.6917498,9.1551744 V 9.0352952 8.9154155 h 0.31365 0.3136501 l 0.064167,0.066065 c 0.035292,0.036336 0.1289358,0.1184343 0.2080974,0.1824405 0.3720493,0.300822 0.7689203,0.4970388 1.1910376,0.5888596 0.2104761,0.045785 0.6417434,0.045646 0.8504766,-2.749e-4 0.4124393,-0.090732 0.8369104,-0.3033606 1.2019163,-0.6020694 0.066078,-0.054077 0.1276085,-0.102202 0.1367339,-0.1069456 0.00913,-0.00474 0.036021,-0.019667 0.059771,-0.033162 0.115834,-0.065823 0.143831,-0.07333 0.273467,-0.07333 0.14786,0 0.224112,0.028107 0.314598,0.1159645 0.08191,0.079536 0.08615,0.095455 0.04113,0.1548996 -0.06191,0.081752 -0.336703,0.3025238 -0.568084,0.4564062 -0.510521,0.339525 -1.0150851,0.528927 -1.5682128,0.58867 -0.1297967,0.01402 -0.504956,0.01784 -0.5870834,0.006 z M 8.4582597,7.4642032 C 8.4717217,7.3241347 8.5750905,7.1811851 8.7114823,7.1140197 l 0.067574,-0.033276 0.7592329,-0.00396 0.7592318,-0.00396 V 6.9533007 6.8337895 L 10.193171,6.7336334 C 9.7534351,6.3115685 9.1650524,5.978348 8.5968809,5.8296014 8.3255423,5.7585655 8.1661389,5.7349224 7.8937556,5.7253132 7.188796,5.7004434 6.54486,5.8937355 5.8969132,6.3247113 5.6671226,6.4775543 5.3792424,6.7092693 5.3279037,6.7827076 c -0.01758,0.025147 -0.036212,0.045832 -0.041404,0.045969 -0.020663,5.442e-4 -0.055327,-0.1395123 -0.055327,-0.2235441 0,-0.1782124 0.05669,-0.2684705 0.2920103,-0.4649228 0.4963644,-0.4143793 1.0891614,-0.7094544 1.64928,-0.8209582 0.3296854,-0.065631 0.7837427,-0.075249 1.0956398,-0.023208 0.5273143,0.087983 1.0770863,0.320727 1.5256617,0.6458813 0.1251623,0.090726 0.3609035,0.2878012 0.4317915,0.360971 l 0.06477,0.066854 0.0072,-0.407151 c 0.0069,-0.3888227 0.0087,-0.4101922 0.04048,-0.4747083 0.06719,-0.136359 0.210168,-0.239703 0.350269,-0.2531619 l 0.06983,-0.00671 V 6.3810179 7.5340154 H 9.6048239 8.4515499 Z"
         id="path16"
         inkscape:connector-curvature="0" />
      <path
         style="display:inline;fill:#cbcbcb;fill-opacity:1;stroke:none;stroke-width:0.000164472"
         d="M 5.2311727,9.6079463 V 8.4549487 h 1.1532739 1.1532741 l -0.00671,0.069812 C 7.5175489,8.6648294 7.4141801,8.807779 7.2777884,8.8749444 l -0.067574,0.033276 -0.7592326,0.00396 -0.7592326,0.00396 v 0.1195115 0.1195108 l 0.1043495,0.1001566 c 0.4397362,0.4220648 1.0281191,0.7552847 1.5962905,0.9040317 0.2713385,0.07103 0.4307421,0.09468 0.7031253,0.104287 0.7049595,0.02488 1.3488957,-0.168421 1.9968435,-0.5993967 0.22979,-0.1528432 0.517671,-0.3845582 0.569009,-0.4579962 0.01758,-0.025146 0.03621,-0.045834 0.04141,-0.045968 0.02066,-5.453e-4 0.05532,0.1395108 0.05532,0.2235426 0,0.1829633 -0.05335,0.2645682 -0.310081,0.4743393 -0.5574568,0.455487 -1.1392983,0.730839 -1.7627174,0.834196 -0.1953681,0.03239 -0.5498136,0.04328 -0.7554337,0.02322 C 7.1647618,10.640921 6.4192471,10.291201 5.7966152,9.7148782 l -0.103594,-0.09589 -0.00423,0.4072648 c -0.00407,0.392137 -0.00547,0.409773 -0.037519,0.474822 -0.067181,0.136358 -0.2101654,0.239702 -0.3502674,0.253161 l -0.06983,0.0067 z M 8.7526045,7.9579547 C 8.5950837,7.8997827 8.4552124,7.7198452 8.4552124,7.5753749 V 7.5340154 H 9.6066552 10.758098 V 6.3809772 5.2279392 l 0.06346,0.00715 c 0.135134,0.015229 0.276717,0.1198106 0.342238,0.2527995 l 0.03329,0.067557 v 1.0504396 1.0504396 l -0.03329,0.067557 c -0.04248,0.086226 -0.129542,0.1732657 -0.215789,0.2157375 l -0.06757,0.033276 -1.0362987,0.00273 C 8.9803463,7.9778985 8.7986469,7.9749561 8.7526045,7.9579529 Z M 9.6060537,7.0074834 C 9.5707615,6.9711475 9.4771179,6.8890491 9.3979562,6.8250426 9.0259071,6.5242205 8.6290359,6.3280041 8.2069186,6.2361833 7.9964426,6.1903995 7.5651752,6.1905386 7.356442,6.2364581 6.9440029,6.3271902 6.5195316,6.5398183 6.1545256,6.8385276 6.0884476,6.8926033 6.0269172,6.9407294 6.0177918,6.9454732 c -0.00913,0.00474 -0.036022,0.019667 -0.059771,0.033161 -0.1158346,0.065823 -0.1438323,0.07333 -0.2734675,0.07333 -0.1478615,0 -0.2241132,-0.028107 -0.3145982,-0.1159641 C 5.2880399,6.8564646 5.2838129,6.8405443 5.328829,6.7811005 5.3907391,6.6993487 5.6655318,6.4785766 5.8969125,6.3246943 6.5449534,5.8937076 7.1888124,5.700444 7.8937549,5.7253133 c 0.2723833,0.00961 0.4317867,0.033252 0.7031253,0.1042882 0.5681715,0.1487466 1.1565542,0.4819671 1.5962908,0.904032 l 0.10435,0.1001561 V 6.9536694 7.073549 H 9.983871 9.6702208 Z"
         id="path17"
         inkscape:connector-curvature="0" />
      <path
         style="display:inline;fill:#000000;fill-opacity:1;stroke:none;stroke-width:0.000164472"
         d="M 4.9902999,10.952679 C 4.8091458,10.88539 4.64554,10.71844 4.5849395,10.539036 c -0.029647,-0.08777 -0.03024,-0.110439 -0.03024,-1.1559592 0,-1.0455209 5.927e-4,-1.0681915 0.030239,-1.1559581 0.061825,-0.1830301 0.2352746,-0.356438 0.4183485,-0.4182482 0.087787,-0.02964 0.1104639,-0.030233 1.1562354,-0.030233 1.0457718,0 1.0684478,5.941e-4 1.1562353,0.030233 0.1830741,0.06181 0.3565236,0.2352181 0.4183486,0.4182482 0.042298,0.1252231 0.042298,0.3448265 0,0.4700496 -0.061825,0.1830302 -0.2352745,0.356438 -0.4183486,0.4182478 -0.064326,0.02172 -0.126252,0.030335 -0.2198845,0.030603 l -0.1303408,3.685e-4 0.079161,0.051124 c 0.1141287,0.073704 0.4058677,0.2126276 0.5382426,0.2563032 0.2280777,0.075253 0.3859446,0.1003151 0.6275948,0.099635 0.2401104,-6.906e-4 0.3933124,-0.025238 0.6155332,-0.098683 0.2627122,-0.086828 0.624226,-0.2954031 0.8813423,-0.508491 0.1281123,-0.106174 0.2421672,-0.1732514 0.3728747,-0.219292 0.112138,-0.0395 0.338278,-0.038111 0.459518,0.00282 0.183074,0.06181 0.356523,0.2352178 0.418348,0.4182483 0.02285,0.067663 0.03024,0.125182 0.03024,0.2355659 0,0.3105876 -0.0944,0.4436575 -0.568525,0.801393 -0.5628585,0.42469 -1.2220986,0.695407 -1.8474312,0.758651 -0.191607,0.01938 -0.5541361,0.01933 -0.7330871,-1.02e-4 C 7.2435999,10.87888 6.6091694,10.630738 6.0870747,10.258196 L 5.9220384,10.140432 v 0.15454 c 0,0.119017 -0.00695,0.175119 -0.03024,0.244064 -0.061825,0.183029 -0.2352745,0.356437 -0.4183484,0.418246 -0.1299171,0.04386 -0.3585362,0.04169 -0.4831507,-0.0046 z M 5.43548,10.716665 c 0.08615,-0.04224 0.1732584,-0.129265 0.2157892,-0.215591 0.03205,-0.06505 0.033441,-0.08267 0.03752,-0.475205 l 0.00423,-0.4076474 0.098649,0.093039 c 0.5974293,0.5634494 1.3554953,0.9218284 2.1238001,1.0040354 0.192356,0.02058 0.577285,0.0092 0.7700273,-0.02271 0.60348,-0.09999 1.1772881,-0.365091 1.7127704,-0.7912943 0.306514,-0.2439618 0.35263,-0.3117333 0.35263,-0.5182199 0,-0.1512872 -0.02929,-0.2273563 -0.124034,-0.3220725 -0.09474,-0.094716 -0.170827,-0.1240046 -0.322151,-0.1240046 -0.129634,0 -0.157632,0.00751 -0.273467,0.07333 -0.02374,0.013497 -0.050645,0.02842 -0.059771,0.033162 -0.00913,0.00474 -0.070656,0.05287 -0.1367339,0.1069456 C 9.4697365,9.4491427 9.0452654,9.6617711 8.6328261,9.7525028 8.4240928,9.7984201 7.9928256,9.7985619 7.7823495,9.7527777 7.2938334,9.6465154 6.7989064,9.377886 6.413601,9.0098682 l -0.091358,-0.087258 0.4439864,-0.0072 c 0.4274211,-0.00693 0.4465076,-0.00843 0.5115598,-0.040471 0.086246,-0.042471 0.1733072,-0.1295114 0.2157891,-0.2157374 0.047915,-0.097255 0.047915,-0.296872 0,-0.3941269 C 7.4510956,8.178854 7.3640352,8.0918143 7.2777884,8.0493426 L 7.210215,8.0160664 H 6.1595234 5.108832 L 5.041259,8.0493424 C 4.9550118,8.0918141 4.8679513,8.1788538 4.8254694,8.2650799 l -0.033284,0.067557 -0.00416,1.0216605 c -0.00305,0.7481626 3.552e-4,1.0380756 0.01271,1.0829766 0.033529,0.121853 0.1547357,0.250281 0.2816467,0.298426 0.084912,0.03221 0.2687875,0.0223 0.3530992,-0.01903 z M 8.6605236,8.1754898 C 8.4793696,8.1081993 8.3157637,7.94125 8.2551633,7.7618454 c -0.042298,-0.1252231 -0.042298,-0.3448265 0,-0.4700496 0.061825,-0.1830301 0.2352745,-0.3564381 0.4183486,-0.4182483 0.064326,-0.021718 0.126252,-0.030335 0.2198845,-0.030601 L 9.0237372,6.8425783 8.9445761,6.7914543 C 8.8304485,6.7177497 8.5387095,6.5788272 8.4063345,6.5351511 8.1782568,6.4598986 8.02039,6.4348363 7.7787399,6.4355164 7.5386293,6.4361927 7.3854274,6.4607537 7.1632065,6.5341986 6.9004945,6.621026 6.5389806,6.8296017 6.2818642,7.0426897 6.0629209,7.2241417 5.90508,7.2893925 5.6850949,7.2893925 c -0.1793861,0 -0.2870344,-0.0324 -0.411151,-0.1237473 C 5.0881272,7.0288875 5.0008842,6.8500439 5.0008842,6.6058873 c 0,-0.2723162 0.071871,-0.3983497 0.3689796,-0.6470478 0.6247301,-0.5229373 1.3416263,-0.8421101 2.0549093,-0.9148762 0.2432596,-0.024816 0.7158922,-0.010892 0.9296881,0.02739 0.5646514,0.1011054 1.1414892,0.3512897 1.6012252,0.6944785 l 0.1115456,0.083268 v -0.154824 c 0,-0.1193048 0.0069,-0.175362 0.03024,-0.2443464 0.06182,-0.1830302 0.235274,-0.3564379 0.418348,-0.4182481 0.125254,-0.042288 0.344909,-0.042288 0.470162,0 0.183074,0.061811 0.356524,0.2352179 0.418349,0.4182481 0.02964,0.087766 0.03024,0.1104373 0.03024,1.1559583 0,1.0455209 -5.99e-4,1.0681916 -0.03024,1.1559581 -0.06182,0.1830301 -0.235275,0.3564381 -0.418349,0.4182483 -0.08789,0.029674 -0.109342,0.030219 -1.1626277,0.029482 L 8.7502697,8.2088264 8.6605236,8.17549 Z M 10.948012,7.9396215 c 0.08624,-0.042472 0.173307,-0.1295113 0.215789,-0.2157375 l 0.03329,-0.067557 V 6.6058873 5.5554477 l -0.03329,-0.067557 c -0.04248,-0.086226 -0.129542,-0.1732656 -0.215789,-0.2157374 -0.09728,-0.047904 -0.296943,-0.047904 -0.394221,0 -0.08625,0.042471 -0.173308,0.1295114 -0.21579,0.2157374 -0.03179,0.064516 -0.03361,0.085885 -0.04048,0.4747083 l -0.0072,0.407151 -0.06477,-0.066854 C 10.154668,6.2297261 9.9189269,6.0326503 9.7937646,5.9419249 9.3451892,5.6167706 8.7954172,5.3840271 8.2681029,5.2960436 7.9562058,5.2440029 7.5021485,5.2536209 7.1724631,5.319252 6.6141615,5.4303942 6.0215082,5.724892 5.5262299,6.1372888 5.2777662,6.344174 5.2232686,6.4363237 5.2335634,6.632157 c 0.00647,0.1231404 0.0453,0.2122838 0.12884,0.295803 0.094739,0.094716 0.1708264,0.1240044 0.32215,0.1240044 0.1296352,0 0.1576329,-0.00751 0.2734675,-0.07333 0.023749,-0.013495 0.050645,-0.028418 0.059771,-0.033161 0.00913,-0.00474 0.070656,-0.05287 0.1367338,-0.1069456 C 6.5195316,6.5398182 6.9440029,6.3271901 7.356442,6.236458 7.5651752,6.1905388 7.9964426,6.1903996 8.2069186,6.2361831 8.6954389,6.3424482 9.1903662,6.6110778 9.5756712,6.9790956 l 0.091357,0.087258 -0.4439866,0.0072 c -0.4274209,0.00693 -0.4465073,0.00843 -0.5115595,0.040471 -0.08652,0.042606 -0.1735479,0.1297765 -0.2153852,0.2157375 -0.039791,0.081758 -0.052086,0.2351775 -0.026241,0.3274623 0.03513,0.1254442 0.1558917,0.253887 0.282749,0.3007352 0.046042,0.017003 0.2277418,0.019945 1.0915358,0.017671 l 1.0362993,-0.00273 0.06757,-0.033276 z"
         id="path18"
         inkscape:connector-curvature="0" />
      <path
         style="display:inline;fill:#323232;fill-opacity:1;stroke:none;stroke-width:0.000164472"
         d="M 4.9902999,10.952679 C 4.8091458,10.88539 4.64554,10.71844 4.5849395,10.539036 c -0.029647,-0.08777 -0.03024,-0.110439 -0.03024,-1.1559592 0,-1.0455209 5.927e-4,-1.0681915 0.030239,-1.1559581 0.061825,-0.1830301 0.2352746,-0.356438 0.4183485,-0.4182482 0.087787,-0.02964 0.1104639,-0.030233 1.1562354,-0.030233 1.0457718,0 1.0684478,5.941e-4 1.1562353,0.030233 0.1830741,0.06181 0.3565236,0.2352181 0.4183486,0.4182482 0.042298,0.1252231 0.042298,0.3448265 0,0.4700496 -0.061825,0.1830302 -0.2352745,0.356438 -0.4183486,0.4182478 -0.064326,0.02172 -0.126252,0.030335 -0.2198845,0.030603 l -0.1303408,3.685e-4 0.079161,0.051124 c 0.1141287,0.073704 0.4058677,0.2126276 0.5382426,0.2563032 0.2280777,0.075253 0.3859446,0.1003151 0.6275948,0.099635 0.2401104,-6.906e-4 0.3933124,-0.025238 0.6155332,-0.098683 0.2627122,-0.086828 0.624226,-0.2954031 0.8813423,-0.508491 0.1281123,-0.106174 0.2421672,-0.1732514 0.3728747,-0.219292 0.112138,-0.0395 0.338278,-0.038111 0.459518,0.00282 0.183074,0.06181 0.356523,0.2352178 0.418348,0.4182483 0.02285,0.067663 0.03024,0.125182 0.03024,0.2355659 0,0.3105876 -0.0944,0.4436575 -0.568525,0.801393 -0.5628585,0.42469 -1.2220986,0.695407 -1.8474312,0.758651 -0.191607,0.01938 -0.5541361,0.01933 -0.7330871,-1.02e-4 C 7.2435999,10.87888 6.6091694,10.630738 6.0870747,10.258196 L 5.9220384,10.140432 v 0.15454 c 0,0.119017 -0.00695,0.175119 -0.03024,0.244064 -0.061825,0.183029 -0.2352745,0.356437 -0.4183484,0.418246 -0.1299171,0.04386 -0.3585362,0.04169 -0.4831507,-0.0046 z M 5.43548,10.716665 c 0.08615,-0.04224 0.1732584,-0.129265 0.2157892,-0.215591 0.03205,-0.06505 0.033441,-0.08267 0.03752,-0.475205 l 0.00423,-0.4076474 0.098649,0.093039 c 0.5974293,0.5634494 1.3554953,0.9218284 2.1238001,1.0040354 0.192356,0.02058 0.577285,0.0092 0.7700273,-0.02271 0.60348,-0.09999 1.1772881,-0.365091 1.7127704,-0.7912943 0.306514,-0.2439618 0.35263,-0.3117333 0.35263,-0.5182199 0,-0.1512872 -0.02929,-0.2273563 -0.124034,-0.3220725 -0.09474,-0.094716 -0.170827,-0.1240046 -0.322151,-0.1240046 -0.129634,0 -0.157632,0.00751 -0.273467,0.07333 -0.02374,0.013497 -0.050645,0.02842 -0.059771,0.033162 -0.00913,0.00474 -0.070656,0.05287 -0.1367339,0.1069456 C 9.4697365,9.4491427 9.0452654,9.6617711 8.6328261,9.7525028 8.4240928,9.7984201 7.9928256,9.7985619 7.7823495,9.7527777 7.2938334,9.6465154 6.7989064,9.377886 6.413601,9.0098682 l -0.091358,-0.087258 0.4439864,-0.0072 c 0.4274211,-0.00693 0.4465076,-0.00843 0.5115598,-0.040471 0.086246,-0.042471 0.1733072,-0.1295114 0.2157891,-0.2157374 0.047915,-0.097255 0.047915,-0.296872 0,-0.3941269 C 7.4510956,8.178854 7.3640352,8.0918143 7.2777884,8.0493426 L 7.210215,8.0160664 H 6.1595234 5.108832 L 5.041259,8.0493424 C 4.9550118,8.0918141 4.8679513,8.1788538 4.8254694,8.2650799 l -0.033284,0.067557 -0.00416,1.0216605 c -0.00305,0.7481626 3.552e-4,1.0380756 0.01271,1.0829766 0.033529,0.121853 0.1547357,0.250281 0.2816467,0.298426 0.084912,0.03221 0.2687875,0.0223 0.3530992,-0.01903 z M 8.6605236,8.1754898 C 8.4793696,8.1081993 8.3157637,7.94125 8.2551633,7.7618454 c -0.042298,-0.1252231 -0.042298,-0.3448265 0,-0.4700496 0.061825,-0.1830301 0.2352745,-0.3564381 0.4183486,-0.4182483 0.064326,-0.021718 0.126252,-0.030335 0.2198845,-0.030601 L 9.0237372,6.8425783 8.9445761,6.7914543 C 8.8304485,6.7177497 8.5387095,6.5788272 8.4063345,6.5351511 8.1782568,6.4598986 8.02039,6.4348363 7.7787399,6.4355164 7.5386293,6.4361927 7.3854274,6.4607537 7.1632065,6.5341986 6.9004945,6.621026 6.5389806,6.8296017 6.2818642,7.0426897 6.0629209,7.2241417 5.90508,7.2893925 5.6850949,7.2893925 c -0.1793861,0 -0.2870344,-0.0324 -0.411151,-0.1237473 C 5.0881272,7.0288875 5.0008842,6.8500439 5.0008842,6.6058873 c 0,-0.2723162 0.071871,-0.3983497 0.3689796,-0.6470478 0.6247301,-0.5229373 1.3416263,-0.8421101 2.0549093,-0.9148762 0.2432596,-0.024816 0.7158922,-0.010892 0.9296881,0.02739 0.5646514,0.1011054 1.1414892,0.3512897 1.6012252,0.6944785 l 0.1115456,0.083268 v -0.154824 c 0,-0.1193048 0.0069,-0.175362 0.03024,-0.2443464 0.06182,-0.1830302 0.235274,-0.3564379 0.418348,-0.4182481 0.125254,-0.042288 0.344909,-0.042288 0.470162,0 0.183074,0.061811 0.356524,0.2352179 0.418349,0.4182481 0.02964,0.087766 0.03024,0.1104373 0.03024,1.1559583 0,1.0455209 -5.99e-4,1.0681916 -0.03024,1.1559581 -0.06182,0.1830301 -0.235275,0.3564381 -0.418349,0.4182483 -0.08789,0.029674 -0.109342,0.030219 -1.1626277,0.029482 L 8.7502697,8.2088264 8.6605236,8.17549 Z M 10.948012,7.9396215 c 0.08624,-0.042472 0.173307,-0.1295113 0.215789,-0.2157375 l 0.03329,-0.067557 V 6.6058873 5.5554477 l -0.03329,-0.067557 c -0.04248,-0.086226 -0.129542,-0.1732656 -0.215789,-0.2157374 -0.09728,-0.047904 -0.296943,-0.047904 -0.394221,0 -0.08625,0.042471 -0.173308,0.1295114 -0.21579,0.2157374 -0.03179,0.064516 -0.03361,0.085885 -0.04048,0.4747083 l -0.0072,0.407151 -0.06477,-0.066854 C 10.154668,6.2297261 9.9189269,6.0326503 9.7937646,5.9419249 9.3451892,5.6167706 8.7954172,5.3840271 8.2681029,5.2960436 7.9562058,5.2440029 7.5021485,5.2536209 7.1724631,5.319252 6.6141615,5.4303942 6.0215082,5.724892 5.5262299,6.1372888 5.2777662,6.344174 5.2232686,6.4363237 5.2335634,6.632157 c 0.00647,0.1231404 0.0453,0.2122838 0.12884,0.295803 0.094739,0.094716 0.1708264,0.1240044 0.32215,0.1240044 0.1296352,0 0.1576329,-0.00751 0.2734675,-0.07333 0.023749,-0.013495 0.050645,-0.028418 0.059771,-0.033161 0.00913,-0.00474 0.070656,-0.05287 0.1367338,-0.1069456 C 6.5195316,6.5398182 6.9440029,6.3271901 7.356442,6.236458 7.5651752,6.1905388 7.9964426,6.1903996 8.2069186,6.2361831 8.6954389,6.3424482 9.1903662,6.6110778 9.5756712,6.9790956 l 0.091357,0.087258 -0.4439866,0.0072 c -0.4274209,0.00693 -0.4465073,0.00843 -0.5115595,0.040471 -0.08652,0.042606 -0.1735479,0.1297765 -0.2153852,0.2157375 -0.039791,0.081758 -0.052086,0.2351775 -0.026241,0.3274623 0.03513,0.1254442 0.1558917,0.253887 0.282749,0.3007352 0.046042,0.017003 0.2277418,0.019945 1.0915358,0.017671 l 1.0362993,-0.00273 0.06757,-0.033276 z"
         id="path19"
         inkscape:connector-curvature="0" />
    </g>
    <g
       id="g1"
       inkscape:label="ZOOM"
       transform="matrix(0.6261748,0,0,0.6254713,720.6086,499.21918)"
       style="display:inline">
      <g
         id="g67"
         inkscape:label="frame">
        <path
           style="baseline-shift:baseline;display:inline;overflow:visible;opacity:1;vector-effect:none;fill:#323232;fill-opacity:1;enable-background:accumulate;stop-color:#000000;stop-opacity:1"
           d="m 387.38724,968.72869 -54.81445,54.86721 -42.57226,42.6094 c 5.44681,-0.3194 10.89458,-0.474 16.33398,-0.3458 49.32877,1.1627 97.75598,20.6642 134.43945,57.3477 40.69321,40.6932 60.23415,95.8648 57.06055,150.6582 l 42.94922,-42.8555 55.30078,-55.1777 z"
           id="path36" />
        <path
           style="baseline-shift:baseline;display:inline;overflow:visible;opacity:1;vector-effect:none;fill:#323232;fill-opacity:1;enable-background:accumulate;stop-color:#000000;stop-opacity:1"
           d="m 852.43412,161.12842 c -145.6258,-1e-5 -285.28716,57.84961 -388.26014,160.82261 C 361.201,424.92404 303.35139,564.5854 303.35143,710.2112 c 2e-5,302.5967 246.50514,549.0826 549.08269,549.0826 145.62577,0 285.28708,-57.8496 388.26008,-160.8226 102.973,-102.97292 160.8226,-242.63423 160.8226,-388.26 0,-145.6258 -57.8496,-285.28716 -160.8225,-388.26016 -102.973,-102.973 -242.63438,-160.82263 -388.26018,-160.82262 z"
           id="path67" />
      </g>
      <g
         id="g3"
         inkscape:label="inner"
         style="display:inline"
         transform="matrix(0.93399916,0,0,0.93399916,56.10626,46.935572)">
        <path
           id="path6"
           style="display:inline;opacity:1;fill:#ffffff;stroke-width:2.84579;stroke-linecap:round;stroke-linejoin:round;paint-order:stroke markers fill"
           d="M 1331.4505,711.13599 A 481.36649,481.36649 0 0 1 850.08405,1192.5025 481.36649,481.36649 0 0 1 368.71756,711.13599 481.36649,481.36649 0 0 1 850.08405,229.7695 481.36649,481.36649 0 0 1 1331.4505,711.13599 Z" />
        <path
           id="path4"
           style="display:inline;opacity:1;fill:#98cbfe;stroke-width:2.84579;stroke-linecap:round;stroke-linejoin:round;paint-order:stroke markers fill"
           d="M 1219.4689,711.13599 A 369.38483,369.38483 0 0 1 850.08405,1080.5208 369.38483,369.38483 0 0 1 480.69922,711.13599 369.38483,369.38483 0 0 1 850.08405,341.75116 369.38483,369.38483 0 0 1 1219.4689,711.13599 Z" />
        <path
           id="path5"
           style="display:inline;opacity:1;fill:#ffffff;stroke-width:2.84579;stroke-linecap:round;stroke-linejoin:round;paint-order:stroke markers fill"
           d="M 799.35387,550.4549 A 106.46429,106.46429 0 0 1 692.88959,656.91918 106.46429,106.46429 0 0 1 586.4253,550.4549 106.46429,106.46429 0 0 1 692.88959,443.99061 106.46429,106.46429 0 0 1 799.35387,550.4549 Z" />
      </g>
      <g
         id="g41"
         inkscape:label="handle"
         style="display:inline">
        <path
           d="m 306.33451,1065.8595 c -38.36682,-0.9043 -77.27968,9.2867 -111.63672,31.1133 -24.83431,15.777 -342.80506,333.7478 -358.58203,358.5821 -76.64549,120.6467 -4.2562,280.8295 136.400391,301.8281 51.55113,7.696 106.422461,-6.6449 148.556639,-38.8262 29.72818,-22.7058 332.89812,-328.8182 345.91602,-349.2734 49.91766,-78.4363 39.00725,-180.8541 -26.21485,-246.0762 -36.68347,-36.6835 -85.11068,-56.185 -134.43945,-57.3477 z"
           style="baseline-shift:baseline;display:inline;overflow:visible;opacity:1;vector-effect:none;fill:#320000;fill-opacity:1;stroke:#000000;stroke-opacity:1;enable-background:accumulate;stop-color:#000000;stop-opacity:1"
           id="path35"
           inkscape:label="path1233"
           sodipodi:nodetypes="ssssssss" />
        <path
           d="m 303.00443,1162.4513 c -36.29807,-1.5079 -63.8205,24.7669 -87.15994,49.0264 -101.51724,97.69 -201.651847,197.0549 -297.512502,300.2469 -28.659998,38.7471 -16.752897,98.2779 23.062962,124.7718 33.286964,26.4305 85.910582,33.1284 118.881201,2.528 111.048399,-106.2948 220.996239,-214.0039 325.645279,-326.5795 16.94518,-25.9927 16.01305,-60.8069 6.31743,-89.2564 -15.15473,-34.8058 -51.8164,-58.1699 -89.23443,-60.7372 z"
           style="display:none;fill:#986532;fill-opacity:1;stroke:#000000;stroke-width:0.000357143;stroke-opacity:1"
           id="path8"
           inkscape:label="path1232"
           sodipodi:nodetypes="cccccccc" />
        <path
           style="display:none;fill:#fecb98;fill-opacity:1;stroke:#000000;stroke-width:0.0341268;stroke-opacity:1"
           d="m -55.612531,1600.3454 c -21.0038,-8.2518 -39.032481,-33.168 -31.72506,-55.9333 110.582505,-121.6594 227.305011,-236.1199 344.389521,-351.3337 13.40748,-15.4302 34.30234,-28.0867 54.58949,-17.1988 26.53935,10.466 41.02099,48.8691 18.83172,70.9406 l -345.469211,343.636 c -11.264485,9.7223 -25.904314,18.2502 -40.61646,9.8892 z"
           id="path825-3"
           inkscape:connector-curvature="0"
           inkscape:label="path1231"
           sodipodi:nodetypes="ccccscc" />
        <path
           d="m 304.55469,1141.3398 c 30.61019,0.7215 60.18093,12.6028 82.83203,35.254 40.2544,40.2544 47.16493,103.0351 15.90625,152.1523 0.0434,-0.068 -156.56178,161.1216 -156.64063,161.2012 -48.44439,48.9146 -97.73417,98.021 -132.06445,131.3925 -0.0224,0.022 -39.35028,37.2199 -39.343749,37.2149 -25.60407,19.5559 -61.314092,28.6727 -91.580078,24.1543 -44.470414,-6.639 -75.710159,-33.8408 -92.035153,-69.9649 -16.325,-36.124 -16.22901,-78.2263 8.21484,-116.7031 -0.0434,0.068 69.953871,-73.1061 70.037109,-73.1914 28.4119231,-29.1292 61.878579,-62.9586 95.515625,-96.5957 33.637047,-33.637 67.466536,-67.1037 96.595706,-95.5156 0.0853,-0.083 73.2598,-70.0806 73.1914,-70.0371 21.55593,-13.6942 45.56516,-19.9225 69.3711,-19.3614 z"
           style="baseline-shift:baseline;display:inline;overflow:visible;opacity:1;vector-effect:none;fill:#986532;fill-opacity:1;stroke:none;stroke-opacity:1;enable-background:accumulate;stop-color:#000000;stop-opacity:1"
           id="path7"
           inkscape:label="path1233"
           sodipodi:nodetypes="ssssssss" />
        <path
           d="m 302.88281,1212.2813 c 13.01705,0.3068 24.86375,5.0278 34.32617,14.4902 15.27037,15.2704 19.10179,37.7425 9.3711,57.9121 -0.53462,0.6729 -0.78938,1.0685 -1.29688,1.623 -0.69206,0.7562 -1.42768,1.5575 -2.20508,2.4004 -31.09585,33.7157 -119.56221,124.2359 -194.73828,199.4473 -0.0612,0.061 -116.20429,114.0336 -116.167965,114.0059 -10.067826,7.6896 -27.7706493,11.897 -38.03125,10.3652 -20.167225,-3.0108 -30.708732,-13.2069 -37.847656,-29.0039 -7.138924,-15.7971 -7.952148,-31.486 3.447265,-49.4297 -0.154702,0.2435 313.737906,-313.649 313.494136,-313.4941 9.52448,-6.0508 19.52792,-8.555 29.64844,-8.3164 z"
           style="baseline-shift:baseline;display:inline;overflow:visible;opacity:1;fill:#fecb98;fill-opacity:1;stroke:none;stroke-width:0.999683;stroke-dasharray:none;stroke-opacity:1;enable-background:accumulate;stop-color:#000000;stop-opacity:1"
           id="path9"
           inkscape:label="path1233"
           sodipodi:nodetypes="ssssssss"
           transform="translate(-28.231199,-24.782387)" />
      </g>
    </g>
  </g>
</svg>
